<svg clip-rule="evenodd" fill-rule="evenodd" stroke-linejoin="round" stroke-miterlimit="1.41421" viewBox="0 0 560 400" xmlns="http://www.w3.org/2000/svg"><path d="m95.5 190.7h-21.8l-6.7-16.1h-36.4l-6.1 16.1h-21.5l32.8-81.4h23.5zm-47.6-61.9-11.9 31.6h25zm127-19.5h17.7v81.4h-20.3v-50.9l-22 25.5h-3.1l-22-25.5v50.9h-20.3v-81.4h17.7l26.1 30.2zm69.1 0c29.7 0 45 18.5 45 40.8 0 23.4-14.8 40.6-47.3 40.6h-33.7v-81.4zm-15.6 66.5h13.3c20.4 0 26.5-13.9 26.5-25.8 0-14-7.5-25.8-26.7-25.8h-13zm101-47.2-25.6-25.6h93.2v93.2l-25.6-25.6v-42zm0 5.1-26.4 26.4v36.9h36.9l26.4-26.4h-36.9z" fill-rule="nonzero" transform="matrix(.913706 0 0 .913706 97.2589 62.9442)"/></svg>