<svg clip-rule="evenodd" fill-rule="evenodd" viewBox="0 0 560 400" xmlns="http://www.w3.org/2000/svg"><g transform="matrix(1.53358 0 0 1.53358 166.994 40.405)"><path d="m61.9 184.1c2.9-1.8 6.3-3.8 6.8-7.399 1-4.7-.5-11.3-5.9-12.5-6.5-1.2-13.1-.5-19.7-.5.1 11.8.003 23.688.103 35.487.013.013 5.984.016 6.197.013.1-4.8.1-9.7 0-14.5 1.7.2 3.5.1 5.1.7 4.4 3.6 9.695 13.69 9.7 13.699-.013.01 6.856-.034 6.847-.021-2.4-5.401-5.347-10.379-9.147-14.979zm-2.3-5.7c-3.3.699-6.6.399-9.9.5-.1-3-.1-6.101-.1-9.101 3.1 0 6.2-.2 9.3.2 4.4.001 4.6 7.501.7 8.401z" fill="#f62e02" fill-rule="nonzero"/><path d="m27.219 163.594s-6.984.016-6.986.004c-3.7 11.8-8.252 23.723-11.752 35.622 2.2 0 4.001.066 6.52.08 1-2.6 1.9-5.2 2.9-7.7 4-.1 8.1 0 12.1 0 1 2.601 1.847 5.108 2.847 7.709-.017.016 6.613-.018 6.613-.018-3.701-12-8.043-23.897-12.242-35.697zm-7.419 21.706c1.1-4.2 2.4-8.3 3.8-12.399 1.7 4 3.1 8.199 4.3 12.399z" fill="#f62e02" fill-rule="nonzero"/><path d="m73.999 8.821c-35.615 0-64.486 29.671-64.486 66.272 0 19.069 7.849 36.245 20.393 48.337l44.834-114.59c-.248-.003-.492-.019-.741-.019zm.824.021 44.335 113.543c11.924-12.026 19.328-28.768 19.328-47.293 0-36.316-28.429-65.794-63.663-66.25zm-.883 113.502c-6.812 0-12.44-5.201-13.455-11.99l-5.813 27.98c6.102 1.967 12.593 3.031 19.326 3.031 6.616 0 12.997-1.027 19.006-2.93l-5.66-27.74c-1.149 6.622-6.706 11.649-13.404 11.649zm0-28.358c4.677 0 8.801 2.452 11.256 6.184l-11.196-54.87-11.439 55.065c2.439-3.841 6.622-6.379 11.379-6.379z" fill="#f62e02" fill-rule="nonzero"/><path d="m73.999 8.821c-35.615 0-64.486 29.671-64.486 66.272 0 19.069 7.849 36.245 20.393 48.337l44.834-114.59c-.248-.003-.492-.019-.741-.019zm.824.021 44.335 113.543c11.924-12.026 19.328-28.768 19.328-47.293 0-36.316-28.429-65.794-63.663-66.25zm-.883 113.502c-6.812 0-12.44-5.201-13.455-11.99l-5.813 27.98c6.102 1.967 12.593 3.031 19.326 3.031 6.616 0 12.997-1.027 19.006-2.93l-5.66-27.74c-1.149 6.622-6.706 11.649-13.404 11.649zm0-28.358c4.677 0 8.801 2.452 11.256 6.184l-11.196-54.87-11.439 55.065c2.439-3.841 6.622-6.379 11.379-6.379z" fill="none" stroke="#f62e02" stroke-width=".09"/><path d="m93.426 193.447v-9.68h16.439v-6.092h-16.439v-7.844h17.357v-6.259h-23.616v35.466h6.259v-.007h17.858v-5.584z" fill="#f62e02" fill-rule="nonzero"/></g><path d="m345.82169664 291.61153832h10.1062922v54.16297844h-10.1062922z" fill="#f62e02" stroke-width="1.53358"/><path d="m345.70821172 336.69112242h34.29238238v9.08339434h-34.29238238z" fill="#f62e02" stroke-width="1.53358"/><path d="m281.81006744 291.41063934h9.90385964v54.21051942h-9.90385964z" fill="#f62e02" stroke-width="1.53358"/></svg>