<svg clip-rule="evenodd" fill-rule="evenodd" stroke-linejoin="round" stroke-miterlimit="2" viewBox="0 0 560 400" xmlns="http://www.w3.org/2000/svg"><g fill="#00abfb" fill-rule="nonzero" transform="matrix(.602007 0 0 .602007 100 124.147)"><path d="m501.39 45.715c-22.853-3.513-40.551-21.235-44.028-44.104-.146-.929-.94-1.611-1.879-1.611s-1.733.682-1.878 1.611c-3.555 22.768-21.232 40.424-43.995 43.914-.928.146-1.61.94-1.61 1.88s.682 1.734 1.61 1.88c22.853 3.513 40.551 21.235 44.028 44.104.146.929.94 1.611 1.879 1.611s1.733-.682 1.878-1.611c3.555-22.768 21.232-40.424 43.995-43.914.928-.146 1.61-.94 1.61-1.88s-.682-1.734-1.61-1.88z"/><path d="m127.696 183.65v-86.8l-21.076-.122-2.569 13.193c-5.059-4.765-10.957-8.55-17.58-11.289-7.472-3.073-15.614-4.632-24.203-4.632-11.605 0-22.283 2.717-31.765 8.083-9.483 5.367-17.011 12.904-22.394 22.39-5.384 9.475-8.109 20.22-8.109 31.921 0 11.635 2.725 22.368 8.109 31.921 5.383 9.553 12.922 17.146 22.394 22.546 9.471 5.4 20.16 8.139 31.765 8.139 8.522 0 16.597-1.536 23.991-4.587 6.377-2.628 13.28-7.126 17.781-10.755 3.127 9.23 13.671 15.275 27.119 15.275h5.841v-22.958l-1.296-.111c-.335-.022-8.008-.835-8.008-12.214zm-26.929-27.256c0 10.511-3.507 19.373-10.42 26.332-6.914 6.947-15.76 10.477-26.292 10.477-10.544 0-19.412-3.53-26.359-10.477-6.948-6.959-10.466-15.81-10.466-26.332 0-10.443 3.518-19.261 10.466-26.22 6.947-6.959 15.804-10.477 26.359-10.477 10.532 0 19.389 3.507 26.303 10.432 6.902 6.915 10.409 15.755 10.409 26.265z"/><path d="m227.011 148.191c-5.084-2.138-13.475-4.187-24.95-6.091-3.005-.49-5.284-.89-6.815-1.202-1.542-.323-3.52-.746-5.933-1.303-2.302-.534-4.034-1.091-5.162-1.67-1.185-.601-2.436-1.38-3.732-2.316-1.162-.824-1.978-1.781-2.436-2.839-.48-1.113-.726-2.427-.726-3.908 0-3.808 1.698-6.78 5.173-9.085 3.62-2.394 8.648-3.607 14.961-3.607 6.771 0 12.112 1.38 15.855 4.097 3.676 2.672 5.564 6.424 5.754 11.49l.056 1.358h25.542l-.023-1.447c-.223-11.679-4.636-21.166-13.139-28.18-8.436-6.959-19.71-10.488-33.509-10.488-13.787 0-25.117 3.374-33.687 10.043-8.67 6.747-13.072 15.687-13.072 26.554 0 3.841.502 7.426 1.486 10.622.983 3.184 2.201 5.945 3.653 8.194 1.475 2.294 3.542 4.398 6.134 6.235 2.514 1.793 4.872 3.251 6.995 4.32 2.145 1.091 4.994 2.138 8.447 3.107 3.385.946 6.201 1.647 8.346 2.082 2.123.423 4.983.957 8.581 1.581 3.508.623 6.302 1.158 8.369 1.569 2.022.412 4.357 1.036 6.927 1.86 2.492.79 4.425 1.67 5.743 2.594 1.274.902 2.391 2.127 3.307 3.63.894 1.48 1.33 3.095 1.33 4.954 0 4.22-1.888 7.46-5.777 9.909-4.044 2.55-9.307 3.842-15.62 3.842-6.927 0-12.636-1.559-16.983-4.632-4.279-3.017-6.48-7.193-6.748-12.76l-.067-1.347h-26.291l.045 1.459c.368 12.447 5.072 22.535 13.977 30.006 8.85 7.415 20.693 11.178 35.207 11.178 14.492 0 26.346-3.518 35.229-10.466 8.983-7.025 13.542-16.523 13.542-28.224 0-1.025-.034-1.971-.112-2.817-.726-13.45-7.408-22.969-19.877-28.302z"/><path d="m362.951 101.09c-9.396-5.371-20.063-8.09-31.735-8.09-8.447 0-16.458 1.538-23.812 4.591-6.628 2.741-12.553 6.563-17.641 11.366l-4.151-13.116h-18.612v156.159h26.802v-46.333c10.634 8.313 23.21 12.536 37.414 12.536 17.697 0 32.571-6.028 44.232-17.918 11.649-11.878 17.552-26.933 17.552-44.728 0-11.711-2.667-22.475-7.934-31.992-5.277-9.549-12.72-17.104-22.115-22.475zm2.934 54.456c0 10.519-3.481 19.389-10.355 26.353-6.862 6.965-15.677 10.486-26.211 10.486-10.533 0-19.415-3.544-26.378-10.542-6.974-6.997-10.511-15.845-10.511-26.297s3.537-19.3 10.511-26.298 15.845-10.541 26.378-10.541c10.534 0 19.349 3.532 26.222 10.486 6.863 6.953 10.344 15.823 10.344 26.353z"/><path d="m586.266 96.011c-14.803 0-26.559 4.99-34.978 14.847l-3.57-14.212h-18.718v119.354h26.715v-63.586c0-10.192 2.391-17.988 7.107-23.167 4.671-5.146 11.789-7.752 21.142-7.752h14.036v-25.495h-11.734z"/><path d="m489.314 96.011-33.957 78.995-36.112-78.995h-29.245l51.443 109.23c-2.378 4.804-8.173 15.824-10.809 18.003-3.372 2.802-9.647 4.47-16.783 4.47h-4.634v24.286h6.544c12.048 0 21.797-3.025 28.999-9.007 7.102-5.894 14.125-16.446 20.87-31.38l52.37-115.613h-28.686z"/></g></svg>