<svg clip-rule="evenodd" fill-rule="evenodd" viewBox="0 0 560 400" xmlns="http://www.w3.org/2000/svg"><path d="m366.436 74.346h-182.066v155.518c0 25.586 9.947 49.641 28.009 67.734 18.062 18.092 42.077 28.055 67.621 28.055s49.558-9.963 67.62-28.055c18.062-18.093 28.01-42.148 28.01-67.734v-155.518z"/><path d="m346.539 95.642v14.448l-11.059-14.448h-5.045v29.794h5.034v-19.97l11.07 14.406v5.564h5.035v-29.794zm-67.644 13.107c-1.682-.485-3.174-.868-4.619-1.238-1.288-.33-2.504-.641-3.749-1-.571-.152-1.19-.571-1.19-1.29v-3.639c0-.651.529-1.161 1.203-1.161h6.391c.674 0 1.203.511 1.203 1.161v2.495h5.208v-3.635c0-2.646-2.15-4.8-4.792-4.8h-9.674c-2.662 0-4.748 2.108-4.748 4.8v6.005c0 2.947 2.665 4.102 4.67 4.714 1.907.568 3.288.928 4.748 1.308 1.07.278 2.14.556 3.486.929 1.034.258 1.19.892 1.19 1.246v4.851c0 .651-.529 1.161-1.204 1.161h-6.566c-.674 0-1.204-.51-1.204-1.161v-2.438h-5.208v3.577c0 2.647 2.15 4.802 4.792 4.802h9.848c2.662 0 4.748-2.109 4.748-4.802v-7.174c0-2.281-1.526-3.868-4.534-4.713zm37.913 16.688h5.209v-29.794h-5.209zm-26.957-25.015h7.516v25.016h5.208v-25.016h7.517v-4.779h-20.24v4.779zm-67.244 1.161c0-.651-.529-1.161-1.203-1.161h-6.564c-.674 0-1.202.51-1.202 1.161v8.867h8.97v-8.867zm5.208-1.139v24.993h-5.208v-9.771h-8.97v9.771h-5.209v-24.993c0-2.647 2.15-4.801 4.793-4.801h9.846c2.662 0 4.748 2.108 4.748 4.801zm22.597-4.8h5.208v24.993c0 2.647-2.149 4.801-4.792 4.801h-9.846c-2.662 0-4.748-2.109-4.748-4.801v-24.993h5.208v23.854c0 .651.529 1.16 1.203 1.16h6.564c.674 0 1.202-.509 1.202-1.16v-23.854z" fill="#fff"/><path d="m375.63 74.346h-191.261v155.518c0 25.586 9.947 49.641 28.01 67.734 18.062 18.092 42.077 28.055 67.621 28.055s49.558-9.963 67.621-28.055c18.062-18.093 28.009-42.148 28.009-67.734zm4.37-4.378v159.896c0 13.515-2.646 26.636-7.864 38.993-5.037 11.929-12.246 22.64-21.426 31.835-9.179 9.196-19.872 16.416-31.781 21.461-12.337 5.228-25.435 7.878-38.929 7.878-13.495 0-26.592-2.65-38.929-7.878-11.909-5.045-22.602-12.265-31.781-21.461-9.18-9.194-16.388-19.905-21.426-31.835-5.218-12.358-7.863-25.478-7.863-38.993v-159.896h200zm-184.251 159.895c0 18.315 5.858 35.283 15.79 49.131 36.235-.013 58.923-11.731 58.923-42.482 0-11.149-5.744-13.101-12.551-13.101-14.297 0-26.827 12.648-38.259 12.648-7.641 0-12.91-3.194-15.914-4.579l2.882-6.279s6.564 3.897 11.787 3.897c5.548 0 11.14-3.618 11.14-3.618s-4.304-1.863-7.781-6.554c-2.129-2.872-3.609-7.29-4.159-10.985h6.945c.933 4.347 3.896 12.56 12.933 12.571 3.055-.005 9.514-3.322 13.119-3.322-5.102-6.282-7.483-16.682-7.483-16.682s2.997-1.102 6.492-2.464c6.117 22.27 10.955 12.321 21.164 21.594v-.001c.01-28.594 18.807-30.068 18.807-48.725 0-8.644-4.091-13.426-6.258-15.764l3.709-5.883s4.748 4.377 7.491 11.643c3.32-4.864 9.153-6.843 10.635-6.843v6.95c-3.366 0-8.218 5.141-8.938 12.461-.6 6.104-2.798 10.54-2.798 10.54s2.711-1.07 5.752-1.07c6.809 0 13.732 3.02 13.732 3.02 3.702-14.61 9.74-20.363 20.203-22.885v6.943c-5.974 1.733-10.376 5.748-13.601 18.209 0 0 6.546 2.675 12.704 2.675 4.333 0 8.252-.926 11.572-5.479l6.445 2.521s-3.034 9.882-15.405 9.882c-17.943 0-23.478-7.931-36.45-7.931-8.456 0-20.635 7.195-20.635 32.113v9.192s-.143 25.345-.143 26.164c0 28.148-5.619 47.874-8.695 56.155 3.632.48 7.336.733 11.098.733s7.465-.252 11.098-.733c-3.076-8.281-8.695-28.007-8.695-56.155 0-.819-.143-26.164-.143-26.164 0-3.894.014-6.49.014-9.192 0-13.069 4.326-18.386 4.326-18.386 2.69 6.482 2.598 14.681 2.598 16.034 10.227-9.314 15.053.672 21.176-21.617 1.697.664 6.492 2.464 6.492 2.464s-2.366 10.4-7.469 16.682c3.604 0 10.064 3.316 13.119 3.322 9.037-.01 11.999-8.223 12.933-12.571h6.945c-.55 3.695-2.03 8.113-4.159 10.985-3.477 4.691-7.781 6.554-7.781 6.554s5.591 3.618 11.14 3.618c5.223 0 11.787-3.897 11.787-3.897l2.882 6.279c-3.003 1.386-8.273 4.579-15.914 4.579-11.432 0-23.961-12.648-38.259-12.648-6.807 0-12.551 1.953-12.551 13.101 0 30.751 22.689 42.469 58.923 42.482 9.933-13.848 15.79-30.816 15.79-49.131v-90.113h-168.503v90.113zm0-94.491h168.503v-49.629h-168.503zm138.405 159.087c-22.058-.124-37.146-17.197-44.659-31.043 1.405 26.159 17.229 40.555 22.945 44.33 7.923-3.323 15.233-7.826 21.714-13.288zm-63.647-31.043c-7.514 13.846-22.602 30.919-44.66 31.043 6.481 5.462 13.792 9.965 21.714 13.288 5.716-3.777 21.54-18.172 22.946-44.331zm-79.129-182.051h177.244v148.497c0 48.949-39.755 88.772-88.622 88.772-48.866 0-88.622-39.822-88.622-88.772zm33.784 116.466c17.943 0 23.478-7.932 36.45-7.932 3.958 0 7.581 1.443 10.653 3.958.545-.796 2.695-3.874 4.874-6.083-3.661-4.706-6.736-9.318-6.736-16.862 0-8.644 4.091-13.426 6.258-15.764l-3.709-5.883s-4.748 4.377-7.491 11.644c-3.32-4.864-9.152-6.844-10.635-6.844v6.95c3.366 0 8.218 5.141 8.938 12.461.6 6.104 2.798 10.54 2.798 10.54s-2.711-1.07-5.752-1.07c-6.809 0-13.732 3.02-13.732 3.02-3.702-14.61-9.74-20.363-20.203-22.885v6.943c5.974 1.733 10.376 5.748 13.601 18.209 0 0-6.546 2.675-12.704 2.675-4.333 0-8.252-.926-11.572-5.479l-6.445 2.521s3.034 9.882 15.405 9.882zm29.571-19.653.35.168.079-.38c.577-2.752.212-5.656-1.028-8.175-1.241-2.52-3.316-4.579-5.845-5.797l-.349-.168-.081.379c-.578 2.754-.212 5.658 1.028 8.177 1.24 2.522 3.317 4.581 5.846 5.797zm-33.034 2.795c1.888 2.079 4.453 3.482 7.219 3.95l.382.065-.029-.387c-.205-2.805-1.358-5.493-3.246-7.572-1.889-2.078-4.453-3.481-7.22-3.951l-.382-.064.028.387c.206 2.806 1.359 5.495 3.247 7.573zm37.868 14.175-.341-.182-.095.375-.089.424c-.564 2.603-.299 5.352.778 7.788.893 2.023 2.316 3.782 4.09 5.083.48.352.985.669 1.513.951l.342.182.096-.375.067-.324c.592-2.632.334-5.42-.757-7.888-1.137-2.57-3.129-4.714-5.602-6.035zm-22.114 11.054c-.713-.886-1.547-1.662-2.464-2.322-.58-.418-1.194-.783-1.834-1.098-.85-.416-1.743-.746-2.67-.961l-.377-.087.005.387c.035 2.813 1.024 5.568 2.783 7.756 1.759 2.189 4.235 3.745 6.968 4.38l.377.087-.004-.387c-.035-2.812-1.024-5.565-2.783-7.755zm-28.731 12.638c1.966 2.006 4.581 3.309 7.363 3.672l.384.05-.043-.385c-.312-2.795-1.565-5.437-3.53-7.442-1.966-2.005-4.581-3.31-7.364-3.674l-.384-.05.044.385c.311 2.796 1.565 5.44 3.53 7.444zm71.257-40.075.015-.019.015.019.239-.305c1.732-2.212 2.684-4.978 2.683-7.789-.001-2.81-.958-5.575-2.691-7.788l-.239-.305-.007.009-.007-.009-.239.305c-1.733 2.214-2.69 4.978-2.691 7.788-.001 2.811.951 5.577 2.683 7.789zm24.848-.798.079.38.35-.168c2.53-1.216 4.606-3.275 5.846-5.797 1.24-2.518 1.606-5.423 1.028-8.177l-.081-.379-.349.168c-2.529 1.218-4.605 3.277-5.846 5.797-1.239 2.519-1.604 5.423-1.027 8.175zm25.862 7.022.383-.065c2.766-.468 5.331-1.871 7.219-3.95 1.888-2.077 3.041-4.767 3.247-7.573l.028-.387-.382.064c-2.767.47-5.331 1.873-7.22 3.951-1.888 2.079-3.041 4.767-3.247 7.572l-.028.387zm-29.83 10.353-.096-.375-.34.182c-2.473 1.321-4.465 3.465-5.602 6.035-1.091 2.468-1.35 5.256-.757 7.888l.067.324.096.375.342-.182c.527-.282 1.032-.599 1.513-.951 1.774-1.301 3.197-3.06 4.09-5.083 1.077-2.437 1.342-5.185.778-7.788l-.089-.424zm25.975 7.441c-.64.314-1.254.68-1.834 1.098-.916.66-1.751 1.435-2.463 2.322-1.759 2.189-2.747 4.943-2.783 7.755l-.005.387.377-.087c2.733-.635 5.208-2.191 6.968-4.38 1.759-2.188 2.747-4.943 2.783-7.756l.005-.387-.377.087c-.928.216-1.821.545-2.671.961zm16.73 19.395-.043.385.384-.05c2.782-.363 5.397-1.666 7.363-3.672 1.965-2.004 3.219-4.648 3.53-7.444l.044-.385-.384.05c-2.783.364-5.397 1.669-7.364 3.674-1.965 2.004-3.218 4.647-3.53 7.442zm-35.769 21.37v12.93c0 2.173 1.766 3.943 3.938 3.943h11.201v-4.404h-10.032c-.224 0-.395-.156-.395-.364v-11.282c0-.207.17-.363.395-.363h10.032v-4.404h-11.201c-2.171 0-3.938 1.77-3.938 3.944zm-65.977 16.873h-4.712v-16.873c0-2.174 1.765-3.944 3.937-3.944h11.201v4.404h-10.032c-.225 0-.394.156-.394.363v5.066h10.425v4.72l-10.425-.001v6.264z" fill="#00b140"/></svg>