<svg clip-rule="evenodd" fill-rule="evenodd" stroke-linejoin="round" stroke-miterlimit="2" viewBox="0 0 560 400" xmlns="http://www.w3.org/2000/svg"><path d="m211.09 37.421c-264.82 110.434-342.229 361.079-307.81 532.768 201.564 140.816 414.124 144.368 615.024 2.212 47.765-277.449-144.666-472.114-307.214-534.98zm.523 28.748c0 .003.013.007.018.01l-93.242 160.513 183.028 325.36 189.31.506-279.072-486.37c147.938 57.237 321.982 234.977 279.096 486.402-182.794 129.344-376.926 126.514-560.331-1.531l305.622.818-150.301-268.988-155.551 267.77c-31.188-156.259 40.532-384.034 281.423-484.49z" transform="matrix(.421875 0 0 .421875 191.13 49.2132)"/></svg>