<svg clip-rule="evenodd" fill-rule="evenodd" stroke-linejoin="round" stroke-miterlimit="1.41421" viewBox="0 0 560 400" xmlns="http://www.w3.org/2000/svg"><g fill-rule="nonzero" transform="matrix(2.03044 0 0 2.03044 140.138 64.6943)"><path d="m82.43 3.23-.004.002c-4.324-.056-8.656 1.995-9.563 5.522-1.563-1.34-6.644-3.293-11.892-1.842.336.111.837.565 1.006.733-4.298.382-6.548-1.131-10.213-2.575-3.684-1.45-7.929-.941-10.158.334-2.184 1.25-5.492 4.204-4.047 9.336.28-.67.596-1.198.867-1.602-.225 1.395-.017 3.586.787 4.155.048-1.009.401-1.597.83-2.067-.131 1.452.442 3.263 2.01 4.299-1.116.948-2.56 1.084-3.678.693.45.934.968 1.587 1.834 1.938-1.208.519-3.625.493-4.631-.232-.006 1.096.568 2.31 1.518 2.757-1.675 0-3.694 2.098-4.027 3.606.791-.398 2.886-.388 3.57.055-.839 1.603-3.011 1.71-5.023 1.396.185 1.309 1.172 2.288 2.959 3.125-1.397.614-3.403 2.793-3.516 5.807.949-.614 1.393-.616 1.897-.616-.289 2.302-1.293 4.724-5.303 5.805.056 1.118 1.454 2.239 2.4 2.629-1.394.28-3.458 2.003-3.291 4.57.508-.565.947-.781 1.506-.724-.95 1.226-1.115 2.798-.949 4.193.471-.642.884-1.196 1.519-1.42 0 3.406-1.601 6.037-3.75 7.279 1.059.279 1.729.049 2.399-.007-.67 1.06-1.564 2.344-2.514 2.679 1.188.169 1.918.232 2.643.065-.243 3.147-2.479 4.574-4.545 5.355.391.422 1.685.925 1.969.95-1.68.822-2.855 2.759-2.889 4.109 1.072-.589 1.73-.691 2.211-.488-1.489 1.067-2.3 2.273-2.522 3.486h-17.43v2.369h-2.013v9.637h1.822v19.383l-1.824.211.002 9.869s27.118-3.591 58.271-3.78l.726 3.165h6.047s.221-1.331.395-2.37h1.619s.057-.339.134-.804c34.161.499 59.869 3.691 59.869 3.691v-2.621l2.014.25v-9.853l-2.08-.235v-9.383h3.965v-2.378h2.015v-17.15h-20.66c.007-1.224-.53-2.139-1.029-2.774.573.156.886.209 1.252.416.103-2.867-1.773-4.587-3.34-5.424h1.877c-.835-.207-1.719-.834-2.449-1.668l1.615-.314c-2.033-.835-2.555-3.65-2.244-5.268.366.157.732.208 1.307.729.991-2.139-.262-3.965-1.043-4.955.416.104 1.668.052 1.98.052-.73-.626-1.616-2.556-1.513-4.017.68.209 1.41.261 1.879.156-1.357-.99-2.035-3.65-1.252-5.527.416.47.73 1.095 1.148 1.93.782-1.2.729-4.173.262-5.948.782-.051.988-.157 2.295.469-.053-1.409-.73-3.233-1.67-4.225 1.617.104 3.182-1.095 4.015-1.72-2.086-.262-3.181-1.357-3.494-2.819.888-.52 1.616-1.512 1.877-2.711.156.469.364.73.469 1.409.991-1.044 1.514-2.714 1.67-3.809.21.26.522.469.763 1.154 1.754-5.261-.852-8.644-2.947-10.043-1.675-1.115-4.862-1.514-8.767-1.035-.958-.876-3.827-2.232-3.827-2.232s1.117 0 1.594.08c-2.709-2.393-6.934-3.346-9.404-3.188 0 0-1.036-.718-1.674-1.037 1.834-4.221-2.788-9.084-8.685-10.598-.955-.245-1.953-.369-2.951-.382zm20.532 117.91c-2.278 0-3.67 1.205-3.67 2.83 0 1.404.936 2.094 2.867 2.586 1.134.297 1.736.271 1.736.899 0 .331-.357.59-.961.59-.922 0-1.451-.357-1.636-1.071l-2.399.455c.406 1.65 1.822 2.61 3.987 2.61 1.168 0 2.154-.357 2.857-1.01.542-.504.836-1.181.836-1.894 0-.764-.283-1.393-.824-1.823-.665-.529-1.441-.666-2.278-.875-1.01-.246-1.562-.268-1.562-.773 0-.334.357-.617.873-.617.701 0 1.118.248 1.377.863l2.18-.629c-.542-1.39-1.71-2.141-3.383-2.141zm-76.98.196v8.541h4.16c1.97 0 2.992-.824 2.992-2.375 0-1.108-.566-1.808-1.662-2.041.948-.248 1.453-.925 1.453-1.91 0-.689-.269-1.293-.738-1.674-.591-.493-1.232-.541-2.057-.541zm15.275 0v8.543h2.597v-3.239h.901l1.265 3.239h2.807l-1.539-3.729c.961-.346 1.49-1.159 1.49-2.316 0-1.675-1.12-2.498-3.348-2.498zm15.57 0v5.687c0 2.056 1.157 3.028 3.607 3.028 2.203 0 3.385-1.046 3.385-2.967v-5.748h-2.055v5.502c0 .787-.408 1.195-1.181 1.195-.777 0-1.135-.368-1.135-1.121v-5.576zm15.521 0v8.543h2.672v-8.543zm11.238 0v8.541h2.142l-.099-5.143 3.113 5.143h2.119v-8.541h-2.168l.111 4.506-2.744-4.506zm-39.732 1.822h1.207c.713 0 1.07.27 1.07.836 0 .467-.393.838-1.033.838h-1.244zm-15.445.025h1.24c.517 0 .826.256.826.713 0 .455-.309.713-.826.713h-1.24zm0 3.25h1.277c.579 0 .924.295.924.788 0 .491-.345.775-.924.775h-1.277z" fill="#00205b" transform="matrix(.99999 0 0 .99999 0 -.00116)"/><path d="m82.481 4.121c-.307-.004-.612.006-.912.027 2.36 1.182 2.663 3.498 1.746 5.29-.807 1.575-2.599 2.24-4.612 2.13-1.661-.088-2.688-1.256-2.513-2.293.315.35 1.554.691 2.273.557.7-.132 1.614-.83 1.484-1.66-.142-.901-1.268-1.471-2.929-1.268-1.531.187-3.178 1.643-2.862 4.067-1.252.161-10.278 4.584-8.24 13.941-.261-.044-.984-.526-1.267-.7-.219.962.218 3.411.873 4.393-.349.066-.633.044-1.049.022-.065.875-.175 2.296 0 3.847-2.229-4.809-2.207-12.001.394-15.301-1.136.284-2.274.307-3.584-.131.262-.087.785-.348.961-.435-.502-.679-.72-1.99-.48-2.797-.611-.131-1.661.129-1.879.48.13-.612.472-1.297.654-1.443-.585-.109-1.762.029-2.25.328 2.34-2.145 7.212-3.181 10.293-.939.962-.657 1.705-1.05 2.536-1.444-1.224-1.66-4.234-3.047-6.864-3.103.437.614.788 1.137.92 1.531-1.924-.83-4.413-.482-5.683.131.7.481 1.091 1.005 1.31 1.398-4.72-.961-10.011 1.224-11.846 6.776.613-.218 1.225-.524 1.572-.657.045 2.318-3.408 5.989-4.894 6.688.175.087 1.399.307 1.705.394-1.663.83-4.372 3.278-4.328 6.119 1.311-.436 1.837-.655 3.105-.787-1.617 1.444-3.499 4.503-2.713 7.782.875-.83 1.137-1.136 1.575-1.225-.699 1.444-1.224 3.934-.961 5.465.437-.613.744-.964 1.049-1.27-.394 1.486.086 2.931.48 3.936.48-1.049 1.049-1.705 1.619-2.143.699.613 1.31 2.362.961 4.022.743-.13 1.268-.305 2.098-1.049.175 1.18-.132 3.63-1.092 4.197 1.136-.087 3.714-1.05 4.414-2.668-.045.744-.307 2.319-.613 2.93.569-.35 1.093-.569 1.398-.742-.96 1.528-1.573 4.456-.785 6.556.216-1.006.832-1.748 1.4-2.404.263 1.006.961 1.704 1.485 2.141.349-1.529 1.4-2.84 2.449-3.627-.831 1.661-1.313 3.759-.875 6.818.48-.963.83-1.004 1.662-1.529-.614 1.88-.263 3.541.436 4.591.348-1.093.7-1.662 1.357-2.142 0 1.397.216 4.237 2.315 5.943-.044-.7.22-1.312.306-1.529 1.136 1.704 2.404 3.452 6.031 3.934-.961-1.093-3.932-4.81-3.539-7.213-.48.392-.702 1.007-.832 1.617-1.224-1.441-2.753-5.026-1.617-8.61-.567.305-.96.656-1.178 1.397-.482-1.704-.395-4.415.828-5.77-.35 0-1.134.043-1.353.088.437-.612.697-1.049.916-1.748-.786.263-1.398.219-2.141.131 1.793-1.312 3.41-2.712 2.666-7.301 1.398 1.275 1.866 3.97 1.53 5.596.393-.394.873-.874 1.093-1.355.568 2.447-.392 6.338-1.443 7.912.439-.132.874-.218 1.223-.481-.874 1.749-.696 4.546 1.271 6.426.305-.306.653-1.094.741-1.531.22 1.836 1.442 4.853 3.322 6.078.35-.701.655-1.312 1.008-1.662.435 2.01 1.178 3.017 2.488 3.935 1.181-.567 2.406-1.662 3.148-3.017.219.786.218 1.224.088 2.011.96-.307 2.23-1.355 2.754-2.492.089.612.219.569.219 1.356 1.4-.744 2.579-2.1 3.191-3.672.262.217.437.481.614.83.785-.569 1.878-2.972 1.878-5.158.305.307.613.394.875.918 1.005-3.717-1.224-9.177-1.224-10.971 0-1.574.797-3.01 1.66-3.979 1.444-1.616 1.881-3.806 1.881-5.201.262.349.7.961.787 1.268.961-1.18 1.356-2.974 1.225-5.028.306.175.656.743.83 1.049.831-.831 1.749-3.016 1.441-6.295l.611.131c.658-1.661 1.705-8.262-2.709-11.715 1.138-1.792.917-4.477-.656-5.508-1.397-.917-2.666-.481-2.927.393-.264.875.043 1.618.656 1.881.672.289 1.747.349 2.185.174-.264.786-2.054 1.443-3.586.787-1.848-.791-2.464-1.999-2.27-3.757.131-1.18 1.356-2.711 2.494-2.799-1.374-1.184-3.624-1.836-5.774-1.863h-.002zm-35.956 1.838c-.259.016-.51.051-.75.107-1.886.44-3.933 2.312-3.656 5.321.462-.694 1.019-1.063 1.435-1.201-.277.971-.091 2.083.094 2.636.739-1.387 1.942-2.452 3.006-2.777-.74 1.251-1.155 3.934-.184 4.953.231-1.25.971-1.85 1.295-2.035-.184.601-.046.785.094 1.203 1.482-1.898 4.998-4.731 8.562-4.453-.185-.185-.926-.544-1.436-.684.252-.2.634-.446 1.055-.545-1.814-.575-3.16-1.158-4.156-1.769-.14.325-.462 1.342-.555 1.666-.843-1.67-2.994-2.531-4.805-2.42v-.002zm16.855 6.301c-.474.426-.772 1.043-.772 1.73 0 1.283 1.04 2.324 2.323 2.324s2.324-1.041 2.324-2.324c0-.25-.039-.488-.114-.715-.461.205-.987.49-1.291.622-.503-.634-1.858-1.462-2.47-1.637zm-21.521 2.201c-.067.675-.359 2.895 1.549 4.4.785-.023 1.975-.359 2.986-.74-1.258-.381-2.873-1.774-2.873-2.672-.159.562-.292.83-.338 1.1-.606-.494-1.168-1.323-1.324-2.088zm55.68 2.23c-.714.019-1.366.12-1.912.295.173.99 1.223 2.39 1.398 2.856 1.747-.233 5.069 0 6.06 1.4l-.99.465.699.817-.992-.176c-.232.99-.58 2.447-2.213 2.447l.233.699c-1.109-.057-1.749.293-2.506-.406-.35 1.923-1.444 4.436-2.623 6.061 1.806-.292 3.961-1.339 4.254-2.331l.176 1.573c1.048-.699 2.622-3.089 2.679-3.906.059 2.273-.232 4.548-1.281 6.412-.466-.174-.699-.641-.99-.991-.234.583-.759 2.448-1.225 3.088-.407-.757-.64-1.166-.99-1.572-.408.99-1.225 2.623-2.041 3.789-.175-.7-.348-1.108-.467-1.633-.989 4.023-3.438 7.343-5.711 8.625 2.739-.232 7.054-2.097 8.045-6.06.233.641.348 1.107.289 1.631 1.399-1.049 2.625-2.855 3.442-4.78.406.41.58.701.814 1.225 1.108-1.165 2.854-4.139 3.029-5.654 1.109 1.749 1.401 5.012.993 6.586-.292-.29-.759-.641-.993-.873-.175 1.398-.407 4.08-1.339 5.304-.233-.291-.639-.759-.991-1.168-.291 1.458-1.457 3.323-2.33 4.373-.175-.584-.35-.759-.877-1.459-.232 1.109-1.049 3.033-1.631 3.791-.175-.816-.173-.583-.755-1.457-.35 3.031-3.092 6.996-5.598 7.637 3.612.116 7.693-1.635 9.558-5.889v1.283c1.224-.582 3.208-2.857 3.323-3.441-.115.584.233 1.4.117 1.691 1.749-1.807 2.797-4.487 2.912-6.294.293.292.702.524.877.933.874-2.449 1.049-6.645-.467-8.16.409-.059 1.049 0 1.457.174-.059-.349-.523-1.048-.814-1.281l1.105-.409c-2.972-1.048-3.73-3.788-2.972-6.412l1.867.934c-1.4-4.196-5.363-7.927-8.102-8.336.406-.349.64-.522 1.34-.756-1.312-.473-2.669-.675-3.857-.644zm-.537 4.326c-.184.335-.289.724-.289 1.139 0 1.245.94 2.252 2.099 2.252 1.16 0 1.928-1.007 1.928-2.252 0-.241-.037-.472-.104-.691-.752-.14-1.947.099-2.554.406-.037-.052-.605-.651-1.08-.854zm10.889.526c.47.47 2.763 3.809 3.232 5.06.888.365 2.662.052 3.496-1.045.209.783-.209 2.663-.834 2.975l.834-.053c-.521.835-1.095 1.46-2.398 1.618.104.365.155.885.209 1.304.939-.261 3.074-1.043 3.074-2.922.314.365.576.888.576 1.305.626-.835 1.461-2.348.627-3.756l.938.729c.573-1.095-.524-3.337-2.61-4.119-2.091-.785-4.052-.625-5.265-.625-.783 0-1.618-.315-1.879-.471zm7.564 10.33c-.73.626-2.14 1.721-3.236 1.67 0 .781.471 2.136.992 2.605-.051-.572-.031-1.134.053-1.302.157-.313 1.93-.783 2.191-2.973zm-75.441 5.896c-1.279 1.118-2.914 4.887-2.765 7.069.546-1.438 1.878-3.132 2.502-3.426-.219-1.138.041-2.471.263-3.643zm-.119 5.282c-.714.696-2 3.423-1.555 6.002.248-1.638 1.203-3.14 2.016-3.727-.206-.764-.36-1.523-.461-2.275zm67.115 2.681c-.299.505-.649 1.046-1.043 1.604.326.98.465 1.823.383 2.988.7-1.806.824-2.794.66-4.592zm-66.111 1.293c-.973 1.385-2.013 4.657-1.617 7.088.249-1.041.744-1.885 1.488-2.629-.347 1.29-.249 3.323 0 4.563.346-1.587.992-1.935 1.291-2.381-.05 1.934.197 3.174.842 4.117 0-2.033.854-4.035 1.469-4.695-1.568-1.975-2.712-4.022-3.473-6.063zm64.242 1.424c-.42.52-.863 1.033-1.379 1.553.046 1.681-.036 2.869-.5 4.576 1.49-2.174 2.17-4.498 1.879-6.129zm-2.189 2.32c-1.313 1.194-2.918 2.304-4.875 3.254.698 0 2.152-.027 2.617-.144-.117 1.225-.115 2.563-.815 3.845 1.394-1.142 2.899-5.031 3.073-6.955zm-70.518.365c.645 7.541 4.017 13.69 11.855 18.898-1.239-1.935-2.331-6.992-2.034-8.777-.695.296-1.093 1.041-1.291 1.735-.843-1.29-.989-2.53-.89-3.918-.545.595-.895 1.24-1.192 1.736-.643-1.041-.842-3.224-.642-4.018-.496.597-.846 1.141-1.043 1.885-.695-1.537-.846-3.771-.596-6.549-.844.845-1.736 1.936-2.084 2.432-.941-1.041-1.487-1.885-2.082-3.424h-.002zm12.4 2.522c-.547 1.497-1.042 3.63-.397 6.01.246-1.04.592-1.388.84-1.635.149 2.479 1.341 4.562 3.176 5.703-.199-1.191-.149-2.233.049-3.025.347.793.844.942 1.193 1.24-.288-1.29-.276-2.956-.035-3.76-1.893-1.435-3.492-2.958-4.816-4.533zm46.477 1.273c-.059 1.514-.583 5.709-2.448 7.809.058-.816-.175-1.749-.293-2.215-.116.815-1.805 3.438-2.621 4.195.175-1.223-.001-1.748-.117-2.447-1.108 1.749-3.088 3.555-5.361 4.371v-1.34c-2.04 2.04-5.596 3.205-8.043 3.264 3.38 1.225 7.808 1.166 11.188-.816-.175.584-.292 1.457-.641 2.041 2.739-.758 5.598-2.798 6.879-4.78.175.468.524.989.582 1.631.932-.991 1.574-3.089 1.633-4.662.232.35.699 1.051.816 1.457.465-2.215-.175-6.469-1.574-8.508zm-40.736 3.934c-.038 1.596.708 4.127 1.203 4.971.148-.398.595-1.192.595-1.192.693 1.24 3.175 3.174 5.01 3.619-1.042-1.636-1.914-3.944-2.162-4.589-.219.423-.565 1.318-.615 1.666-.645-1.142-.901-1.87-1.045-2.573-1.063-.611-2.058-1.246-2.986-1.902zm54.287 2.775c-.458.673-.932 1.32-1.456 1.948 0 .426.017 1.659-.054 2.084.992-.992 1.652-2.557 1.51-4.032zm-2.764 3.383c-.493.506-1.016.835-1.551 1.303.071 1.064-.039 2.942-.139 3.785 1.207-1.205 1.619-3.812 1.69-5.088zm-53.893 2.582c-.596 1.636-.744 4.364.795 6.992.644-.942.791-1.19 1.039-1.437.034 1.15.443 2.339 1.07 3.375h1.301c.135-.628.318-1.198.457-1.393.168.544.347.998.539 1.393h4.984c-.621-.9-1.079-1.853-1.306-2.881-.448.496-.695 1.439-.695 2.084-1.49-1.141-2.232-3.719-2.082-4.811-.497.545-1.043 1.487-1.143 2.282-.941-.845-1.339-2.331-1.24-3.619-.445.495-.89 1.288-1.139 2.279-1.19-.644-2.085-2.329-2.58-4.264zm50.555.301c-1.873 1.366-3.927 2.512-6.123 3.318-.418 1.443-1.269 4.441-2.018 5.565.041.016.079.033.119.051 1.669-1.02 2.592-2.731 3.534-4.145 0 .566.212 1.347.142 1.772 1.205-.639 2.197-2.128 2.551-3.192.286.355.64.993.568 1.205.637-1.416 1.155-3.44 1.227-4.574zm-8.125 3.926c-2.043.547-4.075.814-6.252.773.992.355 2.658 1.01 3.365 1.223-.337.772-.617 1.601-.98 2.281.112-.004.22-.029.334-.029.14 0 .27.027.408.033 1.439-1.153 2.575-2.908 3.125-4.281zm-3.533 5.326c-2.803 0-5.173 1.281-6.953 3.59v-3.137h-74.67v7.484h1.822v21.416c-.041.008-1.824.211-1.824.211l.002 7.688c25.881-3.39 57.586-3.64 58.054-3.64l.73 3.176h4.277l.532-3.192c21.995.021 50.562 2.219 61.322 3.563v-7.67s-1.92-.219-2.079-.236v-15.689c1.232.461 2.162 1.173 2.456 1.902h3.523v-15.012h-40.471v2.848c-1.758-2.117-4.041-3.293-6.722-3.293z" fill="#fff" transform="matrix(.99999 0 0 .99999 0 -.00116)"/><path d="m75.619 13.02c-3.409.176-6.907 3.673-7.344 8.307.394-.612 1.18-1.443 1.355-1.575-.306.613-.654 2.013-.566 2.973.48-.567.829-.875 1.353-1.182.524 8.132-4.154 13.07-4.896 13.639-.044.175.045.304.174.438 1.4 1.442 2.752 3.759 3.017 6.164.325 2.986-.392 9.267-.961 11.672 1.399.481 6.165 3.628 7.389 5.158 1.398-.523 6.6-1.267 8.567-1.049 1.705-2.491 3.846-10.666.437-16.83-.107-.192-.085-.661-.012-.941.074-.279.297-.576.536-.85 2.316-2.666 6.382-7.126 6.687-13.859.132.263.699.875.875 1.356.83-1.443 1.095-2.666.787-3.934.349.088.613.176 1.049.569.131-4.633-2.055-6.381-4.065-6.906.612.306 1.004 1.092 1.268 1.923-.612-.568-1.835-.745-2.623-.656.394.436.873 1.18 1.223 2.055-.699-.35-1.266-.395-2.229-.264 1.136.656 1.049 1.838 1.137 2.713-2.23-1.967-9.181-3.454-13.377-2.361 0-.874.526-1.925 1.225-2.405-.787 0-1.574.393-1.924.786.218-1.093 1.226-2.579 1.881-2.885-.962.044-2.231.263-2.666.701.451-.981 1.088-2.03 1.703-2.756z" fill="#00205b"/><g transform="matrix(.99999 0 0 .99999 0 -.00116)"><path d="m74.266 20.805c-3.235 2.621-4.487 7.665-2.483 11.617.582-3.425 2.127-5.658 3.838-7.248.131.961.261 1.573.654 2.228.394-.698 1.05-1.527 1.707-2.271l1.135.961.961-.961.614 1.137.785-.612.613.916 1.004-.611.57 1.137 1.092-.612s-.043 1.748.043 2.491c.482-.262 1.268-.83 1.924-1.485.173 1.616.043 4.456-.83 6.643 2.885-2.448 4.502-7.343 3.89-9.834-1.094-.044-2.011-.132-2.668-.395-.975-.391-1.73-1.653-4.281-2.185-2.1-.436-4.766.787-5.553.656s-2.362-.962-3.015-1.572zm-2.139 24.261c-1.354 1.662-2.608 5.385-2.768 6.543-.14 1.015.204 1.582.654 1.863.45.283 4.592 1.268 6.346 2.768 1.713-.428 4.7-.514 6.221-.344.927.103 1.353-.654 1.605-1.527.123-.42.903-4.458.846-6.233-.421 1.043-1.607 3.523-2.199 4.17-.056-.311-.479-1.295-.479-1.295l-1.576 2.2-.676-.705-.759.73-.649-.93-1.238.705-.678-1.013-1.211.48-.422-.986-1.297.562c-.112-.366-.423-1.888-.367-2.537-.422.339-.76.593-1.209 1.129-.254-.931-.312-4.509-.142-5.58z" fill="#fff"/><path d="m72.57 36.141c-.148-.001-.292.009-.43.031-.312.05-1.414.203-1.852.203.263.177.613.789.569 1.227-.043.437-.874 2.751-.614 3.889.264 1.136 2.63 2.779 3.454 3.933.655.918.562 2.599.92 3.848.348 1.222 1.879 2.143 4.414 2.449 2.358.285 3.894-2.072 4.24-3.41.655-2.538-1.137-6.338-1.311-7.125-.176-.788.198-2.442-.394-2.887-.525-.394-2.185-.566-3.365-.523.131.787.086 3.016-.438 3.847.164-3.005-2.977-5.474-5.193-5.482zm14.537 42.84c-5.324 0-8.75 6.02-8.75 15.338 0 9.32 3.426 15.334 8.75 15.334 5.32 0 8.748-6.014 8.748-15.334 0-9.318-3.428-15.338-8.748-15.338zm-46.861.455v3.83h1.713v22.305c-.572.026-1.144.053-1.711.08v3.955c4.794-.236 9.681-.415 14.648-.531l-.004-12.217c-.336 1.694-2.1 3.115-4.52 3.783l-.035.03v4.578c-.766.025-1.529.05-2.293.076v-22.059h2.809v-3.83zm55.408 0v3.83h1.603v22.437c-.534-.027-1.066-.058-1.603-.084v3.957c2.293.113 4.566.237 6.816.377v-3.963c-.46-.027-.924-.052-1.387-.08v-16.174c2.339 7.169 5.546 15.309 7.606 20.816l3.369.266v-27.553h1.387v-3.828h-6.709v3.828h1.494v11.146c-1.681-5.117-3.087-9.429-5.211-14.977h-7.365zm-88.34.002v3.828h1.822v24.873c-.61.068-1.214.139-1.82.211l-.002 3.998h.002v-.014c4.537-.54 9.221-1.021 14.035-1.441 1.471-.335 2.097-1.062 2.097-2.291v-10.625c0-2.806-1.117-4.008-3.73-4.154 1.004-.664 3.363-2.371 3.363-4.203 0-2.254.016-5.052.016-6.401 0-3.791-2.989-3.781-6.924-3.781zm16.707 0v3.828h2.222v23.258c-.742.056-1.483.115-2.222.174v3.969c5.079-.415 10.298-.76 15.633-1.03v-11.943c-.464 1.583-2.183 2.895-4.494 3.524l-.063.049-.012 4.664c-.921.053-1.836.109-2.752.168v-9.864h3.389v-3.828h-3.389v-9.14h2.764v6.041c.82-1.264 2.482-2.262 4.557-2.721v-7.148h-15.633zm31.381 0v3.828h1.748v21.814c-.583.011-1.167.022-1.748.033v3.951c2.21-.048 4.431-.085 6.67-.109v-3.949c-.45.006-.901.013-1.352.018v-14.158h.109l4.889 21.25h1.273l3.536-21.25h.035v14.117c-.451 0-.897-.006-1.352-.006v3.947c3.064.005 6.103.031 9.114.084v-3.947c-.555-.012-1.117-.015-1.676-.024v-21.771h1.677v-3.828h-9.4l-1.75 11.16h-.074l-1.748-11.16zm59.021 0v12.473c.532-1.317 1.948-2.418 3.828-3.047v-5.598h2.152v24.139c-.691-.067-1.381-.135-2.078-.201v3.975c3.489.327 6.905.691 10.24 1.082v-3.985c-.689-.08-1.382-.158-2.076-.236v-24.773h2.15v5.611l.02.018c1.873.631 3.279 1.73 3.806 3.045v-12.502h-18.043zm-99.201 3.647h1.847c1.197 0 1.252.537 1.252 1.865 0 .761-.019 3.894-.019 4.836l-3.08 3.254v-9.956zm71.887.115c1.64 0 2.078 2.308 2.078 11.119 0 8.814-.438 11.117-2.078 11.117-1.642 0-2.078-2.304-2.078-11.117 0-8.812.436-11.119 2.078-11.119zm-70.501 13.457c1.231.038 1.969.336 1.969 1.763 0 2.052.011 3.947.011 5.438 0 1.969.248 3.069-.845 3.295-.509.104-1.228.201-2.217.308-.1.01-.204.021-.305.03v-10.816c.511-.013.977-.029 1.387-.016z" fill="#c8102e"/><path d="m84.328 9.719c-.407 1.917-2.822 4.034-5.879 2.939.997.573 1.39 1.12 1.81 1.53.705 0 1.722-.113 2.457-.481-.396.859-.97 1.255-1.547 1.465.792.985 1.481 2.372 1.69 3.748 1.984-3.079 6.324-4.814 8.738-4.977-1.166-.245-3.309 0-4.176.131-.418-.105-1.308-.629-1.728-.998-.158.579-.317 1.366-.317 1.838-.525.261-1.259.525-1.679.84.467-1.594.739-3.738.631-6.035zm-20.123 4.359c-.122.13-.198.306-.198.498 0 .4.322.725.723.725.398 0 .723-.325.723-.725 0-.159-.051-.307-.139-.427l-.601.509zm-9.959.703c-.315.01-.65.043-1.004.098l.806.588s-.522-.001-.753.23c.463.407.703.744.81 1.334-.29.117-.653.112-.984.116.522.58.928 1.625.638 2.611-.29.985-2.088 2.669-3.074 4.119-1.579 2.315-2.385 5.255-2.322 7.076.349-.695.812-1.1 1.16-1.39-.347 1.623.138 4.171.834 5.031.29-.639.557-1.087.791-1.377-.376 2.029-.089 4.29 1.043 5.857.143-.501.375-1.125.697-1.564-.058 2.145.562 4.366 1.506 5.683.2-.511.542-1.068.641-1.217.159 1.722 1.565 4.35 3.885 4.989-2.01-1.916-2.243-5.219-1.563-6.903-.581.058-.815.289-.99.348-.205-.822-.316-1.5-.231-2.611-.37.357-.632.592-.943 1.138-.812-1.915-.442-6.189.422-7.808-.696.115-1.07.319-1.682.986.039-1.266.767-3.14 1.508-3.83-.82.014-1.808.613-2.484 1.236 0-1.17.339-2.938.803-3.673-.87.175-1.262.672-1.61.787-.13-2.263 1.102-6.841 6.606-8.948-1.02-1.952-2.305-2.976-4.51-2.906zm6.66 5.506c-1.638.744-3.671 4.066-4.066 6.795.446-.297 1.088-.546 1.486-.596-.744 1.042-.991 2.63-1.041 3.422.595-.347.942-.446 1.191-.545-.396.843-1.14 3.422-.595 5.356.545-1.586 1.188-1.884 1.785-2.43.147 1.539-.397 3.969-1.141 4.713 1.141-.149 1.885-.447 2.133-1.092-.248 1.091-.498 2.777-1.092 3.274 1.091-.199 1.191-.199 1.736-.696-.05 1.092-.247 2.927-.742 3.571 1.19-.693 3.024-2.975 2.778-4.412l1.238.447c-3.969-5.506-5.654-11.607-3.67-17.806zm37.293 2.088c-.122.13-.197.303-.197.494 0 .4.324.725.724.725.399 0 .721-.325.721-.725 0-.16-.049-.307-.137-.426l-.606.51-.506-.578z" fill="#00205b"/></g></g></svg>