<svg clip-rule="evenodd" fill-rule="evenodd" stroke-linejoin="round" stroke-miterlimit="1.41421" viewBox="0 0 560 400" xmlns="http://www.w3.org/2000/svg" xmlns:xlink="http://www.w3.org/1999/xlink"><linearGradient id="a" gradientTransform="matrix(52.252 -52.252 52.252 52.252 19.2803 73.1194)" gradientUnits="userSpaceOnUse" x1="0" x2="1" y1="0" y2="0"><stop offset="0" stop-color="#58bbea"/><stop offset=".19" stop-color="#5db3e4"/><stop offset=".49" stop-color="#699dd4"/><stop offset=".86" stop-color="#7d79ba"/><stop offset="1" stop-color="#8669ae"/></linearGradient><linearGradient id="b" gradientTransform="matrix(50.9818 -50.9818 50.9818 50.9818 -3.9866 49.8491)" gradientUnits="userSpaceOnUse" x1="0" x2="1" y1="0" y2="0"><stop offset="0" stop-color="#abcb37"/><stop offset=".27" stop-color="#a9cb38"/><stop offset=".42" stop-color="#a0c93b"/><stop offset=".55" stop-color="#92c741"/><stop offset=".66" stop-color="#7ec449"/><stop offset=".76" stop-color="#65c054"/><stop offset=".85" stop-color="#45bb61"/><stop offset=".94" stop-color="#20b570"/><stop offset="1" stop-color="#00b07d"/></linearGradient><g fill-rule="nonzero" transform="matrix(1.8 0 0 1.8 100 137.001)"><g><path d="m59.138 11.754c-.282-.303-.563-.607-.858-.902-.294-.295-.598-.576-.901-.859l-.859.859-.901.901-2.854 2.854-.095.095-1.665 1.665-2.885 2.885-1.76 1.76c.312.273.627.541.923.837s.564.612.838.923c2.971 3.39 4.61 7.679 4.61 12.228 0 4.967-1.934 9.637-5.447 13.151-3.513 3.512-8.183 5.447-13.151 5.447-4.549 0-8.838-1.639-12.228-4.61l-.481.481-1.28 1.28c3.863 3.439 8.774 5.339 13.988 5.339 5.633 0 10.928-2.194 14.911-6.177s6.177-9.278 6.177-14.91c0-5.214-1.9-10.126-5.339-13.988l2.885-2.885c4.203 4.631 6.504 10.575 6.504 16.874 0 6.714-2.615 13.026-7.362 17.774-4.748 4.748-11.061 7.363-17.775 7.363-6.298 0-12.242-2.3-16.873-6.504l-1.76 1.76c5.103 4.673 11.671 7.233 18.634 7.233 7.379 0 14.317-2.873 19.535-8.092 5.216-5.219 8.089-12.156 8.089-19.536 0-6.964-2.561-13.531-7.233-18.634l2.853-2.853c11.473 12.403 11.192 31.825-.858 43.875-5.98 5.98-13.931 9.274-22.389 9.274-8.041 0-15.62-2.982-21.487-8.415l-.901.901-.859.859c6.338 5.902 14.541 9.144 23.247 9.144 9.122 0 17.698-3.552 24.149-10.003 13.021-13.02 13.301-34.02.858-47.394z" fill="url(#a)"/><path d="m52.67 14.701.095-.095c-5.103-4.673-11.671-7.233-18.633-7.233-7.379 0-14.317 2.873-19.535 8.092-5.219 5.218-8.093 12.155-8.093 19.534 0 6.963 2.561 13.531 7.233 18.634l-2.853 2.853c-11.473-12.403-11.191-31.824.859-43.875 5.98-5.98 13.931-9.274 22.389-9.274 8.041 0 15.62 2.982 21.487 8.415l-2.854 2.854 2.854-2.854.901-.901.859-.859c-6.338-5.902-14.542-9.144-23.248-9.144-9.122 0-17.698 3.552-24.149 10.003-13.02 13.021-13.301 34.021-.857 47.395.282.303.563.607.858.902.294.294.598.576.901.859l.859-.859.901-.901 2.854-2.854 1.76-1.76 2.885-2.885 1.28-1.28.481-.481c-.312-.273-.627-.541-.923-.837s-.564-.611-.837-.923c-2.971-3.39-4.61-7.679-4.61-12.228 0-4.968 1.934-9.638 5.447-13.152 3.513-3.512 8.184-5.447 13.151-5.447 4.55 0 8.839 1.64 12.228 4.611l1.76-1.76c-3.863-3.439-8.774-5.34-13.989-5.34-5.632 0-10.928 2.194-14.911 6.177s-6.177 9.278-6.177 14.91c0 5.215 1.9 10.126 5.339 13.989l-2.885 2.885c-4.203-4.63-6.503-10.574-6.503-16.872 0-6.715 2.615-13.027 7.363-17.775s11.06-7.363 17.775-7.363c6.298 0 12.242 2.301 16.873 6.504l-2.885 2.885 2.885-2.885z" fill="url(#b)"/></g><g fill="#4e4e50"><path d="m96.317 25.307c3.32 0 5.295 1.314 6.914 3.239.154.183.43.201.609.043l.728-.64c.175-.154.194-.419.047-.6-1.807-2.212-4.506-3.884-8.298-3.884-6.753 0-11.132 5.183-11.132 11.534 0 6.353 4.38 11.534 11.132 11.534 3.793 0 6.491-1.67 8.298-3.881.148-.181.129-.445-.046-.599l-.729-.642c-.18-.158-.456-.141-.61.043-1.618 1.925-3.593 3.241-6.913 3.241-5.783 0-9.126-4.613-9.126-9.696 0-5.079 3.342-9.692 9.126-9.692z"/><path d="m152.297 25.307c3.32 0 5.295 1.314 6.914 3.239.154.183.43.201.609.043l.728-.64c.176-.154.194-.419.047-.6-1.807-2.212-4.506-3.884-8.298-3.884-6.753 0-11.132 5.183-11.132 11.534 0 6.353 4.38 11.534 11.132 11.534 3.793 0 6.491-1.67 8.298-3.881.148-.181.129-.445-.046-.599l-.729-.642c-.18-.158-.456-.141-.61.043-1.618 1.925-3.593 3.241-6.913 3.241-5.783 0-9.126-4.613-9.126-9.696 0-5.079 3.342-9.692 9.126-9.692z"/><path d="m110.586 23.601c-.238 0-.43.193-.43.43v21.94c0 .238.193.43.43.43h1.145c.238 0 .43-.193.43-.43v-.572-.003-20.793-.572c0-.238-.193-.43-.43-.43z"/><path d="m119.586 45.396v.575c0 .238.193.43.43.43h1.145c.238 0 .43-.193.43-.43v-.56c0-.005.001-.009.001-.014v-9.158h8.257l4.714 9.593c.012.021.024.04.036.06l.086.172c.103.207.314.338.545.338h1.273c.247 0 .409-.259.301-.481l-.463-.949c-.001-.003-.003-.006-.004-.009l-.158-.322-.001-.001-4.189-8.568c3.277-.6 5.049-2.976 5.049-6.017 0-3.543-2.441-6.185-6.854-6.185h-10.167c-.238 0-.43.193-.43.43zm2.006-10.964v-8.759h8.993c2.775 0 4.446 1.838 4.446 4.38s-1.671 4.38-4.446 4.38z"/><path d="m179.943 44.327h-11.968v-19.724c0-.005-.001-.009-.001-.013v-.559c0-.238-.193-.43-.43-.43h-1.145c-.238 0-.43.193-.43.43v21.671c0 .238.193.43.43.43h14.016c.238 0 .43-.193.43-.43v-.945c0-.238-.193-.43-.43-.43z"/><path d="m185.19 45.13v.572c0 .238.193.43.43.43h13.949c.238 0 .43-.193.43-.43v-.471-.474c0-.238-.193-.43-.43-.43h-.471-.001-11.901v-8.792h7.359c.238 0 .43-.193.43-.43v-.945c0-.238-.193-.43-.43-.43h-.471-6.887v-8.056h11.868c.012 0 .022-.003.034-.003v.003h.471c.238 0 .43-.193.43-.43v-.945c0-.238-.193-.43-.43-.43h-.471v.003c-.012 0-.022-.003-.034-.003h-13.444c-.238 0-.43.193-.43.43z"/></g></g></svg>