<svg clip-rule="evenodd" fill-rule="evenodd" stroke-linejoin="round" stroke-miterlimit="1.41421" viewBox="0 0 560 400" xmlns="http://www.w3.org/2000/svg"><g fill="#2e63b6" transform="matrix(1.36628 0 0 -1.36628 143.968 324.956)"><path d="m151.483 169.187c.079.638.419.312.418 0 22.157-15.273 48.931-37.357 46.29-84.21-.58-10.309-3.31-17.643-6.255-25.825.44 9.932 3.307 20.373 2.502 32.001-2.372 34.269-23.188 55.227-41.704 68.49.002 3.746.279 7.86-1.251 9.544"/><path d="m98.52 145.047c-3.248 11.534-11.501 16.33-22.103 17.965 4.755 3.254 14.392 3.465 21.685 2.807 12.252-1.106 18.655-13.038 31.279-13.474-13.829-4.776-28.171-6.93-40.453-12.912-12.313-5.999-22.758-14.35-32.528-23.018 0 13.895-13.441 11.624-22.52 10.105 9.122 10.59 29.613 15.894 44.205 8.983-2.86 9.063-15.345 13.025-26.689 10.667 9.59 12.205 36.877 11.112 47.124-1.123"/><path d="m136.053 92.275c4.037-3.04 8.413-5.92 12.511-8.983 4.241-3.169 8.068-7.508 12.511-8.42-7.93 6.728-14.25 15.624-22.103 22.455-.218-2.699-1.798-3.566-2.919-5.052zm-15.43-21.894c-6.32 7.406-6.483 24.494-3.337 34.806-8.825-7.073-6.193-33.149 3.337-34.806zm-42.955-19.649c-1.21-22.747 6.938-42.431 18.767-47.72-16.532 23.115-.537 62.752 12.511 75.789-4.631 10.909-.026 26.247 2.919 33.123-13.061-12.809-32.582-30.85-34.197-61.192zm69.228 84.771c2.69-10.489 10.077 2.918 10.426 7.298-2.792-3.353-5.82-6.388-10.426-7.298zm-13.762 4.491c2.972.258 5.326-.314 7.507-1.122 3.798 4.619 8.316 11.258 7.507 20.21-3.337-8.611-9.267-13.725-15.014-19.088zm46.707-72.982c-1.767 3.421-2.014 8.89-5.838 9.544-.448-7.153 3.376-8.555 4.17-14.035.069-1.589-2.571.466-2.501-1.123 1.756-2.501 3.158-5.478 6.255-6.175 2.757 12.855.118 22.249-4.171 28.069-7.029 9.539-17.283 21.589-22.52 30.317.13 1.323 1.449 1.044 1.251 2.806-7.904-.661-9.839 14.732-17.515 13.474-3.441-.564-5.67-4.852-6.256-10.667 9.282 8.059 10.898-8.76 20.436-7.298-1.921-5.222-8.921-3.202-11.678-.561-.098-4.746 2.068-6.951 5.004-7.299 1.597-.188 3.054 1.416 4.588 1.123 3.244-.618 8.811-8.788 11.677-12.351 4.017-4.989 6.431-10.893 9.591-14.035-.674 3.217-2.984 7.2-3.336 8.983 4.448-5.136 13.509-9.773 10.843-20.772zm-125.11 48.842c.58-2.168-1.904-2.888-2.919-3.93-7.31-7.51-15.098-17.242-19.6-29.193-1.796 7.501-3.22 15.502-10.009 16.281-1.721-8.367-2.569-15.633-2.085-23.579.58-9.534 4.405-17.761 5.421-25.825.743-5.897-.926-11.188 1.668-15.718 1.117 22.219 6.859 38.485 14.179 51.648 14.186 25.507 35.917 46.117 63.389 56.141 7.262 2.649 14.771 3.286 22.103 5.614 10.326 3.277 17.53 11.098 21.686 23.017 5.756-10.881-.84-26.546-5.838-32 2.473.011 3.178 4.001 5.838 5.615 1.574.953 3.687.78 5.421 1.683 2.671 1.391 4.098 4.605 6.674 5.053.768-9.855-4.56-16.299-9.176-20.772 1.344-8.513 12.022-10.491 15.013-4.491.128-6.534-3.093-8.562-6.672-10.105 1.816-1.304 5.695-.569 6.672 1.122.765-3.098-2.29-5.889-4.587-6.737 6.058-12.99 15.645-21.23 23.771-31.438-2.133-8.33.749-21.796-2.919-26.947-6.781 3.246-16.245 15.978-24.188 5.613 10.411 1.626 18.015-3.39 17.099-15.157-3.691-.153-6.346 5.662-10.843 6.175-3.863.441-6.702-2.515-10.844-2.807-2.197 2.731-2.143 5.426-3.754 7.86-9.494 14.361-36.703 2.499-40.868 24.141-5.351-9.293-10.385-22.278-10.009-37.053.561-22.063 9.697-35.028 25.022-37.614-32.434-4.004-73.768-9.794-71.313 43.789 1.251 27.297 14.383 47.405 26.691 61.193 6.925 7.76 14.297 13.33 22.102 18.526 8.149 5.425 16.921 8.852 24.189 15.72-21.629-3.42-38.737-16-54.215-32.562-17.688-18.926-39.403-56.511-24.188-94.876-22.173 15.342-49.354 36.702-46.708 83.648 1.544 27.398 16.364 48.688 32.112 61.754 30.041 24.93 77.088 31.051 114.267 12.351-.313-3.134-1.458-5.148-2.919-6.736-41.27 20.043-92.315 1.733-112.6-34.246-2.79-4.95-4.173-12.056-7.507-16.281-2.06-2.612-6.061-4.326-8.757-6.736-5.146-4.602-9.094-8.981-11.677-17.404-.079-.455-.418-.56-.417-1.123 11.746 16.001 28.082 25.823 51.295 26.386z"/></g></svg>