<svg clip-rule="evenodd" fill-rule="evenodd" stroke-linejoin="round" stroke-miterlimit="2" viewBox="0 0 560 400" xmlns="http://www.w3.org/2000/svg"><g fill="#500838" fill-rule="nonzero" transform="matrix(.31793 0 0 .31793 30.0003 163.995)"><path d="m746.41 16.67c15.28-4.39 30.13-10.11 44.61-16.67-.14 66.95-.48 133.9-.71 200.85-.09 4.06.76 8.63 4.16 11.26 4.67 3.69 11.04 2.77 16.39 4.66 1.73.51 2.1 2.31 1.83 3.89-1.54 2.24-4.61 1.73-6.94 1.88-16.36-.21-32.72-1.15-49.08-.46-7.37-.08-14.84.89-22.12-.54-.18-1.6-1.02-3.95.96-4.79 5.28-2.21 11.67-1.02 16.53-4.49 3.65-2.48 4.74-7.18 4.66-11.35.2-51.7.42-103.4.6-155.1-.07-6.04-.95-12.69-5.32-17.25-2.92-3.22-7.4-3.95-10.98-6.15-2.07-3.46 2.95-4.92 5.41-5.74z"/><path d="m1189.15 11.36c8.69-2.66 17.08-6.18 25.4-9.82.02 35.11-.43 70.23-.26 105.34 13.6-9.28 27.31-19.77 43.95-22.7 11.22-1.84 23.7-1.7 33.6 4.56 8.11 5.11 12.03 14.77 12.62 24.03.47 8.69.04 17.4.11 26.1-.09 21.33-.15 42.66-.26 63.99-.06 4.05.79 8.6 4.21 11.2 4.84 3.9 11.58 2.61 17.03 4.96 2.56 1.68.86 5.61-2.09 5.3-11.26.45-22.52-.51-33.78-.51-12.65-.23-25.31.73-37.95.27-3.03.51-5.1-3.61-2.34-5.35 5.31-2.25 11.74-1.04 16.63-4.5 3.66-2.46 4.77-7.15 4.7-11.31.09-28.68.25-57.36.33-86.04.21-7.09-3.49-14.35-9.99-17.49-6.48-3.52-14.28-2.34-20.89.14-8.64 3.28-16.39 8.51-23.58 14.23-.95.95-2.57 1.75-2.45 3.3-.13 28.62-.25 57.24-.33 85.86-.09 4.12 1.05 8.75 4.66 11.18 4.88 3.43 11.26 2.3 16.56 4.57 2.28 1.29 1.25 5.29-1.46 5.18-7.61.67-15.28-.08-22.91-.13-14.99-.72-29.99.13-44.98.17-2.44-.06-4.97.12-7.24-.88-1.16-1.38-1.2-3.96.67-4.74 5.31-2.13 11.68-.96 16.52-4.46 3.77-2.65 4.68-7.58 4.58-11.9.15-48.02.45-96.03.52-144.05-.14-7.65 1.25-16.09-3.17-22.87-3.55-5.55-10.27-7.35-16.24-8.9-1.98-.63-5.33-1.36-4.73-4.13.63-2.4 3.59-2.94 5.64-3.68 8.96-2.32 18.09-4.06 26.92-6.92z"/><path d="m7.29 21.37c-3.34-.71-2.7-6.27.57-6.52 3.9-.62 7.88-.18 11.81-.17 16.19.56 32.4.67 48.61.67 19.83 48.43 39.81 96.81 59.7 145.23 1.36 3.34 2.65 6.72 4.33 9.92 21.96-51.49 44.04-102.93 65.79-154.51 15.2-.22 30.4 0 45.6-.51 3.74.2 7.84-.72 11.29 1.1 1.24 1.66 1.51 4.98-.9 5.73-6.21 2.05-13.53.73-19.04 4.86-3.62 2.66-4.61 7.42-4.49 11.66-.21 53.36-.36 106.71-.57 160.07-.11 4.46.61 9.41 4.06 12.6 4.41 4.17 10.87 4.73 16.64 4.83 4.98-.07 10.68-.31 14.42-4.07 3.42-3.53 3.52-8.76 3.54-13.37.01-24.68.13-49.36.23-74.04.13-5.55-1.46-11.61-6.07-15.11-4.64-3.84-10.9-4.22-16.16-6.77-1.72-.65-1.8-2.67-2.34-4.15 4.42-1.94 9.29-2.26 13.98-3.16 15-2.68 29.44-7.81 43.4-13.84.16 13.54-.33 27.1.09 40.62 3.81-8.62 7.55-17.45 13.77-24.7 5.81-7.14 13.6-13.11 22.74-15.07 7.81-1.6 16.59-.47 22.97 4.59 6.72 5.23 9.44 14.94 6.58 22.91-3.41 9.09-15.19 13.28-23.82 9.31-5.74-2.7-7.99-9.56-13.69-12.27-4.79-2.21-10.26.01-13.79 3.49-6.47 6.22-9.65 14.99-11.65 23.54-2.01 8.72-2.54 17.7-2.57 26.63-.01 13.66-.14 27.33-.13 40.99-.06 4.03 1.03 8.51 4.5 10.97 4.8 3.49 11.14 2.43 16.42 4.56 1.77.69 1.25 2.82 1.54 4.3-1.58.59-3.18 1.24-4.9 1.23-13.03.16-26.04-.82-39.07-.64-14 .16-28 .69-42 .29-18.66-.62-37.32-.67-55.98-.13-4.11-.06-8.29.44-12.34-.36-3.07-.6-3.4-5.88-.22-6.59 5.9-1.69 12.59-.78 17.96-4.2 3.85-2.37 5.26-7.12 5.2-11.41.18-46.34.37-92.69.52-139.03-.03-6.2.3-12.42-.19-18.61-2 3.39-3.27 7.14-4.79 10.75-22.54 54.49-45.05 108.98-67.61 163.46-1.06 2.01-1.81 4.95-4.43 5.36-1.23-.85-1.94-2.2-2.51-3.53-21.44-53.54-42.97-107.04-64.45-160.56-1.99-4.74-3.6-9.64-5.95-14.22-.43 37.12-.31 74.24-.57 111.37.17 12.58-1.04 25.48 2.56 37.73 2.14 7.5 6.39 14.89 13.4 18.76 4.2 2.46 9.14 2.8 13.69 4.24 2.25.4 2.47 3.23 1.73 4.98-2.08 2.06-5.35 1.32-8 1.51-17.65-.61-35.33-1-52.99-.34-3.87.01-7.83.51-11.65-.36-2.85-.6-2.66-5.49.05-6.15 5.82-1.59 12.09-2.26 17.2-5.74 7.78-4.94 11.68-13.92 13.57-22.61 3.14-14.45 2.97-29.33 3.12-44.03.12-33.02.27-66.04.38-99.06.1-5.9-1.77-12.3-6.77-15.86-6.45-4.87-14.92-4.34-22.32-6.57z"/><path d="m574.44 21.15c-3.04-1.17-1.97-6.55 1.31-6.55 9.29-.67 18.64.34 27.95.31 40.68.49 81.36.15 122.03-.06 5.34 20.72 10.4 41.51 15.84 62.19.33 1.52.5 3.12.17 4.65-.76 1.48-3.19 1.58-4.03.16-2.42-3.77-3.83-8.09-6.02-11.98-7.83-14.65-17.77-29.17-32.81-37.14-19.73-10.6-42.86-10.83-64.7-10.76-.04 29.73-.13 59.47-.35 89.2 13.08.39 27.25-.08 38.44-7.71 8.51-5.65 13.27-15.57 14.33-25.53.59-3.67.08-7.48 1-11.09.66-2.85 5.48-3.04 6.35-.25.54 1.68.46 3.47.52 5.22-.13 28.01-.23 56.03-.33 84.05-.07 2.93.22 5.92-.43 8.81-.73 3.53-6.92 2.69-6.78-.95-.38-7.1-.49-14.38-3.11-21.12-2.78-8.01-8.77-14.81-16.39-18.56-10.23-5.12-22.01-5.76-33.25-5.27.03 27.05-.24 54.11-.23 81.16-.09 4.29 1.68 8.87 5.55 11.07 5.4 3.27 12.03 2.23 17.82 4.22 2.51.73 2.19 4.32.68 5.88-1.92 1.02-4.18.89-6.28.94-11.01-.15-22.02-.66-33.04-.71-13.36-.21-26.71.37-40.07.43-1.91-.13-4.1.1-5.68-1.17-1.46-1.58-1.56-4.85.77-5.69 6.03-2 13.06-.77 18.56-4.49 3.8-2.46 5.11-7.2 5.04-11.49.19-53.69.41-107.37.59-161.06.13-4.26-.8-9.07-4.46-11.73-5.49-4.13-12.8-2.88-18.99-4.98z"/><path d="m965 70.18c7.98-9.98 14.99-20.69 22.84-30.76.41 15.05-.1 30.1.05 45.15 13.91-.05 27.83.07 41.74.13-2.44 5.28-4.96 10.52-7.35 15.83-11.5 0-22.99-.18-34.49-.05-.14 24.79-.11 49.58-.29 74.38.03 9.72-.16 20.34 5.43 28.78 4.58 6.91 13.96 8.52 21.58 6.82 8.16-1.91 14.35-8.33 18.49-15.33.58-1.5 2.2-1.33 3.53-1.55.87 6.48-3.36 12.13-7.27 16.83-8.56 9.77-21.69 14.89-34.56 14.64-10.74.03-22.14-2.48-30.22-9.96-7.05-6.33-10.37-15.89-10.56-25.19-.16-29.91.46-59.83.11-89.73-5.44.09-10.89.21-16.32-.17 9.64-9.42 19.14-19.04 27.29-29.82z"/><path d="m851.58 85.8c18.02-6.38 38.78-5.51 55.84 3.31 11.82 6.09 21.25 16.6 25.98 29.04 3.27 8.42 4.62 17.5 4.52 26.51-33.31-.27-66.62-.28-99.94-.45-.71 16.04 5.11 32.44 16.55 43.82 8.38 8.57 20.11 13.92 32.15 14.04 9.02.09 18.38-.64 26.59-4.69 8.63-4.29 15.4-11.85 19.35-20.58.86-2.12 2.68-4.84 5.27-3.19 1.23 3.09-.09 6.42-.98 9.42-5.26 14.53-16.27 26.84-29.94 34-13.79 7.23-30 8.94-45.27 6.6-15.33-2.35-29.94-9.92-40.13-21.69-13.16-14.91-18.41-35.56-16.93-55.12 2.28-27.07 21.28-51.97 46.94-61.02m2.53 11.47c-10.59 10.2-15.24 25.12-16.18 39.47 22.17.24 44.34.3 66.52.31.08-11.4.03-23.38-5.19-33.81-3.35-6.84-9.84-12.08-17.37-13.47-9.78-2.24-20.57.44-27.78 7.5z"/><path d="m381.31 101.46c8.31-12.65 23.78-18.49 38.42-18.97 17-.5 34.09 3.03 49.72 9.68.05 12.16.05 24.32-.16 36.48.48 2.2-2.01 2.04-3.44 2.5-4.39-8.77-7.05-18.49-13.03-26.42-5.33-7.4-13.49-12.75-22.52-14.27-8.09-1.36-17.2-1.07-24.08 3.92-4.24 2.96-6.74 8.29-5.74 13.45 1.06 7.63 7.55 12.85 13.86 16.4 17.44 9.68 38.21 13.86 52.97 28.01 15.57 14.58 14.62 41.51.39 56.66-9 9.71-22.15 14.42-35.05 15.86-19.96 2.09-40.19-1.77-58.79-9.03.2-15.17-.06-30.36.33-45.53-.21-2 1.93-2.26 3.36-1.68 1.13 1.24 1.41 2.97 1.96 4.5 2.95 10.55 8.28 20.38 15.13 28.91 6.14 7.62 14.7 13.54 24.45 15.27 9.15 1.6 19.52 1.09 27.07-4.91 7.19-5.59 9.27-16.28 5.52-24.43-3.08-6.65-9.4-10.96-15.63-14.36-16.71-8.94-36.29-13.27-50.32-26.68-12.23-11.43-13.94-31.74-4.42-45.36z"/><path d="m1099.01 83.09c16.81-2 34.86 1.46 48.4 12.04 10.51 8.13 17.84 21.18 16.7 34.72-.28 6.14-2.82 12.92-8.74 15.64-7.86 3.43-18.8 1.99-23.58-5.76-4.12-6.26-2.89-14.04-2.56-21.08.21-6.64 1.01-13.82-2.4-19.86-2.91-5.47-9.14-8.17-15.07-8.68-9.83-.91-20.45 1.1-28.1 7.68-7.37 6.27-11.21 15.66-13.06 24.95-3.69 19.16-2.27 40.15 8.09 57.11 6.75 11.37 18.24 20.07 31.41 22.3 11.63 1.87 24.24.69 34.51-5.42 7.51-4.39 12.68-11.68 16.64-19.25 1-1.46 1.98-4.23 4.26-3.37 2.8.48 1.68 4.12 1.44 6.08-3.6 14.97-13.52 28.25-26.57 36.35-12.63 7.89-28.08 10.06-42.69 8.48-13.9-1.31-27.62-6.68-37.88-16.29-12.93-12.05-20.34-29.42-21.52-46.93-.89-19.32 4.71-39.24 17.04-54.33 10.74-13.3 26.68-22.31 43.68-24.38z"/><path d="m1355.24 92.37c16.72-9.36 37.29-11.23 55.56-5.64 12.09 3.69 23.12 11.23 30.29 21.72 7.66 11.07 10.94 24.77 10.63 38.13-33.29-.25-66.58-.28-99.87-.43-.76 16.09 5.14 32.53 16.63 43.91 8.17 8.32 19.5 13.59 31.21 13.92 7.53.12 15.2-.26 22.41-2.63 8.82-2.79 16.29-9.1 21.25-16.83 1.89-2.85 2.96-6.19 5.08-8.89 1-.33 2.04-.56 3.13-.68 1.73 4.86-.71 9.81-2.51 14.27-8.14 17.99-25.13 31.6-44.47 35.59-18.3 3.73-38.28 1.44-54.35-8.45-13.77-8.31-23.93-22.05-28.5-37.41-4.39-14.94-4.97-31.33.11-46.18 5.67-16.95 17.72-31.75 33.4-40.4m20.45 1.49c-6.28 3.04-11.23 8.29-14.85 14.17-5.57 9.26-8.49 19.97-9.02 30.73 22.16.1 44.32.26 66.47.17.05-10.6.09-21.59-4.14-31.52-2.63-6.49-7.74-12.13-14.4-14.55-7.74-2.72-16.63-2.64-24.06 1z"/><path d="m1537.11 86.34c8.82-3.38 19.58-2.98 27.35 2.76 6.91 5 9.87 14.64 7.29 22.72-3.31 10.09-17.09 14.68-25.84 8.81-4.15-2.83-6.33-7.7-10.51-10.47-3.64-2.38-8.53-1.97-12.07.37-5.75 3.7-9.3 9.88-11.77 16.08-4.47 11.49-5.51 23.97-5.55 36.21-.02 14.04-.19 28.08-.12 42.12-.02 4.05 1.5 8.45 5.16 10.6 4.79 3.02 10.82 2.03 15.89 4.2 2.39 1.21 1.53 5.31-1.27 5.22-7.98.67-16.01-.13-24-.17-13.33-.61-26.67.04-39.99.14-4.07.04-8.3.46-12.13-1.21.34-1.53-.18-3.77 1.73-4.4 5.29-2.05 11.62-.94 16.42-4.44 3.49-2.46 4.58-6.97 4.55-11.02.13-25.34.17-50.68.32-76.03.07-5.57-.79-11.78-5.06-15.79-3.67-3.63-9-4.32-13.41-6.61-1.76-.81-2.76-3.05-1.67-4.78 2.78-1.4 5.95-1.68 8.97-2.31 15.2-2.75 29.71-8.26 43.91-14.19.22 13.64-.2 27.28.02 40.92 2.82-5.99 5.01-12.3 8.71-17.85 5.54-8.88 13.14-17.02 23.07-20.88z"/><path d="m500.99 182.18c8.36-1.63 17.44 2.06 22.19 9.15 5.51 7.87 4.97 19.38-1.4 26.62-5.94 7.23-16.68 9.69-25.24 6.04-8.33-3.29-13.97-12.14-13.47-21.08.12-10 8.06-19.12 17.92-20.73z"/></g></svg>