<svg clip-rule="evenodd" fill-rule="evenodd" stroke-linejoin="round" stroke-miterlimit="1.41421" viewBox="0 0 560 400" xmlns="http://www.w3.org/2000/svg"><g fill-rule="nonzero"><path d="m100.00048728 110.85628472h359.99944464v178.29110128h-359.99944464z" fill="#19315a" stroke-width="2.41672"/><path d="m154.6 16.642c-3.725.004-7.45.017-11.175.008-4.287 4.24-8.612 8.431-12.862 12.689-.225.23-.138.577-.163.864.013 2.228-.012 4.458.013 6.687 5.375.005 10.75.018 16.112-.005-.15.234-.337.458-.537.649-1.038.978-2.013 2.017-3.063 2.981-.075 1.366-.012 2.734-.037 4.101.012 10.913-.025 21.828.025 32.743 7.625-.033 15.25.014 22.875-.025 0-20.219-.013-40.438 0-60.654-3.725-.036-7.45-.04-11.188-.038zm-122.234.003c-3.403-.003-6.806 0-10.207.033.009 20.22 0 40.438.002 60.658 6.762.018 13.524.019 20.288-.002-.045-6.866-.011-13.734-.015-20.6-1.083-1.023-2.036-2.168-3.149-3.158.251-.028.503-.045.756-.053 7.373.01 14.745-.007 22.118.007.329-.017.677.043.995-.07.066-4.335-.008-8.67.037-13.006-6.905-.054-13.811-.025-20.716-.016-.077-3.617-.069-7.239-.006-10.855 7.015.015 14.034.053 21.046-.02 2.496-2.62 5.173-5.07 7.666-7.695 1.739-1.743 3.518-3.445 5.23-5.213-11.279-.017-22.556-.001-33.833-.007-3.404.01-6.809.001-10.212-.003zm71.162 0c-5.965-.004-11.932-.001-17.896.033-2.735 2.827-5.591 5.537-8.354 8.337-1.734 1.729-3.528 3.403-5.198 5.188-.074 3.006-.001 6.023-.044 9.036.089 1.027-.088 2.059.01 3.087.103 1.209-.006 2.425.057 3.634 2.431 2.584 5.038 5.009 7.48 7.588 6.741.028 13.485 0 20.227.017.436-.05.646.413.949.641.237.307.711.529.667.973-.003 2.422-.006 4.842 0 7.265-.555.532-1.106 1.065-1.621 1.634-.091.046-.275.133-.366.179-6.343-.022-12.689-.031-19.034.005-3.444 3.551-7.019 6.978-10.517 10.477.01.866.011 1.734-.003 2.602 14.355.015 28.708.004 43.061.003 2.868-2.89 5.789-5.73 8.665-8.614.002-6.927.015-13.857-.002-20.784-1.08-1.281-2.363-2.393-3.53-3.6-1.388-1.305-2.684-2.703-4.075-4.007-6.825.006-13.649.005-20.474.002-.447-.599-1.379-1.006-1.266-1.867.03-2.392-.037-4.783.033-7.173.514-.475.984-.994 1.484-1.482.151-.17.345-.244.579-.219 7.351.001 14.702.004 22.054 0 1.66-1.549 3.312-3.113 4.97-4.664.1-2.756.01-5.527.04-8.291-5.965.013-11.93.004-17.897 0z" fill="#fff" transform="matrix(1.933376 0 0 1.933376 98.3112 109.283)"/></g></svg>