<svg clip-rule="evenodd" fill-rule="evenodd" stroke-linejoin="round" stroke-miterlimit="1.41421" viewBox="0 0 560 400" xmlns="http://www.w3.org/2000/svg"><g fill-rule="nonzero" transform="matrix(1.80889 0 0 -1.80889 99.9192 299.586)"><path d="m175.082 55.689c.881.798 1.673 1.612 2.363 2.434 2.858 1.735 4.731 4.002 5.424 6.57.237.89.338 1.824.298 2.771-.028.673-.228 1.332-.581 1.906-.143.234-.903 1.394-2.569 2.546-2.004 3.431-7.327 10.885-17.753 15.56l2.025 9.429-4.043 1.303c-1.146 3.208-3.3 7.222-7.272 9.763l-.761.487-.884-.191c-4.932-1.061-8.444-2.932-11.755-6.327-1.465 1.111-2.417 1.908-3.364 2.876l-3.833 3.918 1.061-7.486c-7.527 3.996-19.734 8.156-38.431 8.797l-.882.062-10.448-4.987.47-4.822-12.274-.221 7.664-3.297s2.11-.906 5.243-2.237c1.213-8.035 4.149-15.749 8.912-23.428l-.301-.026-.147-.573c-.605.082-1.222.137-1.848.165-1.199.05-2.47.019-3.754-.094l-34.172-2.99-.024-.091c-1.752.261-3.647.306-5.634.132-2.596-.227-5.2-.839-7.741-1.82-.995-.386-1.974-.827-2.919-1.314l-4.082.847c-1.276.264-2.609.415-3.961.449-1.184.029-2.408-.01-3.635-.117-2.671-.234-5.313-.863-7.853-1.87-2.58-1.022-5-2.405-7.19-4.109-2.268-1.762-4.253-3.855-5.901-6.219-1.736-2.492-3.002-5.255-3.765-8.215-.837-3.251-.945-6.255-.322-8.926.657-2.823 2.003-5.186 3.999-7.024 1.824-1.678 4.099-2.855 6.763-3.499 2.286-.554 4.837-.716 7.525-.482 1.653.145 3.359.418 5.072.813.968.224 1.94.479 2.907.76l1.04-.618-2.804-10.903-1.719-1.079-3.728-14.312 77.602 6.789.282.025c1.609-.148 3.341-.144 5.145.015 1.451.126 2.922.323 4.372.585 1.622.294 3.284.727 4.94 1.289l3.089 1.049c.409-.154.83-.292 1.262-.417 2.314-.665 4.922-.88 7.698-.637 1.606.14 3.23.428 4.826.857l20.775 1.817c.216-.042.423-.077.629-.105l6.144-.883.916 1.661 15.838 1.387 2.895 11.439-1.558 1.528 1.732 11.823 1.193.927.952 3.667c2.552.893 4.067 1.622 4.229 1.699l.894.438 15.709-5.877z" fill="#c99b40"/><path d="m176.004 49.623 10.176-3.807-14.057 9.736c1.689 1.315 3.058 2.636 4.138 3.956 1.986 1.156 4.153 2.979 4.871 5.652.184.685.274 1.43.238 2.231-.014.367-.126.73-.318 1.043-.081.133-.767 1.194-2.381 2.221-1.673 2.969-7.056 11.024-18.219 15.646-.592.3-1.201.702-1.316 1.074l1.35.38 1.704 7.939-3.357 1.081c-.98 3.089-2.952 7.201-6.825 9.682l-.14.088-.161-.034c-5.125-1.102-8.494-3.071-11.911-6.981-2.332 1.725-3.602 2.732-4.871 4.029l.812-5.718c-6.311 3.998-18.99 9.666-40.825 10.408l-.441.032-8.882-4.239.159-1.599.226-2.382c.041-.474.086-.986.135-1.522l-5.861-.109s2.532-1.086 6.168-2.631c.821-6.182 2.971-15.177 10.397-26.208l-2.001-.174-.244-.962c-1.033.241-2.123.387-3.247.436-1.124.047-2.309.018-3.523-.089l-32.909-2.879-.128-.499c-2.031.502-4.314.647-6.793.43-2.429-.213-4.868-.787-7.251-1.706-1.133-.439-2.234-.949-3.297-1.528l-4.713.978c-1.171.241-2.397.381-3.644.412-1.124.028-2.279-.01-3.433-.111-2.498-.218-4.971-.808-7.349-1.751-2.421-.96-4.693-2.258-6.751-3.859-2.123-1.65-3.984-3.61-5.53-5.828-1.615-2.318-2.792-4.887-3.5-7.637-.764-2.971-.869-5.688-.314-8.074.575-2.464 1.741-4.521 3.468-6.111 1.597-1.47 3.607-2.506 5.973-3.078 2.104-.509 4.441-.657 6.946-.438 1.577.137 3.2.399 4.823.774 1.508.35 3.035.775 4.541 1.266l1.037.339-.414-1.607 1.258-.748-3.141-12.211c-.058-.228-.115-.454-.17-.68l-1.727-1.082-2.909-11.168 75.073 6.567.022.085c1.665-.199 3.478-.213 5.405-.046 1.4.123 2.816.312 4.209.564 1.537.279 3.112.69 4.683 1.222l2.833.963.327.55c.707-.34 1.462-.624 2.26-.855 2.111-.605 4.484-.8 7.049-.574 1.557.135 3.119.418 4.666.843l19.669 1.72.135.536c.267-.098.54-.185.817-.261l-.049-.195.623.054c.256-.056.515-.102.78-.14l4.918-.706.779 1.413 15.521 1.359 2.332 9.208-1.472 1.442c.029.23.064.469.104.722l1.862 12.719 1.281.992 1.044 4.027c3.122 1.032 4.928 1.916 4.928 1.916-1.508.876-3.625 2.197-5.666 3.492" fill="#16243a"/><path d="m105.651 74.14c-.295.476-.574.954-.851 1.434.281-.478.556-.958.851-1.434" fill="#c99b40"/><path d="m158.909 84.739c-.775-1.323-1.036-3.47 2.069-6.234 0 0 6.185-.228 12.28-4.129 0 0-3.648 6.817-14.349 10.363" fill="#264391"/><path d="m158.472 83.608c-.016-.074-.025-.148-.035-.223 7.772-2.542 9.381-5.239 9.381-5.239-.496-.082-1.321-.29-2.043-.483-.775-.208-1.434-.399-1.434-.399 1.159-.008 2.538-.163 3.752-.34 1.691-.248 3.061-.538 3.061-.538-3.733 4.771-9.743 6.589-12.682 7.222" fill="#fff"/><path d="m90.965 104.344-2.376-1.138c.155-1.202.246-2.75.431-4.614l2.577.046c-.341 2.296-.506 4.236-.632 5.706" fill="#264391"/><path d="m92.651 93.169c-1.06.445-2.097.882-3.094 1.303 1.027-6.152 3.515-14.513 10.601-24.589l3.732.327c-6.519 8.192-9.655 16.365-11.239 22.959" fill="#264391"/><path d="m105.651 74.14c-.295.476-.574.954-.851 1.434-3.02 5.188-5.101 10.378-6.434 15.217-.627.259-1.257.52-1.886.782 1.693-5.169 4.504-11.247 9.171-17.433" fill="#fff"/><path d="m96.405 104.04c10.876.19 23.851-2.676 33.289-5.811-6.681 3.271-17.925 6.907-35.759 7.827 0 0-.109-2.839.723-7.363l2.112.04c-.234 1.88-.356 3.664-.365 5.307" fill="#fff"/><path d="m167.562 70.251s7.9-4.502 4.193-10.228c0 0 7.462 2.063 7.232 7.335 0 0-2.437 4.03-11.425 2.893" fill="#264391"/><path d="m176.158 69.993s-3.553 1.825-8.883.983l-4.232 3.986s9.79 2.554 13.115-4.969" fill="#264391"/><path d="m166.969 75.163s5.458-.322 7.099-3.589l-1.72.292s-.924 2.638-5.379 3.297" fill="#fff"/><path d="m170.629 69.892s3.777.38 7.741-2.711c0 0-.412-2.219-1.719-3.323 0 0 .574 2.146.229 3.145 0 0-1.919 2.134-6.251 2.889" fill="#fff"/><path d="m136.06 87.689c.467-1.144 1.847-2.371 1.847-2.371 1.889 1.103 2.561 3.608 2.783 4.814-.265.018-.532.048-.796.08-1.082-1.662-3.834-2.523-3.834-2.523" fill="#264391"/><path d="m162.553 56.289 14.115-5.466-15.118 9.06-1.119-.296z" fill="#c99b40"/><path d="m149.323 88.514.589-.25s-.161-.409.472-.575c0 0-1.166-.183-1.061.825" fill="#fff"/><path d="m156.457 87.044.306-.08s-.362-.912-1.089-.05c0 0 .582-.267.783.13" fill="#fff"/><path d="m159.004 78.12c-1.845 1.389-2.386 2.907-2.386 2.907l.51.62c-4.607 2.143-9.434.002-9.434.002-1.209 1.323.286 2.894.873 3.425.972-.764 3.726-.926 4.395-.924-.741.654-.666 1.03-3.282 1.57 1.75 1.363 3.513.517 3.513.517-1.132.028-1.598-.46-1.598-.46 1.485-.409 2.625-1.666 2.625-1.666.284.149 1.973.634 1.973.634l-1.55 2.3c-.253.04-.957.332-.957.332-3.756-.535-5.595-.435-6.753 1.628-.327.161-1.512.719-2.132 1.242-.347-.342-.635-.818-.569-1.601.063-.713.546-1.289 1.847-1.601l1.923-.473s-1.42-.489-2.411-1.247c-4.929-3.763 2.371-6.723 2.371-6.723l-1.742-.225c.815-.417 1.733-.756 2.693-1.033 4.269-1.24 8.006-.359 8.006-.359 1.081.55 2.085 1.135 2.085 1.135" fill="#c99b40"/><path d="m146.689 82.578s.383-1.249.855-1.642l2.056.65-1.5-1.409s-2.029.527-1.411 2.401" fill="#16243a"/><path d="m155.913 81.062.831.486s-3.284 1.557-6.651.466c0 0 3.415.596 5.951-.492z" fill="#fff"/><path d="m152.244 83.848c-2.014.044-2.925.116-3.867.42 0 0-.596-.566-.51-1.232 1.206.338 1.862.058 1.862.058-.91.074-1.529-.268-1.762-.375.057-.15.111-.217.26-.365 0 0 3.707.909 6.894.373 0 0-.86 1.077-2.877 1.121" fill="#fff"/><path d="m154.608 86.795c.029-.045 1.14-1.896 1.14-1.896l-.688-.279.274.341z" fill="#fff"/><path d="m147.42 86.342c-.505-.213-1.241-.567-1.829-1.017-3.18-2.429-1.268-4.521.488-5.7-3.299 2.918.599 6.152 1.341 6.717" fill="#fff"/><path d="m145.873 88.579c1.697-1.708 4.138-1.647 5.455-1.457-2.229-.121-3.512.309-4.395 1.883-.327.161-1.512.719-2.132 1.242-.347-.342-.635-.818-.569-1.601.063-.712.542-1.284 1.834-1.598-.64.668-.193 1.531-.193 1.531" fill="#fff"/><path d="m152.616 95.072c-1.748.362-3.552.951-5.339 1.781-.323.15-.641.309-.953.47 1.235-.446 2.464-.785 3.668-1.012.918-.145 1.816-.225 2.685-.241.021.528.03 1.066.015 1.615-1.73.362-3.515.945-5.284 1.769-.323.149-.639.309-.955.469 1.237-.448 2.466-.783 3.669-1.01.864-.137 1.707-.216 2.527-.239-.118 1.992-.465 4.07-1.056 6.176-.431-.066-5.972-.982-10.836-6.704 1.208-.871 2.552-1.664 4.012-2.347 1.913-.892 3.851-1.504 5.72-1.858.894-.14 2.19-.228 1.973-.215.064.44.114.89.154 1.346" fill="#264391"/><path d="m153.894 93.702-.006-.006z" fill="#16243a"/><path d="m154.96 92.831c-.09.472-.207.93-.341 1.375-.088.283-.183.561-.285.832-.297-.015-.6-.022-.906-.021.031-.25.053-.502.069-.755.024-.329.033-.659.035-.992.001-.135-.004-.267-.008-.402-.037-1.523-.299-2.96-.737-4.242.813-.087 1.605-.119 2.373-.1.044.478.07.97.07 1.47 0 .984-.094 1.934-.27 2.835" fill="#264391"/><path d="m155.669 92.845c.191-.939.297-1.934.297-2.965 0-.453-.021-.897-.06-1.33 1.127.074 2.184.264 3.145.565l.501 4.481c-1.155-.425-2.468-.679-3.883-.751" fill="#264391"/><path d="m146.526 93.946c-.473.148-.944.311-1.415.489-1.797.688-3.444 1.548-4.896 2.524-.698.468-1.349.965-1.952 1.48 1.698-3.469 5.574-6.807 10.682-8.758 1.154-.442 2.307-.784 3.443-1.039.391 1.279.603 2.707.595 4.211-2.044.034-4.238.389-6.457 1.093" fill="#264391"/><path d="m176.668 50.823-15.118 9.06-1.119-.296.312-.485 15.549-8.136z" fill="#fff"/><path d="m147.386 69.441c.012.025.001.007.014.031l.17.297c.066.101.133.197.201.287.317.406.697.699 1.133.863.122.046.245.079.368.102l-14.142 9.626 7.64.731-26.066 14.844-20.97-.571 23.78-11.324-5.97-.867 24.216-11.971-7.096-1.563 16.338-6.956c-1.56 2.218.018 5.725.384 6.471" fill="#c99b40"/><path d="m147.243 63.312c.003-.072.013-.152.013-.208 0 0-.004.136-.013.221z" fill="#c99b40"/><path d="m147.4 69.472.17.297c.066.101.133.197.201.287.317.406.697.699 1.133.863.122.046.245.079.368.102l-14.142 9.626 7.64.731-26.066 14.844-5.707-.155 24.831-14.14-7.639-.731 18.756-12.79c.178.478.348.845.441 1.035.012.025.001.007.014.031" fill="#fff"/><path d="m148.694 68.874c.045.08.085.155.125.22.24.381.493.555.692.63.178.072.322.058.383.051.602.023 1.174-.188 1.174-.188 3.596-.817 6.481-.591 6.481-.591.788.29 3.529.961 3.529.961 1.347.377 3.301.403 3.301.403 4.039-.284 5.796-4.052 5.796-4.052 2.241-3.693-.905-7.005-3.016-8.229-1.161.724-2.873 1.785-4.97 3.083-.277.172-.559.348-.85.527-2.358-.088-3.765.779-3.765.779 1.805-2.221.612-3.357.612-3.357l1.496-.99.077-.048c-2.113-1.262-4.711.65-4.711.65-.266.763-.419 1.79-.505 2.712-.116 1.204-.12 2.229-.12 2.229-.364-.383-.57-1.028-.683-1.71-.225-1.367-.072-2.902-.072-2.902-1.872.716-2.246 2.822-2.248 4.392 0 1.042.162 1.85.162 1.85-.312-.246-.518-.856-.654-1.533-.238-1.168-.26-2.533-.26-2.533-1.101.714-1.34 2.244-1.321 3.552.027 1.207.274 2.22.274 2.22-.409-.234-.638-1.064-.776-1.898-.128-.817-.166-1.636-.175-1.906-.001-.03 0-.049 0-.049l-.001.002c-.002-.031 0-.05 0-.05-.037.03-.069.071-.1.126-1.899 1.542.125 5.649.125 5.649" fill="#264391"/><path d="m162.013 69.037s-2.261.123-4.174-1.113c0 0 3.185-.943 5.25-4.389 0 0 .193 1.897-2.332 3.673 0 0-1.33.884-.132 1.365 1.2.481.968.347 1.388.464" fill="#16243a"/><path d="m165.138 69.659s5.766-1.727 4.471-6.775c0 0 .412 4.126-6.123 6.527z" fill="#fff"/><path d="m108.384 78.967c1.142-.661 2.991-1.435 3.737-1.533.304.682.513 1.568.413 2.337.253.416.812.158 1.202.311-.961.684-4.174 1.778-4.979 1.275-1.108-.55-.373-2.39-.373-2.39" fill="#264391"/><path d="m108.565 75.167c1.307-.521 1.229-.02 2.513-.55l.58.594c1.08.527 2.038 1.036 2.038 1.036l.131.723c-1.596-1.816-3.681.14-5.35.378-.331-.43-.858-1.508.088-2.181" fill="#264391"/><path d="m108.142 72.266c.825-.537 1.754-.978 2.713-.68.149.927.544 1.059 1.89 1.405l.132.707c-.74-.217-.963-.56-1.831-.564-1.158.117-2.117.496-3.043.981-.211-.313-.497-1.222.139-1.849" fill="#264391"/><path d="m115.934 78.127-.58-.574c.454-1.095-1.136-1.865-.461-2.991.303.198.74.102.931.446.16 1.441.489 2.617.735 4.013l-.608.698c.204-.496.123-1.065-.017-1.592" fill="#264391"/><path d="m107.278 70.225c.873-.527 1.609-.791 2.624-.75.283.654.201.315.283.654-.92.18-1.98.356-2.829.928-.063-.104-.088-.67-.078-.832" fill="#264391"/><path d="m131.387 31.115c-.061-.911-.196-1.782-.404-2.588-.173-.676-.417-1.366-.724-2.05-.221-.494-.544-.951-1.003-1.421-.524-.542-1.091-.975-1.731-1.325-.567-.308-1.115-.482-1.679-.531-.595-.052-.889.102-1.059.227-.351.25-.589.553-.732.922-.187.582-.282 1.316-.286 2.181-.003.912.095 1.762.293 2.53.17.666.436 1.352.789 2.038.325.634.73 1.219 1.203 1.736.452.497.959.906 1.549 1.252.484.285 1.023.45 1.646.504.394.035.917.028 1.189-.2.359-.299.603-.683.75-1.17.183-.617.25-1.326.199-2.105zm-12.074 7.605c-1.111-.846-2.138-1.797-3.066-2.838l.886 4.294 5.145.45c-1.036-.56-2.027-1.194-2.965-1.906zm-7.922 11.197-.012-.011 1.867 7.253 1.166.102.192.747 1.727-5.607-.54-2.1zm.571-21.919c-.399-1.55-.562-3.005-.5-4.347-.95-.473-1.905-.902-2.849-1.278-1.096-.437-2.221-.709-3.341-.806-.918-.081-1.635-.014-2.129.199-.443.19-.757.451-.961.798-.242.407-.37.908-.395 1.532-.029.746.075 1.589.311 2.506.221.86.517 1.707.879 2.516.306.685.678 1.275 1.137 1.803.416.479.9.866 1.48 1.186.543.3 1.23.488 2.037.558.794.069 1.539.023 2.217-.138.665-.159 1.266-.417 1.782-.769l1.328-.902c-.408-.92-.743-1.872-.996-2.858zm-14.873 8.847c-.893-.688-1.744-1.471-2.529-2.326-.766-.833-1.463-1.714-2.074-2.616-.338-.501-.651-1.015-.939-1.539l-.952 7.49 9.377.82c-.998-.524-1.962-1.131-2.883-1.829zm-9.248 16.847c-.047-.719-.164-1.447-.347-2.159-.19-.745-.457-1.497-.788-2.237-.287-.642-.681-1.274-1.17-1.883-.668-.803-1.165-1.156-1.467-1.311-.209-.107-.446-.199-.709-.273l2.593 10.077c.058.006.115.012.174.016.731.065.987-.07 1.047-.111.247-.172.409-.387.51-.674.139-.401.193-.887.157-1.445zm-10.399-20.378c-.351-.587-.632-1.06-.828-1.395l-6.85-11.485-2.3-.201-.011-.012 1.865 7.253 1.168.102 2.242 8.715 4.426.386-.668-2.572 1.021-.68c-.02-.035-.042-.072-.065-.111zm-29.452 16.345c-.06-.911-.196-1.782-.403-2.588-.174-.674-.417-1.364-.723-2.047-.222-.494-.545-.955-1.006-1.424-.523-.541-1.089-.974-1.73-1.323-.565-.309-1.115-.483-1.678-.532-.597-.052-.89.104-1.061.228-.349.249-.589.551-.73.921-.186.582-.284 1.315-.286 2.181-.004.91.095 1.762.291 2.529.172.667.437 1.353.791 2.041.326.633.73 1.217 1.203 1.735.452.496.958.905 1.548 1.251.484.284 1.024.45 1.648.504.392.035.916.027 1.189-.199.356-.298.602-.682.748-1.172.184-.615.252-1.324.199-2.105zm-18.544-.525-8.998-.786-.968-3.786 1.014-.865c-.026-.187-.078-.463-.178-.851l-.751-2.919c-.35.025-.628.098-.808.216-.336.223-.554.508-.685.9-.181.54-.251 1.182-.207 1.909.054.875.195 1.759.418 2.627.202.785.491 1.531.858 2.218.336.629.725 1.16 1.192 1.627.434.432.933.779 1.523 1.061.6.284 1.319.466 2.14.537.284.025.583.021.884-.01.348-.038.684-.098.998-.178.249-.064.478-.151.682-.263.166-.09.3-.186.39-.281l.69-.721 2.079.182c-.096-.203-.185-.409-.273-.617zm130.231-3.879-.486-1.924-3.528-6.353-.774 5.243.673 2.674-13.367-1.168-.859-3.414c-.047.05-.09.104-.14.152-1.142 1.145-2.63 1.964-4.424 2.433-1.689.441-3.627.572-5.759.385-1.4-.123-2.802-.392-4.193-.796l.545 2.131-.823.878c-.112.12-.142.194-.149.214-.036.11-.051.219-.049.333.005.228.034.479.09.748.017.08.038.169.056.255l.169.053c.643.209 1.276.375 1.88.493.624.123 1.272.213 1.928.27l4.886.428c.72.063 1.395.297 2.01.697.301.192.594.44.922.777.163.168.327.343.489.522l8.75 9.494-.744.317-6.933-2.245c-.642-.207-1.275-.373-1.884-.494-.617-.12-1.265-.212-1.927-.269l-4.886-.427c-.101-.01-.199-.03-.298-.045l5.788 7.798-9.089 3.87-29.754-2.602-.818-3.217c-.239.216-.489.426-.758.619-.863.625-1.817 1.075-2.834 1.341-.915.239-1.898.383-2.918.427-.959.041-1.977.016-3.022-.075l-12.462-1.091-1.09-4.23 1.224-.554c-.016-.093-.038-.207-.067-.345-.091-.442-.197-.912-.313-1.409-.119-.504-.24-.998-.365-1.481l-2.384-9.268-1.162-.801c-.68-.469-1.315-.804-1.887-.997-.631-.214-1.341-.356-2.114-.423-.214-.019-.429-.035-.641-.043l2.873 11.169c.124.48.24.956.352 1.438.061.265.147.524.26.774.078.177.18.343.31.506.032.04.131.147.372.299l1.115.699 1.148 4.459-14.753-1.292-.565-2.194-.107-.437c-1.045.861-2.323 1.496-3.815 1.886-1.688.442-3.625.571-5.76.385-2.037-.179-4.083-.659-6.08-1.432-2.018-.779-3.907-1.831-5.617-3.131-1.482-1.125-2.807-2.435-3.955-3.897l1.495 5.81-2.178.452c-.963.2-1.974.314-3.003.34-.982.025-1.991-.008-3.001-.097-2.092-.184-4.159-.673-6.14-1.461-1.999-.791-3.868-1.858-5.557-3.17-1.713-1.333-3.215-2.915-4.463-4.706-1.275-1.83-2.208-3.872-2.774-6.069-.595-2.314-.686-4.387-.272-6.164.421-1.808 1.271-3.31 2.524-4.464 1.203-1.108 2.742-1.894 4.57-2.336 1.726-.419 3.663-.538 5.76-.355 1.388.122 2.818.352 4.251.683 1.385.321 2.788.713 4.171 1.163l1.675.547.858 3.336c.214-.289.442-.565.693-.824.929-.964 2.089-1.708 3.449-2.227l-.926-3.601 1.22-.726c0-.01-.001-.022-.001-.035-.014-.215-.057-.455-.129-.707-.137-.483-.262-.951-.381-1.41l-3.283-12.763c-.122-.479-.24-.957-.35-1.43-.062-.271-.148-.527-.258-.773-.076-.171-.17-.325-.289-.47-.025-.03-.126-.142-.388-.306l-1.111-.698-1.162-4.461 13.451 1.176c.671.059 1.31.127 1.899.202.681.086 1.362.223 2.021.403.704.195 1.414.463 2.108.797.187.089.374.187.56.291l-.297-1.142 16.875 1.477 3.536.308 8.957.784.989 3.799-.945.787c.004.008.009.014.012.022.265.466.497.868.679 1.178l.594.986 3.345.292.11-1.113.026-.196c.001-.014.004-.026.007-.039-.16-.123-.34-.247-.537-.368l-1.131-.696-1.167-4.479 15.923 1.393.387 1.485c.879-.477 1.826-.814 2.836-.989 1.641-.286 3.498-.343 5.52-.166 1.278.112 2.57.285 3.841.516 1.329.239 2.695.596 4.058 1.058l1.117.38 1.929 3.255c.099-.116.197-.231.302-.34 1.137-1.177 2.612-2.035 4.389-2.544 1.693-.486 3.62-.64 5.725-.457 2.034.179 4.074.653 6.063 1.409 1.091.415 2.143.915 3.153 1.49l-.429-1.694 12.201 1.068.944 3.757c.384-.748.976-1.386 1.778-1.91.476-.301.989-.593 1.519-.868.689-.355 1.454-.597 2.272-.715l1.94-.278.566 1.029-.059-.232 14.57 1.276.935 3.691-.894.874c-.101.099-.126.162-.133.182-.057.176-.086.364-.096.576-.009.31.002.635.039.968.045.418.103.842.175 1.3l2.132 14.562c.185.148.393.31.624.49l.895.694 1.108 4.279z" fill="#264391"/><path d="m133.175 31.308c-.069-1.026-.224-2.017-.463-2.943-.202-.789-.486-1.593-.842-2.386-.326-.732-.813-1.43-1.448-2.077-.679-.702-1.445-1.288-2.277-1.741-.809-.441-1.636-.701-2.458-.773-.845-.074-1.532.087-2.096.493-.592.427-.999.955-1.233 1.597-.248.749-.376 1.667-.38 2.729-.004 1.07.115 2.085.354 3.012.21.818.532 1.655.958 2.486.419.81.94 1.564 1.552 2.234.602.661 1.302 1.227 2.078 1.683.747.439 1.583.701 2.488.781 1.018.087 1.773-.085 2.306-.53.574-.479.966-1.09 1.197-1.861.241-.806.328-1.715.264-2.704zm27.849 12.267-.169-.663-6.26-11.276-1.53 10.368.226.895-9.748-.854-.302-1.2.265-.269c.286-.288.467-.61.557-.982.078-.34.026-.768-.153-1.263l-2.021-5.439c.049.856.002 1.657-.14 2.394-.298 1.529-.945 2.801-1.918 3.781-.966.967-2.236 1.661-3.777 2.064-1.511.396-3.26.509-5.2.341-1.861-.165-3.728-.603-5.554-1.307-1.828-.706-3.538-1.659-5.082-2.833-1.552-1.178-2.915-2.58-4.05-4.168-1.147-1.603-1.98-3.395-2.477-5.326-.485-1.886-.58-3.591-.289-5.074l-.41-.218c-1.322-.701-2.665-1.324-3.99-1.853-1.276-.508-2.585-.824-3.888-.938-1.195-.104-2.171.002-2.901.317-.724.311-1.251.759-1.611 1.368-.367.621-.57 1.385-.604 2.271-.038.925.089 1.952.371 3.052.25.974.586 1.934.997 2.852.393.879.896 1.676 1.498 2.369.589.676 1.295 1.245 2.1 1.688.798.44 1.749.711 2.826.805.975.086 1.899.027 2.744-.175.84-.2 1.601-.53 2.261-.977l1.016-.691 1.438 6.966-6.046-.026-.065-.003c-.898-.079-1.832-.219-2.776-.416-.949-.198-1.906-.464-2.842-.787-.948-.327-1.899-.734-2.825-1.209-.94-.482-1.842-1.049-2.69-1.691-.789-.608-1.541-1.301-2.238-2.059-.687-.749-1.312-1.539-1.861-2.346-.547-.812-1.024-1.659-1.418-2.521-.392-.86-.698-1.713-.911-2.538-.481-1.875-.556-3.631-.221-5.218.34-1.61 1.107-2.976 2.271-4.05 1.197-1.145 2.599-1.863 4.167-2.138 1.502-.263 3.213-.312 5.088-.148 1.221.107 2.458.273 3.673.492 1.235.223 2.506.556 3.777.987l.344.118 3.137 5.29c.36-.934.871-1.756 1.539-2.448.963-.999 2.229-1.729 3.76-2.17 1.505-.431 3.232-.566 5.131-.4 1.862.162 3.727.596 5.546 1.288 1.826.694 3.536 1.643 5.081 2.815 1.451 1.102 2.735 2.407 3.828 3.881l-.187-.503c-.162-.452-.328-.9-.499-1.343-.157-.408-.34-.812-.544-1.197-.192-.362-.428-.711-.699-1.038-.263-.317-.589-.618-.969-.895l-.299-.217-.355-1.402 8.58.75.348 1.374-.496.223c-.303.137-.501.336-.605.61-.102.266-.086.595.046.99l3.182 8.938.756-5.904c.107-.847.246-1.642.409-2.359.196-.856.714-1.564 1.55-2.112.445-.279.921-.551 1.418-.809.543-.281 1.148-.471 1.797-.564l.596-.086 6.821 12.385-1.233-8.08c-.046-.293-.191-.592-.445-.912-.316-.401-.641-.743-.969-1.02l-.25-.211-.345-1.362 10.951.958.306 1.207-.275.269c-.241.236-.402.489-.492.768-.101.316-.16.659-.172 1.023-.014.395.003.808.048 1.226.047.45.108.908.184 1.373l2.153 14.71c.018.189.056.347.116.474.061.13.136.246.232.354.124.138.267.272.424.398.2.159.426.338.681.536l.276.214.359 1.387z" fill="#16243a"/><path d="m45.09 27.085c-.073-.286-.191-.581-.349-.872-.152-.279-.335-.523-.56-.747-.229-.227-.477-.413-.76-.568-.173-.094-.356-.163-.555-.205l1 3.887c.132.036.256.059.372.069.647.057.756-.192.801-.298.16-.365.176-.777.051-1.266zm-.96-9.513c-.112-.434-.271-.858-.474-1.262-.191-.378-.432-.725-.713-1.027-.278-.297-.595-.54-.97-.743-.361-.195-.756-.308-1.209-.348-.293-.026-.484-.022-.602-.012l1.523 5.918.184.016c1.09.097 1.843-.054 2.177-.434.321-.367.35-1.076.084-2.108zm7.881.313c.219.85.284 1.656.196 2.391-.091.746-.325 1.408-.698 1.967-.371.555-.876 1.008-1.502 1.344-.036.018-.071.038-.107.056.445.279.868.587 1.266.924 1.059.894 1.773 2.035 2.122 3.394.27 1.05.257 1.989-.042 2.79-.285.763-.771 1.428-1.442 1.977-.719.596-1.548.911-2.467.937-.795.022-1.688-.009-2.655-.093l-11.208-.98-.342-1.317.423-.251c.232-.136.378-.301.445-.502.089-.256.122-.535.102-.853-.022-.352-.089-.731-.2-1.124-.132-.464-.253-.916-.367-1.357l-3.284-12.764c-.117-.462-.231-.925-.338-1.385-.091-.395-.223-.786-.388-1.156-.155-.35-.358-.678-.603-.976-.23-.284-.549-.554-.949-.805l-.342-.214-.375-1.445 11.317.991c.648.056 1.263.122 1.829.195.593.074 1.186.191 1.757.35.586.161 1.18.386 1.764.666.599.288 1.222.685 1.847 1.172 2.214 1.696 3.641 3.737 4.241 6.068z" fill="#16243a"/><path d="m38.935 47.765c.211.819.534 1.655.96 2.485.418.813.94 1.565 1.55 2.233.602.662 1.301 1.228 2.079 1.684.747.438 1.584.701 2.488.78 1.018.089 1.773-.084 2.305-.529.574-.479.966-1.088 1.198-1.862.24-.804.328-1.712.262-2.701-.067-1.03-.223-2.02-.461-2.944-.202-.789-.486-1.592-.842-2.386-.328-.734-.814-1.43-1.448-2.078-.679-.701-1.445-1.287-2.277-1.741-.809-.441-1.636-.7-2.458-.772-.846-.075-1.532.086-2.097.493-.592.426-.998.955-1.233 1.596-.248.75-.376 1.668-.38 2.73-.003 1.071.114 2.083.354 3.012zm34.247-3.616-.08-.308c-.119-.463-.231-.921-.335-1.371-.089-.384-.218-.769-.383-1.139-.156-.35-.362-.687-.613-1.001-.231-.291-.55-.564-.946-.813l-.112-.071zm11.396 13.296c.208.048.413.091.612.132.359.072.727.124 1.095.158.908.079 1.604-.045 2.068-.369.492-.342.83-.791 1.031-1.37.213-.607.295-1.315.244-2.105-.054-.839-.19-1.687-.404-2.519-.221-.858-.526-1.725-.907-2.576-.37-.823-.87-1.629-1.48-2.385-.744-.899-1.482-1.539-2.193-1.904-.727-.374-1.612-.609-2.629-.697-.299-.027-.588-.036-.856-.03-.031.001-.063.002-.095.005zm-54.558-16.215c.311-1.509.963-2.786 1.936-3.795.964-1.001 2.229-1.73 3.76-2.17 1.505-.431 3.23-.566 5.13-.401 1.861.164 3.727.596 5.545 1.288 1.827.695 3.538 1.643 5.083 2.816 1.552 1.179 2.917 2.589 4.055 4.188.422.593.802 1.214 1.139 1.86l-.696-2.707c-.119-.464-.231-.921-.335-1.371-.089-.384-.218-.768-.384-1.14-.154-.346-.356-.675-.601-.976-.23-.282-.549-.551-.949-.802l-.342-.216-.372-1.442 16.879 1.476.465.887-.222-.865 8.909.778c.994.088 1.967.179 2.916.272.978.098 1.954.259 2.906.48.966.225 1.949.548 2.923.96.991.419 2.007.999 3.024 1.724 1.73 1.234 3.205 2.744 4.385 4.485.72 1.064 1.309 2.143 1.762 3.228l-1.025-3.986c-.12-.462-.231-.918-.336-1.369-.089-.384-.218-.769-.384-1.139-.153-.348-.357-.676-.6-.975-.231-.284-.55-.554-.949-.805l-.344-.215-.369-1.443 17.129 1.499 3.612 6.964-1.727-.151-.249-.24c-.775-.748-1.575-1.258-2.373-1.516-1.434-.466-2.966-.629-4.499-.626-.32 0-.63.028-.922.082l1.301 5.061 1.529.134c.297.027.572.022.818-.011.189-.026.338-.08.457-.166.049-.037.081-.12.093-.25l.059-.652 1.505.132 1.653 6.424-1.265-.11-.139-.063c-.116-.053-.256-.094-.414-.123-.202-.037-.422-.067-.658-.087l-2.345-.205 1.005 3.907 1.776.155c.419.037.813.037 1.167-.001.315-.033.59-.111.817-.233.162-.087.277-.243.355-.474l.16-.477 1.301.113 1.215 4.725c.293-.196.506-.422.64-.693.189-.386.364-.828.516-1.309l2.746-8.915-1.297-5.043c-.12-.464-.234-.927-.339-1.387-.092-.397-.223-.786-.389-1.158-.156-.35-.362-.687-.613-1.002-.231-.289-.55-.562-.945-.811l-.344-.216-.37-1.442 11.201.979.304 1.189-.254.269c-.225.239-.38.494-.466.758-.091.281-.133.578-.126.881.007.339.05.704.127 1.083.084.408.188.865.315 1.354l.047.183 1.355.44c.716.231 1.425.417 2.106.552.687.133 1.402.235 2.121.297l4.886.428c.404.034.774.161 1.078.362.158.099.32.238.53.454.147.153.296.311.446.475l5.131 5.57-2.588-.837c-.715-.232-1.424-.417-2.109-.552-.681-.133-1.394-.234-2.122-.298l-4.886-.428c-.405-.035-.774-.161-1.078-.363-.156-.099-.324-.242-.528-.452-.147-.153-.296-.312-.448-.479l-.483-.526c-.124-.136-.216-.236-.26-.287l-2.817-3.057.91 3.537 8.797 11.855-4.031 1.717-2.952-.258-.343-1.34.454-.241c.191-.101.316-.215.363-.33.016-.039.059-.192-.042-.584-.067-.262-.223-.581-.465-.949-.292-.443-.557-.828-.797-1.149l-1.982-2.706-1.599 6.08.219.852-9.182-.803.043.171-1.214-.106-.156-.08c-.119-.06-.267-.102-.443-.125-.263-.033-.519-.06-.769-.082l-13.051-1.142-.336-1.315.421-.251c.232-.138.377-.301.446-.501.088-.258.121-.538.102-.854-.023-.352-.089-.731-.201-1.126-.132-.465-.254-.917-.366-1.356l-1.205-4.683c.116 1.204.052 2.356-.198 3.441-.4 1.736-1.333 3.145-2.776 4.186-.722.52-1.513.895-2.355 1.116-.809.211-1.679.339-2.583.377-.885.038-1.827.014-2.799-.07l-10.962-.959-.355-1.373.499-.226c.155-.07.272-.19.357-.365.1-.206.144-.408.134-.599-.011-.144-.046-.428-.156-.955-.095-.459-.204-.945-.324-1.46-.122-.518-.247-1.026-.374-1.522l-2.592-10.069-1.868-1.288c-.847-.584-1.661-1.009-2.42-1.266-.776-.263-1.637-.437-2.558-.517-.608-.053-1.215-.075-1.8-.062-.318.007-.617.042-.896.105l3.358 13.055c.119.464.232.926.339 1.389.091.394.222.783.389 1.157.155.348.361.687.612 1.001.232.29.55.564.946.81l.343.217.371 1.442-11.13-.973-.332-1.29.387-.259c.241-.159.394-.34.466-.552.088-.258.121-.537.101-.854-.022-.353-.09-.731-.201-1.126-.131-.464-.253-.916-.366-1.357l-.746-2.899c-.005.583-.056 1.14-.157 1.661-.299 1.529-.944 2.801-1.918 3.78-.965.967-2.236 1.661-3.776 2.064-1.51.397-3.259.511-5.2.34-1.862-.163-3.73-.603-5.554-1.307-1.829-.706-3.539-1.658-5.083-2.831-1.552-1.179-2.914-2.582-4.049-4.169-.935-1.306-1.657-2.74-2.162-4.27l-8.822-.772-.315-1.236.314-.267c.342-.293.524-.58.525-.831.003-.395-.087-.95-.267-1.648l-1.15-4.47c-.026-.005-.052-.007-.077-.01-.226-.032-.449-.056-.672-.075-1.097-.097-1.951.05-2.537.437-.603.398-1.01.932-1.244 1.633-.249.741-.346 1.598-.287 2.548.061.997.221 2.003.475 2.992.244.949.596 1.855 1.046 2.694.437.82.975 1.549 1.597 2.172.612.612 1.335 1.118 2.147 1.504.817.389 1.764.632 2.811.724.395.035.805.03 1.214-.013.425-.046.835-.119 1.222-.218.367-.095.708-.226 1.015-.392.294-.161.541-.343.732-.543l.213-.223 1.176.104 1.583 6.157-.67.139c-.869.181-1.783.284-2.715.308-.918.022-1.861-.009-2.805-.092-1.911-.166-3.794-.614-5.597-1.329-1.809-.717-3.497-1.68-5.019-2.862-1.53-1.189-2.869-2.602-3.984-4.201-1.121-1.61-1.944-3.415-2.446-5.363-.519-2.017-.604-3.802-.254-5.304.353-1.513 1.059-2.765 2.1-3.724 1.027-.944 2.351-1.618 3.938-2.001 1.555-.378 3.314-.484 5.227-.317 1.302.115 2.646.329 3.993.642 1.329.308 2.676.684 4.005 1.116l.515.168 2.261 8.787c-.049-.869.005-1.687.162-2.443z" fill="#16243a"/><path d="m79.349 24.189 2.151 3.674.375-3.453zm12.524-7.714c-.184.279-.325.558-.419.832-.098.279-.169.589-.212.926l-2.417 19.026-9.975-.874-.333-1.289.387-.259c.226-.151.405-.333.548-.558.052-.079.111-.224.03-.539-.048-.189-.183-.543-.549-1.157-.348-.58-.624-1.047-.827-1.395l-8.389-14.064c-.539-.871-1.031-1.603-1.462-2.179-.246-.329-.571-.672-.957-1.026l2.445 4.715-1.728-.152-.249-.239c-.775-.748-1.573-1.258-2.372-1.516-1.432-.465-2.951-.629-4.498-.626-.321.001-.629.028-.922.082l1.301 5.062 1.529.134c.297.026.571.021.816-.011.189-.027.34-.082.457-.168.051-.035.082-.12.093-.249l.06-.652 1.506.131 1.652 6.425-1.266-.111-.141-.064c-.114-.052-.252-.092-.411-.121-.204-.038-.425-.068-.657-.088l-2.346-.206 1.005 3.909 1.777.155c.418.036.811.036 1.167-.001.314-.033.59-.112.816-.233.162-.087.278-.241.355-.474l.16-.477 1.301.114 1.696 6.595-1.214-.107-.156-.078c-.12-.062-.268-.102-.443-.125-.264-.034-.52-.061-.769-.083l-13.048-1.142-.341-1.316.421-.25c.233-.137.378-.301.447-.502.088-.258.122-.536.101-.854-.021-.349-.089-.728-.2-1.124-.131-.464-.253-.917-.366-1.358l-3.292-12.795c-.12-.464-.231-.921-.335-1.37-.089-.384-.218-.767-.383-1.14-.156-.349-.359-.677-.601-.975-.232-.284-.552-.556-.95-.805l-.341-.215-.376-1.443 16.874 1.476.259.023 8.607.753.324 1.24-.324.269c-.227.19-.424.395-.586.608-.053.07-.05.24.007.465.074.286.227.633.456 1.034.271.476.508.89.707 1.229l1.186 1.965 5.881.514.25-2.569.009-.062c.053-.287.056-.418.056-.46 0-.013-.006-.132-.093-.468-.091-.357-.236-.622-.446-.809-.311-.279-.678-.549-1.092-.802l-.347-.215-.377-1.449 12.297 1.076.307 1.181-.249.272c-.357.39-.636.737-.831 1.033z" fill="#16243a"/><g fill="#fff"><path d="m15.785 45.812c.264 1.026.64 1.994 1.128 2.907.487.912 1.08 1.715 1.777 2.413.698.697 1.506 1.263 2.425 1.701.919.436 1.956.705 3.109.805.448.041.902.035 1.362-.013.46-.05.9-.128 1.32-.236.422-.108.809-.258 1.163-.45s.649-.411.884-.659l.178.016 1.223 4.756c-.831.173-1.693.269-2.587.292-.893.022-1.799-.008-2.718-.088-1.839-.16-3.624-.585-5.356-1.27-1.732-.687-3.325-1.596-4.78-2.726-1.454-1.131-2.711-2.456-3.77-3.975-1.059-1.52-1.826-3.204-2.301-5.051-.487-1.894-.57-3.534-.246-4.922.323-1.387.961-2.518 1.912-3.393.95-.875 2.169-1.495 3.656-1.854 1.486-.361 3.151-.461 4.99-.299 1.275.111 2.567.32 3.879.624 1.312.303 2.622.669 3.931 1.095l2.852 11.086-7.431-.651-.027-.103c.497-.424.747-.87.75-1.339.003-.468-.096-1.09-.294-1.864l-1.303-5.063c-.246-.068-.489-.117-.727-.149-.237-.031-.474-.058-.709-.077-1.268-.112-2.26.068-2.977.542-.716.473-1.213 1.125-1.493 1.959-.28.833-.387 1.778-.322 2.831.065 1.054.232 2.104.502 3.155"/><path d="m50.572 49.941c-.073-1.088-.235-2.122-.487-3.102-.217-.844-.516-1.689-.895-2.536-.38-.849-.928-1.636-1.646-2.368-.755-.781-1.594-1.422-2.519-1.926-.926-.506-1.86-.799-2.804-.881-1.015-.089-1.867.116-2.557.612-.692.497-1.179 1.134-1.463 1.912-.272.824-.411 1.808-.416 2.957-.005 1.148.123 2.223.381 3.226.228.89.574 1.785 1.036 2.684.461.897 1.03 1.717 1.704 2.456s1.446 1.364 2.316 1.874c.869.512 1.823.812 2.86.904 1.204.104 2.138-.12 2.802-.675.664-.556 1.129-1.278 1.396-2.169.267-.892.364-1.879.292-2.968zm6.686-1.304c.481 1.871.585 3.507.312 4.91-.274 1.403-.855 2.55-1.744 3.442s-2.052 1.527-3.489 1.902c-1.436.377-3.087.482-4.95.321-1.793-.158-3.566-.575-5.32-1.253s-3.369-1.576-4.845-2.698c-1.475-1.121-2.753-2.437-3.834-3.946-1.08-1.511-1.854-3.179-2.324-5.004-.463-1.8-.552-3.398-.263-4.788.286-1.391.877-2.549 1.769-3.473.891-.926 2.052-1.592 3.48-2.003 1.427-.411 3.05-.536 4.867-.377 1.793.157 3.565.568 5.315 1.233 1.751.665 3.365 1.56 4.841 2.681s2.755 2.444 3.838 3.964c1.084 1.522 1.866 3.219 2.347 5.089z"/><path d="m69.353 42.121c-.846-.287-1.764-.473-2.755-.56-.637-.055-1.266-.077-1.885-.064s-1.18.12-1.681.321l3.529 13.719c.118.457.228.911.334 1.368.105.454.254.897.445 1.326.191.428.44.836.746 1.218.306.385.706.732 1.202 1.043l.026.102-9.518-.832-.026-.103c.353-.236.59-.529.708-.875s.165-.728.139-1.142c-.026-.416-.104-.85-.233-1.307-.13-.458-.249-.902-.36-1.336l-3.284-12.761c-.117-.457-.226-.907-.33-1.351-.102-.443-.249-.879-.44-1.309s-.438-.83-.741-1.202-.703-.713-1.198-1.024l-.027-.103 15.429 1.35 2.577 4.908c-.926-.638-1.811-1.101-2.657-1.386"/><path d="m90.423 53.979c-.058-.896-.201-1.789-.431-2.68-.234-.912-.553-1.82-.96-2.725-.406-.905-.946-1.777-1.624-2.617-.836-1.01-1.672-1.73-2.51-2.16-.837-.43-1.821-.694-2.953-.793-.332-.03-.645-.04-.943-.032-.298.007-.598.053-.898.139l3.854 14.985c.419.104.823.193 1.212.274.389.077.784.135 1.186.17 1.084.095 1.925-.066 2.522-.482.596-.416 1.016-.976 1.262-1.678.247-.703.341-1.504.283-2.401zm6.435-2.078c.475 1.846.529 3.563.165 5.146-.365 1.586-1.208 2.855-2.531 3.811-.661.476-1.376.815-2.142 1.015-.768.2-1.58.318-2.434.355-.855.038-1.754.015-2.699-.067-.919-.081-1.851-.163-2.795-.246l-7.501-.656-.028-.102c.29-.131.509-.352.661-.662.15-.31.217-.634.2-.968-.017-.247-.075-.605-.171-1.069-.097-.467-.207-.96-.33-1.484-.124-.523-.249-1.036-.378-1.538-.124-.479-.223-.866-.299-1.163l-2.704-10.503c-.118-.457-.228-.906-.331-1.35-.103-.443-.249-.881-.441-1.309-.191-.43-.438-.836-.745-1.219-.306-.385-.707-.731-1.202-1.042l-.027-.103 7.966.696c.99.088 1.959.178 2.906.272.946.093 1.879.248 2.8.462.918.214 1.845.518 2.775.911.932.394 1.878.934 2.84 1.62 1.636 1.169 3.013 2.576 4.131 4.224 1.113 1.647 1.886 3.303 2.314 4.969z"/><path d="m112.92 64.426c-.274-.036-.542-.064-.801-.088l-12.385-1.083-.027-.103c.361-.214.599-.495.719-.84.119-.347.164-.727.14-1.141-.027-.416-.106-.851-.235-1.309-.128-.456-.249-.902-.36-1.335l-3.291-12.795c-.118-.457-.228-.907-.331-1.35-.103-.445-.25-.88-.441-1.311-.191-.429-.438-.828-.74-1.201-.304-.372-.704-.713-1.198-1.024l-.027-.103 15.676 1.372 2.744 5.289-.177-.014c-.889-.859-1.806-1.441-2.748-1.747-.944-.305-1.912-.501-2.902-.588-.614-.054-1.231-.079-1.854-.078-.622.001-1.199.09-1.729.266l1.655 6.433 1.167.103c.331.028.672.057 1.026.089.354.03.682.026.982-.016.301-.039.553-.134.757-.284.203-.149.321-.39.351-.721l.177.015 1.232 4.79-.177-.016c-.183-.083-.389-.146-.62-.187-.229-.043-.474-.075-.733-.098l-3.291-.288 1.425 5.543 1.133.099c.424.036.861.074 1.308.115.473.041.91.039 1.315-.004.404-.042.757-.145 1.062-.307.304-.164.521-.441.651-.83l.107.01 1.275 4.96-.107-.01c-.213-.107-.454-.179-.728-.213"/><path d="m128.698 65.789-.027-.102c.325-.173.541-.389.648-.646.107-.258.1-.615-.018-1.072-.092-.365-.292-.777-.595-1.239s-.578-.86-.825-1.193l-2.985-4.073-2.028 7.715.026.102-8.209-.717-.026-.104c.46-.272.792-.616.997-1.033.203-.415.389-.885.554-1.406l2.808-9.118-1.354-5.269c-.12-.456-.23-.912-.334-1.366-.108-.456-.256-.898-.446-1.327-.192-.43-.441-.835-.746-1.22-.305-.383-.708-.73-1.202-1.04l-.026-.103 9.589.838.027.103c-.29.308-.492.643-.607 1.001-.115.357-.17.732-.16 1.123.008.39.054.801.143 1.233.086.431.196.898.326 1.4l1.337 5.2 8.829 11.895-1.785.761z"/><path d="m135.807 54.472-4.213-.369c-.189-.016-.413-.035-.673-.059-.261-.023-.488-.098-.681-.226-.083-.053-.194-.151-.336-.297s-.284-.299-.428-.456c-.145-.157-.289-.314-.433-.473-.145-.158-.249-.273-.314-.345l-2.447-2.655c.755.244 1.49.438 2.206.578.717.141 1.452.244 2.208.311l4.214.368c.188.016.412.036.673.058.259.023.485.099.68.227.083.052.196.15.337.298.142.145.285.296.427.454.146.158.29.315.435.473.144.158.249.272.314.346l2.449 2.654c-.757-.244-1.492-.435-2.209-.577-.718-.141-1.453-.244-2.209-.31"/><path d="m41.881 23.924c.107-.035.211-.059.311-.071.099-.016.209-.016.328-.006.423.038.817.156 1.18.355.362.199.69.445.985.737.295.294.54.621.738.985.197.362.342.727.435 1.091.171.662.144 1.25-.081 1.765-.225.516-.714.741-1.469.675-.331-.029-.691-.128-1.08-.295zm-2.64-10.262c.213-.16.426-.253.638-.28.213-.026.484-.025.815.006.565.047 1.082.2 1.551.453.469.252.878.567 1.229.943.35.375.643.798.878 1.264.235.467.417.951.547 1.452.334 1.301.261 2.225-.22 2.774-.481.548-1.395.765-2.74.646l-.849-.073zm7.37 19.104c.944.083 1.799.114 2.567.091.766-.023 1.453-.286 2.063-.789.59-.483 1.008-1.054 1.253-1.713.246-.66.255-1.433.026-2.322-.3-1.163-.899-2.126-1.796-2.883-.899-.759-1.924-1.355-3.072-1.79.724-.049 1.356-.216 1.893-.504.537-.287.964-.667 1.281-1.142.316-.474.512-1.03.589-1.671.079-.64.02-1.337-.172-2.087-.547-2.122-1.839-3.963-3.878-5.523-.578-.453-1.136-.808-1.674-1.067-.54-.26-1.077-.462-1.611-.609-.533-.147-1.08-.256-1.639-.328-.561-.071-1.16-.134-1.797-.19l-10.37-.906.027.101c.496.31.896.652 1.198 1.025.303.372.551.773.743 1.202.19.429.339.871.445 1.326.104.454.217.911.334 1.367l3.282 12.762c.112.432.232.879.362 1.335.129.457.206.894.232 1.309.026.414-.02.795-.139 1.141-.118.346-.357.626-.718.841l.027.101z"/><path d="m59.026 15.56c.531-.177 1.107-.266 1.73-.267.623-.002 1.24.025 1.853.078.991.086 1.958.283 2.901.589.944.305 1.86.887 2.75 1.745l.176.016-2.744-5.29-15.676-1.372.027.102c.495.311.894.653 1.198 1.025.303.372.549.773.741 1.202.19.43.338.866.441 1.309.102.444.212.894.33 1.35l3.29 12.796c.112.432.232.879.362 1.335.128.458.207.894.232 1.308.026.415-.02.796-.139 1.143-.119.345-.357.624-.717.839l.027.103 12.384 1.084c.258.022.526.051.802.088.273.034.517.105.729.213l.106.01-1.276-4.962-.107-.009c-.129.39-.346.666-.65.829-.305.163-.659.266-1.064.308-.404.043-.841.043-1.314.002-.447-.039-.883-.077-1.308-.113l-1.133-.099-1.425-5.543 3.291.287c.259.023.503.056.734.097.229.043.436.106.618.189l.178.015-1.233-4.789-.176-.015c-.031.331-.147.571-.351.721-.204.149-.455.244-.756.285s-.629.045-.983.015c-.354-.031-.696-.062-1.026-.091l-1.168-.101z"/><path d="m82.061 30.216-.036-.003-4.069-6.944 4.813.421zm-5.951-10.219-1.448-2.401c-.207-.352-.447-.769-.72-1.25-.274-.482-.458-.903-.552-1.269-.123-.478-.091-.844.099-1.095.189-.251.416-.489.683-.71l-.027-.101-7.255-.635.027.101c.836.653 1.484 1.284 1.94 1.894.456.607.96 1.359 1.513 2.255l8.398 14.078c.207.353.481.816.825 1.393.344.576.564 1.047.658 1.412.117.456.081.833-.108 1.129-.19.296-.432.541-.726.738l.027.102 8.668.759 2.156-17.034c.072-.529.132-.986.183-1.372s.132-.741.246-1.066c.112-.324.276-.651.492-.976.215-.327.512-.697.89-1.11l-.027-.102-10.686-.935.027.102c.466.287.878.59 1.237.911s.609.755.75 1.304c.076.295.117.516.119.662.002.144-.02.349-.067.612l-.315 3.217z"/><path d="m113.312 34.02c-.725.494-1.55.851-2.474 1.071-.923.221-1.916.284-2.977.191-1.203-.105-2.262-.41-3.176-.912-.913-.505-1.706-1.142-2.377-1.915-.672-.772-1.225-1.645-1.659-2.619-.436-.975-.785-1.975-1.049-3.002-.305-1.187-.438-2.285-.399-3.295.04-1.01.272-1.877.698-2.598.427-.722 1.061-1.261 1.9-1.623.842-.361 1.922-.484 3.245-.369 1.391.123 2.768.454 4.13.998 1.361.541 2.724 1.173 4.084 1.896l-3.054-5.15c-1.238-.42-2.455-.739-3.652-.955-1.196-.217-2.399-.377-3.6-.482-1.819-.16-3.449-.113-4.894.14-1.445.252-2.724.909-3.834 1.972-1.08.997-1.775 2.236-2.088 3.714-.312 1.477-.242 3.093.21 4.85.2.776.484 1.57.854 2.382.372.814.816 1.604 1.338 2.376.521.769 1.11 1.511 1.766 2.227.656.714 1.359 1.36 2.108 1.939.8.606 1.646 1.136 2.537 1.595.89.455 1.79.842 2.702 1.156.91.312 1.822.565 2.736.756.915.191 1.808.327 2.681.403l5.229.023z"/><path d="m121.564 29.291c-.26-1.005-.387-2.079-.382-3.227.004-1.149.143-2.134.415-2.958.285-.777.771-1.414 1.463-1.911.69-.497 1.543-.701 2.557-.612.944.082 1.88.376 2.804.881.926.504 1.765 1.145 2.519 1.925.719.731 1.268 1.52 1.646 2.368.38.847.678 1.692.895 2.536.251.981.414 2.015.488 3.103.072 1.087-.026 2.076-.292 2.968-.267.891-.733 1.613-1.397 2.168-.665.555-1.598.78-2.802.675-1.037-.091-1.991-.392-2.859-.902-.87-.511-1.643-1.137-2.317-1.875-.675-.74-1.242-1.559-1.703-2.457-.463-.899-.808-1.792-1.035-2.682zm-7.104-1.524c.468 1.824 1.245 3.491 2.323 5.001 1.082 1.509 2.359 2.826 3.835 3.948 1.477 1.121 3.091 2.02 4.845 2.699 1.754.675 3.528 1.094 5.321 1.252 1.863.162 3.513.055 4.949-.321 1.437-.376 2.6-1.011 3.49-1.901.888-.893 1.469-2.041 1.743-3.444.273-1.402.169-3.04-.312-4.909-.481-1.871-1.263-3.567-2.346-5.089-1.084-1.521-2.363-2.843-3.84-3.964-1.476-1.121-3.089-2.015-4.839-2.681-1.752-.666-3.523-1.077-5.316-1.233-1.817-.16-3.438-.034-4.866.376-1.429.41-2.589 1.079-3.48 2.003-.892.925-1.483 2.083-1.771 3.473-.287 1.391-.199 2.987.264 4.79z"/><path d="m161.596 42.726.027.102 8.456.74-.025-.103c-.261-.201-.492-.382-.695-.546-.203-.162-.387-.334-.548-.515-.161-.182-.293-.383-.398-.603-.103-.222-.169-.478-.197-.77l-2.148-14.669c-.076-.474-.137-.943-.187-1.404-.051-.461-.067-.91-.052-1.342.015-.433.084-.841.205-1.22s.339-.723.651-1.03l-.026-.102-9.341-.818.025.103c.384.323.754.712 1.115 1.168.359.455.572.909.642 1.36l1.816 11.898-.106-.009-8.437-15.32c-.578.084-1.106.249-1.584.498-.478.246-.937.506-1.372.782-.692.451-1.116 1.022-1.272 1.711-.158.688-.291 1.451-.397 2.29l-1.127 8.796-.106-.008-4.239-11.91c-.202-.597-.218-1.111-.052-1.542.165-.432.476-.751.93-.955l-.026-.103-6.971-.609.026.101c.455.33.839.686 1.157 1.072.319.384.59.788.814 1.208.223.421.422.857.595 1.307.172.45.341.903.506 1.364l5.395 14.519c.242.667.303 1.246.189 1.738-.116.491-.357.922-.724 1.29l.026.104 8.14.713-.028-.104 1.867-12.645z"/></g></g></svg>