<svg clip-rule="evenodd" fill-rule="evenodd" viewBox="0 0 560 400" xmlns="http://www.w3.org/2000/svg"><g transform="matrix(.851064 0 0 .851064 119.064 95.1489)"><ellipse cx="189.1" cy="123.2" fill="#fff" rx="183.8" ry="117.5" stroke="#ba0c2f" stroke-width="7.5"/><path d="m73.9 44.9c41.4-23.2 90.1-30.6 137.1-27.6 34.3 2.6 68.2 12.4 97.6 30.4 15.9 9.9 30.7 22.4 39.7 39.2h-83.9c-19.8-19.3-46.3-32.5-74.2-33.2-20.7.4-41.2 6.5-58.3 17.9-12.8 8.5-23.9 20.4-28 35.4-4.3 14.8.5 30.7 8.3 43.3 13.4 20.8 37.3 33.3 61.6 35.5 17.3 1.5 34.9-.1 51.4-5.5 18-5.6 34.3-18.8 41.8-36.3h-111.4v-33.3h201.5c2-.4 1.6 2.6 1.9 3.9.3 8.6.5 17.4-2.1 25.8-6.5 23.5-24.4 42.2-44.6 55.1-39.7 25.4-88 33.9-134.6 33.4-25-1-50.3-4.8-74.1-13.6-21.4-8-41.6-19.9-57.9-36.1-13.1-13.9-24.1-30.7-26.5-50-.9-10.3-.5-20.9 3.5-30.6 9.3-23.7 29.7-41.1 51.2-53.7z" fill="#2c2a29" fill-rule="nonzero"/></g></svg>