<svg clip-rule="evenodd" fill-rule="evenodd" stroke-linejoin="round" stroke-miterlimit="2" viewBox="0 0 560 400" xmlns="http://www.w3.org/2000/svg"><g fill="#333"><g fill-rule="nonzero"><path d="m0 0c-.465-.147-.975-.22-1.53-.22-.657 0-1.249.101-1.776.305-.528.203-.979.488-1.353.854-.374.367-.662.806-.863 1.318-.201.514-.302 1.077-.302 1.692 0 .623.098 1.191.293 1.703.196.513.474.952.835 1.319s.799.65 1.315.851c.517.202 1.094.302 1.732.302.323 0 .623-.024.9-.071s.534-.115.769-.205c.235-.089.454-.198.655-.324.201-.128.389-.272.564-.43l-.314-.502c-.049-.076-.113-.124-.191-.145-.077-.021-.164-.003-.259.054-.091.053-.195.118-.313.194-.118.075-.261.149-.43.219s-.368.13-.598.18c-.23.049-.502.073-.817.073-.46 0-.875-.074-1.248-.224-.372-.151-.689-.365-.951-.644s-.463-.617-.604-1.014c-.14-.396-.21-.842-.21-1.336 0-.512.073-.97.219-1.375.146-.404.355-.749.627-1.031.271-.283.601-.498.988-.647.387-.148.822-.222 1.304-.222.19 0 .368.012.533.034.165.023.323.055.475.095s.298.089.439.147c.14.06.283.127.427.203v1.8h-1.27c-.072 0-.131.021-.174.062-.043.042-.066.093-.066.155v.626h2.507v-3.133c-.41-.296-.848-.517-1.313-.663" transform="matrix(3.53736 0 0 -3.53736 200.6017212 321.239916704)"/><path d="m0 0c0 .501-.068.951-.205 1.35s-.33.736-.581 1.011-.554.487-.911.635c-.357.149-.756.222-1.196.222-.437 0-.834-.073-1.191-.222-.356-.148-.661-.36-.914-.635-.252-.275-.447-.612-.584-1.011-.136-.399-.205-.849-.205-1.35s.069-.95.205-1.347c.137-.397.332-.733.584-1.008.253-.275.558-.486.914-.632.357-.146.754-.22 1.191-.22.44 0 .839.074 1.196.22s.66.357.911.632.444.611.581 1.008.205.846.205 1.347m1.133 0c0-.611-.096-1.172-.29-1.683-.193-.51-.467-.95-.82-1.318-.354-.369-.777-.655-1.273-.858s-1.044-.304-1.643-.304c-.6 0-1.147.101-1.641.304-.493.203-.917.489-1.27.858-.353.368-.626.808-.82 1.318-.193.511-.29 1.072-.29 1.683 0 .612.097 1.172.29 1.684.194.51.467.95.82 1.321.353.37.777.658 1.27.863.494.205 1.041.307 1.641.307.599 0 1.147-.102 1.643-.307s.919-.493 1.273-.863c.353-.371.627-.811.82-1.321.194-.512.29-1.072.29-1.684" transform="matrix(3.53736 0 0 -3.53736 235.48716552 307.269820856)"/><path d="m0 0c-.465-.147-.975-.22-1.53-.22-.657 0-1.249.101-1.776.305-.528.203-.979.488-1.353.854-.374.367-.662.806-.863 1.318-.201.514-.302 1.077-.302 1.692 0 .623.098 1.191.293 1.703.196.513.474.952.835 1.319s.799.65 1.315.851c.517.202 1.094.302 1.732.302.323 0 .623-.024.9-.071s.534-.115.769-.205c.235-.089.454-.198.655-.324.201-.128.389-.272.564-.43l-.314-.502c-.049-.076-.113-.124-.191-.145-.077-.021-.164-.003-.259.054-.091.053-.195.118-.313.194-.118.075-.261.149-.43.219s-.368.13-.598.18c-.23.049-.502.073-.817.073-.46 0-.875-.074-1.248-.224-.372-.151-.689-.365-.951-.644s-.463-.617-.604-1.014c-.14-.396-.21-.842-.21-1.336 0-.512.073-.97.219-1.375.146-.404.355-.749.627-1.031.271-.283.601-.498.988-.647.387-.148.822-.222 1.304-.222.19 0 .368.012.533.034.165.023.323.055.475.095s.298.089.439.147c.14.06.283.127.427.203v1.8h-1.27c-.072 0-.131.021-.174.062-.043.042-.065.093-.065.155v.626h2.506v-3.133c-.41-.296-.848-.517-1.313-.663" transform="matrix(3.53736 0 0 -3.53736 265.4769036 321.239916704)"/><path d="m0 0c0 .098.018.191.054.278.036.088.085.164.148.228.063.065.138.116.225.154s.18.057.279.057.192-.019.279-.057.163-.089.228-.154c.064-.064.116-.14.154-.228.037-.087.057-.18.057-.278 0-.102-.02-.197-.057-.282-.038-.086-.09-.161-.154-.225-.065-.065-.141-.115-.228-.151s-.18-.054-.279-.054-.192.018-.279.054-.162.086-.225.151c-.063.064-.112.139-.148.225-.036.085-.054.18-.054.282" transform="matrix(3.53736 0 0 -3.53736 276.92380056 319.477250216)"/><path d="m0 0c.061 0 .114-.024.159-.074l.439-.473c-.334-.387-.74-.689-1.216-.906-.477-.216-1.053-.324-1.729-.324-.585 0-1.116.101-1.595.305-.478.203-.886.487-1.224.854s-.6.806-.786 1.318c-.186.514-.279 1.077-.279 1.692 0 .616.097 1.179.29 1.692.194.512.466.953.818 1.321.351.369.771.654 1.261.858.49.203 1.031.304 1.624.304.58 0 1.093-.093 1.537-.279s.836-.438 1.174-.757l-.365-.507c-.023-.038-.052-.069-.088-.094-.037-.025-.085-.037-.146-.037-.068 0-.151.037-.25.111-.099.073-.228.157-.388.247-.159.092-.358.174-.597.248-.239.075-.534.111-.883.111-.422 0-.807-.072-1.156-.219-.35-.146-.651-.358-.903-.635-.253-.277-.449-.615-.59-1.014-.14-.399-.211-.849-.211-1.35 0-.508.074-.962.22-1.361s.346-.736.598-1.011.55-.485.894-.629.715-.217 1.113-.217c.244 0 .463.014.659.043.195.029.375.073.541.134.165.06.319.138.461.23.142.093.283.205.424.334.065.057.129.085.194.085" transform="matrix(3.53736 0 0 -3.53736 308.81663832 315.731539712)"/><path d="m0 0c0 .501-.068.951-.205 1.35s-.33.736-.581 1.011-.554.487-.911.635c-.357.149-.756.222-1.196.222-.437 0-.834-.073-1.191-.222-.356-.148-.661-.36-.914-.635-.252-.275-.447-.612-.584-1.011-.136-.399-.205-.849-.205-1.35s.069-.95.205-1.347c.137-.397.332-.733.584-1.008.253-.275.558-.486.914-.632.357-.146.754-.22 1.191-.22.44 0 .839.074 1.196.22s.66.357.911.632.444.611.581 1.008.205.846.205 1.347m1.133 0c0-.611-.096-1.172-.29-1.683-.194-.51-.467-.95-.82-1.318-.354-.369-.777-.655-1.273-.858s-1.044-.304-1.643-.304c-.6 0-1.147.101-1.641.304-.493.203-.917.489-1.27.858-.353.368-.626.808-.82 1.318-.193.511-.29 1.072-.29 1.683 0 .612.097 1.172.29 1.684.194.51.467.95.82 1.321.353.37.777.658 1.27.863.494.205 1.041.307 1.641.307.599 0 1.147-.102 1.643-.307s.919-.493 1.273-.863c.353-.371.626-.811.82-1.321.194-.512.29-1.072.29-1.684" transform="matrix(3.53736 0 0 -3.53736 338.90542248 307.269820856)"/><path d="m0 0c.042-.1.083-.2.125-.298.038.102.078.204.12.304.041.1.087.197.136.287l2.769 5.019c.045.087.095.14.15.159s.132.028.231.028h.815v-8.161h-.969v5.997c0 .08.002.165.006.257.004.091.01.183.017.279l-2.797-5.104c-.087-.17-.22-.256-.398-.256h-.16c-.178 0-.311.086-.398.256l-2.859 5.121c.011-.1.019-.196.025-.29.006-.096.009-.183.009-.263v-5.997h-.969v8.161h.815c.099 0 .174-.009.228-.028.053-.019.104-.072.153-.159l2.82-5.024c.045-.091.089-.187.131-.288" transform="matrix(3.53736 0 0 -3.53736 364.6291044 312.277307672)"/></g><path d="m0 0h-6.577c-.516 0-.93-.419-.93-.935 0 0 .002 0 .002-.006h-.002v-4.693h.002l-.002-.004c0-.514.414-.937.93-.937h6.577v-3.131h-8.207v.008c-1.343 0-2.429 1.086-2.429 2.425v7.98c0 1.332 1.086 2.418 2.429 2.418h8.207z" transform="matrix(3.53736 0 0 -3.53736 239.59404048 200.16174368)"/><path d="m0 0c0-1.365-1.103-2.463-2.462-2.463h-10.556v3.173h8.9c.524 0 .944.428.944.949v10.488c0 .523-.42.947-.944.947h-4.783c-.523 0-.944-.424-.944-.947v-4.773c0-.524.421-.949.944-.949h3.821v-3.173h-5.477c-1.362 0-2.461 1.1-2.461 2.461v8.094c0 1.36 1.099 2.462 2.461 2.462h8.095c1.359 0 2.462-1.102 2.462-2.462z" transform="matrix(3.53736 0 0 -3.53736 247.99173312 169.33718864)"/><path d="m0 0h-3.128v9.698h-2.198c-.517 0-.931-.419-.931-.935v-8.763h-3.128v9.698h-2.199c-.518 0-.932-.419-.932-.935v-8.771h-3.127v10.413c0 1.332 1.083 2.418 2.426 2.418h13.217z" transform="matrix(3.53736 0 0 -3.53736 358.02485328 234.46706096)"/><path d="m0 0c0-1.365-1.104-2.463-2.461-2.463h-10.557v3.173h8.9c.526 0 .948.428.948.949v10.488c0 .523-.422.947-.948.947h-4.782c-.518 0-.941-.424-.941-.947v-4.773c0-.524.423-.949.941-.949h3.819v-3.173h-5.474c-1.362 0-2.463 1.1-2.463 2.461v8.094c0 1.36 1.101 2.462 2.463 2.462h8.094c1.357 0 2.461-1.102 2.461-2.462z" transform="matrix(3.53736 0 0 -3.53736 358.05668952 169.33718864)"/><path d="m0 .008v-4.773c0-.524-.411-.95-.936-.95h-4.781c-.525 0-.945.426-.945.95v4.773c0 .523.42.946.945.946h4.781c.525 0 .936-.423.936-.946zm.721 4.121h-8.098c-1.36 0-2.459-1.102-2.459-2.462v-8.094c0-1.36 1.099-2.461 2.459-2.461h8.098c1.356 0 2.46 1.101 2.46 2.461v8.094c0 1.36-1.104 2.462-2.46 2.462" transform="matrix(3.53736 0 0 -3.53736 291.77363784 126.39363824)"/><path d="m0 .006v-4.699c0-.516-.414-.937-.928-.937-.005 0-.006.005-.011.005v-.005h-4.692v.005s-.005-.005-.01-.005c-.516 0-.93.421-.93.937v4.699c0 .516.414.935.93.935h4.713c.514 0 .928-.419.928-.935zm.703 4.06h-7.976c-1.343 0-2.427-1.086-2.427-2.418v-7.98c0-1.339 1.084-2.425 2.427-2.425h7.976c1.338 0 2.424 1.086 2.424 2.425v7.98c0 1.332-1.086 2.418-2.424 2.418" transform="matrix(3.53736 0 0 -3.53736 282.76398192 203.49039944)"/><path d="m0 0c0-.806-.325-1.53-.853-2.059-.528-.527-1.253-.851-2.057-.851h-48.315c-.805 0-1.529.324-2.057.851-.528.529-.851 1.253-.853 2.059v45.578c.002.805.325 1.528.853 2.057.528.527 1.252.851 2.057.852h48.315c.804-.001 1.529-.325 2.057-.852.528-.529.853-1.252.853-2.057zm-.004 48.485c-.742.744-1.772 1.204-2.906 1.204h-48.315c-1.134 0-2.164-.46-2.906-1.204-.744-.742-1.206-1.774-1.206-2.907v-45.578c0-1.134.462-2.166 1.206-2.908.742-.743 1.772-1.205 2.906-1.205h48.315c1.134 0 2.164.462 2.906 1.205.744.742 1.206 1.774 1.206 2.908v45.578c0 1.133-.462 2.165-1.206 2.907" fill-rule="nonzero" transform="matrix(3.53736 0 0 -3.53736 375.74702688 253.749564056)"/></g></svg>