<svg clip-rule="evenodd" fill-rule="evenodd" stroke-linejoin="round" stroke-miterlimit="1.41421" viewBox="0 0 560 400" xmlns="http://www.w3.org/2000/svg"><g fill-rule="nonzero" transform="matrix(1.67424 0 0 -1.67424 112.848 300)"><path d="m18.229 119.387h34.767c11.796-.713 6.486-45.088 6.486-45.088s7.587 24.303 16.403 44.986h24.196v-41.334c3.809 12.32 15.098 40.651 16.073 41.506h6.862s25.985.089 12.704-30.787c-5.758-14.601-13.29-34.482-22.94-66.8 0 0-14.857.377-33.855-1.501-1.051 7.328-2.88 36.411-2.88 36.411s-11.27-27.717-13.055-38.199c-19.452-1.992-41.278-7.406-41.278-7.406s6.261 27.453 8.544 62.241c1.297 23.696.14 44.391-12.027 45.971" fill="#100f0d"/><g fill="#fccb1f"><path d="m134.326 119.457 49.635-.068s-16.302-28.406-31.817-80.573l47.53-.029s-5.889-8.698-8.452-29.649c0 0-26.017 12.269-74.242 12.732 8.474 28.44 19.814 58.755 24.98 71.411 4.632 12.809 1.641 23.934-7.634 26.176"/><path d="m0 0s108.021 39.064 197.583 2.855c0 0-81.705 27.634-197.583-2.855"/></g></g></svg>