<svg clip-rule="evenodd" fill-rule="evenodd" stroke-linejoin="round" stroke-miterlimit="2" viewBox="0 0 560 400" xmlns="http://www.w3.org/2000/svg"><path d="m163.234 169.635c-2.868-1.366-7.308-4.577-9.869-7.138l-4.655-4.655-4.131 3.915c-8.939 8.471-2.003 7.735-75.882 8.047l-65.75.278v-2.099c0-2.984 2.084-4.689 6.592-5.393 2.149-.336 4.66-.844 5.578-1.129.919-.285 2.671-.711 3.894-.947 4.087-.787 12.375-5.716 15.758-9.372 3.63-3.923 6.434-8.885 7.693-13.616.439-1.65.926-3.45 1.083-4s.558-2.125.892-3.5c.333-1.375.81-3.287 1.058-4.25.249-.962.655-2.537.904-3.5.248-.962.72-2.875 1.048-4.25s.786-3.175 1.017-4c.483-1.722 6.286-23.495 7.062-26.5.285-1.1.699-2.675.921-3.5s.65-2.512.952-3.75c.301-1.237.795-3.262 1.096-4.5.302-1.237.732-2.925.956-3.75 1.644-6.047 7.715-28.889 8.107-30.5.267-1.1.667-2.675.889-3.5 1.433-5.324 1.706-6.764 1.704-9-.003-4.365-.599-7-1.583-7-.525 0-.682-.272-.348-.606.849-.849-3.464-4.973-7.678-7.34-1.944-1.092-5.525-2.169-7.958-2.395-5.568-.515-6.808-1.286-6.435-3.997.661-4.795-.61-4.695 55.972-4.42 51.016.247 53.314.338 53.656 2.115.517 2.685-.802 3.581-7.612 5.17-6.842 1.596-14.218 4.558-14.218 5.709 0 .421-.48.764-1.067.764-2.688 0-10.453 10.313-11.557 15.348-.26 1.184-.654 2.827-.876 3.652s-.608 2.4-.857 3.5-1.869 7.175-3.6 13.5-3.37 12.4-3.643 13.5-.678 2.675-.9 3.5-.672 2.625-1 4-.778 3.175-1 4-.635 2.4-.919 3.5c-.536 2.084-5.335 19.882-6.066 22.5-.23.825-.687 2.625-1.015 4s-.778 3.175-1 4-.603 2.4-.847 3.5c-.243 1.1-1.639 6.275-3.101 11.5s-2.859 10.288-3.105 11.25c-.246.963-.713 2.763-1.038 4-.326 1.238-.819 4.349-1.096 6.914-.431 3.994-.204 4.825 1.582 5.78 2.543 1.361 7.742 1.631 11.058.574 5.39-1.717 7.316-5.737 12.543-26.184 4.712-18.429 5.321-20.795 6.004-23.334.222-.825.672-2.625 1-4 1.087-4.557 1.522-6.212 3.284-12.5.617-2.2 1.353-5.125 1.636-6.5.525-2.552 7.151-27.875 8.242-31.5.752-2.497.964-11.487.319-13.5-.604-1.884-3.42-4.49-7.733-7.155-6.054-3.742-3.944-4.324 16.846-4.643 15.302-.235 20.17.012 22.918 1.162 9.366 3.92 12.543 11.232 9.62 22.136-.294 1.1-.782 3.013-1.084 4.25-.301 1.238-.795 3.263-1.096 4.5-.302 1.238-.775 3.15-1.051 4.25-.277 1.1-.72 3.048-.986 4.327-1.407 6.79-4.33 18.228-4.89 19.134-1.062 1.718.384 1.193 4.795-1.741 8.352-5.556 13.921-7.202 22.955-6.785 13.714.633 26.404 11.509 27.038 23.173.177 3.261.34 3.407 3.13 2.795 1.619-.356 3.554-1.257 4.3-2.002.746-.746 1.908-1.704 2.583-2.128.676-.425 2.784-2.798 4.687-5.273 4.87-6.336 5.322-6.745 11.721-10.598 9.338-5.623 15.592-6.902 33.766-6.902 15.334 0 21.388.752 29.217 3.628 7.428 2.73 11.833 6.054 14.152 10.68 2.368 4.727 2.112 7.12-2.914 27.192-2.273 9.075-4.295 17.175-4.495 18-1.158 4.779-1.52 6.22-2.072 8.25-1.892 6.955.766 11.689 6.287 11.199 1.554-.137 3.377-.295 4.052-.349 1.524-.124 4.168-4.058 4.855-7.225 1.066-4.919 1.35-6.084 1.918-7.875.321-1.012.79-2.776 1.042-3.92s.661-2.867.91-3.83c.248-.962.698-2.762 1-4 .301-1.237.795-3.262 1.096-4.5.302-1.237.73-2.925.952-3.75s.629-2.4.904-3.5l2-8c1.143-4.573 2.157-8.828 2.62-11 .931-4.367-3.528-9.274-11.387-12.531-3.97-1.645-5.637-2.883-5.637-4.182 0-1.747 1.308-1.841 24.277-1.752 25.868.1 28.658.557 33.079 5.423 2.279 2.509 3.854 6.393 3.092 7.626-1.036 1.677.484.947 3.285-1.577 5.921-5.334 8.817-7.504 10.017-7.505.688-.001 1.25-.478 1.25-1.061 0-.582.45-.78 1-.441.55.34 1 .067 1-.607s.296-.93.658-.568 1.149.277 1.75-.189c2.237-1.735 11.187-3.251 18.027-3.054 5.213.15 8.357.849 11.994 2.668 5.954 2.978 6.785 3.765 9.305 8.813 1.916 3.836 2.377 11.861.973 16.937-.304 1.1-1.737 6.275-3.184 11.5s-2.852 10.625-3.121 12-.932 4.075-1.472 6c-.541 1.925-1.25 6.069-1.576 9.208-.56 5.386-.423 5.877 2.449 8.75 2.891 2.89 3.435 3.039 10.87 2.964 4.305-.044 7.255-.31 6.556-.591-1.862-.749-4.481-6.28-4.97-10.497-.235-2.021.547-7.181 1.743-11.5 1.194-4.308 2.356-8.621 2.584-9.584.228-.962.617-2.537.866-3.5.248-.962.72-2.875 1.048-4.25s.8-3.287 1.048-4.25c.249-.962.655-2.537.904-3.5.248-.962.664-2.718.924-3.902.95-4.334 4.407-9.782 9.607-15.142 5.12-5.278 18.515-11.266 28.903-12.922 9.437-1.504 30.224-.877 41.45 1.249 7.817 1.481 18.788 9.439 19.635 14.243 1.174 6.661.106 18.325-2.378 25.974l-2.68 8.25h-28.397c-17.782 0-28.628.373-29.014.997-.338.548-.836 2.01-1.107 3.25-.27 1.239-.695 3.041-.943 4.003-3.179 12.312-3.468 15.282-1.731 17.763 1.336 1.907 2.232 2.15 6.429 1.747 5.208-.5 6.122-1.237 16.846-13.583 2.474-2.847 5.061-5.177 5.751-5.177.689 0 1.253-.375 1.253-.833 0-1.304.716-1.348 33.048-2.026l30.547-.641 2.453-2.593c1.348-1.426 7.402-7.632 13.452-13.79l11-11.196-11 .16c-6.844.1-12.854.756-15.906 1.736-5.728 1.838-12.44 7.828-15.409 13.75-2.69 5.367-4.994 7.347-6.246 5.369-1.346-2.127-1.181-3.523 1.641-13.936 1.416-5.225 2.729-10.234 2.917-11.133 1.318-6.274 8.708-15.4 15.117-18.67 3.99-2.035 5.663-2.109 55.75-2.471 28.4-.204 51.636-.087 51.636.26 0 .348-15.187 15.797-33.75 34.333l-33.75 33.7 16-.273c14.838-.253 16.4-.461 21.5-2.867 6.171-2.912 10.782-6.989 14.419-12.75 2.791-4.422 7.432-15.068 7.897-18.118.42-2.753 2.225-4.401 4.051-3.7 1.467.563 1.506 2.382.185 8.649-.285 1.353-.788 4.269-1.117 6.479-.33 2.211-.764 4.285-.965 4.61s-.662 2.809-1.025 5.521-.83 5.215-1.039 5.564c-.209.348-.647 2.318-.975 4.377-1.083 6.819-1.351 7.723-3.504 11.855-2.567 4.925-5.639 7.902-11.243 10.898-4.143 2.214-4.663 2.239-52.684 2.53-26.675.162-53 .162-58.5 0l-10-.294 26-25.473-8.3-.013c-10.433-.017-12.582 1.065-19.617 9.883-3.021 3.786-7.2 8.296-9.288 10.022-7.32 6.054-7.651 6.081-73.327 6.081-43.171 0-60.609-.325-63.069-1.177-5.565-1.927-9.374-6.87-9.109-11.823.091-1.711 1.533-8.625 2.71-13 .662-2.46 1.569-6.336 2.107-9 .277-1.375 1.604-6.856 2.949-12.181 1.344-5.324 2.444-10.737 2.444-12.027 0-6.003-6.933-9.429-12.869-6.359-4.916 2.542-5.558 3.982-10.714 24.067-.282 1.1-.717 2.788-.965 3.75-.249.963-.658 2.686-.91 3.83s-.721 2.908-1.042 3.92c-.321 1.013-.743 2.666-.937 3.674-1.851 9.613-4.55 15.578-8.877 19.62-6.489 6.062-6.779 6.102-47.187 6.488l-37.001.355-3.499-2.338c-1.924-1.286-4.187-3.705-5.028-5.376l-1.529-3.038-2.803 2.647c-1.543 1.455-5.335 4.181-8.428 6.057-5.264 3.194-6.273 3.433-15.798 3.749-11.073.368-13.303-.274-19.068-5.485-5.73-5.18-7.78-12.15-6.134-20.853.751-3.972 2.886-8.5 4.009-8.5.494 0 .673-.363.399-.807-.275-.444.673-1.682 2.106-2.75s3.174-2.505 3.869-3.193c.695-.687 1.745-1.25 2.335-1.25.589 0 1.071-.339 1.071-.755 0-.805 10.27-5.026 13.956-5.736 1.212-.233 2.955-.651 3.874-.927.919-.277 2.795-.7 4.17-.94 12.155-2.127 18.651-4.375 23.645-8.185 6.686-5.099 8.299-13.501 2.855-14.867-3.071-.771-6.769 1.031-12.055 5.874-5.557 5.091-11.372 9.024-15.344 10.378-1.976.673-9.617 1.158-18.25 1.158-13.448 0-14.858.166-14.927 1.75-.043.963-.217 2.425-.388 3.25s-.56 2.85-.865 4.5c-.304 1.65-.826 4.125-1.16 5.5s-.769 3.175-.966 4c-2.262 9.459-8.486 20.158-15.998 27.5-8.446 8.255-12.216 9.794-25.047 10.223-10.067.336-11.442.157-16.213-2.114zm102.886-16.534c2.143-.237 7.348-6.164 9.964-11.346 2.966-5.875 3.445-7.268 4.5-13.088l.518-2.86-3.328 2.475c-1.83 1.361-6.566 4.154-10.525 6.206-7.761 4.024-10.712 7.308-10.816 12.038-.083 3.766 3.659 7.651 6.802 7.063 1.217-.228 2.515-.447 2.885-.488zm-96.955-7.313c4.227-4.458 7.89-11.554 9.426-18.262 1.365-5.958 1.548-7.459 1.521-12.5-.045-8.629-1.679-12.588-5.601-13.573-8.935-2.242-20.702 18.687-20.138 35.818.299 9.087.711 10.638 3.402 12.817 3.102 2.512 5.952 1.436 11.39-4.3zm352.331-38.512c1.319-8.07 1.222-9.478-.789-11.49-1.52-1.519-2.721-1.802-5.47-1.286-5.913 1.109-9.107 5.526-10.688 14.776l-.47 2.75h16.641z" fill-rule="nonzero" transform="matrix(.533213 0 0 .533213 93.6702 153.314)"/></svg>