<svg clip-rule="evenodd" fill-rule="evenodd" stroke-linejoin="round" stroke-miterlimit="1.41421" viewBox="0 0 560 400" xmlns="http://www.w3.org/2000/svg"><g fill-rule="nonzero" transform="matrix(2 0 0 2 29.9 155.741)"><path d="m194.52 22.77c-.85.01-1.67-.24-2.36-.73l-1.29 1.22c.48.61.75 1.35.77 2.12 0 2.13-1.73 3.86-3.86 3.86s-3.86-1.73-3.86-3.86c-.01-.76.24-1.51.69-2.12l-1.29-1.22c-.67.44-1.44.7-2.24.73-1.02.02-2-.36-2.73-1.07-.72-.74-1.13-1.74-1.13-2.77 0-2.13 1.73-3.86 3.86-3.86.84.02 1.66.31 2.32.83l1.29-1.24c-.46-.68-.7-1.49-.69-2.31 0-2.13 1.73-3.86 3.86-3.86 1.03-.01 2.02.4 2.75 1.13.71.72 1.11 1.7 1.1 2.72-.02.83-.29 1.64-.77 2.31l1.29 1.24c.66-.56 1.5-.85 2.36-.81 2.12-.21 4.01 1.33 4.23 3.46s-1.33 4.01-3.46 4.23c-.26.03-.51.03-.77 0m51.48-8.57h-40.24c-.63-1.2-1.48-2.26-2.52-3.13-1.56-1.35-3.64-1.92-5.66-1.56l-.35.08.04-.37c.24-2.1-.46-4.2-1.93-5.73-3.71-4.2-10.12-4.6-14.32-.89-.31.28-.61.57-.89.89-1.4 1.56-2.08 3.64-1.89 5.73l.06.37-.36-.08c-2.07-.35-4.18.22-5.79 1.56-4.26 3.55-4.84 9.89-1.29 14.15.39.47.82.9 1.29 1.29 1.61 1.35 3.72 1.92 5.79 1.56l.36-.07-.05.37c-.19 2.09.49 4.16 1.89 5.73 3.71 4.2 10.13 4.59 14.33.88.31-.27.6-.57.88-.88 1.47-1.52 2.17-3.62 1.93-5.73l-.05-.37.36.07c2.02.36 4.1-.22 5.66-1.56 1.25-1.16 2.2-2.6 2.77-4.21h20.51c1.16-.06 2.16.83 2.22 1.99v.09c0 1.21-.99 2.18-2.19 2.18h-.03-1.87v10.94h8.16v-8.73c0-1.2.97-2.17 2.17-2.18h.05c1.25-.04 2.31.92 2.39 2.17v8.78h8.07v-10.93h-1.8c-1.2.03-2.19-.91-2.23-2.11v-.05c.01-1.17.97-2.12 2.14-2.11h2.32c2.22.01 4.04-1.78 4.05-4.01v-.02c0-2.24-1.81-4.06-4.05-4.07" fill="#c00"/><path d="m16.55 9.41-9.22 10.73v-10.73h-7.28v27.97h7.28v-8.62l2.98-3.13 7.52 11.75h9.05l-11.63-16.96 10.34-11.01zm22.55 15.71c-.12-2.27-1.73-4.16-3.96-4.16-2.35 0-3.92 1.69-4.31 4.15zm-8.26 3.72c.12 2.79 1.72 4.62 4.55 4.62 1.6.09 3.1-.79 3.8-2.23h6.23c-1.21 4.73-5.56 6.74-10.1 6.74-6.62 0-11.12-4-11.12-10.81 0-6.23 4.97-10.69 10.97-10.69 7.29 0 10.94 5.48 10.62 12.38zm18.96 15.36h-3.13v-5.4h2.28c1.52 0 2.66-.86 2.66-2.27 0-1.09-1.29-4.23-1.69-5.33l-5.25-14.15h7.08l3.86 13.24h.08l3.86-13.24h6.77l-8.02 22.13c-1.62 4.5-3.99 5.02-8.5 5.02zm37.16-22.13c2.22-1.01 3.66-3.21 3.69-5.64 0-5.84-5.29-7.09-10.11-7.01h-13.09v27.98h13.43c6 0 10.89-2.04 10.89-8.7.12-3.06-1.87-5.8-4.81-6.63zm-12.22-7.02h5.64c1.53 0 2.98.68 2.98 2.7s-1.72 2.66-2.98 2.66h-5.64zm5.84 16.49h-5.84v-6.42h5.84c2.19 0 3.92.82 3.92 3.29 0 2.31-1.61 3.13-3.92 3.13zm26.44 3.92c.05.66.18 1.31.39 1.93h6.65c-.78-1.61-.78-3.49-.78-5.21v-8.91c0-5.76-4.66-6.81-9.48-6.81-2.23-.07-4.44.41-6.43 1.41-1.96 1.11-3.17 3.19-3.17 5.44l.01.01h6.23c.32-1.75 1.49-2.57 3.33-2.57 1.38 0 3.22.59 3.22 2.12 0 1.24-.62 1.64-1.76 1.88-4.63.97-11.83.46-11.83 7.08 0 4.22 3.08 6.15 6.94 6.15 2.42-.02 4.96-.72 6.68-2.52zm-4.24-6.5c1.45-.39 3.18-.51 4.12-1.09.16 4.19-.9 6-4.07 6l-.01-.02c-1.49 0-2.78-.71-2.78-2.31s1.29-2.19 2.74-2.58zm34.04-4.62v13.05h-6.63v-9.84c0-2.79.31-5.6-3.33-5.6-2.51 0-3.6 2.12-3.6 4.35v11.09h-6.66v-20.34h6.43v2.79h.08c1.22-2.08 3.96-3.37 6.38-3.37 6.78-.01 7.33 4.93 7.33 7.87zm9.97 13.04h-6.66v-27.97h6.66v14.42l6.07-6.78h7.71l-7.44 7.68 8.39 12.65h-8.04l-4.97-8.18-1.72 1.68z"/></g></svg>