<svg clip-rule="evenodd" fill-rule="evenodd" stroke-linejoin="round" stroke-miterlimit="1.41421" viewBox="0 0 560 400" xmlns="http://www.w3.org/2000/svg"><g fill-rule="nonzero" transform="matrix(3.11086 0 0 -3.11086 -1257.43 1572.18)"><path d="m542.24 421.28v1.348c0 2.264-.685 3.844-.685 3.844v2.55c0 3.164 1.232 4.676 3.566 6.668l5.873 4.657h-12.559v10.143c4.012.966 8.229 5.579 8.229 10.106 0 5.129-3.579 7.54-4.339 7.764 0 0-1.31 1.98-3.958 1.98-3.449 0-4.048-3.143-4.144-3.903-.811.351-1.713.556-2.699.589h-94.138c4.945-2.992 11.26-6.458 11.26-9.397v-.986c-.517-1.907-7.358-3.409-7.358-3.409 4.431-2.028 7.359-3.032 7.359-4.956v-1.276c0-3.143-5.661-6.285-9.861-9.145-1.749-1.395-2.458-3.477-2.432-5.748v-11.636c0-4.239 3.054-8.627 8.163-8.627h107.56c-5.95 3.998-9.834 6.651-9.834 9.434" fill="#d11c2e"/><g transform="matrix(.8 0 0 -.8 435.5 471.37)"><path d="m128.67 3.303c-3.78 0-3.131 4.031-3.131 4.031-.87.731-.963 2.426-.963 2.426-.955-1.121-2.405-1.911-4.627-1.989l-6.207-.002v2.856c-1.649-1.91-3.904-2.934-6.554-2.934h-97.67c5.351 3.525 8.925 5.535 8.925 8.805v1.816c0 2.894-3.454 3.631-6.777 4.549 3.701 1.464 6.785 2.395 6.785 5.545v1.807c0 4.204-3.207 5.991-6.812 8.586h19.389v-2.852c.893 1.76 2.564 2.852 4.592 2.852h17.205s.473-2.881.5-3.051h.732c.027.174.508 3.051.508 3.051h12.988l-.375-1.827c1.236 1.148 2.854 1.827 4.679 1.827h42.031v-2.153c.017.032 1.022 2.153 1.022 2.153h11.494v-14.623s.263.064.471.064c4.64 0 9.884-5.544 9.884-11.24 0-5.695-4.38-7.515-4.38-7.515s-1.424-2.182-3.709-2.182zm-117.41 37.736c-2.243 0-4.275.806-5.719 2.271-1.459 1.474-2.242 3.509-2.215 5.739v14.572c0 4.19 2.968 8.525 7.942 8.525h24.512s.491-2.873.519-3.051h.741c.03.171.511 3.051.511 3.051h19.141c3.164 0 6.025-1.975 7.223-4.631 1.319 2.851 4.028 4.631 7.439 4.631h6.696c2.299 0 4.507-.899 6.06-2.465.267-.274.506-.565.729-.867v3.332h12.658v-1.973c.011.02.994 1.973.994 1.973h40.984c-6.989-4.483-8.068-5.888-8.068-9.654v-1.604c-.019-2.54-.768-4.764-2.008-6.529h1.152v-4.35s-.087-1.595 1.174-3.058c1.262-1.463 3.54-3.841 6.275-5.911l-33.947-.002c-1.831 0-3.436.638-4.632 1.85-.509.513-.897 1.138-1.219 1.813-.295-.589-1.844-3.663-1.844-3.663h-15.199c-2.019 0-4.28.64-5.773 2.95v-2.95h-64.125z" fill="#0a0203"/><path d="m15.002 9.494s5.252 2.715 5.252 7.174v2.232c0 3.267-3.855 4.18-3.855 4.18s3.855 1.6 3.855 4.33v3.213c0 3.215-1.161 4.305-1.174 4.315l-2.24 2.056h12.385v-8.902h1.473c.157.04.712.248.822 1.439.006.084.664 4.116.664 4.116.263 2.022 1.616 3.347 3.44 3.347h5.738l-1.377-9.299c-.064-1.538-.815-2.785-2.041-3.679 1.011-.795 1.977-2.02 2.043-3.955 0 0-.017-5.071-.016-5.225 0-1.19-.508-2.436-1.42-3.393-1.197-1.263-2.996-1.953-5.052-1.948h-18.498zm26.07 0 3.565 2.166c2.045 1.24 1.428 4.292 1.418 4.32.005-.01-.899 3.955-.899 3.955-.575 2.204-2.068 3.031-2.133 3.065l-1.701.912 1.606 1.1c.12.08 1.192.853.919 2.402l-1.767 9.58h9.217s.356-2.146.504-3.049h3.785c.15.903.512 3.049.512 3.049h9.25l-4.227-20.709c-.91-4.505-3.574-6.791-7.914-6.791zm19.334 0 3.943 2.188c1.485.827 2.149 2.558 2.149 5.613v2.719c.015 1.556-1.194 2.027-1.326 2.076l-2.383.84 2.172 1.277c.015.009 1.552.941 1.537 2.158v4.531c0 3.032 1.839 6.098 5.363 6.098h8.805c3.595-.03 5.984-2.978 5.953-7.332v-9.377h-10.262v7.076h1.674v1.565c0 .256-.053.377-.073.398-.023.018-.133.062-.38.057l-1.774-.002c-.159.005-.222-.02-.236-.025-.019-.022-.09-.149-.094-.448v-11.836h2.471c.105 0 .171.009.224.016.01.09.018.18.018.31l-.018 1.702 8.137-.006v-3.285c0-4.203-2.397-6.268-7.328-6.313zm23.898 0 3.946 2.188c1.708.952 2.101 3.157 2.072 4.189l-.002 4.143c-.023 1.32-1.119 2.068-1.164 2.098l-1.424.949 1.399.994c.049.031 1.191.851 1.189 2.43v4.139c0 3.16-2.013 4.468-2.013 4.468l-2.829 1.903h26.616v-8.369c1.713 3.622 3.963 8.369 3.963 8.369h8.546v-19.738c.012-2.993.027-7.519-4.714-7.682h-4.34v8.143c-.991-2.052-1.986-4.118-1.986-4.118-1.328-2.688-3.528-4.105-6.372-4.105h-9.976l3.816 2.182c1.43.817 2.091 2.159 2.086 4.224v4.084c-.007 1.456-1.156 2.301-1.201 2.336l-1.299.93 1.281.967c.014.01 1.222.923 1.219 2.343v4.063c-.007.937-.257 2.758-1.9 4.373l-1.996 1.961v-22.098c0-2.636 0-5.365-5.327-5.365h-9.589zm-55.156 7.772h1.93s.072.008.142.017c.01.106.018.229.018.229s.004 2.591.004 2.701h-2.094zm24.543 5.293c.311 1.87.51 3.059.637 3.82h-1.272c.128-.761.325-1.95.635-3.82zm-42.427 20.283c-1.785 0-3.316.598-4.437 1.734-1.115 1.128-1.718 2.71-1.698 4.451v14.594c0 3.303 2.298 6.721 6.143 6.721h22.99s.366-2.145.517-3.047h3.795c.15.903.506 3.047.506 3.047h9.238l-.679-3.311c.805 1.755 2.199 3.311 4.422 3.311h4.634c3.442 0 6.018-2.909 6.018-5.512 0-.007.008-4.922.008-4.922 0-1.015 1.217-2.137 1.644-2.451l.477-.35v6.44c.061 3.285 2.127 6.795 6.516 6.795h6.695c1.82 0 3.565-.705 4.777-1.93 1.075-1.089 1.664-2.493 1.664-3.961 0-.02.006-4.543.006-4.543.004-1.015 1.224-2.137 1.649-2.451l.498-.365v13.25h9.052v-7.74c1.69 3.35 3.908 7.74 3.908 7.74h11.094l-1.558-1.906c-.88-1.073-1.004-2.782-1.008-4.469v-3.631c-.005-1.535 1.327-2.865 1.342-2.879l.853-.842-.863-.838c-.014-.015-1.331-1.296-1.332-2.873l-.004-3.898c-.016-1.811.072-3.257 1.274-4.008l3.459-2.156h-8.807c-1.339 0-2.5.453-3.35 1.314-1.015 1.028-1.55 2.569-1.55 4.459v1.981c-1.69-3.355-3.907-7.754-3.907-7.754h-3.853c-4.805.165-4.77 4.925-4.75 7.77v5.3l-.531-.361c-.418-.287-1.608-1.309-1.608-2.219l-.004-3.543c0-.16-.007-.344-.017-.525h.007l.004-.08h-.004v-.018c0-.896.256-3.369 1.442-4.201l3.039-2.123h-7.813c-5.433 0-5.56 5.65-5.605 7.777v11.693c-.003.2-.019.323-.035.414h-1.904c-.01-.086-.028-.189-.032-.369v-19.516h-4.019c-1.174 0-2.223.433-3.035 1.248-1.115 1.121-1.704 2.901-1.69 5.145v6.664l-.508-.348c-.416-.287-1.611-1.309-1.611-2.219l-.002-3.543c0-.16-.005-.344-.02-.523h.012v-.076h-.004v-.051c0-.909.245-3.332 1.408-4.193l2.817-2.104h-7.551c-5.441 0-5.562 5.65-5.607 7.777v9.998c-.02 1.979-.054 1.979-.83 1.979h-6.217l-.5-2.43c-.284-1.607 1.372-2.814 1.39-2.828l1.993-1.435-2.379-.643c-.078-.02-1.768-.502-2.313-2.565-.025-.143-.596-3.324-.596-3.324-.021-.126-.509-3.177 2.11-4.287l5.252-2.242h-14.518c-4.434 0-6.877 2.087-7.91 6.769-.007.014-2.484 12.095-3.653 17.805-.868-1.05-.874-1.832-.859-2.832l.002-5.822h-8.703v3.965h-1.154c-.555-.001-.694-.102-.696-.105-.015-.02-.148-.203-.125-1.2v-9.631c0-1.09.141-1.344.172-1.384.016-.01.128-.06.526-.063h1.277v2.947h8.392v-4.341c-.021-1.123.394-2.136 2.577-4.069l2.308-2.039h-18.059zm106.36 0c-2.48-.04-4.416.602-5.742 1.908-1.195 1.179-1.827 2.867-1.817 4.885v2.117c-.005 2.25.776 4.222 2.254 5.705 1.558 1.554 3.744 2.408 6.157 2.4h1.656c.308-.002.45.06.486.094.034.035.09.169.09.451v1.235c0 .71-.08.899-.104.941-.013.008-.13.07-.531.074h-.879v-2.451h-8.627v4.727c-.016 1.558.492 2.944 1.43 3.894 1.002 1.01 2.428 1.52 4.244 1.52h17.762l-2.49-2.063c-.571-.477-1.906-1.831-1.906-4.146v-3.246c-.029-3.567-1.913-7.121-5.444-8.331h4.59v-2.605c0-3.124 2.145-4.944 4.404-7.109z" fill="#ce181e"/><path d="m128.8 5.34c-.612.03-1.007.234-1.232.625-.408 1.079.519 1.651.634 1.908-.545.266-1.186.72-1.463 1.557-.16.496-.147 1.005.018 1.57-.122.864-.041 1.901.428 3.301h.004c.004.018.011.035.017.056.235.693.782 2.213-1.283 4.969-1.392 1.52-.253 4.119 2.992 2.309 6.504-3.354 7.097-9.974 4.487-12.889-.205-.343-.764-1.411-2.184-1.465-1.382-1.998-2.083-1.953-2.418-1.941zm-63.886 5.32c2.386 1.325 2.75 4.185 2.75 6.633v2.723c.025 2.491-2.119 3.179-2.119 3.179s2.144 1.221 2.119 3.184v4.517c0 2.483 1.438 4.932 4.195 4.932h8.807c2.837-.026 4.809-2.343 4.785-6.16v-8.213h-7.93v4.74h1.676v2.731c-.002 1.006-.476 1.642-1.642 1.621h-1.75c-1.115.021-1.485-.775-1.496-1.621v-13.021h3.636c1.555-.007 1.411.925 1.405 2.019h5.791v-2.117c0-2.158-.513-5.093-6.17-5.147zm-46.35.002c2.806 1.745 2.856 5.32 2.856 5.32v4.075c-.058 2.333-2.123 3.111-2.123 3.111s2.101.989 2.123 3.324v4.131c0 3.94-1.588 5.205-1.588 5.205h8.23v-8.902h2.764s1.641.167 1.853 2.502l.657 4.033c.192 1.484 1.043 2.367 2.287 2.367h4.386l-1.191-8.084c-.079-1.904-1.36-3.106-3.301-3.648 1.551-.702 3.222-1.748 3.301-4.074l-.02-4.952c.119-2.14-1.766-4.42-5.294-4.408h-14.939zm70.248 0c2.324 1.289 2.709 4.102 2.674 5.242v4.11c-.034 2.015-1.694 3.076-1.694 3.076s1.694 1.132 1.694 3.394v4.141c-.034 2.65-1.242 4.602-2.442 5.203h9.008v-20.969c0-2.69-.001-4.197-4.16-4.197zm12.799 0c2.328 1.33 2.681 3.622 2.676 5.242v4.078c-.013 2.124-1.701 3.293-1.701 3.293s1.706 1.217 1.701 3.287v4.061c-.013 1.691-.633 3.611-2.252 5.205h8.889v-12.393l5.875 12.393h6.634v-18.572c.014-3.316-.048-6.393-3.582-6.516h-3.136v12.078l-4.203-8.712c-1.333-2.694-3.358-3.444-5.323-3.444zm-56.367.002c2.805 1.703 1.953 5.566 1.953 5.566l-.901 3.962c-.732 2.829-2.73 3.84-2.73 3.84s1.855 1.18 1.427 3.584l-1.509 8.213h6.822l.508-3.051h5.763l.51 3.051h6.83l-3.937-19.311c-.752-3.707-2.731-5.853-6.772-5.853h-7.963zm8.447 4.772 2.014 12.111h-4.025zm-25.708.662s1.808-.011 3.106 0c1.3.013 1.3.812 1.322 1.41v2.761s.006 1.122-1.107 1.11c-1.115-.013-3.321 0-3.321 0zm-16.719 27.91c-3.107 0-5 2.181-4.966 5.003v14.609c0 2.68 1.789 5.555 4.974 5.555h14.432c-2.417-2.124-2.11-3.539-2.123-5.094v-4.152h-6.367v3.965h-2.32c-1.662-.008-2.034-.7-1.989-2.502v-9.547c-.007-2.191.488-2.652 1.848-2.672h2.461v2.951h6.055v-3.176c-.032-1.658.749-2.972 2.97-4.941h-14.975zm25.902 0c-4.103 0-5.897 1.919-6.771 5.855l-3.955 19.312h6.838l.521-3.049h5.764l.506 3.049h6.82l-1.805-8.777c-.421-2.405 1.86-4.01 1.86-4.01s-2.425-.59-3.157-3.412l-.611-3.399s-.741-4.066 2.803-5.57h-8.813zm22.217.002c-3.405 0-4.359 2.675-4.443 6.632v9.975c-.018 1.906-.018 3.146-1.994 3.146h-5.024s.635 5.413 4.139 5.413h4.635c2.687 0 4.85-2.249 4.85-4.346l.007-4.922c.002-1.855 2.125-3.395 2.125-3.395s-2.125-1.431-2.125-3.181c0 0 .005-5.008-.007-4.082 0 0-.092-3.775 1.873-5.24zm10.182 0c-1.99 0-3.573 1.681-3.55 5.218v14.32c.047 2.832 1.733 5.627 5.345 5.627h6.694c2.97 0 5.304-2.159 5.275-4.769l.008-4.498c.006-1.855 2.125-3.395 2.125-3.395s-2.119-1.431-2.119-3.181c0 0 0-5.009-.014-4.082 0 0-.072-3.833 1.94-5.24h-4.106c-3.401 0-4.353 2.675-4.441 6.632v11.67c-.014 1.412-.517 1.576-1.147 1.582h-2.072c-.718-.006-1.053-.306-1.082-1.509v-18.375zm21.83 0c-3.533.121-3.604 3.453-3.582 6.593v18.572h6.717v-11.477l5.795 11.477h7.914c-1.167-1.425-1.268-3.513-1.273-5.203v-3.638c-.01-2.069 1.693-3.713 1.693-3.713s-1.688-1.591-1.693-3.711v-3.658c-.01-1.62-.126-4.028 1.824-5.243h-4.734c-2.587 0-3.76 2.044-3.731 4.709v6.791l-5.795-11.5h-3.135zm26.23 0c-4.581-.074-6.402 2.384-6.392 5.617v2.125c-.01 4.264 3.243 6.948 7.244 6.935h1.658c.989-.01 1.765.436 1.74 1.781v1.116c.009 1.483-.255 2.225-1.797 2.234h-2.047v-2.451h-6.296v3.56c-.015 1.837.812 4.248 4.507 4.248h14.525c-1.281-1.065-2.326-2.829-2.326-5.043v-3.246c-.031-4.025-2.529-7.631-6.91-7.631h-1.947c-1.204-.012-1.769-.907-1.764-1.687v-.813c.031-1.221.406-1.584 1.836-1.584h2.219v2.217h5.711v-2.66c-.025-1.308.748-3.394 2.968-4.719h-12.93zm-80.945 4.773 2.014 12.109h-4.025z" fill="#fff"/></g><path d="m538.18 454.77c-1.368-.825-1.795-.096-1.272.615 1.952 2.609 1.329 4.166 1.129 4.763-.364 1.1-.406 1.896-.273 2.478-.576 1.54 1.167 1.869 1.167 1.869.186.861-.638 1.604-.638 1.604s-.092.16.347.183c.448-.012 1.423-1.551 1.423-1.551.804.101 1.266-.353 1.533-.855.437-.348.696-.874.856-1.452.818-4.435-2.975-6.853-4.272-7.654" fill="#ce181e"/><path d="m128.92 6.361c-.549.028-.432.227-.432.227s1.031.929.797 2.006c0 0-2.18.413-1.459 2.338.133.347.348.741.703 1.199 0 0-.324-1.944.981-2.133 0 0 .947.579 1.142 2.07 0 0 .887-1.396.219-2.445 0 0 1.105-.642 2.188 1.186 0 0-.072-.757-.444-1.442-.331-.625-.912-1.194-1.916-1.068 0 0-1.219-1.923-1.779-1.938zm3.234 4.643c1.012 4.752-3.695 8.9-3.701 8.902 4.541-3.197 4.798-6.828 4.508-7.637 0 0-.112-.955-.807-1.265zm-12.5 39.338c-.406 0-.561.029-.634.053-.017.065-.031.164-.036.363v.82c0 .121.044.507.598.508h1.127v-1.744zm-82.975 5.562c-.313 1.873-.508 3.059-.638 3.823h1.273c-.129-.764-.323-1.95-.635-3.823z" fill="#0a0203" transform="matrix(.8 0 0 -.8 435.5 471.37)"/></g></svg>