<svg clip-rule="evenodd" fill-rule="evenodd" stroke-linejoin="round" stroke-miterlimit="1.41421" viewBox="0 0 560 400" xmlns="http://www.w3.org/2000/svg"><g fill="#129960" fill-rule="nonzero" transform="matrix(1.36986 0 0 1.36986 30 155.368)"><path d="m54.731 50.317c-2.289 0-4.005-1.907-4.005-4.005 0-2.288 1.907-4.005 4.005-4.005 2.288 0 4.004 1.907 4.004 4.005s-1.716 4.005-4.004 4.005zm-9.536 0c-2.288 0-4.004-1.907-4.004-4.005 0-2.288 1.907-4.005 4.004-4.005 2.289 0 4.005 1.907 4.005 4.005s-1.716 4.005-4.005 4.005zm-9.534 0c-2.289 0-4.005-1.907-4.005-4.005 0-2.288 1.907-4.005 4.005-4.005 2.288 0 4.004 1.907 4.004 4.005.191 2.098-1.716 4.005-4.004 4.005zm.762-49.964v33.373c0 1.525-1.144 2.67-2.67 2.67h-4.004c-.191 0-.382.19-.382.381v28.033c.954 0 1.907.19 3.051.19 17.926 0 32.419-14.493 32.419-32.418 0-16.591-12.395-30.322-28.414-32.229z"/><path d="m26.126 26.86c-2.289 0-4.005-1.906-4.005-4.004 0-2.289 1.907-4.005 4.005-4.005 2.288 0 4.004 1.907 4.004 4.005s-1.716 4.004-4.004 4.004zm6.292-26.697c-17.925 0-32.418 14.493-32.418 32.419 0 15.637 10.87 28.605 25.553 31.656v-29.177c0-1.335 1.145-2.479 2.479-2.67h4.005c.191 0 .381-.191.381-.382z"/><path d="m209.579 36.967 4.958-11.823c.192-.381.382-.381.572-.381.192 0 .573 0 .573.381l4.958 11.823zm12.396-15.446c-1.335-2.86-4.005-4.386-6.674-4.386-2.67 0-5.34 1.526-6.675 4.386l-13.158 28.796h8.581l2.86-6.865h16.782l2.861 6.865h8.581z"/><path d="m1291.2 72.983c50.85.001 71.51 22.251 71.51 69.13 0 46.083-20.66 68.333-72.31 69.129h-11.12c-50.86 0-71.51-23.046-71.51-69.129 0-46.879 20.65-69.129 71.51-69.13zm-768.367-23.041c-15.887 0-26.216 8.741-33.37 25.425l-43.7 101.708-43.705-101.708c-7.154-16.684-17.483-25.425-33.375-25.425-15.095 0-30.191 10.329-30.191 33.37v125.542h33.371v-121.566l44.495 100.908c5.567 14.304 15.896 23.046 29.405 23.046 14.304 0 23.837-8.742 29.4-23.046l44.495-100.908v122.366h33.375v-125.546c0-23.041-15.1-34.166-30.2-34.166zm896.297 75.487h68.33v-50.858h33.37v135.083h-33.37v-54.825h-68.33v54.825h-34.17v-135.083h34.17zm-580.051-50.858v28.608h-83.429c-1.587 0-3.179 1.588-3.179 3.179v102.496h-33.375v-114.416c0-10.329 7.949-19.867 19.866-19.867zm274.921-21.45c49.27 0 69.93 25.425 70.73 69.129 0 7.15-.8 13.508-1.6 19.071-5.56 30.987-23.83 50.054-70.71 50.054h-14.3v17.479h-33.38v-17.479h-15.09c-46.89 0-65.163-19.067-70.725-50.054-.792-5.563-1.583-11.921-1.583-19.071 0-43.704 19.858-69.129 69.918-69.129zm-417.946 20.658v28.604h-83.429c-1.592 0-3.179 1.592-3.179 3.179v20.659h84.225v27.808h-84.225v23.842c0 1.587 1.587 3.179 3.179 3.179v-1.592h83.429v28.605h-100.117c-11.125 0-19.862-9.534-19.862-19.867v-94.55c0-10.333 7.945-19.866 19.862-19.867zm594.346 108.859c28.61-.001 38.94-12.713 38.94-40.525 0-27.013-10.33-40.525-38.94-40.525h-11.12c-29.4 0-38.93 13.512-38.93 40.525 0 27.812 11.12 40.525 38.93 40.525zm-177.19-18.275c22.25-.001 30.99-8.742 35.76-22.25 1.59-5.563 1.59-11.917 2.38-19.863 0-28.604-13.5-40.525-32.57-40.525h-20.66v82.638zm-49.26-.796v-81.842h-20.66c-19.07 0-32.58 11.921-32.58 40.525 0 7.15 0 14.3 1.59 19.071 4.77 13.508 12.71 22.246 35.75 22.246z" transform="scale(.24)"/></g></svg>