<svg clip-rule="evenodd" fill-rule="evenodd" stroke-linejoin="round" stroke-miterlimit="1.41421" viewBox="0 0 560 400" xmlns="http://www.w3.org/2000/svg"><g fill-rule="nonzero" transform="matrix(.936102 0 0 -.936102 -262.464 486.445)"><path d="m704.67 363.03h6.678v8.92c-12.236 2.48-19.886 3.348-19.886 3.348-18.792 2.758-35.903 3.255-36.623 3.275l-3.17.086s-1.879-1.578-2.654-2.23c-2.019 2.435-4.112 4.81-6.33 7.028-18.938 18.938-44.115 29.367-70.896 29.367-26.78 0-51.958-10.429-70.896-29.367-10.77-10.77-18.908-23.804-23.839-38.013-.17.252-2.486 3.671-2.486 3.671l-38.249-21.758v-47.113l5.398 3.574v-30.847c-1.487-1.216-5.398-4.415-5.398-4.415v-30.867l18.656-18.517 5.868 5.308c19.323 17.48 34.54 27.008 34.692 27.102-.007-.005 2.308 1.426 2.308 1.426l1.645 1.017v1.457c.478-.478.956-.957.956-.957s3.65 2.172 4.954 2.947c18.326-16.237 41.788-25.172 66.391-25.172 26.781 0 51.959 10.429 70.896 29.366 9.286 9.287 16.497 20.041 21.516 31.966 15.841-1.395 26.089-3.613 26.196-3.637l4.011-.889 28.258 23.66v49.238z" fill="#fff"/><path d="m169.34 4.336c-32.319 0-62.702 12.585-85.555 35.438-15.301 15.302-25.991 33.986-31.391 54.359l-5.922-8.744-42.135 23.967v48.297l6.748-4.467v48.686l-6.748 5.518v34.727l19.123 18.979 4.287-3.879c24.62-22.271 43.796-34.228 43.984-34.346l2.895-1.789v-9.871l6.213 6.214s5.375-3.205 6.021-3.584c22.469 20.974 51.586 32.48 82.479 32.48 32.318 0 62.7-12.586 85.553-35.439 12.015-12.015 21.187-26.114 27.189-41.479 21.87 1.734 36.229 4.851 36.453 4.901l2.934.648 32.131-26.904v-57.92l-33.035-38.598-2.264-.332c-23.329-3.422-44.382-4.024-45.266-4.049l-2.318-.062-5.407 4.543c-3.191-4.136-6.663-8.101-10.418-11.855-22.84-22.856-53.22-35.441-85.54-35.441zm0 35.959c13.388 0 26.302 3.076 37.939 8.889-8.472.853-13.466 1.617-13.912 1.687l-3.988.621-.987 3.914-2.597 10.303-9.53-9.552-2.261-2.266-3.149.572c-19.328 3.514-39.364 9.23-50.154 12.51v-2.775-8.561c13.794-9.656 30.56-15.342 48.639-15.342zm81.99 12.586c.09.012 9.857 10.172 9.857 10.172l3.319-2.787 8.361-7.018s21.31.577 44.549 3.987l30.08 35.146v52.816l-27.641 23.148s-16.535-3.667-41.541-5.352c-7.91-.533-16.672-.867-26.023-.824-5.061.023-10.292.155-15.658.427l-6.473-6.474v6.846s-35.898 2.019-73.691 13.564l-5.683-5.682v7.4s-17.244 5.268-40.248 16.188c-7.245 3.44-15.062 7.442-23.09 12.014-1.875 1.068-3.761 2.165-5.655 3.295l-13.27-13.268v21.199s-19.477 12.039-44.869 35.01l-13.231-13.11v-29.291l6.748-5.519v-62.934l-6.748 4.467v-33.551s17.245-10.736 34.023-19.439l10.734 15.846 6.391 9.433 17.07-41.154s8.565-3.605 18.709-7.373c5.656-2.1 11.804-4.252 17.232-5.857v11.084s29.711-9.792 57.348-14.818l17.129 17.172 5.232-20.738s11.836-1.844 30.951-3.045c7.628-.479 16.412-.857 26.07-.973zm79.623 1.023v.774h1.219v3.228h.961v-3.228h1.219v-.774zm3.883 0v4.002h.873v-3.228h.017l1.161 3.228h.515l1.158-3.228h.02v3.228h.873v-4.002h-1.406l-.904 2.368-.899-2.368zm-92.17 114.55c-3.618 6.128-8.031 11.839-13.193 17.002-16.061 16.06-37.416 24.906-60.127 24.906-17.144 0-33.51-5.041-47.412-14.418 17.814-7.883 30.439-11.796 30.639-11.857l2.166-.66.013.014 3.504-1.07c36.59-11.17 71.9-13.28 72.25-13.3l5.758-.325v-.011l.682-.036c1.924-.097 3.829-.174 5.719-.238z" fill="#231f20" transform="matrix(.8 0 0 -.8 436.32 412.83)"/><path d="m499.24 350.88s6.853 2.884 14.969 5.898c13.272 17.256 34.124 28.381 57.577 28.381 16.876 0 32.407-5.76 44.735-15.42 6.103.384 13.129.686 20.856.779.073-.01 7.887-8.137 7.887-8.137l2.654 2.229c-16.614 24.255-44.513 40.172-76.132 40.172-46.539 0-85.02-34.475-91.314-79.279l5.112-7.547z" fill="#e03a3e"/><path d="m638.15 283.09c-11.302-25.406-36.761-43.124-66.361-43.124-17.948 0-34.372 6.517-47.043 17.308-5.795-2.751-12.048-5.952-18.471-9.609 16.713-16.87 39.892-27.323 65.514-27.323 40.378 0 74.692 25.955 87.18 62.089-6.329.427-13.338.693-20.819.659" fill="#e03a3e"/><path d="m168.14 16.961-7.459.334.105 2.381 2.325-.104.375 8.434 2.812-.125-.377-8.434 2.324-.103zm4.1.066-.545 10.809 6.179.313.12-2.381-3.37-.17.424-8.43-2.808-.14zm-18.859 1.149-3.034.494-2.369 11.352 2.948-.481.433-1.976 3.824-.621.996 1.742 2.961-.482-5.759-10.027zm32.324.062-5.879 9.998 2.945.489 1.045-1.733 3.822.633.387 1.971 2.961.492-2.25-11.346zm11.271 2.205-3.276 10.314 2.684.852 2.004-6.32.029.009 2.904 7.877 2.682.852 3.273-10.314-2.679-.852-2.004 6.309-.028-.01-2.908-7.865-2.681-.851zm-44.574 1.282 1.685 3.214-2.31.377.595-3.588zm34.242.06.027.006.57 3.586-2.308-.383zm-55.064 2.029c-.756.013-1.519.161-2.243.448-2.896 1.146-4.72 4.34-3.515 7.383 1.289 3.257 4.533 4.626 7.763 3.347s4.656-4.499 3.366-7.756c-.903-2.282-3.105-3.46-5.371-3.422zm79.682 1.553-.998 2.164 2.109.975-3.535 7.662 2.556 1.18 3.536-7.664 2.111.974 1-2.162zm-79.73 1.213c1.186.018 2.292.707 2.705 1.748.686 1.734-.092 3.51-1.655 4.129-1.561.619-3.345-.143-4.033-1.879-.55-1.387.23-3.162 1.791-3.781.391-.155.796-.223 1.192-.217zm-12.977 3.533c-.67.031-1.376.263-2.075.657l-3.664 2.064 5.311 9.432 2.451-1.381-2.043-3.627.025-.016 4.358 2.326 3.051-1.719-5.141-2.195c1.205-.991 1.297-2.527.565-3.828-.709-1.258-1.723-1.765-2.838-1.713zm103.01.299-5.348 9.412 2.447 1.389 5.348-9.41zm-103.73 2.34c.418-.017.81.149 1.099.662.578 1.025-.238 1.683-1.039 2.133l-.238.135-1.324-2.352.238-.133c.4-.225.845-.427 1.264-.445zm-8.557 2.363-6.063 4.352 1.389 1.935 1.889-1.357 4.92 6.857 2.285-1.64-4.92-6.856 1.889-1.355zm120.11.918c-.383-.005-.767.026-1.141.098-1.456.278-2.728 1.122-3.576 2.332-.921 1.319-1.282 2.785-.922 4.35.334 1.476 1.181 2.769 2.416 3.632.718.502 1.395.712 2.325 1.012l1.933-2.764c-.886.24-1.894.077-2.646-.449-1.435-1.004-1.693-2.69-.713-4.09.961-1.376 2.671-1.792 4.082-.804.787.551 1.315 1.427 1.342 2.39l1.931-2.763c-.485-.76-1.05-1.403-1.791-1.92-.935-.654-2.09-1.008-3.24-1.024zm-129.29 5.961-4.617 4.071 7.156 8.119 4.619-4.073-1.576-1.787-2.508 2.211-1.234-1.398 2.379-2.098-1.576-1.787-2.379 2.098-1.196-1.358 2.508-2.211zm-9.076 8.356-1.838 2.111 2.834 5.551-5.805-2.141-1.818 2.09 6.957 8.492 1.838-2.111-4.106-4.773.02-.022 6.33 2.219.734-.846-2.994-6.051.02-.019 5.218 3.494 1.846-2.121zm167.05 116.08-2.772 5.502 9.668 4.869 2.77-5.502-2.129-1.07-1.504 2.986-1.666-.84 1.426-2.832-2.127-1.072-1.426 2.834-1.617-.815 1.504-2.986zm-3.688 7.736c-.735.52-1.347 1.119-1.83 1.883-.811 1.287-1.071 2.938-.715 4.418.348 1.44 1.251 2.672 2.502 3.461 1.36.856 2.84 1.144 4.385.709 1.459-.404 2.71-1.311 3.514-2.586.467-.74.643-1.426.898-2.367l-2.853-1.799c.281.872.169 1.888-.322 2.664-.933 1.481-2.604 1.817-4.049.906-1.42-.894-1.918-2.581-1-4.039.512-.814 1.363-1.379 2.324-1.451zm-5.658 8.4-1.771 2.188 5.142 4.166-.019.021-8.387-.16-1.769 2.186 8.41 6.814 1.771-2.187-5.154-4.174.018-.023 8.398.17 1.771-2.188-8.41-6.812zm-8.465 10.047-4.381 4.331 7.61 7.697 4.381-4.33-1.676-1.696-2.379 2.352-1.312-1.326 2.257-2.231-1.675-1.693-2.258 2.228-1.272-1.285 2.379-2.351zm-6.492 7.291c-.865.003-1.754.4-2.584 1.075l-3.264 2.654 6.836 8.396 2.182-1.777-2.629-3.228.023-.018 4.688 1.551 2.717-2.211-5.44-1.291c1.02-1.183.85-2.71-.093-3.867-.73-.896-1.571-1.287-2.436-1.283zm-125.22 1.928-9.906 6.024 2.363 1.826 1.74-1.033 3.067 2.367-.59 1.918 2.375 1.832 3.383-11.059zm124.61.842c.307.012.61.154.889.496.744.913.05 1.699-.662 2.279l-.211.172-1.705-2.092.211-.173c.445-.363.967-.702 1.478-.682zm-7.17 2.344-5.127 3.408 5.99 9.014 5.131-3.411-1.32-1.984-2.785 1.852-1.033-1.553 2.642-1.756-1.32-1.986-2.643 1.756-1-1.506 2.785-1.852zm-118.29.381.024.019-1.196 3.428-1.853-1.43zm7.11 1.091-1.256 2.026 1.976 1.226-4.443 7.174 2.391 1.481 4.443-7.174 1.978 1.225 1.254-2.026-6.343-3.931zm104.13 3.104-5.455 2.978 5.185 9.502 2.469-1.347-2.035-3.731 2.709-1.478-1.143-2.092-2.707 1.479-.867-1.588 2.986-1.631zm-96.377 1.668-4.707 9.746 2.531 1.225 1.93-3.994 3.658 1.765-1.93 3.994 2.533 1.225 4.709-9.746-2.535-1.223-1.816 3.76-3.657-1.768 1.817-3.76zm88.799 2.475-2.604 1.066 2.508 6.125-.027.01-7.278-4.172-2.603 1.064 4.099 10.018 2.604-1.066-2.51-6.137.026-.011 7.281 4.187 2.603-1.066zm-77.768 2.589-3.688 10.174 5.817 2.11.812-2.242-3.172-1.149 2.875-7.933-2.644-.959zm7.355 2.569-2.812 10.449 5.947 1.601.619-2.302-3.23-.868.486-1.802 3.062.824.62-2.301-3.063-.824.469-1.746 3.228.869.621-2.303zm54.539.492c-.57-.011-1.147.055-1.713.201-3.016.778-5.223 3.72-4.404 6.889.875 3.391 3.925 5.156 7.287 4.287 3.365-.868 5.181-3.887 4.305-7.279-.665-2.575-3.003-4.052-5.475-4.098zm-47.051 1.476-.416 2.346 2.289.408-1.476 8.311 2.769.494 1.477-8.31 2.291.406.416-2.346zm35.967.788c-.219.005-.44.022-.664.052-1.51.202-2.943 1.059-3.853 2.281-.883 1.19-1.25 2.672-1.055 4.137.214 1.594.94 2.918 2.264 3.826 1.245.862 2.743 1.239 4.236 1.041.869-.117 1.509-.419 2.396-.828l-.447-3.342c-.491.775-1.343 1.337-2.254 1.459-1.735.232-3.065-.836-3.291-2.529-.221-1.665.756-3.128 2.463-3.355.953-.128 1.934.162 2.606.853l-.448-3.344c-.653-.173-1.294-.266-1.953-.252zm10.662.484c1.416-.075 2.739.831 3.065 2.096.466 1.806-.526 3.471-2.153 3.892-1.626.419-3.301-.557-3.767-2.363-.373-1.446.619-3.109 2.246-3.529.203-.053.407-.085.609-.096zm-37.527.201-1.137 10.764 2.799.295 1.135-10.764zm10.512.41c-1.521-.04-3.073.58-4.164 1.641-1.061 1.035-1.658 2.44-1.697 3.918-.043 1.607.465 3.028 1.629 4.137 1.091 1.047 2.512 1.659 4.019 1.697.875.024 1.553-.172 2.494-.436l.09-3.371c-.606.688-1.538 1.108-2.455 1.084-1.751-.046-2.895-1.312-2.85-3.019.044-1.679 1.241-2.967 2.963-2.922.96.025 1.882.465 2.436 1.254l.088-3.371c-.823-.367-1.649-.588-2.553-.612z" fill="#fff" transform="matrix(.8 0 0 -.8 436.32 412.83)"/><path d="m607.26 330.56 4.773 19.042 4.57-18.226c-3.128-.226-6.241-.501-9.343-.816m-63.314-12.986 5.081 21.363 4.839-18.427c-2.87-.814-6.475-1.876-9.92-2.936m156.55 16.948v15.278l-12.031 14.007c-10.744 1.462-21.639 2.443-32.666 2.922l-12.489-10.479v-44.059c-.258.003-.516.011-.775.013l-9.881 39.573c1.026.021 2.052.039 3.079.052v15.225c-13.943-.167-27.692-1.137-41.204-2.864l-14.63-57.997c-.024-.005-.047-.009-.071-.014l-10.048 38.409c1.025.217 1.919.406 2.947.614v15.522c-13.992-2.714-27.692-6.232-41.204-10.531l-12.252-50.911v39.026c1.753.648 3.513 1.283 5.279 1.904v16.472c-7.675-2.568-15.236-5.386-22.673-8.441l-15.557-37.507-15.557 22.965c-7.717-4.063-15.272-8.393-22.65-12.982v-18.515c1.787 1.182 3.587 2.347 5.398 3.497v-58.343c-1.816-1.438-3.616-2.894-5.398-4.372v-20.31c9.439 8.584 19.458 16.54 29.988 23.81v18.412c-1.446-.927-2.887-1.86-4.316-2.811v28.643l12.535-18.504 12.676 30.563v-25.657c-1.486-.792-2.962-1.6-4.433-2.414v-17.679c14.943 8.874 29.484 16.115 49.308 23.211v16.26c-1.644-.494-3.497-1.216-5.599-1.963l2.247 8.91c5.664 1.869 11.301 3.708 16.471 5.101l1.974-7.408c-1.472-.416-3.049-.87-4.757-1.376v-16.045c16.924 5.333 34.595 9.143 52.67 11.237v15.433c-1.643-.181-3.282-.378-4.917-.584l2.101 7.979c5.161.599 10.361 1.068 15.596 1.41l1.882-7.555c-1.444-.088-2.886-.182-4.326-.291v-15.386c22.741 1.803 47.235.898 71.038-3.149l12.245 10.275v15.002c-6.731 1.317-13.539 2.417-20.418 3.295v-11.824c-5.406.719-10.857 1.293-16.35 1.72v39.749c5.486-.376 10.938-.881 16.35-1.513v-11.872c6.874-.834 13.682-1.881 20.418-3.133" fill="#004fa3"/><g transform="matrix(.8 0 0 -.8 436.32 412.83)"><path d="m247.12 59.406c-15.918.269-31.919 1.394-47.623 3.348l-18.441 73.076 1.186 4.388 18.998-75.449c14.998-1.866 30.675-2.859 45.881-3.189v-2.174zm27.975.41-14.197 11.912v54.125l2.154 2.567v-55.672l12.857-10.789c12.832.592 27.341 1.833 39.992 3.519l-1.822-2.176c-12.861-1.724-25.966-2.895-38.984-3.486zm-106.73 7.936c-15.904 3.182-31.878 7.293-47.543 12.232l-15.82 66.016v9.011l17.635-73.285c14.931-4.707 25.698-7.406 45.703-11.811l.014-2.164zm53.785 3.062-1.18 4.613 7.108 28.352-14.523 1.235-.549 2.185 17.811-1.574-8.666-34.811zm-114.01 2.371c-8.228 2.814-16.464 5.903-24.543 9.203l-20.105 48.469 1.404 2.178 20.354-48.938 22.891-8.656v-2.256zm198.72 5.992v12.889c.718.092 1.437.193 2.154.288v-12.926s-2.07-.242-2.154-.25zm-163.63 4.916-1.074 4.575.826 3.148 6.584 25.078-15.191 4.479-.559 2.353 18.363-5.506zm-100.88 17.627c-8.634 4.593-17.183 9.502-25.461 14.619v17.959c.708-.457 1.426-.921 2.152-1.386v-15.314c9.927-5.766 13.11-7.55 24.496-14.1zm191.18 14.902-2.209.161s2.907 11.667 2.895 11.668l-5.956.4v14.9c.718-.054 1.437-.1 2.155-.148v-12.842l6.562-.309c.013 0-3.447-13.83-3.447-13.83zm73.312.125v14.781c-14.59-2.018-22.592-2.39-22.592-2.39v2.131c16.852 1.365 24.746 2.754 24.746 2.754v-14.725c6.376.855 12.76 1.88 19.062 3.047v-2.155c-6.996-1.336-14.113-2.491-21.217-3.443zm-224.2 10.793-2.154 5.229s-.001 38.132-.02 38.141l-5.523 3.008v17.068c.714-.414 1.435-.821 2.154-1.231v-14.713l5.523-3.008c.019-.01.02-44.494.02-44.494zm72.316 1.467-2.086.643.035.133s3.01 11.299 2.996 11.303l-6.402 1.851v15.514c.744-.226 1.491-.443 2.236-.666v-13.357l6.838-1.844c.014-.004-3.617-13.576-3.617-13.576zm56.072 1.455s-3.889.459-4.139.491l-.59 2.236c.018-.002 4.729-.561 4.729-.561zm-185.25.653s-1.199.761-2.152 1.367v75.396s-4.856 3.881-6.746 5.439v19.551c.712-.63 1.433-1.25 2.152-1.877v-16.549c1.889-1.558 6.746-5.439 6.746-5.439v-77.889zm21.037 13.891v3.777l15.211 22.455.975-2.355-16.186-23.878zm85.453 3.385c-.589.208-4.516 1.633-5.049 1.826l-.638 2.531c-.012.005 5.687-2.057 5.687-2.057zm-82.211 40.479c-.712.466-3.242 2.142-3.242 2.142v2.557l3.242-2.155v-2.545z" fill="#5d6dbe"/><path d="m167.75 17.391-.5.021.076 1.547.494-.007zm6.371.145-.367 8.019.465.022.402-8.018-.5-.024zm-20.953 1.093-.492.08 5.363 9.237.455-.053zm34.73.391 2.125 10.469.447.096-2.08-10.484-.492-.08zm-22.383.445-.492.02.394 8.021.456-.019zm-13.498 1.908-.482.082-.659 4.006.463-.086zm46.846.116 2.875 7.664.447.15-2.839-7.676zm-13.061.027-1.697 3.215.469.07 1.71-3.209zm20.484 2.315-2.976 9.523.429.158 3.026-9.531zm-74.547.394c-.758-.006-1.525.134-2.248.42-.082.032-.161.073-.242.109 1.385-.492 2.91-.466 4.219.094 1.24.529 2.154 1.462 2.648 2.695.586 1.46.603 2.983.045 4.288-.532 1.247-1.574 2.251-2.937 2.853.071-.025.142-.045.212-.074 1.473-.581 2.594-1.624 3.161-2.934.565-1.302.555-2.826-.024-4.287-.49-1.236-1.4-2.171-2.636-2.707-.69-.297-1.44-.451-2.198-.457zm65.795.809-1.849 5.922.433.136 1.883-5.926zm-20.432 1.101-.07 1.545.455.037.078-1.558zm-47.143.387c-.077.025-.153.047-.226.076-1.745.701-2.663 2.683-2.004 4.326.381.949 1.08 1.68 1.966 2.059.837.357 1.764.368 2.61.029.074-.03.143-.065.215-.097-.789.253-1.629.214-2.395-.116-.884-.382-1.579-1.117-1.955-2.068-.622-1.573.194-3.44 1.789-4.209zm53.049.193-.887 1.485.446.074.898-1.494zm-32.082.854-.455.086-.33 1.597.443-.072zm66.113.918-.641 1.406.444.221.654-1.418zm-2.928.816-3.328 7.307.412.193 3.364-7.291zm-95.566 1.221c-.524.031-1.028.201-1.453.398 1.115-.357 2.558-.338 3.51 1.334.548.964.718 2.338-.451 3.309l-.52.432.623.263 4.383 1.848.406-.207-4.375-1.869-.621-.266.522-.429c1.174-.965 1.01-2.341.467-3.307-.69-1.226-1.617-1.558-2.491-1.506zm104.47 1.185-4.898 8.717.395.227 4.939-8.696zm-107.06 1.813c-.038.022-.429.246-.429.246l1.314 2.299.358-.203.056-.039zm-6.771 2.166-.406.295.906 1.25.41-.277zm9.002 1.771-.406.241 1.849 3.254.399-.225zm110.98.661c-.209-.006-.419.009-.627.046-.879.16-1.665.688-2.219 1.487-.54.781-.753 1.68-.599 2.527.151.839.661 1.597 1.435 2.133.033.021.069.035.102.056-.618-.518-1.023-1.192-1.153-1.927-.15-.848.069-1.744.614-2.524.556-.795 1.347-1.318 2.224-1.474.752-.133 1.527.021 2.211.429-.061-.048-.116-.103-.181-.148-.554-.382-1.179-.589-1.807-.605zm4.412.482-1.125 1.602c.093.167.173.34.238.517l1.219-1.746zm-125.14.043-.402.285 4.711 6.5.371-.262zm-8.391 3.93-.377.332 1.03 1.158.379-.32zm128.97 2.586-1.162 1.63.463.182 1.236-1.767c-.18-.002-.359-.018-.537-.045zm-126.33.671-.361.319 1.031 1.158.364-.305zm-3.845.432-.367.33 1.203 1.352.359-.324zm6.785 2.641-.348.306 1.031 1.159.35-.293zm-4.014.504-.353.316 1.24 1.395.348-.311zm-10.531 1.478-.328.377 8.545 5.375.32-.326zm1.707 4.166-.324.358 2.898 5.791.299-.344zm-6.467 1.303-.32.388 5.549 2.018.988.357-.299-.582-.379-.138zm2.436 3.48-.305.377 3.879 4.469.299-.342zm164.82 1.516v8.1l4.303-3.623zm-78.758 8.084v18.6l-2.678.557 7.213 27.578 3.768-15.027-1.274-4.866 1.672-.349v-17.791l-8.701-8.701zm79.615 10.961-3.522.133 3.522 13.686v-13.818zm34.135 1.48v41.086c.387.042 5.449.561 8.615.885v-32.498c1.126.109 2.219.223 3.209.33v-8.695l-11.824-1.107zm45.961 1.979v19.209c-10.678-1.974-24.83-4.1-24.83-4.1l9.394 9.395c12.206 2.03 24.094 4.236 24.094 4.236v-18.623zm-224.04 11.422-2.473.898v9.453l2.473-10.352zm111.32 26.604-4.24.42v28.857c-22.982 2.406-45.307 7.024-66.76 13.631l6.894 6.894c21.885-6.402 44.676-10.71 68.143-12.676v-4.31l-4.037-3.965v-28.852zm112.72.836v16.457l-18.396 15.395c-19.949-3.508-40.472-5.35-61.426-5.35-8.243 0-16.418.286-24.52.844l8.144 8.144c6.794-.313 13.639-.434 20.533-.353 20.41.241 40.405 2.239 59.852 5.84-.028.006 24.42-20.504 24.42-20.504v-11.865zm-191.47 14.383-4.307 1.39v30.258c-21.998 7.662-43.003 17.441-62.773 29.094l6.512 6.51c20.13-11.78 41.545-21.597 63.988-29.189v-4.342l-3.42-3.572v-30.148zm-69.014 22.076-4.225 10.188 4.225-2.301zm-22.979 7.486v13.834l5.473-3.455-.006-2.426zm204.99 4.688-.215.402 8.932 4.5.226-.449zm-187.57 1.18-2.69 6.486 2.69 2.687zm187.45 3.111c-.456.284-.856.674-1.154 1.154-.062.099-.117.2-.168.301.4-.589.947-1.041 1.57-1.301zm-2.961.48c-.032.047-.068.094-.098.141-.748 1.188-.994 2.722-.662 4.104.32 1.327 1.144 2.465 2.321 3.207 1.313.827 2.676 1.049 4.056.662 1.371-.379 2.536-1.236 3.276-2.411.056-.088.101-.177.15-.267-.739 1.092-1.847 1.894-3.152 2.262-1.378.395-2.743.178-4.061-.645-1.18-.736-2.01-1.87-2.336-3.195-.316-1.288-.123-2.706.506-3.858zm7.838 2.592c.024.641-.123 1.286-.418 1.84.051-.07.102-.141.148-.217.275-.439.44-.952.496-1.482zm-13.018 5.619-.289.354s5.068 4.104 5.121 4.172l.914.056c.019-.021-5.746-4.582-5.746-4.582zm-191.27.239v25.588c-13.634 9.285-26.585 19.5-38.756 30.557l6.018 6.019c12.555-11.391 25.944-21.88 40.066-31.361v-23.475l-7.329-7.328zm189.23 5.986.726.414 8.665.176.304-.401zm-2.979.002-.302.342 7.771 6.297.317-.393zm-6.007 6.07-.332.313 7.031 7.111.357-.354zm-3.369 5.33c-.492.024-1.043.284-1.649.782-.001.001-.211.173-.211.173l-.066.055c1.179-.921 2.142-.948 2.861-.064.311.382.447.786.404 1.203-.073.722-.677 1.29-1.125 1.654l-.158.129.002.006.32-.262.209-.174c.445-.365 1.046-.937 1.118-1.658.041-.417-.098-.821-.411-1.201-.37-.451-.803-.666-1.294-.643zm-124.91.366-9.155 5.566.405.312 9.109-5.597-.359-.282zm120.35 1.085-.364.278 6.313 7.758.392-.319-6.342-7.717zm-120.66 1.862-1.293 3.703.39.291 1.274-3.711-.372-.283zm126.42.965-.372.304 4.682 1.549.385-.324-4.696-1.529zm-119.69.814-.823 1.328.395.244.808-1.318zm106.88 1.24-.387.244 5.535 8.328.42-.279zm-105.94 1.662-4.227 6.825.43.265 4.193-6.844zm-9.707 1.286-.473 1.537.41.295.461-1.54-.398-.293zm16.584.566-4.352 9.006.455.219 4.299-9.008-.403-.217zm91.693.717-.407.209 4.791 8.779.444-.24zm-85.504 2.275-1.637 3.391.431.193 1.618-3.387zm80.771.053-.422.172s2.488 6.076 2.48 6.123l.744.425c.028-.011-2.802-6.72-2.802-6.72zm-75.875 1.996-3.407 9.402.473.172 3.361-9.41zm68.484 1.051-.432.154 3.789 9.256.465-.19zm2.654 1.447.412.787 7.496 4.227.461-.205zm-63.738.049-2.6 9.656.487.131 2.55-9.658zm52.854.545c-.073.015-.146.024-.217.043-1.506.389-2.807 1.354-3.57 2.648-.684 1.16-.87 2.453-.537 3.74.818 3.169 3.608 4.811 6.787 3.991.086-.023.167-.052.252-.077-3.075.695-5.758-.925-6.571-4.011-.338-1.285-.157-2.58.522-3.743.717-1.231 1.926-2.161 3.334-2.591zm-67.748.24-1.75 3.623.457.207 1.734-3.633zm22.424 1.156-.274 1.537.457.082.264-1.525zm46.719.266c-.231.013-.461.048-.686.107-.079.021-.156.048-.232.074.837-.16 1.727-.011 2.471.428.756.446 1.284 1.127 1.488 1.914.487 1.891-.477 3.734-2.209 4.317.081-.015.16-.03.24-.051 1.881-.495 2.948-2.429 2.428-4.404-.206-.787-.74-1.463-1.498-1.907-.608-.354-1.309-.518-2.002-.478zm-11.527.49c-.056.005-.113.006-.168.014-1.391.186-2.728.98-3.576 2.121-.814 1.096-1.161 2.457-.977 3.836.205 1.539.907 2.73 2.088 3.541 1.171.81 2.573 1.155 3.949.972.105-.015.204-.037.305-.058-1.313.134-2.641-.203-3.76-.971-1.185-.806-1.892-1.994-2.103-3.531-.192-1.379.15-2.743.959-3.842.785-1.067 1.995-1.827 3.283-2.082zm-26.057.691-1.051 9.948.5.052 1.004-9.947zm10.137.37c-1.403-.038-2.849.532-3.867 1.525-.978.952-1.536 2.243-1.573 3.635-.041 1.551.465 2.839 1.502 3.828 1.028.986 2.357 1.549 3.744 1.584.103.004.2-.004.299-.008-1.312-.079-2.567-.622-3.547-1.555-1.042-.984-1.553-2.268-1.519-3.82.031-1.39.584-2.683 1.556-3.641.947-.931 2.268-1.489 3.581-1.535-.059-.002-.117-.012-.176-.014zm-17.326.533-1.406 7.906.496.088 1.369-7.908zm34.721.207c-.273-.026-.552-.021-.832.017-.115.015-.227.039-.338.065.707-.07 1.404.062 2.002.373l-.037-.289c-.255-.085-.522-.141-.795-.166zm-16.881 1.172c-.114-.004-.227-.001-.338.008.707.042 1.374.284 1.914.685l.008-.291c-.476-.248-1.018-.391-1.584-.402zm18.439 4.707c-.478.428-1.066.728-1.68.857.085-.006.17-.011.258-.023.514-.071 1.014-.274 1.457-.569zm-17.008 1.457c-.541.348-1.175.553-1.805.582.089.007.178.015.27.017.518.012 1.043-.11 1.527-.33z" fill="#b3b5b8"/></g></g></svg>