<svg clip-rule="evenodd" fill-rule="evenodd" stroke-linecap="round" stroke-linejoin="round" stroke-miterlimit="10" viewBox="0 0 560 400" xmlns="http://www.w3.org/2000/svg"><g transform="matrix(1.31076 0 0 1.31076 99.7772 126.656)"><path d="m144.49.17c32.42 0 63.09 4.56 86.53 12.48 1.52-.19 3.06-.29 4.6-.29 4.46 0 8.54.81 12.13 2.33.12-.33.29-.69.44-.98.29-.56.77-1.35.77-1.35h20.73l-5.48 17.88c6.79 6.13 10.61 12.98 10.61 20.4 0 11.29-8.85 21.3-23.65 29.36.15.92-.21 1.96-1.17 2.92-17.75 17.59-68.07 28.82-118.28 28.82-70.78 0-131.55-23.82-131.55-56.45 0-18.59 17.54-36.45 48.23-44.76 3-.81 4.75 1.92 3.77 3.98h.6c24.01-9.05 56.86-14.34 91.72-14.34z" fill="#fff" fill-rule="nonzero"/><path d="m144.49.17c32.42 0 63.09 4.56 86.53 12.48 1.52-.19 3.06-.29 4.6-.29 4.46 0 8.54.81 12.13 2.33.12-.33.29-.69.44-.98.29-.56.77-1.35.77-1.35h20.73l-5.48 17.88c6.79 6.13 10.61 12.98 10.61 20.4 0 11.29-8.85 21.3-23.65 29.36.15.92-.21 1.96-1.17 2.92-17.75 17.59-68.07 28.82-118.28 28.82-70.78 0-131.55-23.82-131.55-56.45 0-18.59 17.54-36.45 48.23-44.76 3-.81 4.75 1.92 3.77 3.98h.6c24.01-9.05 56.86-14.34 91.72-14.34z" fill="none"/><path d="m17.17 50.64c0-9.86 8.04-19.01 21.83-26.59l-3.31 10.92h4.08l-8.46 27.95h-4.08l-1.48 4.9c-5.54-5.35-8.58-11.14-8.58-17.18zm44.71-36.14c22.25-7.06 51.09-11.34 82.61-11.34 30.52 0 58.53 4 80.44 10.67-.71.19-1.44.4-2.15.62l-.77.29-.35.12-.27.1c-8.58 3.1-16.56 8.81-22.56 16l2.06-16.48h-35.86l-16.38-9.06-.69 1.04 12.94 8.02h-.25-73.8l-16.2 27.09-.37-27.07zm-9.5 68.9c-1.19-.46-2.33-.92-3.44-1.4l2.65-8.56zm111.9-66.46 2.29 1.15-7.25 15.21zm-32.81 40.28-1.9 6.31h-2.17l1.92-6.31zm-18.27-22.86-8.83 29.17h-6.08l8.83-29.17zm25.19 0-1.54 5.11h-2.15l1.54-5.11zm6.58 12.34 1.54-5.06h8.86l-2.4 5.02zm7.17 1.71-3.46 7.25h-6.42l2.29-7.54zm111.09-14.96c5.56 5.31 8.6 11.13 8.6 17.19 0 26.22-57 47.45-127.34 47.45-31.09 0-59.57-4.15-81.69-11.04l8.69-12.02-2.27 8.38h61.69l-21.29 9.13.77.83 25.02-9.96h24.46l6.54-14.86 3.31.04-2.25 14.82h26.11l1.96-6.46c1.85 1.83 4.02 3.4 6.48 4.67l.77.33.5.21c1.77.77 6.75 2.08 12.02 2.1 5.85.02 12.06-1.35 14.54-2.23l.77-.31.31-.12.33-.13c9.54-3.79 18.23-10.75 24.15-19.36l2.08-3.04-21.15-6.25c-7.88 9.92-17.42 10-21.63 6.52-3.69-3.06-4.12-10.32 1.38-16.67 6.54-7.56 14.9-8.34 19.13-5.96 4.23 2.35 4.33 7.25 4.35 7.54l22.4-6.77zm.83 27.98-.48 2.5h.98l.83-4.73h-.44l-2.38 2.92-.19-2.92h-.42l-2.71 4.73h.98s.96-1.73 1.31-2.52l.21 2.92c.02 0 1.67-2.02 2.31-2.9zm-5.46 2.5 1.44-3.86h1.04l.33-.92h-3.02l-.33.92h1.02l-1.42 3.86z" fill="#f7b04d" fill-rule="nonzero"/><path d="m17.17 50.64c0-9.86 8.04-19.01 21.83-26.59l-3.31 10.92h4.08l-8.46 27.95h-4.08l-1.48 4.9c-5.54-5.35-8.58-11.14-8.58-17.18zm44.71-36.14c22.25-7.06 51.09-11.34 82.61-11.34 30.52 0 58.53 4 80.44 10.67-.71.19-1.44.4-2.15.62l-.77.29-.35.12-.27.1c-8.58 3.1-16.56 8.81-22.56 16l2.06-16.48h-35.86l-16.38-9.06-.69 1.04 12.94 8.02h-.25-73.8l-16.2 27.09-.37-27.07zm-9.5 68.9c-1.19-.46-2.33-.92-3.44-1.4l2.65-8.56zm111.9-66.46 2.29 1.15-7.25 15.21zm-32.81 40.28-1.9 6.31h-2.17l1.92-6.31zm-18.27-22.86-8.83 29.17h-6.08l8.83-29.17zm25.19 0-1.54 5.11h-2.15l1.54-5.11zm6.58 12.34 1.54-5.06h8.86l-2.4 5.02zm7.17 1.71-3.46 7.25h-6.42l2.29-7.54zm111.09-14.96c5.56 5.31 8.6 11.13 8.6 17.19 0 26.22-57 47.45-127.34 47.45-31.09 0-59.57-4.15-81.69-11.04l8.69-12.02-2.27 8.38h61.69l-21.29 9.13.77.83 25.02-9.96h24.46l6.54-14.86 3.31.04-2.25 14.82h26.11l1.96-6.46c1.85 1.83 4.02 3.4 6.48 4.67l.77.33.5.21c1.77.77 6.75 2.08 12.02 2.1 5.85.02 12.06-1.35 14.54-2.23l.77-.31.31-.12.33-.13c9.54-3.79 18.23-10.75 24.15-19.36l2.08-3.04-21.15-6.25c-7.88 9.92-17.42 10-21.63 6.52-3.69-3.06-4.12-10.32 1.38-16.67 6.54-7.56 14.9-8.34 19.13-5.96 4.23 2.35 4.33 7.25 4.35 7.54l22.4-6.77zm.83 27.98-.48 2.5h.98l.83-4.73h-.44l-2.38 2.92-.19-2.92h-.42l-2.71 4.73h.98s.96-1.73 1.31-2.52l.21 2.92c.02 0 1.67-2.02 2.31-2.9zm-5.46 2.5 1.44-3.86h1.04l.33-.92h-3.02l-.33.92h1.02l-1.42 3.86z" fill="none"/><path d="m161.07 73.85-2.98 6.75h-16.17zm105.16-59.53-6.15 20.34-18.61 6.13c-.15-.54-.31-1.04-.54-1.54l9.29-9.29-11.19 6.42c-.33-.35-.69-.69-1.06-.98l12.73-21.07h15.53zm-13.09 46.28c-5.58 8.13-13.81 14.71-22.79 18.28l-.21-17.36c.62-.33 1.23-.69 1.83-1.08l7.13 6.25-3.58-9.13c.54-.54 1.06-1.1 1.56-1.67zm-24.04 18.75c-4.33 1.58-8.83 2.46-13.27 2.46-4.23 0-8.04-.79-11.33-2.23l13.15-15.94c.65.15 1.33.27 2.04.33l-1.25 10.32 5.06-10.46c.69-.13 1.4-.27 2.1-.46zm-25.54-.2c-3.85-1.88-6.94-4.67-9.11-8.13l-2.92 9.59h-20.83l1.69-10.73 37.57-13.23c.19.6.44 1.17.71 1.71l-8.31 8.34 10.17-5.81c.48.46.98.88 1.56 1.25zm-33.63-61.85h27.81l-1.65 13.09zm30.94 15.48c5.67-6.84 13.25-12.25 21.36-15.19l.19 17.21c-.71.33-1.44.71-2.13 1.13l-6.81-5.98 3.33 8.5c-.54.48-1.08.98-1.58 1.52zm22.58-15.61c3.94-1.31 8-2.02 12.02-2.02 4.56 0 8.65.92 12.13 2.58l-13.13 15.82c-.52-.17-1.06-.31-1.65-.42l1.31-10.79-5.13 10.65c-.67.06-1.33.17-2.02.29zm-50.4 48.54h-8.38l-2.4 4.79-23.4 10.11h-65.97l7-23.07-23.87 34.53-2.73-33.03-.04.15-6.77 21.42h-21.72l4.5-14.9h4.06l10.15-33.51h-4.06l4.5-14.9h24.02l-.04 34.63 20.4-34.63h25.48l-4.5 14.9h-3.73l-10.15 33.51h10.52l10.15-33.51h-4.5l4.5-14.9h45.88l-6.71 22.17h-16.17l2.21-7.27h-6.6l-2.88 9.44h12.48l-4.06 13.42h-12.48l-3.21 10.65h6.6l2.38-7.88h16.48l4.48-9.4 17.48.58-1.79 3.96h5.13l.58-3.81 24.13.79 9.65.52c-.1.6-.19 1.21-.21 1.81zm-17.73-19.07 13.17-27.69 27.06 15.77-.98 7.84c1.04-2.19 2.25-4.27 3.65-6.29l13.73 8.02c-.35.6-.69 1.23-.96 1.88l-2.75.1-31.96.23 1.62-10.59-4.81 10.61z" fill="#481a72" fill-rule="nonzero"/><path d="m161.07 73.85-2.98 6.75h-16.17zm105.16-59.53-6.15 20.34-18.61 6.13c-.15-.54-.31-1.04-.54-1.54l9.29-9.29-11.19 6.42c-.33-.35-.69-.69-1.06-.98l12.73-21.07h15.53zm-13.09 46.28c-5.58 8.13-13.81 14.71-22.79 18.28l-.21-17.36c.62-.33 1.23-.69 1.83-1.08l7.13 6.25-3.58-9.13c.54-.54 1.06-1.1 1.56-1.67zm-24.04 18.75c-4.33 1.58-8.83 2.46-13.27 2.46-4.23 0-8.04-.79-11.33-2.23l13.15-15.94c.65.15 1.33.27 2.04.33l-1.25 10.32 5.06-10.46c.69-.13 1.4-.27 2.1-.46zm-25.54-.2c-3.85-1.88-6.94-4.67-9.11-8.13l-2.92 9.59h-20.83l1.69-10.73 37.57-13.23c.19.6.44 1.17.71 1.71l-8.31 8.34 10.17-5.81c.48.46.98.88 1.56 1.25zm-33.63-61.85h27.81l-1.65 13.09zm30.94 15.48c5.67-6.84 13.25-12.25 21.36-15.19l.19 17.21c-.71.33-1.44.71-2.13 1.13l-6.81-5.98 3.33 8.5c-.54.48-1.08.98-1.58 1.52zm22.58-15.61c3.94-1.31 8-2.02 12.02-2.02 4.56 0 8.65.92 12.13 2.58l-13.13 15.82c-.52-.17-1.06-.31-1.65-.42l1.31-10.79-5.13 10.65c-.67.06-1.33.17-2.02.29zm-50.4 48.54h-8.38l-2.4 4.79-23.4 10.11h-65.97l7-23.07-23.87 34.53-2.73-33.03-.04.15-6.77 21.42h-21.72l4.5-14.9h4.06l10.15-33.51h-4.06l4.5-14.9h24.02l-.04 34.63 20.4-34.63h25.48l-4.5 14.9h-3.73l-10.15 33.51h10.52l10.15-33.51h-4.5l4.5-14.9h45.88l-6.71 22.17h-16.17l2.21-7.27h-6.6l-2.88 9.44h12.48l-4.06 13.42h-12.48l-3.21 10.65h6.6l2.38-7.88h16.48l4.48-9.4 17.48.58-1.79 3.96h5.13l.58-3.81 24.13.79 9.65.52c-.1.6-.19 1.21-.21 1.81zm-17.73-19.07 13.17-27.69 27.06 15.77-.98 7.84c1.04-2.19 2.25-4.27 3.65-6.29l13.73 8.02c-.35.6-.69 1.23-.96 1.88l-2.75.1-31.96.23 1.62-10.59-4.81 10.61z" fill="none"/><g fill-rule="nonzero"><path d="m3.15 55.29c0-16.46 20.4-37.16 46.02-41.87-22.15 9.25-35.77 23.24-35.77 37.07 0 28.42 57.53 51.47 128.49 51.47 43.46 0 82.8-7.98 106.05-21.21-9.77 13.94-66.05 27.99-116.22 27.99-71.67 0-128.57-24.18-128.57-53.45z" fill="#7d0fff"/><path d="m3.15 55.29c0-16.46 20.4-37.16 46.02-41.87-22.15 9.25-35.77 23.24-35.77 37.07 0 28.42 57.53 51.47 128.49 51.47 43.46 0 82.8-7.98 106.05-21.21-9.77 13.94-66.05 27.99-116.22 27.99-71.67 0-128.57-24.18-128.57-53.45z" fill="#481a72"/></g></g></svg>