<?xml version="1.0" encoding="UTF-8" standalone="no"?>
<!DOCTYPE svg PUBLIC "-//W3C//DTD SVG 1.1//EN" "http://www.w3.org/Graphics/SVG/1.1/DTD/svg11.dtd">
<svg width="100%" height="100%" viewBox="0 0 560 400" version="1.1" xmlns="http://www.w3.org/2000/svg" xmlns:xlink="http://www.w3.org/1999/xlink" xml:space="preserve" xmlns:serif="http://www.serif.com/" style="fill-rule:evenodd;clip-rule:evenodd;stroke-linejoin:round;stroke-miterlimit:2;">
    <g transform="matrix(2.4,0,0,2.4,70,154.04)">
        <g>
            <path d="M24.4,24.7L30.8,14L28.7,12.4L25.5,14.9L17.6,8.8L0,38.3L8.9,38.3L19.3,20.9L24.4,24.7Z" style="fill:rgb(78,151,214);fill-rule:nonzero;"/>
            <path d="M35.4,29.8L31.8,24.2L23.4,38.3L25.2,38.3L32.8,32.1L35.4,36L39,33.1L45.5,38.3L47,38.3L39.8,26.4L35.4,29.8Z" style="fill:rgb(0,58,76);fill-rule:nonzero;"/>
            <path d="M39.5,0L30.8,14.1L24.4,24.8L19.3,21L8.9,38.3L23.4,38.3L31.8,24.2L35.4,29.9L39.8,26.5L47,38.3L62.6,38.3L39.5,0Z" style="fill:rgb(28,100,153);fill-rule:nonzero;"/>
            <path d="M79.4,26.8L79.4,18.4L76.1,24.6L74.8,24.6L71.5,18.4L71.5,26.8L69,26.8L69,14.2L71.6,14.2L75.3,21.4L79.1,14.2L81.7,14.2L81.7,26.8L79.4,26.8ZM86.2,26.8L86.2,16.8L88.8,16.8L88.8,26.8L86.2,26.8ZM95.1,21.5L95.1,26.8L92.5,26.8L92.5,16.8L94.5,16.8L99.7,22.2L99.7,16.8L102.3,16.8L102.3,26.8L100.3,26.8L95.1,21.5ZM114,24.6L114,26.8L106.1,26.8L106.1,16.8L113.8,16.8L113.8,19L108.6,19L108.6,20.7L113,20.7L113,22.8L108.6,22.8L108.6,24.6L114,24.6ZM117.4,26.9L117.4,16.8L122.4,16.8C122.9,16.8 123.4,16.9 123.9,17.1C124.4,17.3 124.7,17.6 125,17.9C125.3,18.2 125.6,18.6 125.8,19C126,19.4 126.1,19.8 126.1,20.3C126.1,20.9 125.9,21.5 125.6,22C125.3,22.5 124.8,22.9 124.3,23.2L126.9,26.9L124,26.9L121.8,23.8L120,23.8L120,26.9L117.4,26.9ZM120,21.4L122.4,21.4C122.7,21.4 123,21.3 123.2,21.1C123.4,20.9 123.5,20.6 123.5,20.2C123.5,19.8 123.4,19.5 123.1,19.3C122.8,19.1 122.6,19 122.3,19L120,19L120,21.4ZM138.8,25.4C137.8,26.4 136.6,26.9 135.3,26.9C134.5,26.9 133.7,26.7 133,26.4C132.3,26.1 131.6,25.6 131.1,25C130.6,24.4 130.1,23.7 129.8,22.9C129.5,22.1 129.3,21.3 129.3,20.3C129.3,19.4 129.5,18.6 129.8,17.9C130.1,17.1 130.5,16.5 131.1,15.9C131.7,15.3 132.3,14.9 133,14.5C133.7,14.2 134.6,14 135.4,14C136.6,14 137.6,14.2 138.5,14.7C139.3,15.2 140,15.9 140.4,16.7L138.6,18.1C138.3,17.5 137.8,17 137.3,16.7C136.7,16.4 136.1,16.2 135.4,16.2C134.9,16.2 134.4,16.3 133.9,16.5C133.5,16.7 133.1,17 132.8,17.4C132.5,17.8 132.2,18.2 132.1,18.8C131.9,19.3 131.8,19.8 131.8,20.4C131.8,21 131.9,21.5 132.1,22.1C132.3,22.6 132.6,23.1 132.9,23.4C133.2,23.8 133.6,24.1 134.1,24.3C134.6,24.5 135.1,24.6 135.6,24.6C136.8,24.6 137.9,24 138.9,22.9L138.9,22L136.4,22L136.4,20.2L141,20.2L141,26.7L139,26.7L139,25.4L138.8,25.4ZM143.5,26.8L147.8,16.8L149.9,16.8L154.2,26.8L151.5,26.8L150.6,24.7L147.1,24.7L146.2,26.8L143.5,26.8ZM148.8,19.9L147.6,22.5L150,22.5L148.8,19.9ZM164.3,19L160.9,19L160.9,26.8L158.3,26.8L158.3,19L154.9,19L154.9,16.8L164.3,16.8L164.3,19ZM175,24.6L175,26.8L167.1,26.8L167.1,16.8L174.8,16.8L174.8,19L169.6,19L169.6,20.7L174,20.7L174,22.8L169.6,22.8L169.6,24.6L175,24.6Z" style="fill:rgb(13,13,13);fill-rule:nonzero;"/>
        </g>
    </g>
</svg>
