<svg clip-rule="evenodd" fill-rule="evenodd" stroke-linejoin="round" stroke-miterlimit="1.41421" viewBox="0 0 560 400" xmlns="http://www.w3.org/2000/svg"><g fill-rule="nonzero" transform="matrix(1.43998 0 0 1.43998 98.634 110.86)"><path d="m132.95 1.061v36.348l-28.672-36.338h-50.283v39.158h8.771v11.903l-11.038.004c-6.164-13.607-15.828-12.387-15.828-12.387v12.382h-22.497c-1.144-.812-2.54-1.354-4.134-1.354-5.731 0-8.32 6.079-8.32 10.521s2.756 10.518 8.489 10.518c3.471 6.53 9.487 11.317 16.854 11.317 3.555 0 6.807-1.124 9.606-3.017v2.765s9.677 1.221 15.832-12.416l11.027-.007v13.503h-8.804v38.788h59.407v-37.836l29.748 37.836h50.14v-38.788h-9.306l.025-13.62c58.916-.665 64.29-18.242 66.984-22.186-10.761 2.332-30.746 3.433-37.937 3.655-10.233.319-20.74.321-29.025.319.005-4.728.004-8.957.004-11.935 4.093-.082 9.255-.191 9.255-.191l-.019-38.946h-60.298z" fill="#b0b7bb"/><path d="m136.53 4.65v32h9.284l.022 19.066h-3.018l-40.285-51.059h-44.959v31.984h8.771v19.077h-17.11c-2.008-6.668-7.142-11.456-9.732-11.456v11.456h-27.408c-.785-.849-1.755-1.348-2.805-1.348-2.616 0-4.739 3.103-4.739 6.933 0 3.827 2.123 6.933 4.739 6.933.767 0 1.488-.267 2.128-.74 2.747 7.151 8.386 12.056 14.895 12.056 5.367 0 10.14-3.335 13.192-8.515v7.303c2.59 0 7.726-4.788 9.749-11.456l17.11-.008v20.673h-8.804v31.612h52.231v-31.612h-8.215l.077-20.695h2.088l41.128 52.308h44.807v-31.612h-9.31c.007-2.66.025-11.279.037-20.742h1.172c21.901-.393 46.975-2.562 61.11-14.019-14.544 3.054-43.86 2.93-61.11 2.93h-1.158c.009-8.703.013-16.422.004-19.04 3.577-.066 9.255-.183 9.255-.183v-31.843h-53.129z"/><path d="m140.98 9.092v23.116h9.284l.037 40.161-4.38-5.552-3.395.004 10.449 13.247-.048-50.525h-9.28v-17.78h38.908v17.766s-9.01.189-9.324.025c.18 1.118-.004 65.109-.004 65.109h9.328v17.389h-34.243l-35.54-45.199h-3.391l37.633 47.866h38.205v-22.721h-9.32c.014-5.215.09-53.999.036-59.707l9.284-.15v-23.047h-44.241zm-78.955.011v23.094h8.775v59.799h-8.808v22.724h43.343v-22.724h-8.053l-.03-40.572 3.377 4.296h3.391l-9.404-11.965.117 50.905h7.936v17.392h-38.008v-17.392h8.804v-65.133h-8.775v-17.759h34.401l34.674 43.95h3.399l-36.78-46.617h-38.359zm-19.831 39.904v5.226c2.048.537 3.792 1.989 4.889 3.955-.794-4.111-3.023-7.297-4.889-9.181zm186.27 8.427c-4.793.37-9.985.62-15.25.784-11.333.351-23.004.322-31.65.322h-1.165l-.004 2.82h9.284c20.18 0 34.828-2.454 38.785-3.926zm-219.01.634c-.996 0-1.805.84-1.805 1.879 0 1.038.809 1.882 1.805 1.882.457 0 .875-.176 1.194-.469v-1.12l1.802.926 1.802-.926 1.805.926 1.802-.926 1.802.926 1.806-.926 1.801.926 1.802-.926 1.802.926 1.802-.926 1.802.926 1.806-.926 1.801.926 1.806-.926 1.802.926 1.802-.926v-1.7h-28.845c-.32-.293-.738-.472-1.195-.472zm40.425.472c.136.9.209 1.822.209 2.762v.058h16.264v-2.82zm51.77 0v2.82h44.172v-2.82z" fill="#fff"/><path d="m14.147 66.886c3.04 4.254 7.357 6.907 12.148 6.907 4.789 0 9.108-2.653 12.148-6.907z" fill="#b0b7bb"/><path d="m143.64 11.762v17.78h9.28l.048 50.525-10.452-13.247-29.748.029 35.539 45.203h34.243v-17.392h-9.328s.184-63.986.004-65.105c.314.162 9.324-.029 9.324-.029v-17.766h-38.908zm-78.955.007v17.759h8.775v65.133h-8.808v17.392h38.01v-17.392h-7.94l-.113-50.905 9.404 11.961h29.746l-34.674-43.949h-34.401z" fill="#c41230"/></g></svg>