<svg clip-rule="evenodd" fill-rule="evenodd" stroke-linejoin="round" stroke-miterlimit="1.41421" viewBox="0 0 560 400" xmlns="http://www.w3.org/2000/svg"><g fill-rule="nonzero" transform="matrix(1.35275 0 0 1.35275 153.068 65)"><path d="m187.664 125.292c-.568-.681-1.344-1.136-1.95-1.799-1.78-1.912-2.822-4.525-3.106-7.081-.075-1.723-.227-3.295.606-4.866-.473.037-.928.037-1.382.208-.606.17-1.098.587-1.704.757-.095-2.12.17-4.203.738-6.248.19-.72.53-1.383.871-2.045-.909.057-1.552.587-2.367.871.114-.852.417-1.685.568-2.538.19-1.42.303-2.84.133-4.26-.114-1.685-.663-3.389-1.288-4.942-.833-2.064-2.101-3.863-2.991-5.889-.512-1.23-1.042-2.385-1.174-3.73-.152-.757.038-1.571.17-2.329-1.231.038-2.424.89-2.954 1.988-.265.512-.303 1.08-.625 1.553-.871-1.004-1.476-2.14-2.12-3.295-.72-1.344-1.307-2.726-1.629-4.203-.17-.739-.151-1.496-.303-2.235-1.174.663-2.082 1.761-2.613 2.992-.113.208-.227.417-.34.644-.777-.814-1.572-1.609-2.462-2.329-2.537-2.689-5.794-4.961-8.767-7.138-1.098-.777-2.253-1.402-3.37-2.121-.909-.568-1.856-.985-2.784-1.496 1.174.246 2.197.89 3.276 1.401.72.341 1.458.663 2.159 1.06 1.742 1.023 3.559 1.951 5.415 2.746 2.291.966 4.62 1.477 7.044 1.988 2.083.246 4.222.171 6.267-.303-.038-1.174-.416-2.348-.681-3.484 1.742.019 3.446.663 5.226.644.056.398.113.757-.057 1.155-.379.454-1.079.739-1.079 1.401.018.474.151 1.08.53 1.401.625.436 1.533.36 2.101-.132.36-.36.436-.947.36-1.42-.075-.36-.322-.682-.454-1.023-.038-.416.019-.833.019-1.249 1.496 0 2.991.075 4.468 0 .777-.057 1.572-.114 2.348-.133.644-1.515.833-3.257.928-4.885-1.098 0-2.177.038-3.276-.038.909-1.136 2.651-1.723 3.863-2.462.208-.321.284-.738.379-1.098.246-1.193.379-2.386.454-3.616.171-1.97.474-3.92.398-5.946.019-.284-.341-.454-.549-.587-.549-.265-1.136-.492-1.723-.682-.398-.17-.72.417-.852.72-.493 1.325-1.061 2.632-1.591 3.938-.208.493-.416 1.061-.928 1.326-1.344.757-2.84 1.344-4.241 2.007-.417.189-.776.398-1.25.398h-3.351c-.076-.606-.209-1.212-.303-1.818-2.481-.227-5.018-.19-7.48-.53-1.704-.228-3.446-.303-5.15-.474-2.367-.132-4.734-.473-7.1-.662-1.705-.209-3.503-.834-4.81-1.989-.492-.416-.663-.946-.985-1.477-.265-.265-.681-.378-1.022-.53-.701-.246-1.439-.53-2.178-.606-1.439-.056-2.916.531-4.374.606-.889-.019-1.742-.662-2.631-.397-.398.019-.871.397-1.08-.133-.984-1.818-1.969-3.635-2.745-5.548-.379-1.003-.815-1.969-1.193-2.992-.284-.037-.758.057-.89-.246-.568-.946-1.061-1.95-1.629-2.916-.303-.568-1.06-.89-1.571-1.268-.587-.36-.852-.909-1.193-1.458-.454-.758-.966-1.477-1.439-2.216.757-.094 1.496-.151 2.234-.322-.511-.511-1.117-.852-1.59-1.382-1.477-1.534-2.424-3.427-2.803-5.529-.946 0-1.855-.038-2.67-.549-.511-.284-.833-.852-1.117-1.344-.852-.133-1.704-.322-2.537-.512-.019-.435.019-.814.133-1.23.511.038 1.003.056 1.514.019.436-.133.663-.758.758-1.174-.152-.512-.568-.966-.511-1.515.056-.758.454-1.534.757-2.216.644.057 1.401.171 2.007-.037.417-.228.076-.928-.038-1.269-.265-.682-.454-1.325-.435-2.064.34-.095.662-.208 1.003-.322.019-.435.076-.852.114-1.287 1.477.17 2.764.549 4.298.151.833-.246 1.723-.644 2.348-1.25.473-.549.417-1.514.208-2.177-.36-1.231-1.496-2.121-2.518-2.803-1.647-1.003-3.389-1.666-5.226-2.177-.473-.114-.473-.473-.644-.852-.568-1.382-1.231-2.765-1.931-4.071l-.076-.133-.133-.189h-.852c-1.155.151-2.329.227-3.503.36-1.723.227-3.446.662-5.131 1.117-1.041.265-2.064.776-2.84 1.534-.663.681-.89 1.477-1.307 2.291-.359.227-.795.341-1.193.511-3.919 1.591-7.29 4.469-9.013 8.388 3.352-.795 6.533-1.647 10.017-1.685.208.795.341 1.609.473 2.424-1.363-.379-2.651-.777-4.09-.777-1.249.076-2.461.265-3.616.777.379.246.663.568.966.909-1.458.075-2.898.227-4.356.416-.719.095-1.439.076-2.177.038.473 1.363 1.78 2.159 2.973 2.821-.36.303-.625.947-1.174.89h-5.283c-.436.038-.72-.625-1.136-.568-.814.038-1.591.114-2.405.019-.132-.284-.227-.682-.473-.89-.682-.095-1.383-.038-2.064-.076h-11.361c-.265-.019-.492.057-.663-.189-.246-.379-.36-.909-.7-1.193-.796-.681-1.913-.984-2.727-1.628-.322-.303-.17-1.042-.17-1.458-.019-.246.113-.72-.171-.833-.473-.209-1.269-.133-1.59.303-.568 1.098-.417 2.177-.228 3.351-1.969-.265-4.184-.473-6.116.152-.795.435-.662 1.136-.587 1.893 1.269.303 2.576.038 3.882.189-.985.909-2.802.928-3.938 1.591-.587.568.037 1.78.738 1.95 1.212-.246 2.178-.852 3.446-.89-.435.739-1.231 1.231-1.799 1.913-.757.587.493 2.007 1.193 1.382.777-.568 1.25-1.288 2.272-1.458-.208.776-.7 1.439-.852 2.215.114.493 1.061 1.231 1.458.587.417-.492.587-1.155 1.004-1.628.303-.246.701-.398 1.079-.511.739.284 1.382.738 2.159.927.511.19.909-.075 1.42-.132.303.038.606.151.909.246 2.67.928 5.377 1.799 8.047 2.746.966.303 1.95.492 2.878.909.341.113.701.34 1.042.34.284-.208.53-.454.757-.738 2.215.151 4.431.322 6.627.701 1.799.302 3.598.511 5.397.681.719.114 1.533.739 1.42 1.553-.038.663-.587.871-.833 1.42-.322 1.363-.227 2.783.189 4.128.322 1.098.852 2.102 1.136 3.219.322 1.155.625 2.348.663 3.559-.152 1.231-.776 2.348-.947 3.598-.322 1.591-.227 3.162.133 4.734.075.189.075.719.397.625 1.174-.265 2.31-.322 3.352.378-.095 1.136-.398 2.235-.492 3.352-.114.814-.019 1.609-.019 2.442-1.989-.511-4.015-.643-6.041-.435-2.253.246-4.393 1.212-6.059 2.746-1.363 1.344-2.367 3.143-2.613 5.055-.227 1.174-.095 2.272-.076 3.446-1.439.246-2.878.493-4.317.814-.322.095-.644.133-.852.436-.644.966-1.117 2.064-1.666 3.086-.152.284-.227.322-.53.341-4.223.36-8.407 1.553-12.27 3.333-4.961 2.272-9.392 5.642-12.838 9.884-1.78 2.196-3.333 4.601-4.601 7.119-.133.303-.436.114-.663.057-.682-.284-1.344-.606-2.064-.795-1.742-.511-3.56-.379-5.339-.152-2.651.322-5.208 1.004-7.858 1.326-.777.057-1.534.113-2.254-.265-.776-.379-1.287-1.174-1.685-1.913-1.666-3.067-2.158-6.684-3.692-9.713-.947-2.026-2.197-3.958-3.768-5.529-2.367-2.235-5.151-3.901-8.464-4.166-1.288-.019-2.556-.095-3.768.303-.852.284-1.742.606-2.481 1.098.852.208 1.648.246 2.424.644.095.076.17.17.227.284-1.174.265-2.253.208-3.37.663-1.61.644-3.219 1.761-4.109 3.275-.454.777-.644 1.591-.89 2.443.379.038.757-.17 1.136-.284 1.174-.303 2.462-.227 3.352.682 1.382 1.306 1.742 3.01 2.045 4.828.34 2.518.624 4.904 1.533 7.29.644 1.742 1.648 3.295 3.181 4.393.436.322 1.004.53 1.383.89.359.833.511 1.742.833 2.575 1.098 2.935 2.935 5.586 5.68 7.195 2.329 1.326 5.075 2.045 7.745 1.42 1.136-.246 2.082-.776 3.067-1.363.833.568 1.647 1.06 2.67 1.174.852.057 1.685.057 2.499-.208 2.045-.606 3.901-2.045 5.416-3.522 1.496-1.401 2.234-2.935 3.881-4.09l.341-.133c-.057 1.364-.36 2.689-.341 4.052-.113 3.901 1.193 7.783 3.295 11.04 1.931 3.048 4.734 5.623 7.706 7.63 1.818 1.288 3.769 2.197 5.776 3.143 1.817 1.364 3.162 3.295 4.109 5.34.53 1.174.852 2.424.795 3.711.094 2.178-.852 4.261-2.14 5.965-.189.265-.473.53-.568.833.265 2.462.625 4.923 1.042 7.366 3.995-.038 8.047 1.041 11.436 3.181 3.711 2.575 7.177 5.756 10.698 8.615.682.625 1.477 1.212 2.026 1.95.379.89.322 2.008.228 2.935-.171 1.307-.455 2.557-1.099 3.712-.852-.228-1.798-.644-2.669-.568-.265.037-.265.473-.341.681-.549 2.954-.701 5.965-.455 8.975.209 1.61.587 3.219 1.42 4.639.777-.151 1.458-.833 2.045-1.325 2.462-2.234 3.617-5.378 4.318-8.54.284-1.382.378-2.897.927-4.203.284-.511.701-1.288 1.326-1.439.511 1.136.473 2.48-.095 3.597-.076.228-.265.398-.113.625.511.89 1.192 1.704 1.912 2.443 1.174 1.136 2.348 2.215 3.711 3.105 1.969 1.288 4.223 1.95 6.571 2.083.094-.757-.019-1.477-.076-2.215-.417-3.409-1.553-6.533-2.973-9.657-.284-.72-.833-1.515-.814-2.291-.038-.265.076-.701-.114-.89-.53-.322-1.117-.493-1.628-.871-.947-.682-1.818-1.458-2.67-2.254-.189-.227-.473-.34-.36-.681.209-.777.644-1.496.966-2.235 1.931-3.938 4.147-7.744 6.665-11.342.53-.776 1.117-1.533 1.723-2.253 1.345-1.647 2.235-3.446 3.295-5.264 1.155.53 2.196 1.25 3.295 1.837 1.552.852 3.124 1.875 4.79 2.48-.265 1.118-.871 2.159-1.363 3.182-.417.889-.947 1.723-1.42 2.575-.228.378-.095.719-.057 1.117.36 2.045.095 4.128-.284 6.173-.739 3.408-1.856 6.627-3.124 9.884-.777 2.139-1.875 4.203-2.784 6.324-.284.7-.738 1.344-.947 2.064.038 1.25.549 2.499.549 3.768 0 .7.019 1.401-.037 2.083-.038.17-.019.606-.228.643-.719.266-1.571.19-2.31.19-.094 1.496.057 2.973.133 4.468.265 3.257.682 6.419 2.556 9.184.227.265.644.871 1.023.871 2.101-1.818 3.181-4.431 3.692-7.12.265-1.23.208-2.461.322-3.692-.019-1.363-.209-2.802-.038-4.166.189-1.211.909-2.139 1.818-2.916.359-.265.246-.662.284-1.06.227-6.021 2.064-11.91 4.279-17.458.246-.663.53-1.325.89-1.95.663-1.117 1.325-2.31 2.196-3.314.36-.397.796-.738 1.099-1.174.7-1.136.89-2.291 1.249-3.541.493.682.587 1.61.966 2.367.757.436 1.723.587 2.575.795 3.219.739 6.684.095 9.846-.7-.075-.246-.132-.492-.246-.72-.682-1.287-1.496-2.537-2.31-3.73-1.193-1.704-2.651-3.143-3.976-4.734-.568-.681-1.383-1.23-1.818-2.007-.114-.246.265-.416.398-.568 1.42-.984 2.556-2.442 3.465-3.9.341-.625.738-1.25.965-1.913.284-1.022.038-2.177.341-3.238.795-2.991 3.106-5.775 6.078-6.797.228-.038.682-.303.815-.038.151.795.132 1.628.246 2.443.056.814.227 1.628.189 2.442-.246.436-.663.758-.89 1.212-.435.833-.379 1.856.057 2.689.208.416.53.719.795 1.079l-.038.246c-.738.303-1.59.227-2.348.114-.606.492-1.003 1.136-1.514 1.704-.417.492-.871.947-1.25 1.477.284.53.454 1.287.852 1.704.947-.454 1.704-1.041 2.802-1.06 1.042-.114 1.932.378 2.632 1.117.019.17-.038.265-.189.284-.852.246-1.591.606-2.348 1.06-.019 1.42-.057 2.84-.038 4.261.265.624.814 1.136 1.117 1.742.625-.209 1.364-.133 1.61-.871 1.458-.19 2.897.302 3.995 1.268.189.133.379.398.606.379.7-.303 1.382-.72 2.026-1.136-.133-.455-.303-.985-.227-1.458.416-.568 1.022-1.023 1.609-1.401 1.837-1.099 3.768-1.761 5.813-2.31.227-.038.474-.076.72-.114.113.473.341.909.473 1.363 1.117-.416 2.178-1.041 3.2-1.647 1.704-1.117 3.371-2.234 4.923-3.598.227-.208.474-.359.739-.53-.152 1.288-.531 2.556-.606 3.863-.095 1.912-.095 3.863.17 5.756.53-1.174.89-2.405 1.515-3.503.492-.89.985-1.761 1.628-2.537.133-.19.341-.303.549-.398.076.966-.018 1.913.038 2.878.171 2.594.625 5.056 2.216 7.177-.076-1.856-.152-3.712 0-5.586.265-2.14.643-4.261 1.174-6.362.227-.947.416-1.913.814-2.784.057-.151.151-.227.303-.208.606.852 1.193 1.704 1.912 2.48 1.591 1.61 3.106 3.182 4.942 4.545.303-1.477.474-2.992.512-4.507.17-1.533.132-3.067 0-4.582-.038-1.742-.436-3.37-.758-5.074-.151-.872-.53-1.667-.719-2.538 1.23.493 2.234 1.25 3.616 1.42-.587-1.287-1.534-2.575-1.969-3.938-.208-.682-.473-1.363-.549-2.083.7.095 1.325.436 2.007.606.701.246 1.515.246 2.329.189zm-88.028 22.628c-.985 2.688-2.462 5.131-4.053 7.498-.946 1.496-2.12 2.878-3.048 4.374-.227-.114-.455-.228-.625-.417-1.155-1.06-2.102-2.386-3.105-3.541-.739-.833-1.458-1.704-2.178-2.556-1.193-1.401-2.499-2.689-3.616-4.147-1.231-1.495-2.557-2.859-3.958-4.184-.341-.284-.113-.625-.038-.985.701-2.158 1.97-3.957 3.447-5.661.17-.19.284-.398.568-.379 1.117 1.837 1.495 4.166 2.139 6.211.076.113.171.208.284.303 1.591 1.211 3.409 2.026 5.321 2.594.208.056.398.037.53-.095 1.913-1.666 4.317-2.821 6.665-3.73.852-.284 1.78-.701 2.689-.72.114 1.913-.379 3.655-1.022 5.435zm20.695-16.038c-.643 1.817-1.041 3.692-1.458 5.585-.89-.208-1.59-.852-2.499-1.098-.549-.492-1.174-.909-1.761-1.363 1.458-1.553 2.765-3.181 3.749-5.075.341-.643.606-1.325.947-1.969.663.133 1.325.852 1.912 1.212-.17.947-.587 1.78-.89 2.708zm.966-81.288c-.852-.132-1.723-.208-2.575-.284.151-.417.549-.682.7-1.079-.227-1.591-.7-3.238-.53-4.923.095-.928.228-1.875.512-2.746.227-.265.378.076.53.227.435.568.776 1.174.984 1.875.303.947.909 1.515 1.439 2.348-.246.246-.416.454-.568.776.303.758.852 1.401 1.25 2.102.341.587.871 1.155 1.023 1.818-.909-.076-1.856-.038-2.765-.114zm23.744 84.412c-.208.492-.34.966-.719 1.363-.473-.568-.53-1.306-.227-1.95.322-.492.625-.606 1.212-.606.075.436-.114.795-.266 1.193zm6.003-14.485c-.606.871-1.061 1.817-1.382 2.84-.606 1.95-1.023 3.919-.834 5.964 0 .398.133.909 0 1.269-.662.473-1.306.909-1.836 1.515-.379-.076-.739-.152-1.117-.208-.209-1.515-.152-3.049-.284-4.564-.057-.928-.057-1.836-.133-2.764-.038-.379.095-.701.303-1.004 1.193-1.704 2.234-3.503 3.162-5.358.208-.303.379-1.023.871-.852.985.246 1.95.738 2.746 1.363-.512.625-1.061 1.155-1.496 1.799z"/><g fill="#d2202e"><path d="m116.222 2.329c.417.776.796 1.553.985 2.424-1.628-.057-3.219-.36-4.847-.284.038-.512-.114-1.193.094-1.648 1.231-.208 2.5-.568 3.768-.492z"/><path d="m111.167 6.211c1.969.019 3.844.056 5.718.738 1.818.473 3.39 1.401 4.942 2.462.928.662 1.799 1.287 2.897 1.647.436.133.947.038 1.401 0-.833.814-2.31.568-3.351.417-1.439-.133-2.765-.644-4.166-.966-.681-.152-1.344-.379-2.026-.53-.662-.114-1.344-.171-2.026-.303-2.329-.417-4.639-.341-6.987-.322-1.212.113-2.423.17-3.616.416-1.553.152-3.03.568-4.526.985-.303.095-.625.114-.947.133.095-.133.19-.247.284-.36 3.447-2.803 7.934-4.431 12.403-4.317z"/><path d="m107.834 13.273c.265.019.53.038.796.057.568.625.757 1.345 1.079 2.121.587.019 1.155.019 1.742 0 .17-.417.379-.909.719-1.193.322-.284.682-.398 1.061-.587.341.549.909.966 1.306 1.477-.208.341-.776.454-1.098.682.511.17.947.397 1.515.321.7-.094 1.401-.378 2.064-.587-.133.947-1.098 1.458-1.799 1.951-.379.776-.663 1.704-.833 2.556.151.36.473.644.719.947-1.174.094-2.423-.322-3.484-.814-1.155-.89-1.666-2.632-2.045-3.996-.34-.038-.662-.075-1.003-.113.019-1.099-.246-1.894-.739-2.822z"/><path d="m65.912 17.837c.493.056 1.099.246 1.421.625.454.852.435 2.007.435 2.934-.038.644.057 1.269-.341 1.799-.322-.246-.814-.359-.776-.852 0-1.136.076-2.442-.246-3.541-.114-.265-.682-.719-.493-.965z"/><path d="m103.12 19.617c.454.397.643 1.174.795 1.742-1.079-.398-2.007-.871-3.181-.89.303.757.795 1.363 1.06 2.139.398 1.212.606 2.481.227 3.712-.435-.587-.587-1.326-1.079-1.913-.72-.89-1.761-1.761-2.973-1.666.947 1.268 1.382 2.745 1.193 4.336-.644-.644-.966-1.496-1.534-2.197-.473-.587-1.06-1.192-1.798-1.42-.038.247-.076.512-.095.758-.606-.038-1.212-.171-1.818-.209-1.325.038-2.651.114-3.976.247-.928.075-1.799.34-2.746.265-.284-.417-.454-.852-1.003-.928-1.193-.227-2.405-.227-3.598-.568.057-.474.057-.909.227-1.363.114-.36.36-.266.644-.322.568-.019 1.136-.038 1.685.038.417.189.758.568 1.155.776 1.193.095 2.424.095 3.598-.095 1.439-.076 2.897.057 4.336-.057.53-.284.909-.776 1.42-1.098 1.117-.7 2.367-1.212 3.692-1.401 1.326-.17 2.538-.284 3.769.114z"/><path d="m69.567 20.525c2.613-.17 5.055.19 7.706.152 1.307.114 2.632.076 3.939.189-.436 1.345-.758 2.689-.795 4.09-1.686-.246-3.333-.795-4.98-1.174-1.818-.416-3.636-.928-5.454-1.344-.227-.095-.814-.171-.757-.53 0-.379.038-1.117.341-1.383z"/><path d="m104.786 21.226c.416 1.988.606 4.014.322 6.04-.322 3.446-1.572 6.609-3.314 9.562-.852 1.496-1.912 2.86-2.689 4.393-.227-.549-.151-1.136-.416-1.685-.133-.379-.436-.814-.303-1.231.795-.795 2.102-1.609 2.575-2.707-.644.17-1.231.378-1.894.303-.378-.038-.814-.19-.946-.587.662-.095 1.401-.171 1.855-.701.228-.398.246-.795.663-1.022.871-.569 1.723-1.44 1.799-2.519-1.136.852-2.348 1.515-3.73 1.875-.625.132-1.288.094-1.932.094.947-.454 1.97-.643 2.878-1.192 2.367-1.231 4.071-3.541 4.658-6.135.455-1.458.436-2.954.474-4.488z"/><path d="m111.186 24.104c1.117.644 2.139 1.42 3.37 1.875.814.397 1.742.492 2.575.833.512.435 1.004.89 1.439 1.401-.473-.019-.927.057-1.42-.019.171.606.777.985 1.326 1.212.757.265 1.666.132 2.48.17.322.928.985 1.704 1.269 2.632-.89.114-1.837-.189-2.651-.492-1.628-.644-2.802-2.064-3.692-3.503-.398-.72-1.193-.757-1.856-1.174-1.174-.644-2.329-1.685-2.84-2.935z"/><path d="m108.364 24.293c.644.853.966 1.913 1.724 2.727.984 1.25 2.31 1.875 3.73 2.537.625 1.174 1.287 2.292 2.31 3.181.492.455 1.079.682 1.609 1.061.19.492.057.928-.113 1.382-.36-.227-.758-.341-1.174-.492.246.606.662 1.231.738 1.874.114.701.114 1.383-.132 2.045-.531-.435-.966-.871-1.705-.833-1.42-.019-2.821 1.25-3.824 2.14-.966.776-1.667 1.78-2.538 2.651-.189-1.117-.473-2.235-.606-3.371-.075-.587-.378-1.212-.303-1.799 1.08-1.06 2.405-2.007 3.769-2.669.34-.19.7-.284.927-.606-1.893-.228-3.635.189-5.472.492-.587-1.799-.644-3.673-.511-5.548.208-1.628.663-3.389 1.571-4.772z"/><path d="m119.82 34.424c.379.019.776.038 1.136.075 1.25 1.932 2.367 3.939 3.579 5.889.114.208.303.341.473.474.095-.228.171-.777.53-.587.474.151.928.303 1.193.757.417.738.966 1.439 1.231 2.234-1.022.512-2.026 1.174-3.105 1.553-.568-.985-1.288-1.912-1.78-2.954.151-.227.208-.492.36-.719-.417-.284-.758-.644-1.061-1.061-.606-.833-1.23-1.666-1.855-2.499-.152-.208-.303-.417-.322-.682-.095-.814-.303-1.647-.379-2.48z"/><path d="m105.486 35.238c.228.379.247.909.303 1.344.171 1.25.19 2.5.36 3.749.019 1.534.095 3.03-.151 4.545-.038 1.401-.322 2.745-.606 4.128-.095.53-.303 1.022-.512 1.514-.492-.246-.927-.511-1.363-.833-.984-.663-2.177-.776-3.313-.511-.36-1.023-.019-2.386.284-3.408.965-3.276 3.256-5.586 4.355-8.748.208-.587.34-1.231.643-1.78z"/><path d="m118.305 38.078c.057 1.023-.359 1.875-.662 2.821-.644 1.97-1.723 3.598-2.897 5.283-.133.227-.493.644-.341.909.757 1.079 1.874 1.458 2.821 2.197-.606 0-1.231-.076-1.818-.19-1.098-.208-2.083-.89-2.991-1.515-.152-.151-.531-.303-.398-.568.17-.397.511-.757.795-1.079 1.174-1.363 2.5-2.537 3.56-4.014.871-1.193 1.363-2.481 1.931-3.844z"/><path d="m130.064 45.311c1.193 2.443 2.177 4.98 3.276 7.48.151.302.132.587.151.908-.322.038-.625.057-.947.095-.037.682.171 1.363.209 2.045-.341-.284-.663-.587-.928-.928-1.932-2.367-3.844-4.809-5.51-7.365-.303-.341.208-.398.416-.568 1.118-.512 2.178-1.174 3.333-1.667z"/><path d="m138.793 54.173c0 .814-.076 1.628-.038 2.442-.019.284.095.512-.189.701-.379.151-1.08.151-1.288-.284-.284-.606-.208-1.439-.227-2.102-.625.777-.36 1.685-1.25 2.31.265.19.492.493.682.777.284.852.227 1.874.208 2.764-1.155-.019-1.855-1.022-1.969-2.083-.076-.965.17-2.007.379-2.954.189-.814.624-1.78 1.382-2.215.7-.379 1.95-.133 2.31.644z"/><path d="m126.428 53.662c.55.757 1.061 1.571 1.553 2.366-1.193.038-2.31-.303-3.503-.435-1.685-.246-3.389-.303-5.093-.227-.531 1.477-1.761 2.367-3.2 2.84-.152.114-.644.114-.568.379 2.423.795 4.695 2.385 6.74 3.881 1.383 1.061 2.746 2.178 3.996 3.409 2.196 2.082 4.298 4.279 6.286 6.589.152.208.303.379.284.644-.019 1.06-.379 2.158-.53 3.219-.511 3.294-1.477 6.456-2.083 9.713-.265.909-.435 1.837-.606 2.765-.606 2.442-.966 4.942-1.458 7.403-.416 2.708-.871 5.321-.852 8.067-1.136-.019-2.158.113-3.276-.171-3.389-.719-6.438-2.954-8.691-5.51-.341-.284.038-.719.114-1.06.776-1.97 1.78-3.806 2.973-5.567 1.268-1.856 2.783-3.484 4.317-5.131.738-.19 1.477-.171 2.196-.474 1.742-.7 3.427-1.685 4.601-3.181.228-.284.228-.606.303-.947-1.174.739-2.348 1.307-3.787 1.042.72-1.174 1.553-2.254 2.14-3.522.341-.758.871-1.647.776-2.5-.056-1.003-.038-2.007-.094-3.01 0-.341-.303-.417-.53-.587-3.333-1.894-6.571-3.977-9.657-6.268-.644-.416-1.155-.965-1.761-1.439-1.193-.852-2.272-1.912-3.314-2.954-1.06-1.041-1.988-2.234-2.726-3.521-.171-.36-.474-.853-.285-1.269.417-.985.928-1.931 1.345-2.935-.568-.36-1.515-.398-1.799-1.041 1.231.037 2.443-.171 3.654-.133-.302 1.098-1.022 2.178-1.855 2.954.057.076.095.151.113.227 1.477-.511 2.651-1.439 3.75-2.537-.076.454-.152.89-.36 1.287-.227.493-.682.777-.928 1.25 1.894-.416 3.181-1.95 4.204-3.484 2.518-.076 5.074.133 7.611-.132z"/><path d="m140.005 53.832c1.041-.246 2.291.682 2.139 1.799-.056.947-.019 1.893-.17 2.84-.133.814.265 1.458-.303 2.178-.417-.663-.795-1.288-1.553-1.572-.454-.114-.984-.095-1.458-.095.076-.322.095-.606.379-.814.511-.511 1.269-.189 1.875-.114-.152-.492-.55-.643-.89-.965-.19-.246-.057-.568-.057-.852.379.056.757.075 1.117.113-.284-.359-.738-.549-1.155-.719.057-.171.076-.36.019-.549.416-.038.757 0 1.155.094-.227-.492-.644-.568-1.098-.757-.019-.189-.019-.379 0-.587z"/><path d="m147.901 57.922c1.211-.208 2.556.227 3.787.341 1.95.189 3.862.587 5.813.738 1.022.114 2.045.341 3.067.455 1.837.17 3.654.53 5.472.757.227.057.606.095.682.379-.114.606-.417 1.174-.568 1.78-.208.833-.303 1.704-.398 2.556-1.382-1.023-2.935-1.534-4.525-2.159-3.977-1.458-8.048-2.632-12.062-4.033-.435-.17-.947-.303-1.306-.606z"/><path d="m180.961 59.437c-.152.738-.36 1.193-.909 1.704-.663.606-1.288 1.42-2.064 1.874-.473-.208-.909-.53-1.325-.833-.379.379-.341 1.117-.455 1.61-.625-.322-.852-.947-1.42-1.345-.189.606-.227 1.25-.416 1.856-1.421-.227-2.879-.303-4.299-.549 0-.814.19-1.61.72-2.253.227-.114.549-.019.795 0 .985.151 1.988.019 2.992.132.53.019 1.079.171 1.553-.076 1.287-.606 2.594-1.211 3.881-1.817.303-.133.625-.209.947-.303z"/><path d="m138.49 62.542c.511-.133 1.06-.019 1.439.379.151.246.17.606.208.89.152 2.026.303 4.033.493 6.059.075 3.048.53 6.059.624 9.089.095 1.249.19 2.48.284 3.73.152 2.102.417 4.203.455 6.305.114 1.572.284 3.143.36 4.734.265 2.121.246 4.279.473 6.419.057.662.227 1.287-.095 1.912-.397-2.556-.511-5.131-.909-7.706-.094-1.231-.189-2.424-.359-3.655-.227-2.442-.493-4.866-.796-7.29-.151-2.101-.473-4.184-.624-6.305-.512-4.09-.89-8.142-1.326-12.27-.095-.757-.322-1.553-.227-2.291z"/><path d="m98.499 63.034c2.841.625 5.51 2.291 8.01 3.749 1.931 1.042 3.616 2.367 5.605 3.295.7.36 1.439.568 2.158.871.152.057.246.171.284.341-1.041-.038-2.196.114-3.2-.152-2.992-.662-5.87-1.874-8.577-3.256-2.235-.966-4.299-2.045-6.741-2.424-2.064-.436-3.939.076-5.87.776.208-.965 1.06-1.723 1.856-2.253 1.912-1.212 4.279-1.477 6.475-.947z"/><path d="m86.741 73.032c.303.132.549.379.814.568.606.511 1.363.814 2.007 1.288-.947.208-1.912.378-2.84.643-.417.095-.852.247-1.288.228-.587-.341-1.079-.852-1.628-1.25-.341-.265-.776-.492-1.042-.833.095-.095.228-.171.398-.19 1.136-.265 2.405-.606 3.579-.454z"/><path d="m144.928 74.357c4.071 1.761 7.915 4.034 11.436 6.741 4.299 3.446 8.01 7.536 10.85 12.251 1.913 3.2 3.503 6.589 4.582 10.168 1.099 3.276 1.705 6.665 2.14 10.092.114 1.97.379 3.882.208 5.851-.833-3.238-1.912-6.381-3.446-9.353-3.806-7.612-9.903-14.202-16.587-19.39-2.783-2.139-5.718-4.147-8.842-5.756-.19-.133-.512-.284-.493-.549-.019-1.193 0-2.367-.094-3.56 0-1.269-.209-2.518-.19-3.787 0-.871-.189-1.761-.132-2.632.076-.284.378-.151.568-.076z"/><path d="m102.722 75.437c.53.019 1.06.246 1.571.397 1.572.512 3.182.833 4.772 1.269-.076.454-.151.909-.303 1.344-.719 2.291-1.212 4.62-1.78 6.931-.265 1.382-.492 2.764-.814 4.127-2.045-.132-4.071-.416-6.135-.587-.038-.359-.095-.719-.057-1.06.171-4.014 1.023-8.028 2.424-11.778.095-.227.17-.473.322-.643z"/><path d="m13.084 79.186c1.931.189 3.768 1.022 5.056 2.48 1.893 2.045 2.556 4.734 3.219 7.347.227 1.155.624 2.234.984 3.351-.909-.397-1.363-1.155-2.007-1.855-.095 1.231.53 2.537 1.098 3.598.474.927 1.174 1.723 1.686 2.631-.834 0-1.553-.302-2.216-.757-1.231-.852-2.158-2.253-2.897-3.541-1.306-2.386-2.367-4.904-3.692-7.29-.947-1.59-1.837-3.086-3.352-4.222-.606-.568-1.401-.833-2.026-1.364 1.326-.435 2.727-.454 4.147-.378z"/><path d="m71.025 81.912c1.609-.075 3.257-.075 4.866.019 2.31.36 4.545.796 6.703 1.742 3.749 1.439 7.044 4.166 9.695 7.139.928 1.231 1.95 2.461 2.67 3.806 1.382 2.234 2.385 4.696 3.067 7.233-.53-.549-.871-1.212-1.306-1.837-2.595-3.844-5.889-7.138-9.6-9.903-1.875-1.212-4.015-2.783-6.249-3.181.227.417.587.606.966.871 3.825 2.84 6.722 6.836 8.388 11.285.227.531.36 1.042.416 1.61-.681-.36-1.249-.89-1.969-1.231-2.348-1.287-4.999-2.064-7.668-2.196-.625.038-1.515-.114-1.989.378 2.121 1.477 4.374 3.03 6.173 4.923 2.519 2.405 4.582 5.283 6.211 8.37.416.909.89 1.836 1.117 2.802-.322-.17-.568-.379-.814-.644-1.666-1.78-3.863-3.029-6.097-3.957-.606-.246-1.174-.568-1.799-.777-1.61-.511-3.238-.984-4.866-1.457-2.083-.55-4.204-1.023-6.306-1.477-1.95-.587-3.995-1.288-5.756-2.348-1.856-1.136-3.522-2.5-4.809-4.28-1.913-2.537-2.822-5.813-2.348-8.975.416-2.12 1.571-4.109 3.351-5.358 2.348-1.648 5.207-2.159 7.953-2.557z"/><path d="m115.957 104.578c.36.075.644.435.928.643.208.209.568.379.663.663.019.682-.189 1.363-.189 2.045.037 1.439.378 2.878 1.401 3.938 1.212 1.326 2.935 1.856 4.696 1.894.587-.038 1.382-.189 1.761-.682.34-.568.378-1.079 1.079-1.325.227.549.246 1.174.095 1.742-.284.795-.871 1.401-1.591 1.799-1.022.606-2.443.568-3.579.397-2.821-.7-5.472-3.086-5.907-6.059-.133-1.742-.171-3.446.643-5.055z"/><path d="m119.574 106.85c.36-.171.663-.038 1.022.019.815.189 1.629.322 2.424.568.701.227 1.515.17 2.197-.076.605-.227 1.192-.776 1.874-.568.833.208 1.685.435 2.481.719.227.398.151 1.023.151 1.458-.966-.151-2.007-.511-2.992-.397-1.477.511-2.859 1.78-4.582 1.836-1.704-.018-2.935-1.969-2.575-3.559z"/><path d="m49.136 107.02c.133.417.265.814.36 1.231 1.287 5.207 4.431 9.827 8.634 13.122.777.681 1.685 1.136 2.424 1.855-1.988-.757-3.863-2.007-5.529-3.294-2.481-1.988-4.715-4.658-5.7-7.726-.454-1.666-.624-3.522-.189-5.188z"/><path d="m89.865 117.188c.549.417.852.966 1.231 1.515 1.363 2.064 2.518 4.298 3.446 6.608.398.947.795 1.913 1.041 2.916.057.209.019.398-.113.568-.739 1.136-1.666 2.121-2.765 2.916-.511.36-1.022.833-1.666.909-.132-1.003.152-1.912.265-2.916.189-1.325.133-2.632.133-3.976 0-1.023-.19-2.007-.303-3.03-.171-1.836-.814-3.692-1.269-5.51z"/><path d="m168.521 120.464c0 1.098-.398 2.007-.72 3.048-.984 2.613-2.556 5.208-4.752 6.968-.36.247-.815.701-1.288.493-.606-.246-1.136-.777-1.572-1.25-1.23-1.269-1.988-2.954-1.855-4.753.038-1.552.871-2.821 1.969-3.862 2.272-1.932 5.643-2.045 8.218-.644z"/><path d="m171.096 122.925c.36.076.473.455.644.739.757 1.59.757 3.541.303 5.207-.739 2.443-2.386 4.639-4.336 6.249-.247.208-.531.321-.815.454-.019-.928-.075-1.875.019-2.802.133-.322.436-.568.644-.834 1.344-1.609 2.386-3.465 3.067-5.453.436-1.193.379-2.329.474-3.56z"/><path d="m177.307 131.086c.946.89 1.647 2.178 2.196 3.352.719 1.458.985 3.029 1.269 4.601.075.417.037.814.037 1.231-1.211-1.117-2.196-2.5-3.029-3.901-.341-.644-.795-1.382-.795-2.12-.038-1.042.037-2.14.322-3.163z"/><path d="m108.497 135.612c1.136.076 2.272.246 3.408.379.417.037.625.302.928.549 2.216 2.139 5.188 3.54 8.047 4.658 1.913.757 3.901 1.287 5.87 1.912.493.189 1.117.379 1.477.776.227.55.322 1.118.663 1.61.719 1.155 1.874 1.799 2.84 2.859 1.231 1.363 2.443 2.783 3.427 4.336.209.303.322.625.417.966-.814.189-1.572.454-2.424.397-1.117.038-2.045-.037-3.124-.378-.738-2.045-1.666-3.996-2.954-5.756-.53-.966-.322-2.405-.038-3.428-.833.114-1.496.474-2.215.852-.246-.056-.436-.454-.606-.624-.871-1.212-2.102-1.856-3.446-2.424-2.651-1.155-5.226-2.5-7.631-4.09-.568-.36-1.003-.89-1.553-1.288-.833-.473-1.855-.662-2.745-1.041-.152-.076-.246-.17-.341-.265z"/><path d="m76.251 141.917c-.208 1.326-.758 2.594-.966 3.92-.057.227.171.359.284.511 1.174 1.003 2.405 2.007 3.371 3.219-1.023-.379-1.913-1.079-2.897-1.572-1.193-.719-2.462-1.306-3.617-2.064-.095-.284.417-.606.587-.795 1.193-.966 2.14-2.158 3.238-3.219z"/><path d="m100.298 169.505c.209.72.417 1.439.777 2.102.738 1.382 1.306 2.821 1.723 4.317.322.966.492 1.932.397 2.954-1.59-.719-3.408-1.628-4.449-3.067-.19-.284-.474-.549-.303-.909.416-1.231.34-2.67-.284-3.806-.057-.189-.266-.436-.19-.625.701-.379 1.515-.871 2.329-.966z"/><path d="m89.411 176.265c.378-.019.189.53.132.739-.625 1.798-1.647 3.332-2.859 4.79-.076-.095-.151-.189-.227-.284-.208-.701-.284-1.572.019-2.272 1.098-.909 2.045-1.856 2.935-2.973z"/><path d="m111.754 188.327c.322.17.246.53.246.833-.189 1.761-.833 3.522-1.591 5.112-.132.208-.189.568-.511.511-.397-.624-.662-1.647-.625-2.385.36-.625.89-1.155 1.288-1.78.492-.701.833-1.496 1.193-2.291z"/></g></g></svg>