<svg clip-rule="evenodd" fill-rule="evenodd" viewBox="0 0 560 400" xmlns="http://www.w3.org/2000/svg"><g fill="#231f20"><path d="m178.41 246.409 3.601 9.772 3.634-9.772h3.068l-6.1 14.911h-1.967l-5.669-14.911h3.434zm20.278 11.274c-.667.464-1.734 1.264-3.032 1.264-1.267 0-2.468-.501-2.468-1.969 0-1.597 1.501-2.298 3.432-2.467l2.068-.162zm.033 2.098c-.033.33.1.901.301 1.301h3.734c-.234-.431-.503-1.531-.534-2.301v-8.371c0-2.568-1.8-4.336-5.166-4.336-3.035 0-5.102 1.001-6.003 1.433l.833 1.902c.699-.299 2.101-.964 4.103-.964 2.267 0 2.7 1.298 2.7 2.601v1.23l-3.101.134c-3.701.201-5.702 2.402-5.702 4.937 0 2.432 1.735 4.07 4.536 4.07 2.098 0 3.532-1.07 4.299-1.637"/><path d="m215.797 261.083v-9.704c0-1.467-.599-2.535-2.334-2.535-1.667 0-3.067 1.003-3.734 1.43v10.809h-3.569v-14.674h3.403l.099 1.535c.668-.538 2.267-1.87 5.233-1.87 2.869 0 4.469 1.8 4.469 4.505v10.504h-3.568zm14.604-15.008c2.868 0 4.199.57 4.999.903l-.767 2.234c-.767-.303-1.698-.699-3.766-.699-1.934 0-4.433 1.73-4.433 5.231 0 3.302 2.5 5.237 4.433 5.237 2.068 0 3.034-.403 3.835-.668l.831 2.171c-.766.399-2.167.935-5.168.935-4.733 0-7.767-3.141-7.767-7.675.001-4.633 3.768-7.668 7.803-7.668m14.936 2.368c2.3 0 4.102 2.265 4.102 5.299 0 3.036-1.802 5.304-4.102 5.304-2.501 0-4.135-2.268-4.135-5.304.001-3.067 1.434-5.299 4.135-5.299m0-2.369c-4.468 0-7.967 2.967-7.967 7.67s3.501 7.675 7.967 7.675c4.499 0 8.001-2.972 8.001-7.675s-3.501-7.67-8.001-7.67"/><path d="m260.173 246.409v9.704c0 1.468.503 2.537 2.201 2.537 1.634 0 2.935-.964 3.566-1.435v-10.805h3.568v14.674h-3.401l-.097-1.531c-.667.531-2.402 1.867-5.169 1.867-2.832 0-4.268-1.774-4.268-4.506v-10.504h3.599zm15.335 0 3.601 9.772 3.635-9.772h3.067l-6.102 14.911h-1.965l-5.669-14.911h3.434zm20.989 5.506h-6.169c.234-1.908 1.203-3.439 3.134-3.439 1.77.001 2.869 1.235 3.035 3.439m-6.234 2.198h10.035c0-5.636-3.132-8.038-6.736-8.038-3.966 0-7.103 3.335-7.103 7.807 0 4.698 2.868 7.537 7.37 7.537 3.631 0 5.032-.835 5.902-1.238l-.803-1.968c-.664.304-1.731.77-4.031.77-3.101 0-4.635-1.87-4.635-4.869"/><path d="m303.497 261.083v-14.674h3.336l.134 2.435c.534-.699 2.068-2.769 3.997-2.769 1.271 0 2.069.57 2.539.903l-1.367 2.535c-.401-.301-.934-.538-1.867-.538-1.465 0-2.667 1.544-3.199 2.072v10.037h-3.573zm26.556-3.679.289-.215c1.605-1.179 4.946-3.65 4.946-6.559 0-2.826-2.483-4.879-5.911-4.879-2.658 0-4.673.937-5.535 1.339l-.211.1.93 1.956.204-.095c.581-.267 1.931-.89 4.205-.89 2.071 0 2.998 1.383 2.998 2.757 0 2.286-3.208 4.705-4.574 5.736l-.227.167c0 .003-4.055 3.142-4.055 3.142l.825 1.415h11.65l.681-2.628h-7.914l1.701-1.346m17.306-11.653c-4.702 0-7.988 3.267-7.988 7.953 0 4.701 3.286 7.986 7.988 7.986 4.684 0 7.956-3.286 7.956-7.986-.004-4.687-3.272-7.953-7.956-7.953m0 13.717c-2.212 0-4.603-2.205-4.603-5.763 0-3.431 1.854-5.735 4.603-5.735 2.234 0 4.54 2.146 4.54 5.735 0 3.232-1.996 5.763-4.54 5.763"/><path d="m357.156 247.888.216 1.472 4.205-.181v12.198h3.13v-15.603l-.294.079-7.256 2.034zm19.913-2.137c-4.703 0-7.985 3.267-7.985 7.953 0 4.701 3.282 7.986 7.985 7.986 4.685 0 7.956-3.286 7.956-7.986 0-4.687-3.271-7.953-7.956-7.953m0 13.717c-2.212 0-4.601-2.205-4.601-5.763 0-3.431 1.849-5.735 4.601-5.735 2.546 0 4.539 2.519 4.539 5.735.003 3.232-1.993 5.763-4.539 5.763"/></g><path d="m197.25 122.225c13.726.967 135.078.998 149.467.047 0 0 2.752-.159 3.677-.427 6.588-1.604 2.834-13.382-4.842-15.32-1.393-.334-3.887-.549-3.887-.549-13.362-1.086-115.848-3.232-128.086-2.66-1.691.067-2.973.303-2.973.303-8.183 1.405-20.75 15.179-16.949 17.898 0 0 .485.557 3.592.709" fill="#004b8d"/><path d="m240.945 166.74c5.987 1.409 60.755-1.259 67.512-3.265 0 0 .353-.077.778-.312.277-.13.392-.252.6-.427 2.768-2.784-3.038-29.678-6.93-32.152-.688-.418-1.316-.604-1.316-.604-5.484-1.778-54.635-1.081-60.083.83 0 0-.827.253-1.508.918-3.436 3.692-3.932 30.27-.671 34.148.004.001.56.648 1.619.864" fill="#7398c5"/><path d="m267.473 173.891c1.786 6.078 3.204 48.88 1.631 52.353-.189.552-.462.781-.462.781-2.241 2.897-30.272 2.387-32.741-.563-.27-.26-.32-.756-.32-.756-.316-2.912 10.702-45.156 13.129-50.562.507-1.108.89-1.45.89-1.45 2.65-2.7 16.3-3.728 17.347-1.219 0 0 .178.29.525 1.416" fill="#ed2924"/><path d="m323.859 224.158c-3.794 2.717-39.626 3.651-43.182 1.079-.66-.459-.959-1.082-.959-1.082-2.502-4.822-4.966-42.539-3.231-48.514.249-1.004.827-1.622.827-1.622 2.586-2.597 26.365-3.105 29.158-.446 0 0 .604.575.812.877 3.072 4.262 16.995 43.754 17.141 48.564-.003-.001.063.681-.566 1.145" fill="#fbaf33"/><path d="m262.543 96.382c1.497 1.37 19.336 2.412 21.974 1.304.414-.174.667-.618.667-.618.43-.757.927-3.235 1.372-6.367l-13.467-3.74 14.021-.637c.722-6.493 1.142-13.659.562-14.736-.118-.218-.319-.393-.319-.393-1.438-1.449-22.088-1.628-24.498-.27-.444.249-.618.649-.618.649-1.279 2.679-1.372 22.549-.056 24.383 0 0 .214.286.363.425" fill="#00a551"/><path d="m308.642 231.132h2.228v.315h-.926v2.827h-.383v-2.827h-.919zm5.888 0 .062 3.142h-.382l-.036-2.339-.92 2.372h-.236l-.885-2.291-.068 2.258h-.336l.104-3.142.362.003.982 2.556.983-2.558h.37zm2.655-.251.218.137-1.702 3.525-.227-.133 1.712-3.529zm3.887.251.059 3.142h-.381l-.033-2.339-.918 2.372h-.24l-.888-2.291-.066 2.258h-.336l.105-3.142.357.003.986 2.556.983-2.558h.368zm3.412 3.008c-.192.141-.466.293-1.001.293-.897 0-1.435-.842-1.435-1.678 0-.833.538-1.679 1.435-1.679.568 0 .82.167.941.245l-.11.311c-.096-.049-.356-.219-.814-.219-.575 0-1.041.588-1.041 1.342 0 .76.486 1.341 1.085 1.341.478 0 .681-.147.801-.23l.138.274z" fill="#231f20"/><path d="m224.342 296.271c0-9.721 7.878-17.602 17.595-17.602 9.719 0 17.595 7.881 17.595 17.602 0 9.719-7.877 17.601-17.595 17.601-9.717 0-17.595-7.882-17.595-17.601m17.595 14.66c8.096 0 14.656-6.562 14.656-14.66 0-8.093-6.56-14.662-14.656-14.662-8.092 0-14.655 6.569-14.655 14.662 0 8.099 6.563 14.66 14.655 14.66m20.535-14.66c0-9.721 7.877-17.602 17.595-17.602 9.713 0 17.591 7.881 17.591 17.602 0 9.719-7.878 17.601-17.591 17.601-9.719 0-17.595-7.882-17.595-17.601m17.595 14.66c8.09 0 14.649-6.562 14.649-14.66 0-8.093-6.559-14.662-14.649-14.662-8.096 0-14.656 6.569-14.656 14.662 0 8.099 6.56 14.66 14.656 14.66m-36.663 1.477c0-9.726 7.881-17.602 17.598-17.602s17.593 7.877 17.593 17.602c0 9.719-7.875 17.593-17.593 17.593-9.717 0-17.598-7.874-17.598-17.593m17.598 14.658c8.092 0 14.656-6.563 14.656-14.658 0-8.094-6.565-14.67-14.656-14.67-8.096 0-14.656 6.575-14.656 14.67 0 8.094 6.56 14.658 14.656 14.658m20.528-14.658c0-9.726 7.882-17.602 17.597-17.602 9.719 0 17.597 7.877 17.597 17.602 0 9.719-7.878 17.593-17.597 17.593-9.715 0-17.597-7.874-17.597-17.593m17.597 14.658c8.093 0 14.659-6.563 14.659-14.658 0-8.094-6.566-14.67-14.659-14.67-8.094 0-14.656 6.575-14.656 14.67 0 8.094 6.562 14.658 14.656 14.658m1.471-30.795c0-9.721 7.877-17.602 17.594-17.602 9.721 0 17.597 7.881 17.597 17.602 0 9.719-7.875 17.601-17.597 17.601-9.717 0-17.594-7.882-17.594-17.601m17.594 14.66c8.096 0 14.656-6.562 14.656-14.66 0-8.093-6.56-14.662-14.656-14.662-8.094 0-14.656 6.569-14.656 14.662 0 8.099 6.562 14.66 14.656 14.66" fill="#004b8d"/></svg>