<svg clip-rule="evenodd" fill-rule="evenodd" stroke-linejoin="round" stroke-miterlimit="1.41421" viewBox="0 0 560 400" xmlns="http://www.w3.org/2000/svg"><g fill-rule="nonzero" transform="matrix(6.59535 0 0 6.59535 100 134.157)"><path d="m0 19.966h54.584v-19.966h-54.584z" fill="#e32124"/><path d="m47.553 7.987c.04 0 .081 0 .104-.041.006-.017.011-.035.011-.052 0-.035-.017-.064-.046-.081-.029-.012-.058-.012-.121-.012h-.029v.18h.081zm-.052-.284c.086 0 .127 0 .162.017.115.035.127.139.127.174 0 .006 0 .029-.006.052s-.017.07-.081.11c-.012.006-.012.006-.029.012l.145.266h-.139l-.127-.243h-.081v.243h-.128v-.631zm.052.891c.312 0 .561-.254.561-.561 0-.313-.249-.561-.561-.561-.307 0-.556.248-.556.561 0 .307.249.561.556.561zm-.44-.561c0-.243.197-.446.44-.446.248 0 .445.203.445.446 0 .237-.202.44-.445.44-.238 0-.44-.203-.44-.44zm-3.901 3.571c-.74 0-1.36-.498-1.551-1.175h4.098l.567-.88h-4.67c.185-.677.816-1.18 1.55-1.18h2.825l.561-.88h-3.449c-1.383 0-2.5 1.117-2.5 2.494 0 1.378 1.117 2.494 2.5 2.494h2.963l.561-.879h-3.461zm-11.742.879c-1.377 0-2.494-1.117-2.494-2.494s1.117-2.494 2.494-2.494h3.449l-.567.879h-2.824c-.891 0-1.614.724-1.614 1.615s.723 1.615 1.614 1.615h3.461l-.567.879h-2.963zm-18.229-.879c.891 0 1.62-.724 1.62-1.615s-.723-1.615-1.62-1.615h-2.772c-.891 0-1.615.724-1.615 1.615s.724 1.615 1.615 1.615zm-2.836.879c-1.383 0-2.5-1.117-2.5-2.494s1.117-2.494 2.5-2.494h2.9c1.377 0 2.494 1.117 2.494 2.494s-1.117 2.494-2.494 2.494zm10.104-1.614c.938 0 1.69-.758 1.69-1.69s-.752-1.69-1.69-1.69h-4.201v4.994h.961v-4.114h3.177c.44 0 .804.364.804.81 0 .445-.364.804-.804.804h-2.709l2.859 2.5h1.395l-1.927-1.614zm15.88.735v-4.109h-.955v4.514c0 .127.047.243.139.335.093.087.22.145.353.145h4.381l.567-.88h-4.479zm-11.748-.88h2.564l-1.354-2.182-2.488 3.947h-1.129l3.021-4.734c.133-.191.353-.307.596-.307.231 0 .451.11.584.296l3.033 4.745h-1.134l-.533-.88h-2.592l-.568-.879z" fill="#fefefe"/></g></svg>