<svg clip-rule="evenodd" fill-rule="evenodd" viewBox="0 0 560 400" xmlns="http://www.w3.org/2000/svg"><path d="m291.759 218.533c-.026.963.11 1.923.4 2.842.327 1.097.973 2.073 1.858 2.8.673.566 1.444 1.003 2.275 1.292 1.783.65 3.45.8 5.333.5 1.349-.191 2.596-.827 3.542-1.808.974-.949 1.382-2.342 1.075-3.667-.239-1.23-1.137-2.234-2.333-2.608-1.467-.483-2.742-.808-4.267-1.067l.008-.008c-4.133-.708-7.608-1.367-11.716-2.217-2.083-.425-3.808-.942-5.783-1.725-3.781-1.437-6.771-4.427-8.208-8.208-1.364-3.311-1.488-7.005-.35-10.4.939-2.812 2.702-5.277 5.058-7.075 2.867-2.25 5.733-3.625 9.283-4.458 2.642-.617 4.917-.95 7.616-1.1 4.477-.292 8.974-.04 13.391.75 1.864.316 3.691.824 5.45 1.517 1.817.682 3.512 1.651 5.025 2.867 1.777 1.362 3.117 3.217 3.85 5.333.761 2.059 1.15 4.237 1.15 6.433h-18.816c.117-2.176-1.247-4.175-3.317-4.858-2.192-.733-4.242-.792-6.475-.15-1.221.334-2.254 1.154-2.858 2.267l-.092.183c-.137.307-.208.639-.208.975 0 .937.552 1.792 1.408 2.175.462.215.945.382 1.442.5 1.133.267 2.1.45 3.25.617 4.073.593 8.104 1.45 12.066 2.567l2.133.608c3.27.915 6.29 2.558 8.833 4.808 1.892 1.599 3.287 3.707 4.017 6.075 2.147 6.394.095 13.489-5.133 17.749-1.123.958-2.354 1.782-3.667 2.458-2.958 1.563-6.163 2.606-9.475 3.083-7.054 1.158-14.28.702-21.133-1.333-3.328-.902-6.379-2.621-8.875-5-2.025-1.883-3.367-3.883-4.35-6.466-.642-1.725-.925-3.283-.925-5.117v-1.133h19.516zm232.726 10.966c-3.797 4.107-8.819 6.881-14.316 7.908-3.867.783-7.25.95-11.175.542-4.982-.446-9.735-2.302-13.7-5.35-3.287-2.399-6.023-5.473-8.025-9.016-1.6-2.712-2.668-5.705-3.15-8.816-.75-4.533-.55-8.516.642-12.95 2.725-10.083 10.3-17.224 20.524-19.349 5.833-1.208 11.016-1.083 16.791.408 3.932.967 7.544 2.947 10.475 5.741 1.877 1.711 3.429 3.747 4.583 6.008 1.432 2.653 2.088 5.657 1.892 8.666h-18.224c-.344-2.353-1.617-4.474-3.533-5.883-2.47-1.935-5.912-2.102-8.558-.417-1.807 1.084-3.145 2.806-3.75 4.825-1.559 4.741-1.641 9.845-.233 14.633.54 2.028 1.647 3.862 3.192 5.283 1.733 1.706 4.184 2.482 6.583 2.083 1.493-.192 2.865-.928 3.85-2.067 1.056-1.143 1.752-2.572 2-4.108.2-1.125.308-2.083.375-3.225h19.208c.46 5.577-1.531 11.087-5.45 15.083zm-148.179 2.858c-3.082 2.422-6.686 4.093-10.525 4.883-2.858.633-5.325.883-8.241.883-2.775.02-5.542-.277-8.25-.883-3.839-.79-7.442-2.462-10.525-4.883-4.958-3.792-8.108-8.441-9.775-14.458-1.072-3.722-1.426-7.613-1.042-11.466.482-6.351 3.339-12.292 8-16.633 4.22-4.167 9.67-6.871 15.541-7.708 2.117-.333 3.908-.475 6.041-.475s3.933.142 6.041.475c5.872.836 11.322 3.539 15.541 7.708 4.662 4.34 7.52 10.282 8 16.633.367 4.05.05 7.55-1.042 11.466-1.517 5.788-4.962 10.89-9.766 14.458zm-246.568-1.4c-1.844 2.279-4.252 4.037-6.983 5.1-5.591 2.352-11.833 2.667-17.633.892-5.35-1.472-9.445-5.827-10.583-11.258-.483-2.142-.558-4.033-.25-6.208.396-3.124 1.912-6.001 4.267-8.091 1.757-1.65 3.866-2.881 6.166-3.6 2.493-.816 5.034-1.478 7.608-1.983 2-.408 3.7-.717 5.716-1.05 2.414-.395 4.807-.915 7.166-1.558.542-.15 1.008-.292 1.542-.5.833-.307 1.55-.867 2.05-1.6.608-.858.758-1.858.458-2.858-.464-1.57-1.686-2.807-3.25-3.292-2.326-.8-4.862-.756-7.158.125-1.59.547-2.84 1.801-3.383 3.392-.374 1.017-.538 2.101-.483 3.183l-17.941-.442c-.158-.325-.25-.625-.283-.975-.234-1.848-.061-3.726.508-5.5 1.391-4.735 4.894-8.571 9.483-10.383 2.042-.85 3.85-1.375 6.016-1.75 7.362-1.35 14.921-1.199 22.224.442 2.298.473 4.508 1.302 6.55 2.458 3.474 1.872 5.991 5.138 6.916 8.975.763 2.865 1.15 5.818 1.15 8.783.042 5.791.108 10.666.225 16.458.092 4.408.258 8.125.558 12.516v.008c.083 1.496.557 2.944 1.375 4.2h-19.749c-.5-.558-.833-1.108-1.083-1.817-.45-1.283-.808-2.367-1.2-3.667l-1.267-9.166 1.267 9.166zm119.642-.153.021.153c-1.844 2.279-4.252 4.037-6.983 5.1-5.591 2.352-11.833 2.667-17.633.892-5.35-1.472-9.445-5.827-10.583-11.258-.483-2.142-.558-4.033-.25-6.208.396-3.124 1.912-6.001 4.267-8.091 1.757-1.65 3.866-2.881 6.166-3.6 2.493-.816 5.034-1.478 7.608-1.983 2-.408 3.7-.717 5.716-1.05 2.414-.395 4.807-.915 7.166-1.558.542-.15 1.008-.292 1.542-.5.833-.307 1.55-.867 2.05-1.6.608-.858.758-1.858.458-2.858-.464-1.57-1.686-2.807-3.25-3.292-2.326-.8-4.862-.756-7.158.125-1.59.547-2.84 1.801-3.383 3.392-.374 1.017-.538 2.101-.483 3.183l-17.941-.442c-.158-.325-.25-.625-.283-.975-.234-1.848-.061-3.726.508-5.5 1.391-4.735 4.894-8.571 9.483-10.383 2.042-.85 3.85-1.375 6.016-1.75 7.362-1.35 14.921-1.199 22.224.442 2.298.473 4.508 1.302 6.55 2.458 3.474 1.872 5.991 5.138 6.916 8.975.763 2.865 1.15 5.818 1.15 8.783.042 5.791.108 10.666.225 16.458.092 4.408.258 8.125.558 12.516v.008c.083 1.496.557 2.944 1.375 4.2h-19.749c-.5-.558-.833-1.108-1.083-1.817-.45-1.283-.808-2.367-1.2-3.667l-.021-.153-1.246-9.013 1.246 9.013zm221.581-47.687v53.298h-19.924v-53.298zm-296.941 5.625c2.474-2.196 5.263-4.007 8.275-5.375 4.914-2.359 10.542-2.776 15.75-1.167 5.691 1.567 10.191 5.963 11.891 11.616.862 2.644 1.29 5.411 1.267 8.191v34.399h-21.166v-30.932c0-1.033-.133-1.917-.433-2.9-.501-1.729-1.772-3.135-3.442-3.808-3.697-1.592-8.05-.151-10.066 3.333-.839 1.389-1.272 2.986-1.25 4.608v29.699h-20.499v-53.298h19.224l.45 5.633zm235.735 0c2.474-2.196 5.263-4.007 8.275-5.375 4.914-2.359 10.542-2.776 15.75-1.167 5.691 1.567 10.191 5.963 11.891 11.616.862 2.644 1.29 5.411 1.267 8.191v34.399h-21.166v-30.932c0-1.033-.133-1.917-.433-2.9-.501-1.729-1.772-3.135-3.442-3.808-3.697-1.592-8.05-.151-10.066 3.333-.839 1.389-1.272 2.986-1.25 4.608v29.699h-20.499v-53.298h19.224l.45 5.633zm-357.114 47.665h-22.641v-74.614h36.999c1.475 0 2.717.025 4.192.108 9.825.525 17.916 5.983 22.074 14.891 2.124 4.405 2.937 9.329 2.342 14.183-1.028 10.524-8.836 19.214-19.191 21.358-3.309.746-6.691 1.112-10.083 1.092h-13.691v-17.483h8.891c1.683 0 3.117-.042 4.8-.133 2.262-.086 4.359-1.217 5.675-3.058.72-.949 1.179-2.069 1.333-3.25.15-1.033.167-1.917.067-2.967-.361-3.854-3.646-6.829-7.516-6.808h-13.25v56.682zm312.216-16.533 11.45 12.483zm-235.155-7.337c-2.347 1.07-4.419 1.827-6.913 2.529-2.025.57-4.027 1.22-6 1.95-.826.294-1.589.741-2.25 1.317-1.035.851-1.506 2.217-1.217 3.525.167.843.572 1.621 1.167 2.242.677.738 1.555 1.266 2.525 1.517 1.25.35 2.367.442 3.658.317 1.542-.158 2.833-.492 4.25-1.117 1.466-.62 2.706-1.677 3.55-3.025l.072-.112c.731-1.162 1.151-2.307 1.337-3.687.275-1.942.283-3.608.05-5.558l-.228.104zm118.433 9.254c.775-1.2 1.217-2.375 1.408-3.8.275-1.942.283-3.608.05-5.558-2.442 1.125-4.567 1.908-7.141 2.633-2.025.57-4.027 1.22-6 1.95-.826.294-1.589.741-2.25 1.317-1.035.851-1.506 2.217-1.217 3.525.167.843.572 1.621 1.167 2.242.677.738 1.555 1.266 2.525 1.517 1.25.35 2.367.442 3.658.317 1.542-.158 2.833-.492 4.25-1.117 1.466-.62 2.705-1.676 3.55-3.025zm116.721-1.917c.775-1.725 1.225-3.267 1.508-5.142.567-3.742.492-6.991-.233-10.716-.34-1.842-1.055-3.595-2.1-5.15-1.438-2.184-3.885-3.502-6.5-3.502s-5.062 1.317-6.5 3.502c-1.075 1.65-1.725 3.225-2.1 5.15-.725 3.717-.792 6.966-.225 10.716.252 1.777.76 3.51 1.508 5.142.781 1.804 2.221 3.244 4.025 4.025 1.037.467 2.161.709 3.297.709 3.153 0 6.026-1.858 7.319-4.734zm106.105-58.082v14.083h-19.924v-14.083z"/></svg>