<svg clip-rule="evenodd" fill-rule="evenodd" viewBox="0 0 560 400" xmlns="http://www.w3.org/2000/svg"><path d="m396.485 109.791h-17.372c-.787-2.164-2.032-4.132-3.648-5.771-5.064-5.066-11.872-5.882-15.847-1.908-.821.837-1.453 1.84-1.852 2.941-1.343-.965-2.809-1.753-4.357-2.342-2.449-5.12-5.88-12.362-13.668-12.362-2.505.025-4.967.641-7.189 1.798-5.773-4.52-18.135-13.015-30.768-13.015-13.887 0-33.165 12.742-38.775 12.742-4.138 0-13.342-20.367-27.663-20.367-7.678 0-15.467 5.227-24.78 10.837-8.821 5.337-11.163 11.709-13.722 18.515-2.077 3.299-4.586 6.302-7.461 8.931h-44.382l75.642 131.57h-51.79l-16.5 29.678h75.969c2.842-.099 5.62-.864 8.115-2.232l34.308 59.686 33.382-58.106h27.827v-16.283h-1.906c0-5.663-4.301-11.816-6.426-14.539l-.38-2.342 6.37-11.11 37.196-13.724c5.049-2.143 8.805-6.546 10.128-11.872 3.094-.331 5.926-1.904 7.842-4.355 2.786.792 5.657 1.248 8.551 1.36 5.61 0 11.546-3.158 13.069-9.202 0 0 5.936-3.65 8.604-14.923l-46.288-15.301 27.773-48.305z" fill="#fff"/><path d="m360.434 166.754 5.827 1.959-.054 3.704c-3.104-.11-5.61-.707-5.61 8.387 0 6.753 1.306 8.931 1.306 10.837 0 3.212-.271 3.975-10.454 3.975-2.046-1.875-4.483-3.27-7.135-4.084s-.11-.49-.327-1.416l43.022-74.826h-13.071c.98-1.85.056-4.954-2.342-7.35-2.776-2.778-6.37-3.65-8.059-1.961-.79.868-1.079 2.083-.763 3.214l-5.337 5.607c.11-.816.38-5.281-8.005-7.678-2.505-5.01-4.63-11.273-9.694-11.273-2.821.209-5.506 1.294-7.678 3.104-2.172 1.811-15.357-14.321-30.278-14.321-13.015 0-30.877 12.742-38.775 12.742-8.385 0-15.847-20.367-27.61-20.367-6.372 0-13.887 5.12-21.946 10.074-8.061 4.847-9.584 10.893-11.546 15.793-1.306 3.268-5.446 7.625-10.237 12.362h-37.196l75.588 131.407c-.558.103-1.122.176-1.689.217h-56.308l-10.403 18.678h66.711c3.226-.172 6.285-1.507 8.604-3.758l1.089-1.143 32.675 56.854 30.222-52.551h25.487v-5.339h-6.099l-1.089-3.375h.926l4.411-2.069c0-5.066-6.153-12.253-6.153-12.253l-.98-5.719 8.385-14.541 39.046-14.431c6.918-2.505 7.678-12.635 7.678-12.635s6.372 2.997 9.857-4.737c3.539 1.143 7.191 1.891 10.893 2.232 3.321 0 8.005-1.796 8.005-6.753 3.073-1.995 5.438-4.911 6.753-8.332l-45.961-15.247-1.689 5.01z"/><path d="m245.963 220.45c-2.396-5.829-1.36-7.135-1.36-7.135s-7.734-6.372-5.446-14.268c0 0-19.931-28.918-19.931-46.071 0-8.877 4.247-8.005 4.247-15.303 0-5.936-4.03-10.401-6.972-10.401-3.375 0-13.832 6.916-29.079 15.956l5.773-13.288-13.941 14.268s-2.724-13.941 4.791-21.456c1.199-1.199 2.451-2.451 3.704-3.648h-26.63l72.647 126.341c1.255-.548 2.4-1.323 3.375-2.286l11.49-11.546c-1.567-3.526-2.472-7.311-2.668-11.163zm118.391-101.346-1.036 1.197c2.489 2.757 3.431 6.587 2.505 10.184 0 3.921-2.069 3.867-2.069 3.867 0 9.094-4.791 7.461-4.791 7.461 0 11.98-13.181 7.133-13.181 7.133-1.871-.225-3.694-.759-5.39-1.579l-8.931 9.967c4.522 8.813 8.241 18.019 11.11 27.5l37.793-65.729h-16.01zm-64.423 139.846 1.579-2.722h-2.559zm33.492-126.994-1.362-3.051c-7.025 1.199-13.342-2.396-15.14-3.321-1.796-.926.163-4.847.163-4.847-.409-.647-.947-1.203-1.579-1.633h-7.352c-.794.552-1.269 1.459-1.269 2.427 0 .684.238 1.348.67 1.875 7.3 7.645 13.697 16.105 19.061 25.214l8.168-8.549zm-19.441 102.598 5.827-10.13-6.482 3.158zm-11.872-18.844c0-.816-11.982-3.975-16.665-5.771-4.301 1.687 1.253 2.505 1.253 8.113-.132 2.466-.666 4.894-1.579 7.189l-2.396.653s-4.793 8.824-7.842 7.515c-4.357 7.678-6.153 9.421-13.069 9.421-2.1.019-4.161-.568-5.936-1.687l-15.14 16.5 30.007 52.117 25.758-44.818h-18.515c.126-3.135 1.168-6.163 2.995-8.714 0-7.625 4.737-9.204 8.222-9.53 7.352-.653 10.403-.054 10.403-3.648 0-2.559-.219-5.61-.219-5.61h2.724c0-9.911-2.778-12.362-2.778-17.426 0-1.961 2.778-2.778 2.778-4.303zm-13.288 43.895h2.505l1.089-3.377h-5.5z" fill="#fcb514"/><path d="m374.102 171.274-1.852 2.776 13.181 4.413-.056-3.431zm19.66 6.533-2.015 2.724 5.12 1.689-.709-3.594-2.396-.818zm-87.787 78.42-1.959 3.375h8.005l.98-3.375h-7.025zm90.346-69.542c.217.926-.926 2.015-2.559 2.396-1.689.382-3.158-.054-3.377-.98-.217-.87.926-1.959 2.559-2.342 1.635-.38 3.16 0 3.377.926zm-107.389 62.517c.544.763-.056 2.179-1.362 3.214-1.362 1.033-2.885 1.306-3.485.544-.599-.707 0-2.179 1.36-3.212 1.308-1.036 2.887-1.308 3.487-.546zm55.765-145.511-2.451-5.227c-.217-.49-1.906-.436-1.906.599-.056.707 1.742 4.628 4.357 4.628zm-.11 5.556-7.734-10.51c-1.077-.06-2.057.647-2.34 1.689l8.385 8.931c1.089 1.143 1.689-.11 1.689-.11zm-2.451 3.921-9.204-10.51c-1.197-1.362-3.321 1.253-3.321 1.253l10.347 10.184c.982.926 2.668-.436 2.179-.926zm-3.268 2.941c0-2.288-9.857-9.857-11.38-9.857-1.579 0-2.288 1.906-2.288 1.906l12.579 8.931c.382.273 1.089-.709 1.089-.98zm-3.375 5.227c.707.38 1.852-1.852 1.143-2.342-4.266-3.001-8.784-5.624-13.505-7.842-.699.852-.998 1.964-.816 3.049zm-2.125 4.03c.49.217 1.852-1.253.926-1.906-4.061-2.408-8.282-4.537-12.633-6.372-1.525 1.525-.655 2.451-.655 2.451zm-2.885 1.47c-3.598-1.895-7.352-3.481-11.219-4.737l-.327 1.033s2.724 4.14 11.546 3.704zm29.189-5.936 5.01 8.824c-.279-3.526-1.649-6.877-3.921-9.586-2.272-2.708-1.089-.163-1.089.763zm4.303 11.818c0-3.487-5.556-9.586-5.556-9.586l-1.306 2.668 5.337 8.061s1.525.763 1.525-1.143zm-9.75-1.852s2.451 7.133 5.12 7.133c.453-3.28-.878-6.562-3.485-8.604-.827.027-1.521.651-1.635 1.472zm-3.865 3.321s1.523 9.64 5.827 9.64c.436-1.472-1.306-9.64-5.827-9.64zm1.579 14.65c1.47-6.209-4.903-12.635-4.903-12.635-4.464-.327-4.574 1.253-4.574 1.253s3.158 11.382 9.477 11.382zm-15.576-10.239c.945-.585 2.052-.852 3.16-.763-1.253-3.921-3.487-2.995-3.487-2.995-.87 1.308.327 3.758.327 3.758zm23.035-20.64c3.214-.236 6.044-2.228 7.352-5.173 0-.87-.87-1.47-2.505-1.47-1.579 0-5.88 4.574-5.88 5.882 0 .271.217.761 1.033.761zm-15.138 13.67c.234.866 1.067 1.445 1.959 1.36 3.268 0 9.913-7.023 9.913-12.796 0-1.145-1.744-1.199-1.744-1.199-6.044 3.921-10.128 12.635-10.128 12.635zm8.931-14.76c3.921-1.959-.163-7.023-2.941-5.444-6.713 4.212-11.329 11.087-12.689 18.896.903 1.108 2.381 1.579 3.758 1.199s6.153-11.872 11.872-14.648v-.002zm-82.395 81.252c-.639 2.807-.293 5.75.98 8.332.709-.38 1.199-.163 1.199-4.737s-2.179-3.594-2.179-3.594zm-6.263-3.212c-.215 3.259-.033 6.531.544 9.747.579 3.214 2.288.926 3.051-.219-.163-1.253-.163-4.028-.163-5.717 0-4.194-3.431-3.811-3.431-3.811zm-4.357-1.472c-1.253 2.724-.38 6.699-.38 9.477 0 2.885 1.906 2.776 2.832 2.286-1.089-2.179 1.852-9.694-2.451-11.763zm-3.268 7.189c0-9.857-3.375-8.168-3.375-4.628 0 3.975 2.232 5.771 3.375 4.628zm-4.357 3.214c0-.818-1.197-.763-1.197-6.918 0-4.901-5.5-3.049-5.5-.434 0 2.559 4.464 5.773 4.464 7.678 0 0 2.232.87 2.232-.327zm-10.074-5.393c-4.194 5.827 2.668 11.872 2.668 11.872 1.412.12 2.817-.308 3.921-1.199 1.104-.889-2.123-7.949-6.589-10.673zm26.086 23.035c.653 14.867-1.744 14.594-1.744 16.882 0 3.704 6.318-1.036 6.318-10.401 0-11.056-4.574-6.482-4.574-6.482zm-14.104-5.446c3.539 14.487 7.896 22.982 9.692 23.472 0 0 1.253-2.123 1.253-14.648 0 0-3.102-13.178-10.944-8.824zm-5.61 5.446c1.197 13.505 9.311 19.278 9.311 19.278l1.579-.87c-3.454-7.104-6.314-14.481-8.549-22.056l-2.342 3.648zm33.546-4.901-.327 3.158 2.123.327.599-1.796c-.599-.327-1.143-2.015-2.396-1.689zm-4.084-1.362c-2.396 0-1.525 5.283-1.525 7.025.05.918-.178 1.827-.653 2.615.49.926.436 3.375 2.015 3.375.926 0 2.232-1.36 2.232-4.791 0-5.173.11-8.224-2.069-8.224zm-5.01-2.778c-1.416 0-2.179 1.689-2.179 4.52 0 .926 1.143 1.635 1.852 1.635.436 0 1.523-1.036 1.523-4.247.002-.982-.38-1.906-1.197-1.906v-.002zm-3.431-.816c0-2.342-2.069-2.776-4.301-2.776-1.612-.178-3.111.916-3.431 2.505.136 2.243 1.529 4.227 3.594 5.118 2.21-.657 3.834-2.561 4.138-4.847zm-10.727.163s.924-3.431-1.744-3.431c-5.444 0-10.673 4.52-10.673 6.862.014.769.182 1.529.49 2.232.31.705 7.135-6.806 11.928-5.663zm78.091-71.066-62.571 65.785c-2.288 2.342 3.702 6.533 5.827 4.084l59.903-66.82c.506-.42.802-1.044.802-1.701 0-1.213-.998-2.21-2.21-2.21-.686 0-1.333.318-1.751.862zm-122.746-40.408c0-2.396 3.375-4.847 3.811-5.99-1.215-1.67-3.439-2.282-5.337-1.472-.436 6.753-2.179 9.967-2.941 14.104 2.505 2.125 1.689-3.158 5.337-3.158 1.627.227 2.881 1.575 2.995 3.214.048 1.145-.364 2.263-1.143 3.102l2.559-.217c.759-.916 1.147-2.081 1.089-3.268.056-4.901-6.426-5.01-6.426-6.316h.056zm-30.497 25.541c-2.668 3.049-3.051 11.872-3.051 11.872l22.165-19.007-8.877 16.283s14.977-6.806 16.337-10.184c-2.427-5.324-5.783-10.173-9.911-14.321-4.126-4.148-13.885 12.306-16.663 15.357zm105.32 78.581c13.069 5.61 25.214 8.604 31.53 8.604 5.882 0 13.887-1.633 13.887-14.321 0-8.332-4.52-20.094-11.763-31.913l-33.655 37.63zm-10.837-5.173 38.882-40.898c-14.214-19.712-34.961-37.52-53.696-37.52-16.663 0-27.936 12.306-27.936 25.324 0 23.416 21.02 41.604 42.749 53.094zm89.474-26.574 2.505.816 2.941-4.357 13.722 4.574.163 5.337 2.724.872 3.049-4.247 4.63 1.525 1.143 5.663 1.906.653c2.059-1.439 3.77-3.317 5.01-5.5l-42.53-14.051-.546 1.635 5.393 1.796-.056 5.283h-.054zm-53.096 83.537-1.47 5.173h-14.431l-1.908-5.173h-2.722l-1.689 5.173h-4.847l-2.939-5.173h-1.581c-1.678 1.99-2.84 4.367-3.375 6.916h44.765v-1.742h-5.665l-1.633-5.173h-2.505zm-149.213 7.025h9.039l7.842-14.051h-9.094l-7.786 14.051zm73.191-18.408c-2.885 2.604-6.577 4.142-10.456 4.357h-.327l-6.372 14.051h6.645c2.594-.159 5.047-1.242 6.916-3.051l18.569-20.204-4.247-5.99-10.727 10.837z" fill="#fff"/></svg>