<svg clip-rule="evenodd" fill-rule="evenodd" stroke-linejoin="round" stroke-miterlimit="1.41421" viewBox="0 0 560 400" xmlns="http://www.w3.org/2000/svg" xmlns:xlink="http://www.w3.org/1999/xlink"><radialGradient id="a" cx="0" cy="0" gradientTransform="matrix(2.9156 0 0 -2.9156 170.41 27.5938)" gradientUnits="userSpaceOnUse" r="1"><stop offset="0" stop-color="#fff"/><stop offset=".48" stop-color="#fff"/><stop offset=".58" stop-color="#fffefc"/><stop offset=".66" stop-color="#fffcf3"/><stop offset=".72" stop-color="#fff8e4"/><stop offset=".78" stop-color="#fff2ce"/><stop offset=".84" stop-color="#ffeab1"/><stop offset=".89" stop-color="#ffe18f"/><stop offset=".94" stop-color="#ffd566"/><stop offset=".98" stop-color="#ffc937"/><stop offset="1" stop-color="#ffc425"/></radialGradient><linearGradient id="b"><stop offset="0" stop-color="#6d6e71"/><stop offset="1" stop-color="#231f20"/></linearGradient><radialGradient id="c" cx="0" cy="0" gradientTransform="matrix(1.87925 0 0 -1.87925 170.176 27.5383)" gradientUnits="userSpaceOnUse" r="1" xlink:href="#b"/><radialGradient id="d" cx="0" cy="0" gradientTransform="matrix(5.05768 0 0 -5.05768 138.745 29.1421)" gradientUnits="userSpaceOnUse" r="1"><stop offset="0" stop-color="#fff"/><stop offset=".47" stop-color="#fff"/><stop offset=".6" stop-color="#fffefd"/><stop offset=".68" stop-color="#fffcf4"/><stop offset=".74" stop-color="#fff8e6"/><stop offset=".79" stop-color="#fff3d2"/><stop offset=".84" stop-color="#ffecb8"/><stop offset=".89" stop-color="#ffe399"/><stop offset=".93" stop-color="#ffd973"/><stop offset=".97" stop-color="#ffce48"/><stop offset="1" stop-color="#ffc425"/></radialGradient><radialGradient id="e" cx="0" cy="0" gradientTransform="matrix(2.25447 0 0 -2.25447 139.323 28.032)" gradientUnits="userSpaceOnUse" r="1" xlink:href="#b"/><linearGradient id="f" gradientTransform="matrix(-12.4041 -70.3481 70.3481 -12.4041 31.9476 143.862)" gradientUnits="userSpaceOnUse" x1="0" x2="1" y1="0" y2="0"><stop offset="0" stop-color="#4f2582"/><stop offset=".48" stop-color="#fdfdfe"/><stop offset="1" stop-color="#fdfdfe"/></linearGradient><linearGradient id="g" gradientTransform="matrix(-12.7617 -72.3754 72.3754 -12.7617 83.1458 144.086)" gradientUnits="userSpaceOnUse" x1="0" x2="1" y1="0" y2="0"><stop offset="0" stop-color="#4f2582"/><stop offset=".11" stop-color="#4f2582"/><stop offset=".6" stop-color="#fdfdfe"/><stop offset="1" stop-color="#fdfdfe"/></linearGradient><linearGradient id="h" gradientTransform="matrix(-15.2347 -86.3994 86.3994 -15.2347 172.709 152.982)" gradientUnits="userSpaceOnUse" x1="0" x2="1" y1="0" y2="0"><stop offset="0" stop-color="#4f2582"/><stop offset=".31" stop-color="#4f2582"/><stop offset=".77" stop-color="#fdfdfe"/><stop offset="1" stop-color="#fdfdfe"/></linearGradient><g fill-rule="nonzero" transform="matrix(1.31731 0 0 1.31731 115.343 99.8087)"><path d="m168.42 29.6c2.48 0 3.93 1.17 4.45.48 1.01-1.36.85-3.75.06-4.65-.28-.31-.73-.46-1.27-.46-1.01 0-2.33.52-3.35 1.48-.01-.01-2.37 3.15.11 3.15z" fill="url(#a)"/><path d="m168.42 29.6c-1.01-2.14.22-3.61.22-3.61s1.59-.98 2.79-1.02c0 0 1.31 1.62.29 5.01.01 0-1.5.07-3.3-.38" fill="#9e28b5"/><path d="m169.49 25.51s-.7 2.33-.03 4.36l.66.07.59.04c.9-2.14.04-4.95.04-4.95s-.35.06-.77.22c-.43.18-.49.26-.49.26z" fill="url(#c)"/><path d="m185.33 45.66c.11-.04 2.84-1.07 11.72-1.46l-11.33 2.39zm-.04 7c.1.01 4.57 2.67 17.87 1.56z" fill="#6d6e71"/><path d="m185.37 43.51s0-1.26-2.1-3.36-3.57-2.73-4.83-5.25c-.61-1.23-1.89-2.53-3.42-3.56.23-1.64-.17-3.02-.45-3.99-.29-1.01.44-1.87.44-1.87l.8-.51c-6.04-6.74-12.26-14.42-20.24-16.94s-17.64-5.25-25.41-6.93-10.07-.84-13.23.21c-3.15 1.05-4.18.96-6.8.96-2.88 0-7.48-.75-7.48-.75-6.33-.2-35.43 16.93-41.57 17.9s-.97 2.26 1.94 3.56c2.91 1.29 9.51 6.01 12.75 6.65 0 0-6.25 7.55-14.37 19.53-6.78 10.04-17.1 17.56-31.33 19.82l82.45 39.62c.78-10.75 13.54-18.96 15.95-18.69 7.14.83 16.16 7.14 18.9 9.24 2.72 2.1 11.24 7.78 17.12 2.94 5.88-4.83 4.71-11.13 4.71-11.13s.74-4.1 2.33-9.56c1.62-5.59 4.2-9.38 5.91-13.66 1.6-3.99 4.57-5.34 4.78-7.43.21-2.1 1.05-2.31 5.04-6.72 4-4.4-1.89-10.08-1.89-10.08zm-15.92-17.63c.6-.41 2.14-.43 3.5-.41.77.93.92 3.27-.08 4.61-.03.04-.1.04-.14.07-.99-.39-2.01-.65-2.96-.65-3.36 0-2.54-2.11-.32-3.62z"/><path d="m133.55 24.78s-1.23 4.48.35 6.62c1.57 2.15 3.72 2.71 6.77 1.58s3.72-4.74 3.72-4.74-2.82-1.69-5.76-2.14c-2.92-.45-5.08-1.32-5.08-1.32z" fill="url(#d)"/><path d="m136.44 25.73s-1.77 4.62 1.41 5.56c3.04.9 5.07-1.8 4.51-4.06 0 0-1.05-.63-2.55-.97-1.5-.33-3.37-.53-3.37-.53" fill="#9e28b5"/><path d="m138.39 30.09c2.15.8 3.58-1.56 3.17-3.3 0 0-1.18-.45-2.01-.61-.83-.17-2.09-.34-2.09-.34s-1.43 3.37.93 4.25z" fill="url(#e)"/><path d="m134.1 27.53c.55.31 1.42-.08 2.36.08.95.16 3.62 1.1 2.75.95-.86-.16-3.62.31-3.93 0-.31-.32-2.01-1.5-1.18-1.03m34.56-.27c-.55-.63.57.93.78 1.34s2.02-.21 2.59 0-1.19-1.03-1.81-1.24-1.2.31-1.56-.1" fill="#fff"/><g fill="#6d6e71"><path d="m186.51 48.84c.06 0 1.56.7 5.98 1.47 4.36.76 9 1.9 9 1.9-.04 0-4.75-.14-9.19-.91-4.36-.77-5.79-2.46-5.79-2.46"/><path d="m201.24 60.54c-.33-.12-8.07-2.92-10.77-5.16-2.47-2.06-5.19-4.02-5.19-4.02.13.02 3.16 1 5.91 3.29 2.53 2.11 10.05 5.89 10.05 5.89"/><path d="m191.09 59.05c-5.06-2.08-5.87-5.61-6-5.76z"/><path d="m155.08 30c-.15.35-.58.52-1.26.55-.46.07-4.37.65-7.68-.65-.83-.33-1.62-.87-2.54-1.49-2.89-1.98-13.21-5.21-20.98-2.16 0 0 2.6-1.3 6.76-1.99.64-.33 1.36-.75 2.04-1.27 3.85-2.93 11.2 2.44 12.87 1.16.47-.36 1.07-.5 1.64-.57-2.01-1.86-2.71-3.67-6.78-4.43-5.25-.97-4.67-4.87-11.09-6.62s4.48-.2 8.95 2.14c4.48 2.33 10.32 6.03 10.32 6.03.41.33.76.72 1.12 1.11 4.43 3.05 7.51 6.12 7.31 7.08-.1.45-.34.82-.68 1.11zm-10.87-17.67c-4.87-3.11 4.28 4.87 8.76 7.98s2.53 6.81 5.64 6.61c3.12-.19 1.75-1.75-1.75-5.84-3.5-4.07-12.65-8.75-12.65-8.75m13.04 1.37c3.47 3.47 7.2 6.23 7.01 9.73-.2 3.5.97 5.06-1.56 1.36s-7.01-12.65-5.45-11.09m8.74 7.93c2-3.38.94-1.26 1.53 1.04.45 1.77 1.5 1.86 3.76 1.14 2.9-.92 5.94 1.82 4.16 1.6-1.25-.15-6.3.47-8.12 1.8-1.83 1.33-1.51 1.58-1.67.08-.19-1.49-.72-3.87.34-5.66"/><path d="m173.7 47.14c-1.42-.79-4.26-2.68-6.93-2.36-2.68.32-4.72 0-6.61 1.58 0 0 4.09.94 6.14 1.89 0 0-1.1 1.1-4.73 1.89 0 0 1.26.32 2.68 1.73 1.42 1.42.15 1.42-.79 2.05s-2.21 4.57-4.88 4.41c0 0 5.83.79 8.82-.15 2.99-.95 8.34-4.57 9.29-6.62.95-2.06-1.57-3.64-2.99-4.42zm-3.64-.61-11.67-1.26c-5.95-.91-14.7.72-14.7.72.08 0 8.67-.63 14.39.25zm-38.07.51s13.31 2.07 19.48 1.94c6.09-.13 13.03-1.29 13.03-1.29-.07 0-6.9.17-13.07.3-6.11.13-19.31-.94-19.44-.95m7.04 8.78s27.15-5.63 27.87-5.67c0 0-17.23.91-27.87 5.67m34.58-4.55c-.13.04-17.05 4.72-23.2 9.39zm-4.89 4.19s-9.86-.13-16.44-.76c-6.69-.64-14.94-1.8-15.02-1.81 0 0 8.09 2.15 14.82 2.8 6.84.65 16.24-.17 16.64-.23m15.64-13.48c1.17 1.56.83 4.05-.39 6.23-1.4 2.5-2.56 2-2.56 2-1.2-1.37-4.19-2.65-2.12-2.91 2.08-.26-1.03-1.3-3.37-2.34-2.15-.95-3.81-3.4-2.85-3.5 1.88-.19 4.02-.65 7.01-.39s4.28.91 4.28.91m-6.68-3.57c-5.84-1.56-5.06-5.84-8.95-6.61-3.89-.78-11.48-.78-7.39-.39s6.25 4.45 9.54 7.2c1.73 1.44 8.89.42 8.89.42-.1-.13-1.73-.52-2.09-.62m-56.1-6.86s3.15 1.73 4.41 5.83c1.26 4.09.15 4.72.94 8.03s5.83 2.2 10.07 2.52c4.25.32 5.36-1.26 6.62-2.84 1.26-1.57 2.36-3.93 3.94-5.83 1.57-1.89 6.46-4.41 6.46-4.41s-1.73 0-4.41.63-5.2 3.3-7.56 4.25c-2.36.94-4.56 4.41-6.93 3.93-2.36-.47-5.98-2.83-5.98-2.83.47.63 2.52-1.26 5.2-.95 2.67.32 2.67.16 3.78-1.26 1.1-1.42 3.46-2.84 3.46-2.84-2.2.94-3.93.31-7.56.15-3.62-.15-3.31.95-5.2-1.1-1.88-2.02-7.24-3.28-7.24-3.28m64.2 15.43-2.22 3.13c-.3.2.91 2.72 1.62 3.33 0 0-.2-1.82.3-2.22.5-.41 2.22-.6 2.22-.6l-1.61-1.21c.1-.31.6-1.42-.31-2.43m-72.23-6.77s-2.68 4.09-4.41 6.3-1.78 2.91 0 6.14c1.73 3.15 4.25 5.04 4.72 6.77.47 1.74 4.25 2.05 7.4 4.57s4.57 5.04 7.87 7.87c3.31 2.84 5.04 6.14 5.04 6.14s-.95-2.52-2.05-7.09c-1.1-4.56-1.26-3.46-4.25-7.71s-5.51-3.62-8.82-8.82-5.12-4.69-5.47-8.25c-.34-3.56-.03-5.92-.03-5.92m-8.03 14.48s-1.26 4.1-1.26 5.83 1.26 4.25 3.78 5.98 4.57 1.1 7.72 4.09 7.64 11.29 12.51 9.72c0 0-2.51-.79-5.35-4.25s-1.34-5.31-4.96-8.46-5.83-3.47-7.71-6.46c-1.89-2.98-4.26-3.3-4.73-6.45m-10.2-34.86c-2.49 2.49-.73 2.49-7.61 3.8-6.87 1.32-6-.29-12.29-1.17s-4.83-.73.59-1.32c5.41-.59 23.85-6.15 19.75-1.61m7.56 2.38c.05-1.93-2.49-1.39-3.62-.06s-2.64 2.7-2.7 2.93c-.05.23 0 0 .58-1.57s-.51.13-4.19 2.01c-3.68 1.87-7.67 1.25-7.67 1.25 1.64-.86 1.45-.54-.97.03-2.43.57-1.97-.42-4.04-.39-2.07.04.33-.41-.88-.43-1.2-.02-2.92.09-2.92.09-2.37.34-3.68 1.21-.48 1.11 4.09-.12 2.82.97 5.82 1.14 2.99.16 5.38-.78 5.38-.78-.87.66-3.06 1.28-.8.92 2.26-.37 3.34-.86 3.34-.86s.88-.17.3.31c-.59.48-1.46 1.14.13.51 1.6-.63 4.36-2.21 4.36-2.21-1.14 1.94-1.35 3.47 0 1.7s.9-2.47 1.09-.01c.19 2.47.35 2.86 1.01-.75s1.43-1.02 1.75.86c.32 1.89 1.01 2.64.97.58-.04-2.07.72-3.36.72-3.36 1.95 1.03 2.54 1.15 1.61.35-.91-.8-.7-2.33-.25-1.63s1.41.18 1.41.18c-.71-1.24.05-1.92.05-1.92m-18.74 10.11s-1.42 1.26-3.15 2.68-3.15 3.46-3.15 6.3-.31 5.2.63 10.24.48 9.76.48 9.76.68-1.84 1.26-4.1c.58-2.25 1.26-5.04 1.26-7.87 0-2.84.48-5.98 1.58-7.56 1.1-1.57 1.73-2.67 1.1-4.88-.64-2.21-.01-4.57-.01-4.57m18.57-28.02s-4.54 0-9.95 3.68c-5.4 3.68-17.95 9.51-33.08 12.98 0 0 10.59-1.08 14.48-1.73s21.63-11.9 28.55-14.93m-29.78 35.8s-2.44 6.5-6.79 10.67-7.11 7.11-9.52 10.19c-1.47 1.88-8.91 5.68-8.91 5.68s7.85 1.99 11.41-1.94c6.33-6.99 11.19-7.97 11.91-15.11.72-7.16 2.36-11.2 1.9-9.49m82.21 20.67c.76.63 2.54.89 2.54.89-4.34 4.14-7.46 19.32-7.46 19.32.62-14.48 4.92-20.21 4.92-20.21"/></g><path d="m173.48 68.6-10.85 34.51-11.24-34.51h-25.12v10.34l-2.52-10.34h-82.95v2.05c-2.78-1.33-5.88-2.05-9.23-2.05h-31.32v25.41h4.14v33.26h-4.07v24.7h32.64v-24.7h-4v-.84h2.32c8.6 0 15.72-4.7 19.84-12.27l9.29 37.8h44.91l3.34-15.03h6.71l3.34 15.03h80.15v-7.62c4.88 4.76 11.31 7.45 18.82 7.45 16.26 0 28.06-14.37 28.06-34.17v-23.61h4v-25.41zm-144.51 32.32v-6.88c.68.12 1.44.7 1.44 3.43 0 1.61-.55 3.35-1.44 3.45z"/><path d="m31.58 73.54h-26.39v15.53h4.14v43.13h-4.07v14.83h22.77v-14.83h-4v-10.71h7.26c10.87 0 18.76-9.9 18.76-23.53 0-14.38-7.6-24.42-18.47-24.42zm-2.69 32.32h-4.86v-16.79h4.42c4.32 0 6.89 3.14 6.89 8.4.01 4.94-2.65 8.39-6.45 8.39z" fill="#ffc425"/><path d="m98.37 73.54v15.53h-4.37l-14.03 57.95h-15.68l-14.24-57.95h-4.31v-15.53h22.26v15.53h-3.11l7.19 32.54 7.3-32.54h-3.25v-15.53zm146.44 0v15.53h-4v28.55c0 17.21-9.51 29.23-23.12 29.23-14.53 0-23.92-11.9-23.92-30.31v-27.47h-3.9v42.43h4.07v15.53h-17.6l-.08-28.04-8.53 28.04h-10.11l-8.68-28.27v28.27h-10.68-15.59l-3.33-15.03h-14.63l-3.34 15.03h-15.73v-15.53h4.38l14.25-57.96h15.61l14.1 57.96h1.23v-42.43h-4v-15.53h16.6l14.91 45.77 14.39-45.77h35.44v15.53h-4.07v28.06c0 8.09 3.31 13.11 8.64 13.11 8.13 0 9-9.17 9-13.11v-28.06h-4v-15.53zm-128.65 43.61-4.08-18.7-4.17 18.7z" fill="#ffc425"/><path d="m11.45 86.95v47.36h-4.07v10.6h18.53v-10.6h-4v-14.94h9.38c9.74 0 16.64-8.84 16.64-21.42 0-13.26-6.61-22.3-16.35-22.3h-24.26-.01v11.29h4.14zm10.46 0h6.54c5.53 0 9.02 4.03 9.02 10.52 0 6.09-3.56 10.51-8.58 10.51h-6.98z" fill="url(#f)"/><path d="m51.71 86.95 14.24 57.96h12.36l14.02-57.96h3.93v-11.29h-18.03v11.29h3.78l-9.96 44.4-9.8-44.4h3.63v-11.29h-18.01-.01v11.29z" fill="url(#g)"/><path d="m224.24 86.95h4v30.18c0 9.53-4.21 15.22-11.12 15.22-6.39 0-10.76-5.69-10.76-15.22v-30.18h4.07v-11.29h-31.77l-15.91 50.59-16.48-50.59h-12.95v11.29h4v46.66h-5.01l-14.1-57.96h-12.28l-14.25 57.96h-3.92v11.3h11.92l3.34-15.03h18.02l3.34 15.03h22.46v-40.26l12.36 40.26h6.97l12.18-40.03.11 40.03h13.37v-11.3h-4.07v-46.66h8.14v29.59c0 17.19 8.51 28.19 21.8 28.19 12.36 0 21-11.19 21-27.11v-30.67h4v-11.29h-18.46zm-118.97 32.32 6.83-30.65 6.68 30.65z" fill="url(#h)"/><path d="m170.34 61.34s-1.21 5.74-5.25 8.94c0 0 1.05-5.98.79-8.82 0 0 2.78-.52 3.62-.94s.9.11.84.82m-11.38 1.8c-.48 1.1.41 1 .96 1.58.54.59.82-.06 1.24-.48s.88-.65.88-.65.22.39.74.65.89.26 1.16.05c.26-.21 1.05-1.21 1.15-1.63.11-.42.37-.84-.26-.94-.63-.11-3.04.52-3.04.52-.42-.04-2.83.9-2.83.9m-4.68 22.84c-.1.12.15 2.1 1.05 2.47.89.37 1.47 0 1.99-.47.53-.47 1.19-2.93 1.26-3.88.16-2.1-.52-5.35-.52-5.35s-1.42 3.3-1.89 4.3c-.43.91-1.16 2.03-1.89 2.93m5.2.42c-.37.89-.76 1.75.01 2.32.78.57 1.72.65 2.2.25 0 0 .56.28 1.05.26.8-.03 1.31-.53 1.31-.53s.51.34 1.27.28c.7-.06 1.08-.49 1.08-.49s.06.26 1.01.26c.94 0 1.26-.53 1.26-1s2.42-2.26 1.26-8.97c0 0-2.05 4.62-2.94 5.67s-.37 1.68-.37 1.68l-.44.63-.7-1.02c-.26-.27-.66-.26-.92.21s-.53.92-.53.92-.6-1.05-1.13-1.16c-.52-.11-1.32 1.89-1.32 1.89s-.16-.84-.58-1.31-.63-1.26-1.05-.73c-.42.52-.47.84-.47.84m-6.64-10.35c-.07 1.33-.2 6.08.5 7.18.69 1.1 1.19 0 1.39-.7s.3-1.49-.8-2.29c0 0 .1-.8.3-1.79.2-1-.89-1.49-.89-1.49s.1-.3.39-.9c.3-.6-.79-1.9-.89-.01m27.63-15.27c-.1-.11-.16-.57-.68-.68-.52-.1-.89.21-.89.21-.21-.27-.79-.42-1.21-.42s-1.1.52-1.1.52c-.16-.21-.68-.68-1.16-.58-.47.11-1.23.49-1.23.49-.13-.51-1.29-.28-2.13-.12s-.84 1.05-1 1.63.68 1.16.89 1.36l1-.37.94-1.26c-.1.42 0 1 .15 1.47.16.47.8.18 1.26-.05s.89-.9.89-.9l-.06.84c0 .31.42.73.84.89s.58-.16.58-.16c.05.89-.31 2.47-.58 3.36-.26.89-1.47 4.15-1.47 4.15 2.47-1.1 4.03-4.28 4.56-5.35.58-1.16 1.1-3.05 1.1-3.05s.05-.21.32-.58c.26-.37.37-.74.26-1.05-.07-.29-.8.15-1.28-.35" fill="#d1d3d4"/><path d="m169.91 61.09s-.65 4.59-3.73 7.78c0 0 .86-3.62 1.4-6.97 0 0 .98-.32 2.33-.81m-5.3 1.62c-.33.38-1.77.78-1.77.78l.85.63c.65-.6.92-1.41.92-1.41m-3.35.97c-.6.16-1.14.49-1.14.49l.38.49zm6.49 24.81c1.54-.64-.44-2.92-.44-2.92.35 1.22.25 2.1.25 2.1-.1.43.19.82.19.82m-2.06.15s.55.01.4-1.06c-.15-1.08-1.12-1.82-1.12-1.82s.47 1.34.19 2.15zm-2.32.19s1.45-1.02-.55-2.9c0 0-.01 1.61-.24 1.99.01.01.25.71.79.91m-2.42.09c1.21-.67-.59-3.06-.59-3.06-.09.7-.51 1.93-.51 1.93.25.57 1.1 1.13 1.1 1.13m8.9-8.76c-.44 2.88-1.8 5.87-1.8 5.87l.54 1.12c1.77-2.92 1.26-6.99 1.26-6.99m-11.89-.29c-.36 3.86-2.53 6.81-2.53 6.81.25.87 1.26 1.08 1.26 1.08.83-.22 1.26-2.02 1.51-3.46.26-1.44-.24-4.43-.24-4.43m-3.96.72c-.86.76.14 2.02.14 2.02l.47-.94zm-.35-2.85c-.12.69-.41.73-.41.73l.42.49.37-.63zm26.87-14.04s-.86.47-1.33.36c0 0-.63 3.13-1.42 4.83 0 0 2.22-3.02 2.75-5.19m.36-2.07s-.48 1.5-1.84 2.13c0 0 1.4-.18 2.22-1.8 0 0 .15-.25.13-.61zm-.86-1.03s-.43.27-.54.81c0 0-.32 1.05-1.19 2.2 0 0 2.81-1.4 1.73-3.01m-1.73-.19-.65.72c.15.97-.54 2.4-.54 2.4s1.08-.65 1.4-1.84c.33-1.2-.21-1.28-.21-1.28m-2.35-.11c-.57.04-1 .65-1 .65.1.43-.33 1.98-.33 1.98 2.43-1.25 1.33-2.63 1.33-2.63m-2.34.03s-.98.28-1.37.73c0 0 .05 1.22-.06 1.87.01 0 2.4-1.68 1.43-2.6" fill="#fff"/></g></svg>