<svg clip-rule="evenodd" fill-rule="evenodd" stroke-linejoin="round" stroke-miterlimit="1.41421" viewBox="0 0 560 400" xmlns="http://www.w3.org/2000/svg"><g fill-rule="nonzero" transform="matrix(2.77512 0 0 2.77512 96.7975 101.478)"><path d="m1.154 70.214 10.863-25.578h14.023l7.801-18.269h-14.023l10.863-25.577h77.126c6.814 0 16.295.79 20.837 7.604 4.543 6.814 1.087 14.813-.987 19.652-5.53 12.937-13.529 21.528-34.465 21.528h-14.517l-8.69 20.64z"/><path d="m124.694 11.06c-2.469-3.752-7.801-5.431-16.788-5.431h-74.065l-6.814 16.097h13.925l-11.752 27.651h-14.023l-6.814 16.096h58.462l6.814-16.096h-14.122l1.876-4.444h31.799c20.442 0 25.972-8.888 30.12-18.665 2.271-5.332 4.246-10.863 1.382-15.208zm-53.425 10.666h23.404c1.679 0 2.469.395 2.667.691.197.197.098.889-.297 1.975-1.185 2.765-4.049 4.543-7.505 4.543h-21.331z" fill="#9d9795"/><path d="m107.906 8.098h-72.386l-4.74 11.159h13.924l-13.924 32.588h-13.924l-4.74 11.16h53.129l4.74-11.16h-14.22l4.048-9.381h33.478c19.158 0 23.997-8.098 27.848-17.183 3.852-9.085 5.925-17.183-13.233-17.183zm-18.368 23.207h-24.984l5.135-12.048h24.984c4.444 0 6.222 2.271 4.642 6.024-1.679 3.752-5.333 6.024-9.777 6.024z" fill="#cfb991"/></g></svg>