<svg clip-rule="evenodd" fill-rule="evenodd" stroke-linejoin="round" stroke-miterlimit="1.41421" viewBox="0 0 560 400" xmlns="http://www.w3.org/2000/svg"><g transform="matrix(.407457 0 0 .407457 100 141.872)"><g fill="#747679"><g fill-rule="nonzero"><path d="m447.897 68.719h23.743v21.299h-23.743zm.001 33.687h23.743v89.561h-23.743z"/><path d="m507.781 116.722h.524c5.412-10.127 11.522-15.365 21.997-15.365 2.617 0 4.191.176 5.587.699v20.775h-.525c-15.536-1.57-26.71 6.635-26.71 25.489v43.646h-23.744v-89.561h22.871z"/><path d="m582.149 68.719h23.743v21.299h-23.743zm.001 33.687h23.744v89.561h-23.744z"/><path d="m642.378 114.626h.523c6.111-9.602 14.314-14.665 26.535-14.665 18.509 0 30.902 13.966 30.902 33.52v58.485h-23.742v-54.994c0-9.602-5.588-16.411-15.539-16.411-10.474 0-18.156 8.38-18.156 20.601v50.804h-23.741v-89.561h23.219v12.221z"/><path d="m710.111 147.099c0-26.537 17.98-47.137 44.168-47.137 28.807 0 44.169 21.997 44.169 53.945h-64.943c1.746 13.791 9.427 22.347 22.87 22.347 9.252 0 14.664-4.19 17.283-11h23.395c-3.317 15.888-17.459 29.332-40.503 29.332-29.679-.001-46.439-20.778-46.439-47.487zm23.742-9.602h39.805c-.699-11.349-8.205-19.206-19.029-19.206-12.571 0-18.681 7.508-20.776 19.206z"/><path d="m803.917 162.984h21.997c1.573 10.301 8.903 14.84 19.555 14.84 10.476 0 16.411-4.016 16.411-10.299 0-8.555-11.348-9.429-23.568-11.871-16.063-3.143-31.775-7.508-31.775-27.061 0-19.378 16.063-28.631 36.488-28.631 23.568 0 36.662 11.697 38.408 29.678h-21.473c-1.049-9.601-7.16-13.093-17.284-13.093-9.253 0-15.364 3.492-15.364 9.951 0 7.681 11.872 8.38 24.617 11 15.014 3.142 31.6 7.332 31.6 28.282 0 17.982-15.365 28.807-37.711 28.807-26.014-.002-40.502-12.571-41.901-31.603z"/><path d="m391.877 68.719h-27.634l-49.964 123.247h28.282l9.253-25.314h50.979l9.426 25.314h28.458zm-33.255 77.157 18.332-52.376 18.854 52.375h-37.186z"/></g><path d="m545.138 68.719h23.746v123.247h-23.746z"/></g><g fill-rule="nonzero"><path d="m283.464 142.692c0 78.301-63.411 141.702-141.689 141.702-78.288 0-141.775-63.401-141.775-141.702s63.487-141.763 141.775-141.763c78.279 0 141.689 63.462 141.689 141.763" fill="#bed600"/><path d="m131.447 68.713c-22.325 0-36.808 1.234-47.292 5.126-17.618 6.863-29.785 21.247-29.785 40.15 0 15.744 7.331 27.146 28.547 40.26 22.637 13.723 27.153 18.258 27.153 26.527 0 9.05-8.867 19.351-31.682 19.351-7.963 0-19.957-1.102-27.621-2.977l-3.657-.922c-2.04 5.469-6.671 18.406-8.083 23.1l3.621 1.065c6.894 2.199 23.255 3.916 34.977 3.916 38.995 0 62.261-23.559 62.261-48.229 0-15.159-6.881-26.68-30.142-41.194-11.668-7.177-17.614-11.831-21.225-15.434-2.927-3.761-3.251-6.56-3.251-9.517 0-2.823.628-6.076 2.489-8.459 2.013-2.946 5.705-4.823 10.702-6.372 5.136-1.704 14.652-1.749 29.473-1.749h13.8l9.854-24.641h-20.139zm104.291 0h-69.347l-9.855 24.64h22.986c15.467 0 18.442-.333 22.326-.333-5.607 12.827-39.4 98.941-39.4 98.941h28.6s42.784-107.197 47.318-118.436c1.256-2.508.632-4.812-2.628-4.812z" fill="#fff"/></g></g></svg>