<svg clip-rule="evenodd" fill-rule="evenodd" stroke-linejoin="round" stroke-miterlimit="1.41421" viewBox="0 0 560 400" xmlns="http://www.w3.org/2000/svg"><path d="m21.7 20.5-4.7-4.4v7.4h1.4v-4.1l4.7 4.4v-7.4h-1.4zm-10.9-4.5c-2.2 0-3.9 1.7-3.9 3.9 0 2.1 1.8 3.9 3.9 3.9 2.2 0 3.9-1.7 3.9-3.9s-1.7-3.9-3.9-3.9m0 6.4c-1.4 0-2.5-1.1-2.5-2.5s1.1-2.5 2.5-2.5 2.5 1.1 2.5 2.5-1.1 2.5-2.5 2.5m-6.3-2.5c-.4-.3-.9-.5-1.6-.7-1.4-.4-1.4-.8-1.4-1 0-.4.5-.8 1.2-.8.6 0 1.1.3 1.3.4l.1.1 1.1-.8-.1-.1s-.9-1-2.4-1c-.7 0-1.4.2-1.9.6s-.8 1-.8 1.6.3 1.2.8 1.6c.4.3.9.5 1.6.7 1.4.4 1.4.8 1.4 1 0 .4-.5.8-1.2.8-.6 0-1.1-.3-1.3-.4l-.1-.1-1.1.8.1.1s.9 1 2.4 1c.7 0 1.4-.2 1.9-.6s.8-1 .8-1.6-.3-1.1-.8-1.6m24.8-3.9c-2.2 0-3.9 1.7-3.9 3.9s1.8 3.9 3.9 3.9c2.2 0 3.9-1.7 3.9-3.9s-1.8-3.9-3.9-3.9m0 6.4c-1.4 0-2.5-1.1-2.5-2.5s1.1-2.5 2.5-2.5 2.5 1.1 2.5 2.5-1.2 2.5-2.5 2.5m6.3-2.6c.4.3.9.5 1.6.7 1.4.4 1.4.8 1.4 1 0 .4-.5.8-1.2.8-.6 0-1.1-.3-1.3-.4h-.1l-1.1.8.1.1s.9 1 2.4 1c.7 0 1.4-.2 1.9-.6s.8-1 .8-1.6-.3-1.2-.8-1.6c-.4-.3-.9-.5-1.6-.7-1.4-.4-1.4-.8-1.4-1 0-.4.5-.8 1.2-.8.6 0 1.1.3 1.3.4l.1.1 1.1-.8-.1-.1s-.9-1-2.4-1c-.7 0-1.4.2-1.9.6s-.8 1-.8 1.6c-.1.6.2 1.1.8 1.5" transform="matrix(8.97756 0 0 8.97756 100 21.3466)"/></svg>