<svg clip-rule="evenodd" fill-rule="evenodd" stroke-linejoin="round" stroke-miterlimit="2" viewBox="0 0 560 400" xmlns="http://www.w3.org/2000/svg"><path d="m295.5 0c-163.2 0-295.5 132.3-295.5 295.5s132.3 295.5 295.5 295.5 295.5-132.3 295.5-295.5-132.3-295.5-295.5-295.5zm-73.9 397.6-2.8 2.8c-5.8 5.8-12 11.3-18.4 16.4l-7.4 5.8c-.5.4-1.1.6-1.7.6-.5 0-1-.1-1.4-.4-1-.6-1.5-1.7-1.2-2.9l2.9-13.1c3.2-14.2 2.5-29.1-2-43l-1.6-4.8c-1.8-5.6-4-11.1-6.3-16.5l-34.1-80.5-3.7-11c-1.1-3.4-1.9-6.9-2.3-10.5l-.6-5.5c-1.7-15.5 3.6-30.7 14.6-41.7l2.8-2.8c5.8-5.8 12-11.3 18.4-16.4l7.4-5.8c.9-.7 2.1-.8 3.1-.2s1.5 1.7 1.2 2.9l-2.9 13.1c-3.2 14.2-2.5 29.1 2 43l1.6 4.8c1.8 5.6 4 11.1 6.3 16.5l34.2 80.5 3.7 11c1.1 3.4 1.9 6.9 2.3 10.5l.6 5.5c1.6 15.4-3.7 30.7-14.7 41.7zm115.4 26.4-3.6 3.6c-7.3 7.3-15.1 14.3-23.2 20.6l-9.6 7.6c-.5.4-1.2.6-1.8.6-.5 0-1.1-.2-1.6-.5-1.1-.7-1.6-1.9-1.3-3.1l3.8-16.9c4-18 3.1-36.8-2.6-54.3l-2-6.1c-2.3-7.1-5-14.1-8-20.9l-43.1-101.5-4.6-13.8c-1.4-4.2-2.4-8.7-2.9-13.1l-.8-7c-2.2-19.4 4.5-38.4 18.2-52.3l3.6-3.6c7.3-7.3 15.1-14.3 23.2-20.6l9.6-7.6c1-.8 2.3-.9 3.4-.2s1.6 1.9 1.3 3.1l-3.8 16.9c-4 18-3.1 36.8 2.6 54.3l2 6.1c2.3 7 5 14.1 8 20.9l43.1 101.6 4.6 13.8c1.4 4.2 2.4 8.7 2.9 13.1l.8 7c2.2 19.4-4.5 38.5-18.2 52.3zm98.4-26.4-2.8 2.8c-5.8 5.8-12 11.3-18.4 16.4l-7.4 5.8c-.5.4-1.1.6-1.7.6-.5 0-1-.1-1.4-.4-1-.6-1.5-1.7-1.2-2.9l2.9-13.1c3.2-14.2 2.5-29.1-2-43l-1.6-4.8c-1.8-5.6-4-11.1-6.3-16.5l-34.2-80.5-3.7-11c-1.1-3.4-1.9-6.9-2.3-10.5l-.6-5.5c-1.7-15.5 3.6-30.7 14.6-41.7l2.8-2.8c5.8-5.8 12-11.3 18.4-16.4l7.4-5.8c.9-.7 2.1-.8 3.1-.2s1.5 1.7 1.2 2.9l-2.9 13.1c-3.2 14.2-2.5 29.1 2 43l1.6 4.8c1.8 5.6 4 11.1 6.3 16.5l34.2 80.5 3.7 11c1.1 3.4 1.9 6.9 2.3 10.5l.6 5.5c1.7 15.4-3.6 30.7-14.6 41.7z" fill="#171fc9" fill-rule="nonzero" transform="matrix(.507614 0 0 .507614 130 50)"/></svg>