<svg clip-rule="evenodd" fill-rule="evenodd" stroke-linejoin="round" stroke-miterlimit="2" viewBox="0 0 560 400" xmlns="http://www.w3.org/2000/svg"><path d="m167.6 108.8h-18.6v13.6h18.6zm9 60.7-9-9v-25.5h-18.6v13.6h6.6v21h-48v-21h9v-39.8h-9v-21h80.4l13.4 13.6v17l-12 8.8 12 9v15.3h7.6v18zm25-148.5v42.7l-18 18h-49l-18-18v-42.7h-9v-21h49.4v21h-7.8v39.8h27.5v-39.8h-6.7v-21h39.2v21h-7.7m83.1 0h-27.6v14h27.6zm19.4 28.3h-47v11.3h8.7v21h-50.2v-21h9v-39.6h-9v-21h87l14.5 14v22.4l-13 12.8m-5.4 120.3h-61.8l-21.3-21v-39.8l21.3-21h48.7l6 7.7 6-7.6h19.5v34.4h-25.5v-13.5h-42.8v40h42.8v-13.7h25.5v16.5zm-98.4 88.2h-92.6v-21h9v-39.7h-9v-21h50.4v21h-9v39.8h34.8v-26.4h25.4v37.6zm107.8 0h-92.6v-21h8.8v-39.7h-8.8v-21h50.2v21h-9v39.8h35v-26.4h25.4v37.6zm-222.4-176h-56.6l-6.7-7.2-6 7.2h-16.3v-25h22.8v7h42.7v-11.7h-50.8l-14.7-13.7v-20l17-18.3h50.8l6.7 7.2 6-7.2h16.3v25h-23v-7h-38.4v11.8h49.6l16.6 15.7v19zm6.8 87.8h-92.4v-21h9v-39.5h-9v-21h92.4l9 10v28l-25.4.2v-17.2h-34.6v12h15v15.2h-15v12.4h34.6v-17h25.4v28l-9 10m0 88h-92.4v-21h9v-39.6h-9v-21h92.4l9 10v28h-25.4v-17h-34.6v12.3h15v15h-15v12.7h34.6v-17h25.4v28l-9 10" fill="#100f0d" fill-rule="nonzero" transform="matrix(.775194 0 0 .775194 157.132 100)"/></svg>