<svg clip-rule="evenodd" fill-rule="evenodd" stroke-linejoin="round" stroke-miterlimit="1.41421" viewBox="0 0 560 400" xmlns="http://www.w3.org/2000/svg"><path d="m312.405 1.638c-26.791 5.706-39.947 25.416-38.428 57.577l28.565-2.535c-1.302-18.17 4.256-22.48 9.877-24.85zm-39.627 108.118.01 28.242h92.212m0 .001v-31.02l-92.222 2.778m79.785-99.347c-8.565-8.091-21.122-11.41-34.856-9.438v29.647c5.562-.309 10.068 1.755 12.076 5.911 3.171 6.552-.1 16.383-7.817 25.491-11.91 14.055-43.583 42.823-43.583 42.823l45.468-1.495c27.781-27.141 37.757-43.615 39.547-64.177.941-10.878-3.007-21.36-10.835-28.762zm-201.536 103.046v24.542h34.179v-25.573zm-27.941-81.889v106.432h23.547v-109.742zm101.452 79.664v26.768h39.49v-27.961zm0-47.124v27.225l25.884-1.413v-28.028zm0-46.832v26.73l39.49-4.342v-27.939zm-32.157 4.521v116.203h27.098v-120.012zm-107.041 93.643v22.56h29.848v-23.461zm0-39.372v22.88l19.594-1.068v-23.498zm0-39.194v22.47l29.848-3.284v-23.38zm-24.522 3.448v97.678h20.671v-100.585zm-43.719 29.617v68.061h19.616v-70.066zm-17.099-21.071v19.862l53.582-5.894v-21.497z" fill="#141515" fill-rule="nonzero" transform="matrix(.986301 0 0 .986301 100 131.74)"/></svg>