<svg clip-rule="evenodd" fill-rule="evenodd" stroke-linejoin="round" stroke-miterlimit="2" viewBox="0 0 560 400" xmlns="http://www.w3.org/2000/svg"><g fill-rule="nonzero" transform="matrix(.57641523214 0 0 .57641523214 40.3606306 149.8856969)"><g><g fill="#990ae3"><path d="m81.267 123.689c19.529-11.331 33.498-25.55 39.939-40.694 2.649-10.897 4.165-22.628 4.165-35.014 0-1.731-.08-3.386-.238-4.966-1.138 18.315-24.809 41.344-56.126 56.398-37.777 18.145-66.119 23.029-78.762 9.184 4.392 8.674 10.273 17.431 16.963 25.281 15.549 13.822 41.189 8.871 74.059-10.189z"/><path d="m64.596 86.426c35.637-17.185 60.453-41.642 56.126-57.853-7.106-12.268-21.483-16.947-36.9-16.947-45.702 0-101.79 30.126-101.79 68.56 0 4.937 1.089 10.47 3.043 16.249 10.424 13.836 42.293 7.952 79.521-10.009z"/><path d="m61.591 140.901c-25.058 10.163-39.405 6.92-47.335.589l-.113-.098c12.272 12.238 26.256 20.844 38.517 20.844 21.479 0 50.884-26.045 64.796-66.448-7.838 14.582-24.665 32.501-55.865 45.113z"/></g><path d="m61.591 140.901c31.2-12.612 48.027-30.531 55.869-45.12 1.417-4.116 2.676-8.387 3.749-12.79-6.444 15.144-20.413 29.363-39.938 40.694-32.87 19.06-58.511 24.015-74.063 10.19 2.233 2.611 4.554 5.14 6.939 7.51l.113.098c7.926 6.338 22.273 9.581 47.331-.582z" fill="#fff"/><path d="m69.003 99.413c31.317-15.05 54.988-38.083 56.126-56.398-.56-5.681-2.102-10.462-4.411-14.438 4.331 16.21-20.485 40.668-56.126 57.853-37.232 17.961-69.097 23.845-79.521 10.005 1.338 3.968 3.084 8.061 5.166 12.162 12.651 13.845 40.993 8.961 78.766-9.184z" fill="#fff"/></g><g fill="#990ae3"><path d="m157.89 67.82c-1.947 0-3.897-1.459-5.843-4.377-1.274-2.026-1.909-3.556-1.909-4.611 0-1.799 1.183-3.462 3.541-5 2.359-1.531 4.925-2.302 7.695-2.302h45.963c2.922 0 4.381 1.346 4.381 4.044 0 3.073-.824 5.885-2.468 8.425-1.652 2.551-3.447 3.821-5.394 3.821h-14.951v50.793c0 3.076-.828 5.885-2.472 8.432-1.652 2.551-3.447 3.814-5.394 3.814-1.946 0-3.896-1.448-5.843-4.377-1.273-2.015-1.908-3.557-1.908-4.607v-54.055z"/><path d="m215.316 107.376c.824 3.523 2.623 6.358 5.393 8.497 2.771 2.124 6.108 3.193 10.001 3.193 3.299 0 7.23-1.122 11.803-3.371 2.098-1.047 4.044-1.568 5.844-1.568 2.396 0 3.594 1.084 3.594 3.254 0 1.958-.431 3.825-1.289 5.62-.865 1.799-1.969 3.107-3.318 3.938-2.544 1.565-5.375 2.782-8.485 3.651-3.111.862-6.203 1.297-9.272 1.297-5.397 0-10.321-1.429-14.781-4.275-4.456-2.85-7.922-6.527-10.394-11.021-2.472-4.49-3.708-9.286-3.708-14.377 0-5.7 1.35-10.851 4.048-15.459 2.695-4.607 6.217-8.164 10.56-10.673 4.347-2.51 9.105-3.765 14.275-3.765 5.02 0 9.529 1.183 13.542 3.542 4.007 2.358 7.095 5.492 9.272 9.381 2.173 3.896 3.258 8.16 3.258 12.82 0 2.396-.62 4.543-1.856 6.455-1.236 1.909-2.604 2.861-4.101 2.861zm13.935-22.696c-3.598 0-6.671 1.028-9.214 3.088-2.548 2.068-4.12 4.808-4.725 8.262h26.525c-.151-3.22-1.425-5.919-3.821-8.088-2.4-2.173-5.322-3.262-8.765-3.262z"/><path d="m276.45 130.862c-3.372 0-6.293-1.326-8.765-3.983s-3.708-5.79-3.708-9.385v-59.671c0-1.648 1.142-3.22 3.428-4.721 2.283-1.496 4.736-2.245 7.363-2.245 2.77 0 4.157 1.274 4.157 3.818v57.993c0 .975.208 1.784.62 2.419s1.142 1.179 2.192 1.629c1.198.529 1.799 1.572 1.799 3.144 0 2.767-.748 5.303-2.245 7.589-1.511 2.276-3.122 3.413-4.841 3.413z"/><path d="m299.15 66.138c-1.951 0-3.973-1.531-6.067-4.607-1.424-2.17-2.135-3.859-2.135-5.061 0-1.867 1.27-3.632 3.817-5.28 2.548-1.648 5.284-2.472 8.206-2.472 3.144 0 4.72 1.425 4.72 4.275 0 2.245-.431 4.399-1.292 6.463-.862 2.06-1.947 3.689-3.258 4.887-1.319 1.198-2.646 1.795-3.991 1.795zm0 64.724c-1.728 0-3.599-1.409-5.624-4.271-1.198-1.938-1.796-3.401-1.796-4.376v-41.919c0-1.648 1.142-3.22 3.428-4.721 2.283-1.496 4.736-2.245 7.359-2.245 2.771 0 4.161 1.274 4.161 3.825v41.911c0 2.023-.396 3.977-1.183 5.847-.786 1.875-1.757 3.334-2.917 4.385-1.164 1.047-2.306 1.564-3.428 1.564z"/><path d="m342.864 130.862c-5.398 0-10.284-1.338-14.669-4.036-4.38-2.699-7.793-6.236-10.227-10.621-2.434-4.384-3.651-9.161-3.651-14.332 0-5.54 1.387-10.594 4.161-15.171 2.771-4.569 6.365-8.111 10.787-10.62 4.418-2.51 9.177-3.765 14.275-3.765 4.343 0 8.576 1.199 12.696 3.595 2.623-1.724 5.246-2.585 7.869-2.585 2.77 0 4.161 1.273 4.161 3.824v41.912c0 2.022-.401 3.976-1.183 5.847-.786 1.874-1.758 3.333-2.922 4.384-1.16 1.047-2.301 1.565-3.424 1.565-1.723 0-3.594-1.41-5.62-4.271-.748-1.191-1.278-2.242-1.569-3.145-.601 1.652-1.406 3.073-2.419 4.279-1.012 1.198-2.078 1.98-3.201 2.362-1.583.525-3.269.778-5.064.778zm1.005-13.927c3.375 0 6.52-.938 9.445-2.808v-25.512c-2.774-1.576-5.881-2.359-9.328-2.359-4.271 0-7.846 1.444-10.73 4.328s-4.327 6.505-4.327 10.843c0 4.339 1.44 8.021 4.327 11.014 2.884 2.997 6.418 4.494 10.613 4.494z"/><path d="m449.511 70.299c-.749 0-1.652-.261-2.695-.786-4.573-2.321-8.992-3.488-13.263-3.488-4.72 0-8.938 1.126-12.642 3.375-3.708 2.249-6.561 5.268-8.546 9.048-1.984 3.783-2.978 7.96-2.978 12.533 0 4.8 1.062 9.082 3.205 12.865 2.136 3.784 4.963 6.701 8.485 8.765 3.519 2.052 7.416 3.084 11.686 3.084 4.944 0 9.816-1.085 14.608-3.254 2.548-1.126 4.608-1.682 6.184-1.682 2.698 0 4.044 1.304 4.044 3.931 0 1.946-.412 3.874-1.236 5.779-.832 1.916-1.871 3.435-3.149 4.558-2.4 2.022-5.601 3.666-9.607 4.947-4.006 1.27-7.998 1.916-11.966 1.916-7.344 0-13.996-1.886-19.948-5.627-5.957-3.742-10.564-8.667-13.822-14.774-3.258-6.104-4.887-12.719-4.887-19.835 0-7.79 1.931-14.907 5.786-21.351 3.859-6.444 8.897-11.463 15.118-15.061 6.214-3.591 12.881-5.394 20.002-5.394 7.793 0 14.793 1.95 21.014 5.847 1.126.673 1.686 1.799 1.686 3.371 0 2.771-.753 5.341-2.249 7.699-1.497 2.347-3.107 3.534-4.83 3.534z"/><path d="m491.652 72.321c5.617 0 10.689 1.384 15.224 4.162 4.528 2.77 8.035 6.417 10.507 10.953 2.472 4.535 3.708 9.418 3.708 14.664 0 5.7-1.364 10.829-4.105 15.394-2.736 4.573-6.334 8.107-10.786 10.628-4.456 2.502-9.313 3.768-14.552 3.768-5.616 0-10.699-1.394-15.231-4.165-4.532-2.77-8.035-6.425-10.507-10.96-2.472-4.532-3.708-9.415-3.708-14.665 0-5.688 1.368-10.817 4.109-15.394 2.736-4.569 6.326-8.111 10.783-10.62 4.456-2.51 9.312-3.765 14.558-3.765zm0 45.623c4.116 0 7.586-1.512 10.394-4.543 2.808-3.039 4.214-6.807 4.214-11.301s-1.406-8.262-4.214-11.289c-2.808-3.039-6.278-4.551-10.394-4.551-4.123 0-7.589 1.512-10.397 4.551-2.808 3.031-4.211 6.795-4.211 11.289s1.403 8.266 4.211 11.301c2.808 3.031 6.274 4.543 10.397 4.543z"/><path d="m568.184 130.862c-1.731 0-3.606-1.409-5.624-4.271-1.194-1.938-1.799-3.401-1.799-4.376v-28.762c0-1.656-.469-2.994-1.402-4.048-.938-1.047-2.124-1.576-3.542-1.576-3.447 0-7.494 1.871-12.136 5.624v25.613c0 2.023-.397 3.977-1.183 5.847-.786 1.875-1.753 3.334-2.914 4.385-1.168 1.047-2.305 1.564-3.432 1.564-1.723 0-3.598-1.409-5.616-4.271-1.202-1.938-1.799-3.401-1.799-4.376v-41.919c0-1.648 1.141-3.22 3.428-4.721 2.283-1.496 4.736-2.245 7.359-2.245 2.766 0 4.161 1.274 4.161 3.825v2.245c2.99-2.396 5.824-4.176 8.481-5.34 2.657-1.16 5.341-1.739 8.036-1.739 2.694 0 5.227.783 7.585 2.359 2.359 1.572 4.252 3.787 5.677 6.633 6.743-5.995 12.994-8.992 18.765-8.992 3.001 0 5.677.881 8.043 2.642 2.355 1.758 4.184 4.097 5.503 7.019 1.308 2.921 1.969 6.141 1.969 9.668v27.416c0 2.023-.397 3.977-1.183 5.847-.782 1.875-1.757 3.334-2.918 4.385-1.167 1.047-2.301 1.564-3.424 1.564-1.723 0-3.602-1.409-5.62-4.271-1.198-1.938-1.799-3.401-1.799-4.376v-28.762c0-1.656-.472-2.994-1.406-4.048-.937-1.047-2.12-1.576-3.541-1.576-3.447 0-7.495 1.871-12.136 5.624v25.613c0 2.023-.394 3.977-1.183 5.847-.787 1.875-1.754 3.334-2.914 4.385-1.176 1.047-2.314 1.564-3.436 1.564z"/><path d="m623.701 151.767c-1.723 0-3.601-1.425-5.624-4.271-1.194-1.946-1.795-3.409-1.795-4.369v-62.831c0-1.648 1.138-3.22 3.421-4.721 2.286-1.496 4.739-2.245 7.358-2.245 2.548 0 3.939 1.123 4.165 3.372 4.343-2.922 8.916-4.381 13.709-4.381 4.872 0 9.252 1.312 13.149 3.931 3.896 2.623 6.894 6.127 8.991 10.507 2.098 4.388 3.145 9.203 3.145 14.442 0 5.843-1.236 11.077-3.708 15.677-2.468 4.611-5.764 8.16-9.883 10.673-4.128 2.503-8.652 3.765-13.603 3.765-1.946 0-3.987-.238-6.126-.726-2.128-.487-4.022-1.141-5.67-1.969v11.358c0 2.014-.393 3.968-1.183 5.835-.778 1.867-1.757 3.334-2.918 4.381-1.171 1.054-2.313 1.572-3.428 1.572zm18.758-65.511c-2.018 0-4.025.375-6.013 1.123-1.98.744-3.727 1.837-5.223 3.254v23.943c3.299 1.867 6.818 2.805 10.563 2.805 3.89 0 7.174-1.497 9.831-4.502 2.657-2.989 3.995-6.693 3.995-11.111 0-4.494-1.236-8.21-3.708-11.131-2.475-2.922-5.624-4.381-9.445-4.381z"/><path d="m704.493 130.862c-5.398 0-10.281-1.338-14.665-4.036-4.377-2.699-7.793-6.236-10.227-10.621-2.438-4.384-3.651-9.161-3.651-14.332 0-5.54 1.383-10.594 4.161-15.171 2.766-4.569 6.365-8.111 10.787-10.62 4.414-2.51 9.173-3.765 14.267-3.765 4.343 0 8.576 1.199 12.696 3.595 2.619-1.724 5.242-2.585 7.865-2.585 2.77 0 4.161 1.273 4.161 3.824v41.912c0 2.022-.393 3.976-1.183 5.847-.786 1.874-1.761 3.333-2.921 4.384-1.164 1.047-2.302 1.565-3.421 1.565-1.727 0-3.602-1.41-5.62-4.271-.748-1.191-1.277-2.242-1.572-3.145-.605 1.652-1.402 3.073-2.423 4.279-1.009 1.198-2.075 1.98-3.197 2.362-1.573.525-3.258.778-5.057.778zm1.013-13.927c3.371 0 6.519-.938 9.441-2.808v-25.512c-2.774-1.576-5.885-2.359-9.328-2.359-4.271 0-7.846 1.444-10.738 4.328-2.884 2.884-4.324 6.505-4.324 10.843 0 4.339 1.44 8.021 4.324 11.014 2.892 2.997 6.429 4.494 10.625 4.494z"/><path d="m783.946 130.862c-1.724 0-3.598-1.409-5.617-4.271-1.201-1.938-1.799-3.401-1.799-4.376v-28.43c0-1.799-.619-3.269-1.852-4.433-1.235-1.168-2.834-1.75-4.784-1.75-4.116 0-9.4 2.215-15.84 6.633v24.831c0 2.023-.394 3.977-1.183 5.847-.787 1.875-1.758 3.334-2.914 4.385-1.165 1.047-2.306 1.564-3.425 1.564-1.727 0-3.602-1.409-5.627-4.271-1.191-1.938-1.796-3.401-1.796-4.376v-41.919c0-1.648 1.145-3.22 3.428-4.721 2.283-1.496 4.736-2.245 7.359-2.245 2.77 0 4.161 1.274 4.161 3.825v2.695c6.815-5.019 13.372-7.529 19.661-7.529 3.379 0 6.426.896 9.158 2.695 2.744 1.799 4.857 4.161 6.354 7.079 1.496 2.925 2.248 6.108 2.248 9.555v27.416c0 2.023-.393 3.977-1.183 5.847-.782 1.875-1.753 3.334-2.921 4.385-1.164 1.047-2.302 1.564-3.428 1.564z"/><path d="m797.201 82.885c-.673-1.349-1.01-2.362-1.01-3.035 0-1.572 1.081-3.054 3.258-4.441 2.174-1.387 4.491-2.079 6.966-2.079 1.807 0 3.001.711 3.602 2.132l13.485 28.43 11.46-25.059c.673-1.5 2.022-2.793 4.044-3.874 2.018-1.084 4.12-1.632 6.289-1.632 2.774 0 4.165 1.273 4.165 3.824 0 1.947-.412 3.856-1.236 5.73l-29.446 63.489c-.824 1.655-1.78 2.963-2.865 3.938-1.088.971-2.154 1.459-3.209 1.459-1.651 0-3.477-1.338-5.503-4.044-1.122-1.72-1.682-3.186-1.682-4.381 0-.446.189-1.122.56-2.014l9.774-21.128z"/></g></g></svg>