<svg clip-rule="evenodd" fill-rule="evenodd" stroke-linejoin="round" stroke-miterlimit="1.41421" viewBox="0 0 560 400" xmlns="http://www.w3.org/2000/svg"><g fill-rule="nonzero" transform="matrix(3.39822 0 0 -3.39822 -27.1376 2683.1)"><path d="m129.954 745.108c-2.3 1.538-5.523 2.9-9.577 4.047-2.555.723-5.399 1.349-8.466 1.864v1.97c0 .983-.398 2.416-2.294 3.666-1.179.778-2.896 1.452-5.103 2.004-3.803.951-8.822 1.474-14.132 1.474s-10.329-.523-14.132-1.474c-2.206-.552-3.923-1.226-5.103-2.004-1.896-1.25-2.294-2.683-2.294-3.666v-1.97c-3.067-.515-5.911-1.141-8.466-1.864-4.055-1.147-7.277-2.509-9.576-4.047-2.857-1.91-4.305-4.099-4.305-6.504 0-2.406 1.448-4.594 4.305-6.505 2.3-1.538 5.521-2.9 9.576-4.047 2.535-.717 5.353-1.339 8.39-1.851.025-1.283.209-2.554.545-3.761h-12.147l-4.452-21.162h14.547c2.191 0 3.712.269 5.479 1.689 0 0 .068.057.073.062 1.192-1.145 2.9-1.724 5.087-1.724h8.882l-.001-.004h.005l-.004-.018h12.663l.004.018h1.742c.778 0 1.689.044 2.626.279l-.063-.302h14.513c2.198 0 3.722.271 5.471 1.703l.059.049c1.037.889 1.686 1.998 1.984 3.395l.56 2.692.007.032c.15.772.127 1.542-.064 2.261.416.604.708 1.286.872 2.036l.523 2.558c.112.497.112.9.112 1.096 0 .732-.16 2.142-1.232 3.348-1.176 1.321-3.048 1.992-5.565 1.992h-8.761l.003.011h-.821c.198.714.342 1.451.432 2.2h3.007v2.081c1.955.394 3.8.835 5.514 1.32 4.054 1.147 7.277 2.509 9.577 4.047 2.856 1.91 4.304 4.099 4.304 6.505 0 2.405-1.448 4.594-4.304 6.504" fill="#fff"/><path d="m129.354 744.208c-2.205 1.475-5.324 2.789-9.269 3.905-2.793.79-5.906 1.455-9.254 1.985v2.892c0 1.042-.608 1.971-1.808 2.762-1.077.709-2.681 1.334-4.769 1.856-3.72.93-8.646 1.443-13.869 1.443-5.224 0-10.15-.513-13.87-1.443-2.088-.522-3.692-1.147-4.769-1.856-1.199-.791-1.807-1.72-1.807-2.762v-2.892c-3.349-.53-6.463-1.195-9.255-1.985-3.945-1.116-7.063-2.43-9.269-3.905-2.537-1.697-3.824-3.583-3.824-5.604 0-2.022 1.287-3.907 3.824-5.604 2.206-1.475 5.324-2.789 9.269-3.905 2.774-.785 5.866-1.446 9.19-1.975-.092-2.101.269-4.16 1.059-6.008.782-1.83 1.986-3.444 3.39-4.544l.244-.191.304.064c1.675.353 3.686 1.123 5.816 1.937.949.362 1.934.739 2.925 1.091v-.433h13.445v.46c1.017-.359 2.03-.746 3.003-1.118 2.129-.814 4.141-1.584 5.816-1.937l.304-.064.244.191c1.404 1.1 2.608 2.714 3.39 4.544.789 1.847 1.151 3.905 1.06 6.004 3.332.53 6.43 1.192 9.211 1.979 3.945 1.116 7.064 2.43 9.269 3.905 2.538 1.697 3.824 3.582 3.824 5.604 0 2.021-1.286 3.907-3.824 5.604" fill="#231f20"/><g transform="matrix(.8 0 0 -.8 45.628 760.856)"><path d="m40.689 44.686v.002c-.016.041-.031.084-.045.127-.007.023-.014.048-.021.072-.005.019-.011.038-.016.056-.009.033-.018.066-.025.1-.003.009-.006.019-.008.029-.009.039-.016.078-.023.118 0 .003-.002.006-.002.009-.033.175-.051.353-.055.533.337.067.677.179 1.017.319-.043-.35-.004-.7.11-1.022-.066-.026-.133-.053-.199-.078-.017-.007-.035-.012-.051-.019-.096-.037-.193-.073-.289-.108-.034-.012-.068-.024-.102-.037-.08-.029-.159-.056-.238-.082-.019-.006-.035-.013-.053-.019zm30.511.002c-.016.005-.033.011-.051.017-.081.028-.163.055-.244.084-.033.011-.065.022-.096.033-.101.038-.201.075-.303.114l-.037.015c-.066.025-.135.052-.203.078.114.323.155.673.112 1.024.34-.14.68-.253 1.017-.321v-.007c-.001-.042-.003-.085-.006-.127v-.004c-.002-.044-.008-.085-.011-.129v-.002c-.005-.044-.01-.087-.016-.131 0-.002-.002-.005-.002-.008-.006-.041-.012-.083-.02-.123l-.004-.017c-.007-.038-.014-.075-.023-.112-.002-.012-.005-.024-.008-.037-.007-.031-.014-.062-.023-.092-.006-.023-.014-.046-.022-.068-.005-.021-.011-.041-.017-.061-.014-.042-.027-.084-.043-.126zm-25.52 2.23c-.2.341-.492.629-.855.828.386.173.767.309 1.142.385.056-.054.111-.109.162-.166.006-.008.013-.014.02-.022.048-.055.095-.111.138-.17.009-.01.016-.019.024-.029.044-.059.087-.118.127-.18.005-.008.011-.017.017-.027.04-.064.081-.127.118-.193-.295-.138-.594-.281-.893-.426zm20.528 0c-.299.145-.597.287-.891.426.037.066.076.131.118.195.006.009.011.017.017.025.04.062.082.121.127.18.008.01.014.019.022.029.045.059.092.116.14.172.006.007.012.012.018.02.051.056.105.11.16.164.001 0 .002.003.002.004.375-.077.756-.214 1.143-.387-.363-.199-.655-.487-.856-.828z" fill="#899fd5"/><path d="m55.945 3.837c-13.242 0-23.976 2.683-23.976 5.994v11.988c0 1.011 1.002 1.964 2.771 2.801.249-.057.514-.088.795-.088.517 0 1.059.102 1.613.3.795.287 1.528.743 2.143 1.299 1.348.326 2.851.612 4.476.852.562-.25 1.214-.389 1.92-.389.19 0 .383.009.576.029.916.098 1.79.42 2.521.918 1.445.114 2.949.192 4.498.235.755-.405 1.669-.643 2.652-.643.985 0 1.898.238 2.654.645 1.55-.043 3.057-.123 4.504-.237.731-.5 1.606-.82 2.523-.918.193-.02.387-.029.577-.029.706 0 1.359.139 1.921.391 1.622-.24 3.121-.525 4.469-.85.616-.557 1.349-1.016 2.144-1.303.555-.198 1.1-.3 1.618-.3.283 0 .55.03.8.088 1.771-.837 2.776-1.789 2.776-2.801v-.588-.689-10.711c0-3.311-10.735-5.994-23.976-5.994zm0 2.08c5.717 0 11.201.519 15.442 1.459 1.96.434 3.625.955 4.816 1.51.891.415 1.321.751 1.518.945-.197.193-.627.531-1.518.946-1.191.554-2.856 1.075-4.816 1.509-.386.086-.783.168-1.188.246.5-.146 1.212-.381 1.66-.531 1.492-.499 2.803-1.071 3.858-1.676-1.055-.476-2.366-.925-3.858-1.318-4.358-1.15-10.011-1.783-15.915-1.783-5.905 0-11.556.633-15.913 1.783-1.493.393-2.804.842-3.859 1.318 1.055.605 2.366 1.177 3.859 1.676.447.15 1.156.385 1.656.531-.405-.078-.801-.16-1.187-.246-1.96-.433-3.625-.954-4.817-1.509-.891-.415-1.321-.753-1.517-.946.196-.194.626-.53 1.517-.945 1.192-.555 2.857-1.076 4.817-1.51 4.241-.94 9.726-1.459 15.444-1.459zm22.449 5.572v10.652c-1.729.865-4.775.865-4.775.865 2.439-.704 4-2.174 4.67-2.925-1.744.815-4.67.816-4.67.816 2.505-.724 4.084-2.256 4.723-2.986-1.736.84-4.723.84-4.723.84 2.44-.704 4-2.174 4.67-2.924-1.744.815-4.67.815-4.67.815 2.44-.704 4-2.176 4.67-2.926-1.744.815-4.67.816-4.67.816 1.618-.466 2.848-1.271 3.69-1.978.497-.419.861-.803 1.085-1.065zm-47.257 3.467c-15.945 2.494-26.751 7.316-26.751 12.856 0 8.099 23.085 14.666 51.559 14.666s51.556-6.567 51.556-14.666c0-5.541-10.805-10.363-26.749-12.856v1.684c4.031.641 7.774 1.442 11.125 2.396 4.481 1.275 8.124 2.803 10.524 4.42 1.093.733 2.333 1.761 2.938 2.941-.605-.623-1.328-1.17-1.998-1.611-2.45-1.615-6.164-3.143-10.736-4.416-3.557-.993-7.549-1.823-11.853-2.477v3.004c.981.616 1.652 1.84 1.652 3.246 0 1.405-.671 2.629-1.652 3.246v.424c0 2.079-2.574 3.777-7.652 5.047-4.592 1.147-10.685 1.779-17.155 1.779s-12.564-.632-17.156-1.779c-5.078-1.27-7.651-2.968-7.651-5.047v-.424c-.982-.617-1.653-1.841-1.653-3.246 0-1.406.671-2.63 1.653-3.246v-3.004c-4.305.654-8.297 1.484-11.854 2.477-4.574 1.274-8.287 2.801-10.737 4.416-.669.441-1.393.988-1.998 1.611.605-1.18 1.848-2.208 2.939-2.941 2.402-1.617 6.042-3.145 10.523-4.42 3.351-.954 7.094-1.755 11.126-2.396zm.509 27.315c-.072 1.144-.104 4.089 1.135 7.099h-17.247l-4.998 23.747h16.517c2.485 0 4.094-.28 6-1.812l.049-.041c.377-.319.701-.657.976-1.018.124.202.262.396.411.578 1.225 1.498 3.196 2.258 5.863 2.258h12.757l-.002.006h.018l-.006.021h13.077l.004-.021h3.267c1.565 0 3.475-.162 5.139-1.244l-.268 1.273h16.473c2.49 0 4.099-.282 5.984-1.824l.049-.041c1.077-.923 1.724-2.031 2.037-3.492l.697-3.363.006-.024c.194-.991.101-1.959-.264-2.82.635-.727 1.066-1.593 1.281-2.582l.653-3.193c.11-.48.109-.873.109-1.084 0-.725-.154-2.115-1.197-3.287-1.2-1.351-3.202-2.037-5.945-2.037h-12.635l.002-.012h-2.531c1.231-3.006 1.201-5.945 1.129-7.087-.203.028-.408.057-.611.086-.214.03-.427.059-.643.088.294 2.022.177 3.816-.144 5.357-.117.551-.258 1.07-.416 1.556h-13.416c-1.965 0-3.611.427-4.914 1.27l.252-1.246h-.092v-.002h-16.313c-2.077 0-3.685.356-4.953 1.109l.241-1.119h-5.709c-.605-1.845-.965-4.172-.567-6.926-.421-.056-.838-.115-1.253-.173zm6.285.138c-1.052.179-2.083.694-3.082 1.692 6.604-4.218 14.058 6.895 18.943 2.666-3.875 1.861-8.398-2.714-12.773-4.069-1.041-.087-2.069-.184-3.088-.289zm36.026 0c-1.018.107-2.049.202-3.09.289-4.375 1.357-8.896 5.931-12.77 4.071 4.886 4.228 12.339-6.886 18.942-2.668-.999-.998-2.03-1.513-3.082-1.692zm-5.363.467c-4.09.286-8.33.434-12.65.434-4.111 0-8.15-.135-12.056-.395 3.253.891 7.505 1.39 12.028 1.408h.252c4.684 0 9.093-.513 12.426-1.447zm-26.97 2.145c-.001.002-.003.005-.004.007-.114.323-.153.673-.109 1.024.02.166.057.331.117.494.426 1.167 1.718 1.767 2.884 1.342.109-.04.212-.089.311-.143.362-.2.654-.487.855-.828l-.418-.205c-.201.334-.513.605-.908.75-.92.335-1.939-.141-2.275-1.061-.146-.4-.14-.816-.01-1.189zm28.64 0-.446.191c.13.374.137.791-.01 1.191-.336.92-1.353 1.393-2.273 1.057-.395-.144-.707-.414-.91-.748l-.418.205c.201.341.494.63.857.83.099.054.202.103.311.143 1.166.425 2.458-.177 2.883-1.344.06-.164.098-.329.119-.494.042-.351.004-.701-.11-1.024-.001-.003-.002-.005-.003-.007z" fill="#1e1840"/><path d="m33.431 11.489v6.363s-.001.002 0 .002v4.287c1.729.865 4.773.865 4.773.865-2.44-.705-4-2.174-4.67-2.925 1.744.815 4.67.814 4.67.814-2.506-.722-4.083-2.254-4.723-2.984 1.738.841 4.723.842 4.723.842-2.437-.703-3.995-2.172-4.666-2.924 1.744.813 4.666.814 4.666.814-2.44-.705-4-2.176-4.67-2.927 1.744.815 4.67.816 4.67.816-1.679-.484-2.94-1.332-3.783-2.058-.449-.388-.781-.74-.991-.985zm5.817 1.801c3.955 1.207 9.964 1.976 16.693 1.976 6.714 0 12.71-.766 16.665-1.968-4.69.841-10.441 1.338-16.655 1.338-6.235 0-12.004-.499-16.703-1.346zm-32.699 15.94c.605 1.179 1.848 2.208 2.939 2.942 2.402 1.614 6.041 3.144 10.523 4.419 9.573 2.723 22.335 4.223 35.934 4.223s26.361-1.5 35.934-4.223c4.481-1.275 8.121-2.805 10.523-4.419 1.091-.734 2.332-1.763 2.937-2.942-.605.621-1.328 1.17-1.998 1.61-2.451 1.616-6.163 3.142-10.735 4.417-9.767 2.723-22.786 4.223-36.66 4.223-13.875 0-26.894-1.5-36.661-4.223-4.572-1.275-8.285-2.801-10.735-4.417-.669-.44-1.395-.988-2-1.61zm58.407 21.527c-4.963 0-6.223 2.866-6.767 5.373l-.627 3.121c-.454 2.234.347 3.55 1.109 4.265h-2.181l-.188.926h-.002l-1.478 7.246h.013l-.003.023h10.237l.006-.023h4.392c2.653 0 5.292-.484 6.649-3.994.145-.362.235-.7.314-.996l.703-3.504c.444-2.186-.312-3.493-1.062-4.22h2.214l1.658-8.193h-.074l.006-.024zm-48.287.014-4.406 20.948h14.793c2.292 0 3.511-.209 5.126-1.508l.018-.017c.854-.72 1.354-1.552 1.625-2.711l3.617-16.712h-20.772zm63.8 0-4.406 20.948h14.75c2.295 0 3.508-.21 5.099-1.512l.022-.017c.843-.724 1.328-1.559 1.576-2.715l.701-3.369c.186-.964.011-1.864-.512-2.601-.05-.072-.102-.141-.158-.207.891-.672 1.46-1.549 1.695-2.625l.653-3.197c.076-.329.076-.612.076-.782 0-1.466-.746-3.923-5.744-3.923zm-36.58.008c-3.616 0-5.537 1.154-6.629 3.98-.145.365-.237.713-.312.994l-2.131 10.314c-.317 1.568-.063 2.871.756 3.873.946 1.157 2.554 1.744 4.781 1.744h13.823l.147-.707 1.636-7.494h-10.188l.924-4.508h10.229l1.658-8.195h-.074v-.002h-14.62z" fill="#1a5dad"/><path d="m31.97 21.231c-1.047.336-1.819 1.511-1.819 2.91 0 1.397.772 2.573 1.819 2.91v-.369-.301-.705-3.084-.705-.068zm47.95 0v5.822c1.045-.338 1.819-1.514 1.819-2.912s-.774-2.573-1.819-2.91zm-44.379 3.966c-1.275-.002-2.169.745-2.169 1.99 0 1.661 1.59 3.579 3.552 4.285 1.961.708 3.553-.065 3.553-1.726s-1.592-3.58-3.553-4.287c-.49-.177-.957-.261-1.383-.262zm40.796 0c-.425.001-.893.085-1.383.262-1.963.707-3.553 2.626-3.553 4.287s1.59 2.434 3.553 1.726c1.961-.706 3.552-2.623 3.552-4.285 0-1.245-.895-1.992-2.169-1.99zm-30.907 2.069c-1.725.097-3.021 1.171-3.021 2.624 0 1.662 1.695 3.188 3.785 3.41 2.091.222 3.785-.944 3.785-2.605s-1.694-3.187-3.785-3.41c-.262-.028-.518-.033-.764-.019zm21.019 0c-.246-.014-.502-.007-.764.021-2.09.221-3.785 1.747-3.785 3.408s1.695 2.827 3.785 2.605c2.092-.222 3.787-1.748 3.787-3.41 0-1.453-1.298-2.528-3.023-2.624zm-10.513.534c-2.228 0-4.032 1.346-4.032 3.007s1.804 3.008 4.032 3.008c2.227 0 4.033-1.347 4.033-3.008s-1.806-3.007-4.033-3.007zm-13.155 17.585c-.06-.003-.122.005-.182.027-.01.004-.019.01-.029.014-.001.001-.003 0-.004.002-.215.098-.324.348-.242.574.088.239.353.363.592.275.229-.083.351-.331.283-.562l-.002-.002c-.002-.009-.003-.019-.006-.027-.065-.18-.231-.293-.41-.301zm26.327 0c-.179.009-.345.122-.41.301-.004.01-.004.018-.008.027v.002c-.068.231.053.479.283.562.239.088.502-.036.59-.275.082-.226-.025-.476-.24-.574h-.004c-.011-.005-.02-.012-.031-.016-.06-.022-.12-.03-.18-.027zm-4.152 6.351c-4.229 0-5.29 2.208-5.807 4.588l-.628 3.123c-.295 1.452-.014 2.586.837 3.372.799.739 2.028 1.098 3.758 1.098h4.41l-.293 1.504h-1.791l.201-.926h-8.353l-.187.926h-.004l-1.08 5.289h.013l-.003.023h8.253l.004-.023h5.181c2.738 0 4.653-.565 5.74-3.379.122-.306.2-.596.274-.877l.693-3.456c.295-1.452.014-2.588-.836-3.373-.806-.738-2.038-1.095-3.762-1.095h-4.408l.293-1.506h1.881l-.213.971h8.355l1.262-6.236h-.076l.004-.024h-13.719zm-47.492.013-3.996 18.989h13.585c2.183 0 3.14-.185 4.502-1.281l.014-.012c.691-.583 1.081-1.232 1.301-2.169l3.358-15.527h-8.668l-2.943 13.527c-.013.062-.023.102-.045.144l-.02.035-.027.028c-.085.086-.265.173-.951.173h-.43l3.025-13.907h-8.706zm63.8 0-3.994 18.989h13.543c2.179 0 3.131-.184 4.47-1.279l.014-.012c.678-.582 1.054-1.233 1.254-2.172l.699-3.357c.136-.705.019-1.326-.35-1.847-.17-.242-.398-.459-.672-.645l-.388-.266.418-.214c1.121-.577 1.781-1.386 2.017-2.471l.657-3.215c.054-.222.053-.421.053-.566 0-1.926-1.648-2.945-4.766-2.945h-12.956zm-37.375.01c-3.221 0-4.77.911-5.719 3.363-.122.309-.202.609-.273.875l-2.119 10.266c-.258 1.267-.071 2.295.552 3.058.752.919 2.103 1.385 4.022 1.385h13.028v-.006h.002l1.361-6.236h-8.353l-.181.898h-1.824l1.714-8.361h1.887l-.217.994h8.353l1.264-6.236h-.076-13.422zm44.955 5.17h.574c.167 0 .314.016.433.044l.264.061-.172.853c-.101.437-.503.717-1.101.772l-.379.033.381-1.764zm-1.504 6.868h.465c.186 0 .349.007.484.022l.309.031-.299 1.426c-.015.075-.028.107-.045.14l-.018.037-.029.03c-.087.087-.257.17-.916.174l-.348.002z" fill="#fab20b"/></g><path d="m107.015 714.83.837 4.054-.009-.004.003.013h-10.054c-2.286 0-3.372-.565-4.058-2.339-.085-.215-.143-.429-.2-.643l-.545-2.724c-.197-.972-.018-1.686.497-2.162.529-.489 1.415-.726 2.618-.726h3.711v.001h.514l-.001-.003-.458-2.35h-2.496l.198.966h-.005l.01.004h-5.619l-.837-4.055.009.004-.001-.001h10.055c2.286 0 3.372.565 4.057 2.341.086.214.143.429.2.643l.545 2.724c.197.971.019 1.686-.496 2.162-.53.489-1.416.725-2.618.725h-4.218-.001-.006l.001.002.458 2.351h2.497l-.002-.001-.2-.978h.005l-.01-.004zm-16.22 4.076h-10.055c-2.286 0-3.371-.565-4.057-2.339-.085-.215-.143-.43-.2-.644l-1.686-8.173c-.197-.971-.019-1.686.497-2.162.529-.489 1.415-.725 2.618-.725h9.968l.544 2.614.302 1.449h-.006l.01.004h-5.618l-.187-.907h-2.471l.001.003 1.599 7.799h2.48l-.002-.001-.2-.977h.005l-.01-.005h5.619l.203.983h.017zm-22.668-.005-2.259-10.382c-.117-.547-.47-.743-1.378-.743h-1.036v.001l2.42 11.124h-5.822l-2.962-14.077h10.198c1.672 0 2.321.156 3.244.899.418.352.689.743.85 1.427l2.543 11.751zm48.45-5.533c.774.011 1.4.394 1.551 1.063l.121.598c.088.509-.293.841-1.086.841h-.909l-.54-2.502zm-1.144-5.592c.909 0 1.261.196 1.379.743l.234 1.115c.088.528-.205.743-1.173.743h-.821l-.558-2.601zm-7.303-2.952 2.962 14.077h9.914c2.169 0 3.254-.625 3.254-1.799 0-.098 0-.215-.029-.332l-.528-2.582c-.235-1.074-1.113-1.739-3.02-2.149l-.469-.098-.322-.058h.146l.586-.079c1.731-.254 2.464-.919 2.258-1.975l-.556-2.678c-.147-.685-.411-1.076-.822-1.428-.909-.743-1.554-.899-3.226-.899zm-27.605 19.303c-.132-.094-.192-.266-.133-.425.069-.192.281-.29.472-.22.156.057.248.208.24.366v.001c-.002.035-.008.07-.02.105-.07.191-.282.29-.473.22-.031-.011-.059-.028-.085-.046zm2.268-1.299c.033.051.064.103.093.156-.029-.053-.06-.105-.093-.156m-4.665 2.122c.006.019.011.039.017.058-.006-.019-.011-.039-.017-.058m3.36-2.288c-.079-.043-.161-.082-.249-.114-.933-.341-1.966.139-2.307 1.073-.048.131-.077.264-.094.397-.272.112-.544.202-.814.255.003.143.018.285.043.425-.082-.44-.051-.908.114-1.36.49-1.344 1.977-2.035 3.321-1.545.409.15.757.392 1.03.694-.041-.046-.084-.09-.129-.133-.3.061-.606.17-.915.308m1.29.144c-.032-.049-.065-.096-.1-.142.035.046.068.093.1.142m-4.683 2.019c.006.027.013.054.02.08-.007-.026-.014-.053-.02-.08m4.564-2.186c-.036-.046-.073-.092-.112-.135.039.043.076.089.112.135m-4.59 2.067c.006.032.013.064.02.095-.007-.031-.014-.063-.02-.095m21.595-.858c-.009-.158.084-.309.24-.366.191-.07.402.029.472.22.058.159-.001.331-.133.425-.001 0-.001.001-.001.001-.026.018-.054.035-.086.046-.191.07-.402-.029-.472-.219-.013-.035-.018-.071-.02-.106zm3.076.532c.002-.034.003-.067.004-.101-.001.034-.002.067-.004.101m-4.857-1.396c.029-.053.061-.105.093-.156-.032.051-.064.103-.093.156m3.953.637c-.341-.934-1.374-1.414-2.307-1.073-.087.031-.17.07-.249.114-.309-.138-.615-.248-.915-.309.251-.24.554-.433.902-.56 1.343-.49 2.83.201 3.321 1.545.112.309.162.625.156.935-.27-.054-.541-.143-.814-.256-.016-.132-.046-.265-.094-.396m.882.972c.005-.035.009-.069.013-.104-.004.035-.008.069-.013.104m.013-.106c.004-.035.006-.07.008-.104-.002.034-.004.069-.008.104m-.03.211c.006-.033.011-.066.016-.099-.005.033-.01.066-.016.099m-4.338-2.343c-.044.042-.086.087-.127.132.041-.045.083-.09.127-.132m4.26 2.652c.005-.016.009-.032.014-.049-.005.017-.009.033-.014.049m.03-.103c.007-.024.012-.049.018-.073-.006.024-.011.049-.018.073m-4.563-2.241c-.035.047-.069.094-.101.143.032-.049.066-.096.101-.143m.131-.16c-.039.044-.077.09-.113.136.036-.046.074-.092.113-.136m4.458 2.298c.007-.03.013-.06.019-.089-.006.029-.012.059-.019.089" fill="#fff"/><path d="m35.371 52.437-3.978 1.899-2.424 11.507c-.143.671-.402 1.054-.804 1.4-.891.728-1.524.881-3.162.881h-6.631l3.912-1.769 3.018-13.904-4.067 1.885-2.892 13.79-3.982 1.918h12.714c2.09 0 2.9-.196 4.055-1.125.521-.44.86-.928 1.06-1.785l3.183-14.696zm42.425.018-4.024 1.865-.261 1.64-3.764 1.571-.014.004h7.025l1.045-5.069-.011.006zm-21.354.012-3.947 1.865-.345 1.63-3.777 1.573h7.023zm41.524 1.16-3.735 1.543c-.458-.553-1.415-.842-2.876-.842h-6.338l-1.447 6.878-1.455 6.918 3.966-1.771.696-3.25h1.027c1.122 0 1.52.232 1.482.793l3.81-1.561c.13.254.163.548.098.883l-.547 2.625c-.142.669-.401 1.052-.803 1.398-.892.728-1.523.881-3.16.881h-6.568l-3.988 1.92h12.686c2.088 0 2.893-.197 4.031-1.125.512-.44.843-.928 1.027-1.783l.695-3.35c.205-1.055-.339-1.794-1.668-2.213l-.004.002c-.592-.212-1.594-.331-1.98-.371l.316-.056.586-.123c2.384-.513 3.484-1.344 3.777-2.688l.661-3.228c.035-.146.035-.292.035-.414 0-.411-.11-.767-.323-1.068zm-53.285.693c-1.429 0-2.106.354-2.535 1.463-.053.135-.089.268-.125.402l-2.109 10.053c-.127.621-.007 1.074.332 1.371l3.287-1.553 1.999-9.749h3.102l3.867-1.983-.066-.004zm-4.437 13.288-3.164 1.494c.662.613 1.769.909 3.271.909h12.462l.409-1.969.648-3.111h-.008l-3.761 1.568-.328 1.543h-7.916c-.735 0-1.281-.141-1.613-.434zm25.776-13.289c-1.429 0-2.107.354-2.536 1.463-.053.134-.088.268-.125.402l-.683 3.242c-.126.62-.007 1.072.33 1.369l-3.162 1.496c.662.612 1.771.906 3.273.906h5.281l-.002.004 3.289-1.554c-.333-.293-.886-.418-1.621-.418h-3.48v.002h-1.961c-.733 0-1.279-.142-1.613-.434l3.287-1.552.572-2.938h3.123l3.777-1.988h-7.75zm5.665 7.328c.339.297.459.75.332 1.371l-.681 3.244c-.037.134-.072.266-.125.4-.429 1.11-1.109 1.463-2.537 1.463h-7.824l-3.951 1.865h12.567c2.858 0 4.216-.707 5.072-2.926.108-.268.179-.535.25-.802l.682-3.406c.246-1.215.023-2.108-.621-2.701zm-10.835 6.478 3.851-1.973.004-.013.246-1.209h-.006l-3.763 1.57-.332 1.627zm33.391-12.937c.2.249.305.549.305.902 0 .096-.001.211-.029.326l-.518 2.529c-.229 1.054-1.092 1.707-2.961 2.11l-.459.093-.316.059h-6.656l3.998-1.844.676-3.129h1.134c.619 0 1.037.162 1.237.438l3.59-1.484zm-1.152 7.134.008.004h-.004c-.001-.002-.003-.002-.004-.004z" fill="#abb9e1" transform="matrix(.8 0 0 -.8 45.628 760.856)"/><path d="m31.968 21.888c-.704.406-1.176 1.029-1.241 1.738.26-.478.779-.886 1.241-1.033zm47.952 0v.705c.462.147.983.555 1.243 1.033-.065-.709-.539-1.332-1.243-1.738zm-3.578 4.142c-.343 0-.716.072-1.107.213-1.627.586-3.002 2.19-3.002 3.504 0 .303.077.527.196.695.206-1.523 1.779-3.257 3.619-3.92.422-.151.825-.236 1.203-.254-.279-.193-.642-.238-.909-.238zm-40.807.002c-.497 0-1.332.149-1.332 1.156 0 .603.292 1.265.762 1.863-.212-.428-.332-.864-.332-1.275 0-1.132.937-1.301 1.496-1.301.386 0 .805.08 1.246.239.193.07.383.152.568.246-.396-.302-.838-.551-1.3-.717-.393-.141-.765-.211-1.108-.211zm10.152 2.06c-1.395 0-2.447.775-2.447 1.801 0 .408.154.811.422 1.174-.044-.165-.067-.333-.067-.5 0-1.175 1.205-2.063 2.801-2.063.157 0 .317.01.478.028.36.039.711.117 1.041.232-.51-.34-1.138-.577-1.81-.648-.14-.015-.281-.024-.418-.024zm20.505 0c-.138 0-.279.007-.42.022-1.647.175-3.039 1.358-3.039 2.582 0 .316.099.609.277.861-.001-.022-.002-.046-.002-.07 0-1.433 1.631-2.815 3.559-3.02.165-.017.329-.027.49-.027.253 0 .495.023.727.063-.423-.259-.973-.411-1.592-.411zm-10.257.539c-1.733 0-3.199.997-3.199 2.176 0 .338.12.661.332.949-.01-.076-.015-.153-.015-.23 0-1.353 1.68-2.496 3.669-2.496.483 0 .948.068 1.375.189-.575-.362-1.338-.588-2.162-.588z" fill="#fcd883" transform="matrix(.8 0 0 -.8 45.628 760.856)"/><path d="m30.728 24.643c.065.709.536 1.332 1.24 1.739v-.705c-.461-.147-.98-.556-1.24-1.034zm50.435 0c-.26.478-.781.887-1.242 1.034v.705c.704-.407 1.177-1.03 1.242-1.739zm-3.699 1.854c-.206 1.522-1.779 3.257-3.619 3.92-.422.152-.825.237-1.203.254.279.194.642.236.909.236.343 0 .716-.07 1.107-.211 1.627-.585 3.002-2.191 3.002-3.504 0-.304-.077-.528-.196-.695zm-38.566 1.39c.213.43.33.865.33 1.276 0 1.132-.937 1.301-1.496 1.301-.386 0-.805-.08-1.246-.239-.192-.07-.381-.152-.566-.246.396.301.836.551 1.298.717.392.141.765.213 1.108.213.497 0 1.332-.151 1.332-1.158 0-.602-.29-1.265-.76-1.864zm29.507 1.143c.001.022.002.047.002.07 0 1.431-1.628 2.815-3.557 3.02-.163.017-.328.027-.488.027-.254 0-.498-.023-.728-.063.421.259.973.411 1.593.411.138 0 .276-.007.416-.022 1.649-.175 3.041-1.358 3.041-2.582 0-.316-.099-.609-.279-.861zm-19.683.498c.043.164.066.331.066.5 0 1.174-1.204 2.06-2.801 2.06-.157 0-.317-.009-.478-.027-.361-.037-.711-.117-1.041-.232.51.341 1.138.579 1.81.65.14.014.281.023.418.023 1.395 0 2.447-.776 2.447-1.802 0-.408-.155-.81-.421-1.172zm10.081.322c.01.075.018.151.018.229 0 1.352-1.682 2.496-3.672 2.496-.482 0-.947-.068-1.373-.19.574.363 1.336.588 2.16.588 1.735 0 3.199-.997 3.199-2.176 0-.337-.119-.658-.332-.947z" fill="#c6810a" transform="matrix(.8 0 0 -.8 45.628 760.856)"/></g></svg>