<svg clip-rule="evenodd" fill-rule="evenodd" viewBox="0 0 560 400" xmlns="http://www.w3.org/2000/svg"><path d="m177.29 262.384h-55.044c-5.432-.34-10.995-1.586-15.523-4.737-2.971-2.016-5.361-4.984-6.333-8.473-.48-1.499-.385-3.094-.376-4.645.009-1.848.643-3.603 1.108-5.369 9.386-33.846 18.78-67.693 28.161-101.542l-.215-.002h42.742c-8.491 30.525-16.934 61.063-25.416 91.593-.362 1.084-.372 2.34.295 3.315 1.078 1.635 3.126 2.282 4.995 2.385 2.22.058 4.44.009 6.662.026 2.409-.013 4.911.078 7.2-.798 1.583-.62 2.558-2.181 2.981-3.765 8.596-30.917 17.153-61.844 25.762-92.757h42.49c-9.035 32.483-18.038 64.974-27.062 97.461-.972 3.448-1.888 6.914-2.9 10.351-1.301 4.182-3.451 8.25-6.867 11.083-2.525 2.149-5.688 3.367-8.876 4.143-4.509 1.125-9.164 1.424-13.785 1.729zm87.852 0h-42.798c7.269-26.141 14.508-52.289 21.763-78.434 30.624-.004 61.248-.002 91.873 0-2.541 9.16-5.083 18.317-7.626 27.475-16.456.006-32.911 0-49.367.004l-14.135 50.953zm163.741 0h-69.788c-5.227-.331-10.562-1.486-15-4.389-2.913-1.863-5.363-4.569-6.535-7.854-1.076-2.82-.985-5.963-.172-8.837 7.889-28.426 15.779-56.851 23.672-85.277 1.144-4.182 2.971-8.306 6.055-11.427 2.037-2.089 4.623-3.586 7.383-4.498 5.094-1.716 10.496-2.134 15.824-2.487h69.679c-1.005 4.145-2.261 8.233-3.365 12.354-1.394 5.019-2.788 10.037-4.18 15.056-15.075.004-30.153 0-45.229.002-2.207.019-4.502 0-6.578.854-1.691.714-2.571 2.485-2.999 4.173-5.501 19.836-11.008 39.674-16.504 59.512-.4 1.233-.058 2.642.86 3.554 1.349 1.379 3.364 1.811 5.229 1.811l49.26.004c-2.534 9.149-5.074 18.298-7.613 27.447zm-171.885-124.768h91.851c-2.551 9.132-5.07 18.274-7.611 27.41-30.62.006-61.237.004-91.857.002 2.536-9.138 5.057-18.281 7.617-27.413z" fill="#d20a0a"/></svg>