<svg clip-rule="evenodd" fill-rule="evenodd" stroke-linejoin="round" stroke-miterlimit="1.41421" viewBox="0 0 560 400" xmlns="http://www.w3.org/2000/svg"><path d="m119.4 128.9c-10.4 24-36.3 46.3-54 46.6-4.6.1-5.5-.2-7.3-1.9-1.1-1.1-2.5-3.4-3-5.2l-.9-3.2-3.7 2.7c-7.9 5.7-18.4 9.1-22.4 7.4-4.9-2.1-5.5-8.9-1.9-19.8 1.3-3.9 2.4-7.3 2.4-7.7s-1.3-.3-2.9.1c-3.9 1-12.2.1-16.7-1.9-2.8-1.2-3.3-1.7-2.4-2.3.6-.4 2.4-.7 3.9-.7 3.9 0 11.1-2 15.5-4.3 6.3-3.2 11.4-8.5 17.8-18.5l6-9.4h7c3.8 0 7 .2 7 .5s-2.5 4.8-5.4 10c-13.5 23.6-19.9 39.7-16.3 41 2 .8 6.5-1.9 12-7 4.6-4.4 6.1-6.6 15.6-24.4l10.5-19.6 7.2-.2c5.6-.2 7.1 0 6.8.8-.2.6-5.4 10.4-11.5 21.8-9 16.9-11.1 21.4-11.1 24 0 1.7.4 3.6.9 4.1 4.7 4.7 20.8-9.8 29.1-26.2 3-6 5.9-16 6.9-23.8 1.7-13.2-2.7-22.5-10.9-23.2-2.4-.2-2.1-.8 1.4-2.8 6.2-3.5 13.2-3 18.2 1.2 8.7 7.1 9.5 24.9 2.2 41.9zm266.5 14.1c1.9-3.5.1-7-3.1-6-3.1 1-2.9 4 1 11.5 3 5.9 3.6 7.7 3.6 11.4 0 7.3-3.1 11.3-10.8 14.1-4.5 1.6-14.1 1.4-18-.4-3.4-1.6-6.4-4.7-7.1-7.7-.3-1-.6-1.8-.8-1.8s-2.2 1.5-4.4 3.3c-7.3 5.8-13.8 7.7-16.7 4.9-2-2-1-5.8 4.8-17 2.8-5.6 5-10.6 4.8-11.2-.6-1.5-3.8-.3-8.5 3.2-3.1 2.2-4.7 4.5-9.8 14.1l-6.2 11.4h-6.1c-4 0-6.1-.3-6.1-.9 0-.5 1.1-2.8 2.4-5.1s2.2-4.2 1.9-4.2-2.2 1.4-4.3 3.2c-5.4 4.6-12.5 8.6-15 8.6-2.4 0-5.4-3.1-5.4-5.6 0-1.2-.8-.9-4.5 1.7-5.1 3.5-9.6 4.7-13.3 3.8-3.7-1-5.1-3.5-5-9.7v-5.2l-6 5.1c-9.2 7.9-16.6 10.9-19.1 7.9-1.7-2.1-.3-7.1 5.1-17.7 6-11.9 5.9-13.2-.5-9.4-6.3 3.7-6.2 3.5-12.8 16l-6.2 11.6h-6.5c-3.7 0-6.5-.3-6.5-.8 0-.4 3-6.4 6.7-13.2 6-11.2 7.8-15.9 6.1-15.8-.8 0-8.1 4.4-10.1 6-.9.8-4.4 6.4-7.7 12.6l-6.1 11.2h-6.2c-3.4 0-6.2-.2-6.2-.4s1.7-3.5 3.7-7.3 6.6-12.1 10.1-18.6l6.4-11.8 6.4-.2c3.5-.1 6.4.1 6.4.4s-.7 1.8-1.6 3.2-1.6 2.7-1.6 2.9 2.8-1.1 6.2-2.9c7.9-4.1 14.3-5 15.8-2.2.5 1 .7 2.8.5 4s-.3 2.3-.1 2.3 2-1 4.1-2.3c8.2-5 16.9-7 19.1-4.4 1.6 2 .4 7.1-3.8 15.8-2.2 4.5-3.8 8.1-3.5 8.1.7 0 12.3-9.3 18.8-15.1 9.6-8.5 18.4-11.9 24.3-9.2 1.5.7 2.2.7 2.9 0 .5-.5 3.4-.9 7-.9h6.1l-5.9 11.3c-5.6 10.8-7.9 16.1-6.8 16.1.3 0 3.7-2.4 7.6-5.4 7.4-5.7 10.2-8.9 14.5-17.1l2.6-4.9h6.2c6.8 0 7.1.3 4.5 4.4l-1.6 2.7 7.3-3.5c8.6-4.2 13.3-4.7 15.2-1.8 1.7 2.6.5 6.9-4.9 17.3-2.5 4.8-4.6 9.1-4.8 9.5-.7 1.6 3.4-1.5 7.5-5.8 5.8-6 11.2-8.3 15.4-6.6 1 .4.9.7-.7 2-2.3 1.8-5.1 6.9-5.1 9.3 0 4.5 5.6 9.4 9.2 8.1 4.5-1.6 5.2-4.9 2.6-12.2-2.1-5.9-2.1-13 0-17.1 3-5.9 11.6-8.8 17.3-5.9s3.2 9.8-3.6 9.8c-1.6 0-1.8-.2-1.1-1.5zm-97.5-1.4c-2.7-.2-3.4.2-7.1 3.9-6.4 6.5-10.7 16.9-7.5 18.2 1.9.8 2.7.5 5.8-1.7 4.2-3 7-6.5 9.8-12.1 3.1-6.1 2.9-8-1-8.3zm-98.5 6.9c-4.1 7.6-10.3 19-13.8 25.5-9.2 17-14.1 24.3-21.3 31.5-7.7 7.7-13.1 10.6-20.3 11-2.7.2-6-.1-7.4-.5-5.1-1.6-8.8-7.7-7.8-12.8.6-3.1 3.1-7.3 4.9-8.3 1.3-.7 1.4-.4 1.1 3.1-.2 3.2 0 4.1 1.7 5.8 5 5 15.2.6 24-10.4 3.5-4.3 11.7-18 13.2-21.8.5-1.3.3-1.3-1.8.2-3.2 2.3-8.1 3.5-10.9 2.7-3.4-.9-5.9-5-5.9-9.6v-3.8l-5.3 4c-13.9 10.6-28.5 12.4-32.3 4.1-3-6.5 1.2-17.6 9.3-25 13-11.8 31.1-14.2 30.8-4.2-.2 8.3-11 17.4-23.8 20.2-3.5.8-3.8 1-3.1 2.3 1.4 2.6 7.4 2 14.2-1.4 4.6-2.3 7.9-4.9 16.1-13 11.4-11.1 16-14 22.5-14 2.1 0 4.9.6 6.2 1.3 2.3 1.2 2.5 1.2 3.4 0 .8-1.1 2.1-1.3 7.3-1.1l6.3.2zm-68 4.7c.4 0 2.2-.5 4.2-1.2 4.3-1.5 9.3-5.8 9.3-8.1 0-4.9-8-2.4-11.9 3.7-2.2 3.5-2.8 5.6-1.6 5.6zm52.5-11.6c-2.6-.2-3.3.2-7 3.9-4.4 4.5-8.4 11.4-8.4 14.8 0 4.4 3.5 4.8 8.4 1.1 3.1-2.4 5.5-5.5 9-11.9 3.1-5.8 2.6-7.5-2-7.9z" fill-rule="nonzero" transform="matrix(.92887 0 0 .92887 94.2483 60.6505)"/></svg>