<svg clip-rule="evenodd" fill-rule="evenodd" stroke-linejoin="round" stroke-miterlimit="1.41421" viewBox="0 0 560 400" xmlns="http://www.w3.org/2000/svg"><g fill-rule="nonzero" transform="matrix(2.06516 0 0 -2.06516 56.763 1654.56)"><path d="m73.449 1.107-3.631 11.014h-11.748l9.508 6.807-3.629 11.67 9.5-7.467 9.51 7.467-3.635-11.67 9.508-6.807h-11.75zm9.377 65.148c-5.107.04-10.567.842-16.166 2.551-19.89 6.07-31.701 3.84-31.701 3.84s12.52 8.958 31.969 4.195c26.611-6.519 44.627 1.627 44.627 1.627-4.92-7.441-15.681-12.315-28.734-12.213zm-70.717 44.976c-3.107 0-5.451 2.362-5.451 5.494 0 3.049 2.363 5.438 5.381 5.438 1.737 0 3.011-.555 4.263-1.857l.258-.268-1.631-1.652-.269.252c-.778.726-1.48 1.177-2.565 1.177-1.632 0-2.863-1.354-2.863-3.146 0-1.761 1.231-3.086 2.863-3.086.89 0 1.661.342 2.494 1.117l.289.268 1.606-1.848-.264-.252c-.846-.809-1.997-1.637-4.111-1.637zm14.219 0c-3.104 0-5.535 2.413-5.535 5.494 0 3.099 2.366 5.436 5.508 5.436 3.104 0 5.535-2.412 5.535-5.492 0-3.099-2.368-5.438-5.508-5.438zm100.74 0c-3.107 0-5.449 2.362-5.449 5.494 0 3.049 2.364 5.438 5.381 5.438 1.736 0 3.011-.555 4.262-1.857l.258-.268-1.629-1.652-.272.252c-.777.726-1.477 1.177-2.562 1.177-1.634 0-2.864-1.354-2.864-3.146 0-1.761 1.23-3.086 2.864-3.086.89 0 1.659.342 2.494 1.117l.287.268 1.606-1.848-.262-.252c-.848-.809-1.999-1.637-4.114-1.637zm-90.504.17v10.594h2.463v-6.263l4.854 6.263h2.013v-10.594h-2.461v6.067l-4.701-6.067zm15.471 0v10.594h2.488v-4.004h4.96v-2.334h-4.96v-1.922h5.59v-2.334zm13.264 0v10.594h8.121v-2.306h-5.632v-1.879h4.931v-2.309h-4.931v-1.793h5.562v-2.306h-8.051zm13.783 0v10.594h2.489v-3.427h1.585l2.415 3.427h2.974l-2.787-3.91c1.37-.565 2.119-1.69 2.119-3.199 0-.941-.321-1.768-.929-2.393-.732-.715-1.803-1.092-3.102-1.092zm14.367 0v10.594h8.119v-2.306h-5.63v-1.879h4.931v-2.309h-4.931v-1.793h5.56v-2.306h-8.049zm13.621 0v10.594h2.461v-6.263l4.854 6.263h2.015v-10.594h-2.46v6.067l-4.7-6.067zm29.725 0v10.594h8.12v-2.306h-5.631v-1.879h4.929v-2.307h-4.929v-1.795h5.56v-2.306h-8.049zm-110.5 2.18c1.688 0 2.961 1.352 2.961 3.144 0 1.762-1.261 3.09-2.934 3.09-1.688 0-2.961-1.354-2.961-3.146 0-1.76 1.262-3.088 2.934-3.088zm55.273.154h2.135c.755 0 1.656.222 1.656 1.276 0 .791-.615 1.263-1.642 1.263h-2.149z" fill="#931e2f" transform="matrix(.8 0 0 -.8 47.5252 753.643)"/><path d="m106.28 737.564-3.978-3.126 1.497 4.813-3.907 2.798h4.856l1.534 4.655 1.536-4.655h4.857l-3.908-2.798 1.5-4.816z" fill="#fff"/><path d="m34.5 12.129 16.861 57.574c5.976-.835 10.459-2.254 10.459-2.254.093-.029.182-.055.274-.084l11.381-15.482 8.75 11.896c5.807-.116 10.628.716 14.566 1.996l16.143-53.646h-19.42l-1.963 6.148h4.59l-8.752 27.596-13.914-16.943-13.91 16.953-8.272-27.605h4.625l-2.574-6.148h-18.844zm-33.381 77.342 5.387 16.441h4.562l3.141-9.356 3.039 9.356h4.422l5.56-16.441h-5.843v2.842h.781l-2.701 8.072-3.573-10.914h-3.351l-3.618 10.914-2.701-8.072h.908v-2.842zm28.061 0v16.441h10.768v-3.557h-2.861v.696h-4.17v-3.93h4.652v-2.863h-4.652v-3.946h4.17v.696h2.861v-3.538h-10.768zm15.688 0-2.478 2.48v4.725l2.478 2.478h5.164l.862.895v2.133l-.868.869h-3.015l-.897-.863v-1.348h-3.724v2.594l2.478 2.478h7.272l2.48-2.478v-4.641l-2.48-2.48h-5.135l-.891-.889v-2.223l.891-.888h3.027l.862.896v1.42h3.726v-2.678l-2.48-2.48zm11.643 0v3.894h2.862v-1.052h2.13v13.6h3.764v-13.6h2.129v1.052h2.842v-3.894zm23.109 0-2.478 2.48v11.482l2.478 2.479h7.274l2.478-2.479v-3.037h-3.724v1.785l-.87.87h-3.015l-.895-.864v-8.986l.889-.889h3.027l.864.897v1.902h3.724v-3.16l-2.478-2.481h-7.274zm14.314 0-2.476 2.48v11.482l2.476 2.479h7.274l2.478-2.479v-11.482l-2.478-2.48zm17.34 0-6.654 16.441h5.916v-2.863h-.785l.646-1.895h5.448l.597 1.895h-.769v2.863h5.918l-6.512-16.441zm13.641 0-2.478 2.48v4.725l2.478 2.478h5.166l.862.895v2.133l-.869.869h-3.016l-.894-.863v-1.348h-3.727v2.594l2.478 2.478h7.276l2.478-2.478v-4.641l-2.478-2.48h-5.139l-.889-.889v-2.223l.889-.888h3.029l.862.896v1.42h3.726v-2.678l-2.478-2.48zm11.668 0v3.894h2.862v-1.052h2.131v13.6h3.763v-13.6h2.127v1.052h2.844v-3.894zm-40.512 2.842h3.028l.861.896v8.973l-.867.869h-3.016l-.894-.863v-8.987zm17.033 1.793 1.926 4.797h-3.851z" fill="#0c2162" transform="matrix(.8 0 0 -.8 47.5252 753.643)"/><path d="m38.596 18.272 14.381 48.9 2.393-.303-14.225-48.396zm59.957 0-9.47 29.65 1.736 2.263 10.139-31.914h-2.404zm-24.977 26.084v3.9l9.764 13.236 2.893.147-12.656-17.284z" fill="#0055b5" transform="matrix(.8 0 0 -.8 47.5252 753.643)"/><path d="m93.965 694.674c4.624.81 8.869 2.315 11.784 3.005 9.282 2.194 18.142.875 22.283-2.147 0 0-6.51 3.479-21.242.624-9.726-1.886-12.825-1.482-12.825-1.482" fill="#d69a98"/></g></svg>