<svg clip-rule="evenodd" fill-rule="evenodd" stroke-linejoin="round" stroke-miterlimit="1.41421" viewBox="0 0 560 400" xmlns="http://www.w3.org/2000/svg"><g fill="#3f717f" fill-rule="nonzero" transform="matrix(.987557 0 0 .987557 28.8149 176.743)"><path d="m43.5 21.1c-1.1 0-1.5.6-2.7 2.5-1 1.5-7.8 12.3-7.8 12.3-.5.9-1.4 1.4-2.5 1.4s-2-.6-2.4-1.2c-.1-.1-.2-.2-.2-.3s.1-.2.2-.3 8.7-13.7 8.7-13.7c1.4-2.2 3-2.8 4.4-2.8 1.8 0 2.8 1 2.8 1.6 0 .3-.1.5-.5.5m-20.3 16.3c-1.1 0-2-.6-2.5-1.4 0 0-6.8-10.8-7.7-12.3-1.2-2-1.6-2.5-2.7-2.5-.4 0-.5-.2-.5-.5 0-.6 1-1.6 2.8-1.6 1.4 0 3 .5 4.4 2.8 0 0 3.4 5.4 5.9 9.3.1.2.2.2.3.2.2 0 .3-.1.3-.2 1.3-2 7.2-11.3 7.9-12.5 1.5-2.3 3.3-3.1 5.1-3.1 2.3 0 3.2 1.2 3.2 1.7 0 .2-.1.4-.5.4-1.6 0-2.7 1-3.5 2.3s-9.4 15-10 15.9c-.6 1-1.5 1.5-2.5 1.5m-6.1-21.8c1.7 0 3.6.7 5.1 3.1.8 1.2 3.3 5.2 3.3 5.2 0 .1.1.1.1.2s0 .1-.1.2c0 .1-2.2 3.4-2.2 3.5-.1.1-.1.2-.3.2-.1 0-.2-.1-.3-.2 0-.1-4.1-6.5-4.9-7.8s-1.8-2.3-3.5-2.3c-.4 0-.5-.2-.5-.4.2-.5 1-1.7 3.3-1.7m5.8-3.5c.4 0 .6-.2.7-.5.5-1.1 1.6-1.9 3.1-1.9s2.7.8 3.1 1.9c.1.3.3.5.7.5 1.8 0 3.3 1.3 3.3 2.1 0 .4-.3.6-.7.6-1.4.2-2.1.8-3.2 2.4-1.2 1.9-2.9 4.5-3 4.6-.1.2-.2.2-.3.2s-.2 0-.3-.2c-.1-.1-1.8-2.7-3-4.6-1.1-1.7-1.8-2.2-3.2-2.4-.4-.1-.7-.2-.7-.6.2-.8 1.7-2.1 3.5-2.1m-21.7 35.1h51.3v-47.3h-51.3z"/><path d="m64.8 7.8h7.3l6.4 21.4 6.9-21.5h5.8l7 21.5 6.3-21.4h7.1l-10.5 31.8h-5.9l-7-20.7-6.9 20.7h-5.9z"/><path d="m124.2 26.9-11.8-19.1h7.9l7.4 12.7 7.5-12.7h7.7l-11.9 19v12.6h-6.8z"/><path d="m146.9 7.8h6.2l14.5 19.4v-19.4h6.7v31.6h-5.8l-14.9-20.1v20.1h-6.7z"/><path d="m193.5 33.1c5.5 0 9.3-3.8 9.3-9.4v-.1c0-5.6-3.8-9.5-9.3-9.5h-5.2v19zm-12-25.3h12c9.7 0 16.4 6.8 16.4 15.7v.1c0 8.9-6.7 15.8-16.4 15.8h-12z"/><path d="m215.7 7.8h6.8v12.5h12.5v-12.5h6.8v31.6h-6.8v-12.7h-12.5v12.7h-6.8z"/><path d="m266.7 26.1-4.1-10.2-4.1 10.2zm-7.1-18.5h6.3l13.1 31.8h-7.1l-2.8-7.1h-13l-2.8 7.1h-6.9z"/><path d="m283.6 7.8h7.3l8.1 13.3 8.1-13.3h7.3v31.6h-6.7v-20.7l-8.7 13.5h-.2l-8.6-13.3v20.5h-6.6z"/><path d="m333.2 23.7c0-9.1 6.8-16.4 16.2-16.4 5.5 0 8.9 1.5 12.1 4.3l-4.3 5.3c-2.4-2-4.5-3.2-8.1-3.2-4.9 0-8.9 4.5-8.9 9.8v.1c0 5.8 3.9 10 9.3 10 2.5 0 4.7-.6 6.4-1.9v-4.5h-6.8v-6h13.4v13.7c-3.2 2.8-7.5 5-13.2 5-9.5 0-16.1-6.9-16.1-16.2"/><path d="m382.6 23.1c3.3 0 5.2-1.8 5.2-4.5v-.1c0-3-2-4.5-5.3-4.5h-6.7v9.1zm-13.7-15.3h14.1c3.9 0 7 1.1 9 3.2 1.7 1.8 2.6 4.2 2.6 7.2v.1c0 5.1-2.7 8.3-6.6 9.8l7.5 11.3h-7.9l-6.6-10.1h-5.3v10.1h-6.8z"/><path d="m418.3 26.1-4.1-10.2-4.1 10.2zm-7.2-18.5h6.3l13.2 31.8h-7.1l-2.8-7.1h-13l-2.8 7.1h-6.9z"/><path d="m435.2 7.8h6.2l14.5 19.4v-19.4h6.7v31.6h-5.8l-15-20.1v20.1h-6.6z"/><path d="m481.8 33.1c5.5 0 9.3-3.8 9.3-9.4v-.1c0-5.6-3.7-9.5-9.3-9.5h-5.2v19zm-12.1-25.3h12c9.7 0 16.4 6.8 16.4 15.7v.1c0 8.9-6.7 15.8-16.4 15.8h-12z"/><path d="m504.2 11.3c.4 0 .6-.2.6-.5s-.2-.5-.6-.5h-.7v.9h.7zm-1.7-1.8h1.8c.9 0 1.6.4 1.6 1.3 0 .6-.3 1-.8 1.2l.9 1.3h-1.2l-.7-1.1h-.4v1.1h-1.1v-3.8zm4.6 2c0-1.8-1.3-3.2-3.1-3.2s-3.1 1.5-3.1 3.2c0 1.8 1.3 3.2 3.1 3.2s3.1-1.4 3.1-3.2m-6.6 0c0-2 1.6-3.6 3.5-3.6 2 0 3.5 1.6 3.5 3.6s-1.6 3.6-3.5 3.6c-2 0-3.5-1.6-3.5-3.6"/></g></svg>