<?xml version="1.0" encoding="UTF-8" standalone="no"?><!DOCTYPE svg PUBLIC "-//W3C//DTD SVG 1.1//EN" "http://www.w3.org/Graphics/SVG/1.1/DTD/svg11.dtd"><svg width="100%" height="100%" viewBox="0 0 560 400" version="1.1" xmlns="http://www.w3.org/2000/svg" xmlns:xlink="http://www.w3.org/1999/xlink" xml:space="preserve" xmlns:serif="http://www.serif.com/" style="fill-rule:evenodd;clip-rule:evenodd;stroke-linejoin:round;stroke-miterlimit:1.41421;"><clipPath id="_clip1"><rect x="5" y="126.593" width="550" height="122.815"/></clipPath><g clip-path="url(#_clip1)"><path d="M205.473,228.184c-18.774,13.86 -45.999,21.223 -69.433,21.223c-32.854,0 -62.433,-12.147 -84.82,-32.354c-1.754,-1.587 -0.191,-3.756 1.919,-2.526c24.153,14.056 54.017,22.519 84.868,22.519c20.807,0 43.682,-4.321 64.732,-13.248c3.18,-1.349 5.843,2.086 2.734,4.386"/><path d="M213.288,219.264c-2.406,-3.073 -15.874,-1.456 -21.924,-0.731c-1.83,0.226 -2.115,-1.379 -0.463,-2.544c10.745,-7.548 28.354,-5.367 30.405,-2.841c2.062,2.55 -0.541,20.207 -10.615,28.634c-1.551,1.296 -3.019,0.606 -2.335,-1.105c2.258,-5.664 7.339,-18.335 4.932,-21.413m-21.502,-56.602l0,-7.328c0.012,-1.124 0.844,-1.866 1.86,-1.861l32.878,-0.005c1.052,0 1.896,0.766 1.896,1.848l0,6.294c-0.012,1.052 -0.904,2.43 -2.479,4.617l-17.027,24.314c6.318,-0.149 13.01,0.802 18.751,4.023c1.295,0.731 1.646,1.807 1.747,2.865l0,7.827c0,1.076 -1.183,2.33 -2.425,1.676c-10.115,-5.301 -23.546,-5.878 -34.731,0.065c-1.141,0.606 -2.342,-0.624 -2.342,-1.7l0,-7.44c0,-1.189 0.024,-3.227 1.224,-5.04l19.732,-28.301l-17.182,0c-1.052,0 -1.89,-0.755 -1.902,-1.854m-119.92,45.815l-9.996,0c-0.951,-0.065 -1.712,-0.779 -1.789,-1.688l0.012,-51.331c0,-1.028 0.861,-1.848 1.931,-1.848l9.319,-0.006c0.975,0.048 1.753,0.785 1.813,1.724l0,6.698l0.19,0c2.425,-6.478 7.001,-9.503 13.164,-9.503c6.258,0 10.18,3.025 12.974,9.503c2.43,-6.478 7.934,-9.503 13.823,-9.503c4.202,0 8.772,1.729 11.572,5.616c3.179,4.326 2.525,10.584 2.525,16.094l-0.011,32.396c0,1.022 -0.862,1.842 -1.932,1.842l-9.99,0c-0.999,-0.065 -1.789,-0.856 -1.789,-1.842l-0.006,-27.22c0,-2.157 0.19,-7.559 -0.279,-9.61c-0.749,-3.459 -2.984,-4.427 -5.878,-4.427c-2.425,0 -4.945,1.616 -5.973,4.207c-1.028,2.597 -0.933,6.912 -0.933,9.83l0,27.214c0,1.022 -0.862,1.842 -1.932,1.842l-9.984,0c-1.004,-0.065 -1.795,-0.856 -1.795,-1.842l-0.012,-27.22c0,-5.723 0.927,-14.144 -6.163,-14.144c-7.191,0 -6.906,8.207 -6.906,14.144l-0.006,27.214c-0.017,1.04 -0.879,1.86 -1.949,1.86m184.95,-45.477c-7.376,0 -7.845,10.044 -7.845,16.308c0,6.264 -0.095,19.66 7.75,19.66c7.75,0 8.124,-10.805 8.124,-17.39c0,-4.32 -0.19,-9.503 -1.498,-13.609c-1.123,-3.566 -3.363,-4.969 -6.531,-4.969m-0.095,-10.477c14.846,0 22.875,12.748 22.875,28.948c0,15.661 -8.867,28.082 -22.875,28.082c-14.561,0 -22.501,-12.748 -22.501,-28.622c-0.006,-15.987 8.029,-28.408 22.501,-28.408m42.125,55.954l-9.967,0c-0.998,-0.065 -1.795,-0.856 -1.795,-1.842l-0.012,-51.349c0.084,-0.945 0.91,-1.676 1.92,-1.676l9.277,-0.006c0.874,0.048 1.593,0.642 1.777,1.438l0,7.851l0.19,0c2.8,-7.024 6.722,-10.37 13.628,-10.37c4.481,0 8.867,1.622 11.672,6.05c2.615,4.1 2.615,11.012 2.615,15.987l0,32.295c-0.113,0.909 -0.927,1.616 -1.919,1.616l-10.027,0c-0.927,-0.059 -1.675,-0.743 -1.777,-1.616l0,-27.868c0,-5.616 0.654,-13.823 -6.258,-13.823c-2.43,0 -4.671,1.616 -5.788,4.1c-1.397,3.132 -1.587,6.264 -1.587,9.723l0,27.642c-0.024,1.028 -0.886,1.848 -1.949,1.848m-123.183,-0.131c-0.66,0.595 -1.617,0.636 -2.366,0.232c-3.322,-2.758 -3.916,-4.035 -5.735,-6.662c-5.485,5.592 -9.372,7.268 -16.486,7.268c-8.421,0 -14.971,-5.194 -14.971,-15.589c0,-8.118 4.404,-13.639 10.668,-16.343c5.426,-2.383 13.01,-2.817 18.81,-3.465l0,-1.302c0,-2.383 0.19,-5.194 -1.218,-7.25c-1.219,-1.842 -3.554,-2.603 -5.617,-2.603c-3.809,0 -7.203,1.955 -8.041,6.008c-0.172,0.904 -0.832,1.795 -1.735,1.843l-9.693,-1.052c-0.82,-0.19 -1.73,-0.838 -1.492,-2.092c2.229,-11.762 12.849,-15.316 22.364,-15.316c4.867,0 11.227,1.296 15.066,4.981c4.867,4.546 4.398,10.608 4.398,17.211l0,15.583c0,4.689 1.949,6.745 3.774,9.265c0.642,0.909 0.784,1.991 -0.03,2.657c-2.044,1.711 -5.67,4.861 -7.667,6.638l-0.029,-0.012Zm-10.08,-24.384c0,3.898 0.095,7.143 -1.872,10.608c-1.593,2.817 -4.119,4.547 -6.924,4.547c-3.833,0 -6.08,-2.924 -6.08,-7.257c0,-8.516 7.643,-10.062 14.876,-10.062l0,2.164Zm-121.026,24.384c-0.659,0.595 -1.616,0.636 -2.365,0.232c-3.322,-2.758 -3.916,-4.035 -5.735,-6.662c-5.492,5.592 -9.378,7.268 -16.486,7.268c-8.428,0 -14.971,-5.194 -14.971,-15.589c0,-8.118 4.398,-13.639 10.668,-16.343c5.426,-2.383 13.003,-2.817 18.804,-3.465l0,-1.302c0,-2.383 0.19,-5.194 -1.218,-7.25c-1.219,-1.842 -3.554,-2.603 -5.611,-2.603c-3.815,0 -7.209,1.955 -8.041,6.008c-0.172,0.904 -0.832,1.795 -1.735,1.843l-9.693,-1.052c-0.821,-0.19 -1.73,-0.838 -1.498,-2.092c2.229,-11.762 12.849,-15.31 22.37,-15.31c4.867,0 11.226,1.296 15.066,4.981c4.867,4.546 4.398,10.608 4.398,17.211l0,15.583c0,4.689 1.949,6.745 3.773,9.265c0.642,0.909 0.785,1.991 -0.029,2.657c-2.045,1.711 -5.676,4.861 -7.673,6.638l-0.024,-0.018Zm-10.085,-24.384c0,3.898 0.095,7.143 -1.872,10.608c-1.587,2.817 -4.113,4.547 -6.924,4.547c-3.833,0 -6.08,-2.924 -6.08,-7.257c0,-8.516 7.643,-10.062 14.876,-10.062l0,2.164Z"/><path d="M396.194,180.699c0,-17.419 -8.309,-28.379 -22.614,-28.379c-13.96,0 -23.071,11.655 -23.071,28.266c0,15.577 8.309,28.842 26.417,28.842c6.229,0 12.921,-1.73 17.996,-4.963l-3.233,-7.036c-3.81,2.08 -8.308,3.69 -13.497,3.69c-10.846,0 -17.074,-7.613 -17.306,-17.882l35.302,0l0,-2.538l0.006,0Zm-35.308,-5.081c0.119,-8.309 4.843,-15.227 12.688,-15.227c8.19,0 11.881,7.613 12.112,15.227l-24.8,0Z" style="fill:url(#_Linear2);fill-rule:nonzero;"/><path d="M400.461,181.507c0,-16.266 11.078,-29.187 27.689,-29.187c5.878,0 10.721,1.617 13.96,3.465l0,8.885c-3.696,-2.425 -7.844,-3.922 -13.152,-3.922c-11.191,0 -18.001,8.653 -18.001,20.189c0,12.807 6.81,20.07 17.306,20.07c5.539,0 9.461,-1.843 13.039,-3.81l2.996,7.155c-4.042,2.764 -10.383,5.076 -17.307,5.076c-17.187,-0.006 -26.53,-12.469 -26.53,-27.921" style="fill:url(#_Linear3);fill-rule:nonzero;"/><path d="M451.061,126.593l10.145,0l0,33.685c5.426,-4.612 11.535,-7.958 18.572,-7.958c8.54,0 16.611,5.076 16.611,19.381l0,36.574l-10.151,0l0,-33.234c0,-7.732 -1.961,-13.729 -9.461,-13.729c-5.539,0 -10.847,3.233 -15.577,7.382l0,39.575l-10.145,0l0,-81.676l0.006,0Z" style="fill:url(#_Linear4);fill-rule:nonzero;"/><path d="M529.159,152.315c-15.69,0 -25.959,12.456 -25.959,28.61c0,16.034 10.269,28.497 25.846,28.497c15.69,0 25.954,-12.463 25.954,-28.497c0,-16.148 -10.383,-28.61 -25.841,-28.61l0,0Zm-0.113,48.686c-9.58,0 -15.345,-8.416 -15.345,-20.07c0,-11.768 5.765,-20.189 15.458,-20.189c9.575,0 15.345,8.415 15.345,20.189c0,11.654 -5.77,20.07 -15.458,20.07Z" style="fill:url(#_Linear5);fill-rule:nonzero;"/></g><defs><linearGradient id="_Linear2" x1="0" y1="0" x2="1" y2="0" gradientUnits="userSpaceOnUse" gradientTransform="matrix(5.06698e-15,82.7501,-82.7501,5.06698e-15,373.349,127.706)"><stop offset="0" style="stop-color:#2cc0e1;stop-opacity:1"/><stop offset="1" style="stop-color:#146cae;stop-opacity:1"/></linearGradient><linearGradient id="_Linear3" x1="0" y1="0" x2="1" y2="0" gradientUnits="userSpaceOnUse" gradientTransform="matrix(5.06698e-15,82.7501,-82.7501,5.06698e-15,422.379,127.706)"><stop offset="0" style="stop-color:#2cc0e1;stop-opacity:1"/><stop offset="1" style="stop-color:#146cae;stop-opacity:1"/></linearGradient><linearGradient id="_Linear4" x1="0" y1="0" x2="1" y2="0" gradientUnits="userSpaceOnUse" gradientTransform="matrix(5.06698e-15,82.7501,-82.7501,5.06698e-15,473.728,127.706)"><stop offset="0" style="stop-color:#2cc0e1;stop-opacity:1"/><stop offset="1" style="stop-color:#146cae;stop-opacity:1"/></linearGradient><linearGradient id="_Linear5" x1="0" y1="0" x2="1" y2="0" gradientUnits="userSpaceOnUse" gradientTransform="matrix(5.06698e-15,82.7501,-82.7501,5.06698e-15,529.101,127.706)"><stop offset="0" style="stop-color:#2cc0e1;stop-opacity:1"/><stop offset="1" style="stop-color:#146cae;stop-opacity:1"/></linearGradient></defs></svg>