<?xml version="1.0" encoding="UTF-8" standalone="no"?><!DOCTYPE svg PUBLIC "-//W3C//DTD SVG 1.1//EN" "http://www.w3.org/Graphics/SVG/1.1/DTD/svg11.dtd"><svg width="100%" height="100%" viewBox="0 0 560 400" version="1.1" xmlns="http://www.w3.org/2000/svg" xmlns:xlink="http://www.w3.org/1999/xlink" xml:space="preserve" xmlns:serif="http://www.serif.com/" style="fill-rule:evenodd;clip-rule:evenodd;stroke-linejoin:round;stroke-miterlimit:1.41421;"><g><path d="M293.825,139.729c27.454,0 105.82,-26.455 138.017,-26.455c21.464,0 34.692,8.985 34.692,21.215c0,10.235 -8.74,17.722 -20.968,17.722c-12.228,0 -17.468,-6.241 -17.468,-13.23c0,-5.491 1.996,-8.984 6.49,-13.229c-1.996,-0.499 -3.244,-0.748 -4.995,-0.748c-36.687,0 -89.097,54.406 -89.097,96.585c0,2 0.5,5.74 0.749,9.484c19.464,-4.245 36.937,-7.235 53.161,-7.235c33.44,0 53.409,11.979 53.409,25.702c0,20.467 -31.945,37.186 -62.398,37.186c-26.203,0 -51.409,-13.975 -66.134,-38.681l-87.353,20.714c-13.977,3.244 -25.707,4.744 -36.188,4.744c-27.205,0 -46.172,-12.978 -48.417,-33.697c19.715,7.489 40.431,11.735 64.888,11.735c14.475,0 30.199,-1.749 46.919,-4.995l57.154,-10.729c-0.75,-5.244 -0.999,-7.99 -0.999,-11.734c0,-35.937 24.459,-62.892 63.393,-91.592c-38.936,9.734 -54.909,26.953 -76.373,26.953c-17.473,0 -31.196,-11.73 -32.693,-23.709c11.732,2.995 17.721,3.994 24.211,3.994Zm50.691,103.568c9.984,17.468 25.707,25.458 45.42,25.458c15.977,0 33.196,-6.239 33.196,-16.474c0,-6.988 -17.219,-14.477 -41.181,-14.477c-10.727,0 -20.461,1.749 -37.435,5.493Z"/><path d="M95.954,253.799c-9.732,0 -12.727,-7.489 -12.727,-15.973c3.496,2.494 6.239,3.745 10.482,3.745c9.732,0 17.47,-7.489 17.47,-16.224c0,-7.739 -5.74,-12.729 -13.726,-12.729c-14.226,0 -27.453,14.228 -27.453,27.952c0,15.474 13.476,25.956 31.198,25.956c17.219,0 29.701,-8.736 40.681,-25.707l41.43,-64.39c43.925,0 71.879,-14.724 71.879,-36.938c0,-16.222 -16.723,-25.456 -42.679,-25.456c-44.923,0 -95.338,31.445 -95.338,59.898c0,7.985 7.237,15.973 18.469,15.973c3.244,0 4.993,-0.748 8.234,-1.998c-4.99,-4.493 -6.487,-6.737 -6.487,-11.979c0,-8.736 7.486,-23.709 25.208,-37.437c11.229,-8.735 27.453,-14.226 41.929,-14.226c15.723,0 26.953,6.238 26.953,14.976c0,14.724 -19.219,26.454 -36.189,26.454c-1.497,0 -2.995,0 -6.737,-0.249c10.482,-17.969 10.482,-18.22 25.956,-34.94l-3.742,0c-21.965,0 -35.937,19.968 -55.156,51.663l-29.699,47.422c-11.236,17.966 -20.97,24.207 -29.956,24.207Zm366.343,-82.12c2.245,-2.995 3.496,-5.491 5.741,-9.983l21.962,7.738l-18.718,48.666c-1.251,3.244 -2.001,6.988 -3.496,12.978l-15.723,-7.485c2.494,-2.995 2.745,-3.994 4.245,-7.489l1.744,-4.245l-8.234,-3.74l-2.75,3.239c-1.996,2.25 -2.746,3.994 -3.99,7.739l-14.477,-4.49l33.696,-42.928Zm-5.511,26.955l5.74,2.247l6.491,-18.967l-12.231,16.72Z"/><path d="M199.771,228.074l19.219,-36.689c1.248,-2.245 1.498,-3.742 1.747,-7.987l11.732,0.5c11.73,0.748 16.972,3.493 16.972,12.727c0,11.229 -10.482,21.964 -24.708,21.964c-1.498,0 -2.746,0 -5.74,-0.75l-7.988,13.728c-0.997,1.745 -1.246,3.491 -1.747,6.984l-14.973,-2.994c2.738,-2.744 3.488,-3.99 5.486,-7.483Zm24.919,-20.968c1.996,0.75 2.993,0.995 3.992,0.995c3.744,0 7.487,-3.74 7.487,-7.734c0,-2.494 -1.749,-3.742 -5.99,-4.243l-5.489,10.982Zm186.452,-36.195c0,21.215 -24.708,45.175 -39.931,45.175c-9.485,0 -14.974,-5.994 -14.974,-14.978c0,-17.47 21.963,-45.173 41.927,-45.173c7.738,0.002 12.978,5.743 12.978,14.976Zm-19.239,-0.465c-7.489,0 -20.714,22.713 -20.714,28.702c0,1.996 0.749,3.244 2.494,3.244c6.988,0 21.212,-19.219 21.212,-28.702c0.002,-1.995 -1.248,-3.244 -2.992,-3.244Z"/><path d="M240.169,219.353l-6.239,16.473c3.496,-0.249 4.993,-0.501 6.737,-0.501c3.745,0 9.485,0.501 11.979,0.501c8.985,0 17.722,-5.74 17.722,-16.224c0,-5.99 -2.746,-12.228 -2.746,-17.473c0,-6.735 3.743,-10.728 10.233,-10.728c1.747,0 2.995,0.498 4.741,1.248l5.99,-11.73c-3.994,-2.247 -6.74,-3.244 -11.229,-3.244c-13.479,0 -24.459,10.482 -24.459,22.212c0,7.489 2.745,13.478 2.745,17.472c0,3.491 -2.745,5.74 -6.238,5.74c-2.995,-0.002 -5.743,-1.252 -9.236,-3.746Zm-71.589,0.749c-2.496,4.241 -4.492,6.74 -8.237,11.479l26.706,4.245l6.74,-12.729l-12.229,-0.999l4.243,-7.738l4.742,0.249c1.746,0 2.745,0.501 4.741,1.5l6.241,-11.979l-9.734,-0.75l4.243,-8.486l5.491,0c3.244,0 4.241,0 6.737,0.999l5.989,-10.982l-26.454,-1.498c-0.997,3.743 -1.747,5.491 -5.242,11.73l-13.977,24.959Zm253.308,-53.42l-25.208,45.92l25.458,0.501l6.49,-12.48c-3.496,0.75 -5.741,0.75 -9.984,0.75l23.712,-42.926l-16.723,-1.998c-1.25,4.492 -1.996,7.238 -3.745,10.233Zm-125.786,17.474l-24.959,46.673l13.977,-1.749l23.958,-43.175c1.499,-2.745 3.495,-5.491 6.988,-9.983l-18.469,1.497c0,3.493 -0.251,4.49 -1.495,6.737Zm13.934,7.494l-4.245,9.734l7.99,0l5.24,-9.734l-8.985,0Zm-15.304,91.468c-4.898,-2.443 -7.138,-8.331 -4.534,-13.553c2.581,-5.183 8.634,-6.932 13.53,-4.49c4.854,2.42 7.094,8.309 4.512,13.488c-2.606,5.226 -8.652,6.975 -13.508,4.555Zm-2.738,-12.662c-2.171,4.347 -0.584,9.128 3.491,11.16c4.029,2.009 8.804,0.4 10.971,-3.947c2.13,-4.269 0.556,-9.08 -3.473,-11.085c-4.075,-2.034 -8.859,-0.4 -10.989,3.872Zm5.01,3.393l-2.249,4.512l-1.556,-0.777l5.19,-10.405l3.907,1.951c2.429,1.21 3.179,2.714 2.153,4.766c-0.93,1.863 -2.486,2.101 -4.091,1.54l0.636,6.036l-1.74,-0.868l-0.46,-5.862l-1.79,-0.893Zm0.667,-1.336l1.859,0.929c1.32,0.658 2.543,1.15 3.34,-0.446c0.645,-1.289 -0.39,-2.106 -1.472,-2.645l-2.122,-1.057l-1.605,3.219Z"/></g></svg>