<svg clip-rule="evenodd" fill-rule="evenodd" stroke-linejoin="round" stroke-miterlimit="1.41421" viewBox="0 0 560 400" xmlns="http://www.w3.org/2000/svg"><g fill-rule="nonzero" transform="matrix(3.12345 0 0 3.12345 98.7047 147.229)"><path d="m39.072.588c-2.319 0-3.871.417-4.744 1.275-.877.86-1.303 2.34-1.303 4.523v2.674c0 2.185.426 3.664 1.303 4.524.873.856 2.426 1.275 4.744 1.275h13.1v4.049h-14.328v-1.664h-5.713v1.205c0 2.185.43 3.665 1.315 4.525.88.855 2.443 1.273 4.775 1.273h13.576c2.333 0 3.892-.417 4.774-1.273.885-.861 1.316-2.34 1.316-4.525v-3.256c0-2.185-.432-3.665-1.316-4.527-.882-.855-2.441-1.27-4.774-1.27h-13.1v-3.76h13.184v1.434h5.713v-1.057c0-1.999-.449-3.375-1.373-4.209-.905-.817-2.434-1.216-4.674-1.216zm20.83.242v17.377c0 2.201.43 3.685 1.316 4.539.88.847 2.428 1.26 4.731 1.26h13.887c2.319 0 3.87-.413 4.742-1.262.879-.854 1.307-2.337 1.307-4.537v-17.377h-6.297v17.838h-13.371v-17.838zm28.727 0v23.176h5.797v-12.471c0-.448-.018-.986-.053-1.604-.005-.092-.013-.187-.018-.281.213.197.449.411.704.639l16.3 13.717h4.313v-23.176h-5.795v12.139c0 .291.014.7.041 1.216.013.239.034.555.059.957-.407-.383-.879-.795-1.401-1.22l-15.636-13.092h-4.312zm-75.123.025-.496.875-1.673 2.959-1.272 2.248-.99 1.75-.725 1.283-.154.268-.996 1.762-.723 1.279-.09.156-.142.254-5.83 10.309h6.474c.124-.199.256-.391.391-.574.759-1.026 1.691-1.812 2.719-2.399.006 0 .01-.004.015-.006.68-.387 1.403-.687 2.143-.912.04-.011.079-.025.119-.037.059-.017.12-.033.178-.051 1.224-.336 2.486-.478 3.687-.478.796 0 1.635.073 2.477.228.369.068.741.152 1.107.25.038.01.075.024.113.034.835.237 1.652.557 2.401.972.172.098.341.199.506.305 1 .643 1.85 1.472 2.431 2.51.03.052.061.104.09.158v-.008c.001.003.005.004.006.008h7.119l-1.391-2.428-1.375-2.402-1.765-3.079-1.309-2.281-1.4-2.445-.885-1.541-1.065-1.857-.871-1.522-1.031-1.794-1.041-1.821-1.133-1.972h-.916-2.447-2.254zm20.717 28.498v3.848h.817v-2.694l2.929 2.694h.778v-3.848h-.801v2.685l-2.961-2.685zm17.473 0v3.848h4.004v-.723h-3.102v-.955h2.375v-.652h-2.375v-.862h3.063v-.656zm17.217 0v3.848h3.998v-.723h-3.1v-.955h2.377v-.652h-2.377v-.862h3.063v-.656zm8.344 0v3.848h.816v-2.694l2.93 2.694h.777v-3.848h-.799v2.685l-2.963-2.685zm17.477 0v3.848h3.998v-.723h-3.1v-.955h2.377v-.652h-2.377v-.862h3.063v-.656zm-76.605.008c-.364 0-.614.064-.75.189-.134.126-.203.365-.203.719v2.023c0 .359.069.6.203.725.136.122.386.186.75.186h2.285c.365 0 .615-.064.752-.186.135-.125.203-.366.203-.725v-.377h-.894v.561h-2.408v-2.43h2.408v.516h.894v-.561c-.021-.421-.34-.634-.955-.64zm68.854 0c-.364 0-.615.064-.75.189-.137.126-.201.365-.201.719v2.023c0 .359.064.6.201.725.135.122.386.186.75.186h2.287c.362 0 .613-.064.748-.186.137-.125.205-.366.205-.725v-.377h-.893v.561h-2.408v-2.43h2.408v.516h.893v-.561c-.019-.421-.338-.634-.953-.64zm-60.512.01c-.365 0-.615.061-.75.183-.138.122-.205.362-.205.722v2.018c0 .359.067.599.203.722.135.123.385.184.75.184h2.817c.365 0 .613-.061.75-.184.135-.123.205-.363.205-.722v-2.018c0-.36-.07-.6-.205-.722-.137-.123-.385-.184-.75-.184h-2.817zm16.684 0v3.832h.893v-1.456h2.201v-.701h-2.201v-1.007h2.986v-.668zm17.029 0v3.83h.877v-3.17h2.154c.169 0 .252.1.252.299v.463c0 .203-.083.308-.252.308h-1.974l2.068 2.1h1.121l-1.469-1.446h.924c.296-.125.445-.346.445-.671v-1.045c0-.445-.289-.668-.863-.668zm-33.773.691h2.94v2.41h-2.94z" fill="#424449"/><path d="m39.072 1.791c-2.441 0-3.47.506-3.902.929-.625.615-.943 1.848-.943 3.668v2.672c0 1.819.318 3.053.943 3.666.431.425 1.46.932 3.902.932h14.303v6.451h-16.732v-1.662h-3.308v.002c0 1.817.32 3.052.951 3.664.436.425 1.474.932 3.935.932h13.574c2.463 0 3.5-.508 3.938-.932.631-.615.951-1.847.951-3.664v-3.256c0-1.816-.319-3.051-.951-3.666-.437-.424-1.475-.931-3.938-.931h-14.301v-6.161h15.59v1.436h3.309c-.02-1.539-.349-2.606-.977-3.174-.666-.6-1.966-.906-3.869-.906zm-22.738.047-.734 6.638c-.192.033-.381.076-.564.131l-2.598-3.844 1.297 4.483c-.159.111-.31.232-.453.363l-2.776-1.439 1.885 2.55c-.082.142-.161.287-.228.438l-2.854-.889-.256.455-.885 1.563c.049-.008.095-.017.145-.024.086-.01.17-.022.254-.033.49-.055 1.658-.138 3.254.051 1.596.187 3.619.647 5.812 1.68-3.465-.825-5.203-.317-5.203-.317 1.328 0 9.491 1.293 18.264 9.369l-.547-.955-1.375-2.396-.117-.063-2.857-1.537-1.356-.73-3.062-1.649-.93-.519c.085-.175.156-.357.219-.543l5.297.177-5.049-1.57c.001-.042.008-.084.008-.127 0-.16-.009-.317-.024-.472l2.957-1.54-3.314.143c-.077-.176-.165-.344-.26-.508l1.904-2.531-2.795 1.42c-.145-.133-.297-.259-.457-.371l1.285-4.479-2.587 3.846c-.183-.056-.372-.096-.563-.127l-.736-6.642zm44.77.193v16.176c0 1.831.319 3.067.949 3.674.438.421 1.468.924 3.897.924h13.887c2.445 0 3.473-.502 3.904-.922.625-.608.941-1.844.941-3.676v-16.176h-3.89v17.838h-15.775v-17.838h-3.912zm28.727 0v20.773h3.394v-11.271c0-.425-.017-.94-.052-1.535-.033-.589-.086-1.226-.155-1.895l-.193-1.908 1.248 1.455c.235.275.494.547.769.811.289.275.628.582 1.006.92l15.951 13.424h2.672v-20.773h-3.392v10.937c0 .27.012.657.039 1.152.027.497.083 1.352.168 2.611l.125 1.86-1.188-1.436c-.315-.38-.669-.759-1.053-1.123-.388-.367-.846-.767-1.359-1.185l-15.314-12.818h-2.674zm-78.55 10.816c-.889-.036-2.141-.001-3.587.279l-.051.088.006-.002-.815 1.44c1.57-.67 4.255-1.647 5.865-1.662 0 0-.528-.107-1.418-.143z" fill="#f3e500"/></g></svg>