<svg clip-rule="evenodd" fill-rule="evenodd" viewBox="0 0 560 400" xmlns="http://www.w3.org/2000/svg" xmlns:xlink="http://www.w3.org/1999/xlink"><clipPath id="a"><path clip-rule="evenodd" d="m0 0h560v400h-560z"/></clipPath><path d="m0 0h560v400h-560z" fill="none"/><g clip-path="url(#a)"><path d="m508.122 227.689c16.334-14 39.278-27.611 51.878-32.511-1.944-1.245-4.978-3.034-8.4-4.978-16.256 5.367-35.233 17.267-52.189 30.722 2.878 2.178 5.911 4.434 8.711 6.767z" fill="#e31837"/><path d="m500.656 189.656c-2.412-1.167-5.056-2.256-7.078-3.189-6.145 3.033-14.156 7.622-24.267 14.855 2.178 1.167 4.511 2.567 7 3.967 7.778-5.756 15.633-11.2 24.345-15.633z" fill="#012169"/><path d="m515.2 182.967c-2.956-1.634-13.222-5.445-20.3-7.078-2.1.778-5.056 1.944-7.078 2.8 2.567.7 12.134 3.267 20.3 7.389 2.1-1.011 5.056-2.256 7.078-3.111z" fill="#e31837"/><path d="m480.433 181.956c-9.1 4.2-18.666 9.955-23.877 13.3 1.866.855 3.733 1.555 6.3 2.8 11.511-7.778 20.533-12.523 24.111-14.078-2.567-.934-4.978-1.556-6.534-2.022z" fill="#012169"/><path d="m522.044 180.556c2.1-.7 4.512-1.323 6.612-1.945-6.067-2.567-13.689-5.289-20.534-7-1.089.311-4.355 1.167-6.611 1.867 2.333.7 10.033 2.489 20.533 7.078zm-38.344 29.244c2.489 1.478 5.133 3.5 7.7 5.211 17.033-13.222 33.833-23.411 52.267-29.167-2.567-1.322-4.823-2.488-7.7-3.888-11.045 2.8-29.945 10.344-52.267 27.844z" fill="#e31837"/><path d="m0 223.644h12.444c6.3 0 9.256-3.266 9.256-7.855 0-3.733-1.944-6.222-5.989-7 3.578-.856 5.211-3.033 5.211-6.222 0-4.045-2.955-7.311-9.255-7.311h-11.589v28.388h-.078zm10.811-12.055c2.333 0 3.967 1.167 3.967 3.5 0 2.489-1.556 3.5-3.967 3.5h-4.044v-7.078h4.044zm-.778-11.356c2.334 0 3.967 1.011 3.967 3.345 0 2.333-1.556 3.344-3.967 3.344h-3.266v-6.689zm36.789-5.055h-7l-10.655 28.466h7.077l1.945-5.911h10.267l1.944 5.911h7.156zm-3.5 6.844 3.345 10.5h-6.845zm49.7-6.844h-6.455v19.055l-12.134-19.055h-7.233v28.466h6.456v-18.977l12.133 18.977h7.233zm29.789 28.466-9.333-14.466v14.466h-6.922v-28.466h6.922v13.689l8.866-13.689h7.7l-9.333 13.689 10.189 14.777zm32.589-14.233c0 5.678 3.422 9.178 7.856 9.178 4.433 0 7.855-3.5 7.855-9.178s-3.422-9.178-7.855-9.178c-4.434 0-7.856 3.5-7.856 9.178zm-7.311 0c.078-8.322 5.911-14.855 15.167-14.855 9.255 0 15.088 6.533 15.166 14.855-.078 8.322-5.911 14.856-15.166 14.856-9.256 0-15.089-6.534-15.167-14.856zm39.822 14.233h6.922v-11.2h9.023v-5.444h-9.023v-6.378h10.889l1.245-5.444h-19.056zm51.333-28.466h-7l-10.655 28.466h7.078l1.944-5.911h10.267l1.944 5.911h7.156zm-3.5 6.844 3.345 10.5h-6.845zm55.3-6.844h-8.088l-7.389 15.4-7.389-15.4h-8.089v28.466h6.222v-19.055l9.178 19.055 9.178-19.055v19.055h6.455zm13.456 28.466h19.444v-5.444h-12.522v-6.378h9.878v-5.289h-9.878v-5.911h11.434l1.244-5.444h-19.6zm45.811 0h7.545l-7.078-12.055c3.889-1.089 5.755-3.811 5.755-7.778 0-5.133-3.111-8.555-10.111-8.555h-10.966v28.466h6.766v-11.2h1.867zm-5.211-23.177c2.878 0 4.356 1.244 4.356 3.655s-1.478 3.656-4.356 3.656h-2.956v-7.311zm23.1 23.177h6.922v-28.388h-6.922zm40.989-7.622c-2.645 1.867-4.978 2.489-7.389 2.489-5.289 0-9.022-3.655-9.022-9.1 0-5.444 3.655-9.1 8.789-9.1 2.333 0 4.666.622 7.233 2.489v-6.456c-2.333-1.322-5.056-1.866-8.089-1.866-9.411 0-15.322 6.533-15.4 14.855.078 8.4 5.833 14.856 15.4 14.856 3.189 0 5.911-.545 8.4-1.867v-6.3zm25.355-20.844h-7l-10.655 28.466h7.078l1.944-5.911h10.267l1.944 5.911h7.156zm-3.5 6.844 3.345 10.5h-6.845z" fill="#012169"/></g></svg>