<svg clip-rule="evenodd" fill-rule="evenodd" stroke-linejoin="round" stroke-miterlimit="2" viewBox="0 0 560 400" xmlns="http://www.w3.org/2000/svg"><g fill-rule="nonzero" transform="matrix(13.1876 0 0 13.1876 -1056.87 -13502.9)"><path d="m91.136 1029.75h20.474v18.648h-20.474z"/><g fill="#fff"><path d="m101.162 1042.71h8.37v-2.31h-5.68v-1.97h5.06v-2.08h-5.06v-1.81h5.537v-2.15h-8.227zm-3.89-5.84c1.084 0 1.46 1.06 1.46 2.01 0 1.03-.376 2.17-1.476 2.17-1.114 0-1.487-.85-1.487-2.17 0-1.54.838-2.01 1.503-2.01m-3.876 5.84h2.343v-.86h.03c.475.71 1.2 1.08 2.067 1.08 2.356 0 3.353-2.02 3.353-4.14 0-1.94-1.04-3.8-3.165-3.8-.925 0-1.633.35-2.142 1.04h-.025v-3.64h-2.461z"/><path d="m108.998 1044.26c0 .19-.095.3-.336.3h-.435v-.59h.447c.233 0 .324.12.324.29m.796 1.8-.537-1.03c.296-.14.486-.39.486-.79 0-.63-.421-.87-1.05-.87h-1.203v2.69h.737v-.91h.297l.438.91zm-2.641-1.16v-1.53h-.758v1.53c0 .34-.126.54-.415.54-.292 0-.423-.2-.423-.54v-1.53h-.758v1.53c0 .86.494 1.2 1.17 1.2.675 0 1.184-.34 1.184-1.2m-3.355-.19c0 .49-.169.74-.464.74-.302 0-.477-.26-.477-.74 0-.49.167-.74.467-.74s.474.26.474.74m.774-.01c0-.89-.51-1.38-1.238-1.38-.731 0-1.247.5-1.247 1.39 0 .9.508 1.39 1.237 1.39.73 0 1.248-.5 1.248-1.4m-2.749-1.33h-.759v2.68h.759zm-.97 0h-.829l-.196.72c-.093.34-.223.88-.273 1.14-.048-.26-.178-.81-.273-1.14l-.195-.72h-.834l.921 2.68h.754zm-3.34 1.62h-.444l.05-.17c.096-.35.136-.5.174-.68.032.18.076.33.17.68zm1.134 1.06-.975-2.68h-.752l-.976 2.68h.799l.145-.47h.806l.146.47zm-2.894 0v-2.68h-.759v.97h-.837v-.97h-.76v2.68h.76v-1.06h.837v1.06z"/></g></g></svg>