<svg clip-rule="evenodd" fill-rule="evenodd" viewBox="0 0 560 400" xmlns="http://www.w3.org/2000/svg"><path d="m280 350c82.288 0 150-67.712 150-150s-67.712-150-150-150-150 67.712-150 150c.005 82.285 67.715 149.995 150 150z" fill="#fcb514"/><path d="m280 344.434c79.234 0 144.434-65.2 144.434-144.434s-65.2-144.434-144.434-144.434-144.434 65.2-144.434 144.434c.013 79.229 65.205 144.42 144.434 144.434z" fill="#111"/><path d="m271.832 322.65c2.722.181 5.385.303 8.168.303 2.723 0 5.446-.121 8.108-.303v-39.511h-16.276zm64.138-55.123 24.99 24.991c4.101-3.577 7.943-7.439 11.497-11.558l-24.808-24.808-11.678 11.375zm4.538-67.527 8.411 8.108h53.731c.181-2.662.364-5.385.364-8.108 0-2.783-.183-5.506-.303-8.168h-53.792zm-119.141-8.168h-64.078c-.181 2.662-.303 5.385-.303 8.168 0 2.723.121 5.446.303 8.108h64.078zm-22.327 100.686 11.981-12.042v-23.053l-23.539 23.538c3.575 4.121 7.437 7.983 11.558 11.558zm11.981-173.055-12.042-11.981c-4.085 3.571-7.925 7.412-11.497 11.497l23.539 23.539zm77.087-42.174c-2.662-.181-5.385-.303-8.108-.303-2.783 0-5.446.121-8.168.303v39.512h16.276zm84.41 41.69c-3.593-4.085-7.453-7.925-11.558-11.497l-24.99 24.991 11.678 11.375 24.87-24.87zm-144.858 125.253-10.347 10.044v22.569h100.02l25.354-24.627v-41.387l-11.194-10.831 11.194-10.891v-41.327l-25.354-24.687h-100.02v22.569l10.347 10.104z" fill="#fcb514"/><path d="m348.979 185.115h53.067c-2.671-22.236-11.401-43.317-25.232-60.932l-27.834 27.834v33.098zm-83.864-68.313v-38.847c-22.236 2.671-43.317 11.401-60.932 25.232l13.676 13.674h47.256v-.06zm83.864 98.023v33.159l27.834 27.773c13.853-17.602 22.585-38.69 25.232-60.932h-53.067zm-17.85-87.01 24.627-24.627c-17.614-13.832-38.695-22.561-60.932-25.232v38.907h25.051l11.254 10.953zm-109.762 34.55-38.18-38.181c-13.834 17.619-22.583 38.696-25.292 60.932h63.473v-22.751zm0 75.212v-22.752h-63.473c2.696 22.241 11.446 43.321 25.292 60.932l38.18-38.18zm98.508 45.563h-25.051v38.907c22.259-2.659 43.362-11.389 60.993-25.232l-24.627-24.627-11.315 10.953zm-54.76 0h-47.256l-13.676 13.674c17.61 13.841 38.694 22.571 60.932 25.232v-38.907z" fill="#fff"/><path d="m222.518 256.515v15.127h92.759l22.205-21.663v-36.909l-13.432-13.07 13.432-13.07v-36.971l-22.267-21.601h-92.698v15.067l10.407 10.104v92.88l-10.407 10.106z" fill="#111"/><path d="m313.642 179.246v-19.362l-10.164-9.924h-48.407v39.21h48.346l10.226-9.923zm0 60.871v-19.422l-10.164-9.924h-48.407v39.21h48.346l10.226-9.863z" fill="#fcb514"/><path d="m308.438 222.932-7.079-6.897h-41.025v28.741h41.025l7.079-6.897zm0-60.871-7.079-6.897h-41.025v28.801h41.025l7.079-6.897z" fill="#111"/><path d="m302.147 235.216v-9.682l-3.389-3.206h-32.13v16.155h32.13zm0-60.811v-9.682l-3.389-3.267h-32.13v16.216h32.13z" fill="#fff"/></svg>