<svg clip-rule="evenodd" fill-rule="evenodd" stroke-linejoin="round" stroke-miterlimit="2" viewBox="0 0 560 400" xmlns="http://www.w3.org/2000/svg"><g transform="matrix(9.37559 0 0 9.37559 130 50)"><circle cx="15.999" cy="15.999" fill="#f04086" r="15.999"/><path d="m23.437 16.754c-.63-.696-1.536-1.128-2.72-1.296v-.025c1.037-.168 1.852-.593 2.406-1.273.562-.674.868-1.526.862-2.404 0-1.461-.47-2.454-1.444-3.235-.974-.78-2.436-1.037-4.417-1.037h-7.481v6.963h-4.296v2.667h11.727c.923 0 1.616.065 2.074.434s.692.846.692 1.551-.231 1.307-.692 1.685c-.46.377-1.154.626-2.074.626h-4.024v-2.074h-3.407v4.741h7.727c1.965 0 3.467-.513 4.509-1.31 1.041-.797 1.53-1.974 1.53-3.419.013-.956-.334-1.882-.972-2.594zm-5.793-2.314h-3.594v-4.296h3.594c1.848 0 2.77.721 2.77 2.148s-.922 2.148-2.77 2.148z" fill="#fff" fill-rule="nonzero"/></g></svg>