<svg clip-rule="evenodd" fill-rule="evenodd" stroke-linejoin="round" stroke-miterlimit="1.41421" viewBox="0 0 560 400" xmlns="http://www.w3.org/2000/svg"><path d="m-258.557 131.596c-1.793.181-3.518 1.498-3.5 3.844.027 3.505 3.49 5.21 6.469 2.938l-.938-1.75c-1.285 1.341-3.553.783-3.625-1.094-.068-1.765 2.253-2.718 3.625-1.219l.938-1.781c-.805-.731-1.893-1.046-2.969-.938zm6.437 0c-1.977-.052-4.089 1.337-4.031 3.875.051 2.218 1.873 3.947 3.563 3.938.364.001.729 0 1.093 0l.813-1.281h2.187v1.285h.219l1.531-2.473v-5.344h-1.906l-3.781 5.782c-.943-.045-1.8-.709-1.827-1.827-.041-1.766 2.267-2.735 3.639-1.236l.938-1.781c-.671-.609-1.539-.914-2.438-.938zm9.062 0-4.917 7.837c.742-.003 1.477-.005 2.219 0l.812-1.408h2.188v1.408h1.781v-7.837zm.302 3.147v1.719h-1.125c.377-.566.75-1.152 1.125-1.719zm-5.739.135v1.718l-1.125-.031c.377-.566.751-1.121 1.125-1.687z" fill="#0925b5" fill-rule="nonzero" transform="matrix(17.0758 0 0 17.0758 4574.83 -2113.84)"/></svg>