<svg clip-rule="evenodd" fill-rule="evenodd" stroke-linejoin="round" stroke-miterlimit="1.41421" viewBox="0 0 560 400" xmlns="http://www.w3.org/2000/svg"><g fill-rule="nonzero" transform="matrix(.326154 0 0 .326154 119.151 275)"><path d="m130.37-533.856c-51.094 7.664-111.555 35.908-111.555 35.908s328.845 249.933 381.003 287.189c101.904 72.808 151.507 79.834 245.746 17.386.496-.214 31.011-20.225 31.437-20.509-28.456 1.49-57.835-14.547-90.762-39.242-105.594-79.054-316.213-235.883-330.335-246.314-48.965-36.618-79.692-41.23-125.534-34.418" fill="#004ea2"/><path d="m592.839-286.761c52.654 39.456 90.549 67.486 151.861 26.895 6.529-4.4 216.013-142.565 225.522-148.881-53.01-39.74-90.904-68.125-152.429-27.321-8.658 5.677-166.268 109.638-175.919 116.025-28.456 18.451-54.216 20.296-73.163 15.186.145.214 23.915 17.954 24.128 18.096m242.694-203.026c-52.584-39.527-90.478-67.487-151.861-26.896-6.6 4.329-200.117 132.134-209.626 138.521 53.009 39.669 90.904 68.054 152.429 27.25 8.658-5.677 150.443-99.278 160.094-105.594 28.385-18.521 42.01-23.985 58.97-26.185-.145-.145-9.793-6.954-10.006-7.096" fill="#7fbe25"/><path d="m611.36 71.107-3.193-130.005h-73.093l-29.237 88.279-29.166-88.279h-73.092l-3.264 130.005h46.197l.639-98.213 34.914 98.213h47.617l34.985-98.213.495 98.213zm97.575-70.679 16.747-36.192 16.747 36.192zm49.532-59.326h-65.641l-74.299 130.076h57.764l19.161-41.158h60.602l18.948 41.158h57.764zm-450.476 93.104c-7.948 5.607-21.147 9.581-32.927 9.581-11.709 0-24.837-3.974-32.856-9.581-9.438-6.67-15.47-14.689-16.037-27.321.566-12.773 6.599-20.721 16.037-27.391 8.019-5.606 21.147-9.51 32.856-9.51 11.78 0 24.979 3.904 32.927 9.51 9.58 6.67 15.471 14.618 16.038 27.391-.567 12.632-6.458 20.651-16.038 27.321m70.325-27.321c0-.568.073-1.063.073-1.49h-.073c-.851-19.869-9.083-33.565-22.992-45.842-13.554-11.993-38.817-22.354-80.26-22.354-41.3 0-66.634 10.361-80.188 22.354-13.98 12.277-22.212 25.973-22.922 45.842h-.145c0 .426 0 .923.073 1.49-.073.497-.073.923-.073 1.42h.145c.711 19.87 8.942 33.637 22.922 45.843 13.554 11.922 38.888 22.353 80.188 22.353 41.443 0 66.706-10.431 80.26-22.353 13.909-12.206 22.141-25.973 22.992-45.843h.073c0-.497-.073-.923-.073-1.42m604.821-34.701c-28.385-7.522-64.86-6.173-82.885 6.103-10.006 6.742-16.038 14.973-16.038 28.457 0 12.134 7.026 21.643 18.025 28.598 16.818 10.644 52.3 11.851 84.305 4.258l-3.123 30.514c-62.519 15.399-104.387.212-122.908-10.928-18.096-11.071-30.657-29.379-30.657-52.868 0-20.934 8.445-34.914 23.064-47.475 18.237-15.541 60.886-29.591 125.321-16.534zm-830.059 0c-28.385-7.522-64.86-6.173-82.885 6.103-9.935 6.742-16.038 14.973-16.038 28.457 0 12.134 7.026 21.643 18.025 28.598 16.818 10.644 52.371 11.851 84.376 4.258l-3.265 30.514c-62.448 15.399-104.316.212-122.837-10.928-18.096-11.071-30.657-29.379-30.657-52.868 0-20.934 8.374-34.914 23.063-47.475 18.167-15.541 60.745-29.591 125.393-16.534z" fill="#004ea2"/></g></svg>