<svg clip-rule="evenodd" fill-rule="evenodd" stroke-linejoin="round" stroke-miterlimit="2" viewBox="0 0 560 400" xmlns="http://www.w3.org/2000/svg" xmlns:xlink="http://www.w3.org/1999/xlink"><linearGradient id="a"><stop offset="0" stop-color="#43c465"/><stop offset="1" stop-color="#14a53c"/></linearGradient><linearGradient id="b" gradientTransform="matrix(.6667 -45.3334 45.3334 .6667 44.6358 76.7643)" gradientUnits="userSpaceOnUse" x1="0" x2="1" xlink:href="#a" y1="0" y2="0"/><linearGradient id="c" gradientTransform="matrix(-46.6667 -2 2 -46.6667 99.2943 25.134)" gradientUnits="userSpaceOnUse" x1="0" x2="1" y1="0" y2="0"><stop offset="0" stop-color="#33c2f7"/><stop offset="1" stop-color="#0f95b2"/></linearGradient><linearGradient id="d" gradientTransform="matrix(-.6667 -54 54 -.6667 45.1905 141.928)" gradientUnits="userSpaceOnUse" x1="0" x2="1" xlink:href="#a" y1="0" y2="0"/><linearGradient id="e" gradientTransform="matrix(40.6667 -.6666 .6666 40.6667 108.237 25.1477)" gradientUnits="userSpaceOnUse" x1="0" x2="1" y1="0" y2="0"><stop offset="0" stop-color="#03b7f9"/><stop offset="1" stop-color="#0f95b2"/></linearGradient><linearGradient id="f" gradientTransform="matrix(-1.3333 -46 46 -1.3333 158.283 78.5135)" gradientUnits="userSpaceOnUse" x1="0" x2="1" xlink:href="#a" y1="0" y2="0"/><linearGradient id="g" gradientTransform="matrix(-.6667 -56 56 -.6667 159.201 144.891)" gradientUnits="userSpaceOnUse" x1="0" x2="1" xlink:href="#a" y1="0" y2="0"/><linearGradient id="h" gradientTransform="matrix(-50 1.3333 -1.3333 -50 100.381 147.293)" gradientUnits="userSpaceOnUse" x1="0" x2="1" y1="0" y2="0"><stop offset="0" stop-color="#fff58e"/><stop offset="1" stop-color="#ffca20"/></linearGradient><linearGradient id="i" gradientTransform="matrix(38 2 -2 38 106.098 147.466)" gradientUnits="userSpaceOnUse" x1="0" x2="1" y1="0" y2="0"><stop offset="0" stop-color="#feda5a"/><stop offset="1" stop-color="#ffca20"/></linearGradient><g fill-rule="nonzero" transform="matrix(1.33005 0 0 1.33005 145 84.9507)"><path d="m0 86h89l-56-55.5z" fill="url(#b)"/><path d="m102 0v50.5l-50.5-50.5z" fill="url(#c)"/><path d="m89 86-55.5 56-33.5-56z" fill="url(#d)"/><path d="m102 50.5 50.3-50.5h-50.3z" fill="url(#e)"/><path d="m203 86-33.5-55.5-55.5 55.5z" fill="url(#f)"/><path d="m170.5 142-56.5-56h89z" fill="url(#g)"/><path d="m102 121.5v51.5h-50.5z" fill="url(#h)"/><path d="m152.3 173h-50.3v-51.5z" fill="url(#i)"/></g></svg>