<svg clip-rule="evenodd" fill-rule="evenodd" stroke-linejoin="round" stroke-miterlimit="1.41421" viewBox="0 0 560 400" xmlns="http://www.w3.org/2000/svg"><g fill="#0c1220" fill-rule="nonzero" transform="matrix(.369488 0 0 .369488 178.004 23.6047)"><path d="m67.6 943.1-6.7-8-5.5-51.8c-3-28.5-5.9-55.8-6.4-60.8-.5-4.9-1-9.8-1-10.8 0-1.6 1-1.7 10.3-1.5l10.2.3 1.2 22c2.3 44.3 3.3 63.3 3.9 77.3.4 7.8.8 14.1 1 14 .3-.3 1.1-15 4.4-77.2 1-19.7 2.1-36 2.3-36.2.2-.3 4.9-.3 10.4-.2l9.9.3-3.3 30.5c-1.7 16.8-4.1 38.8-5.2 49s-2.6 24.3-3.3 31.4l-1.2 13-6.4 8c-3.5 4.5-6.7 8.2-7.1 8.4-.5.2-3.9-3.3-7.5-7.7z"/><path d="m369 935.3c-6.1-2.2-8.4-4-10.1-7.7-1.7-3.8-1.9-7.8-1.9-60.9v-56.8l9.8.3 9.7.3.3 54.3c.2 51 .3 54.3 2 54 1.6-.3 1.7-3.9 2-54.6l.2-54.2h19v57.3c0 64.9.3 62-8 66.4-3.6 1.9-5.8 2.3-12.9 2.2-4.7 0-9.3-.3-10.1-.6z"/><path d="m418.7 934.6c-8.8-3.2-9.7-5.5-9.7-26.6v-17.1l9.3.3 9.2.3.3 14.3c.2 13.4.4 14.2 2.2 14.2 1.9 0 2-.7 2-14.6 0-8.9-.4-15.4-1.1-16.7-.7-1.2-4.7-5.9-9-10.4s-8.9-10.4-10.3-13.2c-2.5-4.9-2.6-5.5-2.6-25.3 0-22.7.6-24.9 7.2-28.5 5-2.7 23-2.6 27.7.2 7.2 4.2 7.6 5.6 7.6 24.8v17.2h-9.5-9.5l-.3-14.2c-.2-13.5-.4-14.3-2.2-14.3-1.9 0-2 .7-2 14 0 16.9.1 17.2 11.4 29 12.2 12.7 12.1 12.5 12.1 37.2 0 19.3-.1 20.8-2.1 23.5-3.6 4.9-9.7 7.3-18.9 7.3-4.4-.1-9.7-.7-11.8-1.4z"/><path d="m512.1 933.8c-8.2-4.2-8.6-5.5-8.6-25.1v-17.2h19l.3 14.3c.2 13.4.4 14.2 2.2 14.2 1.9 0 2-.7 2-13.9 0-7.7-.5-15.2-1.1-16.7-.5-1.6-4.8-6.8-9.5-11.6-12.6-13.1-12.9-14-12.9-38.5 0-18.9.1-20.3 2.1-23 4.1-5.5 7.8-6.8 19.4-6.8 12 0 15.9 1.5 19.5 7.5 1.8 3.1 2 5.2 2 20v16.5h-9.5-9.5l-.3-14.2c-.2-13.5-.4-14.3-2.2-14.3-1.9 0-2 .7-2 14.6 0 9 .4 15.4 1.2 16.7.6 1.2 4.8 6.1 9.3 10.9 4.5 4.7 9.3 10.8 10.6 13.5 2.3 4.6 2.4 5.8 2.4 24.3 0 17.8-.2 19.8-2 23-3.4 5.6-7.5 7.4-18.5 7.8-8.4.3-10 .1-13.9-2z"/><path d="m7 872.5v-62.5h32.9l.6 5.8c.3 3.1.8 7.6 1.1 10l.5 4.2h-7.5-7.6v32h14.9l.6 5.8c1.3 11.9 2.1 10.7-7.2 11l-8.3.3v35.8l18.4.6.7 4c.4 2.2.9 6.6 1.1 9.8l.5 5.7h-20.4-20.3z"/><path d="m103.6 900.8c-.7-33.8-.7-34.7 2.3-62.3 1.7-15.4 3.1-28.1 3.1-28.2 0-.2 3.4-.3 7.5-.3h7.5v125h-9.9-9.8z"/><path d="m132 872.5v-62.5h20v104.9l6.8.3 6.7.3.3 9.8.3 9.7h-17.1-17z"/><path d="m192.7 933.6c-2-.8-4.5-2-5.4-2.7-4.2-3.5-4.3-5.5-4.3-59.1 0-57.1-.1-56.2 6.8-60.1 4.1-2.4 17.9-3.4 23.9-1.8 10.4 2.8 12.5 8.2 12.1 31.1l-.3 14.5-9.7.3-9.8.3v-15.1c0-14.4-.1-15-2-15-2 0-2 .5-1.8 45.8l.3 45.7 2.3.3 2.2.3v-16.3c-.1-12.2-.5-18.2-1.9-24l-1.8-7.8h22.7l-.2 32.3-.3 32.2-14.5.2c-10.2.2-15.6-.2-18.3-1.1z"/><path d="m234 872.5v-62.5h35v20h-7.5-7.5v32h13v17h-6.5-6.5v36h15v20h-17.5-17.5z"/><path d="m277 872.5v-62.5h9.5c5.2 0 9.5.2 9.5.5 0 .5 4.4 37.4 5.3 44.5.3 1.9.4-7.4.3-20.7l-.1-24.3h18.5v125h-9.3-9.4l-1.7-14.2c-1-7.9-2.6-19.9-3.5-26.8l-1.8-12.5.4 18c.2 9.9.5 21.9.7 26.8l.3 8.7h-9.3-9.4z"/><path d="m329 872.5v-62.5h20v125h-10-10z"/><path d="m460 872.5v-62.5h35v20h-7.5-7.5v32h13v17h-6.5-6.5v36h15v20h-17.5-17.5z"/><path d="m296.5 726c-.3-.8-.4-49.8-.3-108.9l.3-107.4 13-3.2c14.5-3.6 25.6-7.8 36-13.5 22.9-12.6 43.4-32.8 56.4-55.5l5.1-9-45-.3-45-.2v-62.5-62.5h222.6l2.3 11.9c6 32.8 6.4 63.6 1 95.1-8.4 49.6-28.9 93.2-61.6 131.7-13.9 16.3-184.1 186-184.8 184.3z"/><path d="m240.5 633.9c-84.1-12.4-154.6-58.9-197.1-130.1-33.2-55.7-45.2-121.9-33.8-185.8 8.1-44.8 27.1-86.6 56-123 6.4-8.1 188-191 189.6-191 .5 0 .7 48.9.6 108.6l-.3 108.7-10 2.2c-18.7 4.3-34.9 11-49.2 20.5-19.5 13-37.1 32.1-47.2 51l-4.2 8h90.1v125h-45-45l2.4 4.8c4.9 9.6 15 23.6 23.9 32.8 20.1 21.1 42.1 33.7 71.2 40.9l13 3.2v124.8l-4.5.2c-2.5 0-7.2-.3-10.5-.8z"/><path d="m371.3 256c-17.9-15.9-39.6-26.8-64.8-32.5l-10-2.2v-62.9-62.9l4.5.3c15.7 1.1 41.5 6.4 59.4 12.4 24.6 8.2 43.5 17.3 64.6 31.3 17 11.3 27.2 19.7 42.1 34.5 14.7 14.7 22.8 24.6 35 42.9 8.9 13.4 24.3 42.6 23.3 44.3-.3.4-33.5.8-73.9.8h-73.4z"/></g></svg>