<svg clip-rule="evenodd" fill-rule="evenodd" stroke-linejoin="round" stroke-miterlimit="1.41421" viewBox="0 0 560 400" xmlns="http://www.w3.org/2000/svg"><g fill-rule="nonzero" transform="matrix(18.3612 0 0 18.3612 145.008 93.2665)"><path d="m.278.013c.122-.022.247-.009.37-.011 1.867.002 3.735-.001 5.603.002.191.058.32.262.307.459-.003.255.001.511-.002.766-.006.217-.189.425-.413.419-.549-.001-1.098-.002-1.647 0-.22.001-.414.195-.415.415v7.484c-.005.235.224.435.455.418.536-.002 1.072-.001 1.607-.001.213-.003.391.176.41.384.009.278.001.557.003.835.006.239-.211.46-.454.442-1.893-.001-3.787.001-5.68-.001-.229.006-.431-.208-.422-.436.002-.279-.002-.559.002-.838.012-.212.204-.388.414-.387.536 0 1.072.001 1.608 0 .24.012.443-.221.427-.455v-7.406c.019-.235-.189-.46-.426-.454-.536-.002-1.072-.001-1.608.001-.224.009-.415-.201-.416-.419 0-.268 0-.536-.001-.805-.009-.179.121-.342.278-.412z"/><path d="m8.408.023c.092-.034.193-.018.288-.021 1.883.002 3.766 0 5.648 0 .211.007.367.22.359.422 0 .268.001.537-.001.805.004.199-.164.39-.36.417-.56.004-1.12-.003-1.68.003-.239-.009-.45.216-.43.454-.002 2.469 0 4.937 0 7.405-.018.235.192.466.429.456.536-.002 1.072 0 1.609-.002.225-.011.435.194.433.419 0 .281.004.562-.001.842-.006.224-.211.415-.435.401-1.893.002-3.787 0-5.68.001-.207.004-.412-.151-.426-.364-.011-.293-.002-.587-.005-.881-.006-.22.2-.427.423-.417.536.001 1.072.001 1.608.001.219-.001.418-.193.416-.415.004-1.376 0-2.753.002-4.129.015-.243-.215-.462-.455-.446-.79-.001-1.579-.002-2.369 0-.226-.009-.439.189-.439.416.003.288-.004.576.003.864.011.219.224.384.434.39.268.001.536-.004.804 0 .213.003.391.208.386.418 0 .281.004.562-.001.844-.004.218-.206.4-.422.393-.802.001-1.605.001-2.407 0-.16.006-.313-.097-.383-.239-.058-.106-.04-.231-.042-.346.001-1.324 0-2.647 0-3.971-.01-.226.199-.436.425-.43 1.336.001 2.672 0 4.008.001.227.012.455-.175.457-.408.003-.268 0-.535.002-.803.005-.166-.079-.343-.238-.409-.114-.062-.247-.046-.372-.047-.473.002-.945-.002-1.417.003-.223.012-.43-.197-.423-.42-.003-.269.001-.537-.001-.805-.006-.167.091-.346.253-.402z"/></g></svg>