<svg clip-rule="evenodd" fill-rule="evenodd" stroke-linejoin="round" stroke-miterlimit="1.41421" viewBox="0 0 560 400" xmlns="http://www.w3.org/2000/svg"><g fill-rule="nonzero" transform="matrix(3.52388 0 0 -3.52388 -58.4999 1753.07)"><path d="m71.006 439.619c0 1.637.625 3.804 2.046 6.387.592-.829 2.792-3.942 3.556-5.57-.061-2.164-1.527-3.17-2.17-3.504-1.093-.564-2.088-.474-2.469-.102-.612.6-.963 1.545-.963 2.789m4.695 10.427c2.891 3.803 6.788 5.853 9.695 5.099 1.922-.498 3.205-2.348 3.618-5.207 0 0 .209-1.468.352-2.467h-15.448c.523.826 1.101 1.677 1.783 2.575m21.775 15.765s-4.568-2.038-5.425-2.422c-2.953 3.188-7.328 4.496-12.415 3.656-9.558-1.579-19.314-9.984-23.197-19.988-2.088-5.378-1.626-10.742 1.303-15.105 3.295-4.913 9.539-7.072 16.292-5.633 4.859 1.035 9.019 3.743 11.805 7.432-1.502-6.716-4.583-20.47-4.583-20.47l1.513.787c10.129 5.278 13.756 7.168 15.091 7.893.726-.726 9.615-9.613 9.615-9.613l29.492 32.366h-41.757c.924.657 3.863 2.757 3.863 2.757h-5.664c1.096 2.073 11.444 21.633 11.444 21.633z" fill="#fff"/><path d="m74.805 436.229c-1.292-.67-2.685-.656-3.39.033-1.9 1.863-2.083 6.715 3.657 14.262 3.085 4.056 7.315 6.218 10.525 5.387 2.25-.585 3.742-2.666 4.2-5.863 0 0 .247-1.708.486-3.371h-16.738s3.029-4.172 3.866-6.084v-.026c0-2.752-1.949-3.998-2.606-4.338m30.158 7.689s-2.533-2.828-3.404-3.817c.032.075 1.634 3.817 1.634 3.817h-10.458c1.983 1.416 3.866 2.759 3.866 2.759h-4.507c.72 1.362 10.987 20.766 10.987 20.766l-5.278-2.356s-5.135-2.292-5.939-2.651c-8.421 10.05-28.523.201-34.685-15.667-2.073-5.337-1.463-10.378 1.222-14.378 3.115-4.639 9.04-6.668 15.469-5.3 6.791 1.448 12.068 6.12 14.021 12.19-.754-3.363-5.486-24.512-5.486-24.512s15.616 8.139 15.621 8.145c.147-.148 9.423-9.42 9.423-9.42l27.726 30.424z" fill="#002654"/><g transform="matrix(.8 0 0 -.8 54.1806 469.848)"><path d="m37.496 7.346c-9.789-.303-22.324 10.66-26.583 23.268.988-8.201 7.595-15.645 12.076-19.138-10.708 3.418-23.773 21.839-15.644 33.949 7.746 11.543 30.253 5.726 33.061-10.528l4.836-3.447h-16.182l2.33 3.447c1.367 8.432-7.795 12.578-11.591 8.855-3.185-3.119-3.875-10.33 4.328-21.11 8.201-10.784 21.035-10.939 22.86 1.746l8.556-16.167-8.012 3.578-.467 1.654c-2.328-4.144-5.737-5.989-9.568-6.107zm4.613 27.552 2.912 1.83-6.167 27.556 13.741-6.832 13.031-17.226 2.34-1.172-10.969 18.274 9.504 9.5 29.097-31.927h-5.41l-12.867 11.609 11.113-11.609h-9.799l1.319 3.57-11.479 11.734 6.947-15.305h-10.82l-13.62 15.438 6.748-15.438h-4.389l-5.527 11.605 4.201-11.605-9.906-.004z" fill="#e2cb92"/><path d="m37.305 7.336c-9.987-.241-23.66 10.64-28.066 28.227 6.612-12.558 19.322-27.46 29.021-28.17-.314-.031-.633-.049-.955-.057zm-8.244 24.116 2.33 3.449c.683 4.214-1.266 7.361-3.861 8.984 5.558-1.903 5.647-11.108 5.647-11.108l5.595-1.325zm35.542 3.445-13.62 15.441-1.426 3.568 15.93-17.519 9.937-1.49h-10.82zm14.033 0 1.316 3.574-11.476 11.734-1.071 2.906 15.535-15.378-1.312-1.284 4.587-1.552zm-36.526.002 2.91 1.828-6.166 27.557 2.559-1.276 6.273-25.79-1.283-1.154 5.613-1.164h-9.906zm25.856 4.156-10.968 18.273 1.57 1.572 9.326-17.315z" fill="#faf6e7"/></g></g></svg>