<svg clip-rule="evenodd" fill-rule="evenodd" viewBox="0 0 560 400" xmlns="http://www.w3.org/2000/svg"><g fill-rule="nonzero" transform="matrix(1.07651 0 0 1.07651 144.485 63.8014)"><path d="m125.95 64.57c20.109 0 39.439 13.171 49.492 32.518h-44.627l-19.445 50.859v17.808l11.957-8.856c.057-.038 5.701-4.183 12.562-4.183h30.259v14.634c-10.169 13.437-24.689 21.117-40.198 21.117-29.499 0-53.486-27.786-53.486-61.938 0-34.171 23.988-61.957 53.486-61.957zm0-63.457c-33.908 0-65.174 12.085-88.04 34.036-23.871 22.921-37.023 55.364-37.023 91.378 0 36.168 13.153 68.684 37.044 91.548 22.789 21.818 54.055 33.848 88.02 33.848 25.849 0 44.57-6.861 58.255-11.86 6.576-2.413 12.258-4.485 15.623-4.485 8.8 0 24.483 8.023 34.118 12.831v-121.88c0-9.636 4.372-14.976 4.543-15.185.171-.19 12.391-14.217 12.391-14.217l-47.079-.057 26.076-33.83-2.852-5.209c-.32-.586-8.15-14.708-24.52-28.733-15.04-12.848-40.5-28.182-76.56-28.182z" fill="#c6bcb6"/><path d="m125.95 9.552c-64.848 0-117.42 46.259-117.42 116.98-.001 71.17 52.572 116.96 117.42 116.96 38.7 0 61.22-16.37 73.88-16.37 10.09 0 26.48 8.21 26.48 8.21v-108.8c0-13.53 6.65-21.02 6.65-21.02l-45.71.02-51.36.02v-.01l-16.88 44.11v.27s7.4-5.64 16.88-5.64h37.9v26.03c-11.19 16.22-28.47 26.59-47.84 26.59-33.755 0-61.124-31.51-61.124-70.37 0-38.888 27.369-70.397 61.124-70.397 27.41 0 52.74 20.771 61.3 49.397l33.24-43.126s-28.91-52.853-94.54-52.853z" fill="#011e41" stroke="#011e41" stroke-width=".59" transform="translate(0 -.001427)"/></g></svg>