<svg clip-rule="evenodd" fill-rule="evenodd" stroke-linejoin="round" stroke-miterlimit="1.41421" viewBox="0 0 560 400" xmlns="http://www.w3.org/2000/svg"><g transform="matrix(1.23806 0 0 1.23806 28.7638 152.524)"><path d="m2.002 2.001h72.295v36.347h-72.295z" fill="#00aadb"/><path d="m2.002 38.348h72.295v36.347h-72.295z" fill="#3fa74d"/><g fill="#1d1d1b" fill-rule="nonzero"><path d="m176.796 16.068c.012-.853.704-1.538 1.552-1.538h31.168c.857 0 1.552-.698 1.552-1.56v-9.409c0-.857-.688-1.554-1.54-1.56h-45.432c-.858 0-1.553.698-1.553 1.56v69.562c0 .862.695 1.561 1.553 1.561h45.431c.858 0 1.553-.699 1.553-1.561v-9.374c0-.862-.695-1.561-1.553-1.561h-31.167c-.858 0-1.553-.699-1.553-1.56v-16.482c0-.862.695-1.561 1.553-1.561h28.437c.857 0 1.552-.699 1.552-1.56v-9.409c0-.862-.695-1.561-1.552-1.561h-28.709c-.746-.127-1.292-.777-1.292-1.537z"/><path d="m309.036 16.068c.012-.836.676-1.513 1.507-1.538h31.167c.858 0 1.553-.698 1.553-1.56v-9.409c0-.862-.695-1.56-1.553-1.56h-45.431c-.858 0-1.553.698-1.553 1.56v69.562c0 .862.695 1.561 1.553 1.561h45.431c.858 0 1.553-.699 1.553-1.561v-9.374c0-.862-.695-1.561-1.553-1.561h-31.167c-.844-.025-1.514-.723-1.507-1.572v-16.47c0-.862.695-1.561 1.552-1.561h28.437c.858 0 1.553-.699 1.553-1.56v-9.409c0-.862-.695-1.561-1.553-1.561h-28.754c-.715-.15-1.229-.78-1.235-1.514z"/><path d="m151.69 62.177h-28.97c-.412 0-.807-.165-1.098-.457-.291-.293-.454-.69-.454-1.104v-57.055c0-.416-.166-.814-.459-1.107-.294-.293-.691-.456-1.105-.453h-11.103c-.412 0-.806.164-1.098.457-.291.292-.454.689-.454 1.103v69.562c0 .414.163.811.454 1.103.292.293.686.458 1.098.458h43.234c.857 0 1.552-.699 1.552-1.561v-9.374c.003-.424-.165-.831-.466-1.128-.302-.296-.71-.457-1.131-.444z"/><path d="m402.324 62.177h-28.97c-.857 0-1.552-.699-1.552-1.561v-57.055c0-.42-.168-.822-.467-1.116-.298-.293-.702-.454-1.119-.444h-11.148c-.858 0-1.553.698-1.553 1.56v69.562c0 .862.695 1.561 1.553 1.561h43.233c.858 0 1.553-.699 1.553-1.561v-9.374c.006-.858-.677-1.56-1.53-1.572z"/><path d="m285.334 2.001h-11.919c-.605.002-1.153.358-1.404.911l-.068.171-17.584 47.51v.091l-.351.968c-.167.442-.589.735-1.06.735-.47 0-.892-.293-1.059-.735l-.374-.991v-.091l-17.64-47.43-.091-.251c-.256-.54-.798-.886-1.393-.888h-11.919c-.512.002-.99.257-1.278.683s-.348.967-.161 1.447l25.616 69.197.204.547c.281.466.784.751 1.326.752h13.391c.691-.002 1.294-.469 1.473-1.139l25.707-69.278.057-.159c.056-.157.087-.323.091-.49 0-.416-.166-.814-.459-1.107s-.691-.456-1.105-.453z"/></g></g></svg>