<svg clip-rule="evenodd" fill-rule="evenodd" viewBox="0 0 560 400" xmlns="http://www.w3.org/2000/svg"><g fill-rule="nonzero" transform="matrix(1.24255 0 0 -1.24255 -420.444 690.246)"><path d="m647.311 419.246c.049.6.123 1.73.123 2.996 0 1.066-.064 2.203-.236 3.192l-.02 1.215c.866.577 1.281.938 1.348 1.363.004.033.007.069.007.105 0 2.199-10.295 6.847-14.805 8.384-1.829.715-3.8 1.369-5.849 1.966.676.489 15.761 11.566 12.499 21.339-3.744 11.203-29.073 16.263-75.287 15.044-27.284-.72-55.842-10.624-74.998-18.803-20.75-8.861-35.237-17.665-35.383-17.752l.038-.18c.252-.033 25.319-3.433 51.463-20.35 15.351-9.934 28.065-22.518 37.787-37.401 12.151-18.607 19.636-40.876 22.249-66.198l.003-.031.025-.025c.039-.039.09-.052.146-.034 1.679.492 22.001 35.612 25.25 48.824.154.018.305.033.451.048l4.287-11.418.366.129c-1.235 4.069-2.321 7.871-3.269 11.44 1.396.154 2.383.262 2.631.287.039-.953.19-4.561.19-4.561l14.708-15.064.369.154c.041.018 4.299 1.809 6.47 1.593.792-.076 1.23-.481 1.783-.989.728-.668 1.635-1.504 3.498-1.424 5.306.23 9.063 1.376 11.158 3.402 5.668 5.471 11.605 19.329 11.856 19.915l-.392.794-.699.18 1.614 2.875-.256.809s-3.113 1.497-4.038 1.94c.543.797 2.034 2.975 2.034 2.975l-.643.892s-6.137-1.753-6.385-1.825c-.213.036-3.844.679-5.212.92.797.974 2.426 2.97 2.426 2.97l-.679.909s-5.529-2.342-7.046-2.982c-1.069 3.536-3.308 5.763-5.468 6.975 3.615 4.394 10.198 7.81 11.633 8.522.817-.451 1.422-.892 1.747-1.148-.202-.679-2.342-7.81-2.342-7.81l.912-.63s6.071 4.655 6.696 5.135c.459-.331 1.65-1.192 2.178-1.574-.42-.773-3.029-5.603-3.029-5.603l.702-.831s5.625 1.938 6.529 2.248c.049-.123.19-.48.19-.48l4.364-2.167 3.431 2.116.873-.184.216.164c.433.33 10.488 8.125 12.803 15.51 2.906 1.258 4.39 2.872 4.39 4.796v.059c-.111 7.172-22.014 15.958-25.406 17.278"/><path d="m598.161 437.011c-.011.087-.029.174-.041.262-.018.1-.039.199-.064.302-.021.09-.047.179-.075.269-.031.103-.064.205-.1.308-.033.092-.069.184-.107.276-.044.105-.093.21-.141.318-.028.056-.049.113-.077.172-.005 0-.01.003-.013.005-.038.071-.069.143-.108.217-2.229 1.092-4.312 2.004-6.254 2.773-.085.036-.167.066-.249.102-.054.021-.107.041-.161.064-3.493 1.399-7.767 2.76-12.051 3.252-4.571.579-7.392.003-8.671-.518-.369-.107-.735-.223-1.094-.356.049-.077.098-.151.144-.228 1.432.082 6.121.707 12.14-.482.287-.033.579-.069.874-.11 3.987-.881 8.546-2.598 13.158-5.834.139-.121.28-.239.418-.364-2.624-.261-4.405-.492-5.547-.71-.779-.087-1.384-.274-1.802-.548-.851-.992 7.885-2.147 6.693-5.455.028-.029.151-.123.351-.223.013.02.028.041.044.059.077.105.153.207.23.312.08.103.157.208.231.313.072.095.141.192.208.287.074.105.148.207.22.312.064.093.128.182.189.275.07.105.139.205.203.307.056.09.115.179.172.269.061.103.123.2.182.3.051.087.102.174.151.261.059.103.11.203.161.3.046.087.09.169.131.254.051.102.095.205.141.307.036.08.074.159.107.238.044.116.085.231.126.346.02.067.049.131.069.195.054.177.103.354.139.531.015.066.023.133.033.197.02.115.041.23.054.346.007.077.01.156.012.236.008.102.013.204.013.31 0 .082-.008.166-.015.251-.005.1-.01.2-.023.302m54.465-21.255c-5.176 2.516-9.422 4.328-9.422 4.328l.033 1.068 2.078-.804-.033.079c-.3.71-.769 1.835-.945 2.263-.669-.105-1.03-.159-1.03-.159l.082 2.409s2.493 2.039 3.505 2.939c.164.117.318.235.413.328-.005.012-.018.025-.026.035.031.036.043.057.028.057-.061.048-.128.095-.192.143-.451.472-1.494 1.192-2.911 2.017-1.612 1.017-3.313 1.95-5.079 2.811l-1.47-4.382-11.575 6.995-17.739 5.809c-.028.005-.054.008-.082.011-.031-.144-.064-.282-.095-.426-.112-.502-.233-.997-.361-1.476-.003-.008-.005-.015-.005-.02-.264-.984-.556-1.917-.874-2.803-.01-.026-.018-.057-.028-.082-.153-.426-.312-.838-.476-1.241-.016-.035-.031-.071-.047-.107-.163-.402-.335-.797-.512-1.179-.005-.023-.018-.041-.026-.061-.366-.79-.748-1.54-1.15-2.26-.008-.018-.021-.036-.028-.054-.195-.344-.392-.679-.59-1.007-.023-.041-.048-.08-.071-.118-.167-.277-.341-.543-.515-.81 3.564.351 8.922 1.192 15.617 2.716.005.003.01.005-.167.19l-.182 1.443.654-.385 10.336-5.424-1.476 1.939.477.295 1.637-1.258 7.969-6.316-.374-.936-7.459-2.49s11.277 1.166 27.013-13.637c.013-.012.025-.025.041-.041.01.111 6.221-.071 12.857-1.88.162-.123.321-.249.482-.377-2.437 4.036-11.338 8.745-18.282 11.859m-48.623 50.084c.279-.008.553-.015.82-.025h.079c.259-.011.51-.021.759-.031.03 0 .061-.003.092-.003.254-.013.502-.023.748-.036.044-.003.085-.005.128-.008.495-.025.969-.054 1.425-.084.033-.003.069-.005.102-.008.221-.016.438-.031.651-.049.028 0 .059-.003.09-.005.207-.018.415-.036.615-.051.005-.003.01-.003.013-.003h.003c3.302-.29 5.291-.7 6.313-.963.154-.039.231-.057.28-.054 15.299-3.452 17.747-10.316 17.769-10.385l.175-.656c.041.376.074.753.084 1.132.013.111.023.246.031.392-.028 1.658-.482 4.382-2.768 6.837-.146.159-.297.315-.461.474-4.228 4.043-14.628 8.527-40.182 6.918-29.119-1.834-71.359-11.041-125.552-27.363l.054-.19c1.276.341 2.536.672 3.792 1 .259.069.517.136.776.205 1.212.315 2.416.63 3.611.938.215.056.43.11.643.166 1.125.29 2.244.577 3.354.861.141.036.287.074.43.11 1.187.303 2.36.6 3.529.894.246.062.489.123.732.185 1.169.295 2.327.584 3.473.869.123.03.246.061.369.092 1.073.266 2.139.53 3.197.786.203.052.408.103.61.152 1.11.271 2.212.54 3.303.804.218.052.436.103.653.157 1.113.269 2.219.535 3.314.794.01.003.02.005.03.008 1.102.261 2.189.517 3.272.771.216.051.434.102.649.154 1.048.246 2.088.487 3.116.725.176.038.353.079.527.12.972.226 1.935.444 2.888.661.123.029.251.059.374.088 1.02.228 2.027.456 3.026.679.211.046.418.094.628.14.994.221 1.984.441 2.96.656.107.024.215.047.32.07.917.2 1.824.399 2.726.594.175.036.349.074.523.113.948.202 1.886.405 2.816.602.185.038.367.077.551.115.933.198 1.86.392 2.775.582.028.008.054.013.077.018.938.195 1.863.384 2.78.571.177.036.356.072.533.108.892.182 1.776.361 2.652.536.149.03.295.058.441.089.817.162 1.627.323 2.431.479.111.021.221.044.331.064.861.169 1.709.333 2.55.495.176.033.351.066.527.1.843.161 1.681.32 2.506.474.077.015.154.028.234.043.778.147 1.55.29 2.313.428.149.029.298.054.449.082.792.146 1.578.287 2.355.426.156.028.31.056.466.084.776.136 1.545.272 2.303.405.029.005.057.01.085.016.776.135 1.543.263 2.304.394.158.028.315.054.474.082.74.123 1.473.246 2.198.367.12.018.238.038.359.058.679.111 1.35.221 2.016.326.098.018.195.033.29.049.712.112 1.414.225 2.111.333.149.023.292.043.438.066.7.11 1.394.216 2.079.318.056.008.11.018.166.026.651.097 1.289.192 1.927.284.123.018.249.036.372.054.656.097 1.301.19 1.944.279.123.018.249.036.372.054.633.087 1.263.174 1.883.259.028.003.057.008.085.01.638.087 1.266.169 1.888.251.126.018.251.033.379.049.608.079 1.21.156 1.799.23.098.013.192.024.287.036.551.07 1.094.136 1.632.2.085.01.17.021.252.031.579.069 1.148.136 1.716.2.116.013.231.028.346.041.567.064 1.128.128 1.681.187.046.005.09.01.139.015.52.057 1.035.11 1.545.164.105.01.207.021.31.031.525.054 1.045.108 1.558.156.102.01.197.021.297.028.507.052 1.007.098 1.499.141.025.005.054.008.079.008.508.049 1.007.092 1.504.136.103.008.205.015.305.026.482.041.961.079 1.433.117.069.005.138.011.207.016.446.036.882.069 1.312.102.064.003.131.008.192.013.459.034.91.064 1.358.095.09.008.18.013.267.018.451.031.894.059 1.33.085.023.003.046.004.069.004.423.026.838.049 1.248.072.077.005.153.008.228.013.415.023.822.044 1.224.064.075.003.144.005.218.01.39.018.774.034 1.153.052.026 0 .052 0 .077.003.395.015.782.03 1.161.043.077.003.154.005.228.008.374.013.746.023 1.107.033.049.003.097.003.146.003.341.01.677.018 1.007.026.049 0 .1.003.146.003.351.005.694.013 1.033.015.066.003.133.003.2.005.34.003.676.005 1.004.008h.044c.32.003.635.003.948 0h.161c.313 0 .618-.003.917-.005h.154c.292-.005.582-.01.866-.013.016 0 .031-.003.046-.003.292-.005.579-.01.861-.018.052 0 .103-.003.154-.005m7.257-120.632v-.003c.02-.023.043-.046.056-.059.179.072.423.17.71.272 1.381.402 4.333 1.225 6.357 1.181.489-.038 1.658-.999 2.547-1.642.169-.136.346-.259.538-.364.208-.128.374-.2.474-.192.01-.005.023-.008.033-.01.005-.021.103-.057.346-.077.233-.039.487-.059.782-.046 1.642.071 3.123.233 4.438.479 1.65.003 3.213.61 4.679 1.624.487.295.917.618 1.281.971.141.139.287.282.425.431 3.79 3.587 6.834 9.668 8.981 14.38.892 1.829 1.563 3.313 1.912 4.099-.797.205-8.625 2.219-14.137 3.642.118-2.601.049-18.749-19.422-24.687m51.016 54.246-1.665-.784-.036-.021-.103-.046v.005l-1.102 2.683-.146.371c-.361-.951-2.475-5.253-11.886-8.158 1.048-1.592.369-3.234 2.022-5.538 3.213-2.601 12.571 1.589 15.082 11.318.008.005-.047.016-.131.026-.743.061-2.035.143-2.035.143" fill="#b5a36a"/><g transform="matrix(.75 0 0 -.75 452.517 476.528)"><path d="m209.121 14.654c44.743 4.569 16.729 33.243 16.729 33.243v.002l6.924 1.383s.012-.01.025-.027c.007-.006.017-.021.027-.034.014-.014.023-.024.04-.044.011-.014.021-.029.031-.039.037-.044.079-.092.13-.153.038-.045.075-.091.123-.146.017-.024.039-.048.056-.069.041-.051.08-.099.128-.157.021-.028.045-.057.069-.085.017-.024.039-.048.056-.069.034-.041.067-.085.102-.126.034-.041.069-.086.099-.131.007-.006.011-.013.018-.017.006-.01.01-.016.017-.027.048-.058.094-.119.146-.184.027-.034.055-.071.082-.105.062-.082.125-.165.194-.254.034-.044.069-.089.1-.134.037-.044.071-.092.109-.14.034-.048.069-.091.103-.142.045-.054.084-.114.125-.169.068-.095.141-.186.213-.285.041-.059.086-.117.127-.179.082-.113.163-.225.245-.341.038-.051.075-.102.109-.154.055-.078.109-.157.167-.236.034-.051.07-.102.104-.153.041-.058.081-.117.119-.178.089-.123.177-.253.263-.386.044-.061.085-.127.13-.192.096-.147.198-.301.297-.454.038-.058.075-.113.11-.175.099-.15.194-.301.289-.454.041-.062.076-.119.117-.181.106-.177.215-.354.324-.539.031-.047.062-.096.092-.147.123-.209.25-.42.372-.635.014-.024.029-.045.043-.069.184-.325.368-.659.552-.998.031-.058.062-.113.092-.174.017-.027.033-.055.046-.083.185-.345.365-.696.543-1.054.004-.004.006-.011.01-.014.047-.102.099-.206.147-.309.028-.054.055-.112.083-.167.048-.102.098-.204.145-.306.018-.035.031-.066.045-.1.082-.181.164-.362.249-.547.027-.061.052-.122.082-.184.028-.061.056-.131.083-.196.051-.119.102-.237.153-.36.004-.004.004-.005.004-.008.038-.092.076-.18.113-.268.028-.069.056-.138.083-.209.051-.12.097-.246.142-.373.037-.088.073-.177.107-.266s.063-.178.094-.267c.038-.102.075-.206.109-.305.035-.102.072-.2.11-.303.027-.092.063-.186.094-.278.065-.198.13-.398.188-.596.031-.099.057-.195.088-.294.004-.017.006-.035.013-.052.055-.184.106-.369.158-.554.024-.099.051-.198.074-.293.052-.205.104-.411.148-.616.021-.096.041-.188.062-.28.02-.092.037-.184.057-.276.024-.116.049-.235.069-.351.017-.096.03-.188.05-.284.02-.116.035-.233.056-.349.01-.092.026-.184.04-.276.014-.103.028-.203.042-.305 0-.004 0-.007.004-.014.006-.078.016-.153.023-.228l-.236-.879c-.027-.092-3.29-9.24-23.689-13.846-.065.006-.167-.018-.372-.073-.079-.017-.159-.037-.244-.058-.021-.006-.041-.01-.061-.017-.086-.02-.173-.041-.269-.065h-.008c-.092-.024-.186-.045-.285-.065-.024-.007-.053-.011-.077-.017-.106-.024-.212-.047-.328-.071h-.01c-.109-.024-.225-.047-.341-.071-.031-.007-.063-.011-.09-.018-.127-.024-.256-.052-.39-.076-.004 0-.005 0-.009-.004-.13-.021-.263-.047-.403-.071-.034-.007-.069-.011-.104-.017-.146-.028-.293-.051-.45-.075-.004-.004-.007-.004-.014-.004-.15-.027-.311-.051-.472-.075-.034-.006-.067-.014-.101-.017-.168-.024-.339-.051-.52-.079-.01 0-.017 0-.027-.004-.171-.024-.346-.049-.523-.072-.041-.007-.082-.011-.119-.018-.195-.024-.386-.051-.587-.075-.011 0-.019-.003-.029-.003-.195-.024-.392-.047-.597-.071-.041-.004-.079-.011-.12-.014-.222-.027-.441-.051-.67-.075h-.017c-.219-.024-.444-.048-.673-.069-.048-.006-.094-.01-.142-.013-.236-.024-.482-.049-.735-.069zm-21.176 7.369c-25.084-.305-67.992 8.216-141.088 36.258 184.179-63.355 161.337-13.154 161.337-13.154l13.851 2.422s7.707-25.019-34.099-25.526zm-26.939 20.727c-2.805.024-4.845.26-5.8.315 11.025 18.152 25.646 21.343 25.798 21.375l.205 1.452s-13.672 7.146-14.686 7.676c.287 1.11 4.133 16.183 4.133 16.183s-14.8 10.936-15.809 11.682c.602 1.137 14.685 27.663 14.685 27.663s-2.167 21.053-2.352 22.819c1.155-.13 11.276-1.236 18.204-1.991-.386-1.138-.756-2.267-1.114-3.384l.002-.002c-.328-1.025-.647-2.039-.961-3.043-.004-.007-.004-.014-.004-.018-.123-.396-.242-.788-.365-1.181-.004-.004-.003-.012-.003-.012-.004-.004-.006-.006-.008-.013-.287-.95-.559-1.893-.833-2.829v-.004c-.006-.014-.015-.031-.015-.048-.006-.017-.01-.031-.013-.044-.147-.506-.299-1.011-.44-1.513v-.004c0-.004-.005-.006-.005-.01-.233-.82-.443-1.63-.662-2.44-.007-.024-.011-.044-.017-.065-.004-.004-.004-.003-.004-.006-.13-.495-.271-.99-.397-1.482-.004-.004-.004-.008-.004-.008s-.004-.006-.004-.01v-.007c-.447-1.715-.854-3.396-1.237-5.06-.024-.099-.043-.194-.063-.293-.007-.021-.009-.037-.016-.058-.348-1.527-.669-3.038-.966-4.524 0-.007-.004-.02-.004-.023-.007-.031-.011-.06-.017-.087-.093-.468-.195-.943-.28-1.404v-.009c-.192-1.001-.362-1.985-.526-2.966 0-.013 0-.02-.004-.034-.013-.089-.034-.178-.048-.267v-.007c-.174-1.066-.334-2.114-.477-3.156-.041-.246-.079-.5-.114-.746v-.009c-.034-.256-.065-.509-.099-.766v-.017c-.041-.304-.072-.609-.11-.913-.287-2.405-.498-4.744-.625-7.016v-.015l-.006-.077c-.01-.215-.024-.431-.034-.65 0 0 0-.003-.004-.006-.034-.724-.058-1.44-.075-2.154-.004-.13-.007-.258-.011-.391v-.017-.012c-.017-.912-.024-1.813-.014-2.704 0-.137.001-.282.008-.418 0-.274.003-.542.006-.816v-.015c.004-.157.007-.321.011-.481v-.004c.024-.632.057-1.25.094-1.872.014-.297.025-.608.042-.906v-.003-.006c.069-.97.15-1.924.256-2.86 1.742-15.682 8.162-24.029 12.846-30.125.4-.522.786-1.026 1.159-1.515.006-.013.013-.024.023-.034-.267-.134-.431-.26-.468-.294 1.589-4.41-10.057-5.953-8.923-7.279-.389.26-.662.572-.796.952-.779 2.224 2.571 6.242 4.607 7.355l-.577 1.435c-25.976-7.021-24.86-18.371-24.802-18.852l.067-.547.537-.117c.096-.02 4.995-1.045 11.497-.31-4.013-.793-7.583-.981-10.388-.957zm-15.791 2.041c-12.272.175-36.817 4.413-68.235 29.762 60.239-39.467 86.555-17.655 86.555-17.655l-9.698-11.426s-3.043-.76-8.621-.681zm62.322 1.655 23.653 7.749 15.433 9.326 1.96-5.841c-13.4-6.519-29.528-9.751-41.046-11.233zm-46.348 10.396c-8.927.038-44.826 3.256-47.856 52.333 8.653-49.853 61.974-43.969 61.974-44.314-7.619-3.116-12.118-7.963-12.118-7.963s-.725-.061-2-.056zm60.692 1.496c-8.927 2.029-16.068 3.15-20.82 3.621-.048.075-.096.155-.14.227-.007.006-.011.012-.017.023-.294.447-.592.885-.892 1.315-.004.004-.006.011-.01.018-.304.43-.609.858-.917 1.275-.006.004-.01.006-.013.014-.308.416-.622.828-.936 1.235v.004c-.017.017-.031.035-.044.055-.414.533-.834 1.055-1.251 1.571l-.006.008c-.85 1.052-1.716 2.08-2.574 3.101-.31.369-.62.738-.928 1.107-.072.085-.144.171-.213.253-.044.055-.088.106-.132.157-.079.096-.157.192-.236.284-.004.004-.003.006-.006.006-.004.007-.007.011-.011.017l-.188.228c-.103.12-.202.238-.298.357-.051.065-.102.125-.153.19-.116.137-.229.278-.341.418-.038.041-.07.082-.104.123-.034.044-.071.088-.105.132-.052.062-.095.121-.146.183-.045.058-.094.116-.138.17-.069.082-.126.16-.194.242-.096.123-.193.243-.292.366-.041.055-.085.109-.126.163-.028.034-.051.069-.075.1-.068.085-.133.168-.198.253-.105.137-.212.276-.318.413-.014.02-.03.038-.044.059-.024.031-.045.058-.069.088-.085.116-.17.233-.259.346-.004.006-.006.01-.01.013-.03.041-.062.082-.09.123-.082.109-.163.215-.241.324-.076.102-.151.206-.223.309-.006.006-.013.012-.013.019-.082.109-.162.219-.244.332-.072.102-.143.206-.215.305-.078.112-.157.224-.236.333-.047.072-.092.141-.14.209-.004.007-.006.015-.013.021-.021.031-.045.062-.065.096l-.006.006c-.075.116-.153.225-.228.342-.045.061-.086.13-.131.195-.031.045-.061.092-.088.14-.075.11-.151.218-.222.334-.021.031-.041.065-.062.096-.013.02-.028.041-.038.065-.021.027-.041.058-.062.088-.017.031-.036.061-.053.089-.079.122-.159.247-.234.374-.072.109-.135.22-.204.329-.071.123-.147.248-.222.371-.068.112-.133.229-.201.345-.072.123-.149.246-.217.372-.048.085-.094.17-.142.255-.031.055-.062.114-.092.169-.007.013-.018.026-.025.04-.051.092-.098.178-.146.271-.017.03-.035.061-.056.095-.075.141-.151.287-.226.43-.041.075-.081.147-.119.223-.004.01-.005.02-.009.026-.011.014-.014.025-.018.039-.061.113-.12.231-.178.347-.058.119-.118.237-.176.357-.072.147-.145.296-.217.443-.055.116-.109.233-.163.349-.062.133-.12.266-.179.403-.061.133-.122.267-.18.4-.024.055-.045.105-.069.16-.034.082-.072.171-.109.257-.055.136-.116.27-.167.406-.041.086-.075.178-.106.267-.037.092-.075.184-.113.276-.041.103-.081.201-.119.307-.027.068-.051.137-.078.205-.035.092-.069.188-.1.28-.051.127-.1.256-.148.39-.006.02-.009.042-.019.059-.004.007-.008.016-.008.023-.041.126-.089.253-.13.38-.048.14-.098.276-.146.42-.013.048-.03.1-.044.148-.017.054-.035.104-.052.159-.017.058-.04.12-.057.178-.048.15-.096.301-.144.451v.013c-.058.181-.11.366-.165.551-.034.123-.072.245-.109.368-.048.178-.095.36-.142.541-.007.014-.008.027-.012.04-.037.13-.071.26-.105.39-.055.215-.11.437-.161.659-.028.117-.058.229-.085.346 0 .017-.007.034-.011.051-.045.195-.088.393-.133.591-.027.13-.058.262-.082.395-.004.004-.004.011-.004.014-.034.153-.065.311-.096.468l-.021.099c-.027.154-.058.308-.092.468-.024.144-.051.291-.075.438l-.023.121c-.004.027-.007.05-.011.074-.028.154-.055.303-.083.457-.01.068-.02.141-.027.209-.013.061-.024.123-.03.188-.017.096-.031.195-.048.297-.021.137-.041.274-.062.414-.004.031-.01.061-.013.089-.024.188-.051.378-.075.565-.021.168-.045.339-.069.507v.017c-.017.126-.027.256-.044.389-.011.096-.02.193-.031.292-.017.164-.038.324-.055.491-.004.01-.004.024-.004.035 0 .013-.004.03-.004.044-.021.191-.037.386-.054.581-.017.188-.035.368-.052.556-.017.215-.031.434-.048.652-.013.202-.03.397-.04.602-.013.219-.028.444-.038.666-.011.205-.024.411-.035.616-.004.099-.005.198-.009.297v.017c-.004.123-.007.253-.018.376v.006c-.003.212-.013.42-.017.635-.004.119-.006.239-.006.362-.003.137-.007.282-.011.418 0 .192-.006.379-.006.57v.351c0 .14-.004.284-.004.428 0 .208 0 .417.004.629 0 .266.006.539.006.805.006.219.01.432.013.651 0 .02.004.043.004.067 0 .068.006.138.006.213.006.119.006.245.013.364v.127c.011.239.017.476.027.715.007.263.025.532.035.802.013.236.023.471.036.713.004.052.005.107.008.161.006.079.01.164.013.25.011.143.02.284.027.424.014.249.031.495.048.748.017.28.041.56.065.844.017.239.034.481.054.727.024.28.051.564.075.851.004.024.005.051.007.075.024.246.046.493.07.742.003.038.01.078.013.115.014.137.027.278.04.411.004.061.014.122.017.184.011.075.013.147.024.222.027.267.055.529.082.793.021.17.04.344.058.512.02.164.038.324.059.485l.004.029c.027.242.057.477.084.723.024.177.045.36.069.541.021.14.037.28.054.424.038.283.076.567.113.857.011.089.025.184.038.276.007.041.012.082.022.123.027.225.057.458.092.687.037.252.075.505.109.761.051.328.102.663.153 1.001.045.297.092.595.137.892.013.079.024.153.038.228.044.28.092.564.136.848.051.294.097.585.148.882.058.345.122.694.184 1.046.051.317.109.632.167.957 0 .006.003.016.006.027.027.17.061.344.095.521.035.198.072.401.11.602.004.014.007.031.007.048.052.27.103.547.158.823.024.13.051.264.075.393.013.055.02.11.03.158.041.198.074.392.115.587.062.321.123.638.188.966.028.13.055.263.083.39.034.171.069.339.103.51.024.113.044.225.071.341.058.298.123.595.184.892.069.328.142.666.213.994.011.051.021.099.031.144.007.027.011.059.017.086.075.342.146.681.225 1.03.061.273.119.551.184.825.037.167.072.327.109.491.069.31.137.619.209.93.028.126.058.259.088.385.021.093.041.178.062.267.054.239.111.474.169.71.075.341.155.684.237 1.03.004.013.007.03.014.047.027.11.051.218.079.33.013.055.024.107.038.162.058.235.112.472.171.707.095.386.184.765.28 1.151.065.26.13.527.195.79.048.178.092.354.133.535.092.359.178.714.27 1.076.126.489.255.986.382 1.481.061.236.128.478.186.717 2.531-.276 4.324-.472 4.54-.496.013 0 .021-.004.021-.004l.863.742s.239 5.773.266 6.32c.393.4 17.035 17.449 18.381 18.829v-.003c25.962-7.92 26.054-29.451 25.897-32.916-.014-.006-.034-.01-.048-.013-4.718-.178-9.497.327-13.785.788-7.092.762-12.224 1.306-13.617-1.615v-.004l-.008-.007c-.772-1.121-1.203-2.764-1.203-4.794 0-3.929 1.647-9.275 5.392-14.895.055-.085.107-.174.165-.259l.079-.14.013-.004c.868-1.325 1.868-2.617 2.961-3.844 1.121-1.322 2.324-2.642 3.708-3.951 1.059-.997 2.158-1.892 3.299-2.685 4.698-3.584 19.229-12.853 32.906-2.812 1.037.905 1.787 1.838 2.351 2.753 12.542-3.875 15.363-9.608 15.845-10.875l-2.326-5.95.061-.096c-20.977-19.741-36.013-18.185-36.013-18.185l9.853-3.291-5.701-2.849c-.642.311-9.292 4.527-9.292 4.527l-1.111-.578s-1.621-10.143-1.73-10.822c-.458-.27-5.182-3.039-7.239-4.241zm37.653 52.36c-.002 0-.003.001-.004.002h.005c0-.001-.001-.001-.001-.002zm-94.617-36.146s-58.511 18.006-7.271 114.593c-39.812-86.899 10.386-102.474 10.386-102.474l-3.115-12.123zm111.48 21.436c.027.27.141 1.315.27 2.563.018.112.023.228.037.35.01.123.028.25.038.376.011.082.02.168.027.254.027.239.051.48.079.723.004.037.005.072.011.113.024.225.047.444.067.66.062.57.121 1.1.165 1.548.017.146.031.297.044.423.045.427.078.729.089.817l2.221-1.047s1.695.106 2.693.188c-.581-.7-5.27-6.394-5.741-6.968zm15.235 4.548c-1.79 1.622-4.969 3.466-5.276 3.644-.028.037-5.681 8.804-9.128 14.147 3.693-3.803 7.594-8.656 8.917-13.231l.101-.362.349-.144c2.822-1.169 4.511-2.528 5.037-4.055z" fill="#b5a36a" stroke="#b5a36a" stroke-width=".92"/><path d="m238.386 107.836c-2.032-.017-4.04.254-5.996.792.068-.004.129-.001.194-.005.252-.011.505-.011.761-.004.161 0 .323.005.483.011.168.011.335.024.499.035.229.024.453.04.675.067.045.007.09.015.134.021 5.221.711 8.886 3.946 9.102 4.141l.362.328s-1.863 6.197-2.724 9.066c2.426-1.861 7.933-6.083 7.933-6.083l4.951 3.581s-2.575 4.765-3.737 6.914c2.413-.83 8.215-2.829 8.215-2.829s.465 1.165.581 1.465c.445.219 3.889 1.931 4.517 2.242.376-.232 1.381-.854 2.453-1.513l-5.596-1.199-.167-.328c-.089-.167-.478-1.303-1.243-2.932-3.639-7.066-10.223-12.073-17.723-13.427-1.23-.22-2.456-.333-3.675-.343zm-23.147 14.907c-.102.188-.383.698-.738 1.33 1.886.293 7.051 1.394 8.917 4.814l-1.37.742c-1.746-3.205-7.595-4.002-8.316-4.091-.475 1.1-.821 2.191-1.005 3.239 1.838 2.047 7.162 6.358 17.63 3.416-3.512-9.282-13.044-9.515-15.118-9.45zm-4.166 8.777c-.553 1.937-.813 3.69-.813 5.156 0 1.701.339 3.027.913 3.83l.052.065.031.071c.884 1.965 6.067 1.408 12.066.762 5.131-.547 10.954-1.171 16.625-.627l.119.019.083.029c.543.181 9.186 2.176 15.209 3.559.345-.611 1.083-1.92 1.541-2.737-1.159-.556-5.453-2.62-5.453-2.62l-.307-1.141s1.063-1.552 2.006-2.932c-2.405.69-6.782 1.941-6.782 1.941l-8.61-1.523-.468-1.258s1.041-1.277 2.087-2.552c-2.935 1.241-7.266 3.071-7.266 3.071l-.143.006c-2.296.089-5.067.147-7.828.096-.652.01-1.28-.006-1.881-.054-3.472-.14-6.745-.491-8.846-1.229l-.035.032c-.529-.177-2.122-.706-2.3-1.964z" fill="#fff"/><path d="m215.907 72.69c-5.698-.02-9.055.92-9.055.92s28.304-5.33 58.697 23.396l-.693.232.491 1.477 3.93-1.308-.492-1.477-1.75.581c-20.844-20.248-40.25-23.784-51.128-23.822zm5.426 10.403c-16.992.174-28.551 9.329-28.551 9.329s30.099-21.076 62.18 4.479l-1.019.337.497 1.477 4.584-1.526-.499-1.481-2.063.69c-12.782-10.279-24.934-13.409-35.128-13.305zm7.722 12.329c-22.037.137-34.386 19.384-34.386 19.384s18.55-26.321 49.487-15.398l-.683.23.491 1.479 3.93-1.312-.493-1.477-1.575.523c-6.084-2.475-11.686-3.461-16.771-3.429zm37.363 7.364-2.618 1.741.861 1.299 2.618-1.746zm-8.188.155-2.837 1.312.654 1.412 2.835-1.305z"/></g></g></svg>