<svg clip-rule="evenodd" fill-rule="evenodd" stroke-miterlimit="10" viewBox="0 0 560 400" xmlns="http://www.w3.org/2000/svg"><path d="m340.545 617.752v-.644-61.647-.644h56.871v13.771h-.644-33.632v49.165h-.644-21.308-.643zm78.626-.002c-10.501 0-19.043-6.442-19.043-14.361v-23.347-.644h44.621v-6.061c0-2.576-2.944-4.672-6.564-4.672h-37.414-.644v-.644-12.561-.644h48.103c10.543 0 19.119 6.442 19.119 14.361v24.071h-.643-43.978v5.981c0 2.534 2.969 4.674 6.486 4.674h38.135v13.848h-.644-47.535zm95.44 0v-.644-43.769c0-2.62-2.945-4.75-6.564-4.75h-15.612v49.01h-.644-21.085-.644v-.644-61.494-.644h48.03c10.503 0 19.047 6.442 19.047 14.361v48.574h-.644-21.241z" fill="#461d7c" fill-rule="nonzero" stroke="#fdd023" stroke-width="1.29" transform="matrix(1.83118 0 0 -1.83118 -523.6 1273.59)"/></svg>