<svg clip-rule="evenodd" fill-rule="evenodd" stroke-linejoin="round" stroke-miterlimit="1.41421" viewBox="0 0 560 400" xmlns="http://www.w3.org/2000/svg"><g transform="matrix(1.80612 0 0 -1.80612 100 288.858)"><path d="m132.286 54.483-1.001-2.658-.717 2.748c-2.794 10.665 1.464 21.411 9.875 27.064-1.506-.175-3.074-.55-4.449-1.108l-2.506-1.019 1.396 2.319c4.006 6.663 10.96 10.789 18.171 12.753.223.799.51 1.555.857 2.217l.586 1.114.868-.911c.503-.527 1.03-1.021 1.573-1.487 7.33.973 14.969-1.096 18.942-3.254l2.508 6.134.604.001c2.025.003 6.511-4.247 6.032-11.947.806-.481 1.978-1.094 2.981-1.793.631-.437 1.259-.946 1.709-1.523.45-.578.803-1.334.629-2.197-.076-.387-.346-1.426-.596-2.467-.257-1.086-.446-1.991-.446-2.267l.169-.48c.118-.314.313-.755.586-1.267.552-1.027 1.446-2.339 2.816-3.498.823-.696 2.308-1.841 3.607-2.886.669-.536 1.287-1.048 1.753-1.466.252-.226.459-.426.615-.591.096-.105.175-.202.233-.284.057-.081.162-.231.215-.426.038-.135.06-.466-.118-.905-.073-.176-.185-.409-.319-.681-.252-.499-.597-1.137-.946-1.778-.339-.627-.688-1.256-.949-1.755-.127-.237-.23-.435-.307-.596-.117-.569-.09-1.031-.064-1.424.016-.226.032-.428.036-.596.007-.278-.014-.499-.058-.651l-.11-.379-1.25-.626.235-.435-1.622-4.153-.354-.148c-1.991-.834-11.529-1.173-15.386.017l-.181.054c.554-2.125 1.359-5.291 1.949-8.801 1.081-6.435 1.516-14.381-1.59-19.397l-.967-1.561-.645 1.723c-4.504 12.04-14.476 16.045-23.707 19.565-2.321.883-4.57 1.731-6.637 2.659-2.084.936-4.026 1.976-5.692 3.242-3.152 2.398-5.266 5.592-5.569 10.328-1.318-1.38-2.311-3.318-2.759-4.523" fill="#aa9b8d"/><path d="m6.131 42.013 6.628 20.661c.415 1.222-.446 2.285-1.907 3.177-1.392.849-2.982 1.318-3.152 1.361l-3.189.859s4.313 1.985 6.283 2.553c1.95.561 4.621 1.116 7.4 1.015 5.746-.205 11.779-3.228 13.042-13.617l.669-3.175 13.933 16.753 18.434-.289-1.297-3.891 22.354.053c1.315 0 3.073-.047 4.739-.578 1.859-.597 3.66-1.806 4.764-4.012l.129-.268c3.859 3.341 9.026 5.104 13.594 5.104 1.611 0 3.483-.209 5.518-.76l32.06.278-7.112-21.372h35.068l-11.828-45.704h-110.26l6.288 17.966s-1.428 0-2.729.335c-1.611.416-3.064 1.261-3.064 1.261l-3.302-5.874-7.052-1.717c-1.211-.284-2.688-.643-4.377-.922-1.791-.299-3.852-.517-6.216-.517-12.934 0-23.129 7.545-19.731 20.682l-11.818.134 2.807 9.563 2.952.161c.2.27.281.523.372.78" fill="#aa9b8d"/><path d="m122.997 29.141 34.717-4.488-7.007-23.297h-96.954l6.315 18.281-1.31 8.564z" fill="#0b335e"/><path d="m13.46 32.693h-11.866l2.122 7.232 2.108.116c.661.037.9.131.929.142.021.026-.029.034.091.305.16.368.286.758.417 1.149l6.631 20.662c1.4 4.105-5.88 6.067-5.88 6.067s19.696 9.056 22.044-10.54l1.185-5.645 15.15 18.214 16.232-.255-1.307-3.919 24.016.06c1.304 0 2.897-.054 4.371-.524 1.618-.517 3.129-1.548 4.06-3.411.327-.644.531-1.295.636-1.932 3.7 3.98 9.301 6.109 14.156 6.109 1.547 0 3.372-.206 5.361-.757l30.574.267 7.782-17.531 20.434-4.358-11.433-42.749h-32.098l16.045 18.924c-1.225-.298-2.412-.569-3.61-.784-1.64-.296-3.302-.48-5.085-.48-4.794 0-8.276 1.715-10.248 4.35-.545-1.166-.619-1.328-.815-1.827l-.722-1.844-20.917-.546-14.508.111h-20.012l.849 2.904c-3.102-1.943-6.79-3.148-10.495-3.148-3.006 0-5.698.851-7.757 2.321l-3.323-6.375-6.72-1.709c-1.189-.278-2.628-.628-4.288-.904-1.731-.286-3.731-.502-6.02-.502-12.8 0-22.043 7.423-18.377 19.901z" fill="#0b335e"/><g fill="#fff"><path d="m60.553 62.279-.334.054.196.661h13.308l-.856-2.924h-.67l.007.3c.009.503-.198.747-.502.896-.338.164-.82.208-1.339.208h-5.81l-2.124-7.24h4.951c.684 0 1.486.021 1.842.84l.81.18-.998-3.412h-.763l.111.383c.031.101.054.183.057.263-.096.242-.339.419-1.216.419h-5.183l-1.491-5.077c-.553-1.886-.322-2.113 1.446-2.113h4.19c1.969 0 2.446.464 3.24 1.248l.774-.018-.161-.347c-.682-1.469-.758-1.637-.985-2.217l-.073-.19h-14.084l.2.687c1.682.274 1.948.858 2.359 2.247l3.881 13.226c.421 1.428.378 1.735-.783 1.926"/><path d="m78.42 62.281-.333.055.193.658h7.052c2.584 0 4.567-.271 5.498-2.13.474-.933.461-1.985.175-2.959-.398-1.363-1.363-2.602-2.625-3.509-.614-.443-1.19-.732-1.704-.936-.343-.138-.659-.238-.934-.315l.597-1.081c2.613-4.734 3.826-6.041 6.307-7.429l1.998-1.101s-3.549-.279-7.143 2.101c-1.034.68-1.868 1.853-2.556 2.991-.689 1.138-1.225 2.3-1.592 3.097l-.492 1.026c-.742-.058-.842-.058-1.762-.058h-1.223l-1.732-5.903c-.441-1.493-.35-1.677.857-1.878l.331-.056-.194-.661h-6.374l.206.703.205.018c1.339.107 1.691.554 2.134 2.067l3.978 13.542c.387 1.326.272 1.555-.867 1.758zm3.03-8.265c1.901 0 2.971.169 4.268.908.954.542 2.067 1.842 2.445 3.125.325 1.12.028 1.973-.301 2.47-.382.598-1.218 1.152-3.505 1.152h-1.846l-2.244-7.655z"/><path d="m106.561 44.226c-.949-.157-2.038-.273-3.292-.273-6.989 0-10.883 3.751-9.193 9.507 1.774 6.039 8.582 9.776 14.479 9.776 1.274 0 2.733-.151 4.413-.619l2.504-.812-.045-.256c-.141-.762-.16-1.021-.214-2.335l-.009-.241-.686-.121-.049.303c-.269 1.745-3.203 2.758-5.729 2.758-5.39 0-10.467-3.992-11.818-8.597-1.272-4.329 1.619-8.037 7.095-8.037 2.166 0 4.611.571 6.585 1.636.703.379 1.198.74 1.59 1.093.194.175.365.351.525.522l.458.525.167.194.574-.349-1.747-3.353-3.191-.812c-.673-.156-1.477-.353-2.417-.509"/><path d="m66.388 41.625c6.098 0 9.691-4.148 8.19-9.264-1.482-5.047-8.093-10.018-14.921-10.018-6.239 0-9.666 4.221-8.222 9.144.391 1.337 1.937 4.801 5.829 7.328 2.806 1.823 6.263 2.81 9.124 2.81zm5.421-10.018c1.226 4.181-1.325 8.259-7.233 8.259-5.134 0-9.124-3.383-10.326-7.482-1.239-4.214 1.237-8.278 7.083-8.278 7.002 0 9.837 5.33 10.476 7.501z"/><path d="m79.351 40.669-.341.051.2.664h6.315l-.205-.69-.192-.028c-1.141-.151-1.659-.498-2.097-1.996l-3.48-11.843c-.709-2.418-.555-2.721 2.367-2.721h3.684c.979 0 1.626.189 2.178.515.278.163.54.368.809.613.277.248.555.532.864.844l.816-.125-2.578-3.367h-14l.203.696.201.02c1.289.127 1.69.528 2.196 2.262l3.949 13.445c.384 1.304.072 1.518-.889 1.66"/><path d="m96.49 40.669-.34.051.194.664h6.318l-.204-.69-.196-.028c-1.14-.151-1.659-.498-2.099-1.996l-3.479-11.843c-.707-2.418-.558-2.721 2.373-2.721h3.681c.974 0 1.627.189 2.176.515.282.163.539.368.81.613.278.248.556.532.864.844l.821-.123-2.582-3.369h-14.001l.204.696.2.02c1.289.127 1.686.528 2.195 2.262l3.948 13.445c.384 1.307.073 1.518-.883 1.66"/><path d="m113.903 40.669-.336.055.196.66h13.31l-.861-2.926h-.667l.007.303c.008.5-.198.748-.501.893-.339.166-.818.212-1.338.212h-5.81l-2.125-7.245h4.955c.681 0 1.479.022 1.837.841l.817.18-1.005-3.414h-.764l.111.383c.032.099.054.183.059.266-.095.245-.338.421-1.212.421h-5.186l-1.49-5.077c-.558-1.888-.322-2.115 1.441-2.115h4.194c1.972 0 2.443.46 3.236 1.246l.784-.01-.166-.353c-.686-1.469-.761-1.642-.986-2.214l-.076-.189h-14.082l.2.683c1.679.27 1.952.858 2.357 2.245l3.885 13.227c.417 1.427.376 1.736-.784 1.928"/><path d="m45.284 44.063-.277.079.619 2.491.279-.058c.547-.109 1.144-.26 1.859-.487.858-.276 2.056-.848 3.025-1.345.976-.5 1.93-1.039 1.93-1.039l-.04-.209c-.241-1.289-.271-1.732-.358-3.944l-.009-.242-.787-.139-.048.302c-.315 2.014-3.035 3.674-6.193 4.591"/><path d="m24.936 37.933c-2.026-2.185-3.466-4.605-4.227-7.196-2.174-7.405 2.925-13.251 12.245-13.251 3.658 0 7.79.963 11.135 2.767 2.405 1.294 3.251 2.005 4.233 3.149l.823-.208-2.803-5.372-5.264-1.339c-1.13-.265-2.47-.591-4.043-.852-1.582-.261-3.401-.459-5.486-.459-11.652 0-18.006 6.219-15.223 15.694 1.258 4.283 4.052 7.875 7.596 10.579.296-1.138.607-2.227.934-3.267z"/><path d="m17.225 61.168c.312.928.542 1.728.645 2.406.423-.382.784-.796 1.033-1.238.524-.919.942-2.084 1.319-3.46l-5.948-17.889c-1.063-3.113-1.284-3.818 1.213-4.207l.337-.054-.219-.747h-9.621l.232.793.208.008c1.401.077 2.206.565 2.748 1.23.282.338.496.738.685 1.174.194.443.354.913.514 1.383z"/><path d="m45.096 59.755-13.794-16.639-.365 1.417-.405 1.656 17.401 20.921h7.919l-.229-.777c-2.444-.259-4.662-.703-5.672-4.762l-4.953-19.95c-.79-3.178-1.072-4.357 2.309-4.841l.342-.048-.224-.753h-11.355l.226.771c2.107.334 3.284.692 4.203 4.442z"/></g><path d="m15.977 67.447c1.033.022 2.409-.016 3.78-.265 4.193-.762 5.857-4.252 7.083-10.04.861-4.048 1.788-8.707 2.887-13.077 1.095-4.372 2.355-8.428 3.875-11.297 1.157-2.181 2.299-3.554 3.143-4.373.42-.411.771-.683 1.008-.854.227-.159 1.175-.648 1.175-.648l-.903-.141c-.075-.01-4.066-.606-8.149 4.269-1.626 1.942-2.767 4.531-3.712 7.531-.945 2.993-1.703 6.429-2.553 10.095-.759 3.276-1.29 6.257-1.838 8.789-.551 2.532-1.114 4.574-1.937 6.022-1.288 2.27-5.585 3.879-5.585 3.879s.691.085 1.726.11" fill="#aa9b8d"/><path d="m81.367 20.289h3.585l.047-.364c-1.084-.201-2.134-.399-2.769-2.303l-3.118-9.395c-.513-1.535-.639-2.009.821-2.221l-.032-.364-5.092-.099-.067.362c.93.228 1.496.387 2.074 2.152l2.78 8.382-9.486-10.004-1.65 10.058-3.662-8.548c-.389-.915-.436-1.364-.342-1.595.08-.19.284-.266.72-.346l-.041-.362-5.093-.099-.051.364c1.824.324 2.1.95 2.725 2.43l3.973 9.394c.787 1.869-.06 1.994-.951 2.096l.028.368 4.758.002 1.364-9.927zm3.953-14.274c-.758-.317-1.513-.477-2.259-.477-.765 0-1.37.217-1.76.677-.388.464-.446 1.033-.231 1.675.242.727.853 1.332 1.787 1.814.932.487 2.33.929 4.185 1.337l1.286.287.382 1.143c.186.553.263.906.26 1.087-.002.156-.076.289-.233.401-.249.194-.624.308-1.155.308-.554 0-.978-.098-1.288-.275-.31-.175-.534-.446-.661-.832l-.169-.506-2.806-.691.199.595c.237.712.945 1.356 2.049 1.942 1.105.581 2.337.872 3.687.872 1.095 0 1.917-.184 2.352-.629.431-.455.443-1.146.156-1.99l-1.27-3.788c-.327-.975-.417-1.564-.338-1.822.054-.179.249-.326.82-.326.183 0 .386.015.613.04l.368.039-.287-.859c-.849-.343-1.559-.499-2.226-.499-.596 0-1.073.174-1.353.554-.185.254-.264.584-.258.976-.622-.448-1.241-.802-1.85-1.053zm2.501 4.278c-1.616-.388-2.677-.731-3.215-1.028-.511-.28-.857-.686-1.038-1.226-.115-.342-.07-.61.102-.834.179-.221.425-.331.775-.331.638 0 1.341.248 2.11.79.469.336.813.808 1.022 1.427l.418 1.243zm5.577 2.49c-.184.683-.342 1.08-.46 1.236-.094.126-.242.2-.493.2h-.466l.304.903h4.973l-.302-.903h-.359c-.629 0-.8-.134-.837-.242-.039-.121-.015-.467.133-1.097l1.077-4.57 3.872 4.64c.462.538.694.876.747 1.032.03.101.002.126-.037.148-.081.045-.262.089-.598.089h-.486l.303.903h4.091l-.302-.903h-.332c-.222 0-.471-.082-.745-.285-.278-.208-.677-.61-1.2-1.221l-6.162-7.175h-.968zm18.436-6.186c-1.743-.713-3.255-1.059-4.62-1.059-1.649 0-2.891.46-3.675 1.415-.782.952-.908 2.146-.434 3.554.467 1.393 1.361 2.55 2.679 3.473 1.323.923 2.759 1.392 4.301 1.392 1.389 0 2.401-.385 2.948-1.2.547-.801.557-1.882.115-3.208l-.139-.407h-7.356l-.083-.227c-.334-.993-.224-1.797.274-2.438.502-.632 1.276-.954 2.374-.954 1.068 0 2.256.245 3.56.741l.483.184zm-4.173 4.865c1.446 0 2.325.06 2.698.167.328.092.572.316.707.723.227.672.198 1.186-.032 1.564-.22.366-.59.551-1.16.551-.724 0-1.452-.276-2.184-.87-.659-.533-1.214-1.244-1.656-2.135zm9.437-3.418c-.231-.684-.207-1.016-.111-1.125.098-.109.454-.22 1.274-.22h.465l-.304-.914h-6.242l.306.906h.358c.687 0 1.097.1 1.305.253.229.163.469.547.692 1.212l1.176 3.507c.27.808.348 1.25.308 1.397-.03.106-.213.278-.75.483l-.698.274.131.39 4.571 1.232-.508-1.513c.64.414 1.219.738 1.739.973.677.304 1.274.472 1.784.473.92 0 1.559-.406 1.891-1.158l.063-.135-2.309-1.602-.106.297c-.238.654-.588.887-.995.887-.413 0-1.182-.306-2.349-1.01l-.181-.106zm10.009 0c-.227-.678-.227-1.024-.142-1.147.06-.092.32-.206 1.005-.206h.479l-.306-.906h-5.876l.304.906h.38c.634 0 1.02.1 1.222.25.222.165.451.55.678 1.215l1.176 3.507c.276.832.356 1.264.32 1.38-.019.076-.205.256-.777.506l-.604.279.126.379 4.498 1.233zm.302 8.425c-.23.267-.267.586-.149.928.113.338.351.621.698.848.35.231.738.355 1.158.355.422 0 .769-.124.998-.399.228-.264.264-.579.154-.915-.117-.346-.356-.63-.705-.857-.35-.228-.739-.348-1.154-.348-.421 0-.771.123-1 .388zm10.631-10.294c-1.507-.436-2.809-.637-4.028-.637-1.677 0-2.945.428-3.746 1.322-.791.897-.928 2.049-.467 3.422.497 1.481 1.478 2.7 2.935 3.655 1.46.956 3.085 1.435 4.863 1.435 1.408 0 2.558-.354 3.423-1.077l.191-.158-2.242-1.547-.116.28c-.445 1.053-1.186 1.533-2.211 1.533-.853 0-1.65-.313-2.401-.983-.752-.667-1.325-1.575-1.709-2.729-.432-1.279-.402-2.234.028-2.902.421-.646 1.201-.987 2.42-.987 1.03 0 2.038.164 3.027.497l.464.155zm11.017 8.018c-.091.014-.244.026-.468.026h-.47l.306.903h4.312l-.303-.903h-.35c-.373 0-1.417-.443-3.222-1.452l-2.431-1.361 2.311-3.191c.812-1.111 1.395-1.524 1.742-1.524h.263l-.059-.906h-3.032l-3.478 4.717-.823-2.458c-.23-.678-.224-1.023-.136-1.143.066-.096.338-.21 1.045-.21h.273l-.112-.906h-5.912l.303.906h.361c.646 0 1.042.1 1.243.25.217.165.452.55.676 1.215l2.533 7.554c.251.751.32 1.176.275 1.332-.03.122-.191.29-.664.474l-.702.263.133.401 4.513 1.279-2.67-7.963 3.014 1.722c.931.528 1.393.843 1.529.975zm3.114-5.394h1.252l-.063-.39c-.203-1.379.383-1.966 1.728-1.966.602 0 1.178.153 1.729.472.552.327.886.703 1.028 1.129.087.253.054.454-.072.629-.132.178-.562.478-1.361.903l-.776.415c-1.515.818-2.191 1.78-1.821 2.88.258.774.809 1.389 1.638 1.837.828.444 1.814.663 2.944.664.967 0 1.958-.174 2.979-.52l.204-.069-.732-2.181h-1.231l.055.385c.038.238.048.447.035.616-.014.157-.063.293-.139.398-.069.105-.192.218-.391.321-.163.085-.471.145-.974.145-.484 0-.919-.118-1.31-.354-.382-.228-.627-.521-.748-.878-.154-.449.174-.979 1.312-1.598l.85-.465c.842-.456 1.428-.899 1.706-1.329.276-.45.299-.981.101-1.575-.28-.832-.907-1.498-1.862-1.996-.948-.492-2.064-.734-3.332-.734-1.319 0-2.397.201-3.204.631l-.141.075z" fill="#fff"/><path d="m195.115 57.425c-.245.007-1.974-.857-1.974-.857l.641-1.191-1.128-2.885c-2.075-.609-10.48-.91-14.003.11l-3.895 3.358.732-2.133c.044-.126 6.572-19.297 2.094-28.859-4.977 11.79-15.203 15.83-24.1 19.221-2.291.874-4.513 1.709-6.556 2.627-2.033.913-3.858 1.897-5.394 3.066-3.041 2.313-4.976 5.375-5.013 10.181-.003.209.029.468.068.776l.142 1.212-1.057-.612c-1.784-1.035-3.167-3.051-4.037-4.72-1.967 10.61 3.305 20.935 12.521 25.292l1.912.905-2.1.253c-2.003.244-4.526.005-6.822-.649 3.946 5.528 10.226 9.039 16.805 10.734l.356.092.085.359c.138.577.308 1.124.508 1.62.447-.43.905-.838 1.381-1.23l.207-.172.269.04c7.701 1.141 15.869-1.344 19.233-3.522l.619-.4 2.748 6.726c1.271-.633 4.748-3.868 4.121-10.736l-.033-.36.299-.202c.755-.508 2.197-1.221 3.401-2.056.582-.405 1.067-.813 1.378-1.213.31-.396.391-.707.341-.962-.079-.383-.341-1.396-.586-2.417-.236-.99-.491-2.117-.491-2.619 0-.558 1.131-3.879 4.11-6.4.831-.701 2.324-1.855 3.637-2.909.643-.517 1.242-1.01 1.687-1.413.21-.189.385-.355.515-.494-.031-.182-.121-.372-.231-.588-.244-.488-.58-1.11-.918-1.734-.345-.633-.696-1.268-.962-1.773-.137-.259-.252-.485-.337-.661l-.112-.249c-.021-.057-.066-.168-.077-.284-.068-.592-.047-1.163-.015-1.627.013-.213.026-.399.031-.553z" fill="#fff"/><path d="m158.728 72.429c-12.48-5.832 3.435-19.882-6.264-25.6l18.65-7.584-3.732 16.537-8.826 11.685z" fill="#aa9b8d"/><path d="m185.304 64.871c-.596 1.014-4.449 3.696-4.449 3.696-7.383 4.125 1.909-9.644 2.119-3.632zm-5.417 19.651c2.092 4.162-.134 9.578 0 9.697l2.396-.882.627-7.682 4.787-3.276c.312-1.945.085-4.591-1.01-6.298 2.309-3.964 5.879-8.675 10.08-10.831-1.567-4.377-3.433-9.238-6.297-12.973-13.068 2.224-20.535 8.793-31.742 11.587l-.252 5.039.757-2.141c8.062-3.402 18.264 4.029 9.949 9.195l5.289-.882-.252.406.631-.406 6.298-3.024-5.543 5.291 1.135.377-2.143 8.691 8.566-6.298 1.258 1.261z" fill="#aa9b8d"/><path d="m185.372 64.798c0-.17-.269-.571-1.748-.87.195-.794.488-1.545 1.307-2.205-4.65 1.359-5.987 4.608-5.106 5.595.09.162 3.396-.78 5.547-2.52zm2.85 1.621-9.444 11.491-1.104 4.628 4.094-3.997zm-17.776 12.074s1.94-2.053-.758-2.025c.788-.237 2.023-.626 3.541-.079-.815.559-1.706 1.323-2.783 2.104zm3.858-.002c0-.154-1.066-.511-1.313-.516l5.471-4.857c-3.396 1.856-5.594 1.778-8.618 2.326-2.084.325-2.913 2.241-2.674 4.705l-.479 2.466c3.043-1.428 7.028-4.014 7.613-4.124zm5.458-22.799c1.345-.198 6.7-.994 11.566-.41l.244 1.006c-3.303.342-8.469 1.043-11.81-.596zm-16.372 7.492c2.281-.34 5.431-.497 9.528 3.913 0-2.048-.318-3.622-.293-4.612l5.233-1.739c.066-.006.022-2.22.391-3.053 3.402 1.511 10.083 1.42 14.397.74 0 0-.279 2.492-.188 2.614 1.567 1.909.661 2.264.396 2.333-1.549.502-1.821.945-1.821 1.118.958.648 2.159 1.126 3.232 1.448-.847.941-2.314 1.819-3.314 2.388-1.961 1.116-4.739 8.073-4.739 8.073.202.891 1.304 4.939.342 5.568-1.75 1.143-4.072 2.527-4.691 2.931.443 1.95-.176 6.234-1.869 9.027-.098.16-1.863-7.016-3.434-6.549-5.046 1.505-9.47.78-12.473-.029-4.05.637-7.757 4.514-7.757 4.055 0-4.006 3.761-8.859 3.751-8.917-1.211.152-3.712.705-3.899.607-14.561-7.41-16.499-23.565-13.663-27.818 5.347-6.092 18.273-8.701 22.876-12.182.497-.125 2.858 8.702-1.742 14.298 0 0-11.936 7.335-4.783 15.217-.902-3.575 1.644-8.774 4.52-9.431zm29.729-11.176c-1.752-.735-11.066-1.093-14.768.047l-2.284 1.969s7.244-21.105 1.43-30.497c-9.322 24.923-41.437 16.477-41.588 36.532-.002.228.031.513.071.854-2.284-1.325-3.926-4.471-4.54-6.113-3.009 11.489 2.454 23.035 12.454 27.763-2.405.292-5.642-.144-8.238-1.198 3.945 6.558 10.896 10.612 18.143 12.48.222.937.532 1.807.913 2.536.623-.652 1.275-1.252 1.957-1.814 7.845 1.164 16.166-1.356 19.651-3.612l2.676 6.54c1.252.002 5.808-3.66 5.089-11.519 1.515-1.021 5.78-2.854 5.375-4.862-.154-.765-1.062-4.092-1.062-4.912 0-.329 1.009-3.493 3.891-5.934 1.656-1.4 5.966-4.595 6.139-5.21.101-.347-2.673-5.004-2.722-5.431-.13-1.105.096-2.128 0-2.457l-1.729-.867.476-.885z" fill="#0b335e"/><path d="m168.875 55.782c4.476-7.462 4.48-13.27 4.21-19.089-1.462 1.731-1.365 1.646-3.09 2.926 1.156 4.615.743 9.694-1.12 16.163" fill="#aa9b8d"/><path d="m120.7 60.411c-.464.776-.987 1.196-1.501 1.444-.262.129-.522.215-.785.275-.265.066-.524.108-.771.149l-.331.054.194.661h8.298l-.208-.709-.211-.01c-.244-.011-.597-.034-.911-.134-.319-.101-.52-.253-.584-.474-.097-.328.007-.589.307-1.133l2.607-4.735 5.404 5.03c.499.452.765.821.846 1.103.05.16.003.198-.095.247-.066.032-.15.053-.246.068l-.257.028-.367.03.201.689h6.288l-.21-.711-.213-.008c-.979-.045-2.237-.121-4.225-1.955l-6.242-5.773-2.301-7.833c-.328-1.118-.393-1.651.864-1.802l.35-.043-.197-.676h-6.344l.204.699.203.022c.854.086 1.592.302 2.098 2.019l2.021 6.891zm25.936-21.582c-1.112 1.025-2.649 1.474-4.33 1.474-5.126 0-10.055-4.155-11.335-8.501-1.203-4.106.954-8.141 6.218-8.141 2.032 0 4.164.556 5.101.953.389.164.485.312.694 1.024l.798 2.717c.317 1.086.291 1.148-.905 1.17l-.394.009.213.711h6.231l-.212-.714-.218-.006c-1.207-.022-1.554-.245-1.868-1.313l-1.316-4.486c-2.912-.719-5.63-1.383-8.788-1.383-7.321 0-9.874 4.568-8.456 9.408 1.714 5.834 8.545 9.874 14.336 9.874 1.507 0 2.745-.241 3.751-.559 1.004-.315 1.777-.702 2.368-.999l.194-.101-.033-.216c-.213-1.288-.213-1.385-.226-2.77l-.004-.298h-.659l-.066.212c-.295.967-.506 1.374-1.094 1.935zm8.33 1.84-.331.055.194.66h13.314l-.861-2.926h-.673l.008.303c.009.502-.197.748-.499.893-.339.166-.815.212-1.339.212h-5.808l-2.124-7.245h4.95c.687 0 1.488.022 1.843.841l.812.18-1.001-3.414h-.766l.114.383c.031.099.05.183.057.266-.096.245-.338.421-1.213.421h-5.185l-1.492-5.077c-.553-1.888-.321-2.115 1.446-2.115h4.189c1.972 0 2.448.46 3.241 1.246l.777-.01-.161-.353c-.685-1.469-.763-1.641-.986-2.212l-.076-.191h-14.085l.2.683c1.68.27 1.952.858 2.359 2.245l3.885 13.227c.417 1.427.375 1.736-.789 1.928z" fill="#fff"/><path d="m168.839 0-.111 1.663c-.013.215 0 .479-.007.75h-.02c-.07-.258-.154-.548-.235-.791l-.577-1.587h-.318l-.562 1.628c-.069.224-.138.492-.2.75h-.022c-.006-.264 0-.499-.014-.75l-.104-1.663h-.401l.215 2.759h.547l.541-1.498c.069-.208.125-.436.194-.693h.015c.062.257.124.499.194.7l.541 1.491h.538l.208-2.759zm-2.667 2.759v-.354h-.846v-2.405h-.415v2.405h-.84v.354z" fill="#aa9b8d" fill-rule="nonzero"/></g></svg>