<svg clip-rule="evenodd" fill-rule="evenodd" stroke-linejoin="round" stroke-miterlimit="2" viewBox="0 0 560 400" xmlns="http://www.w3.org/2000/svg"><path d="m47.13 179.41v.01c0 10.873-8.947 19.82-19.82 19.82s-19.82-8.947-19.82-19.82 8.947-19.82 19.82-19.82c10.869 0 19.815 8.941 19.82 19.81m314.91 0v.01c0 10.873-8.947 19.82-19.82 19.82s-19.82-8.947-19.82-19.82 8.947-19.82 19.82-19.82h.01c10.85.027 19.765 8.96 19.77 19.81m-157.41 78.19v.01c0 10.873-8.947 19.82-19.82 19.82s-19.82-8.947-19.82-19.82 8.947-19.82 19.82-19.82h.01c10.865.005 19.805 8.945 19.81 19.81m-79.27-38.6c0 10.873-8.947 19.82-19.82 19.82s-19.82-8.947-19.82-19.82 8.947-19.82 19.82-19.82 19.82 8.947 19.82 19.82m157.46 0v.05c0 10.873-8.947 19.82-19.82 19.82s-19.82-8.947-19.82-19.82 8.947-19.82 19.82-19.82h.04c10.839.022 19.753 8.931 19.78 19.77m-242.08 20.4c-.005 7.342-6.048 13.38-13.39 13.38-7.346 0-13.39-6.044-13.39-13.39s6.044-13.39 13.39-13.39h.01c7.342.005 13.38 6.048 13.38 13.39zm314.91 0c-.005 7.342-6.048 13.38-13.39 13.38-7.346 0-13.39-6.044-13.39-13.39s6.044-13.39 13.39-13.39h.01c7.343.005 13.385 6.047 13.39 13.39m-157.46 79.26v.01c0 7.346-6.044 13.39-13.39 13.39s-13.39-6.044-13.39-13.39 6.044-13.39 13.39-13.39h.01c7.336.011 13.369 6.044 13.38 13.38m-79.26-39.65c0 7.346-6.044 13.39-13.39 13.39s-13.39-6.044-13.39-13.39 6.044-13.39 13.39-13.39h.01c7.34 0 13.38 6.04 13.38 13.38zm157.46 0v.03c0 7.346-6.044 13.39-13.39 13.39s-13.39-6.044-13.39-13.39 6.044-13.39 13.39-13.39h.03c7.319.022 13.334 6.041 13.35 13.36m-242.07 7.52c0 3.84-3.16 7-7 7s-7-3.16-7-7 3.16-7 7-7 7 3.16 7 7m314.91 0c0 3.84-3.16 7-7 7s-7-3.16-7-7 3.16-7 7-7 7 3.16 7 7m-157.46 79.27c0 3.84-3.16 7-7 7s-7-3.16-7-7 3.16-7 7-7 7 3.16 7 7m-79.26-39.63c0 3.84-3.16 7-7 7s-7-3.16-7-7 3.16-7 7-7 7 3.16 7 7m157.46 0c0 3.84-3.16 7-7 7s-7-3.16-7-7 3.16-7 7-7 7 3.16 7 7m-58.93-299.38c0 14.691-12.089 26.78-26.78 26.78s-26.78-12.089-26.78-26.78 12.089-26.78 26.78-26.78h.02c14.684.011 26.76 12.096 26.76 26.78m0 79.22c0 14.691-12.089 26.78-26.78 26.78s-26.78-12.089-26.78-26.78 12.089-26.78 26.78-26.78h.01c14.687.005 26.77 12.093 26.77 26.78m0 78.2c0 14.691-12.089 26.78-26.78 26.78s-26.78-12.089-26.78-26.78 12.089-26.78 26.78-26.78h.01c14.687.005 26.77 12.093 26.77 26.78v.04m157.47-78.24c0 14.691-12.089 26.78-26.78 26.78s-26.78-12.089-26.78-26.78 12.089-26.78 26.78-26.78 26.78 12.089 26.78 26.78m-314.91 0v.04c0 14.691-12.089 26.78-26.78 26.78s-26.78-12.089-26.78-26.78 12.089-26.78 26.78-26.78c14.676 0 26.758 12.064 26.78 26.74m79.26-39.63v.04c0 14.691-12.089 26.78-26.78 26.78s-26.78-12.089-26.78-26.78c0-14.676 12.064-26.758 26.74-26.78 14.691 0 26.78 12.089 26.78 26.78m0 78.19c0 14.691-12.089 26.78-26.78 26.78s-26.78-12.089-26.78-26.78 12.089-26.78 26.78-26.78 26.78 12.089 26.78 26.78m157.5-78.19c0 14.691-12.089 26.78-26.78 26.78s-26.78-12.089-26.78-26.78 12.089-26.78 26.78-26.78 26.78 12.089 26.78 26.78m0 78.19c0 14.691-12.089 26.78-26.78 26.78s-26.78-12.089-26.78-26.78 12.089-26.78 26.78-26.78 26.78 12.089 26.78 26.78" fill="#141414" fill-rule="nonzero" transform="matrix(.724268 0 0 .724268 146.564 65)"/></svg>