<svg clip-rule="evenodd" fill-rule="evenodd" stroke-linejoin="round" stroke-miterlimit="2" viewBox="0 0 560 400" xmlns="http://www.w3.org/2000/svg"><g fill-rule="nonzero" transform="matrix(1.79304 0 0 1.79304 99.5986 149.661)"><g fill="#00e1ed"><path d="m19.711 10.164c-.361-.355-.541-.533-.541-.753 0-.221.18-.398.541-.753l7.95-7.831c.361-.355.541-.532.765-.532s.404.177.764.532l7.951 7.831c.36.355.54.532.54.753 0 .22-.18.398-.54.753l-7.951 7.831c-.36.354-.54.532-.764.532s-.404-.178-.765-.532z" fill-opacity=".73"/><path d="m19.716 47.491c-.36-.355-.54-.532-.54-.753 0-.22.18-.398.54-.753l7.951-7.83c.36-.355.54-.533.764-.533s.404.178.765.533l7.95 7.83c.36.355.54.533.54.753 0 .221-.18.398-.54.753l-7.95 7.831c-.361.355-.541.532-.765.532s-.404-.177-.764-.532z" fill-opacity=".43"/><path d="m11.006 40.599c-.132-.485-.198-.727-.086-.918s.358-.256.851-.386l10.86-2.866c.493-.13.739-.195.933-.085.194.111.26.353.392.838l2.909 10.697c.132.484.198.727.086.918s-.358.256-.85.386l-10.861 2.866c-.492.13-.738.194-.932.084s-.26-.352-.392-.837z" fill-opacity=".48"/><path d="m29.953 8.281c-.132-.484-.198-.727-.086-.918s.358-.256.851-.386l10.86-2.866c.492-.129.738-.194.932-.084s.26.353.392.837l2.91 10.697c.132.485.198.727.086.918s-.358.256-.851.386l-10.86 2.866c-.492.13-.738.195-.932.085s-.26-.353-.392-.838z" fill-opacity=".18"/><path d="m4.838 42.345c-.492-.13-.738-.195-.85-.386s-.046-.433.086-.918l2.909-10.697c.132-.485.198-.727.392-.838.194-.11.44-.045.932.085l10.861 2.866c.492.13.739.195.85.386.112.191.046.433-.085.918l-2.91 10.697c-.132.485-.198.727-.392.837-.194.111-.44.046-.933-.084z" fill-opacity=".53"/><path d="m37.643 23.675c-.492-.13-.738-.195-.85-.386s-.046-.433.086-.918l2.909-10.697c.132-.485.198-.727.392-.838.194-.11.44-.045.932.085l10.861 2.866c.492.13.738.195.85.386s.046.433-.086.918l-2.91 10.697c-.131.485-.197.727-.391.837-.194.111-.44.046-.933-.084z" fill-opacity=".23"/><path d="m.764 28.829c-.36-.354-.54-.532-.54-.752 0-.221.18-.398.54-.753l7.951-7.832c.36-.355.54-.532.764-.532s.404.177.765.532l7.95 7.831c.361.355.541.533.541.753 0 .221-.18.398-.541.753l-7.95 7.831c-.361.355-.541.532-.765.532s-.404-.177-.764-.532z" fill-opacity=".58"/><path d="m38.644 28.806c-.361-.355-.541-.533-.541-.753 0-.221.18-.398.541-.753l7.95-7.831c.36-.355.54-.532.764-.532s.405.177.765.532l7.95 7.831c.361.355.541.532.541.753 0 .22-.18.398-.541.753l-7.95 7.83c-.36.355-.541.533-.765.533s-.404-.178-.764-.533z" fill-opacity=".28"/><path d="m4.062 15.102c-.132-.485-.198-.728-.086-.918.112-.191.358-.256.85-.386l10.861-2.866c.492-.13.738-.195.932-.085s.26.353.392.838l2.91 10.696c.132.485.198.728.086.918-.112.192-.358.256-.851.386l-10.86 2.867c-.493.129-.739.194-.933.084s-.26-.353-.391-.837z" fill-opacity=".63"/><path d="m36.874 33.763c-.132-.485-.198-.727-.086-.918s.358-.256.85-.386l10.861-2.866c.492-.13.738-.195.932-.085.194.111.26.353.392.838l2.909 10.696c.132.485.198.728.086.919s-.358.256-.85.386l-10.86 2.866c-.493.13-.739.195-.933.084-.194-.11-.259-.352-.391-.837z" fill-opacity=".33"/><path d="m11.77 16.866c-.492-.13-.738-.195-.85-.386s-.046-.433.086-.918l2.909-10.697c.132-.484.198-.727.392-.837s.44-.046.933.084l10.86 2.866c.492.13.738.195.85.386s.046.434-.086.918l-2.91 10.697c-.131.485-.197.727-.391.838-.194.11-.44.045-.933-.085z" fill-opacity=".68"/><path d="m30.726 49.177c-.492-.13-.738-.195-.85-.386s-.046-.433.086-.918l2.91-10.697c.131-.485.197-.727.391-.838.194-.11.44-.045.933.085l10.86 2.866c.492.13.738.195.85.386s.046.433-.086.918l-2.909 10.697c-.132.485-.198.727-.392.837-.194.111-.44.046-.932-.084z" fill-opacity=".38"/></g><path d="m201 24.948s-.189-.027-.405-.027c-1.595 0-3.163 1.092-3.649 2.396v-2.209h-1.325v10.648h1.352v-5.218c0-2.502 1.459-4.259 3.567-4.259.271 0 .46.027.46.027zm-12.947 1.092c2.109 0 3.703 1.57 3.865 3.646h-7.811c.135-1.943 1.811-3.646 3.946-3.646zm4.811 7.161-1.135-.559c-.729 1.277-1.811 2.129-3.54 2.129-2.217 0-4.055-1.65-4.109-3.94v-.026h9.19s.027-.187.027-.453c0-3.088-2.189-5.484-5.217-5.484-3.081 0-5.378 2.369-5.378 5.564 0 3.248 2.297 5.564 5.46 5.564 2.135 0 3.811-1.118 4.702-2.795zm-18.081 1.357c-2.325 0-4.163-1.863-4.163-4.259 0-2.369 1.811-4.233 4.163-4.233 2.378 0 4.216 1.89 4.216 4.233.027 2.369-1.811 4.259-4.216 4.259zm4.135-1.011v1.65c0 2.476-1.541 4.126-4.081 4.126-1.784 0-3.244-.825-4.001-2.289l-1.081.719c.919 1.757 2.757 2.795 5.082 2.795 3.378 0 5.405-2.183 5.405-5.404v-10.089h-1.324v1.996c-.73-1.358-2.433-2.236-4.217-2.236-3.081 0-5.432 2.396-5.432 5.431 0 3.088 2.351 5.457 5.432 5.457 1.757.053 3.46-.825 4.217-2.156zm-17.623 1.224c-2.351 0-4.216-1.89-4.216-4.366 0-2.422 1.865-4.339 4.216-4.339 2.433 0 4.298 1.943 4.298 4.339 0 2.449-1.865 4.366-4.298 4.366zm-.081 1.225c1.784 0 3.514-.932 4.298-2.316v2.076h1.324v-15.493h-1.324v6.895c-.757-1.385-2.46-2.29-4.298-2.29-3.108 0-5.513 2.423-5.513 5.564 0 3.115 2.405 5.564 5.513 5.564zm-12.406-9.956c2.109 0 3.703 1.57 3.865 3.646h-7.838c.135-1.943 1.838-3.646 3.973-3.646zm4.811 7.161-1.135-.559c-.73 1.277-1.811 2.129-3.54 2.129-2.217 0-4.055-1.65-4.109-3.94v-.026h9.19s.027-.187.027-.453c0-3.088-2.189-5.484-5.217-5.484-3.081 0-5.378 2.369-5.378 5.564 0 3.248 2.297 5.564 5.459 5.564 2.136 0 3.811-1.118 4.703-2.795zm-18.298-12.938v15.493h7.136v-1.304h-5.757v-14.189zm-7.324 4.685s-.19-.027-.406-.027c-1.594 0-3.162 1.092-3.649 2.396v-2.209h-1.324v10.648h1.351v-5.218c0-2.502 1.46-4.259 3.568-4.259.27 0 .46.027.46.027zm-12.947 1.092c2.108 0 3.703 1.57 3.865 3.646h-7.811c.135-1.943 1.811-3.646 3.946-3.646zm4.811 7.161-1.135-.559c-.73 1.277-1.811 2.129-3.541 2.129-2.216 0-4.054-1.65-4.108-3.94v-.026h9.19s.027-.187.027-.453c0-3.088-2.19-5.484-5.217-5.484-3.081 0-5.379 2.369-5.379 5.564 0 3.248 2.298 5.564 5.46 5.564 2.135 0 3.838-1.118 4.703-2.795zm-15.136 2.529 4.055-10.649h-1.379l-3.216 8.758-3.244-8.758h-1l-3.243 8.758-3.216-8.731h-1.406l4.054 10.648h1.054l3.244-8.705 3.216 8.705h1.081zm-14.973-5.325c0 2.423-1.865 4.366-4.244 4.366-2.378 0-4.243-1.943-4.243-4.366 0-2.396 1.865-4.339 4.243-4.339 2.379 0 4.244 1.943 4.244 4.339zm1.378 0c0-3.088-2.432-5.563-5.622-5.563-3.189 0-5.622 2.475-5.622 5.563s2.433 5.564 5.622 5.564c3.19.027 5.622-2.449 5.622-5.564zm-20.055-8.864h3.081c2.136 0 3.595 1.118 3.595 3.008s-1.459 3.008-3.595 3.008h-3.081zm3.081-1.278h-4.459v15.493h1.405v-6.895h3.081c2.946 0 5.001-1.544 5.001-4.286s-2.082-4.312-5.028-4.312" fill="#040052"/></g></svg>