<svg clip-rule="evenodd" fill-rule="evenodd" stroke-linecap="round" stroke-linejoin="round" viewBox="0 0 560 400" xmlns="http://www.w3.org/2000/svg"><g transform="matrix(1.0455 0 0 -1.0455 142.313 324.117)"><path d="m215.177 2.586c23.897 0 43.242 18.221 43.242 42.094v150.483c0 23.881-18.931 42.267-42.821 42.267h-169.373c-23.881 0-43.655-18.386-43.655-42.267v-150.483c0-23.873 19.377-42.094 43.258-42.094z" fill="#002d73" fill-rule="nonzero"/><path d="m215.177 2.586c23.897 0 43.242 18.221 43.242 42.094v150.483c0 23.881-18.931 42.267-42.821 42.267h-169.373c-23.881 0-43.655-18.386-43.655-42.267v-150.483c0-23.873 19.377-42.094 43.258-42.094z" fill="none" stroke="#040301" stroke-width="5.14"/><path d="m75.298 101.565h24.782l7.197 33.962h16.444c8.8 0 12.395-4.314 12.395-12.527 0-6.264-.678-11.23-.678-16.023 0-1.843.455-6.214 1.744-7.718h25.501c-2.149 3.586-2.984 8.991-2.984 12.255 0 5.371.389 10.568.389 17.361 0 8.99-2.677 13.816-9.726 15.543v.24c15.031 2.082 21.832 12.023 21.832 26.004 0 19.915-13.213 24.237-30.575 24.237h-46.605zm40.854 73.907h18.344c6.495 0 13.313-1.694 13.313-9.685 0-10.073-7.751-12.8-16.659-12.8h-19.725z" fill="none" stroke="#fff" stroke-linecap="butt" stroke-linejoin="miter" stroke-width="6.57"/><path d="m75.298 101.565h24.782l7.197 33.962h16.444c8.8 0 12.395-4.314 12.395-12.527 0-6.264-.678-11.23-.678-16.023 0-1.843.438-6.214 1.744-7.718h25.501c-2.157 3.586-3.017 8.991-3.017 12.255 0 5.371.422 10.568.422 17.361 0 8.99-2.678 13.816-9.726 15.543v.24c15.031 2.082 21.832 12.023 21.832 26.004 0 19.915-13.23 24.237-30.575 24.237h-46.605zm40.854 73.907h18.344c6.495 0 13.313-1.694 13.313-9.685 0-10.073-7.751-12.8-16.659-12.8h-19.725z" fill="#040301" fill-rule="nonzero"/><path d="m141.066 93.739h26.021l16.518 27.872 4.454-28.095h27.195l-24.526-17.155 4.148-28.227-22.22 17.039-29.087-17.271 13.494 29.005z" fill="#fff" fill-rule="nonzero"/><path d="m141.066 93.739h26.021l16.518 27.872 4.454-28.095h27.195l-24.526-17.155 4.148-28.227-22.22 17.039-29.087-17.271 13.494 29.005z" fill="none" stroke="#040301" stroke-linecap="butt" stroke-linejoin="miter" stroke-width="4.74"/><path d="m255.985 8.189c-.272.173-.76.256-1.388.256h-1v-2.338h1.058c.471 0 .859.024 1.099.124.438.181.694.52.694 1.016 0 .471-.173.81-.463.942m-1.231 1.074c.81 0 1.397-.074 1.793-.239.67-.29 1.017-.835 1.017-1.678 0-.578-.232-1-.67-1.289-.19-.132-.52-.24-.925-.322.529-.05.901-.289 1.115-.637.24-.33.364-.685.364-.999v-.48c0-.132 0-.305.033-.487 0-.174.017-.273.05-.339l.033-.074h-1.066c0 .024 0 .041-.033.057 0 .034-.017.034-.017.083v.727c0 .76-.231 1.24-.644 1.488-.24.124-.678.206-1.298.206h-.909v-2.561h-1.14v6.544zm-3.537.331c-.991-1.008-1.487-2.198-1.487-3.653 0-1.388.496-2.611 1.487-3.627 1.009-.984 2.207-1.504 3.628-1.504 1.43 0 2.653.52 3.628 1.504.999 1.016 1.495 2.239 1.495 3.627 0 1.455-.496 2.645-1.495 3.653-.992 1-2.198 1.479-3.628 1.479-1.421 0-2.619-.479-3.628-1.479m7.859-7.867c-1.165-1.14-2.562-1.727-4.231-1.727-1.661 0-3.057.587-4.214 1.727-1.141 1.182-1.719 2.586-1.719 4.247 0 1.645.578 3.033 1.727 4.231 1.173 1.124 2.57 1.711 4.206 1.711 1.669 0 3.066-.587 4.231-1.711 1.173-1.181 1.743-2.586 1.743-4.231 0-1.628-.57-3.065-1.743-4.247" fill-rule="nonzero"/></g></svg>