<svg clip-rule="evenodd" fill-rule="evenodd" stroke-linejoin="round" stroke-miterlimit="1.41421" viewBox="0 0 560 400" xmlns="http://www.w3.org/2000/svg"><g transform="matrix(1.2717 0 0 1.2717 99.0377 154.003)"><g fill="#525153"><path d="m135.271 18.05-31.708-.057c-7.064 1.027-11.416 5.89-11.539 12.067 0 .285.042.572.086.863.734 5.758 5.634 10.809 12.01 10.945l20.159-.178c1.004.121 1.638.582 1.644 1.565.015.641-.424 1.092-1.578 1.383l-30.832-.001.061 10.493h32.65c6.708-1.044 11.459-6.505 10.515-13.307-.786-5.717-4.91-9.497-10.896-10.445l-20.963.06c-1.199-.054-1.639-.709-1.684-1.393-.07-.983.656-1.373 1.613-1.492l30.584.058z"/><path d="m157.271 39.417 4.346-9.947 4.284 9.947zm11.251-21.307-13.814-.061-18.456 37.107 13.877.108 2.737-6.289h17.379l2.793 6.238 13.82-.058z"/><path d="m202.614 18.131-13.665-.053-.061 37.051h10.443v-24.697l18.295 24.697h13.482l.061-36.998h-10.55l.235 24.645z"/><path d="m246.404 18.088h-13.488l18.594 24.31v12.808h13.491l-.059-12.867 18.907-24.194-13.688-.057-11.872 15.678z"/></g><g fill="#ed1c24"><path d="m4.593 56.372 20.377-5.784c.262-.09.436-.32.415-.57-.014-.247-.152-.492-.506-.576l-3.04-.497-.125-.045c-.174-.1-.313-.342-.125-.591l11.736-12.692c1.177-1.428 2.816-2.292 4.784-1.696l-4.373-12.655-30.252 33.302c-.37.411-.407.922-.155 1.311.254.367.684.582 1.264.493"/><path d="m35.809 1.554-4.893 19.562c-.046.256.078.519.319.627.229.111.518.113.771-.13l1.981-2.228.1-.078c.183-.096.467-.085.612.194l5.892 16.494c.747 2.176-.048 3.469-1.282 4.517l14.075 2.527-15.366-41.477c-.196-.507-.642-.797-1.112-.777-.477.01-.887.259-1.097.769"/><path d="m70.494 54.539-15.531-13.759c-.217-.171-.513-.194-.739-.06-.222.128-.363.371-.268.705l1.062 2.728.017.119c0 .2-.157.43-.479.404l-18.092-3.409c-1.72-.325-2.962-1.12-3.52-3.231l-9.332 10.186 45.774 8.111c.559.098 1.056-.119 1.279-.521.215-.393.192-.853-.171-1.273"/><path d="m70.081 51.006c5.319-11.138 3.187-24.582-4.513-34.258-5.214-6.551-13.877-11.797-24.214-12.983-1.017-.049-1.213 1.045-.287 1.383 20.794 5.296 33.085 22.223 27.614 45.397-.164.46.045.816.456.94.425.118.7.031.944-.479"/><path d="m8.08 57.917c7.584 9.895 20.997 14.862 33.74 13.381 8.604-.98 17.631-5.354 23.874-13.211.445-.592.168-1.04-.217-1.182-.269-.101-.667-.059-.961.374-15.252 14.362-36.765 15.732-55.332-.296-.317-.413-.723-.44-1.018-.276-.349.199-.513.67-.086 1.21"/><path d="m32.857 3.701c-12.881 1.33-24.533 9.917-29.463 21.098-3.346 7.548-3.82 17.053.349 26.059.398.646 1.084.453 1.323.016.085-.152.079-.374-.021-.606-5.712-19.75 4.122-38.01 28.07-45.187.959-.231.631-1.476-.258-1.38"/></g></g></svg>