<svg clip-rule="evenodd" fill-rule="evenodd" stroke-linejoin="round" stroke-miterlimit="1.41421" viewBox="0 0 560 400" xmlns="http://www.w3.org/2000/svg"><g transform="matrix(.0518826 0 0 -.0518826 90.501 397.405)"><path d="m3665.51 5469.09c287.38 0 572.81 34.81 848.57 104.5l34.85 8.7 26.11-24.19c197.37-182.89 332.83-418.96 392.85-683.11l7.71-34.85-25.14-26.12c-398.62-411.21-690.86-919.22-844.68-1466.85l-9.68-34.83-34.85-10.64c-125.78-38.7-259.31-59.03-395.74-59.03-133.53 0-267.05 20.33-396.71 60.96l-33.87 10.65-9.66 33.85c-154.82 546.67-447.02 1053.7-846.63 1465.89l-25.16 26.12 7.73 34.85c59.99 263.16 197.4 500.22 396.71 685.04l26.13 24.18 34.83-8.69c282.53-70.64 567-106.43 846.63-106.43" fill="#112c5c"/><path d="m2512.16 4578.9c0 308.67 119.99 597.96 337.68 815.7 217.72 217.66 507.02 337.66 814.71 337.66 308.68 0 597.96-120 815.66-337.66 217.7-217.74 337.7-507.03 337.7-815.7 0-634.74-517.68-1152.39-1153.36-1152.39-307.69 0-596.99 119.97-814.71 337.69-217.69 217.68-337.68 507.01-337.68 814.7" fill="#112c5c"/><g fill="#deddde" fill-rule="nonzero"><path d="m2812.91 5471.43c-84.8-81.07-158.22-174.08-217.3-276.32-57.74-99.93-101.84-208.67-129.6-323.64 198.87-207.84 372.89-438.88 517.15-688.89 141.39-244.99 254.48-508.7 334.6-786.92 53.05-15.52 107.83-27.88 164.15-36.53 59.8-9.2 121.12-14.13 183.6-14.13 63.69 0 125.77 4.62 186.17 13.61 54.99 8.2 108.55 19.95 160.63 35.11 80.28 278.83 193.43 543.49 335.02 789.46 143.85 249.83 317.32 480.87 515.75 688.29-27.78 114.94-71.51 223.67-128.92 323.72-58.2 101.4-130.35 193.7-214.15 274.32-135.42-33.3-273.86-59-414.65-76.5-144.3-17.92-291.14-27.21-439.85-27.21-150.33 0-298.48 10.05-444.45 28.95-139.11 18.03-275.08 43.91-408.15 76.68zm-280.38-239.81c66.07 114.26 148.97 217.66 245.08 306.71l14.58 13.53 19.08-4.84c137.53-34.62 277.15-61.72 418.93-80.08 141.63-18.34 286.67-28.09 435.31-28.09 145.84 0 289.73 9.11 431.01 26.65 144.79 17.99 286.79 44.79 425.16 79.6l19.16 4.83 14.51-13.53c95.43-88.89 177.11-191.62 242.16-304.97 63.94-111.45 111.91-233.46 141.05-362.98l4.34-19.17-13.6-14.05c-199.64-206.41-374.14-437.6-518.63-688.6-142.15-246.91-254.93-512.47-333.66-791.89l-5.36-19.1-19.05-5.86c-61.95-19.14-125.44-33.68-190.34-43.35-64.21-9.58-129.86-14.5-196.75-14.5-66.06 0-131 5.25-194.44 15-66.07 10.16-130.76 25.35-193.62 44.78l-19.01 5.88-5.37 19.09c-78.59 278.81-191.3 543.38-333.27 789.39-144.91 251.07-319.96 482.34-520.02 689.16l-13.57 14.02 4.31 19.2c29.03 129.45 77.5 251.53 142.01 363.17"/><path d="m2541.42 4578.9c0 310.37 125.73 591.3 328.94 794.68 203.37 203.53 484.21 329.42 794.19 329.42 310.49 0 591.54-125.78 794.91-329.15 203.38-203.42 329.16-484.43 329.16-794.95 0-310-125.85-590.82-329.38-794.2-203.42-203.2-484.31-328.93-794.69-328.93-310.03 0-590.82 125.79-794.09 329.05s-329.04 484.04-329.04 794.08zm380.58 743.32c-189.98-190.15-307.51-452.9-307.51-743.32 0-289.89 117.58-552.38 307.63-742.45 190.04-190.02 452.56-307.61 742.43-307.61 290.38 0 553.18 117.55 743.32 307.53 190.11 189.96 307.7 452.52 307.7 742.53 0 290.34-117.59 553.13-307.73 743.28-190.19 190.18-452.94 307.77-743.29 307.77-290.02 0-552.58-117.59-742.55-307.73"/><path d="m3282.8 4634.53c36.23 7.03 72.37 4.65 104.44-7.07 31.36-11.41 58.74-31.67 78.53-60.54l17.68-41.5-41.36 15.19c-61.53 33.22-123.46 14.82-184.3-3.29-77.4-22.98-153.25-45.5-232.41 21.4-16.11 11.37-29.35 28.61-39.86 46.18-10.2 17.05-17.82 34.28-22.86 46.34l-25.51 61.23 53.19-39.61c.31-.23 110.23-84.74 291.38-38.52z"/></g><path d="m3640.35 4936.93c-77.39 0-149-14.55-177.06-54.2 0 0-30.96-29.02-36.76-54.2 0 0-198.36 134.52-260.28-157.71 0 0 119.97 86.13 188.67 30 0 0 34.83-49.36 98.7-65.8 87.08-23.24 77.4-40.63 81.27-59.03 0 0-11.62-27.06-87.08-74.5-74.49-48.38-117.07-25.17-185.77-2.91 0 0-4.84-101.59 131.58-99.66 0 0 22.26-1.93 49.35.98 0 0-163.52-68.71-101.6-237.05 0 0 56.12 67.73 118.05 83.22 0 0-177.06-201.26 57.09-397.72 0 0 0 179.98 66.76 235.16 0 0 36.76-143.2 25.16-221.59 0 0-2.91-68.67-24.2-104.49 0 0 277.69 5.8 198.36 339.62 0 0 111.27-37.76 88.06-189.66 0 0 249.64 124.84 85.16 381.24 0 0 93.84 0 122.87-112.25 0 0 133.53 206.1-87.08 402.52 0 0 83.22 20.33 128.69-48.38 0 0-5.82 156.77-153.86 233.2-33.87 18.37 19.35 72.56 5.81 102.57z" fill="#ce0f3e"/><path d="m3812.6 4816.93s89.95 114.18 224.46 98.69c0 0-37.71-168.34-185.76-199.3z" fill="#ce0f3e"/><g fill="#deddde"><path d="m3856.14 4800.49s51.29 50.31 113.2 60.93c0 0-30.96-72.57-101.6-87.08z"/><path d="m3591.01 4637.93c-16.45 11.61-37.74 16.45-55.16 7.71 53.22-1.89 61.93-77.4 119.99-61.91 10.64 2.92 20.32 7.75 29.02 13.57-37.73-15.49-68.7 19.32-93.85 40.63"/><path d="m3893.78 4421.97c-6.69 31.18-17.31 54.77-32.24 73.29-19.2 23.81-45.58 39.23-79.93 51.7 7.63-33.33 16.82-66.6 17.04-101.03.23-32.12-6.76-59.79-20.89-82.81-10.32-16.51-23.36-28.49-35.91-37.15 12 31.83 12.79 58.96 8.95 80.54-7.18 40.29-30.19 61.38-56.25 89.16-1.12-24.75-.73-50.19-6.97-74.38-7.95-30.76-23.25-49.4-38.92-60.74 11.28 34.74 3.16 67.39-5.4 83.87l-32.9-17.42c.52-1.59 15.23-31.26-1.35-65.16-11.05-22.6-33.4-40.21-50.89-57.71 66.55 3.96 126.92 10.99 157.92 85.38 3.05-49.86-27.41-89.58-54.4-127.98 59.48 11.91 109.47 23.96 146.08 81.3 22.91 35.37 31.15 78.42 26.08 129.56 34.36-46.11 30.05-106.13 30.05-160.55 45.2 54.76 78.8 106.35 78.27 183.23-.38 51.06-18.78 110.47-77.29 168.98l-12.55-38.7c65.92-83.76 58.17-157.68 41.5-203.38"/></g><path d="m3366.98 4595.83c-23.65 7.03-49.93 8.09-76.53 3.06-120.49-30.69-213.38-7.56-267.73 15.31 7.13-10.47 15.25-19.96 24.21-26.12l.87-.6.55-.49c64.4-54.73 131.09-34.93 199.16-14.71 39.14 11.64 78.7 23.4 119.47 23.55" fill="#ce0f3e" fill-rule="nonzero"/><path d="m3703.24 5037.54c23.23-38.7 60.96-89.99 108.38-89.99 48.37 0 77.4 21.28 100.64 59.98-13.56-1.92-17.42-1.92-30.99 1.97-29.97 10.62-44.48 40.63-38.7 79.33 9.71 33.87 43.54 53.22 76.46 43.54 11.6-3.89 21.28-9.67 28.04-17.42-7.71 14.51-10.62 32.92-5.82 49.32 9.72 33.87 49.36 61 84.21 55.18l-135.46-333.81h-447.03l-136.43 318.32c33.87 5.82 73.54-21.28 83.21-55.15 4.84-16.44 1.95-29.02-5.8-42.59 6.77 7.75 17.42 22.26 28.06 26.15 32.9 9.68 70.63-19.35 80.3-52.27 5.82-38.7-6.76-62.89-36.76-73.51-13.55-2.91-25.16-.98-38.69.94 23.21-38.7 58.05-59.98 106.41-59.98 47.42 0 82.25 51.29 105.47 89.99-10.64-7.74-23.22-11.64-36.77-11.64-34.83 0-61.92 28.08-61.92 62.93 0 34.81 27.09 63.84 61.92 63.84 10.66 0 22.26-2.91 30.97-8.69-11.6 11.6-19.35 28.04-19.35 45.46 0 34.85 28.06 62.89 61.92 62.89 34.84 0 62.91-28.04 62.91-62.89 0-17.42-8.72-34.84-20.33-46.45 9.68 5.82 20.33 9.68 31.93 9.68 34.84 0 61.92-29.03 61.92-63.84 0-34.85-27.08-62.93-61.92-62.93-13.55 0-36.78 11.64-36.78 11.64" fill="#e2ad25"/><path d="m3555.61 4802.46c-5.64.45-12.2.56-19.8 0-.9-18.41-15.09-31.98-33.81-31.98-16.61 0-30.34 10.7-33.93 25.93-6.85.75-12.99 2.04-18.44 3.66 4.28-19.95 15.44-43.61 44.01-48.98.11-.03 40.32-8.54 57.48 40.67l.06.23c1.4 3.85 2.88 7.33 4.43 10.47zm-64.39 83.07c-5.16-4.04-9.56-8.47-13.02-13.38l-1-1.4-1.29-1.24c-.04-.04-16.89-15.92-26.22-32.17 9.38-5.02 28.74-10.73 62.52-2.27l1.39.27c44.5 7.52 72.33-2.46 85.63-9.64 18.9-5.78 34.85-23.89 34.92-23.96l-26.3-23.81c-.04.07-17.18 19.39-23.46 2.04-27.4-78.28-97.05-63.65-97.26-63.61-62.14 11.68-73.43 71.21-75.25 99.85-26.24 15.46-158.47 82.21-217.01-107.33 44.97 22.86 119.27 48.75 171.54 6.08l2.06-1.7 1.22-1.66c.08-.16 31.15-44.15 88.42-58.89l.14-.07c88.39-23.55 91.07-45.58 93.74-67.77.23-1.97.5-3.97.74-5.18l1.18-5.59-2.25-5.22c-.04-.11-13.86-32.35-94.16-82.81v.04c-70.62-45.81-114.45-34.02-172.18-14.55 9.22-23.93 35.19-55.37 108.09-54.39h1.29c.05 0 21.5-1.81 46.34.83l119.93 12.85-110.79-47.73c-.4-.15-128.56-54.05-100.23-184.78 23.44 22.64 62.65 54.8 105.06 65.42l55.4 13.83-37.16-43.39c-.42-.52-149.97-170.45 26.76-346.16 4.32 58.66 19.34 166.3 71.63 209.5l22.07 18.25 7.17-27.7c.11-.46 37.28-145.25 25.8-227.38-.27-5.1-2.57-45.62-13.54-81.36 64.89 12.54 210 68.13 151.68 313.5l-7.76 32.69 31.65-11.3c.34-.11 106.28-36.13 103.33-171.85 57.11 41.46 166.53 152.27 48.38 336.38l-18.29 28.61 33.86-.46c.27-.03 82.59-.07 124.96-84.43 25.17 64.63 52.72 205.49-101.49 342.8l-26.15 23.24 34.09 8.13c.19.04 55.52 13.57 105.11-15.12-14.06 49.14-48.79 121.74-134.4 165.96l-.38.23c-.38.23-.75.42-1.09.64-26.76-22.68-60.14-41.23-101.63-49.93l-7.45 35.68c82.43 17.24 151.71 115.81 165.54 164.68-112.21.68-186.1-93.02-186.33-93.28l-28.38 22.83c.3.34 96.19 122.04 240.75 105.41l20.41-2.35-4.72-19.91c-.08-.34-16.74-74.61-71.09-136.41 148.83-82.96 154.77-243.25 154.81-243.7l3.36-66.56-36.81 55.64c-19.66 29.67-47.74 39.6-70.53 42.29 188.15-197.44 59.9-395.49 59.53-396.06l-22.49-35.68-10.58 40.79c-13.84 53.55-43.66 78-68.07 89.15 129.22-248.2-113.31-369.45-114.03-369.82l-31.71-16.29 5.37 35.26c12.69 82.92-17.81 127.6-43.92 149.97 52.61-315.04-223.05-320.9-223.86-320.92l-33.29-1.12 17.02 28.66c18.93 31.8 21.61 95.71 21.63 95.86l.03.72.17 1.29c7.61 51.25-6.74 132.62-16.58 178.96-38.96-66.64-39.02-194.8-39.02-195.21l-.28-38.82-29.68 24.91c-170.23 142.79-135.21 288.41-96.15 366.16-31.02-22.57-53.28-49.36-53.37-49.51l-20.21-23.97-10.82 29.48c-41.68 113.31 9.56 185.39 55.51 224.24-141.36 5.03-136.01 118.19-136.01 118.49l.96 24.04 22.87-7.41c8.95-2.91 15.29-5.06 21.44-7.14 52.13-17.69 89.73-30.43 148.86 7.97l.21.15c54.07 33.94 72.24 54.66 77.79 62.55-.03.38-.09.76-.13 1.14-1.2 9.83-2.39 19.61-66.63 36.77l-.02-.03c-62.61 16.1-99.9 60.88-107.49 70.75-58.26 44.22-164.59-31.98-164.9-32.17l-37.92-26.68 9.61 45.36c35.37 166.9 112.57 205.49 178.16 204.32 32.04-.57 63.02-10.59 91.63-24.38 6.33 11 14.01 21.24 22.28 30.99z" fill="#deddde" fill-rule="nonzero"/><path d="m6561.49 2913.69h-585.38l-306.74-757.62.98 758.6h-393.79v-1017.91h688.89l61.95 154.82h491.53l70.6-154.82h384.15zm-1746.49-546.68-416.05 547.66h-499.27v-755.69l-313.5 754.71h-577.65l-241.9-604.74h-360.91c-29.99-126.75-98.69-182.88-223.52-182.88-143.19 0-239.95 106.45-239.95 265.13 0 206.09 81.29 312.53 237.06 312.53 127.72 0 200.29-57.09 222.53-176.11h409.3l.96 15.5c0 245.76-248.65 407.33-626.98 407.33-404.46 0-596.04-157.7-628.95-519.58-58.03 62.9-152.86 112.25-224.46 118.04l-152.88 13.55-225.444 3.87c-96.764 1.93-151.918 35.8-151.918 92.89 0 64.83 56.114 100.63 158.694 100.63 118.038 0 165.458-43.54 165.458-150.94h430.55v13.53c0 209.98-203.17 326.09-571.826 326.09-409.281 0-609.58-112.24-609.58-339.62 0-194.49 147.075-298.98 428.65-306.72l167.392-3.88c122.884-3.87 178.034-33.87 178.034-98.7 0-55.16-77.4-107.39-157.719-107.39-140.3 0-213.839 48.36-213.839 139.33h-446.057v-9.67c0-220.62 222.551-341.56 627.002-341.56 389.923 0 581.523 85.14 643.433 287.37 124.83-212.88 287.38-290.29 603.78-290.29 201.25 0 305.76 28.07 436.37 122.9l-41.61-103.54h380.27l69.67 158.7h499.26l66.76-156.77h652.14v602.81l463.48-604.74h461.56v1016.93h-378.34zm1317.85-59.99 134.48 336.71 152.88-334.78zm-2978.21 0 135.45 347.36 154.82-347.36z" fill="#112c5c"/></g></svg>