<svg clip-rule="evenodd" fill-rule="evenodd" stroke-linejoin="round" stroke-miterlimit="2" viewBox="0 0 560 400" xmlns="http://www.w3.org/2000/svg" xmlns:xlink="http://www.w3.org/1999/xlink"><linearGradient id="a"><stop offset="0" stop-color="#ffa50d"/><stop offset="1" stop-color="#fe5413"/></linearGradient><linearGradient id="b" gradientUnits="userSpaceOnUse" x1="0" x2="1000" xlink:href="#a" y1="500" y2="500"/><linearGradient id="c" gradientUnits="userSpaceOnUse" x1="349" x2="652" xlink:href="#a" y1="622" y2="622"/><g fill-rule="nonzero" transform="matrix(.3 0 0 .3 130 50)"><path d="m500 0c276.1 0 500 223.9 500 500s-223.9 500-500 500-500-223.9-500-500 223.9-500 500-500z" fill="url(#b)"/><path d="m692 347c-6.3 7.5-5.9 24.1-16 19 0 0-70.3-26.9-27-106 11.7-18.3 23.8-19.5 22-64 10.8 16.4 46.2 49.3 49 101 2.8 34.5-17.8 39.1-28 50z" fill="#fff"/><path d="m636 470c17.3-5.8 45.3-15 47-74 26.7 40.9 117.3 98.3 74 274-17.6 68.5-83.2 101.8-145 127-38.6 16.4-78 43.8-94 85 0 0-292.1-36.9-283-327 7.3-150.5 148.3-208 208-318 31.8-69.4 21-139 21-139s186 115.7 102 294c-27.3 63 37.9 84.3 70 78z" fill="#fff"/><path d="m349 522v97h103v103h97v-103h103v-97z" fill="url(#c)"/></g></svg>