<svg clip-rule="evenodd" fill-rule="evenodd" viewBox="0 0 560 400" xmlns="http://www.w3.org/2000/svg"><path d="m279.998 69.7-2.643 4.424-19.676 32.921-8.276-13.841-2.639-4.42-2.647 4.42-63.17 105.712-.947 1.576.947 1.58 62.271 104.205 2.643 4.424 2.643-4.424 8.563-14.329 20.284 33.936 2.643 4.424 2.643-4.424 20.284-33.94 8.571 14.341 2.643 4.416 2.643-4.416 62.275-104.213.947-1.58-.947-1.576-63.178-105.708-2.639-4.42-2.647 4.42-8.272 13.837-19.676-32.921zm0 6.004 22.319 37.341 10.92-18.257 63.174 105.704-62.279 104.209-11.21-18.757-22.928 38.36-22.928-38.36-11.206 18.753-62.271-104.205 63.174-105.708 10.916 18.261z" fill="#aeacad"/><path d="m257.066 285.948 22.928 38.356 22.928-38.356 11.21 18.753 62.279-104.205-63.178-105.712-10.916 18.257-22.319-37.341-22.319 37.345-10.916-18.261-63.174 105.712 62.271 104.201z" fill="#00245e"/><path d="m321.457 218.423-41.455 69.347-41.455-69.347h-14.01l55.465 92.794 55.457-92.794zm-75.596 49.751-29.729-49.751h-14.006l43.736 73.187 9.747-16.295-7.011-11.718-2.736 4.577zm98.016-49.751-29.741 49.751-2.728-4.577-7.011 11.718 9.739 16.299 43.744-73.191h-14.002z" fill="#9dc2ea"/><g fill="#fff"><path d="m313.233 107.879-9.481 15.86 6.822 11.411 2.659-4.453 30.998 51.863h13.64l-44.638-74.682zm-111.1 74.682h13.636l31.003-51.863 2.659 4.449 6.822-11.403-9.481-15.864-44.638 74.682z"/><path d="m247.617 165.802 32.389-54.188 32.385 54.188h13.64l-46.024-77.011-46.028 77.011h13.64z"/><path d="m195.476 190.551h4.759l3.167 12.717h.052l4.146-12.717h4.066l4.114 13.055h.056l3.332-13.055h4.424l-5.794 19.833h-3.892l-4.372-13.728h-.056l-4.368 13.728h-3.755z"/><path d="m225.705 190.551h4.368v7.398h8.49v-7.398h4.368v19.833h-4.368v-8.571h-8.49v8.571h-4.368z"/><path d="m247.694 190.551h4.364v19.833h-4.364z"/><path d="m260.975 194.416h-5.657v-3.86h15.687v3.86h-5.661v15.969h-4.368v-15.969z"/><path d="m274.413 190.551h13.478v4.037h-9.107v3.695h6.729v4.033h-6.729v4.033h9.61v4.033h-13.982v-19.833z"/><path d="m304.388 195.623c-.866-1.038-2.131-1.622-3.753-1.622-3.304 0-5.747 2.69-5.747 6.382 0 3.702 2.443 6.387 5.606 6.387 1.763 0 3.193-.781 4.09-2.126l3.642 2.72c-1.657 2.352-4.453 3.44-7.173 3.44-6.196 0-10.699-4.06-10.699-10.422 0-6.357 4.503-10.417 10.699-10.417 2.216 0 5.012.761 6.694 2.916l-3.36 2.74z"/><path d="m318.894 196.238-2.408 6.165h4.846zm-1.677-5.767h3.612l8.633 19.831h-4.936l-1.708-4.201h-7.702l-1.652 4.201h-4.82z"/><path d="m335.794 198.872h2.916c1.536 0 3.083-.534 3.083-2.377 0-2.05-2.075-2.327-3.758-2.327h-2.241v4.705zm-4.367-8.402h7.364c4.12 0 7.535 1.32 7.535 6.024 0 4.644-3.163 6.08-7.339 6.08h-3.193v7.727h-4.367z"/><path d="m359.437 195.316c-.705-.897-2.105-1.315-3.173-1.315-1.229 0-2.937.559-2.937 2.045 0 3.612 9.132 1.284 9.132 8.235 0 4.428-3.561 6.523-7.651 6.523-2.549 0-4.79-.756-6.664-2.493l3.108-3.415c.897 1.174 2.352 1.879 3.808 1.879 1.431 0 3.027-.675 3.027-2.07 0-3.647-9.303-1.687-9.303-8.296 0-4.231 3.672-6.442 7.566-6.442 2.241 0 4.402.589 6.08 2.07l-2.992 3.279z"/><path d="m264.067 218.235h13.298v4.035h-8.931v4.035h6.392v4.03h-6.392v7.732h-4.367v-19.831z"/><path d="m292.072 223.387c-.866-1.033-2.121-1.622-3.753-1.622-3.304 0-5.742 2.69-5.742 6.387 0 3.692 2.438 6.382 5.606 6.382 1.768 0 3.188-.786 4.09-2.126l3.642 2.715c-1.657 2.352-4.458 3.45-7.173 3.45-6.19 0-10.699-4.065-10.699-10.422 0-6.362 4.508-10.422 10.699-10.422 2.211 0 5.017.756 6.694 2.911l-3.365 2.745z"/><path d="m229.281 171.214h2.846l2.806 7.425h.03l2.851-7.425h2.67l-4.669 11.328h-2l-4.533-11.328z"/><path d="m244.619 174.508-1.375 3.526h2.77zm-.957-3.294h2.065l4.926 11.333h-2.816l-.977-2.403h-4.402l-.942 2.403h-2.75z"/><path d="m252.018 171.214h3.39l4.82 7.873h.035v-7.873h2.493v11.328h-3.264l-4.951-8.064h-.03v8.064h-2.493z"/><path d="m272.604 174.161c-.494-.594-1.219-.932-2.146-.932-1.889 0-3.279 1.536-3.279 3.652 0 2.111 1.39 3.647 3.198 3.647 1.007 0 1.828-.443 2.337-1.214l2.085 1.551c-.947 1.345-2.554 1.969-4.1 1.969-3.536 0-6.115-2.322-6.115-5.954 0-3.637 2.579-5.954 6.115-5.954 1.259 0 2.861.433 3.823 1.667l-1.919 1.567z"/><path d="m281.711 180.533c2.126 0 3.521-1.536 3.521-3.652 0-2.111-1.395-3.647-3.521-3.647-2.131 0-3.521 1.536-3.521 3.647 0 2.116 1.39 3.652 3.521 3.652m0-9.606c3.536 0 6.115 2.322 6.115 5.954s-2.579 5.954-6.115 5.954c-3.541 0-6.115-2.322-6.115-5.954s2.574-5.954 6.115-5.954"/><path d="m299.492 178.175c0 2.675-1.632 4.659-4.77 4.659-3.153 0-4.785-1.985-4.785-4.659v-6.961h2.498v6.865c0 1.395.957 2.448 2.287 2.448 1.31 0 2.272-1.053 2.272-2.448v-6.865h2.498z"/><path d="m300.872 171.214h2.851l2.801 7.425h.03l2.856-7.425h2.67l-4.674 11.328h-2l-4.533-11.328z"/><path d="m313.585 171.214h7.697v2.307h-5.198v2.111h4.911v2.302h-4.911v2.307h5.485v2.302h-7.984v-11.328z"/><path d="m326.289 175.904h1.476c.907 0 2.09-.03 2.09-1.264 0-1.138-1.023-1.31-1.934-1.31h-1.632zm-2.498-4.689h4.387c2.322 0 4.271.801 4.271 3.44 0 1.587-.846 2.816-2.448 3.108l2.881 4.785h-2.992l-2.367-4.533h-1.234v4.533h-2.498z"/></g><g fill="#051c36"><path d="m324.269 300.176h1.697v4.448h.871v-4.448h1.708v-.781h-4.276z"/><path d="m331.729 303.576-1.32-4.181h-1.284v5.228h.801v-4.453l1.405 4.453h.796l1.34-4.387v4.387h.801v-5.228h-1.259l-1.279 4.181z"/></g></svg>