<svg clip-rule="evenodd" fill-rule="evenodd" stroke-linejoin="round" stroke-miterlimit="2" viewBox="0 0 560 400" xmlns="http://www.w3.org/2000/svg"><path d="m939.897 51.503-4.723-10.608c9.715-5.789 20.853-8.762 32.161-8.584 22.041 0 32.649 12.108 32.649 34.673v54.54h-10.795l-1.162-9.783c-8.471 7.217-19.164 11.319-30.288 11.62-16.83 0-27.438-10.271-27.438-25.415 0-16.643 10.608-27.101 32.311-27.101h24.89v-2.849c0-15.668-6.897-24.065-22.191-24.065-8.99.238-17.76 2.851-25.414 7.572zm47.605 29.988h-24.402c-13.457 0-20.167 5.547-20.167 14.993 0 9.447 7.235 15.294 17.843 15.294 9.901-.295 19.381-4.111 26.726-10.758zm-290.691 40.033-15.856-93.711-33.323 93.711h-9.596l-33.174-93.936-16.005 93.936h-13.307l20.916-117.775h12.969l33.474 97.946 33.323-97.946h12.97l20.916 117.813zm94.123-6.222c-9.383 5.33-20.021 8.061-30.812 7.909-26.239 0-42.919-18.517-42.919-45.469 0-25.414 16.68-45.431 39.883-45.431s37.034 17.993 37.034 40.558c0 3.187 0 6.41-.337 9.596h-63.723c1.986 17.843 13.457 29.463 31.112 29.463 8.85-.161 17.546-2.354 25.414-6.41zm-9.596-43.782v-.675c0-15.481-9.071-27.251-24.065-27.251-14.993 0-24.927 11.958-27.101 27.926zm102.82-71.52v121.336h-10.758l-1.2-8.884c-7.949 6.993-18.2 10.824-28.787 10.758-23.578 0-36.698-20.541-36.698-45.281 0-25.414 14.994-45.618 38.872-45.618 9.46-.014 18.673 3.053 26.239 8.734v-41.046zm-38.197 111.74c9.464-.3 18.523-3.94 25.565-10.27v-48.28c-6.576-5.915-15.038-9.315-23.878-9.596-17.692 0-28.3 14.469-28.3 34.336 0 18.667 9.258 33.81 26.614 33.81zm69.421-79.091v88.875h-12.632v-88.875zm-833.912 14.806c-1.349 7.759-3.373 16.343-4.535 21.366l-12.782 52.703h-29.988l-34.148-117.775h27.588l16.006 58.85c1.162 5.21 3.374 14.131 5.061 21.553l19.491-80.403h26.427l19.716 80.441c1.837-7.497 4.011-16.343 5.211-21.554l15.631-58.887h27.626l-33.736 117.813h-29.988l-13.044-52.741c-1.162-5.097-3.186-13.606-4.536-21.366zm240.611-14.806h21.854l1.687 9.258c3.822-3.625 8.266-6.533 13.119-8.584 4.772-1.874 9.867-2.791 14.994-2.699 8.234-.475 16.229 2.959 21.553 9.259 5.061 6.222 7.497 14.994 7.497 26.239v55.402h-25.077v-53.865c.318-4.095-.883-8.167-3.373-11.433-2.821-2.805-6.767-4.185-10.721-3.748-6.097.179-11.939 2.502-16.493 6.559v62.487h-25.039zm165.981 64.81 7.722 17.018c-10.446 6.337-22.497 9.539-34.711 9.221-26.239 0-44.981-19.529-44.981-46.631 0-25.939 17.355-46.293 42.92-46.293 24.589 0 39.883 17.356 39.883 43.595 0 3.373 0 7.909-.337 10.42h-57.726c2.212 12.295 10.458 18.18 24.252 18.18 7.98-.054 15.842-1.939 22.978-5.51zm-47.305-29.125h35.01v-.825c.038-4.615-1.571-9.095-4.535-12.632-3.062-3.339-7.429-5.187-11.958-5.061-4.621-.094-9.079 1.741-12.295 5.061-3.404 3.8-5.574 8.546-6.222 13.607zm-132.994-35.798c-1.081-.147-2.17-.222-3.261-.225-10.32.035-20.202 4.226-27.401 11.62l-1.687-11.245h-21.89v88.838h25.076v-60.762c6.226-3.827 13.384-5.876 20.692-5.923 2.838-.017 5.672.209 8.471.675zm258.642 22.978h.337l4.086-21.778-1.274-.413c-2.089-.504-4.225-.781-6.373-.824-10.332.028-20.228 4.22-27.438 11.62l-1.687-11.245h-21.891v88.65h25.077v-60.762c6.237-3.834 13.408-5.883 20.729-5.923 2.875-.016 5.747.21 8.584.675zm342.419-55.514c-4.442 0-8.097 3.655-8.097 8.096 0 4.442 3.655 8.097 8.097 8.097 4.441 0 8.096-3.655 8.096-8.097 0-4.441-3.655-8.096-8.096-8.096zm-708.003 30.624c-11.753.017-23.373 2.494-34.111 7.272l4.798 19.605c7.877-3.602 16.417-5.529 25.077-5.66 10.945 0 16.68 4.385 16.68 15.818v.825h-17.017c-24.74 0-36.023 9.933-36.023 27.963 0 16.156 11.62 27.251 29.126 27.251 9.951.043 19.544-3.76 26.763-10.608l1.537 8.434h20.504v-55.402c0-22.715-13.457-35.498-37.334-35.498zm12.444 68.484c-4.705 3.366-10.239 5.388-16.005 5.848-7.497 0-11.958-4.198-11.958-10.271 0-6.072 4.386-10.083 12.632-10.083h15.331z" fill="#1e1e1e" fill-rule="nonzero" transform="matrix(.500016 0 0 .500016 29.9915 169.069)"/></svg>