<?xml version="1.0" encoding="UTF-8" standalone="no"?>
<!DOCTYPE svg PUBLIC "-//W3C//DTD SVG 1.1//EN" "http://www.w3.org/Graphics/SVG/1.1/DTD/svg11.dtd">
<svg width="100%" height="100%" viewBox="0 0 560 400" version="1.1" xmlns="http://www.w3.org/2000/svg" xmlns:xlink="http://www.w3.org/1999/xlink" xml:space="preserve" xmlns:serif="http://www.serif.com/" style="fill-rule:evenodd;clip-rule:evenodd;stroke-linejoin:round;stroke-miterlimit:1.41421;">
    <g transform="matrix(0.376172,0,0,0.376172,91.9142,155)">
        <path d="M472.781,146.127L459.888,181.945C459.888,183.384 458.454,183.384 458.454,183.384L438.397,183.384C436.963,183.384 436.963,183.384 436.963,181.945C448.422,151.863 465.616,100.286 478.509,65.897C478.509,64.47 479.944,61.602 479.944,54.439C479.944,53.005 479.944,53.005 481.378,53.005L508.597,53.005C510.032,51.571 510.032,53.005 510.032,53.005C524.351,94.551 541.547,138.965 555.873,180.518C555.873,181.946 555.873,181.946 554.446,181.946L531.515,181.946C530.087,181.946 530.087,181.946 530.087,180.518L517.188,144.702L472.781,144.702L472.781,146.127ZM512.892,126.073C508.597,113.18 498.566,85.961 495.704,71.634C492.837,84.527 484.239,107.45 478.51,126.073L512.892,126.073ZM568.773,134.67C568.773,106.016 590.263,83.092 624.638,83.092C628.947,83.092 633.242,83.092 636.111,84.526L636.111,41.546C636.111,40.112 636.111,40.112 637.538,40.112L659.028,40.112C660.455,40.112 660.455,40.112 660.455,41.546L660.455,171.914C660.455,173.353 660.455,173.353 659.028,173.353C646.129,179.076 631.801,183.384 618.916,183.384C588.822,184.813 568.773,169.059 568.773,134.67ZM634.669,104.582C631.801,103.148 627.506,103.148 623.21,103.148C604.589,103.148 593.13,114.614 593.13,134.67C593.13,157.586 606.016,166.191 621.784,166.191C626.079,166.191 631.801,164.75 636.11,164.75L636.11,104.582L634.669,104.582ZM780.804,133.243C780.804,164.751 760.741,184.813 732.088,184.813C697.712,184.813 683.386,159.028 683.386,134.67C683.386,104.582 703.435,84.526 733.529,84.526C763.61,83.092 780.804,106.016 780.804,133.243ZM707.744,133.243C707.744,153.292 716.335,166.192 732.089,166.192C744.988,166.192 755.02,157.587 755.02,133.243C755.02,114.614 747.857,100.287 730.663,100.287C717.761,101.714 707.744,113.18 707.744,133.243ZM823.785,41.546C825.213,41.546 825.213,41.546 825.213,42.98L825.213,88.821C832.375,85.96 839.539,84.526 846.702,84.526C873.929,84.526 891.123,104.582 891.123,130.375C891.123,164.75 863.896,186.24 832.375,186.24C822.357,186.24 812.326,184.812 802.295,181.945C800.868,181.945 800.868,180.517 800.868,180.517L800.868,42.98C800.868,41.546 800.868,41.546 802.295,41.546L823.785,41.546ZM842.407,103.148C836.685,103.148 830.949,104.582 826.653,106.016L826.653,164.75C829.521,166.191 833.816,166.191 838.111,166.191C852.438,166.191 869.632,154.732 869.632,131.8C868.192,113.18 856.734,103.148 842.407,103.148ZM936.971,138.965C936.971,154.733 946.989,164.75 967.052,164.75C974.214,164.75 982.806,163.322 991.409,160.455C991.409,160.455 992.837,160.455 992.837,161.896L992.837,177.65C992.837,179.076 992.837,179.076 991.409,180.517C984.247,184.812 974.214,186.24 961.315,186.24C925.498,186.24 911.17,161.896 911.17,136.095C911.17,107.449 928.365,84.525 958.46,84.525C988.541,84.525 999.998,107.449 999.998,126.071C999.998,134.669 998.572,138.964 998.572,138.964L936.971,138.964L936.971,138.965ZM968.478,123.204C975.642,123.204 977.083,121.778 977.083,121.778L977.083,118.909C977.083,113.18 972.788,100.287 957.02,100.287C944.134,100.287 936.971,110.311 935.531,123.204L968.478,123.204Z" style="fill:rgb(45,46,45);fill-rule:nonzero;"/>
        <path d="M170.486,0L270.773,239.252L270.773,0L170.486,0ZM0,0L0,239.252L100.287,0L0,0ZM91.689,190.549L137.538,190.549L157.594,239.252L199.14,239.252L134.67,87.387L91.689,190.549Z" style="fill:rgb(237,34,36);fill-rule:nonzero;"/>
    </g>
</svg>
