<svg clip-rule="evenodd" fill-rule="evenodd" stroke-linejoin="round" stroke-miterlimit="1.41421" viewBox="0 0 560 400" xmlns="http://www.w3.org/2000/svg"><g fill-rule="nonzero" transform="matrix(2.01168 0 0 2.01168 157.751 99.351)"><path d="m58.468 83.284c1.543-1.79 3.573-3.04 5.508-4.357-.832 3.085-1.754 6.182-1.886 9.4l-.036.277c-2.076-.036-4.2.298-6.24-.178.696-1.798 1.383-3.657 2.654-5.143zm-26.083-55.875c9.556-3.537 19.546-5.965 29.696-6.95 8.929-.808 18.11-.579 26.747 2.03 1.666.534 3.347 1.091 4.863 1.983-1.35.4-2.808.879-3.67 2.072-1.03 1.392-.599 3.378.326 4.706.298.5.804.003 1.147-.169 1.184-.756 2.335-1.979 3.872-1.75.238.253.385.579.153.895-.461 1.238-1.967 1.078-2.961 1.579-.997.379-1.85 1.684-1.13 2.663 1.106 1.816 1.067 4.227-.153 5.98-1.886 2.769-5.014 4.329-8.035 5.553-2.067.747-4.194 1.741-6.451 1.473-1.286-.121-2.298-1.26-2.425-2.519-.262-1.97.383-3.95 1.247-5.7.142-.404.476-.804.347-1.25-1.133-.723-2.501-.1-3.573.425-2.868 1.608-4.848 4.386-6.408 7.206-1.172 2.085-1.684 4.444-2.639 6.622-1.19 2.657-3.775 4.281-6.27 5.561-4.043 1.971-9.059 2.435-13.139.311-2.681-1.356-4.588-3.82-5.932-6.447-.37-.717-1.184-.015-1.141.575-.16 3.148-.922 6.366-.133 9.487.684 1.943 1.606 3.844 2.937 5.429 1.48 1.787 3.76 2.772 6.053 2.88 2.085.073 4.387.094 6.143-1.208 2.23-1.575 4.076-3.654 6.465-5.016 3.387-2.088 7.559-2.54 11.428-1.895.439.096 1.048.22 1.114.768-.843 1.121-2.401.982-3.63 1.266-4.908 1.003-9.201 3.832-13.051 6.92-5.212 4.314-9.819 9.354-13.786 14.826.054.105.165.316.22.422.991.662 2.226.723 3.368.928-1.717-.037-3.329-.654-4.896-1.293-7.122-2.302-13.865-5.95-19.39-11.03.015-.418.033-.837.055-1.256.506-4.45.656-8.996 2.051-13.292.431-1.681 1.293-3.284 1.223-5.059-.5.127-1.024.262-1.398.648-1.452 1.359-3.163 2.44-4.428 3.992-1.579 1.85-2.682 4.034-3.754 6.2-.154.271-.313.545-.473.817-.871-1.639-1.811-3.242-2.495-4.968.1-.311.202-.624.308-.931 3.046-8.526 7.501-16.636 13.608-23.361-4.862 2.63-9.354 5.953-13.286 9.842-1.154 1.133-2.133 2.422-3.275 3.564.07.829.154 1.657.323 2.474-.386-1.19-.398-2.447-.28-3.682-.013-3.157.469-6.302 1.331-9.339.148-.127.298-.253.449-.38 6.719-5.555 14.606-9.526 22.729-12.6" fill="#d4b67c"/><g transform="scale(.8)"><path d="m80.122 21.435c-13.313.343-26.472 2.975-39.25 6.609-7.569 2.245-15.07 4.889-22.07 8.572-2.301 3.355-4.528 6.816-5.974 10.634-.361.885-.79 1.785-.757 2.764 8.398-6.948 18.258-11.911 28.411-15.752 11.946-4.422 24.434-7.458 37.121-8.689 11.163-1.01 22.637-.723 33.433 2.539 2.082.666 4.185 1.363 6.079 2.478-1.687.501-3.511 1.099-4.588 2.59-1.288 1.74-.748 4.221.408 5.881.373.626 1.006.005 1.436-.21 1.48-.945 2.918-2.473 4.838-2.187.298.316.481.723.191 1.118-.576 1.548-2.458 1.348-3.701 1.973-1.247.474-2.311 2.106-1.411 3.33 1.382 2.271 1.332 5.284-.193 7.475-2.358 3.461-6.267 5.412-10.044 6.941-2.584.934-5.243 2.176-8.064 1.841-1.608-.151-2.872-1.575-3.03-3.149-.327-2.463.477-4.936 1.558-7.124.177-.505.596-1.005.434-1.563-1.416-.904-3.127-.125-4.467.53-3.585 2.011-6.06 5.484-8.01 9.009-1.465 2.606-2.105 5.553-3.299 8.276-1.487 3.322-4.719 5.353-7.837 6.953-5.054 2.463-11.324 3.043-16.423.388-3.352-1.694-5.735-4.775-7.415-8.059-.463-.896-1.481-.02-1.428.718-.2 3.935-1.153 7.959-.166 11.86.855 2.429 2.007 4.804 3.672 6.785 1.849 2.233 4.7 3.465 7.566 3.601 2.606.09 5.482.118 7.678-1.509 2.787-1.969 5.097-4.569 8.083-6.272 4.233-2.609 9.449-3.174 14.285-2.368.55.121 1.309.274 1.392.96-1.055 1.4-3 1.228-4.536 1.582-6.135 1.254-11.503 4.789-16.316 8.649-6.515 5.393-12.272 11.694-17.232 18.533.068.132.206.395.274.527 1.239.829 2.784.904 4.211 1.16 2.953.218 5.8 1.119 8.753 1.33 1.996.437 4.05-.077 6.035.372.87-2.249 1.728-4.572 3.318-6.429 1.928-2.237 4.467-3.798 6.884-5.444-1.039 3.856-2.192 7.728-2.358 11.75 3.25.034 6.472-.51 9.631-1.225 1.266-.301 2.61-.183 3.845-.628-.21.038-.636.117-.847.154-2.263-2.056-3.643-5.059-3.488-8.139.218-4.712 2.643-9.023 5.678-12.518 3.879-4.391 9.2-7.771 15.113-8.408 1.845-.301 3.797-.286 5.529-1.062 1.307-.58 1.511-2.122 1.951-3.315 1.634-4.798 3.159-9.637 4.861-14.411 1.258-1.477 2.874-2.713 3.725-4.524 3.077-5.951 2.856-13.006 1.617-19.416-.381-1.797.311-3.671-.22-5.437-.905-1.228-2.325-1.954-3.67-2.602-4.071-1.816-8.356-3.101-12.675-4.17-9.329-2.29-18.95-3.317-28.545-3.272zm12.016 6.485c-3.531-.081-7.055.479-10.522 1.106-4.817 1.005-10.088 3.446-11.865 8.398 9.211-4.176 19.721-5.042 29.607-3.159.222-1.07.459-2.254-.166-3.237-1.013-2.057-3.415-2.822-5.539-3.033-.505-.039-1.01-.064-1.514-.075zm-5.908 7.866c-.398.01-.798.061-1.191.158-1.311.321-2.903.655-3.618 1.924-.558 1.07.685 1.834 1.465 2.305 1.762 1.194 4.158 1.018 5.871-.176 1.149-.934 2.523.072 3.687.445-.663-2.745-3.426-4.726-6.214-4.656zm-35.405 1.772c-.958.019-1.907.154-2.827.469-1.819.719-2.409 2.779-2.722 4.526-.768 4.685-.836 9.511-.083 14.199.061.828.804 1.212 1.565 1.001.735-3.649 2.134-7.14 3.862-10.427 1.673-3.1 3.778-6.075 6.685-8.135-.079-.802-1.113-.847-1.711-1.062-1.549-.313-3.171-.603-4.768-.571zm-20.331 9.355c-6.078 3.288-11.691 7.443-16.606 12.305-1.442 1.416-2.667 3.028-4.094 4.455.087 1.036.192 2.071.403 3.091.633 3.262 1.517 6.459 2.597 9.6.174-.064.518-.189.691-.249 3.808-10.658 9.376-20.796 17.009-29.201zm5.996 2.588c-1.604 1.092-2.277 3.043-3.042 4.741-1.92 4.911-2.681 10.309-1.977 15.548.595 4.522 1.763 8.956 3.269 13.256 1.401 3.77 3.016 7.534 5.52 10.713 1.499 1.947 3.714 3.232 6.038 3.94 1.404.369 3.029.659 4.355-.117.874-.516 1.123-1.665.874-2.595-.463-1.929-1.679-3.572-2.91-5.086-2.527-2.949-4.746-6.155-6.648-9.541-4.512-7.991-6.823-17.327-5.867-26.501.109-1.454.498-2.889.388-4.358zm-7.705 19.416c-.625.158-1.281.329-1.748.811-1.815 1.698-3.953 3.05-5.534 4.99-1.974 2.312-3.352 5.044-4.693 7.751.053.652-.004 1.362.328 1.953 1.969 3.058 4.406 5.796 7.087 8.248l.466-.813c.633-5.563.823-11.246 2.566-16.617.539-2.101 1.615-4.105 1.528-6.323z"/><path d="m70.896.403c-2.867.471-5.783.435-8.653.865-16.867 2.052-33.407 8.801-46.022 20.336-.602.542-1.352.875-2.019 1.33.124.162.376.485.501.647 12.702-11.011 29.176-17.166 45.824-18.622 10.454-.859 21.074-.055 31.209 2.705 12.988 3.506 25.287 10.133 34.687 19.841 8.116 8.372 13.935 19.229 15.249 30.904 1.446 11.305-1.447 22.987-7.51 32.589-5.95 9.566-14.702 17.191-24.544 22.574-12.539 6.873-26.893 10.22-41.159 10.19-1.559.023-3.143-.19-4.683.149 2.896.776 5.931.571 8.899.767h5.915c3.518-.392 7.067-.588 10.562-1.187 8.236-1.325 16.308-3.72 23.86-7.282 11.256-5.292 21.452-13.2 28.562-23.482 5.939-8.518 9.485-18.734 9.707-29.147v-1.633c-.1-9.739-3.138-19.35-8.35-27.551-7.125-11.245-17.912-19.889-29.897-25.515-11.26-5.341-23.669-7.995-36.089-8.477h-6.042zm-3.394 10.532c-2.721-.011-5.44.109-8.142.345-14.958 1.363-29.72 6.98-41.108 16.897-10.296 8.854-17.416 21.842-17.607 35.588v.523c-.079 9.49 3.076 18.875 8.518 26.613 6.922 9.939 17.154 17.263 28.32 21.748 12.612 5.11 26.551 6.573 40.022 4.939 13.997-1.789 27.682-7.315 38.366-16.643 4.963-4.425 9.32-9.603 12.363-15.542.719-1.461 1.564-2.896 1.9-4.504-1.07.621-1.432 1.887-2.117 2.844-6.451 10.051-16.571 17.326-27.564 21.706-3.043 1.265-6.228 2.117-9.365 3.108-1.235.444-2.58.326-3.845.627-3.16.716-6.381 1.26-9.631 1.226l-.044.344c-2.595-.045-5.251.373-7.801-.222-1.984-.448-4.039.066-6.035-.371-2.952-.211-5.8-1.112-8.752-1.331-2.147-.045-4.162-.818-6.121-1.616-8.902-2.877-17.331-7.437-24.238-13.786.019-.524.042-1.047.068-1.57l-.466.813c-2.682-2.452-5.118-5.189-7.088-8.247-.331-.591-.274-1.302-.327-1.953-.192.339-.391.681-.59 1.02-1.089-2.048-2.266-4.053-3.121-6.211.125-.388.254-.78.386-1.164-.173.06-.518.185-.691.249-1.085-3.136-1.969-6.334-2.602-9.595-.482-1.488-.496-3.058-.349-4.603-.015-3.946.585-7.878 1.662-11.673.185-.159.374-.317.562-.474-.034-.979.395-1.879.757-2.764 1.446-3.818 3.673-7.279 5.974-10.634 5.329-7.058 12.581-12.538 20.493-16.416 14.868-7.257 32.153-9.101 48.328-5.918 1.31.192 2.61.855 3.947.498-7.731-2.624-15.903-3.813-24.067-3.845z" fill="#004d44"/><path d="m68.388 4.632c-2.624.002-5.247.112-7.861.327-16.649 1.457-33.122 7.611-45.825 18.622-.124-.162-.376-.485-.5-.647-.456.155-.786.513-1.072.882-6.809 9.03-10.968 19.981-12.109 31.218-.094.9-.218 1.793-.376 2.686v6.044c.191-13.744 7.311-26.733 17.607-35.587 11.388-9.916 26.15-15.533 41.107-16.897 10.808-.942 21.903.002 32.21 3.501-1.337.358-2.637-.306-3.948-.498-16.175-3.182-33.459-1.339-48.327 5.918-7.912 3.879-15.163 9.358-20.493 16.416 7-3.683 14.501-6.327 22.069-8.572 12.778-3.634 25.938-6.266 39.25-6.609 9.596-.045 19.216.982 28.545 3.272 4.319 1.069 8.605 2.355 12.676 4.17 1.345.647 2.765 1.375 3.665 2.602.531 1.766-.161 3.641.219 5.437 1.239 6.41 1.461 13.466-1.616 19.416-.851 1.812-2.468 3.048-3.726 4.524-1.702 4.775-3.226 9.614-4.86 14.411-.441 1.194-.644 2.736-1.951 3.316-1.732.775-3.684.76-5.53 1.062-5.912.636-11.233 4.017-15.112 8.408-3.035 3.494-5.46 7.806-5.679 12.517-.154 3.081 1.226 6.084 3.489 8.14.211-.038.636-.116.847-.154 3.137-.991 6.322-1.843 9.365-3.108 10.993-4.38 21.113-11.655 27.564-21.706.685-.957 1.047-2.223 2.117-2.844-.336 1.608-1.181 3.043-1.9 4.504-3.043 5.939-7.399 11.117-12.363 15.542-10.684 9.329-24.369 14.854-38.366 16.643-13.471 1.634-27.41.171-40.022-4.939-11.163-4.489-21.395-11.814-28.317-21.751-5.442-7.74-8.597-17.124-8.518-26.614v7.732c.58 2.196.9 4.452 1.574 6.621 3.375 11.667 10.943 21.854 20.438 29.306 11.716 9.298 26.181 14.709 40.924 16.731h9.095c-2.968-.196-6.003.009-8.899-.766 1.54-.339 3.123-.127 4.682-.149 14.265.03 28.619-3.318 41.16-10.191 9.84-5.381 18.594-13.007 24.544-22.573 6.063-9.603 8.955-21.285 7.509-32.59-1.312-11.675-7.137-22.532-15.25-30.903-9.401-9.709-21.699-16.335-34.688-19.841-7.601-2.071-15.475-3.04-23.347-3.033zm45.3 55.442c-3.241.087-6.45.992-9.207 2.729-1.19 4.463-2.398 8.922-3.52 13.404 1.371-.121 2.741-.304 4.048-.752 1.254-1.864 2.566-3.699 4.05-5.386-.369 1.921-1.391 3.619-2.073 5.43 1.755-.346 3.657-.61 5.171-1.611 1.646-4.519 3.292-9.049 4.768-13.628-1.072-.152-2.157-.214-3.237-.185z" fill="#fff"/></g></g></svg>