<?xml version="1.0" encoding="UTF-8" standalone="no"?>
<!DOCTYPE svg PUBLIC "-//W3C//DTD SVG 1.1//EN" "http://www.w3.org/Graphics/SVG/1.1/DTD/svg11.dtd">
<svg width="100%" height="100%" viewBox="0 0 560 400" version="1.1" xmlns="http://www.w3.org/2000/svg" xmlns:xlink="http://www.w3.org/1999/xlink" xml:space="preserve" xmlns:serif="http://www.serif.com/" style="fill-rule:evenodd;clip-rule:evenodd;stroke-linejoin:round;stroke-miterlimit:1.41421;">
    <g transform="matrix(1.01035,0,0,1.01035,180,67.6641)">
        <path d="M64.467,224.04C64.467,221.4 65.187,219.6 66.867,218.52C67.781,217.883 68.872,217.547 69.987,217.56C70.956,217.534 71.914,217.783 72.747,218.28C73.494,218.712 74.115,219.333 74.547,220.08C75.387,221.76 75.627,223.92 75.627,227.52L75.627,249.96C75.507,252.36 75.387,255 73.227,256.56C72.352,257.285 71.243,257.669 70.107,257.64C67.942,257.768 65.918,256.515 65.067,254.52C64.643,252.876 64.481,251.175 64.587,249.48L64.467,224.04ZM76.467,215.16C74.589,213.908 72.363,213.278 70.107,213.36L69.867,213.36C65.427,213.36 61.827,215.64 60.627,219.36C60.164,220.923 59.882,222.533 59.787,224.16L59.787,250.8C59.907,253.32 60.027,256.2 62.067,258.84C64.347,261.6 68.187,261.96 69.747,261.96C75.387,261.96 77.667,258.96 78.387,257.64C79.707,255.6 79.827,253.56 79.947,251.16L79.947,225.84C80.067,222.12 80.067,217.8 76.467,215.16Z" style="fill-rule:nonzero;"/>
        <path d="M87.387,224.04C87.387,221.4 88.107,219.6 89.667,218.52C90.6,217.936 91.687,217.644 92.787,217.68C93.8,217.596 94.813,217.849 95.667,218.4C96.414,218.832 97.035,219.453 97.467,220.2C98.307,221.76 98.427,224.04 98.427,227.64L98.427,249.96C98.427,252.48 98.307,255.12 96.147,256.68C95.259,257.369 94.149,257.71 93.027,257.64C90.863,257.776 88.819,256.588 87.867,254.64C87.443,252.996 87.281,251.295 87.387,249.6L87.387,224.04ZM99.267,215.16C97.433,213.908 95.246,213.277 93.027,213.36L92.787,213.36C88.227,213.36 84.747,215.64 83.427,219.36C82.995,220.925 82.753,222.537 82.707,224.16L82.707,250.8C82.827,253.44 82.827,256.32 84.867,258.96C87.267,261.72 90.987,261.96 92.667,261.96C98.187,261.96 100.587,258.96 101.307,257.64C102.627,255.6 102.747,253.56 102.867,251.28L102.867,225.84C102.867,222.12 102.867,217.8 99.267,215.16Z" style="fill-rule:nonzero;"/>
        <path d="M16.587,261.6C16.107,261.6 15.867,261.24 15.867,260.76L15.867,214.8C15.845,214.375 16.164,214.003 16.587,213.96L25.947,213.96C28.144,213.83 30.292,214.663 31.827,216.24C33.267,217.8 33.387,219.96 33.507,221.88L33.507,228.84C33.536,229.931 33.414,231.021 33.147,232.08C32.68,233.572 31.645,234.822 30.267,235.56C31.145,235.839 31.961,236.288 32.667,236.88L32.667,236.88C35.187,238.92 35.187,241.8 35.187,244.44L35.187,252.36C35.187,255 34.827,257.4 32.667,259.44C30.846,260.93 28.538,261.699 26.187,261.6L16.587,261.6ZM181.467,213.84L181.478,213.84C181.808,213.84 182.079,214.111 182.079,214.441C182.079,214.481 182.075,214.521 182.067,214.56L182.067,260.64C182.028,261.065 181.653,261.387 181.227,261.36L176.427,261.36C176.102,261.402 175.793,261.196 175.707,260.88L166.467,223.56L166.467,228L166.707,260.64C166.707,260.88 166.587,261 166.467,261.24C166.347,261.36 166.227,261.36 165.987,261.36L162.867,261.36C162.857,261.36 162.848,261.361 162.838,261.361C162.459,261.361 162.146,261.048 162.146,260.669C162.146,260.659 162.147,260.65 162.147,260.64L162.147,214.56C162.173,214.176 162.482,213.866 162.867,213.84L167.667,213.84C167.988,213.861 168.246,214.119 168.267,214.44L177.867,252.48L177.867,250.92C177.867,249.96 177.747,249.12 177.747,248.16L177.507,214.56C177.537,214.38 177.621,214.212 177.747,214.08C177.862,213.932 178.039,213.844 178.227,213.84L181.467,213.84ZM160.227,213.84C160.536,213.876 160.828,214.001 161.067,214.2C161.187,214.382 161.187,214.618 161.067,214.8L151.707,240.36L151.707,260.64C151.707,260.65 151.708,260.659 151.708,260.669C151.708,261.048 151.395,261.361 151.016,261.361C151.006,261.361 150.997,261.36 150.987,261.36L147.867,261.36C147.442,261.382 147.07,261.063 147.027,260.64L147.027,240.36L138.027,214.8C138.008,214.593 138.05,214.384 138.147,214.2C138.261,213.975 138.495,213.835 138.747,213.84L142.107,213.84C142.432,213.798 142.741,214.004 142.827,214.32L149.427,234L156.027,214.32C156.154,214.035 156.435,213.848 156.747,213.84L160.227,213.84ZM47.427,213.84C49.827,213.96 52.227,213.96 54.387,215.64C57.027,217.8 57.027,220.92 57.147,222.24L57.147,229.8C57.169,230.851 57.048,231.901 56.787,232.92C56.169,235.368 54.365,237.352 51.987,238.2C51.627,238.32 51.387,238.44 51.027,238.56L59.067,260.16C59.187,260.28 59.187,260.4 59.187,260.64C59.161,261.024 58.852,261.334 58.467,261.36L55.107,261.36C54.79,261.37 54.5,261.176 54.387,260.88L46.227,238.92L42.387,238.92L42.387,260.64C42.387,260.65 42.388,260.659 42.388,260.669C42.388,261.048 42.075,261.361 41.696,261.361C41.686,261.361 41.677,261.36 41.667,261.36L38.427,261.36C38.067,261.322 37.799,261.001 37.827,260.64L37.827,214.56C37.799,214.199 38.067,213.878 38.427,213.84L47.427,213.84ZM131.067,213.84C131.452,213.866 131.761,214.176 131.787,214.56L131.787,257.04L143.067,257.04C143.452,257.066 143.761,257.376 143.787,257.76L143.787,260.64C143.761,261.024 143.452,261.334 143.067,261.36L127.827,261.36C127.443,261.334 127.133,261.024 127.107,260.64L127.107,214.56C127.133,214.176 127.442,213.866 127.827,213.84L131.067,213.84ZM109.347,213.48C109.357,213.48 109.366,213.479 109.376,213.479C109.755,213.479 110.068,213.792 110.068,214.171C110.068,214.181 110.067,214.19 110.067,214.2L110.067,233.76L120.267,213.96C120.381,213.735 120.615,213.595 120.867,213.6L124.467,213.6C124.719,213.595 124.952,213.735 125.067,213.96C125.187,214.142 125.187,214.378 125.067,214.56L115.467,232.68L125.187,259.8C125.187,259.92 125.307,260.04 125.307,260.16C125.329,260.585 125.01,260.957 124.587,261L121.107,261C120.806,260.959 120.54,260.782 120.387,260.52L112.587,238.2L110.067,243L110.067,260.28C110.028,260.705 109.653,261.027 109.227,261L106.107,261C106.097,261 106.088,261.001 106.078,261.001C105.699,261.001 105.386,260.688 105.386,260.309C105.386,260.299 105.387,260.29 105.387,260.28L105.387,214.2C105.413,213.816 105.722,213.506 106.107,213.48L109.347,213.48ZM23.067,237.96L20.547,237.96L20.547,257.16L25.227,257.16C27.507,257.04 28.347,256.8 29.067,256.2C30.267,255.24 30.507,253.8 30.507,250.68L30.507,244.2C30.506,243.189 30.385,242.182 30.147,241.2C29.067,238.44 26.307,238.08 23.067,237.96ZM42.387,218.04L42.387,234.84L47.547,234.84C48.412,234.871 49.274,234.707 50.067,234.36C52.347,233.64 52.347,231.6 52.347,230.64L52.347,223.44C52.227,221.52 52.227,219.48 50.667,218.64C49.73,218.201 48.701,217.995 47.667,218.04L42.387,218.04ZM24.027,218.04L20.427,218.04L20.427,233.76L22.827,233.76C23.838,233.763 24.845,233.642 25.827,233.4C28.827,232.44 28.947,229.8 28.947,228.36L28.947,228.36L28.947,222.36C28.883,221.553 28.762,220.751 28.587,219.96C27.987,218.16 25.947,218.16 24.027,218.04Z" style="fill-rule:nonzero;"/>
        <path d="M197.907,27.36L197.907,21.6L195.627,20.4C193.947,19.56 154.707,0 100.227,0L97.707,0C43.227,0 3.987,19.56 2.427,20.4L0.027,21.6L0.027,27.24C-0.333,50.4 2.427,109.32 38.427,155.04C67.587,192.24 95.067,200.76 98.067,201.6L99.267,201.96L100.467,201.72C101.667,201.36 129.627,193.2 159.627,155.16C195.507,109.44 198.387,50.52 197.907,27.36Z" style="fill-rule:nonzero;"/>
        <path d="M99.267,195.84C96.987,195.24 71.067,187.2 42.987,151.56C6.147,104.64 6.027,43.32 6.267,28.8L6.267,25.68C6.268,25.68 6.269,25.68 6.269,25.68C6.334,25.68 6.387,25.627 6.387,25.562C6.387,25.562 6.387,25.561 6.387,25.56L6.387,25.44L7.227,25.08C9.267,24.24 13.587,22.32 19.947,20.04C44.944,10.932 71.342,6.262 97.947,6.24L100.467,6.24C126.952,6.291 153.226,10.962 178.107,20.04C184.467,22.32 188.907,24.24 190.827,25.08L191.667,25.44L191.667,25.56L191.787,25.68L191.787,28.8C192.147,43.32 192.027,104.64 155.067,151.56C126.987,187.2 101.427,195.24 99.267,195.84ZM156.867,153.12C192.147,108.36 194.907,50.64 194.427,27.96L194.427,23.76L193.707,23.4C192.147,22.56 153.627,3.48 100.227,3.48L97.587,3.48C44.187,3.48 5.787,22.56 4.107,23.4L3.387,23.76L3.387,27.72C2.907,50.52 5.667,108.24 40.947,153C69.387,189.24 95.787,197.64 98.787,198.36L99.147,198.48L99.507,198.36C100.827,198.12 127.587,190.2 156.867,153.12Z" style="fill:white;fill-rule:nonzero;"/>
        <path d="M167.187,54.6C154.107,41.04 152.667,38.88 152.667,33.24C152.667,27.72 155.067,27 157.467,27C158.972,27.041 160.466,27.283 161.907,27.72C171.387,30.48 171.387,35.64 171.387,39.48L171.387,45C171.387,45.408 171.621,45.781 171.987,45.96C174.387,46.68 175.467,47.16 177.867,48C178.169,48.209 178.585,48.157 178.827,47.88C179.135,47.716 179.322,47.389 179.307,47.04L179.307,42.48C179.307,36.72 179.307,27 162.387,22.08C150.507,18.72 144.387,22.32 144.387,32.64C144.387,41.16 149.667,46.2 158.427,54.72L160.107,56.4C170.427,66.6 172.467,69.84 172.467,76.2C172.467,78.6 172.107,80.16 171.387,81.12C170.667,82.2 169.587,82.56 167.787,82.56C166.036,82.52 164.3,82.237 162.627,81.72C158.067,80.4 154.827,78.6 152.787,76.44C150.387,73.8 150.387,71.52 150.387,66.96L150.387,62.16C150.387,61.68 150.147,61.2 149.667,61.2C147.027,60.6 145.827,60.36 143.427,59.88C143.125,59.786 142.794,59.88 142.587,60.12C142.396,60.364 142.272,60.654 142.227,60.96L142.227,69.6C142.227,77.64 148.947,83.88 161.427,87.48C164.415,88.447 167.527,88.973 170.667,89.04C180.387,89.04 180.387,81 180.387,77.64C180.507,68.76 175.947,63.6 167.187,54.6ZM140.787,17.76C128.272,15.486 115.586,14.282 102.867,14.16C102.8,14.144 102.732,14.137 102.663,14.137C102.17,14.137 101.764,14.543 101.764,15.036C101.764,15.105 101.771,15.173 101.787,15.24L101.787,19.08C101.826,19.657 102.29,20.121 102.867,20.16C108.747,20.16 111.867,20.4 117.507,20.76L117.507,77.64C117.489,78.195 117.914,78.672 118.467,78.72C120.987,78.96 122.187,78.96 124.707,79.32L124.827,79.32C125.079,79.325 125.312,79.185 125.427,78.96C125.681,78.815 125.823,78.53 125.787,78.24L125.787,21.6C131.427,22.2 134.667,22.68 140.547,23.76C140.848,23.794 141.15,23.708 141.387,23.52C141.624,23.306 141.756,22.999 141.747,22.68L141.747,18.84C141.639,18.337 141.274,17.926 140.787,17.76L140.787,17.76ZM96.507,14.28C85.808,14.4 75.135,15.363 64.587,17.16C64.582,17.16 64.578,17.16 64.573,17.16C64.054,17.16 63.627,17.587 63.627,18.106C63.627,18.111 63.627,18.115 63.627,18.12L63.627,79.8C63.672,80.071 63.797,80.322 63.987,80.52C64.206,80.653 64.452,80.735 64.707,80.76L64.827,80.76C75.264,79.062 85.813,78.139 96.387,78C96.938,77.949 97.361,77.473 97.347,76.92L97.347,73.08C97.329,72.801 97.199,72.542 96.987,72.36C96.842,72.106 96.557,71.964 96.267,72C88.078,72.104 79.903,72.705 71.787,73.8L71.787,49.44C78.431,48.508 85.121,47.947 91.827,47.76C91.854,47.762 91.881,47.764 91.908,47.764C92.392,47.764 92.791,47.365 92.791,46.88C92.791,46.854 92.789,46.827 92.787,46.8L92.787,42.96C92.762,42.705 92.68,42.459 92.547,42.24C92.356,42.056 92.091,41.967 91.827,42C85.123,42.148 78.433,42.669 71.787,43.56L71.787,21.96C79.938,20.81 88.156,20.209 96.387,20.16C96.42,20.163 96.454,20.165 96.487,20.165C97.019,20.165 97.459,19.732 97.467,19.2L97.467,15.36C97.503,15.07 97.361,14.785 97.107,14.64C96.992,14.415 96.759,14.275 96.507,14.28L96.507,14.28ZM55.587,18.72C53.187,19.2 51.987,19.44 49.587,20.04C49.099,20.086 48.728,20.511 48.747,21L49.227,65.76C49.227,68.76 49.347,71.52 49.467,74.04C43.467,58.44 37.107,42.36 30.627,26.16C30.424,25.7 29.917,25.446 29.427,25.56C25.827,26.76 24.027,27.36 20.547,28.8C20.13,28.936 19.841,29.321 19.827,29.76L19.827,91.44C19.835,91.752 20.022,92.033 20.307,92.16C20.427,92.4 20.667,92.4 20.907,92.4C21.039,92.416 21.171,92.372 21.267,92.28C23.427,91.44 24.627,91.08 26.787,90.24C27.231,90.145 27.541,89.733 27.507,89.28C27.387,74.76 27.387,60.12 27.267,45.6C27.267,41.76 27.267,39.6 27.147,36.84C33.387,53.04 39.627,68.76 45.507,83.76C45.611,84.151 45.968,84.425 46.373,84.425C46.487,84.425 46.601,84.403 46.707,84.36C50.427,83.52 52.347,83.04 56.067,82.32C56.536,82.237 56.887,81.836 56.907,81.36L56.907,19.68C56.893,19.366 56.765,19.067 56.547,18.84C56.253,18.683 55.911,18.64 55.587,18.72L55.587,18.72Z" style="fill:white;fill-rule:nonzero;"/>
        <path d="M133.587,158.28C132.987,158.76 132.387,159.12 131.667,159.6C129.987,160.8 128.187,161.76 126.507,162.84C125.694,163.403 124.853,163.924 123.987,164.4C117.867,168.24 110.427,172.44 102.627,174.84C100.5,175.489 98.336,176.01 96.147,176.4C94.326,176.733 92.478,176.894 90.627,176.88L90.267,176.88C88.014,176.864 85.767,176.664 83.547,176.28C92.078,179.246 101.283,179.704 110.067,177.6C115.144,176.338 119.972,174.228 124.347,171.36C128.625,167.882 131.898,163.325 133.827,158.16C133.707,158.16 133.587,158.16 133.587,158.28ZM91.827,174.6C96.856,174.005 101.736,172.5 106.227,170.16C106.985,169.832 107.708,169.43 108.387,168.96C108.987,168.72 109.587,168.36 110.187,168.12C114.387,165.96 118.827,163.56 124.227,160.56C126.267,159.6 128.067,158.52 129.987,157.44L132.147,156.24C132.987,155.76 133.827,155.4 134.547,154.92C134.667,154.8 134.667,154.8 134.787,154.8C135.519,152.09 136.001,149.318 136.227,146.52C130.827,149.16 122.787,151.56 111.027,153.96C96.027,156.96 81.267,155.64 68.067,150C59.187,146.28 54.987,141.12 53.307,138.36C53.54,140.381 53.901,142.385 54.387,144.36C57.261,155.406 64.097,165.019 73.587,171.36L73.587,171.24L74.787,171.96C76.045,172.656 77.372,173.219 78.747,173.64C81.565,174.4 84.468,174.803 87.387,174.84C88.827,174.84 90.267,174.72 91.827,174.6L91.827,174.6ZM138.867,155.16C138.747,155.04 138.747,155.04 138.627,155.04C138.243,155.068 137.871,155.192 137.547,155.4C137.427,155.52 137.307,155.64 137.187,155.64C137.067,155.76 136.947,155.76 136.827,155.88C135.71,158.895 134.218,161.757 132.387,164.4C134.963,161.739 137.182,158.754 138.987,155.52L138.867,155.52L138.867,155.16ZM140.667,143.76C140.427,144 140.307,144 140.187,144.24C139.929,144.372 139.688,144.533 139.467,144.72C139.209,147.611 138.646,150.467 137.787,153.24C139.227,152.76 139.827,153.36 139.947,153.72C139.947,153.84 139.947,153.84 140.067,153.84C142.482,149.157 144.027,144.075 144.627,138.84C143.777,140.808 142.408,142.509 140.667,143.76L140.667,143.76ZM139.467,141.36C139.587,141.24 139.707,141.24 139.827,141.12C142.302,139.181 144.073,136.482 144.867,133.44C144.869,129.713 144.385,126.002 143.427,122.4C143.423,122.212 143.335,122.036 143.187,121.92C142.738,125.533 140.988,128.862 138.267,131.28C139.08,134.578 139.483,137.963 139.467,141.36L139.467,141.36ZM70.707,146.88C81.627,150.48 87.627,151.56 95.547,151.56C98.427,151.56 101.787,151.44 105.867,151.08C117.507,150.12 129.747,146.28 136.347,143.04C136.325,139.817 136.003,136.603 135.387,133.44C133.319,134.653 130.942,135.237 128.547,135.12C125.787,135.12 122.547,134.64 117.147,133.32C110.787,131.76 101.787,126.36 93.747,121.68C89.427,119.04 85.227,116.64 81.867,114.96C68.787,108.48 61.347,109.44 59.427,109.8C54.684,117.708 52.465,126.878 53.067,136.08C54.027,137.28 58.467,142.8 70.707,146.88L70.707,146.88ZM77.427,109.56C83.007,112.034 88.455,114.798 93.747,117.84C103.467,123 113.427,128.4 120.267,130.08C126.267,131.64 131.187,131.4 134.667,129.72L134.667,129.48C134.547,129.24 134.547,129 134.427,128.76C131.547,116.4 116.067,89.28 89.187,89.28C88.107,89.28 87.027,89.4 85.827,89.4C75.798,92.246 67.06,98.482 61.107,107.04C62.395,106.668 63.726,106.466 65.067,106.44C68.547,106.56 72.627,107.64 77.427,109.56L77.427,109.56ZM137.427,127.8C138.03,127.057 138.553,126.253 138.987,125.4C142.227,119.16 139.467,112.2 138.147,109.8C128.976,94.791 111.977,86.292 94.467,87.96C112.827,88.92 130.587,105.36 137.427,127.8L137.427,127.8Z" style="fill:white;fill-rule:nonzero;"/>
        <path d="M117.027,142.56C117.027,139.2 117.027,134.28 113.067,130.44C113.547,129.7 113.911,128.89 114.147,128.04C114.704,126.214 114.948,124.307 114.867,122.4L114.867,113.04C114.747,109.56 114.267,105.96 111.387,102.84C108.867,99.96 105.027,98.4 100.467,98.4L87.987,98.4C86.594,98.429 85.264,98.987 84.267,99.96C83.33,100.922 82.812,102.217 82.827,103.56L82.947,164.04C82.907,165.868 83.877,167.577 85.467,168.48C86.292,169.008 87.247,169.299 88.227,169.32L100.947,169.32C105.107,169.468 109.175,168.055 112.347,165.36L112.467,165.36C116.667,161.64 117.027,157.2 117.147,153L117.147,152.88L117.027,142.56Z" style="fill:white;fill-rule:nonzero;"/>
        <path d="M100.227,127.68C99.267,128.04 98.667,128.04 96.387,128.16L93.987,128.16C93.627,128.16 93.507,128.04 93.507,127.68L93.507,108.24C93.506,108.226 93.505,108.212 93.505,108.198C93.505,107.956 93.703,107.758 93.944,107.758C93.959,107.758 93.973,107.759 93.987,107.76L97.827,107.76C99.51,107.645 101.197,107.933 102.747,108.6C103.268,108.935 103.651,109.446 103.827,110.04C104.132,111.094 104.293,112.183 104.307,113.28L104.307,121.44C104.187,123.24 104.067,126.48 100.227,127.68ZM104.667,159C103.707,159.72 102.507,160.08 99.627,160.2L94.227,160.2C93.867,160.162 93.599,159.841 93.627,159.48L93.627,135.36C93.627,135.24 93.627,135 93.987,135L96.507,135C99.147,135.12 101.907,135.24 103.707,136.44C104.735,137.07 105.502,138.051 105.867,139.2C106.211,140.45 106.372,141.744 106.347,143.04L106.347,151.92C106.467,155.88 106.227,157.8 104.667,159L104.667,159ZM113.787,143.04C113.787,139.56 113.787,135.48 110.307,132.6C109.516,131.942 108.625,131.415 107.667,131.04C109.276,129.95 110.462,128.339 111.027,126.48C111.472,125.002 111.674,123.462 111.627,121.92L111.627,112.32C111.507,109.68 111.267,106.56 108.987,104.16C107.187,102.12 104.187,101.04 100.587,101.04L87.507,101.04C87.096,101.041 86.704,101.216 86.427,101.52C86.185,101.827 86.057,102.209 86.067,102.6L86.067,165.6C86.107,166.123 86.369,166.604 86.787,166.92C87.042,167.07 87.331,167.153 87.627,167.16L100.827,167.16C104.222,167.293 107.551,166.184 110.187,164.04C113.307,161.16 113.667,157.8 113.787,153.96L113.787,143.04Z" style="fill-rule:nonzero;"/>
    </g>
</svg>
