<?xml version="1.0" encoding="UTF-8" standalone="no"?>
<!DOCTYPE svg PUBLIC "-//W3C//DTD SVG 1.1//EN" "http://www.w3.org/Graphics/SVG/1.1/DTD/svg11.dtd">
<svg width="100%" height="100%" viewBox="0 0 560 400" version="1.1" xmlns="http://www.w3.org/2000/svg" xmlns:xlink="http://www.w3.org/1999/xlink" xml:space="preserve" xmlns:serif="http://www.serif.com/" style="fill-rule:evenodd;clip-rule:evenodd;stroke-linejoin:round;stroke-miterlimit:1.41421;">
    <g transform="matrix(1.81452,0,0,-1.81452,-275.315,918.733)">
        <rect x="206.84" y="351.65" width="198.4" height="88.904" style="fill:rgb(204,0,0);fill-rule:nonzero;"/>
        <g transform="matrix(0.8,0,0,-0.8,205.9,441.21)">
            <path d="M5.203,4.898L5.203,107.878L245.103,107.878L245.103,4.898L5.203,4.897L5.203,4.898ZM6.895,6.59L243.404,6.59L243.404,106.17L6.894,106.17L6.899,6.59L6.895,6.59ZM73.248,22.195C63.086,22.213 55.776,28.941 55.759,38.449C55.759,47.399 63.658,53.403 73.01,53.42C82.275,53.402 90.006,46.632 90.024,36.977C90.021,28.36 82.271,22.211 73.249,22.195ZM105.131,22.195C100.241,22.203 96.576,25.174 96.572,29.186C96.622,37.609 111.89,39.717 111.821,46.432C111.821,50.114 108.521,51.935 105.37,51.939C101.7,51.938 98.42,49.505 97.431,45.316L97.412,45.24L96.321,45.24L97.345,52.658L98.292,52.658L98.321,52.615C98.498,52.352 98.799,52.135 99.188,52.135C99.799,52.129 103.16,53.418 105.79,53.42C111.39,53.411 115.581,49.919 115.581,45.197C115.54,36.346 100.261,34.517 100.331,27.902C100.331,25.302 102.451,23.54 105.561,23.533C108.791,23.533 111.801,25.691 113.111,29.078L113.141,29.139L114.121,29.139L113.291,22.91L112.391,22.91L112.371,22.947C112.081,23.318 111.951,23.379 111.591,23.387C109.991,23.394 109.141,22.197 105.131,22.195ZM170.63,22.195C160.47,22.213 153.16,28.941 153.14,38.449C153.15,47.399 161.04,53.403 170.4,53.42C179.66,53.402 187.39,46.632 187.41,36.977C187.41,28.36 179.66,22.211 170.63,22.195ZM121.24,22.197L120.46,30.088L121.51,30.088L121.52,30.008C122.24,25.821 123.05,24.822 124.89,24.814L133.061,24.814L133.061,48.189C133.031,50.731 132.281,51.535 129.4,51.561L127.551,51.561L127.551,52.658L142.711,52.658L142.711,51.561L140.861,51.561C137.971,51.535 137.221,50.731 137.201,48.189L137.201,24.814L145.371,24.816C147.211,24.821 148.01,25.821 148.741,30.008L148.75,30.088L149.801,30.088L149.021,22.197L147.951,22.197L147.931,22.277C147.871,22.754 147.22,22.913 146.561,22.91L123.7,22.908C123.381,22.909 123.06,22.864 122.79,22.771C122.521,22.683 122.37,22.525 122.331,22.277L122.311,22.197L121.241,22.197ZM35.297,22.48C34.392,22.48 30.783,22.53 28.166,22.625C26.786,22.672 23.508,22.862 22.18,22.91L22.086,22.912L22.086,24.01L23.848,24.01C27.133,24.037 27.38,25.33 27.408,28.043L27.408,47.762C27.378,50.736 26.738,51.529 22.85,51.561L21.658,51.561L21.658,52.658L39.146,52.658C46.848,52.651 49.496,47.329 49.508,43.533C49.508,39.83 46.922,36.922 42.545,35.564L42.545,35.562C45.663,34.917 47.842,32.413 47.844,29.707C47.848,27.398 46.87,25.74 44.904,24.352C43.155,23.092 39.488,22.484 35.297,22.48ZM192.198,22.908L192.198,24.006L192.288,24.01C193.918,24.057 195.118,24.423 196.188,25.152L196.188,48.479C196.168,50.626 195.318,51.54 192.387,51.562L192.098,51.562L192.098,52.658L203.318,52.658L203.318,51.66L203.318,51.658L203.318,51.561L203.218,51.561C199.188,51.526 198.558,50.928 198.518,47.525L198.518,27.387L222.988,52.992L224.368,52.992L224.368,26.381C224.388,24.579 225.018,24.035 228.598,24.01L228.688,24.01L228.688,22.91L217.378,22.91L217.378,24.006L217.468,24.01C221.288,24.137 222.008,24.56 222.038,27.428L222.038,46.092L199.788,22.908L192.198,22.908ZM35.628,23.582C41.436,23.593 43.356,26.567 43.368,29.85C43.356,33.506 41.164,35.248 36.626,35.262L31.544,35.262L31.544,23.721C32.738,23.673 34.614,23.582 35.628,23.582ZM72.009,23.582C79.792,23.586 85.352,29.747 85.358,38.543C85.351,45.261 81.678,52.023 74.005,52.035C66.413,52.034 60.422,45.818 60.419,36.977C60.423,31.304 63.722,23.595 72.009,23.582ZM169.397,23.582C177.177,23.586 182.737,29.747 182.737,38.543C182.737,45.261 179.067,52.023 171.387,52.035C163.797,52.034 157.807,45.818 157.807,36.977C157.807,31.304 161.107,23.595 169.397,23.582ZM31.547,36.361L36.58,36.361C42.091,36.365 44.839,40.069 44.844,43.678C44.83,47.353 43.087,51.168 36.865,51.178C32.891,51.155 31.57,49.964 31.547,46.385L31.547,36.361ZM161.697,69.008C158.457,69.013 156.007,70.989 156.007,73.662C156.057,79.266 166.147,80.666 166.087,85.059C166.077,87.465 163.927,88.659 161.847,88.662C159.447,88.661 157.287,87.065 156.637,84.312L156.617,84.238L155.837,84.238L156.517,89.207L157.197,89.207L157.227,89.164C157.337,88.999 157.527,88.859 157.767,88.859C158.157,88.851 160.387,89.707 162.127,89.709C165.847,89.703 168.637,87.385 168.637,84.242C168.587,78.359 158.487,77.139 158.557,72.814C158.557,71.118 159.937,69.964 161.976,69.959C164.097,69.959 166.076,71.374 166.937,73.602L166.957,73.664L167.677,73.664L167.117,69.479L166.477,69.479L166.447,69.518C166.257,69.76 166.197,69.786 165.957,69.795C164.927,69.804 164.347,69.009 161.697,69.008ZM186.437,69.01L185.907,74.291L186.667,74.291L186.687,74.211C187.167,71.442 187.687,70.813 188.877,70.809L194.237,70.809L194.237,86.219C194.217,87.89 193.757,88.387 191.857,88.412L190.597,88.414L190.597,89.207L200.687,89.207L200.687,88.414L199.427,88.414C197.527,88.387 197.067,87.89 197.047,86.219L197.047,70.805L202.407,70.809C203.597,70.814 204.117,71.442 204.607,74.211L204.617,74.291L205.377,74.291L204.857,69.01L204.167,69.01L204.077,69.01L204.067,69.092C204.037,69.377 203.637,69.48 203.197,69.479L188.087,69.479C187.877,69.479 187.667,69.45 187.497,69.391C187.327,69.334 187.237,69.241 187.217,69.092L187.197,69.01L186.437,69.01ZM140.157,69.281C138.127,69.28 137.497,69.314 136.207,69.375C134.927,69.438 133.017,69.564 132.277,69.564L132.177,69.564L132.177,70.354L132.967,70.354C134.757,70.38 135.187,70.833 135.217,72.756L135.207,85.918C135.187,87.991 134.637,88.385 132.807,88.412L132.177,88.412L132.177,89.203L141.227,89.203L141.227,88.412L140.407,88.412C138.667,88.387 138.027,88.01 138.007,86.17L138.017,80.988C138.477,81.017 138.887,81.047 139.537,81.045C140.387,81.045 141.217,80.975 141.887,80.857L141.897,80.809L141.897,80.854C142.187,80.802 143.317,82.424 144.487,83.902L146.327,86.17C148.807,89 149.567,89.547 153.817,89.535L154.027,89.535L154.027,88.791L153.947,88.777C152.037,88.451 151.357,88.069 149.957,86.41C149.957,86.411 145.967,81.336 145.337,80.525C145.137,80.287 144.987,80.125 144.877,80.027C147.197,79.156 148.637,77.383 148.637,74.945C148.627,71.689 145.957,69.287 140.157,69.281ZM21.807,69.479L21.807,70.271L21.904,70.273C24.041,70.335 24.478,70.546 24.508,72.531L24.508,81.697C24.518,86.236 27.646,89.699 33.682,89.709C40.541,89.699 43.064,85.476 43.072,81.541L43.072,73.064C43.094,71.08 43.759,70.323 45.832,70.273L45.93,70.273L45.93,69.479L38.355,69.479L38.355,70.268L38.447,70.273C41.04,70.429 41.398,70.833 41.432,73.848L41.432,81.166C41.423,86.446 37.9,87.865 34.371,87.877C29.732,87.867 27.323,85.392 27.312,81.195L27.312,72.469C27.334,70.682 27.98,70.298 29.693,70.273L30.072,70.273L30.072,69.479L21.807,69.479ZM77.48,69.479L77.48,70.268L77.574,70.271C79.322,70.39 79.811,70.767 79.836,72.436L79.834,85.811C79.804,87.908 79.502,88.289 77.574,88.412L77.48,88.418L77.48,89.207L85.305,89.207L85.305,88.412L85.207,88.412C83.059,88.384 82.667,87.864 82.641,86.031L82.641,72.719C82.667,70.638 83.239,70.302 85.207,70.273L85.305,70.273L85.305,69.479L77.48,69.479ZM88.209,69.479L88.209,70.273L88.309,70.273C90.205,70.292 90.489,70.683 91.295,72.662L98.131,89.709L99.836,89.709L106.33,72.912C107.09,70.978 107.88,70.281 109.47,70.273L109.57,70.273L109.57,69.479L102.09,69.479L102.09,70.275L102.19,70.275C104.33,70.285 105.01,70.64 105.01,71.496C105.01,71.907 104.82,72.529 104.48,73.404L99.609,86.139L94.051,72.307C93.924,72 93.861,71.737 93.861,71.516C93.847,70.742 94.671,70.327 96.945,70.273L97.041,70.271L97.041,69.479L88.209,69.479ZM111.68,69.479L111.68,70.273L112.47,70.273C114.55,70.3 114.86,70.939 114.88,72.688L114.88,85.936C114.86,87.804 114.53,88.382 112.03,88.412L111.05,88.412L111.05,89.207L127.91,89.207L128.44,84.332L127.69,84.332L127.67,84.404C126.87,87.1 126.28,87.865 124.12,87.879L119.29,87.879C118.14,87.852 117.71,87.667 117.69,86.25L117.69,79.66L122.9,79.66C124.17,79.685 124.65,79.836 124.93,82.055L124.94,82.141L125.73,82.141L125.73,75.98L124.94,75.98L124.93,76.07C124.76,77.885 124.3,78.319 123.21,78.334L117.69,78.334L117.69,70.807L124.21,70.807C125.29,70.817 126.02,71.293 126.44,73.957L126.45,74.041L127.21,74.041L126.94,69.479L111.68,69.479ZM174.13,69.479L174.13,70.268L174.22,70.273C175.97,70.392 176.46,70.769 176.48,72.436L176.48,85.811C176.46,87.908 176.15,88.291 174.22,88.414L174.13,88.418L174.13,89.209L181.96,89.209L181.96,88.414L181.86,88.414C179.71,88.386 179.31,87.866 179.29,86.033L179.29,72.719C179.31,70.638 179.89,70.302 181.86,70.273L181.96,70.273L181.96,69.479L174.13,69.479ZM206.87,69.479L206.87,70.27L206.97,70.273C208.99,70.347 209.64,70.737 211.19,73.15L216.76,81.854L216.76,86.25C216.74,87.765 216.27,88.391 214.35,88.414L213.65,88.414L213.65,89.209L222.48,89.209L222.48,88.414L221.98,88.414C220.08,88.391 219.59,87.828 219.56,86.188L219.56,81.479L224.76,72.705C225.64,71.243 226.5,70.435 228.61,70.273L228.7,70.27L228.7,69.48L221.41,69.48L221.41,70.273L221.51,70.273C222.88,70.278 223.48,70.522 223.49,71.123C223.49,71.421 223.34,71.841 223.02,72.385L218.68,79.783L213.74,72.162C213.4,71.649 213.22,71.247 213.22,70.979C213.22,70.53 213.74,70.273 215.32,70.273L215.42,70.273L215.42,69.479L206.87,69.479ZM49.02,69.48L49.02,70.27L49.115,70.273C50.179,70.304 50.961,70.544 51.658,71.014L51.658,86.41C51.639,87.819 51.111,88.393 49.18,88.414L48.957,88.414L48.957,89.209L56.438,89.209L56.438,88.414L56.338,88.414C53.672,88.379 53.297,88.025 53.266,85.781L53.266,72.557L69.389,89.428L70.348,89.428L70.348,71.811C70.367,70.638 70.744,70.301 73.108,70.275L73.205,70.275L73.205,69.48L65.662,69.48L65.662,70.27L65.758,70.273C68.278,70.368 68.71,70.617 68.738,72.498L68.738,84.748L54.09,69.48L49.02,69.48ZM139.474,70.074C144.264,70.091 145.484,72.26 145.504,75.133C145.494,78.834 143.294,80.239 139.854,80.252C139.554,80.253 139.304,80.26 139.064,80.26C138.724,80.259 138.414,80.249 138.014,80.203L138.014,70.125C138.524,70.073 138.914,70.074 139.474,70.074Z" style="fill:white;fill-rule:nonzero;"/>
        </g>
    </g>
</svg>
