<svg clip-rule="evenodd" fill-rule="evenodd" stroke-linejoin="round" stroke-miterlimit="1.41421" viewBox="0 0 560 400" xmlns="http://www.w3.org/2000/svg"><g fill-rule="nonzero" transform="matrix(1.13908 0 0 1.13908 137.616 100)"><path d="m155.04 61.84c-11.77-5.44-22.41-11-21-16.24 1.1-3.97 1.83-6.59 9.93-6.59 2.99.01 12.18.92 15.02 4.88.64.89 1.37 2.43.34 5.54zm61.58-39.05c-13.56-15.12-38.61-22.79-74.45-22.79-3.06 0-75.02.49-86.13 42.69-13.1 36.98 22.7 51.35 48.85 61.83 12.52 5.02 25.46 10.21 27.62 16.02.37.97.68 2.56-.66 5.17-1.75 3.35-6.83 11.17-16.11 11.17-3.02-.04-12.3-1.07-15.11-5.06-.62-.87-1.32-2.37-.29-5.37l6.08-17.83h-106.42l32.24 21.1c1.81 12.48 8.15 22.66 18.85 30.3 14.48 10.32 36.83 15.56 66.39 15.56.76 0 18.86-.08 38.88-6.5 26.96-8.64 44.23-24.77 49.94-46.62 11.3-32.1-22.04-47.28-46.41-58.38-.92-.42-1.84-.84-2.76-1.26h70.07l.36-3.2c1.09-10.02.08-24.53-10.94-36.83" fill="#fff"/><path d="m159.73 59.21h64.26c2.08-19.04-3.87-55.63-81.82-55.63 0 0-72.3 0-82.71 40.17-20.83 58.32 90.45 54.74 75.57 83.61-3.56 6.84-10.11 13.09-19.33 13.09 0 0-23.81-.29-18.74-15.16l4.46-13.09h-89.4l23.57 15.44c2.16 19.44 17.44 44.36 81.9 44.36 0 0 72.3 0 85.4-50.58 17.26-48.49-78.26-54.45-72.3-76.77 1.49-5.35 3.58-9.22 13.39-9.22 0 0 23.81 0 18.74 15.18z" fill="#e31b23"/><path d="m148.49 92.8-.95-2.41c.8-.32 1.54-.7 2.22-1.13zm-27.4 0-.96-2.41c.8-.32 1.54-.7 2.22-1.13zm-24.79-7.28-.26-9.15 2.87 1.92zm151.46-11.72c-2.43-2.72-6.69-4.1-12.65-4.1-1.14 0-10.1.17-13.69 5.37-.32-.5-.64-.92-.95-1.22l-.05-.05c-.33-.32-3.41-3.08-8.9-3.08h-24.66c-2.68-.64-5.12-.71-5.93-.71h-.09c-.33 0-5.43.12-9.93 3.09l.84-2.38h-28.01-1.32-26.09-1.33-19.12-8.27-11.33l2.67-4.23h-18.42l-2.21 4.51-.03-4.52h-16.03l-2.95 4.81.45-4.81h-33.42l15.22 9.93-1.41 23.48h17.05l4.43-7.56v7.56h16.28l14.61-23.21 1.88 1.24-14.53 21.54h16.65l1.59-2.53h2.92l-.04 2.53h25.84l1.04-2.96 1.16 2.96h25.22l1.04-2.95 1.16 2.95h25.22l1.68-4.8c.13.22.26.42.38.6 3.47 4.88 11.82 5.13 13.45 5.13h.07c.33 0 5.51-.13 10.05-3.17l-.8 2.24h15.5l1.04-2.95 1.16 2.95h14.72l-3.59-9.06c.42-.17.83-.36 1.22-.55-.04 2.21.64 4.25 1.99 5.88 2.39 2.89 6.73 4.35 12.9 4.35.53 0 12.74-.11 15.26-9.4 1.1-3.22.04-5.6-1.75-7.38h4.73l.26-2.37c.28-2.75-.46-5.23-2.18-7.13" fill="#fff"/><path d="m15.49 69.09 9.04 5.89-1.33 22.2h12.69l8.6-14.72v14.72h12.17l17.69-28.11h-11.96l-6.48 13.28-.05-13.28h-11.9l-8.13 13.28 1.22-13.28zm219.84 3.22s-10.76 0-12.31 5.97c-3.1 8.68 13.45 8.14 11.25 12.44-.53 1.01-1.5 1.95-2.88 1.95 0 0-3.54-.04-2.79-2.26l.67-1.95h-9.69c-.49 2.56-.45 8.9 12.09 8.9 0 0 10.76 0 12.7-7.52 2.56-7.22-11.65-8.1-10.76-11.42.22-.8.53-1.37 2-1.37 0 0 3.54 0 2.79 2.26l-.45 1.29h9.56c.3-2.84-.58-8.29-12.18-8.29zm-54.24.3s-10.36.13-13.38 8.94l-2.08 6.16c-3.5 10.1 11.77 9.97 11.77 9.97s10.36-.13 13.38-8.94l2.08-6.16c3.46-10.14-11.77-9.97-11.77-9.97zm-108.56.71 5.8 3.81-13.24 19.62h10.18l1.59-2.53h7.09l-.05 2.53h10.27l-.64-23.42h-21zm24.05 0 5.76 3.85-7.04 19.58h9.88l2.79-7.93 3.1 7.93h8.98l-3.24-8.14c1.59-.32 3.46-.88 5.01-2.08 0 0 2.43-1.91 2.88-4.08 1.42-4.3-1.07-6.77-1.07-6.77s-2.49-2.35-7.09-2.35h-19.96zm27.39 0 5.76 3.85-7.04 19.57h9.88l2.79-7.93 3.1 7.93h8.98l-3.24-8.14c1.59-.32 3.46-.88 5-2.08 0 0 2.43-1.91 2.88-4.08 1.42-4.3-1.07-6.77-1.07-6.77s-2.49-2.35-7.09-2.35zm27.41 0 5.76 3.85-7.04 19.57h9.88l8.23-23.42zm40.38 0 5.76 3.85-7.04 19.57h9.88l2.79-7.93 3.1 7.93h9l-3.24-8.15c1.59-.32 3.46-.88 5-2.08 0 0 2.43-1.91 2.88-4.08 1.42-4.3-1.07-6.77-1.07-6.77s-2.47-2.35-7.08-2.35zm-10.41 3.99s3.54 0 2.79 2.26l-3.33 9.52c-.93 3.85-3.72 3.85-3.72 3.85s-3.54 0-2.75-2.26l3.33-9.52c.94-3.85 3.68-3.85 3.68-3.85zm-69.9 1.64h2.39c1.33 0 1.81.49 1.81.49.49.49.53.84.53 1.29 0 .49-.39 1.78-1.24 2.17 0 0-.67.32-2.17.32h-2.83zm27.4 0h2.39c1.33 0 1.82.49 1.82.49.49.49.54.84.54 1.29 0 .49-.41 1.78-1.25 2.17 0 0-.66.32-2.17.32h-2.83zm67.78 0h2.39c1.33 0 1.82.49 1.82.49.49.49.53.84.53 1.29 0 .49-.39 1.78-1.24 2.17 0 0-.67.32-2.17.32h-2.83zm-121.84 2.53-.53 9.69-5.67.05z" fill="#e31b23"/></g></svg>