<?xml version="1.0" encoding="UTF-8" standalone="no"?>
<!DOCTYPE svg PUBLIC "-//W3C//DTD SVG 1.1//EN" "http://www.w3.org/Graphics/SVG/1.1/DTD/svg11.dtd">
<svg width="100%" height="100%" viewBox="0 0 560 400" version="1.1" xmlns="http://www.w3.org/2000/svg" xmlns:xlink="http://www.w3.org/1999/xlink" xml:space="preserve" xmlns:serif="http://www.serif.com/" style="fill-rule:evenodd;clip-rule:evenodd;stroke-linejoin:round;stroke-miterlimit:1.41421;">
    <g transform="matrix(1.23473,0,0,1.23473,-261.968,-406.173)">
        <g id="path3418" transform="matrix(2.55883,0,0,-2.55883,429.872,480.438)">
            <path d="M0,0C-0.042,0.084 -0.161,0.117 -0.251,0.042C-0.272,-0.064 -0.169,-0.172 -0.064,-0.152C-0.001,-0.109 0,-0.064 0,0M-0.049,-0.666C-0.193,-0.86 -0.435,-0.988 -0.692,-0.972C-0.596,-0.826 -0.257,-0.811 -0.275,-0.537C-0.58,-0.569 -0.58,-0.231 -0.773,-0.086C-1.288,-0.07 -1.321,-0.666 -1.659,-0.811C-1.804,-0.521 -1.385,-0.279 -1.595,-0.005C-1.256,0.139 -0.548,-0.183 -0.435,0.429C-0.741,0.671 -1.128,0.381 -1.466,0.349C-1.578,0.236 -1.74,0.252 -1.852,0.188C-1.933,0.332 -1.659,0.478 -1.595,0.574C-1.385,0.671 -1.014,0.526 -0.966,0.848C-1.08,1.025 -1.45,0.783 -1.401,1.122C-0.951,1.251 -0.161,1.556 0.144,1.009C0.37,0.719 -0.145,0.413 0.306,0.236C0.515,-0.183 0.113,-0.376 -0.049,-0.666M3.437,-0.174C3.437,-0.174 3.395,-0.109 3.248,-0.174C3.102,-0.236 3.258,-0.382 3.258,-0.382L3.38,-0.389C3.44,-0.343 3.542,-0.278 3.437,-0.174M4.059,-0.473C3.737,-0.489 3.399,-0.826 3.012,-0.698L2.787,-0.425C2.513,-0.586 2.803,-0.811 2.787,-1.004C2.722,-1.067 2.513,-1.067 2.432,-0.972C2.175,-0.746 2.126,-0.392 2.126,-0.118C2.32,0.058 2.739,-0.037 2.787,0.301C2.545,0.526 2.223,0.316 1.966,0.381C1.917,0.623 2.191,0.542 2.272,0.687C2.545,0.913 3.222,0.364 3.044,1.041C2.787,1.283 2.352,1.218 2.014,1.202C2.562,1.588 3.318,1.444 3.947,1.315L4.011,1.202C4.011,0.783 3.157,0.397 3.753,0.075C4.027,0.042 4.187,0.284 4.446,0.301C4.525,-0.021 4.011,-0.103 4.059,-0.473M0.193,-1.631C0.257,-1.793 0.048,-1.97 0.274,-2.051C0.37,-1.97 0.386,-1.841 0.53,-1.89C0.966,-2.195 1.506,-1.586 1.885,-1.938C1.998,-1.728 2.061,-1.503 2.078,-1.278C2.094,-1.053 1.773,-1.036 1.66,-1.165C1.868,-1.713 1.208,-1.487 1.046,-1.777C0.692,-2.018 0.483,-1.52 0.193,-1.631M-1.353,-2.904C-1.418,-2.228 -1.643,-1.439 -2.126,-0.972C-2.561,-1.728 -1.742,-2.538 -1.546,-3.016L-1.433,-3.016C-1.37,-3.033 -1.353,-2.951 -1.353,-2.904M-1.659,-1.165C-1.45,-1.745 -1.272,-2.356 -1.128,-2.984C-1.192,-3.097 -1.128,-3.29 -1.321,-3.323C-2.077,-3.227 -2.077,-2.341 -2.367,-1.825C-2.415,-1.471 -2.48,-1.004 -2.207,-0.73C-1.885,-0.617 -1.804,-1.004 -1.659,-1.165M0.53,-3.677L0.579,-3.902C0.724,-4.241 1.014,-4.353 1.353,-4.336C1.531,-4.048 1.917,-4.144 1.819,-3.709C1.401,-3.661 0.918,-3.999 0.53,-3.677M2.981,-2.211C2.594,-2.066 2.465,-2.598 2.207,-2.792C1.804,-2.663 1.336,-3.049 0.998,-2.743C0.805,-2.71 0.692,-2.856 0.53,-2.904C-0.339,-3.307 -0.451,-2.1 -0.854,-1.696C-0.806,-2.179 -0.628,-2.614 -0.58,-3.097C-0.483,-3.049 -0.531,-2.888 -0.387,-2.937C-0.209,-3.242 0.209,-3.001 0.418,-3.242C1.046,-3.097 1.708,-3.548 2.272,-3.179C2.562,-3.033 2.852,-3.227 3.012,-3.435C2.981,-3.097 3.222,-2.598 3.236,-2.132C3.254,-1.841 3.753,-1.728 3.511,-1.39L2.981,-2.211ZM11.238,-12.419C10.526,-13.045 9.723,-13.64 8.922,-14.144L8.648,-15.11C9.812,-14.613 10.843,-13.788 11.823,-12.965L11.238,-12.419ZM16.731,-28.748C16.265,-28.605 15.685,-28.684 15.297,-28.99C14.864,-29.393 14.67,-29.989 14.881,-30.568C15.041,-31.019 15.508,-31.373 15.959,-31.454C16.507,-31.551 16.925,-31.31 17.312,-31.004C17.617,-30.584 17.729,-29.957 17.504,-29.489C17.375,-29.168 17.038,-28.926 16.731,-28.748M-4.719,-21.599L-8.084,-32.614C-7.408,-33.627 -6.844,-34.691 -6.264,-35.754L-6.184,-35.754L-3.253,-23.193C-3.687,-22.647 -4.219,-22.083 -4.719,-21.599M8.535,-21.149L8.31,-20.714L6.877,-22.26L10.274,-35.56C10.87,-34.224 11.45,-32.888 12.287,-31.647L8.535,-21.149ZM-6.297,-19.941L-7.504,-18.942C-9.098,-22.018 -10.789,-25.078 -12.335,-28.169C-11.642,-28.733 -11.031,-29.264 -10.354,-29.909C-10.338,-29.892 -10.306,-29.876 -10.322,-29.844L-6.297,-19.941ZM11.434,-18.894L11.016,-18.282C10.628,-18.588 10.146,-18.975 9.889,-19.329L14.333,-28.91L16.185,-27.252L16.185,-27.138L11.434,-18.894ZM2.545,-17.284C2.035,-17.347 1.462,-17.327 0.998,-17.316L0.53,-29.023C0.869,-29.909 1.255,-30.762 1.547,-31.647C1.917,-30.842 2.303,-30.037 2.852,-29.297L2.545,-17.284ZM-10.162,-17.235L-16.506,-25.657C-16.538,-25.851 -16.81,-25.915 -16.81,-26.125C-16.022,-26.237 -15.297,-26.511 -14.574,-26.784C-12.721,-23.821 -10.789,-20.891 -9.002,-17.896L-10.162,-17.235ZM-0.306,-17.284L-1.787,-17.01L-3.205,-23.113C-2.561,-23.854 -1.982,-24.626 -1.466,-25.432L-1.433,-25.399L-0.306,-17.284ZM5.412,-16.897C4.832,-17.026 4.22,-17.095 3.673,-17.203C4.042,-19.732 4.3,-22.437 4.784,-24.933C5.379,-23.999 6.072,-23.064 6.796,-22.227L5.412,-16.897ZM-12.236,-16.225L-16.617,-21.181L-16.279,-21.728C-14.75,-20.022 -13.205,-18.236 -11.739,-16.48C-11.884,-16.352 -12.062,-16.292 -12.236,-16.225M-4.686,-16.189L-6.184,-19.909L-4.75,-21.342C-4.219,-19.796 -3.8,-18.218 -3.333,-16.656C-3.8,-16.56 -4.198,-16.334 -4.686,-16.189M15.653,-17.042L14.575,-15.964C13.994,-16.318 13.383,-16.639 12.867,-17.01L19.082,-25.432C20.146,-24.997 21.208,-24.546 22.416,-24.466L22.416,-24.385L15.653,-17.042ZM6.928,-16.41C7.378,-17.811 7.859,-19.168 8.422,-20.488L9.743,-19.281C9.276,-18.137 8.728,-17.01 8.23,-15.882C7.792,-16.068 7.394,-16.282 6.928,-16.41M-13.607,-15.657L-17.89,-19.989L-17.117,-20.488C-15.604,-18.878 -14.316,-17.686 -12.834,-15.964L-13.607,-15.657ZM16.152,-15.576L15.605,-15.882L17.617,-18.008C17.955,-17.928 18.374,-18.025 18.663,-17.928L16.152,-15.576ZM17.312,-15.077C17.118,-15.207 16.812,-15.222 16.731,-15.415C17.714,-16.318 18.68,-17.235 19.63,-18.056L21.256,-18.443C19.984,-17.365 18.68,-16.076 17.312,-15.077M-14.141,-15.42L-15.153,-15.077L-19.404,-18.701L-20.29,-19.989C-19.903,-19.893 -19.516,-19.845 -19.098,-19.828L-14.141,-15.42ZM-7.037,-15.029L-8.857,-17.864L-7.536,-18.782C-6.973,-17.751 -6.378,-16.72 -5.91,-15.657L-7.037,-15.029ZM19.018,-14.966C18.712,-14.514 18.213,-14.771 17.859,-14.917L22.223,-18.556C21.772,-18.008 21.465,-17.397 21.208,-16.769L19.018,-14.966ZM-15.813,-14.836L-16.891,-14.579L-18.518,-15.802L-18.791,-17.284L-15.813,-14.836ZM19.356,-14.53C19.855,-14.933 20.387,-15.287 20.902,-15.657L20.951,-14.836C20.515,-14.386 19.904,-14.24 19.356,-14.53M10.822,-14.337C10.387,-14.627 9.872,-14.852 9.421,-15.191C9.937,-16.172 10.501,-17.171 11.095,-18.089C11.628,-17.686 12.256,-17.284 12.674,-16.897L10.822,-14.337ZM-17.858,-14.337L-18.791,-14.144L-18.856,-14.305L-18.276,-14.691L-17.858,-14.337ZM20.983,-14.224C21.369,-14.917 21.724,-14.047 22.174,-14.112C21.772,-13.902 21.337,-14.16 20.983,-14.224M-8.09,-14.381L-9.131,-13.612L-11.562,-16.382C-11.108,-16.642 -10.628,-16.85 -10.162,-17.123L-8.09,-14.381ZM7.39,-13.572C5.99,-14.281 4.542,-14.691 2.932,-14.917L2.852,-15.609C4.688,-15.449 6.209,-14.935 7.803,-14.226C7.721,-13.984 7.615,-13.703 7.39,-13.572M6.242,-12.806C5.26,-13.194 4.178,-13.518 3.082,-13.662L3.012,-14.498C4.446,-14.272 5.816,-13.975 7.008,-13.25C6.717,-13.073 6.585,-12.948 6.242,-12.806M-7.842,-12.565C-6.893,-13.307 -5.974,-13.838 -4.912,-14.337L-4.605,-13.757C-5.524,-13.29 -6.426,-12.776 -7.262,-12.098C-7.473,-12.227 -7.677,-12.384 -7.842,-12.565M5.297,-12.063C4.884,-12.203 3.595,-12.495 3.194,-12.536C3.153,-12.969 3.144,-12.817 3.125,-13.226C3.993,-13.049 4.993,-12.892 5.749,-12.506C5.679,-12.365 5.314,-12.092 5.297,-12.063M13.673,-12.098L13.414,-11.985L12.256,-13.226C12.9,-14.064 13.914,-15.013 14.686,-15.851C15.363,-15.544 16.023,-15.159 16.731,-14.917L13.673,-12.098ZM-1.146,-11.308L-1.246,-11.942C-0.733,-12.153 0.697,-12.335 1.894,-12.274C1.851,-12.16 1.819,-11.6 1.819,-11.6C0.724,-11.649 -0.131,-11.517 -1.146,-11.308M-6.426,-11.293C-6.426,-11.293 -6.852,-11.64 -6.957,-11.744C-6.64,-12.133 -4.94,-13.059 -4.386,-13.26C-4.145,-13.199 -4.094,-13.059 -3.752,-12.791C-4.702,-12.454 -5.555,-11.841 -6.426,-11.293M4.864,-11.02C4.38,-11.218 3.646,-11.288 3.214,-11.441C3.179,-11.601 3.203,-11.67 3.173,-12.098C3.817,-12.018 4.442,-11.881 5.045,-11.63L4.864,-11.02ZM8.265,-11.771C8.372,-11.909 8.608,-12.014 8.758,-12.254L10.049,-11.326C9.906,-11.097 9.684,-10.966 9.548,-10.853C9.261,-11.036 8.775,-11.466 8.265,-11.771M-11.733,-10.697C-11.733,-10.697 -15.072,-13.129 -16.506,-14.386C-15.604,-14.595 -14.702,-14.869 -13.832,-15.191C-12.769,-14.256 -10.485,-12.247 -10.485,-12.247L-11.733,-10.697ZM-5.573,-10.585L-5.991,-10.971C-5.217,-11.615 -4.306,-12.052 -3.43,-12.425C-3.138,-12.304 -3.179,-12.075 -3.098,-11.881C-3.984,-11.56 -4.768,-11.117 -5.573,-10.585M8.842,-10.086C8.326,-10.344 7.891,-10.795 7.376,-11.052C7.5,-11.317 7.511,-11.281 7.875,-11.486L9.195,-10.521C9.11,-10.341 8.986,-10.247 8.842,-10.086M-2.987,-10.683C-3.517,-10.543 -4.266,-10.049 -4.587,-9.814C-4.779,-9.909 -4.89,-9.949 -5.137,-10.28C-4.493,-10.698 -3.849,-11.18 -3.092,-11.359C-3.043,-11.149 -3.008,-10.865 -2.987,-10.683M22.143,-13.612L15.266,-9.506L14.381,-10.826L18.856,-14.192C19.969,-13.999 21.047,-13.774 22.174,-13.644L22.143,-13.612ZM6.835,-10.1C6.866,-10.346 6.942,-10.488 7.07,-10.665C7.537,-10.408 8.004,-10.134 8.422,-9.748C8.155,-9.325 8.115,-9.308 7.913,-9.366C7.573,-9.462 7.159,-9.923 6.835,-10.1M-8.934,-7.866C-8.355,-8.623 -7.826,-9.458 -7.037,-10.134C-6.852,-9.96 -6.651,-9.86 -6.571,-9.667C-7.198,-9.103 -7.681,-8.459 -8.164,-7.767C-8.406,-7.799 -8.659,-7.783 -8.934,-7.866M-13.527,-7.735L-17.36,-9.426C-17.585,-10.907 -18.165,-12.308 -19.211,-13.37L-12.56,-9.474C-12.963,-8.927 -13.156,-8.25 -13.527,-7.735M13.721,-7.381C13.092,-8.669 12.223,-9.812 11.209,-10.859C11.224,-11.117 11.482,-11.31 11.628,-11.486C12.851,-10.344 13.785,-9.119 14.381,-7.686L13.721,-7.381ZM-7.778,-7.575C-7.311,-8.202 -6.876,-8.798 -6.232,-9.28C-6.119,-9.103 -5.956,-8.938 -5.875,-8.761C-6.278,-8.327 -6.763,-7.767 -7.15,-7.236C-7.386,-7.362 -7.601,-7.461 -7.778,-7.575M12.834,-6.656C12.223,-7.832 11.466,-8.975 10.516,-9.973C10.564,-10.183 10.758,-10.375 10.902,-10.521C11.965,-9.523 12.705,-8.363 13.334,-7.107C13.173,-6.914 12.964,-6.817 12.834,-6.656M20.515,-7.107L16.844,-5.995L16.071,-7.96C17.729,-8.83 19.453,-9.506 21.096,-10.359L21.369,-10.391C21.096,-9.378 20.757,-8.363 20.677,-7.268L20.515,-7.107ZM12.063,-5.642C11.513,-6.865 10.853,-8.057 9.807,-9.088C9.856,-9.28 10.033,-9.506 10.194,-9.586C10.999,-8.781 11.595,-7.879 12.174,-6.914C12.417,-6.51 12.642,-5.963 12.063,-5.642M11.048,-5.255C10.613,-6.206 10.129,-7.139 9.389,-7.96C9.003,-8.202 9.276,-8.508 9.502,-8.701C10.435,-7.735 11.16,-6.607 11.628,-5.417C11.434,-5.368 11.289,-5.19 11.048,-5.255M-16.859,-4.482C-16.731,-5.238 -16.683,-6.124 -16.81,-6.881L-14.106,-6.108C-14.267,-5.448 -14.412,-4.772 -14.574,-4.095C-15.33,-4.225 -16.119,-4.305 -16.859,-4.482M5.023,-0.661C4.539,-0.593 4.494,-1.68 4.251,-2.211C4.23,-2.699 4.767,-2.673 4.913,-2.469C5.07,-1.756 5.25,-0.914 5.218,-0.86C5.186,-0.803 5.023,-0.661 5.023,-0.661M4.913,-3.13C4.784,-3.274 4.574,-3.339 4.398,-3.242C3.527,-2.566 4.38,-1.584 4.525,-0.811C4.622,-0.296 5.315,-0.441 5.363,-0.891C5.557,-1.68 5.412,-2.534 4.913,-3.13M0.193,-1.631C0.257,-1.793 0.048,-1.97 0.274,-2.051C0.37,-1.97 0.386,-1.841 0.53,-1.89C0.966,-2.195 1.506,-1.586 1.885,-1.938C1.998,-1.728 2.061,-1.503 2.078,-1.278C2.094,-1.053 1.773,-1.036 1.66,-1.165C1.868,-1.713 1.208,-1.487 1.046,-1.777C0.692,-2.018 0.483,-1.52 0.193,-1.631M0.53,-3.677L0.579,-3.902C0.724,-4.241 1.014,-4.353 1.353,-4.336C1.531,-4.048 1.917,-4.144 1.819,-3.709C1.401,-3.661 0.918,-3.999 0.53,-3.677M2.981,-2.211C2.594,-2.066 2.465,-2.598 2.207,-2.792C1.804,-2.663 1.336,-3.049 0.998,-2.743C0.805,-2.71 0.692,-2.856 0.53,-2.904C-0.339,-3.307 -0.451,-2.1 -0.854,-1.696C-0.806,-2.179 -0.628,-2.614 -0.58,-3.097C-0.483,-3.049 -0.531,-2.888 -0.387,-2.937C-0.209,-3.242 0.209,-3.001 0.418,-3.242C1.046,-3.097 1.708,-3.548 2.272,-3.179C2.562,-3.033 2.852,-3.227 3.012,-3.435C2.981,-3.097 3.222,-2.598 3.236,-2.132C3.254,-1.841 3.753,-1.728 3.511,-1.39L2.981,-2.211ZM6.571,-0.086C7.584,0.397 8.455,1.364 9.615,1.54C11.143,2.217 11.401,3.811 11.932,5.098C10.935,4.39 10.66,3.15 9.696,2.362C8.39,1.991 7.248,1.025 6.216,0.156C6.265,-0.005 6.361,-0.134 6.571,-0.086M5.444,1.154C4.59,2.571 3.141,3.327 1.547,3.36C0.692,3.408 -0.079,3.151 -0.741,2.812C-0.998,2.603 -1.659,2.136 -2.013,1.653C-3.141,0.301 -3.382,-1.841 -2.593,-3.404C-1.804,-4.981 -0.193,-5.851 1.498,-5.915C3.141,-5.899 4.574,-4.9 5.444,-3.564C6.329,-2.195 6.265,-0.215 5.444,1.154M-3.06,0.494C-2.947,0.623 -2.931,0.767 -2.867,0.88C-3.043,1.202 -3.366,1.347 -3.64,1.507C-4.525,2.217 -5.942,1.009 -6.571,2.232C-7.636,3.356 -8.593,2.531 -9.63,2.941L-9.436,2.748C-8.503,1.766 -7.064,2.641 -6.104,1.396C-5.266,0.687 -3.914,1.202 -3.06,0.494M-2.126,2.119L-1.9,2.281C-1.787,2.506 -2.03,2.668 -2.045,2.893L-7.262,6.838L-2.126,2.119ZM-0.661,3.247C-0.403,3.456 0.225,3.263 0.144,3.714C-0.548,4.31 -0.483,5.243 -1.128,5.872C-2.126,6.371 -2.657,7.402 -2.898,8.384C-3.382,9.478 -4.654,9.511 -5.379,10.428C-5.185,9.623 -4.315,9.366 -3.752,8.883C-2.85,8.223 -3.092,7.095 -2.512,6.291C-1.418,5.678 -0.741,4.486 -0.661,3.247M1.239,10.203L1.353,3.746L2.625,3.714C2.223,5.888 1.757,8.094 1.239,10.203M4.204,2.973C4.3,2.893 4.398,2.748 4.525,2.861L4.977,3.86C4.784,5.098 5.203,6.274 6.023,7.192C6.862,8.013 6.12,9.478 6.958,10.316C6.49,10.026 6.12,9.559 6.136,8.996C6.184,7.966 5.604,7.192 5.025,6.419C4.204,5.356 5.115,4.13 4.204,2.973M5.749,1.266C5.847,1.234 5.879,1.347 5.942,1.396L10.742,8.11L5.299,2.232C5.121,1.846 5.668,1.653 5.749,1.266M14.494,-7.3C13.044,-7.122 12.834,-5.158 11.482,-4.756C10.322,-4.9 9.067,-4.627 8.148,-3.822C7.344,-3.822 6.49,-4.048 5.83,-3.564C5.653,-3.774 5.459,-3.984 5.412,-4.257C6.088,-5.014 7.263,-5.078 8.197,-4.789C9.099,-4.578 9.421,-5.802 10.355,-5.529C10.049,-6.398 9.518,-7.171 8.842,-7.879L6.684,-5.174C6.587,-5.207 6.457,-5.127 6.41,-5.255C6.41,-5.255 12.213,-12.801 12.181,-12.899C12.198,-12.883 4.59,-5.062 4.59,-5.062C4.413,-5.158 4.204,-5.287 4.091,-5.497L7.569,-9.007C7.344,-9.28 7.021,-9.49 6.717,-9.667C6.717,-8.298 5.234,-7.654 4.832,-6.463C4.719,-6.382 4.654,-6.222 4.525,-6.222C4.38,-7.412 5.927,-7.815 6.216,-8.814C6.105,-10.28 6.829,-11.583 8.116,-12.292C8.825,-13.033 8.566,-14.346 8.355,-15.232C8.566,-13.655 6.846,-12.335 5.942,-11.793C5.089,-10.826 5.637,-9.28 4.59,-8.428C3.737,-7.735 3.608,-6.753 3.205,-5.883C3.093,-5.899 2.981,-5.963 2.899,-6.076C2.947,-6.721 2.577,-7.622 3.205,-8.073C3.979,-8.733 4.736,-9.538 4.913,-10.521C4.413,-10.795 3.849,-10.907 3.286,-11.02C3.27,-10.247 3.447,-9.426 3.432,-8.653L2.899,-8.122L2.819,-8.234C2.739,-10.746 2.785,-13.14 2.639,-15.715C2.618,-15.719 1.853,-8.54 1.692,-6.302C1.45,-6.157 1.111,-6.253 0.805,-6.222L0.805,-6.656C1.111,-8.154 1.434,-9.667 1.74,-11.164C0.805,-11.261 -0.145,-11.197 -0.966,-10.939C-0.708,-10.086 0.418,-9.941 0.579,-9.007C0.708,-8.492 0.466,-7.832 0.772,-7.381C0.756,-7.074 0.675,-6.8 0.53,-6.527C-0.789,-7.397 0.981,-9.264 -0.773,-9.941C-2.093,-10.714 -1.176,-12.259 -2.32,-13.178C-2.947,-13.983 -4.07,-13.929 -4.569,-14.91C-4.618,-13.445 -2.802,-13.226 -2.561,-11.938C-2.4,-10.81 -2.062,-9.716 -1.08,-8.975C-0.483,-8.122 -1.16,-6.737 -0.499,-5.915C-0.87,-5.255 -1.225,-6.189 -1.595,-6.334C-2.175,-7.236 -1.176,-8.298 -1.9,-9.168L-2.818,-10.247C-3.35,-10.166 -3.768,-9.828 -4.219,-9.555C-3.592,-8.846 -2.706,-8.298 -1.982,-7.622L-2.013,-6.769C-4.412,-8.798 -6.699,-11.067 -9.066,-13.24C-9.08,-13.228 -7.464,-11.03 -7.345,-10.935C-5.703,-9.1 -3.72,-6.784 -2.093,-4.789C-2.062,-4.643 -2.271,-4.514 -2.367,-4.37C-2.673,-4.402 -5.573,-8.428 -5.573,-8.428C-6.022,-8.057 -6.586,-7.461 -6.844,-6.881C-5.942,-6.318 -4.51,-6.849 -3.977,-5.529C-3.446,-5.352 -3.06,-4.917 -2.818,-4.402C-3.237,-4.336 -3.785,-4.336 -4.107,-4.723C-4.412,-5.401 -5.041,-5.899 -5.845,-5.835C-6.957,-5.642 -7.214,-7.219 -8.277,-7.155C-9.211,-7.252 -10.113,-7.445 -10.821,-8.073C-10.483,-7.204 -9.452,-6.624 -8.583,-6.334C-7.506,-6.295 -7.44,-5.078 -6.538,-4.981C-5.573,-5.078 -4.895,-4.433 -4.525,-3.709C-4.171,-3.13 -3.043,-3.661 -3.141,-2.792C-3.655,-2.55 -4.3,-2.695 -4.719,-3.049C-5.217,-3.902 -6.071,-4.708 -7.117,-4.643C-7.391,-4.691 -7.553,-4.997 -7.778,-5.174C-8.116,-4.45 -8.358,-3.612 -8.47,-2.743C-7.391,-2.808 -6.232,-2.984 -5.137,-3.13L-4.637,-2.612L-4.798,-2.598L-11.119,-2.189C-11.038,-2.14 -9.754,-1.954 -9.669,-1.979C-8.492,-1.847 -5.459,-1.6 -3.446,-1.471C-3.302,-1.246 -3.399,-0.923 -3.366,-0.666C-5.137,-0.777 -6.828,-1.358 -8.614,-1.584C-8.614,-1.246 -8.647,-0.875 -8.583,-0.537C-7.566,-0.459 -6.474,-0.489 -5.41,-0.473L-5.221,-0.469C-6.123,0.095 -6.973,1.154 -8.196,0.928C-9.388,1.106 -10.563,2.071 -10.821,3.28C-10.869,3.698 -11.047,4.149 -10.982,4.519C-10.483,3.681 -9.63,2.812 -8.551,3.006C-7.891,3.36 -7.198,2.909 -6.651,2.554C-5.906,1.333 -4.735,2.329 -3.785,1.846L-3.785,2.007L-10.016,9.044L-10.016,9.124L-9.823,9.124L-2.4,3.473L-2.367,3.473C-2.19,4.584 -2.835,5.565 -3.785,6.097C-4.445,6.742 -3.93,7.869 -4.557,8.497C-5.427,8.964 -6.104,9.833 -6.039,10.864C-6.104,11.137 -5.926,11.314 -5.878,11.556C-5.476,10.171 -3.704,9.962 -2.898,8.802C-2.415,8.029 -2.383,6.95 -1.433,6.452C-0.612,6.033 -0.467,4.922 0.144,4.326L0.225,4.438L0.724,9.318C0.724,9.318 0.998,11.297 1.046,12.281L2.899,3.746L2.981,3.666C4.332,4.342 3.27,6.001 4.139,6.95C4.944,7.578 5.848,8.345 5.665,9.511C6.037,10.382 6.925,10.992 7.842,11.121C7.167,10.252 6.427,9.366 6.684,8.159C6.427,6.773 4.671,5.855 5.299,4.245C7.633,6.145 10.016,8.159 12.368,10.01L11.788,9.124L6.796,2.202C6.731,2.168 6.764,2.088 6.764,2.039C7.923,2.202 8.116,3.778 9.276,3.971C10.21,5.373 11.547,6.483 13.286,6.259L13.286,6.145C11.176,4.97 12.063,2.088 9.663,1.315C8.745,1.041 7.812,0.59 7.151,-0.118L7.263,-0.199C8.986,-0.344 10.677,-0.617 12.481,-0.617C12.577,-1.631 12.496,-2.647 12.256,-3.564L11.676,-3.515C11.788,-2.647 11.917,-1.793 11.869,-0.86C10.082,-0.923 8.293,-1.165 6.49,-1.31C6.346,-1.584 6.265,-1.954 6.41,-2.244L11.354,-1.053L11.434,-1.165C11.401,-1.938 11.369,-2.71 11.16,-3.404C10.097,-3.531 9.502,-2.163 8.31,-2.405C8.004,-2.421 7.633,-2.389 7.376,-2.211C7.086,-2.308 6.748,-2.292 6.49,-2.518C7.295,-3.258 8.728,-2.485 9.55,-3.179C10.467,-4.627 12.738,-3.339 13.286,-5.223C13.608,-5.948 13.962,-6.656 14.494,-7.3M-9.662,-2.55C-9.533,-3.774 -9.194,-4.932 -8.696,-5.948C-8.47,-5.915 -8.229,-5.802 -8.164,-5.561C-8.6,-4.643 -8.824,-3.612 -9.05,-2.598L-9.662,-2.55ZM-10.837,-2.421C-10.742,-4.222 -10.355,-5.17 -9.68,-6.488L-9.131,-6.189C-9.357,-5.497 -9.662,-4.852 -9.823,-4.144C-9.96,-3.728 -9.982,-2.985 -10.073,-2.542C-10.244,-2.493 -10.451,-2.455 -10.837,-2.421M20.596,-2.083L17.585,-1.97L17.28,-4.257C18.325,-4.417 19.34,-4.708 20.435,-4.756L20.596,-2.083ZM16.377,-0.617C16.474,-3.097 15.927,-5.304 15.072,-7.381C15.17,-7.558 15.332,-7.767 15.266,-7.96L14.8,-7.847C14.123,-9.313 13.027,-10.665 11.9,-11.874C12.079,-12.034 12.174,-12.324 12.401,-12.405C15.653,-9.168 17.28,-5.078 17.118,-0.617L16.377,-0.617ZM15.187,-0.617C15.187,-1.631 15.106,-2.888 14.912,-3.951C14.976,-4.981 13.591,-6.173 14.768,-6.914C15.636,-5.014 16.136,-2.904 15.959,-0.617L15.187,-0.617ZM14.058,-0.617C14.139,-1.97 13.994,-3.42 13.608,-4.675L14.026,-5.497C14.541,-3.999 14.896,-2.228 14.686,-0.617L14.058,-0.617ZM12.9,-0.617C13.06,-1.728 12.82,-2.792 12.674,-3.822L13.221,-4.257C13.447,-3.097 13.737,-1.905 13.559,-0.617L12.9,-0.617ZM-14.847,-0.505L-18.438,-0.505C-18.003,-1.1 -17.761,-1.761 -17.44,-2.405L-14.799,-2.211L-14.847,-0.505ZM-20.016,5.486L-20.064,4.938C-19.968,4.696 -19.775,4.438 -19.516,4.326C-19.098,4.052 -18.599,4.358 -18.212,4.358C-16.683,3.762 -14.976,2.409 -14.461,0.767L-14.541,0.687L-18.791,0.687C-18.922,0.783 -19.05,0.88 -19.178,1.009C-19.404,1.025 -19.613,1.122 -19.822,1.009C-20.209,0.848 -20.193,0.461 -20.176,0.107C-20.112,-0.183 -19.807,-0.36 -19.516,-0.392C-19.226,-0.376 -19.017,-0.151 -18.791,0.042C-15.363,0.09 -12.077,-0.054 -8.744,-0.005L-20.016,5.486ZM23.108,5.791L10.243,-0.199L21.643,-0.311L21.981,-0.73C22.288,-0.86 22.657,-0.907 22.915,-0.666C23.108,-0.473 23.189,-0.167 23.14,0.156C23.044,0.364 22.899,0.639 22.64,0.687C22.27,0.816 21.932,0.671 21.675,0.381C20.177,0.413 18.648,0.316 17.198,0.461C18.181,2.345 19.791,3.698 21.594,4.794C21.965,4.6 22.513,4.632 22.834,4.906C23.077,5.115 23.269,5.469 23.189,5.791L23.108,5.791ZM-10.547,8.416C-10.821,8.061 -11.068,7.714 -11.27,7.291C-9.418,5.938 -7.536,4.551 -5.652,3.199C-7.295,5.018 -8.841,6.725 -10.547,8.416M12.705,9.623L8.535,4.02C9.469,4.584 9.615,5.712 10.58,6.226C11.595,6.902 13.076,7.064 14.219,6.532C14.026,5.791 13.254,5.292 12.947,4.6C12.529,3.247 12.126,1.927 10.967,0.88L11.048,0.88L23.028,6.291C22.979,6.565 22.689,6.742 22.448,6.838C22.191,6.886 21.819,6.934 21.594,6.757C21.128,6.58 21.111,6.017 20.871,5.646C19.098,4.906 16.635,5.034 15.266,6.532C14.557,7.627 13.785,8.754 12.705,9.623M-8.744,10.316C-9.082,10.075 -9.484,9.721 -9.71,9.349L-4.912,5.904C-6.2,7.402 -7.376,8.883 -8.744,10.316M10.516,11.443C9.195,9.608 7.812,7.803 6.652,5.985L11.981,10.348C11.579,10.766 11.048,11.17 10.516,11.443M-6.378,11.861C-7.053,11.476 -7.795,11.121 -8.31,10.541C-7.069,9.14 -5.845,7.643 -4.605,6.291C-4.493,7.402 -5.282,8.255 -6.071,8.851C-6.667,9.704 -6.619,10.864 -6.378,11.861M2.163,-13.877C0.57,-14.087 -0.596,-13.739 -1.841,-13.431C-2.066,-13.592 -2.374,-13.854 -2.576,-14.046C-1.061,-14.431 0.572,-14.792 2.264,-14.535C2.264,-14.535 2.175,-13.858 2.163,-13.877M2.325,-14.918C0.424,-15.191 -1.37,-14.82 -3.06,-14.337C-3.333,-14.498 -3.687,-14.579 -3.865,-14.804C-1.92,-15.473 0.246,-15.952 2.431,-15.649C2.431,-15.649 2.342,-14.91 2.325,-14.918M10.387,-11.6C9.937,-12.002 9.405,-12.405 8.89,-12.759L9.003,-13.564C9.663,-13.242 10.296,-12.661 10.923,-12.161L10.387,-11.6ZM-8.663,-12.373C-12.045,-9.329 -13.816,-5.223 -13.639,-0.505L-14.379,-0.505C-14.605,-5.317 -12.787,-9.898 -9.176,-13.005C-9.194,-13.006 -8.644,-12.379 -8.663,-12.373M-7.244,-10.461C-7.506,-10.291 -8.806,-8.874 -9.388,-7.96C-9.646,-7.993 -9.903,-8.057 -10.096,-8.154C-9.515,-9.27 -8.736,-10.228 -7.768,-11.126C-7.768,-11.126 -7.425,-10.704 -7.244,-10.461M-11.321,-0.505L-11.981,-0.505C-12.077,-2.888 -11.691,-5.174 -10.676,-7.155L-10.048,-6.721C-10.765,-5.366 -11.31,-3.246 -11.298,-2.225C-11.334,-2.225 -11.288,-1.021 -11.321,-0.505M-9.083,-1.617C-9.066,-1.304 -9.137,-0.794 -9.082,-0.505C-9.147,-0.489 -9.589,-0.519 -9.71,-0.509C-9.781,-1.002 -9.74,-1.203 -9.748,-1.74L-9.083,-1.617ZM-10.162,-1.858L-10.162,-0.505L-10.821,-0.505L-10.869,-1.89C-10.873,-1.913 -10.144,-1.894 -10.162,-1.858M-7.977,-11.397C-9.088,-10.534 -9.787,-9.458 -10.547,-8.395C-10.757,-8.363 -10.869,-8.54 -11.064,-8.54C-11.256,-8.25 -11.031,-7.927 -10.934,-7.654C-12.077,-5.529 -12.576,-3.001 -12.447,-0.505L-13.22,-0.505C-13.413,-4.973 -11.756,-9.065 -8.459,-12.134L-7.977,-11.397ZM-8.192,-12.865C-8.412,-12.979 -8.626,-13.153 -8.842,-13.314C-4.477,-17.146 2.806,-17.969 8.041,-15.442C8.154,-15.168 8.025,-14.879 8.007,-14.605C4.53,-16.375 -0.105,-16.816 -4.598,-15.046C-5.778,-14.557 -7.115,-13.737 -8.192,-12.865M2.03,-12.763C0.853,-12.86 -0.24,-12.626 -1.357,-12.475L-1.595,-13.033C-0.416,-13.312 0.818,-13.422 2.075,-13.374L2.03,-12.763ZM-5.573,12.248C-5.041,11.186 -4.074,10.397 -2.979,9.962C-1.836,9.222 -1.997,7.692 -0.935,6.838C-1.256,8.996 -1.659,11.137 -2.093,13.246C-3.333,13.134 -4.477,12.748 -5.573,12.248M4.477,13.44C4.156,11.297 3.785,9.124 3.56,6.998C3.624,7.128 5.397,8.291 5.223,10.089C5.932,11.184 7.425,11.539 8.584,11.861C7.972,10.541 6.91,9.43 6.958,7.836C6.717,7.305 6.184,6.902 6.105,6.291C7.393,8.046 10.037,11.689 10.037,11.689C8.33,12.542 6.457,13.246 4.477,13.44M0.612,13.601C-0.097,13.585 -0.789,13.504 -1.466,13.375L-0.193,6.612L0.612,13.601ZM3.961,13.51C3.733,13.631 1.439,13.604 1.439,13.604C1.793,11.076 2.449,8.641 2.899,6.097C2.899,6.097 3.921,13.255 3.961,13.51M-10.096,1.009C-10.804,1.943 -11.385,2.941 -11.513,4.134C-11.53,4.503 -11.642,5.05 -11.321,5.324C-10.242,4.503 -9.324,3.183 -7.73,3.714C-6.812,3.714 -6.571,2.426 -5.652,2.668C-7.553,4.149 -9.517,5.549 -11.481,6.871C-11.808,6.421 -11.995,6.123 -12.263,5.863C-12.531,5.599 -16.376,4.116 -17.89,5.292C-18.003,5.502 -17.986,5.759 -18.165,5.952C-18.453,6.291 -18.888,6.323 -19.323,6.291C-19.516,6.242 -19.79,6.049 -19.79,5.904C-19.388,5.63 -10.096,1.009 -10.096,1.009M1.353,-31.92C1.014,-31.986 0.661,-32.276 0.579,-32.614C0.466,-32.984 0.579,-33.369 0.853,-33.627C1.095,-33.853 1.483,-33.901 1.819,-33.821C2.078,-33.66 2.32,-33.451 2.432,-33.161C2.545,-32.839 2.417,-32.517 2.239,-32.276C2.014,-31.986 1.692,-31.92 1.353,-31.92M-11.368,-29.458C-10.901,-29.844 -10.821,-30.488 -10.982,-31.036C-11.111,-31.357 -11.433,-31.744 -11.788,-31.841C-12.287,-32.017 -12.866,-31.889 -13.252,-31.583C-13.527,-31.31 -13.687,-30.971 -13.72,-30.617C-13.752,-30.134 -13.527,-29.779 -13.22,-29.458C-12.785,-28.99 -11.803,-28.99 -11.368,-29.458" style="fill:rgb(250,188,21);fill-rule:nonzero;"/>
        </g>
        <g id="path3422" transform="matrix(2.55883,0,0,-2.55883,363.143,427.787)">
            <path d="M0,0C-1.468,0.46 -2.406,1.816 -2.406,3.377C-2.406,5.331 -0.905,6.963 1.22,6.963C3.342,6.963 4.825,5.352 4.825,3.395C4.825,1.913 3.959,0.62 2.616,0.081C3.132,-0.129 3.436,-0.381 4.252,-0.781C5.521,-1.402 6.705,-1.964 8.527,-1.964C9.962,-1.964 11.396,-1.445 12.093,-0.867L12.327,-1.212C11.474,-2.058 9.502,-2.692 7.73,-2.692C6.789,-2.692 5.495,-2.56 4.315,-2.025C3.512,-1.661 2.5,-1.116 1.797,-0.772C1.305,-0.534 0.432,-0.153 0,0M3.549,3.377C3.549,4.73 2.572,5.846 1.199,5.846C-0.174,5.846 -1.132,4.75 -1.132,3.395C-1.132,2.044 -0.154,0.928 1.22,0.928C2.591,0.928 3.549,2.025 3.549,3.377M70.397,-0.062L75.247,-0.062L75.247,1.045L71.612,1.045L71.612,6.853L70.397,6.853L70.397,-0.062ZM67.631,-0.062L68.846,-0.062L68.846,6.853L67.631,6.853L67.631,-0.062ZM66.219,6.853L61.093,6.853L61.093,-0.062L66.269,-0.062L66.269,1.026L62.307,1.026L62.307,2.881L65.775,2.881L65.775,3.968L62.307,3.968L62.307,5.766L66.219,5.766L66.219,6.853ZM55.127,-0.062L59.977,-0.062L59.977,1.045L56.342,1.045L56.342,6.853L55.127,6.853L55.127,-0.062ZM53.853,3.406C53.853,5.361 52.372,6.972 50.249,6.972C48.125,6.972 46.624,5.342 46.624,3.386C46.624,1.431 48.105,-0.18 50.228,-0.18C52.351,-0.18 53.853,1.45 53.853,3.406M52.579,3.386C52.579,2.033 51.621,0.936 50.249,0.936C48.875,0.936 47.897,2.052 47.897,3.406C47.897,4.759 48.856,5.854 50.228,5.854C51.602,5.854 52.579,4.74 52.579,3.386M41.784,5.045C41.784,5.51 42.199,5.875 42.91,5.875C43.542,5.875 44.163,5.628 44.786,5.164L45.438,6.083C44.737,6.645 43.937,6.951 42.929,6.951C41.556,6.951 40.569,6.141 40.569,4.938C40.569,3.653 41.398,3.219 42.87,2.862C44.154,2.567 44.431,2.299 44.431,1.796C44.431,1.262 43.957,0.917 43.206,0.917C42.347,0.917 41.685,1.243 41.022,1.815L40.292,0.946C41.121,0.205 42.12,-0.16 43.175,-0.16C44.627,-0.16 45.646,0.61 45.646,1.914C45.646,3.07 44.885,3.593 43.423,3.949C42.1,4.265 41.784,4.502 41.784,5.045M36.421,6.853L35.205,6.853L35.205,2.873C35.205,1.598 34.545,0.946 33.468,0.946C32.381,0.946 31.719,1.638 31.719,2.922L31.719,6.853L30.505,6.853L30.505,2.873C30.505,0.868 31.65,-0.17 33.447,-0.17C35.255,-0.17 36.421,0.868 36.421,2.932L36.421,6.853ZM29.289,3.406C29.289,5.361 27.79,6.853 25.618,6.853L23.04,6.853L23.04,-0.062L25.618,-0.062C27.79,-0.062 29.289,1.45 29.289,3.406M28.016,3.386C28.016,2.022 27.072,1.045 25.618,1.045L24.255,1.045L24.255,5.747L25.618,5.747C27.072,5.747 28.016,4.75 28.016,3.386M18.566,6.853L13.439,6.853L13.439,-0.062L18.615,-0.062L18.615,1.026L14.654,1.026L14.654,2.881L18.122,2.881L18.122,3.968L14.654,3.968L14.654,5.766L18.566,5.766L18.566,6.853ZM11.967,6.853L10.752,6.853L10.752,2.873C10.752,1.598 10.091,0.946 9.014,0.946C7.928,0.946 7.267,1.638 7.267,2.922L7.267,6.853L6.052,6.853L6.052,2.873C6.052,0.868 7.197,-0.17 8.995,-0.17C10.802,-0.17 11.967,0.868 11.967,2.932L11.967,6.853ZM-3.081,-0.062L-4.947,2.556C-3.98,2.823 -3.298,3.514 -3.298,4.659C-3.298,6.013 -4.276,6.853 -5.866,6.853L-8.948,6.853L-8.948,-0.062L-7.733,-0.062L-7.733,2.348L-6.212,2.348L-4.513,-0.062L-3.081,-0.062ZM-4.533,4.591C-4.533,3.88 -5.085,3.426 -5.956,3.426L-7.733,3.426L-7.733,5.747L-5.965,5.747C-5.067,5.747 -4.533,5.352 -4.533,4.591M-11.714,-0.062L-10.499,-0.062L-10.499,6.853L-11.714,6.853L-11.714,-0.062ZM-15.713,-0.18C-17.728,-0.18 -19.23,1.391 -19.23,3.386C-19.23,5.361 -17.758,6.972 -15.664,6.972C-14.39,6.972 -13.62,6.527 -12.957,5.896L-13.739,4.996C-14.291,5.51 -14.883,5.854 -15.674,5.854C-16.997,5.854 -17.955,4.769 -17.955,3.406C-17.955,2.043 -16.997,0.936 -15.674,0.936C-14.824,0.936 -14.282,1.282 -13.688,1.835L-12.908,1.045C-13.629,0.294 -14.42,-0.18 -15.713,-0.18" style="fill:rgb(250,188,21);fill-rule:nonzero;"/>
        </g>
        <g id="path3426" transform="matrix(2.55883,0,0,-2.55883,561.002,426.372)">
            <path d="M0,0L0.18,0C0.331,0 0.47,0.007 0.47,0.183C0.47,0.329 0.344,0.353 0.227,0.353L0,0.353L0,0ZM-0.172,0.491L0.256,0.491C0.519,0.491 0.644,0.388 0.644,0.174C0.644,-0.024 0.517,-0.108 0.352,-0.126L0.668,-0.615L0.483,-0.615L0.183,-0.139L0,-0.139L0,-0.615L-0.172,-0.615L-0.172,0.491ZM0.198,-0.871C0.636,-0.871 0.975,-0.522 0.975,-0.058C0.975,0.395 0.636,0.745 0.198,0.745C-0.245,0.745 -0.585,0.395 -0.585,-0.058C-0.585,-0.522 -0.245,-0.871 0.198,-0.871M0.198,0.884C0.715,0.884 1.147,0.476 1.147,-0.058C1.147,-0.603 0.715,-1.01 0.198,-1.01C-0.322,-1.01 -0.757,-0.603 -0.757,-0.058C-0.757,0.476 -0.322,0.884 0.198,0.884" style="fill:rgb(250,188,21);fill-rule:nonzero;"/>
        </g>
        <g id="path3430" transform="matrix(2.55883,0,0,-2.55883,494.24,532.776)">
            <path d="M0,0L-0.201,0L-0.201,1.017L-0.207,1.017L-0.606,0L-0.734,0L-1.133,1.017L-1.137,1.017L-1.137,0L-1.34,0L-1.34,1.217L-1.029,1.217L-0.665,0.293L-0.308,1.217L0,1.217L0,0ZM-1.587,1.054L-1.969,1.054L-1.969,0L-2.17,0L-2.17,1.054L-2.552,1.054L-2.552,1.217L-1.587,1.217" style="fill:rgb(250,188,21);fill-rule:nonzero;"/>
        </g>
    </g>
</svg>
