<svg clip-rule="evenodd" fill-rule="evenodd" stroke-linejoin="round" stroke-miterlimit="2" viewBox="0 0 560 400" xmlns="http://www.w3.org/2000/svg"><g fill-rule="nonzero"><path d="m280.00827987 162.211h209.99148475v75.57804h-209.99148475z" fill="#09f" stroke-width=".209939"/><path d="m1201.65 209.05c32.52-28.18 39.89-45.52 39.89-86.71v-16c0-29.91-6.5-48.12-19.08-60.7-13.44-13.44-31.21-21.68-82.81-21.68h-3c-47.26 0-64.17 7.81-77.17 20.81-19.52 19.52-22.12 48.57-22.12 102.77h61.14c.43-47.26 1.73-62.88 9.1-70.25 3.91-3.9 7.81-5.63 19.08-5.63h.87c11.7 0 16 1.3 20.38 5.63 3.9 3.91 6.93 11.28 6.93 29.05v7.38c0 20.81-2.6 29.48-18.64 46.82l-79.78 85.85c-16 17.35-20.81 27.32-20.81 53.77v31.65h208.55v-50.3l-129.64 3.47zm744.47-141.34c-15.17-30.36-38.15-43.8-96.26-43.8h-5.63c-58.1 0-81.08 13.44-96.26 43.8-12.14 24.28-16 55.49-16 112.3s3.9 88 16 112.29c15.18 30.35 38.16 43.79 96.26 43.79h5.63c58.11 0 81.09-13.44 96.26-43.79 12.14-24.28 16-55.5 16-112.29s-3.86-88.01-16-112.3zm-82.81 216.36c-3.9 3.9-6.51 5.2-15.61 5.2h-1.3c-9.11 0-11.71-1.3-15.61-5.2-6.94-6.94-12.14-25.15-12.14-104.06s5.2-97.13 12.14-104.07c3.9-3.9 6.5-5.2 15.61-5.2h1.3c9.1 0 11.71 1.3 15.61 5.2 6.93 6.94 12.14 25.15 12.14 104.07s-5.21 97.12-12.14 104.06zm-484.31-260.16h-5.64c-58.1 0-81.08 13.44-96.25 43.8-12.14 24.28-16 55.49-16 112.3s3.91 88 16 112.29c15.17 30.35 38.15 43.79 96.25 43.79h5.64c58.1 0 81.08-13.44 96.26-43.79 12.14-24.28 16-55.5 16-112.29s-3.9-88-16-112.3c-15.19-30.36-38.17-43.8-96.26-43.8zm13.44 260.16c-3.9 3.9-6.5 5.2-15.61 5.2h-1.3c-9.11 0-11.71-1.3-15.61-5.2-6.94-6.94-12.14-25.15-12.14-104.06s5.2-97.13 12.14-104.07c3.9-3.9 6.5-5.2 15.61-5.2h1.3c9.11 0 11.71 1.3 15.61 5.2 6.94 6.94 12.14 25.15 12.14 104.07s-5.21 97.12-12.15 104.06zm280.09-75.02c32.52-28.18 39.89-45.52 39.89-86.71v-16c0-29.91-6.51-48.12-19.08-60.7-13.44-13.44-31.22-21.68-82.82-21.68h-3c-47.26 0-64.17 7.81-77.18 20.81-19.51 19.52-22.11 48.57-22.11 102.77h61.13c.43-47.26 1.74-62.88 9.11-70.25 3.9-3.9 7.8-5.63 19.08-5.63h.86c11.71 0 16 1.3 20.38 5.63 3.91 3.91 6.94 11.28 6.94 29.05v7.38c0 20.81-2.6 29.48-18.65 46.82l-79.78 85.85c-16 17.35-20.81 27.32-20.81 53.77v31.65h208.51v-50.3l-129.64 3.47z" transform="matrix(.209939 0 0 .209939 70 162.211)"/><path d="m70 162.211h209.99148475v75.57804h-209.99148475z" fill="#db3136" stroke-width=".209939"/><path d="m179 282.76c-4.77 4.77-10.4 5.64-18.64 5.64h-2.17c-12.14 0-18.65-.87-23.41-5.64-7.37-7.37-14.31-23.41-14.31-102.76s6.94-95.39 14.31-102.76c4.76-4.77 11.27-5.63 23.41-5.63h2.17c8.24 0 13.87.86 18.64 5.63 6.94 6.94 11.27 24.28 12.14 66.77h61.14c0-46-6.5-81.51-25.58-100.59-13.44-13.44-33-19.51-66.77-19.51h-13.93c-58.54 0-81.52 14.31-96.26 43.79-12.14 24.28-16 55.5-16 112.3s3.9 88 16 112.3c14.78 29.49 37.76 43.79 96.26 43.79h13.88c33.81 0 53.33-6.07 66.77-19.51 18.64-18.64 26-53.76 26-102.33h-61.09c-.86 45.1-6.07 62.01-12.56 68.51zm212-258.85h-5.63c-58.11 0-81.95 13.44-97.13 43.79-12.14 24.28-16 55.5-16 112.3s3.9 88 16 112.3c15.18 30.35 39 43.79 97.13 43.79h5.63c58.1 0 81.95-13.44 97.12-43.79 12.15-24.3 16.06-55.5 16.06-112.3s-3.91-88-16.05-112.3c-15.13-30.35-39.02-43.79-97.13-43.79zm14.31 260.15c-3.9 3.91-7.37 5.21-16.48 5.21h-1.3c-9.1 0-12.57-1.3-16.48-5.21-6.93-6.93-12.13-25.15-12.13-104.06s5.2-97.12 12.13-104.06c3.91-3.9 7.38-5.2 16.48-5.2h1.3c9.11 0 12.58 1.3 16.48 5.2 6.94 6.94 12.14 25.15 12.14 104.06s-5.19 97.13-12.13 104.06zm512.94-255.81-36.86 123.57h-2.16l-38.59-123.57h-92.79v.86l74.14 202.49v100.16h86.72v-101.03l74.14-201.62v-.86zm-191.65 162.59c14.74-14.74 22.55-32.52 22.55-67.2 0-45.53-13.44-71.55-37.72-83.69-15.61-7.8-40.33-11.7-80.22-11.7h-100.59v303.51h85.85v-110.14h4.33l50.74 110.14h95.39v-1.3l-64.18-124.88c10.85-4.33 18.25-9.1 23.85-14.74zm-72-20.38c-5.63 5.64-12.13 6.07-25.14 6.07h-13v-100.59h13.44c13 0 19.08.43 24.71 6.07 6.07 6.07 9.54 16.91 9.54 44.23s-3.89 38.59-9.53 44.22z" fill="#fff" transform="matrix(.209939 0 0 .209939 70 162.211)"/></g></svg>