<svg clip-rule="evenodd" fill-rule="evenodd" stroke-linejoin="round" stroke-miterlimit="1.41421" viewBox="0 0 560 400" xmlns="http://www.w3.org/2000/svg"><g fill-rule="nonzero" transform="matrix(2.71739 0 0 -2.71739 -1130.22 1854.87)"><path d="m577.27 611.12c-.195 14.761-2.449 22.69-8.039 28.277-5.324 5.325-12.121 6.395-21.362 6.395h-87.222l40.593-54.715h12.32v-18.885h34.309c9.242 0 16.039 1.07 21.362 6.395 5.639 5.64 7.895 13.707 8.045 28.826zm-36.349 11.279h3.903c1.59 0 2.56-.047 3.151-.103.23-1.776.357-5.544.377-11.238l.002-3.641c-.006-2.391-.023-9.022-.374-11.73-.59-.056-1.562-.104-3.156-.104h-3.903z" fill="#fff"/><path d="m11.168 5.621 13.352 17.998h28.539l12.322-17.998zm59.877 0-12.32 18h20.754l-8.406 4.641v15.152h23.65v-19.793h10.5c5.189 0 7.15.345 8.305 1.5 1.197 1.196 1.675 4.354 1.726 18.293h24.904c-.23-18.319-3.1-26.155-8.4-31.447-4.84-4.847-11.07-6.346-22.72-6.346h-37.984zm-4.904 22.631-38.174.02 11.236 15.143h26.938v-15.162zm-23.518 19.73 11.971 16.184 10.896-16.184zm28.199 0-11.223 16.184h19.879l-8.401 4.236-.006 17.977h37.957c11.649 0 17.882-1.5 22.727-6.347 5.352-5.351 8.224-13.293 8.411-32.049h-24.91c-.037 14.554-.514 17.682-1.729 18.898-1.155 1.154-3.118 1.502-8.306 1.502h-10.498v-20.4h-23.9z" fill="#d70036" transform="matrix(.8 0 0 -.8 460.65 645.79)"/></g></svg>