<?xml version="1.0" encoding="UTF-8" standalone="no"?>
<!DOCTYPE svg PUBLIC "-//W3C//DTD SVG 1.1//EN" "http://www.w3.org/Graphics/SVG/1.1/DTD/svg11.dtd">
<svg width="100%" height="100%" viewBox="0 0 560 400" version="1.1" xmlns="http://www.w3.org/2000/svg" xmlns:xlink="http://www.w3.org/1999/xlink" xml:space="preserve" xmlns:serif="http://www.serif.com/" style="fill-rule:evenodd;clip-rule:evenodd;stroke-linejoin:round;stroke-miterlimit:1.41421;">
    <g transform="matrix(1.30304,0,0,1.30304,16.1328,4.08896)">
        <path id="dc_1_" d="M265.102,199.771C239.842,201.601 229.225,196.111 229.225,196.111C266.201,151.083 229.591,104.59 229.591,104.59C236.546,98.733 265.102,99.099 265.102,99.099L265.102,116.306L301.344,116.306L301.344,65.785C222.27,62.489 199.57,82.258 199.57,82.258C175.043,62.488 99.629,65.784 99.629,65.784L98.897,158.404L136.604,158.404L136.604,99.464C150.149,98 171.016,104.589 171.016,104.589C136.238,155.477 171.382,195.745 171.382,195.745C158.935,203.066 135.505,200.139 135.505,200.139L135.505,178.54L99.629,178.54L99.629,233.453C179.802,238.943 199.938,219.175 199.938,219.175C231.055,236.382 257.048,234.551 257.048,234.551L301.71,235.283L301.71,178.904L265.102,178.904L265.102,199.771ZM201.036,174.512C183.464,148.886 199.937,126.921 199.937,126.921C218.242,149.619 201.036,174.512 201.036,174.512Z" style="fill:rgb(7,9,9);fill-rule:nonzero;"/>
        <path id="star" d="M288.043,138.636L284.262,124.602L279.257,138.513L265.833,132.9L273.766,145.226L261.686,152.913L275.718,154.133L273.645,168.532L283.527,158.404L293.29,168.532L291.704,154.254L306.104,152.913L293.9,145.347L301.589,133.388L288.043,138.636Z" style="fill:rgb(7,9,9);fill-rule:nonzero;"/>
    </g>
</svg>
