<svg clip-rule="evenodd" fill-rule="evenodd" stroke-linejoin="round" stroke-miterlimit="1.41421" viewBox="0 0 560 400" xmlns="http://www.w3.org/2000/svg"><path d="m197.897 161.831c.461 1.11.984 2.193 1.566 3.245-3.706 2.016-7.242 4.331-10.572 6.921-.839-2.357.345-4.762 1.147-7.094.16-.469.345-.925.543-1.369h.061c.334-.037 1.061-.074 1.395-.148.715-.148 1.628-.235 1.751-1.16.01-.144.01-.288 0-.432 0-1.147.827-5.675 1.123-7.316.74 1.715 1.579 3.652 1.826 4.355l.037.013c.345.999.715 1.998 1.123 2.985zm-32.101-39.108v-.012c2.894 3.71 5.512 7.627 7.834 11.72v-.099c.031-.312.237-.58.53-.691.245-.045.489.082.592.309.186.296.321.604.531.876.215.371.537.668.925.851.395.136.913.271 1.32.395l1.074.32c.703.167 1.342.536 1.838 1.061.248.352.516.69.802 1.012.377.334.791.623 1.233.864 2.093 1.132 4.444 1.702 6.823 1.653 1.066-2.01 3.206-3.215 5.477-3.085 1.691.069 3.275.844 4.368 2.135 3.55-.822 6.768-2.702 9.228-5.391.382-.383.9-.938 1.517-1.481l-1.357-1.801h-2.134c-.658-.001-1.308-.135-1.913-.395-.527-.219-.917-.678-1.048-1.234v-.925c0-.296-.506-.395-.654-.604-.115-.199-.115-.443 0-.642 0 0 .222-.296.259-.271l-.086-.074c-.259-.198-.543-.383-.444-.765.098-.383.567-.42.32-.802-.099-.134-.215-.254-.345-.358-.364-.22-.632-.567-.753-.975 0-.629 1.061-1.344 1.641-1.899.366-.301.56-.762.518-1.234-.128-.57-.226-1.147-.296-1.727v-.913c-.326.471-.847.771-1.418.814.613-.724.879-1.679.727-2.615.014-.887.404-1.726 1.074-2.307-.987-.506-1.53.604-1.567.579.027-1.491 1.258-2.679 2.75-2.652.107.001.215.01.322.025-.79-.497-1.284-1.351-1.32-2.283.317.414.745.73 1.233.913.558.191 1.139.307 1.728.346.593.01 1.185-.052 1.764-.185.789-.148 1.567-.321 2.356-.482 2.304-.823 4.866-.468 6.859.95-.326-.409-.448-.945-.333-1.455.173.481.531.678.926 1.122.926.756 1.894 1.461 2.899 2.11.712.672 1.228 1.525 1.493 2.467.973-.192 1.932.392 2.208 1.345-1.234-.777-1.036 1.579-1.024 2.122.062 1.045-.009 2.094-.21 3.121-.62 2.36-2.181 4.362-4.318 5.54-.511.223-.941.598-1.234 1.073-.037.125-.037.258 0 .382.223-.119.459-.21.704-.271.543-.148 1.937-.481 2.134.333.108.594.273 1.177.494 1.739.148.186.579.531.999 1.037.256.267.499.547.728.839.609.769 1.142 1.595 1.591 2.467.637 1.265 1.153 2.587 1.542 3.948.527 1.841.899 3.723 1.111 5.626.172 1.455.283 2.923.308 4.392v1.986c3.58-3.961 6.605-8.389 8.994-13.164 4.32-8.871 6.573-18.606 6.588-28.473.283-37.714-28.647-71.407-74.639-63.277-8.384 1.55-16.431 4.561-23.773 8.895-7.888 4.547-14.688 10.762-19.924 18.21-2.667 3.862-5.031 7.924-7.069 12.152 8.325 3.925 16.261 8.629 23.699 14.051 8.949 6.449 16.958 14.109 23.798 22.762zm13.496 21.133v.062h-.986c.361.864.711 1.735 1.048 2.615.057-.231.198-.433.395-.567.674-.303 1.465-.166 1.998.345 1.503 1.089 3.368 1.558 5.207 1.308.197-.716.382-1.443.58-2.159-.852-.247-1.703-.506-2.554-.79-.973-.362-1.976-.634-2.998-.814-.895-.083-1.795-.083-2.69 0zm20.751 72.196-.012-.012c50.113.029 90.762-40.573 90.791-90.686s-40.573-90.762-90.686-90.791c-19.082-.011-37.681 5.994-53.154 17.161 0 0 .16.123.567-.136 4.244-2.628 8.711-4.878 13.349-6.724 1.382-.575 2.78-1.114 4.195-1.616 13.758-4.955 28.564-6.273 42.981-3.824 5.618.983 11.112 2.576 16.384 4.75 15.384 6.341 29.004 17.555 37.011 32.285 8.722 16.112 11.597 35.889 6.871 53.678-2.869 10.486-8.073 20.187-15.223 28.375-7.32 8.449-16.326 15.273-26.438 20.036-10.359 4.891-21.658 7.468-33.113 7.55-.364.99-.673 1.999-.925 3.022-.086.284-.111.58-.21.864-.283.765-1.147.654-1.826.642-.32 0-.863-.062-1.233-.099-.819.941-1.515 1.981-2.073 3.096v.111c-.863 1.876-1.394 2.998-.765 4.578.21.558.282 1.159.21 1.751-.01.586-.249 1.144-.666 1.555-.504.314-1.101.445-1.69.37-1.194-.038-2.383.172-3.492.617-1.331.726-2.703 1.377-4.108 1.949-1.365.599-2.922.576-4.269-.062-.222-.135-.419-.32-.653-.431-.214-.079-.439-.125-.667-.136-.688-.023-1.308-.421-1.616-1.036-.12-.373-.07-.779.136-1.111.21-.37.58-.382.975-.333.277.053.557.086.838.099.506-.008 1.006-.117 1.469-.321.914-.426 1.749-1.006 2.467-1.715.666-.617 1.542-1.369 2.319-2.023.778-.654 1.234-1.049 1.604-1.394 1.199-1.118 2.215-2.417 3.01-3.849.533-1.119.974-2.278 1.32-3.467l-.444-.296c-.543-.407-1.233-.851-1.036-1.641.16-.481.382-.95.592-1.419-18.604-2.467-29.608-10.696-29.522-10.683 6.159 1.435 12.481 2.053 18.801 1.838-.133-.127-.242-.278-.32-.444-.104-.228-.151-.478-.136-.728-.002-.268.11-.524.308-.704.045-.036.094-.065.148-.086.122-.03.249-.03.37 0 .584.091 1.175.12 1.765.086.415-.032.827-.094 1.233-.185l.642-.16 1.024-.321c.329-.13.643-.295.937-.493.77-.458 1.486-1 2.135-1.616 1.132-.969 2.121-2.095 2.936-3.344 0-.074.111-.222.16-.345.643-1.763 1.147-3.574 1.505-5.416l.21-1.098-.111-.062c-.703-.444-1.505-1.061-1.234-2.06.21-.641.321-.678.556-1.308.234-.629.542-1.863.789-2.825l.864-3.38c-.425.039-.841.143-1.234.308-.987.432-1.85 1.049-2.825 1.518.234.839.469 1.69.678 2.541.092.335.039.694-.148.987-.184.304-.481.521-.826.605h-.309c-.586-.025-1.087-.431-1.233-1-.259-1.048-.555-2.097-.864-3.146-.146-.125-.275-.271-.382-.431-.722.072-1.382-.413-1.53-1.123-.69-.263-1.119-.955-1.049-1.69-.37-.062-.592-.432-.74-.802-.395-.987.494-1.727 1.234-2.023.12-.043.244-.072.37-.087-.485-1.283-1.004-2.558-1.555-3.824-1.024-.272-1.122-.864-1.11-.839-.913 0-1.234-1.061-1.172-1.11-1.234-.099-1.234-1.641-1.234-1.641-.521-.132-.867-.625-.814-1.16 0-.308.346-.567.765-.777.26-.125.527-.233.802-.321-2.559-4.838-5.54-9.441-8.907-13.756-6.658-8.523-14.416-16.127-23.07-22.613-7.235-5.496-15.055-10.175-23.317-13.953-5.241 11.489-8.007 23.951-8.118 36.579v.987c0 50.113 40.625 90.738 90.738 90.738zm9.956-69.617c-1.643.62-3.324 1.135-5.033 1.542 1.801 2.467 3.701 4.934 5.551 7.328l1.234 1.357c.162-1.125.261-2.257.296-3.393.047-2.408-.646-4.772-1.986-6.773v-.061zm186.251 110.625c0 4.836-6.107 8.377-15.668 8.377h-1.801c-2.067-.04-4.128-.226-6.169-.555h-14.989c-2.307-2.517-8.636-8.278-13.077-12.559h-.124v6.291c-.135 4.294.482 4.701 4.8 4.935v1.382h-20.973c-1.31.027-2.62-.023-3.923-.148-2.548-.31-4.921-1.455-6.749-3.257-1.869-1.974-3.523-4.141-4.934-6.465-.552-.885-1.523-1.422-2.567-1.418h-.789v5.008c0 4.294.493 4.701 4.713 4.935v1.407h-19.74v-1.407c4.343-.284 4.837-.691 4.837-4.935v-7.278c-.21 8.253-9.228 13.965-21.072 13.965-12.608 0-20.775-6.341-20.775-13.571.001-.375.026-.75.074-1.122-2.061 4.293-4.528 8.956-6.995 14.311h-6.576l-12.559-21.541h-.173l-11.448 21.541h-6.576l-12.682-24.514c-3.109.333-3.27 1.16-3.109 4.775l.629 13.348c.185 4.417.308 4.824 4.787 5.108v1.233h-19.48v-1.381c4.663-.235 4.848-.506 4.786-4.935l-.185-14.027h-.247l-12.275 20.393h-2.837l-11.659-18.999h-.123l-.432 8.845c-.214 2.19-.172 4.396.123 6.576.247 1.468 1.617 1.999 5.663 2.196v1.382h-26.413v-1.382h1.789c2.208-.197 2.331-.888 1.554-2.319l-2.159-3.985h-9.869l-1.802 3.701c-.839 1.715-.777 2.406 1.974 2.603h1.728v1.382h-39.688c-2.603.184-5.213-.238-7.625-1.234-3.54-1.74-5.798-5.354-7.932-8.513-.52-.871-1.453-1.412-2.468-1.431h-.777v4.787c0 4.244.481 4.688 4.626 4.935v1.382h-19.011v-1.382c4.269-.185 4.75-.629 4.75-4.935v-13.151c0-2.307-.148-3.541-.901-4.219-.315-.245-.682-.414-1.073-.494-.54-.074-1.084-.107-1.629-.098h-.542c1.035 1.605 1.599 3.468 1.628 5.378 0 13.263-16.272 18.901-36.172 18.901h-22.194v-1.715c6.279-.321 6.97-.975 6.97-6.736v-17.593c0-5.761-.691-6.131-6.291-6.452v-2.072h25.142c10.598 0 19.382 1.27 25.155 4.737 1.739 1.062 3.293 2.399 4.602 3.96h19.566c4.688 0 7.748.358 10.154 1.357 2.405.999 4.207 2.788 4.207 5.145 0 3.503-3.294 5.576-7.748 6.736.851 1.122 3.072 3.873 4.811 5.699 2.048 2.122 3.368 3.467 4.331 4.269.406.352.874.624 1.381.802.632.161 1.294.161 1.925 0 1.789-.42 2.036-1.456 2.036-4.491v-13.151c0-4.293-.482-4.811-4.553-5.046v-1.32h28.745c.062.679.358 3.59.667 6.576l-2.678.123c-.29-1.486-1.057-2.837-2.183-3.849-.95-.679-2.949-.913-6.169-.913h-1.036c-2.344 0-2.467.197-2.467 1.591v7.6h3.047c5.218 0 5.403-.16 6.008-3.183h2.677v9.401h-2.788c-.605-3.541-.777-3.701-6.008-3.701h-3.035v6.415c0 2.073.136 3.158 1.234 3.516 1.394.322 2.827.442 4.256.358 2.43 0 5.897-.272 7.229-1.234.536-.431 1.006-.938 1.394-1.505l.395-.654 11.967-20.59 4.133-.555 4.071 7.525c2.554 4.75 5.132 9.45 7.402 13.509.814 1.456 1.814 2.961 2.184 2.887s.432-.592.543-1.012c.512-2.294.846-4.624.999-6.97l.691-8.044c.481-5.021 0-5.699-4.935-5.971v-1.32h14.644l10.894 15.779 9.524-15.791h12.694l-1.048-2.048c-2.307-4.478-3.849-4.478-7.773-4.799v-1.814h26.648v1.814l-2.739.222c-3.158.321-3.417.58-2.393 2.788l8.093 17.852.173-.297 11.189-22.552h5.984l12.978 22.552.173.297c3.047-6.305 6.28-13.991 7.402-17.025 1.123-3.035.889-3.479-2.813-3.702l-3.244-.222v-1.813h20.405v1.813c-4.75.445-5.551.383-8.451 5.133-.185.308-1.554 2.874-3.614 6.908 3.368-3.503 8.524-6.168 17.493-6.168 11.289 0 20.85 5.157 21.06 12.805v-5.588c0-4.293-.099-4.7-4.195-4.935l-.395-1.332h19.406c4.775 0 7.896.246 10.339 1.233 2.442.987 4.28 2.9 4.28 5.219 0 3.454-3.367 5.502-7.895 6.65.9 1.098 3.171 4.095 4.935 5.909.962.987 1.899 1.986 2.837 2.985.801 1.021 1.915 1.749 3.171 2.073.95.173 2.27-.037 2.665-1.061.282-1.112.394-2.26.333-3.405v-13.41c0-4.293-.482-4.701-4.738-4.935v-1.332h18.888v1.332c-4.009.284-4.491.691-4.491 4.935v6.168c4.442-3.22 8.143-6.131 11.671-9.117.851-.666 1.518-1.776-.123-1.899h-2.307v-1.333h16.284v1.604c-3.466.234-5.23.259-8.512 2.295-3.282 2.035-6.316 4.046-8.87 5.971 3.775 3.701 7.784 7.797 11.609 11.103 1.425 1.399 3.157 2.446 5.058 3.059l.827.185-.235-.764c-.469-1.481-1.048-3.146-1.604-5.108l2.715-.518c2.236 3.956 6.399 6.434 10.942 6.514 3.245 0 5.712-1.147 5.712-3.701 0-2.32-2.344-3.689-6.168-4.713l-.925-.271c-5.12-1.456-10.795-3.541-10.795-7.748 0-4.441 5.12-8.056 14.804-8.056 1.902-.005 3.8.152 5.675.469 1.419.234 2.406.382 3.208.543.247 1.566.678 3.491 1.357 6.168l-2.714.272c-1.433-3.326-4.773-5.418-8.389-5.256-3.146 0-5.367 1.332-5.367 3.294s2.344 3.146 6.354 4.244l1.357.395-.062-.074c5.613 1.603 10.548 3.651 10.548 8.253zm-349.975-9.413c0-11.461-9.388-14.656-16.704-14.656-1.245-.065-2.493.06-3.701.37-.432.111-.518 1.332-.518 2.664v20.48c0 4.7 1.9 5.934 6.033 5.934l-.013.012c7.415 0 14.903-5.366 14.903-14.804zm36.715-1.53c0-3.824-3.491-5.391-6.008-5.391s-2.702.407-2.702 1.999v9.166h.839c1.533.111 3.071-.121 4.503-.679 2.042-.87 3.368-2.875 3.368-5.095zm56.578 8.513-3.763-7.526h-.185l-3.701 7.526zm147.92-2.875c0-7.895-4.059-11.683-9.426-11.683-4.811 0-9.228 4.602-9.228 11.486 0 5.194 3.035 11.436 9.203 11.436l.013.012c5.366 0 9.438-5.675 9.438-11.251zm30.607-5.675c0-3.775-3.602-5.465-6.168-5.465s-2.751.407-2.751 1.974v9.191h.863c1.56.111 3.126-.116 4.59-.666h.037c2.059-.827 3.414-2.815 3.429-5.034z" fill="#092e6e" fill-rule="nonzero" transform="matrix(.866275 0 0 .866275 106.745 70.0587)"/></svg>