<svg clip-rule="evenodd" fill-rule="evenodd" stroke-linejoin="round" stroke-miterlimit="1.41421" viewBox="0 0 560 400" xmlns="http://www.w3.org/2000/svg"><g fill-rule="nonzero" transform="matrix(1.23619 0 0 -1.23619 -433.225 509.352)"><path d="m556.502 340.115v-15.541l9.646-8.574v-69.544l-6.623-6.001h-40.749l-6.645 6.001v69.544l9.539 8.574v15.541h-53.921v-15.541l9.55-8.574v-80.596l28.187-25.08h60.662v-25.937l-9.646-8.359v-15.648h129.661v40.404h-15.618l-9.333-10.502h-60.34v20.042h47.48v29.901h-47.48v20.041h60.34l9.333-10.369h15.618v40.379h-85.29v25.723l9.539 8.574v15.541z" fill="#f68b1f"/><g transform="matrix(.75 0 0 -.75 465.988 341.453)"><path d="m8.634 8.155v11.633l12.748 11.288v107.465l33.582 29.867h84.883l33.581-29.867v-107.465l12.717-11.288v-11.633h-59.017v11.633l12.72 11.288v98.778l-12.72 11.431h-59.445l-12.719-11.431v-98.778l12.719-11.288v-11.633zm171.081 66.65v27.007h83.453l12.291 13.861h11.574v-40.868zm0 66.592-39.868 35.582v35.153l-12.72 11.431v11.433h159.905v-41.014h-11.574l-12.291 13.862h-89.741v-39.44h63.305v-27.008h-57.017z" fill="#4c2683"/><path d="m8.64 19.786 12.746 11.292v107.455l33.583 29.867h84.883l-6.316-13.405h-72.308l-23.065-20.834v-114.382h-29.523zm29.523 0 16.804 11.292 12.719-11.292zm88.971 0 12.746 11.292v98.778l-.029-.008-12.736 11.443 6.451 13.709 23.092-20.834v-114.382h-29.523zm29.523 0 16.806 11.292 12.718-11.292zm23.065 68.537v13.489h83.453l12.288 13.834h11.549l-8.346-27.322h-98.945zm-15.262 66.676 8.974 13.405h63.275l-8.774-13.405h-63.476zm-7.832 7.002-16.719 15.005v35.153l-12.718 11.431v11.434h159.816l-8.345-13.463h-122.036v-59.561z" fill="#382160"/></g></g></svg>