<svg clip-rule="evenodd" fill-rule="evenodd" stroke-linejoin="round" stroke-miterlimit="1.41421" viewBox="0 0 560 400" xmlns="http://www.w3.org/2000/svg"><g fill-rule="nonzero" transform="matrix(1.39275 0 0 1.39275 1.44863 .83676)"><path d="m187.439 131.613v-18.473h-11.488c-2.588 0-3.307 1.264-3.307 3.062v27.967l13.935-10.914c.521-.42.823-.735.86-1.642z" fill="#ed1a3a"/><path d="m82.506 113.13v44.027c0 3.779.535 6.43 3.188 7.963 3.555 2.058 9.577 2.088 13.202.057 2.478-1.385 3.425-3.607 3.425-8.008v-41.104c0-1.849.707-2.935 3.29-2.935l11.508-.001.003 42.727c0 9.925-6.25 13.996-11.774 15.507-7.352 2.004-18.518 2.036-25.454-.048-8.289-2.495-12.161-7.401-12.17-15.456l-.007-39.763c0-1.918.69-2.966 2.897-2.966zm76.707-.002v37.54c0 9.231-1.945 13.894-7.412 17.83-2.846 2.043-7.823 4.373-18.606 4.373-6.174 0-8.919-.35-9.289-.436-.523-.121-.735-.442-.735-.893v-4.849c2.536.073 8.343.251 12.68-.366 6.426-.908 8.563-4.725 8.563-10.354v-39.701c0-2.375 1.286-3.144 2.945-3.144zm178.518.012 9.734 43.791.255.006 9.427-39.831c.658-2.605 2.322-3.966 5.241-3.966l17.114-.003v54.219c0 2.536-1.178 3.525-3.758 3.525l-10.515.017.004-46.981h-.874l-10.803 42.83c-.732 2.933-1.837 4.151-4.806 4.151h-7.88l-12.034-46.981h-.89v45.611c0 .921-.373 1.37-1.278 1.37h-5.623v-54.399c0-2.039.809-3.359 3.375-3.359zm-43.764 46.756v-46.76l-11.363.003c-2.592-.057-3.428.981-3.428 3.175v46.489c0 3.853 1.141 8.095 8.844 8.095h24.945c.651 0 .969-.411.969-.997v-5.246s-15.369 0-15.407-.003c-3.06-.156-4.56-1.716-4.56-4.756zm-40.237-46.756c-2.625 0-3.314 1.212-3.314 3.017v54.741h11.704c2.07 0 3.103-.61 3.103-3.045l-.003-54.716zm-66.288 31.385c0 12.046.004 23.327.004 23.327 0 2.441-1.038 3.045-3.1 3.045h-11.701v-26.372zm-127.9-31.396v5.56c0 .395-.187.753-.741.753l-19.055-.007c-2.562 0-3.85 1.229-3.85 3.812v14.667h22.42l.003 5.826c0 .517-.322.788-.829.788h-21.594v23.274c-.048 2.243-1.169 3.136-3.632 3.093h-11.764v-49.797c0-4.405.009-7.97 7.244-7.969zm182.126.003v5.559c0 .396-.193.75-.74.75l-19.063-.007c-2.559 0-3.85 1.232-3.85 3.812v14.667h22.428v5.83c0 .512-.326.786-.834.786h-21.594v23.273c-.041 2.241-1.162 3.137-3.625 3.089h-11.759v-26.367h-10.394l10.121-7.976c.138-.136.271-.259.271-.567v-14.882c0-4.404.003-7.969 7.232-7.967z" fill="#231f20"/></g></svg>