<svg viewBox="0 0 560 400" xmlns="http://www.w3.org/2000/svg" fill-rule="evenodd" clip-rule="evenodd"><path d="M30 187.425c0-24.675 13.855-30.496 37.138-30.496h38.885c29.337 0 33.41 10.587 33.41 27.002v2.681h-25.384c0-8.381-4.774-9.427-13.034-9.427h-28.056c-13.042 0-16.416 3.14-16.416 17.575v10.473c0 14.443 3.373 17.583 16.416 17.583h27.589c6.755 0 13.501-1.046 13.501-9.193v-2.448h-32.13v-17.462h57.981v23.983c0 24.208-12.575 25.376-41.679 25.376h-31.084c-23.282 0-37.138-5.821-37.138-30.496v-25.15zm330.293 55.646h-41.67c-23.282 0-37.138-5.821-37.138-30.496v-25.15c0-24.675 13.855-30.496 37.138-30.496h30.383c36.783 0 41.566 7.914 41.324 31.776h-25.843v-2.326c0-6.054-4.419-7.801-12.108-7.801h-28.169c-13.622 0-16.182 6.408-16.182 16.882v9.081c0 12.221 2.56 16.882 14.789 16.882h27.59c11.641 0 15.127-1.168 15.127-11.65h25.843v7.922c0 14.201-5.12 25.376-31.084 25.376zm114.203-.002h-41.437c-23.282 0-37.138-5.821-37.138-30.496v-25.15c0-24.675 13.855-30.496 37.138-30.496h41.437c23.291 0 37.146 5.821 37.146 30.496v25.15c0 24.675-13.855 30.496-37.146 30.496zm-236.001-65.658h-66.354v13.51h62.868v17.462h-62.868v13.5h67.867v20.256h-93.709v-84.282h92.196v19.555zm35.186 64.727h-25.851v-84.282h25.851v84.282zm239.634-9.06c0-4.584 3.736-8.32 8.363-8.32 4.601 0 8.32 3.736 8.32 8.32 0 4.627-3.719 8.372-8.32 8.372-4.627 0-8.363-3.745-8.363-8.372zm15.681 0c0-4.039-3.278-7.308-7.317-7.308-4.065 0-7.334 3.269-7.334 7.308 0 4.09 3.269 7.36 7.334 7.36 4.039 0 7.317-3.269 7.317-7.36zm-9.28 4.679h-1.141v-9.332h4.073c.778 0 1.565.052 2.266.459.692.398 1.047 1.228 1.047 2.015 0 1.833-1.289 2.517-2.949 2.56l2.819 4.299h-1.349l-2.672-4.299h-2.093v4.299zm2.664-8.493h-2.664v3.296h1.747c1.306 0 3.338.216 3.338-1.687 0-1.435-1.271-1.609-2.422-1.609zm-53.462-50.687h-30.271c-13.622 0-16.182 6.408-16.182 16.882v9.081c0 12.221 2.56 16.882 14.79 16.882h33.055c12.221 0 14.781-4.662 14.781-16.882v-9.081c0-10.474-2.56-16.882-16.173-16.882z" fill="#104293"/></svg>