<?xml version="1.0" encoding="UTF-8" standalone="no"?>
<!DOCTYPE svg PUBLIC "-//W3C//DTD SVG 1.1//EN" "http://www.w3.org/Graphics/SVG/1.1/DTD/svg11.dtd">
<svg width="100%" height="100%" viewBox="0 0 560 400" version="1.1" xmlns="http://www.w3.org/2000/svg" xmlns:xlink="http://www.w3.org/1999/xlink" xml:space="preserve" xmlns:serif="http://www.serif.com/" style="fill-rule:evenodd;clip-rule:evenodd;stroke-linejoin:round;stroke-miterlimit:1.41421;">
    <g transform="matrix(1.84496,0,0,1.84496,105.879,99.6757)">
        <path d="M129.852,95.799C128.318,94.573 126.888,94.165 125.661,94.165C124.128,94.165 122.901,94.88 122.901,96.005C122.901,99.175 130.465,99.071 130.465,104.286C130.465,106.739 128.421,108.579 125.559,108.579C123.718,108.579 122.082,108.171 120.652,107.147L120.652,104.182C121.98,105.717 123.617,106.534 125.354,106.534C127.296,106.534 128.216,105.411 128.216,104.491C128.216,101.22 120.549,100.809 120.549,96.413C120.549,93.755 122.695,92.12 125.865,92.12C127.296,92.12 128.522,92.427 129.852,93.245L129.852,95.799L129.853,95.8L129.852,95.8L129.852,95.799ZM59.515,108.479L57.163,108.479L57.163,92.326L62.48,92.326C66.161,92.326 67.796,94.371 67.796,96.926C67.796,99.483 66.058,101.424 62.173,101.424L59.515,101.424L59.515,108.479ZM95.604,92.327C99.081,92.327 101.227,94.063 101.227,96.825C101.227,98.665 100.205,100.096 98.365,100.811C99.898,101.73 100.92,103.162 102.147,105.207C102.454,105.719 102.76,106.127 103.068,106.535L104.294,108.479L101.533,108.479L99.284,105.106C97.138,101.834 96.116,101.424 94.888,101.424L93.867,101.424L93.867,108.479L91.413,108.479L91.413,92.327L95.604,92.327ZM112.984,108.478L110.632,108.478L110.632,92.326L112.984,92.326L112.984,108.478ZM86.097,108.478L83.541,108.478L81.497,103.673L74.443,103.673L72.501,108.478L69.944,108.478L77.1,92.222L78.736,92.222L86.097,108.478ZM75.362,101.527L80.575,101.527L77.815,95.187L75.362,101.527ZM62.48,94.371L59.516,94.371L59.516,99.379L62.378,99.379C64.116,99.379 65.343,98.459 65.343,96.824C65.343,95.597 64.627,94.371 62.48,94.371ZM95.4,99.379C98.058,99.379 98.774,98.05 98.671,96.721C98.671,95.188 97.752,94.268 95.4,94.268L93.867,94.268L93.867,99.379L95.4,99.379ZM169.211,72.387C169.825,76.374 171.971,79.237 177.185,79.237C182.502,79.237 183.831,76.475 183.831,74.432C183.831,72.182 182.195,70.649 179.742,70.036C177.185,69.319 175.652,69.319 172.687,68.503C169.621,67.685 166.144,66.048 166.144,61.142C166.144,56.133 171.052,53.475 175.243,53.475C178.719,53.475 181.07,54.702 182.195,55.725L182.195,55.827C182.604,56.133 182.706,56.44 182.808,56.44L182.604,55.928L182.604,54.089L186.489,54.089L186.489,62.37L182.502,62.37C182.4,60.019 179.64,57.259 175.55,57.259C171.461,57.259 170.336,60.019 170.336,61.144C170.336,62.166 170.847,63.699 173.403,64.621C176.368,65.541 178.311,65.437 181.173,66.154C185.365,67.381 187.92,69.629 187.919,74.534C187.919,81.282 181.478,83.223 177.696,83.223C174.425,83.223 171.766,82.201 169.824,80.666L169.824,80.564C169.314,80.258 169.211,79.951 169.211,79.951L169.314,80.463L169.314,82.303L165.428,82.303L165.428,72.387L169.211,72.387ZM105.93,54.09L112.677,70.652L112.882,71.47L112.984,70.652L119.834,54.09L130.057,54.09L130.057,58.179L126.274,58.179L126.274,78.32L130.057,78.32L130.057,82.306L118.607,82.306L118.607,78.32L122.185,78.32L122.185,59.611L122.083,58.486L121.878,59.508L114.006,78.32L111.757,78.32L103.885,59.508L103.579,58.588L103.579,78.32L107.157,78.32L107.157,82.306L95.604,82.306L95.604,78.32L99.387,78.32L99.387,58.179L95.604,58.179L95.604,54.09L105.93,54.09ZM57.574,61.963L53.586,61.963L53.586,58.179L42.341,58.179L42.341,64.927L51.951,64.927L51.951,68.914L42.341,68.914L42.341,78.32L53.484,78.32L53.484,72.9L57.574,72.9L57.574,82.306L34.367,82.306L34.367,78.32L38.149,78.32L38.149,58.179L34.367,58.179L34.367,54.09L57.574,54.09L57.574,61.963ZM12.08,58.179L8.604,58.179L8.604,65.029L21.281,65.029L21.281,58.179L17.703,58.179L17.703,54.09L29.153,54.09L29.153,58.179L25.472,58.179L25.472,78.32L29.153,78.32L29.153,82.306L17.703,82.306L17.703,78.32L21.281,78.32L21.281,69.015L8.604,69.015L8.604,78.32L12.08,78.32L12.08,82.306L0.834,82.306L0.834,78.32L4.413,78.32L4.413,58.179L0.834,58.179L0.834,54.09L12.08,54.09L12.08,58.179ZM158.478,61.963L154.592,61.963L154.592,58.179L143.347,58.179L143.347,64.927L152.958,64.927L152.958,68.914L143.347,68.914L143.347,78.32L154.491,78.32L154.491,72.9L158.58,72.9L158.58,82.306L135.373,82.306L135.373,78.32L139.156,78.32L139.156,58.179L135.373,58.179L135.373,54.09L158.478,54.09L158.478,61.963ZM79.656,54.089C81.701,54.089 83.643,54.396 85.381,55.622C87.222,56.952 88.244,58.893 88.244,61.45C88.244,64.823 86.404,66.766 84.87,67.481C84.359,67.686 83.848,67.686 83.439,67.686C83.848,67.686 84.359,67.891 84.666,67.993C86.199,69.015 87.324,70.857 87.324,72.593L87.426,78.32L87.426,78.319L91.004,78.319L91.004,82.305L83.337,82.305L83.03,72.696C83.03,71.265 82.008,69.527 79.35,69.425L71.58,69.425L71.58,78.319L75.158,78.319L75.158,82.305L63.912,82.305L63.912,78.319L67.49,78.319L67.49,58.178L63.912,58.178L63.912,54.089L79.656,54.089ZM80.167,65.541C82.416,65.541 84.359,64.008 84.36,61.86C84.36,60.122 83.439,58.999 82.417,58.487C81.599,58.18 80.576,58.18 79.657,58.18L71.58,58.18L71.58,65.541L80.167,65.541ZM152.446,52.761L144.37,52.761L142.121,50.307L150.401,50.307L152.446,52.761ZM45.203,43.969C47.146,44.787 49.395,44.787 51.337,43.969L71.682,43.969C73.42,44.684 75.567,44.787 77.305,43.969L144.472,43.969L144.472,45.911L39.989,45.911L39.989,43.969L45.203,43.969ZM86.403,33.65C86.402,34.364 86.298,35.075 85.483,35.278C84.87,35.38 84.052,35.585 83.643,35.074C83.256,34.59 82.778,34.199 82.122,33.984C82.152,33.973 82.182,33.961 82.212,33.95L81.701,33.541C81.673,33.562 81.619,33.591 81.542,33.628C81.746,33.713 81.904,33.82 82.007,33.949C82.046,33.96 82.084,33.972 82.122,33.984C81.295,34.298 80.511,34.588 79.765,34.854C80.217,35.705 80.473,36.684 80.473,37.732C80.473,41 77.82,43.657 74.554,43.662L74.544,43.662C71.17,43.662 68.512,41.004 68.512,37.732C68.512,37.425 68.534,37.123 68.577,36.829C67.849,36.742 67.118,36.6 66.366,36.404C65.752,36.2 65.855,35.995 66.366,35.688C66.825,35.437 67.951,34.982 69.422,34.51C70.333,33.046 71.858,32.018 73.66,31.762C72.805,31.753 71.853,31.757 71.068,31.804C68.716,31.906 68.512,32.213 68.41,32.008C67.899,31.19 67.49,29.964 66.672,29.248C61.867,30.066 57.164,29.351 52.871,27.817L52.871,27.816C52.359,27.713 52.257,27.611 51.849,27.407C51.338,27.612 50.929,27.51 50.724,27.305C50.621,27.203 49.599,27.203 49.19,27.203C47.861,27.203 46.43,27.714 45.714,28.839C45.416,29.434 45.504,30.126 45.791,30.634C46.555,30.333 47.39,30.167 48.27,30.167C50.528,30.167 52.554,31.321 53.784,33.063C54.89,33.273 55.954,33.539 56.959,33.848C57.164,33.848 57.266,34.053 56.857,34.155C56.132,34.37 55.386,34.542 54.628,34.682C54.88,35.383 55.018,36.135 55.018,36.915L55.018,36.926C55.012,40.703 51.947,43.662 48.27,43.663C44.487,43.663 41.522,40.698 41.522,36.915C41.522,36.262 41.615,35.629 41.79,35.028C40.979,34.915 40.173,34.763 39.376,34.564C39.069,34.564 39.069,34.36 39.376,34.257C40.373,33.898 41.449,33.57 42.571,33.298C43.186,32.329 44.042,31.524 45.06,30.973C44.818,30.5 44.711,30.003 44.795,29.453C45.408,26.59 48.066,26.999 48.782,25.773C49.293,24.648 49.497,21.377 48.884,20.457C47.146,19.741 44.999,18.821 44.591,16.776C44.488,16.265 44.693,15.652 45.204,15.549C46.124,15.344 46.737,15.856 47.453,16.162C47.76,15.958 47.146,15.242 47.862,15.242C48.782,15.242 49.395,17.082 49.702,17.184L49.6,17.9C48.986,17.695 46.737,16.468 46.533,16.366C46.124,16.161 45.613,15.855 45.306,16.264C44.897,16.775 45.408,17.389 45.715,17.9C50.52,22.909 58.494,17.593 63.708,21.171C63.811,20.864 63.708,20.762 63.503,20.66C59.925,17.286 54.2,19.024 49.6,17.9L49.702,17.184C55.427,18.615 62.993,16.264 65.957,22.807C67.899,25.567 69.944,29.963 74.135,30.065C77.509,30.167 79.758,28.838 81.394,26.385C83.643,22.296 84.972,17.593 88.959,14.833C89.368,14.628 89.573,14.833 89.368,14.935C87.426,16.877 85.687,19.433 84.767,21.58C86.301,27.407 89.674,26.181 90.492,26.079C90.287,23.932 90.492,17.593 95.093,16.06C96.115,15.242 99.796,12.891 104.601,14.935C101.023,18.309 98.875,23.114 98.16,26.487L94.174,27.612C94.481,26.999 94.481,25.976 94.378,24.852C94.027,25.028 93.676,25.278 93.003,25.668C93.104,26.629 93.252,27.354 93.355,27.611C92.23,28.122 90.697,28.122 90.697,28.122L90.493,26.691C88.755,27.304 85.79,26.895 84.461,22.295C83.03,25.26 81.803,29.963 78.429,31.19C77.713,31.395 76.487,31.804 75.873,31.804C75.817,31.804 75.737,31.803 75.635,31.801C76.341,31.933 77.003,32.19 77.597,32.551C79.952,31.652 88.355,29.743 88.959,29.657L89.573,29.861C97.24,28.327 104.192,25.976 111.348,23.011C112.064,24.545 113.29,26.282 114.722,27.407C113.597,27.713 112.268,27.918 111.041,27.918C107.667,28.225 105.827,25.158 102.146,26.998C103.067,29.043 99.08,30.781 97.852,32.519C97.444,34.769 100,35.995 101.022,37.631C100.51,39.165 101.43,40.596 101.022,42.231L127.909,42.231C128.011,41.209 126.887,41.924 126.682,41.106C126.785,40.084 126.581,39.778 125.865,37.528C125.66,37.119 125.353,37.119 125.353,37.119C125.047,36.403 124.74,35.074 124.331,34.052C124.024,33.03 123.616,32.11 123.207,30.883C122.901,29.454 122.493,29.145 121.982,29.653L121.979,29.656C122.798,32.621 124.127,35.892 124.536,37.119C125.047,37.63 125.149,38.55 125.251,39.777C126.273,40.288 125.763,41.515 126.581,42.23L125.047,42.23L125.354,40.901C125.305,40.653 125.135,40.622 124.962,40.596L124.929,40.592C124.756,40.566 124.586,40.535 124.537,40.287L124.332,38.141C124.332,37.63 123.617,36.301 123.412,36.096C123.412,36.096 123.105,36.096 122.901,35.483C122.798,34.87 121.265,30.883 120.856,29.656C118.709,29.246 116.767,28.633 115.13,27.304C114.006,26.078 112.984,24.646 112.677,22.397C112.677,22.397 120.651,18.819 121.366,17.388C123.616,18.41 124.843,17.592 124.843,17.592C124.945,17.49 124.434,16.877 124.434,16.672C124.638,16.774 124.843,16.979 125.047,16.979C125.089,17.037 125.131,17.095 125.175,17.152C125.627,13.751 125.352,10.745 125,8.688C125.095,8.61 125.19,8.531 125.284,8.454C125.25,8.271 125.215,8.096 125.181,7.93C126.101,7.141 126.888,6.391 126.888,6.247C126.785,6.042 126.581,5.634 126.581,5.327C126.069,5.122 125.047,5.429 124.638,5.736C124.708,6.052 124.947,6.801 125.181,7.93C125.09,8.008 124.998,8.086 124.905,8.164C124.937,8.331 124.968,8.506 125,8.688C124.372,9.199 123.702,9.702 123.111,10.057C123.899,11.613 124.736,13.165 124.024,16.368C120.446,15.755 117.89,11.359 115.845,11.767C115.743,11.052 115.028,9.825 115.743,9.416C115.538,8.803 115.334,7.985 116.254,7.473C115.947,6.655 115.845,5.94 116.766,5.327C116.561,4.816 116.663,3.691 117.787,3.487C117.89,2.567 118.299,1.851 119.116,1.545C118.196,1.136 117.992,0.216 117.992,0.216C118.809,0.727 119.525,1.034 120.751,0.829L120.753,0.827C120.753,0.827 121.366,0.214 121.673,0.214C121.98,0.112 123.616,0.214 124.025,0.521C124.332,0.828 124.537,1.032 124.945,1.748C126.07,2.566 127.91,2.566 129.035,3.486C128.831,3.793 129.342,4.304 128.932,4.508C128.625,4.61 127.91,4.405 127.808,4.61L127.759,4.904L127.808,4.916L128.319,5.019C128.115,5.53 128.012,5.734 127.297,5.53C127.093,6.041 128.217,6.45 128.319,6.655C128.216,6.86 128.012,7.064 127.297,6.655C127.297,6.655 126.389,7.532 125.284,8.454C125.662,10.505 125.956,13.573 125.38,17.416C127.121,19.581 129.823,21.257 131.59,22.106L130.793,22.249C130.969,22.315 131.133,22.365 131.283,22.397L131.999,22.295C131.869,22.237 131.733,22.174 131.59,22.106L133.941,21.681L133.941,21.68C133.942,21.579 134.042,21.68 133.942,21.681L133.941,21.681C134.146,21.783 134.146,22.09 134.043,22.192L126.479,23.624C126.069,24.441 126.683,24.85 126.172,25.566L125.559,26.691C124.741,30.064 126.479,34.256 126.786,34.665C126.786,35.176 126.99,35.483 126.99,35.585C127.092,38.244 127.092,40.595 129.648,41.515C129.853,42.128 130.465,42.742 130.261,43.253L94.071,43.253C93.867,42.743 93.56,42.538 93.56,42.231L100.103,42.231C100.103,42.129 99.694,41.618 99.285,41.311C98.672,40.698 98.672,40.085 99.694,39.778C99.898,39.675 100.103,39.266 99.899,39.061C99.081,38.345 99.388,36.812 98.263,36.096C97.139,35.176 95.81,34.46 94.889,33.438C95.197,31.496 97.548,31.291 98.366,29.553C99.082,28.94 100.411,28.531 100.411,27.406C98.263,28.225 97.037,30.678 94.992,31.496L92.538,34.767C91.516,37.22 90.8,40.491 92.845,42.741L92.742,43.252L78.634,43.252L79.554,42.23L88.856,42.23C89.163,41.617 88.345,40.697 89.163,40.186C89.163,39.777 88.652,39.573 88.448,39.368C89.061,37.017 89.776,34.665 90.083,32.109C90.288,31.803 90.39,31.394 90.799,31.394C90.799,34.052 89.879,36.608 89.265,39.164C90.39,40.186 88.652,41.413 90.083,42.128C90.492,42.026 90.901,42.537 91.208,42.026C91.003,41.412 91.003,40.39 90.083,40.39C90.288,37.22 91.412,34.46 91.617,31.291C92.333,30.984 93.355,29.655 93.355,29.655C91.413,30.166 87.528,30.473 86.608,32.722C86.403,32.927 86.403,33.233 86.403,33.642L86.403,33.65ZM140.221,20.967C140.131,20.838 140.027,20.709 139.976,20.658C139.874,20.658 139.363,20.351 139.465,19.942C139.565,19.535 139.565,19.331 139.36,19.126C139.258,19.024 139.36,18.922 139.36,18.819C139.463,18.512 139.565,18.512 139.565,18.206C139.053,17.797 138.951,16.979 139.258,16.774C139.565,16.467 140.586,16.877 140.586,16.877C141.507,16.161 141.814,15.65 142.324,15.343C143.04,15.343 144.471,16.672 144.471,17.49C144.266,17.797 143.755,18.308 142.937,19.33C143.244,20.045 143.244,20.557 142.733,20.966C142.63,20.966 142.426,20.966 142.222,20.761C142.324,21.783 143.449,22.397 143.857,23.215C143.857,24.851 145.595,26.895 143.653,28.225C143.244,28.429 142.836,28.736 142.631,29.144C142.938,30.78 143.551,32.518 143.858,34.256L141.916,34.359C141.717,34.957 141.128,36.043 141.29,36.665C141.306,36.665 141.34,36.677 141.406,36.71C141.713,37.119 141.815,40.493 141.713,40.799C141.713,41.208 142.02,41.208 141.816,41.924C141.611,42.027 140.794,42.537 140.691,42.844C140.18,43.355 138.749,43.457 138.749,43.253C138.749,42.742 139.771,42.128 139.976,41.515C140.181,39.061 139.976,36.608 138.647,34.665C138.136,34.358 137.727,35.176 137.42,35.585C137.932,37.119 138.852,38.754 138.749,40.492C138.749,41.003 139.362,41.719 139.056,42.435L137.42,43.252L131.49,43.252C131.286,42.945 130.877,42.639 130.979,42.23L136.295,42.23C136.295,42.026 136.806,42.128 137.316,41.31C137.316,38.856 134.76,35.278 135.17,34.052C135.682,32.518 136.398,31.292 137.215,29.247C137.215,28.532 137.317,27.714 137.215,26.896C137.828,23.42 138.544,23.522 138.646,22.5C138.646,22.091 140.18,21.273 140.078,20.864C140.117,20.864 140.17,20.907 140.221,20.967C140.304,21.086 140.376,21.205 140.384,21.261C140.385,21.265 140.385,21.269 140.385,21.273C140.282,21.784 139.261,21.784 139.363,22.909C139.976,21.784 141.715,21.887 141.817,20.557C141.51,19.739 142.226,20.25 142.226,19.432C142.021,19.228 141.408,18.614 141.305,18.307C141.203,18.205 141.612,17.591 140.181,17.591C140.078,17.694 139.976,18.307 139.772,18.613C139.669,18.716 139.465,18.92 139.568,19.022C139.568,19.124 139.772,19.227 139.772,19.635C139.669,20.044 139.772,20.248 139.976,20.453C140.794,20.862 141.408,20.453 140.488,20.964C140.488,21.066 140.488,21.168 140.385,21.271C140.385,21.268 140.385,21.265 140.384,21.261C140.376,21.193 140.3,21.06 140.221,20.967ZM144.472,43.253L141.507,43.253C141.507,42.844 141.915,42.436 142.427,42.231L144.472,42.231L144.472,43.253ZM70.455,43.253L52.564,43.253C52.871,43.049 53.586,42.333 53.689,42.231L69.433,42.231C69.638,42.538 70.149,43.049 70.455,43.253ZM43.875,43.253L39.99,43.253L39.99,42.231L42.853,42.231C42.954,42.436 43.568,42.946 43.875,43.253ZM74.738,42.636L74.343,42.636C74.409,42.639 74.477,42.64 74.544,42.64L74.552,42.64C74.614,42.64 74.676,42.639 74.738,42.636ZM42.823,35.152C42.643,35.703 42.545,36.296 42.545,36.915C42.545,40.084 45.101,42.64 48.27,42.64C48.413,42.64 48.555,42.634 48.695,42.624C48.802,42.515 48.984,42.312 48.984,41.926L48.371,38.757C48.371,38.654 48.269,38.654 48.269,38.654C48.167,38.654 48.065,38.654 47.962,38.552C47.86,38.552 47.86,38.654 47.86,38.654L46.735,41.823C46.633,42.13 46.735,42.437 46.94,42.437C46.655,42.437 46.106,42.172 45.865,42.053C45.845,42.05 45.828,42.041 45.815,42.028C45.83,42.035 45.846,42.044 45.865,42.053C45.994,42.074 46.237,41.886 46.326,41.619L47.451,38.552C47.451,38.45 47.451,38.45 47.348,38.45C47.246,38.347 47.144,38.245 47.144,38.245C47.041,38.143 47.041,38.143 47.041,38.245L44.383,40.289C44.179,40.494 44.179,40.8 44.179,40.903C44.077,40.801 43.566,40.29 43.566,39.983C43.566,40.086 43.872,40.188 44.179,39.881L46.735,37.836L46.735,37.734C46.633,37.632 46.633,37.632 46.633,37.529C46.633,37.427 46.53,37.427 46.53,37.427L43.361,38.041C42.952,38.143 42.85,38.45 42.85,38.552C42.748,38.347 42.645,37.632 42.645,37.325C42.645,37.427 42.951,37.632 43.258,37.632L46.529,37.019L46.529,36.507L43.462,35.485C43.156,35.382 42.849,35.485 42.747,35.587C42.79,35.5 42.834,35.338 42.885,35.158C42.865,35.156 42.844,35.154 42.823,35.152ZM74.342,42.636C74.444,42.634 74.546,42.432 74.546,42.329L74.341,39.262C74.341,39.16 74.341,39.16 74.239,39.16C74.136,39.16 74.034,39.16 73.932,39.057C73.932,39.057 73.829,39.057 73.829,39.16L72.091,41.613C72.091,41.69 72.032,41.886 72.048,41.975C72.729,42.365 73.51,42.603 74.342,42.636ZM77.494,41.622C77.465,41.517 77.408,41.384 77.408,41.307L75.364,39.058C75.364,38.955 75.261,38.955 75.261,38.955C75.159,39.057 74.954,39.16 74.852,39.16C74.852,39.16 74.749,39.16 74.749,39.262L74.954,42.227C74.954,42.39 74.954,42.552 75.057,42.612C75.959,42.513 76.797,42.157 77.494,41.622ZM51.764,41.39C51.687,41.447 51.612,41.492 51.542,41.515C51.644,41.413 51.644,41.106 51.44,40.902L49.293,38.448C49.19,38.346 49.19,38.346 49.087,38.451C48.984,38.451 48.882,38.553 48.78,38.553L48.78,38.655L49.393,41.926C49.393,42.107 49.634,42.369 49.76,42.355C49.775,42.348 49.789,42.341 49.802,42.335C49.79,42.347 49.776,42.353 49.76,42.355C49.612,42.422 49.339,42.517 49.085,42.579C50.083,42.429 51.002,42.008 51.764,41.39ZM71.499,41.612C71.593,41.599 71.688,41.504 71.784,41.409L73.522,38.853C73.522,38.853 73.522,38.751 73.42,38.751C73.42,38.648 73.317,38.546 73.215,38.546C73.215,38.546 73.215,38.444 73.113,38.444L70.353,39.671C70.271,39.671 70.121,39.805 70.067,39.91C70.408,40.574 70.9,41.157 71.499,41.612ZM53.374,39.311C53.344,39.2 53.231,39.028 52.973,38.856L49.804,37.731C49.804,37.731 49.702,37.731 49.702,37.833L49.6,37.936L49.6,38.141L51.849,40.595C51.951,40.799 52.359,40.799 52.462,40.697C52.34,40.819 52.147,41.049 51.945,41.237C52.545,40.708 53.035,40.052 53.374,39.311ZM79.193,39.272C79.125,39.21 79.009,39.163 78.94,39.163L75.873,38.345C75.771,38.448 75.771,38.55 75.669,38.652L75.669,38.755L77.713,41.106C77.713,41.106 77.837,41.23 77.941,41.235C78.502,40.691 78.937,40.018 79.193,39.272ZM69.602,36.917C69.558,37.183 69.535,37.455 69.535,37.733C69.535,38.365 69.662,38.975 69.894,39.536C69.862,39.414 69.842,39.308 69.842,39.262C69.842,39.365 70.046,39.262 70.149,39.262L73.011,38.036L73.011,37.524C73.011,37.524 73.011,37.422 72.909,37.422L70.931,36.927C70.484,36.943 70.042,36.94 69.602,36.917ZM79.231,36.261C79.166,36.197 78.941,36.197 78.941,36.197L75.976,37.322L75.976,37.833C75.976,37.833 75.976,37.936 76.078,37.936L78.941,38.754C79.089,38.754 79.238,38.754 79.348,38.714C79.415,38.396 79.451,38.068 79.451,37.733C79.451,37.221 79.374,36.727 79.231,36.261ZM140.433,37.277C140.337,37.278 140.249,37.289 140.182,37.322L140.18,37.323C140.077,37.732 140.18,38.243 140.384,38.55C141.304,38.652 141.202,38.448 140.997,37.323C140.861,37.323 140.633,37.277 140.436,37.277L140.433,37.277ZM53.882,36.562C53.836,36.456 53.635,36.313 53.28,36.402L50.009,36.913C50.009,36.913 49.907,36.913 49.907,37.016L49.907,37.22C49.907,37.323 49.907,37.323 50.009,37.323L53.178,38.448C53.337,38.528 53.559,38.483 53.697,38.411C53.825,37.934 53.893,37.433 53.893,36.915C53.893,36.796 53.889,36.679 53.882,36.562ZM136.397,36.812C136.499,37.119 136.805,37.834 137.009,38.039C137.316,38.039 137.521,37.834 137.725,37.732C137.725,37.323 137.418,36.812 137.214,36.505L136.397,36.812ZM73.421,36.657C72.961,36.738 72.511,36.801 72.07,36.847L73.011,37.116C73.114,37.116 73.216,37.014 73.216,37.014C73.216,36.912 73.318,36.707 73.421,36.707L73.421,36.657ZM78.766,35.202C77.713,35.561 76.736,35.866 75.815,36.115L75.567,36.503C75.465,36.503 75.567,36.605 75.567,36.707C75.67,36.707 75.772,36.81 75.772,36.912C75.874,36.912 75.874,37.015 75.874,36.912L78.898,35.803C78.942,35.764 78.982,35.718 79.009,35.674C78.936,35.512 78.855,35.355 78.766,35.202ZM140.498,36.76C140.622,36.76 140.744,36.759 140.793,36.709C140.486,36.198 140.486,35.789 140.486,35.278C140.486,34.971 140.69,34.358 140.894,35.687C141.202,35.79 141.712,33.336 141.815,32.518C139.873,32.927 141.815,30.678 140.383,30.576L141.099,29.349C141.099,28.94 140.792,28.633 140.281,28.838L139.873,28.327C139.566,28.225 139.26,27.713 138.851,27.407C138.544,27.714 138.033,28.327 137.931,28.736C137.828,28.839 138.135,28.941 138.238,28.839C138.545,28.532 138.749,29.145 139.26,29.043C139.464,28.839 140.077,28.736 139.873,28.328L140.281,28.839C139.873,29.043 139.873,29.759 139.873,30.27C139.157,31.599 139.464,29.554 138.645,29.554C138.134,29.861 137.93,29.043 137.623,29.145L137.623,29.145C136.703,32.211 135.374,33.745 135.579,34.665C135.682,35.176 135.886,35.585 136.192,36.199L136.196,36.199C136.807,36.197 137.213,35.789 136.703,35.483C138.135,34.768 136.397,34.972 136.908,34.665C137.725,34.256 138.135,32.723 138.237,31.803C138.237,31.598 138.339,31.496 138.544,31.496C139.157,33.131 139.157,35.278 140.18,36.812L140.181,36.811C140.231,36.762 140.352,36.761 140.475,36.761L140.498,36.76ZM141.29,36.665C141.256,36.663 141.303,36.71 141.303,36.71C141.298,36.695 141.294,36.68 141.29,36.665ZM53.512,34.863C52.582,34.996 51.641,35.087 50.705,35.152L49.702,35.995L49.702,36.094C49.804,36.197 49.804,36.299 49.907,36.401C49.907,36.401 49.907,36.504 50.009,36.504L53.178,35.993C53.472,35.92 53.66,35.74 53.743,35.607C53.683,35.351 53.606,35.103 53.512,34.863ZM71.691,34.511C71.274,34.615 70.862,34.724 70.46,34.838C70.206,35.195 69.997,35.587 69.843,36.005C69.852,36.103 69.953,36.201 70.149,36.298L70.443,36.382C71.228,36.371 72.098,36.313 73.011,36.199C73.033,36.196 73.055,36.193 73.078,36.19L71.691,34.511ZM69.84,36.012C69.796,36.132 69.756,36.255 69.721,36.379L69.729,36.379L69.73,36.377L69.749,36.32C69.791,36.194 69.831,36.072 69.84,36.012ZM69.021,35.271C68.398,35.472 67.813,35.681 67.285,35.892C67.081,35.994 67.081,35.994 67.388,36.096C67.712,36.193 68.149,36.27 68.673,36.32C68.757,35.956 68.874,35.605 69.021,35.271ZM75.289,36.253C75.228,36.269 75.166,36.284 75.105,36.299L75.26,36.299L75.289,36.253ZM74.165,33.959C73.496,34.089 72.822,34.236 72.156,34.396L73.569,36.108C73.776,36.068 73.999,36.02 74.235,35.966L74.165,33.959ZM46.632,36.098L46.734,36.098C46.837,35.996 46.837,35.996 46.939,35.894L46.939,35.791L46.501,35.313C45.787,35.316 45.075,35.302 44.365,35.266L46.632,36.098ZM78.898,35.803C78.892,35.808 78.887,35.812 78.881,35.817L78.736,35.89C78.775,35.89 78.829,35.86 78.881,35.817L78.941,35.787L78.898,35.803ZM76.973,33.511C76.207,33.602 75.396,33.729 74.571,33.882L74.639,35.869C74.982,35.785 75.345,35.688 75.717,35.585L76.896,33.743C76.946,33.694 76.971,33.598 76.973,33.511ZM49.961,35.199C49.686,35.215 49.411,35.229 49.138,35.241L49.088,35.381C48.985,35.381 49.088,35.484 49.088,35.484C49.19,35.586 49.293,35.586 49.395,35.586C49.395,35.688 49.395,35.688 49.497,35.586L49.961,35.199ZM47.736,35.293C47.518,35.299 47.301,35.304 47.083,35.307L47.245,35.484L47.347,35.484C47.45,35.484 47.552,35.381 47.654,35.381C47.696,35.339 47.721,35.315 47.736,35.293ZM77.512,33.763C77.408,33.798 77.278,33.872 77.203,33.947L76.252,35.432C76.994,35.217 77.756,34.979 78.466,34.746C78.193,34.376 77.872,34.045 77.512,33.763ZM48.632,35.263C48.51,35.267 48.389,35.272 48.267,35.276L48.269,35.278L48.576,35.278C48.576,35.278 48.605,35.278 48.632,35.263ZM44.689,33.337C44.349,33.388 44.017,33.442 43.697,33.502C43.399,33.888 43.151,34.315 42.963,34.774L43.005,34.778C43.044,34.673 43.087,34.574 43.136,34.493C43.14,34.481 43.147,34.471 43.156,34.462C43.149,34.472 43.143,34.483 43.136,34.493C43.109,34.567 43.168,34.693 43.282,34.801C44.176,34.871 45.145,34.905 46.129,34.908L44.689,33.337ZM47.348,33.064C46.618,33.108 45.9,33.176 45.212,33.265L46.715,34.906C47.044,34.903 47.373,34.896 47.701,34.887L47.348,33.064ZM49.696,31.474C49.24,31.355 48.761,31.292 48.27,31.292C48.09,31.292 47.913,31.3 47.738,31.315C47.686,31.379 47.553,31.576 47.553,31.905L47.671,32.536C47.803,32.529 47.934,32.523 48.065,32.519L48.065,32.519L48.066,32.519L48.065,32.519L48.065,33.03L48.066,33.03C47.966,33.034 47.866,33.038 47.766,33.042L48.11,34.873C48.13,34.872 48.149,34.872 48.169,34.871C48.376,34.871 48.583,34.869 48.792,34.866L49.456,33.054C48.996,33.038 48.531,33.03 48.066,33.03L48.066,32.519L48.066,32.519L48.066,32.519C48.593,32.519 49.117,32.533 49.637,32.561L49.803,32.109C49.878,31.886 49.789,31.608 49.696,31.474ZM49.908,33.072L49.275,34.854C49.664,34.842 50.053,34.825 50.438,34.802L51.951,33.542C52.02,33.438 52.078,33.334 52.12,33.238C51.419,33.163 50.673,33.107 49.908,33.072ZM52.891,33.698C52.751,33.651 52.504,33.683 52.258,33.848L51.182,34.752C51.946,34.693 52.685,34.615 53.366,34.522C53.231,34.232 53.072,33.957 52.891,33.698ZM42.278,33.808C41.725,33.948 41.229,34.099 40.808,34.257C40.604,34.257 40.604,34.462 40.808,34.462C41.144,34.537 41.513,34.601 41.91,34.656C42.013,34.364 42.137,34.081 42.278,33.808ZM81.542,33.628C80.933,33.371 79.905,33.299 78.647,33.363C78.967,33.674 79.253,34.022 79.498,34.4C80.451,34.071 81.21,33.784 81.542,33.628ZM54.082,33.522C54.238,33.786 54.377,34.061 54.497,34.345C54.833,34.285 55.145,34.221 55.427,34.155C55.631,34.053 55.631,33.848 55.427,33.848C55.041,33.728 54.588,33.618 54.082,33.522ZM73.994,32.754C73.142,32.848 72.353,33.156 71.683,33.624C71.686,33.693 71.695,33.775 71.722,33.845C72.499,33.644 73.316,33.459 74.142,33.305L74.136,33.129C74.136,33.048 74.071,32.837 73.994,32.754ZM52.568,33.289C52.622,33.352 52.675,33.415 52.727,33.474C52.679,33.412 52.629,33.351 52.579,33.291L52.568,33.289ZM74.692,32.726C74.545,32.762 74.545,32.946 74.545,33.129L74.549,33.232C75.082,33.141 75.617,33.063 76.146,33.005C75.686,32.839 75.197,32.742 74.692,32.726ZM45.692,31.88C45.128,32.155 44.618,32.518 44.18,32.953C44.194,32.951 44.207,32.948 44.22,32.946C44.401,32.757 44.688,32.533 44.853,32.438C44.864,32.424 44.878,32.416 44.894,32.416C44.881,32.422 44.868,32.43 44.853,32.438C44.811,32.494 44.815,32.65 44.89,32.831C45.395,32.751 45.905,32.683 46.418,32.631C46.153,32.379 45.908,32.13 45.692,31.88ZM50.646,31.815C50.513,31.849 50.296,31.963 50.213,32.212L50.08,32.587C50.763,32.633 51.437,32.701 52.101,32.79C51.672,32.393 51.181,32.063 50.646,31.815ZM46.68,31.506C46.606,31.527 46.533,31.548 46.461,31.571C46.702,31.882 46.976,32.209 47.23,32.454L47.144,32.008C47.055,31.739 46.808,31.549 46.68,31.506ZM137.215,29.247L137.215,29.248L137.623,29.145L137.623,29.144L137.215,29.247ZM115.13,27.304C115.233,27.509 114.823,27.099 115.13,27.304ZM50.456,24.217C50.332,23.994 50.206,23.774 50.008,23.625C50.11,24.75 49.19,25.567 49.088,26.487C49.701,26.692 50.519,26.692 50.826,26.589C51.235,26.487 51.746,26.589 51.951,26.896C52.258,26.999 52.462,27.203 52.871,27.203L52.871,27.204C53.178,27.306 53.382,27.306 53.586,27.306C52.871,26.284 51.644,25.977 50.928,24.852C50.73,24.703 50.604,24.483 50.48,24.26L50.456,24.217ZM109.712,15.753C109.609,17.9 109.303,18.922 110.837,22.296C106.952,23.932 103.782,25.056 99.182,26.385C99.694,23.114 102.863,16.877 105.521,15.139C107.77,15.753 109.712,15.753 109.712,15.753ZM92.946,25.027C93.319,24.816 93.885,24.546 94.377,24.238C94.07,21.886 93.866,18.82 95.809,16.877C93.039,17.8 92.736,22.128 92.946,25.027C92.699,25.167 92.537,25.281 92.537,25.363C92.537,25.363 92.231,25.977 92.64,25.874C92.771,25.801 92.891,25.733 93.003,25.668C92.982,25.464 92.962,25.25 92.946,25.027ZM130.793,22.249C129.292,21.692 126.984,20.03 126.069,19.023C125.353,20.556 126.989,21.17 126.581,23.01L130.793,22.249ZM111.859,15.241C111.962,15.957 111.552,16.468 111.552,17.183C112.268,18.921 111.552,20.25 111.757,21.886C110.939,21.375 110.735,20.046 110.428,18.615C110.224,17.388 110.531,16.979 110.632,15.651L111.859,15.241ZM115.335,2.871C114.926,3.484 114.108,3.893 114.619,5.018C113.597,5.631 113.903,6.551 114.21,7.062C113.699,7.573 113.393,8.596 114.108,9.209C113.29,10.129 114.312,10.947 114.619,11.254C114.21,12.174 114.619,12.889 114.619,12.889C114.516,13.503 113.392,14.525 112.983,14.832C112.37,16.365 112.574,19.535 112.676,21.682C115.538,20.25 118.401,18.922 120.651,16.979C118.709,15.65 117.174,12.481 115.028,12.686C114.823,10.436 113.903,6.45 117.073,2.36C117.481,2.155 118.094,2.053 118.401,1.849C117.073,1.644 115.335,2.462 114.108,1.747C114.109,1.747 114.722,2.769 115.335,2.871ZM140.792,18.717C140.587,18.512 140.485,18.41 140.28,18.41C140.178,18.307 140.28,18.205 140.383,18.205C140.486,18.103 140.69,18.205 140.792,18.41C140.893,18.513 140.893,18.717 140.792,18.717ZM124.905,8.164C124.624,6.7 124.331,5.838 124.331,5.838C123.31,6.247 122.594,5.94 122.082,6.042C122.006,7.609 122.43,8.676 122.926,9.687C122.745,9.804 122.596,9.888 122.492,9.927C122.492,9.927 120.754,11.154 122.595,10.336C122.757,10.259 122.931,10.165 123.111,10.057C123.049,9.934 122.987,9.811 122.926,9.687C123.433,9.358 124.188,8.766 124.905,8.164ZM127.759,4.904L127.399,4.814C127.387,4.818 127.375,4.822 127.363,4.825C127.336,4.981 127.296,5.121 127.296,5.121L127.705,5.223L127.759,4.904ZM127.363,4.825C127.397,4.628 127.41,4.405 127.296,4.405C127.092,4.303 126.683,4.098 126.479,4.2C126.376,4.303 126.479,4.405 126.582,4.609C126.582,4.806 127.054,4.908 127.363,4.825ZM120.751,0.829L120.549,1.032L121.98,2.054L122.185,1.849L122.185,1.85C122.187,1.952 122.594,2.156 122.594,2.156C122.594,2.156 123.003,2.054 123.003,1.951C123.003,1.849 123.105,1.542 123.003,1.44C122.9,1.44 122.594,1.337 122.389,1.337C122.389,1.338 122.185,1.747 122.185,1.849L120.752,0.829L120.751,0.829ZM85.491,33.538C86.194,33.326 85.59,32.207 86.914,31.291C85.483,31.393 82.825,32.006 81.189,32.722C82.007,32.927 82.62,33.438 83.234,33.949C83.438,33.745 85.074,33.54 85.483,33.54L85.487,33.539L85.491,33.538ZM122.491,28.934C122.488,28.426 122.081,28.121 121.878,27.815C120.038,28.02 118.81,28.327 116.357,27.202C115.846,27.509 114.926,26.895 116.46,27.611C118.504,28.735 120.242,29.553 122.491,28.94L122.491,28.937L122.491,28.934Z" style="fill:rgb(243,112,33);"/>
    </g>
</svg>
