<?xml version="1.0" encoding="UTF-8" standalone="no"?>
<!DOCTYPE svg PUBLIC "-//W3C//DTD SVG 1.1//EN" "http://www.w3.org/Graphics/SVG/1.1/DTD/svg11.dtd">
<svg width="100%" height="100%" viewBox="0 0 560 400" version="1.1" xmlns="http://www.w3.org/2000/svg" xmlns:xlink="http://www.w3.org/1999/xlink" xml:space="preserve" xmlns:serif="http://www.serif.com/" style="fill-rule:evenodd;clip-rule:evenodd;stroke-linejoin:round;stroke-miterlimit:1.41421;">
    <g transform="matrix(5.70407,-9.35567e-32,9.35567e-32,-5.70407,-179.948,3099.51)">
        <g id="path3023" transform="matrix(1,0,0,1,106.932,508.322)">
            <path d="M0,0C0,14.524 -11.773,26.297 -26.297,26.297C-26.693,26.297 -27.087,26.287 -27.479,26.269L-32.858,11.485L-28.173,11.485C-25.386,11.485 -23.884,9.339 -24.838,6.718L-31.473,-11.516L-37.044,-11.515L-29.924,8.029L-34.113,8.029L-41.233,-11.515L-46.806,-11.515L-38.434,11.485L-38.433,11.485L-33.397,25.326C-44.471,22.228 -52.594,12.063 -52.594,0C-52.594,-12.421 -43.981,-22.83 -32.402,-25.583L-27.522,-12.172L-27.518,-12.172L-18.909,11.485L-8.648,11.485C-5.858,11.485 -4.357,9.339 -5.311,6.718L-11.141,-9.297C-11.585,-10.517 -13.01,-11.515 -14.308,-11.515L-21.704,-11.515L-27.078,-26.285C-26.819,-26.292 -26.558,-26.297 -26.297,-26.297C-11.773,-26.297 0,-14.523 0,0" style="fill:rgb(0,150,214);fill-rule:nonzero;"/>
        </g>
        <g id="path3027" transform="matrix(1,0,0,1,96.547,516.365)">
            <path d="M0,0L-4.187,0L-10.051,-16.089L-5.864,-16.089L0,0" style="fill:rgb(0,150,214);fill-rule:nonzero;"/>
        </g>
    </g>
</svg>
