<svg viewBox="0 0 560 400" xmlns="http://www.w3.org/2000/svg" xmlns:serif="http://www.serif.com/" fill-rule="evenodd" clip-rule="evenodd"><path fill="none" d="M0 0h560v400h-560z"/><clipPath id="a"><path serif:id="Artboard1" d="M0 0h560v400h-560z"/></clipPath><g clip-path="url(#a)"><clipPath id="b"><path d="M50 126.676h460v146.648h-460z"/></clipPath><g clip-path="url(#b)"><path d="M109.446 170.217c-.063 0 0 27.988 0 27.988 0 3.517-3.035 6.583-6.992 6.583h-3.788v1.434h32.101v-1.434h-3.789c-3.904 0-6.981-3.129-6.981-6.583v-62.339c0-3.412 3.014-6.594 6.981-6.594h3.789v-1.434h-32.101v1.423h3.788c4.02 0 6.992 3.193 6.992 6.594v30.395h-38.046v-30.395c0-3.412 3.077-6.594 6.981-6.594h3.789v-1.423h-32.111v1.423h3.799c3.956 0 6.981 3.193 6.981 6.594v62.34c0 3.464-3.025 6.583-6.981 6.583h-3.799v1.434h32.101v-1.424h-3.789c-3.904 0-6.981-3.129-6.981-6.583 0 0 .052-27.988 0-27.988h38.056zm76.344 15.501c.282 4.606-2.575 11.587-6.542 15.177-4.482 4.15-10.376 6.448-16.485 6.426-8.247 0-15.333-4.396-17.919-5.4-1.58-.587-3.632-.513-4.846.24-1.434.869-2.313 2.303-2.648 4.951h-1.203v-27.171h1.203c1.099 8.363 5.003 13.261 7.432 16.066 3.956 4.553 11.429 7.138 18.63 5.987 5.725-.932 11.984-7.138 11.294-14.831-.241-2.774-.859-6.804-6.626-10.582-3.621-2.366-8.76-5.715-13.638-8.949-6.144-4.082-11.722-8.499-13.303-10.289-2.041-2.334-4.605-5.715-4.605-11.105 0-4.605 1.748-9.891 5.495-13.408 3.736-3.516 8.792-6.154 16.045-6.154 7.254 0 12.759 3.852 14.622 4.731 1.613.777 3.495.777 5.108 0 1.162-.659 1.926-1.664 2.261-4.281h1.193v25.717h-1.193c-1.099-8.353-4.731-14.622-7.264-16.935-2.533-2.314-7.473-5.495-14.842-4.061-7.054 1.36-10.498 4.563-11.147 10.215-.502 4.302 1.842 6.971 3.192 8.583 2.753 3.297 20.191 13.177 28.082 20.012 4.082 3.517 7.264 7.693 7.704 15.061zm50.847-19.52c13.962 4.794 17.95 14.664 15.354 24.816-3.046 11.953-16.516 14.392-20.891 14.978-1.968.241-7.002.22-11.984.22-8.887.01-20.117-.021-29.14-.021v-1.434h4.616c2.941 0 6.301-2.47 6.301-6.207v-62.58c0-3.736-3.36-6.269-6.269-6.269h-4.616v-1.445h27.873c6.709 0 10.351.649 12.696 1.11 3.956.764 15.501 4.176 18.253 14.946 2.125 8.353-2.03 18.872-12.193 21.886zm-25.298-2.198c3.852.984 15.177 1.246 19.572-1.539 6.888-4.375 9.274-11.387 8.007-17.604-.734-3.856-2.933-7.283-6.133-9.556-6.709-4.731-16.38-3.967-21.436-2.429v31.128h-.01zm0 37.795c5.432 1.685 15.763 2.973 22.974-2.177 8.646-6.186 10.467-21.31-1.748-29.191-4.909-3.172-17.165-2.952-21.237-2v33.368h.011zm114.128-72.586l1.13 26.554-1.58.052c-.775-6.709-3.287-11.44-6.489-14.507-.921-.889-2.659-2.69-5.171-4.27-5.267-3.409-11.63-4.714-17.814-3.653-11.105 1.978-16.82 9.315-19.667 16.38-3.527 8.688-5.757 23.529.199 36.068 4.857 10.164 14.161 14.392 21.331 15.481 6.123.942 19.688.659 30.029-13.304l1.643 1.099c-8.028 11.325-18.693 18.579-30.908 18.474-15.595-.146-25.402-8.729-29.893-13.858-4.731-5.38-8.352-15.605-8.404-24.523-.032-7.913 1.716-16.736 4.553-21.886 4.898-8.844 15.124-17.647 28.584-18.955 10.079-1.005 16.705.984 22.367 4.218 2.837 1.623 4.428 1.811 5.966 1.162 1.528-.659 2.774-1.978 2.774-4.574h1.35v.042z"/><path d="M352.45 167.067l39.166 39.166v-78.332l-39.166 39.166zm39.166 39.166h78.332l-39.166-39.166-39.166 39.166zm39.166-39.166l39.166-39.166h-78.332l39.166 39.166zM469.948 127.901v78.332l39.167-39.166-39.167-39.166zm-360.837 131.408c0-3.674 2.094-6.657 5.621-6.657 4.103 0 5.809 2.91 5.715 6.657h-11.336zm268.417 2.46c.105 4.145-.827 8.478-5.84 8.478-2.502 0-4.417-1.392-4.417-4.155 0-3.266 3.422-4.187 6.018-4.323h4.239zm-59.712-.335c0-4.773 1.633-8.782 6.688-8.782 5.035 0 6.688 4.02 6.688 8.782 0 4.794-1.653 8.802-6.688 8.802-5.055.011-6.688-4.008-6.688-8.802zm-78.311-.031c0-4.198 1.245-8.876 6.332-8.876 4.815 0 6.343 4.804 6.343 8.876 0 4.197-1.214 8.959-6.343 8.959-4.773 0-6.332-4.762-6.332-8.959zm-54.354.031c0-4.773 1.654-8.782 6.689-8.782 5.055 0 6.698 4.02 6.698 8.782 0 4.794-1.643 8.802-6.698 8.802-5.035.011-6.689-4.008-6.689-8.802zm-124.28-17.176h-10.812v-3.841h26.072v3.841h-10.802v28.386h-4.458v-28.386zm430.367 28.386v-32.227h4.239v18.965l8.394-9.147h5.484l-9.461 9.514 10.037 12.895h-5.485l-8.875-12.089h-.094v12.089h-4.239zm-22.273-19.091h.094c1.434-2.826 4.553-3.978 6.772-3.978 1.559 0 8.488.398 8.488 7.589v15.48h-4.239v-14.088c0-3.706-1.57-5.715-5.139-5.715 0 0-2.313-.147-4.103 1.643-.628.628-1.79 1.601-1.79 5.977v12.183h-4.239v-22.409h4.145v3.318h.011zm-15.156 8.216c.084 4.145-.848 8.478-5.851 8.478-2.501 0-4.417-1.392-4.417-4.155 0-3.266 3.433-4.187 6.018-4.323h4.25zm-3.841-2.962c-5.307 0-10.886 1.831-10.886 8.132 0 4.365 3.925 6.375 7.808 6.375 3.078 0 5.579-1.204 6.961-4.02h.084c.041 1.026.136 2.01.23 3.036.031.544.806.314 1.193.314h2.857c-.178-3.747-.178-15.449-.178-15.449 0-6.249-4.553-7.63-9.147-7.63-4.417 0-8.259 1.737-8.489 6.646h4.48c.042-2.324 2.041-3.569 4.187-3.569 4.511 0 4.73 2.271 4.73 6.154h-3.83v.011zm-20.054 2.627c0 4.207-1.56 8.802-6.333 8.802-5.139 0-6.332-4.595-6.332-8.802 0-4.04 1.518-8.782 6.332-8.782 5.087 0 6.333 4.606 6.333 8.782zm-12.581 7.86l-.084-.219h.084c1.517 3.129 4.469 4.239 7.724 4.239 6.646 0 9.326-6.113 9.326-11.88 0-6.071-3.13-11.859-10.09-11.859-2.847 0-5.662 1.026-6.971 3.705h-.084v-12.863h-4.238v28.658c0 .879-.137 2.229-.231 3.569h4.375l.189-3.35zm-28.428 3.35v-32.227h4.229v32.227h-4.229zm-15.208-13.837c-5.306 0-10.885 1.831-10.885 8.132 0 4.365 3.935 6.375 7.808 6.375 3.077 0 5.579-1.204 6.96-4.02h.084c.063 1.026.136 2.01.22 3.036.042.544.816.314 1.204.314h2.857c-.178-3.747-.178-15.449-.178-15.449 0-6.249-4.553-7.63-9.158-7.63-4.417 0-8.258 1.737-8.478 6.646h4.469c.042-2.324 2.041-3.569 4.187-3.569 4.511 0 4.72 2.271 4.72 6.154h-3.81v.011zm-19.007-1.382c-.22-2.815-1.56-4.773-4.584-4.773-4.062 0-5.632 3.517-5.632 8.782 0 5.275 1.56 8.802 5.632 8.802 2.815 0 4.552-1.842 4.772-5.045h4.239c-.356 5.045-4.103 8.123-9.064 8.123-7.19 0-10.037-5.098-10.037-11.692 0-6.562 3.307-12.047 10.404-12.047 4.73 0 8.289 2.994 8.519 7.85h-4.249zm-30.186-7.85c-7.368 0-11.157 4.909-11.157 11.859 0 6.971 3.799 11.88 11.157 11.88 7.358 0 11.168-4.92 11.168-11.88 0-6.95-3.81-11.859-11.168-11.859zm-21.519 23.069v-32.227h4.239v32.227h-4.239zm-27.182-23.069c4.239 0 9.012 1.78 8.698 6.866h-4.459c.178-2.847-2.01-3.789-4.469-3.789-2.282 0-4.114 1.078-4.114 3.57 0 2.501 3.841 2.679 5.443 3.171 3.799 1.256 8.174 1.696 8.174 6.751 0 5.484-5.348 7.19-9.953 7.19-4.7 0-8.614-2.145-8.573-7.316h4.459c.094 2.774 1.968 4.239 4.553 4.239 2.491 0 5.045-.994 5.045-3.893 0-5.003-13.617-1.246-13.617-9.996.021-4.699 4.752-6.793 8.813-6.793zm-11.88-9.148h5.181l-4.992 10.928h-3.036l2.847-10.928zm-11.785 12.864h-.094c-1.298-2.69-4.103-3.705-6.961-3.705-6.96 0-10.037 5.798-10.037 11.858 0 5.767 2.627 11.88 9.284 11.88 3.265 0 6.206-1.109 7.714-4.239h.094v.22l.125 3.349h4.334c-.084-1.298-.22-2.627-.22-3.967v-28.26h-4.239v12.864zm-27.454 19.353v-32.227h4.239v32.227h-4.239zm-12.089 0h-4.239v-22.409h4.239v4.333h.094c.628-3.088 3.475-4.637 6.563-4.637l1.475.031v4.009c-.586-.209-1.256-.209-1.831-.209-5.349.167-6.301 3.035-6.301 7.766v11.116zm-20.755-23.069c-7.358 0-11.158 4.909-11.158 11.859 0 6.971 3.8 11.88 11.158 11.88 7.379 0 11.167-4.92 11.167-11.88 0-6.95-3.788-11.859-11.167-11.859zm-13.785.67l-7.902 22.409h-4.815l-5.223-18.442h-.094l-5.799 18.442h-4.95l-7.411-22.409h4.595l5.401 18.045h.094l5.579-18.045h5.484l5.045 17.678h.095l5.578-17.678h4.323zm-53.15 12.005v-2.093c0-6.217-3.171-10.456-9.859-10.582-7.097 0-10.404 5.485-10.404 12.047 0 6.594 2.857 11.692 10.038 11.692 5.358 0 9.294-2.544 9.953-7.641h-4.458c-.482 3.265-2.136 4.574-5.443 4.574-4.323 0-5.935-4.061-5.621-7.997h15.794zm-45.163 10.394v-32.227h4.239v12.811h.094c1.601-2.501 4.009-3.663 7.264-3.663 5.84 0 7.672 3.883 7.672 7.892v15.176h-4.229v-13.24c0-3.925-1.025-6.479-5.003-6.552-1.695-.053-4.291 1.245-5.086 3.108-.984 2.334-.712 3.936-.712 5.181v11.514h-4.239z" fill="#db0011"/></g></g></svg>