<?xml version="1.0" encoding="UTF-8" standalone="no"?>
<!DOCTYPE svg PUBLIC "-//W3C//DTD SVG 1.1//EN" "http://www.w3.org/Graphics/SVG/1.1/DTD/svg11.dtd">
<svg width="100%" height="100%" viewBox="0 0 560 400" version="1.1" xmlns="http://www.w3.org/2000/svg" xmlns:xlink="http://www.w3.org/1999/xlink" xml:space="preserve" xmlns:serif="http://www.serif.com/" style="fill-rule:evenodd;clip-rule:evenodd;stroke-linejoin:round;stroke-miterlimit:1.41421;">
    <g transform="matrix(0.842247,0,0,0.842247,135.941,100)">
        <rect id="rect7081" x="0" y="0" width="342.083" height="237.46"/>
        <path id="path1030" d="M314.041,56.489C310.451,53.281 306.601,57.13 307.629,60.85C308.653,64.571 306.601,66.624 306.601,66.624C312.502,66.367 317.631,59.825 314.041,56.489" style="fill:white;fill-rule:nonzero;"/>
        <path id="path1032" d="M264.409,96.927L263.932,96.107C257.918,98.5 254.185,98.731 255.419,94.126C258.409,87.601 261.268,81.072 264.265,74.414C268.5,74.472 267.821,78.171 267.39,82.013C267.648,82.025 267.896,82.169 268.146,82.314L274.431,68.212L273.543,67.906C272.461,71.987 267.273,73.218 266.144,69.705C268.442,64.349 270.737,58.991 273.166,53.508C276.472,54.189 279.495,55.524 279.524,63.382C279.91,63.399 280.422,63.422 280.805,63.439L282.572,55.529L264.752,46.47C264.833,47.539 264.053,50.568 263.363,51.602C257.443,66.251 253.162,75.781 247.056,88.822C245.659,91.29 244.571,92.707 243.403,92.921C244.528,93.637 261.075,102.504 261.075,102.504L264.409,96.927" style="fill:white;fill-rule:nonzero;"/>
        <path id="path1034" d="M300.246,63.656C296.451,61.238 292.654,58.684 288.855,56.268C288.82,57.917 288.661,59.564 287.985,61.199C281.427,74.268 274.745,87.195 268.061,100.258C266.346,102.561 265.194,102.401 263.91,102.51C269.994,106.075 276.079,109.639 282.161,113.204L288.059,107.136L286.92,106.426C283.407,108.691 278.138,109.27 276.529,106.348C283.479,92.876 290.305,79.265 297.254,65.794C297.789,64.705 298.831,63.9 300.246,63.656" style="fill:white;fill-rule:nonzero;"/>
        <path id="path1036" d="M251.96,49.516C252.907,47.534 253.975,45.821 255.536,44.923C251.724,43.361 247.911,41.8 244.105,40.105C244.059,41.976 244.016,43.846 243.714,45.71C239.312,58.17 235.033,70.768 230.76,83.23C229.932,85.617 228.736,87.325 227.297,88.495C231.112,89.923 235.054,91.354 238.873,92.647C238.406,90.765 238.583,88.764 239.268,86.908C243.411,74.442 247.688,61.979 251.96,49.516" style="fill:white;fill-rule:nonzero;"/>
        <path id="path1038" d="M312.617,76.414C296.905,77.036 301.702,99.96 301.588,102.188C301.536,103.18 304.039,119.106 296.219,118.673C288.532,118.245 290.286,107.501 290.286,107.501C290.437,107.133 289.793,106.746 289.36,107.355C287.78,109.674 285.638,112.599 284.351,114.303C284.222,116.779 286.805,113.121 289.124,117.143C293.777,124.815 302.025,122.034 305.78,118.776C313.143,112.627 311.658,102.797 311.572,94.117C311.527,89.902 309.655,79.815 315.793,79.341C322.327,78.875 322.505,88.302 321.845,90.765C321.826,91.136 322.731,91.654 323.015,91.288C324.325,89.088 325.901,86.894 327.726,84.953C327.866,84.832 327.355,84.448 327.242,84.074C327.242,84.074 327.464,84.947 325.252,84.026C323.172,83.11 323.277,75.922 312.617,76.414" style="fill:white;fill-rule:nonzero;"/>
        <path id="path1040" d="M211.847,51.613L218.258,85.177L223.776,86.509L235.703,41.224C236.219,39.626 236.984,38.561 238.012,37.761C235.831,37.229 233.268,36.429 231.087,35.897C231.73,37.229 231.73,38.826 231.47,40.425C229.162,48.684 226.852,58.006 224.547,66.131L216.977,33.766C214.543,33.233 212.105,32.833 209.794,32.3C210.308,33.632 210.694,35.231 210.565,37.095C208.125,50.282 205.563,63.601 203.125,76.92C202.741,78.917 202.101,80.516 201.073,81.981C203.255,82.247 205.305,82.646 207.486,83.046C206.845,81.181 206.332,79.051 206.591,77.851C208.385,69.594 210.18,59.738 211.847,51.613" style="fill:white;fill-rule:nonzero;"/>
        <path id="path1042" d="M161.122,46.537C161.011,56.949 163.69,78.123 151.382,77.342C151.256,57.56 151.265,37.788 151.132,18.139C161.818,15.73 161.096,34.379 161.122,46.537ZM139.028,14.568C139.864,15.832 140.295,17.2 140.571,18.823C140.735,38.074 141.021,57.466 141.176,76.848C141.018,78.975 140.247,80.387 138.976,81.361C144.051,81.07 151.143,80.529 153.951,80.338C176.286,78.66 178.743,15.252 153.903,14.873C150.322,14.74 143.818,14.523 139.028,14.568" style="fill:white;fill-rule:nonzero;"/>
        <path id="path1044" d="M93.233,39.886C94.385,40.941 94.896,42.125 95.401,43.705C98.697,57.255 101.989,70.807 105.281,84.358C105.403,86.067 105.144,87.513 104.754,88.695C108.606,87.524 112.457,86.353 116.307,85.313C115.541,84.257 114.905,83.073 114.396,81.625C113.006,75.048 111.487,68.469 110.098,61.76L111.258,59.003L121.953,84.014C125.805,83.238 129.658,82.331 133.378,81.553C132.098,80.366 131.079,78.786 130.313,77.205C127.766,71.019 125.221,64.964 122.672,58.908C122.422,58.118 122.172,55.488 119.089,56.662C114.723,58.358 112.295,56.247 112.812,54.143C113.983,49.81 116.179,44.294 117.862,39.436C118.381,37.466 119.542,35.497 121.087,33.925C118.647,34.444 116.21,34.962 113.642,35.479C114.791,36.666 115.173,37.85 114.528,39.426C112.714,44.679 110.643,50.588 108.705,55.708L104.903,40.579C104.651,39.527 104.654,38.344 105.172,37.293C101.32,38.07 97.085,39.108 93.233,39.886" style="fill:white;fill-rule:nonzero;"/>
        <path id="path1046" d="M80.878,46.851C85.808,45.207 87.704,49.001 89.347,50.518C88.463,47.863 88.209,45.207 87.325,42.426C83.911,46.219 82.648,43.817 78.728,45.081C68.111,48.369 69.753,64.049 73.042,72.773C78.098,86.936 87.2,95.787 96.048,91.994C102.748,89.084 102.62,78.211 95.162,75.302C97.06,78.463 100.472,88.074 95.29,90.349C89.474,92.878 85.935,78.084 82.648,68.473C77.086,51.403 78.098,47.736 80.878,46.851" style="fill:white;fill-rule:nonzero;"/>
        <path id="path1048" d="M184.42,46.386L186.659,63.953C186.659,63.953 179.277,63.349 178.954,63.412L184.42,46.386ZM168.507,79.668C171.492,79.801 174.226,80.064 176.586,80.46C175.218,78.479 175.098,76.894 175.218,75.31C176.09,72.537 176.962,69.762 177.831,66.989L187.029,67.518L187.405,75.97C186.784,78.084 185.788,79.668 184.295,80.725C190.141,81.121 195.114,81.385 200.088,82.178C198.72,80.592 197.975,78.875 197.723,76.629C196.231,61.31 194.617,45.991 193.125,30.671C189.769,30.407 186.534,30.144 183.303,29.879C184.049,31.991 184.67,34.236 183.798,36.614C179.822,49.424 175.844,62.236 171.738,75.047C171.117,76.894 170.123,78.348 168.507,79.668" style="fill:white;fill-rule:nonzero;"/>
        <path id="path1050" d="M63.901,87.51C63.901,87.51 57.157,91.112 56.943,91.399L52.768,74.333L63.901,87.51ZM47.172,66.655C50.337,79.404 53.503,92.154 56.792,104.77C57.101,106.688 56.894,108.618 56.175,110.434C58.71,109.211 61.11,107.863 63.644,106.64C61.44,105.801 60.506,104.543 59.828,103.149C59.111,100.345 58.399,97.669 57.682,94.864L66.026,90.277L70.824,96.95C71.393,98.988 71.316,100.915 70.588,102.475C75.397,100.036 80.204,97.469 85.015,95.029C83.078,94.568 81.507,93.455 80.182,91.822C70.754,80.011 61.459,68.325 52.165,56.639C49.127,58.261 46.221,59.878 43.312,61.496C45.018,62.862 46.599,64.36 47.172,66.655" style="fill:white;fill-rule:nonzero;"/>
        <path id="path1052" d="M18.163,65.885C26.656,79.088 35.151,92.417 43.647,105.746C49.465,122.279 31.524,121.988 29.177,113.644C28.486,111.154 26.477,106.189 32.566,104.023C31.932,98.897 27.283,98.515 23.943,100.358C12.576,106.923 26.467,130.148 43.526,120.552C49.956,116.999 54.302,105.595 50.894,99.913L27.048,60.261C26.376,58.523 26.206,56.771 26.167,55.266C22.22,57.876 18.398,60.359 14.45,62.844C16.104,63.805 17.63,64.644 18.163,65.885" style="fill:white;fill-rule:nonzero;"/>
        <path id="path1054" d="M189.146,92.163L187.63,104.936L190.877,105.369L192.391,92.488L189.146,92.163" style="fill:white;fill-rule:nonzero;"/>
        <path id="path1056" d="M179.515,104.395L180.271,93.787L183.951,94.003L184.168,91.729L173.669,90.972L173.56,93.354L177.241,93.571L176.59,104.179L179.515,104.395" style="fill:white;fill-rule:nonzero;"/>
        <path id="path1058" d="M154.191,94.761C155.165,94.653 156.03,94.977 156.574,95.518C157.006,96.06 157.329,97.034 157.547,98.225C157.654,99.525 157.44,100.607 157.006,101.148C156.681,101.797 155.924,102.121 154.949,102.23L153.218,102.447L152.35,94.977L154.191,94.761ZM155.165,104.936C157.219,104.72 158.846,104.07 159.71,102.88C160.685,101.689 161.009,100.064 160.793,97.899C160.577,95.843 159.926,94.328 158.846,93.245C157.654,92.272 156.14,91.838 154.299,92.055L148.78,92.596L150.078,105.478L155.165,104.936" style="fill:white;fill-rule:nonzero;"/>
        <path id="path1060" d="M137.527,104.287L135.47,94.328L132.223,94.977L134.928,107.751L145.209,105.694L144.558,102.987L137.527,104.287" style="fill:white;fill-rule:nonzero;"/>
        <path id="path1062" d="M227.02,103.42L227.778,100.823L218.365,98.116L214.794,110.565L224.427,113.38L225.184,110.782L218.688,108.941L219.447,106.235L225.184,107.859L225.83,105.369L220.096,103.746L220.747,101.581L227.02,103.42" style="fill:white;fill-rule:nonzero;"/>
        <path id="path1064" d="M124.217,106.994C123.89,107.751 123.241,108.4 122.377,108.617C121.4,109.05 120.537,108.941 119.779,108.508C119.129,107.967 118.48,107.101 118.157,105.91C117.72,104.612 117.614,103.53 117.83,102.663C118.047,101.905 118.806,101.256 119.669,101.039C120.537,100.714 121.51,100.714 122.159,101.256C122.917,101.797 123.566,102.663 123.998,103.854C124.323,105.045 124.43,106.128 124.217,106.994ZM123.89,98.55C122.377,97.793 120.645,97.793 118.806,98.442C116.964,98.982 115.667,100.174 114.908,101.689C114.259,103.205 114.259,104.936 114.908,106.994C115.667,108.941 116.747,110.349 118.263,111.107C119.669,111.863 121.4,111.863 123.241,111.324C125.08,110.673 126.38,109.483 127.137,107.967C127.896,106.452 127.787,104.72 127.137,102.772C126.487,100.823 125.406,99.308 123.89,98.55" style="fill:white;fill-rule:nonzero;"/>
        <path id="path1066" d="M196.069,106.235L198.995,106.885L199.968,102.23C200.076,101.797 200.185,101.039 200.291,100.174C200.508,99.308 200.616,98.225 200.835,97.034L201.267,107.317L204.51,107.967L208.949,98.658C208.735,99.632 208.408,100.389 208.3,101.148C208.191,101.905 207.977,102.447 207.977,102.772L206.787,108.4L209.816,109.05L212.306,96.277L207.867,95.411L205.056,101.039C204.838,101.581 204.406,102.121 204.189,102.663C203.971,103.205 203.756,103.746 203.539,104.287L203.539,102.663C203.539,102.121 203.539,101.581 203.429,101.039L202.998,94.437L198.56,93.571L196.069,106.235" style="fill:white;fill-rule:nonzero;"/>
        <path id="path1086" d="M170.588,113.87C171.099,112.688 172.535,112.579 173.046,113.87C173.661,115.375 172.943,116.88 171.715,117.095C170.179,116.665 170.282,114.407 170.588,113.87ZM202.939,113.87C203.555,113.87 203.758,115.805 202.326,116.128C201.711,115.483 202.326,113.762 202.939,113.87ZM218.501,118.17C218.605,118.17 218.398,120.32 214.712,119.461C214.406,116.987 217.886,117.311 218.501,118.17ZM232.323,121.61C233.345,122.9 229.558,125.266 225.667,124.729C225.463,121.61 230.785,119.675 232.323,121.61ZM249.828,127.417C250.75,129.137 244.811,131.717 240.922,131.18C240.513,128.491 248.498,124.836 249.828,127.417ZM141.411,116.128C139.978,115.805 140.285,113.87 140.9,113.87C141.515,113.762 142.025,115.483 141.411,116.128ZM111.415,121.61C112.949,119.784 118.274,121.61 118.07,124.729C114.18,125.266 110.494,122.9 111.415,121.61ZM102.918,131.18C98.926,131.717 93.089,129.137 93.909,127.417C95.135,124.836 103.223,128.491 102.918,131.18ZM129.023,119.245C125.34,119.999 125.133,117.849 125.236,117.849C125.85,116.987 129.33,116.665 129.023,119.245ZM139.978,117.311C137.622,119.03 135.576,119.892 132.198,119.892C127.488,112.688 117.353,118.063 129.229,122.041C126.976,124.729 123.495,124.944 119.401,124.514C117.762,115.266 99.949,121.719 117.149,127.309C114.384,129.89 110.494,130.964 105.17,131.072C98.003,118.923 80.497,129.353 103.533,133.544C103.02,139.458 95.135,139.886 87.562,136.341C91.862,142.038 104.043,141.714 105.477,132.899C113.565,132.791 116.636,129.674 120.117,126.664C124.826,126.232 128.921,124.836 131.583,121.181C135.576,121.395 138.852,120.105 141.309,117.526C149.499,118.493 156.973,118.17 163.626,114.407C164.753,117.417 168.952,120.105 171.817,118.063C174.683,120.32 178.982,117.311 180.108,114.515C186.764,118.17 194.34,118.493 202.429,117.526C204.986,120.105 208.265,121.395 212.154,121.181C214.814,124.836 218.911,126.232 223.723,126.664C227.102,129.674 230.273,132.899 238.259,132.899C239.693,141.714 251.876,142.038 256.174,136.341C248.702,139.886 240.716,139.458 240.204,133.544C263.343,129.457 245.834,118.923 238.67,131.072C233.243,130.964 229.455,129.89 226.589,127.309C243.788,121.719 225.975,115.375 224.338,124.514C220.243,124.944 216.761,124.729 214.508,122.041C226.487,118.063 216.35,112.688 211.642,119.892C208.265,119.892 206.112,119.03 203.758,117.311C207.239,111.074 199.459,110.86 200.688,116.665C192.394,118.17 185.329,115.913 179.496,113.225C178.881,115.913 176.73,116.665 174.58,117.095C176.015,113.117 173.149,110.751 170.997,111.611C169.462,112.15 168.13,114.192 169.157,117.202C167.62,117.095 164.958,115.805 164.344,113.225C158.405,115.805 151.343,118.17 143.152,116.557C144.278,110.86 136.496,111.074 139.978,117.311" style="fill:white;fill-rule:nonzero;"/>
        <path id="path1088" d="M171.306,123.654C212.46,123.654 245.938,142.359 245.938,165.474C245.938,188.589 212.46,207.405 171.306,207.405C130.251,207.405 96.775,188.589 96.775,165.474C96.775,142.359 130.251,123.654 171.306,123.654ZM171.306,210.417C213.688,210.417 248.19,190.203 248.19,165.474C248.19,140.748 213.688,120.643 171.306,120.643C129.126,120.643 94.522,140.748 94.522,165.474C94.522,190.203 129.126,210.417 171.306,210.417" style="fill:white;fill-rule:nonzero;"/>
        <path id="path1090" d="M279.416,159.456C278.495,159.023 277.572,158.81 276.652,158.81C276.14,157.089 275.216,156.23 274.091,155.584C274.911,153.326 275.729,148.703 272.351,145.909C272.762,143.541 272.965,141.177 273.374,138.705C283.102,130.964 291.289,146.662 279.416,159.456ZM276.855,160.421C277.47,160.421 278.083,160.637 278.595,160.959C277.881,161.174 277.37,161.498 276.957,161.819C276.957,161.391 276.957,160.854 276.855,160.421ZM271.941,181.71C270.507,181.171 268.869,180.743 267.541,180.851C273.374,173.324 275.525,168.379 276.14,164.185C276.957,163.11 278.187,162.465 279.519,162.144C282.794,166.227 280.133,172.677 271.941,181.71ZM250.75,196.117C254.537,193.429 258.632,190.096 261.602,186.87C265.288,186.87 268.766,186.549 271.224,184.077C272.351,188.913 259.246,198.589 250.75,196.117ZM232.425,206.868C232.628,207.297 245.018,199.988 244.709,199.664C248.498,200.095 252.285,199.664 255.766,199.127C256.38,206.331 238.772,209.556 232.425,206.868ZM207.852,213.964C214.304,212.565 220.956,211.275 226.589,208.803C229.148,209.448 231.707,209.772 234.265,209.664C233.14,217.081 220.753,215.79 207.852,213.964ZM234.063,208.482C231.707,208.482 229.25,208.482 226.998,207.836C227.918,207.192 228.227,206.006 229.864,206.547C230.685,207.405 232.524,207.942 234.063,208.482ZM253.515,197.944C251.159,198.697 248.498,198.697 246.144,198.481C246.04,197.516 246.961,196.871 248.804,196.654C249.931,197.407 251.773,197.836 253.515,197.944ZM270.61,182.999C268.358,185.687 262.216,185.904 262.419,185.043C262.83,182.999 267.847,181.171 270.61,182.999ZM275.114,160.637C275.216,161.498 275.216,162.465 274.911,163.326C273.579,163.755 272.66,163.755 272.556,162.357C272.453,161.391 274.091,160.854 275.114,160.637ZM271.328,156.984C270.714,159.347 267.95,163.218 267.438,162.357C265.901,160.314 270.099,156.984 271.328,156.984ZM269.484,147.627C268.46,150.316 266.209,154.187 265.8,153.326C264.571,151.39 267.541,148.703 269.484,147.627ZM72.716,147.627C74.662,148.703 77.63,151.39 76.403,153.433C75.992,154.187 73.637,150.316 72.716,147.627ZM70.874,156.984C72.101,156.984 76.299,160.421 74.763,162.357C74.151,163.218 71.486,159.347 70.874,156.984ZM186.355,216.974C181.032,217.727 174.889,219.553 171.099,219.877C167.415,219.445 160.966,217.727 155.847,216.974C143.356,215.362 129.945,212.028 116.431,208.158C116.021,205.901 114.281,204.287 110.801,205.685C106.602,203.966 102.61,201.706 98.617,198.911C98.311,197.192 98.311,195.689 92.781,195.364C89.198,192.463 85.616,189.451 82.033,186.549C82.238,184.719 82.134,182.246 75.788,180.528C72.101,175.045 68.723,169.669 67.803,164.508C73.227,164.616 71.486,160.421 67.495,159.24C67.699,157.736 68.416,157.628 69.234,157.196C75.89,171.496 80.701,158.81 70.464,155.154C69.44,151.928 69.234,148.703 70.874,147.307C77.22,163.11 82.238,150.424 72.306,145.264C71.692,143.542 71.486,141.93 71.589,140.424C75.377,142.467 78.859,144.831 81.929,147.52C76.197,178.916 96.571,194.612 105.989,199.018C88.687,186.224 81.522,168.595 83.364,148.273C84.592,148.381 85.718,148.489 86.947,148.489C85.718,147.736 84.491,146.875 83.261,146.016C83.055,144.618 83.261,143.221 83.568,141.822C86.947,144.189 90.324,146.125 94.83,146.554C90.223,152.576 89.301,162.036 89.712,166.764C92.883,201.599 138.442,215.47 171.306,215.79C195.875,214.933 247.064,205.901 252.388,166.764C252.797,162.036 251.979,152.468 247.373,146.554C251.876,146.125 255.255,144.189 258.632,141.714C258.941,143.221 259.144,144.618 258.941,146.016C257.711,146.875 256.484,147.736 255.255,148.489C256.484,148.489 257.609,148.381 258.838,148.273C260.678,168.595 253.515,186.224 236.212,199.018C245.631,194.612 265.901,178.916 260.271,147.52C263.343,144.831 266.824,142.467 270.507,140.424C270.714,141.93 270.507,143.542 269.896,145.264C259.964,150.424 264.98,163.11 271.328,147.307C272.965,148.703 272.762,151.928 271.736,155.154C261.498,158.81 266.312,171.496 272.965,157.196C273.682,157.628 274.503,157.628 274.603,159.24C270.714,160.421 268.973,164.616 274.399,164.508C273.374,169.669 270.099,175.045 266.312,180.528C260.068,182.142 259.964,184.613 260.167,186.549C256.586,189.451 252.9,192.355 249.316,195.364C243.892,195.689 243.892,197.192 243.479,198.911C239.591,201.706 235.597,203.966 231.399,205.685C227.918,204.287 226.178,205.901 225.768,208.158C212.257,212.028 198.844,215.362 186.355,216.974ZM210.31,220.415C209.798,223.424 199.254,216.868 195.467,216.544C195.467,216.544 201.402,215.79 203.654,215.146C204.168,218.803 210.72,217.405 210.31,220.415ZM190.551,220.631C190.451,225.081 174.8,220.764 173.632,220.721C176.188,220.271 190.551,218.392 190.551,220.631ZM151.649,220.631C151.649,218.392 166.001,220.269 168.565,220.721C167.356,220.75 151.749,225.09 151.649,220.631ZM131.888,220.415C131.377,217.511 138.034,218.803 138.546,215.146C140.797,215.79 146.736,216.544 146.736,216.544C142.946,216.868 132.402,223.424 131.888,220.415ZM107.934,209.664C110.494,209.772 113.051,209.448 115.614,208.803C121.244,211.275 127.897,212.565 134.346,213.964C121.448,215.79 109.06,217.081 107.934,209.664ZM112.337,206.547C113.973,206.006 114.281,207.192 115.203,207.836C112.848,208.482 110.494,208.482 108.139,208.482C109.572,207.942 111.518,207.405 112.337,206.547ZM86.434,199.127C89.916,199.771 93.601,200.095 97.389,199.771C97.185,199.988 109.572,207.297 109.777,206.868C103.429,209.556 85.821,206.331 86.434,199.127ZM93.396,196.654C95.239,196.871 96.059,197.516 96.059,198.481C93.601,198.697 91.042,198.697 88.687,198.052C90.427,197.836 92.27,197.407 93.396,196.654ZM70.975,184.077C73.434,186.549 76.914,186.87 80.6,186.978C83.568,190.096 87.662,193.429 91.452,196.117C82.954,198.589 69.85,188.913 70.975,184.077ZM79.781,185.043C79.984,185.904 73.842,185.687 71.589,182.999C74.353,181.171 79.37,182.999 79.781,185.043ZM62.581,162.144C64.013,162.572 65.243,163.11 66.062,164.185C66.677,168.487 68.826,173.324 74.662,180.851C73.33,180.743 71.589,181.171 70.259,181.71C62.07,172.786 59.406,166.227 62.581,162.144ZM65.344,160.421C65.243,160.854 65.243,161.391 65.243,161.819C64.73,161.498 64.219,161.174 63.604,160.959C64.115,160.637 64.627,160.421 65.344,160.421ZM67.085,160.637C68.109,160.854 69.645,161.391 69.645,162.357C69.543,163.755 68.621,163.863 67.289,163.434C66.982,162.465 66.982,161.604 67.085,160.637ZM68.826,138.705C69.234,141.177 69.44,143.541 69.85,145.909C66.367,148.811 67.289,153.326 68.109,155.584C66.982,156.23 66.062,157.089 65.448,158.81C64.627,158.81 63.707,159.023 62.787,159.456C50.807,146.662 59.101,130.964 68.826,138.705ZM72.101,133.223C75.583,134.081 76.811,138.167 82.339,141.393C82.033,142.254 81.624,143.329 81.726,144.511C79.063,141.606 75.583,139.029 71.692,136.878C71.384,135.587 71.384,134.19 72.101,133.223ZM79.472,135.05C77.733,134.514 77.017,133.328 75.173,132.145C76.708,132.039 78.96,132.362 79.472,135.05ZM270.099,133.223C270.817,134.19 270.817,135.587 270.507,136.878C266.617,139.029 263.136,141.606 260.476,144.511C260.578,143.329 260.167,142.254 259.862,141.285C265.389,138.167 266.617,133.973 270.099,133.223ZM267.027,132.145C265.083,133.328 264.365,134.406 262.729,134.943C263.239,132.362 265.491,132.039 267.027,132.145ZM272.965,135.264C272.965,135.264 272.556,133.436 271.941,131.932C272.351,131.18 273.273,130.426 275.216,129.781C271.634,129.457 271.022,130.319 269.382,130.855C259.964,130.103 262.729,135.587 259.862,137.844C257.098,140.211 251.365,146.016 244.709,145.372C249.316,150.854 251.056,157.842 251.056,164.616C251.056,191.923 215.021,213.748 170.895,214.179C145.709,214.179 91.143,202.46 91.143,164.616C91.143,157.842 92.781,150.854 97.491,145.372C90.838,146.016 85.104,140.211 82.238,137.844C79.472,135.587 82.238,130.103 72.818,130.855C71.181,130.319 70.567,129.457 66.982,129.781C68.929,130.426 69.85,131.18 70.259,132.039C69.645,133.436 69.234,135.264 69.234,135.264C55.004,131.717 48.044,147.091 61.046,160.746C54.39,166.336 62.07,178.055 69.543,182.783C67.392,186.549 72.306,195.041 85.206,198.697C82.954,205.041 94.83,210.523 106.296,209.772C107.831,220.736 124.52,216.007 135.984,215.362C136.088,217.727 129.434,217.081 130.457,220.415C132.607,226.865 144.483,216.652 151.957,217.297C154.924,217.405 158.611,218.588 154.005,218.479C147.656,218.695 149.397,222.887 154.106,223.961C161.068,224.93 165.878,222.133 171.202,221.596C176.424,222.242 181.234,224.821 187.993,223.961C192.802,222.887 194.543,218.588 188.196,218.479C183.59,218.588 187.275,217.297 190.245,217.189C197.718,216.652 209.593,226.757 211.642,220.306C212.768,217.081 206.112,217.727 206.215,215.362C217.681,216.007 234.369,220.736 235.803,209.772C247.27,210.523 259.246,205.041 256.994,198.697C269.896,195.041 274.808,186.549 272.66,182.783C280.133,178.055 287.809,166.336 281.156,160.746C294.156,147.091 287.195,131.717 272.965,135.264" style="fill:white;fill-rule:nonzero;"/>
        <path id="path1092" d="M147.871,139.935C147.871,138.873 149.123,136.549 151.622,136.549C153.026,136.549 154.978,137.811 154.978,140.068L154.978,151.424C154.978,152.885 153.884,154.478 151.699,154.478C149.515,154.478 147.871,152.885 147.871,151.357L147.871,139.935ZM151.308,155.807C152.871,155.807 163.1,155.807 163.1,145.912C163.1,136.017 154.589,135.088 151.699,135.088C149.749,135.088 139.44,135.62 139.44,145.514C139.44,155.408 149.749,155.807 151.308,155.807" style="fill:white;fill-rule:nonzero;"/>
        <path id="path1094" d="M167.473,137.014C168.017,137.28 168.252,137.943 168.252,138.541L168.252,152.42C168.252,153.416 167.783,154.279 167.16,154.478C166.536,154.678 166.69,155.342 167.315,155.342L176.92,155.342C177.778,155.342 177.623,154.745 176.92,154.611C176.218,154.478 175.593,153.814 175.593,153.018L175.593,137.145C175.593,136.017 175.28,135.752 174.5,135.752L167.705,135.752C165.518,135.752 166.922,136.747 167.473,137.014" style="fill:white;fill-rule:nonzero;"/>
        <path id="path1096" d="M188.087,144.716C188.087,144.053 188.164,142.127 191.131,142.127C192.148,142.127 194.099,142.525 194.099,144.783L194.099,151.226C194.099,151.955 193.319,154.213 190.976,154.213C188.632,154.213 188.087,152.021 188.087,151.026L188.087,144.716ZM188.473,155.873C192.769,155.873 193.628,154.478 193.628,154.478L195.111,155.541L202.219,155.541C204.795,155.541 202.922,154.611 202.219,154.213C201.517,153.814 200.972,152.686 200.972,151.823L200.972,137.145C200.972,136.416 200.658,136.017 200.033,136.017C199.407,136.017 199.015,135.884 197.063,135.884C197.063,135.884 194.566,135.884 192.302,136.017C189.888,136.159 192.383,136.881 192.926,137.145C193.474,137.412 194.332,138.275 194.332,138.674L194.332,140.467C194.332,140.932 193.861,141.197 193.474,141.131C193.081,141.065 192.926,140.732 189.724,140.732C186.521,140.732 180.042,142.791 180.042,148.037C180.042,153.285 184.183,155.873 188.473,155.873" style="fill:white;fill-rule:nonzero;"/>
        <path id="path1098" d="M132.801,161.809C133.506,161.946 134.599,162.899 135.614,163.853C136.629,164.806 137.097,165.828 137.097,166.371C137.097,166.917 137.019,174.273 137.019,175.226C137.019,176.179 136.473,177.064 135.458,177.814C134.443,178.564 134.443,179.176 135.382,179.176L140.065,179.176C142.096,179.176 140.611,178.222 140.065,178.019C139.519,177.814 138.581,177.132 138.581,176.384L138.581,169.096C138.581,168.005 139.285,167.939 139.753,168.211C140.22,168.484 147.56,176.791 148.343,177.609C149.123,178.426 149.749,178.971 150.448,179.246C151.153,179.516 153.575,179.312 154.743,179.312C155.916,179.312 155.526,178.222 155.526,177.473C155.526,176.723 155.835,165.487 155.835,164.737C155.835,163.989 156.386,162.899 156.774,162.557C157.166,162.218 160.757,160.719 154.743,160.719C148.731,160.719 152.793,162.151 153.104,162.491C153.419,162.832 153.964,164.532 154.117,166.236C154.276,167.939 154.044,173.116 154.044,173.116C154.044,173.116 152.793,172.842 152.013,172.229C151.231,171.617 149.826,169.914 147.484,167.191C145.139,164.466 141.391,160.787 141.391,160.787C141.391,160.787 139.281,160.736 137.255,160.65C135.614,160.582 134.443,160.65 132.96,160.65C131.475,160.65 132.101,161.673 132.801,161.809" style="fill:white;fill-rule:nonzero;"/>
        <path id="path1100" d="M173.797,168.756L173.797,175.975C173.797,176.791 172.857,178.904 170.518,178.904C168.175,178.904 167.16,176.861 167.16,175.975C167.16,175.091 167.082,169.574 167.082,168.825C167.082,168.076 167.473,165.147 170.438,165.147C171.61,165.147 173.797,166.442 173.797,168.756L173.797,168.756ZM159.664,171.822C159.664,176.791 163.567,180.267 170.518,180.267C177.464,180.267 181.368,177.27 181.368,171.344C181.368,165.418 174.58,163.784 169.973,163.784C164.66,163.784 159.664,166.85 159.664,171.822" style="fill:white;fill-rule:nonzero;"/>
        <path id="path1102" d="M184.748,178.755C186.394,178.755 187.731,177.591 187.731,176.154C187.731,174.717 186.394,173.553 184.748,173.553C183.098,173.553 181.763,174.717 181.763,176.154C181.763,177.591 183.098,178.755 184.748,178.755" style="fill:white;fill-rule:nonzero;"/>
        <path id="path1104" d="M197.456,160.201C196.364,160.405 195.818,160.405 194.8,159.791C193.786,159.179 193.081,160.268 192.614,161.154C192.148,162.039 191.131,165.649 190.876,166.313C190.332,167.742 191.971,167.402 192.358,166.721C192.751,166.039 193.474,164.695 195.033,164.695C196.596,164.695 198.94,165.853 201.125,165.853C202.465,165.853 203.115,165.576 203.39,165.716C203.824,165.935 203.193,166.686 201.671,167.351C199.173,168.441 195.818,171.778 195.818,174.775C195.818,177.773 199.173,180.019 201.905,180.019C205.261,180.019 208.324,177.71 209.481,176.001C210.076,175.123 209.874,174.485 209.557,174.229C208.622,173.48 207.531,174.639 206.746,174.639C205.967,174.639 204.328,173.753 204.328,171.846C204.328,167.828 209.948,163.536 210.962,161.63C211.98,159.722 210.102,159.451 209.481,159.86C208.855,160.268 207.919,160.744 206.433,160.744C205.944,160.744 203.24,159.996 200.658,159.996C199.095,159.996 198.548,159.996 197.456,160.201" style="fill:white;fill-rule:nonzero;"/>
        <path id="path1106" d="M229.556,160.972C230.775,160.972 231.765,159.983 231.765,158.763C231.765,157.545 230.775,156.557 229.556,156.557C228.337,156.557 227.348,157.545 227.348,158.763C227.348,159.983 228.337,160.972 229.556,160.972" style="fill:white;fill-rule:nonzero;"/>
        <path id="path1108" d="M113.635,160.409C114.856,160.409 115.842,159.421 115.842,158.202C115.842,156.982 114.856,155.992 113.635,155.992C112.415,155.992 111.425,156.982 111.425,158.202C111.425,159.421 112.415,160.409 113.635,160.409" style="fill:white;fill-rule:nonzero;"/>
        <path id="path1110" d="M144.223,190.099C144.032,190.853 142.106,190.642 142.106,190.642C141.973,190.627 141.763,190.59 141.633,190.557L140.938,190.381C140.81,190.349 140.732,190.217 140.764,190.087L141.175,188.473C141.208,188.346 141.34,188.266 141.466,188.298L142.45,188.549C143.885,188.912 144.405,189.372 144.223,190.099L144.223,190.099ZM144.102,194.232C143.885,195.083 141.451,194.75 141.451,194.75C141.318,194.733 141.11,194.692 140.979,194.658L139.919,194.39C139.793,194.357 139.714,194.226 139.748,194.099L140.209,192.273C140.244,192.146 140.374,192.067 140.503,192.099L141.649,192.388C143.736,192.92 144.325,193.351 144.102,194.232L144.102,194.232ZM145.615,187.732C144.964,187.402 144.554,187.269 143.245,186.937L138.76,185.799C138.628,185.765 138.497,185.843 138.465,185.972L136.164,195.033C136.133,195.16 136.209,195.293 136.337,195.327L141.789,196.722C142.876,196.999 143.55,197.095 144.168,197.089C145.813,197.077 146.946,196.352 147.251,195.149C147.569,193.893 146.918,192.879 145.262,192.014C146.397,191.885 147.217,191.32 147.419,190.524C147.671,189.531 146.937,188.395 145.615,187.732" style="fill:white;fill-rule:nonzero;"/>
        <path id="path1112" d="M157.556,192.658C157.465,193.285 156.228,193.498 156.228,193.498C156.096,193.521 155.903,193.53 155.793,193.517C155.688,193.507 155.542,193.493 155.477,193.488C155.411,193.48 155.249,193.462 155.118,193.443L154.276,193.321C154.144,193.302 154.054,193.18 154.074,193.048L154.327,191.301C154.345,191.168 154.469,191.078 154.598,191.097L155.955,191.291C157.122,191.46 157.666,191.915 157.556,192.658L157.556,192.658ZM160.921,199.625C160.869,199.503 160.786,199.304 160.735,199.182L160.622,198.915C160.571,198.792 160.486,198.593 160.435,198.472L160.37,198.323C160.319,198.201 160.233,198.002 160.183,197.881L159.893,197.202C159.447,196.105 158.971,195.467 158.337,195.114C158.924,194.995 159.143,194.924 159.509,194.758C160.261,194.388 160.749,193.757 160.852,193.044C160.983,192.132 160.466,191.139 159.534,190.497C158.773,189.995 158.119,189.798 156.283,189.533L151.661,188.867C151.531,188.85 151.407,188.941 151.389,189.072L150.058,198.324C150.038,198.456 150.13,198.578 150.262,198.596L152.98,198.988C153.105,199.006 153.228,198.915 153.247,198.784L153.748,195.293C153.768,195.163 153.892,195.071 154.024,195.09L154.248,195.123C154.805,195.203 154.88,195.215 155.148,195.31C155.726,195.524 156.497,196.86 156.497,196.86C156.563,196.972 156.659,197.167 156.709,197.289L156.892,197.741C156.943,197.863 157.025,198.063 157.074,198.186L157.169,198.423C157.221,198.544 157.301,198.746 157.348,198.868L157.356,198.896C157.4,199.019 157.48,199.218 157.531,199.338C157.581,199.458 157.636,199.579 157.652,199.609C157.667,199.641 157.789,199.682 157.922,199.699L160.913,200.13C161.045,200.149 161.135,200.126 161.117,200.079C161.097,200.032 161.037,199.894 160.986,199.772L160.921,199.625" style="fill:white;fill-rule:nonzero;"/>
        <path id="path1114" d="M171.488,196.914L168.036,196.826C167.902,196.822 167.843,196.726 167.905,196.609L169.649,193.276C169.711,193.16 169.809,193.16 169.869,193.278L171.618,196.705C171.68,196.823 171.618,196.917 171.488,196.915L171.488,196.914ZM171.733,190.956C171.67,190.84 171.51,190.743 171.377,190.738L168.167,190.661C168.036,190.656 167.875,190.746 167.81,190.864L162.651,200.144C162.585,200.258 162.641,200.355 162.773,200.358L165.661,200.43C165.796,200.434 165.955,200.34 166.017,200.223L166.797,198.729C166.858,198.611 167.015,198.518 167.147,198.519L172.382,198.651C172.516,198.653 172.668,198.755 172.729,198.871L173.514,200.414C173.57,200.532 173.728,200.631 173.864,200.634L176.809,200.707C176.941,200.711 176.999,200.618 176.937,200.502L171.733,190.956" style="fill:white;fill-rule:nonzero;"/>
        <path id="path1116" d="M191.521,189.461L188.866,189.73C188.733,189.745 188.637,189.864 188.652,189.995L189.189,195.28C189.199,195.414 189.122,195.459 189.016,195.385L182.021,190.584C181.91,190.509 181.717,190.459 181.585,190.473L179.172,190.717C179.04,190.731 178.943,190.849 178.959,190.981L179.904,200.282C179.917,200.414 180.035,200.511 180.166,200.497L182.837,200.226C182.968,200.213 183.065,200.092 183.056,199.962L182.488,194.388C182.472,194.257 182.553,194.211 182.659,194.286L189.908,199.348C190.016,199.424 190.213,199.476 190.345,199.462L192.515,199.24C192.646,199.228 192.738,199.109 192.727,198.977L191.785,189.676C191.77,189.545 191.654,189.448 191.521,189.461" style="fill:white;fill-rule:nonzero;"/>
        <path id="path1118" d="M203.54,194.836C202.926,195.191 201.093,195.667 201.093,195.667C200.965,195.698 200.757,195.748 200.626,195.778L199.835,195.953C199.704,195.981 199.576,195.899 199.546,195.77L198.328,190.305C198.299,190.175 198.385,190.046 198.512,190.018L199.85,189.72C201.149,189.432 201.633,189.367 202.324,189.437C203.769,189.557 204.733,190.347 205.02,191.655C205.309,192.949 204.763,194.119 203.54,194.836ZM207.323,189.123C206.561,188.303 205.254,187.678 203.905,187.505C203.149,187.391 202.136,187.408 201.229,187.538C200.817,187.6 200.488,187.66 199.809,187.81L194.958,188.888C194.831,188.917 194.749,189.045 194.781,189.174L196.808,198.3C196.834,198.429 196.966,198.512 197.092,198.483L201.711,197.47C202.826,197.222 203.829,196.91 204.529,196.607C207.367,195.386 208.757,193.261 208.245,190.954C208.089,190.236 207.773,189.611 207.323,189.123" style="fill:white;fill-rule:nonzero;"/>
    </g>
</svg>
