<?xml version="1.0" encoding="UTF-8" standalone="no"?><!DOCTYPE svg PUBLIC "-//W3C//DTD SVG 1.1//EN" "http://www.w3.org/Graphics/SVG/1.1/DTD/svg11.dtd"><svg width="100%" height="100%" viewBox="0 0 560 400" version="1.1" xmlns="http://www.w3.org/2000/svg" xmlns:xlink="http://www.w3.org/1999/xlink" xml:space="preserve" xmlns:serif="http://www.serif.com/" style="fill-rule:evenodd;clip-rule:evenodd;stroke-linejoin:round;stroke-miterlimit:2;"><path d="M63.899,218.809l-9.097,0c-0.273,0 -0.493,-0.22 -0.493,-0.489l0,-8.98c0,-0.27 0.22,-0.489 0.493,-0.489l9.097,0c0.273,0 0.493,0.219 0.493,0.489l0,8.98c0,0.269 -0.22,0.489 -0.493,0.489Zm-14.309,0l-9.097,0c-0.273,0 -0.493,-0.22 -0.493,-0.489l0,-8.98c0,-0.27 0.22,-0.489 0.493,-0.489l9.097,0c0.273,0 0.493,0.219 0.493,0.489l0,8.98c0,0.269 -0.22,0.489 -0.493,0.489Zm28.619,0l-9.097,0c-0.273,0 -0.493,-0.22 -0.493,-0.489l0,-8.98c0,-0.27 0.22,-0.489 0.493,-0.489l9.097,0c0.273,0 0.493,0.219 0.493,0.489l0,8.98c0,0.269 -0.22,0.489 -0.493,0.489Zm14.307,-0.002l-9.093,0c-0.273,0 -0.493,-0.216 -0.493,-0.485l0,-8.981c0,-0.269 0.22,-0.489 0.493,-0.489l9.093,0c0.273,0 0.497,0.22 0.497,0.489l0,8.981c0,0.269 -0.224,0.485 -0.497,0.485Zm-28.618,-14.129l-9.094,0c-0.273,0 -0.493,-0.216 -0.493,-0.485l0,-8.981c0,-0.269 0.22,-0.489 0.493,-0.489l9.094,0c0.273,0 0.496,0.22 0.496,0.489l0,8.981c0,0.269 -0.223,0.485 -0.496,0.485Zm28.618,0l-9.093,0c-0.273,0 -0.493,-0.216 -0.493,-0.485l0,-8.981c0,-0.269 0.22,-0.489 0.493,-0.489l9.093,0c0.273,0 0.497,0.22 0.497,0.489l0,8.981c0,0.269 -0.224,0.485 -0.497,0.485Zm-14.309,0l-9.094,0c-0.273,0 -0.492,-0.216 -0.492,-0.485l0,-8.981c0,-0.269 0.219,-0.489 0.492,-0.489l9.094,0c0.273,0 0.496,0.22 0.496,0.489l0,8.981c0,0.269 -0.223,0.485 -0.496,0.485Zm-28.619,0l-9.094,0c-0.273,0 -0.492,-0.216 -0.492,-0.485l0,-8.981c0,-0.269 0.219,-0.489 0.492,-0.489l9.094,0c0.273,0 0.496,0.22 0.496,0.489l0,8.981c0,0.269 -0.223,0.485 -0.496,0.485Zm42.928,-14.129l-9.093,0c-0.273,0 -0.493,-0.216 -0.493,-0.486l0,-8.98c0,-0.27 0.22,-0.489 0.493,-0.489l9.093,0c0.273,0 0.497,0.219 0.497,0.489l0,8.98c0,0.27 -0.224,0.486 -0.497,0.486Zm-14.309,0l-9.094,0c-0.273,0 -0.492,-0.216 -0.492,-0.486l0,-8.98c0,-0.27 0.219,-0.489 0.492,-0.489l9.094,0c0.273,0 0.496,0.219 0.496,0.489l0,8.98c0,0.27 -0.223,0.486 -0.496,0.486Zm-28.619,0l-9.094,0c-0.273,0 -0.492,-0.216 -0.492,-0.486l0,-8.98c0,-0.27 0.219,-0.489 0.492,-0.489l9.094,0c0.273,0 0.496,0.219 0.496,0.489l0,8.98c0,0.27 -0.223,0.486 -0.496,0.486Zm42.928,-14.13l-9.093,0c-0.273,0 -0.493,-0.216 -0.493,-0.485l0,-8.981c0,-0.269 0.22,-0.489 0.493,-0.489l9.093,0c0.273,0 0.497,0.22 0.497,0.489l0,8.981c0,0.269 -0.224,0.485 -0.497,0.485Zm-28.618,0l-9.094,0c-0.273,0 -0.493,-0.216 -0.493,-0.485l0,-8.981c0,-0.269 0.22,-0.489 0.493,-0.489l9.094,0c0.273,0 0.496,0.22 0.496,0.489l0,8.981c0,0.269 -0.223,0.485 -0.496,0.485Zm14.309,0l-9.094,0c-0.273,0 -0.492,-0.216 -0.492,-0.485l0,-8.981c0,-0.269 0.219,-0.489 0.492,-0.489l9.094,0c0.273,0 0.496,0.22 0.496,0.489l0,8.981c0,0.269 -0.223,0.485 -0.496,0.485Zm-28.619,0l-9.094,0c-0.273,0 -0.492,-0.216 -0.492,-0.485l0,-8.981c0,-0.269 0.219,-0.489 0.492,-0.489l9.094,0c0.273,0 0.496,0.22 0.496,0.489l0,8.981c0,0.269 -0.223,0.485 -0.496,0.485Z" style="fill:#ef4123;fill-rule:nonzero;"/><path d="M112.041,166.464l9.764,0c0.273,0 0.493,0.22 0.493,0.489l0,42.996l23.259,0c0.273,0 0.493,0.22 0.493,0.49l0,7.881c0,0.27 -0.22,0.49 -0.493,0.49l-33.516,0c-0.273,0 -0.492,-0.22 -0.492,-0.49l0,-51.367c0,-0.269 0.219,-0.489 0.492,-0.489Z" style="fill:#002a4e;fill-rule:nonzero;"/><path d="M158.442,195.638l16.905,0c-0.298,-4.759 -3.484,-8.381 -8.08,-8.381c-5.341,0 -7.935,3.476 -8.825,8.381Zm-10.083,4.026c0,-11.128 7.638,-20.094 18.759,-20.094c12.082,0 18.595,9.324 18.755,22.451c0.004,0.273 -0.223,0.5 -0.5,0.5l-27.08,0c0.745,5.784 4.005,9.7 9.714,9.7c3.789,0 6.061,-1.634 7.216,-4.313c0.078,-0.181 0.255,-0.301 0.454,-0.301l8.98,0c0.319,0 0.564,0.297 0.486,0.602c-1.637,6.397 -7.57,11.699 -17.061,11.699c-12.606,0 -19.723,-9.041 -19.723,-20.244Z" style="fill:#002a4e;fill-rule:nonzero;"/><path d="M200.802,185.718c2.594,-4.026 6.301,-6.149 11.493,-6.149c7.858,0 13.124,5.855 13.124,14.056l0,24.695c0,0.269 -0.223,0.489 -0.496,0.489l-9.094,0c-0.273,0 -0.496,-0.22 -0.496,-0.489l0,-23.231c0,-4.026 -2.371,-6.883 -6.599,-6.883c-4.448,0 -7.709,3.516 -7.709,8.641l0,21.473c0,0.269 -0.223,0.489 -0.496,0.489l-9.094,0c-0.273,0 -0.492,-0.22 -0.492,-0.489l0,-37.237c0,-0.27 0.219,-0.489 0.492,-0.489l8.875,0c0.272,0 0.492,0.219 0.492,0.489l0,4.635Z" style="fill:#002a4e;fill-rule:nonzero;"/><path d="M257.918,199.957c0,-7.173 -2.375,-12.337 -8.825,-12.337c-5.561,0 -8.378,5.164 -8.378,12.117c0,7.248 2.892,11.823 8.08,11.823c6.008,0 9.123,-4.72 9.123,-11.603Zm-27.435,-0.22c0,-11.713 6.748,-20.169 16.239,-20.169c5.337,0 8.896,2.417 10.972,5.564l0,-18.18c0,-0.27 0.22,-0.489 0.493,-0.489l9.094,0c0.277,0 0.496,0.219 0.496,-0.171l0,51.371c0,0.929 -0.219,1.145 -0.496,1.145l-8.722,0c-0.273,0 -0.496,-0.216 -0.496,-0.489l0,-4.416c-2.222,3.586 -6.152,6.003 -11.49,6.003c-9.565,0 -16.09,-8.016 -16.09,-20.169Z" style="fill:#002a4e;fill-rule:nonzero;"/><path d="M274.833,180.594l9.094,0c0.273,0 0.496,0.219 0.496,0.489l0,37.237c0,0.269 -0.223,0.489 -0.496,0.489l-9.094,0c-0.273,0 -0.493,-0.22 -0.493,-0.489l0,-37.237c0,-0.27 0.22,-0.489 0.493,-0.489Z" style="fill:#002a4e;fill-rule:nonzero;"/><path d="M300.808,185.718c2.594,-4.026 6.301,-6.149 11.493,-6.149c7.857,0 13.123,5.855 13.123,14.056l0,24.695c0,0.269 -0.223,0.489 -0.496,0.489l-9.094,0c-0.273,0 -0.496,-0.22 -0.496,-0.489l0,-23.231c0,-4.026 -2.371,-6.883 -6.599,-6.883c-4.448,0 -7.708,3.516 -7.708,8.641l0,21.473c0,0.269 -0.223,0.489 -0.496,0.489l-9.094,0c-0.273,0 -0.493,-0.22 -0.493,-0.489l0,-37.237c0,-0.27 0.22,-0.489 0.493,-0.489l8.874,0c0.273,0 0.493,0.219 0.493,0.489l0,4.635Z" style="fill:#002a4e;fill-rule:nonzero;"/><path d="M372.454,192.819c0,-15.519 9.789,-27.381 25.432,-27.381c12.805,0 20.471,7.403 21.803,17.093c0.039,0.29 -0.198,0.553 -0.496,0.553l-9.711,0c-0.234,0 -0.428,-0.167 -0.478,-0.394c-1.088,-5.05 -5.047,-8.321 -11.118,-8.321c-9.788,0 -14.459,8.055 -14.459,18.45c0,10.689 5.635,18.376 14.534,18.376c6.138,0 10.522,-3.544 11.358,-8.807c0.039,-0.237 0.238,-0.418 0.486,-0.418l9.562,0c0.29,0 0.524,0.244 0.496,0.531c-0.411,4.423 -2.392,8.673 -5.816,11.841c-3.633,3.367 -8.747,5.564 -16.086,5.564c-14.903,0 -25.507,-11.348 -25.507,-27.087Z" style="fill:#002a4e;fill-rule:nonzero;"/><path d="M425.963,166.464l9.094,0c0.273,0 0.496,0.22 0.496,0.489l0,51.367c0,0.27 -0.223,0.49 -0.496,0.49l-9.094,0c-0.273,0 -0.493,-0.22 -0.493,-0.49l0,-51.367c0,-0.269 0.22,-0.489 0.493,-0.489Z" style="fill:#002a4e;fill-rule:nonzero;"/><path d="M466.927,218.809c-0.273,0 -0.492,-0.22 -0.492,-0.49l0,-3.902c-2.598,3.442 -5.784,5.416 -11.125,5.416c-8.453,0 -13.195,-5.345 -13.195,-13.542l0,-25.209c0,-0.269 0.22,-0.489 0.493,-0.489l9.02,0c0.272,0 0.496,0.22 0.496,0.489l0,23.526c0,4.391 2.002,6.808 6.301,6.808c4.745,0 7.637,-3.516 7.637,-8.495l0,-21.839c0,-0.269 0.22,-0.489 0.493,-0.489l9.097,0c0.273,0 0.493,0.22 0.493,0.489l0,37.237c0,0.27 -0.22,0.49 -0.493,0.49l-8.725,0l0,0Z" style="fill:#002a4e;fill-rule:nonzero;"/><path d="M509.768,199.738c0,-6.957 -2.817,-12.117 -8.452,-12.117c-6.376,0 -8.747,5.38 -8.747,12.336c0,6.883 3.484,11.604 9.119,11.604c5.188,0 8.08,-4.576 8.08,-11.823Zm-17.348,14.385l0,4.196c0,0.269 -0.219,0.489 -0.492,0.489l-8.726,0c-0.273,0 -0.496,-0.22 -0.496,-1.148l0,-51.367c0,0.39 0.223,0.17 0.496,0.17l9.094,0c0.273,0 0.496,0.22 0.496,0.489l0,18.181c2.074,-3.147 5.561,-5.564 10.824,-5.564c9.565,0 16.384,8.456 16.384,20.169c0,12.152 -6.525,20.169 -16.086,20.169c-5.341,0 -9.268,-2.268 -11.494,-5.784Z" style="fill:#002a4e;fill-rule:nonzero;"/><path d="M274.833,166.464l9.094,0c0.273,0 0.496,0.22 0.496,0.489l0,8.981c0,0.269 -0.223,0.485 -0.496,0.485l-9.094,0c-0.273,0 -0.493,-0.216 -0.493,-0.485l0,-8.981c0,-0.269 0.22,-0.489 0.493,-0.489Z" style="fill:#ef4123;fill-rule:nonzero;"/><path d="M348.759,210.463c-5.358,0 -8.038,-4.671 -8.038,-11.288c0,-6.893 2.751,-11.554 7.687,-11.554c5.359,0 8.676,4.799 8.676,11.345c0,6.617 -2.257,11.497 -8.325,11.497Zm18.135,-29.869l-8.725,0c-0.273,0 -0.493,0.219 -0.493,0.489l0,4.27c-2.226,-3.515 -6.152,-5.784 -11.493,-5.784c-9.566,0 -15.693,8.602 -15.693,20.166c0,11.312 6.425,19.074 15.99,19.074c5.263,0 8.758,-2.378 10.973,-5.802l0,6.181c0,5.125 -2.743,7.832 -8.453,7.832c-4.458,0 -6.62,-2.059 -7.517,-4.249c-0.078,-0.188 -0.255,-0.315 -0.457,-0.315l-9.087,0c-0.304,0 -0.546,0.276 -0.492,0.574c1.283,6.974 7.595,11.532 17.702,11.532c5.635,0 10.529,-1.318 13.715,-4.246c2.818,-2.562 4.523,-6.152 4.523,-11.422l0,-37.811c0,-0.27 -0.22,-0.489 -0.493,-0.489Z" style="fill:#002a4e;fill-rule:nonzero;"/></svg>