<svg clip-rule="evenodd" fill-rule="evenodd" stroke-linejoin="round" stroke-miterlimit="1.41421" viewBox="0 0 560 400" xmlns="http://www.w3.org/2000/svg"><g fill-rule="nonzero" transform="matrix(.493128 0 0 .493128 27.5185 156.112)"><path d="m145.598 122.114 16.063-31.567 27.865 54.649h35.621l-53.602-105.194-66.55 130.604h-99.963l84.329-165.463h28.883l11.533 22.488-16.097 31.572-9.923-19.201-53.614 105.197 35.651-.004 71.358-140.064h28.811l84.32 165.474h-99.991z" fill="#f02823"/><path d="m939.857 148.109c10.966 2.966 20.139 4.094 31.95 4.094 9.068 0 17.683-1.446 17.683-9.68 0-19.15-50.697-7.08-50.697-44.488 0-24.745 25.2-31.528 46.692-31.528 10.292 0 20.415 1.474 27.655 3.84l-.06 19.72c-8.02-2.087-17.463-2.889-25.606-2.889-7.205 0-19.191.249-19.191 9.237 0 16.646 50.687 5.452 50.687 42.577 0 26.638-23.353 33.877-47.163 33.877-9.982 0-22.416-1.473-31.949-4.418v-20.342m-282.957 19.995c-17.488 4.466-27.703 4.765-37.188 4.765-31.171 0-61.047-14.525-61.047-54.021 0-26.92 19.622-63.062 95.264-49.332l-.124 20.581c-10.464-1.501-17.601-1.664-24.119-1.65-17.474.03-42.316 5.122-42.316 29.526 0 20.471 10.658 33.806 35.895 33.199 3.685-.077 7.275-.144 9.781-1.348v-20.043h-16.147v-19.75l40.001-.011zm98.245-56.945h12.838c8.905 0 19.41.47 19.41-11.731 0-10.188-8.858-11.157-19.41-11.157h-12.838zm-27.145-43.13h53.463c18.685 0 33.887 15.438 33.887 33.623 0 14.085-6.636 23.496-20.185 26.681v.292l25.576 41.981h-28.793s-17.761-28.999-24.235-38.605h-12.568v38.605h-27.145zm194.725 63.943c0 28.206-18.209 40.897-44.921 40.897-26.718 0-46.286-12.691-46.286-40.897v-63.943h27.316v59.362c0 13.586 5.019 22.622 18.97 22.622 13.939 0 17.606-9.036 17.606-22.622v-59.362h27.315zm-243.478 38.634h27.304v-102.577h-27.304zm-177.306-81.332h-.288l-13.215 40.093h25.704zm-16.738-21.125h33.477l39.489 102.457h-29.943l-7.637-21.867h-38.468l-8.078 21.867h-27.713zm-76.561-.121-28.824 36.796-28.821-36.796h-26.115v102.578h26.011v-61.915l28.947 34.417 28.9-34.417v61.915h26.05v-102.578z" fill="#5e6a71"/></g></svg>