<svg clip-rule="evenodd" fill-rule="evenodd" stroke-linejoin="round" stroke-miterlimit="1.41421" viewBox="0 0 560 400" xmlns="http://www.w3.org/2000/svg"><g fill-rule="nonzero" transform="matrix(3.7539 0 0 -3.7539 -73.4725 1078.04)"><path d="m15.639 7.59v5.051c2.923 0 5.752 3.073 5.752 6.244v8.734h27.613l-12.004-20.029zm49.592 0-12 20.029h27.609v-8.735c0-3.171 2.831-6.244 5.754-6.244v-5.05zm-43.84 33.873v6.808c0 3.073-2.831 7.454-5.752 7.454v5.957h25.375v-5.957c-2.83 0-5.754-4.381-5.754-7.454v-6.808zm18.254 0 11.473 18.889 11.469-18.889h-22.941zm27.326 0v6.808c0 3.073-2.921 7.454-5.754 7.454v5.957h25.377v-5.957c-2.922 0-5.754-4.381-5.754-7.454v-6.808z" fill="#00b140" transform="matrix(.8 0 0 -.8 53.28 261.52)"/><path d="m133.22 228.35v11.075h-11.876v3.893c0 2.99-.019 4.921 4.749 4.921v11.093h-22.752l-9.165-15.194-9.167 15.194h-22.752v-11.093c4.768 0 4.749-1.931 4.749-4.921v-3.893h-11.898v-11.075h11.898v-2.19c0-2.895.019-6.31-4.749-6.31v-11.383h27.387v5.132l3.085-5.132h2.893l3.085 5.132v-5.132h27.386v11.383c-4.768 0-4.749 3.415-4.749 6.31v2.19zm-68.845 21.811v6.801h19.312l10.489-17.459 10.487 17.459h19.315v-6.801c-3.014 0-4.692-2.127-4.692-4.842v-5.894h-1.332-22.088-3.38-22.091-1.331v5.894c0 2.715-1.678 4.842-4.689 4.842m23.131-39.43h-23.131v7.228c3.011 0 4.689 3.189 4.689 6.116v4.275h13.721v-4.275c0-3.112 1.854-6.116 4.721-6.116zm6.67-.432-10.889 18.051h21.777zm29.802 7.66v-7.228h-23.134v7.228c2.867 0 4.721 3.004 4.721 6.116v4.275h13.721v-4.275c0-2.927 1.678-6.116 4.692-6.116" fill="#231f20"/><path d="m9.711 1.227v16.883h1.506c1.971 0 3.252.279 3.808.836.617.615.62 1.983.62 3.716v3.45h-14.871v16.859h14.871v1.269c0 2.118-.005 4.254-1.106 5.354-.654.653-1.771.984-3.322.984h-1.506v17.246h37.25v-2.486c.419.697 1.494 2.486 1.494 2.486h5.32s1.077-1.789 1.498-2.486v2.486h37.246v-17.246h-1.508c-1.548 0-2.665-.331-3.32-.984-1.1-1.099-1.105-3.237-1.105-5.311v-1.312h14.844v-16.859h-14.844v-3.45c0-1.733.006-3.103.621-3.716.555-.557 1.834-.836 3.804-.836h1.508v-16.883h-30.799s-8.57 14.209-10.604 17.58c-2.033-3.372-10.606-17.58-10.606-17.58zm1.506 1.507h28.441l11.459 18.992 11.455-18.992h28.439v13.865c-5.96 0-5.934 2.415-5.934 6.153v4.867h14.844v13.844h-14.844v2.736c0 3.62-.026 7.889 5.934 7.889v14.227h-34.232v-6.414l-3.856 6.414h-3.617l-3.853-6.414v6.414h-34.236v-14.227c5.961 0 5.937-4.269 5.937-7.889v-2.736h-14.871v-13.844h14.871v-4.867c0-3.738.024-6.153-5.937-6.153zm2.648 2.963v8.5c3.764 0 5.862 2.661 5.862 6.053v7.369h1.664v-8.734c0-3.171-2.83-6.244-5.752-6.244v-5.051h21.361l12.004 20.029h4.224l12.002-20.029h21.363v5.051c-2.924 0-5.754 3.073-5.754 6.244v8.734h1.664v-7.369c0-3.392 2.099-6.053 5.866-6.053v-8.5h-24.143l-13.108 21.824-13.111-21.824h-24.141zm44.002 23.938-.646.129-.52.26-.385.258-.261.388-.905 2.586h-2.199l1.293-2.716h-3.494l.389.257.129.262.131.256-.131.389-.258.906-.26.646h-2.976l.779.389.387.518.128.517v.776l1.036-.129-.256.648-.52 1.553-.26.515v.391l.129.387h.651l.385-.129.259-.391.387-.517 1.166-2.586 2.459-.26-.52 1.812-.646 1.684-.258.645v.39l.225.338.033.049.387.129h.259l.26-.129.047-.049.213-.211.258-.517 2.068-4.27 1.555-.129-.389.647-.258.519v.647l.129.257.129.26.389.518.518.129h5.302l.778-.129.648-.389.387-.646.388-.647 1.813-3.752h1.682l.256.127.13.389-.13.129-.129.258-.518.259-1.035.131-.256.387-.26.517-.131.389.131.518.516.777.519.647 1.551 1.035.906.515 1.037.389.905.26h1.164v-.129l-.129-.258-1.553-.777h2.069l1.166-.129 1.037-.26 1.033-.389.775-.517.647-.776.388-.906.131-.517v-.649-.517l-.131-.647-.257-.517-.389-.385-.26-.26-.386-.26-.907-.258-1.162-.13h-3.754l.518.13.258.258.131.26.128.26-.128.385v.261l1.681-.131 1.166.131h.518l.386.256.258.26.26.258.129.646v.52l-.258.646-.389.518-.517.388-.649.26-.904.129h-1.035l1.164-2.719h-.904-1.164l-1.813 3.623-.906-.904-.778-.777-.126-.389v-.129l.126-.26.129-.129.909-.257.517-.389.387-.389.131-.646.129-.516-.129-.519-.26-.387-.258-.26-.26-.258-.388-.131h-.518-3.623l-1.422 3.106-.646 1.164-.389.647-.131.259-.258.131-.773.129h-2.459l-.52-.129v-.26l.129-.388.391-.778 1.164-.129.904-.257 1.293-.52.26-.127-.388-.131h-.905-1.943l.519-1.162h3.106l.775-1.554h-5.176l-1.293 2.716h-1.423l1.295-2.716v-.387l-.131-.26-.387-.129zm-35.709.127.518.389.129.26v.129h-.129l-.906.517-.647.389-1.035.646 2.974-.129 3.495-.259-.518 1.812-.518 1.553-1.295 3.363-.257.518v.517l.129.258.162.082.097.049.098-.049.162-.082.387-.129.389-.387.388-.648 4.268-6.857 2.201-.258 5.693-1.684zm15.914.778-1.295 2.847h-2.07l.906-2.072-2.328.777-.646 1.295h-2.33l.646.26.518.516.517.517-.646 1.424-.778 1.553h2.073l1.293-2.719h2.07l-1.295 2.719h2.07l3.366-7.118h-2.071zm3.235.129-1.166 2.33-1.422 2.847-.129.647v.258l.129.259.258.258.257.26.518.129h3.365l.26-.129.387-.131.519-.646.516-.776h-3.106l-.258-.129-.128-.131-.131-.128v-.389l.388-.647 1.295-.129 1.164-.259 1.424-.907h-3.494l.647-1.164h3.236l.904-1.423zm-21.58 10.795v5.343c0 3.659-2.098 7.645-5.862 7.645v9.033h28.914v-9.033c-3.583 0-5.9-3.755-5.9-7.645v-5.343h-1.619v6.808c0 3.073 2.924 7.453 5.754 7.453v5.957h-25.375v-5.957c2.921 0 5.752-4.38 5.752-7.453v-6.808zm17.779 0 13.611 22.562 13.609-22.562h-2.139l-11.471 18.889-11.471-18.889h-2.141zm27.848 0v5.343c0 3.89-2.317 7.645-5.901 7.645v9.033h28.918v-9.033c-3.767 0-5.867-3.986-5.867-7.645v-5.343h-1.664v6.808c0 3.073 2.831 7.453 5.754 7.453v5.957h-25.377v-5.957c2.832 0 5.754-4.38 5.754-7.453v-6.808z" fill="#fff" transform="matrix(.8 0 0 -.8 53.28 261.52)"/></g></svg>