<svg clip-rule="evenodd" fill-rule="evenodd" stroke-linejoin="round" stroke-miterlimit="1.41421" viewBox="0 0 560 400" xmlns="http://www.w3.org/2000/svg"><g fill="#002245" fill-rule="nonzero" transform="matrix(.962567 0 0 .962567 87.4866 55.6155)"><path d="m191.671 148.455h16.663v4.118h-16.663zm2.057 5.761h12.648v8.539h-12.648zm-18.515-24.894h49.682v2.058h-49.682zm-2.677 3.911h54.928v2.056h-54.928zm-.103-7.714h54.928v2.056h-54.928zm36.207 14.192c-2.774 2.47-2.774 6.995-2.774 6.995h-5.969-5.861s0-4.525-2.779-6.995c-1.95-1.748-4.32-2.16-4.32-2.16-1.541-.307-1.541-.515-1.541-.617h28.902s0 .31-1.541.617c.204.105-2.161.412-4.117 2.16zm-33.222-2.674h5.964c0 3.499-2.263 5.145-5.964 4.321zm21.085-56.983c2.365-4.732 2.882-11.726 3.497-11.83.619.104 1.029 7.2 3.395 11.83 2.263 4.423 7.101 8.229 6.793 8.641-.313.515-2.984-.824-4.32-1.441-2.16-1.029-3.911-1.748-3.911-1.748s-.824 11.211 1.854 21.6c2.263 8.434 7.61 16.253 8.124 16.87h-6.892l-.619-1.029c-1.849-3.292-3.188-6.069-4.423-11.006-1.336 4.835-2.672 7.714-4.524 11.006l-.616 1.028h-6.896c.518-.722 5.866-8.436 8.13-16.87 2.774-10.389 1.849-21.6 1.849-21.6s-1.746.822-3.906 1.748c-1.336.617-4.013 1.956-4.321 1.441-.207-.412 4.626-4.217 6.786-8.64zm-21.29 43.921c0-.824-.517-12.242-3.086-21.19-2.882-9.772-8.846-15.634-8.436-16.251.414-.515 5.247.41 8.846 2.982 3.911 2.675 7.714 7.098 7.407 7.407-.205.205-1.439-.926-3.911-1.75-2.468-.924-3.599-.719-3.599-.719s4.218 6.893 6.275 14.4c1.746 6.276 2.672 14.4 2.672 15.122zm49.578 0c0-.824.41-12.242 3.087-21.19 2.878-9.772 8.847-15.634 8.433-16.251-.309-.515-5.247.41-8.847 2.982-3.905 2.675-7.715 7.098-7.406 7.407.209.205 1.442-.926 3.809-1.75 2.569-.924 3.599-.719 3.599-.719s-4.218 6.893-6.271 14.4c-1.75 6.276-2.677 14.4-2.677 15.122zm-.204 13.062h-5.969c0 3.499 2.263 5.145 5.969 4.321z"/><path d="m288.048 198.139-5.241 13.473h10.08zm-8.124 20.773c-.823 1.959-1.75 4.529-1.75 6.582 0 2.059 1.955 2.473 3.496 2.779l2.473.205v1.955h-15.326v-1.85c3.087-.619 4.32-1.34 5.656-4.113.409-.824.823-1.855 1.233-3.088l1.028-2.57 9.771-24.688-.926-2.678h6.687l10.182 27.365 1.75 4.73c.41 1.029 1.029 3.082 1.956 3.91.717.717 1.848.922 4.218 1.025v1.955h-18.516v-1.955c3.292-.104 5.759-.205 5.759-2.365 0-1.234-.512-3.086-1.233-4.627l-.927-2.674-1.541-4.525h-12.347zm-40.425-24.48c-1.337 0-2.774.205-3.6.205v17.594h3.702c1.853 0 3.603-.205 5.349-1.033 1.956-1.023 3.6-3.184 3.6-7.607 0-7.202-5.244-9.159-9.051-9.159zm-3.6 24.48v3.809c0 4.938.513 5.865 4.014 5.865h2.774v1.951h-19.646v-1.951c5.759.205 6.173-1.342 6.173-4.734v-4.939-19.539c0-3.906-.618-3.906-6.173-4.219v-1.951c3.81-.414 8.847-.926 15.43-.926 2.983 0 16.975 0 16.975 11.002 0 4.426-2.058 7.201-5.866 9.049-.819.416-1.644.619-2.263.928.722.723 1.337 1.342 1.955 2.164.518.82 1.132 1.85 1.956 3.6l1.232 2.674c2.882 5.861 4.423 6.992 7.612 7.611v1.955c-5.555.203-9.978-1.854-13.576-7.406-.517-.719-1.647-2.775-2.779-4.834-1.028-1.955-2.159-3.805-2.569-4.525h-5.248zm-136.29-20.773-5.247 13.473h10.08zm-8.124 20.773c-.722 1.959-1.648 4.529-1.648 6.582 0 2.059 1.854 2.473 3.496 2.779l2.365.205v1.955h-15.219v-1.85c3.185-.619 4.319-1.34 5.655-4.113l1.234-3.088 1.029-2.57 9.875-24.688-.927-2.678h6.686l10.182 27.365 1.75 4.73c.41 1.029 1.029 3.082 1.956 3.91.819.717 1.849.922 4.32 1.025v1.955h-18.72v-1.955c3.185-.104 5.759-.205 5.759-2.365 0-1.234-.619-3.086-1.234-4.627l-.926-2.674-1.647-4.525h-12.24zm288.829 0v4.018c0 4.623 1.232 5.346 6.686 5.656v1.951h-19.438v-1.951c4.628-.313 4.729-.414 5.242-1.342.927-1.438.927-6.064.927-7.918v-19.029c0-4.627-.927-5.246-6.48-5.66v-1.949h19.441v1.949c-6.378.211-6.48 1.133-6.48 7.412v16.863zm-42.068 0v4.426c0 2.57.204 3.701 1.131 4.32.514.309 1.131.514 2.059.615.927.105 2.16.205 3.804.205v1.955h-20.881v-1.955c1.854-.104 3.087-.205 4.014-.205.927-.205 1.645-.309 2.059-.615.823-.516 1.028-1.646 1.028-3.91v-4.836-23.76h-6.275c-2.469 0-3.496.205-4.115.615-.513.313-.819.723-1.132 1.545-.308.824-.614 2.059-1.336 4.219h-1.854l.823-9.977h1.546c.615 1.027 1.132 1.131 2.16 1.232h25.714c2.774 0 3.086-.205 3.496-1.232h1.541l.927 9.977h-1.951c-1.341-6.275-2.573-6.379-5.764-6.379h-6.992zm-149.867 0v5.66c0 3.496.205 3.496 3.701 3.496h6.583c3.804 0 5.759-.615 7.408-7.197h2.058l-.927 9.461h-31.682v-1.955c5.656.209 6.07-1.338 6.07-4.73v-4.939-19.438c0-4.219-1.136-4.936-6.07-4.838v-1.744h30.034l.413 8.641h-1.955c-1.028-5.764-2.364-6.174-6.48-6.174h-9.255v15.02h9.153c3.086 0 3.905 0 4.422-4.633h2.058v11.83h-2.058c-.204-4.729-.823-4.936-5.042-4.936h-8.534v6.477h.103zm-29.009 0c.103.617.205 1.34.205 1.959 0 5.754-4.628 10.904-11.826 10.904-1.131 0-1.853-.107-2.882-.211-1.029-.205-2.365-.619-4.627-1.232-.41-.205-.722-.205-1.029-.205-.722 0-.927.205-.927.818h-1.853l-1.132-9.766h2.059c2.574 7.406 7.924 8.334 9.67 8.334 2.365 0 7.1-1.547 7.1-6.486 0-1.645-.517-2.984-1.442-4.213-1.541-2.059-4.32-3.707-8.124-6.07-7.714-4.73-9.153-8.229-9.153-11.621 0-5.656 5.14-9.771 10.387-9.771 2.059 0 3.911.307 5.555.926.512.205 2.263.928 2.569.928.209 0 .518-.211 1.029-.83h1.852l.928 9.057h-2.059c-1.853-4.832-4.833-7.816-9.051-7.816-3.292 0-5.763 2.467-5.763 5.246 0 1.746.517 2.877 2.058 4.32.824.717 1.955 1.645 3.395 2.564l5.451 3.605c1.75 1.131 3.395 2.262 4.735 3.809 1.333 1.64 2.465 3.487 2.875 5.751zm-136.184 0-.414 4.631c-.104.41-.104 1.648-.104 2.57 0 2.365 3.292 2.365 5.35 2.365v1.955h-15.018v-1.955c6.48-.309 6.48-.615 6.998-7.197l.205-2.469 1.645-20.266c.204-3.6-.41-3.6-5.35-3.91v-1.951h12.756l11.313 26.127.824 1.951.927-1.951 11.416-26.127h12.552v1.951c-1.545 0-2.472 0-3.292.105-.722.205-1.234.307-1.546.615-.614.619-.717 1.955-.512 4.836l1.233 18.717.205 3.398c.308 4.936.414 6.48 6.071 6.275v1.951h-18.412v-1.951c1.336-.105 3.292-.205 4.525-.619 1.028-.414 1.647-1.029 1.647-2.365 0-.518-.209-2.264-.209-2.779l-.205-3.803-1.233-20.574-9.052 20.574-5.042 11.625h-1.849l-4.939-11.625-8.742-20.574z"/></g></svg>