<svg viewBox="0 0 560 400" xmlns="http://www.w3.org/2000/svg" fill-rule="evenodd" clip-rule="evenodd"><clipPath id="a"><path d="M125.758 80h308.483v240h-308.483z"/></clipPath><g clip-path="url(#a)"><path d="M431.265 234.411v-3.701h-.964l-1.115 2.54-1.114-2.537h-.97v3.701h.685v-2.794l1.042 2.406h.71l1.047-2.406v2.794h.679v-.003zm-6.116 0v-3.068h1.234v-.617h-3.153v.617h1.234v3.067h.679l.006.001z" fill="#0099df"/><path fill="#2271ce" d="M238.296 100.381h83.414v149.901h-83.414z"/><path d="M243.588 175.337c0-30.409 14.238-57.497 36.409-74.952-16.78-13.232-37.548-20.418-58.917-20.385-52.645 0-95.322 42.683-95.322 95.337 0 52.653 42.677 95.337 95.322 95.337 21.371.031 42.14-7.156 58.92-20.391-22.174-17.45-36.412-44.537-36.412-74.946" fill="#005eb6"/><path d="M434.242 175.337c0 52.653-42.677 95.337-95.322 95.337-21.371.031-42.14-7.156-58.92-20.391 22.172-17.456 36.409-44.544 36.409-74.952 0-30.409-14.235-57.491-36.409-74.948 16.781-13.232 37.55-20.417 58.92-20.383 52.648 0 95.322 42.683 95.322 95.337" fill="#0099df"/><path d="M351.539 316.688v.617h.575c.108.004.215-.023.309-.078.079-.051.126-.142.121-.236.005-.093-.042-.182-.121-.23-.092-.058-.2-.086-.309-.079l-.575.006zm.581-.436c.247-.015.491.056.691.2.163.134.253.337.242.546.007.18-.063.355-.194.479-.155.133-.348.213-.552.229l.771.88h-.594l-.709-.873h-.23v.873h-.497v-2.334h1.072zm-.154 3.134c.261.003.519-.05.757-.154.469-.199.841-.573 1.037-1.043.308-.734.143-1.586-.418-2.151-.176-.177-.386-.317-.617-.412-.239-.104-.497-.157-.757-.155-.265 0-.528.052-.772.155-.982.423-1.448 1.576-1.036 2.563.094.232.234.442.412.617.178.177.387.318.617.418.244.103.506.155.771.154m0-4.473c.677.002 1.327.267 1.812.739.233.228.419.5.546.801.267.623.267 1.328 0 1.951-.129.297-.314.567-.546.794-.236.232-.514.418-.819.546-.314.135-.653.203-.995.201-.685.004-1.344-.265-1.83-.747-.232-.227-.418-.497-.547-.794-.266-.623-.266-1.328 0-1.951.128-.301.313-.573.547-.801.233-.233.512-.417.819-.54.32-.135.664-.203 1.011-.2" fill="#242021"/><path d="M344.707 295.277c-2.648-1.746-6.303-2.649-10.321-2.649-6.414 0-10.541 3.073-10.541 8.104 0 4.128 3.072 6.668 8.734 7.467l2.601.37c3.012.424 4.444 1.219 4.444 2.642 0 1.964-2.005 3.073-5.771 3.073-3.812 0-6.564-1.219-8.418-2.649l-2.594 4.291c3.018 2.225 6.831 3.286 10.951 3.286 7.309 0 11.546-3.443 11.546-8.261 0-4.449-3.333-6.776-8.842-7.577l-2.595-.37c-2.381-.308-4.291-.794-4.291-2.485 0-1.851 1.8-2.964 4.819-2.964 3.23 0 6.358 1.218 7.892 2.17l2.382-4.448h.004zm-130.05 10.642c0 7.68 5.346 13.293 13.504 13.293 3.813 0 6.352-.849 9.1-3.019l-2.648-4.448c-2.061 1.485-4.231 2.28-6.619 2.28-4.394-.054-7.619-3.232-7.619-8.104 0-4.873 3.225-8.05 7.619-8.104 2.388 0 4.558.794 6.619 2.278l2.648-4.448c-2.751-2.17-5.292-3.019-9.1-3.019-8.158 0-13.504 5.613-13.504 13.293m53.087-13.291c-3.176 0-5.244 1.485-6.674 3.702v-3.073h-5.44v25.311h5.503v-14.19c0-4.182 1.8-6.509 5.399-6.509 1.178-.017 2.348.199 3.442.637l1.697-5.189c-1.212-.478-2.806-.691-3.915-.691m20.453 0c-3.176 0-5.244 1.486-6.674 3.702v-3.072h-5.46v25.311h5.503v-14.191c0-4.181 1.8-6.509 5.398-6.509 1.179-.017 2.349.2 3.443.637l1.697-5.188c-1.213-.478-2.806-.691-3.915-.691m-38.587 25.939h-5.542v-25.276h5.542v25.276zm-2.801-37.907c1.04-.01 2.041.399 2.777 1.134.353.354.636.773.831 1.234.401.981.401 2.081 0 3.061-.19.464-.473.883-.83 1.234-.354.346-.774.618-1.234.801-.487.195-1.008.294-1.533.29-.523.004-1.042-.094-1.527-.29-.462-.18-.882-.452-1.234-.801-.346-.354-.618-.773-.8-1.234-.197-.484-.296-1.003-.292-1.527-.003-.525.096-1.046.292-1.533.185-.458.457-.877.8-1.234.351-.357.771-.639 1.234-.829.482-.208 1.002-.313 1.527-.309m72.616 27.197c0 2.006-.334 3.728-.988 5.171-.596 1.356-1.486 2.563-2.606 3.533-1.084.919-2.343 1.606-3.702 2.019-2.783.865-5.764.865-8.547 0-1.362-.414-2.627-1.101-3.715-2.019-1.123-.967-2.014-2.175-2.607-3.533-.649-1.44-.974-3.163-.976-5.171v-14.565h5.474v14.064c0 1.213.154 2.249.462 3.104.27.777.711 1.483 1.291 2.066.548.531 1.212.925 1.939 1.153 1.563.476 3.232.476 4.794 0 .727-.228 1.391-.623 1.939-1.153.582-.581 1.024-1.288 1.291-2.066.308-.855.463-1.891.463-3.104v-14.062h5.472v14.565l.016-.002z" fill="#242021"/></g></svg>