<svg clip-rule="evenodd" fill-rule="evenodd" stroke-linejoin="round" stroke-miterlimit="1.41421" viewBox="0 0 560 400" xmlns="http://www.w3.org/2000/svg"><g fill="#54565a" fill-rule="nonzero" transform="matrix(.705572 0 0 .705572 30 164.227)"><path d="m629 101.4v-27.6c0-17.2-8.5-22-33-22h-48.2v49.6h30.4v-33.6h8.1c9 0 12.2 5.3 12.2 11v22.6zm-87-33.2v-2c0-8.2-4.7-14.4-25.9-14.4h-31.2c-19.7 0-27.9 6.7-27.9 21.4v8.7c0 12.4 8.2 19.5 25.6 19.5h55.6v-14.6h-44.9c-4.4 0-6-1.4-6-4.7v-.5h34.9c12.4.1 19.8-4.1 19.8-13.4zm-28.8 1.2c0 2.2-.9 3.5-4.4 3.5h-21.4v-1.9c0-2.8 1.1-4.7 4.6-4.7h16.6c2.7-.1 4.6.9 4.6 3.1zm-78.4-2.7h19v-15h-39c-6.3 0-10.2 3.4-10.2 8.8v40.8h30.3v-34.6zm-36.8 15.4v-10.8c0-12.4-8.1-19.5-25.6-19.5h-54.4v14.4h43.7c4.4 0 6 1.4 6 4.8v.5h-34.9c-14.7 0-19.6 6.3-19.6 14.3v1.6c0 3.6 1.1 6.7 3.2 8.7 4.2 4.1 12.5 5.3 23.6 5.3h30.2c19.6-.1 27.8-4.7 27.8-19.3zm-30.4 0c0 2.8-1.1 4.7-4.6 4.7h-16.4c-2.8 0-4.5-.8-4.5-3s1-3.6 4.5-3.6h21zm-58.9 19.3v-15h-23.4v-42.6h-30.4v57.6zm-109.6 0h49v-15h-40.1c-3.9 0-7.9-2.2-7.9-9.5v-1c0-6.5 3.3-9.1 7.6-9.1h40.4v-15h-50c-20.3 0-28.6 8.9-28.6 22.5v4.6c0 16 8.9 22.5 29.6 22.5zm-66.2 0h30.4v-57.6h-17.8c-7.3 0-12.5 3.1-17.5 7.4-5.6 4.9-25.7 22.3-25.7 22.3v-29.7h-17.9c-10.1 0-15.2 3.5-20.9 7.9-3.8 3.1-63.5 49.7-63.5 49.7h36.2l35.7-29.4v29.4h29l32-29.2z"/><path d="m685.4 0c-15.6 0-37.6 4.7-61.5 13.4-19.9 7.3-39.6 16.5-60.9 30 12.5-5.1 37-10.8 57.3-10.8 27.4 0 46.9 10.5 18.1 47.2 84.9-55.6 82.5-79.8 47-79.8"/></g></svg>