<?xml version="1.0" encoding="UTF-8" standalone="no"?><!DOCTYPE svg PUBLIC "-//W3C//DTD SVG 1.1//EN" "http://www.w3.org/Graphics/SVG/1.1/DTD/svg11.dtd"><svg width="100%" height="100%" viewBox="0 0 560 400" version="1.1" xmlns="http://www.w3.org/2000/svg" xmlns:xlink="http://www.w3.org/1999/xlink" xml:space="preserve" xmlns:serif="http://www.serif.com/" style="fill-rule:evenodd;clip-rule:evenodd;stroke-linejoin:round;stroke-miterlimit:1.41421;"><g><path d="M317.5,68.75l-100.001,0c-6.857,0 -12.5,5.643 -12.5,12.5l0,53.125l112.501,65.625l56.25,23.733l56.25,-23.733l0,-65.625l-112.5,-65.625Z" style="fill:#21a366;fill-rule:nonzero;"/><rect x="204.999" y="134.375" width="112.501" height="65.625" style="fill:#107c41;"/><path d="M417.5,68.75l-100,0l0,65.625l112.5,0l0,-53.125c0,-6.857 -5.643,-12.5 -12.5,-12.5c0,0 0,0 0,0Z" style="fill:#33c481;fill-rule:nonzero;"/><path d="M317.5,200l-112.501,0l0,118.75c0,6.857 5.643,12.5 12.5,12.5l200.001,0c6.857,0 12.5,-5.643 12.5,-12.5l0,-53.125l-112.5,-65.625Z" style="fill:#185c37;fill-rule:nonzero;"/><rect x="317.5" y="200" width="112.5" height="65.625" style="fill:#107c41;"/><path d="M286.25,115.625l-81.25,0l0,178.125l81.25,0c6.849,-0.02 12.48,-5.65 12.5,-12.5l0,-153.125c-0.02,-6.85 -5.651,-12.48 -12.5,-12.5Z" style="fill-opacity:0.1;fill-rule:nonzero;"/><path d="M276.875,125l-71.875,0l0,178.125l71.875,0c6.849,-0.02 12.48,-5.65 12.5,-12.5l0,-153.125c-0.02,-6.85 -5.651,-12.48 -12.5,-12.5Z" style="fill-opacity:0.2;fill-rule:nonzero;"/><path d="M276.875,125l-71.875,0l0,159.375l71.875,0c6.849,-0.02 12.48,-5.65 12.5,-12.5l0,-134.375c-0.02,-6.85 -5.651,-12.48 -12.5,-12.5Z" style="fill-opacity:0.2;fill-rule:nonzero;"/><path d="M267.5,125l-62.5,0l0,159.375l62.5,0c6.849,-0.02 12.48,-5.65 12.5,-12.5l0,-134.375c-0.02,-6.85 -5.651,-12.48 -12.5,-12.5Z" style="fill-opacity:0.2;fill-rule:nonzero;"/><path id="Back_Plate" d="M142.5,125l125,0c6.857,0 12.5,5.643 12.5,12.5l0,125c0,6.857 -5.642,12.5 -12.5,12.5l-125,0c-6.857,0 -12.5,-5.643 -12.5,-12.5c0,0 0,0 0,0l0,-125c0,-6.857 5.643,-12.5 12.5,-12.5Z" style="fill:#107c41;fill-rule:nonzero;"/><path d="M163.126,246.875l30.335,-47.006l-27.785,-46.744l22.359,0l15.167,29.877c1.394,2.834 2.353,4.948 2.877,6.342l0.196,0c1.002,-2.265 2.048,-4.466 3.138,-6.603l16.213,-29.616l20.529,0l-28.504,46.483l29.223,47.267l-21.836,0l-17.521,-32.819c-0.825,-1.395 -1.526,-2.861 -2.092,-4.38l-0.261,0c-0.512,1.489 -1.192,2.914 -2.027,4.249l-18.044,32.95l-21.967,0Z" style="fill:#fff;fill-rule:nonzero;"/><rect x="130" y="50" width="300" height="300" style="fill:none;"/></g></svg>