<svg clip-rule="evenodd" fill-rule="evenodd" viewBox="0 0 560 400" xmlns="http://www.w3.org/2000/svg"><path d="m428.976 219.216h-28.111v-119.192h28.121zm-222.114-85.424-16.056 85.424h-19.688l-16.182-85.424v85.424h-23.921v-119.192l35.826-.024 14.089 74.536 14.067-74.536h35.811v119.255h-23.947v-85.463zm110.899 55.64c0 20.591-16.784 32.515-37.377 32.515-20.583 0-37.394-11.947-37.394-32.545l-.073-89.402h28.118l.054 88.916c0 5.095 4.195 9.237 9.295 9.237s9.293-4.142 9.293-9.237l.056-88.916h28.116zm70.944 3.704c0 17.973-14.635 28.942-32.608 28.942-17.987 0-32.582-10.969-32.582-28.942-.069-4.489-.052-11.136-.052-17.419l25.009-.025v17.444c0 3.38 2.701 6.092 6.065 6.092 3.377 0 6.107-2.711 6.107-6.092l.034-93.136h28.124l-.096 93.136zm-226.648 60.544c-1.375 1.243-2.225 1.899-4.647 3.723-2.091-3.071-3.593-4.835-6.278-6.997 5.561-3.73 8.962-6.928 11.511-10.793.659-.983 1.115-1.894 1.509-2.879l10.464 1.701c-.522.659-.522.659-1.177 1.77-.387.715-.978 1.569-1.571 2.419h30.354c3.926 0 6.153-.128 8.376-.395v9.817c-2.026-.262-3.399-.328-5.82-.39v6.017h1.77c3.333 0 4.443-.066 6.474-.321v9.808c-1.965-.265-3.272-.324-6.474-.324h-1.77v6.215h.524c3.338 0 4.774-.066 6.215-.264v9.621c-1.703-.265-2.945-.328-6.151-.328 2.877 3.465 3.6 4.511 7.783 11.77l-8.891 5.497c-2.424-5.756-4.254-9.158-7.788-14.392l6.019-2.875h-41.151l6.935 3.402c-2.684 6.605-4.45 9.678-8.374 14.255l-8.051-6.148c3.664-3.669 5.499-6.411 7.719-11.51h-.52c-2.551 0-3.858.063-5.497.328v-9.687c1.767.264 3.274.329 6.477.329h1.313v-6.215h-2.291c-3.139 0-4.448.059-6.475.324v-9.808c2.027.255 3.137.321 6.475.321h3.01v-3.994zm8.307 45.797c.128-1.767.128-2.292.128-3.534 0-4.323-.194-7.592-.588-11.515l9.095-.853c1.042 6.741 1.373 10.011 1.5 15.174l-10.136.728zm-.132-41.806h3.009v-6.017h-3.009zm0 15.376h3.009v-6.215h-3.009zm11.32-15.376h3.073v-6.017h-3.073zm0 15.376h3.073v-6.215h-3.073zm4.318 26.229c-.917-6.411-1.509-9.744-2.814-14.392l9.095-1.895c1.89 5.691 2.809 9.028 3.791 14.263zm10.139-41.605v-6.017h-3.141v6.017zm0 15.376v-6.215h-3.141v6.215zm53.543-25.584-2.162.728c-4.249 1.434-10.597 3.137-16.481 4.316v7.911h10.268c2.551 0 4.451-.128 6.019-.326v10.011c-1.439-.198-3.269-.324-5.887-.324h-10.401v10.141h10.599c2.485 0 4.12-.069 5.752-.324v9.999c-1.504-.191-3.269-.324-5.752-.324h-10.599c.069 2.885.069 3.598.257 5.372h-10.658c.258-2.032.392-4.722.392-8.903v-35.916c0-3.598 0-4.185-.201-5.822 8.251-.851 14.917-2.357 20.412-4.578 1.443-.593 2.421-1.047 3.203-1.578l5.239 8.31v-.517c0-2.227-.068-3.467-.198-5.043 1.571.201 3.465.264 6.278.264h17.206c2.548 0 4.188-.063 6.149-.264-.198 2.031-.262 3.271-.262 6.218v35.395c0 3.402-.326 5.234-1.306 6.543-1.573 2.286-3.86 2.939-10.074 2.939-1.047 0-1.901-.069-3.666-.132-.13-3.73-.522-6.017-1.899-10.276 2.162.333 3.404.399 4.715.399 1.63 0 2.026-.329 2.026-1.639v-29.504h-8.835v39.967c0 3.858.133 6.675.395 8.899h-10.925c.262-1.899.395-4.908.395-9.092v-42.852h.002zm67.496 46.054c-9.217 2.428-14.848 3.598-27.672 5.825-.848.135-.917.135-1.632.26l-1.177.265-1.708-10.276c1.581-.059 3.924-.255 6.543-.586v-39.051c0-2.747-.057-4.838-.324-6.933 2.164.194 4.707.324 7.394.324h11.709v-.65c0-1.574-.125-2.813-.387-4.649h10.989c-.262 1.306-.394 2.423-.394 4.707v.593h12.358c2.688 0 5.112-.13 7.274-.324-.204 1.438-.324 3.727-.324 7.129v17.071c0 3.6.051 5.374.324 7.268-1.836-.132-2.754-.198-4.783-.264l6.94 4.908c-5.695 3.728-7.533 4.835-11.064 6.605 4.776 2.157 9.491 3.34 16.027 4.053-2.088 2.946-3.076 4.977-4.904 10.21-6.212-1.373-10.27-2.816-15.373-5.501-3.855-2.091-6.801-4.185-9.879-7.06l.063 6.077zm-15.373-38.531h27.935v-2.747h-27.935zm0 10.797h27.935v-3.005h-27.935zm0 21.717c4.843-.78 4.843-.78 12.89-2.549-2.945-3.336-4.386-5.757-6.474-10.729h-6.416zm16.627-13.277c1.691 3.134 2.542 4.316 4.835 6.347 3.855-2.095 7.129-4.32 9.422-6.347h-14.256zm34.802 25.053c.255-2.161.387-3.858.387-7.457v-17.792c0-2.227-.063-4.122-.255-6.087 2.091.198 3.855.258 6.666.258h16.228c1.765 0 3.137-.061 4.512-.189-.132 1.24-.132 2.091-.132 5.234v19.691c0 2.357.063 3.924.201 5.362h-9.817v-1.833h-7.592v2.813h-10.199zm8.307-53.639c0-2.424-.066-4.124-.264-6.023 1.833.198 3.994.267 7.457.267h27.869c3.598 0 5.756-.069 7.526-.267-.201 1.632-.262 3.406-.262 6.023v13.076c0 2.885.061 4.651.262 6.352-1.831-.135-3.075-.196-6.678-.196h-29.565c-3.526 0-4.838.061-6.609.196.132-1.632.264-3.793.264-6.352zm9.487 31.596h-7.651v10.207h7.651zm.39-28.07v6.741h22.507v-6.741zm34.343 19.036c2.948 0 4.583-.061 6.087-.258-.194 1.897-.264 3.532-.264 6.153v17.792c0 3.598.069 5.431.395 7.391h-10.27v-2.813h-8.244v2.813h-9.68c.127-1.566.193-3.075.193-5.365v-20.803c0-3.005 0-3.598-.13-5.098 1.373.128 2.681.189 4.516.189h17.397zm-12.295 19.242h8.31v-10.207h-8.31z" fill="#7f0019"/></svg>