<svg clip-rule="evenodd" fill-rule="evenodd" stroke-linejoin="round" stroke-miterlimit="1.41421" viewBox="0 0 560 400" xmlns="http://www.w3.org/2000/svg"><g fill="#f57c14" fill-rule="nonzero" transform="matrix(1.33942 0 0 1.33942 12.1161 11.3044)"><path d="m383.352 132.005h-.802v2.242h-.486v-2.242h-.799v-.414h2.087zm.652-.454h-.08v2.696h.483v-1.673l.832.995h.095l.825-.995v1.673h.49v-2.696h-.079l-1.281 1.438z"/><path d="m31.552 131.424c5.048 0 9.349 1.778 12.901 5.332 3.555 3.508 5.331 7.799 5.331 12.868v16.74h-13.818v-16.468c0-1.947-.432-3.611-1.291-4.991-.861-1.381-1.902-2.072-3.124-2.072-1.201 0-2.229.691-3.09 2.072-.86 1.38-1.29 3.044-1.29 4.991v16.468h-13.819v-16.74c0-5.069 1.777-9.359 5.331-12.868 3.531-3.554 7.82-5.332 12.869-5.332z"/><path d="m63.089 128.674c-1.473 1.449-2.23 2.524-2.275 3.226v.068c0 .725.646 1.721 1.937 2.989l1.527 1.528c1.358 1.381 2.038 3.034 2.038 4.958v24.922h-13.957v-24.924c0-1.947.68-3.6 2.038-4.957l1.563-1.528c1.267-1.268 1.9-2.276 1.9-3.023v-.068c-.067-.679-.826-1.743-2.274-3.191l-1.664-1.699c-1.518-1.494-2.275-3.304-2.275-5.433 0-2.127.758-3.927 2.275-5.399 1.471-1.516 3.271-2.275 5.397-2.275 2.15 0 3.961.747 5.434 2.241 1.516 1.494 2.274 3.305 2.274 5.433 0 2.151-.759 3.961-2.274 5.433z"/><path d="m89.418 155.496c.61-1.154 1.006-2.512 1.188-4.074h13.785c-.385 4.369-2.128 8.08-5.229 11.138v.034c-3.53 3.555-7.787 5.33-12.767 5.33h-.17c-5.003 0-9.271-1.775-12.801-5.33v-.035c-3.555-3.508-5.332-7.766-5.332-12.767v-.171c0-5.002 1.776-9.258 5.332-12.766 3.53-3.554 7.819-5.331 12.869-5.331 5.024 0 9.313 1.777 12.868 5.331 3.102 3.079 4.844 6.791 5.229 11.137h-13.785c-.182-1.563-.577-2.92-1.188-4.074-.884-1.585-1.926-2.377-3.124-2.377-1.2 0-2.23.792-3.091 2.377-.86 1.607-1.291 3.542-1.291 5.806 0 2.241.431 4.165 1.291 5.772.86 1.584 1.891 2.389 3.091 2.412 1.2-.023 2.242-.828 3.125-2.412z"/><path d="m133.354 151.152 6.995 10.694c.589.884.883 1.677.883 2.377 0 .295-.046.565-.136.815-.317.882-.996 1.324-2.037 1.324h-11.409l-7.199-11.033v11h-13.818v-28.013c0-1.902.679-3.531 2.037-4.891 1.335-1.335 2.955-2.003 4.854-2.003 1.924 0 3.554.668 4.891 2.003 1.357 1.359 2.036 2.988 2.036 4.891v7.47l6.248-11.171c.974-1.653 2.389-2.716 4.245-3.193.611-.158 1.211-.237 1.8-.237 1.199 0 2.344.318 3.43.951 1.651.996 2.716 2.422 3.191 4.278.158.589.237 1.177.237 1.765 0 1.201-.328 2.343-.984 3.43z"/><path d="m157.371 131.524c4.958 0 9.235 1.812 12.836 5.433 2.444 2.445 3.904 5.625 4.38 9.542.112.95.169 1.834.169 2.648 0 .905-.068 1.721-.204 2.444h-21.425c.181 1.426.564 2.672 1.153 3.735.86 1.586 1.891 2.389 3.09 2.412 1.224 0 2.365-.715 3.431-2.141.521-.725.927-1.447 1.222-2.174h12.326c-.136 3.124-1.472 6.136-4.007 9.031-3.6 3.623-7.89 5.435-12.869 5.435-5.093 0-9.417-1.778-12.971-5.331-3.554-3.531-5.33-7.82-5.33-12.868 0-5.026 1.775-9.315 5.33-12.869 3.554-3.531 7.844-5.297 12.869-5.297zm4.008 14.94c-.25-1.155-.544-2.037-.884-2.649-.904-1.629-1.946-2.445-3.124-2.445-1.313 0-2.343.793-3.09 2.377-.385.815-.69 1.721-.917 2.716z"/><path d="m183.192 113.835c1.923 0 3.553.679 4.891 2.037 1.357 1.336 2.036 2.966 2.036 4.89v45.601h-13.818v-45.601c0-1.924.667-3.554 2.003-4.89 1.357-1.357 2.987-2.037 4.888-2.037z"/><path d="m223.109 136.787c3.555 3.554 5.331 7.844 5.331 12.869 0 5.047-1.776 9.35-5.331 12.903-.114.113-.329.316-.646.611-.271.248-.406.385-.406.406-3.419 2.875-7.347 4.313-11.783 4.313h-.17c-4.413 0-8.318-1.449-11.713-4.346-.228-.137-.589-.465-1.087-.985-3.553-3.554-5.331-7.854-5.331-12.902 0-5.025 1.777-9.314 5.331-12.869 3.554-3.576 7.854-5.364 12.902-5.364 5.05-.001 9.351 1.787 12.903 5.364zm-9.811 18.675c.882-1.607 1.323-3.542 1.323-5.807 0-2.24-.441-4.165-1.323-5.772-.861-1.607-1.892-2.411-3.09-2.411-1.2 0-2.241.804-3.124 2.411-.839 1.631-1.257 3.553-1.257 5.772 0 2.241.418 4.177 1.257 5.807.883 1.608 1.924 2.409 3.124 2.409 1.198.002 2.229-.801 3.09-2.409z"/><path d="m260.99 162.592c-3.53 3.554-7.82 5.331-12.869 5.331-5.048 0-9.337-1.777-12.866-5.331-3.556-3.553-5.331-7.844-5.331-12.869 0-5.023 1.775-9.314 5.331-12.868 3.53-3.554 7.818-5.331 12.866-5.331 1.493 0 2.954.182 4.381.543v-11.306c0-1.924.68-3.554 2.037-4.89 1.357-1.357 2.987-2.037 4.89-2.037 1.901 0 3.531.679 4.89 2.037 1.335 1.336 2.014 2.955 2.037 4.856v28.996c-.002 5.027-1.79 9.316-5.366 12.869zm-12.869-4.684c1.199 0 2.229-.804 3.091-2.412.859-1.584 1.29-3.521 1.29-5.806 0-2.264-.431-4.188-1.29-5.772-.86-1.607-1.892-2.411-3.091-2.411-1.222 0-2.252.804-3.089 2.411-.86 1.585-1.291 3.508-1.291 5.772 0 2.263.431 4.198 1.291 5.806.837 1.608 1.867 2.412 3.089 2.412z"/><path d="m286.135 131.524c4.958 0 9.236 1.812 12.835 5.433 2.445 2.445 3.904 5.625 4.38 9.542.113.95.17 1.834.17 2.648 0 .905-.067 1.721-.203 2.444h-21.426c.181 1.426.564 2.672 1.154 3.735.859 1.586 1.891 2.389 3.09 2.412 1.223 0 2.365-.715 3.43-2.141.521-.725.928-1.447 1.222-2.174h12.326c-.136 3.124-1.473 6.136-4.008 9.031-3.598 3.623-7.889 5.435-12.869 5.435-5.092 0-9.416-1.778-12.97-5.331-3.555-3.531-5.331-7.82-5.331-12.868 0-5.026 1.776-9.315 5.331-12.869 3.552-3.531 7.841-5.297 12.869-5.297zm4.007 14.94c-.249-1.155-.544-2.037-.883-2.649-.906-1.629-1.947-2.445-3.124-2.445-1.313 0-2.342.793-3.09 2.377-.386.815-.69 1.721-.917 2.716z"/><path d="m336.381 136.787c3.554 3.554 5.331 7.844 5.331 12.869 0 5.047-1.777 9.35-5.331 12.903-.114.113-.328.316-.646.611-.272.248-.408.385-.408.406-3.417 2.875-7.347 4.313-11.78 4.313h-.17c-4.414 0-8.318-1.449-11.716-4.346-.227-.137-.589-.465-1.087-.985-3.554-3.554-5.331-7.854-5.331-12.902 0-5.025 1.777-9.314 5.331-12.869 3.554-3.576 7.855-5.364 12.903-5.364 5.047-.001 9.348 1.787 12.904 5.364zm-9.815 18.675c.884-1.607 1.324-3.542 1.324-5.807 0-2.24-.44-4.165-1.324-5.772-.859-1.607-1.89-2.411-3.089-2.411-1.2 0-2.241.804-3.124 2.411-.837 1.631-1.256 3.553-1.256 5.772 0 2.241.419 4.177 1.256 5.807.883 1.608 1.924 2.409 3.124 2.409 1.201.002 2.23-.801 3.089-2.409z"/><path d="m361.526 131.424c5.047 0 9.349 1.778 12.902 5.332 3.554 3.508 5.331 7.799 5.331 12.868v16.74h-13.82v-16.468c0-1.947-.43-3.611-1.29-4.991-.861-1.381-1.901-2.072-3.123-2.072-1.201 0-2.229.691-3.09 2.072-.861 1.38-1.291 3.044-1.291 4.991v16.468h-13.819v-16.74c0-5.069 1.777-9.36 5.331-12.868 3.531-3.554 7.821-5.332 12.869-5.332z"/></g></svg>