<svg clip-rule="evenodd" fill-rule="evenodd" stroke-linejoin="round" stroke-miterlimit="1.41421" viewBox="0 0 560 400" xmlns="http://www.w3.org/2000/svg"><path d="m283.665 119.225v42.57s-16.92-12.69-34.02-12.69-36.9 13.68-54.72 13.68-30.69-12.15-30.69-12.15v-43.38s17.01 13.59 34.83 13.59c16.74 0 37.53-13.59 54.72-13.59 17.28-.09 29.88 11.97 29.88 11.97zm0 97.56v-43.2s-16.92 12.69-34.02 12.69-36.9-13.68-54.72-13.68-30.69 12.15-30.69 12.15v44.1s17.01-13.59 34.83-13.59c16.74 0 37.53 13.59 54.72 13.59 17.28 0 29.88-12.06 29.88-12.06zm-22.05-49.68c0-2.79-2.25-5.04-5.04-5.04s-5.04 2.25-5.04 5.04 2.25 4.95 5.04 4.95c2.79.09 5.04-2.16 5.04-4.95z" fill="#1e76bd" fill-rule="nonzero" transform="matrix(1.67462 0 0 1.67462 -95.0313 -81.4196)"/></svg>