<?xml version="1.0" encoding="UTF-8" standalone="no"?>
<!DOCTYPE svg PUBLIC "-//W3C//DTD SVG 1.1//EN" "http://www.w3.org/Graphics/SVG/1.1/DTD/svg11.dtd">
<svg width="100%" height="100%" viewBox="0 0 560 400" version="1.1" xmlns="http://www.w3.org/2000/svg" xmlns:xlink="http://www.w3.org/1999/xlink" xml:space="preserve" xmlns:serif="http://www.serif.com/" style="fill-rule:evenodd;clip-rule:evenodd;">
    <g transform="matrix(0.144085,0,0,0.144085,99.9003,135.954)">
        <path d="M377.851,6.715C433.656,-2.806 491.312,-2.013 547.116,9.095C574.622,13.856 600.012,27.08 623.815,40.833C650.791,56.966 678.297,71.776 706.067,86.058C772.98,130.49 827.727,193.965 858.935,268.547C876.655,309.806 887.234,353.973 891.73,398.67C902.309,457.384 896.491,518.214 877.184,574.547C861.844,630.352 826.669,676.9 798.37,726.352C794.403,732.964 788.849,738.782 783.823,744.865C747.326,788.774 704.216,828.445 650.791,850.397C653.172,847.223 654.494,843.785 655.023,840.082C648.94,841.405 642.857,842.997 636.774,844.848C640.212,840.352 645.502,837.967 650.263,834.793C667.718,823.42 684.38,810.99 700.249,797.502C702.893,795.121 706.596,793.799 707.654,790.096C701.307,792.741 697.339,798.824 691.521,802.527C607.682,863.092 502.684,896.416 399.009,887.424C292.161,878.696 190.337,826.858 118.928,746.986C69.471,692.24 33.502,625.327 15.253,553.918C-6.434,471.93 -4.054,383.595 23.452,303.194C39.321,256.646 62.594,212.478 93.803,174.394C142.731,113.299 205.412,61.991 277.614,31.047C310.938,22.319 343.734,12.269 377.851,6.715M383.141,31.84C307.236,45.329 235.827,81.298 177.906,132.077C115.754,186.295 68.677,257.704 43.817,336.254C34.824,380.95 25.303,426.44 25.832,472.195C35.353,540.165 55.983,607.871 94.596,665.263C121.044,704.935 156.219,738.523 195.891,764.442C198.007,765.764 200.387,766.822 202.503,767.616C179.229,751.218 159.393,730.853 139.028,711.018C72.909,644.105 35.882,550.215 36.147,456.326C35.618,375.925 61.008,295.789 105.969,229.14C125.276,209.305 138.235,184.444 156.748,163.55C217.843,105.101 295.599,65.165 377.322,44.535C466.451,31.311 559.282,46.387 640.477,85.265C717.175,121.763 783.823,180.212 826.669,253.737C859.464,309.277 877.448,373.28 879.035,437.548C880.093,414.01 882.209,389.678 875.333,366.668C866.869,331.757 858.935,296.053 842.537,264.051C813.18,214.859 783.03,164.608 739.92,126.259C707.125,97.166 668.776,74.686 628.046,58.553C592.607,49.031 556.902,40.568 521.198,31.576C475.708,23.377 428.631,23.906 383.141,31.84M393.72,94.257C324.427,111.184 260.688,146.888 206.206,192.113C190.601,206.924 175.791,223.057 167.327,243.158C165.476,247.654 164.418,252.679 161.509,256.91C162.302,256.91 163.625,256.646 164.418,256.381C179.493,235.488 195.362,215.123 214.404,197.668C268.093,147.681 339.502,118.589 411.969,112.506C493.692,105.101 577.267,125.465 646.56,168.575C670.363,182.063 692.579,198.196 711.621,218.032C745.474,252.943 769.806,297.111 783.823,343.659C798.634,386.504 810.8,431.994 804.982,477.749C797.312,526.151 796.254,576.663 776.418,622.418C759.492,648.601 743.887,675.583 726.432,701.232C669.569,765.764 596.574,818.66 512.47,839.289C504.536,840.082 497.395,844.578 489.196,843.785C497.395,845.636 504.8,840.876 512.999,840.876C594.458,825.801 670.363,783.743 726.961,723.448C779.856,667.114 815.561,593.854 825.082,516.891C825.346,485.154 825.082,453.681 825.082,421.944C826.14,403.96 821.115,386.504 816.883,369.049C794.931,285.738 742.036,212.214 673.537,160.641C653.436,145.83 632.807,131.284 609.533,121.763C542.091,92.406 466.451,85.529 393.72,94.257M286.342,322.765C253.811,363.759 238.207,417.977 245.084,469.814C249.051,501.025 261.217,530.38 277.614,556.827C275.499,555.241 271.267,551.802 269.151,550.215C264.126,548.364 264.126,554.183 266.506,556.827C279.201,581.688 300.095,601.26 322.311,617.922C341.618,628.501 359.867,641.201 380.496,649.394C405.092,658.122 431.011,663.941 457.194,661.825C487.345,658.91 518.024,653.621 545.265,639.609C573.564,625.856 597.367,603.904 618.261,580.63C633.072,565.555 634.658,543.339 645.766,526.148C658.197,505.254 660.577,480.129 660.842,456.326C661.371,430.672 656.081,405.282 648.676,380.95C644.973,364.024 635.452,349.213 626.195,334.931C596.309,292.879 552.935,259.291 502.155,247.389C423.606,227.289 335.799,259.026 286.342,322.765ZM2201.42,176.245C2272.3,302.929 2342.65,430.407 2413.27,557.356C2441.84,609.194 2471.19,660.502 2499.22,712.604C2452.41,712.34 2405.86,713.133 2359.31,712.34C2307.21,617.128 2253.79,522.71 2201.68,427.498C2162.54,494.146 2125.25,561.852 2087.16,628.765C2071.56,656.535 2055.42,684.036 2040.35,712.075C1994.34,712.869 1948.31,712.34 1902.3,712.604C1931.13,660.767 1960.22,608.929 1989.05,557.092C2059.66,430.143 2130.8,303.194 2201.42,176.245ZM1648.66,180.212C1688.34,179.419 1727.74,179.154 1767.41,180.212C1766.88,289.706 1766.88,398.935 1766.88,508.428C1766.36,535.14 1766.88,561.588 1766.62,588.3C1817.92,588.565 1869.24,588.3 1920.54,588.565C1897.53,629.823 1872.93,670.817 1849.92,712.34C1782.75,712.869 1715.57,712.61 1648.13,712.34C1648.4,627.972 1648.4,543.339 1648.66,458.971C1648.4,365.875 1649.19,273.043 1648.66,180.212ZM1119.71,301.343C1166.79,227.289 1252.48,179.683 1340.55,179.683C1427.03,178.096 1512.46,222.264 1561.65,293.408C1595.24,341.279 1612.17,400.521 1609.26,458.971C1605.82,544.661 1557.42,626.649 1484.43,671.61C1428.35,707.315 1358.27,720.274 1292.94,707.579C1208.31,691.975 1133.73,632.468 1099.61,553.654C1063.38,473.253 1071.05,374.867 1119.71,301.343M1312.78,307.161C1273.63,315.624 1238.46,341.808 1219.15,376.983C1201.17,408.72 1196.41,447.598 1206.2,482.774C1215.72,519.007 1240.31,550.744 1272.58,569.258C1304.85,587.771 1344.52,592.791 1380.23,583.011C1416.46,573.225 1448.19,548.629 1466.71,516.095C1484.95,484.091 1489.98,444.686 1480.2,408.982C1470.41,372.484 1445.29,340.218 1411.96,321.705C1382.07,305.045 1346.1,300.02 1312.78,307.161Z" style="fill:rgb(34,30,31);fill-rule:nonzero;stroke:rgb(34,30,31);stroke-width:0.25px;"/>
        <path d="M286.342,322.765C335.799,259.026 423.606,227.289 502.155,247.389C552.935,259.291 596.309,292.879 626.195,334.931C635.452,349.213 644.973,364.024 648.676,380.95C656.081,405.282 661.371,430.672 660.842,456.326C660.577,480.129 658.197,505.254 645.766,526.148C634.658,543.339 633.072,565.55 618.261,580.63C597.367,603.904 573.564,625.856 545.265,639.609C518.024,653.626 487.345,658.916 457.194,661.825C431.011,663.941 405.092,658.122 380.496,649.394C359.867,641.196 341.618,628.501 322.311,617.922C300.095,601.26 279.201,581.694 266.506,556.827C264.126,554.183 264.126,548.364 269.151,550.215C271.267,551.802 275.499,555.241 277.614,556.827C261.217,530.38 249.051,501.023 245.084,469.814C238.207,417.977 253.811,363.759 286.342,322.765M382.876,268.812C380.231,269.87 377.322,271.192 375.206,273.308C433.127,248.447 502.949,254.795 555.315,289.706C569.068,302.4 587.053,310.599 596.838,326.997C616.145,353.445 633.072,382.273 641.27,414.01C654.23,488.592 621.435,568.729 560.076,612.897C543.678,625.851 524.107,633.785 504.8,641.46C490.518,646.75 474.65,645.956 460.104,650.452C469.625,650.717 479.41,655.213 488.932,652.298C505.858,647.807 523.314,643.84 539.182,635.636C567.481,618.445 596.309,599.667 614.823,571.368C617.732,566.346 622.492,561.845 623.021,555.767L624.344,553.389C624.608,553.122 625.137,552.331 625.402,551.8C636.51,536.198 638.097,516.622 642.857,498.378C653.965,458.706 649.205,415.597 633.072,378.041C612.178,330.171 572.506,291.292 524.9,270.134C498.717,257.968 469.625,254.795 441.326,253.472C420.961,254.53 401.654,261.406 382.876,268.812M526.752,311.393C542.091,324.881 556.373,339.163 568.804,355.031C592.342,384.917 610.327,422.473 605.83,461.351C603.45,490.444 587.053,515.569 571.713,539.372C557.96,560.001 542.62,580.366 522.785,595.965C512.999,603.899 500.304,607.073 488.932,612.627C478.352,617.652 468.567,624.264 457.194,627.173C473.856,630.616 490.254,624.264 505.594,618.974C546.852,602.841 580.705,570.839 601.599,532.226C617.467,498.896 620.906,460.817 616.409,424.584C608.211,391.788 591.02,361.902 569.068,336.248C560.076,327.256 550.026,317.735 536.802,316.677C533.099,315.36 530.19,312.98 526.752,311.393M269.68,495.733C287.929,568.993 356.693,627.707 432.862,629.559C413.291,623.211 394.513,615.012 376,606.285C357.751,593.854 337.122,584.333 321.253,568.2C297.186,544.664 275.499,516.362 267.829,483.038C266.771,487.27 268.358,491.502 269.68,495.733Z" style="fill:rgb(215,223,32);fill-rule:nonzero;stroke:rgb(215,223,32);stroke-width:0.25px;"/>
        <path d="M504.8,641.46C552.935,628.765 596.045,597.821 623.021,555.769C622.492,561.855 617.732,566.349 614.823,571.374C596.309,599.673 567.481,618.451 539.182,635.642C523.314,643.846 505.858,647.813 488.932,652.304C479.41,655.218 469.625,650.717 460.104,650.458C474.65,645.956 490.518,646.75 504.8,641.46Z" style="fill:rgb(34,30,31);fill-rule:nonzero;stroke:rgb(34,30,31);stroke-width:0.25px;"/>
    </g>
</svg>
