<svg clip-rule="evenodd" fill-rule="evenodd" viewBox="0 0 560 400" xmlns="http://www.w3.org/2000/svg" xmlns:xlink="http://www.w3.org/1999/xlink"><clipPath id="a"><path clip-rule="evenodd" d="m167.517 75h224.965v250h-224.965z"/></clipPath><clipPath id="b"><path clip-rule="evenodd" d="m297.577 157.76-25.935-12.968v25.935z"/></clipPath><clipPath id="c"><path clip-rule="evenodd" d="m297.577 157.76-25.935-25.936v51.871z"/></clipPath><clipPath id="d"><path clip-rule="evenodd" d="m328.7 157.76-25.935-12.968v25.935z"/></clipPath><clipPath id="e"><path clip-rule="evenodd" d="m328.7 157.76-25.935-25.936v51.871z"/></clipPath><g clip-path="url(#a)"><path d="m359.268 201.187.873-4.162-1.276-.331.179-.716 3.296.861-.172.706-1.285-.331-.875 4.178z"/><path d="m366.158 201.187.728-3.523-1.689 2.588-.801-.222-.613-2.316-.775 3.678-.739-.205 1.097-5.206.742.205.83 3.055 2.315-3.337.742.203-1.097 5.285z"/><path d="m342.177 189.716 3.628 4.085-25.302 15.033zm-37.814 57.931 5.046-20.272 7.56 14.017zm-37.654-1.297 31.115 4.541-36.908 18.288zm-25.352-28.227 29.282-2.061-7.925 25.636zm1.727-60.863 9.527 9.126-12.818-.052zm57.929 57.462-22.309-3.687-13.798-32.87zm91.47 97.312-49.597-33.426 37.435-20.43-1.526-2.892 4.669-2.874-30.508-50.837 34.755-53.048-3.835-4.681 1.887-3.303-22.397-21.722-35.73-43.59-4.825 4.257-4.612-4.488-31.189 30.808-8.44-8.754-2.308 3.527-3.529-3.284-17.678 30.703-63.118-38.816-3.081 6.83-3.058-1.657-18.281 47.417 25.593 12.901-4.102 12.432-19.607 49.749 3.203-.043-2.068 6.277 35.683-2.521-27.122 6.882 4.045 4.932-2.33.735 23.401 25.521-21.012 61.074 8.903-1.693-1.961 6.98 60.421-15.031 8.299-32.718 54.746 47.625 72.332-6.62-5.751-4.383z"/><g fill="#fff"><path d="m264.162 246.683-27.173-28.704-51.896 16.292 25.311 27.581-16.862 59.83 55.074-13.688z"/><path d="m302.096 246.961-34.893-2.935 7.102-28.636 34.89 2.94z"/><path d="m322.991 240.776-60.888 33.608 59.181 45.877 64.778-9.649-48.319-32.568 42.472-26.42-33.396-55.644-37.623 22.351z"/><path d="m382.782 140.961-64.57-62.632-33.584 33.207-11.32-10.461-30.379 52.745 64.993 62.25 33.577-33.212 10.848 10.843z"/><path d="m196.013 153.466-22.107 66.991 103.196-7.247-20.261-43.163-22.151 1.183 12.353-41.143-59.99-32.361-16.528 42.889z"/></g><path d="m193.701 199.932-2.043-.541 3.031-14.406 2.043.542z"/><path d="m202.656 191.213c-1.834 0-3.243 1.55-3.243 3.384s1.433 3.384 3.243 3.384 3.219-1.574 3.219-3.384c0-1.834-1.409-3.384-3.219-3.384m0 8.743c-2.938 0-5.359-2.421-5.359-5.359s2.421-5.358 5.359-5.358 5.334 2.42 5.334 5.358-2.396 5.359-5.334 5.359"/><path d="m218.096 199.932-2.067-.541 1.621-7.59-5.241 2.818-1.104 5.313-2.068-.541 2.161-10.128 2.046.539-.494 2.28 5.053-2.819 2.02 1.691z"/><path d="m224.795 191.777-1.2 5.639 5.218-2.818.353-1.67zm5.053 8.155-2.046-.541.47-2.184-4.982 2.725-2.022-1.69 1.905-8.979 6.415 1.667 1.247-5.945 2.044.541z"/><path d="m238.678 191.213c-1.834 0-3.243 1.55-3.243 3.384s1.433 3.384 3.243 3.384 3.22-1.574 3.22-3.384c0-1.834-1.41-3.384-3.22-3.384m0 8.743c-2.938 0-5.358-2.421-5.358-5.359s2.42-5.358 5.358-5.358 5.335 2.42 5.335 5.358-2.397 5.359-5.335 5.359"/><path d="m254.119 199.932-2.067-.541 1.621-7.59-5.241 2.818-1.104 5.313-2.068-.541 2.161-10.128 2.046.539-.496 2.28 5.055-2.819 2.02 1.691z"/><path d="m329.792 145.832c-.41-.043-.825-.067-1.249-.067-.434 0-.861.027-1.278.072-.518 6.029-4.827 10.965-10.555 12.453.355 6.2 5.513 11.144 11.833 11.144 6.336 0 11.47-4.941 11.83-11.139-5.735-1.481-10.063-6.422-10.581-12.463m14.149-13.056c-6.315 0-11.464 4.927-11.836 11.132 5.728 1.476 10.076 6.41 10.6 12.46.411.045.821.069 1.236.069 6.57 0 11.899-5.301 11.899-11.821 0-6.534-5.329-11.84-11.899-11.84m-19.092 13.583c-4.197 1.374-7.35 5.02-8.027 9.479 4.202-1.378 7.359-5.024 8.027-9.479m19.092 12.403c-.413 0-.818-.026-1.224-.062-.562 7.309-6.693 13.066-14.174 13.066-7.491 0-13.6-5.757-14.156-13.068-.42.038-.842.064-1.276.064-.415 0-.827-.026-1.24-.062-.56 7.309-6.677 13.066-14.165 13.066-7.505 0-13.619-5.757-14.175-13.066-.417.036-.839.062-1.268.062-7.851 0-14.213-6.334-14.213-14.146 0-7.827 6.362-14.165 14.213-14.165 7.476 0 13.602 5.749 14.172 13.054.42-.036.842-.065 1.271-.065.413 0 .818.029 1.223.062.575-7.304 6.709-13.051 14.182-13.051 7.483 0 13.593 5.749 14.161 13.054.417-.036.844-.065 1.271-.065.422 0 .834.029 1.247.065.565-7.305 6.665-13.054 14.151-13.054 7.876 0 14.229 6.338 14.229 14.165 0 7.812-6.353 14.146-14.229 14.146m-3.68-2.916c-.672-4.474-3.839-8.135-8.048-9.499.665 4.469 3.834 8.13 8.048 9.499m-46.27-9.48c-4.2 1.379-7.355 5.02-8.029 9.477 4.208-1.373 7.363-5.02 8.029-9.477m.107-2.449c-.362-6.209-5.504-11.141-11.835-11.141-6.544 0-11.864 5.306-11.864 11.84 0 6.52 5.32 11.821 11.864 11.821.434 0 .858-.029 1.278-.072.527-6.035 4.829-10.96 10.557-12.448m15.343 11.933c-.675-4.471-3.844-8.129-8.055-9.496.66 4.469 3.825 8.13 8.055 9.496m15.515-11.935c-.367-6.207-5.53-11.139-11.845-11.139-6.326 0-11.465 4.929-11.83 11.132 5.73 1.478 10.056 6.412 10.583 12.46.41.045.83.069 1.247.069.434 0 .864-.029 1.283-.074.53-6.04 4.839-10.967 10.562-12.448m-26.022 1.915c-.403-.041-.813-.065-1.228-.065-.431 0-.858.024-1.278.07-.52 6.033-4.841 10.969-10.579 12.455.358 6.2 5.528 11.144 11.857 11.144 6.317 0 11.485-4.941 11.845-11.137-5.754-1.478-10.097-6.424-10.617-12.467"/><g fill="none"><circle cx="297.577" cy="157.76" r="12.968" stroke="#fff" stroke-width="3.63"/><circle cx="328.7" cy="157.76" r="12.968" stroke="#fff" stroke-width="3.63"/><circle cx="297.577" cy="157.76" r="12.968" stroke="#f4c300" stroke-width="2.59"/><circle cx="328.7" cy="157.76" r="12.968" stroke="#009f3d" stroke-width="2.59"/><g stroke="#fff" stroke-width="3.63"><circle cx="282.016" cy="144.792" r="12.968"/><circle cx="313.139" cy="144.792" r="12.968"/><circle cx="344.261" cy="144.792" r="12.968"/></g><circle cx="282.016" cy="144.792" r="12.968" stroke="#0085c7" stroke-width="2.59"/><circle cx="313.139" cy="144.792" r="12.968" stroke="#000" stroke-width="2.59"/><circle cx="344.261" cy="144.792" r="12.968" stroke="#df0024" stroke-width="2.59"/><circle clip-path="url(#b)" cx="297.577" cy="157.76" r="12.968" stroke="#fff" stroke-width="3.63"/><circle clip-path="url(#c)" cx="297.577" cy="157.76" r="12.968" stroke="#f4c300" stroke-width="2.59"/><circle clip-path="url(#d)" cx="328.7" cy="157.76" r="12.968" stroke="#fff" stroke-width="3.63"/><circle clip-path="url(#e)" cx="328.7" cy="157.76" r="12.968" stroke="#009f3d" stroke-width="2.59"/></g></g></svg>