<svg clip-rule="evenodd" fill-rule="evenodd" viewBox="0 0 560 400" xmlns="http://www.w3.org/2000/svg"><path d="m432.764 218.71 16.723-28.835 2.184-34.871-3.748-.005-46.317 79.846 1.957 3.371 29.202-19.506zm3.96 6.758-31.432 15.711 1.941 3.382 92.289.17 1.864-3.227-31.51-16.005zm22.444-70.449-4.022-.015 1.988 34.876 16.609 28.933 29.357 19.738 2.065-3.521z" fill="#d01931"/><g fill="#2b2c2b"><path d="m328.358 210.983-.01 11.901c-.026 13.919-9.572 21.721-22.893 22.098h-2.881c-13.331-.552-22.784-8.343-22.759-22.175v-11.901c.046-13.95 9.593-21.69 22.975-22.072.676-.01 1.988 0 2.649 0 13.429.429 22.955 8.307 22.919 22.149m-25.195-10.6c-5.251.289-10.295 3-10.316 10.574v11.927c-.021 7.285 5.013 10.218 10.269 10.538.268.031 1.59.031 1.879.015 5.153-.289 10.259-3.087 10.269-10.522l.015-11.932c.026-7.492-5.086-10.295-10.321-10.6-.645-.046-1.193-.046-1.797 0"/><path d="m348.426 212.434s19.568-22.268 20.735-23.507l16.356.041-23.776 26.863 24.948 27.669-16.573-.026-21.71-24.142-.041 24.106-13.16-.026.124-67.826 13.15.021-.052 36.828z"/><path d="m162.352 220.359.026-9.598c.036-13.945-9.706-21.752-23.053-22.206l-2.514-.015c-13.434.418-22.986 8.183-22.996 22.118l-.026 11.839c-.026 13.279 9.861 21.525 22.64 22.191 1.358.026 2.065-.01 2.979 0 16 .026 21.984-8.08 22.717-17.353l-12.04-.031c-.32 1.755-.914 6.258-10.997 6.247-1.771-.021-4.223-.454-5.984-1.033-7.476-2.504-6.283-11.73-6.283-12.236l35.532.077zm-35.542-10.589c0-7.171 4.765-9.965 10.414-10.187.604-.015 1.218-.031 1.75.01 5.726.237 10.517 3.263 10.502 10.228v.924l-22.686-.021.021-.955z"/><path d="m217.482 220.442.021-9.577c.036-13.945-9.717-21.752-23.073-22.227h-2.494c-13.455.413-23.032 8.183-23.053 22.113l-.015 11.849c-.026 13.253 9.851 21.535 22.65 22.191 1.394.026 2.07 0 2.995 0 16.026.026 21.969-8.101 22.707-17.348l-11.973-.046c-.392 1.761-.935 6.258-11.08 6.242-1.755-.015-4.182-.454-5.917-1.038-7.543-2.489-6.304-11.72-6.314-12.216l35.547.057zm-35.583-10.558c.021-7.192 4.807-9.99 10.414-10.202.589-.021 1.229-.01 1.781.015 5.705.227 10.502 3.258 10.486 10.212v.929l-22.697-.031.015-.924z"/><path d="m250.231 188.839c-6.098-.015-10.274 1.647-12.572 3.614l.015-17.043-13.062-.021-.108 67.826h2.282s5.803-3.248 6.118-3.356c.842.893 6.562 5.091 14.472 5.091 1.007.01 1.936.088 2.917.026 13.217-.274 22.795-8.478 22.826-22.098l.01-11.834c.026-13.321-9.572-22.196-22.898-22.206m9.815 34.086c-.005 7.424-5.163 10.218-10.295 10.553-.268 0-1.632-.01-1.874-.026-5.246-.351-10.28-3.242-10.28-10.548l.031-11.921c.01-7.6 5.065-10.264 10.295-10.61.63-.046 1.198-.067 1.838.005 5.184.356 10.311 3.093 10.3 10.641z"/><path d="m112.136 243.014-25.108-28.009c1.249.072 2.489.124 3.759.124 8.627.01 19.366-5.431 19.382-19.248.046-16.568-13.708-20.714-25.898-20.724l-29.274-.072-.139 67.821 13.264.031v-30.271l27.209 30.317 16.806.031zm-43.932-56.308 15.907.046c7.347 0 13.847 2.329 13.847 9.314-.021 7.006-4.079 9.515-13.883 9.469l-15.912-.01z"/></g></svg>