<svg clip-rule="evenodd" fill-rule="evenodd" stroke-linejoin="round" stroke-miterlimit="1.41421" viewBox="0 0 560 400" xmlns="http://www.w3.org/2000/svg"><g fill-rule="nonzero" transform="matrix(1.13531 0 0 1.13531 52.9982 29.7709)"><path d="m86.7 119.2v3.1h1.8c1.3.1 2.7-.2 3.6.8.7.7.4 3.7.4 4.7v27.1c-.1 2.4-.1 3.4-2.8 3.5-1 .1-2.1.1-3.1.1v3.1h21.8v-3.1h-1.4c-.9-.1-1.9 0-2.9-.2-1.2-.1-1.5-.4-1.8-1.6-.1-.6-.1-1.3-.1-2v-13.5h1.8c.8 0 1.7 0 2.5.1 5.3.4 5.6 3.9 5.9 8.8l.2 3.5c.2 2.3.6 4.5 2.1 6.2 1.7 1.8 3.9 2.6 6.3 2.6 4.5 0 8.5-1.9 9.4-7 .3-1.1.3-2.3.3-3.5h-2.8c-.2 1.9-.5 6.6-3.3 5.4-.2-.2-.4-.5-.5-.7-.6-1.2-.8-2.5-1.1-3.8l-.9-3.7c-1.1-5-3.8-7.7-8.3-8.8v-.1c6-.5 11.9-3.3 11.9-10.5 0-3.1-1.6-6.4-4.1-8.1-2.9-1.9-5.8-2.3-9.1-2.3l-4.2-.1zm15.7 6.7c0-1.2.1-2.7 1.1-3.3 1.3-.5 2.7-.4 4.1-.4 5.1 0 7.8 1.7 7.8 7.4 0 6.3-3.1 8.2-8.6 8.4-1.5.1-2.9.2-4.4.1zm42.7 36.4c8.1 0 15.1-5.7 15.1-14.6 0-8.7-7-14.7-15.1-14.7-4.1 0-7.4 1.2-10.6 3.8-3 2.5-4.8 6.5-4.8 10.6.1 9.1 7 14.9 15.4 14.9m-.3-26.3c5.4 0 5.8 7.5 5.8 11.7 0 3.6-.3 11.7-5.2 11.7-5.9 0-6.1-7.1-6.1-11.6 0-3.8.4-11.8 5.5-11.8m43.7 16.3c-1.8 6.3-5.9 10.1-12.3 10.1-1.8 0-4.4-.4-6.2-.9-1.9-.6-3.6-1.7-5-3.2-2.9-3-4.1-6.1-4.1-10.3 0-9.1 7.4-14.9 15.7-14.9 4.7 0 11.3 1.9 11.3 7.8 0 3.1-2.1 5-4.9 5-2.9 0-5.4-2.7-4.3-5.7.1-.4.2-.7.4-.9.1-.2.4-.5.5-.7.2-.2.3-.4.4-.6.7-1.7-1.9-2.1-3-2.1-5.4 0-6.6 6.7-6.6 11.1 0 5 1.2 11.5 7.2 11.5 4.3 0 6.8-3.2 8.1-7.1zm-.3-30.3v-3l13.3-.6v20.1h.1c2.3-3.2 5.1-5.3 9.2-5.3 2.9 0 6 .9 7.7 3.6 1.7 2.6 1.5 5.6 1.5 8.7v10.4c0 .6 0 1.2.1 1.8.2.4.4.6.7.8.7.2 1.6.1 2.3.2h1.1v2.9h-16.7v-2.9l1.1-.1c.7 0 1.3.1 2-.1.3-.1.5-.5.7-.8.1-.8.1-1.5.1-2.3v-10.2c0-1.6.1-3.2-.6-4.7-.7-1.3-2-2.1-3.4-2.1-2.2 0-3.9 1.5-4.9 3.5-.8 1.8-.9 3.5-.9 5.4v8.5c0 .8-.1 1.6.2 2.3.1.1.2.2.3.3.6.3 1.3.2 1.9.2h1.4v2.9h-16.9v-2.9h1.4c.7 0 2.3.2 2.7-.6.3-.8.3-1.6.3-2.5v-29.8c-.2-3.5-.3-3.6-3.3-3.7zm64.4 26.2c.1-8.8-4.4-15.1-13.3-15.1-3.8 0-7.2 1.1-10.2 3.7-3 2.7-4.7 7-4.7 11.1 0 3.9 1.3 8 4.2 10.5s6.7 3.9 10.5 3.9c6.7 0 10.9-2.7 13.5-9.1l-2.5-1.1c-1.6 3.4-4.2 6.6-8.1 6.6-6 0-8.3-5-8.1-10.5zm-18.6-3c-.1-3.5 1.2-9.2 5.4-9.2 3.9 0 4.6 4 4.6 7.3 0 .8-.1 1.8-1.1 1.9-.6.1-1.1.1-1.7.1z" fill="#590652"/><path d="m8.8 124.7c20-6.3 31.4-9.4 51.8-14.2 3.2-.8 6.4.9 7.3 4.1l12 42c-10.1-2.7-16.6-3.4-26.8-1.5-5.6 1.1-8.9 1.8-14.2 4.1l-.7-2.3c6-9.2 11.3-13.5 19.9-20.4 4.7-3.8 9.5-7.5 7.9-13.3-2.7-9.6-15.5-7.8-25.1-5.1-15.1 4.3-22.2 11.1-34.1 21.4l-2.3-7.9c-.6-3.9 1.4-6 4.3-6.9m37.2 1c4.2-1.2 9.9-4 11.1.2 1 3.3-2.2 5.2-4.5 7.7-5.8 6.1-8.6 10.3-15.2 15.4l-2-6.8c-1-3.4-3.3-7.1-6.7-6.1-7.2 2.1-1.5 11.9-.6 19.2s-8.8 9.8-8.6 17.2c4 .6 6.6-.4 10.5-1.8.2 3.9 0 6.3 1.1 10.1l2 6.8-6.2 1.8c-4.2.8-5.9-1.2-6.7-4.2l-9.7-34.1c11.5-12.4 19-20.7 35.5-25.4m-5.8 42.2c4.7-1.3 7.3-2.1 12.1-2.9 8.5-1.3 13.6-1.5 22.1-.2 3.5.5 7.5.3 8.4 3.7.8 2.8-1.5 5.4-4.4 6.2l-35.7 10.3c-1.1-9.3-1.5-6.8-2.5-17.1m240.9-26.5c2.1 0 4.9.1 6.6 1.6 1.8 1.7 2.6 4.4 2.6 7 0 2.5-.7 5.1-2.7 6.7-2.1 1.6-5 1.7-7.6 1.7-.7 0-2.4 0-3-.8s-.4-1.9-.4-2.8v-13.4zm-.6 20c2 0 4-.1 6-.1.9 0 1.8-.1 2.7-.2 2.8-.4 5.4-.8 7.7-2.6 2.6-2 3.9-5 3.9-8.4 0-7.5-7.7-10.2-13.5-10.8v-.1c5.7-1.1 11.7-2.6 11.7-10 0-2.6-1.3-5.2-3.2-6.8-2.9-2.5-7.7-3.2-11.3-3.2h-23.6v3.1c1.4.1 2.9-.1 4.3.3.3.1.6.2.8.4s.3.4.4.6c.2.4.2 1 .2 1.5v30.2c0 1.1 0 .8-.2 1.8-.3 1.6-4.4 1.2-5.6 1.3v3.1h19.7zm-4-34.1c0-1.2-.2-2.7.4-3.9.6-1.3 3.2-1.2 4.4-1.2 1.8 0 3.8.3 5.3 1.5 1.7 1.3 2.3 3.9 2.3 5.9 0 3.3-.9 6-3.7 7.5-2.6 1.4-5.9.9-8.7 1.1zm43.7 34.1h-18.6v-2.9h2.2c.4 0 1.3 0 1.7-.3.1-.2.2-.4.3-.5.1-.8.1-1.5.1-2.2v-14.5c0-3.3-.4-3.6-3.6-3.7h-1.1v-3l12.4-.6v8h.1c1.4-4.3 4.1-8.5 9-8.5 3.4 0 6.2 2.1 6.2 5.9 0 2.6-1.9 4.9-4.5 4.9s-4.3-1.8-4.3-4.5c0-1.1.5-2.1 1.2-2.7l-.1-.1c-5.9 1.5-6.8 12.2-6.8 17.6 0 1 0 2 .1 3.1.1 1.3 1.4 1.2 2.3 1.2l3.2.1zm23.3.9c8.1 0 15.1-5.7 15.1-14.6 0-8.7-7-14.7-15.1-14.7-4.1 0-7.4 1.2-10.6 3.8-3 2.5-4.8 6.5-4.8 10.6 0 9.1 7 14.9 15.4 14.9m-.3-26.3c5.4 0 5.8 7.5 5.8 11.7 0 3.6-.3 11.7-5.2 11.7-5.9 0-6.1-7.1-6.1-11.6 0-3.8.4-11.8 5.5-11.8m19 25.4h-2.2l-.3-10h2.4c2 4.3 5.1 8 10 8 1.7 0 3.5-.4 4.6-1.9 1.4-3.8-1.7-4.7-4.4-5.3l-3.5-.8c-2.6-.6-4.3-1.1-6.3-3-1.8-1.7-2.4-3.6-2.4-6.1 0-6.3 5.4-9.3 10.8-9.3 2.2 0 4.8.8 6.7 1.9l2.1-1.3h2.2l.2 9.1h-2.4c-.2-.2-.2-.5-.4-.6-1.8-3.2-4.6-6.1-8.4-6.1-2.2 0-4.9.8-4.9 3.6 0 2.3 3.1 2.7 4.7 3.1l2.6.7c2.1.5 4.3 1.1 6.2 2.1 2.4 1.4 3.9 4 3.9 7 0 2.2-.6 4.5-2.1 6.2-1.7 1.9-2.8 2.4-5.1 3.1-1.1.3-2.9.6-4.1.6-2.3 0-5.9-.7-7.8-2zm28.1-10c2.8 0 5.2 2.5 5.2 5.5s-2.4 5.4-5.2 5.4-5.2-2.5-5.2-5.4c0-3 2.4-5.5 5.2-5.5" fill="#de2233"/></g></svg>