<svg clip-rule="evenodd" fill-rule="evenodd" stroke-linejoin="round" stroke-miterlimit="1.41421" viewBox="0 0 560 400" xmlns="http://www.w3.org/2000/svg" xmlns:xlink="http://www.w3.org/1999/xlink"><linearGradient id="a" gradientTransform="matrix(0 62.1556 -62.1556 0 62.2502 -35.9781)" gradientUnits="userSpaceOnUse" x1="0" x2="1" y1="0" y2="0"><stop offset="0" stop-color="#f8a01d"/><stop offset=".71" stop-color="#f26e23"/><stop offset="1" stop-color="#ef5826"/></linearGradient><clipPath id="b"><path clip-rule="evenodd" d="m.2 8.5-.2 1.8.2 1.8c0 .1.1.1.1.1.1 0 .1-.1.1-.1l.3-1.8-.3-1.8c0-.1-.1-.1-.1-.1s-.1 0-.1.1m1.2-1.1-.3 2.9.3 2.9c0 .1.1.1.1.1.1 0 .1-.1.1-.1l.4-2.9-.4-2.9c0-.1-.1-.1-.1-.1zm3.8-.4-.2 3.3.2 3.5c0 .1.1.2.2.2s.2-.1.2-.2l.4-3.5-.3-3.3c0-.1-.1-.2-.2-.2-.2 0-.3.1-.3.2m-2.5-.2-.3 3.5.3 3.3c0 .1.1.2.2.2 0 0 .1-.1.1-.2l.3-3.3-.3-3.5c0-.1-.1-.2-.2-.2 0 .1-.1.1-.1.2m1.2-.1-.3 3.6.3 3.4c0 .1.1.2.2.2s.2-.1.2-.2l.3-3.4-.3-3.6c0-.1-.1-.2-.2-.2s-.1.1-.2.2m2.6-1.8-.3 5.4.3 3.5c0 .1.1.2.2.2.2 0 .3-.1.3-.2l.3-3.5-.3-5.4c0-.1-.1-.2-.2-.2-.2 0-.3.1-.3.2m1.3-1.2-.2 6.6.2 3.5c0 .2.1.3.3.3.1 0 .3-.1.3-.3l.3-3.5-.3-6.6c0-.2-.1-.3-.3-.3s-.3.1-.3.3m61.7-.4v5.8c-.1-.2-.4-.7-.6-1l-3.2-4.8h-1.7v9.1h1.8v-4-2c.1.2.4.7.6 1l3.3 5h1.6v-9.1zm6 1.8h1c1.9 0 2.7.9 2.7 2.8 0 1.7-.9 2.8-2.8 2.8h-.9zm-1.8 7.3h2.7c2.3 0 4.7-1.3 4.7-4.5 0-3.3-1.9-4.5-4.5-4.5h-2.9v-.1zm17.9-9.1v9.1h5.5v-1.8h-3.6v-7.3zm27.4 1.8h1c1.9 0 2.7.9 2.7 2.8 0 1.7-.9 2.8-2.8 2.8h-.9zm-1.8 7.3h2.7c2 0 4.1-1 4.6-3.4v-2.3c-.4-2.4-2.1-3.3-4.4-3.3h-2.9v-.1zm-80.7-6.5c0 1.8 1.2 2.3 2.8 2.7 1.7.4 2 .6 2 1.2 0 .7-.5 1-1.6 1-.9 0-1.7-.3-2.3-1l-1.3 1.2c.7 1 2 1.7 3.5 1.7 2.5 0 3.6-1.2 3.6-2.9 0-2-1.6-2.5-3-2.8s-1.8-.5-1.8-1.1c0-.4.3-.8 1.3-.8.8 0 1.5.3 2.1.9l1.3-1.3c-.9-.9-1.9-1.4-3.3-1.4h-.3c-1.7 0-3 1-3 2.6m10 2c0-1.6.6-2.9 2.1-2.9s2.1 1.3 2.1 2.9-.6 2.9-2.1 2.9-2.1-1.3-2.1-2.9m-1.9 0c0 2.8 1.5 4.7 3.9 4.7 2.5 0 4-1.9 4-4.7s-1.5-4.7-4-4.7c-2.4 0-3.9 1.9-3.9 4.7m15.3-4.7v5.2c0 1.5-.7 2.4-1.9 2.4s-1.9-.9-1.9-2.4v-5.1h-1.8v5.1c0 2.6 1.5 4.1 3.7 4.1 2.3 0 3.7-1.5 3.7-4.2v-5.1zm22.7 4.7c0 2.9 1.6 4.7 4 4.7 1.7 0 2.7-.8 3.4-2.1l-1.5-.9c-.5.8-1 1.2-1.8 1.2-1.4 0-2.2-1.2-2.2-2.9s.8-2.9 2.1-2.9c.8 0 1.3.4 1.7 1l1.7-.8c-.6-1.2-1.6-2-3.3-2-2.4 0-4.1 1.9-4.1 4.7m17.2 0c0-1.6.6-2.9 2.1-2.9s2.1 1.3 2.1 2.9-.6 2.9-2.1 2.9-2.1-1.3-2.1-2.9m-1.9 0c0 2.8 1.5 4.7 3.9 4.7 2.5 0 3.9-1.9 3.9-4.7s-1.5-4.7-3.9-4.7-3.9 1.9-3.9 4.7m15.2-4.7v5.2c0 1.5-.7 2.4-1.9 2.4s-1.9-.9-1.9-2.4v-5.1h-1.8v5.1c0 2.6 1.5 4.1 3.7 4.1 2.3 0 3.7-1.5 3.7-4.2v-5.1zm-100 .2-.2 6.9.2 3.3c0 .2.2.4.4.4s.4-.2.4-.4l.2-3.3-.2-7c0-.2-.2-.4-.4-.4-.3.1-.4.2-.4.5m-4-.3-.2 7.2.2 3.4c0 .2.1.3.3.3s.3-.1.3-.3l.2-3.4-.2-7.2c0-.2-.1-.3-.3-.3s-.3.2-.3.3m2.6 0-.2 7.2.2 3.4c0 .2.2.4.4.4s.4-.2.4-.4l.2-3.4-.2-7.2c0-.2-.2-.4-.4-.4s-.4.2-.4.4m-1.3-.2-.2 7.4.2 3.4c0 .2.1.3.3.3s.3-.1.3-.3l.2-3.4-.2-7.4c0-.2-.2-.3-.3-.3s-.3.1-.3.3m4-.9-.2 8.3.2 3.3c0 .2.2.4.4.4s.4-.2.4-.4l.2-3.3-.2-8.3c0-.2-.2-.4-.4-.4s-.4.2-.4.4m1.4-.7-.2 9 .2 3.3c0 .2.2.4.4.4s.4-.2.4-.4l.2-3.3-.2-9c0-.2-.2-.4-.4-.4h-.1c-.2 0-.3.2-.3.4m1.6-.9c-.3.1-.4.2-.4.5v12.7c0 .2.2.4.4.5h11.1c2.2 0 4-1.8 4-4s-1.8-4-4-4c-.5 0-1.1.1-1.5.3-.3-3.6-3.3-6.4-7-6.4h-.5c-.7 0-1.4.2-2.1.4"/></clipPath><g clip-path="url(#b)" transform="matrix(4.01606 0 0 4.01606 30 171.687)"><path d="m0 0h124.5v14.1h-124.5z" fill="url(#a)"/></g></svg>