<svg clip-rule="evenodd" fill-rule="evenodd" viewBox="0 0 560 400" xmlns="http://www.w3.org/2000/svg"><g fill-rule="nonzero" transform="matrix(1.12354 0 0 -1.12354 65.4316 510.546)"><path d="m206.159 356.159v41.979h-35.662v-.24c-5.148 2.285-10.972 3.524-17.315 3.524-28.236 0-51.212-23.821-51.212-53.101 0-16.507 6.415-30.888 18.545-40.782 10.111-8.292 20.08-11.441 30.639-14.775l.653-.207c12.582-3.994 18.095-7.476 18.095-15.915 0-8.245-4.955-14.644-12.922-14.644-9.068 0-13.121 9.196-13.121 17.052v8.06h-39.657v-63.75h29.315v-31.726h15.564c6.587-22.743 29.909-40.259 55.356-40.259 19.483 0 56.335 11.885 56.335 56.889v113.639h19.206v34.258h-73.819zm-73.555-114.259v-10.28h-20.345v47.633h23.538c0-12.898 7.996-25.113 21.183-25.113 11.787 0 20.979 9.37 20.979 22.707 0 15.519-13.387 20.305-24.379 23.798-10.387 3.283-19.176 6.128-27.973 13.339-10.185 8.31-15.577 20.549-15.577 34.538 0 25.801 20.175 45.044 43.152 45.044 9.792 0 19.379-3.501 25.375-12.033v8.749h19.547v-41.976h-23.143c-.196 11.584-7.992 20.331-18.581 20.331s-19.379-7.216-19.379-19.465c0-15.302 12.389-19.001 23.375-22.502 10.99-3.283 21.379-6.562 30.57-14.21 9.187-8.088 14.181-20.532 14.181-33.651 0-28.202-19.174-50.245-45.148-50.245-10.99 0-20.583 4.154-27.375 13.336m84.806 79.998v-110.189c0-17.251-6.798-18.693-13.174-18.693-3.124 0-13.314 1.396-13.314 19.361v18.418c13.647 10.484 22.263 27.876 22.263 47.813 0 15.443-6.007 30.088-16.914 39.699l-.084.071-.085.073c-10.766 8.956-22.756 12.548-33.342 15.715-.115.037-1.277.406-1.277.406-11.921 3.766-16.424 6.37-16.424 14.4 0 8.41 5.848 11.403 11.321 11.403 6.071 0 10.4-5.1 10.523-12.407l.137-7.922h30.971v-18.146h19.399zm35.304-113.639c0-41.905-35.864-48.831-48.277-48.831-22.87 0-45.956 17.383-48.89 40.261h-13.977v21.036h41.294v-8.352c0-19.978 11.353-27.421 21.372-27.421 17.249 0 21.231 12.918 21.231 26.753v75.338h27.247zm19.207 121.689h-19.207v-34.949h-27.247v34.949h-19.401v18.144h65.855z"/><path d="m65.158 10.675c-28.721 0-53.939 24.052-53.939 56.305 0 17.484 6.739 32.783 19.471 43.171 10.995 9.014 21.982 12.57 34.965 16.674 13.741 4.368 30.476 10.348 30.476 29.748 0 16.67-11.49 28.383-26.224 28.383-16.484 0-26.479-15.268-26.479-31.391h-29.422v59.541h25.43v-12.85c8.49 11.478 20.48 16.672 34.219 16.672 32.467 0 56.435-27.556 56.435-62.809 0-16.398-6.244-31.953-17.727-42.064-11.489-9.56-24.472-13.658-38.21-17.762-13.732-4.375-29.219-9.001-29.219-28.128 0-15.31 10.986-24.33 24.223-24.33 13.236 0 22.981 10.934 23.226 25.414h28.928v-52.471h-24.434v10.936c-7.494-10.665-19.479-15.039-31.718-15.039zm66.104 56.834v22.679h24.252v43.688h34.059v-43.688h24.01v-22.679h-82.32zm24.252 76.313v94.176c0 17.291-4.978 33.44-26.539 33.44-12.525 0-26.715-9.304-26.715-34.276v-10.439h-51.616v26.294h17.469c3.668 28.598 32.527 50.326 61.114 50.326 15.515 0 60.346-8.658 60.346-61.038v-98.482h-34.059z" fill="#ba0c2f" stroke="#000" stroke-width=".5" transform="matrix(.8 0 0 -.8 101.059 402.108)"/></g></svg>