<svg clip-rule="evenodd" fill-rule="evenodd" viewBox="0 0 560 400" xmlns="http://www.w3.org/2000/svg" xmlns:xlink="http://www.w3.org/1999/xlink"><clipPath id="a"><path clip-rule="evenodd" d="m215.573 399.652c0 45.802 37.111 82.899 82.917 82.899 45.778 0 82.885-37.097 82.885-82.899 0-45.787-37.107-82.908-82.885-82.908-45.806 0-82.917 37.121-82.917 82.908"/></clipPath><clipPath id="b"><path clip-rule="evenodd" d="m298.49 254.152c80.354 0 145.51 65.138 145.51 145.5 0 80.363-65.156 145.491-145.51 145.491-80.358 0-145.514-65.128-145.514-145.491 0-80.362 65.156-145.5 145.514-145.5m-117.385 145.5c0 64.828 52.547 117.366 117.385 117.366 64.823 0 117.365-52.538 117.365-117.366 0-64.823-52.542-117.384-117.365-117.384-64.838 0-117.385 52.561-117.385 117.384"/></clipPath><path d="m284.514 347.534c79.796 0 144.47-64.681 144.47-144.46 0-79.791-64.674-144.459-144.47-144.459-79.782 0-144.439 64.668-144.439 144.459 0 79.779 64.657 144.46 144.439 144.46" fill="#cccdcf"/><path d="m284.433 347.316c79.685 0 144.265-64.585 144.265-144.246 0-79.691-64.58-144.266-144.265-144.266-79.662 0-144.242 64.575-144.242 144.266 0 79.661 64.58 144.246 144.242 144.246" fill="#cbcdce"/><path d="m284.35 347.127c79.564 0 144.058-64.523 144.058-144.083 0-79.555-64.493-144.049-144.058-144.049-79.57 0-144.063 64.493-144.063 144.049 0 79.559 64.493 144.083 144.063 144.083" fill="#caccce"/><path d="m284.239 346.896c79.482 0 143.893-64.391 143.893-143.86 0-79.463-64.411-143.87-143.893-143.87-79.458 0-143.865 64.407-143.865 143.87 0 79.468 64.407 143.86 143.865 143.86" fill="#c9cbcd"/><path d="m284.167 346.692c79.357 0 143.686-64.306 143.686-143.657 0-79.366-64.329-143.687-143.686-143.687s-143.672 64.32-143.672 143.687c0 79.351 64.315 143.657 143.672 143.657" fill="#c9cacc"/><path d="m284.079 346.495c79.255 0 143.503-64.238 143.503-143.488 0-79.242-64.248-143.478-143.503-143.478-79.236 0-143.488 64.237-143.488 143.478 0 79.25 64.252 143.488 143.488 143.488" fill="#c8cacb"/><path d="m283.987 346.301c79.145 0 143.295-64.159 143.295-143.294 0-79.145-64.15-143.305-143.295-143.305-79.144 0-143.299 64.161-143.299 143.305 0 79.134 64.155 143.294 143.299 143.294" fill="#c7c9cb"/><path d="m283.886 346.088c79.052 0 143.126-64.064 143.126-143.11 0-79.019-64.074-143.097-143.126-143.097-79.023 0-143.083 64.078-143.083 143.097 0 79.047 64.059 143.11 143.083 143.11" fill="#c6c8ca"/><path d="m283.804 345.88c78.937 0 142.918-63.98 142.918-142.902 0-78.937-63.981-142.918-142.918-142.918-78.927 0-142.908 63.981-142.908 142.918 0 78.922 63.981 142.902 142.908 142.902" fill="#c5c7c9"/><path d="m283.727 345.683c78.811 0 142.734-63.904 142.734-142.73 0-78.816-63.923-142.7-142.734-142.7-78.83 0-142.725 63.884-142.725 142.7 0 78.826 63.895 142.73 142.725 142.73" fill="#c5c6c8"/><path d="m283.635 345.489c78.715 0 142.507-63.832 142.507-142.536 0-78.719-63.793-142.522-142.507-142.522-78.71 0-142.527 63.803-142.527 142.522 0 78.705 63.817 142.536 142.527 142.536" fill="#c4c6c8"/><path d="m283.529 345.267c78.604 0 142.353-63.719 142.353-142.314 0-78.637-63.749-142.333-142.353-142.333-78.598 0-142.315 63.697-142.315 142.333 0 78.594 63.716 142.314 142.315 142.314" fill="#c3c5c7"/><path d="m283.457 345.083c78.501 0 142.145-63.667 142.145-142.159 0-78.512-63.644-142.135-142.145-142.135-78.517 0-142.14 63.623-142.14 142.135 0 78.492 63.623 142.159 142.14 142.159" fill="#c2c4c6"/><path d="m283.36 344.866c78.401 0 141.942-63.551 141.942-141.956 0-78.386-63.541-141.956-141.942-141.956-78.415 0-141.952 63.57-141.952 141.956 0 78.405 63.537 141.956 141.952 141.956" fill="#c1c3c5"/><path d="m283.263 344.678c78.314 0 141.777-63.494 141.777-141.783 0-78.279-63.463-141.763-141.777-141.763-78.293 0-141.738 63.484-141.738 141.763 0 78.289 63.445 141.783 141.738 141.783" fill="#c1c2c4"/><path d="m283.176 344.465c78.177 0 141.584-63.382 141.584-141.569 0-78.178-63.407-141.575-141.584-141.575-78.179 0-141.57 63.397-141.57 141.575 0 78.187 63.392 141.569 141.57 141.569" fill="#c0c2c4"/><path d="m283.094 344.258c78.076 0 141.366-63.29 141.366-141.372 0-78.1-63.29-141.395-141.366-141.395s-141.386 63.296-141.386 141.395c0 78.082 63.31 141.372 141.386 141.372" fill="#bfc1c3"/><path d="m283.007 344.05c77.959 0 141.173-63.223 141.173-141.184 0-77.985-63.213-141.184-141.173-141.184-77.989 0-141.202 63.199-141.202 141.184 0 77.96 63.213 141.184 141.202 141.184" fill="#bec0c2"/><path d="m282.91 343.85c77.873 0 140.976-63.144 140.976-140.993 0-77.879-63.103-140.981-140.976-140.981-77.878 0-140.999 63.102-140.999 140.981 0 77.849 63.121 140.993 140.999 140.993" fill="#bdbfc1"/><path d="m282.838 343.648c77.733 0 140.773-63.043 140.773-140.821 0-77.752-63.04-140.786-140.773-140.786-77.768 0-140.821 63.034-140.821 140.786 0 77.778 63.053 140.821 140.821 140.821" fill="#bdbec1"/><path d="m282.727 343.431c77.67 0 140.608-62.942 140.608-140.603 0-77.66-62.938-140.603-140.608-140.603-77.656 0-140.623 62.943-140.623 140.603 0 77.661 62.967 140.603 140.623 140.603" fill="#bcbec0"/><path d="m282.635 343.243c77.554 0 140.41-62.871 140.41-140.416s-62.855-140.429-140.41-140.429c-77.536 0-140.415 62.884-140.415 140.429s62.879 140.416 140.415 140.416" fill="#bbbdbf"/><path d="m282.563 343.035c77.438 0 140.206-62.778 140.206-140.222 0-77.443-62.768-140.235-140.206-140.235-77.458 0-140.237 62.793-140.237 140.235 0 77.444 62.778 140.222 140.237 140.222" fill="#babcbe"/><path d="m282.452 342.822c77.338 0 140.027-62.681 140.027-140.009 0-77.337-62.69-140.047-140.027-140.047-77.343 0-140.033 62.71-140.033 140.047 0 77.327 62.691 140.009 140.033 140.009" fill="#b9bbbd"/><path d="m282.369 342.619c77.236 0 139.84-62.603 139.84-139.849 0-77.225-62.604-139.821-139.84-139.821-77.231 0-139.85 62.596-139.85 139.821 0 77.246 62.619 139.849 139.85 139.849" fill="#b9babd"/><path d="m282.282 342.431c77.124 0 139.656-62.523 139.656-139.661 0-77.13-62.532-139.642-139.656-139.642-77.13 0-139.652 62.512-139.652 139.642 0 77.139 62.523 139.661 139.652 139.661" fill="#b8babc"/><path d="m282.19 342.204c77.013 0 139.458-62.44 139.458-139.453 0-77.01-62.445-139.454-139.458-139.454s-139.473 62.444-139.473 139.454c0 77.013 62.46 139.453 139.473 139.453" fill="#b7b9bb"/><path d="m282.089 342.01c76.912 0 139.27-62.363 139.27-139.264 0-76.888-62.358-139.255-139.27-139.255s-139.264 62.367-139.264 139.255c0 76.902 62.352 139.264 139.264 139.264" fill="#b6b8ba"/><path d="m281.997 341.793c76.815 0 139.081-62.246 139.081-139.062 0-76.796-62.266-139.061-139.081-139.061-76.796 0-139.067 62.266-139.067 139.061 0 76.816 62.271 139.062 139.067 139.062" fill="#b5b7ba"/><path d="m281.905 341.619c76.704 0 138.903-62.194 138.903-138.888 0-76.699-62.199-138.883-138.903-138.883-76.675 0-138.874 62.184-138.874 138.883 0 76.694 62.199 138.888 138.874 138.888" fill="#b5b7b9"/><path d="m281.823 341.393c76.598 0 138.695-62.078 138.695-138.69 0-76.593-62.098-138.681-138.695-138.681-76.592 0-138.694 62.087-138.694 138.681 0 76.612 62.102 138.69 138.694 138.69" fill="#b4b6b8"/><path d="m281.736 341.185c76.476 0 138.502-61.991 138.502-138.492 0-76.491-62.026-138.487-138.502-138.487-76.497 0-138.516 61.996-138.516 138.487 0 76.502 62.019 138.492 138.516 138.492" fill="#b3b5b7"/><path d="m281.654 340.982c76.389 0 138.294-61.913 138.294-138.289 0-76.405-61.905-138.293-138.294-138.293-76.376 0-138.317 61.889-138.317 138.293 0 76.376 61.941 138.289 138.317 138.289" fill="#b2b4b7"/><path d="m281.537 340.779c76.299 0 138.121-61.812 138.121-138.095 0-76.279-61.823-138.11-138.121-138.11-76.259 0-138.08 61.831-138.08 138.11 0 76.283 61.821 138.095 138.08 138.095" fill="#b1b3b6"/><path d="m281.451 340.571c76.192 0 137.946-61.736 137.946-137.908 0-76.187-61.754-137.921-137.946-137.921-76.168 0-137.926 61.734-137.926 137.921 0 76.172 61.759 137.908 137.926 137.908" fill="#b1b3b5"/><path d="m281.378 340.371c76.056 0 137.718-61.666 137.718-137.717 0-76.067-61.662-137.743-137.718-137.743-76.071 0-137.714 61.676-137.714 137.743 0 76.051 61.643 137.717 137.714 137.717" fill="#b0b2b4"/><path d="m281.277 340.174c75.954 0 137.559-61.561 137.559-137.52 0-75.97-61.605-137.555-137.559-137.555-75.961 0-137.531 61.585-137.531 137.555 0 75.96 61.57 137.52 137.531 137.52" fill="#afb1b3"/><path d="m281.171 339.982c75.881 0 137.366-61.508 137.366-137.357 0-75.848-61.484-137.337-137.366-137.337-75.84 0-137.347 61.489-137.347 137.337 0 75.849 61.507 137.357 137.347 137.357" fill="#aeb0b3"/><path d="m281.103 339.767c75.747 0 137.153-61.405 137.153-137.162 0-75.729-61.406-137.134-137.153-137.134-75.729 0-137.148 61.405-137.148 137.134 0 75.756 61.42 137.162 137.148 137.162" fill="#aeb0b2"/><path d="m281.011 339.56c75.641 0 136.959-61.318 136.959-136.965 0-75.636-61.318-136.959-136.959-136.959-75.628 0-136.97 61.324-136.97 136.959 0 75.646 61.342 136.965 136.97 136.965" fill="#adafb1"/><path d="m280.92 339.372c75.529 0 136.775-61.232 136.775-136.777 0-75.524-61.246-136.776-136.775-136.776-75.526 0-136.782 61.251-136.782 136.776 0 75.545 61.257 136.777 136.782 136.777" fill="#acaeb0"/><path d="m280.842 339.169c75.409 0 136.545-61.145 136.545-136.592 0-75.439-61.136-136.564-136.545-136.564-75.443 0-136.588 61.125-136.588 136.564 0 75.447 61.145 136.592 136.588 136.592" fill="#abadb0"/><path d="m280.755 338.956c75.317 0 136.38-61.063 136.38-136.404 0-75.317-61.063-136.355-136.38-136.355-75.341 0-136.384 61.038-136.384 136.355 0 75.341 61.043 136.404 136.384 136.404" fill="#abadaf"/><path d="m280.643 338.749c75.241 0 136.191-60.986 136.191-136.197 0-75.22-60.95-136.191-136.191-136.191-75.211 0-136.167 60.971-136.167 136.191 0 75.211 60.956 136.197 136.167 136.197" fill="#aaacae"/><path d="m194.527 199.997c0-47.215 38.256-85.456 85.474-85.456 47.19 0 85.441 38.241 85.441 85.456 0 47.199-38.251 85.465-85.441 85.465-47.219 0-85.474-38.266-85.474-85.465" fill="#fff215"/><path d="m280.001 337.255c75.825 0 137.259-61.464 137.259-137.258 0-75.815-61.434-137.266-137.259-137.266-75.815 0-137.284 61.45-137.284 137.266 0 75.795 61.469 137.258 137.284 137.258" fill="#f47e40"/><path d="m280.016 342.232c78.496 0 142.155-63.618 142.155-142.149 0-78.521-63.658-142.16-142.155-142.16-78.511 0-142.179 63.639-142.179 142.16 0 78.53 63.668 142.149 142.179 142.149" fill="#f47e40"/><path d="m154.31 199.997c0-69.427 56.259-125.697 125.691-125.697 69.417 0 125.677 56.269 125.677 125.697 0 69.431-56.26 128.257-125.677 128.257-94.723 0-125.691-72.453-125.691-128.257" fill="#c76939"/><path d="m154.682 200.059c0-69.335 56.225-125.58 125.58-125.58 69.369 0 125.615 56.245 125.615 125.58 0 69.369-56.246 128.104-125.615 128.104-94.196 0-125.58-72.113-125.58-128.104" fill="#c86a39"/><path d="m155.04 200.141c0-69.312 56.196-125.459 125.503-125.459 69.283 0 125.441 56.148 125.441 125.459 0 69.287-56.158 127.924-125.441 127.924-93.698 0-125.503-71.796-125.503-127.924" fill="#c86a39"/><path d="m155.45 200.199c0-69.233 56.124-125.334 125.349-125.334 69.229 0 125.343 56.1 125.343 125.334 0 69.229-56.114 127.764-125.343 127.764-93.177 0-125.349-71.436-125.349-127.764" fill="#c96a39"/><path d="m155.822 200.267c0-69.161 56.076-125.238 125.238-125.238 69.152 0 125.232 56.077 125.232 125.238s-56.08 127.596-125.232 127.596c-92.655 0-125.238-71.104-125.238-127.596" fill="#ca6b3a"/><path d="m156.228 200.33c0-69.103 56.018-125.107 125.097-125.107 69.118 0 125.103 56.003 125.103 125.107 0 69.098-55.985 127.454-125.103 127.454-92.161 0-125.097-70.78-125.097-127.454" fill="#cb6b3a"/><path d="m156.61 200.397c0-69.03 55.955-124.981 124.986-124.981 69.041 0 124.985 55.951 124.985 124.981 0 69.031-55.945 127.273-124.985 127.273-91.645 0-124.986-70.418-124.986-127.273" fill="#cb6c3a"/><path d="m156.987 200.46c0-68.953 55.916-124.87 124.889-124.87 68.949 0 124.85 55.917 124.85 124.87 0 68.968-55.901 127.127-124.85 127.127-91.157 0-124.889-70.103-124.889-127.127" fill="#cc6c3a"/><path d="m157.392 200.542c0-68.91 55.85-124.758 124.736-124.758 68.9 0 124.743 55.849 124.743 124.758 0 68.886-55.843 126.935-124.743 126.935-90.66 0-124.736-69.747-124.736-126.935" fill="#cd6c3a"/><path d="m157.76 200.596c0-68.819 55.81-124.614 124.618-124.614 68.858 0 124.668 55.795 124.668 124.614 0 68.832-55.81 126.802-124.668 126.802-90.117 0-124.618-69.426-124.618-126.802" fill="#ce6d3a"/><path d="m158.132 200.663c0-68.764 55.766-124.522 124.527-124.522 68.775 0 124.533 55.758 124.533 124.522 0 68.765-55.758 126.62-124.533 126.62-89.61 0-124.527-69.05-124.527-126.62" fill="#ce6d3a"/><path d="m158.537 200.735c0-68.712 55.69-124.411 124.402-124.411 68.701 0 124.398 55.699 124.398 124.411 0 68.693-55.696 126.446-124.398 126.446-89.122 0-124.402-68.741-124.402-126.446" fill="#cf6d3b"/><path d="m158.905 200.808c0-68.64 55.65-124.285 124.295-124.285s124.281 55.646 124.281 124.285c0 68.62-55.636 126.31-124.281 126.31-88.61 0-124.295-68.417-124.295-126.31" fill="#d06e3b"/><path d="m159.301 200.871c0-68.567 55.593-124.179 124.155-124.179 68.57 0 124.17 55.612 124.17 124.179 0 68.557-55.599 126.137-124.17 126.137-88.084 0-124.155-68.075-124.155-126.137" fill="#d16e3b"/><path d="m159.693 200.943c0-68.514 55.529-124.043 124.034-124.043 68.524 0 124.053 55.529 124.053 124.043 0 68.485-55.529 125.947-124.053 125.947-87.6 0-124.034-67.711-124.034-125.947" fill="#d26f3b"/><path d="m160.05 200.997c0-68.447 55.516-123.928 123.943-123.928 68.469 0 123.948 55.481 123.948 123.928 0 68.431-55.479 125.812-123.948 125.812-87.069 0-123.943-67.398-123.943-125.812" fill="#d26f3b"/><path d="m160.452 201.064c0-68.388 55.443-123.802 123.816-123.802 68.379 0 123.794 55.414 123.794 123.802 0 68.393-55.415 125.668-123.794 125.668-86.576 0-123.816-67.088-123.816-125.668" fill="#d36f3b"/><path d="m160.823 201.146c0-68.335 55.395-123.706 123.692-123.706 68.341 0 123.72 55.371 123.72 123.706 0 68.311-55.38 125.484-123.72 125.484-86.025 0-123.692-66.737-123.692-125.484" fill="#d4703b"/><path d="m161.22 201.214c0-68.273 55.317-123.58 123.58-123.58 68.228 0 123.57 55.308 123.57 123.58 0 68.243-55.342 125.305-123.57 125.305-85.553 0-123.58-66.374-123.58-125.305" fill="#d5703b"/><path d="m161.606 201.272c0-68.195 55.268-123.469 123.474-123.469 68.186 0 123.434 55.274 123.434 123.469 0 68.185-55.248 125.17-123.434 125.17-85.069 0-123.474-66.058-123.474-125.17" fill="#d5703c"/><path d="m161.978 201.325c0-68.109 55.23-123.329 123.348-123.329 68.132 0 123.343 55.22 123.343 123.329 0 68.131-55.211 125.015-123.343 125.015-84.533 0-123.348-65.726-123.348-125.015" fill="#d6713c"/><path d="m162.379 201.392c0-68.041 55.153-123.222 123.208-123.222 68.065 0 123.216 55.182 123.216 123.222 0 68.064-55.151 124.855-123.216 124.855-84.016 0-123.208-65.387-123.208-124.855" fill="#d7713c"/><path d="m162.761 201.465c0-67.987 55.1-123.111 123.112-123.111 67.982 0 123.086 55.124 123.086 123.111 0 68.007-55.105 124.673-123.086 124.673-83.528 0-123.112-65.045-123.112-124.673" fill="#d8713c"/><path d="m163.133 201.547c0-67.933 55.076-122.995 122.996-122.995 67.939 0 122.975 55.061 122.975 122.995 0 67.924-55.037 124.474-122.975 124.474-83.016 0-122.996-64.682-122.996-124.474" fill="#d8713c"/><path d="m163.519 201.601c0-67.857 55.023-122.861 122.856-122.861 67.885 0 122.884 55.004 122.884 122.861 0 67.871-54.999 124.357-122.884 124.357-82.484 0-122.856-64.373-122.856-124.357" fill="#d9723c"/><path d="m163.906 201.668c0-67.784 54.975-122.744 122.759-122.744 67.785 0 122.749 54.96 122.749 122.744 0 67.804-54.964 124.183-122.749 124.183-81.995 0-122.759-64.034-122.759-124.183" fill="#d9723c"/><path d="m164.298 201.725c0-67.716 54.916-122.613 122.633-122.613 67.726 0 122.633 54.897 122.633 122.613 0 67.746-54.907 124.02-122.633 124.02-81.479 0-122.633-63.678-122.633-124.02" fill="#da723c"/><path d="m164.688 201.808c0-67.673 54.84-122.498 122.498-122.498 67.683 0 122.518 54.825 122.518 122.498 0 67.663-54.836 123.85-122.518 123.85-80.97 0-122.498-63.348-122.498-123.85" fill="#db733c"/><path d="m165.066 201.876c0-67.586 54.8-122.406 122.386-122.406 67.606 0 122.401 54.82 122.401 122.406 0 67.595-54.795 123.696-122.401 123.696-80.454 0-122.386-63.014-122.386-123.696" fill="#db733c"/><path d="m165.443 201.934c0-67.538 54.747-122.28 122.29-122.28 67.552 0 122.29 54.743 122.29 122.28 0 67.538-54.738 123.537-122.29 123.537-79.971 0-122.29-62.681-122.29-123.537" fill="#dc733d"/><path d="m165.844 202.002c0-67.46 54.694-122.15 122.135-122.15 67.489 0 122.169 54.69 122.169 122.15 0 67.47-54.68 123.381-122.169 123.381-79.424 0-122.135-62.348-122.135-123.381" fill="#dd743d"/><path d="m166.207 202.084c0-67.413 54.64-122.039 122.058-122.039 67.397 0 122.029 54.626 122.029 122.039 0 67.387-54.631 123.198-122.029 123.198-78.947 0-122.058-62.014-122.058-123.198" fill="#de743d"/><path d="m166.607 202.142c0-67.33 54.588-121.923 121.909-121.923 67.368 0 121.941 54.592 121.941 121.923 0 67.329-54.573 123.053-121.941 123.053-78.396 0-121.909-61.681-121.909-123.053" fill="#df753d"/><path d="m166.984 202.209c0-67.262 54.535-121.806 121.815-121.806 67.273 0 121.803 54.544 121.803 121.806s-54.53 122.869-121.803 122.869c-77.93 0-121.815-61.328-121.815-122.869" fill="#df753d"/><path d="m167.376 202.277c0-67.205 54.486-121.68 121.69-121.68 67.21 0 121.692 54.476 121.692 121.68 0 67.194-54.482 122.715-121.692 122.715-77.4 0-121.69-60.992-121.69-122.715" fill="#e0753d"/><path d="m167.748 202.335c0-67.112 54.443-121.565 121.59-121.565 67.146 0 121.583 54.453 121.583 121.565 0 67.137-54.438 122.557-121.583 122.557-76.899 0-121.59-60.667-121.59-122.557" fill="#e1753d"/><path d="m168.163 202.408c0-67.06 54.356-121.445 121.425-121.445 67.093 0 121.469 54.385 121.469 121.445 0 67.063-54.376 122.396-121.469 122.396-76.38 0-121.425-60.333-121.425-122.396" fill="#e1763e"/><path d="m168.535 202.471c0-66.997 54.308-121.324 121.319-121.324 67.029 0 121.362 54.326 121.362 121.324 0 67-54.332 122.231-121.362 122.231-75.873 0-121.319-59.985-121.319-122.231" fill="#e2763e"/><path d="m168.902 202.552c0-66.943 54.293-121.231 121.226-121.231 66.93 0 121.237 54.288 121.237 121.231 0 66.933-54.307 122.054-121.237 122.054-75.365 0-121.226-59.657-121.226-122.054" fill="#e3763e"/><path d="m169.294 202.606c0-66.886 54.23-121.102 121.106-121.102s121.106 54.216 121.106 121.102c0 66.88-54.23 121.923-121.106 121.923-74.887 0-121.106-59.348-121.106-121.923" fill="#e4773e"/><path d="m169.69 202.683c0-66.813 54.162-120.986 120.953-120.986 66.821 0 120.995 54.173 120.995 120.986 0 66.803-54.174 121.743-120.995 121.743-74.342 0-120.953-58.985-120.953-121.743" fill="#e4773e"/><path d="m170.062 202.746c0-66.737 54.11-120.86 120.864-120.86 66.764 0 120.874 54.123 120.874 120.86 0 66.74-54.11 121.59-120.874 121.59-73.838 0-120.864-58.682-120.864-121.59" fill="#e5773e"/><path d="m170.449 202.813c0-66.707 54.051-120.748 120.743-120.748 66.703 0 120.744 54.042 120.744 120.748 0 66.679-54.042 121.41-120.744 121.41-73.331 0-120.743-58.318-120.743-121.41" fill="#e6783e"/><path d="m170.835 202.885c0-66.628 54.004-120.627 120.613-120.627 66.653 0 120.641 53.998 120.641 120.627 0 66.607-53.988 121.237-120.641 121.237-72.814 0-120.613-57.971-120.613-121.237" fill="#e7783e"/><path d="m171.207 202.953c0-66.561 53.959-120.517 120.511-120.517 66.557 0 120.517 53.955 120.517 120.517 0 66.539-53.959 121.093-120.517 121.093-72.322 0-120.511-57.647-120.511-121.093" fill="#e8793f"/><path d="m171.619 203.021c0-66.499 53.902-120.391 120.376-120.391 66.483 0 120.385 53.891 120.385 120.391 0 66.471-53.902 120.912-120.385 120.912-71.805 0-120.376-57.303-120.376-120.912" fill="#e9793f"/><path d="m171.995 203.089c0-66.427 53.829-120.28 120.26-120.28 66.441 0 120.261 53.853 120.261 120.28 0 66.403-53.82 120.757-120.261 120.757-71.287 0-120.26-56.955-120.26-120.757" fill="#ea7a3f"/><path d="m172.376 203.147c0-66.354 53.806-120.159 120.155-120.159 66.354 0 120.138 53.805 120.138 120.159 0 66.345-53.784 120.599-120.138 120.599-70.775 0-120.155-56.609-120.155-120.599" fill="#eb7a3f"/><path d="m172.754 203.2c0-66.281 53.747-120.019 120.063-120.019 66.286 0 120.019 53.738 120.019 120.019 0 66.292-53.733 120.473-120.019 120.473-70.297 0-120.063-56.303-120.063-120.473" fill="#ec7b3f"/><path d="m173.14 203.282c0-66.228 53.679-119.907 119.927-119.907 66.218 0 119.923 53.679 119.923 119.907 0 66.21-53.705 120.274-119.923 120.274-69.765 0-119.927-55.959-119.927-120.274" fill="#ed7b3f"/><path d="m173.546 203.335c0-66.146 53.612-119.787 119.796-119.787 66.156 0 119.801 53.641 119.801 119.787 0 66.157-53.645 120.135-119.801 120.135-69.306 0-119.796-55.631-119.796-120.135" fill="#ee7b3f"/><path d="m173.919 203.427c0-66.117 53.583-119.681 119.671-119.681 66.092 0 119.699 53.563 119.699 119.681 0 66.064-53.607 119.941-119.699 119.941-68.751 0-119.671-55.275-119.671-119.941" fill="#ef7c40"/><path d="m174.29 203.489c0-66.035 53.545-119.573 119.58-119.573 66.025 0 119.58 53.539 119.58 119.573 0 66.03-53.554 119.773-119.58 119.773-68.267 0-119.58-54.937-119.58-119.773" fill="#f07c40"/><path d="m174.692 203.543c0-65.957 53.467-119.439 119.43-119.439 65.975 0 119.472 53.482 119.472 119.439 0 65.977-53.498 119.651-119.472 119.651-67.742 0-119.43-54.636-119.43-119.651" fill="#f17d40"/><path d="m175.078 203.611c0-65.895 53.418-119.314 119.313-119.314 65.915 0 119.342 53.418 119.342 119.314 0 65.909-53.427 119.468-119.342 119.468-67.232 0-119.313-54.274-119.313-119.468" fill="#f17d40"/><path d="m175.44 203.697c0-65.861 53.39-119.231 119.231-119.231 65.822 0 119.206 53.37 119.206 119.231 0 65.822-53.384 119.275-119.206 119.275-66.74 0-119.231-53.95-119.231-119.275" fill="#f27d40"/><path d="m175.846 203.741c0-65.75 53.308-119.1 119.082-119.1 65.779 0 119.076 53.35 119.076 119.1 0 65.779-53.298 119.149-119.076 119.149-66.223 0-119.082-53.611-119.082-119.149" fill="#f37e40"/><path d="m176.218 203.818c0-65.702 53.259-118.985 118.975-118.985s118.974 53.283 118.974 118.985-53.258 118.971-118.974 118.971-118.975-53.27-118.975-118.971" fill="#f47e40"/><path d="m202.055 205.485c0-49.011 39.357-88.716 87.914-88.716 48.576 0 87.949 39.705 87.949 88.716 0 48.997-39.373 88.708-87.949 88.708-48.557 0-87.914-39.711-87.914-88.708" fill="#f47e40"/><path d="m202.06 205.379c0-48.92 39.304-88.581 87.761-88.581 48.494 0 87.793 39.662 87.793 88.581 0 48.93-39.299 88.563-87.793 88.563-48.457 0-87.761-39.633-87.761-88.563" fill="#f37e40"/><path d="m202.07 205.291c0-48.861 39.227-88.465 87.606-88.465 48.369 0 87.605 39.604 87.605 88.465 0 48.825-39.236 88.418-87.605 88.418-48.379 0-87.606-39.594-87.606-88.418" fill="#f27d40"/><path d="m202.079 205.147c0-48.756 39.149-88.286 87.437-88.286 48.315 0 87.436 39.531 87.436 88.286 0 48.786-39.12 88.32-87.436 88.32-48.288 0-87.437-39.535-87.437-88.32" fill="#f17d40"/><path d="m202.094 205.06c0-48.683 39.071-88.166 87.271-88.166 48.196 0 87.267 39.482 87.267 88.166 0 48.682-39.071 88.156-87.267 88.156-48.2 0-87.271-39.474-87.271-88.156" fill="#f17d40"/><path d="m202.109 204.935c0-48.602 38.984-88.002 87.112-88.002 48.093 0 87.117 39.4 87.117 88.002 0 48.628-39.025 88.019-87.117 88.019-48.128 0-87.112-39.391-87.112-88.019" fill="#ef7c40"/><path d="m202.122 204.843c0-48.563 38.918-87.89 86.93-87.89 48.035 0 86.963 39.328 86.963 87.89 0 48.524-38.928 87.881-86.963 87.881-48.011 0-86.93-39.357-86.93-87.881" fill="#ee7b3f"/><path d="m202.122 204.742c0-48.462 38.836-87.761 86.784-87.761 47.914 0 86.765 39.299 86.765 87.761 0 48.451-38.85 87.736-86.765 87.736-47.948 0-86.784-39.285-86.784-87.736" fill="#ed7b3f"/><path d="m202.122 204.62c0-48.384 38.782-87.614 86.606-87.614 47.846 0 86.61 39.231 86.61 87.614 0 48.394-38.764 87.61-86.61 87.61-47.824 0-86.606-39.216-86.606-87.61" fill="#ec7b3f"/><path d="m202.122 204.514c0-48.301 38.725-87.47 86.441-87.47 47.779 0 86.475 39.169 86.475 87.47s-38.696 87.471-86.475 87.471c-47.717 0-86.441-39.17-86.441-87.471" fill="#eb7a3f"/><path d="m202.138 204.413c0-48.229 38.632-87.326 86.296-87.326 47.639 0 86.28 39.097 86.28 87.326 0 48.214-38.641 87.325-86.28 87.325-47.664 0-86.296-39.11-86.296-87.325" fill="#ea7a3f"/><path d="m202.157 204.302c0-48.156 38.549-87.199 86.122-87.199 47.552 0 86.093 39.043 86.093 87.199 0 48.161-38.541 87.189-86.093 87.189-47.572 0-86.122-39.029-86.122-87.189" fill="#e9793f"/><path d="m202.176 204.19c0-48.06 38.478-87.049 85.933-87.049 47.496 0 85.968 38.989 85.968 87.049s-38.472 87.07-85.968 87.07c-47.455 0-85.933-39.01-85.933-87.07" fill="#e8793f"/><path d="m202.176 204.093c0-48.021 38.43-86.909 85.783-86.909 47.384 0 85.798 38.888 85.798 86.909 0 47.983-38.414 86.905-85.798 86.905-47.354 0-85.783-38.922-85.783-86.905" fill="#e7783e"/><path d="m202.176 203.987c0-47.924 38.347-86.794 85.643-86.794 47.268 0 85.605 38.87 85.605 86.794 0 47.925-38.337 86.766-85.605 86.766-47.296 0-85.643-38.841-85.643-86.766" fill="#e6783e"/><path d="m202.21 203.886c0-47.871 38.25-86.644 85.465-86.644 47.19 0 85.45 38.773 85.45 86.644 0 47.841-38.261 86.618-85.45 86.618-47.215 0-85.465-38.777-85.465-86.618" fill="#e4773e"/><path d="m202.21 203.765c0-47.761 38.182-86.499 85.281-86.499 47.102 0 85.305 38.738 85.305 86.499 0 47.775-38.203 86.508-85.305 86.508-47.099 0-85.281-38.733-85.281-86.508" fill="#e4773e"/><path d="m202.224 203.654c0-47.677 38.101-86.344 85.111-86.344 47.045 0 85.123 38.667 85.123 86.344 0 47.707-38.077 86.343-85.123 86.343-47.01 0-85.111-38.636-85.111-86.343" fill="#e3763e"/><path d="m202.224 203.543c0-47.601 38.038-86.195 84.962-86.195 46.938 0 84.973 38.594 84.973 86.195 0 47.625-38.035 86.233-84.973 86.233-46.924 0-84.962-38.608-84.962-86.233" fill="#e2763e"/><path d="m202.234 203.446c0-47.537 37.976-86.068 84.803-86.068 46.842 0 84.802 38.531 84.802 86.068 0 47.529-37.96 86.089-84.802 86.089-46.827 0-84.803-38.56-84.803-86.089" fill="#e1763e"/><path d="m202.234 203.335c0-47.455 37.913-85.933 84.643-85.933 46.751 0 84.62 38.478 84.62 85.933 0 47.457-37.869 85.938-84.62 85.938-46.73 0-84.643-38.481-84.643-85.938" fill="#e1753d"/><path d="m202.273 203.244c0-47.403 37.806-85.803 84.469-85.803 46.634 0 84.44 38.4 84.44 85.803 0 47.368-37.806 85.798-84.44 85.798-46.663 0-84.469-38.43-84.469-85.798" fill="#e0753d"/><path d="m202.278 203.147c0-47.335 37.743-85.702 84.266-85.702 46.581 0 84.348 38.367 84.348 85.702 0 47.276-37.768 85.642-84.348 85.642-46.523 0-84.266-38.366-84.266-85.642" fill="#df753d"/><path d="m202.278 203.021c0-47.238 37.661-85.537 84.14-85.537 46.465 0 84.126 38.299 84.126 85.537 0 47.219-37.661 85.517-84.126 85.517-46.48 0-84.14-38.299-84.14-85.517" fill="#de743d"/><path d="m202.291 202.91c0-47.166 37.599-85.368 83.963-85.368 46.393 0 83.966 38.202 83.966 85.368 0 47.136-37.573 85.378-83.966 85.378-46.364 0-83.963-38.242-83.963-85.378" fill="#dd743d"/><path d="m202.291 202.813c0-47.084 37.522-85.257 83.837-85.257 46.271 0 83.788 38.173 83.788 85.257 0 47.06-37.516 85.242-83.788 85.242-46.316 0-83.837-38.182-83.837-85.242" fill="#dc733d"/><path d="m202.302 202.692c0-47.011 37.473-85.102 83.643-85.102 46.194 0 83.653 38.091 83.653 85.102 0 46.997-37.459 85.089-83.653 85.089-46.17 0-83.643-38.092-83.643-85.089" fill="#db733c"/><path d="m202.331 202.577c0-46.929 37.371-84.967 83.489-84.967 46.073 0 83.444 38.038 83.444 84.967 0 46.934-37.371 84.966-83.444 84.966-46.118 0-83.489-38.032-83.489-84.966" fill="#db733c"/><path d="m202.345 202.485c0-46.852 37.299-84.832 83.315-84.832 46.006 0 83.3 37.98 83.3 84.832 0 46.836-37.294 84.827-83.3 84.827-46.016 0-83.315-37.991-83.315-84.827" fill="#da723c"/><path d="m202.345 202.374c0-46.78 37.231-84.697 83.136-84.697 45.923 0 83.151 37.917 83.151 84.697 0 46.784-37.228 84.682-83.151 84.682-45.905 0-83.136-37.899-83.136-84.682" fill="#d9723c"/><path d="m202.345 202.277c0-46.697 37.159-84.561 82.982-84.561 45.836 0 83.005 37.864 83.005 84.561 0 46.683-37.169 84.531-83.005 84.531-45.823 0-82.982-37.848-82.982-84.531" fill="#d8713c"/><path d="m202.379 202.151c0-46.615 37.062-84.417 82.812-84.417 45.74 0 82.813 37.802 82.813 84.417 0 46.635-37.072 84.398-82.813 84.398-45.75 0-82.812-37.763-82.812-84.398" fill="#d8713c"/><path d="m202.379 202.045c0-46.533 37.009-84.252 82.658-84.252 45.615 0 82.647 37.718 82.647 84.252 0 46.552-37.032 84.287-82.647 84.287-45.649 0-82.658-37.735-82.658-84.287" fill="#d7713c"/><path d="m202.384 201.943c0-46.46 36.936-84.14 82.488-84.14 45.547 0 82.473 37.68 82.473 84.14 0 46.466-36.927 84.132-82.473 84.132-45.552 0-82.488-37.666-82.488-84.132" fill="#d6713c"/><path d="m202.384 201.837c0-46.388 36.868-83.991 82.338-83.991 45.446 0 82.304 37.603 82.304 83.991 0 46.384-36.859 84.001-82.304 84.001-45.47 0-82.338-37.617-82.338-84.001" fill="#d5703c"/><path d="m202.413 201.725c0-46.3 36.772-83.84 82.14-83.84 45.367 0 82.163 37.54 82.163 83.84 0 46.312-36.796 83.875-82.163 83.875-45.368 0-82.14-37.564-82.14-83.875" fill="#d4703b"/><path d="m202.413 201.619c0-46.223 36.729-83.72 82.01-83.72 45.253 0 81.966 37.497 81.966 83.72 0 46.238-36.713 83.711-81.966 83.711-45.281 0-82.01-37.473-82.01-83.711" fill="#d36f3b"/><path d="m202.422 201.523c0-46.181 36.632-83.59 81.817-83.59 45.204 0 81.831 37.409 81.831 83.59 0 46.131-36.627 83.575-81.831 83.575-45.185 0-81.817-37.444-81.817-83.575" fill="#d26f3b"/><path d="m202.437 201.392c0-46.055 36.55-83.426 81.657-83.426 45.102 0 81.657 37.371 81.657 83.426 0 46.093-36.555 83.444-81.657 83.444-45.106 0-81.657-37.351-81.657-83.444" fill="#d26f3b"/><path d="m202.437 201.301c0-46.011 36.497-83.304 81.522-83.304 44.982 0 81.478 37.294 81.478 83.304 0 46.005-36.496 83.291-81.478 83.291-45.025 0-81.522-37.285-81.522-83.291" fill="#d16e3b"/><path d="m202.461 201.205c0-45.944 36.4-83.17 81.337-83.17 44.899 0 81.333 37.227 81.333 83.17 0 45.928-36.434 83.139-81.333 83.139-44.937 0-81.337-37.211-81.337-83.139" fill="#d06e3b"/><path d="m202.466 201.108c0-45.877 36.342-83.054 81.169-83.054 44.812 0 81.149 37.177 81.149 83.054 0 45.818-36.337 82.994-81.149 82.994-44.827 0-81.169-37.176-81.169-82.994" fill="#cf6d3b"/><path d="m202.466 200.997c0-45.774 36.274-82.903 81.004-82.903 44.735 0 80.986 37.129 80.986 82.903 0 45.76-36.251 82.864-80.986 82.864-44.73 0-81.004-37.104-81.004-82.864" fill="#ce6d3a"/><path d="m202.466 200.871c0-45.692 36.193-82.734 80.846-82.734 44.644 0 80.851 37.042 80.851 82.734 0 45.711-36.207 82.734-80.851 82.734-44.653 0-80.846-37.024-80.846-82.734" fill="#ce6d3a"/><path d="m202.505 200.765c0-45.629 36.105-82.619 80.662-82.619 44.537 0 80.661 36.99 80.661 82.619 0 45.638-36.124 82.608-80.661 82.608-44.557 0-80.662-36.97-80.662-82.608" fill="#cd6c3a"/><path d="m202.505 200.653c0-45.543 36.042-82.464 80.502-82.464 44.464 0 80.492 36.922 80.492 82.464 0 45.537-36.028 82.473-80.492 82.473-44.46 0-80.502-36.936-80.502-82.473" fill="#cc6c3a"/><path d="m202.528 200.542c0-45.465 35.956-82.328 80.314-82.328 44.383 0 80.339 36.863 80.339 82.328 0 45.49-35.956 82.338-80.339 82.338-44.358 0-80.314-36.848-80.314-82.338" fill="#cb6c3a"/><path d="m202.534 200.445c0-45.392 35.902-82.188 80.168-82.188 44.278 0 80.18 36.796 80.18 82.188 0 45.387-35.902 82.203-80.18 82.203-44.266 0-80.168-36.816-80.168-82.203" fill="#ca6b3a"/><path d="m202.553 200.33c0-45.3 35.816-82.044 80.01-82.044 44.168 0 79.981 36.743 79.981 82.044 0 45.325-35.812 82.057-79.981 82.057-44.194 0-80.01-36.732-80.01-82.057" fill="#c96a39"/><path d="m202.553 200.224c0-45.237 35.757-81.918 79.825-81.918 44.108 0 79.855 36.68 79.855 81.918 0 45.243-35.747 81.918-79.855 81.918-44.068 0-79.825-36.675-79.825-81.918" fill="#c86a39"/><path d="m202.553 200.103c0-45.152 35.689-81.759 79.699-81.759 43.992 0 79.662 36.607 79.662 81.759 0 45.18-35.67 81.797-79.662 81.797-44.011 0-79.699-36.617-79.699-81.797" fill="#c86a39"/><path d="m202.562 199.997c0-45.064 35.598-81.6 79.526-81.6 43.89 0 79.492 36.536 79.492 81.6 0 45.093-35.602 81.641-79.492 81.641-43.928 0-79.526-36.548-79.526-81.641" fill="#c76939"/><g fill="#fff215"><path d="m194.527 199.997c0-47.215 38.256-85.456 85.474-85.456 47.19 0 85.441 38.241 85.441 85.456 0 47.199-38.251 85.465-85.441 85.465-47.219 0-85.474-38.266-85.474-85.465"/><path d="m194.527 199.997c0-47.215 38.256-85.456 85.474-85.456 47.19 0 85.441 38.241 85.441 85.456 0 47.199-38.251 85.465-85.441 85.465-47.219 0-85.474-38.266-85.474-85.465"/><path d="m280.001 349.984c82.832 0 149.998-67.147 149.998-149.987 0-82.841-67.165-149.978-149.998-149.978-82.836 0-150.002 67.137-150.002 149.978 0 82.84 67.165 149.987 150.002 149.987m-121.005-149.987c0-66.827 54.168-120.986 121.005-120.986 66.822 0 120.985 54.158 120.985 120.986 0 66.822-54.162 121.004-120.985 121.004-66.838 0-121.005-54.182-121.005-121.004"/></g><g clip-path="url(#a)" transform="matrix(1.031 0 0 -1.031 -27.694 611.974)"><path d="m206.723 399.652c0 50.686 41.081 91.772 91.767 91.772 50.691 0 91.791-41.086 91.791-91.772 0-50.69-41.1-91.791-91.791-91.791-50.686 0-91.767 41.101-91.767 91.791" fill="#f9a776"/><path d="m206.962 399.605c0 50.616 41.053 91.674 91.659 91.674 50.645 0 91.664-41.058 91.664-91.674 0-50.628-41.019-91.677-91.664-91.677-50.606 0-91.659 41.049-91.659 91.677" fill="#f9a776"/><path d="m207.229 399.549c0 50.546 40.964 91.538 91.514 91.538 50.578 0 91.57-40.992 91.57-91.538 0-50.572-40.992-91.551-91.57-91.551-50.55 0-91.514 40.979-91.514 91.551" fill="#f9a875"/><path d="m207.468 399.493c0 50.489 40.936 91.416 91.43 91.416 50.508 0 91.42-40.927 91.42-91.416 0-50.516-40.912-91.438-91.42-91.438-50.494 0-91.43 40.922-91.43 91.438" fill="#f9a975"/><path d="m207.712 399.432c0 50.423 40.884 91.303 91.312 91.303 50.447 0 91.318-40.88 91.318-91.303 0-50.428-40.871-91.307-91.318-91.307-50.428 0-91.312 40.879-91.312 91.307" fill="#f9a974"/><path d="m207.965 399.367c0 50.362 40.828 91.209 91.191 91.209 50.391 0 91.199-40.847 91.199-91.209 0-50.358-40.808-91.205-91.199-91.205-50.363 0-91.191 40.847-91.191 91.205" fill="#f9aa74"/><path d="m208.228 399.324c0 50.283 40.762 91.06 91.078 91.06 50.288 0 91.087-40.777 91.087-91.06 0-50.315-40.799-91.088-91.087-91.088-50.316 0-91.078 40.773-91.078 91.088" fill="#faab74"/><path d="m208.462 399.264c0 50.236 40.729 90.951 90.984 90.951 50.227 0 90.947-40.715 90.947-90.951 0-50.237-40.72-90.971-90.947-90.971-50.255 0-90.984 40.734-90.984 90.971" fill="#faab73"/><path d="m208.72 399.203c0 50.165 40.655 90.843 90.839 90.843s90.867-40.678 90.867-90.843c0-50.176-40.683-90.853-90.867-90.853s-90.839 40.677-90.839 90.853" fill="#faac73"/><path d="m208.959 399.137c0 50.128 40.641 90.74 90.745 90.74 50.109 0 90.727-40.612 90.727-90.74 0-50.1-40.618-90.722-90.727-90.722-50.104 0-90.745 40.622-90.745 90.722" fill="#faad72"/><path d="m209.235 399.085c0 50.049 40.552 90.614 90.596 90.614 50.053 0 90.638-40.565 90.638-90.614 0-50.048-40.585-90.608-90.638-90.608-50.044 0-90.596 40.56-90.596 90.608" fill="#faad73"/><path d="m209.475 399.034c0 49.973 40.513 90.492 90.478 90.492 49.996 0 90.529-40.519 90.529-90.492 0-49.997-40.533-90.502-90.529-90.502-49.965 0-90.478 40.505-90.478 90.502" fill="#faae72"/><path d="m209.723 398.978c0 49.907 40.476 90.375 90.384 90.375 49.917 0 90.399-40.468 90.399-90.375 0-49.922-40.482-90.39-90.399-90.39-49.908 0-90.384 40.468-90.384 90.39" fill="#faaf72"/><path d="m209.971 398.907c0 49.889 40.416 90.272 90.286 90.272 49.843 0 90.267-40.383 90.267-90.272 0-49.843-40.424-90.262-90.267-90.262-49.87 0-90.286 40.419-90.286 90.262" fill="#fab071"/><path d="m210.225 398.865c0 49.781 40.363 90.15 90.159 90.15 49.781 0 90.14-40.369 90.14-90.15 0-49.801-40.359-90.16-90.14-90.16-49.796 0-90.159 40.359-90.159 90.16" fill="#fab071"/><path d="m210.463 398.804c0 49.725 40.332 90.042 90.052 90.042 49.715 0 90.038-40.317 90.038-90.042 0-49.716-40.323-90.033-90.038-90.033-49.72 0-90.052 40.317-90.052 90.033" fill="#fbb170"/><path d="m210.717 398.757c0 49.645 40.265 89.925 89.929 89.925 49.668 0 89.934-40.28 89.934-89.925 0-49.669-40.266-89.944-89.934-89.944-49.664 0-89.929 40.275-89.929 89.944" fill="#fbb270"/><path d="m210.984 398.682c0 49.608 40.186 89.818 89.803 89.818 49.594 0 89.808-40.21 89.808-89.818 0-49.594-40.214-89.784-89.808-89.784-49.617 0-89.803 40.19-89.803 89.784" fill="#fbb26f"/><path d="m211.237 398.631c0 49.537 40.153 89.695 89.672 89.695 49.546 0 89.709-40.158 89.709-89.695 0-49.543-40.163-89.682-89.709-89.682-49.519 0-89.672 40.139-89.672 89.682" fill="#fbb36f"/><path d="m211.476 398.574c0 49.472 40.12 89.588 89.569 89.588 49.472 0 89.592-40.116 89.592-89.588 0-49.471-40.12-89.564-89.592-89.564-49.449 0-89.569 40.093-89.569 89.564" fill="#fbb46f"/><path d="m211.725 398.523c0 49.401 40.049 89.47 89.461 89.47 49.416 0 89.479-40.069 89.479-89.47 0-49.42-40.063-89.457-89.479-89.457-49.412 0-89.461 40.037-89.461 89.457" fill="#fbb46e"/><path d="m211.973 398.471c0 49.345 40.012 89.344 89.353 89.344 49.346 0 89.348-39.999 89.348-89.344 0-49.34-40.002-89.348-89.348-89.348-49.341 0-89.353 40.008-89.353 89.348" fill="#fbb56e"/><path d="m212.24 398.415c0 49.271 39.947 89.212 89.213 89.212 49.283 0 89.254-39.941 89.254-89.212 0-49.27-39.971-89.235-89.254-89.235-49.266 0-89.213 39.965-89.213 89.235" fill="#fbb66d"/><path d="m212.479 398.363c0 49.2 39.891 89.115 89.114 89.115 49.21 0 89.114-39.915 89.114-89.115 0-49.218-39.904-89.104-89.114-89.104-49.223 0-89.114 39.886-89.114 89.104" fill="#fcb66d"/><path d="m212.723 398.298c0 49.139 39.848 88.992 89.025 88.992 49.129 0 88.973-39.853 88.973-88.992 0-49.153-39.844-88.992-88.973-88.992-49.177 0-89.025 39.839-89.025 88.992" fill="#fcb76c"/><path d="m212.967 398.242c0 49.082 39.797 88.865 88.917 88.865 49.078 0 88.866-39.783 88.866-88.865 0-49.097-39.788-88.894-88.866-88.894-49.12 0-88.917 39.797-88.917 88.894" fill="#fcb86c"/><path d="m213.229 398.171c0 49.032 39.746 88.777 88.767 88.777 49.031 0 88.781-39.745 88.781-88.777 0-49.013-39.75-88.725-88.781-88.725-49.021 0-88.767 39.712-88.767 88.725" fill="#fcb96b"/><path d="m213.487 398.134c0 48.947 39.694 88.626 88.631 88.626 48.966 0 88.673-39.679 88.673-88.626 0-48.961-39.707-88.641-88.673-88.641-48.937 0-88.631 39.68-88.631 88.641" fill="#fcb96b"/><path d="m213.75 398.078c0 48.881 39.623 88.537 88.509 88.537 48.899 0 88.561-39.656 88.561-88.537 0-48.89-39.662-88.547-88.561-88.547-48.886 0-88.509 39.657-88.509 88.547" fill="#fcba6a"/><path d="m213.975 398.002c0 48.844 39.599 88.426 88.443 88.426 48.825 0 88.406-39.582 88.406-88.426 0-48.814-39.581-88.4-88.406-88.4-48.844 0-88.443 39.586-88.443 88.4" fill="#fcbb69"/><path d="m214.246 397.956c0 48.769 39.525 88.298 88.303 88.298 48.75 0 88.295-39.529 88.295-88.298 0-48.768-39.545-88.299-88.295-88.299-48.778 0-88.303 39.531-88.303 88.299" fill="#fcbb69"/><path d="m214.49 397.895c0 48.722 39.483 88.195 88.191 88.195 48.684 0 88.195-39.473 88.195-88.195 0-48.707-39.511-88.196-88.195-88.196-48.708 0-88.191 39.489-88.191 88.196" fill="#fdbc68"/><path d="m214.738 397.838c0 48.642 39.427 88.098 88.093 88.098 48.614 0 88.05-39.456 88.05-88.098 0-48.65-39.436-88.064-88.05-88.064-48.666 0-88.093 39.414-88.093 88.064" fill="#fdbd67"/><path d="m214.992 397.787c0 48.576 39.389 87.947 87.961 87.947 48.571 0 87.955-39.371 87.955-87.947 0-48.558-39.384-87.947-87.955-87.947-48.572 0-87.961 39.389-87.961 87.947" fill="#fdbd67"/><path d="m215.254 397.707c0 48.544 39.305 87.867 87.83 87.867 48.506 0 87.834-39.323 87.834-87.867 0-48.478-39.328-87.82-87.834-87.82-48.525 0-87.83 39.342-87.83 87.82" fill="#fdbe66"/><path d="m215.493 397.674c0 48.46 39.281 87.727 87.732 87.727 48.449 0 87.73-39.267 87.73-87.727 0-48.445-39.281-87.707-87.73-87.707-48.451 0-87.732 39.262-87.732 87.707" fill="#fdbf66"/><path d="m215.742 397.613c0 48.389 39.22 87.61 87.633 87.61 48.379 0 87.586-39.221 87.586-87.61 0-48.384-39.207-87.595-87.586-87.595-48.413 0-87.633 39.211-87.633 87.595" fill="#fdbf65"/><path d="m215.98 397.562c0 48.319 39.188 87.516 87.488 87.516 48.338 0 87.507-39.197 87.507-87.516s-39.169-87.483-87.507-87.483c-48.3 0-87.488 39.164-87.488 87.483" fill="#fdc065"/><path d="m216.243 397.506c0 48.271 39.127 87.365 87.375 87.365 48.273 0 87.375-39.094 87.375-87.365 0-48.263-39.102-87.385-87.375-87.385-48.248 0-87.375 39.122-87.375 87.385" fill="#fdc164"/><path d="m216.487 397.44c0 48.202 39.07 87.263 87.258 87.263 48.206 0 87.276-39.061 87.276-87.263 0-48.182-39.07-87.244-87.276-87.244-48.188 0-87.258 39.062-87.258 87.244" fill="#fdc164"/><path d="m216.75 397.384c0 48.14 39.009 87.155 87.159 87.155 48.103 0 87.136-39.015 87.136-87.155 0-48.126-39.033-87.113-87.136-87.113-48.15 0-87.159 38.987-87.159 87.113" fill="#fec263"/><path d="m216.988 397.342c0 48.056 38.991 87.028 87.043 87.028 48.047 0 87.028-38.972 87.028-87.028 0-48.071-38.981-87.014-87.028-87.014-48.052 0-87.043 38.943-87.043 87.014" fill="#fec362"/><path d="m217.251 397.295c0 47.972 38.911 86.901 86.911 86.901s86.925-38.929 86.925-86.901c0-48.014-38.925-86.92-86.925-86.92s-86.911 38.906-86.911 86.92" fill="#fec362"/><path d="m217.504 397.215c0 47.944 38.859 86.808 86.789 86.808 47.935 0 86.803-38.864 86.803-86.808 0-47.925-38.868-86.784-86.803-86.784-47.93 0-86.789 38.859-86.789 86.784" fill="#fec461"/><path d="m217.748 397.173c0 47.883 38.817 86.677 86.686 86.677 47.882 0 86.671-38.794 86.671-86.677s-38.789-86.687-86.671-86.687c-47.869 0-86.686 38.804-86.686 86.687" fill="#fec560"/><path d="m218.015 397.121c0 47.813 38.737 86.55 86.541 86.55 47.831 0 86.559-38.737 86.559-86.55 0-47.831-38.728-86.588-86.559-86.588-47.804 0-86.541 38.757-86.541 86.588" fill="#fec560"/><path d="m218.25 397.046c0 47.752 38.704 86.456 86.451 86.456 47.729 0 86.451-38.704 86.451-86.456 0-47.756-38.722-86.433-86.451-86.433-47.747 0-86.451 38.677-86.451 86.433" fill="#fec65f"/><path d="m218.493 397c0 47.681 38.681 86.338 86.344 86.338 47.69 0 86.325-38.657 86.325-86.338 0-47.658-38.635-86.344-86.325-86.344-47.663 0-86.344 38.686-86.344 86.344" fill="#fec75e"/><path d="m218.765 396.92c0 47.653 38.592 86.24 86.203 86.24 47.626 0 86.241-38.587 86.241-86.24 0-47.578-38.615-86.208-86.241-86.208-47.611 0-86.203 38.63-86.203 86.208" fill="#fec85d"/><path d="m219.014 396.906c0 47.522 38.526 86.09 86.086 86.09 47.578 0 86.109-38.568 86.109-86.09 0-47.564-38.531-86.124-86.109-86.124-47.56 0-86.086 38.56-86.086 86.124" fill="#fec85d"/><path d="m219.234 396.826c0 47.494 38.508 85.992 86.025 85.992 47.466 0 85.983-38.498 85.983-85.992 0-47.484-38.517-85.965-85.983-85.965-47.517 0-86.025 38.481-86.025 85.965" fill="#ffc95c"/><path d="m219.506 396.784c0 47.414 38.437 85.847 85.865 85.847s85.871-38.433 85.871-85.847c0-47.442-38.443-85.889-85.871-85.889s-85.865 38.447-85.865 85.889" fill="#ffca5b"/><path d="m219.75 396.704c0 47.386 38.395 85.758 85.762 85.758 47.353 0 85.758-38.372 85.758-85.758 0-47.335-38.405-85.753-85.758-85.753-47.367 0-85.762 38.418-85.762 85.753" fill="#ffca5a"/><path d="m220.021 396.652c0 47.307 38.325 85.655 85.622 85.655 47.296 0 85.631-38.348 85.631-85.655 0-47.283-38.335-85.631-85.631-85.631-47.297 0-85.622 38.348-85.622 85.631" fill="#ffcb59"/><path d="m220.265 396.596c0 47.227 38.292 85.529 85.491 85.529 47.26 0 85.542-38.302 85.542-85.529s-38.282-85.509-85.542-85.509c-47.199 0-85.491 38.282-85.491 85.509" fill="#ffcc59"/><path d="m220.509 396.545c0 47.165 38.25 85.406 85.425 85.406 47.156 0 85.387-38.241 85.387-85.406 0-47.176-38.231-85.397-85.387-85.397-47.175 0-85.425 38.221-85.425 85.397" fill="#ffcc58"/><path d="m220.776 396.493c0 47.1 38.175 85.284 85.275 85.284 47.114 0 85.289-38.184 85.289-85.284 0-47.109-38.175-85.317-85.289-85.317-47.1 0-85.275 38.208-85.275 85.317" fill="#ffcd57"/><path d="m221.01 396.428c0 47.048 38.133 85.172 85.186 85.172 47.048 0 85.163-38.124 85.163-85.172 0-47.03-38.115-85.168-85.163-85.168-47.053 0-85.186 38.138-85.186 85.168" fill="#ffce56"/><path d="m221.264 396.385c0 46.974 38.076 85.046 85.059 85.046 46.978 0 85.064-38.072 85.064-85.046 0-46.987-38.086-85.069-85.064-85.069-46.983 0-85.059 38.082-85.059 85.069" fill="#ffce55"/><path d="m221.512 396.315c0 46.936 38.034 84.961 84.933 84.961 46.926 0 84.961-38.025 84.961-84.961 0-46.903-38.035-84.938-84.961-84.938-46.899 0-84.933 38.035-84.933 84.938" fill="#ffcf55"/><path d="m221.77 396.264c0 46.861 37.964 84.834 84.82 84.834 46.851 0 84.825-37.973 84.825-84.834 0-46.852-37.974-84.834-84.825-84.834-46.856 0-84.82 37.982-84.82 84.834" fill="#ffd054"/><path d="m222.032 396.212c0 46.781 37.908 84.712 84.698 84.712 46.795 0 84.694-37.931 84.694-84.712 0-46.8-37.899-84.722-84.694-84.722-46.79 0-84.698 37.922-84.698 84.722" fill="#ffd053"/><path d="m222.267 396.165c0 46.702 37.879 84.6 84.595 84.6s84.618-37.898 84.618-84.6c0-46.726-37.902-84.609-84.618-84.609s-84.595 37.883-84.595 84.609" fill="#ffd152"/><path d="m222.506 396.104c0 46.636 37.814 84.459 84.492 84.459 46.668 0 84.492-37.823 84.492-84.459 0-46.665-37.824-84.483-84.492-84.483-46.678 0-84.492 37.818-84.492 84.483" fill="#ffd251"/><path d="m222.754 396.024c0 46.618 37.786 84.375 84.375 84.375 46.594 0 84.361-37.757 84.361-84.375 0-46.585-37.767-84.342-84.361-84.342-46.589 0-84.375 37.757-84.375 84.342" fill="#ffd250"/><path d="m223.026 395.996c0 46.519 37.716 84.234 84.244 84.234 46.513 0 84.248-37.715 84.248-84.234 0-46.557-37.735-84.285-84.248-84.285-46.528 0-84.244 37.728-84.244 84.285" fill="#ffd350"/><path d="m223.27 395.931c0 46.458 37.673 84.135 84.126 84.135 46.472 0 84.155-37.677 84.155-84.135 0-46.477-37.683-84.15-84.155-84.15-46.453 0-84.126 37.673-84.126 84.15" fill="#ffd44f"/><path d="m223.509 395.879c0 46.392 37.64 84 84.038 84 46.406 0 84.017-37.608 84.017-84 0-46.41-37.611-84.027-84.017-84.027-46.398 0-84.038 37.617-84.038 84.027" fill="#ffd44e"/><path d="m223.767 395.809c0 46.345 37.584 83.925 83.906 83.925 46.336 0 83.911-37.58 83.911-83.925 0-46.34-37.575-83.897-83.911-83.897-46.322 0-83.906 37.557-83.906 83.897" fill="#ffd54d"/><path d="m224.024 395.771c0 46.266 37.51 83.766 83.804 83.766 46.26 0 83.779-37.5 83.779-83.766 0-46.289-37.519-83.822-83.779-83.822-46.294 0-83.804 37.533-83.804 83.822" fill="#ffd64c"/><path d="m224.292 395.691c0 46.224 37.453 83.682 83.653 83.682 46.213 0 83.686-37.458 83.686-83.682 0-46.195-37.473-83.658-83.686-83.658-46.2 0-83.653 37.463-83.653 83.658" fill="#ffd64b"/><path d="m224.531 395.635c0 46.149 37.406 83.564 83.564 83.564 46.12 0 83.536-37.415 83.536-83.564 0-46.139-37.416-83.559-83.536-83.559-46.158 0-83.564 37.42-83.564 83.559" fill="#ffd74a"/><path d="m224.77 395.612c0 46.059 37.369 83.409 83.451 83.409 46.088 0 83.447-37.35 83.447-83.409 0-46.102-37.359-83.475-83.447-83.475-46.082 0-83.451 37.373-83.451 83.475" fill="#ffd849"/><path d="m225.027 395.537c0 46.003 37.289 83.325 83.326 83.325 46.012 0 83.325-37.322 83.325-83.325 0-46.013-37.313-83.32-83.325-83.32-46.037 0-83.326 37.307-83.326 83.32" fill="#ffd848"/><path d="m225.271 395.476c0 45.965 37.252 83.203 83.208 83.203 45.97 0 83.209-37.238 83.209-83.203 0-45.952-37.239-83.217-83.209-83.217-45.956 0-83.208 37.265-83.208 83.217" fill="#ffd947"/><path d="m225.52 395.415c0 45.9 37.195 83.091 83.099 83.091 45.897 0 83.072-37.191 83.072-83.091 0-45.891-37.175-83.071-83.072-83.071-45.904 0-83.099 37.18-83.099 83.071" fill="#ffda46"/><path d="m225.764 395.359c0 45.829 37.162 82.969 82.982 82.969 45.844 0 82.979-37.14 82.979-82.969 0-45.816-37.135-82.96-82.979-82.96-45.82 0-82.982 37.144-82.982 82.96" fill="#ffda45"/><path d="m226.031 395.303c0 45.754 37.096 82.87 82.856 82.87 45.759 0 82.865-37.116 82.865-82.87 0-45.76-37.106-82.865-82.865-82.865-45.76 0-82.856 37.105-82.856 82.865" fill="#ffdb44"/><path d="m226.284 395.246c0 45.703 37.05 82.734 82.743 82.734 45.713 0 82.725-37.031 82.725-82.734s-37.012-82.748-82.725-82.748c-45.693 0-82.743 37.045-82.743 82.748" fill="#ffdc43"/><path d="m226.527 395.181c0 45.651 36.975 82.612 82.637 82.612 45.633 0 82.641-36.961 82.641-82.612 0-45.615-37.008-82.622-82.641-82.622-45.662 0-82.637 37.007-82.637 82.622" fill="#ffdc42"/><path d="m226.767 395.129c0 45.577 36.961 82.523 82.514 82.523 45.572 0 82.524-36.946 82.524-82.523 0-45.563-36.952-82.504-82.524-82.504-45.553 0-82.514 36.941-82.514 82.504" fill="#ffdd40"/><path d="m227.024 395.096c0 45.488 36.891 82.379 82.407 82.379 45.53 0 82.401-36.891 82.401-82.379 0-45.525-36.871-82.407-82.401-82.407-45.516 0-82.407 36.882-82.407 82.407" fill="#ffde3f"/><path d="m227.268 395.035c0 45.436 36.858 82.276 82.28 82.276 45.469 0 82.298-36.84 82.298-82.276 0-45.455-36.829-82.299-82.298-82.299-45.422 0-82.28 36.844-82.28 82.299" fill="#ffde3e"/><path d="m227.535 394.951c0 45.399 36.802 82.176 82.168 82.176 45.375 0 82.152-36.777 82.152-82.176 0-45.361-36.777-82.158-82.152-82.158-45.366 0-82.168 36.797-82.168 82.158" fill="#ffdf3d"/><path d="m227.798 394.914c0 45.318 36.708 82.054 82.059 82.054 45.3 0 82.027-36.736 82.027-82.054 0-45.305-36.727-82.051-82.027-82.051-45.351 0-82.059 36.746-82.059 82.051" fill="#ffe03c"/><path d="m228.032 394.861c0 45.249 36.68 81.934 81.933 81.934 45.254 0 81.928-36.685 81.928-81.934 0-45.252-36.674-81.927-81.928-81.927-45.253 0-81.933 36.675-81.933 81.927" fill="#ffe03b"/><path d="m228.285 394.814c0 45.17 36.624 81.779 81.825 81.779 45.173 0 81.835-36.609 81.835-81.779 0-45.205-36.662-81.834-81.835-81.834-45.201 0-81.825 36.629-81.825 81.834" fill="#ffe139"/><path d="m228.553 394.74c0 45.113 36.562 81.694 81.683 81.694 45.141 0 81.709-36.581 81.709-81.694 0-45.131-36.568-81.693-81.709-81.693-45.121 0-81.683 36.562-81.683 81.693" fill="#ffe238"/><path d="m228.796 394.703c0 45.037 36.511 81.562 81.581 81.562 45.061 0 81.592-36.525 81.592-81.562 0-45.094-36.531-81.6-81.592-81.6-45.07 0-81.581 36.506-81.581 81.6" fill="#ffe237"/><path d="m229.04 394.623c0 44.995 36.464 81.482 81.487 81.482 44.991 0 81.469-36.487 81.469-81.482 0-45.014-36.478-81.478-81.469-81.478-45.023 0-81.487 36.464-81.487 81.478" fill="#ffe336"/><path d="m229.289 394.571c0 44.935 36.426 81.343 81.356 81.343 44.934 0 81.351-36.408 81.351-81.343 0-44.921-36.417-81.346-81.351-81.346-44.93 0-81.356 36.425-81.356 81.346" fill="#ffe434"/><path d="m229.542 394.516c0 44.873 36.375 81.238 81.239 81.238 44.86 0 81.243-36.365 81.243-81.238 0-44.866-36.383-81.245-81.243-81.245-44.864 0-81.239 36.379-81.239 81.245" fill="#ffe433"/><path d="m229.795 394.449c0 44.803 36.314 81.141 81.127 81.141 44.793 0 81.121-36.338 81.121-81.141 0-44.799-36.328-81.121-81.121-81.121-44.813 0-81.127 36.322-81.127 81.121" fill="#ffe533"/><path d="m230.053 394.393c0 44.728 36.258 81.028 80.995 81.028 44.757 0 81.005-36.3 81.005-81.028s-36.248-80.981-81.005-80.981c-44.737 0-80.995 36.253-80.995 80.981" fill="#ffe632"/><path d="m230.282 394.342c0 44.672 36.235 80.892 80.892 80.892 44.691 0 80.912-36.22 80.912-80.892 0-44.677-36.221-80.888-80.912-80.888-44.657 0-80.892 36.211-80.892 80.888" fill="#ffe730"/><path d="m230.549 394.281c0 44.62 36.16 80.775 80.765 80.775 44.608 0 80.795-36.155 80.795-80.775 0-44.616-36.187-80.775-80.795-80.775-44.605 0-80.765 36.159-80.765 80.775" fill="#ffe82d"/><path d="m230.793 394.238c0 44.546 36.127 80.658 80.668 80.658 44.555 0 80.666-36.112 80.666-80.658 0-44.573-36.111-80.672-80.666-80.672-44.541 0-80.668 36.099-80.668 80.672" fill="#ffe82c"/><path d="m231.042 394.168c0 44.484 36.065 80.545 80.563 80.545 44.481 0 80.541-36.061 80.541-80.545 0-44.488-36.06-80.531-80.541-80.531-44.498 0-80.563 36.043-80.563 80.531" fill="#ffe92b"/><path d="m231.304 394.126c0 44.405 36.009 80.423 80.424 80.423 44.428 0 80.428-36.018 80.428-80.423 0-44.446-36-80.419-80.428-80.419-44.415 0-80.424 35.973-80.424 80.419" fill="#ffea2a"/><path d="m231.566 394.061c0 44.357 35.944 80.301 80.284 80.301 44.39 0 80.315-35.944 80.315-80.301 0-44.331-35.925-80.302-80.315-80.302-44.34 0-80.284 35.971-80.284 80.302" fill="#ffeb28"/><path d="m231.806 394.009c0 44.287 35.878 80.194 80.203 80.194 44.288 0 80.203-35.907 80.203-80.194 0-44.279-35.915-80.203-80.203-80.203-44.325 0-80.203 35.924-80.203 80.203" fill="#ffec27"/><path d="m232.049 393.943c0 44.241 35.865 80.086 80.077 80.086 44.241 0 80.086-35.845 80.086-80.086 0-44.213-35.845-80.082-80.086-80.082-44.212 0-80.077 35.869-80.077 80.082" fill="#ffec24"/><path d="m232.284 393.896c0 44.17 35.831 79.974 79.987 79.974 44.184 0 79.959-35.804 79.959-79.974 0-44.166-35.775-79.964-79.959-79.964-44.156 0-79.987 35.798-79.987 79.964" fill="#ffed22"/><path d="m232.561 393.845c0 44.095 35.751 79.851 79.832 79.851 44.109 0 79.866-35.756 79.866-79.851 0-44.11-35.757-79.857-79.866-79.857-44.081 0-79.832 35.747-79.832 79.857" fill="#ffee20"/><path d="m232.828 393.783c0 44.035 35.681 79.744 79.705 79.744 44.054 0 79.749-35.709 79.749-79.744 0-44.048-35.695-79.734-79.749-79.734-44.024 0-79.705 35.686-79.705 79.734" fill="#ffef1e"/><path d="m233.053 393.742c0 43.964 35.638 79.593 79.621 79.593 43.974 0 79.613-35.629 79.613-79.593 0-43.992-35.639-79.64-79.613-79.64-43.983 0-79.621 35.648-79.621 79.64" fill="#fff01c"/><path d="m233.311 393.662c0 43.912 35.587 79.509 79.495 79.509 43.913 0 79.518-35.597 79.518-79.509 0-43.898-35.605-79.505-79.518-79.505-43.908 0-79.495 35.607-79.495 79.505" fill="#fff119"/><path d="m233.563 393.605c0 43.848 35.537 79.397 79.383 79.397 43.843 0 79.378-35.549 79.378-79.397 0-43.841-35.535-79.377-79.378-79.377-43.846 0-79.383 35.536-79.383 79.377" fill="#fff117"/><path d="m233.789 393.555c0 43.761 35.507 79.288 79.289 79.288 43.772 0 79.275-35.527 79.275-79.288 0-43.778-35.503-79.262-79.275-79.262-43.782 0-79.289 35.484-79.289 79.262" fill="#fff215"/></g><g clip-path="url(#b)" transform="matrix(1.031 0 0 -1.031 -27.694 611.974)"><path d="m194.174 392.152c0 68.719 53.363 124.426 119.194 124.426 65.813 0 119.185-55.707 119.185-124.426 0-68.756-53.372-124.443-119.185-124.443-76.233 0-119.194 55.687-119.194 124.443" fill="#fff215"/><path d="m194.174 392.34c0 68.503 53.26 124.064 118.904 124.064 65.676 0 118.893-55.561 118.893-124.064 0-68.55-53.217-124.115-118.893-124.115-75.853 0-118.904 55.565-118.904 124.115" fill="#fff119"/><path d="m194.174 392.509c0 68.334 53.105 123.731 118.627 123.731 65.498 0 118.627-55.397 118.627-123.731 0-68.353-53.129-123.741-118.627-123.741-75.473 0-118.627 55.388-118.627 123.741" fill="#ffee20"/><path d="m194.165 392.688c0 68.155 52.983 123.383 118.355 123.383 65.339 0 118.322-55.228 118.322-123.383 0-68.153-52.983-123.395-118.322-123.395-75.089 0-118.355 55.242-118.355 123.395" fill="#ffec24"/><path d="m194.165 392.884c0 67.959 52.847 123.028 118.073 123.028 65.17 0 118.045-55.069 118.045-123.028 0-67.969-52.875-123.066-118.045-123.066-74.723 0-118.073 55.097-118.073 123.066" fill="#ffeb28"/><path d="m194.165 393.057c0 67.763 52.734 122.686 117.778 122.686 65.043 0 117.769-54.923 117.769-122.686 0-67.767-52.726-122.696-117.769-122.696-74.334 0-117.778 54.929-117.778 122.696" fill="#ffe82c"/><path d="m194.165 393.23c0 67.59 52.603 122.349 117.483 122.349 64.899 0 117.501-54.759 117.501-122.349 0-67.57-52.602-122.33-117.501-122.33-73.931 0-117.483 54.76-117.483 122.33" fill="#ffe730"/><path d="m194.151 393.438c0 67.382 52.476 121.991 117.21 121.991 64.764 0 117.231-54.609 117.231-121.991 0-67.389-52.467-122.016-117.231-122.016-73.55 0-117.21 54.627-117.21 122.016" fill="#ffe533"/><path d="m194.151 393.605c0 67.201 52.341 121.665 116.929 121.665 64.585 0 116.926-54.464 116.926-121.665 0-67.185-52.341-121.65-116.926-121.65-73.176 0-116.929 54.465-116.929 121.65" fill="#ffe336"/><path d="m194.151 393.783c0 66.994 52.238 121.299 116.644 121.299 64.43 0 116.667-54.305 116.667-121.299 0-66.998-52.237-121.279-116.667-121.279-72.783 0-116.644 54.281-116.644 121.279" fill="#ffe238"/><path d="m194.151 393.985c0 66.792 52.087 120.938 116.376 120.938 64.256 0 116.354-54.146 116.354-120.938 0-66.82-52.098-120.975-116.354-120.975-72.431 0-116.376 54.155-116.376 120.975" fill="#ffe03c"/><path d="m194.151 394.168c0 66.596 51.97 120.6 116.085 120.6 64.117 0 116.077-54.004 116.077-120.6 0-66.623-51.96-120.623-116.077-120.623-72.05 0-116.085 54-116.085 120.623" fill="#ffde3e"/><path d="m194.132 394.328c0 66.436 51.853 120.272 115.823 120.272 63.934 0 115.796-53.836 115.796-120.272 0-66.404-51.862-120.249-115.796-120.249-71.652 0-115.823 53.845-115.823 120.249" fill="#ffdd40"/><path d="m194.132 394.516c0 66.234 51.713 119.924 115.528 119.924 63.793 0 115.524-53.69 115.524-119.924 0-66.226-51.731-119.903-115.524-119.903-71.273 0-115.528 53.677-115.528 119.903" fill="#ffdc43"/><path d="m194.123 394.703c0 66.037 51.595 119.554 115.252 119.554 63.665 0 115.246-53.517 115.246-119.554 0-66.033-51.581-119.555-115.246-119.555-70.89 0-115.252 53.522-115.252 119.555" fill="#ffda46"/><path d="m194.123 394.899c0 65.822 51.482 119.204 114.965 119.204 63.492 0 114.98-53.382 114.98-119.204 0-65.85-51.488-119.211-114.98-119.211-70.504 0-114.965 53.361-114.965 119.211" fill="#ffd848"/><path d="m194.123 395.096c0 65.621 51.342 118.852 114.69 118.852 63.336 0 114.683-53.231 114.683-118.852 0-65.662-51.347-118.879-114.683-118.879-70.122 0-114.69 53.217-114.69 118.879" fill="#ffd74a"/><path d="m194.109 395.265c0 65.447 51.234 118.509 114.399 118.509 63.191 0 114.426-53.062 114.426-118.509 0-65.466-51.235-118.529-114.426-118.529-69.751 0-114.399 53.063-114.399 118.529" fill="#ffd54d"/><path d="m194.109 395.448c0 65.264 51.103 118.148 114.131 118.148 63.01 0 114.113-52.884 114.113-118.148 0-65.288-51.103-118.19-114.113-118.19-69.37 0-114.131 52.902-114.131 118.19" fill="#ffd44f"/><path d="m194.085 395.626c0 65.086 50.986 117.82 113.86 117.82 62.883 0 113.836-52.734 113.836-117.82 0-65.071-50.953-117.806-113.836-117.806-68.986 0-113.86 52.735-113.86 117.806" fill="#ffd251"/><path d="m194.085 395.809c0 64.875 50.855 117.468 113.573 117.468 62.715 0 113.565-52.593 113.565-117.468 0-64.889-50.85-117.469-113.565-117.469-68.61 0-113.573 52.58-113.573 117.469" fill="#ffd053"/><path d="m194.085 395.996c0 64.674 50.738 117.122 113.302 117.122 62.551 0 113.278-52.448 113.278-117.122 0-64.697-50.727-117.136-113.278-117.136-68.227 0-113.302 52.439-113.302 117.136" fill="#ffcf55"/><path d="m194.085 396.184c0 64.486 50.593 116.756 113.002 116.756 62.419 0 113.007-52.27 113.007-116.756 0-64.51-50.588-116.803-113.007-116.803-67.828 0-113.002 52.293-113.002 116.803" fill="#ffcd57"/><path d="m194.085 396.343c0 64.327 50.471 116.442 112.711 116.442 62.278 0 112.735-52.115 112.735-116.442 0-64.298-50.457-116.428-112.735-116.428-67.443 0-112.711 52.13-112.711 116.428" fill="#ffcc59"/><path d="m194.085 396.545c0 64.111 50.349 116.072 112.435 116.072 62.114 0 112.453-51.961 112.453-116.072 0-64.102-50.339-116.096-112.453-116.096-67.064 0-112.435 51.994-112.435 116.096" fill="#ffca5a"/><path d="m194.085 396.732c0 63.91 50.204 115.721 112.144 115.721 61.955 0 112.158-51.811 112.158-115.721 0-63.927-50.203-115.762-112.158-115.762-66.684 0-112.144 51.835-112.144 115.762" fill="#fec85d"/><path d="m194.085 396.906c0 63.721 50.086 115.368 111.872 115.368 61.772 0 111.867-51.647 111.867-115.368 0-63.722-50.095-115.374-111.867-115.374-66.305 0-111.872 51.652-111.872 115.374" fill="#fec75e"/><path d="m194.081 397.103c0 63.515 49.959 115.026 111.586 115.026 61.64 0 111.591-51.511 111.591-115.026 0-63.544-49.951-115.05-111.591-115.05-65.935 0-111.586 51.506-111.586 115.05" fill="#fec560"/><path d="m194.081 397.295c0 63.323 49.837 114.661 111.29 114.661 61.5 0 111.318-51.338 111.318-114.661 0-63.352-49.818-114.693-111.318-114.693-65.545 0-111.29 51.341-111.29 114.693" fill="#fec361"/><path d="m194.043 397.468c0 63.15 49.744 114.328 111.057 114.328 61.331 0 111.033-51.178 111.033-114.328 0-63.159-49.702-114.347-111.033-114.347-65.176 0-111.057 51.188-111.057 114.347" fill="#fec263"/><path d="m194.043 397.656c0 62.948 49.603 113.981 110.775 113.981 61.153 0 110.756-51.033 110.756-113.981 0-62.953-49.603-114.014-110.756-114.014-64.804 0-110.775 51.061-110.775 114.014" fill="#fdc164"/><path d="m194.043 397.829c0 62.752 49.463 113.62 110.457 113.62 61.031 0 110.502-50.868 110.502-113.62 0-62.774-49.471-113.64-110.502-113.64-64.369 0-110.457 50.866-110.457 113.64" fill="#fdbf66"/><path d="m194.043 398.002c0 62.579 49.341 113.302 110.203 113.302 60.867 0 110.185-50.723 110.185-113.302 0-62.559-49.318-113.277-110.185-113.277-64.026 0-110.203 50.718-110.203 113.277" fill="#fdbd67"/><path d="m194.043 398.195c0 62.376 49.209 112.926 109.936 112.926 60.662 0 109.898-50.55 109.898-112.926 0-62.386-49.236-112.965-109.898-112.965-63.67 0-109.936 50.579-109.936 112.965" fill="#fdbc69"/><path d="m194.043 398.363c0 62.208 49.069 112.608 109.622 112.608 60.554 0 109.632-50.4 109.632-112.608 0-62.16-49.078-112.57-109.632-112.57-63.263 0-109.622 50.41-109.622 112.57" fill="#fcba6a"/><path d="m194.043 398.57c0 61.973 48.952 112.223 109.336 112.223 60.398 0 109.373-50.25 109.373-112.223 0-62.011-48.975-112.271-109.373-112.271-62.878 0-109.336 50.26-109.336 112.271" fill="#fcb96b"/><path d="m194.034 398.757c0 61.772 48.829 111.891 109.059 111.891 60.249 0 109.073-50.119 109.073-111.891 0-61.804-48.824-111.923-109.073-111.923-62.48 0-109.059 50.119-109.059 111.923" fill="#fcb76d"/><path d="m194.034 398.921c0 61.603 48.694 111.558 108.797 111.558 60.065 0 108.769-49.955 108.769-111.558s-48.704-111.553-108.769-111.553c-62.128 0-108.797 49.95-108.797 111.553" fill="#fbb56e"/><path d="m194.02 399.123c0 61.401 48.585 111.183 108.511 111.183 59.924 0 108.51-49.782 108.51-111.183 0-61.426-48.586-111.221-108.51-111.221-61.739 0-108.511 49.795-108.511 111.221" fill="#fbb46f"/><path d="m194.02 399.292c0 61.232 48.45 110.84 108.225 110.84 59.771 0 108.23-49.608 108.23-110.84 0-61.233-48.459-110.854-108.23-110.854-61.355 0-108.225 49.621-108.225 110.854" fill="#fbb26f"/><path d="m194.02 399.479c0 61.022 48.318 110.513 107.929 110.513 59.621 0 107.967-49.491 107.967-110.513s-48.346-110.508-107.967-110.508c-60.974 0-107.929 49.486-107.929 110.508" fill="#fab071"/><path d="m194.02 399.657c0 60.839 48.178 110.147 107.653 110.147s107.681-49.308 107.681-110.147c0-60.82-48.206-110.151-107.681-110.151-60.591 0-107.653 49.331-107.653 110.151" fill="#faaf72"/><path d="m193.992 399.845c0 60.651 48.098 109.809 107.414 109.809 59.297 0 107.362-49.158 107.362-109.809 0-60.657-48.065-109.805-107.362-109.805-60.22 0-107.414 49.148-107.414 109.805" fill="#faad73"/><path d="m193.982 400.046c0 60.422 47.954 109.411 107.114 109.411 59.166 0 107.1-48.989 107.1-109.411 0-60.464-47.934-109.472-107.1-109.472-59.836 0-107.114 49.008-107.114 109.472" fill="#faab73"/><path d="m193.982 400.191c0 60.277 47.836 109.13 106.814 109.13 59.03 0 106.856-48.853 106.856-109.13 0-60.229-47.826-109.082-106.856-109.082-59.419 0-106.814 48.853-106.814 109.082" fill="#f9aa75"/><path d="m193.982 400.393c0 60.07 47.7 108.759 106.552 108.759 58.847 0 106.556-48.689 106.556-108.759 0-60.065-47.709-108.768-106.556-108.768-59.034 0-106.552 48.703-106.552 108.768" fill="#f9a975"/><path d="m193.982 400.581c0 59.878 47.569 108.403 106.275 108.403 58.674 0 106.257-48.525 106.257-108.403 0-59.874-47.583-108.417-106.257-108.417-58.706 0-106.275 48.543-106.275 108.417" fill="#f9a776"/></g><path d="m153.86 177.624s12.719-43.93 15.614-46.352c2.813-2.339 5.974-2.813 11.202-3.571l126.931-20.376-8.44 24.725c4.916 1.556 9.6 3.649 13.992 6.172l39.586-6.143-13.262 42.137c.02.082 6.848-3.436 12.676-4.886 10.57-3.383 22.617-4.523 31.534-3.866 6.603.397 12.381 3.634 15.223 8.719 3.031 5.03 1.18 14.16-.511 21.308-3.759 15.455-9.144 34.767-15.233 45.524-8.09 14.354-21.71 15.23-34.545 17.689-9.023 1.044-18.471 2.174-25.112-.71l-2.628-1.088c-3.114-2.159-3.901-2.556-6.177-5.654l-3.958 13.048-34.125 5.901c-8.191 1.595-19.612 3.507-25.972-1.667-2.213-1.581-3.701-3.186-5.485-5.772l-4.238 12.962-32.901 5.626-5.925 19.47-47.212 7.802 42.896-138.49-43.93 7.491z" fill="#fff"/><g fill="#0068ac"><path d="m352.261 205.228 11.497-1.878c.759-3.707 5.35-11.449-1.74-10.696-8.375.701-8.379 9.216-9.756 12.574m6.524 19.419 26.019-4.479-5.751 15.02c-3.208 6.64-8.95 13.991-21.699 15.717-2.377.565-16.954 2.522-20.042 2.894-6.798.28-19.153.165-17.006-15.852 4.079-21.371 10.449-36.009 14.17-45.25 4.954-12.019 10.709-14.614 18.683-17.33 12.296-3.223 16.635-3.21 24.657-3.89 13.987-.629 17.436 5.113 15.735 16.562l-6.784 25.719-37.493 6.292c-1.402 4.529-3.528 10.106-2.944 11.951.406 3.065 6.684 2.113 9.57-.323 1.667-2.232 2.758-6.38 2.885-7.032"/><path d="m276.14 242.103c-.305 2.609.527 2.561 1.638 3.383.962.281 7.105-.531 8.743-1.468l12.487-39.682-6.393.893c-4.012.435-4.736 2.04-6.022 4.447m18.663-25.285 12.431-40.189 25.629-4.156-37.449 119.052-36.57 5.886c-9.203 1.595-19.545 0-19.366-12.482.919-11.663 10.888-42.51 16.277-52.161 3.543-8.003 13.247-11.835 18.77-12.613l20.278-3.335z"/><path d="m288.217 144.022c-2.349 6.21-4.147 5.069-12.343 6.606l-36.256 6.052-42.499 138.373-32.893 5.408 42.926-138.498-43.544 7.456 7.869-25.855c2.798-9.177 2.6-8.37 15.402-10.419l111.102-17.679-9.763 28.558z"/><path d="m241.551 185.163c6.076 5.81 16.882 5.432 24.121-.899 7.269-6.311 8.259-16.151 2.189-21.979-6.069-5.843-16.876-5.436-24.135.879-7.269 6.312-8.225 16.17-2.175 21.998"/><path d="m261.162 191.596-24.942 79.026-24.676 4.001 24.889-78.94 24.729-4.088z"/></g></svg>