<svg clip-rule="evenodd" fill-rule="evenodd" stroke-linejoin="round" stroke-miterlimit="1.41421" viewBox="0 0 560 400" xmlns="http://www.w3.org/2000/svg"><g fill-rule="nonzero" transform="matrix(.756939 0 0 .756939 100 133.049)"><path d="m375.3 113.8c-74.5.4-162.9 18.9-205.1 31.5 1.7 8.3 16.3 3.7 23.8 2.1 151.5-34.1 241.1-19 250.3-6 5.3-2.6 9.4-7 9.4-11.3-.2-12.2-36.4-16.5-78.4-16.3" fill="#6c0734"/><g fill="#f9b234"><path d="m182 104.1c3.3 8.6 10.5 10.2 15.1 10.2 11.6 0 19.9-8.6 24.7-16.7-1.5 9 1.2 12.1 5.1 12.1 2.9 0 6.3-1.4 8.4-2.7-.7-2.7-1-5.6-1-8.6 0-12.6 4.7-25.4 12.5-25.4 1.6 0 3.5.6 5.5 2 3.5-10.1 1.1-15-4.1-15-4.3 0-8.4 3.9-10.7 10.4-.4-4.7-4-13.2-16-4.4 1.9 2.1 2.7 4.9 2.8 9.8 0 11.5-12.3 29.7-24.1 29.7-5.7 0-6.7-7.1-6.7-12.7 0-10.5 4.7-17.9 8-17.9 1.5 0 2.7 1.7 2.7 4.3 0 5.2-3.9 9.4-7.9 11.5 0 2.3.5 5.2 3.5 5.2 6.4 0 14.8-8.8 14.8-17.7 0-7.5-5.4-11.4-11.9-11.4-12.4 0-22.6 12.9-22.6 27.3-.8 5.7-5.6 12.9-10.9 16.6 1.6-3.6 3.7-10.8 3.7-18.2 0-10.4-3.8-18.7-10.7-18.7-5.4 0-9.5 2.7-12.9 7.5-2.1-4.2-8.6-4.5-13.9-1.4 3.2 6 1.5 17.1.3 25.8-.8 5.7-5.8 11.3-11.2 15 1.6-3.6 3.7-10.8 3.7-18.2 0-10.4-3.8-18.7-10.7-18.7-5.4 0-9.5 2.7-12.9 7.5-2.1-4.2-8.6-4.5-13.9-1.4 3.7 6.9.9 20.4-.2 29.4-.8 6.5-5.8 10.4-8.3 10.5-3.5 0-4.4-5.4-3.8-11.9 1-16.8 5.2-47 5.2-56 0-8.6-2.4-13.2-7.6-14.8-4.4-1.3-9.5 1.5-11.2 2.8 2 1.5 2.9 6.7 2.9 13.7 0 15.5-3 37.4-5 52.9-1.1 8.9-8.1 19.1-14.6 19.1-4.2 0-7-4.9-5.2-20.1 1-8.6 2.8-25.7 3.6-36.4 1-12.2-.5-24.1-15.5-24.1-18.5-.1-31 17.8-31 31.8 0 12.4 6.5 16.3 11.8 16.3 6.3 0 11.1-5.5 11.4-10.4-7.2 2.9-10.8-2.6-10.8-9.4 0-10 6.8-18.4 14-18.4 2.9 0 6.3 2.3 5.6 9.3-1.1 11.5-3.5 34.7-4.8 47.4-1.4 13.6-2.1 29.9 13.9 29.9 12.8 0 21.2-13.1 23.8-18.6 1.5 4.4 4.3 8 9 8.3 3.6.2 9.9-1.1 15.1-7.1-1.4 11.7-2.8 23.7-3.3 28.9-1.1 10.5 1.4 13.9 5.5 13.9 2.9 0 8.2-1.3 9.5-2.4-4.3-2.7 1-45.9 3.6-65.1.9-8 3.6-13 6.5-13 3.3 0 4.5 4.6 4.5 10.3 0 9.6-4.1 15.9-10.2 18.2 0 3.3 1.9 6.8 7.5 6.8 8.4 0 17-6.3 21.8-12.3-1.5 13.1-3.3 27.7-3.9 33.5-1.1 10.5 1.4 13.9 5.5 13.9 2.9 0 8.2-1.3 9.5-2.4-4.2-2.7 1-45.9 3.6-65.1.9-8 3.6-13 6.5-13 3.3 0 4.5 4.6 4.5 10.3 0 9.6-4.1 15.9-10.2 18.2 0 3.3 1.9 6.8 7.5 6.8 9.7-.2 20.6-10.5 24.6-17.5"/><path d="m475.6 47c-6.8.9-14.2-1.3-21.9-4.2 1.2-8.1 2.4-16.6 5.6-22.6-.8-1.2-2.6-2.4-5.5-2.3-9.4.4-11.1 9.5-12.2 20-8.6-3.4-17.3-6.3-25.8-6-12.7.5-17.6 8.6-14.3 13.5 3-2.6 8.3-3.9 12.9-4 8.3-.3 17.5 2.5 26.1 5.5-1.7 12.7-5.6 30.3-12.9 37 .1-1.3.1-2.7 0-4-1-9.6-10-13.8-12.5-17.6-2-3-.4-5.9 2.6-6 3.7-.1 6.8 3 8.3 6.5 2.6-2.6 3.8-5.5 3.8-7.7-.1-5.6-7.6-8.3-14.1-8-9.4.4-14.5 7.7-14.2 14.3.5 11.6 12.5 15.4 14.6 20.8 1.2 3.1-1.1 5.5-3.9 5.8-3.8.5-7.7-2-10.9-6.1-1.4-1.7-2.7-1.4-3.8-.1-2.5 3-4.4 4.1-5.7 4.1-1.5 0-2.5-1.4-2.5-3.6 0-7.8 3.2-18.7 3.2-25.2 0-6.7-3-8.9-6.7-8.9-2.4 0-5.8 1.3-7.5 2.7.6 2.1.7 4.9.7 7.8 0 15.3-4.6 25.8-9.5 25.2-4.1-.5-2.2-9.4-.5-20 1.9-11.3-1.3-15.2-6-15.2-2.5 0-5.4 1.1-8.3 2.8 1.4 1.6 2 4.8 1.8 8-.3 5-4.3 11.3-6.9 11.3-2.7 0-1.2-6.7-1.2-10.6 0-6.9-2-10.4-6.4-10.4s-8.2 4.1-10.2 8.4c-.3-3.7-1.8-6.8-5.1-6.9-4.3 0-6.6 2-9.6 5 1.6 1.5 2.8 3.1 2.8 7.4-.8 18.1-18.2 26.8-26.2 26.8-12.7 0-15-15-15-30.4 0-26 15.8-52.1 28.7-52.1 6 0 8 4.1 8 7.8 0 12.3-11.6 18.1-20.2 17.7 4.1 6.2 8.6 8.5 13 8.5 10.3 0 19.7-14.2 18.7-26.1-.8-8.6-7.1-15.9-18-15.9-29.7 0-47.6 39.2-47.6 65.1 0 24.8 11.1 38 26.2 38 10.4 0 21.5-4.7 30.8-20.3-3.1 11.3.4 15.6 5.1 15.6 2.4 0 5.3-1 8.3-2.5-.9-3.1-1.2-6.4-1.2-9.6 0-11.8 2.2-24.9 6.6-24.9 1.9 0 .8 5.4.8 9.7 0 5.4 1.4 8.7 5.7 8.7 3.1 0 7.9-2.2 11.6-7.9-1.6 11.7-2.5 23.4 6.9 24.3 4.4.4 10.1-2.2 15.4-10.5.4 5.8 3.4 10 8.4 10 3 0 8.3-1.9 12.1-6.4 2.4 3.5 6.9 7.4 13.6 7.4 11.3 0 21-7.3 26.3-18 .6 11 4.6 19.5 16.2 19 13.6-.5 16.7-12.2 16.5-17.4-.2-5.3-2.9-10.6-7.7-11.2 2.2 13.2-2 21.4-7 21.6-4.4.2-5.2-6.5-5.4-12-.3-8.2.8-18.2 2.1-27.6 10.4 3.2 19 4.2 23-4.1"/></g></g></svg>