<?xml version="1.0" encoding="UTF-8" standalone="no"?>
<!DOCTYPE svg PUBLIC "-//W3C//DTD SVG 1.1//EN" "http://www.w3.org/Graphics/SVG/1.1/DTD/svg11.dtd">
<svg width="100%" height="100%" viewBox="0 0 560 400" version="1.1" xmlns="http://www.w3.org/2000/svg" xmlns:xlink="http://www.w3.org/1999/xlink" xml:space="preserve" xmlns:serif="http://www.serif.com/" style="fill-rule:evenodd;clip-rule:evenodd;stroke-linejoin:round;stroke-miterlimit:1.41421;">
    <g transform="matrix(0.298962,0,0,0.298962,124.232,44.3122)">
        <g>
            <path d="M252.279,591.176L286.737,614.25L272.234,653.556C232.934,775.307 387.154,886.23 490.339,810.769L521.444,786.135L552.548,810.769C655.733,886.23 809.954,775.307 770.653,653.556L756.152,614.25L756.125,614.178L756.151,614.25L756.152,614.25L790.608,591.176C893.968,515.589 834.777,335.43 707.019,335.43L666.831,337.029L655.961,298.247C616.659,176.49 426.231,176.491 386.928,298.247L376.057,337.029L335.868,335.43C208.111,335.43 148.92,515.589 252.279,591.176Z" style="fill:rgb(190,10,47);fill-rule:nonzero;"/>
            <path d="M276.865,557.637L420.033,655.586L407.313,694.993L321.964,637.84L311.799,666.256C284.058,752.197 392.918,830.495 465.754,777.229L601.739,671.58L635.197,696.047L554.699,759.799L577.133,777.229C649.969,830.495 758.83,752.197 731.089,666.256L672.479,502.402L705.877,477.979L741.464,574.438L741.802,574.207L766.023,557.637C838.981,504.281 797.201,377.11 707.019,377.11L678.308,377.976L636.236,379.244L534.641,382.308L521.886,342.796L624.462,338.715L616.396,310.947C588.654,225.001 454.235,225.002 426.492,310.947L378.211,477.142L336.783,477.142L364.58,377.976L335.868,377.11C245.687,377.11 203.906,504.281 276.865,557.637Z" style="fill:white;fill-rule:nonzero;"/>
            <path d="M427.925,477.142L477.635,477.142L521.444,341.426L521.886,342.796L573.618,340.738L568.921,326.187C555.05,283.214 487.839,283.215 473.968,326.187L430.158,461.904C428.527,466.958 427.828,472.088 427.925,477.142ZM306.366,517.389L435.297,608.302L450.56,561.018L335.868,477.142L336.783,477.142L350.734,427.372L335.868,427.125C290.778,427.125 269.887,490.712 306.366,517.389ZM359.274,681.496C345.404,724.466 399.834,763.615 436.252,736.982L561.592,642.219L521.444,612.858L406.751,696.735L407.313,694.993L364.469,666.303L359.274,681.496ZM592.327,561.018L636.136,696.735L635.197,696.047L594.805,728.037L606.635,736.982C643.053,763.615 697.484,724.466 683.613,681.496L632.403,531.71L592.327,561.018ZM549.946,429.725L565.252,477.142L705.568,477.142L705.877,477.979L723.741,526.401L736.521,517.389C773,490.712 752.109,427.125 707.019,427.125L549.946,429.725Z" style="fill:rgb(0,39,104);fill-rule:nonzero;"/>
        </g>
        <g transform="matrix(0.001,0,0,0.001,0,0)">
            <g>
                <path d="M190035,792683L198325,801571L188158,822474L207987,843738L229218,834701L237006,843053L164656,872246L157094,864138L190035,792683ZM183931,831043L168309,861569L199303,847528L183931,831043ZM146518,728226L152003,737005L103663,767212L162490,753788L167514,761796L128894,809069L177890,778433L183376,787212L121618,825803L113517,812839L153787,764181L92083,778538L84759,766817L146518,728226ZM119144,669809L141380,719750L74852,749370L53294,700953L62129,697018L79333,735659L98250,727237L82138,691049L90926,687136L107037,723324L128193,713905L110311,673742L119144,669809ZM99478,597718L102935,610686L90789,623970C89055,625815 87556,627494 86274,629026C84990,630546 83929,631865 83090,632987C82251,634109 81545,635145 80995,636121C80445,637096 80043,637981 79785,638758C79511,639538 79346,640274 79241,640975C79136,641676 79079,642433 79056,643251C79118,643803 79215,644486 79366,645307C79517,646131 79749,647122 80060,648281L82739,658282L113498,650040L116267,660378L45925,679226L37553,647984C35897,641802 35253,636882 35624,633244C35995,629606 37550,626324 40271,623404C42921,620605 46249,618661 50244,617591C55300,616236 60024,616729 64394,619062C68292,621177 71572,625044 74209,630638C74671,628685 75230,627102 75872,625894C77676,622512 80082,619122 83102,615706L99478,597718ZM53074,628153C50013,628973 47787,630778 46383,633589C44979,636400 44947,640274 46280,645250L51980,666524L73672,660711L68564,641643C67476,637585 66207,634525 64748,632430C63310,630347 61508,628966 59349,628319C57206,627668 55120,627605 53074,628153ZM96974,576552L98278,587175L25997,596050L24693,585427L96974,576552ZM69013,503874C77353,505879 83668,509488 87945,514698C92220,519927 94417,526307 94549,533859C94684,541610 93194,547990 90064,553013C86951,558037 82366,561918 76327,564658C73299,565996 70199,566983 67025,567655C63870,568328 60507,568703 56956,568765C49405,568897 42779,567579 37077,564809C31394,562041 27020,557999 24010,552650C20982,547316 19412,541441 19299,535023C19236,531354 19627,527980 20490,524947C21355,521897 22707,519090 24545,516522C28111,511508 33483,507862 40663,505586L43298,516045C37960,517889 34135,520374 31854,523481C30780,525000 29960,526733 29411,528677C28861,530621 28599,532743 28639,535060C28731,540377 30092,544806 32706,548378C35319,551951 38814,554424 43190,555816C47550,557208 52064,557862 56715,557781C62748,557676 67952,556717 72340,554924C76743,553113 80013,550387 82134,546715C84271,543043 85302,539073 85227,534806C85138,529672 83595,525347 80582,521847C77570,518348 72876,515929 66465,514607L69013,503874ZM102169,431715L100478,443751L77835,449004L73788,477797L94173,488610L92583,499919L24364,462063L25908,451084L102169,431715ZM68515,451112L34961,458182L65378,473434L68515,451112ZM120431,367931L117494,378171L54609,398295L107384,413429L104543,423333L34541,403260L37473,393035L100379,372898L47588,357761L50427,347858L120431,367931ZM194244,243835L186342,254682L168374,253603C165849,253417 163601,253307 161603,253278C159615,253234 157920,253241 156521,253294C155121,253348 153873,253452 152768,253639C151663,253825 150724,254069 149957,254357C149179,254636 148503,254971 147892,255330C147280,255690 146656,256121 146006,256620C145616,257015 145147,257519 144603,258154C144059,258789 143434,259594 142729,260565L136643,268940L162405,287658L156114,296317L97198,253512L116209,227344C119972,222166 123389,218569 126450,216568C129512,214568 133039,213711 137022,213986C140866,214285 144470,215649 147816,218079C152052,221156 154639,225137 155577,230001C156387,234362 155445,239344 152758,244914C154567,244043 156148,243483 157491,243222C161256,242495 165404,242232 169958,242429L194244,243835ZM141388,226926C138824,225064 136022,224470 132953,225147C129885,225824 126853,228237 123826,232404L110881,250222L129048,263423L140652,247453C143121,244054 144701,241141 145411,238690C146124,236262 146064,233991 145209,231907C144366,229831 143101,228170 141388,226926ZM239392,199870L199410,237153L149744,183893L188506,147747L195101,154819L164168,183666L178290,198809L207260,171793L213821,178829L184850,205845L200644,222781L232798,192798L239392,199870ZM256040,96178L274444,172194L265772,178267L200866,134812L210385,128146L255815,160326C257370,161415 258782,162442 260057,163421C260895,164036 262191,165041 263976,166458C262837,163205 261865,159897 261048,156579L246999,102509L256040,96178ZM342029,91632C345345,98137 346990,104672 346981,111262C346977,117831 345226,123721 341723,128892C339969,131470 337958,133768 335699,135760C333454,137746 330873,139473 328005,140934C321916,144037 315714,145345 309417,144847C303112,144337 297415,142188 292323,138364C287239,134555 283228,129769 280299,124020C274849,113324 273447,103448 276101,94406C278739,85371 284666,78496 293860,73812C299922,70723 306048,69380 312234,69802C318424,70202 324123,72352 329326,76211C334538,80087 338767,85230 342029,91632ZM332217,96574C329636,91509 326512,87506 322866,84575C319227,81657 315218,79995 310846,79603C306481,79225 302252,80071 298168,82153C292300,85142 288300,89706 286162,95828C284032,101965 285350,109734 290156,119165C293987,126682 299020,131566 305254,133852C311507,136131 317661,135726 323722,132638C329903,129489 333900,124703 335685,118291C337485,111872 336327,104641 332217,96574ZM414274,106422L370560,120626L348056,51366L358234,48059L377751,108122L411287,97226L414274,106422ZM478488,63134C479739,70226 479935,76050 479060,80588C478188,85143 475849,89162 472011,92648C468174,96136 462799,98488 455871,99710C449171,100891 443484,100709 438791,99150C434097,97590 430430,94750 427791,90628C425151,86506 423156,80661 421826,73124L414543,31814L425083,29955L432358,71217C433444,77373 434790,81742 436378,84305C437963,86870 440245,88669 443201,89689C446159,90724 449543,90906 453368,90231C459969,89067 464448,86721 466791,83208C467937,81449 468615,79061 468813,76047C469012,73049 468715,69343 467939,64944L460663,23682L471204,21823L478488,63134ZM553564,30683L529876,30270L528774,93414L518071,93227L519173,30083L495586,29672L495755,20002L553732,21014L553564,30683ZM576465,96824L565842,95519L574716,23237L585340,24542L576465,96824ZM665939,78482C664296,85596 661356,91659 657113,96702C652889,101733 647761,105119 641753,106828C638752,107675 635735,108142 632724,108218C629728,108296 626641,107959 623505,107235C616845,105698 611255,102713 606750,98285C602249,93841 599266,88532 597822,82330C596376,76144 596381,69900 597832,63613C600533,51917 605806,43450 613651,38229C621479,33003 630439,31548 640494,33868C647122,35400 652678,38308 657144,42607C661630,46893 664615,52201 666119,58505C667621,64822 667556,71481 665939,78482ZM655245,75961C656523,70421 656703,65347 655794,60758C654883,56183 652880,52333 649783,49223C646681,46127 642898,44057 638432,43026C632014,41544 626017,42471 620444,45785C614867,49118 610885,55916 608503,66230C606605,74450 607321,81426 610630,87186C613953,92951 618928,96597 625556,98127C632314,99687 638453,98590 643943,94826C649447,91066 653208,84782 655245,75961ZM721822,141886L712089,137554L700912,72480L678582,122635L669170,118445L698790,51917L708507,56243L719693,121339L742030,71168L751442,75358L721822,141886ZM843766,206206C841570,208824 838950,210806 835908,212148C832877,213478 830005,214074 827308,213943C824597,213800 821733,212986 818692,211500C815664,210026 812443,207846 809033,204985L787666,187057L834476,131270L855499,148909C859790,152510 862730,155957 864308,159239C865167,160939 865754,162651 866044,164353C866324,166069 866337,167842 866050,169690C865526,173298 864176,176410 861980,179027C859954,181441 857384,183180 854295,184245C851544,185136 848576,185301 845391,184740C847390,188245 848312,191739 848179,195241C848042,199217 846575,202860 843766,206206ZM853215,173132C854641,171433 855486,169596 855763,167631C856038,165642 855627,163773 854526,162000C853424,160227 850892,157667 846933,154345L836460,145557L823333,161202L834699,170741C836270,172059 837666,173144 838863,173974C840073,174814 841108,175423 842004,175782C844172,176752 846194,177013 848082,176551C849972,176090 851682,174958 853215,173132ZM835312,199111C836876,197247 837772,195170 837997,192878C838211,190598 837676,188408 836393,186308C835120,184218 832748,181727 829313,178844L817116,168610L802080,186529L815249,197578C817585,199539 819259,200813 820281,201386C821288,201948 822202,202389 823023,202708C823855,203014 824688,203214 825559,203292C827131,203543 828793,203328 830556,202652C831470,202265 832305,201812 833063,201274C833808,200723 834561,200006 835312,199111ZM846097,242904L839076,234826L894037,187049L901059,195126L846097,242904ZM913389,292533C905407,295675 898164,296341 891672,294525C885170,292695 879712,288728 875272,282617C870716,276346 868276,270266 867960,264355C867629,258455 869158,252646 872532,246937C874245,244105 876219,241517 878432,239147C880633,236786 883171,234550 886045,232462C892155,228023 898338,225303 904597,224301C910841,223308 916742,224112 922277,226766C927816,229399 932472,233311 936244,238503C938402,241471 940016,244460 941048,247440C942089,250435 942593,253510 942559,256667C942515,262820 940206,268887 935629,274870L927472,267815C930786,263242 932496,259013 932581,255159C932589,253299 932268,251409 931602,249500C930937,247594 929935,245704 928573,243830C925447,239528 921793,236680 917603,235253C913414,233826 909132,233804 904749,235175C900379,236535 896306,238587 892543,241321C887661,244869 883949,248638 881382,252624C878815,256633 877699,260742 878067,264966C878423,269200 879856,273044 882364,276496C885383,280650 889127,283308 893602,284446C898077,285586 903310,284874 909319,282281L913389,292533ZM922239,368419L899135,318873L965136,288097L987536,336131L978771,340218L960896,301884L942129,310635L958870,346535L950152,350601L933411,314700L912422,324487L931002,364332L922239,368419ZM942497,437667L939560,427427L982224,377037L929450,392169L926609,382265L996613,362191L999545,372417L956868,422828L1.00966e+06,407690L1.0125e+06,417594L942497,437667ZM1.01319e+06,496113L1.00989e+06,472653L947353,481442L945863,470841L1.0084e+06,462052L1.00512e+06,438691L1.0147e+06,437345L1.02277e+06,494768L1.01319e+06,496113ZM948179,570226L949133,515568L1.02195e+06,516839L1.02102e+06,569831L1.01135e+06,569662L1.01209e+06,527372L991387,527010L990695,566617L981077,566449L981768,526842L958613,526438L957847,570395L948179,570226ZM933226,641577L935622,631197L997367,607808L943873,595458L946191,585419L1.01715e+06,601800L1.01476e+06,612165L952990,635566L1.0065e+06,647921L1.00418e+06,657958L933226,641577ZM906459,710974L910277,701028L974676,686462L923422,666786L927114,657167L995101,683265L991290,693195L926867,707773L978139,727454L974446,737072L906459,710974ZM893503,732152L898692,722791L962386,758097L957197,767458L893503,732152ZM846467,801563L853438,791606L875997,797205L892675,773388L879421,754500L885971,745145L929569,809846L923210,818927L846467,801563ZM885259,799558L918365,808492L898188,781094L885259,799558ZM806964,839537L840028,807607L890616,859993L882917,867428L839046,821998L813681,846492L806964,839537Z" style="fill-rule:nonzero;"/>
                <path d="M309582,975035L300576,970642L324812,920953C322202,921627 319201,922112 315811,922369C311974,922667 308216,922653 304574,922323L308857,913542C314547,913627 319692,913004 324311,911674C328928,910348 332705,908572 335628,906380L341638,909311L309582,975035ZM395388,939933C389405,943073 382996,947708 376135,953810C372847,956751 369716,959904 366699,963291C363696,966683 360905,970183 358360,973785C356247,976743 354492,979437 353087,981879C351176,985224 349672,988514 348559,991747L338960,988441C339986,985463 341303,982459 342898,979464C344509,976475 346539,973136 349001,969470C351276,966091 353744,962815 356432,959669C359126,956504 362045,953454 365196,950501C371134,944982 376809,940640 382222,937515L349748,926333L352897,917191L397886,932681L395388,939933ZM453053,953621C447432,957369 441541,962649 435356,969435C432394,972704 429609,976167 426961,979851C424330,983538 421920,987309 419765,991159C417974,994321 416509,997183 415367,999760C413817,1.00329e+06 412665,1.00672e+06 411896,1.01005e+06L402005,1.00776e+06C402712,1.00469e+06 403708,1.00157e+06 404981,998422C406271,995282 407942,991748 410007,987846C411916,984247 414028,980731 416372,977320C418722,973892 421305,970553 424130,967288C429459,961177 434648,956267 439706,952593L406242,944867L408417,935445L454778,946149L453053,953621ZM506615,998018C506299,1.00254e+06 505023,1.0067e+06 502786,1.01049e+06C500549,1.01427e+06 497608,1.01713e+06 493964,1.01904e+06C490320,1.02096e+06 486287,1.02177e+06 481863,1.02146e+06C474361,1.02093e+06 468435,1.01774e+06 464081,1.01189e+06C461928,1.00897e+06 460434,1.00524e+06 459565,1.00071e+06C458712,996173 458507,990744 458950,984406C459925,970470 463213,960487 468833,954446C473797,949178 480146,946814 487880,947355C493668,947759 498277,949719 501727,953220C503462,954912 504823,956963 505791,959387C506776,961796 507350,964578 507513,967731L497616,967775C496977,964002 496042,961364 494844,959842C492766,957307 490071,955931 486762,955700C484167,955518 481770,956103 479587,957454C476892,959188 474596,961902 472700,965597C471839,967392 471093,969445 470496,971778C469882,974107 469479,976754 469269,979748C471359,977353 473771,975600 476490,974485C479695,973107 483045,972537 486553,972783C492590,973205 497542,975774 501425,980474C503410,982904 504830,985559 505697,988443C506549,991329 506859,994526 506615,998018ZM496398,997855C496729,993133 495726,989319 493391,986381C491039,983442 487975,981841 484166,981574C480408,981312 477103,982451 474268,984994C471432,987536 469851,991034 469541,995476C469336,998403 469757,1.00122e+06 470785,1.00397e+06C471814,1.0067e+06 473402,1.00885e+06 475547,1.01042e+06C477694,1.01199e+06 479941,1.01285e+06 482319,1.01302e+06C485828,1.01326e+06 488956,1.01203e+06 491737,1.00931e+06C494499,1.00662e+06 496054,1.00278e+06 496398,997855ZM547772,999901L519535,1.00039e+06L519359,990327L547596,989833L547772,999901ZM588995,1.01841e+06L579030,1.01946e+06L573251,964474C571395,966430 569108,968430 566368,970445C563272,972731 560079,974710 556814,976362L555793,966645C560663,963701 564697,960445 567910,956872C571121,953299 573385,949791 574702,946384L581351,945686L588995,1.01841e+06ZM649340,966676C651398,975594 652077,982983 651373,988826C650670,994670 648665,999479 645373,1.00323e+06C642086,1.007e+06 637804,1.0095e+06 632540,1.01071e+06C626985,1.012e+06 622039,1.01148e+06 617709,1.00918e+06C615554,1.008e+06 613703,1.00642e+06 612112,1.00443e+06C610539,1.00243e+06 609193,999933 608054,996929L617169,993866C618844,997791 620825,1.00036e+06 623092,1.00159e+06C625363,1.00282e+06 627942,1.0031e+06 630833,1.00243e+06C633334,1.00185e+06 635392,1.00076e+06 636991,999163C637884,998289 638620,997400 639202,996513C639784,995626 640255,994627 640619,993534C640979,992424 641278,991123 641492,989601C641705,988082 641860,986454 641923,984729C642005,981151 641630,977610 640825,974118C640787,973955 640749,973793 640716,973647C640797,973850 640879,974053 640956,974241C640671,975008 640096,975997 639224,977190C638216,978603 637090,979874 635851,981032C633206,983439 630107,985062 626550,985883C620654,987244 615152,986239 610030,982887C604908,979517 601539,974340 599926,967356C598265,960159 599068,953847 602312,948411C605576,942986 610424,939522 616872,938033C619276,937479 621587,937253 623784,937362C625966,937474 628198,937952 630483,938811C634895,940427 638644,943325 641727,947490C644811,951655 647348,958050 649340,966676ZM636185,958540C635079,953748 632942,950271 629786,948091C626630,945910 623307,945224 619813,946031C616224,946859 613417,949081 611374,952684C609336,956304 608870,960517 609984,965342C610982,969663 613068,972843 616231,974901C619391,976961 622867,977561 626635,976691C630389,975825 633183,973777 635041,970559C636915,967337 637292,963331 636185,958540ZM694448,922557C691883,928808 689953,936480 688619,945563C687992,949930 687620,954358 687485,958892C687366,963420 687475,967895 687842,972291C688125,975915 688512,979106 689005,981882C689693,985671 690656,989158 691880,992349L682402,995988C681273,993047 680351,989899 679648,986580C678960,983256 678370,979392 677899,975001C677469,970950 677254,966854 677291,962717C677322,958561 677596,954347 678112,950061C679113,942015 680669,935042 682807,929167L650744,941476L647279,932448L691700,915397L694448,922557ZM762932,934300C764920,938375 765893,942611 765849,947010C765806,951410 764685,955350 762489,958833C760292,962316 757200,965030 753215,966974C746456,970270 739730,970472 733032,967580C729706,966123 726546,963638 723532,960155C720524,956652 717632,952054 714847,946344C708722,933786 706579,923497 708427,915455C710091,908411 714407,903189 721376,899791C726591,897247 731561,896640 736299,897948C738649,898545 740852,899640 742902,901256C744960,902850 746848,904971 748566,907621L740017,912607C737577,909659 735448,907842 733650,907122C730583,905967 727562,906123 724580,907577C722242,908717 720458,910422 719243,912683C717776,915533 717145,919031 717350,923180C717502,925163 717883,927315 718532,929633C719165,931958 720139,934452 721455,937149C722067,934030 723279,931306 725077,928982C727163,926184 729778,924017 732940,922475C738379,919823 743953,919571 749665,921700C752600,922811 755157,924402 757351,926467C759529,928539 761397,931152 762932,934300ZM754002,939266C751928,935011 749151,932210 745660,930832C742154,929464 738701,929608 735269,931282C731883,932934 729590,935573 728405,939192C727222,942812 727602,946633 729554,950634C730840,953272 732615,955504 734878,957368C737134,959217 739583,960285 742228,960572C744872,960859 747248,960480 749391,959435C752551,957893 754643,955259 755694,951519C756737,947802 756166,943702 754002,939266Z" style="fill-rule:nonzero;"/>
            </g>
        </g>
    </g>
</svg>
