<svg clip-rule="evenodd" fill-rule="evenodd" viewBox="0 0 560 400" xmlns="http://www.w3.org/2000/svg" xmlns:xlink="http://www.w3.org/1999/xlink"><clipPath id="a"><path clip-rule="evenodd" d="m0 0h560v400h-560z"/></clipPath><path d="m0 0h560v400h-560z" fill="none"/><g clip-path="url(#a)"><path d="m175 95h210v210h-210z" fill="#ca1932"/><g fill="#fff"><path d="m192.85 161.15v-4.247h15.517v4.247h-4.386l5.506 19.656 6.67-23.856h6.981l6.743 24.145 5.386-19.945h-4.617v-4.2h40.483v10.92h-3.5c-.901-3.258-1.235-6.72-5.833-6.72h-7.7v10.01h9.567c.849 1.318.781 3.586 0 4.737h-9.567v10.243h8.719c3.666 0 4.437-3.502 5.281-7.21h3.5v11.503h-28.7v-4.293h4.083v-24.99h-6.5l-8.388 29.283h-6.695l-6.743-24.104-6.885 24.104h-6.743l-8.377-29.283z"/><path d="m275.044 161.15v-4.2h15.765v4.2h-4.559v24.99h7.073c3.666 0 4.437-3.502 5.281-7.21h3.5v11.503h-27.054v-4.293h4.083v-24.99z"/><path d="m305.09 161.15v-4.2h15.765v4.2h-4.559v24.99h7.073c3.666 0 4.437-3.502 5.281-7.21h3.5v11.503h-27.054v-4.293h4.083v-24.99z"/><path d="m198.106 207.467v4.2h4.052v25.06h-4.083v4.223h16.125v-4.223h-4.925v-9.66h9.863c.782-1.151.849-3.42 0-4.737h-9.863v-10.663h8.288c4.598 0 4.932 3.462 5.834 6.72h3.5v-10.92zm39.056 0-11.683 29.26h-3.346v4.223h12.787v-4.223h-4.039l2.219-5.881h12.233l2.186 5.881h-3.849v4.223h30.03v-4.223h-4.504v-10.034h2.871c5.238 0 6.747 2.418 7.11 7.343.428 4.859 2.123 7.349 7.777 7.349 1.635 0 3.495-.204 3.495-.204.443-1.058.752-2.451-.022-3.982-3.758.404-3.864-2.28-4.043-5.185-.18-4.67-2.885-6.82-6.822-7.183 5.165-.104 8.986-3.723 8.986-8.301 0-5.968-5.144-9.063-11.115-9.063h-19.529v4.316h4.129v24.944h-6.502l-12.003-29.26zm32.034 4.316h4.971c4.75 0 7.032 1.598 7.032 5.366 0 3.796-3.316 5.251-6.313 5.251h-5.69zm-30.006 2.522 4.643 12.482h-9.286z"/><path d="m335.3 188.238v-9.401h3.583c1.168 5.301 3.506 8.116 9.741 8.116 4.2 0 6.887-1.363 6.887-4.801 0-8.571-20.232-1.888-20.232-15.91 0-6.303 5.344-10.293 13.438-10.293 6.953 0 12.18 2.984 12.18 2.984v8.33h-3.565c-.891-5.057-3.607-6.933-8.313-6.933-4.101 0-6.575 1.808-6.575 4.552 0 8.141 20.299 1.608 20.299 16.177 0 4.666-3.134 10.271-13.627 10.271-8.956 0-13.816-3.092-13.816-3.092z"/><path d="m310.051 241.983c-11.244 0-17.65-7.627-17.65-17.604 0-9.648 5.988-17.946 17.779-17.946 6.941 0 12.59 3.035 12.59 3.035v8.545h-3.57c-1.354-3.795-3.335-7.105-8.823-7.105-7.427 0-9.971 6.277-9.971 13.416 0 7.528 3.102 13.256 10.452 13.256 3.005 0 5.542-1.18 5.542-1.18v-8.26h-5.707c-.797-1.839-.569-3.591 0-4.713h12.824v14.844s-6.098 3.712-13.466 3.712z"/><path d="m346.093 206.446c-10.037 0-17.8 6.799-17.8 17.909 0 10.598 7.672 17.637 17.755 17.637 10.73 0 17.814-7.683 17.814-17.732 0-10.783-7.831-17.814-17.769-17.814zm-.118 4.499c6.245 0 9.944 4.639 9.944 13.232 0 8.487-3.436 13.343-9.824 13.343-6.57 0-9.882-5.11-9.882-13.153 0-7.859 2.948-13.422 9.762-13.422z"/></g></g></svg>