<svg clip-rule="evenodd" fill-rule="evenodd" stroke-linejoin="round" stroke-miterlimit="1.41421" viewBox="0 0 560 400" xmlns="http://www.w3.org/2000/svg"><g fill-rule="nonzero" transform="matrix(.739727 0 0 .739727 145 64.8802)"><path d="m134.616 109.436c-1.469-1.559-1.741-3.892-.672-5.747l.74-.968 99.391-99.55c3.801-3.796 9.946-3.796 13.748 0l.274.279c29.158 31.537 50.179 69.727 61.207 111.233v.011l-60.16 67.969-89.467-28.021c-4.564-16.878-13.168-32.391-25.061-45.206z" fill="#38a6de"/><path d="m356.935 112.293c-1.23-5.213-6.454-8.434-11.666-7.204l-.286.068-185.317 49.508c4.928 18.449 4.939 37.876.034 56.336l61.811 77.005 87.964-36.739 35.463 9.526c5.166 1.4 10.494-1.651 11.893-6.828l.068-.284c10.789-46.515 10.801-94.873.036-141.388z" fill="#2c76bc"/><path d="m159.7 211.001c-4.507 16.833-13.021 32.334-24.822 45.16-1.833 1.9-1.799 4.929.079 6.795l99.346 99.197c3.801 3.801 9.947 3.79 13.736 0l.251-.261c29.09-31.344 50.1-69.323 61.195-110.625z" fill="#0e59a7"/><path d="m159.591 77.774h-.244l-24.663 24.697 13.031-13.043h.24z" fill="#e5e5e5"/><path d="m194.241 77.774h-34.65l-11.636 11.654h34.631c8.571.023 15.514 6.965 15.536 15.535v39.428l11.654-3.114v-47.968c-.022-8.569-6.964-15.512-15.535-15.535z" fill="#2297d3"/><path d="m209.776 141.277-11.654 3.114v76.939l11.654 3.133z" fill="#1a6cb6"/><path d="m198.122 221.33v73.993c-.004 1.196-.142 2.361-.401 3.482 6.894-1.594 12.036-7.762 12.055-15.136v-59.206z" fill="#075096"/><path d="m159.83 287.551h-.004l23.33 23.297c7.146-.284 13.015-5.352 14.565-12.043-1.118.257-2.283.396-3.48.399h-22.74z" fill="#154885"/><path d="m198.122 272.015c-.022 8.57-6.965 15.512-15.536 15.536h-22.756l11.671 11.653h22.74c1.197-.003 2.362-.142 3.48-.399.259-1.121.397-2.286.401-3.482z" fill="#194176"/><path d="m182.586 89.428h-11.653c8.569.023 15.511 6.965 15.535 15.535v42.541l11.654-3.113v-39.428c-.022-8.57-6.965-15.512-15.536-15.535z" fill="#136287"/><path d="m198.122 144.391-11.654 3.113v70.693l11.654 3.133z" fill="#104679"/><path d="m186.468 218.197v53.818c-.024 8.57-6.966 15.512-15.535 15.536h-11.103 22.756c8.571-.024 15.514-6.966 15.536-15.536v-50.685z" fill="#18345f"/><path d="m134.957 262.717 24.868 24.834h.001z" fill="#1b3a6a"/><path d="m134.957 262.717 24.869 24.834h.004z" fill="#152e55"/><path d="m147.955 89.428h-.24l-13.031 13.043-.74.967c-.434.754-.647 1.586-.649 2.413 0 .045.001.09.002.135.02-.789.233-1.579.647-2.297l.74-.968zm15.415 93.349c-.011 9.408-1.234 18.817-3.67 27.985-1.287 4.802-2.903 9.504-4.838 14.078-4.825 11.427-11.586 21.943-19.984 31.07-.902.942-1.352 2.15-1.353 3.358 0 .042.001.082.002.124.03-1.167.479-2.327 1.351-3.231 11.801-12.826 20.315-28.327 24.822-45.16 2.457-9.247 3.68-18.735 3.67-28.224z" fill="#767576"/><path d="m170.933 89.428h-22.978l-13.271 13.293-.74.968c-.414.718-.627 1.508-.647 2.297.031 1.163.479 2.307 1.319 3.199 11.893 12.827 20.497 28.339 25.061 45.218h.034l-.045.011c.021.078.042.156.062.234l26.74-7.144v-42.541c-.024-8.57-6.966-15.512-15.535-15.535z" fill="#134e6b"/><path d="m186.468 147.504-26.74 7.144c2.423 9.157 3.637 18.548 3.642 27.94v.189c.01 9.489-1.213 18.977-3.67 28.224l26.768 7.196z" fill="#143961"/><path d="m159.7 211.001c-4.507 16.833-13.021 32.334-24.822 45.16-.872.904-1.321 2.064-1.351 3.231.031 1.206.508 2.404 1.43 3.325l24.873 24.834h11.103c8.569-.024 15.511-6.966 15.535-15.536v-53.818z" fill="#0f294c"/><path d="m15.546 89.429h155.387c8.581 0 15.535 6.953 15.535 15.534v155.398c0 8.581-6.954 15.534-15.535 15.534h-155.387c-8.593 0-15.546-6.953-15.546-15.534v-155.398c0-8.581 6.953-15.534 15.546-15.534z" fill="#2c76bc"/><path d="m91.208 174.126c1.081 2.242 1.957 4.587 2.595 6.988h.25c.58-2.356 1.434-4.643 2.515-6.828l23.571-44.387c1.798-3.391 5.326-5.508 9.161-5.508 5.725 0 10.357 4.643 10.357 10.368 0 1.81-.478 3.585-1.377 5.155l-32.607 56.769c-.91 1.571-1.377 3.346-1.377 5.156v28.726c0 5.725-4.644 10.368-10.368 10.368h-2.106c-5.724 0-10.368-4.643-10.368-10.368v-28.384c0-1.764-.455-3.506-1.32-5.054l-32.004-57.326c-2.788-4.996-1.002-11.302 3.995-14.09 1.536-.865 3.278-1.32 5.053-1.32h2.037c3.87 0 7.432 2.162 9.208 5.611z" fill="#fff"/></g></svg>