<svg clip-rule="evenodd" fill-rule="evenodd" stroke-linejoin="round" stroke-miterlimit="2" viewBox="0 0 560 400" xmlns="http://www.w3.org/2000/svg"><path d="m144.894 110.992c-2.185 2.7-5.728 4.05-10.641 4.05-4.903 0-8.465-1.35-10.669-4.05-1.078-1.34-1.612-3.974-1.612-7.903v-17.774h5.906v17.606c0 2.681.46 4.575 1.378 5.7.919 1.115 2.588 1.678 4.997 1.678 2.419 0 4.078-.563 4.988-1.678.909-1.125 1.359-3.019 1.359-5.7v-17.606h5.944v17.774c0 3.9-.553 6.535-1.65 7.903zm134.455-16.584c0 2.128 1.246 3.197 3.74 3.197h7.875c3.206 0 5.513.628 6.919 1.884 1.397 1.247 2.1 3.394 2.1 6.422 0 3.057-.797 5.288-2.4 6.694s-4.097 2.109-7.481 2.109h-15.835v-5.24h14.888c1.631 0 2.803-.244 3.525-.731.722-.497 1.087-1.35 1.087-2.588 0-1.275-.328-2.166-.994-2.653-.646-.497-1.724-.741-3.224-.741h-7.013c-3.253 0-5.634-.675-7.144-2.025-1.509-1.35-2.268-3.487-2.268-6.412 0-3.159.806-5.456 2.409-6.872 1.594-1.425 4.106-2.137 7.519-2.137h15.553v5.24h-14.691c-3.047 0-4.565 1.285-4.565 3.853zm-19.613 15.188h9.769v5.118h-10.05c-1.941 0-3.478-.131-4.603-.412-1.519-.375-2.925-1.097-4.209-2.166-2.897-2.4-4.341-6.262-4.341-11.587 0-5.213 1.088-9.056 3.253-11.522 2.166-2.475 5.522-3.712 10.059-3.712h9.891v5.128h-9.769c-4.228 0-6.459 2.268-6.693 6.834h16.462v5.119h-16.5c.019 2.615.563 4.472 1.613 5.559 1.05 1.097 2.756 1.641 5.118 1.641zm-17.531-24.281v29.399h-6.225v-29.399zm-16.968 17.118 7.05 12.281h-6.694l-6.225-11.54h-7.013v11.54h-5.943v-29.399h14.653c3.384 0 5.878.712 7.481 2.137 1.603 1.416 2.4 3.656 2.4 6.713 0 4.668-1.903 7.424-5.709 8.268zm-30.881-11.953v24.234h-6.141v-24.234h-9.14v-5.119h24.459v5.119zm-37.416 3.928c0 2.128 1.247 3.197 3.741 3.197h7.875c3.206 0 5.512.628 6.919 1.884 1.406 1.247 2.109 3.394 2.109 6.422 0 3.057-.806 5.288-2.409 6.694-1.594 1.406-4.088 2.109-7.482 2.109h-15.834v-5.24h14.888c1.631 0 2.803-.244 3.525-.731.721-.497 1.087-1.35 1.087-2.588 0-1.275-.328-2.166-.984-2.653-.657-.497-1.735-.741-3.235-.741h-7.003c-3.262 0-5.643-.675-7.153-2.025-1.509-1.35-2.259-3.487-2.259-6.412 0-3.159.797-5.456 2.4-6.872 1.603-1.425 4.106-2.137 7.518-2.137h15.563v5.24h-14.691c-3.046 0-4.575 1.285-4.575 3.853zm-43.321 17.728c-1.284 1.069-2.691 1.791-4.209 2.166-1.135.281-2.672.412-4.613.412h-13.115v-29.399h12.956c4.547 0 7.903 1.237 10.068 3.712 2.166 2.466 3.244 6.309 3.244 11.522 0 5.325-1.444 9.187-4.331 11.587zm-34.575 2.578-12.168-22.228.272 22.228h-6.104v-29.399h7.519l11.578 21.131-.272-21.131h6.066v29.399zm-23.868-29.399v29.399h-6.225v-29.399zm54.777 7.209c-.993-1.388-2.803-2.081-5.428-2.081h-6.9v19.153h6.9c2.625 0 4.435-.685 5.428-2.063 1.003-1.378 1.5-3.881 1.5-7.519 0-3.599-.497-6.093-1.5-7.49zm113.662-1.266c-.76-.468-2.081-.703-3.975-.703h-7.285v7.416h7.285c1.865 0 3.215-.263 4.04-.778.825-.516 1.238-1.5 1.238-2.944 0-1.453-.431-2.447-1.303-2.991zm85.032-5.932h1.931l1.594 4.79 1.594-4.79h1.922v6.244h-1.285l.103-4.857-1.603 4.857h-1.397l-1.65-4.913.132 4.913h-1.341zm-4.019 1.096h-2.016v-1.088h5.4v1.088h-2.025v5.147h-1.359zm-113.816-19.9v14.821h-22.809v-14.821h-69.806v-15.731l63.759-50.803h28.856v52.612h14.812v13.922zm94.743-25.913c9.872 3.919 14.803 10.294 14.803 19.125 0 6.863-2.916 12.178-8.766 15.947-5.84 3.778-14.146 5.662-24.928 5.662h-54.393v-13.921h44.728c11.784 0 17.672-3.319 17.672-9.957 0-6.637-5.888-9.956-17.672-9.956h-36.112v-13.912h35.502c11.785 0 17.682-3.244 17.682-9.731 0-6.563-5.897-9.844-17.682-9.844h-44.118v-13.922h52.125c23.878 0 35.812 7.21 35.812 21.61 0 7.396-4.885 13.696-14.653 18.899zm-212.295 0c9.872 3.919 14.812 10.294 14.812 19.125 0 6.863-2.925 12.178-8.765 15.947-5.841 3.778-14.156 5.662-24.928 5.662h-54.393v-13.921h44.718c11.784 0 17.681-3.319 17.681-9.957 0-6.637-5.897-9.956-17.681-9.956h-36.112v-13.912h35.512c11.784 0 17.681-3.244 17.681-9.731 0-6.563-5.897-9.844-17.681-9.844h-44.118v-13.922h52.124c23.869 0 35.812 7.21 35.812 21.61 0 7.396-4.884 13.696-14.662 18.899zm94.743-23.193-43.819 35.184h43.819z" fill="#1a1a1a" fill-rule="nonzero" transform="matrix(1.14032 0 0 1.14032 100.016 134.415)"/></svg>