<svg clip-rule="evenodd" fill-rule="evenodd" stroke-linejoin="round" stroke-miterlimit="2" viewBox="0 0 560 400" xmlns="http://www.w3.org/2000/svg"><g fill-rule="nonzero" transform="matrix(.396883 0 0 .396883 142.221 92.6642)"><g fill="#1c5129"><path d="m80.27 18.96c2.8-.88 5.85-.24 8.75-.4 73.33.05 146.66.09 219.98.14 9.34-.32 18.65 1.26 27.97.01 3.25.95 6.73.77 10.02.09 2.01-.1 4.02-.13 6.04-.12 2.62.91 5.29 1.66 7.95 2.44 1.99 1.32 3.99 2.64 6.01 3.94 2.35 3.41 4.14 7.15 5.8 10.94 1.62 5.09 2.47 10.66 1.01 15.89-.04 3.86-.56 7.71-2.54 11.11-.49.96-.96 1.93-1.41 2.9-1.53 3.92-3.74 7.51-6.12 10.95-6.83 9.97-13.32 20.17-20.2 30.09-.06.23-.16.68-.21.9-4.19 5.44-7.73 11.37-11.63 17.02-11.34 17-22.87 33.87-34.01 51-4.52 6.23-7.54 13.65-13.26 18.92.02 1.48.05 2.96.09 4.44 8.56 4.95 17.36 9.42 26.08 14.08 1.87 1.13 3.6 2.47 5.32 3.82 5.8 4.48 11.72 9.28 14.94 16.05 1.03 2.21 1.99 4.48 1.92 6.98.5 1.25 1.01 2.51 1.55 3.75.58 7.71-.38 15.35-1.51 22.97-.17 2.03-.35 4.07-.64 6.1-.89 2.56-.84 5.32-1.32 7.97-.31 1.66-.67 3.31-1.11 4.94-.5 5.91-2.21 11.65-2.44 17.59l-.5.08c-.49 4.63-1.62 9.17-1.53 13.85l-.67-.09c-.15 3.8-1.16 7.5-1.27 11.3l-.6-.1c-.39 3.02-1.04 5.99-1.37 9.02l-.73-.02c-.12 1.84-.25 3.69-.38 5.54-.55 1.61-1.03 3.23-1.53 4.86.08 3.45-.65 6.8-1.87 10.02-.47 4.14-3.13 7.45-4.98 11.04-4.06 6.1-9.29 11.33-13.97 16.95-4.1 4.54-9.02 8.2-13.34 12.51-5.09 5.06-11.11 9.02-16.83 13.31-6.58 4.8-13.11 9.67-19.59 14.61-1.33.94-2.69 1.86-4.11 2.67-2.43 1.1-4.77 2.41-7.04 3.8-3 1.69-6 3.37-9.05 4.97-2.62 1.45-5.26 2.86-7.93 4.2-1.35.32-2.7.61-4.04.93-2.34.49-4.73.66-7.1.84-3.9.85-7.91.6-11.86.92-12.28 1.47-24.68.79-37.01.94-43.99.17-87.98-.47-131.96.1-8.86-.02-17.72.12-26.58.05.06-2.9.12-5.82.79-8.65.39-4.35.07-8.76 1-13.05.52-4.35-.16-8.83.96-13.09.44-5.85.55-11.71.56-17.56l.66.3c.56-8.02 1.4-16.01 1.31-24.07l.69-.05c.3-17.75 3.03-35.33 3.28-53.09l.75.22c-.05-7.66.57-15.29 1.23-22.91 1.11-5.03.6-10.23.92-15.33 42.39-.13 84.79-.02 127.18-.03.01 2.49 0 4.99.15 7.48.83 3.63.64 7.38.64 11.08.1 14.53-.04 29.06-.14 43.59 6.84.2 13.69-.12 20.53-.13 5.42.19 11.25-1.8 14.44-6.39.21-4.69 1.05-9.33 1.82-13.95.25-2.32.64-4.63 1.15-6.91.53-3.58 1.13-7.15 1.24-10.76l.77.05c.05-4.2.47-8.42 1.81-12.42.53-4.39.74-8.86 1.99-13.12.26-2.32.41-4.66.64-6.98 1.8-2.43-.66-4.1-2.41-5.41-17.15-.32-34.3-.07-51.45-.21-7.66-.12-15.35.32-22.99-.49-2.61-.26-5.25-.09-7.83.36-1.05.01-3.16.02-4.21.02.66-3 2.77-5.29 4.44-7.75 4.49-6.52 8.99-13.03 13.4-19.6 3.08-4.29 5.99-8.71 8.97-13.07 1.14-1.55 2.24-3.13 3.29-4.74 8.15-11.62 16.05-23.42 24.25-35.01.43-.65 1.31-1.94 1.75-2.59-6.67-.52-13.39.18-20.04-.77-33.63-.09-67.26-.57-100.89-.14.26-1.83.53-3.66.92-5.46 2.36-5.52 3.45-11.46 5.35-17.14 1.34-3.97 2.52-7.99 3.58-12.04.73-1.98 1.34-4.01 1.83-6.06.84-2.42 1.57-4.88 2.01-7.4l.52-.03c1.4-5.84 3.03-11.62 4.99-17.3 1.32-4.33 2.27-8.79 3.94-13.02.4-2.14.97-4.25 1.97-6.19.12-.76.38-2.3.51-3.06.5-1.26.99-2.52 1.5-3.78 1.17-4.7 2.37-9.41 4.01-13.97 1.67-5.33 3.11-10.73 4.9-16.03.88-3.22 1.97-6.38 2.61-9.66l.6.18c.96-6.01 3.04-11.78 4.92-17.55 1.13-4.43 2.16-8.93 4-13.13m9.36 8.43c-1.06 3.17-1.89 6.42-2.89 9.61-.12.5-.36 1.52-.48 2.02-1.67 6.02-3.24 12.07-4.95 18.08-2.72 9.98-5.78 19.89-8.13 29.96-.95 2.18-1.58 4.49-1.96 6.85-1.51 4.78-2.99 9.61-3.88 14.57l-.62.04c-.8 4.88-2.35 9.59-3.59 14.36-.93 2.36-1.59 4.82-1.99 7.33-1.17 3.55-1.91 7.24-3.29 10.73-1.17 6.32-3.74 12.31-4.61 18.69 27.99.18 55.98.03 83.96-.14 9.05-17 17.04-34.53 25.63-51.76 1.61-.71 3.29-1.4 5.1-1.27 13.62.04 27.24-.02 40.87-.01-.12.92-.23 1.85-.33 2.78-3.07 3.42-5.34 7.43-8.04 11.11-27.57 39.48-55.13 78.97-82.27 118.75-1.46 1.69-.14 3.75.53 5.45 9.81-.33 19.53 1.16 29.34.86 11.32.11 22.65.14 33.97.23 3.73.28 7.91.91 10.6 3.77 4.41 4.28 3.43 11.23 2.14 16.63-.31 3.28-.42 6.59-.96 9.85-1.52 10.62-2.41 21.31-4.01 31.92-1.32 7.12-3.22 14.11-4.54 21.23-4 10.95-14.85 18.53-26.23 19.95-8.98 1.02-18.06.2-27.08.45-2.63-1.32-5.41-2.74-6.95-5.38-1.89-2.63-1.34-6-1.47-9.03-.14-12.34-.04-24.69-.31-37.02-.89-4.07-.44-8.24-.72-12.36-23.85-.17-47.71.01-71.56-.02-4.98.14-9.99-.33-14.94.43-1.78-.18-3.56-.35-5.34-.5-.48.36-1.44 1.07-1.91 1.43-.6 7.03-.73 14.14-1.89 21.08-.67 8.31-1.33 16.62-2.29 24.9.13 10.43-2.2 20.69-2.18 31.1-.74 5.98-1.95 11.91-1.95 17.97-1.12 4.28-.57 8.75-1.03 13.12-.8 3.29-.77 6.69-.93 10.06-1.46 6.62-.95 13.49-1.09 20.23 18.21.03 36.42.05 54.61-.27 2.25-.19 5.39-1.59 7.02.61l.95-.84c4.02-.54 8.14-.37 12.16.11 2.32.16 4.65.05 6.96-.22 32.96-.47 65.94.05 98.89-.56 1.99-.61 4.03-1.02 6.06-1.47 3.82-.22 7.43-1.52 11.09-2.54 1.98-1.02 3.97-2.04 6-2.98 9.32-4.72 17.88-10.8 26.5-16.69 11.47-7.58 21.32-17.25 31.77-26.12 7.73-8.84 16.46-17.27 20.93-28.38.84-3.05 1.72-6.09 2.52-9.14 5.18-15.84 6.54-32.52 9.5-48.83 1.06-8.4 2.55-16.77 2.4-25.26l.58-.7c.13-3.41.07-6.86.89-10.19.51-7 1.17-14.46-2.32-20.87-3.15-7.51-10.36-11.87-16.94-16.03-9.74-5.56-19.53-11.05-29.34-16.5-1.97-1.14-4.12-1.9-6.3-2.53.34-3.32 2.16-6.17 3.95-8.89 29.94-45.65 60.15-91.12 90.08-136.77 3.17-4.32 4.34-10.05 2.55-15.17-.92-3.46-4.18-5.34-6.89-7.26-2.63-.55-5.32-.64-7.98-.61-84.46.07-168.91-.06-253.37.05m90.77 100.2-.05.61c-1.55.09-3.08.19-4.62.3-.43 1.29-.89 2.58-1.32 3.88l-.67.21c-.89 2.5-1.96 4.93-3.12 7.32-.48 1.07-.96 2.13-1.42 3.21-.46.91-.92 1.82-1.38 2.74-1.27 3.12-2.75 6.15-4.24 9.17-.02.22-.05.68-.06.91-.9 1.69-1.78 3.39-2.67 5.08-.66 1.64-1.34 3.27-2.01 4.91-1 1.98-1.92 4-2.64 6.11.9-.2 2.68-.6 3.57-.79 10.09-14.65 20.59-29.02 30.41-43.84-3.26-.02-6.52.16-9.78.18z"/><path d="m401.83 21.62c14.72-.33 29.45-.06 44.18-.3 7.38.67 14.65-1.14 22.03-.64 31.57-.19 63.14-.22 94.71-.17.9 3.09 1.1 6.46-.08 9.52.03.83.07 2.49.09 3.33l-.92-2.06c-.07 3.72-.27 7.44-.53 11.15l-.7.01c-.05 2.5-.18 5.02-.79 7.46-.62 6.24-2.01 12.38-2.52 18.63l-.66-.18c-.06 2.71-.18 5.43-.25 8.14l-.74.05c-.12 2.17-.26 4.33-.46 6.49-.82 4.3-1.54 8.62-2.11 12.96-.5 2.44-.65 4.94-.76 7.43l-.72.02c-.07 2.65-.23 5.29-.43 7.92-.48 1.89-.84 3.8-1.37 5.67-.23 2.48-.38 4.97-.44 7.47l-.65-.03c-.41 4.85-1.12 9.67-1.92 14.47-.25 2.32-.5 4.64-1.01 6.92-.19 1.85-.34 3.7-.45 5.56-.19.01-.55.01-.73.01.04 6.95-2.34 13.62-2.33 20.58-.54 1.97-.93 3.97-1.46 5.95-.21 2.5-.39 5-.49 7.51l-.63-.04c-.11 2.18-.34 4.36-.82 6.49-.05 4.59-1.58 9-1.53 13.59l-.65-.07c-.08 5.02-1.52 9.91-1.44 14.95l-.56.05c-.25 4.41-1.43 8.74-1.29 13.19l-.74-.24c-.35 4.39-1.21 8.73-1.31 13.15l-.72-.17c-.1 4.57-.52 9.17-1.87 13.56-.34 4.41-.79 8.85-1.95 13.13-.31 2.87-.19 5.79-.79 8.62-1.61 6.27-1.67 12.8-3.2 19.09-.22 2.21-.4 4.42-.68 6.63-.54 2.05-.84 4.13-.88 6.27l-.44-2.7c-.09 2.66.2 5.47-1 7.96-.73 3.39-1.75 6.82-1.33 10.33 1.34.15 2.69.29 4.05.42l-.08.66c5.08-.08 10.21.41 15.25-.49 2.91-.52 6.03.05 8.75-1.35.74-1.34 1.51-2.67 2.27-4l.52.04c.34-1.61.85-3.17 1.51-4.67.37-1.31.7-2.63 1.02-3.94 1.01-2.66 1.95-5.35 3.05-7.97.89-2.35 1.7-4.74 2.55-7.11.06-.21.17-.63.23-.84 1.9-3.52 2.55-7.52 4.23-11.13.31-1.17.6-2.35.89-3.52l.49.26c.71-2.69 1.65-5.32 2.6-7.94.95-2.14 1.74-4.35 2.49-6.57.39-1.09.81-2.17 1.23-3.24.75-1.13 1.49-2.27 2.22-3.42 40.27.3 80.55.19 120.82.29.3 4.07.63 8.31-.74 12.23-.23 1.34-.43 2.68-.62 4.02-1.04 2.72-1.68 5.57-1.84 8.48l-.71.02c-.41 5.8-2.68 11.24-3.32 17l-.71.04c-.13 1.49-.28 2.98-.43 4.48-1.13 3.23-1.63 6.62-2.41 9.95-.54 2.35-1.15 4.69-1.94 6.98-.45 2.86-1.08 5.69-1.54 8.56-.16-.01-.48-.02-.65-.03-.12 1.51-.22 3.03-.36 4.55-1.18 2.84-1.71 5.87-2.26 8.87-.32 1.48-.53 2.98-.63 4.5l-.57-2.14c-.13 2.09-.26 4.18-.36 6.27l-.83-.1c-.35 3.21-1.04 6.37-1.83 9.5-.62 3.78-1.74 7.44-2.65 11.15-.47 1.96-.85 3.94-1.41 5.88-.14 1.2-.27 2.41-.39 3.62l-.77-.17c-.11 1.56-.2 3.13-.31 4.69-1.85 5.53-2.94 11.29-4.04 17-.52 1.26-1.03 2.53-1.54 3.79-.11 1.58-.24 3.14-.33 4.73l-.71-.22c-.09 2.96-.78 5.83-1.5 8.68-.33 1.01-.64 2.04-.93 3.07-.4 1.75-.71 3.53-.95 5.31l-.65.06c-.09 1.73-.17 3.48-.25 5.23-.2-.08-.61-.23-.82-.3-.23 1.73-.62 3.43-1.11 5.11-55.17.23-110.34.08-165.51.16-2.32.08-4.61.58-6.92.58-40.69.03-81.38.13-122.06-.12-5.45-.92-11-.25-16.49-.51v.81c-5.44-1.76-11.02.65-16.49-.54-4.22-.71-8.51-.15-12.76-.38.4-2.93.97-5.83 1.44-8.75 1.31-3.48 1.29-7.28 2.53-10.77.22-1.71.41-3.41.59-5.11.48-1.62.96-3.24 1.52-4.83.12-1.09.24-2.17.36-3.25.5-1.96.95-3.94 1.54-5.88.16-1.88.29-3.76.42-5.63l.78.26c.13-1.53.27-3.06.43-4.57 1.36-4.48 2.31-9.08 2.87-13.72l.58.2c.14-3.43.79-6.81 1.9-10.06.17-1.53.34-3.05.55-4.57 1.3-3.52 1.38-7.31 2.38-10.9.36-1.3.71-2.61 1.07-3.91.22-1.71.51-3.42 1.02-5.07.64-4.7 1.91-9.28 2.65-13.97.33-1.04.63-2.09.93-3.14.33-1.78.61-3.56.87-5.35 6.48-.27 12.97.06 19.45-.22.15-2.14.31-4.27.58-6.4.98-2.54.88-5.3 1.09-7.97 1.5-6.27 1.9-12.73 3.35-19 .23-2.2.39-4.39.45-6.59l.73.26c.25-4.6.4-9.3 1.93-13.69.27-3 .27-6.04 1.05-8.96 1.43-5.25 1.05-10.78 2.64-15.99.7-4.99 1.28-10 2.21-14.95.19-2.19.37-4.38.52-6.57l.68.07c.08-2.18.24-4.35.53-6.51 1.69-6.54 1.68-13.36 3.34-19.91.15-2.32.32-4.63.73-6.92.64-1.67.76-3.47 1.01-5.22.34-2.64.56-5.31 1.29-7.88.25-2.04.43-4.08.64-6.12.42-2.29.61-4.65 1.44-6.85.22-2.05.38-4.1.57-6.15.45-1.98.76-3.99 1.23-5.96.4-4.69 1.11-9.37 2.09-13.97.19-1.91.33-3.81.41-5.72l.62.28c.46-4.56.78-9.19 1.92-13.64.29-2.35.44-4.71.58-7.07.47-1.65.9-3.31 1.4-4.95.25-7.29 2.48-14.36 2.52-21.67l.66.34c.16-1.58.37-3.15.73-4.69.26-2.3.41-4.6.67-6.89.82-2.63.76-5.42 1.38-8.08.25-1.7.44-3.4.64-5.1.55-2.58.86-5.22 1.39-7.81.84-6.72 2.32-13.38 2.65-20.15.47-1.95.9-3.91 1.49-5.82.32-2.81.46-5.64.55-8.46m12.83 8.1c-.26 4.47-.74 8.96-1.87 13.31-.75 7.02-1.93 14-2.92 20.98-.6 4.97-1.5 9.89-2.17 14.85-.67 6.88-2.61 13.62-2.33 20.58l-.78-.02c-2.86 22.56-6.44 45.05-9.73 67.56-.27 2.35-.46 4.73-1.1 7.02-.29 2.94-.45 5.89-.96 8.8-.92 3.03-1.3 6.16-1.55 9.3-4.16 28.28-8.3 56.57-12.4 84.87-.88 9-3.05 17.83-3.79 26.84-1.18 4.27-1.34 8.71-2.25 13.03-.73 4.98-1.36 9.99-2.52 14.9-.47 2.07-2.34 3.33-3.71 4.79-5.31.05-10.61-.19-15.92-.18-.23.88-.69 2.64-.92 3.52-1.96 10.71-3.7 21.48-5.89 32.14-.23 5.44-2.16 10.59-2.67 16-2.34 11.33-3.79 22.85-6.38 34.12-.01 1.01-.01 2.02 0 3.04 2.39.26 4.78.47 7.2.47 25.33-.06 50.67.07 76 .04 4.97 0 9.97-.25 14.91.45 4.62-1.23 9.32.46 13.99-.15 2.97-.28 5.96-.16 8.93.14 6.05.66 12.1-.61 18.14.2 55.4-.03 110.8.26 166.2.11.7-2.79 1.38-5.58 1.98-8.38.27-1.71.56-3.41.92-5.09 2.12-7.23 3.27-14.67 5.1-21.96 3.66-16.34 7.32-32.67 10.96-49 .48-2.73 1.14-5.42 2.03-8.04.41-2.7.99-5.38 1.7-8.02.64-3 1.25-6.02 2-9 .33-1.32.64-2.65.96-3.97.83-3.65 1.51-7.33 2.31-10.98.31-1.36.64-2.71 1-4.06.61-2.65 1.2-5.3 1.71-7.97.99-5.03 3.57-9.83 2.62-15.08-3.63-1.56-7.58-1.37-11.42-1.31-29.46-.04-58.92.02-88.38.01-.49 1.47-.98 2.95-1.44 4.44-.8 2.31-1.64 4.6-2.52 6.88-.58 1.72-1.18 3.43-1.78 5.14-.53 1.7-1.09 3.4-1.67 5.09-2.28 4.8-3.26 10.09-5.55 14.89-.1.5-.29 1.51-.39 2.01-.95 2.24-1.75 4.54-2.55 6.84-1.34 3.54-2.19 7.38-4.58 10.42-2.79 3.9-7.1 7.45-12.14 7.34-12.72-.06-25.45-.09-38.18-.27-.59-.33-1.79-.99-2.39-1.32.16-9.11 2.32-18.01 3.35-27.03.55-2.32.87-4.68 1.33-7.01.74-6.02 1.84-11.99 2.66-17.99.61-2.25.78-4.59 1.06-6.9.51-2.08.73-4.22.88-6.35l.42-.66c.36-6.42 2.24-12.62 2.88-19 1.94-15.13 4.85-30.1 6.71-45.23 1.62-6.16 2.09-12.54 3.1-18.81 1.26-8.67 3.11-17.26 3.96-25.98 3.54-21.32 6.89-42.69 10.02-64.08.45-2.35.78-4.73 1.33-7.06.43-6.37 2.04-12.57 2.62-18.93 2.31-11.26 3.35-22.74 5.45-34.05.78-2.6-1.29-4.58-2.58-6.54-9.9-.43-19.85.42-29.71-.66-2.34-.05-4.62.53-6.95.5-10.31-1-20.72-.66-31.04.05-9.98-.24-20.01.43-29.96-.36-4.01.83-8.02-.27-12.04-.26-5.33.02-10.66-.06-15.98.08-1.11.32-2.22.64-3.32.95z"/><path d="m203.76 455.58c2.77-.01 5.55 0 8.32.05 1.16 2.9 2.31 5.82 2.83 8.92-2.02.04-4.03.06-6.05.04-2.04-2.79-4.17-5.62-5.1-9.01z"/><path d="m499.48 470.59c2.64-.66 5.32-1.19 8.05-1.25l.02-.64c2.32 0 4.64.01 6.98.01l-.25.63c2.97.09 5.93.61 8.66 1.81 1.02.6 2.05 1.19 3.1 1.78 1.14 1.73 2.2 3.52 2.86 5.5l.51.05c.21 1.21.43 2.42.71 3.62.34 6.29.04 12.59.17 18.88-.04 4.33.58 8.94-1.58 12.91-.14.5-.42 1.5-.56 2-1.67 2.02-3.4 4.15-6.09 4.76l1.51 1.05-1.47-.03c-3.55 1.23-7.38.47-11.05.65-3.71-.16-7.53.52-11.13-.61l-1.16-.02.88-.84c-4.26-2.07-7.89-6.33-7.35-11.33l-.77-.07c.16-8.15.12-16.31.09-24.47-.06-1.33.18-2.62.57-3.87.17-1.13.32-2.26.47-3.39 1.36-3.12 3.86-5.53 6.83-7.13m9.39 9.89c-.33.61-.98 1.83-1.31 2.43.05 8.88-.04 17.75.03 26.62.28-.05.86-.16 1.15-.21-.04.51-.11 1.54-.15 2.05 1.59-.02 3.17-.06 4.77-.11.75-4.39.13-8.86.74-13.25-.51-3.66-.5-7.37.01-11.02-.27-2.16-.49-4.3-.74-6.45-1.5-.06-3-.09-4.5-.06z"/><path d="m53.8 469.65c10.9.25 21.95-.96 32.74.98l.08.45c2.63.54 4.16 2.85 5.88 4.67 1.76 4.49 1.24 9.41.73 14.09-1.66 1.94-3.11 4.23-5.61 5.17 0 .23-.02.7-.03.94 1.97.79 3.57 2.19 5.01 3.72.23 3.87.02 7.87 1.33 11.59 1.45 3.47.71 7.31.69 10.96-5.65-.02-11.29-.42-16.94-.64-.19-6.03-.24-12.05-.22-18.07l-.47-.17c-1.18-1.46-2.88-2.09-4.69-2.36-.16 3.84-.08 7.69.08 11.54.27-.01.83-.02 1.1-.03-.06 3.05-.06 6.12-.01 9.18-6.58.15-13.19.32-19.76-.16.14-3.19-.47-6.54.95-9.53 2.09-3.26.78-7.38 1.19-11.02-.04-6.79.18-13.62-.32-20.38-.24-.44-.73-1.32-.98-1.75.02-.3.05-.9.06-1.2l-.95-.17c.07-2.61.1-5.21.14-7.81m18.68 10.43.12 1.42-.99-.06c.12 3.05.11 6.1.03 9.16 1.56 0 3.12-.02 4.68-.06 1.46-2.38 1.31-5.18 1.32-7.86-1.26-1.67-3.1-2.46-5.16-2.6z"/><path d="m99.71 469.73c5.11-.14 10.23-.07 15.34-.11 1.48-.1 2.89.39 4.27.88-.07 2.34-.06 4.69.02 7.04l-.68.06c-.68 2.07-1.41 4.17-1.28 6.39.01 7.68.03 15.35-.02 23.03-.13 2.23.62 4.34 1.31 6.42l.76.01c-.1 2.63-.09 5.27-.04 7.9-.58.23-1.74.67-2.32.89-5.81-.18-11.69.46-17.43-.7.03-2.57.01-5.13.02-7.69 2.79-3.74 1.85-8.49 1.97-12.83-.11-6.37.17-12.76-.08-19.13-.09-1.84-1.71-3.19-1.88-5-.13-2.39 0-4.78.04-7.16z"/><path d="m122.4 469.65c6.36.01 12.72-.05 19.07.02.38 4.16.18 8.31-1.05 12.31.77 7.98 2.43 15.88 3.56 23.83.96-6.29 2.68-12.46 2.79-18.86.59-1.99.76-4.06.79-6.12-3.07-2.99-1.8-7.35-1.95-11.14 5.66-.12 11.32-.05 16.98-.09-.09.67-.19 1.35-.28 2.04l.93-.08c-.01 1.6-.01 3.2.01 4.81l-.44.04c-.27 1.22-.41 2.51-1.13 3.58-1.28 2.49-1.04 5.35-1.74 8-.42 1.61-.8 3.25-1.21 4.88-.08 1.56-.17 3.13-.25 4.71l-.79-.01c-.46 3.79-.79 7.65-1.99 11.3-.2 1.68-.37 3.37-.58 5.07-.53 1.97-.85 4-1.18 6.02-.21 1.35-1.31 2.43-2.77 2.23-5.87.12-11.73-.06-17.59.09-.43-.26-1.28-.78-1.71-1.04-.25-1.49-.51-2.96-.94-4.4-.1-5.46-2.61-10.45-2.7-15.9-1.2-3.66-1.71-7.48-1.88-11.31-.17-.02-.52-.08-.7-.1-.05-2.93-.47-5.86-1.89-8.45-2.25-3.42-1.5-7.59-1.36-11.43z"/><path d="m166.7 469.62c6.22.06 12.44 0 18.66.03.07 2.82.09 5.64.07 8.46-.61.89-1.22 1.79-1.83 2.7.06 9.81.1 19.63 0 29.44.6.87 1.21 1.73 1.82 2.6 0 2.95.03 5.89.1 8.84-6.32 1.11-12.78.26-19.16.54-.07-2.75-.27-5.5-.05-8.24.69-2.31 1.69-4.56 1.46-7.02-.16-8.99.23-18-.24-26.98-2.02-2.19-1.77-5.23-1.72-7.97.3-.8.6-1.6.89-2.4z"/><path d="m190.59 469.66c12.59-.13 25.17-.02 37.75 0 .1 5.61.05 11.22.11 16.84l-1.03-.14-.06.95c-4.25-.11-8.5-.13-12.74-.03-.49-1.88-.92-3.78-1.27-5.69l-.94.02-.03-1.09c-1.01-.04-3.02-.1-4.03-.14-.09 3.08-.09 6.16-.02 9.24 2.77.05 5.54.07 8.31-.02.57.68 1.14 1.36 1.71 2.05-.01 2.87-.17 5.77-1.02 8.53-2.96-.58-5.98-.53-8.97-.5-.11 3.62-.11 7.26-.01 10.89 1 0 3.01-.01 4.02-.01l.29-.59c1.2-1.47 1.07-3.39 1.22-5.16.22-.52.65-1.57.87-2.09 4.51.02 9.02-.03 13.53-.02.33 6.3.02 12.62.18 18.93-8.09 1.33-16.29-.3-24.44.19-4.78.23-9.64.93-14.31-.49.53-3.43-.02-7.17 1.75-10.29.66-7.32.17-14.69.31-22.03-.12-3.76.67-7.84-1.51-11.17-.73-1.79-.23-3.68.04-5.49.1-.91.19-1.8.29-2.69z"/><path d="m340.71 469.74c10.51.01 21.11-.75 31.55.83 5 1.98 8.57 7.04 8.36 12.47-.06 9.5.17 19-.12 28.49l-.67.04c-.54 4.59-4.57 7.8-8.7 9.19l.68.6c-6.21 1.28-12.57.73-18.87.82-4.11-.02-8.28.3-12.32-.68.07-2.62.08-5.23-.02-7.84.63-.88 1.26-1.75 1.91-2.61.35-9.37.09-18.75.17-28.11.26-2.14-1.17-3.82-1.9-5.68-.31-2.5-.07-5.02-.07-7.52m17.98 11.78c.05 8.86 0 17.73.04 26.59.21.65.63 1.94.84 2.58 1.63-.15 3.39-.32 4.51-1.7.63-1.59.45-3.33.52-5-.08-7 .07-14-.14-21-.58-.43-1.76-1.31-2.34-1.75-.86.07-2.57.21-3.43.28z"/><path d="m535.83 469.8c6.16.24 12.43-.64 18.48.82 0 2.62.02 5.25.11 7.88l-.86-.02c-1.93 4.96-.97 10.36-1.18 15.55.21 5.69-.49 11.46.5 17.11 1.74.49 3.54.35 5.33.3.33-1.13.67-2.26 1.04-3.38.12-8.39-.08-16.79.06-25.18-.54-1.28-1.08-2.54-1.65-3.79-.26-.49-.77-1.47-1.03-1.97.11-2.29.33-4.57.69-6.83 6.08.04 12.17-.13 18.26.11-.02 2.49.16 4.99-.11 7.48-.57 1.74-1.97 3.23-2 5.13-.2 9.33.24 18.67-.18 28-.5 1.31-.97 2.64-1.42 3.98-1.66 2.32-3.77 4.25-5.88 6.14-.47.31-1.39.95-1.86 1.27-6.55-.11-13.11.05-19.66-.12.02-.35.04-1.04.05-1.39-4.05-2.21-7.04-6.29-7.5-10.94-.79-8.62-.18-17.32-.37-25.97.05-1.4-.26-2.72-.92-3.95-1.25-2.52-1.01-5.35-.98-8.06.36-.73.72-1.45 1.08-2.17z"/><path d="m232.44 469.68c8.53-.01 17.07-.12 25.61.1 2.64.7 5.61.24 8.01 1.71 1.55.96 2.83 2.26 4.2 3.44 1.87 4.33 3.09 9.28 1.25 13.84-.69 3.15-3.49 4.96-5.57 7.15 1.51.91 3.02 1.88 4.51 2.84.84 3.75.88 7.6 1.05 11.42.35.79 1.07 2.38 1.42 3.17l.58.07c-.1 2.65-.11 5.31-.07 7.96-.57.21-1.72.64-2.29.85-4.46-.03-8.92-.03-13.38.04-.48-.29-1.42-.86-1.9-1.14-.55-5.43-.16-10.9-.51-16.33 0-3.01-2.64-3.54-5.05-3.68.21 3.88-1.16 8.29 1.05 11.8.06 2.91.05 5.83.13 8.75-6.51.86-13.29 1.03-19.75-.26.08-2.33-.08-4.68.19-6.99.79-2.1 2.06-4.1 1.83-6.44-.1-9.01.28-18.04-.24-27.02-1.59-3.58-1.3-7.48-1.07-11.28m17.88 10.8c-.7 3.33-.64 6.73-.61 10.11 1.53.03 3.07.05 4.61.05 1.53-2.37 1.49-5.2 1.38-7.91-.72-.76-1.44-1.52-2.15-2.28-1.08.01-2.16.02-3.23.03z"/><path d="m278.41 469.63c11.2.08 22.4 0 33.59.03 1.52 0 3.02.28 4.52.56-.12 5.47.03 10.95-.01 16.42-4.59.16-9.18.13-13.77.08-.59-2.18-1.45-4.26-2.52-6.24-1.55 0-3.08.01-4.62.03-.05 3.03-.06 6.05-.06 9.08 3.34.12 6.68.13 10.03.12.23 3.32.2 6.65.2 9.98-2.63.03-5.25.05-7.88.06-.58.2-1.75.61-2.33.82.02 3.3.01 6.62.03 9.93 1.57.03 3.15.07 4.73.1 1.23-2.28 2.09-4.74 2.3-7.33 4.66.04 9.32-.01 13.98.14-.14 6.11-.18 12.23-.04 18.35-12.76.15-25.52.09-38.27.07-.18-4.36-.07-8.71 1.28-12.89.08-9.59.34-19.21-.22-28.78-1.9-3.2-.86-7.03-.94-10.53z"/><path d="m385.39 470.18c6.16-.95 12.49-.46 18.7-.28.3 2.68.22 5.39.19 8.1-.71 1.59-1.76 3.17-1.64 5.01-.01 8.35-.02 16.7 0 25.04-.15 1.6 1.37 2.51 2.2 3.68 1.98-.23 4.89-1.04 4.62-3.6.11-8.04-.02-16.08.04-24.12.31-2.22-1.01-4.04-1.84-5.95-.36-2.59-.18-5.21-.25-7.8 5.87-1.09 11.91-.49 17.85-.44.5 3.57.68 7.34-.62 10.76-.28.01-.84.01-1.12.01-.02 10.51.2 21.01-.15 31.52-1.87 2.92-3.26 6.79-6.88 7.89-.03.32-.09.94-.12 1.25-.59.24-1.77.73-2.36.98-5.75.08-11.51-.17-17.25.18-.93-.74-1.84-1.49-2.74-2.23-3.84-2.38-6.79-6.62-6.6-11.27-.25-9.16-.02-18.33-.1-27.5-.29.03-.88.09-1.18.13.1-.35.29-1.04.38-1.39-1.99-2.95-.89-6.66-1.13-9.97z"/><path d="m449.49 470.48c1.47-.44 2.96-.83 4.52-.71 5.09.18 10.29-.58 15.28.85-.02 2.26-.01 4.51 0 6.77-.94 1.77-2.06 3.55-1.83 5.66-.05 9.23-.01 18.47.03 27.71 1.6-.11 3.2-.22 4.81-.35 1.62-4.46.66-9.23 1.16-13.84 4.37.13 8.74 0 13.12.05.08 8.56.1 17.11.02 25.67-10.87.02-21.74.01-32.61.04-1.52.04-2.99-.3-4.44-.67.06-2.89.03-5.77.13-8.64.73-1.26 2.03-2.39 1.89-3.97-.02-8.71.06-17.43-.03-26.14.09-1.83-1.21-3.29-1.81-4.91-.31-2.5-.15-5.02-.24-7.52z"/><path d="m580.3 470.3c9.27.13 18.55-.27 27.81.29 4.14.24 7.84 2.7 9.86 6.3 2.41 5.49 1.21 11.6 1.42 17.4.17 4.52-2.38 8.76-6.19 11.09-4.71 1.58-9.72 1.43-14.61 1.33l.03.94-1.24-.01c.1 2.16.83 4.2 1.97 6.04.06 2.9.04 5.8.04 8.72-6.35.02-12.69.01-19.03-.03.25-3.76-1.13-8.04 1.2-11.35.3-9.62.18-19.27.05-28.89-1.61-3.76-1.59-7.81-1.31-11.83m17.47 10.51c-.13 4.78-.09 9.57-.09 14.35.99.39 1.87.97 2.64 1.73.06-.4.17-1.2.22-1.59.45.11 1.34.34 1.79.46.84-1.43 1.4-3.01 1.33-4.68-.04-3.21.5-6.72-1.29-9.56-.8-.26-1.59-.52-2.37-.79-.56.02-1.67.06-2.23.08z"/><path d="m427.58 495.61c6.58-.97 13.23-.74 19.86-.81.44 4.15.32 8.33.09 12.49-5.9 0-11.8-.02-17.7.02-.56-.25-1.68-.74-2.24-.98.06-3.58.04-7.15-.01-10.72z"/><path d="m318.34 495.32c6.64 0 13.29-.2 19.93.04-.02 3.7-.02 7.41.08 11.11-3.35 1.11-6.9.72-10.36.78-3.22-.02-6.48.24-9.62-.6.02-3.78-.05-7.55-.03-11.33z"/></g><g fill="#f7d50e"><path d="m89.63 27.39c84.46-.11 168.91.02 253.37-.05 2.66-.03 5.35.06 7.98.61 2.71 1.92 5.97 3.8 6.89 7.26 1.79 5.12.62 10.85-2.55 15.17-29.93 45.65-60.14 91.12-90.08 136.77-1.79 2.72-3.61 5.57-3.95 8.89 2.18.63 4.33 1.39 6.3 2.53 9.81 5.45 19.6 10.94 29.34 16.5 6.58 4.16 13.79 8.52 16.94 16.03 3.49 6.41 2.83 13.87 2.32 20.87-.82 3.33-.76 6.78-.89 10.19l-.58.7c.15 8.49-1.34 16.86-2.4 25.26-2.96 16.31-4.32 32.99-9.5 48.83-.8 3.05-1.68 6.09-2.52 9.14-4.47 11.11-13.2 19.54-20.93 28.38-10.45 8.87-20.3 18.54-31.77 26.12-8.62 5.89-17.18 11.97-26.5 16.69-2.03.94-4.02 1.96-6 2.98-3.66 1.02-7.27 2.32-11.09 2.54-2.03.45-4.07.86-6.06 1.47-32.95.61-65.93.09-98.89.56-2.31.27-4.64.38-6.96.22-4.02-.48-8.14-.65-12.16-.11l-.95.84c-1.63-2.2-4.77-.8-7.02-.61-18.19.32-36.4.3-54.61.27.14-6.74-.37-13.61 1.09-20.23.16-3.37.13-6.77.93-10.06.46-4.37-.09-8.84 1.03-13.12 0-6.06 1.21-11.99 1.95-17.97-.02-10.41 2.31-20.67 2.18-31.1.96-8.28 1.62-16.59 2.29-24.9 1.16-6.94 1.29-14.05 1.89-21.08.47-.36 1.43-1.07 1.91-1.43 1.78.15 3.56.32 5.34.5 4.95-.76 9.96-.29 14.94-.43 23.85.03 47.71-.15 71.56.02.28 4.12-.17 8.29.72 12.36.27 12.33.17 24.68.31 37.02.13 3.03-.42 6.4 1.47 9.03 1.54 2.64 4.32 4.06 6.95 5.38 9.02-.25 18.1.57 27.08-.45 11.38-1.42 22.23-9 26.23-19.95 1.32-7.12 3.22-14.11 4.54-21.23 1.6-10.61 2.49-21.3 4.01-31.92.54-3.26.65-6.57.96-9.85 1.29-5.4 2.27-12.35-2.14-16.63-2.69-2.86-6.87-3.49-10.6-3.77-11.32-.09-22.65-.12-33.97-.23-9.81.3-19.53-1.19-29.34-.86-.67-1.7-1.99-3.76-.53-5.45 27.14-39.78 54.7-79.27 82.27-118.75 2.7-3.68 4.97-7.69 8.04-11.11.1-.93.21-1.86.33-2.78-13.63-.01-27.25.05-40.87.01-1.81-.13-3.49.56-5.1 1.27-8.59 17.23-16.58 34.76-25.63 51.76-27.98.17-55.97.32-83.96.14.87-6.38 3.44-12.37 4.61-18.69 1.38-3.49 2.12-7.18 3.29-10.73.4-2.51 1.06-4.97 1.99-7.33 1.24-4.77 2.79-9.48 3.59-14.36l.62-.04c.89-4.96 2.37-9.79 3.88-14.57.38-2.36 1.01-4.67 1.96-6.85 2.35-10.07 5.41-19.98 8.13-29.96 1.71-6.01 3.28-12.06 4.95-18.08.12-.5.36-1.52.48-2.02 1-3.19 1.83-6.44 2.89-9.61z"/><path d="m414.66 29.72c1.1-.31 2.21-.63 3.32-.95 5.32-.14 10.65-.06 15.98-.08 4.02-.01 8.03 1.09 12.04.26 9.95.79 19.98.12 29.96.36 10.32-.71 20.73-1.05 31.04-.05 2.33.03 4.61-.55 6.95-.5 9.86 1.08 19.81.23 29.71.66 1.29 1.96 3.36 3.94 2.58 6.54-2.1 11.31-3.14 22.79-5.45 34.05-.58 6.36-2.19 12.56-2.62 18.93-.55 2.33-.88 4.71-1.33 7.06-3.13 21.39-6.48 42.76-10.02 64.08-.85 8.72-2.7 17.31-3.96 25.98-1.01 6.27-1.48 12.65-3.1 18.81-1.86 15.13-4.77 30.1-6.71 45.23-.64 6.38-2.52 12.58-2.88 19l-.42.66c-.15 2.13-.37 4.27-.88 6.35-.28 2.31-.45 4.65-1.06 6.9-.82 6-1.92 11.97-2.66 17.99-.46 2.33-.78 4.69-1.33 7.01-1.03 9.02-3.19 17.92-3.35 27.03.6.33 1.8.99 2.39 1.32 12.73.18 25.46.21 38.18.27 5.04.11 9.35-3.44 12.14-7.34 2.39-3.04 3.24-6.88 4.58-10.42.8-2.3 1.6-4.6 2.55-6.84.1-.5.29-1.51.39-2.01 2.29-4.8 3.27-10.09 5.55-14.89.58-1.69 1.14-3.39 1.67-5.09.6-1.71 1.2-3.42 1.78-5.14.88-2.28 1.72-4.57 2.52-6.88.46-1.49.95-2.97 1.44-4.44 29.46.01 58.92-.05 88.38-.01 3.84-.06 7.79-.25 11.42 1.31.95 5.25-1.63 10.05-2.62 15.08-.51 2.67-1.1 5.32-1.71 7.97-.36 1.35-.69 2.7-1 4.06-.8 3.65-1.48 7.33-2.31 10.98-.32 1.32-.63 2.65-.96 3.97-.75 2.98-1.36 6-2 9-.71 2.64-1.29 5.32-1.7 8.02-.89 2.62-1.55 5.31-2.03 8.04-3.64 16.33-7.3 32.66-10.96 49-1.83 7.29-2.98 14.73-5.1 21.96-.36 1.68-.65 3.38-.92 5.09-.6 2.8-1.28 5.59-1.98 8.38-55.4.15-110.8-.14-166.2-.11-6.04-.81-12.09.46-18.14-.2-2.97-.3-5.96-.42-8.93-.14-4.67.61-9.37-1.08-13.99.15-4.94-.7-9.94-.45-14.91-.45-25.33.03-50.67-.1-76-.04-2.42 0-4.81-.21-7.2-.47-.01-1.02-.01-2.03 0-3.04 2.59-11.27 4.04-22.79 6.38-34.12.51-5.41 2.44-10.56 2.67-16 2.19-10.66 3.93-21.43 5.89-32.14l.92-3.52c5.31-.01 10.61.23 15.92.18 1.37-1.46 3.24-2.72 3.71-4.79 1.16-4.91 1.79-9.92 2.52-14.9.91-4.32 1.07-8.76 2.25-13.03.74-9.01 2.91-17.84 3.79-26.84 4.1-28.3 8.24-56.59 12.4-84.87.25-3.14.63-6.27 1.55-9.3.51-2.91.67-5.86.96-8.8.64-2.29.83-4.67 1.1-7.02 3.29-22.51 6.87-45 9.73-67.56l.78.02c-.28-6.96 1.66-13.7 2.33-20.58.67-4.96 1.57-9.88 2.17-14.85.99-6.98 2.17-13.96 2.92-20.98 1.13-4.35 1.61-8.84 1.87-13.31z"/></g></g></svg>