<svg clip-rule="evenodd" fill-rule="evenodd" stroke-linejoin="round" stroke-miterlimit="2" viewBox="0 0 560 400" xmlns="http://www.w3.org/2000/svg"><g fill-rule="nonzero" transform="matrix(.455696 0 0 .455696 85.4177 77.4177)"><path d="m731.2 238.2c-37.5 0-66.9 32.2-66.1 67.9-3-3.9-6.7-7.1-10.9-9.5-10.3-6-23-8.1-34.3-9.8-12.7-1.9-22.8-3.6-22.8-10.1 0-9.6 10.8-11.6 18.2-11.6 6.2 0 20.9 2.3 20.9 10.4h31.9c0-6.4-1.2-16.7-13.4-25.8-9.8-7.2-23.3-11-39.6-11-25.5 0-46.9 14.1-51.8 32.8-7.5-18.2-23.4-33-55.3-33-20.2 0-32.9 13.7-32.9 13.9v-10.5h-37.1v40.1c-8.2-24.6-29-43.8-57.3-43.8-37.5 0-67 32.2-66.2 67.9-3-3.9-6.7-7.1-11-9.5-10.3-6-23-8.2-34.3-9.8-12.7-1.9-22.8-3.6-22.8-10.1 0-9.6 10.8-11.7 18.2-11.7 6.2 0 20.9 2.3 20.9 10.4h31.9c0-6.4-1.2-16.7-13.4-25.8-9.8-7.2-23.3-11-39.6-11-29 0-52.8 18.3-52.8 40.8 0 10.4 5.6 19.9 14.6 25 9.1 5.8 19.9 8.4 30 9.6 10.5 1.4 30.2 4.3 30.2 16.1 0 9.4-13.7 12.9-20.6 12.9-10.5 0-21.3-6-21.3-16.9h-35c0 8.2 2.2 17.6 13.9 29.6 4.8 4.8 11 8.2 17.8 10.6 7.9 3 16.3 4.4 24.7 4.3 7.3 0 14.5-1.1 21.4-3.4 6.3-1.8 12.2-4.7 17.5-8.6 5-3.3 9.1-7.6 12.2-12.7 2.2-3.8 3.7-7.9 4.3-12.3 11.1 22.4 34 36.6 59 36.5 23.8 0 40.3-12 54-27.8l-26.9-16.5c-7.7 8.4-17 12.9-27.1 12.9-14.1 0-26.7-8.6-31.9-21.6h89.6v49h37.2v-61.9c.9-16.3 12.4-29.3 28.2-29.3 22.1 0 28.9 10.3 28.9 30v61.1h37.2v-15.6c1.8 1.7 2.9 3.5 4.7 5.4 4.8 4.8 11 8.2 17.7 10.6 7.9 2.9 16.3 4.4 24.7 4.3 7.2 0 14.4-1.1 21.3-3.4 6.3-1.8 12.2-4.7 17.5-8.6 5-3.3 9.1-7.6 12.2-12.7 2.2-3.8 3.7-7.9 4.3-12.3 11.1 22.4 34 36.6 59 36.5 23.8 0 40.3-12 54-27.8l-26.9-16.5c-7.7 8.4-17 12.9-27.1 12.9-14.1 0-26.7-8.6-31.9-21.6h92c6.5-39.1-18.7-79-59.8-79m-382.9 55.3c0-12.7 14.6-23.8 32.1-23.8 14.2 0 29 10.1 29 23.8zm268.2 49.5c-10.6 0-21.3-6-21.3-16.9h-25.7v-21.2c0-2.3-.2-4.7-.3-7.1 2.2 2.6 4.9 4.8 7.8 6.6 9.1 5.8 19.9 8.4 30 9.6 10.6 1.4 30.2 4.3 30.2 16 0 9.4-13.7 13-20.7 13m82.6-49.5c0-12.7 14.6-23.8 32.2-23.8 14.2 0 29 10.1 29 23.8z"/><path d="m78.5 346.6 23.7-27.5c-5.2-8.3-6.2-18.6-2.6-27.7 5-12.9 17.6-20.4 31.3-19.6 3.5.2 6.9 1 10.1 2.4l23.8-27.6c-6.9-4.4-14.6-7.5-22.6-9.1 8.6-10.4 39.2-45.8 39.2-45.8l-27.2-24.4s-40.9 48.5-54.6 65.4l-24.6 30.4c-10.5 12.9-14.8 31.9-12.6 48.3 1.8 13.1 7.4 25.3 16.1 35.2" fill="#1dbbb2"/><path d="m189.8 275.5c-2.9-6.9-7-13.2-12.2-18.5l-23.6 27.4c4.9 6.5 7.1 14.7 6 22.8-2.3 16.4-18.6 30-35.5 26.8-3.6-.5-7.2-1.7-10.4-3.5l-23.3 27c15.6 11.1 35.2 14.8 53.8 10.4 39.9-9.8 62.1-54.8 45.2-92.4"/></g><path d="m99.999972 144.405012h359.99984v111.189824h-359.99984z" fill="none" stroke-width=".455696"/></svg>