<svg clip-rule="evenodd" fill-rule="evenodd" viewBox="0 0 560 400" xmlns="http://www.w3.org/2000/svg"><path d="m122.996 263.664c.208-.102.235-.212.265-1.067.04-1.118.099-1.069-1.268-1.071l-.877-.001v.417c0 .229-.029.633-.065.898-.049.367-.023.524.11.659.162.164.124.176-.519.155-.382-.013-.694-.042-.695-.065 0-.023.08-.101.177-.173.147-.109.193-.466.274-2.114.092-1.86.086-1.991-.097-2.134-.174-.138-.151-.147.231-.088.234.036.566.066.737.067.269.001.29.02.145.136-.11.089-.192.4-.238.904l-.07.769.337.068c.186.038.684.069 1.107.069h.769l.068-.502c.109-.811.081-1.1-.118-1.213-.29-.166-.134-.204.6-.146.651.05.671.06.46.227-.204.162-.226.328-.295 2.19-.072 1.916-.066 2.017.124 2.067.11.029-.159.054-.597.057-.632.004-.749-.018-.565-.109zm5.295-.065c-.865-.313-1.367-.862-1.55-1.695-.254-1.153.178-2.132 1.178-2.664.381-.202.643-.254 1.293-.254.448 0 .836.024.863.054.085.096.158 1.08.081 1.08-.042 0-.14-.122-.218-.271-.327-.619-1.506-.595-2.138.045-.665.672-.651 1.764.033 2.556.635.735 1.304.878 2.153.458.496-.244.638-.233.534.042-.166.442-1.627.867-2.229.649zm-10.789-.121c-.391-.042-.51-.085-.361-.13.293-.087.354-.428.43-2.39l.062-1.594-.464.002c-.54.002-.673.071-.775.403-.116.377-.311.298-.233-.094.036-.186.066-.436.066-.556 0-.213.04-.216 1.78-.14.979.043 1.795.093 1.813.112.018.018.018.294 0 .612l-.034.58-.156-.325c-.208-.43-.296-.482-.816-.484l-.442-.002-.059.891c-.178 2.684-.175 2.91.046 2.968.114.031.206.098.206.151 0 .1-.112.099-1.063-.004zm13.745-.212c.082-.096.204-.491.271-.877.137-.778.482-2.561.601-3.104.063-.285.041-.364-.122-.427-.178-.07-.17-.086.067-.153.474-.134.748-.103.82.092.039.104.309.602.602 1.107.292.505.584 1.016.648 1.134.536.99.856 1.486 1.047 1.623.221.157.219.16-.091.161a6.263 6.263 0 0 0 -.741.067c-.384.06-.406.051-.227-.09.19-.149.185-.178-.143-.769-.187-.337-.372-.632-.41-.654-.039-.023-.389.007-.779.064-.784.117-.758.084-.893 1.138-.07.541-.062.567.171.567.378 0 .212.078-.407.192-.513.095-.549.089-.414-.071zm2.069-2.329c.018-.019-.103-.271-.27-.56a7.322 7.322 0 0 1 -.384-.743c-.068-.18-.095-.189-.168-.054-.048.089-.12.381-.16.648a8.02 8.02 0 0 1 -.13.691c-.053.189-.014.199.51.128.313-.042.584-.092.602-.11zm-18.311 2.204c-.234-.047-.784-.14-1.223-.205a24.308 24.308 0 0 1 -1.034-.173c-.237-.053-.237-.054-.027-.268.116-.118.217-.299.225-.403.019-.269.05-.484.247-1.702.32-1.981.313-1.88.125-1.954-.095-.037-.173-.112-.173-.167 0-.058.087-.053.205.01.113.062.364.116.558.12.194.003.448.049.565.1.205.09.205.093-.019.101-.274.009-.306.099-.46 1.304a17.973 17.973 0 0 1 -.207 1.296c-.05.208-.118.579-.153.826l-.063.447.451.065c1.582.227 1.49.239 1.751-.22.266-.468.31-.305.122.454-.127.515-.138.519-.89.368zm21.106-.474c.152-.162.124-.351-.313-2.134-.394-1.604-.517-1.966-.684-2.01-.479-.127 2.039-.712 2.586-.6.398.081.74.573.741 1.066 0 .327-.377.842-.792 1.082-.17.098-.068.209.804.879.549.422 1.094.789 1.211.816.173.039.153.063-.107.126a2.601 2.601 0 0 0 -.483.167c-.12.064-.47-.164-1.297-.844-.622-.513-1.134-.965-1.137-1.005-.004-.04.162-.129.367-.198.526-.176.69-.383.69-.869 0-.587-.324-.8-1.06-.697-.638.089-.632.056-.257 1.515.153.593.339 1.329.414 1.636.166.682.228.79.458.799.099.004-.036.068-.299.142l-.744.221c-.244.078-.252.071-.098-.092zm-24.773-.063c-.088-.053-.351-.128-.585-.168-.377-.063-.398-.082-.187-.164.222-.085.233-.137.173-.77-.036-.374-.119-.733-.185-.798-.197-.195-1.379-.417-1.428-.268-.022.068-.155.263-.295.431-.37.447-.475.792-.284.933.11.083-.016.084-.44.006-.328-.061-.596-.149-.596-.196s.068-.085.151-.085c.082 0 .291-.182.462-.405.452-.586 2.151-3.171 2.151-3.272 0-.047-.06-.112-.133-.145s.058-.03.292.006c.234.035.449.086.478.113.03.027.136.786.236 1.687.261 2.347.357 2.919.494 2.966.163.055.154.24-.013.232a.759.759 0 0 1 -.292-.102zm-.805-3.051a16.183 16.183 0 0 1 -.087-.856c-.007-.264-.106-.164-.59.588l-.433.673.452.125c.766.21.749.224.658-.53zm29.396 2.101c0-.061.058-.131.129-.155.092-.031-.003-.582-.343-1.97-.368-1.502-.514-1.937-.66-1.976-.372-.099-.171-.201.848-.429.57-.128 1.31-.303 1.645-.39l.609-.158.108.395c.172.628.135.725-.154.408-.207-.227-.326-.275-.558-.223-.339.075-1.447.396-1.498.434-.055.04.216 1.344.287 1.386.155.09 1.237-.349 1.269-.515.054-.275.232-.209.232.086 0 .145.049.395.109.555.126.336.032.515-.122.234-.139-.252-.652-.219-1.341.086-.056.025.285 1.491.365 1.568.136.131 1.688-.255 1.934-.481.123-.113.224-.32.224-.459 0-.444.167-.273.28.287l.109.541-.434.109-.805.217c-.318.092-.828.221-1.993.504-.132.032-.239.007-.239-.054zm-34.597-.583c-1.39-.348-2.092-.608-1.678-.62.181-.005.259-.101.337-.412l.433-1.755c.182-.743.355-1.43.384-1.528s-.024-.256-.117-.351c-.199-.201-.148-.208.429-.057 1.205.317 2.158.555 2.43.608.283.056.299.086.24.451a5.458 5.458 0 0 0 -.065.526c-.001.074-.049.135-.107.135-.059 0-.107-.116-.107-.257 0-.37-.208-.497-1.166-.714l-.851-.193-.099.393c-.278 1.111-.3 1.043.377 1.197.555.126.621.121.748-.055.191-.266.276-.139.144.215-.06.161-.109.411-.109.555 0 .311-.165.352-.241.059-.055-.214-1.132-.614-1.257-.467-.035.043-.144.414-.241.827-.186.792-.147.919.284.923a.969.969 0 0 1 .38.103c.103.056.426.134.719.174.536.072.787-.04.916-.408.026-.076.084-.104.127-.063.138.13-.274 1.061-.463 1.046-.094-.007-.745-.157-1.447-.332zm-3.528-1.154c-.621-.204-.813-.337-.488-.337.168 0 .273-.144.453-.621l.336-.88c.056-.143.064-.295.018-.337-.047-.042-.503-.228-1.013-.413-1.065-.385-.945-.454-1.367.784-.19.556-.221.759-.123.792.073.025.132.087.132.138 0 .103-.629-.083-.791-.234-.056-.051-.199-.096-.319-.1l-.218-.007.219-.09c.134-.055.289-.296.395-.615.096-.288.3-.864.452-1.28.677-1.845.723-2.017.572-2.112-.265-.167-.015-.228.292-.071.166.085.445.191.621.235.292.074.3.088.098.167-.184.072-.549.866-.713 1.552-.013.052.12.14.296.197.175.056.414.147.531.202.117.056.437.168.71.25l.497.149.276-.757c.215-.588.249-.789.152-.907-.185-.227-.04-.294.243-.112.136.088.415.196.62.239.326.069.345.09.149.163-.148.056-.302.311-.463.769-.133.376-.301.83-.373 1.009-.517 1.277-.723 2.036-.604 2.229.145.235.133.235-.59-.002zm44.078-.011c.138-.089.114-.231-.172-1.052-.957-2.742-1.044-2.947-1.241-2.947-.299 0-.114-.19.268-.275.187-.042.414-.118.504-.169.236-.134 1.457-.528 1.639-.528.263 0 .782.358.959.662.093.161.168.531.168.832 0 .499-.033.571-.429.916-.385.334-.804.507-1.231.507-.235 0-.169-.195.093-.276.131-.04.4-.196.596-.346.34-.259.355-.299.307-.816-.034-.356-.119-.593-.245-.687-.233-.172-.954-.188-1.401-.03l-.322.115.201.561c1.003 2.799 1.108 3.036 1.372 3.111.144.041.238.079.208.085l-.637.227c-.62.23-.899.278-.637.11zm4.042-1.588c.108-.174.001-.467-.709-1.951-.643-1.344-.895-1.767-1.092-1.838-.239-.085-.216-.112.352-.394.335-.166.638-.273.673-.237s.009.065-.06.065c-.068 0-.124.072-.124.16 0 .125.393.949.705 1.481.024.041.472-.144.995-.41l.951-.484-.265-.608c-.33-.758-.44-.895-.725-.898-.141-.001.014-.123.412-.321.763-.382.721-.375.638-.108-.047.147.205.777.8 1.998.716 1.473.907 1.783 1.096 1.786.147.002.002.118-.406.324-.725.366-.766.378-.594.168.098-.121.045-.325-.256-.968-.209-.448-.415-.835-.457-.861-.099-.06-1.789.745-1.881.896-.112.185.728 1.682.934 1.665.098-.009.179.016.179.054 0 .056-.631.395-1.204.648-.048.021-.031-.054.038-.167zm-54.836-1.222c-.522-.127-.866-.32-1.301-.732l-.385-.365.199-.419c.109-.23.199-.469.199-.532 0-.062.048-.113.106-.113.059 0 .107.207.108.459.002.543.056.644.531 1 .245.184.496.269.79.268.496-.002.615-.064.796-.414.207-.397.057-.707-.58-1.207-1.118-.876-1.296-1.478-.627-2.118.321-.308.457-.364.883-.364.512 0 1.289.317 1.814.741l.26.21-.197.442c-.224.505-.376.572-.376.166 0-.401-.157-.64-.588-.899-.486-.291-1.046-.296-1.326-.012-.393.399-.27.684.574 1.337.926.716 1.122 1.171.797 1.846-.287.595-.962.88-1.677.706zm60.465-1.457c.072-.089.102-.271.066-.405-.116-.442-.664-1.214-.979-1.379a2.614 2.614 0 0 1 -.362-.216c-.074-.076-.836-.505-1.241-.699-.186-.089-.368-.211-.405-.272-.037-.06-.172-.109-.3-.109-.166 0-.057-.108.384-.378.715-.438.759-.451.584-.167-.071.116-.107.227-.08.247.278.203 1.201.73 1.278.73.055 0 .099.041.099.091s.126.149.28.22l.28.13-.077-.992c-.089-1.165-.118-1.262-.381-1.306-.145-.024-.063-.11.301-.314l.501-.28.027 1.55.027 1.551.398.647c.309.504.457.649.664.654.246.005.251.016.067.135l-.638.424c-.485.326-.695.385-.493.138zm-64.794-.894c-.144-.097-.328-1.391-.426-2.996-.04-.654-.106-1.31-.145-1.459-.072-.269-.073-.268-.265.108-.106.208-.399.701-.652 1.096-.709 1.108-.855 1.466-.701 1.718.172.28.117.267-.454-.1-.369-.238-.439-.323-.296-.362.103-.028.634-.791 1.18-1.696.791-1.312.979-1.7.926-1.915-.067-.269-.066-.269.229-.091.754.454.796.58.932 2.809.04.653.097 1.278.127 1.387.041.145.26-.146.799-1.06.717-1.213.737-1.268.558-1.469-.164-.184-.166-.209-.016-.209.093 0 .202.054.242.119.04.066.246.195.458.288.361.158.37.173.137.233-.179.046-.515.504-1.197 1.63-.522.861-.995 1.674-1.051 1.808-.108.256-.191.291-.385.161zm66.872-1.1c-.348-.558-.344-.729.01-.446.533.426 1.63.188 1.952-.423.189-.36.087-.872-.22-1.104-.27-.204-.281-.204-.956.036-.376.133-.939.246-1.252.25-.507.007-.595-.028-.823-.317-.422-.536-.3-1.311.292-1.846.369-.335.95-.66 1.317-.739.292-.063.352-.026.605.366.154.24.265.436.247.436a3.87 3.87 0 0 1 -.405-.157c-.982-.417-2.307.828-1.587 1.491.255.234.482.225 1.179-.044.675-.261 1.517-.309 1.764-.101.573.484.618 1.506.091 2.07-.399.425-1.057.804-1.55.892-.373.067-.409.047-.664-.364zm-64.469-.932c0-.035.144-.209.319-.387.176-.178.348-.442.384-.586.073-.298.228-.329.526-.108.202.15.2.159-.06.442-.339.37-1.169.823-1.169.638zm-6.855-.823a1.321 1.321 0 0 1 -.266-.19 8.916 8.916 0 0 0 -.638-.493 11.016 11.016 0 0 1 -.725-.563c-.077-.076-.173-.14-.213-.142-.039-.002-.239-.151-.444-.331-.342-.3-.35-.321-.106-.265.239.055.374-.083 1.329-1.349 1.462-1.939 1.378-1.802 1.222-1.993-.073-.089-.099-.162-.058-.162.1 0 2.716 1.976 2.712 2.049-.001.031-.144.227-.317.435l-.315.378.063-.337c.058-.316.012-.379-.711-.965l-.773-.627-.363.425c-.604.706-.605.73-.069 1.122.361.263.545.332.749.28l.271-.069-.347.491c-.386.546-.491.602-.478.256.005-.156-.15-.358-.462-.602l-.47-.367-.236.305c-.131.167-.361.45-.514.628-.271.319-.36.595-.19.595.047 0 .179.085.292.19s.464.358.779.561c.566.366.575.368.891.184.458-.267.492-.128.076.308-.401.42-.394.418-.689.248zm75.371-.136c.036-.095-.421-.802-1.146-1.777-.972-1.308-1.256-1.622-1.47-1.629-.253-.007-.256-.015-.054-.13.117-.067.392-.264.612-.438.219-.174.398-.267.398-.206s-.049.142-.11.18c-.117.074.229.603 1.263 1.936.33.426.718.933.861 1.127.189.255.321.336.479.296.19-.048.184-.028-.048.159-.146.117-.368.309-.493.426-.27.252-.373.272-.292.056zm.913-1.701c-.455-.157-1.143-.84-1.348-1.34-.231-.562-.207-1.416.056-1.935.256-.504.813-1.041 1.345-1.298l.377-.182.38.386c.209.213.346.421.304.464s-.133.02-.202-.051c-.381-.387-1.453.099-1.781.808-.119.256-.215.552-.213.657.005.399.415 1.087.876 1.472.943.785 2.044.626 2.662-.384.361-.591.498-.652.498-.221 0 .396-.408.989-.938 1.362-.49.345-1.421.466-2.016.262zm-80.196-1.06c-.356-.364-.443-.504-.29-.463.144.038.303-.029.465-.198.409-.426 1.916-2.394 1.8-2.35-.06.023-.858.427-1.772.898-1.068.55-1.7.82-1.766.753-.092-.094.327-1.342 1.08-3.213.116-.288.192-.543.168-.567-.023-.024-.573.501-1.222 1.166-1.007 1.033-1.164 1.24-1.072 1.414.192.365.032.297-.431-.182-.394-.409-.421-.465-.206-.426.354.065 3.016-2.645 2.93-2.982-.032-.122-.026-.222.012-.221.075.001.867.741.867.809 0 .023-.262.761-.584 1.641-.321.88-.584 1.635-.584 1.678-.001.043.72-.293 1.6-.748l1.601-.825.264.288c.144.159.309.289.365.289s.102.043.102.096c0 .052-.081.089-.179.081-.106-.009-.457.337-.86.849-.375.475-.809 1.01-.964 1.188-.774.889-.881 1.061-.819 1.313.034.139.05.249.034.243a11.475 11.475 0 0 1 -.539-.531zm84.173-1.02c.078-.206-.048-.377-1.24-1.692-1.427-1.573-1.375-1.525-1.6-1.466-.321.086-.236-.103.159-.351.199-.125.389-.299.422-.387.085-.225.27-.2.213.029-.029.115.11.36.355.626.221.24.828.909 1.347 1.485.52.577.977 1.049 1.016 1.049.04 0 .164-.07.278-.155.203-.152.203-.165-.044-.888a17.312 17.312 0 0 0 -.444-1.169 47.824 47.824 0 0 1 -.534-1.28c-.211-.525-.417-.875-.544-.923-.189-.071-.18-.099.115-.367l.321-.289 1.968 1.016c1.082.558 2.077 1.031 2.209 1.05.22.031.196.077-.278.52-.38.356-.5.426-.449.259.082-.267-.027-.376-.742-.744-.571-.294-.498-.318-1.282.424-.363.345-.364.331.046 1.285.148.344.22.404.433.363.21-.041.164.036-.263.433l-.969.906c-.487.457-.585.51-.493.266zm1.248-3.764.41-.352-.57-.321c-.734-.414-.942-.498-.942-.381 0 .148.567 1.411.633 1.409.032-.002.243-.161.469-.355zm-90.65-.083a2.48 2.48 0 0 1 -1.129-1.23c-.249-.557-.248-.793.006-1.471.676-1.81 3.013-2.185 4.152-.667.34.454.372.559.372 1.224 0 .637-.041.787-.323 1.195-.508.735-1.108 1.086-1.948 1.141-.582.038-.779.005-1.13-.192zm1.523-.43c.02-.056.092-.103.16-.103.144 0 .573-.455.859-.911.262-.419.266-1.321.008-1.722-.21-.326-.875-.716-1.221-.716-.121 0-.458.123-.748.272-1.017.524-1.465 1.797-.924 2.627.353.543.853.798 1.406.718.233-.034.441-.108.46-.165zm92.662-.284c.042-.163-.114-.369-.649-.854-.387-.352-.929-.849-1.203-1.106-.944-.882-1.173-1.032-1.35-.883-.325.274-.142-.068.242-.453l.398-.398.902.094c.497.052 1.353.147 1.903.21.55.064 1.018.098 1.04.076.022-.023-.309-.349-.734-.725-.426-.376-.853-.779-.948-.896-.103-.127-.305-.213-.497-.213h-.325l.378-.468c.207-.257.389-.468.403-.468l-.022.25c-.035.187.043.324.307.536.195.157.618.532.939.833.322.301.807.729 1.078.95.589.479.749.709.658.95-.054.144-.16.165-.556.111-.863-.118-3.454-.383-3.779-.386l-.315-.004.374.351c1.858 1.743 2.014 1.859 2.38 1.765.147-.037.266-.052.266-.034 0 .019-.212.246-.472.505-.329.328-.456.406-.418.257zm-42.724-.215c-.154-.157-.054-.501.262-.901.311-.393.359-.755.1-.755-.148 0-.527.426-.72.81-.287.571-.571.81-.965.81-.345 0-.361-.016-.292-.297.039-.163.236-.512.436-.774.34-.445.501-1.089.271-1.089-.051 0-.435.461-.852 1.026-.599.809-.814 1.026-1.021 1.026-.533 0-.451-.74.155-1.4.382-.415.642-.773.642-.882 0-.231-.511.128-.956.672-.81.989-.909 1.078-1.231 1.102-.442.032-.439-.239.009-.837.211-.281.434-.623.495-.759.062-.137.238-.315.392-.396.346-.181.403-.221.859-.614l.367-.314-.029-1.932c-.032-2.142-.111-2.748-.43-3.298-.181-.312-.328-.405-.883-.565-1.679-.481-2.641-.782-4.918-1.538-1.344-.446-2.595-.881-2.779-.966s-.392-.155-.462-.155-.278-.069-.463-.153a9.47 9.47 0 0 0 -.919-.331 9.248 9.248 0 0 1 -.797-.277c-.263-.12-.612-.243-3.349-1.179-2.926-1.001-3.342-1.112-6.908-1.846-3.251-.67-4.337-.945-6.006-1.522-2.679-.925-4.263-1.937-6.431-4.105-1.108-1.108-1.64-1.844-1.819-2.517-.178-.669-.066-3.536.167-4.273.422-1.337 1.005-2.295 1.466-2.412l1.09-.292a42.57 42.57 0 0 1 3.88-.862 117.46 117.46 0 0 0 1.754-.319 25.699 25.699 0 0 1 1.647-.222 35.247 35.247 0 0 0 1.754-.23c.976-.17 7.741-.243 9.3-.101 2.268.207 5.953.801 6.696 1.08.147.055.406.131.576.169.18.04.56.33.904.689a4.894 4.894 0 0 0 2.081 1.309c.234.076.471.18.526.232a.448.448 0 0 0 .266.095c.23.001 1.299.554 1.758.91.21.162.505.486.657.719.319.49.46.536.46.15 0-.507-.559-1.516-1.246-2.251-.188-.201-1.223-.727-1.73-.88-.448-.135-1.159-.575-1.496-.925-.349-.363-.346-.457.034-1.234.237-.483.749-1.169 1.4-1.876.986-1.071 2.532-1.403 3.772-.81.327.157.619.317.648.356.059.08.836.548.909.548.175 0-.01-.445-.298-.714-.984-.925-1.984-1.453-2.89-1.527-.776-.063-.838-.145-.684-.909.35-1.742.349-1.821-.016-2.629-.108-.238-.248-.887-.313-1.444-.12-1.03-.306-1.642-.603-1.975-.097-.109-.21-.558-.272-1.081-.189-1.592-.281-1.731-1.36-2.052-1.444-.431-2.256-1.757-1.745-2.851.281-.603.328-.616 1.831-.532l1.37.077.065 1.149c.102 1.787.597 2.85 1.824 3.917.891.775 1.424.997 2.238.93.753-.061 1.831-.515 2.322-.977.374-.353.435-.905.119-1.087a1.129 1.129 0 0 1 -.284-.224c-.045-.062-.338-.052-.762.028-.606.113-.802.103-1.601-.087-1.564-.37-2.592-1.098-2.814-1.992-.065-.264-.099-.543-.075-.622a6.83 6.83 0 0 0 .108-.44l.064-.297 1.353.008c.745.003 1.688.047 2.098.097l2.591.314c1.989.24 2.159.302 2.63.957.4.554.806 1.001.91 1.001.177 0 .077-.361-.227-.819-.484-.728-.471-.991.074-1.551.22-.225.542-.486.718-.58.175-.094.462-.298.638-.453l.318-.282-.744.057c-2.942.227-7.714.174-14.242-.158-2.601-.133-2.711-.161-2.711-.695 0-.173.171-.313.718-.587l1.17-.589c.467-.237 1.256-.906 1.17-.992-.026-.027-.485.097-1.018.275-.625.209-1.188.325-1.581.325-.601 0-.619-.009-1.154-.584-.936-1.006-1.438-2.169-2.394-5.542-.58-2.05-.87-3.87-1.005-6.321-.097-1.753-.247-2.035-1.385-2.607-.683-.343-1.536-1.107-1.536-1.376 0-.044-.461-.777-1.024-1.628-1.019-1.539-1.721-2.888-1.947-3.745-.124-.467-.447-.626-.576-.283-.071.187.191 1.358.627 2.805.388 1.286.476 2.761.207 3.488-.243.654-.67 1.27-1.005 1.448-.674.358-.908.71-.732 1.1.106.238.075.332-.265.803-.339.469-.605.733-1.638 1.624a8.842 8.842 0 0 1 -.612.463l-.371.256.014 1.976c.007 1.088-.011 2.002-.04 2.031-.029.03-.111-.106-.182-.302l-.129-.357-.13.373-.13.373-.2-.344-.2-.344-.235.224c-.303.29-.535.214-1.186-.389-.704-.651-1.017-1.322-1.068-2.287-.038-.718-.018-.809.277-1.243.175-.257.569-.708.876-1.002.685-.656.847-1.033.85-1.974.004-1.086.508-2.19 1.489-3.263.294-.321.332-.43.289-.81-.027-.242-.281-.95-.564-1.574-.456-1.006-.536-1.299-.711-2.592-.432-3.192-.356-4.186.408-5.374l.364-.568h-.257c-.364 0-.985.653-1.312 1.379-.382.847-.421 1.801-.143 3.44.122.72.224 1.57.226 1.891.003.672.28 1.86.695 2.99l.29.789-.451.44c-.507.495-.775 1.05-.959 1.988-.426 2.17-.73 3.07-1.039 3.07-.162 0-.77.632-.776.807-.005.158-.443.661-.634.729-.087.031-.273.014-.412-.039-.232-.088-.248-.141-.199-.658.05-.523.096-.6.666-1.115l.614-.553.071-1.719c.048-1.179.123-1.839.236-2.102.203-.471.715-.924 1.157-1.022l.331-.074-.036-2.555-.036-2.555-.345-.741c-.497-1.065-.433-2.074.213-3.363.852-1.703 3.542-2.738 5.59-2.15.821.236 2.467.781 2.726.904.117.055.548.23.957.39.409.159.994.403 1.299.543.306.139.677.284.825.322s.296.112.328.165c.032.052.202.096.377.096.32 0 2.089-.46 2.485-.647.563-.264 1.881-.654 2.525-.746.832-.12 1.793-.009 2.375.271.522.252.808.218 1.351-.157.245-.169.556-.336.691-.37.224-.057.24-.035.18.245-.075.347.116.801.479 1.134.38.349.665 1.014.598 1.393-.046.258.014.191.259-.291l.319-.625-.314-.32c-.438-.444-.601-.98-.416-1.37.167-.352.415-.357 1.387-.023.727.249 1.448.27 1.733.051.191-.147.192-.159.016-.162-.177-.004-1.556-.603-2.041-.888-.117-.069-.643-.158-1.169-.198s-.813-.081-.638-.091c.175-.009.534-.095.797-.189.487-.173 1.192-.148 1.566.056.765.419 1.642.766 1.933.766.327 0 .833-.255 2.188-1.102.928-.579 1.73-.506 2.286.209.208.267.229.398.191 1.222-.038.808-.09 1.01-.416 1.614-.271.503-.516.788-.898 1.048-1.262.86-1.641 1.32-1.641 1.999-.001.454-.184.637-.374.374-.202-.282-.355-.211-.431.199-.078.421-.115.441-.412.213-.295-.227-.591-.202-.591.05 0 .157-.086.218-.345.243-.281.028-.386.115-.564.466-.138.271-.306.445-.452.467-.469.069-1.586-.665-1.985-1.304-.272-.435-.544-.377-.879.186l-.287.483-.184-.983c-.101-.54-.266-1.074-.365-1.185-.202-.227-.593-.278-.516-.067.027.074.067.329.089.567s.102.982.178 1.654c.136 1.201.144 1.225.466 1.39.18.092.674.431 1.099.753 1.588 1.204 1.73 1.264 3.116 1.312l1.232.044v.301c0 .356.323.781 1.017 1.338l.503.405-.058-.358c-.122-.738-.153-.812-.388-.926-.207-.1-.184-.108.157-.057 1.143.17-.289-.998-1.546-1.262-.339-.07-.805-.096-1.036-.056-.34.058-.421.04-.421-.096 0-.183.382-.61.935-1.046.347-.274.349-.282.236-.798-.063-.286-.099-.537-.079-.557.045-.046 2.272-.367 2.544-.367.184 0 .181.022-.038.323-.129.178-.208.35-.175.383s.364-.011.736-.1c.723-.171.65-.188 1.333.312.104.077.176.062.243-.048.128-.208-.047-.525-.372-.676a1.202 1.202 0 0 1 -.427-.382c-.156-.241-.155-.278.007-.46.144-.162.232-.179.479-.091.167.059.382.228.477.376.233.362.561.687.691.687.249 0 .044-.762-.348-1.292l-.196-.265.564-.191c1.385-.467 2.698-.503 3.17-.087.469.414.197 1.713-.586 2.796-.367.507-.352.768.045.768.432 0 .84-.386 1.423-1.346.476-.784.498-.856.498-1.621 0-.44-.048-.929-.106-1.086-.105-.28-.1-.284.239-.213.314.067 1.439.57 1.568.701.029.03.259.197.511.37 1.072.74 2.176 2.146 2.526 3.22.165.502.174 1.036.102 6.049l-.078 5.499.356.319.66.607c.34.321 1.45 1.694 1.45 1.793 0 .034.142.277.316.539.704 1.059 1.448 3.176 1.85 5.26.098.507.249 2.274.338 3.943.164 3.1.408 7.576.792 14.528l.423 7.724c.113 2.079.256 3.991.318 4.249.144.595.471 1.247.894 1.782.426.54 1.864 1.642 2.526 1.936.283.126.515.268.515.316 0 .049.049.088.11.088.06 0 .551.213 1.089.473.539.261 1.195.569 1.458.685 1.161.512 1.807.837 1.807.908 0 .106-.774.771-1.438 1.236l-.548.383-.468-.188c-.437-.174-1.998-1.076-2.117-1.222a2.672 2.672 0 0 0 -.369-.27 5.359 5.359 0 0 1 -.784-.601 13.06 13.06 0 0 0 -.551-.445 8.734 8.734 0 0 1 -.634-.543 28.45 28.45 0 0 0 -.91-.818c-1.727-1.493-1.679-1.427-1.824-2.484-.124-.904-.316-3.337-.774-9.806l-.847-11.936c-.261-3.672-.534-7.563-.576-8.21-.289-4.505-.346-4.822-1.165-6.424-.326-.637-.677-1.1-1.349-1.782-1.127-1.142-1.116-1.134-1.999-1.516-1.117-.483-1.94-.594-4.427-.594-2.442 0-10.358.304-13.096.502-1.858.135-2.096.09-2.028-.381.024-.171.141-.242.51-.307l1.009-.19c.293-.058 1.868-.182 3.501-.276s3.056-.219 3.162-.276c.159-.087.193-.243.194-.885 0-.428.031-1.035.068-1.349l.067-.569 1.813-.916 1.812-.915h.936c.818 0 .937.023.945.189l.049.459c.022.148.073.838.113 1.533l.074 1.263-.308.07-.627.159c-.176.049-.75.12-1.276.157-1.148.081-2.266.264-2.338.382-.114.188.369.206 2.784.105 1.803-.075 2.542-.143 2.602-.24.192-.307-.038-4.586-.291-5.394-.061-.195-.079-.193-.453.038-.215.133-.421.285-.457.34-.037.054-.295.124-.575.156-.411.047-.535.021-.649-.138-.231-.321-.714-.247-1.12.173-.196.203-.482.482-.636.62-.318.287-1.621.663-2.304.666-.623.002-2.071-.382-2.754-.73-.565-.289-.759-.54-.319-.413 1.109.321 1.821.303 2.328-.058.155-.111.335-.202.399-.202.239 0 .104-.194-.229-.331-.19-.079-.596-.329-.902-.556-.501-.372-1.198-.649-1.198-.477 0 .037.18.271.399.52.277.314.334.425.186.365l-.501-.204c-.357-.145-.512-.018-.235.195.368.283.084.173-.542-.211a7.943 7.943 0 0 0 -1.102-.558c-.27-.101-.538-.219-.596-.263-.132-.098-1.89-.498-3.268-.745-.628-.112-1.119-.261-1.245-.377-.244-.224-.498-.969-.59-1.732a22.797 22.797 0 0 0 -.234-1.382c-.128-.637-.14-.873-.047-.967.208-.212.137-.672-.208-1.336-.522-1.005-.959-1.384-1.075-.933-.026.104.002.553.065.999.062.446.114 1.539.115 2.43.002 1.409-.024 1.677-.209 2.052-.216.438-.61.728-.858.631-.178-.069-.406-.566-.995-2.169-.506-1.378-.948-2.081-1.574-2.498-.761-.509-.759-.117.004.657.876.888 1.07 1.496 1.296 4.053.133 1.502.2 1.852.464 2.445.17.38.398.787.507.903.238.254.328.424 2.045 3.864 1.231 2.465 1.943 4.079 2.573 5.833.128.357.241.659.251.672s.278-.022.596-.078a175.95 175.95 0 0 1 4.299-.668c1.124-.154 4.649-.153 5.275.002.394.097.616.089 1.11-.042.34-.09.688-.223.774-.295.109-.092.726-.131 2.078-.129 1.574.001 2.04.038 2.561.202 1.559.492 2.551 1.436 3.017 2.875.488 1.502.662 2.672.725 4.863.102 3.587-.158 5.007-1.509 8.261-1.023 2.462-1.448 3.718-1.646 4.861-.167.963-.384 1.708-1.008 3.456-.276.773-.618 1.745-.761 2.161s-.303.853-.355.972c-.372.844-.425 1.893-.228 4.537.207 2.769.237 4.015.127 5.173-.213 2.227-.87 3.92-1.791 4.615-.594.447-1.866 1.089-2.666 1.343-.531.169-.564.199-.502.466.189.817.581 3.239.694 4.281.07.654.296 1.893.502 2.755.35 1.458.371 1.648.315 2.754-.069 1.337-.213 1.962-.823 3.568l-.424 1.114-.493.171c-.868.3-.94.217-.515-.594.351-.67.207-.915-.244-.412a3.838 3.838 0 0 0 -.505.744c-.098.208-.231.414-.296.458-.147.099-.642.106-.737.01h.001zm-.612-9.983c.409-.253 1.017-.84.946-.912-.026-.026-.315.009-.642.079-.641.137-.535.163-2.077-.527-.309-.138-.596-.253-.638-.255-.042-.001-.268-.097-.502-.212s-.466-.21-.515-.212c-.05-.002-.241-.074-.425-.159-.513-.236-2.518-.849-2.579-.788-.061.063 1.185.692 2.19 1.105 1.318.542 2.221 1.053 2.784 1.573.636.59.91.648 1.458.308zm-.453-4.953c.769-.05 1.486-.144 1.595-.208.188-.111.187-.116-.016-.123-.858-.026-3.18-.487-3.827-.759a8.07 8.07 0 0 0 -.638-.215 7.934 7.934 0 0 1 -.875-.331c-.248-.114-.478-.207-.511-.207s-.285-.103-.559-.228l-.978-.444a76.783 76.783 0 0 1 -1.434-.677c-.812-.392-1.733-.822-2.658-1.244-.65-.296-1.738-.73-1.987-.793-.157-.039-.731-.378-1.275-.753l-2.69-1.855a95.705 95.705 0 0 1 -2.817-2.02c-1.675-1.271-2.075-1.38-5.527-1.501-1.49-.052-2.833-.124-2.984-.16-.201-.047-.404.025-.767.274-1.217.835-1.701 2.449-1.094 3.653.293.58.601.88.943.916.201.022.231-.02.202-.289-.018-.173-.175-.592-.348-.93s-.321-.79-.329-1.004c-.018-.492.434-1.184 1.017-1.559.414-.265.433-.267 1.544-.148.619.065 1.986.172 3.037.237l1.911.118 1.012.546c1.033.558 2.932 1.829 3.495 2.339.172.156.493.429.714.607.22.179.452.376.515.439.415.417 1.905 1.668 1.988 1.668.055 0 .613.248 1.239.551.626.304 1.497.721 1.936.927.438.205 1.036.489 1.328.63.781.376 1.752.808 1.817.808.031 0 .305.115.608.255.992.458 2.826 1.106 4.165 1.472.422.115.606.116 2.248.009zm9.994-48.912c-.032-.223-.132-1.462-.223-2.754-.215-3.078-.476-4.137-1.285-5.231-.427-.576-.818-.907-1.503-1.269-.367-.195-.569-.378-.613-.555-.119-.48-.428-.326-.626.313-.099.317-.179.685-.179.818 0 .502 1.043 2.029 1.638 2.397.304.189.913.284.913.143 0-.143-.549-.993-.867-1.342-.906-.994-1.072-1.199-1.018-1.253.084-.085.831.331 1.141.635 1.269 1.248 1.4 1.547 1.551 3.527.228 2.992.376 4.703.419 4.841.024.074.193.135.377.135.325 0 .332-.011.275-.405zm-8.734-5.428c.037-.06-.066-.16-.228-.222-.161-.063-.517-.361-.79-.663-.473-.522-.736-.607-.736-.237 0 .089.247.402.549.696.538.525 1.038.701 1.205.426zm-18.771-3.39a9.837 9.837 0 0 1 -.813-.985 15.302 15.302 0 0 0 -.529-.702c-.099-.093.2.461.584 1.08.489.79.759 1.077.946 1.005.117-.046.072-.142-.188-.398zm.108-1.771c-.877-1.531-2.044-3.37-2.139-3.371-.093-.002.392.906 1.116 2.09.986 1.61 1.564 2.606 1.576 2.715.007.06.035.022.062-.083.028-.11-.234-.687-.615-1.351zm2.348.632c0-.054-.132-.237-.292-.405-.724-.755-1.721-2.194-2.197-3.168-.311-.635-.623-1.029-.965-1.215-.177-.096-.193-.09-.098.037.063.084.779 1.173 1.59 2.421.811 1.247 1.525 2.304 1.586 2.347.155.112.376.102.376-.016zm.333-1.293c-.299-.892-.31-1.172-.068-1.766.053-.131.027-.189-.083-.189-.173 0-.288.22-.288.548 0 .436-.215.235-1.329-1.241-.569-.755-.797-.932-.797-.62 0 .163.701 1.083 1.749 2.294.335.388.802 1.217.802 1.424 0 .276.241.805.281.619.02-.089-.101-.57-.267-1.069zm15.611-3.361c.194-.277.211-.376.114-.676-.108-.333-.497-.698-.616-.578-.03.031-.001.212.064.402s.118.533.118.761c0 .229.021.416.046.416.026 0 .149-.146.274-.325zm1.052-1.09c.008-.313-.056-.446-.329-.675-.454-.382-.553-.361-.297.065.116.193.21.445.211.559 0 .115.059.375.132.579.125.352.135.358.202.116.038-.14.075-.43.08-.644zm-56.054 76.569c-.174-.252-.146-.305.821-1.574.475-.623.608-.971.268-.696-.075.06-.327.167-.561.238a9.11 9.11 0 0 0 -.922.352c-.51.231-.792.211-.896-.064-.034-.09.311-.695.82-1.434l1.23-1.789c.194-.282.354-.646.356-.81l.003-.298.204.27.342.436c.462.557.461.555.164.479-.248-.063-.327-.002-.736.588l-.971 1.384c-.282.4-.473.739-.425.755s.515-.133 1.039-.33c.87-.329.983-.405 1.311-.888.277-.41.345-.602.3-.855l-.057-.327.182.267c.1.148.313.421.474.609.344.401.361.472.095.401-.13-.034-.279.053-.434.254-.45.582-1.813 2.509-1.813 2.562 0 .066.648-.149.797-.264.058-.045.392-.166.742-.269s.709-.228.798-.278c.088-.049.345-.164.571-.254.368-.148.403-.195.346-.462l-.064-.298.185.268c.102.147.269.354.371.459.245.252.237.401-.019.333-.197-.052-1.367.324-3.412 1.096-.955.361-.956.361-1.109.139zm101.114-.975a25.303 25.303 0 0 0 -.398-.29c-.333-.238-.278-.277.335-.238.523.033.585.009.951-.363.5-.508.607-.947.325-1.333-.348-.475-.79-.439-1.499.124-.33.263-.705.534-.833.602-.595.319-1.299 0-1.523-.691-.103-.316-.091-.472.068-.923.179-.505.989-1.502 1.221-1.502.138 0 .835.47.837.564.001.043-.136.051-.303.016-.875-.178-1.821 1.264-1.202 1.833.349.321.667.228 1.298-.376.859-.823 1.491-.935 2.097-.371.372.347.396.408.393.999-.003.494-.06.708-.266.997-.381.536-.656.825-.919.966-.287.154-.36.152-.582-.014zm-66.536-1.209c-.133-.136-2.189-.281-5.246-.371-3.392-.1-3.532-.127-4.366-.821-.693-.577-1.171-1.314-1.33-2.051-.077-.357-.142-1.304-.144-2.106-.007-1.883.184-2.465 1.147-3.489.783-.833 1.205-1.147 1.983-1.474.8-.337 2.402-.429 3.203-.184.314.095.881.251 1.261.346 1.107.276 2.575.83 2.85 1.076.018.016-.161.29-.399.608-.626.835-.808 1.667-.493 2.246.143.261.148.257.482-.416.186-.375.528-.87.76-1.101.407-.405.45-.421 1.136-.42.978.001 2.544.34 4.264.923.795.269 1.516.528 1.604.574.088.047.733.268 1.435.492.701.225 1.371.45 1.488.501.117.052.499.172.85.267l1.435.39c.824.224.977.272 3.426 1.073 1.441.471 1.462.483 1.621.885.197.498.21 1.341.024 1.53-.091.092-1.061.218-2.896.375-2.655.227-4.194.368-9.615.88-2.941.278-4.385.364-4.48.267zm35.41-1.224c-.797-.4-.955-.515-.749-.544.396-.057 1.074.186 1.52.545.367.295.511.527.318.512-.043-.003-.534-.234-1.089-.513zm1.051-.599c-.384-.207-1.51-.564-2.273-.72-.673-.138-1.627-.497-2.603-.979-.633-.313-.806-.24-.42.178.133.144.222.278.198.298-.025.02-.308.115-.63.21l-1.488.445c-1.795.539-3.2.694-3.882.428-.074-.029-.168-.28-.208-.558a23.946 23.946 0 0 0 -.269-1.37c-.108-.475-.277-1.511-.377-2.302-.194-1.532-.123-2.588.218-3.26.424-.832 1.363-1.438 1.941-1.252.113.037.558.612.99 1.28.93 1.437 2.142 2.708 2.974 3.119.319.157.938.337 1.377.401.775.111 1.588.426 1.887.73.081.082.189.15.24.15.05 0 .246.218.435.486.356.503.52.605.52.322 0-.49-1.03-1.542-1.913-1.955l-.932-.436c-.426-.199-.797-.362-.826-.362-.03 0-.256-.131-.503-.29-.762-.494-1.489-1.329-1.769-2.034a45.504 45.504 0 0 0 -.492-1.186c-.519-1.192-.52-1.203-.214-2.304.576-2.072.697-3.582.697-8.673v-4.617l.411-1.061c.469-1.211 1.11-2.802 1.385-3.437.103-.237.349-.845.547-1.35.197-.505.373-.938.39-.963.114-.167.157.209.516 4.474.045.541.191 2.875.578 9.235.114 1.872.262 4.132.33 5.023l.123 1.62.584.732c.322.402 1.089 1.228 1.705 1.836 1.441 1.421 1.451 1.43 2.259 2.128.377.325.788.69.915.81.126.121.495.438.818.705.324.268.591.516.594.553.011.144-1.28.733-2.333 1.063-1.301.408-1.913.659-1.913.784 0 .049.244.405.542.791.812 1.049.74 1.776-.129 1.308zm-73.731-2.67c-.413-.089-.708-.338-.926-.783-.216-.439-.199-.791.056-1.211.298-.49.709-.735 1.235-.735.82 0 1.355.575 1.355 1.457 0 .448-.051.583-.322.859a1.498 1.498 0 0 1 -1.398.413zm105.789-.468c-.404-.181-.628-.446-.803-.949-.262-.755.339-1.584 1.214-1.674.575-.06 1.125.23 1.375.722.586 1.156-.61 2.429-1.786 1.901zm-26.885-2.351c-.231-.124-.485-.292-.566-.373-.08-.082-.183-.149-.229-.149-.045 0-.18-.085-.299-.189a23.83 23.83 0 0 0 -.623-.513c-1.143-.911-2.262-2.021-3.801-3.773l-1.131-1.288v-.581c0-.32-.049-1.029-.109-1.575-.059-.546-.182-3.228-.272-5.961s-.253-7.497-.363-10.586c-.109-3.09-.274-7.999-.367-10.91-.183-5.733-.265-6.506-.808-7.646-.638-1.337-1.729-2.457-2.705-2.775a20.072 20.072 0 0 1 -.649-.223c-.997-.378-5.683-.397-12.523-.05-3.606.183-3.716.183-3.856-.012-.167-.233-.407-.993-.335-1.066.113-.115 15.003-.725 15.822-.648 1.138.108 1.681.278 2.846.89 1.335.702 2.304 1.807 2.891 3.297.305.774.323.916.537 4.408.192 3.124.443 7.094.572 9.063.054.821.386 5.981.428 6.643.104 1.648.393 6.041.437 6.643.111 1.52.376 5.562.495 7.542l.125 2.087.87.804a99.608 99.608 0 0 1 1.339 1.262c.49.478 1.309 1.203 2.286 2.026.406.343 1.918 1.49 2.449 1.859l.555.385-1.033.699c-.962.651-1.45.95-1.53.939a5.655 5.655 0 0 1 -.453-.23zm-83.804-3.717c-.181-.395-.33-.736-.33-.759s-.215-.506-.478-1.075c-.523-1.129-.551-1.236-.328-1.236.083 0 .166-.038.186-.085.058-.139.833-.564.833-.457 0 .054-.12.23-.266.39-.311.34-.322.503-.071 1.016.205.42.316.432 1.023.107.236-.109.788-.353 1.227-.543 2.003-.867 1.967-.842 1.917-1.331-.034-.328.183-.099.32.337.07.222.222.564.339.761.233.392.2.559-.058.296-.191-.194-.324-.208-.58-.061-.177.102-1.043.497-2.039.93-.261.114-.728.328-1.04.476l-.566.27.242.486c.231.463.267.488.747.519.278.018.505.074.505.123s-.226.147-.503.218c-.277.07-.559.175-.626.232-.088.073-.219-.105-.454-.614zm114.755.04c-.494-.262-.509-.409-.041-.409.681 0 1.236-.694 1.236-1.545 0-.503-.167-.743-.615-.882-.261-.081-.583.204-1.438 1.269-.532.662-1.037.835-1.69.58-.934-.365-1.223-1.494-.669-2.615.254-.515.837-1.24.99-1.233.041.002.266.098.499.213.234.115.485.21.558.212s.133.052.133.112c0 .059-.233.108-.519.108-.464 0-.564.046-.947.436-.789.801-.669 1.868.235 2.097.39.1.421.087.776-.324 1.257-1.451 1.393-1.561 1.942-1.561.814 0 1.229.532 1.214 1.557-.011.705-.235 1.277-.739 1.885-.318.385-.375.391-.925.1zm-116.558-4.462c-.263-.815-.277-.938-.075-.666.141.188.182.184.98-.098.459-.162.873-.329.922-.372.048-.043-.039-.412-.194-.82a86.243 86.243 0 0 1 -.398-1.067c-.169-.477-.22-.505-.62-.344l-.869.336c-.362.135-.505.247-.505.395 0 .402-.193.201-.319-.333-.07-.297-.171-.567-.223-.6-.053-.033-.096-.138-.096-.233 0-.154.021-.153.198.009.186.171.249.163 1.089-.148l1.052-.395c.087-.036.66-.243 1.271-.461.904-.321 1.123-.441 1.169-.639.045-.192.117-.082.338.517.154.419.24.762.191.762s-.132-.078-.184-.173c-.073-.133-.144-.148-.298-.064-.111.061-.576.242-1.032.403-.48.169-.812.344-.787.414l.397 1.148c.194.564.365 1.042.379 1.062.044.062 1.846-.599 2.011-.739a.503.503 0 0 0 .166-.309c.006-.154.316.621.491 1.228.05.177.036.192-.08.081-.171-.162-.46-.174-.712-.029-.102.059-.759.308-1.46.553l-1.807.634c-.39.137-.541.249-.566.419-.059.404-.194.255-.429-.472zm118.365.563c-.537-.118-.719-.393-.213-.32.381.055.632-.144.875-.697l.198-.448-.922-.345c-3.075-1.149-3.248-1.195-3.52-.939-.163.154-.175.204.215-.887.206-.577.26-.654.309-.442.033.14.13.291.217.335.476.238.995.436 2.283.87.35.118.733.26.85.316.725.345.786.341.956-.073.231-.56.198-.857-.127-1.164-.158-.149-.266-.292-.239-.319.072-.074 1.164.475 1.164.584 0 .279-1.316 3.668-1.419 3.655zm1.78-4.91-.532-.163.432-.15c.347-.12.478-.245.664-.636.319-.666.308-1.279-.028-1.62-.259-.264-.523-.326-.847-.2-.093.037-.361.438-.596.892s-.554.971-.708 1.149c-.249.287-.348.324-.874.324-.862 0-1.381-.473-1.562-1.425-.14-.738.658-2.615 1.026-2.412.085.047.359.12.607.162.418.07.544.273.169.273-.65 0-1.312.814-1.312 1.616 0 .796.862 1.377 1.407.949.094-.074.349-.488.565-.919.217-.432.563-.935.77-1.12.323-.288.437-.327.817-.284.809.093 1.224.667 1.224 1.692 0 .657-.311 1.728-.562 1.931-.085.069-.31.049-.66-.058zm-122.271-2.594a63.906 63.906 0 0 1 -.44-1.877c0-.037.203-.123.452-.193.248-.07.511-.153.584-.184.258-.11.13.183-.133.305-.211.098-.265.202-.265.511 0 .346.351 1.807.461 1.919.024.024.39-.037.814-.135l.77-.178-.062-.46c-.085-.633-.28-1.029-.506-1.029-.104 0-.219-.048-.255-.108s.044-.108.18-.109c.135-.001.437-.07.67-.153.496-.176.582-.14.334.137-.156.175-.162.274-.052.784.069.321.164.627.21.681.048.057.465-.007 1.001-.153.984-.269.948-.224.749-.917a17.19 17.19 0 0 1 -.181-.777c-.145-.679-.418-1.005-.842-1.005-.397 0-.413-.18-.023-.256l.629-.123c.281-.055.348-.028.409.167.115.369.901 3.604.901 3.712.001.054-.088.016-.196-.083-.18-.166-.252-.168-.824-.023l-1.317.325c-2.053.495-2.445.629-2.445.833 0 .11-.041.201-.091.201s-.289-.816-.532-1.812zm123.904-1.212c-.035-.246-.132-.292-1.102-.524a37.844 37.844 0 0 1 -1.556-.404c-.933-.283-2.036-.434-2.085-.286-.101.31-.214.102-.117-.218.058-.193.13-.497.16-.675.062-.367.25-.632.25-.352 0 .283.016.289 2.073.784.584.141 1.369.333 1.743.428.63.158.694.158.876-.009.242-.223.242-.176-.007.77-.14.536-.209.678-.236.487zm-2.346-2.883c-.044-.17-.174-.245-.523-.299-1.294-.2-1.592-.303-1.559-.537a.303.303 0 0 1 .271-.259c.28-.04.282-.051.082-.613-.308-.871-.141-1.684.488-2.378.581-.641 1.04-.84 1.922-.834 1.127.007 2.002.556 2.45 1.537.389.852.274 2.524-.214 3.123-.16.197-.258.217-.743.157-.531-.066-.79-.255-.349-.255.349 0 .928-.685 1.043-1.232.345-1.642-.963-2.853-2.652-2.457-.99.232-1.578.91-1.572 1.811.005.677.266 1.014.876 1.127.466.087.715-.012.715-.289 0-.081.038-.148.085-.148.089 0-.052 1.198-.185 1.561-.074.204-.079.204-.135-.015zm-117.588-1.281c-.104-.164-.572-.271-3.645-.831-1.083-.197-1.324-.213-1.397-.092-.093.153-.122.093-.257-.532-.055-.255.072-.346 2.195-1.561 1.24-.709 2.289-1.34 2.33-1.402.09-.135-.015-.627-.154-.72-.054-.036-1.111-.093-2.348-.125-1.858-.049-2.271-.033-2.368.093l-.159.152c-.023 0-.041-.296-.04-.658l.003-.657.901-.373c.496-.205.997-.416 1.114-.469l.903-.393s.727-.327.771-.365c.045-.037-.781-.381-1.833-.764l-1.914-.695.012-.649c.007-.356.036-.556.064-.444.049.192.135.2 1.396.133 2.253-.12 3.441-.297 3.499-.523.108-.418.185-.151.193.672.006.475-.008.864-.029.864s-.084-.122-.14-.272c-.089-.239-.149-.265-.502-.218-.221.029-1.059.083-1.863.12-.804.038-1.483.104-1.51.148-.027.043.488.261 1.143.483s1.287.445 1.404.496c.117.05.452.169.744.263 1.108.357 1.062.548-.266 1.1-.497.207-1.047.441-1.222.52-.175.08-.438.18-.585.223a7.4 7.4 0 0 0 -.69.268l-.585.249c-.088.033.151.064.531.069s1.304.04 2.052.079c1.332.069 1.362.066 1.421-.162.088-.343.282-.285.215.064-.057.293.194 2.447.306 2.632.108.177-.09.096-.229-.094-.111-.152-.177-.165-.338-.065-.11.068-.452.258-.759.421l-.559.297.075.659c.123 1.082.136 1.098 1.023 1.223.868.123.939.108.939-.192 0-.115.048-.209.106-.209s.106.191.106.425c0 .233.047.549.104.702.114.303.011.375-.157.11zm-2.507-1.734c-.044-.332-.099-.623-.122-.646-.066-.067-1.622.784-1.622.887 0 .085 1.071.319 1.604.35.208.013.216-.022.14-.591zm120.678-2.745c-1.195-.431-1.837-1.318-1.835-2.532.001-.529.062-.762.323-1.225.178-.315.44-.626.584-.693.143-.066.261-.156.261-.198 0-.132.913-.32 1.508-.312.728.011 1.137.168 1.718.663.635.54.919 1.162.919 2.014 0 1.16-.626 2-1.736 2.328-.73.216-1.045.208-1.742-.045zm2.051-1.002c1.621-1.11.906-3.21-1.093-3.21-2.035 0-3.051 2.238-1.49 3.28.413.275.518.296 1.3.263.716-.031.918-.083 1.283-.333zm-99.76-2.859c.001-.044.177-.202.393-.351.58-.399 1-.9 1.383-1.647.356-.694.374-.883.058-.594-.103.094-.38.249-.617.345-.39.157-.474.158-.892.009-.568-.204-.872-.51-1.104-1.112a2.272 2.272 0 0 1 .512-2.444c.373-.38.688-.497 1.33-.497.64 0 .956.117 1.326.494 1.006 1.022.881 2.838-.301 4.357-.666.855-2.091 1.839-2.088 1.441zm1.677-2.896c.764-.543.731-2.121-.058-2.751-.322-.257-.948-.279-1.277-.044-.724.515-.742 2.018-.033 2.738.272.276 1.017.307 1.368.057zm2.412 2.865c-.07-.116.101-.221.723-.446.612-.221 1.302-.757 1.515-1.176.204-.4.2-1.179-.007-1.479-.369-.536-1.007-.656-2.104-.395l-.301.072.076-1.283c.041-.706.096-1.32.121-1.365.025-.044.739-.081 1.588-.081h1.542l-.034.297-.034.297-1.288.031-1.289.03-.065.402a5.954 5.954 0 0 0 -.067.764c-.001.302.03.35.185.287.102-.042.455-.101.785-.133.488-.048.689-.013 1.089.191.27.137.573.374.672.527.231.356.234 1.249.005 1.69-.236.455-.896 1.087-1.35 1.294l-.59.27c-.361.167-1.114.3-1.172.206zm-8.553-.186c0-.046.107-.131.239-.189.236-.105.239-.138.269-2.429.016-1.278.004-2.432-.029-2.566-.036-.15-.139-.243-.269-.243-.116 0-.21-.048-.21-.108 0-.059.062-.108.139-.108s.337-.097.579-.216.491-.216.552-.216c.075 0 .111.958.111 2.927 0 2.835.007 2.928.213 2.983.485.129.154.247-.691.247-.497 0-.903-.037-.903-.082zm13.817 0c0-.046.108-.131.239-.189.236-.105.24-.138.269-2.429.016-1.278.004-2.432-.028-2.566-.036-.15-.139-.243-.269-.243-.116 0-.211-.048-.211-.108 0-.059.065-.108.143-.108.079 0 .282-.068.452-.151a4.56 4.56 0 0 1 .548-.223l.239-.072v5.853l.266.102c.146.057.265.128.265.16 0 .031-.43.056-.956.056s-.957-.037-.957-.082zm86.797-1.889a47.433 47.433 0 0 1 -.114-1.971c-.052-1.242-.04-1.381.096-1.203.145.19.283.197 2.313.127 2.347-.081 2.53-.105 2.53-.336 0-.085.038-.155.086-.155.047 0 .092.401.099.891.009.594-.018.814-.079.66-.05-.128-.136-.261-.191-.295-.101-.063-4.294.134-4.365.205-.021.022-.003.481.038 1.022.083 1.063.187 1.266.704 1.371.54.109.328.251-.377.251h-.683zm-117.514-1.203c0-.084-.153-.179-.346-.215-.526-.099-4.238-.288-4.344-.221-.051.032-.093.128-.093.214s-.036.156-.08.156c-.084 0 .034-3.226.133-3.646.05-.216.123-.243.646-.243.365 0 .564.041.523.108-.036.059-.153.108-.259.108a.438.438 0 0 0 -.302.135c-.112.139-.337 2.212-.249 2.3.026.027.416.05.866.05h.817l.019-.757c.015-.603-.013-.756-.138-.756-.086 0-.187-.048-.223-.108-.041-.068.194-.108.632-.108.66 0 .927.13.501.243-.154.041-.211.198-.266.736-.039.376-.034.717.01.757.044.041.491.106.994.146l.914.071.069-.733c.037-.404.068-.909.069-1.124 0-.454-.34-.96-.645-.96-.113 0-.205-.055-.205-.121 0-.079.118-.098.332-.055.183.038.496.068.697.068h.364l-.058.891c-.032.49-.086 1.414-.122 2.053-.035.638-.108 1.161-.16 1.161-.053 0-.096-.068-.096-.15zm118.711-3.189c-1.236-.491-1.731-1.263-1.671-2.606.048-1.062.359-1.566 1.242-2.012.756-.383 1.845-.424 2.505-.095 1.313.654 1.908 2.207 1.327 3.463-.541 1.168-2.135 1.754-3.403 1.25zm1.978-.921c1.685-1.003 1.176-3.302-.731-3.302-.971 0-1.82.468-2.199 1.211-.472.928-.049 2.03.912 2.377.453.163 1.517.012 2.018-.286zm-120.317-.622c-.097-.226-.248-.271-1.648-.482-.848-.128-1.852-.285-2.232-.348-.654-.108-.701-.102-.884.125-.19.236-.192.23-.122-.408.039-.357.156-1.06.261-1.562.161-.77.245-.963.536-1.228.304-.275.405-.307.832-.258.384.044.559.137.835.443.192.213.35.497.351.632.003.477.125.513.715.208 1.882-.972 2.087-1.128 2.028-1.548-.038-.278.059-.255-3.149-.747-1.484-.228-1.524-.229-1.681-.031-.153.192-.159.188-.107-.068.03-.149.088-.536.13-.862.066-.514.09-.56.183-.348.114.26.162.277 1.294.454l1.701.27c1.34.214 1.784.233 1.835.077.097-.298.211-.104.128.22-.05.193-.145.767-.211 1.276s-.153.975-.192 1.037c-.04.061-.622.39-1.294.73-.673.34-1.268.663-1.324.718-.255.254-.377.093-.377-.498 0-.492-.047-.647-.261-.864-.549-.559-1.364-.238-1.501.59-.035.213-.086.47-.113.572-.035.128.026.203.195.24.212.047 2.535.401 3.732.568.312.044.442.011.566-.144.149-.186.155-.172.086.177-.041.208-.104.587-.14.843-.06.425-.075.444-.172.216zm47.903-2.153a27.082 27.082 0 0 1 -1.136-1.439 14.65 14.65 0 0 0 -.45-.6c-.131-.163-.414-.68-.63-1.147l-.394-.851-.079-1.999a134.93 134.93 0 0 1 -.087-4.06 114.014 114.014 0 0 0 -.078-3.727l-.07-1.664-.833-.832c-.737-.736-.834-.877-.834-1.224 0-.43.037-.436.491-.08.168.133.604.463.967.735 1.171.877 1.452 1.403 1.558 2.913.055.772.332 2.915.441 3.403l.206 1.026c.498 2.596 1.738 6.457 2.615 8.147.407.785.413 1.223.02 1.407-.161.075-.562.162-.892.193-.537.05-.623.029-.815-.201zm68.588-1.736c-.44-.53-.583-.969-.583-1.791 0-.628.046-.811.306-1.229.366-.586.812-.929 1.472-1.131 1.739-.531 3.347.575 3.604 2.48.106.789.007.999-.539 1.139-.665.17-.791.148-.51-.091.133-.112.315-.382.404-.599.246-.597-.012-1.415-.612-1.936-.407-.354-.498-.386-1.118-.386-.739 0-1.477.299-1.912.774-.285.31-.564.962-.564 1.316 0 .314.266.986.551 1.394.114.163.185.297.156.297a.91.91 0 0 0 -.205.06c-.092.036-.273-.084-.45-.297zm-118.291-3.171c-.672-.338-.929-.589-1.242-1.208-.366-.722-.356-1.936.02-2.621.244-.445.297-.484.634-.456.872.071 1.076.253.43.384-.787.16-1.151 1.637-.605 2.454.741 1.108 2.663 1.181 3.615.137.349-.382.528-1.155.385-1.654-.146-.507-.14-.541.091-.541.285 0 .459.512.428 1.258-.033.767-.165 1.112-.638 1.673-.731.865-2.056 1.109-3.118.574zm116.914-1.758a55.993 55.993 0 0 0 -.212-.883c-.667-2.569-.684-2.659-.441-2.32.135.187.203.194.771.083.948-.184 2.08-.454 2.377-.567.146-.055.537-.154.87-.221.499-.099.619-.167.693-.391.072-.219.174.075.54 1.546.248.999.45 1.871.449 1.938-.001.066-.139.149-.308.183l-.611.134-.305.072.361-.315.36-.315-.254-1.055-.254-1.056-.425.066a9.71 9.71 0 0 0 -.831.176c-.386.104-.403.127-.338.455.154.782.282 1.047.538 1.112.372.095.232.218-.339.298-.273.038-.562.124-.641.19-.202.171-.178-.01.033-.248.156-.175.161-.269.041-.819-.074-.341-.153-.651-.174-.688-.046-.078-1.76.31-1.87.424-.102.105.42 2.095.597 2.274.079.081.304.183.501.228l.357.081-.266.108a3.696 3.696 0 0 1 -.657.169l-.392.062zm-112.929-1.82c-.006-.209-.67-.826-2.598-2.409l-.478-.421c-.486-.447-.736-.575-.972-.499-.219.071-.221.064-.058-.256.092-.18.167-.407.167-.504 0-.135.068-.162.292-.115.161.033 1.383.023 2.717-.023 1.946-.067 2.444-.114 2.523-.241.172-.276.106.036-.161.76-.145.394-.261.596-.264.459-.005-.233-.043-.243-.941-.243h-.935l-.136.405c-.075.223-.21.571-.3.773l-.163.367.411.36c.226.198.566.456.754.573.319.197.35.2.444.029.207-.375.175-.055-.056.572-.133.36-.243.543-.246.413zm-1.233-3.249c.071-.24.059-.243-.913-.243-.588 0-.945.04-.884.097.055.054.388.346.738.649l.638.551.174-.405a7.68 7.68 0 0 0 .247-.649zm112.975 1.195c-.049-.2.023-.398.283-.772.193-.277.71-1.038 1.149-1.692.44-.653.935-1.378 1.1-1.61.165-.233.285-.439.265-.459-.041-.041-1.247.348-1.719.555a5.767 5.767 0 0 1 -.585.216 7.793 7.793 0 0 0 -.773.302c-.394.176-.526.3-.594.557l-.087.331-.08-.358a3.318 3.318 0 0 0 -.229-.648c-.181-.351-.207-.725-.03-.415.092.16.188.185.501.125.214-.04.436-.113.495-.162.058-.048.393-.171.744-.273.35-.102.685-.221.744-.265.058-.045.249-.115.425-.158.175-.042.462-.142.638-.221.175-.079.462-.189.637-.243.176-.055.371-.205.435-.333.123-.248.256-.206.257.08 0 .094.072.311.16.482.158.307.15.325-.878 1.871-.57.858-1.148 1.731-1.283 1.94l-.247.38.247-.075c.135-.042.533-.188.884-.324.351-.137.757-.283.904-.326.146-.042.469-.169.717-.282.367-.167.453-.261.459-.5l.007-.295.114.27.297.672c.194.427.161.633-.054.335-.117-.162-.227-.141-1.233.236-.608.227-1.296.475-1.53.551s-.796.282-1.249.458l-.825.319-.066-.268zm-110.013-2.886c.07-.187-.154-.382-.779-.678-1.375-.65-2.851-1.367-3.116-1.511-.272-.149-.318-.147-.505.025-.244.225-.294.005-.06-.268.08-.094.192-.316.248-.495.113-.362.058-.347 3.026-.839.799-.132 1.48-.268 1.513-.302s-.565-.371-1.329-.75c-1.287-.638-1.412-.679-1.718-.561-.419.16-.452.122-.186-.222.118-.152.214-.302.214-.333s.054-.194.121-.361l.121-.304.069.264c.072.28.292.407 3.01 1.738 1.792.877 1.802 1.049.08 1.341-2.859.485-3.475.596-3.751.677-.287.085-.276.098.372.404a115.3 115.3 0 0 1 1.61.781c1.04.514 1.28.556 1.59.277.116-.104.189-.141.163-.081-.346.785-.632 1.35-.685 1.35-.036 0-.04-.068-.008-.152zm107.861-2.71a9.754 9.754 0 0 0 -.398-.845c-.273-.52-.296-.765-.042-.454.19.231.314.21 1.101-.187.652-.328.758-.437 1.657-1.701.581-.817.961-1.457.964-1.62.004-.198.113-.054.409.54.395.792.459 1.033.206.776-.069-.071-.18-.128-.246-.128-.112 0-1.537 1.848-1.537 1.994 0 .036.559.051 1.244.035 1.212-.03 1.246-.037 1.304-.288.052-.226.1-.176.395.405.247.487.289.637.158.569-.098-.051-.913-.126-1.811-.165l-1.633-.072-.706.344c-.86.42-.768.339-.862.764l-.079.357zm-1.232-2.64a.653.653 0 0 1 .047-.432c.1-.19.062-.243-.307-.435-.481-.249-.854-.716-1.108-1.384-.228-.598-.222-.864.037-1.566.711-1.933 3.238-2.379 4.627-.816.45.506.768 1.132.855 1.684.064.406.048.438-.343.68-.225.14-.426.293-.445.341-.02.047-.08.058-.134.024-.055-.034-.028-.164.062-.295.201-.29.208-1.155.014-1.626-.08-.195-.353-.522-.607-.726-.426-.343-.517-.371-1.209-.371-.897 0-1.327.241-1.868 1.048-.473.704-.541 1.407-.196 2.031.4.724.932.912 1.626.576.428-.207.531-.398.376-.692-.075-.144-.075-.208 0-.208.061 0 .11.039.11.087s.168.37.372.715c.413.697.45.801.209.599-.132-.112-.217-.11-.451.014a1.872 1.872 0 0 0 -.342.213c-.029.033-.325.217-.656.408-.577.332-.606.338-.67.132zm-104.272-2.279c-.941-.142-1.908-.955-2.162-1.817-.289-.979-.025-2.124.667-2.9l.432-.483.563.306.564.307-.404.035c-.831.072-1.415.825-1.414 1.825.001.648.269 1.113.873 1.512.408.269.55.3 1.359.3.798 0 .945-.031 1.259-.27.409-.309.757-.932.768-1.373.012-.477.126-.687.311-.571.109.069.157.27.152.635-.016 1.114-1 2.32-2.022 2.478a3.83 3.83 0 0 1 -.946.016zm2.427-4.142c-2.181-.724-2.661-3.488-.837-4.814.477-.347.596-.384 1.232-.384 2.336-.001 3.656 2.525 2.299 4.4-.543.749-1.758 1.109-2.694.798zm1.722-.863c.619-.293.91-.681.979-1.307.067-.608-.175-1.135-.731-1.59-.744-.61-1.541-.781-2.33-.502-.787.279-1.285 1.203-1.043 1.938.256.778.702 1.193 1.66 1.545.584.215.868.199 1.465-.084zm96.028.064c-.564-.306-1.147-.928-2.032-2.17-.298-.417-.311-.463-.113-.399.234.076.538-.047.87-.353.245-.225.337-.296 1.063-.829a62.764 62.764 0 0 0 1.222-.918c.674-.509.712-.554.657-.769-.096-.371.115-.211.675.514.988 1.277 1.295 1.897 1.347 2.716.039.62.009.796-.214 1.212-.146.272-.487.652-.775.864-.461.339-.596.381-1.314.413-.719.032-.861.004-1.386-.281zm1.957-.608c.67-.4.952-.864 1.001-1.649.044-.705-.147-1.258-.654-1.891l-.231-.29-1.668 1.25-1.667 1.25.483.606c.266.333.634.689.817.79.508.281 1.39.25 1.919-.066zm-95.226-2.387c.047-.291-.017-.383-.627-.901a29.512 29.512 0 0 1 -1.089-.972c-1.107-1.068-1.617-1.441-1.866-1.362l-.244.077.213-.244.616-.689c.394-.434.403-.438.331-.134-.08.336-.007.42 1.651 1.89.377.334.847.765 1.045.958.199.193.391.351.428.351.136 0 1.299-1.358 1.36-1.588.035-.131-.011-.39-.102-.575-.203-.414-.115-.386.462.148l.45.416-.42.448c-.231.247-.607.66-.836.917-1.425 1.608-1.429 1.612-1.372 1.26zm90.085-.481c-.129-.083-.134-.183-.029-.619.068-.286.247-1.103.397-1.816a131.1 131.1 0 0 1 .441-2.031c.093-.404.149-.754.125-.778-.023-.024-.28.175-.57.442-.291.267-.788.714-1.105.994-1.149 1.012-1.199 1.076-1.121 1.458l.071.347-.27-.364a2.91 2.91 0 0 0 -.488-.519c-.12-.086-.219-.207-.219-.271 0-.072.06-.064.162.021.159.135.337.044.742-.377.058-.061.417-.378.796-.705.38-.326.858-.757 1.063-.958.205-.2.532-.488.727-.64.268-.21.342-.339.306-.532-.062-.328.011-.29.494.259l.397.451-.213.953c-.473 2.114-.745 3.429-.716 3.458.018.018.171-.103.342-.266.171-.164.71-.659 1.199-1.1.843-.763.884-.821.828-1.169l-.058-.367.526.576c.29.316.527.591.527.611 0 .019-.098.003-.218-.035-.23-.074-.547.092-.975.513-.939.919-2.825 2.568-2.936 2.565a.644.644 0 0 1 -.225-.101zm-47.516-1.301c-.273-.278-.271-.309.098-1.05.171-.343.413-.937.539-1.319s.323-.882.438-1.111c.264-.527.944-1.203 1.396-1.388.19-.079.37-.173.399-.209s.292-.179.585-.317c.991-.468 2.476-.313 3.773.394.964.525 1.383.925 1.805 1.722l.409.773-.386.074c-.652.124-1.215.481-2.19 1.388-.663.618-1.64 1.009-1.812.726-.034-.055-.441-.225-.905-.378-1.107-.364-2.284-.378-3.317-.04-.399.131-.725.276-.725.323 0 .046.216.14.48.208.434.111.462.137.292.268a.65.65 0 0 1 -.879-.064zm-39.695-1.576c.05-.274-.029-.406-.611-1.022a99.498 99.498 0 0 1 -1.513-1.654c-.707-.792-.885-.936-1.089-.883-.136.034-.245.012-.245-.048l.081-.11c.045 0 .332-.222.637-.493.547-.486.554-.489.495-.187-.047.235.006.381.229.628l.832.926 1.155 1.279.612.676.397-.354c.66-.588 1.195-1.213 1.192-1.39-.002-.092-.074-.261-.16-.376-.296-.398-.154-.438.19-.054.687.766.674.697.204 1.15-.233.225-.68.628-.991.895-.311.268-.662.584-.78.703a9.708 9.708 0 0 1 -.454.422l-.239.207zm84.169-.623c-.031-.08-.268-.308-.528-.506-.53-.403-.592-.529-.225-.458.221.043.281-.036.565-.754l.317-.803-.632-.576-.631-.577-.439.237c-1.036.559-1.144.652-1.022.884.163.311.082.269-.426-.217-.368-.353-.412-.432-.238-.432.118 0 .638-.226 1.156-.502.518-.277 1.373-.726 1.899-1 .526-.273.98-.524 1.009-.558a.843.843 0 0 1 .252-.137c.133-.05.18-.144.143-.289-.073-.282.008-.271.292.04.127.14.3.279.384.31.12.044.126.099.03.266-.117.202-.39.889-.959 2.41a83.196 83.196 0 0 1 -.577 1.484c-.207.517-.291.873-.246 1.053.069.282-.028.381-.124.126zm.684-3.89c.184-.468.334-.869.334-.89 0-.046-.984.417-1.063.5a1.851 1.851 0 0 1 -.354.191c-.165.073-.285.176-.265.228.04.111.955.897.99.852.013-.017.174-.414.358-.881zm-81.718 1.653c.124-.234.128-.228-1.179-1.667-1.688-1.859-1.739-1.907-1.983-1.86-.268.052-.326-.079-.096-.214.133-.078.697-.584 2.175-1.948.272-.251.521-.457.553-.459.032-.001.244.192.472.428.445.464.445.686 0 .389-.15-.1-.357-.155-.46-.122-.102.033-.518.372-.924.753l-.739.694.265.301.563.616.298.315.285-.257c.757-.68.778-.711.704-1.03-.066-.282-.032-.263.421.231.463.506.678.887.338.601a.404.404 0 0 0 -.346-.068c-.233.077-.988.77-.988.908 0 .054.238.36.529.68.29.32.53.618.531.663.008.227.352.003 1.11-.717.88-.838.908-.909.643-1.606-.04-.103-.031-.186.019-.182.104.007.782.924.782 1.057 0 .048-.272.327-.604.619a71.85 71.85 0 0 0 -1.09.981c-1.264 1.17-1.517 1.348-1.279.894zm75.037-2.89c-.56-.258-1.348-.938-1.554-1.341-.141-.276-.128-.33.197-.831.191-.295.381-.539.422-.542s.047.228.014.515c-.073.627.119 1.069.639 1.472.479.371 1.101.376 1.489.011.467-.44.379-.767-.472-1.763-.615-.721-.784-1.159-.638-1.655.252-.857 1.316-1.15 2.302-.634.441.23 1.428 1.116 1.428 1.281 0 .074-.105.226-.527.767l-.21.27-.004-.584c-.003-.538-.036-.615-.428-.994-.676-.653-1.45-.695-1.755-.094-.198.389-.104.659.433 1.24.688.745.896 1.124.896 1.631 0 .393-.064.535-.408.903-.39.417-.438.436-1.037.429-.345-.003-.699-.041-.787-.081zm-71.831-.853c-.134-.026-.524-.326-.867-.666-.717-.713-.909-1.223-.824-2.183.062-.705.257-1.131.8-1.742.343-.387 1.475-1.06 1.774-1.055.139.002.837.858.762.934-.031.032-.229 0-.44-.07-.588-.197-1.343.022-1.768.514-.654.757-.778 1.429-.408 2.228.281.607.738 1.016 1.417 1.269.654.243.881.249 1.376.039.879-.373 1.22-1.155.798-1.83-.225-.359-.284-.392-.614-.341-.426.066-.381.009.483-.618.509-.37.54-.379.496-.145-.034.179.118.472.538 1.04.512.691.566.81.432.947-.135.138-.186.137-.4-.007-.238-.158-.25-.149-.44.319-.215.529-.749 1.065-1.291 1.295-.329.14-1.28.177-1.824.072zm68.855-1.432c-.157-.1-.231-.723-.488-4.084-.042-.552-.112-1.026-.156-1.054-.107-.067-1.907 2.926-1.907 3.172 0 .105.057.249.126.319.249.254.01.231-.34-.031-.197-.148-.415-.269-.484-.269-.07 0-.191-.08-.271-.178-.128-.157-.12-.169.075-.106.241.077.428-.086.725-.634.097-.179.258-.457.358-.618 1.138-1.83 1.6-2.725 1.503-2.91-.139-.263-.077-.251.391.071.215.149.448.27.518.27.117 0 .203.722.472 3.943l.063.756.368-.594c.202-.327.421-.691.487-.81.065-.119.27-.465.455-.768.341-.559.425-.947.231-1.069-.059-.036-.107-.11-.107-.163 0-.054.287.076.638.289.351.212.638.404.638.426s-.105.028-.233.014c-.18-.02-.324.12-.638.623-.222.356-.453.745-.513.864s-.25.435-.423.702-.364.583-.425.702c-.256.501-.703 1.174-.8 1.205-.057.019-.175-.012-.263-.068zm-63.817-1.138c.092-.373-2.101-4.05-2.416-4.05-.339 0-.148-.165.84-.727 1.302-.74 1.453-.83 1.513-.905.029-.036.204-.145.389-.241l.337-.175.246.403.334.538c.122.19-.088.169-.281-.027-.088-.089-.301-.162-.473-.162s-.373.073-.446.162c-.072.089-.171.162-.218.162-.123 0-1.164.667-1.163.745.001.176.723 1.257.858 1.283.084.016.377-.113.65-.289.363-.234.505-.399.53-.617.032-.282.051-.269.384.277.344.564.383.805.091.559-.169-.143-.395-.075-.896.27-.192.133-.404.26-.472.282-.131.045.828 1.703.985 1.703.199 0 1.662-.923 1.885-1.188.079-.095.117-.33.09-.567-.076-.67.044-.543.653.689.019.037-.196.207-.476.376l-.687.418-.904.53c-.399.231-.797.479-.885.551a1.421 1.421 0 0 1 -.346.198c-.156.056-.177.022-.122-.198zm59.831-1.281a1.366 1.366 0 0 1 -.266-.188c-.029-.036-.232-.124-.451-.197-.422-.14-.536-.331-.198-.331.249 0 .307-.148.393-1.005l.068-.677-.781-.394-.781-.394-.633.654c-.595.614-.622.663-.435.802.488.362-.007.194-1.278-.436-1.058-.524-1.318-.692-1.119-.724.218-.034.416-.36 1.263-2.084.837-1.701.985-2.077.884-2.24-.2-.325-.146-.324.479.016.33.179.665.325.744.325.08 0 .145.049.145.108 0 .06-.118.108-.262.108-.233 0-.368.222-1.27 2.077-.937 1.93-.996 2.091-.838 2.269.094.105.256.191.36.191.105 0 .707-.497 1.339-1.105 2.302-2.216 2.396-2.319 2.321-2.559-.069-.221-.065-.221.406.019.367.187.466.292.433.459-.023.118-.091.775-.149 1.458-.059.683-.156 1.742-.216 2.352-.078.797-.076 1.173.009 1.333.146.278.104.32-.166.164zm-.308-3.903c.054-.564.087-1.026.073-1.026s-.338.314-.721.698c-.689.689-.694.699-.455.839.476.279.881.496.942.505.035.006.107-.452.161-1.016zm-53.536 1.527c-.532-.194-.79-.397-1.201-.944-.701-.935-.787-1.836-.275-2.878.486-.989 1.234-1.457 2.331-1.457.99 0 1.809.591 2.265 1.636.311.71.225 1.948-.178 2.567-.641.984-1.913 1.449-2.942 1.076zm1.81-.753c.591-.307 1.003-1.01.93-1.587-.082-.65-.472-1.364-.973-1.781-.395-.329-.583-.406-1.108-.455-.536-.049-.694-.02-1.027.19-.809.508-.997 1.66-.429 2.634.311.532.582.775 1.163 1.037.584.264.878.257 1.444-.037zm44.288-.376c-.307-.103-.707-.36-.978-.628-1.348-1.331-.769-3.652 1.089-4.358.718-.273 1.116-.275 1.877-.009 1.135.397 1.294.649.922 1.465l-.197.432-.009-.324c-.019-.733-1.033-1.338-1.997-1.191-1.441.22-2.058 2.239-1.093 3.571.322.444.924.698 1.654.698.744 0 .861.118.371.375-.392.207-.969.196-1.64-.031zm-41.944-.077c0-.045.072-.135.161-.201.141-.105.127-.212-.116-.876a27.434 27.434 0 0 0 -.371-.972 35.948 35.948 0 0 1 -.458-1.242c-.2-.565-.398-1.112-.439-1.216-.042-.103-.178-.19-.303-.192-.216-.004-.214-.013.038-.159.146-.084.576-.257.956-.383.38-.127.835-.293 1.01-.37.176-.078.439-.174.585-.214s.373-.126.504-.192c.132-.066.252-.099.268-.074.161.252.5 1.111.456 1.155-.031.032-.175-.071-.319-.229s-.303-.287-.353-.287c-.16 0-1.242.343-1.353.428-.059.046-.238.114-.399.153-.29.071-.373.254-.205.451.048.056.178.382.288.724.159.493.246.621.423.621.122 0 .268-.043.323-.095.056-.052.28-.154.5-.225.315-.102.398-.183.398-.391 0-.381.183-.32.27.09.041.193.14.482.221.642.08.16.104.317.051.35-.052.033-.124-.019-.161-.116-.078-.209-.629-.16-1.252.112l-.393.171.191.46c.105.253.274.691.375.973.141.392.238.513.409.513.317 0 .116.155-.455.352l-.664.242c-.102.043-.186.041-.186-.003zm38.583-1.243a19.09 19.09 0 0 0 -.691-.274c-.199-.071-.196-.08.047-.146.21-.056.326-.246.6-.984l.776-2.085c.494-1.325.509-1.418.251-1.587-.169-.11-.167-.115.021-.054l.744.239c.645.208.843.358.472.358-.236 0-.301.094-.547.783-.153.431-.43 1.197-.616 1.702-.693 1.889-.706 1.946-.476 2.117.283.211.016.179-.581-.069zm-1.65-.441c-.463-.106-.531-.213-1.168-1.823a28.916 28.916 0 0 0 -.425-1.027l-.149-.324.553-.029c.711-.037 1.029-.208 1.211-.65.129-.313.125-.393-.034-.666-.197-.34-.461-.494-1.028-.602-.439-.084-.379-.224-1.041 2.424-.424 1.696-.434 1.78-.249 1.918.234.173.073.187-.472.041a22.559 22.559 0 0 0 -.703-.176l-.319-.072.268-.095c.246-.088.31-.266.784-2.174.285-1.144.538-2.134.563-2.2.024-.067-.033-.2-.129-.297-.202-.206-.09-.223.48-.073l1.063.27c.38.094.824.225.987.291.656.268.899 1.034.548 1.724-.166.328-.911.744-1.331.744-.112 0-.204.018-.204.041 0 .13 1.011 2.326 1.186 2.576.116.165.171.295.123.288a12.183 12.183 0 0 1 -.514-.109zm-30.443-.643c-.318-.115-.693-.318-.834-.452-.817-.775-1.101-2.149-.66-3.191.72-1.7 3.017-2.202 4.12-.901.553.652.712 1.104.711 2.013-.002.726-.043.933-.261 1.291-.416.685-.834 1.018-1.569 1.249-.813.255-.774.255-1.507-.009zm1.815-.648c.512-.279.942-.955.942-1.48 0-.532-.318-1.289-.752-1.79-.964-1.114-2.606-.821-2.957.527-.247.951.234 2.12 1.091 2.651.373.232 1.323.283 1.676.092zm2.643-.093c0-.058.072-.146.16-.196.142-.08.134-.261-.067-1.544-.494-3.162-.443-2.949-.727-3.093-.32-.162-.259-.185.952-.364 1.593-.235 1.764-.24 2.103-.061.527.277.661.476.661.983 0 .378-.062.534-.315.791l-.316.321.461.07c.597.091.924.442.984 1.054.057.583-.111.912-.655 1.292-.422.294-.753.395-2.072.632l-.93.172c-.132.026-.239.001-.239-.057zm2.514-.878c.404-.134.705-.685.59-1.081-.188-.655-.259-.695-1.228-.695-.496 0-.938.037-.982.082-.073.073.128 1.763.229 1.929.047.077.877-.063 1.391-.235zm-.487-2.591c.171-.124.317-.271.324-.326l.034-.236c.041-.278-.264-.71-.582-.822-.235-.083-.471-.083-.833.002l-.505.118.09.715c.049.394.108.771.131.838.061.181.959-.014 1.341-.29zm17.393 3.461c-.711-.092-.852-.176-.464-.275.329-.084.32-.056.601-1.885.123-.802.272-1.672.33-1.934.128-.573.047-.654-.659-.656-.485-.002-.84.218-.84.519 0 .07-.048.127-.107.127-.132 0-.129-.036.045-.702.129-.496.165-.539.447-.525.444.022 2.558.347 3.149.483l.505.117v.467c0 .256-.029.543-.065.637-.104.277-.254.196-.254-.136 0-.413-.286-.65-.885-.733-.437-.061-.499-.045-.51.134-.022.323-.204 1.513-.52 3.39-.111.663-.105.711.113.891l.231.19-.251-.015c-.138-.007-.528-.05-.866-.094zm-4.274-.651-1.633-.092-.251-.013.218-.189c.197-.172.227-.382.325-2.349.108-2.157.108-2.161-.126-2.365-.231-.203-.21-.204 1.467-.133 2.346.1 2.285.081 2.285.722 0 .596-.162.797-.264.327-.037-.173-.134-.341-.216-.373-.081-.032-.628-.092-1.216-.133l-1.067-.075v.813c0 .906.033.942.868.945.492.002.726-.088.726-.28 0-.083.04-.151.088-.151.049 0 .069.28.045.622-.054.783-.088.89-.193.621-.127-.326-.253-.375-.977-.377l-.664-.001v1.915l.493.068c.747.104 1.622.083 1.858-.046a.819.819 0 0 0 .309-.378c.134-.359.324-.334.254.034a6.617 6.617 0 0 0 -.079.621c-.02.3-.053.325-.445.335a35.91 35.91 0 0 1 -1.805-.069zm-10.257-.136c-.232-.118-.27-.218-.298-.779l-.033-.644.247.376c.449.682 1.281.926 2.047.601.434-.185.728-.698.629-1.098-.081-.327-.611-.692-1.007-.693-1.192-.001-2.223-.598-2.223-1.287 0-.78.657-1.448 1.604-1.632.644-.126 1.688-.035 1.745.151.121.399.159 1.148.059 1.148-.062 0-.113-.069-.113-.152 0-.084-.153-.284-.34-.444-.306-.262-.406-.286-1.006-.248-.814.053-1.205.35-1.205.914 0 .495.329.684 1.495.86 1.043.158 1.411.353 1.583.841.288.813-.033 1.567-.842 1.983-.368.188-.653.242-1.275.241-.441-.001-.921-.063-1.067-.138zm5.584-.049c-.659-.034-.712-.053-.486-.168.347-.176.387-.394.476-2.576l.077-1.898-.407-.066c-.608-.099-.863.009-1.011.426-.072.201-.172.366-.223.366-.082 0 .002-1.181.091-1.283.019-.022.922-.005 2.006.039l1.971.079v.353c0 .194.03.505.066.69.091.461-.098.428-.266-.046-.149-.419-.442-.588-1.018-.588h-.353l-.063 1.053-.127 2.206-.065 1.152.302.167c.3.165.3.166.036.149a143.67 143.67 0 0 0 -1.006-.055z" fill="#3368b0"/><path d="m215.112 228.148 2.322 8.573h.797l2.168-7.831c.433-1.567.727-1.93 1.622-2.014v-.35h-3.189v.35c.294 0 .504.028.686.084.321.112.503.363.503.741 0 .294-.084.797-.21 1.259l-1.622 6.111-2.294-8.433h-.895l-2.475 8.531-1.566-6.587c-.168-.657-.196-.825-.196-1.035 0-.252.112-.448.322-.545.139-.084.335-.112.783-.126v-.35h-3.609v.35c.476.042.672.098.826.237.223.196.391.588.545 1.231l2.056 8.377h.895zm7.734 3.441c0 1.454.392 2.671 1.161 3.65.825 1.049 2.056 1.608 3.566 1.608 1.525 0 2.7-.531 3.567-1.608.769-.951 1.16-2.182 1.16-3.65 0-1.469-.391-2.685-1.16-3.664-.854-1.063-2.042-1.595-3.567-1.595-1.51 0-2.727.546-3.566 1.595-.783.993-1.161 2.195-1.161 3.664zm1.413 0c0-1.329.252-2.434.755-3.357.559-.993 1.44-1.524 2.559-1.524s2 .517 2.56 1.524c.503.909.755 2 .755 3.357 0 1.356-.252 2.447-.755 3.356-.56.993-1.441 1.525-2.56 1.525s-2-.532-2.559-1.525c-.503-.937-.755-2.028-.755-3.356zm10.978-4.336 3.665 9.287h.601l3.636-9.301v7.65c0 1.273-.098 1.399-1.077 1.427v.35h3.399v-.35c-.993-.028-1.077-.14-1.077-1.427v-6.587c0-1.3.07-1.384 1.077-1.44v-.336h-2.602l-3.272 8.279-3.287-8.279h-2.671v.336c.545.028.685.07.839.224.154.181.21.489.21 1.216v5.734c0 1.091-.07 1.637-.28 1.902-.168.252-.461.364-.951.378v.35h3.021v-.35c-.559-.014-.853-.126-1.021-.378-.168-.237-.21-.615-.21-1.902zm11.175 9.413h7.286l.28-2.784-.392-.028c-.391 1.93-.895 2.392-2.657 2.392h-2.21v-4.629h1.441c.825 0 1.37.112 1.58.321.196.21.294.476.392 1.119h.391v-3.286h-.391c-.154 1.23-.42 1.426-1.972 1.426h-1.441v-4.251h1.93c1.79 0 2.308.419 2.644 2.111l.405-.028-.224-2.503h-7.062v.336c.643 0 .895.112.993.405.042.126.042.14.07 1.035v6.587c-.028 1.049-.028 1.063-.182 1.231-.126.14-.406.21-.881.21zm10.433-9.119 6.363 9.16h.797v-7.761c0-1.651.224-2.028 1.273-2.084v-.336h-3.119v.336c.574.028.881.14 1.063.391.168.224.21.63.21 1.888v5.748l-5.832-8.363h-2.475v.336c1.049.042 1.146.182 1.146 1.552v5.636c0 1.077-.084 1.623-.279 1.888-.182.266-.476.378-1.007.378v.35h3.077v-.35c-.56-.014-.854-.126-1.021-.378-.154-.223-.196-.531-.196-1.65zm9.384-1.021.35 3.413h.615l.35-3.413zm2.643 10.167c.49-.097.741-.139.965-.139.14 0 .294.014.462.042.979.195 1.328.237 1.874.237.923 0 1.692-.251 2.279-.769.532-.447.798-1.077.798-1.902 0-.643-.112-1.105-.392-1.538-.392-.616-1.049-1.077-2.797-1.902-1.664-.783-2.112-1.245-2.112-2.168 0-.462.154-.895.406-1.217.335-.391.811-.587 1.482-.587.909 0 1.622.349 2.014.993.224.377.336.783.392 1.468h.461l.084-2.755c-.378.14-.629.21-.839.21-.14 0-.308-.028-.517-.07-.882-.21-1.119-.238-1.651-.238-.839 0-1.468.21-2 .672-.573.503-.881 1.202-.881 2.027 0 .672.21 1.217.616 1.651.391.419.825.685 2.013 1.258 2.084 1.007 2.602 1.539 2.602 2.644 0 1.146-.755 1.818-2.028 1.818-.923 0-1.65-.28-2.098-.797-.378-.448-.517-.895-.573-1.763h-.462zm14.363-5.16h5.287v3.356c0 1.287-.084 1.399-1.091 1.427v.35h3.44v-.35c-.993-.028-1.077-.14-1.077-1.427v-6.587c0-1.3.07-1.384 1.077-1.426v-.35h-3.44v.35c1.021.042 1.091.126 1.091 1.426v2.783h-5.287v-2.783c0-1.3.07-1.384 1.091-1.426v-.35h-3.44v.35c1.007.042 1.077.126 1.077 1.426v6.587c0 1.301-.084 1.399-1.077 1.427v.35h3.44v-.35c-1.007-.028-1.091-.14-1.091-1.427zm8.629 5.133h7.287l.279-2.784-.391-.028c-.392 1.93-.895 2.392-2.657 2.392h-2.21v-4.629h1.44c.826 0 1.371.112 1.581.321.196.21.293.476.391 1.119h.392v-3.286h-.392c-.154 1.23-.419 1.426-1.972 1.426h-1.44v-4.251h1.93c1.79 0 2.307.419 2.643 2.111l.406-.028-.224-2.503h-7.063v.336c.644 0 .895.112.993.405.042.126.042.14.07 1.035v6.587c-.028 1.049-.028 1.063-.182 1.231-.125.14-.405.21-.881.21zm11.105-3.511h3.902l.587 1.762c.112.35.168.63.168.798 0 .405-.294.573-1.007.601v.35h3.608v-.35c-.811-.028-1.077-.294-1.468-1.441l-2.965-8.447-.867.098-2.979 7.888c-.532 1.412-.993 1.902-1.79 1.902v.35h3.272v-.35c-.811-.028-1.175-.252-1.175-.755 0-.266.098-.7.266-1.147zm3.72-.517h-3.524l1.818-4.895zm4.098 4.028h7.314l.266-2.784-.434-.056c-.405 1.875-1.007 2.42-2.685 2.42h-1.972v-7.944c0-1.3.084-1.384 1.231-1.426v-.35h-3.72v.35c1.132.042 1.216.126 1.216 1.426v6.601c0 1.287-.098 1.385-1.216 1.427zm12.782-9.804c2.518.028 2.909.349 3.273 2.629l.447-.028-.251-2.937h-8.224l-.252 2.937.448.028c.35-2.28.755-2.601 3.259-2.629v8.027c0 .784-.042 1.063-.224 1.217-.14.14-.476.21-1.077.21v.35h3.916v-.35c-.56 0-.923-.056-1.063-.182-.196-.154-.252-.419-.252-1.245zm6.727 4.671h5.287v3.356c0 1.287-.084 1.399-1.091 1.427v.35h3.44v-.35c-.993-.028-1.077-.14-1.077-1.427v-6.587c0-1.3.07-1.384 1.077-1.426v-.35h-3.44v.35c1.021.042 1.091.126 1.091 1.426v2.783h-5.287v-2.783c0-1.3.07-1.384 1.091-1.426v-.35h-3.44v.35c1.007.042 1.077.126 1.077 1.426v6.587c0 1.301-.084 1.399-1.077 1.427v.35h3.44v-.35c-1.007-.028-1.091-.14-1.091-1.427zm21.608-1.804v-3.049c-.462.168-.532.196-.728.196-.237 0-.377-.028-1.034-.238-.616-.196-1.231-.308-1.777-.308-.937 0-1.93.308-2.643.853-1.259.923-1.972 2.588-1.972 4.546 0 1.552.448 2.825 1.315 3.762.825.881 1.958 1.37 3.216 1.37 1.231 0 2.294-.377 3.007-1.063.49-.475.839-1.034 1.147-1.846l-.405-.181c-.546 1.58-1.805 2.531-3.357 2.531-2.112 0-3.51-1.916-3.51-4.839 0-1.357.279-2.545.811-3.399.503-.839 1.44-1.356 2.447-1.356.909 0 1.763.419 2.336 1.133.378.503.573 1.021.699 1.888zm3.664 3.426h3.902l.587 1.762c.112.35.168.63.168.798 0 .405-.294.573-1.007.601v.35h3.608v-.35c-.811-.028-1.077-.294-1.468-1.441l-2.965-8.447-.867.098-2.979 7.888c-.531 1.412-.993 1.902-1.79 1.902v.35h3.272v-.35c-.811-.028-1.174-.252-1.174-.755 0-.266.098-.7.265-1.147zm3.72-.517h-3.524l1.818-4.895zm6.377-.783h.853c.35 0 .7.055.993.167.42.14.686.42 1.021 1.021.392.686.979 2.098 1.525 3.623h2.182v-.308c-.336-.014-.532-.084-.742-.266-.279-.238-.391-.433-1.077-1.986-.461-1.035-.727-1.454-1.16-1.832-.322-.266-.644-.405-1.119-.503v-.126c1.049-.112 1.93-.49 2.349-1.035.294-.392.476-.979.476-1.581 0-1.706-1.189-2.503-3.748-2.503h-3.874v.336c1.007.042 1.077.14 1.077 1.44v6.587c0 1.287-.084 1.399-1.077 1.427v.35h3.412v-.35c-1.007-.028-1.091-.14-1.091-1.427zm0-.42v-4.489h1.287c1.79 0 2.657.713 2.657 2.181 0 .853-.293 1.497-.853 1.874-.405.28-1.091.434-1.93.434zm7.077 5.231h7.286l.28-2.784-.391-.028c-.392 1.93-.896 2.392-2.658 2.392h-2.209v-4.629h1.44c.825 0 1.371.112 1.58.321.196.21.294.476.392 1.119h.392v-3.286h-.392c-.154 1.23-.42 1.426-1.972 1.426h-1.44v-4.251h1.93c1.79 0 2.307.419 2.643 2.111l.405-.028-.223-2.503h-7.063v.336c.643 0 .895.112.993.405.042.126.042.14.07 1.035v6.587c-.028 1.049-.028 1.063-.182 1.231-.126.14-.406.21-.881.21zm15.538-4.392h.909c1.077 0 2.098-.126 2.671-.336 1.147-.405 1.692-1.258 1.692-2.601 0-1.189-.461-2-1.384-2.433-.518-.238-1.357-.378-2.364-.378h-3.846v.336c1.007.042 1.077.14 1.077 1.44v6.587c0 1.301-.084 1.399-1.077 1.427v.35h3.497v-.35c-1.091-.028-1.175-.14-1.175-1.427zm0-.419v-4.909h1.258c1.777 0 2.658.811 2.658 2.447 0 .825-.238 1.497-.644 1.874-.433.392-1.188.588-2.279.588zm8.573-.322h5.286v3.356c0 1.287-.084 1.399-1.091 1.427v.35h3.441v-.35c-.993-.028-1.077-.14-1.077-1.427v-6.587c0-1.3.07-1.384 1.077-1.426v-.35h-3.441v.35c1.021.042 1.091.126 1.091 1.426v2.783h-5.286v-2.783c0-1.3.07-1.384 1.091-1.426v-.35h-3.441v.35c1.007.042 1.077.126 1.077 1.426v6.587c0 1.301-.084 1.399-1.077 1.427v.35h3.441v-.35c-1.007-.028-1.091-.14-1.091-1.427zm13.72.252 2.349-3.441c.727-1.063 1.189-1.412 1.93-1.482v-.336h-3.245v.336c.826.042 1.119.182 1.119.517 0 .238-.182.644-.475 1.077l-2 2.951-2.042-3.119c-.378-.573-.462-.741-.462-.951 0-.307.266-.447.938-.475v-.336h-3.623v.336c.63.056.923.293 1.567 1.244l2.685 3.986v2.797c0 1.287-.098 1.399-1.217 1.427v.35h3.692v-.35c-1.119-.028-1.216-.126-1.216-1.427zm5.062 4.908c.49-.097.742-.139.965-.139.14 0 .294.014.462.042.979.195 1.328.237 1.874.237.923 0 1.692-.251 2.279-.769.532-.447.798-1.077.798-1.902 0-.643-.112-1.105-.392-1.538-.392-.616-1.049-1.077-2.797-1.902-1.664-.783-2.112-1.245-2.112-2.168 0-.462.154-.895.406-1.217.335-.391.811-.587 1.482-.587.909 0 1.622.349 2.014.993.224.377.336.783.392 1.468h.461l.084-2.755c-.377.14-.629.21-.839.21-.14 0-.308-.028-.517-.07-.882-.21-1.119-.238-1.651-.238-.839 0-1.468.21-2 .672-.573.503-.881 1.202-.881 2.027 0 .672.21 1.217.616 1.651.391.419.825.685 2.014 1.258 2.083 1.007 2.601 1.539 2.601 2.644 0 1.146-.755 1.818-2.028 1.818-.923 0-1.65-.28-2.098-.797-.378-.448-.517-.895-.573-1.763h-.462zm7.524-.027h3.721v-.35c-1.133-.028-1.231-.14-1.231-1.427v-6.587c0-1.3.084-1.384 1.231-1.44v-.336h-3.721v.336c1.133.056 1.217.14 1.217 1.44v6.587c0 1.287-.084 1.399-1.217 1.427zm13.189-6.937v-3.049c-.462.168-.532.196-.728.196-.237 0-.377-.028-1.034-.238-.616-.196-1.231-.308-1.777-.308-.937 0-1.93.308-2.643.853-1.259.923-1.972 2.588-1.972 4.546 0 1.552.448 2.825 1.315 3.762.825.881 1.958 1.37 3.216 1.37 1.231 0 2.294-.377 3.007-1.063.49-.475.839-1.034 1.147-1.846l-.405-.181c-.546 1.58-1.805 2.531-3.357 2.531-2.112 0-3.51-1.916-3.51-4.839 0-1.357.279-2.545.811-3.399.503-.839 1.44-1.356 2.447-1.356.909 0 1.762.419 2.336 1.133.377.503.573 1.021.699 1.888zm1.328 6.937h3.72v-.35c-1.132-.028-1.23-.14-1.23-1.427v-6.587c0-1.3.084-1.384 1.23-1.44v-.336h-3.72v.336c1.133.056 1.217.14 1.217 1.44v6.587c0 1.287-.084 1.399-1.217 1.427zm7.119-3.511h3.902l.587 1.762c.112.35.168.63.168.798 0 .405-.294.573-1.007.601v.35h3.608v-.35c-.811-.028-1.077-.294-1.468-1.441l-2.965-8.447-.867.098-2.979 7.888c-.532 1.412-.993 1.902-1.79 1.902v.35h3.272v-.35c-.811-.028-1.174-.252-1.174-.755 0-.266.098-.7.265-1.147zm3.72-.517h-3.524l1.818-4.895zm5.79-5.091 6.363 9.16h.798v-7.761c0-1.651.223-2.028 1.272-2.084v-.336h-3.119v.336c.574.028.882.14 1.063.391.168.224.21.63.21 1.888v5.748l-5.832-8.363h-2.475v.336c1.049.042 1.147.182 1.147 1.552v5.636c0 1.077-.084 1.623-.28 1.888-.182.266-.476.378-1.007.378v.35h3.077v-.35c-.56-.014-.853-.126-1.021-.378-.154-.223-.196-.531-.196-1.65zm9.538 9.146c.49-.097.741-.139.965-.139.14 0 .294.014.462.042.979.195 1.328.237 1.874.237.923 0 1.692-.251 2.279-.769.532-.447.797-1.077.797-1.902 0-.643-.112-1.105-.391-1.538-.392-.616-1.049-1.077-2.797-1.902-1.665-.783-2.112-1.245-2.112-2.168 0-.462.154-.895.405-1.217.336-.391.812-.587 1.483-.587.909 0 1.622.349 2.014.993.224.377.335.783.391 1.468h.462l.084-2.755c-.378.14-.629.21-.839.21-.14 0-.308-.028-.518-.07-.881-.21-1.119-.238-1.65-.238-.839 0-1.468.21-2 .672-.573.503-.881 1.202-.881 2.027 0 .672.21 1.217.615 1.651.392.419.825.685 2.014 1.258 2.084 1.007 2.602 1.539 2.602 2.644 0 1.146-.756 1.818-2.028 1.818-.923 0-1.651-.28-2.098-.797-.378-.448-.518-.895-.574-1.763h-.461zm-247.989-69.843c1.547.037 2.386.298 3.039.932.615.579.988 1.548 1.287 3.357l.671-.037-.354-4.737h-11.729l-.355 4.737.672.037c.279-1.66.596-2.611 1.118-3.207.653-.746 1.529-1.045 3.189-1.082v11.039c0 1.716-.186 1.902-1.921 1.94v.484h6.322v-.484c-1.753-.038-1.939-.224-1.939-1.94zm9.23 3.133c0-1.492.019-2.387.112-3.823l-3.823.205v.429c1.305 0 1.436.168 1.436 1.809v9.398c0 1.678-.131 1.846-1.417 1.865v.447h5.09v-.447c-1.268-.019-1.398-.205-1.398-1.865v-3.58c0-.765.149-1.361.503-1.977.485-.858 1.157-1.286 2.014-1.286.709 0 1.175.279 1.436.857.187.392.261 1.045.261 2.014v3.972c0 1.678-.13 1.846-1.398 1.865v.447h5.09v-.447c-1.286-.019-1.417-.187-1.417-1.865v-4.102c0-1.063-.13-1.753-.41-2.294-.466-.876-1.343-1.305-2.685-1.305-1.548 0-2.462.503-3.394 1.883zm17.808 5.072c-.037-1.175-.131-1.734-.336-2.294-.615-1.603-1.958-2.461-3.86-2.461-2.834 0-4.68 2.051-4.68 5.184 0 3.114 1.902 5.109 4.867 5.109 1.921 0 3.17-.783 4.102-2.555l-.466-.298c-.69 1.361-1.79 2.126-3.077 2.126-1.137 0-1.995-.616-2.536-1.846-.335-.783-.466-1.585-.485-2.965zm-6.452-.541c.075-.97.187-1.566.392-2.144.391-1.082 1.007-1.641 1.808-1.641.728 0 1.25.466 1.604 1.454.205.578.28 1.156.317 2.331zm17.174 1.082h4.904l.709 2.051c.168.466.261.932.28 1.231v.055c0 .616-.429.858-1.604.896v.484h6.079v-.484c-.615-.075-.783-.112-.988-.206-.429-.223-.783-.82-1.212-1.976l-4.065-11.431-1.38.149-3.972 10.517c-.839 2.201-1.511 2.928-2.723 2.947v.484h4.793v-.484c-1.231-.038-1.753-.373-1.753-1.101 0-.429.13-1.007.41-1.715zm4.662-.728h-4.401l2.275-6.06zm9.883-4.531-3.636.243v.447c1.231.019 1.38.224 1.38 1.79v5.184c0 1.678-.131 1.846-1.417 1.865v.447h5.053v-.447c-1.231-.019-1.361-.187-1.361-1.865v-3.785c0-1.679 1.025-3.058 2.256-3.058 1.026 0 1.51.876 1.51 2.741v4.102c0 1.66-.13 1.846-1.361 1.865v.447h4.998v-.447c-1.25-.019-1.38-.205-1.38-1.865v-3.934c0-.69.186-1.287.578-1.884.466-.708.988-1.025 1.659-1.025 1.101 0 1.548.783 1.548 2.759v4.084c0 1.66-.13 1.846-1.361 1.865v.447h5.053v-.447c-1.286-.019-1.417-.205-1.417-1.865v-4.102c0-1.268-.149-1.958-.559-2.518-.504-.708-1.343-1.081-2.424-1.081-1.399 0-2.387.597-3.208 1.958-.335-1.324-1.212-1.958-2.648-1.958-1.398 0-2.498.652-3.244 1.883zm23.421 4.718c-.037-1.175-.131-1.734-.336-2.294-.615-1.603-1.958-2.461-3.86-2.461-2.834 0-4.68 2.051-4.68 5.184 0 3.114 1.902 5.109 4.867 5.109 1.92 0 3.17-.783 4.102-2.555l-.466-.298c-.69 1.361-1.79 2.126-3.077 2.126-1.137 0-1.995-.616-2.536-1.846-.335-.783-.466-1.585-.485-2.965zm-6.452-.541c.075-.97.186-1.566.392-2.144.391-1.082 1.007-1.641 1.808-1.641.728 0 1.25.466 1.604 1.454.205.578.28 1.156.317 2.331zm7.589-3.934v.447c1.175 0 1.343.224 1.343 1.809v5.165c0 1.66-.131 1.846-1.417 1.865v.447h5.184v-.447c-1.38-.056-1.492-.187-1.492-1.865v-3.45c0-.876.149-1.51.448-2.069.317-.541.689-.858 1.044-.877h.037c.298 0 .392.131.541.653.13.429.373.596.876.596.783 0 1.343-.466 1.343-1.137 0-.802-.671-1.417-1.585-1.417-1.063 0-2.014.727-2.76 2.107v-.559c0-.373-.019-.802-.056-1.511zm8.298 0v.447c1.306.019 1.399.149 1.399 1.809v5.165c0 1.66-.131 1.846-1.455 1.865v.447h5.184v-.447c-1.324-.019-1.454-.205-1.454-1.865v-4.046c0-1.194.037-2.499.112-3.618zm1.212-3.189c0 .746.597 1.342 1.343 1.342s1.343-.596 1.343-1.342-.597-1.343-1.343-1.343-1.343.597-1.343 1.343zm13.445 10.293c-.634 1.38-1.734 2.201-3.021 2.201-.951 0-1.734-.523-2.219-1.474-.429-.857-.652-1.958-.652-3.17 0-1.156.205-2.48.522-3.3.298-.727.951-1.194 1.715-1.194.914 0 1.455.634 1.529 1.753.038.671.038.671.15.821.167.205.522.335.951.335.764 0 1.268-.354 1.268-.913 0-1.324-1.772-2.443-3.842-2.443-1.342 0-2.498.447-3.319 1.249-.932.97-1.473 2.424-1.473 4.028 0 3.002 1.921 5.035 4.792 5.035 1.865 0 3.245-.877 4.084-2.611zm10.946 2.126c-1.193-.019-1.268-.131-1.268-2.182 0-.13 0-.485.019-1.007l.018-1.622.019-1.622c0-1.157-.224-1.828-.727-2.313-.56-.522-1.473-.764-2.76-.764-1.268 0-2.275.224-3.058.708-.727.448-1.156 1.082-1.156 1.735 0 .559.447.857 1.305.857.783 0 1.1-.242 1.137-.913.056-.709.112-1.007.299-1.324.261-.448.652-.634 1.249-.634 1.119 0 1.455.578 1.455 2.554v1.212a22.639 22.639 0 0 0 -3.058.355c-1.996.391-2.984 1.38-2.984 2.983 0 1.679 1.1 2.741 2.872 2.741 1.212 0 2.219-.466 3.188-1.51.094 1.138.28 1.417.877 1.417.485 0 1.473-.093 2.573-.224zm-3.468-3.45c0 1.063-.094 1.678-.336 2.163-.354.765-1.063 1.231-1.809 1.231-.913 0-1.51-.876-1.51-2.2 0-1.735.951-2.425 3.655-2.63zm7.999-6.023-3.636.243v.447c1.231.019 1.38.224 1.38 1.809v5.165c0 1.66-.13 1.846-1.417 1.865v.447h5.091v-.447c-1.268-.019-1.399-.187-1.399-1.865v-3.729c0-.616.205-1.38.503-1.921.467-.802 1.138-1.231 1.921-1.231 1.156 0 1.641.839 1.641 2.853v4.028c0 1.641-.149 1.846-1.398 1.865v.447h5.072v-.447c-1.287-.019-1.418-.205-1.418-1.865v-4.14c0-1.118-.13-1.734-.466-2.293-.485-.858-1.324-1.268-2.536-1.268-1.492 0-2.517.578-3.319 1.883zm26.479.709v-4.55c-.596.205-.727.242-1.007.242a2.73 2.73 0 0 1 -.783-.112c-1.715-.466-2.126-.54-3.095-.54-3.991 0-6.564 2.909-6.564 7.403 0 2.256.671 4.139 1.921 5.37 1.137 1.119 2.797 1.753 4.587 1.753 2.778 0 4.587-1.287 5.594-3.935l-.541-.298c-.279.69-.503 1.1-.82 1.529-.914 1.231-2.238 1.921-3.636 1.921-2.742 0-4.42-2.555-4.42-6.695 0-2.032.355-3.655 1.082-4.867a3.35 3.35 0 0 1 2.89-1.641c1.212 0 2.368.634 3.133 1.735.522.745.783 1.473.988 2.685zm1.958 4.475c0 1.436.467 2.76 1.287 3.674.783.876 2.107 1.417 3.506 1.417 1.473 0 2.834-.56 3.692-1.511.764-.857 1.231-2.237 1.231-3.692 0-3.095-1.902-5.109-4.83-5.109-1.417 0-2.685.485-3.487 1.324-.877.932-1.399 2.368-1.399 3.897zm2.518-.093c0-1.622.186-2.816.596-3.618.317-.69.97-1.081 1.735-1.081 1.622 0 2.368 1.491 2.368 4.755 0 3.244-.727 4.699-2.35 4.699-1.603 0-2.349-1.529-2.349-4.755zm8.335 4.885h5.221v-.447c-1.361-.037-1.473-.168-1.473-1.865v-8.018c0-1.25.037-2.443.112-3.823l-3.841.205v.429c1.324 0 1.454.168 1.454 1.809v9.398c0 1.697-.112 1.828-1.473 1.865zm6.06 0h5.222v-.447c-1.362-.037-1.474-.168-1.474-1.865v-8.018c0-1.25.038-2.443.112-3.823l-3.841.205v.429c1.324 0 1.455.168 1.455 1.809v9.398c0 1.697-.112 1.828-1.474 1.865zm15.217-5.258c-.038-1.175-.131-1.734-.336-2.294-.615-1.603-1.958-2.461-3.86-2.461-2.834 0-4.681 2.051-4.681 5.184 0 3.114 1.902 5.109 4.867 5.109 1.921 0 3.17-.783 4.103-2.555l-.466-.298c-.69 1.361-1.791 2.126-3.077 2.126-1.138 0-1.995-.616-2.536-1.846-.336-.783-.466-1.585-.485-2.965zm-6.452-.541c.074-.97.186-1.566.391-2.144.392-1.082 1.007-1.641 1.809-1.641.727 0 1.249.466 1.604 1.454.205.578.279 1.156.317 2.331zm12.12 4.289c-2.032 0-2.48-.149-2.48-.802 0-.41.224-.671.858-1.007a6.632 6.632 0 0 0 1.66.205c1.1 0 2.107-.298 2.815-.857.709-.56 1.119-1.492 1.119-2.536 0-1.026-.317-1.735-1.1-2.499h1.827v-.821c-1.305.056-1.958.075-1.995.075-.466 0-.69-.019-1.287-.112-.671-.112-1.044-.149-1.473-.149-2.442 0-4.027 1.417-4.027 3.599 0 .876.279 1.659.764 2.126.224.223.448.391 1.063.727l-.951.596c-.765.485-.951.765-.951 1.324 0 .467.186.895.503 1.231.206.224.392.336.84.541-1.324.746-1.511.97-1.511 1.753 0 1.454 1.529 2.256 4.252 2.256 1.51 0 2.76-.28 3.655-.82.82-.504 1.324-1.436 1.324-2.48 0-.933-.411-1.623-1.119-1.958-.709-.299-1.324-.392-2.947-.392zm-1.771-5.147c0-1.92.578-2.927 1.715-2.927 1.138 0 1.679.988 1.679 3.039 0 2.014-.541 3.002-1.679 3.002-1.118 0-1.715-1.1-1.715-3.114zm2.07 6.956c2.107 0 2.927.391 2.927 1.417 0 1.231-1.119 1.958-2.946 1.958-1.921 0-2.872-.746-2.872-2.219 0-.671.187-1.044.597-1.138zm14.321-5.557c-.038-1.175-.131-1.734-.336-2.294-.615-1.603-1.958-2.461-3.86-2.461-2.834 0-4.68 2.051-4.68 5.184 0 3.114 1.902 5.109 4.867 5.109 1.92 0 3.17-.783 4.102-2.555l-.466-.298c-.69 1.361-1.79 2.126-3.077 2.126-1.137 0-1.995-.616-2.536-1.846-.336-.783-.466-1.585-.485-2.965zm-6.452-.541c.074-.97.186-1.566.391-2.144.392-1.082 1.007-1.641 1.809-1.641.727 0 1.25.466 1.604 1.454.205.578.28 1.156.317 2.331zm13.836 1.007c0 1.436.466 2.76 1.287 3.674.783.876 2.107 1.417 3.505 1.417 1.474 0 2.835-.56 3.693-1.511.764-.857 1.23-2.237 1.23-3.692 0-3.095-1.902-5.109-4.829-5.109-1.418 0-2.686.485-3.487 1.324-.877.932-1.399 2.368-1.399 3.897zm2.517-.093c0-1.622.187-2.816.597-3.618.317-.69.97-1.081 1.734-1.081 1.623 0 2.369 1.491 2.369 4.755 0 3.244-.728 4.699-2.35 4.699-1.604 0-2.35-1.529-2.35-4.755zm11.953-4.252h2.462v-.596h-2.462l-.037-2.014c0-1.492.242-2.033.932-2.033.429 0 .597.261.653 1.082.037.466.075.596.186.746.168.205.485.317.877.317.802 0 1.268-.317 1.268-.877 0-.951-1.231-1.678-2.797-1.678-1.082 0-2.051.335-2.667.932-.485.466-.727 1.1-.727 1.902 0 .299.019.989.037 1.623h-1.454v.596h1.454v6.825c0 1.66-.13 1.846-1.417 1.865v.447h5.221v-.447c-1.417-.056-1.529-.187-1.529-1.865zm-224.699 30.814c0 1.958.578 3.804 1.585 5.072 1.1 1.398 2.928 2.2 4.998 2.2 2.069 0 3.86-.802 4.978-2.2 1.026-1.268 1.585-3.096 1.585-5.072 0-1.958-.559-3.786-1.585-5.054-1.118-1.417-2.909-2.2-4.978-2.2-2.089 0-3.916.802-4.998 2.2-1.025 1.306-1.585 3.096-1.585 5.054zm2.723 0c0-2.145.298-3.73.951-4.998.596-1.156 1.585-1.753 2.909-1.753s2.275.578 2.89 1.753c.653 1.268.951 2.816.951 4.998 0 2.2-.298 3.748-.951 5.016-.597 1.156-1.585 1.753-2.89 1.753-1.324 0-2.313-.597-2.909-1.753-.653-1.287-.951-2.835-.951-5.016zm14.395 5.93c1.045.932 2.033 1.323 3.301 1.323 2.778 0 4.438-2.013 4.438-5.389 0-3.095-1.492-4.904-4.047-4.904-1.286 0-2.144.504-2.89 1.66v-1.977c0-1.193.037-2.331.112-3.822l-3.823.205v.429c1.306 0 1.436.167 1.436 1.808v8.839c0 1.734 0 2.051-.074 2.909h.671zm.746-3.562c0-1.417.187-2.48.578-3.375.411-.895 1.138-1.455 1.921-1.455 1.324 0 2.014 1.604 2.014 4.643 0 3.04-.727 4.625-2.107 4.625-.783 0-1.548-.522-1.902-1.268-.336-.746-.504-1.753-.504-3.17zm8.615 4.736c.616-.112.672-.112.951-.112.224 0 .448.019.672.056 1.1.187 1.361.224 1.902.224 2.107 0 3.356-1.175 3.356-3.114 0-1.398-.615-2.126-2.517-3.002-1.679-.765-1.679-.765-2.089-1.082s-.578-.652-.578-1.137c0-.933.653-1.548 1.66-1.548 1.342 0 2.126 1.007 2.256 2.909h.69l.168-3.263c-.429.149-.634.186-.895.186-.205 0-.299-.018-.821-.112-.54-.093-1.025-.149-1.324-.149-2.107 0-3.449 1.156-3.449 2.965 0 .671.205 1.212.652 1.678.448.485.914.784 2.014 1.268 2.163 1.007 2.648 1.418 2.648 2.331 0 1.026-.69 1.623-1.827 1.623-.914 0-1.567-.373-2.089-1.175-.298-.485-.447-.988-.559-1.958h-.672zm11.785-9.267h2.257v-.597h-2.257c0-1.697.019-2.275.056-3.04l-.932.094c-.168.932-.354 1.473-.69 1.995-.429.671-.951.951-1.772.988v.56h1.063v5.818c0 1.659.056 2.107.28 2.573.354.653 1.1 1.025 2.107 1.025.97 0 1.79-.298 2.555-.932l-.261-.466c-.466.373-.914.578-1.306.578-.391 0-.764-.28-.913-.69-.131-.373-.187-.858-.187-1.678zm12.289 3.878c-.037-1.175-.131-1.734-.336-2.293-.615-1.604-1.958-2.462-3.86-2.462-2.834 0-4.68 2.051-4.68 5.184 0 3.114 1.902 5.109 4.867 5.109 1.92 0 3.17-.783 4.102-2.554l-.466-.299c-.69 1.362-1.79 2.126-3.077 2.126-1.137 0-1.995-.615-2.536-1.846-.336-.783-.466-1.585-.485-2.965zm-6.452-.541c.074-.969.186-1.566.391-2.144.392-1.081 1.007-1.641 1.809-1.641.727 0 1.25.466 1.604 1.455.205.578.28 1.156.317 2.33zm11.095-3.337h2.256v-.597h-2.256c0-1.697.019-2.275.056-3.04l-.932.094c-.168.932-.355 1.473-.69 1.995-.429.671-.951.951-1.772.988v.56h1.063v5.818c0 1.659.056 2.107.28 2.573.354.653 1.1 1.025 2.107 1.025.97 0 1.79-.298 2.555-.932l-.262-.466c-.466.373-.913.578-1.305.578-.391 0-.764-.28-.914-.69-.13-.373-.186-.858-.186-1.678zm3.17-.597v.447c1.175 0 1.343.224 1.343 1.809v5.166c0 1.659-.131 1.846-1.418 1.864v.448h5.184v-.448c-1.38-.056-1.491-.186-1.491-1.864v-3.45c0-.877.149-1.511.447-2.07.317-.541.69-.858 1.044-.876h.038c.298 0 .391.13.54.652.131.429.373.597.877.597.783 0 1.342-.466 1.342-1.138 0-.801-.671-1.417-1.585-1.417-1.062 0-2.013.727-2.759 2.107v-.559c0-.373-.019-.802-.056-1.51zm8.298 0v.447c1.305.019 1.399.15 1.399 1.809v5.166c0 1.659-.131 1.846-1.455 1.864v.448h5.184v-.448c-1.324-.018-1.454-.205-1.454-1.864v-4.047c0-1.193.037-2.499.111-3.617zm1.212-3.189c0 .746.597 1.343 1.343 1.343s1.342-.597 1.342-1.343-.596-1.342-1.342-1.342-1.343.596-1.343 1.342zm13.445 10.294c-.634 1.379-1.734 2.2-3.021 2.2-.951 0-1.734-.522-2.219-1.473-.429-.858-.653-1.958-.653-3.17 0-1.156.205-2.48.522-3.301.299-.727.951-1.193 1.716-1.193.914 0 1.454.634 1.529 1.753.037.671.037.671.149.82.168.205.522.336.951.336.765 0 1.268-.355 1.268-.914 0-1.324-1.771-2.443-3.841-2.443-1.343 0-2.499.448-3.319 1.25-.933.969-1.474 2.424-1.474 4.027 0 3.003 1.921 5.035 4.793 5.035 1.865 0 3.244-.876 4.084-2.61zm1.324-7.105v.447c1.305.019 1.398.15 1.398 1.809v5.166c0 1.659-.13 1.846-1.454 1.864v.448h5.184v-.448c-1.324-.018-1.455-.205-1.455-1.864v-4.047c0-1.193.037-2.499.112-3.617zm1.212-3.189c0 .746.596 1.343 1.342 1.343s1.343-.597 1.343-1.343-.597-1.342-1.343-1.342-1.342.596-1.342 1.342zm14.433 12.419c-1.194-.018-1.268-.13-1.268-2.181 0-.131 0-.485.018-1.007l.019-1.623.019-1.622c0-1.156-.224-1.827-.728-2.312-.559-.522-1.473-.765-2.759-.765-1.268 0-2.275.224-3.059.709-.727.447-1.156 1.081-1.156 1.734 0 .559.448.858 1.306.858.783 0 1.1-.243 1.137-.914.056-.709.112-1.007.298-1.324.262-.447.653-.634 1.25-.634 1.119 0 1.454.578 1.454 2.555v1.212a22.668 22.668 0 0 0 -3.058.354c-1.995.392-2.983 1.38-2.983 2.984 0 1.678 1.1 2.741 2.871 2.741 1.212 0 2.219-.466 3.189-1.511.093 1.138.28 1.418.876 1.418.485 0 1.474-.094 2.574-.224zm-3.469-3.449c0 1.062-.093 1.678-.335 2.163-.355.764-1.063 1.23-1.809 1.23-.914 0-1.511-.876-1.511-2.2 0-1.734.951-2.424 3.655-2.629zm8-6.023-3.636.242v.447c1.231.019 1.38.224 1.38 1.809v5.166c0 1.659-.131 1.846-1.418 1.864v.448h5.091v-.448c-1.268-.018-1.398-.186-1.398-1.864v-3.73c0-.615.205-1.38.503-1.921.466-.801 1.138-1.23 1.921-1.23 1.156 0 1.641.839 1.641 2.853v4.028c0 1.64-.149 1.846-1.399 1.864v.448h5.072v-.448c-1.286-.018-1.417-.205-1.417-1.864v-4.14c0-1.119-.13-1.734-.466-2.294-.485-.858-1.324-1.268-2.536-1.268-1.492 0-2.518.578-3.319 1.884zm8.932 10.106c.615-.112.671-.112.951-.112.224 0 .448.019.671.056 1.101.187 1.362.224 1.902.224 2.107 0 3.357-1.175 3.357-3.114 0-1.398-.616-2.126-2.518-3.002-1.678-.765-1.678-.765-2.088-1.082s-.578-.652-.578-1.137c0-.933.653-1.548 1.66-1.548 1.342 0 2.125 1.007 2.256 2.909h.69l.168-3.263c-.429.149-.634.186-.895.186-.206 0-.299-.018-.821-.112-.541-.093-1.026-.149-1.324-.149-2.107 0-3.45 1.156-3.45 2.965 0 .671.205 1.212.653 1.678.448.485.914.784 2.014 1.268 2.163 1.007 2.648 1.418 2.648 2.331 0 1.026-.69 1.623-1.828 1.623-.913 0-1.566-.373-2.088-1.175-.298-.485-.448-.988-.56-1.958h-.671zm23.924-.634c-1.193-.018-1.268-.13-1.268-2.181 0-.131 0-.485.019-1.007l.019-1.623.018-1.622c0-1.156-.223-1.827-.727-2.312-.559-.522-1.473-.765-2.76-.765-1.268 0-2.275.224-3.058.709-.727.447-1.156 1.081-1.156 1.734 0 .559.448.858 1.305.858.784 0 1.101-.243 1.138-.914.056-.709.112-1.007.298-1.324.261-.447.653-.634 1.25-.634 1.118 0 1.454.578 1.454 2.555v1.212a22.668 22.668 0 0 0 -3.058.354c-1.995.392-2.984 1.38-2.984 2.984 0 1.678 1.101 2.741 2.872 2.741 1.212 0 2.219-.466 3.189-1.511.093 1.138.279 1.418.876 1.418.485 0 1.473-.094 2.573-.224zm-3.468-3.449c0 1.062-.093 1.678-.336 2.163-.354.764-1.063 1.23-1.808 1.23-.914 0-1.511-.876-1.511-2.2 0-1.734.951-2.424 3.655-2.629zm8-6.023-3.637.242v.447c1.231.019 1.38.224 1.38 1.809v5.166c0 1.659-.13 1.846-1.417 1.864v.448h5.091v-.448c-1.268-.018-1.399-.186-1.399-1.864v-3.73c0-.615.205-1.38.504-1.921.466-.801 1.137-1.23 1.92-1.23 1.157 0 1.641.839 1.641 2.853v4.028c0 1.64-.149 1.846-1.398 1.864v.448h5.072v-.448c-1.287-.018-1.417-.205-1.417-1.864v-4.14c0-1.119-.131-1.734-.466-2.294-.485-.858-1.324-1.268-2.536-1.268-1.492 0-2.518.578-3.32 1.884zm14.339-3.972v.429c1.306.018 1.418.149 1.418 1.883v2.685c-.728-.727-1.548-1.063-2.574-1.063-2.61 0-4.289 2.107-4.289 5.408 0 1.604.429 2.909 1.231 3.767.69.708 1.66 1.118 2.723 1.118 1.23 0 2.144-.447 3.058-1.473l.074 1.362 3.282-.168v-.429c-.615-.019-.708-.037-.876-.149-.28-.224-.354-.728-.354-2.238v-7.533c0-1.436.037-2.406.111-3.804zm1.474 8.932c0 2.965-.858 4.717-2.294 4.717-.522 0-.988-.242-1.287-.671-.559-.783-.858-2.2-.858-3.953 0-2.928.802-4.587 2.22-4.587 1.435 0 2.219 1.603 2.219 4.494zm18.367-1.492v.485c1.548.056 1.716.223 1.716 1.753v3.188c-.261.243-.411.336-.765.466a4.817 4.817 0 0 1 -1.827.392c-.933 0-1.772-.336-2.369-.932-1.081-1.119-1.734-3.338-1.734-5.93 0-1.79.299-3.319.877-4.531.652-1.362 1.79-2.089 3.244-2.089 1.231 0 2.313.559 3.04 1.585.485.671.746 1.417.932 2.536l.69-.019v-4.326c-.466.187-.746.243-1.1.243-.28 0-.56-.038-.839-.112-1.473-.354-1.921-.429-2.872-.429-4.046 0-6.657 2.928-6.657 7.496 0 4.42 2.424 7.03 6.489 7.03.989 0 1.753-.13 3.077-.503.914-.261 1.324-.336 2.2-.411a23.626 23.626 0 0 1 -.055-1.864v-1.585c0-1.1.055-1.455.279-1.66.205-.205.504-.28 1.175-.298v-.485zm11.99 4.065-1.92-5.035c-.224-.596-.28-.802-.28-1.081 0-.504.317-.709 1.119-.728v-.447h-4.979v.429c.876.074 1.044.28 1.678 1.771l3.263 7.795-.279.746c-.355.858-.616 1.1-1.194 1.1-.186 0-.335-.019-.783-.112a3.677 3.677 0 0 0 -.746-.093c-.485 0-.746.335-.746.969 0 .858.466 1.287 1.362 1.287 1.156 0 1.827-.69 2.592-2.61l3.17-8.056c.839-2.107 1.305-2.648 2.349-2.797v-.429h-4.065v.429c1.044.056 1.473.391 1.473 1.156 0 .354-.074.69-.317 1.305zm8.764-7.533-3.636.242v.447c1.231.019 1.38.224 1.38 1.809v5.166c0 1.659-.13 1.846-1.417 1.864v.448h5.091v-.448c-1.268-.018-1.399-.186-1.399-1.864v-3.73c0-.615.205-1.38.504-1.921.466-.801 1.137-1.23 1.92-1.23 1.156 0 1.641.839 1.641 2.853v4.028c0 1.64-.149 1.846-1.398 1.864v.448h5.072v-.448c-1.287-.018-1.418-.205-1.418-1.864v-4.14c0-1.119-.13-1.734-.466-2.294-.485-.858-1.324-1.268-2.536-1.268-1.492 0-2.517.578-3.319 1.884zm17.678 4.717c-.037-1.175-.131-1.734-.336-2.293-.615-1.604-1.958-2.462-3.86-2.462-2.834 0-4.68 2.051-4.68 5.184 0 3.114 1.902 5.109 4.867 5.109 1.921 0 3.17-.783 4.102-2.554l-.466-.299c-.69 1.362-1.79 2.126-3.077 2.126-1.137 0-1.995-.615-2.536-1.846-.335-.783-.466-1.585-.485-2.965zm-6.452-.541c.075-.969.187-1.566.392-2.144.391-1.081 1.007-1.641 1.808-1.641.728 0 1.25.466 1.604 1.455.205.578.28 1.156.317 2.33zm16.223 3.171c-.634 1.379-1.734 2.2-3.021 2.2-.951 0-1.734-.522-2.219-1.473-.429-.858-.652-1.958-.652-3.17 0-1.156.205-2.48.522-3.301.298-.727.951-1.193 1.715-1.193.914 0 1.455.634 1.529 1.753.038.671.038.671.15.82.167.205.522.336.951.336.764 0 1.268-.355 1.268-.914 0-1.324-1.772-2.443-3.842-2.443-1.342 0-2.498.448-3.319 1.25-.932.969-1.473 2.424-1.473 4.027 0 3.003 1.921 5.035 4.792 5.035 1.865 0 3.245-.876 4.084-2.61zm1.548-2.164c0 1.436.466 2.76 1.287 3.674.783.876 2.107 1.417 3.505 1.417 1.473 0 2.835-.559 3.692-1.51.765-.858 1.231-2.238 1.231-3.692 0-3.096-1.902-5.11-4.83-5.11-1.417 0-2.685.485-3.487 1.324-.876.933-1.398 2.368-1.398 3.897zm2.517-.093c0-1.622.187-2.816.597-3.617.317-.69.97-1.082 1.734-1.082 1.622 0 2.368 1.492 2.368 4.755 0 3.245-.727 4.699-2.349 4.699-1.604 0-2.35-1.529-2.35-4.755zm8.336 4.886h5.221v-.448c-1.361-.037-1.473-.168-1.473-1.864v-8.019c0-1.249.037-2.443.112-3.822l-3.842.205v.429c1.324 0 1.455.167 1.455 1.808v9.399c0 1.696-.112 1.827-1.473 1.864zm6.321-4.793c0 1.436.466 2.76 1.287 3.674.783.876 2.107 1.417 3.505 1.417 1.473 0 2.835-.559 3.692-1.51.765-.858 1.231-2.238 1.231-3.692 0-3.096-1.902-5.11-4.829-5.11-1.418 0-2.686.485-3.487 1.324-.877.933-1.399 2.368-1.399 3.897zm2.517-.093c0-1.622.187-2.816.597-3.617.317-.69.97-1.082 1.734-1.082 1.623 0 2.368 1.492 2.368 4.755 0 3.245-.727 4.699-2.349 4.699-1.604 0-2.35-1.529-2.35-4.755zm12.904 3.375c-2.032 0-2.48-.149-2.48-.801 0-.411.224-.672.858-1.007a6.632 6.632 0 0 0 1.66.205c1.1 0 2.107-.299 2.815-.858.709-.559 1.119-1.492 1.119-2.536 0-1.026-.317-1.734-1.1-2.499h1.827v-.82a114.56 114.56 0 0 1 -1.995.074c-.466 0-.69-.018-1.287-.112-.671-.111-1.044-.149-1.473-.149-2.443 0-4.028 1.417-4.028 3.599 0 .877.28 1.66.765 2.126.224.224.448.392 1.063.727l-.951.597c-.765.485-.951.764-.951 1.324 0 .466.186.895.503 1.231.205.223.392.335.839.54-1.323.746-1.51.97-1.51 1.753 0 1.455 1.529 2.256 4.252 2.256 1.51 0 2.759-.279 3.654-.82.821-.503 1.324-1.436 1.324-2.48 0-.932-.41-1.622-1.118-1.958-.709-.298-1.324-.392-2.947-.392zm-1.771-5.146c0-1.921.578-2.928 1.715-2.928 1.138 0 1.679.988 1.679 3.04 0 2.014-.541 3.002-1.679 3.002-1.119 0-1.715-1.1-1.715-3.114zm2.07 6.955c2.107 0 2.927.392 2.927 1.417 0 1.231-1.119 1.958-2.946 1.958-1.921 0-2.872-.746-2.872-2.219 0-.671.187-1.044.597-1.137zm5.202-10.032v.447c1.305.019 1.399.15 1.399 1.809v5.166c0 1.659-.131 1.846-1.455 1.864v.448h5.184v-.448c-1.324-.018-1.454-.205-1.454-1.864v-4.047c0-1.193.037-2.499.112-3.617zm1.212-3.189c0 .746.597 1.343 1.343 1.343s1.342-.597 1.342-1.343-.596-1.342-1.342-1.342-1.343.596-1.343 1.342zm5.184 13.053c.616-.112.671-.112.951-.112.224 0 .448.019.671.056 1.101.187 1.362.224 1.902.224 2.108 0 3.357-1.175 3.357-3.114 0-1.398-.615-2.126-2.517-3.002-1.679-.765-1.679-.765-2.089-1.082s-.578-.652-.578-1.137c0-.933.653-1.548 1.66-1.548 1.342 0 2.125 1.007 2.256 2.909h.69l.168-3.263c-.429.149-.634.186-.895.186-.205 0-.299-.018-.821-.112-.541-.093-1.025-.149-1.324-.149-2.107 0-3.449 1.156-3.449 2.965 0 .671.205 1.212.652 1.678.448.485.914.784 2.014 1.268 2.163 1.007 2.648 1.418 2.648 2.331 0 1.026-.69 1.623-1.827 1.623-.914 0-1.567-.373-2.089-1.175-.298-.485-.447-.988-.559-1.958h-.672zm11.785-9.267h2.257v-.597h-2.257c0-1.697.019-2.275.056-3.04l-.932.094c-.168.932-.355 1.473-.69 1.995-.429.671-.951.951-1.772.988v.56h1.063v5.818c0 1.659.056 2.107.28 2.573.354.653 1.1 1.025 2.107 1.025.97 0 1.79-.298 2.555-.932l-.261-.466c-.466.373-.914.578-1.306.578-.391 0-.764-.28-.913-.69-.131-.373-.187-.858-.187-1.678zm3.543 9.267c.616-.112.671-.112.951-.112.224 0 .448.019.671.056 1.101.187 1.362.224 1.902.224 2.108 0 3.357-1.175 3.357-3.114 0-1.398-.615-2.126-2.517-3.002-1.679-.765-1.679-.765-2.089-1.082s-.578-.652-.578-1.137c0-.933.653-1.548 1.66-1.548 1.342 0 2.125 1.007 2.256 2.909h.69l.168-3.263c-.429.149-.634.186-.895.186-.205 0-.299-.018-.821-.112-.541-.093-1.025-.149-1.324-.149-2.107 0-3.449 1.156-3.449 2.965 0 .671.205 1.212.652 1.678.448.485.914.784 2.014 1.268 2.163 1.007 2.648 1.418 2.648 2.331 0 1.026-.69 1.623-1.827 1.623-.914 0-1.567-.373-2.089-1.175-.298-.485-.447-.988-.559-1.958h-.672z" fill="#333"/></svg>