<svg clip-rule="evenodd" fill-rule="evenodd" stroke-linejoin="round" stroke-miterlimit="2" viewBox="0 0 560 400" xmlns="http://www.w3.org/2000/svg"><g transform="matrix(.232939 0 0 .232939 41.4818 21.0926)"><path d="m1097.3 471c-44.9-2-94.7 4.9-142.6 29.1-51.6 26-97.2 76-119.7 124.8-39 85.1-34.7 197.7 46.4 287.2 80 88.2 196.1 101.4 283 69.4 50-18.5 103.9-59.4 134.4-109 27.8-45.3 39-94.4 38.4-141.1 2.1-2 2 5 2.5 8.6 9.3 57.5 2.9 122.7-22.3 180-28.3 63.9-87.6 131.3-159.5 165.9-63.1 30.5-129 39.1-193.6 29.5-62.5-9.4-132.2-39.1-189.1-100.3-56.8-60.9-82.7-131.8-88-195.6-5.3-66.6 6.3-128.8 41.7-191.2 39.6-69.7 107.8-123.7 175.6-148.7 64.7-24 129.6-22.5 192.8-8.6z" fill="#0870b4"/><path d="m1118.7 691.8c-7.5 5.9-16 11.1-21.9 16.9-2.4-9.5-7.5-20.6-10-31.3 6.3-.7 12.7-1.5 19.1-2.4 4.4 5.7 8.7 11.2 12.8 16.8z" fill="#005f96" fill-rule="nonzero"/><path d="m1068.1 554.5c-5.2 13.6-7 28.9-3.9 45.5 3.7 20.4 13.4 39.3 25.3 57.3 5.2 7.8 10.8 15.6 16.5 23.2-6.4.8-12.8 1.5-19.1 2.4-17.7 2.1-34.8 4.5-49.8 8.9 10.7-41.1 12-96.2 31-137.3z" fill="#0870b4"/><path d="m1068.1 554.5c5.5-14.5 15-26.9 27-36 1.7-1.4 3.4-2.7 5.2-4 17.2-11.6 43.7-19 70-11.2 3.1 1 6.1 2 9 3.3 2.9 1.2 5.7 2.5 8.6 4 23.9 13.3 37.2 37.6 40.9 57.9.4 2.3.7 4.5.8 6.7 1.8 15-.4 30.3-6.9 44.5-16 42.1-54.7 81.7-76.7 118.1-7-13.4-16.9-26.9-27.3-40.7-4.2-5.5-8.4-11.1-12.7-16.6-5.7-7.6-11.3-15.3-16.5-23.2-11.9-17.9-21.6-36.8-25.3-57.3-3.1-16.6-1.3-31.9 3.9-45.5z" fill="#00407a" fill-rule="nonzero"/><path d="m1244.1 691.8c7.5 5.9 16 11.1 21.9 16.9 2.4-9.5 7.5-20.6 9.9-31.3-6.3-.7-12.7-1.5-19.1-2.4-4.2 5.7-8.5 11.2-12.7 16.8z" fill="#005f96" fill-rule="nonzero"/><path d="m1294.8 554.5c5.2 13.6 6.9 28.9 3.9 45.5-3.8 20.4-13.6 39.3-25.4 57.3-5.2 7.8-10.8 15.6-16.5 23.2 6.4.8 12.8 1.5 19.1 2.4 17.8 2.1 34.9 4.5 49.9 8.9-10.7-41.1-12.1-96.2-31-137.3z" fill="#00407a" fill-rule="nonzero"/><g fill="#0870b4"><path d="m1294.8 554.5c-5.6-14.5-15.1-26.9-27-36-1.8-1.4-3.4-2.7-5.3-4-17.1-11.6-43.7-19-70-11.2-3.1 1-6.1 2-8.9 3.3-2.9 1.2-5.7 2.5-8.6 4-24 13.3-37.3 37.6-40.9 57.9-.5 2.3-.7 4.5-1 6.7-1.7 15 .5 30.3 7 44.5 16 42.1 54.7 81.7 76.7 118.1 7-13.4 16.9-26.9 27.3-40.7 4.2-5.5 8.4-11.1 12.6-16.6 5.7-7.6 11.3-15.3 16.5-23.2 11.9-17.9 21.6-36.8 25.4-57.3 3.1-16.6 1.4-31.9-3.8-45.5z"/><path d="m1523.8 819.7c-11.8 205-144.7 377.5-328.2 447.2l-3.3-8.7c180-68.3 310.3-237.5 322.1-438.5zm-687.8 448c-184.5-69.2-318.3-242.2-330.2-448h9.4c11.9 201.7 143.1 371.3 324.1 439.2z"/><path d="m1024.1 221.1 10.6-.2 1.2 54.4c.1 6.7-1.1 12.5-3.6 17.5-2.5 5.1-6.2 9-10.9 11.9-4.5 2.7-9.9 4.3-15.8 4.4h-.5c-7.1.1-13-1.4-17.7-4.6-4.6-3.1-8.3-7.1-10.6-12.1-2.3-4.9-3.6-9.9-3.7-15l-1.2-55 10.6-.2 1.2 52.4c.1 6.7 1.9 12.5 5 17.4 3.2 5 8.6 7.4 16.2 7.3 7.3-.1 12.4-2.5 15.7-7.3 3.3-4.6 4.9-11.1 4.6-19.3zm-33.5-25c1.9-.1 3.4.6 4.9 1.8 1.4 1.2 2.1 2.9 2.1 4.9.1 1.9-.6 3.6-1.9 4.9-1.4 1.4-3 2.1-4.9 2.1-1.7.1-3.3-.6-4.6-1.9-1.5-1.2-2.3-2.9-2.3-4.9-.1-1.9.6-3.6 1.9-4.9 1.4-1.3 2.9-2 4.8-2zm23.9-.6c2 0 3.6.6 5 1.8 1.3 1.3 2 3 2.1 4.9 0 1.9-.6 3.7-1.9 5-1.5 1.3-3.1 2-4.9 2.1-1.7 0-3.3-.6-4.8-2-1.4-1.2-2.1-2.9-2.3-4.8 0-1.9.6-3.7 2-5 1.5-1.2 3-2 4.8-2z" fill-rule="nonzero"/><path d="m1077.7 219.7 51.6 77.9 11.1-62.5 10.7 1.9-15.5 87.8-51.9-77.7-11.1 63-10.5-1.8z" fill-rule="nonzero"/><path d="m1188.6 248.7 10.1 3.4-27.2 81.2-10.1-3.4zm8.8-17.9c1.3-.5 2.5-.6 3.6-.2.4.1.6.4 1 .5 1.3.8 2 2 2.6 3.7.4 1.4.2 2.7-.1 3.9-.1.4-.2.7-.5 1.1-.8 1.5-1.9 2.6-3.4 3.3-1.1.4-2.1.5-3.2.1-.4-.1-.7-.4-1-.5-1.5-.6-2.4-1.8-2.9-3.4-.4-1.3-.2-2.7.2-4.2.1-.4.2-.6.2-.8.9-1.8 2-2.8 3.5-3.5z" fill-rule="nonzero"/><path d="m818.5 250.5 80.5 47.4-17.5-61.1 10.5-3 24.5 85.7-80.7-47.1 17.6 61.5-10.1 3z" fill-rule="nonzero"/><path d="m1224.9 261.5 10.7 4.9-3 68.2 49.4-47.1 10.7 4.9-71.2 66.6z" fill-rule="nonzero"/><path d="m1323.4 312.3 37.6 26.7-5.7 8-28.8-20.6-13.9 19.6 28.1 20-5.6 8-28.1-20-18.8 26.4 28.8 20.4-5.6 8-37.6-26.6z" fill-rule="nonzero"/><path d="m749 284.3 77.6 60.5-10.3 5.3-18.5-14.6-34.8 18.1 1.2 23.5-10.2 5.3zm10.8 20.8 2.6 37.8 26.9-14z" fill-rule="nonzero"/><path d="m1389.7 361.9 11.2 10.6c7.3 7 11.4 13.1 12.4 18.2 1.4 7.6-.7 14.5-6.2 20.9-.1.2-.4.5-.6.7-4.2 4.3-8.9 6.8-14.6 7.4-5.9.6-11.5-1-16.5-4.5l-6.1 45.6-9.3-8.9 6.5-43.6-3.2-3.1-25 26.3-7.7-7.4zm1.2 14.3-21.5 22.5c6.7 6.3 12.2 10 16.8 11.4 4.5 1.1 8.9-.5 13.3-5 3-3.2 4.3-7 3.8-11.4-.6-4.4-3.8-9.4-9.9-15.1z" fill-rule="nonzero"/><path d="m691.9 402-22.1-70.5 71.8 56-8.3 7.3-45-36.4 19.3 61.6-58.4-27.8 29.8 49.9-8.1 7-45.5-78.9z" fill-rule="nonzero"/><path d="m1460.2 464.2c2.4-5.9 1.7-11.3-2.1-16-2.5-3.2-5.5-5-9.2-5.6-3.7-.7-6.7-.1-8.9 1.7-.1.1-.2.2-.4.2-3.6 2.9-4.8 7.4-3.4 13.4.8 2.4 1.7 5.6 3 9.6 1.2 4.2 1.9 8.3 2.3 12.8.2 4.4-.5 8.3-2.4 11.6-1.9 3.4-4.3 6.3-7.3 8.6-5.8 4.6-12.4 6.4-19.5 5.3-7.3-1.2-13.3-4.5-18.1-10.2 0-.1 0-.1-.1-.1-4-5.2-5.9-11.2-5.6-17.8.2-6.9 3-12.8 8.1-17.8l8.4 7c-4.2 3.3-6.2 7.1-6.3 11.5-.1 4.3 1.2 8.2 3.8 11.5 2.3 3 5.3 4.9 9.3 5.7 3.8.8 7.6 0 11.4-2.3 1.1-.7 2-1.3 2.9-1.9 3-2.4 4.6-5 4.9-8.2.2-4.2-.7-9.4-2.6-15.5-1.4-4.9-2.3-9.2-2.6-12.7-.5-3.6-.2-7.1 1-10.5s3.4-6.3 6.5-8.7c.1-.1.2-.2.4-.4 4.2-3.3 9.5-4.6 15.9-3.7 6.3 1 11.9 4.4 16.6 10.3 5.9 7.6 7.1 16 3.2 25.3z" fill-rule="nonzero"/><path d="m566.5 435 95.6 23.3-7.3 9-22.8-5.6-24.4 30.7 10.8 21-7.3 9zm18.4 14.5 17.8 33.4 18.8-23.8z" fill-rule="nonzero"/><path d="m1499.8 492.7 5.3 9.3-74.4 42.6-5.3-9.3zm18.5-7.5c1.2.5 2.1 1.2 2.7 2.1.2.4.2.7.5 1 .4 1.4.1 3-.6 4.5-.7 1.3-1.7 2.3-2.7 2.9-.2.2-.6.4-1 .5-1.7.7-3.2.7-4.8.2-1.1-.5-2-1.1-2.5-2.1-.2-.2-.2-.6-.5-1-.7-1.4-.6-2.9.2-4.4.6-1.3 1.7-2.3 2.9-3 .4-.1.6-.4.8-.5 1.8-.6 3.4-.6 5-.2z" fill-rule="nonzero"/><path d="m1519.5 549.1-8.4-18.5 8.9-4 21.2 46.8-8.8 4-8.4-18.7-69.2 31.3-4.4-9.6z" fill-rule="nonzero"/><path d="m560.3 537.5-55.9.1 6.1-10.6 42.2-.1-21.2-36.5 6.1-10.6 28.1 48.4 32.3 18.5-5.3 9.3z" fill-rule="nonzero"/><path d="m487.6 576.5 3.9-10 79.8 31.3-3.9 10z" fill-rule="nonzero"/><path d="m1552.7 603.8 12.7 44.3-9.4 2.6-9.7-34-23.1 6.7 9.5 33-9.4 2.7-9.5-33.2-31.1 8.9 9.7 34-9.4 2.7-12.7-44.2z" fill-rule="nonzero"/><path d="m1563 725.8c5.1-3.9 7.3-8.8 6.4-15-.5-3.9-2.1-7-5-9.4-2.9-2.5-5.7-3.4-8.6-3.1h-.5c-4.5.6-7.7 3.9-9.7 9.7-.6 2.5-1.4 5.7-2.4 9.9-1.1 4.2-2.6 8.1-4.5 12.1-2.1 3.9-4.8 6.9-8.1 8.9-3.4 1.9-6.9 3.1-10.6 3.6-7.4 1-13.9-.8-19.6-5.5-5.6-4.6-9-10.6-10.2-17.8v-.2c-.8-6.5.6-12.6 4.3-18.2 3.7-5.8 9.2-9.5 16-11.2l3.7 10.2c-5.2.8-9 3.1-11.3 6.8-2.4 3.7-3.2 7.6-2.7 11.8.5 3.8 2.3 7 5.1 9.7 2.9 2.7 6.5 3.9 11.1 3.9 1.2 0 2.4-.1 3.3-.2 3.8-.5 6.5-2 8.4-4.6 2.3-3.3 4.2-8.3 5.6-14.6 1.3-4.9 2.7-8.9 4.3-12.2 1.4-3.2 3.4-6.2 6.2-8.4 2.7-2.3 6.1-3.7 10.1-4.2.1 0 .2 0 .4-.1 5.3-.6 10.6 1 15.6 5s8.1 9.9 9 17.5c1.3 9.5-2 17.4-10.1 23.4z" fill-rule="nonzero"/><path d="m458.1 667 5-17.1c1.7-5.7 3.9-10.9 6.8-15.8s6.5-9 10.9-12.6c4.5-3.6 9.9-6.1 15.8-7.4s12.6-.8 20 1.2c.4.1.7.1 1.1.2 7 2 13.2 5.5 18.4 10.2 5.5 5 9.2 11.5 11.2 19.5s1.4 17.2-1.5 27.6l-5.2 18.1zm12.4-7.5 63.6 18.4 1.8-6.2c3.4-11.8 3.1-21.8-1-29.7-3.9-8-10.6-13.2-19.7-15.8-.2-.1-.5-.1-.7-.2-10.1-2.9-18.8-1.8-26.1 3.2-7.5 4.9-12.8 13.3-16.3 25.2z" fill-rule="nonzero"/><path d="m1582.4 766.2.2 10.6-85.7 2-.2-10.7zm19.7 2.2c1 1 1.4 2.1 1.4 3.2v1.1c-.4 1.4-1.2 2.6-2.7 3.7-1.2.8-2.4 1.2-3.7 1.2h-1.2c-1.7-.2-3-1-4.2-2.1-.7-.8-1.2-1.9-1.2-3v-1.1c.1-1.5.8-2.9 2.4-3.8 1.1-.8 2.5-1.2 3.9-1.2h1c1.9.1 3.3.8 4.3 2z" fill-rule="nonzero"/><path d="m444.4 743.3 92.2-34.1-.8 11.5-22.1 8.1-3 39.1 20.7 11.4-1 11.5zm23.4 1.8 33.5 17.7 2.3-30.3z" fill-rule="nonzero"/><path d="m863.5 1319.4 51.5-39.8c5.6-4.5 8.9-8.9 10-13.2 1-4.4.2-8.7-2.4-12.8-2.7-4-6.2-6.7-10.5-7.6-.4-.1-.7-.1-1-.2-4.9-1.1-9-.4-12.8 2.1-4 2.7-6.7 6.2-7.7 10.1l-10.9-2.6c2.6-7.6 6.9-13.2 12.8-16.9 5.8-3.7 12.8-4.6 20.9-2.9 5 1.2 9.4 3.4 13.1 6.8 3.8 3.3 6.5 7.4 8.2 12 1.7 4.8 1.9 9.6.8 14.5-1.7 6.8-5.1 12.2-10.6 16.4l-37.4 29 35.8 8.3-2.4 10.1zm116.5-74.4c4.9.4 9.2 1.9 13 4.5 3.8 2.9 6.9 6.4 9.3 10.8s4.2 9.6 5.2 15.6c1 5.9 1.2 12.2.7 18.9-.6 8.6-2.6 16.4-5.7 23.5-3.3 7.1-7.5 12.6-12.7 16.4-5.1 3.8-10.7 5.5-16.9 5s-11.5-3-16-7.6c-4.5-4.5-7.8-10.5-9.9-18.1-2.3-7.5-3-15.5-2.4-24.1.6-6.3 1.8-12.4 3.7-18.1s4.4-10.7 7.6-14.9c3.1-4 6.7-7.3 10.9-9.4 4.1-2 8.5-2.8 13.2-2.5zm-.7 9.6c-6.1-.5-11.4 2.9-15.9 9.9-4.4 7-7.1 15.7-7.8 26-.8 10.5.5 19.4 3.9 27 3.3 7.6 8.1 11.6 14.1 12.1 6.2.5 11.5-2.7 16-9.6 4.3-6.8 6.9-15.6 7.7-26.3s-.4-19.9-3.7-27.5c-3.3-7.3-8.1-11.2-14.1-11.6zm68.9-8.9c4.9-.4 9.4.5 13.6 2.6s7.7 5.2 10.7 9.2c3.1 4 5.6 8.9 7.6 14.6 1.9 5.7 3.1 11.9 3.6 18.7.6 8.6-.1 16.5-2.1 24.1-2.1 7.5-5.5 13.4-10 18.1-4.5 4.5-9.9 7-16 7.5-6.2.5-11.9-1.2-17-5s-9.3-9.3-12.5-16.4c-3.3-7.1-5.2-15-5.9-23.5-.5-6.3-.1-12.5 1-18.4 1-5.9 2.7-11.2 5.2-15.8 2.4-4.5 5.5-8.2 9.3-10.9 3.6-2.9 7.8-4.4 12.5-4.8zm.9 9.7c-6.2.5-10.9 4.6-14.3 12.2s-4.6 16.5-3.9 26.9c.8 10.5 3.4 19.1 8 26 4.5 7 9.7 10.3 15.9 9.9 6.1-.5 10.9-4.4 14.3-11.9 3.3-7.5 4.5-16.5 3.8-27.1-.8-10.8-3.4-19.6-7.8-26.6-4.4-6.8-9.6-9.9-15.8-9.4zm77.5-22.4 9.3 3.4-16.3 37.6.2.1c2.3-2 5-3.3 8.2-4.2 4.4-1 8.9-.7 13.4.7s8.4 4 11.9 7.7c3.3 3.8 5.7 8.3 7 13.9 1.2 5.3.8 10.5-.7 15.6-1.7 5-4.4 9.2-8.2 12.6-3.7 3.4-8 5.8-13 7.3h-.5c-4.9 1.2-10 1.1-15.1-.5-5.3-1.4-10-4-13.8-7.7-3.8-3.4-6.4-7.7-7.6-12.5.1-.5 0-1 0-1.3-1-4.9-1-9-.2-12.5.8-3.4 2.4-7.7 4.5-12.8zm23.2 61.9c-.7-3-2.3-5.7-4.8-8.3-2.5-2.5-5.5-4.4-9-5.5-3.4-.8-6.7-1-9.7-.4-.1.1-.4.1-.5.1-3.2.8-5.9 2.5-8.2 4.9-2.3 2.5-3.9 5.2-5 8.2-1.1 3.2-1.4 6.1-1 8.7.1 0 .1.1.1.2 1.2 5.1 4 9.2 8.7 12.2 4.5 3.1 9.4 4.2 14.5 3.2.4-.2 1-.5 1.5-.6 4.9-1.5 8.6-4.5 11.2-8.9 2.6-4.1 3.3-8.8 2.2-13.8z" fill-rule="nonzero"/></g></g></svg>