<svg clip-rule="evenodd" fill-rule="evenodd" stroke-linejoin="round" stroke-miterlimit="2" viewBox="0 0 560 400" xmlns="http://www.w3.org/2000/svg"><g fill="#2b5eba" transform="matrix(.108042 0 0 .108042 144.923 67.5947)"><circle cx="1976.22" cy="1224.88" r="523.527"/><circle cx="1314.66" cy="252.437" r="252.437"/><circle cx="1314.66" cy="2198.56" r="252.437"/><path d="m1199.02 1602.91c14.92 4.98 31.08 7.46 47.25 7.46 87.05 0 157.93-70.88 157.93-157.93 0-87.04-70.88-157.92-157.93-157.92-55.96 0-104.46 28.6-133.06 72.12v1.24c-4.97 6.22-8.7 13.68-11.19 21.14-174.095 307.16-523.527 101.97-523.527 101.97-57.202-33.57-123.109-53.47-195.234-53.47-210.157 0-380.521 170.37-380.521 380.52 0 210.16 170.364 380.52 380.521 380.52 146.736 0 274.82-83.31 336.997-205.18v-1.24c11.191-21.14 19.896-43.53 27.357-67.15 181.556-416.59 451.407-322.08 451.407-322.08zm-89.54-558.34c7.46 13.68 17.41 27.35 28.6 38.55 62.18 62.17 161.66 62.17 222.59 0 62.18-62.18 62.18-161.663 0-222.596-39.79-39.793-94.5-53.472-144.25-42.28h-1.24c-7.46 1.243-16.16 3.73-23.63 7.461-340.724 94.508-442.693-298.448-442.693-298.448-16.166-64.663-49.741-125.596-99.483-175.338-149.223-149.223-389.225-149.223-537.205-1.243s-149.224 389.225 0 537.205c104.457 104.457 252.437 135.549 384.251 93.265h1.244c22.383-7.461 44.767-17.409 67.15-28.601 421.557-166.633 544.666 92.025 544.666 92.025z" fill-rule="nonzero"/></g></svg>