<svg clip-rule="evenodd" fill-rule="evenodd" stroke-linejoin="round" stroke-miterlimit="2" viewBox="0 0 560 400" xmlns="http://www.w3.org/2000/svg"><g fill-rule="nonzero"><path d="m30 156.604h500v86.792h-500z" fill="#c4373a"/><g fill="#fff"><path d="m85.717 192.625-18.932 8.386 18.932 8.434zm-23.815 10.276-4.412-1.877 4.412-2.023 37.39-16.815v4.479l-9.804 4.321v20.097l9.804 4.369v4.275z"/><path d="m120.644 182.63h26.836v3.853h-22.652v12.485h20.261v3.86h-20.261v12.869h22.913v3.846h-27.097z"/><path d="m184.535 201.453c1.382 0 2.655-.173 3.83-.523 1.166-.354 2.171-.85 3.024-1.506.856-.649 1.518-1.436 1.995-2.375.481-.934.717-1.988.717-3.188v-.105c0-2.285-.832-4.064-2.494-5.349-1.669-1.284-4.002-1.927-7.021-1.927h-11.478v14.973zm-15.626-18.826h15.965c2.298 0 4.346.332 6.137.975 1.779.649 3.254 1.56 4.419 2.718.919.912 1.624 1.99 2.126 3.218.494 1.23.739 2.582.739 4.061v.101c0 1.513-.245 2.871-.739 4.095-.502 1.208-1.196 2.265-2.088 3.161-.903.898-1.975 1.635-3.223 2.216-1.234.574-2.578 1.009-4.029 1.29l11.407 15.078h-5.139l-10.777-14.339h-10.599v14.339h-4.199z"/><path d="m237.343 216.321c2.122 0 4.082-.384 5.86-1.179 1.784-.791 3.31-1.879 4.585-3.242 1.273-1.376 2.278-2.977 3.001-4.799.729-1.83 1.08-3.797 1.08-5.904v-.111c0-2.109-.351-4.088-1.08-5.93-.723-1.849-1.751-3.458-3.043-4.823-1.316-1.376-2.863-2.469-4.649-3.275-1.793-.808-3.747-1.215-5.869-1.215-2.116 0-4.068.394-5.852 1.189-1.792.798-3.323 1.876-4.593 3.243-1.267 1.376-2.27 2.97-3.002 4.8-.719 1.826-1.081 3.795-1.081 5.902v.109c0 2.106.362 4.087 1.081 5.932.732 1.841 1.748 3.459 3.05 4.822 1.314 1.378 2.861 2.466 4.645 3.274 1.782.81 3.745 1.207 5.867 1.207m-.115 3.853c-2.827 0-5.405-.508-7.708-1.534-2.322-1.014-4.304-2.394-5.971-4.132-1.669-1.745-2.944-3.763-3.838-6.061-.911-2.306-1.364-4.721-1.364-7.25v-.111c0-2.526.453-4.957 1.377-7.275.92-2.319 2.226-4.355 3.872-6.097 1.673-1.74 3.655-3.12 6.001-4.164 2.333-1.035 4.91-1.551 7.746-1.551 2.822 0 5.392.51 7.718 1.523 2.31 1.022 4.298 2.405 5.971 4.143 1.65 1.74 2.938 3.763 3.838 6.062.905 2.304 1.362 4.723 1.362 7.25.03.041.03.075 0 .109 0 2.535-.47 4.957-1.385 7.276-.924 2.32-2.204 4.348-3.87 6.088-1.663 1.74-3.666 3.129-5.997 4.172-2.331 1.037-4.911 1.552-7.752 1.552"/><path d="m290.336 220.074c-2.969 0-5.681-.486-8.144-1.457-2.465-.968-4.802-2.443-7.037-4.451l2.607-3.064c1.946 1.765 3.906 3.069 5.886 3.932 1.98.862 4.261 1.29 6.852 1.29 2.506 0 4.509-.579 6.005-1.763 1.507-1.179 2.259-2.683 2.259-4.505v-.112c0-.842-.139-1.607-.426-2.292-.287-.682-.773-1.312-1.478-1.871-.712-.564-1.694-1.076-2.958-1.53-1.26-.455-2.861-.901-4.813-1.318-2.116-.459-3.977-.982-5.55-1.582-1.579-.596-2.888-1.32-3.91-2.162-1.03-.842-1.784-1.828-2.294-2.962-.495-1.118-.741-2.436-.741-3.947v-.103c0-1.444.3-2.775.896-4.012.611-1.23 1.452-2.293 2.55-3.195 1.098-.894 2.39-1.596 3.883-2.109 1.481-.501 3.105-.758 4.866-.758 2.733 0 5.108.371 7.146 1.134 2.037.758 3.997 1.891 5.915 3.4l-2.441 3.219c-1.735-1.408-3.474-2.43-5.229-3.06-1.756-.634-3.573-.95-5.493-.95-2.442 0-4.366.571-5.782 1.719-1.411 1.14-2.116 2.552-2.116 4.243v.105c0 .875.147 1.655.418 2.34.287.689.8 1.318 1.547 1.905.747.582 1.764 1.104 3.078 1.584 1.303.474 2.982.924 5.034 1.338 4.134.884 7.185 2.14 9.154 3.767 1.96 1.642 2.943 3.86 2.943 6.677v.103c0 1.58-.313 3.018-.951 4.301-.622 1.284-1.499 2.385-2.59 3.294-1.11.917-2.444 1.614-4.001 2.113-1.553.489-3.243.739-5.085.739"/><path d="m337.629 202.67c1.547 0 2.954-.196 4.201-.58 1.241-.388 2.304-.934 3.215-1.652.913-.725 1.59-1.58 2.066-2.581.486-.996.729-2.093.729-3.285v-.105c0-2.625-.92-4.611-2.748-5.966-1.82-1.352-4.247-2.021-7.257-2.021h-9.415v16.19zm-13.398-20.043h13.904c2.088 0 3.979.27 5.701.823 1.709.545 3.176 1.311 4.402 2.317 1.219 1.002 2.156 2.218 2.799 3.662.656 1.444 1 3.079 1 4.908v.106c0 1.996-.394 3.753-1.168 5.251-.788 1.489-1.839 2.747-3.161 3.761-1.322 1.022-2.878 1.79-4.637 2.293-1.777.517-3.642.774-5.638.774h-9.013v13.02h-4.189z"/><path d="m372.76 182.629h4.198v36.913h-4.198z"/><path d="m400.557 182.63h4.202v22.043l21.318-22.043h5.407l-15.909 16.132 16.606 20.781h-5.25l-14.274-17.874-7.898 7.961v9.913h-4.202z"/><path d="m451.435 182.63h26.836v3.853h-22.653v12.485h42.373v3.86h-42.373v12.869h22.921v3.846h-27.104z"/></g></g></svg>