<svg clip-rule="evenodd" fill-rule="evenodd" stroke-linejoin="round" stroke-miterlimit="2" viewBox="0 0 560 400" xmlns="http://www.w3.org/2000/svg" xmlns:xlink="http://www.w3.org/1999/xlink"><linearGradient id="a" gradientUnits="userSpaceOnUse" x1="25.211" x2="126.892" y1="13.168" y2="13.168"><stop offset="0" stop-color="#a8996e"/><stop offset=".5" stop-color="#fce3c4"/><stop offset="1" stop-color="#a8996e"/></linearGradient><linearGradient id="b" gradientTransform="matrix(0 -133.905 133.905 0 76 159.806)" gradientUnits="userSpaceOnUse" x1="0" x2="1" y1="0" y2="0"><stop offset="0" stop-color="#970608"/><stop offset="1" stop-color="#db181e"/></linearGradient><g fill-rule="nonzero" transform="matrix(1.3157 0 0 1.3157 180 68.4244)"><path d="m69.33.08c-1.25.03-2.88.09-3.62.12s-2.05.09-2.92.13c-.86.04-2.5.14-3.65.2-1.14.07-2.84.19-3.78.26-.93.07-2.45.2-3.37.28s-2.46.23-3.42.33-2.65.28-3.75.41c-1.1.12-3.21.39-4.69.59-1.48.19-3.59.49-4.69.66s-3.16.5-4.56.73c-1.41.24-3.66.64-5 .89s-2.82.54-3.29.63c-.48.1-1.57.33-2.44.51-.86.18-2.5.54-3.65.79-1.14.26-3.21.74-4.59 1.08-1.38.33-3.29.81-4.25 1.07-.97.25-2.38.62-3.15.83-.76.21-2.08.58-2.91.82-.84.24-1.54.46-1.56.49s-.04 11.76-.04 26.05c0 15.57.02 26.94.05 28.36.03 1.3.07 2.94.1 3.64s.09 1.86.13 2.59.12 1.95.18 2.72c.05.77.15 1.95.2 2.62.06.67.16 1.75.23 2.39.07.65.19 1.77.28 2.5.08.72.24 1.99.35 2.82.11.82.29 2.11.41 2.85.11.74.31 1.95.43 2.69.13.74.36 2.04.51 2.88s.43 2.23.6 3.1c.18.87.49 2.31.69 3.2.2.9.52 2.27.71 3.06.19.78.54 2.15.78 3.05.23.89.61 2.28.84 3.07.23.8.63 2.18.89 3.06.27.88.72 2.3 1 3.15s.78 2.35 1.13 3.33c.34.98.94 2.63 1.33 3.66.39 1.04.91 2.4 1.17 3.03.25.63.65 1.63.89 2.21.25.59.68 1.61.97 2.27.28.65.73 1.65.98 2.21.26.56.78 1.67 1.15 2.47.37.79 1.2 2.48 1.84 3.73.64 1.26 1.52 2.96 1.96 3.77s1.12 2.03 1.51 2.72.98 1.72 1.32 2.29.99 1.66 1.45 2.41c.47.76 1.16 1.87 1.55 2.47.38.6 1.04 1.61 1.46 2.24s1.15 1.7 1.62 2.39c.48.69 1.26 1.8 1.75 2.47s1.3 1.77 1.81 2.44c.5.67 1.38 1.81 1.95 2.54.58.73 1.48 1.85 2 2.49.53.65 1.42 1.71 1.98 2.37.55.66 1.46 1.7 2 2.31.55.62 1.6 1.77 2.34 2.57s2.14 2.26 3.12 3.25c.97.99 2.35 2.37 3.06 3.05.71.69 1.87 1.78 2.56 2.42.7.64 1.91 1.73 2.69 2.42s1.99 1.73 2.69 2.32c.69.59 1.86 1.55 2.58 2.14.73.59 1.94 1.55 2.69 2.13.75.59 2.07 1.58 2.92 2.21s2.24 1.64 3.09 2.25c.85.6 2.18 1.53 2.96 2.06.79.53 2.02 1.34 2.74 1.81l1.32.85h2.05c2.03-1.27 3.06-1.94 3.6-2.31.55-.36 1.59-1.07 2.31-1.57.73-.51 1.84-1.3 2.48-1.76.65-.46 1.72-1.25 2.39-1.75.67-.51 1.66-1.26 2.2-1.68.55-.42 1.45-1.13 2.01-1.58.55-.45 1.58-1.28 2.28-1.86.69-.57 1.78-1.49 2.41-2.04.63-.54 1.56-1.36 2.08-1.82.51-.46 1.57-1.43 2.35-2.15s2.18-2.05 3.1-2.95c.93-.91 2.18-2.16 2.79-2.79s1.48-1.54 1.92-2.01c.45-.48 1.26-1.36 1.8-1.96.55-.6 1.31-1.46 1.7-1.91.39-.44 1.07-1.22 1.5-1.73.43-.5 1.21-1.43 1.72-2.06.52-.63 1.34-1.64 1.83-2.26.48-.62 1.18-1.51 1.55-1.98l1.47-1.96c.44-.6 1.17-1.61 1.62-2.24s1.1-1.56 1.45-2.06 1.17-1.73 1.82-2.72c.66-.99 1.48-2.27 1.83-2.82.35-.56.93-1.51 1.29-2.12.37-.6.92-1.54 1.24-2.08.33-.55.83-1.42 1.12-1.93.29-.52.86-1.55 1.27-2.29.4-.74 1.15-2.16 1.66-3.16.51-.99 1.18-2.32 1.48-2.95.31-.63.81-1.68 1.12-2.34.3-.65.92-2.03 1.38-3.05.45-1.02 1.08-2.5 1.41-3.28.32-.78.77-1.89 1-2.47.23-.57.62-1.58.87-2.23.25-.66.65-1.74.89-2.39.23-.66.67-1.9.96-2.75s.75-2.25 1.03-3.1c.27-.86.67-2.13.88-2.83s.51-1.73.67-2.29c.15-.56.44-1.59.63-2.28.19-.7.54-2.04.78-2.98s.63-2.57.87-3.64c.24-1.06.51-2.31.61-2.77s.27-1.28.38-1.83.31-1.61.45-2.37c.14-.75.38-2.12.53-3.05.15-.92.35-2.13.43-2.69s.25-1.8.38-2.75.31-2.43.41-3.28.24-2.26.33-3.13c.08-.87.21-2.33.28-3.25.07-.93.16-2.3.2-3.06.04-.75.11-1.88.14-2.51.04-.85.06-8.66.08-29.73l.02-28.59c-2.82-.81-4.14-1.18-4.75-1.34-.61-.17-1.9-.51-2.87-.76-.96-.26-2.87-.74-4.25-1.07-1.38-.34-3.45-.82-4.59-1.08-1.15-.25-2.51-.55-3.04-.66-.53-.12-1.63-.34-2.44-.51s-2.62-.52-4.03-.78c-1.41-.27-3.65-.67-4.99-.89s-3.35-.55-4.46-.72c-1.12-.16-3.14-.45-4.49-.63s-3.04-.4-3.75-.48c-.71-.09-2.03-.24-2.92-.33-.89-.1-2.45-.26-3.47-.36s-2.99-.27-4.39-.38c-1.39-.11-3.48-.26-4.64-.33-1.15-.07-2.81-.17-3.67-.21-.87-.04-2.13-.1-2.82-.13-.68-.02-2.48-.08-4-.12-1.7-.05-4.31-.08-6.79-.07-2.22 0-5.06.03-6.32.07z"/><path d="m69.13.09c.08.01.24.01.35 0 .12-.01.05-.02-.15-.02-.19 0-.28.01-.2.02zm13.39 0c.08.01.24.01.35 0s.04-.02-.15-.02c-.2 0-.29.01-.2.02zm-12.3 7.57c-.13.01-.58.06-1.01.1-.44.04-.89.1-1.02.13-.12.03-.29.09-.37.13-.07.04-.16.12-.2.18-.05.09-.07 1.22-.08 5.02-.01 4.89-.01 4.91.09 5.05l.11.14c2.02-.06 2.05-.06 2.16-.18.12-.12.12-.12.12-1.95v-1.83h1.14c1.49 2.81 1.97 3.68 2.03 3.74l.1.13c2.38-.08 2.43-.09 2.45-.19.01-.06-.46-.97-1.09-2.13-.6-1.12-1.07-2.04-1.05-2.05s.18-.1.36-.2c.17-.11.42-.3.55-.42.13-.13.33-.37.44-.54s.24-.46.3-.66c.1-.3.12-.47.12-1.09 0-.45-.03-.85-.07-1.02-.04-.15-.15-.45-.24-.65-.12-.25-.27-.46-.49-.69-.22-.22-.45-.38-.75-.53-.24-.12-.6-.26-.81-.31-.21-.06-.6-.12-.88-.15-.27-.04-.76-.06-1.09-.05-.32 0-.69.02-.82.02zm7.2.21c-.09.09-.15.22-.17.37-.02.13-.03 2.4-.02 5.05.01 4.54.02 4.82.1 4.91.08.07.21.09 1.02.1.76.01.94 0 1.03-.06l.12-.08c.02-4.92.04-5.98.07-5.99s.28.37.54.84c.27.47 1.03 1.79 1.69 2.94.66 1.14 1.24 2.12 1.29 2.18.05.05.15.12.22.16.1.05.43.08.99.11.69.02.89.02 1.02-.04.1-.04.21-.14.24-.21.06-.12.07-1.02.07-5.12 0-3.11-.02-5-.05-5.04-.02-.05-.16-.1-.29-.12-.13-.01-.58-.03-1-.04-.56 0-.78.02-.82.06-.05.05-.07.83-.08 3.17-.01 2.42-.03 3.11-.08 3.11-.03 0-.83-1.35-1.77-3.01-.95-1.65-1.76-3.06-1.82-3.14-.05-.08-.16-.18-.23-.22-.11-.05-.38-.07-1.03-.07h-.9zm-13.63.11c-.39.03-.49.05-.55.13-.06.09-.07.64-.07 3.56 0 2.9-.01 3.52-.08 3.82-.04.19-.12.44-.18.56-.07.11-.21.27-.32.36-.14.11-.33.18-.61.25-.28.06-.52.08-.78.06-.21-.01-.48-.06-.59-.11s-.25-.13-.32-.2c-.06-.06-.15-.18-.2-.26-.04-.08-.11-.28-.15-.43-.06-.23-.08-1.01-.1-3.84-.02-3-.03-3.58-.1-3.64-.06-.07-.19-.07-1.07-.01-.8.05-1.02.09-1.12.16l-.13.09c-.03 5.52-.01 6.87.02 7.19.03.26.09.62.14.78.04.17.15.48.25.68.11.23.29.49.47.69.18.19.43.38.65.5.19.1.53.24.75.31.37.1.51.11 1.44.11.67 0 1.15-.02 1.35-.06.17-.04.47-.13.68-.19.21-.07.51-.2.68-.29.16-.09.38-.25.5-.34.12-.1.31-.29.43-.43.12-.15.3-.42.39-.62.1-.2.23-.54.28-.76.06-.23.13-.7.16-1.04.02-.35.04-2.03.04-3.72.01-2.38-.01-3.1-.06-3.2-.06-.13-.07-.13-.69-.13-.35-.01-.85 0-1.11.02zm25.75.08c-.18.03-.49.14-.68.24-.21.1-.44.27-.59.42-.13.14-.3.37-.37.51s-.17.41-.22.59c-.09.3-.09.56-.09 3.35 0 2.7 0 3.07.08 3.41.05.21.17.53.26.71.09.19.28.45.41.59.14.14.42.34.61.44.2.1.54.23.76.29.23.06.68.13 1.02.16.33.03 1.17.05 1.85.04 1.08-.01 1.26-.03 1.38-.1l.14-.09c0-1.49-.01-1.54-.11-1.65-.11-.11-.17-.12-1.28-.18-.65-.04-1.4-.08-1.68-.1s-.57-.07-.66-.11c-.08-.04-.19-.16-.25-.28-.09-.18-.1-.32-.11-1.16l-.02-.95c.65.04 1.31.08 1.88.1.57.03 1.23.07 1.47.09.4.03.44.02.54-.08.11-.1.12-.15.12-.85 0-.69-.01-.74-.12-.86l-.11-.13c-2.87-.16-3.72-.2-3.74-.2s-.03-.38-.02-.85c.01-.69.03-.89.1-1.02.05-.1.16-.2.28-.25.16-.07.3-.08.9-.05.39.02 1.13.06 1.65.1.92.06.95.06 1.06-.04.1-.1.1-.16.1-.87 0-.66-.01-.77-.09-.85-.05-.04-.26-.12-.47-.16-.21-.05-.63-.12-.94-.16-.3-.04-1.04-.09-1.64-.1-.79-.02-1.18 0-1.42.05zm6.6.37-.26.26c-.01 9.17 0 10.17.06 10.22.03.03.38.08.82.11.42.03.89.07 1.04.08.2.02.3.01.35-.04s.06-.68.06-3.13c0-1.68.01-3.07.03-3.09.03-.01.08.02.12.07.05.05.36.62.71 1.28.34.66.67 1.25.74 1.32.11.12.18.14.82.19.38.03.75.04.82.02.07-.01.15-.07.19-.13s.36-.6.72-1.22c.35-.61.67-1.12.7-1.13.05-.01.06.62.06 3.05 0 2.87.01 3.07.09 3.17s.19.12 1.03.2c.52.05 1 .09 1.06.09.07-.01.15-.04.17-.07.02-.04.04-2.3.04-5.02 0-4.06-.01-4.97-.07-5.11-.04-.09-.11-.21-.17-.25-.06-.07-.27-.12-.7-.17-.33-.04-.75-.07-.93-.07-.27-.01-.33.01-.47.13-.08.08-.66 1.05-1.28 2.15-.64 1.14-1.16 2.01-1.2 2.01-.05 0-.55-.92-1.23-2.24-.63-1.23-1.22-2.3-1.29-2.38-.11-.1-.22-.15-.44-.18-.17-.03-.6-.06-.95-.08zm-44.81.22c-.19.02-.54.09-.78.15s-.59.18-.79.27c-.19.09-.47.25-.61.34-.14.1-.37.29-.52.43s-.35.36-.44.49c-.09.12-.25.38-.34.58-.1.2-.23.51-.29.69-.05.18-.14.53-.18.79-.06.34-.08.84-.08 2 0 1.19.02 1.67.08 2.04.05.27.16.68.25.91.09.24.24.56.34.72.1.15.32.4.48.56.17.15.47.36.68.46.21.11.52.23.68.27.17.04.51.09.76.11.26.02.7.01.99-.02.3-.03.72-.11.94-.16.22-.06.64-.22.94-.37.37-.19.63-.36.88-.6.19-.18.44-.47.56-.63.11-.17.27-.47.36-.67.09-.19.21-.53.27-.76.06-.22.13-.6.16-.84s.05-.95.05-1.57c0-.63-.03-1.4-.06-1.71s-.11-.75-.17-.98c-.07-.23-.2-.56-.28-.74-.09-.17-.26-.44-.37-.58-.12-.15-.35-.38-.51-.51-.17-.12-.39-.27-.49-.32-.09-.05-.33-.14-.53-.19-.19-.06-.55-.13-.78-.16-.24-.03-.53-.05-.64-.05-.11.01-.36.03-.56.05zm-9.65 1c-.1.01-.5.06-.89.12s-1.02.17-1.4.25c-.37.09-.77.21-.88.27s-.25.19-.32.29l-.12.18c0 7.7.02 9.42.06 9.52.03.11.11.2.21.25.09.05.34.09.55.11.21.01.73 0 1.16-.04.44-.03 1.06-.09 1.4-.13.33-.03.81-.11 1.06-.17.25-.05.66-.17.91-.26.26-.09.55-.21.66-.27.12-.05.34-.19.51-.31s.42-.34.55-.49c.14-.15.32-.43.41-.61.1-.18.21-.49.26-.68.06-.28.08-.51.06-1.02-.01-.52-.04-.73-.13-.94-.05-.16-.21-.41-.35-.56-.14-.16-.36-.34-.48-.41l-.23-.13c.58-.54.7-.7.86-1.01.1-.23.22-.54.24-.69.03-.15.05-.46.05-.69 0-.22-.03-.56-.07-.76-.05-.2-.13-.46-.19-.58-.07-.12-.22-.34-.35-.48-.14-.16-.35-.31-.58-.42-.19-.09-.49-.21-.66-.25-.21-.06-.57-.09-1.21-.1-.51-.01-1-.01-1.09.01zm68.26.14c-.19.04-.49.12-.66.18-.16.06-.41.19-.55.28s-.39.31-.55.48c-.18.19-.36.46-.49.73-.11.23-.26.6-.32.82-.1.38-.11.56-.13 2.17-.01 1.43 0 1.84.07 2.26.04.28.14.69.22.91.07.23.24.59.36.81.13.22.35.54.51.71.15.17.41.4.58.52s.45.29.63.38c.19.09.49.22.69.29.19.06.56.16.81.2s.73.08 1.06.08c.45 0 .72-.03.99-.1.21-.06.52-.17.69-.25.2-.09.43-.27.71-.55.27-.27.45-.51.55-.71.08-.17.19-.42.23-.56.05-.14.13-.48.18-.76.07-.44.08-.76.06-2.17s-.04-1.72-.12-2.11c-.06-.25-.17-.64-.26-.86-.09-.23-.25-.56-.37-.74s-.29-.43-.39-.55-.35-.35-.54-.5c-.2-.16-.56-.38-.81-.5s-.64-.27-.86-.33c-.23-.06-.6-.13-.84-.15-.24-.03-.58-.05-.76-.05s-.49.03-.69.07zm7.37 1.05c-.04.08-.05.94-.03 3.7.02 3.39.03 3.62.13 4.05.06.25.16.62.24.81.07.2.18.44.24.54s.2.3.32.45c.11.14.36.39.56.55.19.16.56.39.81.51s.67.27.94.34c.26.07.71.16 1 .21.28.04.7.08.92.08s.58-.04.8-.08c.22-.05.54-.15.71-.23.17-.09.44-.26.58-.4.15-.14.34-.38.43-.55.09-.16.2-.41.24-.55.05-.14.12-.45.16-.69.06-.34.07-1.17.07-3.95v-3.52c-.19-.15-.56-.24-1.23-.35-.81-.13-1.01-.15-1.08-.1-.07.06-.07.44-.07 3.27 0 1.76-.02 3.43-.05 3.71-.04.36-.09.59-.18.78-.1.2-.18.3-.37.4-.21.13-.28.14-.67.14-.24 0-.56-.05-.73-.09-.17-.05-.42-.15-.55-.23-.16-.08-.31-.23-.42-.39-.09-.14-.21-.39-.26-.56-.08-.27-.09-.69-.11-3.92-.03-3.55-.03-3.63-.13-3.7-.06-.04-.5-.13-.99-.2-.49-.08-.96-.14-1.05-.14-.11 0-.18.04-.23.11zm-86.21.28c-.08.01-.32.04-.53.07s-.54.1-.73.15c-.2.05-.53.16-.74.25-.21.08-.53.25-.71.37s-.45.32-.6.45c-.15.12-.39.39-.54.59-.15.19-.35.51-.44.71-.1.19-.24.54-.31.76s-.16.58-.19.79c-.05.28-.07.84-.07 2.06.01 1.51.02 1.73.11 2.19.07.33.19.66.34.96.16.33.31.55.52.76.16.16.43.37.6.47.17.09.49.22.71.28.3.08.55.1.99.1.32 0 .79-.04 1.04-.08s.72-.15 1.04-.24c.32-.08.7-.21.86-.29.16-.07.3-.19.34-.26.04-.08.06-.37.06-.8 0-.37-.02-.73-.04-.79s-.07-.13-.11-.15-.41.05-.81.14c-.4.1-.99.21-1.29.26-.49.08-.6.08-.86.02-.23-.05-.36-.12-.5-.25-.11-.1-.24-.27-.3-.37-.05-.11-.13-.34-.17-.51-.05-.25-.07-.68-.07-1.9 0-1.38.01-1.62.09-1.96.05-.21.15-.48.2-.59.06-.12.19-.3.28-.41.09-.1.28-.25.42-.33.13-.07.41-.18.6-.22.2-.04.81-.12 1.37-.17.77-.08 1.03-.12 1.09-.18s.08-.25.1-.76c0-.37 0-.74-.02-.83-.02-.1-.07-.19-.14-.23s-.38-.07-.77-.07c-.37-.01-.73 0-.82.01zm95.64 1.28c-.04.09-.05.39-.04.89.02.66.04.76.13.85.08.08.36.15 1.28.32l1.18.21c0 7.34.01 8.3.06 8.4.03.07.12.15.19.17.07.03.5.12.96.21s.9.16.97.16.15-.04.19-.09c.05-.08.06-.98.06-4.23 0-3.9 0-4.13.09-4.13.05 0 .57.1 1.15.22.64.13 1.11.21 1.17.19.09-.04.1-.09.11-.91.01-.78 0-.89-.07-.97-.06-.06-.36-.14-.88-.25-.43-.09-1.99-.4-3.47-.68-1.48-.27-2.76-.5-2.85-.5-.14 0-.18.03-.23.14zm-102.94.07c-.3.02-.87.09-1.26.15s-.94.16-1.22.22c-.28.07-.69.19-.91.28-.23.09-.52.24-.66.33s-.35.24-.45.34c-.11.09-.3.31-.43.48-.12.17-.26.43-.32.58-.06.16-.14.41-.19.56-.06.24-.08.88-.09 4.38-.02 3.9-.02 4.1.07 4.18.09.09.13.09 1.08-.1.74-.14 1.03-.22 1.11-.29.11-.11.11-.11.11-2.23 0-1.17.01-2.13.03-2.14.02-.02.79-.16 1.71-.33s1.76-.34 1.87-.36c.1-.03.22-.11.26-.17.06-.09.08-.28.08-.87s-.02-.76-.08-.82c-.04-.04-.09-.08-.11-.08s-.65.11-1.41.25c-.75.14-1.58.3-1.84.36-.44.1-.47.1-.5.01-.02-.04-.02-.44-.01-.87.02-.58.05-.83.11-.94.04-.09.15-.22.23-.3.09-.07.25-.16.35-.18.11-.03.85-.17 1.66-.32 1.2-.21 1.49-.28 1.59-.37.11-.1.11-.14.11-.87 0-.42-.02-.79-.04-.82s-.09-.07-.16-.08c-.07-.02-.38-.01-.69.02zm111.85 1.55c-.02.02-.04 2.35-.04 5.18.01 4.86.02 5.14.1 5.22.06.06.46.17 1.05.3.53.11.99.2 1.03.2.03 0 .09-.03.14-.07.07-.07.08-.33.08-2.16v-2.09c.17.04.94.21 1.81.41.87.19 1.6.35 1.61.35s.02.96.02 2.13v2.12c.2.18.51.28 1.15.42.5.12.95.22 1.01.22s.13-.03.17-.07c.04-.05.06-1.22.06-5.15 0-5.03 0-5.09-.1-5.2-.08-.08-.24-.14-.6-.22-.27-.06-.72-.16-1-.23-.35-.08-.54-.1-.6-.07-.08.05-.09.2-.09 1.98 0 1.52-.01 1.94-.06 1.94-.03-.01-.8-.17-1.71-.38l-1.65-.37c-.04-3.62-.06-3.94-.12-4.01-.05-.04-.49-.16-1.01-.28-.5-.11-.99-.2-1.06-.2-.08 0-.17.01-.19.03zm-122.49.51c-.09.01-.31.05-.5.1-.19.04-.49.13-.68.2s-.46.21-.6.3-.34.27-.45.39-.28.38-.37.58c-.13.29-.36 1.25-1.23 5.12-.59 2.63-1.07 4.83-1.07 4.9s.03.14.07.15c.03.01.53-.09 1.1-.22.58-.13 1.08-.27 1.13-.31s.11-.15.14-.23c.02-.09.15-.67.28-1.3s.24-1.15.24-1.16c.01 0 .65-.15 1.43-.33s1.42-.32 1.43-.32c0 0 .12.52.27 1.15.14.63.28 1.18.32 1.21.05.06.24.03 1.14-.15.6-.12 1.12-.24 1.16-.27s.08-.12.08-.2c0-.09-.47-2.05-1.05-4.35-.72-2.89-1.09-4.3-1.2-4.52-.08-.17-.22-.38-.32-.46-.09-.07-.27-.17-.39-.21-.12-.03-.35-.07-.5-.08-.16-.01-.35 0-.43.01z" fill="#a8996e"/><path d="m69.13.09c.08.01.24.01.35 0 .12-.01.05-.02-.15-.02-.19 0-.28.01-.2.02zm13.39 0c.08.01.24.01.35 0s.04-.02-.15-.02c-.2 0-.29.01-.2.02zm-12.3 7.57c-.13.01-.58.06-1.01.1-.44.04-.89.1-1.02.13-.12.03-.29.09-.37.13-.07.04-.16.12-.2.18-.05.09-.07 1.22-.08 5.02-.01 4.89-.01 4.91.09 5.05l.11.14c2.02-.06 2.05-.06 2.16-.18.12-.12.12-.12.12-1.95v-1.83h1.14c1.49 2.81 1.97 3.68 2.03 3.74l.1.13c2.38-.08 2.43-.09 2.45-.19.01-.06-.46-.97-1.09-2.13-.6-1.12-1.07-2.04-1.05-2.05s.18-.1.36-.2c.17-.11.42-.3.55-.42.13-.13.33-.37.44-.54s.24-.46.3-.66c.1-.3.12-.47.12-1.09 0-.45-.03-.85-.07-1.02-.04-.15-.15-.45-.24-.65-.12-.25-.27-.46-.49-.69-.22-.22-.45-.38-.75-.53-.24-.12-.6-.26-.81-.31-.21-.06-.6-.12-.88-.15-.27-.04-.76-.06-1.09-.05-.32 0-.69.02-.82.02zm7.2.21c-.09.09-.15.22-.17.37-.02.13-.03 2.4-.02 5.05.01 4.54.02 4.82.1 4.91.08.07.21.09 1.02.1.76.01.94 0 1.03-.06l.12-.08c.02-4.92.04-5.98.07-5.99s.28.37.54.84c.27.47 1.03 1.79 1.69 2.94.66 1.14 1.24 2.12 1.29 2.18.05.05.15.12.22.16.1.05.43.08.99.11.69.02.89.02 1.02-.04.1-.04.21-.14.24-.21.06-.12.07-1.02.07-5.12 0-3.11-.02-5-.05-5.04-.02-.05-.16-.1-.29-.12-.13-.01-.58-.03-1-.04-.56 0-.78.02-.82.06-.05.05-.07.83-.08 3.17-.01 2.42-.03 3.11-.08 3.11-.03 0-.83-1.35-1.77-3.01-.95-1.65-1.76-3.06-1.82-3.14-.05-.08-.16-.18-.23-.22-.11-.05-.38-.07-1.03-.07h-.9zm-13.63.11c-.39.03-.49.05-.55.13-.06.09-.07.64-.07 3.56 0 2.9-.01 3.52-.08 3.82-.04.19-.12.44-.18.56-.07.11-.21.27-.32.36-.14.11-.33.18-.61.25-.28.06-.52.08-.78.06-.21-.01-.48-.06-.59-.11s-.25-.13-.32-.2c-.06-.06-.15-.18-.2-.26-.04-.08-.11-.28-.15-.43-.06-.23-.08-1.01-.1-3.84-.02-3-.03-3.58-.1-3.64-.06-.07-.19-.07-1.07-.01-.8.05-1.02.09-1.12.16l-.13.09c-.03 5.52-.01 6.87.02 7.19.03.26.09.62.14.78.04.17.15.48.25.68.11.23.29.49.47.69.18.19.43.38.65.5.19.1.53.24.75.31.37.1.51.11 1.44.11.67 0 1.15-.02 1.35-.06.17-.04.47-.13.68-.19.21-.07.51-.2.68-.29.16-.09.38-.25.5-.34.12-.1.31-.29.43-.43.12-.15.3-.42.39-.62.1-.2.23-.54.28-.76.06-.23.13-.7.16-1.04.02-.35.04-2.03.04-3.72.01-2.38-.01-3.1-.06-3.2-.06-.13-.07-.13-.69-.13-.35-.01-.85 0-1.11.02zm25.75.08c-.18.03-.49.14-.68.24-.21.1-.44.27-.59.42-.13.14-.3.37-.37.51s-.17.41-.22.59c-.09.3-.09.56-.09 3.35 0 2.7 0 3.07.08 3.41.05.21.17.53.26.71.09.19.28.45.41.59.14.14.42.34.61.44.2.1.54.23.76.29.23.06.68.13 1.02.16.33.03 1.17.05 1.85.04 1.08-.01 1.26-.03 1.38-.1l.14-.09c0-1.49-.01-1.54-.11-1.65-.11-.11-.17-.12-1.28-.18-.65-.04-1.4-.08-1.68-.1s-.57-.07-.66-.11c-.08-.04-.19-.16-.25-.28-.09-.18-.1-.32-.11-1.16l-.02-.95c.65.04 1.31.08 1.88.1.57.03 1.23.07 1.47.09.4.03.44.02.54-.08.11-.1.12-.15.12-.85 0-.69-.01-.74-.12-.86l-.11-.13c-2.87-.16-3.72-.2-3.74-.2s-.03-.38-.02-.85c.01-.69.03-.89.1-1.02.05-.1.16-.2.28-.25.16-.07.3-.08.9-.05.39.02 1.13.06 1.65.1.92.06.95.06 1.06-.04.1-.1.1-.16.1-.87 0-.66-.01-.77-.09-.85-.05-.04-.26-.12-.47-.16-.21-.05-.63-.12-.94-.16-.3-.04-1.04-.09-1.64-.1-.79-.02-1.18 0-1.42.05zm6.6.37-.26.26c-.01 9.17 0 10.17.06 10.22.03.03.38.08.82.11.42.03.89.07 1.04.08.2.02.3.01.35-.04s.06-.68.06-3.13c0-1.68.01-3.07.03-3.09.03-.01.08.02.12.07.05.05.36.62.71 1.28.34.66.67 1.25.74 1.32.11.12.18.14.82.19.38.03.75.04.82.02.07-.01.15-.07.19-.13s.36-.6.72-1.22c.35-.61.67-1.12.7-1.13.05-.01.06.62.06 3.05 0 2.87.01 3.07.09 3.17s.19.12 1.03.2c.52.05 1 .09 1.06.09.07-.01.15-.04.17-.07.02-.04.04-2.3.04-5.02 0-4.06-.01-4.97-.07-5.11-.04-.09-.11-.21-.17-.25-.06-.07-.27-.12-.7-.17-.33-.04-.75-.07-.93-.07-.27-.01-.33.01-.47.13-.08.08-.66 1.05-1.28 2.15-.64 1.14-1.16 2.01-1.2 2.01-.05 0-.55-.92-1.23-2.24-.63-1.23-1.22-2.3-1.29-2.38-.11-.1-.22-.15-.44-.18-.17-.03-.6-.06-.95-.08zm-44.81.22c-.19.02-.54.09-.78.15s-.59.18-.79.27c-.19.09-.47.25-.61.34-.14.1-.37.29-.52.43s-.35.36-.44.49c-.09.12-.25.38-.34.58-.1.2-.23.51-.29.69-.05.18-.14.53-.18.79-.06.34-.08.84-.08 2 0 1.19.02 1.67.08 2.04.05.27.16.68.25.91.09.24.24.56.34.72.1.15.32.4.48.56.17.15.47.36.68.46.21.11.52.23.68.27.17.04.51.09.76.11.26.02.7.01.99-.02.3-.03.72-.11.94-.16.22-.06.64-.22.94-.37.37-.19.63-.36.88-.6.19-.18.44-.47.56-.63.11-.17.27-.47.36-.67.09-.19.21-.53.27-.76.06-.22.13-.6.16-.84s.05-.95.05-1.57c0-.63-.03-1.4-.06-1.71s-.11-.75-.17-.98c-.07-.23-.2-.56-.28-.74-.09-.17-.26-.44-.37-.58-.12-.15-.35-.38-.51-.51-.17-.12-.39-.27-.49-.32-.09-.05-.33-.14-.53-.19-.19-.06-.55-.13-.78-.16-.24-.03-.53-.05-.64-.05-.11.01-.36.03-.56.05zm-9.65 1c-.1.01-.5.06-.89.12s-1.02.17-1.4.25c-.37.09-.77.21-.88.27s-.25.19-.32.29l-.12.18c0 7.7.02 9.42.06 9.52.03.11.11.2.21.25.09.05.34.09.55.11.21.01.73 0 1.16-.04.44-.03 1.06-.09 1.4-.13.33-.03.81-.11 1.06-.17.25-.05.66-.17.91-.26.26-.09.55-.21.66-.27.12-.05.34-.19.51-.31s.42-.34.55-.49c.14-.15.32-.43.41-.61.1-.18.21-.49.26-.68.06-.28.08-.51.06-1.02-.01-.52-.04-.73-.13-.94-.05-.16-.21-.41-.35-.56-.14-.16-.36-.34-.48-.41l-.23-.13c.58-.54.7-.7.86-1.01.1-.23.22-.54.24-.69.03-.15.05-.46.05-.69 0-.22-.03-.56-.07-.76-.05-.2-.13-.46-.19-.58-.07-.12-.22-.34-.35-.48-.14-.16-.35-.31-.58-.42-.19-.09-.49-.21-.66-.25-.21-.06-.57-.09-1.21-.1-.51-.01-1-.01-1.09.01zm68.26.14c-.19.04-.49.12-.66.18-.16.06-.41.19-.55.28s-.39.31-.55.48c-.18.19-.36.46-.49.73-.11.23-.26.6-.32.82-.1.38-.11.56-.13 2.17-.01 1.43 0 1.84.07 2.26.04.28.14.69.22.91.07.23.24.59.36.81.13.22.35.54.51.71.15.17.41.4.58.52s.45.29.63.38c.19.09.49.22.69.29.19.06.56.16.81.2s.73.08 1.06.08c.45 0 .72-.03.99-.1.21-.06.52-.17.69-.25.2-.09.43-.27.71-.55.27-.27.45-.51.55-.71.08-.17.19-.42.23-.56.05-.14.13-.48.18-.76.07-.44.08-.76.06-2.17s-.04-1.72-.12-2.11c-.06-.25-.17-.64-.26-.86-.09-.23-.25-.56-.37-.74s-.29-.43-.39-.55-.35-.35-.54-.5c-.2-.16-.56-.38-.81-.5s-.64-.27-.86-.33c-.23-.06-.6-.13-.84-.15-.24-.03-.58-.05-.76-.05s-.49.03-.69.07zm7.37 1.05c-.04.08-.05.94-.03 3.7.02 3.39.03 3.62.13 4.05.06.25.16.62.24.81.07.2.18.44.24.54s.2.3.32.45c.11.14.36.39.56.55.19.16.56.39.81.51s.67.27.94.34c.26.07.71.16 1 .21.28.04.7.08.92.08s.58-.04.8-.08c.22-.05.54-.15.71-.23.17-.09.44-.26.58-.4.15-.14.34-.38.43-.55.09-.16.2-.41.24-.55.05-.14.12-.45.16-.69.06-.34.07-1.17.07-3.95v-3.52c-.19-.15-.56-.24-1.23-.35-.81-.13-1.01-.15-1.08-.1-.07.06-.07.44-.07 3.27 0 1.76-.02 3.43-.05 3.71-.04.36-.09.59-.18.78-.1.2-.18.3-.37.4-.21.13-.28.14-.67.14-.24 0-.56-.05-.73-.09-.17-.05-.42-.15-.55-.23-.16-.08-.31-.23-.42-.39-.09-.14-.21-.39-.26-.56-.08-.27-.09-.69-.11-3.92-.03-3.55-.03-3.63-.13-3.7-.06-.04-.5-.13-.99-.2-.49-.08-.96-.14-1.05-.14-.11 0-.18.04-.23.11zm-86.21.28c-.08.01-.32.04-.53.07s-.54.1-.73.15c-.2.05-.53.16-.74.25-.21.08-.53.25-.71.37s-.45.32-.6.45c-.15.12-.39.39-.54.59-.15.19-.35.51-.44.71-.1.19-.24.54-.31.76s-.16.58-.19.79c-.05.28-.07.84-.07 2.06.01 1.51.02 1.73.11 2.19.07.33.19.66.34.96.16.33.31.55.52.76.16.16.43.37.6.47.17.09.49.22.71.28.3.08.55.1.99.1.32 0 .79-.04 1.04-.08s.72-.15 1.04-.24c.32-.08.7-.21.86-.29.16-.07.3-.19.34-.26.04-.08.06-.37.06-.8 0-.37-.02-.73-.04-.79s-.07-.13-.11-.15-.41.05-.81.14c-.4.1-.99.21-1.29.26-.49.08-.6.08-.86.02-.23-.05-.36-.12-.5-.25-.11-.1-.24-.27-.3-.37-.05-.11-.13-.34-.17-.51-.05-.25-.07-.68-.07-1.9 0-1.38.01-1.62.09-1.96.05-.21.15-.48.2-.59.06-.12.19-.3.28-.41.09-.1.28-.25.42-.33.13-.07.41-.18.6-.22.2-.04.81-.12 1.37-.17.77-.08 1.03-.12 1.09-.18s.08-.25.1-.76c0-.37 0-.74-.02-.83-.02-.1-.07-.19-.14-.23s-.38-.07-.77-.07c-.37-.01-.73 0-.82.01zm95.64 1.28c-.04.09-.05.39-.04.89.02.66.04.76.13.85.08.08.36.15 1.28.32l1.18.21c0 7.34.01 8.3.06 8.4.03.07.12.15.19.17.07.03.5.12.96.21s.9.16.97.16.15-.04.19-.09c.05-.08.06-.98.06-4.23 0-3.9 0-4.13.09-4.13.05 0 .57.1 1.15.22.64.13 1.11.21 1.17.19.09-.04.1-.09.11-.91.01-.78 0-.89-.07-.97-.06-.06-.36-.14-.88-.25-.43-.09-1.99-.4-3.47-.68-1.48-.27-2.76-.5-2.85-.5-.14 0-.18.03-.23.14zm-102.94.07c-.3.02-.87.09-1.26.15s-.94.16-1.22.22c-.28.07-.69.19-.91.28-.23.09-.52.24-.66.33s-.35.24-.45.34c-.11.09-.3.31-.43.48-.12.17-.26.43-.32.58-.06.16-.14.41-.19.56-.06.24-.08.88-.09 4.38-.02 3.9-.02 4.1.07 4.18.09.09.13.09 1.08-.1.74-.14 1.03-.22 1.11-.29.11-.11.11-.11.11-2.23 0-1.17.01-2.13.03-2.14.02-.02.79-.16 1.71-.33s1.76-.34 1.87-.36c.1-.03.22-.11.26-.17.06-.09.08-.28.08-.87s-.02-.76-.08-.82c-.04-.04-.09-.08-.11-.08s-.65.11-1.41.25c-.75.14-1.58.3-1.84.36-.44.1-.47.1-.5.01-.02-.04-.02-.44-.01-.87.02-.58.05-.83.11-.94.04-.09.15-.22.23-.3.09-.07.25-.16.35-.18.11-.03.85-.17 1.66-.32 1.2-.21 1.49-.28 1.59-.37.11-.1.11-.14.11-.87 0-.42-.02-.79-.04-.82s-.09-.07-.16-.08c-.07-.02-.38-.01-.69.02zm111.85 1.55c-.02.02-.04 2.35-.04 5.18.01 4.86.02 5.14.1 5.22.06.06.46.17 1.05.3.53.11.99.2 1.03.2.03 0 .09-.03.14-.07.07-.07.08-.33.08-2.16v-2.09c.17.04.94.21 1.81.41.87.19 1.6.35 1.61.35s.02.96.02 2.13v2.12c.2.18.51.28 1.15.42.5.12.95.22 1.01.22s.13-.03.17-.07c.04-.05.06-1.22.06-5.15 0-5.03 0-5.09-.1-5.2-.08-.08-.24-.14-.6-.22-.27-.06-.72-.16-1-.23-.35-.08-.54-.1-.6-.07-.08.05-.09.2-.09 1.98 0 1.52-.01 1.94-.06 1.94-.03-.01-.8-.17-1.71-.38l-1.65-.37c-.04-3.62-.06-3.94-.12-4.01-.05-.04-.49-.16-1.01-.28-.5-.11-.99-.2-1.06-.2-.08 0-.17.01-.19.03zm-122.49.51c-.09.01-.31.05-.5.1-.19.04-.49.13-.68.2s-.46.21-.6.3-.34.27-.45.39-.28.38-.37.58c-.13.29-.36 1.25-1.23 5.12-.59 2.63-1.07 4.83-1.07 4.9s.03.14.07.15c.03.01.53-.09 1.1-.22.58-.13 1.08-.27 1.13-.31s.11-.15.14-.23c.02-.09.15-.67.28-1.3s.24-1.15.24-1.16c.01 0 .65-.15 1.43-.33s1.42-.32 1.43-.32c0 0 .12.52.27 1.15.14.63.28 1.18.32 1.21.05.06.24.03 1.14-.15.6-.12 1.12-.24 1.16-.27s.08-.12.08-.2c0-.09-.47-2.05-1.05-4.35-.72-2.89-1.09-4.3-1.2-4.52-.08-.17-.22-.38-.32-.46-.09-.07-.27-.17-.39-.21-.12-.03-.35-.07-.5-.08-.16-.01-.35 0-.43.01z" fill="url(#a)"/><path d="m41.3 15.83-.82.12-.02 2.64c.96-.1 1.42-.16 1.65-.21.22-.04.52-.13.66-.2.14-.06.34-.2.44-.31.12-.12.22-.29.27-.45.04-.14.07-.34.07-.44 0-.11-.03-.31-.06-.46s-.12-.33-.19-.42c-.07-.08-.22-.19-.33-.24-.12-.06-.34-.11-.53-.12-.18-.01-.7.03-1.14.09zm-28.75.88c-.05.05-.08.1-.08.12s-.19.96-.43 2.09c-.23 1.13-.42 2.07-.41 2.07 0 0 .46-.1 1.02-.22.56-.13 1.02-.23 1.03-.24 0 0-.19-.88-.44-1.94-.34-1.51-.46-1.93-.52-1.95-.05-.01-.12.02-.17.07z"/><path d="m41.73 11.62c-.05.01-.28.05-.54.08-.25.03-.51.07-.59.08l-.14.02c0 2.16.01 2.44.06 2.44.04 0 .43-.04.88-.1.44-.05.96-.14 1.15-.2.27-.08.4-.16.59-.35.21-.2.26-.28.31-.54.04-.18.05-.43.03-.59-.02-.15-.07-.35-.12-.43-.05-.09-.2-.21-.34-.28-.21-.1-.35-.12-.74-.13-.26-.01-.51-.01-.55 0zm68.82.36c-.11.04-.28.16-.38.26-.1.11-.23.32-.29.48-.06.15-.13.46-.16.68-.05.28-.06.87-.04 1.83.02 1.12.04 1.49.11 1.73.04.17.13.41.19.54.06.12.22.34.35.47.2.19.32.26.62.35.24.08.5.12.77.12.33 0 .45-.03.65-.13.14-.07.31-.21.4-.33.08-.11.19-.36.26-.56.1-.34.11-.44.11-2.01 0-1.42-.02-1.7-.09-2.01-.05-.19-.16-.47-.23-.6-.08-.14-.24-.34-.37-.46s-.35-.25-.51-.3c-.16-.06-.46-.11-.73-.12-.32-.01-.52 0-.66.06z"/><path d="m70.23 9.75-.21.02v2.77c1.23-.06 1.72-.1 1.87-.13.16-.04.37-.11.47-.16.11-.05.25-.16.32-.23.07-.08.16-.26.2-.4.05-.14.08-.39.08-.56 0-.16-.03-.39-.05-.49-.03-.11-.14-.29-.24-.4-.12-.13-.3-.25-.47-.31-.23-.09-.41-.11-1.02-.12-.4-.01-.83 0-.95.01z"/><path d="m50.97 10.89c-.25.07-.38.16-.59.36-.19.19-.3.36-.38.58-.07.16-.15.43-.18.58-.04.18-.06.82-.05 1.81 0 1.25.01 1.58.08 1.87.05.18.13.43.19.53.05.1.18.27.29.37.1.1.27.21.37.24s.28.07.41.09.38 0 .6-.05c.21-.04.5-.14.63-.22.14-.08.31-.21.38-.29s.17-.26.24-.38c.06-.13.15-.4.2-.61.07-.33.08-.63.06-2.04-.01-1.61-.02-1.66-.14-1.98-.07-.18-.19-.42-.28-.53-.08-.1-.25-.24-.38-.3-.17-.08-.33-.11-.68-.12-.34-.01-.54.01-.77.09z"/><path d="m73.06 25.92c-.71.01-2.37.04-3.68.07s-3.41.1-4.66.16c-1.26.05-2.91.13-3.68.17-.76.05-1.95.11-2.63.16-.69.04-1.74.11-2.34.15-.59.04-1.8.13-2.68.2s-2.32.2-3.2.28c-.87.09-2.36.24-3.29.33-.94.1-2.2.24-2.82.31-.61.07-1.83.22-2.71.33s-2.34.3-3.24.43c-.91.13-2.28.32-3.05.43-.76.12-2.03.31-2.81.44-.78.12-2.03.33-2.79.46-.75.12-2.47.43-3.83.68-1.35.25-3.2.61-4.1.79-.91.19-2.23.46-2.94.61-.71.16-2.05.45-2.97.66s-2.35.54-3.17.74-2.04.5-2.71.66c-.67.17-1.3.33-1.41.36l-.19.04c0 30.18.02 33.12.08 34.57.04.95.11 2.3.15 3s.13 1.85.18 2.57c.06.71.17 1.99.25 2.85.09.85.23 2.15.31 2.89.08.75.25 2.13.38 3.08s.36 2.53.51 3.51.42 2.61.6 3.61c.18 1.01.46 2.51.63 3.33.17.83.5 2.41.74 3.51.24 1.11.7 3.04 1.02 4.3.31 1.26.69 2.71.83 3.23s.4 1.42.57 2.01c.16.59.4 1.41.53 1.83.12.42.48 1.54.78 2.49.3.96.83 2.52 1.16 3.49.33.96.73 2.1.88 2.52s.48 1.29.72 1.93.68 1.75.97 2.47c.3.71.72 1.73.94 2.26.23.53.62 1.47.89 2.09.26.61.84 1.89 1.27 2.84.44.96 1.41 2.98 2.17 4.51.76 1.52 1.7 3.34 2.08 4.04s1.03 1.88 1.45 2.62 1.03 1.79 1.35 2.34c.32.54.93 1.55 1.34 2.24.42.68 1.12 1.79 1.55 2.46s1.13 1.74 1.55 2.37 1.16 1.72 1.65 2.41c.48.7 1.23 1.75 1.64 2.32.42.57 1.15 1.56 1.63 2.19.47.63 1.29 1.69 1.82 2.35.54.67.98 1.2.99 1.2.01-.01-.01-.11-.04-.22s-.07-.96-.1-1.88c-.03-.93-.09-2.35-.13-3.16-.05-.81-.12-2.19-.18-3.07-.06-.89-.15-2.17-.2-2.85-.06-.69-.15-1.72-.21-2.29-.05-.58-.16-1.55-.23-2.16-.07-.62-.18-1.54-.25-2.04s-.21-1.39-.31-1.98-.26-1.45-.35-1.91c-.1-.46-.27-1.17-.39-1.58-.11-.4-.31-1.03-.45-1.4-.14-.36-.49-1.11-.77-1.67-.29-.56-.71-1.35-.94-1.76-.24-.4-.71-1.22-1.06-1.8-.35-.59-.98-1.62-1.39-2.29-.42-.67-1.37-2.16-2.11-3.31s-1.88-2.89-2.54-3.87c-.65-.97-1.59-2.36-2.07-3.07-.49-.72-1.51-2.18-2.26-3.26-.76-1.07-1.48-2.16-1.61-2.41-.14-.26-.3-.63-.37-.83s-.18-.56-.23-.79-.12-.64-.15-.91c-.03-.28-.06-.71-.06-.97s.04-.71.08-1.01c.04-.29.11-.7.15-.91.05-.21.16-.57.24-.79s.24-.59.36-.81c.12-.23.34-.58.5-.78s.44-.47.61-.6c.18-.13.43-.3.57-.38s.51-.25.81-.37c.31-.12.84-.3 1.17-.38.33-.09.88-.21 1.22-.27.33-.05.88-.13 1.21-.17.34-.04.81-.09 1.06-.1l.44-.03c0-.73.04-1.15.08-1.4s.14-.61.21-.79c.06-.18.19-.44.28-.58s.27-.34.39-.45c.13-.1.33-.24.45-.29.11-.06.47-.16.78-.23.32-.06.85-.15 1.19-.2.35-.04.99-.08 1.44-.08h.81c0-.27.03-.52.07-.72.05-.21.13-.52.19-.7s.18-.48.27-.66c.09-.19.27-.46.4-.61.13-.16.33-.35.45-.43.12-.07.34-.19.49-.24.2-.08.5-.12 1.02-.16.4-.02 1.54-.04 2.52-.03s1.79.02 1.79.02.07-1.39.15-3.08.15-3.08.16-3.09c.01 0 3.22.09 7.14.19 3.92.11 7.41.2 7.76.2h.63c.47-.6.93-1.1 1.32-1.49.39-.4.95-.91 1.24-1.15.29-.23.77-.58 1.05-.77l.52-.35c-.81-1.01-1.25-1.58-1.5-1.93s-.64-.91-.86-1.25c-.23-.34-.6-.94-.84-1.35-.24-.4-.61-1.06-.81-1.45-.21-.39-.54-1.05-.74-1.47s-.47-1.02-.6-1.33c-.13-.3-.34-.83-.46-1.17-.13-.33-.37-1.01-.53-1.5-.17-.49-.39-1.22-.5-1.62-.11-.41-.29-1.13-.4-1.61-.11-.47-.27-1.27-.36-1.78-.08-.5-.2-1.27-.25-1.7-.06-.43-.13-1.15-.17-1.6-.04-.5-.06-1.62-.06-2.88 0-1.57.02-2.27.09-2.97.05-.51.14-1.32.21-1.81s.22-1.35.33-1.9c.11-.56.27-1.3.36-1.63.08-.34.24-.92.35-1.3s.33-1.06.48-1.53c.16-.46.4-1.11.53-1.44.14-.34.4-.96.59-1.38.18-.42.49-1.07.68-1.45s.55-1.04.8-1.47c.25-.44.64-1.09.87-1.45.23-.37.62-.94.86-1.27.24-.34.63-.87.86-1.17.24-.31.67-.85.97-1.2.29-.35.98-1.09 1.52-1.65.55-.55 1.3-1.28 1.68-1.6.37-.33.96-.82 1.31-1.1s.99-.76 1.42-1.06c.44-.3 1.07-.73 1.42-.94.35-.22.98-.59 1.4-.82.42-.24 1.1-.59 1.52-.79.42-.21 1.04-.49 1.39-.64.35-.14 1-.4 1.45-.57.44-.16 1.23-.42 1.75-.57.51-.15 1.21-.34 1.54-.43.34-.08.91-.21 1.27-.28s1.06-.18 1.55-.25c.48-.07 1.28-.17 1.77-.22.62-.06 1.37-.09 2.49-.09.93 0 1.87.03 2.25.07.36.03.97.11 1.35.16.37.06.98.16 1.34.22.36.07 1.02.21 1.47.31s1.14.28 1.55.39c.4.11 1.11.32 1.57.46s1.26.41 1.77.59c.52.18 1.2.43 1.51.55s.59.22.62.22.05-.86.05-2.48v-2.48c-2.1-.17-3.3-.27-4.03-.33-.72-.05-2.18-.15-3.24-.22s-2.63-.16-3.48-.21c-.85-.04-2.08-.1-2.73-.12-.66-.03-1.96-.08-2.89-.11-.94-.03-3.03-.07-4.64-.1-1.62-.03-3.65-.04-4.52-.04-.86.01-2.15.02-2.86.02zm39.9 8.46v6.06c.81.96 1.26 1.53 1.53 1.88.26.35.68.92.91 1.27.24.35.62.93.84 1.3.22.36.58.98.79 1.37s.49.93.62 1.2c.13.26.39.82.57 1.24s.46 1.12.62 1.55c.16.44.4 1.12.52 1.53.13.41.33 1.07.44 1.48.11.4.28 1.09.38 1.52.09.43.23 1.1.3 1.48.07.37.18 1.01.23 1.42.06.41.14 1.05.18 1.42.04.38.12 1.21.16 1.84.07.9.08 1.58.06 3.25-.02 1.57-.06 2.39-.13 3.21-.06.6-.15 1.42-.21 1.83-.06.4-.15 1-.21 1.32-.05.32-.17.9-.25 1.3-.09.39-.25 1.06-.36 1.5-.11.43-.32 1.15-.46 1.6s-.42 1.27-.63 1.83-.52 1.32-.69 1.68c-.16.36-.51 1.08-.78 1.6s-.62 1.17-.79 1.45-.6.94-.96 1.48c-.35.53-.93 1.32-1.28 1.75-.34.43-.8.98-1.01 1.22l-.39.43v36.55c8.51 9.54 10.99 12.31 11.02 12.31.02 0 .03-23.65.02-52.56l-.01-52.55c-2.83-.49-4.54-.78-5.63-.97-1.09-.18-2.74-.44-3.66-.58-.93-.14-1.7-.26-1.71-.26-.02 0-.03 2.73-.03 6.05zm22.25 38.96c0 22.6.02 41.07.03 41.05.01-.01.21-.56.43-1.22.23-.65.69-2.07 1.02-3.15s.81-2.69 1.06-3.59c.26-.89.68-2.45.95-3.45.26-1.01.65-2.56.86-3.44s.55-2.38.75-3.33c.21-.95.51-2.45.68-3.33s.42-2.27.56-3.08.37-2.19.51-3.08c.14-.88.33-2.19.43-2.92s.25-1.91.33-2.62c.09-.71.23-1.93.31-2.7s.2-2.08.27-2.92.16-2.05.21-2.7c.04-.64.11-1.82.15-2.62.07-1.24.08-3.84.08-18.64 0-9.45-.02-17.2-.04-17.22s-1.33-.36-2.9-.75c-1.58-.4-3.51-.86-4.29-1.04l-1.41-.32z" fill="#b20d11"/><path d="m73.06 25.92c-.71.01-2.37.04-3.68.07s-3.41.1-4.66.16c-1.26.05-2.91.13-3.68.17-.76.05-1.95.11-2.63.16-.69.04-1.74.11-2.34.15-.59.04-1.8.13-2.68.2s-2.32.2-3.2.28c-.87.09-2.36.24-3.29.33-.94.1-2.2.24-2.82.31-.61.07-1.83.22-2.71.33s-2.34.3-3.24.43c-.91.13-2.28.32-3.05.43-.76.12-2.03.31-2.81.44-.78.12-2.03.33-2.79.46-.75.12-2.47.43-3.83.68-1.35.25-3.2.61-4.1.79-.91.19-2.23.46-2.94.61-.71.16-2.05.45-2.97.66s-2.35.54-3.17.74-2.04.5-2.71.66c-.67.17-1.3.33-1.41.36l-.19.04c0 30.18.02 33.12.08 34.57.04.95.11 2.3.15 3s.13 1.85.18 2.57c.06.71.17 1.99.25 2.85.09.85.23 2.15.31 2.89.08.75.25 2.13.38 3.08s.36 2.53.51 3.51.42 2.61.6 3.61c.18 1.01.46 2.51.63 3.33.17.83.5 2.41.74 3.51.24 1.11.7 3.04 1.02 4.3.31 1.26.69 2.71.83 3.23s.4 1.42.57 2.01c.16.59.4 1.41.53 1.83.12.42.48 1.54.78 2.49.3.96.83 2.52 1.16 3.49.33.96.73 2.1.88 2.52s.48 1.29.72 1.93.68 1.75.97 2.47c.3.71.72 1.73.94 2.26.23.53.62 1.47.89 2.09.26.61.84 1.89 1.27 2.84.44.96 1.41 2.98 2.17 4.51.76 1.52 1.7 3.34 2.08 4.04s1.03 1.88 1.45 2.62 1.03 1.79 1.35 2.34c.32.54.93 1.55 1.34 2.24.42.68 1.12 1.79 1.55 2.46s1.13 1.74 1.55 2.37 1.16 1.72 1.65 2.41c.48.7 1.23 1.75 1.64 2.32.42.57 1.15 1.56 1.63 2.19.47.63 1.29 1.69 1.82 2.35.54.67.98 1.2.99 1.2.01-.01-.01-.11-.04-.22s-.07-.96-.1-1.88c-.03-.93-.09-2.35-.13-3.16-.05-.81-.12-2.19-.18-3.07-.06-.89-.15-2.17-.2-2.85-.06-.69-.15-1.72-.21-2.29-.05-.58-.16-1.55-.23-2.16-.07-.62-.18-1.54-.25-2.04s-.21-1.39-.31-1.98-.26-1.45-.35-1.91c-.1-.46-.27-1.17-.39-1.58-.11-.4-.31-1.03-.45-1.4-.14-.36-.49-1.11-.77-1.67-.29-.56-.71-1.35-.94-1.76-.24-.4-.71-1.22-1.06-1.8-.35-.59-.98-1.62-1.39-2.29-.42-.67-1.37-2.16-2.11-3.31s-1.88-2.89-2.54-3.87c-.65-.97-1.59-2.36-2.07-3.07-.49-.72-1.51-2.18-2.26-3.26-.76-1.07-1.48-2.16-1.61-2.41-.14-.26-.3-.63-.37-.83s-.18-.56-.23-.79-.12-.64-.15-.91c-.03-.28-.06-.71-.06-.97s.04-.71.08-1.01c.04-.29.11-.7.15-.91.05-.21.16-.57.24-.79s.24-.59.36-.81c.12-.23.34-.58.5-.78s.44-.47.61-.6c.18-.13.43-.3.57-.38s.51-.25.81-.37c.31-.12.84-.3 1.17-.38.33-.09.88-.21 1.22-.27.33-.05.88-.13 1.21-.17.34-.04.81-.09 1.06-.1l.44-.03c0-.73.04-1.15.08-1.4s.14-.61.21-.79c.06-.18.19-.44.28-.58s.27-.34.39-.45c.13-.1.33-.24.45-.29.11-.06.47-.16.78-.23.32-.06.85-.15 1.19-.2.35-.04.99-.08 1.44-.08h.81c0-.27.03-.52.07-.72.05-.21.13-.52.19-.7s.18-.48.27-.66c.09-.19.27-.46.4-.61.13-.16.33-.35.45-.43.12-.07.34-.19.49-.24.2-.08.5-.12 1.02-.16.4-.02 1.54-.04 2.52-.03s1.79.02 1.79.02.07-1.39.15-3.08.15-3.08.16-3.09c.01 0 3.22.09 7.14.19 3.92.11 7.41.2 7.76.2h.63c.47-.6.93-1.1 1.32-1.49.39-.4.95-.91 1.24-1.15.29-.23.77-.58 1.05-.77l.52-.35c-.81-1.01-1.25-1.58-1.5-1.93s-.64-.91-.86-1.25c-.23-.34-.6-.94-.84-1.35-.24-.4-.61-1.06-.81-1.45-.21-.39-.54-1.05-.74-1.47s-.47-1.02-.6-1.33c-.13-.3-.34-.83-.46-1.17-.13-.33-.37-1.01-.53-1.5-.17-.49-.39-1.22-.5-1.62-.11-.41-.29-1.13-.4-1.61-.11-.47-.27-1.27-.36-1.78-.08-.5-.2-1.27-.25-1.7-.06-.43-.13-1.15-.17-1.6-.04-.5-.06-1.62-.06-2.88 0-1.57.02-2.27.09-2.97.05-.51.14-1.32.21-1.81s.22-1.35.33-1.9c.11-.56.27-1.3.36-1.63.08-.34.24-.92.35-1.3s.33-1.06.48-1.53c.16-.46.4-1.11.53-1.44.14-.34.4-.96.59-1.38.18-.42.49-1.07.68-1.45s.55-1.04.8-1.47c.25-.44.64-1.09.87-1.45.23-.37.62-.94.86-1.27.24-.34.63-.87.86-1.17.24-.31.67-.85.97-1.2.29-.35.98-1.09 1.52-1.65.55-.55 1.3-1.28 1.68-1.6.37-.33.96-.82 1.31-1.1s.99-.76 1.42-1.06c.44-.3 1.07-.73 1.42-.94.35-.22.98-.59 1.4-.82.42-.24 1.1-.59 1.52-.79.42-.21 1.04-.49 1.39-.64.35-.14 1-.4 1.45-.57.44-.16 1.23-.42 1.75-.57.51-.15 1.21-.34 1.54-.43.34-.08.91-.21 1.27-.28s1.06-.18 1.55-.25c.48-.07 1.28-.17 1.77-.22.62-.06 1.37-.09 2.49-.09.93 0 1.87.03 2.25.07.36.03.97.11 1.35.16.37.06.98.16 1.34.22.36.07 1.02.21 1.47.31s1.14.28 1.55.39c.4.11 1.11.32 1.57.46s1.26.41 1.77.59c.52.18 1.2.43 1.51.55s.59.22.62.22.05-.86.05-2.48v-2.48c-2.1-.17-3.3-.27-4.03-.33-.72-.05-2.18-.15-3.24-.22s-2.63-.16-3.48-.21c-.85-.04-2.08-.1-2.73-.12-.66-.03-1.96-.08-2.89-.11-.94-.03-3.03-.07-4.64-.1-1.62-.03-3.65-.04-4.52-.04-.86.01-2.15.02-2.86.02zm39.9 8.46v6.06c.81.96 1.26 1.53 1.53 1.88.26.35.68.92.91 1.27.24.35.62.93.84 1.3.22.36.58.98.79 1.37s.49.93.62 1.2c.13.26.39.82.57 1.24s.46 1.12.62 1.55c.16.44.4 1.12.52 1.53.13.41.33 1.07.44 1.48.11.4.28 1.09.38 1.52.09.43.23 1.1.3 1.48.07.37.18 1.01.23 1.42.06.41.14 1.05.18 1.42.04.38.12 1.21.16 1.84.07.9.08 1.58.06 3.25-.02 1.57-.06 2.39-.13 3.21-.06.6-.15 1.42-.21 1.83-.06.4-.15 1-.21 1.32-.05.32-.17.9-.25 1.3-.09.39-.25 1.06-.36 1.5-.11.43-.32 1.15-.46 1.6s-.42 1.27-.63 1.83-.52 1.32-.69 1.68c-.16.36-.51 1.08-.78 1.6s-.62 1.17-.79 1.45-.6.94-.96 1.48c-.35.53-.93 1.32-1.28 1.75-.34.43-.8.98-1.01 1.22l-.39.43v36.55c8.51 9.54 10.99 12.31 11.02 12.31.02 0 .03-23.65.02-52.56l-.01-52.55c-2.83-.49-4.54-.78-5.63-.97-1.09-.18-2.74-.44-3.66-.58-.93-.14-1.7-.26-1.71-.26-.02 0-.03 2.73-.03 6.05zm22.25 38.96c0 22.6.02 41.07.03 41.05.01-.01.21-.56.43-1.22.23-.65.69-2.07 1.02-3.15s.81-2.69 1.06-3.59c.26-.89.68-2.45.95-3.45.26-1.01.65-2.56.86-3.44s.55-2.38.75-3.33c.21-.95.51-2.45.68-3.33s.42-2.27.56-3.08.37-2.19.51-3.08c.14-.88.33-2.19.43-2.92s.25-1.91.33-2.62c.09-.71.23-1.93.31-2.7s.2-2.08.27-2.92.16-2.05.21-2.7c.04-.64.11-1.82.15-2.62.07-1.24.08-3.84.08-18.64 0-9.45-.02-17.2-.04-17.22s-1.33-.36-2.9-.75c-1.58-.4-3.51-.86-4.29-1.04l-1.41-.32z" fill="url(#b)"/><path d="m76.35 35.67c-.37.18-1.03.51-1.47.74-.43.24-1.08.61-1.44.84-.36.22-.89.57-1.17.76-.28.2-.79.58-1.14.84-.35.27-.94.75-1.32 1.07-.37.33-1.02.94-1.45 1.36-.42.42-.97 1-1.23 1.29l-.46.54c.04.55.19 3.09.36 6 .16 2.91.31 5.53.33 5.82l.03.54c-1.6 2.1-2.98 3.92-4.09 5.39-1.12 1.47-2.33 3.07-2.69 3.55l-.66.87c.1.87.2 1.54.28 2.04.09.5.23 1.26.33 1.68.09.42.27 1.13.4 1.57.13.45.35 1.18.51 1.63.15.45.4 1.13.55 1.5.16.38.42 1 .59 1.38.17.37.46.97.65 1.32.18.35.45.83.59 1.08l.26.44c.55.15 1.54.44 2.56.73 1.02.3 2.21.64 2.64.77.43.12 1.95.56 3.37.97s2.7.79 2.84.83l.25.07c1.48 2.26 3.04 4.62 4.42 6.71 1.37 2.08 2.54 3.8 2.59 3.82s.39.09.75.17c.36.07 1 .19 1.42.26.42.06 1.18.17 1.7.22.51.06 1.45.12 2.08.13.69.02 1.52.01 2.13-.02.54-.03 1.29-.09 1.67-.14.37-.04 1.01-.13 1.42-.2.4-.07.94-.17 1.19-.22.25-.06.47-.12.48-.15.02-.02 1.32-2.09 2.91-4.59s3.04-4.79 3.23-5.08l.34-.54c1.01-.28 1.89-.53 2.6-.73s1.8-.51 2.43-.69 2.33-.66 3.78-1.07c1.45-.42 2.7-.77 2.78-.78.08-.02.19-.09.25-.16.05-.07.39-.72.75-1.45s.79-1.68.96-2.11.42-1.12.56-1.53c.14-.4.35-1.1.48-1.55.12-.45.29-1.12.37-1.5.09-.38.21-1.02.28-1.42.07-.41.16-1.03.2-1.38.05-.35.1-.81.12-1.04l.03-.41c-1.72-2.2-2.83-3.63-3.59-4.6-.75-.96-1.95-2.5-2.66-3.41-.7-.91-1.3-1.67-1.33-1.7-.02-.03.02-2.61.12-6.33l.17-6.29c-.18-.23-.49-.58-.8-.93-.31-.34-.95-.98-1.41-1.4-.46-.43-1.13-1.03-1.49-1.33s-.91-.74-1.22-.97c-.3-.23-.95-.68-1.44-1s-1.27-.8-1.73-1.06-1.19-.64-1.62-.84l-.78-.38c-3.38 1.28-4.78 1.8-5.28 1.99s-1.71.64-2.68 1.01c-.98.37-1.86.7-1.96.74-.09.04-.44.17-.76.28-.47.18-.6.21-.71.17-.07-.03-.64-.25-1.26-.5-.63-.24-1.58-.61-2.11-.81s-1.48-.57-2.1-.81c-.63-.25-1.28-.5-1.45-.56-.16-.07-1.02-.4-1.9-.74s-1.82-.71-2.1-.82-.52-.2-.54-.2c-.01.01-.33.15-.71.32z" fill="#fff"/><path d="m88.65 50.28c-.08.06-1.02.76-2.08 1.55-1.06.8-2.78 2.09-3.83 2.87-1.04.78-2.75 2.06-3.8 2.84-1.05.79-2 1.5-2.11 1.58-.13.1-.22.21-.22.26 0 .06 1.11 3.47 2.47 7.59l2.47 7.49c7.59.04 11.03.07 12.55.09l2.76.03c1.37-4.52 2.02-6.68 2.34-7.72.31-1.03.92-3.06 1.36-4.5.43-1.44.79-2.69.79-2.77 0-.14-.13-.25-1.66-1.39-.91-.68-3.12-2.32-4.91-3.65-1.78-1.33-3.84-2.86-4.57-3.41-.73-.54-1.35-.99-1.37-.99-.02.01-.11.06-.19.13z"/><path d="m63.98 85.05c-.29.2-.75.54-1.01.75s-.8.71-1.19 1.11c-.39.39-.85.89-1.02 1.1l-.3.39c-.98 0-4.47-.09-8.39-.2-3.92-.1-7.13-.19-7.14-.19-.01.01-.08 1.4-.16 3.09s-.15 3.08-.15 3.08-.81-.01-1.79-.02-2.12.01-2.52.03c-.52.04-.82.08-1.02.16-.15.05-.37.17-.49.24-.12.08-.32.27-.45.43-.13.15-.31.42-.4.61-.09.18-.21.48-.27.66s-.14.49-.19.7c-.04.2-.07.45-.07.54v.18c-1.26 0-1.9.04-2.25.08-.34.05-.87.14-1.19.2-.31.07-.67.17-.78.23-.12.05-.32.19-.45.29-.12.11-.3.31-.39.45s-.22.4-.28.58c-.07.18-.17.54-.21.79s-.08.67-.08.93v.47c-.69.04-1.16.09-1.5.13-.33.04-.88.12-1.21.17-.34.06-.89.18-1.22.27-.33.08-.86.26-1.17.38-.3.12-.67.29-.81.37s-.39.25-.57.38c-.17.13-.45.4-.61.6s-.38.55-.5.78c-.12.22-.28.59-.36.81s-.19.58-.24.79c-.04.21-.11.62-.15.91-.04.3-.08.75-.08 1.01s.03.69.06.97c.03.27.1.68.15.91s.16.59.23.79.23.57.37.83c.13.25.85 1.34 1.61 2.41.75 1.08 1.77 2.54 2.26 3.26.48.71 1.42 2.1 2.07 3.07.66.98 1.8 2.72 2.54 3.87s1.69 2.64 2.11 3.31c.41.67 1.04 1.7 1.39 2.29.35.58.82 1.4 1.06 1.8.23.41.65 1.2.94 1.76.28.56.63 1.31.77 1.67.14.37.34 1 .45 1.4.12.41.29 1.12.39 1.58.09.46.25 1.32.35 1.91s.24 1.48.31 1.98.18 1.42.25 2.04c.07.61.18 1.58.23 2.16.06.57.15 1.6.21 2.29.05.68.14 1.96.2 2.85.06.88.13 2.26.18 3.07.04.81.1 2.22.12 3.13.03.91.09 1.78.12 1.93.05.26.14.38.92 1.33.47.57 1.28 1.53 1.8 2.13s1.28 1.48 1.7 1.96 1.17 1.31 1.67 1.86c.5.54 1.6 1.71 2.44 2.59s2.28 2.34 3.2 3.23c.92.9 2.11 2.04 2.66 2.55.54.5 1.43 1.31 1.97 1.8.55.49 1.49 1.33 2.11 1.86.61.53 1.66 1.42 2.33 1.98s1.68 1.4 2.26 1.86c.57.46 1.58 1.26 2.25 1.78.67.51 1.79 1.36 2.49 1.88.69.52 1.81 1.34 2.48 1.82.67.47 1.84 1.3 2.61 1.83l1.4.96c1.45-.99 2.5-1.72 3.27-2.27.76-.54 1.9-1.36 2.53-1.83.63-.46 1.57-1.17 2.1-1.57.53-.41 1.5-1.17 2.16-1.68.65-.52 1.66-1.33 2.24-1.81l1.06-.87c-.23-.23-5.99-6.91-12.96-14.98-6.96-8.07-12.69-14.71-12.73-14.75-.06-.06.04-.17.75-.78l.83-.71c2.55.07 3.66.09 4.1.09.45-.01 1.09-.05 1.42-.1.34-.04.85-.14 1.14-.21.3-.06.72-.18.94-.25.23-.08.62-.22.89-.33.26-.1.73-.31 1.04-.47.31-.15.69-.36.86-.48.17-.11.42-.31.56-.43.14-.13.38-.4.54-.61.16-.2.38-.54.49-.75.12-.21.28-.59.36-.84.09-.26.21-.69.27-.97.09-.43.11-.66.1-1.5 0-.85-.02-1.07-.13-1.58-.07-.32-.18-.73-.26-.91-.07-.18-.2-.46-.29-.61-.1-.15-.33-.44-.52-.64-.2-.2-.55-.49-.79-.65-.24-.15-.62-.37-.86-.48-.24-.12-.66-.29-.94-.39s-.72-.23-.99-.3c-.26-.07-.74-.17-1.06-.22s-.92-.15-1.33-.22l-.74-.13c-3.6-4.02-4.68-5.24-4.73-5.3l-.1-.12c1.79-1.54 2.32-1.97 2.34-1.94.02.02.88.99 1.92 2.15s1.95 2.17 2.02 2.25c.12.12.21.15.79.24.37.06.9.16 1.2.23.29.07.68.17.87.23.19.05.34.09.34.07 0-.01-.46-.57-1.03-1.23s-1.84-2.14-2.81-3.27c-.98-1.13-1.77-2.07-1.75-2.09s.54-.47 1.16-1.01l1.11-.97c.2.23 7.86 9.11 17.16 19.89l16.91 19.59c.2-.23.46-.54.72-.83l.46-.52c-2.21-2.57-9.81-11.37-18.31-21.21-8.5-9.85-15.49-17.95-15.53-18-.06-.08.05-.18 1.09-1.08.63-.55 1.17-.98 1.18-.95.02.02 7.51 8.7 16.65 19.29s16.69 19.32 16.78 19.42l.16.16 1.13-1.35c-25.89-29.98-33.4-38.7-33.4-38.72s.17-.18.38-.37l.39-.33c.64.14 1.05.21 1.33.25s.77.09 1.08.12l.58.04c21.78 25.23 28.87 33.44 29.82 34.53.94 1.1 1.73 1.99 1.75 1.99.03 0 .28-.31.58-.69l.53-.68c-4.05-4.69-10.87-12.59-17.76-20.58-6.9-7.98-12.55-14.54-12.56-14.57s.31-.09.72-.14c.4-.05 1-.15 1.32-.22s.75-.17.96-.23l.38-.09c.29.29 6.75 7.77 14.55 16.8 7.8 9.04 14.2 16.45 14.22 16.47.02.03.25-.26.52-.63s.5-.71.52-.76-3.25-3.87-10.25-11.98c-5.65-6.54-11.96-13.84-14.01-16.22l-3.73-4.32c.52-.31.8-.5.97-.64.17-.13.44-.39.61-.57.17-.17.38-.43.47-.56s.18-.24.21-.23c.02.01 6.23 7.18 13.8 15.93 7.56 8.76 13.76 15.93 13.78 15.94.02 0 .25-.33.52-.74.41-.62.48-.76.43-.83-.03-.04-3.36-3.89-7.39-8.57-4.03-4.67-10.26-11.89-13.85-16.05l-6.51-7.55c.1-.39.17-.72.22-.99.07-.39.09-.76.09-1.89v-1.41c.25.29 6.81 7.89 14.75 17.08s14.45 16.72 14.47 16.72c.02.01.25-.33.51-.76.39-.66.45-.78.4-.85-.04-.04-3.59-4.16-7.9-9.16-4.31-4.99-11.42-13.23-15.81-18.31l-7.97-9.23c.01-3.53.02-4.55.05-4.55.02 0 7.47 8.61 16.57 19.14 9.09 10.52 16.59 19.2 16.66 19.29l.12.15c.8-1.42 1.04-1.84 1.04-1.86.01-.01-2.56-3.02-5.71-6.69-3.15-3.66-11.48-13.34-18.5-21.51-7.03-8.17-12.8-14.88-12.83-14.92s-.37-.1-.87-.16c-.44-.05-1.16-.15-1.59-.23-.44-.07-1.12-.19-1.52-.28-.41-.09-1.08-.25-1.5-.36s-1.09-.31-1.5-.44c-.4-.13-1.06-.35-1.47-.5-.4-.15-1.07-.42-1.49-.6s-1.12-.5-1.55-.72c-.43-.21-1.03-.53-1.34-.7s-.81-.46-1.12-.65c-.3-.19-.85-.53-1.21-.77-.37-.24-.94-.63-1.27-.88-.34-.25-.89-.68-1.24-.96s-.85-.71-1.12-.94c-.26-.24-.93-.88-1.49-1.43-.55-.55-1.23-1.26-1.5-1.59-.28-.33-.54-.6-.57-.6-.04 0-.3.16-.6.36z" fill="#fff"/><path d="m101.15 94.18c-.1.04-.62.23-1.17.41-.54.18-1.49.48-2.1.66-.62.18-1.43.41-1.8.5-.38.1-.96.23-1.3.31-.33.07-.88.17-1.21.23-.34.06-.93.13-1.32.18-.39.04-1 .07-1.36.07-.35 0-.64.02-.63.05.01.02 2.28 2.68 5.05 5.91 2.78 3.23 5.28 6.1 5.56 6.39s.52.52.54.52.04-3.44.04-7.66c0-6.09-.01-7.65-.06-7.65-.04 0-.14.04-.24.08zm33.97 20.63c-.03.1-.06.18-.05.18 0 .01.03.02.07.02.06 0 .08-.06.08-.18 0-.1-.01-.18-.02-.18-.02 0-.05.07-.08.16z" fill="#b20d11"/><path d="m81.05 142.42c.02.33.01.92-.02 1.34l-.06.75c.96 1.12 1.45 1.7 1.72 2.01.27.3 1.38 1.59 2.46 2.84 1.09 1.26 2.56 2.97 3.27 3.79.71.83 2.18 2.53 3.26 3.78s2.85 3.3 3.93 4.55c1.07 1.25 2.26 2.62 2.62 3.04s.8.92.97 1.12c.16.19.61.71.98 1.15.38.43.96 1.11 1.3 1.5.33.39.64.73.67.75.04.02.28-.2.67-.61l.6-.65c-.33-.36-1.05-1.2-1.82-2.09s-2.22-2.58-3.22-3.74-2.71-3.14-3.8-4.4c-1.08-1.26-3-3.48-4.26-4.93-1.25-1.46-3.17-3.68-4.26-4.93-1.08-1.26-2.63-3.06-3.44-4-.8-.93-1.5-1.74-1.54-1.78-.06-.06-.06 0-.03.51zm-1.5 5.89c-.15.24-.39.58-.52.74l-.24.29c.22.25 1.16 1.35 2.23 2.59 1.07 1.25 2.31 2.69 2.76 3.21.45.51 1.26 1.45 1.79 2.07.54.62 1.41 1.64 1.95 2.26.54.63 1.25 1.46 1.59 1.85s1.38 1.59 2.3 2.67c.93 1.07 2.02 2.34 2.43 2.82.41.47.99 1.15 1.3 1.5.31.36 1.18 1.38 1.95 2.27s1.46 1.7 1.55 1.79l.15.17 1.27-1.27c-1.42-1.63-2.22-2.56-2.69-3.11s-1.07-1.24-1.32-1.53-.92-1.07-1.49-1.73c-.57-.65-1.59-1.84-2.28-2.64-.69-.79-1.47-1.71-1.75-2.03-.28-.33-1.32-1.53-2.31-2.68-.99-1.14-2.39-2.77-3.12-3.61-.72-.84-2.19-2.54-3.26-3.79-1.07-1.24-1.96-2.27-1.98-2.27-.02-.01-.16.19-.31.43zm-3.65 3.06c-.21.1-.57.27-.8.36-.23.1-.42.19-.42.2 0 .02.94 1.12 2.09 2.44 1.14 1.33 2.34 2.72 2.65 3.08.31.37 1.4 1.63 2.42 2.8 1.01 1.18 2.27 2.64 2.8 3.26.53.61 1.62 1.87 2.41 2.79.8.93 2.41 2.79 3.58 4.15 1.17 1.35 2.21 2.56 2.3 2.67.1.12.67.77 1.26 1.46l1.08 1.26c.29-.24.59-.51.85-.75l.47-.45c-2.3-2.68-3.93-4.56-5.1-5.92s-2.7-3.13-3.4-3.94c-.69-.82-1.77-2.06-2.38-2.77-.61-.72-2.07-2.41-3.25-3.77-1.17-1.36-2.78-3.22-3.57-4.15-.79-.92-1.68-1.95-1.97-2.28-.29-.34-.56-.62-.59-.63-.03 0-.22.08-.43.19zm-4.92 1.45c-.02.01-.41.05-.89.08-.47.04-.86.07-.87.08s.64.78 1.44 1.71 2.41 2.79 3.57 4.14c1.16 1.34 3.36 3.89 4.89 5.67 1.53 1.77 3.83 4.43 5.09 5.9 1.27 1.47 2.67 3.09 3.12 3.61s1.61 1.86 2.58 2.99c.96 1.12 1.77 2.04 1.79 2.04.03 0 .27-.2.54-.44.28-.25.57-.5.66-.57l.15-.13c-.86-.99-1.45-1.67-1.87-2.16s-.94-1.09-1.14-1.32c-.21-.24-1.31-1.52-2.45-2.85-1.15-1.33-2.67-3.09-3.38-3.92s-2.68-3.11-4.38-5.09c-1.7-1.97-3.67-4.26-4.39-5.08-.71-.83-1.91-2.22-2.66-3.09l-1.37-1.59c-.32 0-.42.01-.43.02z" fill="#fff"/><path d="m106.62 176.13-.33.35c.53-.52.69-.67.69-.68s-.01-.01-.02-.01c0 0-.16.15-.34.34zm-60.41.83c.51.5.93.91.94.91.02 0-.38-.41-.87-.91-.5-.51-.92-.92-.94-.92s.37.41.87.92zm58.51 1.08-.51.52c.81-.79 1.04-1.02 1.04-1.03s0-.01-.01-.01-.24.23-.52.52z" fill="#a8996e"/></g></svg>