<svg clip-rule="evenodd" fill-rule="evenodd" stroke-linejoin="round" stroke-miterlimit="1.41421" viewBox="0 0 560 400" xmlns="http://www.w3.org/2000/svg"><g fill-rule="nonzero" transform="matrix(2.05539 0 0 2.05539 -665.478 -1255.7)"><g fill="#1a559b"><path d="m379.996 723.019h5.431l-2.755-5.654zm-.077-9.144h5.526l7.611 15.046h-4.724l-1.319-2.657h-8.604l-1.242 2.657h-4.742"/><path d="m394.567 713.873h4.245v11.183h9.541v3.864h-13.786"/><path d="m410.149 713.873h15.144v3.492h-10.897v2.411h10.324v3.119h-10.324v2.41h11.147v3.615h-15.394"/><path d="m433.593 721.377-6.309-7.504h5.487l4.302 5.259 4.303-5.259h5.488l-6.311 7.504 6.788 7.543h-5.698l-4.57-5.464-4.57 5.464h-5.699"/><path d="m455.124 723.019h5.429l-2.753-5.654zm-.077-9.144h5.525l7.611 15.046h-4.723l-1.319-2.657h-8.606l-1.242 2.657h-4.742"/><path d="m469.693 713.873h6.579l7.971 10.932h.04v-10.932h4.245v15.047h-6.577l-7.975-10.929h-.038v10.929h-4.245"/><path d="m495.795 725.055h7.532c1.817 0 2.524-.56 2.524-2.702v-2.037c0-2.14-.707-2.7-2.524-2.7h-7.532zm-4.247-11.182h12.812c4.244 0 5.736 1.519 5.736 5.238v4.573c0 3.723-1.492 5.236-5.736 5.236h-12.812"/><path d="m512.659 713.873h15.144v3.492h-10.899v2.411h10.325v3.119h-10.325v2.41h11.147v3.615h-15.392"/><path d="m534.859 721.273h7.018c1.144 0 1.567-.498 1.567-1.58v-.5c0-1.33-.612-1.577-1.951-1.577h-6.634zm-4.247-7.4h12.812c3.269 0 4.151 1.767 4.151 4.47v.957c0 2.015-.422 3.2-2.371 3.699v.041c1.26.249 2.312.852 2.312 3.324v2.556h-4.244v-1.807c0-1.58-.421-2.099-1.74-2.099h-6.673v3.906h-4.247"/></g><g fill="#00a8de"><path d="m411.497 745.84h7.535c1.816 0 2.524-.563 2.524-2.701v-2.038c0-2.141-.708-2.701-2.524-2.701h-7.535zm-4.245-11.183h12.813c4.244 0 5.735 1.518 5.735 5.239v4.573c0 3.719-1.491 5.236-5.735 5.236h-12.813"/><path d="m428.364 734.657h15.144v3.492h-10.899v2.412h10.324v3.116h-10.324v2.411h11.147v3.617h-15.392"/><path d="m446.317 734.657h6.579l7.973 10.934h.039v-10.934h4.243v15.048h-6.576l-7.974-10.932h-.038v10.932h-4.246"/><path d="m468.02 734.657h6.579l7.972 10.934h.038v-10.934h4.246v15.048h-6.578l-7.973-10.932h-.038v10.932h-4.247"/><path d="m489.952 734.657h4.245v15.048h-4.245z"/><path d="m497.045 744.78h4.247c.019 1.599.612 1.725 1.835 1.725h5.201c.897 0 1.817-.104 1.817-1.268 0-1.31-.498-1.393-5.966-1.393-6.387 0-7.114-.831-7.114-4.531 0-2.724.231-4.821 5.583-4.821h5.928c4.895 0 5.355 1.808 5.355 4.447v.48h-4.247c0-1.103-.113-1.559-2.064-1.559h-4.704c-.955 0-1.607.352-1.607 1.161 0 1.31.516 1.352 5.068 1.331 6.598-.023 8.127.416 8.127 4.801 0 4.054-1.261 4.719-6.903 4.719h-5.144c-3.861 0-5.412-.789-5.412-4.053"/></g><path d="m479.5 685.76c0 10.532-8.543 19.076-19.076 19.076-10.537 0-19.079-8.544-19.079-19.076 0-10.539 8.522-19.164 19.059-19.164 10.533 0 19.096 8.625 19.096 19.164" fill="#1a559b"/><path d="m460.425 666.621c3.432.61 12.252 8.946 12.252 19.138 0 10.59-9.521 19.061-12.628 19.061" fill="#6c307f"/><path d="m460.425 666.641c3.108.496 7.576 8.847 7.576 19.119 0 10.589-4.845 19.06-7.952 19.06" fill="#00a8de"/><path d="m460.485 666.62c-3.109 0-12.593 8.548-12.593 19.139 0 10.59 9.42 19.073 12.527 19.073" fill="#00a8de"/><path d="m460.495 666.631c-3.11 0-7.927 8.537-7.927 19.129 0 10.589 4.743 19.072 7.849 19.072" fill="#6c307f"/></g></svg>