<svg clip-rule="evenodd" fill-rule="evenodd" stroke-linejoin="round" stroke-miterlimit="2" viewBox="0 0 560 400" xmlns="http://www.w3.org/2000/svg"><g fill-rule="nonzero" transform="matrix(.816627 0 0 .816627 144.65 64.4862)"><path d="m321.187 82.175-27.665-9.471c-1.546-.524-3.092-.773-4.776-.773-4.363.028-8.449 1.961-11.21 5.301l-7.234 8.808-.304-9.305c-.082-2.264-1.629-7.123-1.629-7.123h-.082l5.301-20.238s-9.194-2.043-11.679-2.54c-5.66-1.188-11.403-2.264-17.118-3.231l7.73-20.624-4.942-.856c-2.761-.497-5.549-.939-8.31-1.381-24.822-3.92-50.168-5.908-75.293-5.908s-50.471 1.988-75.293 5.908c-2.788.442-5.549.911-8.31 1.381l-4.942.856 7.73 20.624c-5.715.967-11.458 2.043-17.118 3.231-2.512.524-11.679 2.54-11.679 2.54l5.301 20.238 2.292 8.697-1.574 7.924c-1.85-2.043-4.224-3.506-6.875-4.224l-.883-.249c-5.55-4.5-12.232-6.875-19.383-6.875h-.165c-3.065.028-6.24.47-9.388 1.353-9.939 2.789-17.118 9.167-20.79 18.389-3.175 7.924-3.286 17.642-.359 28.079l4.998 17.726c2.402 8.504 7.068 15.958 13.197 21.011 5.798 4.776 12.314 7.206 19.382 7.206h.166c2.816-.027 5.688-.442 8.559-1.242 11.431-3.203 19.162-10.437 22.281-20.901l.415-.497c1.711-2.043 2.816-4.473 3.23-7.041 1.298 1.905 2.789 3.673 4.445 5.219 2.982 11.403 5.964 22.861 8.946 34.347-.055.11-.111.22-.138.358-2.016 5.495-2.126 14.496-1.933 20.598-9.028 5.66-15.572 12.148-19.962 19.796-5.826 10.105-4.887 18.968-4.859 19.355l.524 4.555 20.128-5.356c-12.204 27.141-5.743 50.609-5.439 51.658l.8 2.761 2.872.111c21.895.8 36.003 7.261 41.001 9.967 3.534 6.571 8.504 14.357 8.504 14.357s3.202.359 5.218.359c5.964 0 21.591-1.16 38.102-11.955.193-.138.414-.276.607-.414h.414c9.084 0 14.192 2.098 14.247 2.098l1.933.801 1.767-1.132c13.032-8.366 21.011-24.518 28.079-38.765.939-1.932 1.878-3.81 2.817-5.66.635-1.27 1.518-2.623 2.678-4.114l2.374-2.761c1.684-1.877 3.534-3.672 5.191-5.328 3.479-3.424 6.019-5.881 6.875-8.366 16.925-48.649 11.044-82.416 10.768-83.824l-1.022-5.605-5.908 3.506c1.104-3.865 2.208-7.786 3.34-11.734 0 0 4.473-5.273 4.832-5.881l.856 11.044c.469 5.798 4.307 10.768 9.802 12.646l27.361 9.359c1.519.525 3.092.801 4.804.801 5.246-.028 10.078-2.871 12.646-7.455l7.123-12.728c2.236-4.003 2.457-8.863.607-13.059-.469-1.077-1.104-2.099-1.822-3.037.194-.415.387-.856.58-1.353l3.148-8.587c.055-.138.11-.304.138-.442 1.27-.304 2.457-.745 3.589-1.353 3.948-2.098 6.764-6.019 7.51-10.436l2.54-14.965c1.187-7.013-2.871-13.833-9.664-16.179z" fill="#bb813b"/><path d="m232.062 149.433c-.607 0-1.242-.056-1.877-.166l-14.385-2.568c-3.617-.635-6.654-3.175-7.924-6.599l-4.086-10.961c-1.353-3.644-.608-7.731 2.015-10.63l.442-.497-.221-26.533-1.657-1.933c-2.54-2.981-3.23-7.068-1.739-10.712l5.025-12.397c1.574-3.866 5.439-6.489 9.636-6.489.607 0 14.219 2.375 14.219 2.375 2.485.442 4.749 1.822 6.35 3.81 1.629-.994 3.507-1.518 5.412-1.518.635 0 1.242.055 1.85.165l11.624 2.071c.773-2.954 1.546-5.936 2.319-8.89-9.332-1.878-29.681-5.053-30.454-5.136.249-.718 5.439-14.633 7.758-20.845-23.993-3.673-48.207-5.495-72.421-5.495s-48.428 1.85-72.421 5.495c2.319 6.212 7.51 20.127 7.759 20.845-.773.111-21.122 3.258-30.454 5.136.828 3.175 1.656 6.35 2.485 9.525 1.242-.856 2.678-1.463 4.252-1.712 0 0 32.828-5.246 33.242-5.273 3.866-.138 7.593 1.932 9.498 5.328l6.792 12.121c1.85 3.286 1.767 7.317-.193 10.52l-1.16 1.905 4.252 26.423c1.105 6.847-.331 13.722-4.031 19.354-2.927 4.445-8.531 10.105-18.802 11.734-1.326.221-2.651.332-3.921.387-3.479.138-6.516-.387-9.139-1.187 2.043 7.813 4.059 15.627 6.102 23.468.856-.828 1.684-1.601 2.485-2.291 1.574-5.522 4.832-10.575 10.243-12.839 28.604-12.066 59.141-10.078 59.141-10.078-2.734 1.988-5.522 4.501-8.2 7.179 12.866-1.878 23.551 1.077 23.551 1.077-2.816 1.96-5.66 4.224-8.393 6.516 7.592-.028 13.114 2.126 13.114 2.126-4.5 3.451-8.145 7.289-11.044 10.906 3.645-.138 5.66 1.38 5.66 1.38-5.163 2.982-6.654 7.4-6.654 7.4 1.298.055 2.623-.194 3.866-.608 9.47-13.75 24.297-17.118 24.297-17.118.331 4.224.276 7.924-.028 11.154 4.003-1.96 7.869-2.485 7.869-2.485.221 1.574.331 3.038.414 4.501l15.738-9.305c1.684-6.433 3.34-12.811 5.025-19.244-1.022.414-2.099.608-3.231.608zm-39.951-12.701c-3.617 3.672-8.642 5.605-14.523 5.66h-.359c-3.562-.028-6.903-.911-9.719-2.568-1.822 1.436-4.059 2.237-6.405 2.237h-.139l-12.424-.111c-4.086-.027-7.814-2.485-9.47-6.212l-5.274-11.955c-1.794-4.031-.8-8.78 2.43-11.817l.939-.884.165-22.226-1.215-1.325c-2.678-2.982-3.423-7.289-1.905-10.961l5.771-13.971c1.601-3.893 5.356-6.405 9.581-6.433h.138l17.725.138c12.535.11 25.981 10.078 25.843 26.009-.055 6.516-1.822 11.182-3.396 14.108 1.132 1.436 2.071 2.982 2.789 4.777 1.712 4.169 1.905 8.531 1.905 12.645 2.153 2.043 3.368 4.942 3.285 7.897-.11 6.129-2.125 11.32-5.742 14.992z" fill="#b5121b"/><path d="m192.746 101.198c-.746-1.795-1.657-3.369-2.789-4.777 1.601-2.926 3.341-7.592 3.396-14.108.138-15.931-13.308-25.899-25.843-26.009l-17.726-.138h-.138c-4.196.028-7.951 2.54-9.58 6.433l-5.771 13.971c-1.518 3.699-.801 8.007 1.905 10.961l1.215 1.325-.166 22.226-.938.884c-3.231 3.037-4.197 7.758-2.43 11.817l5.274 11.955c1.656 3.755 5.356 6.185 9.47 6.212l12.424.111h.138c2.347 0 4.584-.801 6.406-2.237 2.816 1.657 6.157 2.513 9.719 2.568h.359c5.88-.028 10.878-1.988 14.522-5.66 3.617-3.672 5.633-8.835 5.826-14.992.083-2.927-1.132-5.854-3.285-7.897-.083-4.114-.277-8.476-1.988-12.645z" fill="#231f20"/><path d="m263.814 71.103c2.899-11.072 4.749-18.085 4.887-18.637-2.457-.552-4.942-1.077-7.427-1.601-7.289-1.519-14.606-2.844-21.95-4.004 1.656-4.445 6.847-18.222 7.758-20.652-2.733-.497-5.494-.939-8.255-1.38-24.794-3.921-49.836-5.881-74.879-5.881-25.042 0-50.084 1.96-74.878 5.881-2.761.441-5.494.883-8.255 1.38.911 2.43 6.074 16.207 7.758 20.652-7.344 1.16-14.661 2.513-21.95 4.004-2.485.524-4.942 1.049-7.427 1.601.166.663 2.844 10.823 6.875 26.23l-1.795 8.973c-.745 3.727.608 7.565 3.507 10.022l1.794 1.519 4.225 26.312c1.021 6.351 4.114 12.011 8.752 16.125 3.258 12.452 6.571 25.152 9.719 37.273-.194.442-.414.884-.58 1.325-2.126 5.771-1.85 16.649-1.601 21.426-9.415 5.549-16.152 11.927-20.57 19.575-5.246 9.084-4.335 16.925-4.335 16.925l23.137-6.157c.028.525.083.994.166 1.464-15.71 28.603-8.228 54.916-8.228 54.916 24.352.883 39.483 8.531 43.817 11.016 3.645 6.93 7.869 13.529 7.869 13.529s18.527 2.071 38.848-11.209c.524-.332.994-.691 1.491-1.022 11.264-.276 17.477 2.402 17.477 2.402 13.777-8.835 21.839-27.776 29.487-42.878 4.28-8.449 15.628-16.346 16.925-20.073 16.759-48.235 10.63-81.808 10.63-81.808l-6.875 4.086c2.071-7.952 4.169-15.959 6.24-23.883l1.408-1.629c2.513-2.926 3.203-6.985 1.795-10.602.331-1.27.662-2.513.994-3.783l8.283-21.563 2.429-1.408c3.341-1.933 5.329-5.522 5.191-9.36l-.442-13.363c-.055-2.126-.8-4.086-2.015-5.743zm-33.519 97.049-15.737 9.305c-.083-1.436-.221-2.927-.415-4.501 0 0-3.865.525-7.868 2.485.303-3.23.331-6.93.027-11.154 0 0-14.826 3.368-24.297 17.118-1.242.414-2.567.663-3.865.607 0 0 1.491-4.417 6.654-7.399 0 0-2.043-1.519-5.66-1.381 2.899-3.616 6.571-7.454 11.044-10.906 0 0-5.495-2.153-13.115-2.126 2.734-2.319 5.577-4.583 8.394-6.515 0 0-10.658-2.982-23.552-1.077 2.678-2.678 5.467-5.191 8.2-7.179 0 0-30.536-2.015-59.14 10.078-5.384 2.264-8.642 7.316-10.244 12.838-.8.663-1.629 1.436-2.485 2.292-2.043-7.841-4.086-15.655-6.101-23.468 2.623.828 5.66 1.325 9.139 1.187 1.27-.055 2.595-.166 3.92-.387 10.244-1.656 15.876-7.289 18.803-11.734 3.699-5.632 5.108-12.507 4.031-19.355l-4.252-26.422 1.159-1.906c1.961-3.202 2.044-7.233.194-10.519l-6.792-12.204c-1.906-3.368-5.633-5.466-9.498-5.328-.414.027-33.243 5.273-33.243 5.273-1.546.249-2.982.856-4.252 1.712-.828-3.175-1.656-6.35-2.485-9.525 9.333-1.878 29.681-5.053 30.454-5.136-.248-.718-5.439-14.633-7.758-20.845 23.993-3.673 48.207-5.495 72.421-5.495s48.428 1.85 72.421 5.495c-2.319 6.212-7.51 20.127-7.758 20.845.773.111 21.121 3.258 30.454 5.136-.774 2.954-1.547 5.936-2.32 8.89l-11.624-2.071c-.607-.11-1.242-.165-1.849-.165-1.906 0-3.783.552-5.412 1.518-1.574-1.988-3.838-3.341-6.35-3.81 0 0-13.612-2.375-14.219-2.375-4.197.028-8.063 2.623-9.636 6.489l-5.025 12.397c-1.464 3.644-.801 7.731 1.739 10.712l1.657 1.933.221 26.533-.442.497c-2.623 2.899-3.369 6.958-2.016 10.63l4.087 10.961c1.27 3.424 4.334 5.964 7.924 6.599l14.384 2.568c.608.11 1.243.166 1.878.166 1.104 0 2.209-.194 3.23-.525-1.684 6.406-3.368 12.783-5.025 19.244z" fill="#231f20"/><path d="m105.526 50.589v-2.955l1.242-.165c.911-3.065 1.822-6.102 2.733-9.167-.469.055-.966.111-1.435.166v-2.954c3.451-.415 6.902-.773 10.381-1.105v2.954c-.469.056-.939.083-1.436.139.911 2.843 1.823 5.715 2.734 8.586.414-.055.856-.083 1.27-.11v2.954c-2.154.193-4.307.414-6.461.635v-2.954c.442-.055.884-.083 1.325-.138-.193-.635-.386-1.27-.58-1.933-1.352.138-2.705.276-4.031.442-.193.69-.359 1.38-.552 2.043.414-.055.856-.083 1.298-.138v2.954c-2.209.221-4.335.47-6.488.746zm6.295-8.283c.966-.111 1.905-.221 2.843-.304-.469-1.491-.966-3.01-1.435-4.5-.47 1.573-.939 3.202-1.408 4.804z" fill="#fff"/><path d="m123.555 48.711v-2.954c.497-.055.994-.083 1.518-.138v-8.835c-.497.027-.994.082-1.518.11v-2.954c2.264-.193 4.556-.359 6.847-.525v2.954c-.497.028-.994.056-1.463.111v8.835c1.27-.083 2.512-.193 3.782-.276.304-.966.58-1.933.884-2.927.828-.055 1.657-.11 2.512-.138v5.798c-4.224.277-8.393.58-12.562.939z" fill="#fff"/><path d="m139.32 47.634v-2.954l1.491-.083v-8.863c-.386.028-.801.028-1.187.056-.249.8-.497 1.573-.773 2.347-.773.027-1.574.082-2.347.138v-5.219c4.169-.248 8.311-.414 12.48-.552v5.218c-.801.028-1.574.056-2.375.083-.248-.745-.497-1.518-.745-2.291-.387 0-.801.027-1.187.027v8.891c.497-.028.994-.056 1.491-.056v2.955c-2.292.083-4.584.165-6.848.303z" fill="#fff"/><path d="m151.883 39.793c0-1.159.221-2.209.662-3.203.442-.994 1.105-1.877 1.988-2.65.718-.635 1.519-1.105 2.402-1.436.884-.331 1.823-.497 2.872-.497 1.021 0 1.988.138 2.871.442.884.304 1.685.773 2.402 1.38.856.746 1.519 1.629 1.961 2.623.441.994.662 2.043.662 3.175s-.221 2.182-.662 3.176c-.442.966-1.105 1.85-1.961 2.595-.717.607-1.518 1.077-2.402 1.408-.883.304-1.822.469-2.871.497-1.022 0-1.988-.138-2.872-.442-.883-.303-1.684-.745-2.402-1.353-.856-.745-1.518-1.601-1.96-2.567-.469-.967-.69-2.043-.69-3.148zm4.058-.083c0 1.16.359 2.154 1.105 2.899.745.773 1.656 1.132 2.761 1.132 1.104 0 2.015-.386 2.761-1.159.718-.773 1.104-1.74 1.104-2.927s-.359-2.181-1.104-2.954c-.746-.773-1.657-1.16-2.734-1.16-1.104 0-2.015.414-2.733 1.215-.801.773-1.16 1.767-1.16 2.954z" fill="#fff"/><path d="m170.768 39.683c0-1.132.221-2.209.69-3.175.442-.967 1.105-1.823 1.961-2.568.717-.608 1.518-1.049 2.402-1.325.883-.304 1.822-.415 2.871-.387 1.022.028 1.988.221 2.872.552.883.332 1.684.828 2.402 1.491.856.801 1.518 1.684 1.96 2.706.442 1.021.663 2.071.663 3.203s-.221 2.181-.663 3.147c-.442.967-1.104 1.795-1.96 2.513-.718.58-1.519 1.021-2.402 1.297-.884.277-1.85.415-2.872.387-1.021-.028-1.988-.221-2.844-.552-.883-.332-1.684-.829-2.402-1.436-.856-.773-1.518-1.657-1.96-2.651-.497-1.021-.718-2.07-.718-3.202zm4.086.055c0 1.187.359 2.154 1.105 2.954.745.801 1.656 1.215 2.761 1.243 1.104.027 2.015-.332 2.761-1.05.718-.745 1.104-1.711 1.104-2.899 0-1.187-.359-2.181-1.104-2.981-.746-.801-1.657-1.215-2.734-1.271-1.104-.027-2.015.332-2.733 1.105-.801.745-1.16 1.712-1.16 2.899z" fill="#fff"/><path d="m189.626 47.662v-2.954c.497.027.994.055 1.491.083v-8.836c-.497-.027-.994-.055-1.491-.082v-2.955c1.739.083 3.506.194 5.246.304 1.656 2.816 3.285 5.632 4.942 8.449-.028-1.74-.083-3.452-.111-5.191-.524-.028-1.049-.083-1.573-.111v-2.954c2.264.166 4.528.332 6.792.525v2.954c-.497-.055-.994-.083-1.491-.138v11.79c-1.077-.083-2.126-.166-3.203-.249-1.822-3.092-3.617-6.185-5.439-9.249.027 1.988.055 3.948.083 5.936.524.027 1.049.055 1.573.11v2.955c-2.291-.139-4.555-.277-6.819-.387z" fill="#fff"/><path d="m207.186 48.904v-2.954c.414.028.828.083 1.242.111.911-2.844 1.822-5.716 2.734-8.559-.497-.056-.967-.083-1.464-.139v-2.954c3.479.332 6.93.69 10.382 1.105v2.954c-.47-.055-.939-.111-1.436-.166.911 3.037 1.822 6.102 2.706 9.139.414.055.856.111 1.27.138v2.954c-2.154-.276-4.307-.524-6.433-.745v-2.954c.441.055.883.083 1.297.138-.193-.69-.386-1.381-.58-2.043-1.352-.138-2.678-.304-4.031-.442-.193.635-.359 1.298-.552 1.933.442.055.856.082 1.298.138v2.954c-2.126-.193-4.28-.414-6.433-.608zm6.322-6.93c.939.111 1.905.194 2.844.304-.469-1.601-.966-3.203-1.436-4.804-.469 1.491-.938 2.982-1.408 4.5z" fill="#fff"/><path d="m294.792 167.628c-1.159 0-2.319-.194-3.451-.553l-27.334-9.359c-3.948-1.353-6.682-4.887-7.013-9.057l-1.021-12.866c-.359-4.638 2.429-8.973 6.792-10.602l.552-.193 7.178-20.956-.524-1.022c-1.933-3.7-1.463-8.2 1.187-11.43l9.608-11.679c1.961-2.403 4.887-3.783 8.007-3.811 1.16 0 2.32.194 3.424.553l27.665 9.47c4.86 1.656 7.759 6.543 6.903 11.624l-2.54 14.964c-.525 3.175-2.541 5.964-5.384 7.455-1.464.801-3.148 1.215-4.832 1.215h-.249c-.055.966-.276 1.905-.607 2.816l-3.148 8.559c-.469 1.243-1.132 2.375-1.987 3.341 1.463 1.077 2.622 2.512 3.34 4.169 1.326 2.982 1.16 6.488-.441 9.332l-7.124 12.701c-1.794 3.258-5.246 5.301-9.001 5.329z" fill="#231f20"/><path d="m40.228 164.48c-6.13.028-11.817-2.071-16.87-6.24-5.467-4.528-9.663-11.237-11.845-18.94l-4.969-17.726c-2.679-9.553-2.623-18.333.193-25.429 3.147-7.979 9.387-13.473 18.057-15.931 2.788-.773 5.577-1.187 8.283-1.187 6.543-.028 12.618 2.209 17.56 6.488l1.739.47c4.445 1.215 7.593 5.301 7.648 9.912l.166 13.639c.027 2.181-.608 4.28-1.822 6.019 2.043.939 3.755 2.513 4.804 4.473l6.322 11.624c2.044 3.782 1.602 8.366-1.159 11.679l-.967 1.187c-2.567 9.443-9.359 15.986-19.658 18.885-2.512.691-5.025 1.077-7.482 1.077z" fill="#231f20"/><path d="m64.69 134.302-6.322-11.624c-1.05-1.932-3.286-2.954-5.44-2.457 0 0-13.639 3.12-13.667 3.148-.027 0-.027.027-.055.027l3.286 11.431c.276.994-.055 2.015-.801 2.706l-3.065-1.298-2.181-7.731-5.605-19.879-1.38-1.27c.138-.442.359-.856.663-1.187.027-.028.994-.718 1.214-.773.912-.249 2.789-.194 3.369 1.932l1.933 6.903c.082.303.303.58.607.745.276.138.58.166.883.083.028 0 .056-.028.083-.028 0 0 12.176-4.307 12.287-4.417 0 0 .193-.221.276-.331l3.285 1.822c.415-.746.663-1.574.635-2.485l-.165-13.639c-.028-2.182-1.519-4.142-3.645-4.722 0 0-3.037-.856-3.092-.911-5.743-5.439-13.391-7.151-21.563-4.859-5.716 1.601-10.106 4.887-12.867 9.525l3.093 2.126c-.194.304-.359.635-.525.967-.249.469-.469.938-.663 1.435-2.043 5.191-2.015 11.955.111 19.521l5.025 17.725c3.092 11.017 12.176 21.26 24.794 17.726 7.758-2.181 12.369-6.958 13.667-14.219l2.236-2.679h.028l3.506 1.491c.828-1.463.884-3.258.055-4.804z" fill="#fff"/><path d="m44.673 152.718c-11.375 3.203-19.603-6.267-22.475-16.428l-4.969-17.725c-2.016-7.179-2.099-13.529-.194-18.333 1.823-4.639 5.55-7.842 10.741-9.305 6.598-1.85 12.424-.414 16.814 4.169.249.249.525.414.856.525l3.451.966.166 12.645-10.768 3.783-1.739-6.212c-.829-2.927-3.479-3.838-5.688-3.231-2.374.663-3.865 3.286-3.203 5.633l7.786 27.693c.663 2.374 3.203 3.727 5.633 3.037 2.429-.691 3.893-3.231 3.202-5.633l-1.684-5.991 11.044-2.485 5.854 10.768-2.099 2.512c-.221.249-.359.553-.414.884-1.132 6.461-5.273 10.74-12.314 12.728z" fill="#bb813b"/><path d="m73.332 89.491c-.083.414.055.856.387 1.16l4.417 3.727 4.777 29.709c1.408 8.752 9.001 16.648 20.818 14.743 5.964-.966 10.133-3.948 12.618-7.813l3.064 2.208s0-.027.028-.027c2.954-4.473 4.086-9.995 3.203-15.489l-4.528-28.245c-.028-.111 0-.249.055-.359l2.126-3.452c.939-1.518.966-3.451.083-4.997l-6.792-12.121c-1.022-1.794-3.065-2.788-5.108-2.457l-12.259 1.988c-.276.055-.552.11-.828.221l8.172 50.084c.193 1.16-.303 2.126-1.049 2.734l-3.009-1.767-7.925-49.367s-1.767-.856-2.816-.69l-12.286 1.96c-1.049.166-1.961.663-2.678 1.38l2.567 2.761c-.165.056-3.037 14.109-3.037 14.109z" fill="#fff"/><path d="m103.455 136.953c-10.602 1.712-17.422-5.357-18.665-13.198l-4.776-29.708c-.083-.442-.304-.856-.635-1.132l-4.114-3.451 2.568-12.811 10.657-1.712 7.151 44.535c.497 3.147 3.286 4.445 5.66 4.086 2.734-.442 4.528-2.871 4.114-5.55l-7.151-44.617 10.63-1.712 6.378 11.375-2.734 4.473c-.248.386-.331.828-.248 1.27l4.777 29.764c1.242 7.868-3.038 16.676-13.612 18.388z" fill="#bb813b"/><path d="m142.799 80.076c-.166.414-.083.911.221 1.27l3.617 4.004-.249 29.763-3.81 3.59c-.359.359-.469.883-.276 1.353l5.274 11.955c.193.441.607.718 1.076.718l12.425.11c.193 0 3.147 2.209 3.147 2.209l.249-30.206-1.767-2.816c.386-.911 1.187-.994 1.463-.994 1.657.028 4.031 1.961 4.004 5.495l-.111 14.246c-.027 3.562.552 6.378 1.74 8.394.359.635.8 1.187 1.297 1.684 1.519 1.491 3.59 2.264 6.24 2.292 2.568.027 6.268-.553 8.725-3.479l2.623 2.678c2.319-2.651 3.644-6.35 3.755-10.768.055-1.933-1.022-3.727-2.761-4.583-.111-.055-.525-.414-.525-.58.028-4.997.083-9.332-1.491-13.115-.497-1.215-1.132-2.291-1.905-3.285l-6.543-.608c-1.188-.662-2.54-1.215-4.169-1.684.276-.055 5.301-1.353 7.73-7.758l3.369 1.656c.966-2.402 1.656-5.467 1.684-9.304.11-12.563-10.519-20.404-20.431-20.487l-17.726-.166c-.856 0-1.684.221-2.402.608l1.574 3.451c-.111.11-6.047 14.357-6.047 14.357zm21.619 2.844c1.518 0 4.307 1.684 4.279 4.39-.027 3.368-.359 5.715-1.656 6.903l-2.237-2.154.028-5.218-2.126-2.596c.193-.8.828-1.353 1.712-1.325z" fill="#fff"/><path d="m177.339 131.265c-5.052-.027-7.482-3.479-7.427-10.492l.111-14.246c.027-4.777-3.369-7.372-5.854-7.372-1.767-.028-3.561 1.215-3.561 3.976l-.221 27.83-11.293-.082-4.887-11.127 3.479-3.258c.387-.359.58-.856.607-1.353l.249-29.764c0-.469-.166-.911-.497-1.27l-3.313-3.672 5.439-13.142 17.284.138c7.206.055 14.909 5.743 14.854 14.799-.083 11.734-7.289 13.556-7.593 13.639-.828.193-1.435.939-1.435 1.767-.028.856.524 1.602 1.352 1.85 4.308 1.27 6.765 3.12 7.925 5.936 1.132 2.734 1.104 6.378 1.076 10.934v.193c-.027 2.319 1.077 4.086 3.286 5.301-.497 7.841-5.467 9.47-9.581 9.415zm-12.921-50.222c-2.099-.028-3.645 1.546-3.672 3.699l-.056 8.504c-.027 2.568 1.795 3.728 3.507 3.755 6.295.055 6.35-6.516 6.378-9.691.027-3.755-3.672-6.267-6.157-6.267z" fill="#bb813b"/><path d="m251.196 94.654 5.274-3.064c.165-.083.276-.221.359-.359l3.478 1.435c.332-.69.525-1.491.497-2.291l-.441-13.391c-.083-2.319-1.795-4.307-4.087-4.721l-12.12-2.154c-1.05-.193-2.044 0-2.955.414l1.491 3.424c-.248.138-7.206 22.447-10.133 32.055v.083c-.193.883-.966 1.491-1.739 1.353-.083 0-.138-.028-.221-.083l3.7-35.976s-1.767-3.396-3.728-3.755l-12.369-2.209c-.911-.165-1.85-.055-2.678.276 0 0 .745 4.004.69 4.142l-5.025 12.397c-.166.414-.083.883.193 1.215l3.838 4.5.276 33.463-2.844 3.148c-.303.331-.386.801-.22 1.215l4.086 10.961c.138.387.497.69.911.745 0 0 14.716 2.568 14.882 2.541l1.712 3.368c.662-.304 1.27-.718 1.739-1.298l7.62-8.863c1.215-1.408 1.519-3.34.829-5.052l-.939-2.347c-.055-.11-.055-.248 0-.387l10.851-28.189c.027-.083.11-.138.165-.194z" fill="#fff"/><path d="m231.759 138.278-13.612-2.43-3.81-10.215 2.567-2.844c.332-.359.497-.801.497-1.27l-.276-33.464c0-.441-.165-.883-.441-1.214l-3.59-4.169 4.666-11.486 11.238 2.015-1.215 32.387v.138c.027 1.518.883 3.313 2.706 3.644 1.739.304 3.451-.911 3.893-2.788 3.451-11.376 7.951-26.092 9.387-30.758l10.989 1.961.414 12.424-4.915 2.844c-.359.221-.662.552-.8.939l-11.983 31.144c-.166.442-.166.938 0 1.38l1.408 3.507z" fill="#bb813b"/><path d="m318.068 91.286-27.666-9.47c-.8-.276-1.656-.332-2.457-.166v4.059c-.028.027-.055.027-.055.055l-9.609 11.679c-.303.386-.358.883-.138 1.325l2.375 4.528-9.884 28.853-4.639 1.712c-.497.193-.828.69-.773 1.214l1.022 12.867c.027.469.358.883.8 1.049l27.362 9.36h.027l2.651 3.23c.828-.442 1.546-1.077 2.015-1.96l7.124-12.729c.773-1.352.828-3.009.193-4.417-.552-1.243-1.629-2.237-2.927-2.678-.165-.056-13.418-3.093-13.418-3.093-.028 0-.028 0-.055-.027-.111-.028-.221-.138-.276-.221-.056-.138-.083-.276-.028-.414l1.049-3.093c.028-.082.083-.138.138-.193l-2.236-3.976c.386-.248.856-.331 1.325-.193.055 0 10.299 1.767 10.409 1.767l2.844 2.761c.745-.552 1.325-1.325 1.657-2.236l3.147-8.559c.442-1.243.387-2.651-.193-3.866-.58-1.187-1.602-2.098-2.844-2.512l-.083-.028-6.737-2.209c-.138-.055-.221-.138-.303-.248-.056-.111-.083-.276-.028-.387l.966-2.816-1.463-4.997c.304-.083.635-.083.966.027l15.158 6.792 3.783 2.596c.828-.746 1.408-1.74 1.574-2.844l2.54-14.965c.386-2.457-.994-4.776-3.313-5.577z" fill="#fff"/><path d="m294.406 156.363-26.395-9.029-.939-11.9 4.169-1.518c.525-.194.939-.635 1.132-1.16l9.884-28.852c.166-.497.138-1.022-.11-1.491l-2.154-4.114 9.029-10.961 26.671 9.139-2.292 13.528s-14.44-6.46-14.495-6.488c-1.877-.635-3.838.331-4.5 2.209l-2.761 8.034c-.69 1.988.58 3.949 2.209 4.501l8.614 2.844-2.706 7.344-9.332-1.629c-1.822-.525-3.727.525-4.335 2.347l-2.706 7.841c-.635 1.85.304 3.838 2.099 4.473.055.027 15.296 3.506 15.296 3.506z" fill="#bb813b"/><path d="m81.312 83.527.8-2.126 2.264-.358 1.436 1.767-.801 2.126-2.264.386z" fill="#231f20"/><path d="m103.289 79.993.828-2.126 2.264-.359 1.436 1.767-.801 2.154-2.264.359z" fill="#231f20"/><path d="m289.187 95.124 1.712-1.519 2.181.746.442 2.236-1.739 1.519-2.154-.746z" fill="#231f20"/><path d="m219.665 78.972 1.464-1.74 2.264.387.773 2.153-1.463 1.768-2.265-.415z" fill="#231f20"/><path d="m246.033 83.665 1.491-1.739 2.236.414.773 2.154-1.463 1.739-2.264-.414z" fill="#231f20"/><path d="m152.325 74.637 1.159-1.96h2.292l1.132 1.988-1.16 1.988-2.291-.028z" fill="#231f20"/><path d="m151.938 124.197 1.16-1.988 2.291.028 1.105 1.988-1.132 1.988-2.292-.028z" fill="#231f20"/><path d="m175.627 124.39 1.16-1.988 2.292.028 1.132 1.988-1.16 1.96h-2.292z" fill="#231f20"/><path d="m100.859 130.575.829-2.126 2.264-.359 1.435 1.767-.828 2.154-2.264.359z" fill="#231f20"/><path d="m223.558 130.023 1.491-1.767 2.237.414.8 2.153-1.49 1.74-2.237-.414z" fill="#231f20"/><path d="m272.235 141.702 1.712-1.519 2.181.746.442 2.236-1.74 1.519-2.153-.746z" fill="#231f20"/><path d="m306.002 100.867 1.712-1.491 2.181.745.442 2.236-1.74 1.491-2.153-.717z" fill="#231f20"/><path d="m289.27 147.527 1.712-1.518 2.181.745.442 2.264-1.739 1.491-2.154-.745z" fill="#231f20"/><path d="m40.67 146.589.552-2.209 2.209-.607 1.629 1.573-.553 2.237-2.208.607z" fill="#231f20"/><path d="m26.727 97.084.552-2.209 2.209-.635 1.629 1.602-.553 2.208-2.208.635z" fill="#231f20"/><path d="m191.117 207.358c1.905 2.513.773 7.648-2.347 9.664-2.458-5.08-5.577-9.664-7.841-12.728 2.264-.359 7.371-.691 10.188 3.064z" fill="#7e8083"/><path d="m200.421 174.088s.608 9.94-6.488 23.496c0 0 6.902-2.236 10.464-12.921 1.381-1.16 2.927-2.264 4.528-3.065 0 0-.248 12.728-12.839 21.26-3.837-5.66-10.436-5.55-13.584-5.08 1.132-6.24 5.025-16.152 17.919-23.69z" fill="#7e8083"/><path d="m98.513 185.022c.22-.856.938-1.712 1.711-2.402.553 2.291 1.381 4.197 2.513 5.439 0 0 1.518-15.986 7.179-22.613 4.362-5.135 24.517-10.657 40.89-11.761 0 0-4.114 11.817-3.783 16.4 0 0 2.016-2.789 5.163-6.627 3.397-.938 11.21-2.843 15.407-2.07 3.12.552-6.627 4.887-6.516 14.053 0 0 3.065-3.285 7.565-7.593 2.043-.22 4.169-.303 5.329.111 1.546.552-1.74 3.893-5.08 8.973-4.86 1.215-13.308-3.285-20.598 7.013-11.458.966-33.656 5.633-50.443 13.667-.331-3.617-.414-8.587.663-12.59z" fill="#7e8083"/><path d="m79.462 219.369c15.213-18.775 53.894-27.445 65.601-29.709-2.209 3.12-11.513 14.882-30.73 19.604-13.584 3.368-22.309 6.488-27.914 9.497-2.65 1.298-6.157 3.314-9.801 6.295.58-1.987 1.491-4.031 2.844-5.687z" fill="#7e8083"/><path d="m214.116 187.921c-.276 1.795-.663 3.451-1.16 4.97l21.564-9.084-39.925 37.494c-1.049 1.326-2.098 2.375-2.899 3.093 1.022 3.534 1.464 7.068.829 10.298-5.357 27.086-20.873 51.41-55.165 62.399l2.457 4.059s37.854-1.132 58.754-51.603c0 0 1.961 19.382-11.844 37.522 1.187.165 2.374.303 3.561.414 9.001-7.897 14.855-23.634 20.515-33.188 4.39-7.454 14.826-16.952 16.124-20.21 7.952-19.769 8.89-27.61 12.148-60.908z" fill="#7e8083"/><path d="m141.363 210.948c.056 1.049-.773 1.932-1.85 1.96-1.049.055-1.96-.745-2.015-1.795-.028-.276.055-.497.138-.745.248-.304 1.519-1.767 1.877-2.098.746-.746 1.574-1.353 2.43-1.878 1.16 1.463 2.927 4.252 2.623 7.455-.58-1.657-1.85-3.065-3.534-3.838.193.276.304.607.331.939z" fill="#fff"/><path d="m134.433 221.826c-.386.304-.69.607-1.021.884-1.602-.083-3.037-.497-4.142-.912.773-.993 1.546-2.07 2.319-3.175.58 1.326 1.574 2.43 2.844 3.203z" fill="#fff"/><path d="m98.264 224.918c-1.16-.414-2.236-.856-3.258-1.325-.11 1.85.138 5.688 3.589 7.538-.69-.856-1.132-1.933-1.187-3.12-.055-1.16.276-2.209.856-3.093z" fill="#fff"/><path d="m102.378 226.713c.028.773.69 1.353 1.491 1.325.801-.027 1.408-.69 1.38-1.463 0-.11-.055-.193-.082-.304-.856 0-1.74-.083-2.623-.248-.138.221-.194.442-.166.69z" fill="#fff"/><path d="m142.495 217.85c.47-1.656-.193-3.396-.193-3.396s-2.292 5.274-7.814 4.473c0 0 .746.966 1.988 1.491.994-.58 2.154-1.16 3.507-1.684.856-.332 1.684-.635 2.512-.884z" fill="#7e8083"/><path d="m99.617 228.784s.138 3.838 5.55 2.871l.22-1.684c-1.159.552-3.368 1.077-5.77-1.187z" fill="#7e8083"/><path d="m129.049 252.694c6.516-1.905 14.247-5.798 22.834-13.198 1.187-.635 3.451-1.49 5.494-.469 0 0 .663-4.059 2.181-6.212.773 1.712 1.685 4.031 2.32 6.599-.746.966-5.136 6.295-13.943 8.973 0 0 6.405.386 12.01-1.85l1.988 3.893c-1.325.469-17.477 6.461-32.884 2.264z" fill="#fff"/><path d="m171.155 207.635c-.083-.028-1.05-1.519-1.381-3.369-.856-4.666 1.436-7.151 1.436-7.151.524 3.562 2.457 4.639 4.086 4.887l-.221-7.455c-3.368-2.319-7.427-1.297-8.752 2.32-2.651 7.289.745 13.611.745 13.611l-6.24 5.219s.663-8.477-6.736-10.796c-.884-.276-1.657-.552-2.402-.856-1.077-.027-2.209.028-3.341.166.994 2.54 2.374 7.51.303 12.342 4.805-.415 7.648.635 7.648.635s-6.322 1.767-11.403 4.169c-8.918 4.224-13.832 9.939-13.832 9.939s-.884-1.988-.166-4.555c-1.684-.166-3.313-.635-4.859-1.353-1.215 1.132-2.402 1.877-3.534 1.96-4.97.359-4.639-8.559-4.639-8.559s3.037 2.982 6.047-1.933c.718-1.159 1.463-2.319 2.236-3.451-3.644 1.408-7.178 2.374-10.492 3.065-6.101 1.242-11.32 2.567-15.848 3.865l6.682 3.092 2.236-1.297.028 15.268-2.899-2.733c-2.347.662-6.737 1.408-10.492-.58.083 2.347.331 4.887.966 7.151 0 0-1.408.442-3.064-.055-2.789 7.289-8.67 25.07-5.357 38.24 0 0 19.797-.856 37.163 10.547 0 0 47.241-6.24 57.319-55.138 2.209-10.547-9.664-25.263-11.237-27.195zm-66.375 33.463 2.982 3.755c3.341.386 12.259-2.375 12.259-2.375 2.568-5.163 6.461-6.654 6.461-6.654-1.767 3.369-2.789 10.299-2.789 10.299-9.277 2.761-16.98 2.153-16.98 2.153-2.402-2.125-1.933-7.178-1.933-7.178zm2.071 35.479c-1.546-.387-3.01-.663-4.335-.884.828-5.853 4.307-8.089 5.991-8.835-1.27 1.491-2.402 4.362-1.656 9.719zm46.882-5.633s-12.48.801-20.266-2.623c1.877 5.605-3.424 9.001-3.424 9.001 2.319-11.292-9.608-15.737-9.608-15.737s3.589-.663 7.123.635c0-.056 15.655 7.509 34.375 1.297zm13.225-15.765c-20.625 8.366-40.062 1.96-46.91-.939-7.537.387-11.927-1.85-11.927-1.85 28.135-1.739 41.581-17.836 45.391-23.358-4.445-.055-7.179.359-7.179.359s3.01-4.721 9.94-5.163c11.955-.745 11.541 6.461 11.541 6.461-1.022-.221-1.988-.414-2.955-.58 7.869 14.33 2.099 25.07 2.099 25.07z" fill="#f4d09b"/><g fill="#fff"><path d="m156.797 193.526c3.12-7.289 11.679-11.265 11.679-11.265-17.035-2.016-20.293 14.053-20.293 14.053 5.522-10.243 13.253-11.734 13.253-11.734-7.952 6.627-7.565 14.302-7.565 14.302s3.534-4.252 6.764-6.267c-2.402 4.472-1.242 7.841-1.242 7.841.745-5.136 6.019-10.906 6.019-10.906-4.998.331-8.615 3.976-8.615 3.976z"/><path d="m104.532 259.431c-4.749-2.347-8.283-1.381-8.283-1.381.414-7.013 3.699-17.918 5.245-22.695-1.932.055-4.086-.221-6.046-1.27.083 2.347.331 4.887.966 7.151 0 0-1.408.442-3.064-.055-2.789 7.289-8.67 25.07-5.357 38.24 0 0 1.767-.083 4.694.11-4.804-15.462 11.845-20.1 11.845-20.1z"/><path d="m107.762 244.853c1.38.166 3.7-.221 5.991-.718l-1.518-26.395-3.479 4.417.028 15.269-2.32-2.209-1.684 5.881z"/><path d="m111.02 265.174s-5.605 1.049-4.169 11.403c1.85.469 3.782 1.077 5.687 1.877-1.076-2.54-3.147-8.504-1.518-13.28z"/><path d="m231.234 185.215c-4.031-.11-7.814-.497-10.713-.883-.083 0-.165-.028-.276-.028l-2.623 1.546c2.264.359 5.605.829 9.471 1.105z"/><path d="m107.734 193.526 1.795-.442s-.055-.11-.11-.304c-.691-1.85-4.28-12.728 1.104-28.024-.221.221-.469.414-.635.635-.994 1.16-1.85 2.623-2.595 4.225-1.519 5.88-2.541 14.522.414 23.772 0 .083.027.11.027.138z"/><path d="m184.187 270.337c-2.32-.525-4.363-1.049-6.019-1.491-.387.552-.829 1.132-1.243 1.657 2.181.607 5.246 1.408 8.78 2.126.414-.553.828-1.132 1.243-1.712-.967-.194-1.878-.387-2.761-.58z"/><path d="m186.727 287.096c1.187.166 2.374.304 3.561.414.635-.579 1.243-1.159 1.85-1.794-1.38-.111-2.761-.221-4.141-.387-.387.58-.829 1.16-1.27 1.767z"/><path d="m173.308 274.81c-.469.524-.994 1.049-1.491 1.573 2.319.691 5.412 1.547 8.918 2.347.497-.524.939-1.104 1.436-1.656-1.16-.249-2.292-.525-3.368-.773-2.071-.525-3.921-1.022-5.495-1.491z"/><path d="m196.473 267.521c2.292.303 4.666.524 7.068.69.331-.635.663-1.27.966-1.878-2.567-.138-5.107-.386-7.537-.69-.138.608-.304 1.243-.497 1.878z"/><path d="m167.206 280.773c-.579.497-1.159.994-1.767 1.491 2.126.663 5.357 1.602 9.222 2.541.58-.525 1.16-1.05 1.739-1.602-.717-.165-1.435-.331-2.098-.497-2.844-.69-5.246-1.353-7.096-1.933z"/><path d="m191.006 280.608c1.602.221 3.258.386 4.915.524.442-.607.856-1.214 1.27-1.849-1.74-.111-3.479-.277-5.191-.497-.304.607-.635 1.214-.994 1.822z"/><path d="m194.154 274.147c1.905.276 3.865.497 5.825.635.359-.607.718-1.242 1.05-1.877-2.071-.138-4.142-.359-6.157-.635-.194.635-.442 1.242-.718 1.877z"/><path d="m160.055 286.268c-.69.469-1.408.939-2.126 1.38 2.237.691 5.688 1.712 9.802 2.679.69-.497 1.38-.994 2.098-1.519-1.049-.221-2.07-.469-3.037-.69-2.65-.663-4.942-1.298-6.737-1.85z"/><path d="m141.86 190.323c-.966.193-2.015.442-3.12.69-4.997 5.136-8.476 10.188-10.132 12.756 1.159-.635 2.291-1.298 3.34-1.96 2.899-4.307 7.013-8.642 9.912-11.486z"/><path d="m121.318 195.679c-5.135 5.937-8.697 11.32-10.657 14.523.773-.193 1.574-.414 2.402-.607 3.507-5.798 8.09-11.403 11.016-14.772-.938.277-1.849.58-2.761.856z"/><path d="m130.154 193.112c-4.307 4.969-9.001 11.292-11.624 14.964.856-.276 1.684-.552 2.457-.856 3.81-5.301 8.587-10.961 11.955-14.854-.911.249-1.85.497-2.788.746z"/><path d="m142.054 295.434c-.967.359-1.988.746-3.01 1.077 1.905.608 5.55 1.74 10.133 2.844 1.104-.331 2.292-.718 3.534-1.187-1.242-.276-2.43-.552-3.562-.828-2.816-.663-5.218-1.326-7.095-1.906z"/><path d="m149.287 292.397c2.126.691 5.771 1.767 10.244 2.844 1.021-.524 2.098-1.104 3.175-1.712-4.804-.966-9.001-1.932-10.851-2.402-.856.442-1.712.856-2.568 1.27z"/><path d="m204.949 217.326c-1.932-.359-3.617-.718-4.997-1.05l-1.684 1.574c5.08 1.215 15.903 3.507 26.671 3.507 2.264 0 4.556-.111 6.792-.359.221-.663.414-1.326.607-2.016-2.402.304-4.887.442-7.399.442-7.206 0-14.495-1.049-19.99-2.098z"/><path d="m225.933 191.869-1.878 1.767c2.596.249 5.44.442 8.477.442 1.435 0 2.899-.055 4.39-.138.083-.635.138-1.298.221-1.96-1.574.082-3.12.138-4.611.138-2.32.027-4.528-.083-6.599-.249z"/><path d="m208.29 210.672c-.69-.138-1.353-.249-1.988-.387l-1.739 1.629c5.356 1.132 14.053 2.595 22.861 2.595 2.043 0 4.114-.082 6.157-.276.166-.662.304-1.325.469-1.988-2.181.221-4.39.332-6.626.332-6.958.027-13.943-.939-19.134-1.905z"/><path d="m213.287 204.653c-.276-.056-.552-.083-.8-.138l-1.74 1.629c3.755.745 9.912 1.684 17.063 1.684 2.32 0 4.722-.111 7.179-.359.11-.663.248-1.298.331-1.988-2.567.276-5.108.414-7.537.414-5.716 0-10.823-.607-14.496-1.242z"/><path d="m197.964 260.646c2.871.359 5.936.662 9.001.773.331-.635.635-1.298.966-1.905-3.285-.111-6.599-.387-9.691-.801-.055.635-.166 1.298-.276 1.933z"/><path d="m217.816 190.848c-1.74-.304-3.12-.608-4.114-.829-.138.635-.304 1.27-.47 1.878.387.083.856.193 1.353.304z"/><path d="m234.52 178.727c-1.602 0-3.12-.083-4.501-.193l-2.871 1.684c2.015.221 4.583.414 7.372.414 1.242 0 2.54-.055 3.837-.138.056-.635.138-1.298.194-1.96-1.353.11-2.706.193-4.031.193z"/><path d="m219.113 198.302-1.822 1.712c3.534.525 7.979.967 12.866.967 1.905 0 3.866-.083 5.909-.221.083-.635.165-1.298.276-1.961-2.099.166-4.169.249-6.157.249-4.114-.028-7.897-.332-11.072-.746z"/><path d="m195.838 244.273c-2.071-.387-3.865-.801-5.356-1.16-.166.608-.359 1.243-.553 1.85 5.384 1.27 15.269 3.258 25.126 3.396.524-.635 1.076-1.297 1.601-1.932h-.359c-7.289.055-14.799-1.05-20.459-2.154z"/><path d="m198.433 238.033c-2.54-.497-4.693-.994-6.322-1.38-.138.635-.277 1.27-.442 1.877 5.329 1.298 16.4 3.617 27.223 3.617.525 0 1.05 0 1.574-.028.608-.69 1.215-1.352 1.767-1.987-1.104.055-2.236.11-3.341.11-7.289 0-14.799-1.104-20.459-2.209z"/><path d="m198.654 253.826c3.645.552 7.676.994 11.762 1.16.138-.221.276-.47.387-.691.22-.414.497-.828.773-1.214-4.446-.138-8.891-.608-12.894-1.215 0 .552 0 1.215-.028 1.96z"/><path d="m202.271 224.283c-2.844-.552-5.218-1.104-6.875-1.518-.718-.166-1.27-.332-1.712-.442-.497.552-.966 1.077-1.408 1.491l-.027.138c.055.028 15.544 4.473 30.481 4.473 2.181 0 4.39-.111 6.516-.331.249-.691.497-1.353.746-2.016-2.347.276-4.777.414-7.262.414-7.261 0-14.771-1.104-20.459-2.209z"/><path d="m111.296 199.186c-4.749 5.743-8.007 10.795-9.663 13.584.745-.221 1.49-.442 2.264-.663 3.092-5.218 7.123-10.353 10.105-13.915-.884.304-1.795.635-2.706.994z"/><path d="m200.559 231.158c-2.844-.552-5.218-1.104-6.875-1.518-.359-.083-.69-.166-.994-.249.056.69.111 1.353.111 2.016 4.832 1.215 16.676 3.865 28.245 3.865 1.795 0 3.589-.083 5.356-.221.249-.359.442-.69.552-.966.139-.359.277-.718.415-1.077-2.044.221-4.17.331-6.295.331-7.317.028-14.827-1.076-20.515-2.181z"/><path d="m233.029 185.243-2.016 1.905c.718.027 1.408.027 2.126.027 1.519 0 3.037-.055 4.556-.165.083-.635.138-1.298.193-1.96-1.574.11-3.175.193-4.777.193z"/><path d="m165.246 165.419c-3.12-1.657-6.074-2.596-8.228-3.148-.966.221-1.905.414-2.706.635 4.059.967 7.897 2.651 9.995 3.672.304-.414.608-.8.939-1.159z"/><path d="m144.29 184.359c-1.104-5.08-2.512-16.704 3.203-30.398-.608.055-1.215.138-1.822.193-.774 1.85-6.323 15.848-2.872 30.399.497-.056.994-.139 1.491-.194z"/><path d="m196.501 176.656c-.829.607-1.629 1.215-2.375 1.85-1.822 5.053-5.191 11.762-11.265 17.643-.138.552-.248 1.104-.331 1.601.276-.027.607-.083.911-.11 4.224-3.893 10.05-10.796 13.06-20.984z"/><path d="m190.979 264.732c-.912-.166-1.823-.331-2.651-.497-2.512-.497-4.638-.966-6.24-1.353-.359.58-.69 1.16-1.049 1.74 2.071.497 5.163 1.214 8.863 1.877.359-.552.69-1.16 1.077-1.767z"/><path d="m147.272 169.671c-.387 4.362-.304 9.277.828 14.247.055 0 .111 0 .193-.028.359-.525.746-.994 1.105-1.436-.221-1.215-.414-2.623-.525-4.279l3.7 1.27c.663-.47 1.298-.856 1.96-1.16l-5.77-1.877c-.055-1.16-.055-2.43-.028-3.755 5.605 1.491 10.023 3.589 11.376 4.279.883-.055 1.711-.027 2.54 0 .552-1.712 1.187-3.506 1.822-5.08-1.574 1.601-2.678 2.733-3.148 3.23-.082.166-.138.332-.22.525-4.114-2.319-10.133-4.086-12.315-4.694.083-1.215.221-2.485.387-3.782-.884 1.214-1.546 2.098-1.905 2.54z"/><path d="m162.237 169.947c-4.252-2.292-9.277-3.866-11.652-4.556-.414.525-.828 1.049-1.187 1.491 5.77 1.16 10.326 3.589 12.204 4.694.193-.552.386-1.105.635-1.629z"/><path d="m171.845 167.628c-.58-.028-1.243 0-1.878.055-1.96 3.203-3.479 6.681-4.5 9.415.635.027 1.242.027 1.85 0 1.408-3.562 3.423-7.4 4.528-9.47z"/><path d="m191.724 208.546c-2.181.938-4.252 2.567-5.522 3.644.414.69.801 1.381 1.187 2.099 1.022-1.491 3.01-2.9 4.639-3.921-.028-.635-.111-1.243-.304-1.822z"/><path d="m190.592 198.496c2.375-2.541 4.997-5.881 7.234-10.078 1.463-4.39 2.126-8.007 2.374-10.519-1.297 4.776-4.362 12.893-11.237 20.1.552.138 1.104.303 1.629.497z"/><path d="m195.645 202.251c3.976-4.197 8.531-10.575 11.016-19.3-.773.525-1.546 1.105-2.236 1.712-.691 2.071-1.519 3.838-2.375 5.329-1.739 3.534-4.114 7.399-7.427 11.071.331.332.69.746 1.022 1.188z"/><path d="m101.66 203.327c-3.451 4.556-6.295 9.443-7.731 12.094.663-.249 1.353-.497 2.071-.774 2.651-4.61 5.771-9.166 8.117-12.479-.828.386-1.656.773-2.457 1.159z"/><path d="m197.633 251.728c-1.547-.249-3.038-.525-4.363-.773-1.905-.359-3.589-.746-4.997-1.077-.221.607-.47 1.215-.69 1.822 2.374.552 5.604 1.243 9.277 1.85.248-.607.524-1.242.773-1.822z"/><path d="m188.024 204.929c-1.712.828-3.368 2.015-4.528 2.982.414.607.801 1.214 1.215 1.849 1.353-1.546 3.562-2.926 5.053-3.782-.552-.414-1.132-.773-1.74-1.049z"/><path d="m194.595 258.216c-1.684-.276-3.285-.552-4.776-.856-1.629-.304-3.065-.635-4.335-.911-.276.607-.58 1.187-.883 1.795 2.374.552 5.494 1.187 9.028 1.767.331-.58.635-1.187.966-1.795z"/><path d="m130.568 184.249c.165.801.331 1.629.552 2.457.497-.11.994-.221 1.491-.331-.193-.773-.387-1.767-.58-2.927l-.165.552z"/><path d="m115.051 190.93c-.607-1.711-2.651-8.421-1.242-18.112l-.939-4.362 1.877-.359c.552-2.209 1.243-4.556 2.209-6.985-.718.303-1.38.607-2.015.911-1.767 4.307-5.716 16.262-1.574 29.487.524-.221 1.104-.414 1.684-.58z"/><path d="m136.256 168.76c-.553 5.052-.47 10.85 1.076 16.676l1.491-.248c-1.077-4.335-3.064-16.208 2.596-30.454-.663.11-1.326.193-1.988.331-.635 1.767-1.629 4.887-2.402 8.808l.717-.138z"/><path d="m122.34 159.096c-.745.249-1.436.469-2.126.718-.248.69-.525 1.546-.801 2.512l1.905-.358c.304-.939.636-1.906 1.022-2.872z"/><path d="m100.528 183.641-2.292 2.679c-.165.938-.331 1.905-.414 2.871l3.369-3.727c-.276-.58-.497-1.188-.663-1.823z"/><path d="m83.603 215.006-4.335 8.035c.884-.635 1.767-1.243 2.623-1.767l4.639-8.78c-1.022.828-1.988 1.656-2.927 2.512z"/><path d="m118.475 189.881c.469-.138.966-.276 1.435-.414-.193-.773-.441-1.822-.635-3.092l-1.518.304c.193 1.076.414 2.153.718 3.202z"/><path d="m135.372 155.783c-.69.138-1.381.276-2.043.414-.331.884-.746 2.154-1.215 3.727l1.905-.359c.414-1.242.828-2.512 1.353-3.782z"/><path d="m128.773 157.246c-.69.193-1.38.359-2.071.552-.303.856-.69 2.016-1.049 3.341l1.905-.359c.332-1.159.746-2.319 1.215-3.534z"/><path d="m91.886 208.711-5.411 10.023c.745-.414 1.573-.801 2.429-1.215l5.329-10.271c-.773.497-1.546.966-2.347 1.463z"/><path d="m124.825 188.169c.497-.138.966-.248 1.463-.358-.165-.663-.359-1.574-.552-2.623l-1.518.303c.165.856.358 1.767.607 2.678z"/><path d="m101.853 190.93c.249 1.436.608 2.9 1.05 4.39.469-.193.911-.386 1.38-.579-.359-1.27-1.16-4.446-1.27-9.029-.221 1.436-.304 2.347-.304 2.347-.552-.607-1.021-1.38-1.435-2.292.027.994.11 2.016.248 3.065l-3.893 4.473c0 .718.028 1.408.055 2.098z"/></g><path d="m113.809 172.791 3.064 14.053.884-.165 1.518-.304 4.943-.939 1.518-.304 4.832-.911 1.298-.248.165-.552 4.252-14.661 1.463-5.053-.717.138-3.976.745 1.684-5.163-.718.138-1.905.359-4.583.884-1.905.359-4.308.828-1.905.359-3.12.58 1.243 4.611-2.816.524-1.878.359zm9.249-8.311 4.418-.828c.138-.028.22.083.248.193l1.712 3.7c.138.331.193.662-.083.718-.552.082-.966.579-.773 1.463.083.442.801 5.467.911 6.35.11.911.663.856 1.353.718.304-.055.331.221.248.552 0 0-.994 3.562-.994 3.617 0 0-.138.221-.22.249h-.028l-3.258.635c-.138.027-.276-.055-.276-.194l-.304-3.175c-.027-.138-.138-.221-.276-.193l-1.905.359c-.138.028-.249.138-.276.276l-.497 3.313c-.028.166-.166.276-.304.304l-3.285.607h-.028c-.083 0-.166-.138-.166-.138l-.8-3.313c-.056-.276 0-.58.303-.635.691-.138 1.243-.304 1.436-1.242.166-.967 1.215-6.323 1.325-6.792.221-.967-.138-1.298-.69-1.188-.304.056-.221-.303-.055-.69l1.988-4.417c.055-.056.165-.221.276-.249z" fill="#b5121b"/><path d="m124.162 175.441c-.027.083-.027.193.028.249.055.055.359.027.718-.056.359-.055.662-.138.718-.22.055-.083.055-.166.027-.249l-.414-3.589c-.055-.442-.11-.635-.193-.635-.083.027-.138.248-.221.718z" fill="#b5121b"/><path d="m120.877 169.864c.552-.11.911.221.69 1.187-.11.47-1.16 5.826-1.325 6.792-.166.967-.746 1.105-1.436 1.243-.276.055-.331.359-.304.635l.801 3.313s.11.11.166.138h.027l3.286-.607c.138-.028.276-.138.304-.304l.496-3.313c.028-.138.166-.249.277-.276l1.905-.359c.138-.028.248.027.276.193l.303 3.175c.028.138.166.193.277.193l3.258-.635h.027c.083-.055.221-.248.221-.248.028-.055.994-3.617.994-3.617.083-.304.055-.607-.248-.552-.691.138-1.243.165-1.353-.718-.111-.911-.829-5.909-.911-6.35-.166-.912.248-1.381.773-1.464.303-.055.248-.414.082-.718l-1.711-3.699c-.028-.111-.138-.221-.249-.194l-4.417.829c-.111.027-.221.193-.249.303l-1.988 4.418c-.221.331-.276.718.028.635zm4.362 1.684.414 3.59c.028.082 0 .193-.027.248-.056.083-.387.166-.718.221-.359.055-.663.11-.718.055-.028-.055-.055-.138-.028-.248l.663-3.811c.083-.469.138-.69.221-.717.083.027.11.22.193.662z" fill="#fff"/></g></svg>