<svg clip-rule="evenodd" fill-rule="evenodd" stroke-linejoin="round" stroke-miterlimit="2" viewBox="0 0 560 400" xmlns="http://www.w3.org/2000/svg"><g transform="matrix(.600801 0 0 .600801 54.8198 35.5908)"><path d="m384.9 253.1c82.2 5.9 127.7 100 66.1 169.9-43 46.9-121.7 41.7-159.5-3.2-40.6-58.1-24.3-123 23.7-146.7 68.4-36.1 136.7 57 51.5 75.6 27.5-21.4 10.8-55.9-21.4-41-21 8-43.3 76.5 36.9 72.4 83.9-18.1 58.7-105.4 2.7-127z" fill="#ef7d00"/><path d="m400.8 186.4c7 33 6.9 59.2-18.3 61.1-22.8-22.3 11.6-27.5 18.3-61.1z" fill="#afca0b"/><path d="m371.5 252.5c-35.9 8.8-58.7 2.3-65.9-22.8 29.6-10.9 50.1.3 65.9 22.8z" fill="#008bd2"/><path d="m331.9 52.7h96v63.6h-96z" fill="#e30613"/><path d="m369.8 63.1c6.6 0 12.5 3 16.4 7.7-2.9-1.8-6.4-2.8-10.2-2.8-10.1 0-18.4 7.4-18.4 16.6s8.2 16.6 18.4 16.6c3.8 0 7.3-1 10.2-2.8-3.9 4.7-9.8 7.7-16.4 7.7-11.8 0-21.4-9.6-21.4-21.4s9.6-21.6 21.4-21.6z" fill="#fff"/><path d="m389.8 76.1 3.4 5.8 6.6-1.5-4.5 5.1 3.5 5.8-6.2-2.7-4.5 5 .7-6.7-6.2-2.7 6.6-1.4z" fill="#fff"/><path d="m434.6 77.4.1-24.5h4.2c2.6 16.1 14.6 27.7 27.7 35.4 78.3 33.2 132.9 107.7 132.9 194.2 0 117.4-100.6 212.7-224.7 212.7s-224.7-95.2-224.7-212.7c0-86.4 54.5-160.8 132.6-194.1.5-.5 1-.9 1.5-1.1 17.3-6.9 37.7-12.6 36.2-35.2h4.2v62.7c-81.2 20.6-141.2 92.7-141.2 178.4 0 101.8 84.6 184.3 189 184.3 104.3 0 189-82.5 189-184.3 0-80.5-53-149-126.8-174.1z" fill="#d29460"/><path d="m372.8 174c81.3 0 147.2 66.5 147.2 148.5s-65.9 148.5-147.2 148.5-147.2-66.5-147.2-148.5 66-148.5 147.2-148.5zm.4 9.3c77 0 139.5 62.3 139.5 139.2s-62.5 139.2-139.5 139.2-139.5-62.3-139.5-139.2 62.4-139.2 139.5-139.2z" fill="#d29460"/><path d="m252.9 209c.4.1.7.3 1 .4.2.1.3.3.4.4 0 .2-.1.4-.2.7-.2.3-.4.7-.8 1.1-.4.5-.6.8-.9 1.1-.2.3-.4.4-.5.5s-.3.2-.4.2-.2 0-.4-.1l-4.6-1.5-5.1 6.8 2.7 3.8c.1.1.2.3.2.4v.5c-.1.2-.2.4-.3.7-.2.3-.4.6-.7 1s-.6.8-.8 1-.4.3-.6.3-.4-.1-.5-.2c-.2-.2-.4-.4-.6-.8l-11.9-17.7c-.1-.2-.2-.3-.2-.5v-.5c.1-.2.2-.4.4-.8.2-.3.5-.7.8-1.2.4-.6.8-1 1-1.3.3-.3.5-.5.7-.7.2-.1.4-.2.5-.2.2 0 .4 0 .6.1zm-19.6-1.7 5.8 8.4 3.9-5.1zm38.3-15.6c.2.2.3.4.4.6s.1.4.1.6-.1.4-.2.6-.3.4-.4.5l-1.5 1.3c-.3.3-.6.5-.9.6s-.6.2-.9.2-.7 0-1.1-.2c-.4-.1-.9-.3-1.5-.5l-11.3-4.1c-.7-.3-1.4-.5-2.1-.8s-1.4-.6-2.1-1c.6.6 1.2 1.2 1.8 1.8s1.2 1.2 1.8 1.9l8 8.8c.1.1.1.2.1.3s0 .2-.1.4-.2.3-.4.5-.4.5-.7.7c-.3.3-.6.5-.8.6-.2.2-.4.3-.6.3-.2.1-.3.1-.4 0-.1 0-.2-.1-.3-.2l-13.7-15.2c-.4-.4-.5-.8-.5-1.2.1-.4.3-.8.6-1.1l1.8-1.7c.3-.3.6-.5.9-.7.3-.1.6-.2.9-.3.3 0 .6 0 1 .1s.8.2 1.2.4l8.8 3.2c.5.2 1 .4 1.6.6l3 1.2c.5.2 1 .4 1.4.6-.6-.6-1.2-1.2-1.8-1.9-.6-.6-1.2-1.3-1.7-1.9l-7.1-7.9c-.1-.1-.1-.2-.1-.3s0-.3.1-.4c.1-.2.2-.3.4-.5s.4-.4.7-.7.6-.5.8-.6c.2-.2.4-.3.6-.3s.3-.1.4 0c.1 0 .2.1.3.2zm10.1-29.1c.2.3.3.5.4.8.1.2.2.4.2.6v.4c0 .1-.1.2-.2.2l-4.9 2.9 9.4 15.7c.1.1.1.2.1.3s-.1.3-.2.4-.3.3-.5.5-.5.4-.9.6-.7.4-1 .5-.5.2-.7.2h-.4c-.1 0-.2-.1-.3-.2l-9.4-15.7-4.9 2.9c-.1.1-.2.1-.3.1s-.2-.1-.4-.2c-.1-.1-.3-.2-.4-.4s-.3-.4-.5-.7-.3-.6-.4-.8-.2-.4-.2-.6v-.4c0-.1.1-.2.2-.2l13.7-8.2c.1-.1.2-.1.3-.1s.2.1.3.2.3.2.4.4c.2.2.4.5.6.8zm29.5 6.7c.3.3.5.6.6.8s.2.4.1.6-.2.3-.5.5-.7.4-1.2.6-1 .4-1.3.5-.6.2-.7.2c-.2 0-.3 0-.4-.1s-.2-.1-.3-.3l-3.3-3.5-7.8 3.5.5 4.6v.5c0 .1-.1.3-.2.4s-.3.3-.6.4-.6.3-1.1.5-.9.4-1.2.5-.5.1-.7 0-.3-.2-.3-.5c-.1-.2-.1-.6-.2-1l-1.8-21.3v-.5c0-.1.1-.3.3-.4s.4-.3.7-.5.8-.4 1.3-.6c.6-.3 1.1-.5 1.5-.6s.7-.2.9-.3c.2 0 .4 0 .6.1.1.1.3.2.5.4zm-16.3-11 1 10.1 5.9-2.6zm34.3 4.9c.1.3.2.6.2.9 0 .2.1.4.1.6s0 .3-.1.4-.1.2-.3.2l-9.9 3.2c-.4.1-.7.1-1 0s-.6-.4-.7-.9l-6.4-19.6v-.3c0-.1.1-.2.3-.3.1-.1.4-.2.6-.4.3-.1.6-.3 1-.4s.8-.2 1.1-.3.5-.1.7-.1.3 0 .4.1.2.2.2.3l5.6 17.4 6.8-2.2h.3c.1 0 .2.1.3.2s.2.3.3.5c.3.1.4.4.5.7zm10.7-8.9 1.5 7.8c0 .1 0 .2-.1.3s-.2.2-.3.3c-.2.1-.4.2-.7.3s-.6.2-1.1.3-.8.1-1.1.2h-.7c-.2 0-.3-.1-.4-.2s-.1-.2-.2-.3l-1.5-7.8-8.5-11c-.3-.4-.5-.7-.6-.9s-.1-.4 0-.6c.1-.1.3-.3.7-.4s.8-.2 1.5-.3c.5-.1 1-.2 1.3-.2h.8c.2 0 .3.1.5.2.1.1.2.2.3.3l3.5 5c.3.5.7 1 1 1.5s.7 1.1 1.1 1.7c.1-.7.2-1.3.3-1.9s.2-1.2.4-1.8l1.4-5.9c0-.2.1-.4.1-.5.1-.1.2-.2.3-.3.2-.1.4-.2.7-.3s.7-.2 1.2-.3c.7-.1 1.2-.2 1.5-.3.4 0 .6 0 .8.1s.2.3.2.5c0 .3-.1.6-.2 1.1zm29.7 3.9c.2.4.3.7.3 1 0 .2 0 .4-.1.6-.1.1-.3.2-.7.3-.3 0-.8.1-1.3.1h-1.4c-.3 0-.6 0-.8-.1-.2 0-.3-.1-.4-.2s-.1-.2-.2-.4l-1.8-4.5-8.5.4-1.2 4.5c0 .2-.1.3-.2.4s-.2.2-.4.3-.4.1-.7.2c-.3 0-.7.1-1.2.1h-1.3c-.3 0-.5-.1-.6-.2s-.2-.3-.2-.6c0-.2.1-.6.2-1l5.9-20.5c.1-.2.1-.4.2-.5s.2-.2.4-.3.5-.1.8-.2c.4 0 .8-.1 1.4-.1.7 0 1.2-.1 1.7-.1.4 0 .7 0 1 .1.2.1.4.1.5.3.1.1.2.3.3.5zm-11.3-16-2.7 9.8 6.4-.3zm37.3 18.1c-.1.2-.2.3-.3.5-.1.1-.3.2-.5.2h-.9c-.4 0-.8-.1-1.4-.1-.5 0-.9-.1-1.2-.1s-.6-.1-.8-.1-.4-.1-.6-.2c-.1-.1-.3-.1-.4-.2s-.2-.2-.2-.3-.1-.2-.1-.4l-4.6-20.7c-.1-.4-.1-.8-.1-1s.1-.4.2-.5c.2-.1.4-.2.8-.1.3 0 .8 0 1.5.1.5.1 1 .1 1.3.2s.5.1.7.2.3.2.3.3c.1.1.1.3.1.5l3.7 18 7.2-16.8c.1-.2.1-.3.2-.5.1-.1.2-.2.4-.2.2-.1.4-.1.7-.1s.7 0 1.3.1c.5.1 1 .1 1.2.2.3.1.5.2.6.3s.1.3 0 .6c-.1.2-.2.6-.4.9zm29.7 5.3c0 .4.1.8 0 1 0 .2-.1.4-.3.5s-.4.1-.7.1-.8-.1-1.3-.3c-.6-.1-1-.3-1.4-.3-.3-.1-.6-.2-.7-.3-.2-.1-.3-.2-.3-.3s-.1-.2-.1-.4l-.5-4.8-8.3-1.9-2.4 4c-.1.1-.2.3-.3.4s-.2.1-.4.2h-.7c-.3 0-.7-.1-1.2-.2s-.9-.2-1.2-.3-.5-.2-.6-.4-.1-.4 0-.6.3-.5.5-.9l11.4-18.1c.1-.2.2-.3.3-.4s.3-.2.5-.2.5 0 .9.1.8.2 1.4.3c.7.2 1.2.3 1.6.4s.7.2.9.3.3.2.4.4c.1.1.1.3.1.6zm-6.4-18.6-5.3 8.7 6.3 1.4zm24.4 25.2c-.1.3-.2.6-.4.8-.1.2-.2.4-.3.5s-.2.2-.3.2h-.3l-9.7-3.7c-.4-.1-.6-.4-.8-.7s-.2-.7 0-1.2l7.4-19.3c0-.1.1-.2.2-.3s.3-.1.4-.1c.2 0 .4 0 .7.1s.6.2 1.1.3c.4.2.8.3 1 .5.3.1.5.3.6.4s.2.2.3.3v.3l-6.5 17.1 6.7 2.6c.1 0 .2.1.3.2s.1.2.1.4 0 .4-.1.6c-.1.4-.2.6-.4 1zm9.1 6.2c0 .1-.1.2-.2.2-.1.1-.3.1-.4 0-.2 0-.4-.1-.7-.2s-.6-.2-1-.4-.7-.4-1-.5c-.3-.2-.4-.3-.6-.4-.1-.1-.2-.2-.2-.4v-.3l9.4-19.3c0-.1.1-.2.2-.2.1-.1.3-.1.4 0 .2 0 .4.1.7.2s.6.2 1 .4.7.4 1 .5c.2.2.4.3.6.4.1.1.2.3.2.4v.3zm11.6-23.6c-.4.7-.8 1.2-1.2 1.3-.5.1-1.1 0-1.9-.4s-1.3-.8-1.5-1.3c-.2-.4-.1-1 .3-1.7.4-.8.8-1.2 1.2-1.3.5-.1 1.1 0 2 .4.8.4 1.3.8 1.5 1.3.1.4 0 1-.4 1.7zm6.9 32.8c-.2.3-.3.5-.5.7-.1.2-.3.3-.4.4s-.3.2-.4.2-.2 0-.3-.1l-8.9-5.4c-.3-.2-.6-.5-.7-.8s0-.7.2-1.2l10.6-17.7c.1-.1.1-.2.3-.2h.4c.2 0 .4.1.7.2s.6.3 1 .5.7.4.9.6.4.3.5.5c.1.1.2.3.2.4s0 .2-.1.3l-9.4 15.7 6.1 3.7c.1.1.2.1.2.2v.4c0 .2-.1.3-.2.6.1.4 0 .7-.2 1zm7.3 8c-.1.1-.2.1-.3.2-.1 0-.3 0-.4-.1-.2-.1-.4-.2-.6-.3-.3-.2-.6-.4-.9-.7s-.6-.5-.8-.7-.4-.4-.5-.6-.2-.3-.2-.4 0-.2.1-.3l13.5-16.7c.1-.1.2-.1.3-.2.1 0 .3 0 .4.1l.6.3c.3.2.6.4.9.7.4.3.6.5.8.7s.4.4.5.6.2.3.1.4c0 .1 0 .2-.1.3zm16.7-20.3c-.5.6-1 1-1.5 1s-1.1-.2-1.8-.8-1.1-1.1-1.2-1.6.2-1 .7-1.6c.5-.7 1-1 1.5-1s1.1.2 1.8.8 1.1 1.1 1.2 1.6c0 .4-.2.9-.7 1.6zm15.9 26.3c-.2.2-.5.4-.7.6-.2.1-.4.3-.5.3-.1.1-.3.1-.4.1s-.2-.1-.2-.1c-.1-.1-.2-.4-.3-.8s-.2-.9-.4-1.5-.5-1.2-.9-1.9-.9-1.4-1.6-2.2c-.8-.8-1.6-1.4-2.5-1.8s-1.8-.6-2.7-.6-1.9.2-2.8.6-1.9 1-2.7 1.8c-.9.9-1.7 1.8-2.2 2.7s-.8 1.8-.8 2.8c-.1.9.1 1.8.4 2.7s.9 1.7 1.6 2.5c.4.4.7.7 1.2 1 .4.3.9.5 1.3.7l3.9-3.6-2.9-3.1c-.1-.2-.2-.4 0-.6.1-.3.4-.6.9-1 .2-.2.5-.4.6-.5.2-.1.3-.2.5-.3.1-.1.3-.1.4-.1s.2.1.3.1l5.2 5.6c.1.1.2.3.3.4 0 .1.1.3.1.5s-.1.3-.2.5-.2.3-.4.5l-6.6 6.2c-.3.2-.5.4-.8.5s-.6 0-1-.1c-.4-.2-.8-.4-1.3-.7s-1-.6-1.5-1-1-.7-1.4-1.2c-.5-.4-.9-.8-1.3-1.3-1.2-1.3-2.2-2.7-2.8-4.1s-.9-2.8-.8-4.2c0-1.4.4-2.8 1.1-4.1.7-1.4 1.7-2.7 3-3.9 1.4-1.3 2.8-2.2 4.2-2.8 1.5-.6 2.9-.9 4.4-.8 1.5 0 2.9.4 4.3 1.1s2.7 1.7 3.9 3c.7.7 1.2 1.4 1.7 2.1.4.7.8 1.3 1.1 1.9s.5 1.1.6 1.5.2.8.1 1c0 .2-.1.5-.3.7-.4.2-.7.5-1.1.9zm5-9.2c-.5.5-1.1.9-1.7 1.1s-1.2.3-1.8.3-1.2-.2-1.8-.6c-.6-.3-1.2-.8-1.8-1.4-.6-.7-1.1-1.3-1.4-2-.3-.6-.4-1.3-.4-1.9s.2-1.2.5-1.7c.3-.6.7-1.1 1.2-1.6.2-.2.4-.2.6-.1s.5.3.9.8c.4.4.6.7.7 1 .1.2.1.4-.1.6-.1.2-.3.4-.4.7-.2.3-.2.6-.3.8 0 .3 0 .5.1.8s.3.5.6.8c.3.4.7.6 1.1.7s.7.1 1 0 .6-.2.8-.4.5-.2.7-.2c.2.1.5.3.9.7s.6.8.7 1 .1.4-.1.6zm-10.9 31.8c-.1.1-.2.1-.3.1s-.3-.1-.4-.2c-.2-.1-.3-.3-.5-.5s-.4-.5-.7-.9-.5-.7-.6-.9c-.2-.3-.3-.5-.3-.7-.1-.2-.1-.3 0-.4 0-.1.1-.2.2-.3l17.1-12.9c.1-.1.2-.1.3-.1s.3.1.4.2c.2.1.3.3.5.5s.4.5.7.9.5.7.6.9c.1.3.3.5.3.6.1.2.1.3 0 .4 0 .1-.1.2-.2.3zm21.1-15.7c-.7.5-1.2.7-1.7.6s-1-.5-1.6-1.2-.8-1.4-.8-1.8c0-.5.4-.9 1-1.4.7-.5 1.2-.7 1.7-.6s1 .5 1.6 1.2.8 1.4.8 1.8c0 .5-.3.9-1 1.4z" fill-rule="nonzero"/></g></svg>