<svg clip-rule="evenodd" fill-rule="evenodd" stroke-linejoin="round" stroke-miterlimit="2" viewBox="0 0 560 400" xmlns="http://www.w3.org/2000/svg" xmlns:xlink="http://www.w3.org/1999/xlink"><clipPath id="a"><path clip-rule="evenodd" d="m7336.56 2381.21h271.093v296.861h-271.093z"/></clipPath><clipPath id="b"><path clip-rule="evenodd" d="m7314.23 2571.28h308.478v132.851h-308.478z"/></clipPath><g transform="matrix(.836206 0 0 .836206 -5965.18 -1926.18)"><path d="m7565.2 2382.3 33.66 37.55s-13.15 21.02-17.29 46.37c-5.52 33.72 2.18 61.32 7.73 84.49 15.05 63.31-59.69 82.85-87.86 93.12-26.28 9.57-33.79 26.12-33.79 26.12s-6.07-16.01-32.32-25.6c-28.2-10.21-102.94-29.82-87.86-93.1 5.52-23.16 13.22-50.79 7.74-84.45-4.14-25.36-16.18-46.95-16.18-46.95l33.09-37.55z" fill="#fff"/><g clip-path="url(#a)"><path d="m7340.35 2420.01c2.09 3.91 12.22 23.87 15.92 46.62 5.16 31.48-1.03 57.19-6.52 79.84-.42 1.74-.8 3.41-1.19 5.04-3.2 13.29-2.47 25.54 2.09 36.36 3.92 9.27 10.72 17.81 20.28 25.32 17.59 13.86 41.23 21.98 56.86 27.4 2.89 1 5.59 1.9 7.9 2.73 21.21 7.73 29.49 19.51 32.05 24.23.29-.55.71-1.19 1.13-1.86v4.23c-.13.32-.23.51-.23.51l-1.09 2.38-.93-2.44c0-.06-1.51-3.95-6.16-8.98-4.3-4.63-12.22-11.14-25.54-15.95-2.31-.87-5.01-1.8-7.83-2.79-15.79-5.43-39.66-13.64-57.51-27.7-21.47-16.94-29.26-38.41-23.17-63.98.39-1.64.77-3.31 1.19-5.01 5.46-22.46 11.59-47.94 6.48-78.97-4.07-24.87-15.91-46.37-16.04-46.56l-.35-.74 33.91-38.48h97.27v2.22h-96.27zm128.52 245.68c3.88-5.55 13.22-15.99 32.18-22.88 2.35-.87 5.04-1.8 7.93-2.8 15.63-5.35 39.28-13.5 56.86-27.37 9.57-7.54 16.37-16.04 20.28-25.32 4.56-10.81 5.23-23.1 2.09-36.39-.39-1.63-.77-3.3-1.22-5-5.46-22.66-11.68-48.36-6.55-79.87 3.76-22.69 14.7-42.14 17.01-46.08l-32.73-36.55h-95.85v-2.22h96.81l34.53 38.54-.45.71c-.13.19-13.06 21.11-17.1 45.98-5.07 31.03 1.06 56.51 6.48 78.97.45 1.71.83 3.37 1.22 5.01 6.06 25.54-1.7 47.04-23.14 63.96-17.9 14.05-41.71 22.3-57.53 27.72-2.86 1-5.56 1.89-7.9 2.79-13.28 4.85-21.6 11.52-26.22 16.27-3.97 4.11-6 7.48-6.7 8.76z" fill="#0068b3"/></g><path d="m7376.48 2387.92-27.53 30.93s15.4 34.76 15.4 60.2c0 27.05-5.42 58.34-9.37 72.85-9.18 33.66 19.83 64.24 72.08 79.68 31.19 9.27 40.81 22.46 40.81 22.46s13.67-14.28 43.29-23.94c52.18-16.91 79.39-43.77 69.86-78.2-4.01-14.44-9.4-45.8-9.4-72.85 0-25.44 15.43-60.2 15.43-60.2l-27.56-30.93z" fill="#fff"/><path d="m7350.23 2419.05c2.09 4.94 15.25 36.55 15.25 60 0 28.18-5.78 59.82-9.41 73.13-4.36 15.99.04 31.81 12.74 45.64 12.68 13.83 32.89 25.12 58.57 32.73 26.66 7.89 37.67 18.58 40.59 21.85l.03-.03v3.14l-.22.29-.8-1.09c-.16-.22-9.95-13.09-40.24-22.05-26.03-7.73-46.63-19.22-59.56-33.37-13.26-14.44-17.84-30.9-13.26-47.68 3.63-13.22 9.34-44.61 9.34-72.56 0-24.87-15.18-59.4-15.34-59.75l-.29-.64 28.4-31.83h91.97v2.21h-91.01zm117.77 233.32c3.56-3.34 17.2-14.99 42.84-23.3 26.35-8.57 45.73-19.41 57.6-32.28 12.16-13.16 16.05-28.21 11.49-44.61-3.66-13.06-9.43-44.5-9.43-73.13 0-23.45 13.15-55.06 15.24-60l-26.73-30.01h-91.01v-2.21h92l28.37 31.83-.32.64c-.13.36-15.31 34.88-15.31 59.75 0 28.37 5.71 59.59 9.31 72.53 4.78 17.2.77 32.92-11.97 46.72-12.16 13.15-31.87 24.23-58.56 32.89-29.05 9.4-42.75 23.49-42.88 23.65l-.64.67z" fill="#0068b3"/><path d="m7582.18 2434.16c1.47-3.82.06-2.12 3.01-8.86 1.86-4.14 2.15-6.51 2.15-6.51l-26.66-32.12-184.04.25-28.65 32.25s2.18 3.95 4.04 8.12c1.83 4.17.35 1.32 2.57 7z" fill="#0068b3"/><path d="m7578.84 2443.34-222 .09v-2.24l222.8-.07z" fill="#0068b3"/><path d="m7468.1 2608.89c18.13 0 33.85 6.64 33.85 14.92 0 7.44-15.72 14.05-33.85 14.05-18.2 0-33.92-6.61-33.92-14.05 0-8.28 15.72-14.92 33.92-14.92" fill="#0068b3"/><g clip-path="url(#b)"><path d="m7468.68 2703.26c12.86-.35 23.36-2.53 36.55-10.1 40.27-23.01 54.96-32.77 54.96-32.77s2.41 5.14 12.17 6.26c8.89.99 14.86-3.66 17.97-11.43 4.27-10.49 4.43-32.76 4.43-32.76s11.39.36 21.69-8.82c6.8-6.1 5.94-10.43 4.01-13.26-2.37-3.49-5.14-.93-5.14-.93v-4.2c0-2.05-16.14-19.16-16.14-19.16s-2.05-1.18-6.25-.77c-13.26 1.48-20.44 15.15-23.17 26.54-2.02 8.34-2.95 15.28-6.97 21.37-3.56 5.23-7.02 6.61-7.02 6.61s0-3.27-6.58-4.43c-11.55-2.02-21.69 8.83-43.77 22.47-17.27 10.65-21.15 12.67-36.74 13.99h-.49c-15.59-1.32-19.44-3.34-36.74-13.99-22.04-13.64-35.07-23.59-43.74-22.47-6.64.87-6.61 4.43-6.61 4.43s-3.46-1.38-6.99-6.61c-4.01-6.09-4.95-13.03-6.97-21.37-2.76-11.39-9.91-25.06-23.16-26.54-4.24-.41-6.26.77-6.26.77s-16.14 17.11-16.14 19.16v4.2s-2.76-2.56-5.14.93c-1.92 2.83-2.79 7.16 4.01 13.26 10.3 9.17 21.7 8.82 21.7 8.82s.16 22.27 4.42 32.76c3.08 7.77 9.09 12.42 17.97 11.43 9.76-1.12 12.17-6.26 12.17-6.26s14.66 9.76 54.97 32.77c13.15 7.57 23.68 9.75 36.51 10.1z" fill="#fff"/><path d="m7376.39 2659.17.8.51c.09.13 15.11 10.05 54.87 32.77 13.74 7.83 24.39 9.66 36.2 9.98h.19v1.67h-.22c-12.07-.36-22.98-2.22-37-10.21-35.05-20.02-50.87-30.13-54.27-32.34-1.15 1.6-4.46 5.04-12.29 5.93-.83.1-1.67.13-2.47.13-7.57 0-13.22-4.17-16.4-12.06-3.85-9.57-4.42-28.12-4.46-32.25-3.01-.1-12.58-1.13-21.46-9.02-3.6-3.27-5.52-6.39-5.65-9.37v-.77c.06-1.45.57-2.86 1.51-4.21 1.25-1.82 2.59-2.21 3.56-2.21.51 0 1.02.1 1.44.32v-2.79c0-2.15 11.46-14.51 16.4-19.7l.06-.1.13-.06c.04-.07 1.64-.97 4.78-.97.65 0 1.25.03 1.99.13 6.23.67 11.65 3.98 16.05 9.82 3.46 4.56 6.19 10.69 7.8 17.26.38 1.61.74 3.15 1.06 4.63 1.41 6.28 2.63 11.71 5.8 16.49 2.28 3.43 4.56 5.13 5.75 5.84.54-1.35 2.18-3.37 7.03-4.01.48-.03 1.02-.07 1.47-.07 7.09 0 16.5 5.94 30.71 15.02 3.63 2.31 7.77 4.94 12.13 7.67 17.07 10.52 20.79 12.58 36.36 13.83h.19v1.67h-.29c-15.95-1.32-20.09-3.63-37.13-14.12-4.39-2.7-8.53-5.33-12.16-7.64-13.96-8.89-23.23-14.76-29.81-14.76-.42 0-.83.03-1.22.07-5.77.7-5.9 3.46-5.9 3.59l-.04 1.19-1.12-.39c-.16-.09-3.72-1.57-7.35-6.99-3.33-5.04-4.62-10.56-6.06-16.98-.32-1.51-.68-3.05-1.03-4.62-1.35-5.62-6.99-24.16-22.46-25.86-.61-.1-1.22-.1-1.77-.1-2.28 0-3.56.51-3.88.67-7.51 7.96-15.47 17.04-15.82 18.52v6.1l-1.41-1.32s-.81-.67-1.7-.67c-.81 0-1.51.51-2.19 1.47-2.47 3.6-1.18 7.61 3.89 12.17 9.4 8.37 19.83 8.6 20.98 8.6h1v.83c0 .26.19 22.21 4.33 32.44 2.02 5.07 6.29 11.07 14.89 11.07.77 0 1.51-.03 2.28-.16 9.08-1.02 11.46-5.74 11.46-5.77zm92.06 43.26h.19c11.81-.32 22.5-2.15 36.2-9.98 39.76-22.72 54.78-32.64 54.87-32.77l.84-.51.42.87c0 .03 2.37 4.75 11.45 5.77.74.13 1.51.16 2.28.16 8.6 0 12.83-6 14.89-11.07 4.14-10.23 4.33-32.18 4.33-32.44v-.83h1c1.15 0 11.58-.23 20.98-8.6 5.07-4.56 6.36-8.57 3.88-12.16-.67-.97-1.38-1.48-2.18-1.48-.93 0-1.7.67-1.7.7l-1.41 1.22v-6.03c-.35-1.48-8.31-10.56-15.82-18.52-.32-.15-1.6-.67-3.88-.67-.55 0-1.16 0-1.8.1-15.43 1.7-21.08 20.25-22.43 25.86-.39 1.57-.74 3.11-1.06 4.59-1.41 6.45-2.69 11.97-6.03 17.01-3.63 5.42-7.22 6.9-7.38 6.99l-1.16.42v-1.22s-.19-2.6-5.9-3.59c-.9-.16-1.77-.23-2.63-.23-7.03 0-13.96 4.72-24.42 11.94-4.66 3.18-9.92 6.8-16.11 10.62-8.44 5.2-13.87 8.51-19.16 10.59-5.46 2.15-10.75 2.95-17.97 3.53h-.29v-1.67h.19c15.57-1.25 19.26-3.3 36.36-13.83 6.16-3.85 11.43-7.48 16.05-10.59 10.71-7.38 17.81-12.29 25.35-12.29.96 0 1.95.1 2.95.29 4.68.84 6.35 2.76 6.96 4.01 1.19-.7 3.44-2.4 5.78-5.87 3.18-4.78 4.4-10.2 5.81-16.49.32-1.48.67-3.02 1.05-4.62 1.45-5.88 7.35-25.26 23.85-27.09.74-.1 1.35-.13 1.99-.13 3.14 0 4.75.9 4.78.97l.13.06.06.1c4.94 5.2 16.4 17.55 16.4 19.7v2.79c.42-.22.93-.32 1.45-.32.96 0 2.3.39 3.53 2.21 1.02 1.48 1.57 3.02 1.57 4.66-.07 3.08-1.96 6.29-5.72 9.69-8.85 7.89-18.41 8.92-21.43 9.02-.07 4.14-.61 22.68-4.46 32.25-3.21 7.89-8.86 12.06-16.4 12.06-.8 0-1.64-.03-2.47-.13-7.86-.89-11.17-4.33-12.32-5.93-3.37 2.21-19.22 12.32-54.23 32.34-14.03 7.99-24.94 9.86-37 10.21h-.23z" fill="#0068b3"/></g><path d="m7469.93 2666.94c11.84.29 18.19-2.76 42.74-18.23 17.84-11.26 24.52-17.97 36.1-17.39 2.6.09 20.12 20.41 20.12 20.41s-5.42-.61-10.2 1.67c-5.78 2.76-33.63 22.68-54.01 33.4-11.04 5.81-20.02 10.78-34.62 10.49h-.97c-14.57.29-26.66-4.68-37.7-10.49-20.38-10.72-48.23-30.64-54.07-33.4-4.75-2.28-10.18-1.67-10.18-1.67s17.52-20.32 20.16-20.41c11.52-.58 18.22 6.13 36.1 17.39 24.51 15.47 33.92 18.52 45.69 18.23z" fill="#0068b3"/><path d="m7563.02 2659.3s2.76-1.67 6.61-2.6c2.66-.64 4.59.19 4.59.19l5.68 5.91s-4.49.9-8.99 0c-5.48-1.12-7.89-3.5-7.89-3.5" fill="#0068b3"/><path d="m7374.78 2658.37s-2.79-1.67-6.64-2.6c-2.66-.61-4.59.22-4.59.22l-5.68 5.88s4.49.9 8.99 0c5.55-1.09 7.92-3.5 7.92-3.5" fill="#0068b3"/><path d="m7342.34 2581.07-9.4 10.1s5.16 1.29 8.66 5.33c3.5 4.08 8.63 7.38 7.89 27.79-.57 16.75.74 23.97 2.57 28.75 1.86 4.78 3.34 5.52 3.34 5.52l22.98-24.67s-6.2-5.11-8.64-10.66c-5.36-12.06-4.42-17.68-7.92-25.96-3.37-7.96-10.5-16.56-19.48-16.2" fill="#0068b3"/><path d="m7594.44 2581.23 9.37 10.17s-5.14 1.25-8.67 5.33c-3.46 4.04-8.6 7.34-7.86 27.75.58 16.79-.74 23.94-2.6 28.72-1.83 4.82-3.31 5.52-3.31 5.52l-22.97-24.64s5.9-5.2 8.63-10.69c6-11.94 4.43-17.68 7.93-25.96 3.37-7.96 10.49-16.56 19.48-16.2" fill="#0068b3"/><path d="m7594.63 2617.14s0-6.07 3.85-12.52c2.85-4.75 7.63-10.11 9.01-7.19 2.03 4.27-.19 7.58-1.82 11.07-1.06 2.15-1.32 2.95-.77 4.01.57 1.13 2.02 1.51 2.02 1.51s-3.85 1.48-7.16 2.22c-3.3.7-5.13.9-5.13.9" fill="#0068b3"/><path d="m7342.02 2617.2s0-6.03-3.85-12.48c-2.89-4.79-7.61-10.08-8.99-7.16-2.05 4.2.19 7.51 1.83 11.01 1.03 2.15 1.25 2.95.74 4.07-.55 1.09-2.02 1.48-2.02 1.48s3.85 1.47 7.15 2.18c3.31.77 5.14.9 5.14.9" fill="#0068b3"/><path d="m7324.11 2610.62c-1.63 0-3.5-1.89-3.91-2.28l1.25-1.15c.86.9 2.21 1.86 2.76 1.73.09-.03.19-.16.25-.35 1.35-3.82-3.43-8.47-3.46-8.51l1.12-1.18c.23.22 5.62 5.42 3.92 10.26-.39 1-1.03 1.32-1.48 1.42-.16.06-.29.06-.45.06" fill="#0068b3"/><path d="m7612.82 2610.49c-.16 0-.29 0-.45-.03-.45-.1-1.09-.42-1.47-1.41-1.7-4.82 3.69-10.08 3.91-10.27l1.13 1.19c-.04.06-4.82 4.71-3.47 8.53.06.19.19.32.26.36.57.12 1.92-.84 2.76-1.77l1.25 1.12c-.42.39-2.28 2.28-3.92 2.28" fill="#0068b3"/><path d="m7412.36 2644.57-10.88 17.3 9.76 6.25 2.02-2.75-6.07-4.82 8.47-13.41z" fill="#fff"/><path d="m7426.32 2653.94-10.37 17.14 3.37 2.18 10.69-16.94z" fill="#fff"/><path d="m7421.44 2678.52 3.75 2.35 9.05-9.79.29 7.7 2.06.74 3.88-4.59-1.25 8.73 3.59 1.06 3.59-20.41-1.92-.68-5.94 7.74v-8.19l-2.21-.96z" fill="#fff"/><path d="m7446.28 2686 15.02-17.55h1.76l2.92 25.54-4.59.29-.93-7.32-13.38.97z" fill="#fff"/><path d="m7477.24 2668.61-6.48 9.5 5.07 3.88-7.51 11.17 3.56 1.92 10.18-14.21-4.82-3.7 4.14-6.51z" fill="#fff"/><path d="m7490.18 2663.34-4.24 11.59 5.49 1.96-4.56 12.41 4.14 1.35 6.32-16.4-5.36-1.79 2.63-7.86z" fill="#fff"/><path d="m7504.52 2656.41-5.1 13.99 13.38 5.2 5.49-13.25z" fill="#fff"/><path d="m7514.47 2650.93 11.29 17.13 9.92-6.77-2.92-3.47-5.91 4.02-8.69-13.26z" fill="#fff"/><path d="m7507.02 2662.12-2.24 5.65 5.68 2.18 2.05-5.64z" fill="#0068b3"/><path d="m7459.5 2675.76-7.16 8.02 7.7-1.12z" fill="#0068b3"/><path d="m7454.01 2613.83h-2.08l-6.2 7.16 2.6.96 1.96-1.22.13 10.91 3.59.25z" fill="#fff"/><path d="m7460.75 2613.16-6.55 7.73 4.62 4.68-4.26 4.53 1.63 2.76 10.79-12.42z" fill="#fff"/><path d="m7477.4 2614.12-7.6.13-3.66 10.2 2.18.29 3.82-1.67 2.09 2.34-2.38 2.35-2.89-1.51-2.27 2.34 4.49 2.92 2.21-.29 5.36-6.1-5.1-5.64-2.54.96 1.03-2.63 5.39-.13z" fill="#fff"/><path d="m7486.74 2613.67-8.73 13.25 8.89.16v4.53l3.72-.1-.12-11.07h-3.66l-.1 3.47-3.08.12 5.65-8.02z" fill="#fff"/><path d="m7460.4 2617.91-2.25 2.59 2.41 2.25 2.12-2.34z" fill="#0068b3"/><path d="m7374.91 2397.03-16.4 28.05 1.22 2.18 18.07-5.55 3.59 11.49 4.53-1.35-9.5-33.86z" fill="#fff"/><path d="m7392.98 2397.03-1.29 1.38-4.07 33.7 4.52.67 1.64-10.49 14.21-9.25z" fill="#fff"/><path d="m7409.5 2412.08 13.54-12.67h1.51l9.89 14.18v1.64l-12.42 11.36-1.61-.16-11.04-12.71z" fill="#fff"/><path d="m7436.46 2399.44.13 28.11 14.82-.1-.09-4.62h-10.27l.16-23.33z" fill="#fff"/><path d="m7454.17 2399.41.13 28.04 14.79-.03-.09-4.65h-10.24l.16-23.33z" fill="#fff"/><path d="m7466.43 2412.15 13.48-12.71h1.5l9.92 14.25v1.63l-12.42 11.33-1.63-.16-10.98-12.67z" fill="#fff"/><path d="m7501.44 2399.5-3.02.39-7.92 32.95 4.43 1.48 6.03-21.47 5.97 14.15 3.43-.06 2.47-25.96-5.23-.07-1.03 11.87z" fill="#fff"/><path d="m7525.25 2399.5 19.67 1.22-.13 5.46-13.76-1.96v6.51h10.04l.26 4.72-9.53.55.41 16.27-5.03-.26-1.93-32.76z" fill="#fff"/><path d="m7564.11 2398.41-12.55 14.76 12.81 15.5 3.46-3.59-9.66-11.91 9.66-11.58z" fill="#fff"/><path d="m7543.99 2422.83h4.813v4.589h-4.813z" fill="#fff"/><path d="m7570.21 2422.83h4.813v4.589h-4.813z" fill="#fff"/><path d="m7480.03 2406.02-7.44 6.83 6.19 7.35 7.03-6.19z" fill="#0068b3"/><path d="m7422.88 2406.18-7.41 6.67 6.16 7.51 7.03-6.19z" fill="#0068b3"/><path d="m7395.45 2406.56-1.26 9.95 7.19-4.3z" fill="#0068b3"/><path d="m7373.95 2408.07-6.61 11.87 9.24-2.63z" fill="#0068b3"/><path d="m7505.1 2622.11s10.55.9 14.05 0 6.8-3.15 9.02-5.33c3.11-3.14 4.97-4.07 4.97-4.07s-6.61-.9-10.26-.71c-3.73.16-8.12 1.06-11.04 3.31-3.69 2.76-6.74 6.8-6.74 6.8" fill="#0068b3"/><path d="m7517.68 2589.15s-2.15 3.18-4.56 5.81c-3.53 3.79-4.43 6.9-5.9 21.82-.16 1.83-.16 3.66-.16 3.66s7.28-7.12 8.79-11.23c1.83-4.98 2.4-10.11 2.02-13.26-.35-3.11-.19-6.8-.19-6.8" fill="#0068b3"/><path d="m7517.32 2609.98s8.99.7 13.61-.39c4.59-1.09 9.37-2.76 12.68-6.06 3.3-3.31 6.25-6.1 6.25-6.1s-8.85-.32-15.24 1.12c-5.71 1.26-7.89 2.38-11.59 5.68-3.68 3.34-5.71 5.75-5.71 5.75" fill="#0068b3"/><path d="m7525.95 2578.11s-3.75 3.12-5.48 8.28c-3.69 10.88-2.22 22.66-2.22 22.66s6.04-7 7.7-10.85c1.71-3.88 2.61-9.21 1.48-13.06-1.09-3.91-1.48-7.03-1.48-7.03" fill="#0068b3"/><path d="m7531.09 2595.06s7.38-.16 11.23-.39c3.85-.19 7.9-1.25 11.58-5.52 3.66-4.23 6.07-7.38 6.07-7.38s-7.35-.7-13.22.77c-5.9 1.48-7.73 3.5-10.88 6.61-3.11 3.15-4.78 5.91-4.78 5.91" fill="#0068b3"/><path d="m7534.24 2565.79s-4.02 5.3-5.52 11.01c-.94 3.53-.71 11.42 0 14.57.77 3.11.38 5.71.38 5.71s5.71-6.45 6.96-12.9c1.29-6.42.58-9.76-.54-13.06-1.12-3.31-1.28-5.33-1.28-5.33" fill="#0068b3"/><path d="m7532.4 2569.06c-1.18 2.06-2.66 4.88-3.4 7.83-.89 3.37-.77 11.23 0 14.41.45 2.09.52 3.92.42 4.94.68-.83 1.83-2.34 2.99-4.23v1.06c-1.58 2.44-3.05 4.17-3.09 4.2l-.64.68.16-.94s.32-2.53-.38-5.58c-.77-3.24-.9-11.23 0-14.66.9-3.44 2.69-6.68 3.94-8.8zm1.64-2.56c-.35.58-.96 1.44-1.64 2.56v-1.09c.94-1.44 1.61-2.34 1.61-2.34l.45-.58.07.71c0 .03.19 2.05 1.28 5.26 1.03 3.18 1.86 6.58.54 13.22-.64 3.21-2.34 6.39-3.94 8.83v-1.06c1.44-2.25 2.82-5.07 3.4-7.86 1.31-6.55.48-9.85-.51-12.94-.77-2.21-1.1-3.82-1.26-4.71" fill="#0068b3"/><path d="m7541.1 2552.7s-3.3 5.04-3.95 8.82c-.67 3.76 1.77 8.83 1.77 14.57 0 4.82-.19 5.42-1.38 10.59 0 0 7.77-8.6 8.63-14.12.9-5.55-.42-10.4-2.18-14.57-1.76-4.2-2.89-5.29-2.89-5.29" fill="#0068b3"/><path d="m7565.59 2565.05s-6.2.45-11.04 2.44c-4.82 1.99-7.93 8.15-10.11 11.27-2.21 3.08-3.53 4.62-3.53 4.62s7.03-1.99 11.68-3.31c4.62-1.31 6.8-2.85 9.24-7.7 2.44-4.88 3.76-7.32 3.76-7.32" fill="#0068b3"/><path d="m7568.92 2541.47s0 8.12-1.34 12.32c-1.32 4.2-6.81 8.6-8.83 10.17-1.99 1.54-4.75 3.37-4.75 3.37s-1.64-6.03 1.03-11.78c2.63-5.74 3.72-7.09 7.67-9.72 3.98-2.66 6.22-4.36 6.22-4.36" fill="#0068b3"/><path d="m7557.18 2517.27s5.17 4.85 5.01 11.84c-.17 5.97-.39 7.38-2.64 11.11-2.18 3.75-2.85 6.38-2.85 6.38s-2.86-7.25-3.76-13.67c-.86-6.38-.41-8.37.9-11.26 1.35-2.86 3.34-4.4 3.34-4.4" fill="#0068b3"/><path d="m7525.44 2503.7s1.57 6.38 7.96 11.26c4.59 3.47 5.07 3.53 8.15 4.4 2.34.7 4.4.7 4.4.7s1.6-4.42-1.77-8.4c-2.4-2.89-4.94-2.48-8.57-3.57-5.96-1.73-10.17-4.39-10.17-4.39" fill="#0068b3"/><path d="m7525.92 2504.28c.61 1.76 2.6 6.61 7.64 10.42.96.77 1.77 1.35 2.44 1.83v.65c-.77-.49-1.64-1.16-2.79-2.03-6.39-4.84-7.99-11.36-8.02-11.39l-.16-.67.57.35c.04.03 4.24 2.67 10.08 4.4.13.03.19.06.32.09v.58c-.16-.03-.32-.1-.48-.13-4.62-1.38-8.18-3.3-9.6-4.1m10.08 12.25c2.31 1.61 3.15 1.83 5.3 2.48l.35.09c1.83.55 3.53.64 4.11.67.22-.89 1.05-4.58-1.77-7.95-1.7-1.99-3.46-2.35-5.65-2.8-.73-.16-1.51-.28-2.34-.51v-.58c.87.26 1.67.42 2.41.58 2.24.42 4.2.8 6 2.95 3.4 4.05 1.83 8.64 1.83 8.67l-.1.16h-.19c-.07 0-2.15 0-4.46-.64l-.35-.13c-2.09-.58-2.99-.84-5.14-2.34z" fill="#0068b3"/><path d="m7537.6 2521.8s.2 6.16 3.5 11.71c3.34 5.52 6.42 6.64 8.15 8.41 1.8 1.7 3.53 3.69 3.53 3.69s.32-7.93-2.18-12.55-3.53-5.52-7.09-7.73c-3.5-2.22-5.91-3.53-5.91-3.53" fill="#0068b3"/><path d="m7542.58 2539.64s-1.93 2.89-1.32 7.92c.64 5.72 2.41 7.03 4.62 13 2.19 5.97 1.96 11.26 1.96 11.26s5.07-9.01 4.88-13.67c-.23-4.62-1.32-8.18-4.88-12.16-3.53-3.91-5.26-6.35-5.26-6.35" fill="#0068b3"/><path d="m7506.22 2622.04-.35-.41c.16-.2 17.49-17.52 22.88-24.07 5.13-6.13 17.07-20.51 22.68-31.54 1.26-2.38 1.8-7.61 1.61-14.7-.19-5.87-.93-12.58-1.83-17.1-1.83-8.96-3.24-11.75-5.68-14.61l.42-.35c2.82 3.31 4.11 6.64 5.81 14.83 1.6 7.89 3.14 26.41.19 32.18-5.65 11.11-17.62 25.51-22.75 31.64-5.46 6.55-22.79 23.91-22.98 24.13" fill="#0068b3"/><path d="m7554 2551.86-.58-.12c.07-.1.61-2.12 2.28-3.66 2.67-2.54 4.66-3.85 4.66-3.85l.32.41c-.04.04-1.96 1.32-4.62 3.82-1.51 1.45-2.06 3.41-2.06 3.41" fill="#0068b3"/><path d="m7548.1 2521.67-.52-.23 2.03-4.97.51.22z" fill="#0068b3"/><path d="m7536.87 2587.93-.49-.25c1.42-2.86 1.45-9.89 1.45-9.92h.54c0 .29-.03 7.19-1.5 10.17" fill="#0068b3"/><path d="m7552.91 2551.03c-.55-2.92-5.46-6.71-5.49-6.74l.32-.45c.23.16 5.14 3.95 5.68 7.09z" fill="#0068b3"/><path d="m7550.34 2516.5c-.93 0-1.73-.8-1.73-1.7 0-.96.8-1.73 1.73-1.73s1.7.77 1.7 1.73c0 .9-.76 1.7-1.7 1.7" fill="#fff"/><path d="m7550.34 2513.36c-.77 0-1.44.64-1.44 1.44 0 .77.67 1.41 1.44 1.41v.58c-1.09 0-1.95-.93-1.95-1.99 0-1.12.86-1.99 1.95-1.99zm0 0v-.55c1.1 0 1.96.87 1.96 1.99 0 1.06-.86 1.99-1.96 1.99v-.58c.77 0 1.42-.64 1.42-1.41 0-.8-.65-1.44-1.42-1.44" fill="#0068b3"/><path d="m7561.64 2544.61c-.93 0-1.7-.77-1.7-1.7s.77-1.7 1.7-1.7 1.7.77 1.7 1.7-.77 1.7-1.7 1.7" fill="#fff"/><path d="m7561.64 2541.5c-.8 0-1.45.64-1.45 1.41s.65 1.41 1.45 1.41v.58c-1.09 0-1.99-.9-1.99-1.99 0-1.06.9-1.96 1.99-1.96zm0 2.82c.8 0 1.41-.64 1.41-1.41s-.61-1.41-1.41-1.41v-.55c1.12 0 1.99.9 1.99 1.96 0 1.09-.87 1.99-1.99 1.99z" fill="#0068b3"/><path d="m7547.58 2544.03c-.93 0-1.7-.73-1.7-1.63 0-.93.77-1.74 1.7-1.74.97 0 1.7.81 1.7 1.74 0 .9-.73 1.63-1.7 1.63" fill="#fff"/><path d="m7547.58 2540.95c-.8 0-1.44.65-1.44 1.42s.64 1.41 1.44 1.41v.54c-1.09 0-1.99-.86-1.99-1.95 0-1.06.9-1.99 1.99-1.99zm0 0v-.57c1.13 0 1.99.93 1.99 1.99 0 1.09-.86 1.95-1.99 1.95v-.54c.81 0 1.42-.64 1.42-1.41s-.61-1.42-1.42-1.42" fill="#0068b3"/><path d="m7551.76 2582.25c-.9 0-1.7-.74-1.7-1.7 0-.93.8-1.7 1.7-1.7.96 0 1.7.77 1.7 1.7 0 .96-.74 1.7-1.7 1.7" fill="#fff"/><path d="m7551.76 2579.11c-.74 0-1.42.64-1.42 1.44s.68 1.45 1.42 1.45v.54c-1.06 0-1.96-.86-1.96-1.99 0-1.06.9-1.99 1.96-1.99zm0 0v-.55c1.12 0 1.98.93 1.98 1.99 0 1.13-.86 1.99-1.98 1.99v-.54c.8 0 1.44-.64 1.44-1.45 0-.8-.64-1.44-1.44-1.44" fill="#0068b3"/><path d="m7543.99 2524.49c-.93 0-1.7-.74-1.7-1.7s.77-1.7 1.7-1.7c.96 0 1.73.74 1.73 1.7s-.77 1.7-1.73 1.7" fill="#fff"/><path d="m7543.99 2521.35c-.8 0-1.41.64-1.41 1.44s.61 1.45 1.41 1.45v.54c-1.06 0-1.99-.9-1.99-1.99 0-1.12.93-1.99 1.99-1.99zm0 2.89c.8 0 1.44-.65 1.44-1.45s-.64-1.44-1.44-1.44v-.55c1.12 0 1.99.87 1.99 1.99 0 1.09-.87 1.99-1.99 1.99z" fill="#0068b3"/><path d="m7513.02 2619.16s1.51.16 6.42-.9c6.26-1.41 7.51-3.24 7.51-1.96 0 .84-3.14 3.15-6.13 4.27-4.04 1.47-7 1.19-7 1.19z" fill="#fff"/><path d="m7511.55 2616.85c1.57-1.48 4.1-3.02 7.8-3.37 3.68-.39 7.18-.77 9.21-.39 1.28.23.8.93-1.42 1.67-2.18.74-8.15 2.57-11.49 2.73-3.3.19-4.1-.64-4.1-.64" fill="#fff"/><path d="m7534.81 2591.94s4.56-2.79 5.49-3.14c.9-.35 1.28.19 2.73 1.12 1.47.9 1.89.71 2.4-1.12.55-1.83.97-2.18 2.96-3.14 2.02-.94 3.49-.36 4.59-1.48 1.09-1.09 1.86-.71 2.76-1.09.92-.39-2.96-.2-7.71.57-4.78.71-5.52.9-7.18 2.19-1.67 1.28-6.04 6.09-6.04 6.09" fill="#fff"/><path d="m7521.4 2607.38s2.53-1.83 5.49-3.5c2.95-1.64 4.97-2.76 5.51-2.18.52.54.94 1.64.94 1.64s1.47-.39 3.11-1.29c1.67-.93 2.73-1.47 2.73-1.47s-1.8 2.15-.16 1.83c2.47-.45 6.41-2.48 7.38-3.21.9-.74-2.51-.74-6.55-.39-4.04.39-9.56 2.06-11.23 2.6-1.67.55-6.51 4.49-7.22 5.97" fill="#fff"/><path d="m7516.14 2592.65s-4.59 5.07-5.43 7.57c-1.18 3.6-2.11 8.86-2.37 11.14-.35 2.76-.58 6.06-.58 6.06s1.83-6.35 2.76-10.04c.9-3.66 1.38-4.97 2.66-7.99 1.16-2.76 2.96-6.74 2.96-6.74" fill="#fff"/><path d="m7525.25 2579.69s-3.14 3.69-4.04 6.45c-.93 2.72-2.06 8.27-2.22 12.32-.19 4.07-.19 8.57-.19 8.57s1.12-2.8 2.02-5.91c.93-3.14.93-3.85 1.29-8.47.35-4.59 1.12-5.62 1.82-8.63.65-2.6 1.32-4.33 1.32-4.33" fill="#fff"/><path d="m7534.04 2569.1s-.9 2.56-1.12 6.45c-.16 3.85.42 5.16-.16 8.63-.55 3.5-1.25 4.46-1.54 6.16-.39 2.25-.55 3.08-.29 3.24.16.1 2.95-4.27 3.88-8.02 1.06-4.49 1.48-5.97.64-10.65-.7-3.89-1.41-5.81-1.41-5.81" fill="#fff"/><path d="m7531.86 2574.33c.07-1.09.64-4.85.64-4.85s-2.47 5.07-3.05 8.44c-.38 2.44-.54 4.78-.35 7.93.16 3.14.8 7.73.74 6.26-.13-1.77 1.09-4.79 1.83-8.45.41-2.24-.13-5.71.19-9.33" fill="#fff"/><path d="m7540.85 2554.56s-2.57 3.85-2.96 6.8c-.35 2.96.29 4.98.93 8.47.39 2.15.49 3.6.49 3.6l.64 1.12s2.18-1.35.83-7.28c-1.41-5.91-.19-9.85.07-12.71" fill="#fff"/><path d="m7541.68 2556.58c-.71-.22-.64 5.81.16 10.4 1.03 5.61-.9 6.45-.9 7.93 0 1.47 2.05 2.69 3.05.28 1.16-2.95 1.73-4.71 1.35-7.92-.45-4.11-2.09-10.11-3.66-10.69" fill="#fff"/><path d="m7548.23 2576.45s1.25.77 2.18-.36c.93-1.12-.36-2.21.77-3.66 1.06-1.47 2.72.71 3.43-.19.77-.93 2.05-3.3 2.05-3.3s.9.7 2.57 0c1.64-.77 4.59-2.6 4.59-2.6s-7.16.93-10.11 2.6c-2.95 1.63-5.61 4.84-5.97 6.13-.35 1.31-.45.48.49 1.38" fill="#fff"/><path d="m7567.9 2545.25s-1.41 6.55-4.24 9.79c-3.75 4.17-8.21 9.76-8.21 9.76s3.04-1.9 4.36-2.8c1.25-.89 3.66-2.66 5.3-5.42 3.2-5.33 2.21-7.12 2.79-11.33" fill="#fff"/><path d="m7563.28 2546.83s-2.83 1.38-4.88 4.14c-2.02 2.75-4.4 9.69-3.85 10.58.54.94 1.47-3.68 4.59-6.51 5.23-4.81 4.14-8.21 4.14-8.21" fill="#fff"/><path d="m7542.77 2541.82s-.7 2.21-.51 5.17c.16 2.95.73 5.77 2.08 8.28 1.48 2.79 2.28 3.37 2.28 3.37s.39-4.63-.35-8.28c-.71-3.73-3.5-8.54-3.5-8.54" fill="#fff"/><path d="m7545.15 2543.91s2.59 5.32 3.43 9.37c.77 3.78 0 7.18 0 7.18s.35 3.21.7 5.04c.42 1.83 2.12-2.85 2.51-6.86.38-4.08-.39-6.33-2.22-8.86-1.83-2.6-4.42-5.87-4.42-5.87" fill="#fff"/><path d="m7538.53 2524.14s1.19 5.81 2.41 7.93c1.38 2.4 2.12 3.4 5.17 6.06 2.6 2.31 4.94 3.15 4.94 3.15s-2.76-4.43-6.07-8.86c-3.3-4.4-6.45-8.28-6.45-8.28" fill="#fff"/><path d="m7540.49 2524.59 10.11 14.18s1.19-2.21-.48-5.13c-3.82-6.87-9.63-9.05-9.63-9.05" fill="#fff"/><path d="m7556.92 2520.45s1.7 2.21 1.83 4.97c.23 2.76.39 6.65-.35 9.76-.74 3.14-.55 6.35-.55 6.35s2.57-3.37 3.31-8.54c.48-3.24.35-8.11-1.29-10.87-1.47-2.47-2.72-3.79-2.72-3.79s-3.53 3.79-3.73 9.31c-.19 6.19 2.41 14.28 2.41 14.28s-1.35-7.87-.64-13.54c.74-5.72 1.73-7.93 1.73-7.93" fill="#fff"/><path d="m7527.24 2505.27s4.52 3.43 8.63 3.88c4.43.42 5.97 1.57 7.57 2.96 2.96 2.43 1.83 5.74 1.83 5.74s-1.31-2.66-4.42-4.3c-3.12-1.67-3.5-.74-6.97-3.15-3.5-2.37-6.64-5.13-6.64-5.13" fill="#fff"/><path d="m7526.79 2505.91s.83 2.18 2.82 4.59c3.69 4.33 8.06 6.71 12.23 8.12 2.25.71 4.07-.35 0-3.15-4.01-2.75-5.04-2.02-7.6-3.65-2.57-1.67-7.45-5.91-7.45-5.91" fill="#fff"/><path d="m7525.54 2612.8c-.96 0-1.73-.77-1.73-1.7s.76-1.73 1.73-1.73c.93 0 1.7.8 1.7 1.73s-.77 1.7-1.7 1.7" fill="#fff"/><path d="m7525.54 2609.66c-.8 0-1.45.64-1.45 1.41 0 .8.65 1.44 1.45 1.44v.58c-1.09 0-1.99-.9-1.99-2.02 0-1.06.9-1.99 1.99-1.99zm0 2.85c.8 0 1.41-.64 1.41-1.44 0-.77-.61-1.41-1.41-1.41v-.58c1.12 0 1.99.93 1.99 1.99 0 1.12-.87 2.02-1.99 2.02z" fill="#0068b3"/><path d="m7515.98 2612.45-.23-.55c2.22-.89 7.83-1.05 8.06-1.09v.55c-.04 0-5.72.16-7.83 1.09" fill="#0068b3"/><path d="m7541.26 2598.46c-.96 0-1.73-.8-1.73-1.7 0-.23.07-.48.13-.68.29-.61.86-1.05 1.6-1.05.93 0 1.7.77 1.7 1.73 0 .9-.77 1.7-1.7 1.7" fill="#fff"/><path d="m7541.26 2595.31c-.61 0-1.12.33-1.31.9-.1.13-.13.36-.13.55 0 .8.64 1.44 1.44 1.44v.55c-1.12 0-1.99-.93-1.99-1.99 0-.29.04-.55.16-.8.32-.71 1.03-1.19 1.83-1.19zm0 2.89c.81 0 1.41-.64 1.41-1.44s-.61-1.45-1.41-1.45v-.54c1.06 0 1.99.87 1.99 1.99 0 1.06-.93 1.99-1.99 1.99z" fill="#0068b3"/><path d="m7526.73 2600.77-.39-.39c.1-.09 2.38-2.18 8.02-3.3 4.5-.87 5.36-.29 5.55-.1l-.48.36s-.8-.55-4.94.28c-5.49 1.1-7.76 3.15-7.76 3.15" fill="#0068b3"/><path d="m7539.85 2584.82-.22-.51c.03 0 2.34-1.13 5.29-2.06 3.85-1.18 5.33-1.18 5.39-1.18v.54c-.03 0-1.51 0-5.23 1.19-2.92.9-5.17 2.02-5.23 2.02" fill="#0068b3"/><path d="m7546.33 2575.61-.51-.16c0-.03 1.28-3.79.99-7.8-.16-2.34-.7-5.1-.7-5.13l.51-.13c0 .07.61 2.82.77 5.23.26 4.14-.99 7.83-1.06 7.99" fill="#0068b3"/><path d="m7549.54 2570.57-.26-.51s1.29-.64 3.15-2.09c1.8-1.41 2.05-2.15 2.05-2.15l.52.13c0 .07-.26.93-2.22 2.47-1.92 1.48-3.21 2.09-3.24 2.15" fill="#0068b3"/><path d="m7553.33 2568.13-.29-.48 3.11-1.92.26.48z" fill="#0068b3"/><path d="m7557.76 2566.98c-.9 0-1.7-.77-1.7-1.7 0-.96.8-1.73 1.7-1.73.96 0 1.73.77 1.73 1.73 0 .93-.77 1.7-1.73 1.7" fill="#fff"/><path d="m7557.76 2563.83c-.74 0-1.42.64-1.42 1.45 0 .77.68 1.41 1.42 1.41v.58c-1.06 0-1.96-.9-1.96-1.99 0-1.13.9-1.99 1.96-1.99zm0 0v-.54c1.12 0 1.99.87 1.99 1.99 0 1.09-.87 1.99-1.99 1.99v-.58c.8 0 1.44-.64 1.44-1.41 0-.81-.64-1.45-1.44-1.45" fill="#0068b3"/><path d="m7545.95 2562.55c-.97 0-1.7-.74-1.7-1.7s.73-1.7 1.7-1.7c.9 0 1.7.74 1.7 1.7s-.8 1.7-1.7 1.7" fill="#fff"/><path d="m7545.95 2559.41c-.8 0-1.42.64-1.42 1.44s.62 1.44 1.42 1.44v.55c-1.13 0-1.99-.87-1.99-1.99s.86-1.99 1.99-1.99zm0 2.88c.8 0 1.44-.64 1.44-1.44s-.64-1.44-1.44-1.44v-.55c1.09 0 1.99.87 1.99 1.99s-.9 1.99-1.99 1.99z" fill="#0068b3"/><path d="m7538.37 2577.76c-.93 0-1.7-.8-1.7-1.7 0-.96.77-1.73 1.7-1.73.97 0 1.74.77 1.74 1.73 0 .9-.77 1.7-1.74 1.7" fill="#fff"/><path d="m7538.37 2574.58c-.77 0-1.41.68-1.41 1.48 0 .74.64 1.44 1.41 1.44v.52c-1.09 0-1.98-.9-1.98-1.96 0-1.12.89-1.99 1.98-1.99zm0 0v-.51c1.1 0 1.99.87 1.99 1.99 0 1.06-.89 1.96-1.99 1.96v-.52c.81 0 1.45-.7 1.45-1.44 0-.8-.64-1.48-1.45-1.48" fill="#0068b3"/><path d="m7556.92 2544.45s-.35 1.8-1.73 3.66c-1.12 1.48-1.77 2.5-1.77 2.5z" fill="#0068b3"/><path d="m7553.68 2550.74-.48-.29c.03 0 .67-1.02 1.8-2.5 1.34-1.8 1.66-3.53 1.66-3.59l.55.12c-.03.1-.35 1.86-1.8 3.79-1.09 1.48-1.73 2.47-1.73 2.47" fill="#0068b3"/><path d="m7553.1 2521.99c-.93 0-1.7-.74-1.7-1.7 0-.93.77-1.7 1.7-1.7s1.74.77 1.74 1.7c0 .96-.81 1.7-1.74 1.7" fill="#fff"/><path d="m7553.1 2518.84c-.77 0-1.41.65-1.41 1.45s.64 1.44 1.41 1.44v.55c-1.09 0-1.99-.87-1.99-1.99 0-1.06.9-1.99 1.99-1.99zm0 2.89c.81 0 1.45-.64 1.45-1.44s-.64-1.45-1.45-1.45v-.54c1.09 0 1.99.93 1.99 1.99 0 1.12-.9 1.99-1.99 1.99z" fill="#0068b3"/><path d="m7549.77 2529.34c-.07-.1-2.15-1.61-3.21-2.79-1.16-1.26-1.61-2.35-1.64-2.41l.51-.19s.45 1.09 1.51 2.18c1.09 1.22 3.15 2.76 3.18 2.76z" fill="#0068b3"/><path d="m7550.22 2527.89-.52-.13c.04-.15.71-3.17 1.19-4.46.48-1.31.9-1.98.96-1.98l.42.32s-.42.64-.87 1.83c-.45 1.28-1.18 4.39-1.18 4.42" fill="#0068b3"/><path d="m7431.19 2621.63s-10.58.96-14.05 0c-3.5-.9-6.8-3.12-9.02-5.33-3.11-3.11-4.94-4.01-4.94-4.01s6.58-.96 10.27-.77 8.09 1.12 11.01 3.3c3.72 2.8 6.73 6.81 6.73 6.81" fill="#0068b3"/><path d="m7418.62 2588.7s2.15 3.15 4.55 5.78c3.53 3.79 4.43 6.93 5.91 21.82.16 1.86.16 3.69.16 3.69s-7.29-7.12-8.8-11.23c-1.83-4.98-2.4-10.14-2.02-13.22.36-3.18.19-6.84.19-6.84" fill="#0068b3"/><path d="m7418.97 2609.5s-8.99.74-13.61-.36c-4.59-1.12-9.37-2.76-12.67-6.09-3.31-3.31-6.26-6.07-6.26-6.07s8.86-.35 15.27 1.13c5.68 1.28 7.87 2.4 11.59 5.67 3.66 3.31 5.68 5.72 5.68 5.72" fill="#0068b3"/><path d="m7410.34 2577.63s3.78 3.15 5.48 8.28c3.69 10.88 2.22 22.66 2.22 22.66s-6.03-7-7.7-10.85c-1.67-3.88-2.6-9.21-1.48-13.06 1.12-3.88 1.48-7.03 1.48-7.03" fill="#0068b3"/><path d="m7405.2 2594.61s-7.38-.2-11.23-.39-7.89-1.28-11.58-5.52c-3.66-4.27-6.07-7.35-6.07-7.35s7.38-.76 13.22.71c5.91 1.48 7.74 3.5 10.88 6.64 3.11 3.12 4.78 5.91 4.78 5.91" fill="#0068b3"/><path d="m7402.06 2565.31s4.01 5.3 5.52 11.07c.93 3.5.73 11.42 0 14.54-.77 3.14-.39 5.71-.39 5.71s-5.71-6.45-6.96-12.9c-1.29-6.45-.58-9.76.54-13.06 1.13-3.34 1.29-5.36 1.29-5.36" fill="#0068b3"/><path d="m7395.19 2552.22s3.3 5.1 3.95 8.82c.67 3.76-1.74 8.83-1.74 14.57 0 4.85.16 5.46 1.35 10.59 0 0-7.76-8.6-8.63-14.09-.9-5.52.42-10.39 2.18-14.6 1.8-4.17 2.89-5.29 2.89-5.29" fill="#0068b3"/><path d="m7370.74 2564.6s6.16.42 11 2.41c4.82 1.99 7.93 8.18 10.11 11.26 2.25 3.12 3.56 4.66 3.56 4.66s-7.05-1.96-11.71-3.34c-4.62-1.32-6.8-2.86-9.24-7.7-2.44-4.88-3.72-7.29-3.72-7.29" fill="#0068b3"/><path d="m7367.37 2540.99s0 8.11 1.38 12.32c1.31 4.2 6.8 8.63 8.79 10.17s4.75 3.4 4.75 3.4 1.64-6.03-1.03-11.81c-2.63-5.71-3.72-7.02-7.67-9.72-3.98-2.6-6.22-4.36-6.22-4.36" fill="#0068b3"/><path d="m7379.11 2516.82s-5.16 4.82-5 11.81c.16 6 .38 7.38 2.63 11.17 2.18 3.69 2.86 6.35 2.86 6.35s2.85-7.25 3.75-13.64c.87-6.41.42-8.4-.9-11.26-1.35-2.92-3.34-4.43-3.34-4.43" fill="#0068b3"/><path d="m7410.85 2503.22s-1.54 6.38-7.96 11.26c-4.59 3.5-5.07 3.53-8.15 4.4-2.34.7-4.39.7-4.39.7s-1.58-4.43 1.76-8.41c2.41-2.85 4.97-2.47 8.6-3.53 5.97-1.76 10.14-4.42 10.14-4.42" fill="#0068b3"/><path d="m7398.72 2521.32s-.23 6.22-3.5 11.71c-3.37 5.52-6.42 6.64-8.18 8.4-1.8 1.74-3.53 3.73-3.53 3.73s-.32-7.93 2.18-12.58c2.5-4.56 3.53-5.49 7.09-7.7 3.5-2.22 5.94-3.56 5.94-3.56" fill="#0068b3"/><path d="m7393.75 2539.16s1.89 2.92 1.28 7.92c-.64 5.72-2.41 7.1-4.59 13.06-2.21 5.94-1.99 11.27-1.99 11.27s-5.07-9.08-4.88-13.71c.26-4.65 1.32-8.21 4.88-12.19 3.53-3.91 5.3-6.35 5.3-6.35" fill="#0068b3"/><path d="m7430.07 2621.56c-.19-.16-17.52-17.55-22.97-24.1-5.14-6.16-17.11-20.57-22.76-31.64-2.95-5.81-1.41-24.29.2-32.15 1.7-8.25 2.98-11.55 5.8-14.86l.45.35c-2.47 2.89-3.88 5.65-5.71 14.57-.9 4.56-1.6 11.24-1.83 17.14-.19 7.06.36 12.29 1.61 14.73 5.61 10.97 17.55 25.35 22.68 31.51 5.43 6.55 22.72 23.88 22.88 24.04z" fill="#0068b3"/><path d="m7382.32 2551.41c0-.03-.58-1.98-2.08-3.43-2.67-2.47-4.59-3.78-4.63-3.78l.33-.46c0 .04 1.99 1.35 4.65 3.86 1.64 1.54 2.25 3.59 2.25 3.65z" fill="#0068b3"/><path d="m7386.46 2516.12 2.02 4.97z" fill="#0068b3"/><path d="m7388.19 2521.19-2.02-4.98.52-.19 2.02 4.97z" fill="#0068b3"/><path d="m7399.43 2587.45c-1.48-2.95-1.51-9.88-1.51-10.17h.54c0 .1.04 7.06 1.45 9.92z" fill="#0068b3"/><path d="m7383.41 2550.55-.54-.1c.54-3.11 5.45-6.93 5.68-7.09l.32.45c-.03.03-4.94 3.85-5.46 6.74" fill="#0068b3"/><path d="m7385.98 2516.02c.9 0 1.7-.74 1.7-1.7s-.8-1.73-1.7-1.73c-.96 0-1.73.77-1.73 1.73s.77 1.7 1.73 1.7" fill="#fff"/><path d="m7385.98 2512.88c-.8 0-1.44.64-1.44 1.44s.64 1.44 1.44 1.44v.55c-1.12 0-1.99-.87-1.99-1.99 0-1.09.87-1.99 1.99-1.99zm0 2.88c.74 0 1.41-.64 1.41-1.44s-.67-1.44-1.41-1.44v-.55c1.06 0 1.99.9 1.99 1.99 0 1.12-.93 1.99-1.99 1.99z" fill="#0068b3"/><path d="m7374.65 2544.16c.93 0 1.74-.8 1.74-1.67 0-.96-.81-1.7-1.74-1.7s-1.7.74-1.7 1.7c0 .87.77 1.67 1.7 1.67" fill="#fff"/><path d="m7374.65 2541.02c-.8 0-1.41.67-1.41 1.47 0 .71.61 1.42 1.41 1.42v.54c-1.09 0-1.99-.93-1.99-1.96 0-1.12.9-1.99 1.99-1.99zm0 0v-.52c1.09 0 1.99.87 1.99 1.99 0 1.03-.9 1.96-1.99 1.96v-.54c.8 0 1.45-.71 1.45-1.42 0-.8-.65-1.47-1.45-1.47" fill="#0068b3"/><path d="m7388.71 2543.62c.96 0 1.7-.8 1.7-1.67 0-.96-.74-1.73-1.7-1.73-.93 0-1.7.77-1.7 1.73 0 .87.77 1.67 1.7 1.67" fill="#fff"/><path d="m7388.71 2540.5c-.81 0-1.41.65-1.41 1.45 0 .74.61 1.38 1.41 1.38v.58c-1.12 0-1.99-.94-1.99-1.96 0-1.12.87-1.99 1.99-1.99zm0 2.83c.8 0 1.44-.64 1.44-1.38 0-.8-.64-1.45-1.44-1.45v-.54c1.09 0 1.99.87 1.99 1.99 0 1.02-.9 1.96-1.99 1.96z" fill="#0068b3"/><path d="m7384.54 2581.84c.9 0 1.7-.81 1.7-1.74s-.81-1.7-1.7-1.7c-.97 0-1.7.77-1.7 1.7s.73 1.74 1.7 1.74" fill="#fff"/><path d="m7384.54 2578.69c-.8 0-1.45.64-1.45 1.41 0 .81.64 1.45 1.45 1.45v.54c-1.13 0-1.99-.9-1.99-1.99s.86-1.99 1.99-1.99zm0 2.86c.77 0 1.44-.64 1.44-1.45 0-.77-.67-1.41-1.44-1.41v-.58c1.06 0 1.95.9 1.95 1.99s-.89 1.99-1.95 1.99z" fill="#0068b3"/><path d="m7392.3 2524.04c.97 0 1.7-.77 1.7-1.73 0-.9-.74-1.7-1.7-1.7s-1.7.8-1.7 1.7c0 .96.74 1.73 1.7 1.73" fill="#fff"/><path d="m7392.3 2520.9c-.8 0-1.44.64-1.44 1.41 0 .8.64 1.44 1.44 1.44v.55c-1.12 0-1.99-.87-1.99-1.99 0-1.06.87-1.99 1.99-1.99zm0 2.85c.8 0 1.41-.64 1.41-1.44 0-.77-.61-1.41-1.41-1.41v-.58c1.06 0 1.99.93 1.99 1.99 0 1.12-.93 1.99-1.99 1.99z" fill="#0068b3"/><path d="m7423.27 2618.68s-1.51.22-6.42-.9c-6.26-1.35-7.51-3.25-7.51-1.93 0 .83 3.15 3.15 6.13 4.24 4.04 1.47 7 1.18 7 1.18z" fill="#fff"/><path d="m7424.74 2616.43c-1.57-1.48-4.1-3.08-7.79-3.44-3.69-.35-7.19-.7-9.21-.35-1.25.23-.8.9 1.41 1.64 2.18.74 8.15 2.57 11.46 2.79 3.33.16 4.13-.64 4.13-.64" fill="#fff"/><path d="m7401.48 2591.46s-4.56-2.76-5.49-3.14c-.9-.35-1.28.19-2.72 1.12-1.48.9-1.9.74-2.41-1.12-.55-1.83-.96-2.18-2.95-3.12-2.03-.89-3.5-.35-4.59-1.47s-1.83-.74-2.76-1.12c-.93-.36 2.95-.2 7.7.57 4.78.71 5.52.93 7.19 2.19 1.66 1.31 6.03 6.09 6.03 6.09" fill="#fff"/><path d="m7414.89 2606.9s-2.53-1.83-5.48-3.47c-2.92-1.67-4.98-2.79-5.52-2.21-.52.54-.93 1.67-.93 1.67s-1.48-.36-3.12-1.32c-1.67-.93-2.73-1.47-2.73-1.47s1.8 2.14.17 1.86c-2.47-.49-6.42-2.51-7.38-3.21-.9-.77 2.53-.77 6.54-.42 4.05.42 9.56 2.05 11.23 2.6 1.67.54 6.52 4.49 7.22 5.97" fill="#fff"/><path d="m7420.16 2592.2s4.58 5.07 5.42 7.54c1.19 3.63 2.12 8.86 2.37 11.14.36 2.76.58 6.06.58 6.06s-1.83-6.32-2.76-10.04c-.9-3.66-1.38-4.94-2.66-7.99-1.16-2.7-2.95-6.71-2.95-6.71" fill="#fff"/><path d="m7411.04 2579.24s3.15 3.65 4.08 6.42c.9 2.79 2.02 8.27 2.18 12.32.19 4.07.19 8.57.19 8.57s-1.12-2.73-2.02-5.91c-.93-3.08-.93-3.85-1.28-8.41-.36-4.62-1.13-5.64-1.83-8.69-.64-2.54-1.32-4.3-1.32-4.3" fill="#fff"/><path d="m7402.25 2568.65s.9 2.53 1.12 6.42c.16 3.88-.41 5.16.16 8.66.55 3.5 1.25 4.43 1.54 6.19.42 2.19.55 3.02.29 3.21-.16.13-2.95-4.27-3.88-8.05-1.06-4.5-1.44-5.97-.64-10.66.7-3.81 1.41-5.77 1.41-5.77" fill="#fff"/><path d="m7404.43 2573.88c-.06-1.09-.64-4.88-.64-4.88s2.47 5.07 3.05 8.5c.38 2.41.54 4.75.35 7.87-.16 3.14-.8 7.76-.74 6.29.13-1.74-1.09-4.82-1.83-8.48-.41-2.24.13-5.68-.19-9.3" fill="#fff"/><path d="m7395.45 2554.08s2.56 3.85 2.95 6.8c.35 2.95-.29 4.98-.93 8.51-.39 2.18-.48 3.56-.48 3.56l-.64 1.12s-2.19-1.35-.84-7.28c1.41-5.91.23-9.86-.07-12.71" fill="#fff"/><path d="m7394.61 2556.1c.71-.22.64 5.81-.16 10.4-1.02 5.61.9 6.45.9 7.92 0 1.48-2.05 2.73-3.05.29-1.19-2.95-1.7-4.72-1.35-7.92.45-4.11 2.09-10.11 3.66-10.69" fill="#fff"/><path d="m7388.07 2576.03s-1.25.7-2.19-.42c-.89-1.06.36-2.18-.77-3.66-1.05-1.47-2.72.71-3.43-.19-.77-.93-2.05-3.31-2.05-3.31s-.9.74-2.57 0c-1.64-.7-4.59-2.59-4.59-2.59s7.16.93 10.11 2.59c2.95 1.67 5.61 4.88 5.97 6.17.35 1.28.45.45-.48 1.41" fill="#fff"/><path d="m7368.43 2544.8s1.38 6.55 4.2 9.76c3.76 4.17 8.22 9.76 8.22 9.76s-3.05-1.83-4.37-2.77c-1.25-.93-3.66-2.66-5.29-5.45-3.18-5.3-2.22-7.06-2.76-11.3" fill="#fff"/><path d="m7373.02 2546.35s2.85 1.41 4.87 4.13c2.02 2.8 4.4 9.7 3.85 10.59-.54.93-1.47-3.65-4.58-6.51-5.23-4.78-4.14-8.21-4.14-8.21" fill="#fff"/><path d="m7393.52 2541.34s.74 2.28.51 5.23c-.12 2.92-.73 5.74-2.08 8.28-1.48 2.73-2.28 3.3-2.28 3.3s-.39-4.62.35-8.27c.74-3.7 3.5-8.54 3.5-8.54" fill="#fff"/><path d="m7391.11 2543.43s-2.56 5.32-3.4 9.4c-.73 3.75 0 7.15 0 7.15s-.35 3.21-.7 5.04c-.42 1.89-2.12-2.82-2.5-6.87-.36-4.07.38-6.25 2.21-8.85 1.83-2.57 4.39-5.87 4.39-5.87" fill="#fff"/><path d="m7397.76 2523.66s-1.19 5.87-2.41 7.92c-1.38 2.41-2.08 3.41-5.17 6.07-2.59 2.31-4.94 3.14-4.94 3.14s2.76-4.42 6.07-8.85c3.3-4.4 6.45-8.28 6.45-8.28" fill="#fff"/><path d="m7395.8 2524.14-10.11 14.18s-1.19-2.21.48-5.16c3.82-6.84 9.63-9.02 9.63-9.02" fill="#fff"/><path d="m7379.37 2520s-1.67 2.18-1.83 4.94c-.22 2.79-.35 6.64.35 9.79.74 3.11.55 6.32.55 6.32s-2.57-3.37-3.31-8.54c-.48-3.24-.35-8.08 1.29-10.87 1.47-2.44 2.76-3.79 2.76-3.79s3.5 3.79 3.69 9.31c.19 6.19-2.38 14.27-2.38 14.27s1.35-7.82.61-13.54c-.74-5.71-1.73-7.89-1.73-7.89" fill="#fff"/><path d="m7409.05 2504.79s-4.52 3.43-8.63 3.88c-4.43.48-5.97 1.57-7.57 2.95-2.95 2.51-1.83 5.81-1.83 5.81s1.31-2.69 4.43-4.36c3.11-1.61 3.49-.71 6.96-3.08 3.5-2.44 6.64-5.2 6.64-5.2" fill="#fff"/><path d="m7409.5 2505.43s-.83 2.25-2.82 4.62c-3.66 4.3-8.06 6.68-12.23 8.09-2.24.77-4.07-.36 0-3.11 4.01-2.8 5.04-2.03 7.61-3.69 2.56-1.64 7.44-5.91 7.44-5.91" fill="#fff"/><path d="m7410.75 2612.35c.97 0 1.74-.73 1.74-1.7 0-.96-.77-1.73-1.74-1.73-.93 0-1.7.77-1.7 1.73 0 .97.77 1.7 1.7 1.7" fill="#fff"/><path d="m7410.75 2609.21c-.77 0-1.41.64-1.41 1.44s.64 1.41 1.41 1.41v.58c-1.09 0-1.99-.93-1.99-1.99 0-1.12.9-1.99 1.99-1.99zm0 0v-.55c1.1 0 1.99.87 1.99 1.99 0 1.06-.89 1.99-1.99 1.99v-.57c.81 0 1.45-.62 1.45-1.42s-.64-1.44-1.45-1.44" fill="#0068b3"/><path d="m7420.32 2611.97c-2.12-.9-7.8-1.06-7.83-1.06v-.55c.22 0 5.84.16 8.08 1.09z" fill="#0068b3"/><path d="m7395.03 2597.98c.96 0 1.73-.74 1.73-1.7 0-.23-.06-.45-.13-.68-.28-.61-.86-1.02-1.6-1.02-.93 0-1.7.73-1.7 1.7 0 .96.77 1.7 1.7 1.7" fill="#fff"/><path d="m7395.03 2594.83c-.77 0-1.41.64-1.41 1.45 0 .8.64 1.44 1.41 1.44v.55c-1.06 0-1.96-.87-1.96-1.99 0-1.06.9-1.99 1.96-1.99zm0 2.89c.8 0 1.44-.64 1.44-1.44 0-.2-.03-.36-.12-.55-.2-.51-.71-.9-1.32-.9v-.54c.8 0 1.54.48 1.86 1.22.1.25.13.48.13.77 0 1.12-.87 1.99-1.99 1.99z" fill="#0068b3"/><path d="m7409.57 2600.29s-2.25-2.06-7.77-3.15c-4.2-.83-4.97-.22-4.97-.22l-.42-.36c.16-.22 1.03-.83 5.52.07 5.65 1.12 7.93 3.18 8.05 3.27z" fill="#0068b3"/><path d="m7396.44 2584.34c-.03 0-2.31-1.12-5.23-1.99-3.72-1.16-5.2-1.19-5.23-1.19v-.58c.07 0 1.54.04 5.39 1.26 2.95.86 5.26 2.02 5.3 2.02z" fill="#0068b3"/><path d="m7389.96 2575.19c-.1-.16-1.32-3.91-1.06-8.05.16-2.41.77-5.17.77-5.17l.51.1s-.54 2.76-.7 5.1c-.29 4.08.99 7.77.99 7.8z" fill="#0068b3"/><path d="m7386.75 2570.09c-.03-.06-1.31-.67-3.24-2.15-1.96-1.47-2.21-2.37-2.21-2.47l.54-.13s.23.8 2.02 2.15c1.86 1.45 3.15 2.09 3.15 2.09z" fill="#0068b3"/><path d="m7383 2567.68-3.12-1.92.29-.48 3.08 1.92z" fill="#0068b3"/><path d="m7378.54 2566.5c.89 0 1.7-.74 1.7-1.7 0-.93-.81-1.74-1.7-1.74-.97 0-1.74.81-1.74 1.74 0 .96.77 1.7 1.74 1.7" fill="#fff"/><path d="m7378.54 2563.35c-.81 0-1.45.64-1.45 1.45 0 .77.64 1.47 1.45 1.47v.52c-1.13 0-1.99-.9-1.99-1.99 0-1.1.86-1.99 1.99-1.99zm0 2.92c.73 0 1.41-.7 1.41-1.47 0-.81-.68-1.45-1.41-1.45v-.54c1.06 0 1.99.89 1.99 1.99 0 1.09-.93 1.99-1.99 1.99z" fill="#0068b3"/><path d="m7390.35 2562.07c.96 0 1.7-.74 1.7-1.7 0-.9-.74-1.7-1.7-1.7-.9 0-1.71.8-1.71 1.7 0 .96.81 1.7 1.71 1.7" fill="#fff"/><path d="m7390.35 2558.92c-.74 0-1.42.68-1.42 1.45 0 .8.68 1.47 1.42 1.47v.52c-1.06 0-1.99-.87-1.99-1.99 0-1.06.93-1.99 1.99-1.99zm0 0v-.54c1.12 0 1.98.93 1.98 1.99 0 1.12-.86 1.99-1.98 1.99v-.52c.8 0 1.44-.67 1.44-1.47 0-.77-.64-1.45-1.44-1.45" fill="#0068b3"/><path d="m7397.92 2577.28c.93 0 1.7-.74 1.7-1.7s-.77-1.7-1.7-1.7c-.97 0-1.7.74-1.7 1.7s.73 1.7 1.7 1.7" fill="#fff"/><path d="m7397.92 2574.13c-.81 0-1.45.65-1.45 1.45s.64 1.44 1.45 1.44v.55c-1.09 0-1.99-.93-1.99-1.99 0-1.13.9-1.99 1.99-1.99zm0 2.89c.8 0 1.41-.64 1.41-1.44s-.61-1.45-1.41-1.45v-.54c1.12 0 1.99.86 1.99 1.99 0 1.06-.87 1.99-1.99 1.99z" fill="#0068b3"/><path d="m7379.37 2543.97s.35 1.8 1.73 3.69c1.13 1.44 1.77 2.47 1.77 2.47z" fill="#0068b3"/><path d="m7382.61 2550.29c0-.03-.64-1.03-1.73-2.47-1.45-1.89-1.77-3.72-1.8-3.82l.55-.06s.35 1.73 1.67 3.53c1.12 1.47 1.76 2.5 1.79 2.5z" fill="#0068b3"/><path d="m7383.19 2521.57c.93 0 1.7-.77 1.7-1.73s-.77-1.7-1.7-1.7-1.7.74-1.7 1.7.77 1.73 1.7 1.73" fill="#fff"/><g fill="#0068b3"><path d="m7383.19 2518.43c-.8 0-1.45.64-1.45 1.41 0 .8.65 1.44 1.45 1.44v.55c-1.09 0-1.99-.9-1.99-1.99s.9-1.99 1.99-1.99zm0 2.85c.8 0 1.41-.64 1.41-1.44 0-.77-.61-1.41-1.41-1.41v-.58c1.12 0 1.99.9 1.99 1.99s-.87 1.99-1.99 1.99z"/><path d="m7386.53 2528.86-.36-.45c.04 0 2.12-1.54 3.18-2.7 1.09-1.15 1.51-2.24 1.51-2.24l.51.19c-.03.09-.48 1.18-1.63 2.4-1.06 1.19-3.12 2.73-3.21 2.8"/><path d="m7384.22 2520.99s.48.65.89 1.96c.52 1.29 1.22 4.43 1.22 4.43z"/><path d="m7386.08 2527.41c0-.03-.74-3.11-1.19-4.36s-.87-1.9-.87-1.9l.42-.32c0 .04.48.68.96 1.99.48 1.32 1.16 4.37 1.19 4.46z"/><path d="m7498.39 2590.21c-4.52 0-9.72-.32-15.56-1.35-3.89-.67-7.26-2.11-9.73-3.14-1.54-.67-2.79-1.19-3.49-1.29-.49-.03-1.13 0-1.77.07-1.35.07-2.73.16-3.46-.35l-.07-.07c-3.88-2.76-5.97-4.71-6.23-5.77-.16-.71 0-1.35.16-1.7-.54-.26-1.83-1.06-1.63-2.31.13-.87.45-1.51.64-1.87-.23-.13-.51-.35-.64-.67-.19-.42-.13-.87.13-1.35.48-.99.99-1.51 1.28-1.76-.16-.36-.42-1.13-.16-1.74.16-.48.51-.83 1.06-1.09 1.7-.64 2.37-.35 4.04.26.26.1.55.19.87.32.16.07.32.1.38.1-.03-.04-.06-.07-.06-.1-.2-.39-.45-.77-.23-1.06.2-.32.71-.25 1.09-.19 2.64.45 4.34 1.6 6.07 3.98.54.7 1.03 1.54 1.51 2.4 1.12 1.9 2.18 3.73 3.69 4.08 2.18.51 11.87 1.19 16.24.48 2.82-.48 6-1.47 7.86-2.15-1.35-.8-2.25-3.59-2.57-8.24-.42-6.52-1.32-10.85-1.99-14.32-.42-2.15-.8-3.98-.93-5.74-.16-1.93-.42-3.69-.71-5.26-.22 1.5-.86 3.14-2.34 4.71-4.01 4.21-7.09 5.46-12.67 5.04-7.99-.54-10.43-5.13-10.53-5.29l.48-.26c.03.03 2.44 4.49 10.08 5.01 5.45.38 8.34-.77 12.26-4.91 2.34-2.38 2.47-5.2 2.18-6.97-.23-1.06-.39-1.7-.39-1.73l.52-.16s.29.67.41 1.73c.42 1.8 1 4.82 1.26 8.06.12 1.7.51 3.53.89 5.65.74 3.49 1.61 7.83 2.06 14.4.42 6.13 1.7 7.58 2.41 7.9.15.06.32.09.44.06.49-.16.81-.29.81-.29l.29.49c-.07 0-.42.32-.97.35-1.73.64-5.45 1.92-8.72 2.5-4.43.71-13.96.1-16.5-.48-1.73-.45-2.89-2.37-4.04-4.4-.48-.8-.96-1.63-1.48-2.34-1.57-2.25-3.21-3.34-5.74-3.79-.29-.03-.42-.03-.52 0 .07.1.16.33.26.45.16.33.35.58.16.84-.19.22-.58.16-1.15-.03-.33-.1-.61-.23-.84-.29-1.64-.64-2.18-.84-3.66-.29-.41.16-.64.42-.77.74-.22.67.2 1.5.2 1.5l.16.23-.23.16s-.64.39-1.28 1.67c-.16.35-.19.64-.13.9.16.38.64.51.64.51l.42.1-.26.32c-.03 0-.61.77-.74 1.92-.12 1.16 1.54 1.8 1.58 1.83l.29.07-.16.29c0 .03-.45.83-.26 1.63.13.49 1.09 1.87 6.03 5.43l.07.06c.58.39 1.92.32 3.11.23.67-.04 1.32-.07 1.83-.04.83.1 2.12.64 3.69 1.32 2.44 1.03 5.78 2.44 9.56 3.11 10.62 1.9 19.03 1.35 25.13.96.7-.06 1.44-.09 2.12-.12 2.5-.16 3.05-1.77 3.85-8.06.77-5.55-.48-19.54-1.13-27.02-.12-1.02-.19-1.96-.22-2.72-.26-2.93-.29-4.75-.32-6.39-.04-2.12-.04-3.69-.52-6.8l-.12-.71c-.65-4.52-.65-4.52-4.75-9.72l-.58-.77c-4.91-6.23-7.64-7.38-12.2-9.28l-.09-.03c-3.11-1.25-9.05-4.17-13.86-6.48-2.41-1.16-4.43-2.15-5.46-2.63-3.05-1.35-4.97-2.47-4.97-2.51l-.13-.03-.03-.13c0-.03-.29-1.7-1.32-4.65-1.22-3.43-1.64-4.94-1.67-5.01l-.25-1.21.83-1.42c1.86-2.82 2.82-5.9 3.24-9.88.35-3.5 0-6.26 0-6.29v-.13l.07-.06c0-.04 1.06-1.35 1.06-2.6 0-.9.35-1.03.77-1.06.25-.07.41-.1.6-.45.13-.26.33-.55.52-.93.77-1.25 1.86-3.21 1.67-4.46-.26-1.54-1.86-3.69-1.86-3.72l-.13-.13.09-.16c0-.04.42-1.22-.77-2.41-1.38-1.41-1.95-2.25-1.99-2.28l-.03-.1s-.8-2.72-1.09-3.56c-.19-.61-1.6-2.27-4.36-2.05-1.03.13-1.7.26-2.31.32-.97.16-1.67.26-3.21.26-2.54 0-3.63-.26-6.42-1.13-1.89-.54-3.11.29-4.78 1.42-.64.38-1.35.9-2.18 1.34-1.77.97-1.58 1.42-1.48 1.61.03.13.07.29-.03.45-.13.16-.32.16-.58.16-.87 0-4.97 4.52-5.49 6.74-.54 2.15-.54 4.04-.54 4.04v.16l-.16.1s-2.38 1.34-2.6 4.2c-.16 1.61 0 2.57.16 3.4.12.71.25 1.35.12 2.15-.12.71-.41 1.25-.67 1.73-.38.74-.74 1.42-.74 2.64 0 1.86 1.61 3.75 2.92 4.75.29.19.61.35.93.54.9.51 2.02 1.19 3.28 3.11 1.41 2.12 2.24 4.21 2.44 4.85h1.92l1.45 2.92c1.44 2.89 1.41 5.01 1.12 7.86-.19 2.09-1.35 4.36-2.47 6.55-.52 1.02-1.03 2.02-1.38 2.95-1.16 2.82-5.81 3.85-6 3.91h-.07c-.07 0-6.93.07-10.46 3.6-5.74 5.74-6.74 17.36-5.81 25.51.87 7.73 1.96 13.22 2.76 17.23.55 2.89.93 4.75.93 5.97 0 2.95-.35 13.19-.38 13.29h-.52c0-.13.36-10.37.36-13.29 0-1.19-.39-3.14-.93-5.84-.77-4.01-1.9-9.56-2.76-17.33-.93-8.21.09-20.05 5.97-25.93 3.62-3.62 10.26-3.75 10.81-3.75.42-.07 4.59-1.12 5.58-3.63.36-.9.87-1.89 1.42-2.98 1.09-2.12 2.24-4.33 2.4-6.32.29-2.83.32-4.78-1.09-7.58l-1.25-2.63h-1.99l-.07-.13c0-.06-.83-2.53-2.43-4.91-1.23-1.79-2.25-2.43-3.12-2.95-.35-.19-.64-.35-.96-.61-.51-.38-3.15-2.5-3.15-5.16 0-1.35.39-2.09.81-2.86.22-.48.48-.96.57-1.6.13-.71 0-1.26-.09-1.96-.13-.8-.32-1.86-.16-3.56.22-2.76 2.18-4.21 2.73-4.56 0-.51.09-2.15.57-4.04.55-2.19 4.72-7.1 6.03-7.1-.12-.54.07-1.22 1.8-2.18.84-.45 1.54-.93 2.19-1.35 1.73-1.15 3.08-2.08 5.22-1.44 2.73.84 3.82 1.06 6.26 1.06 1.51 0 2.19-.07 3.15-.22.58-.1 1.25-.2 2.34-.29 2.86-.32 4.62 1.41 4.94 2.4.23.74 1 3.18 1.06 3.53.13.16.71.96 1.86 2.15 1.25 1.25 1.09 2.47.97 2.92.35.48 1.63 2.35 1.92 3.85.22 1.38-.96 3.47-1.76 4.82-.2.35-.39.64-.49.86-.35.65-.8.74-1.05.74-.26.04-.29.04-.29.55 0 1.25-.84 2.47-1.13 2.82.1.55.32 3.11 0 6.29-.41 4.11-1.47 7.22-3.3 10.11l-.71 1.25.19 1s.42 1.54 1.61 4.94c.96 2.56 1.25 4.17 1.38 4.59.45.25 2.25 1.25 4.81 2.4 1.06.48 3.08 1.48 5.46 2.63 4.55 2.22 10.75 5.2 13.83 6.49l.13.03c4.65 1.92 7.41 3.08 12.38 9.43l.61.81c4.17 5.32 4.17 5.32 4.85 9.94l.13.71c.48 3.11.48 4.78.51 6.9.07 1.64.09 3.46.32 6.32.03.8.13 1.73.19 2.76.68 7.51 1.93 21.5 1.16 27.15-.8 6.16-1.35 8.34-4.37 8.5-.67.07-1.38.1-2.11.13-2.8.19-6 .39-9.66.39"/><path d="m7453.62 2511.3-.32-.45c.07-.03 4.4-3.27 8.09-7.15 5.2-5.49 5.1-8.06 5.1-8.09l.55-.03c0 .09.13 2.76-5.23 8.5-3.72 3.95-8.12 7.16-8.19 7.22"/><path d="m7448.97 2511.98h-.54c0-2.89-.65-9.12-.65-9.18l.52-.07c.03.07.67 6.32.67 9.24"/><path d="m7445.64 2496.57-.49-.29.26.17-.26-.17s.29-.64-.38-2.82c-.13-.35-.26-.7-.32-1.09-.68-2.02-1.29-3.82-.55-5.01.23-.45.42-.74.58-1.02.42-.64.71-1.16 1.19-2.28.73-1.57 1.28-2.82 1.12-5.36-.03-.42-.07-.77-.13-1.16-.16-2.4-.35-4.87.13-6.35.55-1.6 2.09-3.63 3.11-4.01l.13-.03c.83-.36 1.25-.52 1.93-1.51.51-.8.73-.9 1.34-.84.29 0 .64.04 1.26-.06.7-.07 1.18 0 1.54.06.57.07.64.07.99-.48.67-.96 1.15-.96 2.09-.9.22 0 .54.07.89.07h1c.9.03 1.12.03 1.6-.32.81-.61 2.19-.74 3.69.77 1.32 1.35 2.96 2.57 3.95 3.24 1.16.8 1.45 1.44 1.22 2.89-.19 1.22.55 4.46.58 4.49l-.58.1c-.03-.1-.74-3.37-.54-4.69.16-1.22 0-1.67-1-2.31-1.03-.67-2.66-1.99-4.01-3.34-1.22-1.25-2.34-1.15-2.95-.7-.64.45-1.06.45-1.99.41h-.97c-.35 0-.67-.03-.93-.03-.9-.06-1.09-.06-1.57.64-.54.81-.9.81-1.54.71-.32-.03-.77-.1-1.44-.03-.58.06-1.03.03-1.29.03-.45-.03-.45-.03-.86.54-.74 1.16-1.35 1.42-2.22 1.77l-.12.03c-.81.32-2.25 2.09-2.8 3.72-.45 1.35-.22 3.86-.06 6.07.03.39.06.77.06 1.16.19 2.66-.38 4.07-1.12 5.68-.51 1.15-.83 1.66-1.22 2.3-.19.29-.35.58-.61 1.03-.54.97 0 2.7.61 4.56.13.35.23.74.32 1.09.74 2.38.45 3.15.36 3.27"/><path d="m7439.22 2470.58c-.23 0-.42-.09-.58-.29-.58-.64.16-2.4.64-3.34.61-1.28 1.35-1.12 2.06-.99.25.03.48.1.77.1.6 0 1.5-.9 2.08-1.54.32-.32.61-.65.84-.81.51-.35.76-1.57.96-2.79.09-.38.16-.74.25-1.09.23-1.09.58-1.41 1.13-1.89.35-.26.74-.68 1.28-1.35 1.57-1.96 4.08-1.41 4.14-1.38l-.1.51c-.09 0-2.24-.48-3.59 1.19-.61.77-1.03 1.16-1.38 1.44-.54.49-.74.68-.96 1.58-.1.38-.13.73-.19 1.09-.29 1.44-.52 2.63-1.16 3.14-.26.16-.48.42-.8.71-.71.8-1.64 1.7-2.51 1.7-.32 0-.64-.03-.89-.07-.68-.16-1-.19-1.48.68-.71 1.47-.9 2.5-.67 2.76.09.09.41.03.57 0 .52-.23 1.06-.42 1.51-.61 1.13-.48 1.89-.8 2.38-.48l-.29.48c-.26-.16-1.09.19-1.86.51-.45.19-1.03.42-1.58.61-.19.07-.41.13-.57.13"/><path d="m7443.04 2475.72c-.36 0-.65-.1-.68-.1l.16-.55c.07.04 1.32.32 2.31-.64 1.09-1.09 1.64-1.96 1.64-1.96l.48.33c-.03 0-.61.93-1.7 1.99-.77.76-1.6.93-2.21.93"/><path d="m7468.64 2464.84c-.29 0-.51-.1-.67-.23-.32-.29-.23-.67-.23-.74l.55.13-.29-.06.29.06s-.03.13.03.2c.1.09.26.16.84.03.45-.1.9-.29 1.28-.52.93-.41 1.86-.86 2.86-.16l-.32.45c-.74-.51-1.42-.19-2.31.2-.42.25-.87.44-1.35.54-.29.1-.48.1-.67.1"/><path d="m7474.48 2469.81s-.03-1.54-.67-2.37c-.58-.74-1.67-.13-1.67-.13l-.29-.48c.55-.29 1.7-.65 2.41.25.77 1 .8 2.7.8 2.73z"/><path d="m7455.2 2458.26c-.19 0-.45-.03-.71-.16l.23-.51c.67.32 1.06-.04 1.67-.58.22-.26.51-.48.8-.68.96-.51 2.21-1.28 2.21-1.28l.29.48s-1.28.74-2.18 1.25c-.29.16-.48.42-.74.61-.42.45-.9.87-1.57.87"/><path d="m7462.55 2455.6c-.13 0-.2 0-.26-.04-.61-.19-.77-.86-.8-.96l.54-.13c0 .13.16.48.39.58.25.07.58-.16.8-.32 1.32-1.16 3.72-1.57 3.85-1.57l.07.57c-.04 0-2.34.36-3.53 1.38-.39.32-.74.48-1.06.48"/><path d="m7445.41 2464.13-.42-.42c.1-.03 1.61-1.54 2.99-1.54.64 0 .96-.19 1.51-.54.48-.29 1.09-.64 2.05-1.09.83-.32 1.22-.55 1.54-.71.54-.32.77-.42 1.67-.42.86 0 1.31-.25 2.02-.7.45-.23.96-.55 1.73-.9 1.38-.64 1.8-.61 2.57-.51.38.06.77.09 1.41.09 2.06 0 2.99 0 5.2.55 2.12.58 3.08.64 3.08.64l.23.03v.26c0 .06 0 1.8-1.48 2.18-.29.13-.58.16-.83.19-.78.19-.97.26-.97.84s-.03 1.12-.41 1.44c-.36.29-.97.32-1.93.13l.13-.51c.77.16 1.22.09 1.44-.07.19-.13.23-.45.23-.99 0-1.06.67-1.19 1.41-1.35.22-.03.51-.1.77-.19.8-.23.99-1.03 1.09-1.45-.45-.03-1.35-.19-2.86-.58-2.21-.57-3.11-.57-5.1-.57-.67 0-1.12-.04-1.44-.1-.71-.1-1-.13-2.31.48-.71.29-1.22.61-1.67.87-.74.48-1.28.8-2.31.8-.84 0-.9.03-1.38.32-.32.13-.77.39-1.61.74-.96.38-1.5.77-1.95 1.03-.58.38-1.03.64-1.83.64-1.19 0-2.54 1.41-2.57 1.41"/><path d="m7452.6 2465.51-.07-.54c.04 0 1.51-.2 1.99-1.32.19-.45.1-.8.07-1.09-.1-.58-.1-1.03 1.02-1.32l.13.58c-.7.16-.7.23-.64.64.1.36.16.77-.06 1.38-.61 1.45-2.35 1.64-2.44 1.67"/><path d="m7462.29 2461.92c-.45 0-.93-.04-1.48-.1-.73-.1-1.25-.32-1.5-.74-.39-.51-.23-1.06-.23-1.09l.51.16-.22-.09.29.09c-.07 0-.13.36.06.61.2.29.58.45 1.13.48 1.86.23 2.85.16 4.01-.83l.29-.23c1.02-.86 1.18-.86 2.12.04l.19.19-.42.42-.19-.26c-.29-.29-.52-.51-.64-.51-.07 0-.36.22-.71.54l-.29.23c-.93.86-1.86 1.09-2.92 1.09"/><path d="m7447.98 2467.76c-1 0-1.54-1.25-1.54-1.32l.51-.22s.48 1.09 1.16.93c.16 0 .32-.03.48-.07.86-.13 1.86-.29 2.28-1.22.06-.29.12-.38.12-.48-.19-.06-.51-.19-.7-.83l.51-.16c.13.38.26.45.42.48.06.03.22.09.32.29.07.16.03.38-.22.93-.52 1.22-1.74 1.41-2.67 1.54-.16.03-.29.03-.41.06-.1 0-.17.07-.26.07"/><path d="m7438.64 2475.94c-.42-.22-.61-.51-.64-.83-.13-.58.32-1.22 1.06-2.28.13-.19.25-.39.41-.58 1.38-1.96 3.15-1.61 3.21-1.61l-.09.55c-.07 0-1.48-.29-2.63 1.38-.16.19-.33.39-.45.58-.61.83-1.03 1.47-1 1.83.03.13.07.29.45.54z"/><path d="m7444.42 2481.46c-.42 0-.81-.26-1.22-.51-.1-.07-.23-.16-.36-.2-1.02-.64-1.02-2.53-1.02-2.66h.54c0 .48.13 1.8.8 2.18.1.03.2.13.33.23.38.22.76.45.99.38.16-.03.32-.28.48-.67l.51.19c-.22.61-.48.93-.83 1.03-.1 0-.16.03-.22.03"/><path d="m7442.04 2490.03c-.06 0-.1-.04-.13-.04-.54-.12-.86-.86-.86-2.02 0-.77.25-1.25.45-1.63.22-.52.35-.74-.16-1.25-.2-.2-.52-.45-.68-.45s-.45.25-.77.64c-.19.22-.41.45-.74.77-.57.51-1.28.64-1.99.32-.8-.36-1.34-1.22-1.31-2.06.13-1.89 1.28-2.72 1.31-2.76l.33.49-.16-.26.16.26c-.04 0-.97.7-1.09 2.31-.04.57.41 1.22.99 1.51.29.15.83.28 1.41-.2.29-.29.52-.57.68-.77.48-.48.73-.8 1.18-.83.36 0 .68.29 1.06.67.8.77.55 1.32.26 1.83-.16.35-.39.8-.39 1.41 0 .93.26 1.48.42 1.51.1 0 .29-.13.58-.64.73-1.54 1.41-1.64 1.54-1.64v.58s-.45.07-1.03 1.32c-.42.74-.77.93-1.06.93"/><path d="m7445.35 2485.37c-.2 0-.42-.19-.68-.38-.38-.35-.86-.8-1.57-.51-.58.19-.9.03-1.12-.13-.64-.48-.55-1.7-.52-1.83l.55.03c-.03.29-.03 1.12.32 1.35.03.07.19.16.58.07.99-.42 1.7.22 2.12.57.12.13.29.23.38.29h-.09l.51.23c-.07.16-.19.28-.35.28-.04.04-.07.04-.13.04"/><path d="m7440.85 2481.46c-.32 0-.7-.1-1.12-.35-.45-.33-.67-.93-.74-1.51-.13.22-.29.32-.48.35-.51.23-1.19-.13-2.12-.83-1.34-.93-1.41-2.79-1.41-2.86h.55s.03 1.61 1.18 2.44c.65.42 1.29.87 1.64.74.13-.03.26-.2.35-.52.1-.22.16-.48.45-.48.23.07.29.29.33.64.03.49.16 1.32.54 1.54.8.49 1.25.33 1.67-.12l.42.38c-.42.39-.81.58-1.25.58"/><path d="m7457.89 2464.36-.32-.49c.26-.16.42-.51.45-.89.03-.65-.29-1.35-.87-1.96-1.21-1.25-1.57-1.45-1.6-1.45l.29-.48c.03 0 .42.26 1.7 1.54.71.71 1.12 1.58 1.03 2.38-.04.54-.29 1.02-.68 1.35"/><path d="m7446.44 2458.2c-.32 0-.64 0-.93-.04-1.09-.22-1.58-.42-1.58-.42l.2-.51s.45.19 1.51.35c1.09.16 2.4-.03 2.66-.41l.45.32c-.36.51-1.41.7-2.31.7"/><path d="m7442.17 2478.25c-.71 0-1.51-.61-2.25-1.15-.19-.17-.38-.29-.57-.45-.42-.32-.68-.68-.68-1.06 0-.71.64-1.19.68-1.19l.32.42c-.13.13-.45.41-.45.77 0 .19.16.45.45.64.19.16.38.26.61.42 1.18.93 1.92 1.44 2.53.73.87-1.09 1.96-2.92 1.99-2.92l.48.29c-.03.07-1.15 1.86-2.08 2.99-.32.38-.64.51-1.03.51"/><path d="m7442.36 2491.76c-.99 0-3.01-1.96-3.46-2.37l.41-.39c1.48 1.45 2.86 2.34 3.12 2.18.41-.54.89-2.31 1.06-2.95l.51.13c0 .13-.55 2.4-1.16 3.17-.06.13-.22.23-.41.23z"/><path d="m7460.91 2497.41c-1.57 0-3.47-.48-5.68-1.38-2.66-1.06-5.13-4.14-6.8-6.13l-.32-.39c-1.64-2.02-2.76-4.36-2.8-4.49l.52-.19s1.12 2.37 2.73 4.33l.32.39c1.57 1.95 4.01 4.97 6.54 5.96 3.05 1.26 5.39 1.61 7.16 1.1.42-.1.74-.16 1.06-.26 1.38-.26 2.31-.42 3.59-2.76l.45.26c-1.38 2.56-2.47 2.76-3.95 3.08-.29.06-.61.09-.96.22-.58.16-1.19.26-1.86.26"/><path d="m7460.3 2487.97c.55.33 1.51.65 2.92.68h.1v.54h-.1c-3.02-.06-4.11-1.38-4.14-1.41l.26-.45c.03 0 2.18.23 3.98.23v.57c-1.03 0-2.25-.09-3.02-.16m3.02.68c1.7.03 2.63-.36 3.04-.68-.7.07-1.89.16-3.04.16v-.57c1.83 0 3.69-.2 3.69-.23l.48-.03-.16.42c-.03.06-.58 1.47-3.82 1.47h-.19z"/><path d="m7467.33 2487.85c-.39-.23-1.64-.9-2.31-.84-.32.03-.55.03-.74.07-.32.06-.58.09-.96.09-.32 0-.45-.03-.61-.09-.13-.04-.32-.1-.74-.1-.32 0-.74.16-1.16.32-.48.19-1.05.42-1.73.55l-.06-.55c.57-.13 1.12-.32 1.57-.54.48-.2.96-.36 1.38-.36.54.04.74.1.9.13.12.03.22.1.45.1.35 0 .57-.07.89-.1.23 0 .42-.03.74-.1 1.03-.06 2.63.9 2.7.94z"/><path d="m7463.86 2484.67c-.42 0-.87-.16-1.18-.45-.23-.23-.65-.23-1.03-.23-.58-.06-1.22-.06-1.29-.7-.06-.71-.06-1.12.71-1.32l.16.55c-.38.07-.38.07-.32.7 0 .17.22.17.74.2.48 0 1.02.06 1.38.35.48.45 1.09.32 1.31.26.42-.16.68-.45.77-.74.07-.71.07-1.64-.67-4.17-.64-2.15-.55-2.73-.42-3.24 0-.07 0-.13.03-.23.1-.51.39-.83.48-.93.13-.23.58-.9 1.58-1.57 1.15-.74 1.57-.97 3.24-.84 1.8.1 2.57 1.64 2.6 1.7l-.48.26c-.04-.07-.68-1.32-2.15-1.38-1.58-.13-1.9.07-2.96.74-.99.67-1.34 1.35-1.34 1.35v.09l-.07.04s-.29.22-.38.64c0 .06 0 .16-.04.22-.06.45-.19.96.42 2.99.74 2.47.83 3.56.67 4.42-.09.49-.51.97-1.12 1.16-.19.07-.45.13-.64.13"/><path d="m7450.96 2475.49-.48-.32c.07-.03.93-1.25 2.73-2.02 1.7-.74 2.82-1 4.36-1s3.47 1.99 3.56 2.09l-.41.38c0-.03-1.83-1.89-3.15-1.89-1.47 0-2.5.22-4.17.9-1.64.71-2.44 1.86-2.44 1.86"/><path d="m7453.4 2475.94c.45.29 1.51.9 2.99.96v.55c-2.09-.07-3.5-1.16-3.53-1.19l-.17-.13.07-.19c.03-.16.48-1.32 3.63-1.48v.52c-2.03.16-2.76.67-2.99.96m2.99.96h.25c2.02 0 2.57-.86 2.73-1.25-.29-.19-1.03-.67-2.12-.67h-.86v-.51c.29-.04.54-.04.86-.04 1.64 0 2.6.9 2.63.96l.13.13-.03.1c0 .1-.39 1.83-3.34 1.83h-.25z"/><path d="m7465.6 2475.65c.51.58 1.38.93 2.53 1.06v.55c-1.48-.16-2.6-.65-3.14-1.45l-.13-.16.13-.13c.03-.06.8-1.09 3.14-1.18v.57c-1.51.04-2.28.52-2.53.74m2.53 1.06h.16c.87.07 1.86-.29 2.34-.48-.19-.42-.77-1.25-1.95-1.32h-.55v-.57c.19 0 .35 0 .61.06 1.89.07 2.5 1.86 2.5 1.9l.07.22-.19.1c-.07.03-1.35.64-2.64.64h-.35z"/><path d="m7456.83 2477.19c-.76 0-1.38-.61-1.38-1.38 0-.7.61-1.31 1.38-1.31.71 0 1.35.61 1.35 1.31 0 .77-.64 1.38-1.35 1.38"/><path d="m7468.45 2476.97c-.67 0-1.25-.52-1.25-1.19s.58-1.22 1.25-1.22c.64 0 1.16.55 1.16 1.22s-.52 1.19-1.16 1.19"/></g><path d="m7457.06 2476.29c-.19 0-.39-.19-.39-.38 0-.26.2-.42.39-.42.26 0 .38.16.38.42 0 .19-.12.38-.38.38" fill="#fff"/><path d="m7468.45 2476.29c-.19 0-.38-.19-.38-.38 0-.26.19-.42.38-.42s.35.16.35.42c0 .19-.16.38-.35.38" fill="#fff"/><path d="m7471.31 2476.29-.52-.19s.16-.51-.16-.96c-.32-.42-1.06-.71-2.15-.74-1.79-.1-2.98 1.48-2.98 1.51l-.45-.36c.06-.09 1.38-1.79 3.43-1.73 1.32.04 2.18.42 2.63 1.06.45.61.2 1.38.2 1.41" fill="#0068b3"/><path d="m7453.05 2476.42-.52-.29c.04-.03.42-.74 1.93-1.63 1.12-.58 1.48-.71 3.21-.49 1.67.26 2.44 1.61 2.5 1.71l-.48.25c0-.03-.7-1.19-2.12-1.38-1.54-.25-1.79-.16-2.82.42-1.35.77-1.7 1.38-1.7 1.41" fill="#0068b3"/><path d="m7477.76 2547.76c-.39 0-.68-.13-.84-.32-.22-.33-.06-.71-.06-.77l.51.25-.26-.13.26.13s-.03.13 0 .19c.03 0 .1.13.58.07.51-.03.64-.19.7-.23.04-.09 0-.15 0-.15l.45-.23c.07.03.16.35 0 .67-.16.26-.51.42-1.06.52z" fill="#0068b3"/><path d="m7464.82 2572.72s-1.76-1.76-3.27-2.6c-1.48-.83-3.21-1.12-3.27-1.12l.09-.55c.1 0 1.93.26 3.47 1.19 1.57.87 3.31 2.63 3.37 2.7z" fill="#332e68"/><path d="m7463.54 2575.29s-.83-.55-3.05-1.73c-1.79-.97-2.82-.97-2.82-.97v-.54c.03 0 1.15 0 3.05 1.03 2.27 1.18 3.11 1.73 3.14 1.79z" fill="#332e68"/><path d="m7462.71 2578.43s-1.26-.7-2.54-1.25c-1.15-.54-1.44-.48-1.44-.48.03 0 .09 0 .13-.13l-.49-.25c.16-.26.55-.32 2.03.32 1.28.58 2.59 1.31 2.59 1.31z" fill="#332e68"/><path d="m7466.3 2568.45c-.83-.64-2.15-1.31-2.15-1.31l.23-.48c.06.03 1.34.67 2.24 1.35z" fill="#332e68"/><path d="m7440.02 2552.8c-6.67 0-7.77-3.76-7.8-3.92l.55-.16c.06.16.99 3.66 7.54 3.53 6.61-.1 9.27-3.05 9.27-3.11l.42.35c-.1.16-2.82 3.24-9.66 3.31z" fill="#0068b3"/><path d="m7437 2549.75c-.7 0-.99-.81-1.02-1.29l.54-.03s.1.74.48.74c.52 0 .9-.42.9-.45l.45.35c-.03.03-.54.67-1.35.67" fill="#0068b3"/><path d="m7436.07 2592.65-.54-.03.03-1.64c.16-3.79.19-4.49.42-10.94.09-3.43-.9-8.12-1.9-12.71-.83-3.95-1.67-7.67-1.67-10.27v-7.86c-.38-.61-3.11-4.85-3.72-9.98-.41-3.5 2.54-11.68 2.67-12l.51.16c-.03.06-3.02 8.41-2.63 11.81.64 5.32 3.66 9.72 3.69 9.75l.06.07v8.05c0 2.54.77 6.26 1.67 10.18.97 4.58 1.99 9.33 1.86 12.8-.22 6.48-.22 7.16-.38 10.94z" fill="#0068b3"/><path d="m7492.45 2576.61c-.09-.04-9.11-4.66-20.95-15.57-10.2-9.56-16.72-25.54-16.78-25.7l.51-.19c.07.16 6.51 16.04 16.69 25.47 11.74 10.88 20.69 15.44 20.82 15.5z" fill="#0068b3"/><path d="m7493.64 2572.98c-.13-.03-11.2-5.46-21.69-16.59-10.46-11.23-12.39-20.09-12.39-20.22l.58-.09c0 .09 1.86 8.85 12.23 19.92 10.39 11.11 21.4 16.47 21.53 16.5z" fill="#0068b3"/><path d="m7448.04 2503.89s-4.84 4.2-7.76 6.26c-2.96 2.02-5.72 4.97-6.45 6.8-.74 1.83-1 3.72-1 3.72l5.97-.99s4.65-2.06 5.94-4.65c1.31-2.57 3.59-6.71 3.59-6.71z" fill="#fff"/><path d="m7440.63 2510.21-.19.16c-2.89 1.96-5.62 4.88-6.36 6.68-.54 1.31-.83 2.63-.89 3.27l5.51-.87c.16-.06.97-.45 1.93-1.02v.64c-.96.54-1.67.86-1.7.9h-.1l-6.32 1.02.03-.35c.04-.06.29-1.96 1.03-3.79.77-1.92 3.56-4.94 6.55-6.96.16-.1.32-.22.51-.35zm7.15-5.77c-1.18 1.02-4.78 4.1-7.15 5.77v-.67c2.89-2.05 7.19-5.81 7.25-5.84l.39-.42.35 5.07-.03.07c-.04.06-2.35 4.2-3.6 6.74-.83 1.63-2.88 3.04-4.36 3.91v-.64c1.38-.87 3.18-2.12 3.85-3.5 1.19-2.41 3.27-6.13 3.59-6.71z" fill="#0068b3"/><path d="m7438.96 2518.62s-.93 7.35 1.32 9.91c2.18 2.57 8.21 7.74 15.43 8.67 7.16.93 19.99.93 32.83-7.35 12.87-8.28 10.27-7.57 13.77-5.9 3.53 1.63 6.09 4.97 6.09 4.97s-2.56-7.35-5.16-8.66c-2.54-1.29-3.47-1.29-3.47-1.29s-1.48-2.37-3.34-3.3c-1.83-.9-2.4-1.48-2.4-1.48s-2.73-2.79-5.27-2.79c-2.6 0-3.53-.9-3.53-.9s-2.02-2.18-5.87-2.41c-3.88-.16-6.26 2.8-13.93 4.98-7.73 2.24-18 3.72-20.6 3.53-2.56-.23-5.87 2.02-5.87 2.02" fill="#fff"/><path d="m7439.22 2518.78c-.1.93-.71 7.32 1.25 9.6 2.18 2.53 8.18 7.63 15.24 8.56 2.06.26 4.2.39 6.32.39 3.15 0 6.97-.32 11.27-1.32v.55c-4.3.99-8.12 1.31-11.27 1.31-2.15 0-4.3-.16-6.35-.38-7.25-.96-13.38-6.13-15.66-8.76-1.16-1.35-1.48-3.95-1.51-6.16v-1.06c0-1.58.16-2.83.16-2.92l.03-.13.13-.07c.13-.09 3.44-2.27 6.03-2.08h.49c3.11 0 12.64-1.42 19.99-3.5 3.56-.99 5.97-2.18 7.92-3.15h.04v.58c-1.96.96-4.33 2.12-7.8 3.12-7.41 2.11-17.04 3.49-20.15 3.49h-.52c-2.21-.16-5.03 1.58-5.61 1.93m34.08 17.23c4.72-1.12 9.91-3.08 15.08-6.42 2.57-1.63 4.43-2.85 5.97-3.88 3.59-2.41 4.68-3.11 5.61-3.11.48 0 .9.22 1.45.54.29.16.64.39 1.03.58 2.24 1.03 4.07 2.69 5.13 3.85-.87-2.18-2.7-6.16-4.46-7.06-2.41-1.22-3.34-1.25-3.37-1.25h-.13l-.06-.13c-.07-.03-1.48-2.34-3.25-3.24-1.82-.9-2.4-1.51-2.4-1.51-.07-.03-2.76-2.69-5.14-2.69-2.69 0-3.69-.97-3.72-1s-2.02-2.12-5.68-2.31c-2.05-.06-3.62.67-5.87 1.8l-.19.06v-.57c2.31-1.13 3.94-1.93 6.06-1.83 3.95.19 6 2.37 6.1 2.5 0 0 .86.8 3.3.8 2.6 0 5.36 2.73 5.49 2.86 0 0 .55.51 2.34 1.44 1.67.84 2.99 2.76 3.34 3.24.35.1 1.38.29 3.43 1.32 2.67 1.32 5.17 8.53 5.3 8.79l-.48.29c-.03-.03-2.6-3.3-5.97-4.88-.45-.22-.8-.41-1.09-.57-.51-.29-.8-.49-1.16-.49-.8 0-2.02.84-5.32 3.02-1.51 1-3.44 2.28-5.94 3.92-5.3 3.4-10.62 5.35-15.4 6.48z" fill="#0068b3"/><path d="m7438.51 2513.55c-1.67.83-2.05 2.37-1.96 3.43.16 1.13 1.13 2.15 2.8 2.22 1.66.09 2.76-.42 2.85-2.51.16-2.05-.09-2.34-1.35-2.85-1.22-.55-1.79-.55-2.34-.29" fill="#fff"/><path d="m7439.22 2513.64c-.19 0-.39.04-.58.17-1.93.96-1.83 2.66-1.8 3.14.13.93.97 1.89 2.51 1.99h.03v.55h-.07c-1.86-.13-2.85-1.32-3.05-2.48-.09-1.21.33-2.82 2.12-3.72.32-.16.64-.25 1-.22v.57zm.16 5.3c1.44.03 2.44-.26 2.56-2.25.17-2.02-.12-2.15-1.21-2.63-.58-.25-1-.38-1.35-.42v-.57c.45.06.93.22 1.6.48 1.35.61 1.67.99 1.51 3.21-.13 1.89-1 2.73-2.82 2.73h-.29z" fill="#0068b3"/><path d="m7450.06 2523.62c-2.98 0-7.63-2.95-7.86-3.11l.32-.41c.07.03 5.2 3.3 7.93 2.98 8.7-1.09 18.39-6.29 18.48-6.32l.29.45c-.13.09-9.91 5.29-18.67 6.41z" fill="#0068b3"/><path d="m7449.94 2520.51c-2.03 0-3.18-.35-3.21-.35l.16-.55c0 .04 1.73.55 4.68.26 2.95-.26 4.62-.77 4.62-.77l.19.51c-.09 0-1.7.55-4.78.84-.57.03-1.15.06-1.67.06" fill="#0068b3"/><path d="m7475.25 2514.06-.22-.51c.19-.07 5.23-2.31 9.47-2.34v.57c-4.11.04-9.21 2.25-9.25 2.28" fill="#0068b3"/><path d="m7456.9 2532.32c-.61 0-1.19-.06-1.86-.13-1.32-.16-3.02-.54-3.63-1.51-.26-.41-.26-.89-.06-1.34.73-1.96 4.39-3.79 8.63-5.94 2.34-1.15 4.78-2.41 6.9-3.75 2.53-1.61 3.78-1.54 4.84-1.51.48 0 .9 0 1.38-.16.77-.23 1.29-.74 1.83-1.29.64-.54 1.29-1.09 2.18-1.34 1.67-.42 7.93-.97 8.22-1l.03.58c-.06 0-6.48.54-8.08.93-.81.19-1.35.74-1.93 1.28-.61.52-1.22 1.1-2.05 1.35-.58.19-1.1.19-1.64.16-1 0-2.09-.03-4.49 1.48-2.15 1.34-4.56 2.6-6.93 3.78-3.98 1.99-7.71 3.85-8.38 5.62-.13.32-.13.58.03.87.39.61 1.54 1.02 3.18 1.25 5.74.67 8.44-1.96 8.47-2.02l.35.41c-.06.07-2.27 2.28-6.99 2.28" fill="#0068b3"/><path d="m7467.42 2527.6-.22-.51c.07-.03 3.56-1.12 6.51-3.69.87-.74 1.57-1.44 2.31-2.15 1.74-1.73 3.25-3.21 5.39-3.72 1.35-.32 2.41-.16 3.18-.04.96.13 1.61.23 2.31-.44.39-.26.61-.55.9-.84.9-.93 1.67-1.7 3.56-1.7 2.41 0 3.92.58 4.01.58l-.22.51s-1.51-.51-3.79-.51c-1.7 0-2.31.58-3.17 1.54-.23.22-.55.54-.87.83-.93.84-1.8.71-2.79.58-.8-.1-1.7-.26-2.99.07-1.99.48-3.4 1.82-5.13 3.53-.71.7-1.48 1.44-2.34 2.18-3.02 2.63-6.55 3.75-6.65 3.79" fill="#0068b3"/><path d="m7457.7 2527.86-.32-.45c2.05-1.54 8.47-3.82 8.73-3.91l.19.54c-.1 0-6.61 2.35-8.6 3.82" fill="#0068b3"/><path d="m7460.33 2535.66c-.8 0-2.15-.1-4.78-.74-4.52-1.06-6.42-2.05-6.58-3.53l.58-.06c.1 1.12 1.99 2.08 6.13 3.04 3.47.84 4.68.77 5.29.71h.26v.51c-.07 0-.16.07-.22.07z" fill="#0068b3"/><path d="m7468.48 2534.73-.12-.51c.06-.04 4.74-1.51 8.66-4.75 3.91-3.25 6.29-6.81 6.29-6.84l.48.32c-.07.04-2.44 3.66-6.42 6.96-3.98 3.31-8.85 4.82-8.89 4.82" fill="#0068b3"/><path d="m7487.29 2522.34-.07-.51c.07 0 2.83-.36 4.94-2.15.2-.16.39-.29.58-.48 1.09-.93 1.73-1.54 3.18-.93 1.19.48 2.08.48 3.18.41h.67v.58h-.67c-1.1.03-2.12.03-3.37-.48-1.13-.45-1.54-.1-2.64.83-.16.16-.35.32-.57.49-2.25 1.89-5.14 2.24-5.23 2.24" fill="#0068b3"/><path d="m7478.17 2532.84-.25-.49s1.8-.83 5.32-3.01c3.53-2.15 6.65-5.59 6.71-5.62l.39.36c0 .03-3.21 3.49-6.81 5.71-3.53 2.21-5.32 3.05-5.36 3.05" fill="#0068b3"/><path d="m7441.05 2514-.42-.36c.03 0 2.05-2.5 3.02-3.75.96-1.22 4.13-6.13 4.17-6.16l.45.32c-.13.19-3.21 4.94-4.17 6.16-.97 1.25-2.99 3.76-3.05 3.79" fill="#0068b3"/><path d="m7438.74 2513.68-.45-.29 2.37-3.5.45.32z" fill="#0068b3"/><path d="m7436.36 2516.05-1.19-1.15.39-.39 1.19 1.19z" fill="#0068b3"/><path d="m7437.19 2518.78s-.51-.13-1.15-.13c-.7 0-2.53-.48-2.63-.48l.13-.55c.03.04 1.83.49 2.5.49s1.28.16 1.28.16z" fill="#0068b3"/><path d="m7497.46 2561.3s-.84 6.48-2.63 9.63c-1.8 3.17-3.98 9.94-6.32 12.58-2.35 2.63-2.25 2.05-3.31 4.81-1.12 2.79-.99 6.35-3.75 8.28-2.73 1.95-4.82 4.84-4.82 4.84s-.09 1.8 2.47.29c2.64-1.51 3.21-1.8 4.85-1.12 1.64.67 2.89 1.92 5.13 1.51 2.19-.39 3.86-1.38 3.86-1.38s1.05 1.67 3.14 1.67c2.05 0 2.21-.97 3.72-1.96 1.51-.93 2.76-.23 2.09-4.37-.71-4.2-1.8-14.82-1.12-18.38.67-3.6 1.79-6.36.12-11.2-1.63-4.82-2.47-4.43-3.43-5.2" fill="#fff"/><path d="m7489.34 2582.86c-.19.29-.42.55-.64.84-.48.51-.87.9-1.16 1.22-1.18 1.28-1.22 1.38-2.08 3.53-.32.83-.58 1.7-.77 2.6-.51 2.18-1.09 4.39-3.08 5.77-2.41 1.73-4.37 4.27-4.69 4.72 0 .1.04.29.13.38.1.1.23.13.39.13.25 0 .7-.09 1.57-.54 1.76-1.06 2.6-1.54 3.53-1.54.45 0 .86.13 1.51.41.45.16.86.39 1.28.58.9.55 1.73.96 2.86.96.29 0 .51 0 .8-.06.13 0 .22-.03.35-.1v.61c-.06 0-.16.04-.22.04-.32.03-.64.09-.93.09-1.22 0-2.18-.55-3.15-.99-.35-.26-.8-.45-1.18-.65-.62-.25-.97-.32-1.32-.32-.8 0-1.54.42-3.27 1.41-.74.46-1.35.65-1.83.65-.39 0-.64-.16-.81-.32-.32-.33-.25-.77-.25-.87v-.1l.03-.03c.07-.1 2.15-2.98 4.88-4.88 1.86-1.31 2.37-3.43 2.85-5.45.23-.93.45-1.9.77-2.73.9-2.18 1-2.34 2.25-3.66.26-.32.67-.7 1.16-1.25.35-.42.67-.9 1.02-1.48zm3.66 17.52.13.23c.03 0 1.06 1.51 2.95 1.51 1.32 0 1.73-.39 2.41-1 .32-.25.7-.54 1.15-.86.39-.26.68-.36.96-.49.97-.45 1.48-.64 1-3.65-.74-4.43-1.8-14.93-1.09-18.49.09-.54.22-1.09.35-1.6.61-2.92 1.16-5.43-.22-9.41-1.32-3.81-2.06-4.26-2.76-4.74-.07-.04-.13-.07-.23-.1-.22 1.54-1.02 6.55-2.56 9.31-.65 1.15-1.42 2.82-2.15 4.55-1.09 2.57-2.31 5.39-3.6 7.22v-1.02c1.09-1.77 2.15-4.21 3.11-6.39.74-1.8 1.48-3.47 2.16-4.65 1.73-3.12 2.59-9.5 2.59-9.57l.07-.51.35.32c.2.16.36.29.58.42.77.45 1.61.99 2.95 4.97 1.45 4.14.87 6.84.23 9.69-.13.52-.26 1.1-.32 1.64-.68 3.47.35 13.9 1.05 18.23.58 3.3-.06 3.78-1.25 4.27-.32.12-.61.25-.93.44-.41.33-.74.58-1.06.87-.67.61-1.28 1.12-2.79 1.12-1.76 0-2.89-1.12-3.24-1.6-.51.29-1.83.93-3.5 1.28v-.61c1.96-.38 3.44-1.21 3.44-1.25z" fill="#0068b3"/><path d="m7487.74 2602.05c0-.16-.58-13.57 5.52-22.85 4.36-6.73 4.49-12.06 4.49-12.12h.54c0 .22-.09 5.55-4.62 12.45-5.97 9.11-5.36 22.36-5.36 22.49z" fill="#0068b3"/><path d="m7492.65 2600.58c-.16-.32-3.73-8.44 4.84-22.72 3.21-5.36 2.73-12.33 2.73-12.39l.55-.03c0 .06.48 7.18-2.8 12.67-8.44 14.03-4.87 22.18-4.84 22.27z" fill="#0068b3"/><path d="m7497.46 2601.35c-.55 0-1.15-.1-1.64-.42-.57-.32-.99-.87-1.09-1.64-.32-1.51.39-7.18 1.67-10.39 1.19-3.08 1.64-7.32 1.64-7.35l.54.03c-.03.03-.45 4.36-1.67 7.54-1.28 3.21-1.92 8.79-1.66 10.04.09.62.38 1.06.86 1.29 1.22.74 3.28 0 3.31-.03l.16.54c-.03 0-1.03.39-2.12.39" fill="#0068b3"/><path d="m7500.73 2594.26c-.58 0-1.28-.13-2.15-.62-1.06-.57-1.67-1.15-1.12-3.85l.58.13c-.58 2.51 0 2.76.83 3.24 1.48.81 2.47.45 2.51.45l.22.48c-.03.04-.35.16-.87.16" fill="#332e68"/><path d="m7409.31 2541.15c-.77 1.15.67 1.38 3.27 1.22 2.63-.1 5.68.7 5.52 10.75-.13 10.07-2.21 16.71 1.38 25.57 3.6 8.79 10.37 13.64 14.89 15.57 4.53 1.92 4.53 2.88 4.53 2.88l.73 6.93 27.28-9.4-3.59-5.81s.38-.83.83-2.18c.39-1.38.39-2.79.39-2.79s-1.22-.67-2.35-1.64l-1.06-.99s.36 1.63-.73 2.79c-1.38 1.51-3.41.87-3.41.87s.26 1.47-1.54 2.05c-1.76.51-2.53-.74-2.53-.74s.03 1.22-1.19 1.7c-1.76.68-2.63-.19-2.63-.19s-.07.96-1.6 1.48c-1.51.57-2.09-.36-2.09-.36s-.16 1.42-1.7 1.67c-1.51.29-2.05 0-2.05 0s-.68 1.77-2.19 1.93c-1.25.16-8.02-1.51-11.58-5.65-3.59-4.14-8.41-13.38-7.86-23.33.61-10.88 1.92-17.01-1.38-21.11-3.31-4.14-8.12-3.15-9.34-1.22" fill="#fff"/><path d="m7413.03 2542.11c.84 0 2.12.13 3.15 1.15 1.57 1.54 2.27 4.79 2.18 9.86-.03 2.76-.19 5.23-.39 7.6-.45 6.19-.8 11.46 1.77 17.84 4.17 10.3 12.32 14.41 14.76 15.44 1.6.74 2.73 1.31 3.4 1.76v.68c-.58-.45-1.67-1.09-3.66-1.9-2.4-1.06-10.75-5.26-14.98-15.78-2.7-6.49-2.28-11.85-1.8-18.07.16-2.38.32-4.81.35-7.57.07-4.95-.61-8.03-2.02-9.47-.67-.71-1.57-1-2.76-1h-1.67c-1.47 0-2.18-.16-2.47-.64-.16-.29-.09-.58.16-1.02.68-1.06 2.28-1.77 4.01-1.77 1.29 0 3.73.39 5.81 3.02 2.73 3.37 2.38 8.18 1.83 15.46-.13 1.71-.26 3.69-.38 5.78-.58 10.49 4.81 19.74 7.76 23.17 2.76 3.14 7.35 4.81 9.82 5.36v.58c-2.6-.55-7.38-2.31-10.2-5.59-4.21-4.84-8.44-14.25-7.93-23.52.1-2.12.26-4.11.39-5.81.54-7.41.86-11.9-1.71-15.08-1.95-2.44-4.23-2.86-5.39-2.86-1.54 0-2.98.65-3.53 1.58-.06.12-.19.35-.16.48.1.13.45.35 1.99.35.36 0 .77 0 1.19-.03zm24.87 53.65c1.16.81 1.29 1.22 1.29 1.38l.67 6.55 26.63-9.15-3.5-5.64.07-.13s.42-.87.8-2.18c.32-1.06.42-2.12.42-2.54-.35-.19-1.38-.8-2.25-1.6l-.61-.52c0 .64-.09 1.58-.83 2.31-.8.9-1.86 1.09-2.57 1.09-.32 0-.54-.03-.77-.09-.03.58-.32 1.54-1.7 1.96-.35.12-.67.16-.96.16-.71 0-1.19-.23-1.51-.52-.16.48-.51 1.03-1.25 1.32-.51.19-.99.32-1.41.32-.52 0-.9-.16-1.16-.29-.16.35-.61.93-1.67 1.32-.32.12-.67.19-.99.19-.48 0-.8-.16-1.03-.29-.25.54-.77 1.22-1.76 1.41-.87.16-1.64.13-1.99.03-.26.52-1 1.74-2.31 1.9h-.19c-.36 0-.81-.07-1.42-.16v-.58c.61.13 1.09.22 1.42.22.03 0 .06 0 .12-.06 1.35-.16 1.99-1.7 1.99-1.74l.1-.29.29.17s.19.06.7.06c.36 0 .74-.03 1.16-.09 1.31-.26 1.44-1.42 1.44-1.45l.52-.13c0 .07.29.45.96.45.22 0 .51-.03.83-.16 1.32-.48 1.38-1.22 1.45-1.22l.03-.57.39.35c.03.06.41.35 1.12.35.38 0 .8-.06 1.22-.26.99-.41.99-1.34.99-1.41l.52-.09s.45.67 1.44.67c.26 0 .51-.03.8-.13 1.51-.48 1.32-1.67 1.32-1.7l-.1-.45.45.13s.42.1.96.1c.58 0 1.48-.13 2.19-.9.96-1.03.64-2.5.64-2.5l.45-.29 1.09.96c1.09.96 2.28 1.64 2.31 1.64l.13.06v.16c0 .1 0 1.45-.39 2.89-.38 1.06-.7 1.77-.8 2.09l3.69 5.97-27.98 9.59-.71-7.25s-.09-.23-.74-.74z" fill="#0068b3"/><path d="m7461.68 2565.79c-1.15-4.97-3.27-10.46-7.44-15.08-7.29-8.06-12.13-11.94-12.2-17.3-.03-5.29 4.36-7.54 6.55-6.83 1.28.41.32 1.51-1.8 3.05-2.15 1.5-3.98 4.07 2.47 11.84 6.42 7.7 10.75 11.16 14.96 20.69 1.12 2.51 1.21 5.17 1.21 5.17z" fill="#fff"/><path d="m7453.72 2547.05-.51-.61c-1.32-1.47-2.66-3.01-4.21-4.81-3.24-3.95-4.71-6.93-4.42-9.15.19-1.57 1.18-2.44 2.02-3.08 1.96-1.44 2.31-2.02 2.28-2.28 0-.16-.23-.22-.42-.32-.19-.03-.48-.06-.74-.06-1.15 0-2.47.57-3.43 1.6-.93.87-1.96 2.5-1.96 5.07.03 4.21 3.11 7.45 8.18 12.84 1 1.02 2.06 2.18 3.21 3.46v.84c-1.28-1.45-2.5-2.76-3.62-3.95-4.98-5.26-8.28-8.76-8.32-13.13 0-2.82 1.16-4.58 2.09-5.55 1.09-1.12 2.53-1.73 3.85-1.73.29 0 .61.03.93.1.45.16.74.41.77.77.13.64-.61 1.41-2.47 2.79-.83.58-1.67 1.38-1.83 2.69-.29 2.03 1.16 4.91 4.33 8.76 1.51 1.74 2.86 3.31 4.17 4.79l.1.09zm8.15 18.55 3.24 1.31c-.06-.86-.32-2.79-1.15-4.68-3.08-6.9-6.26-10.69-10.24-15.18v-.87c4.21 4.79 7.51 8.57 10.75 15.86 1.13 2.56 1.22 5.2 1.22 5.29v.45l-4.24-1.8-.06-.16c-1.41-6.16-3.82-11.07-7.35-14.95l-.32-.32v-.84c.22.26.48.52.74.81 3.56 3.91 6 8.85 7.41 15.08" fill="#0068b3"/><path d="m7419.61 2544.16 22.5-9.24z" fill="#fff"/><path d="m7419.74 2544.42-.23-.51 22.47-9.21.19.51z" fill="#0068b3"/><path d="m7457.09 2585.3-16.78-49.54z" fill="#fff"/><path d="m7456.87 2585.37-16.85-49.52.51-.16 16.85 49.52z" fill="#0068b3"/><path d="m7453.11 2586.97-17.52-49.42z" fill="#fff"/><path d="m7452.86 2587.03-17.49-49.38.51-.16 17.49 49.35z" fill="#0068b3"/><path d="m7449.1 2587.77-18.19-48.13z" fill="#fff"/><path d="m7448.88 2587.87-18.2-48.1.51-.23 18.2 48.14z" fill="#0068b3"/><path d="m7445.51 2589.31-19.13-47.71z" fill="#fff"/><path d="m7445.28 2589.38-19.16-47.72.52-.19 19.16 47.71z" fill="#0068b3"/><path d="m7441.66 2590.53-19-47.49z" fill="#fff"/><path d="m7441.43 2590.63-19.03-47.49.52-.2 19.02 47.5z" fill="#0068b3"/><path d="m7463.32 2588.86-6.77 9.28 3.04-1.13 4.91-6.54z" fill="#0068b3"/><path d="m7462.96 2583.09-13.35 17.45 3.25-1.05 11.48-15.73z" fill="#0068b3"/><path d="m7445.51 2589.31-1 .97-1.06.35-4.94 5.49.68 1.95 7.5-8.56z" fill="#0068b3"/><path d="m7449.81 2588.19-10.34 12.9.36 2.5 12.61-15.82z" fill="#0068b3"/><path d="m7457.19 2584.92-.68 1.54-1.6.54-11.71 15.76 3.3-1.22 12.07-16.46z" fill="#0068b3"/></g></svg>