<svg clip-rule="evenodd" fill-rule="evenodd" stroke-linejoin="round" stroke-miterlimit="2" viewBox="0 0 560 400" xmlns="http://www.w3.org/2000/svg"><g fill-rule="nonzero" transform="matrix(1.24654 0 0 1.24654 1262.98 -1063.92)"><path d="m-867.921 1023.25-3.5 12.5h-11.4l14.9-48.602h14.4l15 48.502h-11.8l-3.7-12.5zm12.3-8.2-3-10.3c-.9-2.9-1.7-6.502-2.4-9.402h-.101c-.7 2.9-1.4 6.602-2.2 9.402l-3 10.3z" fill="#282827"/><path d="m-833.521 1012.35c0-4.6-.101-8.6-.301-11.8h9.5l.5 4.9h.101c2.6-3.7 6.6-5.702 11.7-5.702 7.7 0 14.6 6.702 14.6 17.902 0 12.8-8.1 18.9-16 18.9-4.2 0-7.6-1.7-9.1-4h-.101v17.5h-10.9zm10.9 8.3c0 .9.1 1.7.199 2.3.7 3 3.2 5.2 6.4 5.2 4.8 0 7.6-4 7.6-9.9 0-5.6-2.5-9.9-7.4-9.9-3.1 0-5.8 2.3-6.6 5.5-.1.6-.199 1.3-.199 1.9z" fill="#282827"/><path d="m-791.221 1012.35c0-4.6-.101-8.6-.301-11.8h9.5l.5 4.9h.101c2.6-3.7 6.6-5.702 11.7-5.702 7.7 0 14.6 6.702 14.6 17.902 0 12.8-8.1 18.9-16 18.9-4.2 0-7.6-1.7-9.1-4h-.101v17.5h-10.9zm11 8.3c0 .9.1 1.7.2 2.3.7 3 3.2 5.2 6.4 5.2 4.8 0 7.6-4 7.6-9.9 0-5.6-2.5-9.9-7.4-9.9-3.1 0-5.8 2.3-6.6 5.5-.1.6-.2 1.3-.2 1.9z" fill="#282827"/><path d="m-747.821 1035.75v-48.602h6.8l15.6 24.602c3.6 5.7 6.4 10.8 8.7 15.8l.1-.1c-.6-6.5-.7-12.4-.7-19.9v-20.402h5.9v48.502h-6.3l-15.4-24.5c-3.4-5.4-6.6-10.9-9.1-16.202l-.2.1c.4 6.102.5 12.002.5 20.002v20.7z" fill="#282827"/><path d="m-697.821 1019.45c.1 8.6 5.6 12.1 12 12.1 4.5 0 7.3-.8 9.6-1.8l1.1 4.5c-2.2 1-6 2.2-11.6 2.2-10.7 0-17.1-7.1-17.1-17.6s6.2-18.8 16.3-18.8c11.4 0 14.4 10 14.4 16.4 0 1.3-.101 2.3-.2 3zm18.6-4.5c.1-4-1.7-10.3-8.8-10.3-6.4 0-9.2 5.9-9.7 10.3z" fill="#282827"/><path d="m-658.321 990.848v10.002h9.1v4.8h-9.1v18.8c0 4.3 1.2 6.8 4.8 6.8 1.7 0 2.9-.2 3.7-.4l.3 4.8c-1.2.5-3.2.9-5.6.9-3 0-5.3-.9-6.8-2.7-1.8-1.9-2.4-5-2.4-9.1v-19h-5.4v-4.8h5.4v-8.402z" fill="#282827"/><path d="m-623.621 1035.75-.5-4.4h-.2c-1.9 2.7-5.7 5.2-10.7 5.2-7.1 0-10.7-5-10.7-10 0-8.4 7.5-13 21-13v-.7c0-2.9-.8-8.1-7.9-8.1-3.2 0-6.6 1-9.1 2.6l-1.4-4.2c2.9-1.9 7.1-3.1 11.4-3.1 10.7 0 13.2 7.3 13.2 14.3v13c0 3 .1 6 .6 8.4zm-.9-17.8c-6.9-.1-14.8 1.1-14.8 7.8 0 4.1 2.7 6 6 6 4.5 0 7.4-2.9 8.4-5.8.2-.6.4-1.4.4-2z" fill="#282827"/><path d="m-610.821 995.748c0 1.9-1.5 3.3-3.4 3.3s-3.4-1.5-3.4-3.3 1.5-3.3 3.4-3.3c2 0 3.4 1.5 3.4 3.3m-5.9 0c0 1.5 1.1 2.6 2.6 2.6 1.4 0 2.5-1.2 2.5-2.6 0-1.5-1.1-2.6-2.5-2.6-1.5 0-2.6 1.2-2.6 2.6m2.1 1.7h-.8v-3.3c.3-.1.7-.1 1.3-.1s.9.1 1.1.2c.199.1.3.4.3.7 0 .4-.3.6-.7.8.3.1.5.4.6.8.1.5.2.7.2.8h-.7c-.101-.1-.2-.4-.3-.8-.101-.4-.301-.5-.7-.5h-.4v1.4zm0-1.8h.4c.4 0 .8-.1.8-.5 0-.3-.2-.5-.7-.5h-.4z" fill="#282827"/><path d="m-945.121 1024.35v14.6l12.6 7.3 12.6-21.9" fill="#28bdc0"/><path d="m-945.121 1024.35 12.6 7.3 12.6-7.3-12.6-7.3" fill="#5ac6d6"/><g transform="matrix(.264583 0 0 .264583 -1014.32 929.148)"><path d="m356.787 359.811-47.622 27.591v55.181l47.622-27.591" fill="#2ca4ba"/><path d="m309.165 277.039v55.181l47.622 27.591 48-82.772" fill="#cc2d2d"/><path d="m309.165 277.039 47.622 27.591 48-27.591-48-27.59" fill="#e12226"/><path d="m404.787 277.039-48 27.591v55.181l48-27.591" fill="#ad2c2c"/><path d="m213.543 277.039v55.181l48 27.591 47.622-82.772" fill="#a8b94d"/><path d="m213.543 277.039 48 27.591 47.622-27.591-47.622-27.59" fill="#bac83c"/><path d="m309.165 277.039-47.622 27.591v55.181l47.622-27.591" fill="#819e5d"/><path d="m261.543 304.63v55.181l47.622 27.591 47.622-82.772" fill="#ffce00"/><path d="m261.543 304.63 47.622 27.59 47.622-27.59-47.622-27.591" fill="#ffe000"/><path d="m356.787 304.63-47.622 27.59v55.182l47.622-27.591" fill="#e4be44"/><path d="m279.685 201.071v34.016l29.48 16.63 29.103-50.646" fill="#28bdc0"/><path d="m279.685 201.071 29.48 17.008 29.103-17.008-29.103-17.008" fill="#5ac6d6"/><path d="m338.268 201.071-29.103 17.008v33.638l29.103-16.63" fill="#2ca4ba"/><path d="m378.331 371.528v34.015l29.48 17.008 29.102-51.023" fill="#a8b94d"/><path d="m378.331 371.528 29.48 17.007 29.102-17.007-29.102-16.63" fill="#bac83c"/><path d="m436.913 371.528-29.102 17.007v34.016l29.102-17.008" fill="#819e5d"/><path d="m181.417 371.528v34.015l29.103 17.008 29.48-51.023" fill="#cc2d2d"/><path d="m181.417 371.528 29.103 17.007 29.48-17.007-29.48-16.63" fill="#e12226"/><path d="m240 371.528-29.48 17.007v34.016l29.48-17.008" fill="#ad2c2c"/></g></g></svg>