<svg clip-rule="evenodd" fill-rule="evenodd" stroke-linejoin="round" stroke-miterlimit="2" viewBox="0 0 560 400" xmlns="http://www.w3.org/2000/svg"><g transform="matrix(2.56345 0 0 2.56345 -4468.24 -2187.12)"><path d="m1783.456783081 896.808041255h51.266413908v6.808365621h-51.266413908z" fill="#fff" stroke-width=".063027"/><g fill-rule="nonzero"><g transform="matrix(.063027 0 0 .063027 1742.43 885.112)"><path d="m1057.51 1330.9c-1.11-.05-97.86-55.31-215.01-122.8l-213-122.71-.251-354.694-.252-354.696h853.003l-.25 356.208-.25 356.212-210.99 121.29c-116.05 66.71-211.9 121.25-213 121.19z" fill="#daa813"/><path d="m1056.51 1253.99c-1.11 0-83.235-46.49-182.51-103.3l-180.5-103.3-.252-303.696-.251-303.694h727.003l-.25 303.704-.25 303.706-180.49 103.29c-99.27 56.82-181.39 103.3-182.5 103.29z" fill="#f5d77f"/><path d="m1484 343h-855v-211h855zm-547.797-52.035c.937.019 2.883-.503 4.325-1.16s3.263-2.434 4.047-3.95c1.054-2.038 1.425-6.803 1.425-18.305v-15.55h34v17c0 15.594.163 17.163 1.975 18.975 1.086 1.086 3.119 2.262 4.519 2.613s3.907.074 5.573-.616c1.665-.689 3.702-2.559 4.528-4.155 1.268-2.452 1.454-8.353 1.202-38.109l-.297-35.208-2.824-6.11c-1.57-3.398-4.9-8.148-7.5-10.701-2.572-2.524-7.376-5.837-10.676-7.361-4.983-2.302-7.356-2.77-14-2.763-6.649.007-9.052.489-14.234 2.852-3.832 1.747-7.939 4.665-10.658 7.57-2.432 2.601-5.309 6.48-6.392 8.621s-2.475 6.277-3.093 9.191c-.703 3.316-1.11 17.351-1.088 37.5.028 24.805.34 32.75 1.361 34.591.728 1.314 2.4 2.986 3.714 3.714 1.315.729 3.156 1.341 4.093 1.361zm43.797-57.965h-34v-10.032c0-6.164.521-11.279 1.351-13.266.743-1.778 2.984-4.667 4.979-6.418 1.995-1.752 5.212-3.483 7.149-3.846 1.936-.363 5.106-.363 7.042 0 1.937.363 5.154 2.094 7.149 3.846 1.996 1.751 4.236 4.64 4.979 6.418.83 1.987 1.351 7.102 1.351 13.266zm55.3 57.965c.99.019 3.04-.606 4.56-1.39 1.51-.784 3.29-2.605 3.95-4.047.76-1.672 1.19-8.224 1.19-18.075v-15.453h17.45c11.41 0 18.37-.414 20.08-1.195 1.44-.657 3.26-2.434 4.05-3.95.78-1.516 1.42-3.432 1.42-4.258 0-.827-.54-2.683-1.19-4.125-.66-1.442-2.44-3.263-3.95-4.047-2.08-1.075-7.08-1.425-20.31-1.425h-17.55v-8.75c0-6.914.41-9.422 1.96-11.951 1.07-1.761 3.3-3.899 4.94-4.75 2.37-1.221 6.62-1.549 20.1-1.549 12.84 0 17.79-.355 19.86-1.425 1.51-.784 3.29-2.605 3.95-4.047.65-1.442 1.19-3.48 1.19-4.528s-.54-3.086-1.19-4.528c-.66-1.442-2.44-3.263-3.95-4.047-2.06-1.065-6.95-1.425-19.35-1.425-14.14 0-17.56.311-23.11 2.107-3.59 1.159-8.4 3.541-10.7 5.294-2.3 1.754-5.44 5.067-6.99 7.364-1.55 2.316-3.44 7.193-4.24 10.955-1.08 5.111-1.43 14.783-1.42 39.28.02 25.08.32 33.046 1.34 34.89.73 1.314 2.41 2.986 3.72 3.714 1.31.729 3.2 1.341 4.19 1.361zm87.9 0c.94.019 2.89-.503 4.33-1.16s3.26-2.434 4.05-3.95c1.05-2.038 1.42-6.803 1.42-18.305v-15.55h34v17c0 15.594.16 17.163 1.98 18.975 1.08 1.086 3.11 2.262 4.51 2.613s3.91.074 5.58-.616c1.66-.689 3.7-2.559 4.53-4.155 1.26-2.452 1.45-8.353 1.2-38.109l-.3-35.208-2.82-6.11c-1.57-3.398-4.9-8.148-7.5-10.701-2.58-2.524-7.38-5.837-10.68-7.361-4.98-2.302-7.36-2.77-14-2.763-6.65.007-9.05.489-14.23 2.852-3.84 1.747-7.94 4.665-10.66 7.57-2.43 2.601-5.31 6.48-6.39 8.621-1.09 2.141-2.48 6.277-3.1 9.191-.7 3.316-1.11 17.351-1.08 37.5.02 24.805.34 32.75 1.36 34.591.72 1.314 2.4 2.986 3.71 3.714 1.31.729 3.16 1.341 4.09 1.361zm43.8-57.965h-34v-10.032c0-6.164.52-11.279 1.35-13.266.74-1.778 2.99-4.667 4.98-6.418 2-1.752 5.21-3.483 7.15-3.846 1.93-.363 5.11-.363 7.04 0 1.94.363 5.15 2.094 7.15 3.846 1.99 1.751 4.24 4.64 4.98 6.418.83 1.987 1.35 7.102 1.35 13.266zm-516 35h249v-58h-249v29zm562 0h249v-29-29h-249z" fill="#0ab9d8"/><path d="m1028 1161.72c-.83.14-14.32-7.11-30-16.1l-28.5-16.35-.5-117.46-.5-117.463-104 58.826c-67.691 38.289-104.96 58.827-106.75 58.827h-2.75v-505h60.995l.253 196.907.252 196.907 76.25-43.479 76.25-43.479v-245.856h-30.86l-20.955-26.338c-11.526-14.486-22.138-28.211-23.583-30.5l-2.627-4.162h253.015l.26 103.364.25 103.365 23.75-13.578 23.75-13.579v-179.572h166v61h-105v41.5c0 22.825.23 41.5.51 41.5s15.69-8.724 34.25-19.386 35.43-20.091 37.5-20.953l3.76-1.569-.26 39.169-.26 39.169-75.47 43.07-.27 168.353-.26 168.357-28.77 15.99c-16.44 9.14-29.41 15.75-30.25 15.43-1.3-.5-1.48-21.04-1.48-166.682 0-115.289-.32-166.008-1.05-165.766-.57.192-37.01 20.817-80.96 45.834l-79.92 45.484-.29 151.99c-.25 134.17-.46 152.01-1.78 152.23zm7.25-385.682c2.89-1.651 15.03-8.522 26.98-15.27l21.72-12.268.03-90.75.02-90.75h-54v212.04z" fill="#004a79"/></g><path d="m1785.81 958.109v-206.868h4.37v206.868z" fill="#daa813" transform="matrix(.216006 0 0 .216006 1459.35 746.619)"/><path d="m1875.5 953.663c-.6-.101-1.21-.47-1.56-.954-.57-.765-.57-.828-.57-6.32v-4.995h1.21l.03 5.082c.02 4.788.03 5.1.2 5.375.26.428.67.638 1.24.631.6-.008 1.06-.254 1.28-.692.15-.297.16-.753.16-5.36v-5.036h1.22v5.082c0 3.171-.04 5.212-.1 5.427-.35 1.273-1.65 2.006-3.11 1.76zm22.01-.003c-.83-.202-1.58-.816-1.93-1.586-.18-.404-.19-.603-.19-4.598 0-4.827-.01-4.775.78-5.573 1.28-1.274 3.32-.985 4.25.599l.26.438v4.449c0 4.427 0 4.452-.21 4.825-.26.469-.45.689-.87.998-.55.406-1.45.601-2.09.448zm1.28-1.385c.15-.085.36-.274.47-.419.19-.258.2-.365.23-4.309.03-4.604.03-4.566-.69-4.988-.67-.395-1.44-.244-1.93.378l-.22.279-.03 4.074c-.02 4.287-.02 4.389.4 4.782.49.457 1.19.537 1.77.203zm-47.35 1.134c0-.039-.01-2.758-.02-6.043l-.02-5.972 1.69.002c1.43.002 1.74.028 2.06.173.58.263.95.627 1.23 1.211l.27.534v8.338l-.26.515c-.31.631-.92 1.077-1.65 1.216-.59.11-3.29.131-3.3.026zm3.46-1.431c.58-.355.59-.434.56-4.673l-.03-3.818-.26-.344c-.4-.524-.68-.625-1.7-.625h-.9v9.649h1.01c.84 0 1.06-.031 1.32-.189zm4.01 1.438c-.03-.034-.06-2.753-.06-6.042v-5.98h3.85l-.06 1.171-1.29.026-1.28.026v4.21h2.63l-.06 1.171-1.29.027-1.28.026v4.21h2.62v1.218h-1.86c-1.02 0-1.89-.028-1.92-.063zm9.02-5.982v-6.044l3.8.051v1.124l-1.29.026-1.29.026v4.211h2.64l-.06 1.171-1.29.026-1.29.026v5.428h-1.22zm14.81 6.045v-10.867h-2.06v-1.218h5.24v1.218h-2.06v10.867zm5.06.015v-12.115l1.66.031c1.87.035 2.09.098 2.76.796.61.631.72 1.027.73 2.446 0 1.344-.06 1.58-.55 2.293l-.27.401.23.279c.12.154.34.49.48.748.24.445.25.534.25 1.78 0 1.505-.12 1.894-.76 2.526-.68.663-.99.748-2.87.784zm3.26-1.365c.13-.073.38-.265.53-.428l.28-.295v-1.236c0-1.153-.01-1.256-.22-1.55-.32-.45-.7-.575-1.74-.575h-.9v4.216h.9c.59 0 .98-.045 1.15-.132zm.09-5.567c.57-.41.77-1.194.63-2.501-.06-.559-.11-.677-.42-1.018l-.36-.385-.99-.031-1-.032v4.25l.92-.032c.77-.028.96-.065 1.22-.251zm11.82 6.917v-12.085h1.22v10.867h3v1.218zm-26.95-12.658-.5-.515.48-.674.47-.674.47.437c.25.24.46.45.46.466 0 .015-.31.238-.69.494zm-9.01-3.558c-.39-.194-.68-.429-.9-.718-.6-.786-.62-.934-.59-5.47.03-3.928.03-4.076.23-4.497.23-.49.8-1.11 1.27-1.362.23-.125.52-.168 1.15-.169.71-.001.91.035 1.3.231.53.272.94.717 1.22 1.309.19.414.2.553.2 4.689 0 3.846-.02 4.298-.17 4.622-.46 1.029-1.41 1.655-2.5 1.655-.52 0-.73-.053-1.21-.29zm1.97-1.14c.17-.116.41-.399.53-.628.2-.413.21-.464.21-4.169 0-2.172-.04-3.89-.1-4.083-.05-.182-.24-.473-.41-.645-.63-.605-1.78-.467-2.24.266-.2.335-.2.357-.2 4.429 0 4.005 0 4.097.19 4.356.51.693 1.38.897 2.02.474zm17.26 1.258c-.75-.258-1.43-.93-1.77-1.73l-.13-.33.43-.149c.6-.205.65-.194.83.18.31.655 1.11 1.066 1.81.937.72-.131 1.07-.6 1.08-1.46.01-.724-.48-1.701-1.35-2.674-1.72-1.93-2.13-2.551-2.4-3.619-.3-1.153.07-2.439.84-2.958.59-.398.99-.53 1.61-.531 1.06-.002 2.08.732 2.23 1.603.05.29.05.294-.47.397-.28.058-.55.085-.59.061s-.1-.169-.13-.323c-.11-.565-.88-.802-1.59-.488-.77.338-1 1.186-.59 2.169.28.694.81 1.449 1.82 2.602 1 1.136 1.35 1.665 1.62 2.417.27.735.29 1.883.06 2.491-.22.567-.83 1.123-1.51 1.377-.64.241-1.16.249-1.8.028zm10.77.02c-.5-.18-1.1-.697-1.41-1.238l-.26-.437v-4.45c0-4.385 0-4.455.2-4.825.5-.925 1.37-1.447 2.42-1.449.82-.001 1.44.265 1.96.838.74.827.72.668.69 5.551l-.03 4.335-.25.437c-.69 1.161-2.07 1.679-3.32 1.238zm1.6-1.21c.17-.08.41-.28.53-.445l.23-.301.02-4.075c.02-3.831.02-4.095-.15-4.403-.52-.981-1.96-1.021-2.55-.072-.18.296-.18.444-.16 4.428l.03 4.122.22.315c.39.544 1.19.733 1.83.431zm-47.16-4.888v-6.023h1.55c1.97 0 2.28.077 2.9.697.67.668.79 1.078.79 2.663 0 1.425-.09 1.732-.71 2.38-.58.616-.96.755-2.24.813l-1.12.052-.09 5.435-1.08.006zm3.26-.789c.69-.335.78-.576.75-2.02l-.03-1.237-.32-.334c-.41-.414-.83-.534-1.77-.499l-.72.027-.03 2.012c-.01 1.107 0 2.066.03 2.131.03.084.28.12.86.12.64 0 .9-.043 1.23-.2zm3.67.813v-6.047h1.61c.95 0 1.75.045 1.97.11.51.154 1.18.777 1.44 1.339.2.424.22.604.22 1.793.01.758-.04 1.456-.1 1.639-.18.509-.59 1.049-1 1.302-.21.129-.39.277-.39.33 0 .052.35 1.307.78 2.79.43 1.482.75 2.715.71 2.739s-.35.036-.69.027l-.61-.017-.14-.475c-.07-.262-.37-1.403-.65-2.536-.29-1.134-.55-2.158-.59-2.276-.05-.201-.09-.213-.71-.187l-.66.027-.02 5.433-1.17.055zm3.28-.824c.31-.153.48-.326.64-.632.19-.377.21-.526.18-1.406-.02-.835-.06-1.037-.24-1.337-.34-.545-.66-.67-1.74-.673l-.93-.003.01 2.061c.01 1.133.02 2.092.02 2.131s.37.07.82.07c.67 0 .9-.04 1.24-.211zm11.52.8v-6.023h3.75v1.119l-1.29.026-1.29.026v4.216l1.29.026 1.29.026v.55c0 .515-.02.553-.25.611-.13.034-.67.057-1.19.051s-1-.008-1.07-.005c-.09.004-.11.611-.11 2.704v2.699l-1.13-.004zm5.39 5.894c-.03-.074-.05-2.786-.05-6.026v-5.891h3.84v1.119l-1.29.026-1.29.026-.05 4.263h2.63v.55c0 .542 0 .552-.29.609-.17.032-.75.059-1.31.059h-1.02v4.216h2.63l-.06 1.171-1.84.006c-1.53.005-1.86-.018-1.9-.128zm13.32.11c-.04-.037-.07-2.754-.07-6.038v-5.971l.46-.032c.25-.018.52-.019.61-.002.14.028.15.518.13 6.042l-.02 6.013-.52.027c-.29.015-.55-.002-.59-.039zm11.11-.002c-.1-.039-.12-1.336-.12-6.037v-5.988l.68.001h.68l1.68 4.59 1.69 4.589.05-9.18h1.22l-.05 12.038-.57.028c-.41.019-.61-.011-.68-.105-.06-.073-.73-1.793-1.48-3.822s-1.5-4.048-1.66-4.486l-.3-.796-.09 9.181-.47.018c-.26.01-.52-.004-.58-.031zm7.64.013c-.03-.025.09-.773.26-1.662 1.03-5.426 1.92-10.077 1.96-10.259.04-.194.1-.211.69-.211s.65.018.7.211c.03.116.2.991.38 1.944s.67 3.525 1.08 5.714c.42 2.19.77 4.044.78 4.12.02.109-.1.14-.53.143-.3.002-.56-.028-.59-.067-.02-.04-.14-.61-.27-1.267-.13-.658-.25-1.291-.28-1.408-.05-.208-.07-.212-1.26-.203-1.04.008-1.22.031-1.26.166-.02.086-.15.716-.28 1.401s-.26 1.285-.29 1.335c-.06.091-1 .129-1.09.043zm3.84-4.333c-.29-1.917-.88-5.363-.92-5.363s-.43 2.264-.91 5.27l-.05.351h1.92zm3.86-7.705h1.12v10.82h3.05v1.199h-4.17zm-55.79-3.966c-.56-.183-.81-.329-1.19-.7-.64-.61-.65-.663-.62-5.651l.03-4.438.23-.417c.78-1.384 2.91-1.732 4.27-.696.35.269.7.838.7 1.152 0 .145-.11.22-.49.332-.65.195-.67.191-.81-.185-.07-.205-.23-.387-.42-.484-.41-.214-1.33-.212-1.73.003-.57.305-.58.365-.58 4.885 0 4.446.01 4.527.53 4.874.37.25 1.37.254 1.78.006.53-.318.59-.608.59-2.541v-1.73h-1.21v-1.218h2.45l-.03 2.553c-.04 2.815-.07 2.992-.66 3.601-.6.62-1.98.938-2.84.654zm-11.1-.156v-12.085h1.12v10.867h3v1.218zm5.81 0v-12.085h1.21v12.085zm10.61-.352c.03-.193.26-1.468.52-2.833.26-1.366.73-3.832 1.04-5.481s.59-3.093.62-3.209c.04-.193.1-.21.69-.21.54 0 .66.028.7.164.03.09.34 1.723.7 3.63 1.04 5.502 1.51 7.95 1.55 8.127.03.142-.04.164-.55.164h-.59l-.26-1.335c-.14-.733-.28-1.387-.3-1.452-.03-.086-.37-.117-1.25-.117-1.18 0-1.21.006-1.25.21-.03.116-.14.675-.24 1.242-.11.566-.22 1.125-.24 1.241-.04.191-.1.211-.62.211h-.57zm3.81-3.841c0-.211-.89-5.457-.93-5.457-.03 0-.23 1.128-.46 2.506-.22 1.379-.43 2.622-.45 2.764l-.05.258h.95c.52 0 .94-.032.94-.071z" fill="#004a79"/></g></g></svg>