<svg clip-rule="evenodd" fill-rule="evenodd" viewBox="0 0 560 400" xmlns="http://www.w3.org/2000/svg"><g fill-rule="nonzero" transform="matrix(1.84556 0 0 -1.84556 319.372 2166.75)"><path d="m-21.333 1007.77c-.928.1-3.788 5.97-3.788 5.97-1.756-.73-2.559-3.44-2.559-3.44s-3.763 1.43-3.612 6.07c-.677-.17-1.405-1.4-1.606-2.71-1.981.6-2.483 4.72-1.605 6.1-1.756 3.73-2.96 7.67-5.067 11.29-3.21 2.65-7.676.67-10.661-1.03-.903-.68-2.107-1.43-2.483-2.59-.402.2-.753.48-.904 1.56.051 6.22-4.415 6.14-8.278 12.27-.351.57-.477 1.07-.953 1.93-.803-.5-1.756-2.91-1.756-2.91-4.565 3.11-5.167 8.3-3.688 10.98-1.278-.6-1.93-2.18-2.984-3.16-1.38 1.46-1.43 2.29-1.606 3.62.201 7.1 9.357 13.04 14.7 15.4 8.429 3.76 11.138 3.33 12.292 3.03 2.985-.82 4.365-4.21 7.073-5.61 2.007-1.48 5.143-1.39 7.225-.08.326.2.727.35 1.028.65-6.397-.15-11.212 3.72-15.878 7.55-13.998-.02-27.142-12.31-27.142-12.31-.301 2.71.025 8.95 3.612 13.02-.752.4-3.687-1.28-5.544-3.39 1.782 5.89 3.312 11.24 11.313 16.63 1.38 1.63.953 4.42.376 5.32-2.358 5.09-3.236 11.16-1.655 16.75.978 5.05 5.519 14.73 5.795 14.86.602-.33 4.992-5.92 10.661-7.8 3.813-1.26 7.702-2.97 10.209-6.73 2.734.4 3.863 3.04 5.544 4.64 2.509-1.4 4.44-3.36 7.526-2.15 2.559 1.07 2.935 3.06 4.415 4.59 1.455-1.53 1.856-3.47 4.415-4.57 3.086-1.2 5.016.75 7.525 2.16 1.681-1.61 2.81-4.22 5.544-4.62 2.508 3.74 6.397 5.45 10.21 6.73 5.669 1.88 10.058 7.45 10.66 7.77.276-.12 4.817-9.78 5.795-14.85 1.581-5.57.703-11.64-1.655-16.76-.577-.9-1.004-3.68.376-5.32 8.002-5.36 9.532-10.71 11.314-16.6-1.857 2.08-4.792 3.76-5.544 3.36 3.587-4.04 3.913-10.28 3.612-12.99 0 0-13.095 12.34-27.142 12.29-4.666-3.84-9.482-7.68-15.879-7.55.301-.3.702-.43 1.028-.63 2.082-1.31 5.218-1.4 7.225.05 2.709 1.4 4.089 4.79 7.074 5.62 1.154.3 3.888.7 12.341-3.06 5.319-2.36 14.45-8.28 14.651-15.35-.176-1.36-.226-2.16-1.606-3.62-1.054.96-1.706 2.54-2.985 3.14 1.48-2.68.878-7.88-3.688-10.96 0 0-.953 2.41-1.756 2.91-.476-.88-.602-1.38-.953-1.93-3.863-6.15-8.328-6.07-8.277-12.3-.151-1.08-.502-1.33-.904-1.53-.376 1.13-1.58 1.91-2.483 2.56-2.985 1.71-7.451 3.69-10.662 1.06-2.107-3.62-3.311-7.58-5.067-11.32.878-1.38.376-5.47-1.605-6.09-.201 1.3-.929 2.56-1.606 2.71.151-4.62-3.611-6.07-3.611-6.07s-.803 2.73-2.559 3.43c0 0-2.835-5.89-3.788-5.99"/><g transform="matrix(.8 0 0 -.8 -76.3712 1124.46)"><path d="m21.229 9.481c-2.602 5.456-4.076 11.413-4.107 17.935.125 6.21 4.107 11.196 2.916 17.563 1.913-.815 3.607-1.098 5.52-1.004 2.633-5.833-2.447-11.917-5.676-16.182-.158-.281 2.695 1.726 3.98 1.256-5.298-5.08-3.886-10.787-2.443-13.484.125 1.16.406 1.818 1.158 2.54 3.731 3.95 8.875 5.989 10.6 11.006.282-8.31-8.529-13.044-11.948-19.629zm94.507.878c-3.42 6.617-12.23 11.319-11.95 19.661 1.73-5.018 6.87-7.088 10.6-11.038.76-.69 1.04-1.379 1.16-2.507 1.45 2.665 2.86 8.371-2.44 13.451 1.28.501 4.14-1.535 3.98-1.223-3.23 4.264-8.31 10.348-5.68 16.15 1.92-.094 3.61.185 5.52 1.002-1.19-6.367 2.79-11.321 2.92-17.56-.03-6.523-1.51-12.448-4.11-17.936zm-12.29 5.518c-4.015 2.666-13.984 5.207-10.033 22.358.188.69-2.98-.91-4.643.282 3.607 2.633 6.743 6.272 8.843 9.972 2.503-1.692 5.673-3.073 8.433-3.638-6.52-7.182-8.747-17.152-5.3-24.396.75-1.567 1.67-3.135 2.7-4.578zm-70.174.125c1.034 1.442 1.943 3.011 2.696 4.58 3.449 7.244 1.253 17.214-5.301 24.396 2.76.565 5.928 1.944 8.436 3.636 2.101-3.7 5.236-7.337 8.842-9.97-1.662-1.193-4.797.406-4.64-.284 3.951-17.151-6.019-19.692-10.033-22.358zm35.493 6.398s-4.231 7.872-13.89 2.258c-1.316 1.663-3.041 3.418-5.236 4.045.47 2.54.47 2.603.218 5.737 1.507-.815 2.415-2.069 3.668-3.385 1.507.313 1.633 3.072 3.514 2.79 2.101-1.6 4.013-3.637 6.521-4.234.878 1.255-1.631 1.883-1.003 3.451 1.38 1.033 2.854 1.818 4.14 3.072.344.314.218.879-.189 1.129-15.271-2.665-24.647 14.645-25.931 17.09-5.205-3.073-10.757-6.241-17.529-4.547-5.143 1.38-9.563 4.987-13.169 9.408 1.254-.408 3.104.093 5.141 1.724-3.26 3.103-4.671 6.051-5.706 9.626 3.575-2.101 10.6-8.341 27.469-8.341-.846-1.757-1.725-3.197-1.694-4.702.47-.439.251-.253 1.191-.817 2.447 4.138 6.399 8.089 10.662 10.253 3.137 1.098 6.021 2.762 9.595 2.793 4.233-.408 7.148 3.071 9.846 6.02-.095.721.691 1.474-.313 1.724-1.536-.501-3.2-.658-4.799-1.002-3.356 3.041-7.242 5.391-11.946 4.514-4.766-1.129-9.282-3.292-12.637-7.432-.626.628-1.16 1.287-1.724 1.914-2.259 2.917-4.798 5.894-5.299 9.407 2.603-.472 7.996-.439 10.756 2.727-1.004.314-5.112 3.323-6.022 7.432 1.819-.879 3.762-1.945 9.721-3.92.25.125.627.44.502.691-1.066 2.571-3.481 5.173-1.818 8.244 1.756 3.29 8.968 4.39 9.845 5.24 1.505 3.48 2.508 6.49 3.888 9.879.25.81 1.347 1.56 2.006 1.94 3.386.85 6.805 1.19 10.16 1.19 3.386 0 6.93-.37 10.285-1.22.659-.38 1.757-1.13 2.008-1.91 1.379-3.389 2.381-6.429 3.886-9.909.879-.85 8.124-1.95 9.879-5.24 1.631-3.073-.752-5.674-1.85-8.245-.125-.251.251-.566.502-.691 5.958 1.975 7.904 3.041 9.754 3.919-.94-4.077-5.02-7.117-6.024-7.431 2.728-3.135 8.154-3.199 10.724-2.728-.5-3.512-3.04-6.49-5.3-9.406-.53-.627-1.09-1.287-1.72-1.914-3.326 4.14-7.842 6.303-12.608 7.432-4.735.877-8.622-1.474-11.977-4.516-1.569.345-3.263.503-4.799 1.004-1.004-.25-.219-1.003-.281-1.725 2.665-2.947 5.58-6.427 9.814-6.019 3.605-.031 6.49-1.696 9.626-2.793 4.265-2.164 8.183-6.115 10.665-10.253.91.564.72.378 1.16.816.06 1.505-.85 2.977-1.66 4.734 16.959 0 23.859 6.209 27.459 8.31-1.06-3.575-2.44-6.523-5.74-9.627 2.04-1.63 3.89-2.131 5.15-1.723-3.61-4.422-8.03-8.029-13.17-9.409-6.779-1.693-12.319 1.475-17.499 4.547-1.285-2.445-10.693-19.755-25.932-17.09-.439-.251-.564-.815-.219-1.128 1.285-1.254 2.759-2.039 4.139-3.073.627-1.567-1.882-2.196-1.004-3.45 2.508.596 4.423 2.633 6.523 4.233 1.881.282 2.006-2.476 3.511-2.79 1.254 1.317 2.165 2.571 3.67 3.386-.189-3.26-.253-3.322.218-5.737-2.163-.626-3.918-2.382-5.205-4.045-9.656 5.614-13.922-2.227-13.922-2.227zm-20.632 86.699c2.132 6.019 4.893 11.829 7.119 17.849 1.035 2.63 2.695 2.91 4.482 4.95.69.85 1.412 1.82 1.444 2.79.972-.91 6.051-.85 7.618 2.26 1.567-3.11 6.617-3.17 7.59-2.26.031-.97.782-1.94 1.441-2.79 1.819-2.04 3.449-2.32 4.484-4.95 2.227-6.02 4.987-11.83 7.12-17.849-.91 0-1.915.22-2.291 1.23-1.098 2.79-6.803 16.149-8.748 18.969 0 0-1.662 3.57-9.596 3.57-7.933 0-9.593-3.57-9.593-3.57-1.976-2.82-7.684-16.179-8.75-18.969-.376-1.01-1.379-1.23-2.32-1.23z" fill="#cc092f"/><g stroke-width=".2"><path d="m57.728 120.888c.909 1.79 1.82 3.61 2.76 5.27l1.946-3.57c.376.44 1.566 1.38 2.57 2.16.25-.37 1.192-1.28 1.756-1.91.721.63 1.692 1.19 2.036 1.54.345-.35 1.318-.91 2.039-1.54.564.63 1.506 1.54 1.756 1.91.972-.78 2.194-1.72 2.539-2.16l1.976 3.57c.909-1.66 1.851-3.48 2.729-5.27-4.264 1.13-6.524 1.1-11.039 1.07-4.514.03-6.804.06-11.068-1.07zm12.48 7.12c-.314.38-.753.57-1.412 1.51-.689-.94-1.096-1.07-1.409-1.48-.909 1.01-.847 1.04-1.6 1.76-.91-.72-1.127-.85-2.006-1.54l-1.316 1.35c2.257 1.85 4.669 1.44 6.331 1.79 1.662-.35 4.076 0 6.303-1.82l-1.317-1.38c-.879.69-1.096.82-1.974 1.57-.784-.75-.723-.88-1.6-1.76z" fill="#fefefe" stroke="#fff"/><path d="m60.049 55.2c1.066 2.101.941 4.326.941 4.326-4.704-4.766-19.506-2.005-19.506-2.005 3.858 1.661 14.269.124 20.698 12.04 3.512-2.32 3.323-11.852-2.133-14.361zm17.309.094c-5.456 2.476-5.645 12.04-2.132 14.329 6.428-11.915 16.837-10.379 20.695-12.04 0 0-14.8-2.76-19.504 2.006 0 0-.125-2.226.941-4.295zm-12.921 26.282c-4.18.034-6.924 4.071-9.091 7.362-.252.408-.095 1.004.502.911 2.602-1.757 4.984-4.139 8.121-4.609 1.912-.376 3.574.219 4.827 1.473 1.254-1.254 2.886-1.849 4.83-1.473 3.136.47 5.519 2.852 8.09 4.609.596.093.752-.503.502-.911-2.447-3.761-5.707-8.496-10.975-7.118-.752.127-1.506.66-2.447 1.287-.972-.627-1.723-1.16-2.476-1.287-.658-.172-1.285-.249-1.883-.244zm.442 9.208c-3.761.016-6.238 3.627-8.186 6.59-.22.376-.061.91.44.848 2.351-1.6 4.484-3.733 7.306-4.141 1.725-.345 3.229.19 4.357 1.318 1.129-1.128 2.603-1.663 4.328-1.318 2.822.408 4.954 2.541 7.307 4.141.532.062.659-.472.439-.848-2.226-3.386-5.144-7.62-9.879-6.365-.69.094-1.349.564-2.195 1.16-.877-.596-1.534-1.066-2.224-1.16-.592-.157-1.156-.227-1.693-.225zm3.917 10.195c-.783 0-1.692.25-2.476.72-1.85 1.1-3.543.04-5.519.41-1.223.54-2.539 1.54-3.229 2.79-1.285 3.73 1.255 6.37 2.822 9.13 1.505 1.659 3.889 1.309 5.895.779.784-.809 1.599-1.099 2.507-1.129.877.03 1.726.32 2.51 1.129 2.006.53 4.389.88 5.894-.779 1.536-2.76 4.107-5.4 2.791-9.13-.659-1.25-2.006-2.25-3.197-2.79-1.976-.37-3.67.69-5.52-.41-.783-.47-1.726-.72-2.478-.72z" stroke="#000"/></g></g></g></svg>