<svg clip-rule="evenodd" fill-rule="evenodd" stroke-linejoin="round" stroke-miterlimit="2" viewBox="0 0 560 400" xmlns="http://www.w3.org/2000/svg"><path d="m395.904 213.552 10.788-35.928 10.812 35.928zm-79.119 11.802h-6.66v-49.745h6.573c9.971 0 21.038 4.161 21.038 24.747 0 18.266-9.797 24.998-20.951 24.998m-175.481-11.802 11.035-36.362 10.844 36.362zm285.061-63.749h-37.116l-21.212 61.611c.996-5.12 1.156-9.19 1.156-10.989 0-25.807-14.712-50.622-49.28-50.622h-39.65l.073 61.301c-3.408-17.412-19.211-22.112-38.87-28.109-7.372-2.252-11.41-5.874-9.939-9.258 1.256-2.937 5.75-3.86 11.232-3.088 8.34 1.169 14.995 3.992 21.43 7.495l8.779-21.819c-1.991-1.028-16.196-9.546-33.982-9.546-24.875 0-40.706 12.141-40.706 30.132 0 15.996 9.834 25.313 27.871 30.571 19.385 5.613 24.308 7.906 23.733 13.538-.53 4.8-12.556 10.702-41.98-7.468l-8.715 18.156-27.045-81.905h-37.088l-35.056 101.829h29.264l4.545-14.411h36.878l4.349 14.411h30.739l-3.503-9.953c10.373 6.024 23.271 11.542 38.664 11.542 23.555 0 36.303-12.949 39.377-25.373v23.784h39.564c23.596 0 35.946-11.319 42.378-23.423l-8.058 23.423h29.233l4.704-14.411h36.847l4.243 14.411h30.776z" fill="#7dc242" fill-rule="nonzero"/></svg>