<svg clip-rule="evenodd" fill-rule="evenodd" stroke-linejoin="round" stroke-miterlimit="2" viewBox="0 0 560 400" xmlns="http://www.w3.org/2000/svg"><g fill-rule="nonzero" transform="matrix(.80405 0 0 .80405 38.7046 38.7578)"><g fill="#211261"><path d="m185.8 284.7v-6.5h5.7l8.4-21.1h-4.5v-6.5h13.9l10.7 27.6h5.1v6.5h-15.3v-6.5h2.8l-1.7-4.9h-11.2l-1.7 4.9h3.2v6.5zm15.6-16.1h7.8l-3.9-11z"/><path d="m231.5 283.2c-1.7-1.8-2.5-4.5-2.5-8.1v-10.8h-4.8v-5.8h4.8v-4.7l7.1-2.3v6.9h6.9v5.8h-7v9.1c0 2.1.3 3.7 1 4.8.6 1.1 1.6 1.6 2.9 1.6 1 0 2.3-.4 3.8-1.2l1.4 5.4c-2.3 1.2-4.4 1.7-6.2 1.7-3.3.3-5.8-.6-7.4-2.4z"/><path d="m260 285.9c-3.7 0-6.6-.7-8.5-2.1s-2.9-3.5-2.9-6.2.9-4.8 2.8-6.2 4.6-2.1 8.2-2.1h6.1c0-2.1-.5-3.7-1.4-4.9-.9-1.1-2.1-1.7-3.6-1.7-1.6 0-3.1.2-4.4.7l-.5 2.7-6.1-.8 1.1-6.5c3.2-1.1 6.6-1.7 10.2-1.7 3.9 0 6.8 1 8.9 3.1 2.1 2 3.1 5 3.1 8.9v9.4l4.7 1.5-2 6-7.3-2.5c-2.9 1.7-5.6 2.4-8.4 2.4zm-3-11.1c-.6.6-1 1.5-1 2.7 0 2 1.4 3.1 4.2 3.1 1.9 0 3.7-.5 5.4-1.5v-5.1h-5.9c-1.1-.1-2.1.2-2.7.8z"/><path d="m285.5 283.2c-1.7-1.8-2.5-4.5-2.5-8.1v-10.8h-4.8v-5.8h4.8v-4.7l7.1-2.3v6.9h6.9v5.8h-6.9v9.1c0 2.1.3 3.7 1 4.8s1.6 1.6 2.9 1.6c1 0 2.3-.4 3.8-1.2l1.4 5.4c-2.3 1.2-4.4 1.7-6.2 1.7-3.4.3-5.8-.6-7.5-2.4z"/><path d="m322.5 285.2c-1.5.4-3 .6-4.3.6-4.1 0-7.1-.9-9-2.7s-2.8-4.6-2.8-8.4v-10.5h-4.4v-5.8h11.7v15.4c0 1.9.4 3.3 1.1 4.2s1.9 1.3 3.6 1.3c.7 0 1.6-.1 2.7-.4 1.1-.2 2.1-.6 3.2-1v-13.6h-4.4v-5.8h11.7v19.4l5 1.7-2 6.4-7.9-2.5c-1.3.7-2.7 1.3-4.2 1.7zm-7.5-38.1c.8.8 1.3 1.8 1.3 2.9 0 1.2-.4 2.2-1.3 3-.8.8-1.8 1.2-2.9 1.2-1.2 0-2.2-.4-3-1.2s-1.2-1.8-1.2-3c0-1.1.4-2.1 1.2-2.9s1.8-1.3 3-1.3c1 .1 2 .5 2.9 1.3zm11.3 0c.8.8 1.2 1.8 1.2 2.9 0 1.2-.4 2.2-1.2 3s-1.8 1.2-2.9 1.2c-1.2 0-2.2-.4-3-1.2s-1.2-1.8-1.2-3 .4-2.1 1.2-3c.8-.8 1.8-1.2 3-1.2 1.1.1 2.1.5 2.9 1.3z"/><path d="m355.4 258.3c1.5-.5 2.9-.8 4.3-.8 1.5 0 3.1.3 4.8 1l1 7.6-6.1 1.3-.6-3.1c-2.7.3-4.7 1-6.1 2.1l-.1 12.5h5.7v5.8h-17.8v-5.8h4.9v-13.2l-5.6-1.9 1.9-5.9 8.8 2.9c1.8-1.1 3.4-2 4.9-2.5z"/><path d="m369 245.5 10.9 3.7v19.8h3.8l2.7-4.6h-2.9v-5.8h14.6v5.8h-4.1l-5.1 7.4 5.1 7.2h4.7v5.8h-8.3l-6.4-10h-4v4.2h1.7v5.8h-13.9v-5.8h4.9v-25.7l-5.5-1.8z"/><path d="m160.7 350.8c-2.3 2.3-5.6 3.4-10.1 3.4s-7.9-1.1-10.2-3.4-3.5-5.6-3.5-10.1v-15.3h-4.7v-6.5h15.3v6.5h-3.2v16.3c0 2.3.5 3.9 1.5 4.9s2.6 1.5 4.7 1.5c2 0 3.6-.6 4.6-1.7s1.5-2.9 1.5-5.3v-15.7h-3.2v-6.5h15.4v6.5h-4.7v15.3c0 4.4-1.1 7.8-3.4 10.1zm-13-43.2c.8.8 1.3 1.8 1.3 3s-.4 2.1-1.3 3c-.8.8-1.8 1.2-2.9 1.2-1.2 0-2.2-.4-3-1.2s-1.2-1.8-1.2-3c0-1.1.4-2.1 1.2-3 .8-.8 1.8-1.3 3-1.3 1 0 2 .4 2.9 1.3zm11.3 0c.8.8 1.2 1.8 1.2 3s-.4 2.1-1.2 3c-.8.8-1.8 1.2-2.9 1.2-1.2 0-2.2-.4-3-1.2s-1.2-1.8-1.2-3 .4-2.1 1.2-3c.8-.8 1.8-1.2 3-1.2 1.1-.1 2.1.3 2.9 1.2z"/><path d="m172 347.1h4.9v-13.1l-5.6-1.9 1.9-5.9 8.2 2.8c1.7-1.2 3.4-2 4.9-2.6s3.4-.8 5.6-.8c3.5 0 6.1 1 7.7 3.1 1.6 2 2.4 4.7 2.4 8.1v10.4h4.8v5.8h-14.5v-5.8h2.4v-9.5c0-1.8-.4-3.1-1.1-4.1s-1.9-1.4-3.6-1.4c-1.1 0-2.2.2-3.2.6-1.1.4-2 .8-2.7 1.4v13.1h2.3v5.8h-14.4z"/><path d="m210.8 326.7h12.2v20.4h4.8v5.8h-16.9v-5.8h4.8v-14.6h-4.8v-5.8zm10.9-11.5c.8.8 1.2 1.8 1.2 3s-.4 2.2-1.2 3-1.8 1.1-3 1.1-2.2-.4-3-1.1c-.8-.8-1.1-1.7-1.1-3s.4-2.2 1.1-3 1.7-1.2 3-1.2c1.2.1 2.2.5 3 1.2z"/><path d="m227.8 326.7h14.8v5.8h-3.3l3.5 8.5 2.1 5.6 2.1-5.6 3.6-8.5h-3.4v-5.8h14.7v5.8h-3.6l-9.4 20.4h-8l-9.1-20.4h-4z"/><path d="m283.1 353c-1.9.7-3.8 1.1-5.7 1.1-3 0-5.6-.6-7.8-1.8-2.3-1.2-4-2.9-5.2-5-1.2-2.2-1.8-4.6-1.8-7.3 0-2.9.6-5.4 1.7-7.5 1.1-2.2 2.7-3.9 4.8-5.1s4.4-1.8 7.1-1.8c2.8 0 5.2.6 7.3 1.6 2.1 1.1 3.7 2.7 4.8 4.7s1.7 4.4 1.7 7c0 1.2-.1 2.4-.3 3.6h-20.1c.2 1.9 1 3.4 2.5 4.4s3.3 1.5 5.4 1.5c3.2 0 6.1-1 8.8-3.1l2.4 4.4c-1.9 1.5-3.7 2.6-5.6 3.3zm-2.1-19.8c-1.1-1.1-2.7-1.7-4.6-1.7-1.8 0-3.4.6-4.7 1.7-1.3 1.2-2 2.6-2.1 4.4h13c.1-1.8-.5-3.3-1.6-4.4z"/><path d="m308.8 326.5c1.5-.5 2.9-.8 4.3-.8 1.5 0 3.1.3 4.8 1l1 7.6-6.1 1.3-.6-3.1c-2.7.3-4.7 1-6.1 2.1l-.1 12.5h5.7v5.8h-17.7v-5.8h4.9v-13.2l-5.6-1.9 1.9-5.9 8.8 2.9c1.8-1.1 3.4-1.9 4.8-2.5z"/><path d="m333.7 330.9c-1.4 0-2.6.2-3.6.7-.9.5-1.4 1.2-1.4 2.1s.3 1.6.8 2c.5.5 1.6.8 3.3 1l3.9.6c2.9.4 5.1 1.3 6.5 2.5 1.4 1.3 2.1 3 2.1 5.3 0 3-1.1 5.2-3.4 6.7s-5 2.3-8.3 2.3c-2.2 0-4.1-.2-5.8-.6s-3.3-1.1-4.8-2l-1-6.1 6-.9.5 2.8c1.6.7 3.2 1 4.7 1 1.6 0 3-.3 4-.8 1.1-.5 1.6-1.3 1.6-2.2 0-.8-.3-1.4-.8-1.8s-1.6-.8-3.2-1l-3.5-.6c-2.9-.5-5.1-1.4-6.6-2.7-1.6-1.3-2.3-3.1-2.3-5.2 0-2.5 1-4.6 3.1-6.1 2-1.5 4.8-2.3 8.3-2.3 3.7 0 6.9.9 9.4 2.8l1 5.6-5.4.9-.9-3.4c-1.5-.4-2.9-.6-4.2-.6z"/><path d="m349.4 326.7h12.1v20.4h4.8v5.8h-16.9v-5.8h4.8v-14.6h-4.8zm10.9-11.5c.8.8 1.2 1.8 1.2 3s-.4 2.2-1.2 3-1.8 1.1-3 1.1-2.2-.4-3-1.1c-.8-.8-1.1-1.7-1.1-3s.4-2.2 1.1-3c.8-.8 1.7-1.2 3-1.2 1.2.1 2.2.5 3 1.2z"/><path d="m376.8 351.4c-1.7-1.8-2.5-4.5-2.5-8.1v-10.8h-4.8v-5.8h4.8v-4.7l7.1-2.3v6.9h6.9v5.8h-6.9v9.1c0 2.1.3 3.7 1 4.8s1.6 1.6 2.9 1.6c1 0 2.3-.4 3.8-1.2l1.4 5.4c-2.3 1.2-4.4 1.7-6.2 1.7-3.4.3-5.8-.6-7.5-2.4z"/><path d="m413.2 353c-1.9.7-3.8 1.1-5.7 1.1-3 0-5.6-.6-7.8-1.8-2.3-1.2-4-2.9-5.2-5-1.2-2.2-1.8-4.6-1.8-7.3 0-2.9.6-5.4 1.7-7.5 1.1-2.2 2.7-3.9 4.8-5.1s4.5-1.8 7.1-1.8c2.8 0 5.2.6 7.3 1.6 2.1 1.1 3.7 2.7 4.8 4.7s1.7 4.4 1.7 7c0 1.2-.1 2.4-.4 3.6h-20.1c.2 1.9 1 3.4 2.5 4.4s3.3 1.5 5.4 1.5c3.2 0 6.1-1 8.8-3.1l2.4 4.4c-1.8 1.5-3.6 2.6-5.5 3.3zm-2.1-19.8c-1.1-1.1-2.7-1.7-4.6-1.7-1.8 0-3.4.6-4.7 1.7-1.3 1.2-2 2.6-2 4.4h13c0-1.8-.6-3.3-1.7-4.4z"/><path d="m435.3 330.9c-1.4 0-2.6.2-3.6.7-.9.5-1.4 1.2-1.4 2.1s.3 1.6.8 2c.5.5 1.6.8 3.3 1l3.9.6c2.9.4 5.1 1.3 6.5 2.5 1.4 1.3 2.1 3 2.1 5.3 0 3-1.1 5.2-3.4 6.7s-5 2.3-8.3 2.3c-2.2 0-4.1-.2-5.8-.6s-3.3-1.1-4.8-2l-1-6.1 6-.9.5 2.8c1.6.7 3.2 1 4.7 1 1.6 0 3-.3 4-.8 1.1-.5 1.6-1.3 1.6-2.2 0-.8-.3-1.4-.8-1.8-.6-.5-1.6-.8-3.2-1l-3.5-.6c-2.9-.5-5.1-1.4-6.6-2.7-1.6-1.3-2.3-3.1-2.3-5.2 0-2.5 1-4.6 3.1-6.1 2-1.5 4.8-2.3 8.3-2.3 3.7 0 6.9.9 9.4 2.8l1 5.6-5.4.9-.9-3.4c-1.5-.4-2.8-.6-4.2-.6z"/><path d="m451.1 326.7h12.1v20.4h4.8v5.8h-16.9v-5.8h4.8v-14.6h-4.8zm10.8-11.5c.8.8 1.2 1.8 1.2 3s-.4 2.2-1.2 3-1.8 1.1-3 1.1-2.2-.4-3-1.1c-.8-.8-1.1-1.7-1.1-3s.4-2.2 1.1-3c.8-.8 1.7-1.2 3-1.2 1.3.1 2.3.5 3 1.2z"/></g><path d="m215 135.9c-2.3-50.2 39.5-91.6 89.7-88.9 44.9 2.4 80.6 39.8 80.4 85.3-.2 47-38.4 84.9-85.4 84.7-45.6-.2-82.6-36.1-84.7-81.1z" fill="#211261"/><path d="m256.1 89.9c.5-1.4 2-2.1 3.5-1.6 1.4.5 2.1 2 1.7 3.5-.5 1.4-2 2.2-3.5 1.7-1.5-.6-2.3-2.2-1.7-3.6" fill="#fff"/><path d="m252.5 168.8c-1-1.2-.9-2.9.3-3.9s2.9-.8 3.9.3c1 1.2.9 2.9-.3 3.9s-2.9.9-3.9-.3" fill="#fff"/><path d="m270.8 89.5-2.4-1.1c-.2-.1-.5.2-.3.4l1.9 1.8c3.1 3 4.6 5.4 5 6.1l6.6 4.8-.9-2.2c-2.1-5.4-6.5-8.3-9.9-9.8z" fill="#fff"/><path d="m274.6 97.2c-1.7-.5-3.3-.4-4.6.4l-1.4.8 12.5 3.5-6.2-4.6z" fill="#fff"/><path d="m262.5 100.9-2.9-.6c-.3-.1-.4.3-.2.4l2.5 1.4c4.1 2.3 6.2 4.4 6.8 4.9l8.2 3.4-1.5-2c-3.5-4.8-9-6.7-12.9-7.5z" fill="#fff"/><path d="m268.3 107.7c-2-.1-3.7.4-4.9 1.4l-1.4 1.1 14.3.8-7.8-3.2z" fill="#fff"/><path d="m246.2 103.5c.2-1.5 1.6-2.5 3.1-2.3s2.5 1.6 2.3 3.1-1.6 2.5-3.1 2.4c-1.4-.4-2.5-1.7-2.3-3.2" fill="#fff"/><path d="m257 113h-3.3c-.3 0-.3.4-.1.4l3 1.1c4.8 1.6 7.4 3.4 8.1 3.9l9.2 1.9-2-1.9c-4.5-4.4-10.6-5.4-14.9-5.4z" fill="#fff"/><path d="m264.7 119.1c-2.1.3-3.7 1.1-4.7 2.5l-1.1 1.5 14.9-2.1-8.7-1.8z" fill="#fff"/><path d="m241.1 119.6c-.1-1.6 1.1-3.1 2.7-3.2s3.1 1.1 3.2 2.7-1.1 3.1-2.7 3.2c-1.6.2-3.1-1-3.2-2.7" fill="#fff"/><path d="m254.4 127.5-3.3.6c-.3 0-.2.4 0 .4l3.4.4c5.2.7 8.4 1.8 9.2 2.2l9.9.1-2.5-1.4c-5.9-3.4-12.3-3.1-16.7-2.3z" fill="#fff"/><path d="m263.6 131.9c-2 .7-3.5 1.8-4.3 3.4l-.8 1.7 14.7-5-9.3-.1z" fill="#fff"/><path d="m240.4 137.5c-.5-1.6.4-3.2 2-3.7s3.2.4 3.7 2-.4 3.2-2 3.7c-1.6.4-3.2-.5-3.7-2" fill="#fff"/><path d="m253.5 142.5-2.9 1.1c-.2.1-.2.5.1.4l3.2-.2c5.1-.3 8.4.2 9.3.3l9.4-1.7-2.7-.9c-6.4-1.9-12.4-.5-16.4 1z" fill="#fff"/><path d="m263.3 144.8c-1.8 1-2.9 2.3-3.3 3.8l-.4 1.7 12.9-7.1-8.9 1.6z" fill="#fff"/><path d="m242.7 153.8c-.7-1.3-.2-3 1.1-3.7s3-.2 3.7 1.1.2 3-1.1 3.7c-1.3.8-3 .3-3.7-1.1" fill="#fff"/><path d="m259.2 155.7-2.2 1.6c-.2.2-.1.5.2.4l2.6-.7c4.3-1.2 7.1-1.3 7.8-1.3l7.6-3.3-2.4-.4c-5.8-.9-10.6 1.6-13.6 3.7z" fill="#fff"/><path d="m267.9 156.3c-1.3 1.3-2 2.8-2 4.3v1.7l9.4-9.2-7.2 3.1z" fill="#fff"/><path d="m343.9 89.9c-.5-1.4-2-2.1-3.5-1.6-1.4.5-2.1 2-1.7 3.5.5 1.4 2 2.2 3.5 1.7 1.5-.6 2.2-2.2 1.7-3.6" fill="#fff"/><path d="m347.5 168.8c1-1.2.9-2.9-.3-3.9s-2.9-.8-3.9.3c-1 1.2-.9 2.9.3 3.9s2.9.9 3.9-.3" fill="#fff"/><path d="m329.1 89.5 2.4-1.1c.2-.1.5.2.3.4l-1.9 1.8c-3.1 3-4.6 5.4-5 6.1l-6.6 4.8.9-2.2c2.1-5.4 6.6-8.3 9.9-9.8z" fill="#fff"/><path d="m325.3 97.2c1.7-.5 3.3-.4 4.6.4l1.4.8-12.5 3.5 6.2-4.6z" fill="#fff"/><path d="m337.5 100.9 2.9-.6c.3-.1.4.3.2.4l-2.5 1.4c-4.1 2.3-6.2 4.4-6.8 4.9l-8.2 3.4 1.5-2c3.5-4.8 8.9-6.7 12.9-7.5z" fill="#fff"/><path d="m331.6 107.7c2-.1 3.7.4 4.9 1.4l1.4 1.1-14.3.8 7.8-3.2z" fill="#fff"/><path d="m353.7 103.5c-.2-1.5-1.6-2.5-3.1-2.3s-2.5 1.6-2.3 3.1 1.6 2.5 3.1 2.4c1.5-.4 2.5-1.7 2.3-3.2" fill="#fff"/><path d="m342.9 113h3.3c.3 0 .3.4.1.4l-3 1.1c-4.8 1.6-7.4 3.4-8.1 3.9l-9.2 1.9 2-1.9c4.6-4.4 10.7-5.4 14.9-5.4z" fill="#fff"/><path d="m335.3 119.1c2.1.3 3.7 1.1 4.7 2.5l1.1 1.5-14.9-2.1 8.7-1.8z" fill="#fff"/><path d="m358.9 119.6c.1-1.6-1.1-3.1-2.7-3.2s-3.1 1.1-3.2 2.7 1.1 3.1 2.7 3.2c1.6.2 3-1 3.2-2.7" fill="#fff"/><path d="m345.5 127.5 3.3.6c.3 0 .2.4 0 .4l-3.4.4c-5.2.7-8.4 1.8-9.2 2.2l-9.9.1 2.5-1.4c6-3.4 12.4-3.1 16.7-2.3z" fill="#fff"/><path d="m336.3 131.9c2 .7 3.5 1.8 4.3 3.4l.8 1.7-14.7-5 9.3-.1z" fill="#fff"/><path d="m359.6 137.5c.5-1.6-.4-3.2-2-3.7s-3.2.4-3.7 2 .4 3.2 2 3.7c1.5.4 3.2-.5 3.7-2" fill="#fff"/><path d="m346.4 142.5 2.9 1.1c.2.1.2.5-.1.4l-3.2-.2c-5.1-.3-8.4.2-9.3.3l-9.4-1.7 2.7-.9c6.4-1.9 12.5-.5 16.4 1z" fill="#fff"/><path d="m336.7 144.8c1.8 1 2.9 2.3 3.3 3.8l.4 1.7-12.9-7.1 8.9 1.6z" fill="#fff"/><path d="m357.2 153.8c.7-1.3.2-3-1.1-3.7s-3-.2-3.7 1.1-.2 3 1.1 3.7c1.3.8 3 .3 3.7-1.1" fill="#fff"/><path d="m340.7 155.7 2.2 1.6c.2.2.1.5-.2.4l-2.6-.7c-4.3-1.2-7.1-1.3-7.8-1.3l-7.6-3.3 2.4-.4c5.8-.9 10.6 1.6 13.6 3.7z" fill="#fff"/><path d="m332 156.3c1.3 1.3 2 2.8 2 4.3v1.7l-9.4-9.2 7.2 3.1z" fill="#fff"/><path d="m304.7 170.2c-.2.9-2.2 2.8-4.8 2.8-2.5 0-4.6-1.8-4.8-2.8-1.3 1.3-2.1 3-2.1 5 0 3.8 3.1 6.9 6.9 6.9s6.9-3.1 6.9-6.9c0-2-.8-3.8-2.1-5z" fill="#fff"/><g fill="#e1b77e"><path d="m273.6 133.2-1.2.8 17 .8-10.1-2.7c-3.2-.1-4.8.6-5.7 1.1z"/><path d="m284.2 130.9c-.5-.3-.9-.5-1.4-.7h-.1c-5.7-2.7-10-3-12-3-.3 0-.3.4-.1.5 4.4 1.6 7.1 3 7.6 3.3l10.3 2.7-2.7-1.7c-.5-.5-1.1-.8-1.6-1.1z"/><path d="m248.7 87.3s6.3-3.5 12.7-1.2c4.6 1.6 7.3 5.5 8.4 7.6.1.3-.1.6-.4.5l-5.9-2.1c-.7-.3-1.2-.9-1.3-1.7-.2-1.6-1.5-3-3.3-3.2-1.4-.2-2.8.5-3.5 1.7-1.2 2.1-.2 4.6 1.9 5.4 1.4.5 3 .1 3.9-1 .4-.4 1-.6 1.6-.4l6.2 2.1c.3.1.3.6 0 .7-2.2.9-6.7 2.2-11.3.6-6.4-2.3-9-9-9-9"/><path d="m280.1 102.9h-1.4l12.1 9.9-5.9-7.7c-2.2-1.8-3.8-2.2-4.8-2.2z"/><path d="m289.3 106.7c-.2-.5-.4-.9-.6-1.3v-.1c-2.4-4.9-5.2-7.5-6.8-8.7-.3-.2-.7.1-.5.4 2.2 3.5 3.3 5.9 3.5 6.4l6 7.8-1-2.9c-.1-.5-.3-1.1-.6-1.6z"/><path d="m238.4 102.4s5.4-4.8 12.3-3.9c4.9.6 8.3 3.9 9.9 5.7.2.2 0 .6-.3.5l-6.3-.7c-.8-.1-1.4-.7-1.6-1.4-.5-1.5-2-2.6-3.9-2.4-1.4.1-2.6 1.1-3.1 2.5-.8 2.3.7 4.6 3 4.9 1.5.2 2.9-.6 3.7-1.8.3-.5.9-.8 1.5-.7l6.5.9c.3 0 .4.5.2.7-2 1.3-6.1 3.5-11 2.9-6.9-1.1-10.9-7.2-10.9-7.2"/><path d="m276.8 112.2-1.4.3 13.9 6.5-7.4-5.7c-2.6-1.3-4.2-1.3-5.1-1.1z"/><path d="m286.6 113.8c-.3-.4-.6-.7-.9-1.1v-.1c-3.5-4-6.8-5.8-8.6-6.5-.3-.1-.5.3-.3.5 2.9 2.8 4.5 4.7 4.8 5.1l7.5 5.8-1.6-2.4c-.3-.4-.6-.9-.9-1.3z"/><path d="m232.5 120.3s4.7-6.3 12.2-6.9c5.4-.4 9.8 2.3 11.9 3.9.3.2.1.6-.2.7l-6.9.5c-.8.1-1.6-.4-2-1.1-.9-1.5-2.8-2.3-4.7-1.7-1.5.5-2.6 1.8-2.8 3.3-.3 2.6 1.8 4.7 4.3 4.5 1.7-.1 3-1.3 3.5-2.8.2-.6.7-1.1 1.4-1.1l7.1-.6c.4 0 .6.4.3.7-1.8 1.9-5.8 5.2-11.1 5.6-7.3.5-13-5-13-5"/><path d="m274.9 122.5-1.3.6 15.4 3.9-8.7-4.4c-2.9-.8-4.5-.5-5.4-.1z"/><path d="m285 122.2c-.4-.3-.7-.6-1.1-.9h-.1c-4.4-3.5-8.2-4.6-10.1-5-.3-.1-.4.3-.2.5 3.6 2.3 5.7 4 6.1 4.4l8.8 4.5-2.1-2.2c-.4-.5-.9-.9-1.3-1.3z"/><path d="m232.1 139.9s3.3-7.2 10.5-9.3c5.2-1.5 10 .2 12.4 1.3.3.1.3.6-.1.7l-6.6 2c-.8.2-1.6-.1-2.2-.7-1.2-1.3-3.2-1.7-5-.7-1.3.8-2.1 2.3-2 3.8.2 2.6 2.8 4.2 5.2 3.5 1.6-.5 2.7-1.9 2.9-3.4.1-.6.5-1.2 1.1-1.4l6.9-2c.4-.1.7.3.5.6-1.4 2.2-4.6 6.3-9.7 7.8-7.2 2-13.9-2.2-13.9-2.2"/><path d="m235.7 157.6s1.6-7.1 7.7-10.4c4.4-2.4 9.1-1.7 11.4-1.2.3.1.3.5.1.6l-5.6 3c-.7.4-1.5.2-2.1-.2-1.3-.9-3.2-.9-4.6.3-1.1.9-1.5 2.5-1.1 3.8.7 2.3 3.3 3.3 5.3 2.2 1.4-.7 2.1-2.2 1.9-3.6-.1-.6.2-1.2.7-1.5l5.8-3.1c.3-.2.7.1.5.4-.8 2.3-2.9 6.5-7.2 8.9-5.9 3.4-12.8.8-12.8.8"/><path d="m273.5 144.4-1 1 17.1-2.3-10.7-.7c-3.2.5-4.7 1.4-5.4 2z"/><path d="m283.4 140.3c-.5-.1-1-.3-1.5-.4h-.1c-6.1-1.5-10.4-1.1-12.4-.7-.3.1-.3.5 0 .5 4.7.7 7.6 1.5 8.2 1.7l10.9.7-3.1-1.1c-.7-.3-1.3-.5-2-.7z"/><path d="m246.4 174s.1-7.3 5.4-11.8c3.8-3.2 8.5-3.6 10.9-3.6.3 0 .4.4.2.6l-4.8 4.1c-.6.5-1.4.6-2.1.3-1.5-.6-3.3-.2-4.4 1.3-.8 1.1-.9 2.7-.2 4 1.2 2.1 3.9 2.5 5.7 1 1.2-1 1.6-2.6 1.1-4-.2-.6 0-1.2.4-1.6l5-4.3c.3-.2.7 0 .6.3-.3 2.4-1.5 7-5.2 10.2-5.3 4.5-12.6 3.5-12.6 3.5"/><path d="m276.4 154.4-.7 1.2 14.7-5.6-9.6 1.3c-2.8 1-3.9 2.2-4.4 3.1z"/><path d="m284.3 148.2c-.5-.1-1-.1-1.5-.1h-.1c-5.7-.4-9.4.9-11.2 1.7-.3.1-.2.5.1.5 4.3-.2 7.1.1 7.6.2l9.8-1.4-3-.6c-.5-.1-1.1-.2-1.7-.3z"/><path d="m326.3 133.2 1.2.8-17 .8 10.1-2.7c3.2-.1 4.9.6 5.7 1.1z"/><path d="m315.8 130.9c.5-.3.9-.5 1.4-.7h.1c5.7-2.7 10-3 12-3 .3 0 .3.4.1.5-4.4 1.6-7.1 3-7.6 3.3l-10.3 2.7 2.7-1.7c.5-.5 1-.8 1.6-1.1z"/><path d="m351.3 87.3s-6.3-3.5-12.7-1.2c-4.6 1.6-7.3 5.5-8.4 7.6-.1.3.1.6.4.5l5.9-2.1c.7-.3 1.2-.9 1.3-1.7.2-1.6 1.5-3 3.3-3.2 1.4-.2 2.8.5 3.5 1.7 1.2 2.1.2 4.6-1.9 5.4-1.4.5-3 .1-3.9-1-.4-.4-1-.6-1.6-.4l-6.1 2.2c-.3.1-.3.6 0 .7 2.2.9 6.7 2.2 11.3.6 6.2-2.4 8.9-9.1 8.9-9.1"/><path d="m319.8 102.9h1.4l-12.1 9.9 5.9-7.7c2.3-1.8 3.9-2.2 4.8-2.2z"/><path d="m310.6 106.7c.2-.5.4-.9.6-1.3v-.1c2.4-4.9 5.2-7.5 6.8-8.7.3-.2.7.1.5.4-2.2 3.5-3.3 5.9-3.5 6.4l-6 7.8 1-2.9c.2-.5.4-1.1.6-1.6z"/><path d="m361.6 102.4s-5.4-4.8-12.3-3.9c-4.9.6-8.3 3.9-9.9 5.7-.2.2 0 .6.3.5l6.3-.8c.8-.1 1.4-.7 1.6-1.4.5-1.5 2-2.6 3.9-2.4 1.4.1 2.6 1.1 3.1 2.5.8 2.3-.7 4.6-3 4.9-1.5.2-2.9-.6-3.7-1.8-.3-.5-.9-.8-1.5-.7l-6.5.9c-.3 0-.4.5-.2.7 2 1.3 6.1 3.5 11 2.9 6.9-1 10.9-7.1 10.9-7.1"/><path d="m323.2 112.2 1.4.3-13.9 6.5 7.4-5.7c2.5-1.3 4.2-1.3 5.1-1.1z"/><path d="m313.4 113.8c.3-.4.6-.7.9-1.1v-.1c3.5-4 6.8-5.8 8.6-6.5.3-.1.5.3.3.5-2.9 2.8-4.5 4.7-4.8 5.1l-7.5 5.8 1.6-2.4c.2-.4.6-.9.9-1.3z"/><path d="m367.4 120.3s-4.7-6.3-12.2-6.9c-5.4-.4-9.8 2.3-11.9 3.9-.3.2-.1.6.2.7l6.9.5c.8.1 1.6-.4 2-1.1.9-1.5 2.8-2.3 4.7-1.7 1.5.5 2.6 1.8 2.8 3.3.3 2.6-1.8 4.7-4.3 4.5-1.7-.1-3-1.3-3.5-2.8-.2-.6-.7-1.1-1.4-1.1l-7.1-.6c-.4 0-.6.4-.3.7 1.8 1.9 5.8 5.2 11.1 5.6 7.4.5 13-5 13-5"/><path d="m325.1 122.5 1.3.6-15.4 3.9 8.7-4.4c2.8-.8 4.5-.5 5.4-.1z"/><path d="m314.9 122.2c.4-.3.7-.6 1.1-.9h.1c4.4-3.5 8.2-4.6 10.1-5 .3-.1.4.3.2.5-3.6 2.3-5.7 4-6.1 4.4l-8.8 4.5 2.1-2.2c.5-.5.9-.9 1.3-1.3z"/><path d="m367.8 139.9s-3.3-7.2-10.5-9.3c-5.2-1.5-10 .2-12.4 1.3-.3.1-.3.6.1.7l6.6 2c.8.2 1.6-.1 2.2-.7 1.2-1.3 3.2-1.7 5-.7 1.3.8 2.1 2.3 2 3.8-.2 2.6-2.8 4.2-5.2 3.5-1.6-.5-2.7-1.9-2.9-3.4-.1-.6-.5-1.2-1.1-1.4l-6.9-2c-.4-.1-.7.3-.5.6 1.4 2.2 4.6 6.3 9.7 7.8 7.2 2 13.9-2.2 13.9-2.2"/><path d="m364.2 157.6s-1.6-7.1-7.7-10.4c-4.4-2.4-9.1-1.7-11.4-1.2-.3.1-.3.5-.1.6l5.6 3c.7.4 1.5.2 2.1-.2 1.3-.9 3.2-.9 4.6.3 1.1.9 1.5 2.5 1.1 3.8-.7 2.3-3.3 3.3-5.3 2.2-1.4-.7-2.1-2.2-1.9-3.6.1-.6-.2-1.2-.7-1.5l-5.8-3.1c-.3-.2-.7.1-.5.4.8 2.3 2.9 6.5 7.2 8.9 6 3.4 12.8.8 12.8.8"/><path d="m326.4 144.4 1 1-17.1-2.3 10.7-.7c3.3.5 4.7 1.4 5.4 2z"/><path d="m316.5 140.3c.5-.1 1-.3 1.5-.4h.1c6.1-1.5 10.4-1.1 12.4-.7.3.1.3.5 0 .5-4.7.7-7.6 1.5-8.2 1.7l-10.9.7 3.1-1.1c.8-.3 1.4-.5 2-.7z"/><path d="m353.5 174s-.1-7.3-5.4-11.8c-3.8-3.2-8.5-3.6-10.9-3.6-.3 0-.4.4-.2.6l4.8 4.1c.6.5 1.4.6 2.1.3 1.5-.6 3.3-.2 4.4 1.3.8 1.1.9 2.7.2 4-1.2 2.1-3.9 2.5-5.7 1-1.2-1-1.6-2.6-1.1-4 .2-.6 0-1.2-.4-1.6l-5-4.3c-.3-.2-.7 0-.6.3.3 2.4 1.5 7 5.2 10.2 5.4 4.5 12.6 3.5 12.6 3.5"/><path d="m323.5 154.4.7 1.2-14.7-5.6 9.6 1.3c2.9 1 4 2.2 4.4 3.1z"/><path d="m315.7 148.2c.5-.1 1-.1 1.5-.1h.1c5.7-.4 9.4.9 11.2 1.7.3.1.2.5-.1.5-4.3-.2-7.1.1-7.6.2l-9.8-1.4 3-.6c.5-.1 1.1-.2 1.7-.3z"/><path d="m307.7 147.5c-2.7 0-5.3 1.5-7.1 3.8-.3.4-.9.4-1.2 0-1.9-2.4-4.4-3.8-7.1-3.8-.3 0-.7 0-1 .1 3 1.4 5.5 4.1 7.2 7.6.3.6.6 1.3.9 2 .3.8 1 .8 1.3 0 .3-.7.5-1.3.9-2 1.7-3.5 4.3-6.2 7.2-7.6-.4-.1-.8-.1-1.1-.1z"/><path d="m308.4 139.2c-3 0-5.7 1.3-7.8 3.5-.4.4-.9.4-1.3 0-2-2.2-4.8-3.5-7.8-3.5-.4 0-.8 0-1.1.1 3.2 1.2 6 3.7 7.9 6.8.4.6.7 1.3 1 2 .3.6 1 .6 1.3 0 .3-.7.6-1.3 1-2 1.9-3.2 4.7-5.6 7.9-6.8-.4-.1-.7-.1-1.1-.1z"/><path d="m309.1 131.6c-3.3 0-6.2 1.2-8.5 3.3-.4.4-1 .4-1.3 0-2.2-2-5.2-3.3-8.5-3.3-.4 0-.8 0-1.2.1 3.5 1.1 6.5 3.4 8.6 6.3.4.6.8 1.2 1.1 1.9.3.5 1 .5 1.3 0 .3-.7.7-1.3 1.1-1.9 2-2.9 5-5.2 8.6-6.3-.4-.1-.8-.1-1.2-.1z"/><path d="m308.4 122.5c-3.2 0-6 1.6-8.1 4.2-.2.2-.5.2-.6 0-2.1-2.6-4.9-4.2-8.1-4.2-.4 0-.8 0-1.1.1 3.2 1.3 6 4 7.9 7.4.4.7.7 1.4 1 2.2.3.7 1 .7 1.3 0s.6-1.5 1-2.2c1.9-3.4 4.7-6.1 7.9-7.4-.5 0-.8-.1-1.2-.1z"/><path d="m307.7 114.6c-2.8 0-5.4 1.4-7.2 3.7-.3.3-.7.3-1 0-1.9-2.3-4.4-3.7-7.2-3.7-.3 0-.7 0-1 .1 3 1.3 5.5 3.7 7.2 6.9.3.6.6 1.2.9 1.9s1 .7 1.3 0c.3-.6.6-1.3.9-1.9 1.7-3.2 4.3-5.7 7.2-6.9-.4-.1-.8-.1-1.1-.1z"/><path d="m307 107.7c-2.5 0-4.7 1.1-6.4 2.9-.4.4-.9.4-1.2 0-1.7-1.8-3.9-2.9-6.4-2.9-.3 0-.6 0-.9.1 2.7 1.1 5 3.1 6.6 5.9.3.5.5.9.7 1.4.3.6 1 .6 1.3 0 .2-.5.5-1 .7-1.4 1.6-2.7 3.9-4.8 6.6-5.9-.4-.1-.7-.1-1-.1z"/><path d="m304.5 185.4c.5.4 2.3.5 3.6-.6s1.6-2.9 1.3-3.4c1.2.1 2.3.7 3.1 1.7 1.6 2 1.3 4.8-.7 6.4s-4.8 1.3-6.4-.7c-.7-1-1-2.3-.9-3.4z"/><path d="m295.4 185.4c-.5.4-2.3.5-3.6-.6s-1.6-2.9-1.3-3.4c-1.2.1-2.3.7-3.1 1.7-1.6 2-1.3 4.8.7 6.4s4.8 1.3 6.4-.7c.7-1 1-2.3.9-3.4z"/><path d="m273 186.4c-.2 0-.5-.1-.7-.2-.5-.4-.5-1.1-.1-1.5.6-.8 1.5-1.3 2.5-1.6 1-.2 2-.2 2.9.3.6.2.8.9.6 1.4-.2.6-.9.8-1.4.6s-1-.3-1.6-.1c-.5.1-1 .4-1.3.8-.2.2-.5.3-.9.3z"/><path d="m327 186.4c-.3 0-.6-.1-.8-.4-.3-.4-.8-.7-1.3-.8s-1.1-.1-1.6.1-1.2 0-1.4-.6 0-1.2.6-1.4c.9-.4 2-.5 2.9-.3 1 .2 1.8.8 2.5 1.6.4.5.3 1.1-.1 1.5-.3.3-.6.3-.8.3z"/><path d="m296.7 201.8 3.2 2.8 3.2-2.8s.9-.9 0-1.9-1.5-1.9-2.2-.8c-.3.3-1.1.9-2.1-.1-.7-1-1.3-.2-2.2.8-.8 1.2.1 2 .1 2z"/><path d="m298.9 197.2c0-.9.5-1.7 1.1-1.7s1.1.8 1.1 1.7-.5 1.7-1.1 1.7-1.1-.8-1.1-1.7z"/><path d="m272.4 165.8s1.2 1 1.3 3.5c0 0 0 1.4 1.3 1.7 1.2.2 2.2-1 2-4.2 0-.2-.2-.2-.3-.1-.3.4-.7 1-1.4 1.6 0-.1-.7-2.7-2.9-2.5z"/><path d="m275.3 174.4c.9-4.3 5.4-7 9.3-5.6s4.9 6.7 1 8.6c-3.3 1.3-6.4-2.1-4.6-4.8.7-1.1 2.1-1.3 2.8-.9.8.4 1 1.6.2 2.1-.5.5-.4 1.8.7 1.6.7-.1 1.4-.8 1.6-2 .4-3.2-4.9-4.6-6.5-.9-.8 1.9-.1 3.1.8 4.6.4.7 1.2 3.2-.2 4.7-.3.4-1.4 1.5-3.5.7-.5-.2-2.1-.9-4.3.8-1.2.9-2.5.1-3.1-.6-2.1-2.5.4-5.6.5-7.9.6-3.8-2.3-5.2-2.8-4.6.4-1.9 5.8-2.2 8.1 4.2z"/><path d="m327.5 165.8s-1.2 1-1.3 3.5c0 0 0 1.4-1.3 1.7-1.2.2-2.2-1-2-4.2 0-.2.2-.2.3-.1.3.4.7 1 1.4 1.6 0-.1.7-2.7 2.9-2.5z"/><path d="m324.6 174.4c-.9-4.3-5.4-7-9.3-5.6s-4.9 6.7-1 8.6c3.3 1.3 6.4-2.1 4.6-4.8-.7-1.1-2.1-1.3-2.8-.9-.8.4-1 1.6-.2 2.1.5.5.4 1.8-.7 1.6-.7-.1-1.4-.8-1.6-2-.4-3.2 4.9-4.6 6.5-.9.8 1.9.1 3.1-.8 4.6-.4.7-1.2 3.2.2 4.7.3.4 1.4 1.5 3.5.7.5-.2 2.1-.9 4.3.8 1.2.9 2.5.1 3.1-.6 2.1-2.5-.4-5.6-.5-7.9-.6-3.8 2.3-5.2 2.8-4.6-.4-1.9-5.8-2.2-8.1 4.2z"/><path d="m324.4 186.2c-1-.3-2.1.4-2.3 1.4-1 4.3-5.2 7.4-10 7.4-5.3 0-9.7-6-10.2-11 0-.3-.3-.5-.6-.4-.5.1-.9.1-1.4.1s-.9 0-1.3-.1c-.3 0-.6.2-.6.5-.5 5-4.9 11-10.2 11-4.7 0-8.9-3.1-10-7.3-.3-1-1.2-1.7-2.3-1.5s-1.8 1.3-1.5 2.3c1.5 6.1 7.1 10.3 13.7 10.3 5.2 0 9.7-2.6 12.2-6.6 2.5 3.9 7 6.6 12.2 6.6 6.6 0 12.3-4.2 13.7-10.3.3-1.1-.3-2.2-1.4-2.4z"/><path d="m301.1 67.3c0 .9-.5 1.7-1.1 1.7s-1.1-.8-1.1-1.7.5-1.7 1.1-1.7 1.1.8 1.1 1.7z"/><path d="m320.3 83.4c-4-2.9-3-8.6-3-8.6.2-1.6-.6-2.1-1.2-2.2-2.7-.7-4 3.1-8.4 3.8-2.5.4-4.4-1.5-7.7-1.5-3.4 0-5.4 1.9-7.8 1.5-4.4-.7-5.7-4.5-8.4-3.8-.6.2-1.3.7-1.2 2.2 0 0 1 5.7-3 8.6-.1.1-.7 1 .5 1.2 2.7.6 5.7-1.1 5.5-3.1-.3-3 .9-4.8 2.7-4.6 2.1.3 2 2.7.5 4.4-.5.6-1.3 1.1-.6 2 .2.3.6.4.9.4s.5.3.2.6c0 0-1.3 1.8-3.6 3.6-.1.1-.8.5-1.6 0-.7-.5-2.4-1.4-3.2-1.1-.3.1-.6.4-.4.9 0 0 3.3 1.9 5.5 5.3 0 0 2.1.7.1-2.8-.1-.3-.3-1 .2-1.4.7-.6 3.8-3.2 4.5-3.7.1-.1.7-.5 1 0 .4.6 1.8 1.2 2.1-.5.3-1.5 3.3-2 3.8.6.4 2.2-2.2 4.9-6.3 5.2-1.8.2-2.9 2-2 3.3 1.1 1.6 3.2.5 3.5.3 1.7-.9 5.3-3.6 6.6-7.8 0 0 .2-.9.7-.9s.7.9.7.9c1.3 4.2 4.9 6.8 6.6 7.8.3.2 2.5 1.3 3.5-.3.9-1.3-.3-3.2-2-3.3-4.1-.4-6.7-3-6.3-5.2.5-2.5 3.5-2.1 3.8-.6.3 1.7 1.8 1.1 2.1.5.3-.5.8-.1 1 0 .6.5 3.8 3.1 4.5 3.7.5.4.4 1.1.2 1.4-2 3.5.1 2.8.1 2.8 2.2-3.4 5.5-5.3 5.5-5.3.2-.5-.1-.8-.4-.9-.8-.2-2.5.7-3.2 1.1-.8.5-1.4 0-1.6 0-2.4-1.8-3.6-3.6-3.6-3.6-.3-.3-.1-.6.2-.6s.7-.1.9-.4c.7-.9-.1-1.4-.6-2-1.5-1.8-1.6-4.1.5-4.4 1.8-.3 3 1.6 2.7 4.6-.2 2 2.8 3.7 5.5 3.1.7-.2.2-1.1 0-1.2z"/><path d="m300 87.6c1.4 3.6 4.5 6.4 6.8 7.7.1.1.5.2.9.4 0 0 .1 0 .1.1.7.4 1 1.3.6 2s-1.3 1-2 .6c-.6-.2-4.6-2.4-6.5-6.9-2 4.5-5.9 6.7-6.5 6.9-.7.4-1.6.1-2-.6s-.1-1.6.6-2c0 0 .1 0 .1-.1.4-.1.8-.3.9-.4 2.4-1.3 5.5-4.1 7-7.7-.1 0-.1-.1 0 0z"/><path d="m305.3 98.8c-1.2-.7-3.1-2.2-4.7-4.4-.2-.3-.4-.6-.7-1-.2.3-.4.7-.6 1-1.6 2.2-3.5 3.6-4.7 4.3h-.1c-.3.1-.4.4-.5.7s-.1.6.1.9c.2.4.6.6 1 .6.2 0 .4 0 .5-.1.5-.2 2.9-1.6 4.3-4.3 1.4 2.8 3.8 4.2 4.3 4.3.6.3 1.3.1 1.6-.5.3-.5.1-1.2-.5-1.5z"/><path d="m317.1 65.4c0-.2 0-.4-.1-.6-.1-.8-.5-1.7-1.1-2.3-.5-.6-1.3-1.2-2.1-1.5-.4-.1-.8-.3-1.2-.3-.3-.1-.7-.1-1.2-.1 0 0-6.7-.6-10.4 9.7-.4 0-.8-.1-1.2-.1s-.8 0-1.2.1c-3.7-10.3-10.4-9.7-10.4-9.7-.5 0-.9 0-1.2.1-.4.1-.8.2-1.2.3-.8.3-1.5.8-2.1 1.5s-.9 1.5-1.1 2.3c0 .2-.1.4-.1.6v.6c0 .4.1.9.3 1.3.3.8.9 1.5 1.6 2s1.3.7 2.2.7 1.8-.3 2.5-1c.8-.8 1.9-2.5.7-4.1-.7-.9-1.5-.6-1.8-.5s-.6.3-.6.6v.2l.2.1s.5.3.5 1.2c0 .3-.2.7-.5.9s-.6.3-1 .3c-1-.1-1.4-.7-1.6-1.3-.1-.2-.1-.4-.1-.6v-.6c.2-.8.8-1.5 1.6-1.8.2-.1.4-.1.7-.2h.7c.5 0 1.1.1 1.5.3 1 .3 1.8.9 2.5 1.7.6.7 1.2 1.7 1.7 2.9.4.9.6 1.9.9 3.1-.2.1-.5.2-.7.4-.8.5-1.1 1.5-.7 2.3.5.8 1.5 1.1 2.3.7 1.2-.7 2.6-1 4.1-1 1.4 0 2.8.4 4.1 1 .3.1.5.2.8.2.6 0 1.2-.3 1.5-.9.5-.8.1-1.9-.7-2.3-.2-.1-.5-.2-.7-.4.3-1.2.5-2.2.9-3.1.5-1.2 1-2.2 1.7-2.9.7-.8 1.6-1.4 2.5-1.7.5-.2 1-.2 1.5-.3h.7c.2 0 .5.1.7.2.8.3 1.5 1 1.6 1.8v.6c0 .2 0 .4-.1.6-.2.5-.6 1.2-1.6 1.3-.4 0-.7-.1-1-.3s-.5-.6-.5-.9c0-1 .5-1.2.5-1.2l.2-.1v-.2c0-.3-.3-.5-.6-.6-.2-.1-1.1-.3-1.8.5-1.2 1.7-.1 3.4.7 4.1.7.6 1.6 1 2.5 1s1.5-.2 2.2-.7 1.3-1.2 1.6-2c.2-.4.3-.9.3-1.3.6-.2.6-.4.6-.6z"/><path d="m302.5 61.7-2.5-2.5-2.5 2.5c-.8.8-.9 2.1-.2 3.1l.9 1.2c.1.1.2.1.2 0 .3-.7.9-1.2 1.6-1.2s1.3.5 1.6 1.2c0 .1.2.1.2 0l.9-1.2c.7-1 .6-2.3-.2-3.1z"/><path d="m276.8 73.4c-.3.4-2.1 3-5.4 4-.6.1-1.2.2-1.9.1-3.4-.3-3.5-3.9-3.5-3.9 3.5.9 7.5-1.6 9-2.9.2-.1.4-.1.4.1.3 2 1.8 2 1.4 2.6z"/><path d="m277.5 73.6c.1-.1.1-.2.2-.2.4.2 1.1.4 1.6.5.1 0 .1.1.1.2-.4 2.2-2.2 5.1-4.3 6.1-2 .8-3.7-.4-4-.9-.4-.6-.3-1.1.4-1.3 3.6-.7 5.7-3.9 6-4.4z"/><path d="m280.1 74.2c0-.2.1-.2.2-.2.4 0 1-.1 1.2-.2.1 0 .1 0 .1.1-.1 1.1.2 2.8 0 4.1-.3 2.1-1.1 3.9-2.7 4.7-.7.4-2.2.2-3.2-.8-.6-.6-.3-1.1.2-1.4 2.5-1.3 4.1-4.3 4.2-6.3z"/><path d="m301.8 102-1.5 2.6c-.1.2-.5.2-.6 0l-1.5-2.6c-.1-.2-.1-.3 0-.5l1.8-2.1 1.8 2.1c.1.2.1.3 0 .5z"/><path d="m282.7 67.7c-.3 1-.3 2.2-.1 3.1.1.3.3.3.5.1.4-.4.9-.8 1.2-1.2-.8-.5-1.3-1.2-1.6-2z"/><path d="m317.3 67.7c.3 1 .3 2.2.1 3.1-.1.3-.3.3-.5.1-.4-.4-.9-.8-1.2-1.2.7-.5 1.3-1.2 1.6-2z"/><path d="m277 70.4s.1.1.1.2.1.1.1.2c.1.1.2.3.3.4.2.2.5.4.8.5s.6.2.9.2c.2 0 .3 0 .5-.1.2 0 .3-.1.5-.1l.2-.1c.4-.1.9.1 1 .6s-.1.9-.6 1h-.1c-.3.1-.5.1-.8.1s-.5.1-.8 0c-.5 0-1-.2-1.5-.4-.4-.2-.8-.6-1.1-.9-.3-.4-.5-.8-.7-1.2v-.1c-.1-.3 0-.6.3-.7.5 0 .7.1.9.4z"/><path d="m323 73.4c.3.4 2.1 3 5.4 4 .6.1 1.2.2 1.9.1 3.4-.3 3.5-3.9 3.5-3.9-3.5.9-7.5-1.6-9-2.9-.2-.1-.4-.1-.4.1-.3 2-1.8 2-1.4 2.6z"/><path d="m322.3 73.6c-.1-.1-.1-.2-.2-.2-.4.2-1.1.4-1.6.5-.1 0-.1.1-.1.2.4 2.2 2.2 5.1 4.3 6.1 2 .8 3.7-.4 4-.9.4-.6.3-1.1-.4-1.3-3.6-.7-5.7-3.9-6-4.4z"/><path d="m319.6 74.2c0-.2-.1-.2-.2-.2-.4 0-1-.1-1.2-.2-.1 0-.1 0-.1.1.1 1.1-.2 2.8 0 4.1.3 2.1 1.1 3.9 2.7 4.7.7.4 2.2.2 3.2-.8.6-.6.3-1.1-.2-1.4-2.4-1.3-4-4.3-4.2-6.3z"/><path d="m322.8 70.4s-.1.1-.1.2-.1.1-.1.2c-.1.1-.2.3-.3.4-.2.2-.5.4-.8.5s-.6.2-.9.2c-.2 0-.3 0-.5-.1-.2 0-.3-.1-.5-.1l-.2-.1c-.4-.1-.9.1-1 .6s.1.9.6 1h.1c.3.1.5.1.8.1s.5.1.8 0c.5 0 1-.2 1.5-.4.4-.2.8-.6 1.1-.9.3-.4.5-.8.7-1.2v-.1c.1-.3 0-.6-.3-.7-.5 0-.8.1-.9.4z"/><path d="m290.5 161h.9v5.1h1.5v1.1h-4.5v-1.1h1.6v-3.2l-1.1.9-.8-.9z"/><path d="m295.6 166.2c.2.1.5.1.7.1.3 0 .6-.1.8-.2s.4-.4.6-.6c.1-.3.2-.5.2-.8-.5.4-1.1.5-1.6.5-.6 0-1.1-.2-1.5-.5s-.6-.8-.6-1.6c0-.3.1-.6.2-1 .1-.3.4-.6.8-.8s.9-.3 1.5-.3c.9 0 1.5.3 2 .8.4.5.6 1.3.6 2.4 0 .6-.1 1.2-.4 1.7s-.6.9-1 1.2-1 .4-1.6.4c-.3 0-.6 0-.9-.1s-.6-.2-.8-.3l.4-1c.2 0 .4.1.6.1zm.2-3.8c-.2.2-.3.5-.3.7 0 .4.1.6.3.8s.4.3.7.3c.2 0 .5 0 .7-.1s.4-.2.6-.4c-.1-.6-.2-1-.4-1.2s-.5-.3-.8-.3-.6 0-.8.2z"/><path d="m303.7 163.1c.4 0 .7.1 1 .3s.6.4.7.7c.2.3.3.7.3 1.1 0 .7-.2 1.3-.7 1.6-.5.4-1.1.6-1.9.6-.4 0-.8-.1-1.1-.2-.4-.1-.7-.3-1-.6l.8-.9c.3.2.5.3.8.4s.5.2.7.2c.4 0 .7-.1.9-.3s.3-.5.3-.8-.1-.6-.3-.8-.5-.3-.8-.3c-.2 0-.4.1-.7.2-.2.1-.4.3-.6.5l-.8-.4v-3.2h3.9v1.1h-2.7v1.1c.4-.2.8-.3 1.2-.3z"/><path d="m310.9 164.5c-.3.8-.5 1.6-.5 2.3v.3h-1.3c0-.8.1-1.6.4-2.4.3-.7.7-1.6 1.4-2.5h-2l-.2.7-1.2-.3.3-1.6h4.6v.8c-.7 1-1.2 1.9-1.5 2.7z"/></g></g></svg>