<svg clip-rule="evenodd" fill-rule="evenodd" stroke-linecap="square" viewBox="0 0 560 400" xmlns="http://www.w3.org/2000/svg"><g fill-rule="nonzero"><path d="m200.561 190.517 18.951-34.927h.347l3.294 34.927m-63.522 32.042h23.054l9.199-16.711h33.311l2.214 16.711h26.048l-15.163-83.221h-28.124z"/><path d="m273.521 155.822h-25.359l3.506-16.484h74.575l-3.503 16.484h-25.936l-14.185 66.737h-23.283"/><path d="m330.392 139.338h23.399l-7.767 36.539 34.395-36.539h27.314l-36.493 36.656 21.112 46.565h-28.586l-18.255-44.263-9.409 44.263h-23.4"/><path d="m320.082 259.882c-223.196 8.381-285.021-52.74-146.703-89.069-128.538 48.904-16.768 84.876 146.703 89.069"/><path d="m259.303 247.307c199.095 24.101 264.063-52.392 130.983-76.493 129.167 38.234 8.382 86.971-130.983 76.493"/><path d="m443.228 240.097v9.083h1.342v-3.664h1.755l2.219 3.664h1.548l-2.426-3.819c.618-.138 1.119-.434 1.497-.877.378-.45.567-1.065.568-1.806-.001-.807-.274-1.452-.826-1.91-.545-.457-1.291-.671-2.322-.671zm1.342 1.084h1.858c.588 0 1.052.1 1.393.361.349.262.568.686.568 1.187 0 .545-.16.927-.465 1.239-.305.305-.76.464-1.341.464h-2.013z"/></g><path d="m453.7 244.575c0 4.032-3.318 7.35-7.35 7.35-4.033 0-7.351-3.318-7.351-7.35s3.318-7.35 7.351-7.35c4.032 0 7.35 3.318 7.35 7.35z" fill="none" stroke="#000" stroke-width="1.05"/></svg>