<svg clip-rule="evenodd" fill-rule="evenodd" stroke-linejoin="round" stroke-miterlimit="2" viewBox="0 0 560 400" xmlns="http://www.w3.org/2000/svg"><g transform="matrix(.727273 0 0 .727273 180 70.687)"><g fill-rule="nonzero"><g transform="matrix(.683942 0 0 .683942 -33.1931 -6.62945)"><path d="m283.008 396.634-.093 23.623h41.579v65.353l-41.579-1.229v34.873h-65.247l.068-33.645h-41.692v-65.353h41.624v-22.499c-89.943-15.32-158.754-92.714-158.754-187.021 0-105.301 85.36-190.662 190.66-190.662 105.301 0 190.657 85.361 190.657 190.662 0 93.499-68.419 169.642-157.223 185.898z" fill="#fff"/><path d="m293.297 529.636h-86.032l.068-33.646h-41.67v-86.115h41.624v-3.543c-92.512-19.839-158.755-100.744-158.755-195.596 0-110.856 90.187-201.043 201.042-201.043 110.854 0 201.039 90.187 201.039 201.043 0 93.204-65.625 173.625-157.256 194.374l-.02 4.765h41.538v86.426l-41.579-1.229v34.564zm-65.225-20.764h44.461v-35.183l41.579 1.228v-44.278h-41.619l.168-42.666 8.479-1.549c86.168-15.775 148.71-89.662 148.71-175.688 0-99.407-80.873-180.28-180.275-180.28-99.406 0-180.278 80.873-180.278 180.28 0 87.622 63.133 161.972 150.117 176.788l8.638 1.472v41.643h-41.624v44.589h41.714z" fill="#005894"/></g><path d="m46.99 137.76c0-49.949 40.491-90.439 90.442-90.439 49.949 0 90.44 40.491 90.44 90.439 0 49.951-40.491 90.442-90.44 90.442-49.952 0-90.442-40.491-90.442-90.442" fill="#005894"/><path d="m114.653 200.32v-3.837l-4.562-.217c-4.131-.145-4.131-1.014-4.131-4.854v-16.081h.726c4.853 0 7.389 1.376 9.489 5.868.798 1.666 1.087 3.548 1.231 5.287h3.694v-25.063h-3.694c-1.522 7.098-3.694 10.359-11.446 10.068v-14.921c0-1.158-.143-2.753.871-3.62 1.739-1.231 4.056-1.014 6.084-1.014 10.575 0 14.777 5.431 17.24 15.139h3.621l-.506-19.052h-47.808v3.839h1.883c1.375.073 2.896-.071 4.201.433 1.522.437 1.522 2.176 1.522 3.478v35.854c0 1.088 0 2.249-.217 3.335-.145.215-.217.507-.364.723-.143.218-.433.364-.65.507-.724.291-1.375.291-2.1.291h-4.347v3.837z" fill="#fff"/><path d="m167.379 200.32v-3.837l-4.565-.217c-4.128-.145-4.128-1.014-4.128-4.854v-16.081h.725c4.853 0 7.388 1.376 9.488 5.868.799 1.666 1.088 3.548 1.233 5.287h3.692v-25.063h-3.692c-1.521 7.098-3.695 10.359-11.445 10.068v-14.921c0-1.158-.145-2.753.869-3.62 1.737-1.231 4.058-1.014 6.084-1.014 10.578 0 14.778 5.431 17.243 15.139h3.619l-.507-19.052h-47.807v3.839h1.883c1.376.073 2.897-.071 4.201.433 1.522.437 1.522 2.176 1.522 3.478v35.854c0 1.088 0 2.249-.218 3.335-.143.215-.216.507-.361.723-.146.218-.435.364-.653.507-.724.291-1.375.291-2.1.291h-4.347v3.837z" fill="#fff"/></g><path d="m136.261 77.223c4.275 0 7.826-3.55 7.826-7.823 0-4.274-3.625-7.751-7.826-7.751s-7.749 3.55-7.749 7.751c0 4.2 3.476 7.823 7.749 7.823zm0-3.984c-2.1 0-3.765-1.739-3.765-3.839 0-2.101 1.665-3.767 3.765-3.767 2.102 0 3.842 1.666 3.842 3.767 0 2.1-1.74 3.839-3.842 3.839zm-18.47 46.43c-2.028 4.636-4.491 10.504-10.287 11.084v3.838h20.79v-3.838c-3.404.073-7.245-.868-7.245-4.997 0-2.536 1.379-4.927 2.174-7.1h18.47l3.117 8.186c.434 1.087 1.014 2.099.071 3.114-.941 1.014-3.765.724-5.07.797v3.838h25.353v-3.838c-4.852-.144-5.432-1.305-7.171-5.433l-18.398-44.114h-5.434zm7.387-5.503 7.462-18.038 7.171 18.038z" fill="#fff"/></g></svg>