<svg clip-rule="evenodd" fill-rule="evenodd" stroke-linejoin="round" stroke-miterlimit="2" viewBox="0 0 560 400" xmlns="http://www.w3.org/2000/svg"><g fill="#9d9d9c"><path d="m193.323 199.826c0-5.604-1.226-9.663-3.679-12.176-2.453-2.512-5.873-3.798-10.258-3.857h-15.677c-1.675-.004-3.342.232-4.951.7-1.522.428-2.936 1.174-4.148 2.19-2.795 2.334-4.192 5.694-4.192 10.079v1.053c0 .586.261.876.789.876h5.085c.468 0 .702-.29.702-.876 0-4.49 2.543-6.735 7.627-6.735h14.272c2.111 0 3.836.669 5.174 2.007.118.118.205.176.265.176 1.164 1.401 1.833 3.594 2.007 6.579l.087 1.139h-20.918c-3.27 0-5.983.203-8.139.609s-3.865 1.108-5.129 2.105c-1.256.995-2.133 2.385-2.631 4.17-.498 1.786-.747 4.016-.745 6.69v4.371c0 8.177 3.62 12.265 10.86 12.265h21.363c2.513 0 4.542-.249 6.088-.747 1.513-.465 2.796-1.485 3.59-2.854.848-1.401 1.448-3.341 1.8-5.821.352-2.479.614-5.705.785-9.678v-9.433c-.001-.555-.031-1.111-.089-1.663zm-7.091 16.458c0 5.144-2.245 7.715-6.735 7.715h-17.951c-4.326 0-6.49-1.954-6.49-5.864v-3.502c0-2.631.759-4.266 2.275-4.906.702-.582 2.101-.874 4.192-.874h24.976c0 .527-.015 1.385-.044 2.587s-.103 2.81-.223 4.862" fill-rule="nonzero"/><path d="m239.261 185.108v-.352c0-.526-.223-.787-.7-.787h-5.62c-.223 0-.555.446-.961 1.315l-14.629 37.241-14.628-37.241c-.411-.878-.79-1.315-1.142-1.315h-5.241c-.521 0-.785.261-.785.787v.352l17.506 45.046c.41.758.76 1.14 1.053 1.14h6.489c.292 0 .642-.408 1.05-1.229z" fill-rule="nonzero"/><path d="m284.307 216.774v-5.53c0-.584-.493-.874-1.485-.874h-1.403c-.352 0-.76.013-1.224.044-.464.032-1.077.101-1.844.223v3.769c0 3.509-.599 5.991-1.797 7.448-1.199 1.457-3.079 2.188-5.642 2.192h-15.945c-5.664 0-8.496-3.858-8.496-11.573v-4.46h37.018c.524 0 .785-.293.785-.872v-6.69c.022-2.429-.376-4.844-1.178-7.136-.735-2.101-1.949-4.002-3.545-5.553-1.37-1.268-2.956-2.281-4.683-2.988-1.854-.724-3.831-1.08-5.821-1.048h-14.116c-4.147 0-7.738 1.665-10.77 4.995-2.81 3.508-4.215 8.035-4.215 13.581v11.038c0 11.908 5.055 17.862 15.164 17.862h16.48c3.627 0 6.578-1.226 8.853-3.679 1.328-1.314 2.336-2.916 2.943-4.683.642-1.964.952-4.022.917-6.088m-30.105-25.868h15.498c2.275 0 4.185.892 5.731 2.676 1.547 1.784 2.409 4.163 2.587 7.136h-31.443c.116-2.81.889-5.144 2.319-7.002 1.431-1.859 3.229-2.795 5.397-2.81" fill-rule="nonzero"/><path d="m346.078 231.269c.35 0 .524-.263.524-.789v-46.161c0-.524-.174-.787-.524-.787h-5.218c-.41 0-.615.265-.615.787v46.161c0 .526.205.789.615.789zm0-58.203c.35 0 .524-.294.524-.878v-6.668c0-.522-.174-.787-.524-.787h-5.218c-.41 0-.615.265-.615.787v6.668c0 .584.205.878.615.878z" fill-rule="nonzero"/><path d="m394.023 199.826c.469 0 .7-.294.7-.876 0-5.605-1.077-9.663-3.233-12.176-2.037-2.037-5.397-3.055-10.08-3.055h-17.438c-3.093 0-5.835.847-8.229 2.542-2.512 2.394-3.769 5.605-3.769 9.634 0 2.973.308 5.56.924 7.76.615 2.2 1.856 3.613 3.724 4.237 1.502.559 3.082.885 4.683.966 1.784.117 3.635.176 5.552.176h2.899c2.052 0 4.17.074 6.356.223 2.044.122 4.07.459 6.043 1.008 1.844.522 3.345 1.28 4.505 2.275 1.159.994 1.743 2.34 1.75 4.036 0 2.914-.51 4.869-1.532 5.865-1.025.99-2.676 1.487-4.95 1.487h-17.863c-1.034.022-2.067-.08-3.077-.305-.816-.206-1.371-.602-1.664-1.182-.762-.993-1.142-3.238-1.139-6.735 0-.528-.263-.789-.787-.789h-4.817c-.466 0-.7.261-.7.789 0 5.664.788 9.634 2.363 11.908.879 1.172 2.12 2.034 3.725 2.587 1.799.585 3.683.867 5.575.834h18.486c8.355 0 12.533-3.94 12.533-11.819 0-3.152-.394-5.865-1.182-8.139-.788-2.275-2.029-4.089-3.724-5.442-1.364-1.071-2.883-1.928-4.505-2.542-1.784-.697-3.932-1.046-6.444-1.048-1.051-.058-2.04-.088-2.966-.089-.879 0-1.784-.027-2.721-.087-3.033-.117-5.352-.192-6.958-.223-1.784-.029-5.24-.018-6.868-.832-.347-.17-.614-.469-.742-.834-.173-.551-.249-1.129-.223-1.706 0-2.869.379-4.809 1.139-5.82s2.157-1.522 4.192-1.534h18.576c2.572 0 4.327.466 5.263 1.4.348.466.64 1.273.874 2.409.257 1.397.375 2.816.353 4.237 0 .582.223.876.7.876z" fill-rule="nonzero"/></g><path d="m324.67 222.349h-30.551c-1.574 0-2.854-.278-2.854-.611 0-.332 1.284-.611 2.854-.611h30.551c1.577 0 2.855.275 2.855.611 0 .337-1.287.611-2.855.611" fill="#7bbb54"/><path d="m335.374 143.407c1.914 30.328-53.966 28.99-43.931 57.534.043.319.163.703.259.752.223.107-.386.267-.201-.223 1.338-4.371 5.263-11.819 21.631-20.115 7.114-3.635 25.422-12.666 25.422-24.976 0-5.82-.939-9.611-3.345-12.956" fill="#dbe283"/><path d="m331.36 188.453c0 4.059-2.743 6.913-5.753 9.589-4.393 4.282-17.149 10.08-22.746 13.09-.286.156-.562.31-.834.471h23.192c4.906-3.412 9.098-7.76 9.098-12.756 0-4.75-.956-7.604-3.033-10.391" fill="#9d9d9c"/><path d="m298.133 199.826h32.335c1.662 0 3.033.288 3.033.638s-1.36.64-3.033.64h-32.335c-1.666 0-3.033-.29-3.033-.64s1.361-.638 3.033-.638" fill="#7bbb54"/><path d="m293.004 152.104c0 4.594 2.944 7.538 6.021 10.615 4.483 4.728 16.926 12.377 22.523 15.699 17.238 9.701 13.358 23.415 10.883 26.314-1.18-3.835-5.642-11.886-20.026-19.178-6.244-3.189-22.3-11.127-22.3-22.01 0-5.129.828-8.452 2.944-11.373" fill="#7bbb54"/><path d="m297.241 193.805h30.328c1.561 0 2.832.234 2.832.529 0 .294-1.275.526-2.832.526h-30.328c-1.561 0-2.832-.239-2.832-.526 0-.288 1.278-.529 2.832-.529" fill="#7bbb54"/><path d="m295.903 188.23h32.335c1.664 0 3.011.234 3.011.518 0 .283-1.356.517-3.011.517h-32.335c-1.661 0-3.033-.234-3.033-.517 0-.284 1.363-.518 3.033-.518" fill="#7bbb54"/><path d="m294.788 183.77c0 4.059 2.275 11.016 5.308 13.692 3.612 3.524 12.844 8.051 19.133 11.24h2.944c-.275.162-.547.319-.832.472l-.584.313c.753.385 1.442.749 2.049 1.075.446.243.865.492 1.28.742h-6.868c-6.244 3.167-15.075 7.537-18.576 10.972-3.011 2.676-5.754 5.53-5.754 9.589-2.085-2.788-3.033-5.642-3.033-10.392 0-4.705 3.725-8.831 8.251-12.154-8.384-3.902-10.704-19.289-3.278-25.422" fill="#9d9d9c"/><path d="m291.889 260.036c4.282-21.742 19.022-19.535 29.882-23.192 7.359-2.386 10.236-5.775 10.236-6.824v-7.894c-.112-.493-.573-.212-.807.139-1.147 2.114-4.817 5.976-18.844 9.99-8.162.776-30.551 9.277-20.516 27.652" fill="#dbe283"/><path d="m330.245 250.67c0-2.542-2.876-4.148-5.865-5.842-4.37-2.609-17.015-6.111-22.523-7.961-11.35-3.279-11.93-10.415-11.908-14.25 1.151 2.114 7.315 5.664 21.341 9.678 6.088 1.757 21.832 6.133 21.832 12.109 0 2.81-.805 4.638-2.877 6.266" fill="#7bbb54"/><path d="m326.454 227.032h-29.436c-1.518 0-2.765-.263-2.765-.588 0-.326 1.24-.587 2.765-.587h29.436c1.519 0 2.765.263 2.765.587 0 .323-1.244.588-2.765.588" fill="#7bbb54"/><path d="m331.36 231.269c0-4.058-4.281-5.842-7.292-8.518-4.393-4.282-17.149-10.08-22.746-13.09-.446-.241-.873-.487-1.282-.739h23.415c8.184 5.843 15.03 12.734 7.849 22.3" fill="#9d9d9c"/><path d="m276.948 347.675c14.138 1.47 27.206.152 41.255-3.122 14.251-3.404 27.874-9.041 40.363-16.702 12.622-7.605 23.861-17.417 33.673-28.544 9.723-11.24 17.706-24.084 23.861-37.687 2.947-6.882 5.384-13.97 7.292-21.208 5.636-21.813 6.126-44.642 1.43-66.677-6.267-29.213-21.208-56.196-42.37-76.935-20.94-20.873-48.168-35.457-76.935-40.809s-59.318-2.114-85.855 9.522c-26.537 11.637-49.506 31.22-64.893 55.304-7.704 12.01-13.609 25.083-17.528 38.802-.966 3.412-1.784 6.869-2.498 10.348l-2.098 10.28c-1.445 6.868-2.609 13.96-2.408 21.073h1.951c.078-3.077 2.609-22.969 7.336-38.133 6.244-18.553 15.9-32.781 20.271-39.025 15.789-22.523 38.133-39.917 63.555-49.729 25.199-9.879 53.297-11.819 79.388-5.865 26.091 5.798 50.175 19.691 68.461 39.025 9.037 9.628 16.625 20.521 22.523 32.335 5.787 11.762 9.814 24.309 11.953 37.241 4.304 25.868 1.677 52.628-7.76 76.935-4.617 12.221-11.106 23.861-19.089 34.342-7.872 10.593-17.461 19.937-28.098 28.098-21.364 16.146-45.938 26.091-74.036 28.99z" fill="#7bbb54" fill-rule="nonzero"/><path d="m276.948 348.567c14.451.944 29.213-.528 43.485-4.17 14.348-3.716 28.037-9.62 40.586-17.505 12.622-7.828 23.861-17.751 33.673-28.99 9.713-11.397 17.68-24.173 23.638-37.91 5.911-13.841 9.664-28.507 11.128-43.485 1.379-14.983.538-30.087-2.498-44.823-6.221-29.436-21.363-56.642-42.593-77.381-21.252-20.895-48.614-35.234-77.827-40.586-28.99-5.442-59.764-2.179-86.747 9.433-26.983 11.611-50.398 31.443-66.231 55.973-15.95 24.518-24.185 53.265-23.638 82.51h1.256c.419-28.767 9.5-57.088 25.645-80.503 16.123-23.415 39.248-41.924 65.339-52.182 26.091-10.571 55.304-13.001 82.733-7.248 27.429 5.687 52.851 19.78 72.252 39.694 9.708 9.973 17.898 21.319 24.307 33.673 6.348 12.276 10.835 25.429 13.313 39.025 2.587 13.536 3.077 27.429 1.688 41.255-1.332 13.699-4.606 27.14-9.723 39.917-5.095 12.911-12.052 25.007-20.65 35.903-8.518 10.949-18.732 20.583-30.105 28.767-22.746 16.324-50.398 26.091-78.942 27.652z" fill="#9d9d9c" fill-rule="nonzero"/></svg>