<svg clip-rule="evenodd" fill-rule="evenodd" stroke-linejoin="round" stroke-miterlimit="2" viewBox="0 0 560 400" xmlns="http://www.w3.org/2000/svg"><g fill-rule="nonzero" transform="matrix(.323765 0 0 .323765 -1188.23 188.449)"><path d="m4653.12 34.676-29.93-307.824-30.34 312.932c19.67-2.157 39.76-3.87 60.27-5.108" fill="#fcca12"/><path d="m4726.19 32.414.11-305.562-103.11-.042v.042l29.93 307.824c23.9-1.459 48.33-2.22 73.07-2.262" fill="#59c247"/><g fill="#176fc1"><path d="m4592.85 39.784 30.34-312.932v-.042l-269.43.042.1 371.589c63.34-27.737 145.72-48.368 238.99-58.657"/><path d="m4500.43 179.156c3.7.666 17.02 4.558 17.02 14.001v151.384h45.05v-170.778h-62.07z"/><path d="m4146.6 173.763v5.393c5.39 1.131 17.24 4.441 12.48 15.09l-67.15 150.295h35.43l21.04-46.845h74.34l18.4 46.845h46.63l-66.62-170.778zm11.32 102.721 30.13-67.201 26.44 67.201z"/><path d="m4836.59 173.763v5.393c5.39 1.131 17.23 4.441 12.48 15.09l-67.15 150.295h35.42l21.05-46.845h74.34l18.39 46.845h46.64l-66.62-170.778zm11.31 102.721 30.14-67.201 26.33 67.201z"/><path d="m4716.89 344.541 71.16-170.778h-33.73l-52.13 125.234-49.7-125.234h-63.24v5.393c7.3 1.406 15.55 4.558 19.25 14.001l60.06 151.384z"/><path d="m4404.94 344.541 71.16-170.778h-33.73l-52.13 125.234-49.7-125.234h-63.24v5.393c7.3 1.406 15.55 4.558 19.25 14.001l60.06 151.384z"/></g></g></svg>