<svg clip-rule="evenodd" fill-rule="evenodd" stroke-linejoin="round" stroke-miterlimit="2" viewBox="0 0 560 400" xmlns="http://www.w3.org/2000/svg"><g fill="#cb2026" fill-rule="nonzero" transform="matrix(1.79211 0 0 1.79211 30 172.581)"><path d="m118.8 15.3c0 2.4.9 4.7 2.6 6.4s4 2.6 6.4 2.6c5 0 9-4 9-9 .1-2.4-.8-4.8-2.5-6.5s-4.1-2.7-6.5-2.6c-5 .1-9 4.1-9 9.1zm3.4 0c0-3.2 2.3-6.2 5.7-6.2s5.7 2.5 5.7 6.2c.1 1.6-.5 3.1-1.6 4.3s-2.6 1.8-4.1 1.8c-3.4.1-5.7-2.5-5.7-6.1z"/><path d="m99.1 15.3c-.1 2.4.8 4.8 2.5 6.5s4.1 2.6 6.5 2.5c2.7.1 5.3-1.2 6.9-3.4l.1-.1-2.5-2.1-.1.2c-.9 1.7-2.6 2.7-4.5 2.6-3.4 0-5.7-2.7-5.7-6.2-.1-1.6.5-3.1 1.5-4.3 1.1-1.2 2.6-1.9 4.2-1.9 1.8 0 3.5 1 4.5 2.5l.1.1 2.5-2-.1-.1c-1.7-2.1-4.3-3.3-7-3.3-2.4 0-4.7.9-6.3 2.6s-2.6 4-2.6 6.4z"/><path d="m225.9 16.7v7.2h3.2v-7.2l6.3-10h-3.5l-4.4 6.9-4.2-6.9h-3.7z"/><path d="m167.4 6.7v17.2h3.3v-6.4c.2 0 .5.1.8.1 4.2 0 7.1-1.8 7.1-5.4 0-3.4-2.5-5.5-7.2-5.5zm3.3 2.6h.8c2.7 0 3.8 1 3.8 2.8s-1.2 2.8-3.8 2.8c-.3 0-.5 0-.8-.1z"/><path d="m145.6 14.6 5.4 9.8 5.3-9.8 2.1 9.3h3.4l-4.5-17.5-6.2 11.6-6.4-11.6-4.3 17.6h3.2z"/><path d="m57.3 16.9-11.4-10.5v17.6h3.1v-10.2l11.5 10.6v-17.7h-3.2z"/><path d="m35.1 6.7v17.2h3.3v-17.2z"/><path d="m30.9 23.9-8.4-17.6-8.4 17.6h3.3l1.7-3.7h6.6l1.6 3.7zm-10.6-6.4 2.2-5 2 5z"/><path d="m8.3 14.8c1.4-.6 2.3-2.1 2.3-3.6 0-3-2.4-4.5-6.5-4.5h-4.1v17.2h4.9c4.4 0 6.8-1.8 6.8-5-.1-2-1.5-3.7-3.4-4.1zm-3.6 1.8c2.3 0 3.6.6 3.6 2.4 0 1.6-1.2 2.3-3.6 2.3h-1.4v-4.7zm-1.4-2.6v-4.7h.6c2.4 0 3.6.6 3.6 2.4s-1.2 2.3-3.5 2.3z"/><path d="m85.1 24h3.8s-2.9-3.3-3.4-3.9c.4-.5 2.9-4.3 2.9-4.3h-3.1l-1.5 2.3-2.7-3.1c2.3-1.2 3.7-2.9 3.7-4.7 0-2.4-2.1-4-4.8-4-3 0-5 1.8-5 4.2.1 1.6.8 3 1.9 4.1-1.8 1-3.4 2.5-3.4 5 0 2.7 2.2 4.8 5.4 4.8 1.8 0 3.6-.7 4.8-2.1zm-7.1-13.4c0-.5.2-1.1.6-1.4.4-.4.9-.6 1.4-.6s1 .1 1.4.5c.4.3.6.8.5 1.3 0 1.2-1.2 2.1-2.4 2.7-.8-.6-1.4-1.5-1.5-2.5zm3.9 9.8c-.6.8-1.6 1.3-2.7 1.3-.7.1-1.3-.2-1.8-.6-.5-.5-.8-1.1-.8-1.8.1-1.2.8-2.2 1.8-2.8h.1z"/><path d="m212.5 16.9-11.4-10.5v17.5h3.2v-10.1l11.4 10.6v-17.7h-3.2z"/><path d="m196.9 23.9-8.4-17.6-8.4 17.6h3.3l1.7-3.7h6.6l1.6 3.7zm-10.6-6.4 2.2-5 2 5z"/><path d="m269.1 16.1-2.8-12.4-7.7 10zm9.9-.8c0 8.4-6.9 15.3-15.3 15.3s-15.3-6.9-15.3-15.3 6.9-15.3 15.3-15.3c.8 0 1.6.1 2.4.2l-1.3 1.7h-1.1c-3.4 0-6.6 1.3-9.1 3.6-2.4 2.4-3.8 5.6-3.8 9 0 7.1 5.8 12.9 12.9 12.9s12.9-5.8 12.9-12.9c0-5.2-3.3-9.9-8.2-11.7l-.5-2.1c6.6 1.8 11.1 7.8 11.1 14.6z"/></g></svg>