<svg clip-rule="evenodd" fill-rule="evenodd" stroke-linejoin="round" stroke-miterlimit="2" viewBox="0 0 560 400" xmlns="http://www.w3.org/2000/svg" xmlns:xlink="http://www.w3.org/1999/xlink"><clipPath id="a"><path clip-rule="evenodd" d="m278.631 728.657h261.369v40.07h-261.369z"/></clipPath><g fill="#1a64b7"><g fill-rule="nonzero"><path d="m0 0h-5.529s.885.427.885 1.947v8.138c0 1.584-1.078 2.296-2.239 2.66-.979.3-2.213-.027-2.935-.436-1.229-.696-2.495-1.322-3.763-1.955v7.434c0 1.31-.155 1.494-.424 1.876l5.064 2.54v-8.708c1.783.736 3.931 2.543 6.282 1.641 1.032-.396 2.659-1.74 2.659-3.472z" transform="matrix(2.68961 0 0 -2.68961 101.5333448 228.95252442)"/><path d="m0 0c0-1.175-.562-2.715-2.044-2.715l-2.601.001-.005 9.99s1.863.001 2.44 0c1.226 0 2.215-.668 2.21-2.319z" transform="matrix(2.68961 0 0 -2.68961 77.49898984 221.65561249)"/><path d="m0 0h-8.714c1.245 1.585 7.356 10.639 8.714 16.929z" transform="matrix(2.68961 0 0 -2.68961 53.43773878 228.95252442)"/></g><path d="m0 0c.893 0 1.848-.37 2.261-1.028.574-1.268.592-2.985-.055-4.201-.595-.799-1.607-1.201-2.545-1.456 1.157-.264 2.665-.063 3.223-1.333.674-1.842.567-4.076-.333-5.741-.826-1.261-2.258-1.338-3.66-1.338h-7.888v13.156c0 .709-.493 1.509-.863 1.941zm-1.156-8.812c-.246.678-.708.693-1.571.771-1.155.03-2.049-.191-2.049-1.094v-3.436c0-1.355 2.172-1.048 3.015-.75.575.257.789 1.123.837 1.459.055 1.269.154 2.064-.232 3.05m-3.62 6.516v-3.497c0-.923 1.803-.539 2.419-.218 1.186.722.986 2.344.832 3.454-.077.493-.454.843-.955.955-.709.046-2.203.385-2.296-.694" transform="matrix(2.68961 0 0 -2.68961 155.58912658 188.3609303)"/><path d="m0 0v6.818h-4.339v-5.341c0-.862.6-1.477.6-1.477h-4.848v13.605c0 .677-.77 1.477-.77 1.477h5.018v-6.126l4.339-.015v4.664c0 .692-.615 1.477-.615 1.477h4.863v-13.605c0-.862.616-1.477.616-1.477z" fill-rule="nonzero" transform="matrix(2.68961 0 0 -2.68961 372.90961458 228.9202491)"/><path d="m0 0c.843.567 1.973 1.597 3.528 1.597h4.578v-9.427c0-.867.717-1.581.717-1.581h-4.397v1.267c-1.37-.634-2.958-1.932-4.603-1.248-2.238 1.3-1.866 4.241-1.81 6.573.059 1.256 1.036 2.097 1.987 2.819m2.461-.393c-.695-.173-1.011-1.095-1.011-1.529-.091-1.331-.15-1.928-.045-3.41.269-2.198 1.286-2.094 1.66-2.019.463.06 1.361.539 1.361 1.661v4.711c0 .539-.344.628-.344.628-.574.089-1.068.121-1.621-.042" transform="matrix(2.68961 0 0 -2.68961 174.14743558 203.60563978)"/><path d="m0 0v1.54c-.06 1.661 3.513 2.659 5.609 3.441.716.205 1.759.381 2.255-.281.51-.555.662-1.305.832-2.03l-2.99-1.266c-.162.647-.25 1.474-.93 1.767-.483.089-1.171-.299-1.171-1.302v-1.869h2.946l-1.016-1.72h-1.93v-7.06c0-.883.658-1.597.658-1.597h-4.263v8.657h-1.211z" fill-rule="nonzero" transform="matrix(2.68961 0 0 -2.68961 315.26858267 201.04513106)"/><path d="m0 0 4.427 1.87v-6.866s1.601 1.047 2.603 1.675c2.558 1.586 4.128-.763 3.599-2.522-.259-.966-1.137-1.449-1.908-2.005-.265-.249.149-.783.149-.783l2.558-4.397c.373-.554.867-.808.867-.808h-4.727l-2.572 5.086s.553.343 1.181.747c1.452 1.003.853 2.154.47 2.303-.776.246-1.356-.335-1.874-.797-.436-.488-.346-1.012-.346-1.371v-4.532c0-.763.659-1.436.659-1.436h-4.293v12.34c0 1.092-.793 1.496-.793 1.496" fill-rule="nonzero" transform="matrix(2.68961 0 0 -2.68961 235.97619026 191.71487397)"/><path d="m0 0c.88.628 2.073 1.272 3.142 1.759.894.534 4.978.864 5.89-.74.721-1.505.675-4.592.192-6.773-.159-.527-.554-1.376-1.402-1.973-1.053-.77-3.597-1.507-4.728-1.884-.628-.189-1.005-.126-1.476-.079-.597.079-1.288.283-2.069 1.079-1.404 1.747-1.178 4.534-.907 6.818.143.59.369 1.181 1.358 1.793m2.953-.031c-.959-.654-.801-2.104-.864-3.314.078-.864-.2-3.057.895-4.068.758-.497 2.026-.142 2.419.393.644.816.552 2.579.565 3.958-.013 1.072.071 2.449-.777 3.159-.675.333-1.658.239-2.238-.128" transform="matrix(2.68961 0 0 -2.68961 284.12827809 204.58196821)"/><g clip-path="url(#a)" transform="matrix(2.68961 0 0 -2.68961 -922.38888684 2198.494756)"><g fill-rule="nonzero"><path d="m0 0c-.386-.416-.299-1.062-.118-1.782 0 0 .746-2.87 1.179-4.713l1.945 6.495h2.618l2.583-7.67s.379.61.559 1.043c.987 2.409.812 3.958.304 4.693-.237.301-.617.556-.975.714l2.424 2.181c.68-.209 1.346-.742 1.639-1.402.152-.531.096-1.317-.148-1.853l-3.185-8.775h-3.32l-1.99 6.103-1.78-6.103h-3.111l-3.021 11.069z" transform="translate(503.659 743.355)"/><path d="m0 0c1.071.55 2.731 1.477 3.614.595.479-.553.577-1.601.151-2.411-.763-1.106-2.168-1.62-3.52-1.632-.406.051-.75.288-.924.692-.363.937-.284 2.214.679 2.756" transform="translate(529.198 748.333)"/><path d="m0 0 .005-10.471c0-.882.629-1.596.629-1.596h-4.458v8.657c0 1.166-.679 1.594-.679 1.594z" transform="translate(533.016 744.351)"/><path d="m0 0v-2.139c1.695.906 3.907 2.367 5.893.986 1.107-.732 1.047-2.123 1.047-3.349v-5.939c0-.838.598-1.316.598-1.316h-4.337v7.345c0 .688-.165 1.196-.638 1.434-.692.233-1.459.06-1.989-.39-.326-.237-.574-.611-.574-1.299v-5.774c0-.838.598-1.316.598-1.316h-4.218l.015 8.63c.015.854-.749 1.358-.749 1.358z" transform="translate(421.994 744.035)"/></g><path d="m0 0c.842.567 1.972 1.598 3.528 1.598h4.577v-9.427c0-.868.718-1.581.718-1.581h-4.397v1.267c-1.37-.634-2.958-1.932-4.604-1.248-2.238 1.3-1.865 4.24-1.809 6.573.059 1.256 1.035 2.096 1.987 2.818m2.462-.392c-.696-.174-1.013-1.095-1.013-1.529-.09-1.331-.149-1.929-.045-3.41.27-2.198 1.287-2.094 1.661-2.02.463.061 1.361.54 1.361 1.661v4.712c0 .538-.344.628-.344.628-.574.089-1.068.12-1.62-.042" transform="translate(518.382 741.689)"/><path d="m0 0c.843.567 1.973 1.598 3.528 1.598h4.577v-9.427c0-.868.718-1.582.718-1.582h-4.397v1.268c-1.37-.634-2.958-1.932-4.604-1.248-2.237 1.299-1.865 4.24-1.809 6.573.059 1.255 1.036 2.096 1.987 2.818m2.462-.392c-.696-.174-1.013-1.095-1.013-1.529-.09-1.331-.149-1.929-.045-3.41.27-2.199 1.287-2.095 1.661-2.02.463.061 1.361.539 1.361 1.661v4.712c0 .538-.344.628-.344.628-.574.089-1.068.12-1.62-.042" transform="translate(489.836 741.694)"/><path d="m0 0c1.071.55 2.731 1.477 3.614.595.479-.554.577-1.601.151-2.411-.763-1.106-2.168-1.62-3.52-1.632-.406.051-.75.288-.924.692-.363.937-.284 2.214.679 2.756" fill-rule="nonzero" transform="translate(535.548 748.326)"/><path d="m0 0 .006-10.47c0-.883.628-1.598.628-1.598h-4.458v8.657c0 1.167-.679 1.596-.679 1.596z" fill-rule="nonzero" transform="translate(539.366 744.344)"/></g></g></svg>