<svg clip-rule="evenodd" fill-rule="evenodd" stroke-linejoin="round" stroke-miterlimit="2" viewBox="0 0 560 400" xmlns="http://www.w3.org/2000/svg"><g fill-rule="nonzero" transform="matrix(1.08249 0 0 1.08249 150.598 100)"><g fill="#fff"><path d="m72.277 105.884h-3.299l5.447-11.97c4.911 0 6.215.23 3.453 6.292-1.841 3.99-3.683 5.678-5.601 5.678zm7.289-4.911c3.453-7.596 1.535-8.977-6.368-8.977l-7.213 15.729h6.215c2.302 0 4.834-1.228 7.366-6.752z"/><path d="m211 79.259-6.905 5.525c-5.678-6.752-6.906-12.277-18.415-15.499 0-1.151-.077-2.379-.077-3.837 1.042-.155 2.093-.232 3.146-.23 4.297 0 11.509 3.606 16.19 3.606 1.385-.02 2.769-.122 4.143-.307.46 5.678-4.067 13.735-4.067 13.735zm-208.084 52.558 10.972-24.092c7.826 0 13.273-.767 14.655-3.913l20.179-44.348h-12.89l10.972-24.016h30.767c4.527-3.223 13.734-9.591 21.1-13.964-2.089-3.529-3.177-7.562-3.146-11.663 0-7.366 10.589-7.826 17.724-7.826 10.435 0 21.944 3.146 21.944 3.146 9.911-1.936 19.98-2.938 30.078-2.993 27.238 0 40.358 12.507 43.657 16.113 17.034 5.064 28.313 15.499 28.313 19.719 0 14.578-16.573 24.553-16.573 24.553-.537 10.511-11.74 15.729-11.74 15.729s3.223-6.906 1.765-11.893c-1.899.342-3.825.521-5.754.537-4.451 0-11.279-3.606-16.19-3.606-4.91 0-4.987.997-4.987.997 0 2.532 0 4.681.153 6.522 11.356 2.225 13.734 9.668 19.873 16.497 1.304-.998 7.289-4.834 11.509-9.821 0 0 1.381 4.603-4.22 15.959l3.836 2.225s-4.45 9.668-17.877 9.668c-5.678 0-11.433-2.686-16.42-5.371l-16.573 36.292h-24.553s9.975-28.389-1.304-28.389c-6.829 0-15.192 8.286-20.947 21.023-6.828 14.962-8.44 27.085.998 27.085 9.36 0 14.885-8.671 16.956-13.274h25.934s-13.504 40.205-47.494 40.205c-33.837 0-43.734-30.077-37.673-51.101zm110.717 52.942c25.397 0 42.891-22.097 50.103-43.964h-29.77s-5.064 13.273-15.729 13.273c-5.601 0-7.52-6.521.69-24.552 5.601-12.123 13.428-19.873 19.259-19.873 8.747 0-1.305 28.389-1.305 28.389h28.39l16.189-35.601c4.68 2.455 10.051 4.757 15.576 4.757 15.882 0 20.332-12.43 20.332-12.43l-3.836-2.148c3.606-8.44 4.68-13.274 2.916-17.571 3.227-3.025 5.338-7.056 5.984-11.432.647-4.376 16.65-10.512 16.65-25.78 0-4.911-10.358-15.423-29.156-21.331-4.067-4.373-17.724-16.419-44.732-16.343-10.042.076-20.057 1.051-29.924 2.916-7.263-1.929-14.736-2.96-22.251-3.069-14.808 0-19.412 3.453-19.412 9.437-.009 3.886.884 7.721 2.609 11.203-6.829 4.143-14.885 9.667-19.182 12.736h-31.381l-12.737 27.852h12.89l-18.951 41.817c-.538 1.151-2.226 2.762-14.195 2.762l-12.66 27.852h73.581c-5.447 27.698 10.282 51.1 40.052 51.1z"/><path d="m89.464 63.53c1.688-3.836.997-3.99-.844-3.99h-.614l-3.606 7.827c1.381 0 3.376-.154 5.064-3.837z"/></g><path d="m92.687 64.988c-2.302 5.141-5.218 6.138-10.896 6.138h-2.915l6.828-15.115h2.916c3.683 0 7.519 1.458 4.067 8.977zm-4.067-12.967h-5.448l-10.435 23.018h8.978c10.051 0 12.66-4.296 14.578-8.44 4.91-10.742-1.842-14.578-7.673-14.578zm-5.831 50.41c-3.376 7.366-7.213 8.824-10.589 8.824h-11.739l10.358-22.865h2.609c9.207.077 14.501 2.915 9.361 14.041zm-9.284-17.878h-5.141l-14.041 30.691h17.877c4.911 0 10.128-2.455 14.118-11.202 6.906-14.885-1.841-19.489-12.813-19.489zm110.717-9.974c.691 4.68 1.765 7.059 2.916 8.67.69-.153 4.834-.844 4.834-.844s.844 4.22.997 4.834c1.535 0 5.294-.077 5.294-.077s1.228 2.686 1.305 2.916c.383-.23.767-.461 1.227-.768-4.296-4.526-7.135-12.659-16.573-14.731zm45.653-40.972c-1.228.537-4.68 2.301-4.68 6.138 0 3.376 2.915 7.903 1.534 13.35 4.45-5.064 6.906-10.972 6.906-15.115-1.059-1.614-2.323-3.085-3.76-4.373z" fill="#f15623"/><path d="m199.644 28.236c-.083.014-.167.022-.251.022-.747 0-1.377-.582-1.437-1.327l-.307-2.992c-9.744-2.686-14.808-.767-14.808-.767l-1.228-2.149c12.967-3.913 18.722.23 18.722.23l.69 5.371c.052.818-.565 1.538-1.381 1.612zm-40.435 100.512h-9.744s7.442-28.389-11.279-28.389c-11.202 0-21.407 11.433-27.699 25.32-11.202 24.553-6.138 37.75 7.75 37.75 13.964 0 21.483-13.274 21.483-13.274h9.745s-12.353 25.244-35.525 25.244c-29.08 0-38.057-26.778-28.236-48.415.384-.921.844-1.765 1.228-2.686h-72.354l4.067-9.054s12.89 0 16.726-8.286l21.254-46.727c3.759-8.21-1.074-8.21-1.074-8.21h-8.057l4.143-9.054h52.712c11.126 0 17.34 13.965 12.276 25.09-2.556 5.561-7.021 10.027-12.583 12.583 4.739 2.085 8.039 6.525 8.67 11.663 5.832-2.916 12.737-4.45 21.254-4.45 14.578 0 20.716 8.133 25.857 8.133 4.45 0 6.675-4.681 6.675-4.681h9.668zm-26.471-55.627s4.757 10.588 10.051 14.578c0 0-6.598 1.918-12.353-13.58zm94.451-41.816c-6.061-4.603-12.971-7.966-20.332-9.898-7.362-1.932-11.816-15.729-41.663-15.729-7.451-.047-14.893.518-22.251 1.688 2.839.921 5.754 1.995 8.824 3.146l-1.228 3.299c-37.29-14.271-51.331-5.908-51.331-5.908-2.301 15.729 20.18 29.003 20.18 29.003l-1.765 3.069c-.691-.384-10.742-6.369-17.034-15.422-7.749 4.603-18.03 11.739-21.867 14.424h-29.617l-7.672 17.034h9.207c1.995 0 2.992 1.534 2.148 3.299l-20.946 46.037c-2.609 5.754-12.123 5.984-15.653 5.984l-7.749 16.957h72.507c-8.593 22.251 1.074 51.1 32.84 51.1 21.867 0 36.292-19.565 41.969-33.069h-18.337s-6.369 13.274-19.182 13.274c-11.893 0-12.967-12.89-4.22-32.226 6.291-13.657 15.422-23.018 24.169-23.018 15.345 0 6.291 28.389 6.291 28.389h17.341l17.187-37.75c5.447 3.069 12.046 6.829 18.107 6.829 8.977 0 12.584-4.987 12.584-4.987l-3.3-1.842 3.99-8.286c-7.596 6.445-12.43 8.286-12.43 8.286l-1.918-4.22-5.908.154-.921-4.374-3.452.691c-2.762-3.146-5.601-6.675-5.601-22.865 0-3.606.767-5.294 3.452-5.294 2.412.309 4.797.796 7.136 1.458-1.809-2.778-2.72-6.047-2.609-9.361 0-10.051 5.755-13.197 9.821-14.118v-3.453c.011-.963.801-1.753 1.765-1.764.953.037 1.727.811 1.765 1.764v6.522s-9.821-.69-9.821 11.049c0 5.064 2.532 12.2 13.197 12.2 2.864.015 5.713-.425 8.44-1.305 1.611 3.913.46 8.824.46 8.824 2.397-3.495 4.211-7.356 5.371-11.432 1.546-.95 3.009-2.028 4.374-3.223.533-1.502.793-3.087.767-4.68 0-5.064-2.532-9.208-2.532-11.663.077-2.839 3.529-4.603 5.447-8.593z" fill="#f15623"/><path d="m142.866 87.699c-5.294-3.99-10.051-14.578-10.051-14.578l-2.302.998c5.755 15.498 12.353 13.58 12.353 13.58zm-63.3 13.274c-2.532 5.524-5.064 6.752-7.289 6.752h-6.215l7.213-15.729c7.826 0 9.744 1.381 6.291 8.977zm-6.061-12.506h-2.609l-10.435 22.864h11.816c3.299 0 7.212-1.458 10.588-8.823 5.064-11.203-.23-14.041-9.36-14.041zm10.895-21.1 3.606-7.827h.614c1.918 0 2.609.154.844 3.99-1.688 3.683-3.683 3.837-5.064 3.837zm8.287-2.379c3.452-7.519-.384-8.977-4.067-8.977h-2.916l-6.828 15.115h2.915c5.678-.077 8.594-.997 10.896-6.138z"/><path d="m8.44 128.288 7.749-17.033c3.53 0 13.044-.231 15.653-5.908l20.946-46.037c.844-1.918-.153-3.376-2.148-3.376h-9.207l7.672-16.957h29.617c3.837-2.685 14.118-9.897 21.867-14.501 6.292 9.054 16.42 15.039 17.034 15.422l1.765-3.069s-22.481-13.197-20.18-28.926c0 0 13.965-8.44 51.331 5.831l1.228-3.299c-2.993-1.151-5.985-2.225-8.824-3.146 7.358-1.17 14.8-1.734 22.251-1.688 29.847 0 41.663 15.729 41.663 15.729 9.591 2.686 16.189 6.599 20.332 9.975-1.918 3.99-5.37 5.678-5.37 8.44 0 2.455 2.532 6.522 2.532 11.586.024 1.618-.236 3.228-.768 4.757-1.361 1.177-2.824 2.229-4.373 3.145-1.154 4.117-2.996 8.008-5.448 11.51-2.452 3.501 1.151-4.911-.46-8.824-2.714.81-5.531 1.224-8.363 1.228-10.666 0-13.198-7.059-13.198-12.2 0-11.663 9.745-10.972 9.745-10.972v-6.522c0-.01 0-.019 0-.029 0-.952-.784-1.736-1.736-1.736-.01 0-.019 0-.029 0-.964.011-1.754.801-1.765 1.765v3.376c-3.989.998-9.744 4.143-9.744 14.118-.147 3.342.766 6.646 2.609 9.437-2.365-.663-4.776-1.15-7.213-1.458-2.685 0-3.376 1.612-3.376 5.295 0 16.112 2.839 19.642 5.525 22.788l3.529-.614.844 4.297 5.908-.077 1.995 4.22s4.834-1.842 12.43-8.363l-3.99 8.286 3.299 1.842s-3.683 5.064-12.583 5.064c-6.138 0-12.66-3.837-18.184-6.906l-17.11 37.75h-17.418s9.054-28.389-6.214-28.389c-8.747 0-17.955 9.437-24.17 23.095-8.746 19.258-7.749 32.149 4.22 32.149 12.814 0 19.182-13.274 19.182-13.274h18.338c-5.754 13.58-20.102 33.069-41.97 33.069-31.765 0-41.432-28.849-32.916-51.023h-72.507zm225.195-90.308c0 4.143-2.456 10.051-6.906 15.115 1.381-5.447-1.534-9.974-1.534-13.35 0-3.913 3.452-5.601 4.68-6.138 1.437 1.288 2.701 2.759 3.76 4.373zm-32.84 51.331c-.46.306-.844.537-1.227.767-.077-.23-1.305-2.916-1.305-2.916s-3.759.077-5.294.077c-.153-.614-.997-4.834-.997-4.834s-4.144.767-4.834.844c-1.151-1.611-2.225-3.913-2.916-8.67 9.438 2.071 12.277 10.205 16.573 14.731zm-87.162 93.53c33.99 0 47.494-40.128 47.494-40.128h-25.934c-2.071 4.603-7.672 13.274-16.956 13.274-9.438 0-7.75-12.2-.998-27.162 5.832-12.737 14.195-21.023 20.947-21.023 11.279 0 1.304 28.389 1.304 28.389h24.553l16.496-36.292c4.988 2.762 10.819 5.447 16.497 5.447 13.35 0 17.877-9.744 17.877-9.744l-3.913-2.148c5.601-11.356 4.22-15.959 4.22-15.959-4.143 4.987-10.128 8.823-11.432 9.744-6.139-6.829-8.517-14.195-19.949-16.42-.077-1.918-.154-4.066-.154-6.522 0 0 .154-.997 5.064-.997 4.834 0 11.739 3.529 16.19 3.529 1.904-.023 3.803-.202 5.677-.537 1.535 5.064-1.688 11.893-1.688 11.893s11.126-5.217 11.74-15.652c0 0 16.496-10.052 16.496-24.63 0-4.22-11.279-14.655-28.312-19.642-3.223-3.683-16.42-16.189-43.658-16.189-10.1.085-20.169 1.112-30.077 3.069-9.909 1.956-11.509-3.223-21.944-3.223-7.059 0-17.724.461-17.724 7.903-.015 4.099 1.072 8.127 3.146 11.663-7.29 4.296-16.574 10.741-21.024 13.887h-30.767l-11.049 24.093h12.967l-20.256 44.348c-1.381 3.069-6.752 3.836-14.655 3.836l-10.972 24.093h73.121c-6.061 21.1 3.836 51.1 37.673 51.1z"/><path d="m86.395 104.119c-3.99 8.67-9.284 11.125-14.118 11.125h-17.877l13.964-30.691h5.141c10.972 0 19.719 4.604 12.89 19.566zm-3.223-52.098h5.448c5.831 0 12.583 3.836 7.673 14.578-1.842 4.144-4.45 8.44-14.502 8.44h-9.054zm2.532 74.963c-9.897 21.637-.844 48.415 28.236 48.415 23.172 0 35.525-25.244 35.525-25.244h-9.745s-7.519 13.274-21.483 13.274c-13.888 0-18.952-13.197-7.75-37.75 6.292-13.887 16.497-25.32 27.699-25.32 18.721 0 11.279 28.389 11.279 28.389h9.744l17.034-37.366h-9.745s-2.071 4.681-6.598 4.681c-5.141 0-11.279-8.134-25.934-8.134-8.517 0-15.422 1.612-21.177 4.451-.645-5.156-3.978-9.6-8.747-11.663 5.541-2.586 9.997-7.043 12.583-12.583 5.064-11.202-1.074-25.167-12.199-25.167h-52.789l-4.066 9.054h8.056s4.834 0 1.074 8.287l-21.33 46.727c-3.759 8.209-16.726 8.209-16.726 8.209l-4.067 9.054h72.354c-.384.921-.844 1.765-1.228 2.686zm111.945-103.045.307 2.992c.06.745.69 1.327 1.437 1.327.084 0 .168-.008.251-.022.816-.074 1.433-.794 1.381-1.612l-.69-5.447s-5.755-4.144-18.722-.23l1.228 2.225s5.064-1.919 14.808.767z"/></g></svg>