<svg clip-rule="evenodd" fill-rule="evenodd" stroke-linejoin="round" stroke-miterlimit="2" viewBox="0 0 560 400" xmlns="http://www.w3.org/2000/svg"><path d="m180 74.743h200v234.504h-200zm4.498 4.498h190.356v143.41h-190.356z" fill="#ffde00"/><path d="m180 308.537h199.98v16.72h-199.98z" fill="#007dc6"/><path d="m279.999 215.327c-26.387 0-47.91-21.32-47.91-47.47 0-26.142 21.523-47.464 47.91-47.464 26.389 0 47.909 21.32 47.909 47.464-.003 26.15-21.52 47.47-47.909 47.47m-.643 2.177c-34.18 0-62.057-27.874-62.057-62.057 0-34.175 27.877-62.061 62.057-62.061 34.178 0 62.058 27.886 62.058 62.061 0 34.18-27.88 62.057-62.058 62.057z" fill="#007dc6"/><path d="m278.942 209.905c-22.961 0-41.693-18.599-41.693-41.411 0-22.81 18.732-41.409 41.693-41.409 22.959 0 41.69 18.599 41.69 41.409-.002 22.812-18.731 41.411-41.69 41.411" fill="#007dc6"/><path d="m263.366 182.315c8.664-.273 11.202-9.869 11.605-19.657.405-9.797 9.165-17.948 22.716-17.503-21.77-14.588-47.199-1.198-48.948 15.88-1.741 17.078 5.963 21.545 14.627 21.28" fill="#ffde00"/><path d="m294.769 154.678c-8.52.27-11.016 9.867-11.41 19.658-.4 9.796-9.014 17.942-22.331 17.494 21.399 14.599 46.402 1.209 48.118-15.872 1.715-17.08-5.859-21.553-14.377-21.28" fill="#ffde00"/><g fill="#007dc6"><path d="m229.461 246.576h1.217c.927 0 1.642-.178 2.138-.552.499-.369.741-.902.741-1.586 0-.716-.242-1.265-.741-1.637-.496-.369-1.225-.56-2.172-.56h-1.18v4.335m-.003 4.447v4.603h1.51c.989 0 1.732-.203 2.217-.592.487-.397.727-.994.727-1.783 0-.749-.24-1.307-.727-1.681-.482-.367-1.228-.547-2.217-.547zm-8.819 9.523v-23.342h8.887c2.577 0 4.591.074 6.045.223 1.453.149 2.605.391 3.444.729 1.071.429 1.896 1.102 2.473 1.995.578.895.871 1.96.871 3.194 0 1.31-.372 2.383-1.116 3.217-.743.83-1.876 1.453-3.405 1.839 1.758.327 3.053.938 3.893 1.825.845.89 1.262 2.104 1.262 3.645 0 2.217-.82 3.884-2.462 5-1.642 1.118-4.099 1.675-7.355 1.675z"/><path d="m246.119 260.546v-23.342h7.87v9.608c.516-.972 1.22-1.704 2.115-2.194.891-.493 1.964-.735 3.226-.735 1.887 0 3.281.529 4.188 1.586.913 1.064 1.372 2.692 1.372 4.898v10.177h-7.957v-10.081c0-.648-.116-1.127-.35-1.434-.236-.296-.611-.448-1.118-.448-.453 0-.82.163-1.082.487-.264.324-.394.769-.394 1.333v10.145z"/><path d="m268.673 248.978c.18-1.662.988-2.915 2.397-3.788 1.414-.871 3.366-1.307 5.867-1.307 1.504 0 2.839.132 3.991.405 1.155.268 2.084.654 2.78 1.158.696.499 1.178 1.135 1.462 1.915.29.783.423 1.978.423 3.561v9.627h-7.068l-.211-1.617c-.569.676-1.264 1.183-2.095 1.513-.834.332-1.831.501-2.997.501-1.637 0-2.935-.453-3.89-1.371-.952-.907-1.428-2.152-1.428-3.727 0-2.053.763-3.521 2.301-4.402 1.529-.885 4.126-1.333 7.782-1.333h.229v-1.008c0-.589-.113-1.011-.336-1.262-.225-.256-.594-.375-1.107-.375-.526 0-.912.113-1.171.355-.251.24-.4.623-.434 1.144zm9.543 4.335h-1.037c-.8 0-1.422.169-1.845.499-.425.329-.639.802-.639 1.425 0 .518.157.944.47 1.256.307.304.727.465 1.251.465.608 0 1.059-.197 1.357-.586.293-.397.44-.989.44-1.797v-1.262z"/><path d="m297.245 246.018.888-.803c.583-.577 1.064-.938 1.45-1.096.375-.154.809-.236 1.313-.236.355 0 .695.045 1.014.124.315.087.614.205.898.369v6.089c-.577-.171-1.115-.298-1.608-.388-.487-.09-.921-.138-1.307-.138-.817 0-1.406.265-1.78.777-.372.518-.558 1.344-.558 2.476v7.352h-8.081v-16.267h7.771z"/><path d="m305.433 248.978c.186-1.662.981-2.915 2.392-3.788 1.417-.871 3.369-1.307 5.864-1.307 1.51 0 2.842.132 3.994.405 1.161.268 2.082.654 2.786 1.158.684.499 1.169 1.135 1.456 1.915.288.783.423 1.978.423 3.561v9.627h-7.067l-.212-1.617c-.571.676-1.267 1.183-2.095 1.513-.834.332-1.828.501-2.997.501-1.637 0-2.935-.453-3.882-1.371-.963-.907-1.442-2.152-1.442-3.727 0-2.053.769-3.521 2.307-4.402 1.53-.885 4.135-1.333 7.785-1.333h.226v-1.008c0-.589-.113-1.011-.335-1.262-.22-.256-.592-.375-1.105-.375-.523 0-.918.113-1.166.355-.262.24-.405.623-.442 1.144zm9.538 4.335h-1.034c-.808 0-1.425.169-1.848.499-.428.329-.642.802-.642 1.425 0 .518.158.944.468 1.256.309.304.726.465 1.253.465.606 0 1.059-.197 1.355-.586.293-.397.442-.989.442-1.797v-1.262z"/><path d="m324.883 249.04v-4.763h2.146v-2.819l7.777-2.659v5.478h3.729v4.763h-3.729v4.989c0 .535.138.938.434 1.208.287.262.721.391 1.312.391.198 0 .443-.031.736-.078.281-.051.597-.124.932-.206v4.814c-1.045.256-2.014.456-2.899.591-.887.127-1.715.197-2.487.197-1.915 0-3.363-.414-4.34-1.242-.978-.825-1.465-2.056-1.465-3.695v-6.966h-2.146"/><path d="m196.472 281.308v4.859c.09.011.186.026.299.031h.439c.986 0 1.724-.211 2.222-.642.496-.423.744-1.059.744-1.904 0-.803-.256-1.392-.772-1.777-.512-.381-1.307-.567-2.385-.567zm-9.078 18.12v-23.339h11.734c3.434 0 5.994.631 7.676 1.884 1.681 1.257 2.521 3.155 2.521 5.71 0 2.574-.837 4.518-2.516 5.842-1.676 1.324-4.135 1.988-7.371 1.988h-2.966v7.915z"/><path d="m217.406 289.215h4.197c0-.054.005-.133.014-.237.008-.101.014-.177.014-.217 0-.715-.172-1.245-.527-1.636-.352-.38-.859-.566-1.524-.566-.679 0-1.208.222-1.594.659-.386.439-.583 1.036-.583 1.811v.186m11.329 3.374h-11.261v.457c0 .943.18 1.653.566 2.143.374.499.929.741 1.662.741.622 0 1.095-.155 1.411-.451.329-.304.546-.797.653-1.493h6.704c0 1.871-.758 3.302-2.27 4.316-1.521 1.014-3.682 1.518-6.501 1.518-3.065 0-5.484-.764-7.248-2.293-1.771-1.527-2.656-3.608-2.656-6.233 0-2.628.882-4.699 2.656-6.234 1.764-1.529 4.18-2.298 7.248-2.298 2.915 0 5.163.746 6.749 2.231 1.574 1.478 2.374 3.588 2.374 6.332 0 .236-.028.616-.07 1.152 0 .053-.006.087-.017.112z"/><path d="m230.484 287.919v-4.763h2.149v-2.817l7.771-2.661v5.478h3.73v4.763h-3.73v4.986c0 .538.147.943.434 1.205.29.268.727.395 1.313.395.197 0 .445-.026.732-.076.29-.051.603-.124.941-.203v4.808c-1.051.262-2.017.459-2.904.589-.888.138-1.716.2-2.479.2-1.924 0-3.369-.417-4.343-1.243-.983-.822-1.465-2.053-1.465-3.695v-6.963h-2.149"/><path d="m255.276 284.902.888-.805c.586-.575 1.067-.941 1.447-1.101.378-.147.814-.237 1.313-.237.361 0 .699.051 1.017.13.315.084.617.205.898.371v6.09c-.577-.175-1.112-.301-1.605-.391-.49-.093-.924-.133-1.31-.133-.817 0-1.408.256-1.777.772-.372.515-.561 1.343-.561 2.47v7.357h-8.084v-16.272h7.774z"/><path d="m272.447 287.049c-.594 0-1.031.327-1.293.972-.265.645-.391 1.746-.391 3.27 0 1.591.121 2.693.377 3.304.251.597.685.904 1.307.904.617 0 1.045-.307 1.293-.904.253-.611.374-1.71.374-3.304 0-1.575-.126-2.676-.385-3.304-.257-.626-.682-.938-1.282-.938m.003-4.29c3.073 0 5.498.763 7.264 2.27 1.766 1.518 2.651 3.594 2.651 6.234 0 2.642-.885 4.732-2.642 6.244-1.761 1.524-4.183 2.285-7.273 2.285-3.099 0-5.524-.755-7.276-2.265-1.752-1.507-2.628-3.589-2.628-6.233 0-2.657.876-4.747 2.64-6.265 1.752-1.51 4.174-2.27 7.264-2.27z"/><path d="m285.536 276.089h8.078v23.339h-8.078z"/><path d="m304.408 289.215h4.2c0-.054 0-.133.011-.237.009-.101.02-.177.02-.217 0-.715-.175-1.245-.53-1.636-.349-.38-.859-.566-1.524-.566-.678 0-1.202.222-1.597.659-.386.439-.58 1.036-.58 1.811zm11.332 3.374h-11.264v.457c0 .943.186 1.653.56 2.143.375.499.938.741 1.668.741.622 0 1.095-.155 1.411-.451.324-.304.541-.797.651-1.493h6.706c0 1.871-.76 3.302-2.27 4.316-1.524 1.014-3.684 1.518-6.501 1.518-3.067 0-5.484-.764-7.247-2.293-1.778-1.527-2.654-3.608-2.654-6.233 0-2.628.879-4.699 2.654-6.234 1.763-1.529 4.18-2.298 7.247-2.298 2.91 0 5.16.746 6.749 2.231 1.58 1.478 2.371 3.588 2.371 6.332 0 .236-.025.616-.062 1.152 0 .053-.011.087-.019.112z"/><path d="m318.602 283.153h7.9v10.05c0 .654.13 1.133.375 1.451.248.304.622.462 1.124.462.465 0 .828-.164 1.09-.487.262-.324.391-.769.391-1.333v-10.146h7.887v14.039c0 .065.014.346.054.851.031.492.059.96.079 1.383h-7.645v-2.569c-.659.974-1.479 1.707-2.45 2.211-.972.501-2.059.749-3.273.749-1.89 0-3.282-.529-4.178-1.583-.901-1.051-1.349-2.69-1.349-4.904v-10.174"/><path d="m341.38 299.428v-14.038c0-.057-.014-.324-.051-.82-.033-.498-.061-.972-.073-1.414h7.642v2.532c.659-.966 1.473-1.701 2.431-2.188.946-.493 2.031-.741 3.253-.741 1.132 0 2.115.234 2.944.701.819.465 1.602 1.214 2.343 2.259.58-.957 1.341-1.698 2.307-2.194.958-.504 2.056-.763 3.284-.763 1.904 0 3.304.532 4.191 1.588.896 1.051 1.344 2.688 1.344 4.901v10.177h-7.929v-10.078c0-.651-.13-1.135-.355-1.436-.237-.299-.614-.448-1.115-.448-.462 0-.817.152-1.074.462-.247.309-.377.763-.377 1.323v10.177h-7.949v-10.078c0-.651-.118-1.135-.349-1.436-.237-.299-.614-.448-1.118-.448-.454 0-.803.157-1.076.487-.268.327-.406.769-.406 1.329v10.149h-7.867"/></g></svg>