<svg clip-rule="evenodd" fill-rule="evenodd" stroke-linejoin="round" stroke-miterlimit="2" viewBox="0 0 560 400" xmlns="http://www.w3.org/2000/svg" xmlns:xlink="http://www.w3.org/1999/xlink"><linearGradient id="a" gradientUnits="userSpaceOnUse" x1="110.813" x2="180.3976" y1="183.52" y2="183.52"><stop offset="0" stop-color="#d6e6a6"/><stop offset="1" stop-color="#d3deaa"/></linearGradient><linearGradient id="b" gradientTransform="matrix(-39.4743 0 0 -39.4743 180.387 174.915)" gradientUnits="userSpaceOnUse" x1="0" x2="1" y1="0" y2="0"><stop offset="0" stop-color="#cdd894"/><stop offset=".33" stop-color="#bfcf83"/><stop offset="1" stop-color="#9eba56"/></linearGradient><linearGradient id="c" gradientTransform="matrix(-29.5487 -51.1833 51.1833 -29.5487 173.595 192.639)" gradientUnits="userSpaceOnUse" x1="0" x2="1" y1="0" y2="0"><stop offset="0" stop-color="#cfe294"/><stop offset=".17" stop-color="#b9d187"/><stop offset=".52" stop-color="#87b268"/><stop offset="1" stop-color="#338d45"/></linearGradient><radialGradient id="d" cx="0" cy="0" gradientTransform="matrix(27.771 0 0 -27.771 130.363 168.749)" gradientUnits="userSpaceOnUse" r="1"><stop offset="0" stop-color="#010101"/><stop offset=".09" stop-color="#1f2428"/><stop offset=".21" stop-color="#35404a"/><stop offset=".34" stop-color="#46596b"/><stop offset=".47" stop-color="#536f8a"/><stop offset=".59" stop-color="#5c80a4"/><stop offset=".73" stop-color="#618db8"/><stop offset=".86" stop-color="#6595c6"/><stop offset="1" stop-color="#69c"/></radialGradient><radialGradient id="e" cx="0" cy="0" gradientTransform="matrix(4.22474 -37.2582 -22.0735 -2.3777 113.731 163.98)" gradientUnits="userSpaceOnUse" r="1"><stop offset="0" stop-color="#e7f2f8"/><stop offset=".12" stop-color="#cadbed"/><stop offset=".3" stop-color="#a5c1e1"/><stop offset=".48" stop-color="#89aed7"/><stop offset=".66" stop-color="#76a2d1"/><stop offset=".84" stop-color="#6a9bcd"/><stop offset="1" stop-color="#69c"/></radialGradient><clipPath id="f"><path clip-rule="evenodd" d="m112.062 172.806c0 18.17 14.73 32.897 32.896 32.897 18.172 0 32.901-14.726 32.901-32.897 0-18.172-14.729-32.901-32.901-32.901-18.166 0-32.896 14.729-32.896 32.901"/></clipPath><clipPath id="g"><path clip-rule="evenodd" d="m112.062 172.806c0 18.17 14.73 32.897 32.896 32.897 18.172 0 32.901-14.726 32.901-32.897 0-18.172-14.729-32.901-32.901-32.901-18.166 0-32.896 14.729-32.896 32.901"/></clipPath><clipPath id="h"><path clip-rule="evenodd" d="m153.706 171.743c-13.19-40.525-41.153-44.63-49.622-12.713-17.147 64.64 54.862 28.81 49.622 12.713z"/></clipPath><clipPath id="i"><path clip-rule="evenodd" d="m102.852 172.806c0 7.098 2.153 13.697 5.841 19.173 15.49-2.44 33.003-15.529 30.395-24.11-3.751-12.341-9.339-21.197-15.088-26.803-12.419 5.182-21.148 17.443-21.148 31.74"/></clipPath><g fill-rule="nonzero"><path d="m188.042 246.222v-69.772h27.193c4.6 0 8.416.478 11.448 1.433 3.034.953 5.657 2.948 7.872 5.98 2.216 3.033 3.323 6.594 3.323 10.683 0 3.852-1.125 7.2-3.374 10.044-2.247 2.843-5.35 4.658-9.303 5.444 4.909.852 8.621 2.846 11.144 5.981 2.521 3.136 3.783 6.846 3.783 11.142 0 5.385-1.763 9.907-5.291 13.571-3.525 3.665-8.954 5.494-16.28 5.494zm11.907-40.482h15.337c3.135 0 5.614-.938 7.436-2.812 1.824-1.874 2.735-4.259 2.735-7.156 0-3.203-1.041-5.564-3.117-7.079-2.08-1.517-4.516-2.274-7.308-2.274h-15.083zm0 30.003h16.256c3.442 0 6.158-.903 8.153-2.708 1.993-1.807 2.991-4.242 2.991-7.312 0-2.929-1.014-5.331-3.041-7.207-2.029-1.874-4.712-2.811-8.054-2.811h-16.305z" fill="#2473bb"/><path d="m258.378 188.563h-11.653v-12.113h11.653zm0 57.658h-11.653v-51.625h11.653z" fill="#2473bb"/><path d="m288.383 247.295c-7.633 0-13.46-2.742-17.48-8.23-4.02-5.487-6.033-11.772-6.033-18.861 0-7.632 2.225-13.989 6.669-19.065 4.449-5.079 10.319-7.616 17.613-7.616 6.917 0 12.599 2.472 17.045 7.413 4.447 4.941 6.669 11.365 6.669 19.269 0 8.144-2.306 14.695-6.924 19.653-4.619 4.957-10.472 7.437-17.559 7.437m.409-9.61c7.839 0 11.757-5.843 11.757-17.532 0-5.282-.939-9.448-2.812-12.497-1.874-3.05-4.754-4.574-8.64-4.574-4.02 0-7.001 1.578-8.946 4.727-1.942 3.152-2.914 7.337-2.914 12.548 0 5.623 1.03 9.916 3.094 12.88 2.065 2.967 4.882 4.448 8.461 4.448" fill="#2473bb"/><path d="m402.224 229.763 10.531 1.432c-1.362 4.666-4.023 8.519-7.972 11.55-3.957 3.034-8.912 4.55-14.875 4.55-7.156 0-12.916-2.402-17.277-7.207-4.362-4.805-6.541-11.313-6.541-19.527 0-7.801 2.196-14.259 6.593-19.371 4.396-5.112 10.358-7.667 17.89-7.667 7.361 0 13.051 2.523 17.071 7.566 4.02 5.041 6.033 11.518 6.033 19.423l-.05 1.328h-35.422c0 3.509.332 6.321.995 8.433.666 2.115 1.985 3.953 3.965 5.519 1.975 1.57 4.444 2.353 7.41 2.353 5.756 0 9.641-2.794 11.649-8.382m-.713-15.437c-.034-3.715-1.15-6.747-3.348-9.096-2.198-2.353-4.915-3.528-8.153-3.528-3.204 0-5.878 1.098-8.024 3.297-2.147 2.197-3.407 5.307-3.782 9.328h23.307z" fill="#2473bb"/><path d="m462.852 246.219h-11.658v-32.253c0-3.406-.779-5.97-2.347-7.692-1.568-1.721-3.459-2.58-5.673-2.58-3.035 0-5.692 1.329-7.975 3.986-2.284 2.659-3.426 6.664-3.426 12.011v26.527h-11.652v-51.623h10.631v11.96c3.715-8.688 8.926-13.034 15.641-13.034 4.53 0 8.407 1.43 11.628 4.295 3.223 2.863 4.831 7.888 4.831 15.075z" fill="#2473bb"/><path d="m355.182 197.757c4.106 3.355 6.158 7.084 6.158 11.19 0 4.585-1.922 8.381-5.775 11.392-3.848 3.014-8.938 4.517-15.268 4.517-2.737 0-5.937-.444-9.599-1.332-2.395 1.094-3.592 2.788-3.592 5.079 0 1.27.58 2.431 1.744 3.493 1.162 1.062 2.925 1.591 5.287 1.591h15.398c5.27 0 9.403 1.359 12.397 4.081 2.994 2.719 4.492 6.1 4.492 10.136 0 4.894-2.267 8.947-6.802 12.161-4.534 3.22-11.249 4.827-20.146 4.827-16.733 0-25.099-4.668-25.099-14.013 0-4.617 2.516-8.127 7.546-10.523-3.218-2.736-4.824-5.595-4.824-8.572 0-4.515 2.754-8.11 8.263-10.775-4.792-2.912-7.184-6.914-7.184-12.012 0-4.31 1.759-7.992 5.286-11.038 3.524-3.042 8.876-4.565 16.065-4.565 3.283 0 6.619.358 10.006 1.079m-22.583 49.017c-1.678 1.539-2.515 3.029-2.515 4.465 0 2.361 1.403 4.438 4.209 6.235 2.806 1.8 7.269 2.698 13.397 2.698 8.998 0 13.498-2.311 13.498-6.93 0-1.711-.787-3.004-2.362-3.873-1.572-.874-3.372-1.311-5.389-1.311h-12.421c-2.359-.001-5.166-.428-8.417-1.284m12.831-25.56c6.363 0 9.546-2.994 9.546-8.983 0-2.293-.796-4.223-2.386-5.799-1.593-1.574-3.91-2.361-6.956-2.361-3.079 0-5.465.819-7.158 2.463-1.699 1.643-2.542 3.696-2.542 6.159 0 2.533.838 4.587 2.514 6.16 1.678 1.574 4.005 2.361 6.982 2.361" fill="#2473bb"/><path d="m348.492 194.879 15.166-5.105 1.667 9.927-8.375.735" fill="#2473bb"/><g clip-path="url(#f)"><path d="m177.527 157.167c3.415 8.2 3.913 17.765.73 27.052-5.767 16.824-23.56 5.834-37.344-9.662-6.868 2.079-12.815 3.326-17.563 4.368-13.45 2.957-17.311 4.319-5.472 18.57 20.907 25.166 41.956 13.136 55.753-4.831 2.512-3.272 4.78-6.736 6.766-10.213v-27.257c-.962.678-1.919 1.337-2.87 1.973z" fill="url(#a)"/><path d="m178.257 184.219c3.182-9.288 2.685-18.854-.73-27.052-13.705 9.181-26.219 14.246-36.614 17.39 13.784 15.496 31.577 26.486 37.344 9.662z" fill="url(#b)"/><path d="m177.527 157.167c-6.95-16.686-26.043-27.692-51.215-19.023-2.058.708-2.967 2.471-2.962 4.949v.017c.028 7.211 7.788 20.462 17.563 31.448 10.395-3.145 22.909-8.21 36.614-17.391z" fill="url(#c)"/></g></g><g clip-path="url(#g)"><g clip-path="url(#h)" opacity=".92"><path d="m89.588 128.812h72.006v96.556h-72.006z" fill="url(#d)"/></g></g><g clip-path="url(#i)"><path d="m97.148 191.365 6.173-54.44 44.154 4.756-6.173 54.441z" fill="url(#e)" fill-rule="nonzero"/></g></svg>