<svg clip-rule="evenodd" fill-rule="evenodd" stroke-linejoin="round" stroke-miterlimit="2" viewBox="0 0 560 400" xmlns="http://www.w3.org/2000/svg"><path d="m88.154 424.113c-10.435-.366-14.022-.912-14.521-2.211-.741-1.932.488-12.367 5.065-42.984 1.715-11.473 4.209-28.868 5.541-38.654 1.333-9.787 3.281-22.911 4.33-29.164 1.049-6.254 1.52-12.052 1.046-12.885-2.343-4.12-13.95-21.468-31.801-47.532-34.38-50.197-52.932-77.798-55.018-81.85-3.202-6.224-2.458-8.888 5.674-20.304 4.204-5.903 10.13-14.347 13.167-18.764 15.252-22.18 42.706-60.849 45.004-63.388 1.104-1.22 2.98-2.218 4.168-2.218 1.966 0 75.206 31.834 88.247 38.357 3.489 1.744 5.918 3.944 6.638 6.007 1.338 3.84-1.288 24.536-3.496 27.556-1.683 2.301-6.511 3.301-29.277 6.062-21.813 2.645-24.489 1.827-37.295-11.392-4.864-5.02-9.369-8.802-10.012-8.404-1.393.86 1.27 11.843 3.836 15.825 5.039 7.819 3.096 11.466-6.98 13.103-7.688 1.249-10.602 2.887-8.619 4.844.641.633 9.819 4.416 20.395 8.407 14.222 5.368 20.044 8.184 22.356 10.815 1.72 1.956 3.145 3.892 3.166 4.301.022.409 2.738 5.379 6.036 11.044 50.79 87.232 49.646 85.148 48.723 88.826-.464 1.85-3.593 4.934-8.134 8.018-4.059 2.756-7.036 5.568-6.616 6.248.421.68 3.61 1.064 7.088.853l6.322-.383-.299 11.658c-.165 6.412-1.691 28.5-3.392 49.085-5.067 61.318-5.469 65.438-6.563 67.208-.992 1.604-48.748 2.828-74.779 1.916zm89.021-.179c-4.876-.561-6.136-3.925-5.291-14.128 2.488-30.053 4.469-52.402 5.023-56.657.351-2.7 1.711-16.46 3.023-30.579 1.311-14.118 2.939-26.225 3.618-26.904.827-.827 3.074-.813 6.817.043 3.07.703 5.853.839 6.185.302s-2.628-6.4-6.577-13.028c-3.949-6.629-11.205-18.955-16.124-27.391-4.918-8.437-10.185-17.272-11.703-19.634-1.518-2.363-9.807-16.342-18.419-31.067-10.843-18.538-15.266-27.163-14.382-28.047s4.614-.833 12.129.166c8.777 1.168 14.02 2.862 27.419 8.861 26.435 11.836 27.15 12.3 41.253 26.75 8.706 8.92 14.092 13.519 15.832 13.519 2.857 0 7.924-3.355 31.173-20.641 8.332-6.195 15.645-11.264 16.251-11.264 2.444 0 2.292 4.333-.802 22.906-7.572 45.455-16.393 67.579-35.15 88.156l-8.619 9.454.724 53.089c.662 48.619.551 53.232-1.324 54.786-1.581 1.309-7.252 1.696-24.864 1.696-12.549 0-24.336-.175-26.192-.388zm36.651-215.695c-8.969-9.592-10.709-12.072-9.817-13.999.596-1.288 6.105-7.752 12.243-14.365 6.137-6.613 13.492-14.723 16.343-18.024 2.852-3.3 5.969-6.785 6.928-7.744.96-.959 7.319-8.019 14.132-15.689 6.813-7.671 13.096-14.218 13.963-14.551 3.054-1.172 31.35 32.027 31.35 36.782 0 1.705-3.928 5.202-28.767 25.61-10.679 8.774-24.175 19.952-29.991 24.839-5.816 4.888-11.679 8.867-13.029 8.843-1.483-.028-6.767-4.657-13.355-11.702zm-40.593-25.792c-9.425-4.378-17.407-8.232-17.738-8.564-1.685-1.684 4.56-10.916 32.397-47.89 34.311-45.573 35.172-46.6 37.794-45.1 3.955 2.263 35.241 33.467 35.241 35.148 0 2.741-1.311 4.306-45.468 54.265-7.159 8.099-14.061 15.968-15.338 17.487-3.595 4.272-8.12 3.373-26.888-5.346zm-52.812-20.277c-20.632-7.75-23.271-9.207-21.591-11.925.839-1.357 2.295-1.39 8.096-.186 7.71 1.601 14.663 1.057 31.288-2.447 22.601-4.763 24.29-4.406 20.172 4.274-2.619 5.519-14.102 17.833-16.536 17.732-.987-.04-10.63-3.392-21.429-7.448zm50.33-43.265c.54-8.645.409-14.801-.342-16.145-.668-1.194-7.495-5.26-15.171-9.035-8.162-4.015-14.109-7.693-14.324-8.861-.354-1.921 28.136-46.146 30.914-47.99 4.217-2.798 7.371-.635 26.299 18.032l19.237 18.972-1.944 3.476c-1.07 1.912-8.803 12.288-17.185 23.058-8.383 10.77-17.423 22.481-20.09 26.024-7.502 9.969-8.429 9.025-7.394-7.531zm-42.354-38.546c-7.486-2.514-44.968-19.168-45.689-20.301-1.419-2.23-1.453-2.167 8.48-15.639 5.183-7.029 13.271-18.025 17.975-24.437 10.653-14.519 14.216-18.407 16.874-18.407 2.452 0 13.581 7.952 27.873 19.915 8.456 7.079 10.045 8.965 9.41 11.174-.996 3.469-30.032 47.2-31.758 47.83-.728.266-2.152.205-3.165-.135z" fill="#131313" fill-rule="nonzero" transform="matrix(.662174 0 0 .662174 180.674 58.9569)"/></svg>