<svg clip-rule="evenodd" fill-rule="evenodd" stroke-linejoin="round" stroke-miterlimit="2" viewBox="0 0 560 400" xmlns="http://www.w3.org/2000/svg"><g fill-rule="nonzero" transform="matrix(.73163 0 0 .73163 180 66.1795)"><path d="m273.362 0v310.715c-12.404 25.506-48.828 31.545-74.752 35.587-13.705 2.091-27.875.837-41.394 3.717-9.199 1.998-14.635 9.152-20.535 15.796-5.9-6.644-11.336-13.798-20.535-15.796-13.519-2.88-27.689-1.626-41.394-3.717-25.924-4.042-62.348-10.081-74.752-35.587v-310.715z"/><path d="m267.787 5.575v303.839c-8.223 16.865-32.428 23.973-49.246 27.504-7.015 1.486-14.077 2.834-20.813 3.902-13.52 2.091-28.619.976-41.674 3.763-8.409 1.812-13.798 6.597-19.373 12.823-5.575-6.226-10.964-11.011-19.373-12.823-13.008-2.787-28.154-1.672-41.673-3.763-6.737-1.068-13.799-2.416-20.814-3.902-16.818-3.531-41.023-10.639-49.246-27.504v-303.839z" fill="#fff"/><path d="m11.15 11.15v296.963c7.526 13.984 30.57 20.396 44.786 23.369 7.015 1.487 14.031 2.834 20.535 3.856 13.705 2.091 28.758.976 41.998 3.81 7.016 1.533 13.148 5.064 18.212 10.035v-338.033z"/><path d="m262.212 11.15v296.963c-7.526 13.984-30.57 20.396-44.786 23.369-7.015 1.487-14.03 2.834-20.535 3.856-13.705 2.091-28.757.976-41.998 3.81-7.015 1.533-13.148 5.064-18.212 10.035v-338.033z" fill="#e2001a"/><g fill="#fff"><path d="m18.444 34.054v-12.126c0-1.022.232-1.811.697-2.322.465-.512 1.068-.79 1.812-.79.79 0 1.394.278 1.858.79.465.511.697 1.3.697 2.322v12.405c0 1.394.186 2.555.511 3.531.279.929.836 1.672 1.673 2.183.789.511 1.904.79 3.345.79 1.997 0 3.391-.511 4.227-1.579.837-1.069 1.255-2.695 1.255-4.832v-12.498c0-1.068.232-1.811.697-2.322.464-.512 1.068-.79 1.811-.79.79 0 1.394.278 1.859.79.511.511.743 1.254.743 2.322v12.126c0 1.951-.186 3.624-.604 4.925-.371 1.301-1.068 2.462-2.137 3.484-.929.836-1.998 1.44-3.206 1.858-1.207.372-2.648.558-4.274.558-1.951 0-3.623-.186-5.017-.604s-2.509-1.069-3.392-1.951c-.882-.883-1.533-1.998-1.951-3.392-.418-1.347-.604-2.973-.604-4.878z"/><path d="m46.18 44.879c-.697 0-1.347-.232-1.859-.65-.511-.465-.743-1.115-.743-1.952 0-.697.232-1.301.743-1.812.465-.511 1.069-.743 1.812-.743.697 0 1.348.232 1.859.743s.743 1.115.743 1.812c0 .79-.232 1.441-.743 1.905-.511.465-1.115.697-1.812.697z"/><path d="m73.544 36.888c0 1.533-.372 2.881-1.162 4.135-.789 1.208-1.951 2.137-3.437 2.834-1.534.697-3.299 1.022-5.39 1.022-2.508 0-4.553-.465-6.179-1.394-1.115-.697-2.044-1.579-2.787-2.694-.697-1.162-1.069-2.23-1.069-3.299 0-.65.233-1.161.651-1.626.418-.418.975-.65 1.672-.65.511 0 .976.185 1.348.511.371.371.696.882.929 1.533.325.836.697 1.486 1.068 2.044.372.511.883.976 1.58 1.301.65.371 1.533.557 2.648.557 1.533 0 2.741-.371 3.67-1.068.976-.697 1.44-1.58 1.44-2.648 0-.837-.232-1.534-.743-2.045s-1.208-.929-1.998-1.207c-.789-.233-1.904-.558-3.252-.837-1.812-.464-3.298-.929-4.553-1.486-1.208-.604-2.183-1.348-2.88-2.323-.743-1.022-1.069-2.23-1.069-3.671 0-1.393.372-2.601 1.115-3.716.744-1.069 1.859-1.905 3.299-2.463 1.44-.604 3.113-.882 5.064-.882 1.533 0 2.88.186 3.995.604 1.115.371 2.044.882 2.788 1.533.743.604 1.301 1.301 1.672 1.998.326.696.511 1.347.511 2.044 0 .604-.232 1.161-.65 1.626-.418.464-.976.743-1.626.743-.558 0-1.022-.139-1.301-.464-.325-.279-.65-.744-1.022-1.394-.465-.976-.976-1.719-1.626-2.277-.65-.511-1.673-.79-3.113-.79-1.301 0-2.369.326-3.159.883-.836.604-1.254 1.255-1.254 2.091 0 .511.139.929.418 1.301.279.371.65.697 1.161.929.465.279.976.511 1.44.65.512.14 1.301.372 2.463.651 1.394.325 2.694.697 3.856 1.115 1.161.371 2.137.882 2.927 1.44.836.557 1.44 1.301 1.905 2.183.418.883.65 1.952.65 3.206z"/><path d="m79.351 44.879c-.743 0-1.347-.232-1.858-.65-.511-.465-.743-1.115-.743-1.952 0-.697.232-1.301.696-1.812.512-.511 1.115-.743 1.859-.743.697 0 1.347.232 1.858.743s.743 1.115.743 1.812c0 .79-.232 1.441-.743 1.905-.511.465-1.115.697-1.812.697z"/><path d="m107.133 44.461h-7.712c-1.068 0-1.904-.232-2.369-.743-.465-.512-.697-1.301-.697-2.37v-18.955c0-1.115.232-1.905.743-2.416.465-.464 1.255-.743 2.323-.743h8.177c1.208 0 2.277.093 3.159.232.883.14 1.673.465 2.37.883.604.325 1.115.79 1.579 1.347.465.558.79 1.162 1.022 1.812.233.65.372 1.347.372 2.091 0 2.508-1.254 4.367-3.763 5.528 3.298 1.069 4.971 3.113 4.971 6.133 0 1.44-.372 2.694-1.115 3.809-.697 1.162-1.673 1.998-2.927 2.509-.743.325-1.626.558-2.648.697-.976.139-2.137.186-3.485.186zm-.371-11.197h-5.296v7.387h5.482c3.438 0 5.157-1.254 5.157-3.763 0-1.254-.419-2.183-1.348-2.741-.882-.604-2.23-.883-3.995-.883zm-5.296-10.174v6.504h4.645c1.301 0 2.277-.093 2.974-.372.697-.232 1.208-.696 1.579-1.347.279-.464.418-1.022.418-1.626 0-1.254-.418-2.137-1.347-2.555-.883-.372-2.276-.604-4.135-.604z"/><path d="m138.911 35.355c0 1.394-.232 2.695-.65 3.856-.465 1.208-1.069 2.184-1.859 3.066-.836.837-1.811 1.487-2.926 1.952-1.162.418-2.463.65-3.903.65-1.394 0-2.695-.232-3.81-.65-1.161-.465-2.137-1.162-2.973-1.998s-1.44-1.858-1.858-3.02c-.465-1.161-.651-2.462-.651-3.856 0-1.44.186-2.741.651-3.903.418-1.207 1.068-2.183 1.858-3.019.836-.837 1.812-1.487 2.973-1.952 1.162-.464 2.416-.696 3.81-.696 1.44 0 2.741.232 3.903.696 1.115.465 2.137 1.115 2.926 1.952.79.882 1.441 1.858 1.859 3.066.418 1.161.65 2.462.65 3.856zm-4.692 0c0-1.905-.418-3.391-1.255-4.46-.836-1.069-1.951-1.626-3.391-1.626-.929 0-1.719.232-2.416.743-.697.465-1.254 1.162-1.626 2.091s-.557 1.998-.557 3.252c0 1.208.185 2.276.557 3.206.372.929.929 1.626 1.58 2.09.697.511 1.533.744 2.462.744 1.44 0 2.555-.511 3.391-1.626.837-1.023 1.255-2.509 1.255-4.414z"/><path d="m154.8 42.231v-.605c-.558.744-1.161 1.301-1.765 1.812-.651.465-1.301.836-2.045 1.069-.743.232-1.579.371-2.508.371-1.115 0-2.137-.278-3.067-.743-.882-.465-1.579-1.115-2.09-1.905-.558-1.022-.837-2.462-.837-4.32v-9.292c0-.976.186-1.673.604-2.137.419-.465.976-.697 1.719-.697.697 0 1.255.232 1.719.743.418.465.651 1.162.651 2.091v7.526c0 1.069.093 1.998.279 2.741.185.697.511 1.301.975 1.719.465.418 1.115.605 1.951.605.744 0 1.487-.233 2.23-.697.697-.465 1.208-1.069 1.487-1.812.279-.697.418-2.137.418-4.367v-5.715c0-.929.233-1.626.651-2.09.418-.511 1.022-.743 1.719-.743s1.254.232 1.672.696c.418.465.651 1.162.651 2.137v13.613c0 .883-.233 1.533-.651 1.998-.372.418-.929.65-1.533.65-.65 0-1.208-.232-1.626-.697-.418-.464-.604-1.115-.604-1.951z"/><path d="m163.859 42.045v-20.349c0-.975.233-1.672.651-2.137.418-.511.975-.743 1.672-.743.744 0 1.301.232 1.719.743.465.465.651 1.162.651 2.137v20.349c0 .929-.186 1.673-.651 2.137-.418.465-1.022.697-1.719.697s-1.254-.232-1.672-.743c-.418-.465-.651-1.162-.651-2.091z"/><path d="m190.991 35.355c0 1.394-.232 2.695-.65 3.856-.465 1.208-1.069 2.184-1.905 3.066-.836.837-1.812 1.487-2.927 1.952-1.161.418-2.462.65-3.902.65-1.394 0-2.695-.232-3.81-.65-1.161-.465-2.137-1.162-2.973-1.998-.837-.836-1.441-1.858-1.859-3.02-.464-1.161-.65-2.462-.65-3.856 0-1.44.186-2.741.65-3.903.418-1.207 1.069-2.183 1.859-3.019.836-.837 1.812-1.487 2.973-1.952 1.161-.464 2.416-.696 3.81-.696 1.44 0 2.741.232 3.902.696 1.115.465 2.137 1.115 2.973 1.952.79.882 1.441 1.858 1.859 3.066.418 1.161.65 2.462.65 3.856zm-4.692 0c0-1.905-.465-3.391-1.301-4.46s-1.951-1.626-3.391-1.626c-.883 0-1.719.232-2.416.743-.697.465-1.208 1.162-1.626 2.091-.372.929-.558 1.998-.558 3.252 0 1.208.186 2.276.558 3.206.371.929.929 1.626 1.626 2.09.697.511 1.486.744 2.416.744 1.44 0 2.555-.511 3.391-1.626.836-1.023 1.301-2.509 1.301-4.414z"/><path d="m211.944 29.222v13.659c0 1.58-.139 2.881-.511 4.042-.325 1.116-.836 2.044-1.58 2.788-.743.697-1.672 1.254-2.88 1.626-1.208.325-2.648.511-4.414.511-1.626 0-3.066-.233-4.367-.651-1.254-.464-2.23-1.068-2.927-1.765-.696-.743-1.022-1.44-1.022-2.23 0-.558.186-1.022.558-1.394.418-.372.883-.557 1.44-.557.697 0 1.301.325 1.812.929.232.325.511.604.79.929.232.325.557.604.882.836.326.186.697.372 1.162.465.465.139.976.186 1.58.186 1.207 0 2.183-.186 2.833-.511.697-.326 1.162-.837 1.394-1.441.279-.604.465-1.254.511-1.951.047-.697.047-1.812.093-3.345-.743 1.022-1.579 1.812-2.509 2.323-.929.511-2.09.79-3.391.79-1.58 0-2.927-.418-4.088-1.208-1.208-.79-2.091-1.905-2.741-3.345-.604-1.44-.93-3.113-.93-5.018 0-1.393.186-2.694.558-3.809.418-1.162.929-2.091 1.672-2.881.697-.789 1.534-1.393 2.463-1.765.929-.418 1.951-.604 3.02-.604 1.347 0 2.508.279 3.484.79s1.858 1.301 2.694 2.369v-.604c0-.836.233-1.44.604-1.905.419-.464.93-.696 1.58-.696.883 0 1.487.325 1.812.929.279.557.418 1.44.418 2.508zm-13.612 5.994c0 1.904.418 3.298 1.254 4.274.836.975 1.905 1.486 3.252 1.486.744 0 1.487-.232 2.184-.65s1.254-1.022 1.719-1.858c.418-.837.65-1.859.65-3.067 0-1.951-.418-3.437-1.254-4.506-.883-1.069-1.998-1.58-3.345-1.58-1.348 0-2.416.511-3.206 1.533-.836 1.023-1.254 2.463-1.254 4.368z"/><path d="m220.957 28.386v.604c.836-1.115 1.719-1.905 2.695-2.416 1.022-.511 2.137-.789 3.391-.789s2.369.278 3.345.836c.976.511 1.673 1.301 2.184 2.276.278.558.511 1.208.604 1.859.046.65.093 1.533.093 2.555v8.734c0 .929-.186 1.626-.604 2.137-.465.465-1.023.697-1.719.697-.697 0-1.255-.232-1.673-.743-.464-.465-.65-1.162-.65-2.091v-7.851c0-1.534-.233-2.695-.651-3.531-.418-.837-1.301-1.208-2.555-1.208-.836 0-1.626.232-2.323.743-.65.465-1.161 1.162-1.487 2.044-.232.697-.371 1.998-.371 3.903v5.9c0 .929-.186 1.673-.651 2.137-.418.465-1.022.697-1.719.697-.65 0-1.208-.232-1.672-.743-.418-.465-.651-1.162-.651-2.091v-13.566c0-.883.233-1.579.604-1.998.372-.464.93-.696 1.58-.696.418 0 .79.139 1.161.325.326.186.558.464.79.882.186.372.279.837.279 1.394z"/><path d="m251.062 36.516h-9.152c0 1.069.186 1.998.604 2.788.418.836.975 1.44 1.672 1.858s1.487.604 2.323.604c.558 0 1.069-.046 1.533-.186.465-.139.93-.325 1.348-.604.418-.278.836-.603 1.208-.929.371-.325.836-.743 1.44-1.301.232-.185.557-.325 1.022-.325.464 0 .883.14 1.161.418.279.279.465.651.465 1.115 0 .419-.186.93-.511 1.487-.325.558-.836 1.115-1.533 1.626-.651.511-1.487.976-2.509 1.301-1.022.372-2.184.511-3.484.511-3.02 0-5.39-.836-7.062-2.555-1.673-1.719-2.509-4.042-2.509-7.015 0-1.394.232-2.649.651-3.857.371-1.207.975-2.183 1.765-3.066.79-.836 1.765-1.486 2.927-1.951 1.161-.418 2.462-.65 3.856-.65 1.858 0 3.438.371 4.739 1.161 1.301.743 2.276 1.765 2.927 2.973.65 1.255 1.022 2.509 1.022 3.763 0 1.162-.372 1.952-1.022 2.277-.697.372-1.626.557-2.881.557zm-9.152-2.694h8.502c-.14-1.58-.558-2.788-1.301-3.577-.743-.79-1.766-1.208-2.973-1.208-1.162 0-2.138.418-2.881 1.208-.743.836-1.208 1.997-1.347 3.577z"/><path d="m49.989 294.78c0 .882-.185 1.858-.557 2.927-.418 1.022-1.022 2.044-1.858 3.066-.837.975-1.905 1.812-3.206 2.416-1.301.65-2.834.975-4.599.975-1.301 0-2.509-.139-3.578-.418-1.068-.279-2.09-.743-2.927-1.347-.882-.558-1.719-1.347-2.462-2.323-.65-.883-1.208-1.905-1.672-2.973-.465-1.115-.837-2.277-1.069-3.531-.232-1.208-.325-2.555-.325-3.949 0-2.23.279-4.274.882-6.086.558-1.766 1.394-3.299 2.509-4.6 1.069-1.254 2.37-2.23 3.81-2.88 1.487-.697 3.066-1.022 4.692-1.022 2.044 0 3.856.464 5.436 1.347 1.579.929 2.787 2.044 3.624 3.392.836 1.347 1.254 2.601 1.254 3.809 0 .651-.186 1.208-.604 1.719s-.929.743-1.487.743c-.65 0-1.161-.185-1.44-.511-.325-.371-.697-.929-1.115-1.811-.65-1.394-1.44-2.416-2.323-3.113s-1.998-1.022-3.298-1.022c-2.091 0-3.717.882-4.971 2.648-1.208 1.765-1.859 4.321-1.859 7.573 0 2.23.279 4.042.836 5.482.558 1.44 1.301 2.555 2.323 3.252.976.697 2.184 1.068 3.485 1.068 1.486 0 2.694-.418 3.716-1.208 1.023-.789 1.766-1.997 2.277-3.577.232-.743.465-1.347.79-1.812.325-.464.836-.697 1.533-.697.604 0 1.115.233 1.579.697.419.465.604 1.069.604 1.766z"/><path d="m63.23 279.263-1.672-2.277-1.719 2.277c-.465.65-.79 1.022-.976 1.161s-.511.186-.976.186h-1.347c-.464 0-.697-.047-.697-.232 0-.14.186-.465.511-.976l1.905-2.555c.139-.233.325-.465.558-.744.185-.325.371-.511.511-.65.185-.093.371-.186.696-.279.279-.046.604-.093 1.023-.093h.929c.79 0 1.301.093 1.579.325.279.186.651.651 1.208 1.441l1.952 2.601c.371.465.511.744.511.837 0 .232-.233.325-.744.325h-1.301c-.371 0-.604-.047-.836-.14-.186-.092-.372-.278-.557-.511-.186-.232-.372-.464-.558-.696z"/><path d="m66.993 293.479c0-2.137-.418-3.81-1.254-4.971-.836-1.208-1.951-1.812-3.345-1.812-.929 0-1.719.279-2.416.836-.697.511-1.254 1.301-1.626 2.323-.372 1.069-.558 2.277-.558 3.624 0 1.394.186 2.555.558 3.624.372 1.022.883 1.812 1.58 2.323.696.557 1.533.836 2.462.836 1.394 0 2.509-.604 3.345-1.812s1.254-2.834 1.254-4.971zm4.693 0c0 1.579-.233 3.02-.651 4.321-.464 1.347-1.068 2.462-1.905 3.437-.789.93-1.765 1.673-2.927 2.138-1.115.511-2.415.789-3.809.789-1.44 0-2.695-.278-3.81-.789-1.161-.511-2.09-1.255-2.927-2.184-.836-.976-1.44-2.091-1.904-3.391-.419-1.301-.604-2.742-.604-4.321 0-1.58.185-3.02.65-4.367.418-1.301 1.022-2.416 1.858-3.345.79-.929 1.766-1.673 2.927-2.184 1.115-.511 2.416-.743 3.81-.743s2.648.232 3.809.743c1.162.511 2.138 1.255 2.974 2.23.79.929 1.44 2.044 1.858 3.345s.651 2.741.651 4.321z"/><path d="m75.588 283.304h.511v-3.159c0-.836 0-1.486.047-1.997.046-.465.139-.883.325-1.208.186-.372.464-.651.79-.883.371-.232.743-.325 1.161-.325.604 0 1.115.232 1.58.743.325.325.557.743.604 1.208.093.465.139 1.161.139 2.044v3.577h1.719c.65 0 1.161.186 1.487.511.371.372.557.837.557 1.348 0 .697-.279 1.208-.743 1.486-.511.279-1.208.419-2.137.419h-.883v9.663c0 .79.046 1.44.093 1.905.046.418.186.79.418 1.068.186.279.558.418 1.069.418.278 0 .65-.092 1.115-.185.464-.093.836-.186 1.068-.186.372 0 .744.186 1.022.511.325.371.465.79.465 1.301 0 .836-.418 1.486-1.255 1.904-.789.465-1.951.697-3.53.697-1.441 0-2.556-.278-3.299-.836-.743-.557-1.208-1.301-1.487-2.276-.232-.976-.325-2.277-.325-3.903v-10.081h-.604c-.697 0-1.208-.14-1.533-.511-.372-.372-.557-.837-.557-1.394 0-.511.185-.976.557-1.348.372-.325.929-.511 1.626-.511z"/><path d="m100.676 294.78h-9.106c0 1.208.232 2.23.65 3.159.418.883.976 1.579 1.673 2.044.65.465 1.44.697 2.276.697.558 0 1.022-.093 1.487-.232.465-.14.929-.372 1.347-.697.465-.279.836-.651 1.208-.976.372-.372.836-.883 1.394-1.487.279-.232.604-.325 1.022-.325.511 0 .883.14 1.161.418.326.326.465.744.465 1.255 0 .464-.186 1.022-.511 1.672-.325.604-.79 1.255-1.487 1.812-.65.604-1.486 1.069-2.508 1.44-.976.419-2.138.604-3.438.604-3.02 0-5.343-.975-7.016-2.88-1.626-1.951-2.462-4.553-2.462-7.852 0-1.533.186-2.973.604-4.274.418-1.347 1.022-2.462 1.765-3.438.79-.929 1.766-1.672 2.927-2.183 1.162-.465 2.416-.744 3.81-.744 1.812 0 3.391.419 4.692 1.301 1.301.883 2.277 1.998 2.927 3.345.651 1.394.976 2.788.976 4.182 0 1.347-.325 2.183-1.022 2.555-.651.418-1.626.604-2.834.604zm-9.106-2.974h8.455c-.093-1.812-.557-3.159-1.301-4.042-.743-.882-1.718-1.3-2.926-1.3-1.162 0-2.137.418-2.881 1.347-.743.883-1.161 2.23-1.347 3.995z"/><path d="m130.734 301.145v-.512c-.65.79-1.254 1.487-1.904 1.952-.604.511-1.301.929-1.998 1.161-.743.279-1.533.418-2.416.418-1.115 0-2.183-.278-3.159-.789-.929-.558-1.812-1.301-2.509-2.277-.697-1.022-1.254-2.183-1.626-3.484-.325-1.348-.511-2.788-.511-4.321 0-3.299.697-5.854 2.184-7.666 1.44-1.858 3.345-2.741 5.714-2.741 1.347 0 2.509.233 3.484.79.93.511 1.859 1.301 2.741 2.369v-7.758c0-1.069.186-1.858.558-2.416.418-.557.976-.836 1.672-.836.744 0 1.301.279 1.673.743.372.511.604 1.255.604 2.277v23.09c0 1.022-.232 1.765-.65 2.276-.419.465-.976.743-1.627.743-.65 0-1.161-.278-1.579-.789-.465-.511-.651-1.255-.651-2.23zm-9.384-7.713c0 1.441.232 2.649.604 3.671.418.975.975 1.719 1.672 2.23s1.441.789 2.277.789 1.579-.278 2.276-.743c.697-.464 1.255-1.208 1.673-2.23.418-.976.604-2.183.604-3.717 0-1.347-.186-2.555-.604-3.577s-.976-1.765-1.673-2.323c-.697-.511-1.486-.79-2.323-.79-.882 0-1.626.279-2.323.837-.697.511-1.208 1.3-1.579 2.323-.372 1.022-.604 2.23-.604 3.53z"/><path d="m159.632 275.035c2.601 0 4.831.604 6.736 1.765 1.859 1.208 3.299 2.881 4.274 5.064.93 2.184 1.441 4.739 1.441 7.712 0 2.184-.279 4.135-.79 5.901-.558 1.811-1.348 3.345-2.416 4.645-1.022 1.301-2.323 2.277-3.856 2.974s-3.299 1.068-5.296 1.068c-1.998 0-3.764-.371-5.297-1.068-1.579-.697-2.88-1.719-3.902-3.02-1.069-1.301-1.859-2.834-2.37-4.646-.557-1.812-.836-3.809-.836-5.9 0-2.184.279-4.181.836-5.947.558-1.812 1.394-3.345 2.416-4.646 1.069-1.254 2.37-2.23 3.856-2.88 1.533-.697 3.252-1.022 5.204-1.022zm7.247 14.495c0-2.091-.279-3.856-.882-5.389-.604-1.487-1.441-2.648-2.556-3.392-1.115-.79-2.369-1.161-3.809-1.161-1.022 0-1.998.186-2.834.604-.883.464-1.626 1.068-2.277 1.905-.604.789-1.115 1.858-1.44 3.112-.372 1.301-.557 2.741-.557 4.321 0 1.579.185 3.02.557 4.321.325 1.3.836 2.369 1.533 3.205.651.883 1.394 1.533 2.277 1.951.836.419 1.765.604 2.787.604 1.301 0 2.509-.371 3.624-1.068 1.068-.743 1.951-1.858 2.602-3.392.65-1.533.975-3.391.975-5.621z"/><path d="m180.445 285.767v.65c.883-1.208 1.812-2.137 2.741-2.694.976-.558 2.044-.837 3.252-.837 1.441 0 2.788.418 3.996 1.255 1.208.789 2.183 2.044 2.88 3.623.697 1.627 1.069 3.485 1.069 5.668 0 1.626-.233 3.113-.604 4.46-.418 1.348-.976 2.509-1.673 3.392-.743.929-1.579 1.626-2.555 2.137-.976.465-1.998.743-3.113.743-1.347 0-2.462-.325-3.391-.929-.883-.604-1.766-1.487-2.602-2.648v7.898c0 2.276-.743 3.438-2.276 3.438-.883 0-1.441-.279-1.719-.883-.326-.604-.465-1.44-.465-2.601v-22.626c0-1.022.232-1.765.604-2.23.372-.511.929-.743 1.58-.743.697 0 1.208.232 1.626.743s.65 1.255.65 2.184zm9.199 7.619c0-1.347-.186-2.555-.558-3.531-.371-1.022-.882-1.765-1.579-2.323-.651-.511-1.394-.79-2.23-.79-1.301 0-2.37.604-3.299 1.719-.882 1.162-1.301 2.834-1.301 5.018 0 2.091.419 3.717 1.301 4.878.883 1.161 1.998 1.765 3.299 1.765.79 0 1.533-.278 2.183-.789.651-.511 1.208-1.255 1.58-2.277.418-1.022.604-2.23.604-3.67z"/><path d="m210.039 301.191c-1.161.976-2.276 1.719-3.298 2.23-1.069.465-2.277.743-3.578.743-1.208 0-2.276-.278-3.205-.789-.883-.558-1.58-1.255-2.091-2.184s-.743-1.905-.743-2.973c0-1.394.418-2.648 1.208-3.671.836-.975 1.951-1.672 3.391-1.997.279-.093 1.022-.279 2.23-.511 1.162-.279 2.184-.558 3.02-.744.836-.232 1.765-.511 2.741-.836-.046-1.394-.325-2.416-.743-3.02-.465-.65-1.348-.975-2.741-.975-1.208 0-2.091.185-2.695.557s-1.115.929-1.58 1.673c-.418.743-.696 1.208-.882 1.44s-.558.372-1.162.372c-.511 0-.975-.186-1.347-.558-.418-.372-.604-.883-.604-1.487 0-.882.279-1.812.883-2.648.604-.883 1.486-1.626 2.741-2.183 1.254-.558 2.787-.837 4.646-.837 2.044 0 3.67.279 4.878.837 1.161.511 1.998 1.393 2.462 2.555.511 1.208.743 2.741.743 4.692v5.993c0 .976.14 1.998.419 3.067.278 1.068.418 1.765.418 2.09 0 .511-.186 1.022-.651 1.44-.464.465-.975.697-1.533.697-.511 0-.975-.278-1.44-.789-.465-.465-.976-1.208-1.487-2.184zm-.325-7.573c-.697.279-1.672.558-3.02.883-1.301.325-2.23.557-2.694.697-.511.139-1.022.418-1.487.883-.418.418-.65 1.022-.65 1.765 0 .79.232 1.487.789 2.044.558.558 1.255.836 2.137.836.93 0 1.766-.232 2.556-.696.789-.465 1.347-1.023 1.719-1.766.418-.79.65-2.091.65-3.902z"/><path d="m219.099 300.959v-22.719c0-1.068.186-1.858.604-2.415.418-.511.975-.79 1.719-.79.696 0 1.254.279 1.719.79.418.557.65 1.347.65 2.415v22.719c0 1.068-.232 1.858-.65 2.416-.465.511-1.023.789-1.719.789-.697 0-1.255-.278-1.673-.836-.418-.557-.65-1.347-.65-2.369z"/><path d="m241.77 294.78h-9.198c0 1.208.232 2.23.65 3.159.418.883.976 1.579 1.673 2.044.696.465 1.44.697 2.276.697.558 0 1.069-.093 1.533-.232.465-.14.929-.372 1.348-.697.464-.279.882-.651 1.207-.976.372-.372.883-.883 1.441-1.487.232-.232.604-.325 1.022-.325.511 0 .882.14 1.208.418.278.326.418.744.418 1.255 0 .464-.14 1.022-.465 1.672-.371.604-.836 1.255-1.533 1.812-.65.604-1.487 1.069-2.509 1.44-1.022.419-2.183.604-3.531.604-3.019 0-5.342-.975-7.015-2.88-1.672-1.951-2.509-4.553-2.509-7.852 0-1.533.186-2.973.604-4.274.419-1.347 1.022-2.462 1.812-3.438.79-.929 1.766-1.672 2.927-2.183 1.162-.465 2.416-.744 3.856-.744 1.812 0 3.392.419 4.739 1.301 1.301.883 2.276 1.998 2.927 3.345.65 1.394.976 2.788.976 4.182 0 1.347-.326 2.183-1.023 2.555-.65.418-1.626.604-2.834.604zm-9.198-2.974h8.502c-.093-1.812-.511-3.159-1.301-4.042-.744-.882-1.719-1.3-2.927-1.3s-2.137.418-2.927 1.347c-.743.883-1.208 2.23-1.347 3.995z"/><path d="m142.907 285.488h-3.16c-.464-1.905-1.208-3.903-1.161-5.9.046-1.487.093-2.834.139-4.228h5.204c.046 1.394.093 2.741.139 4.228.047 1.997-.697 3.995-1.161 5.9z"/><path d="m175.939 121.629c6.411-1.162 13.705-1.208 17.747 4.831 4.042.325 7.34 1.859 10.639 4.089 2.509 1.719 5.482 1.579 8.316.789 2.183-.65 3.066 2.416.883 3.067-3.763 1.068-7.712 1.068-11.011-1.208-2.555-1.766-5.157-3.02-8.27-3.438-.557 7.387-8.409 4.553-12.59 2.694-2.091-.929-.836-3.856 1.254-2.926 2.927 1.254 8.456 4.227 8.177-1.255-3.252-4.832-9.57-4.413-14.588-3.484-2.276.371-2.834-2.788-.557-3.159z"/><path d="m217.426 91.57c.929.975 1.766 1.812 2.509 2.648s1.487 1.719 2.23 2.648c1.394 1.766-1.022 3.67-2.416 1.951-.65-.789-1.347-1.626-2.137-2.508-.79-.93-1.58-1.766-2.369-2.556-1.58-1.533.604-3.716 2.183-2.183z"/><path d="m211.944 98.028c-.418 4.738.047 9.57 3.113 13.426.604.743-.511 1.626-1.115.836-3.252-4.134-3.81-9.291-3.392-14.355.093-.976 1.487-.883 1.394.093z"/><path d="m182.722 104.439c4.878-8.316 17.282 1.998 22.16 5.761.558.418 1.162.882 1.673 1.254-.604-4.413-1.162-9.013-1.162-13.519 0-2.277 3.206-2.277 3.206 0 0 5.528.79 11.243 1.626 16.678.186 1.301-1.254 2.277-2.369 1.626-1.208-.697-2.927-1.997-4.925-3.53-2.927-2.23-14.402-11.847-17.468-6.644-1.162 1.951-3.903.325-2.741-1.626z"/><path d="m192.896 116.843c2.88 1.626 5.622 3.02 8.363 4.182 3.763 1.719 17.189 8.037 17.236.139.093-2.276 3.298-2.184 3.205.093-.232 11.707-15.563 5.436-21.696 2.741-2.834-1.254-5.714-2.695-8.688-4.414-1.997-1.115-.418-3.902 1.58-2.741z"/><path d="m182.675 112.987c1.394.093 1.626-.139 2.091-1.533.279-.929.464-1.765 1.347-1.161 1.022.65 1.533 2.416 1.44 3.763-.186 4.46-8.873 1.254-10.917.046-.558-.371-6.365-4.274-5.157-5.11.464-.279 1.672-.093 2.834.557 2.508 1.441 5.807 3.299 8.362 3.438z"/><path d="m166.926 106.901c.697-.139 1.626.511 1.626 1.301 0 .743-.697 1.069-1.673 1.069-1.022 0-1.626-.465-1.486-1.162.139-.697.836-1.115 1.533-1.208z"/><path d="m217.008 113.312c.65-.185 1.626.651 1.626 1.534 0 .882-.65 1.533-1.626 1.533s-1.672-.79-1.58-1.626c.14-.837.883-1.301 1.58-1.441z"/><path d="m105.043 160.096c.186 2.834 1.765 6.83 5.389 6.133 4.414-.836 4.321-7.945 1.533-10.407-2.787-2.416-6.922-2.88-10.778-1.58-7.573 2.556-9.524 8.502-9.896 15.378-.279 4.786.511 9.989 4.414 11.429-.558-4.042.093-10.128 1.301-14.123.836-2.695 3.809-8.409 8.037-6.83z"/><path d="m64.949 171.246c.232 3.252-.697 7.898-5.482 6.876-4.506-.975-4.321-8.641-1.44-11.382 4.367-4.181 12.404-3.113 16.074 1.487 2.556 3.205 2.045 9.245.14 14.355-.836 2.184-1.626 4.739-4.042 5.482.418-2.555 3.298-13.612 0-16.957-1.394-1.394-3.903-1.254-5.25.139z"/><path d="m69.409 189.644c.929 0 1.766.743 1.766 1.626 0 .929-.837 1.626-1.766 1.626-.883 0-1.626-.697-1.626-1.626 0-.883.743-1.626 1.626-1.626z"/><path d="m101.977 167.297c.929 0 1.719.79 1.719 1.719s-.79 1.719-1.719 1.719c-.93 0-1.719-.79-1.719-1.719s.789-1.719 1.719-1.719z"/><path d="m163.488 195.033c.929 0 1.719.79 1.719 1.719s-.79 1.719-1.719 1.719-1.719-.79-1.719-1.719.79-1.719 1.719-1.719z"/><path d="m115.914 208.274c8.177-5.204 18.351-10.639 29.083-14.449 12.405-4.367 25.599-6.504 36.935-2.183-4.6 10.871-13.241 22.253-22.393 33.636 5.25-1.859 12.451-6.086 20.674-18.723 3.066-4.785 5.807-11.243 8.223-20.163-18.955-2.741-39.443-1.998-56.447 7.666-5.9 3.345-13.009 8.13-16.075 14.216z"/><path d="m82.418 168.412c1.347 22.533 3.205 67.551 37.166 59.142 7.201-4.274 14.681-7.34 21.604-9.988 5.9-2.23 11.661-3.624 14.588-2.184-1.255 2.462-3.067 2.648-5.297 3.903-4.924 2.648-9.756 6.597-12.404 11.614-2.044 4.042-2.509 9.106 1.347 11.336 3.066 1.719 7.526 1.394 11.894.511 9.105-1.905 18.629-5.947 28.107-10.174 7.387-3.252 14.774-6.551 21.743-9.431-3.299 8.176-28.34 15.47-36.749 18.955-4.181 1.719-8.502 3.112-12.637 4.042-5.296 1.254-11.336 2.369-15.517-.093-8.966-5.204-3.67-15.657 1.254-21.185-11.707 6.55-22.857 9.756-31.87 9.384-10.268-.464-16.121-5.064-19.466-11.8-7.666-15.332-7.062-37.725-3.763-54.032z"/><path d="m84.973 129.201 9.059-6.597-3.438-10.639h-11.243l-3.438 10.639zm0-38.235c3.716 0 7.247.697 10.546 1.951l-3.392 2.834 3.438 9.803 10.407.279 1.626-4.135c4.088 5.064 6.551 11.475 6.551 18.444 0 .557 0 1.068-.047 1.626l-3.763-2.369-8.223 6.318 2.973 9.942 4.414.279c-3.903 6.039-9.989 10.546-17.05 12.404l1.068-4.274-8.548-5.9-8.549 5.9 1.069 4.274c-7.062-1.858-13.148-6.365-17.05-12.404l4.413-.279 2.974-9.942-8.27-6.318-3.717 2.369c-.046-.558-.046-1.069-.046-1.626 0-6.969 2.462-13.38 6.55-18.444l1.626 4.135 10.407-.279 3.438-9.803-3.391-2.834c3.252-1.254 6.829-1.951 10.546-1.951z"/></g></g></svg>