<svg clip-rule="evenodd" fill-rule="evenodd" viewBox="0 0 560 400" xmlns="http://www.w3.org/2000/svg"><g fill-rule="nonzero"><path d="m430 200.007c0-82.718-67.291-150.005-150.002-150.005-82.71 0-149.998 67.287-149.998 150.005 0 82.704 67.288 149.991 149.998 149.991 82.711 0 150.002-67.287 150.002-149.991" fill="#fff" stroke="#000" stroke-width="3.89"/><path d="m378.636 275.092-1.79 1.912 3.229 3.025 1.703-1.821c1.034-1.108 1.26-2.59.187-3.59-1.047-.982-2.347-.577-3.329.474m-187.662 9.174c-2.477 2.394-2.442 5.649-.404 7.757 2.038 2.103 5.288 2.247 7.761-.148 2.494-2.407 2.46-5.663.422-7.77-2.034-2.103-5.285-2.251-7.779.161m185.435-13.903c-.978-.912-2.091-.438-2.755.274l-1.687 1.804 2.799 2.616 1.63-1.747c.843-.9.895-2.121.013-2.947m36.537-70.437c.522-.908.974-1.903.974-3.011 0-2.942-2.329-5.25-5.406-5.25s-5.41 2.308-5.41 5.25c0 3.098 2.533 5.228 5.184 5.228.226 0 .452-.027.678-.07l-3.394 5.836h2.759l4.616-7.982zm-13.623 2.986c0-1.856-.948-3.373-2.443-4.233.748-.7 1.2-1.673 1.2-2.829 0-2.329-1.834-4.185-4.233-4.185-2.373 0-4.185 1.856-4.185 4.185 0 1.156.43 2.129 1.178 2.807-1.495.861-2.442 2.399-2.442 4.255 0 2.916 2.372 5.18 5.449 5.18 3.125 0 5.476-2.264 5.476-5.18m-15.019 69.25c-1.56-1.456-3.537-1.338-5.136-.265.713-1.551.343-3.338-.895-4.498-1.612-1.512-4.194-1.46-6.545 1.052l-4.18 4.467 12.35 11.555 4.315-4.619c2.564-2.738 1.912-5.988.091-7.692m-14.592 15.253-7.166-8.209-2.555 2.234 6.927 7.935c1.673 1.917 1.208 3.724-.204 4.959-1.417 1.234-3.303 1.416-4.941-.461l-6.932-7.94-2.555 2.234 7.166 8.209c2.807 3.211 6.783 2.568 9.338.339 2.556-2.234 3.746-6.067.922-9.3m-12.251 17.93-1.612-2.412-5.619 3.755-7.783-11.646-2.82 1.881 9.395 14.063zm-17.726 5.424-3.133-.213c.091 2.546-1.056 4.402-3.077 5.297-2.634 1.165-5.541.122-7.01-3.194-1.529-3.45-.056-6.097 2.573-7.262 1.434-.638 3.203-.83 4.902.274l1.26-3.059c-2.564-1.343-5.267-1.1-7.383-.161-3.994 1.769-6.775 6.401-4.402 11.759 2.229 5.028 7.122 6.432 11.211 4.62 3.055-1.352 5.12-4.237 5.059-8.061m-28.047 16.313-.569-2.85-6.627 1.325-2.747-13.732-3.328.665 3.32 16.583zm-17.756 3.333-.161-2.898-6.749.382-.795-13.984-3.385.191.956 16.883zm83.897-130.41c0-5.854-.495-11.538-1.508-17.17-.291-1.621-.869-3.541-.869-3.541l5.589-19.4c1.199-4.158 1.669-5.305 1.012-6.375-.26-.426-.738-1.112-2.677-1.621l-16.778-4.183-.518-.933c-17.482-26.913-47.803-44.75-82.217-44.75-34.561 0-64.993 17.987-82.436 45.09l-.339.626-16.782 4.18c-1.939.513-2.417 1.2-2.677 1.621-.656 1.074-.183 2.216 1.012 6.38l5.589 19.399s-.5 1.716-.795 3.35c-.93 5.098-1.539 11.416-1.539 17.326 0 54.021 43.946 97.97 97.97 97.97 54.02 0 97.969-43.946 97.969-97.97m-101.805 131.19-4.842-17.491-3.22-.326-8.278 16.157 3.655.374 1.794-3.668 6.21.63 1.021 3.95 3.659.374zm-23.641-20.347-5.892-1.642-4.541 16.287 6.092 1.699c3.612 1.009 6.193-1.073 6.863-3.476.573-2.056-.448-3.75-2.139-4.676 1.708-.087 3.121-1.239 3.577-2.873.595-2.129-.643-4.393-3.959-5.319m-12.22-3.58-12.72-5.806-1.204 2.642 4.815 2.199-5.818 12.741 3.089 1.413 5.815-12.746 4.815 2.199zm-23.371-12.835c-4.141-2.638-9.377-1.491-12.111 2.803-2.716 4.272-1.534 9.499 2.607 12.133 4.141 2.637 9.378 1.49 12.094-2.782 2.734-4.293 1.552-9.521-2.59-12.154m-16.068-.108c3.659-3.537 3.728-8.9.317-12.424-3.411-3.529-8.769-3.637-12.428-.1-3.642 3.52-3.712 8.878-.3 12.407 3.411 3.528 8.774 3.637 12.411.117m-18.335-22.736 3.307-2.438 4.077 5.519 2.338-1.725-6.088-8.253-13.611 10.039 2.017 2.733 5.623-4.15 3.25 4.406 2.338-1.725-3.25-4.406zm-14.336-68.639c0-1.856-.952-3.372-2.442-4.233.747-.699 1.199-1.673 1.199-2.829 0-2.329-1.834-4.185-4.232-4.185-2.377 0-4.185 1.856-4.185 4.185 0 1.156.43 2.13 1.173 2.808-1.491.86-2.442 2.398-2.442 4.254 0 2.92 2.377 5.18 5.454 5.18 3.12 0 5.475-2.26 5.475-5.18m-16.222-11.247-2.49 1.552v14.697h2.49zm22.35-69.826 17.222 14.428 5.397-6.44c3.203-3.82 2.095-8.087-.443-10.213-2.173-1.821-4.789-1.516-6.836.022.835-2.112.213-4.455-1.512-5.902-2.251-1.886-5.671-1.634-8.613 1.873zm19.221-20.646 14.11 17.487 3.507-2.833-5.576-6.91 1.621-1.308 9.404 3.824 4.25-3.433-10.655-4.124c1.482-2.733.882-5.54-.574-7.348-2.251-2.79-6.097-3.42-9.604-.591l-6.484 5.236zm24.036-16.783 9.699 20.268 12.537-6.005-1.665-3.477-8.469 4.055-2.347-4.898 6.562-3.142-1.664-3.481-6.562 3.142-2.36-4.928 8.222-3.937-1.664-3.481-12.29 5.884zm24.883-10.234 5.015 21.902 4.393-1.008-3.155-13.78 13.446 11.424 4.158-.951-5.019-21.902-4.389 1.003 3.176 13.88-13.463-11.524-4.163.956zm28.49-1.586 7.036.035-.105 18.612 4.511.026.1-18.612 7.036.039.017-3.859-18.577-.1zm24.726 19.629 4.429.852 1.756-9.122 7.144 1.374.729-3.791-7.139-1.373 1.029-5.363 8.952 1.721.73-3.789-13.382-2.577-4.244 22.068zm27.004 8.696c6.015 2.52 12.616-.157 15.214-6.362 2.612-6.236-.108-12.82-6.127-15.34-6.014-2.521-12.616.156-15.227 6.392-2.599 6.206.121 12.79 6.14 15.31m29.155-10.599-13.545 17.93 3.598 2.716 5.35-7.084 1.664 1.256-1.425 10.048 4.358 3.293 1.417-11.342c3.012.778 5.589-.486 6.988-2.338 2.16-2.863 1.843-6.74-1.756-9.46l-6.648-5.019zm21.702 17.913-16 15.77 5.224 5.306c5.61 5.688 12.598 4.267 16.513.408 3.942-3.88 5.054-10.538-.148-15.818l-5.584-5.663zm51.157 91.73c0 79.701-64.842 144.539-144.539 144.539s-144.535-64.842-144.535-144.539c0-79.704 64.842-144.546 144.535-144.546 79.7 0 144.539 64.842 144.539 144.546m-100.386-102.913c3.589 1.503 7.635-.026 9.404-4.246 1.782-4.25.03-8.204-3.559-9.708-3.589-1.508-7.64.021-9.417 4.272-1.769 4.224-.018 8.174 3.572 9.682m32.171 5.206c.969-1.282.804-2.99-.752-4.163l-2.616-1.973-3.538 4.684 2.478 1.873c1.581 1.195 3.398.943 4.428-.421m52.19 91.677c-1.765 0-2.899 1.334-2.899 2.942 0 1.582 1.134 2.942 2.899 2.942 1.742 0 2.894-1.36 2.894-2.942 0-1.608-1.152-2.942-2.894-2.942m-14.667 6.041c-1.742 0-2.916 1.29-2.916 2.898 0 1.582 1.174 2.873 2.916 2.873 1.791 0 2.968-1.291 2.968-2.873 0-1.608-1.177-2.898-2.968-2.898m0-2.286c1.113 0 1.856-.813 1.856-1.878 0-1.064-.743-1.877-1.856-1.877-1.082 0-1.808.813-1.808 1.877 0 1.065.726 1.878 1.808 1.878m-18.078-71.031c2.794-2.755 3.646-6.805.456-10.043l-2.42-2.455-10.508 10.356 2.33 2.359c3.259 3.307 7.318 2.564 10.142-.217m-169.672-27.057c-1.008-1.247-2.703-1.503-4.22-.278l-2.551 2.056 3.69 4.571 2.416-1.951c1.542-1.243 1.738-3.068.665-4.398m-43.524 100.426c-1.743 0-2.92 1.29-2.92 2.898 0 1.582 1.177 2.873 2.92 2.873 1.786 0 2.964-1.291 2.964-2.873 0-1.608-1.178-2.898-2.964-2.898m87.115 119.988-2.525-.704-1.186 4.259 2.399.669c1.46.409 2.877-.078 3.272-1.49.387-1.387-.574-2.347-1.96-2.734m-34.587-22.958c-2.473-1.573-5.667-.956-7.531 1.973-1.847 2.907-1.051 6.062 1.417 7.635 2.473 1.573 5.667.956 7.518-1.951 1.86-2.929 1.069-6.084-1.404-7.657m-52.533-99.317c1.108 0 1.856-.813 1.856-1.877 0-1.065-.748-1.878-1.856-1.878-1.086 0-1.812.813-1.812 1.878 0 1.064.726 1.877 1.812 1.877m19.538-79.35-2.106 2.513 3.901 3.268 2.037-2.435c1.052-1.256 1.03-2.881-.199-3.911-1.361-1.143-2.803-.43-3.633.565m69.221 195.145-2.377-.661-1.03 3.686 2.303.643c1.187.33 2.295-.187 2.617-1.352.36-1.286-.574-2.051-1.513-2.316m15.271 9.643 3.885.396-1.413-5.441zm-73.162-195.341-2.125 2.538-4.502-3.773 2.234-2.668c1.229-1.469 2.916-2.103 4.384-.873 1.491 1.251 1.304 3.229.009 4.776" fill="#e30613"/><path d="m204.988 149.162c16.323-24.01 43.857-39.809 75.017-39.809 31.372 0 59.072 16.022 75.353 40.313l3.438-1.439c-16.903-25.412-46.059-42.497-78.792-42.497-32.675 0-61.521 16.713-78.439 42.036l3.424 1.391zm-17.721 33.813c-1.004 5.501-1.53 11.242-1.53 17.031 0 51.975 42.287 94.262 94.266 94.262 51.975 0 94.262-42.287 94.262-94.262 0-5.815-.531-11.551-1.543-17.074l-3.65.004c1.034 5.467 1.573 11.303 1.573 17.07 0 49.977-40.66 90.648-90.641 90.648-49.983 0-90.647-40.668-90.647-90.648 0-5.815.548-11.503 1.599-17.013z" fill="#140e0c"/><path d="m212.611 204.575v47.89l1.66-.291v-47.481zm1.555-51.445v-11.034l-1.66 1.521v8.891zm51.926-17.909v11.947l1.66-.861v-8.513zm0 126.925v24.801l1.66.265v-23.671zm1.66-134.403v-14.876l-1.66.357v13.606l1.66.912zm-26.7 75.392v-3.485l-1.66 1.056v5.802zm0-39.04v-7.166l-1.66-1.951v8.391zm-1.66 71.318v42.088l1.66.948v-45.73zm1.66-91.378v-23.411l-1.66.935v20.867l1.66 1.608zm105.545 60.659v47.481l1.66.291v-47.889l-1.66.118zm1.764-52.183v-8.891l-1.66-1.521v11.034zm-55.243-14.714v8.513l1.656.861v-11.946l-1.656 2.573zm0 125.745v23.67l1.656-.265v-24.8zm1.656-136.71v-13.606l-1.656-.356v14.875zm26.7 79.679v-5.802l-1.66-1.056v3.486zm0-43.141v-8.392l-1.66 1.952v7.165l1.66-.726zm-1.66 69.354v45.729l1.66-.947v-42.086l-1.66-2.695zm0-88.685v-23.41l1.66.934v20.868z" fill="#e8e4d9"/><path d="m306.364 172.281 54.38-22.037-9.421 15.058-44.942 10.407zm.074 5.91-.018 2.381h65.627l-21.206-11.572zm-124.392-19.243 5.201 18.095 18.46-9.795s-9.768-16.109-9.786-15.991l-11.264 2.929c-2.177.586-2.824.908-3.124 1.368-.343.522-.126 1.061.513 3.394m27.142 10.052-21.211 11.546h65.632l-.022-2.355zm-8.969 18.542c-.035.569.539 1.1 1.395 2.003l12.25 12.151 9.86-9.478-18.551-7.77-3.633 1.825c-.952.539-1.295.882-1.321 1.269m53.581-15.261-54.381-22.037 9.417 15.058 44.946 10.407zm-44.321 10.764 17.039 6.809 27.291-4.476-.061-2.333zm18.539 9.747c.269-.105-10.943 10.081-10.943 10.081l8.07.457s2.464.16 4.028-.196c1-.222 4.072-1.951 4.072-1.951s20.585-11.047 20.581-11.138l-.044-2.412s-26.038 5.267-25.764 5.159m78.363-5.159-.048 2.412c-.004.091 20.581 11.138 20.581 11.138s3.072 1.729 4.076 1.951c1.56.356 4.024.196 4.024.196l8.074-.457s-11.216-10.186-10.942-10.081c.274.108-25.765-5.159-25.765-5.159m52.212-1.36-3.637-1.825-18.551 7.77 9.864 9.478 12.25-12.151c.857-.903 1.43-1.434 1.391-2.003-.022-.387-.365-.73-1.317-1.269m-30.462 44.76c-.343-.461-9.808-25.544-9.808-25.544-1.604-4.011-2.977-4.697-5.841-6.301l-6.505-4.15-.308.391 7.457 10.173.017 14.78 24.266 30.814c3.32 4.124 3.433 5.497 8.248 5.497l2.976-1.373-5.61-.921s-14.549-22.91-14.892-23.366m-95.998 0c-.343.456-14.892 23.366-14.892 23.366l-5.611.921 2.977 1.373c4.811 0 4.928-1.373 8.248-5.497l24.227-30.814.056-14.78 7.453-10.173-.309-.391-6.496 4.15c-2.864 1.604-4.242 2.29-5.845 6.301 0 0-9.465 25.083-9.808 25.544m146.194-75.522c-.305-.461-.952-.782-3.129-1.369l-11.26-2.929c-.021-.117-9.786 15.992-9.786 15.992l18.46 9.795 5.202-18.095c.639-2.334.852-2.873.513-3.394m-71.963 27.49-.061 2.334 27.295 4.476 17.034-6.81zm-.691-14.532 17.356-18.816 11.168-13.575.604-3.694-1.121-1.03-1.373 4.211-29.124 26.46c.083.256 2.49 6.444 2.49 6.444m-68.56-18.816 17.356 18.816s2.408-6.188 2.49-6.444l-29.124-26.46-1.377-4.211-1.113 1.03.6 3.694zm18.039-25.176 2.614 3.063 8.134 4.467 8.175 11.842-2.315 3.198s-4.673 1.552-5.642 2.777c-1.204 1.534-1.46 7.476-1.46 7.476l-3.606 2.071-4.298 12.704v20.112l3.063 2.037-9.079 12.717v30.698l10.138 17.178 13.865 10.538 5.336 6.702 5.324-6.702 13.865-10.538 10.137-17.178v-30.698l-8.901-12.826 2.885-1.928v-20.112l-4.298-12.704-3.612-2.071s-.245-5.942-1.453-7.476c-.969-1.225-5.642-2.777-5.642-2.777l-2.187-3.015 8.311-12.025 8.128-4.467 2.614-3.063-4.006 1.263-8.59 4.807-8.29 11.733-4.101-1.072-4.251 1.032-8.257-11.692-8.589-4.808-4.013-1.262.001-.001zm16.608 23.718 1.249 5.744-5.601 2.159zm16.622 0 4.352 7.903-5.533-2.233zm-8.352 22.678 16.826 7.334-5.609 12.602v-9.853l-11.216-5.73-15.903 1.772-.135-.51 16.038-5.615zm-20.139 57.119 10.803 3.85h18.753l10.81-3.85.116.312-9.805 7.496h-20.994l-9.805-7.496z" fill="#140e0c"/><path d="m303.365 242.157-13.688 4.807h-19.142l-13.515-4.807 4.784 8.335 11.255 4.068-7.904-.192 10.764 8.179h8.369l10.764-8.179-7.896.192 11.251-4.068zm-43.594-70.433 11.455-6.07h17.764l11.455 6.07-1.26-3.554-8.252-6.871 7.335 2.521-.804-2.521s-7.904-3.893-8.017-4.237h-18.682c-.113.344-8.018 4.237-8.018 4.237l-.804 2.521 7.336-2.521-8.252 6.871zm46.289 36.182-.026-.031-16.131 1.977 12.259-6.779-4.837-6.766-6.962 4.646h-20.515l-6.779-4.528-4.815 6.648 12.055 6.779-16.131-1.977-.022.031v8.625l10.421 3.894h31.053l10.43-3.894z" fill="#fbb800"/></g></svg>