<svg clip-rule="evenodd" fill-rule="evenodd" stroke-linejoin="round" stroke-miterlimit="2" viewBox="0 0 560 400" xmlns="http://www.w3.org/2000/svg"><g fill-rule="nonzero"><path d="m430 200.003c0 82.837-67.168 150-150 150-82.843 0-150-67.163-150-150 0-82.843 67.157-150.006 150-150.006 82.832 0 150 67.163 150 150.006" fill="#fff"/><path d="m251.603 311.725-3.719-.902-4.365 18.266.102.029 11.82 2.823.8-3.351-8.192-1.95zm70.388-4.297 3.759 10.47-10.533-8.055-3.192 1.15 6.304 17.671 3.617-1.292-3.753-10.505 10.522 8.09.062-.029 3.147-1.128-6.316-17.665zm-100.423 13.486 3.696 1.514 2.285-2.625 5.964 2.449-.227 3.453.074.034 3.64 1.491.759-19.984-2.744-1.117zm12.234-2.057-4.014-1.645 4.439-5.022zm73.858-1.877c-.397-1.003-1.072-1.848-2.058-2.506-.788-.567-1.633-.935-2.506-1.134-.459-.107-.918-.153-1.417-.153-.465 0-.941.046-1.44.136-1.026.176-1.911.511-2.682.998-.759.488-1.434 1.123-1.978 1.916-.663.947-1.004 1.968-1.026 3.062v.198c0 1.06.158 2.546.504 4.433.346 2.013.72 3.51 1.111 4.513.386 1.004 1.066 1.854 2.007 2.529.788.555 1.644.929 2.529 1.133.453.091.924.142 1.411.142.465 0 .953-.045 1.44-.13 1.032-.187 1.916-.516 2.682-.998.748-.482 1.417-1.134 1.961-1.916.686-.981 1.055-2.024 1.072-3.096-.006-.051 0-.09 0-.153 0-1.043-.187-2.534-.516-4.45-.357-2.024-.72-3.526-1.094-4.524m-2.223 8.787c0 .357-.034.652-.113.907-.062.25-.159.494-.312.715-.436.731-1.117 1.167-2.046 1.343-.221.029-.425.051-.63.051-.238 0-.464-.022-.691-.073-.42-.097-.783-.267-1.072-.522-.226-.164-.397-.352-.533-.556-.147-.198-.283-.487-.413-.833-.125-.357-.261-.799-.38-1.338-.119-.538-.267-1.27-.42-2.194-.158-.93-.289-1.667-.363-2.228-.068-.533-.096-.958-.096-1.309v-.074c.011-.363.045-.68.108-.93.068-.238.164-.476.3-.669.199-.357.476-.64.834-.879.357-.238.759-.385 1.23-.481.227-.029.436-.057.646-.057.652.011 1.23.21 1.729.612.221.165.408.363.567.578.142.21.278.477.397.805.142.335.272.777.397 1.338.119.556.261 1.293.419 2.194.159.896.278 1.627.352 2.211.073.522.102.958.102 1.304v.085zm-21.69-10.567.896 18.748.108-.006 3.719-.187-.902-18.736zm-11.933-.233-7.523-.612-1.497 18.72 7.858.618c.238.022.464.028.686.028h.011c1.406 0 2.619-.374 3.594-1.128 1.14-.868 1.775-2.171 1.905-3.866.017-.199.023-.363.023-.539 0-.884-.187-1.633-.584-2.262-.408-.652-.93-1.174-1.537-1.559.55-.249 1.055-.663 1.537-1.242.555-.652.861-1.451.929-2.403.012-.199.017-.386.017-.579 0-1.349-.402-2.5-1.241-3.418-.953-1.032-2.347-1.621-4.178-1.758m1.236 13.278c-.057.64-.295 1.133-.72 1.519-.369.317-.851.488-1.486.488-.09 0-.181 0-.289-.006l-3.673-.301.351-4.337 3.674.29c.765.056 1.309.306 1.672.737.323.385.482.839.482 1.389 0 .062-.006.147-.011.221m.345-7.671c-.045.613-.277 1.083-.703 1.429-.368.283-.833.436-1.439.436-.103 0-.199-.005-.301-.011l-3.435-.278.317-4.059 3.441.267c.737.068 1.281.294 1.65.691.323.357.482.777.482 1.31 0 .068 0 .142-.012.215m6.605-268.672c-81.794 0-148.101 66.306-148.101 148.095s66.307 148.107 148.101 148.107c81.789 0 148.095-66.318 148.095-148.107 0-81.794-66.312-148.095-148.095-148.095m0 290.499c-78.654 0-142.403-63.756-142.403-142.41 0-78.642 63.749-142.403 142.403-142.403s142.403 63.761 142.403 142.403c0 78.654-63.749 142.41-142.403 142.41m31.832-252.839c.811.278 1.537.42 2.172.437.198.005.374 0 .561-.017.742-.08 1.496-.267 2.262-.533l.028-.017.748 1.848 4.332 1.446-2.002-4.802c.783-.471 1.452-1.089 2.036-1.843.584-.788 1.088-1.751 1.536-2.902l.04-.097-3.198-1.054-.039.091c-.448 1.218-1.043 2.086-1.746 2.607l-1.724-4.178c.21-.056.459-.13.726-.221.306-.096.544-.176.72-.232.72-.233 1.315-.545 1.791-.93.488-.38.828-.901 1.049-1.548.147-.459.232-.924.238-1.36.011-.709-.142-1.389-.51-2.041-.573-1.06-1.565-1.809-2.937-2.262-.686-.221-1.326-.346-1.944-.352-.675-.022-1.321.091-1.916.352-1.089.476-1.86 1.332-2.251 2.551-.142.425-.21.85-.227 1.264-.006.301.017.595.085.89.131.641.357 1.321.652 2.03-1.094.295-2.046.72-2.857 1.253-.839.561-1.423 1.36-1.775 2.375-.221.697-.345 1.349-.357 1.967-.017.89.17 1.701.579 2.455.691 1.258 2.006 2.205 3.928 2.823m3.368-13.861c.124-.397.346-.675.669-.833.164-.097.357-.136.578-.131.164 0 .346.034.533.097.419.141.703.363.862.697.102.198.147.403.141.612 0 .142-.028.295-.079.442-.091.261-.244.46-.493.635-.244.176-.556.318-.919.414-.113.051-.243.091-.431.136-.136.046-.255.068-.368.091-.244-.561-.403-.992-.493-1.304-.051-.181-.068-.346-.068-.493.005-.13.028-.255.068-.363m-4.207 7.648c.182-.544.471-.964.868-1.242.385-.278.929-.521 1.621-.725l2.086 5.011c-.487.204-.935.301-1.36.329h-.261c-.363-.011-.748-.079-1.151-.21-.731-.238-1.27-.652-1.61-1.247-.221-.38-.329-.771-.312-1.191.006-.232.046-.476.119-.725m-30.936-9.309 7.137 10.896h3.362v-18.334h-3.793v10.862l-7.137-10.862h-3.362v18.334h3.793zm92.917 57.797 6.724 10.221 2.812-1.842-4.695-7.137 3.51-2.308 3.991 6.078 2.806-1.843-3.991-6.077 3.384-2.223 4.689 7.132 2.806-1.848-6.769-10.306-15.318 10.062zm-20.103-27.11c-.442.788-.663 1.673-.663 2.625 0 .147.006.312.028.482.074.947.318 1.825.737 2.619.408.794 1.015 1.531 1.797 2.188.788.681 1.582 1.151 2.444 1.435.669.215 1.383.334 2.131.334.193 0 .369-.006.562-.023 1.173-.079 2.182-.448 2.999-1.094.816-.657 1.865-1.729 3.157-3.243 1.31-1.525 2.217-2.749 2.727-3.645.414-.759.635-1.599.635-2.517 0-.193-.017-.397-.04-.601-.079-.947-.328-1.825-.737-2.613-.396-.8-1.003-1.531-1.774-2.194-.794-.669-1.599-1.145-2.449-1.429-.692-.238-1.412-.346-2.177-.346-.181 0-.351.006-.539.029-1.128.068-2.114.447-2.953 1.099-.828.652-1.888 1.741-3.186 3.255-1.287 1.513-2.189 2.726-2.699 3.639m2.977 3.078c0-.221.022-.436.085-.629.068-.232.181-.504.368-.833.176-.306.437-.68.765-1.106.346-.436.805-.992 1.395-1.689.595-.692 1.083-1.253 1.451-1.644.38-.403.703-.709.998-.93.272-.227.522-.391.76-.493s.465-.17.708-.198c.114-.023.244-.035.363-.035.261 0 .533.046.817.131.396.136.776.351 1.133.652.715.618 1.078 1.332 1.089 2.154v.125c0 .227-.028.442-.085.652-.068.238-.182.516-.357.822-.165.306-.425.674-.766 1.111-.345.442-.805 1.009-1.389 1.695-.572.658-1.054 1.213-1.44 1.616-.391.419-.714.731-.986.947-.278.215-.539.368-.765.481-.227.102-.471.165-.743.204-.13.017-.278.023-.402.023-.664 0-1.299-.244-1.9-.76-.362-.311-.629-.651-.827-1.026-.176-.385-.272-.759-.272-1.139zm-13.969-13.81 5.13 3.169-3.968 6.458.079.056 3.141 1.934 9.604-15.608-3.221-1.984-3.889 6.304-5.141-3.163 3.9-6.31-3.232-1.99-9.609 15.602 3.232 2.001zm25.443 30.943.074-.034 17.755-7.461-2.607-2.971-11.089 4.944 6.287-10.38-2.602-2.954-9.683 16.724zm-109.477-42.938c.34 1.003.958 1.853 1.859 2.568.749.584 1.565.98 2.438 1.218.561.154 1.145.227 1.78.227.335 0 .686-.028 1.043-.062 1.038-.13 1.922-.408 2.71-.845.777-.436 1.457-1.032 2.047-1.78.72-.918 1.128-1.91 1.207-2.959.012-.238.029-.488.029-.771 0-.964-.108-2.211-.284-3.748-.255-1.989-.544-3.469-.856-4.467-.334-1.003-.964-1.848-1.899-2.557-.754-.584-1.57-.986-2.421-1.224-.567-.148-1.156-.227-1.774-.227-.346 0-.697.028-1.055.074-1.037.125-1.927.402-2.715.845-.777.436-1.468 1.026-2.058 1.78-.703.878-1.088 1.865-1.174 2.925-.028.261-.034.544-.034.856 0 .964.097 2.188.29 3.696.238 1.973.532 3.447.867 4.451m2.63-8.459c.029-.363.074-.657.154-.896.079-.238.192-.459.334-.657.204-.318.505-.59.867-.794.363-.215.788-.351 1.259-.408.147-.011.306-.028.465-.028.725 0 1.332.221 1.848.674.21.182.38.374.51.59.142.215.267.482.374.816.102.329.21.765.295 1.315.102.556.21 1.276.323 2.166.108.879.176 1.599.221 2.166.034.351.046.674.046.946 0 .153 0 .295-.012.42-.028.351-.079.635-.153.884-.079.238-.198.465-.357.681-.47.686-1.156 1.088-2.092 1.201-.153.017-.317.029-.453.029-.306 0-.59-.04-.862-.114-.408-.119-.748-.306-1.037-.567-.21-.17-.369-.357-.494-.561-.119-.204-.243-.482-.357-.833-.119-.346-.221-.788-.312-1.327-.096-.527-.192-1.253-.311-2.154-.119-.918-.188-1.644-.233-2.194-.028-.346-.045-.652-.045-.93.005-.153.011-.3.022-.425m-66.805 50.688-5.329-4.887 1.627-1.786 7.756 2.234.045-.051 2.92-3.18-8.589-2.274c.249-.629.374-1.281.374-1.961 0-.306-.028-.612-.079-.924-.17-1.043-.72-1.99-1.627-2.812-.567-.522-1.208-.924-1.888-1.179-.59-.233-1.219-.341-1.86-.341-.096 0-.181 0-.283.006-.731.04-1.474.244-2.211.601-.72.363-1.389.896-2.024 1.576l-4.927 5.391 13.538 12.382zm-7.659-7.024-3.396-3.101 2.223-2.421c.504-.55 1.065-.845 1.689-.913.068 0 .142-.005.204-.005.544 0 1.026.198 1.491.629.51.465.76.992.76 1.621 0 .63-.25 1.219-.76 1.775zm-1.57 18.663c.765-1.174 1.151-2.325 1.151-3.481 0-.261-.017-.51-.057-.771-.215-1.395-1.026-2.546-2.421-3.464-.844-.544-1.644-.822-2.426-.822-.091 0-.159 0-.238.011-.766.057-1.457.261-2.069.607.005-.079.005-.159.005-.244 0-.516-.125-1.088-.351-1.672-.289-.771-.828-1.418-1.627-1.933-.941-.63-1.905-.936-2.875-.936-.362 0-.754.051-1.133.148-1.35.345-2.506 1.292-3.498 2.8l-4.088 6.27 15.369 10.029zm-9.536-5.511-1.865 2.858-3.328-2.166 1.86-2.869c.402-.618.867-.98 1.383-1.105.148-.045.289-.062.437-.062.357 0 .725.113 1.077.351.516.335.81.76.89 1.281.023.091.034.193.034.295.006.437-.159.907-.488 1.417m.964 4.717 2.007-3.061c.402-.635.879-.998 1.423-1.111h.006c.13-.023.272-.046.413-.046.397 0 .8.131 1.185.386.528.334.834.776.964 1.332.034.125.045.266.045.391 0 .431-.147.89-.47 1.366l-1.996 3.067zm28.096-21.373 2.801-2.398-11.922-13.934-2.886 2.46 11.928 13.946zm39.883-38.703 3.985 14.434 3.651-.992-3.98-14.44 4.638-1.281-.907-3.231-12.909 3.554.884 3.237zm-38 25.313c1.088 1.655 2.018 2.857 2.76 3.6.76.742 1.69 1.236 2.807 1.468.465.091.929.136 1.377.136 1.372 0 2.693-.419 3.929-1.241 1.746-1.157 2.801-2.716 3.163-4.649.08-.357.114-.714.114-1.066 0-.538-.085-1.077-.25-1.599-.266-.873-.782-1.859-1.525-2.993l-1.502-2.234-5.868 3.901 1.758 2.63 2.71-1.802.306.447c.261.386.442.794.584 1.219.079.284.124.567.124.839 0 .125-.017.255-.034.374-.141.89-.612 1.593-1.434 2.138-.567.374-1.128.555-1.678.555-.227 0-.453-.022-.68-.079-.261-.068-.488-.164-.698-.289-.192-.119-.43-.323-.685-.595-.267-.273-.556-.618-.868-1.049-.334-.442-.743-1.043-1.247-1.809-.516-.754-.907-1.389-1.196-1.854-.289-.464-.488-.867-.624-1.201-.136-.324-.227-.613-.261-.868-.022-.113-.028-.244-.028-.357 0-.125.011-.249.028-.374.119-.828.556-1.491 1.333-2.013.555-.362 1.065-.561 1.553-.612.108-.023.244-.023.385-.023.42 0 .93.057 1.52.182l.09.011.743-3.543-.096-.017c-.692-.136-1.332-.21-1.933-.21-.42 0-.834.034-1.208.108-.901.176-1.882.612-2.925 1.304-1.661 1.1-2.682 2.596-3.067 4.473-.091.391-.125.793-.125 1.179 0 .68.125 1.332.386 1.961.402.976 1.139 2.296 2.262 3.952m24.36-3.957-3.118-6.922 5.493-2.472 3.135 6.922.097-.04 3.356-1.519-7.546-16.718-3.464 1.559 3.062 6.752-5.499 2.483-3.056-6.758-3.453 1.559 7.552 16.724zm110.894 112.918c1.519 0 2.738-1.758 2.738-1.758s-1.224-1.746-2.738-1.746-2.732 1.746-2.732 1.746 1.218 1.758 2.732 1.758m71.556-26.6c-1.82-.975-4.615-2.267-8.623-3.951-4.127-1.724-12.653-4.445-21.491-6.803-12.325-45.104-53.551-78.251-102.544-78.251-54.883 0-100.038 41.588-105.707 94.958-5.408.805-10.573 1.434-15.057 1.905-8.878.924-15.04 1.253-15.052 1.258-.334.017-.589.272-.635.595-.005.029-.005.063-.005.114-.023.487.323 2.523 3.685 4.235 3.356 1.746 9.711 3.328 22.024 3.339 1.389 0 2.869-.04 4.416-.074 0 58.721 47.599 106.325 106.331 106.325 58.715 0 106.325-47.604 106.325-106.325 0-6.672-.652-13.203-1.82-19.536 10.93 2.415 24.684 5.539 29.117 5.55.47-.011.845-.028 1.168-.136.289-.062.714-.306.731-.805-.176-.963-1.066-1.343-2.863-2.398m.958 2.325c-6.945.011-38.868-8.272-43.403-8.289-7.086.046-23.034 8.799-31.316 14.179-2.41 1.576-4.864 2.999-7.262 4.252.606.034 1.23.085 1.819.164 5.04.601 9.508 2.551 13.119 5.199 4.654 3.469 9.467 7.721 12.359 8.288.136.011.294.023.459.045h.011c4.116.386 15.891 3.3 15.522 10.267 0 0-8.197-2.477-18.028-.793-3.872.827-9.518 1.349-18.067 4.07-8.096 2.551-29.213 10.556-45.722 10.562-12.563-.012-37.944-7.24-52.593-8.481-.873-.074-1.74-.12-2.607-.12-11.152-.011-20.727 5.851-25.517 5.913-4.32 0-11.894-.737-19.309-6.236-5.641-4.217-9.808-10.38-9.865-14.944-.011-1.525.533-2.942 1.724-3.877.839-.641 2.018-.771 3.571-.788 5.749.005 17.127 2.5 30.625 2.494 8.028 0 16.764-.873 25.432-3.668 2.012-.646 8.067-2.058 11.967-3.038 1.032.703 2.121 1.462 3.334 2.301.119.085.244.125.368.125.221 0 .426-.108.562-.283.215-.312.13-.726-.159-.942-7.506-5.227-11.072-8.129-23.629-8.095-7.999 0-19.7 1.111-38.647 3.384-12.296 1.469-21.792 2.041-29.111 2.041-12.2.006-18.379-1.593-21.401-3.18-1.865-.981-2.551-1.905-2.795-2.461 4.388-.272 26.311-1.808 45.677-6.094 21.979-4.887 56.396-18.64 72.429-18.612 5.975-.039 16.332 6.123 26.594 13.034 10.329 6.888 20.635 14.479 27.212 17.234.34.136.731-.017.867-.357.147-.34-.017-.732-.357-.879-3.765-1.576-8.997-4.932-14.802-8.85 7.965-3.769 35.596-20.357 55.376-20.346 9.405-.017 37.229 7.903 45.597 11.429 3.985 1.678 6.774 2.954 8.543 3.912.879.47 1.52.856 1.894 1.15.119.086.215.176.277.244-.175.029-.425.046-.748.046" fill="#005daa"/><path d="m356.896 218.309c9.825-1.684 18.028.793 18.028.793.386-7.262-12.404-10.119-15.992-10.312 0 0 1.853 3.855-8.141 4.615 0 0-4.666-.108-6.577 1.604 0 0 9.196-.703 12.427 2.891z" fill="#fdb913"/></g></svg>