<svg clip-rule="evenodd" fill-rule="evenodd" stroke-linejoin="round" stroke-miterlimit="2" viewBox="0 0 560 400" xmlns="http://www.w3.org/2000/svg"><g fill-rule="nonzero"><path d="m0 0 .003-.067z" fill="#fff" transform="matrix(8.31101 0 0 -8.31101 223.58759719 334.40804449)"/><path d="m0 0c-.195-.248-.436-.483-.676-.695l-.051-.049-.118-.106c-.119-.058-.202-.147-.313-.234l-.131-.1c-.181-.126-.368-.265-.554-.39-.092-.079-.212-.098-.291-.198l-.085-.046-.179-.097c-.085-.06-.175-.116-.274-.156l-.085-.056c-.131-.1-.273-.142-.408-.228l-.088-.036-.205-.124-.123-.048-.232-.102.008-.029-.028.016-.193-.096-.068-.023-.007-.029-.014.006.005.009-.014.002-.006-.019-.028.007-.061-.053-.118-.039-.008.015-.069-.024-.183-.092-.058-.014-.201-.071-.1-.065-.145-.023-.251-.096-.068-.023-.231-.084-.137-.052-.239-.073-.121-.024-.143-.057-.169-.035-.156-.036c-.103-.041-.214-.056-.321-.087l-.063-.009c-.146-.042-.291-.06-.442-.102l-.097-.021c-.14-.023-.279-.042-.42-.074l.004-.01-.077-.004.01.009-.044-.016.005-.005-.016-.013-.013.01.01.004-.048.004c-.021.106-.002.224-.004.339l.026.026c.141.1.239.26.199.439l-.095.136-.077.044-.093.035v.01l-.111-.025c-.108-.04-.188-.158-.196-.268l-.039-.202.007-.167.02-.241-.035-.159c-.062.071-.149.116-.249.123-.084.025-.187.047-.279.03-.173-.011-.4.01-.464-.2-.021-.099-.098-.165-.133-.253l-.075-.118c-.082-.08-.197-.024-.299-.045l-.021-.027-.113.027.004.181-.017.164-.206.048-.087-.013-.199.02-.028.016h-.066v.005l-.061.009v.005l-.142.015.001.01c-.296.002-.618.031-.922.058l-.235-.021v-.014l-.199-.022.002.017-.083.039c-.06-.091-.082-.204-.085-.313l-.043-.188-.183.042-.135.043-.093.036.009-.011-.005-.004-.133.077-.102.041-.064.033-.097.045-.18.09c-.064.1-.174.156-.275.216l.006.013-.042.018-.131.1-.079.034-.136.092-.137.153c-.107.103-.242.208-.339.316-.078.053-.145.182-.25.171l-.175-.04-.004.015-.116-.02-.145-.033c-.134-.066-.292-.074-.421-.146l-.121.052-.175.151-.11.066-.042.065.156.179c.095-.069.238-.074.341-.029.118.105.201.266.146.423l-.088.174-.043.184c.083.094.139.205.203.305.023.118-.006.239-.008.344.026.094-.045.166-.006.249l.118.173c.114.125.205.257.324.381l.057.063.11.14c.108.04.163.136.24.207l.03.088-.009.02.056.118.199.097c.123.039-.016.106-.01.177l-.077.121-.054.046-.194.158-.053.056-.172.061-.113.022c-.164.041-.312-.02-.434-.126-.102-.021-.179-.101-.285-.112l-.078-.018c-.314.008-.457.343-.725.454-.147.082-.312.042-.466.091l-.107-.021-.192-.019-.182-.078-.186-.12c-.121-.1-.282-.208-.391-.329-.128-.11-.2-.257-.315-.383-.14-.161-.193-.367-.325-.534-.065-.11-.094-.237-.182-.335l-.049-.082c-.055-.106-.12-.206-.199-.301l-.063-.148.029-.059.086.003.02-.004.128-.08.009-.052c.105-.074.238-.074.338-.148.134.009.216-.112.349-.121l.144-.059c.001-.11-.071-.185-.079-.295l-.102-.212c.006-.115-.073-.219-.133-.314l-.063-.086c.112.03.216.089.32.134l.221.15.124-.071c.105-.122-.09-.112-.124-.191l-.15-.089-.012-.033c-.133.01-.018-.118-.061-.177l.05-.232.004-.072-.052-.148-.152-.051-.069-.009h-.014l-.009-.003-.082-.01-.01-.002-.443-.058-.364-.096-.001.006-.147.011-.055-.03v-.009l-.034-.002-.068-.024-.001-.014-.034-.002-.001-.01-.266-.052-.173-.021-.123-.048-.081.011.005-.01-.035-.021-.143.01-.07-.043-.001-.009-.019-.003-.001-.015-.033-.002-.027-.032c-.147-.256-.299-.498-.451-.749-.037-.122-.153-.204-.19-.325-.124-.187-.233-.379-.357-.566l-.008-.052c-.181-.187-.281-.437-.421-.656-.044-.083-.126-.158-.133-.257l-.045-.026-.084-.108-.137-.243c-.082-.112-.143-.233-.206-.354-4.248-1.971-7.195-6.272-7.195-11.263 0-4.542 2.44-8.512 6.079-10.676.003-.137-.011-.312-.05-.546-.105-.623-.038-.911.122-1.03l.05.039.22.178-.22-.179-.043-.045c.241-.169.682.027 1.062.052.371.025.912-.265.961-.565l-.052 1.117c1.336-.491 2.779-.76 4.285-.76 1.452 0 2.844.252 4.139.71 1.419.228 2.422.554 2.339.879l-.044.207c3.585 2.177 5.98 6.118 5.98 10.619 0 5.054-3.023 9.4-7.358 11.336l.107.007.001-.009.066-.014.182.011.225.064.183.025c.113.044.233.059.355.089.135.018.238.063.381.058l.194.047c.09-.006.192.015.286-.002l.037.041h-.005l.039.078.013.248c.042.178.038.383.089.561-.011.101.058.206.038.317l.025.146.198-.038c.117.039.222.108.343.132l.094-.016.121-.052.197-.105c.096-.055.183.02.286-.002l.004.047.15.094.105.069.135.076.04-.041.031-.227.1-.265.182-.051.212.022.062.068c.099.054.122.172.115.268l-.023.078.01.004-.07.091-.027.026-.076.063-.066.014-.025.116v.191c.14.023.271.052.41.066.133.047.276.051.403.094l.198.033.209.042.118.049.23.079.206.08.113.039.207.09c.249.077.477.199.719.301l.083.032.139.066.099.05c.129.067.248.13.382.201l.153.065c.145.095.287.151.429.255.108.045.209.128.313.178l.12.072.281.185.076.061.155.089c.14.095.286.203.432.307.106.069.184.158.288.213l.051.044.229.193c.424.313.768.65 1.157 1.003l.047.054.112.102c.089.108.206.204.304.312.148.189.369.345.49.555zm-11.703-6.272h-.082zm-.683 1.171c-.004.118 0 .238.006.358l-.013-.878-.001.205-.008.092zm-2.195-.985c.041.174.083.295.115.469l.23-.06.047-.003.031-.036.132-.081.111-.056.155-.092.095-.074.01.009.018-.016-.015-.008.013-.021.064-.033.068-.053.06-.028.012-.034.238-.208c.12-.176.329-.063.503-.099l.064.019.036.036.018-.007c.019-.13.019-.268.028-.398l.032-.188c-.686.297-1.405.532-2.149.702.03.086.065.168.084.26m-8.853-24.39c.422.306.9.459 1.359.514l.065-.025c-.479-.039-.981-.172-1.424-.489" fill="#fff" transform="matrix(8.31101 0 0 -8.31101 403.74536096 74.97986734)"/><path d="m0 0 .023.184-.206-.07-.221-.094-.097-.083-.129-.201.114-.008c.207-.03.404.108.516.272" fill="#fff" transform="matrix(8.31101 0 0 -8.31101 249.1107089 98.11771918)"/><path d="m0 0c-6.856 0-12.414 5.558-12.414 12.414s5.558 12.414 12.414 12.414 12.414-5.558 12.414-12.414-5.558-12.414-12.414-12.414m8.847 12.477c0 4.886-3.961 8.784-8.847 8.784-.024-1.51-.002-8.783-.002-8.783s-7.689.008-8.851-.001c0-4.886 3.955-8.91 8.84-8.91.006 1.235.033 5.857.01 8.911 4.647.009 6.257-.011 8.85-.001" fill="#004b95" transform="matrix(8.31101 0 0 -8.31101 258.76810252 331.43270291)"/><path d="m0 0c0 1.422 1.153 2.575 2.575 2.575 1.423 0 2.576-1.153 2.576-2.575s-1.153-2.575-2.576-2.575c-1.422 0-2.575 1.153-2.575 2.575" transform="matrix(8.31101 0 0 -8.31101 254.94503792 274.61863855)"/><path d="m0 0-.432-.498c-.223.05-.529.074-.736-.025-.088.118-.508.555-.523.548.466.241 1.146.262 1.699-.017z" fill="#fff" transform="matrix(8.31101 0 0 -8.31101 283.20247192 255.82744494)"/><path d="m0 0c.008-.248-.157-.439-.323-.596-.207.025-.48.132-.67.116-.075.174-.149.348-.282.497.116.215.24.488.497.521.356-.041.571-.265.778-.538" fill="#fff" transform="matrix(8.31101 0 0 -8.31101 291.03975435 260.79742892)"/><path d="m0 0c-.116-.207-.298-.331-.339-.571-.249-.008-.497-.066-.712-.1-.075.224-.378.443-.282.654.133.29.745.581.745.581s.431-.357.588-.564" fill="#fff" transform="matrix(8.31101 0 0 -8.31101 273.01317366 260.65614175)"/><path d="m0 0 .257-.455-.241-.613c-.19-.058-.438.008-.653.017-.149.24-.265.488-.497.695.107.232.223.588.513.621.232-.042.455-.083.621-.265" fill="#fff" transform="matrix(8.31101 0 0 -8.31101 289.04511195 267.60414611)"/><path d="m0 0c.033-.108.108-.199.157-.298-.19-.19-.364-.505-.455-.795-.373.125-.795-.066-.877.456-.067.347.14.579.339.819.207.066.422.108.654.116z" fill="#fff" transform="matrix(8.31101 0 0 -8.31101 271.70834509 268.56822327)"/><path d="m0 0c.014-.357.008-.519-.101-.792-.125-.093-.322-.124-.496-.165l-.315.381h.033c.091.289.48.645.141.927.157.074.63.307.688-.082z" fill="#fff" transform="matrix(8.31101 0 0 -8.31101 296.96550448 272.38297686)"/><path d="m0 0c.174-.207.381-.406.439-.662-.017-.257-.257-.455-.439-.613-.339.009-.935-.165-1.051.34-.116.331.14.67.381.91.198.066.505.042.67.025" fill="#fff" transform="matrix(8.31101 0 0 -8.31101 279.2796752 271.17788041)"/><path d="m0 0c.279-.329-.144-.788-.141-.82-.107-.016-.232-.009-.339.032-.232.166-.233.564-.233.805.025.149.282.24.398.339.332.19.158-.248.315-.356" fill="#fff" transform="matrix(8.31101 0 0 -8.31101 261.94290834 275.64920379)"/><path d="m0 0-.017-.066c-.215.19-.422.447-.563.695.406.042.398-.405.58-.629" fill="#fff" transform="matrix(8.31101 0 0 -8.31101 262.69089924 288.59775737)"/><path d="m0 0c-.174-.306-.413-.564-.728-.671-.091.049-.257.141-.332.216.414.091.894.381.977.852.108-.091.116-.256.083-.397" fill="#fff" transform="matrix(8.31101 0 0 -8.31101 293.51643533 285.76370296)"/><path d="m0 0c.091-.298.96-.712.339-1.035-.256-.19-.538-.314-.861-.174-.198.166-.629.232-.513.596l.381.613z" fill="#fff" transform="matrix(8.31101 0 0 -8.31101 279.13838803 282.60551916)"/><path d="m0 0v-.058c.166-.124.273-.281.48-.339-.124-.133-.273-.232-.497-.158-.306.102-.753.298-.736.712.248-.058.521-.173.753-.157" fill="#fff" transform="matrix(8.31101 0 0 -8.31101 269.85498986 289.55352352)"/><path d="m0-.067v.134c2.425 0 4.619.983 6.208 2.572s2.572 3.783 2.572 6.208-.983 4.619-2.572 6.208-3.783 2.572-6.208 2.572-4.619-.983-6.208-2.572-2.572-3.783-2.572-6.208.983-4.619 2.572-6.208 3.783-2.572 6.208-2.572v-.134c-4.923 0-8.914 3.991-8.914 8.914s3.991 8.914 8.914 8.914 8.914-3.991 8.914-8.914-3.991-8.914-8.914-8.914z" fill="#fff" transform="matrix(8.31101 0 0 -8.31101 258.71823646 301.62942105)"/><path d="m0 0c1.179.086 1.807.458.612.78-.41.111-.626.114-.72.186l.003-.553z" fill="#ffe000" transform="matrix(8.31101 0 0 -8.31101 299.79124788 294.3572873)"/><path d="m0 0-.004.059c.363.026.673.081.888.15.22.067.322.164.311.203.002.023-.024.074-.123.132-.096.057-.253.119-.475.179-.408.113-.612.105-.741.196l.036.047h.059l.003-.546.103-.405-.057-.015-.004.059.004-.059-.057-.015-.105.413-.002.007-.003.561-.001.12.096-.073c.059-.053.287-.067.699-.176.452-.129.67-.239.686-.425-.01-.155-.168-.238-.392-.315-.229-.074-.546-.129-.917-.156l-.049-.003-.012.047z" transform="matrix(8.31101 0 0 -8.31101 299.79124788 294.3572873)"/><path d="m0 0c.03.322-.565.659-.964.632-.38-.025-.821-.221-1.062-.052l.043.045c.574.524 1.285.676 1.923.684v-.009z" fill="#ffe000" transform="matrix(8.31101 0 0 -8.31101 223.61253022 334.96488216)"/><path d="m0 0-.059.005.001.019c.003.114-.113.259-.287.368-.172.109-.395.183-.573.182l-.042-.001c-.257-.016-.554-.119-.807-.12-.106 0-.208.019-.293.079l-.056.039.09.095.002.001.001.002c.589.537 1.316.691 1.962.699l.06.001v-.069l.06-1.297-.059-.003-.059.005.059-.005-.059-.003-.06 1.3v.012h.059l.001-.059c-.63-.008-1.325-.158-1.884-.669l-.04.044.043-.041-.043-.045-.043.041.034.048c.057-.04.133-.057.225-.057.222-.001.521.101.799.12l.05.001c.209 0 .446-.08.636-.2.189-.121.339-.281.342-.468l-.001-.029-.118.002z" transform="matrix(8.31101 0 0 -8.31101 223.61253022 334.96488216)"/><path d="m0 0s.106-2.576.321-3.423-6.891-1.694-9.627-.82c-.717.229-2.095.315-3.064-.567l-.049-.04c-.16.12-.228.408-.123 1.03.201 1.191-.259.861-.155 1.682.115.904 1.605 1.86 3.086 1.42 3.06-.908 10.083.069 9.551.847" fill="#ffe000" transform="matrix(8.31101 0 0 -8.31101 309.93899109 289.77792079)"/><path d="m0 0c0-.001.026-.643.08-1.392.053-.748.134-1.605.239-2.019l.007-.052c-.013-.206-.248-.339-.611-.481-1.101-.41-3.55-.728-5.773-.729-1.288 0-2.497.107-3.325.371-.267.086-.631.151-1.031.151-.649 0-1.39-.172-1.975-.705l-.002-.001-.05-.041-.035-.029-.037.027c-.13.098-.198.277-.197.567 0 .142.016.314.051.52.036.216.05.38.05.508 0 .25-.051.361-.105.476-.055.115-.118.239-.117.467l.017.229c.107.793 1.164 1.579 2.381 1.582.255 0 .518-.035.78-.113.866-.257 2.062-.363 3.313-.363 1.482 0 3.042.148 4.229.362.593.107 1.093.231 1.441.36.353.124.535.276.521.346l-.019.052.098.067.039-.119c-.014-.197-.243-.32-.598-.457-1.075-.397-3.476-.728-5.711-.729-1.258 0-2.462.106-3.347.368-.251.074-.502.108-.746.108-1.168.003-2.181-.777-2.264-1.479l-.016-.214c.001-.208.05-.297.106-.416.056-.118.117-.261.116-.527 0-.137-.015-.307-.052-.527-.034-.202-.049-.368-.049-.501 0-.275.064-.409.149-.472l-.035-.047-.037.045.049.04.037-.045-.04.043c.614.559 1.386.736 2.055.736.413 0 .787-.067 1.067-.156.805-.258 2.008-.366 3.289-.366 1.473 0 3.052.142 4.26.356.604.108 1.115.233 1.471.366.361.129.547.285.535.37l-.003.023c-.218.862-.322 3.432-.323 3.435z" transform="matrix(8.31101 0 0 -8.31101 310.42934068 289.76129877)"/><path d="m0 0-.003-.034c-.013-.183-.015-.26.091-.329.164-.105.31-.009.3-.134l-.119-.06c-.084.006-.27.043-.548.064-.305.023-.479.009-.509.012l-.049.072c.008.096.096.047.256.085.137.031.156.13.173.355l.11 1.457c.011.141-.007.204-.11.212-.1.007-.187-.032-.229-.029l-.056.073c.008.107.221.076.495.154.185.052.287.194.348.189l.029-.075c-.002-.034-.037-.143-.052-.334zm-.281 1.713c.063-.078.062-.197.049-.376l-.095-1.251c-.018-.233-.043-.365-.124-.413l.015-.016c.113.026.177.159.195.407l.09 1.179c.02.271.031.412-.125.477z" transform="matrix(8.31101 0 0 -8.31101 234.02622575 317.88575661)"/><path d="m0 0c-.059-.459-.452-.729-1.067-.65-.482.062-.794.395-.741.805.039.303.213.493.538.59-.207.162-.293.358-.263.593.052.403.43.709.927.645.452-.058.701-.371.658-.709-.034-.258-.211-.413-.533-.452.378-.18.531-.435.481-.822m-1.215 1.502c-.019-.144.046-.245.182-.355.16-.132.31-.198.382-.207.209-.027.39.089.423.347.036.28-.149.528-.463.568-.293.038-.495-.125-.524-.353m-.269-1.254c-.054-.421.158-.726.518-.772.361-.046.592.105.629.394.031.239-.099.398-.388.551-.242.131-.378.214-.438.222-.095.012-.286-.121-.321-.395m.147 1.416c-.073-.087-.111-.171-.124-.277-.044-.342.113-.558.471-.747.437-.233.761-.383.712-.759l-.074-.218.01-.016c.072.079.113.163.126.261.047.368-.227.55-.642.769-.361.193-.581.345-.532.724.01.08.036.161.075.256zm.943.103c.178-.115.255-.264.23-.458-.016-.125-.056-.197-.058-.216l-.001-.004.014-.013c.079.102.125.192.137.283.024.19-.087.347-.313.422zm-1.12-1.214c-.146-.116-.215-.235-.237-.402-.034-.265.105-.507.387-.647l.006.011c-.222.163-.331.432-.297.694.016.121.063.223.147.332z" transform="matrix(8.31101 0 0 -8.31101 256.18337841 318.73347963)"/><path d="m0 0c.034-.462-.297-.804-.915-.85-.485-.036-.857.229-.887.64-.023.306.11.526.409.686-.235.117-.359.292-.376.529-.03.404.28.78.779.817.454.033.761-.224.786-.564.019-.259-.124-.446-.431-.549.406-.101.606-.32.635-.709m-1.49 1.228c.01-.144.093-.23.249-.311.183-.098.343-.132.416-.127.209.016.363.165.344.425-.021.282-.251.487-.567.464-.294-.022-.459-.222-.442-.451m-.013-1.281c.031-.424.299-.68.661-.653.363.026.559.221.538.511-.018.24-.177.37-.49.462-.263.081-.413.135-.474.13-.095-.007-.255-.176-.235-.45m-.139 1.416c-.054-.1-.074-.189-.067-.296.026-.344.223-.525.611-.638.475-.141.822-.223.85-.601l-.029-.228.012-.015c.055.093.079.183.071.282-.027.37-.331.493-.782.625-.392.117-.637.221-.666.603-.005.08.004.165.023.266zm.903.289c.197-.077.303-.208.317-.402.009-.126-.016-.205-.014-.224v-.004l.016-.01c.057.116.084.213.077.305-.014.191-.154.322-.39.351zm-.855-1.413c-.12-.143-.164-.273-.151-.441.019-.267.203-.475.508-.557l.003.012c-.25.116-.409.357-.429.621-.009.122.018.231.078.354z" transform="matrix(8.31101 0 0 -8.31101 275.94696019 317.50345015)"/><path d="m0 0c.359.057.596-.119.655-.497.093-.581-.294-1.076-.891-1.17-.344-.055-.636.108-.653.214l.048.062c.064.01.252-.17.535-.125.389.062.615.392.548.815-.044.283-.219.434-.449.397-.125-.02-.199-.066-.229-.071l-.051.05c-.011.072.088.084.194.193.171.171.239.352.209.541-.037.234-.225.367-.436.333-.287-.045-.376-.315-.467-.329l-.052.038c-.016.098.228.493.669.563.329.052.593-.123.637-.403.034-.215-.072-.398-.312-.618zm-.454.792c.249.012.405-.118.445-.371l-.006-.23.013-.006c.052.136.078.241.062.343-.033.204-.201.336-.416.302l-.093-.022zm.329-1.032c.216.034.407-.145.453-.44.034-.215-.014-.424-.15-.616l.009-.01c.199.19.276.408.235.668-.05.317-.225.468-.482.427l-.063-.014z" transform="matrix(8.31101 0 0 -8.31101 287.36628793 308.83506672)"/><path d="m0 0s-.768-.226-.755-.327c.012-.101.277-.717.365-.793l.226-.189.529.29-.214.339z" fill="#ffe000" transform="matrix(8.31101 0 0 -8.31101 293.14243988 239.94510483)"/><path d="m0 0-.151-.289 1.133-.164.214.214.251.239-.239.088-.503-.113-.604-.013z" fill="#ffe000" transform="matrix(8.31101 0 0 -8.31101 277.55929613 237.53491193)"/><path d="m0 0s.063-.302-.025-.491.239.189.415.189.403.113.642.063.591-.063.705-.088c.113-.025.214 0 .214 0l.264.252c0 .05-.516.201-.743.151-.226-.051-.604-.051-.767-.076-.164-.025-.705 0-.705 0" fill="#ffe000" transform="matrix(8.31101 0 0 -8.31101 293.45825826 202.28791852)"/><path d="m0 0s.176-.101.315-.201c.138-.101.78 1.422 1.031 1.51.252.088.353.428.768.44.415.013.579-.39.856-.465.277-.076.667.151.906.176s.528-.076.566-.189.051-.164.051-.164l.113.239s-.025.479-.327.504-.378-.126-.806-.139c-.428-.012-.692.378-1.107.428-.415.051-.466.038-.755-.138-.29-.176-.869-.579-.957-.868-.088-.29-.654-1.133-.654-1.133" fill="#ffe000" transform="matrix(8.31101 0 0 -8.31101 244.40667724 84.62894995)"/><path d="m0 0-.088-.252-.768-.1-.428-.114s1.701-1.835 2.253-2.693c.419-.651 1.548-2.907 1.548-2.907s.252.529.252.642.163.503.176.541c.012.038-.045 1.768-2.542 4.493-.139.151-.403.39-.403.39" fill="#ffe000" transform="matrix(8.31101 0 0 -8.31101 253.29114693 100.6276442)"/><path d="m0 0 .05-.315.252.176.214-.654.503-.314.214.465-.151.365.088.076-.277.339.29.126.315-.755.428-.138.113.49-.302.642.314.114.202-.554.327.478-.025.239.188.151-.214.239s-1.019-.264-1.145-.352-1.334-.717-1.384-.818" fill="#ffe000" transform="matrix(8.31101 0 0 -8.31101 212.08515935 153.13660538)"/><path d="m0 0 .088-.39c0-.063.466-.088.655-.088.188 0 .578.05.641.05l.177.025.05.328s-.176.15-.302.15-1.322-.037-1.322-.037" fill="#ffe000" transform="matrix(8.31101 0 0 -8.31101 234.46670928 227.39547973)"/><path d="m0 0-.038-.302 1.057-.113-.012.289-1.02.164" fill="#ffe000" transform="matrix(8.31101 0 0 -8.31101 236.35330855 268.18591681)"/><path d="m0 0 1.082-.063c.051-.063.378-.654.277-.868s-1.12-.189-1.208-.126-.289.088-.277.277c.013.189.126.78.126.78" fill="#ffe000" transform="matrix(8.31101 0 0 -8.31101 234.57475241 277.27816175)"/><path d="m0 0 .18.011.038.355.486-.036.423.232-.314.273-.537.004.031.415.586.029.339.225-.297.344-.619.022.033.451.643-.024.287.17-.249.353-.704.003.046.295-.325-.035z" fill="#ffe000" transform="matrix(8.31101 0 0 -8.31101 300.56417181 134.05452642)"/><path d="m0 0-.101.06-.121.037-.219.136-.101.055-.104.074c-.111.123-.118.281-.155.427.047.12.027.241.106.345l.054.154.071.185.061.182.057.192c-.007.096.031.222-.025.302-.004.148-.054.309-.086.46.027.103.06.229.168.269.208-.025.425.012.619-.021l.157.007c.118.034.208-.039.323-.028l.17-.018.083-.053.17-.084c0-.125-.054-.273-.083-.41l-.057-.129-.08-.185-.006-.019-.045.047-.015-.018c.099-.141.105-.318.146-.483l.061-.072-.021-.032.083-.101c.058-.186.116-.371.096-.58l-.041-.169-.003-.042-.025-.013-.002-.024-.014.001c-.034-.145-.144-.271-.266-.371l-.167-.065-.088-.031-.202-.028c-.108.031-.233-.055-.327.033z" transform="matrix(8.31101 0 0 -8.31101 237.46698389 294.03315791)"/><path d="m0 0-.226.036c-.101-.007-.229.002-.334.005l-.038.132c.023.127-.008.215-.004.334l-.034.189-.025.188.015.008-.017.092-.016.044c-.018.135-.027.279-.07.406l-.037.151-.054.242-.044.175c-.051.157-.042.347-.077.512.026.103-.017.221-.002.305l-.018.078.022.17.013.243.052.249c.008.109.022.232.043.331l.04.15.003.104.041.245.038.26.051.097.008-.02.033.002.031.027-.001-.005.111.011-.005-.009.027-.021.006.018.136-.029.022-.02.026.022.002-.034.092.012.009-.01.025.017.011-.039.067.005-.008.02.177.006.008-.025.015.004-.014.015.015.009.076-.01.214-.011-.005-.005.1.002.12.011.077-.001.053.01.075-.077.01-.062c.076-.202.075-.407.132-.611.044-.242.064-.487.028-.718l-.01-.076c-.019-.123-.046-.24-.056-.368l-.041-.169c-.042-.126-.085-.256-.132-.382-.039-.13-.063-.267-.124-.387-.042-.178-.082-.328-.104-.507l-.016-.018c.007-.101-.039-.207-.032-.308-.04-.355-.062-.712.003-1.069-.177-.007-.328.086-.483.054" transform="matrix(8.31101 0 0 -8.31101 241.00747415 269.46581235)"/><path d="m0 0-.117.028-.209.015.002.029c-.107.098-.27.091-.366.212-.095.069-.183.176-.274.245l-.191.181-.019.001-.004.01-.019.001-.004.015-.019.001-.087.05-.171.007c.001-.105.005-.181-.017-.294l-.053-.073c-.12-.01-.243.009-.37.032-.091-.007-.185.019-.266.024-.141.03-.286.064-.433.085l.03.012-.116.042c.02.146-.027.283.011.414-.038.065-.149.116-.166.213l-.038.127c-.028.14.062.258.076.395l.07.167c.033.121.065.233.144.337l.15-.039.047-.004.2-.076.103-.022.126-.043.022-.025.043.001.013-.02.028-.011.024.012.027-.026.076-.01.016.023.051-.018-.005-.005.028-.007.006.014.103-.022-.01-.004.023-.016.006.019.022-.021.139.005-.005-.01.009-.01.015.009.07-.015.024.003.001.019.023-.016.095.184.03.017.04.097.064.029.226.088c.094.046.196.072.28.099l.251-.018.017-.226-.06-.239-.133-.052-.2-.052-.078-.028c-.097-.026-.183-.087-.268-.138l-.031-.098.041-.16c.153-.188.263-.387.406-.584l.074-.024c.141.09.291.188.444.254l.187-.119.01.009.017-.021.015-.001-.002-.023.024.003-.009.01.114-.08-.005-.004.038.001.007-.029h.01l.039-.046c.085-.016.162-.074.257-.086l-.006-.018.081.003.055-.028.006.014.217-.03.121-.052.151-.083-.017-.032.03.012.038-.064-.015-.004.057-.076.033-.074-.05-.154-.072-.009c-.114.004-.222-.036-.337-.037l-.179-.03-.144-.013c-.139-.019-.28-.051-.427-.04l-.211-.014z" transform="matrix(8.31101 0 0 -8.31101 295.95987227 257.22369462)"/><path d="m0 0c-.115.118-.137.273-.229.394l-.041.151.117.096.176.064.123.048.081-.197.052-.137.07-.158.009-.063c-.096-.074-.187-.139-.295-.179l-.013.011z" transform="matrix(8.31101 0 0 -8.31101 291.81267828 248.35584695)"/><path d="m0 0c-.106.046-.229.064-.341.106-.092.04.022.094.025.141.144.138.201.339.304.498l.1.198.077.138.06.162.102.222.053.211.053.072-.002.024.069.239.016.013.028.127.049.216.039.135.047.192.097.28.055.167.111.212.077.137.063.072.023-.006.124.124.011.023-.014.006.069.033.011.018-.013.016.056.043.014-.006.068.081.111.088.056.043.177.135.13.024c.115.073.276-.01.399.033l.22.008.03.017.008-.015.282-.002-.006-.009.048-.003v.004l.019-.001.004-.015.029.013.004-.015.048.011-.005-.005.137-.024.014-.001v-.005l.17-.022c.087-.054.2.057.274-.039l-.074-.162c-.267-.319-.479-.68-.687-1.037-.121-.216-.278-.414-.422-.623-.075-.167-.218-.304-.307-.469-.065-.105-.157-.185-.208-.295-.104-.122-.195-.253-.299-.37l-.059-.096-.116-.144-.145-.223-.121-.149-.133-.186-.055-.11-.174-.092c-.136-.038-.116-.221-.248-.254-.188.033-.362.007-.532.096" transform="matrix(8.31101 0 0 -8.31101 280.50970468 239.15555888)"/><path d="m0 0-.062.138c-.084.221-.153.446-.106.7l.022.165-.009.211-.015.249-.036.093c.007.091-.026.169-.039.251-.008.149-.065.282-.112.419l-.055.233-.058.181-.062.067-.077-.081-.004.01-.012-.023-.034-.016-.077-.009-.002-.028-.101-.065-.007.025-.036-.026.014-.011-.02-.008.001.009-.053-.01.003-.024-.038-.055-.011-.018-.103-.04-.01-.009-.021.035-.032-.041.006.01-.01.005-.011-.028-.047.009-.006-.019.004-.005-.01-.009-.009.01-.08-.046-.084-.037.008-.029-.03-.017-.027.025-.033.008-.059-.029-.004.009-.026-.031-.083-.023-.097-.016-.042.003-.061-.044-.067-.004-.024-.003-.042.017-.117-.039-.014.011-.088-.032c-.109.008-.22-.003-.328.019l-.167-.002-.19.014.048.068c.109.178.148.395.215.595.02.266.105.522.148.777.042.116.036.231.083.347.031.107.05.225.067.334.106.336.153.714.263 1.049l.041.165.035.15c.011.156.096.274.103.431.04.164.103.303.152.452.04.092.048.197.093.284l.043.135-.033.012-.062-.009-.139-.005.004-.005-.125-.019-.045.17-.105.266-.083.23c-.069.167-.128.339-.192.51l-.061.143c-.017.087-.069.168-.081.259-.052.133-.129.262-.186.396.125.005.176.116.288.15l.107-.237.061-.2.103-.232.041-.017.14-.115.147-.082.114-.066.116.282.022.175c-.016.097-.082.174-.104.266l-.015.058.05.035-.042.079-.027.021.006.009-.115.128.005.004-.018.016-.029-.012-.022.097.175.102.192.086c.04-.103.065-.22.124-.324l.048-.128c.056-.085.083-.173.105-.265l.039-.051.043.002.05-.032.006.013.06-.028.01.009.166-.079.038-.012.063.148c.012.094-.011.172.028.255-.051.214-.176.4-.246.61l-.027.088c.091.074.206.142.319.125l.045.02c.012-.091.079-.154.072-.248.036-.094.091-.184.108-.29l.047.054.034.217-.032.079.008.037c.093.036.028-.14.117-.09l.084.171-.062.195.114.059c.079.099.211.08.268.2l.194.243.045.026c.011.213-.049.433-.052.657-.037.089-.024.198-.026.293-.003.096-.005.196-.062.267l-.033-.002c-.097-.084-.182-.192-.29-.241l-.148-.128c-.076-.061-.214-.123-.18-.244l-.159-.156-.117-.025.034-.064.179-.032.075-.149.002-.167.052-.133.143-.001.015.013-.013.011.066-.01.013-.082c-.108.022-.209-.047-.309-.054-.099-.049-.215-.06-.318-.1l-.206-.076c-.157-.065-.312-.158-.469-.214l-.095-.055-.084-.046c-.154-.08-.321-.148-.471-.238l-.216-.151c-.125-.081-.259-.148-.371-.249l-.069.105.088.031c.102.084.211.143.308.226l-.021.178c-.029.122-.063.243-.088.364-.001.172-.056.334-.058.501-.079.225-.043.519.109.713.104.178.179.364.302.531l.137.243.084.109.045.025c.007.1.089.175.133.257.14.219.24.47.42.657l.009.052c.123.186.233.379.356.565.038.122.154.204.191.325.152.251.304.493.451.75l.026.031.034.003.001.014.019.003.001.01.07.042.142-.01.035.021-.004.01.081-.011.123.049.173.02c.09-.006.179.035.266.052l.001.01.033.002.001.014.069.024.034.002v.01l.055.029.147-.01.058-.052c.457-.416.861-.884 1.257-1.343l.065-.091c.136-.167.268-.32.389-.491l.157-.207c.116-.171.269-.363.37-.543.104-.141.188-.3.287-.445.055-.105.109-.214.193-.306.048-.118.121-.228.175-.346l.107-.171c.053-.118.112-.227.175-.337.048-.137.143-.263.181-.405l.091-.188c.085-.149.111-.313.195-.462l.066-.206-.039-.15.005-.057c.006-.306-.097-.604-.106-.928l.032-.012.102-.112c.102-.103.229-.189.341-.292.112-.104.224-.198.335-.316.228-.146.403-.364.619-.537l.161-.155c.096-.059.15-.168.246-.223.185-.209.415-.331.615-.527.158-.121.337-.225.463-.387l.214-.207c.229-.198.382-.457.575-.691l.092-.102.143-.144.052-.071.032-.012-.005-.009.193-.229.125-.123.091-.117.128-.21.116-.242c.024-.131.023-.278-.002-.42l-.051-.039c-.115.056-.24.041-.361.088-.147.006-.326.043-.49.022-.092-.022-.201-.009-.294-.045-.162.012-.311-.016-.465-.024h-.057c-.136.039-.279-.032-.421-.012l-.248.061-.113.089c-.106.051-.206.116-.329.139l-.239.06-.074.03c-.116-.016-.169.098-.274.106l.001.004c-.173.061-.328.158-.488.251-.13.119-.309.147-.423.279l-.172.127-.144.058-.019.002-.057.071-.003.019-.055.033-.102.045-.021.031-.029.002-.004.014-.062.067-.128.067-.032.026-.004.01-.055.027-.054.043c-.092.044-.174.103-.272.134l-.253.133c-.152.073-.318.014-.479.031-.14-.21-.331-.411-.416-.657l-.055-.106c-.034-.203-.115-.393-.144-.596l-.019-.065c-.073-.281-.183-.54-.206-.849l-.011-.018-.001-.019-.01-.009-.002-.019-.009.001c-.068-.281-.149-.538-.204-.83l-.014-.061c-.066-.253-.173-.474-.169-.746.01-.254-.057-.521-.106-.79-.007-.099-.037-.188-.078-.28l-.09-.003-.174.046c-.243.004-.481.011-.738.025-.117-.043-.252.009-.369-.03z" transform="matrix(8.31101 0 0 -8.31101 234.67448453 228.18502568)"/><path d="m0 0c-.104.074-.197.181-.313.228l-.005-.004-.212.158-.027.022-.165.097-.086.064c.003.172-.013.34.008.501.178.087.37.159.552.241.141-.034.247-.142.371-.209l.15-.106c.09-.074.202-.106.276-.202l.03-.054c-.055-.097-.142-.176-.197-.272l-.049.041-.205.13-.106.06-.048.056-.009.01-.01-.004-.121.1-.056.028-.044.041-.135-.081c.056-.209.304-.217.411-.378l.164-.108.077-.058c-.041-.106-.137-.18-.192-.277z" fill="#ffe000" transform="matrix(8.31101 0 0 -8.31101 243.8747726 191.85760097)"/><path d="m0 0-.028.069-.092.05-.123.085-.137.081-.005-.004-.108.094-.251.152-.019.135c-.014.125-.013.211-.018.34l.227.093.197.086.103.035c.143.071.214-.135.347-.14.128-.08.273-.125.389-.224l.051-.027-.078-.157-.111-.206-.086.063c-.093.04-.168.113-.272.134l-.1.06-.116.042.005.005-.144.058-.088-.089c.041-.094.15-.106.218-.159l.215-.121c.093-.035.18-.089.266-.144-.042-.116-.113-.239-.196-.338z" fill="#ffe000" transform="matrix(8.31101 0 0 -8.31101 251.72036604 180.01441172)"/><path d="m0 0c-.121.042-.241.099-.361.155l-.07.02-.099.079c-.048.194-.096.384-.144.578l.021.027.137.052.113.035.067.066.118.049.298-.16.118-.018.062-.072c.104-.007.164-.102.269-.11l.081-.058-.105-.265-.196.067-.218.083-.057-.006-.148.078-.005-.004.005.004-.1.055-.039-.135.151-.088.182-.051.068-.048.29-.093c-.047-.121-.094-.237-.16-.351-.11-.002-.162.136-.278.111" fill="#ffe000" transform="matrix(8.31101 0 0 -8.31101 256.54906285 166.68355168)"/><path d="m0 0-.034.122.09-.002c.017-.097.163-.189.065-.291l-.064.033z" transform="matrix(8.31101 0 0 -8.31101 218.22699574 157.05109109)"/><path d="m0 0-.053.195.045.016.119-.195-.055-.096z" transform="matrix(8.31101 0 0 -8.31101 225.69859373 154.66583122)"/><path d="m0 0-.086.197c-.034.127-.092.245-.135.368l-.059.114-.053.114-.052.142-.101.189-.078.163-.091.193-.11.199c-.145.292-.36.56-.501.848l-.056.075-.095.141c-.157.264-.34.502-.518.744-.193.301-.438.543-.646.83-.117.09-.192.238-.31.328-.163.179-.33.382-.509.534l.04.025.033-.002.102.021c.104-.003.22.018.323.043l.003-.019.019.003.069.029c.094-.021.173.083.262.062l.014-.068c.115-.128.255-.305.37-.433.093-.164.25-.295.334-.454.14-.177.26-.358.39-.534l.035-.051c.088-.159.212-.292.286-.46.179-.223.293-.498.451-.744.108-.227.249-.447.346-.684.085-.149.155-.302.215-.459l.14-.297.098-.226c.044-.118.117-.233.136-.363.111-.118.057-.267.032-.404l-.104-.245-.1-.136z" transform="matrix(8.31101 0 0 -8.31101 274.06036092 146.82854879)"/><path d="m0 0-.015.063c-.029.112-.016.235-.09.331l-.078.235-.045.103c-.059.1-.05.224-.12.315-.03.112-.1.198-.145.306l-.019.002c.004.114-.073.167-.114.266l-.09.197-.019.002.01.013c-.078.101-.117.223-.19.329l-.021.049c-.039.118-.11.19-.159.303l-.104.146.001.01c-.216.249-.405.526-.601.783l-.13.182-.105.136-.009.001c-.162.193-.304.413-.492.585l-.15.159c-.06.099-.245.118-.21.268l-.05.233c.043.058-.072.186.061.176l.012.033.15.089c.034.079.229.069.123.192l-.123.071-.221-.151c-.104-.045-.208-.104-.32-.134l.063.086c.06.096.139.2.133.315l.102.212c.008.109.08.185.079.295l-.144.058c-.133.01-.215.13-.349.121-.1.074-.233.074-.338.149l-.01.058.161.103.12.148.197.272.071.133c.107.15.154.333.26.478.041.106.126.167.181.263.082.075.129.196.232.236.068.138.233.183.357.241l.056-.013-.002.033.056-.014.098.041.014-.011.13.015.076-.001.013-.025.016.023.237-.084.147-.078.087-.054.165-.146c.096-.064.205-.144.326-.114.11.063.242.039.343.122.158.065.305.183.488.141l.131-.033.187-.057.124-.128.073-.173-.03-.088c-.077-.071-.132-.167-.24-.207l-.11-.14-.057-.062c-.119-.125-.21-.257-.324-.382l-.118-.173c-.039-.083.032-.155.006-.249.002-.105.031-.226.008-.344-.064-.1-.12-.21-.203-.305l.043-.184.088-.173c.055-.157-.028-.318-.146-.424-.103-.045-.246-.039-.341.03l-.157-.18.043-.065.11-.065.175-.152.12-.051c.13.071.288.079.422.145l.145.033.116.02.004-.015.175.04c.105.011.172-.118.25-.171.097-.107.232-.213.339-.316l.137-.153.136-.091.079-.035.131-.1.042-.017-.006-.014c.101-.06.211-.116.275-.216l.18-.09.097-.045.064-.033.102-.041.133-.077.005.005-.009.01.093-.035.135-.044.183-.042.043.188c.003.11.025.222.085.313l.083-.039-.021-.084c-.015-.338-.064-.683-.051-1.018l-.016-.223.008-.091c.009-.263-.005-.515.005-.778-.018-.114-.008-.239.008-.34.013-.158-.027-.313.014-.464l-.05-.101-.087-.013-.044.251c-.009.13-.009.268-.028.399l-.019.006-.035-.036-.064-.019c-.174.037-.383-.077-.503.099l-.238.208-.012.034-.06.029-.068.052-.064.034-.013.02.015.008-.018.016-.01-.009-.095.074-.155.092-.111.056-.132.081-.031.036-.047.004-.23.059c-.032-.174-.074-.295-.115-.468-.03-.141-.096-.261-.125-.402-.05-.096-.031-.222-.072-.324-.025-.089-.043-.197-.059-.287-.086-.203-.095-.446-.204-.643l-.039-.14-.092-.146z" transform="matrix(8.31101 0 0 -8.31101 277.1188126 140.38751604)"/><path d="m0 0c-.036.089.046.173.019.266l-.015.12.047.049c.091.003.187.015.277-.001.105.002.186-.056.281.003.094.041.194.096.292.136l-.062.062c-.056.086-.171.075-.201.187-.102.045-.201-.009-.3.007l-.226-.016-.01.191c.022.104-.037.213.032.299l.07.047.216.013.228-.007.14.018c.061.115.201.071.243.197-.105.06-.158.178-.258.248-.111-.016-.235.06-.357.012l-.262.005c-.037.088-.002.172-.005.267.059.087-.01.192.021.285l.23.007.226-.036.168.012.017-.025.188.091.068.081c-.069.091-.126.171-.21.254l-.12-.001c-.152.007-.319 0-.463.053l-.097-.017-.028.069.013.252.236.021c.303-.027.625-.055.921-.058v-.009l.142-.015-.001-.005.062-.009-.001-.005h.067l.027-.017.199-.019.087.013.207-.049.016-.163-.003-.181.112-.028.021.027c.102.022.217-.035.299.045l.076.119c.035.088.112.154.133.253.063.21.291.188.463.199.092.018.196-.004.28-.03.099-.007.187-.051.248-.123l.036.16-.021.24-.006.168.038.202c.008.109.088.227.196.267l.112.025-.001-.009.093-.035.078-.044.095-.136c.039-.18-.058-.34-.199-.439l-.026-.027c.001-.114-.017-.232.004-.339l.047-.003-.009-.004.013-.011.015.013-.004.005.044.016-.01-.009.076.004-.004.01c.141.033.281.051.421.074l.097.022c.151.041.296.059.442.101l.063.01c.107.03.218.046.321.086l.155.036.17.036.142.056.121.025.24.073.137.052.23.083.069.024.25.096.145.023.1.064.201.071.059.015.183.092.069.023.008-.015.117.039.061.053.029-.007.006.019.014-.001-.005-.009.013-.006.007.028.069.024.193.095.027-.016-.007.029.232.103.123.048.204.123.089.037c.135.085.276.127.408.228l.085.055c.099.041.188.096.274.157l.179.097.084.046c.079.099.2.119.292.198.185.125.372.264.553.389l.132.1c.111.087.194.177.313.235l.117.106.051.049c.24.211.482.446.677.695l.078.032c-.12-.211-.341-.366-.489-.556-.099-.107-.215-.204-.304-.312l-.113-.101-.047-.054c-.388-.353-.733-.691-1.157-1.003l-.228-.194-.051-.044c-.105-.054-.183-.144-.288-.212-.146-.104-.292-.213-.433-.308l-.154-.089-.076-.061-.281-.184-.12-.073c-.104-.049-.205-.133-.314-.177-.141-.104-.283-.161-.429-.255l-.153-.065c-.134-.072-.253-.134-.382-.201l-.099-.05-.138-.067-.084-.032c-.241-.101-.469-.223-.718-.3l-.208-.09-.112-.039-.206-.081-.231-.078-.118-.049-.208-.042-.198-.033c-.127-.043-.271-.047-.403-.095-.139-.013-.27-.042-.411-.065l.001-.191.025-.116.065-.015.077-.063.027-.026.069-.091-.009-.004.023-.078c.007-.096-.016-.213-.116-.268l-.062-.067-.211-.023-.183.052-.1.265-.031.226-.04.042-.134-.077-.105-.068-.15-.094-.004-.048c-.103.022-.19-.053-.286.002l-.198.105-.12.052-.094.017c-.121-.025-.226-.094-.344-.133l-.198.039-.025-.147c.021-.111-.049-.215-.037-.316-.051-.178-.047-.384-.089-.562l-.013-.247-.039-.078.004-.001-.036-.04c-.094.016-.196-.005-.286.002l-.195-.048c-.142.006-.246-.039-.381-.058-.121-.029-.242-.044-.355-.088l-.183-.025-.224-.065-.182-.01z" transform="matrix(8.31101 0 0 -8.31101 301.69446917 134.05452642)"/><path d="m0 0-.014.073.194-.019-.058-.077z" transform="matrix(8.31101 0 0 -8.31101 305.64219892 128.86845618)"/><path d="m0 0 .031.098c.099-.012.253.067.291-.064l-.037-.055-.149-.018z" transform="matrix(8.31101 0 0 -8.31101 305.70037599 121.02286274)"/><path d="m0 0c.013.114.138-.005.195.057l.028-.016.039.021.031-.04-.043-.064c-.082-.013-.199-.048-.25.042" transform="matrix(8.31101 0 0 -8.31101 306.16579255 112.52901052)"/><path d="m0 0 .129.201.097.083.222.094.205.07-.023-.184c-.112-.164-.308-.302-.516-.272z" transform="matrix(8.31101 0 0 -8.31101 243.8747726 100.31182582)"/><path d="m0 0c.003.105.112.159.152.247l.078.094.116-.051c.026-.098-.015-.2-.078-.276l-.082-.075-.095.002z" fill="#fff" transform="matrix(8.31101 0 0 -8.31101 270.68609086 95.9734786)"/><path d="m0 0-.029.059.063.149c.079.094.144.194.199.3l.049.082c.088.099.117.226.182.335.131.167.185.373.325.535.115.125.187.272.315.382.109.121.27.229.391.33l.186.12.182.077.192.019.107.021c.154-.049.319-.009.466-.091.268-.11.411-.446.725-.454l.078.018c.106.011.183.092.285.113.122.105.27.166.434.125l.113-.022.172-.06.053-.057.194-.157.054-.047.077-.12c-.006-.071.133-.139.01-.178-.094.017-.117-.101-.207-.099-.035.112-.081.264-.206.316-.069.043-.136.1-.228.088l-.256.023-.191-.067c-.083-.027-.16-.102-.251-.115-.103-.035-.232-.04-.341-.023l-.128.077-.1.074-.108.084-.052.066-.053.056-.139.068-.016.039-.039-.011-.156.016-.125-.01.004-.005-.211-.023-.159-.022-.051.023-.032-.045-.07-.048c-.113-.034-.214-.113-.3-.183-.088-.089-.17-.174-.276-.252l-.154-.213-.046-.03-.078-.09.005-.005-.049-.077-.099-.179-.026-.094-.01-.004-.001-.019-.016-.022-.001-.015-.01-.004-.027-.05-.011-.018-.025-.08-.01-.004-.001-.014-.015-.008-.001-.015-.021-.022-.001-.019-.015-.004-.001-.014-.01-.009-.049-.087-.011-.013-.03-.079-.009-.004-.059-.077-.053-.082-.01-.004-.063-.077-.03-.017-.012-.037-.097-.017z" transform="matrix(8.31101 0 0 -8.31101 244.207213 85.02787843)"/><path d="m0 0-.003.024-.053-.001-.086-.008-.105-.002-.126.043-.072-.004-.068.043.005.004-.014.068-.007.039c.056.12.019.266.067.391-.002.105.038.193.035.289.098.035.229-.003.336.023l.104-.008h-.004l.001.015.004-.001-.001-.014.236-.041c.119-.009.238-.003.351-.026l.107-.237c.054-.175.103-.356.098-.546l-.088-.027-.236-.04-.065.029-.02-.009v-.009l-.248.009-.094.016-.025-.017.028-.012z" fill="#ffe000" transform="matrix(8.31101 0 0 -8.31101 238.53079317 285.36477448)"/><path d="m0 0 .011.152c.019.132.004.253.038.384l.066-.005.038.054.172-.06.12.015.192-.052.152-.007.025.008.039-.046c.041-.089.097-.174.08-.282l.022-.083-.051-.12-.167.012-.091-.008-.223.016-.02-.012c-.143.005-.276.006-.403.034" transform="matrix(8.31101 0 0 -8.31101 235.70504977 283.74412753)"/><g fill="#ffe000"><path d="m0 0-.06.088c-.09.13-.121.129-.237.05l-.898-.617c-.116-.08-.127-.109-.038-.239l.06-.088-.208-.143-.638.928c-.277.403-.305.677-.04.859.173.119.384.097.601-.072-.13.316-.092.54.123.688.33.227.593.073.923-.408l.62-.903zm-.552.803c-.158.23-.306.288-.489.163-.187-.129-.189-.288-.028-.522l.085-.123.518.357zm-.707-.514c-.143.208-.277.256-.441.144-.158-.109-.158-.242-.018-.445l.08-.117.452.311z" transform="matrix(8.31101 0 0 -8.31101 196.18619722 280.96825019)"/><path d="m0 0-.036.097.237.088.384-1.035-.237-.088-.037.1c-.055.148-.085.155-.217.106l-1.021-.379c-.133-.049-.151-.074-.096-.222l.037-.1-.237-.088-.441 1.188c-.162.437-.096.707.208.82.21.078.409-.011.561-.264-.044.235.016.37.245.455l.175.065c.135.05.189.086.165.15-.028.076-.126.058-.317-.013l-.067.181.069.028c.331.123.534.048.641-.24.114-.307.015-.494-.3-.611l-.173-.064c-.197-.073-.227-.131-.15-.338l.082-.221.431.16c.132.049.149.077.094.225m-.834-.282c-.092.251-.176.336-.376.262-.202-.075-.227-.197-.141-.429l.079-.213.509.189z" transform="matrix(8.31101 0 0 -8.31101 182.48134173 257.03254139)"/><path d="m0 0-.017.117c-.023.156-.051.169-.191.149l-1.078-.158c-.139-.021-.162-.042-.139-.198l.017-.117-.251-.037-.165 1.127.25.037.017-.117c.023-.156.052-.172.191-.152l1.078.158c.14.021.163.045.14.201l-.017.117.25.036.165-1.126z" transform="matrix(8.31101 0 0 -8.31101 178.64996612 244.42473922)"/><path d="m0 0-.758.033.011.258c.315.033.521.263.534.576.01.221-.077.351-.215.357-.189.009-.211-.16-.285-.419-.075-.262-.133-.463-.251-.599-.106-.122-.25-.185-.422-.178-.385.017-.602.308-.581.811.011.242.068.432.186.574l-.132.063.01.238.704-.03-.012-.265c-.288-.022-.467-.23-.481-.549-.009-.201.078-.317.21-.322.187-.008.191.204.305.597.125.426.324.625.657.61.377-.016.614-.326.592-.826-.011-.244-.093-.476-.199-.613l.137-.083z" transform="matrix(8.31101 0 0 -8.31101 179.17355975 231.1936113)"/><path d="m0 0-.066-.253c-.32.083-.5.005-.566-.249l-.007-.028 1.15-.297.036-.009c.1-.026.154-.037.178.001.033.045.057.128.09.244l.24-.062-.287-1.108-.239.062c.03.117.043.203.04.26-.003.045-.055.062-.153.087l-.036.009-1.152.298-.007-.027c-.066-.254.053-.412.373-.495l-.064-.251-.721.187.47 1.818z" transform="matrix(8.31101 0 0 -8.31101 174.16202072 197.6171309)"/><path d="m0 0c.32.598.855.768 1.413.47.558-.299.71-.837.389-1.436-.32-.598-.854-.772-1.412-.473-.557.299-.711.841-.39 1.439m1.569-.841c.153.287 0 .519-.451.761-.451.241-.729.24-.882-.046-.154-.287-.001-.519.45-.761.452-.241.73-.24.883.046" transform="matrix(8.31101 0 0 -8.31101 174.05397759 182.27500644)"/><path d="m0 0 .187-.17-.081-.09c-.107-.116-.101-.149.003-.243l.929-.846.103.113c.139.153.232.259.228.387-.002.122-.083.242-.233.402l.17.187.583-.53-1.217-1.337-.187.17.072.079c.106.117.099.147-.006.242l-.805.733c-.105.095-.135.099-.242-.018l-.071-.078-.187.17z" transform="matrix(8.31101 0 0 -8.31101 189.1052167 162.1291182)"/><path d="m0 0 .089-.052-.128-.219-.952.558.128.219.091-.054c.137-.08.165-.066.236.055l.551.941c.071.121.069.152-.067.232l-.092.054.128.218 1.094-.641c.402-.235.522-.485.358-.766-.114-.193-.324-.25-.602-.151.183-.153.223-.297.099-.507l-.094-.162c-.073-.124-.093-.186-.033-.22.069-.041.134.034.237.211l.166-.098-.035-.066c-.179-.305-.383-.375-.649-.22-.283.166-.324.374-.154.664l.093.159c.106.181.093.245-.098.357l-.203.119-.233-.397c-.071-.121-.067-.154.07-.234m.467.746c.231-.135.35-.148.457.035.109.187.051.297-.162.422l-.197.115-.274-.469z" transform="matrix(8.31101 0 0 -8.31101 299.68320475 156.56905251)"/><path d="m0 0c.487-.472.503-1.033.063-1.487s-.999-.452-1.486.02-.508 1.033-.067 1.487c.44.454 1.003.452 1.49-.02m-1.239-1.277c.233-.226.498-.143.854.224.357.368.432.635.199.861s-.498.143-.855-.224c-.356-.367-.431-.635-.198-.861" transform="matrix(8.31101 0 0 -8.31101 326.09559453 158.56369491)"/><path d="m0 0 .944 1.21c.106.136.135.203.03.371l.204.135.594-.899-.204-.135-.059.095c-.063.096-.105.123-.165.084l-.113-.127-.616-.772 1.003.27.127.043c.045.03.037.09-.025.183l-.052.073.204.135.462-.698-.204-.135c-.109.159-.205.168-.409.102l-1.424-.383z" transform="matrix(8.31101 0 0 -8.31101 324.42508152 181.87607796)"/><path d="m0 0 .038-.099c.056-.148.087-.155.218-.105l1.018.389c.131.05.15.075.093.223l-.038.099.237.09.679-1.78-.688-.262-.09.236c.166.091.273.165.315.271.05.12.003.25-.071.444l-.089.233-.513-.196.018-.045c.077-.202.154-.227.38-.141l.086-.226-.822-.313-.086.225c.253.103.283.161.206.365l-.018.045-.58-.221.092-.242c.145-.378.275-.461.712-.34l.09-.237-.744-.283-.679 1.78z" transform="matrix(8.31101 0 0 -8.31101 332.56987132 190.59432745)"/><path d="m0 0 .012-.103-.251-.029-.128 1.096.251.03.012-.106c.019-.157.046-.171.186-.155l1.083.127c.14.016.163.036.145.193l-.012.106.251.029.147-1.259c.054-.463-.074-.709-.396-.747-.223-.026-.395.107-.483.389-.012-.238-.103-.356-.346-.384l-.185-.022c-.143-.017-.204-.038-.196-.107.009-.08.108-.086.311-.062l.022-.191-.074-.012c-.351-.041-.53.08-.566.386-.038.325.103.483.437.523l.183.021c.208.024.252.073.226.293l-.027.234-.457-.054c-.14-.016-.163-.039-.145-.196m.877.076c.031-.265.092-.368.303-.343.215.025.268.138.239.383l-.026.226-.54-.063z" transform="matrix(8.31101 0 0 -8.31101 340.30742163 217.29760258)"/><path d="m0 0 .753-.093-.032-.257c-.316-.007-.539-.22-.578-.531-.027-.219.049-.356.186-.373.188-.023.223.143.318.395.095.255.169.452.297.578.116.113.264.164.435.143.382-.047.576-.355.514-.854-.029-.24-.101-.425-.23-.557l.127-.073-.03-.237-.699.086.033.263c.289-.001.484.192.523.508.025.2-.053.323-.184.339-.186.023-.206-.189-.351-.571-.159-.415-.372-.597-.703-.556-.374.046-.586.373-.524.87.03.242.13.467.247.595l-.131.094z" transform="matrix(8.31101 0 0 -8.31101 338.89454993 230.66170666)"/><path d="m0 0-.044-.097c-.065-.144-.049-.17.08-.228l.993-.449c.128-.058.159-.053.224.091l.044.097.23-.104-.745-1.648-.718.325.105.23c.206-.074.351-.102.464-.055.119.047.177.175.262.364l.063.139-.501.226-.008-.018c-.076-.168-.031-.251.165-.34l.013-.006-.099-.22-.802.362.1.22c.216-.094.316-.089.386.066l.015.04-.414.187c-.128.058-.16.051-.225-.093l-.05-.11-.23.104.462 1.021z" transform="matrix(8.31101 0 0 -8.31101 336.93315157 254.35639617)"/><path d="m0 0-.239-.057-.057.237.237.06z" transform="matrix(8.31101 0 0 -8.31101 329.46986459 270.44651153)"/><path d="m0 0c-.406.344-.437.742-.089 1.174.394.491.959.547 1.44.159.242-.194.371-.419.399-.696.028-.269-.048-.496-.231-.725-.132-.163-.292-.267-.497-.32l.083-.14-.166-.206-.612.491.177.22c.281-.197.548-.175.723.042.191.238.104.547-.266.844-.372.299-.689.322-.886.077-.165-.206-.129-.46.116-.682z" transform="matrix(8.31101 0 0 -8.31101 321.35000782 287.5422591)"/><path d="m0 0-.245.006.004.244.245-.003z" transform="matrix(8.31101 0 0 -8.31101 316.24704768 286.98542143)"/></g></g></svg>