<svg clip-rule="evenodd" fill-rule="evenodd" stroke-linejoin="round" stroke-miterlimit="2" viewBox="0 0 560 400" xmlns="http://www.w3.org/2000/svg"><g fill-rule="nonzero"><path d="m121.017 153.432v57.684c0 4.78 1.138 8.527 3.441 11.219 2.296 2.687 5.485 4.034 9.559 4.034 3.392 0 6.241-1.347 8.564-4.013 2.3-2.668 3.459-5.888 3.459-9.639 0-4.295-1.159-7.67-3.459-10.093-2.323-2.449-5.537-3.661-9.634-3.661-.979 0-2.095.131-3.392.395-1.299.243-2.985.705-5.078 1.343v-21.424c1.731-.355 3.37-.619 4.942-.817 1.547-.203 3.007-.288 4.325-.288 9.928 0 18.08 3.239 24.457 9.724 6.399 6.483 9.585 14.793 9.585 24.958 0 9.654-3.254 17.77-9.769 24.361-6.511 6.59-14.595 9.881-24.25 9.881-6.466 0-12.479-1.766-18.078-5.298-5.625-3.523-9.884-8.198-12.82-14.018-1.024-2.45-1.755-5.05-2.21-7.782-.432-2.733-.659-6.616-.659-11.667v-54.899"/><path d="m183.831 161.239c0-2.205.885-4.142 2.641-5.822 1.75-1.677 3.778-2.513 6.102-2.513 2.39 0 4.441.815 6.102 2.448 1.663 1.654 2.504 3.614 2.504 5.887 0 2.489-.797 4.542-2.411 6.103-1.595 1.567-3.667 2.364-6.195 2.364-2.457 0-4.508-.818-6.218-2.429-1.684-1.608-2.525-3.636-2.525-6.038zm23.362 0c0-2.205.888-4.142 2.64-5.822 1.754-1.677 3.781-2.513 6.103-2.513 2.395 0 4.441.815 6.102 2.448 1.663 1.654 2.504 3.614 2.504 5.887 0 2.489-.794 4.542-2.413 6.103-1.593 1.567-3.665 2.364-6.193 2.364-2.459 0-4.508-.818-6.216-2.429-1.684-1.608-2.527-3.636-2.527-6.038zm-13.002 19.179v36.513c0 3.067.932 5.556 2.779 7.478 1.841 1.916 4.21 2.864 7.079 2.864 2.892 0 5.26-.948 7.082-2.864 1.822-1.922 2.733-4.411 2.733-7.478v-36.513h21.223v33.226c0 10.19-2.848 18.323-8.517 24.367-5.67 6.063-13.161 9.085-22.498 9.085-5.123 0-9.858-1.06-14.229-3.2-4.349-2.14-8.038-5.207-11.068-9.195-2.004-2.713-3.461-5.71-4.372-8.995-.911-3.266-1.367-7.296-1.367-12.062v-33.226"/><path d="m243.479 245.924v-92.492h21.22v31.264c2.142-1.851 4.509-3.239 7.132-4.166 2.639-.923 5.396-1.39 8.288-1.39 7.739 0 13.911 2.89 18.512 8.665 4.598 5.758 6.899 13.627 6.899 23.568v34.551h-21.155v-36.492c0-3.063-.934-5.551-2.775-7.474-1.848-1.916-4.214-2.864-7.085-2.864-2.843 0-5.193.948-7.036 2.864-1.843 1.923-2.78 4.411-2.78 7.474v36.492"/></g><path d="m313.922 153.432h21.608v92.492h-21.608z"/><g fill-rule="nonzero"><path d="m412.648 221.585c-3.555 8.13-8.54 14.417-14.94 18.849-6.399 4.432-13.685 6.662-21.81 6.662-4.489 0-8.813-.861-12.981-2.56-4.144-1.698-7.832-4.149-11.044-7.321-3.326-3.285-5.85-6.967-7.562-11.048-1.705-4.096-2.572-8.442-2.572-13.049 0-4.609.867-8.954 2.572-13.05 1.712-4.082 4.236-7.768 7.562-11.046 3.212-3.135 6.852-5.558 10.972-7.235 4.125-1.673 8.475-2.516 13.053-2.516 6.852 0 13 1.766 18.462 5.272 5.466 3.505 9.975 8.619 13.481 15.347l-32.744 21.562-8.194-12.02 17.714-11.925c-1.164-.75-2.346-1.303-3.6-1.652-1.25-.376-2.525-.553-3.871-.553-4.165 0-7.716 1.542-10.654 4.609-2.937 3.082-4.397 6.859-4.397 11.331 0 4.563 1.437 8.401 4.329 11.488 2.892 3.107 6.421 4.653 10.61 4.653 3.915 0 7.536-1.149 10.907-3.415 3.347-2.292 6.197-5.603 8.563-9.948"/><path d="m416.714 245.924v-65.502h19.536v9.81c2.14-3.397 4.892-5.891 8.265-7.452 3.394-1.566 7.697-2.358 12.955-2.358h2.53v19.819h-.934c-7.695 0-13.227 1.652-16.642 4.937-3.394 3.305-5.104 8.665-5.104 16.122v24.624"/></g></svg>