<svg clip-rule="evenodd" fill-rule="evenodd" stroke-linejoin="round" stroke-miterlimit="2" viewBox="0 0 560 400" xmlns="http://www.w3.org/2000/svg"><g fill="#ec1c24" fill-rule="nonzero"><path d="m211.372 219.631c0-10.672-7.868-14.484-20.047-17.152-7.121-1.811-9.932-2.955-9.932-6.195v-.284c0-2.1 1.686-4.196 6.185-4.196 4.872 0 10.212 1.812 15.363 5.336l6.744-10.292c-5.902-4.764-13.02-7.144-21.828-7.144-12.457 0-20.703 7.144-20.703 17.724v.284c0 11.627 9.366 14.867 20.424 17.535 7.4 1.716 9.65 3.24 9.65 5.908v.288c0 2.668-2.533 4.384-6.839 4.384-6.464 0-12.461-2.384-17.801-6.479l-7.684 9.432c6.276 5.908 15.364 9.244 24.923 9.244 13.394 0 21.545-7.147 21.545-18.392z"/><path d="m147.386 161.976h13.303v76.047h-13.303z"/><path d="m303.84 238.023v-13.912c-7.963-.288-14.522-7.148-14.522-15.724v-14.487h10.495v-13.34h-10.495v-18.584h-13.303v46.411c0 16.008 12.461 28.969 27.825 29.636z"/><path d="m242.288 193.616c7.963 0 14.71 6.764 14.71 15.055 0 8.576-6.747 15.44-14.71 15.44s-14.707-6.864-14.707-15.44c0-8.291 6.744-15.055 14.707-15.055zm0 43.168c4.593 0 9.37-1.715 13.865-5.336l.845-.858v6.766h13.397v-56.796h-13.397v6.86l-.845-.857c-4.495-3.908-9.272-6.004-13.865-6.004-15.552 0-27.731 12.484-27.731 28.112 0 15.723 12.179 28.113 27.731 28.113z"/><path d="m388.529 224.111c-8.148 0-14.707-6.864-14.707-15.44 0-8.291 6.559-15.055 14.707-15.055 7.963 0 14.522 6.764 14.522 15.055 0 8.576-6.559 15.44-14.522 15.44zm0-44.407c-15.269 0-28.01 13.052-28.01 28.967 0 16.012 12.741 29.352 28.01 29.352 15.367 0 27.84-13.34 27.84-29.352 0-15.915-12.473-28.967-27.84-28.967z"/><path d="m57.824 224.111c-8.244 0-14.802-6.864-14.802-15.44 0-8.291 6.558-15.055 14.802-15.055 7.87 0 14.708 6.764 14.708 15.055 0 8.576-6.838 15.44-14.708 15.44zm0-44.407c-5.433 0-10.492 1.524-14.802 4.476v-22.204h-13.022v47.363c.281 15.628 12.46 28.684 27.824 28.684 15.27 0 27.731-13.34 27.731-29.352 0-15.915-12.461-28.967-27.731-28.967z"/><path d="m141.673 181.228h-13.303v30.399c0 6.86-5.435 12.484-11.899 12.484-6.559 0-11.899-5.624-11.899-12.484v-30.399h-13.303v30.399c0 14.484 11.336 26.396 25.202 26.396 13.865 0 25.202-11.912 25.202-26.396z"/><path d="m495.431 206.291v31.351h13.02v-31.351c0-14.487-11.359-26.303-25.209-26.303-6.831 0-13.02 2.668-17.888 7.72l-.302.572-.529-.572c-4.792-5.052-11.057-7.72-17.812-7.72-13.963 0-25.285 11.816-25.285 26.303v31.351h13.284v-31.351c0-7.051 5.434-12.675 12.001-12.675 5.321 0 11.623 4.096 11.623 9.72v34.306h13.284v-34.306c0-5.624 6.189-9.72 11.624-9.72 6.755 0 12.189 5.624 12.189 12.675z"/><path d="m525.509 187.708h-.302l-2.604-4.48v6.86h-1.962v-10.1h2.226l2.642 4.192 2.529-4.192h1.962v10.1h-1.962v-6.86zm-9.661 2.38h-2.264v-8.004h-2.906v-2.096h7.963v2.096h-2.793z"/><path d="m347.216 215.819c-2.343 4.668-7.121 8.004-12.835 8.004-7.872 0-14.427-6.86-14.427-15.436 0-8.291 6.555-15.059 14.427-15.059 5.714 0 10.492 3.24 12.835 8.008l11.616-7.148c-4.872-8.864-13.959-14.772-24.451-14.772-15.272 0-27.73 13.056-27.73 28.971 0 16.296 12.458 29.255 27.73 29.255 10.492 0 19.579-6.194 24.451-15.055z"/></g></svg>