<svg clip-rule="evenodd" fill-rule="evenodd" stroke-linejoin="round" stroke-miterlimit="2" viewBox="0 0 560 400" xmlns="http://www.w3.org/2000/svg"><g transform="matrix(.940329 0 0 .940329 179.995 62.3628)"><path d="m151.134 78.333s-11.448 7.704-44.782 7.704c-33.335 0-44.783-7.704-44.783-7.704s-1.656-1.007-1.656-1.943c0 0-.216-1.296.72-2.016 0 0-5.904-13.536-6.768-18.504-.864-4.896-11.015-22.895-14.183-24.911 0 0 4.464.144 7.847 3.744 0 0 5.904-.432 7.056.72 0 0-4.32 4.392-2.448 8.856 0 0 3.024 6.551 6.264 4.679 0 0 3.168-1.152 2.16-5.975 0 0 4.176 5.111 7.272 3.6 0 0 4.896-2.016 1.584-12.456 0 0-3.96.288-7.704-2.016 0 0 1.728-2.592 4.32-4.32 0 0 .432-6.984 1.368-9.288 0 0 3.456 2.736 6.048 6.336 0 0 3.168-.432 7.991.792 0 0-3.312 5.616-6.839 7.2 0 0 2.879 10.584 8.279 9.432 0 0 3.456-1.008 4.752-5.904 0 0 4.104 5.04 7.704 4.608 0 0 7.56-.144 6.84-15.336 0 0-5.328-1.152-9.864-5.688 0 0 5.04-4.032 9.432-6.263 0 0 1.728-8.064 4.608-12.6 2.879 4.536 4.679 12.6 4.679 12.6 4.32 2.231 9.36 6.263 9.36 6.263-4.536 4.536-9.864 5.688-9.864 5.688-.72 15.192 6.84 15.336 6.84 15.336 3.6.432 7.704-4.608 7.704-4.608 1.296 4.896 4.752 5.904 4.752 5.904 5.4 1.152 8.28-9.432 8.28-9.432-3.456-1.584-6.84-7.2-6.84-7.2 4.824-1.224 7.992-.792 7.992-.792 2.591-3.6 6.119-6.336 6.119-6.336.864 2.304 1.296 9.288 1.296 9.288 2.592 1.728 4.32 4.32 4.32 4.32-3.744 2.304-7.704 2.016-7.704 2.016-3.312 10.44 1.656 12.456 1.656 12.456 3.024 1.511 7.2-3.6 7.2-3.6-1.008 4.823 2.16 5.975 2.16 5.975 3.24 1.872 6.264-4.679 6.264-4.679 1.872-4.464-2.448-8.856-2.448-8.856 1.152-1.152 7.056-.72 7.056-.72 3.384-3.6 7.847-3.744 7.847-3.744-3.167 2.016-13.319 20.015-14.183 24.911-.864 4.968-6.768 18.504-6.768 18.504.936.72.72 2.016.72 2.016 0 .936-1.656 1.943-1.656 1.943z" fill="#f9eb57"/><path d="m65.529 27.503c.144-1.656.288-3.24.504-4.896.144-1.152.288-2.376.576-3.456l.432-1.656 1.296 1.08c1.944 1.656 3.816 3.672 5.4 5.76 2.16-.216 4.967.144 7.055.576l1.512.36-.792 1.224c-1.44 2.232-3.888 5.328-6.263 6.624.864 2.88 3.023 7.776 5.975 8.568.504.144 1.008.144 1.512.072.576-.144 1.296-.648 1.728-1.008 1.152-1.008 1.944-2.304 2.448-3.672l.576-1.728 1.152 1.368c1.512 1.584 4.32 3.96 6.624 3.744h.072c1.152-.072 2.52-1.008 3.312-1.8 2.808-3.096 3.168-8.64 3.024-12.672-1.008-.216-2.016-.648-2.952-1.008-2.304-1.08-4.464-2.448-6.336-4.248l-.936-.792 1.008-.792c2.664-2.088 5.76-4.247 8.784-5.759.864-3.888 2.304-8.424 4.176-11.808l.936-1.584.936 1.584c1.943 3.384 3.311 7.92 4.175 11.808 3.096 1.512 6.12 3.671 8.784 5.759l1.008.792-.936.792c-1.8 1.728-3.96 3.168-6.264 4.248-.936.36-2.016.792-2.952 1.008-.216 4.032.144 9.576 2.952 12.672.792.792 2.16 1.728 3.312 1.8h.072c2.304.216 5.184-2.16 6.624-3.744l1.152-1.368.648 1.728c.432 1.368 1.224 2.664 2.448 3.672.432.36 1.08.864 1.656 1.008 2.304.504 4.032-1.584 5.112-3.312 1.008-1.584 1.872-3.528 2.376-5.328-2.376-1.296-4.824-4.392-6.192-6.624l-.864-1.224 1.512-.36c2.16-.432 4.896-.792 7.128-.576 1.511-2.088 3.455-4.104 5.327-5.76l1.296-1.08.432 1.656c.288 1.08.432 2.304.576 3.456.216 1.656.36 3.24.504 4.896 1.44 1.008 2.88 2.448 3.888 3.816l.72 1.008-1.008.576c-2.016 1.08-4.752 1.872-7.056 1.8-.864 2.808-1.584 6.624-.36 9.36.288.72 1.008 1.728 1.728 2.088h.072c1.8.863 4.32-1.152 5.544-2.376l1.872-1.8-.072 2.592c-.072 1.008.144 2.016.792 2.879.288.36.792.792 1.224 1.008h.072l.072.072c2.232 1.224 4.68-2.807 5.4-4.463.792-1.872.432-3.888-.504-5.616-.36-.792-.864-1.512-1.44-2.16l-1.008-1.152 1.44-.576c1.512-.504 4.68-.504 6.408-.36 1.656-1.656 4.032-3.024 6.263-3.528l3.24-.72-2.232 2.448c-1.224 1.368-2.375 3.096-3.383 4.608-1.296 2.088-2.52 4.176-3.672 6.264-1.368 2.448-2.736 4.895-3.888 7.487-.72 1.512-1.656 3.528-1.944 5.256-.216 1.296-.648 2.592-1.08 3.888-.504 1.584-1.08 3.24-1.656 4.824-1.224 3.168-2.52 6.336-3.888 9.504.504.576.72 1.44.648 2.232s-.864 1.512-1.44 2.015c-.576.432-1.152.792-1.8 1.152-11.015 5.976-31.607 7.056-43.486 7.056-11.952 0-32.255-1.152-43.343-6.768-.936-.504-1.728-.864-2.52-1.44-.576-.503-1.368-1.223-1.368-2.015-.144-.792.072-1.656.576-2.232-1.368-3.168-2.664-6.336-3.816-9.504-.648-1.584-1.224-3.24-1.728-4.824-.432-1.296-.864-2.592-1.08-3.888-.288-1.728-1.224-3.744-1.944-5.256-1.152-2.592-2.448-5.039-3.816-7.487-1.224-2.088-2.447-4.176-3.743-6.264-1.008-1.512-2.16-3.24-3.384-4.608l-2.232-2.448 3.312.72c2.232.576 4.535 1.872 6.191 3.528 1.728-.144 4.896-.144 6.408.36l1.44.576-1.008 1.152c-.576.648-1.08 1.368-1.44 2.16-.936 1.728-1.296 3.744-.504 5.616.72 1.584 3.24 5.687 5.472 4.463l.072-.072h.072c.36-.216.864-.648 1.152-1.008.648-.863.864-1.871.792-2.879l-.072-2.592 1.872 1.8c1.224 1.224 3.744 3.239 5.544 2.376h.072c.72-.36 1.44-1.368 1.728-2.088 1.224-2.736.504-6.552-.36-9.36-2.304.072-5.04-.72-6.984-1.8l-1.08-.576.72-1.008c1.008-1.368 2.448-2.808 3.888-3.816zm85.461 46.655c-4.608-3.744-12.023-5.976-17.567-7.2-8.784-1.944-18.144-2.736-27.071-2.736-8.928 0-18.288.792-27.072 2.736-5.399 1.224-12.671 3.384-17.279 6.984-.432.288-1.008.72-1.296 1.152-.216.36-.36.72-.288 1.224.072.576.648 1.008 1.008 1.296 3.96-5.328 14.832-7.776 20.879-8.928 5.4-.936 10.944-1.584 16.488-1.944 2.448-.144 5.04-.36 7.56-.36 2.519.072 5.111.216 7.559.36 5.544.36 11.088 1.008 16.488 1.944 6.048 1.152 16.919 3.6 20.879 8.928.36-.288 1.008-.792 1.008-1.296.072-.504 0-.936-.216-1.224-.288-.36-.72-.72-1.08-.936zm-90.141-.648c4.752-3.96 12.384-6.264 18.215-7.56 8.856-1.944 18.288-2.808 27.288-2.808 8.999 0 18.431.864 27.287 2.808 5.832 1.296 13.463 3.6 18.215 7.56 1.296-3.024 2.592-6.12 3.744-9.144.576-1.584 1.152-3.24 1.728-4.824.36-1.224.792-2.52 1.008-3.744.288-1.728 1.296-3.96 2.016-5.544 1.152-2.52 2.52-5.039 3.888-7.487 1.224-2.232 4.68-8.28 7.199-11.088-2.159.576-4.463 1.872-5.831 3.384l-.216.216h-.216c-1.08-.072-4.824-.216-6.264.288.648.72 1.224 1.584 1.584 2.376 1.08 2.088 1.44 4.392.576 6.552-1.08 2.304-3.96 6.623-6.984 4.895-.576-.216-1.224-.792-1.656-1.296-.792-1.08-1.008-2.303-1.008-3.527-1.8 1.728-4.536 3.527-6.696 2.519-1.008-.431-1.944-1.655-2.376-2.591-1.368-3.168-.504-7.344.432-10.512l.144-.36h.432c2.16.144 4.896-.576 6.912-1.656-1.08-1.368-2.592-2.88-3.888-3.744l-.216-.144-.072-.288c-.072-1.656-.216-3.384-.432-5.04-.144-1.008-.288-2.304-.576-3.384-1.944 1.656-3.96 3.816-5.4 5.832l-.215.216h-.288c-2.016-.288-4.896.072-7.056.504 1.44 2.304 3.96 5.4 6.192 6.48l.432.144-.144.432c-.504 2.016-1.512 4.32-2.592 6.048-1.368 2.16-3.456 4.392-6.264 3.744h-.072c-.72-.216-1.512-.792-2.088-1.224-1.296-1.08-2.232-2.52-2.736-4.176-1.872 2.088-4.896 4.392-7.488 4.104-1.512 0-3.096-1.08-4.032-2.16-3.168-3.384-3.528-9.36-3.312-13.752v-.36l.432-.144c1.008-.216 2.232-.648 3.168-1.08 2.16-1.008 4.248-2.304 5.976-3.96-2.664-2.16-5.904-4.32-8.856-5.831l-.216-.144-.072-.216c-.72-3.528-2.231-8.424-4.103-11.736-1.872 3.312-3.384 8.208-4.104 11.736l-.072.216-.216.144c-2.952 1.511-6.192 3.671-8.856 5.831 1.728 1.656 3.816 3.024 6.048 3.96.936.432 2.088.936 3.096 1.08l.432.144v.36c.216 4.392-.144 10.368-3.24 13.752-.936 1.08-2.592 2.16-4.032 2.16-2.664.288-5.688-2.016-7.56-4.104-.504 1.656-1.44 3.096-2.736 4.176-.504.432-1.368 1.008-2.088 1.224-.72.144-1.44.144-2.088-.072-3.528-.936-5.975-6.48-6.839-9.72l-.072-.432.36-.144c2.232-1.08 4.751-4.176 6.191-6.48-2.16-.432-5.039-.792-7.055-.504h-.288l-.216-.216c-1.44-2.016-3.456-4.176-5.4-5.832-.288 1.08-.432 2.376-.576 3.384-.216 1.656-.36 3.384-.432 5.04v.288l-.288.144c-1.296.864-2.808 2.376-3.816 3.744 1.944 1.08 4.68 1.8 6.84 1.656h.432l.144.36c1.008 3.168 1.8 7.344.432 10.512-.432.936-1.368 2.16-2.304 2.591-2.232 1.008-4.968-.791-6.768-2.519 0 1.224-.216 2.447-1.008 3.527-.36.504-1.008 1.08-1.656 1.296-3.024 1.728-5.904-2.591-6.984-4.895-.864-2.16-.504-4.464.576-6.552.36-.792.936-1.656 1.584-2.376-1.44-.504-5.184-.36-6.264-.288h-.216l-.216-.216c-1.368-1.512-3.599-2.808-5.831-3.384 2.52 2.808 5.975 8.856 7.199 11.088 1.44 2.448 2.736 4.967 3.888 7.487.72 1.584 1.728 3.816 2.088 5.544.216 1.224.576 2.52 1.008 3.744.504 1.584 1.08 3.24 1.656 4.824 1.224 3.024 2.448 6.12 3.744 9.144zm89.565 4.751c-2.808-3.815-9.576-6.119-15.335-7.487-7.272 4.104-20.448 5.184-28.727 5.184-8.352 0-21.312-1.08-28.728-5.184-5.687 1.368-12.455 3.6-15.263 7.416 5.256 3.023 12.6 4.607 18.503 5.543 8.496 1.368 17.208 1.872 25.776 1.872 11.951 0 33.262-1.08 43.774-7.344zm-16.919-7.847c-1.152-.288-2.304-.504-3.312-.648-5.4-1.008-10.872-1.584-16.344-1.944-2.448-.216-4.968-.36-7.487-.36-2.52 0-5.04.144-7.488.36-5.472.36-10.944.936-16.344 1.944-1.008.144-2.088.36-3.312.648 7.416 3.528 19.44 4.536 27.144 4.536 7.631 0 19.871-.936 27.143-4.536z" fill="#373435"/><path d="m106.352 46.151s35.062 0 51.91 12.095c0 0 1.296.72.792 2.16 0 0-.72 1.584-1.728.792 0 0-16.056-12.096-50.974-12.096-34.919 0-50.903 12.096-50.903 12.096-1.08.792-1.728-.792-1.728-.792-.576-1.44.72-2.16.72-2.16 16.848-12.095 51.911-12.095 51.911-12.095z" fill="#f9eb57"/><path d="m158.55 57.742c1.008.576 1.368 1.8.936 2.88-.432 1.008-1.44 1.8-2.52 1.008-.864-.72-2.016-1.368-3.024-1.872-2.952-1.656-6.12-3.024-9.288-4.176-12.095-4.32-25.487-5.976-38.302-5.976-12.816 0-26.208 1.656-38.303 5.976-3.168 1.152-6.264 2.52-9.216 4.104-1.008.576-2.16 1.224-3.096 1.944-1.08.792-2.088 0-2.52-1.008-.432-1.08 0-2.304.936-2.88 5.472-3.888 12.528-6.336 19.008-7.992 7.343-1.872 15.047-2.951 22.607-3.599 3.456-.288 7.128-.504 10.584-.504 3.527 0 7.127.216 10.583.504 7.56.648 15.264 1.727 22.679 3.599 6.408 1.656 13.464 4.104 18.936 7.992zm-104.397 2.448c.216.432.504.864.936.576 1.008-.72 2.088-1.368 3.24-2.016 2.952-1.656 6.192-3.024 9.432-4.176 12.167-4.392 25.631-6.048 38.591-6.048 12.959 0 26.423 1.656 38.662 6.12 3.24 1.152 6.408 2.52 9.432 4.176 1.08.576 2.16 1.224 3.168 1.944.432.288.72-.144.936-.576.216-.576 0-1.224-.576-1.512l-.072-.072c-5.328-3.816-12.24-6.192-18.575-7.848-7.344-1.872-14.904-2.952-22.464-3.528-3.528-.288-6.984-.503-10.511-.503-3.528 0-6.984.215-10.512.503-7.488.576-15.12 1.656-22.463 3.528-6.336 1.656-13.248 4.032-18.576 7.848l-.072.072c-.576.288-.792.936-.576 1.512z" fill="#373435"/><path d="m124.063 41.183c-1.8 1.872-3.024 2.808-5.112 3.456 3.744.432 5.76.576 8.856 1.152-1.296-.864-2.664-2.448-3.744-4.608zm-1.44 2.808c.648.072 1.368.144 2.088.216-.288-.36-.648-.792-.864-1.296-.432.432-.864.792-1.224 1.08z" fill="#373435"/><path d="m88.496 41.183c1.8 1.872 3.024 2.808 5.04 3.456-3.672.432-5.688.576-8.856 1.152 1.368-.864 2.736-2.448 3.816-4.608zm1.44 2.808c-.648.072-1.368.144-2.088.216.288-.36.576-.792.864-1.296.432.432.864.792 1.224 1.08z" fill="#373435"/><path d="m62.577 48.31c1.296.864 2.736 1.44 4.32 1.512l-1.8.648c-.648-.144-1.44-.288-1.872-.576-.144.288-.432 1.08-.936 1.872l-1.944.792c1.08-1.08 1.8-2.448 2.232-4.248z" fill="#373435"/><path d="m149.91 48.31c-1.296.864-2.808 1.44-4.392 1.512l1.872.648c.576-.144 1.368-.288 1.872-.576.072.288.432 1.08.936 1.872l1.872.792c-1.08-1.08-1.8-2.448-2.16-4.248z" fill="#373435"/><path d="m74.169 39.671c1.944 3.312 3.887 4.968 7.271 6.624-3.6.576-7.415 1.439-10.943 2.447 2.592-2.951 3.384-5.543 3.672-9.071zm-1.08 7.271c1.8-.431 3.528-.791 5.327-1.151-1.44-.936-2.591-1.944-3.599-3.312-.36 1.656-.864 3.096-1.728 4.463z" fill="#373435"/><path d="m138.823 39.815c-2.016 3.24-3.96 4.968-7.344 6.552 3.6.647 7.416 1.511 10.943 2.447-2.52-2.879-3.311-5.543-3.599-8.999zm1.007 7.271c-1.727-.431-3.527-.863-5.255-1.223 1.368-.864 2.52-1.944 3.6-3.24.288 1.584.864 3.024 1.655 4.463z" fill="#373435"/><path d="m55.233 54.07c-1.224-.648-2.376-1.512-3.384-2.592l.432-1.08.36.36c1.08 1.224 2.52 2.088 3.96 2.808l.936.504c-1.368.936-2.592 1.512-3.6 2.448l-.432-1.08c.216-.288 1.08-.864 1.728-1.368z" fill="#373435"/><path d="m157.47 54.07c1.224-.648 2.376-1.512 3.384-2.592l-.432-1.08-.36.36c-1.08 1.224-2.448 2.088-3.888 2.808l-.936.504c1.368.648 2.52 1.656 3.528 2.448l.504-1.08c-.288-.216-1.08-.864-1.8-1.368z" fill="#373435"/><path d="m106.352 53.062c2.951 0 5.255 1.44 5.255 3.24 0 1.728-2.304 3.168-5.255 3.168-2.88 0-5.256-1.44-5.256-3.168 0-1.8 2.376-3.24 5.256-3.24z" fill="#e3363b"/><path d="m57.825 65.158c1.584-.792 3.312-.36 3.888.792.504 1.224-.36 2.808-1.944 3.528s-3.384.288-3.888-.864c-.576-1.224.288-2.736 1.944-3.456z" fill="#e3363b"/><path d="m155.238 65.158c-1.584-.792-3.384-.36-3.888.792-.576 1.224.288 2.808 1.944 3.528 1.584.72 3.312.288 3.888-.864.504-1.224-.36-2.736-1.944-3.456z" fill="#e3363b"/><path d="m106.352 62.926-12.528-6.48 12.528-6.768 12.527 6.768zm0-1.152 10.295-5.328-10.295-5.544-10.296 5.544z" fill="#373435"/><path d="m112.111 56.302c0 2.592-3.672 3.6-5.759 3.6-2.088 0-5.688-1.008-5.688-3.6 0-2.664 3.6-3.6 5.688-3.6 2.087 0 5.759.936 5.759 3.6zm-1.08 0c0-1.872-3.239-2.592-4.679-2.592s-4.68.72-4.68 2.592 3.24 2.52 4.68 2.52 4.679-.648 4.679-2.52z" fill="#373435"/><path d="m66.537 63.862-10.44-.504v-1.08l12.6.648-8.424 9.792-.792-.648z" fill="#373435"/><path d="m62.217 65.878c.576 1.728-1.008 3.456-2.52 4.032s-3.816.504-4.392-1.296 1.008-3.456 2.52-4.032c1.512-.648 3.816-.504 4.392 1.296zm-1.008.36c-.36-1.152-2.088-1.08-2.952-.72-.936.432-2.304 1.584-1.944 2.736s2.088 1.008 2.952.648c1.008-.36 2.304-1.512 1.944-2.664z" fill="#373435"/><path d="m146.382 63.934 10.44-.504-.072-1.008-12.6.576 8.424 9.864.864-.72z" fill="#373435"/><path d="m150.63 65.95c-.504 1.8 1.08 3.456 2.592 4.032 1.512.648 3.744.504 4.32-1.296.576-1.728-1.008-3.384-2.52-4.032-1.512-.576-3.744-.504-4.392 1.296zm1.008.36c.432-1.152 2.088-1.008 2.952-.648 1.008.36 2.304 1.512 1.944 2.664s-2.016 1.08-2.952.72c-.936-.432-2.304-1.584-1.944-2.736z" fill="#373435"/><path d="m106.352 37.079c1.872 0 3.455 1.512 3.455 3.384 0 1.944-1.583 3.456-3.455 3.456s-3.384-1.512-3.384-3.456c0-1.872 1.512-3.384 3.384-3.384zm0 1.008c1.296 0 2.375 1.08 2.375 2.376s-1.079 2.376-2.375 2.376-2.376-1.08-2.376-2.376 1.08-2.376 2.376-2.376z" fill="#373435"/><path d="m70.353 55.654 17.351-3.6 1.296 10.944-16.559 3.096zm1.224.792 1.728 8.424 14.471-2.736-1.008-8.784z" fill="#373435"/><path d="m74.025 57.598 1.08 5.256 10.583-1.944-.936-5.256z" fill="#0965af"/><path d="m73.161 57.238 12.023-2.448 1.152 6.48-12.023 2.232zm1.224.792.792 4.248 9.935-1.872-.72-4.392z" fill="#373435"/><path d="m74.313 57.742 5.111.936 4.896-2.88.504.936-3.816 2.232 4.32.792-.216 1.008-5.472-.936-4.607 2.736-.576-.864 3.599-2.16-3.959-.72z" fill="#373435"/><path d="m142.422 55.654-17.279-3.6-1.296 10.944 16.487 3.096zm-1.224.792-1.656 8.424-14.543-2.736 1.08-8.784z" fill="#373435"/><path d="m138.751 57.598-1.008 5.256-10.584-1.944.936-5.256z" fill="#0965af"/><path d="m139.686 57.238-12.095-2.448-1.08 6.48 12.024 2.232zm-1.223.792-.792 4.248-10.008-1.872.792-4.392z" fill="#373435"/><path d="m138.535 57.742-5.184.936-4.824-2.88-.504.936 3.744 2.232-4.248.792.144 1.008 5.544-.936 4.608 2.736.504-.864-3.6-2.16 4.032-.72z" fill="#373435"/><path d="m110.815 19.295-4.463-4.319-4.392 4.319 4.392 4.464z" fill="#0965af"/><path d="m111.607 19.295-5.255 5.256-5.256-5.256 5.256-5.255zm-1.512 0-3.743-3.815-3.744 3.815 3.744 3.744z" fill="#373435"/><path d="m46.449 40.391.648-2.448-2.447-.72-.576 2.592z" fill="#0965af"/><path d="m46.953 41.327-3.815-1.08 1.008-3.816 3.815 1.008zm-.72-1.296.504-1.8-1.871-.504-.432 1.8z" fill="#373435"/><path d="m73.449 28.007-3.096-1.512-1.584 2.952 3.096 1.656z" fill="#e3363b"/><path d="m74.385 27.719-2.16 4.32-4.392-2.16 2.232-4.392zm-1.368.432-2.52-1.224-1.224 2.448 2.448 1.296z" fill="#373435"/><path d="m63.369 42.983c0-1.584-1.224-2.808-2.808-2.808-1.512 0-2.736 1.224-2.736 2.808 0 1.512 1.224 2.736 2.736 2.736 1.584 0 2.808-1.224 2.808-2.736z" fill="#e3363b"/><path d="m64.017 42.983c0 1.872-1.584 3.456-3.456 3.456s-3.456-1.584-3.456-3.456 1.584-3.384 3.456-3.384 3.456 1.512 3.456 3.384zm-1.08 0c0-1.296-1.08-2.376-2.376-2.376s-2.376 1.08-2.376 2.376 1.08 2.376 2.376 2.376 2.376-1.08 2.376-2.376z" fill="#373435"/><path d="m90.512 36.287c0-1.512-1.296-2.736-2.808-2.736s-2.808 1.224-2.808 2.736c0 1.584 1.296 2.808 2.808 2.808s2.808-1.224 2.808-2.808z" fill="#e3363b"/><path d="m91.088 36.359c0 1.872-1.512 3.384-3.384 3.384-1.944 0-3.456-1.512-3.456-3.384 0-1.944 1.512-3.456 3.456-3.456 1.872 0 3.384 1.512 3.384 3.456zm-1.008 0c0-1.368-1.08-2.376-2.376-2.376-1.368 0-2.376 1.008-2.376 2.376 0 1.296 1.008 2.376 2.376 2.376 1.296 0 2.376-1.08 2.376-2.376z" fill="#373435"/><path d="m127.879 36.287c0-1.512-1.296-2.736-2.808-2.736s-2.808 1.224-2.808 2.736c0 1.584 1.296 2.808 2.808 2.808s2.808-1.224 2.808-2.808z" fill="#e3363b"/><path d="m128.455 36.359c0 1.872-1.512 3.384-3.384 3.384-1.944 0-3.456-1.512-3.456-3.384 0-1.944 1.512-3.456 3.456-3.456 1.872 0 3.384 1.512 3.384 3.456zm-1.08 0c0-1.368-1.008-2.376-2.304-2.376-1.368 0-2.376 1.008-2.376 2.376 0 1.296 1.008 2.376 2.376 2.376 1.296 0 2.304-1.08 2.304-2.376z" fill="#373435"/><path d="m166.254 40.535-.576-2.448 2.448-.792.576 2.592z" fill="#0965af"/><path d="m165.75 41.399 3.888-1.008-1.08-3.888-3.816 1.008zm.72-1.296-.432-1.8 1.8-.504.504 1.8z" fill="#373435"/><path d="m139.255 28.079 3.095-1.44 1.584 2.88-3.024 1.656z" fill="#e3363b"/><path d="m138.319 27.791 2.231 4.392 4.32-2.232-2.232-4.32zm1.367.504 2.52-1.296 1.224 2.52-2.448 1.224z" fill="#373435"/><path d="m149.334 43.055c0-1.512 1.296-2.808 2.808-2.808s2.808 1.296 2.808 2.808-1.296 2.808-2.808 2.808-2.808-1.296-2.808-2.808z" fill="#e3363b"/><g fill="#373435"><path d="m148.758 43.055c0 1.944 1.512 3.456 3.384 3.456 1.944 0 3.456-1.512 3.456-3.456 0-1.872-1.512-3.384-3.456-3.384-1.872 0-3.384 1.512-3.384 3.384zm1.008 0c0-1.296 1.08-2.376 2.376-2.376s2.376 1.08 2.376 2.376c0 1.368-1.08 2.376-2.376 2.376s-2.376-1.008-2.376-2.376z"/><path d="m104.48 34.055h3.744c-.576-1.728-.648-3.168-.792-5.04l1.007-.072c.216 2.304.432 4.032 1.368 6.192h-6.767c.72-2.16 1.224-3.888 1.296-6.192l1.008.072c-.072 1.872-.288 3.24-.864 5.04z"/><path d="m97.712 19.655 2.664 1.728-.648.864-3.888-2.592 3.816-2.736.648.864z"/><path d="m114.919 19.655-2.592 1.728.576.864 3.888-2.592-3.816-2.736-.576.864z"/><path d="m136.303 27.431 2.088-.36-.216-1.08-4.032.72 2.952 3.024.72-.72z"/><path d="m146.814 31.175-1.656.144.144 1.08 3.888-.432-2.952-2.736-.72.72z"/><path d="m76.473 27.431-2.088-.36.144-1.08 4.031.72-2.879 3.024-.792-.72z"/><path d="m65.961 31.175 1.656.144-.144 1.08-3.888-.432 2.952-2.736.72.72z"/><path d="m50.481 37.295h-1.44v-1.08h3.312l-1.944 3.168-.864-.576z"/><path d="m162.222 37.223h1.512v-1.08h-3.384l1.944 3.168.936-.576z"/></g><path d="m13.979 93.381c-3.024 13.68-5.328 27.359-5.472 41.471-.216 26.783 5.975 52.99 19.079 76.461 10.512 18.864 24.767 34.631 41.255 47.879v-163.075c-3.456 1.008-6.984 1.8-10.656 2.376-15.263 2.304-30.095.216-44.206-5.112zm41.254 72.43h-12.023c-1.872-2.88-3.456-5.256-4.896-7.2-1.512-1.944-3.384-4.32-5.616-7.272h-1.08v9.864c0 .504.072.936.216 1.296.216.36.576.72 1.152.936.216.144.648.216 1.152.36s1.008.216 1.512.288v1.728h-16.2v-1.728c.432-.072.936-.072 1.656-.144s1.224-.144 1.512-.288c.504-.216.864-.504 1.08-.864s.288-.792.288-1.368v-22.175c0-.504-.072-.936-.288-1.296-.144-.36-.504-.648-1.08-.936-.432-.216-1.008-.36-1.584-.504-.648-.144-1.152-.216-1.584-.288v-1.656h16.704v1.656c-.432.072-.936.144-1.584.216s-1.152.216-1.584.36c-.576.144-.936.504-1.152.864-.144.432-.216.864-.216 1.368v10.583h.864c1.08-1.08 2.376-2.304 3.888-3.816 1.512-1.44 2.664-2.664 3.456-3.6 1.152-1.296 1.944-2.303 2.52-3.095.504-.792.792-1.44.792-2.016 0-.216-.288-.432-.792-.576-.504-.072-1.296-.216-2.304-.288v-1.656h13.175v1.656c-1.584.216-2.952.504-4.032.936s-2.16 1.08-3.24 2.088c-1.511 1.44-2.735 2.663-3.743 3.671s-2.304 2.376-3.816 3.96c1.368 1.728 3.024 3.816 4.896 6.336 1.944 2.448 3.887 4.896 5.759 7.272.504.576 1.08 1.152 1.728 1.728.576.576 1.296 1.008 2.016 1.296.36.216.792.288 1.224.432.504.072.864.144 1.224.144zm129.02-14.328c.936.576 1.656 1.44 2.232 2.376.576 1.008.864 2.16.864 3.456 0 1.584-.36 2.952-1.008 4.032s-1.584 1.944-2.736 2.592c-1.296.648-2.808 1.152-4.464 1.44s-3.672.432-5.904.432h-15.767v-1.728c.432-.072.936-.144 1.656-.216.648-.072 1.152-.216 1.368-.288.576-.216.936-.504 1.08-.864.216-.36.288-.864.288-1.44v-22.031c0-.504-.072-.936-.216-1.296s-.504-.648-1.152-.936c-.432-.216-.936-.36-1.512-.432-.576-.144-1.08-.288-1.512-.36v-1.656h16.487c4.104 0 7.128.576 9 1.728 1.8 1.152 2.736 2.88 2.736 5.183 0 1.08-.216 2.016-.648 2.808-.36.792-1.008 1.512-1.728 2.088-.72.504-1.584 1.008-2.52 1.368-.936.432-2.016.72-3.096 1.008v.432c1.08.144 2.232.36 3.456.792 1.152.36 2.232.864 3.096 1.512zm-6.912-9.432c0-1.727-.432-3.095-1.368-4.031-1.008-1.008-2.376-1.512-4.32-1.512-.288 0-.576.072-1.007.072-.432 0-.864 0-1.152.072v11.591h1.08c2.375 0 4.031-.576 5.111-1.728 1.152-1.08 1.656-2.592 1.656-4.464zm1.512 14.976c0-2.16-.648-3.816-1.872-4.968s-3.024-1.728-5.4-1.728h-1.079c-.432 0-.792.072-1.008.072v11.448c.144.504.504.936 1.224 1.368.647.36 1.439.504 2.447.504 1.656 0 3.024-.576 4.104-1.728s1.584-2.808 1.584-4.968zm-34.991 102.165c16.488-13.248 30.743-29.015 41.255-47.879 13.104-23.471 19.295-49.678 19.079-76.461-.072-14.112-2.447-27.791-5.471-41.471-14.112 5.328-28.943 7.416-44.207 5.112-3.672-.576-7.2-1.368-10.656-2.376z" fill="#3264ad"/><path d="m68.841 259.192c11.591 9.215 24.191 17.207 37.511 24.047 13.319-6.84 25.991-14.832 37.51-24.047v-163.075c-14.255-4.104-26.639-11.808-37.51-22.175-10.872 10.367-23.256 18.071-37.511 22.175zm37.511-62.422c15.983 0 28.943 12.959 28.943 28.943 0 15.983-12.96 29.015-28.943 29.015-15.984 0-28.944-13.032-28.944-29.015 0-15.984 12.96-28.943 28.944-28.943zm1.584-30.167c-1.8 0-3.528-.216-5.184-.72-1.584-.432-2.952-1.008-4.032-1.656l-1.512 1.584h-1.8l-.288-11.304h1.872c.36 1.08.936 2.16 1.584 3.384.648 1.152 1.368 2.232 2.232 3.168.864 1.008 1.8 1.8 2.88 2.376 1.08.648 2.376.936 3.816.936 1.943 0 3.383-.504 4.463-1.44 1.008-1.008 1.512-2.232 1.512-3.672 0-1.224-.432-2.232-1.296-3.096-.864-.792-2.232-1.512-4.103-2.16-1.152-.36-2.304-.72-3.312-1.08s-1.944-.72-2.808-1.008c-2.016-.864-3.6-2.088-4.536-3.6-1.008-1.584-1.512-3.312-1.512-5.256 0-1.224.288-2.375.792-3.527.504-1.08 1.224-2.088 2.232-3.024.936-.792 2.16-1.512 3.6-2.016 1.512-.504 3.096-.792 4.824-.792 1.655 0 3.239.216 4.751.72 1.44.504 2.592.936 3.456 1.44l1.296-1.296h1.872l.144 10.655h-1.8c-.432-1.152-.936-2.376-1.512-3.528-.576-1.223-1.224-2.231-1.872-3.023-.72-.792-1.512-1.512-2.448-2.016-.864-.504-1.944-.72-3.167-.72-1.512 0-2.808.432-3.816 1.296-.936.936-1.44 2.016-1.44 3.312 0 1.295.432 2.303 1.296 3.095s2.16 1.512 3.96 2.088c1.079.36 2.159.72 3.239 1.08s2.088.72 2.952 1.08c2.016.792 3.6 1.944 4.68 3.384s1.656 3.24 1.656 5.4c0 1.368-.36 2.664-.936 3.888-.648 1.296-1.44 2.304-2.52 3.168-1.152.936-2.448 1.656-3.96 2.16s-3.24.72-5.255.72z" fill="#f9eb57"/><path d="m9.731 82.437c14.975 6.912 30.743 10.152 47.158 7.632 17.64-2.664 32.255-11.16 44.711-23.399 5.904-.144 7.991.144 9.791.36 12.456 12.023 27 20.375 44.423 23.039 16.415 2.52 32.255-.72 47.158-7.632l1.8-.792.432 1.872c3.96 16.992 7.344 33.695 7.488 51.263.216 28.295-6.336 55.87-20.159 80.637-19.08 34.271-49.607 58.894-84.309 76.39l-1.872.936-1.872-.936c-34.631-17.496-65.23-42.119-84.31-76.39-13.823-24.767-20.375-52.342-20.159-80.637.144-17.568 3.528-34.271 7.488-51.263l.432-1.872zm134.995 15.624v158.395c15.552-12.816 29.015-27.935 39.023-45.935 12.96-23.183 19.079-49.174 18.863-75.669-.072-13.32-2.231-26.351-5.039-39.311-13.968 4.968-28.511 6.768-43.271 4.536-3.24-.504-6.48-1.224-9.576-2.016zm-1.584 159.691v-160.195c-13.823-4.032-25.991-11.448-36.79-21.455-10.728 10.007-22.896 17.423-36.719 21.455v160.195c11.303 9.071 23.687 16.919 36.719 23.687 13.031-6.768 25.487-14.616 36.79-23.687zm-75.093-1.296v-158.467c-3.096.864-6.336 1.584-9.648 2.088-14.759 2.232-29.303.432-43.271-4.536-2.807 12.96-4.895 25.991-5.039 39.311-.216 26.495 5.903 52.486 18.863 75.669 10.08 18 23.543 33.191 39.095 45.935z" fill="#373435"/><path d="m9.083 83.877c17.927 8.352 33.839 10.008 48.022 7.776 17.28-2.664 32.615-10.8 46.439-24.623h5.615c13.824 13.823 29.16 21.959 46.439 24.623 14.184 2.232 30.095.576 48.022-7.776 3.24 13.824 7.344 31.823 7.488 50.903.432 48.166-19.079 112.964-103.604 155.587l-1.152.576-1.152-.576c-84.526-42.623-104.037-107.421-103.605-155.587.144-19.08 4.248-37.079 7.488-50.903zm4.896 9.504c-3.024 13.68-5.328 27.359-5.472 41.471-.216 26.783 5.975 52.99 19.079 76.461 17.928 32.039 46.439 55.294 78.766 71.926 32.327-16.632 60.838-39.887 78.765-71.926 13.104-23.471 19.295-49.678 19.079-76.461-.072-14.112-2.447-27.791-5.471-41.471-14.112 5.328-28.943 7.416-44.207 5.112-18.791-2.88-34.631-11.736-48.166-24.551-13.536 12.815-29.304 21.671-48.167 24.551-15.263 2.304-30.095.216-44.206-5.112z" fill="#f9eb57"/><path d="m106.352 195.978c16.415 0 29.735 13.319 29.735 29.735 0 16.487-13.32 29.807-29.735 29.807-16.416 0-29.735-13.32-29.735-29.807 0-16.416 13.319-29.735 29.735-29.735zm19.799 23.903-9.72 3.168-3.528 10.8 6.048 8.279c2.664-.144 4.896-.792 6.984-1.8 2.952-4.032 4.752-8.999 4.824-14.399-1.224-2.304-2.736-4.392-4.608-6.048zm-10.08 2.16 9.792-3.168c.648-2.592.72-4.968.432-7.2-2.952-4.248-7.2-7.416-12.168-9.071-2.664.432-5.04 1.223-7.271 2.519v10.224zm2.016 20.735-6.048-8.279h-11.375l-6.048 8.279c1.008 2.448 2.304 4.464 3.96 6.12 2.448.792 5.04 1.224 7.776 1.224 2.591 0 5.039-.36 7.343-1.08 1.872-1.944 3.312-3.96 4.392-6.264zm-24.263-.648 5.976-8.279-3.528-10.8-9.72-3.168c-2.088 1.656-3.528 3.528-4.608 5.544v.288c0 5.328 1.728 10.223 4.536 14.183 2.376 1.152 4.824 1.944 7.344 2.232zm-6.912-23.255 9.72 3.168 9.216-6.696v-10.296c-2.232-1.44-4.536-2.231-6.768-2.591-4.968 1.511-9.288 4.679-12.312 8.783-.36 2.592-.432 5.112.144 7.632zm44.855 7.92c1.152-.576 2.376-1.368 3.24-2.304 0 .432.072.864.072 1.224 0 6.768-2.376 13.031-6.264 17.927-.216-1.368-.72-2.664-1.224-3.816 2.448-3.744 4.032-8.207 4.176-13.031zm-1.44-16.848c-1.368-.216-2.736-.216-4.032-.072-2.88-3.6-6.696-6.336-11.088-7.991-.216-1.224-.576-2.664-1.152-3.816 6.696 1.872 12.456 6.191 16.272 11.879zm-17.136 40.319c.936.864 2.088 1.8 3.24 2.376-3.168 1.152-6.552 1.8-10.079 1.8-3.528 0-6.912-.648-10.08-1.8 1.224-.648 2.304-1.512 3.24-2.376 2.16.648 4.464.936 6.84.936 2.375 0 4.679-.36 6.839-.936zm-28.007-10.44c-.576 1.08-1.08 2.52-1.296 3.744-3.888-4.896-6.192-11.087-6.192-17.855v-1.296c.936 1.008 2.088 1.8 3.24 2.448.216 4.752 1.728 9.215 4.248 12.959zm1.224-29.879c-1.224-.216-2.664-.288-3.96-.072 3.744-5.688 9.504-9.935 16.272-11.807-.648 1.224-1.008 2.52-1.296 3.816-4.32 1.655-8.136 4.463-11.016 8.063z" fill="#373435"/></g></svg>