<svg clip-rule="evenodd" fill-rule="evenodd" stroke-linejoin="round" stroke-miterlimit="2" viewBox="0 0 560 400" xmlns="http://www.w3.org/2000/svg"><g fill-rule="nonzero" transform="matrix(.761421 0 0 .761421 1.89086 -7.25888)"><path d="m164 222.8v-4.2c0-3-2.4-5.5-5.5-5.5h-13.8c-3 0-5.5 2.5-5.5 5.5v3h-56.1c-7.2 0-17.9 4.8-17.9 17.9v73.9c0 7.2 4.8 17.9 17.9 17.9h73.9c7.2 0 17.9-4.8 17.9-17.9v-73.9c0-5.8-3-13.7-10.9-16.7" fill="#ff2636"/><path d="m155.2 273.1h-9c-1.8 0-3.3 1.5-3.3 3.3s1.5 3.3 3.3 3.3h9c1.8.1 3.3-1.4 3.4-3.2s-1.4-3.3-3.2-3.4zm-14.3-5.9c.7 1.7 2.7 2.4 4.3 1.7l8.3-3.7c1.7-.7 2.4-2.6 1.7-4.3s-2.6-2.4-4.3-1.7h-.1l-8.3 3.7c-1.6.7-2.3 2.6-1.6 4.3m-1-8 6.1-6.7c1.2-1.3 1.1-3.4-.2-4.6s-3.4-1.1-4.6.2l-6.1 6.7c-1.2 1.3-1.1 3.4.2 4.6 1.4 1.3 3.4 1.2 4.6-.2m-8.7 41c-.6-1.7-2.4-2.7-4.1-2.1-2.2.7-4.6 1.1-7 1.1-12.6 0-22.8-10.2-22.8-22.8s10.2-22.8 22.8-22.8c2.4 0 4.8.4 7 1.1 1.7.6 3.6-.4 4.1-2.1l2.8-8.6c.6-1.7-.4-3.6-2.1-4.1-3.8-1.2-7.8-1.9-11.9-1.9-21.2 0-38.4 17.2-38.4 38.4s17.2 38.4 38.4 38.4c4.1 0 8.1-.7 11.9-1.9 1.7-.6 2.7-2.4 2.1-4.1zm8.7-6.6c-1.2-1.3-3.3-1.4-4.6-.1-1.3 1.2-1.4 3.2-.2 4.5l6.1 6.7c1.2 1.3 3.3 1.4 4.6.1 1.3-1.2 1.4-3.2.2-4.5zm13.6-5.9-8.3-3.7c-1.7-.7-3.6.1-4.3 1.8-.7 1.6 0 3.5 1.6 4.2l8.3 3.7c1.7.7 3.6-.1 4.3-1.8.7-1.6 0-3.4-1.6-4.2" fill="#fffffe"/><path d="m654.7 309.3c-2.5 0-4.5-1.9-4.5-4.2v-79.5c0-2.4 1.9-4.2 4.5-4.2h6.1c2.5 0 4.5 1.9 4.5 4.2v79.5c0 2.3-2.1 4.2-4.5 4.2zm-258.5-52.2c-5.2 0-9.7 1.8-13.3 5.5-3.5 3.5-5.3 8-5.3 13.3s1.8 9.8 5.3 13.3c3.6 3.6 8.1 5.5 13.3 5.5 5.1 0 9.6-1.8 13.2-5.5 3.6-3.6 5.5-8.1 5.5-13.3s-1.8-9.7-5.5-13.3c-3.6-3.6-8.1-5.5-13.2-5.5zm0 52.3c-9.4 0-17.4-3.3-24-9.7-6.4-6.4-9.7-14.4-9.7-23.7 0-9.4 3.3-17.3 9.7-23.6 6.6-6.4 14.6-9.7 24-9.7s17.4 3.3 23.9 9.7c6.5 6.2 9.8 14.2 9.8 23.6 0 9.5-3.2 17.3-9.8 23.7-6.5 6.4-14.5 9.7-23.9 9.7zm68.5 0c-7.7 0-14-2.5-18.9-7.3-5-5-7.5-11.4-7.5-19.2v-33.6c0-2.6 1.9-4.5 4.5-4.5h6.1c2.5 0 4.5 2 4.5 4.5v33.9c0 6.9 4.6 11.5 11.4 11.5 6.9 0 11.5-4.6 11.5-11.5v-33.9c0-2.6 1.9-4.5 4.5-4.5h6.1c2.5 0 4.5 2 4.5 4.5v33.6c0 7.8-2.5 14.2-7.5 19.2-5.1 4.8-11.5 7.3-19.2 7.3m56 0c-8 0-14.9-2.8-20.3-8.2-2.2-2.2-2.3-4.6-.3-6.9l1.4-1.5c1.2-1.4 2.5-2.1 3.9-2.1 1.2 0 2.3.5 3.5 1.5 3.9 3.2 7.8 4.8 11.6 4.8 4.5 0 7.2-2.5 7.2-6.4 0-3.7-2.6-6-10.5-9.5-11.6-4.7-17.5-11.5-17.5-20.1 0-10.6 9-18.3 21.4-18.3 5.9 0 11.1 1.5 15.9 4.5 1.2.8 1.9 1.9 2.1 3.2.2 1.4-.2 2.9-1.1 4.1l-1.2 1.7c-1.1 1.5-2.4 2.3-3.9 2.3-.9 0-1.8-.3-2.8-.9-3-1.8-5.8-2.7-8.4-2.7-4.8 0-7.5 2-7.5 5.6 0 3.2 3.2 6 9.7 8.7 12.8 5.5 18.3 11.7 18.3 20.7 0 5.6-2.1 10.3-6.1 14s-9 5.5-15.4 5.5m106.4-.1c-2.5 0-4.5-1.9-4.5-4.2v-79.5c0-2.4 1.9-4.2 4.5-4.2h6.1c2.5 0 4.5 1.9 4.5 4.2v79.5c0 2.3-2 4.2-4.5 4.2zm-264.9-63.5c-.1-.1-.3-.1-.5-.2-2.2-1.2-4.7-1.8-7.4-1.8-5.5 0-10.1 2.6-13.7 7.7 0 0-1 1.2-1 0v-2.6c0-1-.4-1.9-1.2-2.7s-1.7-1.2-2.7-1.2h-7.1c-1 0-1.9.4-2.7 1.1s-1.2 1.6-1.2 2.6v56.7c0 1.1.4 2 1.2 2.8.8.7 1.7 1.1 2.7 1.1h7.3c1 0 2-.3 2.7-1 .8-.8 1.2-1.7 1.2-2.9v-28.8c0-5.8 1.2-10.4 3.7-13.9s5.5-5.2 9-5.2c.9 0 1.8.1 2.8.4 1.2.3 2.5-.3 3.1-1.4l4.3-8.2c.9-.9.5-2.1-.5-2.5m-99.9 30.2c0 5.3 1.8 9.7 5.3 13.2 3.6 3.6 8.1 5.4 13.3 5.4 5.1 0 9.5-1.8 13.2-5.4 3.6-3.6 5.4-8 5.4-13.2 0-5.3-1.8-9.7-5.4-13.4-3.6-3.6-8-5.4-13.2-5.4s-9.7 1.8-13.3 5.4c-3.5 3.6-5.3 8.1-5.3 13.4h-.7zm16.5 33.4c-8.9 0-16.5-3.3-22.5-9.7-6-6.5-9.1-14.4-9.1-23.6 0-9.4 3.3-17.4 9.7-23.7 6.6-6.4 14.6-9.7 24-9.7s17.4 3.3 23.9 9.7c6.5 6.2 9.8 14.2 9.8 23.6v28.9c0 2.4-2.1 4.5-4.5 4.5h-5.1c-2.6 0-4.4-1.7-4.4-4.6l-.2-5.4c0-.1-.1-.4-.4-.4-.2 0-.5.1-.8.5-4.8 6.5-11.7 9.9-20.4 9.9zm302.5-53.6c-7.9 0-13.5 3.7-16.5 10.9-.1.2-.1.4 0 .5.1.2.3.3.6.3h31.8c.4 0 .6-.1.6-.1 0-.1.1-.3-.1-.7-3-7.4-8.4-10.9-16.4-10.9zm.4 53.6c-9.4 0-17.4-3.3-24-9.7-6.4-6.4-9.7-14.4-9.7-23.7s3.2-17.2 9.6-23.6 14.4-9.7 23.7-9.7 17.2 3.1 23.3 9.3c6.2 6.1 9.4 13.6 9.4 22.3 0 2.7-2.1 4.6-5 4.6h-45c-.2 0-.4 0-.5.1s-.1.4-.1.8c.7 4.2 2.6 7.8 6 10.9 3.4 2.9 7.6 4.4 12.3 4.4 5.8 0 10.6-2.2 14.6-6.7 1.1-1.3 2.5-2 4-2 .9 0 1.9.3 2.9.8l3.8 1.8c1.5.7 2.5 1.9 2.7 3.2.2 1.2-.1 2.4-1 3.4-6.5 9.1-15.7 13.8-27 13.8zm-354.4-1.2c.2 0 .5.1.7.1-.2 0-.5-.1-.7-.1zm-1.3-.2c.1 0 .2 0 .3.1-.1 0-.2 0-.3-.1zm5.4.5h-.5zm3-64.8h-.3zm4.2 50.5h-.2.2c-.1 0 0 0 0 0zm5.9 8.9-2.5-7.3c-.5-1.5-1.9-2.5-3.5-2.5-.4 0-.8.1-1.2.2-1.9.6-3.9.9-5.9.9-5.1 0-10-1.9-13.6-5.4s-5.6-8.1-5.6-13c0-10.2 8.6-18.5 19.2-18.5 2 0 4 .3 5.9.9.4.1.8.2 1.1.2 1.6 0 3-1 3.5-2.5l2.5-7.3c.3-.9.2-1.9-.2-2.7-.4-.9-1.2-1.5-2.2-1.8-3.4-1.1-7-1.6-10.7-1.6-19 0-34.5 14.9-34.5 33.3 0 18.3 15.5 33.3 34.5 33.3 3.6 0 7.2-.6 10.7-1.6.9-.3 1.7-.9 2.1-1.8.6-.9.7-1.9.4-2.8z" fill="#686968"/></g></svg>