<svg clip-rule="evenodd" fill-rule="evenodd" stroke-linejoin="round" stroke-miterlimit="2" viewBox="0 0 560 400" xmlns="http://www.w3.org/2000/svg"><g fill-rule="nonzero" transform="matrix(.176254 0 0 .176254 29.5183 173.645)"><path d="m2674.9 4.957-1.27 2.772c-5.78 12.606-126.07 284.291-126.07 284.734 0 .317 9.49.455 21.08.307l21.1-.27 15.86-36.5 15.86-36.5h144.35l5.22 12c2.87 6.6 10.07 23.138 16 36.75l10.77 24.75h20.88c11.48 0 20.88-.337 20.87-.75 0-.412-28.54-65.1-63.42-143.75l-63.42-143-18.91-.271zm18.48 48.873c.49-.488 49.93 112.251 55.39 126.32.7 1.786-1.2 1.85-55.21 1.85h-55.93l1.84-4.25c1.02-2.337 13.41-31.025 27.54-63.75s25.99-59.802 26.37-60.17z" fill="#e71a3b"/><path d="m1925.06 5.037-63 142.117c-34.65 78.165-63.33 142.958-63.72 143.983-.69 1.783.2 1.862 20.5 1.842l21.22-.022 16-36.978 16-36.979 144 .008 16 36.984 16 36.983 21.2.014 21.2.011-1.23-2.918c-.67-1.604-29.34-66.39-63.7-143.968l-62.47-141.053-19-.012zm18.31 49.754c1.41-.289 5.61 9.064 27.96 60.863 14.91 34.566 27.41 63.634 27.78 64.596.63 1.654-2.4 1.75-54.95 1.75-30.58 0-55.6-.264-55.6-.588 0-.686 52.64-122.775 54.44-126.258.11-.2.22-.333.37-.363z" fill="#e71a3b"/><path d="m426.022 4.975-60.176 142.261c-33.096 78.245-60.472 143.052-60.838 144.014-.626 1.648 1.557 1.75 37.313 1.75h37.978l9.379-24.5 9.379-24.5 121.961.5 9.519 24.244 9.52 24.246 37.75.006c20.762.003 37.75-.341 37.75-.763 0-.423-27.124-65.11-60.276-143.75l-60.275-142.983-34.492-.264zm34.072 83.279c.469.587 36.463 93.432 36.463 94.055 0 .942-72.995.883-73.02-.059-.025-.951 36.291-94.328 36.557-93.996z" fill="#0032c5"/><path d="m2458.56 293v-286h40v286z" fill="#e71a3b"/><path d="m2140.56 293v-286h38.98l.26 63.25.26 63.25 158.5.512v-127.012h40v286h-40v-123h-159v123z" fill="#e71a3b"/><path d="m1531.56 7v286.125l75.75-.41c66-.358 76.84-.63 84.25-2.104 25.69-5.111 43.55-13.961 57.01-28.252 14.2-15.086 20.63-35.313 18.08-56.923-2.79-23.651-14.98-41.973-34.66-52.106-7.85-4.041-10.7-5.124-19.4-7.369l-4.46-1.154 6.96-3.254c24.4-11.398 37.8-33.188 37.86-61.553.04-22.131-7.5-39.163-23.17-52.303-6.79-5.696-20.95-12.95-30.72-15.738-16.63-4.742-20.68-4.951-96.25-4.955zm40 33.809 48.75.468c54.03.519 57.09.831 70.94 7.223 14.59 6.731 23.01 18.348 24.02 33.148 1.55 22.75-10.89 38.94-35.72 46.487-7.29 2.217-8.82 2.287-57.74 2.623l-50.25.344zm0 126.084 56.25.355c62.9.397 61.49.255 77.36 7.815 21.27 10.129 28.72 31.673 18.5 53.515-5.71 12.189-18.69 21.614-36.67 26.613-7.65 2.129-9.9 2.224-61.69 2.573l-53.75.361z" fill="#e71a3b"/><g fill="#0032c5"><path d="m1018.89 4.975-60.126 142.261c-33.072 78.245-60.42 143.052-60.775 144.014-.608 1.647 1.581 1.75 37.275 1.75h37.92l9.435-24.508 9.438-24.508 60.943.258 60.95.258 19.05 48.5h37.78c20.78 0 37.77-.337 37.76-.75-.02-.412-27.16-65.1-60.33-143.75l-60.3-143-34.51-.264zm33.93 83.433c.19-.179 33.81 85.762 36.33 92.842.58 1.646-1.58 1.75-36.55 1.75-20.44 0-36.95-.337-36.7-.75.26-.412 8.62-21.646 18.58-47.184s18.21-46.533 18.34-46.658z"/><path d="m1331.56 297.879c-38.88-4.467-71.04-21.389-89.24-46.951-9.13-12.808-16.88-32.837-18.38-47.465l-.66-6.489 35.75.263 35.75.263 1.72 5.5c2.48 7.953 4.67 11.713 10.3 17.664 9.48 10.02 21.41 15.451 38.34 17.447 21.71 2.561 41.56-3.841 47.6-15.353 2.72-5.186 2.99-14.659.55-19.333-2.5-4.79-8.91-9.974-15.29-12.361-3.2-1.197-20.42-5.328-38.27-9.179-17.84-3.852-36.03-8.135-40.4-9.518-28.6-9.035-47.62-23.033-56.81-41.817-5.39-11.001-7.01-17.902-7.65-32.55-2.19-49.617 29.53-85.45 84.69-95.676 13.2-2.448 44.69-2.459 58-.02 15.24 2.794 26.73 6.417 38.5 12.151 12.68 6.178 21.46 12.524 30.1 21.776 13.64 14.596 20.42 29.782 24.79 55.519l.56 3.25h-71.81l-1.66-5.707c-2.49-8.577-6.12-15.02-11.43-20.333-8.51-8.517-18.36-11.96-34.21-11.96-16 0-26.89 3.381-34.1 10.589-4.91 4.915-7.05 9.757-7.55 17.078-.77 11.393 4.94 19.565 17.33 24.796 2.19.923 19.28 5.251 37.98 9.616 45.14 10.539 57.64 14.743 72.6 24.419 23.69 15.323 33.94 36.225 32.62 66.47-1.37 31.251-15.8 55.169-42.9 71.106-24.03 14.137-62.28 20.774-96.82 16.805z"/><path d="m738.557 297.946c-46.099-5.713-80.581-27.187-97.37-60.639-4.953-9.869-10.63-29.835-10.63-37.385v-2.947l71.09.525 2.308 6.607c6.765 19.361 23.606 31.212 48.26 33.961 15.495 1.728 31.093-.987 39.828-6.933 13.282-9.04 13.638-27.565.695-36.138-6.75-4.471-10.244-5.472-45.53-13.047-18.067-3.879-37.488-8.572-43.159-10.43-27.35-8.959-45.318-22.461-54.412-40.889-5.143-10.42-7.019-18.335-7.736-32.631-1.641-32.714 11.892-59.991 38.642-77.883 29.594-19.795 75.697-25.503 118.428-14.664 32.832 8.329 58.594 28.439 70.736 55.219 3.179 7.009 7.114 21.21 8.197 29.578l.615 4.75h-71.82l-1.659-5.707c-6.43-22.118-20.813-32.293-45.644-32.293-15.685 0-25.312 2.818-32.831 9.612-6.386 5.768-8.458 10.503-8.485 19.388-.028 9.005 2.461 14.26 8.876 18.738 7.736 5.401 9.588 5.968 49.686 15.224 41.911 9.674 54.943 14.215 70.503 24.568 14.832 9.869 24.623 23.14 29.121 39.47 2.555 9.273 2.499 34.661-.097 44.5-9.436 35.756-39.641 60.022-84.612 67.976-11.207 1.982-41.982 2.836-53 1.47z"/><path d="m135.232 298.01c-81.824-10.298-135.984-73.947-132.325-155.51 1.706-38.011 15.292-70.651 40.111-96.365 12.436-12.884 23.521-20.955 40.039-29.152 19.801-9.826 35.842-14.147 59.082-15.913 65.938-5.011 122.704 27.747 145.873 84.182 3.536 8.613 9.08 27.546 8.296 28.33-.387.387-68.213 11.405-70.264 11.414-.557.002-1.88-3.033-2.94-6.746-7.119-24.933-25.217-42.981-49.047-48.911-10.351-2.575-31.43-2.332-41.787.482-27.614 7.503-47.714 28.697-54.891 57.878-2.783 11.312-3.016 32.245-.476 42.654 4.028 16.504 10.827 28.97 21.622 39.647 11.275 11.152 22.922 17.367 38.632 20.616 9.505 1.966 29.95 1.446 38.639-.981 23.23-6.491 40.898-24.655 47.392-48.721.952-3.528 1.807-6.534 1.901-6.682.093-.147 15.759 2.216 34.812 5.25 19.054 3.035 35.116 5.518 35.695 5.518 1.552 0 .319 5.805-4.062 19.121-7.192 21.866-16.933 37.799-32.977 53.945-19.842 19.968-43.098 32.109-72.792 38.004-12.012 2.384-38.823 3.413-50.533 1.94z"/></g></g></svg>