<svg clip-rule="evenodd" fill-rule="evenodd" stroke-linejoin="round" stroke-miterlimit="2" viewBox="0 0 560 400" xmlns="http://www.w3.org/2000/svg" xmlns:xlink="http://www.w3.org/1999/xlink"><clipPath id="a"><path clip-rule="evenodd" d="m208.855 118.057h124.369v87.583h-124.369z"/></clipPath><clipPath id="b"><path clip-rule="evenodd" d="m244.344 128.695h64.655v64.599h-64.655z"/></clipPath><clipPath id="c"><path clip-rule="evenodd" d="m130.528 103.607h299.196v87.079h-299.196z"/></clipPath><g fill-rule="nonzero"><path d="m160.233 268.489c2.57 0 5.004.608 6.222 1.825.203 1.895-1.489 4.937-2.57 4.937-1.285-.473-2.502-.745-3.99-.745-6.153 0-9.197 6.357-9.197 12.646 0 3.921 1.353 6.289 4.464 6.289 3.313 0 6.694-2.231 8.587-3.922.474.337 1.082 1.42 1.082 2.637 0 1.353-.405 2.637-1.623 3.854-2.163 2.164-5.814 3.99-11.09 3.99-6.085 0-10.277-3.449-10.277-11.496 0-10.548 6.964-20.015 18.325-20.015z" fill="#373535"/><path d="m180.111 293.102c3.313 0 9.332-5.816 11.022-16.905.068-.676.135-.879.271-1.555-.744-.27-1.758-.473-2.774-.473-2.502 0-5.071.744-7.37 3.854-2.367 3.313-3.381 7.438-3.381 10.752 0 2.839.812 4.327 2.164 4.327zm-10.888-3.042c0-3.989 1.352-10.955 6.425-16.026 4.327-4.463 9.601-5.546 14.403-5.546 3.178 0 7.505 1.014 10.21 1.557-.676 2.975-2.299 14.199-3.043 20.69-.338 2.773-.473 6.627-.338 8.047-2.231.947-6.423 1.217-7.574 1.217-.607 0-.744-2.772-.539-5.409.066-.879.202-2.164.269-2.705-2.637 4.395-7.844 8.114-13.32 8.114-3.922 0-6.493-3.245-6.493-9.872z" fill="#373535"/><path d="m217.095 268.489c2.772 0 5.409 1.014 6.628 2.298-.068 1.895-1.555 5.072-3.923 4.193-1.014-.338-2.029-.608-3.381-.608-1.825 0-3.381.812-3.381 2.501 0 1.284.947 2.232 5.477 5.41 3.247 2.367 4.532 4.463 4.532 7.438 0 4.937-4.667 10.279-12.781 10.279-3.313 0-6.222-1.285-7.168-2.637-1.217-2.029-.271-6.018 1.083-5.343 1.758.879 4.665 1.827 7.032 1.827 2.231 0 3.651-1.016 3.651-2.368 0-1.148-1.014-2.164-5.139-5.071-3.449-2.57-4.531-4.936-4.531-7.641 0-5.612 4.802-10.278 11.834-10.278z" fill="#373535"/><path d="m240.421 268.489c2.774 0 5.411 1.014 6.628 2.298-.068 1.895-1.554 5.072-3.922 4.193-1.014-.338-2.03-.608-3.381-.608-1.825 0-3.38.812-3.38 2.501 0 1.284.946 2.232 5.476 5.41 3.246 2.367 4.53 4.463 4.53 7.438 0 4.937-4.666 10.279-12.78 10.279-3.313 0-6.221-1.285-7.167-2.637-1.217-2.029-.271-6.018 1.082-5.343 1.758.879 4.665 1.827 7.032 1.827 2.231 0 3.651-1.016 3.651-2.368 0-1.148-1.014-2.164-5.139-5.071-3.448-2.57-4.53-4.936-4.53-7.641 0-5.612 4.8-10.278 11.834-10.278z" fill="#373535"/><path d="m261.718 293.102c3.315 0 9.332-5.816 11.023-16.905.067-.676.136-.879.272-1.555-.745-.27-1.758-.473-2.774-.473-2.502 0-5.071.744-7.371 3.854-2.365 3.313-3.381 7.438-3.381 10.752 0 2.839.811 4.327 2.165 4.327zm-10.887-3.042c0-3.989 1.354-10.955 6.425-16.026 4.327-4.463 9.601-5.546 14.403-5.546 3.178 0 7.507 1.014 10.211 1.557-.676 2.975-2.299 14.199-3.042 20.69-.34 2.773-.474 6.627-.34 8.047-2.231.947-6.422 1.217-7.573 1.217-.607 0-.744-2.772-.541-5.409.068-.879.203-2.164.271-2.705-2.637 4.395-7.843 8.114-13.32 8.114-3.923 0-6.494-3.245-6.494-9.872v-.067z" fill="#373535"/><path d="m297.148 277.279c3.112-5.004 7.167-8.79 12.848-8.79 4.801 0 6.356 4.462 5.478 10.818-.473 2.977-1.284 7.236-1.827 11.158-.473 3.314-.811 6.288-.742 8.318-1.758.879-6.898 1.217-8.047 1.217-.474 0-.543-3.72.067-7.642.54-3.245 1.69-9.128 2.231-12.51.34-1.959.271-4.327-1.622-4.327-2.503 0-8.452 3.99-11.429 20.353-.204 1.352-.743 2.164-1.489 2.637-1.012.61-3.177 1.151-7.571 1.219.811-4.125 2.096-12.578 3.043-18.799.877-5.679 1.217-9.332 1.013-10.752 1.15-.405 7.169-1.69 7.843-1.69.746 0 .88 2.096.204 7.168-.066.474-.135 1.216-.204 1.622z" fill="#373535"/><path d="m331.497 293.035c2.974 0 8.994-5.546 10.683-15.35.069-.541.272-1.555.407-2.165-.88-.811-2.029-1.352-3.854-1.352-6.831 0-9.874 8.183-9.874 14.067 0 3.177 1.083 4.8 2.569 4.8zm-4.462 6.964c-4.328 0-7.032-3.854-7.032-10.48 0-10.955 6.828-21.031 18.323-21.031 2.03 0 3.854.541 5.004 1.217.608-3.11 2.028-12.713 2.097-15.552 1.892-.338 5.95-.946 7.775-.946.746 0 .949.743.677 2.433-1.624 10.144-4.529 29.618-5.071 33.947-.407 3.651-.473 7.235-.407 9.263-2.162.947-6.559 1.149-7.707 1.149-.476 0-.745-3.11-.61-5.882.069-.879.203-2.165.203-2.367-3.381 5.545-8.047 8.249-13.186 8.249z" fill="#373535"/><path d="m366.655 278.227c3.585-7.98 7.844-9.738 10.617-9.738.881 0 2.231.541 2.84 1.217.272 2.231-1.486 6.694-3.043 8.384-.813-.406-1.824-.811-2.975-.811-2.3 0-6.83 3.585-9.67 19.001-.204 1.286-.609 1.827-1.351 2.165-1.149.676-5.681 1.217-7.843 1.284 1.011-5.545 2.769-16.837 3.447-23.465.203-1.69.269-4.8.135-6.017 1.285-.609 6.357-1.758 7.505-1.758.61 0 1.083 3.72.134 9.738z" fill="#373535"/><path d="m390.522 293.102c3.316 0 9.332-5.816 11.024-16.905.066-.676.135-.879.271-1.555-.744-.27-1.758-.473-2.774-.473-2.502 0-5.071.744-7.371 3.854-2.365 3.313-3.381 7.438-3.381 10.752 0 2.839.811 4.327 2.165 4.327zm-10.887-3.042c0-3.989 1.354-10.955 6.425-16.026 4.327-4.463 9.601-5.546 14.403-5.546 3.178 0 7.505 1.014 10.213 1.557-.678 2.975-2.301 14.199-3.044 20.69-.339 2.773-.475 6.627-.339 8.047-2.231.947-6.423 1.217-7.574 1.217-.607 0-.742-2.772-.541-5.409.068-.879.203-2.164.272-2.705-2.638 4.395-7.843 8.114-13.321 8.114-3.923 0-6.494-3.245-6.494-9.872z" fill="#373535"/><path d="m370.665 153.902c2.231 25.992-38.674 50.73-91.362 55.25-52.689 4.521-97.21-12.89-99.439-38.881-2.231-25.996 38.674-50.733 91.363-55.253 52.688-4.519 97.21 12.887 99.438 38.884" fill="#bbe6fb"/></g><g clip-path="url(#a)"><path d="m272.774 118.066c-20.099-.327-43.617 7.653-61.117 15.126-1.821 5.249-2.802 10.831-2.802 16.618 0 30.832 27.841 55.829 62.184 55.829 34.344 0 62.185-24.997 62.185-55.829 0-9.758-2.795-18.925-7.696-26.907-14-2.176-33.256-4.52-52.754-4.837" fill="#fff" fill-rule="nonzero" opacity=".35"/></g><g fill-rule="nonzero"><path d="m271.039 118.06c-11.127-.679-30.306 5.126-46.298 10.917-2.43 5.734-3.779 12.01-3.779 18.595 0 27.015 24.493 48.915 50.404 48.915 25.74 0 48.513-21.935 50.403-48.915.614-8.785-2.41-17.064-6.609-24.202-16.58-2.92-34.175-4.703-44.121-5.31" fill="#fff"/><g fill="#373535"><path d="m242.484 144.025c1.365-3.023 3.433-4.503 5.436-7.037-.222-.6-.71-2.562-.71-3.243 0-3.037 2.464-5.502 5.502-5.502.717 0 1.402.142 2.029.392 9.107-6.941 21.096-9.966 33.144-7.273 1.1.248 2.179.548 3.238.878-11.907-1.651-25.329 2.566-34.458 9.935.279.657 1.052 2.538 1.052 3.294 0 3.039-1.966 3.778-5.005 3.778-.69 0-1.349-.132-1.959-.364-2.062 2.769-4.589 8.044-5.826 11.342 5.048 4.516 9.61 6.153 15.554 8.374-.015-.283.204-.545.204-.834 0-9.16 8.065-16.605 17.226-16.605 8.21 0 15.008 5.97 16.335 13.802 4.096-2.606 8.057-4.603 11.076-8.466-.704-.859-1.463-3.292-1.463-4.489 0-2.757 2.236-4.992 4.993-4.992.39 0 .765.056 1.13.141 1.532-3.15 2.689-6.489 3.428-9.931-14.325-10.606-42.043-9.159-42.043-9.159s-22.056-1.151-36.988 6.126c.996 7.199 3.868 14.044 8.105 19.833"/><path d="m310.956 139.893c1.013.913 1.565 1.714 2.001 2.495 1.339 2.409-1.348 4.613-4.105 4.613-.28 0-.551-.038-.82-.083-3.106 4.854-8.546 11.079-13.379 14.212 7.411 1.214 14.399 4.182 19.96 8.768 4.05-7.256 7.156-17.733 7.156-26.633 0-6.774-2.99-11.739-7.505-15.382-.237 3.629-2.174 8.704-3.308 12.01"/><path d="m250.799 185.85c2.469-6.819 8.543-12.103 14.289-16.752-.841-1.151-2.102-4-2.627-5.35-7.008-2.131-13.209-6.12-18.018-11.401-.035.153-.079.303-.116.456-.905 4.058-1.072 8.125-.621 12.092 3.356.625 5.895 3.565 5.895 7.102 0 2.098-1.838 5.138-3.265 6.46 1.551 3.347 2.609 4.961 4.463 7.393"/><path d="m250.364 191.574c-2.945-2.928-4.982-8.77-6.894-12.438-.358.055-.724.093-1.099.093-3.994 0-8.18-3.353-7.233-7.232.524-2.147 2.006-3.551 4.419-4.723-.549-4.447-.699-10.84.334-15.463.296-1.322.922-1.942 1.338-3.201-4.408-6.451-7.256-14.916-7.256-23.316 0-.307.016-.61.023-.914-7.449 3.735-13.034 9.621-13.034 18.885 0 20.493 11.803 40.596 29.364 48.475.013-.054.024-.111.038-.166"/><path d="m293.547 163.244c-2.27 6.454-8.406 11.09-15.636 11.09-3.868 0-7.417-1.334-10.237-3.551-5.813 4.527-11.087 12.481-13.768 19.38 1.203 1.295 2.041 2.36 3.391 3.508 4.067 1.059 9.667 0 14.069 0 17.707 0 33.389-7.877 42.38-21.691-5.978-4.14-13.029-8.079-20.199-8.736"/></g><path d="m242.031 146.42c1.364-3.023 3.076-5.82 5.078-8.354-.223-.599-.353-1.245-.353-1.926 0-3.037 2.464-5.502 5.503-5.502.717 0 1.401.142 2.028.392 9.107-6.941 21.096-9.966 33.144-7.273 1.1.248 2.179.548 3.238.877-11.907-1.65-24.21 1.999-33.339 9.369.279.657.431 1.381.431 2.137 0 3.039-2.464 5.502-5.502 5.502-.691 0-1.35-.132-1.96-.365-2.062 2.77-3.748 5.829-4.985 9.128 4.336 4.673 9.658 8.368 15.601 10.589-.014-.283-.044-.563-.044-.852 0-9.16 7.425-16.587 16.587-16.587 8.209 0 15.007 5.97 16.334 13.802 4.096-2.606 7.736-5.953 10.754-9.815-.705-.86-1.141-1.943-1.141-3.14 0-2.757 2.237-4.992 4.993-4.992.39 0 .765.056 1.13.14 1.533-3.149 2.689-6.488 3.429-9.93-14.326-10.606-42.044-9.159-42.044-9.159s-22.056-1.151-36.988 6.126c.996 7.199 3.868 14.044 8.106 19.833" fill="#1287b1"/><path d="m311.73 140.71c1.012.913 1.662 2.222 1.662 3.692 0 2.757-2.237 4.994-4.994 4.994-.28 0-.551-.038-.82-.083-3.106 4.854-7.222 8.992-12.056 12.125 7.145 1.117 13.869 4.149 19.429 8.735 4.05-7.256 6.364-15.613 6.364-24.513 0-6.774-2.99-11.739-7.505-15.382-.236 3.629-.946 7.126-2.08 10.432" fill="#1287b1"/><path d="m251.561 187.488c2.469-6.819 6.76-12.938 12.506-17.585-.841-1.153-1.534-2.41-2.06-3.76-7.009-2.131-13.209-6.12-18.018-11.401-.035.153-.08.302-.115.456-.907 4.058-1.074 8.125-.621 12.092 3.354.625 5.895 3.565 5.895 7.102 0 2.097-.9 3.984-2.327 5.306 1.294 2.744 2.886 5.359 4.74 7.79" fill="#1287b1"/><path d="m250.345 191.491c-2.946-2.928-5.418-6.292-7.328-9.959-.359.055-.725.092-1.099.092-3.995 0-7.233-3.239-7.233-7.232 0-2.863 1.668-5.331 4.081-6.502-.548-4.446-.362-9.061.672-13.684.295-1.321.656-2.612 1.072-3.872-4.408-6.449-6.99-14.246-6.99-22.645 0-.308.014-.61.021-.913-7.449 3.734-13.034 9.621-13.034 18.884 0 20.494 12.238 38.117 29.8 45.997.012-.055.024-.111.038-.166" fill="#1287b1"/><path d="m293.093 165.639c-2.27 6.454-8.406 11.09-15.636 11.09-3.868 0-7.417-1.334-10.237-3.551-5.813 4.527-10.201 10.699-12.88 17.6 1.201 1.294 2.486 2.514 3.836 3.661 4.068 1.059 8.334 1.627 12.736 1.627 17.707 0 33.274-9.142 42.265-22.954-5.978-4.142-12.914-6.817-20.084-7.473" fill="#1287b1"/></g><g clip-path="url(#b)"><path d="m293.675 161.362 15.324-3.655-15.382-.785 12.518-9.567-14.204 5.092 9.653-13.378-13.333 8.862 4.662-15.66-9.157 12.908-.208-16.311-6.025 14.529-5.023-14.702.272 17.319-8.681-15.525 4.697 16.484-14.082-10.241 11.031 13.861-17.482-6.429 13.797 10.209-17.692.543 18.089 4.669-18.105 3.914 17.872 1.296-15.071 9.651 15.519-5.626-10.768 13.637 13.606-10.974-4.899 18.3 10.504-14.892-1.472 17.588 5.963-15.944 5.075 16.758 1.234-16.809 7.533 14.341-4.451-16.403 13.795 10.686-8.906-13.625 15.135 5.897-11.572-11.372 15.517 1.22z" fill="#fff" fill-rule="nonzero"/></g><g clip-path="url(#c)"><path d="m130.528 190.686c47.528-47.526 85.486-62.199 119.936-68.897 4.558-.886 5.42-10.846 5.42-10.846s.638 7.336 3.829 8.293c3.189.957 7.334-11.484 7.334-11.484s-3.827 11.165 0 11.803c3.829.638 10.845-10.845 10.845-10.845s-2.869 9.887-.955 10.526c1.912.638 11.481-14.353 11.481-14.353s-5.742 9.887-.319 10.845c5.425.957 13.336-6.749 13.336-6.749s-6.221 7.051-3.448 8.024c11.803 4.148 21.353-11.192 21.353-11.192s-2.213 6.727-7.954 14.063c12.438 3.189 21.677-15.55 21.677-15.55l-9.239 18.739c4.785 2.554 23.925-19.456 23.925-19.456s-9.888 17.225-15.63 20.732c3.189 2.553 14.673-7.654 14.673-7.654s-9.251 11.481-5.742 12.119c5.103 4.147 23.921-21.37 23.921-21.37s-7.334 14.991-18.179 26.794c9.064 4.534 31.578-24.561 31.578-24.561s-.638 9.25-16.906 23.923c12.121-1.595 27.751-24.561 27.751-24.561s-5.741 17.224-19.459 29.344c11.902-1.238 30.94-30.621 30.94-30.621s-7.335 20.414-22.326 32.217c16.587 3.668 40.51-21.052 40.51-21.052s-9.41 17.545-21.692 24.72c13.717 5.263 32.537-16.427 32.537-16.427s-18.82 29.028-48.802 27.751c-9.838-.418-39.596-29.846-103.349-27.431-84.208 3.19-102.069 38.915-147.046 63.156" fill="#373535" fill-rule="nonzero" opacity=".35"/></g><path d="m132.476 187.076c47.527-47.526 85.484-62.197 119.934-68.896 4.56-.886 5.422-10.845 5.422-10.845s.637 7.337 3.829 8.292c3.189.957 7.334-11.481 7.334-11.481s-3.827 11.164 0 11.801c3.829.637 10.845-10.845 10.845-10.845s-2.869 9.887-.958 10.525c1.915.638 11.484-14.354 11.484-14.354s-5.742 9.889-.319 10.845c5.422.958 13.336-6.747 13.336-6.747s-6.221 7.05-3.449 8.024c11.803 4.147 21.351-11.192 21.351-11.192s-2.213 6.726-7.952 14.062c12.439 3.191 21.678-15.551 21.678-15.551l-9.239 18.742c4.785 2.551 23.922-19.456 23.922-19.456s-9.885 17.222-15.627 20.731c3.189 2.552 14.672-7.655 14.672-7.655s-9.25 11.484-5.741 12.12c5.103 4.149 23.921-21.37 23.921-21.37s-7.337 14.992-18.18 26.793c9.065 4.536 31.579-24.56 31.579-24.56s-.638 9.251-16.906 23.924c12.121-1.596 27.751-24.563 27.751-24.563s-5.741 17.225-19.459 29.346c11.902-1.238 30.94-30.62 30.94-30.62s-7.335 20.414-22.326 32.215c16.587 3.668 40.51-21.051 40.51-21.051s-9.41 17.542-21.692 24.719c13.717 5.263 32.537-16.427 32.537-16.427s-18.82 29.027-48.805 27.751c-9.835-.42-39.593-29.847-103.347-27.432-84.207 3.19-102.07 38.914-147.045 63.155" fill="#373535" fill-rule="nonzero"/><path d="m129.283 195.883c25.119 12.601 48.087-1.913 77.033 6.245 22.007 6.204 48.802 13.851 85.163 8.587 36.362-5.261 67.464-21.051 82.298-49.281 4.625-12.598 23.442 2.872 23.442 2.872s-13.714-5.742-13.394-3.03c.318 2.71 20.573 12.12 20.573 12.12s-18.342-5.742-17.225-1.435c1.117 4.306 22.964 21.531 22.964 21.531s-24.719-18.82-26.791-16.269c-2.075 2.553 10.525 12.92 10.525 12.92s-20.893-12.92-28.23-9.109c-5.277 2.737 21.691 20.433 21.691 20.433s-17.544-13.399-21.691-9.89c-4.146 3.511 19.777 32.217 19.777 32.217s-27.115-29.346-29.824-27.911c-2.713 1.436 7.494 15.471 7.494 15.471s-13.396-14.673-17.062-12.121c-3.669 2.553 19.137 40.669 19.137 40.669s-24.72-39.073-34.927-32.537c16.029 35.168 10.048 40.193 10.048 40.193s-2.045-35.878-22.01-34.929c-10.048.479 4.784 26.794 4.784 26.794s-13.651-24.034-22.743-23.555c16.756 31.709 10.783 44.607 10.783 44.607s2.771-27.083-19.954-42.153c8.611 7.653-5.404 42.153-5.404 42.153s12.329-50.839-9.092-41.146c-3.385 1.528-.24 25.358-.24 25.358s-4.306-27.274-10.763-25.837c-3.766.835-23.925 37.798-23.925 37.798s16.508-39.952 11.485-38.277c-3.66 1.221-10.527 17.704-10.527 17.704s3.349-16.269 0-17.225c-3.348-.958-22.01 17.225-22.01 17.225s13.877-16.269 11.484-19.619c-3.626-5.075-7.876-5.313-12.919-3.348-7.338 2.86-17.223 16.267-17.223 16.267s9.854-13.575 8.132-18.66c-2.765-8.17-31.099 15.789-31.099 15.789s16.746-15.789 12.919-19.139c-3.827-3.348-24.61-2.313-31.1-2.331-19.138-.059-25.769-4.549-31.579-9.151" fill="#373535" fill-rule="nonzero" opacity=".35"/><path d="m128.327 193.012c25.119 12.601 48.085-1.912 77.031 6.246 22.008 6.201 48.804 13.85 85.166 8.586 36.363-5.263 67.461-21.052 82.296-49.28 4.624-12.598 23.442 2.87 23.442 2.87s-13.714-5.74-13.395-3.029c.319 2.71 20.573 12.12 20.573 12.12s-18.341-5.74-17.224-1.434c1.117 4.305 22.966 21.53 22.966 21.53s-24.721-18.821-26.794-16.267c-2.072 2.551 10.527 12.917 10.527 12.917s-20.894-12.917-28.23-9.11c-5.278 2.739 21.69 20.434 21.69 20.434s-17.545-13.398-21.69-9.889c-4.147 3.511 19.778 32.217 19.778 32.217s-27.116-29.346-29.826-27.911c-2.71 1.437 7.497 15.47 7.497 15.47s-13.399-14.672-17.066-12.12c-3.668 2.551 19.138 40.669 19.138 40.669s-24.72-39.074-34.927-32.535c16.029 35.166 10.047 40.191 10.047 40.191s-2.045-35.878-22.009-34.927c-10.048.479 4.783 26.792 4.783 26.792s-13.651-24.036-22.741-23.557c16.757 31.711 10.782 44.609 10.782 44.609s2.771-27.084-19.955-42.155c8.611 7.655-5.403 42.155-5.403 42.155s12.331-50.839-9.09-41.146c-3.385 1.53-.24 25.358-.24 25.358s-4.309-27.273-10.764-25.837c-3.767.835-23.926 37.798-23.926 37.798s16.508-39.952 11.485-38.276c-3.66 1.219-10.527 17.701-10.527 17.701s3.35-16.267 0-17.223c-3.348-.957-22.009 17.223-22.009 17.223s13.877-16.267 11.482-19.616c-3.626-5.076-7.875-5.312-12.917-3.347-7.339 2.858-17.225 16.265-17.225 16.265s9.855-13.576 8.134-18.66c-2.767-8.169-31.099 15.789-31.099 15.789s16.746-15.789 12.917-19.137c-3.827-3.35-24.61-2.313-31.099-2.333-19.138-.061-25.768-4.549-31.578-9.151" fill="#373535" fill-rule="nonzero"/></svg>