<svg clip-rule="evenodd" fill-rule="evenodd" stroke-linejoin="round" stroke-miterlimit="2" viewBox="0 0 560 400" xmlns="http://www.w3.org/2000/svg"><path d="m100.3550598 100h359.2905804v200.000408h-359.2905804z" fill="#e94e0f" stroke-width="1.3151"/><g fill="#fff" transform="matrix(1.3151 0 0 1.3151 99.1741 100)"><g fill-rule="nonzero"><path d="m197.992 30.807c-24.966 0-45.212 20.247-45.212 45.213s20.246 45.213 45.212 45.213 45.213-20.237 45.213-45.213-20.237-45.213-45.213-45.213m0 81.912c-20.267 0-36.698-16.432-36.698-36.699s16.431-36.699 36.698-36.699 36.699 16.432 36.699 36.699c0 20.277-16.422 36.699-36.699 36.699"/><path d="m174.705 76.1c0-13.134 10.362-23.367 23.625-23.367 8.415 0 15.2 4.143 19.472 10.551l-7.163 5.086c-2.643-4.212-6.974-7.033-12.309-7.033-8.166 0-14.515 6.467-14.515 14.763 0 8.355 6.349 14.822 14.515 14.822 5.404 0 9.796-2.95 12.438-7.292l7.352 4.898c-4.272 6.656-11.187 10.998-19.79 10.998-13.263.01-23.625-10.233-23.625-23.426"/><path d="m31.427 76.1c0-13.134 10.362-23.367 23.625-23.367 8.415 0 15.2 4.143 19.472 10.551l-7.163 5.086c-2.642-4.212-6.974-7.033-12.309-7.033-8.166 0-14.514 6.467-14.514 14.763 0 8.355 6.348 14.822 14.514 14.822 5.405 0 9.796-2.95 12.438-7.292l7.352 4.898c-4.272 6.656-11.186 10.998-19.79 10.998-13.263.01-23.625-10.233-23.625-23.426"/><path d="m110.686 85.528h-22.492c.626 3.834 3.646 6.348 7.411 6.348 3.08 0 5.713-1.629 6.845-3.895l7.163 3.14c-2.642 5.086-7.788 8.415-14.008 8.415-8.861 0-15.706-6.786-15.706-15.518 0-8.673 6.785-15.459 15.647-15.459s15.329 6.597 15.329 14.823c0 1.142-.189 2.146-.189 2.146m-21.985-5.464h13.571c-1.063-3.199-3.458-4.898-6.716-4.898-3.149 0-5.723 1.689-6.855 4.898"/></g><path d="m117.71 52.107h8.166v46.484h-8.166z"/><path d="m135.086 52.107h8.166v46.484h-8.166z"/><g fill-rule="nonzero"><path d="m31.427 113.335c0-2.285 1.799-4.064 4.103-4.064 1.461 0 2.643.726 3.388 1.838l-1.242.885c-.457-.736-1.212-1.222-2.146-1.222-1.42 0-2.523 1.122-2.523 2.563 0 1.45 1.103 2.583 2.523 2.583.944 0 1.709-.517 2.166-1.272l1.282.855c-.745 1.162-1.947 1.907-3.438 1.907-2.314 0-4.113-1.778-4.113-4.073"/><path d="m40.19 113.335c0-2.285 1.798-4.064 4.103-4.064 2.315 0 4.123 1.779 4.123 4.064 0 2.295-1.798 4.073-4.123 4.073-2.295 0-4.103-1.778-4.103-4.073m6.646 0c0-1.441-1.103-2.563-2.533-2.563-1.421 0-2.524 1.122-2.524 2.563 0 1.45 1.103 2.583 2.524 2.583 1.43 0 2.533-1.133 2.533-2.583"/><path d="m51.784 112.659v4.59h-1.56v-8.226l5.007 4.987v-4.57h1.55v8.226z"/><path d="m60.526 112.659v4.59h-1.56v-8.226l4.998 4.987v-4.57h1.549v8.226z"/><path d="m72.398 115.799v1.45h-4.699v-7.809h4.371v1.451h-2.781v1.659h3.059v1.341h-3.059v1.908z"/><path d="m73.908 113.335c0-2.285 1.798-4.064 4.103-4.064 1.461 0 2.643.726 3.388 1.838l-1.242.885c-.457-.736-1.212-1.222-2.146-1.222-1.42 0-2.523 1.122-2.523 2.563 0 1.45 1.103 2.583 2.523 2.583.944 0 1.709-.517 2.166-1.272l1.282.855c-.746 1.162-1.948 1.907-3.438 1.907-2.315 0-4.113-1.778-4.113-4.073"/><path d="m88.204 110.931h-1.997v6.318h-1.579v-6.318h-1.987v-1.491h5.563z"/><path d="m95.476 113.603-2.603-4.163h1.858l1.62 2.583 1.599-2.583h1.699l-2.593 4.163v3.646h-1.58z"/><path d="m99.917 113.335c0-2.285 1.798-4.064 4.103-4.064 2.315 0 4.123 1.779 4.123 4.064 0 2.295-1.798 4.073-4.123 4.073-2.295 0-4.103-1.778-4.103-4.073m6.646 0c0-1.441-1.102-2.563-2.533-2.563-1.421 0-2.523 1.122-2.523 2.563 0 1.45 1.102 2.583 2.523 2.583 1.431 0 2.533-1.133 2.533-2.583"/><path d="m109.882 114.447v-5.017h1.579v4.968c0 .874.477 1.42 1.282 1.42.804 0 1.291-.546 1.291-1.42v-4.968h1.58v5.017c0 1.818-1.133 2.961-2.871 2.961-1.729 0-2.861-1.143-2.861-2.961"/><path d="m119.538 114.12h-.218v3.119h-1.58v-7.809h2.434c1.5 0 2.454 1.073 2.454 2.345 0 .964-.557 1.798-1.471 2.166l2.345 3.298h-1.868zm-.218-3.309v2.146h.596c.685 0 1.162-.457 1.162-1.073s-.467-1.073-1.162-1.073z"/><path d="m136.159 117.666-2.385-5.136-2.364 5.136-3.259-8.226h1.759l1.768 4.6 2.186-4.798 2.176 4.818 1.768-4.62h1.59z"/><path d="m144.246 115.65h-3.04l-.726 1.589h-1.679l3.984-8.226 3.984 8.226h-1.838zm-.587-1.332-.913-2.086-.944 2.086z"/><path d="m148.607 113.603-2.593-4.163h1.858l1.609 2.583 1.61-2.583h1.689l-2.583 4.163v3.646h-1.59z"/></g></g></svg>