<svg clip-rule="evenodd" fill-rule="evenodd" stroke-linejoin="round" stroke-miterlimit="2" viewBox="0 0 560 400" xmlns="http://www.w3.org/2000/svg"><g fill-rule="nonzero"><path d="m415 223.958c-11.825 2.684-58.764 11.63-60.972 12.105 8.275-8.191 19.178-15.292 36.427-30.835 11.685-10.54 19.681-21.359 19.681-32.765v-34.078c0-10.148-6.374-20.967-14.789-26.978-22.812-16.27-60.134-34.414-112.887-34.414-52.725 0-90.074 18.144-112.887 34.414-8.442 6.011-14.788 16.83-14.788 26.978v34.078c0 11.406 7.995 22.225 19.681 32.765 17.892 16.158 28.711 23.231 36.287 30.751-21.079-2.879-45.289-7.771-65.753-11.993.028 26.67 11.742 37.797 19.457 42.298v37.573c22.449-4.138 41.32-6.849 64.467-8.443v-5.367c2.069-.112 4.976-.224 7.52-.308.811 2.712 1.594 5.2 2.125 6.877 7.576 23.539 32.233 26.391 43.891 26.391s36.315-2.852 43.891-26.391c.503-1.565 1.202-3.914 1.985-6.458 2.46.14 6.821.28 9.086.42v5.479c13.754 1.09 25.552 2.628 38.915 4.613 6.849.978 14.677 1.621 20.883-4.082 5.423-4.948 6.178-12.161 6.178-18.367v-5.563c0-4.166-.699-7.996-2.069-11.238 4.473-4.809 13.671-14.09 13.671-37.462z" fill="#be955b"/><path d="m407.927 230.5c-12.133 2.74-32.569 6.206-44.478 8.135-6.486 1.063-12.916 2.013-17.473 6.486-.754.727-1.342 1.482-1.873 2.237-1.258-.28-2.516-.42-3.662-.504 9.477-15.431 21.219-20.855 44.674-42.241 11.099-10.148 18.731-19.989 18.731-30.92v-32.764c0-9.757-4.753-19.122-14.062-25.916-22.673-16.578-57.171-32.904-107.324-32.904s-84.651 16.299-107.295 32.877c-9.31 6.821-14.062 16.186-14.062 25.915v32.736c0 10.959 7.604 20.8 18.73 30.92 20.38 18.591 31.926 25.104 40.816 36.65-19.709-1.957-52.949-7.827-68.38-10.763 0 18.339 9.225 28.711 17.165 31.786v36.287c18.646-3.103 36.035-5.395 54.822-6.933v-5.843c1.817.168 3.606.112 5.339.028 3.159-.167 6.318-.335 9.477-.475.168 0 .336-.028.476-.028 1.034 3.439 2.124 7.017 3.047 10.036 5.898 19.542 26.083 23.428 39.865 23.428 13.81 0 33.967-3.886 39.866-23.428.894-2.907 1.929-6.346 2.935-9.645 3.578.196 8.443.392 12.021.616 1.23.083 3.271.223 5.591 0v6.038c11.518 1.09 23.036 2.46 34.498 4.11 5.452.754 11.658 1.453 16.494-3.131 4.222-3.886 4.809-9.673 4.809-15.209v-5.647c0-5.228-1.202-9.784-3.523-12.943 5.34-4.194 12.776-13.335 12.776-28.991z" fill="#0d2240"/><path d="m381.229 121.751c-20.827-15.208-52.781-29.186-98.685-29.214h-.056c-45.904.028-77.886 13.978-98.713 29.214-6.43 4.697-12.888 12.748-12.888 23.958v26.419s.14.531.252.084c1.51-7.297 6.178-14.286 12.636-18.983 20.827-15.208 52.809-29.214 98.741-29.214s77.886 14.006 98.741 29.214c6.458 4.725 11.154 11.686 12.664 18.983.084.447.252-.084.252-.084v-26.419c-.028-11.21-6.514-19.234-12.944-23.958z" fill="#003da6"/><path d="m329.147 304.891h4.668v.867h-1.817v4.892h-1.006v-4.892h-1.817v-.867zm5.339 0h1.426l1.594 4.501h.028l1.537-4.501h1.398v5.759h-.95v-4.445h-.028l-1.594 4.445h-.839l-1.593-4.445h-.028v4.445h-.951z" fill="#be955b"/><path d="m358.501 171.429c-17.501-9.813-21.415-19.821-25.86-23.511-4.249-3.523-9.141-1.174-12.58 1.481-2.712-3.662-6.094-6.737-10.372-8.386 0 0-.978.195-.335.754 3.131 2.768 11.434 9.058-10.54 18.312-9.812 4.137-15.208 22.644 8.555 38.495-1.929-3.243-4.193-6.29-6.206-9.421-4.893-7.632-5.787-11.518-4.222-15.096 2.768-6.318 16.243-8.611 27.118-5.843 0 0-.028.028-.112.028-14.146 1.705-20.548 5.591-20.017 16.69 0 0 5.396-6.878 14.426-9.002 2.152 1.454 3.774 3.69 4.361 6.681.755 3.886-.252 7.548-4.864 12.357-4.39 4.585-2.544 11.434.615 18.06 1.286 2.711 1.901 5.004 2.124 6.821 2.824 1.454 8.527 3.271 11.574-3.886 8.331-19.653 24.629-24.825 27.705-26.95 7.604-5.2 5.227-13.866-1.37-17.584z" fill="#55565a"/><path d="m295.991 136.4c-2.153-.559-16.271-3.634-28.515 1.286-7.66 3.047-13.671 7.856-18.228 13.447-3.271-3.075-9.421-7.492-14.565-3.215-4.445 3.69-8.387 13.726-25.887 23.511-6.598 3.69-9.058 11.49-1.37 17.584 2.935 2.321 15.012 7.576 23.343 27.229 2.125 4.977 5.368 7.493 8.247 6.85.196-1.258.476-2.6.923-3.998 2.236-7.045-.867-9.98-3.606-16.662-9.086-21.889.503-35.169 6.318-40.732-3.103 6.738-4.557 13.727-4.557 19.765 0 22.421 9.113 24.126 9.113 32.876 0 5.312-1.705 6.85-1.705 13.475 0 6.822 4.389 11.239 10.484 11.686 7.52.531 14.565-3.523 23.427-7.129 7.045-2.879 6.57-6.178 5.563-7.436-2.18 3.662-11.546 6.29-15.963 1.09-2.124-2.488-3.83-4.445-6.569-8.722-3.942-6.123-1.426-14.873 10.735-14.873h15.292s-19.877-3.83-13.671-16.13c10.148-20.129 8.695-23.651-4.193-30.137-7.52-3.774-8.387-8.163-2.153-12.748 8.024-5.871 21.023-6.178 27.369-5.759 2.544.196 2.628-.615.168-1.258zm-23.539 37.685c1.565 3.578.643 7.464-4.222 15.096-4.64 7.269-10.567 10.539-12.44 23.986-.168 1.286-.95 1.594-1.314.028-.279-5.283 2.6-13.363-2.935-18.199-4.781-4.194-8.527-10.176-3.746-18.954 10.511 1.845 16.298 7.268 16.298 7.268-.335-4.025-1.566-7.408-5.983-10.651-4.556-3.355-12.748-4.445-12.748-4.445 10.847-2.74 24.322-.475 27.09 5.871z" fill="#be955b"/><path d="m259.928 186.302c-.42 1.118-1.538 1.928-2.88 1.928-1.677 0-3.047-1.285-3.047-2.851 0-.839.419-1.594 1.034-2.125-.894-.419-1.845-.838-2.851-1.174-.727.923-1.147 2.069-1.147 3.299 0 3.131 2.712 5.647 6.039 5.647 2.209 0 4.11-1.09 5.172-2.74-.643-.615-1.426-1.314-2.32-1.984zm57.282-4.25c-1.035.336-1.957.755-2.852 1.174.615.532 1.034 1.286 1.034 2.125 0 1.566-1.369 2.852-3.047 2.852-1.342 0-2.46-.811-2.879-1.929-.895.698-1.678 1.369-2.293 1.984 1.063 1.65 2.964 2.74 5.172 2.74 3.327 0 6.039-2.544 6.039-5.647-.028-1.23-.448-2.376-1.174-3.299z" fill="#fff"/><path d="m302.896 211.658c-.084-3.075-3.075-5.004-8.778-5.004h-19.849c-9.226 0-10.148 6.29-8.555 9.365 1.231 2.348 4.445 7.157 5.368 8.415s2.097 1.006 2.097 1.006c-.671-.391-1.063-.699-1.398-1.314-.979-1.733-2.935-5.34-3.523-6.57-1.313-2.739-.055-7.771 7.241-7.771h19.15c3.271-.028 6.346.587 8.247 1.873zm-5.983 4.025c-1.705-.978-4.249-.726-6.038 1.23 1.426-.363 3.578-.559 4.529.699 1.118 1.482-.084 4.445-1.538 5.871 3.858-1.286 5.536-6.402 3.047-7.8zm-19.82-.754c-1.734.279-2.936 1.901-3.299 3.578 2.041-2.292 5.731-1.594 5.843 1.733.055 2.404.81 2.936 2.292 3.271v-3.075c-.028-3.355-1.817-6.011-4.836-5.507zm30.276 17.304c-5.899.699-16.242-2.152-16.242-2.152s8.414 7.855 16.577 7.827c11.323-.055 11.938-10.343 11.938-10.343s-3.02 3.606-12.273 4.668z" fill="#55565a"/><path d="m285.06 235.56c-6.793 0-15.599 7.269-24.629 8.443.643 3.578 2.879 7.213 4.557 8.61 1.062.895 1.481 1.314 1.593-.083.419-6.067 2.209-10.204 2.209-10.204l5.814 1.621 4.837-5.004 5.032 3.578 5.032-3.578 4.836 5.004 5.815-1.621s1.817 4.137 2.209 10.204c.084 1.397.503.978 1.565.083 1.706-1.397 3.942-5.032 4.557-8.61-7.045-.755-16.41-8.443-23.427-8.443zm-77.746-104.22-7.604 3.662c-1.621.783-2.376.951-3.047.643-.643-.307-.923-1.09-.923-2.572v-6.542c0-1.481.28-2.516.923-3.438.671-.951 1.426-1.51 3.047-2.321l7.604-3.662v3.83l-7.604 3.662v6.542l7.604-3.662zm7.8-17.361 4.193-1.37v5.368l4.585-1.51v-5.367l4.194-1.37v14.229l-4.194 1.37v-5.731l-4.585 1.51v5.731l-4.193 1.37zm25.496 7.073-4.333.839v-9.953c0-1.845.139-2.516.727-3.299.643-.922 1.677-1.453 3.27-1.761l5.172-1.006c1.594-.308 2.628-.168 3.271.503.559.559.699 1.174.699 3.019v9.953l-4.305.838v-5.619l-4.501.867zm4.501-9.617v-1.649l-4.501.866v1.65zm12.664-7.436 9.03-.727c1.929-.14 2.348-.112 3.019.252.783.447 1.258 1.23 1.258 2.18v1.789c0 1.314-.559 2.125-1.873 2.852 1.426.559 1.873 1.286 1.873 2.991v3.83l-4.389.364v-5.368l-4.557.363v5.368l-4.361.363zm8.918 5.032v-1.901l-4.557.363v1.901zm12.776-6.318 4.417.028v10.399l7.045.056v3.83l-11.462-.112zm32.876 12.3c0 1.482-.307 2.349-1.034 2.908-.755.531-1.566.671-3.355.475l-4.808-.503c-1.79-.196-2.628-.475-3.383-1.174-.699-.699-1.034-1.65-1.034-3.103v-6.542c0-1.482.307-2.348 1.034-2.908.755-.531 1.566-.67 3.383-.475l4.808.503c1.789.196 2.6.476 3.355 1.175.699.699 1.034 1.621 1.034 3.103zm-4.389-.447v-6.542l-4.808-.503v6.542zm16.187-3.97-4.11-.894v-3.83l13.084 2.851v3.83l-4.362-.95v10.399l-4.584-1.006v-10.4zm18.842 4.921-3.97-1.342v-3.83l12.664 4.305v3.83l-4.249-1.426v10.4l-4.445-1.51zm15.432 1.901 10.763 5.227v3.83l-6.793-3.298v1.705l6.793 3.299v3.131l-6.793-3.299v1.705l6.793 3.299v3.83l-10.763-5.228z" fill="#fff"/><path d="m282.544 95.276c46.519 0 79.871 13.867 102.515 29.83-1.202-1.286-2.46-2.433-3.718-3.355-20.827-15.236-52.837-29.214-98.797-29.214s-77.942 13.978-98.769 29.214c-1.258.922-2.516 2.069-3.746 3.383 22.616-15.963 55.968-29.858 102.515-29.858z" fill="#be955b"/><path d="m283.914 291.976c-7.884 0-15.376-.504-22.141-1.426 3.159 5.787 10.315 10.12 22.113 10.12 11.797 0 19.01-4.389 22.113-10.12-6.737.894-14.202 1.426-22.085 1.426z" fill="#be955b"/><path d="m299.625 277.83c-.671-.531-1.146-.559-1.202.475-.279 4.585-1.705 7.129-2.264 7.94l-4.026-2.489-4.193 2.349-4.473-2.376-4.445 2.376-3.299-2.544-3.718 2.376c-.588-.699-2.433-3.215-2.6-7.269-.028-1.006-.532-1.006-1.202-.447-3.215 2.628-5.2 8.527-5.2 8.527 6.178 1.006 13.67 1.342 20.687 1.342s14.509-.308 20.688-1.342c0-.028-1.51-6.29-4.753-8.918z" fill="#fff"/><path d="m334.486 246.994c3.104-5.507 6.458-9.449 8.583-11.713 6.961-7.409 16.131-15.991 31.311-30.361 12.021-11.378 24.937-30.528-2.237-48.559 0 0 19.765 18.479-3.187 43.304-13.027 14.089-24.21 26.083-29.745 32.345-3.411 3.886-7.576 9.784-10.539 15.32 1.956-.112 3.885-.196 5.814-.336zm-143.862-42.074c15.153 14.342 24.322 22.952 31.311 30.361 2.209 2.32 5.675 6.429 8.862 12.188 1.929.112 3.858.196 5.759.308-2.935-5.647-7.24-11.742-10.763-15.739-5.535-6.29-16.746-18.256-29.745-32.346-22.952-24.825-3.187-43.304-3.187-43.304-27.173 18.032-14.258 37.182-2.237 48.532zm61.14 87.279c-.503-1.705-1.509-4.864-2.767-8.806-1.482.615-2.992 1.034-4.501 1.342 1.034 3.327 1.929 6.262 2.656 8.61 5.367 17.417 17.724 17.557 17.724 17.557s-8.778-4.585-13.112-18.703zm63.656-6.989c-.978 3.075-1.733 5.535-2.18 6.961-4.305 14.118-13.112 18.703-13.112 18.703s12.357-.168 17.725-17.557c.671-2.18 1.481-4.864 2.432-7.911-1.622-.056-3.243-.112-4.865-.196z" fill="#55565a"/><path d="m269.293 251.719h-.28v17.053l-5.982.028v-13.363l-.084-.112c-.923-.922-1.901-2.153-2.936-3.606l-.083-.14h-.476c-2.823-.056-5.675-.112-8.498-.196h-.308v18.815c0 2.628.336 4.417 2.125 5.787 1.789 1.453 4.109 1.733 7.268 1.733.364 0 .755 0 1.175-.028.782-.028 1.593-.028 2.376-.028l1.621-.056c1.342-1.537 2.74-2.712 4.138-3.411.279-.139.587-.223.866-.223.42 0 1.119.168 1.175 1.286.027.727.111 1.426.307 2.32 3.327-.084 5.731-.419 7.492-1.873 1.789-1.398 2.125-3.131 2.125-5.675v-18.255h-2.628c-3.131 0-6.262 0-9.393-.056zm-70.17-9.282-.308-.028v15.6c-1.817-.056-3.214-.112-4.668-.196-1.146-.056-2.293-.112-3.718-.14l-.084-16.466-.168-.028c-5.088-.671-10.232-1.397-15.292-2.152l-.224-.028c-5.591-.839-10.092-1.594-14.201-2.321l-.42-.056.448 2.293c.028.168 2.907 15.991 13.363 16.382l.727.028v35.001l.335-.056c4.976-.755 10.12-1.481 15.264-2.152l.252-.112v-17.557c1.453-.056 2.655-.083 3.83-.139 1.425-.056 2.795-.112 4.556-.14v16.773l.308-.027c5.2-.588 10.372-1.119 15.32-1.594l.252-.028v-41.235l-.252-.028c-5.088-.475-10.232-1.007-15.32-1.594zm46.323 10.596c-1.845-1.398-3.942-1.957-7.939-2.097-3.159-.14-6.318-.28-9.477-.447-4.026-.224-6.123.167-8.024 1.565-1.733 1.342-2.488 3.355-2.488 6.486v12.329c0 3.131.783 5.172 2.516 6.513 1.566 1.147 3.271 1.594 6.095 1.594.587 0 1.23-.028 1.901-.056 3.159-.168 6.318-.307 9.477-.447 3.997-.168 6.094-.727 7.967-2.153 1.733-1.37 2.488-3.243 2.488-6.066v-11.127c.028-2.879-.727-4.696-2.516-6.094zm-9.784 7.212v8.835l-5.787.083v-9.029c1.901.055 3.83.083 5.787.111zm75.313-9.057-2.236.056-.14.111c-2.879 3.998-4.78 5.284-5.451 5.647l-.14.112v1.482c-1.677-2.348-3.355-4.641-5.088-7.045l-.14-.028h-.056c-4.473.112-9.002.168-13.419.196h-.279v25.831h.279c3.914.028 7.856.084 11.798.168h.279v-10.344c2.74 3.746 5.2 7.157 7.576 10.512l.168.028c3.634.111 7.297.223 10.931.363h.307v-27.285l-.307.028c-1.37.084-2.74.112-4.082.168zm73.469 4.109c.084 0 .168-.028.252-.028.922-.056 2.404-.419 2.767-.615 7.884-2.823 10.26-15.208 10.344-15.739l.447-2.32-.419.055c-10.707 1.874-21.61 3.495-32.429 4.865-4.669.587-7.856 1.426-10.316 3.998-2.125 2.152-2.879 4.752-2.879 9.868v4.529c0 3.243.838 5.843 2.46 7.772 2.348 2.795 5.339 3.438 9.701 3.578 4.389.14 8.778.308 13.167.475v1.873c-8.331-.447-16.718-.838-25.021-1.202h-.307v13.811l.251.028c9.002.978 18.032 2.124 26.838 3.41 2.069.308 3.467.42 4.697.42 2.683 0 4.557-.671 6.178-2.265 2.292-2.153 3.187-5.367 3.187-11.518v-5.703c0-5.312-1.454-9.337-4.082-11.322-2.208-1.649-4.696-2.041-9.924-1.817-3.746.14-7.492.307-11.238.447v-1.705c5.423-.28 10.875-.559 16.326-.895zm-43.444-5.507c-.643 0-1.342.028-2.069.084-6.569.419-13.363.782-20.156 1.062h-.279v27.453h.279c6.71.279 13.503.643 20.156 1.062.727.056 1.398.084 2.069.084 3.159 0 5.088-.643 6.486-2.208 1.286-1.426 1.957-3.495 1.957-6.207v-12.943c0-2.684-.643-4.781-1.929-6.179-1.426-1.537-3.383-2.208-6.514-2.208zm-3.886 10.176v9.421c-2.096-.056-4.165-.084-6.262-.14v-9.169z" fill="#003da6"/><path d="m338.959 251.076c-6.206.391-12.384.699-18.618.978v24.49c6.206.279 12.412.587 18.618.978 3.858.252 5.703-.14 7.017-1.593 1.091-1.174 1.622-3.019 1.622-5.284v-12.72c0-2.264-.559-4.137-1.622-5.284-1.342-1.453-3.187-1.817-7.017-1.565zm0 19.317-9.924-.251v-11.658c3.327-.084 6.626-.168 9.924-.279zm-94.827-16.633c-1.453-1.091-3.103-1.51-6.625-1.65-3.159-.14-6.318-.279-9.477-.447-3.551-.196-5.2.084-6.654 1.146-1.37 1.062-2.013 2.74-2.013 5.452v12.105c0 2.711.615 4.389 2.013 5.451 1.482 1.062 3.103 1.342 6.654 1.146 3.159-.168 6.318-.307 9.477-.447 3.522-.14 5.172-.559 6.625-1.65 1.398-1.09 2.013-2.627 2.013-5.06v-10.93c0-2.544-.615-4.026-2.013-5.116zm-6.625 16.158c-3.159.056-6.318.14-9.477.196v-11.63c3.159.084 6.318.14 9.477.224zm-36.874-10.679c-4.473-.14-7.604-.28-12.049-.419v-16.634c-3.607-.476-7.185-1.007-10.791-1.538-5.172-.783-10.344-1.621-15.516-2.516 0 .056 2.768 14.565 11.574 14.985.922.055 1.761.139 2.516.167v34.862c4.053-.615 8.135-1.203 12.189-1.762v-17.836c4.445-.111 7.576-.223 12.049-.307v16.494c4.081-.475 8.163-.895 12.244-1.286v-38.3c-4.081-.391-8.163-.811-12.244-1.286zm187.473 1.062c-1.817-1.37-3.886-1.733-8.75-1.537-4.361.167-8.722.307-13.083.419v-4.864c4.724-.28 9.449-.587 14.145-.895v-.028c1.258-.084 2.6-.196 4.026-.279 8.834-.42 11.574-14.929 11.574-14.985-6.71 1.342-22.533 3.606-30.556 4.613-4.753.587-7.129 1.454-8.946 3.355-1.789 1.845-2.432 4.109-2.432 8.89v4.556c0 2.964.699 5.256 2.124 6.934 1.706 2.04 3.579 2.711 8.191 2.851 5.005.14 9.981.308 14.985.503v5.256c-8.415-.587-16.858-1.09-25.3-1.51v10.903c8.442.951 16.885 2.041 25.3 3.299 5.228.783 7.464.531 9.477-1.426 1.929-1.817 2.684-4.696 2.684-10.343v-5.703c-.028-4.697-1.258-8.359-3.439-10.009zm-83.253-2.292v5.731c-2.712-3.718-5.424-7.381-8.107-10.987-3.607.084-7.241.14-10.875.168v22.756c2.879.028 5.787.056 8.694.112v-14.034c3.523 4.669 7.073 9.393 10.595 14.286 2.796.083 5.592.167 8.387.279v-24.042c-1.174.056-2.348.084-3.55.112-1.929 3.159-4.361 5.06-5.144 5.619zm-35.56 16.131c.755-.392 2.097-.42 2.18 1.146 0 .14.028.251.028.391 3.495-.056 5.088-.419 6.318-1.426 1.258-.95 1.678-2.208 1.678-4.724v-16.55c-2.88 0-5.787-.028-8.667-.028v16.606c-3.215 0-6.43.028-9.672.056v-13.475c-.811-.783-1.79-1.901-2.628-3.355-2.013-.028-4.054-.084-6.067-.14v17.054c0 2.599.42 3.885 1.678 4.836 1.342 1.062 2.963 1.342 7.017 1.286l5.814-.084c.727-.615 1.482-1.174 2.321-1.593z" fill="#fff"/><path d="m271.473 275.286c0 .14.028.251.028.391 3.495-.056 5.088-.419 6.318-1.426 1.258-.95 1.678-2.208 1.678-4.724v-1.482c0 2.516-.42 3.774-1.678 4.725-1.286 1.034-2.963 1.37-6.821 1.425.252.168.447.532.475 1.091zm-33.966-18.088c-3.159-.056-6.318-.112-9.477-.196v1.482c3.159.084 6.318.14 9.477.224zm-61.112-5.395c-.783-.056-1.594-.112-2.516-.168-7.045-.364-10.232-9.673-11.211-13.447-.112-.028-.251-.028-.363-.056 0 .056 2.767 14.565 11.574 14.985.922.055 1.761.139 2.516.167zm162.564 4.892c-3.298.112-6.625.196-9.924.28v1.509c3.327-.084 6.626-.168 9.924-.279zm41.431-3.299c1.258-.084 2.6-.196 4.026-.279 8.834-.42 11.574-14.929 11.574-14.985-.112.028-.252.056-.364.084-1.006 3.746-4.165 13.083-11.21 13.419-1.426.112-2.74.196-4.026.279v.028c-4.696.336-9.421.615-14.145.923v1.482c4.752-.308 9.449-.615 14.145-.951zm-16.018 15.935c5.004.14 9.98.308 14.984.503v-1.509c-4.976-.168-9.98-.336-14.984-.476-4.613-.139-6.486-.838-8.192-2.851-1.425-1.677-2.124-3.97-2.124-6.933v1.481c0 2.964.699 5.256 2.124 6.934 1.706 2.012 3.579 2.711 8.192 2.851zm-187.977 18.815c4.053-.615 8.135-1.203 12.189-1.762v-1.481c-4.082.559-8.136 1.146-12.189 1.761zm202.961-1.873c-8.415-1.259-16.858-2.349-25.3-3.299v1.481c8.442.951 16.885 2.041 25.3 3.299 5.228.783 7.464.531 9.477-1.426 1.929-1.817 2.684-4.696 2.684-10.343v-1.51c0 5.647-.755 8.555-2.684 10.344-2.041 1.985-4.249 2.236-9.477 1.454zm-93.513-10.596c2.879.028 5.787.056 8.694.112v-1.51c-2.907-.056-5.787-.084-8.694-.111zm-85.21-8.918c-4.473.112-7.604.196-12.049.308v1.481c4.445-.111 7.576-.223 12.049-.307zm138.326 9.282c-6.206-.392-12.384-.727-18.618-.979v1.51c6.206.279 12.412.587 18.618.978 3.858.252 5.703-.14 7.017-1.593 1.091-1.174 1.622-3.02 1.622-5.284v-1.51c0 2.293-.559 4.11-1.622 5.284-1.342 1.454-3.187 1.845-7.017 1.594zm-44.422-15.796v1.51c3.523 4.669 7.073 9.393 10.596 14.286 2.795.083 5.591.167 8.386.279v-1.509c-2.795-.112-5.591-.196-8.386-.28-3.523-4.892-7.073-9.617-10.596-14.286zm-25.356 13.95c-2.656.028-5.34.056-8.023.112-4.026.084-5.675-.223-7.017-1.286-1.258-.95-1.678-2.236-1.678-4.836v1.482c0 2.6.42 3.885 1.678 4.836 1.342 1.062 2.963 1.342 7.017 1.286l5.814-.084c.699-.587 1.426-1.09 2.209-1.51zm-68.548 10.54c4.081-.475 8.163-.895 12.244-1.286v-1.51c-4.081.392-8.163.839-12.244 1.286zm43.499-11.406c-1.453 1.09-3.103 1.509-6.625 1.649-3.159.14-6.318.28-9.477.448-3.551.195-5.2-.084-6.654-1.147-1.37-1.062-2.013-2.739-2.013-5.451v1.51c0 2.711.615 4.389 2.013 5.451 1.482 1.062 3.103 1.342 6.654 1.146 3.159-.168 6.318-.307 9.477-.447 3.522-.14 5.172-.559 6.625-1.65 1.398-1.09 2.013-2.627 2.013-5.06v-1.509c0 2.46-.615 3.998-2.013 5.06z" fill="#be955b"/></g></svg>