<svg clip-rule="evenodd" fill-rule="evenodd" stroke-linejoin="round" stroke-miterlimit="2" viewBox="0 0 560 400" xmlns="http://www.w3.org/2000/svg"><g transform="matrix(1.95426 0 0 1.95426 91.5317 -1256.86)"><path d="m184.156 721.185c0-2.887-2.97-4.817-5.204-6.063-.965-.538-2.144-.877-3.188-1.27-1.277-.483-2.714-.709-4.046-1.006-1.393-.31-2.977-.312-4.402-.354-1.401-.042-2.737-.002-4.119.248-1.314.239-2.549.628-3.666 1.374-1.242.831-1.502 2.068-2.241 3.269-.215-.549-1.034-.837-1.408-1.264-.825-.942-2.116-1.543-3.217-2.094-2.074-1.037-4.313-1.398-6.62-1.521-.596-.031-1.194-.063-1.791-.063-.128 0 .05-.872.065-.949.225-1.222.174-2.527-.304-3.682-.457-1.105-1.252-2.087-2.287-2.695-1.306-.765-2.481-.721-3.954-.721 1.063-2.633 1.473-6.239-.838-8.317-.997-.897-2.154-1.676-3.533-1.757-1.645-.098-2.84.522-4.238 1.28-3.024 1.639-6.078 3.514-8.861 5.532-1.286.932-2.623 1.785-3.881 2.754-1.182.911-2.58 1.643-3.598 2.743-.452.487-.816 1.052-1.047 1.676-.1.272-.188 1.219-.669 1.008-1.371-.601-2.982-.82-4.465-.897-2.978-.155-6.211.564-8.988 1.623-2.778 1.06-5.466 2.953-7.47 5.141-.641.7-1.094 1.522-1.714 2.231-.344.391-.479.106-.69-.028-.328-.208-.682-.404-1.014-.57-.297-.149-.843-.507-1.172-.507-.533 0-1.052-.507-1.652-.507-.889 0-1.667-.253-2.717-.253-1.997 0-3.63.148-5.104.697-.405.15-.865.415-1.267.57-.312.119-.857.507-1.141.507-.107 0-.389.186-.507.253-.63.356-1.41.837-2.028 1.331-2.501 2.002-4.695 4.458-6.269 7.235-.688 1.212-1.179 2.403-1.109 3.828.031.641.316 1.317.196 1.958-.106.572-.738.295-1.118.222-.418-.081-.501.014-.443-.444.082-.641.3-1.259.38-1.901.225-1.799.66-3.582 1.188-5.314.809-2.665 2.259-6.167 1.141-8.943-.91-2.257-3.517-4.05-5.985-3.644-2.219.364-3.641 1.926-5.458 3.06-1.222.763-2.127 1.971-3.336 2.737-.315.199-.972-1.257-1.122-1.487-.443-.685-.972-1.208-1.679-1.618-1.262-.731-2.55-.99-3.969-.606-.616.167-1.252.137-1.858.337-.712.236-1.352.636-2.05.905-1.34.516-2.587 1.111-3.837 1.819-.443.25-.941.261-1.359.552-.543.377-1.01.568-1.573.85-1.161.581-2.28 1.493-3.369 2.213-1.477.977-2.852 2.06-4.229 3.173-2.577 2.081-4.831 4.359-6.933 6.915-2.154 2.62-4.129 5.283-5.794 8.248-1.594 2.838-2.897 5.555-2.227 8.897.13.644.328 1.245.682 1.801.227.357.738.679.607 1.162-.144.523-.465.972-.598 1.508-.199.79-.378 1.569-.623 2.349-.96 3.037-1.441 6.383-1.668 9.555-.451 6.321-.345 12.932 2.4 18.777 1.4 2.981 3.485 5.165 5.775 7.455.579.58 1.289 1 1.931 1.511.383.304.816.424 1.189.699.473.35.883.718 1.454.919 1.047.364 2.059.902 3.081 1.359 1.229.551 2.619.687 3.905 1.062 1.355.394 2.935.585 4.344.596.815.006 1.63-.044 2.444-.059.879-.015 1.719-.32 2.59-.32.727 0 1.373-.444 2.097-.444.647 0 1.16-.508 1.802-.508.536 0 1.168-.339 1.63-.59.48-.262.976-.391 1.449-.627 2.657-1.332 4.843-3.086 7.073-5.014 2.398-2.075 4.231-4.828 6.241-7.264.983-1.192 2.036-2.355 2.954-3.597.463-.622.807-1.265 1.086-1.987.317-.826.773-.717 1.491-1.005 1.429-.574 2.395-1.652 3.522-2.654 1.259-1.117 2.57-2.208 3.778-3.376 1.693-1.64 3.609-3.06 5.264-4.768.455-.469.839-.987 1.266-1.474.43-.488 1.408-.276 1.979-.276h2.616c.89 0 1.808.144 2.641-.209.543-.23 1.274-.614 1.871-.614.357 0 .918-.473 1.267-.616 1.252-.509 2.59-1.648 3.559-2.566.728-.691 1.187-1.753 1.991-2.339.391-.286.603.146.863.398.293.286.942.564 1.317.751 1.332.667 2.572 1.463 4.028 1.839 1.454.378 3.034.295 4.528.313 2.94.038 5.781-.9 8.372-2.274 1.133-.601 2.039-1.357 2.992-2.189 1.136-.993 2.003.577 2.967 1.19 2.399 1.529 5.738 2.837 8.637 2.101 1.309-.333 2.458-.587 3.699-1.154.498-.227.947-.232 1.407-.581.503-.383.99-.901 1.662-.592 1.237.571 2.329 1.18 3.686 1.462 1.561.324 3.149.585 4.748.561 1.453-.02 2.928-.177 4.329-.571.755-.214 1.492-.482 2.233-.737.669-.232 1.255.31 1.703.73.452.42.932.805 1.44 1.153.385.266.892.376 1.239.662.341.278 2.93.87 3.353.931 7.121 1.031 12.885-1.035 14.148-1.728.428-.234 3.375-2.163 3.704-2.559 1.628-1.959 2.962-4.3 3.656-6.751.702-2.48 1.242-5.074.728-7.646-.257-1.283-.482-2.449-1.058-3.637-.246-.507-.626-1.035-.795-1.571-.143-.456.941-1.147 1.194-1.487 1.645-2.216 2.82-4.933 4.082-7.382.57-1.107 1.163-2.182 1.491-3.391.192-.699.783-2.293.345-2.998z" fill="#1f1a17"/><path d="m73.905 757.998c.299-2.268-4.082-.577-4.941-.38 0-2.081-.029-4.083-.255-5.893-.237-1.91-.414-3.66-.759-5.385-.338-1.687-.692-3.475-1.394-4.879-.722-1.442-1.278-2.911-2.472-3.865-.465-.372-1.111-.745-1.774-.887-1.171-.252-2.236.109-3.104.443-.63.243-1.165.5-1.648.887-.427.341-.901.837-1.394 1.078.224-.881.264-1.789.38-2.725.105-.841.339-1.761.443-2.598.226-1.817.543-3.535.888-5.259.335-1.674.882-3.336 1.204-4.943.348-1.743.994-3.197 1.33-4.878.089-.448.157-.946.127-1.395-.044-.664-.643-.967-1.52-.696-.282.086-.674.458-.951.634-.291.184-.611.476-.888.696-1.167.935-2.496 1.735-3.548 2.788-2.097 2.1-4.475 4.009-6.335 6.337-.921 1.151-1.918 2.215-2.725 3.484-.433.681-.885 1.065-1.077 2.028-.162.811-.458 2.122.507 2.344.95.219 1.576-.75 2.408-.887-.446 1.748-.4 3.58-.761 5.386-.349 1.748-.581 3.489-.697 5.449-.108 1.824-.462 3.794-.57 5.639-.115 1.942-.254 3.826-.254 5.893 0 2.066.145 4.052.254 5.892.114 1.948.21 3.837.57 5.64.164.82.336 1.743.507 2.597.14.7.741 1.919.253 2.408-.257.256-.541.534-.823.761-.178.142-.657.697-.888.697-.307 0-.704.511-.95.633-.282.141-.942.508-1.204.508-.564 0-1.032.507-1.617.507-.99 0-1.881.255-3.072.19-1.443-.08-3.044-.35-4.118-.888-1.449-.725-2.837-1.409-3.675-2.724-.86-1.35-1.264-2.773-1.774-4.562-.453-1.583-.549-3.787-.317-5.64.215-1.732.708-3.423 1.267-4.878.577-1.501 1.141-3.015 1.964-4.308 1.65-2.593 3.396-4.982 5.513-7.097 1.064-1.065 2.108-2.093 3.294-3.042.415-.331 1.386-1.204 1.997-1.204.894 0 .944-1.347 1.045-2.154.455-3.653.876-7.291 1.584-10.835.333-1.669.612-3.51.951-5.196.186-.927.326-1.727.443-2.661.045-.362.064-.931.064-1.394 0-.646-.014-.926-.444-1.14-1.156-.579-2.382.76-3.359.76-.375 0-.961.365-1.33.507-.362.14-.741.402-1.077.57-1.435.717-2.786 1.456-4.182 2.154-2.753 1.38-5.104 3.412-7.413 5.26-1.165.931-2.182 2.054-3.232 3.104-1.052 1.053-2.107 2.126-3.041 3.295-1.892 2.365-3.463 4.916-5.132 7.54-.409.644-.67 1.425-.951 2.154-.237.614-.649 1.654-.38 2.599.168.59.956.697 1.583.38.342-.173.599-.466.888-.697.568-.455 1.259-.879 1.774-1.394.257-.257.691-.808 1.077-.888-.51.532-.801 1.333-1.204 1.965-.4.629-.793 1.334-1.139 2.027-.688 1.372-1.456 2.811-1.902 4.372-.445 1.557-1.05 3.16-1.395 4.878-.332 1.662-.783 3.509-.887 5.26-.22 3.737-.52 7.987-.062 11.658.234 1.883.69 3.507 1.267 5.007.613 1.591 1.322 2.81 2.154 4.118.408.641.808 1.251 1.33 1.774.528.529 1.121.992 1.648 1.52 1.014 1.014 2.343 1.997 3.675 2.661 1.665.833 3.554 1.734 5.639 2.092 1.731.297 4.042.411 5.957.191.903-.104 1.705-.174 2.533-.318.579-.099 1.198-.349 1.776-.507 1.797-.491 3.45-1.308 4.878-2.217 1.251-.797 2.58-1.693 3.611-2.725 1.05-1.049 2.175-2.069 3.105-3.232.467-.582.919-1.18 1.394-1.774.455-.568.815-1.321 1.331-1.837 1.031-1.032 1.939-2.281 2.852-3.422.446-.558 1.03-1.09 1.14-1.964.134-1.069-.101-2.033-.317-2.789-.468-1.638-.719-3.414-.95-5.258-.227-1.807-.457-3.687-.571-5.639-.051-.881-.063-1.995-.063-2.978 0-1.051.147-1.909.38-2.725.23-.803.495-1.635 1.014-2.154.316-.315.551-.582.824-.127.192.321.339.679.506 1.014.707 1.411.717 3.323.95 5.196.232 1.85.268 3.981.382 5.893.06 1.036.068 1.998.125 2.977.059.991-.065 2.018.127 2.978.075.372.421.823.834.823.807 0 .941-.251 1.321-.633.528-.528 1.119-.993 1.647-1.52 2.114-2.111 4.54-3.908 6.653-6.02.645-.643 1.383-1.193 2.028-1.837.331-.332.688-.539.95-.95.165-.259.439-1.252.19-1.648z" fill="#e18742"/><path d="m179.213 721.185c-.112-.551-1.235-1.22-1.711-1.458-.326-.162-.686-.406-1.013-.569-.312-.156-.92-.507-1.267-.507-.216 0-.455-.254-.666-.254-.235 0-.718-.152-.982-.253-.533-.205-1.157-.341-1.774-.508-.646-.173-1.446-.379-2.304-.379-1.321 0-2.508-.064-3.874-.064-1.072 0-1.846.316-2.756.316-.559 0-.822.505-1.013.888-.307.613-1.062 2.221.379 2.155-.432.476-1.489.797-2.028 1.14-.681.433-1.301.788-1.901 1.267-.594.475-1.206 1.026-1.754 1.633-.345-.737-.749-1.42-1.223-2.012-.484-.607-.854-1.234-1.394-1.775-.253-.253-.507-.507-.761-.761-.151-.151-.594-.76-.823-.76-.319 0-.633-.633-.952-.633-.246 0-.783-.456-1.013-.571-.936-.468-2.162-.88-3.358-1.013-1.918-.215-3.903-.074-5.575.253-1.084.212-2.117.722-3.042 1.077-.815.313-1.582.632-2.345 1.014-.335.168-.648.441-.949.633-.208.132-.805.571-1.014.571-.206 0-.721.563-.887.697-.279.223-.57.506-.824.76-.24.24-.581.54-.761.824-.211.331-.288.741-.254 1.33.025.398.24 1.04.19 1.331-.054.326-.532.631-.696.887-.423.665-.772 1.298-1.077 2.091-.216.561-.5.953-.444 1.901.02.326.032.681.127 1.014.147.513.412.483 1.014.57-.442 1.544-.951 3.222-.951 5.259 0 2.105.17 4.019.507 5.702.074.366.172.732.282 1.094-.477.017-.959.035-1.422-.017-.798-.087-1.796-.739-2.218-1.267-.505-.63-.752-1.237-1.014-2.154-.456-1.595-.281-3.891-.062-5.639.232-1.867.393-3.614.759-5.45.346-1.731.812-3.36 1.142-5.005.178-.9.408-1.689.633-2.471.176-.618.486-.646 1.076-.824.25-.075.487-.172.698-.253.181-.071.57-.254.696-.254.594 0 1.62-.877 2.027-1.204.59-.471 1.195-.93 1.775-1.394 1.197-.957 1.958-2.16 2.916-3.358.553-.693.921-1.653 1.329-2.471.216-.432.424-.817.572-1.33.085-.301.391-1.277.189-1.585-.273-1.329-3.353.19-4.29.19-.694 0-1.663.37-2.363.571-.665.189-1.368.483-2.091.634.618-1.543.94-3.356 1.394-4.943.463-1.62.881-3.24 1.331-4.815.295-1.036.431-2.374-1.204-1.901-.723.209-1.427.758-2.028 1.14-.648.412-1.363.808-2.027 1.141-.35.174-.689.363-1.015.57-.203.129-.718.634-.95.634-.28 0-.731.494-.951.633-.332.212-.639.437-.949.634-.331.209-.633.431-.952.634-.2.127-.742.633-.949.633-.208 0-.749.506-.951.633-.303.194-.583.504-.887.698-.655.416-1.244.849-1.901 1.267-.321.204-1.076 1.078-1.458 1.078-.118 0-.68.407-.76.506-.234.294-.256.515-.38.951-.173.608-.417 1.582.063 1.964.378.301 1.371.063 1.858.063h3.275c-.371.634-.625 1.648-.824 2.345-.234.818-.522 1.575-.76 2.408-.447 1.566-.997 3.204-1.458 4.815-.943 3.3-1.696 6.712-2.154 10.391-.11.873-.328 1.908-.38 2.788-.032.554-.032.925-.064 1.457-.014.255-.002.451-.062.634-.025.078.054.324 0 .381-.104.105-.548.005-.698.063-.497.188-.86 1.522-1.141 1.964-.432.68-.78 1.284-1.393 1.774-.58.463-1.195.922-1.838 1.331-.733.466-1.809.961-2.851 1.013-1.018.051-1.94-.058-2.661-.253-.382-.104-.935-.507-1.268-.507-.656 0-1.455-1.011-1.836-1.394-.485-.485-1.269-1.522-1.395-2.281.429.214.941.36 1.458.507.227.065.652.253.886.253.474 0 1.28.064 1.864.064 1.476 0 2.706-.385 3.712-.888 1.515-.756 2.739-1.411 3.739-2.66.468-.585.98-1.124 1.393-1.775.425-.667.646-1.36.952-2.154.277-.726.589-1.524.823-2.344.218-.764.328-1.777.38-2.661.11-1.862.078-4.234-.254-5.894-.339-1.697-.904-3.295-1.711-4.562-.776-1.22-1.961-2.375-3.294-3.041-.855-.427-1.796-1.014-3.049-1.014-.417 0-.752-.1-1.26-.126-.467-.023-1.052 0-1.577 0-.758 0-1.623.24-2.352.38-.563.108-1.256.371-1.773.57-.336.13-.959.507-1.267.507-.259 0-.819.377-1.078.507-.25.125-.728.57-1.014.57-.354 0-.613.633-.95.633-.306 0-.605.697-.887.697-.43 0-1.29 1.292-1.584 1.585-.379.38-.633.888-1.014 1.267-.325.326-.912.755-1.014 1.267-.144.719-.032 1.472.128 2.028.307 1.077.847.365 1.519.254-.7 1.409-1.355 2.784-1.709 4.562-.321 1.602-.773 3.318-.888 5.258-.113 1.919-.179 3.899-.064 5.894.036.602.226.938-.252 1.33-.402.328-.401.418-.571 1.013-.248.865-.346 1.704-.697 2.408-.751 1.505-1.735 2.295-3.105 3.167-.782.5-2.228.952-3.363.952-1.114 0-1.878-.017-2.656-.317-.32-.123-.722-.384-1.014-.571-.831-.527-1.807-1.549-2.154-2.534.35.014.612.112 1.014.191.366.071 1.019.126 1.578.126.708 0 1.498-.208 2.097-.38.936-.268 1.799-.672 2.534-1.14 1.291-.823 2.22-1.942 3.041-3.232.759-1.191 1.467-2.833 1.775-4.372.338-1.688.492-3.794.253-5.703-.117-.938-.217-1.905-.38-2.725-.18-.901-.401-1.688-.76-2.408-.347-.69-.677-1.384-1.141-1.963-.231-.288-.471-.592-.76-.824-.17-.135-.675-.697-.888-.697-.174 0-.786-.457-1.014-.57-.479-.24-1.008-.507-1.694-.507-.807 0-2.162-.063-3.069-.063-.601 0-1.34.326-1.826.507-1.694.63-2.914 1.392-4.182 2.408-1.183.946-1.918 2.234-2.977 3.294-.54.539-.907 1.108-1.332 1.774-.225.355-.439.536-.506 1.077-.065.519.039 1.018.127 1.458.029.148.045.443.126.57.113.177.336.225.38.444.032.159-.426.868-.506 1.077-.288.746-.594 1.574-.761 2.407-.336 1.676-.495 3.672-.38 5.639.112 1.924.491 3.664.824 5.323.329 1.642 1.091 3.196 1.774 4.562.714 1.43 1.719 2.496 2.661 3.676.439.549 1.112 1.075 1.711 1.456.337.215.643.386 1.013.571.288.143.843.569 1.204.569.352 0 1.12.363 1.521.508.551.201 1.408.407 2.091.444 1.729.093 2.983-.3 4.182-.762 1.555-.596 2.786-1.58 3.865-2.66 1.061-1.062 1.817-2.114 2.534-3.548.336-.672.539-1.442.76-2.218.223-.778.362-1.733.38-2.661.521.469.631 1.488 1.014 2.091.37.579.844 1.35 1.331 1.837.523.523 1.007 1.122 1.584 1.585.376.3 1.327 1.33 1.838 1.33.203 0 .84.448 1.077.57.421.217.731.353 1.268.507.628.18 1.214.443 2.075.443.337 0 .925.127 1.439.127.609 0 1.054-.063 1.698-.063.413 0 1.391-.274 1.82-.444.446-.177 1.028-.405 1.458-.57.833-.32 1.58-.631 2.28-1.077 1.207-.767 2.466-1.903 3.232-3.106.41-.642.732-1.335 1.077-2.026.16-.319.313-.736.444-1.077.143-.372.122-.946.38-1.205.019-.019-.002-.161 0-.189h.128c.034.829.486 1.698.759 2.406.283.737.738 1.397 1.141 2.029.362.57.993 1.226 1.521 1.647.304.243.542.478.887.698.221.14.668.634.95.634.26 0 .817.375 1.076.505.421.21 1.101.508 1.648.508.402 0 .709.126 1.242.126.548 0 1.179-.126 1.546-.126.605 0 1.248-.324 1.711-.508 1.618-.64 2.873-1.414 3.991-2.534.249-.248.462-.512.662-.784.451.496 1.02.882 1.493 1.354.487.487 1.339.955 1.964 1.267.945.474 2.447.827 3.612.951 1.079.116 2.289 0 3.323 0 .664 0 1.464-.443 2.031-.443.523 0 1.093-.508 1.553-.508.36 0 .979-.421 1.267-.57.646-.333 1.239-.702 1.798-1.098.748.921 1.516 1.811 2.447 2.556.166.133.617.76.824.76.274 0 .576.698.887.698.204 0 .773.45 1.013.57.326.162.87.57 1.3.57.409 0 1.107.379 1.553.507.555.158 1.404.443 2.046.443 1.044 0 2.419-.127 3.248-.127.712 0 1.454-.229 2.055-.444 3.334-1.184 5.339-3.198 6.843-6.208.675-1.35 1.245-3.053 1.458-4.753.109-.879.109-1.912 0-2.788-.107-.851-.369-1.75-.697-2.408-.7-1.401-1.546-2.687-2.598-3.738-1.057-1.056-2.303-1.921-3.358-2.978-.488-.488-1.13-1.088-1.395-1.774-.192-.501-.016-.696.38-.887.716-.344 2.034-.063 2.927-.063 1.112 0 2.165.481 2.903.95.322.205.527.516.887.697.521.262 1.117.029 1.394-.317.454-.567.753-1.444 1.076-2.091.352-.703.724-1.38 1.078-2.09.693-1.388 1.585-2.702 2.154-4.182.152-.393.707-1.611.444-2.028zm-75.908 4.055c.816-.519 2.151-.903 3.042-.19.606.485.955 1.05 1.077 2.028.109.879-.182 1.821-.507 2.471-.164.327-.383.701-.634.951-.152.151-.657.697-.887.697-.192 0-.338.253-.557.253-.442 0-.881-.064-1.281-.064-.356 0-.953-.401-1.14-.634-.314-.392-.411-2.217-1.013-2.217-.267 0-.844.163-.951.127.731-1.459 1.512-2.569 2.851-3.422zm-26.802 8.047c.252-.68.864-1.287 1.394-1.711.274-.22.567-.532.888-.696.492-.253 1.371-.498 2.027-.317 1.613.444 1.348 3.135.697 4.435-.403.805-2.193 1.672-3.106.76-.351-.352-.538-.775-.696-1.33-.183-.639-.328-1.194-1.204-1.141zm71.664 5.513c-.866 1.359-1.889 2.268-3.422 2.978-1.129.522-2.996.326-3.994-.191-.658-.341-1.051-1.091-1.393-1.773-.316-.634-.637-1.504-.697-2.408-.059-.887.229-1.912.444-2.661.446-1.561 1.15-2.862 2.154-3.865.546-.547 1.157-.908 1.965-1.205.361-.132.811-.334.949-.696.166-.43-.054-.878-.125-1.268 1.021-.182 1.904.509 2.534.824.641.321.968.799 1.393 1.33.403.504.746.991.951 1.711.106.372.168.647.253 1.077.047.233.065.901.191 1.142 0 .992-.151 1.919-.381 2.723-.228.803-.411 1.635-.822 2.282zm12.872 7.667c-.871 0-1.588-.838-2.165-1.204-.708-.451-1.081-.954-1.648-1.521-.338-.338-.632-.719-.93-1.094.23-.552.455-1.114.677-1.694.285-.74.524-1.53.721-2.349 1.41 1.352 2.992 2.524 4.221 4.06.97 1.211 1.96 3.802-.876 3.802z" fill="#e18742"/><g fill="#eee817"><path d="m115.281 740.319c.077-.545-.236-.946-.317-1.458-.229 0-.49 1.026-.62 1.279-.265.514-.617.956-1.019 1.37-.552.571-1.152.955-1.707 1.489-1.67 1.609-4.007 1.929-6.204 1.772-2.273-.165-4.31-1.45-5.453-3.447-.555-.968-.94-2.036-1.326-3.08-.421-1.134-.684-2.197-.78-3.501 1.466 1.828 2.916 3.067 5.361 3.182 2.433.116 4.983-.597 6.861-2.171 4.011-3.36 4.929-9.368 3.881-14.242-.47-2.191-1.726-4.44-3.6-5.743-1.886-1.311-4.083-1.791-6.365-1.534-2.346.263-4.381 1.052-6.473 2.128-1.13.582-2.084 1.418-2.983 2.306-.788.777-1.895 1.625-2.384 2.641.829-.137 1.697-.887 2.494-1.183.926-.343 1.885-.973 2.892-1.098-.686.89-1.595 1.553-2.268 2.476-.782 1.071-1.497 2.231-2.066 3.431-1.092 2.307-1.631 5.025-1.902 7.547-.557 5.169-.141 11.265 3.178 15.545 3.309 4.268 8.864 5.406 13.721 3.275 2.304-1.011 4.181-2.512 5.429-4.745.587-1.047 1.062-2.233 1.356-3.396.172-.687.707-2.181.294-2.843zm-17.426-7.224c-.172-1.53.356-3.454.892-4.874.572-1.516 1.367-3.09 2.658-4.123 1.929-1.545 5.182-2.594 6.274.409.523 1.435.762 3.168.252 4.639-.194.564-1.103 2.809-1.901 2.809-.428 0-.845.609-1.289.716-.712.172-1.569.172-2.247-.131-.593-.265-1.208-.806-1.44-1.428-.073-.195-.315-1.279-.536-1.311-.215-.032-.955 1.227-1.129 1.469-.186.262-1.155 1.935-1.534 1.825z"/><path d="m90.253 741.586c.103.915-.307 1.912-.57 2.598-.281.728-.817 1.336-1.268 1.901-.949 1.187-2.467 2.152-4.118 2.598-1.347.364-3.211.617-4.562.126-.899-.325-1.613-.607-2.281-1.139-1.125-.901-1.926-2.331-2.598-3.676-.336-.673-.675-1.477-.887-2.218-.252-.883-.266-1.778-.507-2.724.526.476.696 1.471 1.14 2.027.357.446 1.276 1.267 2.009 1.267.23 0 .524.254.753.254.644 0 1.323-.063 1.875-.063.715 0 1.311-.342 1.89-.507.882-.252 1.649-.637 2.28-1.141 1.211-.969 2.122-2.027 2.852-3.484.663-1.327 1.286-2.915 1.394-4.753.118-2.003.006-4.066-.443-5.639-.473-1.657-1.163-2.874-2.218-3.929-.561-.561-1.14-.885-1.9-1.267-1.259-.629-3.536-.443-5.006-.19-1.848.317-3.332 1.296-4.563 2.281-.902.722-1.558 1.694-2.28 2.598-.702.876-1.584 1.837-2.092 2.851 1.215-.796 2.492-1.439 3.928-2.027-.929 1.168-1.968 2.261-2.788 3.548-.832 1.31-1.301 2.909-1.773 4.562-.217.759-.389 1.662-.445 2.598-.058 1.005-.059 1.956 0 2.978.105 1.759.587 3.628 1.142 5.069.587 1.525 1.154 3.013 2.09 4.181.974 1.218 1.889 2.261 3.105 3.234.293.232.637.432.951.631.226.146.735.571 1.013.571.355 0 .874.472 1.268.571.576.143 1.278.443 1.901.443.519 0 1.24-.064 1.65-.064.538 0 .904-.189 1.233-.189.5 0 1.049-.346 1.488-.507.784-.289 1.38-.855 2.028-1.269 1.303-.827 2.15-2.057 2.978-3.357.416-.654.656-1.405.888-2.217.227-.794.507-1.584.507-2.598v-1.901c0-.526.173-1.652-.064-2.028zm-16.791-3.231c0-.981.085-1.944.253-2.788.164-.817.356-1.725.697-2.408.702-1.407 1.428-2.739 2.598-3.675.615-.492 1.626-1.077 2.656-1.077.963 0 1.294.118 1.78.507.341.274.488.469.696.887.596 1.191.787 4.001.127 5.322-.59 1.181-1.589 2.345-3.294 2.345-1.108 0-1.601-.407-2.028-1.078-.147-.229-.337-.48-.444-.76-.118-.308-.136-.768-.317-1.014-.335.676-.867 1.323-1.33 1.901-.274.342-1.104 1.844-1.394 1.838z"/><path d="m59.143 717.763c-.071.07-.07.069 0 0z"/><path d="m15.485 745.007c-.068.069-.07.071 0 0z"/><path d="m71.497 758.251c-.134.121-1.148.253-1.331.253-.341 0-.72.229-1.013.316-.558.168-1.06.357-1.584.572 0-1.952.046-4.151-.063-6.021-.117-2.01-.471-3.701-.697-5.512-.212-1.703-.693-3.446-1.267-4.942-.553-1.438-1.275-2.984-2.282-3.992-.245-.246-.566-.537-.886-.697-.594-.297-1.213-.254-2.028-.254-.926 0-1.842.678-2.471 1.078-.607.387-1.27.89-1.774 1.394-.508.507-.937 1.231-1.521 1.648-.062.043-.123.135-.19.189.231-1.841.474-3.719.697-5.512.224-1.798.607-3.525.824-5.259.211-1.688.558-3.475 1.014-5.069.479-1.675.726-3.398 1.204-5.069.163-.572.282-1.146.442-1.711.156-.541.538-1.219.508-1.837-1.309.657-2.486 1.824-3.612 2.724-1.166.934-2.307 1.927-3.358 2.978-2.13 2.13-4.186 4.217-6.083 6.59-.636.795-1.594 1.72-1.964 2.725.615-.307 1.24-.652 1.837-.951.558-.278 1.228-.788 1.838-.886-.303.757-.35 1.813-.507 2.597-.183.912-.328 1.738-.443 2.66-.228 1.813-.522 3.534-.761 5.45-.445 3.553-.887 7.507-.887 11.405 0 2.034.077 4.04.19 5.956.114 1.933.204 3.93.57 5.766.34 1.701.49 3.584.951 5.197.185.649.669 1.973.444 2.47-.269.591-1.13 1.129-1.585 1.585-.504.504-1.103 1.071-1.71 1.457-.494.313-1.424 1.141-2.092 1.141-.592 0-1.065.506-1.711.506-.285 0-.629.253-.869.253-.607 0-1.028.064-1.59.064-1.131 0-2.088-.02-3.053-.19-.264-.048-.633-.254-.95-.254-.319 0-.618-.253-.856-.253-.759 0-1.76-.789-2.313-1.141-.684-.435-1.158-.905-1.71-1.457-1.137-1.138-1.572-2.436-2.218-4.118-.557-1.453-.839-3.322-.95-5.196-.064-1.07.009-2.103.127-3.042.12-.968.283-1.86.442-2.661.343-1.711.831-3.306 1.522-4.689.719-1.44 1.324-2.812 2.154-4.118 1.617-2.541 3.557-4.826 5.64-6.907 1.082-1.082 2.024-2.129 3.358-2.977.307-.196.615-.421.951-.635.225-.144.958-.397 1.077-.633.16-.322.144-.964.189-1.33.057-.46.136-.956.19-1.394.441-3.533.966-7.176 1.648-10.582.412-2.06.831-4.234 1.14-6.273-.704.04-1.25.313-1.774.507-.384.143-1.003.507-1.362.507-.341 0-.895.376-1.236.507-.33.127-.696.412-1.014.57-1.407.703-2.878 1.326-4.181 2.154-1.276.811-2.634 1.601-3.802 2.535-.604.482-1.235.855-1.775 1.393-.51.512-1.149 1.009-1.71 1.459-2.299 1.841-4.368 4.16-6.21 6.462-1.895 2.369-3.451 4.941-4.878 7.794-.213.424-.616.962-.698 1.457.62-.3 1.234-.98 1.711-1.457.511-.511 1.213-.945 1.774-1.394.303-.242.619-.423.951-.634.204-.13.624-.697.887-.697.204 0 .748-.504.95-.633.201-.127.639-.697.887-.697.441 0 .854-.887 1.331-.887.324 0 1.049-.708 1.331-.888.926-.589 1.939-1.095 2.914-1.583-.096.245-.619.597-.823.76-.297.237-.622.43-.888.697-.528.528-.992 1.119-1.52 1.647-.531.531-.984 1.119-1.457 1.711-.443.553-1.021 1.124-1.394 1.711-.814 1.277-1.584 2.57-2.408 3.865-.822 1.291-1.447 2.767-2.154 4.181-.686 1.369-1.267 2.945-1.711 4.499-.46 1.61-.857 3.27-1.204 5.006-.343 1.717-.634 3.649-.634 5.575 0 2.041-.053 4.027.064 6.021.101 1.715.591 3.579 1.14 5.005.572 1.486 1.215 2.969 2.028 4.245.827 1.299 2.042 2.171 3.104 3.231.541.54 1.171.91 1.775 1.394.288.231.635.434.95.635.203.128.802.57 1.014.57.314 0 .851.458 1.141.569.401.155.934.508 1.361.508.467 0 1.092.369 1.554.506.524.157 1.516.444 2.015.444 1.201 0 2.206.127 3.501.127.911 0 1.569-.254 2.537-.254.56 0 1.282-.443 1.883-.443.698 0 1.214-.507 1.848-.507.447 0 .941-.35 1.331-.507.283-.114.838-.571 1.14-.571.343 0 .661-.57 1.014-.57.287 0 .735-.496.951-.633 1.328-.845 2.405-1.773 3.485-2.851 1.165-1.165 4.839-5.612 5.956-6.906.48-.557.935-1.201 1.394-1.776.395-.492 1.31-1.093 1.204-1.836-.125-.868-.456-1.678-.571-2.598-.217-1.731-.596-3.502-.823-5.323-.231-1.852-.39-3.756-.507-5.766-.114-1.952.07-4.11.507-5.639.241-.846.472-1.566.887-2.217.359-.566 1.054-1.458 1.934-1.458 1.722 0 2.037 2.653 2.437 4.056.457 1.6.591 3.635.697 5.449.183 3.081.317 6.072.317 9.377 2.336-1.878 4.441-4.021 6.779-5.892.38-.305.735-.671 1.078-1.014.156-.156.957-.951 1.14-.951s.985-.795 1.141-.951c.298-.296.883-.647 1.077-1.013zm-43.213-22.177c.07.069.07.069 0 0z"/><path d="m177.882 721.817c-.401-1.034-1.884-1.293-2.791-1.641-1.502-.577-2.951-1.294-4.559-1.527-1.468-.213-3.016-.253-4.499-.247-.904.006-2.839-.241-3.611.311 1.017-.047 1.868.695 2.803.971.817.242 1.86.459 2.456 1.119-4.431 0-9.609 2.197-11.749 6.183-.431-1.164-.968-2.277-1.572-3.268-1.414-2.324-3.277-4.029-5.838-4.966-2.921-1.07-6.532-.473-9.387.48-2.567.858-5.334 2.364-7.063 4.55.948-.221 1.814-.672 2.731-.982.874-.294 1.928-.349 2.844-.349-.521.58-1.388.732-2.026 1.14-.846.539-1.658 1.147-2.409 1.811-1.186 1.05-2.961 2.818-3.231 4.462 1.395-.955 2.873-2.693 4.626-2.978-1.602 1.999-3.017 3.908-3.812 6.382-.795 2.475-.808 5.342-.296 7.873.26 1.273.726 2.556 1.363 3.759-.723.312-1.441.513-2.274.527-1.702.025-3.716-1-4.601-2.474-1.083-1.806-.89-4.112-.772-6.119.14-2.42.498-4.767.971-7.143.462-2.324.932-4.649 1.522-6.946.21-.823.326-1.782.63-2.571.255-.657 1.498-.681 2.073-.887 4.345-1.561 6.968-5.163 8.934-9.129-.169-.014-.338-.014-.507 0-.596.313-1.322.311-1.968.446-.749.157-1.441.513-2.205.611-1.563.2-3.018.9-4.571 1.225.779-1.937 1.092-4.068 1.673-6.07.584-2.013.967-4.219 1.749-6.159-.681.11-1.263.616-1.812.996-.707.489-1.475.901-2.244 1.284-1.693.846-3.256 2.04-4.817 3.106-1.187.811-2.463 1.605-3.581 2.482-.894.702-2.322 1.312-3.006 2.206h5.828c-2.079 4.891-3.703 10.005-4.844 15.198-1.139 5.201-1.807 10.838-.991 16.131.359 2.33 1.254 4.644 2.732 6.493.64.799 1.365 1.583 2.149 2.243.684.577 1.481.699 2.285.994 2.167.793 5.113-.247 6.832-1.6.938-.739 1.663-1.643 2.232-2.683 1.688 2.093 4.004 3.624 6.765 3.826.68.05 1.372.014 2.054.014.512 0 .982-.19 1.478-.19.613 0 1.153-.296 1.743-.41.544-.105 1.001-.122 1.515-.371 2.379-1.159 4.196-2.559 5.871-4.599 1.713-2.089 2.943-4.66 3.669-7.254.227-.818.381-1.641.517-2.474.94 1.086 2.078 2.042 3.107 2.916 1.852 1.573 4.908 4.216 4.007 6.971-.215.656-.959 2.053-1.773 2.053-.536 0-.952.24-1.538.138-.58-.1-1.195-.644-1.757-.644-.433 0-.934-.623-1.249-.87-.606-.473-1.117-.96-1.61-1.551-.376-.451-.794-1.019-1.26-1.381-.476-.371-1.216 1.023-1.457 1.331-.884 1.133-1.849 2.206-2.978 3.105.761 1.15 1.561 2.286 2.514 3.287 1.914 2.012 4.602 3.392 7.384 3.645 4.349.397 8.581-1.607 10.953-5.288 1.942-3.012 1.912-7.378-.023-10.386-.935-1.452-2.485-2.551-3.719-3.737-1.249-1.201-3.097-2.752-2.901-4.679.166-1.633 1.54-2.406 3.049-2.446 1.061-.029 2.178-.026 3.195.322 1.07.363 1.847 1.226 2.866 1.603.233-1.412 1.458-2.846 2.09-4.11.396-.788.811-1.576 1.261-2.334.223-.377 1.071-1.26.83-1.73zm-28.069 14.003c-.098.795-.151 1.83-.697 2.471-.196 1.197-1.325 2.31-2.132 3.141-.995 1.026-2.1 1.691-3.533 1.899-2.187.317-4.224-.678-5.268-2.602-1.386-2.557-.8-5.615.08-8.208.676-1.989 2.326-4.798 4.707-5.002-1.234-1.017-3.873-.642-5.323-.57.425-.466 1.189-.75 1.772-.943.718-.236 1.627-.445 2.375-.553 1.939-.278 4.077.301 5.584 1.547 1.634 1.352 2.447 3.233 2.584 5.322.076 1.187-.001 2.32-.149 3.498z"/></g></g></svg>