<svg clip-rule="evenodd" fill-rule="evenodd" stroke-linejoin="round" stroke-miterlimit="2" viewBox="0 0 560 400" xmlns="http://www.w3.org/2000/svg"><g fill-rule="nonzero" transform="matrix(1.2 0 0 1.2 100 107.333)"><path d="m96.123 60.119c0 33.202-21.517 60.12-48.063 60.12-26.548-.001-48.06-26.919-48.06-60.12 0-33.199 21.512-60.119 48.06-60.119 26.546 0 48.063 26.92 48.063 60.119m-48.063 55.937c24.208 0 43.9-25.059 43.9-55.86 0-30.798-19.692-55.858-43.9-55.858s-43.905 25.06-43.905 55.858c0 30.801 19.698 55.86 43.905 55.86m0-109.101c22.764 0 41.284 23.886 41.284 53.24 0 29.356-18.52 53.24-41.284 53.24-22.766 0-41.282-23.884-41.282-53.24 0-29.354 18.516-53.24 41.282-53.24m2.849 6.555-.613-.305c-.104 1.744-.409 3.386-.409 5.131-.104.201-.414.41-.313.715 2.363 2.051 5.026 3.996 7.49 5.843 3.18 2.256 6.561 4.615 10.044 6.359 1.539-.925 3.385-1.438 5.131-2.152v-.309c-3.592-2.052-6.769-4.101-10.357-6.052l-.208.105c0 1.435.102 2.868.102 4.204-1.637-.819-3.275-2.155-4.816-3.177v-.207c0-.307.411-.41.717-.41 1.124-.308 2.253-.612 3.279-1.027v-.203zm1.232-.305h-.309c1.643 1.538 3.28 2.872 4.92 4.308 4.414 4.206 9.432 7.178 14.666 9.74-2.871-3.074-5.233-5.637-8.308-8.304zm-5.233 7.589c-.718-.518-1.639-.822-2.562-.718-2.052 0-2.151 2.663-3.284 3.794-.301.82-1.33 1.333-1.33 2.459.513 1.539 2.562 1.637 3.995 2.05.619-.1 1.44.205 1.748-.413.101-.408-.206-.408-.412-.408-.513-.204-.612-.713-.513-1.229.311-.409.824-.511 1.341-.511.817.715 1.427-.411 2.351-.106.82.106 1.133 1.027 1.333 1.745-.921-.204-1.943-.611-2.975-.41-.303.512 0 1.025.205 1.435.617-.103 1.437-.202 2.158-.307.413 0 .821.204.925.616 2.049.41 4.407.309 5.94 1.64 0 .618.925 1.229.313 1.744-1.95-1.95-4.923-2.255-7.588-1.744-.513-.307.1-.923-.312-1.23-1.743.307-3.178.924-4.82 1.642l-.204-.105c.105-.306 0-.512.105-.714-.411-.208-.717-.516-1.231-.516-.716 1.229.514 2.464.409 3.694.513 1.332 1.227-.414 2.049-.206.618 0 1.54-.516 1.949.206-.818.408-1.638.511-2.357 1.122-.202.314.104.52.205.719.717.922 2.152.309 3.075.825 0 .205-.104.408-.307.612-1.224.104-1.845 1.129-2.46 1.949-.611-.206-.41-.922-.514-1.335-.097-.51-.72-.51-1.021-.51-.312 1.334-.827 2.462-.925 3.691.202.819 1.127.514 1.638.614.821.206.308 1.234.618 1.744.716.203 1.639.203 2.457 0 .105.103.207.307.105.616-.306.512-.823.613-1.333.719-.205.2-.617.511-.411.921 1.33.716-.102 2.666 1.229 3.383 1.332.719 3.285.41 4.516-.203.818-.208 1.331-1.131 2.357-.822.104.205.307.101.307.408 2.053.106 3.999-.203 5.844-.507.722.099 1.435-.515 1.846.099 0 .101.107.205 0 .308-2.566 1.023-5.636.925-8.409 1.333-1.741.512-.921 2.356-1.126 3.793-1.022.51-.716-1.025-1.334-1.438-2.668.102-4.922 1.025-7.377 1.643-1.544.821-2.259 2.561-2.669 4.202 0 .924-.414 2.153.511 2.565 1.949.617 5.024 1.025 6.762-.413 1.443-.508 2.773-1.842 4.417-1.229.817-1.333 2.152-2.768 3.686-3.591.619-.205.619-.92 1.336-1.023.615.104.308.925.513 1.23 1.436.204 2.769-.412 4.205-.207.821.31.922 1.129 1.229 1.846 0 .314-.1.719-.203.925.513 1.023-.618 1.541-.205 2.665-1.747 2.667-4.202 4.92-7.487 5.536-.717.306-.204 1.333-.717 1.846-3.589 2.358-9.023 3.485-10.152 8.407-.718 2.566 1.544 3.589 3.075 4.613 2.052.413 3.077 3.079 5.437 2.464 1.025-2.563 1.232-5.436 2.254-7.998 2.972-5.229 6.463-10.151 11.073-13.944 1.542-1.127 3.082-2.666 5.232-2.666.307 0 .103.308.103.411-1.952.613-3.588 1.944-4.922 3.176-1.128 1.234-2.667 2.462-3.386 4.102-2.562 3.177-5.228 6.972-6.869 10.665-.1 1.229-.308 2.56-.1 3.79.41 0 .51-.511.82-.714 1.637-3.59 3.484-7.177 5.533-10.459 1.233-1.642 2.255-3.794 4.104-4.616l.102.104c-2.359 3.074-4.304 6.459-5.95 10.048-1.228 2.767-2.769 5.436-2.971 8.617.309.818 1.439.507 1.951 1.124.51.306.613.925.51 1.437-.1.41-.51.821-.918.821-.826-.204-.724-1.131-1.234-1.642-.309 0-.613-.311-.82 0-.104 1.23 1.13 2.361.102 3.483-.921.618-.719-.819-1.331-1.229-.313-.204-.925-.204-1.231 0-2.974 2.772-7.185 4.308-11.382 4.821-1.333.616-4.104-.409-4.104 1.847.206 2.048-.101 4.51 1.539 5.741 4.205.41 8.51.41 12.408-.717 2.972-.618 5.845-1.646 8.303-3.076 4.105-3.179 6.157-8.308 8.818-12.715 4.305-6.153 7.386-13.845 5.641-22.045-.204-4.507-4.715-5.949-7.181-8.718-.71-.512-1.226.31-1.845.208-1.229-.617.619-.721.619-1.436-1.026-1.333-.924-3.177-1.947-4.511-.615-.409-1.027.305-1.642 0-.41-2.154-1.026-4.304-2.047-6.154-2.258-1.54-2.358 2.256-4.414 2.153 0-.101-.205-.101-.1-.303 0-.313.507-.416.715-.619.509-.41.509-1.332.509-1.949-.405-.617-1.124-.617-1.841-.715-.409 0-.513-.412-.409-.823.613-.923 1.741-.1 2.666-.1 1.027-.721 2.05-.412 3.074-.823.821-.308 1.027-1.024.922-1.842.308-.106.719.202.925-.208 0-.513-.104-1.128-.41-1.537-3.384-1.847-6.05-5.023-9.946-6.154-.616-.306-1.949.209-1.744-.924-.41-1.126-1.846-1.228-2.869-1.535-.206-.309-.107-.722.207-.82.099-.206.099-.41-.105-.617-1.231-.304-1.744-1.844-2.363-2.867m2.053-.204c-.311 0-.615 0-.82.204-.102.307-.102.821.205 1.127 4.818 4 10.353 7.691 15.687 10.974.411.101.923.508 1.333.201.306-.309.103-.719-.099-.921-5.644-3.179-11.077-7.485-16.306-11.585m5.742 12.712c-2.154.206-4.206-.717-5.74-2.152-.312.103-.312.511-.211.716.721 1.13 2.262 1.847 3.692 2.255 1.031 2.155 3.287 3.077 5.54 3.281.207-.102.517-.102.412-.41-1.643-.512-3.588-1.027-4.407-2.668.305-.303.818-.203 1.124-.407.205-.307-.203-.409-.41-.615m6.664 1.435c-1.744.512-3.485-.413-5.123-1.024l-.105.309c1.742.92 3.286 2.255 5.534 1.943.308-.096.516-.305.516-.715 0-.406-.307-.513-.822-.513m7.279 0c-.199-.511-.616-.82-1.229-.82-.82-.307-1.54.205-1.948.721.104 1.231-1.743 1.231-1.436 2.561-.307.721-1.024.721-1.535.925 0 .307 0 .408.099.615.921.103 1.747.718 2.669.307.407 0 .407.307.407.613-.717.616-1.845.31-2.563.104v.408c.923.718 2.256 1.131 3.487.617 1.95-1.331 2.049-3.795 2.049-6.051m-32.811 2.053c-1.026-.825-2.357-.617-3.487-1.027-2.049-.513-3.687.719-5.127 1.639-3.689 1.645-2.253 6.156-4.309 8.824-.309 1.742-.309 3.894 1.027 5.122 1.132-.102 1.951.924 3.076.617 1.744-.819-.82-1.845-.099-3.075 1.022-.102.715 1.23 1.435 1.537.715.206.92-.613 1.537-.716.925.512.411 1.744 1.025 2.458 1.333 1.952 3.688 2.668 6.151 2.874 1.744-.104 2.565-1.333 3.385-2.77.513-1.742 1.229-4.202-.205-5.637-.515-.307-1.026.305-1.334 0 .102-.82.515-1.642 1.334-1.95.41-.82.104-2.15-.515-2.872.105-.204.413-.306.619-.306.41-1.333.513-3.181-.719-4.104-.618-.203-1.229-.712-1.844-.51 0 0-.107 0-.107-.102-.509-.103-1.327-.311-1.843-.002m3.384 2.869c-.098-.307-.309-.513-.714-.408-.617.82-.413 2.051-1.133 2.872-.308.206-.818-.31-1.022.206l.41.508c1.745.72 1.025-2.048 2.361-1.845zm-11.587 2.974c-.818.717-.818-.719-1.635-.511-1.028 1.228-.415 3.18-1.337 4.305.1.311.309.409.511.409 1.025-.718.307-2.356 1.333-2.973.512.41 0 1.438.718 1.639.613-.714.613-2.047.41-2.869m6.971-.204c-.309.307-1.022.204-1.125-.306-.818.105-1.231 1.228-1.54 1.739-.103.516-.721.721-1.125.307-.824.924-1.134 2.567-.925 4.003.102.309.513.309.716.202l.102-2.149c.107-.722.725-.312 1.129-.106.613-.306.513-1.126.719-1.74.303-.924.818-.411 1.435-.516.515-.304.924-.715.924-1.33zm2.568 3.484c-.205-1.126-1.435-.82-2.257-.82-.104.311-.514.208-.41.615l.615-.206c.717.923-1.025.823-.924 1.745h2.565c.612-.205.513-.821.411-1.334m1.841 3.28c-.408.106-1.125-.201-1.333.207.209.202.209.719.617.616.308-.203 1.027-.307.716-.823m-.408 2.771c0-.408.408-.617.408-.922-.204-.206-.506 0-.717.103-.716-.205-1.126.819-1.944.309v.406c.506-.1.922.308 1.328.513.412.106.827-.102.925-.409m-7.172 3.283c-1.336-.206-1.648-1.951-3.08-1.847-.72 1.128-1.747 2.255-3.076 2.869-3.076 1.849-2.361 5.847-3.895 8.613-1.23 6.459-4.209 13.433-1.543 20.202 1.745 1.028 1.026 3.484 2.566 4.614 1.536 1.025 3.593 1.844 5.534 1.538 3.181-1.744 5.952.713 9.335.511 3.588-1.332 7.692-1.64 11.281-3.179.715-.309 1.943-.512 2.254-1.332-.513-1.124-1.026-2.461-1.748-3.49-1.43-1.64-3.688-1.326-5.533-2.148-2.358-1.128-2.565 2.148-4.309 2.148-.511-.199-.713-.715-.615-1.124.308-1.127 1.641-1.438 2.358-2.361.515-1.432-.102-2.971-1.232-3.999-.511-1.123 1.332-1.947.411-2.871-2.15.101-3.586 1.847-5.434 2.768-.308.208-.817.312-1.025-.101.308-1.127 1.745-2.152 2.769-2.766v-.308c-.099 0-.205 0-.205-.102-2.462.304-3.585-1.747-5.23-2.669-.612-.307-1.43-.204-1.947-.511-.101-.515 0-1.129.413-1.435 2.969.203 5.329 3.997 8.407 1.946 3.589 1.744 6.973-.204 9.838-1.946.925-.411 1.949-1.438 3.083-.72 1.127-.204 1.84-.82 2.764-1.33 0-2.158-.307-4.307-1.127-6.257-.306-.508-.818-1.023-1.537-.82-2.458.922-4.821 2.872-7.692 2.36-.818.202.311.818 0 1.229h-.507l-3.799-3.074c-1.233-.718-2.461-1.439-3.694-2.255.209-1.745-1.946-.818-2.769-1.538zm29.834.202c-1.337-.308-2.358.515-3.691.515-.615.206-1.023-.412-1.542 0-1.843.618-2.557 2.563-2.768 4.308.618.919 1.026 2.458 2.359 2.666 2.358-.108 4.414-1.648 5.742-3.282.409-.821.409-1.846.516-2.771-.107-.303-.516-.514-.308-1.023zm-24.3 39.578c-1.027-.82-2.363-1.431-3.694-2.048-1.747-.308-4.205-1.539-5.533.308-1.133.51-3.288.31-3.386 1.946.205.617 1.022 1.029.721 1.845.096.516.923.41 1.122.923 0 1.229 1.436 1.028 1.641 2.053.614.72 1.748.72 2.769.72 2.36-.207 4.72-.82 6.872-1.642.41-1.335.41-3.079-.512-4.105m32.504 6.362c-1.537-1.949-3.386-4.204-6.258-4.005-.409.104-.409.413-.409.722.924 1.948 2.667 3.688 4.207 5.231.923-.413 1.636-1.23 2.46-1.948m-11.691 1.128c-.512-.721 0-2.153-1.227-2.153-1.542.509-3.892 1.781-4.412 1.948-.522.163-5.433.818-7.896-.312-1.436.107-3.075.107-4.514.312-.921.304-1.639 1.126-2.665 1.126-.714.308-2.255 0-2.255 0-1.227-.101-2.36-.822-3.591-.718-.817.204-1.122 1.025-1.433 1.743 6.87 5.333 17.636 6.971 26.459 4.304 1.022-.512 2.354-.611 3.076-1.331-.621-1.64-.925-3.283-1.542-4.919m4.819-1.645c-1.023.924-3.383-.613-3.591 1.333.313 1.643.723 3.281 1.643 4.719.824-.102 1.745-.513 2.46-.925.208-1.022-.921-1.536-.613-2.46.922-.202 1.331 1.129 2.154 1.538.515-.202 1.021-.514 1.227-.924-.511-1.434-1.535-1.948-2.666-3.077z" fill="#164989"/><path d="m6.956 130.032h1.814v12.219c0 3.235 2.021 5.188 5.154 5.188 3.135 0 5.18-1.953 5.18-5.242v-12.165h1.788v12.247c0 4.17-2.823 6.87-6.94 6.87-4.146 0-6.994-2.7-6.994-6.87v-12.247zm17.949 18.798h1.764v-6.445c0-.643.05-1.257.207-1.818.595-2.22 2.513-3.796 4.739-3.796 2.511 0 2.823 1.869 2.823 3.981v8.078h1.761v-8.559c0-3.316-1.139-5.214-4.352-5.214-3.081 0-4.739 2.166-5.205 3.397h-.052s.052-.483.052-1.073v-2.003h-1.737zm15.854-4.894c0 4.491 3.03 5 4.533 5 .468 0 .753-.054.753-.054v-1.631s-.235.052-.597.052c-.984 0-2.926-.396-2.926-3.555v-6.685h3.263v-1.525h-3.263v-3.876h-1.734v3.876h-1.735v1.525h1.707v6.873zm8.393-11.633h1.837v-2.271h-1.837zm.05 16.525h1.763v-13.449h-1.763zm5.881-3.18c0 2.939 1.916 3.287 3.003 3.287.338 0 .648-.054.648-.054v-1.631s-.208.028-.439.028c-.675 0-1.45-.268-1.45-2.032v-15.215h-1.762zm19.011-10.59c-3.522 0-6.423 2.647-6.423 7.06 0 4.145 2.927 7.032 6.81 7.032 2.927 0 4.818-1.87 4.818-1.87l-.803-1.392s-1.58 1.63-3.961 1.63c-2.695 0-4.975-1.869-5.051-5.32h9.998s.051-.615.051-.936c-.001-3.344-1.838-6.204-5.439-6.204m-4.533 5.643c.416-2.701 2.307-4.119 4.481-4.119 1.941 0 3.6 1.308 3.704 4.119zm16.553 8.129h1.917l4.972-13.451h-1.84l-3.6 9.866c-.258.697-.465 1.605-.465 1.605h-.052s-.209-.938-.442-1.605l-3.624-9.866h-1.864zm14.865-13.772c-3.521 0-6.422 2.647-6.422 7.06 0 4.145 2.925 7.032 6.812 7.032 2.927 0 4.816-1.87 4.816-1.87l-.802-1.392s-1.58 1.63-3.963 1.63c-2.692 0-4.972-1.869-5.051-5.32h9.998s.051-.615.051-.936c0-3.344-1.836-6.204-5.439-6.204m-4.531 5.643c.416-2.701 2.305-4.119 4.481-4.119 1.941 0 3.6 1.308 3.703 4.119zm13.08 8.129h1.764v-5.671c0-.854.101-1.765.362-2.618.568-1.979 1.941-3.477 3.78-3.477.337 0 .647.053.647.053v-1.791s-.336-.083-.698-.083c-2.046 0-3.497 1.553-4.118 3.585h-.052s.052-.481.052-1.07v-2.379h-1.737zm7.929 4.812s.931.803 2.279.803c1.734 0 3.083-1.098 3.755-2.808l6.422-16.257h-1.917l-3.755 9.813c-.26.665-.439 1.417-.439 1.417h-.052s-.208-.752-.467-1.417l-3.834-9.813h-1.942l5.44 13.343-.803 1.897c-.519 1.229-1.323 2.193-2.462 2.193-.827 0-1.553-.616-1.553-.616zm27.765-18.584c-3.833 0-6.838 2.914-6.838 7.06 0 4.172 2.979 7.032 6.838 7.032 3.315 0 5.075-2.111 5.075-2.111l-.803-1.418s-1.527 1.897-4.169 1.897c-2.875 0-5.128-2.244-5.128-5.4 0-3.21 2.228-5.401 5.075-5.401 2.358 0 3.809 1.629 3.809 1.629l.907-1.361c-.001-.002-1.58-1.927-4.766-1.927m8.289 13.77h1.764v-6.442c0-.641.051-1.258.206-1.793.596-2.248 2.513-3.824 4.739-3.824 2.512 0 2.823 1.871 2.823 3.983v8.076h1.761v-8.557c0-3.316-1.139-5.214-4.352-5.214-2.952 0-4.688 2.061-5.178 3.344h-.053s.053-.483.053-1.098v-7.271h-1.763zm15.309-16.525h1.838v-2.271h-1.838zm.05 16.525h1.763v-13.449h-1.763zm5.882-3.18c0 2.939 1.917 3.287 3.004 3.287.335 0 .648-.054.648-.054v-1.631s-.209.028-.441.028c-.673 0-1.449-.268-1.449-2.032v-15.215h-1.762zm11.525-10.589c-3.42 0-5.853 2.781-5.853 7.031 0 4.172 2.177 7.06 5.671 7.06 3.418 0 4.481-2.701 4.481-2.701h.053s-.053.373-.053.963v1.419h1.708v-18.798h-1.76v6.55c0 .562.052 1.017.052 1.017h-.052c.001-.001-1.086-2.541-4.247-2.541m.077 12.46c-2.434 0-4.115-2.112-4.115-5.429 0-3.396 1.889-5.401 4.194-5.401 2.798 0 4.144 2.674 4.144 5.401 0 3.823-2.046 5.429-4.223 5.429m17.097-15.216h1.838v-2.271h-1.838zm.051 16.525h1.762v-13.449h-1.762zm4.948-1.631s1.656 1.952 4.817 1.952c2.615 0 4.455-1.576 4.455-3.771 0-4.438-7.021-3.634-7.021-6.604 0-1.496 1.271-2.086 2.591-2.086 2.151 0 3.262 1.229 3.262 1.229l.803-1.39s-1.268-1.471-4.012-1.471c-2.36 0-4.456 1.31-4.456 3.717 0 4.384 7.019 3.661 7.019 6.604 0 1.418-1.217 2.14-2.615 2.14-2.436 0-3.885-1.63-3.885-1.63zm22.225 1.633h1.917l3.185-9.575c.206-.668.389-1.443.389-1.443h.053s.18.775.414 1.443l3.185 9.575h1.917l4.402-13.451h-1.863l-3.162 10.027c-.205.67-.387 1.444-.387 1.444h-.051s-.182-.801-.389-1.444l-3.213-9.974h-1.735l-3.212 9.974c-.207.644-.389 1.444-.389 1.444h-.051s-.182-.801-.389-1.444l-3.159-10.027h-1.866zm23.543-13.772c-3.521 0-6.421 2.647-6.421 7.06 0 4.145 2.926 7.032 6.81 7.032 2.926 0 4.817-1.87 4.817-1.87l-.803-1.392s-1.579 1.63-3.962 1.63c-2.693 0-4.973-1.869-5.05-5.32h9.998s.051-.615.051-.936c0-3.344-1.84-6.204-5.44-6.204m-4.531 5.643c.415-2.701 2.305-4.119 4.479-4.119 1.942 0 3.602 1.308 3.704 4.119zm13.21 4.947c0 2.939 1.917 3.287 3.004 3.287.337 0 .648-.054.648-.054v-1.631s-.21.028-.442.028c-.674 0-1.449-.268-1.449-2.032v-15.215h-1.761zm6.398 0c0 2.939 1.917 3.287 3.004 3.287.336 0 .648-.054.648-.054v-1.631s-.21.028-.441.028c-.673 0-1.45-.268-1.45-2.032v-15.215h-1.761zm4.534-12.812s.364.419 1.013.419c.604 0 .969-.404.969-.894 0-1.023-1.481-.848-1.481-1.504 0-.251.229-.461.555-.461.39 0 .671.275.671.275l.195-.369s-.299-.317-.866-.317c-.576 0-.987.389-.987.881 0 .975 1.481.825 1.481 1.51 0 .3-.242.466-.529.466-.454 0-.777-.341-.777-.341zm2.501.364h.429l.146-1.992c.013-.194.008-.476.008-.476h.009s.096.306.166.476l.605 1.424h.379l.611-1.424c.073-.178.166-.466.166-.466h.009s-.009.271.005.466l.15 1.992h.425l-.246-3.16h-.452l-.701 1.709c-.068.176-.151.427-.151.427h-.008s-.085-.251-.152-.427l-.698-1.709h-.454z" fill="#1ebef0"/><path d="m111.524 5.141h11.232c5.663 0 9.685 2.919 9.685 8.093 0 2.917-1.415 5.435-3.802 6.718v.089c3.448 1.017 5.086 4.2 5.086 7.386 0 6.276-5.043 9.108-10.834 9.108h-11.367zm11.232 12.822c2.478 0 3.892-1.769 3.892-4.024s-1.327-3.892-3.977-3.892h-5.44v7.916zm.575 13.663c2.922 0 4.556-1.9 4.556-4.553 0-2.609-1.681-4.51-4.556-4.51h-6.101v9.063zm25.37-18.175c6.9 0 12.425 4.911 12.425 11.809 0 6.941-5.524 11.806-12.38 11.806-6.895 0-12.422-4.865-12.422-11.806 0-6.898 5.527-11.809 12.377-11.809m.045 18.836c3.626 0 6.677-2.829 6.677-7.027 0-4.157-3.051-7.032-6.677-7.032-3.668 0-6.718 2.875-6.718 7.032 0 4.198 3.05 7.027 6.718 7.027m14.072 1.462s3.136 3.317 8.753 3.317c5.35 0 8.623-3.009 8.623-6.768 0-7.249-10.966-6.85-10.966-10.038 0-1.413 1.416-2.033 2.877-2.033 3.444 0 5.523 1.948 5.523 1.948l2.079-4.159s-2.478-2.566-7.561-2.566c-4.865 0-8.623 2.434-8.623 6.634 0 7.254 10.968 6.812 10.968 10.171 0 1.323-1.376 2.031-2.968 2.031-3.666 0-6.141-2.474-6.141-2.474zm22.414-5.483c0 7.56 6.232 8.489 9.375 8.489 1.061 0 1.723-.133 1.723-.133v-4.909s-.397.09-1.018.09c-1.545 0-4.463-.53-4.463-4.245v-8.756h5.128v-4.466h-5.128v-6.498h-5.486v6.499h-3.05v4.466h2.919zm25.477-14.815c6.9 0 12.429 4.911 12.429 11.809 0 6.941-5.528 11.806-12.381 11.806-6.901 0-12.426-4.865-12.426-11.806 0-6.898 5.524-11.809 12.378-11.809m.048 18.836c3.623 0 6.676-2.829 6.676-7.027 0-4.157-3.053-7.032-6.676-7.032-3.672 0-6.723 2.875-6.723 7.032 0 4.198 3.051 7.027 6.723 7.027m15.709 4.248h5.615v-10.348c0-1.058.087-2.076.398-3.004.838-2.7 3.049-4.599 6.057-4.599 2.873 0 3.583 1.856 3.583 4.599v13.353h5.566v-14.506c0-5.967-2.827-8.579-7.824-8.579-4.556 0-7.027 2.788-8.003 4.69h-.089s.089-.708.089-1.548v-2.61h-5.392zm-101.548 6.721c-9.243 0-16.14 6.987-16.14 16.092 0 9.243 6.633 16.361 16.228 16.361 8.004 0 12.336-5.085 12.336-5.085l-3.006-4.112s-3.67 3.978-9.109 3.978c-6.545 0-10.567-5.26-10.567-11.229 0-5.838 3.89-10.789 10.523-10.789 4.997 0 8.577 3.316 8.577 3.316l2.743-4.245c-.001.002-3.937-4.287-11.585-4.287m16.357 31.924h5.614v-10.347c0-1.059.089-2.035.354-2.919.842-2.741 3.14-4.686 6.104-4.686 2.87 0 3.58 1.855 3.58 4.598v13.354h5.572v-14.502c0-5.972-2.83-8.579-7.827-8.579-3.937 0-6.675 2.299-7.783 4.464h-.087s.087-.794.087-1.901v-10.878h-5.614zm57.854-23.082c4.95 0 6.496 2.874 6.496 2.874h.09s-.045-.573-.045-1.282v-9.905h5.618v31.396h-5.309v-1.861c0-.836.089-1.457.089-1.457h-.089s-1.9 3.846-7.073 3.846c-6.101 0-9.996-4.82-9.996-11.805 0-7.163 4.246-11.806 10.219-11.806m1.059 18.881c2.919 0 5.66-2.122 5.66-7.117 0-3.495-1.855-6.943-5.613-6.943-3.098 0-5.664 2.52-5.664 6.986-.001 4.29 2.301 7.074 5.617 7.074m16.368 4.201h5.614v-8.931c0-1.328.135-2.566.488-3.671 1.061-3.36 3.76-4.73 6.146-4.73.75 0 1.324.087 1.324.087v-5.527s-.486-.091-1.016-.091c-3.445 0-6.146 2.569-7.164 5.796h-.089s.089-.752.089-1.595v-3.888h-5.392zm26.318-23.082c6.499 0 9.992 4.734 9.992 10.701 0 .664-.13 2.166-.13 2.166h-15.568c.355 3.936 3.404 5.972 6.768 5.972 3.625 0 6.498-2.477 6.498-2.477l2.168 4.024s-3.45 3.226-9.064 3.226c-7.472 0-12.117-5.395-12.117-11.806-.001-6.941 4.733-11.806 11.453-11.806m4.333 9.021c-.086-3.053-1.986-4.688-4.467-4.688-2.872 0-4.862 1.768-5.394 4.688zm9.856 14.061h5.614v-10.347c0-1.058.093-2.079.401-3.007.838-2.696 3.051-4.597 6.057-4.597 2.875 0 3.579 1.854 3.579 4.597v13.354h5.572v-14.502c0-5.972-2.829-8.58-7.826-8.58-4.555 0-7.029 2.788-8.003 4.688h-.088s.088-.708.088-1.548v-2.608h-5.394zm25.562-2.785s3.137 3.315 8.754 3.315c5.35 0 8.621-3.008 8.621-6.765 0-7.251-10.961-6.854-10.961-10.036 0-1.414 1.41-2.036 2.872-2.036 3.445 0 5.527 1.946 5.527 1.946l2.077-4.156s-2.477-2.565-7.561-2.565c-4.865 0-8.625 2.434-8.625 6.635 0 7.25 10.969 6.809 10.969 10.167 0 1.326-1.373 2.036-2.964 2.036-3.671 0-6.146-2.477-6.146-2.477zm-171.102 41.431h5.708v-13.18h14.371v13.18h5.706v-31.394h-5.706v13.308h-14.372v-13.308h-5.707zm42.225-23.084c6.901 0 12.43 4.909 12.43 11.807 0 6.943-5.528 11.804-12.385 11.804-6.894 0-12.422-4.86-12.422-11.804 0-6.898 5.528-11.807 12.377-11.807m.045 18.838c3.627 0 6.679-2.831 6.679-7.031 0-4.154-3.052-7.028-6.679-7.028-3.668 0-6.719 2.874-6.719 7.028 0 4.2 3.051 7.031 6.719 7.031m14.072 1.458s3.139 3.315 8.756 3.315c5.348 0 8.619-3.007 8.619-6.766 0-7.25-10.966-6.853-10.966-10.035 0-1.415 1.415-2.032 2.874-2.032 3.45 0 5.529 1.942 5.529 1.942l2.078-4.156s-2.476-2.564-7.56-2.564c-4.864 0-8.622 2.431-8.622 6.632 0 7.253 10.965 6.811 10.965 10.17 0 1.327-1.375 2.036-2.964 2.036-3.67 0-6.144-2.479-6.144-2.479zm20.966-19.766h5.128v1.637c0 .841-.087 1.548-.087 1.548h.087s1.948-3.714 7.253-3.714c6.101 0 9.992 4.818 9.992 11.806 0 7.164-4.377 11.805-10.301 11.805-4.468 0-6.458-3.094-6.458-3.094h-.085s.085.797.085 1.945v9.462h-5.614zm11.054 18.352c3.095 0 5.659-2.522 5.659-6.986 0-4.289-2.3-7.076-5.615-7.076-2.916 0-5.656 2.124-5.656 7.121-.001 3.489 1.898 6.941 5.612 6.941m27.38-4.066c0 7.559 6.233 8.488 9.375 8.488 1.058 0 1.722-.134 1.722-.134v-4.908s-.397.088-1.019.088c-1.545 0-4.464-.527-4.464-4.245v-8.751h5.126v-4.468h-5.126v-6.502h-5.483v6.502h-3.049v4.468h2.918zm27.18-5.882h.752v-.312c0-2.962-1.859-3.978-4.333-3.978-3.229 0-6.188 2.166-6.188 2.166l-2.128-4.026s3.493-2.784 8.846-2.784c5.925 0 9.373 3.271 9.373 8.979v14.105h-5.171v-1.858c0-.885.089-1.595.089-1.595h-.089c.043 0-1.725 3.98-6.852 3.98-4.028 0-7.651-2.521-7.651-7.029.001-7.161 9.681-7.648 13.352-7.648m-4.288 10.303c2.965 0 5.085-3.187 5.085-5.928v-.528h-.975c-2.873 0-7.518.397-7.518 3.536.001 1.505 1.109 2.92 3.408 2.92m-70.702-34.766h5.574v-31.392h-5.574zm86.048 38.529h5.573v-31.39h-5.573zm20.038-67.082c0-1.598-1.294-2.892-2.891-2.892-1.601 0-2.894 1.294-2.894 2.892 0 1.595 1.293 2.891 2.894 2.891 1.597 0 2.891-1.296 2.891-2.891m-4.877 5.708c5.99-1.658 4.78-6.354 4.77-6.403l-1.84.505c.035.118.75 2.905-3.437 4.063zm-112.731 22.846h5.622v-22.574h-5.622zm5.961-28.547c0-1.739-1.409-3.152-3.153-3.152-1.739 0-3.151 1.413-3.151 3.152 0 1.738 1.412 3.15 3.151 3.15 1.743-.001 3.153-1.412 3.153-3.15m41.031 67.159h5.623v-22.576h-5.623zm5.964-28.548c0-1.741-1.411-3.154-3.152-3.154-1.742 0-3.152 1.413-3.152 3.154 0 1.738 1.41 3.147 3.152 3.147 1.741.001 3.152-1.408 3.152-3.147" fill="#164989"/></g></svg>