<svg clip-rule="evenodd" fill-rule="evenodd" stroke-linejoin="round" stroke-miterlimit="2" viewBox="0 0 560 400" xmlns="http://www.w3.org/2000/svg"><g fill="#0080c6" fill-rule="nonzero"><path d="m81.082 170.656c6.451 0 14.839 1.347 21.468 3.374 6.423 1.962 15.826 6.451 15.826 6.451v-7.003h10.751v20.034h-11.186c-3.728-4.043-6.389-6.248-10.319-8.481-8.481-4.825-21.235-4.917-25.988-4.917-7.555 0-28.086 3.988-28.011 21.255.059 14.742 15.357 21.872 31.759 21.872 7.96 0 15.412-1.207 21.691-4.791 3.861-2.212 6.999-4.979 10.501-9.77h13.268c-1.595 7.558-14.829 14.726-20.731 17.418-7.006 3.192-14.286 4.571-24.458 5.034-38.395 1.752-57.791-15.051-55.466-32.284 1.828-13.611 21.533-28.192 50.895-28.192"/><path d="m250.461 180.727v-8.967h-45.738v8.967h12.161v16.283h-41.807v-16.283h12.16v-8.967h-45.73v8.967h12.164v39.935h-12.164v8.968h45.73v-8.968h-12.16v-14.684h41.807v14.684h-12.161v8.968h45.738v-8.968h-12.171v-39.935z"/><path d="m307.964 180.727v-8.967h-45.741v8.967h12.164v39.935h-12.164v8.968h45.741v-8.968h-12.164v-39.935z"/><path d="m412.188 180.727h12.168v-8.967h-36.036v8.967h12.161v30.398l-44.908-39.365h-34.766v8.967h12.16v39.935h-12.16v8.968h36.035v-8.968h-12.167v-32.853l47.723 41.824h19.79z"/><path d="m479.441 168.742c-27.935 0-50.569 13.484-50.569 30.106 0 16.626 22.634 30.106 50.569 30.106 27.912 0 50.559-13.48 50.559-30.106 0-16.622-22.647-30.106-50.559-30.106zm0 51.395c-14.88 0-26.934-9.53-26.934-21.289 0-11.756 12.054-21.289 26.934-21.289 14.866 0 26.921 9.533 26.921 21.289 0 11.759-12.055 21.289-26.921 21.289"/></g></svg>