<svg clip-rule="evenodd" fill-rule="evenodd" stroke-linejoin="round" stroke-miterlimit="2" viewBox="0 0 560 400" xmlns="http://www.w3.org/2000/svg"><g fill-rule="nonzero"><path d="m139.525 209.307c-.439 1.524-1.212 2.931-2.263 4.119-1.908 2.239-4.706 3.53-7.648 3.53-8.01 0-11.359-8.509-11.359-15.252s2.67-15.296 10.861-15.296c2.02.006 3.992.621 5.657 1.765 1.891 1.364 3.365 3.229 4.254 5.385l11.133-6.336c-4.473-7.755-12.863-12.455-21.813-12.219-16.926-.045-25.524 12.491-25.524 27.335 0 20.818 15.568 26.701 25.343 26.701 5.237.04 10.36-1.541 14.663-4.526 3.274-2.423 6.003-5.507 8.01-9.051z" fill="#0392bf"/><path d="m157.13 177.628h13.577v49.782h-13.577z" fill="#70bc1f"/><path d="m182.156 177.628h-7.422v9.051h7.422v24.665c-.474 3.973.267 7.998 2.127 11.54 3.214 4.526 9.052 4.978 14.075 4.978 2.657-.038 5.306-.296 7.92-.769v-11.812h-5.386c-4.027 0-4.027-2.625-3.892-5.747v-22.855h9.911v-9.051h-9.775v-16.066h-14.98z" fill="#fe000c"/><path d="m243.116 176.316-8.417 36.612-8.418-36.612h-16.066l15.251 49.329c.384 1.172.613 2.389.679 3.62 0 3.621-3.801 3.621-6.245 3.711h-5.25v11.948h10.862c4.018.436 8.019-1.02 10.816-3.937 2.22-2.73 3.853-5.888 4.797-9.278l18.102-55.167z" fill="#ff8700"/><path d="m269.229 177.628h-8.01v9.051h8.01v40.731h14.98v-40.731h9.956v-9.051h-10.318c0-6.834 0-8.01 5.883-8.01h3.621v-11.36c-2.995-.488-6.019-.775-9.052-.859-4.94-.452-9.813 1.464-13.124 5.159-1.607 2.601-2.366 5.638-2.172 8.689z" fill="#0392bf"/><path d="m324.577 174.777c-19.46-1.086-29.416 11.314-29.461 27.154 0 19.007 13.124 27.153 27.47 27.153 19.913 0 27.154-14.029 27.38-27.153.033-.528.049-1.056.049-1.585 0-13.977-11.461-25.497-25.438-25.569zm-3.077 11.902c3.217-.409 6.455.637 8.825 2.851 3.077 3.523 4.596 8.147 4.209 12.808 0 8.146-3.983 14.482-12.129 14.572-8.146.091-12.219-7.241-12.31-15.251-.109-3.491.77-6.943 2.535-9.956 1.836-3.144 5.23-5.066 8.87-5.024z" fill="#ff8700"/></g><path d="m369.833 176.451h-14.934v50.959h14.934v-27.606c0-6.336 0-12.717 7.92-12.717 2.934-.258 5.72 1.41 6.879 4.118.705 2.484.935 5.079.679 7.648v28.557h14.98v-34.938c0-7.92-1.358-12.536-6.744-15.342-2.807-1.402-5.913-2.101-9.051-2.036-3.182.018-6.332.648-9.277 1.855-2.078.896-3.921 2.259-5.386 3.983z" fill="#70bc1f"/><path d="m445.275 208.628c-1.925 5.445-7.123 9.093-12.898 9.052-.089.002-.178.003-.267.003-6.306 0-11.495-5.189-11.495-11.495 0-.47.029-.94.086-1.406h36.476c0-5.793-.588-15.749-7.24-22.9-4.841-4.884-11.501-7.542-18.374-7.331-20.139 0-26.204 15.839-26.204 28.194 0 16.745 10.681 26.43 25.842 26.43 7.11.121 14.006-2.469 19.279-7.241 2.362-2.283 4.43-4.853 6.154-7.649zm-24.483-12.898c.351-2.489 1.402-4.828 3.032-6.743 1.974-2.121 4.75-3.32 7.648-3.303 2.718-.022 5.343.999 7.332 2.851 1.707 2.024 2.708 4.551 2.851 7.195z" fill="#fe000c" fill-rule="nonzero"/><path d="m157.13 155h13.577v13.577h-13.577z" fill="#70bc1f" fill-rule="nonzero"/></svg>