<svg clip-rule="evenodd" fill-rule="evenodd" stroke-linejoin="round" stroke-miterlimit="2" viewBox="0 0 560 400" xmlns="http://www.w3.org/2000/svg"><g fill-rule="nonzero" transform="matrix(2.06342 0 0 2.06342 80.8804 154.606)"><path d="m19.585 37.57-13.232-7.605c-.26-.207-.625-.84-.674-1.166l.033-13.538c.051-.336.426-.986.691-1.196l13.182-7.608v-6.266c-.248.096-.484.207-.702.332l-15.257 8.809c-1.867 1.079-3.398 3.725-3.402 5.881l-.035 13.615c-.003 2.156 1.522 4.799 3.392 5.873l15.204 8.74c.247.141.517.264.8.367z" fill="#00adee"/><path d="m40.879 9.257-15.202-8.741c-.19-.108-.395-.204-.605-.29v6.262l13.042 7.504c.26.206.62.84.67 1.167l-.034 13.534c-.05.338-.428.99-.693 1.199l-12.985 7.496v6.295c.177-.076.347-.158.505-.25l15.259-8.809c1.866-1.078 3.397-3.723 3.403-5.879l.031-13.615c.003-2.157-1.521-4.798-3.391-5.873" fill="#00adee"/><path d="m25.072 31.006-2.723 1.594-2.764-1.594v-18.033l2.743-1.52 2.744 1.52z" fill="#83d3f3"/><path d="m63.742 18.961v-.663c0-1.407-.55-1.504-2.588-1.504-2.345 0-2.749.388-2.749 2.766v2.685c.016 2.427.308 2.896 2.749 2.896 1.877 0 2.718-.064 2.718-1.795v-.664h2.329v.792c.049 3.654-2.038 3.525-5.047 3.654-4.27.162-5.029-1.244-5.078-4.787v-2.781c0-3.882 1.504-4.755 5.078-4.755 3.025 0 4.756.016 4.917 3.493v.663z"/><g transform="translate(68 14)"><path d="m2.937 11.043h5.661v1.99h-7.99v-12.131h2.329z"/><path d="m20.418 5.237v3.268c0 3.88-1.504 4.625-5.176 4.625-3.752 0-5.127-.646-5.127-4.625v-3.268c0-3.769 1.277-4.432 5.127-4.432 3.494 0 5.176.533 5.176 4.432zm-7.974 0v3.268c0 2.41.469 2.636 2.798 2.636 2.119 0 2.847-.291 2.847-2.636v-3.268c.049-2.28-.776-2.442-2.847-2.442-2.507-.001-2.749.517-2.798 2.442z"/><path d="m32.999.902v8.622c0 3.379-2.119 3.605-5.063 3.605-2.846 0-5.029-.209-5.029-3.605v-8.622h2.329v8.622c0 1.244.452 1.617 2.7 1.617 2.151 0 2.734-.309 2.734-1.617v-8.622z"/></g><path d="m103.857 14.902h5.791c3.349 0 4.771 1.213 4.771 4.513v2.863c0 2.523-.712 4.755-4.383 4.755h-6.179zm6.18 10.141c1.568 0 2.054-1.406 2.054-2.765v-2.863c0-2.021-.663-2.523-2.442-2.523h-3.461v8.152h3.849z"/><g fill="#00adee" transform="translate(117 14)"><path d="m.57.902h5.369c3.251 0 4.318.776 4.318 4.173 0 3.43-1.148 4.027-4.318 4.027h-3.041v3.932h-2.328zm5.369 6.211c1.666-.032 1.989-.34 1.989-2.038 0-1.714-.242-2.199-1.989-2.184h-3.041v4.222z"/><path d="m22.936 13.033h-2.329v-5.176h-5.645v5.176h-2.329v-12.131h2.329v4.966h5.645v-4.966h2.329z"/><path d="m31.343 8.375v4.659h-2.329v-4.659l-4.383-7.473h2.652l2.879 5.176h.049l2.928-5.176h2.685z"/><path d="m39.314 9.168v.564c0 1.393.598 1.488 2.749 1.488 2.119 0 2.41-.389 2.41-1.795 0-1.731-.922-1.504-2.733-1.601-2.62-.162-4.69-.064-4.69-3.591 0-3.332 2.103-3.429 5.014-3.429 2.475 0 4.497.081 4.497 3.267v.389h-2.329v-.389c0-1.31-.534-1.358-2.168-1.358-2.312 0-2.685.227-2.685 1.521 0 1.488.307 1.536 2.669 1.683 3.736.226 4.755.42 4.755 3.509 0 3.412-1.617 3.703-4.739 3.703-2.685 0-5.078.082-5.078-3.396v-.564h2.328z"/><path d="m51.538 13.033h-2.329v-12.131h2.329z"/><path d="m61.678 4.961v-.663c0-1.407-.55-1.504-2.588-1.504-2.345 0-2.749.388-2.749 2.766v2.685c.016 2.427.308 2.896 2.749 2.896 1.877 0 2.718-.064 2.718-1.795v-.664h2.329v.792c.049 3.654-2.038 3.525-5.047 3.654-4.27.162-5.029-1.244-5.078-4.787v-2.781c0-3.882 1.504-4.755 5.078-4.755 3.025 0 4.756.016 4.917 3.493v.663z"/><path d="m68.322 9.168v.564c0 1.393.598 1.488 2.749 1.488 2.119 0 2.41-.389 2.41-1.795 0-1.731-.922-1.504-2.733-1.601-2.62-.162-4.69-.064-4.69-3.591 0-3.332 2.103-3.429 5.014-3.429 2.475 0 4.497.081 4.497 3.267v.389h-2.329v-.389c0-1.31-.534-1.358-2.168-1.358-2.312 0-2.685.227-2.685 1.521 0 1.488.307 1.536 2.669 1.683 3.736.226 4.755.42 4.755 3.509 0 3.412-1.617 3.703-4.739 3.703-2.685 0-5.078.082-5.078-3.396v-.564h2.328z"/></g></g></svg>