<svg clip-rule="evenodd" fill-rule="evenodd" viewBox="0 0 560 400" xmlns="http://www.w3.org/2000/svg"><g transform="matrix(.526495 0 0 .526437 79.7249 -316.266)"><g fill-rule="nonzero"><path d="m495.636 1050.63.055.3c-11.386 2.27-9.075-10.79-9.075-10.79l7.379 1.73-.038.15s-2.516 6.08 1.677 8.61" fill="#fff"/><path d="m505.893 1093.62 6.504-2.72s-.634 6.71-3.578 7.95c-.69-1.64-1.789-3.35-3.15-5.06z" fill="#fff"/><path d="m494.968 1077.06c.223 2.72-1.454 5.44-1.454 5.44l-.242.38c-2.069-1.38-4.044-2.54-5.721-3.36.577-.39 5.255-3.65 7.417-2.46" fill="#fff"/><path d="m500.597 1080.21c.447 0 .839.11 1.137.37-1.472 2.52-2.18 5.46-2.59 6.51l-.075.09c-1.603-1.36-3.28-2.63-4.901-3.76.447-.36 4.175-3.21 6.429-3.21" fill="#fff"/><path d="m511.331 1075.35c-1.043 1.67-1.677 2.92-1.677 2.92l-1.882 3.36-.112.14c-1.155-.8-2.292-1.41-3.447-1.82-.578-.41-1.156-.8-1.733-1.18l.055-.07s.82-1.84 3.672-3.5c2.59-.04 3.429-1.55 5.125.15" fill="#fff"/><path d="m518.678 1083.31c.429.64-1.248 3.15-1.248 3.15l-2.106 2.74-.056.04c-1.304-1.57-2.646-3.04-3.988-4.38l.261-.28s1.062-1.88 2.311-1.88c0 0 4.417 0 4.827.61" fill="#fff"/><path d="m525.835 1093c.633.43-.206 2.31-.206 2.31 0 1.47-2.31 3.56-2.31 3.56l-.224.18c-1.062-1.28-2.199-2.7-3.336-4.17.093-.19 1.305-2.5 2.516-2.29 0 0 2.926 0 3.559.41" fill="#fff"/><path d="m536.521 1113.13s2.292 2.29.224 6.26c-1.957-1.02-3.783-1.97-5.218-2.74l.019-.04z" fill="#fff"/><path d="m545.967 1116.28c0 2.09.354 5.24-.689 7.34l-.056.09c-2.031-1.02-4.212-2.14-6.299-3.2l.13-.26s4.603-4.19 6.914-3.97" fill="#fff"/><path d="m555.413 1110.36c.839 1.9-2.105 4.25-2.105 4.25v.06l-.839-.11c-1.584-.12-3.578-.6-5.647-1.21.205-.3 2.199-3.27 4.193-4.66l3.355-.84z" fill="#fff"/><path d="m561.902 1113.13c.633 2.31-1.678 3.97-1.678 3.97l-.038.13c-1.397-.71-2.926-1.4-4.416-1.9 0 0-.168-2.2 1.938-3.88l2.926-1.67z" fill="#fff"/><path d="m569.439 1124.67s1.603 4.31 1.398 7.03c-1.696.36-4.062.11-6.485-.37z" fill="#fff"/><path d="m575.737 1118.42s.839 3.71.41 4.76l-.019.13c-.131 1.21-2.069 2.18-2.069 2.18l-.093.09-.969-.93c-.559-.5-1.081-.95-1.565-1.32l.111-.15s.336-2.44 2.143-2.91l.019-.02c1.566-.2 2.032-1.83 2.032-1.83" fill="#fff"/><path d="m628.549 1057.79.056.18c-3.149 5.65-6.094 5.45-7.976 5.65-.41-4.47 3.131-7.17 3.354-7.32 1.715 1.6 3.224 1.92 4.566 1.49" fill="#fff"/><path d="m616.002 1057.12c.615 4.81-3.149 6.5-5.46 7.55-2.721-2.52 0-7.55 0-7.55l.019-.09c1.51.33 3.075.28 4.547.04z" fill="#fff"/><path d="m606.365 1054.78-.205.23c-1.677 6.93-5.05 7.34-7.137 9.22-.783-.39-1.137-1.17-1.23-2.12-.224-2.35 1.174-5.67 1.397-6.19 2.982-1.27 5.144-2.31 5.908-2.59.41.56.82 1.04 1.267 1.45" fill="#fff"/><path d="m597.778 1062.13-.242.04s-3.765 3.97-6.299 4.4c-1.249-1.05.223-7.55.223-7.55l-.019-.02c2.889-1.03 5.535-2.11 7.734-3.06-.224.54-1.621 3.84-1.397 6.19" fill="#fff"/><path d="m585.374 1060.94c-.093.54-1.733 8.4-9.225 9.61-.634-2.1-.988-7.06-.988-7.06l-.038-.71c3.28-.17 6.802-.89 10.25-1.84" fill="#fff"/><path d="m575.117 1062.75.056.71c-6.299 7.96-8.051 6.43-10.138 7.06-1.398-1.97.577-8.59.801-9.35 2.553 1.36 5.777 1.77 9.281 1.58" fill="#fff"/><path d="m536.951 1063.7c3.168.53 6.466.66 7.733-.7-2.31 9.22-6.932 9.65-9.448 10.27-1.882-1.46 1.696-9.43 1.696-9.43z" fill="#fff"/><path d="m534.661 1063.23-.02.15c-2.105 8.61-6.932 9.45-9.448 10.28-2.087-1.67-.205-10.28-.205-10.28 2.87-.86 4.826-1.46 4.826-1.46s2.162.69 4.846 1.31" fill="#fff"/><path d="m467.312 1110.79c4.603.21 12.784-3.15 12.784-3.15s-12.151 12.81-31.457 10.29c-1.882-1.9-3.56-1.47-7.771-19.94-.597-6.45-.727-12-.541-16.77.242-5.97.951-10.68 1.882-14.41 2.535-10.12 6.635-12.86 6.635-12.86s11.069-2.77 7.286 13.77c-.093.51-.224 1.01-.354 1.53.745 6.49 1.565 17.41 3.951 26.69 1.621 6.35 3.988 11.96 7.584 14.85m-4.416 3.36-5.871-10.5-9.019 1.48s2.739 7.97 3.354 10.49c3.354 1.25 11.536-1.47 11.536-1.47m-7.343-13.64-2.516-13.83-7.752.61s.838 12.17 1.677 13.64c.838 1.48 8.591-.42 8.591-.42m-3.764-34.41.838-7.95-3.149-.64-2.311 8.18zm.615 16.59-.82-13.64-5.46-.21-1.473 14.48c5.256 1.66 7.753-.63 7.753-.63" fill="#fff"/><path d="m452.627 1058.17-.839 7.98-4.621-.43 2.311-8.18z" fill="#fff"/><path d="m494.157 1083.46c1.621 1.13 3.298 2.4 4.901 3.76 2.478 2.05 4.789 4.31 6.634 6.58 1.36 1.71 2.46 3.43 3.149 5.07 5.666 6.3 14.481 16.58 22.028 17.42l.69.37c1.416.77 3.242 1.72 5.199 2.74.708.36 1.435.75 2.161 1.12 2.088 1.08 4.268 2.18 6.299 3.21 4.883 2.5 8.927 4.51 8.927 4.51s5.218 2.07 10.231 3.09c2.423.49 4.789.73 6.485.39.839-.17 1.51-.48 1.957-.97 1.528-1.34 4.137-1.97 1.174-5.14l.093-.09s1.938-.99 2.069-2.18c.038 1.37 5.907 7.69.652 9.29-5.46 1.7-19.512 7.78-38.595-7.95-9.019-1.48-15.318-2.74-19.716-6.73-4.398.63-17.835 1.7-31.253-8.39-6.075-1.24-7.137-1.88-7.137-1.88-2.516-1.68-20.276-11.74-20.276-11.74l-.093.04c-2.386-9.28-3.206-20.2-3.951-26.69.13-.52.261-1.04.354-1.53l.28.08c7.957-.64 10.268-7.34 14.461-19.72 4.193-12.37 7.342-15.73 9.858-18.47 9.858-8.81 28.942 1.27 28.942 1.27s3.578 5.44 3.783 6.71c0 0 11.945 1.27 15.933 5.87 0 0 7.976 2.72 18.263-1.47 10.268-4.19 24.954-1.47 24.954-1.47s15.933 5.66 21.394.63c5.441-5.03 8.591-3.15 8.591-3.15s2.944-5.87 6.504-3.13c3.354-1.27 11.536-5.46 18.039 1.68 3.15.2 14.89 2.31 6.914 14.68-1.323 2.65-3.131 5.78-5.497 6.52-1.342.45-2.852.12-4.566-1.49-.541-.5-1.1-1.13-1.677-1.9 0 0-3.243 2.05-7.175 2.69-1.472.24-3.038.29-4.547-.04-1.491-.34-2.926-1.01-4.212-2.24-.429-.41-.857-.89-1.267-1.45-.764.28-2.926 1.32-5.908 2.59-2.199.95-4.845 2.03-7.734 3.05-1.938.69-3.988 1.37-6.075 1.94-3.448.95-6.97 1.68-10.249 1.85-3.523.18-6.728-.23-9.281-1.59-1.118-.59-2.087-1.39-2.907-2.38-4.827 0-15.524 1.25-18.245 4.19-1.267 1.36-4.565 1.23-7.734.69-.801-.11-1.565-.28-2.31-.43-2.684-.61-4.846-1.3-4.846-1.3s-1.956.59-4.826 1.45c-7.939 2.35-22.941 6.58-23.705 5.03-1.044-2.08.633 6.3 3.988 6.73l.95.06c-2.851 1.65-3.671 3.5-3.671 3.5l-.056.06-.913-.6c-3.82-2.52-7.529-4.85-8.889-9.11 0 0-18.263-1.89-22.252-7.76 0 0-2.721 19.72 16.791 18.04l.335.15c1.678.82 3.653 1.98 5.721 3.36zm112.428-38.08c9.448 5.26 11.125 2.74 14.256 1.9-2.516-12.59-14.461-2.94-14.461-2.94zm-91.241 4.2s.428-7.76-33.564-15.53c0 0-10.697 25.81 12.375 22.66 11.759-3.99 21.189-7.13 21.189-7.13" fill="#215733"/><path d="m620.821 1047.25c-3.131.83-4.808 3.35-14.257-1.9l-.205-1.05s11.946-9.65 14.461 2.95" fill="#6b6b6e"/><path d="m519.776 1094.86c1.136 1.47 2.273 2.89 3.336 4.17.503.62.987 1.18 1.49 1.72 5.852 6.5 11.946 8.79 11.946 8.79s5.274 2.33 10.287 3.82c2.068.64 4.062 1.1 5.646 1.22l.839.11c.801.13 1.621.33 2.479.63 1.49.5 3.019 1.19 4.416 1.9 3.168 1.66 5.703 3.45 5.703 3.45s2.068 0 5.553 2.66c.485.38 1.007.82 1.566 1.33l.969.93c2.963 3.15.354 3.8-1.174 5.14-.447.49-1.118.78-1.957.95.205-2.72-1.398-7.02-1.398-7.02l-5.087 6.65c-5.013-1.02-10.231-3.09-10.231-3.09s-4.044-2.04-8.927-4.51l.056-.11c1.044-2.09.69-5.24.69-7.35-2.293-.2-6.914 3.99-6.914 3.99l-.13.26c-.727-.37-1.454-.76-2.162-1.12 2.068-3.97-.224-6.26-.224-6.26l-4.976 3.49v.03l-.689-.39c-7.548-.84-16.363-11.1-22.028-17.4 2.945-1.25 3.559-7.96 3.559-7.96l-6.485 2.72-.224.17c-1.845-2.27-4.155-4.53-6.634-6.58l.075-.09c.409-1.05 1.118-3.99 2.571-6.51-.279-.26-.671-.37-1.118-.37l1.006-2.05.914.62c.577.37 1.155.76 1.733 1.17 1.155.41 2.292 1.02 3.447 1.83 1.212.85 2.423 1.9 3.616 3.07 1.342 1.32 2.683 2.83 3.988 4.38 1.528 1.85 3.019 3.76 4.472 5.61" fill="#d11c23"/><path d="m572.827 1120.24.894.04c-1.807.46-2.162 2.9-2.162 2.9l-.093.15c-3.485-2.66-5.553-2.66-5.553-2.66s-2.535-1.79-5.703-3.45l.038-.13s2.311-1.66 1.678-3.97c0 0 8.591 6.71 10.902 7.12" fill="#215733"/><path d="m555.413 1110.36 2.311 1.06c-2.106 1.68-1.938 3.88-1.938 3.88-.857-.3-1.677-.5-2.478-.63v-.06s2.944-2.35 2.105-4.25" fill="#3a8f5e"/><path d="m550.977 1108.69c-1.976 1.4-3.97 4.36-4.175 4.66-5.013-1.49-10.287-3.82-10.287-3.82s-6.094-2.29-11.964-8.79c-.484-.55-.969-1.1-1.472-1.72l.224-.19s2.311-2.08 2.311-3.55c0 0 5.646 8.81 13.417 9.22 7.343 2.31 11.946 4.19 11.946 4.19" fill="#215733"/><path d="m526.884 1161.79c2.74 5.67 5.032 7.98 1.677 12.38.224 1.47-13.417 17.61-42.992 11.96-16.568-5.46-22.867-8.4-27.488-14.07 0 0-1.882-4.6-7.324-5.87-1.063-2.72-.429-8.18-3.783-10.27 2.311-2.31 6.299-6.71 6.504-7.55 2.72.21 11.33-1.06 13.417-2.94 1.678 2.09 10.492 9.65 13.847 5.03-.131-1.47-.373-3.48-.969-5.55l.335-.11c12.803.83 5.255-6.71 5.255-6.71v-.02c.447.07.914.07 1.473.02 3.764-.41 29.78 7.77 40.048 23.7" fill="#6b2b17"/><path d="m517.438 1086.46 4.808 6.1c-1.193-.21-2.404 2.1-2.497 2.29-1.454-1.85-2.945-3.79-4.491-5.61l.074-.04z" fill="#215733"/><path d="m502.983 980.121c21.394 16.996 13.008 49.929 13.008 49.929l-6.299.83s-19.083-10.08-28.942-1.26c-2.516 2.72-5.665 6.09-9.858 18.47-4.193 12.37-6.504 19.08-14.461 19.71l-.28-.07c3.783-16.55-7.286-13.77-7.286-13.77s-4.1 2.74-6.634 12.86l-.28-.08c-2.516-.61-3.354-1.45-6.709-5.87-2.515-6.5-5.255-9.65-10.491-11.11-15.114 5.87-13.213-36.91-13.213-36.91 1.044-6.1 6.075-36.716 37.551-44.898 10.697-1.248 32.501-4.826 53.896 12.169m-43.198 63.029c0-4.59-3.709-8.28-8.293-8.28-4.585 0-8.293 3.69-8.293 8.28 0 4.58 3.708 8.29 8.293 8.29 4.584 0 8.293-3.71 8.293-8.29" fill="#fff"/><path d="m481.753 1034.03c33.991 7.75 33.563 15.52 33.563 15.52s-9.43 3.13-21.189 7.12c-23.071 3.15-12.374-22.64-12.374-22.64m24.748 12.15c-1.882-2.09-10.063-3.76-10.063-3.76l-2.479-.58-7.38-1.73s-2.311 13.06 9.076 10.79c2.739-.54 6.28-1.98 10.846-4.72" fill="#14381e"/><path d="m509.662 1078.3 4.193 4.42c-1.249 0-2.292 1.88-2.292 1.88l-.28.28c-1.193-1.17-2.404-2.22-3.615-3.05l.111-.17z" fill="#215733"/><path d="m501.599 1078.16-1.006 2.05c-2.255 0-5.982 2.85-6.448 3.2l-.839-.57.242-.36s1.678-2.74 1.454-5.46c-2.162-1.19-6.839 2.07-7.417 2.46l-.336-.14c-19.511 1.67-16.772-18.04-16.772-18.04 3.97 5.87 22.233 7.75 22.233 7.75 1.36 4.27 5.069 6.58 8.889 9.11" fill="#d11c23"/><path d="m496.447 1042.43s8.181 1.67 10.063 3.76c-4.547 2.74-8.088 4.18-10.846 4.72l-.056-.3c-4.193-2.52-1.677-8.61-1.677-8.61l.038-.15z" fill="#0f0c0c"/><path d="m320.314 1118.52c8.368-9.97 13.269-9.63 17.779-10.02 4.212 6.29-1.882 8.81-5.646 12.57 8.889-3.67 14.554-2.47 17.816-.61 1.584.89 2.609 1.97 3.149 2.72-.69 6.91-10.492 7.85-13.921 7.96 11.479-.06 12.523 2.2 14.76 4.62-.969 5.25-4.846 4.73-11.946 3.61-.522-.11-1.081-.18-1.677-.26.578.1 1.137.19 1.677.26 6.56 1.4 6.914 6.25 6.914 6.25-.839 4.62-4.827 1.67-11.964-.41 5.46 1.67 6.504 3.98 6.728 5.66-9.02 5.44-14.276-2.1-18.674-4.41-39.228 14.27-33.973-17.41-33.973-17.41-18.673-.84-43.216-14.68-43.216-14.68-135.91-76.36-101.938-194.638-96.069-214.785 37.756-131.716 166.118-141.372 166.118-141.372 143.476-2.926 177.878 101.732 177.878 101.732s2.721 10.063-1.901 11.945c-2.926 0-5.87 0-4.603-3.149-.224-2.516-2.516-3.97-2.516-3.97s-3.354-1.267-.633-3.578c-1.044-1.248-3.56-1.453-3.783-2.925-1.044-.634 0-3.355-2.292-5.032-2.311-1.677-3.989-2.516-3.989-6.094 0-3.559-3.354-3.354-4.621-3.559-1.267-.206-3.15-1.883-2.926-5.256.205-3.336-3.988-5.441-5.665-4.603-1.678.839-5.256-2.106-5.666-4.622-.428-2.515-2.944-5.441-6.708-3.988-3.783 1.473-6.504-4.603-6.504-4.603s-1.678-6.504-6.709-4.398c-5.05 2.087-6.932-3.783-6.932-3.783s-3.355-3.559-6.075-1.267c-2.74 2.311-5.256-2.926-5.256-2.926s-2.087-3.354-5.442-1.062c-3.373 2.311-7.137-3.97-7.137-3.97s-4.622-6.298-9.02-3.373c-4.398 2.945-9.019-2.087-9.019-2.087s-3.988-4.193-7.548-2.106c-3.559 2.106-7.342 2.311-10.492-.838-3.149-3.131-6.504-3.355-9.858-.839s-6.709 3.15-9.653-1.454c-2.926-4.621-9.858-1.062-9.858-1.062s-3.988 6.504-10.064 0c-3.764-1.882-7.547-2.087-10.268 1.267-2.739 3.355-6.299 3.56-8.181 1.473-1.901-2.106-6.094-1.901-8.181 1.248-2.106 3.15-3.354 2.945-7.771 2.74-4.398-.224-5.441 1.043-6.075 3.131-.634 2.105-4.193 3.373-8.386 1.9-4.193-1.472-7.138 3.765-7.138 3.765s.205 3.354-6.075 2.944c-6.299-.428-6.504 6.914-6.504 6.914s-1.267 4.827-6.504 4.622-5.031 7.137-5.031 7.137.41 6.075-5.871 5.442c-6.299-.634-6.504 8.181-6.504 8.181s-.429 3.988-7.137 4.193c-6.709.224-4.399 9.225-4.399 9.225s1.249 5.46-7.137 8.61c-1.044 2.925 3.149 10.268-1.677 13.846-4.827 3.559-10.287 3.764-10.064 9.634.205 5.889 3.765 10.082-2.106 13.437-5.87 3.354-3.988 12.784-3.988 12.784s6.299 8.181-.205 13.846-.633 12.375-.633 12.375 9.224 5.46.838 15.523c-1.472 4.622.429 8.815 3.988 11.964 3.578 3.131 3.783 7.958 1.473 11.741-2.311 3.764 5.031 9.019 5.031 9.019s7.343 2.311 5.237 13.213c1.267 4.62 2.311 6.71 8.61 9.02s4.193 10.9 4.193 10.9-.839 5.46 10.268 3.99c3.783.43 6.299.43 7.771 9.45 1.473 9 12.579 7.96 12.579 7.96s7.138-.21 7.772 6.71c3.764 4.82 8.386 8.6 18.449 4.82 10.064-3.76 16.791-5.03 24.748 3.36 0 0-.205 6.3 3.15 11.33 3.354 5.03 11.33 21.39-3.15 41.54 2.945 3.35 7.548 7.54 7.548 7.54z" fill="#215733"/><path d="m474.019 815.911c5.237 4.193 18.45 17.834 22.028 44.055 0 0-34.402-104.676-177.878-101.732 0 0-128.363 9.653-166.119 141.372-5.87 20.145-39.843 138.434 96.069 214.784 0 0 24.544 13.84 43.217 14.68 0 0-5.256 31.68 33.973 17.41 4.398 2.31 9.653 9.86 18.673 4.41-.223-1.67-1.267-3.98-6.708-5.66 7.119 2.09 11.106 5.03 11.945.41 0 0-.354-4.85-6.914-6.25 7.101 1.12 10.977 1.66 11.946-3.61-2.236-2.42-3.28-4.66-14.76-4.62 3.429-.11 13.231-1.04 13.921-7.96-.54-.76-1.565-1.83-3.149-2.72 0 0 24.338-2.94 32.724-9.24.205 5.25.205 8.81 6.299 11.96 1.249-2.52.205-7.34.205-7.34l2.945-5.24s-4.827 12.38 6.708 15.1c1.268-2 2.386-8.91 1.976-13.16 1.118 6.95 1.23 11.24 9.765 13.58 2.106-3.37 4.622-8.4-.839-18.46 3.988 7.13 5.032 15.52 13.213 14.48 1.193-2.87 3.466-7.92-1.733-14.39 5.032 4.23 8.815 5.2 12.02.75-.634-2.72-4.622-6.08-4.622-6.08s-2.627-5.96-8.237-10.34l.261-.36s16.567-6.09 19.102-10.49h.279c-.186 4.77-.037 10.33.541 16.77-1.659 3.36-2.926 8.61-4.194 17.43-1.248 8.8-4.807 14.05-4.807 14.05-10.287 20.13-48.677 27.36-48.677 27.36l-.13.17-.186-.17c-5.442.84-8.797.84-12.356-.62-2.516 2.52-19.716 15.21-59.692 7.66-3.969 2.93-2.516 5.24-20.127 3.97-30.208-5.24-36.712-14.05-36.712-14.05-14.052-.41-23.071-9.86-23.071-9.86-2.926-2.09-6.299-3.99-10.902-10.47-6.075-1.27-25.811-10.49-31.048-23.71-5.665-1.67-19.716-10.92-24.748-31.47-3.559-2.29-13.623-9.02-19.083-32.71-3.559-3.15-15.319-16.79-14.051-38.61-2.311-3.13-12.17-12.153-3.784-39.846-1.882-4.603-6.708-16.138 3.15-34.812-1.677-3.149-5.87-16.791 5.665-26.649-.633-7.343-3.783-12.374 8.591-26.63.839-3.988 1.268-12.579 9.859-19.083.633-5.461 1.062-10.697 9.448-17.835 1.044-3.354 2.721-10.492 12.375-17.406 2.311-3.559 4.826-8.609 11.945-12.802 3.15-4.604 3.373-7.958 12.803-12.151 3.988-3.373 6.075-7.343 14.48-9.449 3.355-3.988 4.603-8.181 15.505-11.33 5.461-3.765 6.504-6.281 16.791-9.225 0 0 7.119-5.442 13.846-6.075 5.237-2.516 6.075-3.988 15.096-4.827 0 0 4.398-3.988 14.051-3.354 4.193-1.062 8.386-3.355 14.89-1.677 3.988-1.268 6.932-2.945 16.362-1.678 3.988-.633 10.697-2.31 17.835-.428 5.237-.634 11.107-1.472 17.201 1.677 5.441 0 12.784.205 16.567 3.15 5.871.205 14.462 1.677 18.878 5.665 4.193.41 11.331 2.516 15.934 5.46 0 0 7.771 2.721 11.33 5.647 5.237 1.901 7.548 3.988 7.548 3.988s10.697 3.988 15.113 9.243c4.399 2.497 11.107 7.324 18.45 15.3 3.783 2.721 9.43 6.914 13.008 14.051" fill="#f8a30c"/><path d="m479.749 1144.9c.596 2.07.839 4.08.969 5.56-3.354 4.62-12.169-2.95-13.846-5.04-2.087 1.89-10.697 3.16-13.418 2.95-.205.84-4.193 5.24-6.504 7.55 3.354 2.08 2.721 7.54 3.783 10.26 5.442 1.27 7.343 5.88 7.343 5.88-.224 5.25 1.677 5.25-1.696 7.77-2.721-.84-2.926-1.05-8.181-5.26-3.764-1.45-5.647-2.93-9.225-10.27-3.354-3.15-8.181-8.18-21.598-5.46-13.362 2.72-20.612 10.53-34.328-1.82l.131-.17s38.39-7.23 48.676-27.36c0 0 1.677 13.21 18.45 8.39 16.772-4.83 20.76-7.55 26.425-5.03 4.846 2.14 6.02 4.77 8.61 5.21v.02s7.547 7.55-5.255 6.71z" fill="#215733"/><path d="m451.473 1034.89c4.584 0 8.293 3.69 8.293 8.27 0 4.59-3.709 8.3-8.293 8.3-4.585 0-8.293-3.71-8.293-8.3 0-4.58 3.708-8.27 8.293-8.27" fill="#215733"/><path d="m451.582 1069.05.839 13.64s-2.535 2.29-7.771.63l1.472-14.48z" fill="#215733"/><path d="m441.931 1066.76.28.07c-.932 3.73-1.659 8.44-1.883 14.41h-.298c-2.497 4.4-19.083 10.49-19.083 10.49l-.279.35c-1.976-1.54-4.324-2.89-7.064-3.72-3.559-2.5-11.312-5.87-12.579-19.93-2.087-8.18-8.815-34.6-28.941-35.44-3.783-4.19-7.138-11.31-18.45-10.27 6.486-3.99 7.753-8.18 22.214-5.66 2.74-.21 3.988.83 9.243-4.2 4.193-2.31 13.418-8.61 26.426 0 0 0-1.901 42.79 13.213 36.92 5.237 1.47 7.976 4.6 10.492 11.11 3.354 4.4 4.193 5.25 6.708 5.87" fill="#215733"/><path d="m401.117 1112.51c-.056-.62-.168-1.19-.298-1.68.112.58.205 1.14.298 1.68m0 .06c.41 4.24-.708 11.14-1.975 13.15-11.536-2.72-6.709-15.09-6.709-15.09l-2.944 5.23s1.043 4.83-.205 7.35c-6.094-3.15-6.094-6.71-6.299-11.97 2.944-2.51 4.416-6.28 9.224-14.25 4.827-7.98-17.61-16.14-26.425-19.93-19.717-3.98-28.103-25.81-28.103-25.81s-6.709-14.46 2.721-25.79c2.106-1.47 2.106-3.56 13.212-2.72 11.331-1.06 14.685 6.08 18.469 10.27 20.126.84 26.854 27.26 28.941 35.44 1.267 14.06 9.02 17.43 12.579 19.94 2.74.82 5.088 2.17 7.063 3.71 5.628 4.38 8.256 10.35 8.256 10.35s3.988 3.35 4.622 6.07c-3.187 4.46-6.97 3.47-12.02-.74-1.249-1.55-2.945-3.21-5.181-4.92 1.864 1.92 3.597 3.59 5.181 4.92 5.199 6.46 2.926 11.51 1.733 14.38-8.181 1.05-9.225-7.34-13.213-14.48 5.46 10.07 2.945 15.12.839 18.47-8.536-2.35-8.629-6.63-9.765-13.58" fill="#215733"/><path d="m365.785 1077.06c8.815 3.77 31.252 11.95 26.425 19.93-4.826 7.97-6.28 11.74-9.224 14.25-8.386 6.3-32.725 9.24-32.725 9.24-3.261-1.86-8.927-3.05-17.816.62 3.765-3.76 9.858-6.28 5.665-12.58-4.528.39-9.43.06-17.797 10.03l-.466-.38s-4.603-4.19-7.547-7.54c14.48-20.15 6.504-36.51 3.149-41.54-3.354-5.03-3.149-11.33-3.149-11.33s1.472 3.58 8.815-5.87c2.721-1.25 5.665-3.77 11.945.43 2.311.4 4.622-1.07 4.622-1.07s8.386 21.83 28.103 25.81" fill="#215733"/><path d="m269.305 1191.75c.634 2.31 4.827 10.08-2.106 5.67.429 2.51 4.827 11.12-5.236 6.71 1.677 2.94 6.708 8.38-11.536 5.66s-41.111-13.62-40.067-36.49c1.882-5.23-1.677-9.65 26.63-11.12 0 0-7.957-9.23-6.075-18.25 0 0 9.02 9.45 23.071 9.86 0 0 6.504 8.82 36.713 14.05 1.044 2.74 7.547 21.19-21.394 23.91" fill="#215733"/></g><path d="m576.166 1123.29c.056 1.38 5.908 7.7.652 9.3-5.46 1.68-19.511 7.77-38.594-7.96-9.02-1.47-15.319-2.74-19.717-6.71-4.398.62-17.834 1.68-31.252-8.4-6.094-1.25-7.138-1.88-7.138-1.88s-12.169 12.8-31.457 10.28c-1.882-1.9-3.559-1.47-7.752-19.94-1.696 3.38-2.945 8.61-4.193 17.41-1.268 8.81-4.827 14.07-4.827 14.07s1.677 13.21 18.45 8.39c16.79-4.83 20.76-7.55 26.425-5.04 4.846 2.15 6.02 4.78 8.61 5.22.447.08.913.08 1.454.02 3.783-.41 29.798 7.75 40.067 23.71 2.72 5.66 5.031 7.97 1.677 12.37.205 1.47-13.418 17.63-42.993 11.95-16.567-5.45-22.866-8.39-27.488-14.05-.205 5.25 1.696 5.25-1.677 7.77-2.721-.84-2.926-1.05-8.162-5.26-3.783-1.45-5.666-2.92-9.244-10.27-3.354-3.15-8.181-8.18-21.598-5.46-13.362 2.72-20.612 10.53-34.327-1.82l-.187-.17c-5.441.84-8.796.84-12.355-.62-2.516 2.52-19.717 15.21-59.692 7.64-3.97 2.95-2.516 5.26-20.127 3.99 1.044 2.74 7.547 21.19-21.394 23.93.634 2.29 4.827 10.06-2.106 5.65.429 2.51 4.827 11.12-5.237 6.72 1.677 2.93 6.709 8.39-11.536 5.65-18.244-2.72-41.11-13.62-40.066-36.49 1.9-5.25-1.678-9.65 26.649-11.12 0 0-7.977-9.23-6.094-18.25-2.926-2.08-6.28-3.99-10.902-10.49-6.094-1.25-25.792-10.47-31.047-23.69-5.666-1.69-19.717-10.92-24.749-31.47-3.559-2.29-13.623-9.02-19.083-32.71-3.578-3.15-15.318-16.79-14.051-38.59-2.311-3.15-12.17-12.172-3.783-39.864-1.883-4.622-6.709-16.158 3.149-34.812-1.677-3.15-5.87-16.791 5.665-26.649-.633-7.343-3.783-12.375 8.592-26.631.838-3.988 1.267-12.579 9.858-19.083.634-5.46 1.062-10.697 9.448-17.835 1.044-3.354 2.721-10.491 12.375-17.405 2.311-3.56 4.826-8.591 11.945-12.803 3.15-4.603 3.355-7.958 12.803-12.169 3.988-3.336 6.075-7.324 14.481-9.43 3.354-3.988 4.603-8.181 15.505-11.331 5.46-3.764 6.504-6.28 16.79-9.225 0 0 7.138-5.46 13.846-6.075 5.237-2.516 6.076-3.988 15.096-4.826 0 0 4.398-3.988 14.051-3.355 4.193-1.062 8.386-3.354 14.89-1.677 3.988-1.267 6.933-2.944 16.362-1.677 3.988-.634 10.697-2.311 17.835-.429 5.237-.633 11.107-1.472 17.201 1.678 5.442 0 12.784.205 16.567 3.149 5.871.205 14.481 1.677 18.878 5.665 4.194.429 11.331 2.516 15.934 5.461 0 0 7.771 2.72 11.33 5.646 5.237 1.901 7.548 3.988 7.548 3.988s10.697 3.988 15.114 9.244c4.398 2.515 11.106 7.324 18.449 15.3 3.783 2.739 9.449 6.932 13.008 14.051 5.237 4.193 18.45 17.834 22.028 44.055 0 0 2.721 10.064-1.901 11.946-2.926 0-5.871 0-4.603-3.131-.205-2.535-2.516-3.988-2.516-3.988s-3.354-1.267-.634-3.578c-1.043-1.249-3.559-1.454-3.783-2.926-1.043-.634 0-3.355-2.311-5.032-2.292-1.677-3.969-2.516-3.969-6.094 0-3.559-3.354-3.354-4.622-3.559-1.248-.205-3.149-1.901-2.944-5.236.223-3.355-3.97-5.461-5.647-4.622-1.696.838-5.255-2.106-5.665-4.622-.429-2.516-2.945-5.441-6.728-3.988-3.764 1.472-6.485-4.603-6.485-4.603s-1.677-6.504-6.728-4.398c-5.032 2.087-6.914-3.783-6.914-3.783s-3.354-3.56-6.075-1.267c-2.739 2.311-5.255-2.926-5.255-2.926s-2.088-3.355-5.442-1.062c-3.354 2.31-7.137-3.97-7.137-3.97s-4.622-6.299-9.02-3.373c-4.398 2.945-9.02-2.087-9.02-2.087s-3.988-4.193-7.547-2.106c-3.578 2.106-7.343 2.311-10.492-.839-3.149-3.13-6.504-3.354-9.858-.838-3.355 2.534-6.709 3.149-9.653-1.454-2.926-4.621-9.859-1.062-9.859-1.062s-3.969 6.504-10.063 0c-3.765-1.882-7.548-2.087-10.268 1.267-2.74 3.355-6.299 3.56-8.181 1.472-1.901-2.105-6.094-1.9-8.181 1.249-2.106 3.149-3.355 2.944-7.771 2.739-4.398-.223-5.442 1.044-6.075 3.131-.634 2.106-4.194 3.373-8.387 1.901s-7.137 3.765-7.137 3.765.205 3.354-6.075 2.944c-6.299-.428-6.504 6.914-6.504 6.914s-1.267 4.826-6.504 4.622c-5.256-.206-5.032 7.137-5.032 7.137s.41 6.075-5.889 5.442c-6.28-.634-6.485 8.181-6.485 8.181s-.429 3.988-7.138 4.193c-6.709.223-4.398 9.224-4.398 9.224s1.249 5.461-7.138 8.61c-1.043 2.926 3.15 10.268-1.677 13.846-4.826 3.56-10.286 3.765-10.063 9.654.205 5.87 3.764 10.063-2.106 13.417-5.87 3.355-3.988 12.785-3.988 12.785s6.299 8.181-.205 13.846c-6.504 5.666-.634 12.375-.634 12.375s9.225 5.46.839 15.523c-1.454 4.622.428 8.815 3.988 11.965 3.559 3.13 3.783 7.957 1.472 11.74s5.032 9.02 5.032 9.02 7.343 2.31 5.237 13.215c1.267 4.62 2.311 6.71 8.61 9.02 6.28 2.31 4.193 10.9 4.193 10.9s-.839 5.46 10.268 3.99c3.783.43 6.299.43 7.771 9.45 1.472 9.01 12.579 7.95 12.579 7.95s7.138-.2 7.771 6.71c3.765 4.83 8.386 8.61 18.45 4.83 10.063-3.77 16.772-5.03 24.748 3.35 0 0 1.472 3.58 8.815-5.87 2.721-1.25 5.665-3.76 11.964.43 2.292.41 4.603-1.04 4.603-1.04s-6.708-14.48 2.721-25.81c2.106-1.48 2.106-3.56 13.213-2.72 6.504-3.99 7.771-8.19 22.251-5.67 2.721-.22 3.969.84 9.225-4.19 4.193-2.31 13.418-8.61 26.426 0 1.043-6.1 6.075-36.715 37.551-44.897 10.697-1.248 32.501-4.826 53.895 12.17s13.008 49.927 13.008 49.927l-6.299.84s3.578 5.44 3.783 6.71c0 0 11.946 1.25 15.934 5.87 0 0 7.976 2.72 18.244-1.48 10.287-4.19 24.972-1.45 24.972-1.45s15.934 5.65 21.394.62c5.461-5.04 8.592-3.15 8.592-3.15s2.944-5.87 6.504-3.13c3.354-1.27 11.535-5.47 18.039 1.67 3.149.21 14.89 2.3 6.932 14.69-1.341 2.64-3.149 5.77-5.516 6.52-1.341.45-2.851.11-4.565-1.49-.541-.5-1.1-1.14-1.678-1.9 0 0-3.261 2.05-7.174 2.68-1.473.24-3.038.3-4.548-.04-1.49-.33-2.925-1-4.211-2.23-.447-.41-.857-.9-1.267-1.46-.765.28-2.926 1.33-5.908 2.59-2.199.96-4.845 2.03-7.734 3.06-1.938.69-4.007 1.36-6.075 1.94-3.448.95-6.97 1.68-10.25 1.84-3.503.21-6.727-.22-9.28-1.58-1.118-.6-2.087-1.4-2.907-2.39-4.827 0-15.524 1.25-18.245 4.2-1.267 1.36-4.566 1.23-7.734.7-.801-.12-1.565-.29-2.311-.44-2.702-.62-4.845-1.33-4.845-1.33s-1.957.62-4.826 1.48c-7.939 2.34-22.923 6.58-23.705 5.03-1.044-2.09.633 6.3 3.988 6.73l.95.05c2.59-.04 3.429-1.54 5.125.15-1.044 1.68-1.677 2.93-1.677 2.93l4.193 4.41s4.416 0 4.826.62c.429.63-1.248 3.15-1.248 3.15l4.808 6.09s2.944 0 3.578.41c.633.43-.205 2.31-.205 2.31s5.665 8.82 13.417 9.23c7.343 2.31 11.965 4.19 11.965 4.19l3.354-.84 1.044 2.52 2.31 1.06 2.926-1.68 1.268 3.36s8.591 6.71 10.902 7.12l.894.04m.019-.02c1.566-.21 2.032-1.83 2.032-1.83s.838 3.71.409 4.75m-237.846 7.98s.316 0 .875-.02h.299c3.429-.11 13.231-1.04 13.921-7.96-.541-.74-1.566-1.82-3.15-2.72-3.261-1.86-8.926-3.06-17.816.62 3.765-3.77 9.859-6.28 5.666-12.58-4.529.39-9.412.05-17.798 10.02-.559.67-1.137 1.38-1.714 2.15-7.138 2.08-6.094-1.68-11.536 2.08m35.24 16.63c7.119 1.12 10.977 1.64 11.946-3.62-2.237-2.42-3.28-4.68-14.76-4.62m2.814 8.24c-.522-.11-1.081-.19-1.677-.26.577.09 1.136.18 1.677.26zm153.748-279.427s-34.402-104.661-177.879-101.732c0 0-128.362 9.653-166.118 141.372-5.87 20.146-39.844 138.427 96.069 214.777 0 0 24.543 13.85 43.217 14.69 0 0-5.256 31.68 33.973 17.4 4.398 2.32 9.653 9.86 18.673 4.42-.224-1.68-1.267-3.99-6.709-5.66 7.119 2.08 11.107 5.03 11.946.41 0 0-.354-4.85-6.914-6.25m-112.428 46.31s14.685 7.98 39.433 6.1m-7.342 12.37s-8.815-6.09-13.642-7.14m13.231-22.86s.82-4.62-24.543-11.97m30.19 35.24s-3.764-2.92-7.958-2.51m-28.326-50.97s9.02 9.44 23.071 9.85c0 0 6.504 8.82 36.712 14.06m21.599-110.12s-.205 6.3 3.15 11.33c3.354 5.03 11.33 21.39-3.15 41.54 2.945 3.35 7.548 7.54 7.548 7.54m-35.222-38.39s-31.681 18.88 7.119 46.99c-.205 1.26-.41 2.31-.41 2.31m130.189-21.29c5.051 4.2 8.834 5.18 12.02.73-.633-2.72-4.621-6.07-4.621-6.07s-2.628-5.97-8.256-10.35c-1.975-1.54-4.324-2.89-7.063-3.71-3.56-2.51-11.312-5.87-12.579-19.94-2.088-8.18-8.815-34.6-28.942-35.44-3.783-4.19-7.137-11.31-18.468-10.27m67.907 85.05c-1.248-1.56-2.944-3.2-5.18-4.93 1.863 1.91 3.596 3.57 5.18 4.93zm-20.406 4.77c1.118 6.96 1.23 11.24 9.766 13.57 2.105-3.35 4.621-8.39-.839-18.45 3.988 7.14 5.032 15.52 13.213 14.48 1.192-2.87 3.466-7.92-1.733-14.37m-20.407 4.72c-.055-.62-.167-1.19-.298-1.68.112.58.205 1.14.298 1.68zm0 0v.06m-50.856 7.91s24.339-2.94 32.725-9.24c.205 5.26.205 8.82 6.299 11.97 1.248-2.52.205-7.35.205-7.35l2.944-5.23s-4.827 12.37 6.709 15.09c1.267-2.01 2.385-8.91 1.975-13.15m-63.437-61.3s8.386 21.8 28.103 25.79c8.815 3.77 31.252 11.95 26.426 19.92-4.808 7.98-6.281 11.74-9.225 14.26m57.063-29.99c-2.534 4.4-19.102 10.5-19.102 10.5m26.221-26.02 2.311-8.18 3.149.63-.838 7.96zm-1.044 3.15 5.461.21.838 13.64s-2.534 2.29-7.771.61zm-.838 18.45s.838 12.17 1.677 13.64 8.591-.41 8.591-.41l-2.516-13.85zm2.721 17.83 9.019-1.47 5.871 10.49s-8.163 2.73-11.536 1.48c-.634-2.52-3.354-10.5-3.354-10.5zm-36.489-92.28s-1.882 42.79 13.212 36.92c5.237 1.47 7.977 4.6 10.492 11.1 3.355 4.4 4.193 5.24 6.709 5.87m67.74-35.85s-19.083-10.06-28.941-1.27c-2.516 2.74-5.665 6.08-9.859 18.47-4.193 12.37-6.504 19.08-14.48 19.72m3.373-24.66c0 4.58-3.708 8.29-8.293 8.29-4.584 0-8.293-3.71-8.293-8.29 0-4.56 3.709-8.27 8.293-8.27 4.585 0 8.293 3.71 8.293 8.27zm-76.575 113.68s38.39-7.23 48.676-27.36m26.202 42.57s-1.882-4.61-7.343-5.88c-1.043-2.72-.41-8.18-3.764-10.26 2.311-2.31 6.299-6.71 6.504-7.55 2.721.21 11.33-1.06 13.418-2.95 1.677 2.11 10.491 9.66 13.846 5.04-.13-1.49-.373-3.49-.969-5.56-1.249-4.41-4.082-9.17-10.772-10.17m16.363 3.35s7.547 7.55-5.256 6.71m-20.276-48.86s17.76 10.06 20.276 11.74c0 0-8.181 3.35-12.784 3.15-3.578-2.89-5.945-8.5-7.585-14.85-2.385-9.29-3.205-20.21-3.951-26.69.131-.52.261-1.03.373-1.51 3.783-16.57-7.305-13.79-7.305-13.79s-4.1 2.74-6.634 12.86c-.932 3.73-1.659 8.44-1.882 14.4-.187 4.77-.037 10.33.559 16.78m60.698-19.83c-3.82-2.54-7.547-4.85-8.889-9.12 0 0-18.263-1.88-22.233-7.75 0 0-2.739 19.72 16.772 18.04l.336.15c1.677.82 3.652 1.97 5.721 3.35l.857.58c1.621 1.14 3.299 2.41 4.901 3.75 2.479 2.07 4.79 4.32 6.634 6.61 1.361 1.7 2.46 3.41 3.15 5.05 5.665 6.3 14.48 16.57 22.027 17.43l.671.37c1.435.76 3.262 1.72 5.219 2.74.708.35 1.416.75 2.161 1.12 2.088 1.06 4.268 2.18 6.299 3.2 4.883 2.5 8.927 4.51 8.927 4.51s5.218 2.07 10.231 3.1c2.422.48 4.789.72 6.485.37.839-.17 1.51-.47 1.957-.95 1.528-1.34 4.118-2 1.155-5.14l-.95-.94c-.541-.5-1.081-.95-1.566-1.32-3.484-2.66-5.553-2.66-5.553-2.66s-2.535-1.79-5.703-3.45c-1.397-.71-2.926-1.4-4.416-1.9-.858-.3-1.678-.51-2.479-.64l-.839-.11c-1.584-.11-3.578-.59-5.646-1.21-4.995-1.49-10.287-3.82-10.287-3.82s-6.094-2.29-11.964-8.8c-.485-.54-.969-1.1-1.472-1.71-1.081-1.29-2.199-2.7-3.336-4.17-1.454-1.85-2.945-3.79-4.491-5.62-1.286-1.54-2.628-3.05-3.97-4.37-1.193-1.18-2.404-2.22-3.615-3.08-1.156-.8-2.293-1.41-3.448-1.83-.559-.4-1.155-.8-1.733-1.19zm-7.603-36.32-7.38-1.74s-2.311 13.07 9.075 10.79c2.74-.54 6.281-1.97 10.846-4.71-1.882-2.09-10.063-3.77-10.063-3.77zm-12.207-7.81s-10.697 25.79 12.375 22.64c11.759-3.99 21.189-7.14 21.189-7.14s.428-7.75-33.564-15.5zm12.17 7.96s-2.516 6.09 1.677 8.61m110.958-5.26-.205-1.04s11.964-9.66 14.461 2.94c-3.13.84-4.808 3.36-14.256-1.9zm21.189 2.94s5.442-1.67-.633-11.74m-3.15 19.72c-.205.15-3.764 2.85-3.354 7.34 1.901-.22 4.826 0 7.976-5.66m-18.039-.84s-2.721 5.03 0 7.55c2.311-1.05 6.075-2.74 5.46-7.55m-16.791-1.27-.038.08c-.224.54-1.621 3.84-1.398 6.18.093.95.447 1.74 1.23 2.13 2.087-1.88 5.46-2.31 7.119-9.23m-14.666 3.99s-1.472 6.51-.224 7.55c2.535-.43 6.299-4.4 6.299-4.4m-12.169-1.27v.04c-.112.54-1.733 8.41-9.225 9.62-.634-2.11-.969-7.07-.969-7.07-6.299 7.98-8.051 6.43-10.138 7.07-1.398-1.98.578-8.59.801-9.36l.039-.09m-40.906 2.31s-1.882 8.61.205 10.29c2.516-.84 7.343-1.68 9.449-10.29m2.292.43s-3.56 7.96-1.677 9.43c2.515-.63 7.137-1.05 9.448-10.27m-57.192 16.57.056-.06c.578-.39 5.255-3.65 7.417-2.46.224 2.72-1.454 5.46-1.454 5.46m9.02-3.78s.82-1.85 3.671-3.51l.093-.05m1.473 6.5 1.882-3.37m1.882 6.3s1.062-1.88 2.311-1.88m1.472 6.5 2.106-2.74m2.311 8.41v-.02c.093-.19 1.304-2.5 2.497-2.29m1.062 6.28s2.311-2.09 2.311-3.56m21.17 18.11.019-.04c.206-.3 2.199-3.26 4.193-4.66m2.293 5.93s2.944-2.35 2.106-4.25m.372 4.94s-.168-2.2 1.938-3.88m2.516 5.67s2.311-1.7 1.677-3.99m9.635 10.06s.354-2.44 2.162-2.9l.019-.02.074-.02m.28 5.25s1.938-.97 2.068-2.18l.019-.13m-11.889 8.26.093-.13 5.087-6.66s1.603 4.31 1.398 7.03v.04m-39.303-15.11 4.976-3.49s2.292 2.29.224 6.26l-.02.02m-42.638-35.93.056-.04c.447-.35 4.174-3.2 6.429-3.2.447 0 .839.11 1.137.37-1.472 2.52-2.181 5.46-2.591 6.5m6.784 6.51 6.504-2.72s-.634 6.71-3.578 7.96m30.208 21.39s4.622-4.19 6.914-3.97c0 2.09.354 5.24-.689 7.34m-291.28 30.19s-9.225-8.81-2.311-37.33" fill="none" stroke="#0f0c0c" stroke-width="1.33"/><path d="m220.014 1133.45s-9.43-10.06 1.043-36.28m-32.091 12.6s-4.603-12.6 9.449-31.05m-34.197-.43s4.193-11.74 14.89-20.55m-33.973-12.15s9.019-14.69 15.318-17.84m150.375 136.12s-9.989-8.67-13.623-16.22m73.293 8.58s-19.605-9.14-22.679-15.85" fill="none" stroke="#211e1e" stroke-width="1.33"/><path d="m131.087 1006.98s3.149-7.976 16.567-15.318m-20.35-24.544s11.125-11.106 16.791-9.858m-13.642-24.953s8.386-7.548 15.095-5.032m-9.43-21.617s6.914-3.765 14.89-2.926m-6.299-23.705s9.654-2.516 14.052 1.043m-4.193-20.127s9.243-.428 11.759 2.721m-2.311-20.555s8.386-.839 11.536 3.783m.838-21.189s8.815 0 11.331 4.827m.633-17.63s6.281 0 9.001 6.094m3.784-18.263s6.708-.839 8.814 6.094m5.666-15.524s3.764.839 6.075 5.665m9.43-16.996s6.093 2.945 5.889 7.138m10.902-16.362s3.988 3.354 4.603 8.181m9.243-14.257s2.721 3.149 3.988 8.181m11.107-13.008s2.945 3.354 2.516 8.181m11.536-11.536s1.882 3.988 1.677 7.547m13.213-9.224s1.062 2.087.633 5.87m15.729-7.547s.839 3.354-.41 5.87m18.244-6.299s.205 4.398-1.043 6.504m18.244-4.826s.634 3.354-.838 6.708m17.405-3.559s.41 4.193-1.472 6.075m20.35-.41s-.205 4.622-4.193 3.988m19.288 1.249s-.838 4.417-4.603 3.783" fill="none" stroke="#0f0c0c" stroke-width="1.33"/><path d="m419.904 773.308s-1.267 3.149-4.603 3.354" fill="none" stroke="#211e1e" stroke-width="1.33"/><path d="m454.306 1095.1c-2.944-2.52-8.386-4.63-8.386-4.63l-.633-3.14 7.752-.64z" fill="#215733" fill-rule="nonzero" stroke="#0f0c0c" stroke-width="1.33"/><path d="m530.844 1116.28c-7.976.2-15.729-6.5-15.729-6.5-4.193-1.7-9.653-8.82-9.653-8.82-3.765-7.55-22.643-17.41-22.643-17.41-3.578-.42-11.125-5.25-11.125-5.25-9.02-10.9-12.784-2.52-12.784-2.52-.429 6.3 4.603 22.03 4.603 22.03l16.567 9.86 7.138 1.88s13.418 11.13 31.252 8.41c0 0 5.386 5.51 19.717 6.7 0 0 17.405 13.78 31.103 9.86 0 0 1.416-1.12-7.268-3.63 0 0-8.386-2.54-15.095-6.17z" fill="#f8a30c" fill-rule="nonzero"/><path d="m530.844 1116.28c-7.976.2-15.729-6.5-15.729-6.5-4.193-1.7-9.653-8.82-9.653-8.82-3.765-7.55-22.643-17.41-22.643-17.41-3.578-.42-11.125-5.25-11.125-5.25-9.02-10.9-12.784-2.52-12.784-2.52-.429 6.3 4.603 22.03 4.603 22.03l16.567 9.86 7.138 1.88s13.418 11.13 31.252 8.41c0 0 5.386 5.51 19.717 6.7 0 0 17.405 13.78 31.103 9.86 0 0 1.416-1.12-7.268-3.63 0 0-8.386-2.54-15.095-6.17zm34.607 15.3s3.783 1.68 5.031 2.51m-95.005-93.75s-3.354 26.02 12.151 22.03c0 0 35.669-9.02 41.111-5.24 0 0 10.491 3.76 24.338-1.68 0 0 13.418-2.31 23.276-.42 0 0 7.343 1.67 24.339-6.3 0 0 4.826-2.93 9.225-1.48m10.902 0s2.311 4.01 7.137 2.74c0 0 5.032-.63 4.827 2.72m-140.103 16.37s5.646 1.26 8.591-.64" fill="none" stroke="#0f0c0c" stroke-width="1.33"/><path d="m448.491 1154.64s8.815 16.36 38.185 23.07c0 0 25.736 7 43.477-6.71" fill="none" stroke="#211e1e" stroke-width="1.33"/><path d="m505.273 1177.87s-.131 1.81-.56 2.93c0 0-16.362 3.65-36.078-7.96 0 0-.28-1.83.987-2.52 0 0 24.469 9.79 35.651 7.55" fill="#fff" fill-rule="nonzero"/><path d="m505.273 1177.87s-.131 1.81-.56 2.93c0 0-16.362 3.65-36.078-7.96 0 0-.28-1.83.987-2.52 0 0 24.469 9.79 35.651 7.55z" fill="none" stroke="#0f0c0c" stroke-width=".66"/><path d="m468.633 1176.49s-.708-5.18 4.193-9.1c0 0 1.398 0 1.677.99 0 0-4.472 4.47-4.044 8.52 0 0-.838 1.11-1.826-.41" fill="#fff" fill-rule="nonzero"/><path d="m468.633 1176.49s-.708-5.18 4.193-9.1c0 0 1.398 0 1.677.99 0 0-4.472 4.47-4.044 8.52 0 0-.838 1.11-1.826-.41z" fill="none" stroke="#0f0c0c" stroke-width=".66"/><path d="m474.654 1179.25s-.708-5.18 4.193-9.09c0 0 1.397 0 1.677.99 0 0-4.473 4.47-4.063 8.51 0 0-.838 1.14-1.807-.41" fill="#fff" fill-rule="nonzero"/><path d="m474.654 1179.25s-.708-5.18 4.193-9.09c0 0 1.397 0 1.677.99 0 0-4.473 4.47-4.063 8.51 0 0-.838 1.14-1.807-.41z" fill="none" stroke="#0f0c0c" stroke-width=".66"/><path d="m481.753 1180.78s-.69-5.16 4.193-9.08c0 0 1.397 0 1.696.97 0 0-4.492 4.48-4.063 8.54 0 0-.839 1.12-1.826-.43" fill="#fff" fill-rule="nonzero"/><path d="m481.753 1180.78s-.69-5.16 4.193-9.08c0 0 1.397 0 1.696.97 0 0-4.492 4.48-4.063 8.54 0 0-.839 1.12-1.826-.43z" fill="none" stroke="#0f0c0c" stroke-width=".66"/><path d="m488.336 1182.64s-.987-5.12 3.653-9.32c0 0 1.398-.07 1.733.88 0 0-4.193 4.73-3.541 8.76 0 0-.764 1.17-1.845-.32" fill="#fff" fill-rule="nonzero"/><path d="m488.336 1182.64s-.987-5.12 3.653-9.32c0 0 1.398-.07 1.733.88 0 0-4.193 4.73-3.541 8.76 0 0-.764 1.17-1.845-.32z" fill="none" stroke="#0f0c0c" stroke-width=".66"/><path d="m504.605 1174.96s1.416 5.01-2.87 9.58c0 0-1.379.2-1.808-.73 0 0 3.802-5.07 2.814-9.02 0 0 .69-1.23 1.864.17" fill="#fff" fill-rule="nonzero"/><path d="m504.605 1174.96s1.416 5.01-2.87 9.58c0 0-1.379.2-1.808-.73 0 0 3.802-5.07 2.814-9.02 0 0 .69-1.23 1.864.17z" fill="none" stroke="#0f0c0c" stroke-width=".66"/><path d="m494.538 1183.74s-1.267-5.07 3.168-9.51c0 0 1.398-.15 1.789.8 0 0-3.969 4.92-3.112 8.93 0 0-.708 1.19-1.845-.22" fill="#fff" fill-rule="nonzero"/><path d="m494.538 1183.74s-1.267-5.07 3.168-9.51c0 0 1.398-.15 1.789.8 0 0-3.969 4.92-3.112 8.93 0 0-.708 1.19-1.845-.22z" fill="none" stroke="#0f0c0c" stroke-width=".66"/><path d="m530.176 1170.33s-6.858-15.95-42.807-27.26m-69.624-90.48s9.504 3.35 14.256 11.74c0 0 5.591 7.83 5.032 17.07m-26.836-24.62s8.945 1.96 14.257 9.23c5.311 7.27 6.708 11.18 7.268 17.05m-26.556-21.8s8.106 3.63 13.976 10.06c0 0 7.268 9.78 6.43 13.98m-23.5-14.54s13.157 7.27 16.232 16.51m-84.457-10.64s11.182 6.71 12.858 20.7c0 0 .839 10.63-3.913 19.29m-2.516-43.07s13.697 6.43 16.213 17.35c0 0 2.236 16.78-3.913 22.93m-24.041-34.41s7.268 9.53 8.666 16.24c0 0 2.236 9.78-.559 12.02m-12.878-26.02s4.492 8.69 3.933 17.35c0 0-.559 7.83-1.678 12.02m25.159-38.31s12.299 10.34 13.977 19.86c0 0 2.254 14.26.559 19.29m.298-31.89s14.256 12.32 11.182 27.98m0-22.66s11.74 8.4 6.708 18.18m-38.315-75.79s11.182-5.03 14.536 5.59c0 0 23.5 8.97 28.532 20.15l5.032 11.18m-102.906 16.79s-14.555 8.39-6.728 23.48l8.405 12.3m230.433-69.34s1.826 3.07 6.504-4.35m-183.245 8.82s4.472 15.09 26.295 19.01" fill="none" stroke="#0f0c0c" stroke-width="1.33"/><path d="m509.662 1185.69s11.74-17.4 9.243-32.52l4.398 3.99s1.249 11.33-7.976 26.86z" fill="#fff" fill-rule="nonzero"/><path d="m458.925 1173.1s-2.106-17 8.796-26.45l-.839-1.25s-3.149 1.68-7.342 2.52c0 0-7.753 14.26-5.666 19.51 0 0 2.516 0 5.051 5.67" fill="#fff" fill-rule="nonzero"/><path d="m530.844 1049.15s14.48-1.88 20.555-3.35c6.094-1.47 12.785-4.83 26.631.41 13.846 5.25 21.617-2.52 21.617-2.52s6.485-5.23 7.753-5.44m-119.771-187.308c-77.172-113.268-206.393-68.804-206.393-68.804-103.187 45.303-114.088 142.636-114.088 142.636-15.114 83.896 69.066 151.846 69.066 151.846l9.244-2.52s14.61-21.95 31.382-14.68c0 0 1.044 1.26 5.237-3.36m-9.225 2.11s-92.285-39.02-78.026-145.567c0 0 13.008-64.61 72.569-107.399 0 0 76.78-55.365 186.694 14.684m-61.533 199.962s-3.355-3.91-11.74-2.79m-131.998 52.01s-71.042-52.01-68.804-128.648c0 0 2.236-124.169 125.848-156.056m-47.54 276.874s-91.728-56.49-66.567-149.91m-21.524 68.246s6.988-9.504 13.977-3.075m-10.063 14.816s7.547-7.827 13.417-3.634" fill="none" stroke="#0f0c0c" stroke-width="1.33"/><path d="m190.926 995.769s-9.224-3.914-12.579 5.591m16.493 2.81s-10.064-.28-12.859 5.59m38.595 52.02s-2.796-10.63 9.784-8.95m-41.111-30.77s2.236-8.66 12.318-6.15m-4.771 17.33s1.678-12.3 11.759-6.15m-4.752 15.66s-.838-9.79 11.741-6.43m-2.796 17.07s-2.516-10.9 10.064-8.95m-55.088-75.508s8.386-7.547 13.976-1.957m-15.653-8.684s7.547-9.225 14.815-.839m-15.654-14.536s8.946-6.988 14.536 1.678m-13.697-13.698s10.623-8.945 14.257 1.957m-11.741-15.952s10.623-7.827 13.698 3.093m-10.623-14.834s11.461-7.268 12.859 3.075m-8.946-14.816s9.505-9.784 12.3 3.634m-3.914-23.5s9.225-5.87 10.903 4.491m-15.096 4.753s8.946-6.15 11.461 3.634m-2.516-22.102s8.107-.28 9.784 5.031m-5.311-11.74s7.007-.559 9.243 5.032m-5.05-11.741s6.448-.559 9.243 4.473m-4.193-11.461s5.871-1.119 7.548 5.311m9.784-25.177s6.15-.839 6.988 5.311m-17.891 6.728s5.312-1.696 7.827 4.752m-2.236-11.759s5.311-.559 7.547 4.752m6.989-18.17s4.193.28 5.87 5.312" fill="none" stroke="#211e1e" stroke-width="1.33"/><path d="m235.39 809.566s5.87.838 6.169 5.87m3.056-12.3s5.33 0 5.609 5.871m3.914-12.579s6.988 2.516 4.472 6.988m5.591-12.877s4.193 3.075 4.193 7.287m4.193-11.48s6.709 3.355 3.634 7.548m2.796-10.903s6.448 3.914 5.311 7.827m3.653-10.343s6.429 2.516 3.634 7.827m5.87-10.343s6.988 5.591 5.032 11.741m5.87-13.418s6.709 6.15 3.634 10.902m6.709-12.3s6.43 6.989 2.236 10.903m6.988-11.741s4.212 8.107 1.137 11.182m7.268-11.461s4.193 6.988.559 10.623m6.43-10.623s3.913 6.709.838 10.623m6.989-10.623s3.634 6.709.279 10.623m6.43-10.064s4.491 5.871.838 10.343m10.343-8.945s3.373 6.988-.261 10.343m9.225-8.666s3.355 7.548.28 10.064m9.504-8.107s4.473 4.194 0 10.903m9.504 2.236s2.516-4.473.559-10.064m6.989 13.139s4.193-6.15 1.397-10.623m5.889 13.157s4.752-6.728 2.237-9.803m5.591 13.437s4.752-3.634 2.795-9.523m5.032 12.598s5.87-2.255 3.354-7.846m4.193 11.479s5.032-3.634 3.355-6.429m-230.434 284.701s3.355-8.4 9.02-11.96m-20.779 1.04s4.827-8.8 8.815-10.7m-39.433-28.1s5.031-9.43 11.535-12.8m.839 31.27s.429-4.2 7.138-6.51m-14.052-2.51s3.56-7.77 9.02-8.82m-19.922-10.9s7.547-9.02 13.828-10.49m-19.493-2.11s6.708-7.75 12.989-9.02m-20.127-15.521s10.268-7.342 16.363-5.441m-13.213 17.402s8.591-7.973 12.579-7.339m-17.611-16.568s6.28-5.46 10.697-3.354m-11.964-7.547s5.237-3.783 9.449-.634m31.028 98.152s3.783-5.66 7.771-7.34m46.776 52.44s-4.211-22.87 7.548-27.26m-24.973 15.52s1.268-7.14 7.343-10.7m76.352-23.07s6.298 1.46 6.504-4.62m-168.227-104.662s5.05-2.739 9.877-1.677m-9.654-8.181s6.914-3.149 9.02-.428m-8.386-8.386s5.032-2.945 7.958 0m-6.504-9.859s5.889-2.721 9.858-1.677m-8.386-5.441s5.255-3.15 6.932-.429m-5.255-8.181s4.621-2.311 6.299.429m-3.988-9.449s4.826-1.677 6.075 1.044m-3.97-8.591s5.032-.839 5.237 1.248m-2.721-8.796s4.398-1.472 4.808.205m10.287-2.311s-5.87-5.665-13.008-3.149m3.149-7.958s5.871-1.062 8.387 2.087m-5.871-7.547s5.46-.839 5.665 1.267m9.449-.429s-4.845-6.708-11.964-7.343m13.418-1.677s-4.827-3.988-9.635-5.237m3.336-5.665s5.46 1.249 5.889 3.765m-2.945-7.958s8.592.205 10.287 5.032m-5.665-11.964s3.764-.839 6.914 3.149m-1.883-9.43s6.914-1.696 11.946 3.764m-5.87-11.535s4.193 0 5.87 3.578m0-9.877s5.255-.205 7.566 4.417m2.721-14.276s6.914 1.063 6.914 3.989m6.504-15.096s3.354.634 3.783 4.193m5.031-10.268s4.622.205 4.193 3.131m15.114-14.256s4.808 1.882 5.871 6.708m-18.04-.205s4.194 2.721 3.97 4.622m27.898-6.933s2.516-4.603-6.709-10.491m23.295 2.515s2.087-7.324-1.901-10.063m-9.019 9.653s.428-5.46-2.293-5.665m8.797 2.516s1.043-3.15-1.678-5.237m27.264 5.237s2.106-9.02-.633-11.946m-8.591 8.591s1.882-4.826-.41-6.708m22.847 9.019s2.74-7.547-1.248-12.374m-4.398 7.976s1.043-4.417-1.268-7.566m22.643 10.902s2.106-7.324-.82-10.678m-6.094 6.914s1.678-4.827-.633-7.343m24.543 11.964s2.944-5.889-.205-10.287m-7.343 5.032s.634-2.926-.41-5.665m23.91 12.169s3.149-2.926 0-8.796m-6.299 3.354s2.106-2.944 0-4.826m22.643 14.461s3.783-3.56.633-9.02m18.04 13.846s3.578-3.149 1.677-7.137m15.729 14.685s5.031-3.15 3.783-5.666" fill="none" stroke="#0f0c0c" stroke-width="1.33"/><path d="m414.666 782.945s4.603-2.088 3.559-4.603m19.084 16.567s3.149-1.472 3.149-3.783m7.976 13.642s4.827 0 4.827-3.579m17.406 23.071s2.515 1.473 2.72-2.087m-13.212-7.771s3.783.429 3.988-2.926" fill="none" stroke="#211e1e" stroke-width="1.33"/><path d="m499.405 1045.72c0 1-.82 1.83-1.827 1.83-1.006 0-1.807-.83-1.807-1.83 0-1.01.801-1.83 1.807-1.83 1.007 0 1.827.82 1.827 1.83" fill="#fff" fill-rule="nonzero"/><path d="m499.405 1045.72c0 1-.82 1.83-1.827 1.83-1.006 0-1.807-.83-1.807-1.83 0-1.01.801-1.83 1.807-1.83 1.007 0 1.827.82 1.827 1.83z" fill="none" stroke="#0f0c0c" stroke-width="1.33"/></g></svg>