<svg clip-rule="evenodd" fill-rule="evenodd" stroke-linejoin="round" stroke-miterlimit="2" viewBox="0 0 560 400" xmlns="http://www.w3.org/2000/svg"><g fill-rule="nonzero" transform="matrix(.365962 0 0 .365962 61.9596 47.3014)"><path d="m309.9 519.6-17.4 10.6c-5.7-8.9-15.6-14.2-26.2-14-18.4 0-32 13.5-32 33.1.1 20.3 14.1 33.1 32 33.1 10.6.2 20.6-5 26.4-13.9l16.5 11.9c-9 13.2-24.2 21.4-42.7 21.4-31.2 0-53.2-22.1-53.2-52.5s22-52.5 53.2-52.5c18.7 0 35.2 8.5 43.4 22.8"/><path d="m340.4 549.3c0 19.7 13.5 33.1 32.1 33.1s32.1-13.4 32.1-33.1-13.5-33.1-32.1-33.1c-18.7 0-32.1 13.5-32.1 33.1m85.3 0c0 30.2-22.1 52.5-53.2 52.5s-53.2-22.2-53.2-52.5 22-52.5 53.2-52.5 53.2 22.3 53.2 52.5"/><path d="m534.5 600h-19l-51.4-67.6-.1 67.6h-20.2v-101.3h18.9l51.4 67.6v-67.6h20.2z"/><path d="m585.9 557.8h29.3l-14.6-39.1zm66.7 42.2h-21.6l-8.8-23.6h-43.2l-8.8 23.6h-21.1l39.4-101.3h24.6z"/><path d="m905 557.8h29.3l-14.6-39.1zm66.7 42.2h-21.5l-8.8-23.6h-43.2l-8.8 23.6h-21l39.4-101.3h24.6z"/><path d="m960 508.3v-7.5h-3v-2.1h8.3v2.1h-3v7.5z"/><path d="m976.1 508.3v-6.7l-2.2 5.7h-2.4l-2.2-5.7v6.6h-2.2v-9.6h3.2l2.4 6.1 2.4-6.1h3.2v9.6h-2.2z"/><path d="m711.9 546.8v16.8h25.1c-3.4 12.5-12.8 19.4-28.1 19.4-17.5 0-31.6-13-31.6-33.6 0-19.7 13.5-33.3 32-33.3 10.3 0 18.7 4 24.5 10.6l14.5-14.3c-9-9.8-22.4-15.5-38.4-15.5-31.1 0-53.5 21.9-53.5 52.5 0 32.7 24.9 52.5 52.9 52.5 28.7 0 49.5-21.6 49.5-52.3v-2.7h-46.9z"/><path d="m839.2 531.7c0 8.1-6.6 14.7-14.7 14.8h-27.3v-29.5h27.3c8.1 0 14.7 6.6 14.7 14.7m18.2 0c0-18.2-14.8-33-33-33h-47.4v101.3h20.2v-35.3h18.4l18 35.3h23.3l-20-37.7c12.4-5.1 20.5-17.2 20.5-30.6"/><g fill="#62bb46"><path d="m428.7 684.2c4.5 0 7.3-1.8 7.3-5.2v-.1c0-3.2-2.5-5.1-7.8-5.1h-10.5v10.4zm-2-16c4.3 0 7.1-1.7 7.1-5.1v-.1c0-3-2.4-4.8-6.6-4.8h-9.5v10zm-15.6-12.6c0-1.8 1.4-3.3 3.2-3.3h13.7c4.3 0 7.7 1.2 9.9 3.3 1.7 1.6 2.6 3.9 2.5 6.2v.1c0 4.5-2.6 7-5.4 8.4 4.4 1.5 7.5 4 7.5 9.2v.1c0 6.7-5.6 10.4-14 10.4h-14.1c-1.8 0-3.3-1.4-3.3-3.3z"/><path d="m493.4 671c4.7 0 7.8-2.5 7.8-6.3v-.1c0-4-2.9-6.3-7.8-6.3h-9.6v12.7zm-16.3-15.3c0-1.8 1.4-3.3 3.2-3.3h13.6c4.8 0 8.5 1.4 10.9 3.8 2.1 2.2 3.2 5.1 3.1 8.1v.1c0 6-3.5 9.7-8.6 11.3l7.2 9.1c.7.7 1.1 1.6 1.1 2.5 0 1.7-1.4 3.1-3.2 3.1-1.3 0-2.5-.6-3.2-1.7l-9.2-11.7h-8.4v10c-.1 1.8-1.7 3.2-3.5 3.1-1.7-.1-3-1.4-3.1-3.1v-31.3z"/><path d="m564.4 675.1-6.6-15.3-6.6 15.3zm-24.7 10.6 14-31.3c.6-1.7 2.2-2.7 4-2.7h.3c1.7 0 3.3 1.1 3.9 2.7l14 31.3c.2.4.4.9.4 1.4 0 1.7-1.3 3.1-3.1 3.2-1.5 0-2.8-.9-3.2-2.3l-3.1-7.1h-18.3l-3.2 7.3c-.5 1.3-1.7 2.1-3.1 2.1-1.7.1-3-1.3-3.1-2.9v-.2c.1-.5.2-1 .5-1.5"/><path d="m609.3 655.4c0-1.8 1.5-3.3 3.3-3.3h.7c1.4 0 2.7.8 3.4 1.9l18.9 24.4v-23.2c.1-1.8 1.6-3.2 3.4-3.1 1.7.1 3 1.4 3.1 3.1v31.8c0 1.8-1.4 3.3-3.1 3.3h-.4c-1.4 0-2.7-.8-3.5-2l-19.4-25.2v24c0 1.8-1.5 3.3-3.3 3.3s-3.3-1.5-3.3-3.3z"/><path d="m693 684c7.9 0 13.1-5.3 13.1-12.7v-.1c0-7.4-5.2-12.8-13.1-12.8h-7.4v25.6zm-14.1-28.3c0-1.8 1.4-3.3 3.3-3.3h10.8c11.9 0 20.1 8.1 20.1 18.8v.1c0 10.6-8.2 18.9-20.1 18.9h-10.7c-1.8 0-3.3-1.4-3.3-3.2v-31.3z"/><path d="m746.6 685.9c-.8-.6-1.3-1.5-1.3-2.5.1-1.8 1.6-3.1 3.3-3.1.6 0 1.2.2 1.7.6 3 2.5 6.7 3.9 10.6 3.9 4.1 0 6.7-2 6.7-4.8v-.1c0-2.7-1.5-4.2-8.5-5.8-8-1.9-12.6-4.3-12.6-11.3v-.1c0-6.5 5.4-11 12.9-11 4.3-.1 8.5 1.1 12 3.5.9.6 1.5 1.6 1.5 2.7 0 1.7-1.4 3.1-3.1 3.1-.6 0-1.2-.2-1.7-.5-2.5-1.8-5.6-2.8-8.7-2.9-3.9 0-6.2 2-6.2 4.5v.1c0 2.9 1.7 4.2 9 5.9 8 1.9 12.1 4.8 12.1 11v.1c0 7.1-5.6 11.3-13.5 11.3-5.1.1-10.1-1.6-14.2-4.6"/></g><path d="m360.2 677.9c-3.7.1-6.8-2.7-7-6.4s2.7-6.8 6.4-7h.5c2.4 0 6 2.8 8.3 4.7 1.1.9 1.3 2.6.3 3.7-.1.1-.2.2-.3.3-2.3 2-5.9 4.7-8.2 4.7"/><path d="m824.9 664.5c3.7-.1 6.8 2.7 7 6.4s-2.7 6.8-6.4 7h-.5c-2.4 0-6-2.8-8.2-4.7-1.1-.9-1.3-2.5-.4-3.6l.4-.4c2.2-2 5.8-4.7 8.1-4.7"/><path d="m729.5 369.2 3.4-.6 1.7-.4 1.7-.2 1.7-.5 1.6-.5 1.6-.7 3-1 1.5-.6 1.6-.2 1.5-.5 1.6-.2 1.5-.5 3.2-.4h1.6l1.6-.1h6.4l3.2.2 1.5.5h1.6l1.6.3 1.5.4 1.5.5 1.6.4 1.6.2 1.5.5 1.4.7 1.6.5 1.6.6 1.7.5 1.7.4 1.7.3 1.7.4 1.7.2 1.7-.1 1.7.3h3.4l1.7-.3 1.7.1 1.7-.4 1.6-.2 1.7-.1 1.6-.7 1.6-.5 1.6-.4 1.7-.4 1.5-.7 1.5-.6 1.6-.5 1.7-.2v-.5l-1.5-.7-1.3-1-1.6-.5-1-1-1.5-.7-1.5-.6-1.6-.4-1.4-.9-1.6-.4-4.5-1.8-1.6-.5-1.6-.4-1.6-.5-1.6-.3-1.6-.4-1.9-.1-1.7-.2-1.5-.5-1.7-.1-1.6-.1-1.6-.5-1.7.1-1.6-.2-1.7-.2-1.7-.1-1.7.1h-1.5l-1.7.2-1.7-.2-1.6.3-1.7.1-1.6.4-1.7.1-1.6.3-1.6.4-1.6.5-3.2.8-1.6.5-1.6.4-1.5.9-3.2.8-1.4.9-1.6.4-1.6.6-1.4.9-1.5.7-1.6.7-1.5.6-1.4.9-1.6.5-1.5.6-1.4.8-1.4.9-3 1.4-1.5.8.2.4z" fill="#94d7e9"/><path d="m684.5 399.5 1.6.1h1.6l1.6-.1 1.6.3 1.6.2 1.6.1 1.6.3h1.6l1.6.4 1.6.2 1.5.7 1.6.2 1.4.8 1.6.2 1.5.8 1.6.6 1.6.5 1.7.3 1.7.4 1.7.3h1.7l1.7-.1 1.7.3 1.7.2 1.7-.2 5.1-.3 1.7-.2 1.6-.6 1.7-.4 1.7-.2 3.2-1.2 1.4-.7 1.6-.4 1.5-.5 1.6-.1 1.5-.4 1.5-.6h1.6l1.5-.4h1.6l1.6-.4 1.6.1 1.6-.1 1.6.1h1.6l1.6-.2 3.2.2 1.6.3 1.6.2 1.6.1 1.5.5 1.6.3 1.5.5 1.6.3 1.5.6 1.5.4 1.6.5 1.7.4 1.6.6 1.7.3 1.7.4 1.7.2 1.7.4 1.7.1 1.7-.2h1.7l1.7-.1 1.7.2 3.4-.2 1.7-.3 1.7-.2 1.6-.8 1.7-.3 1.5-.7 1.7-.2 1.4-.8 1.5-.5 1.6-.4 1.5-.5 1.6-.2 1.6-.4 1.6-.3 1.6-.1 1.6-.4 1.6.2 4.8-.3h1.6l1.6.3 8 .5 1.5.6 1.6.3 1.5.5.5.1 1.1.3 1.5.6 1.5.5 1.6.4 1.5.7 1.6.3 1.6.4.4-.5-1-1.3-.7-1.5-.8-1.4-.6-1.5-1.2-1.2-.9-1.4-.7-1.5-1-1.4-1.2-1.2-.7-1.5-1.3-1.1-.9-1.4-1-1.4-1-1.3-1.2-1.2-1.1-1.2-1-1.3-1.3-1.1-1.2-1.1-1.3-1-1.2-1.1-1.2-1.2-1.3-1-1.2-1.1-1-.2-1.7.3h-1.7l-1.7-.2-1.7.4-1.7.5-1.7.4h-1.8l-1.6.6-1.5.8-1.6.5-1.6.4-1.2.6-1.6.2-3 1-1.6.4-1.6.1-1.6.3-1.6.4h-4.8l-1.6.3-1.6-.3-1.6.1-1.6-.2-1.6.1-3.2-.6-1.6-.1-1.6-.3-1.5-.5-1.6-.2-1.4-.7-1.6-.2-1.4-.8-1.6-.6-5.1-1.2-1.6-.7-1.7-.1-1.7-.3-1.7-.1h-1.7l-1.7.1h-1.7l-1.7-.2-1.7.1-3.4.4-1.7.3-1.7.5-1.6.8-3.4.8-1.5.5-1.5.6-1.5.7-1.6.3-1.5.4-1.6.3-1.6.2-1.6-.1-1.6.2-.6.2-1 .3h-1.6l-1.6.1-1.6-.2h-3.2l-1.7.1-1.7-.1-1.7-.4-1.7-.2-1.7-.3-1.6-.4-.3-.1-1.3 1-1.4.8-1.2 1.2-1.6.6-1.3 1-4.2 2.7-1.3 1-1.2 1.1-1.3 1-1.5.8-1.2 1.1-2.6 2-1.5.8-1.3 1-1.3 1.1-1.4.9-1.2 1.1-1.4.8.3.9z" fill="#007ec5"/><path d="m872.1 442.9-.2-1.6-.2-1.5v-.2l.1-1.7-.4-1.6-.1-1.6-.5-1.6.1-1.7-.7-1.5.1-1.7-.7-1.5-.3-1.6-.5-1.5.1-1.7-.7-1.5-.6-1.5-.7-1.5-.1-.1-1.6-.3-1.6-.2-1.6-.4-1.5-.4-1.6.1-1.5-.3-1.4-.9-1.5-.3-1.5-.5-1.6-.2-1.5-.9-1.7-.1-1.5-1-1.8.1-3.4-.8-1.7-.2-1.7.2-1.7-.5h-1.7l-1.7.1-3.4.4-1.6.2-1.7.1-1.6.6h-1.8l-1.6.6-1.6.7-1.6.5-1.4.8-1.6.2-1.5.7-1.6.3h-1.6l-1.5.4-1.5.3-1.6.2-3.2.6h-3.2l-1.6-.2-1.6-.1-1.6.4-1.6-.6-1.6-.1-1.7.3-1.6-.2-1.5-.6-3.2-.6-1.5-.6-1.6-.1-1.5-.7-1.4-.8-1.7-.3-3.4-.8-1.6-.6-1.7-.2-1.7-.5-1.7-.3-1.7.2-1.7-.2-1.7.2h-3.5l-1.7-.1-1.7.4h-1.8l-1.7.3-1.7.4-1.6.8-1.6.6-1.8.1-1.4.9-1.6.2-1.5.3-1.5.5-1.6.2-1.5.8-1.6.2-1.6-.1-1.6.5-1.6.2h-1.6l-1.6.1-1.6-.4h-1.6l-1.6-.1h-1.6l-1.6-.1-1.6-.4-1.7.3-1.6-.3-3.2-.8-1.5-.7-1.5-.6-1.6-.3-1.5-.6-1.8-.2-1.6-.5-1.5-.9-1.7-.4h-1.7l-1.6-.8-1.7-.2h-1.7l-1.7.1h-3.4l-1.7.4-1.4.2h-1.7l-1.6.6h-1.8l-1.7.3-1.6.7-1.6.4-1.6.8v.2l-3.2 1.2-1.5.6-1.5.8-1.5.7-1.6.6-1.4 1-1.4.9-1.2 1.2-1.2 1.1-1.4.9-3.6 3.3-1.3 1.1-1 1.3-1.3 1.1-1.3 1-1.2 1.1-1.3 1-1 1.4-1.3 1-1.4.9-1.1 1.3-1.1 1.2-1.5.8-1.2 1.1-.9 1.5-1.2 1.2h.3l1.6.5 1.6.6 1.7.2 3.2 1.2 1.7-.1h1.7l1.7.4h1.7l1.7.1 1.7.3 1.7-.5 1.7.1 1.7-.1 3.4-.8h1.8l1.6-.7 1.5-.8 1.8-.2 1.6-.4 1.4-.8 1.5-.4 1.5-.6h1.6l1.5-.8 1.6-.1 1.6-.2 1.6-.1 1.6.1 3.2-.2h1.6l1.6.1 1.6-.4 1.6.4h3.2l1.5.6 1.6.2 1.6.3 1.5.4h1.6l1.4.8 1.5.6 1.7.1 1.5.8 1.7.4 1.6.5 1.6.6h1.7l1.6.6 1.7.3 3.4-.2 1.7.5h1.7l1.7-.4 1.7-.2 1.7.2 1.7-.4 1.6-.5 1.6-.6h1.8l1.6-.7 1.5-.8 3-.8 1.6-.1 1.5-.6 1.6-.4 3.2-.6 1.6-.1 1.6-.5 1.6-.1 1.6-.2 1.6.2 1.6-.2h1.6l1.6.5 1.6.1h1.6l1.6.2 1.6.4 1.7-.3 3 1 1.5.6 1.6.2 1.5.7 1.6.3 1.6.5 1.5.8 1.7.5 1.8-.1 3.4.8h1.7l1.7.3 1.7.1 1.7-.2 1.7.1 1.7-.3h3.4l1.7-.1 1.7-.2 1.6-.8 1.7-.4 1.1-.3.5-.2 1.7-.3 1.5-.6 1.4-.8 1.5-.6 1.6-.4 1.7.1 1.5-.8 1.6-.3 1.6-.1 1.6-.3h1.6l1.6.2h1.6l1.6-.2 1.6-.1 1.6.4h3.2l3.2.4 1.6.1 1.6.4 1.6.3 1.6.4 3 1 1.5.6 1.5.8 1.7.1 3.2 1.2 1.7.5h3.4l1.7.6 1.7-.2 1.7-.1h.2l.2-1.5z" fill="#43c5e4"/><path d="m525.7 219.3.1.9 1.6 1.4 1.2 1.4.7.5.3.3 1 .9.8 1.1 1.5 1.3 1 .9 1.2 1.4 1.8 2 2 1.7 2 1.8 1.7 2.1 2.1 1.7 1.9 1.8.1.1.5.6 1.3 1.5 1.4 1.4h.1l.2.2 1.7 1.4.8 1.2 1.4 1 1.9 1.8 1.6 2.1.8.7 1.2 1 .8.7.7 1.1 1.5 1.3.3.2.3.4 1.9 1.8.3.4.5.4 1 1.2 1.9 1.8 1.8 1.9 1 .7.8 1 1.4 1.4.5.3.2.2 1.5 1.2.8 1 .9.9.5.6 1.9 1.5.9 1.2 1.5 1 1.5 1.6.2-.1 1.3.3 1.2-1.2v-2l-.1-1 .1-2.5-.3-2.6v-.2l.1-1.9v-.8l-.1-.6-.1-1.1-.1-1.5v-.7l.1-1.8.2-1.4v-.7l.1-2-.4-2 .1-1.9v-.2l.2-1.3-.2-2.1v-.4l.2-2-.1-2-.2-1 .1-.7-.1-.9.2-1.3-.3-1.5.2-1.7-.1-1.8.2-.9-.4-1.5-.2-1.4-1.8-2.3-.7-.7-.6-.9-1.6-1.3-1.4-1.5-.5-.4-.8-1-1.7-1.4-1.3-1.3-1.2-1.6-1.5-1.4-.3-.3-1.2-1.3-1.8-1.5-.8-1.2-1.7-1-1.3-1.7-1.4-1.3-.1-.1-1.4-1.5-1.4-1.1-1.2-1.7-2-1.7-.2-.2-.8-1.1-1.6-1.2-1.3-1.5-1.4-1.5-1.4-1.4-1.1-.8-1.5-1.5-.7-.9-.9-1.2-1.8-.3-1.6.6-1.4 1.4-.6 1.4-1.3 1.3-1.4 2.2-.7.9-.6.6.2.5-.3.3-.3.4-.5.6-1 1.7-1.1 1.6-.2.4-1.6 1.5-1.5 2.1-1.3 2.3-1.6 2.1-.4.6-.4.4-.8 1.4-1.4 1.8.1.7-.1.8z" fill="#007933"/><path d="m554.8 181.6 1.5 1.5.7.6 1.7 1.9.4.5.6.4 1 .9 1.1 1.1.3.4 1.5 1.5 1.5 1.4 1.4 1.5.8.8 1.1 1.2 1.3 1.3 1 1.2 1.4 1.2.3.3 1.2 1.5 1.4 1.1 1.1 1.3 2.7 2.7.6.7 3 2.8 1 .9.5.5h.1l1.7.5 1-1.6-.2-1.3.2-1.5v-2.7l-.1-2.8v-.6l.2-1.4-.2-2v-.2l.2-2-.2-1.2v-3.8l.1-2.8-.1-2.4v-.2l-.1-.7-.1-2.1v-1.1l.1-2v-4.6l-.2-1.5.2-2.3.1-2.8-.2-1.7v-2l.1-2.1v-2.6l-.1-2.7v-1.4l.1-1.5-.1-.8v-1.9l.2-2.8-.3-2.2v-.6l-.7-1.4-1.4.5h-.1l-.9 1-.5.5-.4.5-.1.1-1.5 1.6-.8.9-1.5 1.4-1 1.5-.3.4-1.4 1.2-1.3 1.6-.7.8-1.1 1-1.7 2.3-2 2-.9 1.2-.4.4-1.4 1.5-.6.7-.4.4-1.8 2.2-1.9 2.1-1.8 2.2-1.4 1.8-1.4 1.5-.6 1-.1.1-1.8 2.1v.2l-.6 1.3z" fill="#a5cf4f"/><path d="m599.1 200.1v.4l-.1 2.8v1.2l.1 1.8-.1 2.4.9 1.4 1.6-.4 1.5-1.5 1.6-1.4.5-.6.3-.3.8-.9 1.3-1.4 1.7-1.4 1.8-2 2.2-2.2 1.8-1.6 1.9-1.9 1-1.1 2.7-2.7 1.6-1.9.2-.2 2-1.8 2-1.9.6-.7.2-.2 1.4-1.6 1.5-1.5.8-1.4-.7-1.4-1.2-1.8-1.5-1.6-1.4-1.6-1.2-1.7-1.3-1.7-.2-.2-.1-.2-.5-.4-.6-.7-1.3-1.7-.7-.6-.5-.8-1.8-2.1-.9-1-.2-.3-.2-.1-.5-.6-1.9-2.1-1.7-2.2-2-2-1.8-2.1-1.6-2v-.1l-.1-.1-1.8-1.6-1-1.4-.7-.7-.3-.4-.4-.4-1.4-1.6-1.6-.3-1 1.3.2 1.9-.1.9.1 1.4v.1l-.2 2.1.2 1v2.4l-.1.8.3 1.9v.4l.1 1.2-.2 2.4v8.3l-.1 2.8v2.8l.1 2.8v1.1l-.1 1.7v2.7l.1 2.8v3.1l.1 2.1v3.1l.1 1.1-.1 2.1z" fill="#62bb46"/><path d="m586.3 378 .3-1.5-.2-1.1.1-.8-.2-.6.1-1.4-1.2-1.6-.3-.5-.6-1.2-1.9-1.7-.9-.9-1.2-1.5-1.2-.9-.3-.3-1.7-1.9-.5-.5-.3-.5-.6-.3-.4-.4-1.2-1-.6-.9-1.1-1-.6-.8-2-1.4-.3-.3-1.4-1.8-.8-.6-.6-.7-1.3-1-.9-1-1.5-2.1-1-.8-.5-.7-1.4-1.3-1-.6-1.5-1.9-1.9-1.6-.3-.3-.6-.9-.9-.6-1.6-1.9-.2-.2-.4-.2-1.5-1.2-1.5-2-.6-.4-.1-.2-1.5-1.2-1.2-1.5-.9-.6-1.1-1.1-.6-1-1.5-.8-1.5-2-1.4-1-1.1-1.4-1.4-1.3-1.2-1.4-1.3-1.4-1.5-1.2-.6-.4-.6-.7-1.6-1.3-.1-.1-1.2-1.5-.6-.6-1-.9-.9-1.3-1.3-1.5-1.4-1.2-.6-.7-1.8-1.8-1.4-1.2-.4-.4-1.4-1.3-1.5-1.2-1.4-1.3-.1-.1-1-1.6-1.1-1-.1-.3-1.4-1.3-1-.8-.6-.5-.9-1.4-1.4-1.3-1.5-1.2-2.6-2.8-1.4-1.3-1.5-1.2-.8-1-.4-.3-.1-.1-1.2-1.5-1.3-.1-.7-.3-1.4 1.5-.2 2.3v1.4l-.4 1.8-.2 1.8.1.5-.3 1.3.2 5 .6 2v.6l-.3 2 .4 1.1.1 1.6-.2 1.1.4 1.9.3.9.1 1.2.2 1.6v.1l.1.8.1.2.2.8.6 1.8v.1l.4 1.9.4 2.5.2.5.1.7.6 1.8.8 1.2.1.4.5 2.5.4.7.2.6.6 1.1.6 1.9.1.5.1.2.7 1.9 1.1 2.2 1.2 1.8.2.7.9 1 .4.7 1 2.3 1.3 2.1 1.5 2 1.2 2.2.5.5.3.5 1.2 1.5.9 1.7 1.1 1.5.3.2v.1l1.9 1.6 1.3 2.2 1.6 1.9 1.2.9.3.3.5.4 1.1 1 .7 1.4 1.5 1.2 1.4 1.3 2.5 2 1.7 1.8 1.1.5.6.5 1.5 1.1.8.8.2.1.4.3 1.6 1.1 1.5 1.1 1.7.6.9.7 2.1 1.3 1 .5.9.8 1.1.4 1.3.9 1.4.5 1.3.8 1.2.5.6.4 2.2 1.1 2.4.7 1.5.6.9.5 1.1.1 1.3.4 2.3.9.7.1h.1l1.8.7h1l1.2.5 2.4.7h1.6l1.3.4 1 .2 1 .5.8-.1.9.2 1.6-.1 1.6.4 1.7.3.7.3 1.8-.4.4-.6.3-.1 1.1-2.4v-4.6l.2-1v-2.7z" fill="#a5cf4f"/><path d="m598.9 266.6v2.5l.1.8-.1 2v.3l-.2.9.3 1.7-.3 2.2.1.1 1 1.1 1.3-.2.2.1 1.3-1.5 1.6-1.3.9-1.1 2-1.6 1.8-1.9 2-1.8 1.7-2.1 1.8-1.9 1.2-.9v-.1l.9-.7.9-1.2 1.1-.8 1.3-1.5.9-1.1 1.3-1.1 2-1.8.9-1 .7-.6.7-1 .8-.9 1.3-1 1-1.1.1-.1.4-.5 1.1-1.3 1.6-1.2 1.4-1.4.8-.7.4-.3 1.8-1.9.4-.5.9-.7.9-1.3 1.6-1.2 1.2-1.4.6-.4.9-1.1 1-1 .6-.8.1-.1 1.2-1.4.2-.1 1.5-1.1 1-1.2.9-.9 1.9-1.8.5-.5 1.4-1.3 1.8-1.9.6-.6.4-.3 1.4-1.4 1.5-1.3.2-1.5-.3-1.3-.9-1.8-.1-.1-.2-.5-1.5-2.2-1.6-2.1-.9-1.4-.2-.3-3.6-4.8-1.2-1.2-.5-.8-1.5-2.2-.5-.5-1.3-1.5-1-1.7-.2-.2-.2-.3-1-1.2-1-1.5-1.4-1.5-1.5-1.1-1.3.8-.5-.1-1.8 1.8-1.8 1.9-.6.5-.3.5-.8.9-2 1.7-.7.9-.3.3-1.2 1.7-1.4 1.4-1.7 1.2-.1.1-.3.4-.8 1-1 1.1-.7.7-1.2.9-.4.5-1.1.9-1 1.2-.4.3-.9 1-1.5 1.1-1.7 1.9-.2.2-1.5 1.6-1.3.9-1.2 1.6-1.8 1.8-1.3.9-.8 1.2-1 .9-.5.6-.1.1-.2.3-.7.7-.8.9-1.1.8-.5 1-1.2 1.4-.1.8-.1.2v2l-.2 5.2.2 1.8-.1 1v1.1l-.2 1.2.3 2.1v1.6l-.2 2 .1 2-.1 2v3.2l.1 2.6-.2 1.8v2.2l.3 1.5z" fill="#a5cf4f"/><path d="m692.5 296.8-.2-2.2.1-.9-.1-.4.2-1.6-.4-2 .3-1.8-.2-.5v-.5l-.4-2.4-.5-2.2v-.2l-1.2-1.3-1.7.5-.2.2-1.8 1.4-1.8 1.7-.7 1-1.1.8-1.4 1.3-.4.6-1.8 1.7-1.7 1.9-1.1 1.1-.4.3-1 1.7-.9.8-.8 1.1-1.2.6-5.2 5.6-1.4 1.3-.5.4-1.8 1.5-1 1.2-.9.8-2.8 2.6-.1.2-2.4 2.4-1.1 1.7-.1.1-1.6 1.1-.2.3-.5.4-1.8 1.8-1.1 1.4-.3.2-1.2 1.4-1.4 1.3-.1.1-1.2.9-1.9 1.6-.6.9-.4.3-.9 1.4-1.5 1.1-1.5 1.6-1.5 1.2-1 1.7-1.2 1.3-1.8 1.5-.7.8-.4.4-2.8 2.6-.8 1.2-.5.6-2.2 1.4-.7.8-1.3 1.4-.3.5-.9 1.1-.4.4-1 .7-2.8 2.6-1.5 1.2-1.2 1.5-2 2-.8.5-.7 1-.5.5-1 .8-.5.3-2.3 2.3-1.6 2-.6.8-.7.6-1.5 1.2-.8 1.1-1.9 1.5-.5 1-.7.5-.3 1.7-.2.8-.4 1.3.1 2 .1.5-.3 2.2.2 4.6.1.5v.2l.2 1.9-.4 2 .5.8.2.8 1.1 1.5 1.9.2.9-.3h1.6l2-.6 1.2-.1 2 .1 1.2-.4h1.1l.7-.2h.8l.8-.5h.1l2.4-.7.8-.3h1.4l1.7-.6 1-.1.5-.2.5-.1 1.5-.8 1.4-.3.8-.1.1-.1 2.2-1.1 2.4-.6 4-2 1.8-.7 1.7-.8 1.1-.7.3-.2 2-1.5 1.4-.7 1.7-.8.6-.4.7-.3.7-.5 1.4-.6 1.6-1 1.5-1.2 1.5-1.1 1.5-1.2 1.5-1.1 1.4-1.3 1.3-1.4 1.4-1 1.9-1.6 1-1 1.3-1.4 1.1-1.6 1.6-1.2 1.2-1.5.2-.3.4-.3.9-1.3.9-1 1.2-1.5 1.1-1.6.8-1.3 1-1.3.7-.9.9-1.1.4-1.2.4-.8 1.2-1.2.7-1.8.2-.4.8-1.1 1.3-2.1.5-1.8.9-1.3.8-1.7.4-1.2.5-.8.6-1.9.8-1.4.6-1.8.4-1.1.4-.7.1-1 .2-.8.2-1.3.7-1.7.8-2.2.1-.2.4-1.9v-1.7l.2-.8.4-1.3.2-.9.2-.7v-2.2l.7-1.8-.1-1.5.4-1.9v-.1l.1-.3-.1-.5v-1.6z" fill="#62bb46"/><path d="m599 349.8 1 1.2 1.2-.3.4.2 1.4-1.3.4-.4.9-1.4 1.5-.9 1.3-1.4 1.3-1.5.8-1 1.2-1 1.8-1.7v-.1l.4-.2.6-1.1.5-.7.2-.2 1.4-.8 2.4-3 1.7-1 .6-1 1-.8 1.2-1.6 1.2-.9.5-.5.7-.5 1.5-2 2.1-1.4.9-1.3 1.2-.9 1.1-1.6 1.3-1.4 1.5-1.2 1.6-1.1.5-.9.5-.4 2-1.5.9-1.4.5-.8 1.7-1.6 1.9-1.6 1.7-1.8.1-.1 1-.6 1.2-1.5.6-.9.5-.4.6-.7 1.1-.6.7-1.2 1.1-1 .1-.1.8-.5.2-.3.9-.7.9-1.2.7-.5 1.3-1.4 1.6-1.1.3-.5.6-.4 3.2-3.8.5-.5.6-.5.1-.2.6-.5 1.5-1.9 1.7-1.7 1.1-1 .9-.7 1.2-1.5 1-.6.3-.4 1.1-.8 1.4-2 .6-.4 1.5-1.1.9-1.5.8-.7 1.5-1.2 1.4-1.3.7-.5 1-1.5 1-.8 1.1-1.6.5-1.5.3-.8-.8-2.3-1.1-2.2-.2-.3-.1-.5-.9-1.7-.7-1.8-.9-1.4-.3-.8-.9-1.4-.7-1.4-.5-1.9-.9-1.7-1.3-1.6-.7-1.8-1.8-3.4-1-1.6-.2-.3v-.1l-.8-1.1-.2-.2-.9-1.7-1-1.6-.8-.9-.3-.6-1.5-1.3-2 .7-1 .9-.8.8-.9 1.5-1.3.9-.7.7-.6.4-3.4 3.6-.3.4-.4.3-1.4 1.4-1.3 1.4-.2.2-1.8 1.5-1.4 1.9-.6.4-.7 1.1-.8.8-1.2.7-1.1 1.3-1 .9-1.7 1.8-.5.6-1.1.9-.9 1.5-.3.3-1.6.8-1.4 1.3-1 1.6-.2.1-1.4 1.1-1.4 1.3-.4.6-.3.3-.8 1-1.1.8-1.4 1.3-.5.7-1.7 1.3-.5.8-1.3 1.3-1.4 1.2-.2.2-1.6 1.9-.2.2-.6.5-.2.3-.7.7-1.5 2-2 1.5-.7 1h-.1l-.6.8-.1.2-.7.8-1.4.8-1.4 1.3-1.3 1.4-.3.6-.2.3-1.9 1.5-1.6 1.9-.2.4-1.1.7-1.1 1.6-.1.1-1 .7-1.8 2.4-1.1 1-.2.8-.1.1-.1.7v.2l-.7 1.8.2 1-.3 1.5.2 2.6.1 1.8-.2.9.1.8-.1 1.6.1.6-.2.9-.1 1.9.2 1-.1.7.3 1.6v.6l.1.9-.5 2.1.4 2.5v2.7l-.2 1.6v3.5l.2 1.4.1.9-.5 2 .1 1.9.1.4-.2 1 .2 5 .2 2.1-.3 1z" fill="#007933"/><path d="m586.7 342.9-.1-1.3.2-.7-.3-1.4v-1.1l.2-1.2-.4-1.5.1-2.4v-2.4l-.1-1.8.3-1.2-.3-1.9v-1.1l.3-1.3-.3-1.4.1-1.8v-4.4l-.2-2.4v-2.5l-.1-1v-1.2l.3-1.9v-1.9l-.1-1.3v-2.4l-.1-.2v-1.7l-1.1-1.6-.9-1.8-1.2-.9-.7-.8-.9-.7-.2-.1-1.1-1.6-1.6-1.1-1.2-1.5-1.5-1.2-.6-.8-1.2-1.1-.7-1.1-.7-.4-.9-1-.9-.7-.3-.6-1.4-1.3-1.3-1.2-1.3-1.4-1.5-1.4-.9-1-1-1.1-.8-.7-1-1.3-3-2.4-1.2-1.5-.7-.7-.3-.4-1.7-1.8-1.3-1.1-.1-.1-1.2-1.5-.2-.1-.6-.8-1.8-1.7-1.4-1.3-.3-.3-1.8-1.7-.5-.4-.2-.2-1.5-1.4-1.1-1.6-.8-.4-1.1-1.5-1.8-1.3-.6-.6-.2-.1-1.2-1.3-1.7-1.8-2-1.5-.1-.1-.5-.7-.9-1.4-1.6-1.1-1.1-1.6-1-.6-1.3-1.5-.3-.6-1.4-1.2-1.4-1.4-1.4-1.3-1.5-1.2-.6-.5-.7-.9-1.2-.3-.7-.3-1 .7-.8.4-1.4 2-.1 2-.5.7-1.3 1.4-1.3 2.1-1.1 2.3-.1.2-.7.8-.8 1.8-.3.8-.6.7-.8 2.4-.3.4-.8.9-1.1 1.6-.2.9-.2.4-.2 1-1 1.3-.6 1.6-.5.6-.6 2.1-.7 1.1-.7 1.8-.8 1.8.8 2.5 1.1 1.6.9.5 1.2 1.6 1.4 1.1.5.8 1.6 1.1 1.5 1.5.5.6 1.7 1.9 1.6 1.9 2 1.5 1.5 2 1.9 1.6.9.6.6.8 1.4 1.4 1.2 1.5.8.4.4.5 2 1.5 1 1.5.8.5 1.4 1.5.5.8 1.4.9.2.2.2.3.9 1.4 1.4 1.3 1.3 1.5 1.4 1.4 1.7 1 .6.6 1 1.6 2.1 1.4.6.6 1 1.3 1.4 1.3 1.2 1.5.7.9 1.1.6.8 1.2 1.4.9.4.5.2.2.7 1.1.7.5.9.6 1 1.5 1.1.5.6.7 1.7 1.8.1.1.6.9 1.6 1.1.1.1 1 1.4.8.6.6.9 1.3 1 .8 1 1.7 1.8 2 1.5.7.7.4.6 1.4 1.3 2.6 2.8.1.1 1.7 1.6.3.4.5.8 1.5 1 .1.1 1.5 1.2.1.1.9 1.7 1.2.7.7.5 1 1.3.1.1.7 1.1 1.5 1.1.4.6 1.9.5 1.1-1.6v-.2l-.2-2.3.1-1.3v-1.3z" fill="#62bb46"/><path d="m427.2 424.7.5-.5.6-.4.4-.5.3-.3 1.6-1.9.6-.7.8-.9 1.5-1.5 1.6-.8.6-.9.3-.2 1.8-1.7.6-.7.6-.6.4-.6 2-1.5 1.7-1.8 1.6-1.7 1.1-1 .2-.3.5-.5.9-1.2 1.2-.6 1-1.5.3-.2 1.3-.9.1-.2.5-.4 1.5-2 3.6-3.4.9-1.2 1.4-.9 1.2-1.5 1.4-1.3.7-1.1 1.2-1.1 1.9-1.6.3-.5 1.2-1.2 1.4-1.3 1.2-1.5 1.5-1.1.6-.8.7-.5.5-1.9-.9-1.8-2-1.4-2.1-.6-1.1-.8h-.1l-1.1-1-1.7-1.1-.2-.2-.3-.1-2-1-1.2-.4-1.5-.7-1.6-1.3-1.1-.4-.9-.5-1.8-.8-.3-.2-.4-.2-2-1.1-.7-.5-1.8-.9-1.4-.4-.7-.6-2.4-.7-.8-.2-.2-.1-1.6-1.2-1.8-.7-2.6.4-.5 1-1 1-2 1.5-.6.8-1.3 1.2-1.4 1.4-1.3 1.5-1.5 1.2-.5.8-.4.4-1.9 1.6-1.5 2-2 1.5-.6.6-1.1 1.2-1.5 2-1.1 1-.7.7-2 1.5-1.4 1.9-1.6 1.1-1.3 1.4-.7.9-.1.1-1.6 1.9-1.9 1.6-1.8 1.7-1.6 1.5-.6.3-1.3 1.4-1.2 1.4-.1.1-.6.4-1.4 2.1-.4.4-1.7 1-.6 1.2-.9.8-2 1.5-1 1.6-.7.5-1.4 1.3-.1.2-.1.1-1.8 1.7-.7 1-1.4 1-.8 1.2-.5.4-1.8 1.7-1.1 1.5-1.2.7-.5.8-.7.5-1 1.3-.3.2-1.2 1.2-.9.7-.7.7-1.1 1-1.5 2-1 1-.3.2-1.4 1.4-.9 1.3-1.9 1.3-1.9 1.9-1.6 1.5-.7.5-1.4 1.3-.7 1.1-.7.5-1.3 1.7-1.4.7-1.4 1.4-1.1 1.6v1.5l1 1.3v.1h.5l1.4.1.7-.2 2.3.2 1.8-.1h.8l1.9-.1 1.9.1h1.9l1.9-.2 1.5-.1h2.9l2.1-.1h.9l1.9-.1h.2l2.2.5 1.3-.2h.1l1.9.3.9-.3.8.1h1.6l.5.2.6-.2 2.2-.2h1.4l1.4.3 1.9.1 1.7-.5h.5l1.5.4h1.9l1.9.1 1.9-.8.2-.1.7-.2.1-.1.8-.2 1.6-1.1.5-.7 1.3-1.1.3-.4.7-.5 1.1-1.6 1.2-1.2.6-.7.9-.8.9-1 1.3-.9 1.7-1.8 1.1-.9.9-.5 1.1-1.6 1-1.2 1.2-1.1 1.8-1.7z" fill="#e82c2a"/><path d="m495.4 424.3 1.3-1.6 1.6-1.3 1-1.1.3-.2 1-1.1.5-.5.3-.4 1.7-1.9 1.8-1.9 1.9-1.8 1.8-1.9 1.4-1.5 1-.7 1.5-1.4.8-1.8-1.1-1.5-1.7-1.1-1.3-1.5-1-.7-.1-.1-2.2-1.4-2-1.7-.9-.2-.2-.3-1.6-1.1-1.7-.9-.3-.2-1.5-1.6-1-.7-.1-.1-.9-.7-2.3-1.3-2.1-1.6-.3-.2-.7-.7-1.3-.6-2-1.5h-.1l-1.4-.4-1 .6h-.4l-.6.7-.8.7-.6 1-1.5 1.5-.7.8-1.4 1-1.2 1.7-1 1-1.4 1.2-2 1.8-1.2 1.4-.3.2-1.3 1.5-1.2 1.3-1.5 1.2-.2.2-.2.4-1.3 1.6-1.3 1.4-2.4 2.4-2 1.7-1 1.3-1.5 1.4-1.4 1.4-1.5 1.3-.5.8-1.6 1.2-1.5 1.7-.5.6-1.4 1.4-.6.8-1.5 1.2-1.7 1.8-.5.4-.1.2-1.5 1.3-1.8 1.9-1.9 1.8-1.2 1.7-.4.3-.7.8-1.3 1.1-1 1.2-1.4 1-.9 1-.6.4-1.2 1.5-.7 1-.8.9-1.3 1-1.4 1.4-.5 1.7 1.6 1 1-.2 1.8.1.8.1.4.1h2l2-.1 1-.1 1.8.1 2.4-.1.5.1h2l2 .1.5-.1.7.1 2.7-.1h.5l1.4.1 4 .2 2-.2 2 .1 2-.2h.4l1.3.1.6-.1 1.6.1 2-.2h.5l.7.1h.8l2 .1 1.1-.4 1.8-.2 1.7-1.4.7-.4 1.4-1.5.4-.4 1.1-1.4 1.3-1 .4-.5 1-.8 1.3-1.6.1-.1 3-2.6.7-1.1.3-.2 1.9-1.8 1.7-2 1.1-1.2.9-1 .5-.4 1.4-.9z" fill="#c3271b"/><path d="m559.7 443.9-1.1-.9-1.1-1-1.8-1.4-.7-.8-1.4-1.5-1.7-1.2-1.3-1-1.6-1.5-2-2-2.2-1.7-2-2-.8-.5-.8-.8-1.2-.8-1.5-1.5-2.2-1.8-1-.9-.4-.4-.7-.5-.1-.1-2-1.6-.4-.3-.3-.2-1.7-1.4-2.2-1.8-1.4-1.2-.8-.7-1.5-.6-1.5.8-1.4 1.5-1.6 1.4-.5.5-.5.4-1.3 1.4-.6.6-1 1.1-.5.5-1.5 1.2-2.8 3-1 1.1-1 .9-.2.2-.9.6-1.4 1.5-1.7 1.7-1.4 1.1-1.4 1.5-1 1-2 1.9-.8.9-.6.6-1.5 1.4-1.2 1.6-1.5 1.5-.2 1.6 1.3.8 2.8.3 5.6-.2h.8l1.2.1 2.1-.1h2.7l1.4.1h5.8l2.8-.1 1.8-.1h2.6l1.5.1 1.2-.1h1.6l1.4.1 2.1-.2 2.1.3.8-.1 1.7.1 2-.2 1.7.2 2.1-.1 2.1.1h.5l2.8-.1 2.8.1h1.3l.8.1h2.5l1 .1 1.9-.2h.9l1.3-.8z" fill="#e82c2a"/><path d="m353.6 425 1.6-1.1.7-.7.6-.5.8-1 .5-.6.5-.7 1.1-1.2 1.2-.8.4-.5.8-.6 1.4-1.7 1.5-1.1.4-.7.2-.2 1.9-1.6 1.1-1.4.3-.2.5-.6 1.7-1.3.9-1.4.9-.7.8-1 .8-.6 1.8-1.8.6-.7 1.5-1.2.6-.9.9-.7 1-1.4 1.3-1.1 1.3-1.4.8-.9.8-.7.7-.8.4-.4 1.1-1.2 1.5-1.2.5-.7 1.1-.9 1.5-1.2 1.3-1.4 1.1-1.5 1.4-1.3.6-.7 1.4-1.1.6-.6.2-.1 1-1 1.7-1.9 1.7-1.8.1-.2.7-.6 1-1.4 1.9-1.2 1.6-1.9 1.6-1.7.6-.4 1.4-1.3 1-1.3.7-.6 1.4-1.5 1-.5 1.3-1.4 1.4-1.3 1.2-1.5.3-.4.6-.5.9-1.2.7-.7.7-1.7-.1-.1-1.4-1.3-1.8-.4-1.3.2h-1l-1.4-.3-1.8-.4-.6.2-1.2-.3-5 .2-.4.1-.4-.1-1.9.4h-1.9l-1.1.3-1.8.1-.4.1h-.2l-.8.2-.7.1-2.5.2-2.5.4-.3.1-.8.1-1.3.6-2.4.5-2.5.5-1.4.7-1.6.2-1.3 1-.3.1-1.5.3h-.5l-.1.1-.4.1-1.8.9-1.3.4-.4.2-1.1.4-2.3.9-.6.3-.8.3-.4.3-.4.2-2.1 1.3-.4.2-1.8.6-1.7.9-1.6 1-.3.4-.8.5-2 1.5-2.2 1.2-.5.5-.5.3-1.4 1.3-1.6 1-.6.5-1.5.7-1.3 1.5-1.1.8-.5.4-.9.5-1.9 1.6-1.6 2-1.6 1.9-.7.6-1.2.8-1.2 1.5-1.4 1.3-.4.8-.2.3-1.8 1.7-.6 1.2-.4.5-.8 1.3-1.2 1.1-.8 1.5-.6.8-1.2 1.5-.9 1.7-1.2 1.5-.8 1.7-.1.5-.8 1.5-1.4 2.1-.6 1.7-.7 1.1-.8 1.7-.1.4-1 1.9-.2.8-.3.4-.1.8-.1.4-.8 2-.3.4-.1.5-.6 1.8-.9 2.3-.5 2.5-.9 2.3-.7 2.4v.4l-.3.6-.4 1.9.1.9-.5 1.1.2 1.8-.3 1.8v.6l-.2.7-.5 2.5.1.4.4 1.2.1.1.2.7.5.2.2.2 1.3.5.3.1 2.6-.2.6.1 2.2.3h2.7l.8-.2h2.7l.7-.1 1.2.2 1.4-.5h.5l1.8-.7 1.7-.9.5-.8 1.1-1.2.3-.3.7-.6 1.3-1.4 1.5-1.2 1.1-1.4.4-.3 1.2-1 .5-.7.3-.2 1.6-2 2.1-1.5 1.1-1.6.9-.9.2-.3 1.1-.9.6-.8.8-.6z" fill="#ea5329"/></g></svg>