<svg clip-rule="evenodd" fill-rule="evenodd" stroke-linejoin="round" stroke-miterlimit="2" viewBox="0 0 560 400" xmlns="http://www.w3.org/2000/svg"><g fill-rule="nonzero" transform="matrix(.915302 0 0 .915302 157.402 65)"><path d="m262.676 142.02c-5.392-2.273-18.85-6.498-32.774-10.308.164-5.633.302-11.804.153-18.067 9.218-11.717 13.433-20.74 12.511-26.839-.201-1.994-1.217-3.819-2.806-5.039l-1.7-1.147-1.854.819c-5.363 2.321-10.912 4.186-16.587 5.577-7.626-3.019-15.423-5.584-23.352-7.682 5.147-18.23 5.761-30.726 1.818-37.193-1.083-2.029-2.967-3.515-5.193-4.097l-1.997-.364-1.388 1.48c-9.722 10.411-21.087 19.158-33.639 25.892-.707-4.512-2.325-11.809-5.541-23.92-3.365-12.664-8.271-29.313-11.092-35.955l-.282-.67-.246-.246c-.229-.634-.55-1.231-.952-1.772-.794-1.458-2.291-2.402-3.949-2.489-1.85.115-3.487 1.261-4.23 2.96l-.967 1.951c-2.766 6.278-7.4 22.753-10.754 36.298-3.032 12.213-4.543 19.608-5.178 24.191-12.87-6.874-24.452-15.925-34.234-26.752l-1.398-1.536-2.048.379c-.712.128-3.19.809-5.177 4.061-3.969 6.483-3.401 19.06 1.69 37.419-7.825 2.035-15.52 4.539-23.045 7.497-5.45-1.603-10.803-3.518-16.034-5.736l-1.823-.778-1.669 1.076c-1.622 1.187-2.676 3-2.904 4.998-1.024 5.94 2.929 14.738 11.681 26.163-.307 6.806-.174 13.54 0 19.705-13.468 3.728-26.721 7.948-32.39 10.329-2.468.825-5.326 2.448-5.326 5.511 0 3.149 2.991 4.383 4.266 4.916.179.071.348.138.486.205l.215.102c6.048 2.56 22.502 7.103 35.745 10.493.712 4.435 1.536 8.828 2.56 13.314-11.752 10.447-17.78 19.004-17.897 25.477-.168 2.108.579 4.189 2.048 5.71l1.536 1.419 2.008-.553c6.649-1.819 13.469-2.94 20.35-3.344 4.385 12.304 10.05 24.115 16.9 35.237l.793 1.286 1.47.363c15.316 3.874 30.945 6.381 46.704 7.492 3.702 15.297 8.736 33.64 11.778 40.4l.896 1.782c.749 1.69 2.38 2.829 4.225 2.95 1.666-.083 3.174-1.03 3.974-2.494.399-.546.718-1.146.947-1.782l.231-.231.281-.655c2.878-6.658 8.225-24.479 12.045-40.011 15.136-1.105 30.152-3.489 44.885-7.128l1.465-.359.804-1.275c6.832-11.092 12.536-22.84 17.027-35.068 6.986.5 13.907 1.68 20.663 3.523l1.998.512 1.536-1.413c1.458-1.522 2.203-3.593 2.048-5.695-.087-6.519-6.053-15.209-17.734-25.846.973-4.46 1.829-9.074 2.561-13.78 14.328-3.493 30.132-8.137 36.175-10.611l.481-.205c1.434-.599 4.414-1.843 4.414-4.993 0-2.263-1.659-3.999-5.213-5.454" fill="#fff"/><path d="m261.247 145.452c-5.817-2.459-21.042-7.139-35.14-10.929.215-7.169.435-14.543.2-22.153 18.323-22.84 11.384-27.531 11.384-27.531-5.922 2.557-12.059 4.585-18.338 6.059-9.024-3.642-18.3-6.624-27.756-8.921 11.594-38.269.63-40.272.63-40.272-17.883 19.035-35.996 27.556-39.796 29.129 1.993-2.674-11.691-52.552-16.627-64.161-.179-.202-.329-.428-.446-.671-.123-.503-.354-.973-.676-1.378-.22-.445-.671-.896-.896-.896s-.671.451-.891.896l-.891 1.793c-5.121 11.64-18.728 65.574-15.599 64.903h-.22c0-.124-.102-.225-.225-.225-.124 0-20.372-8.035-40.308-29.938 0 0-10.959 2.023.513 40.497-9.373 2.241-18.568 5.168-27.51 8.757-6.016-1.723-11.921-3.81-17.683-6.247-5.763-2.438-6.934 4.48 10.544 26.839-.441 8.055-.21 16.105.025 23.715-14.093 3.82-29.082 8.532-34.894 11 0 0-2.909.942-2.909 2.018 0 .85 1.793 1.341 2.689 1.787 5.817 2.453 22.604 7.133 37.603 10.923.896 6.043 2.049 11.855 3.37 17.672-24.141 20.833-17.412 27.09-17.412 27.09 7.812-2.125 15.845-3.328 23.936-3.584 4.423 12.989 10.291 25.441 17.493 37.122 15.985 4.06 32.319 6.591 48.783 7.558 3.82 16.106 9.218 35.786 12.126 42.274l.897 1.787c.225.451.676.897.896.897s.676-.446.896-.897c.314-.396.542-.853.671-1.341.112-.246.263-.472.445-.671 2.904-6.719 8.706-26.189 12.485-42.079 15.846-.978 31.571-3.391 46.98-7.211 7.163-11.655 13.075-24.035 17.637-36.932 8.165.338 16.267 1.595 24.151 3.748 7.883 2.153 6.708-6.273-17.253-27.499 1.338-5.821 2.449-11.864 3.334-18.129 14.989-3.584 31.985-8.536 38.028-11.005 1.06-.476 2.678-.993 2.678-1.792s-2.924-2.002-2.924-2.002" fill="#f05023"/><path d="m216.951 139.921c.635-11.056.512-20.51.317-27.725 9.105-6.837 7.912-7.861 7.912-7.861-.717-.609-3.851.19-8.157 1.736-.041-.66-.067-1.29-.088-1.884 10.15-8.194 7.344-9.249 7.344-9.249-1.265-.819-4.727 0-9.218 1.705l-1.961-.573c-10.143-3.065-20.438-5.603-30.844-7.605 4.85-9.453 9.325-19.526 6.872-20.34-1.403-.62-9.458 7.072-16.008 18.778l-1.024-.148c4.973-9.571 9.73-20.023 7.205-20.858-1.449-.64-9.94 7.425-16.587 19.654-6.058-.655-12.136-1.08-18.343-1.3.143-20.797-2.351-33.528-4.691-33.528 0 0-4.957-.332-5.423 33.348h-1.721c.174-20.688-2.202-33.348-4.711-33.342 0 0-4.983-.333-5.428 33.578-5.439.225-10.79.614-16.116 1.173-6.58-12.147-15.035-20.141-16.479-19.501-2.489.835 2.197 11.148 7.169 20.663l-1.203.169c-6.514-11.604-14.457-19.204-16.014-18.579-2.314.809 2.151 10.718 7.001 20.095-10.887 2.057-21.656 4.693-32.263 7.896l-1.823.579c-4.481-1.68-7.927-2.489-9.176-1.669 0 0-3.006 1.024 7.292 9.217-.031.601-.057 1.236-.077 1.905-4.276-1.536-7.39-2.314-8.101-1.71 0 0-1.199 1.024 7.891 7.963-.317 7.421-.579 16.843-.077 27.735-20.689 2.003-19.634 4.143-19.634 4.143.323 1.798 8.962 2.187 19.972 1.926-.006.154.006.309.036.461-18.098 2.156-16.203 3.851-16.203 3.851.205 1.813 7.287 2.212 16.7 1.941.913 9.565 2.439 19.062 4.568 28.431-14.001 5.357-14.513 8.332-14.513 8.332s2.309 1.721 16.259-1.311c.215.83.435 1.654.666 2.484-7.047 2.473-12.291 4.752-11.994 5.981 0 0 .984 1.588 13.315-1.413 3.833 12.709 8.901 25.012 15.132 36.733l1.122 2.238 2.463.445c20.361 4.005 40.727 6.442 55.717 6.427 14.989-.015 35.334-2.494 55.706-6.545l2.458-.45 1.116-2.238c5.891-11.846 10.702-24.198 14.375-36.907 12.853 3.154 13.78 1.536 13.78 1.536.395-1.26-5.151-3.626-12.49-6.145.22-.809.451-1.623.656-2.427 14.589 3.19 16.976 1.418 16.976 1.418s-.538-3.073-15.261-8.572c2.082-9.318 3.62-18.747 4.609-28.243 10.211.323 18.082-.041 18.236-1.905 0 0 2.238-1.792-17.678-4.009v-.318c11.779.318 21.206-.031 21.452-1.941 0 0 1.117-2.238-21.027-4.225m-37.301-46.498c9.313 1.704 18.534 3.879 27.628 6.514-9.412 4.317-20.213 10.185-25.928 13.36-1.118-4.084-3.641-7.646-7.123-10.057 1.214-2.126 3.231-5.715 5.423-9.817m-35.381-3.81c5.408.189 10.662.578 15.875 1.085-1.125 2.501-2.104 5.066-2.929 7.682h-13.299c.174-3.042.297-5.963.369-8.762m-21.913.082c0 2.711.031 5.612.092 8.706h-10.693c-.812-2.646-1.783-5.24-2.908-7.769 4.44-.42 8.931-.748 13.519-.942m-33.02 3.584c2.161 4.01 4.168 7.559 5.423 9.756-3.78 2.502-6.654 6.157-8.194 10.421-5.694-3.154-16.597-9.054-26.081-13.381 9.481-2.784 19.105-5.052 28.831-6.796m-33.706 46.468c-.44-9.218-.333-17.314-.118-23.986 9.218 5.059 23.757 8.982 30.086 10.549v10.657c-8.004.798-18.948 1.843-29.978 2.78m.922 12.593c9.694-.466 20.786-1.434 29.297-2.248v19.475c.064.763.179 1.521.343 2.268-10.882 2.74-19.127 5.198-25.364 7.344-1.974-8.851-3.408-17.814-4.297-26.839m142.661 51.722c-7.031-2.172-30.952-8.409-65.211-8.373-35.243.036-59.685 6.688-65.815 8.706-1.301-3.585-2.463-7.134-3.518-10.652 6.985-1.926 16.612-4.973 29.886-9.73 4.696 3.198 10.266 4.872 15.947 4.793l46.539-.046c5.863.161 11.637-1.478 16.541-4.696 12.762 4.517 22.143 7.472 29.016 9.372-1.025 3.513-2.136 7.056-3.385 10.651m7.169-25.292c-6.145-2.079-14.216-4.44-24.688-7.057.303-1.248.432-2.532.384-3.815v-17.949c8.152.758 18.948 1.664 28.642 2.135-.937 8.97-2.38 17.879-4.323 26.686m5.352-39.345c-11.041-.988-21.923-1.982-29.702-2.699v-10.518c6.35-1.572 20.925-5.52 30.076-10.595.128 6.626.138 14.676-.379 23.812" fill="#fff"/><path d="m131.097 209.618v-8.511c-6.191.066-12.019.322-17.442.711 2.277 2.29 3.721 5.279 4.097 8.486 4.305-.379 8.754-.608 13.345-.686zm23.234-7.836c-5.474-.384-11.368-.624-17.652-.676v8.537c4.568.056 9.029.272 13.346.64.382-3.253 1.909-6.267 4.306-8.501zm1.117 9.024c9.861 1.048 19.565 3.25 28.913 6.56 2.864 1.086 5.654 2.359 8.352 3.81 1.731-4.097 3.226-7.61 4.942-12.05-5.186-1.549-10.449-2.829-15.768-3.836-5.146-1.024-11.297-1.961-18.338-2.704-4.86 1.086-7.471 4.317-8.101 8.22zm-5.065 4.875c-4.404-.394-8.982-.635-13.683-.697v20.725h.486c1.327-.026 2.663-.072 4-.113 7.051-.322 14.533-1.07 21.959-2.048-5.403-5.592-11.103-11.2-12.767-17.867zm17.212 14.682c.701.753 1.418 1.485 2.135 2.222 6.606-1.024 13.033-2.171 18.897-3.364.553-1.106 1.065-2.207 1.592-3.314-2.533-1.388-5.162-2.596-7.866-3.615-8.473-2.96-17.25-4.968-26.168-5.986 1.874 4.255 6.386 9.217 11.405 14.057zm-40.753 5.218c1.275.036 2.56.077 3.815.102h.466v-20.719c-4.696.077-9.269.333-13.678.742-1.608 6.658-7.139 12.291-12.526 17.857 7.41.994 14.881 1.726 21.923 2.018zm-15.133-19.229c-8.941 1.049-17.742 3.07-26.245 6.027-2.727 1.031-5.373 2.263-7.917 3.687.548 1.081 1.086 2.172 1.659 3.257 5.961 1.183 12.46 2.33 19.117 3.329.717-.738 1.434-1.475 2.141-2.233 4.834-4.829 9.289-9.796 11.245-14.052zm-28.037 1.106c9.329-3.377 19.032-5.612 28.898-6.657-.656-3.923-3.288-7.124-8.158-8.194-7.123.763-13.351 1.731-18.518 2.75-7.261 1.434-13.033 3.011-15.875 3.877 1.562 3.979 3.298 7.999 5.203 12.029 2.731-1.446 5.554-2.712 8.45-3.79zm7.108-48.337c.906 8.706 9.858 14.533 19.705 14.523l46.54-.051c9.617 0 17.893-4.046 19.675-12.772.271-1.176.42-2.378.445-3.585v-13.422h-.701c-5.597 0-10.514 1.352-14.544 4.486-2.138 1.422-3.896 3.346-5.121 5.603l-44.972.046v-40.723l44.972-.046.231 10.068c10.293 0 19.91-4.496 19.9-14.564v-.445c0-10.294-9.638-14.759-19.931-14.749l-46.54.046c-9.842 0-18.789 5.838-19.675 14.79l.031 25.287z" fill="#0a2240"/></g></svg>