<svg clip-rule="evenodd" fill-rule="evenodd" stroke-linejoin="round" stroke-miterlimit="2" viewBox="0 0 560 400" xmlns="http://www.w3.org/2000/svg"><g fill-rule="nonzero" transform="matrix(.27 0 0 .27 145 64.9774)"><g fill="#00853f"><path d="m753.3 733.6v27.3c-8.5-5-18.2-7.5-29-7.5-11.9 0-21.5 3.7-28.9 11.1-7.3 7.4-11 17.5-11 30.2 0 12.2 3.5 21.9 10.4 29.1s16.2 10.8 27.9 10.8c11.2 0 21.4-2.7 30.6-8.1v25.9c-9.3 4.4-21.4 6.7-36.3 6.7-19.5 0-34.8-5.7-46-17s-16.7-26.5-16.7-45.4c0-20.1 6.3-36.4 18.8-49 12.5-12.5 28.8-18.8 48.8-18.8h31.3z"/><path d="m99 733.6v27.3c-8.5-5-18.2-7.5-29-7.5-11.9 0-21.5 3.7-28.9 11.1-7.3 7.4-11 17.5-11 30.2 0 12.2 3.5 21.9 10.4 29.1s16.2 10.8 27.9 10.8c11.2 0 21.4-2.7 30.6-8.1v25.9c-9.3 4.4-21.4 6.7-36.3 6.7-19.5 0-34.8-5.7-46-17-11.1-11.4-16.7-26.6-16.7-45.4 0-20.1 6.3-36.4 18.8-49 12.5-12.5 28.8-18.8 48.8-18.8h31.3z"/><path d="m175.8 753.3c-10 0-18 3.7-23.9 11.2s-8.9 17.3-8.9 29.6c0 12.5 3 22.3 8.9 29.6s13.6 10.9 23.2 10.9c9.9 0 17.7-3.5 23.5-10.6 5.8-7 8.7-16.8 8.7-29.3 0-13-2.8-23.2-8.4-30.4-5.6-7.4-13.3-11-23.1-11m-1.2 105.7c-18.2 0-33-5.9-44.4-17.6-11.5-11.7-17.2-27-17.2-45.8 0-19.9 5.8-36 17.4-48.3s27-18.4 46.2-18.4c18.1 0 32.8 5.9 44 17.6 11.2 11.8 16.8 27.3 16.8 46.5 0 19.8-5.8 35.7-17.4 47.8-11.6 12.2-26.7 18.2-45.4 18.2"/><path d="m373.1 856.8h-28.9l-52.3-79.1c-3.1-4.6-5.2-8.1-6.4-10.4h-.4c.5 4.4.7 11.2.7 20.4v69.1h-27v-125.8h30.8l50.4 76.6c2.3 3.5 4.4 6.9 6.4 10.3h.4c-.5-2.9-.7-8.7-.7-17.3v-69.6h27z"/><path d="m514.3 856.8h-28.9l-52.3-79.1c-3.1-4.6-5.2-8.1-6.4-10.4h-.4c.5 4.4.7 11.2.7 20.4v69.1h-27v-125.8h30.8l50.4 76.6c2.3 3.5 4.4 6.9 6.4 10.3h.4c-.5-2.9-.7-8.7-.7-17.3v-69.6h27z"/><path d="m773.3 731h28.6v50.2h52.6v-50.2h28.7v125.8h-28.7v-51.2h-52.6v51.2h-28.6z"/><path d="m1000 754.1v-23.1h-100.9v23.1h36v102.7h28.7v-102.7z"/><path d="m378.9 924c4.7 0 7.7-3.6 7.7-8.1 0-4.4-2.9-7.9-7.7-7.9h-11.2v16zm21 24.8v1.6h-11.9l-10.7-17.2h-9.3v17.2h-11.2v-52c7.4 0 14.8-.1 22.3 0 11.9 0 18.4 8.6 18.4 17.8 0 6.6-3.4 12.4-9.3 15.3z"/><path d="m415.1 933.2v-34.8h11.2v34.6c0 5.6 4.5 8.4 9.7 8.4 5.1 0 9.6-2.8 9.6-8.4v-34.6h11v34.8c0 11.7-9.6 18-20.6 18s-20.9-6.4-20.9-18"/><path d="m499.3 897.6c10.3 0 20.7 5 23.7 17.1h-10.9c-2.6-5.1-6.8-7.1-12.7-7.1-9.8 0-15.3 7.4-15.3 16.7 0 9.9 6 16.7 15.3 16.7 7.1 0 12.4-2.2 14.6-10h-14.2v-9.1h24.4c.3 5 .1 9.6-1.6 14.3-3.9 10.5-13.3 14.9-23.2 14.9-13.8 0-26.6-9.5-26.6-26.8 0-17.2 12.8-26.7 26.5-26.7"/><path d="m551.6 928.8v11.9h12.4c3.8 0 6-2.2 6.3-5.7.1-2.1-.7-4-2.3-5.1-1.3-.9-2.8-1-4.5-1h-11.9zm0-20.8v11.8h10.2c3.8 0 6.2-2.1 6.3-5.6.1-3.8-2.4-6.2-6.3-6.2zm22.2 15.4c4.8 2 7.4 6.2 7.4 11.6 0 9.1-6.1 15.4-16.5 15.4h-24.2v-52h22.1c9.5 0 16.4 5.7 16.4 15.4 0 3.8-1.9 7.6-5.2 9.6"/><path d="m619.3 950.4h-11.2v-20.8l-17.9-29.6v-1.6h12l6.5 11 4.9 10h.3l5.2-10.3 6.2-10.7h11.9v1.6l-17.9 29.6z"/><path d="m621.2 856.8h31l-48.1-128h-27.5l2 5.8-.8 2.2-46.2 120h31l7.9-23.6zm-11.9-34-31.9-13.2 12.7-41.5"/><path d="m581.3 177.8c4.8 2.4 22 25.3 22 25.3s-2.6-20.2-4.2-25.7c-1.5-5.5-17.8.4-17.8.4z"/><path d="m208.2 379.8h.1c-.2-.1-.5-.2-.7-.2zm157.9-250.3c4.2-24.6-14.5-42.3-37.8-47.4l.6.2c-40.3-12-102.8 7.4-139.2 9.3-36.3 1.9-110.7 5.5-161-16.8 22.3 22.3 113.2 86.8 212.5 81.1h.1s-80.4 57.8-168.2 37.4l-2.8-.6c62.4 36.9 92.1 54.3 198.5 28.2l.8.6s-34 70.7-127.3 86.4l-2.9.7c77.7 19.7 117.5 17.3 176.1-10.8 0 0-29.6 63.1-107.1 81.9 67.2 22.6 126.5 3.5 167.8-19.4l-2.6 6.2c-11.8 42.2-48.4 60.5-80 63.7h-.2l.7.2c60.5 15.8 143-1.7 160.6-12.8-6.4 15.9-20 28.3-41 34.5l.5-.1c1.6 3.7 9 17.9 11.8 21.9-11.2 7.7-26 11-38.7 15.4-11.4 1.1-22.3-5.3-30-13.1-9.9-10-6-23.8-18.4-28.9-7.8-3.1-23.4-3.3-27.8 7.5-1.7 4.2 5.1-6.3 10.2-1.2-3 12 17.7 14.4 23.6 26.9-14.6 5.5-31-11.2-44.4-13.2-12.1-1.7-22.9 8.7-18.6 22.6 2.2-2.2 0-5.9 3.7-7.7 2.7.2 5.3 8.1 15.8 8.5 22.4-5.5 44 3.7 44.8 6-7.4 7.4-23.4-1.4-32.5 5.6-7.6 5.8-9.3 21.5 2.1 27.9-2.3-4.9-2.7-5-.7-8.2 2.5-1.3 6.8 4.2 16.4.4 5.8-6.1 20.6-17.9 29-14 20.3 17.9 34-2.1 54.4 9.5 7 4.1 13 14.8 26.2 10.7 4.7 2.2 2.2 6.5 1.2 10.8 11.4-7.1 9-25.2-2.9-30-9-3.9-18.4 1.8-29.9-6.5 9.6-7.6 16.2-10.9 26.7-15.9 3.7 3.9 17.9 12.6 20.9 14.4l-.2.2c16.7-4.9 48.7-41.9 50.6-58.6-1.2 10.7-4.1 30.4-12.7 49.5-8.6 19-14.4 31.7-33.3 41 0 0-8.8 6.4-25.3 9.6l-3.5.3c-42.3 5-57 21-58.8 47.6-1.7 25.2 29.8 50.6 71.7 29.2 0 0-47.7 7.9-47.7-24.5 0-27.9 25.3-31.3 25.3-31.3s-12 6.1-9.5 18.2c.8 5.9 5.9 11.7 12.8 11.7 10.9-.1 18.6-6.8 18.6-6.8s-18.6 6.8-19.8-4.9c-1.2-12 8.8-17.8 23.1-19.7 0 0 12.6-1.4 24.5-4.8 19-5.4 30.6-14.9 30.6-14.9l-2.5 5.1-45.7 98.5s61.3-56 126.6 58.4l-.2-70.4v-190.3l4.3 27.1c5.2 24.3 15.7 62.7 32.2 61.4 22-1.6 28.1-2.9 49.8-2.6 17.1.2 100.4-11.6 155.4-33 .7 13.6 14.5 24.5 31.6 24.5 17.5 0 31.6-11.4 31.6-25.4 0-8.5-5.3-16.1-13.3-20.7h18.9c4.3 0 7.8-4.7 7.8-10.5 0-3.3-1.1-6.3-2.9-8.2h.8c5 0 9.1-4.7 9.1-10.5 0-4.8-2.8-8.8-6.6-10.1 5.3-.4 9.4-5 9.4-10.5 0-5.2-3.7-9.5-8.5-10.4 3.3-1.6 5.7-5.3 5.7-9.7 0-2.6-.8-4.9-2.1-6.8 29.9 2.5 50 7.2 50 13.4v-59.7c0 7.5-29.2 12.9-69.4 14.7-1.5-44.9-7.8-178.5-28.5-318.3-20.7 140-27 273.6-28.5 318.4-41.2-1.7-71.4-7.1-71.4-14.7v59.7c0-7.5 29.5-12.9 70.1-14.7-3.4 2-4.9 6.9-3.3 11.7l-2.5 9.1-.9 14.7c-22 3.2-47.6-1.3-57.9-2.5l-6.6-.8c-5.5-1.1-16.4-1.7-22.4-1.7-18.4 0-34.2 5.1-45.7 14.1l4.4-4.1c9.9-9.9 9.9-37.1 11.4-60.5 1.8-28.7-.7-44.3-7.2-63.4 1.7-8 2-16 2.5-24.1 2.7-50.7-38-65.7-53.7-68.1-2.6-.4-7.5-.8-7.5-.8-8.7-.6-12.4.3-20.3.3-8 0-18.9-.2-26.8-2.9-20-6.8-17.6-31.3-15.7-37.6s2.5-6.7 2.5-6.7 8 6.4 15 15.1c6.9 8.6 10.8 13.7 10.8 13.7s-2.6-25.1-8.3-38.5-16.9-21.8-16.9-21.8 6.9 2.6 15.2 9.4c8.3 6.9 10.1 8.5 10.1 8.5s-1.6-109.2-91.4-111.8c-49.8-3.4-79.4 31.6-79.4 31.6l.3-.1c-.7.7-1.5 1.6-2.4 2.9-5.1 7.5-6.9 4-13.8 13.7-7 9.6-.1 22.6-.1 22.6s1.5-7.7 13.5-15.3c7.5-5.1 15.7-10.5 20-5.7 4.2 4.7 7.3 4.2 12.6 1.3 5.5-3.1 20.5-9.7 35.9 2.7-5.8-.5-11.6-.3-17.2.4-13.6 1.7-26.3 6.6-37.9 12.9-5.7 3.3-11 6.4-16.5 9.5-5.6 3-11.5 5.8-17.2 8.2-6 2.2-12.2 4.1-18.3 5.2-2.9.4-6.1 1.2-9 .8l.1.1c3.1.5 6 .7 9.1.6l.1.1c6.3-.4 12.7-2 19-3.8 12.3-3.6 24.4-9.5 35.7-15.1 11.5-4.9 23.6-8.4 35.7-8.9 6.1-.3 12.1.2 17.8 1.5 1.3.4 2.6.7 3.9 1.1-.1 1.1-.2 1.8-.2 1.8l-.4 2.6c-.4 1.9-1.2 4.5-4.6 4.5-.7 0-1.5 0-2.8.1 0 0-36.9-1.6-40.4 10.6l2.7.2 11.7.8s14.7 1.7 14.7 25.3c0 23.5-8.7 62.8-55.7 62.8-50-.3-76.8-31.6-62.8-94.7zm91.2-47c4.4-14.3 32.9-10.3 32.9-10.3-1.8 5.6-38.8 26.6-32.9 10.3zm404.9 373.3-.1-.8c.2.2.4.3.6.4-.2.2-.3.3-.5.4z"/></g><path d="m842.3 414.5 16.2-6.1c0 4.9 5.4 6.9 5.4 6.9s-9.1 2-9.1 10.2 9.1 10.8 9.1 10.8-5.9 3.5-5.9 9.7 4.6 9.3 4.6 9.3-4.5 4.1-4.5 8.2 1.4 7.6 1.4 7.6-4.8-.6-9.1 0-8 2.2-8 2.2v-32.1s2.5-7.4 2.5-13.6-2.6-13.1-2.6-13.1z" fill="#fff"/><path d="m842.3 414.5 16.2-6.1c0 4.9 5.4 6.9 5.4 6.9s-9.1 2-9.1 10.2 9.1 10.8 9.1 10.8-5.9 3.5-5.9 9.7 4.6 9.3 4.6 9.3-4.5 4.1-4.5 8.2 1.4 7.6 1.4 7.6-4.8-.6-9.1 0-8 2.2-8 2.2v-32.1s2.5-7.4 2.5-13.6-2.6-13.1-2.6-13.1z" fill="#fff"/><path d="m855.4 107.4c-2.7 31.6-12.4 260-12.4 260h13.1z" fill="#fff"/></g></svg>