<svg clip-rule="evenodd" fill-rule="evenodd" stroke-linejoin="round" stroke-miterlimit="2" viewBox="0 0 560 400" xmlns="http://www.w3.org/2000/svg"><path d="m258.225 441.798c.052-47.681.171-87.475.266-88.432.094-.957.337-3.642.541-5.966.958-10.966 2.925-22.341 5.737-33.185 1.439-5.55 2.279-8.165 3.845-11.976 6.938-16.878 19.094-30.011 35.456-38.306 4.983-2.526 8.347-3.826 15.513-5.993 15.125-4.573 28.834-7.078 45.949-8.395 5.064-.389 21.122-.391 26.473-.005 18.497 1.344 36.795 5.021 52.823 10.614 7.32 2.555 15.319 7.016 21.875 12.201 2.671 2.113 9.068 8.509 11.281 11.282 4.01 5.023 8.003 11.701 10.552 17.649 3.109 7.25 6.4 20.184 8.354 32.829l.637 4.119c2.733 17.73 2.528 34.548-.005 54.404l-.748 4.723c-1.942 12.274-5.037 24.541-7.965 31.577-5.383 12.933-14.267 24.129-25.493 32.123-8.476 6.037-16.404 9.487-30.919 13.455-15.734 4.3-30.927 6.536-48.479 7.134l-4.854.166-12.331-33.9c-6.782-18.645-12.314-33.921-12.293-33.947.021-.025.987.291 2.146.703 9.17 3.257 25.851 3.874 38.897 1.438 6.357-1.186 12.128-3.955 16.658-7.991 6.674-5.945 9.906-12.169 12.285-23.661 1.582-7.638 1.992-12.128 1.877-20.531-.112-8.206-.693-12.926-2.498-20.309-2.254-9.221-5.146-14.655-10.528-19.776-5.036-4.792-10.635-7.63-17.789-9.017-5.921-1.148-9.51-1.463-16.66-1.462-7.26 0-11.367.359-16.928 1.476-10.902 2.189-19.62 8.593-24.396 17.923-3.365 6.574-5.784 17.434-6.387 28.68-.062 1.162-.119 39.222-.127 84.579l-.011 82.466h-72.848l.094-86.692zm-144.752 39.793c-19.791-.849-38.046-4.099-55.806-9.934-5.278-1.735-7.564-2.67-11.807-4.833-17.895-9.121-31.128-24.749-37.239-43.981-1.114-3.508-3.367-12.682-4.363-17.773-1.717-8.775-3.137-19.748-3.571-27.583-.247-4.475-.25-19.626-.005-24.024 1.034-18.456 5.539-40.776 10.607-52.547 7.339-17.046 20.822-30.75 37.801-38.419 3.696-1.67 6.811-2.794 12.677-4.576 40.187-12.21 83.111-11.657 123.29 1.588 12.212 4.026 23.695 11.418 31.967 20.579 6.57 7.276 11.889 16.077 15.142 25.053 3.574 9.861 7.615 30.111 8.459 42.383.09 1.299.207 2.641.262 2.983.432 2.71.607 17.374.291 24.485-.833 18.761-5.211 41.818-10.242 53.942-2.484 5.986-6.924 13.468-10.988 18.519-6.677 8.296-16.093 15.684-25.937 20.35-10.378 4.918-29.919 10.019-46.733 12.198-10.824 1.403-23.874 2.017-33.806 1.59zm15.974-64.334c12.401-1.203 19.27-3.868 25.79-10.006 5.261-4.952 8.319-10.571 10.529-19.344 3.697-14.675 3.705-30.179.021-44.836-2.154-8.572-4.886-13.789-9.784-18.687-7.933-7.933-17.961-11.047-35.445-11.006-13.985.033-22.344 1.93-29.508 6.7-4.305 2.866-8.455 7.27-10.799 11.462-2.901 5.188-5.111 13.007-6.448 22.82-.572 4.197-.69 15.285-.211 19.886.956 9.203 3.181 18.222 5.762 23.363 3.427 6.825 8.579 11.966 15.427 15.395 4.931 2.469 9.448 3.491 19.686 4.458 2.493.235 11.751.108 14.98-.205zm-16.222-184.322c-2.53-.107-5.55-.269-6.712-.359-2.655-.207-7.134-.633-7.955-.757-.341-.052-1.292-.165-2.113-.251-.82-.086-1.771-.197-2.112-.245-.342-.049-1.163-.163-1.825-.254s-1.389-.2-1.616-.242-1.587-.265-3.022-.495c-11.636-1.871-28.039-6.179-36.169-9.499-6.369-2.602-13.411-6.74-18.767-11.03-3.426-2.744-9.056-8.416-11.599-11.687-6.303-8.107-10.522-16.321-13.249-25.795-3.904-13.565-6.601-29.402-7.395-43.422-.249-4.397-.256-19.594-.012-23.863.671-11.713 2.596-24.627 5.409-36.293 2.21-9.166 3.743-13.602 6.966-20.161 8.675-17.651 23.858-30.942 42.749-37.421 15.133-5.19 32.163-8.662 49.84-10.161 5.229-.443 19.752-.593 25.728-.266 17.982.986 35.67 4.264 52.698 9.768 9.064 2.929 17.519 7.414 24.576 13.035 2.956 2.355 9.31 8.684 11.568 11.524 5.319 6.688 9.905 15.124 12.591 23.157 2.257 6.752 5.053 19.338 6.425 28.92 1.237 8.638 1.841 15.674 2.15 25.044l.137 4.164h-72.805l-.135-.559c-.075-.308-.141-1.557-.147-2.777-.04-7.529-2.172-18.833-4.889-25.92-2.179-5.683-6.639-11.343-11.91-15.113-5.202-3.721-10.223-5.481-19.265-6.754-3.965-.558-17.818-.639-21.875-.128-4.08.514-8.884 1.454-11.062 2.164-9.463 3.088-17.198 10.211-21.019 19.356-1.787 4.277-3.567 11.606-4.495 18.508-.69 5.136-.85 15.471-.318 20.545.948 9.041 3.226 18.335 5.695 23.238 4.771 9.473 13.898 16.368 24.333 18.381 10.96 2.116 24.077 2.111 34.58-.012 6.84-1.382 12.772-4.51 17.623-9.292 5.719-5.639 8.63-11.76 10.874-22.868.414-2.05.772-3.743.795-3.762.087-.07 68.137 31.734 68.344 31.941.267.267-1.479 7.2-2.918 11.592-5.588 17.05-17.177 31.575-32.571 40.823-4.799 2.884-9.531 5.036-15.191 6.911-11.242 3.723-24.263 6.799-35.643 8.418-2.362.336-7.027.895-8.576 1.027-.957.082-2.132.189-2.61.239-.979.102-4.164.326-6.96.49-4.24.248-13.851.323-18.147.141zm262.229.152c-.057-.05-2.341-.163-5.075-.251s-5.363-.207-5.842-.265c-.478-.058-1.848-.177-3.044-.264-1.196-.088-2.483-.197-2.859-.243-.376-.045-1.411-.153-2.3-.24-1.41-.137-3.997-.467-5.965-.762-.342-.051-1.125-.16-1.741-.243-9.514-1.284-24.227-4.856-34.711-8.427-11.306-3.852-19.991-9.193-28.514-17.537-9.97-9.76-16.29-20.748-20.157-35.046-3.235-11.959-5.135-23.015-6.476-37.678-.633-6.927-.639-24.972-.009-30.354.062-.532.236-2.365.386-4.074 1.128-12.851 4.629-30.53 7.942-40.108 5.098-14.737 14.606-27.526 27.101-36.454 8.009-5.722 15.582-9.109 28.835-12.897 30.335-8.67 63.152-10.098 94.087-4.093 12.153 2.359 25.135 6.037 32.433 9.189 18.088 7.811 32.353 22.584 39.756 41.171 2.759 6.928 5.75 19.158 7.588 31.028l.638 4.119c2.429 18.236 2.63 33.738-.005 54.405l-.73 4.598c-1.481 9.329-3.962 20.122-6.087 26.474-3.7 11.064-9.581 20.666-17.665 28.845-7.472 7.557-15.505 12.94-25.201 16.885-8.295 3.374-24.34 7.586-36.074 9.468-1.436.23-2.789.451-3.007.491-.219.041-.991.149-1.716.241s-1.519.206-1.764.253c-.245.048-1.207.163-2.137.256-.931.094-1.877.205-2.103.247-.423.078-4.786.495-7.668.732-4.191.345-17.677.746-17.918.534zm12.774-64.687c4.878-.478 9.79-1.405 12.507-2.359 8.762-3.078 16.101-9.657 19.957-17.891 1.955-4.174 4.127-12.814 5.152-20.494.541-4.056.628-16.239.145-20.383-.923-7.925-2.869-16.265-4.895-20.988-1.773-4.135-5.043-8.758-8.276-11.703-3.392-3.089-8.21-5.887-12.609-7.323-2.178-.71-6.982-1.65-11.062-2.164-3.515-.443-17.66-.445-20.881-.005-9.614 1.318-14.039 2.744-19.267 6.208-5.262 3.486-9.215 7.995-11.924 13.601-2.519 5.211-4.7 14.203-5.638 23.242-.387 3.735-.377 14.016.018 17.649.705 6.492 2.367 14.329 4.059 19.141 4.058 11.541 13.741 19.889 25.916 22.344 8.166 1.645 17.48 2.036 26.798 1.123z" fill="#01b1dd" fill-rule="nonzero" transform="matrix(.511376 0 0 .511376 152.156 64.7443)"/></svg>