<svg clip-rule="evenodd" fill-rule="evenodd" stroke-linejoin="round" stroke-miterlimit="2" viewBox="0 0 560 400" xmlns="http://www.w3.org/2000/svg"><g transform="matrix(.784314 0 0 .784314 179.902 61.8673)"><g fill-rule="nonzero"><path d="m.125 68.281v45.574c0 23.622 5.637 145.278 115.426 228.571l10.969 8.258 1.21.851 2.118-1.656 9.863-7.453c109.883-83.293 115.414-204.949 115.414-228.571v-45.574z" fill="#fff"/><path d="m3.75 72.313v42.097c0 23.215 5.34 143.27 113.91 225.594 0 0-.105-.25-.105-.344 1.117 1.102 3.425 2.863 8.062 6.344l2.113 1.453 9.86-7.453c108.476-82.324 114.012-202.379 114.012-225.594v-42.097z" fill="#cca857"/><path d="m12.711 81.375v33.035c0 22.461 5.34 138.68 110.484 218.344l4.535 3.426 4.434-3.426c105.031-79.664 110.477-195.883 110.383-218.344v-33.035z" fill="#fff"/><path d="m24.199 92.707h206.957v.051l-179.968 134.605c-25.083-52.367-26.989-99.758-26.989-112.949zm-8.058-7.953v29.66c0 22.254 5.238 136.914 109.168 215.676l2.421 1.808 2.313-1.808c103.836-78.762 109.168-193.422 109.168-215.676v-29.66z" fill="#eb1926"/><path d="m103.758 151.125c-5.035.746-52.168 7.652-52.168 7.652s34.039 33.129 37.871 36.809c-1.012 5.031-9.066 51.918-9.066 51.918s42.199-22.102 46.726-24.524c4.633 2.422 46.637 24.524 46.637 24.524s-7.961-46.887-8.875-51.918c3.73-3.68 37.773-36.809 37.773-36.809s-47.027-6.906-52.168-7.652c-2.316-4.59-23.367-47.289-23.367-47.289s-21.043 42.699-23.363 47.289" fill="#cca857"/><path d="m107.488 156.359c-3.129.446-43.711 6.293-43.711 6.293s29.411 28.758 31.723 30.871c-.602 3.325-7.453 43.657-7.453 43.657s36.16-19.137 39.074-20.543c2.922 1.406 39.18 20.543 39.18 20.543s-6.949-40.332-7.461-43.657c2.324-2.113 31.625-30.871 31.625-30.871s-40.582-5.847-43.703-6.293c-1.512-2.976-19.641-39.687-19.641-39.687s-18.121 36.711-19.633 39.687" fill="#fff"/><path d="m127.125 124.277 17.32 35.106 38.774 5.734-27.989 27.25 6.54 38.668-34.645-18.277-34.648 18.277 6.55-38.668-27.902-27.25 38.777-5.734z" fill="#eb1926"/><path d="m83.512 113.152 13.402-14.812h-8.766l-16.214 18.336v-18.336h-7.559v38.527h7.559v-10.922l6.543-7.152 10.882 18.074h8.766zm-20.235-14.812h-8.871l-16.203 18.336v-18.336h-7.562v38.527h7.562v-10.922l6.535-7.152 10.879 18.074h8.758l-14.602-23.715z" fill="#eb1926"/></g><path d="m88.063.703 7.347 22.106 23.367.156-18.839 13.789 7.058 22.266-18.933-13.594-18.93 13.594 7.047-22.266-18.84-13.789 23.469-.156z" fill="#cca857"/><path d="m163.973.703 7.347 22.106 23.364.156-18.836 13.789 7.058 22.266-18.933-13.594-18.93 13.594 7.047-22.266-18.836-13.789 23.469-.156z" fill="#cca857"/></g></svg>