<svg clip-rule="evenodd" fill-rule="evenodd" viewBox="0 0 560 400" xmlns="http://www.w3.org/2000/svg"><path d="m393.69 211.722c.307.135.893.307 1.119.396.943.371 1.729.884 2.39 1.662 1.503 1.771 1.502 3.745 1.408 5.881 1.164 1.073 3.125 2.161 4.29 3.26 2.099 1.975 3.124 3.081 3.825 5.98.412 1.701.264 3.745.069 5.546.908.91 1.279 2.182 1.234 3.498-.129 3.741-.187 7.485-.428 11.225.092.043.183.086.266.129 1.913.99 3.112 2.448 3.277 4.652.098 1.314-.66 3.141-.927 4.407 3.663.226 5.843 1.965 5.43 5.993-.51 4.987-4.081 9.525-8.04 12.378-2.506 1.805-5.891 3.834-6.614 7.069-.088.392-.226.787-.352 1.176.021.113.04.226.057.339.77.869 1.397 1.855 1.712 2.961 1.993.517 3.022 2.142 3.131 4.384.171 3.485-.989 9.774-2.342 13.514.099.06.198.12.293.182 1.923 1.238 3.316 2.9 3.164 5.312-.048.784-.367 1.512-.773 2.173-.221.358-.656.883-.974 1.323.492.288 1.251.671 1.577.92 1.435 1.095 2.074 2.623 2.238 4.39.419 4.491-4.242 9.007-7.462 11.584-1.512 1.211-3.279 2.153-4.936 3.151-.982.592-3.279 1.855-3.997 2.642-.206.225-.937.859-.695 1.205 1.598 2.279 2.041 4.673.751 7.066.971 4.359.539 8.966-.911 13.17-1.874 5.429-4.413 10.592-6.751 15.827-3.737 8.365-6.141 18.535-12.891 25.099-2.875 2.796-5.593 4.743-9.21 6.482-1.055.508-2.127.98-3.211 1.419-.261 5.278-3.136 11.123-6.225 15.48 1.515 1.471 2.26 3.272 1.714 5.392-.334 1.29-1.036 1.709-1.698 2.48.344.381 1.05 1.066 1.185 1.223 1.204 1.415 1.539 3.038 1.375 4.864-.566 6.289-14.609 12.079-19.965 13.408-1.408.349-1.647.468-1.723 1.952-.227 4.433.434 7.581-4.333 9.931-.851.418-1.718.806-2.609 1.134-.813 5.023-4.531 9.674-9.394 11.275-.98.322-1.988.49-3.005.587.459 1.163.574 2.384.386 3.662-.167 1.139-.561 2.113-1.284 3.011-.394.491-.927.932-1.282 1.421-.214.295-.285.559-.285.922 0 4.047 2.775 7.829.353 12.007-2.302 3.969-7.761 6.552-11.718 8.599-1.063.549-2.325.662-3.504.673-.52.004-1.908-.074-2.771-.007l.526-.001-6.528 5.54c-11.47 9.736-22.314 20.211-34.303 29.329-3.62 2.752-5.817 4.559-10.624 3.207-2.213-.623-4.436-1.204-6.673-1.738-8.023 6.873-16.213 13.553-24.598 19.98l-5.845 4.481-5.745-4.606c-8.161-6.545-16.138-13.313-24.024-20.184-2.404.573-4.793 1.233-7.134 2.021-4.39 1.477-5.634-.045-8.983-2.377-12.7-8.845-23.63-19.762-35.449-29.68l-5.552-4.658c-3.229-1.449-7.031-3.416-9.377-5.801l-38.497-39.148 5.668-1.143c.628-.126 1.258-.245 1.888-.357l-29.499-37.088 2.477-.091c1.864-.069 3.729-.151 5.593-.206-2.371-6.213-5.278-12.181-8.934-17.754l-.622-.948c-3.217-1.33-6.2-3.061-8.787-5.419-7.088-6.458-7.826-15.854-11.511-24.108-2.452-5.49-5.708-10.657-7.676-16.356-1.483-4.296-2.034-8.99-.949-13.445l.988-4.058c-1.964-3.218-3.75-6.532-5.361-9.965l-2.713-5.775 5.956 1.328c-.985-4.523-2.176-9.002-3.482-13.442-3.317-11.281-7.338-22.448-12.086-33.207l-2.768-6.274 6.554 2.018c2.287.704 4.552 1.483 6.791 2.335-1.85-3.957-3.33-8.372-4.259-12.46-4.016-17.656.644-37.76 10.576-52.72l1.506-2.269c-.979-15.955-1.583-31.935-1.706-47.92l-.057-7.701c4.349.296 8.487-.482 12.775-1.285 14.201-2.659 26.564-8.706 39.953-14.858 21.344-9.809 42.036-20.948 62.844-31.826 4.771-2.495 9.542-4.992 14.321-7.471l-35.873-32.04 66.214-6.488 26.612-61.503 26.612 61.503 66.215 6.488-35.214 31.45c8.624 4.521 17.198 9.137 25.783 13.729 17.287 9.245 34.593 18.504 52.489 26.533 13.617 6.11 28.817 12.331 43.677 14.314l8.422 1.124-.277 8.494c-.502 15.347-.609 30.705-1.093 46.051.262.685.521 1.369.825 2.036zm-200.849 327.707c4.59 3.916 9.221 7.786 13.911 11.581 4.833-3.742 9.6-7.568 14.306-11.467-4.946-.613-9.93-.943-14.912-.914-4.425.024-8.891.314-13.305.8z" fill="#161413" transform="matrix(.481124 0 0 .481124 179.9999 63.618)"/><g fill="#f6ca00"><path d="m40.713 176.969c26.894-10.515 53.054-23.444 78.543-36.981 6.394-3.396 12.757-6.842 19.103-10.326l5.741-26.208-6.849-6.117c-33.404 17.06-68.716 36.152-96.044 48.046-13.92 6.059-26.247 9.674-34.804 10.612.147 24.764 1.567 48.598 3.313 70.526-2.986-6.128-5.486-12.448-7.647-18.338-1.084-17.616-1.898-35.25-2.032-52.915l-.037-4.75c4.853-.307 12.898-1.683 19.524-3.787 11.021-3.5 23.174-8.68 31.36-12.441 21.326-9.8 42.187-21.023 62.988-31.897 6.079-3.178 12.194-6.38 18.347-9.551l-33.941-30.314 60.946-5.972 24.471-56.556 24.472 56.556 60.946 5.972-33.269 29.713c9.971 5.179 19.867 10.51 29.771 15.806 17.309 9.257 34.769 18.592 52.683 26.629 13.604 6.105 29.702 12.58 44.545 14.562l5.615.749-.185 5.662c-.467 14.285-.595 28.57-.999 42.85-.719-.888-1.632-1.547-2.533-2.285-1.108-.908-2.31-1.762-3.629-1.794.259-11.118.38-22.987.902-38.976-35.038-4.678-85.594-35.185-131.17-58.737l-7.553 6.747 5.746 26.234c4.727 2.526 9.459 5.047 14.196 7.554 14.87 7.866 29.82 15.642 44.99 22.918 12.74 6.11 25.954 12.114 39.319 16.72l4.464 1.54-.252 4.714c-2.195 40.996-6.181 82.591-17.234 122.257-20.122 72.212-59.208 130.839-109.982 184.09-2.643-.318-5.289-.574-7.947-.764 55.169-57.014 92.548-115.568 111.897-185.006 10.435-37.449 14.691-77.523 17.013-120.911-26.114-9.003-61.057-27.148-94.703-45.069l5.688 25.969-52.791-31.262-52.791 31.262 5.68-25.929c-30.901 16.845-62.762 32.976-93.591 45.029 3.209 42.496 5.641 84.079 16.178 121.741 19.371 69.24 62.552 135.794 113.895 184.285-2.741.214-5.474.492-8.2.825-51.122-49.556-92.765-115.647-111.725-183.424-1.586-5.669-2.992-11.402-4.244-17.184l.014-.032 1.546-3.547-2.197.574c-6.962-33.635-8.948-68.83-11.511-102.766l-.348-4.617zm124.116 354.01c7.896 6.791 14.49 12.256 19.325 16.133 6.694-5.133 13.288-10.452 19.802-15.93 2.646.434 5.278.945 7.892 1.519-7.795 6.662-15.746 13.14-23.884 19.38l-3.897 2.987-3.83-3.071c-7.916-6.347-15.696-12.938-23.367-19.612 2.592-.544 5.268-1.011 7.959-1.406z" transform="matrix(.481124 0 0 .481124 190.8519 67.411)"/><path d="m30.004 34.42c-7.95-11.159-13.206-24.844-16.669-34.42-11.083 16.692-13.335 36.21-10.132 50.295 1.357 5.966 3.461 10.936 5.415 14.468 1.223-3.968 2.874-7.792 4.859-11.334.471-.84.982-1.684 1.524-2.531-2.469-9.118-4.4-25.86-3.073-36.036.006 6.617.593 14.454 1.627 21.625.559-3.107 1.577-6.716 3.119-9.558-1.332 4.667-2.418 10.44-2.378 14.15.534 2.966 1.148 5.727 1.831 8.124 3.638-5.271 8.501-10.498 13.877-14.783z" transform="matrix(.481124 0 0 .481124 184.2989 167.105)"/><path d="m35.192 0c-12.757 4.471-24.669 17.046-29.976 26.51-2.271 4.05-4.029 8.359-5.216 12.733 4.441 1.996 8.879 4.352 13.028 7.06.287-1.259.618-2.597.99-3.997-.323-3.671-2.173-9.517-4.139-14.152 2.38 3.331 4.078 7.982 4.905 11.39 2.556-8.868 6.478-19.333 10.659-26.119-4.665 10.4-8.643 22.809-10.972 33.841 6.206 4.244 11.672 9.3 15.406 15.129 1.768-1.438 3.617-2.797 5.517-4.045.208-1.212.371-2.41.486-3.598.612-6.303-.534-13.847-2.185-21.259-2.026-9.088-1.579-24.508 1.497-33.493z" transform="matrix(.481124 0 0 .481124 189.0619 180.498)"/><path d="m13.131 21.013c-5.063-6.379-9.259-12.77-13.131-21.013 21.636 4.821 31.952 12.032 41.013 19.835-1.873 2.776-3.496 5.728-4.88 8.81-6.416-6.004-14.87-13.142-22.298-17.233 6.672 5.299 14.859 11.943 21.598 18.851-.306.734-.6 1.475-.88 2.222-1.9-.761-3.792-1.553-5.665-2.402-5.606-2.538-10.902-5.463-15.757-9.07z" transform="matrix(.481124 0 0 .481124 188.6249 222.498)"/><path d="m16.347 50.056c-3.51-17.7-11.176-38.338-16.347-50.056 17.615 5.422 34.029 15.335 41.627 27.345-4.184 3.601-7.852 7.64-10.61 11.739-2.766 4.111-4.916 8.615-6.407 13.33-2.722-.89-5.482-1.665-8.263-2.358zm-7.092-40.833c5.189 5.643 10.281 11.461 14.784 17.546-2.355-1.373-5.13-2.412-9.122-3.34 3.861 1.629 7.871 3.53 10.629 5.422 2.157 3.039 4.159 6.145 5.942 9.332l1.009-1.522c-4.755-8.416-13.601-18.847-23.242-27.438z" transform="matrix(.481124 0 0 .481124 182.7099 197.947)"/><path d="m37.723 0c-13.078 3.423-25.477 14.184-31.537 23.188-2.73 4.057-4.777 8.416-6.186 12.882 4.714 1.633 9.301 3.612 13.667 6.054.653.365 1.294.737 1.925 1.116 1.645-6.582 4-13.379 7.086-19-2.098 6.543-4.127 13.206-5.669 19.874 1.703 1.078 3.336 2.21 4.928 3.394 2.129-2.279 4.39-5.299 6.363-8.264-2.154 4.339-3.513 6.793-5.429 8.967 1.739 1.328 3.434 2.718 5.127 4.164 1.915-2.634 4.07-5.098 6.473-7.342-.041-4.122-.475-8.496-1.079-12.84-1.283-9.223.536-23.487 4.331-32.193z" transform="matrix(.481124 0 0 .481124 195.4069 206.1)"/><path d="m.907 0c-.66 5.259-.907 12.007-.566 15.485 1.546.398 8.335 1.586 11.707 2.537-.217-4.209-.207-8.727-.016-13.512-3.882-1.988-7.121-3.27-11.125-4.51zm12.704 18.479c1.644.498 3.279 1.049 4.9 1.651.793.295 1.582.602 2.364.921.92-3.128 2.064-6.22 3.41-9.262-3.678-2.454-7.54-4.816-11.507-6.893.203 4.51.422 9.077.833 13.583z" transform="matrix(.481124 0 0 .481124 214.3799 260.917)"/><path d="m27.653 35.283-27.653-34.766c13.987-.517 25.853 2.135 35.64 6.142-.981 3.706-1.641 7.467-1.938 11.263-5.238-3.437-12.229-7.159-18.961-10.19 5.963 3.611 13.176 8.233 18.837 12.238-.05 1.133-.065 2.268-.047 3.408-2.269.188-4.508.344-8.598.687 2.797.319 5.935.421 8.628.475.12 3.355.541 6.732 1.284 10.123-2.388.099-4.786.309-7.192.62z" transform="matrix(.481124 0 0 .481124 207.0309 268.717)"/><path d="m15.727 0c-11.192 16.938-15.727 34.46-11.853 51.564 4.39-.075 8.741.216 13.035.896-2.227-9.204-3.546-21.097-2.888-34.841.504 9.31 1.404 19.144 3.176 28.437.955-3.503 2.394-5.85 5.533-10.879-2.267 4.5-4.568 10.537-4.908 13.966.262 1.218.541 2.424.838 3.616 2.698.495 5.375 1.148 8.021 1.959 1.38-2.403 3.186-4.508 5.181-6.488-1.215 1.851-2.752 4.147-3.946 6.878 3.901 1.274 7.739 2.898 11.496 4.889.805.426 1.591.86 2.362 1.304-1.116-6.052-3.422-11.497-5.938-16.029-3.026-5.455-7.157-10.215-10.721-16.845-4.412-8.206-7.769-19.65-9.388-28.427z" transform="matrix(.481124 0 0 .481124 222.8509 260.558)"/></g><path d="m51.737 52.102c-6.669-2.332-14.176-5.429-17.293-8.6l-34.444-35.026c42.093-8.476 65.843 17.812 72.136 24.508 1.861 1.979 4.703 8.888 6.726 14.298-2.393.552-4.784 1.103-7.177 1.629-3.947-4.351-8.983-8.902-15.494-13.641-.236-3.98-.595-6.921-2.323-11.33.835 3.551 1.096 6.96.783 10.223-9.485-6.711-21.947-13.796-38.455-21.226 6.786 3.717 13.605 7.3 20.292 11.173-3.005.262-4.901.285-10.102.452 4.519.513 9.582.809 12.509.96 7.511 4.461 14.826 9.361 21.713 15.32-4.175.317-11.781.446-17.236.621 4.393.501 14.804.687 18.871.819 2.463 2.216 4.866 4.578 7.201 7.114-1.799.381-3.598.745-5.402 1.081-3.493.65-8.346 1.696-12.305 1.625z" fill="none" stroke="#161413" stroke-width=".1" transform="matrix(.481124 0 0 .481124 217.5779 282.986)"/><path d="m51.737 52.102c-6.669-2.332-14.176-5.429-17.293-8.6l-34.444-35.026c42.093-8.476 65.843 17.812 72.136 24.508 1.861 1.979 4.703 8.888 6.726 14.298-2.393.552-4.784 1.103-7.177 1.629-3.947-4.351-8.983-8.902-15.494-13.641-.236-3.98-.595-6.921-2.323-11.33.835 3.551 1.096 6.96.783 10.223-9.485-6.711-21.947-13.796-38.455-21.226 6.786 3.717 13.605 7.3 20.292 11.173-3.005.262-4.901.285-10.102.452 4.519.513 9.582.809 12.509.96 7.511 4.461 14.826 9.361 21.713 15.32-4.175.317-11.781.446-17.236.621 4.393.501 14.804.687 18.871.819 2.463 2.216 4.866 4.578 7.201 7.114-1.799.381-3.598.745-5.402 1.081-3.493.65-8.346 1.696-12.305 1.625z" fill="#f6ca00" transform="matrix(.481124 0 0 .481124 217.5779 282.986)"/><path d="m0 0c3.881 6.066 6.968 12.579 9.574 19.855 2.524.026 4.78.221 8.166.731-.325-4.77-.127-10.578.775-16.12-5.925-1.609-12.47-2.51-18.515-4.466z" fill="#f6ca00" transform="matrix(.481124 0 0 .481124 205.0929 258.452)"/><path d="m.947 0c-.947 3.891-.438 7.906.866 11.684 1.678 4.858 4.673 9.602 7.575 16.1 3.308 7.407 4.466 17.336 10.761 23.071 7.723 7.036 17.868 7.216 28.565 10.132 8.488 2.313 17.314 6.906 26.254 12.833.984-2.093 2.062-4.162 3.226-6.205-3.86-10.838-8.709-23.409-10.95-28.018-3.902-8.023-11.891-11.568-19.619-14.756-13.79-5.69-32.375-10.406-46.678-24.841z" fill="none" stroke="#161413" stroke-width=".1" transform="matrix(.481124 0 0 .481124 190.3739 230.242)"/><path d="m19.035 0c-9.718 6.665-15.599 16.072-19.035 25.255 3.373 1.317 6.769 2.555 10.151 3.844.683-6.473 1.985-13.179 4.105-18.923-1.053 6.453-2.027 13.006-2.584 19.506 1.339.519 2.673 1.05 4.004 1.599 4.049 1.67 7.649 3.31 10.763 5.239-.744-1.7-1.468-3.466-2.134-5.325-3.142-8.77-4.973-22.275-5.27-31.195z" fill="#f6ca00" transform="matrix(.481124 0 0 .481124 206.0899 226.308)"/><path d="m.947 0c-.947 3.891-.438 7.906.866 11.684 1.678 4.858 4.673 9.602 7.575 16.1 3.308 7.407 4.466 17.336 10.761 23.071 7.723 7.036 17.868 7.216 28.565 10.132 8.488 2.313 17.314 6.906 26.254 12.833.984-2.093 2.062-4.162 3.226-6.205-3.86-10.838-8.709-23.409-10.95-28.018-3.902-8.023-11.891-11.568-19.619-14.756-13.79-5.69-32.375-10.406-46.678-24.841z" fill="#d91521" transform="matrix(.481124 0 0 .481124 190.3739 230.242)"/><path d="m80.948 0c.947 3.89.568 8.04-.734 11.815-1.676 4.857-3.747 9.074-6.65 15.572-3.307 7.405-6.111 18.194-12.214 24.131-2.938 2.855-5.165 4.356-8.385 5.905-6.837 3.289-14.843 5.105-22.164 6.878-8.817 2.134-19.989 6.55-30.801 13.521 4.786-10.706 14.027-33.41 16.105-38.093 4.56-10.274 11.495-12.23 19.223-15.419 13.524-5.424 31.45-10.273 45.62-24.31z" fill="#d91521" transform="matrix(.481124 0 0 .481124 328.3289 230.306)"/><path d="m0 42.002c.32-4.811.392-10.004 3.019-13.001 2.326-2.655 6.753.18 9.179-2.009 2.215-1.999 1.192-10.411 5.805-15.827 1.879-2.204 5.925-.45 8.757-1.055 3.814-.813 4.273-4.992 7.494-5.379 3.135-.376 4.879 3.499 7.916 2.638 1.769-.501 3.166-2.526 4.962-4.241 1.796-1.718 3.995-3.128 5.686-2.409 2.467 1.05 2.941 3.55 2.602 6.014-.339 2.462-2.018 4.367-1.649 6.543.241 1.411 1.959 2.077 1.582 4.642-.396 2.683-2.886 2.243-2.886 5.809 0 3.597 2.335 7.749.775 10.437-1.736 2.995-6.289 5.236-10.447 7.388-1.275.66-5.444.014-6.809.741-2.24 1.193-3.98 2.687-5.703 3.978l-.357.001c-5.454.015-10.643-.112-15.997-1.137 4.571-3.563 9.184-7.639 14.109-12.585 4.838.354 12.652.088 17.286-.634-3.614.09-11.94.278-16.168-.498 6.079-6.208 12.655-13.752 20.215-23.273-4.687 5.066-9.247 10.213-13.967 15.242.347-3.272.599-5.649 1.004-9.554-1.183 4.2-1.807 8.357-2.579 11.221-3.476 3.654-7.056 7.232-10.849 10.658-.036-4.118.404-11.949.629-17.53-.83 4.408-1.786 15.011-2.205 18.932-2.954 2.592-6.042 5.086-9.318 7.453-.997-3.456-1.671-5.791-2.829-9.778.401 3.575 1.14 6.975 1.593 9.71-3.629-.779-7.239-1.634-10.85-2.497z" fill="#f6ca00" transform="matrix(.481124 0 0 .481124 303.4879 285.48)"/><path d="m24.941 4.077c-3.521 6.388-8.137 13.785-12.594 20.411-1.095-4.319-2.157-7.864-3.525-10.759 1.057 3.76 2.044 7.768 2.753 11.901-1.581 2.329-3.135 4.547-4.6 6.573-.034-.266-.084-.545-.155-.837-.598-2.462-2.043-3.029-3.068-4.994-.677-1.297-.204-5.578-.352-7.293-.239-2.783-1.004-4.97-3.4-5.606 7.197-3.853 15.015-6.996 22.734-8.864zm14.533-4.077c-.268 5.421-3.872 11.541-6.488 14.948-1.651 2.149 2.768 2.596 2.072 5.287-.26 1.011-2.19 1.569-1.959 3.41.334 2.656 3.038 2.292 2.736 5.659-.292 3.248-10.553 8.901-17.602 10.649-1.975.49-3.911 1.243-4.095 4.831-.157 3.079.692 5.665-2.589 7.282-.814.4-1.558.733-2.296 1.008-.099-1.854-.756-3.384-2.468-4.875-1.963-1.709-3.709-3.674-3.92-5.866 1.493-3.001 3.002-6.184 5.131-9.403 6.362-.857 13.06-1.118 18.717-2.28-6.148.257-12.264.779-17.706.806 2.17-3.13 4.804-7.016 7.445-11.209 2.218-.897 4.78-1.897 7.317-3.131-2.638.763-4.555 1.322-6.549 1.902 3.043-4.904 6.035-10.158 8.271-15.074 4.682-1.131 9.432-2.318 13.983-3.944z" fill="#f6ca00" transform="matrix(.481124 0 0 .481124 332.4229 259.904)"/><path d="m.68 46.075c-.477-3.104-.68-6.052-.172-8.025.447-1.727 3.511-2.744 4.525-4.53 1.47-2.594-1.238-9.418-.947-12.206.409-3.919 4.444-2.79 6.952-3.601 3.075-.993 1.284-4.566 3.673-5.738 2.759-1.354 2.112 2.161 4.97.38 1.269-.791 2.676-4.159 3.198-5.672.548-1.588 1.946-2.116 2.848-2.844 2.439-1.974 4.84-3.684 6.036-3.732 2.676-.107 3.152 1.417 3.381 4.073.213 2.473-.463 6.045.558 7.999 1.092 2.096 2.432 2.608 2.908 4.569.588 2.419-.738 3.568-2.188 5.355-4.132 5.091-.555 9.58 2.743 12.452 1.962 1.707 1.986 3.379 1.743 5.462-.588 5.021-4.449 8.28-7.342 9.231-1.263.416-2.789.504-4.354.568.365-1.42 1.316-3.062 1.544-4.728.454-3.302-.416-6.589-3.725-7.998-2.393-1.019-4.92.381-6.816 1.967 1.741-4.41 3.641-9.5 5.302-14.722 1.863-1.61 4.064-3.45 6.155-5.521-2.288 1.596-3.938 2.752-5.669 3.962 1.44-4.685 2.66-9.433 3.376-13.853-2.255 9.613-6.965 22.109-11.258 32.192-.417.446-.874.925-1.322 1.35-1.311-7.08-2.359-12.507-4.083-16.676 1.266 5.545 2.357 11.601 2.646 17.783-.08.038-.156.069-.228.089-1.635.463-4-3.132-7.628-2.696-3.71.445-4.553 3.945-6.826 5.11z" fill="#f6ca00" transform="matrix(.481124 0 0 .481124 316.2499 267.15)"/><path d="m0 43.549c.008-2.082.316-4.007 1.236-5.579 1.785-3.045 6.666-1.096 8.636-3.704 1.798-2.381-.794-10.45 2.716-16.638 1.43-2.519 5.43-2.036 8.096-3.164 3.591-1.517 1.54-1.536 4.535-2.774 3.402-1.404 3.773-3.791 5.905-4.786 1.229-.572 2.618 1.509 6.043-2.265 1.667-1.837 4.389-2.946 6.188-3.305 1.823-.363 3.94-1.334 4.061 1.146.118 2.414-1.005 9.941-2.576 13.328-1.139 2.458 3.868 2.56 3.694 5.333-.064 1.041-2.516 2.75-1.942 4.513.829 2.546 3.703 1.414 4.018 4.778.213 2.301-2.285 5.633-6.302 8.849-1.823 1.46-7.909 4.614-9.289 6.126-1.471 1.61-2.246 3.26-.947 5.112 2.162 3.085.165 4.902-2.749 7.105-.626-2.121-1.605-4.087-3.08-5.846-.531-.634-2.771-2.633-2.995-3.054-.204-.583-.031-3.158-.245-4.242-.148-.754-.396-1.417-.724-2.004 4.838-.773 12.089-2.197 15.449-3.519-5.056 1.11-12.123 2.058-16.438 2.207-.444-.448-.957-.828-1.525-1.147 4.742-7.54 16.175-20.996 21.059-26.483-5.156 4.772-18.756 18.546-22.422 25.871-.457-.163-.936-.3-1.435-.409-3.179-.698-9.029 1.111-12.108 2.109-2.309.748-4.592 1.577-6.859 2.442z" fill="#f6ca00" transform="matrix(.481124 0 0 .481124 350.7959 203.304)"/><path d="m.058 48.551c-.049-.65-.058-1.286-.017-1.902.219.8.386 1.455.017 1.902zm13.08-26.259c.38-2.637 1.323-5.001 3.035-6.017 3.349-1.993 5.282-1.468 8.081-3.102 3.177-1.853 1.634-3.874 3.611-5.148 1.137-.734 2.932.74 5.281-2.272 1.526-1.955 2.492-3.254 4.226-3.853 1.756-.607 4.265-1.9 4.18.582-.082 2.376-.17 7.6-.472 11.833-.193 2.699 3.387 1.744 3.594 4.513.077 1.038-1.59 4.525-.781 6.194 1.168 2.41 5.731-.637 5.291 3.654-.298 2.908-2.309 6.954-6.756 10.157-2.143 1.544-6.135 3.926-7.544 7.904-.791-1.417-1.854-2.63-3.158-3.742-.62-.529-4.161-2.851-4.492-3.278-.028-.257-.05-.512-.066-.768 4.354-2.068 10.062-5.023 12.68-7.017-3.731 2-8.791 4.262-12.756 5.74-.018-.263-.039-.522-.071-.778 2.53-8.893 6.205-20.265 8.071-25.704-1.412 3.101-3.643 8.682-5.79 14.652-1.372-2.342-2.334-3.863-4.098-6.887 1.216 3.261 2.549 5.911 3.598 8.294-.875 2.476-1.722 4.988-2.482 7.395-.097-.163-.204-.326-.327-.485-.624-.8-1.437-1.252-2.382-1.56-.246-.08-1.135-.3-1.374-.441-.927-1.708-1.45-3.414-2.515-5.146-1.301-2.119-3.926-4.72-6.584-4.72zm22.959 31.803c.078.467.037.921-.1 1.37l.009-.141c.025-.407.057-.815.091-1.229z" fill="#f6ca00" transform="matrix(.481124 0 0 .481124 354.8139 176.854)"/><path d="m6.132 51.035c-.196-.497-.349-.974-.445-1.421-.375-1.744 1.909-4.026 2.016-6.078.154-2.977-5.324-7.866-6.312-10.488-1.391-3.688 2.722-4.486 4.602-6.333 2.305-2.265-.896-4.659.715-6.776 1.861-2.446 2.857.985 4.613-1.886.781-1.275.797-3.857.585-5.442-.219-1.663.794-3.772 1.272-4.88.641-1.485 2.211-5.746 3.461-6.437 1.948-1.294 4.775 1.185 6.169 3.453 1.298 2.114 1.542 3.375 2.494 5.115.737 1.347 2.844.855 3.895 2.205.871 1.116.581 2.245.865 4.686.183 1.573 2.732 2.376 5.132 4.423 1.44 1.229 2.87 2.828 3.585 5.263.417 1.415.225 2.923.081 4.883-2.431.581-5.089 1.953-6.747 3.782-2.958 3.257-2.929.65-5.447 1.825-1.068.498-1.785 1.224-2.463 1.98-.08-1.521-.197-3.139-.341-4.812 1.453-2.354 3.425-5.218 5.147-8.364-2.169 2.727-3.583 4.511-5.301 6.68-.823-8.681-2.293-18.361-3.264-23.004.727 6.6 2.084 21.447 2.454 30.906-.558.531-1.202 1.011-2.06 1.367-1.043.43-1.914.848-2.672 1.702-.452.512-1.267.818-1.877 1.076-2.985 1.262-7.003.451-8.998 3.968-.48.846-.858 1.718-1.159 2.607z" fill="#f6ca00" transform="matrix(.481124 0 0 .481124 352.5589 188.039)"/><path d="m10.656 61.214c-2.428-1.973-4.404-4.477-5.864-5.863-3.304-3.136-1.217-.772-3.209-3.79-1.583-2.399.426-5.632 2.687-7.234 1.477-1.048 2.294-2.609 2.401-3.642.304-2.964-3.37-6.222-4.468-9.725-.946-3.019 1.005-9.163 7.462-10.209 1.919-.311 1.369-3.846 2.458-4.878 3.122-2.957 6.32 1.333 6.082-4.147-.073-1.675.58-3.729 1.111-4.812.712-1.451 2.492-5.631 3.774-6.259 1.097-.655 2.14.163 3.307 1.119.967.791 2.104 1.576 2.684 2.632 1.194 2.174 1.375 3.449 2.24 5.232.671 1.382 2.676 1.089 3.782 2.392.815.959.736 2.008.634 4.46-.065 1.581 3.01 2.772 5.305 4.934 1.377 1.297 2.332 1.972 2.928 4.438.293 1.21.146 3.049-.051 4.862-.825.028-1.666.3-2.43.577-.365.134-.728.277-1.096.404-2.34.809-3.629 2.597-5.092 4.473-1.837 2.353-2.804.548-4.82 1.849-2.719 1.753-1.198 3.738-3.54 5.104-.872.509-1.709.789-2.679 1.045l-.59.157c.519-3.543.935-8.23 1.24-13.074 1.768-2.214 4.258-4.997 6.379-7.96-2.492 2.458-4.272 4.215-6.274 6.196.433-7.602.591-15.292.434-19.29-.337 5.875-1.271 18.474-2.322 27.856-3.086-3.244-7-7.026-10.014-8.509 3.664 3.061 7.277 7.119 9.801 10.347-.215 1.797-.432 3.436-.649 4.836-1.153.359-2.206.784-3.419 1.504-2.618 1.556-3.695 4.965-4.032 8.156-.072.042-.144.083-.216.13-1.73 1.039-3.062 4.544-3.944 6.689z" fill="#f6ca00" transform="matrix(.481124 0 0 .481124 353.0649 161.66)"/><path d="m.13 38.215c-.108-1.318-.13-2.325-.021-2.8.595-2.623 4.17-2.965 5.977-5.457 1.589-2.191.375-4.708-.948-7.877-1.702-4.073-3.763-9.051-2.112-13.974.408-3.921 2.728-.678 5.234-1.489.789-.256 8.471-3.503 14.924-5.264-1.348 6.323-2.934 12.703-4.666 19.143-2.993-3.79-7.444-8.78-10.691-11.408 2.538 2.71 8.21 9.227 10.295 12.868-.948 3.485-1.934 6.988-2.951 10.51-4.99 1.964-10.034 3.74-15.03 5.744zm23.209-36.903c3.067-.827 5.842-1.312 7.44-.96 6.424 1.412 4.193 6.45 4.919 8.529.559 1.604 4.228 2.906 5.983 8.611-5.724 4.888-12.147 8.659-19.052 11.828-1.878.861-3.771 1.666-5.675 2.436.361-1.441.719-2.92 1.079-4.442 4.03-2.688 11.337-8.002 14.541-11.578-2.778 2.351-10.229 7.628-14.084 9.629.829-3.589 1.654-7.411 2.481-11.511 1.799-2.208 4.318-4.913 6.602-7.977-2.53 2.401-4.179 3.972-6.185 5.883.649-3.299 1.302-6.776 1.951-10.448z" fill="#f6ca00" transform="matrix(.481124 0 0 .481124 344.9189 222.78)"/><path d="m70.599 0-20.189 46.659-50.41 4.941 37.903 33.852-10.898 49.757 43.594-25.816 43.595 25.816-10.898-49.757 37.903-33.852-50.41-4.941z" fill="#d91521" transform="matrix(.481124 0 0 .481124 245.2659 74.998)"/><path d="m45.113 0-1.306 44.549-43.807-12.261 42.606 15.903-24.925 36.325 27.543-34.487 26.48 33.645-23.758-35.691 40.176-14.538-41.059 11.418z" fill="#f6ca00" transform="matrix(.481124 0 0 .481124 257.7989 88.311)"/><path d="m0 11.906c11.682 9.803 22.034 20.321 35.225 29.508 2.538 1.767 3.064 3.032 6.196 1.978 9.598-3.228 25.108-5.624 37.45-5.694 12.733-.073 25.893 2.172 38.415 5.694 3.638 1.023 5.107-.576 7.881-2.685 11.923-9.069 22.748-19.526 34.173-29.224-6.007.017-11.185-.116-16.951-1.287-18.125-3.68-36.618-10.196-63.154-9.898-26.537.299-49.367 7.447-64.002 10.172-6.056 1.128-11.225 2.106-15.233 1.436z" fill="#d91521" transform="matrix(.481124 0 0 .481124 241.2269 303.122)"/><path d="m31.734 76.253c26.893-10.514 52.862-23.356 78.347-36.89 6.134-3.258 12.242-6.564 18.332-9.904l5.323-24.301-5.098-4.553c-6.473 3.33-12.903 6.696-19.29 10.035-20.926 10.94-41.906 22.221-63.359 32.081-4.77 2.192-10.518 4.781-16.594 7.208-9.882 3.944-19.609 7.293-29.395 8.749.18 21.33 1.21 42.013 2.839 63.278.255 3.315.524 6.625.801 9.937 1.804 3.352 3.767 6.598 5.921 9.625 4.175-3.138 8.613-5.673 12.994-7.208l3.653-1.28-1.254 3.661c-2.958 8.64-3.428 23.564-1.442 32.475 1.534 6.885 2.907 14.796 2.221 21.85-.067.699-.15 1.394-.248 2.091 4.116-2.477 8.422-4.415 12.653-5.557-7.03-33.819-8.968-68.809-11.557-103.102l-.453-6.003zm96.25 319.693c3.602-.828 7.21-1.642 10.826-2.364 5.113-1.019 10.236-1.903 15.382-2.593-50.91-49.7-92.237-115.6-111.155-183.222-1.342-4.799-2.555-9.631-3.655-14.489-2.8 8.373-4.064 20.006-2.959 27.95.506 3.64.948 7.551 1.076 11.451 1.223-1.033 2.505-2.011 3.848-2.931l2.826-1.939.114 3.425c.313 9.393 1.998 21.794 5.162 30.623.993 2.769 2.189 5.433 3.422 8.077 1.213.947 2.332 1.971 3.35 3.098 2.696 2.978 4.338 6.868 6.296 11.866 1.872 4.774 5.848 15.178 7.628 20.196l4.798-7.537.845 4.584c1.59 8.606 5.131 20.319 9.195 27.878 3.186 5.925 7.485 11.012 10.71 16.823 3.15 5.678 5.458 11.82 6.405 18.198 7.05 4.362 12.814 9.536 18.66 15.755 2.249 2.394 5.173 9.555 7.226 15.151zm31.019 35.727c5.563 4.778 11.187 9.493 16.881 14.083 5.865-4.521 11.629-9.171 17.309-13.922-5.949-.867-11.947-1.34-17.905-1.307-4.968.029-10.613.417-16.285 1.146zm64.953-35.835c.288-4.703.447-10.348 3.465-13.793 2.984-3.404 7.845-.821 9.333-2.165.589-.531 1.247-4.727 1.419-5.601.717-3.635 1.763-7.171 4.215-10.05 2.436-2.857 5.893-1.429 8.781-1.552-.516-3.327-.738-6.596-.141-8.913.714-2.764 3.784-3.357 4.711-4.987.894-1.579-1.457-8.835-1.182-11.473.156-1.497.759-2.824 2.013-3.708 2.13-1.5 4.157-.816 6.229-1.486 1.499-.485.196-4.054 3.424-5.638 1.03-.515 2.517-.57 3.242.099.252.232.49.395.71.496l.082-.096c.578-.66 1.229-1.095 1.909-1.378l1.269-2.767c.534-2.057 1.355-4.11 2.295-6.164 2.443-5.464 4.758-11.005 7.07-16.526 2.998-7.159 5.888-14.477 9.034-21.564 4.249-9.574 9.86-12.123 18.375-15.633-.156-1.733-.187-3.171-.004-3.977.841-3.706 4.616-3.838 6.289-6.143 1.101-1.521-.545-4.575-1.161-6.05-2.011-4.813-3.886-9.886-2.223-15.104.173-1.364.667-2.745 2.074-3.274 1.79-.671 3.414.73 4.424.403.864-.288 1.774-.668 2.663-1.031-.057-2.625.263-5.171 1.487-7.261 2.288-3.906 7.55-2.286 8.758-3.886.478-.633.333-4.877.337-5.769.009-1.748.095-3.489.378-5.185-.752-1.379-1.317-2.705-1.574-3.899-.597-2.777 1.879-4.684 1.977-6.569.093-1.812-5.258-7.247-6.193-9.729-.53-1.405-.586-2.867.139-4.217.823-1.532 2.042-2.175 3.223-2.886-.301-2.335-.246-4.621.593-6.643 1.25-3.013 4.422-3.395 6.462-4.027.146-1.048.085-2.394-.007-3.079-.212-1.604.29-3.173.897-4.658-2.316-1.833-4.169-4.207-6.392-6.315-.531-.505-1.965-1.678-2.371-2.265-.376-.544-.723-1.262-1.111-1.852-2.264-3.431.226-7.718 3.167-9.801.643-.455 1.535-1.481 1.619-2.302.139-1.357-1.795-4.024-2.504-5.159-.749-1.199-1.462-2.456-1.888-3.812-.742-2.368-.091-5.24 1.12-7.343 1.656-2.877 4.396-4.67 7.634-5.248.538-.939.228-3.057 1.667-4.422 1.108-1.049 2.39-1.595 3.908-1.674.395-.021 1.086.047 1.575.048.038-.364.024-.86.014-1.076-.078-1.808.509-4.106 1.302-5.721.951-1.935 2.533-5.879 4.442-7.015.323-12.629.468-25.264.859-37.899-15.204-2.328-31.243-8.735-45.119-14.961-18.086-8.116-35.71-17.531-53.189-26.879-10.192-5.451-20.376-10.94-30.642-16.259l-5.774 5.158 5.326 24.315c4.471 2.39 8.945 4.773 13.426 7.142 14.854 7.859 29.769 15.616 44.923 22.884 12.757 6.12 25.732 12.025 39.119 16.64l5.804 2-.328 6.13c-2.206 41.205-6.19 82.788-17.3 122.66-20.083 72.07-59.06 130.769-109.479 183.88 4.055.545 8.109 1.235 12.187 2.056 4.429.89 8.823 1.924 13.213 2.973z" fill="#d91521" transform="matrix(.481124 0 0 .481124 194.8429 115.026)"/><path d="m0 49.421c2.982 39.77 5.243 81.503 16.01 119.992 19.195 68.615 62.242 135.575 114.637 184.612 2.758-.174 5.523-.279 8.298-.31 3.436-.04 6.833.038 10.209.224 52.036-53.52 92.208-112.335 112.555-185.354 10.76-38.615 14.694-79.173 16.87-119.097-13.208-4.646-26.247-10.567-38.846-16.61-15.266-7.324-30.312-15.146-45.277-23.064-1.975-1.045-3.951-2.092-5.924-3.141l5.743 26.221-55.55-32.894-55.55 32.894 5.724-26.132c-3.59 1.946-7.187 3.876-10.794 5.792-25.36 13.47-51.37 26.329-78.105 36.867z" fill="#d91521" transform="matrix(.481124 0 0 .481124 212.4879 132.181)"/><path d="m0 49.421c2.982 39.77 5.243 81.503 16.01 119.992 8.647 30.91 22.136 61.483 39.138 90.234v-235.203c-18.045 9.073-36.417 17.594-55.148 24.977zm111.695 285.65c6.156 6.57 12.483 12.899 18.952 18.954 2.758-.174 5.523-.279 8.298-.31 3.436-.04 6.833.038 10.209.224 5.685-5.847 11.227-11.759 16.618-17.744v-320.179l-27.047-16.016-27.03 16.006zm110.624-74.715c16.74-28.206 30.122-58.514 39.39-91.771 10.76-38.615 14.694-79.173 16.87-119.097-13.208-4.646-26.247-10.567-38.846-16.61-5.834-2.799-11.637-5.669-17.414-8.591z" fill="#293484" transform="matrix(.481124 0 0 .481124 212.4879 132.181)"/><path d="m114.508 2.382-51.792 26.672c-8.239 4.181-16.508 8.307-24.89 12.193-11.658 5.404-24.025 10.691-36.419 14.127l-.906.25-.501-1.81.905-.251c12.292-3.406 24.568-8.661 36.131-14.022 8.361-3.876 16.609-7.99 24.824-12.16l53.169-27.381z" fill="#f6ca00" transform="matrix(.481124 0 0 .481124 203.0169 121.281)"/><path d="m0 0 55.005 28.326c8.217 4.171 16.464 8.285 24.827 12.161 11.561 5.361 23.838 10.616 36.131 14.022l.904.251-.501 1.81-.905-.25c-12.395-3.436-24.762-8.723-36.419-14.127-8.382-3.886-16.653-8.012-24.893-12.194l-53.628-27.617z" fill="#f6ca00" transform="matrix(.481124 0 0 .481124 300.0059 120.826)"/><path d="m1.884.94c.12 21.447 2.026 42.723 4.002 64.04-.602.293-1.202.602-1.8.926-2.006-21.623-3.959-43.201-4.081-64.957l-.005-.939 1.879-.01z" fill="#f6ca00" transform="matrix(.481124 0 0 .481124 200.8329 149.234)"/><path d="m4.136.949c-.082 14.689-.998 29.294-2.203 43.889-.669.144-1.315.34-1.933.588 1.231-14.794 2.174-29.599 2.258-44.486l.005-.94 1.878.01z" fill="#f6ca00" transform="matrix(.481124 0 0 .481124 356.3459 149.234)"/><path d="m104.062 1.497-.844 2.453c-.607-.161-1.27-.261-1.961-.073l1.027-2.988.305-.889 1.776.608zm-5.133 14.583c-3.139 8.639-6.457 17.222-10.066 25.673-.972.522-1.895 1.076-2.773 1.683 4.455-10.236 8.462-20.677 12.224-31.188.069 1.289.291 2.568.615 3.832zm-38.35 78.395c-1.649 2.644-3.328 5.272-5.039 7.878-.082-.065-.168-.134-.255-.213-.367-.339-.928-.492-1.529-.493 4.359-6.622 8.507-13.38 12.474-20.244-1.529 3.623-3.077 7.243-4.68 10.828-.343.748-.669 1.495-.971 2.244zm-18.886 27.574c-12.34 16.579-25.594 32.351-39.572 47.57-.706-.158-1.413-.314-2.121-.468 14.621-15.87 28.456-32.342 41.284-49.704.172.93.325 1.824.409 2.602z" fill="#f6ca00" transform="matrix(.481124 0 0 .481124 297.8899 223.005)"/><path d="m0 0 .585 1.674c-.164.135-.325.271-.486.408-.024-.693-.058-1.389-.099-2.082zm30.811 69.216c.823 1.474 1.653 2.942 2.492 4.406l-.558.875c-.501-1.414-1.179-3.258-1.934-5.281zm13.084 21.931c3.46 5.415 7.054 10.744 10.797 15.97 14.113 19.701 29.522 38.242 45.918 56.029-.715.145-1.429.294-2.143.445-16.164-17.59-31.364-35.922-45.301-55.381l-.317-.443c-1.852-2.702-3.695-5.422-5.266-8.345-1.297-2.413-2.543-5.252-3.688-8.275z" fill="#f6ca00" transform="matrix(.481124 0 0 .481124 212.8369 225.972)"/><path d="m7.714 0c4.259 0 7.715 3.455 7.715 7.714 0 4.26-3.456 7.715-7.715 7.715-4.26 0-7.714-3.455-7.714-7.715 0-4.259 3.454-7.714 7.714-7.714z" fill="#161413" transform="matrix(.481124 0 0 .481124 198.1249 144.876)"/><path d="m5.836 0c3.222 0 5.836 2.614 5.836 5.836 0 3.223-2.614 5.836-5.836 5.836-3.223 0-5.836-2.613-5.836-5.836 0-3.222 2.613-5.836 5.836-5.836z" fill="#f6ca00" transform="matrix(.481124 0 0 .481124 199.0289 145.779)"/><path d="m7.715 0c4.259 0 7.714 3.456 7.714 7.715s-3.455 7.714-7.714 7.714c-4.26 0-7.715-3.455-7.715-7.714s3.455-7.715 7.715-7.715z" fill="#161413" transform="matrix(.481124 0 0 .481124 229.1159 131.203)"/><path d="m5.836 0c3.221 0 5.835 2.614 5.835 5.836s-2.614 5.836-5.835 5.836c-3.223 0-5.836-2.614-5.836-5.836s2.613-5.836 5.836-5.836z" fill="#f6ca00" transform="matrix(.481124 0 0 .481124 230.0199 132.107)"/><path d="m7.713 0c4.26 0 7.714 3.455 7.714 7.714 0 4.26-3.454 7.715-7.714 7.715-4.259 0-7.713-3.455-7.713-7.715 0-4.259 3.454-7.714 7.713-7.714z" fill="#161413" transform="matrix(.481124 0 0 .481124 353.6349 144.876)"/><path d="m5.836 0c3.222 0 5.836 2.614 5.836 5.836 0 3.223-2.614 5.836-5.836 5.836s-5.836-2.613-5.836-5.836c0-3.222 2.614-5.836 5.836-5.836z" fill="#f6ca00" transform="matrix(.481124 0 0 .481124 354.5379 145.779)"/><path d="m7.714 0c4.26 0 7.715 3.456 7.715 7.715s-3.455 7.714-7.715 7.714c-4.259 0-7.714-3.455-7.714-7.714s3.455-7.715 7.714-7.715z" fill="#161413" transform="matrix(.481124 0 0 .481124 322.5659 131.203)"/><path d="m5.836 0c3.223 0 5.836 2.614 5.836 5.836s-2.613 5.836-5.836 5.836c-3.221 0-5.836-2.614-5.836-5.836s2.615-5.836 5.836-5.836z" fill="#f6ca00" transform="matrix(.481124 0 0 .481124 323.4699 132.107)"/><path d="m68.897 13.573 34.172-7.78 3.212 10.297 16.349-13.449 36.298-2.641 23.92 18.134-1.835 88.273 1.586 24.212-20.229 20.675-41.982 1.894-9.209-7.872-1.588 25.921-40.693 4.066-11.341-14.431-19.997 3.966-37.56-18.571 37.177-125.297z" fill="#161413" transform="matrix(.481124 0 0 .481124 193.6019 148.726)"/><path d="m36.24 102.934 10.287-1.548 20.202-88.533 27.472-6.254-15.24 90.374 5.109-.329 11.954-75.355 22.264-18.676 34.176-2.613 20.088 15.587-.03 29.886-32.41.176.35-20.45-13.419.629-7.473 68.066 19.16-.809 1.76-30.639 32.286-1.063-.79 39.316-24.252 19.137-44.41 2.948-15.936-13.428-4.904 37.099-32.354 2.571 2.941-20.42-53.071 9.083 34.659-117.693 23.72-5.225z" fill="#f6ca00" transform="matrix(.481124 0 0 .481124 196.1549 150.583)"/><path d="m32.903 19.179-32.903 111.727 52.433-8.973-2.991 20.761 26.568-2.111 5.279-39.94 19.002 16.011 42.404-2.815 22.521-17.771.705-35.013-26.746.879-1.758 30.615-24.986 1.055 8.094-73.722 19.003-.88-.353 20.058h26.393l.176-24.984-18.299-14.076-32.374 2.463-20.41 17.067-12.141 76.538-10.909.704 15.132-89.734-21.642 4.927-20.234 88.678-16.363 2.463 21.817-87.447z" fill="#fff" transform="matrix(.481124 0 0 .481124 198.0699 152.143)"/><path d="m43.037 26.514 10.036-24.441 37.466 6.691-4.294 12.32 12.292-10.243 45.105 12.622 39.339 124.174-31.931 18.286-48.638-7.659-47.477-5.112-7.241-12.645-1.474 12.237-46.22-1.343 1.753-151.401 39.591 1.563z" fill="#161413" transform="matrix(.481124 0 0 .481124 278.3329 148.512)"/><path d="m34.819 38.963 15.013-36.568 30.146 5.384-16.835 48.306 30.519 49.628-14.868-82.076 15.068-12.556 41.249 11.542 36.766 116.057-29.164-6.33-5.744-23.15-10.478-.912 4.268 22.59-30.932-4.62-33.751-2.935-28.515-49.457 2.963 47.548-38.863-.827-1.661-120.587 32.26 1.274zm73.785-2.955 10.56 43.927 11.518 1.596-12.897-42.884z" fill="#f6ca00" transform="matrix(.481124 0 0 .481124 281.0099 150.393)"/><path d="m0 0 1.583 114.895 33.079.703-3.52-56.479 33.783 58.591 32.375 2.815 27.095 4.047-4.222-22.346 16.187 1.409 5.807 23.4 22.697 4.927-34.838-109.968-38.357-10.733-12.668 10.557 17.243 95.189-39.061-63.519 16.187-46.45-24.633-4.399-18.475 46.803-3.518-48.386zm101.874 29.032 12.14 50.497 17.772 2.463-14.605-48.561z" fill="#fff" transform="matrix(.481124 0 0 .481124 282.3849 151.804)"/><path d="m64.513 0c35.624 0 64.514 28.89 64.514 64.514 0 35.623-28.89 64.514-64.514 64.514s-64.513-28.891-64.513-64.514c0-35.624 28.889-64.514 64.513-64.514z" fill="#fff" transform="matrix(.481124 0 0 .481124 248.4679 224.381)"/><path d="m65.453 0c36.143 0 65.453 29.311 65.453 65.453 0 36.143-29.31 65.453-65.453 65.453-36.142 0-65.453-29.31-65.453-65.453 0-36.142 29.311-65.453 65.453-65.453zm45.375 51.467-23.472 8.308c-.93 8.257-3.444 16.265-7.851 23.972l14.451 19.89c6.082-.21 12.445-2.354 18.564-6.74 5.639-8.423 9.081-18.443 9.495-29.238-2.299-6.924-6.15-12.473-11.187-16.192zm-23.961 6.821 23.395-8.282c1.785-5.884 1.931-12.351-.359-19.592-6.402-8.111-14.973-14.43-24.842-18.074-7.278.041-13.734 1.973-18.825 5.591v25.494c7.664 3.409 14.59 8.267 20.631 14.863zm5.659 46.043-14.427-19.857c-7.923 1.587-16.083 1.67-24.526-.033l-14.578 20.64c2.129 5.628 5.863 10.756 11.905 15.08 4.645 1.234 9.52 1.897 14.553 1.897 5.325 0 10.477-.74 15.363-2.116 5.934-4.355 9.788-9.566 11.71-15.611zm-54.571-.49 14.289-20.231c-4.143-7.267-6.841-15.273-7.807-24.161l-24.256-7.882c-4.93 3.715-8.871 8.873-11.284 16.106.429 11.092 4.053 21.365 9.974 29.927 6.126 4.255 12.691 6.389 19.084 6.241zm-17.454-53.815 24.683 8.02c5.39-5.839 11.822-10.636 19.486-14.2v-25.741c-5.065-3.549-11.204-5.705-18.848-5.756-9.866 3.649-18.433 9.968-24.834 18.082-2.197 6.921-2.35 13.647-.487 19.595zm90.268-21.035c3.426.897 6.599 2.238 9.437 4.142-8.746-14.783-23.306-25.718-40.531-29.656 2.602 2.332 5.028 4.967 6.691 7.684 9.635 3.715 18.031 9.922 24.403 17.83zm18.014 30.851c-1.417 3.196-3.173 6.316-5.245 8.737-.56 10.563-3.943 20.378-9.403 28.71.204 3.524-.089 6.942-1.016 10.218 9.897-11.208 15.909-25.929 15.909-42.054 0-1.89-.084-3.764-.245-5.611zm-38.409 64.11c-3.477-.357-6.991-1.064-9.933-2.285-4.784 1.273-9.805 1.955-14.988 1.955-4.985 0-9.821-.631-14.437-1.81-3.28 1.333-6.619 2.157-10.03 2.331 7.533 3.144 15.796 4.884 24.467 4.884 8.846 0 17.269-1.808 24.921-5.075zm-72.254-16.07c-.78-3.402-1.241-6.946-1.034-10.118-5.692-8.503-9.206-18.588-9.731-29.457-2.242-2.737-4.016-5.679-5.191-8.882-.186 1.984-.286 3.995-.286 6.028 0 16.306 6.147 31.176 16.242 42.429zm-7.198-75.115c3.026-1.754 6.286-3.249 9.385-3.987 6.407-7.877 14.832-14.045 24.487-17.717 1.911-2.975 4.166-5.571 6.852-7.676-17.262 3.825-31.884 14.668-40.724 29.38z" fill="#161413" transform="matrix(.481124 0 0 .481124 248.0159 223.929)"/><path d="m9.777 22.482v-3.831l2.934-.007c1.785-.005 3.345-.781 3.345-3.308v-8.393c0-2.163-1.987-3.177-3.83-3.177h-2.479v-3.766h-3.434v3.766h-2.529c-1.787 0-3.784 1.004-3.784 3.177v8.476c0 2.464 1.694 3.232 3.503 3.232h2.81v3.831zm0-5.832v-10.866l1.244-.006c.904-.003 1.572.087 1.572 1.592v8.072c0 .938-.618 1.193-1.225 1.197zm-3.464-10.866v10.866l-1.471.001c-.795 0-1.378-.443-1.378-1.209v-8.238c0-1.084.542-1.419 1.381-1.419z" fill="#f6ca00" fill-rule="nonzero" transform="matrix(.481124 0 0 .481124 275.6799 307.222)"/><path d="m0 2.559c1.212-.256 2.492-.579 3.242-2.559l2.261.324 5.638 22.451-3.587-.482-4.297-17.683-2.761.028z" fill="#f6ca00" transform="matrix(.481124 0 0 .481124 202.5269 242.568)"/><path d="m2.898 4.184c1.484-.47 3.138-1.185 4.896-3.757l2.228-.427-6.648 22.247-3.374.688 4.884-17.11-2.68.625z" fill="#f6ca00" transform="matrix(.481124 0 0 .481124 351.1129 242.364)"/><path d="m2.992 4.182c1.486-.469 3.145-1.183 4.915-3.757l2.23-.425-6.76 22.247-3.377.686 4.97-17.109-2.683.625z" fill="#f6ca00" transform="matrix(.481124 0 0 .481124 343.7439 245.107)"/><path d="m9.75 5.776 3.576 13.775c.779 2.997-.834 4.06-2.727 3.848l-1.452-.163c-2.801-.313-4.571-3.07-4.896-4.391l-.473-1.922 3.444.713.469 1.886c.148.599.804 1.378 1.673 1.533.657.116 1.2-.109.92-1.225l-1.251-4.992c-.527.171-1.247.136-2.04.034-2.909-.373-4.11-1.82-4.773-4.637l-1.531-6.488c-.689-2.922.855-3.747 2.984-3.563l.941.082c2.968.257 4.394 2.65 5.136 5.51zm-1.546 6.123-2.113-7.778c-.191-.711-.567-1.423-1.565-1.579-1.122-.176-.868.822-.711 1.427l1.933 7.497c.219.847.845 1.256 1.399 1.351.459.081 1.417.406 1.057-.918z" fill="#f6ca00" transform="matrix(.481124 0 0 .481124 210.2669 245.098)"/><path d="m10.933 0 3.534 21.841-3.481.314-3.166-19.556-3.965.347 3.176 19.59-3.481.315-3.55-21.887z" fill="#f6ca00" transform="matrix(.481124 0 0 .481124 265.2759 308.027)"/><path d="m6.572.388-3.489-.388-3.083 22.213 3.49.389 1.605-11.571 2.638 11.977 3.489.39-2.75-12.209 5.965-9.741-3.489-.388-5.819 9.722z" fill="#f6ca00" transform="matrix(.481124 0 0 .481124 286.9799 307.721)"/></svg>