<svg clip-rule="evenodd" fill-rule="evenodd" stroke-linejoin="round" stroke-miterlimit="2" viewBox="0 0 560 400" xmlns="http://www.w3.org/2000/svg"><g fill-rule="nonzero"><path d="m254.105 214.055v.055c0 7.426-6.111 13.537-13.537 13.537-.019 0-.037 0-.055 0h-1.178c-.018 0-.036 0-.054 0-7.427 0-13.538-6.111-13.538-13.537 0-.018.001-.036.001-.055v-28.089c0-.018-.001-.036-.001-.054 0-7.427 6.111-13.537 13.538-13.537h.054 1.178c.061-.001.122-.002.183-.002 7.356 0 13.41 6.054 13.41 13.411 0 .061-.001.121-.001.182v4.812c.008.046.012.092.012.139 0 .428-.352.779-.779.779-.047 0-.093-.004-.139-.012h-6.751c-.046.008-.093.012-.139.012-.428 0-.78-.351-.78-.779 0-.047.005-.093.013-.139v-4.83c0-.018 0-.036 0-.055 0-2.748-2.262-5.01-5.011-5.01-.018 0-.036 0-.054 0h-1.178c-.018 0-.037 0-.055 0-2.749 0-5.011 2.262-5.011 5.01 0 .019.001.037.001.055v28.089c.039 2.764 2.301 5.027 5.065 5.065h1.178c.015.001.03.001.045.001 2.754 0 5.02-2.266 5.02-5.02 0-.015 0-.03 0-.046v-4.82c0-.634.302-.952.906-.952h6.751c.604 0 .906.318.906.952z" fill="#005697"/><path d="m286.661 173.679c0 .046-1.504 4.531-4.675 12.976l-5.292 15.902c-.094.233-.135.484-.118.734v22.952c.008.046.013.092.013.139 0 .427-.352.779-.78.779-.046 0-.093-.004-.139-.012h-6.751c-.046.008-.092.012-.139.012-.427 0-.779-.352-.779-.779 0-.047.004-.093.012-.139v-22.916c-.021-.273-.069-.543-.145-.806-.434-1.124-2.21-7.612-5.309-15.939l-4.667-12.903c-.031-.072-.047-.149-.047-.228 0-.318.262-.58.58-.58.016 0 .032.001.047.002h7.249c.552-.054 1.073.281 1.25.806l4.857 14.888c.091.154.199.308.399.308.181-.011.337-.135.389-.308l4.984-14.888c.151-.508.64-.845 1.169-.806h7.249c.037-.008.076-.011.114-.011.318 0 .58.261.58.58 0 .082-.017.163-.051.237z" fill="#005697"/><path d="m320.495 193.396v.055c0 7.426-6.111 13.537-13.537 13.537-.018 0-.036 0-.055 0h-5.355c-.046-.009-.092-.013-.139-.013-.428 0-.779.352-.779.78 0 .046.004.093.012.139v18.349c.009.046.013.092.013.139 0 .427-.352.779-.779.779-.047 0-.094-.004-.14-.012h-6.732c-.046.008-.093.012-.14.012-.427 0-.779-.352-.779-.779 0-.047.004-.093.013-.139v-52.554c-.009-.046-.013-.093-.013-.14 0-.427.352-.779.779-.779.047 0 .094.004.14.012h13.872c.061 0 .122-.001.183-.001 7.356 0 13.41 6.054 13.41 13.411 0 .06 0 .121-.001.182zm-8.517 0v-7.013c0-.015 0-.03 0-.045 0-2.754-2.266-5.02-5.02-5.02-.015 0-.03 0-.046 0h-5.355c-.604 0-.906.317-.906.951v15.241c0 .634.302.951.906.951h5.355c.019.001.037.001.055.001 2.749 0 5.011-2.262 5.011-5.011 0-.018 0-.036 0-.055z" fill="#005697"/><path d="m355.625 226.243c.154.598-.155.906-.589.906h-6.76c-.529-.001-.986-.385-1.078-.906l-5.437-20.243c-.122-.548-.626-.933-1.187-.906h-3.706c-.643 0-.96.299-.96.906v20.243c.008.046.012.092.012.139 0 .427-.351.779-.779.779-.047 0-.093-.004-.139-.012h-6.751c-.046.008-.092.012-.139.012-.428 0-.779-.352-.779-.779 0-.047.004-.093.012-.139v-52.618c-.001-.015-.001-.03-.001-.045 0-.433.356-.789.788-.789.04 0 .08.004.119.01h13.873c3.619-.062 7.104 1.387 9.613 3.995 2.586 2.537 4.019 6.029 3.96 9.65v5.754c0 4.06-1.785 7.633-5.355 10.719-.354.214-.555.613-.516 1.024 0 .29.906 4.232 2.79 10.547zm-8.328-33.979v-6.017c.001-.018.001-.036.001-.054 0-2.759-2.27-5.029-5.029-5.029-.012 0-.024 0-.037 0h-5.436c-.635 0-.952.302-.952.906v14.316c-.006.042-.009.084-.009.127 0 .462.38.842.843.842.039 0 .079-.003.118-.008h5.436.046c2.754 0 5.02-2.266 5.02-5.02 0-.021 0-.042-.001-.063z" fill="#005697"/><path d="m389.785 226.243c.008.046.012.092.012.139 0 .427-.351.779-.779.779-.047 0-.093-.004-.139-.012h-25.199c-.046.008-.093.012-.14.012-.427 0-.779-.352-.779-.779 0-.047.004-.093.013-.139v-52.482c-.009-.046-.013-.093-.013-.139 0-.428.352-.78.779-.78.047 0 .094.005.14.013h25.253c.046-.008.093-.013.139-.013.428 0 .78.352.78.78 0 .046-.005.093-.013.139v6.75c.008.046.013.093.013.14 0 .427-.352.779-.78.779-.046 0-.093-.004-.139-.012h-16.69c-.635 0-.952.302-.952.906v12.567c0 .604.317.906.952.906h13.138c.589 0 .906.318.906.907v6.623c0 .604-.302.906-.906.906h-13.138c-.635 0-.952.302-.952.906v12.586c0 .604.317.906.952.906h16.663c.046-.008.092-.012.139-.012.428 0 .779.351.779.779 0 .047-.004.093-.012.139z" fill="#005697"/><path d="m424.751 214.055v.055c0 7.426-6.11 13.537-13.537 13.537-.018 0-.036 0-.054 0h-1.178c-.018 0-.037 0-.055 0-7.426 0-13.537-6.111-13.537-13.537 0-.018 0-.036 0-.055v-3.742c0-.634.302-.951.906-.951h6.751c.604 0 .906.317.906.951v3.742c.039 2.764 2.301 5.027 5.065 5.066h1.178c1.361.035 2.676-.501 3.624-1.477.967-.955 1.499-2.267 1.468-3.625.135-2.085-.678-4.124-2.211-5.545-2.301-1.951-6.442-5.515-12.422-10.692-3.429-2.97-5.336-7.337-5.183-11.87 0-.024 0-.049 0-.073 0-7.416 6.102-13.519 13.519-13.519h.072 1.178c.061-.001.122-.001.183-.001 7.356 0 13.41 6.054 13.41 13.41 0 .061 0 .122-.001.183v3.96c0 .634-.302.951-.906.951h-6.787c-.604 0-.906-.317-.906-.951v-3.924c0-.018 0-.036 0-.055 0-2.748-2.262-5.01-5.011-5.01-.018 0-.036 0-.054 0h-1.178c-.018 0-.037 0-.055 0-2.749 0-5.011 2.262-5.011 5.01 0 .019.001.037.001.055-.104 2.062.733 4.063 2.274 5.437l12.332 10.719c3.454 2.989 5.375 7.387 5.219 11.951z" fill="#005697"/><path d="m459.935 214.055v.055c0 7.426-6.11 13.537-13.537 13.537-.018 0-.036 0-.054 0h-1.115c-.018 0-.036 0-.054 0-7.427 0-13.537-6.111-13.537-13.537 0-.018 0-.036 0-.055v-3.742c0-.634.302-.951.906-.951h6.75c.604 0 .906.317.906.951v3.742c.039 2.751 2.279 5.008 5.029 5.066h1.178c1.361.035 2.676-.501 3.625-1.477.966-.955 1.498-2.267 1.468-3.625.134-2.085-.679-4.124-2.211-5.545-2.302-1.951-6.443-5.515-12.423-10.692-3.446-2.961-5.37-7.329-5.228-11.87 0-.024-.001-.049-.001-.073 0-7.416 6.103-13.519 13.52-13.519h.072 1.178c.061-.001.122-.001.183-.001 7.356 0 13.41 6.054 13.41 13.41 0 .061 0 .122-.001.183v3.96c0 .634-.302.951-.906.951h-6.751c-.604 0-.906-.317-.906-.951v-3.924c0-.018 0-.036 0-.055 0-2.748-2.262-5.01-5.01-5.01-.019 0-.037 0-.055 0h-1.142c-.018 0-.036 0-.054 0-2.749 0-5.011 2.262-5.011 5.01v.055c-.104 2.062.733 4.063 2.274 5.437l12.333 10.719c3.433 2.999 5.333 7.395 5.164 11.951z" fill="#005697"/><g fill="#e32726"><path d="m226.323 248.478v-12.821h8.445v2.238h-5.944v3.008h5.056v2.229h-5.056v3.117h5.944v2.229z"/><path d="m247.037 248.478v-7.466l-2.446 4.857h-1.695l-2.446-4.866v7.466h-2.501v-12.812h2.464l3.353 6.932 3.325-6.932h2.42v12.821z"/><path d="m258.572 248.478h-5.364v-12.821h5.146c2.501 0 3.96 1.404 3.96 3.624.008 1.108-.605 2.131-1.586 2.646 1.127.501 1.832 1.651 1.767 2.882.01 2.374-1.631 3.669-3.923 3.669zm-.408-10.583h-2.446v2.954h2.446c.054.006.109.009.164.009.815 0 1.486-.671 1.486-1.486s-.671-1.486-1.486-1.486c-.055 0-.11.003-.164.009zm.163 5.201h-2.61v3.153h2.61c.865 0 1.577-.711 1.577-1.576s-.712-1.577-1.577-1.577z"/><path d="m265.73 248.478v-12.821h8.445v2.238h-5.944v3.008h5.056v2.229h-5.056v3.117h5.944v2.229z"/><path d="m285.338 247.255c-.918.842-2.135 1.283-3.38 1.223h-4.63v-12.821h4.63c1.245-.06 2.462.381 3.38 1.223 1.441 1.441 1.296 3.208 1.296 5.129s.145 3.805-1.296 5.246zm-1.749-8.572c-.461-.549-1.16-.842-1.875-.788h-1.894v8.354h1.894c.714.053 1.413-.24 1.875-.788.471-.58.544-1.495.544-3.434s-.073-2.764-.544-3.344z"/><path d="m297.906 247.255c-.92.845-2.142 1.286-3.389 1.223h-4.63v-12.821h4.63c1.247-.061 2.468.379 3.389 1.223 1.44 1.441 1.295 3.208 1.295 5.129s.145 3.805-1.295 5.246zm-1.749-8.572c-.461-.549-1.161-.842-1.876-.788h-1.893v8.354h1.893c.715.053 1.414-.24 1.876-.788.471-.58.544-1.495.544-3.434s-.073-2.764-.535-3.344z"/><path d="m302.473 248.478v-12.821h8.444v2.238h-5.944v3.008h5.056v2.229h-5.056v3.117h5.944v2.229z"/><path d="m322.081 247.255c-.92.845-2.142 1.286-3.389 1.223h-4.63v-12.821h4.63c1.247-.061 2.468.38 3.389 1.223 1.44 1.441 1.295 3.208 1.295 5.129s.145 3.805-1.295 5.246zm-1.749-8.572c-.462-.549-1.161-.842-1.876-.788h-1.894v8.354h1.894c.715.053 1.413-.24 1.876-.788.471-.58.543-1.495.543-3.434s-.072-2.764-.543-3.344z"/><path d="m331.776 235.657h2.501v12.821h-2.501z"/><path d="m345.485 248.478-5.074-7.865v7.865h-2.501v-12.821h2.211l5.074 7.847v-7.847h2.501v12.821z"/><path d="m361.442 237.895v10.583h-2.501v-10.583h-3.353v-2.229h9.197v2.229z"/><path d="m375.35 247.183c-1.918 1.863-5.013 1.863-6.931 0-1.296-1.296-1.26-2.9-1.26-5.111s0-3.814 1.26-5.11c1.918-1.863 5.013-1.863 6.931 0 1.296 1.296 1.278 2.899 1.278 5.11s.017 3.815-1.278 5.111zm-1.812-8.717c-.409-.451-.995-.699-1.604-.68-.613-.019-1.205.23-1.621.68-.49.544-.617 1.133-.617 3.624 0 2.492.127 3.063.617 3.625.416.45 1.008.698 1.621.679.609.02 1.195-.229 1.604-.679.49-.544.635-1.133.635-3.625 0-2.491-.191-3.08-.671-3.624z"/><path d="m389.051 248.478v-7.466l-2.447 4.857h-1.721l-2.465-4.857v7.466h-2.501v-12.821h2.465l3.352 6.932 3.326-6.932h2.464v12.821z"/><path d="m403.023 247.183c-1.918 1.863-5.013 1.863-6.932 0-1.296-1.296-1.259-2.9-1.259-5.111s0-3.814 1.259-5.11c1.919-1.863 5.014-1.863 6.932 0 1.296 1.296 1.278 2.899 1.278 5.11s.017 3.815-1.278 5.111zm-1.812-8.717c-.409-.451-.996-.699-1.604-.68-.613-.019-1.205.23-1.622.68-.489.544-.616 1.133-.616 3.624 0 2.492.127 3.063.616 3.625.417.45 1.009.698 1.622.679.608.02 1.195-.229 1.604-.679.489-.544.634-1.133.634-3.625 0-2.491-.19-3.08-.68-3.624z"/><path d="m414.422 248.478-2.537-5.146h-1.813v5.11h-2.5v-12.785h5.037c.094-.007.188-.01.282-.01 2.127 0 3.878 1.75 3.878 3.878v.055c.045 1.511-.908 2.884-2.338 3.371l2.863 5.527zm-1.976-10.583h-2.355v3.38h2.355c.042.003.083.004.124.004.93 0 1.695-.765 1.695-1.694 0-.93-.765-1.694-1.695-1.694-.041 0-.082.001-.124.004z"/><path d="m426.935 248.478-2.501-5.146h-1.812v5.11h-2.492v-12.785h5.02c.094-.007.187-.01.281-.01 2.128 0 3.878 1.75 3.878 3.878v.055c.045 1.511-.907 2.884-2.338 3.371l2.864 5.527zm-1.939-10.583h-2.356v3.38h2.356c.041.003.082.004.124.004.929 0 1.694-.765 1.694-1.694 0-.93-.765-1.694-1.694-1.694-.042 0-.083.001-.124.004z"/><path d="m440.382 247.183c-1.919 1.863-5.014 1.863-6.932 0-1.296-1.296-1.26-2.9-1.26-5.111s0-3.814 1.26-5.11c1.918-1.863 5.013-1.863 6.932 0 1.295 1.296 1.277 2.899 1.277 5.11s.017 3.815-1.277 5.111zm-1.813-8.717c-.408-.451-.995-.699-1.603-.68-.614-.019-1.206.23-1.622.68-.49.544-.616 1.133-.616 3.624 0 2.492.126 3.063.616 3.625.416.45 1.008.698 1.622.679.608.02 1.195-.229 1.603-.679.49-.544.635-1.133.635-3.625 0-2.491-.191-3.08-.68-3.624z"/><path d="m455.885 248.478h-2.084l-2.356-7.774-2.356 7.774h-2.084l-3.416-12.821h2.546l1.985 8.082 2.337-8.082h1.876l2.338 8.082 2.002-8.082h2.61z"/></g><path d="m157.251 257.249c15.505.012 30.364-6.293 41.128-17.451h-82.256c10.765 11.158 25.624 17.463 41.128 17.451z" fill="#00aae9"/><path d="m173.534 218.233h-2.356l-9.414 12.758h43.61c5.121-7.93 8.189-17.012 8.925-26.422h-30.707z" fill="#005697"/><path d="m109.327 181.082h14.235v-2.935h-7.738v-2.936h12.975v-2.936h6.869v-2.936h17.741v2.936h16.772v2.936h-3.071v2.936h36.407v2.935h7.765c-8.018-22.903-29.766-38.331-54.032-38.331-25.388 0-47.885 16.888-54.972 41.267h7.049z" fill="#005697"/><path d="m138.187 233.926h9.251v-2.935h5.201l14.108-19.11-8.943-10.23h-8.373v-2.954h7.657v-2.936h-12.414v2.936h-18.013v-2.936h-4.096v-2.936h-10.248v-2.953h-11.407c-3.026 16.735 1.581 33.976 12.549 46.972h24.728z" fill="#005697"/><path d="m206.706 189.872h2.275v2.935h-3.625v2.954h-9.831v2.936h-5.437v2.954h9.759v-2.954h14.634c-.084-3.967-.578-7.915-1.477-11.779h-6.289z" fill="#005697"/><path d="m171.513 210.005 6.316-8.372h-14.172l7.304 8.372z" fill="#005697"/></g></svg>