<svg clip-rule="evenodd" fill-rule="evenodd" stroke-linejoin="round" stroke-miterlimit="2" viewBox="0 0 560 400" xmlns="http://www.w3.org/2000/svg"><g fill-rule="nonzero" transform="matrix(.546117 0 0 .546117 27.6863 43.2646)"><g fill="#222f3e"><path d="m376.5 218.3v135.4h-23.5v-9.5c-3.2 3.9-7.4 7-12.1 8.7-5 1.8-10.3 2.7-15.7 2.7-12.8 0-22.8-4.6-30-13.8-7.2-9.3-10.8-21.4-10.8-36.1 0-10.2 1.7-19.1 5.1-26.6 3.5-7.5 8.4-13.2 14.5-17.1 6.3-4.1 13.7-6.1 21.2-6 5.4 0 10.7 1 15.7 3.1 4.7 1.8 8.9 4.7 12.2 8.5v-49.3zm-45.6 115.8c8.1 0 14.2-2.6 18.2-7.8s6.1-12 6.1-20.4c0-8.5-2-15.5-6.1-20.8s-10.1-8-18-8c-7.7 0-13.5 2.5-17.4 7.6-3.8 4.9-5.7 12-5.7 21.2 0 9.1 1.9 16.1 5.7 21 3.7 4.8 9.5 7.2 17.2 7.2z"/><path d="m437.1 256c12.8 0 22.9 3.4 30.2 10.1 7.5 6.6 11.2 15.7 11.2 27.2v60.4h-21.6l-2-12.4c-3 4.6-7.1 8.3-12.1 10.7-5.4 2.5-11.3 3.8-17.2 3.7-6.2.1-12.4-1.2-18-3.9-5.1-2.6-9.3-6.5-12.4-11.3-3-4.8-4.6-10.4-4.5-16.1-.1-5.2 1.2-10.3 3.7-14.8 2.5-4.2 6.3-7.4 10.8-9.3 6.3-2.9 14.8-4.3 25.7-4.3h24.1v-2.7c0-5.2-1.6-9.3-4.9-12.2-3.3-3.1-7.7-4.7-13.3-4.7-4.9 0-9.8 1.3-14.1 3.7-4.7 2.7-8.8 6.3-12 10.7l-17-14.2c11.4-13.7 25.9-20.6 43.4-20.6zm-7.8 79.8c6.6.2 13-2.1 18-6.4 5.1-4.4 7.7-9.7 7.6-15.9h-20.9c-7.6 0-12.9 1.1-15.9 3.3-2.6 1.8-4.1 4.8-3.9 8-.1 3.2 1.4 6.2 3.9 8.2 2.8 1.9 6.5 2.9 11.2 2.8z"/><path d="m537.3 355.7c-10.1 0-18.6-2.3-25.7-6.8-6.9-4.5-12.4-10.8-15.9-18.3-3.5-7.7-5.3-16-5.3-24.5-.1-8.4 1.7-16.8 5.3-24.5 3.4-7.5 8.8-13.9 15.7-18.5 7.1-4.8 15.6-7.2 25.7-7.2 9.8 0 18.3 2.4 25.5 7.2 7.2 4.7 12.6 11.7 16.3 21l-22.3 8.7c-1.1-4.7-3.6-8.9-7.2-12-3.3-3-7.7-4.6-12.2-4.5-7.6 0-13.3 2.9-17 8.5-3.6 5.7-5.5 12.8-5.5 21.2s1.8 15.4 5.5 21c3.7 5.4 9.3 8.2 17 8.2 4.4.1 8.8-1.5 12.2-4.4 3.6-3.1 6.1-7.2 7.2-11.9l21.4 8.1c-2.9 8.5-8.4 15.8-15.7 21-7.1 5.2-15.4 7.7-25 7.7z"/><path d="m628.9 256c12.8 0 22.9 3.4 30.2 10.1 7.5 6.6 11.2 15.7 11.2 27.2v60.4h-21.6l-2-12.4c-3 4.6-7.2 8.4-12.1 10.7-5.4 2.5-11.3 3.8-17.2 3.7-6.2.1-12.4-1.2-18-3.9-5.1-2.6-9.3-6.5-12.3-11.3s-4.6-10.4-4.5-16.1c-.1-5.2 1.2-10.3 3.7-14.8 2.5-4.2 6.3-7.4 10.8-9.3 6.3-2.9 14.8-4.3 25.6-4.3h24.1v-2.7c0-5.2-1.6-9.3-4.9-12.2-3.3-3.1-7.7-4.7-13.3-4.7-4.9 0-9.8 1.3-14.1 3.7-4.7 2.7-8.8 6.3-12 10.7l-17-14.2c11.4-13.7 25.9-20.6 43.4-20.6zm-7.9 79.9c6.6.2 13-2.1 18-6.4 5.1-4.4 7.6-9.7 7.6-15.9h-21c-7.6 0-12.9 1.1-15.9 3.3-2.6 1.8-4.1 4.8-3.9 8-.1 3.2 1.4 6.2 3.9 8.2 2.9 1.8 6.6 2.8 11.3 2.8z"/><path d="m721.4 355.7c-9.2.2-18.2-2.5-25.9-7.6-7.3-5.2-12.2-11.6-14.7-19.2l18.8-8.4c3.8 10.5 10.7 15.7 20.6 15.7 5.1 0 8.9-1.2 11.6-3.5s4.1-4.9 4.1-7.8c0-2.8-1.6-5.3-4.1-6.4-4.4-2-8.9-3.6-13.5-4.9-5.5-1.4-11-3.1-16.3-5.2-4.4-2-8.2-5-11.2-8.7-3.1-4-4.7-9.2-4.7-15.7 0-8.8 3.4-15.7 10.2-20.6 6.9-4.9 15.4-7.4 25.3-7.4 7.6-.2 15.1 1.7 21.8 5.4 6.3 3.6 11.4 8.9 14.9 15.3l-18.3 9.9c-1.8-3.4-4.3-6.4-7.5-8.7-3-2.3-6.9-3.5-11.8-3.5-3.2-.1-6.3.7-9 2.3-2 1.2-3.3 3.4-3.3 5.8 0 2.6 1.4 4.6 4.1 6 4.2 1.9 8.6 3.4 13.1 4.5 5.8 1.6 11.4 3.6 16.9 5.9 4.5 2 8.5 5.1 11.6 8.9 3.3 4 4.9 9.2 4.9 15.7 0 7.1-1.8 13.1-5.5 17.9-3.5 4.8-8.4 8.5-13.9 10.7-5.7 2.4-11.9 3.6-18.2 3.6z"/><path d="m802.4 276.4v48.8c0 3.8 1 6.5 3.1 8.4s5.3 2.7 9.2 2.7c4-.1 8-.8 11.8-2.1v18.6c-5.7 1.9-11.6 2.9-17.6 2.9-8.7 0-15.9-2.3-21.5-7-5.6-4.8-8.4-12-8.4-21.8v-50.5h-15.7v-18.4h15.7v-22.4l23.5-17.3v39.7h24.1v18.5z"/></g><path d="m230.8 332.6-132.2-122c-1.4-1.3-1.6-3.4-.3-4.8.7-.8 1.6-1.2 2.6-1.2h56.4c16.9 0 31.9 3.5 44.9 10.6 12.7 6.6 23.2 16.8 30.2 29.2 7.2 12.4 10.8 26.6 10.8 42.6s-3.6 30.3-10.8 42.9c-.5.9-1 1.8-1.6 2.7z" fill="#4967ee"/><path d="m98.6 363.4c-1.4 1.3-1.6 3.4-.3 4.8.7.8 1.6 1.2 2.6 1.2h56.4c16.9 0 31.9-3.5 44.9-10.4 12.6-6.7 23.1-16.8 30.2-29.2 7.2-12.6 10.8-26.9 10.8-42.9s-3.6-30.2-10.8-42.6c-.5-.9-1.1-1.8-1.6-2.7z" fill="#2899f6"/><path d="m98.6 363.4c-1.4 1.3-1.6 3.4-.3 4.8.7.8 1.6 1.2 2.6 1.2h56.4c16.9 0 31.9-3.5 44.9-10.4 12.6-6.7 23.1-16.8 30.2-29.2 7.2-12.6 10.8-26.9 10.8-42.9s-3.6-30.2-10.8-42.6c-.5-.9-1.1-1.8-1.6-2.7z" fill="#2899f6"/></g></svg>