<svg clip-rule="evenodd" fill-rule="evenodd" stroke-linejoin="round" stroke-miterlimit="2" viewBox="0 0 560 400" xmlns="http://www.w3.org/2000/svg" xmlns:xlink="http://www.w3.org/1999/xlink"><radialGradient id="a" cx="0" cy="0" gradientTransform="matrix(56.2973 0 0 -56.2973 156.306 199.997)" gradientUnits="userSpaceOnUse" r="1"><stop offset="0" stop-color="#fff" stop-opacity=".02"/><stop offset="1" stop-color="#fff" stop-opacity="0"/></radialGradient><g fill-rule="nonzero"><g opacity=".54"><path d="m269.723 159.926h22.787c7.734 0 14.483 1.597 20.256 4.798 5.765 3.201 10.198 7.65 13.292 13.341 3.093 5.699 4.64 12.233 4.64 19.619s-1.547 13.92-4.64 19.619c-3.094 5.699-7.527 10.141-13.292 13.341-5.765 3.201-12.514 4.798-20.256 4.798h-22.787zm22.787 66.988c8.933 0 16.013-2.564 21.257-7.7 5.235-5.137 7.857-12.308 7.857-21.522s-2.622-16.385-7.857-21.521c-5.236-5.136-12.324-7.7-21.257-7.7h-13.92v58.435h13.92z"/><path d="m344.502 234.821c-3.093-1.546-5.484-3.672-7.171-6.385-1.687-2.705-2.531-5.781-2.531-9.23 0-5.699 2.142-10.141 6.435-13.342 4.285-3.201 9.702-4.797 16.245-4.797 3.234 0 6.236.356 9.015 1.059s4.905 1.513 6.385 2.423v-3.267c0-4.011-1.406-7.229-4.218-9.652-2.812-2.424-6.369-3.64-10.653-3.64-3.027 0-5.798.654-8.337 1.952-2.531 1.299-4.533 3.11-6.013 5.434l-6.75-5.061c2.109-3.234 5.013-5.765 8.702-7.593 3.688-1.828 7.791-2.746 12.29-2.746 7.312 0 13.061 1.919 17.246 5.748 4.185 3.838 6.277 9.057 6.277 15.666v34.068h-8.544v-7.7h-.421c-1.547 2.605-3.871 4.814-6.965 6.642-3.093 1.827-6.575 2.746-10.446 2.746-3.929 0-7.444-.778-10.546-2.325zm19.834-7.907c2.597-1.547 4.674-3.623 6.22-6.22 1.547-2.597 2.324-5.45 2.324-8.544-1.687-1.125-3.763-2.043-6.219-2.746-2.465-.703-5.062-1.058-7.808-1.058-4.922 0-8.635 1.017-11.125 3.06-2.498 2.043-3.747 4.681-3.747 7.907 0 2.953 1.125 5.343 3.375 7.171s5.095 2.746 8.544 2.746c3.019 0 5.839-.769 8.436-2.316z"/><path d="m390.887 182.507h8.544v8.544h.421c1.266-3.168 3.408-5.625 6.435-7.386 3.019-1.754 6.328-2.639 9.917-2.639 1.547 0 2.846.108 3.904.314v9.181c-1.199-.281-2.812-.422-4.855-.422-4.574 0-8.279 1.514-11.124 4.533-2.846 3.027-4.277 6.964-4.277 11.811v29.851h-8.965zm55.681 53.563c-1.861-.711-3.425-1.679-4.698-2.903-1.406-1.356-2.465-2.936-3.168-4.723-.703-1.786-1.059-3.97-1.059-6.55v-32.109h-9.388v-8.122h9.388v-15.186h8.966v15.186h13.077v8.122h-13.077v29.975c0 3.019.563 5.244 1.687 6.683 1.332 1.58 3.267 2.374 5.798 2.374 2.035 0 4.012-.596 5.906-1.795v8.759c-1.059.488-2.126.843-3.217 1.059-1.092.215-2.482.314-4.169.314-2.159-.008-4.177-.372-6.046-1.084z"/></g><path d="m122.961 233.324-19.256-19.255c-2.282-2.349-3.705-5.657-3.705-8.891 0-1.497.844-3.838 1.481-5.186l17.774-37.03z" fill="#01579b"/><path d="m188.881 166.667-19.255-19.255c-1.679-1.687-5.186-3.705-8.147-3.705-2.547 0-5.045.513-6.666 1.48l-35.55 17.775z" fill="#40c4ff"/><path d="m145.921 256.285h46.666v-20l-34.813-11.108-31.844 11.108z" fill="#40c4ff"/><path d="m119.263 222.961c0 5.938.745 7.402 3.706 10.372l2.961 2.961h66.657l-32.588-37.03-40.736-36.294z" fill="#29b6f6"/><path d="m178.509 162.962h-59.254l73.324 73.323h19.999v-45.921l-23.697-23.697c-3.325-3.341-6.286-3.705-10.372-3.705z" fill="#01579b"/><g fill-opacity=".2"><path d="m123.705 234.069c-2.961-2.978-3.705-5.906-3.705-11.108v-59.255l-.745-.744v59.99c.008 5.211.008 6.65 4.45 11.117l2.225 2.225z" fill="#fff"/><path d="m211.842 189.628v45.921h-20l.745.736h19.999v-45.913z" fill="#263238"/><path d="m188.881 166.667c-3.672-3.672-6.683-3.705-11.108-3.705h-58.51l.745.744h57.774c2.2 0 7.783-.372 11.099 2.961z" fill="#fff"/></g><path d="m211.842 189.628-42.216-42.216c-1.679-1.687-5.186-3.705-8.147-3.705-2.547 0-5.045.513-6.666 1.48l-35.55 17.775-17.774 37.03c-.637 1.348-1.481 3.689-1.481 5.186 0 3.234 1.423 6.542 3.706 8.891l17.75 17.618c.421.521.918 1.05 1.513 1.637l22.969 22.969h46.666v-19.999h19.999v-45.922z" fill="url(#a)"/></g></svg>