<svg clip-rule="evenodd" fill-rule="evenodd" stroke-linejoin="round" stroke-miterlimit="2" viewBox="0 0 560 400" xmlns="http://www.w3.org/2000/svg"><g transform="matrix(2.25 0 0 2.25 161.875 65)"><path d="m91.772 45.205-5.608 3.191-64.465-37.087 14.327-8.156 64.468 37.089zm13.14-4.963v-.002c-.005-.521-.282-1-.736-1.263l-67.412-38.78c-.45-.261-1.008-.263-1.461-.004l-17.283 9.839c-.455.261-.738.744-.739 1.269-.002.523.28 1.008.733 1.271l16.327 9.39 2.947 1.792 47.409 27.18.076 16.446-47.412-27.179-.05 3.35 48.206 27.635c.229.129.481.193.734.193.251 0 .503-.064.727-.193h.004l.007-.005 17.272-9.834.739-1.277z" fill="#70d463"/><path d="m17.191 106.149-14.254-8.285v-74.174l6.792 3.948 7.462 4.337zm20.079-85.39c-.01-.031-.029-.06-.041-.093-.031-.087-.06-.176-.107-.254-.02-.039-.053-.068-.076-.103-.05-.07-.094-.138-.152-.199-.04-.038-.091-.067-.133-.101-.055-.046-.105-.094-.17-.13l-17.192-9.995c-.457-.265-1.022-.265-1.481 0l-17.188 9.995c-.062.032-.11.082-.163.123-.047.037-.098.067-.141.108-.047.051-.082.109-.124.161-.035.05-.076.09-.106.141-.04.07-.067.149-.095.225-.015.041-.04.082-.051.122-.032.124-.05.252-.05.382v77.565c0 .519.276 1.002.73 1.263l17.188 9.994c.23.131.485.199.74.199.253 0 .505-.065.733-.197.455-.26.738-.744.738-1.268v-76.722l6.495-3.774 7.759-4.511v55.663h2.937v-58.212c0-.13-.017-.258-.05-.382z" fill="#2470d4"/><path d="m104.911 60.226-.087 19.534c-.006.523-.285 1-.736 1.263l-67.414 38.781c-.226.131-.481.196-.733.196-.126 0-.252-.017-.378-.047-.043-.012-.084-.039-.129-.053-.075-.03-.152-.052-.222-.094l-17.282-9.838c-.46-.263-.742-.749-.739-1.277l.088-19.831c0-.073.018-.143.029-.217.009-.053.009-.108.023-.16.021-.075.056-.141.086-.211.021-.047.035-.094.059-.136.041-.07.095-.129.145-.193.03-.035.053-.075.086-.11.09-.089.192-.169.308-.235h.001l47.961-27.615.064.035 2.843 1.669-47.188 27.173 10.773 6.132 3.557 2.024 47.174-27.16 2.318 1.329c.228.129.48.195.733.195.093 0 .186-.018.274-.036l-49.03 28.208-.075 16.443 64.469-37.087.072-16.25 2.3-1.31z" fill="#ced4e0"/></g></svg>