<svg clip-rule="evenodd" fill-rule="evenodd" stroke-linejoin="round" stroke-miterlimit="2" viewBox="0 0 560 400" xmlns="http://www.w3.org/2000/svg"><g fill="#064d7a" fill-rule="nonzero"><path d="m64.058 225.17c2.609 0 5.118-.428 7.571-1.269 2.442-.846 4.624-2.254 6.538-4.208 1.903-1.951 3.443-4.512 4.58-7.663 1.152-3.148 1.731-6.981 1.731-11.516 0-4.149-.411-7.883-1.209-11.226-.802-3.346-2.118-6.202-3.961-8.58-1.835-2.373-4.26-4.204-7.276-5.469-3.023-1.268-6.753-1.899-11.185-1.899h-12.841v51.83zm1.269-67.032c5.273 0 10.18.842 14.735 2.537 4.548 1.684 8.481 4.229 11.804 7.595 3.326 3.383 5.923 7.607 7.806 12.669 1.871 5.07 2.812 11.018 2.812 17.851 0 5.992-.774 11.521-2.297 16.587-1.532 5.07-3.838 9.446-6.941 13.127-3.092 3.686-6.957 6.586-11.58 8.704-4.632 2.107-10.073 3.156-16.339 3.156h-35.327v-82.226"/><path d="m141.743 212.668c-1.03.34-2.143.643-3.331.862-1.185.24-2.43.423-3.73.578-1.292.156-2.597.339-3.897.579-1.221.219-2.43.535-3.614.929-1.185.379-2.218.898-3.092 1.544-.885.658-1.587 1.484-2.122 2.481-.534 1.001-.798 2.258-.798 3.802 0 1.452.264 2.676.798 3.682.535.997 1.261 1.779 2.178 2.365.918.567 1.991.969 3.219 1.209 1.213.223 2.477.342 3.778.342 3.211 0 5.696-.538 7.447-1.611 1.763-1.086 3.06-2.366 3.905-3.861.838-1.508 1.357-3.012 1.548-4.556.188-1.532.283-2.76.283-3.682v-6.099c-.682.611-1.543 1.097-2.572 1.436zm-32.176-23.096c1.684-2.525 3.826-4.559 6.422-6.091 2.605-1.544 5.525-2.637 8.772-3.291 3.255-.65 6.522-.977 9.809-.977 2.984 0 6.008.215 9.063.634 3.056.431 5.848 1.245 8.361 2.474 2.525 1.228 4.596 2.939 6.199 5.129 1.608 2.186 2.406 5.078 2.406 8.692v30.983c0 2.689.159 5.262.462 7.719.303 2.461.834 4.292 1.608 5.521h-16.519c-.299-.917-.554-1.855-.742-2.825-.187-.957-.323-1.934-.399-2.936-2.6 2.701-5.656 4.576-9.178 5.653-3.511 1.068-7.109 1.603-10.779 1.603-2.832 0-5.461-.339-7.914-1.036-2.437-.682-4.583-1.76-6.418-3.22-1.835-1.452-3.271-3.298-4.304-5.528-1.029-2.226-1.544-4.875-1.544-7.943 0-3.378.594-6.163 1.779-8.348 1.177-2.194 2.713-3.942 4.579-5.242 1.875-1.308 4.013-2.29 6.423-2.944 2.413-.646 4.838-1.165 7.288-1.548 2.441-.383 4.854-.697 7.228-.921 2.357-.235 4.467-.575 6.302-1.037 1.831-.463 3.287-1.133 4.356-2.019 1.069-.885 1.568-2.166 1.488-3.857 0-1.767-.283-3.163-.861-4.2-.575-1.042-1.333-1.847-2.286-2.426-.965-.574-2.07-.961-3.323-1.156-1.264-.188-2.621-.283-4.077-.283-3.207 0-5.732.694-7.575 2.074-1.831 1.384-2.9 3.678-3.203 6.905h-16.283c.231-3.837 1.177-7.013 2.86-9.558"/><path d="m182.201 240.364-20.296-59.536h17.089l12.498 40.656h.219l12.51-40.656h16.167l-20.073 59.536"/><path d="m240.367 180.827v59.536h-16.283v-59.536zm-16.283-9.215v-13.475h16.283v13.475"/><path d="m262.72 225.567c.726 1.268 1.655 2.302 2.812 3.115 1.133.81 2.461 1.393 3.949 1.779 1.492.392 3.044.579 4.652.579 1.14 0 2.345-.131 3.606-.402 1.264-.267 2.413-.686 3.438-1.273 1.034-.57 1.887-1.336 2.581-2.301.682-.958 1.029-2.17 1.029-3.622 0-2.458-1.628-4.296-4.871-5.529-3.239-1.237-7.774-2.457-13.59-3.686-2.362-.546-4.679-1.173-6.937-1.899-2.25-.726-4.264-1.691-6.023-2.884-1.756-1.192-3.168-2.684-4.237-4.491-1.068-1.807-1.607-4.013-1.607-6.618 0-3.849.749-6.989 2.242-9.45 1.483-2.453 3.45-4.396 5.903-5.808 2.442-1.424 5.19-2.421 8.257-2.996 3.048-.582 6.183-.869 9.399-.869 3.219 0 6.33.307 9.35.929 3.015.614 5.712 1.648 8.074 3.096 2.373 1.472 4.34 3.394 5.903 5.82 1.572 2.417 2.513 5.473 2.817 9.158h-15.474c-.235-3.151-1.424-5.277-3.554-6.394-2.142-1.113-4.667-1.671-7.575-1.671-.917 0-1.907.067-2.976.175-1.078.113-2.054.366-2.924.746-.885.387-1.623.938-2.242 1.675-.61.731-.917 1.712-.917 2.94 0 1.452.538 2.649 1.604 3.571 1.068.917 2.469 1.663 4.188 2.237 1.723.583 3.69 1.102 5.912 1.56 2.214.459 4.468.961 6.753 1.5 2.366.535 4.679 1.189 6.929 1.967 2.262.754 4.276 1.771 6.036 3.035 1.763 1.277 3.163 2.852 4.24 4.735 1.068 1.875 1.599 4.201 1.599 6.957 0 3.921-.781 7.204-2.345 9.849-1.576 2.653-3.61 4.787-6.139 6.39-2.521 1.62-5.405 2.753-8.656 3.399-3.255.655-6.55.977-9.921.977-3.439 0-6.793-.343-10.08-1.042-3.291-.678-6.211-1.835-8.78-3.442-2.561-1.608-4.663-3.754-6.303-6.39-1.647-2.653-2.541-5.976-2.7-9.973h15.489c0 1.771.36 3.287 1.089 4.552"/><path d="m396.614 217.623c.463 2.262 1.245 4.296 2.346 6.107 1.112 1.807 2.593 3.243 4.428 4.316 1.835 1.069 4.116 1.608 6.865 1.608 2.764 0 5.066-.539 6.945-1.608 1.878-1.073 3.362-2.509 4.467-4.316 1.113-1.811 1.887-3.845 2.362-6.107.454-2.266.682-4.588.682-6.969 0-2.377-.228-4.723-.682-7.025-.475-2.305-1.249-4.34-2.362-6.107-1.104-1.763-2.589-3.199-4.467-4.316-1.879-1.117-4.181-1.671-6.945-1.671-2.749 0-5.03.554-6.865 1.671s-3.315 2.553-4.428 4.316c-1.102 1.767-1.883 3.802-2.346 6.107-.451 2.302-.694 4.648-.694 7.025 0 2.381.243 4.703.694 6.969zm-14.795-19.929c1.444-3.87 3.514-7.176 6.199-9.905 2.669-2.717 5.884-4.831 9.629-6.331 3.738-1.499 7.959-2.245 12.606-2.245 4.675 0 8.903.746 12.673 2.245 3.801 1.5 7.013 3.614 9.693 6.331 2.677 2.729 4.743 6.035 6.199 9.905 1.452 3.881 2.17 8.193 2.17 12.96 0 4.763-.718 9.059-2.17 12.896-1.456 3.846-3.522 7.125-6.199 9.857-2.68 2.721-5.892 4.815-9.693 6.267-3.77 1.464-7.998 2.186-12.673 2.186-4.647 0-8.868-.723-12.606-2.186-3.745-1.452-6.96-3.546-9.629-6.267-2.685-2.732-4.755-6.011-6.199-9.857-1.452-3.837-2.182-8.133-2.182-12.896 0-4.767.731-9.079 2.182-12.96"/><path d="m446.847 158.14h16.279v82.225h-16.279z"/><path d="m487.685 158.138v44.114l20.531-21.425h19.259l-22.362 21.884 24.887 37.652h-19.726l-16.287-26.595-6.302 6.1v20.495h-16.28v-82.225"/><path d="m347.024 196.573c2.058 0 4.033-.152 5.935-.459 1.903-.303 3.582-.898 5.019-1.775 1.451-.878 2.596-2.115 3.482-3.722.869-1.592 1.316-3.69 1.316-6.295 0-2.589-.446-4.695-1.316-6.294-.886-1.608-2.031-2.849-3.482-3.726-1.437-.874-3.116-1.464-5.019-1.775-1.902-.303-3.877-.459-5.935-.459h-10.807v24.504zm4.91-38.422c5.094 0 9.43.741 13.012 2.225 3.574 1.492 6.478 3.451 8.72 5.904 2.25 2.437 3.886 5.222 4.903 8.349 1.033 3.132 1.547 6.375 1.547 9.733 0 3.283-.514 6.507-1.547 9.67-1.018 3.171-2.653 5.975-4.903 8.417-2.242 2.437-5.146 4.411-8.72 5.899-3.582 1.484-7.918 2.234-13.012 2.234h-15.717v29.79h-17.99v-82.221"/></g></svg>