<svg clip-rule="evenodd" fill-rule="evenodd" stroke-linejoin="round" stroke-miterlimit="2" viewBox="0 0 560 400" xmlns="http://www.w3.org/2000/svg"><path d="m185.2 201.7c-17.9 2.2-37.6 11.4-54.4 25.6-3.4 2.8-10.5 9.7-10.5 10.1 0 .2 3.4 3.8 7.6 8l7.6 7.7-3.2 3.6c-11.8 13.3-19.8 26.8-24.6 41.1-3 9-4.3 16.4-4.3 24.7 0 7.5 1 13.6 3.3 19.5l.9 2.4 22.3 22.3c18.6 18.6 22.8 22.6 25.1 24.1 4.8 3.2 10.4 5.4 16.6 6.7 4.1.9 13.6 1.2 18.1.6 17.8-2.2 36.2-10.6 52.3-24 4.2-3.5 11.3-10.2 11.3-10.6 0-.2-3.5-3.8-7.7-8.1l-7.7-7.8 2.4-2.5c5.9-6.2 13.1-16.1 17.3-23.9 6-10.9 9.9-22.7 11.2-33.5.5-4.7.2-14.7-.6-18.5-1.4-6.4-3.6-11.6-6.9-16.6-1.7-2.6-5.1-6.1-23.9-25l-22-22-2.3-.9c-3.1-1.3-9.5-2.8-13.4-3.2s-10-.3-14.5.2zm18.9 5.9c1.6.4 4.2 1 5.6 1.5 2.6.9 2.7.9 6.8 5 3.6 3.6 4.1 4.1 3.2 4-4.8-.9-12.5-1.1-18.5-.3-19.2 2.4-39 12.1-57.2 28.1-1.8 1.6-3.4 3-3.7 3.2s-1.9-1.1-6.6-5.8l-6.2-6.2 4-3.5c16.7-14.6 35.1-23.8 53.1-26.4 4.8-.7 15.5-.4 19.5.4zm26.2 31.8c8.8 1.3 16.5 5.1 22.2 10.8 5.6 5.6 9.2 12.8 10.9 21.8.7 4 .7 13 0 17.7-2.3 14.5-9 29.4-19.4 43-2.4 3.2-8.1 9.9-9 10.6-.5.4-1.1-.1-6.3-5.3-3.2-3.2-5.8-5.9-5.8-6s.9-1.2 2-2.4c18.1-20 26.6-45 20.6-60.5-2.4-6-7.4-10.5-13.9-12.5-3.3-1-9.1-1.5-13.4-1-6.6.6-14.7 3.2-22.5 7s-14.9 8.6-21.8 14.8l-3.1 2.7-11.8-11.8 2.5-2.3c15.3-14.3 35.6-24.5 53-26.8 3.5-.3 12.5-.3 15.8.2zm-82.7 34.5c-2.2 2.5-5 6-6.4 7.8-16.6 22.1-24.2 46.1-21.1 66.8l.2 1.3-4.1-4c-3.9-3.8-4.1-4.1-4.9-6.5-7.8-22.4 2-53.3 25.1-79.2l2.7-3 12.4 12.4zm78.1-12.8.8.2-.2 4.2c-.2 5-.9 9.1-1.9 12.6-3.2 10.5-9.1 21-17.7 30.9l-3.3 3.8-12.6-12.6 2.9-3.2c6.2-6.8 11.9-14.7 15.4-21.4 1.9-3.6 4.4-9.7 5.1-12.5.4-1.7.4-1.7 1.9-1.9.8-.1 1.7-.2 2-.3.8 0 6.9 0 7.6.2zm-17.9 4.4c-1.4 3.9-4.5 9.9-7.5 14.4-3.3 5-5.6 8-10.2 13.2l-3.2 3.7-12.6-12.6 2.1-1.9c6.5-5.8 14.1-11 21.1-14.6 3.8-1.9 10-4.4 10.9-4.5.1 0-.1 1-.6 2.3zm95.8 3.8c-.3.3-.4 8.6-.4 39 0 37 0 38.6.6 39.1.5.5 2.1.5 15.6.5 8.2 0 17.1-.2 19.7-.3 10.5-.7 18.6-4.1 24.8-10.3 4.9-4.9 8-11.7 9.6-20.7.7-4.4.7-13.6 0-17.9-2.6-14.5-10.9-23.9-24.2-27.7-6.5-1.8-7-1.9-26.8-2-14.7 0-18.6 0-18.9.3zm364.1 1.3c-.3.3-.4 2.8-.4 9.2v8.8h-3.8c-2.5 0-3.9.1-4.2.4-.5.5-.5 10.9 0 11.5.3.3 1.7.4 4.2.4h3.8l.1 17.8c.1 17.4.1 17.9.8 19.9 1.9 5.5 5.8 8.5 12.1 9.3 4.3.5 10.4.3 14.6-.5l.9-.2-.2-14.6-4-.2c-4.3-.2-5-.4-5.5-1.3-.2-.4-.3-6.4-.3-15.3v-14.7l10.2-.2v-12.2l-10.2-.2v-8.6c0-5.3-.1-8.8-.3-9.2-.3-.6-.8-.6-8.8-.6-6.3.2-8.7.3-9 .5zm-327.3 16.9c6.1 1.6 10.1 5.9 11.7 12.2 1.2 4.8 1.2 12.8-.1 17.8-1.3 4.9-4.3 8.8-8.3 10.7-3.5 1.7-5.6 2-12.8 2.2l-6.5.2v-44l7 .2c5.1.1 7.6.3 9 .7zm61.1.4c-10 1.8-17.7 8.4-21.1 18-4.5 12.6-2.3 27 5.3 35.1 4 4.2 7.8 6.4 13.6 7.9 11.1 2.8 23-.1 30.9-7.5 1.9-1.7 6.8-7.9 6.8-8.5 0-.7-1.4-1.6-7.1-4.5-3.5-1.8-6.4-3.3-6.5-3.3s-.7.9-1.3 2c-1.4 2.7-4.3 5.7-6.4 6.8-6.3 3.1-13.7 1.3-16.9-4.1-.9-1.6-1.8-4.4-1.8-5.9v-1.1h20c15.1 0 20-.1 20.3-.4.5-.5.5-4.5-.1-8.5-1.6-10.7-6.1-18.4-13.3-22.7-2.4-1.4-7-3-10-3.5s-9.4-.4-12.4.2zm65.7-.4c-2.8.4-5.1.9-6.9 1.5-10.1 3.2-16.8 11.5-18.9 23.3-.8 4.5-.5 11.7.6 16 1.5 5.8 3.7 9.6 7.7 13.4 3.5 3.3 7.6 5.6 13.1 7.1 1.6.5 3.2.6 7.3.6 4.7 0 5.4-.1 8-.9 5.2-1.6 9.2-4 12.8-7.8 2.4-2.5 5.1-6.2 5.1-7 0-.3-.5-.8-1-1.2-2.1-1.3-11.8-6.1-12.3-6.1-.3 0-.8.7-1.3 1.7-1.2 2.6-2.8 4.3-5.3 5.5-1.9.9-2.5 1.1-4.6 1-2.8 0-4.6-.7-6.9-2.7-6-5.3-6.4-20-.7-26.7 3.6-4.2 10.3-4.2 14.6-.1.7.7 1.7 2 2.2 2.9s1.1 1.7 1.4 1.7c.7.2 13-6.9 13.2-7.6.1-.6-1.2-2.6-3.1-5-3.1-3.8-9.2-7.5-14.5-8.7-2.7-.7-8.5-1.1-10.5-.9zm160.4.7c-3.3.6-6.3 1.8-8.7 3.6l-1.9 1.4-.2-4-7.7-.1c-6.8-.1-7.8 0-8.3.5-.6.5-.6 2-.6 39 0 29.5.1 38.5.4 38.8.6.6 17.4.6 17.9 0 .3-.3.4-3.3.4-11.4v-11l3.1 1.6c4.2 2.1 6.8 2.6 11.7 2.4 5.7-.3 9.1-1.4 12.8-4.2 5.2-3.9 8.6-9.9 10.5-18.2 1-4.4 1-12.1 0-16.8-1.3-6.2-3.4-10.4-7.2-14.4-5.6-6.2-13.8-8.7-22.2-7.2zm-451 5.9c5.4 5.4 5.7 5.8 5.3 6.4-.3.3-1.6 1.8-3 3.4-5.6 6.4-10.8 14.2-14.3 21.4-2.5 5.1-4 9.3-5.5 15-1.9 7.5-1.9 15.8.2 21.6 3.9 11 14.2 16.2 28.6 14.5 13.9-1.7 29.9-9.7 43.6-21.8l2.9-2.6 11.8 11.8-2.5 2.3c-12.8 11.9-29.9 21.6-44.7 25.2-6 1.5-10.2 2-15.9 2-7.6 0-13.2-1-19.1-3.6-7.6-3.3-14.6-9.8-18.2-17-4.5-8.9-5.8-19.9-3.8-31.8 2.8-16.6 12.1-34.4 25.8-49.7 1.4-1.6 2.7-2.9 2.8-2.9s2.8 2.6 6 5.8zm355.8-5.4c-3.9.6-8.8 2.4-12 4.5l-1 .7v-2.1c0-1.2-.2-2.2-.4-2.5-.3-.3-2.6-.4-8.5-.4-7.4 0-8.2 0-8.6.6-.5.5-.5 3-.5 29 0 27.1 0 28.4.6 28.9.5.5 1.6.5 8.8.5 6.4 0 8.3-.1 8.6-.4.2-.3.4-6.2.4-18.3.1-16.8.1-18 .7-19.1 1.2-2.4 3.3-3.4 9.4-4.4 2.3-.4 4.6-.8 5.1-.9l.9-.2v-7.8c0-7.8-.1-8.7-1.1-8.5-.4.1-1.4.2-2.4.4zm8.2.7c-.2.3-.3.8-.2 1.3.1.4 2.8 9.2 6 19.4 12.8 41.2 12.1 38.8 11.2 40.4-.8 1.6-2.2 1.9-7.2 1.9-3.1 0-4.7.1-4.9.4-.3.3-.4 2.3-.4 7.2s.1 6.9.4 7.2c.5.5 13.2.5 16.5.1 5.5-.8 10-4.7 12.6-10.9.6-1.3 5.7-16.8 11.4-34.4 8.7-26.6 10.4-32.1 10-32.5-.3-.4-1.8-.5-9.7-.5h-9.3l-.3 1.4c-.2.8-2.1 9.1-4.3 18.6s-4 17.4-4.2 17.5c-.1.1-2.2-8.3-4.5-18.6l-4.3-18.9h-9.3c-7.7 0-9.2 0-9.5.4zm-127.7 12.5c3 1.4 5 4.1 5.6 7.4l.2 1.2h-21.4l.2-1c.4-1.8 2.1-4.7 3.5-5.9 2.4-2.1 4.5-2.8 7.8-2.6 1.6.1 2.8.4 4.1.9zm220.7.5c2.8 1.5 4.9 4.6 5.9 8.8.7 3.1.7 10.5-.1 13.6-.7 2.7-2.1 5.5-3.6 7.4-2.4 2.9-7.1 3.7-10.9 1.8-4.4-2.2-6.5-7.1-6.5-15.3 0-7.6 2-13 5.7-15.7 2.9-2 6.4-2.2 9.5-.6zm-437.4 16.2c-8.2 7.7-18.7 14.6-27.4 18.1-1.8.7-3.4 1.3-3.5 1.3s.3-1.1.8-2.5c3.8-10.5 10.4-21.2 18.3-29.7l1.9-2 12.6 12.4zm12.6 7.8 6.1 6.1-1.9 1.8c-10 9.4-25.4 17.9-36.3 20.2-2.7.6-8.7 1.2-11.6 1.2h-1.9v-4.6c0-2.5.1-5.2.2-5.8l.2-1.2 3.9-1.3c9.9-3.2 22.5-11.1 31.8-19.9 1.5-1.4 2.9-2.6 3.1-2.6s3.1 2.7 6.4 6.1z" fill="#1d1d1b" transform="matrix(.607492 0 0 .607492 37.1853 17.8539)"/></svg>