<svg clip-rule="evenodd" fill-rule="evenodd" stroke-linejoin="round" stroke-miterlimit="2" viewBox="0 0 560 400" xmlns="http://www.w3.org/2000/svg"><g fill-rule="nonzero" transform="matrix(3.09608 0 0 3.09608 94.2351 155)"><g fill="#37b06f"><path d="m26.179 5.863c-.347-.463-1.021-.484-1.43-.075l-4.544 4.543c-.346.346-.382.889-.154 1.322.949 1.801.949 3.962 0 5.764-.228.433-.192.975.154 1.321l4.544 4.543c.409.41 1.083.388 1.43-.075 3.852-5.131 3.852-12.212 0-17.343z"/><path d="m5.862 2.889c-.463.348-.484 1.021-.075 1.431l4.543 4.543c.346.346.889.382 1.322.154 1.801-.949 3.962-.949 5.764 0 .433.228.975.192 1.321-.154l4.543-4.543c.41-.41.388-1.083-.075-1.431-5.131-3.852-12.212-3.852-17.343 0z"/><path d="m18.737 20.206c-.346-.346-.888-.382-1.321-.154-1.802.949-3.963.949-5.764 0-.433-.228-.976-.192-1.322.154l-4.543 4.543c-.409.409-.388 1.083.075 1.431 5.131 3.852 12.212 3.852 17.343 0 .463-.348.485-1.022.075-1.431z"/><path d="m9.017 11.653c.228-.433.192-.976-.154-1.322l-4.543-4.543c-.41-.409-1.083-.388-1.431.075-3.852 5.131-3.852 12.212 0 17.343.348.463 1.021.485 1.431.075l4.543-4.543c.346-.346.382-.888.154-1.321-.949-1.802-.949-3.963 0-5.764z"/></g><g><path d="m38.153 20.681h4.411c4.064 0 6.773-2.346 6.773-5.881s-2.709-5.881-6.773-5.881h-4.411zm2.677-2.148v-7.467h1.734c2.412 0 4.047 1.454 4.047 3.734 0 2.296-1.635 3.733-4.047 3.733z"/><path d="m54.708 20.945c2.048 0 3.683-.925 4.212-2.445l-2.081-.528c-.364.693-1.091 1.156-2.032 1.156-1.206 0-2.049-.776-2.247-1.966h6.641c.033-.182.033-.528.033-.743 0-2.66-1.85-4.46-4.543-4.46-2.726 0-4.658 1.784-4.658 4.427 0 2.725 1.932 4.559 4.675 4.559zm-2.164-5.303c.198-1.123.974-1.866 2.081-1.866 1.14 0 1.966.793 2.114 1.866z"/><path d="m60.489 20.681h2.759v-4.675h4.956v-2.148h-4.956v-2.593h5.666v-2.346h-8.425z"/><path d="m71.118 11.05c.859 0 1.47-.595 1.47-1.437 0-.826-.611-1.437-1.47-1.437s-1.471.611-1.471 1.437c0 .842.612 1.437 1.471 1.437zm-1.223 9.631h2.445v-8.458h-2.445z"/><path d="m82.375 21.094c2.858 0 4.527-1.371 4.527-3.552 0-2.643-2.396-3.106-4.51-3.453-1.718-.264-3.271-.545-3.271-2.081 0-1.255 1.024-2.065 2.907-2.065 1.999 0 3.156.975 3.156 2.627h1.453c-.016-2.462-1.751-3.948-4.609-3.948-2.808 0-4.41 1.371-4.41 3.469 0 2.527 2.312 3.072 4.41 3.403 1.751.28 3.37.545 3.37 2.147 0 1.305-1.107 2.131-3.006 2.131-2.181 0-3.453-1.074-3.469-2.874h-1.487c0 2.593 1.883 4.196 4.939 4.196z"/><path d="m90.941 20.945c1.338 0 2.313-.529 2.907-1.487h.149v1.223h1.371v-5.534c0-1.9-1.371-3.122-3.535-3.122-2.098 0-3.469 1.123-3.469 2.89h1.387c-.016-1.04.81-1.651 2.065-1.651 1.372 0 2.181.726 2.181 1.85v.33l-2.313.281c-2.478.281-3.733 1.371-3.733 2.841 0 1.437 1.189 2.379 2.99 2.379zm.198-1.14c-1.123 0-1.817-.479-1.817-1.272 0-.776.661-1.437 2.362-1.652l2.313-.264v.743c0 1.405-1.156 2.445-2.858 2.445z"/><path d="m99.329 20.681h1.949l3.172-8.343h-1.404l-2.677 7.252h-.148l-2.66-7.252h-1.404z"/><path d="m109.333 21.011c1.85 0 3.353-.859 4.031-2.28l-1.14-.578c-.529.991-1.619 1.619-2.858 1.619-1.702 0-2.924-1.123-3.122-2.808h7.384c.016-.182.016-.38.016-.545 0-2.561-1.833-4.411-4.377-4.411-2.577 0-4.427 1.85-4.427 4.394 0 2.676 1.883 4.609 4.493 4.609zm-3.073-5.253c.232-1.503 1.404-2.511 2.941-2.511 1.586 0 2.758 1.008 3.006 2.511z"/><path d="m115.259 20.681h1.372v-4.494c0-1.651.875-2.775 2.131-2.775.313 0 .809.066 1.238.248v-1.272c-.247-.132-.644-.215-1.024-.215-.925 0-1.85.529-2.23 1.289h-.149v-1.124h-1.338z"/></g></g></svg>