<svg clip-rule="evenodd" fill-rule="evenodd" stroke-linejoin="round" stroke-miterlimit="1.41421" viewBox="0 0 560 400" xmlns="http://www.w3.org/2000/svg"><g fill-rule="nonzero" transform="matrix(1.81451 0 0 -1.81451 -105.749 969.492)"><path d="m173.42 446.34c-1.61 1.281-3.422 2.356-5.423 3.141-1.872.883-4.324 1.424-6.866 1.428-2.046-.001-4.154-.356-6.028-1.257-.818-.339-1.572-.753-2.261-1.223-.02.022-.041.044-.06.064-.706.73-1.668 1.138-2.666 1.138-.306 0-.617-.038-.924-.119-1.934-.491-3.054-1.442-4.124-2.375l-.572-.491c-.186-.16-.36-.338-.522-.543-1.02-1.308-1.742-2.465-2.242-3.56-.112-.025-.225-.057-.339-.096-1.407-.474-2.561-1.435-3.326-2.7-.656-1.078-1.049-2.361-1.188-3.79-1.88-.602-3.543-1.568-4.755-2.891-.629-.691-.964-1.583-.964-2.49 0-.384.059-.77.182-1.145-1.145-1.481-1.682-3.024-1.679-4.477 0-.032 0-.063.001-.096-1.149-.479-2.536-1.024-4.258-1.697-3.991-1.561-5.703-4.629-5.816-6.987-.004-.089-.005-.179-.005-.267 0-.129.005-.256.015-.381-.888-.439-1.443-.625-1.727-.702-.263.058-.531.086-.799.086-.947.002-1.911-.366-2.63-1.104-.7-.715-1.053-1.655-1.053-2.582 0-.949.369-1.908 1.097-2.628h.001c.016-.017.021-.021.024-.025l.015-.014.05-.046c.268-.26 1.188-1.131 2.509-2.034 1.352-.916 3.12-1.883 5.117-2.209.665-.107 1.408-.156 2.173-.175.182-.385.416-.758.707-1.105.973-1.158 2.283-2.026 3.864-2.608 1.583-.585 3.444-.901 5.605-.994 1.864-.079 3.743-.113 5.101-.13.372-.372.826-.741 1.376-1.085 1.114-.692 2.442-.927 3.926-.929 1.888.002 4.092.383 6.699.941 3.079.666 5.538 1.52 7.392 2.618 1.553-.535 3.635-1.223 5.702-1.815 2.318-.657 4.569-1.202 6.215-1.269.265-.009.524-.014.778-.014 2.492 0 4.479.45 5.99 1.147.937.436 1.695.964 2.268 1.553h88.225l4.533 3.656 3.375 12.642h28.037l7.621 29.638h-138.37z" fill="#fff"/><path d="m177.08 444.42.011-.018-3.312.014c-.279.254-.566.501-.86.742-1.589 1.299-3.385 2.382-5.377 3.159-3.039 1.455-8.208 2.007-11.977.176-1.154-.476-2.164-1.11-3.04-1.851-.119.346-.304.672-.566.943-.64.663-1.585.94-2.477.707-1.713-.446-2.577-1.191-3.669-2.135l-.575-.493c-.129-.111-.261-.245-.364-.379-1.174-1.503-1.9-2.753-2.348-3.907-.256-.007-.515-.042-.766-.127-2.305-.783-3.683-3.048-3.79-6.214-.002-.024-.002-.047-.003-.069-2.04-.524-3.815-1.488-4.999-2.786-.436-.478-.666-1.095-.666-1.722 0-.271.042-.542.13-.806.066-.196.155-.356.241-.521-1.328-1.497-1.868-2.969-1.868-4.294 0-.281.032-.553.077-.82-1.315-.567-2.935-1.206-5.061-2.037-3.611-1.413-4.999-4.103-5.09-5.979-.003-.07-.004-.14-.004-.211 0-.358.052-.694.139-1.013-.163-.086-.327-.172-.489-.255-1.476-.755-2.245-.943-2.528-.99-.888.279-1.894.07-2.588-.641-.486-.496-.728-1.141-.728-1.784 0-.659.253-1.317.758-1.816.004-.005.016-.015.022-.022l.049-.044c.427-.418 3.548-3.388 7.024-3.948.787-.126 1.781-.169 2.784-.167.15-.534.404-1.048.787-1.504 1.662-1.974 4.488-3.02 8.644-3.196 2.082-.088 4.191-.121 5.554-.134.362-.42.833-.849 1.48-1.254 1.927-1.205 5.17-.832 9.779.161 3.273.704 5.778 1.631 7.492 2.759 3.152-1.1 9.234-3.098 12.099-3.201 3.489-.126 5.899.651 7.358 1.66.707.488 1.193 1.03 1.464 1.552.023.042.039.086.059.129h87.899l3.48 2.734 3.589 13.601 27.742.142 6.695 25.858h-132.21z" fill="#00539f"/><path d="m61.846 3.816c-2.394-.115-4.89.228-6.994 1.237-3.22 1.273-5.438 3.699-6.821 6.301-.003-.149-.017-.302-.017-.446 0-1.742.261-3.277.422-3.801.039-.126.056-.255.056-.384 0-.334-.125-.662-.363-.91-.331-.343-.821-.483-1.281-.362-1.719.448-2.559 1.172-3.832 2.272l-.735.631c-.066.057-.133.125-.187.195-2.047 2.619-2.892 4.515-3.199 6.305-.058-.105-.108-.211-.194-.301-.352-.372-.89-.505-1.375-.34-2.136.727-3.367 2.884-3.469 6.076-.002.04-.003.078-.003.117 0 .457.161.91.334 1.354-2.934.394-5.511 1.569-7.069 3.279-.224.246-.342.562-.342.885 0 .139.022.28.067.416.219.66.638 1.052 1.131 1.299-2.361 2.038-3.079 3.85-3.079 5.287 0 .831.246 1.52.536 2.074-1.925.906-4.392 1.881-7.95 3.271-3.442 1.345-5.078 3.889-5.171 5.815-.003.056-.004.11-.004.166 0 .88.36 1.589.966 1.969-.802.445-1.621.884-2.423 1.295-3.314 1.694-4.352 1.454-4.362 1.451l-.013-.002c-.624-.108-1.095-.131-1.522.394-.219.27-.34.582-.34.887 0 .289.109.571.342.803.001.002.01.01.012.012.228.224 3.979 3.867 7.834 4.486 1.332.215 3.263.212 4.963.148-.06.229-.092.457-.092.686 0 .668.25 1.327.734 1.902 1.718 2.041 4.809 3.129 9.448 3.326 3.083.131 6.303.164 7.818.172.32.555.877 1.215 1.889 1.848 1.594.997 4.734.868 10.834-.445 5.275-1.138 8.018-2.56 9.457-3.711 3.044 1.079 11.826 4.091 15.492 4.22 5.212.19 8.472-1.424 9.297-3.004.322-.619.288-1.291-.09-1.794-.189-.251-.745-.799-1.852-.59-.332-.017-1.007-.511-1.773-1.239 1.936.233 3.772.456 3.898.471.227.072 5.809 1.852 5.809 1.852.009.017.012.012.049.017.005 0 2.476.996 3.691-.629.493-.658 1.098-1.374.902-3.808.002.012-.238-1.311-.234-1.297l-.432-1.336c-1.548-4.329-4.933-6.608-8.814-8.938-.773-.464-1.502-.911-2.203-1.357.343-.788.627-1.699.627-2.699 0-.442-.054-.899-.182-1.365-.037-.141-.096-.273-.178-.391-.019-.029-.022-.038-.037-.063.542-.506 1.358-1.421 1.797-3.474.004-.018.01-.035.014-.053.422-1.534.633-3.18.633-4.885 0-9.095-5.868-19.84-16.051-23.781h-.002c-1.685-.824-3.974-1.398-6.367-1.514zm45.974 7.625 2.32 3.815-6.09 23.414-.05.209h13.65l.84-3.145 1.3-4.843h-4.91l-.96 3.597h-3.12l1.91-7.099h6.27l1.28-4.768h-6.28l1.78-6.652h3.02l-.95 3.531h4.95l2.15-8.059zm18.08 0 2.29 4.528-5.04 18.822-1.1 4.088h13.44l1.87-6.977.27-1.011h-4.87l-.55 2.056-.41 1.541h-2.95l.24-.906 5.93-22.141zm32.89 0 2.32 4.528-.77 11.263-.8 11.647h6.72l5.68-14.004 1.39-3.42-.41 3.221-1.82 14.203h6.45l7.58-16.684 4.89-10.754h-5.49l-5.24 11.94-2.03 4.627.54-4.324 1.51-12.243h-6.42l-5.96 14.452-.89 2.148.25-2.018 1.81-14.582zm66.5 0 1.4 2.307.92 1.508-6.14 23.623h13.65l2.14-7.988h-4.9l-.97 3.597h-3.12l1.9-7.099h6.28l1.28-4.768h-6.28l1.78-6.652h3.02l-.94 3.531h4.93l2.16-8.059h-4.36zm-136.7.002 2.328 4.493-6.147 22.945h11.352l4.653-3.399 5.53-19.927-2.83-4.112zm57.846 0 1.18 4.528-6.84 15.236-3.45 7.672h5.35l3.48-7.988h4.02l-.77 7.988h5.59l.81-10.725 1.25-16.711zm44.97 0 1.2 4.528-2.33 5.177-7.97 17.731h5.36l3.47-7.988h4.01l-.77 7.988h5.6l1.51-20.008.56-7.428zm14.69 0 2.37 4.219-.51 1.893-5.71 21.326h5.69l3.06-11.459h2.44l.98 1.201-2.75 10.258h5.7l3.14-11.731-1.75-2.023 2.83-1.99 2.22-7.582-.75-1.069-2.14-3.043zm-109.56 4.528h2.869l.732.886-4.486 16.741-1.197.857h-2.871zm117.53 0h2.78l.73.855-1.23 4.598-1.61 1.164h-2.44l1.68-6.256zm-62.86 3.496-.85 7.922h-2.57zm44.99 0-.06.49-.8 7.432h-2.57l3.2-7.397z" fill="#ffd200" transform="matrix(.8 0 0 -.8 112.69 451.81)"/><path d="m166.84 446.57c-2.375 1.182-6.779 1.726-9.862.226-3.826-1.498-5.617-5.215-6.116-7.875-1.367 2.666-.661 6.777-.437 7.503-1.345-.351-1.816-.906-3.24-2.109-2.679-3.431-2.568-5.008-2.377-7.794-.593.324-2.187 2.261-1.928 2.914-1.539-.524-2.016-2.343-2.063-3.918-.041-.514.717-1.631.491-2.063-2.665-.1-4.954-1.074-6.155-2.392.315-.946 1.983-.485 2.902-.683-.82-.407-1.57-.858-2.223-1.408-1.855-1.569-2.956-3.49-1.532-5.22.175-.141.495-.088.74-.077-.005-.011-.01-.02-.014-.031-1.778-.998-3.964-1.87-7.977-3.439-4.253-1.662-3.954-5.517-2.492-4.335s5.007 1.453 5.007 1.453-4.04-2.583-7.725-4.469c-3.686-1.886-4.455-1.143-4.455-1.143s2.887-2.855 5.706-3.309c1.581-.253 4.567-.105 6.518.07-1.366-.5-2.263-1.588-1.397-2.619 1.163-1.382 3.427-2.144 6.797-2.287s6.923-.139 6.923-.139.023-.801 1.356-1.635c1.334-.835 5.275-.072 7.888.491 4.719 1.017 6.673 2.293 7.456 3.038l-4.972 1.416c-4.94.747-8.737 2.631-11.27 5.201-.439.395-.712 1.249-1.424 1.496-.564-.055-1.862-.441-2.43-.286-.379.679 2.494 1.358.771 2.064-1.457-.451-3.278-.387-4.643.089-.559.945 1.926 1.362 2.355 1.469 1.561.441 3.856.493 5.411.843.221.256-.884.9-1.144 1.028-1.214.265 1.196.201 1.48.23.788.101.382.154.683.851-.282.276 1.44-.282 1.561-.226.317-.147.778-.386 1.241-.321.1.505-.511.61-.764 1.134 1.441-.43 2.833-.756 3.998-1.425-.121.852-1.039 2.602-1.365 3.473-1.017 3.117-2.016 6.439 2.663 7.97 3.718 1.185 7.21-2.173 9.188-3.704-.009-.001-.016-.003-.026-.005.15-.06.26-.111.313-.137.48-.241 3.406-3.262 4.701-4.461 1.294-1.199 4.076-3.741 5.515-4.173 1.439-.431 2.974-.575 3.741-.144.768.432.96.672.96.672s.191 1.391.239 1.774c.048.384.096 1.103.096 1.103s.911.528 1.103.432.384-2.782-.623-3.741c0 0 .911-.383 3.741-2.207 1.154-.742 2.313-1.496 3.33-2.378-1.874 1.759-4.247 2.926-6.459 4.436.623 1.109 1 2.227.694 3.354-1.08 1.6.618.578 1.263 3.679 1.99 7.067-2.388 18.156-11.719 21.744" fill="#fff"/><g transform="matrix(.8 0 0 -.8 112.69 451.81)"><path d="m59.885 6.451c-2.952.266-5.123 1.505-6.742 2.858-3.311 2.947-3.807 6.109-4.704 9.205-1.16.275-1.324-.388-1.548-.78-.719-2.611-2.425-5.082-1.235-8.765-2.901 2.523-4.231 6.521-4.121 9.41-.185.757.976 1.878-.537 2.189-1.421-.39-3.67-1.622-3.885-3.047-1.852 2.014-.009 4.035-.019 5.663-2.718.367-5.838 1.044-7.506 2.558 1.384.056 2.803-.196 4.078.147.078 1.042-1.837 1.283-2.758 1.925-2.332 1.538-4.89 5.386-2.256 6.555.033-.145 1.627-4.392 4.799-5.527.26-.355-.247 1.034.012 1.435-1.64 1.507-2.681 3.007-3.334 4.629-.697.868-1.892 1.908-3.9 2.674-4.143 1.581-6.136 2.313-7.647 2.744-1.512.432-1.974.89-2.906 1.592s-1.252 2.09-1.252 2.09 1.959-1.639 6.209-1.82c1.71-.075 3.662.748 3.662.748s-1.786.723-3.84 2.144c-2.169 1.501-2.416 1.741-3.49 2.428-1.121.717-2.966 1.584-3.717 1.957s-4.15 1.422-4.15 1.422.878 1.188 3.582 1.629c1.57.255 3.973.257 5.306.314 1.337.056 5.073.148 5.645.106.569-.045-.261 1.105-1.467 2.005-1.309.98-1.132 2.697 1.361 3.295 2.493.599 4.09.868 6.94.649 2.849-.218 6.469-.18 6.469-.18s-.338 2.064 1.964 2.678c2.303.614 6.658-.108 9.873-.828 2.839-.636 5.661-2.463 6.286-2.883.144.006.228-.011.129-.09l-2.868-.211-3.156-.41c-6.119-1.188-11.448-3.955-14.664-7.197-.702-.722-2.478-.035-3.617-.324-.195-.184-.318-.361-.322-.51-.024-.79 1.086-1.977 1.086-1.977s-1.275.096-3.049-.084c-1.907-.192-2.312-.929-2.145-1.73.135-.644.542-.911 1.557-1.58-.017-.041-.031-.088.012-.006 2.124-1.037 4.334-.987 6.199-1.709-.202-.036-.363-.115-.565-.149-.166-.344.113-.778.551-1.019.798-.389 1.888-.427 2.772-.381-.255-.4-.849-.734-.401-1.203.881-.218 1.699.07 2.528.127-.369-.379-.572-.791-.073-1.158 1.614-.104 3.237.696 4.367 1.373-1.113-3.175-2.982-6.55-2.197-9.621.743-1.893 1.317-4.434 7.139-5.372 2.913-.219 6.37.951 9.281 3.198 4.443 3.814 7.772 7.738 11.666 11.816 1.391.964 2.499 2.099 4.688 2.67.845.093 1.812.308 2.576-.15 1.065-.975.739-2.155 1.088-3.209.419-1.296-1.907-.252-2.752-1.1-1.009-.17-2.174-3.071-2.262-.973-.997.356-.708-.571-1.219-.732-.174.15-.621.241-.834.059-1.531-3.656-4.634-6.614-7.199-9.604-.227-.218-1.028-.468-.68-.766 7.109 1.946 9.096 6.792 13.104 10.469.541.607 1.667 1.02 2.894.504.983-.769 1.934-1.722 2.079-2.695.617-6.705-.197-14.589-6.272-20.488-2.06-3.249-7.495-7.047-14.613-6.987zm-10.533 20.09c-.569.023-1.146.119-1.727.305-5.847 1.912-4.599 6.065-3.326 9.963.407 1.088 1.555 3.275 1.705 4.339-1.455-.835-3.196-1.243-4.998-1.781.317.653 1.08.786.955 1.416-.577.082-1.155-.215-1.551-.398-.151.069-2.304-.628-1.953-.283-.376.87.133.937-.853 1.064-.354.034-3.365-.045-1.848.285.324.162 1.704.966 1.43 1.285-1.944.437-4.814.504-6.764 1.055-.536.133-3.644.655-2.945 1.836 1.706.595 3.982.675 5.804.111 2.154.882-1.438 1.733-.963 2.58.711.195 2.333-.289 3.037-.357.889.309 1.231 1.375 1.778 1.869 3.168 3.213 7.916 5.569 14.09 6.502l6.215 1.772.173.048s11.033 3.598 14.151 4.256c3.116.66 4.496.121 5.814-.119 1.319-.239 3.297-1.2 3.836-1.92.54-.718.241-.478.121-.777-.105-.259-.483-.067-.847.025-.059.015-.116.027-.172.035-.409.053-1.321-.601-1.321-.601-.047-.033-.146-.124-.281-.256-.871-.852-3.248-3.447-3.248-3.447s1.072.287 1.852.287c.778 0 4.317.599 5.037.599.718 0 .778.24 2.517.899 1.739.66 4.916 1.379 4.916 1.379s2.639.539 1.799-4.137c-.497-2.771-1.965-4.717-3.81-6.318-1.271-1.104-2.722-2.046-4.164-2.975-3.539-2.278-4.676-2.758-4.676-2.758 1.26-1.199 1.019-4.556.779-4.676-.239-.119-1.379.541-1.379.541s-.059.897-.119 1.377c-.06.479-.299 2.219-.299 2.219s-.242.3-1.201.84c-.959.539-2.877.359-4.676-.182-1.799-.539-5.275-3.716-6.894-5.214-1.618-1.5-5.277-5.276-5.875-5.577-.067-.034-.206-.095-.393-.172.011-.001.02-.003.031-.005-2.163-1.673-5.774-5.098-9.757-4.934zm9.089 5.389c.437-.028.858.07 1.141.367 2.75 2.611 5.42 5.314 8.281 7.902-2.947.139-1.892 3.466-.82 4.908.744 1.177 2.213.743 3.121.707.574 1.018-1.51 1.709-2.844 2.133-2.206-.985-5.351-1.625-6.963-3.033-3.917-3.241-5.602-8.228-3.683-12.137.264-.408 1.039-.802 1.767-.847zm20.78 7.002c.377-.026.374.383.291.521-.192.464-.144.944-.227 1.461-.634-.531-.605-1.377-.25-1.943.07-.024.132-.036.186-.039zm-10.68 2.408c.3.048.349.436.287.59-.141.597.014 1.169.018 1.81-.878-.537-1.009-1.569-.694-2.312.161-.08.289-.104.389-.088zm9.117 1.39c6.337 3.275 13.368 8.453 12.094 14.196-11.481-4.189-21.368-1.569-29.777-5.205-.342-.195-.357-.609-.563-.907 1.516-.423 3.248-.285 4.906-.55.611-.39-.393-.299-.627-.401-3.399-.021-6.977-.156-10.406.774-.253.239-.07.617.199.789 1.613.273 2.47-.619 4.151-.586 1.478 3.494 4.954 4.922 8.658 6.961 3.127 1.363 7.852 3.038 11.721 3.263-.859.894-2.739.449-4.073.497-6.794-1.179-13.769-3.225-20.041-5.608-1.179-.401-2.063-1.202-3.16-1.432-.359.15.016.413-.248.504-5.629-1.946-11.064-5.351-10.793-8.318-.035-.939.822-1.651 1.653-1.973 6.281-1.778 11.23-.229 17.308 1.245 3.127 1.528 10.032 3.428 13.526 4.906.74-.758-5.147-1.841-3.163-2.324 3.903-.922 3.203-3.699 3.364-5.395 1.476.377 3.292.687 4.681-.127.19-.116.277-.321.59-.309zm-1.525 2.202c-.745-.019-2.023.686-1.86 1.017 1.33.331 3.701.344 5.028.791-.572-.79-1.594-1.375-2.887-1.754-.079-.035-.175-.052-.281-.054zm-13.492 8.849c1.886.37 4.364 1.107 7.418 1.317 1.257 1.065 2.245 2.338 2.791 3.588-3.922-1.352-7.447-2.899-10.209-4.905z" fill="#00539f"/><path d="m54.891 5.031c-.033.013-.063.028-.094.043.018-.01.036-.013.053-.021.015-.006.027-.016.041-.022zm3.55 26.899c-.728.045-1.504.439-1.767.847-1.919 3.909-.234 8.896 3.685 12.137 1.612 1.408 4.755 2.048 6.961 3.033 1.333-.424 3.418-1.115 2.844-2.135-.908.037-2.377.472-3.121-.705-1.072-1.442-2.127-4.769.82-4.908-2.861-2.588-5.531-5.291-8.281-7.902-.283-.297-.703-.395-1.141-.367zm20.78 7.002c-.054.003-.118.015-.188.039-.354.566-.383 1.412.252 1.943.083-.518.035-.997.229-1.461.082-.138.084-.547-.293-.521zm-10.68 2.41c-.1-.016-.229.003-.391.084-.315.744-.182 1.777.696 2.316-.004-.642-.158-1.216-.018-1.812.063-.154.014-.54-.287-.588zm28.762.49 1.515 2.955-4.006 14.955h7.388l3.06-2.215 1.42-5.304-1.21-1.436 1.96-1.387 1.44-5.351-1.87-2.217zm12.767 0 1.49 2.066-4.01 15.844h8.78l1.39-5.215h-3.18l-.63 2.348h-1.92l4.03-15.043zm10.74 0 1.51 2.955-3.41 12.74 1.84 2.215h4.97l3.04-2.215 4.23-15.695h-3.7l-3.88 14.486-.78.557h-1.25l-.48-.557 3.88-14.486zm14.93 0-.78 2.955-4.01 14.953h8.91l1.4-5.213h-3.2l-.63 2.348h-2.04l1.24-4.631h4.1l.83-3.113h-4.09l1.16-4.344h1.97l-.62 2.309h3.23l1.4-5.264zm15.42 0 1.5 2.932-4.02 14.978h3.68l2-7.498h2.38l-2.01 7.498h3.67l4.8-17.91h-3.67l-1.95 7.275h-2.38l1.95-7.275zm15.09 0-.77 2.955-4.01 14.953h8.91l1.39-5.213h-3.2l-.63 2.35h-2.03l1.24-4.635h4.09l.84-3.109h-4.1l1.17-4.346h1.96l-.61 2.309h3.22l1.41-5.264zm11.54 0-.66 2.932-4.02 14.978h3.34l2.44-9.111 1.21 9.111h3l4.8-17.91h-3.36l-2.4 8.957-1.25-8.957zm14.64 0-2.8 2.934-1.49 5.574 1.63 1.926h3.61l.3.359-.99 3.693-.77.557h-1.33l-.47-.557.48-1.791h-3.68l-.8 3 1.87 2.215h4.99l3.06-2.215 1.73-6.449-1.61-1.947h-3.63l-.3-.383.9-3.355.79-.606h1.21l.48.559-.47 1.75h3.67l.82-3.049-1.87-2.215zm-164.44 1.674c0 .007.008.03.016.051.004-.003.01-.004.013-.008-.021-.041-.029-.05-.029-.043zm74.498 1.281h1.88l.48.559-.87 3.226-.99.537h-1.66zm-2 7.455h1.66l.64.807-.89 3.289-.77.539h-1.876zm-21.578 6.555c.135.131.234.222.283.254 0 0 .91.652 1.319.599.055-.006.114-.02.172-.035-.524-.004-1.148-.338-1.774-.818z" fill="#fff"/></g></g></svg>