<svg clip-rule="evenodd" fill-rule="evenodd" stroke-linejoin="round" stroke-miterlimit="2" viewBox="0 0 560 400" xmlns="http://www.w3.org/2000/svg"><g fill-rule="nonzero" transform="matrix(.618332 0 0 .618332 -.459802 12.8455)"><path d="m628.4 319.9c0 1.7 0 2.4.1 1.5.1-1 .1-2.1 0-3.1-.1-.9-.1-.1-.1 1.6z"/><path d="m179.1 230.8-.8.8v44.9l-.9-.8c-.9-.7-1.8-1.4-2.7-2-1-.7-2.2-1.4-2.6-1.7-2.3-1.3-4.7-2.5-7.2-3.4-.2 0-.5-.1-.6-.3-.7-.4-1.6-.8-2.4-.9-1.2-.4-2.8-.8-3.6-1.1-6-2-24.2-1.9-28 .1-.9.3-1.8.6-2.7.8s-1.8.5-2.6.9c-.6.3-1.2.6-1.9.8-2.8 1.1-5.5 2.5-8.1 4.2-1.2.7-2.3 1.5-3.3 2.3-.4.3-.8.6-1.2.9-2.8 2-9.4 9-11 11.7-.3.5-1 1.6-1.4 2.3-1.6 2.6-3.1 5.4-4.3 8.3-.2.6-.5 1.3-.8 1.9-.4.9-.7 1.8-.9 2.8-.2.9-.5 1.8-.8 2.7-1.8 3.5-1.8 25.5 0 27.8.3.8.6 1.6.8 2.5.3 1.1.6 2.1 1 3.1.2.5.7 1.6 1 2.5s1.1 2.4 1.6 3.5l1.8 3.3c.7 1.1 1.4 2.3 2.2 3.3.6.7 1.1 1.4 1.5 2.2 0 .6 7.3 7.8 9.9 9.8 4.8 3.6 10.8 6.9 14.3 8 .7.2 1.4.4 2 .8 3 .9 6 1.6 9.1 2.1 4.3.8 16 .6 17.7-.3.9-.3 1.8-.5 2.7-.6 3.7-.8 7.2-2 10.6-3.5.6-.3 1.2-.6 1.9-.8.3-.1.5-.2.7-.4.6-.4 1.2-.8 1.8-1.1.7-.3 1.3-.7 1.8-1.2.2-.2.4-.4.7-.5.4-.2.9-.4 1.2-.8.3-.3.7-.6 1.1-.8.3-.1.5-.2.7-.5.8-1 .9-.4.9 4.2v4.7l2 1.8 17-.2 1.8-1.8.1-66.1c.1-62.1 0-66.1-.5-66.7-.7-.7-1.5-1.3-2.4-1.8l-3.4-2.2-4.4-2.8c-5.6-3.6-5.4-3.6-7.1-3.6-1.3.1-1.7.2-2.3.9zm326.9.2-.8 1 .2 14.2 1.1.9c1.8 1.5 3.8 2.8 5.9 3.9.3.1.6.3.6.4.4.4.9.8 1.4 1 .7.4 1.3.7 1.9 1.2 1.6 1.3 3.4 2.3 5.3 3.2.3 0 .6.1.8.4.3.3.6.2 1.5-.2 2.4-1.2 2.3-.3 2.3-13.5v-11.8l-1.6-1.8h-17.7zm-242.4 33.6c-.7.1-2.6.4-4.4.6-1.6.2-3.1.4-4.6.8-2.2.5-4.3 1.2-6.4 2.1-.7.4-1.4.7-2.2.9-.8.3-1.6.6-2.3 1.1-.6.4-1.2.8-1.9 1.1-1.4.7-2.8 1.4-4.1 2.3-3.1 2.1-5.9 4.4-8.5 7.1-3.1 3.1-6.5 7.3-6.5 8 0 .2-.1.4-.3.4-.4.1-2 2.8-3.5 6-2.2 4.6-2.6 5.5-3.2 7.6-.2.8-.4 1.6-.8 2.3-.4.5-1.2 5.4-1.4 8.5 0 1-.2 2.1-.4 3-.3 2.1-.3 4.3 0 6.5.3 1 .4 2 .4 3 .2 3.1 1 8 1.4 8.5.3.6.5 1.3.6 2 .2 1 .6 2 1 3 .3.7.9 2 1.2 2.9.2.7.5 1.3.8 1.9.4.6.7 1.2 1 1.8.2.6.6 1.2 1 1.6.1 0 .3.3.4.7 1.3 4.1 15.2 18.3 18 18.3.2 0 .3.1.3.2 0 .4 8.4 4.5 10 4.9.7.2 1.5.5 2.2.8 1.5.5 3 .9 4.5 1.1 1.4.2 2.7.5 4 .9 1 .5 15.2.5 15.8 0 .7-.3 1.5-.5 2.3-.6 2.1-.3 4.2-.7 6.2-1.4.3-.1 1.4-.5 2.3-.8.8-.3 1.7-.6 2.5-.9.4-.2 2-1 3.5-1.7 2.8-1.4 5.5-3 8-4.8 3.7-2.5 13-11.8 13.3-13.3.4-1.7-.6-3.5-2.3-3.9-.6-.2-1.3-.4-1.9-.7-1.3-.4-2.5-.7-3.9-1-1.2-.2-2.5-.5-3.7-.9s-2.5-.7-3.7-.9c-1.3-.2-2.7-.6-3.9-1-.4-.3-.6-.2-.9 0s-.6.4-.9.4c-1 .5-1.9 1.1-2.6 1.9-3 2.8-6.5 4.9-10.3 6.4-.6.2-1.2.4-1.8.8-1.1 1.6-17.8 1.6-19.9 0-.8-.4-1.6-.7-2.5-1s-1.7-.6-2.5-1.1c-.5-.4-1.1-.7-1.8-.9-.5-.2-1-.4-1.4-.8-.3-.4-.6-.7-1.1-.9-2.4-1.5-8.5-7.6-8.5-8.6-.2-.4-.4-.8-.7-1.2-1.3-2.1-2.4-4.4-3.3-6.7 0-.3 11.2-.4 42.1-.4h42.1l2.2-2.4-.1-8.3c-.1-5.2-.3-8.5-.5-8.9-.4-1.2-.7-2.4-.9-3.6-.2-1.4-.6-2.8-1.1-4.2-.3-.7-.6-1.4-.8-2.2-.3-1-.7-1.9-1.1-2.9-.3-.7-.6-1.4-.9-2.1-.4-.9-.8-1.7-1.3-2.5-.7-1.3-1.5-2.6-1.7-3-1-1.7-2.1-3.3-3.4-4.7-.3-.3-.5-.6-.7-1-.3-.5-.6-1-1.1-1.4-4.8-5.1-6.1-6.2-10.5-9.2-3.7-2.5-4.3-2.9-5.2-3.3-.5-.2-1-.5-1.4-.8-.7-.4-1.5-.8-2.3-1-.7-.3-1.5-.6-2.2-.9s-1.5-.6-2.3-.8c-.9-.2-1.8-.5-2.6-.8-2.8-1.4-15.6-2.6-18.9-1.9zm326.9.3c-3.1.1-6.1.5-9.1 1.3-.4.2-1.9.6-3.2 1-1.2.3-2.3.7-3.4 1.2-.4.2-.8.4-1.2.5-.7 0-6.2 3-9 4.8-4.1 2.7-10.7 8.9-12.7 11.8-.5.7-1 1.4-1.6 2.1-.4.4-.7.8-.9 1.3-.1.3-.3.6-.4.6-.4.4-.8 1-1 1.5-.2.6-.5 1.1-.9 1.6s-.7 1.1-.9 1.8c-.3.7-.6 1.5-1 2.1-.4.7-.7 1.4-.9 2.2-.2.7-.5 1.4-.8 2-.4.9-.7 1.8-.9 2.8-.3 1.1-.6 2.2-1 3.3-1.7 3.6-1.7 25.1 0 26.3.3.6.5 1.3.6 2 .8 2.9 1.8 5.8 3.1 8.6.4.6.7 1.2.9 1.9.3.7.6 1.3 1 1.9.3.3.5.7.7 1.1.9 1.6 1.9 3.2 3.1 4.7l2 2.4c.5.7 1.1 1.3 1.7 1.8.1 0 .3.2.3.4.4.7.9 1.3 1.5 1.8 2.2 1.9 3.7 3.3 4.5 4 .2.3.5.5.8.6.7.4 1.3.8 1.8 1.2.6.5 1.3.9 2 1.2.2 0 .4.1.4.2 0 .6 7.6 4.3 10.2 5.1.6.2 1.2.4 1.7.6 1.8.7 3.7 1.1 5.5 1.4.6.1 1.3.2 1.9.5 1.2 1 17.6 1 19.5 0 1.1-.4 2.2-.6 3.3-.8 1.3-.2 2.5-.6 3.7-1 .5-.2 1.9-.7 3-1.1.8-.2 1.5-.5 2.1-.9 0-.2.2-.3.5-.3.6-.1 1.3-.4 1.8-.7 1.7-.8 3.4-1.8 4.9-2.9.2-.2.4-.4.7-.4 2.1-1.3 4.1-2.8 5.9-4.4 1.9-1.7 3.8-3.6 5.5-5.6.9-1.1 2-2.5 2.5-3.1.4-.5.7-1.1 1.2-1.5.3-.4.6-.9.9-1.4.2-.4.4-.8.7-1.1 1-1.5 1.9-3.1 2.7-4.8.3-.6.6-1.2.7-1.9 0-.3.2-.5.3-.5.5-.6.8-1.3.9-2.1.3-1 .7-2.1 1.1-3 .4-1.3.8-2.6 1-3.9.2-1.1.4-2.2.8-3.3 1-1.2 1-17.8 0-19.7-.4-1.3-.8-2.6-1-4-.2-1.2-.5-2.4-.9-3.6-.3-.6-.6-1.3-.8-2-.3-.9-.6-1.7-1-2.6-.4-.8-.8-1.6-1.1-2.4-.2-.6-.5-1.2-.9-1.7-.2 0-.5-.6-.8-1.4-.2-.6-.5-1.2-.9-1.6s-.7-.9-1-1.4c-.4-.7-.8-1.3-1.3-1.8-.3-.3-.6-.6-.7-1s-.3-.7-.6-1c-.3-.4-1.2-1.3-1.9-2.2-4.2-4.9-12.2-11.2-16-12.6-.5-.2-1.1-.5-1.5-.8-.6-.4-1.2-.7-1.8-.9-.8-.3-1.9-.8-2.6-1.1-.9-.4-1.9-.7-2.9-1-.9-.2-1.8-.5-2.6-.8-2.5-1-11.8-1.6-18.2-1.3zm-214.2.2-3.4.5c-1.2.1-2.4.4-3.5.8-.5.2-1.5.6-2.3.8-3.3 1-9.4 4.4-13 7.2-3.2 2.6-9.5 9.7-9.5 10.7 0 .2-.2.4-.4.5-.5.2-4 7.3-4.7 9.6-.2.8-.5 1.5-.8 2.3-.8 2.4-1.3 4.9-1.5 7.4 0 .6-.2 1.2-.4 1.3-.5.2-.8 64.3-.2 66 .3.8.8 1.5 1.4 2.1l1.1 1h7.9c12.3 0 10.9 4.4 10.9-34 0-31.1.1-34.7 1.1-36.9.2-.5.7-1.6.9-2.5.4-1.2 1-2.3 1.6-3.4.4-.6.7-1.3 1-1.9 0-1.5 7.6-7.6 11-8.7.7-.2 1.4-.5 2.1-.9.3-.4 9.8-.4 10 0 .7.4 1.5.8 2.4 1 1.1.4 2.1.9 3.1 1.5.4.3.8.6 1.2.8.3 0 1.2.9 3.2 2.8 2.1 2.1 2.7 2.8 3.2 3.9.3.6.6 1 .8 1s.4.5.6 1.2.7 1.7 1 2.4c.9 2 1.5 4.2 1.7 6.5 0 .7.2 1.4.5 2 .1.1.3 14.4.3 31.8v31.6l2 1.8h16.5l1.1-.9c1.5-1.2 1.5.9 1.5-32.3 0-32.2 0-33.6 1.5-38.1 1.4-4.3 4.4-9.3 6.6-11.3 1.2-1.1 2.6-2.1 4-3 .4-.2.8-.4 1.1-.8.6-.4 1.3-.7 2-.9 1-.3 2.2-.8 2.6-1 1-.5 8.9-.5 9.9 0 .4.2 1.6.7 2.7 1 .9.3 1.8.7 2.5 1.3.3.3.6.5 1 .6.7 0 5.8 5.2 7 7.2 1.7 2.6 2.9 5.6 3.6 8.6.2.9.4 1.9.7 2.8.1.1.2 14.7.2 32.5 0 31.6 0 32.3.6 33.3l.6 1h17.7l2-1.8v-33.1c0-33-.1-37.3-1.1-39.1-.3-.9-.6-1.8-.8-2.7-.2-1.1-.5-2.1-.9-3.1-.2-.5-.6-1.4-.8-2-.9-2.1-1.9-4.2-3-6.2-.3-.4-.6-.8-.8-1.2-1.1-2-6.8-9-7.3-9-.5-.3-1-.8-1.4-1.2-.4-.5-1-.9-1.6-1.2-.3 0-.5-.2-.6-.4-1.6-1.3-3.4-2.5-5.2-3.6-2.4-1.4-5-2.5-7.6-3.4l-3.1-.9c-5.5-1.6-15.8-1.3-21.9.7-7.3 2.3-12.6 5.7-18.4 11.7-.9 1-1.9 2-3 2.8 0-.4-5.2-5.7-6.6-6.8-.5-.4-1.9-1.3-3.1-2.1l-3-2c-.3-.2-.6-.4-1-.6-.1 0-1.2-.5-2.4-1.1s-2.5-1.1-3.8-1.4c-.6-.1-1.3-.3-1.9-.6-1.2-1.5-11.5-2.5-15.4-1.9zm130.6.2c-.6.3-1 .7-1.3 1.2-.5 1.2-.5 106.4 0 107.1 1.2 1.5 1.5 1.5 10.1 1.5h8.2l2.2-2v-53.1c0-41.3-.1-53.3-.4-53.6-1.2-1.5-1.4-1.5-9.9-1.5-5.9 0-8.2.1-8.9.4zm-233.1 21.1c.9.1 1.8.3 2.6.6.9.4 1.8.7 2.7 1 .9.2 1.8.5 2.6 1 0 .1.6.5 1.3.8 1.9.9 3.6 2 5.3 3.3 1.4 1.1 7 6.9 7 7.3.1.4.3.7.6 1 1.4 2.1 2.5 4.3 3.4 6.6l.3.9h-63.2l.2-.7c.8-1.9 1.6-3.8 2.6-5.5.3-.4.6-.9.9-1.3.4-.6.8-1.3 1.3-1.9.3-.4 1.1-1.3 1.7-2.1.8-.9 1.6-1.8 2.5-2.6.8-.6 1.7-1.4 2-1.7.6-.5 1.2-.9 1.9-1.3.5-.3 1-.6 1.4-1 2.1-1.2 4.2-2.2 6.5-3 .8-.2 1.5-.5 2.2-.8 1.9-1 8.4-1.3 14.2-.6zm-124.1 0c.9.1 1.9.2 2.7.6 0 .1.5.3 1 .4 1.7.3 3.3.9 4.8 1.6.6.4 1.2.7 1.9.9.6.1 1.1.4 1.6.8 0 .1.6.5 1.2.9s1.2.8 1.2.9.2.4.5.5c1 .3 6 5.4 7 7.3.3.5.7 1 .8 1 .4.4.7 1 .9 1.6s.5 1.1.9 1.5c.4.5.6 1 .8 1.6.2.8.5 1.5.9 2.3.9 2.2 1.4 4.6 1.6 7 0 .8.2 1.6.5 2.3.4.2.3 4.8 0 4.8-.2 0-.3.5-.3 1-.2 2.4-.7 4.9-1.4 7.2-.2.5-.7 1.8-1.1 2.8-.2.7-.5 1.4-.9 2-.3.4-.6.8-.8 1.2-2 3.5-4.7 6.7-7.8 9.3-1.4 1.2-2.9 2.3-4.6 3.2-.4.1-.8.3-1.1.6-.8.6-1.7 1-2.6 1.4-.7.3-1.5.6-2.2 1-2.3 1.8-20.3 1.9-21.8 0-.5-.3-1.1-.6-1.7-.8-2-.8-3.9-1.8-5.7-3-.5-.4-.9-.7-1.4-1-3.4-2.6-6.2-5.7-8.5-9.2-.3-.6-.7-1.2-1.2-1.8-.3-.3-.5-.7-.6-1-.2-.6-.4-1.2-.7-1.8-.5-1.2-.9-2.4-1.3-3.6-.2-.9-.5-1.7-.8-2.5-.9-1.2-.9-14.1 0-14.8.3-.8.6-1.5.8-2.4 1.6-5.3 4.4-10.1 8.2-14.1 2.3-2.3 6.9-5.6 9-6.4.5-.2 1-.4 1.4-.8 1.6-.7 3.3-1.3 5.1-1.6.3 0 .5-.1.5-.3.2-.7 8.7-1.1 13.2-.6zm450.5 0c.9.1 1.9.3 2.7.6.7.3 1.4.6 2.2.8 1.9.5 6.5 2.5 6.8 3 .4.3.8.6 1.3.9 3.2 2.3 6.1 5 8.6 8.1.3.5.6.9 1 1.3.4.5.7 1 .9 1.5.3.6.7 1.2 1.1 1.8.4.7.7 1.4.9 2.1.1.6.4 1.2.8 1.7.4 1 .7 2 .9 3 .3 1.7.8 3.6 1 4.4.4 2.8.4 5.6 0 8.5-.2.6-.5 2.3-.8 3.8-.9 4.2-2.7 8.1-5.1 11.6-.4.4-.7.9-.9 1.4 0 1-7.5 7.4-10.2 8.7-.4.2-.9.5-1.2.8-.6.4-1.3.7-2 .9-1 .4-2.3.9-2.8 1.1-3.8 1.8-19.9 1.7-21.1-.1-.7-.4-1.5-.7-2.2-1-.7-.2-1.4-.5-2.1-.9-.5-.4-1.1-.7-1.7-1-.6-.2-1.2-.6-1.7-1-.4-.4-.8-.8-1.3-1-2.7-2.2-5.1-4.6-7.3-7.3-1.4-2-2.8-4.4-2.8-4.5s-.4-1-.9-2.1c-.6-1.3-1.1-2.7-1.4-4.1-.2-1-.5-1.9-.9-2.9-.5-1-.5-11.5 0-12.5.4-1.2.8-2.3 1.1-3.5.2-1 .5-2 .9-3 .4-.6.7-1.2 1-1.9.8-1.9 1.8-3.7 3.1-5.3.4-.5.8-1.1 1.1-1.6 0-.6 6.3-6.1 7.8-7 .4-.2.8-.4 1.1-.7.3-.5 4.9-2.5 6.6-3 .8-.2 1.7-.5 2.5-.8 1.6-1 8.7-1.3 13-.8z" fill="#2a3336"/><path d="m736.7 230.4c-1.1.1-2.3.3-3.4.5-1 .3-1.9.5-2.9.6-1.4.2-2.7.5-4 .9-.9.3-2.7.9-4 1.2-.9.2-1.8.6-2.6.9-.7.4-1.4.7-2.1.9s-1.4.5-2 .9-1.3.7-1.9 1c-.7.2-1.3.5-1.8 1 0 .1-.3.3-.7.4-.9.2-3.3 1.8-7.6 4.8-2.1 1.5-4.1 3.2-6 5-3 2.8-5.8 5.8-8.3 9.1-.6.8-1.3 1.6-1.5 1.9s-.7 1-1.2 1.7c-.4.6-.8 1.3-1.3 1.8-.3.2-.4.5-.5.9-.3.6-.6 1.2-1 1.7-.5.7-.9 1.5-1.3 2.3-.2.5-.4.9-.6.9-.4.6-.8 1.2-.9 1.9-.2.7-.5 1.3-.9 1.9s-.7 1.4-.9 2.1c-.3.9-.7 1.9-1.1 2.7-.4.9-.7 1.7-.9 2.6-.2.8-.4 1.6-.8 2.3-.6 1.9-1.1 3.8-1.4 5.8-.1.6-.3 1.2-.5 1.7-.9 2.1-1 6.1-1.2 37.9-.1 23 0 32.8.2 34.1 1 5 5.9 10.7 10.3 12 .7.2 1.4.4 2 .7 1.1.5 65.8.5 66.4 0 .3-.3.8-.4 1.2-.4 2.9-.3 5.7-.8 8.5-1.5.9-.3 1.8-.6 2.7-.8 1-.2 1.9-.5 2.8-.9.6-.3 1.3-.6 2-.8 4.2-1.2 12-5.5 17.3-9.4.9-.7 2.2-1.6 2.9-2.1 2.3-1.6 8.8-8.1 12.3-12.6 2.5-3.1 4.6-6.5 6.5-10 .3-.7.6-1.3 1-1.9s.7-1.3 1-2 .6-1.5 1-2.2.6-1.4.9-2.2c.2-.8.5-1.6.9-2.3.4-1.1.8-2.2 1-3.3.2-1 .5-1.9.8-2.8.3-.5 1.5-8.2 1.5-10.1-.1-.6.1-1.1.3-1.6.4-.2.4-10 0-10.3-.3-1-.4-2-.5-3-.2-3.1-.7-6.1-1.4-9.1-.2-.3-.6-1.9-.9-3.4-.2-1.1-.5-2.1-.9-3.1-.3-.6-.6-1.3-.8-2-.2-.8-.6-1.6-.9-2.3-.4-.7-.7-1.4-1-2.2-.3-.9-.7-1.8-1.2-2.6-.3-.6-.8-1.5-1-1.9s-.5-1.1-.8-1.4l-2.1-3.3c-1.6-2.5-3.3-4.9-5.1-7.2-3.2-3.8-11.8-11.6-14.8-13.5-.5-.3-1.5-1-2.3-1.5-2.9-1.9-5.9-3.5-9.1-4.8-2.1-1-4.2-1.9-6.5-2.5-.9-.3-1.9-.6-2.8-.9-1.4-.4-2.7-.7-4.2-1-1.3-.2-2.6-.4-3.8-.8-1.9-.7-14-1-20.1-.4zm13 26.7c.9.4 1.9.7 2.9.9.9.2 1.7.5 2.5.9.4.3.9.6 1.4.9 2.9 1.7 5.5 4 7.5 6.7.3.4.6.9.9 1.2 1 .8 3.4 7.6 3.4 9.9 0 .6.1 1 .3 1s.3 4.4.3 12.6c0 6.9-.1 12.6-.3 12.6s-.3.8-.5 1.8c-.2 2.1-1.1 5.5-1.4 5.7-.4.6-.8 1.2-1 1.8s-.5 1.2-.9 1.6c-.1 0-.5.5-.8 1-2.2 3.2-5.2 5.8-8.7 7.5-.5.2-.9.4-1.3.7-.3.4-3.8 1.3-6 1.5-.8 0-1.5.2-2.2.5-.2.4-2 .4-2 0-.7-.3-1.5-.5-2.2-.5-3-.3-8.7-2.3-9.5-3.3-.4-.4-.8-.7-1.2-1-.6-.4-1.2-.9-1.7-1.5-.3-.3-.6-.6-1-.7-.2 0-.4-.3-.5-.6-.2-.5-.5-.9-.9-1.2-.6-.5-1-1.1-1.4-1.8-.3-.6-.7-1.1-1.1-1.7-.2-.2-.3-.4-.4-.7-.2-.7-.5-1.3-.8-1.9-1.7-3.5-1.8-4.4-1.9-18.3-.2-15.1.1-17.7 1.9-21.6 2.4-5.3 6-9.4 10.1-11.5.6-.3 1.1-.6 1.5-1 .8-.4 1.6-.7 2.5-.9 1.3-.4 2.6-.8 2.9-.9 1.4-.3 8.4-.4 9.6.3zm-6.6 7.7c-6.2.8-10.4 3.9-13 9.8l-.9 2v29.3l.9 2.3c1.6 3.6 4.5 6.6 8 8.4l2.5 1.2h4.2c3.7 0 4.3-.1 5.7-.7.8-.4 2-.9 2.5-1.2 1.8-.8 4.9-4.4 6.2-6.9l1.2-2.4.1-13.9c.1-13.3-.1-18.1-.9-18.1-.4-.4-.6-.9-.8-1.4-1.9-5.3-9.2-9.2-15.7-8.4zm3.2 15.7c.8 0 2.5 2.2 2.7 3.5.1.7.2 5.5.1 10.6l-.1 9.2-1.1 1.1c-2.1 2.2-5 1.8-6.3-.8l-.8-1.6v-18.6l.9-1.5c.9-1.5 2.4-2.4 3.6-2.1.3.1.7.2 1 .2zm38.7 33 1.2 1.2-.2 2c-.1 1.2-.4 2.3-.8 3.4-.3.6-.5 1.2-.6 1.8-.9 2.3-2 4.6-3.3 6.8-.3.3-.5.7-.8 1.1-1.5 2.9-7.1 8.5-10.9 11-3 2-6.3 3.7-9.7 4.9-.6.2-1.3.4-1.8.8-.2.3-4.8 1.2-7.4 1.5-.7 0-1.5.1-2.2.5 0 .3-7 .4-7.2 0-.7-.3-1.5-.4-2.2-.5-2.5-.2-7.2-1.1-7.7-1.5-.7-.4-1.4-.6-2.2-.9-2.7-1.1-5.3-2.3-7.8-3.8-3.2-1.8-8.9-7.2-11.7-11-.6-.8-2.8-4.8-3-5.3-.1-.4-.3-.8-.6-1.1-.5-.8-.8-1.7-1.1-2.6-.2-.9-.6-1.7-1-2.5-1.5-1.6.7-5.5 3.3-5.7 1.6-.1 3.5.7 3.5 1.6 0 .3.2.6.4.8.3.5.6 1 .6 1.6.8 5.2 7.2 13.6 13.1 17.3 8.3 5.2 22.8 7.3 29.8 4.3.8-.3 1.5-.6 2.3-.8 2.4-.8 4.6-1.8 6.7-3.2l1.5-.9c.9 0 7.1-6.2 8.3-8.3.3-.5.7-1 .8-1 .4-.4.7-1 .9-1.5.2-.6.5-1.2.9-1.7.4-.8.8-1.6 1-2.4.3-1 .6-1.9 1-2.8.2-.3.3-.7.3-1.1.1-3 4.3-4.3 6.6-2z" fill="#02bf6f"/></g></svg>