<svg clip-rule="evenodd" fill-rule="evenodd" stroke-linejoin="round" stroke-miterlimit="2" viewBox="0 0 560 400" xmlns="http://www.w3.org/2000/svg"><g fill-rule="nonzero" transform="matrix(.790626 0 0 .790626 161.406 100)"><path d="m292.974 16.086c-46.841-10.673-94.991-16.086-143.011-16.086-48.043 0-96.162 5.413-143.003 16.086-3.896.888-6.96 4.72-6.96 8.704v115.981c0 1.84.639 3.573 1.884 4.785 1.461 1.45 3.551 2.164 5.716 1.841 29.553-4.266 59.777-6.431 89.882-6.431 65.449 0 130.867 10.023 194.497 29.813.714.216 1.505.346 2.219.346 3.323 0 5.803-2.511 5.803-5.975v-140.36c-.001-3.984-3.119-7.816-7.027-8.704" fill="#034ea2"/><path d="m294.794 193.339c-5.358 4.459-10.794 9.028-16.142 13.575-1.569 1.342-3.984 2.122-6.603 2.122-1.624 0-3.236-.304-4.591-.89-65.871-28.427-133.616-46.635-201.327-54.169-1.949-.217-3.94-.455-3.854-2.403.087-1.948 2.144-1.992 4.168-2.035 4.188-.064 8.465-.108 12.676-.108 71.815 0 143.597 11.995 213.408 35.637 2.264.801 3.746 2.252 4.06 3.984.293 1.537-.377 3.117-1.795 4.287m-33.278 28.233c-.215-1.818-1.59-3.398-3.787-4.353-82.9-35.918-167.608-55.686-251.72-58.803h-.824c-.931 0-3.193 0-3.431 1.905-.227 1.971 2.014 2.534 3.367 2.88 71.1 17.97 142.514 47.718 212.208 88.378 1.537.866 3.398 1.385 5.304 1.385 2.351 0 4.438-.714 5.965-1.97 10.22-8.53 20.645-16.975 30.906-25.072 1.482-1.146 2.218-2.77 2.012-4.35" fill="#ed1b35"/><path d="m31.058 64.54h6.29c7.21 0 12.438-4.958 12.438-11.756v-.066c0-6.776-5.228-11.69-12.438-11.69h-6.29c-1.688 0-2.999 1.299-2.999 3.009v17.493c0 1.689 1.31 3.01 2.999 3.01m3.009-5.542v-12.428h3.28c3.724 0 6.235 2.49 6.235 6.214v.064c0 3.702-2.511 6.149-6.235 6.149h-3.28zm20.222 2.532v-17.493c0-1.709 1.332-3.009 3.009-3.009h12.438c1.516 0 2.75 1.234 2.75 2.75 0 1.493-1.234 2.706-2.75 2.706h-9.461v3.508h8.021c1.505 0 2.75 1.212 2.75 2.727 0 1.495-1.245 2.729-2.75 2.729h-8.021v3.636h9.624c1.526 0 2.749 1.234 2.749 2.728s-1.223 2.729-2.749 2.729h-12.601c-1.677-.001-3.009-1.322-3.009-3.011m34.824-3.68v-.065c0-.801-.259-1.342-4.125-2.316-4.275-1.104-7.826-2.425-7.826-7.404v-.043c0-4.309 3.464-7.296 8.39-7.296 2.739 0 5.228.671 7.404 2.057.639.368 1.342 1.212 1.342 2.402 0 1.581-1.256 2.837-2.836 2.837-.552 0-1.04-.173-1.526-.455-1.667-.975-3.086-1.429-4.439-1.429-1.439 0-2.349.541-2.349 1.407v.086c0 .996.541 1.429 4.417 2.447 4.525 1.148 7.534 2.857 7.534 7.231v.065c0 4.546-3.453 7.491-8.779 7.491-3.128 0-6.247-.997-8.758-2.794-.682-.519-1.147-1.407-1.147-2.294 0-1.581 1.255-2.836 2.857-2.836.617 0 1.202.195 1.71.584 1.764 1.277 3.54 1.906 5.423 1.906.652 0 2.708-.108 2.708-1.581m25.764-11.214h-4.189v15.089c0 1.689-1.332 3.01-3.021 3.01-1.678 0-2.988-1.321-2.988-3.01v-15.089h-4.232c-1.537 0-2.793-1.234-2.793-2.793 0-1.56 1.256-2.815 2.793-2.815h14.43c1.57 0 2.815 1.255 2.815 2.815 0 1.558-1.245 2.793-2.815 2.793m7.384 15.089v-17.882c0-1.689 1.332-2.988 2.998-2.988 1.678 0 2.988 1.299 2.988 2.988v17.882c0 1.689-1.31 3.01-2.988 3.01-1.667 0-2.998-1.321-2.998-3.01m27.442 1.299-8.931-11.712v10.457c0 1.624-1.331 2.966-2.966 2.966-1.646 0-2.977-1.342-2.977-2.966v-17.862c0-1.689 1.332-3.009 3.021-3.009h.487c1.505 0 2.371.844 3.009 1.667l8.563 11.237v-10.003c0-1.624 1.331-2.944 2.945-2.944 1.666 0 2.998 1.32 2.998 2.944v17.862c0 1.689-1.332 3.032-2.998 3.032h-.174c-1.505-.001-2.349-.867-2.977-1.669m25.678-20.091c-.66-1.472-1.841-2.252-3.324-2.252h-.291c-1.527 0-2.729.78-3.39 2.274l-7.806 17.667c-.173.346-.356.802-.356 1.277 0 1.581 1.246 2.836 2.815 2.836 1.244 0 2.262-.693 2.749-1.862l1.438-3.355h9.181l1.376 3.182c.572 1.321 1.58 2.035 2.856 2.035 1.624 0 2.891-1.277 2.891-2.923 0-.346-.118-.736-.313-1.19zm-1.267 11.15h-4.612l2.305-5.499zm26.207-7.447h-4.21v15.089c0 1.689-1.332 3.01-3.021 3.01-1.677 0-2.987-1.321-2.987-3.01v-15.089h-4.21c-1.56 0-2.815-1.234-2.815-2.793 0-1.56 1.256-2.815 2.815-2.815h14.429c1.548 0 2.793 1.255 2.793 2.815-.001 1.558-1.246 2.793-2.794 2.793m7.363 15.089v-17.882c0-1.689 1.331-2.988 3.008-2.988 1.689 0 3 1.299 3 2.988v17.882c0 1.689-1.311 3.01-3 3.01-1.677 0-3.008-1.321-3.008-3.01m24.008 3.205c7.004 0 12.504-5.348 12.504-12.146v-.066c0-6.884-5.368-12.059-12.438-12.059-6.982 0-12.482 5.327-12.482 12.125v.064c0 6.886 5.327 12.082 12.416 12.082m-6.181-12.212c0-3.68 2.653-6.43 6.182-6.43 3.572 0 6.28 2.793 6.28 6.496v.064c0 3.681-2.664 6.452-6.214 6.452-3.574 0-6.248-2.792-6.248-6.516zm22.962 9.051v-17.862c0-1.689 1.309-3.009 2.998-3.009h.53c1.482 0 2.328.844 2.967 1.667l8.563 11.237v-10.003c0-1.624 1.353-2.944 2.987-2.944 1.624 0 2.978 1.32 2.978 2.944v17.862c0 1.689-1.331 3.032-3.021 3.032h-.15c-1.505 0-2.35-.867-2.999-1.668l-8.91-11.712v10.457c0 1.624-1.331 2.966-2.964 2.966-1.648-.001-2.979-1.343-2.979-2.967m-201.372 17.038c-.866-1.991-2.457-3.226-4.633-3.226h-.488c-2.197 0-3.81 1.234-4.698 3.226l-12.795 28.861c-.26.585-.466 1.147-.466 1.731 0 2.057 1.624 3.746 3.724 3.746 1.667 0 3.02-.931 3.702-2.511l2.577-6.019h16.14l2.436 5.759c.758 1.667 1.992 2.771 3.886 2.771 2.144 0 3.811-1.731 3.811-3.875 0-.52-.13-1.017-.401-1.602zm-10.089 18.686 5.077-12.104 5.055 12.104zm66.001-17.494v29.119c0 2.252-1.743 4.027-4.027 4.027-2.176 0-3.973-1.818-3.973-4.027v-18.272l-7.047 10.89c-.844 1.256-1.884 2.035-3.346 2.035-1.494 0-2.533-.779-3.377-2.035l-6.96-10.738v18.229c0 2.187-1.775 3.918-3.962 3.918-2.219 0-3.951-1.731-3.951-3.918v-29.228c0-2.229 1.796-4.027 4.037-4.027h.888c1.721 0 2.944.909 3.681 2.1l9.731 15.849 9.797-15.914c.823-1.343 1.97-2.035 3.616-2.035h.866c2.284 0 4.027 1.797 4.027 4.027m36.784 29.271c0 1.991-1.624 3.572-3.616 3.572h-20.568c-2.262 0-4.037-1.774-4.037-4.026v-28.623c0-2.23 1.775-4.027 4.037-4.027h20.309c1.992 0 3.605 1.645 3.605 3.637 0 1.991-1.613 3.55-3.605 3.55h-16.346v7.427h13.997c1.97 0 3.583 1.645 3.583 3.636 0 1.992-1.613 3.552-3.583 3.552h-13.997v7.686h16.605c1.993.001 3.616 1.646 3.616 3.616m23.35-33.103h-12.729c-2.242 0-4.039 1.796-4.039 4.027v28.924c0 2.252 1.797 4.027 4.039 4.027 2.239 0 4.037-1.775 4.037-4.027v-8.01h6.431l7.87 9.959c.931 1.191 2.143 2.078 3.961 2.078 1.928 0 3.844-1.472 3.844-3.724 0-1.234-.541-2.079-1.332-3.074l-5.586-6.82c4.428-1.84 7.308-5.369 7.308-11.15v-.108c0-3.463-1.084-6.344-3.14-8.378-2.405-2.404-6.009-3.724-10.664-3.724m5.652 12.644c0 3.096-2.241 5.173-6.192 5.173h-8.151v-10.521h8c3.929 0 6.344 1.797 6.344 5.26v.088zm23.609-8.92v29.227c0 2.252-1.774 4.027-4.016 4.027-2.285 0-4.039-1.775-4.039-4.027v-29.227c0-2.23 1.754-4.027 4.039-4.027 2.242-.001 4.016 1.797 4.016 4.027m40.453 26.066c0 1.278-.617 2.296-1.342 2.879-3.291 2.901-7.166 4.612-13.023 4.612-10.792 0-18.813-8.336-18.813-18.836v-.108c0-10.392 7.869-18.944 19.105-18.944 5.5 0 9.224 1.451 12.266 3.725.833.606 1.569 1.753 1.569 3.182 0 2.209-1.796 3.94-3.994 3.94-1.083 0-1.841-.433-2.415-.8-2.241-1.689-4.59-2.62-7.469-2.62-6.191 0-10.619 5.153-10.619 11.431v.087c0 6.3 4.341 11.518 10.619 11.518 3.41 0 5.65-1.039 7.956-2.879.649-.519 1.462-.887 2.393-.887 2.048-.002 3.767 1.687 3.767 3.7m40.174 1.711-12.764-28.861c-.888-1.991-2.49-3.226-4.654-3.226h-.467c-2.218 0-3.842 1.234-4.729 3.226l-12.764 28.861c-.271.585-.487 1.147-.487 1.731 0 2.057 1.636 3.746 3.724 3.746 1.657 0 3.032-.931 3.702-2.511l2.566-6.019h16.14l2.47 5.759c.725 1.667 1.992 2.771 3.875 2.771 2.154 0 3.81-1.731 3.81-3.875-.001-.52-.152-1.017-.422-1.602m-22.875-10.175 5.077-12.104 5.1 12.104z" fill="#fff"/></g></svg>