<svg clip-rule="evenodd" fill-rule="evenodd" stroke-linejoin="round" stroke-miterlimit="2" viewBox="0 0 560 400" xmlns="http://www.w3.org/2000/svg"><path d="m814.6 611.3c-.5-.6-.5-1.3 0-3.2.7-2.3.8-2.4 2.8-2.4 1.2 0 1.9.2 1.7.5s.3.7 1.2.9c1.7.4 2.3 1.1 2.3 2.5 0 .6-.4.9-1.2.9s-1.6.3-2.3.8c-1.4.9-3.7 1-4.5 0zm-15.9-6.6c-.6-.4-.6-.8-.1-2.4.6-1.8.8-1.9 2.3-1.8s1.7.3 1.6 2c-.1 2.3-1.9 3.4-3.8 2.2zm19.8-.5c-.9-.1-1.7-.4-2.3-1-.4-.5-1-.7-1.6-.8-.5 0-1-.2-1-.5s-.5-.6-1-.7c-.8-.4-1.3-1.1-1.4-1.9-.2-.9-.6-1.7-.8-1.7s-.6-.4-.8-.9c-.3-.7-.8-1.2-1.5-1.5-.9-.4-1.5-1.5-2.2-3.8-.6-1.8-1.3-3.3-1.7-3.3-1 0-2.4-3.5-3.1-7.4-.3-1.9-.8-3.7-1.1-3.9s-.6-2.5-.6-5.4c0-3.6-.2-5.3-.8-5.9-.6-1.2-1-2.6-1.1-4-.1-1.6-.6-3.1-1.5-4.3-1.2-1.2-1.3-1.7-1.9-5.2-.2-1.1-.7-2.1-1.6-2.9-1.8-1.3-2.3-3.7-2.5-11.2-.1-4.7 0-6.4.5-6.6.4-.1.6-.5.7-.9 0-.4.5-.8 1-1 1.3-.3 2.1-2.4 2.1-5.1s1.3-7.3 2.3-8.4c.4-.4.7-.9.8-1.5 0-1.4 2.1-2.6 5-2.8 1.8-.1 3 0 3 .3s1.7.6 4.2.6 4.4.3 4.8.6.7.2 1-.8c.3-1.1.6-1.4 1.5-1.2.6.2 1.2.3 1.8.3.4 0 .7.7.7 1.6 0 1.3 2 4.3 3 4.3.5.3.9.6 1.3 1.1.6.6 1.5 1 2.4 1.1.6 0 1.2.1 1.6.5.2.3 1.4.5 2.7.5s2.4-.2 2.4-.5.4-.5.8-.5 1.1-.6 1.4-1.3.8-1.2 1.4-1.6c1-.4 2.3.9 2.3 2.2s-1.2 2.8-2 2.8c-.9.4-1.7 1.1-2.3 1.9-.9 1-1.8 1.7-2.1 1.6s-.5.3-.5.9c0 .8.5 1.5 1.2 1.8.9.4 1.2 1 1.4 2.5.2 1.9 1.2 2.7 2 1.5.3-.3.7-.5 1.1-.5 1 0 1 3.1 0 4.5-1.2 1.6-.9 6.2.4 6.2.6-.1 1.1-.4 1.5-.8 1.4-1.2 5.7-1.3 6.4-.1.6 1 2.1 1.3 2.1.4 0-.3.2-.4.5-.2s.5.1.5-.2.5-.6 1.1-.6c1.2 0 2.6-1.2 2.6-2.1 0-.3.5-.6 1.1-.6.8 0 1.1.3 1.1 1.5 0 .9-.3 1.8-.8 2.5-1.3 1.8-5 5.6-5.5 5.6-.9 0-1.8 1.5-1.2 1.8.3.2.6.1.6-.2s1.1-.6 2.7-.6 2.7.2 2.7.4c0 1.1-.7 2.8-1.2 2.8-.7.2-1.4.6-2.1 1.1-.8.6-1.8 1-2.1.8s-.5.1-.5.7-.2 1.1-.6 1.6c-.4.4-.4 1.2 0 2.5.5 1.3.3 2.8-.5 3.9-.7 1.5-1.2 3.2-1.4 4.9 0 1.1-.3 2.2-.7 3.2-.4.4-.6.9-.8 1.5-.3 1-.1 1.3 1.2 1.8.9.4 1.7 1 2.3 1.8.4.7.9 1.3 1.2 1.3.6 0 3 2.5 3 3.2 0 .3.4.5.8.5s.8.3.6.7c-.3.8-3.6 1.2-3.6.4-.1-.4-.4-.6-.8-.6-.8-.3-1.6-.9-2.1-1.6-1.8-2.2-3-2.1-3 .1 0 3.8-1.1 5.1-2.8 3.3-.4-.4-.8-.7-1.4-.8-.3 0-.6-.4-.6-.9-.1-1.6-.9.9-1.3 3.8-.2 1.4-.5 2.5-.6 2.3s-1.5.6-3.1 2.2c-.3.3-.8.6-1.2.7-.3 0-.8 1.1-1.1 2.4-.3 1.2-.8 2.4-1.5 3.4-.9 1.1-1.6 2.3-2.2 3.6-.8 1.5-1.7 2.8-2.8 4.1-1.8 1.1-2.3 1.2-5.9.7zm24.4-1c-1.1-.6-1.6-1.8-1.4-3.1.4-.6 1.1-.9 1.9-.8 1.6 0 1.9.6 1.2 3.1-.3 1.2-.5 1.2-1.7.8zm-108.4-82.3c-3.7-2.1-4-5.1-.9-8.2.8-.8 1.4-1.8 1.8-2.8.3-1 .9-1.6 1.5-1.6.5 0 1-.2 1.3-.5.6-1 6.8-.6 9.2.5 2 1 2.2 1.3 2.5 3.4.3 2.3-.6 6.2-1.5 6.2-.2 0-.4.3-.4.7-.2.7-.5 1.3-1 1.9-.9 1-1.5 1.1-6.2 1.1-3 0-5.7-.3-6.3-.7zm62.8-24.9c-.7-.4-1.4-.6-2.2-.5-1.4 0-2-.2-2.2-1.1-.2-.6-.7-1-1.3-1.1-.6 0-1.1-.4-1.3-1s-.6-1.1-1.2-1.4c-.7-.2-1.2-1.2-1.5-3-.7-3.3-.1-6.1 1.8-8.1.6-.6 1-1.2 1.3-2 0-.3.6-.5 1.3-.5s1.3-.2 1.3-.5.5-.5 1.1-.5 1.1-.2 1.1-.5.9-.5 2-.5c1 0 1.9-.2 2.7-.7.6-.5.8-.5 1 0 .1.4.4.6.8.7.8 0 4.6 4.1 5 5.4.1.5.6.9 1.1 1 .4 0 .7.3.8.7 0 .4.5 1 1.1 1.4 1.2.7 1.2.6.1 6.3-.2 1.2-.6 1.7-1.2 1.7-1 0-3.2 2.3-3.2 3.2 0 .3-.5.5-1 .5s-1 .2-1.4.5c-.2.3-1.5.5-2.9.5s-2.9-.2-3.1-.5zm30.1-4.7c-.9-.6-.5-2.8.7-4 .4-.3.7-.8.8-1.3 0-.3.3-.6.8-.8 1.4-.5 2.8.3 3.7 2.1 1.2 2.4.5 3.7-2.2 4.1s-2.9.5-3.8-.1zm3.1-15.6c-.7-1.4-.6-3.5.4-7 .5-1.8 1.2-3.1 1.6-3.1s.7-.2.7-.5.7-.5 1.6-.5c1.9 0 4.7 2.5 4.7 4.2 0 .6.2 1.1.5 1.1s.5.6.5 1.3c0 1-.3 1.3-1 1.3s-1.2.6-1.7 2l-.6 2h-3.2c-2.3.2-3.1 0-3.5-.8zm-38.9-34.7c-1.1-.5-1.8-1.5-2.1-2.6-.4-1.1-.9-2-1.1-2s-.5-.8-.5-1.9.2-1.9.5-1.9.5-1 .5-2.1c0-1.5.2-2.1.8-2.1.4 0 .8.2.8.5s.7.5 1.6.5c1.6 0 1.8-.4 1.3-2.5-.2-.9-.7-1.2-1.8-1.2-1.4 0-1.5-.2-1.6-1.7-.1-.8-.1-1.7 0-2.5.1-.9 1.3-2.2 2.1-2.2.3 0 .9-1.2 1.4-2.7.8-2.5.8-2.8 0-3.7-1.1-1.2-2.8-1.2-3.5.1-1 1.8-3.1.5-3.1-2-.1-.8-.5-1.5-1.1-2-.8-.8-1.1-1.9-1.1-3.9 0-2.5-.1-2.8-1.8-3.7-1.3-.7-1.7-1.2-1.6-2.1.3-1.6-3.3-4.5-4.4-3.5-.6.5-1 .5-1.6 0-1.2-1-1-2.7.3-3 1.1-.3 1.5-1.5.6-1.8s-1.3-2.6-.6-2.6c1.2 0 2.6-2.2 2.6-4 0-2.2-1.2-3.4-3.2-3.4-.9 0-1.6-.2-1.6-.5 0-.8 1.8-2.7 2.5-2.7 1.2 0 2.3-1.5 2.2-3.1s-.2-1.5-3.9-1.3c-2.6.1-3.9 0-4.3-.5s-.2-.7 1.4-.7h2l.2-3.3c.1-2.9 0-3.3-.9-3.6-.8-.3-1.1-.8-1.1-2.1.1-.8-.1-1.5-.6-2.2-.6-.6-1.1-1.4-1.4-2.3-.4-.9-.8-1.8-1.4-2.6-1.9-2.4-3.7-3.9-4.7-3.9-.5 0-1-.3-1-.9-4.7-14.5-10.2-28.8-15.2-43.3-1-3.1-1-3.5-.2-3.8 1.2-.5 5.9 0 7.8.9.7.3 1.5.6 2.3.8.3 0 .6.6.6 1.3 0 1.1.3 1.3 1.3 1.3s1.3.3 1.3 1.1 1.2 2.4 4.5 5.1c.4.3.8.6 1.3.7.3 0 .5.2.5.5s1 .8 2.1 1.1 2.1 1 2.1 1.4.4.7 1 .7c.7.1 1.3.5 1.7 1.1 1 1.3 3.6 1.4 4.1.2.2-.5.1-1-.3-1.1s-.5-.4-.4-.6-.9-.7-2.3-1c-2.5-.6-4.4-1.9-4.4-2.8 0-.8-1.4-1.9-2.8-2.3-.7-.2-1.3-.6-1.7-1.3-.3-.8-.8-1.5-1.3-2.2-.7-.9-1-2-1-3.1 0-1.4-.6-2.7-1.6-3.6-.8-.9-1.5-1.9-1.9-3-.5-2.1-1.5-2.6-4.3-2.3l-5.6.6c-1.9.2-3.2.6-3.4 1.1-.3.5-.9.8-1.5.7-1 0-1.4-.7-2.7-4.9-2.3-4.9-3-10.6-5.7-15.3-.2 0-.4-.5-.4-1s-.1-.9-.4-1.3c-3.2 21.3-9.1 43.1-12.1 64.3-.4 3.5-1 4.5-2.5 4.5-.9 0-1.2.5-.9 1.5.1.2.7.3 1.4.2 1.1-.1 1.2 0 .9.8-.2.6-.4 1.2-.4 1.9-.1.6-.5 1.1-1.1 1.2-.8.2-.9.5-.4.8.8.5.9 4.7.2 5.2-.5.7-.8 1.5-.8 2.3-.2 1.5-.1 2 .5 2 .4 0 1 .5 1.3 1.2.4.7 1 1.4 1.7 1.7 1.4.6 2 4 .7 4-.4 0-.9.5-1 1.2-.1.8-.7 1.4-1.5 1.4-.7.1-1.4.5-1.9 1-.4.6-1 .7-1.9.4-.5-.2-1.1-.3-1.7-.3-.2.1-.4-.1-.4-.4s-.4-.5-.8-.5-.8-.3-.8-.8c0-.6-.6-.8-1.9-.8-1.5 0-1.9.2-1.9 1 0 .5.2 1 .5 1.4 1 .6-1.4 6.2-3.1 7.5-1.1.8-3.8.9-3.8.2 0-.3-.5-.5-1.1-.5s-1.1-.3-1.1-.6c0-1.3-1.6-2-5.3-2.3-5.9-.5-8.8-1.1-9.8-2.1-.7-.7-1.1-.8-1.7-.3-1 .8-.9 2 .1 3 1.2 1.2 1 2.8-.6 4.3-2 1.8-1.6 3.5.9 4.1 1.6.4 2 .8 2.3 2 .2.7.2 1.4 0 2.1-.5.8-3.7.6-4.8-.2-1.5-1.2-2.9-1-2.9.3s2.8 4.2 4.2 4.2c.8.2 1.6.7 2 1.4.7 1.1 1.2 1.3 2.3 1.1 2-.4 4.9 1.2 4.9 2.8 0 2.1-1.7 3.1-4.9 2.8-1.5-.1-2.9-.5-3-.7-.2-.3-.6-.5-.9-.5-.4 0-.8-.2-.8-.5s-.5-.6-1-.8c-.6-.2-1.1-.7-1.4-1.4-.2-.6-.5-.9-.8-.8s-1-.2-1.5-.8c-.6-.6-1.3-1-2.1-1.1-.6 0-1.1-.3-1.3-.8-.2-.6-1.3-.8-5-.8h-4.8l-.2 1.7c-.2.9 0 1.9.4 2.7.6.9.7.9 1-.4s.6-1.4 3-1.4c2.9 0 2.9 0 3.4 2.4.3 1.7-.6 3.8-1.1 2.5-.1-.4-.4-.6-.8-.7-.5-.1-1-.4-1.3-.8-1.2-1.2-2.3-1-2.3.5 0 .8-.3 1.3-.8 1.3s-.8-.2-.8-.5-.5-.5-1.1-.5c-1 0-1.2.4-1.8 3.4 0 .3.9.5 2.2.4s2.3.1 2.3.4c.1.4.4.6.7.6.8 0 2.5 2.2 2.5 3.5 0 .5.5.8 1.1.8.8 0 1.1.4 1.1 1.3 0 1.4 1.5 5.1 2.3 5.7.3.2.3 1.1.2 2s-.1 1.6.2 1.6.5.8.5 1.9c0 1.2.2 1.9.7 1.9.7.2 1.4.5 2 1.1.5.5 1 .8 1.7 1.1.2 0 .5.5.5 1 0 .6.5 1.1 1.1 1.3s1 .7 1.1 1.4c0 2.3.5 2.8 3.2 2.8s3.5.8 2.9 2.7-4.7 1.7-5.8-.2-3.2-4-3.9-4c-.3 0-.6-.2-.7-.5 0-.3-.7-.5-1.5-.5-.9.1-1.8-.5-2.1-1.3s-1.1-1.4-2-1.3c-.7 0-1.3-.2-1.2-.4.2-.7-2.7-6.5-3.2-6.5-.7-.3-1.3-.7-1.8-1.3-.7-.7-1.6-1.2-2.6-1.3-1.8 0-4.2-1.2-4.2-2s-5.2-.4-6.1.5c-.4.3-.9.5-1.5.5-.8 0-1-.5-1-3.4 0-1.9-.3-3.6-.6-4s-2-.6-3.8-.6c-3 0-3.2-.1-3.7-1.5-.4-.9-1.1-1.7-2-2.1s-1.8-1.5-2.5-3.3c-1.7-4-2.5-3.4-4.5 3.5-.7 2.2-.9 2.5-1.2 1.6-.7-1.7-2.5-3-3.7-2.7-2.4.7-5.3.9-4.6.4s2.1-3.9 1.8-4.8-2.1-.8-2.5.2c-.2.5-1 .8-2.2.8-1.7 0-2 .2-3.2 2.5-.7 1.4-1.4 2.5-1.6 2.4-.8-.3-1.4-.1-1.4.7 0 .5-.3.9-.8 1.1-.6.5-1 1.3-1.1 2-.3 1.8-1.7 2.7-3 1.9-.6-.4-.5-.8.2-2.3.5-1 1.2-1.9 1.5-1.9s.5-.7.5-1.6c-.1-.7.2-1.4.7-2 1-.9 1.7-2 2-3.3 0-.3-.8-.6-1.7-.8-1.9-.4-3.3-2-3.3-4 0-1.1-.3-1.4-1.4-1.5-1.5-.2-3-2.6-2.4-3.9.2-.5.3-.4.3.2.1 1.4 1.3 1.1 2.5-.5.5-.7 1.1-1.5 1.7-2.1.4-.4.5-.7.3-.7s.1-.5.8-1.1c1.2-1.2 1.5-2.6.5-2.6-.3 0-.5-.2-.3-.4s-.2-.6-.8-.9c-.7-.4-1.2-1-1.4-1.8 0-1.6 1.2-3 2.9-3.3.5 0 1.1-.7 1.5-1.6.3-.9 1-1.6 1.5-1.6s1-.6 1.2-1.3c.4-1.5-.1-4.1-.7-3.7-.2.1-.7-.6-1-1.8-.5-1.8-.9-2.1-3-2.6-3.3-.9-4.6-.8-6.1.4-.6.5-1.3.9-2 1-.4 0-.8 1-1 2.1l-.5 1.9h-31.8c12.9-73 26.3-146.8 39.2-220.1l1.6-10.6 12.8-.2.6 1.4c.7 1.5 1.7 1.3 1.7-.3 0-1 .6-1 29.3-1h29.3v1.2c0 1.3-1.1 3.1-2 3.1-.3 0-.8 1.1-1.2 2.5-.3 1.3-.8 2.5-1.4 3.6-1.2 1.6-1 3.5.3 3.5.6 0 1.1-.2 1.1-.6.3-.7.8-1.4 1.4-1.9.8-.9 1.2-1.7 1-2.3-.2-.5.1-1.1.6-1.3.6-.2.8-.7.5-1.6-.2-.8-.1-1.7.2-2.5.6-1.5 2.4-3.6 3-3.6s1.8 2.5 1.8 3.6c0 .4.7.7 2.2.7 2 0 2.2.1 2.1 1.5-.2 2.9 0 4.4.5 4.1.3-.2.5-.1.5.2s-.5.7-1 .9c-.8.4-1.4 1.1-1.6 2-.7 2.1-.8 1.9.4 2.2.9.2 1 .6.5 3.4-.9 6.1-1 6.5-2.1 6.9s-1 .4-.2 1.2c.5.5.7 1.3.7 2-.1 1-.5 1.1-2.7 1l-2.5-.1.9 1.3c1.1 1.6 1.8 1.6 2.9.2s1.5-1.3 2.9 0c.9.8 1.9 1.1 4.1 1.1 2.9 0 2.9 0 3.4 1.7.3 1.4.7 1.7 1.6 1.6.6-.1 1.2.1 1.2.4s.7.6 1.6.6c1.1 0 1.6.3 1.6.8s.6.8 2.1.8c2.3 0 2.2.4 3.2-8 1-7.8 1-8 2-8s1.8-1.6 2.5-4.4c.3-1.2.6-1.5 2-1.5 1.6 0 1.6.1 1.3 1.6s-.3 1.6 1.1 1.3c3-.8 6-.9 6-.3 0 .4 1.5.6 4.3.6 3.4 0 4.3-.2 4.3-.8 0-.4.2-.8.5-.8s.5-1 .4-2.3c-.2-1.1.1-2.3.8-3.2 1-.9 4.1-1.2 4.1-.3 0 .3.4.5.8.5s.8.3.8.7c0 1.1 2 3.2 2.4 2.5.4-.4 1-.6 1.6-.6 1.1 0 1.3.3 1.3 1.5 0 1.7 2 4.5 2.5 3.4.2-.4 1.2-.7 2.4-.7 1.2.1 2.4-.3 3.3-1.1l1.2-1.1-1.6-2.9c-.9-1.6-1.8-2.9-2-2.9-.8 0-2-1.5-2-2.4 0-.5.4-.8.9-.8 1.4 0 .7-5.1-.8-6.2-2-1.4-1.3-1.8 3.1-1.8 3.5 0 4.3.2 4.6.9.2.5.3 1.1.3 1.6-.1.4.4.7 1.2.7.9 0 1.7.6 2 1.5.5.9.8 1.2 1 .7.3-.9-.9-3.3-1.8-3.3-.5 0-1.3-1.1-1.3-1.9 0-.6 7.1-.1 7.7.5.4.4 2.6.9 5.1 1.1 1.8.1 3.6.4 5.3.9.7.3 1.5.5 2.3.5.6-.1 1.2.1 1.7.5s1 .6 1.6.5c.6 0 1.3.3 1.6.8.2.4.6.7 1.1.8.6.1 1.2.2 1.7.5s1.7.8 2.6 1.2 1.6.9 1.4 1.1.5.7 1.4 1.1 1.7.8 1.7 1 .4.4.9.4c1 .4 1.8 1 2.5 1.9.6.8 1.3 1.4 2.1 1.9.9.3 1.7 1.1 2 2 .5.8 1.1 1.5 1.8 2s1.4 1.2 1.9 2c.8 1.6 1.8 3.1 3 4.4.5.7 1 1.5 1.3 2.3.8 1.8 1.6 1.3 1.6-.9 0-.7.2-1.2.5-1.2s.5-.4.5-.8c.2-.8.7-1.5 1.3-2.1.6-.5 1-1.2 1.3-1.9 0-.3.7-.6 1.6-.6.7.1 1.3-.1 1.9-.5.2-.3.8-.3 1.7 0 1 .3 2.1.5 3.1.5 1.1 0 1.9.3 2.1.8.3.5.8.8 1.4.8 1.2 0 3.7 2 3.7 3 0 .4.5 1 1.1 1.3 1 .6 1.1.9.9 4-.2 2.1-.6 3.7-1.1 4.2-.4.4-.7.8-.9 1.4 0 .3-.3.5-.8.5-.4 0-.8.4-.8.8 0 .7-.8.8-5.6.7-4.1-.1-5.7-.3-5.9-.8-.2-.4-.6-.7-1-.7s-.7-.2-.7-.5-.4-.5-.8-.5-.7-.2-.8-.6c0-.3-.2-.5-.3-.3s.2 2.5.8 5.1c.5 2 .9 4.1 1.1 6.1 0 .8.2 1.4.5 1.4s.5 3.1.5 8.2c0 4.5-.2 8.2-.5 8.2s-.6 1.4-.8 3.1c-.5 4.2-3 14.5-3.5 14.5-.2 0-1.1 1.7-1.9 3.9-.5 1.4-1.1 2.8-1.8 4.1-.6.7-1 1.4-1.5 2.1-1.2 2-.9 3.1 1 3.9 1.6.6 1.9 5.7.4 5.7-.5.1-1 .4-1.4.8-.6.6-1.7.8-4.3.7l-3.5-.1-1 2c-.6 1.1-1.3 2-1.5 2-.9.3-1.7 1.1-2 2 0 .2-.8 1-1.9 1.7-.9.5-1.7 1.3-2.2 2.1-.4 1.2-1.1 1.8-2.9 2.7-.8.4-1.5 1-1.5 1.4s-.8 1-1.7 1.5c-2.3 1.1-3.6 2.2-3.6 2.9 0 .3-.4.6-.8.6-.8.2-1.6.5-2.3 1-.8.6-1.7 1-2.6 1.4-.7.2-1.1.6-.9.8.1.2 0 .5-.2.6 0 0-.1 0-.1.1-.4.1-.4.6 0 1.5.3.7.9 2.7 1.4 4.4s1.1 3.1 1.3 3.1.5.3.5.7c.1.9.3 1.8.5 2.7.5 2 .6 2 3.2 2 2 0 2.6.2 2.6.8 0 .4.3.8.8.8 1 0 1.5 1.8 1.1 4-.3 1.5-.6 1.9-2.2 2.1-2.1.4-2.1.3-1.1 3.1.4 1.2 1.1 3.3 1.5 4.7s.9 2.5 1.1 2.5.5.8.7 1.9c.2 1.4.6 1.9 1.3 1.9.6 0 1 .2 1 .5s.5.5 1.1.5 1.1.2 1.1.5.5.5 1.1.5c.5-.1 1 .3 1.1.8v.2c0 1.8 1.4 1.7 2.5-.2.5-1 1.3-1.8 1.6-1.8s.8-.4 1-.9c.4-1.3 3.2-4.4 4-4.4.3 0 .6-.2.6-.5 0-.6 2.4-3.2 2.9-3.2.7-.4 1.3-1 1.8-1.6.6-.7 1.3-1.2 2.1-1.6.3 0 .6-.2.6-.5s.3-.5.8-.5c.5-.1.8-.4 1-.8.2-.5.6-.8 1.1-.8.4 0 .8-.2.8-.4 0-.4 2.5-1.7 3.3-1.7.6-.2 1.2-.6 1.6-1.1.7-.6 1.5-1 2.4-1.1.7 0 1.2-.2 1.2-.5s.8-.5 1.8-.5c.8.1 1.5-.1 2.2-.5.8-.4 1.6-.6 2.5-.5 2.2 0 2.2 0 1.8 1.7-.2 1-.5 2.8-.7 4.1-.4 2.8-1.1 3.4-4.5 4.3-1.5.4-2.5.9-2.5 1.4s-.5.8-1.3.8-1.3.2-1.3.4-.8.7-1.7 1.1c-1.2.6-2.4 1.3-3.5 2.1-3.4 2.7-10.5 9.9-11.7 11.9s-1.2 2-.3 3.1c.4.5 1 .9 1.6 1.1 1 0 3.1 2.2 3.5 3.6.2.7.1 1.1-.2.9-.3-.3-.5-.7-.5-1.1 0-.6-.7-.8-2.7-.8-1.5 0-2.7.2-2.7.5s-.5.8-1.2 1l-1.2.5 1.2.4c.7.2 1.2.6 1.2.8s1.1.5 2.5.5c1.2-.1 2.4.2 3.4.8.9.8.8.9-.3 2.1-.5.6-1.3 1.1-2.1 1.3-.5 0-1 .3-1.2.8s-1 .8-2.3.8-2.1-.3-2.3-.8c-.3-.5-.8-.8-1.4-.8-.8-.1-1.6-.4-2.3-.8-1.2-.8-1.3-.8-1.6.6-.2.8-.6 1.5-1.1 2.1-1 1.7-1.7 3.5-2.2 5.4-.5 1.7-1.1 3.3-1.8 4.9-.5.4-2.5 10.1-2.9 14.5l-.3 3.6h3.1c3.5 0 7 1.2 7 2.4.1.5.5.8 1 .8.6 0 1.2.5 1.4 1.1s.7 1.1 1.1 1.1.8.4.8.8.4.8.8.8c.5.1.8.5.8 1 0 .6.5 1.2 1.1 1.4s1.1.7 1.1 1.1.3.8.8.8c1.3 0 2.8 2.6 3.2 5.4.2 1.5.7 2.8 1.1 3s.7.6.7 1 .5.7 1.1.7 1.1.3 1.4.8c.2.4.5.7 1 .8s.8.4 1 .8c.2.5 1 .8 2.4.8 1.8 0 2.1.2 2.4 1.3.2.7.2 1.4 0 2.1-.4.9-2.5 1.5-3.5.8-.6-.3-1.2-.4-1.9-.5-.7 0-1.2-.2-1.2-.5s-.4-.5-.8-.5-.8-.4-.8-.8c0-.5-.5-.8-1.5-.8-2 0-3.3.5-2.9 1.1.2.3-.1.5-.5.5-1.1 0-3 1.6-3 2.5.1.5.3 1 .7 1.4.8.8 3.9 1.9 4.3 1.5.2-.2.4.3.6 1.1.2 1 .7 1.4 1.6 1.4.7 0 1.3.2 1.3.5s.4.4.8.2c.7-.2 1.4-.2 2.1 0 1.1.3 1.3.7 1.3 2.1 0 2.9-.4 3.5-2.7 3.5-1.6 0-2.1-.2-2.3-1.1-.3-1.2-1.6-1.4-2.4-.4s.4 5.2 1.6 5.2c.5 0 1 .3 1.3.8s.8.8 1.3.8c.6 0 1 .2 1 .5.6 1 1.3 1.9 2.1 2.7 2 2.1 2.7 3.1 1.6 2.5-.3-.2-.6.2-.8.7-.4 1.2.2 3.8.8 3.8.3 0 .5.4.5.9 0 1-1.5 2.3-2.7 2.3-1 0-1.5 1.1-1.5 3 0 .8-.3 1.3-.8 1.3s-.8.5-.8 1.3-.3 1.3-.8 1.3-.7.3-.5 1.2c.5 1.7 1.8 3.6 2.4 3.6.9 0 .6 5.3-.3 6.2-.7 1-1.2 2-1.5 3.2-.6 2.2-.8 2.4-3.3 3.1-3.1.9-4.4 1-4.8.2-.4-.4-.9-.6-1.4-.5-.6 0-1 .2-1 .5s.2.5.5.5c1.1 0 .5 2.4-.8 3.4-1.6 1.2-5.9 1.1-5.7-.1.2-1.3-.4-2.7-1.7-3.2-.9-.3-1.3-.2-1.8.7-.4.7-.6 1.5-.7 2.3-.6.5-.7.5-2.8-.4zm-111.1-82.6c0-.4.2-.7.5-.9.3-.1.6-.9.7-1.9s.9-6.2 1.7-11.7c1.5-8.2 2.9-16.4 4.3-24.6 1-5.7 1-5.7-.3-6.1s-1.5-2-.3-2c.4 0 .9-.6 1.1-1.3s.6-1.3 1-1.3c3.6-18.2 9.6-40.1 10.1-58.3-.1-1-.7-1.9-1.7-2.4-2.3-1.2-3-2.1-2.4-3 .3-.5.8-.8 1.3-.8 1.4.1 3.1.9 3.1 1.3 0 .3.4.5.8.5s.8-.2.8-.5.5-3.8 1.1-7.8c1-6.6 1-7.3.3-7.7-.5-.3-.8-.7-.8-1.2s-.5-.8-1.4-.8c-1.2 0-1.4.2-1.1 1.4.4 1.9-.2 3.2-2.5 5.8-1.6 1.8-2 2-2.4 1.3-.3-.5-.4-1.1-.2-1.7.2-.7 0-.9-.7-.9s-1.1.5-1.4 1.6c-.3 1.4-.5 1.6-2.1 1.6-2.7 0-3.5-3-1.3-4.9 1.7-1.5.7-2.8-2.2-3-2.6-.2-3.8.5-3.8 2.4 0 .8-.3 1.3-.8 1.3-.8.2-1.5.6-2 1.2-1 1-1.2 1.7-1.1 4.4.2 3.6-1 14.1-1.5 14.1-.2 0-.6 2.5-1 5.6-.2 2.1-.5 4.3-.9 6.4-.2.6-2.6.8-14.7.8-7.9 0-14.7.2-15.1.4-.5.6-.8 1.4-.8 2.2 0 1-.5 1.9-1.4 2.4-.7.3-1 .8-.8.9s-.2.4-.9.4c-2.3-.1-4.5 1.1-5.7 3.1-.4.9-1 1.8-1.6 2.6-.4.5-.7 1.1-.7 1.7-.1.6-.4 1.2-1 1.5-.7.4-1.1 1.1-1.3 1.9-.1.8-.8 1.4-1.6 1.3h-.1c-2.5.4-7.5 34.5-8.2 37.5-.2-.2-1.1 4.8-3 17.8l-.4 2.3 4.7-.1 4.6-.1-.3-1.4c-1-4.1-1-5.4-.1-5.7.5-.2.8-.7.9-1.3.2-1.5 1.5-2.7 3-2.6.8 0 1.3-.3 1.3-.8s.7-.8 1.7-.9c1.2 0 2.2-.8 2.5-1.9 1.1-2.4 2.7-2.3 2.7.1 0 1.9 1.1 3.3 2.1 2.7.4-.4.6-1 .5-1.6 0-2.3.5-2.9 2.5-2.9 1.7 0 1.8.1 1.8 1.9 0 1.3-.2 1.9-.8 1.9-.4 0-.8.4-.8.8s-.2.8-.5.8-.4.6-.3 1.3c.2 1.1 0 1.3-.9 1.3s-1 .2-.8.8c.2.4.3.9.3 1.3 0 .3.9.5 1.9.5 2.3 0 3.4 1 3.8 3.5.3 1.8.4 1.9 2.4 1.9 1.1 0 2.1-.2 2.1-.5s-.2-.5-.5-.5-.5-.4-.5-.8-.4-.8-.8-.8-.8-.3-.8-.6-.2-.4-.5-.2-.5-.4-.5-1.6.2-1.9.7-1.9 1-.7 1.4-1.6c.6-1.5 2.1-2.2 2.1-1.1 0 .3.7.5 1.6.5 1.4 0 1.6.2 1.9 1.9.2 1 .6 1.9.8 1.9s.5.6.5 1.3-.2 1.3-.5 1.3-.5.3-.5.8-.5.9-1.1 1.1-1 .6-.9 1c.3.8 8.4 1.2 8.4.4 0-.3 1-.5 2.1-.5 1.9 0 2.1.1 2.1 1.3 0 .7.2 1.3.5 1.3s.6-.6.8-1.3c.1-.8.8-1.4 1.6-1.3h.1c.8.1 1.5-.5 1.6-1.3.1-.7.7-1.3 1.5-1.5.9-.1 1.2-.6 1.3-2.1s.5-2.1 1.8-2.7c1.1-.5 1.9-1.5 2.1-2.7.5-1.7.8-2 2-2 2.1 0 3.6 1.8 2.8 3.3-.7 1.4-1.6 2.8-2.6 4-.4.6-.7 1.3-.7 2 0 1.6-1.9 4-3.2 4-1.1 0-1.2.4-.7 1.8.2.6 1.1.9 3.1.9 1.5 0 2.4.2 2.1.3s-.7.8-.7 1.5.3 1.3.7 1.3.4.2-.1.5c-.7.5-.7.5 0 .5s.6.1-.1.6c-.5.3-.9.9-.9 1.6 0 .6-.2 1-.5 1-.6 0-.8 7-.2 7.6s.8-.2.8-1.1zm-56.1-35c-.5-.8-.8-1.7-.8-2.6 0-1.6 1.8-4.2 3-4.2 1.1.2 2 1 2.3 2.1 0 .3.2.6.5.6s.5.6.5 1.3-.2 1.3-.5 1.3-.5.4-.5.8-.4.8-.8.8-.8.2-.8.5c0 1.1-2.1.7-2.9-.6zm25-.7c-1.5-1.5-1.9-2.3-1.9-3.8 0-1.8 1-3.4 2.1-3.4.3 0 .6-.2.6-.5 0-1.2 1.9-2.7 3.6-2.7 1 0 1.8-.2 1.8-.5s-.2-.5-.5-.5c-.8 0-1.2-2.3-.6-3.9.5-1.3.8-1.5 2.8-1.3l2.3.2.2 2.5c.1 2 0 2.6-.9 3.1-1.1.6-1 2.2.2 2.2.4 0 .8.9 1 2 .5 2.9.4 4.9-.2 4.9-.3 0-.7.5-.9 1.2-.6 2-1.6 2.5-4.6 2.5-2.7 0-3.3-.2-5-2zm-5.6-1.7c-.6-1.1-.2-3.3.5-3.3.3 0 .5.4.5.8s.2.8.5.8.5.6.5 1.3c.1 1.7-1.2 1.9-2 .4zm36.5-1c-1-1 2.2-4.5 4.1-4.5s1.8 1.3 0 3.3c-1.3 1.5-3.3 2.1-4.1 1.2zm-36.2-6.9c-.5-1.4.7-4.4 1.8-4.4 1.3 0 1.9 3.5.8 4.6s-2.2.9-2.6-.2zm33.7 38.9c0-.4-.5-.7-1.1-.7s-1 .4-1.1.9c0 .3.1.6.3.8.6.5 1.9-.2 1.9-1zm39.9.2c0-.6-.1-1.2-.4-1.8-.9-1.3-4.9-1.4-4.9-.2s2.4 3.1 3.8 3.1c1.2.1 1.5-.1 1.5-1.1zm-6-8.7c-.7-1.5-1.7-1.7-2.2-.4s-.4 1.1.5 2.1c1.4 1.2 2.6.1 1.7-1.7zm-8.5-1.6c.7-.1 1.1-.7 1.2-1.3 0-.6.2-1 .5-1s.5-.7.5-1.5c0-1.9-1.4-2.4-4.1-1.4-2.3.8-3 1.8-2.6 3.6.5 1.6 2.1 2.2 4.5 1.6zm-89.1-4.5c.2-1 .4-2 .4-3 .2-2.4.1-2.8-.7-2.8-.5 0-1-.3-1.2-.8-.4-1-1.4-1.1-1.4-.1 0 .4-.7 1.1-1.6 1.6-1.1.4-1.7 1.5-1.6 2.7 0 2.4.9 3.1 3.6 2.9.9-.1 1.7-.3 2.5-.5zm17.1-62.4c.6-4.5.7-8.3.3-8.6s-1.6 2.8-1.6 4.6c0 .5-.2.9-.5.9-.8 0-.7 4.1.1 4.4.8.2 1.6-.3 1.8-1 0 0 0-.1-.1-.3zm-3.3-10.5c.4-.6 1.1-1 1.8-1.1 1.7 0 2.8-3.7 1.8-6-.4-1.1-.7-2.2-.9-3.3-.3-2 1.5-7.7 2.7-8.3.5-.3.8-.7.8-1 0-1.1-1.7-.4-3.4 1.4-.7.8-1.6 1.5-2.6 1.9-.4 0-.8.2-1 .6-.3.4-.7.7-1.2.7-.6.1-1.1.7-1.2 1.3 0 .6-.5 1.1-1.2 1.1-.5 0-1 .2-1.3.5-.4.4-1 .6-1.5.5-.7 0-1.3.2-1.8.6-.9.9-.8 7.1.2 8.1.4.4.7.8.8 1.4 0 .3.5.6 1.1.6s1.1.2 1.1.5.5.5 1 .5 1 .2 1.4.5c.4 1 2.7.6 3.4-.5zm37.6-6.4c0-.3.4-.5 1-.5 1 0 2.2-2 2.2-3.5 0-.4.2-.8.5-.8.7 0 1.3-3.4.9-5.6l-.3-1.9h-3.4c-2.6 0-3.5.2-3.8.8-.2.4-.5.7-1 .8-2.3 0-4.5 5.9-2.8 7.6.5.5.8 1 .9 1.7 0 .5.5.9 1 .8.5 0 1 .2 1.4.5.5.4 1.2.6 1.9.5.9.2 1.6-.1 1.5-.4zm-28.4-15.4c1.1 0 .9-1.4-.3-1.8-1.2-.3-1.8.3-1.3 1.9.2.7.5.9.6.5.2-.3.6-.6 1-.6zm113.6.5c0-.3.6-.5 1.3-.5.6 0 1.2-.1 1.6-.5.5-.4 1.2-.6 1.9-.5.9 0 1.6-.2 1.6-.5s.5-.5 1-.5 1-.2 1.4-.5c.4-.4.8-.6 1.4-.5.6 0 1-.3 1-.7s.8-1 1.7-1.4c1.2-.6 2.2-1.3 3.2-2.3.5-.6 1.1-1.1 1.8-1.5.5-.2.9-.5 1.2-.8.7-.7.7-.9-.1-1.9-.5-.5-1.1-.9-1.8-1-1.3 0-3.7-2.4-4.4-4.3-.2-.8-.6-1.5-1.1-2.1-.8-.5-.5-4.5.4-6.4 1-2.1 1.1-3.1.1-3.1s-1.6-3.3-.7-5.6 2.9-3.4 7.2-3.4c3.3 0 6 .9 6 2 0 .4.5.7 1.1.7.9.2 1.7.6 2.4 1.3 1.2 1.2 3.3 2.2 3.7 1.8.6-.6 1.4-8.1 1.1-10.2-.3-1.9-.6-2.4-1.4-2.4s-1-.4-1-1.6c0-.9-.2-1.6-.5-1.6s-.5-.5-.5-1.1.2-1.1.5-1.1.6-.3.5-.7c.2-.6.6-1.1 1.1-1.4.6-.4 1-.9 1.1-1.6 0-1.8-2.3-8.1-3-8.1-.4 0-.7-.4-.7-1-.2-.9-.7-1.8-1.3-2.4-.6-.5-1-1.2-1.3-1.9 0-.3-.4-.5-.8-.5s-.8-.2-.8-.4-1.1-1-2.4-1.7c-.9-.4-1.7-.9-2.4-1.6 0-.2-1.5-.9-3.2-1.6-2.5-.9-5.2-1.3-7.8-1.3h-4.6c-3.7 24.9-9.4 49.4-13 74.4 0 .8.5.9 4.5.9 2.2-.3 4-.5 4-.9zm24.2-54.5c-.5-1.8.2-4 1.1-4 .5-.1 1-.4 1.3-.9.5-.8.6-.8 1.7.5.5.7 1.1 1.2 1.9 1.4.5 0 .8.5.8 1.3 0 2.6-.5 3-3.5 3-2.7 0-3-.1-3.3-1.3zm-9.8-3.4c-1.6-.9-1.9-1.3-2-3.4-.2-3.4.6-4.3 4.1-4.3 1.2-.1 2.3.1 3.4.6.5.4 1.1.6 1.7.6 1.6 0 2.7 3.6 1.2 4.2-.3.2-.5.5-.5.8.1 2-5.2 3-7.9 1.5zm-122.7 55.6c0-.3-.5-.6-1.2-.7-.8-.1-1.2.1-1.2.7s.4.8 1.2.7c.7-.1 1.2-.5 1.2-.7zm32.2-5.1c.6-.8 1.2-1.7 1.6-2.7.4-.9.9-1.6 1.3-1.6.6 0 1.9-2.4 1.9-3.3 0-.2-.9-.4-1.9-.4-1.7 0-1.9-.1-1.6-1.1.2-.6 0-1.1-.4-1.1-1.1 0-3-2.6-3-4 0-.7.2-1.3.4-1.3s.7-.8 1.1-1.9 1-1.9 1.4-1.9.8-.2.8-.5.6-.5 1.3-.5c.6 0 1.2-.3 1.6-.8.3-.5.8-.8 1.4-.8.9 0 1.1-.4 1.1-2.1 0-1.2-.2-2.1-.5-2.1s-.5-.5-.5-1.1c.1-.5-.3-1-.8-1.1h-.3c-.6 0-1.1-.4-1.1-.8 0-.5-.3-.9-.8-1.2-.6-.5-.9-1.2-1-1.9-.3-1.9-.4-2-2.6-2.4-1.4-.3-1.8-.6-1.9-1.8-.1-.8-.4-1.4-.6-1.4s-.7-1.1-1-2.4-.8-2.3-1.1-2.1-.5.1-.5-.2-.3-.6-.7-.6c-1.5 0-2.7-6.9-1.4-7.8.6-.4 3.1.7 3.8 1.6.3.4.5.3.7-.1.3-.4.8-.7 1.3-.7.7 0 1-.4 1-1.3 0-.7-.2-1.3-.5-1.3-.8 0-.6-3.7.2-4.6 1.1-1.1 1.8-.9 2.2.6.3 1.3.4 1.3 1 .5.3-.4.7-.7 1.1-.9.3 0 1.1-1.2 1.9-2.8s1.4-2.6 1.5-2.3.4 0 .8-.5c.6-.7.9-.8 1.1-.4.3.8 2.2.9 3.3.2.5-.4.7-1.1.4-1.7-.8-3 .1-2.8-19.7-3l-18.4-.1-.3 1.2c-.1.7-.8 4.6-1.4 8.7-.3 2.6-.8 5.2-1.5 7.7-.3.2-.8 3.2-3 17.8-.2 1.9-.6 3.7-1.2 5.5-.8 3.4-1.5 6.9-1.9 10.4s-1.1 7-1.9 10.4c-.5.4-1.2 5.8-.8 6.4.2.3 7.4.5 18.7.5 17.9.2 18.5.1 19.4-.9zm-10.6-55.6c-.1-.6-.4-1.2-.8-1.6-1.2-1.2-1-2.7.5-4.2 1.1-1.1 1.7-1.3 4.1-1.2 2.5.1 2.8.3 3.3 1.7.4 1.1.3 1.6-.1 1.8s-.6.6-.6 1c0 .5-.3.9-.8 1.1-.5.3-.9.8-1.1 1.3-.4 1.2-4.5 1.4-4.5.1zm26 .7c.1-.6-.2-.9-.7-.9s-.8.1-.8.2c-.1.4-.2.8-.3 1.1-.3.7-.1.9.7.7.5-.1.9-.6 1.1-1.1zm12 .7c.6-1-.3-1.6-1.3-.9-.6.4-1 .8-1 1.1-.1.4 1.9.3 2.3-.2zm14.1-10.5c0-.8-.2-1.2-.5-1-.4.5-.6 1.1-.5 1.7 0 .8.2 1.2.5 1 .4-.5.6-1.1.5-1.7zm-39.2-10c.4-.3.8-.7.9-1.2s.4-.9.8-1.2c.9-.7 1.1-3.7.3-3.7-.3 0-.7.7-.8 1.6-.2 1.1-.7 1.6-1.3 1.6-1 0-1.6 1-1.6 2.7-.1 1.1.4 1.2 1.7.2zm16.9-5.4c0-1-.2-1.2-1.1-1-.6.2-1 .7-1.1 1.3 0 .5.3 1 .8 1h.2c.9 0 1.2-.3 1.2-1.3zm-2.7-2.7c0-.4-.2-.8-.5-.8s-.5.4-.5.8.2.8.5.8.5-.3.5-.8zm-12-2.4c.1-.7-.1-1.4-.4-1.6s-.6.7-.7 1.9c-.1 1.6 0 2 .4 1.6.4-.6.6-1.2.7-1.9zm93-1.6c0-.6-.4-1.1-.8-1.1-.8 0-1.1 1.1-.4 1.8s1.1.4 1.2-.7zm-253.5 287.4c-1-.5-1.7-1.2-2.2-2.1-.3-1.2 1.1-4.7 1.9-4.8.6-.2 1.1-.6 1.6-1.1 1.2-1.1 5.7-1.5 5.7-.5 0 .3.3.5.7.5.9 0 1.5 2.4 1.1 3.9-.7 2.2-4.3 5.2-6.2 5.1-.9-.2-1.8-.5-2.6-1zm150.8-8c-.7-.2-1.2-.9-1.2-1.6 0-.9.3-1.1 1.7-1s1.8.4 1.9 1.6c.2 1.7-.3 1.9-2.4 1zm-193.2-11.1c-.7-1.2-1.4-2.1-1.7-2.1-1 0-1.7-3-1.1-4.5.5-1.2.3-1.9-.7-4-1.1-2.2-1.2-3-1-6.5.3-4-.5-8.5-1.5-8.5-.3 0-.5-.7-.5-1.5 0-.9-.4-1.7-1-2.2-.7-.6-1.2-1.4-1.4-2.2s-.5-1.5-.8-1.5-.5-.8-.6-1.7c-.2-1.7-.2-1.7-3-1.7-1.8 0-3-.2-3.1-.7-.2-.4-.6-.7-1-.7s-.7-.3-.8-.6c-.1-.6-.4-1.1-.9-1.6-.7-.8-.8-1.3-.3-3.3 1.1-4.4 2.3-4-13.8-4-9.9 0-14.4.2-14.4.6 0 1.3-1.6 2.1-3.9 2-3-.2-3.7-.7-4.9-3.9-.3-1-.8-2-1.3-2.9-1-1.2-1.5-2.6-1.6-4.1 0-2.2 1-4.9 1.9-4.9.4 0 .8-.2.8-.5s.5-.5 1-.5 1-.3 1.3-.7c.2-.4 1.5-.9 3-1.1l2.7-.4-.3-3.3c-.1-1.2-.3-2.4-.7-3.6-.2-.1-1-5.6-1.9-12.2s-1.7-12.1-1.9-12.2c-.7-3.3-1.2-6.7-1.6-10.1-1.7-13.8-2.3-17.6-2.7-17.6-.8.9-1.4 1.9-1.9 3.1l-40.9 72.5h-103l40.7-231h124.4v1.3c-.1.6.1 1.1.4 1.6.2.1.8 3 1.1 6.4.6 5.5 1.4 8 2 6.2.3-.8 2.5-.8 3.9 0 2.8 1.7 4.7 4.2 4.7 6.5 0 .8.2 1.3.5 1.1s.7.4.9 1.3.5 1.6.7 1.6c1.1 0 1 2.1-.1 4.4-.9 1.8-1.6 2.5-2.3 2.5-.6 0-1.2.2-1.7.6-.9.4-1.8.5-2.8.4-2.6-.2-2.5-.9-1.1 9.9.6 4.4 1.1 8.4 1.1 8.9 0 2.1 1.5.7 3.2-3.1.6-1.4 1.3-2.8 2.2-4 .2 0 .7-.8 1.1-1.9s.9-1.9 1.2-1.9.4-.4.4-1c.1-.8.5-1.6 1.1-2.3.9-1.2 1.8-2.6 2.5-3.9.5-1 1.1-2 1.8-2.9.7-1 1.3-2.1 1.8-3.3.8-1.7 1.6-3.1 1.9-3.1s.6-.4.5-.9c0-.9-3-3.3-4.1-3.3s-.6-1.9.9-2.9c.8-.5 1.4-1.3 1.8-2.1.4-1.4 2.6-2.4 5.5-2.4 1.6 0 2.3-.2 2.3-.8.1-.6.4-1.2.8-1.6 1-1.4 1.8-2.9 2.5-4.4.7-1.6 1.6-3.2 2.6-4.6.5-.4.8-1 1-1.6 0-.6 2.9-1.9 4.4-1.9.5 0 .9-.2.9-.5s.4-.5.8-.5.8-.6.8-1.7c0-2.5.5-4.1 1.4-4.1s1-1.9.2-2.4c-1.6-1 .4-6.6 2.4-6.6.6 0 1.3-.2 1.7-.6.5-.5.9-.5 1.7 0 .6.4 1.2.6 1.9.6.4 0 .8.2.8.5 0 .9 1.9.6 2.7-.5.3-.5.9-.9 1.5-1.1.4 0 .7-.4.7-.8s.5-.8 1.1-.8 1.1-.2 1.1-.5 1.6-.7 3.5-.9 3.5-.6 3.5-.8 4-.5 8.8-.5c7.7 0 8.8.1 8.8.9s.4.8 1.8.5c1.3-.2 2-.1 2.5.5.3.4.8.7 1.4.8.4 0 .8.4.7.8 0 .4.8 1.3 1.9 2 1 .6 1.7 1.4 2.2 2.4.2.7.5 1.2.8 1.2s.5.4.5.8c.1.5.5.8 1 .8.7 0 1.1.5 1.4 1.7.2 1 .6 1.9 1.2 2.7 1 1.1 2.8 1.4 2.8.3.2-.6.5-1.1 1.1-1.4 1.3-.9 1.3-1.4.3-2.5-.9-.9-1-1.8-.3-1.8.3 0 .5-.4.5-.8 0-1 3.7-1.1 4.7-.2.5.5.6.5.6 0 0-1 2-.8 2.4.3 1.2 3.2 3.1 4.4 3.8 2.5.2-.5 1-.8 2.1-.8.7.1 1.5-.1 2.1-.5.4-.4.9-.6 1.4-.5.5 0 .9-.3 1-.8 0-.4-.2-.8-.4-.8s-.7-.7-1.1-1.5c-1.4-3.1-2-3.9-2.9-3.9-1 0-2-2.2-1-2.6.4-.2.6-.5.6-.9.1-.5.4-.8.9-.9s.9-.8 1-1.7c.3-2.9 1.3-4.6 2.7-4.6.7 0 1.3.3 1.3.7s.8 1 1.7 1.4c1.4.6 1.7.6 2.1 0 .7-1.1.6-1.5-.6-1.5-.5.1-1-.3-1.1-.8v-.3c0-.6-.4-1.1-.8-1.1-.5-.1-.8-.5-.8-1.1 0-1.1 1.5-5.4 2.1-5.9.4-.5.7-1 .9-1.6l.6-1.3.7 1.3c.8 1.5 3.2 3.7 4.1 3.7.7 0 .9-1.5.4-2.9-.2-.5-.5-.7-.8-.6-.3.2-.5 0-.5-.3s-.3-.6-.7-.6c-.7-.2-1.4-.5-1.9-1-1.2-1-1.2-1-.4-4 .5-1.7 1.2-3 1.6-3s1-.7 1.3-1.6.8-1.6 1.1-1.6.6-.6.6-1.4.2-1.2.5-1 .5-.3.5-1.1c0-1.1.2-1.4 1.2-1.2.8.2 1.4.7 1.7 1.4s.8 1.2 1 1.2c.9 0 1.9 1.9 1.9 3.7 0 2.7-1.8 14-2.2 13.6-.2-.2-.5 1.1-.7 2.8s-.8 6.2-1.5 10.1c-1 6.1-1.2 7-2.1 6.7-1.2-.3-1.6.4-1.2 1.9.2.7.6 1 1 .8s.7.1.7.8-.2 1.1-.4 1.1-.7 2.2-1.1 4.9-.8 5.6-.9 6.4l-.3 1.5h18.3c14.1 0 18.1.1 18.1.7 0 1.6-1.8 12.9-2.1 13.2-.6 2.3-1 4.6-1.3 6.9-.5 3.6-1.1 7.1-1.2 7.7-.2 1-.7 1.1-18.2 1-9.9-.1-18.2.1-18.5.3-3.8 19.2-7.3 38.3-10.3 57.6-1.8 11.3-1.8 10.3-.3 11.1 1.4.7 2.1 2.3 1.6 3.8-.3 1.3-1.1 1.4-2.4.1-.8-.7-1.1-.8-1.4-.2-.7 3-1.3 6-1.6 9-7.9 39.3-13.1 79.7-21.1 118.9-.2.9-1.7.9-20.5.9-19.5 0-20.2 0-20.2-1 0-.6.2-1.1.5-1.2 2.6-12.5 5.2-25.2 5.7-38l.2-8 1.7-1.4c1.1-1 1.5-1.7 1.3-2.3-.1-1.3 0-2.6.4-3.9 8.7-40.1 12.7-81.6 22.2-121.4.9 0 .5-2.1-.5-2.4-.6-.2-1.1-1-1.4-2.2-.3-1.4-.6-1.8-1.2-1.6-.3.1-.7.2-1 .3-.1 0-.2.4-.2.8s.2.7.5.5.5.2.5.8-.4 1.1-.8 1.1c-.5 0-.8.2-.8.5s-.2.5-.5.5-.5-.5-.5-1.1c0-.8-.4-1.1-1.3-1.1-.7 0-1.3.2-1.4.4 0 .2-.2 2-.4 3.9s-.3 6-.3 9.2c.1 5.6 0 5.7-1.2 6-2.8.7-3.6-1.2-2.3-5 .5-1.1.3-2.4-.4-3.4-.5-.8-.8-1.6-1-2.5-.1-.9-.9-1.6-1.8-1.5-.3 0-.6.2-.9.4-.7.6-.8 1.2-.5 2.6.3 1 .1 2.1-.6 2.8-.8.8-.9 1.7-.6 5 .3 4.4-.3 7.7-1.5 7.7-.9 0-2 3.7-2.1 7 0 1-.1 2-.4 2.9-.3.8-.5 1.7-.4 2.6 0 1.9-.3 2.4-1.7 3.4s-1.7 1.1-2.2.4c-.3-.5-.8-.8-1.3-.9-.7 0-.8-.4-.5-1.7.2-.9.3-1.8.3-2.7 0-.5.3-.9.8-1 .6 0 .8-.6.8-1.8 0-.9.3-1.9.8-2.6.5-.5.8-1.8.8-3.7 0-2.7.8-5.5 1.7-6.2.2-.2.5-2.8.5-5.9.1-4.7 0-5.8-.7-6.5-.4-.4-.9-.7-1.5-.9-.7 0-.7-.3 0-5s.2-5.7-2.4-5.7c-1.6 0-2 .3-2.7 1.8-.5 1-1 1.8-1.2 1.6s-.9 1.4-1.6 3.5-1.4 3.7-1.7 3.7-.5.4-.5.8c-.1.7-.5 1.4-1 1.9-.7 1-1.2 2.1-1.4 3.4-.1 1.3-.7 2.5-1.6 3.4-.7.6-1.2 1.4-1.3 2.4 0 .6-.2 1.3-.6 1.8-.4.7-.6 1.4-.6 2.2 0 .9-.3 1.7-.5 1.7s-.3.2-.2.5-.3.5-1.3.5c-.9.1-1.7-.3-2.2-1.1-.5-1-.2-3.7.5-3.7.7-.3 1.3-.8 1.8-1.3 1.4-1.2 3.6-6.1 3.6-8 0-.4.2-.8.5-.9s.8-1.4 1-2.8.8-2.7 1.1-2.8c.4-.2.6-.5.6-.9.2-.8.7-1.5 1.3-2.1 1.7-1.7 1.7-1.9-.2-1.9-.9-.1-1.8.4-2.1 1.3-.3.7-.9 1.3-1.3 1.3s-1 .7-1.4 1.6c-.8 1.8-1.8 2-3.3.6-1-.9-1-1.1-.2-1.9.7-1 1.1-2.1 1.2-3.3.4-3.2-.9-2.8-2.6 1-.5 1.2-1.1 2.3-1.8 3.3-.9 1.3-1.6 2.6-2.3 4-.6 1.3-1.4 2.6-2.2 3.7-.7 1.1-1.4 2.2-1.9 3.4-.6 1.4-1.4 2.8-2.3 4.1s-1.6 2.7-2.1 4.1c-.7 1.8-1.5 3.2-1.8 3.2s-.9 1.1-1.5 2.3c-.4 1-1 2-1.7 2.8-1 1.2-1.7 2.5-2.3 3.9s-1.3 2.7-2.1 4c-1.3 1.6-2.2 3.6-2.4 5.7 0 2.7 1.7 15.6 2.1 15.9.6 2.4 1 4.8 1.2 7.2.5 3.8 1.3 10.1 1.8 14.1.2 2.5.7 5 1.3 7.5.2.1 1 5.6 1.9 12.2s1.7 12.1 1.9 12.2c.4 1.1.7 2.2.7 3.4.5 4.2.7 4.6 2.4 4.6 1.1 0 1.6.4 2.1 1.6.4.9 1 1.6 1.4 1.6s.7.2.7.5.5.5 1 .5c.8 0 1.4.7 1.4 1.5.4.9 1.2 1.6 2.1 1.9 1.2.3 2.2 1.4 2.4 2.6 1.5 5.5-.6 12.3-4 13-.7.1-1.1.7-1.2 1.8-.3 3.5-.6 4-2 3.7s-1.8.8-.5 2.1c1 1 1 1.6.1 3-.5.8-.5 1.4 0 2.8.4 1.4.6 2.8.6 4.3 0 1.4.2 2.5.5 2.5.7 0 1.2 2.8 1.2 6.1 0 1.3.1 2.5.5 3.7.5 1.9.7 3.9.6 5.9.1 5 1.2 11.5 2 11.5.2 0 .4 1 .4 2.3.2 2.3.6 4.7 1.3 6.9.9 2.9 1.3 5.8 1.3 8.8 0 2.5.2 4.2.5 4.2s.5.4.5.9c.2.9.7 1.8 1.3 2.5 1.6 1.8 1.6 2.1.5 5.1-.5 1.3-.7 2.7-.8 4.1 0 1.5-.2 1.8-1.2 1.8-.7.2-1.4-.5-2.3-1.9zm-113.1-76.6c16.1-27.6 32.1-55.4 48-82.9 2.3-2.5 1.7-4.9.7-12.4-3.6-19.9-5.8-40.2-9.1-60.2-.7-4.7-3.4-33.7-6.3-30.8-.9 4.5-1 9.3-2.6 13.5-.2.3-8.5.5-22.7.5h-22.4l-12.3 68.4h39.2c-.9 8.3-3.2 16.6-4.8 25-.9 3.5 1.3 3.2-20.2 3.2h-19.6c-3.8 22.7-7.1 45.5-11.8 68.1-.6 2.5-1.5 7.4-1.1 7.7s44.4.3 45-.1zm120.3-159.8c.8-1 1.8-4.1 1.3-4.1-.7.7-1.2 1.5-1.5 2.4-1.1 2.2-.9 3.1.2 1.7zm90.8-62c.1-.4.1-.8-.2-1.1-.6-1-2.2-.3-1.8.8.2.6.9.9 1.5.7.2-.2.4-.3.5-.4zm-5.2-5.7c-.2-.4-.3-.9-.3-1.3 0-.3-.4-.5-.8-.5-1 0-1 .8-.1 1.9s1.6.8 1.2-.1zm8-15c-.2-.5-.5-1.3-.6-1.8-.4-1.2-1.8-1.7-1.8-.6s1.6 3.4 2.3 3.4c.2-.2.2-.6.1-1zm-2.8-4.7c.2-.5 0-.8-.5-.8-.4 0-.8.4-.8.8s.2.8.5.8.7-.4.8-.8zm103.2 310.6c-.5-.4-.7-1-.7-1.5-.1-.8.5-1.5 1.3-1.6 1.6-.4 2.4.1 2.4 1.3.1 1.7-1.3 2.5-3 1.8zm148.6-.1c-.2-.4-.2-.8-.2-1.2 0-.7-.4-1-1.3-1-1.1 0-1.3-.3-1.5-1.9-.1-.7-.1-1.4 0-2.1.8-.2 1.7-.3 2.6-.2 1.7 0 2.3.2 2.3.8 0 .4.3.8.8.8 1.1 0 2.4 2.8 2 4.2-.2 1-.6 1.1-2.4 1-.8-.1-1.6-.2-2.3-.4zm-6-1.6c-.9-1.4-.8-2.1.2-2.1s1.5 1.3.9 2.4c-.4.6-.5.6-1.1-.3zm-230-5c-2.2-1.1-2.2-6.2 0-6.2.6 0 .9-.2.8-.5s-.1-.5.2-.5.6.2.6.5.7.5 1.5.5c3 0 4.2 3 2.2 5.5-1.2 1.6-3.2 1.8-5.3.7zm237.7-1.8c-.8-.1-1.5-.6-1.5-1s-.4-.8-.8-.8-.8-.3-.8-.6-.6-1.1-1.3-1.6c-1.5-1.2-1.7-2.3-.5-3.4s3.1-.7 4 1.3c.5 1 1.2 1.7 1.8 1.7s.9.3.7.8 0 .8.5.8.8.4.7 1.4c-.2 1.6-.5 1.7-2.8 1.4zm-233.1-5.9c-.2-.7-.3-1.4-.3-2.1-.2-1.8.8-2.4 3.3-1.9.9.1 1.6.9 1.7 1.8.2.7.2 1.4 0 2.1-.4.6-4.3.7-4.7.1zm99.1-1.8c-.9-.5-1.7-1.2-2.3-2.1-.8-1.3-.8-1.8-.2-3.8.9-3 1.7-3.7 4.5-4 1.8-.2 2.4-.1 2.7.6.2.5.6.8 1.1.9.7.1 1.3.5 1.8 1 1.2 1.2 1.1 4.2-.2 5.1-.5.3-.8.8-.8 1-.2 1.7-3.9 2.3-6.6 1.3zm143.2-1.5c-.6-1.1.1-3.2 1.1-3.2s1.7 2.1 1.1 2.9c-.3.4-.4.8-.2 1s0 .4-.5.4c-.6-.1-1.2-.5-1.5-1.1zm-653.7-246.5c.3-.9 1.8-.9 22.6-.9 9.4.2 18.8-.5 28 1.5 34.2 6.7 45.5 36.5 53.3 69.2.4 2.4-2.2.5.6 4.3 10 82.4-30.3 153.2-98.6 155.4-1.1.3-12 .5-24.4.5h-22.5c13.9-76.7 27.5-153.3 41-230zm31.4 35.7-28.1 158.3c50.9 34.6 95.2-164.6 28.1-158.3zm324.1 190.2c-1.2-.3-2.9-2.1-2.9-3.2 0-.4-.5-.7-1.1-.7-1.2 0-1.4-.8-.4-1.3.5-.2.5-.4 0-.6-1.8-.9 1-6.1 3.3-6.1 1.7-.1 3.3-1.3 3.8-2.9 1-1.9 2.8-3.2 4.8-3.5.4 0 .7-.2.7-.6 0-.9 2.3-2.6 3.6-2.6.9-.1 1.6-.6 2.1-1.4.4-.7 1.2-1.2 2-1.3.6 0 1.2-.1 1.7-.5.8-.4 1.6-.7 2.5-.8 1.5-.3 2.1-.2 2.3.5.2.5.5.7.8.5s.5.3.5 1c0 1.6-.6 1.9-4.1 1.5-2.8-.3-2.8-.2-5.2 2.3-.9.9-1.7 1.9-2.4 3 0 .2-.3.5-.7.5s-1 1.1-1.3 2.4c-.8 2.8-.8 4.5-.2 4.5.3 0 .6.8.8 1.7.6 3-2.7 7.4-5.7 7.4-.9 0-1.9.1-2.8.2-.7.2-1.5.2-2.1 0zm272.8-28.6c-.3-.5-.8-.9-1.4-1-2.4-.4-4.7-4.3-4.1-7.1.5-1.2 1.2-2.2 2.1-3.1 1.7-1.8 2-1.9 4.3-1.6 1 .1 2.1.4 3 .9.5.4 1.1.5 1.8.5s1.2.3 1.2.6c.3.7.7 1.3 1.3 1.7 1.9 1.6 2.1 5.4.3 5.9-.7.3-1.2.8-1.4 1.5-.5 1.7-1.8 2.5-4.3 2.5-1.6 0-2.5-.3-2.8-.8zm-14.5-49.6c-.5-.2-.9-.6-1.2-1s-.7-.7-1.1-.7c-1.4 0-1.9-3.5-.7-4.7.5-.5.3-.6-.8-.6-1.4 0-4.1-2.2-4.1-3.3 0-.2-.3-.5-.7-.5-1 0-1.4-1.2-1.4-4.2 0-1.8.2-2.3.5-1.7s.5.6.5.1c.2-1.2 1.2-2.1 2.3-2.2.4 0 .9-.2 1.1-.5.4-.7 2.4-.7 5.3.1 1.8.5 2.5 1 2.7 1.9.1.6.6 1.1 1.3 1.2.6 0 1.2.1 1.8.3 1 .4 1.8-1.3 1-1.8-.4-.4-.7-.9-.9-1.5-.4-1.4 1.2-5 2.2-5 .3 0 .7-.2.7-.6 0-.9 1.4-2.1 2.5-2.1.8 0 1-.3.8-1.3-.1-.7-.6-1.3-1.3-1.5-1.5-.4-1.5-4.8 0-5.8.6-.4.9-.9.7-1.1s-.1-.4.3-.4c1 0 .7-1.5-.3-2.1-.7-.4-.7-.7-.3-.9.4-.1.6-.5.7-.8 0-1 2.8-3.1 4.1-3.1.9 0 1.2-.3 1.2-1.2 0-1.8 1.2-4.7 2-4.7.3 0 .6-.2.7-.5 0-.3 1.4-.5 3.2-.5 3.7 0 4.8.7 5.8 3.8.8 2.5.3 4.6-1.3 5.3-.7.3-1.3.8-1.3 1.3 0 .9 0 .9-3.1.3-2-.4-2.3-.3-2.3.6 0 .6.4 1.1 1 1.3.7.3 1.3.7 1.7 1.3s1.2 1.5 1.7 2.1c.6.8 1 1.8 1.3 2.8.1.8.5 1.5 1 2.1.4.3.4.5-.1.7-.4.2-.6.6-.7 1 0 1.2-2.2 2.4-4.3 2.4-1.2 0-2.1.3-2.3.8s-.1.8.1.8c.5 0 1.7 2.4 1.7 3.5 0 2.2-1.8 4.5-4.3 5.6-1 .3-1.8.9-2.6 1.6 0 .2-.4.4-.8.4s-.7.2-.5.5 0 .5-.5.5-.8.5-.8 1.1-.3 1.1-.8 1.4c-.5.2-.8.7-.8 1.2 0 .7-.6 1.1-2.3 1.4-2.1.5-2.3.6-2.3 2.3-.1 2.9-.7 4.2-2 4.3-.7 0-1.5.1-2.2.2-.5.3-1.2.3-1.8.1zm60-27.7c-1.8-.2-4.6-3-4.6-4.6.2-1.1.8-2 1.5-2.8.8-1.2 2.3-1.9 3.8-1.7 1.7 0 2.5.3 3.2 1.1 1.7 1.9 1.2 4.4-.9 4.8-.6.1-1.1.6-1.2 1.1-.1.7.2.9 1.2.9.8 0 1.4.2 1.4.5 0 .5-2.3.9-4.4.7zm-58.9-4.1c-.4-.7-.6-1.5-.5-2.3.1-1.3.4-1.5 2.1-1.7s2 0 2.5 1.2c.9 1.9 0 3.4-2 3.4-.7.2-1.5-.1-2.1-.6zm28.5-2.4c-.1-.7-.1-1.4.1-2 .6-2.2 2.4-2.4 3.2-.3.3.7.5 1.4.3 2.2-.3.7-3.2.8-3.6.1zm-340.2-3.6c-.8-.3-.9-3.9-.2-3.9.4 0 .8-.9 1-2.3.1-.5 1.5-2 2-2 .8 0 1.7-1.5 2.1-3.5.5-2.5 1.6-4.5 2.7-4.5.6 0 .8.8.8 3.5 0 3.7-.6 5-2.5 4.8-.7-.1-1.1.3-1.2 1.4-.1.8-.4 1.3-.7 1.2s-.5.4-.5 1.3c.1 3.5-1.2 4.9-3.5 4zm360.7-5.5c0-.3-.5-.5-1.1-.5s-1.1-.4-1.1-.8-.3-.8-.7-.8c-1.1 0-2.5-1.9-3-4-.4-1.6-.2-2.3.9-4 .7-1.1 1.5-2 1.7-1.8s.8-.3 1.4-1c.9-1.1 1.4-1.3 4.6-1.3 2.2 0 3.7.2 3.7.6 0 .6 1.3 2.1 1.8 2.1 1.4-.1 1.9.1 2.2 1 .2.7.9 1.1 1.6 1.1 1.3 0 1.9.9 1.9 2.7 0 1.2-2.4 3.6-4.7 4.6-1 .4-1.7 1-1.7 1.3s-1 .5-2.1.5c-.8-.1-1.7.1-2.4.5-.4.4-1 .6-1.6.5-.9-.1-1.5-.4-1.4-.7zm-377.9-13.6c-.5-.6-.5-1.1 0-2.4.4-.9.8-1.6 1-1.6.5 0 2.2-3.6 2.2-4.8s1.6-3.8 2.2-3.4c.3.2.5 0 .5-.3s.5-.5 1.2-.4c.8.1 1.2.5 1.1 1.2-.3 2.9-.9 4.6-2 5.8-.8.9-1.4 2-1.9 3.2-.3 1-.8 1.9-1.1 1.9s-.5.4-.5.8c0 1-.6 1-1.6.1-.6-.5-.6-.5-.3 0 .5 1 0 .9-.8-.1zm102 0c-.3-.5-.8-.8-1.4-.8s-1.1-.2-1.1-.5-.6-.5-1.4-.5c-1.4 0-2.9-1.1-2.9-2 0-.3-.2-.6-.5-.7-.4-.2-.6-.6-.7-1-.1-.6.3-.7 1.7-.6.8 0 1.6.3 2.4.6.5.3 1 .5 1.6.5.8.1 1.6.4 2.2 1s1.3 1 2.1 1.2c.7.1 1.1.7 1.2 1.9.1 1.6 0 1.7-1.4 1.7-.9 0-1.6-.3-1.8-.8zm126.3-64.3c0-1.2 1.4-2.1 3-1.9 1.1.1 1.5.5 1.5 1.2s-.4 1.1-2.3 1.2c-1.6.3-2.2.1-2.2-.5zm-118.1-83.6c-.3-1-1-1.9-1.4-1.9-1 0-1.1-4.6-.1-5s-.5-1.3-2.9-1.8c-1.8-.3-2-.5-2-1.9 0-.9.2-1.4.5-1.2s.5-.3.5-1.1c.1-1.6.3-3.2.6-4.8l.6-3.4h4.8c4.7 0 4.8 0 4.5 1.2-.2.7-.8 5-1.5 9.6-.6 4.6-1.4 8.4-1.6 8.4s-.5.8-.5 1.9-.2 1.9-.5 1.9c-.2-.1-.7-.9-1-1.9z" fill="#b11016" fill-rule="nonzero" transform="matrix(.375144 0 0 .375144 91.6545 73.6302)"/></svg>