<svg clip-rule="evenodd" fill-rule="evenodd" stroke-linejoin="round" stroke-miterlimit="2" viewBox="0 0 560 400" xmlns="http://www.w3.org/2000/svg"><g transform="matrix(2 0 0 2 100 101)"><path d="m0 0h180v99h-180z" fill="#e4002b"/><path d="m17.303 82.335h-3.327v1.13h2.153v1.264h-2.153v2.287h-1.98v-5.993h5.307zm5.732 4.761c-1.877 0-3.461-1.217-3.453-3.145-.024-2.057 1.592-3.011 3.453-3.011 1.875 0 3.354 1.178 3.362 3.027.007 1.899-1.487 3.13-3.362 3.13m1.002-3.857c-.038-.515-.48-1.089-1.054-1.089-.6 0-.988.565-1.045 1.089-.033.314-.101 1.121-.01 1.63.098.598.5 1.064 1.055 1.064.544 0 .925-.466 1.016-1.079.067-.42.057-1.255.038-1.615m7.082 1.525v2.252h-1.99v-5.996h4.285c1.262 0 1.898.754 1.934 1.79.031.833-.477 1.596-1.226 1.86l1.16 2.346h-2.16l-.973-2.252zm0-1.262h1.427c.35 0 .626-.283.626-.63-.003-.342-.284-.623-.626-.625h-1.426v1.255zm11.99-.785c0 .15.204.249.353.268.551.084.574.067 1.277.175.904.124 1.605.52 1.987 1.338.203.425.172 1.028-.134 1.514-.59.928-1.893 1.054-2.429 1.079-.778.037-2.615-.063-3.393-1.308l.957-.733c.135.11.344.298.48.387.685.524 1.695.498 2.18.359.134-.038.293-.136.328-.21.107-.16.047-.41-.176-.446-.42-.09-.66-.067-1.615-.382-.584-.172-1.34-.455-1.712-1.227-.227-.484-.217-1.047.028-1.523.366-.702 1.421-.957 1.869-1.022 1.098-.143 2.369.036 3.452 1.022l-.987.747c-.67-.496-1.663-.538-2.225-.32-.14.066-.24.132-.24.282m9.454 2.93c.778 0 1.149-.29 1.149-.794v-3.833h1.541v4.075c0 1.295-.702 2.001-2.715 2.001h-.386c-2.01 0-2.713-.716-2.713-2.001v-4.076h1.995v3.849c0 .463.344.778 1.129.778m11.667-.664c-.166.969-1.045 1.732-1.945 1.98-.261.076-.805.135-1.261.135-1.72 0-3.214-1.383-3.206-3.154 0-1.713 1.496-3.004 3.19-3.004.568 0 .995.083 1.277.156.9.224 1.668.896 1.835 1.87l-1.684.177c-.021-.775-.724-1.023-1.226-.992-.695.031-1.218.604-1.218 1.823v.142c0 1.226.523 1.77 1.197 1.822.77.047 1.254-.141 1.39-1.173l1.65.218m8.821 0c-.166.969-1.045 1.732-1.944 1.98-.26.076-.805.135-1.263.135-1.718 0-3.212-1.383-3.206-3.154 0-1.713 1.496-3.004 3.193-3.004.567 0 .994.083 1.276.156.9.224 1.668.896 1.833 1.87l-1.685.177c-.02-.775-.723-1.023-1.225-.992-.693.031-1.216.604-1.216 1.823v.142c0 1.226.523 1.77 1.197 1.822.77.047 1.252-.141 1.388-1.173zm8.065 2.034h-5.56v-5.994h5.313v1.313h-3.325v1.13h2.145v1.262h-2.145v1.038h3.572zm4.566-4.299c0 .15.202.249.351.268.553.084.574.067 1.279.175.902.124 1.605.52 1.988 1.338.201.425.17 1.028-.134 1.514-.592.928-1.894 1.054-2.431 1.079-.777.037-2.616-.063-3.392-1.308l.957-.733c.136.11.344.298.478.387.687.524 1.697.498 2.18.359.136-.038.295-.136.333-.21.103-.16.044-.41-.18-.446-.42-.09-.659-.067-1.615-.382-.584-.172-1.337-.455-1.712-1.227-.224-.485-.213-1.047.03-1.523.367-.702 1.419-.957 1.868-1.022 1.097-.143 2.37.036 3.453 1.022l-.986.747c-.672-.496-1.666-.538-2.228-.32-.14.066-.239.132-.239.282m8.273 0c0 .15.2.249.351.268.553.084.577.067 1.277.175.904.124 1.607.52 1.99 1.338.2.425.171 1.028-.135 1.514-.591.928-1.893 1.054-2.43 1.079-.777.037-2.617-.063-3.392-1.308l.956-.733c.134.11.345.298.479.387.687.524 1.695.498 2.18.359.136-.038.295-.136.33-.21.107-.16.045-.41-.177-.446-.42-.09-.659-.067-1.615-.382-.584-.172-1.337-.455-1.712-1.227-.227-.484-.216-1.048.03-1.523.364-.702 1.419-.957 1.868-1.022 1.098-.143 2.369.036 3.453 1.022l-.988.747c-.67-.496-1.664-.538-2.226-.32-.142.066-.239.132-.239.282m11.59-.383h-3.325v1.13h2.153v1.264h-2.153v2.287h-1.981v-5.993h5.306zm5.792 3.313c.778 0 1.153-.29 1.153-.794v-3.833h1.538v4.075c0 1.295-.701 2.001-2.715 2.001h-.384c-2.011 0-2.714-.716-2.714-2.001v-4.076h1.996v3.849c0 .463.343.778 1.126.778m7.356-4.625v4.679h2.877v1.315h-4.873v-5.994zm10.678 0v4.679h2.877v1.315h-4.874v-5.994zm5.444 5.994h1.989v-5.994h-1.989zm6.328-5.994 1.494 3.855 1.518-3.855h1.736l-2.374 5.994h-2.053l-2.332-6.001zm7.199 5.994h1.99v-5.994h-1.99zm9.149-2.751v-3.244h1.545v5.996h-1.651l-2.869-3.44v3.44h-1.532v-5.996h1.8zm7.408.764v-1.153h3.098v3.154h-.706l-.495-.64c-.574.535-1.583.709-2.307.709-1.697 0-2.95-1.488-2.95-3.185 0-1.722 1.475-2.974 3.194-2.974.457 0 1.003.057 1.264.117.906.241 1.704.898 1.871 1.88l-1.692.18c0-.586-.635-1.005-1.253-1.005-.691 0-1.219.381-1.219 1.295v1.3c0 .835.612 1.18 1.292 1.18.53 0 1.098-.435 1.098-.806 0-.04-.013-.052-.059-.052zm-2.897-67.039c0-1.644 1.344-2.984 3.007-2.984 1.637 0 2.985 1.346 2.988 2.983 0 1.675-1.337 3.019-2.988 3.019-1.65 0-3.007-1.357-3.007-3.007 0-.004 0-.008 0-.012zm.568 0v.018c0 1.325 1.091 2.416 2.416 2.416h.031c1.323 0 2.412-1.089 2.412-2.412 0-.008 0-.015 0-.023-.006-1.317-1.092-2.398-2.409-2.398-.004 0-.007 0-.011 0-1.355 0-2.44 1.074-2.44 2.398zm3.932 1.69h-.571l-.958-1.547h-.584v1.547h-.495v-3.357h1.46c.28 0 .564.018.817.162.249.144.37.443.37.723 0 .662-.46.91-1.055.925zm-1.57-1.962c.47 0 1.117.085 1.117-.52 0-.435-.375-.492-.795-.492h-.865v1.012zm-152.936-2.718h9.045c17.45 0 19.135 11.21 19.135 28.5 0 16.49-1.365 28.496-17.454 28.496h-10.726zm10.407 48.193c6.564-.08 6.886-2.481 6.886-19.772 0-17.211-.322-19.534-6.886-19.615zm22.605 8.806h10.406v-56.997h-10.406zm15.986-56.998h23.532v8.805h-13.127v14.57h9.686v9.287h-9.686v15.532h13.686v8.803h-24.091zm35.209 40.507c0 3.204 0 8.804 4.483 8.804 3.44 0 4.641-3.198 4.641-5.52 0-10.17-18.892-12.49-18.892-29.381 0-8.567 4.645-15.528 13.449-15.528 9.364 0 12.967 7.123 13.207 17.367h-9.285c0-3.2 0-8.563-4.162-8.563-2.482 0-3.922 2.081-3.922 5.204 0 9.687 18.888 12.968 18.888 29.541 0 8.723-4.96 15.69-14.327 15.69-11.125 0-13.366-9.768-13.366-17.614zm21.942-40.507h23.534v8.805h-13.128v14.57h9.686v9.287h-9.686v15.532h13.687v8.803h-24.093zm28.734 0h10.409v48.194h10.714v8.803h-21.123z" fill="#fffffe"/></g></svg>