<svg clip-rule="evenodd" fill-rule="evenodd" stroke-linejoin="round" stroke-miterlimit="2" viewBox="0 0 560 400" xmlns="http://www.w3.org/2000/svg"><g fill-rule="nonzero" transform="matrix(2.33615 0 0 2.33615 66.2672 154.708)"><path d="m96.144 1.751v-1.188l-12.381.027-13.454 28.041c-.768-2.254-1.072-2.2-1.901-4.093l-10.551-23.948h-.022l.01-.014h-12.058v1.188c4.339.226 5.258.726 5.322 6.158.003 7.295-.026 30.246-.026 30.246h3.385s-.022-22.402.035-32.066h.118c3.5 8.181 7.86 16.891 9.816 20.805 1.896 3.796 3.497 8.357 4.564 10.67h.83c3.972-9.839 9.883-20.51 14.625-30.764h.119c0 8.872-.007 31.355-.007 31.355h5.922s.007-24.07.001-31.489c.175-3.658 1.367-4.658 5.653-4.928z"/><path d="m10.416 7.271c0-4.566 1.244-5.335 5.688-5.335 11.262 0 18.494 7.052 18.494 18.375 0 10.551-6.638 16.832-17.068 16.832-5.869 0-7.113-1.66-7.113-4.503v-25.369zm-5.747 31.058h15.645c10.194 0 20.211-6.402 20.211-18.137 0-14.583-14.818-19.441-24.006-19.441h-16.12v1.186c3.557 0 4.27.831 4.27 5.335z"/><path d="m135.86 12.394c-1.956-6.937-5.971-11.086-13.198-11.086-9.127 0-15.707 8.716-15.707 18.318 0 14.816 11.024 17.859 15.585 17.84 5.71-.022 8.732-2.972 8.732-4.92l.077-4.445c0-4.514-.001-6.521-.001-6.521h5.825l-.035 13.396c-2.365 1.422-7.899 3.674-14.36 3.674-15.767 0-21.75-10.371-21.75-18.671 0-10.847 8.653-19.854 21.394-19.854 7.647 0 12.091 2.489 14.466 4.387 0 0-.061 5.273-.008 7.882z"/><path d="m166.947 38.395s-.053-32.841-.007-33.613c0-2.056.011-2.18 5.267-2.18 6.162 0 8.123.948 9.544 6.343h.829v-8.151h-37.378v8.151h.83c1.425-5.395 3.197-6.343 8.877-6.343 5.899 0 5.998.052 5.998 2.103l-.018 33.716"/></g></svg>