<svg clip-rule="evenodd" fill-rule="evenodd" stroke-linejoin="round" stroke-miterlimit="2" viewBox="0 0 560 400" xmlns="http://www.w3.org/2000/svg"><g fill-rule="nonzero" transform="matrix(1.69453 0 0 1.69453 100 150.859)"><g fill="#0b3f54"><path d="m84.996 16.805v22.222c.005.67-.201 1.323-.588 1.869-.387.547-.936.957-1.569 1.175-2.108.704-4.315 1.069-6.538 1.083-6.615 0-11.111-3.734-11.111-10.545 0-6.615 4.918-10.732 10.943-10.732.513 0 .993 0 1.438.057.335.034.672-.003.991-.109.319-.105.613-.276.861-.502.249-.226.447-.502.582-.809.136-.308.204-.641.203-.977v-2.789c0-.309.061-.615.179-.901s.292-.545.51-.764c.219-.218.478-.391.764-.51.285-.118.591-.179.9-.179h.067c.634.008 1.238.266 1.682.717.443.452.69 1.061.686 1.694zm-4.793 19.653v-7.789c.008-.57-.187-1.125-.55-1.564-.364-.44-.873-.735-1.434-.833-.634-.106-1.276-.156-1.918-.148-3.561 0-6.231 2.502-6.231 6.408 0 3.907 2.502 6.404 6.154 6.404.641.021 1.283-.014 1.918-.105.57-.087 1.091-.374 1.468-.809.378-.436.588-.992.593-1.569z"/><path d="m89.239 32.508c0-6.231 4.539-10.689 10.732-10.689s10.545 4.41 10.545 10.689c0 6.193-4.539 10.646-10.732 10.646s-10.545-4.357-10.545-10.646zm16.46 0c0-3.863-2.205-6.533-5.81-6.533-3.604 0-5.814 2.67-5.814 6.533 0 3.864 2.205 6.447 5.814 6.447 3.61 0 5.81-2.631 5.81-6.447z"/><path d="m134.503 32.379c0 6.83-5.048 10.775-10.647 10.775-.613 0-1.184-.024-1.72-.072-.332-.029-.667.011-.982.119-.316.107-.606.279-.851.504-.246.226-.441.5-.575.805-.133.306-.201.636-.2.969v2.766c0 .624-.248 1.223-.689 1.664-.442.441-1.04.689-1.665.689h-.086c-.624-.001-1.222-.249-1.663-.69s-.689-1.039-.69-1.663v-21.661c-.002-.559.142-1.107.418-1.593.276-.485.673-.889 1.154-1.173 2.237-1.312 4.784-2.002 7.377-1.999 6.155 0 10.819 3.605 10.819 10.56zm-4.837.086c0-3.902-2.502-6.231-6.193-6.231-.731-.006-1.459.083-2.167.263-.51.136-.96.437-1.282.856-.322.418-.496.932-.496 1.459v7.536c.001.56.198 1.102.557 1.532s.857.72 1.408.821c.667.122 1.345.18 2.023.173 3.648-.005 6.15-2.421 6.15-6.409z"/><path d="m138.831 16.776c0-.471.139-.933.4-1.326.262-.393.633-.7 1.068-.882.435-.183.914-.234 1.377-.145.464.088.891.311 1.228.641s.569.752.668 1.213c.098.462.058.942-.115 1.381-.174.438-.473.816-.86 1.086-.387.269-.845.419-1.317.429-.319.007-.636-.05-.933-.167s-.567-.293-.796-.516c-.228-.223-.409-.49-.533-.784s-.187-.61-.187-.93zm.038 23.426v-15.67c0-.628.247-1.231.687-1.68.44-.448 1.039-.705 1.667-.717h.096c.627.013 1.224.271 1.663.719.44.448.686 1.051.685 1.678v15.67c.001.627-.245 1.229-.685 1.678-.439.448-1.036.706-1.663.718h-.091c-.629-.01-1.229-.267-1.67-.715-.442-.448-.689-1.052-.689-1.681z"/><path d="m157.149 42.987c-1.929 0-3.613-.19-5.052-.57-1.44-.381-2.567-.87-3.382-1.467-.761-.516-1.141-1.032-1.141-1.548 0-.408.149-.897.448-1.467.299-.571.652-1.073 1.06-1.508.407-.434.747-.652 1.018-.652.163 0 .543.163 1.141.489.869.435 1.657.774 2.363 1.019.706.244 1.535.367 2.486.367 1.059 0 1.955-.204 2.689-.612.76-.434 1.14-1.181 1.14-2.24 0-.87-.353-1.549-1.059-2.038-.679-.516-1.793-1.086-3.341-1.711l-1.874-.815c-1.711-.815-3.056-1.82-4.034-3.015-.978-1.222-1.466-2.947-1.466-5.174 0-1.847.448-3.382 1.344-4.604.924-1.25 2.119-2.16 3.586-2.73 1.466-.598 3.042-.896 4.726-.896 1.385 0 2.635.149 3.748.448 1.141.271 2.037.638 2.689 1.1.598.434.897.869.897 1.304 0 .38-.123.855-.367 1.426-.244.57-.543 1.073-.896 1.507-.353.408-.679.611-.978.611-.136 0-.367-.068-.693-.203-.299-.136-.557-.245-.774-.326-.978-.326-1.996-.489-3.056-.489-1.412 0-2.404.231-2.974.692-.543.462-.815.992-.815 1.589 0 .706.19 1.291.57 1.752.381.462.842.842 1.386 1.141.543.272 1.344.638 2.404 1.1 1.548.652 2.811 1.277 3.789 1.874.978.571 1.82 1.413 2.526 2.527.733 1.086 1.1 2.485 1.1 4.196 0 2.092-.448 3.803-1.345 5.134-.869 1.331-1.996 2.295-3.381 2.893-1.386.597-2.88.896-4.482.896z"/><path d="m169.535 42.743c-1.657 0-2.485-.299-2.485-.897 0-.109.054-.353.163-.733l8.963-26.198c.218-.571.992-.856 2.323-.856h2.118c1.358 0 2.133.285 2.323.856l8.963 26.198c.082.271.123.516.123.733 0 .598-.679.897-2.038.897h-1.792c-1.331 0-2.092-.286-2.282-.856l-1.63-4.971h-9.615l-1.63 4.971c-.19.57-.815.856-1.874.856zm12.997-11.205-2.322-7.252c-.19-.544-.394-1.413-.611-2.608h-.163c-.027.163-.095.53-.204 1.1-.081.543-.217 1.046-.407 1.508l-2.404 7.252z"/><path d="m200.877 42.743c-1.63 0-2.445-.435-2.445-1.304v-21.961h-6.478c-.435 0-.747-.163-.937-.489s-.285-.842-.285-1.548v-1.263c0-.707.095-1.223.285-1.549s.502-.489.937-.489h19.272c.434 0 .747.163.937.489s.285.842.285 1.549v1.263c0 .706-.095 1.222-.285 1.548s-.503.489-.937.489h-6.478v21.961c0 .869-.815 1.304-2.445 1.304z"/></g><path d="m45.912 0h-33.824c-6.676 0-12.088 5.412-12.088 12.088v33.824c0 6.676 5.412 12.088 12.088 12.088h33.824c6.676 0 12.088-5.412 12.088-12.088v-33.824c0-6.676-5.412-12.088-12.088-12.088z" fill="#f9bf1e"/><path d="m27.929 8.38c-10.451.531-18.955 8.995-19.544 19.442-.138 2.417.151 4.839.855 7.155.13.428.37.814.694 1.122.325.308.724.527 1.158.634.434.108.889.102 1.32-.018s.823-.35 1.139-.666c.331-.327.566-.737.681-1.187.116-.45.106-.923-.026-1.368-.982-3.225-.885-6.681.277-9.846 1.161-3.164 3.324-5.862 6.159-7.685 2.836-1.822 6.188-2.67 9.549-2.414 3.361.257 6.546 1.603 9.072 3.835s4.254 5.227 4.922 8.531c.669 3.303.24 6.735-1.219 9.773-1.46 3.038-3.872 5.516-6.868 7.059-2.997 1.542-6.416 2.065-9.736 1.487-.4-.066-.811-.036-1.197.09-.385.125-.735.341-1.02.631l-.043.04c-.332.33-.567.744-.681 1.198-.113.454-.1.93.037 1.377.138.447.395.848.744 1.16.35.311.777.521 1.237.607 1.709.303 3.45.388 5.181.253 5.363-.488 10.324-3.051 13.824-7.144s5.263-9.391 4.912-14.766c-.351-5.373-2.788-10.398-6.791-14-4.003-3.603-9.255-5.499-14.636-5.284z" fill="#fff"/><path d="m16.591 38.505c-.328-.328-.745-.552-1.201-.642-.455-.091-.926-.044-1.355.133-.428.177-.795.478-1.052.864-.258.386-.396.839-.396 1.303s.138.917.396 1.303c.257.386.624.686 1.052.864.429.177.9.224 1.355.133.456-.091.873-.314 1.201-.642.44-.44.687-1.036.687-1.658s-.247-1.218-.687-1.658z" fill="#fff"/><path d="m17.671 43.231c-.328.328-.551.745-.642 1.2-.09.454-.044.925.134 1.353.177.428.477.794.863 1.051.385.258.838.395 1.301.395s.916-.137 1.302-.395c.385-.257.685-.623.862-1.051.178-.428.224-.899.134-1.353-.091-.455-.314-.872-.641-1.2-.218-.218-.476-.391-.76-.509s-.589-.178-.897-.178-.612.06-.897.178c-.284.118-.542.291-.759.509z" fill="#fff"/><path d="m31.13 37.959 5.308-13.821c.081-.213.101-.445.059-.669-.043-.224-.148-.431-.302-.599-.155-.168-.353-.289-.572-.35-.22-.062-.452-.061-.671.003l-14.216 4.147c-.2.058-.382.166-.529.314-.146.149-.253.332-.309.532-.056.201-.059.413-.011.616.049.202.149.389.29.542l8.911 9.677c.141.154.319.269.517.334.198.066.409.08.614.041.205-.04.396-.131.555-.265.16-.134.283-.307.356-.502z" fill="#fff"/></g></svg>