<svg clip-rule="evenodd" fill-rule="evenodd" stroke-linejoin="round" stroke-miterlimit="2" viewBox="0 0 560 400" xmlns="http://www.w3.org/2000/svg"><path d="m171.4 256.8c2.7-4.7 4.3-10.2 4.3-16 0-17.8-14.4-32.2-32.2-32.2s-32.2 14.4-32.2 32.2c0 5.8 1.6 11.3 4.3 16-8.7-7.7-14.2-18.9-14.2-31.4 0-23.2 18.8-42 42-42s42 18.8 42 42c.2 12.5-5.3 23.7-14 31.4zm-10.8 4.4c.8-2 1.2-4.2 1.2-6.5 0-10.1-8.2-18.2-18.2-18.2s-18.2 8.2-18.2 18.2c0 2.3.4 4.5 1.2 6.5-5.8-4.9-9.6-12.2-9.6-20.4 0-14.7 11.9-26.6 26.6-26.6s26.6 11.9 26.6 26.6c0 8.2-3.8 15.5-9.6 20.4zm-29.6-6.4c0-7 5.7-12.6 12.6-12.6 7 0 12.6 5.7 12.6 12.6 0 7-5.7 12.6-12.6 12.6-7 0-12.6-5.7-12.6-12.6zm12.6-77c-26.3 0-47.6 21.3-47.6 47.6s21.3 47.6 47.6 47.6 47.6-21.3 47.6-47.6-21.3-47.6-47.6-47.6zm354.4 18.6 2.6 3.3 2.6-3.3h1v6.4h-1.1v-4.6l-2.5 3h-.2l-2.4-3v4.6h-1.1v-6.4zm-8.5.9v-1h6.2v1h-2.6v5.4h-1.1v-5.4zm-3.6 25.2v26h-6.1v-26c0-8.2-6.6-14.9-14.7-14.9s-14.7 6.7-14.7 14.9v26.1h-6.1v-45.7h6.1v4.8c3.8-3.8 9-6.2 14.7-6.2 11.5-.2 20.8 9.3 20.8 21zm-54.1-31.2c0 2.5-2 4.5-4.5 4.5s-4.5-2-4.5-4.5 2-4.5 4.5-4.5 4.5 2 4.5 4.5zm-7.5 11.4h6.1v45.8h-6.1zm-12 19.8v26h-6.1v-26c0-8.2-6.6-14.9-14.7-14.9s-14.7 6.7-14.7 14.9v26h-6.1v-45.8h6.1v4.8c3.8-3.8 9-6.2 14.7-6.2 11.5 0 20.8 9.5 20.8 21.2zm-60.3-21.2c3.9 0 7.7 1.1 11 3.2l-3.2 5.3c-2.3-1.5-5-2.2-7.7-2.2-8.1 0-14.7 6.7-14.7 14.9v26h-6.1v-45.8h6.1v4.8c3.7-3.8 8.9-6.2 14.6-6.2zm-58 41.7c-9.4 0-17.1-7.8-17.1-17.4s7.7-17.4 17.1-17.4 17.1 7.8 17.1 17.4c.1 9.6-7.6 17.4-17.1 17.4zm17.2-40.3v7c-4.3-4.7-10.4-7.7-17.1-7.7-12.8 0-23.3 10.6-23.3 23.6s10.4 23.6 23.3 23.6c6.8 0 12.9-3 17.1-7.7v7h6.1v-45.8zm-88.5 19.1c1.4-8 8.3-14 16.6-14s15.1 6.1 16.6 14zm39.5 3.1c0-12.8-10.3-23.2-22.9-23.2s-22.9 10.4-22.9 23.2c0 13.4 10.8 24.4 24 24.4 7.1 0 13.8-3.2 18.4-8.7l-4.6-3.9c-3.4 4.2-8.5 6.5-13.8 6.5-8.9 0-16.3-6.6-17.7-15.2h39.5z" fill="#010202" fill-rule="nonzero" transform="matrix(.945378 0 0 .945378 -3.70798 -13.0882)"/></svg>