<svg clip-rule="evenodd" fill-rule="evenodd" stroke-linejoin="round" stroke-miterlimit="2" viewBox="0 0 560 400" xmlns="http://www.w3.org/2000/svg"><g fill-rule="nonzero" transform="matrix(.743665 0 0 .743665 141.868 99.908)"><path d="m299.181 203.908-1.432 3.844h-.031l-1.362-3.844h-2.085v5.887h1.202v-4.693h.034l1.641 4.693h1.161l1.71-4.693h.028v4.693h1.203v-5.887zm-10.742 1.045h1.767v4.842h1.212v-4.842h1.772v-1.045h-4.751z" fill="#002b5c"/><path d="m136.755 13.941-.062.033c.029-.004.059-.01.088-.018zm97.981 0-.026.015.088.018c-.021-.013-.041-.025-.062-.033m-50.075 25.506 1.086-.717zm-4.747 3.155-66.601 44.227zm-138.424 91.921-16.789 11.147 44.439 29.507-44.439-29.507zm60.283 62.327-16.407-10.894zm-43.298-73.605 8.16-5.42zm19.99-13.276 3.135-2.084zm40.838 98.523 66.441 44.124z" fill="#fff"/><path d="m371.491 145.67-29.417-19.534.307-.276 4.422-3.967-15.035-10.012 1.034-1.527c4.027-5.942 4.654-12.522 1.718-18.046-2.182-4.127-6.152-7.06-10.878-8.224l7.837-4.927c2.724-1.785 4.287-4.912 4.355-8.627.056-3.176-.988-6.565-2.931-9.535-3.119-4.762-8.077-7.837-12.628-7.837-1.77 0-3.434.48-4.811 1.383l-7.365 4.999c-.534-2.091-2.429-3.568-4.587-3.575-.219.013-.438.018-.658.015-2.523 0-11.389-.503-19.616-6.986-4.933-3.89-8.129-8.67-11.519-13.737-3.139-4.687-6.385-9.542-11.126-13.768-4.569-4.068-9.556-7.164-14.901-9.259.266-.88.401-1.794.401-2.713 0-5.15-4.234-9.388-9.383-9.393-4.159.005-7.841 2.772-9.004 6.764l-33.936 22.534-8.021-5.325-8.018 5.325-33.944-22.534c-1.164-3.993-4.847-6.759-9.006-6.764-5.148.005-9.381 4.242-9.381 9.39 0 .919.135 1.834.401 2.714-5.345 2.095-10.334 5.19-14.9 9.259-4.742 4.225-7.985 9.078-11.127 13.768-3.387 5.066-6.586 9.847-11.521 13.737-8.224 6.483-17.093 6.986-19.616 6.986-.226.002-.451-.003-.676-.016-2.143.004-4.03 1.458-4.579 3.529l-7.291-4.911c-1.451-.943-3.148-1.439-4.878-1.424-4.553 0-9.511 3.075-12.628 7.837-1.95 2.969-2.987 6.359-2.933 9.535.065 3.712 1.625 6.838 4.282 8.58l17.845 11.222c-4.91 2.092-9.347 4.984-12.971 8.508-6.793 6.604-10.57 15.171-10.665 24.154l-34.143 22.678 40.172 26.677c-5.531 3.666-8.881 9.86-8.924 16.495 0 10.208 8.261 20.543 24.046 20.543 4.556 0 9.207-.95 13.637-2.768 2.778 2.719 6.121 5.763 10.523 8.239l-14.633 9.943c-1.201-.547-2.503-.838-3.823-.854-1.465 0-2.861.407-4.04 1.179-2.497 1.63-3.733 4.628-3.392 8.219.24 2.595 1.303 5.441 2.985 8.013 2.948 4.499 7.156 7.292 10.987 7.292 1.47 0 2.876-.407 4.052-1.178 2.253-1.474 3.45-4.002 3.442-7.072l34.731-21.837 75.909 50.501 76.051-50.501 34.731 21.837c-.005 3.07 1.189 5.598 3.441 7.072 1.182.771 2.58 1.178 4.05 1.178 3.829 0 8.041-2.793 10.99-7.292 4.241-6.478 4.071-13.302-.408-16.232-1.201-.779-2.605-1.189-4.037-1.179-1.248 0-2.541.289-3.826.854l-26.857-18.247 12.094-8.028c2.068.429 4.176.645 6.289.642 13.593 0 25.496-7.767 33.083-14.281l10.409-8.944-7.902-5.229zm-37.435 30.753-5.781 4.964c-6.999 6.008-17.898 13.172-30.082 13.172-2.419.008-4.827-.328-7.152-.998l-19.495 12.947 34.964 23.752c2.02-1.599 4.122-2.185 5.5-1.282 2.133 1.398 1.718 5.809-.924 9.849-2.647 4.038-6.524 6.187-8.66 4.786-1.378-.903-1.685-3.057-1.024-5.552l-39.741-24.99-70.904 47.086-5.005 3.325-5.013-3.325-70.661-46.921c-.377.129-.754.274-1.128.39l-38.858 24.433c.657 2.497.353 4.651-1.022 5.551-2.139 1.401-6.016-.745-8.663-4.785-2.644-4.04-3.057-8.451-.923-9.85 1.375-.903 3.472-.317 5.502 1.282l24.1-16.373c-1.906-.541-3.763-1.243-5.551-2.097-5.536-2.665-9.336-6.437-12.693-9.757l-.939-.934c-4.638 2.389-9.689 3.679-14.606 3.679-12.757 0-19.436-8.016-19.436-15.933 0-6.839 4.824-13.729 14.083-15.54l-30.25-20.086-11.361-7.546 11.361-7.543 19.178-12.736c-.055-.679-.114-1.357-.114-2.059 0-7.85 3.294-15.378 9.272-21.19 5.443-5.296 12.849-8.897 20.782-10.329l-26.344-16.565c-2.789-1.823-3.07-7.081-.023-11.735 3.051-4.659 8.275-6.95 11.061-5.126l24.204 16.446c3.789-2.802 8.688-4.442 14.175-4.442 7.91 0 14.437 2.974 18.146 7.744l61.7-40.971-1.135-.756c-23.115-.093-39.127 15.798-43.905 19.49-8.853 6.844-17.524 11.683-28.111 12.509-19.759 1.53-30.926-7.94-30.926-7.94s12.192.9 23.401-7.933c10.301-8.119 13.616-19.449 22.848-27.678 6.731-5.993 13.792-9.148 20.7-10.508-2.628-.048-4.763-2.224-4.763-4.852 0-2.663 2.191-4.853 4.854-4.853h.09c2.688 0 4.865 2.178 4.865 4.858 0 .023-.007.036-.007.052l36.833 24.463 4.259-2.83 5.013-3.325 5.004 3.325 4.26 2.83 36.838-24.463-.005-.052c0-2.668 2.196-4.864 4.864-4.864 2.669 0 4.864 2.196 4.864 4.864-.004 2.597-2.089 4.755-4.684 4.847 6.911 1.36 13.969 4.515 20.697 10.508 9.238 8.229 12.553 19.559 22.854 27.678 11.204 8.833 23.395 7.933 23.395 7.933s-11.165 9.47-30.918 7.94c-10.59-.823-19.265-5.663-28.119-12.509-4.773-3.692-20.782-19.583-43.899-19.49l-1.136.751 75.584 50.194 42.641-28.966c2.789-1.824 8.01.47 11.059 5.126 3.052 4.654 2.768 9.912-.02 11.735l-21.727 13.66h6.132c1.814-.515 3.691-.777 5.577-.779 4.987 0 9.373 2.422 11.444 6.331 2.108 3.973 1.571 8.817-1.463 13.298l-3.645 5.377 13.957 9.289-4.734 4.254 17.235 11.449 11.361 7.543-11.361 7.546-26.357 17.501z" fill="#fff"/><path d="m136.69 13.972c-.603.259-1.252.393-1.909.392-.062 0-.116-.016-.178-.016-6.911 1.36-13.969 4.51-20.7 10.505-9.232 8.23-12.547 19.56-22.848 27.678-11.209 8.833-23.401 7.928-23.401 7.928s11.167 9.475 30.926 7.945c10.587-.82 19.26-5.662 28.111-12.509 4.778-3.691 20.79-19.583 43.905-19.492l-33.813-22.447c-.033.003-.059.011-.093.016m-31.256 47.284c.026-.23.101-.591.119-.826-3.062-2.517-4.59-3.779-7.654-6.294-.429-.096-.645-.139-1.073-.232 4.563-1.989 6.222-3.834 9.194-6.973l2.293 1.883c-.438.281-.665.42-1.12.689 0 0-1.694 1.847-3.578 3.209l1.969 1.615c.854-.522 1.672-1.101 2.448-1.734.325-.415.482-.627.776-1.06l2.49 2.04c-.493.24-.746.359-1.249.586-.985.722-1.496 1.065-2.592 1.7l1.829 1.499c1.552-.8 3.011-1.77 4.349-2.892.317-.418.472-.635.769-1.068l2.304 1.888c-3.352 2.807-5.756 4.533-11.274 5.97m19.841-14.233c-2.092 1.969-3.119 2.967-5.405 4.778-1.001-.843-1.498-1.264-2.502-2.1.477-.229.715-.343 1.187-.578 1.014-.904 1.999-1.84 2.953-2.806l.055-.663-1.074-.901c-3.002.501-4.455.797-7.403 1.347l-2.59-2.183c.141-1.558.175-2.37.198-4.037 1.726-2.273 2.515-3.477 4.195-5.789l2.85 2.397c-.425.273-.632.41-1.049.689-.999 1.274-1.486 1.921-2.495 3.188l-.013.702.882.74c2.864-.619 4.311-.918 7.373-1.375 1.254 1.058 1.881 1.587 3.142 2.642-.095 1.604-.152 2.394-.304 3.949m14.743-15.421c1.238-.4 1.886-.576 3.264-.857.619.127.931.191 1.563.325.779.653 1.646 1.36 2.42 2.013-.135.219-.262.443-.382.67-1.409.256-2.072.413-3.344.787-.58-.095-.871-.137-1.439-.219-.743-.627-1.597-1.326-2.34-1.948zm-.836 5.466c-2.216 1.037-3.211 1.649-5.108 2.954l-.405-.96c-4.068-3.426-6.106-5.138-10.174-8.57-.702.645-1.04.978-1.708 1.654l-.552 1.195-2.946-2.474c3.09-3.589 4.698-5.333 9.243-7.698l3.344 2.814c-.622.103-.929.157-1.528.286-.758.4-1.493.843-2.2 1.326 3.55 2.98 7.098 5.962 10.644 8.947.554.204.831.312 1.39.526m95.526-23.109-33.81 22.451c23.117-.095 39.126 15.796 43.902 19.488 8.856 6.846 17.526 11.683 28.116 12.509 19.756 1.535 30.921-7.94 30.921-7.94s-12.194.905-23.398-7.928c-10.304-8.118-13.616-19.449-22.852-27.681-6.728-5.992-13.788-9.142-20.702-10.507-.697-.139-1.393-.268-2.087-.371-.029-.012-.059-.019-.09-.021m37.445 40.701c-1.232-.607-2.405-1.326-3.504-2.149-.487-.186-.727-.287-1.207-.485.926-.844 1.393-1.262 2.324-2.103 2.111 1.793 3.269 2.595 5.975 3.844.562 1.091.893 1.599 1.648 2.518-.812.732-1.217 1.096-2.027 1.831-1.027.088-1.53.132-2.531.196.441.581.681.859 1.194 1.37l-2.651 2.397-4.211.464c-3.712-.983-5.288-1.757-7.914-3.292l2.329-2.102c.284.338.436.503.733.825 1.597.934 2.443 1.357 4.282 2.072l.8-.039 1.615-1.46c-.106-.175-.155-.268-.253-.451-.792-.336-1.169-.516-1.901-.895-.542-.14-.81-.217-1.342-.372 1.004-.9 1.507-1.352 2.505-2.257.294.333.449.493.759.81.632.361.957.534 1.635.856l.759-.007c.485-.434.722-.653 1.202-1.087-.088-.19-.137-.288-.219-.484m-10.577-9.837c-.842-1.017-1.659-2.053-2.451-3.109l-1.014-.66 2.753-2.484c1.573 2.27 2.36 3.407 4.091 5.536.021 1.586.054 2.36.183 3.844l-2.463 2.226c-3.362.199-5.033.302-8.47.575 1.133 1.107 1.711 1.651 2.928 2.678.47.201.702.307 1.184.506-.982.884-1.467 1.328-2.45 2.21-3.261-2.419-4.649-3.854-7.494-6.655l2.355-2.123c3.164-.307 6.335-.528 9.511-.663l1.344-1.215c-.005-.222-.007-.444-.007-.666m-8.857-16.118c1.339 1.46 1.953 2.239 3.148 3.831-.126 1.435-.239 2.871-.338 4.308l-8.913 8.051c-1.42-.089-2.842-.141-4.265-.155-1.999-1.813-3.028-2.695-5.322-4.248l3.189-2.879c.227.392.335.59.555.993 1.238.967 1.821 1.483 2.959 2.541.296.002.446.005.74.013l1.863-1.682c-.869-.891-1.78-1.74-2.73-2.544-.005-1.599-.008-2.402-.031-3.975l4.711-4.257c1.477-.057 2.957-.056 4.434.003m-9.395-6.829c1.102.645 1.617.998 2.59 1.754l-1.246.547-13.373 12.032-.537 1.086c-1.906-1.008-2.936-1.442-5.221-2.107l1.418-.697 11.749-10.574c-.812-.375-1.647-.696-2.5-.963l2.079-1.872c1.701.116 3.387.382 5.041.794" fill="#002b5c"/><path d="m252.059 34.308c.015-.286.026-.431.046-.72-.387-.446-.577-.668-.972-1.101l-.72-.031-2.742 2.474-.021.699c.557.56.831.843 1.365 1.426z" fill="#002b5c"/><path d="m48.927 188.92c0 1.836 1.682 3.691 5.441 3.691 3.937 0 7.298-1.078 10.273-3.294-4.105-2.91-7.621-4.324-10.737-4.324-3.23-.002-4.977 2.023-4.977 3.927m265.404-84.389c1.252-1.806 1.564-3.312.803-3.934-1.525-1.238-7.523.815-17.793 11.627l-.286.42 8.077 5.361z" fill="#e31837"/><g fill="#002b5c"><path d="m110.49 161.876c2.995-2.884 4.6-6.493 4.507-10.151-.054-2.221-.996-4.871-5.157-4.871-2.928 0-5.992 2.09-8.629 5.885l-10.561 15.362c8.046.441 15.264-1.811 19.84-6.225m186.555 10.977-.867 1.311c-1.716 2.52-2.263 4.653-1.744 6.279l10.107-6.715c-2.863.183-5.479-.186-7.496-.875m17.132-9.648 1.395-2.033c1.997-2.933 2.278-5.312.751-6.367-1.937-1.331-6.759-.149-10.193 4.809l-6.121 8.99c2.755.792 9.243 1.641 14.168-5.399m-4.814-34.61c.361.689 1.295.833 2.015.833 1.718 0 3.996-.952 6.777-2.773l-6.047-4.014-1.729 2.551c-1.045 1.502-1.398 2.678-1.016 3.403m-197.482.833c4.334 0 10.133-4.246 15.517-11.364l7.541-11.111c1.591-2.466 1.576-4.584-.039-5.657-.637-.426-1.517-.655-2.52-.655-2.467 0-5.694 1.398-8.003 4.757l-13.494 19.799c-1.04 1.499-1.394 2.673-1.022 3.398.369.689 1.3.833 2.02.833m46.902-1.248h.196c5.89 0 7.007-6.525 8.188-13.433.552-3.204 1.117-6.511 2.173-9.37l-1.842 2.077c-3.145 3.557-7.053 7.984-11.367 12.169l-.038.041c-1.048 1.019-2.093 2.012-3.109 2.943.322 1.703 1.525 5.467 5.799 5.573m67.855-22.782-6.119 8.99c2.753.787 9.243 1.638 14.163-5.402l1.398-2.033c1.997-2.93 2.281-5.311.751-6.366-1.945-1.326-6.762-.15-10.193 4.811m-97.186 63.209c2.747.781 9.24 1.64 14.17-5.402l1.396-2.033c1.996-2.933 2.28-5.312.748-6.367-1.943-1.334-6.754-.149-10.193 4.809zm73.308 14.204c.359.689 1.293.833 2.017.833 4.407 0 10.278-4.365 15.703-11.678l7.35-10.794c1.592-2.466 1.579-4.584-.039-5.657-.637-.426-1.511-.658-2.52-.658-2.466 0-5.696 1.401-8.005 4.759l-13.49 19.797c-1.042 1.499-1.398 2.673-1.016 3.398m-2.572 19.051 4.146-6.222c-6.099 2.064-9.187 4.316-9.187 6.697 0 .745.421 1.318 1.128 1.537 1.06.318 2.683-.175 3.913-2.012"/><path d="m284.979 180.334c-7.117 5.789-13.051 8.606-18.141 8.606-3.268 0-5.863-.988-7.324-2.783-1.068-1.324-1.467-2.982-1.168-4.83-4.172 3.341-10.216 7.613-15.703 7.613-2.389 0-4.249-.696-5.376-2.009-.921-1.081-1.308-2.544-1.11-4.252-6.681 4.889-13.329 8.163-20.315 10.002l-7.319 10.68c-3.408 4.891-8.523 7.032-12.924 7.032-1.267 0-2.477-.172-3.568-.516-3.124-.982-4.989-3.245-4.989-6.054 0-5.75 6.957-10.35 21.272-14.052l2.332-3.31c-3.219 1.631-6.237 2.484-8.76 2.484-3.063 0-5.482-.83-6.999-2.409-1.035-1.079-1.606-2.522-1.592-4.017-5.9 4.324-10.912 6.424-15.321 6.424-4.646 0-7.868-1.994-8.475-5.216-4.935 3.366-9.645 5.216-13.298 5.216-3.127 0-5.665-.913-7.151-2.567-1.055-1.184-1.548-2.688-1.429-4.362-6.955 4.597-13.676 6.931-19.986 6.931-5.933 0-10.435-2.107-12.357-5.786-1.687-3.227-1.109-7.174 1.633-11.108l10.144-14.633c4.257-6.183 10.574-9.452 18.265-9.452 4.352 0 7.819 1.664 9.281 4.448 1.316 2.52.805 5.691-1.442 8.923l-1.393 2.038c-7.411 10.786-19.126 11.588-25.279 9.483l-.869 1.313c-1.914 2.823-2.456 5.191-1.574 6.857.893 1.69 3.194 2.626 6.481 2.626 6.25 0 14.911-4.666 22.603-12.168l.73-.699 9.208-13.369c4.269-6.201 11.624-9.452 16.683-9.452 3.294 0 6.354 1.3 8.389 3.565 1.324 1.471 2.012 3.161 1.912 4.652h5.603l-.155.227-15.636 23.006c-1.039 1.501-1.395 2.678-1.016 3.4.361.691 1.292.836 2.017.836 3.689 0 9.558-3.983 17.953-12.169l.719-.694 9.218-13.373c4.267-6.202 11.624-9.452 16.68-9.452 2.787 0 5.426.954 7.438 2.688 1.733 1.499 2.789 3.41 2.843 5.136h5.812l-21.577 30.996c7.074-2.627 13.693-7.226 22.041-15.306l.643-.619 15.199-22.111h10.025l-.152.224-19.178 28.099c-.885 1.238-2.226 3.121-1.88 4.22.118.372.402.627.885.803.184.061.378.091.572.087 2.221 0 7.497-3.005 14.16-8.116l17.249-25.315h10.027l-.155.225-20.658 30.436c-1.043 1.504-1.401 2.68-1.019 3.402.361.692 1.295.836 2.017.836 3.689 0 9.558-3.983 17.95-12.168l.573-.545 9.367-13.52c4.251-6.184 10.569-9.447 18.259-9.447 4.355 0 7.824 1.664 9.285 4.445 1.235 2.365.838 5.309-1.071 8.335l22.704-15.079-24.536-16.288c-5.206 3.552-9.764 5.34-13.76 5.34-3.805 0-6.705-1.344-7.943-3.694-1.2-2.255-.748-5.209 1.223-8.108l3.353-4.917-8.074-5.361-14.537 21.301h-10.123l2.268-3.297c-4.401 2.706-8.387 4.076-11.854 4.076-3.805 0-6.702-1.344-7.943-3.694-1.2-2.255-.751-5.209 1.22-8.108l10.236-14.95c.965-1.414.772-2.993-.547-4.435l-1.189-1.22c-7.502 8.591-11.108 12.638-15.656 17.093h.005l-.258.251c-5.753 5.626-17.297 15.06-29.972 15.06-7.427 0-12.578-3.364-13.218-8.603-7.11 5.791-13.048 8.603-18.138 8.603-3.137 0-5.683-.913-7.164-2.585-1.058-1.184-1.546-2.695-1.414-4.38-5.884 3.87-11.601 6.137-16.993 6.733-.031 0-.069.018-.1.031-.06.03-.125.047-.191.049l-.183.018c-.839.07-1.628.137-2.495.137h-.026c-7.938-.003-10.525-5.529-11.204-7.541-6.534 5.077-12.037 7.541-16.801 7.541-4.644 0-7.871-1.989-8.48-5.214-4.927 3.367-9.643 5.214-13.294 5.214-3.805 0-6.704-1.344-7.945-3.694-1.197-2.255-.748-5.209 1.22-8.108l13.59-19.723c4.272-6.204 11.627-9.452 16.681-9.452 3.299 0 6.359 1.3 8.392 3.568 1.323 1.476 2.009 3.158 1.909 4.649h5.608l-.155.224-15.638 23.009c-1.042 1.496-1.398 2.672-1.019 3.395.358.689 1.295.836 2.017.836 3.684 0 9.556-3.978 17.953-12.164l.642-.627c7.154-7.04 14.196-15.305 18.85-20.772l1.135-1.336h9.886l-.157.227c-4.273 6.122-5.317 12.886-6.326 19.43-.635 4.141-1.238 8.07-2.626 11.687 4.088-2.401 7.867-5.293 11.253-8.611l.681-.658 14.962-21.789h-8.846l2.998-4.2h8.745l9.117-13.303h10.028l-.155.224-8.967 13.079h8.01l-2.998 4.2h-7.907l-20.708 30.377c-1.044 1.496-1.4 2.675-1.019 3.395.359.694 1.296.835 2.015.835 3.689 0 9.561-3.978 17.953-12.163l.572-.55 9.365-13.515c4.256-6.183 10.574-9.452 18.264-9.452 4.352 0 7.817 1.661 9.28 4.448 1.318 2.517.807 5.688-1.437 8.92l-1.398 2.038c-7.412 10.794-19.129 11.586-25.279 9.483l-.867 1.316c-1.917 2.815-2.459 5.188-1.579 6.857.895 1.69 3.199 2.621 6.486 2.621 6.248 0 14.908-4.662 22.606-12.163l.645-.627c6.165-6.096 11.877-12.884 16.046-17.837l.245-.291-.753-.846c-1.515-1.651-2.24-3.617-2.095-5.691.101-1.409.624-2.784 1.476-4.094l-74.013-49.144-1.086.717-4.747 3.155-66.601 44.224-6.019 4.002c-1.321 4.532-5.234 7.016-5.286 7.045l-.09.054-.077-.07-2.204-1.947-18.035 11.98-3.131 2.082-11.834 7.855-8.159 5.42-5.072 3.369c1.837 5.874 8.307 11.062 18.102 11.062 8.513 0 14.699-4.935 17.06-9.823 1.811-3.759 1.493-7.629-.875-10.606l-.1-.126.134-.083 5.587-3.712.083.088c4.262 4.437 5.322 10.234 2.905 15.904-3.047 7.141-12.306 14.823-25.447 14.823-11.867 0-20.991-4.961-24.68-12.726l-4.68 3.106-16.789 11.15 44.439 29.507 4.68 3.109 4.72-7.177c-7.651-3.308-12.212-9.375-12.212-16.26 0-1.667.31-3.352.913-5.005l.029-.098h7.509l-.103.206c-.762 1.465-1.166 3.089-1.179 4.739 0 4.77 3.163 9.024 8.459 11.4l11.753-16.962c4.038-5.923 10.219-9.607 16.124-9.607 7.527 0 12.984 5.162 12.984 12.27 0 3.668-1.197 7.047-3.769 10.62-6.212 8.622-19.41 13.131-32.134 10.98l-6.232 9.452 4.674 3.109 16.41 10.894 6.096 4.05c2.709-1.238 5.201-3.155 7.44-5.763l.082-.096.101.07 5.939 3.937-.109.126c-2.064 2.313-4.449 4.319-7.081 5.957l5.059 3.359 66.446 44.124 101.572-67.45c-1.292-1.306-2.115-3.006-2.337-4.83"/><path d="m267.795 95.327 4.858 4.96c3.302 3.349 5.069 5.74 1.723 10.668l-9.681 14.24c-1.043 1.496-1.396 2.675-1.017 3.395.364.694 1.298.836 2.015.836 3.692 0 9.563-3.978 17.952-12.164l.638-.614 5.894-8.572-23.334-15.497c-.002 1.048.338 2.085.952 2.748m-85.655 65.845c1.592-2.466 1.574-4.584-.039-5.657-.637-.424-1.514-.658-2.517-.658-2.469 0-5.696 1.401-8.005 4.757l-13.492 19.799c-1.04 1.502-1.396 2.678-1.022 3.4.361.689 1.293.836 2.017.836 4.334 0 10.134-4.249 15.515-11.369z"/></g><path d="m351.802 153.216 11.359-7.543-11.359-7.548-17.24-11.444 4.739-4.254-13.957-9.29 3.64-5.371c3.042-4.481 3.573-9.328 1.466-13.301-2.074-3.906-6.455-6.333-11.444-6.333-1.87 0-3.725.26-5.58.784h-6.132l21.729-13.66c2.789-1.829 3.07-7.081.021-11.738-3.05-4.659-8.271-6.952-11.057-5.126l-42.643 28.966-75.579-50.194 1.135-.754 33.81-22.451.026-.023.062.038c.694.101 1.396.235 2.09.369 2.594-.088 4.68-2.246 4.682-4.842 0-2.668-2.195-4.863-4.863-4.863s-4.863 2.195-4.863 4.863l.005.052-36.836 24.461-4.259-2.833-5.007-3.325-5.01 3.328-4.259 2.832-36.836-24.463.002-.052c-.06-2.625-2.236-4.751-4.861-4.751-2.626 0-4.802 2.126-4.862 4.751 0 2.626 2.082 4.749 4.685 4.842.057.005.116.023.173.023.681 0 1.328-.141 1.911-.392.026-.01.042-.025.062-.038l.029.023 33.807 22.451 1.14.756-61.702 40.974c-3.71-4.772-10.231-7.749-18.143-7.749-5.49 0-10.386 1.646-14.176 4.442l-24.201-16.443c-2.788-1.827-8.015.469-11.061 5.126-3.052 4.656-2.766 9.909.02 11.738l26.342 16.564c-7.93 1.432-15.337 5.031-20.782 10.322-5.975 5.817-9.27 13.345-9.27 21.197 0 .697.06 1.373.117 2.054l-19.181 12.736-11.361 7.546 11.361 7.543 30.25 20.088c-9.261 1.809-14.083 8.702-14.083 15.538 0 7.917 6.679 15.933 19.439 15.933 4.914 0 9.965-1.288 14.601-3.676l.944.931c3.351 3.323 7.149 7.089 12.69 9.759 1.447.697 3.333 1.46 5.554 2.097l-24.105 16.371c-2.025-1.599-4.125-2.182-5.5-1.279-2.138 1.398-1.721 5.807.924 9.849 2.644 4.04 6.519 6.189 8.66 4.788 1.372-.903 1.682-3.059 1.024-5.556l38.859-24.431c.374-.118.748-.265 1.127-.389l70.657 46.92 5.01 3.328 5.007-3.328 70.904-47.083 39.738 24.985c-.657 2.5-.356 4.657 1.022 5.557 2.133 1.401 6.011-.746 8.66-4.788 2.647-4.043 3.06-8.451.924-9.85-1.375-.902-3.473-.319-5.5 1.28l-34.964-23.749 19.496-12.948c2.326.67 4.737 1.007 7.158.999 12.177 0 23.081-7.167 30.078-13.17l5.783-4.966-8.619-5.704zm-31.269 21.107.08-.067.093.057 4.053 2.683-.147.129c-6.279 5.387-15.961 11.815-26.417 11.815-4.772 0-8.58-1.401-10.876-3.782l-101.572 67.453-66.444-44.119-5.064-3.361c-1.326.828-2.802 1.615-4.432 2.267-3.564 1.45-7.372 2.203-11.22 2.216-5.518 0-9.934-1.589-12.614-2.881-4.693-2.263-7.99-5.531-11.176-8.689-1.339-1.326-2.716-2.693-4.153-3.931-4.683 3.255-10.134 5.046-15.347 5.046-9.494 0-13.822-5.346-13.822-10.314 0-5.167 4.589-10.394 13.36-10.394 6.614 0 11.508 3.003 15.05 5.655.245-.299.467-.624.699-.96.165-.242.331-.485.514-.727l2.719-4.13-4.68-3.109-44.439-29.507 16.792-11.15 4.682-3.106c-1.196-2.524-1.811-5.286-1.798-8.08 0-6.413 2.616-12.351 7.569-17.165 6.119-5.952 15.182-9.439 24.412-9.439l.761.005c-1.15-2.005-1.754-4.141-1.754-6.184-.023-3.975 1.685-7.77 4.677-10.389 3.031-2.677 7.239-4.153 11.846-4.153 9.344 0 15.868 4.889 15.868 11.88 0 1.07-.196 2.03-.456 2.938l6.016-3.999 66.603-44.227 4.747-3.152 1.084-.717 74.013 49.146c.734-1.128 1.64-2.135 2.685-2.984l.085-.067.083.056 6.023 3.999-.141.124c-1.316 1.174-1.641 2.481-1.682 3.374-.006.07.025.134.028.204l23.334 15.494 9.307-13.544h10.03l-.157.225-3.026 4.437c4.419-3.663 8.573-5.441 12.677-5.441 2.902 0 5.386 1.28 6.483 3.341 1.114 2.108.704 4.783-1.151 7.522l-12.23 18.028 6.047 4.016c2.267-1.488 4.862-3.542 7.806-6.225l.08-.074 4.117 2.734-.137.124c-2.451 2.224-5.047 4.284-7.77 6.166l24.534 16.293-22.702 15.074c-.124.196-.232.389-.366.59l-1.399 2.033c-4.984 7.254-11.905 9.981-17.779 10.358l-10.113 6.718c.062.188.075.407.168.585.898 1.69 3.194 2.621 6.478 2.621 5.368-.015 12.457-3.413 19.461-9.339" fill="#e31837"/><path d="m78.592 186.025c-.731 1.058-1.516 2.079-2.35 3.057l-.178.214c.544.514 1.068 1.012 1.576 1.486 7.979 7.523 11.985 11.297 21.371 11.777.366.02.724.028 1.08.028 2.686.009 5.341-.565 7.784-1.682l-6.099-4.05-16.41-10.894-4.674-3.109zm17.751-93.036h.377c0-.005 3.209-1.627 3.209-5.492 0-2.853-2.226-5.918-7.123-5.918-4.362 0-9.065 2.877-9.065 9.205 0 4.127 2.923 6.575 4.662 7.664l.188.121-.183.127-5.616 3.73-.062-.018c-7.211-1.777-15.481.103-21.608 4.901-5.255 4.12-8.273 9.904-8.273 15.868 0 1.148.201 2.302.554 3.429l5.075-3.367 8.159-5.42 11.831-7.855 3.134-2.084 18.038-11.976z" fill="#e31837"/><path d="m258.284 91.973c-.147 2.071.578 4.04 2.095 5.693l.753.844-.25.286c-4.164 4.959-9.876 11.746-16.044 17.842l-.645.627c-7.695 7.502-16.363 12.163-22.606 12.163-3.281 0-5.588-.929-6.483-2.621-.882-1.666-.34-4.04 1.571-6.857l.872-1.315c6.15 2.102 17.867 1.31 25.282-9.484l1.395-2.038c2.245-3.232 2.755-6.403 1.435-8.92-1.455-2.786-4.923-4.448-9.275-4.448-7.69 0-14.008 3.269-18.267 9.452l-9.364 13.516-.575.549c-8.39 8.186-14.264 12.164-17.953 12.164-.72 0-1.654-.145-2.012-.836-.382-.72-.026-1.899 1.019-3.395l20.708-30.377h7.904l2.995-4.199h-8.005l8.962-13.077.16-.227h-10.03l-9.119 13.304h-8.746l-2.995 4.199h8.851l-14.962 21.789-.689.658c-3.383 3.318-7.16 6.21-11.245 8.611 1.38-3.622 1.986-7.546 2.626-11.686 1.009-6.545 2.053-13.309 6.326-19.431l.157-.227h-9.886l-1.135 1.336c-4.659 5.467-11.694 13.73-18.85 20.772l-.647.627c-8.395 8.186-14.269 12.164-17.956 12.164-.714 0-1.653-.147-2.012-.836-.376-.722-.025-1.899 1.019-3.395l15.636-23.009.157-.224h-5.616c.106-1.491-.585-3.176-1.906-4.649-2.033-2.267-5.095-3.568-8.389-3.568-5.057 0-12.414 3.248-16.686 9.453l-13.585 19.722c-1.968 2.899-2.417 5.853-1.223 8.108 1.244 2.35 4.138 3.694 7.943 3.694 3.653 0 8.366-1.85 13.299-5.214.609 3.225 3.833 5.214 8.479 5.214 4.765 0 10.265-2.464 16.802-7.538.676 2.01 3.266 7.535 11.204 7.538h.026c.864 0 1.651-.062 2.494-.137l.178-.018c.078 0 .145-.026.194-.046.031-.016.064-.034.103-.034 5.392-.598 11.106-2.863 16.993-6.733-.132 1.685.356 3.194 1.408 4.381 1.481 1.666 4.033 2.584 7.167 2.584 5.092 0 11.031-2.812 18.138-8.603.642 5.237 5.792 8.603 13.221 8.603 12.669 0 24.219-9.434 29.972-15.06l.255-.25h-.008c4.551-4.456 8.152-8.503 15.662-17.094l1.187 1.22c1.318 1.44 1.506 3.019.544 4.435l-10.231 14.95c-1.974 2.899-2.42 5.853-1.223 8.108 1.243 2.35 4.138 3.694 7.943 3.694 3.467 0 7.453-1.37 11.857-4.073l-2.271 3.294h10.121l14.539-21.301.286-.421c10.27-10.811 16.273-12.865 17.793-11.626.758.621.454 2.128-.802 3.931l-9.202 13.479-3.362 4.915c-1.965 2.899-2.414 5.853-1.22 8.108 1.244 2.35 4.141 3.694 7.946 3.694 3.996 0 8.552-1.788 13.763-5.34 2.721-1.883 5.315-3.945 7.765-6.171l.136-.121-4.117-2.737-.08.075c-2.943 2.683-5.536 4.736-7.806 6.225-2.776 1.823-5.056 2.773-6.775 2.773-.722 0-1.656-.145-2.017-.836-.374-.72-.023-1.899 1.019-3.4l1.734-2.546 12.225-18.03c1.863-2.742 2.27-5.415 1.151-7.52-1.097-2.064-3.576-3.346-6.481-3.346-4.099 0-8.255 1.78-12.677 5.443l3.026-4.434.158-.227h-10.028l-9.31 13.546-5.895 8.572-.637.614c-8.392 8.186-14.261 12.164-17.952 12.164-.72 0-1.654-.145-2.015-.836-.379-.72-.023-1.899 1.016-3.395l9.682-14.24c3.346-4.927 1.579-7.319-1.723-10.667l-4.858-4.961c-.611-.663-.949-1.703-.952-2.745 0-.07-.033-.137-.031-.204.044-.89.372-2.2 1.685-3.377l.139-.124-6.021-3.993-.085-.059-.083.064c-1.043.853-1.949 1.862-2.685 2.99-.851 1.305-1.38 2.68-1.473 4.089m-22.207 14.98-1.393 2.033c-4.927 7.04-11.412 6.184-14.168 5.402l6.122-8.99c3.434-4.961 8.248-6.137 10.193-4.809 1.53 1.055 1.246 3.434-.754 6.364m-125.194 18.242 13.497-19.8c2.303-3.359 5.531-4.759 8-4.759 1.006 0 1.88.237 2.52.66 1.615 1.073 1.628 3.191.041 5.655l-7.54 11.111c-5.387 7.115-11.186 11.364-15.518 11.364-.722 0-1.656-.145-2.017-.836-.379-.717-.026-1.896 1.017-3.395m45.21-5.534.038-.041c4.314-4.184 8.224-8.611 11.369-12.169.645-.73 1.259-1.426 1.84-2.076-1.056 2.855-1.621 6.168-2.173 9.372-1.181 6.906-2.298 13.43-8.19 13.43h-.194c-4.274-.103-5.477-3.87-5.802-5.575 1.017-.929 2.069-1.922 3.112-2.941m82.608-95.744-11.748 10.571-1.419.7c2.288.668 3.315 1.104 5.221 2.105l.537-1.081c5.35-4.814 8.02-7.224 13.373-12.037l1.246-.542c-.814-.654-1.68-1.242-2.59-1.757-1.654-.414-3.342-.68-5.043-.794-.833.745-1.249 1.124-2.079 1.87 1.055.34 1.548.536 2.502.965m4.907 13.017c1.14.975 1.677 1.491 2.729 2.544-.74.673-1.114 1.011-1.862 1.682-.247-.007-.494-.012-.741-.013-1.135-1.058-1.721-1.574-2.956-2.541-.182-.334-.368-.665-.56-.993l-3.186 2.879c2.291 1.553 3.318 2.435 5.322 4.248 1.422.013 2.843.065 4.262.155l8.915-8.051c.098-1.437.211-2.874.338-4.308-.974-1.337-2.025-2.616-3.147-3.831-1.478-.059-2.959-.061-4.437-.005l-4.708 4.256c.026 1.576.028 2.379.031 3.978m4.063-2.002 2.74-2.474.722.026c.395.439.591.658.972 1.104l-.046.72-3.044 2.745c-.444-.485-.899-.96-1.365-1.424zm3.057 12.435-2.355 2.128c2.848 2.796 4.235 4.231 7.496 6.65.978-.884 1.466-1.328 2.448-2.213-.396-.163-.791-.332-1.184-.506-1.014-.849-1.991-1.741-2.928-2.675 3.437-.271 5.108-.374 8.47-.578l2.463-2.223c-.119-1.278-.18-2.561-.183-3.844-1.731-2.123-2.518-3.269-4.091-5.536l-2.75 2.481c.405.263.606.4 1.013.661.958 1.264 1.443 1.891 2.451 3.108l.005.671-1.344 1.215c-3.714.183-5.59.292-9.511.661m19.681 8.869c-.558-.261-1.103-.546-1.636-.854-.261-.263-.513-.535-.756-.815-1.001.908-1.504 1.357-2.507 2.262.529.155.799.225 1.341.366.733.382 1.112.563 1.901.896.099.185.153.273.251.454-.645.585-.968.879-1.613 1.46l-.799.038c-1.489-.551-2.921-1.244-4.278-2.069-.301-.325-.456-.49-.737-.83l-2.33 2.105c2.629 1.537 4.203 2.306 7.912 3.292l4.213-.465 2.652-2.396c-.435-.424-.834-.882-1.195-1.37 1.004-.067 1.51-.109 2.531-.194l2.028-1.831c-.653-.767-1.207-1.613-1.649-2.518-2.708-1.251-3.864-2.051-5.974-3.844l-2.325 2.1c.475.201.718.294 1.208.485 1.099.823 2.272 1.543 3.503 2.152l.222.482c-.485.433-.725.65-1.207 1.089zm-156.774-1.767c-1.338 1.123-2.796 2.094-4.349 2.894l-1.829-1.501c.9-.509 1.765-1.076 2.59-1.7.51-.233.758-.346 1.251-.586l-2.49-2.041c-.294.434-.454.645-.776 1.061-.775.634-1.593 1.213-2.448 1.733l-1.969-1.615c1.881-1.362 3.578-3.209 3.578-3.209.455-.268.679-.407 1.12-.689l-2.293-1.883c-2.975 3.14-4.631 4.989-9.194 6.976l1.073.227c3.064 2.518 4.592 3.782 7.654 6.3-.018.234-.091.595-.121.822 5.52-1.439 7.927-3.165 11.273-5.966l-2.306-1.889c-.244.363-.499.718-.764 1.066m1.432-12.662-.882-.74.012-.702c1.009-1.269 1.494-1.911 2.495-3.188.418-.276.624-.413 1.05-.687-1.143-.959-1.71-1.439-2.853-2.394-1.677 2.312-2.466 3.509-4.192 5.789-.026 1.662-.054 2.474-.199 4.035 1.037.875 1.556 1.308 2.595 2.18 2.944-.552 4.396-.844 7.402-1.344l1.07.9-.054.666c-1.15 1.145-1.734 1.715-2.956 2.804-.47.235-.702.351-1.179.575.998.841 1.496 1.264 2.5 2.1 2.28-1.808 3.307-2.807 5.401-4.772.155-1.559.209-2.351.307-3.947-1.258-1.058-1.885-1.587-3.144-2.639-2.475.354-4.935.809-7.373 1.364m14.281-15.54c.599-.127.906-.186 1.525-.289l-3.341-2.815c-4.545 2.371-6.15 4.118-9.243 7.701l2.949 2.477c.219-.483.327-.72.552-1.195.66-.681 1.001-1.014 1.705-1.656l10.172 8.572c.162.385.247.576.405.957 1.896-1.302 2.894-1.916 5.11-2.951l-1.39-.536-10.644-8.947c.841-.557 1.279-.825 2.2-1.318m14.194 8.271c1.272-.372 1.932-.532 3.343-.785.147-.271.225-.405.382-.67-.776-.656-1.643-1.36-2.42-2.013-.52-.113-1.041-.221-1.563-.325-1.105.213-2.196.499-3.263.857-.103.304-.158.459-.258.769.743.626 1.597 1.326 2.34 1.95.567.08.853.126 1.439.217m151.054 146.488c-.09-.176-.103-.395-.165-.586-.518-1.625.031-3.756 1.747-6.276l.867-1.314c2.017.692 4.635 1.058 7.499.872 5.871-.376 12.795-3.103 17.779-10.357l1.399-2.033c.134-.199.242-.392.366-.591 1.912-3.026 2.309-5.967 1.071-8.332-1.461-2.784-4.93-4.448-9.282-4.448-7.693 0-14.014 3.269-18.26 9.45l-9.372 13.518-.568.544c-8.391 8.188-14.263 12.169-17.952 12.169-.722 0-1.659-.145-2.017-.834-.38-.725-.026-1.898 1.019-3.4l20.661-30.441.152-.224h-10.025l-17.248 25.315c-6.669 5.108-11.944 8.116-14.165 8.116-.195.003-.389-.027-.573-.091-.477-.167-.766-.43-.882-.794-.346-1.107.993-2.98 1.88-4.223l19.173-28.101.155-.225h-10.025l-15.197 22.111-.643.619c-8.348 8.08-14.973 12.685-22.041 15.306l21.577-30.993h-5.81c-.054-1.731-1.114-3.64-2.848-5.142-2.009-1.733-4.648-2.685-7.437-2.685-5.054 0-12.411 3.248-16.681 9.452l-9.215 13.373-.719.692c-8.392 8.188-14.266 12.169-17.95 12.169-.725 0-1.662-.145-2.018-.834-.381-.725-.025-1.898 1.014-3.4l15.636-23.009.157-.224h-5.608c.101-1.491-.588-3.176-1.911-4.649-2.033-2.267-5.09-3.568-8.39-3.568-5.056 0-12.408 3.248-16.68 9.453l-9.208 13.37-.727.694c-7.69 7.505-16.356 12.169-22.606 12.169-3.282 0-5.585-.929-6.481-2.621-.884-1.669-.343-4.04 1.574-6.859l.867-1.314c6.155 2.103 17.867 1.306 25.284-9.485l1.393-2.033c2.244-3.235 2.753-6.403 1.437-8.923-1.458-2.784-4.927-4.451-9.279-4.451-7.693 0-14.011 3.269-18.262 9.453l-10.149 14.632c-2.74 3.932-3.32 7.879-1.633 11.111 1.924 3.676 6.429 5.784 12.362 5.784 6.305 0 13.03-2.33 19.98-6.935-.113 1.677.377 3.181 1.434 4.363 1.481 1.656 4.022 2.569 7.149 2.569 3.653 0 8.366-1.852 13.301-5.219.606 3.23 3.826 5.219 8.474 5.219 4.409 0 9.422-2.102 15.324-6.423.005 1.55.552 2.935 1.592 4.016 1.517 1.576 3.934 2.41 6.994 2.41 2.525 0 5.541-.857 8.76-2.485l-2.329 3.308c-14.318 3.707-21.275 8.304-21.275 14.059 0 2.802 1.865 5.064 4.989 6.047 1.155.352 2.357.527 3.565.519 4.401 0 9.517-2.144 12.925-7.035l7.324-10.678c6.98-1.839 13.633-5.113 20.31-9.999-.194 1.703.186 3.171 1.114 4.246 1.125 1.319 2.982 2.013 5.376 2.013 5.488 0 11.529-4.272 15.698-7.616-.294 1.847.103 3.509 1.171 4.832 1.455 1.793 4.056 2.784 7.327 2.784 5.09 0 11.023-2.818 18.135-8.609.23 1.878 1.058 3.503 2.343 4.827 2.298 2.381 6.106 3.782 10.876 3.782 10.461 0 20.143-6.429 26.422-11.816l.144-.129-4.055-2.683-.09-.059-.08.07c-7.004 5.925-14.093 9.32-19.457 9.32-3.284.011-5.582-.921-6.483-2.61m-99.449 21.311c0-2.384 3.086-4.636 9.182-6.695l-4.141 6.22c-1.23 1.837-2.851 2.332-3.913 2.007-.684-.187-1.153-.824-1.128-1.532m-49.381-47.529c1.532 1.055 1.248 3.433-.748 6.364l-1.396 2.035c-4.93 7.04-11.423 6.187-14.17 5.4l6.121-8.991c3.436-4.96 8.25-6.142 10.193-4.808m13.324 28.839c-.725 0-1.661-.145-2.017-.834-.385-.725-.029-1.898 1.019-3.4l13.492-19.797c2.306-3.358 5.536-4.759 8.005-4.759 1.006 0 1.88.232 2.518.655 1.615 1.076 1.627 3.194.038 5.66l-7.538 11.111c-5.386 7.115-11.185 11.364-15.517 11.364m44.689-4.236 13.49-19.797c2.308-3.359 5.538-4.76 8.007-4.76 1.006 0 1.881.232 2.518.655 1.615 1.076 1.633 3.194.039 5.66l-7.35 10.794c-5.425 7.316-11.294 11.681-15.703 11.681-.725 0-1.659-.144-2.017-.833-.387-.725-.029-1.899 1.016-3.4m112.544-24.603c1.53 1.055 1.243 3.433-.751 6.364l-1.398 2.035c-4.925 7.04-11.41 6.192-14.168 5.4l6.124-8.991c3.437-4.96 8.253-6.142 10.193-4.808" fill="#fff"/><path d="m121.323 199.174.108-.124-5.938-3.939-.101-.07-.083.098c-2.239 2.611-4.731 4.52-7.44 5.758-2.438 1.122-5.093 1.697-7.778 1.685-.361 0-.717-.008-1.08-.026-9.388-.482-13.392-4.256-21.376-11.776-.523-.498-1.048-.992-1.576-1.484l.18-.222c.787-.944 1.592-1.919 2.35-3.049l2.092-3.175 6.236-9.453c12.723 2.147 25.921-2.36 32.133-10.982 2.569-3.575 3.769-6.949 3.769-10.618 0-7.112-5.456-12.272-12.984-12.272-5.905 0-12.086 3.682-16.123 9.61l-11.754 16.959c-5.298-2.378-8.459-6.63-8.459-11.402 0-1.597.398-3.189 1.179-4.737l.104-.209h-7.51l-.034.096c-.594 1.602-.903 3.296-.913 5.004 0 6.883 4.561 12.953 12.218 16.263l-4.729 7.177-2.721 4.128c-.181.247-.351.49-.509.727-.237.338-.456.666-.701.96-3.542-2.652-8.441-5.655-15.053-5.655-8.769 0-13.355 5.229-13.355 10.396 0 4.966 4.323 10.314 13.817 10.314 5.218 0 10.667-1.793 15.349-5.048 1.442 1.24 2.817 2.613 4.156 3.931 3.183 3.163 6.48 6.429 11.17 8.689 3.938 1.89 8.25 2.875 12.618 2.881 3.374 0 7.161-.591 11.219-2.213 1.542-.625 3.026-1.384 4.435-2.268 2.634-1.636 5.019-3.641 7.084-5.954m-56.682-9.862c-2.972 2.218-6.334 3.294-10.273 3.294-3.759 0-5.441-1.852-5.441-3.691 0-1.902 1.747-3.924 4.977-3.924 3.116.002 6.627 1.416 10.737 4.321m26.014-21.208 10.556-15.365c2.639-3.798 5.701-5.882 8.629-5.882 4.164 0 5.103 2.644 5.162 4.868.086 3.663-1.511 7.264-4.506 10.149-4.587 4.414-11.803 6.666-19.841 6.23m-19.802-23.966c13.143 0 22.402-7.685 25.446-14.823 2.417-5.668 1.357-11.467-2.905-15.904l-.082-.088-5.588 3.712-.134.085.101.124c2.368 2.977 2.685 6.847.874 10.605-2.36 4.889-8.547 9.824-17.06 9.824-9.795 0-16.265-5.188-18.102-11.062-.358-1.108-.545-2.264-.554-3.428 0-5.97 3.015-11.754 8.273-15.871 6.127-4.796 14.397-6.681 21.608-4.901l.059.018 5.614-3.733.191-.122-.194-.121c-1.741-1.094-4.659-3.537-4.659-7.667 0-6.325 4.7-9.204 9.065-9.204 4.891 0 7.118 3.07 7.118 5.918 0 3.864-3.207 5.484-3.204 5.494h-.377l3.292 2.918 2.203 1.948.077.07.091-.055c.051-.031 3.965-2.515 5.286-7.045.295-.952.45-1.942.461-2.938 0-6.999-6.524-11.88-15.87-11.88-4.61 0-8.813 1.476-11.844 4.151-2.993 2.617-4.702 6.413-4.677 10.388 0 2.046.604 4.18 1.752 6.187-.256-.008-.506-.008-.759-.008-9.233 0-18.29 3.488-24.409 9.439-4.956 4.814-7.574 10.753-7.574 17.163 0 2.928.639 5.642 1.798 8.08 3.691 7.765 12.816 12.726 24.683 12.726" fill="#fff"/></g></svg>