<svg clip-rule="evenodd" fill-rule="evenodd" viewBox="0 0 560 400" xmlns="http://www.w3.org/2000/svg"><g transform="matrix(.235294 0 0 .235294 129.59 49.5896)"><g fill-rule="nonzero"><path d="m326.708 757.029v23.869c0 12.85-9.188 22.039-22.039 22.039h-157.484c-12.868 0-22.059-9.189-22.059-22.039v-283.31c0-12.851 9.188-22.039 22.059-22.039h157.482c12.401 0 22.039 9.655 22.039 22.039v24.336c0 12.4-9.188 21.59-22.039 21.59h-106.979v59.69h84.94c12.852 0 22.039 9.172 22.039 22.039v23.869c0 12.868-9.188 22.039-22.039 22.039h-84.94v63.818h106.979c12.404.003 22.041 9.66 22.041 22.06zm-3.679 23.869v-23.869c0-10.57-7.807-18.378-18.359-18.378h-110.661v-71.159h88.622c11.021 0 18.827-7.357 18.827-18.378v-23.869c0-11.021-7.807-18.378-18.827-18.378h-88.622v-67.03h110.661c11.021 0 18.359-7.341 18.359-17.911v-24.336c0-10.554-7.807-18.359-18.359-18.359h-157.485c-11.038 0-18.827 7.34-18.827 18.359v283.31c0 11.021 7.789 18.358 18.827 18.358h157.482c11.021.001 18.362-7.339 18.362-18.36z"/><path d="m323.029 757.029v23.869c0 11.021-7.34 18.358-18.359 18.358h-157.485c-11.038 0-18.827-7.34-18.827-18.358v-283.31c0-11.021 7.789-18.359 18.827-18.359h157.482c10.555 0 18.359 7.807 18.359 18.359v24.336c0 10.57-7.34 17.911-18.359 17.911h-110.66v67.03h88.622c11.021 0 18.827 7.357 18.827 18.378v23.869c0 11.021-7.807 18.378-18.827 18.378h-88.622v71.159h110.663c10.552.002 18.359 7.81 18.359 18.38z" stroke="#000"/><path d="m601.744 776.303c.449 1.382.449 3.213.449 5.51-1.831 11.021-2.746 18.359-22.039 21.125h-30.762c-11.021 0-19.293-6.427-21.571-16.996-1.382-5.958-5.062-20.189-12.868-54.631l-13.299-62.903-14.305-67.714 14.322 67.714h1.794c11.862 49.855 25.145 105.205 28.016 117.086 1.382 6.893 6.892 13.766 17.91 13.766h30.762c7.808 0 12.4-3.212 14.698-6.425 3.68-4.129 4.595-9.188 3.213-16.062v-.468l-77.137-283.758v-.916l-.466-.468c-2.746-7.807-8.723-11.935-17.445-11.935h-32.608c-11.02 0-16.528 6.425-17.894 13.316l-76.221 283.311c-.467 3.212-.916 5.043-.916 6.425 0 3.661 1.364 6.874 3.661 10.104 2.297 3.212 6.894 6.873 15.614 6.873h28.016c8.722 0 16.063-5.043 17.893-13.766 6.893-27.549 9.656-42.247 11.486-49.588.915-4.146 1.382-6.441 1.382-6.893.197-.377 8.292-32.537 14.305-57.161.019-.034.019-.054.019-.07.161-.413.287-.825.341-1.256 0-.126.055-.252.071-.377.125-.594.27-1.167.413-1.741l12.904-54.611c-5.025 21.661-12.259 52.997-12.887 54.611h1.096c6.729-30.726 12.993-59.1 16.044-72.596l.019-.071c-10.912 49.874-40.793 186.108-41.045 187.903.915 3.229-4.595 18.826-22.038 19.293h-28.016c-10.553 0-15.614-4.595-18.826-8.273-1.831-3.212-3.679-6.872-3.679-12.383v-3.213c0-1.383.467-2.765.934-4.146 4.127-16.062 8.255-30.762 11.468-44.077 7.358-26.167 16.529-61.521 25.72-96.411 19.741-69.795 38.567-140.973 38.567-141.421 1.831-10.57 10.553-17.462 21.571-17.462h32.608c10.554 0 17.445 4.595 20.657 14.231l.466.934 77.604 284.674z"/><path d="m467.303 673.469c.145-.538.287-1.076.432-1.615-6.013 24.625-14.105 56.784-14.305 57.161 0 .449-.467 2.746-1.382 6.893-1.831 7.342-4.596 22.039-11.485 49.588-1.831 8.723-9.172 13.766-17.894 13.766h-28.016c-8.722 0-13.316-3.661-15.614-6.873-2.297-3.229-3.661-6.442-3.661-10.104 0-1.382.449-3.213.916-6.425l76.221-283.311c1.364-6.893 6.874-13.316 17.894-13.316h32.608c8.724 0 14.699 4.128 17.445 11.936l.466.467v.916l77.137 283.758v.468c1.382 6.874.467 11.936-3.212 16.062-2.298 3.213-6.893 6.425-14.699 6.425h-30.762c-11.021 0-16.528-6.873-17.91-13.766-2.872-11.881-16.152-67.229-28.016-117.086h.935c0-.145-.019-.377-.072-.646-1.418-6.138-2.8-12.132-4.146-17.875-4.756-19.148-12.132-47.146-13.979-54.737-.054-.215-.107-.448-.161-.664-.091.413-.181.826-.287 1.256l-.019.072-2.314 9.728c-.145.609-.287 1.238-.449 1.885-.107.502-.232 1.006-.341 1.508l-1.148 4.863-12.904 54.611c-.145.574-.286 1.148-.412 1.741-.145.538-.27 1.076-.413 1.634 0 .018 0 .035-.019.07-.183.514-.379 1.053-.434 1.61zm-.088.322c-.861 3.105-2.101 5.601-2.388 8.921.683-2.981 1.56-5.958 2.388-8.921z" stroke="#000"/><path d="m504.4 668.407h-.935c-7.125-29.954-13.747-57.896-17.266-73.259 1.85 7.592 9.226 35.589 13.979 54.737 1.347 5.742 2.729 11.736 4.146 17.875.059.27.076.503.076.647z"/><path d="m503.468 668.407h-1.794l-14.322-67.714-1.311-6.209c.055.215.108.448.162.664 3.516 15.362 10.14 43.305 17.265 73.259z"/><path d="m483.421 605.539 2.314-9.727c-3.052 13.495-9.313 41.869-16.044 72.595h-1.096c.628-1.614 7.86-32.951 12.887-54.611l1.148-4.864z"/><path d="m483.421 605.539-.79 3.393c.106-.502.232-1.005.341-1.507.162-.647.305-1.276.449-1.886z"/><path d="m467.753 671.781c.145-.558.271-1.096.412-1.633-.019.125-.071.251-.071.377-.054.431-.18.843-.341 1.256z"/><path d="m467.735 671.852c-.145.539-.287 1.077-.432 1.615.055-.555.251-1.094.432-1.615z"/><path d="m467.215 673.791c-.826 2.963-1.705 5.94-2.388 8.921.287-3.322 1.525-5.816 2.388-8.921z"/><path d="m863.445 695.04v8.257c0 60.157-40.865 99.643-101.938 99.643h-92.282c-12.851 0-22.039-9.189-22.039-22.039v-283.311c0-12.851 9.188-22.039 22.039-22.039h90.452c60.605 0 99.642 39.035 99.642 99.642v1.382c0 18.827-7.808 39.035-22.038 55.098l-.916.916.916.915c9.637 9.652 26.164 30.775 26.164 61.536zm-3.68 8.257v-8.256c0-23.421-10.553-45.927-28.464-62.455 15.165-14.699 24.804-36.271 24.804-56.014v-1.382c0-58.31-37.652-95.963-96.43-95.963h-90.452c-11.021 0-18.825 7.341-18.825 18.36v283.311c0 11.021 7.807 18.358 18.825 18.358h92.282c29.396 0 53.268-8.256 71.178-26.166 17.911-17.444 27.082-40.864 27.082-69.793z"/><g stroke="#000"><path d="m859.765 695.04v8.257c0 28.932-9.171 52.353-27.082 69.796-17.91 17.909-41.779 26.166-71.178 26.166h-92.282c-11.021 0-18.825-7.341-18.825-18.358v-283.311c0-11.021 7.807-18.359 18.825-18.359h90.452c58.775 0 96.43 37.652 96.43 95.962v1.382c0 19.742-9.639 41.313-24.804 56.014 17.914 16.525 28.464 39.031 28.464 62.451zm-50.503 11.934v-9.188c0-26.166-22.038-48.672-47.757-48.672h-54.63c-5.062 0-5.978 2.297-5.978 5.511v92.748c0 4.146 1.849 6.427 5.978 6.427h54.63c27.102 0 47.757-21.107 47.757-46.826zm-4.127-134.529v-1.85c0-25.699-19.741-45.908-45.459-45.908h-52.8c-4.129 0-5.978 1.831-5.978 5.959v82.196c0 4.127 1.849 5.977 5.978 5.977h52.8c26.168.001 45.459-19.292 45.459-46.374z"/><path d="m809.582 697.764v9.242c0 25.87-20.778 47.1-48.037 47.1h-54.951c-4.151 0-6.012-2.293-6.012-6.465v-93.293c0-3.231.921-5.542 6.012-5.542h54.951c25.869.001 48.037 22.639 48.037 48.958zm-15.238 9.243v-9.242c0-18.017-15.233-33.702-32.8-33.702h-45.708v74.808h45.708c18.016-.002 32.8-13.848 32.8-31.864z"/><path d="m805.516 570.588v1.862c0 27.281-19.434 46.715-45.792 46.715h-53.187c-4.159 0-6.021-1.862-6.021-6.021v-82.799c0-4.158 1.862-6.001 6.021-6.001h53.187c25.908 0 45.792 20.356 45.792 46.244zm-15.256 1.862v-1.862c0-17.103-13.413-30.986-30.534-30.986h-43.931v64.757h43.932c18.04-.001 30.533-13.415 30.533-31.909z"/></g><path d="m1038.98 475.552c-83.057 0-150.385 73.289-150.385 163.692s67.328 163.693 150.385 163.693c83.05 0 150.38-73.29 150.38-163.693s-67.33-163.692-150.38-163.692zm0 260.282c-49.011 0-88.736-43.246-88.736-96.59 0-53.345 39.728-96.588 88.736-96.588 49.01 0 88.73 43.243 88.73 96.588.01 53.344-39.72 96.59-88.73 96.59z"/></g><g><g fill="none"><path d="m642.244 234.244c-152.979 0-286.142 84.823-355.039 210h81.729c61.333-84.521 160.896-139.499 273.312-139.499s211.979 54.978 273.312 139.499h81.727c-68.899-125.177-202.061-210-355.041-210z"/><path d="m642.245 122.947c-216.14 0-401.236 132.827-478.174 321.297h89.243c71.498-142.323 218.803-240 388.931-240 170.129 0 317.434 97.677 388.935 240h89.24c-76.94-188.47-262.035-321.297-478.175-321.297z"/><path d="m642.246 949.745c97.188 0 183.827-45.102 240.176-115.501h-480.351c56.349 70.4 142.987 115.501 240.175 115.501z"/><path d="m642.246 334.745c-94.396 0-178.841 42.549-235.248 109.499h470.495c-56.405-66.95-140.852-109.499-235.247-109.499z"/><path d="m642.245 1044.24c152.981 0 286.145-84.819 355.041-209.996h-77.472c-60.923 87.911-162.511 145.501-277.568 145.501s-216.646-57.59-277.568-145.501h-77.473c68.898 125.177 202.058 209.996 355.04 209.996z"/><path d="m642.245 1155.54c216.14 0 401.235-132.83 478.175-321.296h-89.24c-71.5 142.324-218.806 239.996-388.935 239.996s-317.433-97.672-388.931-239.996h-89.242c76.937 188.466 262.033 321.296 478.173 321.296z"/><path d="m639.244 31.744c-335.513 0-607.5 271.986-607.5 607.5 0 335.515 271.987 607.496 607.5 607.496 335.515 0 607.496-271.981 607.496-607.496 0-335.514-271.981-607.5-607.496-607.5zm3.001 1153.796c-233.007 0-431.921-145.89-510.438-351.296h-61.98v-390h61.979c78.517-205.409 277.432-351.297 510.439-351.297s431.925 145.888 510.435 351.297h51.26v390h-51.26c-78.51 205.406-277.428 351.296-510.435 351.296z"/></g><path d="m642.246 304.745c-112.418 0-211.979 54.979-273.312 139.499h38.065c56.406-66.95 140.852-109.499 235.248-109.499s178.842 42.549 235.247 109.499h38.065c-61.336-84.522-160.895-139.499-273.313-139.499z" fill="#0e0e0e" fill-rule="nonzero"/><path d="m642.246 979.745c115.059 0 216.646-57.59 277.568-145.501h-37.394c-56.349 70.4-142.988 115.501-240.176 115.501s-183.825-45.101-240.174-115.501h-37.395c60.924 87.911 162.514 145.501 277.571 145.501z" fill="#0e0e0e" fill-rule="nonzero"/><path d="m642.245 1074.24c170.129 0 317.435-97.672 388.935-239.996h-33.894c-68.896 125.177-202.06 209.996-355.041 209.996-152.98 0-286.142-84.819-355.04-209.996h-33.891c71.498 142.324 218.802 239.996 388.931 239.996z" fill="#0e0e0e" fill-rule="nonzero"/><path d="m642.245 204.244c-170.128 0-317.433 97.677-388.931 240h33.891c68.897-125.177 202.06-210 355.039-210 152.98 0 286.144 84.823 355.041 210h33.895c-71.503-142.323-218.806-240-388.935-240z" fill="#0e0e0e" fill-rule="nonzero"/><path d="m642.245 122.947c216.141 0 401.235 132.827 478.175 321.297h32.26c-78.51-205.409-277.428-351.297-510.435-351.297s-431.922 145.888-510.439 351.297h32.265c76.938-188.47 262.034-321.297 478.174-321.297z" fill="#0e0e0e" fill-rule="nonzero"/><path d="m642.245 1155.54c-216.14 0-401.236-132.83-478.173-321.296h-32.266c78.518 205.406 277.432 351.296 510.438 351.296s431.916-145.89 510.436-351.296h-32.26c-76.94 188.466-262.035 321.296-478.175 321.296z" fill="#0e0e0e" fill-rule="nonzero"/><path d="m639.244 1.744c-352.082 0-637.5 285.418-637.5 637.5s285.418 637.496 637.5 637.496 637.496-285.414 637.496-637.496-285.414-637.5-637.496-637.5zm0 1244.996c-335.513 0-607.5-271.981-607.5-607.496 0-335.514 271.987-607.5 607.5-607.5 335.515 0 607.496 271.986 607.496 607.5 0 335.515-271.981 607.496-607.496 607.496z" fill="#0e0e0e" fill-rule="nonzero"/></g></g></svg>