<svg clip-rule="evenodd" fill-rule="evenodd" stroke-linejoin="round" stroke-miterlimit="2" viewBox="0 0 560 400" xmlns="http://www.w3.org/2000/svg"><g fill-rule="nonzero" transform="matrix(.962359 0 0 .962359 159.262 99.1255)"><path d="m246.399 115.373c.622-5.113 2.501-10.753 4.062-14.208-2.574 0-5.357.779-8.053 1.953.72-3.162 1.491-6.067 1.491-10.001 0-8.627-6.375-16.003-7.546-28.233-2.317.964-3.974 1.841-5.635 3.773-4.444-11.734-10.974-14.116-16.513-21.8-3.063-4.252-4.437-7.627-4.877-11.01-2.534 2.173-3.943 4.572-5.076 7.689-2.967-3.464-6.319-6.705-10.002-9.408-4.544-3.33-9.908-5.447-14.333-8.957-2.365-1.874-4.008-4.455-6.121-6.568-1.213 2.292-1.586 4.794-2.089 7.316-2.769-2.373-5.92-4.814-9.332-6.197-2.319-.94-4.817-1.522-7.166-2.388-4.04-1.488-7.94-3.345-11.421-5.897-1.607-1.178-2.679-2.781-3.882-4.33-1.396 3.791-.321 8.463.746 12.243 1.597 5.665 3.648 11.177 7.168 15.975 1.604 2.192 3.916 3.915 5.896 5.746 1.651 1.529 3.512 3.57 4.965 5.833-6.643-1.096-13.822-1.575-21.712-1.382 1.829-3.992 2.857-8.428 2.857-13.106 0-17.402-14.105-31.507-31.508-31.507-17.401 0-31.506 14.105-31.506 31.507 0 6.31 1.861 12.182 5.056 17.11-5.585 1.044-10.679 2.507-15.34 4.348 1.974-5.082 5.106-9.653 6.177-15.363 1.105-5.894 1.406-19.317-.844-28.413-4.22 5.72-4.97 9.19-10.691 14.441-4.17 3.83-7.722 7.284-10.914 11.151-.4-2.424-1.089-4.653-2.169-6.711-5.296 5.875-6.045 9.719-13.828 16.002-6.737 5.437-9.544 7.523-13.762 15.883-1.463-2.399-3.014-4.37-4.508-5.61-1.516 5.2-3.672 10.537-5.876 14.827-3.455 6.725-6.819 12.766-6.819 22.442 0 2.176.238 4.806.681 7.352-1.106-.508-2.222-.875-3.514-1.099.415 3.406 1.344 5.829 2.465 12.615 1.305 7.906 3.104 19.097 10.605 28.164-2.977-.821-6.032-.801-10.498-.428 2.25 2.157 7.759 8.442 10.389 12.902 3.659 6.203 8.766 13.825 15.777 18.409-.345.088-.689.172-1.04.281-2.976.908-5.37 2.101-6.945 3.675 11.289 4.421 19.153 12.627 29.62 13.834-1.139.853-2.313 1.934-3.71 3.429-.987 1.055-2.052 2.241-3.207 3.639 6.932.598 9.264-.059 16.41 2.25 11.105 3.59 17.369 2.192 23.842 1.559-1.946 1.841-3.963 4.029-6.148 7.016 4.624.521 8.611-.604 12.244-.604 3.632 0 11.17.891 16.385-.563 5.63-1.567 8.885-2.523 10.863-3.358-1.202 1.841-2.428 4.106-3.735 7.135 6.969-1.963 15.139-5.775 20.09-7.264 5.648-1.699 9.624-2.347 13.635-3.95 4.255-1.702 7.146-2.482 10.552-5.06 1.365-1.032 2.438-2.087 3.33-3.227.808.961 1.152 1.518 1.152 2.972 0 1.875-.633 3.387-1.206 5.256 8.052-.193 18.378-.351 29.484-.266-1.267-2.72-.555-2.754-4.46-4.428-1.94-.832-5.567-2.892-8.731-5.084 5.955.938 10.68 1.152 18.765-1.855 9.253-3.438 10.72-5.644 16.879-8.064 3.501-1.375 6.012-2.016 7.631-2.321-1.567-2.189-3.044-3.52-4.695-4.519 14.365-9.277 17.4-17.31 24.61-24.029 2.368-2.206 5.002-4.366 8.078-6.388-1.594-1.108-4.523-2.063-8.818-2.033 5.759-8.478 5.249-14.248 6.325-23.098z"/><g fill="#f7dc14"><path d="m124.511 182.449c-20.069 0-37.268-3.253-51.713-8.682-30.65-11.522-48.198-38.514-48.198-59.786 0-12.111 2.892-23.028 8.627-32.054 6.9-10.857 15.833-19.76 28.065-25.768 4.117-6.816 6.508-8.206 8.506-17.085.689-3.063 1.219-4.876 1.687-7.595.616-3.572.469-11.628-.405-15.937-1.47 1.214-1.597 2.903-4.377 6.84-4.28 6.063-10.241 9.473-16.11 16.245.14 2.144.097 4.436-.112 6.917-.244 2.883-.487 5.344-.856 7.576 5.716-5.117 9.964-12.176 13.093-15.853-1.172 5.088-2.922 5.464-4.736 8.277-2.865 4.444-5.236 7.651-8.801 9.844-.818 3.543-2.163 6.565-4.751 9.868.143-4.522 4.363-9.116 4.363-20.556 0-4.97-.188-7.408-1.313-11.346-1.969 3-5.438 10.502-15.566 18.472-7.551 5.944-8.846 7.513-10.028 11.5 2.104 4.034 3.879 8.884 4.814 13.649 3.608-7.288 9.812-17.142 13.103-21.644-3.063 7.716-8.815 16.919-12.613 24.897.342 3.095.284 6.064-.376 8.621-1.933-3.921.872-4.783-3.063-15.605-3.934-10.821-4.871-11.759-6.716-13.436-.687 5.428-4.552 10.764-7.251 16.774-3.617 8.057-5.566 15.613-3.088 24.809 1.53.967 3.248 2.18 5.526 3.698 1.632 1.088 3.182 2.369 4.588 3.756-.045-5.491-1.587-10.165-1.587-17.541 0-3.375.375-9.002.843-10.877.818 4.014.938 5.814 1.501 14.347.511 7.757 1.713 11.331.802 15.721 2.183 2.496 3.821 5.218 4.487 7.762-3.039-1.635-3.132-5.011-8.008-9.043-5.091-4.209-7.877-5.438-10.876-6.558.092 3.838 1.217 5.714 2.53 13.497 1.244 7.375 4.353 14.098 7.033 18.754 1.433 2.491 3.517 4.967 5.685 7.238 1.367.833 2.842 1.834 4.536 3.077 1.962 1.442 3.325 2.531 4.557 3.435-1.479-2.814-3.074-4.634-3.588-6.216-1.116-3.442-3.814-5.688-7.94-12.378-2.959-4.8-4.25-7.501-5.723-11.88 4.723 7.16 8.849 14.362 12.413 19.145 2.213 2.968 4.9 8.685 7.82 13.231 1.625.846 3.602 1.569 6.808 2.446-3.282 0-5.669-.322-7.558-1.304-2.332-1.213-4.549-3.218-9.04-5.635-6.094-3.282-8.908-4.126-12.471-4.126 2.438 3.095 4.091 4.888 5.984 8.117s5.786 10.605 10.332 13.825c2.672 1.893 5.117 4.091 7.118 5.879 2.253-.369 4.806-.695 8.354-1.471 3.001-.656 5.854.088 9.283.562.449.062.87.121 1.29.176-6.849-3.985-15.503-5.462-25.554-13.711-1.896-1.556-3.28-2.984-3.657-4.436 7.011 4.093 10.574 6.438 16.67 9.344 6.094 2.907 10.162 3.549 13.127 7.221.676.838 1.595 1.43 2.512 1.995 4.023.531 6.544.886 8.45 1.667-2.991.37-7.211-1.318-12.556-1.037-5.345.282-8.234-.659-14.722.563-4.97.938-7.877 2.438-9.002 3.376 4.97 1.875 7.877 3.563 11.815 5.814 3.388 1.937 6.933 5.459 17.816 5.693 1.139-.378 2.409-.749 3.939-1.192 4.36-1.261 8.425-2.139 12.565-3.095.617-.141 1.18-.298 1.743-.454-4.437-.566-8.532-.574-14.496-1.702-8.802-1.662-11.628-2.814-19.129-3.751 4.126-.469 6.47-.281 16.223.937 8.641 1.081 10.659 3.411 20.269 3.734 1.831-.469 3.638-.765 5.893-.452-1.782 1.126-2.805.595-11.253 2.907-8.209 2.248-10.448 2.766-15.824 6.277-5.375 3.51-6.681 4.302-7.244 5.239 3.751-.75 4.467-.615 9.565.112 8.533 1.219 6.283 3.469 17.16 3.469 6.366 0 9.094-1.14 14.023-3.185 2.257-1.781 4.296-3.214 8.482-6.285 4.22-3.095 9.565-4.971 15.566-5.064-3.282 1.781-8.598 2.321-14.159 6.077-7.221 4.876-11.534 9.864-15.941 14.365 3.657-.657 6.095-1.313 12.94-.937 6.845.374 14.989-1.249 22.411-4.783 1.715-.815 2.725-1.811 4.309-3.021.785-.806 1.595-1.647 2.443-2.606.358-.401.72-.794 1.082-1.18-3.753-.859-6.45-.457-10.928-.226-6.355.331-12.565 2.719-19.598 6.377 3.844-4.502 7.783-7.033 20.348-8.627 5.859-.742 9.57-.302 12.307.331 2.744-2.55 5.731-4.437 9.349-4.759-3.464 2.177-8.152 4.802-11.81 9.679-3.657 4.876-7.032 9.846-7.783 11.252 4.126-2.157 9.4-4.43 13.127-5.538 5.4-1.603 9.894-2.295 15.567-4.589 10.717-4.331 14.355-9.869 15.434-15.716 5.17 1.147 6.501 2.934 12.01 4.528 10.158 2.936 19.644 2.508 28.473-2.752 5.879-3.501 10.848-6.221 15.162-6.625-3.591-1.958-9.659-5.41-15.162-6.139-3.392-.448-7.003-.762-11.239-.631-6.095 3.64-13.051 6.603-20.932 8.819-14.056 3.952-29.137 6.138-46.675 6.138z"/><path d="m225.597 141.372c1.398-.531 3.153-1.073 5.581-1.683 2.022-.503 3.868-.826 5.56-1.02 5.642-5.743 7.662-16.676 7.662-21.171 0-5.128 1.199-9.251 2.701-14.094-1.85 0-5.702 1.842-9.328 3.841-2.559 1.412-5.676 5.251-8.677 9.084-1.251 1.6-2.825 4.419-3.644 4.618.252-1.697 1.634-4.651 3.624-7.49.799-3.719.879-8.279 1.57-13.713.875-6.876.876-13.004 1.188-14.629.624 1.376.911 5.631.713 10.503-.25 6.13-.892 8.668-1.85 15.727 1.062-1.264 2.226-2.43 3.451-3.35 1.282-.961 2.738-1.91 4.26-2.802 2.548-3.443 3.116-7.257 3.116-11.075 0-9.878-4.877-12.378-7.112-26.098-2.266 1.717-4.433 5.197-7.141 9.969-2.626 4.625-2.875 8.877-4.43 13.022-.168-1.796-.132-3.424.044-4.931-.57-6.295-2.083-9.22-4.49-13.842-3.126-6.001-5.377-10.003-6.603-15.713.776.915 1.1 2.835 1.975 3.46 1.59 1.135 2.557 6.365 4.877 9.627 3.067 4.317 3.775 7.804 5.658 10.844.808-2.116 1.804-4.011 2.719-5.843.514-1.029.996-1.928 1.46-2.725-.937-6.032-3.944-10.735-7.46-14.529-4.398-4.745-9.003-7.752-13.129-16.254-1.25 3.001-2.501 10.502-2.501 14.003 0 3.502.878 5.502.878 11.869-1.067-1.709-1.253-2.991-1.753-4.742-.4-.641-1.995-2.103-2.503-2.65-1.851-2.005-3.744-3.894-5.672-5.823-4.483-4.48-9.61-9.253-12.69-14.855 1.563.94 2.566 2.467 3.806 3.807.928 1.004 1.944 1.944 2.912 2.911 3.936 3.938 8.968 8.496 13.372 12.058-.418-3.319-.587-6.656-.204-9.745-.288-.757-.81-1.943-.927-2.163-1.089-2.057-2.458-3.977-4.031-5.673-4.445-4.8-10.562-7.209-15.9-10.824-1.897-1.286-3.892-2.549-5.524-4.18-1.014-1.015-1.853-2.004-2.986-2.913-.544 2.289-.452 4.544-.149 6.867.5 3.829 1.197 7.408 2.538 11.05 1.335 3.62 3.712 6.89 4.553 10.675-1.745-1.496-3.19-3.323-4.477-5.226-.534-.783-.859-1.7-1.418-2.463-.758-1.033-2.065-1.973-3.061-2.761-5.817-4.614-13.349-7.544-17.991-13.514 2.165.893 4.041 2.276 5.972 3.584 2.714 1.839 5.579 3.489 8.36 5.226 1.703 1.064 3.254 2.287 5.001 3.284-.416-2.089-1.068-4.157-1.342-6.269-.217-1.654.114-1.758-.748-3.137-.937-1.501-2.48-2.817-3.807-3.956-5.754-4.932-12.896-6.319-19.558-9.556-2.795-1.355-4.934-3.295-7.315-5.223-.277 2.763.41 5.191 1.12 7.837 1.834 6.838 6.317 12.886 11.271 17.84 1.298 1.296 2.778 2.378 4.032 3.733 1.233 1.332 2.476 2.73 3.657 4.106.498.581 1.386 2.197 2.215 3.45 13.542 2.894 24.881 8.492 35.617 16.379 16.475 12.102 25.506 31.038 25.506 49.885 0 7.127-1.705 14.432-4.669 21.664-5.265 12.841-13.765 23.258-25.816 30.874 4.588-.269 10.896-.392 14.732 1.1 1.472.571 2.766 1.034 3.942 1.488 2.036-.726 3.943-1.673 5.735-2.816 5.42-3.455 8.149-6.567 11.702-10.488 3.444-3.797 5.63-6.749 7.798-9.16 1.846-2.054 4.299-3.499 6.267-5.187-1.78-.75-5.906-.695-11.533.056-9.188 1.224-12.378 5.101-16.878 5.196 1.982-.938 3.346-1.718 4.511-2.415 6.804-5.134 7.657-9.764 10.96-14.306 4.49-6.172 3.376-8.879 7.247-13.536-1.62 6.908-4.996 14.597-7.746 17.972-1.505 1.846-2.474 3.681-4.8 6.934z"/><path d="m172.946 187.794c-1.741-1.251-5.21-3.268-8.096-6.18-.518 1.919-1.098 3.569-1.842 5.037 1.653 1.656 2.343 2.682 2.343 4.519 0 2.157-.865 3.288.083 3.754 4.605-.191 16.514-.659 20.171-.284-1.407-1.688-5.604-1.773-12.659-6.846z"/><path d="m107.861 37.485c-1.329 1.781-3.112 3.528-4.706 4.986-.999.902-1.713 1.047-3.02.775-3.925-.862-6.63-1.887-9.168-3.159-1.228-.64-1.36-.928-1.737-1.857-.624-1.657-1.211-3.832-1.493-5.955-.138-1.407-.024-1.895.708-2.9 1.795-2.433 3.626-4.655 5.552-6.752.905-.97 1.092-1.168 2.692-.926 1.902.331 4.133.863 6.151 1.556 1.958.63 2.216.981 2.72 2.595.925 2.829 1.866 5.836 2.75 8.794.368 1.241.403 1.642-.449 2.843z"/><path d="m128.754 29.771c1.815.556 3.576 1.21 6.027 2.833.759-.939 1.57-2.059 2.012-3.826.094.949.145 1.913.145 2.888 0 16.053-13.014 29.068-29.069 29.068-11.026 0-20.617-6.14-25.544-15.186.932.043 1.727.238 2.864.75.991-1.298 2.097-3.825 3.086-4.93.712-.78.914-.939 1.935-.404 2.671 1.354 5.55 2.466 9.748 3.389 1.464.303 2.026.675 2.601 1.989.65 1.489 1.216 3.144 1.621 4.546.331 1.236.403 1.544-.263 2.782-.583.979-1.281 1.913-2.144 2.775 1.316-.572 2.014-1.234 3.012-2.381.552-.647.967-.796 1.752-.547 2.52.742 5.608 1.179 9.396 1.179 1.597-1.265 3.76-3.439 5.63-5.48.994-1.101 1.666-1.382 2.855-1.145 1.549.278 3.124.418 4.869.137-1.727-.317-3.212-.678-4.697-1.223-1.089-.432-1.437-.977-1.716-2.338-.3-1.403-.661-2.927-1.003-4.404-.295-1.287-.203-1.696.506-2.626 1.636-2.182 3.165-4.493 4.426-6.999.599-1.251.859-1.174 1.951-.847z"/><path d="m122.112 17.79c-2.908-1.105-5.627-1.846-8.261-2.483-1.167-.278-1.472-.501-1.998-1.593-.617-1.364-1.028-2.638-1.308-4.107-.129-.753-.035-1.131.5-1.797.697-.814 1.495-1.578 2.211-2.271-1.261.691-2.127 1.2-2.872 1.709-.754.557-1.31.652-2.437.372-2.867-.696-5.632-1.212-8.053-1.558-1.649 1.264-3.684 3.198-5.411 5.068-.503.552-.938.754-2.136.659-1.212-.185-2.231-.596-3.054-.801 1.252.799 2.523 1.32 3.174 1.783 1.054.75 1.004 1.412 1.223 2.954.124.992.263 2.247.359 3.399.091 1.336-.061 1.85-.661 2.492-1.991 2.154-3.878 4.435-5.727 6.933-.611.835-.955.883-1.732.429-1.669-1.056-3.059-2.467-4.473-3.881-.969 1.083-1.494 1.627-2.346 2.547 1.964-14.146 14.073-25.047 28.759-25.047 8.898 0 16.849 4.007 22.181 10.303-.943-.176-1.973-.387-3.282-1.301-.448 1.335-1.309 3.515-2.528 5.489-.607.919-.823 1.217-2.128.702z"/><path d="m114.184 16.542c2.494.615 5.067 1.342 7.81 2.401 1.441.532 1.699.767 2.363 2.094.679 1.405 1.42 3.193 1.969 4.934.418 1.477.513 1.877-.046 3.155-1.234 2.664-2.798 5.104-4.496 7.403-.836 1.11-1.082 1.427-2.569 1.199-2.557-.425-5.793-1.121-8.117-1.842-1.124-.379-1.448-.634-1.808-1.896-.848-2.826-1.743-5.689-2.628-8.392-.465-1.413-.372-2.078.475-3.279 1.477-2.027 2.903-3.664 4.183-4.971.933-.919 1.23-1.199 2.864-.806z"/><path d="m207.04 101.479c-.069-.845-.148-1.384-.172-1.806-.019-.351-.112-.495-.384-.575-1.91-.564-4.205-.927-6.702-1.037.414-2.624.733-5.371 1.171-8.32.687-4.626 1.47-10.488 1.732-12.166.315-2.024.83-3.506.83-4.912 0-1.003-.117-1.851-.843-1.473-1.172.61-2.908 1.173-4.549 1.595-.608.156-.937.188-1.712 1.678-2.093-1.297-2.933-1.725-4.835-1.725-2.19 0-5.622 1.107-7.94 4.688-2.813 4.344-2.617 7.443-4.626 9.378-1.688 1.624-2.062 2.062-3.345 1.812-1.258-.246-3.047-1.672-1.469-9.127.541-2.551.391-2.063-.124-2.325-.74-.377-.384.045-1.736.825-1.218.703-1.614.995-2.579.609-.468-.187-.89-.328-.374-2.109.515-1.782.975-4.126.975-6.002 0-2.016-1.387-2.944-2.288-2.063-1.969 1.922-3.001 5.533-3.001 8.065 0 2.015.188 2.285.188 3.328 0 1.044-.282 1.876-1.126 2.532-.843.656-.302.787-2.11 1.454-.333.122-.653.257-.89.187-.396-.117-.61-.668-.61-1.781 0-1.407-1.079-4.408-3.094-4.408-1.406 0-2.157.985-2.157 1.97 0 1.454.641 1.615.552 2.465-1.509.081-3.005.408-5.006 1.754-2.978 2.003-3.798 3.141-5.626 6.049-1.634 2.599-2.513 2.924-3.873 2.87-.605-.707-1.097-4.261-1.097-4.261-1.141-2.135-2.187-2.565-4.197-2.712-1.914 1.507-1.773 3.993-.461 6.369 1.163 2.106 2.786 2.187 2.786 4.25 0 1.001-.178 2.806-.784 4.658-.595 1.813-2.055 4.768-3.406 5.402-.408.193-1.122.193-1.408-.432-.532-1.157-.122-1.377.156-4.501.938-10.596.968-25.944 1.821-34.72.042-.445-.076-.764-.508-.444-.72.53-2.188 2.063-2.188 2.063-.97 1.156-1.532 1.906-2.689 3.094-.863.888-1.068.938-1.094 1.501l-1.187 24.067c-.172 2.929-1.835 4.194-4.525 7.381-.586-1.048-1.67-1.586-2.618-1.586-1.045 0-4.189.701-6.638 1.519-.203-.377-.324-.599-.324-.992 0-.469.392-1.351.697-1.796.304-.446 1.502-1.508 2.438-1.335.656.122 1.141.527 1.249.904.046.164.234.234.68-.024.445-.257.861-.571 2.174-1.181 1.313-.609 1.871-1.069 1.871-1.574 0-.285-.248-.433-1.162-1.136-.825-.634-2.205-.664-3.048-.61-1.218.08-3.094.72-4.782 1.993-2.579 1.945-4.057 4.402-4.957 6.634-.633 1.57-.83 2.487-2.91 4.131-1.008.795-2.268 1.803-3.957 2.067.603-13.116 1.213-26.509 1.213-29.868 0-.625.023-.992-.145-1.531-.208-.669.019-.719-1.543.844-1.172 1.172-1.72 1.751-3.001 3.657-1.2 1.786-1.219 1.782-1.344 3.657-.2 2.991-.698 11.748-1.216 21.549-.86-.322-1.386-.451-2.207-.451-.617 0-1.491.703-1.491 1.427 0 .703.263.844 1.575 1.875.609.478 1.242 1.05 1.893 1.53-.168 3.221-.336 6.467-.497 9.606-1.142 7.478-4.905 14.631-6.685 14.631-.257 0-.445-.141-.562-.305-.215-.301-.319-.586-.3-1.008.449-9.893.738-16.189.813-21.816.039-2.951.068-4.644.075-5.723.637-3.769 1.349-6.847 2.512-10.789.671-2.271.875-4.656.598-7.015-.082-.695-.174-2.069-.672-2.611-.213-.267-.674-.322-1.276-.494-1.145-.327-2.406 1.986-4.423 6.112-2.015 4.125-1.921 5.11-2.203 7.689-.291 2.664-1.449 16.849-1.496 29.9-.905 3.25-2.209 6.341-3.678 9.738-1.355 3.13-2.756 6.485-3.906 9.91-.05.147.03.308.177.358l1.423.477c.071.024.148.018.215-.014.067-.035.116-.094.142-.164 1.216-3.391 2.562-6.62 3.897-9.706.722-1.67 1.423-3.165 2.069-4.624.312 1.407.868 2.06 1.787 2.869.777.686 1.573 1.096 2.269 1.096 1.631 0 3.493-1.219 5.3-3.361 1.195-1.418 2.359-3.265 3.43-5.395-.259 5.161-.458 9.234-.541 11.065-.217 4.775-.46 6.614-.606 8.272-7.834 3.007-13.498 3.581-17.734 3.581-3.892 0-7.334-.961-10.285-2.573-7.998-4.368-12.395-10.78-12.395-21.283 0-4.785 1.664-8.911 4.011-12.339 1.544-2.26 3.726-4.428 5.978-6.318.759.129 1.482.205 2.126.205 3.564 0 6.471-.63 10.415-2.608 1.183-.636 4.167-2.429 4.105-3.883-.045-1.075-.407-2.236-1.579-2.887-.753-.418-2.012-.602-4.126-.025-2.4.655-5.539 1.937-8.851 3.85-.598.346-1.281.783-2.019 1.286-.967-.58-1.846-1.327-2.521-2.239-1.229-1.66-1.988-4.204-1.988-6.548 0-4.477 1.189-9.463 3.564-14.028 2.002-3.847 5.115-7.375 8.964-10.244 5.258-3.919 13.603-6.485 18.73-6.485 3.108 0 6.502.499 9.552 1.574 2.735.963 5.312 2.394 7.139 4.272.823.845 1.528 1.689 1.961 2.69.281.654.611 1.311 2.556 1.311 1.885 0 3.759.006 5.251.088.775.043.562-.534-.026-1.609-4.435-8.097-14.437-11.552-26.229-11.552-9.289 0-17.011 2.9-23.098 7.094-10.901 7.512-16.553 17.324-16.553 24.451 0 3.938 1.553 8.556 3.75 10.754 1.522 1.521 3.291 2.614 5.054 3.378-5.129 4.105-11.269 10.04-14.643 15.426-2.571 4.102-4.283 8.474-4.283 13.013 0 2.828 1.366 8.261 5.848 12.68 4.088 4.032 12.719 8.029 24.841 7.2 8.147-.557 15.343-2.207 22.358-4.866.068 4.046 1.019 6.052 2.586 6.052 2.193 0 5.506-3.235 8.037-10.862 4.782-2.496 9.66-5.442 14.875-8.818 13.346-8.635 21.284-18.575 25.563-29.318.593-1.491.979-3.012 1.243-4.527-2.711.633-5.583 1.755-8.411 3.159-4.258 12.424-14.536 25.069-29.305 33.801-.954.565-1.885 1.099-2.796 1.606.122-.501.242-1.011.358-1.541 1.407-6.441 1.743-12.911-.075-19.642-1.271-4.709-2.448-8.001-3.739-10.418.025-.545.05-1.098.076-1.65.885-.339 1.833-.788 3.129-1.503 1.406-.703 2.585-1.682 3.472-2.461 1.357 1.289 3.17 2.133 5.375 1.494 2.159-.623 3.108-1.846 4.853-.149.037 1.82-1.011 4.316-2.526 5.705-.875.803-1.989 1.366-2.989 1.366s-2.011-1.07-1.851-2.781c.018-.196.145-.393-.099-.502-.21-.093-.389-.02-1.312.376-.165.071-.282.118-.469.305-.328.328-1.031.445-1.501 1.007-.565.681-1.57.821-1.781 1.346-.179.442.022 1.198.969 2.189.859.896 1.938 1.55 3.344 1.55 1.344 0 2.037-.012 2.876-.583 0 0 5.814-3.719 7.783-6.875.891-1.43 1.625-2.376 2.282-5.222.475-2.06 1.711-3.699 4.042-6.267-.195 3.882-.162 6.414.834 7.58.889 1.043 3.385.888 5.126-.31 3.625-2.503 7.376-6.003 8.001-12.942.072-.795.134-1.607.18-2.422 1.246-.674 2.065-.606 2.859-.86-.773 5.708 3.056 9.279 5.659 9.279 2.555 0 6.838-2.466 8.493-5.122 2.768-4.441 3.178-7.963 2.976-12.072.46-.437.995-.819 2.01-1.15 2.299-.75 1.969-1.641 3.376-1.641.834 0 1.345.703 3.526 1.256-.806 2.318-2.103 4.372-2.103 7.355 0 2 1.281 3.686 3.625 3.686 4.684 0 6.747-5.538 9.816-8.435.282 1.553.905 2.902 1.948 4.15 0 0 1.861 1.263 3.358 1.263 3.809 0 6.289-2.459 9.127-6.626-.468 4.264-.898 8.302-1.437 11.884-11.231.436-20.174 2.624-26.593 5.694-7.191 3.438-15.63 11.078-15.63 17.267 0 4.688 5.189 7.827 12.19 7.827 7.471 0 17.569-3.57 25.331-10.632 6.442-5.861 8.687-11.402 9.917-17.577 2.463.172 4.689.489 7.008 1.05.592.144.746.099.716-.251zm-120.326-2.031c.079-1.674.616-4.239 1.807-5.83.375-.501.742-.321.698.456-.058 1.005-.573 3.631-1.44 6.345-.204.639-.495 1.354-.853 2.419-.175-1.023-.278-2.011-.212-3.39zm-15.604 8.696c.988-.5 2.213-.486 2.589-.111.484.484.459 1.181-.198 1.743-1.313 1.126-3.703 1.721-6.016 1.721-.475 0-.983-.062-1.498-.156 2.088-1.48 3.965-2.608 5.123-3.197zm32.695 28.296c0 8.595-.877 12.111-3.544 13.134-.502-2.195-.378-5.181-.119-12.698.12-3.472.381-9.371.686-16.061 1.711 4.135 2.977 9.77 2.977 15.625zm55.045-46.074c-.187 3.44-2.247 6.714-4.921 6.714-2.768 0-3.769-2.728-3.769-5.87 0-1.935 1.302-4.314 2.905-5.72.999-.876 2.034-1.199 3.049-1.199 1.985 0 2.969 1.795 2.736 6.075zm32.796 17.857c-1.954 4.61-4.908 8.457-10.159 11.851-9.427 6.092-17.027 6.581-21.95 4.378-3.522-1.577-3.913-5.392-1.595-8.768 3.189-4.642 8.893-9.647 18.667-12.824 4.444-1.443 9.605-2.366 15.467-2.366.572 0 1.093.007 1.636.01-.535 3.021-1.187 5.648-2.066 7.719zm.523-22.405c-1.406.798-4.782 1.641-4.689-3.797.094-5.439 2.392-6.423 3.939-6.423.797 0 1.275.129 1.786.486.512.357.477.786.822.97.239.128.957.145 1.567.191.713 5.621-2.092 7.818-3.425 8.573z"/></g><path d="m96.616 185.262c-7.408 0-22.318 5.345-29.418 5.78 7.382.784 13.084-.127 17.978-1.185 6.939-1.501 7.97-.656 13.972-3.563-.469-.75-1.688-1.032-2.532-1.032z"/><path d="m135.052 195.073c.761-2.309 3.511-4.082 6.199-6.248 3.845-3.094 7.783-3.882 11.271-4.688 3.413-.788 4.952-1.875 6.046-2.725-.626 1.225-2.97 3.944-6.533 5.069-3.563 1.126-7.267 2.539-10.338 4.411s-3.56 3.021-6.645 4.181z"/><path d="m204.626 174.021c-2.423 2.708-6.553 3.529-10.3 3.927-4.408.469-4.501-.094-9.659-.094-2.531 0-7.313 1.22-12.659 1.782.938-1.031 2.392-1.465 4.408-2.063 1.583-.469 3.452-1.037 5.157-1.219 4.407-.469 8.158-.281 12.096-.281 5.346 0 8.598-1.571 10.957-2.052z"/><path d="m217.451 155.968c-1.71.987-3.229 1.5-4.328 3.211 1.006.127 2.467.349 3.433-.149 1.048-.545 2.079-1.761 3.059-2.465 2.395-1.708 5.749-4.404 7.718-6.561-2.804 1.753-7.016 4.317-9.882 5.964z"/></g></svg>