<svg clip-rule="evenodd" fill-rule="evenodd" stroke-linejoin="round" stroke-miterlimit="2" viewBox="0 0 560 400" xmlns="http://www.w3.org/2000/svg"><g fill-rule="nonzero" transform="matrix(1.44006 0 0 1.44006 99.928 152.766)"><path d="m86.46 53.32v.34c-1.22.02-1.65.51-1.65 1.67v4.9c0 2.25-1.43 4.66-5.37 4.66-3.47 0-5.25-1.98-5.25-4.57v-5.3c0-1.16-.33-1.34-1.56-1.36v-.34h4.67v.34h-.16c-1 0-1.43.27-1.43 1.33v5.04c0 2.45 1.43 3.92 4.14 3.92 2.05 0 4.14-.85 4.14-3.94v-4.23c0-1.74-.27-2.05-1.78-2.12v-.34zm19.96 11.42v-10.13c0-.71.29-.94 1.65-.94v-.35h-4.25v.35c1.45.03 1.78.24 1.78 1.34v7.22l-8.55-8.91h-2.85v.35c.64.02 1.11.16 1.52.45v8.93c0 .83-.36 1.22-1.49 1.22h-.07v.34h4.21v-.34c-1.54 0-1.83-.27-1.83-1.58v-7.79l9.4 9.84zm14.14-.48c-1.25 0-1.54-.36-1.54-1.43v-7.69c0-1.22.4-1.47 1.54-1.47v-.34h-4.41v.34c1.02.05 1.36.33 1.36 1.31v7.73c0 1.21-.24 1.5-1.36 1.56v.34h4.41zm14.46.64 3.74-9.67c.43-1.13.92-1.56 1.87-1.56v-.34h-4.21v.34c1.23 0 1.69.22 1.69.76 0 .25-.11.62-.31 1.13l-2.87 7.5-3.27-8.13c-.35-.84.05-1.22 1.72-1.25v-.34h-4.99v.34c1.11 0 1.32.27 1.78 1.42l3.94 9.82h.91zm21.16-7.82h-.35c-.09 1.05-.4 1.36-1.05 1.36h-3.25v-4.46h3.83c.65 0 1.11.33 1.34 1.87h.33l-.15-2.52h-8.71v.34h.4c1.22 0 1.45.44 1.45 1.45v7.66c0 1.09-.25 1.49-1.71 1.49h-.51v.34h9.64l.29-2.7h-.33c-.45 1.56-.84 2.05-2.11 2.05h-2.8c-.67 0-.98-.16-.98-1v-3.87h3.07c.74 0 1.09.15 1.23 1.43h.35v-3.44zm20.9 7.44c-.6-.09-1.18-.55-2.01-1.81l-2.21-3.36c2.21-.76 2.38-2.45 2.38-2.94 0-1.51-1.07-2.32-1.81-2.69-.78-.38-1.6-.54-3.03-.54-1.54 0-3.08.07-4.61.2v.33c1.49 0 1.76.35 1.76 1.25v7.3c0 1.56 0 2.03-1.74 2.03v.33h5.19v-.33c-1.81 0-1.94-.42-1.94-1.99v-2.43h2.41c.25.29 1.27 1.91 1.51 2.27 1.62 2.49 2.78 2.72 4.12 2.72v-.34zm-8.04-10.98c1-.02 2.14-.06 3.01.36 1.22.58 1.45 1.85 1.45 2.58 0 1.09-.47 2.49-1.72 2.85-.64.18-1.22.2-2.01.2h-.73zm15.92 8.31.38 2.76h.31c.07-.11.2-.2.36-.2.25 0 1.53.49 2.52.49 2.12 0 3.7-1.32 3.7-3.1 0-3.34-5.83-4.03-5.83-6.61 0-1.01.84-1.71 2.03-1.71 1.25 0 2.41.84 2.92 2.14h.31l-.31-2.31h-.29c-.11.15-.18.18-.33.18-.63 0-.94-.46-2.47-.46-1.85 0-3.23 1.13-3.23 2.63 0 3.18 5.83 3.97 5.83 6.59 0 1.43-1.29 2.14-2.5 2.14-1.42 0-2.69-.94-3.07-2.56h-.33zm20.27 2.41c-1.25 0-1.54-.36-1.54-1.43v-7.69c0-1.22.4-1.47 1.54-1.47v-.34h-4.41v.34c1.02.05 1.36.33 1.36 1.31v7.73c0 1.21-.24 1.5-1.36 1.56v.34h4.41zm14.66-10.29h3.16c.73 0 1.05.42 1.32 2.01h.33l-.29-2.94h-.34c-.04.22-.31.27-.56.27h-8.73c-.13 0-.25-.02-.36-.05-.11-.04-.18-.11-.2-.22h-.34l-.29 2.94h.33c.27-1.6.6-2.01 1.33-2.01h3.16v8.97c0 .98-.33 1.32-1.43 1.32h-.67v.34h5.69v-.34h-.67c-1.11 0-1.43-.34-1.43-1.32v-8.97zm19.07 5.36-2.9-4.48c-.55-.83-.45-1.18.96-1.18v-.35h-4.83v.35c1.18.03 1.6.29 2.49 1.69l3.23 5.05v2.56c0 .89-.33 1.31-1.45 1.31h-.35v.35h4.99v-.35h-.23c-1.11 0-1.45-.38-1.45-1.34v-2.74l3.01-5.1c.51-.85 1.04-1.34 2.27-1.43v-.35h-4.1v.35c1.16 0 1.5.31.92 1.31z"/><path d="m98.7 7.51h-14.07v14.45h10.41c3.53 0 4.82-1.22 4.82-4.63h2.57v12.79h-2.57c0-3.47-.83-4.63-5.78-4.63h-9.44v11.56c0 2.76.51 3.34 2.38 3.34h10.73c4.18 0 6.17-1.16 7.39-6.55h2.44l-.77 10.09h-38.69v-2.5h2.63c3.73 0 5.01-1.48 5.01-4.63v-25.63c0-3.47-1.16-4.69-5.59-4.69h-.64v-2.51h35.4l.64 9.32h-2.44c-.64-4.37-1.48-5.78-4.43-5.78m51.01 25.25h-2.57c-4.3 5.52-5.59 7.64-9.89 7.64h-8.16c-2.5 0-3.21-.58-3.21-2.95v-26.47c0-3.02 1.41-4.5 4.75-4.5h1.86v-2.51h-21.78v2.51h1.22c2.89 0 5.08.83 5.08 4.62v25.7c0 3.15-1.22 4.63-5.33 4.63h-1.09v2.5h34.44zm25.44-30.01c-14.33 0-24.61 9.12-24.61 21.84 0 10.79 8.61 20.24 23.38 20.24 15.35 0 24.16-10.22 24.16-21.65 0-12.01-9.51-20.43-22.93-20.43m.25 39.32c-9.06 0-15.29-8.29-15.29-20.56 0-9.7 5.33-16 13.49-16 9.76 0 14.91 9.64 14.91 19.98 0 8.87-4.18 16.58-13.11 16.58m34.43-30.13 30.77 32.19h3.53v-34.37c0-2.44 1.29-3.28 5.27-3.28h.64v-2.51h-16.57v2.51h.64c5.14 0 6.1.83 6.1 5.46v19.4l-26.2-27.37h-13.23v2.51c1.99 0 3.72.45 5.14 1.41v29.49c0 2.63-.96 4.05-4.88 4.05h-.39v2.5h15.55v-2.5c-5.14 0-6.36-1.29-6.36-5.2v-24.29z" fill="#73000a"/><path d="m51.97 3.59c-.57-.14-14.17-3.58-24.87-3.58-14.67 0-25.53 3.37-25.98 3.51l-1.07.34v32.62c0 7.82 4.61 16.24 11.75 21.44 5.89 4.3 12.27 6.81 14.12 7.48l.58.19.61-.21c1.81-.66 8.16-3.16 14.08-7.47 7.14-5.21 11.89-13.72 11.89-21.52l.03-32.5z" fill="#73000a"/><path d="m51.6 36.48c0 6.56-3.92 14.81-11.3 20.2-5.75 4.19-11.94 6.62-13.7 7.27l-.09.03-.1-.03c-1.76-.65-7.95-3.07-13.71-7.26-7.38-5.39-11.13-13.66-11.02-20.15v-31.5s10.82-3.38 25.42-3.38c10.64 0 24.49 3.41 24.49 3.41z" fill="#fff"/><path d="m31.58 3.19c.58.96 1.55 2.99.63 4.57-.42.7-.9 1.32-1.36 1.88-2.53 3.05-5.53 6.47-7.6 12.6-1.68 4.98-2.32 10.08-1.8 15.55.35 4.33 1.45 9.19 2.86 12.25.75 1.83 1.28 2.7 1.95 3.63-.59-1.36-1.22-2.74-1.85-4.99-.22-1.13 1.33-2.88 2.35-3.89 1.25-1.22 4.49-3.96 4.49-3.96s-2.71 1.66-4.37 3.1c-1.47 1.27-2.52 2.66-2.86 3.31-.41-1.74-.8-3.84-1.02-6.07-.06-.57-.09-.72-.14-1.33-.03-.92 3.32-4.18 5.17-5.62 1.99-1.55 7.18-5.18 7.18-5.18s-4.88 2.43-6.62 3.72c-3.89 2.86-5.45 4.78-5.93 5.23-.28-2.9-.27-4.96.06-8.25.22-1.19 2.96-4.32 5.19-6.18 1.66-1.38 6.12-4.18 6.12-4.18s-4.38 2.16-6.32 3.44c-2.4 1.58-3.68 3.04-4.73 4.41.22-1.21.93-3.85 1.3-5.08 1.42-4.74 4.14-8.72 6.89-11.97.74-.86 1.58-2.11 1.74-2.97.04 1.61 1.54 2.96.45 5.41-.95 2.15-1.47 2.86-1.73 3.79s-.2 2.08.88 1.49c1.09-.58 4.04-3.06 5.14-2.85.69.13.52 3.33-.54 4.69-1.77 2.29-5.4 3.98-7.64 7.49-.24.38-.57.92-.65 1.09-.24.4-.09 1.2.53 1.43.26.1.8-.09 1.27-.35.38-.17 5.66-4.17 6.08-4.45 1.33-.91 1.98-1.29 2.8-1.14.29.05 1.02 1.8-.12 4.56-1.14 2.77-2.55 3.37-4.85 5.18-1.78 1.4-4.47 2.77-5.32 4.1-.88 1.38-.22 1.85 1.04 1.59 1.27-.26 3.22-2.01 4.28-1.46.7.37.05 2.29-.89 3.51-.97 1.27-2.26 1.51-4.36 4.69-2.6 3.93-1.8 6.42-1.55 7.36.56 2.14 3.95 5.58 5.61 5.92 1.58-.89 4.66-2.75 6.29-3.95 6.95-5.11 10.58-12.97 10.58-19.19l.03-29.79c0-.02-9.61-2.45-18.66-3.14" fill="#73000a"/><path d="m29.59 58.89c-.16-.14-.33-.3-.49-.47.02.04.03.06.03.06-3.19-3.22-6.94-8.72-10.65-11.35-7.44-5.28-5.61-10.87-5.61-10.87 1.51 5.64 4.38 5.11 6.57 6.99-2.85-4.07-9.14-13.21-6.65-19.61 0 0 0 2.3 3.49 4.93.55.42-.46-1.62-.86-3.74-.73-3.87-1.05-9.95 2.27-13.93.89-1.07.36-2.24.02-2.9 0 0 1.97 1.39 1.18 3.22-1.22 2.8-.39 4.55.74 6.44-.03-.05.63-2.65 2.63-4.75 2.42-2.52 3.6-3.22 6.23-4.39 3.08-1.38 3-4.22 2.83-5.36-1.67-.14-2.43-.12-4.1-.12-13.74-.03-24.02 3.18-24.02 3.18v29.89c0 6.23 3.52 14.07 10.47 19.18 5.41 3.98 11.23 6.28 12.89 6.9l.09.03.09-.03c.97-.36 1.01-.46 4.08-1.75.4-.18.34-.13.3-.16-.32-.32-.55-.58-1.53-1.39" fill="#b59a57"/></g></svg>