<svg clip-rule="evenodd" fill-rule="evenodd" stroke-linejoin="round" stroke-miterlimit="2" viewBox="0 0 560 400" xmlns="http://www.w3.org/2000/svg"><g fill="#4f4e50" fill-rule="nonzero" transform="matrix(.901804 0 0 .901804 9.36874 -3.98798)"><path d="m344.6 259.3-37.3-82.9h-4.8l-37.3 85.3c-3.6 6-4.8 8.4-8.4 13.2h12l15.6-36.1h32.6l15.6 36.1h24c-6-4.8-8.4-7.2-12-15.6zm-56.5-27.6 12-28.8 13.2 28.8z"/><path d="m236.4 177.6h-4.8l-39.7 76.9-40.9-76.9h-6l-10.8 82.9c-1.2 8.4-1.2 10.8-3.6 15.6h12c-1.2-3.6-1.2-10.8 0-16.8l7.2-50.5 34.9 66.1h6l33.7-63.7 6 46.9c1.2 5.5 1.2 11.3 0 16.8l21.6 1.2c-2.4-4.8-3.6-7.2-4.8-15.6z"/><path d="m112.6 266.5h-39.6v-38.5h42l2.4-7.2h-44.4v-38.5h34.9c3.3.1 6.6.9 9.6 2.4 1.2 0 2.4 1.2 3.6 1.2v-9.6h-67.4c2.4 7.2 2.4 10.8 2.4 15.6v67.3c0 4.8 0 8.4-2.4 15.6h70.9l1.2-9.6c0-1.1-7.2 2.5-13.2 1.3z"/><path d="m446.8 259.3-37.3-82.9h-4.8l-37.3 85.3c-3.6 6-4.8 8.4-8.4 13.2h12l15.6-36.1h32.5l15.6 36h24c-5.9-4.7-8.3-7.1-11.9-15.5zm-57.7-27.6 13.2-28.8 13.2 28.8z"/><path d="m499.7 229.3h3.6c13.2-2.4 25.2-10.8 25.2-25.2 0-28.8-33.6-27.6-48.1-27.6h-20.4c2.4 7.2 2.4 10.8 2.4 15.6v67.3c0 4.8 0 8.4-2.4 15.6h21.6c-2.4-7.2-2.4-10.8-2.4-15.6v-30c2.4 0 4.8 1.2 9.6 6 11.6 14.3 24.5 27.6 38.5 39.7h19.2c-2.4-1.4-46.8-45.8-46.8-45.8zm-19.3-4.8v-42.1c30-1.2 33.7 14.4 33.7 21.6s-2.4 15.7-12 19.3c-6.1 2.4-22.9 1.2-21.7 1.2z"/></g></svg>