<svg clip-rule="evenodd" fill-rule="evenodd" stroke-linejoin="round" stroke-miterlimit="2" viewBox="0 0 560 400" xmlns="http://www.w3.org/2000/svg"><g fill-rule="nonzero"><g fill="#300673"><path d="m0 0c-13.011 2.129-19.255-1.282-28.794-10.538 0 0-56.442-54.534-51.15-108.233 14.852-16.906 37.052-24.662 57.925-20.617-17.79 7.05-18.125 28.125-18.125 28.125-1.152 24.398 22.845 57.727 46.383 75.245 3.006 2.235 5.987 4.517 8.63 7.183.293.297.526.623.791.933 1.865 2.058 3.193 4.468 3.642 7.215 1.537 9.441-7.106 18.691-19.302 20.687" transform="matrix(.21815 0 0 -.21815 117.5161081 134.938744)"/><path d="m0 0c-9.208-6.007-18.805-11.361-29.018-15.085-5.676-2.069-11.305-3.476-16.872-4.359.86-12.3 3.935-23.619 8.842-33.997 24.821-12.982 47.522-18.998 68.008-20.44-23.268 15.944-34.558 42.91-30.96 73.881" transform="matrix(.21815 0 0 -.21815 147.1932341 186.064378)"/><path d="m0 0s3.436 12.025 2.18 16.971c-27.667-14.134-67.106-60.287-82.058-110.711 31.793 13.35 63.009 43.731 79.878 93.74" transform="matrix(.21815 0 0 -.21815 155.87189555 159.6189261)"/><path d="m0 0c.788 1.862 1.565 3.763 2.324 5.712.467 1.195.968 2.378 1.41 3.58-17.377-12.636-36.774-38.584-50.576-70.007 20.768 15.114 36.516 36.843 46.842 60.715" transform="matrix(.21815 0 0 -.21815 133.24406865 147.748512)"/><path d="m0 0c-15.943-16.799-35.333-31.901-57.256-38.66-.438-.18-.785-.316-.915-.357-1.371-7.387-1.873-14.652-1.322-21.68 11.965-13.763 30.331-20.635 50.785-20.204-10.912 9.685-20.521 31.997 9.012 81.2-.06-.064-.23-.221-.304-.299" transform="matrix(.21815 0 0 -.21815 132.5688944 164.14095745)"/><path d="m0 0c-.758.476-1.708.394-2.386-.19-24.547-21.139-49.376-39.07-74.921-53.347-96.475-53.914-166.702-50.009-169.536-49.936-113.2 2.909-207.445 96.293-208.59 209.246-6.966-.94-13.971-1.359-20.983-1.102-7.832.407-14.964 1.495-21.69 2.921-.015-.875-.057-1.848-.046-2.643.332-136.934 113.688-248.496 250.668-249.081 40.408 0 101.596 6.31 187.738 53.631 35.442 19.47 68.867 43.066 100.847 70.199 1.294 1.098.769 3.187-.874 3.61-15.427 3.965-29.102 9.713-40.227 16.692" transform="matrix(.21815 0 0 -.21815 264.34131115 233.75131355)"/><path d="m0 0c-5.504 6.992-14.279 15.169-22.566 15.887-1.067.093-2.141.104-3.187.035-1.388-.1-2.582-.326-3.631-.679-6.175-2.125-9.157-10.102-11.82-17.333-17.709-48.1-48.327-108.495-87.405-169.447-.775-1.208-.11-2.796 1.289-3.114 16.792-3.812 32.072-9.541 45.023-16.58.953-.517 2.122-.212 2.713.697 34.278 52.783 62.641 106.586 83.742 156.882 3.744 8.488 4.49 22.662-4.158 33.652" transform="matrix(.21815 0 0 -.21815 328.5535455 152.73083985)"/><path d="m0 0 .002.001c32.175 114.222 91.773 116.194 91.773 116.194.001.017-.002.032-.001.049 0 .15-.021.276-.022.425-.038 6.552-.723 12.394-1.75 17.538-.043.219-.063.481-.108.697-.285 1.372-.648 2.537-.976 3.803-.321 1.242-.607 2.586-.958 3.726-.259.84-.544 1.508-.814 2.292-.471 1.365-.935 2.789-1.42 3.982-.228.558-.446.967-.673 1.486-.534 1.225-1.072 2.475-1.581 3.485-.247.49-.448.811-.684 1.249-.457.853-.93 1.753-1.325 2.412-.248.413-.408.636-.623.971-.299.468-.638 1.019-.858 1.335-.335.48-.545.752-.636.865-.008.01-.049.068-.055.075s-.016.02-.018.022c-23.816-1.591-100.155-36.786-124.99-169.075.015 0 .029.003.044.003 16.957.17 32.224 3.443 45.673 8.465" transform="matrix(.21815 0 0 -.21815 166.3372055 200.41101275)"/></g><path d="m0 0s-16.249 15.344-39.132 14.966c-.786-.012-1.553.011-2.354-.04-.738-.048-1.417.044-2.167-.038 0 0 .065-.083.077-.096.534-.635 12.481-16.234 12.502-44.412.039-51.544-46.341-99.232-91.776-116.195-13.461-5.026-28.742-8.304-45.719-8.468-3.614-.035-7.31.088-11.078.353-20.485 1.441-42.879 7.305-67.701 20.286-.106.056-.207.098-.312.153 0 0 18.023-45.281 75.955-57.564 6.726-1.426 13.857-2.513 21.689-2.92 7.011-.257 14.019.162 20.984 1.102 96.8 13.065 184.233 135.518 129.032 192.873" fill="#00b8f4" transform="matrix(.21815 0 0 -.21815 193.136933 168.6014705)"/><path d="m0 0c-5.732 11.456-20.397 16.622-30.549 7.715-15.945-43.585-49.535-81.84-98.163-90.088-36.6-6.208-57.223 20.365-57.655 20.846 2.036-32.959 30.261-55.155 61.86-57.5 38.516-2.859 71.52 23.542 95.174 51.164 13.483 15.745 40.752 45.05 29.333 67.863" fill="#00b8f4" transform="matrix(.21815 0 0 -.21815 140.72966775 147.386383)"/><path d="m0 0c-11.627 6.63-23.835.113-23.835.113.007-.023-.015 0-.015 0 1.272-4.946-2.164-16.971-2.164-16.971-16.869-50.008-48.085-80.39-79.879-93.739-12.067-5.067-24.167-7.648-35.651-7.89-20.452-.432-38.706 6.33-50.673 20.093-.035.042-.082.072-.118.113 0 0 .048-32.049 30.559-49.737 10.973-6.361 22.657-10.066 34.985-10.519 4.954-.181 10.004.2 15.103 1.009 5.568.884 11.197 2.291 16.872 4.36 10.213 3.723 19.811 9.077 29.018 15.085 38.446 25.082 67.253 66.473 77.313 97.232 6.019 18.405-1.212 34.976-11.515 40.851" fill="#00b8f4" transform="matrix(.21815 0 0 -.21815 161.54684965 155.9413534)"/><path d="m0 0c-.113-2.695-.868-6.085-2.401-10.226-1.655-4.436-4.285-8.797-7.814-12.913-3.514-4.117-8.081-7.685-13.562-10.612-5.367-2.866-12.007-4.315-19.737-4.315-7.935 0-14.682 1.418-20.056 4.193-5.39 2.805-9.827 6.587-13.189 11.252-3.438 4.742-5.969 10.291-7.531 16.497-1.601 6.327-2.409 13.157-2.409 20.308 0 8.782 1.479 16.725 4.398 23.586 2.89 6.816 6.915 12.594 11.954 17.168 5.077 4.589 10.992 8.157 17.579 10.596 6.601 2.455 13.79 3.69 21.345 3.69 5.39 0 10.185-.335 14.271-1.006 1.53-.245 2.896-.502 4.271-.757 1.992-.485 4.032-.965 5.791-1.485 4.17-1.219 7.09-5.26 7.09-9.834zm-96.064-99.185s2.083-1.733 3.409-2.655c.739-.525 1.832-1.271 3.554-2.335 2.905-1.783 6.434-3.567 10.49-5.321 4.116-1.738 8.912-3.171 14.24-4.223 5.375-1.083 11.443-1.631 18.044-1.631 11.687 0 21.841 1.57 30.189 4.665 8.484 3.171 15.528 7.761 20.948 13.661 5.428 5.885 9.415 13.188 11.862 21.696 2.379 8.279 3.583 17.564 3.583 27.611v107.824c0 20.033-22.489 25.766-23.51 26.025-18.41 4.132-40.266 4.391-58.089-2.332-9.377-3.538-17.641-8.599-24.562-15.033-6.968-6.495-12.495-14.424-16.421-23.572-3.934-9.147-5.931-19.485-5.931-30.737 0-9.955 1.25-19.393 3.728-28.007 2.508-8.798 6.419-16.558 11.633-23.068 5.252-6.556 11.93-11.801 19.866-15.613 7.921-3.781 17.381-5.702 28.115-5.702 8.919 0 16.748 1.433 23.274 4.239 6.35 2.759 11.739 5.93 15.925 9.33 1.974 1.51 3.819 3.126 5.534 4.849v-9.041c0-6.846-.739-13.28-2.211-19.135-1.395-5.565-3.819-10.428-7.204-14.423-3.354-3.964-7.974-7.166-13.737-9.499-5.862-2.363-13.409-3.567-22.427-3.567-10.193 0-18.373 1.372-24.326 4.071-2.047.925-3.639 1.787-5.326 2.663-3.33 1.801-5.617 3.283-5.617 3.283-1.432.947-2.465 1.706-3.359 2.375-1.741 1.302-3.233.803-4.267-.568l-8.29-10.979s-1.8-2.778.883-4.851" fill="#300673" transform="matrix(.21815 0 0 -.21815 420.737191 217.2410671)"/><path d="m0 0c-1.942 7.698-5.069 14.423-9.491 19.912-4.482 5.55-10.352 9.849-17.465 12.792-6.983 2.912-15.567 4.376-25.515 4.376-7.898 0-15.018-1.144-21.17-3.4-6.083-2.226-11.412-5.093-15.818-8.508-4.109-3.171-8.468-7.978-8.468-7.978-1.154-1.273-2.113-1.696-2.132-.941s-.336 7.392-.401 8.403c-.065 1.01-.466 6.152-.552 7.133s-1.561 1.784-3.279 1.784h-14.368c-1.717 0-3.026-.956-2.932-2.127.585-7.302.848-13.3.739-16.486v-118.289c0-1.717 1.406-3.122 3.123-3.122h15.314c1.717 0 3.122 1.405 3.122 3.122v65.734c0 1.717.111 4.523.247 6.235 0 0 .706 8.917 2.589 15.016 1.868 6.053 4.711 11.648 8.439 16.649 3.674 4.909 8.385 9.026 13.996 12.197 5.512 3.11 12.197 4.696 19.874 4.696 5.817 0 11.054-.716 15.574-2.134 4.224-1.327 7.677-3.583 10.543-6.892 2.912-3.369 5.184-8.096 6.755-14.027 1.631-6.22 2.311-20.315 2.311-20.315.083-1.715.151-4.524.151-6.241v-70.918c0-1.717 1.405-3.122 3.122-3.122h15.314c1.717 0 3.122 1.405 3.122 3.122v75.278c0 1.718-.425 18.86-2.744 28.051" fill="#300673" transform="matrix(.21815 0 0 -.21815 274.52324425 205.8915952)"/><path d="m0 0c-.891.324-7.505 2.657-13.932 2.657-7.57 0-14.355-1.159-20.171-3.431-5.725-2.256-10.787-5.031-15.026-8.248-3.872-2.912-7.822-7.275-7.822-7.275-1.153-1.273-2.109-1.715-2.126-.981s-.273 7.916-.338 9.002-.533 6.765-.619 7.746c-.086.982-1.561 1.784-3.279 1.784h-14.368c-1.717 0-3.047-.958-2.932-2.127.481-4.896.696-10.241.696-10.241.024-1.717.044-4.527.044-6.245v-118.288c0-1.718 1.405-3.123 3.122-3.123h15.314c1.717 0 3.122 1.405 3.122 3.123v65.169c0 1.718.119 4.523.265 6.234 0 0 .772 9.086 2.823 15.063 2.035 5.931 4.962 11.297 8.682 15.932 3.69 4.59 8.112 8.325 13.158 11.115 6.061 3.324 12.446 4.676 21.452 3.76 1.595-.162 5.766-1.12 5.878-1.153 1.39-.411 2.189.037 2.676 1.684l4.085 13.831c.572 1.84 1.018 3.386-.704 4.012" fill="#300673" transform="matrix(.21815 0 0 -.21815 332.5151495 198.8414235)"/><path d="m0 0c-.113-2.695-.868-6.085-2.401-10.226-1.655-4.436-4.285-8.797-7.814-12.913-3.514-4.117-8.081-7.685-13.562-10.612-5.367-2.866-12.007-4.315-19.737-4.315-7.935 0-14.682 1.418-20.056 4.193-5.39 2.805-9.827 6.587-13.189 11.252-3.438 4.742-5.969 10.291-7.531 16.497-1.601 6.327-2.409 13.157-2.409 20.308 0 8.782 1.479 16.725 4.398 23.586 2.89 6.816 6.915 12.594 11.954 17.168 5.077 4.589 10.992 8.157 17.579 10.596 6.601 2.455 13.79 3.69 21.345 3.69 5.39 0 10.185-.335 14.271-1.006 1.53-.245 2.896-.502 4.271-.757 1.992-.485 4.032-.965 5.791-1.485 4.17-1.219 7.09-5.26 7.09-9.834zm-96.064-99.185s2.083-1.733 3.409-2.655c.739-.525 1.832-1.271 3.554-2.335 2.905-1.783 6.434-3.567 10.49-5.321 4.116-1.738 8.912-3.171 14.24-4.223 5.375-1.083 11.443-1.631 18.044-1.631 11.687 0 21.841 1.57 30.189 4.665 8.484 3.171 15.528 7.761 20.948 13.661 5.428 5.885 9.415 13.188 11.862 21.696 2.379 8.279 3.583 17.564 3.583 27.611v107.824c0 20.033-22.489 25.766-23.51 26.025-18.41 4.132-40.266 4.391-58.089-2.332-9.377-3.538-17.641-8.599-24.562-15.033-6.968-6.495-12.495-14.424-16.421-23.572-3.934-9.147-5.931-19.485-5.931-30.737 0-9.955 1.25-19.393 3.728-28.007 2.508-8.798 6.419-16.558 11.633-23.068 5.252-6.556 11.93-11.801 19.866-15.613 7.921-3.781 17.381-5.702 28.115-5.702 8.919 0 16.748 1.433 23.274 4.239 6.35 2.759 11.739 5.93 15.925 9.33 1.974 1.51 3.819 3.126 5.534 4.849v-9.041c0-6.846-.739-13.28-2.211-19.135-1.395-5.565-3.819-10.428-7.204-14.423-3.354-3.964-7.974-7.166-13.737-9.499-5.862-2.363-13.409-3.567-22.427-3.567-10.193 0-18.373 1.372-24.326 4.071-2.047.925-3.639 1.787-5.326 2.663-3.33 1.801-5.617 3.283-5.617 3.283-1.432.947-2.465 1.706-3.359 2.375-1.741 1.302-3.233.803-4.267-.568l-8.29-10.979s-1.8-2.778.883-4.851" fill="#300673" transform="matrix(.21815 0 0 -.21815 357.190096 217.2410671)"/><path d="m0 0c-2.249-4.452-5.374-8.447-9.293-11.877-3.926-3.461-8.637-6.327-13.996-8.492-5.253-2.135-10.977-3.217-17.023-3.217-9.071 0-16.58 2.012-22.305 5.961-5.352 3.72-7.951 9.529-7.951 17.777 0 3.019.396 6.48 1.189 10.322.709 3.477 2.317 6.678 4.924 9.773 2.585 3.065 6.503 5.687 11.664 7.822 5.26 2.18 12.586 3.278 21.795 3.278 9.072 0 16.649-.442 22.504-1.296l11.785-1.769.015-15.277c0-4.315-1.112-8.69-3.308-13.005m24.741-34.413c-.086.742-.172 1.615-.26 2.422-.175 1.942-.452 5.856-.452 7.335v77.455c0 18.021-5.238 31.24-15.567 39.29-10.048 7.806-24.234 11.77-42.164 11.77-12.228 0-22.779-2.073-31.355-6.144-8.523-4.025-14.621-7.837-18.631-11.633 0 0-2.443-2.419-.607-4.956l7.543-9.947s1.824-2.418 5.055.083c3.255 2.729 7.974 5.626 14.027 8.63 5.794 2.897 13.966 4.36 24.295 4.36 6.29 0 11.839-.549 16.512-1.616 4.407-1.021 8.127-2.76 11.062-5.168 2.904-2.379 5.046-5.55 6.556-9.682 1.57-4.284 2.37-9.864 2.37-16.573v-2.988l-9.086 1.006c-5.382.579-13.722.869-24.791.869-10.734 0-20.034-1.296-27.665-3.842-7.707-2.592-14.156-6.175-19.157-10.627-5.085-4.513-8.836-9.941-11.153-16.131-2.264-6.022-3.408-12.532-3.408-19.348 0-8.477 1.578-15.658 4.689-21.314 3.095-5.626 7.143-10.154 12.029-13.417 4.795-3.232 10.276-5.504 16.291-6.754 5.771-1.22 11.633-1.845 17.412-1.845 3.872 0 8.134.427 12.654 1.25 4.574.839 9.3 2.302 14.042 4.33 4.833 2.058 9.499 4.909 13.875 8.492 1.722 1.403 3.399 2.958 5.023 4.62.023-2.272.122-4.193.275-5.534 0-.811.084-1.418.109-2.167l-.055-.021c.015-.634.111-1.914.214-3.133.025-.265.016-.615.044-.87l.033.002c.066-.739.129-1.407.166-1.732.109-.952 1.603-1.73 3.321-1.73h14.269c1.717 0 3.001.984 2.852 2.187-.1.811-.238 1.964-.367 3.071" fill="#300673" transform="matrix(.21815 0 0 -.21815 386.54436 220.4596522)"/><path d="m0 0c.617 4.925 1.875 9.621 3.743 14.012 2.378 5.58 5.557 10.504 9.43 14.651 3.834 4.071 8.492 7.364 13.844 9.758 5.313 2.394 11.313 3.598 17.838 3.598 12.807 0 22.908-3.796 30.89-11.587 7.181-7.029 11.816-17.259 13.805-30.432zm111.78-15.125c0 12.259-1.654 23.282-4.917 32.765-3.286 9.59-8.005 17.762-14.012 24.273-6.015 6.51-13.257 11.526-21.528 14.926-16.855 6.861-37.75 6.769-54.079-.778-8.34-3.887-15.552-9.239-21.422-15.917-5.854-6.632-10.512-14.499-13.843-23.373-3.332-8.858-5.024-18.418-5.024-28.389 0-10.84 1.807-20.872 5.382-29.807 3.575-8.95 8.576-16.771 14.858-23.236 6.296-6.495 13.958-11.587 22.763-15.139 8.736-3.537 18.349-5.337 28.549-5.337 10.855 0 21.581 2.181 31.888 6.48 10.459 4.361 18.852 10.52 24.943 18.311 2.575 3.451-.81 5.614-.81 5.614l-8.475 7.29s-2.989 3.152-5.946-.188c-2.089-2.592-4.673-4.955-7.669-7.029-3.11-2.15-6.594-4.04-10.352-5.656-3.759-1.632-7.73-2.867-11.809-3.69-11.77-2.439-22.519-1.311-31.545 2.622-5.961 2.608-11.107 6.175-15.285 10.612-4.223 4.467-7.615 9.849-10.093 15.978-2.005 4.94-3.263 10.231-3.773 15.765h108.718c3.498 0 3.481 3.903 3.481 3.903" fill="#300673" transform="matrix(.21815 0 0 -.21815 218.158738 211.3065145)"/><path d="m0 0c.618 4.925 1.875 9.621 3.743 14.012 2.379 5.58 5.557 10.504 9.43 14.651 3.835 4.071 8.492 7.364 13.844 9.758 5.313 2.394 11.313 3.598 17.838 3.598 12.807 0 22.908-3.796 30.89-11.587 7.181-7.029 11.816-17.259 13.805-30.432zm111.78-15.125c0 12.259-1.654 23.282-4.917 32.765-3.286 9.59-8.004 17.762-14.012 24.273-6.014 6.51-13.257 11.526-21.528 14.926-16.855 6.861-37.75 6.769-54.079-.778-8.34-3.887-15.552-9.239-21.421-15.917-5.855-6.632-10.513-14.499-13.844-23.373-3.332-8.858-5.024-18.418-5.024-28.389 0-10.84 1.807-20.872 5.382-29.807 3.575-8.95 8.576-16.771 14.858-23.236 6.296-6.495 13.958-11.587 22.763-15.139 8.736-3.537 18.349-5.337 28.549-5.337 10.855 0 21.581 2.181 31.888 6.48 10.459 4.361 18.852 10.52 24.943 18.311 2.575 2.558-.072 4.979-.072 4.979l-10.219 8.79s-2.191 1.768-4.94-1.053c-2.089-2.592-4.673-4.955-7.669-7.029-3.11-2.15-6.594-4.04-10.352-5.656-3.759-1.632-7.73-2.867-11.809-3.69-11.77-2.439-22.519-1.311-31.545 2.622-5.961 2.608-11.107 6.175-15.284 10.612-4.224 4.467-7.616 9.849-10.094 15.978-2.005 4.94-3.262 10.231-3.773 15.765h108.718c3.498 0 3.481 3.903 3.481 3.903" fill="#300673" transform="matrix(.21815 0 0 -.21815 435.615021 211.3065145)"/><path d="m0 0c.618 4.925 1.875 9.621 3.743 14.012 2.378 5.58 5.557 10.504 9.43 14.651 3.835 4.071 8.492 7.364 13.844 9.758 5.313 2.394 11.313 3.598 17.838 3.598 12.807 0 22.908-3.796 30.89-11.587 7.181-7.029 11.816-17.259 13.805-30.432zm111.78-15.125c0 12.259-1.654 23.282-4.917 32.765-3.286 9.59-8.005 17.762-14.012 24.273-6.014 6.51-13.257 11.526-21.528 14.926-16.855 6.861-37.75 6.769-54.079-.778-8.34-3.887-15.552-9.239-21.421-15.917-5.855-6.632-10.513-14.499-13.844-23.373-3.332-8.858-5.024-18.418-5.024-28.389 0-10.84 1.807-20.872 5.382-29.807 3.575-8.95 8.576-16.771 14.858-23.236 6.296-6.495 13.958-11.587 22.763-15.139 8.736-3.537 18.349-5.337 28.549-5.337 10.855 0 21.581 2.181 31.888 6.48 10.459 4.361 18.852 10.52 24.943 18.311 2.575 3.451-.81 5.614-.81 5.614l-8.475 7.29s-2.989 3.152-5.946-.188c-2.089-2.592-4.673-4.955-7.669-7.029-3.11-2.15-6.594-4.04-10.352-5.656-3.759-1.632-7.73-2.867-11.809-3.69-11.77-2.439-22.519-1.311-31.545 2.622-5.961 2.608-11.107 6.175-15.285 10.612-4.223 4.467-7.615 9.849-10.093 15.978-2.005 4.94-3.262 10.231-3.773 15.765h108.718c3.498 0 3.481 3.903 3.481 3.903" fill="#300673" transform="matrix(.21815 0 0 -.21815 285.091521 211.3065145)"/></g></svg>