<svg clip-rule="evenodd" fill-rule="evenodd" stroke-linejoin="round" stroke-miterlimit="2" viewBox="0 0 560 400" xmlns="http://www.w3.org/2000/svg"><g transform="matrix(.9005 0 0 .9005 175.972 66.0168)"><path d="m83.501 291.148c.41.411.822.411 1.644-.822-.413.822-.822 1.233-1.234 1.233 0 0-.41 0-.41-.411zm-.412-1.234c-.822-3.291-2.056-6.993-4.936-9.872-2.467-3.289-4.525-7.814-4.934-9.048 0 0-.823 1.645-1.646 2.467-.823.823-.823.823-2.467-.411-1.234-1.234-5.758-6.993-6.169-15.628 0-.824-.411-1.235-.822-.824-.823.413-2.056 1.235-2.88-.822-.412-2.056 0-6.582 2.469-12.339 2.056-4.112 4.113-5.758 2.878-9.049 0 0-.822-2.468-3.29-3.288 0 0-.825-.413-1.646 0-2.879 1.642-13.574 8.225-23.442 18.093-1.645 1.646-3.292 3.292-6.582 1.234-4.525-2.877-9.871-6.58-17.274-9.87-6.582-2.469-8.226-4.113-7.816-5.758.824-1.646 2.878-1.646 5.757-1.232 2.879 0 12.749 3.699 31.668-5.758.412-.412 1.647-.822 1.234-2.469 0-1.644.413-7.404.413-9.049 0-1.233.822-2.055 2.056-.821 1.232 1.232 4.112 4.11 6.58 5.755 1.233.413 2.467.824 4.525 0 1.644-.822 19.328-12.337 20.153-12.748 0 0-3.703-2.057-9.049-1.647-4.936.412-16.863.823-26.324-3.289-3.703-1.647-10.693-6.992-12.339-9.049-.822-.823-1.234-2.056 1.234-3.29.822 0 1.234-.412 0-1.647-.822-.822-5.347-5.345-5.347-11.926 0-.822 0-2.879 2.468-2.468 0 0-2.468-2.879-3.701-9.047-.412-1.234.411-2.468 1.644-2.056 0 0-4.112-6.994-4.934-12.75 0-1.235 1.645-2.057 2.879-.822 1.233 1.233 3.291 3.29 7.813 4.934 3.292 1.235 6.581 2.057 11.929 2.469 6.991.41 17.685 3.289 23.854 7.404 4.112 2.467 10.692 9.46 12.749 16.04 1.234 4.521 1.646 9.87 1.234 12.748-.412 2.88-.822 8.227.822 11.105 0 0 12.339-8.635 18.508-17.685 0 0 12.749 3.703 23.442-8.636 0 0 1.646 6.992 6.584 9.872 2.466 1.644 5.346 2.467 9.87 2.467h-.822s9.872 2.467 11.929 2.88c5.756 1.644 17.683 4.934 30.023 16.45 11.928 11.517 25.911 29.202 25.911 29.202 3.289 5.758 6.993 15.628 6.993 15.628-.412.411-.823 0-1.234-1.234-.822-2.468-3.292-6.993-9.462-10.282-6.168-2.879-9.458-3.29-11.514-3.29 0 0-.413 0-.413 1.234 0 1.644-.822 1.644-2.468 1.233-4.109-.822-15.627-4.525-21.797-11.106 0 0-.41 2.056-2.057 2.467 0 0-4.523 0-7.403-7.814-2.056-6.169-4.936-20.977-11.517-25.5-5.345-4.111-13.572-6.167-20.976-4.111-5.757 1.234-13.983 4.521-17.275 6.58 0 0 3.292-.411 7.403-.411-4.112 0-7.403.411-7.403.411-1.644.823-.822 2.88.412 4.112 0 0 6.169 6.17 9.461 15.218 2.056 5.758 4.935 23.034 11.928 32.08 6.582 8.636 11.927 11.516 11.927 11.516 6.169 6.993 12.339 9.46 12.339 9.46.411-.41.411-.822 0-1.644.411 1.234 0 2.056-1.235 1.644-3.288-.41-15.628-3.291-23.031-13.574 0 0-.822.413-1.645 1.234-1.235.823-1.235.823-2.88.413-1.234-.824-5.755-4.112-7.402-6.582 0 0-.412.411-1.234.822-1.234.411-2.057.822-2.88-.411-1.233-.822-7.813-9.049-6.991-17.275 0 0-.822 0-2.468-.411 0 0-.411-.411-.822-1.233-.412-2.469-1.647-8.226 1.234-13.161 2.878-5.347 2.878-9.461 2.056-11.928-.412-2.467-3.291-4.525-5.348-5.346-2.878-.823-3.7-.412-5.345.411-1.646.824-20.154 11.516-29.201 17.274-.412 2.469 1.234 3.292 1.234 3.292s9.871 6.992 15.218 29.2c1.646 6.58 1.646 21.386 1.646 21.386-1.234 4.525-1.646 11.106-1.646 11.106.002-.408-.409-.819-.409-1.23zm9.872-9.869h.412zm1.234 0h-.824zm-3.292-1.237s.411 0 .411.413c0-.413-.411-.413-.411-.413zm63.339-4.934v.413zm-.412 0c-.822-1.645-2.877-3.701-3.699-7.816-.411-2.469-.822-4.11-.411-5.756-.412 1.646 0 3.287.411 5.756.819 4.115 2.877 6.172 3.699 7.816zm-27.967-32.489c5.346 14.393 16.04 25.087 16.04 25.087s-10.693-10.282-16.04-25.087zm-41.541 11.101c-.411-.411-.411-.411-.411-.822.822 3.29 1.644 6.582 1.644 9.871 0-2.878-.822-5.757-1.233-9.049zm18.508 5.348h.413zm-1.233-.41h.412s.001 0-.412 0zm51.002-4.526c-.412-6.17-2.468-11.517-3.29-13.161-.823-.822-.412-1.234 0-1.234-.412 0-.823.412 0 1.234.819 1.648 2.878 6.991 3.29 13.161v.822zm-2.058-14.395h.822zm-.824 0h.411zm-81.433-9.047s3.7.412 7.815 5.345c-4.115-4.525-7.815-5.345-7.815-5.345zm40.304-21.799s9.873 5.347 15.217 27.144c-5.344-21.797-15.217-27.144-15.217-27.144zm36.606 10.693c-1.234-2.878-4.935-8.637-13.573-12.338-.411-.412-1.233-.823-2.057-1.234.824.411 1.647.822 2.057 1.234 8.637 3.701 12.339 9.46 13.573 12.338 0 .823.412 1.234.412 1.646-.001-.412-.412-.823-.412-1.646zm66.217-7.815h1.645zm-95.418-7.402h2.056zm27.145-11.927h-1.235z" fill="#017c37"/><g fill="#fff"><path d="m181.389 210.537c-12.342-11.516-24.269-14.807-30.024-16.452 15.217 2.469 25.5 8.225 34.958 17.686 10.696 10.282 15.631 19.33 20.978 27.967-.003 0-13.986-17.685-25.912-29.202z"/><path d="m83.501 258.658c-5.348-22.212-15.219-29.201-15.219-29.201s3.7.821 7.816 5.345c2.466 2.879 5.346 8.227 7.813 16.04v.822c0 .41 0 .411.411.822.412 3.292 1.234 6.169 1.234 9.051 1.235 10.281-.411 18.504-.411 18.504s0-14.805-1.645-21.383z"/><path d="m25.508 155.424s7.403 13.571 19.742 22.619c12.338 8.638 3.291 2.88 19.742 14.396 10.694 6.993 13.573 9.87 13.573 9.87l-10.281-6.168s-10.283-6.169-20.975-13.983c-14.398-10.282-21.801-26.734-21.801-26.734z"/><path d="m129.976 254.955c-6.992-9.047-9.873-26.322-11.929-32.08-3.29-9.047-9.46-15.217-9.46-15.217s9.872 5.348 15.218 27.145c.409 2.056 1.232 4.113 2.055 6.583 5.347 14.806 16.039 25.089 16.039 25.089s-5.343-2.886-11.923-11.52z"/></g><path d="m138.614 7.358c6.993 2.88 10.695 9.049 10.282 17.275 0 9.047-4.523 16.039-5.757 17.685-1.644 1.645-3.701 1.645-6.166.411-2.88-.822-6.17-2.468-11.107-2.468-4.525 0-9.048 2.057-11.928 4.935 0 0-6.992-.411-11.927 1.648-4.935 1.645-6.582 2.879-7.814 3.701 0 0-4.934-.412-9.462-2.468-5.345-2.88-17.272-10.693-17.272-22.21 0-11.926 10.28-16.039 16.45-15.627 4.936 0 9.049 1.233 13.573 2.055 4.113 1.235 7.402 1.646 9.871 1.235 2.88-.414 6.992-1.235 10.283-3.291 2.467-2.056 7.402-3.702 10.692-4.113 4.112-.413 7.812.41 10.282 1.232z" fill="#762432"/><path d="m165.348 19.285c8.636 0 12.748 4.114 15.628 12.339 1.234 3.703 2.469 10.283 10.694 11.928 9.87 2.467 15.628 5.347 18.506 10.282 2.88 4.112 2.88 10.282 1.647 13.983-1.234 3.702-2.056 6.169 1.233 9.461 2.468 2.879 4.522 7.815 2.056 13.984-2.056 6.579-8.638 11.926-20.565 12.748-5.758.413-13.983-.822-13.573-3.701 0-.823.822-1.645 2.879-4.114 1.646-1.645 2.465-4.524 2.88-6.991.408-4.114-1.234-7.815-4.525-11.516-1.645-1.646-2.469-3.702-1.234-6.992 1.234-3.29 1.234-5.347 1.234-9.459 0-4.936-3.291-11.516-8.639-13.16-6.992-2.056-14.395-1.234-20.153 4.113 0 0-5.347-3.703-5.347-11.105 0-7.404 7.407-21.8 17.279-21.8z" fill="#762432"/><path d="m204.83 113.061c3.291 4.935 3.703 15.629-1.644 23.854-7.404 12.339-18.917 11.517-18.917 11.517-1.646 17.272-16.452 20.976-24.68 20.976-21.799 0-22.619-17.274-22.619-19.33 0-1.646-.824-2.057-1.645-1.234-5.347 4.114-7.817 11.517-8.228 18.097-.412 6.169 1.235 10.693 2.057 12.75 3.701 5.755 8.636 9.048 20.154 6.166 11.105-2.879 21.387-3.699 30.846-2.467 9.46 1.646 13.983-1.232 15.628-6.168 1.234-4.525 4.935-8.225 9.872-11.104 13.16-6.993 11.107-17.685 9.873-22.21-.822-4.525 2.054-6.991 4.109-9.047 7.405-8.636 9.05-20.153 4.113-26.325-4.934-6.58-14.394-4.934-19.329-4.112-2.879.411-6.168 1.645-7.404 2.467 0 .001 4.524.823 7.815 6.17z" fill="#a71931"/><path d="m126.686 152.132c-.412 5.758-2.88 23.443-12.339 28.792-4.113 2.466-13.164 3.699-22.212.412-8.635-3.292-13.16-9.461-15.215-11.929-4.526-4.934-10.283-11.105-25.089-13.16-13.572-2.055-25.912-7.815-23.442-23.033 1.646-12.75 14.395-16.04 21.387-15.629.822 0 2.878.824 3.29 1.646 1.645 2.879 5.758 8.225 10.282 11.105 6.169 3.702 13.572 4.935 20.565 4.935 0 0 3.292 14.394 14.396 19.33 9.458 4.111 19.739 2.467 28.377-2.469z" fill="#a71931"/><path d="m49.776 29.159c9.047 0 22.208 5.346 24.266 18.507 0 0-9.049-4.113-13.983 2.056-4.114 5.758-1.235 12.339-.411 16.039 1.233 3.702 2.056 6.993 1.233 9.872-.822 3.702-2.88 5.758-8.637 9.461-5.346 3.291-6.58 8.636-6.993 12.339-.412 6.58 1.644 13.572 6.993 17.273 0 0-7.814 2.88-16.04-.411-9.46-3.702-14.394-11.515-14.394-20.977 0-9.872 5.347-15.218 7.403-17.274 1.644-2.056 3.701-5.347 3.701-8.637s-1.646-5.758-2.468-7.405c-1.645-2.878-3.291-7.814-1.645-14.805 1.232-4.935 7.403-16.038 20.976-16.038z" fill="#a71931"/><path d="m65.404 57.536c-1.645 4.526-.412 6.992.822 10.695 1.235 3.29 2.468 8.224-3.29 13.16-6.169 4.935-12.339 8.637-11.927 18.508.822 9.87 7.814 23.032 16.861 27.968 7.402 4.113 12.749 4.525 18.097 3.701 0 0 4.935 13.986 15.627 18.51 7.817 3.292 19.743 4.525 30.437-4.525 3.702-2.878 8.227-11.514 7.405-19.329 0 0-13.161 1.234-26.322-3.29-12.751-4.526-25.914-14.398-30.436-26.325-4.113-11.516-5.758-29.612 7.403-43.184 0 0-4.935-3.291-10.694-3.701-5.346-.413-11.928 2.054-13.984 7.812z" fill="#a71931"/><path d="m150.129 59.18c-3.701-6.991-11.106-16.45-23.856-15.629-3.701 0-9.047 2.468-10.693 4.934 0 0-6.169 0-10.282 1.235-5.758 1.234-11.927 4.934-15.628 11.927-4.113 7.403-5.757 12.748-5.757 19.743 0 9.871 5.345 22.209 14.805 28.79 1.645 1.235 2.056-.412 1.645-2.88-.413-2.467-2.056-13.572 2.88-23.854 5.755-11.927 16.039-19.329 27.144-22.62 6.582-2.468 15.63-2.468 19.743-1.644z" fill="#762432"/><path d="m127.921 64.939c-9.873 4.525-23.444 17.275-24.266 33.315-.822 14.395 5.346 23.033 24.676 23.855 19.33.823 38.251-12.339 39.073-12.75.822-.824.412-1.645-1.645-1.234-2.055.412-15.627 2.057-23.445 1.645-7.814 0-16.863-2.467-20.563-8.636-4.525-6.582-5.758-18.099 6.169-36.196z" fill="#a71931"/><path d="m158.354 69.464c5.347 6.169 4.525 14.806-.822 23.854-5.344 9.459-12.749 11.926-17.274 11.515-4.933-.412-6.992-1.234-9.048-2.056 0 0 8.637-.822 13.983-6.991 3.703-4.526 3.29-10.282 1.234-13.983-1.645-2.468-3.702-4.114-5.346-5.348-3.702-2.056-10.695-3.289-14.807-1.644 0 0 6.169-10.694 18.096-10.694 5.759 0 10.283 1.644 13.984 5.347z" fill="#a71931"/><path d="m126.686 76.455c-2.88 2.467-4.525 6.582-4.934 9.872-.412 4.525 1.235 8.637 4.934 10.695 3.701 2.055 10.284 1.232 13.161-1.647 3.29-2.879 3.29-6.58 2.878-7.814 0-2.056-1.644-4.113-4.521-3.291-2.059.413-4.113.413-5.347 0-1.647-.412-4.937-1.645-6.171-7.815z" fill="#a71931"/><path d="m173.571 51.367c5.346 2.879 6.169 8.637 4.524 14.805-1.645 6.169-2.468 8.638 1.646 13.984 3.701 5.346 2.056 12.75 0 16.04-2.468 2.879-7.405 8.636-17.274 9.46-9.868.823-11.516-.413-11.516-.413s6.993-4.524 11.927-13.162c3.292-5.347 4.936-11.928 3.292-18.097-2.467-8.636-11.518-11.104-15.628-11.104 0 0 2.056-7.815 7.814-10.693 5.758-2.465 11.925-2.465 15.216-.82z" fill="#762432"/><path d="m141.903 122.519c1.234 3.291 2.878 7.816 0 14.808-2.88 5.758-3.699 15.627 3.701 22.619 6.994 6.992 18.507 5.346 23.443 2.879 5.758-2.879 7.816-8.226 9.05-14.397.412-2.88 2.056-4.113 5.757-4.113 3.702-.411 10.695-1.234 15.629-9.048 3.7-6.168 5.344-14.806 1.234-20.975-4.113-6.994-15.628-8.637-20.565-8.227-2.881.412-4.935 1.235-6.994 2.881-1.644 1.646-12.747 11.929-31.255 13.572z" fill="#a71931"/><path d="m207.298 239.736c-5.344-8.636-10.282-17.684-20.977-27.967-9.46-9.461-19.742-15.217-34.958-17.685-2.057-.412-11.93-2.879-11.93-2.879h4.114c1.232-.411 2.466-.411 4.113-.823 9.048-2.057 15.628-3.291 23.441-3.291 7.406 0 26.325.412 41.953 19.745.412.411 1.646 2.878 1.234 3.29-.412.411-1.234.411-2.879.411 0 0 5.346 8.227 6.58 17.274.413 1.234 0 2.056-1.232 2.056-1.233 0-3.291-.412-3.291-.412s3.703 11.106 2.056 24.267c0 .822-.411 1.645-1.233 1.645.001 0-3.701-9.872-6.991-15.631z" fill="#304e35"/><path d="m83.501 291.148s.41-6.583 1.644-11.106c0 0 2.88-13.983-1.234-29.201-5.758-20.154-15.629-21.387-15.629-21.387s-1.647-.822-1.235-3.291c0 0 0 2.056 11.927 2.468 10.283.411 18.097 1.643 22.622 11.927 3.7 7.814 2.466 13.983 2.466 16.04 0 1.234-.822 1.645-1.644 1.234s-.822-.411-.822.822c0 1.645-.412 14.395-6.992 20.975-1.235 1.234-1.647.822-3.703-.822 0 0-4.935 9.462-5.758 11.518-.413.822-.822 1.233-1.233 1.233z" fill="#304e35"/><path d="m21.396 150.076s1.233-.824 2.057.411c1.233 1.234 3.289 3.292 7.814 4.936 3.29 1.233 6.58 2.055 11.927 2.467 6.992.411 17.684 3.292 23.853 7.405 4.113 2.468 10.693 9.46 12.749 16.04 1.234 4.523 1.647 9.872 1.234 12.75-.411 2.878-.822 8.225.824 11.105l-3.291-2.88s-2.881-2.876-13.573-9.871c-14.807-10.281-9.461-6.994-19.743-14.394-2.469-2.057-11.928-9.048-19.743-22.62-.818-.824-2.874-4.527-4.108-5.349z" fill="#304e35"/><path d="m141.903 266.47s-13.983-13.983-18.097-31.669c-5.343-21.797-15.216-27.144-15.216-27.144-1.233-1.233-2.056-3.29-.411-4.114 0 0 14.807-1.644 23.441 2.469 8.638 3.702 12.339 9.462 13.573 12.339.413 2.056.413 2.467-1.645 2.878-2.055 0-2.467.413-.411 2.057 2.055 1.644 7.815 7.405 9.05 13.161 0 2.056 0 2.056-1.646 2.056-1.233-.412-2.056 0-1.233 1.234.822 1.645 2.879 6.991 3.291 13.16 0 2.056 0 2.468-1.234 2.88-1.235.411-2.88 2.879-1.235 10.281.822 4.113 2.878 6.169 3.701 7.817.823.823.823 1.645.411 2.056 0 0-6.169-2.466-12.339-9.461z" fill="#304e35"/></g></svg>