<svg clip-rule="evenodd" fill-rule="evenodd" stroke-linejoin="round" stroke-miterlimit="2" viewBox="0 0 560 400" xmlns="http://www.w3.org/2000/svg"><circle cx="280.000294" cy="200.000294" fill="#7866d5" r="150.000294" stroke-width="2.11566"/><g fill="#fff" fill-rule="nonzero" transform="matrix(2.11566 0 0 2.11566 130 50)"><path d="m99.6 36.4c2.4.3 4.9.5 7.3.9 4.7.9 6.3 3.3 5.5 8.1-.2 1.8-1.6 3.2-3.4 3.5-1.1.2-2.3.3-3.4.2-15.6 0-31.1.1-46.7.1-2.3 0-4.7.2-7 .6-7.7 1.2-10.7 4.4-11.3 12.2-.3 3.6-.3 3.6 3.4 3.6h63.8c1 0 1.9.3 2.8.8 2.8 1.8 2.1 4.7 2 7.3-.1 2.1-1.4 3.3-3.6 3.7-.9.2-1.8.2-2.8.2h-63.6c-2.3 0-2.3 0-2.1 2.3.1 2.1.3 4.2.8 6.3 1 3.8 3.3 6.2 7.2 7.3 4.2 1.2 8.6 1.4 12.9 1.5h45.5c1.9 0 3.7.2 4.9 2 1.9 3 .9 6.9-2.1 8.8-.4.3-.8.5-1.3.6-3.3 1.1-6.7 1.3-10.2 1.4-14.3.3-28.5.3-42.7 0-4.4-.1-8.8-.6-13.1-1.5-10.1-2.1-15.2-7.3-16.9-17.5-.4-2.3-.6-4.7-.9-7.1v-18.6c.2-1.8.4-3.7.6-5.5 1.3-11.5 6.5-17.2 17.8-19.8 4-.9 8.2-1.1 12.2-1.5z"/><path d="m76.8 109.8c-7.2 0-14.3-.1-21.4-.2-4.5-.1-9-.6-13.4-1.6-10.9-2.3-16.5-8.1-18.3-18.9-.3-1.7-.5-3.4-.6-5-.1-.7-.2-1.4-.3-2.2v-19l.2-1.8c.1-1.3.3-2.5.4-3.7 1.4-12.3 7.2-18.6 19.3-21.3 3.2-.7 6.3-1 9.4-1.3 1-.1 2-.2 3-.3h44.8c.7.1 1.5.2 2.2.2 1.7.2 3.4.3 5.2.7 5.7 1.1 7.9 4.3 6.9 10.1-.3 2.5-2.3 4.6-5 5-1.2.2-2.4.3-3.7.3-15.5.1-31.1.2-46.6.2-2.2 0-4.5.2-6.7.6-6.9 1.1-9.2 3.6-9.8 10.6 0 .6-.1 1.2-.1 1.7h65.5c1.3 0 2.6.4 3.7 1 3.4 2.2 3.1 5.5 2.9 7.9 0 .3-.1.7-.1 1-.2 2.8-1.9 4.7-5 5.3-1.1.2-2.1.2-3.1.2h-63.9v.4c.1 2.1.3 4.1.8 6.1.8 3.1 2.7 5 5.9 5.9 4.3 1.2 8.7 1.4 12.5 1.4 11.8.1 23.8.1 35.5.1h10c1.5 0 4.6 0 6.4 2.9 1.2 1.9 1.5 4.1 1 6.2s-1.8 3.9-3.7 5.1c-.5.3-1.1.6-1.7.8-3.7 1.2-7.5 1.4-10.7 1.5-7.1 0-14.3.1-21.5.1zm-50.4-28.2c.1.7.2 1.4.2 2.1.2 1.6.4 3.2.6 4.8 1.6 9.4 6.1 14 15.5 16 4.2.9 8.5 1.4 12.8 1.5 14.1.3 28.5.3 42.7 0 2.9-.1 6.4-.3 9.6-1.3.3-.1.6-.3.9-.4 1-.7 1.8-1.7 2.1-2.9s.1-2.4-.6-3.5c-.6-.9-1.4-1.2-3.3-1.2h-10c-11.6 0-23.7 0-35.5-.1-4 0-8.7-.2-13.4-1.6-4.5-1.2-7.3-4.1-8.4-8.6-.5-2.2-.8-4.5-.8-6.7v-.1c-.1-1.4-.2-2.4.6-3.3s1.9-.9 3.3-.9h63.6c.8 0 1.7 0 2.5-.2 1.6-.3 2-1 2.1-2 0-.4.1-.7.1-1.1.2-2.5.2-3.7-1.2-4.6-.5-.3-1.2-.5-1.8-.5h-64c-2.2 0-3.5 0-4.5-1s-.8-2.4-.7-4.5c.7-8.6 4.3-12.5 12.8-13.8 2.4-.4 4.8-.6 7.3-.7 15.6 0 31.1-.1 46.7-.1 1.1 0 2.1 0 3.1-.2 1-.1 1.8-.9 1.9-1.9.7-4-.3-5.3-4.1-6.1-1.6-.3-3.2-.5-4.8-.6-.7-.1-1.5-.2-2.2-.2h-44.2c-1 .1-2 .2-3 .3-3.1.3-6 .5-9 1.2-10.5 2.6-15.1 7.7-16.3 18.5-.1 1.2-.3 2.4-.4 3.7l-.2 1.7z"/></g></svg>