<svg clip-rule="evenodd" fill-rule="evenodd" stroke-linejoin="round" stroke-miterlimit="2" viewBox="0 0 560 400" xmlns="http://www.w3.org/2000/svg"><g fill-rule="nonzero" transform="matrix(1.00579 0 0 1.00579 22.452 -57.5239)"><path d="m80.7 220.3c-2.4-1.3-9.2-.5-17.3 2-14.3 9.8-26.4 24.2-27.2 47.3-.2.6-1.6-.1-1.8-.2-3.9-7.4-5.4-15.2-2.2-26.4.6-1-1.4-2.2-1.7-1.9-.7.7-3.7 3.9-5.6 7.3-9.7 16.9-3.4 38.4 13.6 47.9s38.4 3.4 47.9-13.6c10.8-19.7.7-58.8-5.7-62.4z" fill="#82b541"/><path d="m141.5 229.7c-20.1 0-34.8 15-34.8 35.6 0 20.8 14.6 35.3 35.5 35.3 10.6 0 18.9-3.3 25.5-10.1 2-2.1 2.2-4.2 2.2-5 0-3.4-2.5-5.8-5.9-5.8-1.7 0-3.2.7-4.9 2.2-3.8 3.5-8.7 7.1-16.9 7.1-11.4 0-20.7-8.6-21.3-19.6h45.5c4.9 0 7.4-2.3 7.4-7.1 0-1.4 0-2.4-.3-4.4-2.5-17.6-14.4-28.2-32-28.2zm0 11.1c10.9 0 17.9 7 18.4 18.2h-39c1-10.4 9.8-18.2 20.6-18.2z"/><path d="m217.2 229.7c-9.2 0-18.2 5.3-21.8 12.6v-4.5c0-7-5.4-7.4-6.5-7.4-3.2 0-6.6 1.9-6.6 7.4v54.6c0 7.3 5.8 7.6 6.9 7.6 1.2 0 6.9-.4 6.9-7.6v-29.2c0-12.7 7.2-21.6 17.5-21.6 10 0 14.9 6.6 14.9 20.1v30.8c0 7.3 5.8 7.6 6.9 7.6s6.9-.4 6.9-7.6v-35.1c.1-13.5-6.5-27.7-25.1-27.7z"/><path d="m305.1 230.4c-3.2 0-5.5 1.9-6.9 5.5l-19 47.7-18.8-47.6c-1.5-3.7-3.8-5.5-7.1-5.5-3.8 0-6.9 3-6.9 6.6 0 .9.1 2.1.9 3.9l21.8 51.5c2.6 6.2 6.9 7.5 10 7.5s7.4-1.3 10-7.5l21.9-51.7c.7-1.8.9-3.1.9-3.8 0-3.8-2.9-6.6-6.8-6.6z"/><path d="m345.4 229.7c-8.9 0-17.1 2.5-23.2 6.9-2.1 1.4-3.1 3.2-3.1 5.5 0 3.1 2.4 5.5 5.4 5.5 1.3 0 2.8-.5 4.1-1.5 5.3-3.5 10.2-5.1 15.6-5.1 10.2 0 16.1 5.2 16.1 14.3v1.5c-23 0-46.4 2.8-46.4 22.8 0 14.4 12.3 20.9 24.5 20.9 9.7 0 17.5-3.8 22.5-11.1v3.5c0 5.2 3.5 7.1 6.5 7.1.6 0 6.2-.2 6.2-7.1v-36.7c0-16.6-10.6-26.5-28.2-26.5zm11.9 37.4h2.9v3.2c0 11.7-7.4 19.2-18.9 19.2-3.1 0-13.3-.7-13.3-10.1 0-11 16.7-12.3 29.3-12.3z"/><path d="m409.7 243c6.1 0 6.4-4.7 6.4-5.7 0-2.8-1.7-5.8-6.4-5.8h-12.5v-12.6c0-5.6-3.7-7.6-6.8-7.6-1.2 0-6.9.4-6.9 7.6v59.9c0 13.8 6.8 21.1 19.7 21.1 3.3 0 6.6-.6 8.7-1.6 2.4-1.2 3.8-3.2 3.8-5.5 0-3.2-2.3-5.5-5.5-5.5-.6 0-1.5.2-2.5.4-1.2.3-2 .4-2.9.4-5.2 0-7.7-3.4-7.7-10.8v-34.3z"/><path d="m455.5 229.7c-21 0-36.2 14.9-36.2 35.3 0 10 3.7 19.1 10.4 25.6 6.6 6.5 15.8 10 25.8 10 20.7 0 36.3-15.3 36.3-35.6 0-20.4-15.3-35.3-36.3-35.3zm0 59.2c-14.4 0-21.9-12-21.9-23.9 0-16.3 11.3-23.7 21.9-23.7 10.5 0 21.9 7.4 21.9 23.7 0 16.5-11.4 23.9-21.9 23.9z"/></g></svg>