<svg clip-rule="evenodd" fill-rule="evenodd" stroke-linejoin="round" stroke-miterlimit="2" viewBox="0 0 560 400" xmlns="http://www.w3.org/2000/svg"><g transform="matrix(1.35 0 0 1.35 145 71.2652)"><g fill-rule="nonzero"><path d="m43.5 132.7c.6 0 1 .3 1.1 1 .3 2.2-.1 3.3-1.3 3.3-5.8.2-11.6.4-17.4.6-.8 0-1.2.5-1.3 1.2-.5 4.6-1.6 9.8-1.6 14 0 .5.4.8 1.1.8 6.1-.5 12.3-.9 18.5-1.3.4 0 .6 0 .7.2 0 .1-.1.3-.4.4-1 1-1.6 1.4-2.6 2.4-.6.5-1.3.8-2.1.9-4.8.3-9.7.7-14.5 1.1-.8.1-1.2.5-1.3 1.2-.6 5-1.9 10.6-2.1 15.2 0 .7.4 1.1 1.1.9 6.7-1 13.3-1.9 20-2.7.4 0 .7 0 .7.2 0 .1-.1.3-.4.6-1.2 1.2-1.8 1.8-2.9 3-.6.7-1.4 1.2-2.2 1.3-11.5 1.9-23 4.1-34.3 6.9-.7.2-1.1-.2-1-1v-.4c2.4-14.3 4.8-28.6 6.8-43v-.5c-.1-.9-.6-1.9-1.6-3.1s-1.5-2-1.5-2.3c0-.4.2-.6.7-.6 12.4 0 25.1-.2 37.8-.3"/><path d="m92.2 134.1c1.7 1.1 2.8 2.5 3.2 4.1.1.5.2 1 .2 1.5v14.5c0 2-.9 3.7-2.8 5.2-1.8 1.4-4 2.2-6.6 2.3-5.8.2-11.5.4-17.3.7-.8 0-1.3.4-1.3 1.1v9.1c-.1.7-.5 1-1.3 1.1-5.3.5-10.6 1-16 1.6-.7.1-1.1-.2-1.2-.7 0-.1 0-.2-.1-.3.6-12.1.9-24.3 1.2-36.4v-.4c-.1-.7-.7-1.5-1.8-2.5-1-1-1.5-1.5-1.6-1.7-.1-.3.1-.5.6-.5 12.9-.1 25.9-.1 38.8-.2 2.3-.1 4.3.5 6 1.5m-15.2 23.2c0-6.7.1-13.3.1-20v-.2c-.1-.5-.6-.7-1.3-.7-2.7 0-4 0-6.6.1-.9 0-1.3.4-1.3 1 0 6.8-.1 13.5-.1 20.3v.3c0 .4.6.7 1.3.7 2.7-.1 4-.2 6.7-.3.8-.2 1.2-.6 1.2-1.2"/><path d="m147.9 140.2c.1 4.9.2 9.8.3 14.7 0 1.6-.7 3.2-2.2 4.5-1.5 1.4-5.2 2.4-5.3 2.7 0 .1 1.3 2.1 3.8 5.8 2.4 3.7 3.7 6.1 3.8 6.2.1.6-.1.8-.8.7-5.3-.5-10.6-1-15.9-1.4-.9-.1-1.5-.4-1.9-1.1-1.9-3.2-3.8-6.4-5.7-9.5-.4-.6-1-1-1.7-1-.8 0-1.2.3-1.2.9 0 3.6 0 5.4.1 9 0 .7-.5 1-1.3.9-5.3-.2-10.7-.4-16-.4-.7 0-1.2-.3-1.3-.7 0-.1-.1-.2-.1-.2 0-11.4.1-22.8.1-34.2 0-.1-.1-.2-.1-.4-.2-.7-.9-1.4-2-2.3-1.2-.9-1.8-1.4-1.8-1.5-.1-.3.1-.4.6-.4 13.4 0 26.8-.1 40.1-.1 2 0 3.8.6 5.4 1.8s2.6 2.7 3 4.5c0 .5.1 1 .1 1.5m-19 18.2c.9 0 1.3-.3 1.3-.9v-20.6c-.1-.5-.6-.8-1.3-.8h-6.6c-.9 0-1.3.3-1.3 1v20.3c0 .4.6.7 1.3.8 2.6 0 3.9.1 6.6.2"/><path d="m164.7 177.1c-2.2-.3-4.2-1.4-6-3s-3-3.5-3.5-5.5c-.2-.6-.2-1.2-.2-1.7-.5-9.7-.8-19.4-1.2-29.1 0-.1-.1-.3-.1-.5-.2-.7-.8-1.6-1.9-2.6s-1.6-1.6-1.7-1.8c-.1-.3.1-.4.6-.4 5.7 0 11.4 0 17.1-.1.6 0 1 .3 1.2 1 0 .1 0 .2.1.3 1.2 12.6 2.5 25.1 3.9 37.7 0 .2.1.3.1.4.2.8.7 1.2 1.4 1.3 2.6.3 3.8.5 6.4.8.9.1 1.2-.4 1-1.5-1.8-12.9-3.5-25.8-5-38.7-.1-.9.2-1.4 1-1.4 4.9 0 9.8 0 14.7-.1.7 0 1.1.4 1.3 1.2 0 .1.1.2.1.4 1.6 12.4 3.5 24.8 5.4 37.1.4 3 0 5.9-1.3 8.2-1.3 2.4-3.3 3.4-5.9 2.8-9.2-1.7-18.3-3.4-27.5-4.8"/></g><g fill="#be1e2d"><path d="m0 190.7c107.1-29 200-.8 200-.8s-98.6-16.1-200 .8z"/><path d="m95.4 95.1c2.1 1.2 4.2 2.4 6.3 3.6 3.5 2.1 7 4.1 10.5 6.2.8.5 1.4 2.7.8 3.5-.2.2-.6.3-.9.3-1.4.1-2.8.1-4.1.2-.4 0-.8.1-1.2.2-1.6.4-2.1 1.3-1.6 2.8.7 1.7 1.5 3.5 2.5 5 1.4 2.1 1.4 4.3.9 6.6-.2 1.2-.5 2.4-.9 3.5-.1.3-.6.8-1 .8-2.3.1-4.5.1-6.8 0-.3 0-.8-.4-.9-.8-.4-1.7-.5-3.3.5-4.9.5-.9.7-2 .7-3.1.3-3.8.5-7.6-.9-11.3s-2.6-7.6-3.9-11.3c-.1-.4-.2-.8-.3-1.2.2 0 .2 0 .3-.1z"/><path d="m154.1 72.2c1.4-1.3 2.5-2.5 3.7-3.5.3-.2.9-.3 1.2-.1 6 2 12.1 2.7 18.2 1.8 3.6-.5 7.1-1.4 10.6-2.2 1-.2 2.1-.5 3.1-.7.3-.1.9 0 .9.2.1.3.1.9-.1 1.1-1 .9-1.9 1.9-3.1 2.5-4 2.1-8.5 3-13 3.4-6.7.7-13.3-.3-19.8-1.9-.3-.1-.9-.3-1.7-.6z"/><path d="m168.3 67.4c1.8-.7 3.6-1.4 5.4-2.1 5.2-2 10.5-4.1 15.7-6.1.6-.2 1.2-.4 1.8-.6s1 .2.8.8c-.3 1-.7 2-1.3 2.9-1.4 2.1-3.5 3.4-5.8 4.3-4.5 1.8-9.3 1.8-14 1.4-.9-.1-1.7-.2-2.6-.3z"/><path d="m21.7 80.3v-8c0-.8.3-1.3 1.1-1.3.2 0 .7.4.7.6-.1 3.1 1.6 5.4 2.9 8 0 .1.1.1.1.2 1 1.7.8 1.6-.2 3.2s-1.8 3.4-2.6 5.1c-.2.3-.2.7-.4 1-.3.2-.7.4-1.1.4-.1 0-.4-.5-.4-.8-.2-2.9-.2-5.7-.1-8.4-.1 0 0 0 0 0z"/><path d="m21.4 123.6h-7.9c-.2 0-.6-.3-.6-.4.1-.5.1-1.1.4-1.4 1.5-1.4 3.4-1.8 5.3-1.1.7.2 1.4.6 2.1 1 .9.3 1.2 1 .7 1.9z"/><path d="m111.5 127.9c1.1-.6 2.1-1.3 3.2-1.9.8-.4 1.6-.5 2.4-.7 1.5-.3 2.5.2 3.3 1.5.4.8.1 1.5-.7 1.6-.5.1-.9 0-1.4 0h-6.6c0-.2-.1-.3-.2-.5z"/><path d="m69.7 127.8c1.5-1.3 3.2-2.5 5.3-2.6.6 0 1.3.1 1.9.4 1 .4 1.1 1.3.2 1.9-.5.4-1.1.7-1.7.8-1.9.1-3.8 0-5.7 0 .1-.2.1-.4 0-.5z"/><path d="m23.3 123.7c.5-.9.7-1.6 1.1-2.2.9-1.1 3.2-1.4 4.4-.9.9.4 1 1.1.9 1.9-.1.9-.6 1.1-1.5 1.1-1.4 0-3 .1-4.9.1z"/><path d="m79.6 121.9c.4.3 1 .4 1.2.8.6 1.1 1.2 2.3 1.5 3.5.2.9-.4 1.3-1.4 1.1-1.5-.3-1.7-.6-1.6-2.1 0-1 0-2 .1-3 0 .1 0 0 .2-.3z"/><path d="m153.5 66.3c-.2-.1-.4-.2-.4-.3-.1-.3-.1-.7-.1-1 .3 0 .7-.1.9.1 1.6.9 3.2 1.4 5 1.5 4.9.3 9.5-.8 14-2.6 4.1-1.6 7-4.4 8.6-8.5 2.4-6.2 2.5-12.6.4-18.9-1.1-3.4-2.5-6.7-4.6-9.7-2.2-3.1-3.4-6.5-4-10.2-.6-3.4.5-5.2 3.8-6.4.9-.3 1.7-.6 2.6-.9.9-.4 1.3-1.1 1-2-.3-.8-.3-2-1.7-1.8-1.1.1-2.2 0-3.3 0-1.1.1-1.4-.5-1.6-1.5-.1-1-.4-2.1-.7-3.1-.5-1.2-1.5-1.3-2.3-.3-.5.6-.8 1.4-1 2.2-.6 2.6-2 4.9-3.7 7-2.2 2.7-2.9 5.8-2 9.2 1.3 5.1 3.3 9.9 5.3 14.8.7 1.7 1.6 3.4 2 5.1.6 2.5.2 5-.5 7.5-1.3 4.5-5.4 6.2-9.4 3.9-1.2-.7-2.2-1.8-3.2-2.9-3.7-3.9-6.4-8.3-7.8-13.5-.3-1.2-.7-2.5-1.3-3.6-.7-1.4-1.5-2.9-3.3-3-2.6-.2-4.8-1.2-7-2.3-4.3-2.2-8.8-4-13.5-5-3.2-.7-6.6-1.2-9.7.3-2.9 1.4-6 2.7-8.6 4.6-2.9 2-5.8 3.1-9.2 2.5-3-.5-5.8-.3-8.6.8-.5.2-1.1.3-1.6.5-2 .6-4.1.6-6.2.3-4.1-.7-8.2-1.4-12.4-1.8-4.9-.5-9.9-.7-14.8 0-6.2.9-12.1 3-17.7 5.9-3 1.5-5.8 3.2-8.2 5.6-4.4 4.5-7.8 9.7-10.9 15.1-1.3 2.2-2.5 4.4-3 6.9-1.2 6.1-1 12.3-.8 18.5.1 2.2.2 4.4.3 6.6.3 6.1-1.5 11.5-4.7 16.6-.6 1-.9 1.9-.9 3.1.1 3.7 0 7.4 0 11.2 0 2.6 0 2.6 2.5 3.6.8.3 1.3.2 1.9-.2 1.6-1 3.4-1.6 5.4-1.4.9.1 1.7.4 2.2 1.3.4.7 1.4.9 1.8.3.9-1.4 2.3-1.3 3.7-1.4 1.1-.1 1.5-.6 1-1.7-.3-.7-.8-1.3-1.1-1.9-1-1.8-1.6-3.6-.9-5.6.5-1.7 1.1-3.3 1.5-5 .2-.9.7-1.3 1.5-1.7 3.1-1.6 6.2-3.2 9.3-4.9 1.7-.9 3.3-2.1 5.1-3.3-5-3.9-9.9-7.7-14.9-11.7-1.9 3.6-3.6 7.1-5.4 10.5-.1 0-.2-.1-.3-.1-3-9.1-4.3-18.3.4-27.6.4.5.7.9.9 1.3.7 1.9 1.5 3.8 2.2 5.8 1.3 3.6 3.4 6.7 5.8 9.5 3.5 4 7.3 7.6 11.9 10.1 3.1 1.7 6 3.4 7.6 6.8 0 .1.1.2.2.3 3.3 4.5 5.4 9.5 5.5 15.2 0 .5.4 1.1.7 1.4 2.1 2.2 4.1 4.4 4.8 7.5.3 1.3.4 2.6.6 4 1.3 0 2.6.1 3.9 0 .6 0 1.3-.3 1.6-.7 1.7-1.8 3.6-3.2 6.2-3.2.9 0 2.2.2 2.7-.3.6-.5.5-1.8.7-2.7.2-.8.1-1.6-.4-2.3-1.4-2.1-2.9-4.2-4.2-6.4-.6-1-1.1-2.3-1.2-3.4-.2-3.2-.3-6.4-.3-9.6-.1-4.9-.2-9.7-1.4-14.5-.5-1.9-1-3.7-1.6-5.9.4.3.5.4.7.5 1.5 1.6 2.8 3.4 3.1 5.6.5 3 .8 6 1.1 9.1.1.7.2 1.1 1 1.1 1.4-.1 2.8.1 4.1-.2 3.8-.9 7.6-2.1 11.4-3.1.6-.2.7-.6.6-1.1-.1-1.5-.3-3.1-.3-4.6 0-.3.4-.6.5-.9.3.2.7.4.7.6.4 1.1.8 2.3 1 3.5.2.8.5 1.3 1.2 1.8 6.9 4.2 13.9 8.5 20.8 12.8 1.2.7 1.6 1.6 1.7 2.9.1 3.4-.8 4.3-4.2 4.3-1.3 0-2.6 0-3.8.2s-1.4.8-.9 1.8c.3.6.7 1.1 1.1 1.6 1 1.3 2 2.7 2 4.5 0 1.7 0 3.5-.1 5.2v1.1c.8-.3 1.4-.6 2-.8 2.5-.6 5-1.2 7.5-1.9.4-.1.8-.3 1.1-.5.8-.7 1.6-1.5 2.3-2.3 3.4-3.5 6.4-7.3 7.6-12.2 1-4 .8-7.8-1.8-11.2-1.6-2.1-3-4.4-4.7-6.4-1.8-2.2-3-4.5-2.9-7.4.1-2.4 0-4.8.1-7.2 0-2.8 0-2.8-2.8-3.3-1.7-.3-3.6-.6-5.1-1.4-3.5-1.8-6.7-4-10.1-6-2.4-1.4-3.5-3.4-3.4-6.2v-2.8c.1-2.8.1-5.6-.5-8.4-.4-2-.8-4.1-1-6.2-.2-1.5 0-3 1.2-4.1.8-.8 1.5-1.6 2.2-2.4 1.2-1.4 2.3-3 3.6-4.4 5.7-6.2 12.7-9.2 21.2-7.7 1.6.3 3.2 1 4.7 1.7.7.3 1.2 1 .9 1.8-.3.9-1.2.8-1.9.7-1.2-.2-2.3-.6-3.5-.9-3.3-1-6.5-1.8-10-.5-3.4 1.3-6.6 2.8-8.8 5.8-1.9 2.6-3.8 5.2-5.8 7.7-1 1.2-1.2 2.4-.9 3.9.1.6.2 1.3.3 1.9.8 3.7 1.4 7.4 1.2 11.3-.1 1.1.1 2.1.1 3.2 0 1.7.9 2.9 2.3 3.8 4.6 3.2 9.8 5.3 14.9 7.7 1.8.8 3.6.9 5.5.9 3.4-.1 6.7-.3 10 .9 2.3.8 4.6 1 7 .8.7-.1 1.3-.5 2-.7-.4-.5-.9-1-1.3-1.6-.3-.4-.5-.9-.7-1.4.5-.1 1-.4 1.4-.3 1.6.5 3.3 1.2 4.9 1.8 2.1.9 3.4.5 4.8-1.4 1.1-1.5 1.5-2.8-.4-3.6zm-9.6-17.7c-.3.1-.8.1-.9.1-2 0-3-.9-2.8-2.3 0-.2.5-.6.7-.6 1.1.3 2.3.7 3.4 1.1.3.1.7.7.6.9-.2.4-.6.6-1 .8z" fill-rule="nonzero"/></g></g></svg>