<svg clip-rule="evenodd" fill-rule="evenodd" stroke-linejoin="round" stroke-miterlimit="2" viewBox="0 0 560 400" xmlns="http://www.w3.org/2000/svg"><g transform="matrix(1.5625 0 0 -1.5625 -165.326 898.369)"><g fill="#00549f"><path d="m151.21 473.859v-5.543h-17.118v-4.009h15.828v-5.579h-15.863v-3.905h17.502v-5.578h-26.287v24.614z" fill-rule="nonzero"/><path d="m154.031 473.859h11.68l6.206-16.073 6.205 16.073h11.644v-24.614h-8.715v15.758l-5.823-15.758h-6.798l-5.753 15.689v-15.689h-8.646z" fill-rule="nonzero"/><path d="m201.896 464.48h8.263c1.324 0 1.604.105 1.848.209.662.245 1.08.837 1.08 1.779 0 .697-.313 1.255-1.115 1.603-.349.175-.942.209-1.778.209h-8.298zm-.035-9.621h8.926c.871 0 1.499.034 1.882.209 1.151.418 1.36 1.289 1.36 2.126 0 .941-.453 1.569-1.186 1.778-.557.174-1.15.174-2.23.174h-8.752zm-8.82 18.999h20.639c1.709-.034 4.045-.069 5.752-1.289 1.778-1.291 2.093-3.382 2.093-4.498 0-3.067-1.743-4.776-4.742-5.508 1.464-.209 3.242-.488 4.602-1.917 1.046-1.117 1.395-2.371 1.395-4.115 0-3.416-1.987-5.438-4.428-6.38-2.057-.767-4.463-.906-6.38-.906h-18.931z" fill-rule="nonzero"/><path d="m234.212 463.783h6.624c1.36 0 3.591.035 3.591 2.231 0 .558-.174 1.151-.628 1.569-.697.628-1.603.698-2.266.698h-7.321zm-8.821 10.076h18.094c2.162-.035 4.811-.07 6.869-1.569 1.778-1.36 2.893-3.765 2.893-6.241 0-1.742-.558-3.452-1.569-4.672-1.394-1.673-3.067-2.021-4.113-2.301l6.17-9.831h-9.761l-5.056 8.96h-4.706v-8.96h-8.821z" fill-rule="nonzero"/><path d="m262.728 473.859 4.08-7.391c.627-1.291.731-1.5 1.289-2.824.592 1.359.732 1.743 1.5 3.311l3.834 6.904h10.18l-11.156-17.293v-7.321h-8.716v7.321l-11.295 17.293z" fill-rule="nonzero"/><path d="m299.332 463.783h6.624c1.36 0 3.591.035 3.591 2.231 0 .558-.174 1.151-.628 1.569-.696.628-1.603.698-2.265.698h-7.322zm-8.82 10.076h18.094c2.161-.035 4.811-.07 6.868-1.569 1.778-1.36 2.894-3.765 2.894-6.241 0-1.742-.558-3.452-1.569-4.672-1.394-1.673-3.068-2.021-4.115-2.301l6.171-9.831h-9.761l-5.055 8.96h-4.707v-8.96h-8.82z" fill-rule="nonzero"/><path d="m320.806 449.246h8.821v24.614h-8.821z" fill-rule="nonzero"/><path d="m341.819 454.823h3.87c2.999 0 4.707.559 5.718 1.464 1.185 1.047 1.987 3.103 1.987 5.195 0 2.336-.941 4.114-2.196 5.125-1.534 1.22-3.626 1.394-5.265 1.394h-4.114zm-8.611 19.036h13.98c2.545 0 9.693.139 13.109-5.823.523-.905 1.708-3.067 1.708-6.728 0-1.918-.348-3.87-1.116-5.613-.627-1.43-1.778-3.417-4.601-4.881-2.65-1.394-5.09-1.569-7.461-1.569h-15.619z" fill-rule="nonzero"/><path d="m372.776 454.823h3.869c2.999 0 4.708.559 5.718 1.464 1.186 1.047 1.988 3.103 1.988 5.195 0 2.336-.942 4.114-2.197 5.125-1.534 1.22-3.625 1.394-5.265 1.394h-4.113zm-8.611 19.036h13.98c2.545 0 9.692.139 13.109-5.823.522-.905 1.707-3.067 1.707-6.728 0-1.918-.348-3.87-1.115-5.613-.628-1.43-1.778-3.417-4.602-4.881-2.65-1.394-5.09-1.569-7.461-1.569h-15.618z" fill-rule="nonzero"/><path d="m403.941 473.859v-18.617h12.551v-5.997h-21.406v24.614z" fill-rule="nonzero"/><path d="m444.66 473.859v-5.543h-17.118v-4.009h15.828v-5.579h-15.863v-3.905h17.501v-5.578h-26.287v24.614z" fill-rule="nonzero"/><path d="m291.613 463.784h-9.671l-3.476-5.584h13.147z"/></g><g fill="#a29061" fill-rule="nonzero"><path d="m136.543 439.006c-.131.314-.288.629-.42.944-.078.236-.157.471-.209.707-.079-.236-.158-.497-.263-.76-.13-.341-.288-.655-.446-.996l-3.906-7.681h9.15zm-1.966 4.037h2.779l9.489-18.534h-3.015l-2.254 4.562h-11.377l-2.255-4.562h-2.936z"/><path d="m159.846 432.478c-.314.813-1.258 3.382-4.954 3.382-3.906 0-4.981-2.648-5.295-3.382zm2.543-4.246c-.471-.918-.891-1.73-2.176-2.622-1.939-1.311-4.273-1.494-5.4-1.494-4.063 0-7.838 2.229-7.838 6.868 0 3.985 3.067 6.738 7.76 6.738 4.744 0 7.812-3.068 7.917-7.105h-13.134c.105-.787.236-1.651.944-2.516.97-1.207 2.752-1.992 4.666-1.992 1.154 0 2.359.314 3.303.943.891.603 1.206 1.18 1.573 1.835z"/><path d="m164.302 437.302h2.491v-1.442c1.835 1.756 4.351 1.809 4.928 1.809.655 0 .97-.079 1.495-.184v-2.464c-.656.184-1.101.315-1.967.315-.812 0-1.599-.105-2.255-.34-2.175-.813-2.175-2.57-2.175-3.54v-6.946h-2.517z"/><path d="m175.836 430.827c0-2.726 2.412-4.64 6.003-4.64 2.989 0 5.689 1.757 5.689 4.666 0 2.962-2.595 4.771-6.003 4.719-3.723-.053-5.689-2.281-5.689-4.745m5.82 6.789c4.456.027 8.389-2.175 8.389-6.763 0-4.352-3.802-6.737-8.337-6.737-5.374 0-8.388 2.831-8.388 6.554 0 4.194 3.512 6.92 8.309 6.946z"/><path d="m194.212 435.755c.577.498 1.023.891 2.124 1.311 1.074.419 2.227.629 3.564.629 2.255 0 4.483-.655 5.768-2.254.996-1.258 1.022-2.622 1.022-4.012v-6.92h-2.465v6.763c-.025 1.128-.051 2.308-1.231 3.251-1.154.944-2.648 1.022-3.513 1.022-.839 0-1.73-.078-2.831-.55-2.412-1.075-2.438-3.041-2.438-4.404v-6.082h-2.491v12.793h2.491z"/><path d="m215.969 430.565c-1.468 0-2.83-.026-3.643-.341-.918-.34-1.338-1.022-1.338-1.757 0-1.179 1.022-2.516 3.67-2.516.42 0 2.622.053 4.194 1.101 1.678 1.127 1.784 2.569 1.784 3.513zm-6.632 3.88c.55 1.494 1.206 3.25 6.894 3.25 1.128 0 2.7-.131 3.88-.445 2.857-.787 2.857-2.622 2.857-4.037v-4.64c0-1.704 0-2.412 1.416-2.412.315 0 .629.053.944.078v-1.703c-.813-.079-1.547-.157-2.202-.157-2.229 0-2.36 1.258-2.465 2.175-.314-.472-.655-.97-1.73-1.572-1.1-.577-2.674-.945-4.352-.945-5.268 0-6.081 2.989-6.081 4.404 0 1.573.865 3.12 2.936 3.671 1.31.34 3.828.366 5.558.366h3.617c.027 1.364.027 2.386-1.337 2.962-.524.237-1.494.446-2.883.446-1.075 0-2.149-.079-3.12-.472-.943-.366-1.206-.812-1.416-1.205z"/><path d="m226.428 437.302h2.465v-6.475c0-1.389.051-2.438.812-3.25.865-.944 2.412-1.311 3.906-1.311 2.91 0 4.43 1.441 4.85 2.123.445.708.445 1.442.445 2.15v6.763h2.491v-12.792h-2.438v1.599c-1.023-.865-2.438-2.045-5.637-2.045-1.205 0-2.7.21-3.905.734-2.989 1.337-2.989 3.67-2.989 5.767z"/><path d="m245.957 441.706h2.464v-4.378h3.592v-1.73h-3.618l-.026-6.869c.026-1.284 0-2.228 1.756-2.228.603 0 1.127.079 1.809.21v-2.202c-.812-.078-1.625-.184-2.464-.184-3.513 0-3.486 1.757-3.513 3.697v7.602l-2.202-.026v1.73h2.202z"/><path d="m254.843 437.302h2.491v-12.792h-2.491zm-.025 4.667h2.464v-2.517h-2.464z"/><path d="m275.946 427.917c-.471-.813-.76-1.311-1.599-1.992-1.887-1.494-4.326-1.861-6.187-1.861-1.389 0-2.804.157-4.115.628-2.805 1.023-4.326 3.304-4.326 6.266 0 4.325 3.775 6.711 8.52 6.711 1.363 0 3.487-.236 5.164-1.311 1.416-.891 2.019-1.887 2.412-2.595l-2.385-.682c-.236.394-.577 1.022-1.468 1.599-.734.473-2.045.997-3.723.997-2.91 0-5.872-1.6-5.872-4.929 0-2.936 2.595-4.719 5.872-4.719 1.18 0 2.648.263 3.775.944.839.524 1.18.997 1.547 1.547z"/><path d="m284.858 430.565c-1.468 0-2.83-.026-3.643-.341-.918-.34-1.338-1.022-1.338-1.757 0-1.179 1.022-2.516 3.67-2.516.42 0 2.622.053 4.194 1.101 1.679 1.127 1.784 2.569 1.784 3.513zm-6.632 3.88c.55 1.494 1.206 3.25 6.895 3.25 1.127 0 2.699-.131 3.879-.445 2.857-.787 2.857-2.622 2.857-4.037v-4.64c0-1.704 0-2.412 1.416-2.412.315 0 .629.053.944.078v-1.703c-.813-.079-1.547-.157-2.202-.157-2.229 0-2.36 1.258-2.464 2.175-.315-.472-.656-.97-1.731-1.572-1.101-.577-2.673-.945-4.352-.945-5.268 0-6.081 2.989-6.081 4.404 0 1.573.865 3.12 2.936 3.671 1.31.34 3.827.366 5.558.366h3.617c.027 1.364.027 2.386-1.337 2.962-.524.237-1.494.446-2.883.446-1.075 0-2.149-.079-3.12-.472-.943-.366-1.206-.812-1.416-1.205z"/><path d="m296.419 424.509h2.464v18.508h-2.464z"/><path d="m315.633 443.017v-10.984c.026-2.15.236-3.408 1.835-4.43.681-.446 2.149-1.258 5.086-1.258 1.782 0 3.355.34 4.378.812 2.385 1.074 2.385 2.988 2.385 4.535v11.325h2.647v-11.115c0-1.862 0-4.405-2.83-6.24-1.285-.838-3.356-1.598-6.606-1.598-2.412 0-4.851.393-6.842 1.783-2.622 1.808-2.701 4.193-2.701 6.291v10.879z"/><path d="m336.708 435.755c.577.498 1.023.891 2.124 1.311 1.075.419 2.228.629 3.565.629 2.255 0 4.482-.655 5.767-2.254.996-1.258 1.022-2.622 1.022-4.012v-6.92h-2.464v6.763c-.026 1.128-.052 2.308-1.232 3.251-1.153.944-2.647 1.022-3.513 1.022-.838 0-1.729-.078-2.83-.55-2.412-1.075-2.439-3.041-2.439-4.404v-6.082h-2.49v12.793h2.49z"/><path d="m351.729 437.302h2.49v-12.792h-2.49zm-.026 4.667h2.463v-2.517h-2.463z"/><path d="m358.466 437.302 5.085-10.276 5.165 10.276h2.804l-6.58-12.792h-2.778l-6.449 12.792z"/><path d="m384.05 432.478c-.314.813-1.258 3.382-4.954 3.382-3.906 0-4.981-2.648-5.295-3.382zm2.544-4.246c-.473-.918-.891-1.73-2.177-2.622-1.939-1.311-4.272-1.494-5.399-1.494-4.064 0-7.839 2.229-7.839 6.868 0 3.985 3.068 6.738 7.76 6.738 4.744 0 7.812-3.068 7.916-7.105h-13.133c.105-.787.236-1.651.943-2.516.971-1.207 2.753-1.992 4.667-1.992 1.154 0 2.359.314 3.303.943.891.603 1.205 1.18 1.572 1.835z"/><path d="m388.506 437.302h2.49v-1.442c1.835 1.756 4.352 1.809 4.929 1.809.655 0 .97-.079 1.493-.184v-2.464c-.655.184-1.1.315-1.965.315-.813 0-1.599-.105-2.255-.34-2.176-.813-2.176-2.57-2.176-3.54v-6.946h-2.516z"/><path d="m399.227 428.127c.813-.63 2.569-1.992 6.423-1.992.892 0 2.254.104 3.146.419.785.288 1.441.813 1.441 1.652 0 1.205-1.52 1.468-2.018 1.546-.734.105-4.352.367-5.164.472-1.469.131-4.772.498-4.772 3.513 0 3.722 4.85 4.064 7.105 4.064 4.588 0 6.842-1.784 7.445-2.387l-2.177-1.205c-1.258.865-3.066 1.494-5.452 1.494-.97 0-1.992-.026-2.909-.393-.839-.315-1.258-.813-1.258-1.364 0-1.205 1.703-1.389 3.224-1.546 1.258-.157 2.516-.21 3.774-.341.709-.052 1.389-.131 2.045-.288.498-.131 2.805-.734 2.805-3.408 0-3.251-3.487-4.326-7.052-4.326-3.172 0-6.606.708-8.755 2.675z"/><path d="m415.06 437.302h2.49v-12.792h-2.49zm-.025 4.667h2.463v-2.517h-2.463z"/><path d="m421.981 441.706h2.464v-4.378h3.591v-1.73h-3.617l-.026-6.869c.026-1.284 0-2.228 1.755-2.228.604 0 1.128.079 1.81.21v-2.202c-.813-.078-1.626-.184-2.464-.184-3.514 0-3.487 1.757-3.514 3.697v7.602l-2.201-.026v1.73h2.201v4.378z"/><path d="m429.111 437.328h2.831l5.006-10.328 5.191 10.328h2.779l-7.235-14.051c-.839-1.625-1.757-3.224-4.744-3.224-1.023 0-1.993.157-3.042.314v2.229c.813-.158 1.757-.367 2.621-.367 1.836 0 2.438.996 3.094 2.202z"/></g></g></svg>