<svg clip-rule="evenodd" fill-rule="evenodd" stroke-linejoin="round" stroke-miterlimit="2" viewBox="0 0 560 400" xmlns="http://www.w3.org/2000/svg"><g fill-rule="nonzero" transform="matrix(.733787 0 0 .733787 22.0005 27.7701)"><path d="m522.1 204.2c-10-.2-17.5 6.7-27.1 7.4-2 .7-3.5 1.1-4.8 1.4-1.6-14.4 5-48.8-12.2-37.3-9.9 6.7.5 35.5-1.2 46.9-1.7 11.5-.3 8.9 2.5 16 5 13-5.9 17.7-5 24.7 1 7.1 13 11.9 19.9 10.6 33.7 2.4 62.9-10.9 62.4-36.4-.3-15.8-16.8-32.9-34.5-33.3m-22.2 53c.5-11.1-6.8-16.2-3.7-27.1 4.5-16.1 40.4-18.1 45.6-1.2 6.4 20.5-22.5 43.5-41.9 28.3" fill="#f4a214"/><path d="m373.1 219.7c12.2-9.1 9.6-25-1.2-32-10.7-7-55-13.4-50.6 4.9 14 6.5 41-5 45.6 12.3-1.7 11.5-14.1 12.2-28.4 11.1.9-7.5-1.6-11.5-1.2-18.5-4.9-1.1-6.2-1.1-11.1 0-2.8 16.5-.4 38.2-1.2 56.7-.6 5.1-6.2 5.3-4.9 12.3.9 3.3 8 10.2 11.1 9.9 15.2-1.9 47-6.1 54.3-22.2 6.8-15.1-1.7-29.8-12.4-34.5m-33.3 39.5c-4.5-8 3.1-20.5-1.2-28.4 11.7-1.3 27.9-2.7 34.5 6.2 1.3 19.7-16.7 20.3-33.3 22.2" fill="#254c9e"/><path d="m256.4 207.9c-3.4 1.1-5.3 3.8-8.6 4.9-43.1-2.3-34.1 57-6.2 61.7 18 3 38-10.2 48.1-24.7-5.2-19.9-6.9-43.2-33.3-41.9m-12.3 51.8c-10.1-2.2-17.2-16.7-12.3-25.9 4.6-8.7 20.7-3.3 28.4-11.1 11.2 1.1 11.3 13.3 12.3 24.7-7.2 6-16.4 14.8-28.4 12.3" fill="#b23f24"/><path d="m464.6 208.5c-5.4-2.3-15.4-2.4-14.8 4.9-10.1-5.3-31.9-4.5-41.9 2.5-6.2 4.3-12.9 15.9-13.6 22.2-2.9 28.3 33.1 46.9 59.2 29.6 2.2 5.6 7.4 9.2 14.8 6.1 1.8-6.2-.5-12.8-2.5-18.5 3.9-14.7-3.8-31-1.2-46.8m-41.9 54.2c-21.4-5-19.4-43.7 7.4-40.7 7.6.9 11 8.6 19.7 8.6 9.6 18.7-7.8 36.7-27.1 32.1" fill="#8268ab"/><path d="m85.4 212.9c6.2-.9 14.4.9 16.5 4v3.7c-1.4 5-8.8 5.5-14.8 4.9-5.4.6-12.1-.6-14.5-1.2-6.3-9.8 4.1-12.5 12.8-11.4m-11.6-29.3c-2.1.3-6.7 2.7-8.6 2.5-1.2-.1-7.1-6.8-11.1-3.7-.6 1.5-1.3 2.8-2.5 3.7 4.7 21.2 3.7 48.1 3.7 74-.5 5.2-5.8 6.8-2.5 12.4 6.3 4.8 18 1 27.1 0 9-1 24.7 1.4 23.4-11.1-8.6-8.5-26 2-35.8-2.5 3.3-19.8.2-49.2-1.2-64.1 10.7 2 28.8 2 39.5 0 .5-4.3-.5-6.9-1.2-9.9-9.7-1.3-20.6-2.6-30.8-1.3" fill="#861566"/><path d="m223.9 205.9c-13.2-4.4-19.1 5.3-28.4 8.6 1.5-9.6-11.2-10.9-14.8-4.9 5.2 21.6-3.9 40.6 0 62.9h13.6c2.3-15.9.2-33.5 7.4-43.2 4.9-6.7 14.4-7.5 21-12.3 1-3 1.5-6.6 1.2-11.1" fill="#e096be"/><path d="m163.5 218.1c-6 14.5-4.5 36.6-22.2 39.5-17.9-7.4-7.3-40.2-13.6-56.7h-6.2c-.2-.1-.4-.1-.7-.1-1.7 0-3.1 1.4-3.1 3-6.9 34.1 4.3 80.5 40.8 58.7-1 7.1 1.2 11.1 8.6 9.9 5.5-8.6 1.9-22.8 3.7-35.8.8-5.8 4.3-10.6 2.5-16-3.6-.4-4.3-3.8-9.8-2.5" fill="#00a84e"/><path d="m620.6 219.5c1.8-2.6 1.1-6.2-1.5-8s-6.2-1.1-8 1.4c-8.6 12.5-14.3 28.1-21.9 40.1-.1.1-.1.3-.2.4l-.1-.1c-1.7.1-3.1-.1-4.2-.7-5.3-5.8-7.7-15.2-11.4-24.8-.2-.5-.4-1-.8-1.4l.3-.2c-1.7-19.1-22.2-3.6-9.9 7.4l.1-.1c3.1 8.2 5.6 18.6 13.2 27.1.1.1.2.2.3.2.1 6.7 4.9 4.2 4.9 9.8.1 7.5-18.2 19.2-7.4 24.7 7.7 3.9 8.9-8.6 13.6-14.8 5.5-7.2 13.1-9.3 11.1-21l-.1-.1c.1-.1.2-.2.3-.4 8.4-13.3 14.3-28.9 21.7-39.5" fill="#76b4e2"/><path d="m651.6 216.2c0 5-3.9 8.9-9 8.9-5 0-9.1-3.9-9.1-8.9 0-4.9 4-8.8 9.1-8.8s9 3.9 9 8.8m-15.8 0c0 3.9 2.9 7 6.9 7 3.9 0 6.7-3.1 6.7-7s-2.8-7.1-6.8-7.1c-3.9.1-6.8 3.2-6.8 7.1m5.4 4.6h-2v-8.8c.8-.2 1.9-.3 3.4-.3 1.7 0 2.4.3 3.1.6.5.4.9 1.1.9 1.9 0 1-.7 1.7-1.8 2v.1c.9.3 1.3 1 1.6 2.1.3 1.3.4 1.9.6 2.2h-2.2c-.3-.3-.4-1.1-.7-2.1-.2-1-.7-1.4-1.8-1.4h-1zm.1-5h1c1.1 0 2-.4 2-1.3 0-.8-.6-1.3-1.9-1.3-.5 0-.9.1-1.1.1z" fill="#616768"/></g></svg>