<svg clip-rule="evenodd" fill-rule="evenodd" stroke-linejoin="round" stroke-miterlimit="2" viewBox="0 0 560 400" xmlns="http://www.w3.org/2000/svg"><g fill="#1d1d1b" fill-rule="nonzero" transform="matrix(1.84495 0 0 1.84495 96.9994 155.022)"><path d="m2.85 17.19v-6.48h6.47l.73-2.02h-7.2v-6.35h8.05l.73-2.02h-10.99v18.89h10.73l.74-2.02z"/><path d="m48 33.23c-.2.56-.41 1.29-.55 1.81-.14-.52-.36-1.25-.56-1.81l-5.15-14.18h-2.36l7 18.77v.12h2.17l7-18.89h-2.34z" transform="translate(-19.31 -18.73)"/><path d="m57.11 17.19h-9.26v-6.48h6.47l.74-2.02h-7.21v-6.35h8.05l.74-2.02h-10.99v18.89h10.73z"/><path d="m89 30.15h4.35l4.19 7.79h2.52l-4.14-7.74-.36-.57c2.143-.761 3.545-2.849 3.44-5.12.146-2.101-1.011-4.089-2.91-5-1.132-.425-2.344-.599-3.55-.51h-5.7v18.94h2.16zm7.67-5.59c.01.102.014.204.014.306 0 1.794-1.476 3.27-3.27 3.27-.068 0-.136-.002-.204-.006h-4.21v-7.06h3.55c.869-.079 1.743.066 2.54.42 1.066.638 1.68 1.831 1.58 3.07" transform="translate(-19.31 -18.73)"/><path d="m124.49 8.74h-10.35v-8.42h-2.21v18.89h2.21v-8.45h10.35v8.45h2.2v-18.89h-2.2z"/><path d="m140.73 10.71h6.47l.74-2.02h-7.21v-6.35h8.05l.74-2.02h-10.99v18.89h10.72l.74-2.02h-9.26z"/><path d="m185.68 19.05h-6.17v18.89h6.17c5.85 0 9.49-3.62 9.49-9.46s-3.64-9.43-9.49-9.43m-4 2h3.78c4.62 0 7.38 2.77 7.38 7.41s-2.76 7.44-7.38 7.44h-3.78z" transform="translate(-19.31 -18.73)"/><path d="m50 60.42c0 3.06-1.58 5-4.71 5s-4.68-1.88-4.68-4.91v-12.26h-2.19v12.25c0 4.16 2.57 7 6.94 7s6.89-2.8 6.89-7v-12.25h-2.25z" transform="translate(-19.31 -18.73)"/><path d="m40.09 31.54h5.94v16.87h2.2v-16.87h5.92v-2.02h-14.06z"/><path d="m73.37 37.94h-9.99v-8.42h-2.21v18.89h2.21v-8.44h9.99v8.44h2.2v-18.89h-2.2z"/><path d="m85.5 39.91h6.11l.74-2.02h-6.85v-6.35h7.69l.74-2.02h-10.63v18.89h10.37l.74-2.02h-8.91z"/><path d="m130 58.83c2.135-.766 3.526-2.855 3.41-5.12.126-2.081-1.028-4.041-2.91-4.94-1.131-.429-2.343-.607-3.55-.52h-5.65v18.9h2.2v-7.8h4.35l4.19 7.8h2.52l-4.18-7.75-.36-.57m1.15-5.07c.01.102.014.205.014.307 0 1.794-1.476 3.27-3.27 3.27-.071 0-.143-.002-.214-.007h-4.2v-7.06h3.55c.87-.081 1.745.067 2.54.43 1.068.631 1.684 1.823 1.58 3.06" transform="translate(-19.31 -18.73)"/><path d="m124.19 29.52h-2.21v18.89h9.89l.74-2.02h-8.42z"/><g transform="translate(-19.31 -18.73)"><path d="m163.8 48.25-6.94 18.9h2.34l2.11-5.9h7.17l2.13 5.9h2.39l-7-18.9zm4 11h-5.8l2.37-6.45c.2-.53.41-1.28.56-1.81.14.53.36 1.28.55 1.81z"/><path d="m191.79 61.77c0 .53 0 1.22.08 1.74-.32-.54-.78-1.32-1.15-1.86l-9.09-13.32-.06-.08h-2.06v18.9h2.21v-13.52c0-.53-.05-1.22-.09-1.74.32.54.78 1.31 1.15 1.85l9.09 13.32.06.09h2.07v-18.9h-2.2z"/><path d="m208.25 48.25h-6.17v18.9h6.17c5.85 0 9.48-3.63 9.48-9.47s-3.63-9.43-9.48-9.43m-4 2h3.78c4.63 0 7.39 2.77 7.39 7.41s-2.76 7.44-7.39 7.44h-3.78z"/><path d="m115.42 27.41c-2.11-.9-3.94-1.67-3.94-3.56 0-1.47 1.39-3 3.7-3 1.443.037 2.829.575 3.92 1.52l.17.17.79-2.16c-1.38-1.111-3.109-1.699-4.88-1.66-3.34 0-6 2.27-6 5.17 0 3.15 2.71 4.32 5.1 5.35 2.13.92 4.14 1.78 4.14 3.86 0 1.78-1.43 3-3.49 3-1.761-.058-3.438-.771-4.7-2l-.15-.16-.81 2.22c1.566 1.323 3.56 2.034 5.61 2 3.42 0 5.8-2.14 5.8-5.2 0-3.41-2.81-4.6-5.3-5.65"/><path d="m211.26 27.41c-2.12-.9-3.94-1.67-3.94-3.56 0-1.47 1.38-3 3.7-3 1.441.033 2.825.571 3.91 1.52l.18.17.78-2.16c-1.381-1.114-3.116-1.699-4.89-1.65-3.35 0-6 2.27-6 5.17 0 3.15 2.7 4.32 5.09 5.35 2.13.92 4.15 1.78 4.15 3.86 0 1.78-1.44 3-3.49 3-1.763-.059-3.443-.772-4.71-2l-.04-.11-.81 2.22c1.568 1.32 3.561 2.031 5.61 2 3.42 0 5.8-2.14 5.8-5.2 0-3.41-2.81-4.6-5.29-5.65"/><path d="m25.51 56.61c-2.12-.89-3.94-1.67-3.94-3.56 0-1.47 1.38-3 3.7-3 1.446.033 2.834.575 3.92 1.53l.17.17.79-2.17c-1.382-1.106-3.11-1.694-4.88-1.66-3.34 0-6 2.28-6 5.18 0 3.14 2.71 4.31 5.1 5.34 2.13.92 4.14 1.79 4.14 3.87 0 1.77-1.44 3-3.49 3-1.761-.056-3.439-.77-4.7-2l-.16-.17-.81 2.22c1.57 1.323 3.567 2.034 5.62 2 3.41 0 5.8-2.13 5.8-5.19 0-3.42-2.82-4.61-5.3-5.66"/></g></g></svg>