<svg clip-rule="evenodd" fill-rule="evenodd" stroke-linejoin="round" stroke-miterlimit="2" viewBox="0 0 560 400" xmlns="http://www.w3.org/2000/svg"><g fill="#263f6a" fill-rule="nonzero" transform="matrix(1.17473 0 0 1.17473 -188.717 -368.994)"><path d="m300.449 498.875h-3.375c-1.35 3.375-2.025 6.075-4.05 8.775-3.375 5.4-6.075 6.75-12.825 6.75h-5.4c-4.725 0-6.076-.675-6.076-5.4v-24.975h11.476c5.4 0 6.075 1.35 6.75 8.775h3.375v-21.601h-3.375c-.675 7.426-1.35 8.776-6.75 8.776h-11.476v-27.676h12.826c8.775 0 11.475 3.375 14.175 14.85h3.375l-2.7-18.9h-50.626v4.05c8.1 0 8.775 1.35 8.775 7.425v47.251c0 6.75-.675 7.425-8.775 7.425v4.05h51.301z"/><path d="m327.449 520.475c.675-2.7 2.025-6.075 4.05-10.125 0-1.35.675-2.025.675-2.7l12.825-31.05c2.025-4.05 3.375-4.726 8.1-5.401v-2.7c-5.4 0-6.75.675-8.775.675s-3.375-.675-8.1-.675v2.7c4.05.675 5.4.675 5.4 2.701 0 .675 0 .675-1.35 2.7l-9.45 24.975-8.775-24.975-.675-1.35v-1.35c0-2.026.675-2.026 5.4-2.701v-2.7c-8.1.675-10.125.675-13.5.675s-5.4 0-13.5-.675v2.7c4.05.675 5.4 1.351 6.75 4.726l14.175 33.075c2.7 6.075 3.375 8.775 4.05 11.475z"/><path d="m372.675 467.149c-13.5 0-23.626 11.476-23.626 27.001 0 14.85 9.451 25.65 22.951 25.65 12.825 0 22.95-11.475 22.95-26.325 0-15.525-9.45-26.326-22.275-26.326zm-.675 3.375c6.75 0 9.45 6.751 9.45 23.626 0 16.2-2.7 22.95-9.45 22.95s-9.45-7.425-9.45-23.625c0-15.525 3.375-22.951 9.45-22.951z"/><path d="m397.65 448.249v4.05c7.425 0 8.775 1.35 8.775 7.425v47.251c0 6.75-1.35 7.425-8.775 7.425v4.05h28.35c7.425 0 12.826-.675 16.876-2.7 6.75-2.7 11.475-9.45 11.475-17.55 0-9.45-6.075-16.2-15.525-17.55 8.1-2.7 12.15-7.425 12.15-14.851 0-6.075-2.7-11.475-7.425-14.175-3.375-2.025-8.101-3.375-14.851-3.375zm22.275 31.726v-27.676h6.75c7.425 0 10.801 4.05 10.801 13.5 0 10.126-3.376 14.176-12.151 14.176zm0 4.05h7.425c5.4 0 8.1.675 10.126 2.7 2.025 2.7 3.375 6.75 3.375 12.15 0 10.125-4.051 15.525-12.151 15.525h-4.05c-4.05 0-4.725-.675-4.725-4.725z"/><path d="m474.601 467.149c-6.075 1.35-14.175 2.7-20.25 3.375v2.701c6.75 0 7.425.675 7.425 7.425v21.6c0 4.725.675 8.1 2.7 10.8 2.7 4.05 7.425 6.075 13.5 6.075 6.75 0 11.475-2.7 14.85-8.1.675 3.375.675 6.075 1.35 9.45 4.725-2.025 10.8-3.375 18.225-4.05v-2.7h-1.35c-6.075-.675-6.75-.675-6.75-5.4v-41.176c-6.075 1.35-14.175 2.7-20.925 3.375v2.701c7.425 0 7.425.675 7.425 7.425v22.275c0 2.7 0 4.725-.675 6.075-1.35 3.375-4.05 4.725-7.425 4.725-2.7 0-4.725-.675-6.075-2.7s-2.025-3.375-2.025-8.1z"/><path d="m516.451 520.475h2.025l2.701-6.075c4.05 4.05 8.1 5.4 13.5 5.4 10.125 0 17.55-6.75 17.55-15.525 0-7.425-2.7-10.8-17.55-18.225-6.075-2.7-7.425-4.05-7.425-7.425 0-4.05 4.05-6.751 8.775-6.751 6.075 0 9.45 3.376 10.8 12.151h3.375v-17.551h-2.025l-2.7 5.4c-4.05-3.375-6.75-4.05-12.15-4.05-10.125 0-16.876 6.076-16.876 14.176 0 2.7.675 6.075 2.7 8.1 1.35 1.35 5.401 4.725 10.801 7.425 9.45 5.4 10.8 6.75 10.8 10.125 0 4.725-4.05 8.1-8.775 8.1-6.75 0-11.476-4.725-12.826-14.175h-2.7z"/></g></svg>