<svg clip-rule="evenodd" fill-rule="evenodd" stroke-linejoin="round" stroke-miterlimit="2" viewBox="0 0 560 400" xmlns="http://www.w3.org/2000/svg"><path d="m290.787 90.961-4.65 15.772h-47.609v-2.224l6.163-4.248v-50.743l-6.163-4.249v-2.223h49.832l1.112 1.112-3.131 14.255h-2.223c-2.023-8.796-4.956-10.007-19.511-10.007h-6.975v23.349l22.944-1.414.507.402-2.125 7.481-.605.204-20.721-2.02v24.964h6.57c11.826 0 17.995-1.815 24.362-11.217zm490.359-45.692-6.166 4.249v56.403l-.806.812h-9.806l-36.191-50.037v43.565l7.281 4.248v2.224h-20.018v-2.224l6.169-4.248v-50.944l-7.077-4.048v-2.223h19.104l34.773 48.319v-41.847l-7.277-4.249v-2.223h20.014zm-104.117 54.992 7.278 4.248v2.224h-26.279v-2.224l6.166-4.248v-50.743l-6.166-4.249v-2.223h26.686c18.598 0 28.2 6.37 28.2 18.6 0 13.95-13.542 23.454-33.659 23.454-.91 0-1.719 0-2.226-.105zm-24.056-54.992-6.268 4.147-20.823 57.317h-12.03l-22.139-57.015-6.465-4.449v-2.223h26.078v2.223l-6.367 4.348 17.992 46.194h.707l15.164-46.293-6.472-4.249v-2.223h20.623zm24.056 34.474c14.151.405 22.744-6.37 22.744-17.788 0-9.405-4.848-14.154-14.555-14.154-2.73 0-5.861.704-8.189 1.816zm-268.477.605c0 15.871-10.616 27.193-25.477 27.193-4.344 0-7.985-1.114-11.52-2.627v15.565l7.278 4.246v2.223h-25.779v-2.223l6.271-4.246v-55.393l-6.271-3.742v-2.227l16.679-3.334 1.822 1.216v7.074c3.943-5.054 10.208-8.185 16.68-8.185 12.026 0 20.317 10.51 20.317 24.46zm40.735-13.342h-2.223c-1.618-1.012-3.337-1.519-5.057-1.519-3.736 0-7.275 1.417-10.409 4.144v30.63l7.482 4.248v2.224h-26.082v-2.224l6.268-4.248v-35.175l-6.268-3.742v-2.227l16.778-3.334 1.822 1.216v7.982c3.233-5.255 8.896-8.995 14.555-8.995 2.631 0 4.854.71 6.673 2.02zm38.007 13.947c-6.771 0-14.352-.2-22.639-.503 1.111 11.323 7.275 17.89 17.384 17.89 6.064 0 10.007-1.516 13.342-4.344l2.124 1.618c-3.335 7.982-10.816 12.329-20.521 12.329-14.858 0-24.865-10.208-24.865-25.776 0-14.858 9.905-26.384 24.967-26.384 6.975 0 12.23 2.223 15.972 6.573 3.74 4.348 5.558 10.004 5.46 16.98l-1.52 1.519c-2.019.098-5.255.098-9.704.098zm20.014 11.425h2.125c3.943 6.469 9.704 10.208 14.657 10.208 4.449 0 7.179-2.325 7.179-5.963 0-4.146-2.427-6.369-8.495-8.691l-4.548-1.72c-8.59-3.236-13.746-8.39-13.746-15.164 0-8.389 7.886-14.858 19.61-14.858 6.771 0 13.24 1.618 17.995 4.446l-4.854 8.291h-2.022c-3.335-5.157-7.479-7.784-12.333-7.784-4.344 0-7.175 2.424-7.175 5.761 0 3.638 2.627 5.861 10.411 8.896l5.157 2.022c7.883 3.033 11.319 7.785 11.319 13.951 0 9.701-7.784 15.768-19.61 15.768-7.277 0-14.657-1.92-20.014-5.255zm44.377 0h2.124c3.943 6.469 9.704 10.208 14.654 10.208 4.449 0 7.179-2.325 7.179-5.963 0-4.146-2.424-6.369-8.491-8.691l-4.548-1.72c-8.593-3.236-13.747-8.39-13.747-15.164 0-8.389 7.883-14.858 19.607-14.858 6.777 0 13.243 1.618 17.995 4.446l-4.851 8.291h-2.025c-3.335-5.157-7.476-7.784-12.329-7.784-4.348 0-7.179 2.424-7.179 5.761 0 3.638 2.63 5.861 10.414 8.896l5.154 2.022c7.886 3.033 11.322 7.785 11.322 13.951 0 9.701-7.784 15.768-19.613 15.768-7.277 0-14.654-1.92-20.014-5.255zm-224-11.221 14.858 19.104 5.558 4.248v2.224h-25.168v-2.224l5.258-3.946-10.112-13.743-9.704 13.743 5.863 3.946v2.224h-20.014v-2.224l6.169-4.146 14.453-17.789-14.759-18.804-5.66-4.446v-2.223h25.066v2.223l-5.153 3.94 10.007 13.648 9.705-13.648-5.861-3.94v-2.223h20.012v2.223l-6.166 4.144zm157.991-6.774c-1.112-8.896-5.252-13.141-10.813-13.141-6.064 0-10.109 5.965-10.412 14.459zm-89.256 11.119c0-11.218-5.456-20.521-14.253-20.521-3.637 0-7.176 1.216-10.612 3.742v26.585c2.831 4.348 7.176 6.472 12.329 6.472 7.685 0 12.536-6.067 12.536-16.278zm-348.008 64.306c-20.922 0-34.267-11.754-34.267-28.089 0-5.381 1.594-11.951 7.769-25.299h-21.914l20.119-43.034h140.05c3.188 0 5.378-2.388 5.378-5.175 0-2.792-2.19-5.183-5.378-5.183h-113.354l9.962-21.315c6.175-13.147 19.523-21.713 34.064-21.713h47.615c27.49 0 47.81 18.924 47.81 43.624 0 29.288-26.894 52.796-57.97 52.796h-92.036c-2.793 5.776.395 10.36 7.169 10.36h73.311c12.152 0 21.515 8.564 21.515 19.52 0 12.551-12.149 23.508-25.899 23.508z" fill="#da3940" transform="matrix(.600767 0 0 .600767 45.3565 155)"/></svg>