<svg clip-rule="evenodd" fill-rule="evenodd" stroke-linejoin="round" stroke-miterlimit="2" viewBox="0 0 560 400" xmlns="http://www.w3.org/2000/svg"><g transform="matrix(.529194 0 0 .529194 50.0388 24.5987)"><path d="m434.5 48c156.6 0 283.5 126.9 283.5 283.4s-126.9 283.5-283.5 283.5c-156.5 0-283.4-126.9-283.4-283.5s126.9-283.4 283.4-283.4z" fill="#0062aa"/><path d="m434.5 58.5c150.8 0 273 122.2 273 273s-122.2 273-273 273-273-122.2-273-273 122.3-273 273-273z" fill="#fff"/><g fill="#0062aa"><path d="m434.5 116.7c67.4 0 127.6 31.1 167 79.8h-13.7c-37.4-42.5-92.2-69.3-153.3-69.3s-115.8 26.8-153.3 69.3h-13.7c39.4-48.6 99.6-79.8 167-79.8zm193.7 307.5c-34.6 72.1-108.3 121.9-193.7 121.9-85.3 0-159.1-49.8-193.7-121.9h11.7c33.8 66.2 102.6 111.5 182 111.5s148.2-45.3 182-111.5z"/><path d="m383.6 175.1v42.7h-11.8v-28c-1.9 1.4-3.8 2.6-5.5 3.5-1.8.9-4 1.8-6.7 2.6v-9.6c4-1.3 7.1-2.8 9.3-4.6s3.9-4 5.2-6.6z"/><path d="m396.8 208.3 11.6-1.5c.3 1.6.8 2.8 1.6 3.4.7.7 1.6 1 2.7 1 1.9 0 3.3-.9 4.4-2.8.8-1.4 1.3-4.3 1.7-8.9-1.4 1.4-2.8 2.5-4.3 3.2s-3.2 1-5.1 1c-3.8 0-6.9-1.3-9.5-4s-3.9-6-3.9-10.1c0-2.8.7-5.3 2-7.6s3.1-4 5.4-5.2 5.2-1.8 8.7-1.8c4.2 0 7.6.7 10.1 2.2 2.5 1.4 4.6 3.7 6.1 6.9 1.5 3.1 2.3 7.3 2.3 12.4 0 7.6-1.6 13.1-4.8 16.7-3.2 3.5-7.6 5.3-13.3 5.3-3.3 0-6-.4-7.9-1.2s-3.5-1.9-4.8-3.4c-1.4-1.5-2.3-3.3-3-5.6zm21.4-18.7c0-2.3-.6-4-1.7-5.3s-2.5-1.9-4.2-1.9c-1.6 0-2.8.6-3.8 1.8s-1.5 2.9-1.5 5.2.5 4.1 1.6 5.4c1.1 1.2 2.4 1.9 4 1.9s3-.6 4.1-1.8c1-1.3 1.5-3 1.5-5.3z"/><path d="m435.4 196.6c0-8 1.4-13.6 4.3-16.8s7.3-4.8 13.1-4.8c2.8 0 5.2.3 7 1s3.3 1.6 4.4 2.7 2.1 2.3 2.7 3.5c.7 1.2 1.2 2.7 1.6 4.3.8 3.1 1.2 6.4 1.2 9.8 0 7.6-1.3 13.2-3.9 16.7s-7 5.3-13.3 5.3c-3.5 0-6.4-.6-8.6-1.7s-4-2.8-5.4-4.9c-1-1.6-1.8-3.7-2.4-6.3-.5-2.6-.7-5.5-.7-8.8zm11.5 0c0 5.3.5 9 1.4 10.9.9 2 2.3 2.9 4.1 2.9 1.2 0 2.2-.4 3.1-1.3.9-.8 1.5-2.1 1.9-3.9s.6-4.6.6-8.4c0-5.6-.5-9.3-1.4-11.2s-2.4-2.9-4.2-2.9c-1.9 0-3.3 1-4.2 2.9-.8 2.1-1.3 5.7-1.3 11z"/><path d="m494.5 209.9h-21.2v-9.6l21.2-25.2h10.2v25.8h5.3v9.1h-5.3v7.8h-10.2zm0-9v-13.2l-11.2 13.2z"/><path d="m347.2 407.4h12.5l4.5 23.8 6.6-23.8h12.5l6.6 23.8 4.5-23.8h12.5l-9.4 42.7h-12.9l-7.5-26.9-7.5 26.9h-12.9z"/><path d="m411.7 450.1h13.3v-42.7h-13.2v42.7z"/><path d="m434.4 407.4h35.3v9.1h-22.1v6.8h20.5v8.7h-20.5v8.4h22.8v9.7h-36z"/><path d="m477.6 407.4h12.3l16.1 23.6v-23.6h12.4v42.7h-12.4l-16-23.4v23.4h-12.4z"/><path d="m232.2 238.8-37.8-20.1 13.8-25.9 6.4 3.4-9.7 18.3 8.9 4.8 8.4-15.8 6.4 3.4-8.4 15.8 16.1 8.5z"/><path d="m249.8 206.7-33.6-26.2 5.3-6.8 27.9 21.7 13.2-17 5.7 4.4z"/><path d="m255.6 165c-3-3.2-5-6.3-6.1-9.4-.8-2.3-1.1-4.6-1.1-7 .1-2.4.5-4.6 1.4-6.6 1.2-2.7 3-5.2 5.6-7.5 4.6-4.3 9.6-6.3 15.1-6 5.4.3 10.5 3 15.3 8.1 4.7 5.1 7 10.3 6.9 15.7s-2.4 10.3-7 14.6c-4.7 4.3-9.7 6.4-15.1 6.1-5.3-.4-10.3-3-15-8zm6.3-6.3c3.3 3.5 6.6 5.5 10 5.8 3.3.3 6.3-.7 8.8-3.1 2.5-2.3 3.7-5.2 3.7-8.5-.1-3.3-1.8-6.8-5.2-10.4-3.3-3.6-6.6-5.5-9.8-5.8s-6.1.8-8.7 3.2-3.9 5.3-3.8 8.6c0 3.1 1.7 6.6 5 10.2z"/><path d="m306.6 148.5-21.5-37.2 15.8-9.2c4-2.3 7.1-3.6 9.2-4 2.2-.4 4.3 0 6.4 1.1s3.7 2.7 5 4.9c1.6 2.8 2.1 5.6 1.5 8.3-.6 2.8-2.4 5.3-5.4 7.7 2.2 0 4.1.3 5.8.8s4.3 1.7 7.8 3.6l8.8 4.6-9 5.2-10.1-5c-3.6-1.8-6-2.8-7.1-3.2-1.1-.3-2.2-.4-3.2-.2s-2.3.8-4 1.8l-1.5.9 9 15.5zm-4.9-25.8 5.6-3.2c3.6-2.1 5.8-3.5 6.5-4.4.7-.8 1.1-1.8 1.2-2.8s-.2-2.1-.9-3.2c-.7-1.3-1.6-2.1-2.8-2.4-1.1-.4-2.3-.3-3.7.2-.6.3-2.5 1.3-5.6 3.1l-5.9 3.4z"/><path d="m344.3 127.4-16.8-39.3 7.9-3.4 16.8 39.3z"/><path d="m349.1 79.5 15.3-4.4c3.4-1 6.1-1.5 8.1-1.5 2.6 0 5.1.7 7.3 2 2.3 1.3 4.2 3.2 5.9 5.6s3.1 5.5 4.2 9.4c1 3.4 1.4 6.5 1.3 9.2-.2 3.3-.9 6.2-2.3 8.6-1 1.8-2.7 3.5-4.9 5-1.7 1.1-4.1 2.1-7.2 3l-15.8 4.6zm10.4 4.7 7.9 27.5 6.2-1.8c2.3-.7 4-1.3 5-1.9 1.3-.7 2.2-1.6 2.9-2.7s1-2.6 1-4.6-.4-4.6-1.3-7.9c-.9-3.2-1.9-5.6-3-7.1-1.1-1.6-2.2-2.7-3.5-3.3-1.3-.7-2.8-.9-4.4-.8-1.2.1-3.6.6-7 1.6z"/><path d="m399.8 96.8 8.3-1.5c.7 2.8 1.9 4.8 3.6 6s3.8 1.7 6.4 1.5c2.8-.2 4.8-1 6.1-2.3s1.9-2.7 1.8-4.3c-.1-1-.5-1.9-1.1-2.5-.6-.7-1.7-1.2-3.3-1.6-1-.3-3.4-.7-7.1-1.3-4.7-.8-8.1-1.9-10.1-3.4-2.8-2.1-4.4-4.9-4.7-8.3-.2-2.2.3-4.3 1.3-6.3 1.1-2 2.7-3.6 5-4.8 2.2-1.2 5-1.9 8.3-2.2 5.4-.4 9.5.4 12.4 2.5s4.6 5.2 5.1 9.1l-8.6 1.1c-.6-2.2-1.5-3.7-2.8-4.5-1.3-.9-3.2-1.2-5.6-1-2.5.2-4.4.9-5.8 2-.9.7-1.2 1.7-1.2 2.8.1 1 .6 1.9 1.5 2.5 1.2.8 3.9 1.6 8.2 2.2s7.5 1.4 9.6 2.3 3.8 2.2 5.1 4 2 4 2.3 6.7c.2 2.5-.3 4.8-1.5 7.1s-3 4-5.4 5.3-5.5 2-9.2 2.3c-5.4.5-9.7-.4-12.8-2.7-2.8-2.5-4.8-6-5.8-10.7z"/><path d="m447.9 65 15.7 1.9c3.5.4 6.2 1 8 1.8 2.4 1 4.4 2.6 5.9 4.7s2.6 4.5 3.2 7.4c.6 2.8.6 6.2.2 10.2-.4 3.5-1.2 6.4-2.4 8.9-1.4 3-3.3 5.3-5.5 6.9-1.7 1.3-3.8 2.2-6.4 2.7-2 .4-4.5.4-7.7 0l-16.1-2zm7.7 8.3-3.4 28.1 6.4.8c2.4.3 4.1.4 5.2.2 1.4-.2 2.7-.6 3.7-1.3s1.9-2 2.8-3.8c.8-1.8 1.4-4.4 1.8-7.7s.4-5.8.1-7.7c-.4-1.8-1-3.3-1.9-4.4s-2.2-1.9-3.7-2.5c-1.2-.4-3.5-.8-7-1.3z"/><path d="m490.4 92.8c1.4-4.2 3.3-7.5 5.5-9.9 1.6-1.8 3.6-3.2 5.8-4.3s4.4-1.7 6.6-1.9c2.9-.2 6.1.3 9.4 1.4 6.1 2.1 10.2 5.6 12.6 10.6 2.3 5 2.4 10.8.1 17.5-2.3 6.6-5.9 11.2-10.8 13.7s-10.4 2.7-16.4.6c-6.1-2.1-10.3-5.6-12.6-10.6-2.4-4.8-2.5-10.6-.2-17.1zm8.6 2.6c-1.6 4.6-1.7 8.5-.4 11.7 1.3 3.1 3.6 5.3 6.9 6.4s6.4.9 9.4-.8c2.9-1.7 5.2-4.9 6.9-9.6 1.6-4.7 1.8-8.6.5-11.6s-3.6-5.1-7-6.3-6.6-1-9.5.7c-2.9 1.6-5.2 4.8-6.8 9.5z"/><path d="m530.6 129 21.3-36.7 15.6 9c3.9 2.3 6.6 4.3 8 5.9 1.4 1.7 2.1 3.7 2.2 6s-.5 4.5-1.8 6.7c-1.6 2.8-3.7 4.6-6.4 5.4-2.6.9-5.7.6-9.2-.8 1.1 1.9 1.8 3.7 2.2 5.4s.6 4.5.8 8.4l.3 9.8-8.9-5.1-.7-11.1c-.2-4-.5-6.5-.8-7.7s-.7-2.1-1.3-2.8-1.8-1.6-3.5-2.6l-1.5-.9-8.9 15.3zm19.7-16.9 5.5 3.2c3.6 2.1 5.9 3.2 6.9 3.4 1.1.2 2 .1 3-.4.9-.4 1.7-1.2 2.3-2.3.7-1.2 1-2.4.7-3.6-.2-1.1-.9-2.2-2-3.1-.6-.4-2.3-1.5-5.3-3.2l-5.8-3.3z"/><path d="m567.1 151.8 28.3-32.5 22.3 19.4-4.8 5.5-15.7-13.7-6.7 7.7 13.6 11.8-4.8 5.5-13.6-11.8-12 13.8z"/><path d="m595 176.8 32.5-28.3 21 24.1-5.5 4.8-15.3-17.6-7.2 6.3 14.2 16.3-5.5 4.8-14.2-16.3-8.9 7.7 15.8 18.2-5.5 4.8z"/><path d="m620.9 208 37.5-21.6 9.2 15.9c2.3 4 3.7 7.1 4 9.3.4 2.2 0 4.3-1.1 6.4s-2.7 3.8-5 5c-2.8 1.6-5.6 2.1-8.4 1.5s-5.4-2.4-7.7-5.4c0 2.2-.3 4.1-.8 5.9-.5 1.7-1.7 4.3-3.6 7.8l-4.7 8.8-5.2-9 5-10.2c1.8-3.6 2.9-6 3.2-7.2s.4-2.2.2-3.2-.8-2.3-1.8-4.1l-.9-1.5-15.6 9zm26-4.9 3.2 5.6c2.1 3.6 3.6 5.8 4.4 6.5s1.8 1.1 2.8 1.2 2.1-.2 3.3-.9c1.3-.7 2.1-1.7 2.5-2.8s.3-2.4-.2-3.7c-.3-.7-1.3-2.5-3.1-5.6l-3.4-5.9z"/><path d="m177.3 394.7-1.6-9.4 9-5.3-2.8-17-10.3-1.9-1.5-9.1 45.3 9.5 1.5 9.1zm14.2-18.6 14.8-8.5-16.8-3.1z"/><path d="m181.5 409.1 34.1-11.1-4-12.2 6.9-2.3 10.6 32.6-6.9 2.3-3.9-12.1-34.1 11.1z"/><path d="m193.3 441.3 37.9-20.5 4.1 7.7-14.9 8.1 8.1 15 14.9-8.1 4.1 7.7-37.9 20.5-4.1-7.7 16.6-9-8.1-15-16.6 9z"/><path d="m218.7 484.3 33.7-26.3 5.4 6.9-28 21.9 13.3 17.1-5.7 4.5z"/><path d="m246.3 518.3 28.3-32.6 24.1 21-4.8 5.5-17.5-15.2-6.3 7.2 16.3 14.2-4.8 5.5-16.3-14.2-7.7 8.9 18.2 15.8-4.8 5.5z"/><path d="m290.2 552.8 19.5-30.1-10.7-7 4-6.1 28.7 18.7-4 6.1-10.7-7-19.5 30.1z"/><path d="m319.5 569.7 18.2-39.1 7.9 3.7-18.2 39.1z"/><path d="m341.7 580.1 11.9-41.5 8.4 2.4-5.3 18.4 22.2-13.6 11.3 3.2-20.2 11.7 9.2 30-10.8-3.1-5.8-22.7-8.8 5-3.6 12.5z"/><path d="m389.2 577.9 8.5.4c.1 2.9.8 5.1 2.2 6.6s3.3 2.5 6 2.9c2.8.4 5 .1 6.5-.9 1.6-1 2.5-2.2 2.7-3.8.1-1 0-1.9-.5-2.7s-1.4-1.6-2.8-2.3c-1-.5-3.2-1.4-6.6-2.8-4.5-1.8-7.5-3.7-9.1-5.6-2.3-2.7-3.2-5.8-2.7-9.1.3-2.2 1.2-4.1 2.7-5.8s3.5-2.9 5.9-3.6c2.5-.7 5.3-.8 8.6-.3 5.4.8 9.2 2.5 11.6 5.2s3.4 6.1 2.9 10l-8.7-.8c-.1-2.2-.6-3.9-1.7-5.1-1.1-1.1-2.8-1.9-5.3-2.2-2.5-.4-4.5-.1-6.1.7-1 .5-1.6 1.3-1.7 2.5-.1 1 .2 1.9.9 2.8 1 1.1 3.5 2.4 7.5 4 4.1 1.6 7 3 8.9 4.4 1.9 1.3 3.2 3 4.1 5s1.1 4.3.7 7c-.3 2.4-1.3 4.6-3 6.6-1.7 1.9-3.8 3.3-6.4 4s-5.8.8-9.5.3c-5.4-.8-9.4-2.6-11.9-5.5s-3.8-7.1-3.7-11.9z"/><path d="m436.9 596.5-3.8-43 13.9-1.2c5.3-.5 8.7-.5 10.4-.3 2.5.4 4.7 1.6 6.6 3.7 1.9 2 2.9 4.7 3.2 8.1.2 2.6-.1 4.9-.9 6.8s-1.9 3.4-3.3 4.6c-1.4 1.1-2.8 2-4.3 2.4-2 .6-5 1.1-9 1.4l-5.7.5 1.4 16.2zm5.5-36.4 1.1 12.2 4.7-.4c3.4-.3 5.7-.7 6.8-1.3s2-1.3 2.5-2.3c.6-1 .8-2.2.7-3.4-.1-1.6-.7-2.8-1.7-3.8-1-.9-2.2-1.5-3.6-1.6-1.1-.1-3.1 0-6.3.3z"/><path d="m476.2 572.7c-1.2-4.2-1.6-7.9-1.2-11.2.3-2.4 1.1-4.6 2.2-6.8 1.2-2.1 2.6-3.9 4.3-5.3 2.3-1.8 5.1-3.2 8.5-4.2 6.1-1.8 11.5-1.3 16.3 1.5 4.8 2.7 8.1 7.5 10 14.2s1.6 12.5-1 17.3-6.9 8.1-13 9.8c-6.2 1.8-11.6 1.3-16.3-1.4-4.6-2.6-7.9-7.3-9.8-13.9zm8.5-2.8c1.3 4.7 3.5 7.9 6.3 9.7 2.9 1.8 6 2.2 9.3 1.3 3.3-1 5.7-2.9 7.2-6 1.4-3 1.5-6.9.1-11.7s-3.4-8-6.2-9.7-5.9-2.1-9.3-1.1c-3.5 1-5.9 3-7.3 5.9-1.4 3-1.4 6.9-.1 11.6z"/><path d="m534.9 577.2-19.5-38.5 16.4-8.3c4.1-2.1 7.3-3.2 9.5-3.5s4.3.2 6.3 1.4 3.6 2.9 4.7 5.2c1.5 2.9 1.8 5.7 1.1 8.4-.8 2.7-2.7 5.2-5.8 7.4 2.2.1 4.1.5 5.8 1.1s4.2 2 7.6 4l8.5 5.1-9.3 4.7-9.9-5.5c-3.5-2-5.8-3.2-7-3.6-1.1-.4-2.2-.5-3.1-.4-1 .1-2.3.6-4.1 1.6l-1.6.8 8.1 16.1zm-3.5-26.1 5.7-2.9c3.7-1.9 6-3.2 6.8-4s1.2-1.7 1.4-2.7c.1-1-.1-2.1-.7-3.3-.7-1.3-1.5-2.2-2.6-2.6s-2.3-.5-3.7 0c-.7.2-2.6 1.1-5.7 2.7l-6.1 3.1z"/><path d="m585.3 549.1-21.1-29-10.3 7.5-4.3-5.9 27.7-20.1 4.3 5.9-10.3 7.5 21.1 29z"/><path d="m598.2 524.5-5.4-6.2 12.3-10.7 5.4 6.2z"/><path d="m633.7 482 7.3-5c2.9 3.9 4.3 7.8 4.3 11.6-.1 3.8-1.5 7.5-4.4 11.1-3.5 4.5-8 7-13.3 7.5-5.4.5-10.7-1.3-16.1-5.5-5.7-4.4-8.9-9.3-9.8-14.7s.6-10.4 4.3-15.2c3.2-4.2 7.1-6.6 11.6-7.2 2.7-.4 5.7.1 9 1.4l-3.6 8c-2.1-1-4.1-1.2-6.1-.7s-3.7 1.6-5.2 3.4c-2 2.5-2.7 5.3-2.1 8.3s2.9 6.1 6.9 9.2c4.3 3.4 8 5 11 4.9s5.5-1.4 7.4-3.9c1.4-1.8 2.1-3.8 1.9-6.1 0-2.2-1.1-4.6-3.1-7.1z"/><path d="m658.8 473-37.4-20.7 4.2-7.6 31.1 17.2 10.5-18.9 6.4 3.5z"/><path d="m638.1 423.1 2.8-8.2 22.1 7.6c3.5 1.2 5.8 1.9 6.9 2 1.8.2 3.4-.2 4.9-1.1 1.5-1 2.6-2.6 3.4-4.9s.9-4.3.4-5.8-1.5-2.6-2.8-3.3-3.6-1.6-6.8-2.7l-22.6-7.8 2.8-8.2 21.4 7.4c4.9 1.7 8.3 3.1 10.2 4.2s3.3 2.5 4.3 4.2 1.5 3.7 1.7 5.9c.1 2.3-.4 5.1-1.5 8.3-1.3 3.9-2.8 6.7-4.4 8.4s-3.3 2.9-5.1 3.6-3.6.9-5.3.8c-2.5-.3-6.1-1.2-10.6-2.8z"/><path d="m651.6 382.9 2.7-17c.5-3.4 1.1-5.9 1.6-7.5s1.4-3 2.5-4.2 2.5-2.1 4.1-2.7 3.4-.8 5.2-.5c2 .3 3.7 1.1 5.2 2.5 1.5 1.3 2.5 3 3 5 1.2-2.5 2.8-4.3 4.8-5.4 2.1-1.1 4.3-1.5 6.8-1.1 1.9.3 3.7 1.1 5.4 2.3s3 2.7 3.8 4.4 1.2 3.8 1.1 6.1c-.1 1.4-.5 4.9-1.4 10.4l-2.3 14.5zm8.5-7.5 9.8 1.6.9-5.6c.5-3.4.8-5.4.9-6.3.1-1.5-.3-2.7-1-3.7s-1.8-1.6-3.1-1.8-2.4 0-3.4.6c-.9.6-1.6 1.6-2 3-.2.8-.7 3.3-1.3 7.3zm16.9 2.7 11.4 1.8 1.3-8c.5-3.1.7-5.1.7-5.9 0-1.3-.4-2.4-1.2-3.4-.8-.9-1.9-1.5-3.4-1.8-1.3-.2-2.4-.1-3.4.4s-1.8 1.3-2.4 2.4-1.2 3.6-1.8 7.5z"/><path d="m246.7 236.1h94.3v30.7h-61.4v32.5h60.9v27.6h-60.9v61.4h-32.9z"/><path d="m405.1 236h38.8l52.6 150.8h-39l-10.4-33.8h-50.4l-10.8 33.8h-36.6zm35 89.5-16.2-57.3-18.4 57.3z"/><path d="m582.1 229.1c15.2 0 29.4 4.1 41.7 11.3l-11.4 28.3c-8.1-5.4-17.9-8.5-28.4-8.5-28.2 0-51 22.6-51 50.4s22.9 50.4 51 50.4c9.7 0 18.7-2.7 26.5-7.3l10.6 29.8c-11.6 6.2-24.8 9.7-38.9 9.7-45.4 0-82.3-36.7-82.3-82s36.8-82.1 82.2-82.1z"/></g></g></svg>