<svg clip-rule="evenodd" fill-rule="evenodd" stroke-linejoin="round" stroke-miterlimit="2" viewBox="0 0 560 400" xmlns="http://www.w3.org/2000/svg"><g fill="#5c5b3d" transform="matrix(1.52542 0 0 1.52542 92.3729 126.78)"><g fill-rule="nonzero"><path d="m14.935 57.172c2.925-.469 3.103-1.582 3.103-5.332v-24.473c0-2.638 0-4.923-3.103-5.331v-.934c.7.053 1.463.171 2.225.236.761 0 1.523.054 2.165.054h15.225c1.523 0 3.162-.17 4.568-1.057h.875c.182 3.167.238 3.634.939 7.615l-1.284.296c-1.816-3.338-1.816-4.629-11.655-4.629h-6.207v13.705h6.207c7.671 0 7.493-1.29 8.314-4.101h1.349c-.236 1.757-.412 3.573-.412 5.329 0 1.582.231 3.162.412 4.685h-1.349c-.643-3.044-.35-3.69-8.314-3.69h-6.207v12.295c0 3.867 1.23 4.98 5.269 5.332v.937c-2.281-.117-4.625-.294-6.909-.294-1.757 0-3.514.177-5.211.294z"/><path d="m52.297 40.13h11.597l-5.622-15.985h-.114zm-9.484 17.452c0-1.934 2.167-5.33 6.147-15.637l4.101-10.656c.997-2.636 2.4-6.149 2.4-7.204 0-1.642-1.403-1.814-2.4-2.05v-.934c1.464.12 2.869.29 4.336.29 1.167 0 2.282-.237 3.391-.29l9.665 26.643c2.752 7.32 3.042 8.958 5.795 9.427v.937c-1.697-.117-3.397-.294-5.094-.294-1.99 0-4.04.177-6.033.294v-.937c1.874-.352 3.57-.412 3.57-2.289 0-1.283-.466-2.454-.931-3.684l-3.107-8.842h-13.173l-2.81 7.612c-.587 1.521-1.23 3.338-1.23 4.391 0 1.639 1.461 2.575 3.628 2.812v.937c-1.521-.117-3.044-.294-4.626-.294-1.228 0-2.399.177-3.629.294z"/><path d="m80.142 57.172c1.757-.292 3.217-.527 3.217-5.332v-24.473c0-4.743-1.46-5.039-3.217-5.331v-.934c1.757.12 3.571.29 5.269.29 1.638 0 3.278-.17 4.921-.29v.934c-1.698.292-3.222.588-3.222 5.331v24.473c0 4.805 1.524 5.04 3.222 5.332v.937c-1.643-.117-3.283-.294-4.921-.294-1.698 0-3.512.177-5.269.294z"/><path d="m108.471 36.559c7.964 0 10.95-2.692 10.95-6.736 0-4.74-4.214-6.733-8.901-6.733-2.223 0-4.391.117-6.556.76v12.709zm-8.256-9.192c0-3.632-.175-4.628-3.22-5.331v-.934c.936 0 1.873.12 2.811.171.935.065 1.931.119 2.867.119 1.348 0 2.637-.119 3.925-.29 1.289-.12 2.576-.239 3.921-.239 7.146 0 13.117 1.875 13.117 8.845 0 6.148-5.503 7.438-7.615 7.962v.117c8.609 3.689 7.731 14.816 13.297 18.681.588.291 1.291.584 1.933.703v.937c-.821-.06-2.694-.294-3.455-.294-.703 0-1.993.234-2.93.294-.819-.585-1.05-1.464-1.343-2.227l-1.995-5.036c-4.392-11.477-7.965-12.061-13.058-12.061h-4.507v13.056c0 2.695 0 4.805 3.337 5.332v.937c-1.698-.117-3.397-.294-5.096-.294-1.698 0-3.395.177-5.091.294v-.937c3.102-.703 3.102-2.348 3.102-5.332z"/><path d="m133.744 57.172c2.923-.469 3.108-1.582 3.108-5.332v-24.473c0-2.638 0-4.923-3.108-5.331v-.934c.703.053 1.463.171 2.225.236.766 0 1.521.054 2.169.054h15.224c1.523 0 3.163-.17 4.569-1.057h.876c.176 3.167.236 3.634.938 7.615l-1.29.296c-1.813-3.338-1.813-4.629-11.649-4.629h-6.209v13.705h6.209c7.67 0 7.493-1.29 8.314-4.101h1.346c-.232 1.757-.412 3.573-.412 5.329 0 1.582.236 3.162.412 4.685h-1.346c-.645-3.044-.354-3.69-8.314-3.69h-6.209v12.295c0 3.867 1.229 4.98 5.271 5.332v.937c-2.285-.117-4.625-.294-6.91-.294-1.76 0-3.515.177-5.213.294v-.937"/><path d="m170.318 40.13h11.594l-5.621-15.985h-.115zm-9.487 17.452c0-1.934 2.165-5.33 6.149-15.637l4.098-10.656c.998-2.636 2.4-6.149 2.4-7.204 0-1.642-1.402-1.814-2.4-2.05v-.934c1.463.12 2.869.29 4.335.29 1.171 0 2.282-.237 3.394-.29l9.665 26.643c2.752 7.32 3.047 8.958 5.795 9.427v.937c-1.698-.117-3.396-.294-5.095-.294-1.99 0-4.038.177-6.031.294v-.937c1.875-.352 3.572-.412 3.572-2.289 0-1.283-.47-2.454-.938-3.684l-3.102-8.842h-13.176l-2.812 7.612c-.586 1.521-1.229 3.338-1.229 4.391 0 1.639 1.463 2.575 3.628 2.812v.937c-1.521-.117-3.044-.294-4.619-.294-1.229 0-2.401.177-3.635.294v-.526z"/><path d="m193.979 57.172c2.52-.703 3.4-1.582 11.07-11.01l5.447-6.735-6.734-8.957c-4.801-6.209-5.447-7.554-8.842-8.434v-.934c1.988.12 4.041.29 6.029.29 1.875 0 3.748-.17 5.623-.29v.934c-1.523 0-2.873.472-2.873 1.699 0 .703 1.467 2.636 3.164 4.919l5.854 7.966 5.861-7.498c1.93-2.518 3.455-4.273 3.455-5.505 0-1.289-1.525-1.581-2.58-1.581v-.934c1.175.12 2.281.29 3.456.29 1.462 0 2.868-.17 4.331-.29-.528 1.814-1.583 3.101-2.984 4.916l-10.188 12.475 8.077 10.537c4.978 6.035 5.738 7.791 8.669 8.143v.937c-1.759-.117-3.574-.294-5.389-.294-2.05 0-4.095.177-6.147.294v-.937c1.64 0 2.575-.646 2.575-1.639 0-1.523-1.99-3.281-2.4-4.098l-7.609-10.079-7.673 9.957c-.88 1.171-2.052 2.93-2.052 3.927 0 .816.705 1.812 2.578 1.932v.937c-1.816-.117-3.631-.294-5.445-.294-1.757 0-3.516.177-5.273.294z"/><path d="m16.296 77.662c.777-.119.828-.418.828-1.414v-6.482c0-.699 0-1.306-.828-1.414v-.246c.191.014.39.043.593.062.199 0 .402.014.572.014h4.034c.404 0 .839-.049 1.211-.278h.234c.046.837.06.961.248 2.015l-.341.078c-.482-.883-.482-1.221-3.086-1.221h-1.646v3.627h1.646c2.032 0 1.985-.341 2.2-1.084h.358c-.061.461-.108.943-.108 1.411 0 .417.063.835.108 1.239h-.358c-.168-.807-.09-.977-2.2-.977h-1.646v3.256c0 1.028.328 1.322 1.398 1.414v.25c-.609-.033-1.229-.078-1.832-.078-.467 0-.931.045-1.385.078z"/><path d="m24.614 77.662c.465-.077.853-.139.853-1.414v-6.482c0-1.256-.387-1.336-.853-1.414v-.246c.465.027.944.076 1.396.076.437 0 .87-.049 1.302-.076v.246c-.451.078-.852.158-.852 1.414v6.482c0 1.275.401 1.337.852 1.414v.25c-.433-.033-.865-.078-1.302-.078-.452 0-.931.045-1.396.078z"/><path d="m31.768 77.912c-.3-.033-.593-.078-.901-.078-.33 0-.669.045-1.011.078 0-.871.124-1.847.124-3.396l.016-3.79c0-2.015-.095-2.112-.853-2.374v-.246c.326.014.652.076.978.076.342 0 .695-.062 1.055-.076l5.461 7.621h.031l.016-4.597c0-2.297 0-2.604-1.163-2.778v-.246c.355.014.714.076 1.085.076.278 0 .558-.062.839-.076-.019.293-.111 1.254-.111 3.52l-.031 1.956c0 2.454.08 3.755.08 4.331h-.403c-.607-.901-1.244-1.779-1.881-2.672l-2.08-2.947c-.774-1.069-1.567-2.141-2.343-3.18h-.029l-.032 3.351c-.013.899-.013 1.893-.013 2.651 0 2.5.322 2.428 1.166 2.547z"/><path d="m42.047 73.146h3.073l-1.494-4.234h-.028zm-2.515 4.624c0-.51.573-1.412 1.631-4.141l1.084-2.824c.266-.697.639-1.629.639-1.91 0-.435-.373-.484-.639-.543v-.246c.391.027.762.076 1.149.076.308 0 .604-.062.899-.076l2.559 7.066c.731 1.933.809 2.371 1.539 2.49v.25c-.452-.033-.901-.078-1.35-.078-.528 0-1.074.045-1.601.078v-.25c.496-.092.949-.108.949-.605 0-.34-.123-.65-.247-.979l-.828-2.34h-3.486l-.748 2.016c-.153.406-.321.884-.321 1.163 0 .435.387.683.96.745v.25c-.402-.033-.807-.078-1.226-.078-.324 0-.638.045-.962.078v-.142z"/><path d="m52.159 77.912c-.294-.033-.586-.078-.898-.078-.327 0-.668.045-1.008.078 0-.871.123-1.847.123-3.396l.016-3.79c0-2.015-.092-2.112-.853-2.374v-.246c.325.014.651.076.976.076.343 0 .697-.062 1.057-.076l5.462 7.621h.028l.014-4.597c0-2.297 0-2.604-1.161-2.778v-.246c.354.014.713.076 1.086.076.279 0 .557-.062.835-.076-.014.293-.108 1.254-.108 3.52l-.028 1.955c0 2.454.08 3.755.08 4.331h-.405c-.604-.901-1.241-1.779-1.879-2.672l-2.079-2.947c-.775-1.069-1.568-2.141-2.343-3.18h-.031l-.032 3.351c-.013.899-.013 1.893-.013 2.651 0 2.5.325 2.428 1.163 2.547v.25"/><path d="m68.047 76.078c-.344.529-1.256 2.035-3.353 2.035-2.499 0-4.546-1.895-4.546-5.106 0-2.964 2.076-5.104 4.515-5.104 1.101 0 1.815.341 2.091.341.206 0 .281-.096.376-.277h.307c.05.822.281 1.659.391 2.201l-.391.062c-.25-.696-.896-1.659-2.588-1.678-1.984 0-3.584 1.507-3.584 4.377 0 3.076 1.6 4.531 3.554 4.531 1.627 0 2.355-1.008 2.839-1.609z"/><path d="m69.703 77.662c.462-.077.848-.139.848-1.414v-6.482c0-1.256-.386-1.336-.848-1.414v-.246c.462.027.944.076 1.396.076.433 0 .867-.049 1.303-.076v.246c-.453.078-.855.158-.855 1.414v6.482c0 1.275.402 1.337.855 1.414v.25c-.437-.033-.871-.078-1.303-.078-.452 0-.934.045-1.396.078z"/><path d="m76.513 73.146h3.073l-1.492-4.234h-.034zm-2.516 4.624c0-.51.577-1.412 1.628-4.141l1.087-2.824c.264-.697.635-1.629.635-1.91 0-.435-.371-.484-.635-.543v-.246c.386.027.761.076 1.148.076.31 0 .607-.062.899-.076l2.558 7.066c.735 1.933.811 2.371 1.542 2.49v.25c-.453-.033-.9-.078-1.349-.078-.528 0-1.072.045-1.601.078v-.25c.498-.092.949-.108.949-.605 0-.34-.126-.65-.25-.979l-.824-2.34h-3.491l-.745 2.016c-.155.406-.327.884-.327 1.163 0 .435.39.683.964.745v.25c-.403-.033-.808-.078-1.229-.078-.323 0-.635.045-.96.078v-.142z"/><path d="m83.941 77.662c.729-.108.868-.541.868-1.414v-6.438c0-1.301-.388-1.381-.853-1.459v-.246c.465.027.915.076 1.365.076.436 0 .899-.049 1.335-.076v.246c-.449.078-.853.158-.853 1.459v7.434h2.124c1.383 0 2.296-.188 2.607-1.555l.373.064c-.171.774-.358 1.552-.45 2.312h-.216c-.199-.218-.389-.232-.839-.232h-3.617c-.622 0-1.208.059-1.844.078z"/><path d="m97.995 76.248c0 1.275.403 1.337.852 1.414v.25c-.435-.033-.872-.078-1.303-.078-.448 0-.93.045-1.4.078v-.25c.471-.077.857-.139.857-1.414v-6.482c0-1.256-.387-1.336-.857-1.414v-.246c.471.027.952.076 1.4.076.431 0 .868-.049 1.303-.076v.246c-.449.078-.852.158-.852 1.414v2.637h5.323v-2.637c0-1.256-.389-1.336-.856-1.414v-.246c.467.027.918.076 1.367.076.433 0 .899-.049 1.334-.076v.246c-.449.078-.854.158-.854 1.414v6.482c0 1.275.405 1.337.854 1.414v.25c-.435-.033-.901-.078-1.334-.078-.448 0-.899.045-1.367.078v-.25c.467-.077.856-.139.856-1.414v-3.256h-5.323z"/><path d="m111.847 77.461c2.019 0 3.771-1.648 3.771-4.484 0-2.7-1.705-4.424-3.771-4.424-1.988 0-3.738 1.802-3.738 4.424-.001 3.101 1.903 4.484 3.738 4.484m-4.857-4.484c0-2.7 2.111-5.073 4.856-5.073 2.716 0 4.888 2.108 4.888 5.073 0 2.888-2.126 5.137-4.888 5.137-2.404-.001-4.856-1.723-4.856-5.137z"/><path d="m118.423 77.662c.73-.108.871-.541.871-1.414v-6.438c0-1.301-.389-1.381-.852-1.459v-.246c.463.027.914.076 1.366.076.43 0 .899-.049 1.332-.076v.246c-.451.078-.854.158-.854 1.459v7.434h2.125c1.384 0 2.298-.188 2.606-1.555l.376.064c-.174.774-.359 1.552-.45 2.312h-.22c-.199-.218-.385-.232-.837-.232h-3.617c-.619 0-1.208.059-1.845.078v-.249"/><path d="m128.152 76.234c0 1.148.123 1.148 2.356 1.148 2.315 0 3.864-1.598 3.864-4.391 0-2.731-1.549-4.361-4.221-4.361-.668 0-1.347.061-2 .202v7.402m-1.862 1.428c.777-.139.869-.496.869-1.428v-6.454c0-.978-.045-1.242-.869-1.429v-.246c.25 0 .498.027.746.043.249.02.514.033.761.033.417 0 .821-.033 1.239-.076.422-.033.838-.062 1.242-.062 3.166 0 5.088 1.783 5.088 4.964 0 1.954-1.021 4.967-4.856 4.967-.681 0-1.226-.031-1.674-.081-.437-.027-.761-.059-1.039-.059-.512 0-1.009.045-1.507.078z"/><path d="m137.224 77.662c.469-.077.854-.139.854-1.414v-6.482c0-1.256-.385-1.336-.854-1.414v-.246c.469.027.947.076 1.396.076.438 0 .871-.049 1.307-.076v.246c-.451.078-.854.158-.854 1.414v6.482c0 1.275.402 1.337.854 1.414v.25c-.436-.033-.869-.078-1.307-.078-.448 0-.927.045-1.396.078z"/><path d="m144.377 77.912c-.295-.033-.59-.078-.902-.078-.326 0-.667.045-1.01.078 0-.871.127-1.847.127-3.396l.015-3.79c0-2.015-.091-2.112-.852-2.374v-.246c.325.014.651.076.976.076.34 0 .699-.062 1.057-.076l5.466 7.621h.026l.018-4.597c0-2.297 0-2.604-1.165-2.778v-.246c.356.014.718.076 1.084.076.288 0 .565-.062.843-.076-.012.293-.113 1.254-.113 3.52l-.024 1.956c0 2.454.07 3.755.07 4.331h-.403c-.601-.901-1.236-1.779-1.873-2.672l-2.08-2.947c-.777-1.069-1.568-2.141-2.346-3.18h-.029l-.027 3.351c-.021.899-.021 1.893-.021 2.651 0 2.5.327 2.428 1.166 2.547v.249"/><path d="m160.818 77.585c-.188 0-.401 0-.604-.015-1.148 0-2.25.543-3.539.543-2.404 0-4.328-1.675-4.328-5.121 0-2.824 1.613-5.089 4.609-5.089.51 0 1.349.229 1.644.229.171 0 .341-.046.497-.229h.232c.092.683.314 1.304.59 1.907l-.311.171c-.512-.635-.994-1.429-2.637-1.429-2.375 0-3.508 1.973-3.508 4.439 0 2.621 1.242 4.469 3.508 4.469 1.628 0 2.281-.512 2.281-1.472v-1.306c0-1.275-.669-1.191-1.18-1.288v-.249c.295.049.684.08 1.023.08.358 0 .777-.031 1.07-.08.076.234.076.746.076 1.193v1.289c0 1.366 0 1.584.574 1.707v.251"/><path d="m162.324 78.113c-.036-.652-.157-1.816-.299-2.638l.371-.048c.158.746.581 2.033 2.811 2.033 1.599 0 2.498-.933 2.498-1.957 0-2.994-5.491-1.457-5.491-4.822 0-1.663 1.179-2.764 3.073-2.778 1.207 0 1.486.329 2.107.329.156 0 .28-.127.404-.205h.187c.076.651.186 1.352.323 2l-.323.08c-.261-.514-.823-1.555-2.499-1.555-1.66 0-2.356.902-2.356 1.863 0 2.779 5.49 1.288 5.49 4.824 0 1.491-1.037 2.873-3.382 2.873-1.227 0-1.83-.344-2.248-.344-.174 0-.33.079-.419.344h-.247"/><path d="m174.447 77.662c.729-.108.867-.541.867-1.414v-6.438c0-1.301-.386-1.381-.854-1.459v-.246c.468.027.922.076 1.367.076.434 0 .9-.049 1.336-.076v.246c-.45.078-.852.158-.852 1.459v7.434h2.122c1.382 0 2.3-.188 2.606-1.555l.375.064c-.174.774-.359 1.552-.451 2.312h-.219c-.201-.218-.387-.232-.836-.232h-3.611c-.624 0-1.217.059-1.852.078v-.249"/><path d="m182.328 77.662c.466-.077.855-.139.855-1.414v-6.482c0-1.256-.39-1.336-.855-1.414v-.246c.466.027.948.076 1.396.076.438 0 .872-.049 1.304-.076v.246c-.446.078-.85.158-.85 1.414v6.482c0 1.275.403 1.337.85 1.414v.25c-.432-.033-.865-.078-1.304-.078-.447 0-.93.045-1.396.078z"/><path d="m187.648 72.59c.109-1.926.109-1.443.109-2.81 0-1.429-.542-1.242-.808-1.429v-.246c.39.014.777.076 1.163.076.328 0 .637-.062.961-.076l3.139 7.96 3.056-7.96c.388.014.779.076 1.179.076.328 0 .652-.062.994-.076v.246c-.436.094-.824.201-.824 1.071 0 .186 0 .374.019.546l.355 4.952c.155 2.229.062 2.367.979 2.741v.25c-.45-.033-.901-.078-1.353-.078-.527 0-1.051.045-1.564.078v-.25c.666-.154 1.086-.119 1.086-1.134 0-.257-.019-.522-.031-.788l-.482-6.812h-.03l-1.507 3.787c-.683 1.704-1.488 4.002-1.908 5.197h-.201c-.727-1.863-1.459-3.711-2.215-5.542l-1.322-3.227h-.033l-.322 6.332c-.016.251-.016.56-.016.866 0 1.212.587 1.243 1.115 1.32v.25c-.373-.033-.744-.078-1.1-.078-.277 0-.542.045-.826.078z"/><path d="m199.564 77.662c.467-.077.852-.139.852-1.414v-6.482c0-1.256-.385-1.336-.852-1.414v-.246c.467.027.945.076 1.396.076.435 0 .869-.049 1.303-.076v.246c-.448.078-.853.158-.853 1.414v6.482c0 1.275.404 1.337.853 1.414v.25c-.434-.033-.868-.078-1.303-.078-.45 0-.929.045-1.396.078z"/><path d="m206.234 77.662c.668-.139.822-.201.822-1.414v-7.473h-.932c-1.66 0-1.828.538-2.109 1.236l-.357-.076c.186-.792.266-.993.266-1.988h.309c.029.109.168.172.343.201.168.033.37.033.508.033h4.937c.512 0 .732 0 .855-.234h.309c0 .995.08 1.196.266 1.988l-.356.076c-.218-.652-.483-1.236-2.112-1.236h-.932v7.473c0 1.168.217 1.26.824 1.414v.25c-.455-.033-.887-.078-1.334-.078-.451 0-.857.045-1.305.078v-.25"/><path d="m212.826 77.662c.774-.119.834-.418.834-1.414v-6.482c0-.699 0-1.306-.834-1.414v-.246c.188.014.389.043.594.062.196 0 .401.014.57.014h3.785c.419 0 .838-.049 1.229-.264h.212c.065.835.065.961.248 2l-.335.078c-.485-.883-.485-1.221-3.088-1.221h-1.387v3.441h1.367c2.033 0 1.986-.343 2.203-1.07h.36c-.065.464-.11.934-.11 1.412 0 .402.06.822.11 1.238h-.36c-.17-.82-.094-.991-2.203-.991h-1.367v3.442c0 .996 0 .996 1.51.996h1.333c1.579 0 1.845-.746 2.231-1.49h.327c-.091.559-.187 1.089-.187 1.647 0 .214.016.447.016.648h-.248c-.31-.216-.73-.216-1.103-.216h-4.325c-.469 0-.916.045-1.383.078v-.248"/><path d="m223.529 76.234c0 1.148.126 1.148 2.359 1.148 2.314 0 3.867-1.598 3.867-4.391 0-2.731-1.553-4.361-4.225-4.361-.668 0-1.35.061-2.002.202v7.402m-1.858 1.428c.774-.139.865-.496.865-1.428v-6.454c0-.978-.043-1.242-.865-1.429v-.246c.248 0 .495.027.741.043.249.02.515.033.764.033.418 0 .819-.033 1.237-.076.424-.033.841-.062 1.245-.062 3.165 0 5.089 1.783 5.089 4.964 0 1.954-1.027 4.967-4.857 4.967-.684 0-1.229-.031-1.675-.081-.437-.027-.761-.059-1.039-.059-.515 0-1.01.045-1.505.078z"/></g><path d="m5 5h236v2h-236z"/><path d="m5 89h236v2h-236z"/></g></svg>