<svg clip-rule="evenodd" fill-rule="evenodd" stroke-linejoin="round" stroke-miterlimit="2" viewBox="0 0 560 400" xmlns="http://www.w3.org/2000/svg"><g fill-rule="nonzero" transform="matrix(.755247 0 0 .755247 159.696 97.6323)"><path d="m229.448 147.805s-9.791-7.807-9.791-19.226v-54.857l.014-5.315c0-15.403-13.145-27.022-30.573-27.022-1.112 0-2.241.051-3.365.145l-7.231.634-5.242.463c-.565-2.521-1.317-4.958-2.269-7.264.865-1.437 1.365-3.122 1.365-4.911 0-5.266-4.263-9.523-9.525-9.527-5.264.004-9.52 4.268-9.523 9.527 0 1.788.501 3.471 1.364 4.905-1.186 2.872-2.068 5.939-2.649 9.133l-18.207 1.596c-10.899.959-13.789.765-13.789.765-16.803-.139-25.904-4.161-27.927-5.176-3.54 3.548-5.879 8.262-6.309 13.585-1.002 12.284 8.488 23.147 21.193 24.266.97.088 1.938.11 2.883.083-1.295 1.752-3.265 5.117-3.265 9.372v38.229s-15.327 5.39-15.463 22.059c0 0 31.235.879 55.103 13.341l-.838 20.009 16.797 30.026 17.419-29.954-.62-19.62s18.742-12.043 50.448-15.266" fill="#fff"/><path d="m100.288 229.028v-2.547c0-3.465-2.272-4.732-7.371-4.732h-9.27v12.19h9.93c5.095 0 6.711-1.574 6.711-4.911m-11.761 2.083v-6.533h4.268c1.707 0 2.464.324 2.464 1.903v2.547c0 1.285-.657 2.083-2.464 2.083zm-54.359 17.176c.008-.305.02-.565.031-.773.012-.208.04-.377.084-.498s.1-.259.167-.404c.202-.465.477-.826.855-.961 2.075-.744 1.77-2.798 1.77-2.798h-12.144s-.311 1.789 1.583 2.725c.322.157.626.355.873.702.088.146.169.295.233.442.069.148.122.331.153.551.035.222.055.509.066.869.012.355.018.805.018 1.345v11.312c0 .494-.006.893-.018 1.199s-.02.566-.031.774c-.012.206-.043.375-.084.5-.049.12-.104.255-.168.402-.202.469-.495.771-.857.96-1.803.926-1.768 2.797-1.768 2.797h12.145s-1.246-2.602-1.582-2.725c-.339-.124-.627-.357-.875-.7-.112-.147-.196-.293-.253-.443-.055-.144-.1-.326-.133-.552-.034-.22-.057-.502-.065-.848-.016-.344-.02-.801-.02-1.365v-11.312c0-.493.004-.894.02-1.199m-13.626-5.53c-.327.037-.679.061-1.057.073-.382.01-.846.021-1.381.021h-14.533s-.367 1.789 1.579 2.725c.33.157.63.355.879.702.086.146.165.295.229.442.071.148.122.331.155.551.035.222.057.509.068.869.008.355.014.805.014 1.345v11.315c0 .492-.006.891-.014 1.197-.012.306-.025.566-.033.774-.014.206-.043.375-.084.5-.047.12-.106.255-.171.402-.202.469-.5.754-.859.96-1.717 1.002-1.764 2.797-1.764 2.797h12.411s.084-1.91-1.797-2.707c-.367-.153-.679-.375-.928-.718-.112-.146-.194-.291-.249-.441-.057-.146-.1-.328-.135-.554-.033-.22-.059-.502-.069-.848-.01-.344-.016-.801-.016-1.363v-3.943h4.911l1.077.033c.159 0 .473.039.942.113v-4.35c-.361.1-.724.167-1.093.2-.371.039-.848.059-1.43.059h-4.407v-3.87c0-.565.021-1.015.065-1.347.049-.329.147-.581.306-.753.157-.175.389-.287.688-.332.305-.047.723-.072 1.262-.072h.338c.804 0 1.473.053 1.999.164.53.106.948.312 1.264.609.313.292.551.684.706 1.179.155.49.259 1.118.302 1.88h2.725v-8.037c-.335.126-.657.216-.959.277-.302.064-.615.113-.941.148m87.16-21.008v8.129c0 2.925.779 4.157 8.1 4.157 5.365 0 7.657-.906 7.657-4.157v-8.129h-4.88v7.917c0 1.432-.702 1.544-2.777 1.544-2.051 0-3.221-.018-3.221-1.401v-8.06zm39.004 3.122c0-2.669-2.145-3.122-5.777-3.122h-9.612v12.19h9.708c3.879 0 5.977-.402 5.977-3.396 0-1.526-.465-2.617-3.171-2.731v-.128c2.416-.262 2.875-1.272 2.875-2.813m-10.51-.458h4.095c1.367.032 1.54.311 1.54 1.042 0 .974-.414 1.17-2.123 1.17h-3.512zm3.684 6.859h-3.685v-2.386h3.78c1.586 0 2.146.142 2.146 1.152.002.989-.658 1.234-2.241 1.234m99.456 0h-8.488v-2.37h7.803v-2.262h-7.803v-2.228h8.317v-2.664h-13.194v12.19h13.365zm-28.983 2.763c5.368 0 7.66-.906 7.66-4.157v-8.129h-4.878v7.917c0 1.432-.706 1.544-2.782 1.544-2.044 0-3.218-.018-3.218-1.401v-8.06h-4.877v8.129c0 2.924.777 4.157 8.095 4.157m-56.079-12.286v8.129c0 2.925.778 4.157 8.095 4.157 5.37 0 7.663-.906 7.663-4.157v-8.129h-4.883v7.917c0 1.432-.704 1.544-2.78 1.544-2.046 0-3.218-.018-3.218-1.401v-8.06zm-31.566 26.538c.01-.305.021-.565.033-.773s.039-.377.084-.498c.041-.121.1-.259.169-.404.2-.465.473-.818.855-.961 2.017-.762 1.768-2.798 1.768-2.798h-12.145s-.273 1.899 1.581 2.725c.33.149.628.355.873.702.09.146.171.295.237.442.065.148.12.331.151.551.035.222.057.509.068.869.01.355.016.805.016 1.345v11.312c0 .494-.006.893-.016 1.199-.012.306-.021.566-.033.774-.012.206-.041.375-.086.5-.046.12-.101.255-.167.402-.202.469-.479.809-.859.96-1.96.778-1.766 2.797-1.766 2.797h12.145s.171-1.789-1.581-2.725c-.32-.167-.63-.357-.873-.7-.116-.147-.199-.293-.254-.443-.057-.144-.1-.326-.133-.552-.035-.22-.059-.502-.068-.848-.013-.344-.019-.801-.019-1.365v-11.312c.001-.493.007-.894.02-1.199m118.945 0c.014-.305.023-.565.037-.773.008-.208.035-.377.081-.498.047-.121.104-.259.173-.404.197-.465.475-.818.854-.961 2.16-.814 1.77-2.798 1.77-2.798h-12.148s-.256 1.848 1.585 2.725c.327.157.624.355.869.702.092.146.173.295.239.442.066.148.117.331.15.551.034.222.058.509.067.869.012.355.018.805.018 1.345v11.312c0 .494-.006.893-.018 1.199-.01.306-.021.566-.033.774-.012.206-.04.375-.085.5-.045.12-.1.255-.166.402-.203.469-.487.793-.857.96-2.059.926-1.77 2.797-1.77 2.797h12.148s.267-1.809-1.584-2.725c-.325-.161-.627-.357-.873-.7-.115-.147-.196-.293-.251-.443-.055-.144-.104-.326-.138-.552-.031-.22-.055-.502-.068-.848-.008-.344-.016-.801-.016-1.365v-11.312c0-.493.008-.894.016-1.199m-11.538 16.328c-.316-.177-.616-.4-.873-.721-.259-.315-.499-.739-.723-1.271-.224-.523-.469-1.194-.741-2.007l-4.811-15.109c-.116-.325-.2-.597-.271-.834-.068-.229-.129-.457-.182-.683-.056-.22-.104-.443-.151-.679-.048-.233-.103-.497-.169-.791h-5.182c-.045.294-.125.696-.251 1.213-.126.516-.334 1.208-.624 2.069l-4.877 14.996c-.27.789-.505 1.42-.705 1.896-.202.478-.418.868-.642 1.164-.228.297-.498.496-.79.681-1.489.946-1.123 2.892-1.123 2.892h9.247s.173-1.91-1.799-2.911c-.316-.159-.453-.573-.453-1.14 0-.27.031-.587.102-.941.067-.354.179-.744.338-1.16l.198-.663h5.758l.163.663c.313 1.156.471 1.892.471 2.211 0 .492-.137.887-.471 1.069-1.923 1.03-1.748 2.872-1.748 2.872h11.505s.233-2.013-1.196-2.816m-13.705-7.725 1.311-4.052.94-2.986c.047.151.084.298.119.447.029.146.074.29.118.439l.202.77c.088.249.166.529.235.848l.202.706c.045.123.076.241.098.367.02.123.061.245.101.367l.849 3.094zm45.616-14.038s-.131 1.809 1.562 2.725c.306.165.613.355.855.702.092.146.168.295.237.442.068.148.119.331.151.551.031.222.059.509.068.869.01.355.016.805.016 1.345v7.074l-5.753-7.373c-.671-.881-1.237-1.631-1.701-2.244-.455-.614-.831-1.16-1.106-1.641-.282-.48-.502-.912-.659-1.293-.155-.379-.265-.768-.333-1.157h-8.543s-.412 1.777 1.563 2.725c.312.153.61.355.857.702.089.146.167.295.235.442.067.148.116.331.153.551.029.222.053.509.065.869.01.355.018.805.018 1.345v11.312c0 .494-.008.893-.018 1.199-.013.306-.022.566-.036.774-.01.206-.037.375-.082.5-.045.12-.101.255-.169.402-.204.445-.494.735-.855.94-2.084 1.179-1.732 2.816-1.732 2.816h9.687s.414-1.604-1.563-2.725c-.309-.173-.61-.357-.857-.7-.114-.147-.196-.293-.256-.443-.057-.144-.1-.326-.135-.552-.031-.22-.053-.502-.066-.848-.012-.344-.016-.801-.016-1.365v-7.736l9.823 12.272c.269.343.49.632.673.865.181.235.332.443.453.628.122.182.231.352.322.494.088.149.176.312.267.48h3.634v-18.316c0-.493.004-.894.014-1.199.014-.305.025-.565.037-.773s.039-.377.084-.498c.041-.121.099-.259.167-.404.204-.465.483-.82.875-.961 2.003-.717 1.784-2.798 1.784-2.798h-9.72zm30.49-.13c-.344.035-.736.064-1.174.092-.438.024-.949.038-1.53.038h-11.606c-.583 0-1.092-.012-1.514-.021-.428-.011-.822-.044-1.179-.091-.359-.049-.69-.109-.995-.185-.298-.072-.605-.173-.92-.292v8.07h2.792l.031-.367c.069-.64.169-1.172.302-1.605.136-.434.309-.774.522-1.031.21-.26.475-.443.79-.556.314-.11.697-.163 1.143-.163.675 0 1.128.136 1.365.404.233.271.355.775.355 1.509v12.274c0 .494-.008.893-.02 1.199-.014.306-.021.566-.031.774-.014.206-.041.375-.087.5-.043.12-.098.257-.171.404-.221.489-.533.811-.922.976-2.229.938-1.901 2.779-1.901 2.779h12.512s.233-1.638-1.746-2.705c-.341-.187-.663-.375-.908-.72-.114-.147-.198-.293-.257-.443-.053-.144-.096-.326-.13-.552-.037-.22-.059-.502-.066-.848-.012-.344-.02-.801-.02-1.365v-12.274c0-.389.023-.71.066-.954.043-.25.13-.436.255-.572.122-.134.293-.229.507-.276.208-.054.494-.075.854-.075.468 0 .872.057 1.193.163.322.116.591.312.809.595.214.282.375.653.488 1.12.112.469.2 1.069.268 1.81h2.791v-8.07c-.312.119-.615.22-.906.292-.293.074-.611.131-.96.166m20.442 11.372c-.251-.173-.523-.342-.828-.503-.298-.158-.654-.312-1.057-.459-.406-.143-.875-.294-1.415-.439-.54-.148-1.165-.294-1.884-.443-.807-.172-1.443-.308-1.914-.408-.476-.094-.834-.184-1.08-.257-.247-.076-.438-.14-.57-.2-.136-.062-.273-.131-.402-.208-.651-.317-.979-1.038-.979-2.166 0-.914.238-1.552.706-1.921.471-.368 1.311-.551 2.522-.551.785 0 1.46.072 2.021.22.557.147 1.027.396 1.395.755.371.357.653.816.857 1.38.2.57.336 1.257.4 2.065h3.167v-8.219h-.638c-.187 0-.379-.006-.589-.018-.216-.012-.455-.021-.726-.035-.268-.014-.616-.031-1.044-.057-1.258-.095-2.294-.169-3.112-.202-.814-.04-1.562-.058-2.234-.058-1.686 0-3.09.122-4.223.369-1.134.245-2.046.663-2.744 1.25-.695.593-1.186 1.365-1.478 2.323-.292.959-.441 2.152-.441 3.576 0 2.555.544 4.353 1.618 5.38.248.224.522.426.824.61.305.185.677.369 1.129.554.445.182 1.002.366 1.665.549.659.187 1.474.389 2.437.614.721.169 1.283.304 1.699.406.416.092.736.183.962.257.22.072.396.13.518.185.126.045.253.108.391.183.669.369 1.007 1.081 1.007 2.139 0 1.106-.283 1.885-.84 2.338-.562.453-1.526.686-2.895.686-.898 0-1.657-.101-2.291-.299-.622-.193-1.145-.527-1.561-.994-.418-.467-.747-1.077-.994-1.825-.247-.745-.426-1.675-.535-2.784h-3.163v9.951c.38-.143.763-.253 1.144-.312.379-.061.883-.095 1.515-.095.381 0 .805.014 1.279.04.469.027 1.175.084 2.113.183.521.053.965.092 1.35.131.379.037.728.064 1.026.094.3.022.586.036.861.036h.867c1.548 0 2.845-.138 3.891-.41 1.037-.267 1.885-.706 2.537-1.322s1.118-1.431 1.398-2.45.418-2.269.418-3.746c.002-2.921-.693-4.886-2.08-5.893m-108.24-.503c-.3-.158-.655-.312-1.063-.459-.402-.143-.871-.294-1.412-.439-.536-.148-1.162-.294-1.882-.443-.807-.172-1.446-.308-1.915-.408-.473-.094-.83-.184-1.077-.257-.249-.076-.438-.14-.573-.2-.133-.062-.271-.131-.4-.208-.65-.317-.979-1.038-.979-2.166 0-.914.235-1.552.708-1.921.472-.368 1.312-.551 2.52-.551.787 0 1.462.072 2.022.22.558.147 1.022.396 1.394.755.372.357.659.816.861 1.38.198.57.331 1.257.4 2.065h3.16v-8.219h-.632c-.184 0-.381-.006-.596-.018-.21-.012-.453-.021-.723-.035-.267-.014-.617-.031-1.041-.057-1.258-.095-2.296-.169-3.112-.202-.818-.04-1.563-.058-2.236-.058-1.682 0-3.089.122-4.223.369-1.132.245-2.044.663-2.739 1.25-.698.593-1.188 1.365-1.477 2.323-.297.959-.441 2.152-.441 3.576 0 2.555.537 4.353 1.614 5.38.247.224.522.426.824.61s.681.369 1.128.554c.447.182 1.001.366 1.662.549.663.187 1.475.389 2.44.614.716.169 1.283.304 1.697.406.418.092.735.183.96.257.223.072.399.13.52.185.125.045.253.108.391.183.669.369 1.008 1.081 1.008 2.139 0 1.106-.282 1.885-.84 2.338-.561.453-1.528.686-2.894.686-.896 0-1.66-.101-2.29-.299-.627-.193-1.147-.527-1.563-.994-.414-.467-.745-1.077-.993-1.825-.242-.745-.426-1.675-.535-2.784h-3.162v9.951c.382-.143.763-.253 1.146-.312.376-.061.885-.095 1.511-.095.381 0 .807.014 1.275.04.473.027 1.179.084 2.123.183.514.053.963.092 1.342.131.387.037.726.064 1.027.094.305.022.591.036.859.036h.873c1.549 0 2.844-.138 3.885-.41 1.046-.267 1.888-.706 2.539-1.322s1.114-1.431 1.399-2.45c.28-1.019.426-2.269.426-3.746 0-2.92-.702-4.885-2.094-5.892-.241-.174-.52-.343-.822-.504m-150.906 3.76c.359.131.663.245.873.465.214.22.359.52.438.898.079.381.116.867.116 1.458 0 .716-.051 1.295-.163 1.75-.111.457-.302.811-.573 1.067-.273.261-.64.447-1.11.551-.473.116-1.077.173-1.817.173-2.423 0-4.081-.776-4.979-2.323-.404-.689-.69-1.533-.855-2.542-.169-1.009-.255-2.358-.255-4.056 0-1.619.088-2.963.269-4.02.181-1.055.502-1.902.961-2.543.459-.642 1.069-1.084 1.831-1.344.765-.26 1.715-.387 2.864-.387.96 0 1.78.084 2.453.259.671.173 1.222.461 1.65.863.426.406.762.959 1.007 1.659.247.701.438 1.578.575 2.636h2.89v-9.361h-.673c-.198 0-.414-.006-.64-.018-.222-.01-.467-.021-.724-.039-.253-.012-.575-.027-.958-.051-.739-.056-1.369-.089-1.886-.114-.512-.023-.971-.047-1.363-.07-.387-.027-.742-.041-1.054-.041h-1.01c-2.292 0-4.162.166-5.619.5-1.459.334-2.668.863-3.635 1.605-2.441 1.818-3.663 5.182-3.663 10.096 0 4.444.871 7.814 2.621 10.097.92 1.23 2.042 2.109 3.365 2.639 1.322.526 3.039.791 5.146.791h.906c.291 0 .602-.012.924-.035.327-.025.69-.058 1.093-.093.402-.037.889-.08 1.448-.127.785-.103 1.42-.163 1.901-.19.483-.021.946-.033 1.397-.033.583 0 1.104.027 1.563.076.457.045 1.028.147 1.697.29-.088-.735-.142-1.393-.167-1.972-.023-.574-.033-1.271-.033-2.077 0-.861.01-1.676.033-2.455.025-.774.051-1.522.084-2.244.031-.73.079-1.454.133-2.176.055-.725.118-1.481.187-2.267h-8.882c.001.001-.458 1.949 1.634 2.705m55.671-14.629c-.346.035-.737.064-1.175.092-.438.024-.95.038-1.53.038h-11.608c-.583 0-1.089-.012-1.513-.021-.428-.011-.818-.044-1.181-.091-.355-.049-.688-.109-.989-.185-.3-.072-.612-.173-.927-.292v8.07h2.797l.029-.367c.068-.64.17-1.172.308-1.605.13-.434.302-.774.521-1.031.209-.26.475-.443.786-.556.313-.11.698-.163 1.144-.163.674 0 1.129.136 1.362.404.237.271.354.775.354 1.509v12.274c0 .494-.008.893-.016 1.199-.012.306-.023.566-.033.774-.012.206-.041.375-.084.5-.045.12-.101.257-.169.404-.226.489-.544.791-.926.976-2.115 1.018-1.899 2.779-1.899 2.779h12.514s.251-1.846-1.75-2.705c-.354-.149-.661-.375-.91-.72-.11-.147-.193-.293-.25-.443-.057-.144-.1-.326-.135-.552-.031-.22-.059-.502-.066-.848-.013-.344-.017-.801-.017-1.365v-12.274c0-.389.022-.71.067-.954.045-.25.127-.436.249-.572.126-.134.296-.229.508-.276.212-.054.497-.075.857-.075.473 0 .869.057 1.193.163.323.116.593.312.806.595.217.282.375.653.489 1.12.109.469.204 1.069.269 1.81h2.794v-8.07c-.314.119-.618.22-.909.292-.291.074-.61.131-.96.166m84.772-8.767 1.995-1.802-1.995-.912c.218-.404.364-.859.364-1.63v-3.054c0-3.996-2.929-4.907-8.489-4.907-5.559 0-8.485.911-8.485 4.907v2.572c0 4.077 2.825 4.905 8.485 4.905 2.003 0 4.612-.047 6.317-1.04zm-4.66-4.927-2.609-1.232-1.927 1.815 3.241 1.416c-.632.165-1.361.183-2.17.183-2.413 0-3.461-.099-3.461-1.97v-2.193c0-2.162.389-2.568 3.439-2.568 3.072 0 3.486.406 3.486 2.568v1.981zm-46.518 13.824s-.236 1.642 1.562 2.725c.304.181.614.355.857.702.092.146.171.295.233.442.068.148.121.331.153.551.037.222.059.509.066.869.012.355.018.805.018 1.345v7.074l-5.749-7.373c-.677-.881-1.239-1.631-1.703-2.244-.459-.614-.827-1.16-1.107-1.641-.281-.48-.501-.912-.66-1.293-.154-.379-.267-.768-.331-1.157h-8.545s-.228 1.899 1.563 2.725c.312.146.61.355.857.702.087.146.169.295.236.442.068.148.117.331.152.551.033.222.053.509.064.869.017.355.021.805.021 1.345v11.312c0 .494-.004.893-.021 1.199-.012.306-.021.566-.031.774-.014.206-.039.375-.084.5-.049.12-.102.255-.169.402-.202.445-.488.756-.857.94-1.96.971-1.732 2.816-1.732 2.816h9.688s.279-1.906-1.563-2.725c-.319-.14-.614-.357-.859-.7-.114-.147-.198-.293-.253-.443-.057-.144-.099-.326-.136-.552-.031-.22-.055-.502-.068-.848-.01-.344-.016-.801-.016-1.365v-7.736l9.825 12.272c.268.343.49.632.671.865.181.235.332.443.456.628.121.182.227.352.319.494.09.149.177.312.269.48h3.63v-18.316c0-.493.006-.894.02-1.199.016-.305.023-.565.035-.773.01-.208.036-.377.085-.498.045-.121.096-.259.164-.404.202-.465.483-.834.879-.961 2.072-.676 1.78-2.798 1.78-2.798h-9.719zm-57.508 5.435c.01-.305.023-.565.033-.773.012-.208.041-.377.084-.498s.1-.259.169-.404c.2-.465.471-.857.877-.961 2.089-.53 1.812-2.798 1.812-2.798h-11.909s-.149 2.067 1.431 2.741c.345.148.633.366.855.686.092.146.17.295.239.442.066.148.117.331.149.551.035.222.057.509.069.869.01.355.018.805.018 1.345v2.615h-6.661v-2.615c0-.493.004-.894.018-1.199.012-.305.023-.565.031-.773.01-.208.042-.377.084-.498.045-.121.1-.259.169-.404.202-.414.477-.764.859-.926 1.968-.822 1.599-2.833 1.599-2.833h-11.877s-.291 1.87 1.579 2.725c.332.153.63.354.875.702.09.146.171.295.239.442.065.148.114.331.149.551.033.222.055.509.066.869.012.355.018.805.018 1.345v11.312c0 .494-.006.893-.018 1.199s-.023.566-.033.774c-.008.206-.039.375-.084.5-.045.12-.099.255-.167.402-.204.469-.488.793-.859.96-1.979.898-1.766 2.797-1.766 2.797h11.878s.115-1.991-1.433-2.742c-.335-.169-.632-.361-.859-.683-.109-.147-.194-.293-.251-.443-.057-.144-.098-.326-.133-.552-.036-.22-.055-.502-.067-.848-.014-.344-.018-.801-.018-1.365v-4.571h6.661v4.571c0 .494-.008.893-.018 1.199-.012.306-.021.566-.034.774-.01.206-.039.375-.084.5-.045.12-.1.255-.168.402-.2.418-.481.739-.857.921-1.774.845-1.599 2.836-1.599 2.836h11.909s.249-1.871-1.644-2.725c-.334-.147-.632-.357-.879-.7-.11-.147-.194-.293-.252-.443-.059-.144-.102-.326-.131-.552-.037-.22-.061-.502-.07-.848-.01-.344-.017-.801-.017-1.365v-11.312c.001-.493.008-.894.018-1.199m83.257 9.064c.367.113.663.245.877.465.212.22.357.52.434.898.081.381.118.867.118 1.458 0 .716-.054 1.295-.165 1.75-.112.457-.307.811-.575 1.067-.269.261-.64.447-1.108.551-.471.116-1.077.173-1.815.173-2.425 0-4.082-.776-4.98-2.323-.402-.689-.689-1.533-.855-2.542-.169-1.009-.254-2.358-.254-4.056 0-1.619.091-2.963.27-4.02.178-1.055.496-1.902.957-2.543.461-.642 1.073-1.084 1.834-1.344.768-.26 1.715-.387 2.863-.387.961 0 1.781.084 2.45.259.677.173 1.225.461 1.652.863.426.406.763.959 1.009 1.659.244.701.438 1.578.57 2.636h2.892v-9.361h-.676c-.197 0-.414-.006-.639-.018-.219-.01-.466-.021-.721-.039-.257-.012-.578-.027-.961-.051-.74-.056-1.368-.089-1.884-.114-.515-.023-.968-.047-1.364-.07-.388-.027-.743-.041-1.057-.041h-1.009c-2.292 0-4.161.166-5.617.5-1.46.334-2.668.863-3.638 1.605-2.44 1.818-3.665 5.182-3.665 10.096 0 4.444.875 7.814 2.626 10.097.92 1.23 2.042 2.109 3.364 2.639 1.322.526 3.039.791 5.143.791h.912c.29 0 .599-.012.924-.035.324-.025.69-.058 1.091-.093.404-.037.891-.08 1.45-.127.783-.103 1.421-.163 1.899-.19.482-.021.947-.033 1.396-.033.585 0 1.105.027 1.564.076.459.045 1.023.147 1.697.29-.089-.735-.144-1.393-.169-1.972-.021-.574-.032-1.271-.032-2.077 0-.861.012-1.676.032-2.455.025-.774.053-1.522.084-2.244.033-.73.081-1.454.138-2.176.053-.725.117-1.481.186-2.267h-8.881c.003.001-.561 2.034 1.633 2.705m13.919-182.831.386.85c.134.287.373.508.673.618 1.684.606 3.226.589 4.994-.076 4.035-1.57 6.639-6.304 5.791-10.552-.683-3.377-2.598-6.072-5.409-7.597-2.759-1.495-6.021-1.645-9.292-.406-5.689 2.213-9.582 8.316-10.068 14.88h-2.443c2.562-5.468 3.936-11.882 3.936-18.635 0-6.765-1.377-13.199-3.945-18.668 1.139-1.153 1.843-2.733 1.843-4.481 0-3.523-2.854-6.378-6.375-6.378s-6.378 2.854-6.378 6.378c0 1.748.708 3.328 1.846 4.481-2.568 5.47-3.951 11.903-3.951 18.668 0 6.753 1.381 13.167 3.938 18.635h-2.061c-.484-6.567-4.381-12.667-10.08-14.884-3.247-1.229-6.52-1.085-9.286.41-2.81 1.524-4.729 4.22-5.403 7.599-.846 4.246 1.752 8.98 5.806 10.556 1.744.655 3.306.677 4.981.066.296-.106.539-.33.669-.614l.387-.85c.171-.371.135-.8-.091-1.136-.69-1.046-1.008-2.378-.844-3.561.14-.963.562-1.71 1.162-2.05.439-.253 1-.272 1.53-.064 1.812.714 3.315 2.442 4.169 4.528h-1.114c-1.299 0-2.353 1.051-2.353 2.35 0 1.297 1.054 2.351 2.353 2.351h1.841c-.008.106-.014.21-.029.314-.042.353-.338 2.172-1.686 3.603-.287.298-.618.559-.902.726-1.127.64-2.516.706-3.844.187-.889-.35-1.693-1.383-2-2.578-.084-.332-.312-.61-.617-.761-.305-.149-.668-.159-.978-.028l-.228.093c-.404.17-.679.555-.717.99-.258 3.206 1.598 6.157 4.617 7.33.896.35 1.842.526 2.808.526h.016c2.076 0 4.052-.805 5.586-2.294.443-.465.877-1.011 1.316-1.646.132-.165.255-.337.371-.51l-2.027 48.408c4.011 1.54 7.819 3.204 11.403 4.983l.228-56.03-5.275-3.276h5.289v-.036h3.995l.718 57.504c1.925-.875 3.906-1.725 5.947-2.531l-1.532-48.978c.104.147.201.292.312.43.453.661.896 1.211 1.371 1.707 1.501 1.462 3.479 2.269 5.562 2.269h.008c.966 0 1.913-.177 2.806-.526 3.023-1.173 4.88-4.122 4.619-7.33-.032-.436-.309-.82-.715-.99l-.226-.093c-.315-.131-.671-.121-.975.028-.307.151-.536.428-.618.755-.314 1.201-1.117 2.238-1.998 2.584-1.342.523-2.723.455-3.847-.187-.286-.167-.618-.43-.896-.716-1.396-1.479-1.667-3.395-1.702-3.638-.01-.094-.015-.19-.026-.289h1.882c1.299 0 2.354-1.054 2.354-2.351 0-1.299-1.056-2.35-2.354-2.35h-1.155c.857-2.08 2.356-3.812 4.163-4.526.55-.214 1.097-.192 1.544.062.599.34 1.019 1.087 1.156 2.044.166 1.189-.151 2.521-.84 3.567-.228.336-.264.765-.096 1.136m-19.913-.8v-9.092h-3.763c-.01-.047-.025-.088-.041-.135 1.441-1.065 2.727-1.391 3.804-1.354v-2.762h-3.988c1.517-1.18 2.866-1.522 3.988-1.489v-3.51h-3.988c1.517-1.182 2.866-1.525 3.988-1.491v-2.759h-3.988c1.517-1.181 2.866-1.524 3.988-1.487v-2.763h-3.988c1.517-1.179 2.866-1.526 3.988-1.487v-2.011h-3.932c.004-.014.008-.033.01-.047 1.489-1.136 2.813-1.478 3.922-1.44v-8.409c3.296 5.533 5.156 12.718 5.156 20.119 0 7.396-1.861 14.584-5.156 20.117m-8.578-39.174c-6.807.991-13.483 1.542-19.439 1.542-11.337 0-17.788-1.838-20.399-3.531-1.359 1.334-2.08 2.559-2.073 3.581 0 2.451 6.973 5.894 22.479 5.894 5.558 0 11.736-.473 18.063-1.332.493-1.839 1.079-3.63 1.786-5.343-.156-.259-.286-.534-.417-.811m2.789-23.461c8.053-1.312 16.046-2.007 23.117-2.007 16.465 0 26.439 3.571 27.854 9.855.563-1.201.877-2.419.877-3.657 0-7.826-10.204-12.141-28.73-12.141-7.105 0-15.14.696-23.232 2.013-25.271 4.112-50.846 14.275-50.838 25.743 0 1.327.301 2.553.877 3.675 2.233-10.432 26.279-19.61 50.075-23.481m37.259 159.518v-4.517h1.646v-1.248h-4.846v1.248h1.648v4.517zm9.877.001v-5.765h-2.434l-1.212 2.815-1.164-2.815h-2.505v5.764h1.464v-4.563h.207l1.431 3.21h1.085l1.417-3.153h.169v4.507zm-1.54-150.076c0-.794-.74-1.695-2.267-2.55-3.556 3.639-13.132 8.886-28.049 12.894-.072 1.631-.537 3.169-1.334 4.489.228.551.406 1.132.61 1.693 19.532-5.064 31.04-12.398 31.04-16.526m-27.664 144.26c-2.288 1.478-4.464 3.039-6.542 4.672l.118 9.651-5.72 10.14-6.898-10.551 6.922 4.416.044-10.035-3.124-2.802c-.155-.134-3.308-2.821-9.508-6.249l-.726 17.236-.014.369 12.738 22.775 13.236-22.758zm-64.499-89.187c.769 0 1.556-.037 2.339-.105l6.02-.53c-4.285 3.647-8.288 8.845-8.288 16.624v38.363c-11.962 4.309-14.151 12.851-14.238 13.226l-.571 2.366 2.428.198c42.936 3.451 63.804 21.902 64.012 22.084l1.328 1.207 1.392-1.138c14.144-11.57 33.007-19.606 53.111-22.632l3.384-.506-2.005-2.774c-4.421-6.11-3.812-13.505-3.804-13.569l.008-60.01c0-13.075-11.392-22.941-26.495-22.941-.997 0-2.005.043-3.01.129l-11.771 1.034c.311 2.282.469 4.613.469 6.975 0 .9-.021 1.795-.066 2.684 1.211-.893 2.521-1.625 3.906-2.166 4.27-1.613 8.572-1.379 12.206.586 3.733 2.021 6.276 5.562 7.163 9.967 1.18 5.931-2.31 12.286-7.938 14.476-.014.006-.037.014-.055.018v51.122c-9.821 2.812-18.694 6.282-26.416 10.33-8.028-4.204-17.304-7.787-27.607-10.659v-48.958c-.027-.488-.031-.982 0-1.491v-.187c-.006-.063-.01-.124-.012-.186-5.635-2.239-9.088-8.561-7.913-14.454.883-4.407 3.422-7.952 7.155-9.975 3.642-1.97 7.991-2.184 12.173-.604 1.25.486 2.44 1.126 3.555 1.905-.039-.798-.057-1.605-.057-2.409 0-1.664.082-3.314.237-4.944l-19.932 1.747c-3.921.347-7.732.518-11.327.518-12.516 0-20.41-2.054-24.823-3.777l-1.644-.646-.904 1.519c-1.792 3.006-2.735 6.32-2.735 9.579-.001 10.262 8.908 18.004 20.725 18.004" fill="#cf0a2c"/></g></svg>