<svg clip-rule="evenodd" fill-rule="evenodd" stroke-linejoin="round" stroke-miterlimit="2" viewBox="0 0 560 400" xmlns="http://www.w3.org/2000/svg"><g fill-rule="nonzero" transform="matrix(.387055 0 0 .387055 96.1294 151.618)"><path d="m29.5 125c0-56.8 46.1-102.9 102.9-102.9h55.6l-29.8 29.8 13.7 13.7 61.5-63h-101.1c-67.5.1-122.3 54.8-122.3 122.4v95.1l19.5-17.9z"/><path d="m254.7 29.9-19.5 17.9v77.2c0 56.8-46.2 102.9-102.9 102.9h-55.6l29.8-29.8-13.7-13.7-61.5 63h101c67.6 0 122.3-54.8 122.3-122.3v-95.2z"/><path d="m368 36.6h97v16.3h-78.9v69.2h67.7v16.3h-67.7v82.6h-18.1z"/><path d="m496.2 36.6h17.8v149.2c0 17.3 7.9 19.9 14.7 19.9 1.5 0 3-.1 4.4-.3v16c-2.2.3-4.4.5-6.6.5-11 0-30.4-3.4-30.4-32.3z"/><path d="m632.4 139.4h7.3v-3.4c0-25.4-13.9-34.1-32.8-34.1-21.8 0-37.2 12.6-37.2 12.6l-8.4-13.6s17.3-14.9 47-14.9c31.7 0 49.3 17.6 49.3 50.6v84.4h-17v-14.4c0-3.7.2-7.4.5-11h-.5s-11 28.6-44 28.6c-22 0-44.9-12.9-44.9-39.1-.1-44.7 57.9-45.7 80.7-45.7zm-33.1 69.5c25.2 0 40.4-26.2 40.4-49v-5.9h-7.6c-20.7 0-62.2.8-62.2 29.9 0 12.4 9.7 25 29.4 25z"/><path d="m702.9 105.5h-17.3v-14.9h17.6v-38h17.6v38h33.1v14.9h-33v65.6c0 31 19.7 34.9 29.6 34.9 2 0 4-.2 6-.5v16c-2.5.4-5.1.6-7.6.5-15.2 0-45.9-5-45.9-49z"/><path d="m790.8 105.5h-17.3v-14.9h17.6v-38h17.6v38h33v14.9h-33v65.6c0 31 19.7 34.9 29.6 34.9 2 0 4-.2 6-.5v16c-2.5.4-5.1.6-7.6.5-15.2 0-45.9-5-45.9-49z"/><path d="m873.7 89h17.6v23.3c0 5.8-.5 10.5-.5 10.5h.5c6.3-19.9 21-35.1 41.7-35.1 2.4 0 4.8.3 7.1.8v17.6c-2.2-.3-4.4-.5-6.6-.5-18.7 0-32.5 14.7-38.3 34.1-2.5 8.3-3.7 17-3.7 25.7v55.6h-17.8z"/></g></svg>