<svg clip-rule="evenodd" fill-rule="evenodd" stroke-linejoin="round" stroke-miterlimit="2" viewBox="0 0 560 400" xmlns="http://www.w3.org/2000/svg"><path d="m0 14.5h39.7v13.5h-24.7v10.3h22.2v12.9h-22.2v21.6h-15zm45.1 0h39.7v13.5h-24.7v10.3h22.2v12.9h-22.2v21.6h-15zm94.5 0h20.8c13.8 0 22.8 7.2 22.8 20.3v.3c0 14-10.2 20.7-22.9 20.8h-5.8v16.9h-14.9zm20.2 29.1c5.3 0 8.4-3.1 8.4-8v-.2c0-5.3-3.1-8.1-8.5-8.1h-5.2v16.3zm-25.6-29.1v13.5h-14.4v44.8h-15v-44.8h-14.4v-13.5h14.4v-14.5h15v14.5zm-6.5 5.7h-14.4v-13.8h-2v13.8h-14.5v2h14.4v44.1h2v-44.1h14.4v-2zm64.9-5.7h18.6v4.9h-13.2v5.2h11.6v4.9h-11.6v9.4h-5.4zm20.1 12.2c0-7 5.5-12.7 13-12.7s12.9 5.6 12.9 12.5v.1c0 6.9-5.5 12.6-13 12.6-7.5.1-12.9-5.5-12.9-12.5zm20.4 0c0-4.3-3.1-7.7-7.4-7.7s-7.3 3.4-7.3 7.6v.1c0 4.2 3.1 7.7 7.4 7.7s7.3-3.5 7.3-7.7zm8 0c0-7 5.5-12.7 13-12.7s12.9 5.6 12.9 12.5v.1c0 6.9-5.5 12.6-13 12.6-7.5.1-12.9-5.5-12.9-12.5zm20.4 0c0-4.3-3.1-7.7-7.4-7.7s-7.3 3.4-7.3 7.6v.1c0 4.2 3.1 7.7 7.4 7.7 4.3-.1 7.3-3.5 7.3-7.7zm8.7-12.2h9.5c7.7 0 13 5.3 13 12.1v.1c0 6.9-5.3 12.2-13 12.2h-9.5zm5.4 4.8v14.7h4.1c4.4 0 7.4-3 7.4-7.3v-.1c0-4.3-3-7.4-7.4-7.4zm28.9-4.8h18.6v4.9h-13.2v5.2h11.6v4.9h-11.6v9.4h-5.4zm20.2 12.2c0-7 5.5-12.7 13-12.7s12.9 5.6 12.9 12.5v.1c0 6.9-5.5 12.6-13 12.6-7.5.1-12.9-5.5-12.9-12.5zm20.3 0c0-4.3-3.1-7.7-7.4-7.7s-7.3 3.4-7.3 7.6v.1c0 4.2 3.1 7.7 7.4 7.7s7.3-3.5 7.3-7.7zm8.7-12.2h11.2c3.1 0 5.5.9 7.1 2.5 1.4 1.4 2.1 3.3 2.1 5.6v.1c0 3.9-2.1 6.4-5.2 7.6l6 8.7h-6.3l-5.2-7.8h-4.2v7.8h-5.4zm10.8 11.8c2.6 0 4.1-1.4 4.1-3.5v-.1c0-2.3-1.6-3.5-4.2-3.5h-5.3v7h5.4zm-164.5 27.1h-7.4v-4.9h20.2v4.9h-7.4v19.4h-5.4zm16-4.9h5.4v9.7h9.9v-9.7h5.4v24.4h-5.4v-9.8h-9.9v9.8h-5.4zm25 0h18.5v4.8h-13.1v4.9h11.5v4.8h-11.5v5.1h13.2v4.8h-18.6zm33.1 0h10c5.8 0 9.3 3.4 9.3 8.4v.1c0 5.6-4.4 8.6-9.9 8.6h-4.1v7.3h-5.4zm9.6 12.3c2.7 0 4.3-1.6 4.3-3.7v-.1c0-2.4-1.7-3.7-4.4-3.7h-4.1v7.5zm12.1 0c0-7 5.5-12.7 13-12.7s12.9 5.6 12.9 12.5v.1c0 6.9-5.5 12.6-13 12.6s-12.9-5.6-12.9-12.5zm20.3 0c0-4.3-3.1-7.7-7.4-7.7s-7.3 3.4-7.3 7.6v.1c0 4.2 3.1 7.7 7.4 7.7s7.3-3.6 7.3-7.7zm8.1 0c0-7 5.5-12.7 13-12.7s12.9 5.6 12.9 12.5v.1c0 6.9-5.5 12.6-13 12.6s-12.9-5.6-12.9-12.5zm20.3 0c0-4.3-3.1-7.7-7.4-7.7s-7.3 3.4-7.3 7.6v.1c0 4.2 3.1 7.7 7.4 7.7s7.3-3.6 7.3-7.7zm9.2-12.3h11.2c3.1 0 5.5.9 7.1 2.5 1.4 1.4 2.1 3.3 2.1 5.6v.1c0 3.9-2.1 6.4-5.2 7.6l6 8.7h-6.3l-5.2-7.8h-4.2v7.8h-5.4zm10.8 11.8c2.6 0 4.1-1.4 4.1-3.5v-.1c0-2.3-1.6-3.5-4.2-3.5h-5.3v7h5.4z" fill="#0061ac" fill-rule="nonzero" transform="matrix(1.22783 0 0 1.22783 49.8431 155)"/></svg>