<svg clip-rule="evenodd" fill-rule="evenodd" stroke-linejoin="round" stroke-miterlimit="2" viewBox="0 0 560 400" xmlns="http://www.w3.org/2000/svg"><g transform="matrix(2.34558 0 0 2.34558 -323.873 -1403.88)"><path d="m299.642 662.439c-.107-1.837.217-4.755-.32-6.484h-42.146c-2.372-7.348-1.94-15.127-.54-22.798h52.817v11.669l-7.761-6.483c-13.151-.431-25.545.164-38.801 0-1.945 3.567-1.836 6.916-1.081 10.588l1.297.865 39.339.199c1.725 1.861 3.978 1.529 5.901 3.351 1.399 10.805-1.078 22.264 3.646 31.658 1.292 4.12 3.779 9.171 2.785 13.505l-3.883 11.365h-18.643l2.37-5.941 5.927-1.514 3.125-4.969-7.975-7.239c-3.988 4.322-7.221 8.318-10.67 12.966l-.753 6.697h-19.939c.104-1.727.643-3.886 1.613-5.617l5.608-1.838c4.526-8.318 9.806-14.695 13.471-23.34-6.469 2.378-13.044 5.727-19.615 8.538l-16.816-.217-5.173 9.51c1.077 4.453 8.287 7.443 4.11 12.75l-20.91.2 1.831-5.187c1.834-.647 3.558-1.62 5.176-3.025-1.618-3.673-3.126-7.452-4.958-10.912-3.449 4.212-8.516 9.076-11.855 13.957l1.508 5.187h-18.281c1.297-3.242 1.402-7.671 5.93-8.211 2.911-3.89 5.712-7.994 7.977-11.992-1.186-3.351-2.265-6.699-3.558-10.051-2.261 0-3.772 1.731-6.035 2.594 3.663-8.103 6.469-16.423 9.054-24.96-1.726-2.053-3.128-3.346-4.312-5.941.432-.973.863-2.053 1.727-2.809 2.476.731 4.839 2.592 6.762 4.121 1.513-1.513 2.267-3.349 3.882-4.972l-.756-.431h-13.445c-.648.542-.972 1.404-.757 2.26-1.293.537-2.804.215-4.203.322l.756-5.726c2.695.332 5.172-.541 7.544-.326.218-3.133-2.477-5.184-2.588-8.533h11.64c.648-.648.648-1.946 1.511-2.271 8.084.531 17.039.465 24.143-2.918l1.511.325-2.372 7.443c.755.997 1.724-.54 2.586-.756 1.94 8.839.663 17.412 2.121 25.177zm-79.978-20.45c-1.829.542-4.74.76-6.467 1.729 2.479 0 5.172.199 7.546-.216-.432-.516-.352-1.38-1.081-1.487z"/><g fill="#005695" transform="translate(200.17 717.421)"><path d="m-.274 19.668v-18.963h10.444v3.792h-6.004v3.361h5.525v3.795h-5.525v8.015z"/><path d="m24.903 13.626c0 4.272-1.488 6.499-5.977 6.499-4.492 0-6.056-2.228-6.056-6.499v-7.714c0-3.641 2.169-5.662 6.056-5.662 3.882 0 5.966 1.994 5.966 5.662v7.714zm-4.439-7.409c0-1.165-.101-2.556-1.564-2.556-1.412 0-1.589 1.391-1.589 2.556v7.788c0 1.063.199 2.725 1.591 2.703 1.437 0 1.538-1.618 1.538-2.703v-7.788z"/><path d="m39.682 13.626c0 4.272-1.488 6.499-5.979 6.499-4.489 0-6.053-2.228-6.053-6.499v-7.714c0-3.641 2.17-5.662 6.053-5.662 3.887 0 5.967 1.994 5.967 5.662v7.714zm-4.44-7.409c0-1.165-.101-2.556-1.564-2.556-1.41 0-1.588 1.391-1.588 2.556v7.788c0 1.063.199 2.725 1.591 2.703 1.439 0 1.539-1.618 1.539-2.703v-7.788z"/><path d="m42.583 19.667v-18.962h4.818c1.613 0 3.58.067 4.972.884 1.717.997 1.989 2.858 1.989 4.652v8.447c-.025 1.896-.605 3.286-1.889 4.095-1.161.759-2.576.884-3.937.884zm4.439-3.384c2.976.199 3.003-1.012 2.927-3.542v-6.194c-.026-2.223-.758-2.351-2.927-2.4z"/><path d="m64.197 19.667v-18.962h4.438v15.172h5.429v3.79z"/><path d="m76.504.705h4.442v18.962h-4.442z"/><path d="m96.025 13.626c0 4.272-1.487 6.499-5.976 6.499s-6.056-2.228-6.056-6.499v-7.714c0-3.641 2.169-5.662 6.056-5.662 3.882 0 5.967 1.994 5.967 5.662v7.714zm-4.44-7.409c0-1.165-.101-2.556-1.564-2.556-1.413 0-1.588 1.391-1.588 2.556v7.788c0 1.063.199 2.725 1.592 2.703 1.434 0 1.534-1.618 1.534-2.703v-7.788z"/><path d="m102.709 9.048-.049.049.402 10.57h-4.213v-18.963h4.567l3.431 10.595h.076l-.432-10.595h4.214v18.963h-4.539z"/></g></g></svg>