<svg clip-rule="evenodd" fill-rule="evenodd" stroke-linejoin="round" stroke-miterlimit="2" viewBox="0 0 560 400" xmlns="http://www.w3.org/2000/svg"><g transform="matrix(1.81752 0 0 1.81752 128.425 48.4371)"><circle cx="83.395" cy="83.395" r="83.34" transform="matrix(.977526 -.210813 .210813 .977526 -15.705 19.45)"/><g fill-rule="nonzero"><path d="m146.84 130c9.73-13.581 14.967-29.873 14.975-46.58 0-43.54-35.23-79.05-78.42-79.05s-78.425 35.485-78.425 79.025c-.01 16.37 5.069 32.346 14.53 45.705l37.53-26 6.97 5.72-11.475 8.68 8 6.58 40.045-29.465zm-8.22-19.915-37.295-28.45-27.785 20.655-16.245-12.625-29.325 19.735c-3.779-8.146-5.733-17.02-5.725-26 0-33.95 27.47-61.64 61.15-61.64s61.145 27.685 61.145 61.635c-.012 9.213-2.032 18.313-5.92 26.665z" fill="#ed1c24"/><path d="m24.065 110.045-9.375 3.595-2.465-6.425 1.585-.61 1.745 4.535 2.215-.85-1.5-3.915 1.585-.61 1.5 3.915 4-1.53.725 1.895zm-7.855-6.6c-.858.211-1.75.242-2.62.09-.545-.117-1.065-.33-1.535-.63-.455-.277-.848-.644-1.155-1.08-.414-.615-.7-1.307-.84-2.035-.336-1.283-.115-2.649.61-3.76.71-1.06 1.865-1.76 3.465-2.1 1.346-.369 2.786-.189 4 .5 1.11.717 1.866 1.871 2.08 3.175.338 1.284.122 2.653-.595 3.77-.814 1.116-2.04 1.861-3.405 2.07zm-.5-2.03c.923-.126 1.766-.592 2.365-1.305.458-.611.622-1.396.445-2.14-.139-.746-.606-1.393-1.27-1.76-.848-.407-1.818-.485-2.72-.22-.917.122-1.758.578-2.36 1.28-.313.462-.48 1.008-.48 1.567 0 .961.495 1.857 1.31 2.368.841.4 1.802.475 2.695.21zm-1.825-9.325c-.876.087-1.761-.007-2.6-.275-.524-.186-1.011-.462-1.44-.815-.414-.337-.754-.756-1-1.23-.322-.668-.509-1.394-.55-2.135-.149-1.317.263-2.637 1.135-3.635.85-.95 2.095-1.5 3.725-1.595 1.383-.18 2.782.198 3.885 1.05.998.864 1.587 2.11 1.62 3.43.154 1.318-.25 2.643-1.115 3.65-.963.993-2.282 1.562-3.665 1.58zm-.215-2.09c.923-.004 1.813-.348 2.5-.965.486-.504.758-1.178.758-1.878 0-.827-.379-1.609-1.028-2.122-.786-.517-1.734-.729-2.665-.595-.919.001-1.808.335-2.5.94-.453.512-.704 1.173-.704 1.856 0 .827.366 1.612.999 2.144.772.527 1.714.748 2.64.62zm5-11.725-8.305-.73-.26 2.97-1.695-.15.695-7.945 1.695.145-.26 2.965 8.31.725-.18 2zm-9-8.55.9-3.91c.124-.582.291-1.153.5-1.71.146-.352.366-.67.645-.93.288-.258.629-.45 1-.56.215-.062.437-.093.66-.093 1.135 0 2.12.81 2.34 1.923.266-.509.689-.919 1.205-1.17.499-.225 1.059-.274 1.59-.14.449.108.868.316 1.225.61.342.293.606.668.765 1.09.174.457.229.951.16 1.435-.045.335-.205 1.135-.5 2.395l-.735 3.335-9.78-2.26zm2.08-1.6 2.265.5.3-1.295c.175-.77.275-1.25.295-1.445.049-.302-.01-.612-.165-.875-.157-.246-.408-.416-.695-.47-.266-.071-.55-.041-.795.085-.243.15-.422.385-.5.66-.07.19-.21.75-.425 1.68l-.265 1.135zm3.895.9 2.615.605.42-1.83c.119-.448.204-.904.255-1.365.022-.289-.06-.576-.23-.81-.183-.249-.456-.417-.76-.47-.265-.069-.545-.054-.8.045-.246.097-.454.273-.59.5-.26.553-.446 1.138-.555 1.74l-.365 1.595zm9.585-15.2-10.815-.035-.805 2 7.845 7.385.805-2-1.8-1.625 1.5-3.72 2.44.04.825-2.045zm-5.08 2-1 2.54-2.95-2.655 4 .115zm5.765-2.965-8.625-5 1-1.755 7.16 4.13 2.5-4.365 1.47.85-3.535 6.115zm4.445-7.21-7.86-6.15 1.245-1.595 6.505 5.095 3.105-3.97 1.33 1.04-4.35 5.565zm7.815-9.38-6.585-7.58 5.195-4.5 1.115 1.28-3.665 3.19 1.555 1.79 3.17-2.75 1.115 1.285-3.165 2.75 2.795 3.22-1.53 1.33zm6.5-5.615 6.5-4.045-.895-1.435-4.78 2.97-1.445-2.315 4.275-2.67-.9-1.435-4.275 2.67-1.155-1.895 4.59-2.87-.9-1.44-6.32 3.95 5.32 8.5zm3.75-14.235 3.385-1.5c.579-.28 1.193-.484 1.825-.605.595-.083 1.201-.003 1.755.23.586.249 1.112.623 1.54 1.095.529.605.956 1.293 1.265 2.035.308.657.505 1.359.585 2.08.078.696-.011 1.4-.26 2.055-.216.508-.55.957-.975 1.31-.468.384-.99.696-1.55.925l-3.5 1.555-4.055-9.18zm2.575.73.83-.37c.5-.246 1.022-.444 1.56-.59.346-.08.708-.063 1.045.05.358.138.676.363.925.655.38.468.687.99.91 1.55.272.557.462 1.149.565 1.76.066.369.033.748-.095 1.1-.136.277-.338.516-.59.695-.337.236-.699.432-1.08.585l-1.38.62zm10.69 4.35-2.77-9.65 7.155-2.05.47 1.63-5.205 1.5.61 2.14 4.845-1.39.47 1.625-4.845 1.39.75 2.625 5.39-1.545.47 1.625zm9.075-2.5-1.225-9.97 4.235-.5c.78-.127 1.575-.127 2.355 0 .504.119.953.405 1.275.81.349.43.567.95.63 1.5.106.675-.049 1.366-.435 1.93-.46.598-1.121 1.012-1.86 1.165.425.177.823.414 1.18.705.49.452.94.945 1.345 1.475l1.46 1.8-2.41.295-1.72-2c-.385-.471-.799-.917-1.24-1.335-.189-.163-.413-.28-.655-.34-.34-.05-.685-.05-1.025 0l-.41.05.5 4.16-2 .25zm1.305-6 1.5-.185c.603-.036 1.201-.142 1.78-.315.219-.104.396-.281.5-.5.117-.238.158-.508.115-.77-.021-.297-.153-.576-.37-.78-.224-.193-.509-.3-.805-.3-.163 0-.653.05-1.47.15l-1.57.19.31 2.53zm17.7 5.035-3.845-10.11-2.145-.035-4.085 9.97 2.15.04.87-2.27 4 .075.85 2.295 2.205.04zm-3.665-4.035-2.74-.05 1.42-3.7zm5.895 4.55 1-8.28-2.96-.36.21-1.69 7.92.975-.17 1.685-2.95-.36-1.05 8.28zm6.21 1.08 2.26-9.785 1.975.455-2.26 9.785-2-.455zm5.13-3.925c.289-.833.749-1.596 1.35-2.24.396-.394.858-.715 1.365-.95.482-.231 1.006-.36 1.54-.38.74-.009 1.474.129 2.16.405 1.26.414 2.286 1.346 2.82 2.56.5 1.17.46 2.525-.125 4.05-.423 1.329-1.357 2.438-2.595 3.08-2.521.982-5.41-.125-6.63-2.54-.499-1.294-.458-2.737.115-4zm1.975.685c-.394.844-.462 1.804-.19 2.695.412 1.024 1.41 1.698 2.514 1.698.418 0 .831-.097 1.206-.283.793-.49 1.382-1.253 1.655-2.145.394-.836.471-1.787.215-2.675-.275-.707-.851-1.257-1.57-1.5-.707-.299-1.511-.269-2.195.08-.793.489-1.379 1.253-1.645 2.145zm6.75 8.175 1.63.935 3.275-5.67.235 7.695 1.755 1 5.04-8.675-1.63-.945-3.37 5.81-.205-7.86-1.71-1-5 8.695zm15 3.7c.581-.661 1.293-1.196 2.09-1.57.516-.216 1.066-.341 1.625-.37.531-.03 1.064.047 1.565.225.691.268 1.321.671 1.855 1.185 1.01.859 1.611 2.105 1.655 3.43.023 1.277-.522 2.512-1.635 3.705-.888 1.077-2.17 1.756-3.56 1.885-1.312.045-2.584-.465-3.5-1.405-1.016-.856-1.625-2.102-1.675-3.43.023-1.383.6-2.7 1.6-3.655zm1.575 1.375c-.682.635-1.105 1.501-1.185 2.43v.028c0 1.484 1.221 2.705 2.705 2.705.068 0 .137-.003.205-.008.927-.159 1.765-.652 2.355-1.385.68-.626 1.107-1.48 1.2-2.4-.033-1.515-1.289-2.744-2.804-2.744-.049 0-.097.001-.146.004-.918.156-1.747.644-2.33 1.37zm3.16 10.085 1.245 1.6 3.365-2.63 2.59 3.305 1.34-1.045-2.58-3.305 1.87-1.465 3 3.83 1.34-1.045-4.27-5.425-7.91 6.18zm11.25 17.56-1-1.965 1.635-1.815-1.825-3.575-2.405.295-1-1.915 10.725-1.075.975 1.91-7.125 8.14zm1.845-5.125 2.69-2.93-3.935.5 1.245 2.445zm-1.46 6.1.66 1.915 3.96-1.365.135.39c.125.32.201.657.225 1-.005.249-.072.493-.195.71-.317.521-.666 1.022-1.045 1.5l-1.605 2.09.79 2.295 1.455-1.8c.434-.505.824-1.047 1.165-1.62.209-.41.359-.848.445-1.3.299.685.831 1.243 1.5 1.575.642.256 1.358.256 2 0 .531-.175 1.001-.498 1.355-.93.33-.399.515-.898.525-1.415-.039-.789-.208-1.566-.5-2.3l-1.39-4.005-9.5 3.27zm6.14.03 2.405-.83.5 1.5c.265.775.42 1.245.45 1.41.143.597-.219 1.207-.81 1.37-.248.097-.521.115-.78.05-.236-.061-.443-.203-.585-.4-.303-.53-.541-1.094-.71-1.68l-.5-1.415zm-3.07 9.5 9.86-1.915.575 2.975-6.375 3.095 7.07.465.58 3-9.86 1.915-.355-1.85 7.755-1.5-8.14-.45-.37-1.92 7.38-3.455-7.76 1.5-.365-1.85zm1.675 11.545 10.035-.35.26 7.44-1.7.06-.19-5.415-2.225.08.175 5.035-1.69.06-.175-5.035-2.73.095.195 5.605-1.69.055zm.035 9.415 9.955 1.25-.235 1.955-7.16 3.26 6.655.785-.225 1.865-9.97-1.225.25-2 7-3.22-6.5-.8.23-1.865zm-1.62 9.86 9.82 2.09-.42 2-9.825-2.085.425-2zm-4.185 12.255 10.815-.155.77-2-8-7.25-.77 2 1.83 1.59-1.435 3.745h-2.445l-.79 2.055zm5.045-2.06 1-2.56 3 2.605z"/><path d="m37.56 82.845 7.205-10.09 9.61 5.285 2.24 7.21 17 12.5 28.345-19.7 13.93-4.32 11.375 10.89-2.885 9.925 2.72 2.085 3.685-12.65 3.685-3.685v10.705l-2.565 9.77 2.965 1.5c1.997-5.707 2.963-11.724 2.855-17.77-.37-30.415-24.275-55.2-54.045-55.2s-54.04 24.785-54.04 55.2c-.007 6.454 1.105 12.861 3.285 18.935l3.16-1.68-3.5-11.19-.22-7.065 2.275.415 5.36 14.705 2.275-1.45z" fill="#0067ac"/><path d="m69.615 34.05-2.585 5.45-21.19 12.9h-3c6.75-9.995 16.345-15.465 26.775-18.35z"/><path d="m68.15 42.17-21.14 13.13-.645 14.895 8.49 4.805 22.58-16.175 2.405-13.455z"/><path d="m82.88 45.37 16.815-4.325 16.335 15.215-1.44 14.255-12.81 4.165-20.66-15.855z"/><path d="m100.245 34.95.34 3.1 17.75 16.585 7.76.17c-7.37-9.95-15.275-16.69-25.85-19.855z"/><path d="m45 115.145c24.82 24.125 52.595 23.36 77.32.285l22.125 17.46c-14.395 18-36.44 29.55-61.07 29.55-24.97 0-47.28-11.87-61.66-30.295z" fill="#f58220"/><path d="m59.5 146.105-2.3 4.755-2.3-1.025 2.3-4.755c.662-1.088.377-2.518-.65-3.27-.485-.372-1.014-.682-1.575-.925l-4.905-2.18.795-1.655 5.29 2.35c.752.335 1.573.487 2.395.445.843-.043 1.51-.577 2-1.6.82-1.707.243-2.998-1.73-3.875l-5.5-2.44.79-1.63 4.93 2.195c.878.377 1.716.843 2.5 1.39.583.394 1.079.905 1.455 1.5.304.511.452 1.101.425 1.695-.02.32-.074.636-.16.945-.099.356-.232.703-.395 1.035-.59 1.22-1.29 1.95-2.085 2.185-.59.214-1.221.293-1.845.23.234.197.438.428.605.685.282.466.444.996.47 1.54.054.833-.122 1.665-.51 2.405z"/><path d="m75.07 142.315c-.062-.771.237-1.529.81-2.05.587-.467 1.294-.76 2.04-.845.975-.126 1.958-.167 2.94-.12l2.665.09-.03 4.73 1.27.045c.996.022 1.983.19 2.93.5.746.241 1.44.621 2.045 1.12.499.409.905.921 1.19 1.5.123.262.22.535.29.815.068.275.102.557.1.84v1.86c-.004.792-.248 1.564-.7 2.215-.546.774-1.305 1.373-2.185 1.725-1.164.473-2.421.675-3.675.59h-10.76l-.1-1.94h7l.05-7.77h-.635c-1.234-.038-2.45-.305-3.585-.79-.506-.204-.943-.552-1.255-1-.288-.446-.435-.969-.42-1.5zm9.695 3.445-1.27-.045v7.35l1.27.045c.514.008 1.027-.042 1.53-.15 2.07-.405 2.41-1.765 2.41-3.58.058-.835-.213-1.661-.755-2.3-.437-.487-.996-.847-1.62-1.045-.505-.154-1.027-.246-1.555-.275zm-3.8-1.73v-3.16h-.595l-.66-.025c-.385-.017-.77.02-1.145.11-.302.063-.576.223-.78.455-.108.122-.186.268-.23.425-.06.203-.088.414-.085.625-.025.39.15.768.465 1 .371.248.796.404 1.24.455.594.075 1.192.113 1.79.115z"/><path d="m100.5 139.46c-.388-.67-.443-1.484-.15-2.2.338-.675.858-1.243 1.5-1.64.827-.529 1.699-.986 2.605-1.365l2.445-1.055 2 4.28 1.165-.5c.906-.412 1.868-.689 2.855-.82.777-.104 1.566-.056 2.325.14.632.157 1.221.452 1.725.865.225.18.432.383.615.605.176.222.326.463.445.72l.795 1.68c.335.719.446 1.522.32 2.305-.163.935-.594 1.804-1.24 2.5-.849.929-1.899 1.65-3.07 2.11l-9.715 4.6-.92-1.71 6.335-3-3.28-7.04-.28.12-.3.13c-1.131.49-2.343.766-3.575.815-.541.032-1.08-.089-1.555-.35-.456-.284-.814-.701-1.025-1.195zm10.23-1.04-1.165.5 3.14 6.645 1.165-.5c.465-.216.906-.481 1.315-.79 1.7-1.255 1.425-2.63.65-4.27-.305-.779-.903-1.409-1.665-1.755-.604-.254-1.266-.34-1.915-.25-.524.074-1.036.214-1.525.415zm-4.17.065-1.35-2.855c-.11.045-.29.12-.545.235l-.605.26c-.359.147-.696.344-1 .585-.242.188-.418.449-.5.745-.038.165-.038.335 0 .5.032.209.096.411.19.6.147.356.462.615.84.69.442.064.892.023 1.315-.12.571-.174 1.13-.382 1.675-.625z"/></g></g></svg>