<svg clip-rule="evenodd" fill-rule="evenodd" stroke-linejoin="round" stroke-miterlimit="2" viewBox="0 0 560 400" xmlns="http://www.w3.org/2000/svg"><path d="m134.3 356.9c-3.8-3.7-7.4-7.8-11.3-11.4 21-21.5 28.6-28.4 41.6-45.4 5.2-6.2 8.6-13.6 10-21.6.2-1.5.3-3 .5-5.5 4.2 7.2 6.3 15.4 6 23.7-.4 14-7.7 24.7-16.2 34.9-5.1 6.2-20.8 21.6-27.7 28.3-1.5-1.5-1.4-1.5-2.9-3zm-24.5-25.6c-.7-.7-2.3-2.4-3-3.2 14.9-14.1 28.8-29.3 41.5-45.5 4.6-5.7 8.5-12.1 7.5-20-.3-1.6-.7-3.3-1.3-4.8.1 10.3-5.6 17.8-11.3 25.2-1.5 2-3.2 3.8-4.8 5.7-1.3 1.7-3 3-5 3.8s-4.1 1-6.2.5c-2.9-.8-6-.5-8.7.8s-4.9 3.4-6.2 6.2c-.9 2-1.5 4.2-1.5 6.4-.1 5-3 7.9-7.9 7.1-3.8-.8-7.5-1.8-11.2-3.1-.6-.1-1.2-.3-1.7-.7s-.9-.9-1.2-1.5-.4-1.2-.3-1.8.3-1.2.6-1.8c2.8-6.4 5.5-12.8 8.6-19 2.4-4.9 5.3-9.5 3.1-15.4-.3-.9.8-2.5 1.6-3.6 3.7-4.6 7.5-9.2 11.3-13.8-.6-.5-1.1-1-1.6-1.6-1.7-2.2-3.2-4.5-5.5-7.7l11.4 1.1-2.1-4c6.9-1 10.3 2.3 14.4 6.9.2-.6.6-1.2 1.1-1.6.5-.5 1-.8 1.6-1 11.9-2.7 27 5.3 36.5 17.7 2.1 2.8 3.3 6.2 3.5 9.8.1 3.5-.8 7-2.8 10-3.8 6.6-8.2 12.9-13.2 18.8-9.1 11.2-11.6 12.9-37.2 40.3-3.8-3.6-6.4-6.6-10-10.2zm412.8 5.5c-4.8-1.9-9.2-4.9-12.8-8.6-3.6-3.8-6.3-8.2-8.2-13-2-5.2-3-10.6-3-16.2 0-5.5 1-11 3-16.2 1.8-4.8 4.6-9.2 8.2-13 3.6-3.7 8-6.7 12.8-8.6 5.2-2.1 10.8-3.2 16.4-3.2 5.4 0 10.8 1 15.8 3 4.8 1.9 9.2 4.7 12.8 8.4s6.5 8 8.3 12.9c2.1 5.3 3.1 11 3.1 16.7.1 5.7-1 11.4-3.1 16.7-1.8 4.8-4.7 9.2-8.3 12.9s-8 6.5-12.8 8.4c-10.4 4-21.9 4-32.2-.2zm6.4-67.7c-3 1-5.9 2.5-8.4 4.5-5 4-8.6 9.3-10.4 15.4-.9 3.2-1.4 6.6-1.4 9.9 0 4.2.7 8.4 2.2 12.3 1.4 3.7 3.5 7.1 6.1 10 2.7 2.9 5.9 5.2 9.6 6.7 3.9 1.7 8 2.5 12.2 2.5 4 0 8-.8 11.7-2.4 3.6-1.5 6.8-3.7 9.5-6.5 2.8-2.9 4.9-6.3 6.3-10 3.1-8.2 3.1-17.2 0-25.4-1.4-3.7-3.6-7.1-6.3-10-2.7-2.8-5.9-5-9.5-6.4-3.7-1.6-7.7-2.3-11.7-2.3-3.3.1-6.6.6-9.9 1.7zm-243.7 67.7c-4.8-1.9-9.2-4.9-12.8-8.6-3.5-3.8-6.3-8.2-8.2-13-2-5.2-3-10.6-3-16.2 0-5.5 1-11 3-16.2 1.8-4.8 4.6-9.2 8.2-13 3.6-3.7 8-6.7 12.8-8.6 5.2-2.1 10.8-3.2 16.4-3.2 5.4 0 10.8 1 15.8 3 4.8 1.9 9.2 4.7 12.8 8.4s6.5 8 8.3 12.9c2.1 5.3 3.1 11 3.1 16.7.1 5.7-1 11.4-3.1 16.7-1.8 4.8-4.7 9.2-8.3 12.9s-8 6.5-12.8 8.4c-10.4 4-21.9 4-32.2-.2zm6.5-67.7c-3 1-5.9 2.5-8.4 4.5-5 4-8.6 9.3-10.4 15.4-.9 3.2-1.4 6.6-1.4 9.9 0 4.2.7 8.4 2.2 12.3 1.4 3.7 3.5 7.1 6.1 10 2.7 2.9 5.9 5.2 9.6 6.7 3.9 1.7 8 2.5 12.2 2.5 4 0 8-.8 11.7-2.4 3.6-1.5 6.8-3.7 9.5-6.5 2.8-2.9 4.9-6.3 6.3-10 3.1-8.2 3.1-17.2 0-25.4-1.4-3.7-3.6-7.1-6.3-10-2.7-2.8-5.9-5-9.5-6.4-3.7-1.6-7.7-2.3-11.7-2.3-3.4.1-6.7.6-9.9 1.7zm367.7 70.3v-80.5h49.1v9.1h-39.2v26.9h32.2v9.1h-32.2v26.3h41.6v9.1zm-63.6 0v-80.5h9.8v71.4h39.7v9.1zm-164.5-.1v-80.4h26.2c3.6 0 7.2.3 10.7 1.2 2.9.7 5.7 1.9 8.1 3.5 2.3 1.5 4.1 3.7 5.2 6.1 1.3 2.8 1.9 5.8 1.8 8.8.1 4-1.1 7.9-3.3 11.2-2.3 3.4-5.7 5.9-9.6 7.1v.2c2.3.5 4.5 1.3 6.5 2.4s3.8 2.5 5.3 4.2c1.6 1.8 2.8 3.8 3.6 6.1 1.9 5.4 1.8 11.3-.3 16.7-1.1 2.6-2.8 5-4.9 6.9-2.5 2.1-5.3 3.6-8.4 4.5-3.8 1.1-7.8 1.7-11.8 1.6zm9.8-9.1h16.7c4.9.3 9.8-.9 14.1-3.5 1.7-1.1 3-2.6 3.9-4.4s1.3-3.8 1.2-5.8c.1-2.7-.6-5.5-2.2-7.7-1.5-2.3-3.8-4-6.3-4.9-3.3-1.2-6.8-1.8-10.3-1.7h-17.1zm0-36.8h16.3c1.5 0 3.1-.1 4.6-.4s2.9-.7 4.3-1.4c1.3-.6 2.5-1.4 3.6-2.4s1.9-2.3 2.5-3.7c.6-1.6.9-3.3.9-5 0-1.8-.3-3.6-1-5.2-.7-1.5-1.8-2.9-3.1-3.9-1.7-1.2-3.5-2.1-5.5-2.5-2.7-.6-5.4-.9-8.1-.9h-14.3zm-37.2 45.9-20.5-30.7h-15v30.7h-9.8v-80.4h28.5c4.1-.1 8.1.6 11.9 1.9 3.1 1.1 6 2.9 8.3 5.3 2.1 2.3 3.7 4.9 4.8 7.8 1.1 3.2 1.6 6.6 1.6 9.9.3 5.8-1.5 11.5-5.1 16-3.7 4.2-8.6 7-14.1 7.9l-.1.1 21.4 31.5zm-35.5-39.8h16c5.1.4 10.2-1.2 14.3-4.3 1.6-1.5 2.8-3.3 3.6-5.3s1.2-4.2 1.1-6.3c.1-2.2-.2-4.3-1-6.3s-2-3.8-3.6-5.3c-3.7-2.9-8.3-4.3-13-4h-17.4zm-166.5 39.8v-80.4h51.2v9.1h-41.4v28.2h35.2v9.1h-35.2v34.1z" fill-rule="nonzero" transform="matrix(.753268 0 0 .753268 -21.1046 -26.101)"/></svg>