<svg clip-rule="evenodd" fill-rule="evenodd" stroke-linejoin="round" stroke-miterlimit="2" viewBox="0 0 560 400" xmlns="http://www.w3.org/2000/svg"><path d="m239.6 240.2c1.5 1.3 2.7 0 3.8-1 2.7-2.3 5.2-4.7 7.9-7 1.1-.9 2.3-1.6 3-2 1.5 3.5 2.4 7 4.4 9.6 4.1 5.3 10.3 5.5 15.9 3.9 7.7-2.1 15.2-5.2 22.7-8.1 2.4-.9 4.6-2.5 7.5-4.2-1.3-.2-1.6-.3-1.8-.2-6.8 2.2-13.5 4.4-20.3 6.5-3.7 1.1-7.5 2.3-11.3 2.9-6.9 1-11-2.2-12.2-9-.1-.7-.2-1.3-.3-2-.8-3.6-2.8-4.6-6.2-3-1 .5-1.9 1.1-2.9 1.7.9-2.7 2.2-5 3.5-7.3 5.5-10.1 11-20.3 16.4-30.4.6-1.2.7-2.8 1.1-4.4-3.1-.1-3.8 1.7-4.7 3.4-3.5 6.8-7 13.6-10.7 20.3-5 8.9-10.2 17.6-15.3 26.5-.8 1.1-2 2.4-.5 3.8zm-11.7-24c-4.2 10.1-8.4 20.2-12.5 30.2-.4 1-1 2-1.1 3 0 .8.4 2 1 2.2.5.2 1.8-.3 2.3-.9.7-.8.9-1.9 1.4-2.9 4-9.8 8.1-19.6 12-29.5 1-2.6 2.4-3.9 5.2-3.9 3-.1 6-.3 8.9-.9 2.2-.4 4.3-1.4 6.3-2.3.4-.2.6-1.4.6-2.1 0-.3-1.1-.7-1.7-.7-.8 0-1.5.5-2.3.6-4.3.6-8.7 1.2-13.6 1.9.8-1.8 1.3-2.9 1.7-3.9 1.9-4.2 3.8-8.3 5.6-12.5.6-1.3.9-2.9-.8-3.4-.7-.2-2.3 1-2.8 1.9-1.8 3.6-3.6 7.2-4.9 11-1.8 5.4-4.8 8.7-10.9 8.3-2-.2-3.6.8-4.3 3.2 3.3 2.3 6.7-.6 9.9.7zm-75 21.1c2.6-1 5-2.5 7.4-4 3.1-1.8 6.1-3.8 9.5-6-.9 2.4-1.9 4.2-2.3 6.1-.9 4 1.3 6.6 5.4 6.6 1.5 0 3-.1 4.4-.6 4.1-1.3 8-2.9 11.4-4.1.9 1.2 1.7 3 3 3.5 1.9.7 3.1-1 3.9-2.7s1.6-3.4 2.5-5c.7-1.3 1.5-2.7 2.7-3.4 4.3-2.8 8.7-5.4 14.1-5.6 1.4-.1 2.7-1.1 4.8-2.1-3.5-2.1-6.2-2.1-8.8-1.3-2.7.8-5.2 2.1-7.8 3.1-.7.3-1.6.5-2.4.7.1-.2.2-.4.3-.6.2-.4.5-.9.5-1.3.1-.5.4-.9.3-1.4 0-.1 0-.2-.1-.3s-.2-.2-.4-.2h-1c-.4 0-.8 0-1.2.1-.6.1-1.1.3-1.3.9-.5 1.2-.8 2.4-1.3 3.7-.1.3-.2.6-.3 1-.2.4-.3.8-.5 1.2-.2.3-.4.6-.6 1v.1c-5.3 4.5-11.6 7.1-18.1 9.2-1.7.5-3.5.4-6 .6.7-2.1.8-3.5 1.5-4.6 1.6-2.6 3.4-5.1 5.3-7.6 1.1-1.4 2.5-2.9 1.2-4.6-1.3-1.6-2.9-.4-4.3.4-4.8 3-9.5 6-14.4 8.9-3 1.8-6.1 3.5-9.6 5.6-.6-4.1 1.1-6.4 2.6-9 1-1.7 2.8-3.5.7-6.2-8.1 1.7-16.3 3.7-25.3 1.8-.3-1.4-1.5-2-3.6-1.4-2.6.8-5.2 1.3-7.8 1.8-7.8 1.5-15.6 2.9-24 4.5 5.5-11.1 10.9-21.7 16.1-32.4 1.2-2.4 2.9-3.5 5.4-4.1 23.5-5.9 47-11.9 70.6-17.8.9-.2 2 .1 3 .1.8 0 2.1.2 2.4-.2.5-.6.6-1.9.3-2.6-.8-1.6-2.1-2.9-4.2-2-1.6.7-3.3 1.2-5 1.7-22.1 5.6-44.1 11.2-66.2 16.8-.5.1-1-.1-1.7-.1.4-.9.9-1.4.9-2 0-.8-.3-1.7-.5-2.5-.9.3-2.1.4-2.8 1-.8.7-1.2 1.8-1.6 2.8-.8 2.1-2.2 3.1-4.4 3.5-6 1-11.9 2.3-17.9 3.3-2.9.5-5.9.5-8.9.8-1.2.1-3-.1-3 1.9 0 2.3 2 1.8 3.3 1.8 1.6 0 3.3 0 4.9-.2 7.3-1.1 14.6-2.2 21.6-3.3-5.2 10.8-10.6 21.8-15.8 32.8-.9 1.8-2.1 2.5-3.9 3.1-4 1.2-8 2.4-12 3.8-1.9.7-3.7 1.8-2.6 4.9 1.6-.3 3.2-.2 4.6-.8 3.4-1.4 6.7-3 10-4.5 0 1.6-.3 2.5-.7 3.3-6.5 14.1-13 28.3-19.5 42.4-.8 1.8-1.9 3.6-.8 5.6 3.1-.3 4.1-1.2 4.8-3.9.4-1.6.7-3.2 1.4-4.6 5.3-11.6 11.2-22.9 15.9-34.8 2.9-7.3 7.1-10.9 14.8-11.6 6-.6 11.9-2.1 18.6-3.4-.9 1.6-1.5 2.5-1.9 3.4-1.4 3.3-3.2 6.6-3.8 10.1-1 6.3 2.7 9.3 8.8 7 9.1-3.3 15.5-9.1 16.1-19.5 3.2-.5 6.4-1 9.2-1.4-.7 2.9-1.9 5.7-2 8.6-.4 4.1 2.1 5.7 6.1 4.2zm-19.6-4.1c-2.6 4.6-6.9 7.1-11.8 8.6-2.4.7-3.8-.3-3.1-2.6 1.2-3.8 3-7.4 4.7-11 .2-.5 1.4-.8 2.1-.9 3.2-.4 6.4-.7 10.9-1.1-1.2 2.9-1.8 5.1-2.8 7zm206.7.6c-4.7-2.9-4.6-5.9 0-8.9 5.8-3.7 11.7-7.1 17.4-10.9 4.5-3 9.3-5.7 12.9-9.6 5.6-5.9 6.1-11.5 1.5-17.4-2.7-3.4-6.7-4.9-10.9-5.6-9.9-1.7-19.3.6-28.5 4.1-.7.3-1.5.8-1.9 1.4-.5.8-.6 1.8-.9 2.7.9 0 1.9.3 2.8 0 3.2-1.1 6.4-2.4 10.5-3.9-.7 2-1 3-1.4 4-5.3 13.8-11.7 27.1-19.1 39.9-3.1 5.3-5.8 10.9-8.5 16.4-1.2 2.5-.9 4.7 2.2 6 .3-.6.8-1.2 1-1.8 1.1-3.1 1.9-6.4 3.4-9.4 2.5-5 5.5-9.8 8.3-14.7 7.5-13.1 13.4-26.9 18.7-41 6.2-.6 12.1-1.1 18 1.5 5.4 2.4 7.8 9.1 2.6 14.7-3.5 3.8-7.8 6.5-12.2 9.2-6.7 4.2-13.4 8.5-20 12.9-3.5 2.3-4.3 6.1-1.7 9.5 1.6 2.1 3.6 4.1 5.9 5.4 12.9 7.6 26.6 13.4 41.4 16.3 4.5.9 8.9.3 13.2-1.7-3.1-.5-6.3-.9-9.4-1.5-16.4-2.8-31.4-9-45.3-17.6zm190.3-15.9c-30.5-5.9-63.1.7-84.2 12.5-.1-.3-.3-.4-.2-.5.9-6.3 1.8-12.5 2.6-18.8.1-1-.4-2.1-.6-3.2-.9.3-2 .4-2.8.9-1.6 1-3 2.4-4.6 3.4-4.1 2.6-8.1 5.2-12.3 7.5-1.4.8-3.2.6-5.3 1 .3-1.6.3-2.5.6-3.4.7-1.9 1.8-3.6 2.4-5.5.3-.8-.2-1.9-.3-2.9-1 .1-2 .2-2.9.5-.6.2-.9 1-1.5 1.4-4.6 3.5-9.1 7.1-13.9 10.3-1.1.8-2.5 1.2-3.9 1.5h-.6v-.2c0-.5.2-.8.3-1.3.2-.6.3-1.3.4-1.9.3-1.2.5-2.7.2-3.9-.2-.8-.7-1.3-1.6-1.5-1.2-.2-2 .5-2.7.5.6-.9 1.1-1.8 1-3.2-.3-2.4-2.6-3.1-4.5-3.6h-.3c-2 0-3.5 1.1-4.7 2-.1.1-.1.1-.2.2-2.1 2.7-4.3 5.4-5.9 8.5-.6 1.1-1.1 2.2-1.5 3.4-.3.7-.6 1.4-.7 2.2-.1.9.4 1.8.9 2.5.3.5.6 1 1 1.3.5.4 1.1.5 1.7.5 1.6 0 3-.8 4.3-1.7 1.9-1.4 3.6-3.1 5.3-4.7.5-.4 1-.9 1.5-1.3.6-.5 1.3-.7 1.9-1.2.3-.2.5-.4.7-.6.1-.1.6-.3.7-.4 0-.1 0-.3.1-.1 0 0 0 .1-.1.1-.3 2-.6 4.8-.1 6.7.6 1.8 2.4 2.6 4.2 2.6.2 0 .5-.1.7-.2 3.5-1.7 8.5-5.5 10.3-7 1.2-.8 2.4-1.7 3.6-2.5.7 6.3 2.8 7.8 8.7 6 2-.6 4.1-1.5 5.9-2.5 3-1.7 5.9-3.6 9.7-6-.7 6-1.2 11.2-1.9 16.4-.1 1-.9 2.3-1.8 2.9-6.9 4.2-12.6 9.9-17.7 15.9-4.3 5-7.7 10.7-9 17.4-.8 4.2-.1 8.1 2.1 11.7 3.1 5.1 9.4 5.7 13.3 1.2 1.2-1.4 2.3-3.1 2.9-4.8 4.4-12.3 8.7-24.6 12.8-37 .7-2.2 1.4-3.9 3.6-4.9 6.2-2.8 12.3-6 18.7-8.4 14.4-5.5 20.7-7.4 35.9-8 10.8-.6 26.9.3 27.8.2zm-133.6-2.4c-2.6 2.3-4.9 4.8-7.8 6.8-.9.6-2-.4-1.5-1.3 1.9-3.7 4-7.2 7.7-8.9.8-.4 1.7.3 1.7 1.2 0 .5 0 .9.1 1.3.2.3.1.7-.2.9zm30.2 60.6c-.9 1.8-1.9 4.1-4.7 3.7-2.5-.4-4.3-2-4.7-4.4-.5-2.8-1-6-.1-8.6 1.4-4.1 3.5-8.1 5.9-11.8 3.9-5.9 9.2-10.5 14.8-14.8.3-.2.8-.2 1.9-.5-4 12.8-7.7 24.9-13.1 36.4zm77.4-19.7c0 1.2 0 2.4-1.1 3.4-.6.5-1.5.8-2.3.8s-1.7-.3-2.3-.8c-1.1-.9-1.1-2.2-1.1-3.4l.1-8.5h-1.5l-.1 8.9c0 1.2.1 2.3.8 3.3.8 1.2 2.3 1.9 4 1.9 1.8 0 3.2-.7 4.1-1.8.8-1 .9-2.1.9-3.3l.1-8.9h-1.5zm7.9-7h3.4l-.1 12.4h1.5l.1-12.4h3.4v-1.5l-8.3-.1zm22.2-1.2-3.6 6.1-3.5-6.2h-1.8l4.5 7.9-.1 6h1.5l.1-6 4.7-7.8zm-69.7 13.1 7.2.1v-1.5l-5.6-.1.1-5.4 5.5.1v-1.5l-5.5-.1v-4.1l5.6.1v-1.5l-7.2-.1zm12.6.1h1.7l1.7-3.9 5.9.1 1.6 3.9h1.7l-6-14.6zm4-5.3 2.4-5.5 2.3 5.6zm-26.1-2.4c1.2-.8 1.4-2 1.4-2.7 0-1.7-.8-2.5-1.2-2.9-1-.8-2.4-.9-3.2-.9h-2.5l-.2 13.8h3.4c1 0 2.2 0 3.3-.9.8-.6 1.4-1.6 1.4-3 .2-1.2-.5-2.9-2.4-3.4zm-4-5h1.2c.4 0 2.7.1 2.7 2.4 0 2.1-1.9 2.3-2.7 2.3h-1.2zm4.1 10.4c-.7.5-1.5.6-2.4.6h-1.8l.1-4.9h1.6c1.1 0 1.8.1 2.3.4s1.2.9 1.2 2c-.1.8-.4 1.5-1 1.9z" fill="#010202" fill-rule="nonzero" transform="matrix(.763094 0 0 .763094 50.8289 28.0609)"/></svg>