<svg clip-rule="evenodd" fill-rule="evenodd" stroke-linejoin="round" stroke-miterlimit="2" viewBox="0 0 560 400" xmlns="http://www.w3.org/2000/svg"><path d="m484.6 109.5c-23.7 0-39.3 18.6-39.3 42.4 0 24.2 16.1 42.3 40.4 42.1 15.9-.1 29.2-8.7 34.6-21.7.5-1.2-.2-2.5-1.5-2.7l-12.4-2.3c-1.2-.2-2.5.4-3.1 1.4-3.5 5.8-10 9.2-17.6 9.2-12.5 0-21.5-8.2-23.5-21.9h55.4c1.7 0 3-1.3 3-3v-5.4c0-22.3-14-38.1-36-38.1zm-21.5 32.4c2.8-10 10.8-16.8 21.5-16.8 11.7 0 19.4 7.6 19.7 16.8zm-50-32.6c-9.2 0-16.1 3.9-20.6 10.2v-4.5c0-1.7-1.3-3-3-3h-12.1c-1.7 0-3 1.3-3 3v73.6c0 1.7 1.3 3 3 3h12.1c1.7 0 3-1.3 3-3v-40.9c0-14.3 6.2-21.5 14.8-21.5 6.8 0 10.9 4.1 11.7 12.5.1 1.5 1.4 2.7 3 2.7h12.1c1.7 0 3-1.4 3-3.1-.5-20-10.2-29-24-29zm-47.1-32.9h-73.7c-1.7 0-3 1.3-3 3v109.1c0 1.7 1.3 3 3 3h12.1c1.7 0 3-1.3 3-3v-43.7h51.9c1.7 0 3-1.3 3-3v-11.4c0-1.7-1.3-3-3-3h-51.9v-33.5h58.6c1.7 0 3-1.3 3-3v-11.5c0-1.6-1.4-3-3-3zm-142.4 107.2-29.4-16.9c-3-1.7-6.6-1.7-9.5 0l-20.1 11.6c-12.3 7.1-19.9 20.2-19.9 34.4v19.2c0 3.4 1.8 6.6 4.8 8.3l29.4 17c3.2 1.8 7.1-.5 7.1-4.1v-21.1c0-11.4 6.1-21.8 15.9-27.5l21.7-12.5c3.2-2 3.2-6.5 0-8.4zm-89.2-130v-27.2c0-3.4-1.8-6.6-4.8-8.3l-29.4-17c-3.2-1.8-7.1.5-7.1 4.1v29c0 11.4-6.1 21.8-15.9 27.5l-57.1 33c-12.2 7.3-19.8 20.4-19.8 34.6v19.2c0 3.4 1.8 6.6 4.8 8.3l29.4 17c3.2 1.8 7.1-.5 7.1-4.1v-21.1c0-11.4 6.1-21.8 15.9-27.5l57.1-33c12.3-7.2 19.8-20.3 19.8-34.5zm65.1 60.5-29.4-17c-3-1.7-6.6-1.7-9.5 0l-68.2 39.4c-12.3 7.1-19.9 20.2-19.9 34.4v19.2c0 3.4 1.8 6.6 4.8 8.3l29.4 17c3.2 1.8 7.1-.5 7.1-4.1v-21.1c0-11.4 6.1-21.8 15.9-27.5l69.8-40.3c3.2-1.9 3.2-6.4 0-8.3zm816.5 38.9v-5.4c0-22.4-14-38.1-36-38.1-23.7 0-39.3 18.6-39.3 42.4 0 24.2 16.1 42.3 40.4 42.1 15.9-.1 29.2-8.7 34.6-21.7.5-1.2-.2-2.5-1.5-2.7l-12.4-2.3c-1.2-.2-2.5.4-3.1 1.4-3.5 5.8-10 9.2-17.6 9.2-12.5 0-21.5-8.2-23.5-21.9h55.4c1.7 0 3-1.3 3-3zm-57.5-11.1c2.8-10 10.8-16.8 21.5-16.8 11.7 0 19.4 7.6 19.7 16.8zm-387.5-32.4c-23.7 0-39.3 18.6-39.3 42.4 0 24.2 16.1 42.3 40.4 42.1 15.9-.1 29.2-8.7 34.6-21.7.5-1.2-.2-2.5-1.5-2.7l-12.4-2.3c-1.2-.2-2.5.4-3.1 1.4-3.5 5.8-10 9.2-17.6 9.2-12.5 0-21.5-8.2-23.5-21.9h55.4c1.7 0 3-1.3 3-3v-5.4c0-22.3-14-38.1-36-38.1zm-21.5 32.4c2.8-10 10.8-16.8 21.5-16.8 11.7 0 19.4 7.6 19.7 16.8zm376.8-65.5h-12.1c-1.7 0-3 1.3-3 3v41.9c-5.9-7.2-14.6-12-26.3-12-21.7 0-37.2 18.9-37.2 42.4 0 23.8 15.5 42.3 37.2 42.3 11.7 0 20.4-4.6 26.3-11.8v6.4c0 1.7 1.3 3 3 3h12.1c1.7 0 3-1.3 3-3v-109.2c0-1.6-1.3-3-3-3zm-37.6 100c-13.6 0-22.9-10.4-22.9-24.7s9.4-24.8 22.9-24.8c13.3 0 22.5 10.5 22.5 24.8s-9.2 24.7-22.5 24.7zm-85.3-67.1c-16.9 0-32.4 9.8-32.3 29.1 0 1.6 1.4 2.9 3 2.9h10.8c1.6 0 2.9-1.3 3-2.8.5-8.5 6.2-13.8 16-13.8 10.4 0 15.6 5.6 15.6 12.5v3l-18.4 3.1c-19.6 3.3-30.2 11.3-30.2 27.1 0 11.2 8.6 23.7 27.1 23.7 11 0 18.2-5.6 21.7-11.7v6.2c0 1.7 1.3 3 3 3h10.8c1.7 0 3-1.3 3-3v-50.4c-.1-17.4-11.3-28.9-33.1-28.9zm16.1 48.7c0 12-7.6 19.7-18.1 19.7-8.2 0-13.5-3.8-13.5-9.5 0-7.2 7.6-9.9 15.8-11.3l15.8-2.6zm-133.4 5-12.8-2.4c-1.5-.3-2.9.8-3 2.4-.2 8.9-5 14.1-12.1 14.1-7.7 0-12.7-4.8-12.7-13.5v-36h36.1c1.7 0 3-1.3 3-3v-9.6c0-1.7-1.3-3-3-3h-36.1v-20.4c0-1.7-1.3-3-3-3h-12.1c-1.7 0-3 1.3-3 3v20.4h-10.8c-1.7 0-3 1.3-3 3v9.6c0 1.7 1.3 3 3 3h10.8v35c0 19.4 11.8 31.4 31.4 31.4 16 0 28.4-11 28.8-29 .2-.9-.5-1.8-1.5-2zm51.6-53.7c-9.2 0-16.1 3.9-20.6 10.2v-4.5c0-1.7-1.3-3-3-3h-12.1c-1.7 0-3 1.3-3 3v73.6c0 1.7 1.3 3 3 3h12.1c1.7 0 3-1.3 3-3v-40.9c0-14.3 6.2-21.5 14.8-21.5 6.8 0 10.9 4.1 11.7 12.5.1 1.5 1.4 2.7 3 2.7h12.1c1.7 0 3-1.4 3-3.1-.5-20-10.2-29-24-29z" fill="#f7618b" fill-rule="nonzero" transform="matrix(.354435 0 0 .354435 99.8937 154.225)"/></svg>