<svg clip-rule="evenodd" fill-rule="evenodd" stroke-linejoin="round" stroke-miterlimit="2" viewBox="0 0 560 400" xmlns="http://www.w3.org/2000/svg"><path d="m215 256.5s7.5-3.1 7.5-16.4c0-13.8-7.5-17.4-7.5-17.4zm291.3-22.8v-19.4s-3.4.2-3.4-4v-3.7h16c7.5 0 20.5 2 20.5 18.4 0 3.6-.3 19.8-17.8 19.8-3.9 0-6.3-1.5-6.3-1.5v17.8c0 7.4-9 6.5-9 6.5v-24.5c-1.9 1.2-4.3 2-7.3 2-6.5 0-10.4-4.9-10.4-10.5v-14.7c0-5-4.4-5.7-5.6-5.7-5.1 0-8 4.6-8 9.9v19.9h-8.9v-24.1c0-5-4-5.7-5.3-5.7-4.9 0-7.7 4.6-7.7 9.9v19.9h-9v-.9c-1.9 1.1-4.2 1.9-7.1 1.9-4.5 0-7.8-2.4-8.9-5.9-.1-.3-.1-.3-.2-.3l-.3.3c-2.3 4.2-7.1 6.6-12.1 6.6-5.8 0-9.3-2.6-11.4-5.9-2.8 2.9-7.7 5.8-15.6 5.8-7.3 0-11.9-2.5-14.7-5.7-1.7 2.5-4.9 5.2-9.9 5.2-6.3 0-7.5-5.9-7.5-5.9-.1-.3-.2-.3-.3-.3l-.2.2c-2.4 4.2-6.8 6.3-11.8 6.3-6 0-9.6-2.8-11.7-6.2-3.1 3.1-8.8 6.3-17.1 6.3-9.3 0-14.4-3-17.3-6.8-3 3.2-8.8 6.8-17.6 6.8-20.5 0-20.8-14.7-20.8-19.9 0-12.1 7.5-20.6 19.2-20.6h.1c1.2 0 12.6.2 12.6 12.1v.1c0 1.2-.3 13.5-17.6 13.5-1 0-3.3-.2-3.9-.3l-.2.1c0 .4.2 7.6 12.5 7.6 4.4 0 9.4-1.6 12.8-6.2-.5-2.5-.5-4.7-.5-6.2 0-12.1 7.5-20.6 19.2-20.6h.1c1.2 0 12.6.2 12.6 12.1v.1c0 1.2-.3 13.5-17.6 13.5-1 0-3.3-.2-3.9-.3l-.2.1c0 .4.2 7.6 12.5 7.6 4.4 0 9.3-1.6 12.7-6.1-.2-1.3-.3-2.6-.3-3.9 0-10.9 5.6-23.1 22.9-23.1.8 0 1.6.1 2.4.1v-14.5s-.2-7.7 5.4-7.7h3.5v48.7c0 .8.1 4.3 3.4 4.3 1.1 0 2.4-.5 3.5-2.3-.7-2.3-1-4.6-1-6.9 0-6.1 2.1-21.6 21.7-21.6 4.4 0 8.3 1.3 8.3 1.3v7.9c0 5.9-7.7 5.1-7.7 5.1v-5.8s-1-.5-2.9-.5c-4.3 0-10.2 3.6-10.2 13.5 0 6.4 3.9 11.3 11.3 11.3 3.5 0 8.1-1.4 11.4-5.8-.2-1.3-.3-2.6-.3-3.9 0-10.9 5.6-23.1 22.9-23.1 5.1 0 11.3 1.5 11.3 1.6v24.3c0 1.8.7 5.1 4.1 5.1 1.4 0 3.1-.5 4.6-2.3v-19.5s-3.5-.1-3.5-4.1v-3.6h7.3c5.1 0 5.2 3.6 5.2 3.6s3.3-4.4 10.1-4.4c4.2 0 8.1 1.2 10.1 5.2 0 0 0 .1.2.1l.2-.2c.2-.4 3.2-5.1 11.6-5.1 6.5 0 12.1 3.6 12.1 11.7 0 0-.1 13-.1 13.7 0 1.9.8 4.9 4.2 4.9 1.3-.1 3.1-.6 4.6-2.5zm-299.9-19.5s-4.1.5-4.1-3.6v-3.9h4c0-9 .1-13.2.1-13.5 0-13.4 18.4-10.7 18.4-10.7s-.6 7.6-4.7 7.6c-4.2 0-5 3-5 4.3v12.2h11.9s.4 7.5-4.5 7.5h-1.5c-2.9 0-5.6 0-5.8.1.8.3 14.9 5.5 14.9 25.7 0 24.5-23.7 29.3-23.7 29.3zm29.2-7.5c6.2 0 4.6 6.5 4.6 6.5s0 .3.2.3c.1 0 .2-.1.3-.3.2-.3 4.8-7.6 14.6-7.6.8 0 2.3.1 2.8.4v10.4c0 5.4-7.5 4.8-7.5 4.8v-6c-3.2 0-5.4 2-7 4.2-2.7 3.8-2.9 9.2-2.9 10.9v13.9h-9v-37.5zm76.9 6.1c-5.6 0-8.5 5.4-8.5 10.3 0 .2.9.6 3.9.6 9.3 0 9.5-5.8 9.5-6.6 0-4-3.7-4.3-4.9-4.3zm42.4.6s-1.2-.5-4.2-.5c-4.1 0-11.7 3.2-11.7 14.1 0 2.2.1 9.6 7 9.6 5.7 0 8.9-4.9 8.9-9.3zm71.6 0s-1.2-.5-4.2-.5c-4.1 0-11.7 3.2-11.7 14.1 0 2.2.1 9.7 7 9.7 5.7 0 8.9-5 8.9-9.4zm91.3.9c-.8 0-1.7 0-2.5.1v20.4s1.3 2.4 5.9 2.4c7 0 8.7-6.7 8.7-11.8-.1-9.6-6.3-11.1-12.1-11.1zm-240.1-1.5c-5.6 0-8.6 5.4-8.6 10.3 0 .2.9.6 3.9.6 9.3 0 9.5-5.8 9.5-6.6 0-4-3.7-4.3-4.8-4.3zm-163.1 47.1v5.9c0 1.9-1.6 3.5-3.6 3.5h-3.4c-2 0-3.6-1.6-3.6-3.5v-8.1c0-.3 0-.7.1-1-.6-3.8-3.7-6.8-7.7-7.3h-.9c-3.5 0-5.3-1.6-5.3-5.2v-5.2h5.3c3.5 0 5 1.6 5.3 4.4v1.2c.2 4.1 3.5 7.5 7.6 8 .3 0 .6-.1 1-.1h1.3c4-.7 7.1-3.9 7.3-8v-1.2c.2-2.8 1.8-4.4 5.3-4.4h5.3v5.2c0 3.6-1.9 5.2-5.3 5.2h-.9c-3.8.4-6.9 3.3-7.6 6.9v1.4c.1 1 0 1.7-.2 2.3zm-6-63.9h2.2c4-.7 7.1-3.9 7.3-8v-1.2c.2-2.8 1.8-4.4 5.3-4.4h5.3v5.2c0 3.6-1.9 5.2-5.3 5.2h-.9c-3.8.4-6.9 3.3-7.6 6.9v1.4c0 3.6-1.9 5.2-5.3 5.2-4.3 0-5.3-2-5.3-5.2v-.7c-.4-4-3.7-7.2-7.7-7.6h-.9c-3.5 0-5.3-1.6-5.3-5.2v-5.2h5.3c3.5 0 5 1.6 5.3 4.4v1.2c.2 4.1 3.4 7.4 7.6 8zm0 27.9h2.2c4-.7 7.1-3.9 7.3-8v-1.2c.2-2.8 1.8-4.4 5.3-4.4h5.3v5.2c0 3.6-1.9 5.2-5.3 5.2h-.9c-3.8.4-6.9 3.3-7.6 6.9v1.4c0 3.6-1.9 5.2-5.3 5.2-4.3 0-5.3-2-5.3-5.2v-.7c-.4-4-3.7-7.2-7.7-7.6h-.9c-3.5 0-5.3-1.6-5.3-5.2v-5.2h5.3c3.5 0 5 1.6 5.3 4.4v1.2c.2 4.1 3.4 7.5 7.6 8zm-29 14.2h2.2c3.9-.6 7-3.8 7.3-7.8v-1.4c.2-2.8 1.8-4.4 5.3-4.4h5.3v5.2c0 3.6-1.9 5.2-5.3 5.2h-.9c-3.8.4-6.9 3.3-7.6 6.9v1.4c0 3.6-1.9 5.2-5.3 5.2-4.3 0-5.3-2-5.3-5.2v-.7c-.4-4-3.7-7.2-7.7-7.6h-.9c-3.5 0-5.3-1.6-5.3-5.2v-5.2h5.3c3.5 0 5 1.6 5.3 4.4v1.2c.2 4.1 3.4 7.5 7.6 8zm59 0h2.2c4-.7 7.1-3.9 7.3-8v-1.2h.1c.2-2.8 1.8-4.4 5.3-4.4h5.3v5.2c0 3.6-1.9 5.2-5.3 5.2h-.9c-3.8.4-6.9 3.3-7.6 6.9v1.4c0 3.6-1.9 5.2-5.3 5.2-4.3 0-5.3-2-5.3-5.2v-.7c-.4-4-3.7-7.2-7.7-7.6h-.9c-3.5 0-5.3-1.6-5.3-5.2v-5.2h5.3c3.5 0 5 1.6 5.3 4.4v1.2c.1 4.1 3.3 7.5 7.5 8zm0-28.1h2.2c4-.7 7.1-3.9 7.3-8v-1.2h.1c.2-2.8 1.8-4.4 5.3-4.4h5.3v5.2c0 3.6-1.9 5.2-5.3 5.2h-.9c-3.8.4-6.9 3.3-7.6 6.9v1.4c0 3.6-1.9 5.2-5.3 5.2-4.3 0-5.3-2-5.3-5.2v-.7c-.4-4-3.7-7.2-7.7-7.6h-.9c-3.5 0-5.3-1.6-5.3-5.2v-5.2h5.3c3.5 0 5 1.6 5.3 4.4v1.2c.1 4.1 3.3 7.5 7.5 8zm-59.3 0h2.2c4-.7 7.1-3.9 7.3-8v-1.2c.2-2.8 1.8-4.4 5.3-4.4h5.3v5.2c0 3.6-1.9 5.2-5.3 5.2h-.9c-3.8.4-6.9 3.3-7.6 6.9v1.4c0 3.6-1.9 5.2-5.3 5.2-4.3 0-5.3-2-5.3-5.2v-.7c-.4-4-3.7-7.2-7.7-7.6h-.9c-3.4 0-5.3-1.6-5.3-5.2v-5.2h5.3c3.5 0 5 1.6 5.3 4.4v1.2c.1 4.1 3.4 7.5 7.6 8zm.9-3.2c-3.4 0-5.3-2-5.3-5.2s1.5-5.2 5.3-5.2 5.3 3.1 5.3 5.2c.1 3.6-1.8 5.2-5.3 5.2zm59.4 0c-3.4 0-5.3-2-5.3-5.2s1.5-5.2 5.3-5.2 5.3 3.1 5.3 5.2c0 3.6-1.9 5.2-5.3 5.2zm0 28.1c-3.4 0-5.3-2-5.3-5.2s1.5-5.2 5.3-5.2 5.3 3.1 5.3 5.2c0 3.6-1.9 5.2-5.3 5.2zm-59.1 0c-3.5 0-5.3-2-5.3-5.2s1.5-5.2 5.3-5.2 5.3 3.1 5.3 5.2c.1 3.6-1.8 5.2-5.3 5.2zm29-14.2c-3.5 0-5.3-2-5.3-5.2s1.5-5.2 5.3-5.2 5.3 3.1 5.3 5.2c.1 3.6-1.8 5.2-5.3 5.2zm0 28.8c-3.5 0-5.3-2-5.3-5.2s1.5-5.2 5.3-5.2 5.3 3.1 5.3 5.2c.1 3.6-1.8 5.2-5.3 5.2zm0-56.7c-3.5 0-5.3-2-5.3-5.2s1.5-5.2 5.3-5.2 5.3 3.1 5.3 5.2c.1 3.5-1.8 5.2-5.3 5.2z" fill="#518ac9" transform="matrix(1.03421 0 0 1.03421 -30.5222 -33.5133)"/></svg>