<svg clip-rule="evenodd" fill-rule="evenodd" stroke-linejoin="round" stroke-miterlimit="2" viewBox="0 0 560 400" xmlns="http://www.w3.org/2000/svg"><g fill-rule="nonzero" transform="matrix(.150767 0 0 .150767 38.232 28.9971)"><path d="m2994.2 1401.3c0-13.6 9.3-23.5 20.5-23.5s20.5 9.9 20.5 23.5-9.3 23.5-20.5 23.5c-10.6.1-20.5-9.8-20.5-23.5zm21.1 19.9c9.3 0 16.7-8.7 16.7-19.8 0-11.2-7.4-19.8-16.7-19.8s-16.7 8.7-16.7 19.8 7.4 19.8 16.7 19.8zm-4.3-6.2h-3.7v-27.3h8.7c5.6 0 8.1 2.5 8.1 8.1 0 5-2.5 6.8-6.2 7.4l6.8 11.8h-3.7l-6.2-11.8h-4.3zm4.3-15.5c3.1 0 5.6 0 5.6-4.3 0-3.1-2.5-3.7-5-3.7h-5v8.7z" fill="#333"/><g fill="#f08018"><path d="m2777.3 1405.7-11.8-46.5c-.6-3.1-2.5-5.6-5-6.8-3.1-1.2-5.6-.6-7.4 1.2l-8 6.2c-7.5 6.8-16.7 14.9-32.9 14.9-52.7 0-71.9-60.7-72.5-113.4-1.2-61.4 22.3-124 68.8-125.2 14.3-.6 21.7 7.4 27.3 14.9l6.2 6.8c1.9 1.9 5 3.1 7.4 1.9 2.5-.6 5-3.1 6.2-5.6l18-47.1c1.9-4.3 0-9.3-3.7-11.2l-5-3.1c-11.2-6.8-27.9-17.4-55.2-17.4-53.3-1.2-99.2 16.1-130.2 48.3-32.2 33.5-47.7 81.8-47.1 143.2 1.9 104.1 56.4 160.5 159.3 163.6 25.4.6 68.2-6.2 81.8-14.9 3.2-1.8 5-5.5 3.8-9.8z"/><path d="m2237.4 1058.6c-.6-4.3-3.7-8.1-8.1-8.7-40.9-2.5-69.4 23.6-85.5 45.9-.6-16.7-1.2-34.1-1.2-34.1 0-2.5-1.2-5.6-3.7-6.8-2.5-1.9-4.9-1.9-7.4-1.2l-93.6 26.7c-4.3 1.2-6.8 5.6-6.2 9.9l50.2 327.9c.6 5 5 8 9.9 7.4l46.5-6.2c4.3-.6 7.4-4.3 7.4-8.7l7.4-124.6c3.1-70.7 36-102.3 65.1-102.3h1.9c2.5-.6 11.8-.6 13.6 0 2.5.6 5.6 0 7.4-1.9 2.5-1.9 3.7-4.3 3.1-7.4z"/><path d="m2521.3 1261.9 1.9-25.4c1.9-18.6 3.7-37.8 3.1-47.1-.6-41.5-16.1-79.3-40.3-103.5-21.1-20.5-47.7-31-78.1-30.4-45.9 1.2-85.5 18.6-115.3 50.8-33.5 36.6-50.8 88.6-49 146.3 2.5 112.8 92.4 172.3 174.2 171.1 67.5-1.2 100.4-32.2 101.6-33.5 2.5-2.5 3.1-6.2 2.5-9.3l-13.6-44c-1.2-3.1-3.7-5.6-6.8-6.2s-6.2 0-8.7 2.5c0 0-22.9 25.4-50.8 24.8-55.2-1.2-79.3-30.4-83-98.5 17.4 1.2 151.8 9.9 151.8 9.9 6.2 1.1 9.9-2.6 10.5-7.5zm-158.6-57.7c.6-31.6 6.8-56.4 18.6-69.4 6.8-6.8 14.3-10.5 24.2-11.2 7.4 0 13 1.9 17.4 6.2 11.2 11.2 14.3 40.3 15.5 68.8-11.9.7-62.1 4.4-75.7 5.6z"/><path d="m1907.7 932.1-88.6-18.6c-2.5-.6-5 0-7.4 1.9-1.9 1.9-3.1 4.3-3.1 6.8v165.5c-5.6-3.7-11.2-6.2-17.3-8.1-11.8-3.1-22.9-4.9-32.8-4.9-40.9 0-72.5 14.9-94.2 45.2-20.5 29.1-31 69.4-31 120.9v34.1c0 56.4 9.3 95.5 29.8 119 20.4 23.6 45.2 35.3 75 35.3 19.8 0 36-4.3 49.6-12.4 7.4-5 15.5-11.8 22.9-21.1.6 9.9.6 19.8.6 19.8 0 5 4.3 8.7 8.7 8.7h74.4c5 0 8.7-3.7 8.7-8.7l11.8-474.2c-.3-4.8-3.4-8.5-7.1-9.2zm-177.3 311.2c0-31 4.3-54.6 13-71.3 7.4-14.3 16.7-27.9 32.2-31 6.2-1.2 14.3.6 20.4 4.4l2.5 1.2c3.7 1.9 8 4.3 10.5 14.9 3.7 16.7 5.6 45.9 5.6 74.4 0 29.1-1.9 57-5.6 72.5-2.5 9.9-9.9 26.7-16.7 31.6-7.4 5.6-15.5 8.7-24.8 8.7-13 0-21.7-5-27.3-16.1-6.8-12.4-9.9-34.7-9.9-66.9z"/><path d="m2016.8 1087.7c0-5-3.7-8.7-8.7-8.7h-65.7c-4.3 0-8.7 3.7-8.7 8.7l-11.2 327.3c0 2.5.6 5 2.5 6.8 1.9 1.9 3.7 2.5 6.2 2.5h88c2.5 0 5-1.2 6.2-2.5 1.9-1.9 2.5-4.3 2.5-6.8z"/><path d="m2967.6 1407.5-8.1-70c0-2.5-1.2-5-3.1-6.2s-4.3-1.9-6.8-1.9c-2.5.6-11.2 0-16.1 0h-6.8c-10.5 0-17.4-1.9-20.5-5-3.7-3.1-3.7-8.7-3.1-25.4v-.6s.6-133.9 1.2-151.2c13 .6 50.8 2.5 50.8 2.5 2.5 0 5-.6 6.8-2.5 1.9-1.8 2.5-3.7 2.5-6.2v-1.2l-3.1-53.9c0-5-4.3-8.7-8.7-8.7h-52.1c-.6-14.9-1.2-84.3-1.2-84.3 0-2.5-1.2-5-3.1-6.8-1.9-1.9-4.3-2.5-7.4-1.9l-52.1 9.3c-3.7.6-6.8 4.3-7.4 8.1 0 0-5 63.2-6.2 75-9.3 1.2-33.5 5.6-33.5 5.6-4.3.6-7.4 4.3-7.4 8.7l-1.9 40.9c0 5 3.7 9.3 8.7 9.3 0 0 13.6.6 22.9 1.2-.6 16.1-6.2 157.4-6.2 157.4-1.2 39 5 69.4 19.8 91.7 15.5 22.9 36.6 34.7 64.5 35.9 11.2.6 23.5 0 36-1.9 18-2.5 30.4-5 37.8-8.7 1.9-1.7 4.4-5.4 3.8-9.2z"/></g><g fill="#69a425"><path d="m1216.6 1120.6c30.4 6.8 64.5 34.7 64.5 35.3 3.7 3.1 8.7 2.5 11.8-.6l38.4-40.9c2.5-3.1 3.1-8 1.2-11.8-1.9-2.5-37.8-55.8-120.2-55.8-60.7 0-106.6 50.2-106.6 116.5 0 69.4 50.2 97.9 87.4 118.4 22.3 12.4 41.5 23.6 41.5 37.8 0 8.7-3.7 13-11.8 13.6-16.7.6-52.1-15.5-89.9-52.7-2.5-2.5-5.6-3.1-8.7-1.9-3.1.6-5.6 3.7-6.2 6.8l-21.7 99.8c-.6 3.7.6 8 4.3 9.9 34.7 21.1 78.1 28.5 107.2 28.5 54.5 0 112.8-47.1 112.8-124 0-63.2-44.6-94.8-80.6-120.2-21.7-15.5-40.9-28.5-42.8-44.6-.6-4.3 1.2-8.7 4.3-11.8 4-2.3 8.9-3.6 15.1-2.3z"/><path d="m652.6 862.1-.6-.6c-19.2-10.5-58.3-28.5-105.4-25.4-82.4 5-126.4 62.6-126.4 162.4 0 6.8 0 13.6.6 21.1 0 0 .6 11.2 1.2 19.8-11.8 0-37.8.6-37.8.6-2.5 0-5 1.2-6.2 3.1s-2.5 3.7-2.5 6.2v1.2l6.8 57c0 2.5 1.9 5 3.7 6.2 1.9 1.9 4.3 1.9 6.8 1.9 0 0 27.9-6.2 39-8.7 4.3 16.1 79.3 319.2 79.3 319.2.6 2.5 2.5 4.3 4.3 5.6 1.9 1.2 4.3 1.2 6.8.6l48.3-16.1c3.7-1.2 6.2-5 6.2-8.7v-.6s-25.4-309.3-26.7-323.5c11.2-3.1 53.9-14.9 53.9-14.9 3.7-1.2 6.8-5 6.8-8.7v-1.2l-5-39c-.6-2.5-1.9-5-3.7-6.2-1.9-1.2-4.3-1.9-6.8-1.2 0 0-36.6 8.1-50.8 11.2v-8.7c.6-55.8 22.3-93 56.4-94.8 6.2-.6 17.4 6.8 24.8 11.8l9.9 6.2c2.5 1.2 5.6 1.2 8 0 2.5-1.2 4.3-4.3 5-7.4l8.7-57.6c.4-5.2-1.5-8.9-4.6-10.8z"/><path d="m799.5 1058.6c0-4.3-3.7-8.1-8.1-8.7-40.9-2.5-69.4 23.6-85.5 45.9-1.2-16.7-1.9-34.1-1.9-34.1 0-2.5-1.2-5.6-3.7-6.8-2.5-1.9-5-1.9-7.4-1.2l-93.6 26.7c-4.3 1.2-6.8 5.6-6.2 9.9l50.2 327.9c.6 5 5 8 9.9 7.4l46.5-6.2c4.3-.6 7.4-4.3 7.4-8.7l6.9-124.7c3.1-70.7 35.9-102.3 65.1-102.3h1.9c2.5-.6 11.8-.6 13.6 0 2.5.6 5.6 0 8.1-1.9 1.9-1.9 3.1-4.3 3.1-7.4z"/><path d="m1083.4 1261.9 1.9-25.4c1.9-18.6 3.1-37.8 3.1-47.1-1.2-41.5-15.5-79.3-40.9-103.5-21.1-20.5-47.7-31-77.5-30.4-45.9 1.2-85.5 18.6-114.7 50.8-33.5 36.6-50.8 88.6-49 146.3 2.5 112.8 91.7 172.3 174.8 171.1 67.6-1.2 100.4-32.2 101.6-33.5 2.5-2.5 3.1-6.2 2.5-9.3l-13.6-44c-1.2-3.1-3.7-5.6-6.8-6.2s-6.2 0-8.1 2.5c0 0-22.9 25.4-50.8 24.8-55.2-1.2-79.3-30.4-83.1-98.5 17.4 1.2 151.8 9.9 151.8 9.9 4.4 1.1 8.8-2.6 8.8-7.5zm-158.7-57.7c.6-31.6 6.8-56.4 18.6-69.4 6.2-6.8 14.3-10.5 24.2-11.2 7.4 0 13 1.9 17.4 6.2 11.2 11.2 14.9 40.3 15.5 68.8-11.9.7-61.4 4.4-75.7 5.6z"/><path d="m1587.9 1093.9c-19.2-21.1-45.3-33.5-67.6-33.5-27.9 0-51.4 10.5-69.4 30.4 1.9-37.8 8.1-167.4 8.1-167.4v-.6c0-2.5-1.2-5-3.1-6.8-1.9-1.9-5-2.5-7.4-1.9l-107.2 25.4c-4.3 1.2-6.8 4.9-6.8 9.9l32.8 465.5c.6 5 4.3 8.7 8.7 8.7l60.7-1.9c4.3 0 8.1-3.7 8.7-8.7l9.9-219.4c1.2-35.3 22.3-73.1 52.1-73.1 9.3 0 16.1 2.5 21.1 8 13.6 15.5 11.2 50.8 9.3 71.3l-15.5 214.5c0 3.1.6 5.6 3.1 7.4 1.9 1.9 5 2.5 7.4 2.5l73.1-13.6c3.7-.6 6.8-4.3 6.8-8.7l9.9-210.7c0-37.8-11.8-72.5-34.7-97.3z"/><path d="m1947.4 1057.3s-22.3-45.9 40.9-64.5c63.2-19.2 76.9-26.6 78.7-38.4 1.9-12.3 28.5 143.2-119.6 102.9z"/><path d="m453 1337.5s44-104.1-97.9-137-172.3-49-178.5-74.4c-6.2-26-44.6 321.7 276.4 211.4z"/></g><g fill="#f93"><path d="m2777.3 1405.7-11.8-46.5c-.6-3.1-2.5-5.6-5-6.8-3.1-1.2-5.6-.6-7.4 1.2l-8 6.2c-7.5 6.8-16.7 14.9-32.9 14.9-52.7 0-71.9-60.7-72.5-113.4-1.2-61.4 22.3-124 68.8-125.2 14.3-.6 21.7 7.4 27.3 14.9l6.2 6.8c1.9 1.9 5 3.1 7.4 1.9 2.5-.6 5-3.1 6.2-5.6l18-47.1c1.9-4.3 0-9.3-3.7-11.2l-5-3.1c-11.2-6.8-27.9-17.4-55.2-17.4-53.3-1.2-99.2 16.1-130.2 48.3-32.2 33.5-47.7 81.8-47.1 143.2 1.9 104.1 56.4 160.5 159.3 163.6 25.4.6 68.2-6.2 81.8-14.9 3.2-1.8 5-5.5 3.8-9.8z"/><path d="m2237.4 1058.6c-.6-4.3-3.7-8.1-8.1-8.7-40.9-2.5-69.4 23.6-85.5 45.9-.6-16.7-1.2-34.1-1.2-34.1 0-2.5-1.2-5.6-3.7-6.8-2.5-1.9-4.9-1.9-7.4-1.2l-93.6 26.7c-4.3 1.2-6.8 5.6-6.2 9.9l50.2 327.9c.6 5 5 8 9.9 7.4l46.5-6.2c4.3-.6 7.4-4.3 7.4-8.7l7.4-124.6c3.1-70.7 36-102.3 65.1-102.3h1.9c2.5-.6 11.8-.6 13.6 0 2.5.6 5.6 0 7.4-1.9 2.5-1.9 3.7-4.3 3.1-7.4z"/><path d="m2521.3 1261.9 1.9-25.4c1.9-18.6 3.7-37.8 3.1-47.1-.6-41.5-16.1-79.3-40.3-103.5-21.1-20.5-47.7-31-78.1-30.4-45.9 1.2-85.5 18.6-115.3 50.8-33.5 36.6-50.8 88.6-49 146.3 2.5 112.8 92.4 172.3 174.2 171.1 67.5-1.2 100.4-32.2 101.6-33.5 2.5-2.5 3.1-6.2 2.5-9.3l-13.6-44c-1.2-3.1-3.7-5.6-6.8-6.2s-6.2 0-8.7 2.5c0 0-22.9 25.4-50.8 24.8-55.2-1.2-79.3-30.4-83-98.5 17.4 1.2 151.8 9.9 151.8 9.9 6.2 1.1 9.9-2.6 10.5-7.5zm-158.6-57.7c.6-31.6 6.8-56.4 18.6-69.4 6.8-6.8 14.3-10.5 24.2-11.2 7.4 0 13 1.9 17.4 6.2 11.2 11.2 14.3 40.3 15.5 68.8-11.9.7-62.1 4.4-75.7 5.6z"/><path d="m1907.7 932.1-88.6-18.6c-2.5-.6-5 0-7.4 1.9-1.9 1.9-3.1 4.3-3.1 6.8v165.5c-5.6-3.7-11.2-6.2-17.3-8.1-11.8-3.1-22.9-4.9-32.8-4.9-40.9 0-72.5 14.9-94.2 45.2-20.5 29.1-31 69.4-31 120.9v34.1c0 56.4 9.3 95.5 29.8 119 20.4 23.6 45.2 35.3 75 35.3 19.8 0 36-4.3 49.6-12.4 7.4-5 15.5-11.8 22.9-21.1.6 9.9.6 19.8.6 19.8 0 5 4.3 8.7 8.7 8.7h74.4c5 0 8.7-3.7 8.7-8.7l11.8-474.2c-.3-4.8-3.4-8.5-7.1-9.2zm-177.3 311.2c0-31 4.3-54.6 13-71.3 7.4-14.3 16.7-27.9 32.2-31 6.2-1.2 14.3.6 20.4 4.4l2.5 1.2c3.7 1.9 8 4.3 10.5 14.9 3.7 16.7 5.6 45.9 5.6 74.4 0 29.1-1.9 57-5.6 72.5-2.5 9.9-9.9 26.7-16.7 31.6-7.4 5.6-15.5 8.7-24.8 8.7-13 0-21.7-5-27.3-16.1-6.8-12.4-9.9-34.7-9.9-66.9z"/><path d="m2016.8 1087.7c0-5-3.7-8.7-8.7-8.7h-65.7c-4.3 0-8.7 3.7-8.7 8.7l-11.2 327.3c0 2.5.6 5 2.5 6.8 1.9 1.9 3.7 2.5 6.2 2.5h88c2.5 0 5-1.2 6.2-2.5 1.9-1.9 2.5-4.3 2.5-6.8z"/><path d="m2967.6 1407.5-8.1-70c0-2.5-1.2-5-3.1-6.2s-4.3-1.9-6.8-1.9c-2.5.6-11.2 0-16.1 0h-6.8c-10.5 0-17.4-1.9-20.5-5-3.7-3.1-3.7-8.7-3.1-25.4v-.6s.6-133.9 1.2-151.2c13 .6 50.8 2.5 50.8 2.5 2.5 0 5-.6 6.8-2.5 1.9-1.8 2.5-3.7 2.5-6.2v-1.2l-3.1-53.9c0-5-4.3-8.7-8.7-8.7h-52.1c-.6-14.9-1.2-84.3-1.2-84.3 0-2.5-1.2-5-3.1-6.8-1.9-1.9-4.3-2.5-7.4-1.9l-52.1 9.3c-3.7.6-6.8 4.3-7.4 8.1 0 0-5 63.2-6.2 75-9.3 1.2-33.5 5.6-33.5 5.6-4.3.6-7.4 4.3-7.4 8.7l-1.9 40.9c0 5 3.7 9.3 8.7 9.3 0 0 13.6.6 22.9 1.2-.6 16.1-6.2 157.4-6.2 157.4-1.2 39 5 69.4 19.8 91.7 15.5 22.9 36.6 34.7 64.5 35.9 11.2.6 23.5 0 36-1.9 18-2.5 30.4-5 37.8-8.7 1.9-1.7 4.4-5.4 3.8-9.2z"/></g><g fill="#693"><path d="m1216.6 1120.6c30.4 6.8 64.5 34.7 64.5 35.3 3.7 3.1 8.7 2.5 11.8-.6l38.4-40.9c2.5-3.1 3.1-8 1.2-11.8-1.9-2.5-37.8-55.8-120.2-55.8-60.7 0-106.6 50.2-106.6 116.5 0 69.4 50.2 97.9 87.4 118.4 22.3 12.4 41.5 23.6 41.5 37.8 0 8.7-3.7 13-11.8 13.6-16.7.6-52.1-15.5-89.9-52.7-2.5-2.5-5.6-3.1-8.7-1.9-3.1.6-5.6 3.7-6.2 6.8l-21.7 99.8c-.6 3.7.6 8 4.3 9.9 34.7 21.1 78.1 28.5 107.2 28.5 54.5 0 112.8-47.1 112.8-124 0-63.2-44.6-94.8-80.6-120.2-21.7-15.5-40.9-28.5-42.8-44.6-.6-4.3 1.2-8.7 4.3-11.8 4-2.3 8.9-3.6 15.1-2.3z"/><path d="m652.6 862.1-.6-.6c-19.2-10.5-58.3-28.5-105.4-25.4-82.4 5-126.4 62.6-126.4 162.4 0 6.8 0 13.6.6 21.1 0 0 .6 11.2 1.2 19.8-11.8 0-37.8.6-37.8.6-2.5 0-5 1.2-6.2 3.1s-2.5 3.7-2.5 6.2v1.2l6.8 57c0 2.5 1.9 5 3.7 6.2 1.9 1.9 4.3 1.9 6.8 1.9 0 0 27.9-6.2 39-8.7 4.3 16.1 79.3 319.2 79.3 319.2.6 2.5 2.5 4.3 4.3 5.6 1.9 1.2 4.3 1.2 6.8.6l48.3-16.1c3.7-1.2 6.2-5 6.2-8.7v-.6s-25.4-309.3-26.7-323.5c11.2-3.1 53.9-14.9 53.9-14.9 3.7-1.2 6.8-5 6.8-8.7v-1.2l-5-39c-.6-2.5-1.9-5-3.7-6.2-1.9-1.2-4.3-1.9-6.8-1.2 0 0-36.6 8.1-50.8 11.2v-8.7c.6-55.8 22.3-93 56.4-94.8 6.2-.6 17.4 6.8 24.8 11.8l9.9 6.2c2.5 1.2 5.6 1.2 8 0 2.5-1.2 4.3-4.3 5-7.4l8.7-57.6c.4-5.2-1.5-8.9-4.6-10.8z"/><path d="m799.5 1058.6c0-4.3-3.7-8.1-8.1-8.7-40.9-2.5-69.4 23.6-85.5 45.9-1.2-16.7-1.9-34.1-1.9-34.1 0-2.5-1.2-5.6-3.7-6.8-2.5-1.9-5-1.9-7.4-1.2l-93.6 26.7c-4.3 1.2-6.8 5.6-6.2 9.9l50.2 327.9c.6 5 5 8 9.9 7.4l46.5-6.2c4.3-.6 7.4-4.3 7.4-8.7l6.9-124.7c3.1-70.7 35.9-102.3 65.1-102.3h1.9c2.5-.6 11.8-.6 13.6 0 2.5.6 5.6 0 8.1-1.9 1.9-1.9 3.1-4.3 3.1-7.4z"/><path d="m1083.4 1261.9 1.9-25.4c1.9-18.6 3.1-37.8 3.1-47.1-1.2-41.5-15.5-79.3-40.9-103.5-21.1-20.5-47.7-31-77.5-30.4-45.9 1.2-85.5 18.6-114.7 50.8-33.5 36.6-50.8 88.6-49 146.3 2.5 112.8 91.7 172.3 174.8 171.1 67.6-1.2 100.4-32.2 101.6-33.5 2.5-2.5 3.1-6.2 2.5-9.3l-13.6-44c-1.2-3.1-3.7-5.6-6.8-6.2s-6.2 0-8.1 2.5c0 0-22.9 25.4-50.8 24.8-55.2-1.2-79.3-30.4-83.1-98.5 17.4 1.2 151.8 9.9 151.8 9.9 4.4 1.1 8.8-2.6 8.8-7.5zm-158.7-57.7c.6-31.6 6.8-56.4 18.6-69.4 6.2-6.8 14.3-10.5 24.2-11.2 7.4 0 13 1.9 17.4 6.2 11.2 11.2 14.9 40.3 15.5 68.8-11.9.7-61.4 4.4-75.7 5.6z"/><path d="m1587.9 1093.9c-19.2-21.1-45.3-33.5-67.6-33.5-27.9 0-51.4 10.5-69.4 30.4 1.9-37.8 8.1-167.4 8.1-167.4v-.6c0-2.5-1.2-5-3.1-6.8-1.9-1.9-5-2.5-7.4-1.9l-107.2 25.4c-4.3 1.2-6.8 4.9-6.8 9.9l32.8 465.5c.6 5 4.3 8.7 8.7 8.7l60.7-1.9c4.3 0 8.1-3.7 8.7-8.7l9.9-219.4c1.2-35.3 22.3-73.1 52.1-73.1 9.3 0 16.1 2.5 21.1 8 13.6 15.5 11.2 50.8 9.3 71.3l-15.5 214.5c0 3.1.6 5.6 3.1 7.4 1.9 1.9 5 2.5 7.4 2.5l73.1-13.6c3.7-.6 6.8-4.3 6.8-8.7l9.9-210.7c0-37.8-11.8-72.5-34.7-97.3z"/><path d="m1947.4 1057.3s-22.3-45.9 40.9-64.5c63.2-19.2 76.9-26.6 78.7-38.4 1.9-12.3 28.5 143.2-119.6 102.9z"/><path d="m453 1337.5s44-104.1-97.9-137-172.3-49-178.5-74.4c-6.2-26-44.6 321.7 276.4 211.4z"/></g></g></svg>