<svg clip-rule="evenodd" fill-rule="evenodd" stroke-linejoin="round" stroke-miterlimit="2" viewBox="0 0 560 400" xmlns="http://www.w3.org/2000/svg"><g fill="#052093" fill-rule="nonzero" transform="matrix(4.3745 0 0 -4.3745 -1087.58 387.89)"><path d="m277.705 50.972-13.178 2.266 2.755-4.432 10.423-2.275 10.414 2.275 2.774 4.432z"/><path d="m277.705 32.664 2.837 4.54-2.837-.77-2.828.77z"/><path d="m269.703 44.773 8.003-1.686 8.012 1.686-2.537-4.051-5.475-1.405-5.475 1.405z"/><path d="m355.926 33.423h4.797v1.395h-3.21v1.243h2v1.378h-2v.933h2.989v1.397h-4.576z"/><path d="m300.484 33.423v3.219l-1.593-3.411-1.594 3.411v-3.219h-1.511v6.333h1.484l1.639-3.556 1.611 3.556h1.483v-6.333z"/><path d="m311 38.345h-.507v-3.51h.462c1.167 0 1.655.532 1.655 1.763 0 1.205-.434 1.747-1.61 1.747m-.116-4.922h-2.003v6.334h2.146c1.927 0 3.223-.788 3.223-3.139 0-2.336-1.323-3.195-3.366-3.195"/><path d="m315.14 33.423h1.62v6.333h-1.62z"/><path d="m321.547 37.549 1.459.597c-.425 1.067-1.077 1.711-2.508 1.711-1.692 0-2.869-1.267-2.869-3.267 0-1.919 1.041-3.268 2.843-3.268 1.385 0 2.109.715 2.542 1.567l-1.347.741c-.345-.588-.607-.87-1.169-.87-.823 0-1.214.805-1.214 1.83 0 1.058.391 1.828 1.196 1.828.58 0 .842-.336 1.067-.869"/><path d="m325.535 35.966h1.257l-.624 2.043zm2.044-2.543-.37 1.212h-2.091l-.37-1.212h-1.702l2.334 6.334h1.594l2.334-6.334z"/><path d="m329.931 33.423h4.535v1.437h-2.924v4.896h-1.611z"/><path d="m341.345 37.549 1.457.597c-.426 1.067-1.077 1.711-2.508 1.711-1.694 0-2.869-1.267-2.869-3.267 0-1.919 1.041-3.268 2.841-3.268 1.386 0 2.11.715 2.544 1.567l-1.348.741c-.345-.588-.607-.87-1.168-.87-.823 0-1.213.805-1.213 1.83 0 1.058.39 1.828 1.196 1.828.578 0 .84-.336 1.068-.869"/><path d="m345.329 35.966h1.26l-.625 2.043zm2.047-2.543-.371 1.212h-2.091l-.372-1.212h-1.7l2.335 6.334h1.593l2.335-6.334z"/><path d="m352.56 38.391h-1.256v-1.467h1.239c.578 0 .833.262.833.752 0 .451-.255.715-.816.715m.708-4.968-1.069 2.18h-.895v-2.18h-1.576v6.333h2.878c1.387 0 2.37-.597 2.37-2.044 0-.952-.434-1.538-1.166-1.856l1.25-2.433z"/><path d="m303.241 33.423h4.796v1.395h-3.209v1.243h1.999v1.378h-1.999v.933h2.988v1.397h-4.575z"/><path d="m341.885 42.829c1.595 0 2.584.67 2.584 2.039 0 1.252-.843 1.696-2.25 2.023-.879.208-1.115.326-1.115.616 0 .245.156.444.734.444.626 0 1.162-.217 1.67-.59l.861 1.189c-.643.526-1.406.825-2.457.825-1.432 0-2.421-.771-2.421-1.959 0-1.26.762-1.659 2.175-1.985.962-.227 1.189-.381 1.189-.681 0-.354-.253-.498-.916-.498-.599 0-1.342.281-1.795.644l-.861-1.17c.598-.526 1.569-.897 2.602-.897"/><path d="m297.381 47.861v-.98h2.239v-1.404h-2.239v-2.548h-1.596v6.346h4.73v-1.414z"/><path d="m303.972 47.907h-1.26v-1.47h1.242c.58 0 .834.264.834.753 0 .454-.254.717-.816.717m.707-4.978-1.07 2.185h-.897v-2.185h-1.578v6.346h2.884c1.387 0 2.375-.598 2.375-2.049 0-.952-.435-1.541-1.17-1.859l1.252-2.438z"/><path d="m307.304 42.929h4.797v1.396h-3.21v1.242h1.999v1.378h-1.999v.935h2.988v1.395h-4.575z"/><path d="m315.021 42.829c1.595 0 2.584.67 2.584 2.039 0 1.252-.843 1.696-2.248 2.023-.879.208-1.116.326-1.116.616 0 .245.154.444.735.444.625 0 1.161-.217 1.668-.59l.861 1.189c-.643.526-1.405.825-2.456.825-1.433 0-2.421-.771-2.421-1.959 0-1.26.761-1.659 2.175-1.985.962-.227 1.188-.381 1.188-.681 0-.354-.255-.498-.915-.498-.598 0-1.343.281-1.796.644l-.861-1.17c.598-.526 1.569-.897 2.602-.897"/><path d="m318.462 42.929h4.797v1.396h-3.211v1.242h2.001v1.378h-2.001v.935h2.989v1.395h-4.575z"/><path d="m328.123 42.929h1.333v6.346h-1.542v-3.463l-2.448 3.463h-1.442v-6.346h1.542v3.636z"/><path d="m330.605 42.929h1.623v6.346h-1.623z"/><path d="m335.989 42.829c1.595 0 2.72.888 2.72 2.837v3.608h-1.614v-3.608c0-.861-.364-1.387-1.089-1.387-.735 0-1.097.535-1.097 1.387v3.608h-1.623v-3.608c0-1.958 1.125-2.837 2.703-2.837"/></g></svg>