<svg clip-rule="evenodd" fill-rule="evenodd" stroke-linejoin="round" stroke-miterlimit="1.41421" viewBox="0 0 560 400" xmlns="http://www.w3.org/2000/svg"><g transform="matrix(1.86935 0 0 1.86935 100.998 110.266)"><path d="m-.534.012h192.58v95.982h-192.58z" fill="#183059"/><g fill="#fff" fill-rule="nonzero"><path d="m37.297 80.937v-22.011l-3.016-3.335h24.848v-13.914h-21.832v-11.519h22.499l13.342-13.936h-56.977v64.715z"/><path d="m111.894 80.857h-45.549v-2.653l11.161-11.207h20.206l1.917-1.908v-8.065l-1.555-1.562-21.708-.037-7.742-7.665v-17.148l14.327-14.351h37.337v8.828l-4.993 5.087h-23.987l-1.628 1.925v8.102l1.484 1.489h21.816l7.706 8.102v22.307z"/><path d="m176.849 80.967h-46.788v-29.559l7.263-7.432h20.607l1.858-2.027v-11.824l-1.52-1.182h-9.459l-1.351 1.351v5.912h-17.229v-10.979l8.783-9.122h29.053l8.783 9.459v24.324l-7.094 7.263h-26.688l4.898 4.56v5.236h29.053z"/><g transform="matrix(.551662 0 0 .551662 80.3019 39.2066)"><path d="m181.469 75.393v-6.314h-2.359v-.844h5.674v.844h-2.368v6.314z"/><path d="m185.731 75.393v-7.158h1.426l1.694 5.068c.157.472.271.825.342 1.06.082-.261.209-.643.381-1.148l1.714-4.98h1.274v7.158h-.913v-5.991l-2.08 5.991h-.854l-2.071-6.094v6.094z"/></g></g></g></svg>