<svg clip-rule="evenodd" fill-rule="evenodd" stroke-linejoin="round" stroke-miterlimit="2" viewBox="0 0 560 400" xmlns="http://www.w3.org/2000/svg"><g fill-rule="nonzero" transform="matrix(1.00915 0 0 1.00915 -23.7191 -27.6132)"><path d="m73.1 228.1c.5-.8.8-1 .8-1l-2.3-1.3c-.3.5-.5 1-1 1.5 1 .1 1.7.6 2.5.8zm36.9-15.5-1 .8c-1.5 1.3-4.3 3.3-7.3 5.5-5.5 4.3-12.1 9-12.1 9 1.5 1 6 3.8 7.5 5l1.5-1.5c.5-.5 1-1 1.5-.8 1 .3 1.5 1 2 1.8l.3 1 2-.5h1.3c.2 0 .5 0 .5.3.3 0 .5.3.5.3.3 0 .3.3.3.5v.3c0 .3 0 .3-.3.3l-3.3 2.3h-.3c0 .3.3.3 0 .5h-.8c-.3 0-.3.3-.5.3l-2.3 1.3h-1l-.5.3-.5-.3-.3-.3.5-2-.8-.3-14.1-4s-10.5 4-11.1 4.3c-.5.3-1 .3-1.5 0-.8-.3-1.3-.8-.8-2 .5-1 1-2.3 1.5-3.3-.8-.8-1.5-1.3-2-2-.5.8-1.3 1.5-2 2 .3-1.3 1-2.3 1.8-3.3-.3-.3-.3-.5-.3-.5.3-.3.5-.3.8 0 .5-.8 1-1.3 1.8-2-5.8-4-6.8-6.3-6.3-7 .5-.8 3.3 0 3.3 0 0-.3.3-.3.5-.3 2.5.3 4.8 1 6.8 2.3.8-1 1.3-1.8 2-2.8v-1c.3-.3.8-.3 1 0 1-1.5 2.3-2.5 3.5-3.3-.3 1.3-.8 2.3-1.8 3.3 2 .8 3.8 1.8 5.5 2.8l15.6-7.3c.5-.3 2.3-1.3 4.3-2l2.5-1.3c-9-13.8-27.6-17.3-41.4-8.3s-17.3 27.6-8.3 41.4 27.6 17.3 41.4 8.3c12.4-8.5 16.7-24.5 10.4-37.8zm-33.6 8.2c1.5.8 2.8 1.5 2.8 1.5l1.3-.5c-.8-.8-1.8-1.8-2.3-2.8-.8 1.1-1.3 1.6-1.8 1.8z" fill="#e55725"/><g fill="#5b5b5b"><path d="m146.7 212.6-.5 4.3h-8.3v5.8h6.5v4.3h-6.5v11.3h-5.3v-25.6h14.1z"/><path d="m158.5 212.6v16.8c0 1 0 2 .5 3 .8 1.3 2 2 3.5 1.8 2 .3 3.8-1 4-3v-18.6h5.3v17.3c.3 1.3 0 2.8-.5 4-.8 2-3.3 4.8-8.8 4.8-3.3.3-6.3-1-8.3-3.5-1-1.5-1.3-3.3-1-4.8v-17.8z"/><path d="m185.6 212.6v21.4h9.3l-1 4.3h-13.6v-25.6h5.3z"/><path d="m207 212.6v21.4h9l-1 4.3h-13.6v-25.6c.3-.1 5.6-.1 5.6-.1z"/><path d="m249.4 218.1c-1.8-1.3-3.8-2-6-2-1.8-.3-3.3 1-3.5 2.8v.3c0 1.3.8 2 2.8 2.5l3 1c3.8.5 6.5 3.8 6.5 7.5 0 5.3-4.3 8.5-10.5 8.5-3 0-6-.8-8.8-2.3l2-4c2.3 1.3 4.5 2 7 2 3 0 4.5-1.3 4.5-3.5 0-1.8-1.5-3-3-3.3l-2.8-.8c-2-.3-3.8-1.5-5-3.3-.8-1.3-1-2.5-1-4 0-4.8 3.8-8 9.3-8 3 0 6 .8 8.5 2.5z"/><path d="m269.3 212.6 8 25.9h-5.5l-1.8-6h-7.5l-1.8 6h-5.3l8.3-25.9zm-.5 15.3s-.8-2.8-1.3-5.3c-.3-1.3-1-4.5-1-4.5l-1.3 5c-.5 1.8-.8 3-1.3 4.8z"/><path d="m282.9 212.6h5.5v25.6h-5.5z"/><path d="m302.4 212.6v21.4h9.3l-1 4.3h-13.6v-25.6h5.3z"/><path d="m333.6 212.6v16.8c0 1 0 2 .5 3 .8 1.3 2 2 3.5 1.8 2 .3 3.8-1 4-3v-18.6h5.3v17.3c.3 1.3 0 2.8-.5 4-.8 2-3.3 4.8-8.8 4.8-3.3.3-6.3-1-8.3-3.5-1-1.5-1.3-3.3-1-4.8v-17.8z"/><path d="m361.2 212.6 5 10.3c1 2.3 2 4.8 2.8 7.3-.3-2-.3-5.3-.5-7v-10.5h5v25.6h-5.5l-4.3-9.8c-1.5-3.3-3-6.8-3.5-8.5.3 2 .3 5 .3 7.3l.3 11.1h-5v-25.6h5.4z"/><path d="m382.3 212.6h5.3v25.6h-5.3z"/><path d="m399.4 212.6 4.3 13.3c.3 1.3.8 2.5 1.3 4.5.5-1.8 1-3.3 1.5-5l4.3-12.8h5.5l-9 25.9h-4.8l-8.5-25.9z"/><path d="m437.1 212.6-.5 4.3h-8.8v6h7.3v4.3h-7.3v6.8h9.8v4.5h-15.1v-25.9z"/><path d="m454.4 212.6c4-.3 7.3 2.8 7.5 6.8v.8c.3 3.5-2.3 6.5-5.8 7 .5.3.8.8 1 1 1.5 1.8 6.3 10 6.3 10h-6c-1-1.8-1.5-2.5-2.5-4.3-2.5-4.5-3.3-5.8-4.3-6.3-.3 0-.5-.3-.8-.3v10.8h-5v-25.6h9.6zm-4.5 11h1.8c1.3.3 2.8 0 3.8-.8.8-.8 1-1.5 1-2.5.3-1.3-.5-2.5-1.8-3-1-.3-2-.5-3-.3h-1.8z"/><path d="m484.3 218.1c-1.8-1.3-3.8-2-6-2-1.8-.3-3.3 1-3.5 2.8v.3c0 1.3.8 2 2.8 2.5l3 1c3.8.5 6.5 3.8 6.5 7.5 0 5.3-4.3 8.5-10.5 8.5-3 0-6-.8-8.8-2.3l2-4c2.3 1.3 4.5 2 7 2 3 0 4.5-1.3 4.5-3.5 0-1.8-1.5-3.3-3.3-3.3l-2.8-.8c-2-.3-3.8-1.5-5-3.3-.8-1.3-1-2.5-1-4 0-4.8 3.8-8 9.3-8 3 0 6 .8 8.5 2.5z"/><path d="m493.8 212.6h5.3v25.6h-5.3z"/><path d="m524 212.6-.8 4.3h-6v21.4h-5.3v-21.4h-6.3v-4.3z"/><path d="m533.3 212.6 3.3 7c.5 1 1 2.3 1.3 3.3.3-.8.8-2 1.5-3.3l3.3-7h6l-8.3 15.1v10.5h-5.4v-10.5l-8-15.1z"/></g></g></svg>