<svg clip-rule="evenodd" fill-rule="evenodd" stroke-linejoin="round" stroke-miterlimit="2" viewBox="0 0 560 400" xmlns="http://www.w3.org/2000/svg"><g fill-rule="nonzero" transform="matrix(1.12984 0 0 -1.12984 -57.758 966.073)"><path d="m0 0-.507 1.001v6.499h-4.238l.515-1.061v-4.439h-1.52v9.504h1.52v-1.219l3.723-.973v2.954l-1.387 1.118h-6.093l-1.459-1.161v-11.11l1.314-1.113z" fill="#ff7900" transform="translate(234.328 634.923)"/><path d="m0 0 .485.002.548-5.896h-1.528zm-.232-10.341-.546.944.15 1.667h1.814l.151-1.665-.529-.946h4.932l-.608.955-2.278 12.428h-5.668l.419-.907-.014-.076-1.428-7.953h-.538l.309-1.195-.471-2.39-.587-.862z" fill="#ff7900" transform="translate(249.69 645.264)"/><path d="m0 0 1.362 1.134v5.042l-5.055 2.632v2.696h1.359v-2.056l3.696-.972v3.748l-1.436 1.16h-5.953l-1.412-1.157v-4.836l5.105-2.631v-2.942h-1.359v2.257l-3.746.975v-3.914l1.388-1.136z" fill="#ff7900" transform="translate(273.519 634.923)"/><path d="m0 0-.475-.863h4.706l-.505.98v10.19l.854.029 1.238-.448v2.632h-7.857v-2.63l1.212.446.857-.029z" fill="#ff7900" transform="translate(288.081 635.786)"/><path d="m310.042 636.72h-1.333v9.708h1.333zm3.721 10.469-1.387 1.117h-5.928l-1.437-1.159v-11.085l1.436-1.138h5.928l1.388 1.135z" fill="#ff7900"/><path d="m0 0 .512-1.021v-8.938l-1.985 8.798-1.103 1.161h-4.398l.514-1.042v-11.424l-.505-.916h4.082l-.504.979v9.003l2.058-8.882 1.077-1.1h3.838l.029 12.476.482.906z" fill="#ff7900" transform="translate(332.133 648.306)"/><path d="m0 0-.481-.906h4.686l-.529 1.021v11.446l.522.917h-4.671l.502-.897z" fill="#ff7900" transform="translate(347.574 635.829)"/><path d="m0 0 .485.002.547-5.896h-1.527zm-.229-10.341-.548.944.15 1.667h1.815l.15-1.665-.53-.946h4.933l-.607.955-2.281 12.428h-5.665l.42-.907-.014-.076-1.43-7.953h-.538l.309-1.194-.471-2.391-.588-.862z" fill="#ff7900" transform="translate(367.056 645.264)"/><g fill="#676968"><path d="m0 0 .079-.135.041-.149.02-.067 6.024-21.371.019-.072.047-.164v-7.875l-.103-.236-.044-.103-.31-.713h1.895v8.927l-.045.164-6.319 22.383h-1.647l.309-.53z" transform="translate(253.41 622.701)"/><path d="m0 0-.269-.628.111.257.145.34.053.126z" transform="translate(153.266 592.476)"/><path d="m0 0-.158-.37-.229-.535.255.595.251.586z" transform="translate(283.504 592.44)"/><path d="m0 0-.034-.076-1.008-2.312.999 2.289z" transform="translate(258.342 592.972)"/><path d="m0 12.633v-13.174h1.438v13.174z" transform="translate(296.253 614.608)"/><path d="m0 0-.114-.193-.531-.891.76 1.277z" transform="translate(273.64 624.33)"/><path d="m0 0h-1.915l.332-.775.044-.101.101-.233v-28.143l2.293-2.222h2.001l-2.856 2.787z" transform="translate(312 623.29)"/><path d="m0 0 .364-.809-.395.878zm.446-.992-.005.014-.067.146-.01.023z" transform="translate(341.333 592.218)"/><path d="m0 0 .332-.775.044-.101.1-.233v-29.428l-.055-.12-.055-.121-.047-.105-.265-.591h1.86v31.474z" transform="translate(335.447 623.29)"/><path d="m0 .54v-16.586h1.438v16.586z" transform="translate(296.253 607.862)"/><path d="m0 0 .289-.653.046-.104.106-.238v-13.41h-.594l.477-1.255.036-.092.081-.212v-18.353l-.101-.232-.042-.102-.333-.774h1.913v35.425z" transform="translate(284.611 627.241)"/><path d="m0 0h-1.438v-28.088h1.438z" transform="translate(322.812 623.29)"/><path d="m0 0h-2.103l.301-.804.05-.137.115-.31-.057-.328-.025-.143-1.698-9.837-.558-3.228-.518-2.996.555-3.509z" transform="translate(267.409 623.29)"/><path d="m0 0 .295.29.608.597.107.108z" transform="translate(179.419 621.879)"/><path d="m0 0 .103-.235v-20.814l1.438-4.534v26.399h-1.897l.311-.712z" transform="translate(350.65 622.474)"/><path d="m0 0h-1.437v-13.173h1.437z" transform="translate(167.437 627.241)"/><path d="m0 .54v-24.357h1.438v24.357z" transform="translate(191.172 619.088)"/><path d="m0 0 .144-.327.145-.326.023-.052.024-.052.026-.06.079-.178v-13.41h-.594l.314-.826.163-.429.036-.092.081-.212v-18.353l-.076-.174-.025-.058-.042-.102-.262-.609-.071-.165h1.913v35.425z" transform="translate(154.358 627.241)"/><path d="m0 0h-1.437v-16.586h1.437z" transform="translate(167.437 608.402)"/><path d="m0 0 .254.179.028.02z" transform="translate(231.872 606.8)"/><path d="m0 0 2.587 2.565h-1.776l-2.249-2.215v-27.088l2.241-2.171h1.921l-2.724 2.644z" transform="translate(181.797 620.725)"/><path d="m0 0 .048-.105.104-.238v-11.295l-.1-.232-.042-.102-.332-.774h1.913v11.964l-.954 2.154.954.671v16.684h-1.913l.332-.774.042-.101.1-.233v-15.136l-.523-.368-.229-.161-.201-.142z" transform="translate(234.209 604.562)"/><path d="m0 0 .049-.11-.288.644-.11.244z" transform="translate(211.454 591.386)"/><path d="m0 0 .044-.102.1-.232v-29.428l-.109-.241-.048-.105-.264-.591h1.86v31.474h-1.915z" transform="translate(205.525 622.515)"/><path d="m0 0 .103-.235v-20.814l1.438-4.534v26.399h-1.897l.311-.712z" transform="translate(220.396 622.474)"/><path d="m0 0 .724.328v10.1h-1.438v-10.751l.396.179z" transform="translate(415.154 610.483)"/><path d="m0 0 .291-.652.043-.104.106-.238v-18.266l-.548-.366-.241-.16-.07-.047-.071-.048.423-.938.352-.783.028-.063.019-.042.108-.242v-8.587l-.107-.242-.033-.073-.015-.032-.267-.591h1.86v9.22l-.17.38-.76 1.687.93.621v19.566z" transform="translate(403.185 623.29)"/><path d="m0 0 .095-.443.153-.707 2.172-10.135h1.439l-2.586 11.979z" transform="translate(413.123 603.101)"/><path d="m0 0 .026-.122-.028.132z" transform="translate(412.043 602.264)"/><path d="m0 0v6.991l-1.438.456v-7.812l2.154-2.155h1.792z" transform="translate(430.118 594.335)"/><path d="m0-4.218v4.758h-1.438v-4.295z" transform="translate(441.086 619.088)"/><path d="m0 0v5.778l-.854.517-.584.354v-6.649z" transform="translate(441.086 595.323)"/><path d="m0 0 .105-.238v-11.295l-.1-.232-.044-.102-.331-.774h1.913v11.964l-.953 2.154.953.671v16.684h-1.913l.331-.774.044-.101.1-.233v-15.136l-.523-.368-.229-.161-.202-.142.802-1.812z" transform="translate(383.205 604.457)"/><path d="m0 0h-1.595l-1.471-1.471-.735-.736v-11.142l1.438-.87v11.784z" transform="translate(432.481 623.29)"/><path d="m0-25.261v26.969h-1.438v-26.032l-.109-.241-.047-.105-.266-.591z" transform="translate(367.363 617.077)"/><path d="m0 0 .115.05.263.119.288-.01.126-.005.056-.003v3.206h-1.437v-3.624z" transform="translate(362.035 619.933)"/><path d="m0 0 .003.007.004.01zm-.004-.008-.001-.003.005.011z" transform="translate(364.657 592.937)"/></g><path d="m-1.437 0h1.438v-3.206h-.001l-.056.003-.126.005-.288.01-.263-.119-.115-.05-.589-.267zm4.322-30.883.048.105.108.241v26.032h1.439v-26.969h-1.861zm-3.227 26.401.116.053.118-.006h.007l1.39-.051.52-.019v-25.767l-.027-.064-.012-.024-.001-.003-.008-.015-1.048-2.329h9.763l-1.048 2.329-.048.106v25.767l.521.019.632.023.758.028.125.006.083-.038.031-.013 2.382-1.055v6.767h-16.582v-6.761z" fill="#231f20" transform="translate(362.883 623.29)"/><path d="m0 0-2.172 10.134-.154.707-.094.444 1.273.694h.001l2.584-11.979zm-4.051 17.084-.765-.346-.763-.344v11.47h3.242v-10.004l-.317-.144zm2.947 1.26v10.752h1.438v-10.101l-.724-.328-.317-.143zm-9.376-6.436-.929-.62.759-1.688.17-.38v-9.22h-1.86l.266.591.015.033.034.072.107.242v8.587l-.108.242-.048.106-.352.782-.422.938.07.048.07.047.242.16.548.366v18.266l-.107.238-.045.104-.288.652h1.878zm16.469-10.79-.017.068-2.883 11.432-.034.137-.064.25.342.207.368.222.609.369.976.59v15.485l-1.425 1.403-.867.852-.582.574h-16.662l.247-.561.807-1.823.046-.104v-17.346l-.241-.161-1.009-.673 1.203-2.672.047-.106v-8.059l-.019-.042-.028-.064-1.049-2.328h9.763l-1.047 2.328-.049.106v8.264l.282.153 1.132.618.224.121.411.225.027-.125.002-.01.026-.122.064-.3.034-.15 2.381-11.108h8.278l-1.26 2.289z" fill="#231f20" transform="translate(415.544 591.816)"/><path d="m0 12.633v-13.174h-1.437v13.174zm0-18.84v-16.585h-1.437v16.585zm-11.201-16.585h-1.914l.072.165.262.609.042.101.025.059.075.174v18.352l-.081.212-.035.092-.163.43-.314.826h.593v13.41l-.078.178-.026.059-.024.053-.024.052-.144.326-.144.327h1.878zm16.178 1.306-.024.055v32.808l.031.07.015.034.528 1.192.528 1.191h-8.724v-14.405h-3.63v14.405h-8.672l.241-.544.508-1.149.305-.69.047-.104v-11.918h-1.148l.556-1.461.556-1.462.036-.093v-17.874l-.024-.054-.021-.049-.146-.34-.007-.018-.063-.146-.053-.125-.05-.117-.096-.222-.11-.258-.542-1.265h8.683v17.818h3.63v-17.818h8.733l-1.067 2.491z" fill="#231f20" transform="translate(167.437 614.608)"/><path d="m0 0 .229.161.523.37v15.134l-.101.232-.042.102-.331.774-.001.001h1.913v-16.685l-.954-.671.954-2.154v-11.964h-1.913l.332.774.042.102.101.232v11.295l-.105.238-.047.105-.802 1.812zm-.676 15.87.153-.356.002-.006.004-.008.038-.088v-14.244l-.105-.072-.125-.089-.171-.12-.059-.041-.241-.169-.275-.195-.028-.02-.254-.178 1.211-2.737.047-.104v-10.782l-.03-.068-.014-.034-1.068-2.492h14.81v6.723l-.499-.25-1.5-.749-.116-.059h-4.012v.001h-.001v8.179l.073.038.071.038.073.038.071.037.417.22 2.576 1.36.076.04h.001l.244-.115.45-.211 1.406-.661v8.345l-1.646-.87-3.019-1.595-.545-.288-.247-.131v.001l-.001-.001v8.234h3.641l.032-.014.072-.031 2.383-1.055v6.715h-14.81z" fill="#231f20" transform="translate(233.609 606.516)"/><path d="m0 0v-26.4l-1.438 4.534v20.815l-.103.235-.045.103-.311.713zm-14.83-31.474h-1.861l.266.591.048.105.108.241v29.428l-.099.233-.044.101-.332.775h1.914zm11.584 31.488.531-1.219.029-.067.016-.036v-20.525h-.389l-.68 3.256-2.488 11.897-1.039 4.974-.864 1.113-1.421 1.825h-9.061l1.068-2.492.024-.054.02-.048v-28.91l-.049-.106-1.046-2.329h8.473l-.228.51-.083.183-.4.888-.336.748-.048.106v20.886h.363l.706-3.303 2.453-11.487 1.226-5.743 2.231-2.788h7.852v31.399l.046.103 1.061 2.437h-8.497z" fill="#231f20" transform="translate(221.937 623.29)"/><path d="m0 0 6.319-22.384.045-.163v-8.927h-1.897l.312.712.044.104.103.236v7.875l-.047.163-.019.072-6.024 21.372-.02.067-.041.149-.079.135-.033.058-.309.531zm8.72-14.787.558 3.228 1.698 9.837.025.143.058.328-.116.31-.05.137-.301.804h2.103l-3.937-21.292-.001-.004-.555 3.513zm-11.456 14.21.332-.573.036-.058.009-.033.01-.033 3.285-11.658 2.738-9.714.021-.071v-7.449l-.023-.052-.022-.052-.011-.023-.01-.025-.044-.099-.999-2.29h9.735l-.532 1.218-.161.37-.37.849-.007.019-.015.033-.022.052v7.452l.022.075 6.334 21.372.019.065.014.022.01.018.012.018.657 1.1.53.891.115.193.114.192h-10.218l.389-1.049.039-.107.486-1.308.009-.026.01-.025.015-.043.016-.044-.023-.142-.85-4.919-.85-4.918-.557-3.228v.002l-.001-.002-.427 2.723-.081.513-.209 1.335-1.335 8.502-.021.139.048.133.914 2.464h-10.181z" fill="#231f20" transform="translate(254.713 623.29)"/><path d="m0 0v-11.785.001l-1.438.87v11.143l.734.735 1.471 1.471h1.597zm9.529-25.532v6.649l.585-.354.853-.517v-5.778zm-8.813-3.507-2.154 2.154v7.813l1.438-.457v-6.991l1.254-1.259 1.254-1.26zm8.813 23.517v4.295h1.438v-4.757zm-1.232 4.295v-5.193l7.571-2.433v9.59l-.743.732-.745.733-.744.733-.745.732h-12.635l-1.464-1.464-1.463-1.464v-12.346l4.04-2.447 6.668-4.039.26-.157v-7.282h-3.294v5.707l-5.823 1.849-.508.162-.61.193-.733.233v-10.007l1.918-1.918.959-.958h12.835l1.414 1.437 1.413 1.437v12.865l-6.582 4.025-4.025 2.461-.051.031v6.788z" fill="#231f20" transform="translate(430.119 620.855)"/><path d="m0 .54v-24.357h-1.438v24.357zm-2.669 0v-24.359h-3.243v24.358h.001v.001zm-7.341-27.812-2.241 2.17v27.089l2.249 2.215h1.776l-2.587-2.565v-26.265l2.724-2.644zm-.496 32.706-1.675-1.649-.108-.107-.607-.597-.295-.29-.292-.288v-28.127l1.487-1.44 1.487-1.441h12.586l2.877 2.877v28.234l-2.875 2.828z" fill="#231f20" transform="translate(192.61 619.088)"/><path d="m0-.07v28.089h1.438v-28.089zm-6.517-3.386h-2.003l-2.293 2.223v28.143l-.101.232-.043.102-.332.775h1.914v-28.688zm2.043 3.456v29.251h-8.683l1.07-2.492.041-.102v-28.412l1.297-1.257 1.73-1.676h12.433l2.976 2.93v28.415l.045.102.534 1.246.533 1.246h-8.734v-29.251z" fill="#231f20" transform="translate(321.374 595.271)"/><path d="m0 12.633v-13.174h-1.438v13.174zm0-18.84v-16.585h-1.438v16.585zm-13.115-16.585.333.774.042.101.099.233v18.352l-.079.212-.036.092-.477 1.256h.592v13.41l-.104.237-.047.105-.288.653h1.878v-35.425zm18.111 1.258-.043.103v32.808l.045.104 1.055 2.383h-8.723v-14.405h-3.63v14.405h-8.672l.24-.544.814-1.839.046-.104v-11.918h-1.147l1.112-2.923.035-.093v-17.874l-.032-.076-.012-.027-.153-.358-.166-.388-.085-.198-.663-1.547h8.683v17.818h3.63v-17.818h8.733l-.406.948z" fill="#231f20" transform="translate(297.691 614.608)"/><path d="m-.001 0h1.898v-26.4l-1.439 4.534v20.815l-.102.235-.046.103zm-12.932-31.474h-1.861l.266.591.046.105.056.121.055.12v29.428l-.1.233-.044.101-.333.775h1.915zm11.584 31.488.53-1.219.03-.067.016-.036v-20.525h-.389l-.681 3.256-2.487 11.897-1.04 4.974-.863 1.113-1.421 1.825h-9.061l1.066-2.492.025-.054.02-.048v-28.91l-.048-.106-1.047-2.329h8.474l-.228.51-.061.134-.006.013-.067.147-.373.831-.031.069-.082.182-.199.443-.048.106v20.886h.362l.707-3.303 2.453-11.487 1.226-5.743 2.231-2.788h7.851v31.399l.046.103 1.062 2.437h-8.498z" fill="#231f20" transform="translate(350.294 623.29)"/><path d="m0 0 .229.161.523.37v15.134l-.099.232-.044.102-.332.774v.001h1.913v-16.685l-.953-.671.953-2.154v-11.964h-1.912l.331.774.044.102.099.232v11.295l-.105.238-.046.105-.802 1.812zm-.522 15.514.002-.006.004-.008.017-.044.019-.044v-14.244l-.161-.113-.067-.048-.23-.161-.799-.562 1.211-2.737.046-.104v-10.782l-.023-.056-.019-.046-.334-.779-.734-1.713h14.809v6.723l-.125-.062-.374-.188-1.5-.749-.114-.059h-4.014v8.18l.144.076.144.075.417.22 2.414 1.275.161.085.078.04h.001l.242-.115 1.856-.872v8.345l-1.554-.822-3.109-1.643-.793-.419v.001l-.001-.001v8.234h3.64l.051-.022.054-.023 2.382-1.055v6.715h-14.809l.914-2.136z" fill="#231f20" transform="translate(382.558 606.516)"/><path d="m2.752 0h-3.085v-6.788l.049-.032 4.025-2.461 6.582-4.025v-12.865l-2.826-2.874h-12.836l-2.877 2.877v10.006l.733-.232.611-.194 6.331-2.011v-5.707h3.293v7.282l-.261.158-6.668 4.038-4.039 2.447v12.347l1.464 1.464.731.732.732.732h12.635l1.49-1.466.744-.732.743-.733v-9.589l-7.571 2.433zm8.624-9.072v11.476l-3.598 3.544h-13.503l-3.545-3.546v-13.377l10.968-6.643v-5.634h-1.186v5.424l-9.782 3.106v-11.882l3.495-3.495h13.712l3.439 3.497v13.887l-10.864 6.644v5.017h1.186v-4.907z" fill="#ffb000" transform="translate(435.664 619.628)"/><path d="m0 0v29.251h8.734l-.532-1.246-.534-1.246-.045-.102v-28.415l-2.977-2.93h-12.434l-1.728 1.676-1.297 1.257v28.412l-.042.102-1.069 2.492h8.682v-29.251zm-1.053 1.053h-1.135v29.251h-11.334l1.655-3.864v-28.641l3.653-3.541h13.292l3.6 3.543v28.639l1.655 3.864h-11.386z" fill="#ffb000" transform="translate(320.142 595.271)"/><path d="m0 0h16.583v-6.767l-2.383 1.054-.031.014-.083.037-.125-.005-.757-.028-.631-.023-.521-.02v-25.767l.047-.106 1.048-2.328h-9.763l1.048 2.328.02.043.027.063v25.767l-.519.02-1.39.051h-.007l-.118.005-.116-.052-2.328-1.047-.001-.001zm-1.053-8.391 3.704 1.667.776-.029v-24.526l-1.671-3.714h13.02l-1.671 3.714v24.526l.777.029 3.755-1.662v9.439h-18.69z" fill="#ffb000" transform="translate(360.212 624.523)"/><path d="m0 0-2.382 11.108-.033.15-.065.3-.055.257-.411-.224-.222-.122-1.133-.617-.282-.153v-8.265l.048-.106 1.047-2.328h-9.762l1.049 2.328.028.064.018.042v8.059l-.046.106-1.204 2.672 1.01.674.24.16v17.347l-.045.104-.808 1.823-.248.56h16.664l.582-.574 2.292-2.254v-15.486l-.977-.591-.608-.367-.369-.223-.342-.206.065-.251.035-.136 2.881-11.433.019-.067.032-.061 1.259-2.29zm5.199 13.74 2.137 1.292v16.521l-3.496 3.439h-18.713l1.665-3.763v-16.56l-1.523-1.016 1.523-3.386v-7.607l-1.671-3.714h13.021l-1.671 3.714v7.413l.261.142 2.416-11.269h10.911l-2.086 3.793z" fill="#ffb000" transform="translate(414.548 590.583)"/><path d="m0 0h-8.734v17.818h-3.629v-17.818h-8.683l.541 1.265.269.628.084.196.019.044.008.018.145.341.022.048.023.054v17.874l-.035.093-.556 1.461-.557 1.462h1.148v11.918l-.046.104-.306.69-.508 1.149-.241.544h8.673v-14.405h3.629v14.405h8.724l-.527-1.191-.528-1.192-.016-.034-.031-.07v-32.808l.024-.055.021-.047zm1.607 38.942h-11.395v-14.404h-1.522v14.404h-11.344l1.664-3.763v-10.641h-1.62l1.62-4.264v-17.465l-1.655-3.863h11.335v17.819h1.522v-17.819h11.386l-1.656 3.863v32.37z" fill="#ffb000" transform="translate(173.501 590.583)"/><path d="m0 0-2.383 1.054-.072.033-.032.014h-3.64v-8.234l.247.131.544.287 3.02 1.595 1.646.87h.001v-8.345h-.001l-1.407.661-.45.212-.244.115-.077-.041-.16-.085-2.414-1.274-.417-.22-.073-.038-.072-.038-.072-.037-.071-.038v-8.181h4.012l.115.059 2 1v-6.723h-14.81l1.068 2.492.042.102v10.782l-.045.104-1.212 2.736.798.562.059.042.172.119.125.089.103.072v14.245l-.036.087-.004.008-.002.007-.153.356-.915 2.136h14.81zm-14.752 3.905v-13.481l-1.518-1.067 1.518-3.427v-10.343l-1.656-3.864h17.461v9.481l-3.415-1.708h-2.712v6.49l2.33 1.23 3.127-1.471v11.754l-5.457-2.885v5.433h2.364l3.763-1.666v9.388h-17.461z" fill="#ffb000" transform="translate(246.829 617.807)"/><path d="m0 0-.046-.103v-31.398h-7.852l-2.23 2.787-1.227 5.743-2.453 11.487-.706 3.303h-.362v-20.886l.047-.106.337-.748.11-.244.372-.827.229-.509h-8.474l1.047 2.328.048.106v28.91l-.02.048-.024.054-1.068 2.493h9.062l1.42-1.826.865-1.112 1.039-4.975 2.487-11.897.681-3.255h.388v20.524l-.016.036-.029.067-.53 1.219-.531 1.219h8.497zm-7.385-.322v-11.975l-2.559 12.251-2.75 3.537h-11.175l1.655-3.864v-28.468l-1.671-3.714h11.733l-1.671 3.714v12.383l2.718-12.719 2.701-3.378h9.411v32.233l1.661 3.813h-11.711z" fill="#ffb000" transform="translate(225.597 622.085)"/><path d="m0 0-2.158-2.157-.719-.719h-12.585l-1.488 1.44-1.487 1.441v28.127l1.302 1.282 1.675 1.648h12.585l2.875-2.828zm-15.892 32.116-3.598-3.543v-29.014l3.601-3.489h13.449l3.494 3.494v29.112l-3.498 3.44z" fill="#ffb000" transform="translate(197.564 593.46)"/><path d="m0 0-.048-.132.021-.14 1.335-8.502.209-1.334.081-.514.427-2.723.001.002.557 3.226.85 4.919.85 4.918.023.143-.032.086-.009.026-.009.025-.243.654-.243.655-.039.106-.389 1.05h10.219l-.76-1.277-.657-1.101-.011-.017-.011-.018-.014-.022-.019-.065-6.334-21.371-.022-.076v-7.452l.022-.052.015-.033.008-.018.369-.849.161-.37.532-1.218h-9.735l1.009 2.312.033.076.011.025.011.024.022.052.022.051v7.449l-.02.071-2.738 9.715-3.285 11.657-.02.066-.035.059-.332.572-1.05 1.81h10.181zm2.128 2.708 1.094-2.945-1.147-6.632-1.041 6.628zm-10.956-3.098 5.988-21.241v-7.083l-1.661-3.814h12.948l-1.661 3.814v7.08l6.294 21.238 2.337 3.914h-26.514z" fill="#ffb000" transform="translate(260.194 622.058)"/><path d="m0 0-1.134-.514v8.784h1.134zm1.054-.68v10.003h-3.242v-11.469l.763.344.764.346 1.396.632z" fill="#ffb000" transform="translate(412.153 610.356)"/><path d="m187.751 618.576h1.135v-22.251h-1.135zm2.189 1.051h-3.242v-24.357h3.242z" fill="#ffb000"/><path d="m0 0v17.818h-3.63v-17.818h-8.683l.637 1.487.158.369.119.277.153.359.012.026.032.076v17.874l-.035.093-1.112 2.923h1.147v11.918l-.047.104-.813 1.839-.242.544h8.674v-14.405h3.63v14.405h8.723l-1.055-2.383-.045-.104v-32.808l.044-.102.66-1.544.406-.948zm10.341 38.942h-11.395v-14.404h-1.523v14.404h-11.343l1.664-3.763v-10.641h-1.621l1.621-4.264v-17.465l-1.656-3.863h11.335v17.819h1.523v-17.819h11.386l-1.657 3.863v32.37z" fill="#ffb000" transform="translate(295.022 590.583)"/><path d="m0 0-.046-.103v-31.398h-7.851l-2.231 2.787-1.226 5.743-2.453 11.487-.707 3.303h-.362v-20.886l.047-.106.2-.443.62-1.376.228-.509h-8.474l1.047 2.328.048.106v28.91l-.02.048-.025.054-1.066 2.493h9.061l1.421-1.826.863-1.112 1.04-4.975 2.487-11.897.681-3.255h.389v20.524l-.016.036-.03.067-.53 1.219-.532 1.219h8.499zm-7.384-.322v-11.975l-2.559 12.251-2.751 3.537h-11.175l1.655-3.864v-28.468l-1.671-3.714h11.733l-1.67 3.714v12.383l2.717-12.719 2.702-3.378h9.412v32.233l1.659 3.813h-11.712z" fill="#ffb000" transform="translate(355.85 622.085)"/><path d="m0 0v-6.716l-2.381 1.054-.055.025-.05.022h-3.641v-8.234h.001l.791.418 3.111 1.644 1.555.821.001.001v-8.346h-.001l-1.856.873-.243.114-.001.001-.078-.041-.16-.085-2.415-1.274-.416-.22-.145-.076-.144-.075v-8.18h4.015l.113.058 1.874.937.125.063v-6.723h-14.81l.735 1.713.334.779.019.046.022.056v10.782l-.045.104-1.211 2.736.799.562.23.161.067.048.16.114v14.244l-.017.044-.018.043-.004.008-.002.007-.154.356-.915 2.136zm-14.751-2.811v-13.481l-1.518-1.066 1.518-3.428v-10.343l-1.655-3.864h17.46v9.481l-3.416-1.708h-2.711v6.49l2.33 1.23 3.128-1.471v11.754l-5.458-2.885v5.434h2.363l3.764-1.666v9.387h-17.46z" fill="#ffb000" transform="translate(395.776 624.523)"/><path d="m0 0c.645-4.93-16.446-1.754-19.536-14.598-1.352-5.617 3.684-10.955 8.313-8.435-3.756-12.731-19.81-14.951-28.427-14.892 7.233-3.434 13.254-2.962 17.418-.761-.945-2.217-2.76-3.688-4.921-4.444 3.018-.741 3.815-3.019 9.076-3.136-7.878-5.025-7.99 1.056-17.141-4.56-4.883-4.214-12.481-7.707-22.839-9.672-27.84-5.283-19.418-9.924-17.776-11.074-7.695-2.776-16.268-.421-20.443 1.514.394-1.528 4.793-3.955 4.42-3.959-5.654-.025-10.665 1.172-13.358 4.676-4.663 1.037-6.044 1.332-9.322 5.18-14.8 5.369-16.214 19.625-10.244 22.877 9.419 5.126 10.803 13.278 8.523 17.797-3.952 7.833-2.757 26.027 10.83 34.36.024.015-1.725-4.29-1.701-4.263 23.643 25.352 66.394 13.211 66.394 13.211s-6.904-.193-12.868-1.477c5.611-.72 10.915-2.09 15.714-3.83 20.064-3.364 21.585 6.957 29.556 1.232-6.106-.073-14.215-4.33-11.075-11.488.532-.455 1.032-.906 1.491-1.353 2.402.183 5.125-.053 8.207-.74 3.876-.623 7.234-3.047 9.709-2.165m-10.056 7.682c-5.23-3.128-6.663 2.839-2.802 3.902 3.466.954 7.536-1.071 2.802-3.902m30.497 9.039c-5.564 1.121-9.523-3.125-14.634-.511-6.176 3.159-13.292 6.211-21.579 4.504-8.285-1.707-8.678-4.618-14.14-3.761-5.721.896-4.313 6.891.608 5.777 5.977-1.351 9.747 2.444 6.725 6.146-3.03 3.717-14.336-3.115-23.107-2.895-4.463.111-19.152-.074-19.41-.076-15.651-.16-28.933-4.31-38.871-12.094l.055 1.812-3.178-2.038c-14.655-8.987-16.9-28.809-12.007-38.505 1.476-2.927.826-9.199-7.204-13.571-3.387-1.844-5.271-5.916-4.916-10.625.453-6.001 4.593-13.729 14.808-17.738 3.354-3.764 5.507-4.464 9.468-5.362 3.14-3.339 8.213-5.014 15.115-4.983l3.614-.009-.769 1.643c4.111-.706 9.185-.82 14.228 1.001l5.767 2.08-5.022 3.518c-.081.058-.176.122-.282.194-.062.041-.145.096-.237.161 1.465.939 5.615 2.814 17.064 4.986 4.888.928 9.719 2.285 14.283 4.282 1.984.868 3.917 1.859 5.758 3.002.855.531 1.69 1.094 2.498 1.695.837.621 1.586 1.36 2.423 1.976.085.063.172.123.263.18 1.384.868 3.317 1.02 4.91.998 14.079-.187 18.405 2.133 21.712 5.676 6.449 6.915-1.526 12.686-5.303 7.539-8.184-11.153-12.564-.685-4.648 3.807 11.342 6.436 4.75 13.079 16.033 15.28 9.808 1.912 8.419 10.246 2.754 10.925-5.953.713-11.261-10.943-15.85-8.494-4.655 2.485.232 8.059 5.389 9.351 6.366 1.596 16.443 3.505 18.159 7.261 1.872 4.093-3.019 7.948-7.343 4.199-4.045-3.505-7.668-.617-7.764 1.529-.379 8.382 8.248 8.144 12.773 6.417 3.846-1.468 6.742-3.425 10.368-2.984 5.841.708 6.925 6.611 1.489 7.707" fill="#ffb000" transform="translate(361.621 735.523)"/><path d="m0 0c9.151 5.616 9.263-.464 17.141 4.56-5.261.117-6.058 2.395-9.076 3.136-.829-.29-1.707-.479-2.608-.559-1.056-2.504-2.887-4.919-5.457-7.137" fill="#ff7900" transform="translate(326.402 684.697)"/><path d="m0 0c-7.971 5.725-9.492-4.596-29.556-1.232 7.797-2.827 14.249-6.636 18.481-10.256-3.14 7.157 4.969 11.415 11.075 11.488" fill="#ff7900" transform="translate(353.289 751.269)"/><path d="m0 0c8.617-.059 24.671 2.161 28.427 14.893-4.629-2.52-9.665 2.817-8.313 8.435 3.09 12.843 20.18 9.668 19.536 14.597-2.475-.882-5.834 1.542-9.71 2.165-20.554-6.057-1.098-31.637-29.94-40.09" fill="#ff7900" transform="translate(321.971 697.598)"/><path d="m0 0c3.246-1.18 5.968 1.287 4.434 3.609-1.552 2.342-6.429 1.592-8.912-1.213-1.857-2.099 1.379-1.271 4.478-2.396" fill="#ffb000" transform="translate(349.974 761.544)"/><path d="m0 0c-3.417 1.381-8.125-3.048-8.725-7.924-.448-3.644 2.431-.351 6.613.734 4.384 1.136 5.492 5.824 2.112 7.19" fill="#ffb000" transform="translate(364.668 712.926)"/><path d="m0 0c-9.226 3.021-17.73-2.19-17.73-2.19s.07 1.832 1.98 3.872c-4.783-1.37-10.64-9.157-7.781-16.717 2.426 12.335 23.531 15.035 23.531 15.035" fill="#231f20" transform="translate(295.977 734.428)"/><path d="m0 0c-5.94.82-6.195-4.66-9.559-5.988-5.705-2.257-11.951-.032-11.951-.032s13.446 5.096 19.843 9.56c-2.151 2.752-3.728 3.725-4.79 4.716 4.067 1.299 5.915-3.321 9.176-1.479 3.152 1.781 6.378 1.379 7.114-1.294.886-3.219-3.893-6.304-9.833-5.483m-13.702 69.384c-5.242-2.241-6.726-3.32-6.726-3.32s22.435-1.481 42.737-14.241c-15.053 1.844-25.198 1.962-34.805-3.18 2.542-.823 4.967-1.527 6.038-2.578-16.047-1.482-23.586-5.673-29.151-11.422-4.006-4.139-6.812-4.13-13.991-5.553-7.178-1.422-9.386-3.679-10.287-3.257-9.435 4.427-6.88 19.898-3.616 24.551.072.102.582-5.041 1.289-4.682 8.895 20.474 32.44 23.618 48.512 23.682m24.898-45.278c2.308 1.71 3.623 5.431 2.504 10.255.978-.63 1.732-3.67 2.19-4.95.833 3.153 0 6.721-1.674 9.08.835-.265 2.334-.98 3.22-1.823-3.413 7.358-10.013 7.247-14.601 6.968 2.165 2.347 4.25 3.215 7.925 2.635 13.737-2.164 8.991-27.869-5.645-24.797-.037.008-.08.022-.118.031 3.271 2.341 5.539 4.295 6.229 8.037.679-1.756-.243-5.594-.03-5.436m-39.301 3.71c.318-1.138-.447-2.348-1.709-2.702-1.228-.344-2.466.252-2.827 1.33.672 1.014 1.375 1.975 2.132 2.878 1.099.105 2.123-.506 2.404-1.506m3.52 3.396c3.03-5.359-.373-10.769-6.473-10.804 5.836 1.893 6.195 7.852 2.709 11.186 2.112 1.937 4.671 3.526 8.016 4.731-.96-1.025-4.338-4.963-4.252-5.113m-51.849-26.87c-2.53 1.564 14.142 1.86 11.031.656-3.111-1.205-9.527-1.584-11.031-.656m16.576-18.863c-2.453.724-3.734 2.699-3.734 2.699s2.638-.312 3.815.74c.063-1.817 2.368-4.162-.081-3.439m15.882.392c-3.116.919-4.747 3.433-4.747 3.433s3.356-.397 4.851.939c.081-2.31 3.012-5.293-.104-4.372m27.743 27.368 3.645 1.231c-2.22 2.05-11.836.355-19.373-7.278-6.402-6.487-4.717-18.231-28.333-14.255 0 0-10.533-3.062-14.365 3.998 0 0 1.653-.478 2.029-.535 2.816-.419 6.009.332 8.697 1.618-2.474 1.195-1.713 3.472.267 3.541 1.325.046 2.715-.256 3.895-.719 2.277 2.234 2.786 4.731-.438 6.097-3.784 1.602-7.922 1.825-11.298 1.475 3.655 2.175 2.855 4.386 13.312 5.469-3.235 1.479-5.697 1.04-7.859.493 4.137 5.559 24.159 3.791 22.961-9.466 4.221.98 6.459 4.842 7.715 6.235 9.175 10.163 24.274 12.374 32.023 7.871.511-.295-5.802-.738-6.002-1.348 3.09-.15 7.004-1.813 8.111-4.087-6.932-.242-8.099-3.623-14.987-.34m-19.797-19.381c5.866 8.688 10.611 12.708 15.399 15.447 1.149-.137 2.754-.261 4.513-.531.333-2.743-.541-5.329-.541-5.329s-3.099 2.892-5.929 2.963c.37-3.242-.403-5.583-.403-5.583l-4.245 1.309s.204-3.421-.042-6.171c1.26.73 1.925 3.752 1.925 3.752s1.745-.882 3.581-1.931c1.227 1.67 1.34 5.786 1.34 5.786s1.918-.961 4.658-3.35c1.726 2.766 2.18 6.174 2.294 8.037 2.642-.65 5.316-1.77 7.155-3.852-19.197-9.665-25.783-12.467-29.705-10.547m73.838 58.927c-3.081.687-5.804.923-8.206.74-.459.447-.96.898-1.491 1.353-4.232 3.62-10.684 7.429-18.481 10.256-4.799 1.741-10.104 3.11-15.714 3.83 5.963 1.284 12.868 1.477 12.868 1.477s-42.752 12.142-66.395-13.211c-.024-.026 1.726 4.278 1.702 4.263-13.587-8.333-14.782-26.527-10.831-34.36 2.281-4.519.896-12.671-8.522-17.797-5.971-3.252-4.557-17.508 10.244-22.877 3.278-3.848 4.659-4.143 9.321-5.18 2.693-3.504 7.704-4.701 13.358-4.675.373.003-4.025 2.43-4.42 3.959 4.176-1.936 12.748-4.291 20.443-1.515-1.641 1.15-10.064 5.791 17.777 11.074 10.357 1.965 17.956 5.458 22.838 9.672 2.571 2.218 4.402 4.633 5.457 7.137.902.08 1.78.269 2.608.559 2.161.756 3.976 2.227 4.922 4.445-4.165-2.202-10.185-2.674-17.418.76 28.842 8.452 9.385 34.033 29.94 40.09" fill="#231f20" transform="translate(314.103 684.903)"/><path d="m0 0c-.035 1 .519 1.832 1.237 1.856.717.025 1.325-.765 1.36-1.766.035-1-.517-1.831-1.234-1.855-.718-.025-1.328.764-1.363 1.765m-4.07 1.998c-.719-.025-1.329.766-1.364 1.766-.034.999.518 1.832 1.238 1.857.716.025 1.324-.767 1.359-1.767.035-.999-.517-1.831-1.233-1.856m-1.447-6.022c-.718-.025-1.328.765-1.362 1.766-.036 1 .517 1.83 1.235 1.855s1.326-.764 1.361-1.764c.034-1.001-.516-1.832-1.234-1.857m42.196 21.145c.2.611 6.513 1.053 6.001 1.349-7.748 4.503-22.847 2.292-32.022-7.871-1.257-1.393-3.494-5.255-7.716-6.236 1.199 13.257-18.823 15.025-22.96 9.467 2.162.546 4.624.986 7.859-.494-10.458-1.083-9.657-3.293-13.313-5.468 3.377.35 7.515.127 11.299-1.476 3.223-1.366 2.715-3.862.437-6.097-1.18.464-2.57.766-3.894.72-1.981-.069-2.742-2.347-.267-3.541-2.688-1.286-5.882-2.037-8.698-1.619-.376.057-2.028.536-2.028.536 3.831-7.06 14.365-3.999 14.365-3.999 23.615-3.975 21.93 7.768 28.332 14.255 7.538 7.634 17.154 9.329 19.374 7.278l-3.646-1.231c6.888-3.283 8.055.098 14.988.341-1.107 2.274-5.021 3.936-8.111 4.086" fill="#676968" transform="translate(268.067 685.447)"/><path d="m0 0c-.69-3.742-2.958-5.696-6.229-8.037.038-.009.081-.023.118-.031 14.636-3.072 19.382 22.633 5.645 24.797-3.675.58-5.761-.288-7.925-2.635 4.588.279 11.188.39 14.601-6.968-.886.843-2.385 1.558-3.22 1.823 1.674-2.359 2.507-5.927 1.674-9.08-.458 1.28-1.212 4.32-2.19 4.95 1.119-4.824-.196-8.545-2.504-10.255-.213-.158.709 3.68.03 5.436" fill="#676968" transform="translate(325.329 714.445)"/><path d="m0 0c6.101.035 9.503 5.444 6.473 10.804-.086.15 3.292 4.088 4.252 5.113-3.345-1.205-5.904-2.794-8.016-4.731 3.486-3.334 3.127-9.293-2.709-11.186" fill="#ff7900" transform="translate(283.045 705.311)"/><path d="m0 0c-.757-.903-1.459-1.864-2.132-2.878.361-1.078 1.6-1.674 2.827-1.33 1.263.354 2.027 1.563 1.709 2.702-.281 1-1.304 1.611-2.404 1.506" fill="#fff" transform="translate(283.594 714.225)"/><path d="m0 0s1.63-2.514 4.747-3.433c3.115-.921.185 2.062.104 4.372-1.495-1.336-4.851-.939-4.851-.939" fill="#fff" transform="translate(265.38 674.207)"/><path d="m0 0s1.281-1.976 3.733-2.7c2.45-.722.144 1.623.081 3.44-1.176-1.052-3.814-.74-3.814-.74" fill="#fff" transform="translate(250.511 673.081)"/><path d="m0 0c-.114-1.863-.567-5.271-2.294-8.037-2.739 2.39-4.657 3.35-4.657 3.35s-.113-4.116-1.341-5.786c-1.835 1.049-3.58 1.931-3.58 1.931s-.665-3.022-1.926-3.751c.247 2.749.043 6.17.043 6.17l4.244-1.309s.774 2.341.404 5.583c2.83-.071 5.929-2.963 5.929-2.963s.874 2.586.541 5.33c-1.76.269-3.365.394-4.514.53-4.788-2.738-9.532-6.758-15.398-15.447 3.922-1.919 10.507.882 29.705 10.547-1.839 2.082-4.514 3.203-7.156 3.852" fill="#fff" transform="translate(300.623 693.16)"/><path d="m0 0c-.736 2.673-3.962 3.075-7.114 1.294-3.261-1.842-5.109 2.778-9.176 1.479 1.062-.991 2.639-1.964 4.79-4.716-6.397-4.464-19.843-9.56-19.843-9.56s6.246-2.225 11.951.032c3.364 1.328 3.619 6.808 9.559 5.988 5.94-.821 10.719 2.264 9.833 5.483" fill="#ffb000" transform="translate(323.936 690.386)"/><path d="m0 0c-.034 1-.643 1.792-1.359 1.767-.719-.025-1.272-.858-1.238-1.857.035-1 .645-1.791 1.364-1.766.716.025 1.268.857 1.233 1.856" fill="#231f20" transform="translate(265.23 689.301)"/><path d="m0 0c-.718-.025-1.271-.855-1.236-1.855.034-1.001.644-1.791 1.362-1.767.718.026 1.269.856 1.235 1.857-.035 1.001-.643 1.79-1.361 1.765" fill="#231f20" transform="translate(262.424 685.044)"/><path d="m0 0c-.035 1-.643 1.791-1.36 1.766-.719-.025-1.272-.856-1.237-1.856.034-1.001.645-1.79 1.363-1.765.717.024 1.269.855 1.234 1.855" fill="#231f20" transform="translate(270.665 685.538)"/><path d="m0 0c3.111 1.204-13.561.908-11.03-.656 1.504-.928 7.92-.549 11.03.656" fill="#fff" transform="translate(248.7 689.901)"/><path d="m0 0c-1.91-2.041-1.98-3.872-1.98-3.872s8.503 5.21 17.73 2.19c0 0-21.105-2.7-23.532-15.035-2.859 7.56 2.998 15.346 7.782 16.717m-28.338-5.505c-.707-.359-1.217 4.784-1.289 4.682-3.264-4.653-5.819-20.124 3.616-24.551.901-.422 3.109 1.835 10.287 3.257 7.179 1.423 9.985 1.414 13.991 5.553 5.565 5.749 13.104 9.94 29.15 11.422-1.07 1.051-3.495 1.755-6.037 2.578 9.607 5.142 19.752 5.024 34.805 3.18-20.302 12.76-42.737 14.241-42.737 14.241s1.484 1.079 6.726 3.32c-16.072-.064-39.617-3.208-48.512-23.682" fill="#fff" transform="translate(280.227 736.11)"/><path d="m0 0c-3.861-1.063-2.427-7.03 2.803-3.902 4.734 2.831.664 4.856-2.803 3.902" fill="#ff7900" transform="translate(348.762 747.107)"/><path d="m0 0c.645-4.93-16.446-1.754-19.536-14.598-1.352-5.617 3.684-10.955 8.313-8.435-3.756-12.731-19.81-14.951-28.427-14.892 7.233-3.434 13.254-2.962 17.418-.761-.945-2.217-2.76-3.688-4.921-4.444 3.018-.741 3.815-3.019 9.076-3.136-7.878-5.025-7.99 1.056-17.141-4.56-4.883-4.214-12.481-7.707-22.839-9.672-27.84-5.283-19.418-9.924-17.776-11.074-7.695-2.776-16.268-.421-20.443 1.514.394-1.528 4.793-3.955 4.42-3.959-5.654-.025-10.665 1.172-13.358 4.676-4.663 1.037-6.044 1.332-9.322 5.18-14.8 5.369-16.214 19.625-10.244 22.877 9.419 5.126 10.803 13.278 8.523 17.797-3.952 7.833-2.757 26.027 10.83 34.36.024.015-1.725-4.29-1.701-4.263 23.643 25.352 66.394 13.211 66.394 13.211s-6.904-.193-12.868-1.477c5.611-.72 10.915-2.09 15.714-3.83 20.064-3.364 21.585 6.957 29.556 1.232-6.106-.073-14.215-4.33-11.075-11.488.532-.455 1.032-.906 1.491-1.353 2.402.183 5.125-.053 8.207-.74 3.876-.623 7.234-3.047 9.709-2.165m-10.056 7.682c-5.23-3.128-6.663 2.839-2.802 3.902 3.466.954 7.536-1.071 2.802-3.902m30.497 9.039c-5.564 1.121-9.523-3.125-14.634-.511-6.176 3.159-13.292 6.211-21.579 4.504-8.285-1.707-8.678-4.618-14.14-3.761-5.721.896-4.313 6.891.608 5.777 5.977-1.351 9.747 2.444 6.725 6.146-3.03 3.717-14.336-3.115-23.107-2.895-4.463.111-19.152-.074-19.41-.076-15.651-.16-28.933-4.31-38.871-12.094l.055 1.812-3.178-2.038c-14.655-8.987-16.9-28.809-12.007-38.505 1.476-2.927.826-9.199-7.204-13.571-3.387-1.844-5.271-5.916-4.916-10.625.453-6.001 4.593-13.729 14.808-17.738 3.354-3.764 5.507-4.464 9.468-5.362 3.14-3.339 8.213-5.014 15.115-4.983l3.614-.009-.769 1.643c4.111-.706 9.185-.82 14.228 1.001l5.767 2.08-5.022 3.518c-.081.058-.176.122-.282.194-.062.041-.145.096-.237.161 1.465.939 5.615 2.814 17.064 4.986 4.888.928 9.719 2.285 14.283 4.282 1.984.868 3.917 1.859 5.758 3.002.855.531 1.69 1.094 2.498 1.695.837.621 1.586 1.36 2.423 1.976.085.063.172.123.263.18 1.384.868 3.317 1.02 4.91.998 14.079-.187 18.405 2.133 21.712 5.676 6.449 6.915-1.526 12.686-5.303 7.539-8.184-11.153-12.564-.685-4.648 3.807 11.342 6.436 4.75 13.079 16.033 15.28 9.808 1.912 8.419 10.246 2.754 10.925-5.953.713-11.261-10.943-15.85-8.494-4.655 2.485.232 8.059 5.389 9.351 6.366 1.596 16.443 3.505 18.159 7.261 1.872 4.093-3.019 7.948-7.343 4.199-4.045-3.505-7.668-.617-7.764 1.529-.379 8.382 8.248 8.144 12.773 6.417 3.846-1.468 6.742-3.425 10.368-2.984 5.841.708 6.925 6.611 1.489 7.707" fill="#ffb000" transform="translate(361.621 735.523)"/><path d="m0 0c3.246-1.18 5.968 1.287 4.434 3.609-1.552 2.342-6.429 1.592-8.912-1.213-1.857-2.099 1.379-1.271 4.478-2.396" fill="#ffb000" transform="translate(349.974 761.544)"/><path d="m0 0c-3.417 1.381-8.125-3.048-8.725-7.924-.448-3.644 2.431-.351 6.613.734 4.384 1.136 5.492 5.824 2.112 7.19" fill="#ffb000" transform="translate(364.668 712.926)"/></g></svg>