<svg clip-rule="evenodd" fill-rule="evenodd" stroke-linejoin="round" stroke-miterlimit="2" viewBox="0 0 560 400" xmlns="http://www.w3.org/2000/svg" xmlns:xlink="http://www.w3.org/1999/xlink"><clipPath id="a"><path clip-rule="evenodd" d="m99.984 151.317h360v97.366h-360z"/></clipPath><g clip-path="url(#a)" fill="#161312" fill-rule="nonzero"><path d="m169.328 192.99h-30.255c-.781 0-1.414.634-1.414 1.415v14.792c0 .78.633 1.416 1.414 1.416h11.802v18.377s-2.65.903-9.976.903c-8.644 0-20.719-3.158-20.719-29.711 0-26.558 12.573-30.052 24.378-30.052 10.218 0 14.62 1.799 17.421 2.666.88.27 1.694-.607 1.694-1.388l3.375-14.292c0-.365-.123-.805-.54-1.104-1.138-.811-8.078-4.695-25.609-4.695-20.198 0-40.915 8.593-40.915 49.901 0 41.309 23.719 47.465 43.708 47.465 16.55 0 26.59-7.073 26.59-7.073.414-.228.458-.807.458-1.072v-46.133c0-.781-.632-1.415-1.412-1.415"/><path d="m325.246 156.267c0-.788-.624-1.423-1.404-1.423h-17.035c-.779 0-1.411.635-1.411 1.423 0 .003.004 32.92.004 32.92h-26.553v-32.92c0-.788-.627-1.423-1.406-1.423h-17.034c-.775 0-1.407.635-1.407 1.423v89.14c0 .786.632 1.426 1.407 1.426h17.034c.779 0 1.406-.64 1.406-1.426v-38.129h26.553s-.046 38.126-.046 38.129c0 .786.632 1.426 1.411 1.426h17.075c.781 0 1.404-.64 1.406-1.426z"/><path d="m201.473 167.964c0-6.134-4.918-11.091-10.985-11.091-6.061 0-10.983 4.957-10.983 11.091 0 6.128 4.922 11.098 10.983 11.098 6.067 0 10.985-4.97 10.985-11.098"/><path d="m200.255 226.603v-41.147c0-.782-.631-1.42-1.409-1.42h-16.982c-.779 0-1.476.803-1.476 1.584v58.952c0 1.733 1.08 2.248 2.477 2.248h15.3c1.678 0 2.09-.824 2.09-2.275z"/><path d="m389.987 184.17h-16.905c-.775 0-1.406.639-1.406 1.425v43.708s-4.295 3.142-10.39 3.142-7.713-2.765-7.713-8.734v-38.116c0-.786-.63-1.425-1.406-1.425h-17.156c-.775 0-1.409.639-1.409 1.425v41.003c0 17.727 9.88 22.064 23.472 22.064 11.15 0 20.14-6.16 20.14-6.16s.428 3.246.622 3.631c.194.384.698.772 1.243.772l10.915-.048c.775 0 1.409-.641 1.409-1.423l-.005-59.839c0-.786-.632-1.425-1.411-1.425"/><path d="m429.521 232.391c-5.863-.178-9.84-2.839-9.84-2.839v-28.229s3.924-2.404 8.738-2.834c6.087-.546 11.953 1.293 11.953 15.815 0 15.313-2.647 18.335-10.851 18.087zm6.668-50.224c-9.601 0-16.132 4.284-16.132 4.284v-30.184c0-.788-.629-1.423-1.405-1.423h-17.083c-.777 0-1.408.635-1.408 1.423v89.14c0 .786.631 1.426 1.41 1.426h11.852c.534 0 .938-.275 1.237-.757.294-.479.719-4.11.719-4.11s6.986 6.62 20.21 6.62c15.524 0 24.427-7.875 24.427-35.351 0-27.477-14.219-31.068-23.827-31.068"/><path d="m249.215 184.028h-12.779s-.019-16.878-.019-16.882c0-.639-.329-.958-1.068-.958h-17.413c-.677 0-1.041.298-1.041.948v17.445s-8.726 2.107-9.316 2.277c-.588.171-1.021.712-1.021 1.359v10.962c0 .789.63 1.425 1.409 1.425h8.928v26.372c0 19.589 13.74 21.514 23.012 21.514 4.237 0 9.305-1.361 10.141-1.67.507-.186.8-.71.8-1.278l.015-12.06c0-.786-.665-1.423-1.413-1.423-.744 0-2.649.303-4.61.303-6.277 0-8.404-2.918-8.404-6.696 0-3.775 0-25.062 0-25.062h12.779c.779 0 1.409-.636 1.409-1.425v-13.731c0-.787-.63-1.42-1.409-1.42"/></g></svg>