<svg clip-rule="evenodd" fill-rule="evenodd" stroke-linejoin="round" stroke-miterlimit="2" viewBox="0 0 560 400" xmlns="http://www.w3.org/2000/svg"><g transform="matrix(.804906 0 0 .804906 160.024 65)"><path d="m0 0h298.113v335.443h-298.113z" fill="#554190"/><g fill-rule="nonzero"><path d="m246.325 60.99c-.789-1.578-1.578-2.892-1.578-2.892s-1.051 1.314-3.154 3.155c-2.103 1.84-3.418 2.891-3.418 2.891s1.84-3.943 2.366-7.098c.526-3.154.526-6.309.526-6.309l-2.103-2.103s-1.578-.263-2.629.526c-1.052.788-2.892 1.84-3.681 3.154-.788 1.315-2.103 3.155-6.309 5.521s-9.464 5.521-9.464 5.521l1.052-9.99-1.315 1.314 3.944-9.464s-3.944 1.578-6.047 2.366c-2.103.789-3.68 1.315-6.309 3.155-2.892 1.84-4.732 2.892-7.361 5.784-2.629 2.891-6.309 6.572-6.309 6.572s-.263-1.84-1.314-3.681c-.789-1.84-1.578-2.891-1.578-2.891s-1.314 2.103-3.943 5.257c-2.892 3.418-6.572 6.572-9.464 8.15-3.155 1.577-10.253 5.258-10.253 5.258s4.469-7.361 4.732-8.413c.263-1.051.263-5.783 0-6.835-.263-1.051-2.628-3.155-5.257-3.155-2.892 0-4.732.789-4.732.789s-.526-3.155-4.206-3.155c-3.681 0-6.836.526-11.042 3.155-4.206 2.366-12.618 8.938-12.881 8.938s-5.258-1.051-7.624-1.314-5.52-.263-7.098 0c-1.577.526-3.154 1.314-4.469 2.629-1.314 1.314-1.577 1.84-1.577 1.84s-3.418.263-5.521 1.314c-1.84 1.052-3.417 2.629-3.417 2.629s.263-1.577-.263-3.943c-.263-2.366-1.315-3.943-3.418-6.309-2.366-2.366-4.206-2.103-4.206-2.103s-1.314 1.051-1.84 2.366c-.526 1.314-.263 2.365-.263 2.365s-.526 0-1.052.263c-.525.263-1.314.789-1.314.789s-1.314-2.629-3.155-3.943c-1.84-1.315-3.417-1.052-3.417-1.052s-2.892-2.629-6.047-2.103c-3.154.789-4.469 1.315-6.309 2.629s-3.154 2.366-3.154 2.366 1.314.789 2.891 1.577c1.578.789 2.892 1.315 2.892 1.315s-.789 1.314-.789 2.629c0 1.577.526 3.154.526 3.154s-6.309 0-8.675.263c-2.366.526-4.469 2.366-5.258 3.943-1.051 1.578-2.366 9.201-2.366 9.201s1.315-.262 3.155-.525 2.629-.789 2.629-.789 1.314 1.314 3.943 1.84 5.258.263 5.258.263-1.052 2.629-1.578 3.155c-.525.788-2.103 1.84-3.154 3.154-.789 1.315-1.052 2.366-3.155 3.155-2.366.789-3.68.789-3.68.789l-.263 4.206s1.314 1.577 3.154 2.892c1.841 1.051 3.944 1.84 5.521 1.314s2.103-.789 2.103-.789l1.315.789s-1.578 2.629-1.578 3.68c-.263 1.315.526 2.366.789 3.155.263.526.789 1.577.789 1.577s-.526 1.315-.526 2.103c.263.789 1.051 2.366 2.366 3.681 1.314 1.314 2.103 1.577 2.103 1.577s-.263.789.526 1.84c.788 1.052 3.417 3.681 3.417 3.681s-2.366-.789-4.732-.789-6.046 1.577-6.309 2.103-.263 2.629-.263 3.155c.263.526 1.052 1.314 1.577 1.577.263.263 1.315.789 1.315.789l-.263 1.84s-.789-.263-1.314-.263c-.526 0-2.629 0-3.681.263-1.051.263-2.629 1.314-4.469 1.577-1.577.526-2.892 1.315-3.417 1.841-.526.525-1.315 2.891-1.578 4.206 0 1.314-.788 3.68-.526 4.206.263.526 1.578 2.366 2.104 2.892.525.263 1.314.525 2.366.263 1.051-.526 1.84-1.315 1.84-1.315s.525.263 1.314.263c.526.263 1.577.263 1.577.263s-1.577 1.84-1.84 2.366-.526 2.366-.788 3.155c0 .788.262 4.469 1.051 5.783s1.052 1.577 1.84 2.366c.789.789 1.841 1.577 1.841 1.577s2.103-.525 2.891-1.84c.789-1.314 1.315-2.366 1.315-2.366s1.314.263 4.206-1.84 3.417-2.892 3.417-2.892 1.052.789 2.104 1.315c.788.525 1.577 1.314 1.84 2.103.263 1.051 0 1.84 1.577 2.891 1.577 1.052 3.943 1.578 3.943 1.578l-.263 7.886s-1.051 0-2.628-.263c-1.578 0-4.732 0-5.521.263-1.052.526-2.103 1.315-3.155 2.892-1.051 1.577-2.103 4.206-2.103 4.206s-1.314 1.052-2.103 1.578c-.788.788-1.051 1.314-1.84 2.103-.789.788-2.629 2.629-3.418 3.943-.788 1.314-1.051 4.732-1.314 6.309-.263 1.578-.263 2.629-.263 2.629s3.155-1.577 4.995-2.103c1.577-.526 2.366-.789 2.366-.789s1.577 1.841 4.206 2.629c2.629.789 5.521 0 5.521 0s-1.315 2.103-1.052 3.944c.263 1.577 1.052 3.417 1.052 3.417s0 1.577.263 2.629c.263.789 2.103 2.892 4.206 4.469 1.84 1.577 2.892 2.103 3.68 2.103.789 0 1.84 0 2.366-.526.526-.525 1.315-1.314 1.315-2.103-.263-.788-.789-2.629-.263-3.68.526-1.052 2.891-3.155 2.891-3.155s.789.526 1.315.789c.789.263 1.051.789 1.051 1.84 0 1.052 0 2.103-.262 3.68-.263 1.578-.526 3.418-.526 3.418s2.629 0 4.732-.263 3.154-1.314 3.943-2.892c.789-1.577 1.052-2.366 1.052-2.366s1.84-.525 2.628-3.154c1.052-2.629.789-6.572-.525-8.413-1.315-1.84-2.366-2.891-2.366-2.891s2.629-1.052 4.995-.526c2.628.526 5.257 1.314 6.572 3.68 1.314 2.103 4.732 7.887 4.732 7.887l2.366-10.516s1.051 1.315 2.366 3.418c1.577 2.103 2.629 3.943 2.629 3.943s.262-2.892.262-5.52c.263-2.629.789-4.469.789-4.469l2.103 3.68s2.892-3.943 4.732-7.887c1.84-3.68 3.418-4.994 3.418-4.994s.788 1.314 1.051 1.577 2.103 0 2.892-.263c.526-.263 5.258-2.629 5.258-2.629s.263 1.577.788 3.68c.526 1.841 1.052 3.155.263 3.681-1.051.526-1.577.789-4.469 1.314-1.84.263-2.629.263-2.629.263s.263 2.366 1.315 4.206c1.051 1.841 2.891 4.732 5.52 5.258 2.892.526 5.258.263 5.258.263l.263 1.052h-2.366c-.263 0-4.995 3.68-5.784 4.469-.788.788-.525 3.417-.262 3.68.262.526 1.051 1.052 1.577 1.314.526.263 1.84.263 1.84.263l.263.789s-2.103 1.577-3.68 3.68c-1.578 1.841-2.104 3.418-2.104 3.944 0 .525.263 2.103.263 2.629.263.525 1.315 2.628 2.629 6.309 1.315 3.68 2.103 6.309 2.103 6.309s1.578-3.155 2.103-4.469c.526-1.314 1.841-3.417 2.892-3.417 1.052 0 2.629.525 4.469-.263 1.84-.789 3.155-1.841 3.155-1.841s.526 3.155.789 4.732c.262 1.578 1.84 3.944 3.943 4.732 2.103.789 10.515.526 10.515.526l-3.154-6.046s1.577-1.315 2.891-3.155c1.315-1.84 1.315-3.155 1.315-3.155s2.892 2.104 3.68 2.629c.789.789.789 1.578 1.052 2.629.263 1.052 1.051 4.469 1.051 4.469s1.841-2.366 4.206-5.783c2.366-3.155 2.892-4.995 3.155-7.624.263-2.366-.263-4.469-1.051-5.783-.789-1.578-1.841-2.104-1.841-2.104s2.366-4.469 2.892-7.097c.526-2.629 0-6.047-.789-9.201-.788-3.155-1.84-4.995-1.84-4.995s1.052-1.052.789-2.629c-.263-1.578-1.577-2.629-1.577-2.629s.525-.789.788-1.577c0-.789.263-1.578-.526-1.841-.788-.525-2.103-2.103-2.103-2.103l.789-.525s2.366 2.628 4.206 4.206c1.84 1.577 6.047 2.891 8.938 3.417 2.892.263 5.258 0 8.15-1.314 2.892-1.315 4.469-1.577 4.732-1.577s1.051.525 1.314 1.84c.526 1.314.263 2.366.526 3.154.263.526 2.629 1.315 3.68 1.052 1.052-.263 2.892-1.84 3.681-3.155.788-1.314 1.84-4.995 1.051-7.361-.788-2.366-1.051-3.943-1.051-3.943s1.577-.789 1.84-1.84c.263-1.052.789-5.521.263-8.675-.263-3.155-1.052-6.572-2.366-9.727-1.314-3.418-1.052-4.732-1.052-7.098 0-2.103.263-5.521 1.052-6.572.789-1.052 4.469-3.681 5.783-4.995 1.578-1.577 3.155-3.943 3.944-5.784.788-2.103 1.051-4.469.263-5.52-.789-1.052-1.315-1.315-1.315-1.315s1.052-1.84 1.578-6.835c.525-4.994-.789-8.938-4.47-10.778-3.68-1.84-7.623-1.314-7.623-1.314s2.629-1.841 6.309-5.521 5.521-7.098 4.732-9.727c-1.052-2.629-3.68-3.154-3.68-3.154s4.732-4.47 7.36-7.361c2.629-2.892 4.207-6.047 4.732-8.676.789-3.154.263-5.783-.525-7.36z" fill="#dfb725"/><path d="m105.155 82.021c1.314 2.366 4.206 3.68 4.206 3.68s0 1.84.788 4.206c.789 2.366 3.681 4.206 3.681 4.206s-.263.263-.526.789c-.263.263-.263.789-.263.789s-3.417.263-6.309 1.051c-2.892.789-3.681 2.892-3.681 2.892s-.262-.526-1.051-1.052c-.789-.788-1.577-1.051-1.577-1.051s-.263-1.315-.263-2.629c-.263-1.314-1.315-2.892-2.629-3.155-1.315-.263-3.155.263-3.155.263s-.526-2.629-1.051-4.732c-.263-2.103-.263-3.68 1.314-4.995 1.577-1.314 3.681-.788 5.784-2.103 2.103-1.051 3.154-2.891 3.154-2.891s0 2.366 1.578 4.732zm140.381-14.459c-.263 1.577-1.315 4.732-4.206 7.886-2.629 2.892-7.361 6.573-7.361 6.835l-6.835 5.258s2.892-1.314 4.995-1.84c2.103-.789 2.891-.263 2.891-.263s1.841.263 2.366 2.103c.526 1.84-.788 4.995-4.206 8.15-1.84 1.577-3.417 2.891-7.098 5.783-3.68 2.892-7.623 4.732-7.623 4.732s1.577 0 4.206-.526c2.629-.525 2.629-.788 2.629-.788s-2.103 3.154-3.681 4.995c-1.577 2.103-2.629 3.417-6.309 6.309-3.68 2.629-8.675 4.732-8.675 4.732s5.52-.263 9.464-.789c3.943-.526 4.732-.789 4.732-.789s-1.052 3.155-7.098 7.624c-6.047 4.469-11.304 5.521-11.304 5.521l7.097 1.577s-2.628 2.103-8.675 3.943c-6.046 1.841-7.098 1.841-7.098 1.841s2.103 2.103 0 3.154c-2.103 1.052-4.206 1.578-8.149 2.366-3.943.789-7.624 1.052-7.624 1.052s5.784 3.154 9.99 6.046 7.361 7.361 10.252 10.778c2.892 3.418 4.995 6.047 8.413 7.887 3.417 1.84 7.886-.263 8.938-1.051 1.051-.789 1.84-2.104 2.103-3.155.263-.789-.263-2.629-2.366-3.681-2.103-1.051-4.206-2.103-3.68-3.943.525-1.84 1.314-2.366 2.366-2.892 1.051-.525 1.314-.525 1.314-.525s-1.577-4.469-2.103-7.624.263-7.887 1.577-11.83c1.315-3.943 3.943-7.624 6.835-11.83 3.155-4.206 4.469-5.52 5.521-7.624 1.051-2.103 1.051-2.891 1.051-2.891s-2.891 0-4.206-1.841c-1.051-1.84-.526-4.206.789-5.783 1.314-1.577 3.417-2.103 3.417-2.103h1.052c1.051 0 3.417.263 5.521 1.314 3.68 1.841 3.943 6.047 3.68 9.201-.526 4.469-1.577 6.31-1.577 6.31-.526.788-1.052 2.628-1.052 2.628s1.052-.525 1.577-.262c.526 0 1.052.788 1.052.788.263.263.263 1.84-.526 3.944-.526 1.84-2.366 3.943-3.68 5.257-.789.789-2.366 2.103-3.418 3.155-1.051.789-1.84 1.577-2.366 2.103-1.051 1.052-1.577 3.68-1.577 7.624v.526c0 2.103 0 3.68 1.052 7.097 1.314 3.418 1.84 6.573 2.365 9.464.263 2.892-.262 7.098-.262 8.15 0 .263-.526.526-.789.788l-1.052.526.263 1.315s.263 1.577 1.052 3.943c.526 1.84-.263 5.258-.789 6.309-.526 1.052-2.103 2.366-2.629 2.366h-.263c-.525 0-1.314-.263-1.84-.526v-.525c0-.526 0-1.315-.263-2.103-.525-1.841-1.577-3.155-2.891-3.155-.789 0-2.892.526-5.521 1.577-2.366.789-3.943 1.315-5.521 1.315h-1.84c-2.892-.263-6.572-1.578-8.149-2.892 0 0-1.578-.789-3.944-3.68-2.366-2.892-4.206-5.784-4.206-5.784l-.788 1.314s0 .263.788 1.315c.789 1.051 1.578 2.629 1.578 2.629s0 .526-.526 1.051c-.526.526-1.84.526-1.84.526s.788.789 2.103 2.103c1.314 1.052 1.84 2.103 1.314 2.892-.263.789-1.314 1.051-1.314 1.051s.525.263 1.314 1.315c1.052.789 1.314 2.366.526 2.892-.526.525-1.577.788-1.577.788s.788.789 1.051 1.315c0 0 .789 1.314 1.577 4.206.789 3.417 1.052 6.309.526 8.412 0 0-.263 1.578-1.314 3.681-1.052 2.103-2.103 3.154-2.629 3.154s-1.577-.525-1.577-.525 0 .262.788 1.051c.789.789 1.052.526 2.366 1.315 0 0 .789.525 1.577 1.84.789 1.314 1.052 2.892.789 4.995s-.526 3.68-2.629 6.835c-.788 1.051-1.577 2.103-2.103 2.891 0-.525-.263-1.314-.263-1.314-.263-1.052-.525-1.84-1.314-2.892 0 0-1.052-.788-2.366-1.84-1.315-.789-1.84-1.577-2.629-2.629-.789-1.051-1.052-2.366-1.052-2.366l-.525.789s.788 2.103.525 4.206c0 0-.262 1.052-1.051 2.629-1.052 1.577-2.366 2.892-2.366 2.892l-1.052.788 2.366 4.732c-5.783 0-7.098-.263-7.623-.526-1.578-.525-2.629-2.628-2.892-3.417 0 0-.263-1.314-.526-3.155-.263-1.84 0-4.469 0-4.469s-1.577 1.052-2.892 2.103c0 0-1.051.789-2.628 1.315-.526.263-1.052.263-1.578.263h-2.366c-1.84 0-3.417 2.366-4.206 4.469 0 .263-.263.525-.526.788-.263-.788-.525-1.577-.788-2.366-1.052-2.891-1.841-4.994-2.366-6.046 0-.263-.263-.263-.263-.526s-.263-1.314-.263-1.84c0-.263.526-1.577 1.84-3.417 1.315-1.578 3.418-3.418 3.418-3.418l.788-.526-.788-2.892-1.052-.262c-.526 0-1.051-.263-1.314-.263s-.526-.263-.789-.526v-1.84c.789-.789 4.206-3.418 5.258-4.206 0 0 3.68-.526 4.995-.263 1.577.263 4.469 1.051 5.257 1.84.789.789 2.366 2.892 2.366 2.892s3.155-4.469 3.418-4.995 0-1.315-.526-1.84c-.526-.526-1.577-1.052-1.577-1.052s.788 1.577.788 2.366.263 1.84-.525 2.103c-.789.263-2.629.263-4.732-.526-2.103-.525-3.944-1.051-4.995-2.366-1.052-1.314-1.84-2.891-1.84-2.891l-1.315.262h-1.84c-1.052 0-2.103 0-2.892-.262-2.366-.526-3.943-3.418-4.469-4.469-.263-.526-.526-1.315-.789-2.104.526 0 1.052-.262 1.841-.262 2.891-.526 3.68-.789 4.995-1.578 1.84-1.051 1.314-3.417.788-4.995 0-.263 0-.263-.263-.525-.525-1.841-.788-3.418-.788-3.418l-.263-2.103-2.103.526c-.526.263-4.732 2.366-5.521 2.892 0 0-.789.525-1.577.262-.789-.262-.789-.788-.789-1.314-.263-.789.263-2.892.263-2.892s-1.052.789-3.155 3.418-2.629 3.943-3.68 6.309c-1.052 2.366-2.629 3.418-2.629 3.418s-.263-.526-.789-2.366c-.525-2.104-.525-3.155-.525-3.155s-.526.526-1.578 3.68c-1.051 3.155-1.051 4.469-1.051 4.469s-1.315-.788-2.103-1.84c-.789-.788-1.052-2.629-1.052-2.629s-1.314.263-2.366 2.892c-1.051 2.629-1.577 5.521-1.577 5.521s-2.103-2.366-4.732-4.206c-2.629-1.841-4.206-2.104-5.784-2.366-.525-.263-1.314-.263-2.103-.263-2.103 0-3.943.788-4.206.788l-2.103 1.052 1.577 1.577s1.052 1.052 2.103 2.629c1.052 1.577 1.052 4.995.263 7.098-.526 1.577-1.577 2.103-1.577 2.103l-.789.263-.263.789s-.262.788-1.051 2.366c-.526 1.051-1.052 1.577-2.892 2.103-.789.263-1.84.263-2.629.263 0-.526.263-1.052.263-1.578.263-1.314.263-2.366.263-3.154v-.789s0-.789-.526-1.84c-.526-1.052-1.577-1.315-2.366-1.84-.788-.526-1.577-2.629-1.577-2.629s0 .525-.263 1.314-.789 1.315-1.577 2.103c-.789.789-1.84 1.578-2.366 2.629-.526 1.577-.263 3.418 0 4.469v.263c0 .263-.263.526-.526.789-.263 0-.526.263-1.052.263h-.262c-.526 0-1.578-.789-2.892-1.841-2.103-1.577-3.418-3.417-3.681-3.943 0-.263-.262-1.314 0-1.84v-.526l-.262-.263s-1.052-1.314-1.052-2.892c0-1.84.263-2.891 1.314-4.206 1.841-.788 2.366-1.577 2.366-1.577s-.263-.263-1.314-.263c-1.314 0-1.84.526-2.629 1.052 0 0-1.314.262-2.629.262-.788 0-1.314 0-1.84-.262-2.103-.526-3.418-2.103-3.418-2.103l-.525-.789-1.052.263s-.788.263-2.629.788c-.788.263-1.577.526-2.366 1.052.526-4.206 1.052-5.258 1.052-5.521.526-1.051 2.103-2.629 2.892-3.417l2.103-2.103c1.051-.789 2.366-2.103 3.943-2.103s3.155 0 3.68.263c.526.262 1.052.262 1.052.262s-.263-.525-.526-1.051c-.526-.526-.788-.526-1.84-.526h-2.892s.263-.789.526-1.577c.263-.789.789-1.578.789-1.578.788-1.314 1.577-1.84 2.366-2.366.263 0 1.051-.262 3.154-.262h4.206s1.578 0 2.892.262c1.315.263 2.366.526 2.892 1.052s.789 1.577 1.314 2.892c.526 1.314 1.052 2.366 1.841 2.892.788.262 2.366.525 3.417 0 1.052-.263 3.155-1.315 4.732-1.578s2.366-.263 2.892-.788c.526-.263 1.314-1.315 1.577-2.366.263-1.052.526-1.841.526-2.629 0-.789.263-1.841.263-1.841s-1.315-.262-3.418-1.577c-2.103-1.314-2.629-1.051-2.629-1.051s.526-1.578 3.418-2.629c2.892-1.052 5.258-1.84 5.258-1.84s-1.578-1.841-1.841-2.366c0-.789.263-1.315 1.315-2.104 1.051-.525 3.68-1.051 5.258-1.051 1.314-.263 4.469-.789 7.098-1.577 2.628-.789 4.469-1.315 5.52-1.578 1.052 0 3.155-.263 3.155-.263s-1.84-.525-2.892-1.314c-1.051-.789-1.577-1.314-1.577-1.314s-.526 1.314-.789 1.84-.789.788-1.84 0c-1.052-.789-2.629-3.681-2.629-3.681s-1.314 2.103-3.155 3.155c-1.84 1.052-3.68 2.366-5.783 2.366-2.103.263-3.155-.789-3.155-.789s-1.314.789-3.154 1.052c-1.841.263-2.629-.263-3.155-.789-.263-.526-.789-1.051-.789-1.051s-1.84.525-3.68.788c-1.577.263-2.366 0-2.366-.525-.263-.526-.263-1.052-.263-1.052h-3.155s1.578 1.314 1.578 2.892c.263 1.577.525 3.417-.263 5.783-.789 2.366-1.315 3.681-3.681 5.784-2.103 1.84-3.68 2.366-3.68 2.366v-6.572c0-1.052-.263-1.841-1.052-2.104-.788 0-2.103 0-3.417-.788-.526-.263-.526-.526-.789-1.052 0-.263 0-.526-.263-.788-.525-1.578-1.314-2.366-2.366-3.155-.788-.526-2.103-1.314-2.103-1.314l-1.051-.526-1.052 1.051s-.788.789-3.154 2.629c-1.841 1.315-2.892 1.577-3.155 1.577-.789.263-1.577.263-1.577.263s-.263 1.841-1.052 2.629c-.263.263-.789.789-1.314 1.052-.263-.263-.526-.526-1.052-.789l-.263-.263c-.526-.526-.788-.788-1.314-1.84-.526-.789-.789-3.943-.789-4.995 0-.788.263-2.366.526-2.629 0-.263.789-1.314 1.577-2.103 0 0 .526-.788 1.315-1.314.788-.526 1.577-.789 1.577-.789s.263-.263-.526-.263c-.788-.263-1.577 0-2.892-.263-.262 0-1.051 0-1.314-.263-.526-.262-1.052-.262-1.052-.262l-.788-.263-.789.525c-.263.263-.788.789-1.577 1.052h-.263c-.263 0-.526 0-.526-.263-.263-.263-1.051-1.314-1.314-1.84 0-.263.263-1.314.263-1.84 0-.789.263-1.315.263-1.84 0-.789.788-2.629 1.051-3.155.263-.263 1.315-1.052 2.629-1.315 1.051-.262 1.84-.788 2.892-1.051.525-.263 1.314-.526 1.577-.526.526 0 1.577-.263 2.629-.263h.526c.263 0 1.051.263 1.051.263.526.263 2.366 1.577 2.366 1.577v-6.046l-1.051-.526c-.263-.263-.789-.525-1.052-.525-.526-.526-.789-.789-1.051-.789v-1.577c1.051-.526 3.417-1.578 4.994-1.578h.263c2.103 0 4.206.526 4.206.526l2.104 1.052c1.314.788 2.628 2.366 2.891 3.417.263.789 0 2.892.263 4.206 0 1.315-.263 2.366.263 2.892.789.526 3.155 1.577 4.995 2.103 1.577.263 3.155 0 3.68-.526.526-.525 1.578-2.366 1.578-2.366s.525 0 3.154.263 4.732.263 4.732.263l-2.103-2.629h-2.892c-1.577 0-3.68-.526-6.835-1.84-3.154-1.314-4.732-2.103-6.046-3.417-1.577-1.315-2.629-3.155-2.629-3.155l1.052-1.052s-.526-.263-1.052-.788c-.526-.526-1.314-1.052-1.314-1.052-.789-.789-2.629-2.629-3.418-3.417h-.526c-.263-.526 0-1.052 0-1.052s-1.577-.789-2.629-2.103c-1.051-1.052-1.84-2.629-2.103-3.155 0-.263.263-.788.263-1.051l.263-.789-.526-.789s-.525-.788-.788-1.314c-.526-.789-.526-1.577-.526-2.103 0-1.314.789-2.103 1.052-2.103.525 0 1.314.526 1.314.526s-1.052-1.578-1.314-2.629c-.263-1.052-.263-1.578-.263-1.578l-1.315-.525s-1.577.525-2.892.788h-.525c-.789 0-1.841-.263-3.681-1.314-1.051-.526-1.84-1.577-2.629-1.84l.263-2.366c1.052-.263 1.84-.263 3.155-.789 2.366-.789 3.155-2.103 3.68-3.155.263-.262.263-.525.526-.788.526-.789 1.315-1.578 1.84-2.103.526-.526.789-.789 1.052-1.052.789-.789 1.577-2.892 1.84-3.68l.789-2.366-2.629.263h-1.052c-.788 0-2.366 0-3.68-.263-2.103-.526-3.155-1.315-3.155-1.578l-.788-.525-1.052.525s-.789.263-2.366.526c-.263 0-.526 0-1.051.263.525-2.892 1.314-5.783 1.84-6.309.788-1.315 2.366-2.892 4.206-3.155 1.051-.263 3.68-.263 7.098-.263h3.943l-.789-2.103c-.262-.526-.525-1.577-.525-2.629 0-1.051.525-1.84.525-1.84l1.052-1.577-1.577-.789s-1.315-.526-2.892-1.314c-.263 0-.526-.263-.526-.263.263-.263.789-.526 1.052-.789 1.577-1.051 2.629-1.84 5.783-2.366h.789c1.314 0 1.84.263 3.155.789 1.314.789 1.577 1.314 1.577 1.314s1.314-.263 2.629.789c1.577 1.051 2.629 3.155 2.629 3.155l.788 1.84 1.578-1.315c.262-.263.525-.525.788-.525.263-.263.789-.263.789-.263l2.103-.263-.789-1.84s-.263-.789.263-1.315c.263-.526.789-1.051 1.052-1.314 0 0 2.103.526 3.417 2.366 1.315 1.84 2.103 3.417 2.366 4.995.263 1.84 0 3.154 0 3.154s0 1.84-1.577 3.418c-1.577 1.577-2.892 2.366-5.258 2.629-2.366.262-3.417 1.84-4.469 3.154-1.051 1.315-.526 4.469.263 7.887.789 3.417 2.103 7.361 2.103 7.361s.263-2.892.789-4.207c.526-1.051 1.314-1.051 1.577-1.051.526 0 1.315 1.051 1.84 2.892.526 1.84.526 6.572.526 6.572s.263-1.052.526-1.578c.263-.788.788-1.577.788-1.577s.789.526 1.315 1.577c.789 1.315.526 5.784.526 6.573 0 .525.525.788.525.788s0-1.314.789-2.891c.789-1.578 2.103-2.366 2.103-2.366s-1.577-1.052-1.577-2.104c0-1.051 1.051-2.103 3.943-2.628 2.629-.526 6.572-1.315 6.572-1.315s0-.526.263-1.84c.263-1.052 1.315-1.84 1.315-1.84s-3.155-.789-4.207-2.366c-1.051-1.578-.262-6.572-.262-6.572s-2.366-.263-3.681-1.578c-1.314-1.314-2.103-2.103-2.892-4.206-.788-2.366.263-2.892 1.052-4.206 0 0 1.314-1.314 2.892-2.103 1.577-.789 3.417-1.315 3.417-1.315h.526l.263-.525s.526-.526 1.577-1.841c1.052-1.314 2.103-1.84 3.418-2.366.263 0 .788-.262 2.629-.262 1.314 0 2.628 0 4.469.262 1.577.263 3.943.526 5.52.789 1.578.263 2.103.263 2.366.263.789 0 .789 0 4.469-2.892 2.892-2.103 6.835-4.995 9.201-6.309 3.681-2.103 6.31-2.892 9.464-2.892h.526c2.103 0 2.629 1.578 2.892 2.103 0 .789-.263 1.841-.263 1.841s3.943-1.578 6.572-1.315c2.103.263 3.681 1.577 3.943 2.103.263.789.263 5.258 0 6.047-.262.788-2.628 4.469-4.469 7.886 0 0-1.84 1.84-5.52 4.732-3.681 2.892-7.887 4.469-7.887 4.469l.263 1.84s1.577-1.577 4.469-3.154c2.892-1.578 5.784-3.418 8.938-4.732 3.418-1.577 9.727-4.206 13.145-6.572 3.417-2.366 8.149-7.098 8.938-8.15 1.051-1.314 2.103-2.366 2.629-3.417 0 .263.262.263.262.525.789 1.578 1.052 3.155 1.052 3.418l.526 2.892 2.103-2.103c.263-.263 3.943-3.681 6.572-6.573 2.366-2.628 3.943-3.68 6.309-5.257l.526-.263c2.629-1.577 3.943-2.103 6.046-2.892.789-.263 1.841-.526 2.629-1.051l-2.366 6.046c-.788 1.314-4.469 8.149-4.469 8.149l4.995-4.732s.263.789-.263 3.944c-.526 3.154-1.84 5.783-1.84 5.783l4.206-2.629s5.258-3.154 9.464-5.52 5.784-4.206 7.098-6.047c.789-1.051 2.366-2.103 3.418-2.628.262-.263.525-.263 1.051-.263l1.315 1.314c0 1.052 0 3.155-.526 5.258-.526 2.892-2.103 6.572-2.103 6.572s-.526 1.052-1.841 2.892c-1.314 1.84-3.154 4.206-3.154 4.206s4.732-3.155 7.361-4.995c0 0 1.314-.789 3.68-2.892.789-.788 1.314-1.314 1.84-1.84.263.263.263.526.526 1.052.263 1.84.789 4.206.263 6.572zm-33.65 83.335c.789 2.366 1.315 3.68 1.315 3.68s-2.366 1.052-2.892 2.629c-.789 1.84-1.314 3.68.789 5.258 2.103 1.577 3.943 1.84 4.469 2.629.526.788.263 2.103-1.315 3.154-1.577 1.052-4.994 1.841-7.098 1.052-2.103-1.052-6.309-4.995-9.201-9.201-2.891-3.943-4.994-6.309-8.149-8.675-3.418-2.366-6.309-4.207-6.309-4.207s4.732-.788 7.886-1.577c3.155-.789 3.681-1.314 4.206-2.103.789-.789.526-2.103.526-2.103s3.944-.789 9.464-3.155c5.521-2.366 7.361-4.206 7.361-4.206l.789.263s-2.103 4.995-2.103 8.412c-.263 3.681-.526 6.047.262 8.15zm-.262-17.876c-1.841-.526-2.629-.789-2.629-.789s1.314-.526 4.469-2.892c3.154-2.366 5.52-4.995 5.52-4.995s-.788 1.315-2.891 4.469c-1.841 3.155-2.366 4.732-2.366 4.732s-.263 0-2.103-.525zm-109.361 25.5s.788.262 2.629 0c1.84-.263 2.366-.526 2.366-.526s1.051 1.84 2.891 1.84c1.841 0 5.258-.789 5.258-.789s-2.366 2.103-2.366 3.155c0 1.051.789 2.366.789 2.366s-3.418.789-5.258 2.103-2.629 3.68-2.629 3.68 1.578 1.052 3.418 2.103c1.84 1.052 3.154 1.578 3.154 1.578s-.263 2.103-.525 2.629c-.263.525-.526.788-1.315 1.051-.788.263-2.629.789-4.732 1.315-1.84.525-2.629 1.051-3.417 1.051-.789 0-1.578-.263-2.103-1.314-.526-1.052-1.315-3.681-2.892-4.732-1.84-.526-2.892-.526-2.892-.526v-.263s4.206-2.366 5.521-4.732c1.314-2.103 2.103-4.732 2.366-7.098 0-2.103-.263-2.891-.263-2.891zm21.294-.789s.262 0 1.84-1.315c1.577-1.314 1.84-1.84 1.84-1.84s.263.526.526 1.052.788.788.788.788-.262.263-2.103.789c-2.103.526-2.891.526-2.891.526zm-34.176-21.294s1.052.789 3.418 1.84c2.366 1.052 4.206 1.315 4.206 1.315s-1.051 2.103-1.577 2.366-1.052.525-2.629.263c-1.577-.263-3.155-.789-3.418-1.578-.525-.788 0-4.206 0-4.206z" fill="#554190"/><path d="m146.691 157.469-2.892-.526s-1.315-1.84-1.052-2.103c0-.263 3.944 2.629 3.944 2.629zm2.628-2.103c-.262.526.789 2.629.789 2.629l2.892.526c-.263 0-3.418-3.681-3.681-3.155zm5.784 1.84c-.789 0-.789 1.577-.789 1.577l3.155.789s-1.577-2.366-2.366-2.366zm32.861-25.237c.788.526 2.366 1.052 5.52 1.577 6.047 1.052 8.413.789 8.413.789s-1.052.789-3.944 1.84c-3.154 1.052-4.206 1.315-7.36 1.577-3.155.263-7.887.263-7.887.263s-.263.789 2.103 1.578c2.103.788 2.892 1.051 2.892 1.051s-3.681 1.315-10.516 1.84c-6.835.526-8.938.263-8.938.263s2.629 2.103 9.201 5.784c6.572 3.68 9.464 4.995 9.464 4.995l-.788.525s4.469 2.366 7.623 7.098c3.155 4.732 7.887 10.253 11.567 11.567 3.418 1.315 8.676 1.052 11.567-1.051 3.155-2.366 3.944-6.835 2.629-8.938-1.314-1.841-5.52-3.418-5.52-3.418s.525-1.577 2.366-1.577c1.84-.263 2.365.263 2.365.263s-3.154-6.572-3.154-13.67 3.68-12.882 8.675-19.717 5.784-8.938 5.784-11.041-1.052-3.155-1.052-3.155-1.314.263-2.103 0c-1.052-.263-1.577-1.314-1.052-2.366.526-1.051 2.629-2.103 5.258-1.84 2.892.263 3.943 3.155 4.206 5.521.263 2.629-.788 6.572-2.103 9.201-1.314 2.629-1.84 4.995-1.84 4.995s.263.262 1.577 0l1.315-.263s.263 1.051-1.315 3.154c-1.577 2.103-3.68 2.366-6.309 4.469-2.629 2.104-3.68 4.995-3.943 8.15s.263 7.361 1.84 11.83 2.103 9.727 2.103 12.355c0 2.629-2.103 5.258-2.629 5.784s.263 1.314 1.578 3.68c1.314 2.366.262 4.995.262 4.995s-.262-1.051-1.051-2.103c-1.052-1.051-1.84-1.314-4.206-1.314s-5.784 1.051-8.938 1.314c-3.418.526-3.944 0-6.31-.263s-6.572-3.943-8.675-6.309-5.258-7.098-5.783-7.887c-.526-.788-1.052 0-1.315.526s0 2.366 0 2.366-1.314-.789-1.84-.526-.526 1.578.526 3.418c.788 1.84 1.314 3.943 1.314 3.943s-.789 0-1.314-.263c-1.052.526-1.052.526-1.578.263-.788-.263-.788.263-.788 1.052 0 1.051 1.314 2.366 2.366 3.68 1.314 1.315 2.891 2.892 2.891 2.892s-1.051 0-1.84-.263c-1.051-.263-1.577-.263-1.84 0s.263 1.314 1.84 2.629c1.578 1.577 2.366 2.103 2.366 2.103s-.263.263-1.051.263h-1.578v1.051c.263.789 1.315 1.315 2.103 2.103.789.789 1.841 2.104 2.104 3.681.262 1.577 0 4.995 0 8.149 0 3.155-1.052 3.944-1.052 3.944s-.263-.263-.789-1.578c-.525-1.314-1.577-2.629-2.103-2.629s-1.314 1.052-1.314 2.892c0 1.578.263 6.047 1.314 7.624 1.052 1.577 3.155 1.84 4.206 2.892 1.315 1.051.789 3.154.526 4.732-.263 1.577-1.314 3.417-1.314 3.417l-1.578-2.103s-.788-.263-2.103-1.314c-1.314-.789-1.577-1.841-2.366-3.418-.788-1.577-2.629-1.314-3.68-1.051-.789.262-1.84 1.314-2.103 2.103-.263.525.263.788.789 2.366.525 1.577-.526 2.891-1.841 4.994-1.314 2.104-2.891 2.892-2.891 2.892s-.263 1.052-.263 1.578c0 .788 1.051 1.051 1.051 1.051s-.263.263-1.577-.263c-1.315-.526-1.84-1.051-2.103-2.892-.263-1.84-.263-3.943.263-5.52.525-1.578 2.103-3.681 2.103-3.681s-.789 0-2.103.526c-1.315.526-2.629.526-4.469.789-1.841.263-1.841.788-2.629 1.577-.789.789-1.84 1.052-3.155 1.052-1.314 0-3.155 0-3.68.263-.526.262-1.315.525-1.84 1.051-.789.526-1.052 2.366-1.052 2.366s-.263-1.051-.526-1.84-.263-1.84-.263-1.84-.263-.263-.263-1.052c0-.526.526-1.84 2.366-3.68 1.578-1.84 2.892-2.629 4.469-2.892 1.578-.263 3.155.263 3.944.526.788.526 3.154.526 3.154.526s.526-.789-.788-1.841c-1.315-1.051-2.892-.788-4.732-.788s-1.84-.789-2.366-1.315-.789-1.314-.789-1.84c0-.789-1.051-1.577-1.84-1.577s-1.84-.263-1.84-.263 1.84-.789 2.891-1.315c.789-.525 1.578-.525 4.207-.525 2.629-.263 4.469 1.577 4.995 2.366.788.788 1.314 2.891 1.577 3.154s.526.263 1.577.263c1.052 0 1.84-.526 3.418-2.892 1.577-2.103 2.629-4.469 2.891-6.572.526-1.84-1.577-3.154-3.154-3.943-1.578-.789-4.469-1.315-4.995-1.577-.526 0-1.052.262-1.052 1.051s.263 1.84 1.052 2.366 1.577 1.577 1.577 1.577-3.154.263-5.257-1.577c-2.104-1.84-2.892-4.995-2.892-4.995s-.263 1.052-4.206 1.315c-3.944.263-4.469-1.84-4.469-1.84s1.577.262 3.943-.789c2.366-1.052 2.892-3.155 2.892-4.995.262-2.103-.526-4.469-1.315-6.835-.526-2.103-.263-5.521-.263-5.521s-1.577-.263-4.469 1.052c-3.154 1.314-4.995 2.629-4.995 2.629l.263-4.206s-2.629 0-6.309 2.628c-3.68 2.629-6.572 7.361-6.572 7.361v-2.891c0-1.841.526-3.944.526-3.944s-2.104.263-3.944 3.418c-1.84 3.154-2.366 6.046-2.366 6.046s-.525-.789-1.84-1.314c-1.314-.263-1.577.263-2.892 2.103-1.314 1.84-2.103 4.732-2.103 4.732s-1.577-1.84-4.732-3.155c-3.154-1.577-5.257-1.314-7.886-.789-2.629.263-5.521 1.578-6.31 2.892-.788 1.315-.262 1.84.526 3.155.789 1.314 2.629 3.154 3.155 4.732.788 1.84-.526 4.469-1.315 4.995-.788.525-2.628 2.891-2.628 2.891s0-1.577-.263-3.154c-.263-1.578-1.578-2.629-2.892-3.418-1.315-.526-1.577-1.314-1.577-2.103s0-2.366-.526-2.892c-.526-.525-1.84-.263-2.629 0-1.052.526-.789 1.578-.789 2.629 0 1.052-.788 2.629-1.84 2.892-1.051.263-2.629 1.314-3.155 2.366-.525 1.052 0 3.417 0 3.417s-.525 0-2.103-1.051c-1.577-1.314-1.314-1.84-1.84-3.155-.526-1.577-.526-3.943.263-4.732.789-1.051 2.366-2.103 2.892-3.154.526-1.052.263-2.366-.526-2.892-.789-.263-2.103-.263-4.206 0s-2.366.526-4.732.789c-2.103.263-2.892-.526-3.155-1.315-.263-.788-.526-2.103-.526-2.103s-2.103 0-3.154.789c-.789.788-2.103 1.051-2.103 1.051s.526-1.314.788-1.84c.526-.526.789-.789 2.103-1.84 1.578-1.052 1.841-1.84 2.892-2.629 1.052-.789 3.418-.526 4.469-.526 1.052 0 3.155 1.315 3.944 1.84.788.526 1.84 1.052 3.417 1.052s2.103-.263 2.103-.263.526-1.314-.526-2.629c-.788-1.314-1.84-1.577-3.417-2.103-1.577-.788-2.629-1.577-2.892-2.366-.263-.788-1.314-1.314-1.577-1.314h-1.84s0-.526.788-.789c.526-.263 1.315-.789 2.629-.789 1.315-.262 1.84.526 3.681.789 1.84.263 3.68.263 4.469.263.788 0 1.051 2.366 1.577 3.943.526 1.578 1.84 2.892 4.206 2.892 2.103 0 8.15-1.84 11.041-2.629 2.892-1.051 3.681-3.154 4.207-5.258.525-2.366.525-5.52.525-5.52s-.788-.263-2.103-.789c-1.314-.526-2.103-1.051-2.103-1.051s.789-.263 3.943-1.052c3.155-.789 4.995-1.314 4.995-1.314s0-1.052-1.051-2.366c-1.052-1.052-1.84-1.578-1.84-1.578s1.314 0 3.417-.525c2.103-.526 3.418-.526 6.309-1.578 2.892-1.051 4.207-1.314 6.573-1.84 2.365-.526 9.726-.263 15.247 1.052 5.521 1.314 12.093 3.417 12.093 3.417s0-.526-1.052-2.366c-1.051-1.84-1.314-2.366-3.417-4.995-2.366-2.629-3.681-3.417-4.207-3.68-.525-.263-.525.263-.525 1.051v2.104s-1.841-1.841-2.629-2.366c-.789-.526-2.366-2.366-3.418-2.104-1.051.263-.525 1.315 0 2.366.526 1.052 1.315 3.418 1.315 3.418s-1.052-1.052-2.629-2.366-2.103-1.84-3.681-2.629c-1.577-.789-1.577.526-1.577 1.315 0 .788 1.315 2.628 1.315 2.628s-2.892-.525-5.784-2.366c-2.892-1.84-3.943-3.154-3.943-3.154s-.526.526-1.052 1.314c-.526.789-.263 1.84-.263 1.84s-.788-.788-1.314-1.577-.526-1.314-1.052-1.84c-.525-.526-1.84 0-2.629 1.051-.788 1.052-2.103 1.578-3.68 2.892-1.577 1.315-3.68 1.315-3.68 1.315s.263-.263.525-.526c.263-.263.526-1.052.526-1.052s-1.314-.263-2.629.526c-1.577.789-3.943 1.315-3.943 1.315s.526-.789.526-1.052v-1.314h-1.315c-.788 0-1.051 0-2.366.788-1.314.789-3.154.526-3.154.526s.526-.526.788-1.052c.263-.525 0-1.314 0-1.314s-1.577-.263-2.103-.263c-.788.263-1.051.263-3.154.526s-3.155 0-4.995-.789c-1.84-.526-2.892.526-2.892.526s-.526.263 0 1.314c.526 1.052 2.103 2.104 3.155 2.892 1.051.789 1.314 3.155.526 4.995-.526 1.84-1.315 2.103-1.315 2.103s0 .789-.526 1.84c-.525 1.052-1.577 1.578-1.577 1.578s.263-3.155 0-4.732c0-1.315-1.052-1.578-1.84-1.578-.789 0-1.84-.525-2.366-1.051-.789-.526-.789-1.84-1.315-3.155-.788-1.051-1.577-1.314-3.154-2.103-1.315-.789-1.84-1.577-3.155-1.577-1.314 0-2.103.526-3.943 1.84-1.578 1.314-3.155 2.103-4.469 2.892-1.315.788-2.892.526-2.892.526s0 .525-.263 1.051-.526 1.577-.526 1.577-.263-1.051-.525-1.577c-.263-.526-.526-1.051-.263-2.366 0-1.314 1.577-3.417 3.154-4.206 1.578-1.052 3.944-1.577 4.995-2.103 1.315-.526.789-1.578.789-1.578s-1.052-.262-2.629-.262-1.84-.526-2.892-.789c-1.051-.263-2.103-.789-3.154-.789-1.052 0-1.841 0-3.155-.525-1.315-.526-1.84-1.315-1.84-1.315s-.263.263-.789 1.052c-.526.525-1.314 1.577-1.314 1.577s-.263-1.052 0-1.84c0-1.052.263-1.578.788-2.103.526-.526 1.315-.526 2.103-.789 1.052-.263 1.052-.526 2.103-1.052 1.052-.525 2.104-1.051 3.155-1.051 1.052 0 2.892 1.051 4.469 2.103s5.258 2.629 5.258 2.629.789-1.315-.526-2.892c-1.051-1.577-1.577-1.84-1.84-3.943-.526-2.103-.263-4.469-.263-4.469s-.263-.789-.789-1.052c-.525-.263-1.314-1.314-1.314-1.314s1.577 0 1.84.263c.263 0 .789.788.789.788s.526-.525 3.154.789c2.629 1.314 2.366 4.206 2.104 5.783-.263 1.578.262 3.681 2.103 4.995 1.84 1.315 6.572 2.103 8.938 1.841 2.366-.263 3.154-2.892 3.154-2.892s1.052.263 4.207.263c3.154 0 6.309.263 6.309.263s-.526-1.578-2.103-3.944c-1.052-2.629-1.84-3.943-1.84-3.943s-.789 0-4.732-.263c-3.944-.263-5.258-1.051-5.258-1.051l1.051-.263s-1.314 0-3.417-1.315c-2.103-1.051-3.681-2.366-3.681-2.366s.789.526 3.944.526c3.154.263 3.154-.789 3.154-.789s-2.891-.788-6.835-2.891c-3.943-1.841-5.257-4.207-5.257-4.207s.788.263 1.84.526c1.051.263 2.366.263 2.366.263s-.263-.526-.789-1.052c-.526-.525-.788-1.051-4.206-2.365-3.418-1.578-4.206-3.681-4.206-3.681s1.051.263 2.366.263h2.366s-1.84-.789-4.206-2.366-2.892-3.418-2.892-3.418 1.577.526 3.154.789c1.578.263 2.366.263 2.366.263s-.788-1.052-2.103-2.629c-1.314-1.577-2.629-3.943-2.629-3.943s1.052.526 3.155 1.314c2.103 1.052 3.418 1.315 3.418 1.315s0-1.578-.263-3.944c-.263-2.103 0-6.046.263-8.149s.263-3.68.263-3.68 0-.789-1.052-.789c-.789 0-1.314.526-1.84 1.84-.526 1.315-1.052 3.418-1.84 5.258-.789 1.84-1.841 2.366-3.155 2.892-1.052.525-2.103.262-2.629-.263-.789-.526-1.051 0-1.577.525-.526.526-1.052.526-2.629.263s-2.629-1.314-2.629-1.314 1.052 0 2.892-1.052c1.84-1.051 1.84-1.577 2.366-2.628.526-.789 1.314-1.841 2.366-2.629 1.051-.789 1.577-1.315 1.84-2.366.263-1.315 1.314-2.366 1.84-3.681.526-1.314 2.366-4.206 2.892-4.469s.526-1.314.526-1.314h-7.624c-1.84 0-4.469 0-5.784-.789-1.051-.526-1.577-1.314-1.84-1.84s-2.366.789-2.366.789 1.052-1.315 1.052-2.366c.263-1.052 1.051-.789 2.103-1.052 1.314-.263 6.835-.526 9.99-.789 3.154-.263 2.891-.525 3.154-1.051s-.263-3.155-.788-4.469c-.789-1.315-.263-2.366.262-3.155.789-.789 1.841-1.84 1.841-1.84s.263-.526-.526-1.315c-1.052-.788-2.892-1.314-2.892-1.314s.526-.263 2.892-.263c2.103 0 2.629 1.315 2.629 1.315s1.051.262 2.366.788c1.314.526 2.366 1.84 2.629 3.681 0 1.84-.526 3.943-.526 3.943s.526.263 1.577 0c1.052-.263 2.103-.789 2.892-2.103 1.051-1.315 2.629-2.103 3.943-2.366 1.315-.263 1.84.263 2.366-.526.526-.526 0-2.892 0-2.892s.789 1.315 1.577 3.155c1.052 1.84 0 3.68-.525 5.258-.789 1.314-2.892 2.103-5.521 2.629-2.366.525-4.469 2.103-5.521 5.257-1.051 2.892-.262 7.098 1.052 11.042 1.314 4.206 3.68 8.675 3.68 8.675s.526-.263 1.315-1.315c.789-1.051 1.051-2.891 1.051-2.891s.526 1.314 1.052 3.68 0 5.521.263 5.521 2.629-2.629 2.629-2.629v2.366c0 1.314.525 2.103 1.577 3.154 1.052 1.052 3.418 1.052 3.418 1.052s-.263-1.577 0-3.68c.262-1.841 2.103-2.892 2.891-3.155.789-.263 2.103-1.052 1.841-1.577-.263-.526-2.629-1.578-2.629-1.578s.525-.526 4.469-1.577c3.943-1.052 4.995-.789 5.257-1.052.263-.262.263-1.314.263-2.103 0-.788.789-2.103 1.315-2.366s1.051-.525 1.051-1.314-1.051-1.052-2.366-1.577c-1.314-.526-2.629-1.315-2.891-1.841-1.052 0-1.052-2.628-1.052-2.628s1.577.788 3.155 1.051c1.577.263 2.891.526 5.257.526 2.366.263 1.841-.789 1.052-1.84-.789-1.315-2.629-3.155-4.469-4.469-1.84-1.052-6.047-2.629-6.047-2.629l-.262 3.417s-.526 0-1.052-.263-1.577-1.314-2.366-2.103c-.789-.788-1.314-2.629-1.314-3.417 0-.789.525-1.315 1.84-1.84 1.314-.789 4.206-1.841 5.52-2.104 1.315-.262 1.578-1.314 2.366-2.366.526-1.051 3.155-2.103 4.995-2.103s3.944 0 5.784.789c1.84.526 3.154.789 4.995 1.052 1.577.262 2.366-.263 3.417-.789.789-.526 4.995-3.418 6.572-4.469 1.578-1.052 5.784-4.469 8.15-5.258 2.103-.789 4.469-1.051 5.52-1.051 1.052 0 1.052.525 1.052 1.314-.263.789-1.577 3.155-1.577 3.155s.263.263 1.314 0c1.052-.263 1.84-.263 3.68-1.052 1.841-.789 4.207-1.051 5.258-1.051 1.315 0 1.578.525 1.578.788.262.263.262 1.052-.263 2.892-.789 1.84-2.366 4.732-3.681 6.309-1.314 1.84-4.469 4.995-5.783 6.309-1.315 1.315-3.944 2.366-5.784 3.155-1.84.526-2.103 1.577-2.103 1.577s.526 2.366 1.052 4.207c.263 1.84.525 2.366.525 2.366s1.841-.263 2.366-.789c.526-.526 2.892-3.155 4.995-4.206 2.103-1.052 4.995-2.629 9.99-4.995s9.727-3.943 14.722-8.15c4.994-4.206 6.046-5.783 6.046-5.783s.263 3.68-2.103 6.835-3.681 4.469-3.681 4.469 2.366-.526 5.521-3.68c3.155-3.155 5.784-4.995 9.201-8.15 3.418-3.154 6.309-6.572 9.201-8.675s4.995-2.892 4.995-2.892-1.84 2.892-3.68 6.572c-1.841 3.681-2.104 4.995-5.258 8.938-3.155 3.944-5.521 6.047-5.521 6.047s2.892-1.052 7.361-5.258 6.046-5.783 6.046-5.783-.788 3.68-2.628 6.572c-2.104 2.892-3.944 5.52-3.944 5.52s3.944-2.628 7.098-4.469c3.418-1.84 6.047-3.417 10.253-5.783 4.206-2.629 8.149-4.469 10.252-6.309 2.103-1.841 2.629-2.892 2.629-2.892s.263 4.206-3.154 9.201c-3.418 4.995-11.83 13.144-11.83 13.144s4.732-.789 11.83-5.258 10.252-6.046 10.252-6.046-2.629 5.521-6.309 9.464c-3.681 3.943-9.201 8.412-13.407 11.567-3.944 3.155-9.201 6.046-9.201 6.046s4.469-1.051 11.041-2.891c6.572-1.841 9.201-2.892 9.201-2.892s-.263 2.629-7.361 8.149c-7.098 5.521-11.304 7.887-15.51 10.253-4.469 2.366-7.361 3.943-7.361 3.943s2.103.789 8.149-.263c6.047-1.051 7.098-2.103 7.098-2.103s-1.314 4.206-11.304 9.201c-10.252 4.995-13.67 5.521-13.67 5.521s.526 1.051 4.469 1.314c3.944.263 6.047 0 9.99-.263 3.943-.525 6.046-1.051 6.046-1.051s-1.84 2.892-6.309 4.995-7.624 2.366-12.356 3.154c-4.732.526-7.886.789-7.886.789zm-107.521-29.18c-.788 1.314-1.84 1.577-1.84 1.577l2.892 1.314s-.263-.788-.263-2.103c0-1.314.263-2.892.263-2.892s-.263.789-1.052 2.104zm40.485-16.562s-1.052-1.578-3.681-2.629c-2.629-1.315-3.68-1.577-3.68-1.577v3.154s.789.263 3.68.789c2.629.526 3.681.263 3.681.263z" fill="#dfb725"/><path d="m45.742 288.649c-8.938 0-17.087-4.995-17.087-13.407 0-9.464 9.201-14.459 18.665-14.459 3.943 0 7.36.789 11.041 2.103v7.361h-1.315c-1.314-4.732-4.732-7.623-10.515-7.623-6.835 0-10.778 5.52-10.778 11.304 0 7.098 5.257 13.144 13.407 13.144 3.154 0 2.892-.789 3.154-2.366v-2.103c0-4.995-.262-5.521-6.309-6.309v-1.052h15.248v1.052c-2.892.788-3.418 1.051-3.418 3.943v6.309c-1.577.789-7.098 2.103-12.093 2.103z" fill="#dfb725"/><path d="m86.227 286.283c-2.103-1.314-4.732-4.995-6.047-7.361-2.103-3.417-2.103-3.417-5.783-3.417v4.732c0 4.469.263 6.046 6.835 6.572v1.052h-18.139v-1.052c5.257-.789 5.783-.526 5.783-7.624v-10.515c0-5.258-.263-6.046-5.783-6.309v-1.052h13.144c5.258 0 13.933.526 13.933 6.835 0 3.155-2.629 5.784-5.521 6.835 0 0 2.104 4.732 5.258 7.887 3.155 3.154 6.309 3.943 6.309 3.943v1.052c-.262 0-6.046 1.051-9.989-1.578zm-12.093-12.092c4.469-.263 8.938-1.841 8.938-6.047 0-3.943-4.732-5.258-8.938-5.258z" fill="#dfb725"/><path d="m109.098 279.185c0 7.098.526 6.835 5.783 7.624v1.052h-17.087v-1.052c5.257-.789 5.783-.526 5.783-7.624v-9.201c0-7.098-.526-6.835-5.783-7.623v-1.052h17.087v1.052c-5.257.788-5.783.525-5.783 7.623z" fill="#dfb725"/><path d="m127.763 275.768v4.469c0 4.469.263 6.046 6.835 6.572v1.052h-18.402v-1.052c5.258-.789 5.783-.526 5.783-7.624v-9.201c0-7.098-.525-6.835-5.783-7.623v-1.052h25.763l-1.052 7.098h-1.314c-.263-4.995-3.681-5.521-8.413-5.521h-3.417v10.516h3.68c3.681 0 5.784-.263 6.835-3.681h1.052c-.263 3.418-.263 6.836-.263 10.253h-1.052c-.788-4.206-2.628-4.206-6.835-4.206z" fill="#dfb725"/><path d="m154.577 275.768v4.469c0 4.469.263 6.046 6.835 6.572v1.052h-18.402v-1.052c5.258-.789 5.784-.526 5.784-7.624v-9.201c0-7.098-.526-6.835-5.784-7.623v-1.052h25.763l-1.051 7.098h-1.315c-.263-4.995-3.68-5.521-8.412-5.521h-3.418v10.516h3.681c3.68 0 5.783-.263 6.835-3.681h1.051c-.263 3.418-.263 6.836-.263 10.253h-1.051c-.789-4.206-2.629-4.206-6.835-4.206z" fill="#dfb725"/><path d="m204.789 274.453c0 8.676-7.361 14.196-16.825 14.196s-16.562-5.257-16.562-13.933c0-8.412 7.361-13.933 16.562-13.933 8.938-.263 16.825 4.469 16.825 13.67zm-26.552-.525c0 5.52 2.892 12.881 10.253 12.881 6.835 0 9.201-6.309 9.201-11.304 0-5.521-2.892-12.881-10.516-12.881-6.572-.263-8.938 6.572-8.938 11.304z" fill="#dfb725"/><path d="m213.464 269.984c0-3.943 0-6.835-5.521-7.623v-1.052h9.99c5.52 6.309 13.144 12.882 19.191 19.454l-.263-12.356c0-4.732-1.315-5.258-6.573-5.783v-1.052h13.145v1.052c-3.943.262-3.943 1.84-3.943 8.412v17.35l-1.841.789c-4.206-4.732-14.721-14.196-21.819-21.031v2.892c0 3.417.263 6.572.263 9.99.263 4.732 1.051 4.994 6.309 6.046v1.052h-14.196v-1.052c3.155-.526 5.258-.263 5.258-5.784z" fill="#dfb725"/><path d="m265.252 269.196h-1.314c-.789-3.155-1.84-6.835-6.309-6.835-2.629 0-4.469 1.84-4.469 3.943 0 6.309 14.195 5.783 14.195 14.196 0 5.52-6.046 7.886-11.567 7.886-3.154 0-6.046-.788-8.938-2.103l-1.314-7.623h1.577c1.315 3.943 4.732 8.149 9.727 8.149 2.892 0 4.995-1.577 4.995-4.206 0-6.572-14.196-6.046-14.196-13.933 0-5.258 5.521-8.15 10.778-8.15 2.629 0 5.258.526 7.361 1.841z" fill="#dfb725"/><path d="m186.912 131.18s-1.84.263-6.835.263-7.098-.788-7.098-.788.526-.263 3.418-1.315c2.892-1.051 4.469-2.366 4.469-2.366s-.263-.263-.526-.789c-.263-.525-.263-.788-.263-.788h4.469c3.155 0 5.258.526 10.516.788 4.995.263 11.304-.262 11.304-.262s-.263 1.051-6.835 2.628c-6.835 1.578-12.619 2.629-12.619 2.629zm-58.623-55.469c-.263.526-.789 1.84-2.366 1.84-1.578 0-1.841-1.577-1.841-2.103-1.577-.262-2.103-.262-2.103-.262s.263-.789 4.206-.789c3.944 0 5.258 1.577 5.258 1.577s-1.314-.263-3.154-.263zm70.453 4.206c3.943-2.103 13.933-6.309 21.031-10.515 7.098-3.943 9.727-6.572 9.727-6.572s1.051 1.314 0 2.892c-1.052 1.577-7.624 7.886-7.624 7.886l1.315.263s-1.052 1.315-4.207 3.418c-3.154 2.366-4.994 4.732-12.881 9.989-7.887 5.258-21.557 8.938-21.557 8.938l-.263-.525s6.573-2.629 10.516-5.521 5.258-4.995 4.995-5.521c-.263-.525-5.784-.788-6.31-1.051-1.051 0 1.052-1.577 5.258-3.681zm-19.979 10.253c1.577-.789 7.361-3.68 11.041-4.206 3.68-.789 4.469-.526 4.469-.526s.526 1.052-.526 2.103c-1.051 1.052-2.629 2.629-6.046 4.732-3.418 2.103-9.99 5.258-9.99 5.258l.263-1.577s1.84-1.315 2.892-2.629c.789-1.315.526-1.841 0-1.841h-3.155s-.788-.525 1.052-1.314zm.263 8.675c2.366-.263 4.206-.788 6.309-1.051 1.84-.263 4.995-.526 6.572-.263 1.315.263 2.366.263 2.366.263s-.263 1.314-1.577 1.84c-1.052.789-5.521 3.155-7.098 3.417-1.578.526-4.995.526-6.572-.262-1.578-.789-3.681-3.155-3.681-3.155s1.315-.263 3.681-.789zm-4.732 11.042c.788-.263 1.577-.526 1.577-.789.263-.263-.263-2.366-.263-2.366s4.206-.263 8.412.526c4.47.788 7.098 2.103 7.098 2.103s-2.891.263-5.257 1.314c-2.366.789-3.944 1.84-8.15 1.84-3.943 0-6.309-.525-6.309-.525s2.103-1.841 2.892-2.103zm-1.841 7.36c1.052-.788 4.995-3.68 4.995-3.68s2.629.263 4.207.526c1.314.525 2.891.788 4.469.788h2.366s-.526.789-2.892 1.578c-2.366.788-4.469 1.314-6.835 1.84-2.366.263-6.31.526-7.098.263-.789 0-.263-.526.788-1.315zm-9.463 18.928s0-1.314.788-3.154c.789-1.841 1.052-2.104 1.052-2.104s1.84.263 4.206 1.052c2.366 1.052 2.629 1.577 2.629 1.577s-2.366.526-5.258 1.578c-2.892 1.314-3.417 1.051-3.417 1.051zm13.407-3.943s1.051 1.577 7.886 2.629c6.835 1.314 10.516 1.314 10.516 1.314s-7.098 1.315-16.825 1.577c-9.99.263-13.144-.788-13.144-.788s1.577-.789 3.154-.789c1.578 0 2.366.263 3.418-.263 1.051-.788 4.995-3.68 4.995-3.68zm-4.732-3.418c-3.943 1.052-6.047 1.052-6.047 1.052l2.629-4.732s1.052 0 4.469.526c3.418.525 4.732.525 4.732.525s-1.84 1.578-5.783 2.629zm6.572-5.52c-5.258 1.051-10.778 1.314-10.778 1.051s.788-.788 3.417-2.366c2.629-1.577 3.681-2.366 3.681-2.366s3.154-.263 6.046.263 5.521 1.84 5.521 1.84-2.629.526-7.887 1.578zm32.861-11.83s-1.315 1.84-8.15 6.046c-6.835 3.944-13.67 6.309-13.67 6.309s.526-.788.789-1.577c.263-.788 1.314-2.366 1.314-2.366s-1.051-.263-2.891-.526c-1.841-.262-3.155-.788-3.155-.788s9.201-2.629 14.459-4.206c5.52-1.841 11.304-2.892 11.304-2.892zm5.258-15.51c3.154-1.052 4.469-1.841 6.835-2.629 2.366-.789 3.68-.789 3.68-.789s-3.68 2.366-5.784 3.943c-2.103 1.578-6.309 5.521-14.984 10.779-8.675 5.257-16.562 6.835-16.562 6.835l-2.366-1.841s4.206-1.314 5.521-2.103c1.577-.788 1.577-1.84 1.314-2.366-.526-.525-1.314-.788-1.314-.788s5.52-2.892 10.252-4.995 7.098-3.155 7.098-3.155l-1.84-.263s4.995-1.314 8.15-2.628zm17.087-19.717c-2.629 2.366-10.252 8.675-17.613 13.933s-9.99 7.624-16.036 10.778c-6.31 3.155-7.624 3.418-9.99 3.944-1.052.263-1.84.263-1.84.263s7.098-3.155 9.727-5.784c2.628-2.366 3.417-2.892 3.154-3.68-.263-.789-5.258-.526-5.258-.526s.263-.789 1.841-1.577c1.577-.789 9.201-4.732 14.984-7.887 5.784-3.155 10.779-5.784 16.036-8.675 5.258-3.155 7.098-4.469 7.098-4.469s.526 1.314-2.103 3.68z" fill="#554190"/></g></g></svg>