<svg clip-rule="evenodd" fill-rule="evenodd" stroke-linejoin="round" stroke-miterlimit="2" viewBox="0 0 560 400" xmlns="http://www.w3.org/2000/svg"><g transform="matrix(.978876 0 0 .978876 133.169 53.1686)"><path d="m277.687 137.928-40.913-18.999v-39.748l40.913 19.002z" fill="#fff"/><path d="m80.49 189.861-58.158-17.504v-39.756l58.158 3.504z" fill="#fff"/><path d="m46.667 15.379v172.922s15.054 48.548 103.145 95.873c88.091-47.325 103.145-95.873 103.145-95.873v-172.922z" fill="#e30613"/><path d="m149.812 287.913-1.559-.836c-88.265-47.418-104.101-95.764-104.731-97.8l-.148-.477v-176.713h212.876v176.713l-.148.477c-.63 2.036-16.466 50.382-104.731 97.8zm-99.851-100.165c1.754 4.783 19.885 49.278 99.851 92.683 79.93-43.387 98.082-87.86 99.851-92.686v-169.071h-199.702z" fill="#fff" fill-rule="nonzero"/><path d="m107.005 96.325h-28.625v-17.922h27.019v-14.883h-27.019v-16.198h28.625v-16.113h-44.387v81.235h44.387z" fill="#fff" fill-rule="nonzero"/><path d="m155.303 31.203h-18.676l-21.472 81.238h16.099l3.204-14.799h22.763l3.014 11.073 15.027-2.021zm-17.562 51.556 8.221-29.188 7.97 29.188z" fill="#fff" fill-rule="nonzero"/><path d="m237.006 68.964h-28.603v14.88h12.756v6.243c0 6.238-2.142 6.238-6.033 6.238h-10.424c-3.941 0-5.572 0-5.572-6.251v-37.511c0-5.257 1.119-5.26 5.832-5.273h12.123c.16.003.311.003.442.011 1.837.199 3.632.81 3.632 5.811v5.804h15.847v-12.99c0-8.805-5.75-14.72-14.308-14.72h-23.003c-9.257 0-16.438 9.238-16.438 17.184v47.109c0 3.143 1.373 6.638 3.608 9.635l50.141-6.743z" fill="#fff" fill-rule="nonzero"/><path d="m278.007 137.928-256.014 34.43v-39.745l256.014-34.43z"/><g fill-rule="nonzero"><path d="m35.243 157.498 6.857-.97.012 3.459-11.662 1.65-.078-20.945 11.393-1.612.013 3.456-6.588.933.018 5.105 5.612-.794.013 3.459-5.611.794z" fill="#fff"/><path d="m53.055 137.484 4.401-.621.078 20.945-4.301.607-4.716-11.887.047 12.548-4.369.618-.079-20.944 4.334-.613 4.653 11.86z" fill="#fff"/><path d="m76.288 155.153-.755-3.679-4.87.687-.726 3.89-4.738.672 4.761-21.629 6.115-.866 5.052 20.241zm-4.968-6.512 3.496-.496-1.78-8.609z" fill="#fff"/><path d="m91.731 132.013 4.974-.703-4.626 21.61-5.881.832-4.817-20.273 5.008-.709 2.712 15.168z" fill="#fff"/><path d="m108.276 150.629-.755-3.68-4.87.687-.726 3.891-4.738.671 4.761-21.629 6.115-.863 5.053 20.241zm-4.968-6.513 3.496-.495-1.78-8.61z" fill="#fff"/><path d="m123.622 127.505 4.401-.624.079 20.945-4.301.607-4.717-11.887.047 12.548-4.37.618-.079-20.944 4.336-.613 4.652 11.863z" fill="#fff"/><path d="m142.307 124.861.013 3.456-3.934.557.065 17.489-4.804.679-.065-17.488-3.897.551-.014-3.456z" fill="#fff"/><path d="m162.659 128.77-4.805.68-.01-2.734c0-.549-.307-.781-.909-.695l-1.378.194c-.607.088-.906.405-.906.954l.051 12.844c0 .306.067.511.202.613.134.101.371.128.707.08l1.377-.195c.336-.045.57-.141.704-.28.136-.138.202-.365.202-.671l-.016-4.085-1.681.237-.011-3.128 6.483-.917.03 7.642c.01 2.414-1.397 3.821-4.221 4.221l-4.336.613c-2.822.4-4.237-.608-4.247-3.022l-.051-13.702c-.01-2.414 1.396-3.821 4.221-4.22l4.335-.613c2.822-.4 4.237.607 4.248 3.022z" fill="#fff"/><path d="m173.488 120.451 4.804-.679.067 17.288c.008 2.438-1.41 3.856-4.253 4.258l-4.503.637c-2.825.4-4.24-.618-4.25-3.056l-.064-17.289 4.807-.679.064 16.662c0 .549.29.784.874.701l1.612-.229c.605-.085.906-.402.906-.951z" fill="#fff"/><path d="m181.386 119.335 4.772-.674.08 20.944-4.775.674z" fill="#fff"/><path d="m198.221 116.953 4.403-.621.077 20.944-4.301.608-4.717-11.887.048 12.548-4.37.618-.08-20.945 4.336-.613 4.65 11.861z" fill="#fff"/><path d="m218.276 120.904-4.805.68-.01-2.734c-.003-.549-.307-.781-.912-.696l-1.377.195c-.608.088-.906.405-.904.954l.048 12.844c0 .306.067.511.203.613.136.101.37.127.709.079l1.375-.194c.335-.045.57-.141.703-.28.136-.138.203-.365.203-.671l-.016-4.085-1.682.237-.01-3.128 6.486-.917.029 7.642c.008 2.414-1.399 3.821-4.224 4.221l-4.332.613c-2.825.4-4.24-.608-4.251-3.022l-.05-13.702c-.011-2.414 1.399-3.821 4.221-4.22l4.335-.613c2.822-.4 4.24.607 4.248 3.021z" fill="#fff"/><path d="m230.76 133.306-.754-3.68-4.871.687-.725 3.891-4.738.671 4.759-21.629 6.116-.866 5.052 20.241zm-4.967-6.513 3.496-.495-1.78-8.61z" fill="#fff"/><path d="m241.48 131.79-4.234.599-.078-20.944 5.242-.741 3.571 11.357 3.488-12.356 5.241-.741.077 20.944-4.234.6-.053-14.062-2.721 9.905-3.56.504-2.792-9.095z" fill="#fff"/><path d="m257.732 108.538 8.804-1.248c2.824-.399 4.237.611 4.247 3.025l.024 6.355c.008 2.438-1.396 3.853-4.22 4.253l-4.032.57.027 7.312-4.773.677zm8.268 8.188-.018-5.073c-.003-.547-.296-.784-.88-.701l-2.584.365.024 6.72 2.584-.365c.584-.083.877-.397.874-.946z" fill="#fff"/><path d="m63.369 186.972s12.663 41.066 86.776 81.098c74.115-40.032 86.781-81.098 86.781-81.098v-38.25l-173.557 23.466z"/><path d="m204.657 182.236c-10.358-1.586-20.814 3.402-25.665 12.243-4.325 7.891-3.321 17.384 2.472 23.464 5.015 5.258 12.53 6.461 18.314 2.927 3.447-2.106 5.381-6.194 4.636-9.795-.543-2.623-2.485-4.557-4.682-4.672-1.67-.084-2.753.786-2.98 2.401-.264 1.899-1.53 2.852-3.438 2.502-1.997-.371-3.263-1.675-3.907-3.509-1.173-3.334-.317-6.341 1.975-8.859 3.466-3.799 7.886-4.784 12.76-3.646 7.891 1.85 13.359 9.649 13.021 18.367-.06 1.528-.282 3.025-.65 4.475 5.157-5.743 9.087-10.948 12.052-15.387-3.577-10.853-12.646-18.783-23.908-20.511z" fill="#fff"/><path d="m97.556 173.428c1.708 10.838 7.97 18.29 18.71 21.37 9.201 2.639 18.887-1.162 23.589-8.917 3.67-6.06 3.203-13.679-1.141-18.645-2.347-2.685-5.543-4.107-8.721-4.056l-2.379.322c-.477.124-.948.277-1.41.474-2.604 1.105-4.355 3.79-4.074 6.248.256 2.298 2.256 3.848 4.325 2.71 1.17-.644 2.387-.118 3.148 1.053 1.283 1.975.666 4.857-1.438 6.715-2.739 2.418-6.949 2.912-10.568 1.026-5.44-2.832-7.711-7.588-7.501-13.523.029-.802.118-1.593.258-2.37l-13.22 1.788c-.03 1.872.107 3.806.422 5.805z" fill="#fff"/><path d="m151.539 163.067c5.763 10.066 4.794 22.942-2.48 32.389-5.52 7.165-12.852 11.291-21.715 12.8-4.873.829-9.485 2.404-12.093 3.847-5.629 3.146-9.114 5.875-12.167 9.166-2.713 2.923-4.913 6.177-6.594 9.627 3.181 2.901 6.654 5.881 10.443 8.918 2.377-7.208 7.901-13.408 15.601-16.521 13.026-5.269 24.732-2.384 34.915 7.046 2.265 2.095 4.131 4.625 6.352 6.778 5.588 5.41 12.231 8.913 19.148 10.586 6.047-4.34 11.444-8.604 16.253-12.735-13.339 3.397-27.753-3.832-33.477-17.858-3.403-8.33-2.955-16.65-.046-25.109 4.127-12.002 3.748-23.268-1.652-33.423l-14.172 1.917c.606.815 1.169 1.672 1.684 2.572z" fill="#fff"/><path d="m145.727 237.425c-6.901-4.958-16.02-4.857-22.2.248-3.379 2.79-5.176 6.842-5.015 10.865 3.738 2.651 7.721 5.329 11.961 8.021.187-.19.365-.399.53-.634.887-1.263.742-2.753-.305-3.643-2.151-1.822-1.919-4.071.562-5.451 2.344-1.307 5.593-.756 7.872 1.506 3.381 3.359 3.885 7.433 2.453 11.782-.291.882-.672 1.72-1.129 2.512 3.107 1.813 6.334 3.627 9.689 5.439.927-.501 1.841-1.002 2.749-1.503.076-.167.155-.333.228-.502 4.455-10.388 1.369-22.345-7.395-28.64z" fill="#fff"/><path d="m135.928 209.753h-1.434v-2.302h4.013v10.576h-2.579z"/><path d="m142.868 214.928c.145.738.565 1.143 1.334 1.143 1.043 0 1.405-.885 1.405-2.897-.421.594-1.203.941-2.101.941-1.81 0-3.201-1.13-3.201-3.376 0-2.145 1.391-3.536 3.636-3.536 3.013 0 3.854 2.044 3.854 5.26 0 3.608-.841 5.609-3.68 5.609-2.305 0-3.42-1.522-3.536-3.144zm2.537-4.147c0-.94-.552-1.447-1.391-1.447-.856 0-1.378.549-1.378 1.434 0 .797.464 1.391 1.435 1.391.812 0 1.334-.522 1.334-1.378z"/><path d="m150.287 209.753h-1.434v-2.302h4.013v10.576h-2.579z"/><path d="m154.475 216.041c2.247-1.854 4.637-3.693 4.637-5.475 0-.768-.346-1.261-1.101-1.261-.74 0-1.175.578-1.175 1.58h-2.39c.072-2.566 1.74-3.666 3.667-3.666 2.403 0 3.477 1.404 3.477 3.187 0 2.318-2.073 4.173-3.752 5.462h3.912v2.015h-7.275z"/></g></g></svg>