<svg clip-rule="evenodd" fill-rule="evenodd" stroke-linejoin="round" stroke-miterlimit="2" viewBox="0 0 560 400" xmlns="http://www.w3.org/2000/svg" xmlns:xlink="http://www.w3.org/1999/xlink"><clipPath id="a"><path clip-rule="evenodd" d="m0 81.647v-81.647h243.64v81.647"/></clipPath><g fill-rule="nonzero" transform="matrix(1.47758912 0 0 -1.47758912 100.00021152 260.32058272)"><path d="m30.406 46.827c-.175 2.404 1.633 4.497 4.039 4.672 2.407.174 4.499-1.635 4.674-4.042.175-2.406-1.635-4.497-4.041-4.672-2.405-.173-4.497 1.633-4.672 4.042" fill="#314d89"/><path d="m81.672 46.827c.175 2.404-1.635 4.497-4.04 4.672-2.408.174-4.499-1.635-4.673-4.042-.175-2.406 1.635-4.497 4.039-4.672 2.406-.173 4.5 1.633 4.674 4.042" fill="#314d89"/><path d="m96.063 39.977c-.513 1.895-3.128 2.183-5.434 1.583-1.82-.475-8.153-2.232-13.775-1.824-4.04.292-7.989 3.653-10.446 5.953 2.441 2.814 5.59 5.833 6.312 6.679 1.044 1.217 1.217 3.129.348 3.998-.868.868-2.433.344-3.998-.698-1.561-1.042-7.471-6.992-13.108-6.992-5.635 0-11.738 5.95-13.303 6.992-1.564 1.042-3.825.869-4.694 0-.868-.869.002-2.083 1.046-3.3.739-.864 4.006-3.995 6.466-6.859-2.468-2.291-6.318-5.489-10.253-5.773-5.622-.408-11.956 1.349-13.775 1.824-2.306.6-4.921.312-5.435-1.583-.322-1.184.683-2.488 2.033-3.369 1.343-.876 8.308-2.23 10.267-5.226 1.958-2.994 2.257-26.162 4.082-26.939 1.33-.568 3.65-.568 4.91.074 1.768.896 4.75 26.173 6.255 29.42.833 1.792 2.929 4.472 4.799 6.731 1.611-7.55 3.373-35.673 5.071-36.261 1.284-.443 3.84-.443 4.867 0 1.675.725 3.508 29.589 5.145 36.592 1.935-2.323 4.2-5.181 5.074-7.062 1.505-3.247 4.486-28.524 6.253-29.42 1.262-.642 3.58-.642 4.912-.074 1.822.777 2.121 23.945 4.081 26.939 1.96 2.996 8.924 4.35 10.267 5.226 1.35.881 2.354 2.185 2.033 3.369" fill="#314d89"/><g clip-path="url(#a)"><path d="m51.67 56.097c0 2.414 1.956 4.367 4.37 4.367 2.409 0 4.367-1.953 4.367-4.367 0-2.412-1.958-4.368-4.367-4.368-2.414 0-4.37 1.956-4.37 4.368" fill="#314d89"/><path d="m96.935 55.789c2.123-3.369-2.323-4.633-5.718-3.857-2.844.648-30.734 15.561-34.916 15.945-4.168.38-29.256-15.044-32.021-16.524-4.062-2.172-7.65-1.965-11.401-.02-1.238.646-10.795 5.69-12.879 7.098 2.084 1.947 31.09 19.362 34.467 21.054 3.884 1.949 6.199 2.971 10.469 1.376 2.961-1.109 51.119-23.679 51.999-25.072" fill="#6db340"/></g><path d="m11.003 34.157c1.086-.161 6.214-2.371 8.245-3.417 4.882-2.514 5.135-5.014 5.692-9.083.595-4.335 1.107-12.412 1.192-15.472-2.043.876-10.042 7.57-11.951 9.22-1.48 1.283-3.135 2.198-3.132 4.185.003.759-.346 12.701-.046 14.567" fill="#6db340"/><g fill="#314d89"><path d="m239.17 18.57h1c.67 0 .89.238.89.721 0 .423-.32.659-.75.659h-1.14zm0-2.376h-.62v4.27h1.63c1 0 1.49-.403 1.49-1.213 0-.77-.5-1.094-1.11-1.174l1.23-1.883h-.68l-1.16 1.864h-.78zm.79-.995c1.7 0 3.01 1.341 3.01 3.115 0 1.747-1.31 3.097-3.01 3.097-1.72 0-3.02-1.35-3.02-3.097 0-1.774 1.3-3.115 3.02-3.115zm0 6.763c2.01 0 3.68-1.576 3.68-3.648 0-2.091-1.67-3.668-3.68-3.668-2 0-3.69 1.577-3.69 3.668 0 2.072 1.69 3.648 3.69 3.648"/><path d="m116.32 57.872c-.18-2.146-.22-4.642-.22-7.314v-5.038c.96-.045 1.92-.088 3.33-.088 1.4 0 2.36.043 3.32.088v5.038c0 2.672-.04 5.168-.21 7.314h8.28c-.44-4.511-.44-8.192-.44-15.638s0-11.128.44-15.639h-8.28c.17 2.144.21 4.645.21 7.315v6.395c-.96.045-1.92.088-3.32.088-1.41 0-2.37-.043-3.33-.088v-6.395c0-2.67.04-5.171.22-7.315h-8.28c.43 4.511.43 8.193.43 15.639s0 11.127-.43 15.638z"/><path d="m144.13 37.985c-2.75-.701-4.47-2.41-4.47-4.6 0-1.534.97-2.716 2.37-2.716.92 0 1.84.571 2.1.964zm-9.5 10.864c.61.087 2.98.349 4.6.349 9.06 0 11.82-3.547 11.82-9.417v-5.476c0-2.102 0-4.47 1.14-7.71h-6.96c-.53.701-.7 1.182-.75 1.357-1.18-.876-2.8-1.707-4.9-1.707-4.25 0-7.01 2.935-7.01 6.614 0 4.03 3.19 6.747 7.36 8.104l3.63 1.184c-.04 1.533-1.05 2.847-3.11 2.847-1.4 0-3.59-.657-5.82-2.277z"/><path d="m161.94 32.727c0-1.271.48-2.277 1.88-2.277 1.8 0 3.07 1.839 3.07 7.052 0 3.724-.97 6.922-3.16 6.922-1.18 0-1.79-.744-1.79-1.796zm0 25.145v-9.899c1.09.656 2.67 1.225 4.25 1.225 4.16 0 8.06-3.065 8.06-11.038 0-6.178-3.37-12.09-9.59-12.09-1.67 0-3.6.568-5.66 2.189l-2.45-2.102-2.1 1.271c.39 2.802.39 5.781.39 8.937v12.571c0 1.622 0 3.418-.44 8.936z"/><path d="m184.13 48.672c-.09-2.275-.09-5.606-.09-10.336 0-5.959 0-8.939.4-11.741h-7.89c.39 2.802.39 5.782.39 8.937v4.205c0 3.155 0 6.132-.39 8.935zm-3.64 9.509c2.19 0 3.95-1.754 3.95-3.944s-1.76-3.942-3.95-3.942-3.94 1.752-3.94 3.942 1.75 3.944 3.94 3.944"/><path d="m196.22 55.376c-.09-1.357-.14-3.943-.14-6.704h3.29v-4.203h-3.29v-11.041c0-1.795.66-2.803 2.42-2.803.26 0 .52 0 .92.044v-3.943c-1.45-.481-2.94-.656-4.43-.656-1.97 0-3.55.699-4.73 2.102-.92 1.096-1.27 2.934-1.27 5.17v11.127h-2.54v4.203h2.54c0 2.761-.04 5.347-.13 6.704z"/><path d="m213.18 37.985c-2.76-.701-4.46-2.41-4.46-4.6 0-1.534.96-2.716 2.36-2.716.92 0 1.84.571 2.1.964zm-9.5 10.864c.61.087 2.98.349 4.6.349 9.07 0 11.83-3.547 11.83-9.417v-5.476c0-2.102 0-4.47 1.13-7.71h-6.96c-.53.701-.7 1.182-.74 1.357-1.19-.876-2.81-1.707-4.91-1.707-4.25 0-7.01 2.935-7.01 6.614 0 4.03 3.2 6.747 7.36 8.104l3.64 1.184c-.05 1.533-1.06 2.847-3.12 2.847-1.4 0-3.59-.657-5.82-2.277z"/><path d="m231.96 55.376c-.08-1.357-.13-3.943-.13-6.704h3.29v-4.203h-3.29v-11.041c0-1.795.66-2.803 2.41-2.803.27 0 .53 0 .92.044v-3.943c-1.44-.481-2.93-.656-4.42-.656-1.97 0-3.55.699-4.73 2.102-.92 1.096-1.27 2.934-1.27 5.17v11.127h-2.55v4.203h2.55c0 2.761-.05 5.347-.14 6.704z"/><path d="m115.17 18.984c-.1.073-.41.239-.93.239-.99 0-1.47-.759-1.47-1.568 0-.472.14-.949.24-1.187h1.78v-2.277h-1.81v-4.841c0-1.708 0-3.322.22-4.84h-4.28c.22 1.518.22 3.132.22 4.84v4.841h-1.31v2.277h1.31v.927c0 1.401.24 2.348 1.35 3.275.95.759 2.14 1.02 3.18 1.02.57 0 1.19-.095 1.5-.214z"/><path d="m119.23 10.489c0-2.871.62-3.892 1.33-3.892.72 0 1.33 1.021 1.33 3.892s-.61 3.892-1.33 3.892c-.71 0-1.33-1.021-1.33-3.892zm6.88 0c0-4.034-2.65-6.264-5.55-6.264-2.89 0-5.55 2.23-5.55 6.264 0 4.033 2.66 6.266 5.55 6.266 2.9 0 5.55-2.233 5.55-6.266"/><path d="m131.12 16.468c.15-.426.31-1.209.34-1.588.83 1.113 1.82 1.875 3.01 1.875.26 0 .4-.026.52-.072v-3.157c-.26.073-.59.096-.71.096-1.81 0-2.59-1.662-2.59-4.272 0-1.708 0-3.322.22-4.84h-4.42c.22 1.518.22 3.132.22 4.84v2.278c0 1.709 0 3.322-.41 4.84z"/><path d="m147.64 21.452c-.1-1.163-.12-2.514-.12-3.963v-2.728c.52-.024 1.04-.047 1.8-.047s1.29.023 1.81.047v2.728c0 1.449-.02 2.8-.12 3.963h4.48c-.23-2.444-.23-4.435-.23-8.471 0-4.033 0-6.029.23-8.471h-4.48c.1 1.163.12 2.514.12 3.962v3.464c-.52.024-1.05.049-1.81.049s-1.28-.025-1.8-.049v-3.464c0-1.448.02-2.799.12-3.962h-4.48c.23 2.442.23 4.438.23 8.471 0 4.036 0 6.027-.23 8.471z"/><path d="m164.15 4.51c-.16.355-.28.757-.35 1.067-.88-.855-1.78-1.352-3.01-1.352-2.02 0-3.35 1.471-3.35 3.75v3.653c0 1.709 0 3.322-.22 4.84h4.06v-7.949c0-.948.38-1.495 1.07-1.495.59 0 1.21.428 1.21 1.258v3.346c0 1.709 0 3.322-.21 4.84h4.27c-.22-1.518-.22-3.131-.22-4.84v-2.278c0-1.708 0-3.322.22-4.84z"/><path d="m173.17 16.468c.17-.356.29-.758.36-1.065.88.805 1.94 1.352 3.13 1.352 1.28 0 2.09-.735 2.66-1.52.85.758 1.8 1.52 3.34 1.52 2.33 0 3.21-1.639 3.21-3.987v-3.418c0-1.708 0-3.322.21-4.84h-4.27c.21 1.518.21 3.132.21 4.84v3.298c0 .832-.23 1.448-.97 1.448-.8 0-1.26-.616-1.26-1.448v-3.298c0-1.708 0-3.322.22-4.84h-4.28c.22 1.518.22 3.132.22 4.84v3.345c0 .785-.24 1.401-.97 1.401-.67 0-1.26-.546-1.26-1.258v-3.488c0-1.708 0-3.322.21-4.84h-4.27c.21 1.518.21 3.132.21 4.84v2.278c0 1.709 0 3.322-.21 4.84z"/><path d="m193.54 10.681c-1.5-.381-2.42-1.308-2.42-2.494 0-.831.52-1.471 1.28-1.471.49 0 1 .308 1.14.523zm-5.15 5.884c.33.045 1.61.19 2.49.19 4.91 0 6.41-1.924 6.41-5.104v-2.964c0-1.14 0-2.423.61-4.177h-3.77c-.28.378-.38.639-.4.735-.64-.475-1.52-.926-2.66-.926-2.3 0-3.8 1.592-3.8 3.583 0 2.183 1.73 3.654 3.99 4.391l1.97.641c-.02.831-.57 1.543-1.69 1.543-.75 0-1.94-.358-3.15-1.236z"/><path d="m202.46 16.468c.16-.356.28-.758.35-1.065.88.852 1.78 1.352 3.01 1.352 2.02 0 3.35-1.471 3.35-3.75v-3.655c0-1.708 0-3.322.21-4.84h-4.27c.22 1.518.22 3.132.22 4.84v3.275c0 .735-.31 1.328-1.03 1.328-.59 0-1.25-.427-1.25-1.139v-3.464c0-1.708 0-3.322.21-4.84h-4.27c.21 1.518.21 3.132.21 4.84v2.278c0 1.709 0 3.322-.21 4.84z"/><path d="m214.89 16.468c-.05-1.233-.05-3.037-.05-5.599 0-3.227 0-4.841.22-6.359h-4.27c.21 1.518.21 3.132.21 4.84v2.278c0 1.709 0 3.322-.21 4.84zm-1.97 5.152c1.19 0 2.14-.95 2.14-2.137s-.95-2.135-2.14-2.135c-1.18 0-2.13.948-2.13 2.135s.95 2.137 2.13 2.137"/><path d="m221.65 20.101c-.05-.737-.07-2.137-.07-3.633h1.78v-2.277h-1.78v-5.979c0-.973.36-1.52 1.3-1.52.15 0 .29 0 .5.024v-2.136c-.78-.261-1.59-.355-2.39-.355-1.07 0-1.92.379-2.56 1.137-.5.596-.69 1.59-.69 2.801v6.028h-1.38v2.277h1.38c0 1.496-.03 2.896-.07 3.633z"/><path d="m228.61 16.468c.3-1.85 1.21-5.219 1.68-6.762h.05c.66 2.422 1.16 5.148 1.38 6.762h3.39c-.79-3.25-2.57-9.848-4.08-12.955-.79-1.59-1.97-3.513-5.23-3.513-.33 0-.82.024-1.13.119v3.037c.21-.119.73-.355 1.33-.355 1.23 0 2.06 1.02 2.06 1.898 0 .45-.09.736-1.04 3.25-1.29 3.37-2.26 6.931-2.52 8.519z"/></g></g></svg>