<svg clip-rule="evenodd" fill-rule="evenodd" stroke-linejoin="round" stroke-miterlimit="2" viewBox="0 0 560 400" xmlns="http://www.w3.org/2000/svg"><g fill="#df002c" fill-rule="nonzero"><path d="m30 182.346v35.308h19.362v-13.098h10.535v13.098h19.363v-35.308h-19.363v13.383h-10.535v-13.383z"/><path d="m88.428 199.801c-3.474 9.595-6.321 17.54-6.321 17.653 0 .114 4.328.2 9.624.2h9.596l.74-2.079.712-2.05h16.429l.712 2.05.741 2.079h9.652c7.603 0 9.624-.086 9.539-.37-.085-.171-2.933-8.115-6.378-17.626l-6.236-17.312h-32.46zm25-2.164c1.253 3.445 2.278 6.406 2.278 6.606 0 .227-1.367.313-4.698.313-3.816 0-4.698-.086-4.698-.399 0-.199.939-2.99 2.107-6.179 2.534-6.976 2.506-6.862 2.619-6.719.057.028 1.111 2.904 2.392 6.378z"/><path d="m142.756 182.346v35.308h19.362l.057-7.318.086-7.346 3.388 7.346 3.417 7.318h8.855l3.417-7.375 3.417-7.403.086 7.403.056 7.375h19.363v-35.308l-10.82.057-10.849.086-4.442 9.595c-2.477 5.296-4.556 9.624-4.67 9.624-.085 0-2.192-4.356-4.669-9.681l-4.499-9.681z"/><path d="m213.428 199.801c-3.474 9.595-6.321 17.54-6.321 17.653 0 .114 4.328.2 9.624.2h9.596l.74-2.079.712-2.05h16.429l.712 2.05.741 2.079h9.652c7.603 0 9.624-.086 9.539-.37-.085-.171-2.933-8.115-6.378-17.626l-6.236-17.312h-32.46zm25-2.164c1.253 3.445 2.278 6.406 2.278 6.606 0 .227-1.367.313-4.698.313-3.816 0-4.698-.086-4.698-.399 0-.199.939-2.99 2.107-6.179 2.534-6.976 2.506-6.862 2.619-6.719.057.028 1.111 2.904 2.392 6.378z"/><path d="m267.756 182.346v35.308h19.362v-14.949l3.503 7.489 3.474 7.46h8.855l3.474-7.46 3.473-7.489v14.949h19.363v-35.308h-21.555l-4.499 9.681c-2.477 5.325-4.584 9.681-4.698 9.681s-.797-1.309-1.538-2.932c-.768-1.595-2.79-5.951-4.498-9.681l-3.161-6.749z"/><path d="m338.428 199.801c-3.474 9.595-6.321 17.54-6.321 17.653 0 .114 4.328.2 9.624.2h9.596l.74-2.079.712-2.05h16.429l.712 2.05.741 2.079h9.652c7.603 0 9.624-.086 9.539-.37-.085-.171-2.933-8.115-6.378-17.626l-6.236-17.312h-32.46zm25-2.164c1.253 3.445 2.278 6.406 2.278 6.606 0 .227-1.367.313-4.698.313-3.816 0-4.698-.086-4.698-.399 0-.199.939-2.99 2.107-6.179 2.534-6.976 2.506-6.862 2.619-6.719.057.028 1.111 2.904 2.392 6.378z"/><path d="m383.075 182.346v8.827h12.244v26.481h19.362v-26.481h12.244v-8.827z"/><path d="m437.603 182.745c-5.069 1.31-7.945 4.47-8.685 9.567-.569 3.986 1.054 8.713 3.73 10.82 2.449 1.936 3.218 2.079 13.582 2.25l9.226.17.683.798c1.794 2.078 0 4.385-3.189 4.128-1.623-.142-2.563-.711-2.99-1.879l-.256-.626h-20.957l.199 1.708c.399 3.474 2.221 5.923 5.382 7.204 1.566.626 1.651.626 18.366.626h16.799l1.908-.655c2.705-.939 4.271-2.249 5.325-4.384 2.306-4.699 1.509-12.073-1.623-15.12-2.449-2.392-4.642-2.762-16.088-2.762-9.681 0-10.108-.085-10.706-1.708-.627-1.823.626-3.19 3.046-3.332 1.908-.142 3.332.57 3.645 1.765l.171.712h21.099l-.171-1.737c-.313-3.416-2.135-5.865-5.325-7.175-1.537-.626-1.765-.626-16.657-.683-11.475-.029-15.432.028-16.514.313z"/><path d="m480.797 195.245.086 12.87.939 1.908c1.993 4.072 6.578 6.52 13.753 7.374 3.531.399 19.96.171 22.039-.313 4.783-1.11 8.371-2.933 10.051-5.068 2.278-2.904 2.335-3.331 2.335-17.511v-12.159h-19.334l-.171 24.659-.797 1.195c-2.221 3.36-7.204 3.047-9.054-.569-.513-.997-.541-1.851-.541-13.183v-12.102h-19.391z"/></g></svg>