<svg clip-rule="evenodd" fill-rule="evenodd" stroke-linejoin="round" stroke-miterlimit="2" viewBox="0 0 560 400" xmlns="http://www.w3.org/2000/svg"><g fill-rule="nonzero" transform="matrix(1.2865 0 0 1.2865 155.933 99.9998)"><g fill="#fff"><path d="m187.013 114.453c-.617 1.173-1.79 2.9-3.271 2.653.196-.312.361-.643.494-.987-.178.097-.364.179-.555.247-.471.301-.995.51-1.543.617-1.011 1.149-2.593 1.629-4.072 1.234.515-.392.902-.929 1.111-1.542-.394-.135-.767-.322-1.111-.556-.454.266-.958.434-1.481.494-1.021 1.449-2.875 2.075-4.566 1.542.621-.692 1.028-1.549 1.173-2.468-.324-.271-.633-.559-.926-.863-.832.17-1.68.253-2.529.246-1.266 1.434-3.163 2.151-5.06 1.913.68-.636 1.171-1.448 1.419-2.345-1.045-.324-1.998-.896-2.776-1.665-21.177 31.408-64.037 40.486-96.129 20.361.032 3.725-.299 7.444-.987 11.106-.304.26-.635.487-.987.678-.372 1.171-1.029 2.231-1.913 3.085.034-.556.013-1.114-.062-1.666l-.925 1.543-1.049.308c-.714 1.057-1.693 1.908-2.838 2.468.27-.729.375-1.508.308-2.283l-1.419 1.049c-.617 0-1.357-.061-1.357-.061-.741.836-1.74 1.401-2.838 1.604.299-.682.467-1.415.493-2.16-.534-.167-1.006-.489-1.357-.925l-.062-1.851-.123-.062c-.846.681-1.879 1.09-2.962 1.172.608-.717.994-1.596 1.111-2.529-.493-.448-.801-1.065-.864-1.728 2.648-2.289 4.161-5.631 4.134-9.131-.075-3.427.49-6.838 1.666-10.058-2.02-1.979-3.916-4.08-5.677-6.293-4.03 3.426-7.747 7.205-11.106 11.291-2.597 1.297-5.627 1.432-8.329.37-1.339 5.423-2.165 10.959-2.468 16.536-1.26 1.119-2.831 1.83-4.504 2.036-.66 1.3-1.817 2.28-3.209 2.715.36-.485.574-1.063.617-1.666-.809.372-1.704.521-2.591.432-.865.877-2.038 1.386-3.27 1.419.532-.601.913-1.32 1.11-2.098l-1.11-.617-.309.37c-.861.009-1.711-.203-2.468-.617-1.034.632-2.253.893-3.455.741.665-.695 1.188-1.512 1.543-2.407-.506-.632-.865-1.37-1.049-2.159l.493-.555-.802-1.111c-1.16.368-2.419.28-3.517-.247 1.094-.315 2.05-.989 2.715-1.912-.28-1.219-.28-2.484 0-3.702 10.181-8.762 5.923-19.806 11.106-26.593 3.332-.494 4.196-1.481 4.196-1.481-.617-2.591 1.419-5.923 1.419-5.923-1.276.296-2.578.461-3.887.494-7.343 0-12.155-5.06-12.155-11.97 0-15.425 20.237-19.127 25.729-19.806 1.316-37.766 32.743-68.117 70.532-68.117 38.717 0 70.576 31.859 70.576 70.576v.009c-.001 6.699-.936 13.365-2.777 19.806 2.893 2.934 6.249 5.373 9.934 7.219 3.684 1.845 7.404 1.727 7.404 8.267.081 2.216-.995 4.321-2.838 5.553zm-3.394-16.659c-2.801-1.465-5.412-3.268-7.774-5.368 1.626-6.144 2.45-12.474 2.45-18.831 0-40.373-33.222-73.595-73.595-73.595-38.449 0-70.749 30.131-73.418 68.487-11.291 1.789-25.791 8.391-25.791 22.212 0 10.551 7.898 15.178 14.623 15.178l-.062.555-2.653.494c-6.91 7.898-2.344 20.238-12.34 27.765-.384 1.384-.53 2.824-.432 4.257-1.387 1.1-2.952 1.956-4.627 2.53.74 2.345 5.491 3.825 6.232 3.887.064.232.147.459.246.679-.312 1.353-.996 2.593-1.974 3.578.987 1.481 5.676 1.728 6.849 1.419-.144.837-.459 1.636-.926 2.345-.466.71 4.072.802 6.787-.925.072.639.03 1.287-.123 1.912 2.963-.454 5.708-1.837 7.836-3.949 2.128-2.111 5.306-1.295 5.676-4.442.555-5.306.864-9.378 1.604-13.142 2.772.248 5.558-.309 8.021-1.604 2.735-3.373 5.726-6.529 8.947-9.44.802.925 1.604 1.789 2.406 2.653-2.283 7.465.926 12.648-5.429 17.276.005 1.219.214 2.428.617 3.578-.313 1.273-.88 2.469-1.666 3.517-.787 1.048 1.295 1.481 4.936 1.358-.041 1.135-.249 2.257-.617 3.332 1.94.488 3.983.381 5.861-.309-.078.723-.265 1.431-.555 2.098s4.257-.802 6.725-2.962c.082.637.061 1.283-.062 1.913 2.9-1.974 5.677-4.628 6.232-7.096.062-.123 1.234-.925 1.296-.987.549-2.56.9-5.159 1.049-7.774 31.075 16.731 70.04 8.766 92.056-18.818 2.081.437 4.245.265 6.232-.494-.552.443-1.129.855-1.728 1.234-.598.378 5.677 2.221 8.823 0-.118.4-.306.776-.555 1.111-.249.334 5.244 1.295 7.959-1.543-.077.364-.202.717-.37 1.049s5.183.062 6.91-4.504c2.314-1.801 3.643-4.596 3.579-7.528 0-8.761-9.255-11.106-9.255-11.106z"/><path d="m98.35 127.657c-.741-.061-.987.247-1.049.987l-.617 5.06c-.062.74.061 1.11.74 1.234.741.061.987-.247 1.049-.987l.617-5.121c.124-.679-.062-1.111-.74-1.173zm10.057.247c-.679.062-.864.432-.802 1.234l.308 5.059c.062.741.309 1.111 1.049 1.049.679-.061.864-.432.802-1.172l-.308-5.121c-.062-.741-.309-1.111-1.049-1.049zm-86.442-37.946c-.185-.802 3.332-5.121 9.934-5.799.052.518.134 1.033.247 1.542-4.751 2.838-9.317 4.751-10.181 4.257zm11.415-8.884c-6.541 0-14.5 4.442-14.5 9.563 0 1.604 1.111 2.283 2.962 2.283 3.64 0 8.638-2.53 13.574-5.676-.37-2.036-.679-4.072-.926-6.17z"/><path d="m139.01 26.716-3.64 2.283 2.591 1.851zm12.587 89.218-7.713-6.54 1.173-1.296 6.478 5.553 1.789-2.098 1.173.988zm-6.355 6.108-6.664-7.527 1.296-1.172 5.676 6.417 2.036-1.851.988 1.172zm-5.615 4.196-1.481-1.728-1.604.988.926 2.036-1.42.864-3.825-9.441 1.789-1.172 7.034 7.528zm-10.489 5.553-2.53 1.049-3.887-9.255 2.345-1.049c1.727-.679 2.9-.123 3.517 1.481.435.759.308 1.723-.309 2.344 1.019.022 1.915.695 2.221 1.666.679 1.605.432 3.024-1.357 3.764zm-10.736 3.455-1.974-8.329-1.604.37-.371-1.419 4.936-1.172.371 1.48-1.666.371 1.974 8.329zm-9.378 1.481c-.143.027-.288.04-.433.04-1.286 0-2.344-1.058-2.344-2.344 0-.013 0-.027 0-.041l-.37-5.182c-.016-.114-.024-.229-.024-.345 0-1.334 1.098-2.433 2.433-2.433.019 0 .039.001.059.001.142-.026.286-.039.43-.039 1.321 0 2.409 1.088 2.409 2.409 0 .012-.001.024-.001.036l.309 5.122c.023.133.034.268.034.403 0 1.304-1.072 2.376-2.376 2.376-.042 0-.084-.001-.126-.003zm-8.206-7.712-.617 5.182c-.199 1.282-1.314 2.238-2.611 2.238-1.45 0-2.642-1.193-2.642-2.643 0-.07.003-.141.008-.212l.617-5.182c.053-1.273 1.115-2.291 2.389-2.291.193 0 .385.023.573.069 1.282.004 2.336 1.06 2.336 2.343 0 .166-.018.333-.053.496zm-9.132-2.345-2.961-.925-.741 2.529 2.221.679-.37 1.419-2.283-.679-1.234 4.258-1.666-.494 2.839-9.625 4.627 1.419zm67.438-18.51c-1.049-.679-2.036-1.974-1.542-4.504 0 0-9.749-3.023-15.117-9.07 0 0-10.674.432-15.61-2.962-3.379 3.47-7.349 6.312-11.723 8.392-2.531-2.282-5.849-3.498-9.255-3.394-5.8 0-7.095 2.468-13.574 3.085l1.357 2.406c3.241-.135 6.399-1.067 9.194-2.714 2.794-1.648 9.378-.432 10.921 6.293-.042.723-.209 1.432-.494 2.098.715 1.737.624 3.704-.247 5.368-.065-1.02-.531-1.974-1.295-2.653-.168.22-.354.427-.556.617 0 .246.062.555.062.863-.11.343-.254.674-.432.988.861 1.514.838 3.382-.062 4.874-.236-1.034-.798-1.964-1.604-2.653-.132.194-.3.361-.493.493v.185c-.164.512-.415.992-.741 1.42.635 1.368.635 2.95 0 4.319-.361-.987-.979-1.861-1.789-2.53-.247.123-.494.308-.802.432-.238.632-.67 1.172-1.234 1.542.438 1.306.13 2.751-.802 3.764-.06-1.009-.501-1.958-1.234-2.653-1.041.36-2.116.608-3.209.74l-3.393-1.357s-8.083 2.221-11.785-1.234c-2.668 4.363-6.169 8.158-10.304 11.168-1.234 0-2.283 0-3.147-.062 30.1 17.857 69.353 9.471 89.527-19.127-.682-1.263-.901-2.727-.617-4.134z"/><path d="m74.78 37.205c-4.072 3.455-8.946 2.9-11.846-.432-3.455-4.01-3.085-8.7 1.049-12.216 3.27-2.777 6.17-2.407 6.17-2.407l-.124 4.011c-1.427-.222-2.878.261-3.887 1.295-2.591 2.16-1.604 5.06-.308 6.602.826 1.093 2.119 1.736 3.489 1.736 1.11 0 2.179-.422 2.989-1.18.81-.659 1.446-1.507 1.851-2.468l-1.419-1.605-2.098 1.851-2.344-2.776 4.936-4.196 5.491 6.417c-.889 2.067-2.24 3.903-3.949 5.368zm-9.81 10.304-12.895-9.255 2.221-3.085 12.895 9.193zm-4.196 8.021-11.291-5.183-1.851 4.011-3.146-1.419 5.244-11.538 3.147 1.48-1.851 4.011 11.291 5.121zm24.804-42.573 1.357 3.27-6.54 2.715.926 2.221 6.17-2.591 1.419 3.331-6.17 2.592.987 2.53 6.91-2.9 1.419 3.331-10.489 4.381-6.046-14.684zm12.895-2.468c3.887-.432 6.17 1.049 6.479 4.257.354 2.007-.798 3.997-2.715 4.69l4.627 6.17-4.504.493-3.887-5.8-1.296.124.679 6.17-3.825.432-1.728-15.796zm9.008 6.664 5.8.617-.308 3.023-5.8-.555zm8.391 1.789c1.605-4.628 5.862-6.972 10.86-5.183 2.003.629 3.602 2.16 4.319 4.134l-3.517 1.296c-.356-1.076-1.244-1.894-2.345-2.16-2.468-.864-4.627.679-5.553 3.209-.225.533-.341 1.105-.341 1.684 0 1.8 1.123 3.421 2.809 4.054 1.208.413 2.549.154 3.517-.679l2.221 3.27c-1.933 1.446-4.49 1.774-6.725.864-4.257-1.543-6.849-5.862-5.245-10.489zm27.642 4.504-3.887 16.844-3.455-2.53.864-3.455-4.566-3.393-2.962 1.912-3.393-2.529 14.931-8.7zm6.047 4.936 8.021 9.749-2.653 2.159-2.777-3.393-9.625 7.897-2.406-2.961 9.563-7.898-2.776-3.393zm12.525 17.523c.921 1.609 1.144 3.528.617 5.306l-3.764-1.049c.383-.869.36-1.864-.062-2.715-.37-.74-1.234-1.727-2.159-1.234-.864.432-.741 1.419-.494 3.024.37 2.097.864 4.75-2.159 6.17-2.838 1.419-5.8.123-7.466-3.209-.954-1.805-1.132-3.922-.494-5.861l3.888 1.11c-.531 1.038-.576 2.258-.124 3.332.432.802 1.296 1.789 2.221 1.358.864-.432.741-1.543.556-3.271-.309-2.097-.741-4.751 2.036-6.108 3.27-1.604 6.17.494 7.404 3.147zm-80.272-6.17s10.798-6.972 23.94-5.121c-.25-.645-.56-1.265-.926-1.851 6.294.308 10.921 4.134 13.142 6.355 2.468-.247 6.109 1.295 8.33 2.283 0 0 9.07-2.962 10.427-1.049 1.296 1.789.617 9.193-2.345 12.463l.617.432c1.246.065 2.484.23 3.702.494l-2.714.123c4.442 3.085 10.797 9.07 14.993 19.621 10.55 3.331 13.142 10.118 18.942 16.967 1.412-5.525 2.137-11.203 2.159-16.906-.002-36.928-30.39-67.315-67.319-67.315-36.532 0-66.739 29.738-67.31 66.266 1.974.432 4.072 1.42 4.072 3.764 0 2.9-1.604 4.011-3.764 4.504.185 1.481.432 3.024.679 4.443 4.011-2.777 7.774-5.738 10.489-7.898 7.034-9.563 12.895-24.68 29.925-35.724.185-.802.185-2.036 2.961-1.851zm-24.063 82.061c.769-.329 1.462-.812 2.036-1.419-.372-3.798.178-7.629 1.604-11.168-3.286 1.824-6.423 3.908-9.378 6.232 1.766 2.246 3.683 4.369 5.738 6.355zm69.227 5.985-.493.246 1.172 2.839.679-.247c.864-.37.987-.987.555-1.913-.432-.987-.987-1.296-1.913-.925zm.062-2.962c-.308-.802-.864-1.111-1.542-.864l-.617.247 1.049 2.53.555-.247c.432-.182.715-.607.715-1.076 0-.207-.055-.411-.16-.59z"/><path d="m92.612 48.311c.864 1.042 2.027 1.796 3.331 2.16.626-.409 1.286-.76 1.975-1.049.802-.185 1.172-1.358.185-1.358-.802 0-1.111.679-.987.987l-1.851-.863zm41.03-5.676c-2.731 1.389-5.067 3.448-6.787 5.985 3.394-2.592 4.566-2.468 4.566-2.468.12 1.52.099 3.049-.062 4.565 2.962-3.023 2.283-8.082 2.283-8.082zm-10.18 5.676-2.592-.123-1.851.863c-.041-.538-.51-.951-1.049-.925-.802 0-.617.987.185 1.296.675.277 1.317.629 1.913 1.049 1.349-.301 2.55-1.066 3.394-2.16zm13.697 75.089-2.9-3.332 1.728 4.011zm-38.624-106.433c1.604-.185 2.591-.555 2.468-1.789-.124-1.481-1.604-1.419-2.53-1.296l-2.036.186.37 3.085z"/><path d="m126.793 67.932c.267.97.453 1.96.556 2.961-1.363-.263-2.746-.407-4.134-.432.217 1.905.258 3.826.123 5.738-.285-2.676-1.081-5.273-2.344-7.65 1.102-.173 2.223-.194 3.331-.062-.088-1.154-.316-2.294-.678-3.394.979-.15 1.973-.192 2.961-.123-.074-2.559-.662-5.076-1.727-7.404 4.134 3.27 6.231 10.674 6.231 10.674-1.423-.265-2.872-.368-4.319-.308zm1.728-11.662c1.118-.223 2.254-.347 3.393-.37-.246-.493-.678-1.049-1.048-1.666-2.537.187-5.054.579-7.528 1.173.088 1.756-.411 3.494-1.419 4.936.705.754 1.177 1.698 1.357 2.714.181 1.017-6.108 3.332-3.393 9.626 0 0-2.406-.432-3.085-.432-.042 1.627.02 3.255.185 4.874.247 1.172 1.851 8.638-3.702 10.119-.864.247-1.357-.185-1.789-.247-2.251-.823-4.722-.823-6.972 0-.527.29-1.141.378-1.728.247-5.615-1.481-4.01-9.872-3.764-11.106-1.604-.864-5.923.308-5.923.308.204-2.058.554-4.1 1.049-6.108-3.27.679-5.368 1.234-5.368 1.234.802-3.209 1.173-4.628 1.173-4.628-3.826.988-5.183 2.222-5.183 2.222.977-3.521 2.847-6.731 5.429-9.317-.557-1.611-.329-3.394.617-4.813-1.857-.345-3.731-.592-5.614-.74-.432.617-.802 1.234-1.111 1.666 1.389-.168 2.797-.042 4.134.37s-5.738 4.813-6.355 16.536c1.532-1.039 3.25-1.772 5.059-2.16 1.81-.387-1.11 3.085-.802 4.196 1.896-.758 3.858-1.336 5.862-1.728 2.003-.392-1.358 3.764-.556 5.923 1.827-.615 3.751-.887 5.677-.802 1.925.086-1.419 8.7 2.344 10.057 2.689 1.164 5.585 1.773 8.515 1.79 2.934.022 5.838-.589 8.514-1.79 3.949-1.789 2.345-10.057 2.345-10.057 2.152-.292 4.343-.015 6.355.802.802-2.221-.555-5.923-.555-5.923 1.607.137 3.198.427 4.751.864-.177-.822-.425-1.627-.741-2.406 2.078.001 4.128.487 5.985 1.419.432-6.972-6.108-16.783-6.108-16.783zm-14.623-9.378-2.159-1.111 5.614-1.419zm5.8-3.208c-2.53-1.049-10.242 1.234-10.242 3.27l4.38.925 6.294-2.715 4.997 3.209c-.74-2.283-4.38-4.258-5.429-4.689zm-17.523 3.208-3.455-2.53 5.676 1.419zm-5.8-3.208c-1.049.431-4.627 2.344-5.429 4.689l5.059-3.209 6.232 2.715 4.38-.925c0-2.036-7.774-4.258-10.242-3.27z"/><path d="m139.01 91.254c1.244.202 2.503.306 3.764.309.33-1.365.94-2.646 1.789-3.764-1.962-.004-3.92-.148-5.862-.432-.072 1.304.032 2.611.309 3.887zm-3.825-4.627c-1.292-.273-2.525-.775-3.641-1.481-.464.893-.979 1.758-1.542 2.591 1.488.978 3.082 1.786 4.751 2.407-.005-1.186.14-2.368.432-3.517zm48.496 17.523c.37 1.172-.494 1.665-3.085 1.665-5.306 0-13.389-3.393-16.412-6.602-4.785-1.646-9.297-3.996-13.389-6.972-.286.594-.513 1.214-.679 1.851-.062-.863-.062-1.665-.062-2.406-1.366-1.048-2.608-2.249-3.702-3.578-.428 1.671-.533 3.41-.308 5.121 2.9 2.591 9.008 7.28 15.24 8.267 0 0-1.543 3.517 4.319 5.739.544 1.212 1.206 2.37 1.974 3.455 1.483 1.112 3.419 1.435 5.183.863 1.226-1.49 1.118-3.694-.247-5.059-1.365-1.364 3.085 1.543 1.913 5.491 0 0 .987 1.851 3.949.926 0 0 1.357-3.332-.124-5.553 1.736 1.402 2.384 3.771 1.604 5.861.958.564 2.13.633 3.147.185 1.017-.447 1.851-2.961.309-5.121 1.075.908 1.612 2.308 1.419 3.702 2.344-1.974 2.529-5.182-1.049-7.835zm-172.081 32.022c-.443.483-.917.937-1.42 1.357-.194 1.424.135 2.872.926 4.072.35-.372.68-.764.987-1.172.215 1.184-.051 2.407-.74 3.394.588 1.089 1.671 1.826 2.9 1.974 1.026-.912 1.882-1.998 2.529-3.208-.064 1.103-.314 2.188-.74 3.208.977.812 2.266 1.151 3.517.925.861-.787 1.5-1.787 1.851-2.899.214.656.298 1.347.247 2.036.919-.165 1.786-.546 2.529-1.111.404-1.116.674-2.276.802-3.455-5.052.823-10.175-1.136-13.388-5.121zm27.641-18.634h.001c.034 0 .061.028.061.061v.001c3.122-4.246 6.678-8.154 10.612-11.661-.711-.792-1.332-1.662-1.851-2.592-3.726 4.195-6.71 8.994-8.823 14.191zm11.168-16.782c.744.935 1.57 1.802 2.468 2.591 2.901-2.456 5.974-4.703 9.193-6.725-.491-1.448-1.221-2.804-2.159-4.01-3.348 2.496-6.523 5.217-9.502 8.144zm59.972 5.245c-1.445-2.597-4.25-4.156-7.219-4.011-.493 8.761-12.648 12.957-12.648 12.957s-5.677.617-7.096-3.517c.309 3.394 2.345 7.713 11.6 6.479 1.032.524 1.988 1.188 2.838 1.974 1.812-.035 3.469-1.053 4.319-2.653-.672-1.442-1.743-2.662-3.085-3.517 1.975.341 3.767 1.368 5.06 2.9.647-.666 1.096-1.499 1.295-2.406.2-.907.556-2.036-3.023-4.443 1.737.377 3.325 1.257 4.566 2.53.602-.652 1.121-1.378 1.542-2.16-.468-1.851-1.672-3.434-3.332-4.38 1.591.464 3.063 1.264 4.319 2.344.503-.59.805-1.325.864-2.097zm-6.787-46.214s-1.296 1.173.309 2.715l1.419-.617.925.494.926-.494.864.494.925-.494.926.494.863-.494 1.419.617c1.605-1.604.309-2.715.309-2.715l-1.851.987h-5.121zm4.443-8.144 4.812-1.358h-9.687zm-2.9 32.392c1.861.741 3.938.741 5.799 0l1.975.556c1.821-1.561 2.57-4.049 1.913-6.355-.738 1.949-2.078 3.614-3.826 4.75l-1.049-.74-1.049.74-.802-.74-.802.74-1.049-.74-1.11.74c-1.731-1.155-3.066-2.813-3.826-4.75-.654 2.318.122 4.815 1.975 6.355zm-3.641-15.116c-2.344-3.949.185-8.762.185-8.762-1.293-.138-2.593.214-3.64.988-.247 6.231 3.455 7.774 3.455 7.774zm16.474-7.774c-1.021-.778-2.303-1.132-3.578-.988-1.275.145 2.468 4.813.185 8.762-.062 0 3.64-1.543 3.393-7.774zm-20.546-1.728 8.391-1.542 1.173-2.654c-1.358-1.851-6.972-4.133-6.972-4.133-.87.306-1.716.677-2.53 1.11 1.645.479 3.254 1.077 4.813 1.789l-6.109-.617h-.185c-.34.372-.593.815-.74 1.296 4.751.987 8.206 2.098 8.206 2.098l-7.898.185c.499.905 1.122 1.736 1.851 2.468zm22.706-6.17c-.085.077-.194.121-.309.123l-6.108.617c1.621-.716 3.291-1.314 4.998-1.789-.792-.435-1.617-.806-2.468-1.111-.851-.304-5.677 2.283-6.972 4.134l1.11 2.653 8.391 1.543c.748-.716 1.374-1.55 1.851-2.468l-8.144-.185c2.758-.863 5.559-1.584 8.391-2.16-.121-.51-.377-.979-.74-1.357z"/></g><path d="m103.409 39.982c-.33-.413-.726-.767-1.172-1.049-.446-.283 4.874-.062 7.527 1.789.987-.247 2.283-.555 3.579-.864-1.208-1.155-2.635-2.057-4.196-2.653l.37 1.357c-7.465-3.393-17.214-.925-23.199 1.913 1.851.432 3.394.926 3.394.926 4.812-2.345 7.774-3.024 13.697-1.419zm-83.912 54.727c-1.163 1.668-2.827 2.921-4.751 3.579 1.771 1.269 3.939 1.86 6.109 1.666.678-1.049 1.604-2.653 1.357-3.64.934.804 1.474 1.975 1.481 3.208 1.2-.247 2.377-.598 3.517-1.049.281-1.611-.224-3.263-1.358-4.442-2.027.757-4.213.991-6.355.678zm-2.344-1.357c-.607-.813-.873-1.832-.741-2.838-2.04.092-3.987-.893-5.121-2.592-.569 2.277-.396 4.677.494 6.849 1.91.362 3.885-.16 5.368-1.419zm.37-6.293s1.419-3.024 5.861-5.553c-1.183-1.376-1.703-3.206-1.419-4.998-1.288.561-2.509 1.264-3.64 2.098-.106 1.367.289 2.727 1.11 3.825.822 1.098-1.727.494-3.393-2.036-.991.927-1.899 1.939-2.715 3.023.727 1.819 2.292 3.178 4.196 3.641zm14.993-8.083c-.306-1.66.073-3.374 1.049-4.751-.996.079-1.985.224-2.962.432.306-.409.636-.801.987-1.172-1.664.304-3.312.695-4.936 1.172-.488 1.745-.423 3.599.185 5.306 1.855-.518 3.756-.849 5.677-.987zm-3.702 13.944c.921.997 1.467 2.285 1.542 3.64.556-.432 1.234-.802 1.913-1.234-.049-1.267-.632-2.456-1.604-3.27-.617.309-1.234.617-1.851.864zm12.031-5.43c-.057-.457-.25-.887-.555-1.234-1.913 1.358-3.64 2.468-5.183 3.394.739.647 1.203 1.552 1.296 2.53 1.234-1.173 2.715-2.777 4.442-4.689zm78.853-43.807c1.049.432 4.627 2.345 5.368 4.69l-1.604-.062c-.882 1.082-2.097 1.841-3.456 2.159.432.309.864.679 1.296 1.049 2.334-.485 4.711-.733 7.096-.74-.864-1.234-1.543-2.098-1.543-2.098 1.72-2.536 4.056-4.595 6.787-5.985-3.085.309-8.576 3.27-8.576 3.27-1.488-1.463-3.222-2.653-5.121-3.516-4.504-1.42-11.908 1.604-11.908 1.604s-7.404-3.024-11.97-1.604c-2.171 1.092-4.151 2.53-5.862 4.257l-.308-1.666c-1.95-.997-4.059-1.644-6.232-1.913 2.207 1.463 4.078 3.376 5.491 5.615s-.678.864-1.542 2.036c2.261.012 4.515.261 6.725.741.511-.385 1.047-.736 1.604-1.049-1.325-.317-2.501-1.08-3.331-2.16l-1.666.123c.802-2.282 4.38-4.319 5.429-4.75 2.468-.988 10.181 1.234 10.181 3.331l-2.407 1.728h7.775l-2.468-1.728c0-2.097 7.712-4.319 10.242-3.331zm2.53 8.885c.363.481.635 1.025.802 1.604 2.367-.437 4.756-.746 7.157-.925-.494-.679-.987-1.357-1.419-2.036-2.202.341-4.385.794-6.54 1.357zm-29.123-.185c-1.929-.503-3.886-.895-5.861-1.172-.432.679-.926 1.357-1.419 2.036 1.912.123 3.887.37 5.738.679.493-.556 1.049-1.049 1.542-1.543z" fill="#ffb819"/><path d="m173.13 100.139c.888-.333 1.829-.5 2.777-.494-6.602-4.133-8.021-7.712-10.736-10.859-3.764.124-7.589 3.826-7.589 3.826.577-2.937 2.669-5.358 5.491-6.355-.693-.807-1.434-1.569-2.221-2.283-5.923.246-8.947 5.368-10.119 8.267 4.124 2.961 8.654 5.309 13.451 6.972 3.023 3.209 11.044 6.602 16.35 6.602 2.591 0 3.455-.493 3.147-1.666-2.098-1.604-5.492-3.023-10.551-4.01zm-16.597-19.621c-1.527-1.106-3.185-2.018-4.936-2.714-4.381 1.234-7.219 5.984-7.219 5.984.432-4.874 2.591-7.157 4.134-8.206-1.253-3.056-2.825-5.972-4.689-8.699-.309 6.54-2.654 7.836-2.654 7.836 1.049-5.43-.678-10.674-1.665-13.081-1.175-1.202-2.455-2.296-3.826-3.27-.859-.114-1.728-.134-2.591-.062 3.844 6.067 5.679 13.193 5.244 20.361-2.027-1.418-4.198-2.618-6.478-3.578-2.28-.961.74 2.406.925 3.578-1.069-.667-2.234-1.167-3.455-1.48.468 2.027.489 4.133.062 6.17-1.654-.62-3.372-1.055-5.121-1.296-.432 4.196-3.085 8.083-5.738 10.859 6.663-5.553 7.897-8.329 7.897-8.329.082 1.189-.064 2.383-.432 3.517 2.64-2.116 5.058-4.494 7.219-7.096-.422 1.379-.959 2.721-1.604 4.011 1.095.756 2.334 1.281 3.64 1.542.864-3.455 3.024-6.787 7.096-7.712-2.188 2.258-3.464 5.249-3.579 8.391 1.941.286 3.9.431 5.862.432.774-1.01 1.765-1.832 2.9-2.407-.53.839-.926 1.755-1.173 2.715 1.069 1.371 2.314 2.595 3.702 3.64.149-4.552 2.589-8.735 6.479-11.106zm-63.119 23.94c-1.471.386-2.867 1.011-4.134 1.851.362-.779.796-1.522 1.296-2.221-1.208-3.179-2.673-6.253-4.381-9.193-5.121-.617-9.255 4.627-9.255 4.627.747-3.829 3.631-6.905 7.404-7.898-1.111-1.974-1.913-3.331-1.913-3.331.389-.955.679-1.948.864-2.962-6.602-3.517-14.376 3.085-14.376 3.085 3.393-7.527 11.168-7.836 14.623-7.589-.124-2.098-.617-5.059-.617-5.059-1.874.826-3.67 1.817-5.368 2.961-.119-4.801.698-9.579 2.406-14.067-3.455-1.049-7.959.308-7.959.308 4.319-2.468 7.342-3.147 9.193-3.27.576-1.229 1.258-2.405 2.036-3.517-1.586-.043-3.173.019-4.751.185.81-1.67 1.895-3.193 3.209-4.504-2.468-.123-4.319-.185-4.319-.185 1.518-.351 3.069-.538 4.627-.555-1.851-1.79-2.961-5.245-3.208-8.206-.987.74-2.036 1.542-3.085 2.344 1.974 2.592 1.357 4.257 1.357 4.257-.625-1.301-1.805-2.253-3.208-2.591-.741.617-1.481 1.296-2.221 1.974 5.121 3.332 2.653 8.762 2.653 8.762-.49-2.878-2.743-5.155-5.615-5.677-2.994 3.21-5.777 6.61-8.329 10.181-1.382 4.093-2.252 8.342-2.592 12.648-.907-2.139-1.247-4.477-.987-6.787-.864 1.42-1.851 3.024-2.962 4.69-.01 3.25.663 6.466 1.975 9.44-2.196-1.158-3.824-3.166-4.504-5.553-.741 1.172-1.543 2.283-2.407 3.517 1.543 8.329 5.368 12.895 5.368 12.895-3.709-2.053-6.573-5.355-8.082-9.317-2.049 2.618-4.297 5.073-6.726 7.342.679 5.06 5.862 8.515 4.443 12.587-.802-3.948-6.17-5.368-8.021-9.687-.494.432-3.517 2.222-5.121 3.579 2.768 1.225 4.479 4.076 4.257 7.095-.222 3.02-2.468-4.442-7.281-3.948-1.697 2.35-2.385 5.284-1.912 8.144s-3.826 1.543-4.751 1.049c-.824 1.531-1.486 3.144-1.975 4.813.633 2.367 1.793 4.561 3.394 6.416-1.736-.35-3.267-1.37-4.258-2.838-.123.555-.246 1.172-.37 1.851 1.29 2.003 3.075 3.64 5.183 4.751-3.147.864-4.998-.062-5.985-1.111-1.01 3.819-2.866 7.362-5.429 10.366 3.212 3.949 8.296 5.903 13.327 5.121.247-1.789.308-3.578.617-4.998-5.553-.308-6.417-5.799-6.417-5.799 3.023 2.9 5.676 2.9 7.034 2.714.497-2.453 1.177-4.867 2.036-7.218-1.564-1.717-2.5-3.915-2.653-6.232 1.849 3.168 4.936 5.427 8.514 6.232.247-.371.432-.803.679-1.234-2.378-1.51-4.014-3.952-4.504-6.726 1.461 2.013 3.476 3.557 5.8 4.443.247-.371.493-.802.74-1.173-4.874-5.059-2.591-11.352-7.897-14.006 6.972.803 6.972 8.083 10.365 10.243 2.113-5.198 5.097-9.997 8.823-14.191-1.555-3.019-2.137-6.447-1.666-9.811.863 2.628 2.202 5.075 3.949 7.219 2.979-2.926 6.154-5.647 9.502-8.144-1.481-1.789-2.777-1.666-2.777-1.666.24-7.417 2.295-14.663 5.985-21.101-.625.13-1.243.295-1.851.493 1.564-4.841 4.69-9.03 8.885-11.908-2.362 2.387-4.155 5.276-5.244 8.453 1.127-.426 2.281-.777 3.455-1.049-2.179 3.041-3.846 6.417-4.936 9.995 2.098-1.542 8.453-5.738 12.772-3.64 0 0-8.7 1.481-14.747 11.353-.246 1.357-.493 2.468-.555 3.393 1.296-2.159 5.553-7.959 11.476-7.157 0 0-6.972 1.111-9.502 10.613 2.098 2.406 2.098 5.306 4.073 7.712.493-1.296 3.085-6.54 9.07-6.355-3.609 2.021-5.837 5.86-5.8 9.995 1.525 2.142 3.453 3.965 5.676 5.368.794-2.531 2.941-4.415 5.553-4.874 2.613-.459-2.838 2.16-2.406 6.91 1.789 1.049 3.208 1.728 3.64 1.975.309-1.111.741-2.283 1.234-3.579-.313 1.271-.438 2.581-.37 3.887 1.419 4.073 7.095 3.517 7.095 3.517s12.155-4.195 12.649-12.957c-.062.062-3.64 2.838-9.81 2.53z" fill="#ffb819"/><path d="m111.862 64.723c-3.455-1.295-3.825 4.443-3.825 6.109-.062-1.666-.371-7.404-3.887-6.109 0 0 2.221 4.443.493 7.404-1.727 2.838-.247 7.219.802 7.589.845.223 1.72.306 2.592.247.851.056 1.705-.027 2.529-.247 1.049-.37 2.53-4.751.864-7.589-1.789-2.961.432-7.404.432-7.404z" fill="#a93439"/><path d="m10.18 137.529c.503-.42.977-.874 1.42-1.357 2.563-3.005 4.419-6.547 5.429-10.366 1.049 1.049 2.838 1.975 5.985 1.111-2.124-1.088-3.915-2.73-5.183-4.751l.37-1.851c.955 1.504 2.502 2.536 4.258 2.838-1.601-1.856-2.761-4.049-3.394-6.417.489-1.668 1.151-3.281 1.975-4.812.925.555 4.751-.988 4.751-.988-.465-2.879.223-5.828 1.912-8.206 4.813-.432 7.281 4.011 7.281 4.011.213-3.034-1.49-5.897-4.257-7.157 1.604-1.419 4.627-3.147 5.121-3.579 1.851 4.319 7.219 5.8 8.021 9.687 1.419-4.134-3.764-7.527-4.443-12.587 2.429-2.269 4.677-4.724 6.726-7.342 1.492 3.972 4.361 7.279 8.082 9.317 3.722 2.037-3.825-4.566-5.368-12.896.864-1.172 1.666-2.344 2.407-3.517.663 2.396 2.296 4.41 4.504 5.553-1.307-2.953-1.98-6.148-1.975-9.378 1.111-1.728 2.098-3.332 2.962-4.751-.264 2.31.076 4.649.987 6.787.34-4.307 1.21-8.555 2.592-12.648 2.568-3.559 5.35-6.959 8.329-10.181 2.859.548 5.098 2.812 5.615 5.677.516 2.864 2.529-5.43-2.653-8.762.74-.679 1.48-1.357 2.221-1.974 1.403.338 2.583 1.29 3.208 2.591.626 1.301.617-1.604-1.357-4.195 1.049-.864 2.098-1.666 3.085-2.345.247 2.9 1.357 6.355 3.208 8.144-1.556.049-3.104.234-4.627.556-1.523.321 1.789.061 4.319.246-1.343 1.287-2.431 2.815-3.209 4.505 1.576-.2 3.164-.282 4.751-.247-.761 1.123-1.441 2.298-2.036 3.517-1.851.123-4.874.863-9.193 3.331 0 0 4.504-1.419 7.959-.37-1.708 4.489-2.525 9.267-2.406 14.068 1.701-1.121 3.498-2.091 5.368-2.9.308 1.652.514 3.321.617 4.998-3.456-.186-11.291.123-14.623 7.589 0 0 7.774-6.54 14.376-3.085-.194 1.032-.483 2.044-.864 3.023s.802 1.357 1.913 3.27c-3.762 1.011-6.638 4.079-7.404 7.898-.767 3.819 4.134-5.183 9.255-4.628 1.708 2.94 3.173 6.015 4.38 9.193-.499.699-.933 1.443-1.295 2.222 1.264-.831 2.663-1.437 4.134-1.79 3.427.214 6.836-.649 9.748-2.468 2.963-.119 5.756 1.432 7.219 4.011-.099.763-.397 1.486-.864 2.098-1.237-1.108-2.716-1.911-4.319-2.345 1.66.946 2.864 2.529 3.332 4.381-.437.772-.954 1.496-1.542 2.159-1.22-1.299-2.817-2.184-4.566-2.529 3.578 2.406 3.023 4.442 3.023 4.442-.199.907-.648 1.741-1.296 2.406-1.314-1.504-3.096-2.526-5.059-2.9 1.347.822 2.42 2.025 3.085 3.456-.829 1.628-2.492 2.673-4.319 2.714-.861-.772-1.815-1.435-2.838-1.974-9.255 1.234-11.353-3.085-11.6-6.479-.066-1.31.08-2.623.432-3.887-.511 1.163-.944 2.359-1.296 3.579-1.248-.591-2.463-1.25-3.64-1.974-.368-2.568.557-5.158 2.468-6.911-2.623.437-4.78 2.33-5.553 4.875-2.223-1.404-4.151-3.227-5.676-5.368-.086-4.116 2.13-7.953 5.738-9.934-6.047-.247-8.515 4.936-9.07 6.293-1.913-2.406-1.913-5.306-4.072-7.712 2.529-9.502 9.563-10.613 9.563-10.613-5.985-.863-10.18 4.998-11.538 7.158.124-.864.309-2.036.556-3.394 6.046-9.872 14.808-11.353 14.808-11.353-4.319-2.097-10.736 2.16-12.834 3.641 1.117-3.549 2.782-6.901 4.936-9.934-1.172.253-2.326.583-3.455.987 1.103-3.166 2.919-6.037 5.306-8.391-4.202 2.844-7.331 7.016-8.885 11.846.586-.2 1.184-.365 1.79-.493-3.66 6.451-5.713 13.689-5.985 21.101 1.128.109 2.149.722 2.776 1.666.998 1.167 1.734 2.535 2.16 4.011-3.185 2.02-6.236 4.246-9.132 6.663-.919-.764-1.765-1.611-2.53-2.53-1.747-2.144-3.085-4.591-3.948-7.218-.474 3.363.109 6.791 1.666 9.81.518.915 1.116 1.782 1.789 2.591-3.865 3.558-7.397 7.461-10.551 11.661 0-.061-.062-.061-.123-.123-3.332-2.159-3.394-9.44-10.304-10.18 5.244 2.591 3.023 8.946 7.897 14.006l-.74 1.11c-2.32-.86-4.337-2.384-5.8-4.381.459 2.786 2.103 5.241 4.504 6.726-.246.432-.432.802-.678 1.234-3.583-.868-6.674-3.136-8.577-6.294.182 2.341 1.138 4.555 2.715 6.294-.869 2.332-1.57 4.724-2.098 7.157-1.295.308-3.948.247-6.972-2.715 0 0 .864 5.491 6.417 5.8-.308 1.481-.37 3.27-.617 4.998-.115 1.196-.364 2.375-.74 3.516-.782.525-1.665.882-2.592 1.049.043-.663-.02-1.33-.185-1.974-.391 1.091-1.048 2.066-1.913 2.838-1.251.259-2.554-.084-3.516-.925.426-.999.676-2.063.74-3.147-.624 1.225-1.484 2.316-2.53 3.208-1.217-.178-2.287-.907-2.9-1.974.696-1.007.962-2.251.741-3.455-.308.408-.637.8-.987 1.172-.716-1.252-.998-2.705-.803-4.134zm13.451-38.007c.023-1.239-.523-2.422-1.481-3.208.309.987-.617 2.591-1.357 3.64-2.15.187-4.296-.404-6.047-1.666 1.931-.613 3.589-1.878 4.689-3.579 2.162.315 4.369.081 6.417-.678 1.148 1.169 1.635 2.839 1.296 4.442-1.14.451-2.316.802-3.517 1.049zm-11.846-4.751c-.887-2.194-1.059-4.613-.494-6.91 1.134 1.699 3.081 2.684 5.121 2.591-.14 1.007.127 2.028.741 2.838-1.462 1.299-3.448 1.847-5.368 1.481zm4.319-14.376c1.666 2.468 3.393 2.036 3.393 2.036-.846-1.088-1.264-2.45-1.172-3.825 1.167-.811 2.406-1.513 3.702-2.098-.345 1.795.183 3.651 1.419 4.998-4.504 2.529-5.923 5.553-5.923 5.553-1.881-.441-3.428-1.781-4.134-3.579.761-1.146 1.674-2.184 2.715-3.085zm10.55-5.676c1.637-.506 3.307-.898 4.998-1.173-.367.358-.697.75-.987 1.173-.29.422 1.357-.309 2.961-.494-1.004 1.364-1.385 3.091-1.048 4.751-1.933.119-3.842.492-5.677 1.111-.654-1.717-.741-3.599-.247-5.368zm13.574 11.538c.352.313.554.762.556 1.234-1.393 1.644-2.876 3.21-4.443 4.689-.106-.974-.567-1.875-1.295-2.53 1.788-1.035 3.518-2.168 5.182-3.393zm-7.959 9.069c-.679.432-1.296.802-1.913 1.234-.104-1.348-.646-2.627-1.542-3.64.555-.308 1.234-.555 1.851-.925.961.849 1.54 2.051 1.604 3.331zm-10.427-2.406c-1.851 0-2.962-.617-2.962-2.283 0-5.121 7.898-9.563 14.5-9.563h1.11c.247 2.098.556 4.134.926 6.17-4.936 3.146-9.872 5.676-13.574 5.676zm82.863-86.688c36.919.023 67.291 30.396 67.314 67.314.013 5.705-.713 11.388-2.159 16.906-5.738-6.849-8.33-13.636-18.88-16.967-4.258-10.551-10.613-16.536-15.055-19.621l2.715-.123c-1.218-.272-2.456-.437-3.702-.494l-.617-.432c2.961-3.208 3.64-10.674 2.406-12.463-1.357-1.913-10.489 1.049-10.489 1.049-2.221-.988-5.861-2.468-8.329-2.283-2.222-2.221-6.849-6.047-13.081-6.355.331.596.62 1.214.864 1.851-13.08-1.851-23.878 5.121-23.878 5.121-2.838-.185-2.838 1.049-3.023 1.789-17.029 11.106-22.891 26.161-29.925 35.786-2.776 2.098-6.478 5.059-10.489 7.898-.308-1.481-.493-2.962-.678-4.505 2.159-.431 3.763-1.604 3.763-4.504 0-2.344-2.159-3.331-4.072-3.702.584-36.524 30.785-66.256 67.315-66.265zm71.202 93.413c-.948-.006-1.889.161-2.777.494 5.059.987 8.453 2.406 10.551 4.011 3.578 2.653 3.393 5.861.925 7.897.213-1.396-.327-2.806-1.419-3.702 1.543 2.16-.308 5.121-.308 5.121-1.003.409-2.139.341-3.085-.185.782-2.121.107-4.521-1.666-5.923 1.542 2.221.123 5.553.123 5.553-2.9.987-3.887-.926-3.887-.926 1.234-3.948-1.913-5.429-1.913-5.429 1.361 1.341 1.469 3.528.247 4.997-1.775.584-3.725.286-5.244-.802-.729-1.12-1.368-2.296-1.913-3.516-5.862-2.16-4.381-5.739-4.381-5.739-6.17-.925-12.216-5.614-15.178-8.206-.223-1.731-.119-3.49.309-5.182.224-.958.599-1.874 1.11-2.715-1.135.574-2.126 1.397-2.9 2.406-.852 1.108-1.442 2.395-1.727 3.764-1.281-.006-2.56-.109-3.826-.309-.279-1.296-.383-2.624-.308-3.949.105-3.126 1.383-6.101 3.578-8.329-4.072.925-6.231 4.196-7.095 7.651-.281 1.153-.446 2.331-.494 3.517-1.661-.594-3.238-1.403-4.689-2.407.555-.863 1.049-1.727 1.543-2.591.631-1.289 1.147-2.631 1.542-4.011-2.16 2.564-4.556 4.919-7.157 7.034.369-1.112.495-2.29.37-3.455s-1.234 2.715-7.836 8.33c2.653-2.839 5.245-6.726 5.677-10.921 1.744.267 3.459.701 5.121 1.295.467-2.009.467-4.099 0-6.108 1.206.269 2.355.75 3.393 1.419-.185-1.172-.925-3.578-.925-3.578 2.295.968 4.487 2.167 6.54 3.578.41-7.174-1.446-14.299-5.306-20.361.884-.073 1.773-.052 2.653.062 1.358.989 2.637 2.082 3.825 3.27.926 2.406 2.653 7.712 1.666 13.142 0 0 2.345-1.357 2.653-7.898 1.826 2.74 3.377 5.654 4.628 8.7-1.543 1.049-3.702 3.332-4.134 8.206 0 0 2.9-4.689 7.219-5.923 1.751.712 3.426 1.601 4.997 2.653-3.905 2.394-6.362 6.591-6.54 11.168 0 .802 0 1.542.062 2.406.166-.637.393-1.257.679-1.851 1.172-2.838 4.195-8.021 10.118-8.206l2.222 2.221c-2.838 1.01-4.933 3.458-5.492 6.417s3.764-3.702 7.528-3.887c2.9 3.147 4.319 6.664 10.921 10.797zm-82.802-47.262c-.559.467-1.075.983-1.542 1.543-1.851-.309-3.826-.556-5.738-.679.493-.679.987-1.357 1.419-2.036 1.666.247 3.825.679 5.861 1.172zm21.41 16.536c2.345-3.949-.185-8.762-.185-8.762 1.294-.138 2.594.214 3.64.988.247 6.231-3.455 7.774-3.455 7.774zm-13.265 9.317c.759 1.937 2.094 3.595 3.825 4.75l1.111-.74.987.74.864-.74.802.74 1.049-.74 1.048.74c1.731-1.155 3.067-2.813 3.826-4.75.657 2.306-.092 4.794-1.913 6.355l-1.974-.556c-1.862.74-3.938.74-5.8 0l-1.974.556c-1.789-1.581-2.511-4.061-1.851-6.355zm-3.209-17.091c1.047-.774 2.347-1.126 3.64-.988 1.294.139-2.529 4.813-.185 8.762 0 0-3.702-1.543-3.455-7.774zm5.121-10.86h9.687l-4.812 1.358zm8.947 12.217-1.419-.617-.864.494-.926-.494-.863.494-.926-.494-.925.494-.864-.494-1.419.617c-1.666-1.604-.309-2.715-.309-2.715l1.851.987h5.121l1.851-.987s1.358 1.111-.308 2.715zm-7.898 2.221c3.455-1.296 3.826 4.443 3.826 6.109.061-1.666.37-7.404 3.887-6.109 0 0-2.283 4.443-.494 7.404 1.728 2.838.247 7.219-.802 7.589-.845.218-1.72.302-2.591.247-.872.051-1.746-.033-2.592-.247-1.049-.37-2.468-4.751-.802-7.589 1.789-2.961-.432-7.404-.432-7.404zm-8.946-10.119c.169-.485.443-.927.802-1.295.033.033.076.055.123.061l6.17.556c-1.572-.66-3.179-1.237-4.812-1.728.791-.454 1.616-.846 2.468-1.172.851-.327 5.676 2.344 6.972 4.134l-1.111 2.715-8.391 1.542c-.751-.736-1.377-1.591-1.851-2.53l7.959-.185c-.061.062-3.578-1.11-8.329-2.098zm25.358 2.345c-.477.918-1.103 1.752-1.851 2.468l-8.391-1.542-1.11-2.654c1.295-1.851 6.972-4.133 6.972-4.133.851.304 1.676.675 2.468 1.11-1.707.475-3.377 1.073-4.998 1.789l6.108-.617c.115-.002.224-.046.309-.123.36.391.633.854.802 1.357-2.832.576-5.633 1.297-8.391 2.16zm9.564-3.702c-2.401.179-4.79.488-7.157.926-.167-.58-.439-1.124-.802-1.605 2.155-.563 4.338-1.016 6.54-1.357.432.679.925 1.357 1.419 2.036zm-40.29-8.329.308 1.727c1.718-1.735 3.696-3.192 5.862-4.319 4.566-1.419 11.97 1.666 11.97 1.666s7.404-3.085 11.908-1.666c1.899.864 3.633 2.054 5.121 3.517s5.429-2.962 8.576-3.208c0 0 .679 5.059-2.283 8.082.161-1.516.182-3.045.062-4.565-.12-1.521-1.172-.124-4.566 2.468 0 0 .679.925 1.543 2.097-2.388.002-4.768.271-7.096.802-.401-.386-.834-.737-1.296-1.048-.61-.416-1.249-.787-1.912-1.111-.802-.308-.988-1.296-.124-1.296.53.004.98.401 1.049.926l1.789-.864 2.654.123 1.604.062-4.998-3.208-6.293 2.715-4.319-.864 2.406 1.727h-7.712l2.406-1.727-4.319.864-6.294-2.715-4.997 3.208 1.604-.062 2.653-.123 1.851.864c0-.011-.001-.022-.001-.033 0-.524.431-.955.955-.955.011 0 .022 0 .033.001.987 0 .617 1.234-.185 1.357-.555.308-1.234.679-1.974 1.049-.494.308-1.049.617-1.543.987-2.233-.458-4.507-.685-6.787-.679.864-1.172 1.543-2.097 1.543-2.097-1.391-2.22-3.243-4.114-5.43-5.553 2.164.275 4.268.901 6.232 1.851zm19.25-7.713c1.575.569 3.006 1.475 4.196 2.653-1.358.309-2.592.617-3.579.864-2.653-1.851-7.527-1.789-7.527-1.789.446.282.842.636 1.172 1.049-5.923-1.605-8.885-.926-13.697 1.419 0 0-1.543-.494-3.394-.926 5.985-2.9 15.795-5.306 23.199-1.913zm-23.014 37.637c-.308-1.111.864-4.196.864-4.196-1.841.349-3.587 1.085-5.121 2.16.617-11.723 6.417-16.597 6.417-16.597-1.345-.372-2.749-.477-4.134-.309.308-.6.659-1.177 1.049-1.727 1.885.163 3.759.431 5.614.802-.912 1.408-1.139 3.156-.617 4.751-2.543 2.629-4.388 5.853-5.368 9.378-.979 3.525 1.358-1.234 5.183-2.221 0 0-.37 1.419-1.172 4.627 0 0 2.098-.555 5.306-1.234-.491 2.007-.821 4.049-.987 6.109-.166 2.059 4.257-1.173 5.923-.309-.247 1.234-1.851 9.625 3.702 11.106.614.077 1.237-.03 1.789-.308 1.122-.35 2.283-.558 3.456-.617 1.173.059 2.334.267 3.455.617.542.307 1.175.416 1.789.308 5.615-1.481 4.011-8.946 3.764-10.18-.166-1.599-.228-3.206-.185-4.813.678 0 3.085.432 3.085.432-2.777-6.294 3.393-9.625 3.393-9.625-.209-1.008-.677-1.943-1.357-2.715.958-1.462 1.433-3.189 1.357-4.936 2.47-.614 4.989-1.006 7.528-1.172.431.617.802 1.172 1.11 1.665-1.14.023-2.275.147-3.393.371-1.118.223 6.478 9.81 6.17 16.72-1.862-.92-3.909-1.405-5.985-1.419.316.779.563 1.585.74 2.407-1.561-.4-3.149-.689-4.751-.864-1.602-.176 1.358 3.763.556 5.923-2.033-.821-4.245-1.098-6.417-.802s1.666 8.268-2.283 10.057c-2.677 1.201-5.581 1.811-8.515 1.789-2.933.014-5.835-.596-8.514-1.789-3.764-1.357-2.345-10.057-2.345-10.057-1.926-.092-3.852.18-5.676.802-.802-2.16.555-5.923.555-5.923-2.033.46-4.033 1.058-5.985 1.789zm18.572 66.019c-12.138.026-24.058-3.237-34.49-9.44.863.062 1.912.062 3.146.062 4.118-3.023 7.634-6.79 10.366-11.106 3.702 3.455 11.785 1.234 11.785 1.234l3.393 1.357c1.111-.14 2.207-.388 3.27-.74.702.711 1.119 1.655 1.172 2.653.921-1.019 1.248-2.446.864-3.764.559-.376.99-.914 1.234-1.543.247-.123.494-.308.741-.431.832.648 1.454 1.528 1.789 2.529.672-1.338.672-2.919 0-4.257.313-.435.562-.913.74-1.419v-.247c.185-.123.309-.308.556-.493.764.713 1.301 1.636 1.542 2.653.905-1.468.929-3.322.062-4.813.173-.337.317-.688.432-1.049.012-.289-.009-.579-.062-.864.185-.185.37-.432.555-.617.793.657 1.265 1.624 1.296 2.653.871-1.664.961-3.631.247-5.368.285-.665.452-1.375.493-2.097-1.48-6.726-10.92-6.294-10.92-6.294-2.779 1.684-5.947 2.619-9.194 2.715l-1.357-2.406c6.478-.617 7.774-3.085 13.574-3.085 3.409-.123 6.733 1.096 9.255 3.393 4.368-2.09 8.336-4.93 11.723-8.391 4.936 3.394 15.61 2.962 15.61 2.962 5.368 6.046 15.178 9.07 15.178 9.07-.555 2.529.37 3.825 1.481 4.565-.293 1.394-.05 2.849.679 4.073-12.674 17.86-33.26 28.499-55.16 28.505zm-44.856-20.484c-.607.597-1.318 1.078-2.098 1.419-2.036-1.963-3.933-4.066-5.676-6.294 2.954-2.343 6.09-4.448 9.378-6.293-1.461 3.529-2.012 7.37-1.604 11.168zm-51.211 21.841.802 1.111-.555.555c.21.799.566 1.552 1.049 2.221-.364.871-.887 1.666-1.543 2.345 1.193.114 2.394-.122 3.455-.679.802.35 1.658.558 2.53.617l.309-.432 1.11.617c-.223.799-.624 1.537-1.172 2.16 1.264-.024 2.467-.558 3.332-1.481.867.094 1.743-.055 2.529-.432-.045.612-.235 1.204-.555 1.728 1.357-.496 2.495-1.458 3.208-2.715 1.666-.234 3.229-.941 4.505-2.036.312-5.572 1.117-11.106 2.406-16.536 2.714 1.022 5.735.866 8.329-.432 3.372-4.095 7.11-7.875 11.168-11.291 1.757 2.197 3.632 4.298 5.615 6.294-1.168 3.243-1.733 6.672-1.666 10.119.024 3.469-1.464 6.782-4.072 9.069.045.655.33 1.271.802 1.728-.099.938-.487 1.823-1.111 2.53 1.088-.059 2.128-.471 2.962-1.173l.123.124.062 1.789c.388.436.875.775 1.419.987-.033.731-.223 1.447-.555 2.098 1.126-.122 2.153-.702 2.838-1.604s.74.062 1.419.062l1.419-1.049c.028.778-.098 1.554-.37 2.283 1.185-.525 2.192-1.382 2.9-2.468l1.049-.309.925-1.481c.075.532.095 1.069.062 1.605.883-.854 1.541-1.915 1.913-3.085.372-1.171.802-.494.987-.617.65-3.687.96-7.425.925-11.168 32.063 20.203 74.971 11.142 96.129-20.299.813.741 1.783 1.29 2.838 1.604-.237.919-.729 1.754-1.419 2.406 1.872.182 3.725-.527 4.998-1.913.873.01 1.744-.093 2.591-.308.277.32.587.61.925.864-.144.918-.552 1.775-1.172 2.468 1.678.547 3.529-.053 4.566-1.481.527-.078 1.032-.268 1.481-.555.342.252.715.459 1.11.617-.241.612-.647 1.146-1.172 1.542 1.479.389 3.058-.089 4.072-1.234.584-.086 1.136-.319 1.604-.679.19-.017.366-.105.494-.246-.247.617-.432 1.048-.432 1.048 1.419.186 2.653-1.542 3.27-2.714 1.855-1.25 2.932-3.38 2.838-5.615 0-6.54-7.404-8.268-7.404-8.268-3.693-1.862-7.066-4.298-9.995-7.219 1.892-6.431 2.847-13.102 2.838-19.805-.012-38.726-31.881-70.585-70.606-70.585-37.795 0-69.23 30.346-70.563 68.117-5.43.74-25.667 4.38-25.667 19.805 0 6.972 4.812 11.97 12.154 11.97 1.31-.032 2.612-.197 3.888-.494 1.275-.296-2.098 3.332-1.42 5.985 0 0-.863.926-4.195 1.419-5.121 6.787-.926 17.893-11.168 26.655-.249 1.201-.249 2.44 0 3.64-.653.936-1.614 1.613-2.715 1.913 1.096.6 2.396.712 3.579.308z"/><path d="m121.117 29.369c4.196 1.481 6.725-.802 6.725-.802l-2.221-3.27c-.997.771-2.304 1.024-3.517.679-1.687-.664-2.802-2.301-2.802-4.114 0-.579.114-1.151.334-1.686.926-2.53 3.085-4.072 5.553-3.209 1.114.282 2.004 1.125 2.345 2.222l3.517-1.358c-.717-1.974-2.316-3.505-4.319-4.134-5.06-1.789-9.255.556-10.86 5.183-.314.878-.474 1.803-.474 2.735 0 3.55 2.328 6.706 5.719 7.754zm-22.644-15.487c.926-.123 2.406-.185 2.53 1.296.185 1.234-.864 1.604-2.468 1.789l-1.728.186-.37-3.085zm-.679 12.649-.678-6.108 1.357-.185 3.826 5.799 4.565-.493-4.689-6.17c1.92-.696 3.089-2.671 2.777-4.689-.371-3.209-2.592-4.628-6.541-4.196l-6.17.617 1.666 15.795zm56.949 16.227c-2.776 1.357-2.406 4.011-2.097 6.108.308 1.728.431 2.777-.494 3.27-.925.432-1.851-.555-2.221-1.357-.514-1.061-.468-2.311.123-3.332l-3.887-1.11c-.641 1.938-.463 4.057.494 5.861 1.666 3.332 4.566 4.628 7.465 3.209 2.962-1.481 2.53-4.073 2.16-6.17-.247-1.605-.432-2.592.493-3.024.926-.493 1.728.494 2.16 1.234.401.86.401 1.855 0 2.715l3.764 1.049c.518-1.772.318-3.68-.556-5.306-1.295-2.653-4.195-4.751-7.404-3.147zm-14.622-.925 2.406 2.961 9.625-7.897 2.777 3.393 2.653-2.159-8.021-9.749-2.653 2.16 2.776 3.393zm-1.111-15.117-1.049 4.196-2.591-1.851zm-9.563 6.108 2.961-1.912 4.628 3.393-.864 3.455 3.455 2.53 3.887-16.844-2.53-1.851-14.931 8.7zm-16.166-15.054-5.8-.617-.308 3.023 5.8.617zm-21.286 9.686-1.358-3.331-6.91 2.9-1.049-2.53 6.232-2.592-1.419-3.27-6.17 2.53-.926-2.221 6.54-2.715-1.357-3.27-10.119 4.134 6.108 14.684zm-24.804 16.906-12.895-9.193-2.221 3.085 12.895 9.255zm-17.708 5.985 11.291 5.183 1.605-3.517-11.353-5.183 1.851-3.949-3.147-1.48-5.244 11.538 3.146 1.419zm25.297-13.142c1.732-1.467 3.087-3.33 3.949-5.43l-5.429-6.416-4.936 4.257 2.344 2.715 2.098-1.79 1.357 1.605c-.384.957-.998 1.805-1.789 2.468-.823.726-1.883 1.126-2.98 1.126-1.392 0-2.707-.644-3.56-1.743-1.296-1.543-2.221-4.381.308-6.602 1.055-1.001 2.506-1.477 3.949-1.296l.124-4.01s-2.9-.371-6.17 2.406c-4.134 3.578-4.505 8.206-1.049 12.216 2.776 3.456 7.712 3.949 11.784.494zm76.817 76.446-6.54-5.553-1.173 1.296 7.713 6.54 2.9-3.393-1.173-.988zm-6.047 6.109-5.738-6.356-1.234 1.111 6.664 7.527 3.27-2.899-.987-1.173zm-11.291.308 2.9 3.27-1.172.741zm-1.974-1.111 3.825 9.502 1.419-.863-.925-2.037 1.604-1.048 1.481 1.727 1.419-.864-6.972-7.527zm-3.949 11.662-.679.247-1.172-2.839.494-.246c.987-.371 1.48-.062 1.912.925.432.926.309 1.543-.555 1.913zm-3.455-6.417.617-.247c.678-.308 1.234 0 1.542.864.105.179.16.383.16.59 0 .469-.283.894-.715 1.076l-.555.185zm3.393 2.221c.589-.66.712-1.619.309-2.406-.617-1.543-1.728-2.16-3.517-1.419l-2.345.987 3.887 9.317 2.53-1.049c1.789-.741 2.036-2.221 1.419-3.764-.325-.984-1.246-1.657-2.283-1.666zm-8.514-.308-.371-1.481-4.936 1.234.371 1.419 1.604-.37 1.974 8.329 1.666-.37-1.974-8.391zm-10.798 9.131c-.679.062-.925-.308-.987-1.049l-.37-5.059c0-.74.185-1.111.864-1.234.678 0 .925.308.987 1.049l.37 5.121c.062.74-.185 1.111-.864 1.172zm-.617-8.823c-.007 0-.014 0-.021 0-1.353 0-2.466 1.114-2.466 2.467 0 .103.006.207.019.31l.37 5.182c.144 1.33 1.28 2.349 2.617 2.349 1.444 0 2.632-1.188 2.632-2.632 0-.05-.001-.099-.004-.148l-.309-5.122c.001-.012.001-.025.001-.038 0-1.321-1.087-2.407-2.407-2.407-.145 0-.289.013-.432.039zm-9.193 2.468-.617 5.06c-.062.74-.37 1.11-1.049 1.048-.679-.123-.864-.493-.802-1.234l.617-5.059c.123-.74.37-1.111 1.049-.987.678 0 .864.432.802 1.172zm-.617-2.715c-.178-.041-.361-.061-.544-.061-1.276 0-2.345 1.008-2.418 2.283l-.617 5.182c-.024.139-.037.28-.037.42 0 1.313 1.069 2.398 2.382 2.419.184.045.373.068.563.068 1.264 0 2.311-1.026 2.337-2.29l.617-5.182c.035-.163.053-.33.053-.496 0-1.283-1.054-2.339-2.336-2.343zm-13.883 7.343 1.666.432 1.234-4.258 2.221.679.432-1.419-2.221-.679.741-2.53 2.961.926.432-1.419-4.627-1.419zm32.701-89.218-5.614 1.419 2.159 1.172zm-13.018 1.419-5.677-1.419 3.517 2.591zm18.88 24.741c1.388.025 2.771.169 4.134.432-.103-1.001-.289-1.991-.556-2.961 1.467-.027 2.933.076 4.381.308s-2.159-7.404-6.232-10.674c1.024 2.339 1.59 4.852 1.666 7.404-.988-.069-1.982-.027-2.961.123.391 1.095.64 2.236.74 3.394-1.106-.164-2.232-.143-3.332.062 1.231 2.386 2.005 4.98 2.283 7.65.135-1.912.094-3.833-.123-5.738z"/></g></svg>