<svg clip-rule="evenodd" fill-rule="evenodd" stroke-linejoin="round" stroke-miterlimit="2" viewBox="0 0 560 400" xmlns="http://www.w3.org/2000/svg"><g transform="matrix(1.25047 0 0 1.25047 180 28.0605)"><g fill-rule="nonzero"><path d="m55.021 138.604 4.82 2.541-5.245 2.763z" fill="#231f20"/><path d="m70.659 146.846-10.82 5.706-5.482-2.887.253-2.566-.019-3.194 5.248-2.763z" fill="#c50751"/><path d="m76.565 149.956-2.304 4.392-1.936 2.7-8.482-1.801-4.008-2.697 10.823-5.707z" fill="#b2b4b7"/><path d="m111.935 158.133-8.931 5.507v1.442l2.379 10.052 7.545-7.792z" fill="#7ebee8"/><path d="m103.021 164.762-1.911-3.831-6.059-2.285.683 4.105-2.382 1.52 4.78 2.71z" fill="#b2b4b7"/><path d="m84.807 168.909-1.701 2.023 12.631 2.61-3.799-8.832z" fill="#24923c"/></g><g><g fill-rule="nonzero"><path d="m93.25 163.786c-.097-.053-1.427.356-1.217 1.236.64 2.7 4.639 10.336 4.639 10.336s10.389-1.286 10.046-1.386c-1.754-.521-3.696-9.212-3.696-9.212s-7.824.078-9.772-.974" fill="#231f20"/><path d="m83.368 170.066s3.887 11.045 5.073 12.231c.971.971 3.091 1.364 3.091 1.364l6.668-4.146-2.472-5.994c-.001.001-8.907-1.76-12.36-3.455" fill="#7ebee8"/><path d="m79.863 172.442-2.875 6.078-.515 1.258s10.683 3.372 11.972 2.519c.272-.178-4.979-12.653-4.979-12.653z" fill="#231f20"/><path d="m95.722 173.52 2.163 6.131 4.327-2.703 4.505-2.975c-3.234.734-10.995-.453-10.995-.453" fill="#c50751"/><path d="m88.395 182.286.072 3.403 2.841-1.577 2.294-1.217z" fill="#7c4202"/><path d="m76.428 179.765s2.538 6.191 4.739 9.662l8.519-4.414s-1.243-2.725-1.283-2.725c-2.969-.207-11.975-2.523-11.975-2.523" fill="#c50751"/><path d="m66.299 190.736-2.928 3.784s10.736 3.652 10.399 2.894c-1.317-2.963-3.462-10.957-3.462-10.957z" fill="#c50751"/><path d="m70.401 187.009s-1.036 7.333 3.209 10.764l1.424-2.866-.768-2.613c-.001 0-2.123-3.543-3.865-5.285" fill="#7c4202"/><path d="m63.551 194.428s-6.774 2.963 6.459 10.661c.549.325.537-1.845.537-1.845l3.275-5.607z" fill="#b2b4b7"/><path d="m72.326 157.05-2.266.493-7.202 4.442.131 2.697 9.365 2.357s.874-.805.805-.805-1.483-1.686-1.483-1.686l-.606-4.651z" fill="#24923c"/><path d="m53.7 159.829 9.422 3.809-4.711 8.185-2.507.122-2.81-3.084-.474-3.912z" fill="#c50751"/><path d="m79.307 172.86 1.045 2.425-12.84-1.111 6.166-7.374z" fill="#231f20"/><path d="m72.688 165.534c.106-.025 1.261.749.812 1.539-1.38 2.401-7.399 8.572-7.399 8.572s-10.558-3.699-10.196-3.699c1.823 0 7.14-8.27 7.14-8.27s7.473 2.314 9.643 1.858" fill="#b2b4b7"/><path d="m80.353 174.382s-6.88 9.471-8.354 10.268c-1.208.649-4.186 1.642-4.186 1.642l-4.873-6.406 4.592-5.732s9.031.858 12.821.228" fill="#24923c"/><path d="m80.715 175.244 3.337 9.063.131 1.352s-11.201.178-12.187-1.008c-.212-.253 7.72-9.487 7.72-9.487z" fill="#7ebee8"/><path d="m67.531 174.157-4.68 6.45-2.888-4.598-3.609-3.974c2.888 1.625 11.177 2.122 11.177 2.122" fill="#7c4202"/><path d="m72.043 184.651-1.973 4.621-1.713-2.798-2.801-2.709z" fill="#b2b4b7"/><path d="m84.234 185.658s-4.623 6.79-7.723 9.487l-7.336-7.292s2.825-3.212 2.866-3.203c2.903.649 12.193 1.008 12.193 1.008" fill="#231f20"/><path d="m86.219 191.435 2.46 4.736-12.79-1.217c1.127.181 8.316-9.275 8.316-9.275z" fill="#c50751"/><path d="m89.74 199.826 2.438 3.971s-11.463.453-10.92-.181c2.107-2.46 5.772-9.562 5.772-9.562z" fill="#7c4202"/><path d="m87.934 194.322s-1.358 7.399-6.406 9.475l-1.083-2.438-4.33-6.403c0-.001 9.653.54 11.819-.634" fill="#7ebee8"/><path d="m92.267 203.527s-3.069 6.044-8.032 9.29c-.534.35-1.083-2.975-1.083-2.975l-1.533-6.315z" fill="#c50751"/><path d="m72.414 156.689s-6.225 3.974-9.29 6.952l-9.475-3.337.178-2.622 5.947-5.067s8.672 3.986 12.64 4.074" fill="#7c4202"/><path d="m14.065 25.719 2.707 5.844 3.134-3.587s-2.332-1.823-3.409-3.137c-.797-.971-2.432.88-2.432.88" fill="#c50751"/><path d="m10.318 30.746 4.954 6.949 1.545-6.403-2.753-5.572c.001-.001-3.152 2.3-3.746 5.026" fill="#7ebee8"/><path d="m19.772 43.146 7.904 8.813 2.713-6.565s-8.601-6.912-8.891-6.609c-1.545 1.592-1.726 4.361-1.726 4.361" fill="#24923c"/><path d="m16.451 31.017c-.606 1.592 5.241 8.192 5.241 8.192l6.553-4.683s-5.188-2.831-8.067-6.64c.001 0-2.681.409-3.727 3.131" fill="#b2b4b7"/><path d="m14.68 37.15s7.317 8.313 5.906 6.496c-1.408-1.817.912-4.861.912-4.861-3.272-3.362-4.801-8.039-5.048-7.77-2.407 2.683-1.77 6.135-1.77 6.135" fill="#7c4202"/><path d="m21.498 38.786c.44 1.848 8.582 7.177 8.582 7.177l6.681-5.769-8.407-5.997c-4.05.718-6.856 4.589-6.856 4.589" fill="#231f20"/><path d="m29.763 46.054 8.588 6.905 8.31-6.453s-3.83-.14-6.359-1.77c-2.176-1.405-3.081-4.333-3.362-4.314-3.022.193-7.177 5.632-7.177 5.632" fill="#c50751"/><path d="m27.445 51.777 10.268 7.633 1.648-8.12s-4.779-1.92-9.462-5.463c0 0-2.563 3.58-2.454 5.95" fill="#7ebee8"/><path d="m50.932 46.87c-.637 2.223 9.075 3.219 9.075 3.219l5.713-2.941-13.336-.14s-1.321-.612-1.452-.138" fill="#24923c"/><path d="m37.339 58.944s8.295 4.917 8.266 4.598c-.325-3.852 4.165-7.386 4.165-7.386l-10.277-5.035s-2.662 3.874-2.154 7.823" fill="#7c4202"/><path d="m65.147 102.569-.512.993-.506 1.171 6.531-3.441-5.207-2.747-.085 2.295z" fill="#b2b4b7"/><path d="m63.888 93.301.949 4.692.712.606 5.11 2.697 10.823-5.706-10.823-5.704z" fill="#24923c"/><path d="m63.575 90.956.406 1.398.225.902 6.443-3.371-9.425-4.973 1.446 3.609z" fill="#7c4202"/><path d="m60.416 83.873.721 1.308c.144-.034 1.548.512 1.548.512l7.957 4.193 10.823-5.704-10.823-5.703z" fill="#b2b4b7"/><path d="m57.537 73.947.577 4.062 1.805 4.148.902 1.489 9.827-5.163-10.823-5.703z" fill="#c50751"/><path d="m51.179 66.423 4.321 2.553 1.763 2.648 1.97.861.596.315 10.827-5.703-10.827-5.704z" fill="#7ebee8"/><path d="m59.822 72.783 10.823 5.703 10.823-5.703-10.823-5.704z" fill="#7c4202"/><path d="m58.822 60.836 11.834 6.262 10.824-5.703-10.824-5.701z" fill="#c50751"/><path d="m46.79 54.579 13.046 6.824c.74-.862 10.82-5.703 10.82-5.703l-10.826-5.704z" fill="#231f20"/><path d="m65.372 47.077-5.541 2.919 10.82 5.703 10.826-5.703-7.033-3.706-3.434.022z" fill="#7ebee8"/><path d="m70.65 55.693 10.827 5.704v-11.407z" fill="#7c4202"/><path d="m70.644 67.082 10.823 5.7v-11.404z" fill="#b2b4b7"/><path d="m70.644 78.481 10.823 5.704v-11.407z" fill="#24923c"/><path d="m70.657 89.887 10.82 5.707v-11.411z" fill="#231f20"/><path d="m70.657 101.29 10.82 5.7v-11.404z" fill="#7ebee8"/><path d="m70.648 112.674 10.823 5.707v-11.407z" fill="#b2b4b7"/><path d="m70.644 124.075 10.823 5.703v-11.407z" fill="#24923c"/><path d="m44.121 62.427 5.71 3.066s2.691 2.379 2.925 1.72c.653-1.814 7.118-5.788 7.118-5.788l-10.102-5.27c0 .001-4.327 3.266-5.651 6.272" fill="#24923c"/><path d="m39.373 51.3c3.718 2.323 10.399 4.854 10.399 4.854 4.352-3.297 5.163-4.049 10.236-6.066 0 0-3.899-.718-12.575-3.899 0 .001-4.623.731-8.06 5.111" fill="#b2b4b7"/><path d="m86.914 144.013 5.385 2.84-3.234 1.702z" fill="#7ebee8"/><path d="m82.362 130.227 9.927 5.229-7.027 3.7-.49-1.343-1.302-3.821-1.068-2.557z" fill="#231f20"/><path d="m105.404 119.589-2.322-1.224 1.81-.955z" fill="#7c4202"/><path d="m103.252 113.129 1.558 4.327-1.723.912-10.827-5.704 8.863-4.673.877 2.528z" fill="#7ebee8"/><path d="m57.482 71.534 2.347 1.268-2.291 1.145z" fill="#231f20"/><path d="m99.226 104.929.973 1.801.765 1.349-8.703 4.589-10.827-5.707 10.827-5.704z" fill="#24923c"/><path d="m108.584 132.648-5.494-2.897 4.22-2.223z" fill="#b2b4b7"/><path d="m64.979 98.266 5.651 2.978-5.542 2.919.038-2.101z" fill="#7ebee8"/><path d="m81.447 106.946-10.82 5.703-7.745-4.08.992-2.095.98-2.191 5.773-3.041z" fill="#231f20"/><path d="m92.274 112.647-10.829 5.706-10.824-5.706 10.824-5.701z" fill="#c50751"/><path d="m103.096 118.35-10.821 5.7-10.832-5.7 10.832-5.707z" fill="#231f20"/><path d="m105.414 119.571 1.036 5.435.743 2.588-4.102 2.16-10.823-5.703 10.823-5.704z" fill="#c50751"/><path d="m81.451 118.345-10.823 5.703-10.823-5.703 10.823-5.704z" fill="#7ebee8"/><path d="m92.274 124.046-10.826 5.703-10.82-5.703 10.82-5.704z" fill="#7c4202"/><path d="m103.096 129.75-10.827 5.703-10.826-5.703 10.826-5.704z" fill="#7ebee8"/><path d="m108.76 132.733.556 2.494.393 2.441-6.615 3.487-10.826-5.703 10.826-5.704z" fill="#7c4202"/><path d="m62.886 108.563 7.742 4.081-10.82 5.703-.534-.281.812-1.664.331-1.839z" fill="#24923c"/><path d="m110.778 145.203-7.689-4.049 6.722-3.543z" fill="#24923c"/><path d="m82.354 130.213-.759 2.788-.774 4.907-.834 2.463-9.34-4.92 10.823-5.703z" fill="#b2b4b7"/><path d="m103.12 141.154-10.823 5.7-5.095-2.678-1.139-2.295-.859-2.7 7.093-3.734z" fill="#c50751"/><path d="m110.842 145.222.203 1.62.141 1.465-8.073 4.251-10.82-5.703 10.82-5.704z" fill="#b2b4b7"/><path d="m111.56 154.713.331 1.508.231 1.614-9.01-5.276 8.105-4.267.193 2.778z" fill="#231f20"/><path d="m81.475 129.75-10.826 5.703-10.823-5.703 10.823-5.704z" fill="#c50751"/><path d="m103.12 152.557-8.566 5.46-1.321-1.908-2.316-3.805-1.854-3.752 3.237-1.705z" fill="#7c4202"/><path d="m111.898 157.52.103.905s1.324-.534.028 1.605c-1.302 2.135-9.009 4.733-9.009 4.733s-6.834-4.218-7.78-5.694c-.946-1.47-.187-.421-.187-.421l-.637-.721 8.701-5.373z" fill="#24923c"/><path d="m76.253 149.804-5.607-2.953 8.673-4.568z" fill="#24923c"/><path d="m54.287 149.617 5.557 2.931-5.566 5.223z" fill="#7ebee8"/><path d="m70.65 124.051-10.823 5.703-3.069-1.617.865-4.236 1.567-5.217.637-.334z" fill="#231f20"/><path d="m56.762 128.132 3.066 1.617-3.999 2.108z" fill="#24923c"/><path d="m70.65 135.451-10.82 5.704-4.773-2.516.543-3.634.406-3.244 3.824-2.013z" fill="#7ebee8"/><path d="m79.986 140.369-.212.958-.303.881-8.822 4.648-10.823-5.703 10.823-5.704z" fill="#7c4202"/><path d="m68.55 187.991.755-.805c.009.009 3.431 3.253 6.309 6.571l-.834.721c-2.8-3.227-6.156-6.415-6.23-6.487m-.004-.006.003.006h-.003z" fill="#231f20"/><path d="m151.61 15.211c1.068.499 2.279 1.252 3.275 1.714.93.437 1.786 1.058 3.053 1.995-1.436-.165-3.45-.709-4.37-1.015-1.149-.378-1.773-.512-2.897-.949-.137-.306-.05-.618.019-.802.165-.368.243-.574.503-.771.183-.141.417-.172.417-.172" fill="#b2b4b7"/><path d="m157.872 19.467c-1.505-.175-3.518-.721-4.483-1.04-1.118-.372-1.761-.506-2.922-.958l-.212-.081-.087-.206c-.091-.19-.128-.39-.128-.578 0-.281.075-.506.147-.684.15-.331.287-.69.668-.977.337-.243.637-.268.684-.281l.156-.019.15.066c1.108.521 2.323 1.274 3.275 1.717.996.465 1.876 1.114 3.147 2.048l1.673 1.23zm-4.133-2.088c.403.134 1.043.322 1.751.499-.284-.175-.562-.325-.837-.456-.98-.453-2.11-1.146-3.091-1.623-.013.006-.028.012-.034.022-.137.109-.156.153-.328.531-.022.059-.047.131-.053.197.924.34 1.521.48 2.592.83" fill="#231f20"/><path d="m72.26 46.459 4.82 3.015 7.158-.227 4.673-1.958-1.454-5.426-13.839.678z" fill="#fff"/></g><path d="m23.418 17.205s43.871-27.815 115.828-4.708l1.246-1.52s-69.884-26.014-124.684 3.596z" fill="#b2b4b7"/><path d="m24.835 16.564c-.706-1.792-8.626-2.522-8.626-2.522-2.379.047-9.915 3.387-13.165 5.438-5.032 3.175-.465 4.82.752 4.97.868.119 1.932-.384 3.384-1.227 1.645-.949 4.374-2.26 4.96-2.691 1.221-.968 3.952-2.956 6.156-2.956 1.754 0 1.82.796 3.412 1.277.237.081 3.184-2.148 3.127-2.289" fill="#231f20" fill-rule="nonzero"/><path d="m15.217 17.43.156-1.605c-.581-.412-1.227-.896-1.914-1.321-.44-.268-.971.284-1.439.103-.478-.187-.896-1.105-1.399-1.127-.297-.016-.596.006-.899.072-.533.106-.649.628-1.042.778 0 0-1.648-.777-2.092 1.018-1.277 0-1.798.268-1.798 1.43-1.217 0-2.304.737-1.72 1.564 1.174 1.667 1.177 2.644 2.691 2.644.64 0 1.164-.515 1.021-.862 2.36 2.014 2.782.153 2.782-.334.371.334.912.256 1.299.184.334-.066.556-.128.446.069-.637 1.158-3.078 2.429-4.09 3.094-.512.337-.628.371-1.374.84l3.1 3.515c-.134.362.331 2.11.656 1.911 1.021-.627 4.611-3.231 4.811-3.421.15-.153 1.533-1.23 1.533-1.23.078-.421-.874-.715-.846-.78.896-2.076.809-5.463.809-5.769-.001-.202-.494-.773-.691-.773" fill="#fff" fill-rule="nonzero"/><path d="m138.479 11.804 3.743.034c.019-.066-2.188-1.236-2.188-1.236l2.744-2.326c1.708-.824 2.276 1.623 2.666 1.77 0 0 2.85-1.433 3.094.846 1.271 0 1.767.29 1.767 1.445 1.214 0 1.858 1.224 1.711 2.226-.69 4.405-5.86 7.758-6.063 9.103-.056.331-6.93-2.813-7.227-3.106-.78-.771.147-1.152-.503-6.646-.025-.193.059-2.11.256-2.11" fill="#fff" fill-rule="nonzero"/><path d="m141.066 13.984c.799-.275.743-.172 1.18-.599.731-.715.35-1.911 1.161-1.648.225.075.649.971.546 1.189-.256.553-.29.627-.662 1.139-.087.334-.774.406-.774.406-.437-.091-.802.24-.802.677 0 1.108.584.955.372 1.345-.212.384-.84-.172-.84-.172-.147-.315-.219-.621-.287-1.043-.059-.365-.119-.899.028-1.196" fill="#231f20" fill-rule="nonzero"/><path d="m60.283 197.348c.312-.222.687-.559 1.096-.946.59 1.055 1.714 2.869 3.009 3.94.337.275.706.518 1.071.749-.022.003.144.116.4.24.774.434 1.539.759 2.126.983.225.1.428.194.568.25 0 0 1.208.381 2.026.652.172.056.315.081.462.106-.462 1.411-.665 2.778-.799 4.292-.225 2.501.066 5.825.066 5.825-.012-.128-8.691-2.66-10.549-15.675z" fill="#fff" fill-rule="nonzero"/><path d="m70.476 215.113c-.062-.521-.119-1.071-.169-1.673-.012-.128-8.691-2.657-10.549-15.675-.016-.112-3.144.965-5.035 2.794-1.417 1.37-2.348 3.194-.858 5.085 10.093 12.821 5.919 9.921 7.268 13.446 1.764 4.602 11.563 8.819 12.059 6.35.79-3.943-1.636-.675-2.716-10.327" fill="#231f20" fill-rule="nonzero"/><path d="m70.476 215.113.05-.003c-.059-.521-.115-1.071-.165-1.673v-.003c-.009-.034-.022-.034-.028-.041-.025-.025-.072-.044-.153-.078-1.158-.509-8.654-3.568-10.368-15.559l-.037-.047-.031-.009c-.053 0-.122.025-.225.056-.74.247-3.075 1.311-4.667 2.85-.887.862-1.545 1.876-1.548 2.994 0 .668.237 1.37.802 2.082 3.234 4.111 5.02 6.624 5.994 8.257.977 1.636 1.139 2.376 1.139 2.956 0 .306-.047.571-.047.896 0 .378.059.84.322 1.517.705 1.839 2.594 3.568 4.651 4.842 2.06 1.277 4.289 2.095 5.688 2.095.375 0 .693-.059.937-.187.237-.128.403-.334.459-.612.103-.534.15-.937.15-1.264.006-.512-.122-.83-.325-1.13-.297-.456-.755-.871-1.23-1.957-.475-1.096-.965-2.86-1.317-5.984l-.051.002-.056.009c.468 4.174 1.189 5.938 1.795 6.915.306.493.574.784.768 1.071.197.29.309.571.309 1.074 0 .315-.044.715-.153 1.249-.05.247-.187.412-.406.537-.212.116-.512.172-.88.172-1.364.003-3.584-.812-5.629-2.082-2.048-1.261-3.924-2.984-4.608-4.779-.259-.681-.322-1.118-.322-1.486 0-.315.047-.581.047-.896 0-.602-.172-1.377-1.149-3.009-.977-1.639-2.766-4.158-6-8.27-.556-.696-.78-1.377-.78-2.017-.003-1.068.64-2.06 1.514-2.916.899-.871 2.048-1.592 2.994-2.088.475-.253.902-.446 1.23-.581.159-.072.297-.119.4-.153.1-.037.172-.053.193-.053v-.031l-.016.028.016.003v-.031l-.016.028.022-.041-.044.009.022.031.022-.041-.044.009c.927 6.518 3.571 10.421 5.981 12.699 1.208 1.139 2.357 1.882 3.203 2.338.425.231.774.39 1.018.503.119.05.215.094.278.119.031.016.056.028.075.034l.009.006.025-.031-.041.003c.006.034.019.028.016.028l.025-.031-.041.003.053-.006-.053.006c.053.599.106 1.155.165 1.676z" fill="#231f20" fill-rule="nonzero"/><path d="m84.433 224.732c.009-.053.012-.122.022-.184-.01.059-.019.118-.022.184" fill="#231f20" fill-rule="nonzero"/><path d="m84.433 224.732.053.006c.009-.056.012-.119.022-.187l-.106-.009c-.009.056-.016.122-.025.187l.109.009-.053-.006.053.003c.003-.062.012-.125.019-.181l-.05-.006-.053-.006c-.009.066-.016.125-.025.184l.056.006.053.003z" fill="#231f20" fill-rule="nonzero"/><path d="m93.215 205.798c.009-.031.203.134.493.409l-.212-.016s-.502-1.214-1.567-3.194c-.74.428-2.213 1.227-4.811 2.388-2.588 1.164-3.809 1.424-4.355 1.452.958 3.306 1.536 8.382 1.767 12.927.115 2.338.037 3.84-.075 4.783.259-1.48 2.21.656 8.76-18.749" fill="#fff" fill-rule="nonzero"/><path d="m93.709 206.207c-.293-.278-.484-.44-.493-.409-6.55 19.405-8.501 17.267-8.76 18.749-.009.062-.016.131-.025.184-.003.025-.006.047-.006.078-.022.418-.109.787-.222 1.136-1.246 3.874-7.542 4.027-6.178 8.248.443 1.352 11.426.584 13.186-4.015 1.355-3.534-1.654-2.416 8.448-15.234 1.133-1.438-4.277-7.173-5.95-8.737" fill="#231f20" fill-rule="nonzero"/><path d="m93.709 206.207.034-.041c-.131-.134-.247-.231-.331-.303-.044-.034-.078-.066-.109-.081l-.037-.028-.047-.012-.056.041c-3.269 9.699-5.398 14.014-6.731 16.087-.665 1.033-1.133 1.508-1.455 1.814-.325.309-.509.468-.574.858-.009.066-.019.125-.025.184-.003.025-.006.05-.006.084-.025.409-.106.774-.219 1.121-.556 1.729-2.132 2.716-3.584 3.659-.727.475-1.42.943-1.939 1.489-.515.553-.849 1.193-.849 1.998 0 .343.062.721.197 1.133.078.234.371.378.812.484.443.103 1.036.156 1.736.156 1.739 0 4.096-.334 6.187-1.083 2.088-.743 3.909-1.901 4.552-3.571.34-.887.403-1.486.471-2.076.1-.893.197-1.767 1.217-3.628 1.015-1.861 2.963-4.705 6.749-9.515.115-.144.165-.328.165-.537-.003-.515-.29-1.183-.746-1.945-1.37-2.27-4.233-5.263-5.379-6.328l-.033.04-.037.034c.759.709 2.279 2.276 3.618 3.905.668.818 1.286 1.651 1.742 2.401.449.749.731 1.42.731 1.892 0 .194-.047.353-.147.475-5.051 6.409-6.827 9.337-7.511 11.107-.343.89-.409 1.492-.478 2.085-.062.59-.128 1.177-.465 2.054-.615 1.62-2.407 2.766-4.483 3.506-2.076.746-4.43 1.077-6.153 1.077-.693 0-1.28-.053-1.711-.153-.431-.097-.693-.253-.737-.409-.131-.406-.193-.774-.193-1.105 0-.78.322-1.386.824-1.923.755-.802 1.926-1.442 3.019-2.204 1.083-.762 2.101-1.658 2.525-2.981.119-.356.203-.73.225-1.155 0-.028 0-.047.006-.078l-.053-.003.053.006c.009-.056.016-.119.022-.187l-.05-.003.047.006c.066-.35.219-.478.546-.79.487-.475 1.317-1.324 2.632-3.874 1.317-2.544 3.131-6.796 5.585-14.073l-.047-.019v.05l.047-.031-.047-.019v.05-.031l-.012.031h.012v-.031l-.012.031s.072.041.153.112c.078.069.187.162.312.281z" fill="#231f20" fill-rule="nonzero"/><path d="m41.801 52.245-.003.003" fill="none"/><path d="m78.384 173.099-.041.012z" fill="#231f20" fill-rule="nonzero"/><path d="m79.448 172.891-.01.071.05-.009z" fill="#231f20" fill-rule="nonzero"/><path d="m81.642 128.321v.006z" fill="#231f20" fill-rule="nonzero"/><path d="m93.4 59.455-.025-.013z" fill="#7ebee8" fill-rule="nonzero"/><path d="m139.241 34.129h.072zm-42.284 63.41v-.016z" fill="#fff" fill-rule="nonzero"/><path d="m146.288 23.82-.287-.125s.003-.012.003-.016l.29.122s0 .006-.006.019" fill="#fff" fill-rule="nonzero"/><path d="m145.891 23.638s-.019-.003-.025-.003l-.915-.387s.009-.009.016-.016l.937.4v.003z" fill="#fddcc8" fill-rule="nonzero"/><path d="m146 23.695-.134-.059c.006 0 .019.003.019.003l.019-.003v-.003l.1.047c0 .003-.003.009-.003.009" fill="#fddcc8" fill-rule="nonzero"/><path d="m140.483 21.335-1.158-.496c-.087-.044-.169-.087-.24-.125l1.408.603z" fill="#e9cab5" fill-rule="nonzero"/><path d="m139.326 20.839-.693-.3c-.013-.009-.022-.022-.031-.034l.484.209c.072.038.153.081.24.125" fill="#e9cab5" fill-rule="nonzero"/><path d="m14.828 24.341.515-.322s-.006.012-.009.019z" fill="#fddcc8" fill-rule="nonzero"/><path d="m9.179 28.229c-.069-.106-.119-.181-.156-.234l.016-.006c.016.034.044.075.075.128l2.332.072-2.332-.072c.018.034.04.069.065.112" fill="#dde0e0" fill-rule="nonzero"/><path d="m92.27 55.665-10.827 5.704v-11.407z" fill="#24923c" fill-rule="nonzero"/><path d="m92.279 67.054-10.827 5.7v-11.404z" fill="#231f20" fill-rule="nonzero"/><path d="m92.279 78.453-10.827 5.703v-11.407z" fill="#7ebee8" fill-rule="nonzero"/><path d="m92.265 89.858-10.829 5.707v-11.407z" fill="#c50751" fill-rule="nonzero"/><path d="m92.265 101.261-10.829 5.7v-11.404z" fill="#7c4202" fill-rule="nonzero"/><path d="m92.274 112.647-10.829 5.706v-11.407z" fill="#b2b4b7" fill-rule="nonzero"/><path d="m92.274 124.046-10.826 5.703v-11.407z" fill="#24923c" fill-rule="nonzero"/><path d="m104.349 61.18-12.084 5.891-10.83-5.703 10.83-5.704z" fill="#7ebee8" fill-rule="nonzero"/><path d="m107.653 63.771-2.488 3.771-1.477 4.914-.599.315-10.824-5.703 10.824-5.704z" fill="#7c4202" fill-rule="nonzero"/><path d="m116.319 60.104-6.272 1.436s-2.257 3.652-2.597 3.044c-.549-.974-4.402-3.184-4.402-3.184l10.102-5.273c.001 0 1.846.971 3.169 3.977" fill="#b2b4b7" fill-rule="nonzero"/><path d="m97.548 47.048 5.541 2.919-10.82 5.704-10.83-5.704 7.034-3.705 4.401 1.071z" fill="#231f20" fill-rule="nonzero"/><path d="m116.902 54.242s-13.814 7.124-13.814 7.133c-.743-.862-10.823-5.704-10.823-5.704l10.823-5.703z" fill="#c50751" fill-rule="nonzero"/><path d="m146.101 23.241-2.644 6.075-1.252-1.773s2.372-3.019 3.237-4.483c.862-1.464.659.181.659.181" fill="#7ebee8" fill-rule="nonzero"/><path d="m145.942 22.63-3.718 4.961-8.213-2.245 4.895-5.06z" fill="#24923c" fill-rule="nonzero"/><path d="m142.325 27.564-4.583 8.76-11.188-4.061s7.58-7.458 7.998-7.458c4.573-.001 7.773 2.759 7.773 2.759" fill="#b2b4b7" fill-rule="nonzero"/><path d="m143.636 29.196-4.692 8.419-4.271-3.119s4.77-3.122 7.652-6.933z" fill="#231f20" fill-rule="nonzero"/><path d="m135.035 34.317-8.569 6.706-5.448-2.866s5.242-6.044 5.601-5.984c5.766.957 8.416 2.144 8.416 2.144" fill="#7c4202" fill-rule="nonzero"/><path d="m139.367 37.075-6.618 8.903-7.758-5.975s7.143-3.19 9.977-5.688c.381-.337 4.399 2.76 4.399 2.76" fill="#24923c" fill-rule="nonzero"/><path d="m125.257 40.063-9.756 5.507-1.879-2.179s2.519-.74 4.389-2.045c1.96-1.37 2.944-2.991 3.038-2.991 1.389.001 4.208 1.708 4.208 1.708" fill="#c50751" fill-rule="nonzero"/><path d="m133.106 45.876-9.275 5.641-8.494-6.646s4.371-1.53 9.753-4.892c.358-.225 8.016 5.897 8.016 5.897" fill="#b2b4b7" fill-rule="nonzero"/><path d="m133.036 45.737-8.063 9.443-1.411-3.918 8.972-5.894z" fill="#231f20" fill-rule="nonzero"/><path d="m115.816 44.668c.637 2.223-12.902 5.391-12.902 5.391l-5.716-2.941 15.484-3.759c0 .001 3 .835 3.134 1.309" fill="#7ebee8" fill-rule="nonzero"/><path d="m125.167 54.7c-.25 1.932-9.275 5.632-9.244 5.313.094-1.08-2.772-3.887-2.772-3.887l10.274-5.035s1.923 2.226 1.742 3.609" fill="#24923c" fill-rule="nonzero"/><path d="m123.545 51.273c-3.715 2.323-10.395 4.854-10.395 4.854-4.352-3.297-5.16-4.049-10.236-6.069 0 0 7.321-2.001 12.902-5.391 0 0 4.295 2.223 7.729 6.606" fill="#7c4202" fill-rule="nonzero"/><path d="m103.1 72.755-10.826 5.704-10.827-5.704 10.827-5.703z" fill="#c50751" fill-rule="nonzero"/><path d="m103.524 72.98-.786 4.108-1.18 3.834-.593 2.113-8.691-4.579 10.823-5.704z" fill="#b2b4b7" fill-rule="nonzero"/><path d="m100.965 83.029-.14 1.13c-.144-.034-.59 1.505-.59 1.505l-7.961 4.196-10.823-5.707 10.823-5.703z" fill="#7c4202" fill-rule="nonzero"/><path d="m98.584 90.518-.406 1.324-.346.943-5.557-2.928 7.957-4.199-.693 2.619z" fill="#24923c" fill-rule="nonzero"/><path d="m97.773 102.541.515.993.503 1.171-6.531-3.441 5.21-2.747.085 2.295z" fill="#231f20" fill-rule="nonzero"/><path d="m97.83 92.794-1.086 3.752.624 2.026-5.107 2.694-10.826-5.703 10.826-5.704z" fill="#b2b4b7" fill-rule="nonzero"/><path d="m68.86 29.895c.025.053.29.309.353.706.247 1.552.581 5.273 1.577 7.524.222.499.509.99.721 1.523 1.38 3.509 4.742 7.449 8.679 7.18 4.127-.281 6.487-3.478 7.808-7.258.29-.834.718-1.364.915-2.229.306-1.336 1.549-2.725 1.68-3.987.062-.59-.028-1.951.006-2.494.047-.821-1.024-1.08-1.024-1.745 0-4.552-10.552-5.607-10.552-5.607-4.247.681-9.473 4.982-10.163 6.387" fill="#fff" fill-rule="nonzero"/><path d="m78.368 37.752c-.39.659.022.971.284 1.043l.98.066c.293-.637-1.623.244-.437-1.68.574-.924.465-2.304.49-3.453.006-.262.243-.612.243-.612-.681.303-.431 1.736-.681 2.925-.217 1.034-.567 1.14-.879 1.711" fill="#231f20" fill-rule="nonzero"/><path d="m80.021 40.517c-.431-.721-3.228.159-3.228.534 0 .159 2.441.818 3.428.818.49 0 3.169-.484 3.169-.777 0-.365-2.922-1.296-3.219-.524-.09.239-.015.168-.15-.051" fill="#c50751" fill-rule="nonzero"/><path d="m68.928 30.336c-1.374-9.147 4.18-13.823 10.789-13.808 5.757.009 10.208 5.376 10.208 11.994-2.164-1.367-4.424-3.815-10.168-3.815-5.76 0-8.457 3.696-10.623 5.641" fill="#231f20" fill-rule="nonzero"/><path d="m69.184 30.304.056-.006c-.134-.865-.197-1.689-.197-2.472 0-7.424 5.513-11.201 10.658-11.204 2.841 0 5.376 1.345 7.199 3.512s2.941 5.157 2.941 8.432h.053l.031-.044c-2.138-1.349-4.461-3.877-10.183-3.874-5.753 0-8.451 3.693-10.595 5.619l.037.037.056-.006-.056.006.034.041c2.163-1.945 4.826-5.591 10.524-5.591 5.694 0 7.967 2.491 10.121 3.859l.087.05v-.097c0-3.3-1.124-6.312-2.966-8.498-1.842-2.188-4.408-3.553-7.283-3.553-2.597 0-5.288.958-7.33 2.85-2.042 1.886-3.431 4.72-3.431 8.46 0 .79.059 1.62.187 2.491l.016.097.075-.069z" fill="#231f20" fill-rule="nonzero"/><path d="m79.805 30.95c-2.632-1.015-3.612-1.739-6.837-1.739-1.954 0-4.105 1.739-3.325 3.677.524 1.299 3.471 2.71 4.889 2.71 1.564 0 5.516-2.132 5.569-2.132 2.048 0 3.656 2.148 6.44 1.642 2.154-.384 3.958-1.998 3.618-4.352-.194-1.355-1.808-2.22-3.618-2.22-2.827.001-4.831 1.5-6.736 2.414" fill="#231f20" fill-rule="nonzero"/><path d="m73.205 43.061.5-.437c2.341 2.694 4.452 3.596 6.265 3.596 3.475.022 6.147-3.418 7.118-4.833v.003l.543.378c-1.011 1.43-3.734 5.089-7.661 5.11-2.051.007-4.349-1.032-6.765-3.817" fill="#231f20" fill-rule="nonzero"/><path d="m69.315 31.999c-.237.34-.19 1.111-.19 1.548 0 1.786 1.021 3.918 1.854 5.029.681-.334-.98-3.431-.98-4.355-.001-1.061.049-1.791-.684-2.222" fill="#231f20" fill-rule="nonzero"/><path d="m78.884 173.234h.003l1.015-.434c.006.019 4.742 11.092 5.735 15.028l-1.074.262c-.924-3.717-5.666-14.843-5.679-14.856" fill="#231f20" fill-rule="nonzero"/><path d="m138.087 11.711c1.33-.606 1.82-.656 2.969-.706.247-.012.4-.019.528-.019.219.003.328.016.602.031.709.016 1.686.396 1.708 1.43h-1.105c.01-.14-.087-.259-.671-.328-.303-.019-.384-.031-.534-.031-.094 0-.231.006-.471.019-1.196.072-1.249.034-2.576.612z" fill="#231f20" fill-rule="nonzero"/><path d="m139.623 11.31.321-1.052 2.857.862-.322 1.052z" fill="#231f20" fill-rule="nonzero"/><path d="m71.597 46.469.006.003 1.68-1.43c2.575 3.016 4.929 3.855 7.058 3.871 2.107.006 4.096-.915 5.638-1.867.843-.518 1.399-.89 1.742-1.127.34-.237.443-.322.446-.322l1.38 1.72c-.047.037-.668.531-2.413 1.611-1.708 1.043-4.046 2.185-6.793 2.191h-.05c-2.769.001-5.853-1.272-8.694-4.65" fill="#231f20" fill-rule="nonzero"/><path d="m80.605 62.453-.315-12.035c-.009-.484.371-.89.862-.902.487-.013.893.375.905.858l.309 12.031c.016.49-.372.896-.855.908h-.022c-.479.002-.872-.379-.884-.86" fill="#231f20" fill-rule="nonzero"/><path d="m77.399 234.606c-.309-.396-.44-.868-.44-1.308.053-1.589 1.339-2.878 1.97-3.362 1.792-1.258 3.765-2.095 4.483-3.865.29-.643.169-1.523.393-2.66.069-.325.144-1.224.137-1.97.006-.446-.025-.865-.069-1.052-.134-.612-.15-1.221-.15-1.814v-.79c.003-.584-.022-1.143-.131-1.642-.197-.943-.097-1.867-.284-2.61-.574-2.535-.615-5.079-1.392-7.149-1.164-3.156-2.966-5.953-4.814-8.576-.534-.765-1.199-1.533-1.779-2.382-.784.812-1.311 2.266-1.942 3.521-1.096 2.101-1.939 4.205-2.579 6.809-.169.693-.203 1.486-.203 2.348 0 .428.009.874.009 1.342 0 .409-.003.818-.003 1.221 0 1.695.037 3.318.346 4.67.209.977.094 1.717.278 2.394.303 1.211.534 2.404.958 3.378.247.64 1.108 1.233 1.502 2.304.091.262.119.531.119.78-.003.715-.231 1.377-.312 1.776l-.05.215-.181.128c-.565.378-1.218.515-1.857.515-1.907-.016-3.918-1.124-4.892-1.704-1.936-1.193-3.912-2.354-5.201-4.424-.4-.646-.662-1.411-.846-2.135-.091-.362-.112-.712-.112-1.033 0-.35.022-.674.022-.952 0-.303-.028-.54-.094-.699-.89-2.148-2.454-4.058-3.831-5.972-.702-.977-1.505-1.939-2.26-2.966-.318-.45-.958-.937-1.327-1.723-.197-.431-.346-1.008-.35-1.626 0-.265.025-.543.106-.805.821-2.741 3.515-4.068 5.654-5.179.378-.131.759-.268 1.143-.409 1.102-.656 2.26-1.882 3.131-3.028.228-.197.462-.409.628-.546.818-1.083 1.729-1.973 2.532-3.028.253-.256.509-.518.724-.727.39-.512.765-1.055 1.23-1.592.187-.19.493-.496.64-.665-.122-.134-.347-.312-.596-.612-.684-.918-1.483-1.798-2.195-2.763-1.833-2.485-3.79-4.851-5.66-7.355-.596-.805-1.417-1.545-2.12-2.472-.924-1.252-2.738-2.288-3.896-3.827-.874-1.183-1.349-2.585-1.717-4.164l-.016-.069v-1.195c0-2.369.677-4.093 1.152-5.875.35-1.264.14-2.881.487-4.505.022-.1.034-.259.034-.437 0-.181-.009-.378-.012-.578.003-.159.003-.318.041-.487.047-2.248.094-4.492.141-6.737v-.053l.009-.059c.106-.465.128-.983.128-1.536 0-.365-.009-.749-.009-1.139 0-.603.022-1.224.162-1.851.219-.902.009-2.126.287-3.393.128-.506.028-1.271.212-2.126.453-1.957.378-4.136.921-6.24 1.239-4.742 2.123-9.571 3.765-13.986.325-.852.462-1.736.862-2.703.949-2.313 1.823-4.686 2.831-7.018.397-.893 1.121-2.088 1.355-2.85-.019-.103-.034-.225-.056-.396v-3.502c0-1.567-.041-2.847-.403-4.196-.599-2.223-.843-4.249-1.608-6.094-1.439-3.5-2.944-6.877-4.386-10.399-.677-1.676-.69-3.428-1.09-5.179l-.016-.062v-2.503c-.075-.125-.293-.34-.524-.621-1.033-1.392-2.482-2.167-4.158-3.184-3.475-2.12-7.449-3.759-11.036-5.941-.89-.546-1.926-.858-2.969-1.483-2.113-1.289-4.386-2.438-6.412-3.918-1.121-.834-1.964-1.92-2.9-2.622-1.124-.852-2.229-1.954-3.081-3.078-.44-.596-1.171-1.13-1.764-1.911-.559-.746-1.489-1.411-2.195-2.335-2.126-2.816-4.623-5.351-6.793-8.276-.568-.777-1.342-1.539-1.982-2.41-1.164-1.58-2.22-3.162-3.275-4.839-.4-.656-1.074-1.289-1.311-2.388-.062-.056-.165-.091-.24-.315-.737-.768-.965-1.308-1.074-1.399-.743-.556-1.427-1.193-1.979-1.982-.315.169-.671.347-1.096.45-.181.044-.362.066-.549.066-1.511-.071-3.452-1.101-3.574-2.83 0-.156.019-.322.069-.471.415-1.377 1.53-1.967 2.254-2.582-.106-.29-.134-.593-.14-.89.006-.456.075-.88.268-1.242l.034-.072.053-.05c.312-.356.737-.624 1.317-.702.225-.949 1.046-1.52 1.873-1.514.006 0 .047 0 .044.003.066.003.134.003.2.006.131-.231.306-.59.846-.952.293-.125.587-.175.843-.175.256.003.468.041.649.078.144-.197.356-.471.755-.674l.041-.019.056-.016c.265-.066.503-.1.727-.1.693-.003 1.136.325 1.458.512.599.437.821.874 1.043 1.015.79-.45 2.051-.662 2.707-.871.331-.044.659-.087.993-.134.184-.091.54-.378.912-.606.372-.162.752-.328 1.096-.475.731-.378 1.558-.862 2.366-1.221 1.976-.871 3.993-1.605 5.953-2.41.777-.315 8.463-2.8 11.822-3.634 5.903-1.454 10.111-2.291 14.919-3.118 3.425-.584 10.346-1.383 15.64-1.636 1.939-.19 7.049-.243 10.52-.284.156-.003.363-.003.625-.003 2.451 0 9.269.084 14.004.503 3.718.318 16.614 1.857 25.04 3.759 5.029 1.136 9.624 2.338 14.129 3.834 1.501.499 2.944.927 4.386 1.417.474.162 1.626.465 2.245.627.109-.106.228-.234.275-.318l.044-.075.075-.059c.331-.272.331-.368.833-.874.387-.375.893-.88 1.477-1.18.337-.172.702-.234 1.055-.234.309 0 .606.047.887.172.549.225.93.543 1.227 1.03.094.165.162.337.209.518.334-.115.699-.165 1.071-.169.412 0 .837.066 1.233.215l.056.022.056.037c.409.253.624.634.731 1.043.602.041 1.233.237 1.601.927.047.131.137.309.194.559 1.243.328 1.789 1.514 1.742 2.575 0 .737-.184 1.483-.465 2.145-.846 1.989-2.294 3.537-3.556 4.961-.59.599-1.57 1.386-1.889 1.979l.421.371-.375.412c-.184.175-.272.584-.574 1.121-.531.868-.949 1.895-1.564 2.9-1.374 2.257-2.438 4.904-3.887 7.286-.49.793-.762 1.745-1.349 2.688-3.162 5.085-7.305 9.234-10.773 13.836-2.866 3.787-7.249 6.209-11.835 8.095-1.186.484-2.366.581-3.428.937-1.561.515-3.006 1.18-4.158 2.039-.384.281-.812.83-1.164 1.305-.568.768-1.196 1.514-1.67 2.291-1.13 1.848-1.723 4.342-2.404 6.724-.187 1.249-.372 2.501-.578 3.821-.581 2.048-1.243 4.208-1.914 6.247-.421 1.267-.546 2.638-1.074 4.049-1.024 2.782-1.895 5.735-2.516 8.853-.041.2-.062.343-.062.453 0 .119.016.206.066.4.122.824.237 1.648.359 2.522.044.774.091 1.552.137 2.329.39 1.193 1.539 2.822 2.257 3.993 1.355 2.21 2.413 4.664 3.431 7.074 1.205 2.844 1.786 6.034 2.641 9.047.3 1.077.303 1.995.568 2.903 1.09 3.84 1.854 7.586 2.9 11.316.434 1.564.446 3.178.799 4.608.371 2.969.749 5.941 1.13 8.941.05.712.097 1.42.128 2.045.593 2.719.075 5.966.64 8.416l.009.044.003.059c.022.574.041 1.149.069 1.723.206 1.052.069 2.079.272 2.919.075.343.215.971.219 1.601-.003.234-.025.475-.084.718-.318 1.105-1.093 1.536-1.436 2.029-.915 1.205-2.101 2.323-3.209 3.147-.162.181-.328.378-.578.64-.977.734-1.929 1.598-2.985 2.351-3.784 2.669-7.72 5.135-11.7 7.58-1.957 1.205-3.993 2.319-5.963 3.409-.437.222-1.48.696-1.783.965.278.715.328 1.327.537 1.814.521 1.283.946 2.585 1.48 3.802.465 1.055 1.127 2.204 1.629 3.325.949 2.138 1.864 4.214 3.013 6.094.662 1.105 1.03 2.226 1.654 3.122.013.012.028.028.041.041.215.2.537.499.974.905.668.662 1.246 1.367 1.848 1.989 1.077 1.108 2.32 2.728 3.059 4.152.156.309.446.912.453 1.583 0 .219-.034.456-.153.681-.218.515-.574.69-.624.802-.634.865-1.311 1.664-1.907 2.476-1.346 1.829-2.572 3.656-3.796 5.622-.359.574-.79 1.164-1.024 1.701-.25.568-.44 1.224-.606 1.889-.215.815-.062 1.704-.45 2.691-.74 1.795-2.322 2.972-3.968 3.696-1.889.821-4.289 1.452-6.871 1.461-.256 0-.562.006-.88.006-.895-.062-2.016.072-2.599-.867m-1.493-40.3c.574.955 1.395 1.867 2.101 2.869 1.861 2.644 3.718 5.522 4.942 8.825.855 2.326.88 4.904 1.436 7.277.225.996.122 1.942.287 2.632.134.634.153 1.267.156 1.876 0 .262-.003.531-.003.79 0 .568.019 1.099.128 1.58.072.347.094.793.094 1.286 0 .824-.062 1.708-.165 2.195-.2.899-.038 1.826-.453 2.86-.99 2.304-3.262 3.165-4.857 4.342-.409.25-1.564 1.598-1.508 2.46 0 .24.056.434.215.64l.047.066.028.075c0 .003.075.119.415.19.318.075.777.094 1.23.094.303 0 .606-.003.88-.003 2.401-.003 4.667-.599 6.428-1.364 1.492-.659 2.813-1.686 3.39-3.106.268-.593.15-1.455.4-2.535.172-.693.378-1.408.668-2.073.306-.696.774-1.311 1.093-1.839 1.239-1.985 2.482-3.843 3.849-5.691.621-.852 1.299-1.651 1.907-2.479.315-.375.477-.462.49-.559l.019-.056.025-.044c.009-.012.031-.069.031-.169.013-.3-.215-.868-.331-1.061-.665-1.292-1.873-2.881-2.875-3.902-.643-.671-1.218-1.367-1.817-1.964-.421-.393-.743-.687-.961-.89-.25-.24-.25-.219-.39-.381 0-.003-.003-.006-.003-.009-.003-.006-.006-.009-.01-.016-.012-.006-.034-.016-.059-.097-.034-.072-.053-.144-.041-.203-.543-.927-.887-1.876-1.389-2.694-1.192-1.964-2.129-4.083-3.072-6.215-.468-1.049-1.133-2.201-1.636-3.331-.559-1.286-.99-2.6-1.492-3.834-.303-.777-.334-1.436-.624-2.026l-.069-.147.022-.159c.181-.734.715-.921 1.189-1.227.49-.262 1.027-.493 1.214-.599 1.976-1.093 3.996-2.201 5.922-3.378 3.974-2.444 7.892-4.901 11.641-7.545.983-.702 1.929-1.555 2.882-2.263.159-.178.318-.365.571-.634 1.121-.846 2.241-1.904 3.072-3.006.584-.73 1.093-1.002 1.252-1.645.034-.116.05-.265.047-.437.003-.462-.119-1.036-.19-1.361-.244-1.114-.097-2.179-.281-2.975l-.012-.047v-.047c-.025-.574-.047-1.152-.069-1.72-.59-2.753-.078-5.978-.64-8.454-.047-.715-.094-1.417-.141-2.095-.375-2.972-.755-5.941-1.118-8.85-.372-1.542-.387-3.141-.777-4.511-1.055-3.784-1.826-7.524-2.9-11.316-.3-1.086-.303-2.001-.562-2.897-.874-3.081-1.455-6.234-2.597-8.919-1.018-2.41-2.06-4.811-3.353-6.93-.699-1.152-1.917-2.819-2.391-4.289l-.022-.072-.003-.066c-.047-.805-.097-1.605-.14-2.363-.115-.821-.231-1.651-.331-2.391-.066-.215-.097-.428-.097-.637 0-.225.034-.443.084-.674.634-3.178 1.52-6.187 2.566-9.013.465-1.236.593-2.588 1.058-4.015.665-2.02 1.32-4.168 1.886-6.131.187-1.252.378-2.504.578-3.821.69-2.416 1.277-4.992 2.538-7.068.537-.874 1.18-1.639 1.726-2.379.362-.481.818-1.096 1.392-1.527 1.286-.962 2.835-1.661 4.464-2.201 1.23-.4 2.382-.499 3.359-.908 4.514-1.851 8.713-4.211 11.369-7.745 3.537-4.68 7.651-8.8 10.723-13.751.484-.765.762-1.717 1.342-2.679 1.386-2.273 2.454-4.92 3.89-7.286.553-.902.968-1.926 1.555-2.897.109-.162.178-.381.29-.631l-.066-.019.05-.475c.237-1.442 1.789-2.32 2.263-2.922 1.274-1.433 2.622-2.903 3.365-4.655.228-.54.378-1.174.378-1.717-.05-.927-.268-1.424-1.199-1.558l-.318-.034-.128-.287c-.034-.075-.047-.178-.047-.234v-.006c0-.259-.05-.284-.153-.581-.034-.119-.315-.272-.877-.268-.047 0-.1 0-.162.003l-.506.019-.062-.499c-.106-.578-.056-.521-.293-.712-.231-.078-.499-.119-.765-.119-.365-.006-.718.087-.89.172-.009.053-.025.125-.066.228-.037.072-.156.356-.562.384h-.574l.022-.574c.003-.066.006-.128.006-.187.016-.322-.106-.868-.14-.871-.287-.406-.268-.393-.752-.624-.094-.044-.259-.081-.437-.081-.206 0-.418.05-.556.122-.356.169-.837.612-1.196.977-.39.384-.449.534-.84.874-.268.39-.643.684-.656.706l-.225.187-.284-.081c-.4-.112-1.942-.503-2.6-.727-1.417-.478-2.86-.908-4.383-1.411-4.461-1.48-9.016-2.679-14.023-3.805-8.323-1.879-21.238-3.425-24.893-3.737-4.664-.412-11.482-.499-13.908-.499-.256 0-.465.003-.612.006-3.459.034-8.604.097-10.449.278-5.263.253-12.184 1.052-15.54 1.626-4.789.827-8.96 1.648-14.841 3.103-3.235.794-11.049 3.322-11.664 3.575-1.985.818-3.999 1.552-5.925 2.401-.734.322-1.545.796-2.338 1.205-.372.165-.752.328-1.065.459-.228.128-.609.49-1.077.684l-.066.022-.059.006c-.359.05-.706.097-.98.128-.687.184-2.285.587-2.485.812l-.19.156-.247-.031c-1.102-.222-1.364-1.164-1.611-1.205-.421-.243-.565-.359-.902-.362-.1 0-.237.016-.409.053-.137.087-.253.306-.571.649l-.2.197-.278-.047c-.322-.053-.556-.125-.771-.122-.128 0-.253.019-.322.037-.284.175-.24.353-.665.893l-.066.078-.091.047c-.209.081-.25.075-.293.072-.016-.003-.041-.006-.078.003-.115 0-.253-.006-.418-.012v.003c-.462.034-.793.209-.834.943l-.003.543-.54.003c-.705.041-.631.034-.965.343-.05.131-.106.396-.097.643-.012.309.081.603.141.659l.309.381-.343.353c-.965.933-2.023 1.402-2.27 2.391-.019.047-.025.103-.025.159-.016.303.281.765.809 1.127.509.365 1.192.596 1.664.593.112 0 .209-.012.293-.031.393-.091.815-.35 1.292-.593l.456-.225.265.437c.499.837 1.177 1.498 2.042 2.157.421.456.506.827 1.249 1.567l.475.471-.096.063c.025.066.047.147.066.25.006.022.006.05 0 .078.169.659.646 1.152 1.139 1.911 1.049 1.664 2.088 3.222 3.231 4.776.565.774 1.336 1.542 1.982 2.404 2.104 2.847 4.598 5.379 6.787 8.27.553.746 1.486 1.414 2.191 2.338.459.615 1.18 1.143 1.764 1.907.787 1.036 1.836 2.079 2.869 2.866 1.093.83 1.929 1.911 2.888 2.61 1.926 1.411 4.171 2.551 6.331 3.865.884.537 1.923.852 2.972 1.483 3.484 2.129 7.458 3.768 11.035 5.944 1.623.993 3.244 1.826 4.464 3.462.106.175.521.446.724 1.015l.022.081v2.563c.409 1.876.446 3.559 1.021 4.951 1.439 3.503 2.941 6.88 4.383 10.399.837 2.032 1.077 4.102 1.658 6.225.403 1.505.44 2.9.44 4.483v1.314c0 .731 0 1.458-.009 2.104.025.134.05.275.072.428l.019.115-.028.112c-.287 1.033-1.09 2.288-1.445 3.112-.99 2.295-1.861 4.661-2.822 6.999-.34.818-.481 1.686-.846 2.672-1.598 4.286-2.482 9.084-3.731 13.879-.496 1.886-.428 4.058-.915 6.206-.147.599-.044 1.333-.209 2.123-.234.977-.025 2.179-.287 3.396-.112.49-.137 1.033-.137 1.605 0 .365.009.752.009 1.139 0 .568-.019 1.146-.14 1.723-.044 2.251-.094 4.495-.137 6.74v.056l-.022.066c-.009.034-.019.15-.016.287-.003.159.006.359.006.578 0 .212-.003.437-.059.677-.309 1.358-.091 2.981-.499 4.548-.499 1.87-1.108 3.44-1.108 5.591v1.077c.347 1.492.787 2.713 1.514 3.699.936 1.286 2.738 2.316 3.893 3.818.609.815 1.433 1.555 2.12 2.472 1.848 2.476 3.809 4.845 5.66 7.364.668.902 1.464 1.779 2.191 2.753.094.181.599.406.859 1.068l-.287.153.312-.034s.006.016.006.062c-.003.003-.003.006-.003.006 0 .016-.003.028-.003.044h-.003l-.387-.037-.159.084-.003.453c.325-.016.465-.24.521-.381-.197.727-.78.98-.946 1.255-.409.465-.774.99-1.23 1.58-.259.265-.521.528-.724.727-.824 1.08-1.73 1.973-2.554 3.05-.234.206-.468.425-.637.553-.865 1.152-2.092 2.476-3.415 3.259l-.047.025-.05.016c-.39.144-.793.287-1.127.396-2.098 1.071-4.436 2.348-5.029 4.48-.044.137-.062.312-.062.496-.003.421.122.896.247 1.174.197.459.752.915 1.214 1.52.727.993 1.533 1.957 2.27 2.978 1.339 1.873 2.975 3.84 3.952 6.194.156.381.181.759.181 1.121 0 .331-.025.649-.025.952 0 .268.025.531.078.759.165.656.412 1.342.715 1.826 1.099 1.779 2.888 2.872 4.842 4.068.874.546 2.847 1.552 4.314 1.539.409 0 .768-.069 1.065-.222.106-.431.234-.912.234-1.308 0-.165-.022-.309-.062-.431-.172-.621-.99-1.205-1.467-2.213-.49-1.133-.721-2.379-1.018-3.553-.231-.949-.112-1.686-.284-2.419-.343-1.511-.372-3.2-.372-4.911 0-.409.003-.818.003-1.221 0-.456-.009-.899-.009-1.342 0-.887.031-1.764.237-2.61.656-2.688 1.542-4.895 2.666-7.055.693-1.305 1.224-3.165 2.569-4.164.028-.025.041-.041.053-.056l.496-.549zm17.339 12.163c-.003-.003-.003-.003-.009-.003h-.006c.008 0 .012.003.015.003m.327-.993c-.009-.006-.019-.016-.028-.025v.006c.01.007.019.013.028.019m-.065-.047c-.028-.022-.059-.031-.087-.034.019.006.034.012.05.019s.028.009.037.015m52.365-181.191.003-.003zm2.628-13.424.549-.072zm-79.031 176.824h.003c0 .003-.006.053-.031.119.009-.038.019-.078.028-.119m9.45-14.273c-.315-.546-.446-.834-.687-1.168-.565-.809-1.324-1.598-2.057-2.329-1.686-1.723-4.252-3.094-5.232-6.025-.206-.656-.29-1.645-.294-2.641.003-.83.066-1.623.219-2.204.481-1.764 1.486-2.931 2.266-4.124.684-1.04 1.308-2.151 1.967-3.234.05.028-.034-.225.215-.712 1.523-2.507 2.285-5.307 3.34-8.516 1.296-3.943 2.7-8.06 2.7-13.118 0-.19 0-.381-.006-.571l-.019-1.408.971 1.018c.752.937.543 2.616.858 3.222.802 1.967 1.514 4.124 2.204 6.187.409 1.246.599 2.357 1.046 3.431 1.742 4.258 3.5 8.201 5.763 11.878.849 1.38 1.614 2.816 2.472 4.168.269.44.768.98 1.09 1.605.29.624.272 1.377.3 2.113.01.715.084 1.43.178 1.536l.122.222-.078.237c-.362.874-1.196 1.008-1.536 1.23-.662.347-1.358.765-2.088 1.149-.381.169-.762.328-1.065.459-2.632 1.601-5.42 2.875-7.917 4.455-.983.624-1.886 1.424-2.806 2.126-.3.293-.596.596-.899.896v1.904zm-2.872-21.153c-.649 1.065-1.28 2.185-1.995 3.272-.84 1.271-1.717 2.313-2.12 3.805-.109.396-.181 1.152-.181 1.914 0 .912.1 1.882.24 2.301.78 2.435 3.075 3.721 4.964 5.582.74.743 1.545 1.57 2.182 2.479.144.203.25.384.359.574.197-.2.403-.403.624-.615.933-.718 1.861-1.542 2.941-2.232 2.585-1.636 5.379-2.906 7.998-4.495.375-.162.752-.331 1.093-.481.665-.347 1.358-.762 2.048-1.124.406-.187.759-.359.921-.49-.175-.531-.156-1.124-.184-1.733-.009-.718-.072-1.455-.19-1.655-.203-.425-.681-.949-1.033-1.502-.884-1.405-1.651-2.841-2.479-4.183-2.316-3.765-4.096-7.764-5.844-12.041-.499-1.214-.69-2.354-1.074-3.496-.643-1.929-1.302-3.918-2.02-5.732-.421 3.905-1.564 7.258-2.594 10.402-1.043 3.165-1.817 6.053-3.443 8.744h-.003c-.042.001.024.219-.21.706m5.457-23.117.403-.381zm11.001-81.46c-.961-.25-2.747-.003-3.918-.624h-.49l-.056-.487c-.162-1.349-.578-2.507-1.102-4.464-.05-.125-.047-.225-.047-.244.019-.318.112-.512.2-.74.272-.618.612-1.324.818-1.889.194-.78.384-1.555.565-2.338l.019-.072.031-.062c.278-.465.681-.787.799-1.008.484-.784.821-2.123.837-3.396.006-.387.066-.727.066-.98 0-.187-.028-.309-.066-.378.006-.016-.456-.384-.681-.518l-.24-.169v-.284c0-.172.013-.331.013-.465.012-.29-.034-.496-.053-.496l-.103-.147.003-.184c.009-.022-.006-.1.047-.3.025-.013.016-.1.087-.194-.156-5.263-2.679-8.866-6.378-10.439-.971-.415-2.404-.724-3.799-.724-.79 0-1.57.1-2.254.318-1.027.328-2.088.765-2.913 1.283-1.917 1.208-3.375 3.234-4.158 5.647-.2.606-.234 1.408-.409 2.216-.059.25-.081.559-.081.893 0 .768.128 1.639.197 2.394h.156l.087.446c.094.493.19.99.284 1.483l.022.125-.028.119c-.125.356-.309.562-.287.568-.034.119-.056.325-.056.565 0 .746.209 1.808.331 2.167.247.759.612 1.655 1.002 2.282.078.175.524.453.809.974l.025.056.016.059c.047.212.094.428.112.549.418 1.049 1.295 3.091 1.889 3.531l.265.215-.075.331c-.194.865-.475 1.527-.79 2.522l-.075.228-.215.103c-.674.318-1.436.612-2.291.83-.562.069-1.127.14-1.62.197-.709.187-1.498.446-2.188.634l-.072.022h-1.702c-.649 0-1.414.044-2.163.047-.562-.003-1.121-.025-1.633-.134-.284-.059-.603-.084-.937-.084-.731 0-1.552.112-2.357.116-.35 0-.693-.019-1.033-.087-1.018 0-2.035 0-3.103-.003-1.601-.15-3.471-.078-5.007-.421-.418-.025-.843-.047-1.267-.069l-.05-.003-.044-.012c-1.314-.306-2.913-.356-4.271-.699-.49-.069-.99-.14-1.486-.212l-.066-.009-.062-.022c-.927-.39-1.551-1.305-2.001-1.879-.571-.771-1.536-1.458-2.263-2.401-.297-.4-.606-.824-.883-1.027-1.164-.883-2.204-1.889-3.312-2.679-2.835-2.035-5.682-3.993-8.557-6.009-2.61-1.839-5.079-3.852-7.586-5.744-.306-.24-.69-.684-1.108-1.13-.297-.331-.643-.652-.796-.78l-.677.169.187-.865c.197-.899.253-2.11.493-3.247.037-.172.05-.387.047-.627 0-.153-.003-.318-.003-.487 0-.144.006-.293.012-.4 0-.35.041-1.183.094-1.58l.016-.128.075-.112c.506-.524.896-.378 1.445-.434.865.003 1.907.14 2.482.309.718.228 1.196.699 1.58.89.375.212.406.281.556.29.949-.153 2.372-1.898 3.668-2.625 3.79-1.97 7.839-3.531 11.86-5.185 4.664-1.917 9.659-3.203 14.797-4.408 3.25-.765 11.663-2.254 15.774-2.632 2.825-.29 12.003-.712 12.965-.712.337-.022.89-.025 1.561-.025 2.101 0 5.366.072 6.265.094 1.118.028 6.887.353 11.438.712 2.822.309 4.67.546 6.949.852 2.113.284 3.312.462 4.979.784 4.608.883 7.982 1.545 12.393 2.551 2.947.668 5.938 1.386 8.822 2.348 1.015.337 2.142.634 3.25.986.727.231 1.664.528 2.201.709l.137.044.1.112c.006.009.019.022.019.022l.222.194-.034.29c-.053.412-.072.827-.072 1.246-.003 1.361.219 2.757.219 4.346 0 .503-.094 1.046-.094 1.458-.006.315.072.506.094.509l.209.237-.097.303c-.553 1.573-2.073 2.388-2.7 3.275-.74.968-1.62 1.695-2.385 2.463-1.289 1.286-2.566 2.644-4.09 3.796-.615.456-1.171 1.283-1.982 1.911-1.18.89-2.32 2.039-3.284 3.29-.259.24-.521.475-.709.631-.662.871-1.458 1.495-1.979 2.198-.743.968-2.02 2.607-3.097 3.372-2.51 1.748-6.49 2.863-9.643 3.759-1.402.39-2.666.372-3.899.709-1.807.478-3.64.643-5.373 1.13-1.267.353-2.678.681-3.921.996-.134.028-.272.041-.425.041-.927-.014-2.497-.366-2.993-.473m.234-1.077c.462.103 2.082.446 2.757.44.094 0 .169-.009.178-.012 1.233-.312 2.635-.64 3.871-.986 1.861-.518 3.696-.684 5.382-1.13 1.42-.375 2.685-.362 3.887-.709 3.144-.88 7.065-2.017 9.312-3.596.821-.568 2.148-2.201 2.844-3.134.649-.852 1.449-1.473 2.048-2.27.259-.237.525-.475.712-.634.958-1.264 2.166-2.476 3.434-3.431.615-.453 1.168-1.28 1.979-1.907 1.424-1.077 2.672-2.398 3.974-3.699.821-.815 1.654-1.511 2.285-2.348.824-1.043 2.026-1.801 2.444-2.719-.15-.312-.165-.637-.168-.94 0-.54.094-1.099.087-1.458.006-1.483-.212-2.866-.215-4.346 0-.318.006-.643.037-.974-.534-.175-1.252-.403-1.839-.59-1.077-.34-2.21-.64-3.265-.99-2.828-.943-5.778-1.655-8.719-2.323-4.399-.999-7.751-1.655-12.356-2.541-1.645-.318-2.809-.49-4.92-.774-2.276-.306-4.108-.54-6.905-.846-4.503-.355-10.306-.679-11.364-.704-.89-.025-4.161-.094-6.237-.094-.665 0-1.208.003-1.526.022-.893 0-10.158.428-12.893.709-4.007.368-12.467 1.86-15.629 2.606-5.117 1.199-10.065 2.476-14.629 4.352-4.036 1.667-8.06 3.215-11.769 5.145-1.002.471-2.373 2.401-4.052 2.744l-.044.006h-.047c-.631 0-.977-.368-1.105-.412-.571-.315-1.002-.712-1.386-.815-.381-.119-1.439-.265-2.163-.262-.181-.003-.35.009-.475.025-.025.381-.053.937-.053 1.164-.009.119-.009.237-.009.362v.487c0 .272-.006.556-.069.855-.194.877-.256 1.898-.415 2.831.3.209.49.509.846.818.437.471.93 1.008 1.061 1.099 2.519 1.907 4.982 3.908 7.552 5.719 2.863 2.014 5.716 3.971 8.563 6.013 1.189.858 2.242 1.873 3.331 2.697.484.371.815.868 1.102 1.242.565.762 1.536 1.449 2.266 2.401.403.556 1.008 1.292 1.467 1.495.475.066.955.134 1.474.212 1.233.315 2.813.372 4.268.696.409.022.818.044 1.311.078 1.411.315 3.256.259 4.901.412h3.172l.053.013c.253.053.543.075.862.075.702 0 1.523-.115 2.357-.115.387 0 .78.028 1.164.109s.877.109 1.405.106c.706.003 1.467-.044 2.163-.044h1.548c.637-.175 1.405-.428 2.201-.634.568-.072 1.133-.144 1.63-.2.621-.162 1.239-.393 1.811-.646.253-.777.465-1.33.618-1.901-.883-.968-1.53-2.741-1.979-3.799-.044-.19-.087-.381-.131-.574-.1-.134-.453-.421-.724-.815-.465-.755-.846-1.704-1.108-2.519-.169-.524-.378-1.58-.384-2.51 0-.297.016-.578.087-.849.072-.237.178-.387.244-.49-.056-.29-.112-.578-.165-.868h-.287l-.022-.528c-.022-.715-.234-1.876-.237-2.966 0-.387.028-.774.109-1.139.156-.668.181-1.498.437-2.31.852-2.619 2.444-4.864 4.614-6.24.949-.593 2.085-1.055 3.172-1.402.821-.262 1.708-.368 2.588-.372 1.558.003 3.094.334 4.23.815 4.233 1.783 7.058 6.047 7.058 11.894v.621c.003.087.003.175.009.259 0 .059 0 .122-.006.178.244.162.556.381.777.727.172.309.203.627.203.908 0 .39-.066.737-.066.993-.025 1.452-.371 2.919-.996 3.955-.262.409-.612.721-.737.912-.181.755-.362 1.508-.568 2.316-.253.696-.606 1.417-.858 2.01-.025.053-.059.144-.081.219-.006.022-.013.037-.019.05.475 1.754.88 2.906 1.086 4.252.487.364 2.406.289 3.649.523m-23.601-16.224-.543.103.543-.103v-.006z" fill="#231f20" fill-rule="nonzero"/><path d="m149.058 18.204c-.693-.147-1.183-.624-1.536-1.027-.275.084-.565.119-.865.122-.656.013-1.52-.215-1.901-.896-.168.034-.346.047-.515.05-.521-.009-.996-.109-1.38-.368-.568-.487-.702-1.242-.746-1.979.006-.309.028-.624.268-.94.181-.222.512-.259.74-.075.225.184.256.515.075.737.016.012-.038.081-.031.278-.006.337.125.84.253 1.046.034.066.047.078.05.078.066.059.443.181.771.172.25.006.471-.062.537-.119.156-.119.368-.137.543-.053.175.087.287.265.296.462 0 .3.372.537 1.04.556.312.006.618-.075.755-.156.225-.125.503-.072.665.128.306.4.862.924 1.161.949.012.003.037.006.047.006.103.041.365-.225.827-.556h.006c.24-.153.568-.075.718.172.156.247.075.571-.165.721-.228.097-.581.671-1.386.715-.077-.001-.149-.01-.227-.023" fill="#231f20" fill-rule="nonzero"/><path d="m10.396 20.725c-.097 0-.178-.006-.259-.006-.312-.006-.559-.259-.556-.571.003-.309.262-.559.574-.556.097.003.178.006.24.006.334-.013.412-.016.98-.325.381-.197.462-.599.815-1.214.162-.265.512-.343.774-.181.265.165.343.509.181.774-.219.303-.365 1.108-1.218 1.601-.571.34-1.024.471-1.486.471-.017.001-.03.001-.045.001" fill="#231f20" fill-rule="nonzero"/><path d="m65.243 104.097c16.065 1.008 32.623-1.314 32.67-1.704.062-.49-.428-5.316-.731-5.226-8.251 2.663-32.076 1.642-32.089 2.054-.043 1.989-.006 4.864.15 4.876" fill="#231f20" fill-rule="nonzero"/><path d="m78.755 104.585c1.995.194 6.244-.094 6.244-.481 0 0 .041-5.404-.147-5.426-.918-.109-6.244-.122-6.247.293-.053 1.98-.009 5.602.15 5.614" fill="#fff" fill-rule="nonzero"/><path d="m78.699 105.134.053-.549-.056.549c-.409-.091-.421-.3-.468-.35-.034-.075-.041-.122-.056-.175-.016-.094-.031-.194-.041-.309-.025-.237-.044-.543-.056-.908-.031-.727-.047-1.673-.047-2.588 0-.665.012-1.314.025-1.836.05-.462.331-.534.431-.593.131-.056.253-.087.393-.115.281-.053.631-.091 1.04-.119.809-.059 1.833-.081 2.753-.081 1.005 0 1.861.025 2.245.069.493.144.428.359.481.4.022.075.031.125.044.184.012.106.028.225.041.375.019.293.034.684.047 1.124.019.874.025 1.942.025 2.738v1.155c-.059.475-.328.534-.434.606-.134.066-.272.103-.428.144-.315.072-.715.131-1.183.181-.933.103-2.11.162-3.172.162-.604-.001-1.166-.02-1.637-.064m1.636-1.039c1.514.016 3.462-.169 4.111-.315v-.83c.012-1.133-.025-3.022-.062-3.752-.415-.019-1.043-.034-1.714-.031-1.289-.019-2.925.069-3.521.165-.012.443-.012.955-.012 1.473-.006 1.261.028 2.625.078 3.262.333.018.717.028 1.12.028" fill="#231f20" fill-rule="nonzero"/><path d="m80.408 102.89c1.995.197 3.075.15 3.075-.237 0 0 .062-2.344-.237-2.419-.549-.14-3.025-.315-3.031.097-.05 1.978.04 2.546.193 2.559" fill="#231f20" fill-rule="nonzero"/><path d="m4.715 245.551h5.161v9.007h9.496v-9.007h5.157v23.47h-5.157v-10.127h-9.496v10.127h-5.161z" fill="#231f20" fill-rule="nonzero"/><path d="m26.729 257.253c.265-4.37 4.177-5.688 7.989-5.688 3.384 0 7.461.759 7.461 4.829v8.844c0 1.545.162 3.091.59 3.78h-4.733c-.162-.528-.294-1.086-.328-1.642-1.477 1.539-3.646 2.101-5.716 2.101-3.225 0-5.788-1.611-5.788-5.095 0-3.846 2.894-4.764 5.788-5.16 2.856-.428 5.519-.328 5.519-2.235 0-2.004-1.38-2.301-3.025-2.301-1.773 0-2.925.724-3.087 2.566h-4.67zm10.783 3.452c-.79.69-2.432.721-3.877.983-1.449.293-2.763.787-2.763 2.497 0 1.742 1.349 2.167 2.86 2.167 3.649 0 3.78-2.888 3.78-3.908z" fill="#231f20" fill-rule="nonzero"/><path d="m44.15 252.025h4.433v3.156h.066c.858-2.135 2.516-3.618 4.786-3.618.325 0 .234.069.534.169v4.336c-.428-.097-.637-.162-1.196-.162-3.415 0-3.955 2.466-3.955 5.457v7.658h-4.668z" fill="#231f20" fill-rule="nonzero"/><path d="m55.419 245.55h4.667v23.47h-4.667z" fill="#231f20"/><path d="m65.967 261.656c.134 2.959 1.58 4.305 4.174 4.305 1.876 0 3.387-1.149 3.681-2.204h4.111c-1.314 4.012-4.111 5.722-7.954 5.722-5.357 0-8.679-3.684-8.679-8.941 0-5.098 3.518-8.972 8.679-8.972 5.782 0 8.579 4.864 8.251 10.09zm7.595-2.96c-.428-2.366-1.448-3.615-3.715-3.615-2.959 0-3.812 2.301-3.88 3.615z" fill="#231f20" fill-rule="nonzero"/><path d="m96.896 275h-4.667v-8.117h-.066c-1.08 1.839-3.321 2.594-5.357 2.594-3.122 0-7.199-2.27-7.199-8.841 0-4.667 2.466-9.072 7.627-9.072 2.104 0 4.108.759 5.16 2.632h.066v-2.17h4.436zm-8.578-9.041c3.025 0 4.077-2.563 4.077-5.357 0-2.66-1.052-5.519-3.977-5.519-3.022 0-4.139 2.694-4.139 5.454-.001 2.731.982 5.422 4.039 5.422" fill="#231f20" fill-rule="nonzero"/><path d="m114.708 269.02h-4.439v-2.369h-.097c-1.18 1.907-3.219 2.828-5.192 2.828-4.96 0-6.212-2.794-6.212-7.002v-10.452h4.667v9.6c0 2.788.821 4.171 2.991 4.171 2.529 0 3.615-1.411 3.615-4.864v-8.906h4.667z" fill="#231f20" fill-rule="nonzero"/><path d="m121.411 249.399h-4.667v-3.849h4.667zm-4.667 2.626h4.667v16.995h-4.667z" fill="#231f20" fill-rule="nonzero"/><path d="m123.446 252.025h4.436v2.363h.1c1.18-1.901 3.222-2.825 5.192-2.825 4.967 0 6.212 2.797 6.212 7.002v10.455h-4.664v-9.599c0-2.794-.824-4.174-2.994-4.174-2.529 0-3.612 1.414-3.612 4.864v8.91h-4.67z" fill="#231f20" fill-rule="nonzero"/><path d="m144.906 263.496c.034 2.039 1.742 2.86 3.584 2.86 1.348 0 3.053-.524 3.053-2.17 0-1.414-1.936-1.904-5.291-2.629-2.694-.59-5.388-1.542-5.388-4.536 0-4.336 3.746-5.457 7.396-5.457 3.715 0 7.13 1.249 7.492 5.423h-4.436c-.131-1.804-1.514-2.301-3.187-2.301-1.052 0-2.597.2-2.597 1.58 0 1.68 2.629 1.907 5.291 2.529 2.725.627 5.391 1.614 5.391 4.767 0 4.47-3.881 5.916-7.758 5.916-3.946 0-7.789-1.48-7.989-5.981h4.439z" fill="#231f20" fill-rule="nonzero"/></g></g></svg>