<svg clip-rule="evenodd" fill-rule="evenodd" stroke-linejoin="round" stroke-miterlimit="2" viewBox="0 0 560 400" xmlns="http://www.w3.org/2000/svg"><path d="m431.065 210.924c-4.901 4.621-6.673 8.337-6.673 13.434 0 7.915 6.938 9.631 14.908 12.736 5.915 2.301 10.476 4.086 10.476 9.441 0 10.928-19.114 14.956-23.441 19.431-1.98 2.051-2.981 4.037-2.981 7.061 0 1.571.093 5.058 4.329 5.058 5.115 0 15.757-6.237 21.446-10.477 6.286-4.672 9.649-10.226 9.649-17.607 0-6.15-3.691-11.213-7.708-13.684-3.601-2.217-8.93-3.282-12.739-4.832-7.058-2.885-4.979-6.538-1.917-9.82 9.379-10.034 17.207-7.011 21.432-11.71 1.79-2.004 2.154-5.187 2.154-6.15 0-3.343-2.437-5.645-5.091-5.645-2.572 0-15.525 4.92-23.844 12.764zm-27.076 3.436c2.458 0 1.799 2.852 1.799 3.836 0 4.233-8.556 26.859-13.87 26.859-1.182 0-1.844-.698-1.844-3.057 0-5.711 8.301-27.638 13.915-27.638zm-55.454 6.201c3.508.436 3.241 2.358 7.083 3.538 3.839 1.182 6.198.59 8.259.59 2.073 0 2.139.887 2.139 4.729 0 4.917-2.076 17.048-11.328 17.048-8.951 0-9.812-11.238-9.812-16.166 0-6.201 1.297-10.04 3.659-9.739zm3.719-6.752c0-3.15 2.551-4.282 4.91-4.282 2.756 0 6.713 3.319 6.713 6.274 0 1.67-1.342 3.725-4.39 3.725-2.657 0-7.233-2.176-7.233-5.717zm-203.523 64.531h5.346c5.353 0 6.051-2.587 6.051-8.782 0 0-.04-48.041-.04-51.284 0-3.247.647-3.917 3.912-4.357 3.285-.445 12.763-1.402 15.131-1.402 1.931 0 3.448.47 3.21 4.206v53.722c0 6.207.728 7.386 3.397 7.386h4.976c3.503 0 4.249-3.352 4.249-7.386 0-3.545-.039-50.767-.039-54.609 0-3.352.466-4.381 4.425-4.826 1.294-.154 7.375-.596 10.113-.596 6.354 0 8.087 1.724 5.497 5.756-1.772 2.759-7.6 16.984-7.6 24.765 0 3.83 2.139 11.21 7.455 11.21 5.311 0 10.501-7.849 13.874-13.47 2.876-4.793 4.347-4.705 5.897.776.93 3.244 1.778 10.236 5.635 12.339 1.273.695 3.295.921 4.971-.024 7.714-4.323 15.104-21.702 18.175-34.937 1.806-7.76 7.922-6.743 7.534-.111v23.36c0 3.682 1.655 9.549 5.988 11.761 1.983 1.008 5.112.68 7.173-.162 8.587-3.496 15.922-31.465 17.243-36.104 1.627-5.741 7.371-4.369 7.073.851v23.501c0 5.239 2.251 10.477 5.347 11.933 2.515 1.185 5.689 1.005 8.03-.202 3.015-1.541 5.599-5.798 7.585-8.966 2.446-3.896 4.062-3.869 7.089.596 1.658 2.452 6.207 9.257 15.648 9.257 13.377 0 19.365-14.08 19.365-22.8 0-4.122.472-6.953 2.545-8.042 2.178-1.143 5.524-2.732 7.308-2.732 2.831 0 1.318 3.758 1.032 4.868-.553 2.178-2.214 8.966-2.214 13.579 0 7.579 2.756 14.98 9.149 14.98 6.34 0 11.659-8.265 13.434-11.105 2.112-3.397 3.987-3.316 4.354.185.298 2.807.223 3.764.223 3.764 0 4.919 1.471 7.122 4.098 7.122h3.171c2.581 0 5.425-2.338 5.425-8.343v-92.829c0-4.727-.933-5.608-4.174-5.608h-2.611c-3.256 0-5.034 1.471-5.034 5.608v48.994c0 2.365-.839 3.508-2.608 3.508-3.211 0-4.393.319-6.232 1.216-7.236 3.541-15.6 7.669-21.148 9.477-5.446 1.773-6.827 2.203-8.379-.225-3.403-5.365-7.11-11.021-17.117-11.021-6.704 0-11.897 3.279-15.546 8.172-3.866 5.187-4.706 10.912-6.406 15.997-3.761 11.274-9.926 18.564-9.926 9.773l-.036-9.884.253-9.189c0-6.46-7.125-8.56-11.361-9.848-5.145-1.57-5.539-4.431-5.539-9.486 0-5.118-.59-9.261-5.016-9.261-2.259 0-8.006 1.685-8.006 9.261 0 5.605 5.644 7.934 5.644 12.913 0 3.355-3.697 14.939-6.092 20.55-1.58 3.731-3.894 8.458-5.356 8.458-1.39 0-1.76-1.532-1.76-4.619v-19.295c0-6.089-8.121-8.153-12.616-9.703-4.01-1.384-4.098-3.887-4.098-9.002 0-7.775-2.741-9.339-5.5-9.339-3.538 0-7.527 2.572-7.527 8.969 0 6.673 5.575 7.82 5.575 13.503 0 3.58-5.458 20.511-8.783 25.941-2.392 3.894-3.574 3.71-4.763.219-1.399-4.109-2.524-17.324-3.616-20.218-1.065-2.843-5.341-2.84-7.017-.042-2.286 3.839-9.474 18.193-14.273 24.061-.379.46-3.869 4.735-3.869.297 0-5.515 7.672-17.195 13.834-23.543 4.856-4.998 10.804-6.129 10.804-10.666 0-4.817-6.044-4.609-10.47-4.609-13.106 0-27.527.959-32.323 1.179-3.746.175-3.845-.34-3.845-4.576v-72.466c0-2.912-1.462-5.024-4.567-5.024-.043 0-1.586.002-1.586.002-4.871 0-6.535 1.625-6.535 8.861v69.367c0 4.034-.824 5.268-4.098 5.68l-14.207 1.405c-2.949.259-3.538-.406-3.538-5.608v-70.844c0-8.933-4.45-8.861-6.713-8.861h-4.095c-2.172 0-6.902 2.167-6.902 8.861v73.203c0 4.871-.391 5.581-4.727 6.201-4.131.587-26.344 3.246-33.803 4.128-2.765.334-3.839.614-4.197 1.862-.111.394-.042 1.869-.01 2.242.108 1.45 1.715 2.277 3.58 2.061 3.848-.442 31.631-3.8 31.631-3.8 5.729-.737 7.224-.563 7.224 3.947v50.367c0 4.522 2.202 7.6 6.243 7.6" fill-rule="nonzero"/></svg>