<svg clip-rule="evenodd" fill-rule="evenodd" stroke-linejoin="round" stroke-miterlimit="2" viewBox="0 0 560 400" xmlns="http://www.w3.org/2000/svg"><path d="m30 174.874h51.622v50.252h-51.622z" fill="#fff"/><path d="m135.005 215.743c0 2.54.197 4.302.588 5.084.391.588 1.368.976 2.932.976l3.129.194v1.958c-3.52 0-6.649-.194-9.777-.194-3.323 0-6.454.194-9.971.194v-1.958l3.322-.194c1.565 0 2.347-.391 2.738-.976.585-.782.585-2.541.585-5.084v-15.058c-.782 0-2.541-.194-5.475-.194h-15.84c-2.932 0-4.693.194-5.672.194v15.058c0 2.54.197 4.302.785 5.084.391.585 1.173.976 2.738.976l3.322.194v1.958c-3.519 0-6.845-.194-9.777-.194-3.322 0-6.648.194-9.973.194v-1.958l3.131-.194c1.564 0 2.541-.391 2.932-.976.393-.782.588-2.541.588-5.084v-30.31c0-2.541-.195-4.302-.588-5.084-.391-.588-1.368-.976-2.932-.976l-3.129-.197v-1.955c3.326 0 6.649.196 9.974.196 2.932 0 6.257-.196 9.777-.196v1.955l-3.325.194c-1.565 0-2.347.391-2.738.976-.588.783-.785 2.544-.785 5.084v12.126h26.987v-12.123c0-2.541 0-4.302-.585-5.084-.391-.588-1.173-.976-2.738-.976l-3.322-.197v-1.955c3.519 0 6.648.196 9.971.196 3.128 0 6.257-.196 9.777-.196v1.955l-3.129.197c-1.564 0-2.543.391-2.932.976-.391.782-.588 2.543-.588 5.084z"/><path d="m148.89 193.06c0-1.955 0-3.322-.391-3.91-.394-.588-.979-.782-2.349-.782l-2.538-.197v-1.762c1.564 0 2.931.195 4.496.195h4.693c4.692 0 9.582-.195 12.711-.195 2.346 0 4.89.195 6.845.195-.588 2.346-.785 5.475-.785 8.212h-1.955v-3.517c0-.585 0-1.173-.394-1.367-2.932-1.176-7.234-1.176-10.559-1.176-1.564 0-3.129 0-4.693.394v14.469c1.759 0 3.714.195 6.257.195 3.326 0 5.281-.195 5.866-.588.195-.194.391-.782.391-1.368l.195-2.931h1.761c-.197 2.346-.197 4.301-.197 6.257 0 1.955 0 4.105.197 6.06h-1.761l-.195-3.129c0-.782-.196-1.173-.391-1.367-.585-.588-2.54-.782-5.866-.782-2.54 0-4.496 0-6.257.194v15.058c1.564.391 3.129.585 4.693.585 4.302 0 9.777-.194 10.753-.782.979-.391 1.565-2.738 1.956-6.06h1.955c-.585 2.54-.976 6.06-.976 8.8-2.35.194-6.649.391-10.562.194-4.105 0-8.407-.194-11.732-.194-2.15 0-3.911.194-5.867.194v-1.564l1.956-.194c1.37 0 1.955-.197 2.349-.782.391-.588.391-1.956.391-4.105v-24.25z"/><path d="m180.761 193.06c0-1.955 0-3.322-.391-3.91s-.976-.782-2.346-.782l-2.347-.197v-1.762c2.347.195 4.496.195 6.452.195.979 0 1.958 0 2.931-.195l25.811 31.874h.197v-25.223c0-1.955-.197-3.322-.588-3.91-.194-.588-.976-.782-2.149-.782l-2.541-.197v-1.762c2.152.195 4.499.195 6.257.195 2.152 0 4.105 0 6.648-.195v1.762l-2.543.197c-1.173 0-1.955.194-2.149.782-.392.588-.586 1.955-.586 3.91v29.919c0 .588.194 1.37.194 1.955l-4.889-.782-25.418-31.68v24.835c0 2.152 0 3.52.392 4.105.393.585.979.782 2.346.782l2.346.194v1.565c-2.346 0-4.301-.194-6.454-.194-1.955 0-4.105.194-6.257.194v-1.565l2.347-.194c1.37 0 1.955-.197 2.346-.782.391-.588.391-1.955.391-4.105z"/><path d="m230.625 217.307c0 2.152 0 3.52.391 4.105s.979.782 2.346.782l2.541.194v1.565c-2.738 0-5.281-.194-7.822-.194-2.543 0-5.084.194-8.018.194v-1.565l2.737-.194c1.174 0 1.762-.197 2.153-.782.391-.588.585-1.955.585-4.105v-24.247c0-1.955-.194-3.322-.585-3.91-.394-.588-.979-.782-2.153-.782l-2.346-.197v-1.762c2.932.195 6.063.195 9.189.195 3.131 0 6.257 0 9.386-.195 8.8 0 10.95 4.302 10.95 8.213 0 5.866-5.281 9.383-10.559 10.365l12.317 16.031c.782.977 1.958 1.176 3.323 1.37v1.565c-1.367 0-2.737-.194-3.911-.194-1.173 0-2.346.194-3.713.194-.588-.977-1.565-1.958-2.153-2.935l-9.971-13.296c-.782-1.174-1.955-2.153-2.737-3.323l.197-.588c1.564 0 3.128 0 4.887-.194 3.713-.782 7.039-3.714 7.039-7.628 0-5.866-4.496-7.43-8.604-7.43-2.346 0-3.91.194-5.475.588v28.16z"/><path d="m270.908 205.378 5.669-8.798c2.153-3.325 3.914-6.648 5.867-10.171h4.301v.783c-4.69 5.28-11.144 14.273-13.296 19.162-.782 1.37-.782 2.738-.782 4.105v6.845c0 2.153 0 3.52.391 4.105.391.586.976.783 2.346.783l2.544.194v1.564c-2.738 0-5.281-.194-7.822-.194s-5.084.194-8.016.194v-1.564l2.738-.194c1.173 0 1.758-.197 2.149-.783.391-.588.588-1.955.588-4.105v-7.627c0-.782-.197-1.564-.588-2.152l-6.648-11.732c-2.737-4.693-5.672-6.846-6.845-6.846l-1.564-.197v-1.564l6.063-1.367c1.173-.197 1.955.976 2.931 1.955.783 1.173 1.565 2.347 2.347 3.52z"/><path d="m325.462 188.365-.394-3.911c-.194-1.758-.391-2.346-2.932-3.911-1.955-1.173-4.693-1.758-7.43-1.758-4.693 0-9.971 3.323-9.971 9.971 0 4.499 2.737 7.43 11.144 8.212 9.583 1.174 15.646 3.52 15.646 11.145 0 11.538-10.365 17.013-20.533 17.013-4.693 0-9.189-1.367-11.535-2.541.588-3.519.588-7.039.588-10.365h2.149l.588 4.693c.194 2.741 5.672 5.281 10.953 5.281 6.06 0 12.123-3.716 12.123-10.365 0-6.454-5.086-8.212-11.929-8.994-10.559-1.174-14.863-4.499-14.863-11.538 0-10.56 9.191-15.252 17.404-15.252 5.281 0 9.386 1.758 12.123 2.737-.588 3.52-.976 6.454-.976 9.583z"/><path d="m366.722 221.997c-3.129 1.958-8.407 2.935-11.735 2.935-12.906 0-21.704-7.431-21.704-19.554 0-6.257 2.541-11.144 6.649-14.667 3.91-3.325 9.582-5.084 15.643-5.084 4.89 0 9.777 1.174 12.317 2.15-.391 2.543-.976 5.475-.976 8.212h-1.564v-3.908c0-1.564-2.344-2.346-4.693-3.325-1.759-.585-4.105-.976-6.061-.976-10.168 0-15.448 7.43-15.448 16.622 0 10.753 7.039 17.595 17.598 17.595 3.908 0 8.601-1.367 10.95-3.126l.588.392z"/><path d="m408.176 217.307c0 2.152 0 3.52.394 4.105.391.585.976.782 2.346.782l2.541.194v1.565c-2.741 0-5.281-.194-7.822-.194-2.737 0-5.278.194-8.018.194v-1.565l2.54-.194c1.371 0 1.958-.197 2.347-.782.394-.588.394-1.955.394-4.105v-11.929c-.588 0-1.958-.194-4.305-.194h-12.711c-2.344 0-3.908.194-4.496.194v11.929c0 2.152.194 3.52.588 4.105.194.585.782.782 2.149.782l2.544.194v1.565c-2.741 0-5.281-.194-7.822-.194s-5.084.194-8.018.194v-1.565l2.737-.194c1.176 0 1.958-.197 2.153-.782.393-.588.587-1.955.587-4.105v-24.247c0-1.955-.194-3.322-.587-3.91-.195-.588-.977-.782-2.153-.782l-2.735-.197v-1.762c2.935.195 5.475.195 8.019.195 2.543 0 5.084 0 7.821-.195v1.762l-2.543.197c-1.367 0-1.955.194-2.15.782-.393.588-.588 1.955-.588 3.91v9.777h21.512v-9.777c0-1.955 0-3.322-.393-3.91-.392-.588-.977-.782-2.347-.782l-2.541-.197v-1.762c2.741.195 5.281.195 8.019.195 2.541 0 5.084 0 7.821-.195v1.762l-2.54.197c-1.37 0-1.958.194-2.347.782-.393.588-.393 1.955-.393 3.91v24.247z"/><path d="m420.499 193.06c0-1.955 0-3.322-.394-3.91s-.976-.782-2.346-.782l-2.541-.197v-1.762c1.564 0 2.932.195 4.496.195h4.499c4.693 0 9.777-.195 12.905-.195 2.347 0 4.693.195 6.843.195-.586 2.346-.783 5.475-.783 8.212h-1.955v-3.517c0-.585 0-1.173-.391-1.367-2.934-1.176-7.236-1.176-10.562-1.176-1.564 0-3.126 0-4.69.394v14.469c1.759 0 3.714.195 6.255.195 3.322 0 5.28-.195 5.868-.588.195-.194.391-.782.391-1.368l.195-2.931h1.564v12.317h-1.564l-.195-3.129c0-.782-.194-1.173-.391-1.367-.588-.588-2.543-.782-5.868-.782-2.541 0-4.496 0-6.255.194v15.058c1.564.391 3.126.585 4.69.585 4.305 0 9.777-.194 10.756-.782.782-.391 1.564-2.738 1.956-6.06h1.958c-.588 2.54-.979 6.06-.979 8.8-2.344.194-6.649.391-10.559.194-4.105 0-8.407-.194-11.733-.194-2.152 0-3.91.194-5.866.194v-1.564l1.956-.194c1.37 0 1.955-.197 2.346-.782.394-.588.394-1.956.394-4.105z"/><path d="m458.042 217.307c0 2.152 0 3.52.391 4.105.394.585.976.782 2.347.782l2.54.194v1.565c-2.737 0-5.278-.194-7.821-.194-2.738 0-5.278.194-8.019.194v-1.565l2.544-.194c1.37 0 1.955-.197 2.346-.782.391-.588.391-1.955.391-4.105v-24.247c0-1.955 0-3.322-.391-3.91-.394-.588-.976-.782-2.346-.782l-2.544-.197v-1.762c2.741.195 5.281.195 8.019.195 2.543 0 5.086 0 7.821-.195v1.762l-2.54.197c-1.371 0-1.956.194-2.347.782s-.391 1.955-.391 3.91z"/><path d="m469.966 193.06c0-1.955-.194-3.322-.588-3.91-.192-.588-.974-.782-2.15-.782l-2.54-.197v-1.762c2.54.195 4.69.195 6.648.195.976 0 1.758 0 2.737-.195l25.811 31.874h.197v-25.223c0-1.955 0-3.322-.393-3.91-.392-.588-.977-.782-2.347-.782l-2.346-.197v-1.762c2.152.195 4.304.195 6.257.195 2.152 0 4.105 0 6.454-.195v1.762l-2.346.197c-1.371 0-1.956.194-2.347.782s-.391 1.955-.391 3.91v29.919c0 .588 0 1.37.194 1.955l-4.89-.782-25.42-31.677h-.196v24.835c0 2.152.196 3.52.588 4.105.194.585.976.782 2.152.782l2.54.194v1.564c-2.54 0-4.498-.194-6.648-.194-1.758 0-4.105.194-6.257.194v-1.564l2.541-.194c1.175 0 1.958-.197 2.149-.782.394-.588.588-1.956.588-4.105v-24.25z"/><path d="m520.026 185.824c4.89 0 8.801 3.714 8.801 8.41 0 4.887-3.911 8.603-8.801 8.603-4.693 0-8.407-3.716-8.407-8.409 0-4.887 3.714-8.604 8.407-8.604zm0-1.173c-5.278 0-9.582 4.302-9.582 9.777 0 5.281 4.304 9.58 9.582 9.58 5.475 0 9.974-4.302 9.974-9.777 0-5.278-4.499-9.58-9.974-9.58zm-4.496 3.908v.591h.588c.391 0 .78 0 .78.782v8.212c0 .783-.195.783-.78.783h-.394v.391h4.105v-.394h-.588c-.782 0-.782-.391-.782-.976v-3.52h.394c.588 0 1.367 0 1.758.391.392.391.977 1.564 1.174 2.149.194.588.588 1.762 1.176 2.15.391.391.976.197 1.564.197h.782v-.391c-.588 0-.782 0-1.176-.391-.194-.197-.588-1.173-.782-1.565-.391-.976-1.173-2.737-2.344-2.737 1.562-.197 2.932-1.173 2.932-2.934 0-2.347-2.346-2.738-4.105-2.738zm2.932 1.764c0-.585-.194-1.173.782-1.173h.782c1.37 0 2.541.782 2.541 2.346 0 1.956-1.759 2.347-3.323 2.347h-.782z"/><path d="m80.646 179.761v-3.52h-49.473v37.544c7.04 0 14.47-4.496 22.097-16.229 7.431-11.929 18.575-17.795 27.376-17.795z" fill="#e92e29"/><path d="m31.173 220.63v3.52h49.473v-37.544c-6.845 0-14.47 4.499-21.901 16.426-7.627 11.734-18.577 17.598-27.572 17.598z" fill="#007cc1"/></svg>