<svg clip-rule="evenodd" fill-rule="evenodd" viewBox="0 0 560 400" xmlns="http://www.w3.org/2000/svg"><path d="m456.673 245h-352.456c-5.385 0-11.867-2.917-15.415-6.934l-24.369-27.557c-4.426-5.021-4.426-12.871 0-17.886l24.36-27.565c3.554-4.014 10.039-6.926 15.424-6.926h352.456c5.391 0 11.88 2.912 15.419 6.935l24.366 27.556c4.419 5.015 4.419 12.865 0 17.886l-24.366 27.557c-3.548 4.017-10.028 6.934-15.419 6.934" fill="#808080" fill-rule="nonzero"/><path d="m456.673 245h-352.456c-5.385 0-11.867-2.917-15.415-6.934l-24.369-27.557c-4.426-5.021-4.426-12.871 0-17.886l24.36-27.565c3.554-4.014 10.039-6.926 15.424-6.926h352.456c5.391 0 11.88 2.912 15.419 6.935l24.366 27.556c4.419 5.015 4.419 12.865 0 17.886l-24.366 27.557c-3.548 4.017-10.028 6.934-15.419 6.934z" fill="none" stroke="#808080" stroke-width="1.37"/><path d="m455.785 241.865h-352.456c-5.385 0-11.871-2.914-15.422-6.926l-24.354-27.565c-4.434-5.012-4.434-12.868 0-17.878l24.354-27.564c3.54-4.021 10.037-6.932 15.422-6.932h352.456c5.388 0 11.876 2.911 15.427 6.932l24.346 27.556c4.434 5.018 4.434 12.874.008 17.886l-24.366 27.565c-3.542 4.012-10.03 6.926-15.418 6.926" fill="#fff" fill-rule="nonzero"/><path d="m455.785 241.865h-352.456c-5.385 0-11.871-2.914-15.422-6.926l-24.354-27.565c-4.434-5.012-4.434-12.868 0-17.878l24.354-27.564c3.54-4.021 10.037-6.932 15.422-6.932h352.456c5.388 0 11.876 2.911 15.427 6.932l24.346 27.556c4.434 5.018 4.434 12.874.008 17.886l-24.366 27.565c-3.542 4.012-10.03 6.926-15.418 6.926z" fill="none" stroke="#808080" stroke-width="1.37"/><g fill-rule="nonzero"><path d="m490.75 193.662c2.315 2.63 2.315 6.917 0 9.541l-24.358 27.561c-2.318 2.618-7.084 4.76-10.605 4.76h-352.46c-3.515 0-8.293-2.142-10.608-4.76l-24.358-27.561c-2.324-2.624-2.324-6.911 0-9.541l24.358-27.556c2.315-2.624 7.093-4.769 10.608-4.769h352.46c3.521 0 8.287 2.145 10.605 4.769z" fill="#2b388f"/><path d="m103.328 161.976c-3.307 0-7.944 2.084-10.124 4.546l-24.36 27.565c-2.113 2.398-2.113 6.295 0 8.695l24.36 27.562c2.18 2.462 6.817 4.549 10.124 4.549h352.457c3.313 0 7.941-2.087 10.124-4.549l24.352-27.562c2.121-2.4 2.121-6.297 0-8.695l-24.352-27.565c-2.183-2.462-6.811-4.546-10.124-4.546zm352.457 74.193h-352.457c-3.688 0-8.662-2.239-11.098-4.985l-24.355-27.562c-2.526-2.865-2.526-7.519 0-10.377l24.355-27.565c2.436-2.747 7.41-4.98 11.098-4.98h352.457c3.686 0 8.66 2.233 11.096 4.98l24.357 27.565c2.527 2.858 2.527 7.512 0 10.377l-24.357 27.562c-2.436 2.746-7.41 4.985-11.096 4.985" fill="#1d1752"/><path d="m138.024 223.627h-11.572l4.402-19.53h-21.792l-4.329 19.53h-11.574l10.902-48.741h11.498l-4.408 19.588h21.802l4.407-19.588h11.563z" fill="#1d1752"/><path d="m164.001 195.811c-3.354 0-5.977 2.589-6.937 6.063l10.817-.146c.305-.816.449-1.479.449-2.072 0-2.075-1.491-3.844-4.328-3.844m13.138 13.311-21.493.373c-.232 4.211 3.055 6.207 7.084 6.207 3.366 0 6.051-.734 9.705-2.363l2.541 7.026c-4.851 2.518-9.552 3.997-15.228 3.997-9.857 0-15.004-6.735-15.004-14.867 0-11.985 8.583-21.678 20.598-21.678 8.736 0 13.514 4.813 13.514 11.838 0 2.668-.596 5.77-1.717 9.467" fill="#1d1752"/><path d="m204.019 199.364c-1.426-.889-3.143-1.262-4.111-1.262-2.841 0-6.045 1.183-8.66 13.247l-2.685 12.279h-11.348l7.835-34.99h8.581v6.653h.083c2.31-3.842 4.182-7.475 9.103-7.475 2.093 0 4.561.602 6.274 2.228z" fill="#1d1752"/><path d="m228.944 198.245c-1.121-1.103-2.685-1.84-4.778-1.84-2.022 0-4.029.889-5.526 2.653-1.707 2.004-2.84 5.112-2.84 9.253 0 2.221.601 3.991 1.643 5.256 1.124 1.323 2.694 2.066 4.854 2.066 1.94 0 3.888-.816 5.379-2.292 1.87-1.99 3.134-5.177 3.134-9.623 0-2.359-.672-4.132-1.866-5.473m6.042 20.865c-3.653 3.255-8.501 5.25-13.954 5.25-5.599 0-9.558-1.851-12.167-4.581-2.914-3.11-4.182-7.325-4.182-11.395 0-5.62 2.087-10.65 5.6-14.347 3.73-3.921 8.956-6.219 14.925-6.219 5.828 0 9.931 1.852 12.549 4.743 2.755 3.034 3.955 7.166 3.955 11.087 0 6.224-2.541 11.691-6.726 15.462" fill="#1d1752"/><path d="m278.805 202.541-4.777 21.085h-11.489l4.695-20.718c.306-1.253.306-2.363.306-2.806 0-1.626-.898-2.662-2.692-2.662-2.544 0-7.685 1.843-10.379 13.981l-2.685 12.205h-11.352l7.842-34.987h8.663v6.65h.075c2.834-3.624 7.242-7.471 13.214-7.471 5.67 0 9.183 2.888 9.329 9.03 0 1.552-.296 3.627-.748 5.693" fill="#1d1752"/><path d="m327.105 184.126h-15.53l-2.532 11.164h15.304l-2.016 9.176h-15.307l-4.255 19.16h-11.575l10.75-48.741h28.298z" fill="#1d1752"/><path d="m349.557 198.245c-1.118-1.103-2.685-1.84-4.774-1.84-2.022 0-4.03.889-5.52 2.653-1.714 2.004-2.841 5.112-2.841 9.253 0 2.221.596 3.991 1.64 5.256 1.124 1.323 2.691 2.066 4.851 2.066 1.937 0 3.88-.816 5.371-2.292 1.869-1.99 3.14-5.177 3.14-9.623 0-2.359-.672-4.132-1.867-5.473m6.048 20.865c-3.659 3.255-8.51 5.25-13.957 5.25-5.602 0-9.555-1.851-12.169-4.581-2.912-3.11-4.179-7.325-4.179-11.395 0-5.62 2.089-10.65 5.593-14.347 3.733-3.921 8.959-6.219 14.931-6.219 5.823 0 9.928 1.852 12.543 4.743 2.761 3.034 3.95 7.166 3.95 11.087 0 6.224-2.533 11.691-6.712 15.462" fill="#1d1752"/><path d="m388.213 198.245c-1.115-1.103-2.688-1.84-4.78-1.84-2.013 0-4.03.889-5.517 2.653-1.72 2.004-2.841 5.112-2.841 9.253 0 2.221.593 3.991 1.643 5.256 1.124 1.323 2.685 2.066 4.854 2.066 1.937 0 3.883-.816 5.376-2.292 1.867-1.99 3.129-5.177 3.129-9.623 0-2.359-.667-4.132-1.864-5.473m6.048 20.865c-3.656 3.255-8.513 5.25-13.96 5.25-5.599 0-9.552-1.851-12.166-4.581-2.914-3.11-4.179-7.325-4.179-11.395 0-5.62 2.089-10.65 5.602-14.347 3.727-3.921 8.95-6.219 14.928-6.219 5.817 0 9.931 1.852 12.543 4.743 2.755 3.034 3.95 7.166 3.95 11.087 0 6.224-2.545 11.691-6.718 15.462" fill="#1d1752"/><path d="m425.165 196.404c-5.226 0-11.122 3.325-11.122 10.799 0 5.098 3.354 8.279 7.313 8.279 1.418 0 2.544-.144 3.583-.593l4.035-17.822c-.748-.367-2.016-.663-3.809-.663m9.855 24.921c-4.558 2.001-8.957 3.037-14.031 3.037-12.398 0-17.998-7.322-17.998-16.196 0-14.427 11.571-20.349 21.279-20.349 2.832 0 4.775.376 6.568.895l3.956-17.455h11.424z" fill="#1d1752"/><path d="m467.193 198.7c-2.614-1.191-6.644-2.374-8.88-2.374-2.022 0-3.738.376-3.738 2.445 0 3.771 12.319 4.874 12.319 14.866 0 6.879-6.418 10.724-14.711 10.724-4.922 0-9.772-1.107-13.957-3.698l3.515-7.912c2.979 1.776 6.641 3.325 9.623 3.325 2.242 0 4.258-.595 4.258-2.295 0-3.909-12.322-4.587-12.322-15.01 0-5.914 4.484-10.955 14.561-10.955 2.615 0 6.861.375 11.12 2.157z" fill="#1d1752"/><path d="m136.354 221.448h-11.571l4.399-19.53h-21.799l-4.325 19.53h-11.569l10.894-48.747h11.5l-4.41 19.603h21.81l4.399-19.603h11.571z" fill="#fd0"/><path d="m162.327 193.636c-3.357 0-5.969 2.588-6.94 6.063l10.829-.15c.288-.807.44-1.473.44-2.072 0-2.069-1.494-3.841-4.329-3.841m13.144 13.308-21.501.373c-.223 4.211 3.06 6.207 7.092 6.207 3.358 0 6.043-.731 9.708-2.36l2.527 7.029c-4.848 2.512-9.549 3.985-15.225 3.985-9.846 0-15.002-6.726-15.002-14.861 0-11.982 8.587-21.675 20.604-21.675 8.737 0 13.514 4.81 13.514 11.835 0 2.668-.605 5.764-1.717 9.467" fill="#fd0"/><path d="m202.338 197.185c-1.415-.887-3.138-1.256-4.103-1.256-2.841 0-6.048 1.182-8.66 13.24l-2.682 12.279h-11.349l7.836-34.989h8.584v6.652h.066c2.319-3.841 4.185-7.468 9.109-7.468 2.09 0 4.558.595 6.274 2.224z" fill="#fd0"/><path d="m227.274 196.074c-1.121-1.11-2.692-1.846-4.784-1.846-2.01 0-4.029.892-5.52 2.664-1.72 1.993-2.841 5.098-2.841 9.239 0 2.224.599 3.997 1.647 5.256 1.121 1.332 2.685 2.066 4.854 2.066 1.939 0 3.876-.805 5.373-2.286 1.863-1.996 3.134-5.186 3.134-9.614 0-2.372-.675-4.147-1.863-5.479m6.042 20.856c-3.657 3.257-8.508 5.247-13.96 5.247-5.602 0-9.552-1.846-12.164-4.575-2.917-3.111-4.182-7.322-4.182-11.395 0-5.62 2.09-10.65 5.602-14.344 3.73-3.921 8.951-6.222 14.929-6.222 5.816 0 9.922 1.846 12.533 4.74 2.765 3.028 3.959 7.172 3.959 11.087 0 6.221-2.532 11.694-6.717 15.462" fill="#fd0"/><path d="m277.137 200.361-4.786 21.085h-11.489l4.701-20.709c.3-1.259.3-2.372.3-2.815 0-1.622-.898-2.661-2.685-2.661-2.542 0-7.695 1.848-10.377 13.98l-2.694 12.205h-11.34l7.833-34.986h8.657v6.65h.075c2.838-3.616 7.245-7.469 13.214-7.469 5.67 0 9.186 2.885 9.335 9.027 0 1.558-.301 3.627-.745 5.693" fill="#fd0"/><path d="m325.431 181.944h-15.533l-2.529 11.166h15.295l-2.01 9.176h-15.307l-4.258 19.16h-11.563l10.747-48.744h28.292z" fill="#fd0"/><path d="m347.882 196.074c-1.116-1.11-2.686-1.846-4.778-1.846-2.007 0-4.029.892-5.52 2.664-1.717 1.993-2.841 5.098-2.841 9.239 0 2.224.605 3.997 1.647 5.256 1.121 1.332 2.685 2.066 4.85 2.066 1.94 0 3.877-.805 5.377-2.286 1.863-1.996 3.134-5.186 3.134-9.614 0-2.372-.669-4.147-1.869-5.479m6.048 20.856c-3.651 3.257-8.513 5.247-13.957 5.247-5.597 0-9.561-1.846-12.173-4.575-2.911-3.111-4.176-7.322-4.176-11.395 0-5.62 2.09-10.65 5.59-14.344 3.736-3.921 8.969-6.222 14.935-6.222 5.828 0 9.928 1.846 12.539 4.74 2.765 3.028 3.959 7.172 3.959 11.087 0 6.221-2.538 11.694-6.717 15.462" fill="#fd0"/><path d="m386.543 196.074c-1.121-1.11-2.685-1.846-4.777-1.846-2.016 0-4.035.892-5.532 2.664-1.708 1.993-2.835 5.098-2.835 9.239 0 2.224.602 3.997 1.641 5.256 1.127 1.332 2.691 2.066 4.859 2.066 1.94 0 3.88-.805 5.371-2.286 1.866-1.996 3.134-5.186 3.134-9.614 0-2.372-.666-4.147-1.861-5.479m6.046 20.856c-3.663 3.257-8.511 5.247-13.96 5.247-5.599 0-9.555-1.846-12.167-4.575-2.917-3.111-4.188-7.322-4.188-11.395 0-5.62 2.093-10.65 5.605-14.344 3.733-3.921 8.951-6.222 14.929-6.222 5.822 0 9.925 1.846 12.542 4.74 2.765 3.028 3.962 7.172 3.962 11.087 0 6.221-2.541 11.694-6.723 15.462" fill="#fd0"/><path d="m423.495 194.229c-5.232 0-11.133 3.322-11.133 10.794 0 5.103 3.366 8.284 7.324 8.284 1.415 0 2.539-.146 3.586-.59l4.027-17.828c-.749-.363-2.013-.66-3.804-.66m9.849 24.918c-4.552 1.995-8.959 3.031-14.039 3.031-12.387 0-17.984-7.319-17.984-16.199 0-14.418 11.572-20.337 21.279-20.337 2.835 0 4.772.379 6.565.892l3.956-17.458h11.419z" fill="#fd0"/><path d="m465.522 196.521c-2.615-1.185-6.65-2.368-8.884-2.368-2.016 0-3.735.373-3.735 2.439 0 3.768 12.316 4.877 12.316 14.866 0 6.885-6.418 10.721-14.699 10.721-4.933 0-9.784-1.104-13.96-3.695l3.501-7.915c2.987 1.776 6.644 3.334 9.634 3.334 2.239 0 4.255-.596 4.255-2.301 0-3.914-12.319-4.581-12.319-15.01 0-5.919 4.472-10.949 14.555-10.949 2.615 0 6.87.378 11.126 2.148z" fill="#fd0"/></g></svg>