<svg clip-rule="evenodd" fill-rule="evenodd" stroke-linejoin="round" stroke-miterlimit="2" viewBox="0 0 560 400" xmlns="http://www.w3.org/2000/svg"><g fill-rule="nonzero"><path d="m264.266 103.99-39.825 202.433c-2.273 11.538-12.241 19.841-23.821 19.841-15.331 0-26.82-14.249-23.814-29.533l39.825-202.427c2.261-11.543 12.241-19.846 23.815-19.846 15.331 0 26.826 14.255 23.82 29.532" fill="#075ba9"/><path d="m378.986 169.019-28.203 137.645c-2.339 11.387-12.584 19.588-24.488 19.588-15.752 0-27.572-14.069-24.482-29.148l28.203-137.645c2.339-11.387 12.584-19.588 24.488-19.588 15.753 0 27.573 14.069 24.482 29.148" fill="#075ba9"/><path d="m415 302.708c0 12.909-10.623 23.532-23.532 23.532s-23.532-10.623-23.532-23.532c0-12.91 10.623-23.532 23.532-23.532s23.532 10.622 23.532 23.532" fill="#fcb61a"/><g fill="#e92c2f"><path d="m391.504 97.785c0 13.193-10.856 24.049-24.049 24.049s-24.049-10.856-24.049-24.049 10.856-24.049 24.049-24.049 24.049 10.856 24.049 24.049"/><path d="m170.553 176.065h116.277c15.981 0 27.975 13.299 24.843 27.578l-.204.692c-2.369 10.786-12.764 18.325-24.843 18.325h-116.277c-15.993 0-27.982-13.106-24.849-27.386l.204-.781c2.363-10.792 12.764-18.428 24.843-18.428"/></g></g></svg>