<svg clip-rule="evenodd" fill-rule="evenodd" stroke-linejoin="round" stroke-miterlimit="2" viewBox="0 0 560 400" xmlns="http://www.w3.org/2000/svg"><g fill-rule="nonzero"><g fill="#1b2042"><path d="m153.38 312.563-2.218-6.684-2.182 6.684zm.564 1.795h-5.538l-.798 2.463h-2.576l4.268-12.832h3.657l4.334 12.832h-2.529z"/><path d="m385.523 218.755h-5.954c-2.404 3.524-5.259 6.629-8.509 9.227-5.283 4.225-10.743 6.68-17.6 8.058l.775 1.782c-.225.046-.449.095-.676.138-7.976 1.504-16.23.966-24.261-1.407-8.313-2.457-16.215-6.828-23.137-12.753-1.849-1.583-3.614-3.269-5.29-5.045h-5.216c2.479 2.895 5.176 5.589 8.065 8.048 7.376 6.279 15.795 10.879 24.645 13.419 8.531 2.449 17.279 2.932 25.709 1.24 7.978-1.601 14.853-4.99 20.462-9.589 4.492-3.684 8.166-8.151 10.987-13.118z"/><path d="m399.486 218.755c-.695 2.272-1.492 4.503-2.417 6.674-3.354 7.862-8.247 15.066-14.623 21.021-6.168 5.76-13.739 10.354-22.591 13.193l-.588-1.945c-.977.314-1.526.582-2.529.85-5.353 1.431-10.932 2.158-16.579 2.158-5.421 0-10.943-.669-16.413-1.988-4.92-1.187-9.783-2.908-14.5-5.104l-.755 1.94c-6.546-3.037-12.795-6.98-18.568-11.748-8.421-6.954-15.589-15.456-21.042-25.051h-5.207c5.848 11.028 13.848 20.755 23.384 28.581 10.516 8.631 22.524 14.649 35.055 17.555 11.908 2.761 23.948 2.629 35.33-.569 10.564-2.967 19.46-8.275 26.536-15.048 6.57-6.288 11.587-13.851 15.002-22.069 1.139-2.741 2.1-5.564 2.888-8.45z"/><path d="m352.376 117.236c-5.793-3.172-12.134-5.516-18.828-6.721-6.992-1.258-13.8-1.174-20.17.142-6.712 1.386-12.974 4.146-18.425 8.159-3.059 2.252-5.85 4.907-8.321 7.916h6.373c1.613-1.701 3.33-3.256 5.128-4.614 4.963-3.75 10.627-6.334 16.833-7.681 2.039-.443 4.135-.73 6.256-.892l-.37-1.435c4.209-.343 8.57-.159 13.021.611 6.406 1.11 12.483 3.321 18.041 6.339 3.963 2.152 7.705 4.742 11.157 7.672h2.582c-4.043-3.665-8.506-6.882-13.277-9.496"/><path d="m374.106 121.059c-5.643-5.634-12.05-10.597-18.999-14.594-7.174-4.128-15.079-7.315-23.508-9.176-8.902-1.965-17.696-2.298-26.066-1.09-8.949 1.291-17.482 4.356-25.1 9.109-8.197 5.114-15.335 12.183-20.676 21.024-.079.132-.154.268-.233.4h4.429c4.926-7.997 11.404-14.465 18.837-19.23 7.252-4.648 15.408-7.679 23.991-9.001 3.307-.508 6.687-.761 10.118-.758l.416 1.457c4.71.033 9.512.563 14.284 1.586 6.9 1.479 13.632 3.952 20.051 7.349l.443-1.419c.874.459 1.738.932 2.591 1.419 6.748 3.853 12.974 8.653 18.456 14.115 1.446 1.44 2.844 2.938 4.197 4.482h1.99c-1.671-1.965-3.408-3.864-5.221-5.673"/><path d="m379.306 114.651c-6.505-6.568-13.887-12.417-21.909-17.221-8.325-4.985-17.551-8.97-27.472-11.503-10.581-2.7-21.163-3.553-31.384-2.612-11.073 1.019-21.837 4.153-31.666 9.382-10.751 5.719-20.4 13.952-27.934 24.574-2.113 2.978-4.049 6.136-5.792 9.461h7.158c1.318-2.423 2.737-4.752 4.233-6.922 6.683-9.69 15.277-17.475 25.545-23.152l-1.351-1.4c.185-.104.369-.212.555-.314 9.422-5.159 19.782-8.294 30.475-9.374 9.892-.998 20.161-.246 30.45 2.319 9.664 2.409 18.664 6.252 26.793 11.087 2.403 1.429 4.739 2.966 7.017 4.58l-.832 1.725c4.809 3.446 9.366 7.313 13.598 11.578 3.032 3.054 5.931 6.378 8.646 9.873h4.258c-3.195-4.279-6.669-8.327-10.388-12.081"/><path d="m196.137 310.053c-.413.25-.92.375-1.521.375h-3.009v-2.872h3.009c.676 0 1.202.122 1.577.367.376.243.563.609.563 1.098 0 .437-.207.781-.619 1.032m2.046 3.322c-.263-.25-.501-.456-.713-.62.512-.099.972-.272 1.379-.516.406-.244.751-.541 1.032-.891.282-.35.497-.745.648-1.183.15-.438.225-.901.225-1.389 0-.901-.204-1.639-.61-2.215-.407-.575-.922-1.032-1.549-1.37-.625-.337-1.32-.572-2.083-.703-.763-.132-1.502-.198-2.215-.198h-6.582v12.557h3.885v-.063h.007v-3.5h1.773l2.964 3.563h5.198l-2.308-2.44c-.439-.438-.788-.782-1.051-1.032"/><path d="m212.826 312.202c-.139.419-.362.748-.67.985-.31.238-.713.398-1.211.479s-1.106.122-1.825.122-1.327-.041-1.825-.122-.902-.241-1.21-.479c-.31-.237-.532-.566-.671-.985-.138-.419-.208-.967-.208-1.643 0-.675.07-1.223.208-1.641.139-.42.361-.746.671-.977.308-.231.712-.388 1.21-.469.498-.082 1.106-.122 1.825-.122s1.327.04 1.825.122c.498.081.901.238 1.211.469.308.231.531.557.67.977.138.418.207.966.207 1.641 0 .676-.069 1.224-.207 1.643m1.94-6.561c-1.258-1.038-3.14-1.558-5.646-1.558-2.516 0-4.401.52-5.655 1.558-1.253 1.04-1.879 2.679-1.879 4.918 0 2.253.624 3.898 1.872 4.937s3.135 1.558 5.662 1.558c2.517 0 4.401-.519 5.654-1.558 1.252-1.039 1.879-2.684 1.879-4.937 0-2.239-.629-3.878-1.887-4.918"/><path d="m180.053 307.542h6.525c-.611-2.873-3.808-3.265-3.808-3.265h-6.622v12.557h10.514v-3.229h-6.609v-1.708h6.609v-2.853h-6.609z"/><path d="m248.35 312.179c-.139.421-.364.752-.674.991-.312.238-.715.398-1.215.48-.501.083-1.111.122-1.834.122-.724 0-1.334-.039-1.834-.122-.499-.082-.906-.242-1.215-.48-.311-.239-.536-.57-.675-.991-.139-.42-.207-.971-.207-1.649 0-.68.068-1.229.207-1.65.139-.42.364-.749.675-.982.309-.231.716-.389 1.215-.469.5-.083 1.11-.124 1.834-.124.723 0 1.333.041 1.834.124.5.08.903.238 1.215.469.31.233.535.562.674.982.138.421.208.97.208 1.65 0 .678-.07 1.229-.208 1.649m1.949-6.59c-1.264-1.042-3.154-1.565-5.672-1.565-2.528 0-4.421.523-5.681 1.565-1.259 1.045-1.888 2.691-1.888 4.941 0 2.263.627 3.915 1.88 4.959 1.254 1.044 3.152 1.565 5.689 1.565 2.528 0 4.422-.521 5.68-1.565 1.259-1.044 1.888-2.696 1.888-4.959 0-2.25-.632-3.896-1.896-4.941"/><path d="m290.048 310.021c-.415.252-.923.377-1.525.377h-3.024v-2.885h3.024c.677 0 1.205.124 1.581.367.38.245.566.614.566 1.104 0 .44-.207.785-.622 1.037m2.055 3.338c-.263-.253-.501-.459-.714-.624.512-.102.974-.272 1.385-.518.407-.245.754-.543 1.036-.895.284-.353.501-.748.651-1.19.151-.439.227-.903.227-1.394 0-.905-.204-1.645-.613-2.226-.409-.576-.926-1.036-1.557-1.375-.63-.339-1.326-.575-2.092-.707s-1.51-.199-2.225-.199h-6.613v12.615h3.905v-.062h.006v-3.517h1.78l2.977 3.579h5.222l-2.317-2.451c-.443-.441-.793-.786-1.058-1.036"/><path d="m261.993 304.225h-9.619v3.256h4.467v9.339h3.909s.093-9.146.05-9.339h4.417s-.372-3.03-3.224-3.256"/><path d="m232.142 304.198v2.324l-3.119 3.108-4.126-4.11-.001.006c-1.141-1.144-2.744-1.348-2.744-1.348v12.674h3.845v-5.565l3.074 2.945 3.071-2.994v5.635h3.848v-8.861c-.269-3.37-3.848-3.814-3.848-3.814"/><path d="m276.666 312.179c-.138.421-.362.752-.672.991-.312.238-.715.398-1.216.48-.499.083-1.111.122-1.834.122-.721 0-1.333-.039-1.834-.122-.498-.082-.905-.242-1.215-.48-.31-.239-.534-.57-.675-.991-.139-.42-.207-.971-.207-1.649 0-.68.068-1.229.207-1.65.141-.42.365-.749.675-.982.31-.231.717-.389 1.215-.469.501-.083 1.113-.124 1.834-.124.723 0 1.335.041 1.834.124.501.08.904.238 1.216.469.31.233.534.562.672.982.14.421.211.97.211 1.65 0 .678-.071 1.229-.211 1.649m1.951-6.59c-1.265-1.042-3.155-1.565-5.673-1.565-2.527 0-4.421.523-5.681 1.565-1.258 1.045-1.886 2.691-1.886 4.941 0 2.263.625 3.915 1.88 4.959 1.253 1.044 3.151 1.565 5.687 1.565 2.528 0 4.422-.521 5.68-1.565 1.26-1.044 1.889-2.696 1.889-4.959 0-2.25-.632-3.896-1.896-4.941"/><path d="m308.564 310.101c-.876-.57-2.16-.855-3.846-.855h-3.27c-.495 0-.861-.068-1.102-.198-.239-.132-.358-.36-.358-.687s.119-.552.358-.677c.241-.125.607-.189 1.102-.189l7.523-.017s-.372-3.03-3.224-3.255h-3.971c-1.041 0-1.936.093-2.683.282-.749.188-1.358.451-1.831.79-.473.338-.823.75-1.049 1.232-.226.483-.34 1.019-.34 1.609 0 .539.103 1.032.309 1.476.206.445.52.825.946 1.138.425.313.959.558 1.604.733.645.176 1.414.263 2.304.263h3.27c.507 0 .877.071 1.111.209.233.137.349.368.349.695 0 .325-.116.561-.349.706-.234.143-.604.216-1.111.216h-7.809v3.235h7.48c1.043 0 1.936-.093 2.684-.282s1.363-.459 1.841-.809c.48-.352.831-.783 1.05-1.299.22-.513.33-1.089.33-1.728 0-1.156-.44-2.017-1.318-2.588"/><path d="m401.869 304.171-4.707 7.849v4.846h-2.408v-4.846l-4.576-7.849h2.79l2.985 5.403h.066l3.022-5.403zm-12.371 0v12.695h-4.082l-5.284-10.612h-.092l.083 10.612h-2.408v-12.695h4.082l5.283 10.584h.084l-.074-10.584zm-15.988 8.482-2.195-6.613-2.158 6.613zm.558 1.777h-5.478l-.791 2.436h-2.549l4.223-12.695h3.618l4.287 12.695h-2.501zm-15.404-3.693h2.744c1.091 0 1.784-.125 2.079-.376.294-.251.442-.845.442-1.782 0-1.072-.123-1.737-.368-1.995-.245-.257-.882-.386-1.912-.386h-2.985zm-2.409 6.129v-12.695h5.748c1.718 0 2.875.299 3.474.897.598.599.898 1.753.898 3.465 0 1.699-.286 2.827-.856 3.385s-1.724.837-3.46.837l-.558.009h-2.837v4.102zm-1.47-12.695v12.695h-2.409l.139-10.686h-.074l-3.962 10.686h-2.195l-4.009-10.621h-.074l.149 10.621h-2.409v-12.695h3.925l3.45 9.394h.084l3.376-9.394zm-21.727 1.953c-1.618 0-2.564.207-2.837.623-.273.415-.409 1.854-.409 4.316 0 1.822.159 2.92.479 3.293.319.371 1.26.557 2.823.557 1.494 0 2.39-.209 2.688-.628.297-.418.446-1.688.446-3.808 0-2.127-.141-3.384-.423-3.772-.283-.387-1.204-.581-2.767-.581m.186-2.065c2.307 0 3.791.383 4.455 1.149.663.766.995 2.478.995 5.138 0 2.908-.333 4.741-1 5.497-.666.757-2.28 1.135-4.841 1.135-2.306 0-3.798-.374-4.474-1.121s-1.013-2.392-1.013-4.934c0-3.026.331-4.926.995-5.701.663-.775 2.291-1.163 4.883-1.163m-9.208 8.278h2.418v.437c0 1.767-.323 2.909-.967 3.427-.646.518-2.071.777-4.278.777-2.506 0-4.046-.409-4.623-1.228-.577-.818-.865-3.006-.865-6.566 0-2.096.391-3.474 1.172-4.135.781-.66 2.415-.99 4.901-.99 1.811 0 3.02.272 3.628.814.608.543.911 1.62.911 3.232l.009.288h-2.418v-.325c0-.831-.157-1.363-.469-1.596-.313-.232-1.028-.348-2.144-.348-1.495 0-2.392.183-2.693.549-.3.366-.451 1.451-.451 3.255 0 2.431.135 3.869.405 4.315.269.447 1.142.67 2.618.67 1.196 0 1.973-.124 2.33-.372.356-.248.534-.793.534-1.637z"/></g><path d="m223.593 212.708h-23.867v-47.949l-.008-7.55c0-12.548 10.172-22.721 22.721-22.721h1.146z" fill="#d11d24"/><path d="m168.954 134.53h-1.146c-12.549 0-22.722 10.173-22.722 22.721l-.086 55.457h23.867v-30.101h13.011c9.857 0 17.848-7.991 17.848-17.848h-30.859z" fill="#d11d24"/><path d="m174.979 316.834h-3.816v-7.665l-.001-1.207c0-2.006 1.626-3.633 3.632-3.633h.183z" fill="#1b2042"/><path d="m166.244 304.336h-.183c-2.007 0-3.633 1.626-3.633 3.633l-.013 8.865h3.815v-4.812h2.08c1.576 0 2.853-1.278 2.853-2.853h-4.933z" fill="#1b2042"/><path d="m254.744 212.708v-33.484c6.295 6.294 12.303 12.302 18.247 18.245 5.989-5.855 12.025-11.757 18.102-17.699v32.938h23.873v-78.22c-6.836 1.232-12.749 4.057-17.609 8.945-6.664 6.702-22.817 23.321-24.268 24.89-.392-.343-15.397-15.4-22.729-22.921-3.218-3.3-6.631-6.283-10.853-8.197-2.785-1.263-5.654-2.255-8.813-2.693-.022.504-.046 49.819-.077 78.196z" fill="#d11d24"/><path d="m401.869 192.674c-13.325.005-27.893-.002-34.126-.014-3.471-.007-6.874-.51-10.159-1.713-5.063-1.855-9.114-4.945-11.264-10.038-3.589-8.501-.261-17.896 7.887-22.695 4.11-2.421 8.599-3.399 13.306-3.41 10.846-.028 21.693-.009 32.54-.009h1.816c-4.2-6.775-8.224-13.287-12.293-19.769-.199-.316-.793-.538-1.201-.537-8.394.028-16.792-.039-25.181.192-7.603.21-14.901 2.035-21.644 5.626-11.852 6.311-19.281 15.876-20.405 29.697-.961 11.804 3.083 21.825 11.529 29.892 9.318 8.901 20.816 12.563 33.388 12.832 6.683.143 21.961.138 35.807.108z" fill="#d11d24"/><path d="m410.999 177.701c-.795-2.795-1.706-5.526-2.702-8.203h-3.506l.187.504c1.033 2.783 1.892 5.408 2.628 8.024 2.632 9.366 3.875 18.852 3.693 28.194-.057 2.892-.253 5.755-.577 8.584h1.896c-.785 7.077-2.385 14.008-4.807 20.615-3.639 9.93-9.167 19.25-16.586 27.206-8.102 8.687-18.493 15.782-31.064 20.143-13.759 4.773-28.541 5.741-43.336 2.986-5.81-1.082-11.542-2.726-17.132-4.896l.691-1.864c-9.43-3.659-18.461-8.845-26.68-15.378-13.474-10.709-24.304-24.625-31.32-40.244-.655-1.459-1.302-3.014-1.932-4.62l-7.706.004c.927 2.591 1.943 5.16 3.07 7.696 7.519 16.901 19.075 31.604 33.383 42.892 13.962 11.013 29.907 18.269 46.417 21.174 15.46 2.72 30.863 1.523 45.15-3.646 13.008-4.706 23.715-12.226 32.027-21.356 7.59-8.337 13.214-18.05 16.889-28.357 3.396-9.526 5.167-19.67 5.309-29.943.133-9.66-1.172-19.6-3.992-29.515" fill="#1b2042"/></g></svg>