<svg clip-rule="evenodd" fill-rule="evenodd" stroke-miterlimit="3.864" viewBox="0 0 560 400" xmlns="http://www.w3.org/2000/svg"><path d="m0 0-3.388-4.824c-.53-.832-.986-1.306-1.888-1.688-.829-.352-1.237-.439-2.322-.438-10.617.009-18.679-.298-18.679-.298-1.447.18-1.164 6.391.179 6.783 0 0 14.477-.768 17.265-.794 2.601-.024 3.624.599 4.918 2.097l38.267 48.751.317.133h3.337l.202-.199z" fill="#1a5dad" fill-rule="nonzero" transform="matrix(2.86754 0 0 -2.86533 236.79388059 251.18416297)"/><path d="m0 0-3.388-4.824c-.53-.832-.986-1.306-1.888-1.688-.829-.352-1.237-.439-2.322-.438-10.617.009-18.679-.298-18.679-.298-1.447.18-1.164 6.391.179 6.783 0 0 14.477-.768 17.265-.794 2.601-.024 3.624.599 4.918 2.097l38.267 48.751.317.133h3.337l.202-.199z" fill="none" stroke="#1a5dad" stroke-width=".05" transform="matrix(2.86754 0 0 -2.86533 236.79388059 251.18416297)"/><path d="m0 0 3.388-4.824c.53-.832.986-1.306 1.888-1.688.829-.352 1.237-.439 2.322-.438 10.617.009 18.679-.298 18.679-.298 1.447.18 1.164 6.391-.179 6.783 0 0-14.477-.768-17.264-.794-2.602-.024-3.625.599-4.919 2.097l-38.267 48.751-.317.133h-3.337l-.202-.199z" fill="#1a5dad" fill-rule="nonzero" transform="matrix(2.86754 0 0 -2.86533 322.678710868 251.18416297)"/><path d="m0 0 3.388-4.824c.53-.832.986-1.306 1.888-1.688.829-.352 1.237-.439 2.322-.438 10.617.009 18.679-.298 18.679-.298 1.447.18 1.164 6.391-.179 6.783 0 0-14.477-.768-17.264-.794-2.602-.024-3.625.599-4.919 2.097l-38.267 48.751-.317.133h-3.337l-.202-.199z" fill="none" stroke="#1a5dad" stroke-width=".05" transform="matrix(2.86754 0 0 -2.86533 322.678710868 251.18416297)"/><path d="m0 0c3.613-.103 5.683.008 9.247.605 2.971.499 4.644.905 7.483 1.914 2.016.717 3.132 1.197 5.038 2.168l-4.486-.808c2.555.754 3.99 1.62 5.846 3.529 1.156 1.188 1.501 2.114 2.445 3.476.973 1.403 1.417 1.45 2.471 3.615.963 1.979 2.529 6.157 2.387 10.264-.403-2.72-2.053-6.686-2.053-6.686.038.752.064 1.176.118 1.927.179 2.523.182 3.971.68 6.451.435 2.165 1.296 3.25 1.562 5.442.292 2.402.216 3.838-.329 6.197.276-1.412.208-2.323-.276-3.678-.504-1.412-1.568-1.785-2.243-3.125-.524-1.04-.752-1.674-1.01-2.81-.765 2.418-1.482 3.756-3.071 5.733-.451.561-1.05.461-2.301 4.873-.123-2.584-.382-2.321-1.127-2.322-1.353.676-.766.255-1.787 1.828-.771 1.188-.812 2.527-1.037 3.926-.48 2.979-1.155 4.577-1.83 7.519.166-2.248-.499-3.079-1.165-5.244-.7-2.279-3.432-3.024-4.718-2.884-1.186.129-3.054.653-3.303 2.601.025-.05-.61-1.589-.747-1.77-.077-.102-.942-.083-1.276 1.498-.299 1.417-2.551 2.774-1.72 5.548-1.498-4.744-.722-3.657-2.052-4.91-1.416-1.331-2.262-2.279-3.945-1.947-1.381.272-2.095 1.11-2.721 2.37-.385.773-.504 1.295-.493 2.158l-.609 4.049c-.016-2.304-.319-3.673-1.275-5.77-.508-1.112-.671-1.909-1.611-2.691-.847-.703-1.552-1.37-2.613-1.073-1.17.328-1.549.99-1.632 2.655-.099 1.988-.083 3.58 0 5.078-.696-4.025-1.695-8.136-4.416-9.497-.877-.439-1.872-1.89-2.908-2.822-1.665-1.498-3.079-2.247-3.578-1.914-.337 1.229-.453 1.953-.518 3.226-.081 1.602.351.218.351 4.098-1.009-7.961-2.996-7.769-4.744-11.736-.926-2.103-1.56-3.328-1.878-5.616-.238-1.711.093-2.706 0-4.432-.034-.627-.06-.979-.119-1.604-.385.437-.758.633-.891 1.2-.692 2.961-1.107 5.126-.775 7.872-1.891-5.442.182-8.807 1.139-12.484.528-2.032 2.06-3.477 3.827-5.326.974-1.019 1.597-1.524 2.692-2.414 8.246-6.705 15.347-7.955 25.971-8.257" fill="#f9a91f" fill-rule="nonzero" transform="matrix(2.86754 0 0 -2.86533 285.060600624 262.54519642)"/><path d="m0 0c.821 0 1.38 1.041 1.38 2.125 0 2.515-1.61 3.686-1.478 6.201-.625-1.084-.888-2.038-.888-3.426 0-1.257.789-1.864.789-3.122 0-.781-.165-1.258-.263-2.038.164.087.263.26.46.26" fill="#f9a91f" fill-rule="nonzero" transform="matrix(2.86754 0 0 -2.86533 363.86748192 160.32168334)"/><path d="m0 0c-1.161 1.06-.605 3.632-.605 5.197 0 1.363.201 2.17 0 3.533 1.311-2.625.605-5.802.605-8.73" fill="#f9a91f" fill-rule="nonzero" transform="matrix(2.86754 0 0 -2.86533 306.303336944 131.35319704)"/><path d="m0 0c1.161.605 1.615 3.584 1.514 4.088.505-1.059.757-1.817.757-3.028 0-.656-.992-.874-.958-1.464.092-1.614.092-3.03-.324-4.195-.168-.47-.181 2.782-.333 3.236-.152.505-.454.859-.656 1.363" fill="#f9a91f" fill-rule="nonzero" transform="matrix(2.86754 0 0 -2.86533 256.75482653 111.71422522)"/><path d="m0 0c-.353 0-.303.605-.303.959 0 1.211 1.262 1.615 1.616 2.726.555 1.615.201 2.726.201 4.442 0 .151.202-.556.202-.404 0 .909-.151 1.463-.202 2.373-.555-3.786-2.625-5.553-2.625-9.339 0-.908.758-1.211 1.01-2.07.101.455.605 1.313.101 1.313" fill="#f9a91f" fill-rule="nonzero" transform="matrix(2.86754 0 0 -2.86533 188.978511352 174.87469441)"/><path d="m0 0c1.161.605 1.615 3.584 1.514 4.088.505-1.059.757-1.817.757-3.028 0-.656-.757-.909-.958-1.464-.303-.808.3-2.976-.356-3.631-.354-.354-.149 2.218-.301 2.672-.152.505-.454.859-.656 1.363" fill="#f9a91f" fill-rule="nonzero" transform="matrix(2.86754 0 0 -2.86533 214.850891002 132.38758117)"/><path d="m0 0h-1.028l-.312-2.397-.102 2.437-4.217.166-.26-4.33-.236 4.351-3.679.185-.23-4.37-.035 4.4-1.442.027-.177-6.126 3.06.071.32 3.602.103-3.622 4.501.1.287 4.385.174-4.385 3.272-.027z" fill="#fff" fill-rule="nonzero" transform="matrix(2.86754 0 0 -2.86533 208.192749876 255.01224385)"/><path d="m0 0h1.028l.312-2.397.102 2.437 4.217.166.26-4.33.236 4.351 3.679.185.23-4.37.036 4.4 1.441.027.177-6.126-3.06.071-.319 3.602-.105-3.622-4.5.1-.287 4.385-.174-4.385-3.272-.027z" fill="#fff" fill-rule="nonzero" transform="matrix(2.86754 0 0 -2.86533 351.27898132 255.01224385)"/><g fill="#1a5dad"><path d="m0 0h3.182v1.405h-.466v3.044h.466v1.406h-3.182v-1.406h.449v-3.044h-.449zm3.794 0h3.026v1.405h-.292l-1.493 1.941 1.19 1.103h.457v1.406h-2.888v-1.406h.483l-1.492-1.379 1.285-1.665h-.276z" transform="matrix(2.86754 0 0 -2.86533 158.683811514 294.61396978)"/><path d="m0 0h2.319v1.285h-.482l.25.733h1.5l.224-.733h-.508v-1.285h3.06v1.405h-.43l-1.121 3.044h.473v1.406h-4.216v-1.406h.474l-1.103-3.044h-.44zm2.319 2.751.535 1.621h.017l.492-1.621z" transform="matrix(2.86754 0 0 -2.86533 179.625742888 294.61396978)"/><path d="m0 0c.362-.052.518-.069.879-.069.707 0 1.13.103 1.535.509.414.413.518.896.518 1.888v3.932h.5v1.405h-3.302v-1.405h.534v-3.975c0-.69-.061-.88-.414-.88-.069 0-.146.009-.25.035z" fill-rule="nonzero" transform="matrix(2.86754 0 0 -2.86533 197.794189574 299.80308241)"/><path d="m0 0h2.319v1.285h-.482l.25.733h1.5l.224-.733h-.508v-1.285h3.06v1.405h-.43l-1.121 3.044h.473v1.406h-4.216v-1.406h.474l-1.103-3.044h-.44zm2.319 2.751.535 1.621h.017l.492-1.621z" transform="matrix(2.86754 0 0 -2.86533 207.49335687 294.61396978)"/><path d="m0 0h2.319v1.285h-.482l.25.733h1.5l.224-.733h-.508v-1.285h3.06v1.405h-.43l-1.121 3.044h.473v1.406h-4.216v-1.406h.474l-1.103-3.044h-.44zm2.319 2.751.535 1.621h.017l.492-1.621z" transform="matrix(2.86754 0 0 -2.86533 226.934704562 294.61396978)"/><path d="m0 0h2.406v1.405h-.526v2.061h.017l2.458-3.561h1.931v4.544h.509v1.406h-2.363v-1.406h.492v-1.655h-.018l-2.13 3.061h-2.776v-1.406h.517v-3.044h-.517z" fill-rule="nonzero" transform="matrix(2.86754 0 0 -2.86533 246.670835366 294.61396978)"/><path d="m0 0h3.354v1.405h-.543v3.044h.543v1.406h-3.354v-1.406h.543v-3.044h-.543z" fill-rule="nonzero" transform="matrix(2.86754 0 0 -2.86533 267.506381006 294.61396978)"/><path d="m0 0h2.406v1.405h-.526v2.061h.017l2.458-3.561h1.931v4.544h.509v1.406h-2.363v-1.406h.492v-1.655h-.018l-2.13 3.061h-2.776v-1.406h.518v-3.044h-.518z" fill-rule="nonzero" transform="matrix(2.86754 0 0 -2.86533 278.618958768 294.61396978)"/><path d="m0 0h3.087v1.405h-.371v.958h1.354v-.958h-.371v-1.405h3.087v1.405h-.449v3.044h.449v1.406h-3.087v-1.406h.371v-.896h-1.354v.896h.371v1.406h-3.087v-1.406h.449v-3.044h-.449z" fill-rule="nonzero" transform="matrix(2.86754 0 0 -2.86533 308.469763414 294.61396978)"/><path d="m0 0c0-1.38 1.017-3.035 3.303-3.035 2.285 0 3.302 1.655 3.302 3.035s-1.017 3.035-3.302 3.035c-2.286 0-3.303-1.655-3.303-3.035m2.544 0c0 1.095.138 1.664.759 1.664.62 0 .758-.569.758-1.664s-.138-1.664-.758-1.664c-.621 0-.759.569-.759 1.664" transform="matrix(2.86754 0 0 -2.86533 328.913889844 286.18703425)"/><path d="m0 0h3.182v1.405h-.466v3.044h.466v1.406h-3.182v-1.406h.449v-3.044h-.449zm3.794 0h3.026v1.405h-.292l-1.493 1.941 1.19 1.103h.457v1.406h-2.888v-1.406h.483l-1.492-1.379 1.285-1.665h-.276z" transform="matrix(2.86754 0 0 -2.86533 348.88458542 294.61396978)"/><path d="m0 0h3.182v1.405h-.466v3.044h.466v1.406h-3.182v-1.406h.449v-3.044h-.449zm3.794 0h3.026v1.405h-.292l-1.492 1.941 1.189 1.103h.457v1.406h-2.888v-1.406h.483l-1.492-1.379 1.285-1.665h-.276z" transform="matrix(2.86754 0 0 -2.86533 370.41694328 294.61396978)"/><path d="m0 0h3.354v1.405h-.543v3.044h.543v1.406h-3.354v-1.406h.543v-3.044h-.543z" fill-rule="nonzero" transform="matrix(2.86754 0 0 -2.86533 391.7026927 294.61396978)"/><path d="m0 0c0 11.327 13.186 20.508 29.452 20.508 16.267 0 29.453-9.181 29.453-20.508s-13.186-20.508-29.453-20.508c-16.266 0-29.452 9.181-29.452 20.508" fill-rule="nonzero" transform="matrix(2.86754 0 0 -2.86533 195.744471982 201.61108864)"/></g><path d="m0 0c0 11.327 13.186 20.508 29.452 20.508 16.267 0 29.453-9.181 29.453-20.508s-13.186-20.508-29.453-20.508c-16.266 0-29.452 9.181-29.452 20.508z" fill="none" stroke="#1a5dad" stroke-width=".05" transform="matrix(2.86754 0 0 -2.86533 195.744471982 201.61108864)"/><path d="m0 0h15.87v8.738h-1.906v3.254h6.96v-3.254h-1.906v-8.738h15.87v8.738h-2.305v10.35h2.305v8.935h-2.753v-2.44h-3.486l.001 2.44h-3.363l-.001-2.348h-3.363v2.348h-2.905v-8.935h1.906v-3.05h-6.96v3.05h1.906v8.935h-2.862l-.001-2.444h-3.551l.001 2.444h-3.184v-2.448h-3.554v2.448h-2.719v-8.935h2.305v-10.35h-2.305z" fill="#ef343a" fill-rule="nonzero" transform="matrix(2.86754 0 0 -2.86533 230.178752564 241.75722727)"/><path d="m0 0h15.87v8.738h-1.906v3.254h6.96v-3.254h-1.906v-8.738h15.87v8.738h-2.305v10.35h2.305v8.935h-2.753v-2.44h-3.486l.001 2.44h-3.363l-.001-2.348h-3.363v2.348h-2.905v-8.935h1.906v-3.05h-6.96v3.05h1.906v8.935h-2.862l-.001-2.444h-3.551l.001 2.444h-3.184v-2.448h-3.554v2.448h-2.719v-8.935h2.305v-10.35h-2.305z" fill="none" stroke="#fff" stroke-width=".46" transform="matrix(2.86754 0 0 -2.86533 230.178752564 241.75722727)"/><path d="m0 0c-1.212.611-.633 2.093-.633 2.995 0 .785.211 1.25 0 2.035 1.371-1.511.633-3.343.633-5.03" fill="#f9a91f" fill-rule="nonzero" transform="matrix(2.86754 0 0 -2.86533 350.25526954 152.40191122)"/></svg>