<svg clip-rule="evenodd" fill-rule="evenodd" stroke-linejoin="round" stroke-miterlimit="2" viewBox="0 0 560 400" xmlns="http://www.w3.org/2000/svg"><g fill-rule="nonzero" transform="matrix(.306343 0 0 .306343 132.339 51.8097)"><g fill="#fff"><path d="m452.52 85.51c15.11-1.6 30.36-1.14 45.49-.15 7.12.18 14.27.66 21.31 1.76-1.58.34-3.13.74-4.68 1.14.06 1.5.09 3 .16 4.5-3 .62-5.99 1.27-9 1.78-15.29-.82-30.6-1.4-45.92-.82-5.95 2.38-8.5 10.49-15.47 10.54 2.28-6.42 4.98-12.69 8.11-18.75z"/><path d="m599.14 103.79c5.22.01 10.49.87 15.42 2.56 1.37.7 2.72 1.43 4.05 2.23-3.93-.18-7.68.89-11.03 2.88-2.81 1.77-6.14.68-9.09-.01-.15-.41-.44-1.24-.59-1.66.23-2.03.81-4.01 1.24-6z"/><path d="m325.87 187.13c7.16-3.52 14.36-7.01 21.32-10.93 2.82 4.23 5.13 8.76 7.4 13.3 6.16 11.68 12.56 23.27 17.97 35.34-6.37 3.15-12.61 6.56-18.93 9.8-1.22.63-2.57.89-3.91 1.13-1.97-4.67-4.59-9.03-6.75-13.62-.78-1.66-1.7-3.29-3.05-4.55-4.34 1.6-8.64 3.79-12.42 6.47 2.18 6.75 6.51 12.72 9.28 19.29-7.7 4.16-15.6 7.91-23.26 12.13-1.91-3.5-3.83-7-5.61-10.57-6.18-12.8-13.26-25.15-19.56-37.89 5.69-3.38 11.62-6.31 17.48-9.38 1.48-.63 3.03-1.71 4.72-1.32 3.54 5.55 6.11 11.66 9.08 17.52 5.56-.37 10.35-3.63 15.02-6.36.28-2.04-.65-3.94-1.51-5.71-2.42-4.89-5.55-9.44-7.27-14.65z"/><path d="m571.44 225.52c1.35 1.39 3 2.76 3.26 4.81.81 2.56-2.02 4.5-3.99 5.5-3.29.64-6.85.59-10.01-.57-2.47-1.57-.81-4.66-.57-6.91 1.31-.09 2.63-.16 3.96-.22 2.17.1 4.33.49 6.51.69.21-.83.63-2.47.84-3.3z"/><path d="m234.33 255.52c4.73-15.04 21.88-25.48 37.36-21.37 7.17 2.93 13.17 8.21 17.93 14.24 4.57 4.93 8.74 10.22 13.6 14.88-6.09 5.78-12.32 11.44-18.8 16.78-6.81-7.66-13.25-15.72-20.68-22.78-1.92-2.27-5.45-1.14-6.1 1.64-.49 2.71-.1 5.56 1.8 7.68 4.86 6.1 10.39 11.64 15.48 17.54.85 1.02 1.22 2.31 1.73 3.52-6.38 4.78-11.8 10.73-18.18 15.53-7.01-8.5-15.13-16.11-21.55-25.08-1.61-3.29-3.14-6.66-4.02-10.23-.93-4.15.23-8.38 1.43-12.35z"/><path d="m190.23 302.83c4.35-6.9 8.6-13.92 13.49-20.46 13.8 8.76 27.1 18.29 41.08 26.76 1.83 1.24 4.13 2.33 4.74 4.66-4.12 5.28-7.44 11.1-11.21 16.62-.67.86-1.26 2.12-2.51 2.2-5.04.89-10.08 1.73-15.14 2.49-.44 6.07 2.63 11.8 2.66 17.81-4.05 6.98-8.77 13.57-13.21 20.31-.61 1.41-2.03-.15-2.82-.51-14.64-9.62-29.14-19.48-44-28.75 3.56-6.22 7.85-11.96 11.53-18.1.66-.78 1.52-2.92 2.81-1.75 4.76 2.93 9.27 6.26 14.08 9.12 3.51 2.01 6.55 5.34 10.83 5.54-.65-5.08-2.21-9.98-3.21-14.98 4.78-1.09 9.62-1.9 14.47-2.56-.11-1.88-.97-3.49-2.54-4.56-6.88-4.81-13.9-9.45-21.05-13.84z"/><path d="m735.88 305c8.88-6.17 17.25-13.02 26.03-19.31 4.78 6.21 10.05 12.16 13.83 19.07-7.28 4.99-14.09 10.62-21.31 15.69-1.09.85-2.44 1.64-2.76 3.09-.96 4.97 4.29 8.02 6.09 12.19-6.34 4.31-12.17 9.33-18.63 13.46-6.72-9.05-13.41-18.12-20.22-27.09-3.49-4.51-6.51-9.41-10.5-13.51 5.68-5.48 12.46-9.66 18.75-14.39 2.87 3.63 5.41 7.54 8.72 10.8z"/><path d="m745.43 358.72c17.14-8.02 34.59-15.38 51.74-23.39 2.7 5.45 5.38 10.93 7.41 16.68-3.45 5.55-6.81 11.21-9.76 17.04-.27 1.55-.39 3.12-.49 4.69 6.07-.56 11.07-4.45 16.72-6.39 3.14 7.14 6.9 14.02 9.45 21.41-17.19 7.15-34.06 15.09-51.06 22.69-2.22-4.78-4.9-9.4-6.39-14.47 3.25-7.9 8.86-14.7 11.87-22.76-1.49-.62-2.95-1.33-4.54-1.61-4.8 2.73-9.98 4.7-14.97 7.06-3.67-6.82-6.63-13.98-9.98-20.95z"/><path d="m156.52 378.47c5.04-2.5 10.74-4.42 16.43-3.72 7.14 1.44 14.41 4.41 19.01 10.32 5.75 6.55 7.6 15.64 6.37 24.12-2.11 9.94-8.83 18.82-18.18 22.96-11.71 6-27.31 2.32-35.14-8.22-3.28-6.55-6.72-13.96-4.79-21.45 1.7-9.78 7.2-19.44 16.3-24.01m7.01 23.52c-.13 2.19-.31 4.4.04 6.59 1.54 5.9 10.89 7.26 13.89 1.92 2.23-3.23 1.32-7.72-1.16-10.56-2.26-1.77-5.06-3.97-8.11-2.84-2.39.55-3.72 2.82-4.66 4.89z"/><path d="m816.74 414.87c3.73-1.2 7.56-2.15 11.48-2.54 3.21 15.47 6.1 31 9.39 46.45-18.16 4.42-36.71 7.18-54.91 11.43-3.26-12.31-5.1-24.94-7.81-37.38-.57-3.14-1.76-6.26-1.44-9.5 3.53-1.07 7.2-1.58 10.83-2.26 2.51 7.78 2.47 16.21 5.79 23.74 3.32-.49 6.67-1.16 9.65-2.79-1.33-5.29-2.94-10.58-3.19-16.07 3.7-.46 7.39-2.01 11.16-1.44 1.52 4.89 2.23 10 3.12 15.04 3.33.18 6.68-.06 9.93-.87-.12-8.1-2.7-15.87-4-23.81z"/><path d="m128.8 450.54c11.03 1.09 22.08 1.92 33.12 2.92 7.46-.11 14.82 1.39 22.28 1.33.02 1.46.02 2.93.01 4.41-.37 3.8-.82 7.6-.81 11.43-6.5 4.43-13.35 8.32-19.95 12.6-.4 1.31-.82 2.61-1.23 3.93 6.01 2.76 12.8 2.08 19.22 2.54-.36 7.88-1.38 15.72-1.48 23.61-18.76-1.46-37.51-3-56.28-4.43-.09-5.82-.71-11.97 1.62-17.47 5.39-4.9 12.66-7.19 18.15-11.96 1.17-1.67-1.23-2.57-2.11-3.65-4.6-1.63-9.86-.94-14.72-1.71.05-7.88.77-15.79 2.18-23.55z"/><path d="m784.61 489.96c.21-1.46-.13-3.51 1.39-4.35 6.68-.44 13.39.05 20.05.67 11.8.49 23.65-.18 35.38 1.47.04 6.17-.39 12.33-.51 18.5-.06 1.52-.13 3.05-.16 4.59-9.6.02-19.18-.76-28.77-1.06l-.14.95c-.04 1.37-.94 3.08.28 4.2 2.51 2.75 5.56 4.95 8.08 7.7-2.8 2.61-5.94 4.84-8.65 7.55-.51 1.3-.95 2.63-1.4 3.96 4.54 2.64 9.94.92 14.9 1.58 4.78.6 9.6.88 14.43.9-.09 7.91-.97 15.78-1.01 23.69-18.62-1.16-37.29-1.59-55.93-2.45-.1-6.31.05-12.62.03-18.93.16-1.49-.2-3.23.79-4.48 3.62-4.41 9.17-6.88 12.46-11.58-.25-1.61-1.47-2.77-2.47-3.95-3-2.88-5.98-5.8-8.88-8.77.14-6.73.06-13.46.13-20.19z"/><path d="m375.95 557.95c24.42-22.01 58.73-32.48 91.28-27.91l.2 1.8c-.67.8-1.33 1.61-1.99 2.42.4 1.21.79 2.43 1.19 3.66-1.26.19-2.52.36-3.78.53-11.77-1.23-23.64-.21-35.17 2.36-8.43 2.67-16.75 5.7-24.87 9.2-3.53 1.47-6.31 4.17-9.47 6.26-6.04 3.78-11.58 8.45-16.11 13.98-2.02 2.28-4.46 4.11-6.77 6.07-.7.13-2.1.37-2.8.49-3.58 4-6.38 8.93-11.24 11.56-2.48 1.39-4.41 3.48-6.18 5.66.24-1.4.47-2.8.74-4.18 6.04-12.21 15.01-22.72 24.97-31.9z"/><path d="m129.22 552.47c2.87-13.96 17.74-23.66 31.65-21.62 7.32 1.5 14.75 5.04 18.7 11.68 7.09 10.03 8.06 22.82 6.62 34.67-.52 3.64-1.51 7.19-2.58 10.71-5.65-2.81-11.19-5.81-16.7-8.88.78-7.33 2.55-16.01-2.58-22.19-2.22-2.98-6.07-5.49-9.89-4.27-2.23.46-3.91 2.19-4.75 4.26-1.36 3.47-1.37 7.29-.46 10.88 3.02-.12 6.04-.32 9.05-.67 1.56 7.64 3.18 15.37 3.31 23.19-8.89.79-17.68 2.56-26.49 3.93-.53-.09-1.58-.27-2.1-.36-1.8-13.69-6.58-27.43-3.78-41.33z"/><path d="m778.9 572.25c2.81.64 5.6 1.39 8.34 2.31 14.92 5.07 30.1 9.35 44.98 14.49v2.05c-1.66 4.76-3.05 9.61-4.72 14.36-6.64 2.06-13.14 4.55-19.86 6.32-.16.28-.49.85-.65 1.13-.65 1.11-1.29 2.23-1.92 3.35 5.25 2.52 11.01 3.62 16.44 5.66-.06.52-.18 1.57-.23 2.09-2.23 6.66-4.19 13.4-6.51 20.02l-.77.37c-17.52-5.45-34.99-11.1-52.54-16.45 1.25-4.75 2.38-9.57 4.26-14.12.75-2.42 3.45-2.93 5.53-3.7 6.39-1.96 12.79-3.96 18.89-6.71-.84-1.77-2.17-3.21-3.89-4.13-4.78-1.57-9.6-2.99-14.37-4.56 2.08-7.57 4.76-14.96 7.02-22.48z"/><path d="m161.36 609.31c5.52-3.41 12.08-5.57 18.61-4.61 7.71 1.25 15.16 5.13 19.98 11.37 5.2 6.81 8.29 15.47 7.23 24.1-1.99 9.4-8.11 18.15-17.23 21.74-12.14 5.78-27.78 1.62-35.75-9.1-2.97-5.49-5.88-11.38-5.76-17.77-.5-10.02 4.44-20.28 12.92-25.73m15.36 16.38c-3 .61-4.44 3.63-5.1 6.33-.9 4.29 1.6 9.03 5.84 10.38 3.63.72 7.79-1.14 9.2-4.66 1.68-3.01.04-6.57-2.07-8.88-1.84-2.27-4.88-4.25-7.87-3.17z"/><path d="m507.31 618.83c3.28 1.31 6.43 2.96 9.82 4.01 1.15-.12 2.31-.28 3.48-.45l1.2 1.8c-1.1 1.48-2.15 2.99-3.16 4.54-2.95-.46-5.9-.96-8.84-1.48-.81-2.82-1.65-5.62-2.5-8.42z"/><path d="m741.75 663.52c4.34-6.84 7.32-14.46 12.02-21.08 16.18 8.86 32.44 17.6 48.53 26.63-4.04 6.9-7.65 14.04-11.61 20.99-16.34-8.8-32.57-17.8-48.94-26.54z"/><path d="m206.94 672.9c4.74-3.16 8.81-7.37 13.98-9.85 1.88 1.49 3.24 3.51 4.63 5.44 3.02 4.41 6.4 8.57 9 13.25-8.09 6.04-16.72 11.44-24.24 18.2.35 2.65-1.01 6.4 1.79 8.04 2.2 1.47 4.81.02 6.81-1.09 7.98-4.87 14.92-11.25 22.89-16.14 4.42 6.42 9.35 12.49 13.49 19.11-8.58 5.44-16.22 12.27-24.93 17.52-7.2 4.39-16.43 5.85-24.39 2.73-6.66-2.32-12.27-7.14-16-13.07-3.54-7.3-4.82-15.81-2.82-23.72 3.42-9.29 12.04-14.99 19.79-20.42z"/><path d="m502.28 690c14.49 1.73 29.03 3.14 43.58 4.22.1.75.3 2.26.4 3.01-3.86 2.08-7.54 5.68-12.25 5.09-9.46-1.21-18.99-2.56-28.56-1.89-3.47 3.6-8.07 5.75-12.02 8.76-14.42 7.69-31.02 10.91-47.29 10.13-.4-.47-1.2-1.42-1.59-1.89-1.77-.14-3.65.04-5.25-.83-.81-2.4 1.85-4.59 3.98-5.06 6-.66 12.13.13 18.06-1.34 15.21-2.44 30.44-8.57 40.94-20.2z"/><path d="m725.17 689.89c5.41.9 10.38 3.44 15.55 5.2 11.31 3.93 22.37 8.54 33.76 12.25 1.89.73 4.29 1.17 5.16 3.29-5.1 5.53-9.7 11.49-14.72 17.08-3.19-1.44-6.5-2.56-9.76-3.79-4.29 4.82-8.49 9.71-12.54 14.73-1.78 1.94.86 4.15 1.7 5.97.74 1.64 3.29 3.47 1.66 5.32-3.93 5.34-8.62 10.08-12.72 15.29-1.31 1.44-2.35 3.54-4.53 3.64-6.73-12.9-14.38-25.3-21.42-38.04-2.37-3.92-4.24-8.15-6.97-11.84 3.91-5.83 8.99-10.74 13.38-16.19 3.86-4.27 7.03-9.19 11.45-12.91m1.48 23.3.33.56c-.36 1.19-1.01 2.5-.32 3.73 1.9 3.96 4.28 7.67 6.45 11.49.61 1.33 1.95 2.05 3.39 1.52 2.87-2.64 5.08-5.91 7.15-9.18-.88-.79-1.75-1.57-2.6-2.35-4.58-2.44-9.55-3.99-14.4-5.77z"/><path d="m251.6 732.61c3.02-3.79 7.61-6.42 12.41-7.02 9.86.6 17.77 7.3 24.92 13.47 4.33 4.5 8.7 9.16 11.62 14.74-5.18 2.03-9.73 5.43-15.03 7.2.82-7.22-2.56-15.15-9.57-17.94-2.7-.41-4.14 2.65-3.4 4.93 3.29 8.21 9.97 15.59 9.26 24.95.32 5.5-3.9 10.01-8.39 12.56-5.84 3.29-13.11 1.79-18.73-1.25-11.15-6.08-19.62-15.84-27.38-25.66 3.23-4.68 9.13-6.3 13.78-9.22 1.17 4.44 1.91 9.17 4.51 13.07 1.64 2.36 4.27 4.45 7.3 4.27 2.03.14 4.07-1.78 3.8-3.85-.11-6.95-5.54-12.28-7.1-18.84-.47-3.85-.62-8.25 2-11.41z"/><path d="m645.61 764.17c14.06-10.77 27.92-21.81 42.18-32.31 4.14 6 9.7 11.09 12.85 17.71-2.94 1.95-6.03 3.83-8.42 6.45.14 1.7 1.57 2.89 2.46 4.26 5.9 7.12 11.12 14.77 17.13 21.8-6.9 5.99-14.27 11.42-21.55 16.92-4.49-6.23-9.34-12.18-13.97-18.3-2.05-2.55-3.9-5.3-6.4-7.43-3.92 2.15-7.04 5.62-10.89 7.97-4.64-5.56-8.81-11.48-13.39-17.07z"/><path d="m620.01 777.88c5.14-2.19 10.92-4.58 16.51-2.56 6.7 1.74 12.18 8.67 10.75 15.74-.44 1.24-.97 2.47-1.34 3.75-.34 1.52-1.21 3.64.81 4.38 7.78 4.09 15.78 9.12 19.64 17.4-7.91 2.99-15.19 7.75-23.22 10.27-3.85-5.01-6.95-11.28-13.01-14.08-2.3-1.29-4.99-.7-7.47-.61-.01.7-.04 2.11-.06 2.81 2.44 5.49 5.45 10.71 7.82 16.24.91 2.24-2.01 2.92-3.44 3.78-6.8 2.87-13.18 6.67-20.09 9.28-.8-2.81-1.92-5.51-3.24-8.11-6.89-13.57-12.79-27.62-19.49-41.28 11.87-5.83 23.81-11.52 35.83-17.01m-8.43 12.52-.25-.51c-.74 5.56 2.57 10.27 5.04 14.93 3.62.23 6.24-2.67 7.88-5.55 1.25-2.59-.53-5.12-1.82-7.26-2.67-3.24-7.46-4.83-10.85-1.61z"/><path d="m339.06 775.5c14.89 6.39 29.7 12.99 44.4 19.79-1.51 3.28-2.9 6.63-4.52 9.87-7.43-3.15-14.71-6.66-22.15-9.78-1.17 2.09-2.31 4.22-2.98 6.53-.23 1.21-.41 2.45-.42 3.7 4.36 3.09 9.69 4.42 14.26 7.21-1.62 3.19-3.03 6.49-4.58 9.72-5.01-2.19-9.91-4.65-14.99-6.65-1.87 1.35-2.33 4.06-3.38 6.07-.25 1.79-.88 4.12 1.28 5.01 6.2 3.51 13.14 5.5 19.39 8.96-1.51 3.33-3 6.68-4.54 10-14.73-6.74-29.5-13.39-44.32-19.91 7.44-16.88 14.86-33.76 22.55-50.52z"/><path d="m525.87 808.82c15.98-4.07 32.16-7.3 48.27-10.8.71 3.35 1.35 6.72 2.2 10.05-7.62 1.4-15.2 3.09-22.73 4.9-.69 3.76-.1 7.66 1.29 11.21 5.44.68 10.83-2.23 16.27-2.85.88 2.94 1.91 5.86 2.68 8.85l.14.72c-4.52 1.64-9.32 2.31-14.03 3.17-.41.08-1.23.25-1.64.33-.18 3.8.12 7.62.9 11.36 8.43.18 16.31-3.3 24.61-4.17.65 2.86 1.37 5.72 1.92 8.61.05.31.16.91.21 1.22-16.13 3.46-32.34 6.7-48.32 10.78-3.73-17.84-8.07-35.54-11.77-53.38z"/><path d="m393.9 799.42c4.78.28 9.47 1.3 14.15 2.28 1.25.34 2.82.51 3.5 1.82 3.53 5.79 5.76 12.25 8.77 18.31.69 1.47 2.13 2.35 3.36 3.36 2.12-6.21 2.88-12.76 4.3-19.14 8.15 1.15 16.24 2.74 24.28 4.49-3.65 18.15-7.33 36.29-10.78 54.48-4.93-.51-9.7-1.92-14.57-2.76-1.86-.45-3.91-.56-5.49-1.72-4.25-6.21-5.63-14.03-10.18-20.04-1.83 5.62-2.53 11.53-3.73 17.31-8.06-1.4-16-3.41-24.08-4.61 2.89-18.03 7.3-35.8 10.47-53.78z"/><path d="m462.67 810.72c17.57-.12 35.14-.16 52.71-.25.64 7.12.31 14.27.4 21.42-4.33.21-8.67.26-13 .08-.99 3.93-1.23 8.01-.82 12.04.65 7.05.43 14.15.28 21.22-8.22.03-16.43.68-24.64.23-.42-9.07-.02-18.15-.29-27.22.08-1.8-.92-3.31-2.11-4.54-.27-.24-.81-.73-1.08-.97-3.81-.3-7.63-.2-11.43-.42-.22-7.19-.19-14.4-.02-21.59z"/></g><g fill="#1c1569"><path d="m430.19 44.19c23.94-2.84 48.05.23 71.85 2.96 44.55 6.21 88.8 15.11 131.98 27.82 22.53 6.64 44.97 13.82 66.34 23.66 11.92 5.6 23.99 11.5 33.91 20.3-.07 21.7-6.6 42.64-10.33 63.84 1.94 1.75 3.86 3.53 5.92 5.15 30.43 23.37 57.29 51.34 79.89 82.33 21.42 29.27 38.55 61.56 51.73 95.31 4.3 10.91 8.44 21.93 11.48 33.26.8 4.95 2.27 9.75 3.43 14.62 6.01 27.47 10.01 55.43 10.74 83.56.06 18.03.08 36.08-2 54.01-5.87 57.52-24.23 113.74-53.58 163.56-24.65 42.31-57.36 79.79-95.26 110.72-40.89 33.11-88.26 58.19-138.64 73.34-33.61 10.12-68.52 15.62-103.57 17.11-39.58 1.39-79.34-3.23-117.66-13.18-85-21.9-161.99-72.77-216.39-141.54-7.08-7.82-11.96-17.38-19.22-25.02-.94-.97-1.77-2.04-2.49-3.17-22.76-37.04-40.77-77.13-52.1-119.14-6.49-25.68-11.1-51.93-12.53-78.37-1.28-8.38-.46-16.89-.69-25.32.19-9.67-.6-19.4.89-28.99.03-7.37 1.16-14.65 1.98-21.96 7.96-67.46 33.75-132.62 73.53-187.64 39.01-54.03 91.36-98.47 151.32-127.63 22.41-11.31 46.12-19.83 70.21-26.79 12.47-3.36 25.05-6.4 37.81-8.46 5.64-20.39 10.43-41.2 19.25-60.53.65-1.31 1.15-2.75 2.2-3.81m2.46 5.28c-8.6 18.71-13.67 38.78-18.49 58.72-.49 1.89-1.43 3.97-3.46 4.6-3.75 1.29-7.74 1.65-11.61 2.41-29.75 6.27-58.88 15.63-86.53 28.31-14.99 7.01-29.59 14.81-43.8 23.27-13.72 9.12-27.76 17.88-40.24 28.69-15.12 11.74-28.98 25.03-42.19 38.87-39.21 41.44-69.13 91.54-87.5 145.53-6.94 20.08-12.3 40.74-15.44 61.76-3.26 16.6-4.22 33.54-5.51 50.37.08 12-.15 24.01.15 36 .84 9.86 1.46 19.75 2.44 29.6 2.25 13.9 3.94 27.9 7.3 41.59 2.99 11.76 5.66 23.64 9.9 35.03 4.34 14.91 10.63 29.13 16.72 43.38 14.78 31.3 33.18 60.98 55.54 87.46 5.52 7.4 11.89 14.1 18.34 20.69 3.32 3.67 6.59 7.39 10.32 10.65 11.33 10.73 22.86 21.3 35.37 30.64 9.16 7.73 19.35 14.03 29.27 20.69 42.06 27.09 89.3 46.05 138.38 55.67 40.44 7.7 82.05 9.93 122.98 5.1 49.45-5.23 97.73-20.17 141.84-43.05 19.7-10.79 39.02-22.43 56.8-36.21 80.11-60.41 136.48-151.79 153.19-250.85 3.25-16.26 4.35-32.83 5.48-49.34.4-10.36-.06-20.72.21-31.07.27-9.24-1.1-18.4-1.55-27.61-2.92-29.71-8.62-59.26-18.4-87.51-15.33-46.69-39.58-90.35-70.61-128.42-13.37-15.54-27.11-30.87-42.69-44.26-8.97-8.45-18.97-15.7-28.25-23.78-2.73-2.16-1.57-5.82-.97-8.67 4.36-16.9 7.94-34.02 9.76-51.4.13-2.21 1.09-5.1-1.31-6.44-17.85-13.04-38.68-21.05-59.24-28.71-35.82-12.72-72.77-21.9-109.92-29.76-16.64-2.76-33.16-6.33-49.93-8.29-23.23-2.96-46.6-6.02-70.06-4.97-2.16.13-4.24.72-6.29 1.31z"/><path d="m451.97 80.78c8.6-1.35 17.35-1 26.03-1.06 18.18.2 36.32 1.87 54.39 3.84 7.7 1.28 15.64 1.45 23.14 3.8 3.18 1.05 3.01 4.93 2.71 7.63-3.42 18.11-7.61 36.06-11.12 54.15-4.53 20.09-8.07 40.37-12.52 60.47-.34 1.72-.54 3.46-.73 5.2 10.44 4.59 21.81 6.32 32.85 8.87 4.44-16.35 7.61-33 11.55-49.47 2.15-10.9 5.18-21.59 7.42-32.46 2.58-12.58 5.8-25.02 8.55-37.56.5-2.72 2.68-5.61 5.74-5.29 12.75.84 24.82 5.37 36.88 9.26 12.51 4 24.61 9.16 36.71 14.27 8.71 4.08 17.9 7.49 25.63 13.32 2.52 1.56 1.64 4.77 1.52 7.22-2.66 23.81-7.44 47.34-13.14 70.6-9.64 41.23-22.99 81.45-36.39 121.58-4.71 12.9-9.33 25.82-14.32 38.62-4.47 13.42-10.41 26.27-15.68 39.39-4.02 10.11-8.65 19.96-13.1 29.89-.93 1.99-2.1 3.86-3.27 5.72-8.02.17-15.79-2.06-23.75-2.6-7.42-.37-14.66-2.28-22.1-2.51-8.43-.71-16.86-1.63-25.17-3.21-5.01-.77-10.33-.85-14.81-3.5-1.71-1.02-3.52-2.74-3.12-4.93.87-5.96 3.19-11.58 4.78-17.37 8.68-29.64 16.96-59.44 23.4-89.65.6-2.58.86-5.22 1.02-7.85-11.11-2.88-22.26-5.86-33.72-6.89-3.72 7.51-4.8 15.92-7.22 23.87-5.18 23.57-9.36 47.36-12.61 71.28-.79 5.37-.95 10.84-2.12 16.16-.69 1.86-1.05 4.19-2.69 5.46-9.13-.9-17.99-3.52-26.93-5.49-9.89-1.68-19.35-5.15-29.13-7.3-10.65-3.36-21.71-5.89-31.53-11.37-1.8-.95-1.34-3.21-1.53-4.87.01-10.66.03-21.33.09-31.99.29-6.01.73-12.01.74-18.03 1.16-12.66 1.89-25.35 2.81-38.03 1.69-15.59 3.36-31.2 5.02-46.8 3.11-22.53 6.07-45.09 10.43-67.43 2.03-13.21 4.7-26.3 7.69-39.32 6.27-23.82 11.5-48.26 22.63-70.41 1.19-2.05 2.2-5.02 4.97-5.21m.55 4.73c-3.13 6.06-5.83 12.33-8.11 18.75-3.88 9.59-6.53 19.63-9.43 29.55-4.84 18.45-9.33 37.05-12.35 55.88-5.76 29.32-9.79 58.97-13.32 88.64-4.35 38.66-7.36 77.53-7.39 116.46.11 1.65.2 3.31.3 4.97 13.18 4.53 26.55 8.5 40.03 12.05 14.09 3.5 28.19 7.23 42.6 9.16 3.51-29.11 8.12-58.09 14.48-86.72 2.42-10.22 4.63-20.58 8.96-30.2 5.99.24 11.86 1.58 17.7 2.89 8.41 1.95 16.86 3.8 25.21 6.06-.42 1.81-.83 3.61-1.17 5.44-2.43 13.64-5.63 27.13-9.1 40.55-5.84 22.96-12.27 45.77-19.28 68.4-.6 1.79-1.13 3.6-1.62 5.42 26.2 4.12 52.64 6.49 78.97 9.56 1.41-.01 3.55.6 4.1-1.26 6.33-12.67 11.82-25.73 17.19-38.83 15.89-39.07 30.29-78.76 42.89-119.01 13.57-43.59 25.65-87.82 31.93-133.11.68-3.8 1.01-7.64 1-11.5l-.84.16c-1.95-1.61-4.17-2.82-6.43-3.89-14.16-7.3-28.94-13.31-43.83-18.92-10.03-3.55-20.01-7.53-30.45-9.66-4.93-1.69-10.2-2.55-15.42-2.56-.43 1.99-1.01 3.97-1.24 6-4.43 17.26-7.95 34.73-12 52.08-4.66 21.25-9.72 42.42-14.46 63.65-.21.83-.63 2.47-.84 3.3-2.18-.2-4.34-.59-6.51-.69-10.31-2.54-20.82-4.46-30.76-8.33-1.49-.7-2.98-1.38-4.49-2.03.18-4.39 1.35-8.64 2.11-12.94 7.39-36.73 15.12-73.38 22.59-110.09.17-1.23.29-2.47.35-3.71l-.79.35c-11.16-2.01-22.44-3.82-33.78-4.26-7.04-1.1-14.19-1.58-21.31-1.76-15.13-.99-30.38-1.45-45.49.15z"/><path d="m343.62 167.55c2.65-1.53 6.71-1.22 8.14 1.83 8.9 17.06 17.84 34.12 26.64 51.24 1.21 2.12 1.28 5.32-.9 6.85-4.04 2.89-8.86 4.4-13.15 6.88-4.45 2.26-8.7 5.07-13.5 6.52-2.81.98-4.74-1.74-5.92-3.84-2.35-4.34-4.36-8.86-7.2-12.91-1.22.41-2.45.82-3.67 1.22 1.36 6.15 5.88 10.92 7.86 16.82.62 3-2.05 5.21-4.48 6.32-7.14 3.43-14.05 7.32-21.08 10.97-1.76 1.09-3.85 1.08-5.84 1.13-.9 2.25-1.68 4.72-3.67 6.28-5.85 4.76-11.16 10.14-16.91 15.02-1.98 1.72-4.49 2.75-6.3 4.67-5.85 7.18-13.63 12.43-20.23 18.86-1.76 1.95-4.37 2.51-6.8 3.13-.54 1.99-1.12 4.01-2.26 5.76-3.42 5.58-7.07 10.99-10.56 16.52-1.47 2.17-2.93 4.51-5.19 5.94-4.03 1.22-8.26 1.54-12.35 2.46.69 5.5 4.7 11.73.88 16.85-4.03 6.58-8.49 12.88-12.69 19.35-1.19 1.93-3.43 3.8-5.84 3.04-3.08-.97-5.59-3.09-8.33-4.72-13.74-8.48-26.85-17.94-40.55-26.48-2.1-1.6-5.21-3.81-4.22-6.86 1.97-4.94 5.8-8.83 8.41-13.43 2.98-4.36 5.08-9.56 9.32-12.88 2.73-.87 5.38.59 7.51 2.17 3.44 2.54 7.09 4.8 10.89 6.79.2-1.9.03-3.88.73-5.68 1.32-1.96 3.81-2.51 5.78-3.59-4.76-3.63-10.44-6.08-14.6-10.46-2.4-2.59-.34-6.13 1.29-8.52 4.35-6.06 8.21-12.45 12.32-18.68 1.14-1.61 2.51-3.81 4.83-3.4 2.87.36 5.23 2.21 7.63 3.67 9.39 5.84 18.36 12.31 27.68 18.27 4.14 2.57 8.1 5.49 12.65 7.33-6.94-10.3-17.78-17.87-22.24-29.8-3.45-8.1-2.04-17.32 1.2-25.24 6-13.99 21.01-23.35 36.15-23.08 6.33.29 12.41 2.81 17.31 6.79 9.19 6.67 15.33 16.47 23.52 24.2-1.34-3.5-2.58-7.06-4.5-10.29-3.76-6.08-6.43-12.75-9.93-18.98-3.39-6-6.39-12.21-9.67-18.28-1.14-2.18-1.75-5.44.32-7.27 2.93-2.63 6.71-4 10.2-5.74 4.65-2.24 9.08-4.9 13.66-7.28 2.09-1.1 5.07-1.82 6.83.26 4.31 4.41 5.37 10.99 9.53 15.51 1.37.14 3.1-.13 3.39-1.77-1.8-5.79-6.12-10.58-7.26-16.6-.63-2.23 1.01-4.12 2.85-5.11 7.29-4.21 14.92-7.76 22.32-11.76m-20.81 15.71c1.74 7.03 6.95 12.72 9.2 19.62l-.19.75c-3.67 2.41-7.78 4.04-11.65 6.08-3.64-6.15-6.11-13.03-10.34-18.78-2.28.09-4.21 1.62-6.24 2.52-6.19 3.42-12.83 6.08-18.64 10.15 6.38 10.97 11.99 22.37 17.55 33.77 2.17 4.12 4.8 8.01 6.76 12.25 1.27 2.4 2.06 5.37 4.68 6.68l-.42-.81c7.66-4.22 15.56-7.97 23.26-12.13-2.77-6.57-7.1-12.54-9.28-19.29 3.78-2.68 8.08-4.87 12.42-6.47 1.35 1.26 2.27 2.89 3.05 4.55 2.16 4.59 4.78 8.95 6.75 13.62 1.34-.24 2.69-.5 3.91-1.13 6.32-3.24 12.56-6.65 18.93-9.8.8-.34 1.6-.66 2.42-.97-1.61-3.56-3.76-6.83-5.5-10.32-6.94-14.38-14.96-28.2-21.81-42.64-8.44 3.77-16.38 8.63-24.86 12.35m-81.95 54.52c-7.17 7.21-12.35 17.56-10.48 27.91 1.31 4.47 2.92 9.26 6.54 12.41 6.42 8.97 14.54 16.58 21.55 25.08 6.38-4.8 11.8-10.75 18.18-15.53.87-.97 3.04-1.79 2.13-3.39-6.62-8.8-15.7-15.67-21.14-25.35.65-2.78 4.18-3.91 6.1-1.64 7.43 7.06 13.87 15.12 20.68 22.78 6.48-5.34 12.71-11 18.8-16.78l1.96-1.48c-3.71-5.5-8.75-9.89-12.95-14.99-6.33-6.74-12.56-14.55-21.74-17.37-10.46-2.76-21.75 1.35-29.63 8.35m-38.71 39.22c-4.58 6.82-9.01 13.74-13.69 20.5-.54 1.06-1.59 2.05-1.41 3.34 1 .74 2.09 1.37 3.18 1.99 7.15 4.39 14.17 9.03 21.05 13.84-4.79 1.19-9.71 1.7-14.58 2.44.08 5.09 1.89 9.9 3 14.82-7.92-4.55-15.21-10.13-23.05-14.82-2.02-1.5-2.93 1.4-4 2.62-4.14 6.82-9.22 13.07-12.84 20.2 1.15.69 2.32 1.37 3.5 2.03 14.86 9.27 29.36 19.13 44 28.75.79.36 2.21 1.92 2.82.51 4.44-6.74 9.16-13.33 13.21-20.31-.03-6.01-3.1-11.74-2.66-17.81 5.06-.76 10.1-1.6 15.14-2.49 1.25-.08 1.84-1.34 2.51-2.2 3.77-5.52 7.09-11.34 11.21-16.62.71-1.22 1.46-2.44 1.93-3.77-.56-1.26-1.89-1.86-2.92-2.65-15.44-10.17-31.04-20.08-46.4-30.37z"/><path d="m376.01 274.72c2.87-1.29 5.54 1.14 6.59 3.65.26 4.92-1.18 9.75-1.61 14.64-2.1 19.66-4.43 39.3-5.98 59.02-1.33 12.96-1.05 26.01-2.11 38.99-.3 5.99.01 11.99-.07 17.99.05 2.18-.08 4.45.64 6.55 4.51 4.11 10.05 6.91 15.49 9.58 18.92 9.28 39.08 15.59 59.19 21.7 33.23 9.77 67.02 17.52 101.09 23.78 15.52 2.65 31.06 5.31 46.76 6.6 6.56.89 13.19.89 19.8.57 6.15-10.12 12.1-20.4 16.61-31.37 9.95-21.97 18.71-44.46 26.87-67.15 3.83-9.46 6.67-19.28 10.06-28.91.63-1.62 1.33-3.39 2.88-4.36 2.42-.78 5.56-.62 7.23 1.57 22.28 27.15 38.4 59.13 48.18 92.81 6.17 24.33 10.03 49.43 9.02 74.59-.59 27.77-5.75 55.44-15.12 81.59-5.35 13.24-10.77 26.53-18.06 38.86-6.22 11.44-14.06 21.87-21.66 32.42-6.16 8.37-13.69 15.59-20.71 23.21-19.65 19.39-42.43 35.54-67.06 47.99-15.73 7.27-31.85 13.9-48.66 18.25-2.92.68-5.9 1.69-8.94 1.32-2.18-.84-3.42-3.36-3.44-5.6.04-2.37 2.05-3.92 3.7-5.3 21.02-15.94 37.18-38.24 45.78-63.17 5.34-14.24 7-29.47 7.81-44.54-.54-16.23-2.55-32.65-8.48-47.86-8.65-23.88-24.18-45.15-44.18-60.79-10.96-9.12-23.86-15.53-36.96-20.96-10.03-3.08-20.1-6.39-30.62-7.26-47.2-6.78-97.17 13.95-125.93 51.95-9.36 11.2-15.87 24.47-21.03 38.04-12.39 34-10.08 72.86 5.39 105.5 1.36 2.89 3.18 5.57 4.32 8.57 1.46 4-3.4 8.55-7.24 6.3-7.3-4.07-13-10.4-19.43-15.64-4.5-3.5-7.92-8.1-12.03-12-7.04-6.7-13.08-14.38-18.85-22.17-28.12-36.85-46.02-81.56-50.59-127.72-1.36-9.26-.89-18.63-1.07-27.96-.65-30.19 5.23-60.35 15.77-88.6 13.82-36.77 36.07-70.4 64.74-97.27 7.16-6.19 14.05-12.72 21.74-18.26 9.86-6.96 19.81-13.87 30.45-19.58 6.62-3.08 12.8-7.17 19.72-9.57m-56.72 40.58c-19 15.66-35.62 34.2-49.19 54.73-24.83 36.88-39.24 80.57-41.77 124.93-.24 10.35-.11 20.69.07 31.04 1.49 16.63 4.1 33.19 8.54 49.3.29.95.9 1.67 1.82 2.14 5.41 22.57 14.49 44.27 26.92 63.87 11.02 17.79 24.24 34.19 39.31 48.71 7.32 6.78 14.58 13.81 22.95 19.3-8.38-17.44-15.26-35.9-16.97-55.31-2.37-19.46.19-39.34 5.98-58.02 11.86-37.87 40.58-70 76.78-86.22 28.35-13 61-16.07 91.34-9.01 31.44 7.35 60.18 25.69 79.95 51.23 12.65 16.16 21.37 35.1 27.3 54.66-.52 5.19 1.34 10.17 1.7 15.31.31 5.01.95 10 1.21 15.03.28 5.34-.52 10.64-.95 15.95-3.23 37.93-23.1 73.89-52.98 97.37-1.22.84-2.02 2.11-2.74 3.38 6.94-1.25 13.73-3.41 20.39-5.66 44.41-14.47 84.4-41.88 114.38-77.65 26.18-31.25 44.66-68.93 53.15-108.82 2.53-11.72 4.01-23.62 5.04-35.54.14-14.37.75-28.8-.93-43.08-3.89-38.28-16.6-76-38.68-107.68-.88-4.23-3.87-7.49-6.25-10.95-3.67-4.79-6.4-10.41-11.2-14.24-8.99 27.46-19.02 54.58-30.08 81.27-7.02 16.21-13.95 32.58-23.5 47.5-1.24 1.71-2.38 4.19-4.88 4.01-14.29.95-28.46-1.56-42.58-3.33-41.75-6.57-83.18-15.39-123.78-27.21-26.78-8.04-53.92-16.39-77.89-31.16-1.19-1.35-3.03-2.44-3.33-4.33-1.76-14.6.24-29.26.26-43.88 1.63-26.01 4.12-51.97 7.26-77.87 1.65-5.07.89-10.65 2-15.88-21.25 8.93-40.79 21.61-58.65 36.11z"/><path d="m756.27 278.27c1.61-1.22 3.47-2.44 5.6-2.23 2.11.08 3.38 2.01 4.64 3.45 5.2 6.53 10.15 13.27 14.88 20.15 1.55 2.06 1.4 5.52-.81 7.07-6.25 5.49-13.46 9.73-19.89 14.98-.7.75-2.41 1.81-1.38 2.98 1.48 2.9 4.19 5.19 5.01 8.4.51 4.2-3.84 6.18-6.26 8.81 9.1-2.43 17.24-7.36 25.94-10.86 4.99-1.94 10-5.81 15.6-4.63 4.6 5.56 6.13 13.1 9.61 19.4 2.48 4.08-.33 8.39-2.29 12 1.95.02 3.93-.06 5.88.27 2.31 1.54 3.41 4.22 4.51 6.66 3.03 6.97 6.52 13.75 9.12 20.89 1.18 2.71-.6 5.56-3.02 6.81-4.45 2.36-9.31 3.86-13.8 6.14-8.74 4.34-18 7.57-26.56 12.29 1.66.65 3.48 1.07 4.92 2.19 1.11 1.45 1.65 3.23 2.36 4.9 6.38-1.37 12.75-2.93 19.28-3.38-.28-2.93-.95-6.97 2.36-8.48 4.87-1.53 10.01-2.16 15.04-3.1 4.13-.93 6.48 3.7 7.01 7.1 1.64 10.39 3.93 20.66 5.94 30.99 1.13 5.96 3.12 11.82 3.25 17.94-.09 3.15-3.59 4.46-6.18 5.09-18.42 3.4-36.72 7.38-55.08 11.06-3.44.7-6.11-2.58-6.46-5.7-2.98-15.23-6.15-30.42-9.26-45.62-.45-2.53-.27-5.1-.62-7.63-1.8-2.94-3.64-5.87-4.86-9.11-1.86-4.62-5.14-8.96-5.11-14.11.72-3.58 3.35-6.41 4.49-9.86-2.45.66-4.96 2.37-7.54 1.37-3.11-.85-3.93-4.36-5.17-6.9-2.82-6.84-6.39-13.36-8.66-20.42-1.18-4.36-5.57-6.51-7.86-10.16-8.89-12.37-18.19-24.44-27.32-36.63-1.73-2.16-3.99-5.18-2.17-7.96 3.8-4.31 9.1-6.9 13.45-10.59 3.63-2.57 6.83-6.1 11.13-7.5 4.76.4 6.87 5.35 9.48 8.67 1.55-.48 3.04-1.17 4.29-2.25 5.37-4.34 11.04-8.28 16.51-12.49m-21.32 21.71c-2.8-3.65-5.52-7.36-8.24-11.07-7.37 4.98-14.57 10.28-21.41 15.97 1 1.25 2.03 2.5 3.11 3.71 3.99 4.1 7.01 9 10.5 13.51 6.81 8.97 13.5 18.04 20.22 27.09 6.46-4.13 12.29-9.15 18.63-13.46.77-.64 1.54-1.28 2.33-1.9-2.56-3.61-4.84-7.57-8.42-10.29.32-1.45 1.67-2.24 2.76-3.09 7.22-5.07 14.03-10.7 21.31-15.69.79-.64 1.57-1.28 2.38-1.91-2.67-4.24-5.97-8.01-8.89-12.07-2.64-3.49-4.97-7.24-8.11-10.31-8.78 6.44-17.43 13.03-26.17 19.51m59.56 31.39c-17.32 7.53-34.36 15.73-51.82 22.95.69 3.85 2.91 7.14 4.36 10.71 2.02 4.31 3.51 8.87 5.81 13.04.55 1.22 1.86 1.68 2.94 2.34l-.39-.74c4.99-2.36 10.17-4.33 14.97-7.06.02 1.12.16 2.31-.45 3.33-3.08 6.15-7.23 11.72-10.06 18.02 2.38 5.26 4.62 10.61 7.3 15.74.49 1.19 1.52 1.96 2.64 2.54l-.37-.79c17-7.6 33.87-15.54 51.06-22.69.89-.56 2-1.25 1.26-2.46-3.41-8.18-7.19-16.21-10.82-24.3-5.3 2.51-10.66 4.9-16.12 7.05 2.95-5.83 6.31-11.49 9.76-17.04.45-1.09 1.44-2.2.83-3.43-2.12-5.73-5.07-11.11-7.44-16.74-.44-1.84-2.34-.88-3.46-.47m19.4 78.81c.89 8.09 3.25 15.94 4.77 23.93-2.46.63-4.94 1.16-7.42 1.64-1.1-5.59-1.88-11.24-3.26-16.77-4.79.86-9.57 1.72-14.26 2.99.29 5.7 1.99 11.17 2.95 16.77-2.42.53-4.87.96-7.33 1.23-1.04-7.82-3.33-15.39-4.37-23.21-5.1-.25-9.98 1.43-14.92 2.4 3.4 16.92 6.56 33.9 10.11 50.8.63.06 1.89.19 2.52.25 18.2-4.25 36.75-7.01 54.91-11.43.29.14.87.42 1.16.57-3.13-17.23-7.1-34.3-9.87-51.58-5.12-.09-10 1.59-14.99 2.41z"/><path d="m162.32 366.32c9.19-1.85 19.1.28 26.87 5.49 6.66 4.97 11.93 12.08 13.74 20.29 2.6 10.4.56 21.74-4.99 30.85-4.69 7.07-11.82 12.36-19.77 15.23-9.25 3.02-19.8 1.71-28.15-3.23-7.63-4.41-12.67-12.12-15.73-20.19-3.49-10.45-.98-21.89 4.22-31.3 5.15-8.6 14-15.04 23.81-17.14m-12.17 10.86c-13.89 10.59-17.59 33.74-5.14 46.75 7.83 10.54 23.43 14.22 35.14 8.22 9.35-4.14 16.07-13.02 18.18-22.96 2.7-8.97.42-19.01-4.77-26.67-9.52-13.51-30.95-16.37-43.41-5.34z"/><path d="m163.53 401.99c.94-2.07 2.27-4.34 4.66-4.89 3.05-1.13 5.85 1.07 8.11 2.84-.44 3.28-.21 8.29-4.46 9-4.42 1.41-8.63-2.51-8.31-6.95m5.65.16c-.52 1.63.03 2.18 1.65 1.67.52-1.64-.03-2.19-1.65-1.67z"/><path d="m121.16 447.07c.25-3.41 3.32-6.16 6.79-5.46 19.02 1.23 38.02 2.97 57.03 4.39 3.85.14 5.33 4.74 4.81 8-.7 6.2-.66 12.54-2.12 18.63-1.91 3.33-6.01 4.49-8.73 7.07 2.84.98 6.61 1.32 7.91 4.51.55 3.12-.02 6.29-.25 9.42-.71 6.72-.8 13.5-1.9 20.18-.36 3.12-3.86 4.62-6.68 4.22-18.55-1.57-37.13-2.73-55.66-4.49-2.41-.38-5.46-1.1-6.19-3.81-.89-3.93.14-7.96.38-11.92.49-4.15.26-8.47 1.68-12.45 2.06-2.49 4.96-4.07 7.55-5.95-1.73-.64-3.63-1-5.12-2.13-1.39-2.11-1.62-4.75-1.42-7.21.6-7.67 1.21-15.34 1.92-23m4.78-1.11c-.52 9.38-1.8 18.72-2.05 28.12.68 0 2.05.01 2.73.01 4.86.77 10.12.08 14.72 1.71-6.47 3.67-12.75 7.67-19.18 11.41-.24 7.28-1.55 14.51-1.37 21.8.72-.03 2.17-.09 2.89-.13 18.77 1.43 37.52 2.97 56.28 4.43 1.88-9.24 1.79-18.82 2.34-28.23-6.3-.23-12.68-.44-18.85-1.85 6.6-4.28 13.45-8.17 19.95-12.6-.01-3.83.44-7.63.81-11.43.98-2.89 1-5.95.79-8.95-13.98-.61-27.91-1.98-41.89-2.77-5.71-.64-11.4-1.65-17.17-1.52z"/><path d="m781.24 476.08c5.22-1.21 10.6.01 15.85.42 12.64.41 25.28.78 37.9 1.45 4.04.04 9.07-.27 11.77 3.37.62 9.54-.6 19.14-.77 28.7.11 2.97-2.04 5.71-5.1 5.85-5.6.29-11.18-.83-16.79-.79 1.13 2.07 3.32 4.12 2.69 6.69-.73 1.8-1.97 3.35-3.01 4.98 5.79.35 11.65-.01 17.39.97 2.1.2 3.77 2.19 3.77 4.29.35 7.34-.83 14.64-.77 21.98-.25 3.26.43 7.39-2.5 9.67-3.07 2.39-7.11.58-10.61.74-12.04.06-24.05-.77-36.09-.99-4.74.06-9.37-1.12-14.1-1.1 1.6 1.91 4.12 2.47 6.36 3.3 14.8 4.41 29.45 9.27 44.2 13.83 2.18.77 4.59 1.28 6.39 2.84 1.41 4.83-.95 9.59-2.29 14.15-1.32 3.7-2.32 7.54-4.03 11.09-1.67 3.06-5.61 3.15-8.54 4.16 1.99 2.39 5.67 4.41 4.65 8.09-2.25 7.87-5.16 15.56-7.28 23.48-.7 2.58-2.23 5.94-5.38 5.9-3.35-.12-6.42-1.64-9.59-2.54-12.63-3.94-25.27-7.82-37.83-11.96-4.86-1.63-11.07-2.17-14.07-6.85.42-5.8 3.17-11.12 4.6-16.71.91-2.55 1.11-5.84 3.66-7.37 2.97-1.52 6.28-2.18 9.38-3.36-2.23-2.33-7.13-2.43-7.12-6.4.58-5.9 3.49-11.26 4.97-16.96 1.9-5.38 2.28-12.19 7.79-15.33-1-2.38-2.13-4.87-1.56-7.51 1.11-8.23-.23-16.64 1.29-24.82 1.94-4.25 6.49-6.47 9.69-9.69-2.52-4.04-6.94-6.59-8.99-10.94.78-8.23.26-16.51.66-24.76.39-2.77.35-6.61 3.41-7.87m1.1 4.92c.1 8.35-.89 16.69-.64 25.04-.21 1.93 1.59 2.93 2.78 4.11 2.9 2.97 5.88 5.89 8.88 8.77-3.24 3.95-7.36 6.99-11.24 10.25-2.45 1.79-1.74 5.15-2.05 7.77-.02 6.99-.87 14-.16 20.98.66-.02 1.98-.05 2.64-.06 18.64.86 37.31 1.29 55.93 2.45 2.07-9.29.68-18.9 1.76-28.31-6.44.06-12.87-.41-19.31-.43-3.18 0-6.34-.45-9.37-1.39 2.71-2.71 5.85-4.94 8.65-7.55.52-.22 1.55-.65 2.06-.87-2.37-4.52-6.49-7.9-10.42-11.03l.14-.95c9.59.3 19.17 1.08 28.77 1.06.03-1.54.1-3.07.16-4.59 1.13-2.25.75-4.81.78-7.22-.13-5.34.52-10.66.46-15.99-11.09-.23-22.14-1.15-33.23-1.35-8.87-.11-17.73-1.43-26.59-.69m-5.23 85.93c-3.16 8.85-6.1 17.82-8.3 26.96 1.02.26 2.04.54 3.07.84 4.77 1.57 9.59 2.99 14.37 4.56-2.29 2.53-5.94 2.72-8.94 3.94-4.39 1.68-9.12 2.54-13.26 4.77-2.61 6.07-4.16 12.6-6.17 18.91 1.18.33 2.38.69 3.58 1.04 17.55 5.35 35.02 11 52.54 16.45l.77-.37c2.32-6.62 4.28-13.36 6.51-20.02.86-1.87 1.4-3.86 1.8-5.86-5.27-2.03-10.67-3.68-16.09-5.24.16-.28.49-.85.65-1.13 6.72-1.77 13.22-4.26 19.86-6.32 1.67-4.75 3.06-9.6 4.72-14.36.81-1.94 1.39-3.96 1.88-5.99-19.03-5.97-37.99-12.14-56.99-18.18z"/><path d="m141.62 524.55c14.37-6.64 33.69-2.23 42.31 11.49 9.74 15.26 10.16 34.87 4.81 51.77-.73 2.47-3.02 5.52-5.95 4.59-5.29-1.59-9.63-5.26-14.77-7.24-.45 2.67-.11 5.76-1.82 8.05-2.32 1.6-5.25 1.76-7.96 2.18-8.47.87-16.79 2.86-25.25 3.76-2.82.56-5.34-1.53-5.98-4.19-1.62-5.68-2.4-11.57-3.69-17.33-2.03-8.38-1.91-17.06-1.59-25.61.52-12.04 9.13-22.66 19.89-27.47m-9.37 12.81c-5.36 6.54-6.85 15.36-6.53 23.6.49 11.54 3.51 22.74 5.67 34.03 1.24-.27 2.47-.54 3.71-.83 8.81-1.37 17.6-3.14 26.49-3.93.34-.13 1.04-.38 1.39-.5.04-3.72-1.15-7.29-1.65-10.94-1.04-5.54-1.17-11.2-2.37-16.71-3.03.46-6.08.78-9.13.96-.06-2.08-.11-4.15-.14-6.21.84-2.07 2.52-3.8 4.75-4.26 3.82-1.22 7.67 1.29 9.89 4.27 1.33 6.95.94 14.08-.38 21.01.98.38 1.97.77 2.96 1.18 5.51 3.07 11.05 6.07 16.7 8.88 1.07-3.52 2.06-7.07 2.58-10.71 1.02-3.65 1.12-7.46 1.16-11.22-.14-11.02-2.35-22.81-10.12-31.14-4.74-4.52-10.82-7.8-17.36-8.66-10.3-1.34-21.2 2.97-27.62 11.18z"/><path d="m443.35 524.4c10.52-1.22 21.07.36 31.47 1.87 14.81 3.09 29.14 8.73 41.84 17 9.62 6.88 19.35 13.99 26.61 23.44 14.56 17.3 24.16 38.79 27.03 61.24 1.93 17.5.59 35.5-5.07 52.23-1.09 2.82-2.58 6.77-6.2 6.73-13.02.01-25.91-2.22-38.88-3.08-10.36-.97-20.71-2.09-30.93-4.05-24.06-2.76-47.68-8.31-70.91-15.02-5.29-1.51-10.15-4.22-15.52-5.51-4.42-1.06-8.36-3.42-12.64-4.85-.28.2-.85.61-1.13.81.17 5.45 2.26 10.6 4.18 15.63 3.07 8.14 9.09 14.69 15.26 20.64 20.31 16.42 50.25 18.7 73.49 7.34 5.56-2.75 10.97-6.05 15.2-10.65 3.31-4.1 9.06-2.38 13.53-1.92 14.09 1.05 28.15 2.45 42.2 3.92 2.9.07 4.76 3.17 4.36 5.85-.82 6.18-4.96 11.05-7.86 16.35-3.94 7.37-9.66 13.58-15.56 19.43-6.44 7.07-14.2 12.79-22.53 17.45-6.15 4.55-13.49 6.95-20.7 9.26-7.92 2.72-16.21 4.36-24.54 5.13-9.01-.04-18.09.59-27.05-.61-10.35-2.01-20.6-4.74-30.47-8.47-16.56-7.21-32.2-17.16-44.36-30.65-11.39-11.58-19.24-26.15-24.86-41.27-6.27-16.73-7.57-34.91-6.1-52.6 2.35-17.19 7.76-34.07 16.9-48.88 8.3-13.93 19.91-25.61 32.89-35.21 17.68-12.42 38.83-19.9 60.35-21.55m-67.4 33.55c-9.96 9.18-18.93 19.69-24.97 31.9-5.51 9.19-9.01 19.63-10.96 30.15-4.22 18.42-3.21 38.05 2.35 56.09 10.32 36.17 40.18 65.83 76.15 76.58 34.36 10.39 73.96 4.6 102.54-17.63 13.4-10.85 25.17-24.31 31.99-40.28-.44.12-1.32.35-1.75.47-1.81-.39-3.63-.72-5.44-1.01-14.55-1.08-29.09-2.49-43.58-4.22-10.5 11.63-25.73 17.76-40.94 20.2-9.91.16-19.96.63-29.62-1.96-5.54-1.05-10.44-4.03-15.88-5.34v-.8c-6.92-3.4-12.44-8.81-17.9-14.08-9.28-11.59-14.92-26.33-14.34-41.27 7.75 2.64 15.24 5.99 22.99 8.63 36.61 12.45 75.01 18.63 113.37 22.61 13.33.98 26.6 2.88 39.98 2.88 9.45-25.92 8.48-55.3-2.06-80.74-4.84-12.44-12.46-23.56-21.04-33.69l-.48.02c-8.14-9.46-18.28-17.21-29.21-23.19l-.67.07c-2.39-2.09-5.33-3.36-8.21-4.6-9.94-4.13-20.32-7.38-31.04-8.7-32.55-4.57-66.86 5.9-91.28 27.91z"/><path d="m408.26 588.25c12.83-10.21 29.36-15.85 45.8-15 27.11.69 52.6 19.35 61.67 44.88.46 1.57.94 3.13 1.4 4.71-3.39-1.05-6.54-2.7-9.82-4.01-18.28-6.67-37.41-10.65-56.41-14.66-15.16-2.94-30.35-5.91-45.73-7.33-1.62-.15-3.24-.39-4.84-.65 1.95-3.26 5.01-5.61 7.93-7.94m23.12-4.88c-5.78 2.61-12.06 4.49-16.93 8.71 5.28 2.18 11.03 2.72 16.63 3.59 26.32 4.32 52.33 10.45 77.8 18.36-2.24-5.63-6.15-10.34-10.08-14.86-5.41-5.72-11.43-11.17-18.84-14.14-9.14-4.93-19.8-5.48-29.96-5.43-6.42-.18-12.55 2.02-18.62 3.77z"/><path d="m173.4 595.43c10.72-1.17 21.25 3.99 28.62 11.52 5.4 5.41 8.19 12.78 10.04 20.06 2.43 11.77-1.81 24.41-10.26 32.83-5.44 5.05-12.52 8.05-19.8 9.23-10.53 1.25-21.56-2.48-28.98-10.11-6.76-6.2-10.52-15.04-11.87-23.98-.87-10.25 2.49-20.83 9.23-28.63 6.15-6.05 14.31-10.34 23.02-10.92m-16.59 11.31c-13.6 10.85-14.74 33.79-2.61 46.07 7.97 10.72 23.61 14.88 35.75 9.1 9.12-3.59 15.24-12.34 17.23-21.74 2.46-11.29-1.44-23.62-9.82-31.54-3.48-3.1-7.67-5.28-11.95-7.03-9.56-3.73-20.69-1.05-28.6 5.14z"/><path d="m176.72 625.69c2.99-1.08 6.03.9 7.87 3.17-.07 3.48-.78 8.03-4.88 8.85-3.95.93-6.85-2.35-8.09-5.69.66-2.7 2.1-5.72 5.1-6.33m.54 5.52c-1.17 1.49 1.48 2.97 2.45 1.58 1.18-1.51-1.48-2.99-2.45-1.58z"/><path d="m750.24 633.13c4.82-1.28 8.67 2.94 12.71 4.84 13.5 6.66 26.23 14.73 39.72 21.41 3.18 1.48 7.01 4.43 5.42 8.44-2.81 6.36-6.92 12.07-9.87 18.38-1.67 2.84-2.72 6.57-5.92 8.07-2.17 1.16-4.43-.35-6.34-1.28-16.05-8.98-32.44-17.37-48.43-26.46-2.85-1.27-4.04-4.8-2.66-7.56 2.73-6.37 6.64-12.14 9.67-18.36 1.58-2.67 2.73-6.03 5.7-7.48m1.72 3.89c-4.12 6.7-7.45 13.84-11.5 20.58-.67 1.36-1.66 2.72-1.59 4.32.93.57 1.89 1.1 2.88 1.6 16.37 8.74 32.6 17.74 48.94 26.54 3.96-6.95 7.57-14.09 11.61-20.99.76-1.18 1.38-2.44 1.87-3.75-17.53-9.19-34.83-18.82-52.21-28.3z"/><path d="m218.37 653.28c3.8-1.91 6.61 2.2 8.54 4.86 4.87 7.46 11.37 13.91 14.91 22.19 1.84 2.09 4.15 3.75 5.75 6.07 4.33 6.06 8.82 12.01 12.94 18.22 1.21 1.86 2.23 4.52.58 6.46-2.58 2.84-6.35 4.23-9.09 6.9-4.01 3.81-9.02 6.24-13.31 9.68-7.15 5.03-15.55 9.07-24.45 9.02-14.33-.94-27.58-10.93-32.67-24.32-2.49-6.87-3.86-14.43-1.91-21.61 1.66-8.32 7.8-14.81 14.3-19.82 8.19-5.81 16.12-12.01 24.41-17.65m-21.13 20.95c-5.56 4.92-11.84 10.24-13.25 17.95-1.36 8.53-.17 18.36 5.98 24.86 3.73 5.93 9.34 10.75 16 13.07 7.96 3.12 17.19 1.66 24.39-2.73 8.71-5.25 16.35-12.08 24.93-17.52 1.63-.77 2.22-2.57.82-3.9-5.17-6.65-9.7-13.82-15.14-20.26-1.35.1-2.31 1.2-3.38 1.9-6.21 4.83-12.63 9.38-19.01 13.98-1.82 1.14-3.83 2.89-6.13 2.06-1.57-.54-1.6-2.42-2.14-3.7 7.52-6.76 16.15-12.16 24.24-18.2.82-.6 1.64-1.2 2.46-1.78-3.97-5.94-8.46-11.5-12.47-17.42-1.25-1.86-2.76-3.52-4.37-5.07-7.69 5.52-15.39 11.03-22.93 16.76z"/><path d="m722.32 680.19c2.42-.33 4.73.73 6.98 1.49 15.7 5.44 31.16 11.59 46.83 17.14 3.61 1.3 7.52 2.13 10.67 4.46.52 1.97 1.04 4.37-.38 6.12-3.8 5.46-8.59 10.14-12.64 15.42-2.12 2.5-4.06 5.42-7.1 6.87-3.53 1.52-6.96-2.08-10.3-1.45-3.09 2.92-6.05 6.2-8.19 9.87.9 3.51 4.59 6.47 3.33 10.4-3.06 5.11-7.52 9.19-11.23 13.81-2.64 3.03-5.01 6.32-8.06 8.97-1.96 1.73-5.22 1.29-6.78-.76-2.5-3.05-4.04-6.73-5.97-10.13-4.23-8.25-9.53-15.88-13.85-24.06-3.36-6.28-6.81-12.49-10.49-18.57-1.69-2.59-2.32-6.26-.14-8.76 6.77-8.53 14.3-16.43 21.03-24.99 1.87-2.13 3.41-4.97 6.29-5.83m-12.11 19.96c-4 5.04-8.7 9.55-12.29 14.89.35 1.54 1.42 2.76 2.42 3.95 2.73 3.69 4.6 7.92 6.97 11.84 7.04 12.74 14.69 25.14 21.42 38.04 2.18-.1 3.22-2.2 4.53-3.64 4.1-5.21 8.79-9.95 12.72-15.29 1.63-1.85-.92-3.68-1.66-5.32-.84-1.82-3.48-4.03-1.7-5.97 4.05-5.02 8.25-9.91 12.54-14.73 3.26 1.23 6.57 2.35 9.76 3.79 5.02-5.59 9.62-11.55 14.72-17.08 1.22-1.43 2.36-2.93 3.48-4.44-19.73-7.28-39.5-14.4-59.22-21.7-5.11 4.72-9.1 10.46-13.69 15.66z"/><path d="m726.65 713.19c4.85 1.78 9.82 3.33 14.4 5.77-2.18 2.33-4.34 4.67-6.47 7.06-2.83-3.91-5.14-8.14-7.6-12.27z"/><path d="m250.66 720.64c4.81-2.98 10.6-4.86 16.28-3.73 10.65 1.87 19.27 9.04 27.01 16.13 4.7 5.4 9.69 10.77 12.78 17.31 1.04 2.01.31 4.56-1.62 5.75-5.57 3.99-12.13 6.31-17.8 10.16.56 6.81-.61 14.3-5.94 19.09-5.75 6.83-15.83 8.33-23.92 5.28-9.78-3.61-17.99-10.52-24.92-18.16-4.45-4.32-8.25-9.27-11.46-14.56-1.23-1.95-1.71-4.41-.86-6.58 1.57-2.21 4.18-3.29 6.44-4.64 5.02-2.61 9.6-6.07 14.9-8.15.46-6.86 3.62-13.66 9.11-17.9m1.83 4.93c-2.95 2.74-6.13 6.07-5.88 10.43-.78 8.61 5.45 15.42 8.01 23.16-.43 2.66-3.77 3.72-5.79 2.02-5.44-4.1-6.68-11.26-6.93-17.64-5.82 2.95-11.54 6.17-17.02 9.69-.93 2.07 1.42 3.75 2.43 5.36 7.76 9.82 16.23 19.58 27.38 25.66 5.62 3.04 12.89 4.54 18.73 1.25 4.49-2.55 8.71-7.06 8.39-12.56.71-9.36-5.97-16.74-9.26-24.95-.74-2.28.7-5.34 3.4-4.93 7.01 2.79 10.39 10.72 9.57 17.94 5.3-1.77 9.85-5.17 15.03-7.2 1.15-.82 2.55-1.97 1.21-3.36-4.62-7.22-10.21-13.93-16.98-19.23-5.28-4.44-11.24-8.4-18.09-9.85-5.06-1.28-10.43.83-14.2 4.21z"/><path d="m685.54 722.46c2.14-1.11 4.42.6 5.8 2.18 5.15 6.21 9.84 12.79 14.93 19.06 1.82 2.21 1.58 6.01-.76 7.81-1.93 2-4.8 3.11-6.29 5.49 2.35 4.94 6.56 8.65 9.64 13.12 2.25 3.41 5.28 6.26 7.32 9.82 1.32 2.5-.4 5.29-2.33 6.91-6.14 5.26-12.95 9.66-19.12 14.88-2.16 1.86-5.79 3.01-7.99.58-6.51-7.01-11.35-15.41-17.94-22.36-2.8 1.83-5.18 4.24-8.09 5.89-2.93 1.19-5.43-.94-7.52-2.69-.19 3.14-.52 6.28-.91 9.41 8.44 4.62 15.44 11.6 20.34 19.85 1.18 2.17.6 5.23-1.48 6.66-3.12 2.1-6.66 3.42-10 5.12-5.72 2.65-11.26 5.81-17.3 7.69-3.06 1.08-5.21-1.92-6.6-4.16-1.63-2.85-3.64-5.45-6.11-7.61 1.45 4.07 3.49 7.92 4.89 12.02.86 2.73-1.95 4.74-4.05 5.85-6.56 3.16-13.25 6.07-19.79 9.26-2.45 1.07-5.14 2.57-7.86 1.65-2.22-1.71-3.3-4.39-4.54-6.8-3.66-7.67-7.01-15.49-10.99-23-2.27-4.25-3.55-8.97-6.2-13.02-.56 1.56-1.02 3.16-1.79 4.64-1.24 1.36-3.19 1.74-4.79 2.54.88 6.24 3.1 12.25 3.42 18.58 3.17.26 8.03-.13 8.77 3.99 1.11 5.05 2.79 10.05 3.15 15.23.21 2.96-2.95 4.32-5.33 4.95-15.69 3.98-31.65 6.82-47.37 10.69-3.04 1.12-6.87-.57-7.44-3.91-3.71-14.16-6.28-28.62-9.87-42.81-.11 3.99.27 8.01-.21 11.99-.21 2.64-2.68 4.67-5.22 4.91-2.91.3-5.83.22-8.73.3.42 8.93.69 17.88.48 26.82-.06 2.62-1.62 6.12-4.66 6.08-8.66.29-17.35.35-26.02.29-3.15.17-6.88-1.91-6.85-5.39-.36-9-.18-18.02-.34-27.02-4.47-.74-10.3.7-13.5-3.3-1.24-4.11-.37-8.51-.74-12.73-1.95 3.89-2.02 8.34-2.99 12.52-2.09 9.76-3.87 19.59-5.8 29.38-.35 2.53-2.02 4.65-4.12 6.01-2.75.27-5.41-.75-8.07-1.26-4.93-1.25-10.04-1.73-14.89-3.28-3.68-1.17-4.28-5.52-6.25-8.33-1.32 1.86-2.18 4.49-4.52 5.3-4.2.31-8.28-1.05-12.37-1.79-5.71-1.35-11.66-1.72-17.22-3.67-2.06-.66-4.02-2.44-3.56-4.8 1.99-15.04 6.7-29.64 8.22-44.76-2.74 2.4-6.25 2.8-9.68 1.9-2.64 5.76-4.73 11.79-7.88 17.32 2.44 1.31 5.52 3.26 4.92 6.53-1.05 4.87-3.57 9.28-5.67 13.76-.95 2.2-3.13 4.04-5.66 3.6-2.86-.57-5.38-2.13-8.04-3.23-12.05-5.25-23.84-11.06-36.01-16.01-2.65-1.21-5.59-2.55-7.01-5.24-.66-3.06.97-5.94 2.19-8.63 3.85-7.7 6.76-15.84 10.51-23.59 3.67-7.46 6.76-15.18 10.18-22.75.86-1.75 1.79-3.65 3.55-4.65 2.39-.92 4.86.37 7.09 1.2 14.22 6.53 28.62 12.67 42.83 19.24 1.71.81 3.14 2.19 4.95 2.82 7.43.92 14.82 2.34 22.07 4.19 4.8 1.41 4.73 7.32 7.97 10.35.84-2.72 1.1-6.45 4.37-7.37 2.86-.74 5.79.5 8.62.95 7.13 1.68 14.43 2.61 21.49 4.6 3.05 1.01 6.14-.53 9.24-.53 17.98-.04 36-.96 53.98-.12 2.75-.46 5.12-2.27 7.91-2.72 13.97-2.99 28.04-5.59 41.85-9.27 3.76-1.09 8.19.23 11.4-2.44 9.48-5.5 19.79-9.42 29.54-14.41 5.66-2.62 11.2-5.85 17.48-6.68 4.88-1.08 9.82.05 14.61.99-1.2-2.69-3.82-6.04-1.63-8.9 3.02-3.71 7.19-6.23 10.98-9.06 8.15-6.16 15.96-12.76 24.26-18.71 3.68-2.67 6.9-6.12 11.15-7.92m-16.46 17.7c-8.47 6.52-16.95 13.01-25.35 19.62-2.18 1.58.69 3.32 1.88 4.39 4.58 5.59 8.75 11.51 13.39 17.07 3.85-2.35 6.97-5.82 10.89-7.97 2.5 2.13 4.35 4.88 6.4 7.43 4.63 6.12 9.48 12.07 13.97 18.3 7.28-5.5 14.65-10.93 21.55-16.92-6.01-7.03-11.23-14.68-17.13-21.8-.89-1.37-2.32-2.56-2.46-4.26 2.39-2.62 5.48-4.5 8.42-6.45.78-.87 3.18-1.76 2.02-3.14-5.45-6.45-10.37-13.32-15.68-19.87-6.3 4.09-11.88 9.15-17.9 13.6m-335.39 37.68c-3.41 8.11-7.41 15.97-10.72 24.13-3.25 7.68-7.16 15.1-9.95 22.96 1.16.34 2.32.71 3.49 1.09 14.82 6.52 29.59 13.17 44.32 19.91 1.54-3.32 3.03-6.67 4.54-10 .55-1.25 1.08-2.5 1.61-3.75-7.38-3.5-14.98-6.54-22.28-10.22 1.05-2.01 1.51-4.72 3.38-6.07 5.08 2 9.98 4.46 14.99 6.65 1.55-3.23 2.96-6.53 4.58-9.72.6-1.25 1.17-2.51 1.75-3.76-5.02-2.76-10.45-4.64-15.59-7.15.67-2.31 1.81-4.44 2.98-6.53 7.44 3.12 14.72 6.63 22.15 9.78 1.62-3.24 3.01-6.59 4.52-9.87.63-1.29 1.21-2.6 1.77-3.9-15.85-6.7-31.37-14.16-47.25-20.77-2.49 1.31-2.92 4.85-4.29 7.22m284.66-4.58c-12.47 5.95-25.05 11.7-37.43 17.83 6.61 14.88 14.08 29.34 20.78 44.17 1.59 3.4 2.8 7.09 5.46 9.85l-.25-.83c6.91-2.61 13.29-6.41 20.09-9.28 1.43-.86 4.35-1.54 3.44-3.78-2.37-5.53-5.38-10.75-7.82-16.24.02-.7.05-2.11.06-2.81 2.48-.09 5.17-.68 7.47.61 6.06 2.8 9.16 9.07 13.01 14.08 8.03-2.52 15.31-7.28 23.22-10.27.76-.54 1.53-1.06 2.31-1.57-5.12-8.88-13.05-16.61-22.76-20.21.37-1.28.9-2.51 1.34-3.75 3.05-8.03-2.29-17.89-10.58-19.9-6.12-1.37-12.71-.71-18.34 2.1m-95.44 30.98c3.66 18.34 8.24 36.48 11.85 54.84.14 1.73 1.08 2.94 2.88 3.12 15.98-4.08 32.19-7.32 48.32-10.78-.05-.31-.16-.91-.21-1.22.74-4.54-1.03-8.93-1.78-13.34-8.05.45-15.65 3.66-23.62 4.69-2.12-1.83-2.02-5.32-.39-7.48 4.71-.86 9.51-1.53 14.03-3.17l-.14-.72c.4-4.56-1.14-8.94-1.93-13.37-5.73.1-11.06 2.47-16.69 3.21-.6-2.34-1.16-4.69-1.62-7.05 7.53-1.81 15.11-3.5 22.73-4.9.58-1.16.61-2.45.29-3.68-.79-3.8-1.36-7.66-2.48-11.38-17.06 3.85-34.12 7.68-51.24 11.23m-130.94-10.07c-4.51 19.23-7.66 38.78-11.96 58.07 1.13.32 2.27.64 3.42.96 8.08 1.2 16.02 3.21 24.08 4.61 1.2-5.78 1.9-11.69 3.73-17.31 4.55 6.01 5.93 13.83 10.18 20.04 1.58 1.16 3.63 1.27 5.49 1.72 4.87.84 9.64 2.25 14.57 2.76 3.45-18.19 7.13-36.33 10.78-54.48l.73.19c0-1.55-.01-3.09-.01-4.62-7.06-1.27-14.12-2.59-21.11-4.18-2.08-.28-4.26-1.16-6.34-.52-1.41 6.16-1.86 12.55-4.01 18.54-1.98-5.88-5.13-11.25-7.47-16.97-.98-1.92-1.73-4.51-4.09-5.09-5.86-1.83-12.01-2.41-17.99-3.72m68.12 11.93c-.2 8.87-.43 17.77.23 26.63 4.57.71 9.23.77 13.8 0 .27.24.81.73 1.08.97-.48 2.39-.7 4.84-.64 7.29.12 8.32-.04 16.64.35 24.95 9.29-.08 18.57-.39 27.86-.17-.03-10.52-.4-21.09.24-31.59.28-.31.85-.92 1.13-1.23 4.17-.6 8.4-.22 12.59-.21-.06-8.9-.09-17.8 0-26.69-6.21-.78-12.48-.34-18.71-.19-12.64.16-25.29.05-37.93.24z"/><path d="m611.58 790.4c3.39-3.22 8.18-1.63 10.85 1.61-.19 3.8-2.17 7.27-6.05 8.25-1.67-3.26-3.23-6.56-4.8-9.86z"/></g><g fill="#1440c8"><path d="m432.65 49.47c2.05-.59 4.13-1.18 6.29-1.31 23.46-1.05 46.83 2.01 70.06 4.97 16.77 1.96 33.29 5.53 49.93 8.29 37.15 7.86 74.1 17.04 109.92 29.76 20.56 7.66 41.39 15.67 59.24 28.71 2.4 1.34 1.44 4.23 1.31 6.44-1.82 17.38-5.4 34.5-9.76 51.4-.6 2.85-1.76 6.51.97 8.67 9.28 8.08 19.28 15.33 28.25 23.78 15.58 13.39 29.32 28.72 42.69 44.26 31.03 38.07 55.28 81.73 70.61 128.42 9.78 28.25 15.48 57.8 18.4 87.51.45 9.21 1.82 18.37 1.55 27.61-.27 10.35.19 20.71-.21 31.07-1.13 16.51-2.23 33.08-5.48 49.34-16.71 99.06-73.08 190.44-153.19 250.85-17.78 13.78-37.1 25.42-56.8 36.21-44.11 22.88-92.39 37.82-141.84 43.05-40.93 4.83-82.54 2.6-122.98-5.1-49.08-9.62-96.32-28.58-138.38-55.67-9.92-6.66-20.11-12.96-29.27-20.69-12.51-9.34-24.04-19.91-35.37-30.64-3.73-3.26-7-6.98-10.32-10.65-6.45-6.59-12.82-13.29-18.34-20.69-22.36-26.48-40.76-56.16-55.54-87.46-6.09-14.25-12.38-28.47-16.72-43.38-4.24-11.39-6.91-23.27-9.9-35.03-3.36-13.69-5.05-27.69-7.3-41.59-.98-9.85-1.6-19.74-2.44-29.6-.3-11.99-.07-24-.15-36 1.29-16.83 2.25-33.77 5.51-50.37 3.14-21.02 8.5-41.68 15.44-61.76 18.37-53.99 48.29-104.09 87.5-145.53 13.21-13.84 27.07-27.13 42.19-38.87 12.48-10.81 26.52-19.57 40.24-28.69 14.21-8.46 28.81-16.26 43.8-23.27 27.65-12.68 56.78-22.04 86.53-28.31 3.87-.76 7.86-1.12 11.61-2.41 2.03-.63 2.97-2.71 3.46-4.6 4.82-19.94 9.89-40.01 18.49-58.72m19.32 31.31c-2.77.19-3.78 3.16-4.97 5.21-11.13 22.15-16.36 46.59-22.63 70.41-2.99 13.02-5.66 26.11-7.69 39.32-4.36 22.34-7.32 44.9-10.43 67.43-1.66 15.6-3.33 31.21-5.02 46.8-.92 12.68-1.65 25.37-2.81 38.03-.01 6.02-.45 12.02-.74 18.03-.06 10.66-.08 21.33-.09 31.99.19 1.66-.27 3.92 1.53 4.87 9.82 5.48 20.88 8.01 31.53 11.37 9.78 2.15 19.24 5.62 29.13 7.3 8.94 1.97 17.8 4.59 26.93 5.49 1.64-1.27 2-3.6 2.69-5.46 1.17-5.32 1.33-10.79 2.12-16.16 3.25-23.92 7.43-47.71 12.61-71.28 2.42-7.95 3.5-16.36 7.22-23.87 11.46 1.03 22.61 4.01 33.72 6.89-.16 2.63-.42 5.27-1.02 7.85-6.44 30.21-14.72 60.01-23.4 89.65-1.59 5.79-3.91 11.41-4.78 17.37-.4 2.19 1.41 3.91 3.12 4.93 4.48 2.65 9.8 2.73 14.81 3.5 8.31 1.58 16.74 2.5 25.17 3.21 7.44.23 14.68 2.14 22.1 2.51 7.96.54 15.73 2.77 23.75 2.6 1.17-1.86 2.34-3.73 3.27-5.72 4.45-9.93 9.08-19.78 13.1-29.89 5.27-13.12 11.21-25.97 15.68-39.39 4.99-12.8 9.61-25.72 14.32-38.62 13.4-40.13 26.75-80.35 36.39-121.58 5.7-23.26 10.48-46.79 13.14-70.6.12-2.45 1-5.66-1.52-7.22-7.73-5.83-16.92-9.24-25.63-13.32-12.1-5.11-24.2-10.27-36.71-14.27-12.06-3.89-24.13-8.42-36.88-9.26-3.06-.32-5.24 2.57-5.74 5.29-2.75 12.54-5.97 24.98-8.55 37.56-2.24 10.87-5.27 21.56-7.42 32.46-3.94 16.47-7.11 33.12-11.55 49.47-11.04-2.55-22.41-4.28-32.85-8.87.19-1.74.39-3.48.73-5.2 4.45-20.1 7.99-40.38 12.52-60.47 3.51-18.09 7.7-36.04 11.12-54.15.3-2.7.47-6.58-2.71-7.63-7.5-2.35-15.44-2.52-23.14-3.8-18.07-1.97-36.21-3.64-54.39-3.84-8.68.06-17.43-.29-26.03 1.06m-108.35 86.77c-7.4 4-15.03 7.55-22.32 11.76-1.84.99-3.48 2.88-2.85 5.11 1.14 6.02 5.46 10.81 7.26 16.6-.29 1.64-2.02 1.91-3.39 1.77-4.16-4.52-5.22-11.1-9.53-15.51-1.76-2.08-4.74-1.36-6.83-.26-4.58 2.38-9.01 5.04-13.66 7.28-3.49 1.74-7.27 3.11-10.2 5.74-2.07 1.83-1.46 5.09-.32 7.27 3.28 6.07 6.28 12.28 9.67 18.28 3.5 6.23 6.17 12.9 9.93 18.98 1.92 3.23 3.16 6.79 4.5 10.29-8.19-7.73-14.33-17.53-23.52-24.2-4.9-3.98-10.98-6.5-17.31-6.79-15.14-.27-30.15 9.09-36.15 23.08-3.24 7.92-4.65 17.14-1.2 25.24 4.46 11.93 15.3 19.5 22.24 29.8-4.55-1.84-8.51-4.76-12.65-7.33-9.32-5.96-18.29-12.43-27.68-18.27-2.4-1.46-4.76-3.31-7.63-3.67-2.32-.41-3.69 1.79-4.83 3.4-4.11 6.23-7.97 12.62-12.32 18.68-1.63 2.39-3.69 5.93-1.29 8.52 4.16 4.38 9.84 6.83 14.6 10.46-1.97 1.08-4.46 1.63-5.78 3.59-.7 1.8-.53 3.78-.73 5.68-3.8-1.99-7.45-4.25-10.89-6.79-2.13-1.58-4.78-3.04-7.51-2.17-4.24 3.32-6.34 8.52-9.32 12.88-2.61 4.6-6.44 8.49-8.41 13.43-.99 3.05 2.12 5.26 4.22 6.86 13.7 8.54 26.81 18 40.55 26.48 2.74 1.63 5.25 3.75 8.33 4.72 2.41.76 4.65-1.11 5.84-3.04 4.2-6.47 8.66-12.77 12.69-19.35 3.82-5.12-.19-11.35-.88-16.85 4.09-.92 8.32-1.24 12.35-2.46 2.26-1.43 3.72-3.77 5.19-5.94 3.49-5.53 7.14-10.94 10.56-16.52 1.14-1.75 1.72-3.77 2.26-5.76 2.43-.62 5.04-1.18 6.8-3.13 6.6-6.43 14.38-11.68 20.23-18.86 1.81-1.92 4.32-2.95 6.3-4.67 5.75-4.88 11.06-10.26 16.91-15.02 1.99-1.56 2.77-4.03 3.67-6.28 1.99-.05 4.08-.04 5.84-1.13 7.03-3.65 13.94-7.54 21.08-10.97 2.43-1.11 5.1-3.32 4.48-6.32-1.98-5.9-6.5-10.67-7.86-16.82 1.22-.4 2.45-.81 3.67-1.22 2.84 4.05 4.85 8.57 7.2 12.91 1.18 2.1 3.11 4.82 5.92 3.84 4.8-1.45 9.05-4.26 13.5-6.52 4.29-2.48 9.11-3.99 13.15-6.88 2.18-1.53 2.11-4.73.9-6.85-8.8-17.12-17.74-34.18-26.64-51.24-1.43-3.05-5.49-3.36-8.14-1.83m32.39 107.17c-6.92 2.4-13.1 6.49-19.72 9.57-10.64 5.71-20.59 12.62-30.45 19.58-7.69 5.54-14.58 12.07-21.74 18.26-28.67 26.87-50.92 60.5-64.74 97.27-10.54 28.25-16.42 58.41-15.77 88.6.18 9.33-.29 18.7 1.07 27.96 4.57 46.16 22.47 90.87 50.59 127.72 5.77 7.79 11.81 15.47 18.85 22.17 4.11 3.9 7.53 8.5 12.03 12 6.43 5.24 12.13 11.57 19.43 15.64 3.84 2.25 8.7-2.3 7.24-6.3-1.14-3-2.96-5.68-4.32-8.57-15.47-32.64-17.78-71.5-5.39-105.5 5.16-13.57 11.67-26.84 21.03-38.04 28.76-38 78.73-58.73 125.93-51.95 10.52.87 20.59 4.18 30.62 7.26 13.1 5.43 26 11.84 36.96 20.96 20 15.64 35.53 36.91 44.18 60.79 5.93 15.21 7.94 31.63 8.48 47.86-.81 15.07-2.47 30.3-7.81 44.54-8.6 24.93-24.76 47.23-45.78 63.17-1.65 1.38-3.66 2.93-3.7 5.3.02 2.24 1.26 4.76 3.44 5.6 3.04.37 6.02-.64 8.94-1.32 16.81-4.35 32.93-10.98 48.66-18.25 24.63-12.45 47.41-28.6 67.06-47.99 7.02-7.62 14.55-14.84 20.71-23.21 7.6-10.55 15.44-20.98 21.66-32.42 7.29-12.33 12.71-25.62 18.06-38.86 9.37-26.15 14.53-53.82 15.12-81.59 1.01-25.16-2.85-50.26-9.02-74.59-9.78-33.68-25.9-65.66-48.18-92.81-1.67-2.19-4.81-2.35-7.23-1.57-1.55.97-2.25 2.74-2.88 4.36-3.39 9.63-6.23 19.45-10.06 28.91-8.16 22.69-16.92 45.18-26.87 67.15-4.51 10.97-10.46 21.25-16.61 31.37-6.61.32-13.24.32-19.8-.57-15.7-1.29-31.24-3.95-46.76-6.6-34.07-6.26-67.86-14.01-101.09-23.78-20.11-6.11-40.27-12.42-59.19-21.7-5.44-2.67-10.98-5.47-15.49-9.58-.72-2.1-.59-4.37-.64-6.55.08-6-.23-12 .07-17.99 1.06-12.98.78-26.03 2.11-38.99 1.55-19.72 3.88-39.36 5.98-59.02.43-4.89 1.87-9.72 1.61-14.64-1.05-2.51-3.72-4.94-6.59-3.65m380.26 3.55c-5.47 4.21-11.14 8.15-16.51 12.49-1.25 1.08-2.74 1.77-4.29 2.25-2.61-3.32-4.72-8.27-9.48-8.67-4.3 1.4-7.5 4.93-11.13 7.5-4.35 3.69-9.65 6.28-13.45 10.59-1.82 2.78.44 5.8 2.17 7.96 9.13 12.19 18.43 24.26 27.32 36.63 2.29 3.65 6.68 5.8 7.86 10.16 2.27 7.06 5.84 13.58 8.66 20.42 1.24 2.54 2.06 6.05 5.17 6.9 2.58 1 5.09-.71 7.54-1.37-1.14 3.45-3.77 6.28-4.49 9.86-.03 5.15 3.25 9.49 5.11 14.11 1.22 3.24 3.06 6.17 4.86 9.11.35 2.53.17 5.1.62 7.63 3.11 15.2 6.28 30.39 9.26 45.62.35 3.12 3.02 6.4 6.46 5.7 18.36-3.68 36.66-7.66 55.08-11.06 2.59-.63 6.09-1.94 6.18-5.09-.13-6.12-2.12-11.98-3.25-17.94-2.01-10.33-4.3-20.6-5.94-30.99-.53-3.4-2.88-8.03-7.01-7.1-5.03.94-10.17 1.57-15.04 3.1-3.31 1.51-2.64 5.55-2.36 8.48-6.53.45-12.9 2.01-19.28 3.38-.71-1.67-1.25-3.45-2.36-4.9-1.44-1.12-3.26-1.54-4.92-2.19 8.56-4.72 17.82-7.95 26.56-12.29 4.49-2.28 9.35-3.78 13.8-6.14 2.42-1.25 4.2-4.1 3.02-6.81-2.6-7.14-6.09-13.92-9.12-20.89-1.1-2.44-2.2-5.12-4.51-6.66-1.95-.33-3.93-.25-5.88-.27 1.96-3.61 4.77-7.92 2.29-12-3.48-6.3-5.01-13.84-9.61-19.4-5.6-1.18-10.61 2.69-15.6 4.63-8.7 3.5-16.84 8.43-25.94 10.86 2.42-2.63 6.77-4.61 6.26-8.81-.82-3.21-3.53-5.5-5.01-8.4-1.03-1.17.68-2.23 1.38-2.98 6.43-5.25 13.64-9.49 19.89-14.98 2.21-1.55 2.36-5.01.81-7.07-4.73-6.88-9.68-13.62-14.88-20.15-1.26-1.44-2.53-3.37-4.64-3.45-2.13-.21-3.99 1.01-5.6 2.23m-593.95 88.05c-9.81 2.1-18.66 8.54-23.81 17.14-5.2 9.41-7.71 20.85-4.22 31.3 3.06 8.07 8.1 15.78 15.73 20.19 8.35 4.94 18.9 6.25 28.15 3.23 7.95-2.87 15.08-8.16 19.77-15.23 5.55-9.11 7.59-20.45 4.99-30.85-1.81-8.21-7.08-15.32-13.74-20.29-7.77-5.21-17.68-7.34-26.87-5.49m-41.16 80.75c-.71 7.66-1.32 15.33-1.92 23-.2 2.46.03 5.1 1.42 7.21 1.49 1.13 3.39 1.49 5.12 2.13-2.59 1.88-5.49 3.46-7.55 5.95-1.42 3.98-1.19 8.3-1.68 12.45-.24 3.96-1.27 7.99-.38 11.92.73 2.71 3.78 3.43 6.19 3.81 18.53 1.76 37.11 2.92 55.66 4.49 2.82.4 6.32-1.1 6.68-4.22 1.1-6.68 1.19-13.46 1.9-20.18.23-3.13.8-6.3.25-9.42-1.3-3.19-5.07-3.53-7.91-4.51 2.72-2.58 6.82-3.74 8.73-7.07 1.46-6.09 1.42-12.43 2.12-18.63.52-3.26-.96-7.86-4.81-8-19.01-1.42-38.01-3.16-57.03-4.39-3.47-.7-6.54 2.05-6.79 5.46m660.08 29.01c-3.06 1.26-3.02 5.1-3.41 7.87-.4 8.25.12 16.53-.66 24.76 2.05 4.35 6.47 6.9 8.99 10.94-3.2 3.22-7.75 5.44-9.69 9.69-1.52 8.18-.18 16.59-1.29 24.82-.57 2.64.56 5.13 1.56 7.51-5.51 3.14-5.89 9.95-7.79 15.33-1.48 5.7-4.39 11.06-4.97 16.96-.01 3.97 4.89 4.07 7.12 6.4-3.1 1.18-6.41 1.84-9.38 3.36-2.55 1.53-2.75 4.82-3.66 7.37-1.43 5.59-4.18 10.91-4.6 16.71 3 4.68 9.21 5.22 14.07 6.85 12.56 4.14 25.2 8.02 37.83 11.96 3.17.9 6.24 2.42 9.59 2.54 3.15.04 4.68-3.32 5.38-5.9 2.12-7.92 5.03-15.61 7.28-23.48 1.02-3.68-2.66-5.7-4.65-8.09 2.93-1.01 6.87-1.1 8.54-4.16 1.71-3.55 2.71-7.39 4.03-11.09 1.34-4.56 3.7-9.32 2.29-14.15-1.8-1.56-4.21-2.07-6.39-2.84-14.75-4.56-29.4-9.42-44.2-13.83-2.24-.83-4.76-1.39-6.36-3.3 4.73-.02 9.36 1.16 14.1 1.1 12.04.22 24.05 1.05 36.09.99 3.5-.16 7.54 1.65 10.61-.74 2.93-2.28 2.25-6.41 2.5-9.67-.06-7.34 1.12-14.64.77-21.98 0-2.1-1.67-4.09-3.77-4.29-5.74-.98-11.6-.62-17.39-.97 1.04-1.63 2.28-3.18 3.01-4.98.63-2.57-1.56-4.62-2.69-6.69 5.61-.04 11.19 1.08 16.79.79 3.06-.14 5.21-2.88 5.1-5.85.17-9.56 1.39-19.16.77-28.7-2.7-3.64-7.73-3.33-11.77-3.37-12.62-.67-25.26-1.04-37.9-1.45-5.25-.41-10.63-1.63-15.85-.42m-639.62 48.47c-10.76 4.81-19.37 15.43-19.89 27.47-.32 8.55-.44 17.23 1.59 25.61 1.29 5.76 2.07 11.65 3.69 17.33.64 2.66 3.16 4.75 5.98 4.19 8.46-.9 16.78-2.89 25.25-3.76 2.71-.42 5.64-.58 7.96-2.18 1.71-2.29 1.37-5.38 1.82-8.05 5.14 1.98 9.48 5.65 14.77 7.24 2.93.93 5.22-2.12 5.95-4.59 5.35-16.9 4.93-36.51-4.81-51.77-8.62-13.72-27.94-18.13-42.31-11.49m301.73-.15c-21.52 1.65-42.67 9.13-60.35 21.55-12.98 9.6-24.59 21.28-32.89 35.21-9.14 14.81-14.55 31.69-16.9 48.88-1.47 17.69-.17 35.87 6.1 52.6 5.62 15.12 13.47 29.69 24.86 41.27 12.16 13.49 27.8 23.44 44.36 30.65 9.87 3.73 20.12 6.46 30.47 8.47 8.96 1.2 18.04.57 27.05.61 8.33-.77 16.62-2.41 24.54-5.13 7.21-2.31 14.55-4.71 20.7-9.26 8.33-4.66 16.09-10.38 22.53-17.45 5.9-5.85 11.62-12.06 15.56-19.43 2.9-5.3 7.04-10.17 7.86-16.35.4-2.68-1.46-5.78-4.36-5.85-14.05-1.47-28.11-2.87-42.2-3.92-4.47-.46-10.22-2.18-13.53 1.92-4.23 4.6-9.64 7.9-15.2 10.65-23.24 11.36-53.18 9.08-73.49-7.34-6.17-5.95-12.19-12.5-15.26-20.64-1.92-5.03-4.01-10.18-4.18-15.63.28-.2.85-.61 1.13-.81 4.28 1.43 8.22 3.79 12.64 4.85 5.37 1.29 10.23 4 15.52 5.51 23.23 6.71 46.85 12.26 70.91 15.02 10.22 1.96 20.57 3.08 30.93 4.05 12.97.86 25.86 3.09 38.88 3.08 3.62.04 5.11-3.91 6.2-6.73 5.66-16.73 7-34.73 5.07-52.23-2.87-22.45-12.47-43.94-27.03-61.24-7.26-9.45-16.99-16.56-26.61-23.44-12.7-8.27-27.03-13.91-41.84-17-10.4-1.51-20.95-3.09-31.47-1.87m-269.95 71.03c-8.71.58-16.87 4.87-23.02 10.92-6.74 7.8-10.1 18.38-9.23 28.63 1.35 8.94 5.11 17.78 11.87 23.98 7.42 7.63 18.45 11.36 28.98 10.11 7.28-1.18 14.36-4.18 19.8-9.23 8.45-8.42 12.69-21.06 10.26-32.83-1.85-7.28-4.64-14.65-10.04-20.06-7.37-7.53-17.9-12.69-28.62-11.52m576.84 37.7c-2.97 1.45-4.12 4.81-5.7 7.48-3.03 6.22-6.94 11.99-9.67 18.36-1.38 2.76-.19 6.29 2.66 7.56 15.99 9.09 32.38 17.48 48.43 26.46 1.91.93 4.17 2.44 6.34 1.28 3.2-1.5 4.25-5.23 5.92-8.07 2.95-6.31 7.06-12.02 9.87-18.38 1.59-4.01-2.24-6.96-5.42-8.44-13.49-6.68-26.22-14.75-39.72-21.41-4.04-1.9-7.89-6.12-12.71-4.84m-531.87 20.15c-8.29 5.64-16.22 11.84-24.41 17.65-6.5 5.01-12.64 11.5-14.3 19.82-1.95 7.18-.58 14.74 1.91 21.61 5.09 13.39 18.34 23.38 32.67 24.32 8.9.05 17.3-3.99 24.45-9.02 4.29-3.44 9.3-5.87 13.31-9.68 2.74-2.67 6.51-4.06 9.09-6.9 1.65-1.94.63-4.6-.58-6.46-4.12-6.21-8.61-12.16-12.94-18.22-1.6-2.32-3.91-3.98-5.75-6.07-3.54-8.28-10.04-14.73-14.91-22.19-1.93-2.66-4.74-6.77-8.54-4.86m503.95 26.91c-2.88.86-4.42 3.7-6.29 5.83-6.73 8.56-14.26 16.46-21.03 24.99-2.18 2.5-1.55 6.17.14 8.76 3.68 6.08 7.13 12.29 10.49 18.57 4.32 8.18 9.62 15.81 13.85 24.06 1.93 3.4 3.47 7.08 5.97 10.13 1.56 2.05 4.82 2.49 6.78.76 3.05-2.65 5.42-5.94 8.06-8.97 3.71-4.62 8.17-8.7 11.23-13.81 1.26-3.93-2.43-6.89-3.33-10.4 2.14-3.67 5.1-6.95 8.19-9.87 3.34-.63 6.77 2.97 10.3 1.45 3.04-1.45 4.98-4.37 7.1-6.87 4.05-5.28 8.84-9.96 12.64-15.42 1.42-1.75.9-4.15.38-6.12-3.15-2.33-7.06-3.16-10.67-4.46-15.67-5.55-31.13-11.7-46.83-17.14-2.25-.76-4.56-1.82-6.98-1.49m-471.66 40.45c-5.49 4.24-8.65 11.04-9.11 17.9-5.3 2.08-9.88 5.54-14.9 8.15-2.26 1.35-4.87 2.43-6.44 4.64-.85 2.17-.37 4.63.86 6.58 3.21 5.29 7.01 10.24 11.46 14.56 6.93 7.64 15.14 14.55 24.92 18.16 8.09 3.05 18.17 1.55 23.92-5.28 5.33-4.79 6.5-12.28 5.94-19.09 5.67-3.85 12.23-6.17 17.8-10.16 1.93-1.19 2.66-3.74 1.62-5.75-3.09-6.54-8.08-11.91-12.78-17.31-7.74-7.09-16.36-14.26-27.01-16.13-5.68-1.13-11.47.75-16.28 3.73m434.88 1.82c-4.25 1.8-7.47 5.25-11.15 7.92-8.3 5.95-16.11 12.55-24.26 18.71-3.79 2.83-7.96 5.35-10.98 9.06-2.19 2.86.43 6.21 1.63 8.9-4.79-.94-9.73-2.07-14.61-.99-6.28.83-11.82 4.06-17.48 6.68-9.75 4.99-20.06 8.91-29.54 14.41-3.21 2.67-7.64 1.35-11.4 2.44-13.81 3.68-27.88 6.28-41.85 9.27-2.79.45-5.16 2.26-7.91 2.72-17.98-.84-36 .08-53.98.12-3.1 0-6.19 1.54-9.24.53-7.06-1.99-14.36-2.92-21.49-4.6-2.83-.45-5.76-1.69-8.62-.95-3.27.92-3.53 4.65-4.37 7.37-3.24-3.03-3.17-8.94-7.97-10.35-7.25-1.85-14.64-3.27-22.07-4.19-1.81-.63-3.24-2.01-4.95-2.82-14.21-6.57-28.61-12.71-42.83-19.24-2.23-.83-4.7-2.12-7.09-1.2-1.76 1-2.69 2.9-3.55 4.65-3.42 7.57-6.51 15.29-10.18 22.75-3.75 7.75-6.66 15.89-10.51 23.59-1.22 2.69-2.85 5.57-2.19 8.63 1.42 2.69 4.36 4.03 7.01 5.24 12.17 4.95 23.96 10.76 36.01 16.01 2.66 1.1 5.18 2.66 8.04 3.23 2.53.44 4.71-1.4 5.66-3.6 2.1-4.48 4.62-8.89 5.67-13.76.6-3.27-2.48-5.22-4.92-6.53 3.15-5.53 5.24-11.56 7.88-17.32 3.43.9 6.94.5 9.68-1.9-1.52 15.12-6.23 29.72-8.22 44.76-.46 2.36 1.5 4.14 3.56 4.8 5.56 1.95 11.51 2.32 17.22 3.67 4.09.74 8.17 2.1 12.37 1.79 2.34-.81 3.2-3.44 4.52-5.3 1.97 2.81 2.57 7.16 6.25 8.33 4.85 1.55 9.96 2.03 14.89 3.28 2.66.51 5.32 1.53 8.07 1.26 2.1-1.36 3.77-3.48 4.12-6.01 1.93-9.79 3.71-19.62 5.8-29.38.97-4.18 1.04-8.63 2.99-12.52.37 4.22-.5 8.62.74 12.73 3.2 4 9.03 2.56 13.5 3.3.16 9-.02 18.02.34 27.02-.03 3.48 3.7 5.56 6.85 5.39 8.67.06 17.36 0 26.02-.29 3.04.04 4.6-3.46 4.66-6.08.21-8.94-.06-17.89-.48-26.82 2.9-.08 5.82 0 8.73-.3 2.54-.24 5.01-2.27 5.22-4.91.48-3.98.1-8 .21-11.99 3.59 14.19 6.16 28.65 9.87 42.81.57 3.34 4.4 5.03 7.44 3.91 15.72-3.87 31.68-6.71 47.37-10.69 2.38-.63 5.54-1.99 5.33-4.95-.36-5.18-2.04-10.18-3.15-15.23-.74-4.12-5.6-3.73-8.77-3.99-.32-6.33-2.54-12.34-3.42-18.58 1.6-.8 3.55-1.18 4.79-2.54.77-1.48 1.23-3.08 1.79-4.64 2.65 4.05 3.93 8.77 6.2 13.02 3.98 7.51 7.33 15.33 10.99 23 1.24 2.41 2.32 5.09 4.54 6.8 2.72.92 5.41-.58 7.86-1.65 6.54-3.19 13.23-6.1 19.79-9.26 2.1-1.11 4.91-3.12 4.05-5.85-1.4-4.1-3.44-7.95-4.89-12.02 2.47 2.16 4.48 4.76 6.11 7.61 1.39 2.24 3.54 5.24 6.6 4.16 6.04-1.88 11.58-5.04 17.3-7.69 3.34-1.7 6.88-3.02 10-5.12 2.08-1.43 2.66-4.49 1.48-6.66-4.9-8.25-11.9-15.23-20.34-19.85.39-3.13.72-6.27.91-9.41 2.09 1.75 4.59 3.88 7.52 2.69 2.91-1.65 5.29-4.06 8.09-5.89 6.59 6.95 11.43 15.35 17.94 22.36 2.2 2.43 5.83 1.28 7.99-.58 6.17-5.22 12.98-9.62 19.12-14.88 1.93-1.62 3.65-4.41 2.33-6.91-2.04-3.56-5.07-6.41-7.32-9.82-3.08-4.47-7.29-8.18-9.64-13.12 1.49-2.38 4.36-3.49 6.29-5.49 2.34-1.8 2.58-5.6.76-7.81-5.09-6.27-9.78-12.85-14.93-19.06-1.38-1.58-3.66-3.29-5.8-2.18z"/><path d="m169.18 402.15c1.62-.52 2.17.03 1.65 1.67-1.62.51-2.17-.04-1.65-1.67z"/><path d="m431.38 583.37c6.07-1.75 12.2-3.95 18.62-3.77 10.16-.05 20.82.5 29.96 5.43 7.41 2.97 13.43 8.42 18.84 14.14 3.93 4.52 7.84 9.23 10.08 14.86-25.47-7.91-51.48-14.04-77.8-18.36-5.6-.87-11.35-1.41-16.63-3.59 4.87-4.22 11.15-6.1 16.93-8.71z"/><path d="m177.26 631.21c.97-1.41 3.63.07 2.45 1.58-.97 1.39-3.62-.09-2.45-1.58z"/></g><g fill="#f4eead"><path d="m519.32 87.12c11.34.44 22.62 2.25 33.78 4.26-3.97 1.42-6.82 4.58-10.23 6.89-2.17.44-4.38-.03-6.54-.28-10.14-1.47-20.42-1.78-30.53-3.45 3.01-.51 6-1.16 9-1.78-.07-1.5-.1-3-.16-4.5 1.55-.4 3.1-.8 4.68-1.14z"/><path d="m444.41 104.26c6.97-.05 9.52-8.16 15.47-10.54-3.94 4.22-4.95 10.03-7.14 15.18-2.37 5.78-3.99 11.82-6.14 17.69-3.51 10.05-5.09 20.63-8.16 30.81-1.63 5.82-2.5 11.81-4.21 17.61-1.61 5.53-2.09 11.28-2.91 16.96-2.34-.54-4.73-.82-7.13-.76l-1.56-1.52c3.02-18.83 7.51-37.43 12.35-55.88 2.9-9.92 5.55-19.96 9.43-29.55z"/><path d="m614.56 106.35c10.44 2.13 20.42 6.11 30.45 9.66 14.89 5.61 29.67 11.62 43.83 18.92-.42 1.88-.8 3.77-1.3 5.63-.22.62-.65 1.86-.87 2.48-6.29-1.56-11.91-4.89-17.57-7.92-7.14-3.92-15.21-5.52-22.71-8.57-12.21-4-24.08-9.07-36.57-12.19-1.44-.1-3.88-.9-4.2 1.19-1.41 4.63-1.84 9.49-3.03 14.18-4.26 16.95-7.65 34.09-11.86 51.05-3.29 16.25-6.98 32.42-10.61 48.6-.61 3.31-3.11 6.32-6.36 7.25-9.77 1.24-19.47-1.21-28.9-3.43-4.6-2.34-9.49-4.16-13.67-7.23.72-2.06 1.42-4.12 2.14-6.17 9.94 3.87 20.45 5.79 30.76 8.33-1.33.06-2.65.13-3.96.22-.24 2.25-1.9 5.34.57 6.91 3.16 1.16 6.72 1.21 10.01.57 1.97-1 4.8-2.94 3.99-5.5-.26-2.05-1.91-3.42-3.26-4.81 4.74-21.23 9.8-42.4 14.46-63.65 4.05-17.35 7.57-34.82 12-52.08.15.42.44 1.25.59 1.66 2.95.69 6.28 1.78 9.09.01 3.35-1.99 7.1-3.06 11.03-2.88-1.33-.8-2.68-1.53-4.05-2.23z"/><path d="m550.03 318.44c2.51.59 5.09.51 7.61-.05.12 2.27.28 4.55.35 6.83-1.9 7.17-2.56 14.59-4.29 21.8-2.49 7.48-4.24 15.17-5.97 22.86-.82 3.86-2.69 7.4-3.51 11.26-1.27 7.38-4.02 14.38-5.53 21.71-2.45 6.98-3.27 14.56-6.59 21.22-3.06 2.06-6.79 3.04-10.45 3.32 7.01-22.63 13.44-45.44 19.28-68.4 3.47-13.42 6.67-26.91 9.1-40.55z"/><path d="m467.23 530.04c10.72 1.32 21.1 4.57 31.04 8.7 2.88 1.24 5.82 2.51 8.21 4.6-4.81.49-9.67-.16-14.48.48-5.12-.5-9.99-2.56-15.19-2.71-4.64-.93-9.29-1.85-13.96-2.66 1.26-.17 2.52-.34 3.78-.53-.4-1.23-.79-2.45-1.19-3.66.66-.81 1.32-1.62 1.99-2.42z"/><path d="m367.66 576.81c.7-.12 2.1-.36 2.8-.49-2.54 5.02-6.08 9.41-9.06 14.16-2.39 3.71-3.87 7.91-6.07 11.74-4.19 4.5-5.31 10.69-7.77 16.13-2.69 1.16-5.19 2.69-7.48 4.51-.01-.71-.04-2.15-.06-2.86 1.95-10.52 5.45-20.96 10.96-30.15-.27 1.38-.5 2.78-.74 4.18 1.77-2.18 3.7-4.27 6.18-5.66 4.86-2.63 7.66-7.56 11.24-11.56z"/><path d="m397.21 603.25c2.66-2.16 4.07-6.33 7.96-6.41 15.38 1.42 30.57 4.39 45.73 7.33 19 4.01 38.13 7.99 56.41 14.66.85 2.8 1.69 5.6 2.5 8.42 2.94.52 5.89 1.02 8.84 1.48 1.01-1.55 2.06-3.06 3.16-4.54l-1.2-1.8c-1.17.17-2.33.33-3.48.45-.46-1.58-.94-3.14-1.4-4.71-.46-1.89 1.29-2.87 2.43-1.2 2.14 1.97 4.55 4.16 4.97 7.21-.01 1.81-.42 3.6-.66 5.39-5.16 1.44-10.9 1.41-15.7-1.17-6.02-2.24-12.18-4.14-18.4-5.77-6.2-1.44-11.93-4.67-18.42-4.79-5.57-.06-10.42-3.25-15.92-3.65-5.11-.4-9.88-2.49-14.98-2.98-7.39-1.05-14.78-2.14-22.1-3.62-6.41-.83-12.89-1.21-19.24-2.39-.13-.47-.37-1.43-.5-1.91z"/><path d="m415.84 702.9c5.44 1.31 10.34 4.29 15.88 5.34 9.66 2.59 19.71 2.12 29.62 1.96-5.93 1.47-12.06.68-18.06 1.34-2.13.47-4.79 2.66-3.98 5.06 1.6.87 3.48.69 5.25.83.39.47 1.19 1.42 1.59 1.89-6.51-.16-13.08-.82-19.28-2.89-2.42-3.15-6.34-3.98-9.68-5.71-1.72-2.21-1.22-5.22-1.34-7.82z"/></g><g fill="#ffe300"><path d="m553.1 91.38.79-.35c-.06 1.24-.18 2.48-.35 3.71-7.47 36.71-15.2 73.36-22.59 110.09-.76 4.3-1.93 8.55-2.11 12.94-1.9 2.03-4.05 3.89-5.54 6.27.25 1.69 1.58 2.84 3.16 3.32 6.03 2.22 12.08 4.53 18.4 5.84 9.43 2.22 19.13 4.67 28.9 3.43 3.25-.93 5.75-3.94 6.36-7.25 3.63-16.18 7.32-32.35 10.61-48.6 4.21-16.96 7.6-34.1 11.86-51.05 1.19-4.69 1.62-9.55 3.03-14.18.32-2.09 2.76-1.29 4.2-1.19 12.49 3.12 24.36 8.19 36.57 12.19 7.5 3.05 15.57 4.65 22.71 8.57 5.66 3.03 11.28 6.36 17.57 7.92.22-.62.65-1.86.87-2.48 2.55-.66 5.13-1.24 7.73-1.74l.84-.16c.01 3.86-.32 7.7-1 11.5-6.28 45.29-18.36 89.52-31.93 133.11-12.6 40.25-27 79.94-42.89 119.01-5.37 13.1-10.86 26.16-17.19 38.83-.55 1.86-2.69 1.25-4.1 1.26-26.33-3.07-52.77-5.44-78.97-9.56.49-1.82 1.02-3.63 1.62-5.42 3.66-.28 7.39-1.26 10.45-3.32 3.32-6.66 4.14-14.24 6.59-21.22 1.51-7.33 4.26-14.33 5.53-21.71.82-3.86 2.69-7.4 3.51-11.26 1.73-7.69 3.48-15.38 5.97-22.86 1.73-7.21 2.39-14.63 4.29-21.8.7-3.62 1.67-8.05-.8-11.19-1.97-.5-4.02-.58-5.99-1.03-8.35-2.26-16.8-4.11-25.21-6.06-5.84-1.31-11.71-2.65-17.7-2.89-4.33 9.62-6.54 19.98-8.96 30.2-6.36 28.63-10.97 57.61-14.48 86.72-14.41-1.93-28.51-5.66-42.6-9.16-13.48-3.55-26.85-7.52-40.03-12.05-.1-1.66-.19-3.32-.3-4.97 2.4-2.26 5.67-2.77 8.82-3.1.34-9.23.7-18.46.61-27.7-.26-8.31 1.17-16.54 1.18-24.85 2.13-18.2 3.16-36.52 5.09-54.75.9-6.45 2.02-12.88 2.49-19.39.34-7.06 2.36-13.88 3.01-20.91 1.96-11.56 2.96-23.25 5.12-34.78.95-5.79 2.37-11.5 3.08-17.34.82-5.68 1.3-11.43 2.91-16.96 1.71-5.8 2.58-11.79 4.21-17.61 3.07-10.18 4.65-20.76 8.16-30.81 2.15-5.87 3.77-11.91 6.14-17.69 2.19-5.15 3.2-10.96 7.14-15.18 15.32-.58 30.63 0 45.92.82 10.11 1.67 20.39 1.98 30.53 3.45 2.16.25 4.37.72 6.54.28 3.41-2.31 6.26-5.47 10.23-6.89z"/><path d="m427.68 540.81c11.53-2.57 23.4-3.59 35.17-2.36 4.67.81 9.32 1.73 13.96 2.66 4.7 1.62 9.57 2.78 14.06 4.96 4.36 2.15 9.07 3.5 13.41 5.72 5.28 2.77 9.73 6.81 14.27 10.61 4.97 3.99 11.69 4.41 17.81 4.06l.48-.02c8.58 10.13 16.2 21.25 21.04 33.69 10.54 25.44 11.51 54.82 2.06 80.74-13.38 0-26.65-1.9-39.98-2.88-38.36-3.98-76.76-10.16-113.37-22.61-7.75-2.64-15.24-5.99-22.99-8.63-.58 14.94 5.06 29.68 14.34 41.27-1-.29-2-.56-3-.8-.68 3.32-1.85 7.31.64 10.2 4.2 4.85 9.63 8.36 14.64 12.3 5.14 3.07 10.82 5.27 16.64 6.71 6.2 2.07 12.77 2.73 19.28 2.89 16.27.78 32.87-2.44 47.29-10.13 3.95-3.01 8.55-5.16 12.02-8.76 9.57-.67 19.1.68 28.56 1.89 4.71.59 8.39-3.01 12.25-5.09 1.62-.78 3.31-1.45 5.04-2 .43-.12 1.31-.35 1.75-.47-6.82 15.97-18.59 29.43-31.99 40.28-28.58 22.23-68.18 28.02-102.54 17.63-35.97-10.75-65.83-40.41-76.15-76.58.42-5.01 2.84-9.46 4.38-14.15 1.67-4.88-.21-9.94-.13-14.9.09-7.01.16-14.08 1.37-21.01 1.77-8.12 4.26-16.09 7.34-23.81 2.2-3.83 3.68-8.03 6.07-11.74 2.98-4.75 6.52-9.14 9.06-14.16 2.31-1.96 4.75-3.79 6.77-6.07 4.53-5.53 10.07-10.2 16.11-13.98 3.16-2.09 5.94-4.79 9.47-6.26 8.12-3.5 16.44-6.53 24.87-9.2m-19.42 47.44c-2.92 2.33-5.98 4.68-7.93 7.94 1.6.26 3.22.5 4.84.65-3.89.08-5.3 4.25-7.96 6.41.13.48.37 1.44.5 1.91 6.35 1.18 12.83 1.56 19.24 2.39 7.32 1.48 14.71 2.57 22.1 3.62 5.1.49 9.87 2.58 14.98 2.98 5.5.4 10.35 3.59 15.92 3.65 6.49.12 12.22 3.35 18.42 4.79 6.22 1.63 12.38 3.53 18.4 5.77 4.8 2.58 10.54 2.61 15.7 1.17.24-1.79.65-3.58.66-5.39-.42-3.05-2.83-5.24-4.97-7.21-1.14-1.67-2.89-.69-2.43 1.2-9.07-25.53-34.56-44.19-61.67-44.88-16.44-.85-32.97 4.79-45.8 15z"/></g><g fill="#5c565c"><path d="m734.27 118.93c.14 1.66.18 3.33.43 4.98.63 1.72 2.47 2.61 3.29 4.24.63 4.96-.42 9.91-.96 14.82-1.62 11.98-4.22 23.79-6.71 35.6-.54 3.08-2.25 6.36-.46 9.35-2.06-1.62-3.98-3.4-5.92-5.15 3.73-21.2 10.26-42.14 10.33-63.84z"/><path d="m322.81 183.26c8.48-3.72 16.42-8.58 24.86-12.35 6.85 14.44 14.87 28.26 21.81 42.64 1.74 3.49 3.89 6.76 5.5 10.32-.82.31-1.62.63-2.42.97-5.41-12.07-11.81-23.66-17.97-35.34-2.27-4.54-4.58-9.07-7.4-13.3-6.96 3.92-14.16 7.41-21.32 10.93 1.72 5.21 4.85 9.76 7.27 14.65.86 1.77 1.79 3.67 1.51 5.71-4.67 2.73-9.46 5.99-15.02 6.36-2.97-5.86-5.54-11.97-9.08-17.52-1.69-.39-3.24.69-4.72 1.32-5.86 3.07-11.79 6-17.48 9.38 6.3 12.74 13.38 25.09 19.56 37.89 1.78 3.57 3.7 7.07 5.61 10.57l.42.81c-2.62-1.31-3.41-4.28-4.68-6.68-1.96-4.24-4.59-8.13-6.76-12.25-5.56-11.4-11.17-22.8-17.55-33.77 5.81-4.07 12.45-6.73 18.64-10.15 2.03-.9 3.96-2.43 6.24-2.52 4.23 5.75 6.7 12.63 10.34 18.78 3.87-2.04 7.98-3.67 11.65-6.08l.19-.75c-2.25-6.9-7.46-12.59-9.2-19.62z"/><path d="m240.86 237.78c7.88-7 19.17-11.11 29.63-8.35 9.18 2.82 15.41 10.63 21.74 17.37 4.2 5.1 9.24 9.49 12.95 14.99l-1.96 1.48c-4.86-4.66-9.03-9.95-13.6-14.88-4.76-6.03-10.76-11.31-17.93-14.24-15.48-4.11-32.63 6.33-37.36 21.37-1.2 3.97-2.36 8.2-1.43 12.35.88 3.57 2.41 6.94 4.02 10.23-3.62-3.15-5.23-7.94-6.54-12.41-1.87-10.35 3.31-20.7 10.48-27.91z"/><path d="m259.44 266.59c-1.9-2.12-2.29-4.97-1.8-7.68 5.44 9.68 14.52 16.55 21.14 25.35.91 1.6-1.26 2.42-2.13 3.39-.51-1.21-.88-2.5-1.73-3.52-5.09-5.9-10.62-11.44-15.48-17.54z"/><path d="m202.15 277c15.36 10.29 30.96 20.2 46.4 30.37 1.03.79 2.36 1.39 2.92 2.65-.47 1.33-1.22 2.55-1.93 3.77-.61-2.33-2.91-3.42-4.74-4.66-13.98-8.47-27.28-18-41.08-26.76-4.89 6.54-9.14 13.56-13.49 20.46-1.09-.62-2.18-1.25-3.18-1.99-.18-1.29.87-2.28 1.41-3.34 4.68-6.76 9.11-13.68 13.69-20.5z"/><path d="m319.29 315.3c17.86-14.5 37.4-27.18 58.65-36.11-1.11 5.23-.35 10.81-2 15.88.09-1.66.15-3.33.21-4.99-51.53 24.37-94.34 66.6-119.18 117.92-14.31 29.99-23.31 62.74-24.75 96-1.6 24.64 1.04 49.41 6.54 73.44-.92-.47-1.53-1.19-1.82-2.14-4.44-16.11-7.05-32.67-8.54-49.3-.18-10.35-.31-20.69-.07-31.04 2.53-44.36 16.94-88.05 41.77-124.93 13.57-20.53 30.19-39.07 49.19-54.73z"/><path d="m734.95 299.98c8.74-6.48 17.39-13.07 26.17-19.51 3.14 3.07 5.47 6.82 8.11 10.31 2.92 4.06 6.22 7.83 8.89 12.07-.81.63-1.59 1.27-2.38 1.91-3.78-6.91-9.05-12.86-13.83-19.07-8.78 6.29-17.15 13.14-26.03 19.31-3.31-3.26-5.85-7.17-8.72-10.8-6.29 4.73-13.07 8.91-18.75 14.39-1.08-1.21-2.11-2.46-3.11-3.71 6.84-5.69 14.04-10.99 21.41-15.97 2.72 3.71 5.44 7.42 8.24 11.07z"/><path d="m196.7 319.11c4.87-.74 9.79-1.25 14.58-2.44 1.57 1.07 2.43 2.68 2.54 4.56-4.85.66-9.69 1.47-14.47 2.56 1 5 2.56 9.9 3.21 14.98-4.28-.2-7.32-3.53-10.83-5.54-4.81-2.86-9.32-6.19-14.08-9.12-1.29-1.17-2.15.97-2.81 1.75-3.68 6.14-7.97 11.88-11.53 18.1-1.18-.66-2.35-1.34-3.5-2.03 3.62-7.13 8.7-13.38 12.84-20.2 1.07-1.22 1.98-4.12 4-2.62 7.84 4.69 15.13 10.27 23.05 14.82-1.11-4.92-2.92-9.73-3-14.82z"/><path d="m757.76 335.73c-1.8-4.17-7.05-7.22-6.09-12.19 3.58 2.72 5.86 6.68 8.42 10.29-.79.62-1.56 1.26-2.33 1.9z"/><path d="m794.51 331.37c1.12-.41 3.02-1.37 3.46.47 2.37 5.63 5.32 11.01 7.44 16.74.61 1.23-.38 2.34-.83 3.43-2.03-5.75-4.71-11.23-7.41-16.68-17.15 8.01-34.6 15.37-51.74 23.39 3.35 6.97 6.31 14.13 9.98 20.95l.39.74c-1.08-.66-2.39-1.12-2.94-2.34-2.3-4.17-3.79-8.73-5.81-13.04-1.45-3.57-3.67-6.86-4.36-10.71 17.46-7.22 34.5-15.42 51.82-22.95z"/><path d="m674.46 350.07c4.8 3.83 7.53 9.45 11.2 14.24 2.38 3.46 5.37 6.72 6.25 10.95-4.49-5.54-8.4-11.52-13.12-16.88-9.75 26.59-18.66 53.53-29.83 79.59-7.88 18.32-15.58 36.98-27.01 53.43-26.96.82-53.57-4.61-79.96-9.35-44.03-8.85-87.95-19.12-130.08-34.87-13.01-5.05-26.14-10.42-37.47-18.7-2.54-1.52-2.16-4.81-2.69-7.33 23.97 14.77 51.11 23.12 77.89 31.16 40.6 11.82 82.03 20.64 123.78 27.21 14.12 1.77 28.29 4.28 42.58 3.33 2.5.18 3.64-2.3 4.88-4.01 9.55-14.92 16.48-31.29 23.5-47.5 11.06-26.69 21.09-53.81 30.08-81.27z"/><path d="m794.82 369.05c5.46-2.15 10.82-4.54 16.12-7.05 3.63 8.09 7.41 16.12 10.82 24.3.74 1.21-.37 1.9-1.26 2.46-2.55-7.39-6.31-14.27-9.45-21.41-5.65 1.94-10.65 5.83-16.72 6.39.1-1.57.22-3.14.49-4.69z"/><path d="m150.15 377.18c12.46-11.03 33.89-8.17 43.41 5.34 5.19 7.66 7.47 17.7 4.77 26.67 1.23-8.48-.62-17.57-6.37-24.12-4.6-5.91-11.87-8.88-19.01-10.32-5.69-.7-11.39 1.22-16.43 3.72-9.1 4.57-14.6 14.23-16.3 24.01-1.93 7.49 1.51 14.9 4.79 21.45-12.45-13.01-8.75-36.16 5.14-46.75z"/><path d="m770.38 372.61c1.59.28 3.05.99 4.54 1.61-3.01 8.06-8.62 14.86-11.87 22.76 1.49 5.07 4.17 9.69 6.39 14.47l.37.79c-1.12-.58-2.15-1.35-2.64-2.54-2.68-5.13-4.92-10.48-7.3-15.74 2.83-6.3 6.98-11.87 10.06-18.02.61-1.02.47-2.21.45-3.33z"/><path d="m872.96 398.82c1.89 3.25 2.4 7.04 3.49 10.6 16.78 61.23 19.3 126.34 6.62 188.58-9.63 49.08-28.87 96.17-55.74 138.32-26.99 42.14-61.76 79.27-102.03 108.97-40.23 29.59-85.91 51.83-134.15 64.84-27.89 7.57-56.59 12.48-85.49 13.58-7.85.94-15.77.66-23.66.71-6.56-.05-13.15.18-19.66-.69-32.16-1.24-64.07-7.07-94.91-16.2-67.53-19.89-129.52-57.97-178.09-108.9-14.63-15.54-28.35-31.98-40.44-49.57-2.68-4.36-6.11-8.3-8.09-13.06 7.26 7.64 12.14 17.2 19.22 25.02 54.4 68.77 131.39 119.64 216.39 141.54 38.32 9.95 78.08 14.57 117.66 13.18 35.05-1.49 69.96-6.99 103.57-17.11 50.38-15.15 97.75-40.23 138.64-73.34 37.9-30.93 70.61-68.41 95.26-110.72 29.35-49.82 47.71-106.04 53.58-163.56 2.08-17.93 2.06-35.98 2-54.01-.73-28.13-4.73-56.09-10.74-83.56-1.16-4.87-2.63-9.67-3.43-14.62z"/><path d="m176.3 399.94c2.48 2.84 3.39 7.33 1.16 10.56-3 5.34-12.35 3.98-13.89-1.92-.35-2.19-.17-4.4-.04-6.59-.32 4.44 3.89 8.36 8.31 6.95 4.25-.71 4.02-5.72 4.46-9z"/><path d="m813.91 410.18c4.99-.82 9.87-2.5 14.99-2.41 2.77 17.28 6.74 34.35 9.87 51.58-.29-.15-.87-.43-1.16-.57-3.29-15.45-6.18-30.98-9.39-46.45-3.92.39-7.75 1.34-11.48 2.54 1.3 7.94 3.88 15.71 4 23.81-3.25.81-6.6 1.05-9.93.87-.89-5.04-1.6-10.15-3.12-15.04-3.77-.57-7.46.98-11.16 1.44.25 5.49 1.86 10.78 3.19 16.07-2.98 1.63-6.33 2.3-9.65 2.79-3.32-7.53-3.28-15.96-5.79-23.74-3.63.68-7.3 1.19-10.83 2.26-.32 3.24.87 6.36 1.44 9.5 2.71 12.44 4.55 25.07 7.81 37.38-.63-.06-1.89-.19-2.52-.25-3.55-16.9-6.71-33.88-10.11-50.8 4.94-.97 9.82-2.65 14.92-2.4 1.04 7.82 3.33 15.39 4.37 23.21 2.46-.27 4.91-.7 7.33-1.23-.96-5.6-2.66-11.07-2.95-16.77 4.69-1.27 9.47-2.13 14.26-2.99 1.38 5.53 2.16 11.18 3.26 16.77 2.48-.48 4.96-1.01 7.42-1.64-1.52-7.99-3.88-15.84-4.77-23.93z"/><path d="m125.94 445.96c5.77-.13 11.46.88 17.17 1.52 13.98.79 27.91 2.16 41.89 2.77.21 3 .19 6.06-.79 8.95.01-1.48.01-2.95-.01-4.41-7.46.06-14.82-1.44-22.28-1.33-11.04-1-22.09-1.83-33.12-2.92-1.41 7.76-2.13 15.67-2.18 23.55-.68 0-2.05-.01-2.73-.01.25-9.4 1.53-18.74 2.05-28.12z"/><path d="m141.34 475.8c.88 1.08 3.28 1.98 2.11 3.65-5.49 4.77-12.76 7.06-18.15 11.96-2.33 5.5-1.71 11.65-1.62 17.47-.72.04-2.17.1-2.89.13-.18-7.29 1.13-14.52 1.37-21.8 6.43-3.74 12.71-7.74 19.18-11.41z"/><path d="m782.34 481c8.86-.74 17.72.58 26.59.69 11.09.2 22.14 1.12 33.23 1.35.06 5.33-.59 10.65-.46 15.99-.03 2.41.35 4.97-.78 7.22.12-6.17.55-12.33.51-18.5-11.73-1.65-23.58-.98-35.38-1.47-6.66-.62-13.37-1.11-20.05-.67-1.52.84-1.18 2.89-1.39 4.35-.07 6.73.01 13.46-.13 20.19-1.19-1.18-2.99-2.18-2.78-4.11-.25-8.35.74-16.69.64-25.04z"/><path d="m162.22 487.16c.41-1.32.83-2.62 1.23-3.93 6.17 1.41 12.55 1.62 18.85 1.85-.55 9.41-.46 18.99-2.34 28.23.1-7.89 1.12-15.73 1.48-23.61-6.42-.46-13.21.22-19.22-2.54z"/><path d="m811.85 510.73c3.93 3.13 8.05 6.51 10.42 11.03-.51.22-1.54.65-2.06.87-2.52-2.75-5.57-4.95-8.08-7.7-1.22-1.12-.32-2.83-.28-4.2z"/><path d="m793.36 518.92c1 1.18 2.22 2.34 2.47 3.95-3.29 4.7-8.84 7.17-12.46 11.58-.99 1.25-.63 2.99-.79 4.48.02 6.31-.13 12.62-.03 18.93-.66.01-1.98.04-2.64.06-.71-6.98.14-13.99.16-20.98.31-2.62-.4-5.98 2.05-7.77 3.88-3.26 8-6.3 11.24-10.25z"/><path d="m132.25 537.36c6.42-8.21 17.32-12.52 27.62-11.18 6.54.86 12.62 4.14 17.36 8.66 7.77 8.33 9.98 20.12 10.12 31.14-.04 3.76-.14 7.57-1.16 11.22 1.44-11.85.47-24.64-6.62-34.67-3.95-6.64-11.38-10.18-18.7-11.68-13.91-2.04-28.78 7.66-31.65 21.62-2.8 13.9 1.98 27.64 3.78 41.33.52.09 1.57.27 2.1.36-1.24.29-2.47.56-3.71.83-2.16-11.29-5.18-22.49-5.67-34.03-.32-8.24 1.17-17.06 6.53-23.6z"/><path d="m810.16 534.14c.45-1.33.89-2.66 1.4-3.96 3.03.94 6.19 1.39 9.37 1.39 6.44.02 12.87.49 19.31.43-1.08 9.41.31 19.02-1.76 28.31.04-7.91.92-15.78 1.01-23.69-4.83-.02-9.65-.3-14.43-.9-4.96-.66-10.36 1.06-14.9-1.58z"/><path d="m149.23 567.71c-.91-3.59-.9-7.41.46-10.88.03 2.06.08 4.13.14 6.21 3.05-.18 6.1-.5 9.13-.96 1.2 5.51 1.33 11.17 2.37 16.71.5 3.65 1.69 7.22 1.65 10.94-.35.12-1.05.37-1.39.5-.13-7.82-1.75-15.55-3.31-23.19-3.01.35-6.03.55-9.05.67z"/><path d="m164.33 556.84c5.13 6.18 3.36 14.86 2.58 22.19-.99-.41-1.98-.8-2.96-1.18 1.32-6.93 1.71-14.06.38-21.01z"/><path d="m777.11 566.93c19 6.04 37.96 12.21 56.99 18.18-.49 2.03-1.07 4.05-1.88 5.99v-2.05c-14.88-5.14-30.06-9.42-44.98-14.49-2.74-.92-5.53-1.67-8.34-2.31-2.26 7.52-4.94 14.91-7.02 22.48-1.03-.3-2.05-.58-3.07-.84 2.2-9.14 5.14-18.11 8.3-26.96z"/><path d="m786.25 599.29c1.72.92 3.05 2.36 3.89 4.13-6.1 2.75-12.5 4.75-18.89 6.71-2.08.77-4.78 1.28-5.53 3.7-1.88 4.55-3.01 9.37-4.26 14.12-1.2-.35-2.4-.71-3.58-1.04 2.01-6.31 3.56-12.84 6.17-18.91 4.14-2.23 8.87-3.09 13.26-4.77 3-1.22 6.65-1.41 8.94-3.94z"/><path d="m156.81 606.74c7.91-6.19 19.04-8.87 28.6-5.14 4.28 1.75 8.47 3.93 11.95 7.03 8.38 7.92 12.28 20.25 9.82 31.54 1.06-8.63-2.03-17.29-7.23-24.1-4.82-6.24-12.27-10.12-19.98-11.37-6.53-.96-13.09 1.2-18.61 4.61-8.48 5.45-13.42 15.71-12.92 25.73-.12 6.39 2.79 12.28 5.76 17.77-12.13-12.28-10.99-35.22 2.61-46.07z"/><path d="m592.32 606.65c4.43 12.27 5.71 25.39 6.49 38.33.24 26.91-6.61 54.04-20.86 76.98-5.62 9.51-12.91 17.84-20.15 26.13l1.15-.06c-6.66 2.25-13.45 4.41-20.39 5.66.72-1.27 1.52-2.54 2.74-3.38 29.88-23.48 49.75-59.44 52.98-97.37.43-5.31 1.23-10.61.95-15.95-.26-5.03-.9-10.02-1.21-15.03-.36-5.14-2.22-10.12-1.7-15.31z"/><path d="m805.07 616.26c.63-1.12 1.27-2.24 1.92-3.35 5.42 1.56 10.82 3.21 16.09 5.24-.4 2-.94 3.99-1.8 5.86.05-.52.17-1.57.23-2.09-5.43-2.04-11.19-3.14-16.44-5.66z"/><path d="m184.59 628.86c2.11 2.31 3.75 5.87 2.07 8.88-1.41 3.52-5.57 5.38-9.2 4.66-4.24-1.35-6.74-6.09-5.84-10.38 1.24 3.34 4.14 6.62 8.09 5.69 4.1-.82 4.81-5.37 4.88-8.85z"/><path d="m751.96 637.02c17.38 9.48 34.68 19.11 52.21 28.3-.49 1.31-1.11 2.57-1.87 3.75-16.09-9.03-32.35-17.77-48.53-26.63-4.7 6.62-7.68 14.24-12.02 21.08-.99-.5-1.95-1.03-2.88-1.6-.07-1.6.92-2.96 1.59-4.32 4.05-6.74 7.38-13.88 11.5-20.58z"/><path d="m197.24 674.23c7.54-5.73 15.24-11.24 22.93-16.76 1.61 1.55 3.12 3.21 4.37 5.07 4.01 5.92 8.5 11.48 12.47 17.42-.82.58-1.64 1.18-2.46 1.78-2.6-4.68-5.98-8.84-9-13.25-1.39-1.93-2.75-3.95-4.63-5.44-5.17 2.48-9.24 6.69-13.98 9.85-7.75 5.43-16.37 11.13-19.79 20.42-2 7.91-.72 16.42 2.82 23.72-6.15-6.5-7.34-16.33-5.98-24.86 1.41-7.71 7.69-13.03 13.25-17.95z"/><path d="m710.21 700.15c4.59-5.2 8.58-10.94 13.69-15.66 19.72 7.3 39.49 14.42 59.22 21.7-1.12 1.51-2.26 3.01-3.48 4.44-.87-2.12-3.27-2.56-5.16-3.29-11.39-3.71-22.45-8.32-33.76-12.25-5.17-1.76-10.14-4.3-15.55-5.2-4.42 3.72-7.59 8.64-11.45 12.91-4.39 5.45-9.47 10.36-13.38 16.19-1-1.19-2.07-2.41-2.42-3.95 3.59-5.34 8.29-9.85 12.29-14.89z"/><path d="m237.59 687.6c1.07-.7 2.03-1.8 3.38-1.9 5.44 6.44 9.97 13.61 15.14 20.26 1.4 1.33.81 3.13-.82 3.9-4.14-6.62-9.07-12.69-13.49-19.11-7.97 4.89-14.91 11.27-22.89 16.14-2 1.11-4.61 2.56-6.81 1.09-2.8-1.64-1.44-5.39-1.79-8.04.54 1.28.57 3.16 2.14 3.7 2.3.83 4.31-.92 6.13-2.06 6.38-4.6 12.8-9.15 19.01-13.98z"/><path d="m726.66 717.48c-.69-1.23-.04-2.54.32-3.73 2.46 4.13 4.77 8.36 7.6 12.27 2.13-2.39 4.29-4.73 6.47-7.06.85.78 1.72 1.56 2.6 2.35-2.07 3.27-4.28 6.54-7.15 9.18-1.44.53-2.78-.19-3.39-1.52-2.17-3.82-4.55-7.53-6.45-11.49z"/><path d="m252.49 725.57c3.77-3.38 9.14-5.49 14.2-4.21 6.85 1.45 12.81 5.41 18.09 9.85 6.77 5.3 12.36 12.01 16.98 19.23 1.34 1.39-.06 2.54-1.21 3.36-2.92-5.58-7.29-10.24-11.62-14.74-7.15-6.17-15.06-12.87-24.92-13.47-4.8.6-9.39 3.23-12.41 7.02-2.62 3.16-2.47 7.56-2 11.41 1.56 6.56 6.99 11.89 7.1 18.84.27 2.07-1.77 3.99-3.8 3.85-3.03.18-5.66-1.91-7.3-4.27-2.6-3.9-3.34-8.63-4.51-13.07-4.65 2.92-10.55 4.54-13.78 9.22-1.01-1.61-3.36-3.29-2.43-5.36 5.48-3.52 11.2-6.74 17.02-9.69.25 6.38 1.49 13.54 6.93 17.64 2.02 1.7 5.36.64 5.79-2.02-2.56-7.74-8.79-14.55-8.01-23.16-.25-4.36 2.93-7.69 5.88-10.43z"/><path d="m669.08 740.16c6.02-4.45 11.6-9.51 17.9-13.6 5.31 6.55 10.23 13.42 15.68 19.87 1.16 1.38-1.24 2.27-2.02 3.14-3.15-6.62-8.71-11.71-12.85-17.71-14.26 10.5-28.12 21.54-42.18 32.31-1.19-1.07-4.06-2.81-1.88-4.39 8.4-6.61 16.88-13.1 25.35-19.62z"/><path d="m333.69 777.84c1.37-2.37 1.8-5.91 4.29-7.22 15.88 6.61 31.4 14.07 47.25 20.77-.56 1.3-1.14 2.61-1.77 3.9-14.7-6.8-29.51-13.4-44.4-19.79-7.69 16.76-15.11 33.64-22.55 50.52-1.17-.38-2.33-.75-3.49-1.09 2.79-7.86 6.7-15.28 9.95-22.96 3.31-8.16 7.31-16.02 10.72-24.13z"/><path d="m618.35 773.26c5.63-2.81 12.22-3.47 18.34-2.1 8.29 2.01 13.63 11.87 10.58 19.9 1.43-7.07-4.05-14-10.75-15.74-5.59-2.02-11.37.37-16.51 2.56-12.02 5.49-23.96 11.18-35.83 17.01 6.7 13.66 12.6 27.71 19.49 41.28 1.32 2.6 2.44 5.3 3.24 8.11l.25.83c-2.66-2.76-3.87-6.45-5.46-9.85-6.7-14.83-14.17-29.29-20.78-44.17 12.38-6.13 24.96-11.88 37.43-17.83z"/><path d="m611.33 789.89.25.51c1.57 3.3 3.13 6.6 4.8 9.86 3.88-.98 5.86-4.45 6.05-8.25 1.29 2.14 3.07 4.67 1.82 7.26-1.64 2.88-4.26 5.78-7.88 5.55-2.47-4.66-5.78-9.37-5.04-14.93z"/><path d="m522.91 804.24c17.12-3.55 34.18-7.38 51.24-11.23 1.12 3.72 1.69 7.58 2.48 11.38.32 1.23.29 2.52-.29 3.68-.85-3.33-1.49-6.7-2.2-10.05-16.11 3.5-32.29 6.73-48.27 10.8 3.7 17.84 8.04 35.54 11.77 53.38-1.8-.18-2.74-1.39-2.88-3.12-3.61-18.36-8.19-36.5-11.85-54.84z"/><path d="m391.97 794.17c5.98 1.31 12.13 1.89 17.99 3.72 2.36.58 3.11 3.17 4.09 5.09 2.34 5.72 5.49 11.09 7.47 16.97 2.15-5.99 2.6-12.38 4.01-18.54 2.08-.64 4.26.24 6.34.52 6.99 1.59 14.05 2.91 21.11 4.18 0 1.53.01 3.07.01 4.62l-.73-.19c-8.04-1.75-16.13-3.34-24.28-4.49-1.42 6.38-2.18 12.93-4.3 19.14-1.23-1.01-2.67-1.89-3.36-3.36-3.01-6.06-5.24-12.52-8.77-18.31-.68-1.31-2.25-1.48-3.5-1.82-4.68-.98-9.37-2-14.15-2.28-3.17 17.98-7.58 35.75-10.47 53.78-1.15-.32-2.29-.64-3.42-.96 4.3-19.29 7.45-38.84 11.96-58.07z"/><path d="m645.93 794.81c9.71 3.6 17.64 11.33 22.76 20.21-.78.51-1.55 1.03-2.31 1.57-3.86-8.28-11.86-13.31-19.64-17.4-2.02-.74-1.15-2.86-.81-4.38z"/><path d="m353.81 801.91c5.14 2.51 10.57 4.39 15.59 7.15-.58 1.25-1.15 2.51-1.75 3.76-4.57-2.79-9.9-4.12-14.26-7.21.01-1.25.19-2.49.42-3.7z"/><path d="m460.09 806.1c12.64-.19 25.29-.08 37.93-.24 6.23-.15 12.5-.59 18.71.19-.09 8.89-.06 17.79 0 26.69-4.19-.01-8.42-.39-12.59.21-.28.31-.85.92-1.13 1.23-.64 10.5-.27 21.07-.24 31.59-9.29-.22-18.57.09-27.86.17-.39-8.31-.23-16.63-.35-24.95-.06-2.45.16-4.9.64-7.29 1.19 1.23 2.19 2.74 2.11 4.54.27 9.07-.13 18.15.29 27.22 8.21.45 16.42-.2 24.64-.23.15-7.07.37-14.17-.28-21.22-.41-4.03-.17-8.11.82-12.04 4.33.18 8.67.13 13-.08-.09-7.15.24-14.3-.4-21.42-17.57.09-35.14.13-52.71.25-.17 7.19-.2 14.4.02 21.59 3.8.22 7.62.12 11.43.42-4.57.77-9.23.71-13.8 0-.66-8.86-.43-17.76-.23-26.63z"/><path d="m554.9 824.18c-1.39-3.55-1.98-7.45-1.29-11.21.46 2.36 1.02 4.71 1.62 7.05 5.63-.74 10.96-3.11 16.69-3.21.79 4.43 2.33 8.81 1.93 13.37-.77-2.99-1.8-5.91-2.68-8.85-5.44.62-10.83 3.53-16.27 2.85z"/><path d="m345.98 826.97c-2.16-.89-1.53-3.22-1.28-5.01 7.3 3.68 14.9 6.72 22.28 10.22-.53 1.25-1.06 2.5-1.61 3.75-6.25-3.46-13.19-5.45-19.39-8.96z"/><path d="m558.32 834.4c.41-.08 1.23-.25 1.64-.33-1.63 2.16-1.73 5.65.39 7.48 7.97-1.03 15.57-4.24 23.62-4.69.75 4.41 2.52 8.8 1.78 13.34-.55-2.89-1.27-5.75-1.92-8.61-8.3.87-16.18 4.35-24.61 4.17-.78-3.74-1.08-7.56-.9-11.36z"/></g><g fill="#fef278"><path d="m688.84 134.93c2.26 1.07 4.48 2.28 6.43 3.89-2.6.5-5.18 1.08-7.73 1.74.5-1.86.88-3.75 1.3-5.63z"/><path d="m422.63 189.69 1.56 1.52c2.4-.06 4.79.22 7.13.76-.71 5.84-2.13 11.55-3.08 17.34-2.16 11.53-3.16 23.22-5.12 34.78-.65 7.03-2.67 13.85-3.01 20.91-.47 6.51-1.59 12.94-2.49 19.39-1.93 18.23-2.96 36.55-5.09 54.75-.01 8.31-1.44 16.54-1.18 24.85.09 9.24-.27 18.47-.61 27.7-3.15.33-6.42.84-8.82 3.1.03-38.93 3.04-77.8 7.39-116.46 3.53-29.67 7.56-59.32 13.32-88.64z"/><path d="m523.3 224.04c1.49-2.38 3.64-4.24 5.54-6.27 1.51.65 3 1.33 4.49 2.03-.72 2.05-1.42 4.11-2.14 6.17 4.18 3.07 9.07 4.89 13.67 7.23-6.32-1.31-12.37-3.62-18.4-5.84-1.58-.48-2.91-1.63-3.16-3.32z"/><path d="m551.2 313c1.97.45 4.02.53 5.99 1.03 2.47 3.14 1.5 7.57.8 11.19-.07-2.28-.23-4.56-.35-6.83-2.52.56-5.1.64-7.61.05.34-1.83.75-3.63 1.17-5.44z"/><path d="m476.81 541.11c5.2.15 10.07 2.21 15.19 2.71 4.81-.64 9.67.01 14.48-.48l.67-.07c10.93 5.98 21.07 13.73 29.21 23.19-6.12.35-12.84-.07-17.81-4.06-4.54-3.8-8.99-7.84-14.27-10.61-4.34-2.22-9.05-3.57-13.41-5.72-4.49-2.18-9.36-3.34-14.06-4.96z"/><path d="m347.56 618.35c2.46-5.44 3.58-11.63 7.77-16.13-3.08 7.72-5.57 15.69-7.34 23.81-1.21 6.93-1.28 14-1.37 21.01-.08 4.96 1.8 10.02.13 14.9-1.54 4.69-3.96 9.14-4.38 14.15-5.56-18.04-6.57-37.67-2.35-56.09.02.71.05 2.15.06 2.86 2.29-1.82 4.79-3.35 7.48-4.51z"/><path d="m394.94 687.22c1 .24 2 .51 3 .8 5.46 5.27 10.98 10.68 17.9 14.08v.8c.12 2.6-.38 5.61 1.34 7.82 3.34 1.73 7.26 2.56 9.68 5.71-5.82-1.44-11.5-3.64-16.64-6.71-5.01-3.94-10.44-7.45-14.64-12.3-2.49-2.89-1.32-6.88-.64-10.2z"/><path d="m545.86 694.22c1.81.29 3.63.62 5.44 1.01-1.73.55-3.42 1.22-5.04 2-.1-.75-.3-2.26-.4-3.01z"/></g></g></svg>