<svg clip-rule="evenodd" fill-rule="evenodd" viewBox="0 0 560 400" xmlns="http://www.w3.org/2000/svg"><g fill-rule="nonzero"><path d="m187.592 298.453c3.843-5.403 7.937-8.145 12.2-8.145 5.884 0 8.843 4.995 8.843 15.015 0 5.311-.896 9.504-2.72 12.516-1.854 2.943-4.48 4.468-7.842 4.468-3.451 0-6.849-1.935-10.481-5.767zm-1.877 29.118 1.877-5.265c3.169 3.88 7.03 5.773 11.533 5.773 5.258 0 9.51-2.183 12.726-6.556 3.298-4.312 4.931-9.983 4.931-17.026 0-6.385-1.387-11.379-4.129-15.145-2.709-3.709-6.522-5.554-11.289-5.554-5.503 0-10.029 2.978-13.773 8.901v-27.129h-7.591v62.002h5.715z" fill="#231f20"/><path d="m246.328 321.594c-2.205 0-4.024-.624-5.351-1.85-1.322-1.214-2.019-2.887-2.019-4.939 0-5.721 5.258-8.531 15.709-8.531h2.287v10.662c-3.748 3.155-7.285 4.658-10.626 4.658m19.488 6.217c1.274 0 3.204-.413 5.724-1.211l-.649-4.612c-1.139.222-1.953.384-2.438.384-1.486 0-2.504-.454-3.066-1.401-.472-.88-.8-2.652-.8-5.178v-17.753c0-5.229-1.07-8.887-3.334-11.048-2.159-2.125-5.971-3.193-11.3-3.193-4.738 0-9.837.966-15.259 2.93v6.606c4.749-2.517 9.335-3.736 13.785-3.736 2.983 0 5.169.623 6.509 1.861 1.304 1.352 1.965 3.425 1.965 6.425v3.588h-4.768c-6.274 0-11.392 1.336-15.322 4.041-3.807 2.69-5.76 6.211-5.76 10.606 0 3.405 1.227 6.188 3.718 8.35 2.497 2.239 5.644 3.342 9.48 3.342 4.614 0 9.258-1.949 13.826-5.823 1.32 3.873 3.868 5.822 7.689 5.822" fill="#231f20"/><path d="m301.315 327.086v-55.762h-16.276v-5.749h23.89v61.511z" fill="#231f20"/><path d="m353.909 327.086v-55.762h-16.281v-5.749h23.903v61.511z" fill="#231f20"/><path d="m352.114 82.029v162.345l9.627 9.605v-181.526z" fill="#821f21"/></g><path d="m352.114 82.029v162.345l9.627 9.605v-181.526z" fill="none" stroke="#821f21" stroke-width="1.42"/><path d="m180.235 253.979h181.512l-9.633-9.605h-162.382z" fill="#af262b" fill-rule="nonzero"/><path d="m180.235 253.979h181.512l-9.633-9.605h-162.382z" fill="none" stroke="#af262b" stroke-width="1.42"/><path d="m189.727 82.033h162.387v162.348h-162.387z" fill="#ec1c24"/><path d="m180.235 72.456v181.527l9.497-9.606v-162.344z" fill="#f48366" fill-rule="nonzero"/><path d="m180.235 72.456v181.527l9.497-9.606v-162.344z" fill="none" stroke="#f48366" stroke-width="1.42"/><path d="m361.741 72.456h-181.506l9.497 9.577h162.382z" fill="#fabda7" fill-rule="nonzero"/><path d="m361.741 72.456h-181.506l9.497 9.577h162.382z" fill="none" stroke="#fabda7" stroke-width="1.42"/><path d="m270.926 119.817c2.539 0 4.884.976 6.784 2.845 1.908 1.822 2.919 4.056 2.919 6.606 0 2.298-.942 4.229-2.853 5.799-1.943 1.58-4.101 2.378-6.691 2.378-2.609 0-4.802-.881-6.727-2.576-1.802-1.81-2.772-3.904-2.772-6.332 0-2.336.971-4.383 2.772-6.143 1.925-1.68 4.055-2.577 6.568-2.577m7.171 72.585c0 2.76.474 4.582 1.521 5.366 1.011.857 2.461 1.383 4.157 1.658 1.702.223 2.941.589 3.685 1.097.737.468 1.092 1.406 1.092 2.891 0 1.875-1.719 2.887-5.047 2.887-1.427 0-3.579-.149-6.537-.472-2.907-.347-5.008-.438-6.358-.438-1.42 0-3.432.174-6.118.605-2.643.394-4.661.598-5.988.598-1.315 0-2.458-.4-3.392-1.113-1.006-.726-1.422-1.726-1.422-2.948 0-.731.256-1.378.772-1.927.545-.547 1.831-.971 4.007-1.296 2.128-.31 3.538-1.024 4.433-2.018.812-1.005 1.257-3.424 1.257-7.275v-28.257c0-2.298-.577-3.921-1.603-4.67-1.005-.822-2.625-1.324-4.602-1.737-2.081-.418-3.287-.958-3.847-1.549-.51-.641-.738-1.41-.738-2.377 0-.983.404-1.839 1.298-2.504.837-.654 1.831-.994 2.93-.994 1.065 0 2.42.19 4.358.634 1.759.459 3.123.568 4.011.568.925 0 2.493-.059 4.527-.43 2.012-.307 3.568-.473 4.492-.473 2.169 0 3.258 1.725 3.258 5.198 0 .533 0 1.316-.077 2.214-.069.959-.069 1.57-.069 1.868z" fill="#fff" fill-rule="nonzero"/><path d="m270.926 119.817c2.539 0 4.884.976 6.784 2.845 1.908 1.822 2.919 4.056 2.919 6.606 0 2.298-.942 4.229-2.853 5.799-1.943 1.58-4.101 2.378-6.691 2.378-2.609 0-4.802-.881-6.727-2.576-1.802-1.81-2.772-3.904-2.772-6.332 0-2.336.971-4.383 2.772-6.143 1.925-1.68 4.055-2.577 6.568-2.577zm7.171 72.585c0 2.76.474 4.582 1.521 5.366 1.011.857 2.461 1.383 4.157 1.658 1.702.223 2.941.589 3.685 1.097.737.468 1.092 1.406 1.092 2.891 0 1.875-1.719 2.887-5.047 2.887-1.427 0-3.579-.149-6.537-.472-2.907-.347-5.008-.438-6.358-.438-1.42 0-3.432.174-6.118.605-2.643.394-4.661.598-5.988.598-1.315 0-2.458-.4-3.392-1.113-1.006-.726-1.422-1.726-1.422-2.948 0-.731.256-1.378.772-1.927.545-.547 1.831-.971 4.007-1.296 2.128-.31 3.538-1.024 4.433-2.018.812-1.005 1.257-3.424 1.257-7.275v-28.257c0-2.298-.577-3.921-1.603-4.67-1.005-.822-2.625-1.324-4.602-1.737-2.081-.418-3.287-.958-3.847-1.549-.51-.641-.738-1.41-.738-2.377 0-.983.404-1.839 1.298-2.504.837-.654 1.831-.994 2.93-.994 1.065 0 2.42.19 4.358.634 1.759.459 3.123.568 4.011.568.925 0 2.493-.059 4.527-.43 2.012-.307 3.568-.473 4.492-.473 2.169 0 3.258 1.725 3.258 5.198 0 .533 0 1.316-.077 2.214-.069.959-.069 1.57-.069 1.868z" fill="none" stroke="#fff" stroke-width="1.47"/><path d="m380 78.579c0 3.696-2.983 6.652-6.68 6.652-3.679 0-6.655-2.956-6.655-6.652 0-3.676 2.977-6.658 6.655-6.658 3.697 0 6.68 2.982 6.68 6.658z" fill="none" stroke="#231f20" stroke-width="2.17"/><path d="m370.56 75.091h3.07c.478 0 .954 0 1.403.205.667.268 1.041.982 1.041 1.701 0 1.115-.719 1.726-1.9 1.87v.022c.311.149.755.401 1.292 1.245l1.194 1.881h-1.152l-.896-1.432c-.982-1.545-1.303-1.603-2.046-1.603h-1.065v3.035h-.941zm.942 3.073h1.954c.426 0 .719 0 1.118-.178.357-.152.584-.587.584-.989 0-.397-.227-.786-.538-.941-.268-.125-.562-.166-.953-.166h-2.164v2.274z" fill="#231f20" fill-rule="nonzero"/></svg>