<svg clip-rule="evenodd" fill-rule="evenodd" stroke-linejoin="round" stroke-miterlimit="2" viewBox="0 0 560 400" xmlns="http://www.w3.org/2000/svg"><g fill-rule="nonzero"><path d="m129.94 281.959v-86.694l1.005.018h11.078l1.012.004v87.684h-13.087" fill="#231f20"/><path d="m136.326 176.634c-14.578 0-26.395-11.821-26.395-26.403s11.817-26.403 26.395-26.403c14.586 0 26.403 11.821 26.403 26.403s-11.817 26.403-26.403 26.403m0-62.736c-20.053 0-36.326 16.269-36.326 36.333 0 20.061 16.273 36.326 36.326 36.326 20.068 0 36.334-16.265 36.334-36.326 0-20.064-16.266-36.333-36.334-36.333" fill="#ed1846"/><g fill="#231f20"><path d="m389.173 195.497 25.666 62.225 24.883-62.257 20.26-.011.018 87.517h-13.294v-66.785l-27.756 66.771h-8.567l-27.963-66.771v66.785h-13.137v-87.474"/><path d="m306.869 273.487c-19.085 0-34.545-15.471-34.545-34.548 0-19.085 15.46-34.549 34.545-34.549s34.545 15.464 34.545 34.549c0 19.077-15.46 34.548-34.545 34.548m0-81.72c-26.051 0-47.167 21.113-47.167 47.172 0 26.043 21.116 47.163 47.167 47.163 26.058 0 47.168-21.12 47.168-47.163 0-26.059-21.11-47.172-47.168-47.172"/><path d="m232.051 257.504c-6.023 8.915-16.277 14.796-27.934 14.796-18.541 0-33.562-14.872-33.562-33.216 0-18.348 15.021-33.221 33.562-33.221 11.741 0 22.067 5.972 28.068 15.007h13.642c-7.039-18.218-23.21-27.404-42.015-27.404-25.307 0-45.821 20.419-45.821 45.618 0 25.191 20.514 45.614 45.821 45.614 18.722 0 32.995-8.189 41.917-27.194"/></g></g></svg>