<svg clip-rule="evenodd" fill-rule="evenodd" stroke-linejoin="round" stroke-miterlimit="2" viewBox="0 0 560 400" xmlns="http://www.w3.org/2000/svg"><g fill-rule="nonzero" transform="matrix(1.24292 0 0 1.24292 561.597 171.938)"><path d="m-148.09-75.421-.401-2.982-2.889-.842c-24.394-7.085-49.642-10.677-75.046-10.677h-.319c-25.393 0-50.63 3.592-75 10.677l-2.889.842-.401 2.982c-1.494 11.183-5.533 51.234 5.33 97.034 9.538 40.226 27.491 72.03 53.466 94.854.593 10.357 9.177 18.61 19.686 18.61 10.508 0 19.099-8.265 19.68-18.634 25.963-22.824 43.911-54.617 53.454-94.831 10.869-45.811 6.823-85.857 5.33-97.034" fill="#fff"/><path d="m-237.31 1.899v-.297c-.076-.203-.227-.558-.308-.767-.744-1.784-1.982-4.772-1.959-8.585.006-1.627.384-3.068.924-4.312-.86.046-1.72.064-2.58.116v14.013c1.307-.076 2.615-.116 3.923-.169m-18.57 4.179c.058.099.128.192.174.297l.105.244c.093.215.134.447.122.68l3.545-1.145c.308-.389.692-.703 1.134-.913.424-.209.912-.319 1.4-.319 1.25 0 2.366.697 2.918 1.819.157.331.256.68.302 1.029 1.326-1.302 3.319-2.098 4.947-2.558v-3.144c-4.888.279-9.776.692-14.647 1.25zm14.647-46.055v13.996c.529-.029 1.052-.04 1.581-.069 3.813-3.685 7.747-4.406 10.253-4.406 1.447 0 2.371.25 2.476.279l.145.041c.076.023.151.058.227.087v-10.334c-.058 0-.116-.006-.174-.006-4.842 0-9.678.14-14.507.413m-25.765 30.822c.284.215.621.436 1.04.651l.244.128c.331.162.581.441.721.778l.104.262c.146.349.523 1.377.587 2.586l.361.198c.482.256.784.756.796 1.296l.023.843 1.645 2.958c.128-.046.267-.07.407-.075l.418-.024c1.465 0 2.738.773 3.383 2.081l.116.239c.111.215.14.459.14.697.377-.041.755-.099 1.133-.145v-14.013c-3.714.424-7.422.959-11.119 1.54m11.119-1.54c4.871-.558 9.759-.977 14.647-1.25v-2.801l-2.976.79c-.128.035-.255.052-.383.052-.436 0-.861-.191-1.151-.529-.378-.441-.471-1.063-.238-1.592l.639-1.441c1.255-2.866 2.656-5.109 4.109-6.87v-1.645c-4.888.279-9.776.697-14.647 1.255zm-14.519 11.834-.046-.041v4.307c.587-.099 1.174-.18 1.761-.279zm-.046-37.785v14.007c4.835-.837 9.694-1.535 14.565-2.087v-14.007c-4.871.552-9.73 1.25-14.565 2.087m-13.566 19.965c.296 3.568.645 7.09 1.057 10.572 3.122-.698 6.249-1.331 9.387-1.918-.035-.268-.023-.541.081-.791l.768-1.802c.25-.563.802-.912 1.4-.912.128 0 .256.012.384.046l.488.128v-11.281c-4.621.791-9.218 1.726-13.798 2.773.076 1.069.151 2.133.233 3.185m60.231-9.201c.5-.192.854-.29.965-.325l.47-.134c-.505-.006-1.011-.012-1.517-.017.052.157.082.313.082.476m-16.524 46.945c-.163.175-.279.343-.326.436l-.07.145c-.104.21-.261.39-.447.535l-.087.064v7.864c-1.697.093-3.389.232-5.086.36.872 1.785 1.784 3.668 2.732 5.632.744-2.168 1.569-4.033 2.354-5.579v-.407c.069-.006.139-.006.215-.012 1.104-2.127 2.104-3.592 2.615-4.295l.297-2.075c-.314-.767-1.215-1.796-2.197-2.668m41.388-46.991c-.059-.232-.099-.447-.128-.639l-.564-1.517c-.11-.291-.128-.605-.052-.901l.058-.227c.198-.767.721-1.412 1.54-1.9l.087-2.819-.273-.942c-.035-.116-.058-.232-.064-.349l-.006-.093c-1.738-.953-2.807-2.301-3.057-3.801-3.493-.343-6.992-.639-10.491-.842v13.978c4.231.244 8.462.61 12.682 1.057-.029-.36.058-.714.267-1.005m-20.819 29.369c.564.134 1.18.285 1.622.389.418-.145 1.47-.581 4.068-1.836.018-.006.024-.012.035-.018-2.017-.099-4.028-.186-6.039-.232zm9.782-3.621 2.999-3.301c.285-.314.698-.494 1.122-.494.006 0 .761.011.761.011l1.959-1.476c.401-1.302 1.215-3.179 2.412-5.603-3.72-.372-7.44-.692-11.165-.901v12.874c.494-.279 1.162-.668 1.912-1.11m-63.567 20.029c-.773-1.581-.11-3.522 1.494-4.313.459-.215.924-.319 1.401-.319h.017l.163-.105v-9.706c-3.534.61-7.05 1.319-10.561 2.075.773 4.58 1.662 9.061 2.656 13.449 1.627-.332 3.266-.645 4.9-.953-.024-.041-.047-.082-.07-.128m55.884-34.367c.035.424.017 1.057-.012 1.615.145.297.244.553.302.721 1.825.064 3.656.128 5.481.238v-14.036c-1.901-.11-3.795-.18-5.696-.244 0 .006.006.006.006.012l.192.779c1.046 4.155.07 8.172-.477 9.915.111.332.175.669.204 1m-67.281-19.256v.052c4.8-1.116 9.625-2.092 14.472-2.923v-.029c-4.854.831-9.678 1.796-14.472 2.9m29.038-4.964v.006c.145-.017.296-.035.441-.052-.145.017-.296.029-.441.046m-29.038 5.173v-.157h-.006c0 .053.006.105.006.157m112.8 41.04c.755-4.44 1.395-8.974 1.941-13.589-4.144-.93-8.3-1.772-12.473-2.493v14.013c3.522.61 7.033 1.313 10.532 2.069m-32.664 46.672.023.081c.023.099.035.198.041.303v.081c.006.099.052 1.505-.198 4.01 2.569.221 5.132.471 7.695.767v-14.007c-3.26-.371-6.521-.656-9.787-.906.866 4.057 1.813 8.015 2.226 9.671m22.255-6.655c-.047-.011-.087-.017-.122-.023v.355c.04-.111.075-.221.122-.332m-14.693 25.928c.877.105 1.761.233 2.644.343 2.383-4.214 4.609-8.584 6.673-13.112-3.104-.471-6.208-.901-9.317-1.261zm0-42.063v-14.007c-3.22-.372-6.44-.656-9.666-.901l-.459 6.911c0 .076-.012.151-.029.227-.023.081-.732 3.44-1.139 6.765 3.766.262 7.532.581 11.293 1.011v14.019c4.87.558 9.729 1.25 14.571 2.087v-14.019c1.482.256 2.958.552 4.44.831 1.262-4.342 2.407-8.794 3.441-13.351-2.621-.541-5.248-1.04-7.881-1.494v14.013c-4.842-.837-9.701-1.528-14.571-2.092m-14.647 52.745v2.087c2.999.174 5.992.412 8.98.691 1.97-2.795 3.859-5.667 5.667-8.631v-4.83c-3.499-.395-7.004-.703-10.514-.959-1.442 5.092-2.947 8.968-4.133 11.642m24.161-107.54.093 3.185v.099c-.145 4.045-.761 7.637-1.453 10.532 2.139.314 4.278.645 6.417 1.011v-14.031c-1.686-.29-3.365-.54-5.057-.796m-68.839 54.884c-2.296-4.772-4.185-8.747-5.37-11.252l-1.732-.732-4.801 1.395c-.227.209-.477.378-.761.511-.372.18-.803.279-1.238.302v11.775c-1.494.256-2.982.553-4.464.832 1.313 4.527 2.755 8.933 4.318 13.211.047-.006.093-.018.145-.024v-14.019c4.615-.796 9.253-1.458 13.903-1.999m60.284-26.939-.186 1.354c-.058.413-.279.779-.621 1.023l-.152.11v10.351c4.871.553 9.73 1.25 14.571 2.087v-14.031c-4.295-.738-8.602-1.354-12.915-1.871zm28.061-38.203c-4.789-1.11-9.607-2.081-14.449-2.918v13.972c4.604.791 9.201 1.721 13.769 2.767.32-4.47.553-9.09.68-13.821m-87.682 79.074c-4.87.558-9.729 1.249-14.565 2.086v.419c1.175 3.202 2.418 6.341 3.732 9.404.488 1.133.994 2.244 1.499 3.359 3.104-.476 6.214-.906 9.335-1.261zm0 32.908v-4.871c-.889.105-1.778.233-2.667.343.866 1.535 1.761 3.034 2.667 4.528m13.542-7.957c-1.546-3.952-2.609-7.928-3.202-11.886-3.447.25-6.899.552-10.34.942v14.031c4.452-.506 8.916-.884 13.385-1.163.046-.773.11-1.441.157-1.924m28.578 17.617c.11 1.343.139 2.372.105 3.174l.807.558.983.703v-6.196c-.32-.017-.64-.023-.959-.04-.384.79-.709 1.395-.936 1.802m-42.121-55.128v12.56c1.941-.221 3.888-.407 5.835-.582-2.081-4.219-4.062-8.299-5.835-11.979m42.44 67.316c.529-.587 1.052-1.174 1.575-1.778v-.012c-.523.599-1.046 1.197-1.581 1.79zm-27.794-1.743v-.006c-.035-.047-.076-.088-.111-.128.035.04.07.087.111.133m-5.08-11.851c-1.308.105-2.615.215-3.923.338 1.953 2.766 3.993 5.446 6.103 8.049l2.9-2.4v-.128c-.273-.18-.587-.383-.959-.622-2.319-1.435-3.511-3.493-4.121-5.236" fill="#87192e"/><path d="m-213.82 93.091-1.651-1.139c.14-.657.18-1.912-.034-4.394.674-1.139 4.487-7.94 7.468-20.744 1.767-7.585 1.616-11.961 1.61-12.142 0-.035-.006-.076-.017-.116-.041-.169-4.185-16.913-4.057-20.993.122-4.104 1.43-10.229 1.453-10.375l.558-8.341 6.544-6.573 3.621-2.593c.122-.087.21-.226.227-.377l.198-1.448 4.899-6.858c.018-.029.035-.058.053-.093.133-.296 3.278-7.375 3.626-17.105l-.162-5.8c0-.064-.012-.122-.035-.181l-.692-1.888-.43-4.656c-.023-.256-.221-.465-.482-.5l-.448-.058-.012-.482.558-1.32.186-.842c1.662-.378 2.831-1.204 3.226-2.256.244.256.384.419.384.425.127.157.331.232.534.192.198-.035.366-.181.43-.372.646-1.918 3.284-2.011 3.807-2.011h.122c.215.017.39-.088.5-.256.105-.169.116-.384.023-.564l-.924-1.755c-.145-.273-.476-.378-.749-.239-.494.256-1.297.14-1.645.024-.942-1.994-2.627-2.866-2.703-2.901-.11-.058-.232-.075-.349-.052-.302.052-.587.081-.848.081-1.273 0-1.883-.621-2.587-1.336-.68-.692-1.447-1.477-2.824-1.477-2.825 0-5.539 2.726-5.65 2.842-.145.146-.197.361-.139.553.372 1.209 1.145 2.214 1.871 2.941-.802.534-1.278 1.226-1.365 2.005-.157 1.418 1.034 2.83 3.063 3.661l.058 1.018c0 .046.006.087.017.127l.332 1.122-.134 4.208c-.087-.006-.169.006-.25.035-.343.139-1.151.517-1.308 1.11-.029.111-.017.227.023.337l.558 1.488c.024.227.105.831.361 1.337l-.32.43c-.099.128-.134.291-.099.448.024.133.273 1.278.808 2.057l-.099 3.011-.709.976c-.093.128-.122.285-.093.436s.122.285.256.366c0 .006.622.419.57 1.401-.006.075.006.145.029.215.012.041.104.285.36.511-2.191 4.04-4.76 9.05-5.324 11.363l-2.889 2.174-.982-.011c-.157.017-.314.063-.418.186l-2.947 3.237c-1.331.79-2.807 1.639-3.127 1.778-.145.029-.389.146-1.308.587-1.261.611-4.225 2.046-4.859 2.046-.656-.145-2.33-.552-3.063-.732l-.819-4.429c.401-.488 1.145-1.43 1.325-1.877.192-.494.982-4.923 1.221-6.271.011-.07.011-.146-.006-.221l-.221-.971.779-2.255c.034-.11.04-.233.006-.343-.018-.058-.163-.529-.448-.988.023-.419.081-1.372.041-1.86-.035-.442-.204-.843-.326-1.093.39-1.069 1.726-5.242.645-9.555-.035-.151-.133-.279-.267-.354-.134-.07-.297-.088-.442-.041-.157.046-1.215.395-2.069 1.017-.029-.035-.07-.064-.105-.093-.133-.081-.302-.11-.453-.064-.134.035-3.15.895-4.557 2.883-.325-.157-.796-.483-.999-1.157.639-.389 1.865-1.307 2.342-2.842.041-.139.029-.29-.035-.418-.087-.175-.883-1.744-1.575-2.325-.058-.058-.134-.093-.209-.116-.035-.006-.796-.215-2.005-.215-3.406 0-9.8 1.557-14.385 11.973-.088.191-.053.424.087.587.139.162.36.232.569.174l4.406-1.168c.128-.035.244-.117.32-.227 1.319-1.947 3.208-2.162 3.958-2.162 1.058 0 1.866.378 2.168.796-.378.529-1.145 1.715-1.442 3.034-.825.651-4.126 3.528-4.155 7.998-.018 3.475 1.139 6.259 1.825 7.922.203.494.436 1.052.441 1.209 0 .278.204.511.477.552.68.104 1.418.319 1.622.424-.053 1.43-.198 3.051-.361 3.679-.918.087-3.47.326-4.754.331-.57.093-5.464.936-6.922 3.307l-2.11.628c-.494.233-2.883 1.407-3.522 2.656l-1.285.779-1.778-.639 4.789-3.429c.25.011.494-.035.709-.14.761-.366 1.081-1.279.715-2.046-.361-.738-1.32-1.058-2.04-.709-.337.163-.599.448-.738.802l-6.301 2.04-.058-.064c.087-.238.168-.47.168-.47.047-.122.053-.256.006-.384-.116-.337-.273-.575-.424-.738l.157-.541c.029-.122.023-.25-.029-.372-.093-.226-.343-.453-.732-.68l-.14-.656c-.017-.082-.058-.163-.116-.233-.221-.279-.511-.459-.761-.569l.273-1.262c.029-.122.012-.255-.046-.372-.413-.831-1.186-1.127-1.837-1.127h-.006c-.157.011-.296.081-.395.197l-.355.425-.837-.082-2.592-4.644-.017-.825c-.006-.203-.117-.384-.297-.477l-.918-.494c.221-1.36-.384-2.877-.413-2.946-.052-.128-.145-.227-.267-.291-1.877-.953-2.685-2.174-2.697-2.185-.07-.117-.192-.204-.325-.239l-.983-.261c-.267-.07-.546.069-.656.325l-.401.924c-.053.128-.059.274-.012.401 0 .018.453 1.413.046 3.476-.029.134-.006.267.064.384.035.069.854 1.488 2.058 2.15l-.186 1.029c-.035.198.04.401.197.529l.639.529 2.285 5.295-.483.924c-.029.058-.046.122-.058.186l-.895 6.771c-.006.07-.006.14.017.209.151.605.43 1.145.82 1.599l-2.877 1.929c-.36-.11-.744-.087-1.087.082-.372.18-.645.494-.779.883-.128.384-.104.796.076 1.157.348.732 1.325 1.057 2.034.709.221-.105.407-.262.558-.471l5.847-1.703 2.889 1.226c2.696 5.702 9.462 19.93 16.274 33.495.151 5.853 1.424 11.816 3.783 17.721-.122 1.081-.79 7.585.396 11.322-1.709.512-3.993 1.151-4.54 1.192-.29.023-.517.267-.517.558 0 .192.046 4.737 3.958 7.166 1.93 1.197 2.598 1.848 2.825 2.133l-4.487 3.714c-.035.023-.052.058-.076.087 1.174 1.413 2.372 2.796 3.592 4.15 3.464-2.993 7.957-4.818 12.886-4.818 4.917 0 9.41 1.825 12.868 4.807 1.302-1.459 2.592-2.941 3.848-4.452zm-22.952-66.619c-.674.872-4.44 5.998-6.422 14.403-2.819-5.894-5.894-12.211-9.149-18.814l4.371-.337.947.546c.076.041.157.07.244.076h.181c.552 0 2.481-.105 4.277-1.43.076-.052.134-.122.169-.203.006-.012.668-1.308 1.988-1.756 1.098.831 3.388 2.866 3.807 4.638zm-23.894-97.696c-.157 5.399-.314 10.799-.477 16.193.791-.105 1.576-.203 2.366-.296.302-.367.593-.727.895-1.087.122-4.743.25-9.48.378-14.217-.279-.297-.558-.587-.831-.884-.779.099-1.552.192-2.331.291m108-3.586c-24.138-7.016-49.031-10.514-73.919-10.497-24.876-.018-49.746 3.481-73.867 10.497-4.731 35.338-5.37 129.9 54.739 185.49.604-2.499 1.685-4.813 3.144-6.841-11.543-12.729-21.063-27.712-28.387-44.73-9.41-21.86-15.356-47.23-17.657-75.418-.558-6.8-.895-13.897-1.017-21.098 28.869-7.079 58.633-9.207 88.037-6.394-.099-.244-.192-.488-.267-.732l-.128-.43c-.163-.529-.023-1.11.366-1.505l.314-.32c.337-.343 3.389-3.348 6.87-3.348 2.098 0 3.272 1.192 4.045 1.982.628.639.837.825 1.366.825.163 0 .349-.017.552-.052l.244-.046c.088-.012.175-.024.268-.024.238 0 .471.058.68.169l.227.11c.191.099 1.784.93 2.97 2.784l.488-.238c.226-.11.459-.163.686-.163.546 0 1.069.291 1.342.802l1.68 3.174c5.487.988 10.956 2.15 16.39 3.487-.122 6.951-.442 13.827-.971 20.453-2.261 28.282-8.177 53.757-17.582 75.709-7.341 17.128-16.896 32.194-28.497 44.992 1.465 2.023 2.546 4.336 3.156 6.835 60.086-55.593 59.464-150.14 54.727-185.48m-127.46 6.603c-.779.163-1.552.331-2.33.5-.268 5.614-.535 11.229-.797 16.844.785-.181 1.575-.349 2.366-.512-.047 1.11-.105 2.22-.151 3.336-2.912.616-5.813 1.285-8.701 2 .058-1.116.116-2.232.174-3.348.785-.198 1.57-.384 2.354-.575.285-5.621.57-11.241.855-16.867-.779.18-1.552.366-2.325.558.058-1.116.116-2.232.174-3.354 2.836-.686 5.679-1.325 8.532-1.918-.046 1.11-.104 2.226-.151 3.336m12.328 17.721c-1.127.175-2.255.36-3.383.558-1.331-4.44-2.644-8.875-3.94-13.298-.192 4.702-.384 9.41-.581 14.112-1.169.227-2.349.453-3.523.698.349-7.835.692-15.664 1.035-23.493 1.098-.221 2.203-.431 3.301-.64 1.285 4.348 2.592 8.707 3.912 13.072.174-4.62.349-9.241.523-13.856 1.151-.197 2.307-.383 3.464-.564-.267 7.8-.535 15.606-.808 23.411m13.891-4.649c-.895 1.04-1.79 2.081-2.691 3.127-2.888.325-5.771.703-8.654 1.133.256-7.8.511-15.6.761-23.394 2.825-.413 5.655-.773 8.486-1.087.831.849 1.668 1.709 2.505 2.563-.139 5.888-.273 11.77-.407 17.657m9.259-5.074c-.041 2.378-.076 4.755-.116 7.126-1.331.093-2.662.192-3.999.302.046-2.377.093-4.754.134-7.131-1.337-5.272-2.651-10.543-3.947-15.803 1.372-.134 2.755-.262 4.133-.372.651 3.557 1.319 7.114 1.987 10.677.866-3.673 1.727-7.341 2.575-11.008 1.261-.082 2.517-.151 3.772-.215-1.493 5.463-3.01 10.938-4.539 16.425m10.375 6.637c.052-7.765.099-15.524.151-23.283 3.104-.087 6.202-.11 9.305-.081.006 1.273.006 2.546.006 3.818-1.79-.017-3.574-.017-5.364 0-.006 1.901-.012 3.802-.018 5.702 1.634-.017 3.261-.023 4.894-.006.006 1.267.006 2.54.006 3.813-1.639-.017-3.272-.011-4.911.006 0 2.046-.012 4.092-.018 6.143 1.837-.023 3.662-.023 5.499-.005 0 1.272 0 2.539.006 3.812-3.185-.029-6.37-.005-9.555.082m12.281-.035c-.029-7.765-.059-15.524-.093-23.283 1.325.023 2.638.064 3.958.11.052 6.487.098 12.984.145 19.471 1.54.058 3.08.128 4.621.21.012 1.272.029 2.545.04 3.818-2.882-.157-5.783-.267-8.671-.325m10.427.424c-.099-7.765-.204-15.53-.302-23.301 3.097.186 6.195.43 9.282.726.029 1.273.058 2.546.081 3.825-1.779-.174-3.563-.326-5.341-.465.023 1.906.058 3.807.087 5.713 1.627.122 3.26.262 4.882.413.023 1.273.052 2.551.076 3.824-1.628-.157-3.267-.296-4.894-.424.035 2.052.07 4.098.099 6.149 1.825.146 3.655.303 5.48.483.029 1.273.059 2.545.076 3.818-3.168-.314-6.347-.563-9.526-.761m20.093 2.023c-1.947-.274-3.894-.524-5.847-.756-1.215-7.899-2.406-15.792-3.58-23.673 1.336.139 2.673.285 4.004.442.837 6.643 1.668 13.298 2.523 19.953.505-6.487.994-12.961 1.476-19.447 1.244.168 2.482.343 3.72.529-.744 7.648-1.511 15.303-2.296 22.952m4.539.674c-.261-7.8-.523-15.6-.784-23.406 3.08.482 6.143 1.011 9.206 1.598.053 1.285.105 2.563.157 3.848-1.767-.343-3.528-.663-5.295-.965.064 1.912.14 3.824.209 5.736 1.61.279 3.22.57 4.83.878.053 1.285.105 2.563.157 3.842-1.61-.308-3.226-.605-4.847-.884.076 2.058.151 4.121.227 6.185 1.813.313 3.621.645 5.428.999.053 1.285.105 2.563.157 3.842-3.138-.616-6.289-1.174-9.445-1.674m20.133 4.011c-1.732-5.086-3.446-10.142-5.138-15.181.215 4.713.431 9.427.651 14.147-1.174-.262-2.342-.512-3.516-.756-.337-7.835-.674-15.664-1.011-23.493 1.098.221 2.197.453 3.289.692 1.686 4.957 3.383 9.927 5.092 14.926-.227-4.644-.459-9.288-.692-13.932 1.151.273 2.284.546 3.429.831.407 7.864.82 15.728 1.233 23.592-1.116-.279-2.226-.558-3.337-.826" fill="#14213a"/><path d="m-215.47 96.544c-.012 0-.023-.006-.035-.017-.546-.372-1.093-.709-1.621-1-.018-.012-.029-.029-.035-.047-.006-.017-.006-.04.006-.058.174-.296.395-.494.674-.604h.029c.012 0 .023 0 .035.006l.616.314 1.162.546c.023.006.041.029.041.058 0 .023-.012.047-.029.064-.209.151-.552.483-.791.715-.011.012-.029.023-.052.023m-21.052-.715c-.023 0-.041-.012-.052-.029l-.314-.337-.477-.715c-.012-.017-.012-.04-.006-.064.012-.023.029-.04.053-.046l.761-.169v-.069l.006-.024c.006-.133.023-.372-.04-.598-.006-.018-.006-.041.006-.058.011-.018.029-.029.046-.035l.767-.151.215-.616c.012-.029.041-.047.07-.047h.012l.61.087.175-.529c.006-.023.029-.046.058-.046l.813-.139-.761-2.866-1.691-.099c-.018 0-.035-.006-.047-.017-1.296-1.221-2.377-3.54-2.679-4.22-.012-.029-.006-.058.012-.081.012-.012.035-.023.052-.023.006 0 .018 0 .023.006l1.459.517c.163-1.447-1.29-2.488-1.743-2.772-.024-.018-.035-.047-.035-.076.012-.029.035-.052.064-.058.151-.023.314-.041.482-.041 2.203 0 5.034 2.25 5.063 2.273 0-3.412-2.935-8.922-2.965-8.974l-1.784-1.784c-.017-.018-.023-.047-.017-.07l.912-3.743c.012-.029.041-.052.07-.052h.012c.035 0 .064.029.064.063.076 1.314.395 2.843.407 2.907 1.447.953 2.639 3.01 2.766 3.243.006.006.006.011.006.017.593 2.418 3.087 4.819 3.371 5.086.012.011.024.029.024.046.25 3.819 2.882 6.911 2.912 6.946 1.836.843 3.591 3.609 4.26 4.76.012.029.012.058-.006.081-.012.018-.035.029-.058.029h-.012c-.599-.093-1.227-.151-1.872-.186-.012 0-.023-.006-.029-.011-.453-.227-.784-.442-.877-.506-.012-.006-.024-.023-.029-.041-.75-2.598-4.813-4.615-5.272-4.835-.017-.006-.029-.018-.035-.029-1.185-2.197-4.161-3.122-4.19-3.133-1.413 1.697.598 3.894.622 3.917l1.383.14c.029 0 .052.017.058.046l1.04 2.633c.773-.087 1.546-.907 1.692-1.07.017-.017.035-.023.058-.023h.012c2.575.547 3.51 2.279 3.737 2.796.012.023.006.052-.006.07-.012.023-.035.034-.058.034-.087.006-.175.012-.268.018h-.11c-1.343 0-2.697.227-4.016.674-1.639.453-3.203 1.116-4.667 1.982-.012.006-.024.012-.035.012m18.471-.767c-.012 0-.023 0-.035-.006-1.029-.494-2.081-.895-3.127-1.192-.029-.006-.046-.029-.052-.058s.006-.052.029-.07c.395-.267 1.133-.61 2.423-.738.006-.006.012-.006.018-.006.017 0 .035.012.052.023l.488.518 1.099.744c.017.011.029.034.029.058 0 .029-.012.052-.035.064-.291.168-.599.407-.837.645-.017.012-.035.017-.052.017m-.128-2.592c-.006 0-.017 0-.023-.006-.884-.314-2.685-.628-2.889-.663-.012-.006-.023-.011-.035-.023-1.075-1.046-1.418-3.557-1.493-4.301-.006-.035.012-.064.041-.075.011-.006.017-.006.029-.006.017 0 .04.006.052.017l4.016 3.888c.349-1.79-1.79-3.318-2.226-3.609-.017-.012-.029-.029-.029-.052-.006-.018 0-.041.018-.058.558-.64 1.534-.774 2.249-.774.389 0 .691.041.773.053.017.006.035.012.046.023.488.564.797 1.238.913 1.994 0 .139-.012.279-.029.441 0 .035-.029.059-.058.07h-.012c-.029 0-.053-.017-.064-.04-.535-1.012-1.767-1.756-1.82-1.785l1.43 2.784c0 .006.006.018.006.023.035.309-.052.785-.238 1.366-.006.006-.006.012-.012.018-.244.36-.459.575-.599.697-.011.012-.029.018-.046.018m1.773-6.103c-.029 0-.058-.018-.064-.047-.791-1.894-1.761-4.208-2.25-5.335-.621-1.424-.941-5.179-1.052-6.725 0-.035.024-.07.064-.075h.012c.035 0 .064.023.07.058.401 1.592 1.418 5.434 2.244 6.742.54.866 1.226 2.662 1.708 4.016.006.023.006.041-.006.058-.244.488-.47.93-.662 1.267-.012.023-.035.041-.064.041zm-11.752-9.962c-.029 0-.058-.023-.07-.052l-2.087-6.179-1.145-8.782c0-.006 0-.012.006-.017.082-.494 2-12.147 1.808-14.228-.058-.082-1.534-1.942-2.743-2.511-.024-.012-.035-.035-.041-.064 0-.029.017-.052.041-.064.127-.076.325-.209.563-.389-.006-.047-.406-4.354-.778-6.144-.25-1.162-2.505-5.423-4.36-8.788-.011-.023-.011-.052.006-.075.384-.622.704-1.087.901-1.366.012-.018.035-.029.059-.029.029 0 .046.011.064.034.836 1.302 2.057 2.959 3.26 3.674.064.04.093-.146.093-.146l-2.174-5.108c-.012-.035 0-.07.029-.093.012-.006.024-.012.041-.012.018 0 .041.012.052.029.924 1.133 3.121 4.045 3.65 6.626.645 3.127 5.632 20.191 5.842 20.918.006.023.006.052-.018.07-.012.011-.029.023-.052.023h-.012c-.221-.047-.802-.145-1.395-.145-.988 0-1.598.273-1.761.79l.546 2.121c0 .012.006.018.006.024l-.255 19.808c-.006.035-.029.069-.064.075zm-3.453-5.237c-.023 0-.052-.011-.064-.041l-21.191-43.056 12.025 27.166c.018.035 0 .076-.034.093-.012.006-.024.006-.029.006-.029 0-.059-.011-.07-.04l-19.285-39.203c-.006-.018-.006-.035 0-.059.006-.017.017-.029.035-.04l2.598-1.261c.006 0 .011 0 .017-.006l.186-.047h.017c.029 0 .053.018.064.041.645 1.302 9.84 20.203 13.659 28.201.117.244 11.281 23.841 12.147 28.16.006.041-.017.076-.052.087h-.023m12.299-5.841c-.018 0-.035-.006-.047-.012-.023-.017-.034-.046-.023-.075l.529-2.209c0-.011.012-.029.023-.041.192-.145 1.866-1.47 2.25-2.795.011-.035.04-.052.069-.052h.012c.035 0 .064.029.064.064.064 1.301-.221 3.69-2.842 5.114-.012.006-.023.006-.035.006m9.747-.128h-.017c-.035-.006-.064-.041-.058-.081.157-1.401.377-3.947.145-5.266l-6.358-3.232c-.012 0-2.197.053-2.197.053-.024 0-.041-.012-.053-.024-.221-.22-5.341-5.387-6.602-11.002-.006-.029.006-.058.029-.075.011-.012.029-.018.046-.018.012 0 .023.006.035.012l1.517.802c.012.006.023.018.029.029l2.429 4.272c.023.018 1.808 1.738 3.79 1.738 1.121 0 2.098-.541 2.9-1.61l-8.027-6.347c-.006-.006-.011-.012-.017-.017-.291-.431-7.19-10.549-8.352-14.536-.006-.03 0-.059.023-.076.018-.012.029-.017.047-.017.011 0 .029.005.04.011.483.326 1.651 1.157 2.063 1.819.006.006.006.012.006.018.041.174.948 4.208 4.052 4.208.43 0 .883-.076 1.36-.227-.326-.343-7.951-8.457-10.84-10.473-.029-.023-.035-.064-.024-.093.012-.029.041-.041.07-.041.006 0 .012 0 .018.006l1.342.448s.146.006.099-.064c-.203-.25-.651-.796-1.011-1.151-.024-.023-.029-.064-.012-.093.017-.023.04-.035.064-.035.006 0 .017.006.029.006 1.191.477 5.271 2.034 7.59 2.034.111 0 .175-.093-.011-.192-1.122-.592-4.72-2.441-6.243-2.772-.029-.012-.058-.041-.058-.07 0-.035.023-.064.058-.075.367-.093 1.087-.244 1.767-.244.244 0 .465.017.657.052l.918-.721c.012-.011.029-.017.047-.017.593.017 5.3.186 7.724 1.395.314.157.587.273.105-.076-1.017-.732-3.191-1.918-6.899-2.232-.041-.006-.07-.035-.07-.075 0-.035.029-.07.07-.07.732-.07 1.889-.157 3.255-.157 3.033 0 7.247.413 10.084 2.371.064.047 1.726 1.122 2.853 3.959.006.011.006.029.006.04-.401 2.499-.633 4.598-.685 6.237-.128 4.26 3.911 20.569 4.086 21.261v.017c.006.343.029 3.528-.965 8.776-.006.006-.006.018-.012.024-.326.488-.576.994-.779 1.546-.006.029-.035.046-.064.046m-20.895-38.988 6.091 6.678-.017-1.761-3.935-3.359c-.018-.018-.023-.041-.023-.064s.017-.047.034-.058c.181-.099.651-.337 1.407-.523.105-.024.186-.093 0-.128-.732-.134-2.459-.465-3.447-.889-.145-.064-.11.104-.11.104m9.654 37.622c-.674 0-1.447-.633-1.749-.907-.024-.017-.029-.046-.024-.075.012-.029.035-.047.064-.052.535-.076 2.314-.419 2.72-1.57.012-.029.041-.052.07-.052h.012c.035.006.058.035.064.07.058.61.064 1.732-.54 2.336-.163.163-.372.25-.616.25m-.907-3.33c-.012 0-.023-.006-.035-.006-.43-.227-1.523-.767-2.412-.918-.023-.006-.046-.024-.058-.047l-1.552-3.569c-.012-.023-.006-.052.012-.069.012-.018.035-.029.058-.029h.012c.407.069 1.407.279 1.866.732.006.006.006.012.012.017l2.162 3.778c.012.029.006.064-.012.087-.018.018-.035.024-.053.024m.855-1.116c-.023 0-.047-.012-.064-.035-.477-.901-2.918-5.556-3.662-9.137-.006-.035.012-.07.047-.081.006-.006.017-.006.023-.006.029 0 .052.012.064.041.784 1.493 3.417 6.434 4.504 7.358.029.023.035.058.018.087l-.861 1.732c-.017.023-.04.041-.064.041zm-14.897-3.918c-.035 0-.064-.023-.07-.058-.436-1.61-2.592-9.88-2.418-14.094-.006-.029-.54-3.289-1.9-5.701-.012-.018-.012-.041-.006-.059.691-1.784 1.482-3.475 2.354-5.039.011-.023.04-.04.064-.04h.006c.029.005.052.023.064.052.732 2.185 1.883 5.103 3.219 6.568.012.011.018.029.024.046.017.529.406 13.037-1.267 18.273-.012.029-.035.053-.07.053zm23.975-33.089c-.012 0-.029-.005-.041-.011-1.162-.698-5.289-2.964-9.427-2.964-.715 0-1.412.064-2.063.197 0 0-3.04.343-3.046.343-.035 0-.064-.023-.07-.058-.012-.035.006-.07.041-.081l2.813-1.157h.023c.082-.006.395-.023.872-.023 1.075 0 3.214.081 5.411.633 2.441.605 4.307 1.616 5.539 2.999.023.024.023.064.006.093-.017.018-.035.029-.058.029m1.069-.267c-.017 0-.04-.012-.052-.029-1.395-1.575-4.51-4.225-9.776-4.225-.157 0-.32 0-.477.005-.04 0-.07-.029-.075-.064 0-.034.023-.069.058-.081l1.65-.383.029-.088-2.679-.482c-.029.006-2.557.372-4.26 1.685-.012.012-.029.012-.047.012-.012 0-.023 0-.034-.006-.024-.017-.041-.046-.035-.075l.087-.645s-.012-.099-.058-.076c-.547.227-3.778 1.662-6.359 4.034-.017.011-.035.017-.052.017s-.035-.006-.046-.017c-.029-.029-.029-.07-.006-.099.93-1.081 2.307-2.552 3.708-3.61.104-.081.122-.139.023-.093-.697.303-1.709.692-2.551 1.006-.256.099-.494.192-.704.273h-.029c-.023 0-.052-.011-.064-.035-.017-.035-.006-.075.029-.099l4.133-2.534 13.252-7.085s.04-.104-.012-.087c-1.907.605-9.654 3.075-11.491 3.958-.012.006-.023.012-.035.012s-.017-.006-.023-.006l-1.041-.401c-.029-.012-.046-.035-.046-.058-.006-.029.006-.058.035-.07.843-.517 3.696-2.197 4.853-2.278l1.587-1.157-.099-.04-2.157.72c-.052.012-4.376 1.087-5.463 2.122-.017.011-.035.023-.052.023-.006 0-.006 0-.012-.006-.512-.081-5.022-.831-6.022-2.249-.046.017-1.209.383-1.633 1.197-.012.023-.04.035-.064.035h-.017c-.029-.006-.052-.029-.058-.064-.082-.663-.407-2.296-1.773-3.185-.029-.018-.041-.052-.029-.081.006-.03.035-.053.07-.053 1.447-.04 4.272-.331 5.103-.418l.389-.047.204-.302c.017-.029.064-.186.116-.343.023-.075.046-.157.064-.209.012-.029.04-.047.07-.047h.017c.093.018.192.053.296.093.198.07.419.157.704.157.157 0 .313-.029.482-.081.029-.035.715-.953.68-1.965 0-.029.017-.052.041-.069.012-.006.023-.006.034-.006.018 0 .029.006.041.017.413.326 1.505 1.076 2.761 1.076.133 0 .267-.006.395-.024l-1.319-2.272c-.029-.024-.692-.535-1.14-.814-.029-.017-.04-.052-.034-.081.012-.029.034-.053.069-.053.07-.006.157-.011.25-.011.39 0 .994.052 1.674.319.018.006.029.012.041.029l1.668 2.802c.017-.006 1.738-.837 2.883-2.511.017-.023.041-.035.064-.035h.017c.029.012.047.035.053.064l.476 2.552c.006.035-.012.064-.04.081l-.669.32c-.012 0-.023.006-.035.006-.122-.006-.784-.035-1.621-.035-1.209 0-2.796.058-3.703.302-.064.017-.069.064.07.081.855.087 3.668.384 4.912.669.011 0 1.749-.314 3.219-.564h.03c.691.168 1.43.343 1.813.436l.087.017.186.006c.814 0 2.546-.761 5.458-2.174.012 0 .017-.005.029-.005.116-.006.227-.012.337-.012.918 0 1.622.25 2.034.715.029.023.058-.012.023-.134-.087-.285-.29-.79-.767-1.215-.017-.017-.023-.04-.023-.064 0-.023.017-.046.041-.058.61-.337 1.755-.988 2.935-1.691l.099-.058.215-.238c.012-.012.035-.024.052-.024h.012c.977.117 2.279.553 3.057 1.953.035.053.093.07.082-.087-.064-.68-.384-2.511-1.982-3.034-.023-.006-.041-.023-.047-.046-.011-.029 0-.053.012-.07l1.419-1.558c.011-.011.034-.023.052-.023h.012c.412.064 4.086.727 5.132 4.621.006.029 0 .058-.023.075l-.919.721c-.011.012-.029.017-.046.017h-.017c-.024-.005-.035-.023-.047-.046-.302-.709-1.092-2.383-2.017-3.057-.034-.029-.081-.012-.052.064.227.569 1.029 2.685.866 4.033-.006.018-.012.035-.029.047l-4.754 3.749c0 .029.093.662-.134 1.819 0 .023-.023.046-.046.058h-.023c-.018 0-.041-.006-.053-.023l-.994-1.087-1.092 1.191c-.024.018-1.233.965-1.849 2.215-.012.023-.035.04-.064.04-.006 0-.012-.005-.023-.005-.035-.012-.052-.041-.046-.082l.645-4.26h-.111l-2.191 2.29c-.017.017-.035.023-.052.023-.012 0-.023 0-.041-.011l-.854-.495c-.076.035-7.143 3.197-12.24 5.563-.093.04.046.069.046.069l3.557-.627 1.256-.75c.012-.012.023-.012.034-.012.059 0 .227-.005.483-.005 1.244 0 5.423.063 7.178.895.035.017.052.052.04.087-.006.029-.04.052-.069.052h-.006c-.744-.099-2.662-.325-4.4-.325-1.378 0-2.366.139-2.947.412-.058.024.006.105.006.105l2.941.436.994-.372c.006 0 .017-.006.023-.006.012 0 .023.006.035.012.424.209 4.237 2.191 6.387 5.498.018.035.012.076-.017.099-.017.011-.029.017-.046.017m-40.685-4.237h-.024l-4.306-1.424c-.018-.006-.035-.023-.041-.041-.581-1.15-.942-1.883-1.046-2.08-.018-.035-.006-.07.023-.093l.57-.407c.011-.012.029-.018.046-.018.006 0 .012.006.023.006l3.836 1.389c1.564-.895 2.418-1.389 2.61-1.511.012-.012.023-.012.04-.012h.024c2.168.762 2.261 2.523 2.261 2.866-.006.035-.024.064-.053.07l-3.94 1.255h-.024m7.033-.064h-.012c-.035-.012-.064-.041-.058-.076.105-1.569-.779-2.766-1.139-3.19-.093-.105-.099.005-.07.093.273.964.081 1.697-.07 2.063-.012.029-.035.046-.064.046h-.017c-.029-.005-.058-.035-.058-.069-.047-1.86-1.349-2.999-1.907-3.4-.029-.024-.035-.059-.023-.088s.035-.046.064-.046h.012c1.476.221 2.604.721 2.615.726-.093-.715-.238-1.18-.319-1.389-.012-.023-.006-.058.017-.075.012-.018.029-.024.052-.024.006 0 .012 0 .024.006 1.743.587 2.028 2.04 2.04 2.854 0 .035-.024.064-.059.076h-.011c-.029 0-.059-.018-.07-.047-.14-.32-.366-.645-.535-.86-.105-.128-.122-.093-.093-.029.442 1.104.041 2.575-.25 3.383-.012.029-.035.046-.07.046m2.482-2.476c-.029 0-.058-.017-.07-.046-.25-.582-.976-2.052-2.249-3.139-.511-.442-1.162-.663-1.941-.663-.151 0-.308.006-.471.024h-.006c-.035 0-.064-.024-.07-.059-.006-.034.012-.075.052-.081l1.971-.569h.04c.727.168 1.262.534 1.523.743.105.088.093-.023.052-.104-.354-.674-.871-1.006-1.168-1.151-.017-.012-.035-.029-.041-.052 0-.018 0-.041.018-.058.267-.343.668-.663 1.191-.965.006 0 .018-.006.023-.006.221-.041.442-.064.669-.064 1.063 0 1.889.482 2.197.692.081.058.104 0 .081-.053-.145-.412-.447-.854-.918-1.336-.017-.018-.029-.041-.023-.064.012-.029.029-.047.052-.053.424-.133 1.162-.348 1.505-.436.006-.005.012-.005.018-.005.023 0 .04.005.052.023 1.662 1.633.86 4.057.581 4.76-.012.029-.04.047-.069.047h-.006c-.029 0-.059-.024-.064-.053-.221-.802-.599-1.261-.837-1.482-.117-.11-.134-.064-.105-.006.401.739.18 1.843.157 1.976-.006.006-.006.018-.012.024l-.506.755c-.017.024-.04.035-.064.035h-.011c-.029-.006-.047-.023-.059-.052-.209-.738-1.162-1.715-1.557-2.098-.099-.093-.088-.012-.047.064.581 1.174.326 2.743.18 3.394-.006.035-.034.058-.064.058h-.006m-16.228-1.168c-.006 0-.017 0-.023-.006l-1.61-.599c-.017-.011-.035-.023-.04-.04-.006-.024-.006-.041 0-.058l.104-.239c.006-.017.023-.035.041-.04 1.424-.628 2.371-1.407 2.383-1.419.017-.139.041-.325.058-.406 0-.03.023-.053.047-.059l4.411-1.453.57-.43c.006-.005.017-.005.023-.011l1.023-.326c.006-.006.017-.006.023-.006.023 0 .052.012.064.041.017.029.006.07-.023.093l-6.091 4.505-.925.447c-.011.006-.023.006-.034.006m-3.058-4.016h-.023c-.192-.064-.54-.204-.703-.425-.012-.017-.017-.04-.012-.058 0-.023.017-.04.035-.046l1.877-1.134c.047-.023.419-.209 1.104-.29h.006c.029 0 .047.011.064.029.099.145.274.395.384.552.017.029.017.058 0 .081-.017.024-.035.035-.058.035-.012 0-.012 0-.023-.006-.088-.017-.169-.034-.239-.034-.023 0-.04.005-.058.005l-2.249 1.099-.035.139c-.006.018-.017.035-.035.047-.006.006-.023.006-.035.006m-2.679-1.11c-.174 0-.314-.012-.413-.047-.029-.006-.046-.035-.046-.058-.006-.029.006-.058.029-.07l.756-.482c.093-.058 2.354-1.482 3.568-1.721h.018l.598.035c.024 0 .047.012.059.029l.499.692c.018.029.018.058.006.081-.017.024-.04.035-.064.035h-.012c-.238-.035-.447-.058-.621-.058-.157 0-.285.018-.39.047l-3.138 1.121-.006.25c0 .035-.024.064-.059.07-.133.023-.47.075-.784.075m-.744-1.15c-.506 0-.959-.175-1.186-.285-.023-.012-.041-.035-.041-.07.006-.029.023-.052.053-.064l.901-.273c1.325-.947 3.092-1.709 3.109-1.715.372-.116.843-.162 1.174-.18.023 0 .041.012.058.029.012.018.018.041.012.064l-.122.483c-.006.029-.029.052-.058.052l-.442.058-3.225 1.535-.041.302c-.006.029-.035.058-.07.058-.04.006-.081.006-.122.006m-.941-1.023c-.012 0-.018-.006-.029-.006l-.419-.163c-.023-.011-.035-.029-.046-.046-.006-.024 0-.047.012-.064.046-.07.116-.175.197-.302.378-.582 1.07-1.645 1.378-1.913l-2.662-5.486c-.006-.024-.012-.041 0-.058.006-.018.017-.035.035-.041.296-.145.581-.262.866-.355.011-.005.017-.005.029-.005.023 0 .046.011.064.04l2.952 5.417 2.651.221c.017 0 .04.006.052.023.075.105.139.198.18.279.012.018.012.035.006.053l-.087.331c-.006.029-.035.058-.07.058 0 0-1.935-.14-1.959-.14-.848.279-2.662 1.756-3.103 2.139-.012.006-.029.018-.047.018m66.741-4.499c-.023 0-.046-.011-.064-.041-.471-.941-1.68-2.656-4.51-3.574-.029-.012-.046-.035-.052-.058-.006-.029.006-.052.029-.07l2.952-2.284.064-.291c.053-.25.134-.552.25-.883 0-.012.006-.018.017-.029 1.337-1.337 3.645-3.999 4.098-6.818l-.407-1.046c-.006-.018-.006-.041.006-.058.732-1.389 1.558-2.918 2.528-4.667.012-.012.018-.018.024-.024l3.063-2.086c.012-.006.029-.012.04-.012.012 0 .023.006.035.012.023.011.041.04.041.064-.239 4.638-1.145 8.619-1.86 11.148-.006.017-.018.035-.035.04-.012.006-.023.012-.035.012-.006 0-.017-.006-.023-.006-.174-.064-.337-.151-.482-.256-.006.029-.343 2.674-1.517 4.575-.018.023-.035.034-.064.034h-.012l-1.413-.249s-.081.04-.04.11c.215.325.715 1.116.767 1.465v.04l-.453 1.18c-.012.029-.035.047-.064.047l-.704.064-.627 1.337c-.006.017-.024.034-.041.04l-1.57.477.134 1.732c.006.035-.017.064-.052.075h-.024m-69.502-3.946c-.011 0-.029-.006-.04-.012-.023-.017-.035-.046-.035-.075l.116-.645c.332-1.076.268-2.203.215-2.721-.023-.174-.069-.174-.087-.116-.18.541-.558.942-.854 1.18-.018.012-.029.018-.047.018-.017 0-.034-.006-.046-.018-.029-.023-.035-.058-.017-.093.401-.709.366-1.459.319-1.819-.023-.128-.087-.116-.11-.064-.233.442-.605.657-.814.75-.012.006-.023.006-.035.006-.017 0-.034-.006-.052-.018-.017-.023-.023-.058-.012-.087.32-.68.296-1.459.256-1.86-.006-.029.012-.058.041-.07.011-.006.023-.006.029-.006.023 0 .04.006.052.018.534.477 1.127.895 1.772 1.25.018.011.029.023.035.04.221.669.384 1.604.175 2.215l-.204.616.982.523c.029.017.041.046.041.07-.006.034-.023.058-.046.063-.733.268-1.267.605-1.593.843-.012.006-.029.012-.04.012m46.532-1.54c-.023 0-.041-.012-.058-.035-.338-.488-1.645-.901-2.29-1.052-1.099.325-2.569.54-2.994.598h-.006c-.023 0-.04-.005-.052-.017s-.023-.029-.023-.052l.023-2.534c-.547-1.663-3.888-2.453-4.266-2.54-.035-.006-.058-.041-.058-.076.034-1.25 1.726-2.72 1.743-2.737.506-2.244 2.552-4.179 2.959-4.546.017-.011.029-.023.052-.023.006 0 .012 0 .017.006.024.006.047.023.053.052.087.326.372 1.099 1.162 1.203.035 0 .064.006.093.006.913 0 1.686-1.65 1.767-1.836.006-.012.012-.018.018-.024.401-.366 1.034-.447 1.493-.447.436 0 .802.07.872.081.012.006.023.012.035.018.192.157.325.459.395.86.006.011 0 .023 0 .035l-.017.058c-.012.023-.035.041-.059.046h-.011c-.024 0-.047-.011-.059-.029-.168-.221-.383-.331-.633-.331-.419 0-.831.314-.982.442-.029.029-.035.122-.024.157.314 1.028.919 1.72 1.907 2.185.023.012.04.041.04.07-.012.354-.052.959-.069 1.284-.006.024-.018.047-.035.058-.012.006-.023.012-.041.012h-.017c-.454-.139-.832-.169-.872-.169l-.355.262-.029.093.901 2.674c.006.023 0 .052-.017.075-.012.012-.035.023-.053.023-.006 0-.012 0-.012-.005-.122-.024-.244-.035-.354-.035-.523 0-.808.273-.901.389-.017.018-.035.023-.058.023h-.012c-.029-.005-.058-.005-.093-.005-.424 0-.808.476-.947.674-.041.052.023.139.023.139l.465.25c.029.012.046.047.034.076-.006.035-.029.058-.058.058-1.121.145-2.028.761-2.284.947-.041.029-.017.076.006.087.727.402 1.279 1.25 1.436 1.517.023.047.075.07.116.059.099-.029.308-.082.54-.082.274 0 .5.07.669.209.238.186.575.221.819.221.122 0 .21-.005.227-.011.046-.151-.076-.401-.157-.523-.384-.07-.831-.39-.883-.43h-.029c-.268 0-1.017-.256-1.442-.407-.029-.006-.046-.035-.052-.064 0-.029.017-.053.04-.064.314-.163.599-.239.861-.239.517 0 .755.309.761.32.046-.006.093-.006.139-.006.407 0 .617.21.71.332.034.052.081.035.093.005.197-.494-.035-1.249-.117-1.476-.012-.023-.006-.046.006-.064.012-.023.035-.035.059-.035l.401-.023c.064-.093.098-.314.104-.61 0-.035.018-.058.047-.07.006 0 .017-.006.023-.006.023 0 .041.012.052.024.087.098.151.203.18.255.012.012.012.029.012.047-.255 1.418-.61 3.365-.86 4.615-.006.029-.029.046-.058.052-.006.006-.012.006-.018.006m-2.871-8.23c.023 0 .047.011.058.029.018.017.024.046.012.069l-.465 1.087s.041.041.082.024c1.029-.576 1.784-1.796 1.819-1.849l-.203-.68c-.431-.697-1.651-1.121-2.128-1.267-.104-.029-.116.012-.087.047.279.285.442.535.517.668.012.029.012.058-.006.082-.012.017-.034.029-.058.029h-.012l-1.418-.221c-.604.07-1.441 1.145-1.534 1.267-.012.017-.024.023-.041.029l-.837.209c.076.785.965 1.343 1 1.366l.436-.523c.017-.018.034-.029.058-.029.012 0 .023.006.035.011.244.157.877.274 1.389.349.139.018.221.006.145-.023-.459-.145-.779-.395-.976-.593-.029-.029-.029-.064-.018-.093.018-.023.041-.035.064-.035.012 0 .018 0 .024.006.267.076.616.116 1.034.116.453 0 .884-.046 1.104-.075zm-7.805 6.823c-1.203-.006-2.064-.296-2.546-.872-.291-.343-.389-.72-.413-.976-.006-.035.018-.064.047-.076.012-.005.017-.005.023-.005.029 0 .052.017.064.04.25.454.697.727.988.86.145.07.151.047.099.012-.779-.529-.762-1.656-.75-1.895 0-.029.023-.058.052-.064.053-.011.099-.017.152-.017.331 0 .569.273.685.43.012.029.018.058 0 .081-.011.024-.034.035-.058.035-.006 0-.372-.017-.383-.017 0 .941 1.156 1.278 1.168 1.278l.994.361c.029.017.046.046.04.081l-.087.686c-.006.035-.041.058-.076.058m-37.628-2.04c-.006 0-.017 0-.023-.006-.029-.011-.052-.04-.046-.069.006-.39-.076-.843-.25-1.355-.012-.035.006-.075.035-.087.012-.006.023-.011.035-.011.017 0 .04.005.058.023.128.157.343.395.639.674.023.023.029.052.023.081-.099.256-.279.529-.412.715-.012.024-.035.035-.059.035m36.506-2.935c-.034-.006-.058-.035-.058-.07-.017-.226.035-.441.14-.622.186-.302.529-.511 1.034-.616h.018c.023 0 .046.012.058.035.017.023.017.053 0 .082l-.25.348c-.006.018-.023.024-.035.029-.099.035-.61.239-.825.768-.012.029-.041.046-.07.046zm-2.441-.105c-.012 0-.023 0-.029-.005-.035-.018-.052-.053-.041-.088.169-.651.692-1.47.715-1.505-.07.012-.157.052-.25.111-.017.005-.029.005-.04.005-.018 0-.035-.005-.047-.017-.023-.023-.034-.052-.017-.087.25-.535.761-.849 1.046-.982.401-.198.808-.692 1.017-.971.012-.018.035-.029.058-.029.012 0 .024.006.035.006.029.017.047.052.035.087-.093.343-.244.651-.244.657.012 0 .651-.053.657-.053.023 0 .052.018.064.047s.006.058-.018.081c-.191.186-.622.576-1.302 1.046-.703.489-1.29 1.256-1.58 1.668-.012.018-.035.029-.059.029m1.453-.494c-.017 0-.029 0-.04-.011-.029-.018-.041-.058-.029-.087.249-.576.97-1.581 2.975-1.883h.012c.023 0 .052.011.064.034.012.024.012.059-.006.082l-.639.831c-.012.012-.029.023-.053.023-.232.018-1.441.116-2.231.988-.018.018-.035.024-.053.024m7.765-1.988c-.023 0-.046-.012-.058-.029-.017-.029-.017-.064.006-.087.209-.239.547-.518.936-.518.354 0 .674.227.878.419.023.023.029.064.011.093-.011.023-.034.035-.064.035-.006 0-.011 0-.017-.006-.168-.053-.366-.076-.581-.076-.413 0-.82.087-1.087.169h-.023m-5.795-1.238c-.023 0-.041-.006-.052-.023-.024-.018-.029-.047-.018-.076.093-.256.239-.785.146-1.401-.006-.023 0-.046.017-.064.291-.284 2.854-2.795 4.644-3.115.006-.006.006-.006.012-.006h.012c.099.018.645.093 1.325.291.006-.006.564-.337 1.139-.337.436 0 .767.186.988.552.012.023.012.058-.012.081-.012.018-.035.029-.052.029-.006 0-.018 0-.029-.005-.186-.07-.5-.157-.889-.157-.622 0-1.558.226-2.488 1.296-.012.011-.023.017-.035.023-.226.058-2.092.581-2.813 1.325-.046.047-.017.116-.017.116l1.075-.325h.023c.029 0 .052.012.064.041.018.029.006.069-.023.087-.628.459-1.848 1.29-2.993 1.662-.006.006-.018.006-.024.006m38.343-4.778c-.011 0-.029-.006-.04-.011-.355-.239-1.029-.308-1.227-.32-.023-.006-.04-.012-.052-.029-.017-.018-.017-.041-.017-.058l.116-.576c.006-.034.035-.058.07-.058.465.012.982.14 1.133.175.029.011.052.035.052.069l.041.733c0 .029-.017.052-.041.064-.011.005-.023.011-.034.011m-29.497-.906c-.012 0-.018 0-.029-.006-.035-.012-.053-.053-.041-.087.18-.669.5-1.715 1.017-2.877.012-.024.041-.041.07-.041h.006c.035 0 .058.029.064.058l.081.494 1.076-1.436c.284-.372.848-.691 1.272-.895.006-.005.018-.005.029-.005.012 0 .024 0 .035.005.018.012.035.029.035.053.035.197.058.389.081.581.006.023-.006.052-.023.064-.628.558-2.737 2.493-3.609 4.051-.018.029-.041.041-.064.041m-4.353-.082c-.024 0-.047-.017-.064-.035-.425-.674-.332-1.453-.326-1.488l-.57.233c-.011 0-.017.006-.029.006-.011 0-.023-.006-.034-.012-.018-.011-.029-.029-.035-.046-.105-.471-.087-.954.052-1.471.006-.029.029-.046.064-.052h.006c.029 0 .053.017.064.041.471.912 1.227 1.331 1.633 1.499.024.006.035.023.041.047.006.023 0 .046-.012.063-.424.564-.633.977-.726 1.169-.012.023-.035.04-.059.046h-.006m34.21-.691c-.017 0-.029-.006-.04-.012-.454-.291-1.029-.32-1.256-.326-.023 0-.04-.005-.052-.017-.017-.017-.023-.041-.023-.058l.133-1.442c0-.029.024-.058.059-.063.151-.03.308-.041.459-.041.5 0 .877.151 1.011.215.029.017.047.046.041.081l-.262 1.599c0 .023-.017.046-.04.058-.012 0-.018.006-.029.006m3.161-2.825c-.029 0-.058-.012-.069-.041-.25-.546-.93-1.889-1.756-2.505-.017-.011-.029-.029-.029-.046 0-.024.006-.041.018-.058.221-.279.354-.529.354-.657 0 0-2.185-.076-2.203-.076-.04.035-1.069.738-1.418 1.302-.012.023-.035.035-.064.035-.006 0-.012 0-.017-.006-.029-.006-.053-.029-.053-.064l-.04-.407c0-.011 0-.029.006-.04.075-.128.476-.797 1.366-1.331.006-.006.017-.012.029-.012l2.092-.227-.012-.087-1.133-.691-1.465.703c-.012.006-.017.011-.035.011-.006 0-.012-.005-.017-.005l-.465-.151c-.029-.012-.047-.035-.053-.064 0-.029.012-.059.035-.07l1.953-1.192c.012-.005.023-.005.035-.005s.023 0 .029.005l1.11.46.012-.064-1.151-.965-2.075 1.209c-.012.005-.023.011-.04.011-.012 0-.018-.006-.029-.011-.024-.006-.041-.029-.041-.058l-.029-.384c-.006-.029.012-.058.035-.07l2.237-1.296c.012-.006.024-.012.035-.012.012 0 .023.006.035.012l1.087.645c.006.006.006.006.012.012l1.075.982c.012.006.017.018.017.029l.71 2c.006.005.006.017.006.023l-.024 3.086c0 .035-.023.064-.058.07zm-5.957-5.446c-.029 0-.053-.018-.064-.052l-.151-.477c-.006-.035.006-.064.029-.087l.244-.169c.012-.006.029-.011.04-.011.012 0 .024.005.029.005.024.012.041.035.041.059.023.145.035.424-.099.691-.012.029-.035.041-.064.041h-.006m1.872-1.383c-.018 0-.029-.006-.041-.012-.023-.012-.035-.041-.035-.064l.181-3.789c.006-.035.029-.064.069-.07.146-.012.337-.023.541-.023.075 0 .151 0 .227.005.034 0 .064.029.064.07l.064 2.523.052-.035.308-2.418c0-.023.012-.041.029-.053.012-.011.029-.011.046-.011h.012c.21.035.407.081.593.134.029.011.053.04.053.075l-.175 3.348c0 .023-.017.046-.04.058-.012.006-.018.006-.029.006-.018 0-.029 0-.041-.006l-.697-.442-1.145.692c-.012.006-.024.012-.035.012m2.499-6.01c-.012 0-.023 0-.035-.006-.517-.285-1.284-.343-1.836-.343-.192 0-.343.006-.431.012h-.006c-.017 0-.034-.006-.052-.018-.012-.017-.017-.035-.023-.058l-.047-2.4c0-.035.024-.064.053-.076.238-.075.482-.122.726-.122 1.041 0 1.86.738 2.011.883.018.018.023.041.023.064l-.308 2.006c-.006.023-.017.04-.04.052-.012.006-.024.006-.035.006m4.254-3.964c-.034 0-.064-.023-.069-.058-.39-1.494-2.511-2.744-5.15-3.034-.302-.035-.628-.052-.953-.052-.198 0-.401.005-.61.023h-.006c-.029 0-.059-.018-.07-.047l-.343-.784c-.012-.018-.012-.047.006-.064.012-.018.029-.035.052-.035.209-.029.453-.047.761-.058-.377-.326-.97-.756-1.627-.971-.035-.012-.052-.046-.046-.081s.034-.058.069-.058c1.047.023 2.895.22 3.494 1.249 2.691.5 4.614 2.133 4.562 3.894 0 .041-.029.07-.064.076zm1.505-2.389c-.017 0-.04-.006-.058-.023-.546-.628-1.883-2.11-2.493-2.418-.105-.052-.215-.076-.326-.076-.523 0-.953.564-1.069.738-.006.018-.023.03-.046.03 0 .005-.006.005-.012.005-.012 0-.029-.005-.041-.017-.541-.372-.872-.977-1.052-1.418-.018-.029-.006-.064.023-.082.012-.011.029-.017.041-.017.017 0 .034.006.052.023.523.488 1.174.552 1.68.552.244 0 .476-.017.709-.035.209-.011.407-.023.593-.023.314 0 .529.041.691.134.599.354 1.122 1.738 1.378 2.534.012.029-.006.07-.035.087-.012.006-.023.006-.035.006m-5.684-2.482c-.023 0-.046-.012-.064-.029-.372-.581-1.221-1.186-2.104-1.499-.953-.343-1.087-.75-1.099-.913 0-.029.012-.052.035-.07.326-.162.645-.25.965-.25 1.174 0 1.906 1.169 1.912 1.186.239.233.361.942.43 1.494 0 .035-.017.069-.052.081z" fill="#75a8de"/><path d="m-238.88 4.683c.076-.012.221-.024.296-.024.791 0 2.157-.104 3.232-.197.023-.25.046-.529.07-.82-.029 0-.733-.104-.733-.104-.743-.111-1.29-.75-1.29-1.5v-.139c-1.308.052-2.615.093-3.923.168v3.144c1.005-.29 1.866-.453 2.348-.528m-2.348-2.616v-14.013c-4.888.273-9.77.692-14.647 1.25v14.013c4.876-.558 9.759-.977 14.647-1.25m-27.805-13.054c.366.099.68.331.889.651l.157.244s.326.436.994.936c3.697-.581 7.405-1.116 11.119-1.54v-14.031c-4.871.552-9.729 1.249-14.565 2.08v11.287zm12.008 14.745-.093.436c.064.07.122.139.186.215l.116.14c.146.185.25.401.302.633l.041.18c.256.221.442.465.599.715v-2.761c-.378.047-.756.105-1.134.146-.006.098.006.197-.017.296m15.797 94.628v.006c.25.285.506.57.755.849-.249-.285-.505-.57-.755-.855m-29.212-97.29-.622-.505c-.419-.349-.616-.901-.523-1.436l.075-.413c-.953-.837-1.546-1.819-1.673-2.051l-.14-.245c-.18-.319-.238-.685-.168-1.046l.058-.279c.308-1.551 0-2.609-.006-2.621l-.082-.244c-.029-.093-.029-.186-.04-.285-3.139.587-6.266 1.221-9.387 1.918.547 4.615 1.197 9.143 1.947 13.589 3.511-.755 7.027-1.465 10.561-2.075zm29.212 91.431.087-.07c-.029-.017-.058-.04-.087-.058zm-.058-70.24c-2.232 1.639-4.621 1.767-5.301 1.767-.198 0-.302-.006-.302-.006l-.175-.011c-.226-.018-.447-.087-.645-.198l-.645-.372-1.337.105c.988 1.993 2.133 4.336 3.383 6.899 1.691-.134 3.383-.268 5.08-.366v.412c.07-.139.145-.285.215-.424-.07.006-.146.006-.215.012v-7.864zm-28.294-7.759c-.076-.209-.146-.418-.198-.639l-.035-.14c-.052-.186-.064-.383-.041-.575l.936-7.045c.023-.174.076-.342.151-.499l.169-.32-.082-.186c-.587.099-1.174.18-1.761.279v9.7zm43.51-44.254c.842.715 1.615 2.104 1.999 2.865l.134.274c.04.075.058.151.081.226.506.006 1.011.012 1.517.024l.343-.099c.122-.035.25-.053.372-.058.674-.332 1.25-.518 1.383-.558l.767-.244c.146-.041.297-.07.454-.07.261 0 .511.07.738.192.36.203.622.546.726.947 1.901.07 3.796.134 5.696.244v-13.978c-4.888-.279-9.787-.418-14.687-.424v10.334c.128.058.244.128.355.215zm8.782 17.704.07.238c.087.303.087.628-.018.924l-.697 2.029.145.645c.041.198.047.401.012.599l-.023.151c-1.041 5.899-1.244 6.411-1.314 6.602-.075.175-.244.605-1.092 1.697l.162.878c2.011.052 4.028.134 6.039.233.82-.396 1.151-.553 1.413-.64.139-.075.395-.215.732-.407v-12.874c-1.831-.11-3.656-.174-5.481-.238.023.07.041.128.052.163m3.854 112.16h-.006c-.029.035-.058.07-.087.099.029-.035.064-.064.093-.099m12.74-111.18c.68-1.383 1.487-2.941 2.423-4.685 0-.011-.046-.157-.046-.157-.064-.186-.093-.377-.082-.569 0 0 .006-.151.006-.163l-.476-.325c-.337-.227-.564-.576-.634-.971-.075-.401.012-.808.244-1.139l.436-.64.425-.581.064-1.988c-.477-.895-.698-1.854-.762-2.162l-.064-.331c-.017-.058-.017-.111-.017-.169-4.226-.453-8.451-.819-12.682-1.057v14.036c3.725.209 7.445.528 11.165.9m-40.534-28.933c-2.581.146-5.161.332-7.742.553-2.302.197-4.603.424-6.905.691v14.007c4.877-.558 9.759-.976 14.647-1.255zm-43.69 6.202v.052h.006v-.052zm45.271 7.724c-.529.029-1.052.041-1.581.07v1.645c.523-.628 1.052-1.197 1.581-1.715m4.429 9.346c.122-.401.273-.779.436-1.133-.622.075-1.506.372-2.192 1.389l-.162.232c-.198.303-.506.523-.866.616l-3.226.855v2.801c.86-.052 1.72-.069 2.581-.116.988-2.267 2.534-3.859 3.429-4.644m-35.222-19.947c-4.848.837-9.672 1.814-14.472 2.93v.156c.128 4.673.354 9.253.674 13.699 4.58-1.046 9.177-1.976 13.798-2.778zm73.227 68.008c-3.761-.424-7.527-.75-11.293-1.011-.14 1.139-.25 2.278-.279 3.272-.052 1.738.819 6.359 1.778 10.857 3.273.25 6.533.535 9.794.907v-14.019c4.87.558 9.729 1.255 14.571 2.086v14.019c.04.006.075.018.122.024 1.563-4.284 3.005-8.69 4.318-13.211-1.482-.285-2.958-.582-4.44-.831v-14.013c-4.842-.837-9.701-1.535-14.571-2.093zm22.452-10.427c.988-4.394 1.877-8.875 2.65-13.455-3.499-.755-7.009-1.459-10.532-2.069v14.031c2.633.453 5.26.953 7.881 1.494m-7.881-43.574v14.036c4.173.721 8.329 1.563 12.473 2.493.43-3.656.802-7.364 1.104-11.119.07-.872.128-1.755.192-2.638-4.568-1.047-9.16-1.977-13.769-2.773m-14.571 82.033c3.11.355 6.213.785 9.317 1.256.546-1.198 1.087-2.407 1.61-3.621 1.285-3 2.493-6.068 3.644-9.195v-.361c-4.841-.837-9.7-1.528-14.571-2.086zm-73.227-11.502v-.418c-.052.005-.099.017-.145.029.046.128.093.261.145.389m65.532 10.747c-.209 2.11-.622 4.999-1.459 8.573-.436 1.883-.895 3.621-1.354 5.254 3.505.256 7.01.558 10.508.959v-14.031c-2.563-.29-5.132-.54-7.695-.755m13.525-61.022c-.041.093-.122.244-.18.325l-3.993 5.597c4.312.523 8.619 1.134 12.915 1.872v-14.013c-2.139-.366-4.278-.698-6.417-1.012-1.034 4.313-2.238 7.045-2.325 7.231m-9.41 11.944-6.027 6.05-.058.843c3.226.25 6.446.529 9.666.895v-10.346zm16.012-46.503-.29.848c-.175.523-.616.913-1.157 1.012-.093.017-.186.023-.273.023-.413 0-.802-.163-1.087-.459-.511.383-1.116.703-1.796.953-.012.052-.029.105-.046.151.25.244.412.575.447.942l.465 5.033.657 1.796c.052.157.087.314.087.482l.082 2.732c1.679.256 3.365.506 5.05.79v-13.967c-.715-.122-1.429-.22-2.139-.337m-12.432 115.2c.901-1.482 1.785-2.975 2.645-4.492-.884-.111-1.767-.239-2.645-.343zm-67.996-17.599c2.064 4.522 4.284 8.899 6.667 13.106.889-.11 1.778-.238 2.668-.343v-14.031c-3.116.361-6.231.791-9.335 1.267m19.674-2.237c-.284-1.878-.465-3.755-.528-5.615-1.343-2.673-2.68-5.364-3.976-8.003-1.947.174-3.894.36-5.835.581v14.007c3.44-.395 6.887-.715 10.34-.97m3.045 13.839c-4.469.278-8.933.656-13.385 1.162v4.865c1.796 2.952 3.679 5.818 5.644 8.596 1.308-.122 2.615-.233 3.923-.337-.628-1.79-.645-3.261-.645-3.377v-.698c0-.796.61-1.453 1.401-1.517l.697-.046c.233-.029 1.192-.267 2.627-.674-.471-2.633-.407-5.766-.261-7.975m29.671 13.891c.319.018.639.024.959.041v-2.087c-.355.785-.675 1.471-.959 2.046m-43.056-53.326c-.227-.459-.448-.924-.663-1.377-4.65.546-9.288 1.203-13.903 2.005v-11.775c-.058 0-.105.017-.157.017-1.191 0-2.29-.674-2.842-1.714-1.639.308-3.272.622-4.906.953 1.029 4.563 2.174 9.015 3.441 13.356 1.482-.285 2.97-.581 4.464-.837v14.019c4.836-.837 9.695-1.528 14.565-2.086zm44.015 65.538c.11-.127.22-.261.331-.389-.111.128-.221.25-.331.378zm0-5.975 3.115 2.244c2.022-2.505 3.987-5.086 5.864-7.748-2.987-.279-5.98-.517-8.98-.691zm-14.687 7.835c-8.353 0-15.123 6.766-15.123 15.123 0 8.352 6.771 15.123 15.123 15.123 8.346 0 15.117-6.771 15.117-15.123 0-8.358-6.772-15.123-15.117-15.123m4.167 17.018 2.586 7.94-6.759-4.906-6.748 4.906 2.58-7.94-6.753-4.905h8.346l2.575-7.94 2.58 7.94h8.347z" fill="#cf1c2b"/><g fill="#14213a"><path d="m-205.65 117.42h-.872v-.866h2.709v.866h-.884v4.284h-.953z"/><path d="m-203.46 116.55h1.447l.558 4.121.552-4.121h1.465v5.15h-.889v-4.336l-.663 4.336h-1.023l-.668-4.336v4.336h-.779z"/></g></g></svg>