<svg clip-rule="evenodd" fill-rule="evenodd" stroke-linejoin="round" stroke-miterlimit="2" viewBox="0 0 560 400" xmlns="http://www.w3.org/2000/svg"><path d="m405.838 216.15h19.094c2.177-13.732 4.418-27.74 6.673-41.543.458-2.776 1.648-3.96 2.903-4.89 1.183-.917 2.438-1.38 4.22-1.38h14.205l7.067-11.894h-26.62c-3.96.08-9.709 1.656-14.197 5.355-3.96 3.235-6.602 8.124-7.328 12.549l-6.017 37.576zm0-55.48v-4.227h.669zm-.726 55.48h.726v-4.227zm.726-59.707v4.227l-8.977 55.48h-42.734c-5.017 0-9.244-2.311-11.823-5.615-2.241-2.84-3.889-6.8-2.84-12.873 2.248-13.874 4.369-27.409 6.61-41.219h19.813l-6.468 40.028c-.599 3.368-.402 4.552.585 5.876.866 1.121 2.381 1.846 4.03 1.924 5.024-.08 10.04 0 15.001 0l7.715-47.758zm-104.936 59.707v-11.879h3.495c.662 0 1.395-.08 1.98-.276.93-.261 1.726-.725 2.452-1.254 1.451-1.121 2.374-2.706 2.705-4.291 1.255-7.793 2.509-15.522 3.763-23.245.204-1.262.26-2.515-.064-3.565-.198-.599-.599-1.198-.987-1.656-.803-1.056-2.05-1.648-3.769-1.648h-9.576v-11.893h18.559c6.271-.06 9.576 2.184 12.148 4.953 1.254 1.324 2.318 2.981 2.973 4.89.726 2.177 1.057 4.693.592 7.532-1.318 8.519-2.699 16.572-4.094 25.161-.923 4.954-3.495 8.716-6.736 11.697-1.451 1.31-3.17 2.438-5.016 3.361-2.847 1.388-6.342 2.113-9.315 2.113zm0-59.707v11.893h-8.723l-5.806 35.935h14.529v11.879h-7.723c-3.438 0-6.151-.401-8.525-1.388-1.057 7.398-2.184 14.86-3.305 22.251l-18.03 5.687v-17.439l6.869-42.727 13.148-6.87-10.963-7.328 1.98-11.893zm-37.583 11.893h.993l1.91-11.893h-2.903zm0-11.893v11.893h-35.463c-2.445 0-4.615 1.522-5.876 3.566-.592 1.056-.923 2.24-.994 3.431-.125 1.987 1.593 5.017 5.017 5.017h21.075c3.495 0 6.996 1.458 9.639 3.84 2.113 1.979 3.699 4.488 4.361 7.722.395 1.845.465 3.699.126 5.876-.261 2.178-1.05 4.63-2.036 6.602-1.452 2.847-3.439 5.158-5.947 7.201-3.565 2.777-8.455 4.559-12.817 4.559h-44.178l1.917-11.879h36.455c1.91-.08 3.432-.803 4.552-1.924 1.254-1.19 2.114-2.769 2.311-4.425.198-1.452-.331-3.367-1.649-4.558-.796-.725-1.98-1.121-3.375-1.121-7.06-.08-13.464 0-20.532 0-6.144-.08-11.421-3.636-13.676-9.181-.923-2.177-1.184-4.692-1.057-7.398.205-3.107 1.459-6.207 2.91-8.786 3.897-6.532 11.224-10.365 18.228-10.435zm0 68.818v17.439l-2.967.858zm-134.719-9.111v-4.819l8.779-54.888h43.326c7.257.08 15.388 6.609 14.395 16.382-2.312 14.465-4.623 28.923-6.934 43.325h-19.743l6.666-41.606c.394-2.051-.198-3.502-1.057-4.559-.923-1.057-2.311-1.648-3.896-1.648h-14.924l-7.659 47.814zm0-54.817.725-4.89h-.725zm0-4.89v4.89l-8.85 54.817h-19.75l5.348-33.616 13.211-6.87-10.9-7.328 1.917-11.893zm0 54.888-.797 4.819h.797z" fill="#125cb3" fill-rule="nonzero"/></svg>