<svg clip-rule="evenodd" fill-rule="evenodd" stroke-linejoin="round" stroke-miterlimit="2" viewBox="0 0 560 400" xmlns="http://www.w3.org/2000/svg"><path d="m100 100.873h360v198.254h-360z" fill="#0c254c" fill-rule="nonzero"/><circle cx="167.099" cy="171.775" fill="#fff" r="5.493"/><g fill-rule="nonzero"><g fill="#fff"><path d="m200.394 183.437h-20.112v7.69h16.394c6.169 0 8.873 1.267 8.873 6v.929h-12.929c-10.395 0-14.789 3.212-14.789 11.831 0 6.845 4.056 10.733 11.493 10.733h26.366v-23.24c0-9.211-5.155-13.943-15.296-13.943zm5.24 29.662h-12.338c-3.634 0-5.324-.423-5.324-3.55 0-3.295 1.943-4.141 6.084-4.141h11.578z"/><path d="m246.366 212.423h-7.943c-5.324 0-6.508-1.268-6.508-6.846v-22.14h-9.718v22.901c0 10.394 4.564 14.282 15.465 14.282h8.704v.676c0 3.38-2.028 5.324-5.831 5.324h-17.577v7.521h19.267c9.55 0 13.944-4.733 13.944-14.451v-36.253h-9.803z"/><path d="m162.535 218.423c0 5.239-1.098 7.859-4.901 7.859h-4.31v7.859h6.338c9.127 0 13.099-4.902 13.099-15.296v-35.408h-10.226z"/><path d="m358.085 183.437h-16.479v37.183h9.802v-30h3.465c3.212 0 4.31.338 4.31 3.634v4.816h9.38v-6.169c0-7.014-2.704-9.464-10.478-9.464z"/><path d="m319.38 183.437h-20.112v7.69h16.394c6.169 0 8.873 1.267 8.873 6v.929h-12.929c-10.395 0-14.789 3.212-14.789 11.831 0 6.845 4.056 10.733 11.493 10.733h26.366v-23.24c0-9.211-5.155-13.943-15.296-13.943zm5.324 29.662h-12.338c-3.634 0-5.324-.423-5.324-3.55 0-3.295 1.944-4.141 6.085-4.141h11.577z"/><path d="m266.563 187.915c-3.464 3.296-5.493 8.451-5.493 14.282 0 5.578 2.113 10.648 5.493 13.944 3.465 3.38 7.86 4.479 13.944 4.479h13.352v-7.944h-10.479c-3.295 0-5.746 0-7.774-1.183-3.043-1.859-4.395-4.817-4.395-9.211 0-8.62 3.719-10.733 12.169-10.733h10.395v-8.028h-13.352c-6-.084-10.395 1.014-13.86 4.394z"/></g><path d="m375.746 184.704c-1.521 0-2.788-1.267-2.788-2.789 0-1.521 1.267-2.788 2.788-2.788 1.522 0 2.789 1.267 2.789 2.788 0 1.522-1.267 2.789-2.789 2.789z" fill="#8bc53f"/></g><path d="m394.085 170.93c0-1.86 1.521-3.381 3.38-3.381s3.38 1.521 3.38 3.381c0 1.859-1.521 3.38-3.38 3.38s-3.38-1.521-3.38-3.38" fill="none"/><path d="m393.07 193.577c0-1.859 1.522-3.38 3.381-3.38s3.38 1.521 3.38 3.38c0 1.86-1.521 3.381-3.38 3.381s-3.381-1.521-3.381-3.381" fill="none"/><path d="m377.268 169.915c0-1.859 1.521-3.38 3.38-3.38s3.38 1.521 3.38 3.38c0 1.86-1.521 3.381-3.38 3.381s-3.38-1.437-3.38-3.381" fill="none"/><path d="m393.07 193.577c0-1.859 1.522-3.38 3.381-3.38s3.38 1.521 3.38 3.38c0 1.86-1.521 3.381-3.38 3.381s-3.381-1.521-3.381-3.381z" fill="#fff" fill-rule="nonzero"/><path d="m377.268 169.915c0-1.859 1.521-3.38 3.38-3.38s3.38 1.521 3.38 3.38c0 1.86-1.521 3.381-3.38 3.381s-3.38-1.521-3.38-3.381z" fill="#fff" fill-rule="nonzero"/><path d="m401.437 183.69c0-1.859 1.521-3.38 3.38-3.38s3.38 1.521 3.38 3.38-1.521 3.38-3.38 3.38-3.38-1.521-3.38-3.38z" fill="#fff" fill-rule="nonzero"/><path d="m372.366 181.915c0-1.859 1.521-3.38 3.38-3.38 1.86 0 3.381 1.521 3.381 3.38 0 1.86-1.521 3.381-3.381 3.381-1.859 0-3.38-1.521-3.38-3.381z" fill="#fff" fill-rule="nonzero"/><path d="m374.648 199.746c0-1.943 1.521-3.549 3.38-3.549s3.38 1.606 3.38 3.549c0 1.944-1.521 3.55-3.38 3.55-1.859-.085-3.38-1.606-3.38-3.55" fill="none"/><path d="m394.085 170.93c0-1.86 1.521-3.381 3.38-3.381s3.38 1.521 3.38 3.381c0 1.859-1.521 3.38-3.38 3.38s-3.38-1.521-3.38-3.38z" fill="#fff" fill-rule="nonzero"/><path d="m374.648 199.746c0-1.859 1.521-3.38 3.38-3.38s3.38 1.521 3.38 3.38c0 1.86-1.521 3.381-3.38 3.381s-3.38-1.521-3.38-3.381z" fill="#fff" fill-rule="nonzero"/><path d="m384.366 182.592c0-2.705 2.197-4.986 4.986-4.986 2.704 0 4.986 2.197 4.986 4.986 0 2.704-2.197 4.985-4.986 4.985s-4.986-2.281-4.986-4.985z" fill="#fff" fill-rule="nonzero"/><g fill="none"><path d="m394.085 170.93c0-1.86 1.521-3.381 3.38-3.381s3.38 1.521 3.38 3.381c0 1.859-1.521 3.38-3.38 3.38s-3.38-1.521-3.38-3.38"/><path d="m393.07 193.577c0-1.859 1.522-3.38 3.381-3.38s3.38 1.521 3.38 3.38c0 1.86-1.521 3.381-3.38 3.381s-3.381-1.521-3.381-3.381"/><path d="m377.268 169.915c0-1.859 1.521-3.38 3.38-3.38s3.38 1.521 3.38 3.38c0 1.86-1.521 3.381-3.38 3.381s-3.38-1.437-3.38-3.381"/><path d="m394.085 170.93c0-1.86 1.521-3.381 3.38-3.381s3.38 1.521 3.38 3.381c0 1.859-1.521 3.38-3.38 3.38s-3.38-1.521-3.38-3.38"/><path d="m393.07 193.577c0-1.859 1.522-3.38 3.381-3.38s3.38 1.521 3.38 3.38c0 1.86-1.521 3.381-3.38 3.381s-3.381-1.521-3.381-3.381"/><path d="m394.085 170.93c0-1.86 1.521-3.381 3.38-3.381s3.38 1.521 3.38 3.381c0 1.859-1.521 3.38-3.38 3.38s-3.38-1.521-3.38-3.38"/><path d="m393.07 193.577c0-1.859 1.522-3.38 3.381-3.38s3.38 1.521 3.38 3.38c0 1.86-1.521 3.381-3.38 3.381s-3.381-1.521-3.381-3.381"/></g><path d="m404.817 179.718c-1.859 0-3.465 1.352-3.887 3.127l-21.296-1.69c-.338-1.859-1.944-3.296-3.888-3.296-2.197 0-3.971 1.775-3.971 3.972s1.774 3.972 3.971 3.972c2.029 0 3.719-1.521 3.972-3.465l21.127 1.69c.169 2.028 1.859 3.634 3.972 3.634 2.197 0 3.972-1.775 3.972-3.972s-1.775-3.972-3.972-3.972zm-29.071 4.986c-1.521 0-2.788-1.267-2.788-2.789 0-1.521 1.267-2.788 2.788-2.788 1.522 0 2.789 1.267 2.789 2.788 0 1.522-1.267 2.789-2.789 2.789zm29.071 1.775c-1.521 0-2.789-1.268-2.789-2.789s1.268-2.789 2.789-2.789 2.789 1.268 2.789 2.789-1.268 2.789-2.789 2.789z" fill="#95c11f" fill-rule="nonzero"/><path d="m374.648 199.746c0-1.943 1.521-3.549 3.38-3.549s3.38 1.606 3.38 3.549c0 1.944-1.521 3.55-3.38 3.55-1.859-.085-3.38-1.606-3.38-3.55" fill="none"/><path d="m397.465 166.958c-2.197 0-3.972 1.774-3.972 3.972 0 1.183.507 2.197 1.268 2.873l-15.043 22.31c-.507-.254-1.098-.423-1.69-.423-2.197 0-3.972 1.775-3.972 3.972s1.775 3.972 3.972 3.972 3.972-1.775 3.972-3.972c0-1.183-.507-2.197-1.268-2.958l15.043-22.225c.507.253 1.098.422 1.774.422 2.197 0 3.972-1.774 3.972-3.971-.084-2.198-1.859-3.972-4.056-3.972zm-16.648 32.788c0 1.522-1.268 2.789-2.789 2.789s-2.789-1.267-2.789-2.789c0-1.521 1.268-2.788 2.789-2.788s2.789 1.183 2.789 2.788zm16.648-26.028c-1.521 0-2.789-1.267-2.789-2.788 0-1.522 1.268-2.789 2.789-2.789s2.789 1.267 2.789 2.789c.084 1.521-1.184 2.788-2.789 2.788z" fill="#f18805" fill-rule="nonzero"/><path d="m396.451 189.606c-.592 0-1.183.169-1.69.338l-11.493-17.071c.845-.76 1.352-1.774 1.352-2.958 0-2.197-1.775-3.971-3.972-3.971s-3.972 1.774-3.972 3.971c0 2.198 1.775 3.972 3.972 3.972.591 0 1.183-.169 1.69-.338l11.493 17.071c-.845.76-1.352 1.774-1.352 2.957 0 2.198 1.775 3.972 3.972 3.972s3.972-1.774 3.972-3.972c0-2.197-1.775-3.971-3.972-3.971zm-18.592-19.691c0-1.521 1.268-2.788 2.789-2.788s2.789 1.267 2.789 2.788c0 1.522-1.268 2.789-2.789 2.789-1.521.085-2.789-1.183-2.789-2.789zm18.592 26.451c-1.521 0-2.789-1.267-2.789-2.789 0-1.521 1.268-2.788 2.789-2.788s2.788 1.267 2.788 2.788c.085 1.522-1.183 2.789-2.788 2.789z" fill="#951b81" fill-rule="nonzero"/><path d="m384.366 182.592c0-2.705 2.197-4.986 4.986-4.986 2.704 0 4.986 2.197 4.986 4.986 0 2.704-2.197 4.985-4.986 4.985s-4.986-2.281-4.986-4.985z" fill="#fff" fill-rule="nonzero"/><path d="m389.268 188c-3.043 0-5.493-2.451-5.493-5.493s2.45-5.493 5.493-5.493c3.042 0 5.493 2.451 5.493 5.493s-2.451 5.493-5.493 5.493zm0-9.887c-2.451 0-4.479 2.028-4.479 4.479 0 2.45 2.028 4.478 4.479 4.478 2.45 0 4.478-2.028 4.478-4.478 0-2.451-1.943-4.479-4.478-4.479z" fill="#009fe3" fill-rule="nonzero"/></svg>