<svg clip-rule="evenodd" fill-rule="evenodd" stroke-linejoin="round" stroke-miterlimit="2" viewBox="0 0 560 400" xmlns="http://www.w3.org/2000/svg"><path d="m238.571 300h200v-200h-200z"/><path d="m198.571 300h31.429v-200h-31.429z"/><path d="m161.429 300h14.285v-200h-14.285z"/><path d="m121.429 300h8.571v-200h-8.571z"/><g fill="#fff"><path d="m285.444 136.114h3.637v21.745c0 2.44-.134 5.172-1.889 7.066-.86.903-1.914 1.483-3.157 1.729-.063-.052-3.374-3.375-3.374-3.375.983-.011 2.011.063 2.943-.32.651-.251 1.111-.697 1.38-1.334.337-.634.46-2.097.46-4.183z"/><path d="m313.493 139.215c-2.908 0-5.297.909-7.168 2.729-1.872 1.82-2.809 4.143-2.809 6.968 0 2.743.94 5.02 2.817 6.84 1.878 1.82 4.232 2.729 7.052 2.729 2.837 0 5.2-.929 7.097-2.783s2.846-4.166 2.846-6.931c0-2.695-.949-4.958-2.846-6.795s-4.223-2.757-6.989-2.757m-.145-3.454c3.928 0 7.2 1.243 9.811 3.728 2.612 2.486 3.917 5.603 3.917 9.352 0 3.746-1.32 6.848-3.954 9.303-2.637 2.457-5.96 3.685-9.971 3.685-3.832 0-7.023-1.228-9.575-3.685-2.548-2.455-3.828-5.532-3.828-9.232 0-3.797 1.288-6.937 3.857-9.423 2.568-2.485 5.817-3.728 9.743-3.728"/><path d="m356.236 136.118h3.637v25.414h-3.637v-11.06h-14.865v11.06h-3.64v-25.414h3.64v11.066h14.865z"/><path d="m393.68 136.118h3.457v25.414h-3.131l-17.76-19.574v19.574h-3.417v-25.414h2.946l17.905 19.74z"/><path d="m270.533 190.641v25.557h15.66v-3.297h-11.991v-22.26z"/><path d="m298.446 190.641v25.557h16.489v-3.297h-12.82v-7.946h12.105v-3.297h-12.105v-7.72h12.482v-3.297z"/><path d="m360.804 190.641-6.975 17.614-7.122-17.614h-3.48l-7.08 17.614-7.049-17.614h-3.669l10.34 25.783h.712l8.468-20.912 8.4 20.912h.712l10.374-25.783z"/><path d="m375.503 216.197h3.674v-25.554h-3.674z"/><path d="m399.852 205.551-2.783-1.688c-1.742-1.066-2.845-2.129-3.637-3.117-.825-1.023-1.237-2.28-1.237-3.623 0-2.012.697-3.649 2.094-4.903 1.398-1.254 3.258-1.863 5.492-1.863 2.351 0 4.088.6 5.868 1.797v4.155c-1.84-1.772-3.822-2.66-5.945-2.66-1.195 0-2.175.277-2.943.831-.769.551-1.152 1.277-1.152 2.14 0 .766.186 1.4.749 2.069.569.668 1.574 1.448 2.831 2.185l2.898 1.652c3.117 1.863 4.571 4.231 4.571 7.108 0 2.052-.709 3.74-2.083 5.017-1.371 1.28-3.131 1.966-5.326 1.926-2.52-.048-4.777-.748-6.897-2.354v-4.646c1.975 2.503 4.263 3.7 6.857 3.7 1.149 0 2.103-.266 2.863-.903.763-.637 1.177-1.437 1.177-2.397 0-1.557-1.154-3.031-3.397-4.426"/><path d="m273.122 247.364c0 .303.12.654.366 1.054s.526.746.851 1.034c.483-.294.866-.597 1.149-.9.286-.303.429-.66.429-1.068 0-.377-.132-.692-.398-.943-.265-.252-.605-.377-1.022-.377-.366 0-.692.111-.963.337-.275.223-.412.511-.412.863m-1.625 7.143c0 .442.168.817.508 1.122.343.303.746.455 1.214.455.795 0 1.632-.383 2.518-1.152l-2.378-2.663c-.582.369-1.037.732-1.368 1.086-.332.352-.494.734-.494 1.152m3.04-10.355c1.057 0 1.94.297 2.642.897.703.598 1.055 1.363 1.055 2.295 0 .674-.209 1.3-.629 1.88-.42.583-1.063 1.16-1.926 1.725l1.903 2.2c.56-.56 1.075-1.294 1.546-2.2h2.514c-.66 1.589-1.505 2.889-2.534 3.906l2.783 3.143h-3.46l-1.277-1.457c-.7.58-1.375 1-2.026 1.251-.651.255-1.429.383-2.334.383-1.117 0-2.057-.337-2.826-1.011-.766-.675-1.149-1.5-1.149-2.477 0-.815.278-1.543.829-2.186.551-.646 1.337-1.24 2.351-1.789-.482-.605-.834-1.157-1.06-1.648-.222-.492-.337-.995-.337-1.503 0-1.009.369-1.829 1.109-2.463.737-.631 1.677-.946 2.826-.946"/><path d="m295.893 250.098c.714 0 1.268-.166 1.671-.491.4-.326.6-.809.6-1.452 0-1.274-.82-1.911-2.457-1.911h-1.826v3.854zm.663-5.946c1.297 0 2.348.377 3.157 1.126.808.749 1.214 1.714 1.214 2.897 0 1.197-.408 2.163-1.228 2.906-.82.74-1.9 1.106-3.24 1.106h-2.578v5.811h-2.677v-13.846z"/><path d="m307.695 252.595h4.469l-2.337-5.48zm3.492-8.442 6.111 13.845h-2.823l-1.437-3.371h-6.154l-1.337 3.371h-2.803l5.706-13.845z"/><path d="m325.249 250.059c.702 0 1.251-.177 1.651-.526.4-.351.6-.828.6-1.437 0-.634-.197-1.108-.594-1.423-.397-.311-.963-.471-1.695-.471h-1.665v3.857zm.605-5.906c1.303 0 2.363.36 3.18 1.08.82.72 1.229 1.66 1.229 2.815 0 .785-.2 1.471-.609 2.057-.405.583-1.008 1.043-1.808 1.38.443.237.837.563 1.18.971.343.409.771 1.103 1.28 2.072.843 1.677 1.471 2.834 1.883 3.468h-2.983c-.209-.303-.483-.788-.835-1.454-.765-1.474-1.328-2.469-1.685-2.98-.355-.511-.697-.874-1.029-1.089-.331-.214-.708-.325-1.14-.325h-.971v5.848h-2.675v-13.843z"/><path d="m346.797 244.152v2.092h-4.917v11.754h-2.674v-11.754h-4.915v-2.092z"/><path d="m353.527 244.152 8.226 9.663v-9.663h2.614v13.846h-2.3l-8.272-9.823v9.823h-2.617v-13.846z"/><path d="m378.917 244.152v2.092h-6.271v3.637h6.003v2.088h-6.003v3.935h6.411v2.094h-9.088v-13.846z"/><path d="m388.599 250.059c.7 0 1.249-.177 1.649-.526.4-.351.6-.828.6-1.437 0-.634-.197-1.108-.594-1.423-.397-.311-.963-.471-1.695-.471h-1.665v3.857zm.603-5.906c1.303 0 2.363.36 3.183 1.08.817.72 1.229 1.66 1.229 2.815 0 .785-.203 1.471-.612 2.057-.405.583-1.008 1.043-1.808 1.38.443.237.837.563 1.18.971.343.409.771 1.103 1.28 2.072.843 1.677 1.471 2.834 1.883 3.468h-2.983c-.206-.303-.483-.788-.835-1.454-.765-1.474-1.325-2.469-1.682-2.98-.358-.511-.7-.874-1.032-1.089-.331-.214-.708-.325-1.14-.325h-.971v5.848h-2.675v-13.843z"/><path d="m403.566 243.974c1.349 0 2.646.337 3.891 1.011v2.38c-1.431-.866-2.702-1.3-3.814-1.3-.671 0-1.2.129-1.577.392-.38.262-.571.608-.571 1.045 0 .523.351 1.006 1.06 1.446.2.134.96.503 2.288 1.111 1.137.535 1.957 1.129 2.46 1.783.5.655.752 1.44.752 2.357 0 1.192-.429 2.149-1.283 2.88-.857.732-1.963 1.098-3.326 1.098-.886 0-1.646-.098-2.286-.295-.634-.194-1.348-.528-2.143-1.005v-2.635c1.48 1.226 2.875 1.84 4.18 1.84.658 0 1.183-.143 1.589-.425.4-.283.603-.66.603-1.129 0-.64-.349-1.163-1.049-1.566-.583-.317-1.331-.697-2.251-1.14-1.089-.497-1.906-1.074-2.443-1.734-.54-.66-.806-1.426-.806-2.297 0-1.163.432-2.092 1.297-2.783.866-.689 2.009-1.034 3.429-1.034"/></g></svg>