<svg clip-rule="evenodd" fill-rule="evenodd" stroke-linejoin="round" stroke-miterlimit="2" viewBox="0 0 560 400" xmlns="http://www.w3.org/2000/svg"><g fill="#d7162e"><path d="m100 125.752h24.411v24.218h-24.411z"/><path d="m100 167.063h24.411v65.731h-24.411z"/><path d="m141.687 167.063h24.416v65.731h-24.416z"/><path d="m141.499 125.752v24.218h32.492s8.264-.936 8.264 8.457v74.367h24.034v-89.192s.372-17.85-20.662-17.85z" fill-rule="nonzero"/></g><g fill="#5a5858"><path d="m342.991 145.464v-12.76h-42.623v-6.952h-15.969v6.952h-34.175s-10.71-.569-10.71 11.265v88.82h15.587v-87.325h15.786v6.769h-10.339v12.21h10.339v8.447h-10.339v12.206h82.433v-28.179s-.748-4.689-5.635-4.689h-18.222v-6.764zm-39.994 27.421h-16.142v-8.447h16.142zm0-20.657h-16.142v-6.764h16.142zm25.154 20.657h-9.012v-8.447h9.012z" fill-rule="nonzero"/><path d="m276.522 189.23h-15.964v34.181s.193 9.388 10.339 9.388h29.105v-11.646h-23.48v-13.894h23.48v-11.829h-23.48z" fill-rule="nonzero"/><path d="m319.139 189.23h-15.963v34.181s.193 9.388 10.353 9.388h29.09v-11.646h-23.48v-13.894h23.48v-11.829h-23.48z" fill-rule="nonzero"/><path d="m452.102 195.42h-72.49v-5.452h80.378v-11.829h-80.378v-5.254h80.378v-33.799s.555-7.897-8.091-7.897h-33.957l-.015-5.437h-17.103v5.437h-29.278s-7.709.371-7.709 7.897v68.163h23.653v13.899h-13.334v-8.264h-15.563v13.151s0 6.759 7.308 6.759h59.909s6.006.564 6.006-7.333v-12.577h-15.587v8.264h-13.899v-13.899h42.251v25.54h15.409v-30.992c.005 0 .178-6.377-7.888-6.377m-72.49-52.957h64.405v4.125h-64.405zm0 15.588h64.405v4.124h-64.405z" fill-rule="nonzero"/><path d="m100.272 250.347h3.828v23.678h-3.828z"/><path d="m103.625 261.661 12.413-11.314h4.288l-11.517 11.23 12.616 12.448-5.397.02-12.191-12.126" fill-rule="nonzero"/><path d="m131.14 250.352-10.056 23.678h4.02l2.53-6.338h11.924l2.579 6.338h4.031l-10.131-23.678zm-2.426 14.656 4.823-12.121 4.931 12.121z" fill-rule="nonzero"/><path d="m210.711 250.352h-4.887l-10.067 23.678h4.021l2.54-6.338h11.918l2.585 6.338h4.031zm-7.328 14.656 4.827-12.121 4.942 12.121z" fill-rule="nonzero"/><path d="m159.557 250.347h-3.625v16.494s.327 4.347-4.288 4.347h-7.437v2.837h6.977s8.373.476 8.373-7.457z" fill-rule="nonzero"/><path d="m162.567 250.347h3.689v23.678h-3.689z"/><g fill-rule="nonzero"><path d="m169.48 250.347v23.678h3.441v-20.148l7.903 20.148h3.827l7.828-20.281v20.281h3.481v-23.678h-5.476l-7.601 19.42-7.615-19.42z"/><path d="m249.422 252.877v-2.565h-9.819s-9.254-.133-9.254 12.305c0 11.487 10.056 11.344 10.056 11.344h9.022v-2.56l-8.249.01s-6.997.51-6.997-8.844c0-10.314 6.997-9.724 6.997-9.724z"/><path d="m261.464 249.778s-11.502-.936-11.502 12.294c0 0-1.461 12.176 11.502 12.176 12.616 0 11.611-12.176 11.611-12.176 0-13.626-11.611-12.294-11.611-12.294m7.71 12.294c0 10.918-7.854 9.71-7.854 9.71s-7.724 1.119-7.724-9.71v-.079c0-10.294 7.724-9.675 7.724-9.675s7.854-1.03 7.854 9.675z"/><path d="m331.429 249.778s-11.502-.936-11.502 12.294c0 0-1.461 12.176 11.502 12.176 12.626 0 11.611-12.176 11.611-12.176 0-13.626-11.611-12.294-11.611-12.294m7.719 12.294c0 10.918-7.863 9.71-7.863 9.71s-7.724 1.119-7.724-9.71v-.079c0-10.294 7.724-9.675 7.724-9.675s7.863-1.035 7.863 9.675z"/><path d="m437.04 262.072c0-13.626-11.611-12.294-11.611-12.294s-11.493-.936-11.493 12.294c0 0-1.471 12.176 11.493 12.176 12.646 0 11.611-12.176 11.611-12.176m-3.887 0c0 10.918-7.873 9.71-7.873 9.71s-7.724 1.119-7.724-9.71v-.079c0-10.294 7.724-9.675 7.724-9.675s7.873-1.03 7.873 9.675z"/><path d="m291.203 263.142s4.823-1.095 4.823-6.502c0-5.743-6.046-6.323-7.67-6.323h-12.577v23.787h3.664v-10.403h5.189s7.081-.554 7.081 6.472c0 0 .282 3.421.49 3.931h3.872s-.49-3.357-.554-4.005c-.065-.639-.387-5.155-4.318-6.957m-4.125-2.159h-7.64v-8.145h7.64s5.021-.461 5.021 4.109c0 4.902-5.021 4.036-5.021 4.036"/><path d="m361.178 263.142s4.837-1.095 4.837-6.502-6.343-6.323-7.239-6.323h-13.003v23.787h3.665v-10.403h5.679s6.516.035 6.585 6.472c0 0 .278 3.421.491 3.931h3.872s-.5-3.357-.565-4.005c-.059-.639-.386-5.155-4.322-6.957m-4.12-2.159h-7.625v-8.145h7.625s5.026-.461 5.026 4.109c0 4.902-5.026 4.036-5.026 4.036"/><path d="m310.598 250.312h-11.725v23.792h3.649v-8.962h8.13s7.487.649 7.487-7.67c0-7.293-7.541-7.16-7.541-7.16m0 12.25h-8.116v-9.724h8.116s3.689-.327 3.689 4.709c0 5.015-3.689 5.015-3.689 5.015"/><path d="m376.626 250.317-10.051 23.787h3.674l8.7-20.796 8.496 20.796h3.882l-10.066-23.787z"/></g><path d="m372.17 265.142h13.349v2.58h-13.349z"/><path d="m386.678 250.317v2.521h8.616v21.266h3.679v-21.266h8.12v21.266h3.679v-23.787z" fill-rule="nonzero"/><path d="m439.684 250.317v23.787h3.387v-18.761l13.24 18.761h3.689v-23.787h-3.392v18.762l-12.77-18.762z" fill-rule="nonzero"/></g></svg>