<svg clip-rule="evenodd" fill-rule="evenodd" stroke-linejoin="round" viewBox="0 0 560 400" xmlns="http://www.w3.org/2000/svg"><g transform="matrix(.711568 0 0 .711568 245.211 83.7707)"><path d="m138.278 238.635-12.683-10.875c28.028-52.065 28.845-109.207 28.845-109.207-61.382-18.093-29.911-80.86-29.911-80.86s-37.467-14.885-88.514-14.885c-51.046 0-88.527 14.885-88.527 14.885s11.002 21.943 7.32 43.618l-51.441-44.106-14.669 17.285 56.357 47.825c-5.86 6.71-14.622 12.453-27.465 16.238 0 0 2.127 149.764 118.425 185.324 35.918-10.988 60.922-32.855 78.371-57.851l26.432 22.427h48.971l19.295-29.818z" fill="#fff200" fill-rule="nonzero"/><path d="m138.278 238.635-12.683-10.875c28.028-52.065 28.845-109.207 28.845-109.207-61.382-18.093-29.911-80.86-29.911-80.86s-37.467-14.885-88.514-14.885c-51.046 0-88.527 14.885-88.527 14.885s11.002 21.943 7.32 43.618l-51.441-44.106-14.669 17.285 56.357 47.825c-5.86 6.71-14.622 12.453-27.465 16.238 0 0 2.127 149.764 118.425 185.324 35.918-10.988 60.922-32.855 78.371-57.851l26.432 22.427h48.971l19.295-29.818z" fill="none" stroke="#231f20" stroke-width="2.44"/><g fill-rule="nonzero"><path d="m-40.059 86.049c12.95-2.916 55.451-7.982 76.074-7.982 20.628 0 63.134 5.066 76.08 7.982-1.155-4.705-1.62-9.433-1.62-14.026 0-12.575 3.479-24.037 6.038-30.78-12.171-3.972-42.618-12.443-80.498-12.443-37.884 0-68.312 8.466-80.488 12.443 2.554 6.734 6.034 18.177 6.034 30.738 0 4.611-.475 9.349-1.62 14.068" fill="#1b62b7"/><path d="m-35.232 42.286 29.273-3.757.929 7.227-20.665 2.662 1.08 8.382 18.966-2.432.854 6.686-18.961 2.433 1.221 9.602 21.116-2.714.935 7.231-29.714 3.827z" fill="#fff"/><path d="m10.8 63.482c.361 5.24 4.583 6.996 9.222 6.677 3.033-.216 7.593-1.418 7.311-5.442-.286-4.254-6.245-4.55-12.143-5.701-5.949-1.131-12.007-2.977-12.528-10.363-.564-8.053 6.776-12.448 13.894-12.941 8.213-.569 16.017 2.484 16.651 11.579l-8.381.592c-.611-4.729-4.053-5.705-8.19-5.419-2.756.192-5.874 1.578-5.635 4.883.212 3.039 2.109 3.287 12.158 5.138 2.92.511 11.866 1.713 12.495 10.649.502 7.222-4.804 13.026-15.496 13.773-8.71.61-17.172-3.128-17.74-12.834z" fill="#fff"/><path d="m56.474 76.104-9.762-.634-10.298-40.186 8.936.564 7.006 28.254h.113l10.631-27.118 8.945.559z" fill="#fff"/><path d="m77.121 38.177 8.608 1.075-2.024 16.233 17.331-14.322 10.754 1.339-17.238 13.556 13.833 25.784-10.819-1.348-9.584-19.074-5.573 4.377-1.564 12.617-8.607-1.075z" fill="#fff"/><path d="m133.089 196.168c11.739-32.466 14.524-62.542 15.162-73.394-16.392-5.804-27.685-15.383-33.447-28.639-.427-.967-.822-1.948-1.16-2.935-38.894-9.311-73.022-6.7-73.022-6.7v211.493c42.918-15.265 74.032-48.788 92.467-99.825" fill="#ed1c24"/><path d="m-98.755 50.231s-2.198 2.582-2.959 3.47c1.029.873 7.41 6.292 7.917 6.724.756-.324 7.363-3.188 9.166-3.968-1.615-1.38-10.542-9.034-11.241-9.64-.752.901-2.883 3.414-2.883 3.414" fill="#231f20"/></g><path d="m-98.755 50.231s-2.198 2.582-2.959 3.47c1.029.873 7.41 6.292 7.917 6.724.756-.324 7.363-3.188 9.166-3.968-1.615-1.38-10.542-9.034-11.241-9.64-.752.901-2.883 3.414-2.883 3.414z" fill="none" stroke="#231f20" stroke-width="1.62"/><path d="m-62.852 86.683c1.385 1.179 8.029 6.828 9.123 7.748.827-1.376 1.588-2.723 2.189-4.104 0 0 1.084-3.033 1.512-4.203-.7-.591-3.837-3.282-3.884-3.319-.751.328-7.156 3.099-8.94 3.878" fill="#231f20" fill-rule="nonzero"/><path d="m-62.852 86.683c1.385 1.179 8.029 6.828 9.123 7.748.827-1.376 1.588-2.723 2.189-4.104 0 0 1.084-3.033 1.512-4.203-.7-.591-3.837-3.282-3.884-3.319-.751.328-7.156 3.099-8.94 3.878z" fill="none" stroke="#231f20" stroke-width="1.62"/><path d="m-76.794 74.85c1.381 1.174 6.771 5.752 7.34 6.231.751-.314 7.208-3.118 9.006-3.883-1.197-1.028-6.668-5.715-7.307-6.259-.746.324-7.24 3.136-9.039 3.911" fill="#231f20" fill-rule="nonzero"/><path d="m-76.794 74.85c1.381 1.174 6.771 5.752 7.34 6.231.751-.314 7.208-3.118 9.006-3.883-1.197-1.028-6.668-5.715-7.307-6.259-.746.324-7.24 3.136-9.039 3.911z" fill="none" stroke="#231f20" stroke-width="1.62"/><path d="m-87.204 66.018c1.179 1.004 3.301 2.808 3.822 3.244.761-.324 7.302-3.155 9.086-3.935-.718-.624-3.221-2.775-3.803-3.259-.742.324-7.297 3.165-9.105 3.95" fill="#231f20" fill-rule="nonzero"/><path d="m-87.204 66.018c1.179 1.004 3.301 2.808 3.822 3.244.761-.324 7.302-3.155 9.086-3.935-.718-.624-3.221-2.775-3.803-3.259-.742.324-7.297 3.165-9.105 3.95z" fill="none" stroke="#231f20" stroke-width="1.62"/><path d="m120.885 242.622c1.01.864 22.037 18.708 22.422 19.022h45.675v-16.205h-53.226s-9.584-8.222-10.856-9.306c-.751 1.211-3.442 5.569-4.015 6.489" fill="#231f20" fill-rule="nonzero"/><path d="m120.885 242.622c1.01.864 22.037 18.708 22.422 19.022h45.675v-16.205h-53.226s-9.584-8.222-10.856-9.306c-.751 1.211-3.442 5.569-4.015 6.489z" fill="none" stroke="#231f20" stroke-width="1.62"/><path d="m31.414 128.047c-1.325-2.183-1.494-4.568 1.037-6.625-.394-.474-.465-.967-.685-1.531-.517-.117-.944-.052-1.447-.169-4.742-8.001 1.193-16.059 4.818-23.568-2.024 2.898-6.654 8.983-9.865 10.467-3.555 1.634-11.247.047-15.111-.352-6.776-.695-7.33 2.592-8.743 8.015-.057.216-11.486-1.047-13.58.836-2.71 2.447-4.02 8.899-3.372 12.34 3.832-.925 14.599-4.902 16.059 1.466 1.508.122 2.973 1.023 4.701.709 1.056 3.578-1.32 5.564-4.752 4.916 1.488 1.179 3.709 1.658 5.846 1.601-.709 1.512-1.113 3.344-1.113 5.226-2.423.996-5.301-.234-6.339 2.16 2.418.667 5.207.677 5.268 3.259-2.775 1.475-5.475 4.879-5.254 8.138 5.02.277 19.797.315 9.898 6.907-4.254 2.832-11.509 3.203-16.481 3.475-8.664.479-15.642-3.752-20.591-9.875-10.917-13.481-2.691-31.879 8.79-42.022 1.113-.981 1.911-1.371 2.691-2.742 3.728-.286 5.179-2.442 2.456-4.818-2.066-1.798-6.687-.835-9.054-.676-3.986.273-7.048.935-11.095-.371-3.297-1.052-5.49-4.038-7.204-6.874-.953 3.061-.314 7.818.503 10.908 1.056 4.062 4.569 6.94 5.048 11.143.436 3.85-2.531 4.132-5.696 3.352-6.274-1.549-10.03-7.109-13.834-11.725-3.413 3.94-1.629 11.88.62 16.013 4.55 8.424 10.57 10.363 10.983 11.213 3.184 6.452-7.696 5.019-11.297 4.254-6.001-1.268-8.063-4.959-12.374-8.048-1.108 5.066 3.964 16.543 7.345 20.135 5.522 5.86 17.914 2.282 22.14 7.264 3.348 3.926-.761 6.921-4.226 7.795-8.063 2.038-20.037-2.273-27.47-5.377 2.986 7.687 8.48 18.036 17.294 19.84 4.503.92 28.475-4.217 27 2.737-1.056 4.954-19.524 4.921-22.666 4.423-4.127-.638-7.489-2.54-11.753-3.845 3.198 2.686 4.062 8.043 6.438 11.429 3.573 5.067 6.611 6.513 12.903 7.053 10.636.911 21.953-8.471 31.898-4.907-.732 8.25-25.469 13.782-32.363 15.275.015.319.047 1.174.01 1.46.296.066.61.122.911.179.164.451-.132 1.08.164 1.451 5.015 3.686 9.41 8.043 17.139 6.466 6.729-1.371 12.463-6.02 19.53-6.471 1.54-2.329 4.799-2.672 7.607-3.09 2.38-.357-3.254 5.344-2.761 4.724-1.038 1.305-2.78 3.259-4.302 4.87-5.39 1.253-14.34 2.324-18.285 6.484 2.912-.098 11.369 1.09 8.763 5.673-2.329 4.118-7.852-.63-10.35-1.141-.037.652-.112 1.343-.169 1.991-2.103.788-3.85 1.699-5.794 2.934 1.836 3.395 6.207 1.855 7.532 5.832 1.376 4.123-2.78 5.682-3.193 9.124 1.925-1.864 5.465-3.324 8.01-3.86 1.588-.333 3.776-.817 5.452-.389 1.31.328 2.367 2.512 3.372 2.587 8.781.62-2.71-8.79-2.738-13.336 2.517-1.357 4.808-.296 6.865.531.113 1.822 1.113 4.301 1.709 4.869.108-3.822-.789-13.012 3.17-14.805.93-4.428 7.447-13.796 13.087-11.279 7.034 3.141-2.109 11.551-3.714 15.622 3.333.54 5.883-1.094 9.053-.911-.155 6.954-5.865 10.767-6.898 16.618 2 .122 6.865-.887 7.954 1.296 1.381 2.775-3.93 5.541-2.094 8.565 1.366 2.263 7.692 1.348 12.599.254z" fill="#231f20" fill-rule="nonzero"/><path d="m93.514 103.968 7.227 12.523h14.472l-7.236 12.519 7.236 12.528h-14.472l-7.227 12.519-7.222-12.519h-14.463l7.227-12.528-7.227-12.519h14.463z" fill="#fff200" fill-rule="nonzero"/><path d="m69.294 218.402 7.222 12.523h14.467l-7.227 12.523 7.227 12.524h-14.467l-7.222 12.519-7.241-12.519h-14.458l7.245-12.524-7.245-12.523h14.458z" fill="#fff200" fill-rule="nonzero"/><path d="m40.622 178.15 71.52 60.678c7.297-11.124 13.631-23.624 18.994-37.453l-90.514-76.788z" fill="#fff200" fill-rule="nonzero"/><path d="m128.53 207.785-87.908-74.605m0 32.56 76.539 64.95" fill="none" stroke="#231f20" stroke-linejoin="miter" stroke-width="2.44"/><path d="m76.76 169.473c-1.63-1.376-4.067-1.184-5.433.446-1.39 1.634-1.202 4.071.427 5.452 1.226 1.042 2.926 1.183 4.269.493.018.061.042.117.046.187.038.512-.216 1.132-.657 1.583-.291.296-.798.643-1.517.596-2.066-.145-6.616-.469-7.264-8.339-.455-5.49-2.845-12.176-11.673-12.801-2.08-.155-4.024.587-5.443 2.019-1.436 1.456-2.207 3.485-2.042 5.424.169 2.136 1.441 3.935 3.259 5.043.23.423.521.803.906 1.127 1.625 1.376 4.071 1.179 5.433-.451 1.39-1.624 1.192-4.066-.428-5.442-1.235-1.047-2.916-1.183-4.277-.498-.01-.061-.033-.122-.033-.188-.047-.516.211-1.141.643-1.582.305-.291.803-.657 1.522-.596 2.066.14 6.625.469 7.259 8.344.46 5.489 2.846 12.176 11.678 12.796 2.076.15 4.024-.583 5.443-2.024 1.441-1.447 2.211-3.475 2.052-5.414-.184-2.142-1.461-3.95-3.264-5.048-.225-.414-.535-.803-.906-1.127" fill="#231f20" fill-rule="nonzero"/><path d="m112.104 199.469c-1.629-1.381-4.062-1.179-5.447.451-1.376 1.629-1.178 4.061.446 5.447 1.221 1.037 2.916 1.183 4.269.488.009.066.028.122.037.183.047.531-.211 1.15-.648 1.587-.3.315-.807.653-1.521.601-2.071-.141-6.616-.469-7.274-8.33-.437-5.508-2.827-12.185-11.673-12.81-2.071-.15-4.015.587-5.443 2.015-1.427 1.465-2.202 3.484-2.038 5.423.17 2.137 1.451 3.94 3.269 5.057.22.418.516.799.901 1.123 1.62 1.376 4.062 1.178 5.452-.456 1.366-1.629 1.179-4.062-.451-5.442-1.235-1.043-2.906-1.188-4.268-.493-.01-.061-.033-.122-.047-.188-.038-.521.206-1.146.657-1.578.291-.305.808-.657 1.512-.605 2.066.145 6.635.469 7.269 8.344.46 5.494 2.846 12.176 11.664 12.796 2.09.154 4.038-.578 5.443-2.015 1.446-1.456 2.216-3.479 2.056-5.419-.178-2.15-1.446-3.944-3.263-5.062-.226-.408-.522-.793-.902-1.117" fill="#231f20" fill-rule="nonzero"/><path d="m133.089 196.168c11.739-32.466 14.524-62.542 15.162-73.394-16.392-5.804-27.685-15.383-33.447-28.639-.427-.967-.822-1.948-1.16-2.935-38.894-9.311-73.022-6.7-73.022-6.7v211.493c42.918-15.265 74.032-48.788 92.467-99.825z" fill="none" stroke="#231f20" stroke-width="2.44"/></g></svg>