<svg clip-rule="evenodd" fill-rule="evenodd" stroke-linejoin="round" stroke-miterlimit="2" viewBox="0 0 560 400" xmlns="http://www.w3.org/2000/svg"><g transform="matrix(1.05834 0 0 1.05834 184.242 19.9944)"><path d="m90.989 115.003c25.455 12.501 54.254 14.315 78.603-1.814l.822-.538.68.708c2.154 2.268 4.308 4.564 6.463 6.832l.567.595-.369.737c-7.256 14.626-11.452 31.067-9.808 47.45.681 7.058 1.956 13.861 3.685 20.721 1.446 5.726 3.175 11.338 4.621 17.036 1.672 6.632 2.834 13.095 3.118 19.955.482 12.5-2.041 24.179-9.779 34.241-8.703 11.339-22.507 18.623-35.206 24.604-12.188 5.754-35.545 15.902-42.943 27.184l-.964 1.502-.992-1.502c-7.37-11.282-30.727-21.43-42.915-27.184-12.699-5.981-26.503-13.265-35.234-24.604-7.71-10.062-10.233-21.741-9.751-34.241.284-6.86 1.418-13.323 3.118-19.955 1.446-5.698 3.175-11.31 4.621-17.036 1.729-6.86 2.976-13.663 3.685-20.721 1.644-16.383-2.551-32.824-9.808-47.45l-.368-.737.566-.595c2.155-2.268 4.309-4.564 6.463-6.832l.681-.708.822.538c24.348 16.129 53.148 14.315 78.602 1.814l.51-.255z" fill="#1f1d1d"/><path d="m90.479 312.09c-7.597-11.622-31.407-21.939-43.425-27.609-25.88-12.216-45.552-25.397-44.304-57.739.793-20.438 8.928-32.484 11.423-57.655 1.587-15.959-2.183-32.456-9.95-48.103 2.183-2.267 4.337-4.563 6.492-6.831 25.029 16.582 54.395 14.371 79.764 1.899 25.369 12.472 54.735 14.683 79.764-1.899 2.155 2.268 4.309 4.564 6.463 6.831-7.738 15.647-11.536 32.144-9.921 48.103 2.495 25.171 10.602 37.217 11.395 57.655 1.276 32.342-18.396 45.523-44.304 57.739-12.018 5.67-35.8 15.987-43.397 27.609z" fill="#a4934e"/><path d="m169.025 202.308c-1.049-3.714-2.098-7.427-3.062-11.169-1.785-7.143-3.089-14.257-3.826-21.57-1.644-16.384 2.126-32.853 8.985-47.706-.538-.567-1.105-1.162-1.644-1.729-23.98 14.201-51.617 13.124-76.675 2.126v80.048z" fill="#ae0001"/><path d="m92.803 302.538c10.658-9.439 28.063-17.064 39.089-22.28 11.707-5.527 25.057-12.415 33.079-22.903 6.888-8.929 8.986-19.332 8.561-30.443-.256-6.435-1.333-12.501-2.92-18.737-.113-.397-.227-.793-.34-1.219h-77.469z" fill="#001d61"/><path d="m10.658 206.956c-.085.426-.198.822-.312 1.219-1.587 6.236-2.664 12.302-2.919 18.737-.454 11.111 1.672 21.514 8.532 30.443 8.05 10.488 21.4 17.376 33.107 22.903 11.027 5.216 28.431 12.841 39.089 22.28v-95.582z" fill="#ae0001"/><path d="m88.155 122.26c-25.058 10.998-52.695 12.075-76.675-2.126-.567.567-1.106 1.162-1.644 1.729 6.86 14.853 10.601 31.322 8.985 47.706-.737 7.313-2.04 14.427-3.855 21.57-.935 3.742-2.012 7.455-3.033 11.169h76.222z" fill="#fff"/><path d="m55.642 130.48v16.412h32.513v12.926h-32.513v42.49h-12.925v-42.49h-23.555c-.114-4.337-.567-8.674-1.333-12.926h24.888v-16.582c4.28.397 8.617.453 12.925.17z" fill="#ae0001"/><path d="m128.434 138.275c-15.222 0-27.524 12.33-27.524 27.524 0 15.193 12.302 27.523 27.524 27.523 15.193 0 27.523-12.33 27.523-27.523 0-15.194-12.33-27.524-27.523-27.524zm0 1.616c14.286 0 25.908 11.593 25.908 25.908 0 14.314-11.622 25.907-25.908 25.907-14.315 0-25.908-11.593-25.908-25.907 0-14.315 11.593-25.908 25.908-25.908z" fill="#1f1d1d"/><circle cx="128.434" cy="165.799" fill="#7d0000" r="24.519"/><circle cx="128.434" cy="165.799" fill="#fff" r="22.903"/><path d="m113.892 150.294h4.904l-4.904 4.648zm5.981 2.834v13.152l7.739-7.936h7.625l-8.702 8.673c2.919 4.337 5.81 8.646 8.73 12.983h-2.438c-4.422 0-5.47-.879-7.681-4.195l-5.273-7.852v12.047h-5.981v-21.231z" fill="#1f1d1d"/><path d="m142.975 161.122v18.878h-5.981v-13.238zm-5.981 1.814v-4.592h4.847z" fill="#ae0001"/><path d="m120.27 263.251c.624-1.446 2.948-4.422 4.706-4.422 1.02 0 .878-1.049.17-1.049-.34 0-.737 0-1.134-.057-1.219-.113-2.381-1.615-1.049-2.664.595-.425 1.474-.737 2.353-1.077 1.984-.766 4.11-1.333 4.337-.992.765 1.077 1.559 1.729 2.211 2.069 1.048.567 2.352.17 3.883.737.68.255 1.02.963.935 1.842-.17 1.417-1.587 5.244-3.486 5.244h-3.345c-1.02-.028-3.26 1.474-1.389 2.721h9.553c1.757 0 1.672-.538 1.729-1.615.113-2.863.68-5.471 2.466-8.136.963-1.474.992-1.672-.596-1.644-.737.029-1.87.142-2.976-.453-1.502-.822-2.948-2.239-3.912-2.891-.453-.312-1.275-.992-1.048-1.361.283-.454.85 0 1.587.425 1.559.907 4.564 1.871 7.001 1.928 1.9.056 3.714-.652 4.536-2.098 1.417-2.466.085-4.649-1.588-6.378-1.559-1.615-3.259-3.344-.68-4.535 2.239-1.02 3.968-.198 4.592 2.268.142.567.34.538.737.17.454-.425 1.105-1.474 1.191-2.239.056-.766-.142-1.219-.567-1.673-.567-.623-1.588-1.077-2.523-1.275-1.502-.341-3.118.226-4.139.878-1.729 1.077-2.919.397-1.502-.85 1.361-1.191 3.798-2.409 5.669-3.855 1.956-1.502 2.608-3.203 2.636-4.337.085-2.636-2.182-3.713-5.13-3.827-1.417.822-2.948 1.956-3.997 2.693-.453.34-.312.51-.255.624.227.368 1.162.057 1.474 0 2.863-.482 3.827-.199 4.167.595.878 2.013-4.337 4.734-6.718 7.54-3.798 4.535 3.061 8.022 4.393 10.998.879 1.871-.935 3.231-3.174 3.373-2.268.114-4.224-1.077-5.386-2.267-.964-1.021-1.247-1.871-1.757-3.402-.879-2.608-2.013-6.378-2.466-8.163-.284-1.049-.199-1.049.51-1.021h.878c.312 0 .454.085.851-.283.453-.397 1.02-.964 1.36-1.191.057-.765.029-1.332.029-2.041 0-.623-.482-.538-.766-.368-1.02.567-2.125.227-2.777-.227-.822-.595-1.106-1.389-1.134-2.154-.057-.992.595-1.899 1.842-2.013 1.191-.113 3.033 1.389 3.005.51v-2.211c0-.311-.312-.283-.709-.17-3.6.993-.793-3.061.652-2.834.709.113.851.907 2.041-.028.539-.426 1.077-.908 1.474-1.361.34-.369.34-.935-.227-1.446-.17-.141-1.275-1.587-1.502-1.729-.907-.482-2.693.284-4.422-.397-.652-.255-1.899-.737-2.409-.992-.596-.312-1.049-.765-1.163-.935-.907-1.219-1.247-1.843-1.53-.624-.567 2.466-.907 2.381-3.855 2.268-1.984-.085-1.276.425-.539 1.502.51.709 1.106 1.418.879 2.211-.369 1.304-1.446 1.673-2.636 1.673-1.021 0-1.843-.057-2.353.056-.765.17-.935.482-.935.822.056.737.878 1.162 1.53 1.248.879.113 1.843.141 2.098.283.368.17.227.539.028 1.162-.226.765-.822 1.899-1.19 2.948-.737 2.013-1.503 4.167-2.154 4.535-.596.369-1.474.199-2.268-.737-.284-.34-.199-1.389-.425-1.615-.936-.907-3.402-2.438-5.896-3.714-1.332-.708-3.487-1.7-5.329-2.267-1.049-.312-2.211-.482-2.324.028-.029.199 0 .482.425.964.623.68.963.822.963 1.219.057 1.02-1.332 2.069-1.502 3.203-.198 1.53 2.041 1.474 3.203 1.587.624.057 3.345.284 4.422.652 1.219.454 2.183 1.389.936 2.58-1.049 1.02-.057 1.615 1.19 1.36 1.899-.34 3.373-1.162 4.28-1.531 1.701-.708.794 1.361 2.126.822.624-.226.539-.368 1.928-.34 1.389.029.907 1.219-.227 1.928-1.673 1.02-3.402 1.672-4.819 2.296-4.79 2.154-7.596 2.636-11.281 3.288-2.552.425-2.552.85-1.049 1.701.397.255.907.652 1.559 1.19.793.68 1.53 1.559 1.871 1.786.425.255.708-.028 1.077-.567.34-.51 1.077-1.049 1.644-1.276 1.502-.566 3.43.822 5.13.766 1.134-.057 3.317-1.049 4.904-2.069 1.219-.822 1.984-1.758 2.069-1.758.539 0 1.049 1.304 1.644 2.041.397.51.426.454.992.425.426-.028 1.531-.085 2.24-.17.51-.057.397-.595.312-1.049-.085-.397-.482-1.956.085-1.956.368 0 1.899.766 2.494 1.73.482.765.113 1.36-.652 1.899-1.899 1.389-6.463 3.174-9.552 4.677-.624.312-1.474.68-1.956 1.162-1.191 1.247-.057 2.693 1.389 3.713-.142 2.636-2.013 6.633-3.742 6.633h-5.272c-1.729 0-2.608 1.757-3.005 2.608h12.189c.992 0 1.19.198 1.842-1.247z" fill="#c3be02"/><path d="m134.556 224.19c.879-.878 1.219-.85 2.438-.85.567-.028 1.616-1.587 2.523-1.304.709.227.907 1.247.368 1.786-.34.34-1.7 1.474-2.749 1.871-2.239.878.255-1.644-2.268-1.162-.397.085-.652 0-.312-.341z" fill="#ae0001"/><path d="m115.763 271.017-1.304-.198c.085-.652.341-1.134.737-1.474.369-.34.851-.51 1.446-.51.652 0 1.134.17 1.502.538.369.34.539.766.539 1.304 0 .284-.057.539-.17.822-.085.284-.284.567-.539.851-.17.226-.482.51-.907.907-.425.396-.68.652-.822.793-.142.142-.255.284-.397.454h2.381l-.255 1.219h-4.167c.057-.34.142-.652.312-.964.142-.284.34-.567.567-.85.227-.256.652-.681 1.247-1.248.482-.453.766-.737.879-.878.227-.255.369-.454.454-.624s.113-.34.113-.482c0-.227-.057-.425-.198-.567-.142-.141-.312-.227-.511-.227-.226 0-.396.086-.567.256-.141.17-.255.453-.34.878zm3.402 2.495c0-.709.113-1.389.34-2.098.283-.879.652-1.531 1.105-1.927.454-.426.964-.652 1.503-.652.567 0 1.02.198 1.36.623.369.397.539.964.539 1.758 0 .68-.114 1.445-.369 2.211-.283.793-.623 1.389-1.077 1.785-.425.426-.935.652-1.502.652-.539 0-.992-.226-1.361-.623-.368-.397-.538-.992-.538-1.729zm1.304.255c0 .368.056.623.17.794.141.141.283.226.482.226.226 0 .453-.113.652-.368.255-.284.51-.907.708-1.814.142-.737.227-1.304.227-1.729 0-.341-.057-.567-.17-.737-.142-.142-.284-.227-.482-.227-.227 0-.454.113-.624.34-.283.34-.51.907-.708 1.757-.17.709-.255 1.304-.255 1.758zm4.025-.255c0-.709.113-1.389.34-2.098.283-.879.652-1.531 1.105-1.927.454-.426.936-.652 1.503-.652.538 0 1.02.198 1.36.623.369.397.539.964.539 1.758 0 .68-.114 1.445-.397 2.211-.255.793-.595 1.389-1.049 1.785-.453.426-.935.652-1.502.652-.539 0-1.021-.226-1.361-.623-.368-.397-.538-.992-.538-1.729zm1.304.255c0 .368.056.623.17.794.113.141.283.226.453.226.255 0 .482-.113.681-.368.255-.284.481-.907.68-1.814.17-.737.255-1.304.255-1.729 0-.341-.057-.567-.198-.737-.114-.142-.256-.227-.454-.227-.227 0-.454.113-.624.34-.283.34-.51.907-.708 1.757-.17.709-.255 1.304-.255 1.758zm5.47-1.814c-.255-.17-.425-.34-.538-.539-.114-.227-.199-.453-.199-.708 0-.284.085-.596.255-.879.171-.312.426-.539.766-.709.34-.198.708-.283 1.134-.283.623 0 1.077.17 1.445.482.34.311.51.737.51 1.218 0 .341-.113.624-.311.879-.17.255-.482.482-.851.652.284.17.482.369.624.624.142.226.198.51.198.822 0 .538-.17.992-.482 1.417-.481.624-1.133.935-1.984.935-.595 0-1.077-.198-1.445-.538-.369-.369-.567-.822-.567-1.389 0-.454.141-.85.397-1.219.255-.368.595-.624 1.048-.765zm.511-1.162c0 .226.056.396.198.538.113.142.283.199.51.199s.454-.086.624-.284c.198-.17.283-.397.283-.624 0-.226-.085-.396-.198-.538-.142-.142-.312-.227-.539-.227s-.453.114-.623.284-.255.396-.255.652zm-.596 3.174c0 .255.057.454.199.624.141.142.312.198.538.198.369 0 .624-.141.822-.453.17-.312.284-.624.284-.992 0-.227-.085-.426-.227-.567-.142-.142-.34-.227-.567-.227-.255 0-.51.142-.737.397-.198.255-.312.595-.312 1.02z" fill="#fff" fill-rule="nonzero"/><path d="m47.592 270.706c-.283-1.106-.623-2.58-1.162-3.685-.624-1.219-3.77-.482-5.357-.17-.794.17-1.559.17-1.701-.199-.255-.595.879-1.02 1.332-1.219 1.673-.793 5.046-1.417 5.386-3.203.057-.935.085-1.871.142-2.806-.341-.028-.766-.028-1.163-.113-.793-.142-.453-.766.114-1.049.425-.199.794-.369 1.162-.567l.085-6.009c-.453-.029-.907-.029-1.587-.029-1.077-.028-.766-.765-.114-1.275.425-.34 1.134-.624 1.644-.879-.056-1.729-.085-4.677-.68-5.612-2.098 3.259-3.571 7.369-4.762 11.111-.113.312-.17.992.34.879 1.021-.227 1.984-.51 2.948-.766.879-.226 1.587.511.227 1.219-.907.482-1.899.992-2.778 1.474-.822.425-.283.907-.17.992.794.851 1.304 1.559 1.984 2.353.964 1.134.539 2.239-1.02.765-.879-.85-1.928-2.097-2.24-2.409-.425-.482-.68-.68-.935 0-.283.709-.595 1.162-1.134 1.162-.397 0-.992-.737-1.02-1.842 0-.709-.652-.511-1.077-.057-1.106 1.134-2.353 2.041-3.459 3.175-1.162 1.19-2.012.623-.737-.879.879-1.077 1.588-2.098 2.523-3.118.68-.765.51-1.049.199-1.616-.652-1.19-.993-3.259-.964-4.535.057-1.871.964-1.559 1.19.028.199 1.701 1.219 4.11 2.693 4.082 2.268-.028 2.835-7.455 3.345-9.439 1.02-3.997 3.203-5.244 3.968-7.426.227-.596.34-1.219.085-1.815-.34-.878-1.247-1.417-1.644-.085-.34 1.219-.482 2.013-.793 3.26-.199-1.105-.312-1.701-.454-2.466-.255-1.417-.567-1.474-1.049.113-.992 3.288-1.332 4.933-2.267 8.504.397-3.005.453-4.677.397-7.738-1.276 3.203-2.495 7.2-3.459 10.488.624-3.175 1.644-7.058 1.985-10.233-3.997 9.212-7.994 15.618-8.759 15.221-.766-.425.935-5.697 5.782-16.015.511-1.077.114-1.559-.538-.397-2.098 3.77-4.904 8.136-7.002 11.934 1.758-3.997 4.167-8.504 6.01-12.614.68-1.502.396-1.616-.567-.34-4.762 6.349-6.832 9.637-7.767 8.844-.879-.737 3.997-7.994 6.038-11.565.793-1.389 1.02-2.041-.454-.822-2.183 1.757-4.393 3.571-6.661 5.244 1.927-2.211 4.138-4.11 6.179-6.236.992-1.021 1.106-1.616-.567-.511-5.442 3.657-8.418 5.159-8.702 4.536-.312-.652 2.268-3.685 5.953-7.37.793-.822.793-1.502-.51-.765-2.013 1.162-4.281 2.04-6.293 3.174 1.757-1.417 3.741-2.636 5.556-4.025.595-.453 1.303-1.077-.199-.935-3.883.397-7.965 1.7-8.135.907-.142-.766 1.049-1.984 5.471-4.025.822-.397.935-.709-.199-.652-1.785.085-3.628.397-5.414.482 1.871-.511 3.43-.879 5.244-1.446 1.219-.368 1.077-1.077-.227-1.049-6.037.057-6.803-.34-6.803-1.02 0-2.154 7.597-4.706 13.408-5.754 8.674-1.531 14.003 2.494 13.804 7.823-.085 2.806-2.409 5.131-3.685 7.2-1.162 1.927 1.021 1.36 2.892 1.105 1.247-.17 2.211-.283 3.344-.397.964-.113 1.077-.765.879-1.729-.085-.482-.397-.453-.68-.482-.794-.085-2.126 0-2.778-.028-.51-.028-.624-.765.085-.794h1.899c.992-.028 1.021-1.218-1.077-1.218-.255 0-1.276.113-1.276.085.227-.652.964-1.219 1.616-1.333.709-.141.879-1.304 1.729-1.389.851-.056.936.766 1.701.964.283.057.482.114.68.34.227-.226.425-.283.709-.34.737-.198.822-1.02 1.672-.964.879.085 1.021 1.248 1.758 1.389.652.114 1.389.681 1.615 1.333 0 .028-1.048-.085-1.304-.085-2.069 0-2.04 1.19-1.077 1.218h1.899c.737.029.596.766.086.794-.652.028-1.985-.057-2.75.028-.312.029-.624 0-.709.482-.17.964-.056 1.616.879 1.729 1.162.114 2.126.227 3.373.397 1.871.255 4.054.822 2.863-1.105-1.275-2.069-3.571-4.394-3.685-7.2-.17-5.329 5.159-9.354 13.833-7.823 5.811 1.048 13.379 3.6 13.379 5.754 0 .68-.737 1.077-6.775 1.02-1.332-.028-1.474.681-.255 1.049 1.843.567 3.402.935 5.244 1.446-1.757-.085-3.628-.397-5.414-.482-1.105-.057-1.02.255-.17.652 4.422 2.041 5.612 3.259 5.471 4.025-.17.793-4.28-.51-8.135-.907-1.503-.142-.794.482-.199.935 1.814 1.389 3.77 2.608 5.556 4.025-2.013-1.134-4.309-2.012-6.321-3.174-1.276-.737-1.304-.057-.51.765 3.713 3.685 6.264 6.718 5.981 7.37-.312.623-3.26-.879-8.731-4.536-1.644-1.105-1.531-.51-.567.511 2.041 2.126 4.28 4.025 6.208 6.236-2.268-1.673-4.479-3.487-6.661-5.244-1.474-1.219-1.248-.567-.454.822 2.013 3.571 6.888 10.828 6.038 11.565-.964.793-3.033-2.495-7.767-8.844-.964-1.276-1.247-1.162-.567.34 1.843 4.11 4.224 8.617 5.981 12.614-2.069-3.798-4.875-8.164-7.001-11.934-.652-1.162-1.021-.68-.511.397 4.848 10.318 6.52 15.59 5.783 16.015-.765.397-4.79-6.009-8.759-15.221.34 3.175 1.332 7.058 1.956 10.233-.935-3.288-2.183-7.285-3.43-10.488-.085 3.061-.028 4.733.369 7.738-.936-3.571-1.276-5.216-2.268-8.504-.453-1.587-.794-1.53-1.049-.113-.141.765-.226 1.361-.453 2.466-.284-1.247-.454-2.041-.794-3.26-.368-1.332-1.275-.793-1.644.085-.227.596-.113 1.219.085 1.815.765 2.182 2.948 3.429 3.997 7.426.51 1.984 1.077 9.411 3.316 9.439 1.474.028 2.495-2.381 2.721-4.082.199-1.587 1.134-1.899 1.163-.028.056 1.276-.284 3.345-.964 4.535-.312.567-.482.851.227 1.616.935 1.02 1.615 2.041 2.522 3.118 1.276 1.502.397 2.069-.737.879-1.105-1.134-2.352-2.041-3.458-3.175-.453-.454-1.077-.652-1.105.057 0 1.105-.596 1.842-1.021 1.842-.538 0-.822-.453-1.105-1.162-.255-.68-.51-.482-.964 0-.283.312-1.361 1.559-2.239 2.409-1.559 1.474-1.956.369-.992-.765.68-.794 1.19-1.502 1.984-2.353.085-.085.623-.567-.17-.992-.907-.482-1.871-.992-2.778-1.474-1.361-.708-.68-1.445.198-1.219.992.256 1.928.539 2.948.766.539.113.454-.567.369-.879-1.191-3.742-2.693-7.852-4.791-11.111-.567.935-.595 3.883-.652 5.612.482.255 1.219.539 1.644.879.652.51.964 1.247-.141 1.275-.652 0-1.134 0-1.588.029l.114 6.009c.34.198.737.368 1.134.567.566.283.907.907.141 1.049-.397.085-.85.085-1.162.113.057.935.085 1.871.142 2.806.312 1.786 3.713 2.41 5.386 3.203.453.199 1.587.624 1.332 1.219-.17.369-.907.369-1.729.199-1.559-.312-4.706-1.049-5.329.17-.567 1.105-.907 2.579-1.191 3.685z" fill="#1f1d1d"/><path d="m42.717 249.9c-.681 1.701-1.276 3.43-1.786 5.102-.113.312-.17.992.34.879 1.021-.227 1.984-.51 2.948-.766.879-.226 1.587.511.227 1.219-.907.482-1.899.992-2.778 1.474-.822.425-.283.907-.17.992.794.851 1.304 1.559 1.984 2.353.964 1.134.539 2.239-1.02.765-.879-.85-1.928-2.097-2.24-2.409-.425-.482-.68-.68-.935 0-.283.709-.595 1.162-1.134 1.162-.397 0-.992-.737-1.02-1.842 0-.709-.652-.511-1.077-.057-1.106 1.134-2.353 2.041-3.459 3.175-1.162 1.19-2.012.623-.737-.879.879-1.077 1.588-2.098 2.523-3.118.68-.765.51-1.049.199-1.616-.652-1.19-.993-3.259-.964-4.535.057-1.871.964-1.559 1.19.028.199 1.701 1.219 4.11 2.693 4.082 2.268-.028 2.835-7.455 3.345-9.439 1.105.964 1.389 1.843 1.871 3.43zm7.483-22.507c.765-.085 2.098 0 2.75-.028.51-.028.651-.765-.086-.794h-1.899c-.963-.028-.992-1.218 1.077-1.218.256 0 1.304.113 1.304.085-.226-.652-.963-1.219-1.615-1.333-.936-.17-3.26.256-3.26 1.9 0 .765.935 1.388 1.729 1.388zm-5.187 0c-.794-.085-2.126 0-2.778-.028-.51-.028-.624-.765.085-.794h1.899c.992-.028 1.021-1.218-1.077-1.218-.255 0-1.276.113-1.276.085.227-.652.964-1.219 1.616-1.333.936-.17 3.26.256 3.26 1.9 0 .765-.936 1.388-1.729 1.388zm7.483 22.507c.652 1.701 1.247 3.43 1.786 5.102.085.312.17.992-.369.879-1.02-.227-1.956-.51-2.948-.766-.878-.226-1.559.511-.198 1.219.907.482 1.871.992 2.778 1.474.793.425.255.907.17.992-.794.851-1.304 1.559-1.984 2.353-.964 1.134-.567 2.239.992.765.878-.85 1.956-2.097 2.239-2.409.454-.482.709-.68.964 0 .283.709.567 1.162 1.105 1.162.425 0 1.021-.737 1.021-1.842.028-.709.652-.511 1.105-.057 1.106 1.134 2.353 2.041 3.458 3.175 1.134 1.19 2.013.623.737-.879-.907-1.077-1.587-2.098-2.522-3.118-.709-.765-.539-1.049-.227-1.616.68-1.19 1.02-3.259.964-4.535-.029-1.871-.964-1.559-1.163.028-.226 1.701-1.247 4.11-2.721 4.082-2.239-.028-2.806-7.455-3.316-9.439-1.134.964-1.389 1.843-1.871 3.43z" fill="#d5ad34"/><path d="m45.325 223.283c.311 0 .566.142.566.341 0 .17-.255.34-.566.34-.312 0-.596-.17-.596-.34 0-.199.284-.341.596-.341zm4.563 0c-.312 0-.595.142-.595.341 0 .17.283.34.595.34s.567-.17.567-.34c0-.199-.255-.341-.567-.341z" fill="#fff"/><path d="m90.479 112.651c-16.469 0-31.407-2.155-47.535-4.592-2.495-.369-2.438-3.26-.567-3.6-1.276-4.649-2.551-9.298-3.855-13.946-.057-.425.028-.737.226-1.021-.992-1.105-1.984-2.239-2.976-3.373-.227.057-.453.114-.709.114-1.332 0-2.437-.993-2.437-2.24 0-.708.397-1.36.992-1.757-.936-.851-2.835-2.665-3.685-3.402-1.361-1.19-1.106-2.126-.369-2.692-.566-1.049-1.275-2.523-2.466-3.005l-.198-.085c.255.312.425.737.425 1.219 0 1.049-.879 1.927-1.956 1.927s-1.927-.878-1.927-1.927c0-.992.737-1.814 1.672-1.928-.794-.34-1.587-.68-2.353-1.049.256.312.397.709.397 1.134 0 1.077-.878 1.956-1.956 1.956-1.077 0-1.927-.879-1.927-1.956s.85-1.927 1.927-1.927h.199c-.595-.397-1.162-.822-1.616-1.332 0 .113.029.226.029.34 0 1.048-.879 1.927-1.956 1.927s-1.928-.879-1.928-1.927c0-1.077.851-1.956 1.928-1.956.312 0 .623.085.878.198-.481-.793-.878-1.644-1.218-2.551-.171.907-.964 1.616-1.928 1.616-1.049 0-1.927-.879-1.927-1.956 0-1.049.878-1.928 1.927-1.928.539 0 1.021.199 1.361.539-.284-.964-.482-1.956-.681-2.92-.255.737-.963 1.276-1.814 1.276-1.077 0-1.956-.879-1.956-1.927 0-1.078.879-1.956 1.956-1.956.624 0 1.162.283 1.531.737-.057-.255-.085-.539-.142-.794-.057-.51-.113-1.02-.142-1.559-.311.68-.992 1.134-1.785 1.134-1.049 0-1.928-.879-1.928-1.956 0-1.049.879-1.928 1.928-1.928.765 0 1.389.426 1.729 1.021 0-.737.056-1.474.141-2.239v-.085c-.368.481-.935.793-1.559.793-1.077 0-1.955-.878-1.955-1.927 0-1.077.878-1.956 1.955-1.956.822 0 1.531.538 1.815 1.275.141-.907.34-1.785.595-2.636-.369.34-.851.539-1.389.539-1.049 0-1.928-.85-1.928-1.928 0-1.077.879-1.955 1.928-1.955.964 0 1.757.708 1.927 1.615.284-.793.596-1.559.936-2.267-.34.311-.794.51-1.304.51-1.077 0-1.928-.879-1.928-1.956s.851-1.928 1.928-1.928 1.956.851 1.956 1.928c0 .085 0 .17-.029.255.454-.794.964-1.559 1.503-2.296-.255.142-.567.227-.879.227-1.077 0-1.927-.879-1.927-1.956s.85-1.928 1.927-1.928 1.956.851 1.956 1.928c0 .198-.028.368-.085.539.51-.596 1.049-1.134 1.644-1.644-.17.028-.312.056-.482.056-1.077 0-1.956-.879-1.956-1.956s.879-1.927 1.956-1.927 1.927.85 1.927 1.927c0 .284-.056.567-.17.794.624-.453 1.248-.907 1.928-1.304h-.255c-1.077 0-1.956-.85-1.956-1.927s.879-1.956 1.956-1.956 1.927.879 1.927 1.956c0 .425-.141.85-.397 1.162.851-.454 1.73-.851 2.608-1.219h-.056c-1.049 0-1.928-.879-1.928-1.928 0-1.077.879-1.955 1.928-1.955 1.077 0 1.955.878 1.955 1.955 0 .567-.255 1.106-.68 1.474.85-.311 1.729-.595 2.636-.822-.963-.113-1.729-.935-1.729-1.927 0-1.077.879-1.956 1.956-1.956s1.928.879 1.928 1.956c0 .652-.341 1.247-.851 1.616.907-.227 1.814-.397 2.75-.511-.851-.226-1.474-.992-1.474-1.899 0-1.077.85-1.956 1.927-1.956s1.956.879 1.956 1.956c0 .737-.425 1.361-1.02 1.701.85-.113 1.729-.17 2.636-.227-.737-.283-1.247-.992-1.247-1.814 0-1.077.85-1.956 1.927-1.956s1.956.879 1.956 1.956c0 .765-.454 1.417-1.106 1.729h2.353c-.624-.312-1.049-.964-1.049-1.729 0-1.077.851-1.956 1.928-1.956s1.956.879 1.956 1.956c0 .794-.482 1.474-1.163 1.786.766.028 1.559.085 2.325.142-.595-.312-1.021-.964-1.021-1.701 0-1.077.879-1.956 1.956-1.956 1.049 0 1.928.879 1.928 1.956 0 .879-.567 1.616-1.361 1.842.397.057.794.085 1.191.142 9.269-8.107 23.583-8.022 35.006-5.726-2.721-1.162-4.62-3.855-4.62-7.001 0-3.798 2.806-6.973 6.463-7.54v-2.268h-4.195v-2.324h4.195v-6.123h2.324v6.123h4.195v2.324h-4.195v2.268c3.657.567 6.435 3.742 6.435 7.54 0 3.146-1.871 5.839-4.592 7.001 11.423-2.296 25.737-2.381 35.006 5.726.397-.057.794-.085 1.191-.142-.794-.226-1.361-.963-1.361-1.842 0-1.077.851-1.956 1.928-1.956s1.956.879 1.956 1.956c0 .737-.425 1.389-1.049 1.701.794-.057 1.587-.114 2.353-.142-.681-.312-1.163-.992-1.163-1.786 0-1.077.879-1.956 1.956-1.956 1.049 0 1.928.879 1.928 1.956 0 .765-.425 1.417-1.049 1.729h2.353c-.652-.312-1.106-.964-1.106-1.729 0-1.077.879-1.956 1.956-1.956 1.049 0 1.928.879 1.928 1.956 0 .822-.511 1.531-1.248 1.814.879.057 1.758.114 2.636.227-.595-.34-1.02-.964-1.02-1.701 0-1.077.879-1.956 1.956-1.956s1.927.879 1.927 1.956c0 .907-.623 1.673-1.474 1.899.907.114 1.843.284 2.75.511-.539-.369-.85-.964-.85-1.616 0-1.077.85-1.956 1.927-1.956s1.956.879 1.956 1.956c0 .992-.765 1.814-1.729 1.927.907.227 1.786.511 2.636.822-.425-.368-.68-.907-.68-1.474 0-1.077.878-1.955 1.927-1.955 1.077 0 1.956.878 1.956 1.955 0 1.049-.879 1.928-1.956 1.928h-.028c.879.368 1.757.765 2.608 1.219-.255-.312-.397-.737-.397-1.162 0-1.077.85-1.956 1.927-1.956s1.956.879 1.956 1.956-.879 1.927-1.956 1.927h-.255c.68.397 1.304.851 1.928 1.304-.114-.227-.17-.51-.17-.794 0-1.077.85-1.927 1.927-1.927s1.928.85 1.928 1.927-.851 1.956-1.928 1.956c-.17 0-.312-.028-.482-.056.567.51 1.134 1.048 1.644 1.644-.056-.171-.085-.341-.085-.539 0-1.077.879-1.928 1.956-1.928 1.049 0 1.928.851 1.928 1.928s-.879 1.956-1.928 1.956c-.34 0-.624-.085-.907-.227.567.737 1.049 1.502 1.531 2.296-.029-.085-.029-.17-.029-.255 0-1.077.879-1.928 1.956-1.928 1.049 0 1.928.851 1.928 1.928s-.879 1.956-1.928 1.956c-.51 0-.964-.199-1.332-.51.368.708.68 1.474.964 2.267.17-.907.963-1.615 1.899-1.615 1.077 0 1.956.878 1.956 1.955 0 1.078-.879 1.928-1.956 1.928-.51 0-.992-.199-1.361-.539.227.851.425 1.729.596 2.636.283-.737.992-1.275 1.814-1.275 1.077 0 1.955.879 1.955 1.956 0 1.049-.878 1.927-1.955 1.927-.624 0-1.219-.312-1.559-.793v.085c.085.765.141 1.502.141 2.239.312-.595.964-1.021 1.701-1.021 1.077 0 1.956.879 1.956 1.928 0 1.077-.879 1.956-1.956 1.956-.765 0-1.446-.454-1.757-1.134-.029.539-.085 1.049-.17 1.559-.029.255-.057.539-.114.794.369-.454.907-.737 1.531-.737 1.077 0 1.927.878 1.927 1.956 0 1.048-.85 1.927-1.927 1.927-.85 0-1.559-.539-1.843-1.276-.17.964-.368 1.956-.652 2.92.341-.34.822-.539 1.333-.539 1.077 0 1.956.879 1.956 1.928 0 1.077-.879 1.956-1.956 1.956-.936 0-1.729-.709-1.899-1.616-.341.907-.737 1.758-1.219 2.551.255-.113.538-.198.878-.198 1.049 0 1.928.879 1.928 1.956 0 1.048-.879 1.927-1.928 1.927-1.077 0-1.955-.879-1.955-1.927 0-.114 0-.227.028-.34-.482.51-1.021.935-1.616 1.332h.199c1.077 0 1.927.85 1.927 1.927s-.85 1.956-1.927 1.956c-1.078 0-1.956-.879-1.956-1.956 0-.425.142-.822.397-1.134-.766.369-1.559.709-2.381 1.049.963.114 1.7.936 1.7 1.928 0 1.049-.878 1.927-1.927 1.927-1.077 0-1.956-.878-1.956-1.927 0-.482.17-.907.425-1.219l-.227.085c-1.162.482-1.899 1.956-2.437 3.005.737.566.992 1.502-.369 2.692-.85.737-2.749 2.551-3.685 3.402.596.397.992 1.049.992 1.757 0 1.247-1.105 2.24-2.437 2.24-.255 0-.511-.057-.737-.114-.992 1.134-1.985 2.268-2.977 3.373.199.284.312.596.227 1.021-1.275 4.648-2.551 9.297-3.855 13.946 1.899.34 1.956 3.231-.538 3.6-16.129 2.437-31.096 4.592-47.536 4.592zm54.509-37.842c-1.248-.68-3.657-.453-2.325 2.24.567 1.105 1.588 2.948 1.814 3.883.142.595-.283.85-.737.17-1.02-1.502-2.012-3.912-3.911-4.507-3.033-.964-1.588 1.672-1.729 2.268-.312 1.389-1.559 1.105-1.843 2.352-.227 1.021 1.049 2.07.907 2.977-.085.51-1.36.963-1.19 1.899.141.822 1.304 1.077 2.126.907 2.154-.482 4.45-2.523 5.329-2.353.028 0 .085.029.113.029.17.453.482.822.879 1.105-4.252 4.138-11.282 3.487-12.387-3.883.85-.199 1.502-.936 1.502-1.843 0-1.02-.879-1.871-1.956-1.871s-1.927.851-1.927 1.871c0 .907.623 1.644 1.474 1.843 0 3.231-8.221 8.107-12.331.425-.028-.057-.963-2.013-.567-1.928.964.199 1.077-1.077 1.701-.963.879.198 2.211 2.919 4.025 4.195.709.482 1.871.652 2.325-.057.51-.765-.482-1.672-.369-2.183.198-.907 1.757-1.388 1.928-2.437.226-1.247-1.049-1.474-.794-2.863.085-.595 2.438-2.495-.737-2.75-2.013-.141-3.827 1.701-5.329 2.693-.68.454-.992.057-.652-.425.595-.765 2.381-2.069 3.316-2.863 1.276-1.134 1.361-1.899.369-2.523 6.434-7.795 15.42-17.857 7.256-35.857 13.861.851 24.151 6.094 24.151 20.239 0 8.674-3.714 14.456-10.431 20.21zm-51.278-46.968c.681 12.698 2.381 22.478 4.337 31.492-.793 1.133-2.636 3.401-4.11 5.244 1.361-.114 2.948.708 1.276 2.777-.766.964-2.154 2.552-2.608 3.43-.255.51.113.851.709.312 1.332-1.276 2.777-3.401 4.79-3.572 3.175-.311 1.191 1.956 1.191 2.58 0 1.417 1.303 1.389 1.303 2.693 0 1.049-1.474 1.786-1.502 2.721-.028.51 1.106 1.219.737 2.097-.312.766-1.502.794-2.268.426-2.012-.936-3.798-3.402-4.705-3.43-.595-.028-.51 1.19-1.417 1.219-.851 12.784 10.885 9.297 11.735 3.288-.85-.199-1.502-.936-1.502-1.814 0-1.049.878-1.899 1.955-1.899 1.078 0 1.928.85 1.928 1.899 0 .878-.624 1.615-1.474 1.814.794 6.264 7.937 8.277 12.274 2.948.113-.142 1.36-1.701.85-1.786-.964-.17-.595-1.417-1.191-1.502-.907-.17-3.174 1.842-5.329 2.352-.822.17-1.984-.085-2.125-.907-.171-.935 1.077-1.389 1.162-1.899.17-.935-1.106-1.956-.879-2.976.255-1.276 1.531-.992 1.842-2.381.114-.567-1.332-3.203 1.701-2.239 1.928.595 2.891 2.976 3.94 4.478.454.68.879.425.737-.142-.255-.935-1.389-2.749-1.956-3.855-1.304-2.239-.226-3.543 1.219-2.863 6.491-6.547 11.027-16.865 8.872-25.879-3.571-14.881-18.934-15.278-31.492-14.626zm-57.739 46.968c1.247-.68 3.656-.453 2.324 2.24-.567 1.105-1.587 2.948-1.814 3.883-.17.595.283.85.737.17 1.02-1.502 1.984-3.912 3.911-4.507 3.033-.964 1.588 1.672 1.729 2.268.284 1.389 1.56 1.105 1.843 2.352.198 1.021-1.049 2.07-.907 2.977.085.51 1.36.963 1.19 1.899-.141.822-1.303 1.077-2.126.907-2.182-.482-4.45-2.523-5.328-2.353-.057 0-.086.029-.114.029-.17.453-.482.822-.879 1.105 4.224 4.138 11.282 3.487 12.387-3.883-.85-.199-1.502-.936-1.502-1.843 0-1.02.879-1.871 1.956-1.871 1.049 0 1.927.851 1.927 1.871 0 .907-.623 1.644-1.502 1.843.029 3.231 8.249 8.107 12.33.425.057-.057.993-2.013.596-1.928-.964.199-1.106-1.077-1.701-.963-.879.198-2.211 2.919-4.053 4.195-.681.482-1.871.652-2.296-.057-.511-.765.481-1.672.368-2.183-.198-.907-1.757-1.388-1.956-2.437-.198-1.247 1.077-1.474.822-2.863-.085-.595-2.437-2.495.737-2.75 2.013-.141 3.799 1.701 5.329 2.693.681.454.992.057.652-.425-.595-.765-2.381-2.069-3.316-2.863-1.276-1.134-1.389-1.899-.369-2.523-6.434-7.795-15.42-17.857-7.256-35.857-13.861.851-24.179 6.094-24.179 20.239 0 8.674 3.742 14.456 10.46 20.21zm51.277-46.968c-.681 12.698-2.381 22.478-4.366 31.492.822 1.133 2.665 3.401 4.111 5.244-1.333-.114-2.92.708-1.248 2.777.766.964 2.155 2.552 2.58 3.43.283.51-.085.851-.681.312-1.332-1.276-2.777-3.401-4.79-3.572-3.175-.311-1.19 1.956-1.19 2.58 0 1.417-1.304 1.389-1.304 2.693 0 1.049 1.474 1.786 1.502 2.721.028.51-1.105 1.219-.737 2.097.312.766 1.502.794 2.268.426 2.012-.936 3.798-3.402 4.705-3.43.595-.028.51 1.19 1.417 1.219.851 12.784-10.884 9.297-11.735 3.288.851-.199 1.474-.936 1.474-1.814 0-1.049-.85-1.899-1.927-1.899s-1.956.85-1.956 1.899c0 .878.652 1.615 1.502 1.814-.793 6.264-7.937 8.277-12.302 2.948-.113-.142-1.332-1.701-.85-1.786.992-.17.623-1.417 1.219-1.502.907-.17 3.174 1.842 5.329 2.352.822.17 1.984-.085 2.126-.907.17-.935-1.106-1.389-1.191-1.899-.142-.935 1.134-1.956.907-2.976-.283-1.276-1.531-.992-1.842-2.381-.114-.567 1.332-3.203-1.701-2.239-1.928.595-2.891 2.976-3.94 4.478-.454.68-.879.425-.737-.142.227-.935 1.389-2.749 1.956-3.855 1.304-2.239.198-3.543-1.219-2.863-6.491-6.547-11.027-16.865-8.872-25.879 3.543-14.881 18.906-15.278 31.492-14.626z" fill="#a4934e"/><path d="m90.479 316.143c-20.125.171-39.06-1.19-50.2-4.62v-19.473c0-3.742-6.264-4.762-15.817-4.876-7.766-.085-18.339-.141-24.434-.113 1.446 3.685 2.863 7.37 4.309 11.026-2.126 6.095-2.948 7.937-4.337 12.104 5.357.028 19.077.028 19.077.028v12.897c0 4.933.368 4.848 4.988 7.484 14.287 8.078 57.712 9.694 66.414 9.552 8.702.142 52.128-1.474 66.385-9.552 4.649-2.636 4.989-2.551 4.989-7.484v-12.897s13.719 0 19.105-.028c-1.389-4.167-2.211-6.009-4.365-12.104 1.446-3.656 2.891-7.341 4.337-11.026-6.095-.028-16.667.028-24.434.113-9.581.114-15.817 1.134-15.817 4.876v19.473c-11.168 3.43-30.075 4.791-50.2 4.62z" fill="#1f1d1d"/><path d="m.964 309.511c1.304-3.827 2.778-7.597 4.138-11.424-1.36-3.429-2.721-6.888-4.053-10.317 7.795-.057 15.618 0 23.413.113 2.183 0 11.31-.085 14.23 2.409.595.567.822 1.021.793 1.361-.028.425-.425.737-1.218 1.077-1.985.822-5.755 1.616-6.463 1.757-4.337.993-9.241 2.098-11.48 4.252-.851.822-1.247 1.644-1.247 2.92v7.852zm118.031 6.349c7.143-.595 15.023-1.559 21.882-3.685 5.159-1.474 17.291-4.535 20.296-8.645v19.586c0 4.819-.51 4.536-4.649 6.888-7.596 4.281-22.053 6.293-30.755 7.285-7.143.851-14.343 1.418-21.542 1.786-9.581.482-17.915.482-27.496 0-7.199-.368-14.399-.935-21.542-1.786-8.702-.992-23.159-3.004-30.755-7.285-4.139-2.352-4.649-2.069-4.649-6.888v-19.586c3.005 4.11 15.137 7.171 20.267 8.645 6.888 2.126 14.768 3.09 21.883 3.685 15.392 1.332 41.668 1.332 57.06 0zm60.999-6.349c-1.304-3.827-2.806-7.597-4.138-11.424 1.36-3.429 2.693-6.888 4.053-10.317-7.795-.057-15.618 0-23.413.113-2.183 0-11.31-.085-14.23 2.409-.595.567-.822 1.021-.793 1.361.028.425.425.737 1.19 1.077 2.013.822 5.783 1.616 6.491 1.757 4.337.993 9.241 2.098 11.48 4.252.822.822 1.219 1.644 1.219 2.92v7.852zm-38.606-16.668v18.482c3.911-1.106 19.19-4.961 19.757-9.496.113-.964-.227-1.757-.879-2.466-1.984-2.098-6.916-3.203-11.253-4.195-1.389-.312-6.265-1.333-7.625-2.325zm-101.818 0v18.482c-3.911-1.106-19.218-4.961-19.756-9.496-.142-.964.226-1.757.878-2.466 1.984-2.098 6.917-3.203 11.253-4.195 1.389-.312 6.265-1.333 7.625-2.325z" fill="#c3be02"/><g fill-rule="nonzero"><path d="m155.334 328.162c-1.077.34-2.155.68-3.232 1.02v-5.952c0-1.247-.056-2.041-.198-2.381s-.369-.539-.68-.652c-.312-.114-.709-.114-1.134 0-.567.142-1.077.453-1.503.85-.453.425-.765.879-.935 1.418-.17.538-.227 1.445-.227 2.749v5.301c-1.077.283-2.154.567-3.231.822v-11.764c.992-.226 1.984-.482 2.976-.708v1.729c1.077-1.616 2.41-2.608 4.054-3.062.708-.198 1.36-.283 1.927-.226.595.085 1.049.255 1.361.538.283.284.51.652.623 1.106.114.425.199 1.105.199 2.012zm-17.433-1.049c-.425.199-1.049.51-1.956.851-.878.368-1.474.652-1.757.878-.425.34-.624.766-.624 1.191 0 .453.17.822.511 1.077.34.255.765.34 1.275.255.595-.113 1.134-.425 1.672-.907.369-.34.624-.737.766-1.191.057-.283.113-.793.113-1.53zm-4.308-1.729c-.992 0-1.956 0-2.92-.028.34-1.219.907-2.154 1.701-2.863.793-.68 1.984-1.134 3.571-1.446 1.446-.255 2.523-.312 3.232-.113.68.198 1.19.482 1.474.935.283.454.425 1.333.425 2.693 0 1.219-.028 2.438-.057 3.657 0 1.02.057 1.785.142 2.267.113.454.312.936.595 1.418-1.049.255-2.126.51-3.203.708-.085-.17-.17-.453-.312-.85-.028-.17-.085-.284-.113-.34-.539.652-1.106 1.162-1.757 1.559-.624.368-1.276.623-1.985.765-1.247.227-2.239.057-2.948-.482-.737-.538-1.077-1.332-1.077-2.353 0-.651.142-1.275.482-1.87.34-.567.794-1.049 1.389-1.418.567-.396 1.446-.765 2.551-1.19 1.502-.539 2.551-.992 3.118-1.361v-.311c0-.596-.142-1.021-.453-1.219-.312-.199-.879-.199-1.729-.057-.567.113-1.021.312-1.361.595-.312.255-.567.709-.765 1.304zm-4.649-2.948v2.523c-.737.113-1.474.198-2.211.312v4.818c0 .993.028 1.559.057 1.701.056.17.141.284.312.369.141.085.311.113.538.085.284-.057.709-.199 1.276-.51.113.822.198 1.615.283 2.409-.737.425-1.587.737-2.551.85-.567.085-1.077.057-1.531-.056-.482-.142-.822-.341-1.048-.624-.199-.283-.341-.68-.454-1.191-.057-.34-.085-1.077-.085-2.211v-5.243c-.51.056-.992.113-1.474.17v-2.523c.482-.057.964-.085 1.474-.17v-2.353c1.049-.765 2.126-1.502 3.203-2.268v4.224c.737-.085 1.474-.198 2.211-.312zm-12.075 13.408v-12.019c1.077-.085 2.126-.17 3.203-.283v11.99c-1.077.113-2.126.227-3.203.312zm0-13.635v-2.948c1.077-.085 2.126-.17 3.203-.283v2.92c-1.077.113-2.126.226-3.203.311z" fill="#ae0001"/><path d="m107.175 336.581c-.851-1.956-1.644-3.94-2.466-5.925-.822-1.984-1.645-3.968-2.467-5.952 1.134-.057 2.268-.085 3.402-.142.368 1.021.765 2.041 1.134 3.033.368 1.021.765 2.013 1.162 3.033.227.68.425 1.332.652 2.013.17-.539.283-.879.34-1.049.085-.34.227-.709.34-1.049.369-1.049.765-2.098 1.162-3.146.369-1.049.766-2.098 1.163-3.147 1.105-.085 2.21-.17 3.288-.255-.794 2.069-1.616 4.139-2.41 6.208-.793 2.069-1.615 4.138-2.409 6.208-.992.056-1.928.113-2.891.17zm-9.184-6.718c-.029-.936-.255-1.644-.709-2.126-.482-.454-1.02-.709-1.672-.681-.709 0-1.276.284-1.729.794-.482.51-.681 1.191-.681 2.069 1.588 0 3.203-.028 4.791-.056zm-.199 3.259c1.077.171 2.154.312 3.232.454-.426 1.19-1.078 2.098-1.956 2.721-.879.652-2.013.992-3.345.992-2.098.029-3.685-.623-4.677-2.012-.822-1.106-1.219-2.523-1.219-4.195 0-1.021.142-1.928.397-2.693.255-.794.652-1.474 1.19-2.069 1.049-1.134 2.381-1.701 3.997-1.73 1.786-.028 3.232.539 4.28 1.701.511.595.907 1.332 1.134 2.239.255.908.369 1.985.369 3.204-2.693.085-5.386.141-8.05.17.028.935.283 1.7.765 2.211.51.538 1.134.793 1.871.765.482 0 .907-.142 1.247-.425.34-.284.595-.737.765-1.333zm-23.895 3.374v-16.696c1.134.057 2.268.113 3.401.17v7.398c1.134-1.162 2.296-2.352 3.43-3.543 1.134-1.19 2.268-2.409 3.43-3.628 1.502.028 3.033.057 4.564.057-1.078 1.077-2.126 2.182-3.175 3.231-1.049 1.077-2.126 2.126-3.175 3.203 1.106 1.729 2.211 3.458 3.317 5.187 1.105 1.729 2.239 3.43 3.344 5.159-1.474 0-2.919-.028-4.393-.057-.765-1.332-1.559-2.664-2.296-3.996-.765-1.333-1.531-2.693-2.296-4.025-.936.907-1.843 1.785-2.75 2.664v5.074c-1.133-.085-2.267-.142-3.401-.198zm-13.124-1.219v-3.175c1.049.113 2.126.227 3.203.34v3.175c-1.077-.114-2.154-.227-3.203-.34zm-6.151-6.945c1.077.482 2.183.964 3.288 1.446-.51 1.785-1.361 3.004-2.523 3.741-1.162.709-2.664.964-4.478.652-2.211-.34-4.054-1.417-5.499-3.203-.709-.879-1.248-1.899-1.616-3.004-.34-1.106-.539-2.325-.539-3.629 0-1.389.199-2.607.539-3.6.368-1.02.907-1.842 1.644-2.466 1.446-1.247 3.316-1.672 5.697-1.275 2.041.34 3.714 1.19 4.989 2.579.766.822 1.332 1.899 1.729 3.288-1.134.114-2.239.227-3.344.341-.199-.908-.624-1.645-1.248-2.24-.652-.595-1.417-.964-2.296-1.105-1.247-.199-2.267.056-3.033.793-.793.737-1.162 2.098-1.162 4.111 0 1.048.085 1.955.284 2.749.17.765.453 1.446.85 1.956.765 1.02 1.757 1.644 2.976 1.842.907.142 1.701-.028 2.325-.51.652-.453 1.133-1.275 1.417-2.466zm-17.319 3.005v-3.232c1.049.227 2.126.482 3.203.709v3.203c-1.077-.227-2.154-.454-3.203-.68zm-11.679-2.863v-17.291c3.855 1.162 7.682 2.239 11.537 3.231v2.863c-2.721-.68-5.414-1.417-8.135-2.154v4.053c2.324.652 4.677 1.276 7.03 1.843v2.863c-2.353-.567-4.706-1.162-7.03-1.786v7.285c-1.134-.312-2.268-.624-3.402-.907z" fill="#1f1d1d"/></g></g></svg>