<svg clip-rule="evenodd" fill-rule="evenodd" stroke-linejoin="round" stroke-miterlimit="2" viewBox="0 0 560 400" xmlns="http://www.w3.org/2000/svg"><g fill-rule="nonzero" transform="matrix(.828866 0 0 .828866 157.958 59.57)"><path d="m56.482 103.921c.019-.155.055-.373.091-.628-.036.291-.072.5-.091.628z" fill="#e6e7e8"/><path d="m284.875 296.275c-.01.02-.01.028-.01.037-1.163 13.34-18.942 16.104-29.79 16.286-3.219.056-5.529-2.164-6.574-5.01-.173-.473-.346-.946-.518-1.419-19.106 7.647-37.848 15.904-57.981 20.714-13.422 3.202-27.235 5.229-41.039 5.402-13.904.182-27.936-1.628-41.475-4.701-11.858-2.692-23.452-6.385-34.81-10.713-8.821-3.355-17.45-7.12-26.18-10.684-.172.473-.346.936-.518 1.4-1.054 2.846-3.347 5.065-6.574 5.01-3.901-.062-7.857-.5-11.676-1.264-9.194-1.837-20.779-7.993-17.714-19.332 1.646-6.093 3.291-12.186 4.946-18.279.682-2.537 1.374-5.083 2.056-7.63.254-.918.454-1.782.954-2.646.62-.8.973-1.255 1.055-1.364-.045.073-.208.3-.5.691.218-.282.437-.564.655-.845.1-.11.201-.228.309-.328.801-.764 1.683-1.473 2.61-2.055 5.565-3.492 12.412-2.883 18.579-1.71-.991-7.884.972-16.459 6.856-22.124 1.809-1.737 3.855-3.201 6.056-4.374-1.337-2.046-2.81-4.001-4.292-5.947-2.474-3.274-4.584-6.702-6.893-10.076-2.01-2.937-4.874-5.783-6.757-9.275-1.882-3.501-3.319-7.384-4.183-11.276-1.764-7.948-2.62-16.914-1.318-24.98.181-1.118.391-2.228.59-3.337.083-.428.154-.846.237-1.282v-.046c.009-.109.026-.355.073-.746.035-.518.045-1.027.035-1.546-.009-.081-.009-.163-.018-.236-.118-.364-.373-1.055-.245-.882-.247-.5-.511-.982-.828-1.446-.055 0-.591-.609-.946-1 0 .145-1.473-.764-.655-.573-.445-.136-.891-.236-1.354-.309-2.784-.419-5.248-3.847-5.012-6.575.047-.491.083-.991.129-1.482.181-2.192 1.199-4.274 2.846-5.547.118-6.302 1.718-12.849 5.483-17.732 4.601-5.957 11.449-9.276 18.915-10.021 2.073-.21 4.119-.119 6.101.245.037-1.61.11-3.201.2-4.747.137-2.246.31-4.483.564-6.72.091-.891.209-1.773.337-2.664-.009.054-.019.109-.028.154.02-.191.046-.391.073-.591.382-3.064 1.81-5.692 5.011-6.574 2.309-.637 4.947.009 6.629 1.755.891.918 1.782 1.837 2.673 2.755.773-5.12 7.248-8.266 11.513-3.992 2.737 2.737 5.92 5.865 6.702 9.812.335 1.682.408 3.374.408 5.065 6.52 4.238 13.113 9.83 16.342 16.696.791 1.691 1.737 3.464 1.737 5.383 0 1.191-.291 2.219-.828 3.246 1.5-.072 3.01.073 4.447.428 1.791.445 3.328 1.182 4.61 2.164 3.483-2.173 7.157-4.001 11.031-5.429.027-.709.082-1.409.2-2.1-.809-2.037-1.5-4.083-1.973-6.22-1.61-2.647-2.356-6.411-3.129-9.267-1.508-5.592-2.655-11.285-3.254-17.05-.274-2.601-.465-5.238-.274-7.839.165-2.209.155-5.019 1.573-6.856 3.183-4.138 7.502-6.293 12.14-6.011.591-.482 1.219-.909 1.892-1.264.009-7.402-.01-14.841-.455-22.215-.046-.801-.455-3.41.055-.319-.182-1.109-.282-2.146-.164-3.201-17.004 1.992-33.501 7.221-49.886 13.768-11.731 4.692-23.281 10.23-35.439 13.759-5.409 1.573-11.639 3.228-17.332 2.737-4.692-.41-10.339-2.165-12.904-6.539-.935-1.609-1.264-3.792-1.735-5.556-.883-3.273-1.774-6.556-2.657-9.83-.899-3.319-1.799-6.638-2.691-9.957-.51-1.864-1.345-3.983-1.345-5.947v-.137c0-14.604 18.622-17.532 29.863-17.723 3.219-.055 5.52 2.164 6.574 5.011.172.472.346.945.528 1.418 19.096-7.657 37.837-15.904 57.971-20.706 13.422-3.201 27.253-5.229 41.065-5.401 13.895-.182 27.917 1.627 41.448 4.701 11.858 2.692 23.444 6.393 34.802 10.712 8.811 3.356 17.45 7.12 26.19 10.676.172-.473.345-.937.518-1.4 1.045-2.847 3.354-5.066 6.574-5.011 5.247.091 10.74.682 15.75 2.273 5.683 1.801 11.575 5.002 13.476 11.094.972 3.138.527 5.82-.274 8.794-1.763 6.52-3.528 13.04-5.283 19.56-.518 1.901-1.037 3.81-1.546 5.711-1.127 4.165-6.447 7.284-10.402 7.847-12.503 1.81-25.416-3.601-36.766-8.202-19.569-7.939-39.757-16.705-60.353-20.515.273 1.028.409 2.101.418 3.201.055 4.174.1 8.357.145 12.531.046 3.765.082 7.538.129 11.303 3.219-1.755 6.82-2.755 10.483-2.455 3.774.309 7.631 1.282 10.176 4.328 2.655 3.174 3.419 7.075 2.636 11.085-.427 2.174-1.69 3.656-3.4 4.975.537-.401.791-.582.863-.628-.154.146-1.191.964-1.609 1.382-.591.564-1.155 1.155-1.683 1.774-.136.154-.273.309-.409.472-.009.019-.027.037-.045.055-.019.027-.047.055-.073.082v.009c-.027.027-.046.054-.073.082-.092.136-.182.254-.227.327-1.156 1.655-2.183 3.374-2.983 5.22 0 .073-.536 1.5-.591 1.682-.2.637-.391 1.264-.546 1.91-.163.664-.327 1.336-.445 2.018-.063.373-.099.582-.127.682v.01c-.009.109-.019.236-.028.382-.182 2.646-.5 4.783-2.437 6.838-.864.918-1.709 1.855-2.546 2.801-.619.709-1.228 1.418-1.829 2.146-.299.363-.59.718-.89 1.082-.027.036-.055.073-.082.109-.019.018-.036.045-.055.073-.046.054-.091.127-.155.209-1.081 1.455-2.181 2.964-3.001 4.61-.009.037-.018.073-.036.1v4.411c2.446 1.118 4.793 2.373 7.067 3.792 1.317-1.064 2.899-1.819 4.764-2.128 1.528-.255 3.055-.382 4.556-.319-.955-1.745-1.273-3.746-.363-6.065 3.173-8.139 10.093-14.477 17.405-19.287-.055-2.001.01-4.047.673-5.711 1.491-3.71 3.746-6.484 6.529-9.248 4.274-4.247 10.748-1.137 11.512 3.983.891-.919 1.782-1.837 2.674-2.746 2.127-2.192 5.647-2.601 8.266-1.073 2.273 1.336 3.055 3.419 3.373 5.892.609 4.702 1.173 9.63 1.237 14.541 2.064-.373 4.191-.437 6.346-.182 7.367.891 14.022 4.074 18.578 9.985 3.774 4.892 5.357 11.43 5.484 17.741 1.655 1.273 2.682 3.346 2.846 5.538.036.491.073.991.109 1.482.2 2.737-2.21 6.147-5.01 6.575-.364.063-.728.118-1.083.209l-.009.009c-.045.045-.208.146-.509.3-.092.064-.164.109-.237.155-.063.082-.172.191-.318.345-.191.191-.382.391-.564.591v.009c0 .055-.663.992-.7 1.064-.129.228-.255.455-.356.691.182-.218-.118 1.046-.217 1.046-.037 3.165.845 5.975 1.255 9.648.418 3.711.181 7.439-.129 11.14-.517 6.238-1.4 12.349-3.773 18.169-1.528 3.737-3.491 6.811-5.992 9.966-1.838 2.319-3.075 4.347-4.802 6.984-2.309 3.519-4.983 6.793-7.429 10.212 8.275 3.738 15.959 10.312 15.495 20.215-.128 2.81-.773 5.556-1.818 8.157 7.146-1.11 14.413-.555 19.296 4.783 1.782 1.946 2.192 4.629 2.865 7.093.89 3.328 1.791 6.656 2.691 9.985 1.219 4.491 2.856 9.074 3.674 13.703.181.6.273 1.228.282 1.882.067.53.049 1.048-.051 1.539z" fill="#e6e7e8"/><path d="m265.497 151.807-.109-1.482c-.01 0-1.383.054-3.091-.109.399-3.529 1.426-18.442-9.43-23.88-5.703-2.846-11.14-3.392-15.778-1.591-2.328.909-4.419 2.428-6.238 4.456.082-.273.164-.564.237-.855 2.046-8.412.091-23.471.009-24.107l-.2-1.537-9.667 9.948c-2.4-2.537-5.565-6.692-5.11-8.648l.591-2.537-1.846 1.837c-.136.128-3.246 3.292-3.246 6.111v5.902c-2.319 1.364-14.632 8.893-17.969 17.923l-.137.364.21.318c.045.082 4.592 6.675 15.095 5.393-2.355 5.947-6.147 14.585-7.821 15.931-1.664 1.319-2.8.701-3.191.41-.474-1.756-3.483-11.995-10.822-11.995-2.5 0-4.355.728-5.492 2.155-.819 1.037-1.1 2.228-1.182 3.238-4.683-3.82-10.03-6.857-15.869-8.894v-9.748c.646-4.847 10.64-15.186 10.722-15.295l.209-.2.009-.282c.018-.473.063-.937.091-1.401 1.355-14.213 11.077-21.151 11.195-21.224l.2-.145.082-.246c.036-.118.864-2.91-.737-5.083-1.156-1.546-3.219-2.346-6.129-2.346-8.666 0-13.913 7.911-16.341 12.812l-.464-41.402c0-1.564-1.074-4.538-5.219-4.538-2.293 0-3.892.982-4.911 2.11-.527-2.965-2.164-6.602-6.001-6.602-4.656 0-6.539 3.992-6.893 6.102l-.01.127.01.118c.573 3.156.654 25.271.654 30.309-.773-.319-1.627-.373-2.564-.173-1.845.391-2.964 1.309-3.492 3.246-5.52-3.11-9.021 1.983-9.057 2.037l-.091.119-.027.154c-2.155 11.121 4.437 32.082 5.574 33.992.056.118.155.227.247.336.227 2.674 2.391 7.639 2.919 8.803l-.401.4-.227.209v6.62c-7.338 1.91-14.031 5.392-19.742 10.048-.073-1-.345-2.182-1.164-3.201-1.146-1.427-2.973-2.155-5.501-2.155-7.348 0-10.358 10.239-10.804 11.995-.391.291-1.555.909-3.191-.41-1.674-1.346-5.502-9.984-7.858-15.931 1.937.236 3.665.209 5.202-.01 6.839-.909 9.867-5.319 9.93-5.383l.182-.318-.128-.364c-3.337-9.03-15.641-16.559-17.969-17.923v-5.902c0-2.819-3.119-5.983-3.255-6.111l-1.837-1.837.59 2.537c.446 1.956-2.709 6.111-5.119 8.648l-8.585-8.839-1.073-1.109-.191 1.537c-.109.636-2.019 15.695 0 24.107.073.291.155.582.247.855-1.838-2.028-3.929-3.547-6.267-4.456-4.619-1.801-10.075-1.255-15.749 1.591-10.876 5.438-9.848 20.351-9.43 23.88-1.727.163-3.083.109-3.101.109l-.128 1.482c4.465.464 8.695 6.02 9.022 10.239.172 2.346-.237 4.62-.701 7.011-.309 1.674-.628 3.383-.719 5.129-.191 3.401.091 6.893.364 10.248l.046.692c.482 6.019 1.818 11.448 3.983 16.113 1.191 2.565 2.909 4.729 4.592 6.811 1.301 1.646 2.646 3.338 3.701 5.175 1.673 2.955 3.91 5.883 6.056 8.72 2.701 3.583 5.483 7.266 7.248 11.049h-.028l.364 1.164c.018.054.155.427.473.927-5.383 1.073-16.068 5.002-16.068 19.197 0 5.356 2.2 9.384 6.547 11.921.655.4 1.364.737 2.11 1.046.245.109.491.209.745.3.291.109.582.209.872.3 2.083.664 4.366 1.046 6.702 1.201 7.403.5 15.515-1.228 20.261-3.647 1.664 2.11 8.83 8.639 30.408 1.591 2.556 1.483 20.888 11.104 43.903.073 2.101 1.637 12.422 8.303 33.137.018 1.4 1.392 6.902 4.811 27.016 4.811 6.048 0 11.067-.991 15.232-2.592.391-.145.773-.3 1.146-.464 11.594-4.965 15.868-14.767 15.868-20.024 0-10.475-12.704-14.722-19.024-16.186 1.783-3.665 4.447-7.22 7.057-10.685 2.164-2.837 4.383-5.765 6.065-8.72 1.046-1.837 2.41-3.529 3.711-5.175 1.664-2.082 3.41-4.246 4.583-6.811 2.155-4.665 3.51-10.094 3.974-16.113l.054-.692c.283-3.355.555-6.847.364-10.248-.1-1.746-.418-3.455-.728-5.129-.445-2.391-.873-4.665-.673-7.011.329-4.219 4.548-9.775 8.986-10.239zm-169.521 69.847c.181-3.755 1.927-6.602 3.864-9.239 2.256 4.665 5.184 8.966 8.639 12.758-3.146-1.646-9.057-2.891-12.503-3.519zm14.677 12.886v-.091c0-1.373-.546-2.692-1.536-3.81.873-.546 1.673-1.565 1.536-3.265 3.001 2.91 6.365 5.465 9.967 7.584-3.047-.346-6.494-.564-9.967-.418zm73.111.682c-3.446-.473-7.857-.319-12.785 1.655-.155-.028-.356-.082-.591-.118 4.928-2.447 9.421-5.648 13.331-9.449-.155 1.737.673 2.783 1.536 3.329-.991 1.118-1.536 2.437-1.536 3.81 0 .273.018.518.045.773zm2.001-9.994c3.51-3.81 6.456-8.148 8.721-12.867 1.955 2.664 3.719 5.51 3.901 9.293-3.483.637-9.503 1.901-12.622 3.574z" fill="#231f20"/><path d="m181.491 90.117c-.991 1.4-1.919 3.173-1.819 3.892.173.291.719 1.2 1.519 1.273 1.492-1.846 2.873-3.092 3.729-3.792-.437-.382-1.883-1.546-3.429-1.373z" fill="#e9ccac"/><path d="m140.343 115.16c2.382 4.965 4.947 4.992 5.057 4.992 1.727-.336 2.645-.863 2.464-5.738-4.002-1.755-6.812.182-7.521.746z" fill="#e9ccac"/><path d="m142.343 73.957c.064 5.347.064 9.731.064 10.285 2.401 2.328 4.2 7.902 5.474 16.987.773 5.465 1.255 9.43 1.419 12.34 2.356-3.61 7.484-10.658 12.977-13.095.082-.3.291-.809.555-1.455l-.555.009-.236-21.606-.146-12.058-.109-9.757c0-.318-.145-3.065-3.728-3.065-2.992 0-4.283 2.019-4.72 2.956v31.436h-1.482v-31.327l-.145-.055c.036-.1.1-.236.145-.345v-.073c-.019-.073-.227-7.075-4.71-7.075-4.247 0-5.256 4.038-5.402 4.738.209 1.318.337 4.838.446 9.075.081 3.81.126 8.203.153 12.085zm18.187 13.213h-5.61v-1.482h5.61zm.691-21.797-.691 1.337c-4.028-2.037-5.883-.509-5.947-.437v-.009l-1.082-1.027c.027-.027 2.492-2.465 7.72.136zm.056 12.058-.455 1.419c-2.919-.919-6.538-.155-6.574-.146l-.319-1.446c.163-.045 4.028-.873 7.348.173zm-11.241-1.973c-1.682-1.073-5.274-.427-6.529-.082l-.392-1.428c.201-.063 5.147-1.391 7.73.255zm1.028-13.304-.918 1.164c-3.711-3.01-6.357-.491-6.475-.391l-1.055-1.064c.037-.027 3.683-3.565 8.448.291z" fill="#e9ccac"/><path d="m185.001 87.416c-.855-1.155-2.501-1.728-4.92-1.728-11.221 0-16.45 15.404-16.504 15.559l-.099.327-.328.119c-6.538 2.664-12.958 13.185-13.804 14.613-.1 3.301-1.018 4.519-2.882 5.092.362.7 1.081 1.746 2.428 2.283l-.537 1.382c-2.101-.837-3.064-2.592-3.42-3.456-.773-.127-2.173-.6-3.7-2.337-.491 1.774-1.573 4.62-3.474 5.302-1.555.573-3.183.455-4.501-.164.564 2.146 1.7 4.902 2.273 6.193l.873-.864 1.038 1.046-2.174 2.182v5.629c2.573-.582 5.192-.991 7.893-1.191 1.309-.109 2.637-.164 3.984-.164 5.51 0 10.812.846 15.813 2.428v-9.43c.646-5.001 9.548-14.486 10.949-15.968.036-.391.054-.782.109-1.164.691-7.42 3.483-12.895 6.201-16.568-1.255-.555-1.937-1.937-1.954-2.019l-.037-.064-.027-.073c-.373-1.736 1.855-4.81 2.301-5.41l.171-.227.264-.055c2.065-.446 3.948.827 4.748 1.491.053-.782-.002-1.882-.684-2.764z" fill="#e9ccac"/><path d="m139.543 113.205c.018.027.072.036.118.055l-.055.136c.018.118.091.246.145.373 1.173-.828 4.111-2.401 8.003-1-.182-2.656-.627-6.302-1.346-11.34-1.628-11.622-3.901-15.395-5.511-16.523-.854-.6-1.591-.546-2.237-.409-3.047.655-3.574 3.092-1.4 18.896.582 4.265 1.373 7.448 2.283 9.812z" fill="#e9ccac"/><path d="m137.788 112.669c-.801-2.356-1.483-5.32-2.01-9.076-1.064-7.784-1.573-12.685-1.237-15.759-4.174-2.692-6.929.546-7.42 1.201-1.382 7.429 1.082 18.814 3.146 26.043 1.191-.936 4.201-2.946 7.521-2.409z" fill="#e9ccac"/><path d="m137.269 123.181c1.364-.491 2.446-3.565 2.801-5.456-.582-.901-1.128-2.001-1.683-3.365-.582-.191-1.155-.273-1.71-.273-3.136 0-5.911 2.519-5.929 2.555l-.036-.027c.864 2.874 1.582 4.847 1.799 5.22.893 1.455 2.867 2.009 4.758 1.346z" fill="#e9ccac"/><path d="m180.754 219.945.436 7.511c5.11-4.611 9.284-10.23 12.194-16.578-1.318-1.736-2.537-3.446-3.219-5.274z" fill="#fff"/><path d="m179.518 188.108-12.313 1.028-11.312 17.323 5.792 11.176 17.533 1.091 9.53-14.522z" fill="#fff"/><path d="m167.032 187.199 12.322-1.019.227-.018 4.165-14.831-7.52-11.294-17.851.436-2.518 10.639z" fill="#fff"/><path d="m193.676 170.54s.046-.455.118-1.046c-2.418-5.529-5.756-10.558-9.857-14.859-1.555-1.464-2.774-2.473-3.128-2.773l-.491-.401-.046-.3c-.791-.691-1.618-1.382-2.464-2.018l-.309 9.311 7.947 11.931 8.293 2.892c-.082-.546-.109-1.082-.109-1.564.001-.437.019-.828.046-1.173z" fill="#fff"/><path d="m132.459 200.475-8.238 7.075 5.01 13.14.009-.045 17.996 8.429 12.576-10.848-5.647-10.894z" fill="#fff"/><path d="m129.24 157.127-3.047 13.958 7.175 6.775.182.173 20.606-8.084 2.347-9.921.017-.119-13.777-9.848z" fill="#fff"/><path d="m141.843 148.342 1.528-.791 7.884-8.511c-1.382-.109-2.728-.182-4.11-.182-1.302 0-2.593.045-3.875.145-8.948.682-17.278 3.683-24.343 8.403l9.084 8.166z" fill="#fff"/><path d="m147.518 231.339-1.11-.519-17.314-8.084-12.212 7.821c2.655 1.964 5.501 3.674 8.493 5.101 3.546.628 6.02 1.301 6.612 1.464 2.263-.309 4.418-.573 6.464-.782 5.057-.536 9.503-.8 13.331-.882l-4.237-4.174z" fill="#fff"/><path d="m131.577 198.675.463-19.406-6.729-6.347-14.186 7.202-.654 19.378 12.422 6.63z" fill="#fff"/><path d="m100.431 169.721c.164 1.046.327 2.865-.201 4.811-.245.936-.845 2.046-1.545 3.328-.554 1.037-1.173 2.146-1.664 3.319-.327 2.046-.554 4.165-.655 6.311 5.529 3.01 7.866 10.057 8.339 13.686.072.509.119.954.119 1.309 0 .846-.137 1.646-.364 2.419l4.074-4.829.663-19.978-8.221-11.703c-.19.436-.381.882-.545 1.327z" fill="#fff"/><path d="m196.895 242.324c-.8.145-1.618.227-2.556.227-5.392 0-6.283-2.428-6.428-3.465v-.118c-.709-.045-1.964-.282-2.92-1.191-.282-.273-.509-.582-.7-.928-3.41-.6-7.93-.6-13.004 1.501v.009c-12.213 4.847-11.831 24.725-11.722 27.462 1.555 1.21 11.576 7.939 31.755-.127-.126-2.846-.317-15.804 5.575-23.37z" fill="#fff"/><path d="m110.425 236.049c-.217.673-.563 1.255-1.045 1.728-.965.909-2.191 1.146-2.946 1.191v.118c-.145 1.037-1 3.465-6.429 3.465-1.736 0-3.183-.282-4.419-.691-5.538 1.573-8.102 6.866-9.275 11.922-1.118 4.855-.964 9.484-.909 10.43.736 1.082 7.011 8.611 29.226 1.291-.091-1.7-.181-5.929.973-10.685 1.428-5.901 4.774-12.603 12.376-16.277-1.2-.482-2.391-.973-3.546-1.537-3.903-.646-8.904-1.2-14.006-.955z" fill="#fff"/><path d="m231.614 234.049-.036.109c-.046.191-1.519 4.592-9.075 4.592-3.829 0-4.975-1.119-5.974-2.092-.918-.882-1.773-1.718-5.183-1.718-3.183 0-4.883 1.509-6.857 3.264-1.345 1.201-2.801 2.483-4.856 3.347-6.684 6.22-6.929 19.705-6.847 23.543l-.009.509.291.546c1.255 1.064 6.629 4.265 25.816 4.265 25.308 0 30.773-17.305 30.773-21.598-.001-9.384-12.141-13.367-18.043-14.767z" fill="#2f368f"/><path d="m138.615 237.822c-2.091.228-4.283.491-6.574.81l-.163.018-.064-.018c-9.485 2.964-13.349 10.203-14.868 16.504-1.309 5.457-.855 10.212-.782 10.904 3.901 2.064 20.87 9.784 41.912-.31-.136-3.355-.409-21.415 10.639-27.78-4.011-.691-13.914-1.819-30.1-.128z" fill="#2f368f"/><path d="m83.026 234.94c-3.428 0-4.273.836-5.201 1.718-.991.973-2.155 2.092-5.956 2.092-3.938 0-6.23-1.2-7.512-2.392-4.629.71-15.677 3.856-15.677 17.924 0 4.792 1.954 8.384 5.784 10.648 2.709 1.601 6.156 2.419 9.793 2.674 7.157.5 15.077-1.228 19.633-3.601-.045-1.446-.099-5.866 1.002-10.54 1.154-4.983 3.591-10.248 8.693-12.467-1.464-.818-2.619-1.828-3.71-2.792-1.974-1.755-3.675-3.264-6.849-3.264z" fill="#2f368f"/><path d="m261.677 151.634c-1.827-.209-3.955-.673-5.555-1.673-1.136-.7-2.682-1.319-4.465-1.6-1.327.591-3.173 4.073-4.074 6.31.092 1.173.173 2.556.247 4.12 1.7-1.382 4.237-2.628 4.883-2.928l.627 1.336c-1.91.91-4.683 2.565-5.42 3.611.064 1.973.1 4.164.082 6.529 2.046-1.428 4.711-2.074 4.866-2.11l.345 1.455c-.036.009-3.519.837-5.229 2.592-.036 1.836-.109 3.764-.227 5.756 2.001-1.255 4.811-2.137 5.565-2.346l.419 1.427c-1.919.555-4.929 1.737-6.093 2.847-.146 1.873-.346 3.792-.564 5.729 3.492-1.956 8.257-1.61 8.475-1.601l-.109 1.5c-.073-.009-5.592-.409-8.602 2.074-.291 2.055-.61 4.137-1.028 6.202 3.183-2.247 7.638-2.792 7.857-2.819l.182 1.473c-.073.009-6.029.755-8.603 3.837-.327 1.464-.682 2.928-1.1 4.365 3.301-1.955 7.666-2 7.884-2v1.491c-.064 0-5.911.045-8.639 2.992l-.027-.009c-.5 1.6-1.073 3.173-1.719 4.71 2.619-.718 5.638-.264 5.802-.246l-.264 1.483c-.036-.009-4.137-.628-6.411.718-.973 2.164-2.046 4.11-3.164 5.893l3.619-.628.264 1.446-4.993.873c-1.109 1.655-2.264 3.119-3.41 4.429l4.329.172-.055 1.492-5.565-.219c-4.619 4.829-8.866 7.112-10.385 7.839.255 1.091.901 2.746 2.374 3.892 1.536 1.21 3.692 1.619 6.383 1.228 1.783-4.256 4.847-8.312 7.803-12.231 0-.009.009-.027.018-.036 2.138-2.783 4.301-5.666 5.93-8.53 1.109-1.937 2.5-3.665 3.845-5.356 1.692-2.11 3.283-4.11 4.383-6.502 2.11-4.52 3.383-9.776 3.856-15.605l.045-.7c.1-1.055.182-2.109.255-3.182.155-2.292.246-4.611.118-6.866-.1-1.655-.4-3.319-.709-4.929-.182-.973-.373-1.964-.517-2.973 0-.028-.01-.055-.01-.082-.191-1.428-.3-2.874-.191-4.356.298-3.646 3.062-8.102 6.672-10.294z" fill="#bf7537"/><path d="m228.513 135.484c-2.046 4.747-4.3 10.039-4.874 20.224 7.067-26.262 20.861-25.762 21.506-25.725l-.109 1.482c-.191-.009-15.504-.382-21.515 31.427.1 2.637.356 4.938.728 7.002 7.938-33.746 26.308-32.3 27.108-32.227l-.145 1.491c-.219-.018-18.968-1.355-26.19 34.182.464 1.774 1.046 3.365 1.628 4.884 1.673-2.301 3.183-6.166 4.774-10.249 1.991-5.074 4.238-10.83 7.357-15.104 6.065-8.357 14.24-6.556 18.105-4.174 1.1.673 2.546 1.073 3.919 1.309.364-3.3 1.237-17.414-8.611-22.342-5.302-2.646-10.339-3.174-14.55-1.537-3.71 1.455-6.793 4.592-9.038 9.121-.037.072-.074.154-.093.236z" fill="#bf7537"/><path d="m249.529 148.233c-3.101.082-6.584 1.446-9.549 5.511-2.991 4.128-5.219 9.785-7.156 14.777-1.883 4.792-3.519 8.921-5.529 11.276.273.655.546 1.318.827 1.973 2.192 5.065 4.256 9.857 4.256 18.178 0 12.958-6.256 21.888-9.512 25.689 3.011-1.846 8.103-5.656 12.686-12.422l-.027-.109.109-.018c1.627-2.437 3.182-5.238 4.546-8.466 3.674-8.666 5.311-18.669 5.975-27.717l-.247-.118c.064-.155.182-.3.273-.428.182-2.664.283-5.21.319-7.62l-.027-.018.027-.018c.046-3.028 0-5.811-.091-8.239l-.019-.018c0-.009.019-.027.019-.027-.091-2.265-.209-4.256-.319-5.829l-.036-.173.073-.146c.319-.827 1.701-4.119 3.402-6.038z" fill="#bf7537"/><path d="m222.866 233.203c-2.882-2.255-3.137-5.911-3.137-6.065l-.018-.355.255-.246c.127-.091 10.93-10.139 10.93-26.589 0-8.011-2.01-12.667-4.129-17.596-2.191-5.074-4.446-10.321-4.737-19.506v-.063c-.018-.619-.028-1.246-.028-1.892 0-11.958 2.001-18.35 4.074-23.47l-.045-.018c.372-.982.79-1.901 1.228-2.783.936-2.191 1.8-4.274 2.382-6.62 1.6-6.602.609-17.923.164-22.024l-8.566 8.802-.537-.536c-.591-.582-4.919-5.029-5.902-8.575-.827 1.091-1.709 2.546-1.709 3.746v6.775l-.382.2c-.109.082-10.912 6.238-15.896 13.986.692.773 1.102 1.764 1.102 2.864 0 .8-.228 1.519-.583 2.155 2.019 1.473 5.41 3.037 10.503 2.565l-.018-.091c.882-.3 3.428-3.292 4.965-5.32l1.182.9c-.436.564-1.983 2.592-3.483 4.11 2.792-.572 5.984-1.718 9.63-3.692l.709 1.301c-3.946 2.137-7.393 3.328-10.412 3.883l.1.045c-.582 1.555-5.983 15.205-8.593 17.305-2.428 1.928-4.528.973-5.311.191l-.145-.145-.046-.2c-.027-.1-2.619-10.531-8.939-11.049 1.783 1.055 2.765 2.628 2.829 2.737l-1.274.764c-.018-.018-.472-.746-1.3-1.482-.827-.737-2.028-1.464-3.51-1.464v-.119c-.418.173-.791.41-1.091.664 3.437 1.328 5.138 4.665 5.21 4.82l-1.336.664c-.01-.028-.42-.828-1.229-1.746-.827-.928-2.027-1.964-3.601-2.456-.509 1.201-.409 2.51-.336 3.02 1.736 1.409 12.331 10.339 13.703 18.087.291.372 1.374 1.727 2.965 2.755v-3.656h1.473v4.429c.709.291 1.482.473 2.292.464.164-.01.336-.046.518-.073v-4.983h1.473v4.601c1.628-.673 3.202-2.128 4.665-4.383l1.246.827c-2.355 3.601-5.011 5.447-7.884 5.484-3.11.054-5.611-2.028-6.966-3.447-.091.919-.091 2.155.247 3.438.208.763.773 1.809 1.426 3.019 1.493 2.755 3.275 6.138 2.784 9.53 1.182-.41 2.491-.673 3.947-.673 7.793 0 13.303 2.337 16.322 6.947 6.475 9.794-.363 26.117-.682 26.808l-1.355-.573c.082-.173 6.811-16.287.801-25.407-2.765-4.165-7.821-6.284-15.086-6.284-9.521 0-12.704 11.803-12.704 14.977 0 2.783 1.736 5.092 3.765 7.775 2.391 3.201 5.119 6.82 5.119 12.013v.627l-.609.1c-7.275 1.282-13.868 3.346-14.095 4.429-.164 1.427.746 1.964 1.191 2.146 2.41-1.774 5.967-2.428 9.385-1.692l-.318 1.455c-3.101-.673-6.32-.063-8.386 1.601-1.208.973-1.873 2.218-1.873 3.51 0 .973.264 1.728.8 2.228.673.636 1.601.782 2.11.827.773-2.537 4.019-5.047 8.084-6.065l.373 1.446c-4.519 1.136-7.393 4.064-7.157 6.02.164 1.345 1.992 2.146 4.929 2.146 4.692 0 6.966-2.01 9.166-3.956 2.01-1.791 4.092-3.647 7.839-3.647 4.019 0 5.183 1.137 6.238 2.137.909.901 1.701 1.674 4.919 1.674 4.037 0 6.011-1.355 6.929-2.392-2.699.218-4.872-.327-6.564-1.664zm-5.173-105.157c-1.728 0-3.137-.819-3.137-1.837 0-1.01 1.409-1.828 3.137-1.828 1.736 0 3.127.818 3.127 1.828 0 1.018-1.391 1.837-3.127 1.837zm-.51 79.75v.009c-.027-.027-2.928-1.619-5.42-1.392.373 1.592.628 3.165.846 4.556 2.273-.382 4.629.655 4.748.71l-.61 1.345c-.036-.009-2.109-.9-3.928-.572.255 2.027.345 3.446.345 3.646l-1.473.082c-.272-4.356-1.873-16.277-5.838-18.869-.845-.555-1.737-.646-2.728-.273-2.737 1-1.5 6.265-.191 11.831.873 3.683 1.792 7.493 1.664 10.603l-1.473-.064c.1-2.901-.773-6.611-1.627-10.185-1.483-6.247-2.883-12.13 1.118-13.594 1.228-.437 2.392-.373 3.501.145 1.701-.409 4.047-.082 4.347-.045l-.228 1.482c-.464-.082-1.464-.173-2.418-.155.536.6 1.027 1.337 1.482 2.155 1.818-.436 3.974-.272 4.092-.254l-.118 1.491c-.028 0-1.819-.145-3.32.137.219.527.446 1.082.637 1.636 2.346-.654 5.248-.054 5.374-.018l-.318 1.446c-.019-.009-2.637-.536-4.602-.009.127.436.264.873.373 1.328 3.019-.382 6.329 1.436 6.483 1.527z" fill="#bf7537"/><path d="m98.813 168.685c1.4-7.748 11.976-16.678 13.695-18.087.1-.51.209-1.819-.319-3.02-3.146.983-4.81 4.174-4.847 4.202l-1.327-.664c.091-.155 1.8-3.492 5.21-4.82-.31-.254-.663-.491-1.082-.664v.119c-2.991 0-4.783 2.919-4.792 2.946l-1.282-.764c.045-.109 1.055-1.682 2.837-2.737-6.32.518-8.93 10.949-8.949 11.049l-.055.2-.154.145c-.791.782-2.874 1.737-5.302-.191-2.619-2.1-7.993-15.75-8.602-17.305l.118-.045c-3.037-.555-6.484-1.746-10.421-3.883l.718-1.301c3.638 1.974 6.821 3.12 9.603 3.692-1.491-1.518-3.046-3.546-3.446-4.11l1.164-.9c1.546 2.028 4.083 5.02 4.983 5.32l-.027.091c1.473.136 2.791.1 3.983-.055 2.955-.373 5.074-1.464 6.511-2.51-.373-.636-.592-1.355-.592-2.155 0-1.1.437-2.101 1.128-2.874-4.982-7.738-15.804-13.894-15.914-13.976l-.382-.2v-6.775c0-1.2-.89-2.655-1.709-3.746-.982 3.546-5.302 7.993-5.911 8.575l-.527.536-.528-.554-8.038-8.248c-.446 4.101-1.42 15.422.171 22.024.555 2.346 1.456 4.429 2.374 6.62.445.882.855 1.801 1.228 2.783l-.055.018c2.082 5.12 4.074 11.512 4.074 23.47 0 .646 0 1.273-.027 1.892 0 .009.009.036.027.063h-.027c-.283 9.185-2.547 14.432-4.711 19.506-2.119 4.929-4.138 9.585-4.138 17.596 0 16.45 10.821 26.498 10.922 26.589l.245.246v.355c-.027.154-.263 3.81-3.146 6.065-1.673 1.337-3.874 1.882-6.556 1.664.927 1.037 2.882 2.392 6.929 2.392 3.21 0 4.01-.773 4.938-1.674 1.018-1 2.21-2.137 6.22-2.137 3.72 0 5.819 1.856 7.857 3.647 2.174 1.946 4.447 3.956 9.12 3.956 2.937 0 4.793-.801 4.965-2.146.238-1.956-2.664-4.884-7.165-6.02l.363-1.446c4.056 1.018 7.293 3.528 8.112 6.065.491-.045 1.418-.191 2.065-.827.554-.5.817-1.255.817-2.228 0-1.292-.663-2.537-1.873-3.51-2.065-1.664-5.265-2.274-8.375-1.601l-.31-1.455c3.41-.736 6.939-.082 9.348 1.692.464-.182 1.364-.719 1.219-2.146-.237-1.083-6.839-3.147-14.104-4.429l-.619-.1v-.627c0-5.193 2.737-8.812 5.129-12.013 2.01-2.683 3.756-4.992 3.756-7.775 0-.3-.019-.673-.082-1.1-.573-4.183-3.983-13.877-12.622-13.877-7.239 0-12.322 2.119-15.059 6.284-6.047 9.12.708 25.234.79 25.407l-1.382.573c-.291-.691-7.12-17.014-.664-26.808 3.056-4.61 8.54-6.947 16.314-6.947 1.473 0 2.773.263 3.974.673-.519-3.392 1.291-6.775 2.773-9.53.646-1.21 1.228-2.256 1.41-3.019.364-1.283.355-2.519.283-3.438-1.364 1.419-3.865 3.501-6.966 3.447-2.883-.037-5.538-1.883-7.93-5.484l1.255-.827c1.474 2.255 3.047 3.71 4.674 4.383v-4.601h1.492v4.983c.173.027.327.063.51.073.8.009 1.564-.173 2.282-.464v-4.429h1.51v3.656c1.539-1.028 2.657-2.383 2.921-2.755zm-22.143-44.304c1.727 0 3.127.818 3.127 1.828 0 1.018-1.4 1.837-3.127 1.837-1.728 0-3.128-.819-3.128-1.837 0-1.01 1.4-1.828 3.128-1.828zm6.284 80.587c.119-.455.237-.892.363-1.328-1.973-.527-4.565 0-4.601.009l-.319-1.446c.145-.036 3.037-.636 5.374.018.191-.554.4-1.109.646-1.636-1.519-.282-3.301-.137-3.31-.137l-.137-1.491c.11-.018 2.283-.182 4.102.254.436-.818.936-1.555 1.492-2.155-.973-.018-1.964.073-2.446.155l-.228-1.482c.319-.037 2.674-.364 4.375.045 1.081-.518 2.246-.582 3.501-.145 3.992 1.464 2.601 7.347 1.101 13.594-.846 3.574-1.728 7.284-1.61 10.185l-1.492.064c-.118-3.11.774-6.92 1.664-10.603 1.309-5.566 2.573-10.831-.191-11.831-1-.373-1.892-.282-2.728.273-3.965 2.592-5.556 14.513-5.82 18.869l-1.5-.082c0-.2.1-1.619.363-3.646-1.837-.328-3.9.563-3.919.572l-.627-1.345c.109-.055 2.482-1.092 4.738-.71.208-1.391.5-2.964.837-4.556-2.483-.227-5.348 1.365-5.402 1.392v-.009l-.736-1.301c.172-.091 3.463-1.909 6.51-1.527z" fill="#bf7537"/><path d="m71.496 225.637c-3.265-3.801-9.494-12.731-9.494-25.689 0-8.321 2.046-13.113 4.229-18.178.273-.655.564-1.318.855-1.973-2.037-2.355-3.684-6.484-5.529-11.276-1.965-4.992-4.192-10.649-7.176-14.777-2.928-4.065-6.438-5.429-9.557-5.511 1.7 1.919 3.082 5.211 3.41 6.038l.063.146v.173c-.136 1.573-.254 3.564-.345 5.829 0 0 0 .018.018.027l-.027.018c-.082 2.428-.128 5.211-.082 8.239.01 0 .01.018.01.018l-.01.018c.045 2.41.128 4.956.3 7.62.136.128.227.273.3.428l-.236.118c.645 9.048 2.3 19.051 5.956 27.717 1.364 3.228 2.919 6.029 4.547 8.466l.109.018-.019.109c4.566 6.766 9.65 10.576 12.678 12.422z" fill="#bf7537"/><path d="m70.569 232.048c1.472-1.146 2.118-2.801 2.392-3.892-1.537-.727-5.784-3.01-10.395-7.839l-5.547.219-.027-.628-.046-.864 4.329-.172c-1.155-1.31-2.292-2.774-3.428-4.429l-4.993-.873.291-1.446 3.592.628c-1.101-1.783-2.182-3.729-3.164-5.893-2.256-1.346-6.366-.727-6.411-.718l-.219-1.483c.146-.018 3.165-.472 5.766.246-.655-1.537-1.21-3.101-1.737-4.701h-.009c-1.364-1.474-3.501-2.219-5.311-2.601-1.819-.382-3.292-.391-3.319-.391v-1.491c.218 0 4.593.045 7.866 2-.418-1.437-.764-2.901-1.11-4.365-1.273-1.537-3.401-2.501-5.228-3.073-1.819-.573-3.319-.755-3.356-.764l.164-1.473c.227.027 4.683.572 7.866 2.819-.391-2.065-.719-4.147-1.001-6.202-3.01-2.483-8.547-2.083-8.62-2.074l-.118-1.5c.227-.009 4.983-.355 8.484 1.601-.237-1.937-.418-3.856-.555-5.729-1.182-1.11-4.191-2.292-6.082-2.847l.391-1.427c.754.209 3.601 1.091 5.565 2.346-.109-1.992-.182-3.92-.218-5.756-1.71-1.755-5.184-2.583-5.202-2.592l.327-1.455c.136.036 2.791.682 4.846 2.11 0-2.365.028-4.556.083-6.529-.709-1.046-3.502-2.701-5.42-3.611l.627-1.336c.673.3 3.202 1.546 4.91 2.928.046-1.564.155-2.947.237-4.12-.91-2.237-2.747-5.719-4.092-6.31-1.755.281-3.328.9-4.447 1.6-1.61 1-3.737 1.464-5.556 1.673 3.601 2.192 6.365 6.648 6.656 10.294.109 1.491.019 2.965-.191 4.401 0 .018-.01.046-.01.064-.135 1-.318 1.973-.509 2.946-.283 1.61-.6 3.274-.709 4.929-.118 2.255-.018 4.565.136 6.866.063 1.063.146 2.127.228 3.182l.062.7c.474 5.829 1.756 11.085 3.847 15.605.946 2.091 2.31 3.883 3.746 5.711.219.263.419.527.627.791 1.346 1.691 2.747 3.419 3.846 5.356 1.428 2.51 3.265 5.038 5.138 7.502.264.346.537.7.801 1.046 0 .009 0 .009.009.018 2.982 3.919 6.038 7.975 7.829 12.231 2.667.391 4.832-.018 6.369-1.228z" fill="#bf7537"/><path d="m37.468 148.697c3.874-2.382 12.049-4.183 18.114 4.174 3.119 4.274 5.374 10.03 7.348 15.104 1.609 4.083 3.119 7.948 4.783 10.249.6-1.519 1.146-3.11 1.628-4.884-7.239-35.537-25.962-34.2-26.19-34.182l-.145-1.491c.791-.073 19.16-1.519 27.109 32.227.391-2.064.626-4.365.708-7.002-5.993-31.809-21.306-31.436-21.497-31.427l-.1-1.482c.636-.037 14.459-.537 21.498 25.725-.591-10.185-2.828-15.477-4.857-20.224-.055-.082-.072-.164-.108-.236-2.255-4.529-5.338-7.666-9.039-9.121-4.22-1.637-9.248-1.109-14.55 1.537-9.857 4.928-8.975 19.042-8.62 22.342 1.381-.236 2.845-.636 3.918-1.309z" fill="#bf7537"/><path d="m257.258 37.374c-.527-.518-1.038-1.082-1.546-1.718l.409-1.073c2.628.109 14.685.854 19.024 5.501.991 1.064 1.455 2.246 1.455 3.583-.609.373-2.21 1.246-4.783 1.782l1.018-3.701v-.109c0-.154-.036-1.509-1.509-2.782-2.437-2.065-7.184-2.565-14.068-1.483z" fill="#fff"/><path d="m267.625 45.849c-3.429 0-8.303-1.473-14.295-3.764l1.782-4.838c5.792 6.738 12.995 6.084 15.923 5.447l-.846 3.001c-.791.091-1.619.154-2.564.154z" fill="#fff"/><path d="m270.298 39.948c.509.418.773.864.919 1.191-1.828.5-7.357 1.51-12.504-2.492 7.047-.927 10.185.155 11.585 1.301z" fill="#fff"/><path d="m39.35 37.247 1.792 4.838c-6.002 2.291-10.867 3.764-14.313 3.764-.919 0-1.746-.063-2.547-.154l-.836-3.001c2.91.637 10.139 1.291 15.904-5.447z" fill="#fff"/><path d="m22.682 45.449c-2.601-.536-4.21-1.409-4.82-1.782.036-1.337.473-2.519 1.464-3.583 4.319-4.647 16.395-5.392 19.041-5.501l.391 1.073c-.491.636-1.018 1.2-1.527 1.718-6.893-1.082-11.622-.582-14.069 1.483-1.472 1.273-1.528 2.628-1.528 2.782v.109z" fill="#fff"/><path d="m23.264 41.139c.127-.327.382-.773.946-1.191 1.373-1.146 4.51-2.228 11.557-1.301-5.173 4.002-10.684 2.992-12.503 2.492z" fill="#fff"/><path d="m276.182 45.595-6.939 25.644c-.391.445-2.419 2.4-6.393 2.4-10.548 0-23.506-5.365-38.501-11.594-20.925-8.675-46.967-19.478-77.095-19.66-30.153.182-56.188 10.985-77.139 19.66-14.987 6.229-27.908 11.594-38.484 11.594-3.974 0-5.993-1.955-6.402-2.4l-6.929-25.644c1.646.773 4.483 1.746 8.529 1.746 5.957 0 15.605-4.038 27.808-9.148 23.343-9.776 55.28-23.161 92.618-23.334 37.31.173 69.247 13.558 92.582 23.334 12.203 5.11 21.842 9.148 27.789 9.148 4.082 0 6.919-.973 8.556-1.746z" fill="#fff"/><path d="m221.457 43.549c.691-1.837.655-5.302-3.92-7.102-4.829-1.919-6.892.645-7.529 2.319-1.309 3.273.809 4.737 2.992 6.247l1.437 1c1.455 1 2.437 1.746 1.982 2.919-.627 1.573-2.382 1.282-3.874.7-2.728-1.064-2.52-2.819-2.2-3.646l-2.983-1.191c-.755 1.855-1.046 5.356 4.401 7.511 1.291.509 6.029 1.919 7.802-2.565 1.055-2.682-.491-4.255-2.328-5.556l-3.274-2.337c-.573-.382-1.428-1.009-.964-2.164.527-1.355 2.119-1.237 3.301-.773 2.719 1.073 2.346 2.765 2.155 3.456z" fill="#231f20"/><path d="m205.316 32.291-3.392 10.012c-.618 1.837-1.845 2.601-4.028 1.855-1.492-.491-2.392-1.837-1.701-3.956l3.347-9.866-3.238-1.082-3.41 10.075c-.455 1.528-.564 2.856-.063 4.074.846 1.955 2.81 3.001 4.22 3.474 3.837 1.282 6.82.382 8.157-3.61l3.337-9.894z" fill="#231f20"/><path d="m181.909 38.447h-.018l.182-12.967-4.729-1.173-3.846 15.559 3.037.755 3.228-13.013.018.018-.363 13.704 3.182.791 6.12-12.294.028.009-3.201 13.004 3.028.745 3.864-15.559-4.71-1.164z" fill="#231f20"/><path d="m159.248 37.829 12.049 1.664.391-2.819-8.802-1.209.554-4.12 7.748 1.082.4-2.819-7.738-1.073.454-3.337 8.43 1.173.382-2.819-11.667-1.609z" fill="#231f20"/><path d="m150.955 21.352-7.093-.182-.409 16.022 6.929.182c5.302.146 6.784-4.783 6.893-8.229.073-3.019-.909-7.657-6.32-7.793zm-.882 13.24-3.265-.091.264-10.485 3.228.082c1.437.036 3.656.473 3.556 5.219-.081 2.628-1.064 5.338-3.783 5.275z" fill="#231f20"/><path d="m136.169 21.752 1.109 15.995 3.348-.227-1.12-15.996z" fill="#231f20"/><path d="m133.368 21.888-11.321 1.582 2.255 15.878 3.292-.464-.928-6.684 6.984-.973-.391-2.81-6.984.973-.518-3.574 7.993-1.118z" fill="#231f20"/><path d="m114.745 24.934 2.564 10.876-.046.009-8.747-9.402-3.438.809 3.692 15.595 3.037-.718-2.637-11.121.055-.01 8.984 9.621 3.265-.763-3.683-15.605z" fill="#231f20"/><path d="m94.193 30.154c-2.009.664-7.02 3.265-4.683 10.421 2.329 7.148 7.921 6.275 9.948 5.62 2.028-.646 7.039-3.255 4.693-10.412-2.346-7.148-7.939-6.284-9.958-5.629zm4.375 13.358c-1.719.555-4.484.282-5.856-3.983-1.428-4.273.663-6.119 2.364-6.674 1.728-.564 4.492-.291 5.902 3.974 1.381 4.255-.683 6.111-2.41 6.683z" fill="#231f20"/><path d="m85.4 44.895c.327 1.982-.5 3.428-2.228 4.101-2.619 1.036-4.638-.955-5.693-3.638-1.664-4.219.155-6.092 1.665-6.665 2.573-1.019 3.719.482 4.31 1.282l3.127-1.228c-1.055-2.146-4.056-4.501-8.53-2.764-3.837 1.519-5.801 5.365-3.755 10.585 1.991 5.147 5.911 6.72 9.875 5.156 3.746-1.464 4.983-4.565 4.32-8.048z" fill="#231f20"/><path d="m16.362 44.167 7.466 27.617.036.164.109.109c.091.127 2.51 3.074 7.657 3.074 10.857 0 23.916-5.42 39.057-11.704 20.823-8.639 46.695-19.378 76.566-19.56 29.837.182 55.717 10.921 76.541 19.56 15.131 6.284 28.199 11.704 39.056 11.704 5.137 0 7.557-2.947 7.656-3.074l.092-.109 7.483-27.699.019-.082.009-.063c.11-1.892-.518-3.574-1.864-5.047-5.292-5.666-20.025-5.975-20.642-5.984l-.527-.009-3.12 8.475c-3.519-1.364-7.374-2.973-11.548-4.71-23.48-9.839-55.543-23.28-93.154-23.462-37.638.182-69.729 13.623-93.189 23.462-4.165 1.737-8.021 3.346-11.531 4.71l-2.946-7.984-.182-.491-.546.009c-.627.009-15.341.318-20.625 5.984-1.337 1.473-1.982 3.155-1.873 5.047zm239.759-9.584c2.628.109 14.685.854 19.024 5.501.991 1.064 1.455 2.246 1.455 3.583-.609.373-2.21 1.246-4.783 1.782l1.018-3.701v-.109c0-.154-.036-1.509-1.509-2.782-2.437-2.065-7.184-2.565-14.068-1.483-.527-.518-1.038-1.082-1.546-1.718zm15.096 6.556c-1.828.5-7.357 1.51-12.504-2.492 7.047-.927 10.185.155 11.585 1.301.509.418.773.864.919 1.191zm-16.105-3.892c5.792 6.738 12.995 6.084 15.923 5.447l-.846 3.001c-.791.091-1.619.154-2.564.154-3.429 0-8.303-1.473-14.295-3.764zm-200.475.946c23.343-9.776 55.279-23.161 92.617-23.334 37.311.173 69.247 13.558 92.582 23.334 12.203 5.11 21.842 9.148 27.789 9.148 4.083 0 6.921-.973 8.557-1.746l-6.938 25.644c-.391.445-2.419 2.4-6.393 2.4-10.548 0-23.506-5.365-38.501-11.594-20.925-8.675-46.968-19.478-77.095-19.66-30.153.182-56.188 10.985-77.14 19.66-14.986 6.229-27.907 11.594-38.483 11.594-3.974 0-5.993-1.955-6.402-2.4l-6.929-25.644c1.646.773 4.483 1.746 8.529 1.746 5.955 0 15.603-4.038 27.807-9.148zm-15.287-.946 1.792 4.838c-6.002 2.291-10.867 3.764-14.313 3.764-.919 0-1.746-.063-2.547-.154l-.836-3.001c2.91.637 10.139 1.291 15.904-5.447zm-16.086 3.892c.127-.327.382-.773.946-1.191 1.373-1.146 4.51-2.228 11.557-1.301-5.173 4.002-10.684 2.992-12.503 2.492zm-3.938-1.055c4.32-4.647 16.396-5.392 19.042-5.501l.391 1.073c-.491.636-1.018 1.2-1.527 1.718-6.893-1.082-11.622-.582-14.069 1.483-1.472 1.273-1.528 2.628-1.528 2.782v.109l1.046 3.701c-2.601-.536-4.21-1.409-4.82-1.782.038-1.337.474-2.519 1.465-3.583z" fill="#231f20"/><path d="m255.112 301.595-1.782-4.847c5.992-2.273 10.866-3.755 14.295-3.755.945 0 1.773.062 2.564.154l.846 3.01c-2.928-.645-10.131-1.309-15.923 5.438z" fill="#fff"/><path d="m276.6 295.184c0 1.337-.464 2.501-1.455 3.574-4.339 4.656-16.396 5.392-19.024 5.502l-.409-1.064c.509-.646 1.019-1.21 1.546-1.728 6.883 1.082 11.631.591 14.068-1.491 1.473-1.264 1.509-2.619 1.509-2.765v-.099l-1.018-3.71c2.573.526 4.174 1.39 4.783 1.781z" fill="#fff"/><path d="m271.217 297.712c-.146.328-.41.755-.919 1.192-1.4 1.137-4.538 2.228-11.585 1.292 5.147-4.002 10.676-2.984 12.504-2.484z" fill="#fff"/><path d="m26.829 292.993c3.446 0 8.312 1.482 14.313 3.755l-1.792 4.847c-5.766-6.747-12.994-6.083-15.904-5.438l.836-3.01c.801-.091 1.628-.154 2.547-.154z" fill="#fff"/><path d="m24.21 298.904c-.564-.437-.819-.864-.946-1.193 1.819-.5 7.33-1.518 12.503 2.483-7.047.937-10.184-.154-11.557-1.29z" fill="#fff"/><path d="m37.232 301.468c.509.518 1.036 1.082 1.527 1.728l-.391 1.064c-2.646-.11-14.722-.846-19.042-5.502-.991-1.073-1.427-2.237-1.463-3.574.61-.392 2.218-1.255 4.82-1.782l-1.028 3.61-.019.1v.099c0 .146.056 1.501 1.528 2.765 2.446 2.083 7.175 2.574 14.068 1.492z" fill="#fff"/><path d="m267.625 291.501c-5.948 0-15.587 4.038-27.79 9.149-23.334 9.776-55.27 23.152-92.582 23.334-37.338-.182-69.274-13.558-92.617-23.334-12.204-5.11-21.852-9.149-27.808-9.149-4.047 0-6.884.973-8.53 1.756l6.929-25.652c.409-.437 2.428-2.401 6.402-2.401 10.576 0 23.498 5.374 38.484 11.594 20.951 8.685 46.986 19.478 77.139 19.66 30.128-.182 56.172-10.975 77.095-19.66 14.995-6.22 27.953-11.594 38.502-11.594 3.974 0 6.002 1.964 6.392 2.401l6.939 25.652c-1.635-.783-4.472-1.756-8.555-1.756z" fill="#fff"/><g fill="#231f20"><path d="m243.854 289.965-3.11 1.291 1.255 3.01 3.101-1.282z"/><path d="m234.761 291.338c.382 1.982-.41 3.446-2.119 4.155-2.628 1.092-4.683-.873-5.784-3.538-1.718-4.183.056-6.082 1.537-6.692 2.546-1.055 3.71.419 4.347 1.2l3.083-1.282c-1.064-2.118-4.129-4.428-8.566-2.6-3.82 1.582-5.72 5.456-3.574 10.639 2.109 5.12 6.056 6.602 9.984 4.992 3.71-1.545 4.883-4.675 4.164-8.138z"/><path d="m219.984 299.731 1.182 3.037 3.101-1.227-1.154-3.019z"/><path d="m216.992 294.148-6.629 2.428-1.255-3.401 7.584-2.765-.973-2.655-10.712 3.901 5.501 15.068 3.138-1.155-2.337-6.338 6.656-2.41z"/><path d="m197.586 294.193-4.174 1.137-4.192 7.911-1.709-6.302-3.247.891 4.238 15.459 3.246-.882-1.445-5.228 1.091-1.955 6.638 5.474 4.147-1.155-9.185-7.293z"/><path d="m177.735 313.008c-2.791.527-4.383-1.819-4.91-4.647-.846-4.447 1.291-5.937 2.864-6.237 2.728-.501 3.565 1.182 4.01 2.072l3.292-.618c-.609-2.292-3.128-5.184-7.847-4.301-4.066.764-6.721 4.155-5.703 9.667 1.028 5.447 4.583 7.71 8.757 6.929 3.957-.746 5.739-3.556 5.756-7.094l-3.282.619c-.035 2-1.118 3.273-2.937 3.61z"/><path d="m158.884 301.504c-2.117.191-7.593 1.573-6.964 9.076.663 7.493 6.282 7.937 8.429 7.756 2.092-.182 7.575-1.573 6.93-9.075-.62-7.484-6.276-7.93-8.395-7.757zm1.21 14.013c-1.792.137-4.419-.754-4.837-5.228-.364-4.465 2.064-5.793 3.865-5.957 1.799-.145 4.447.746 4.828 5.22.372 4.474-2.065 5.793-3.856 5.965z"/><path d="m145.89 313.662h-.046l-5.956-11.385-3.528-.118-.582 16.014 3.128.109.409-11.431h.037l6.147 11.676 3.346.119.555-16.023-3.11-.118z"/><path d="m129.112 301.259-8.02-1.11-2.219 15.878 3.256.444.854-6.21 3.447.473c2.428.337 2.455 1.201 2.164 3.365-.227 1.646-.209 2.481-.1 3.264l3.665.51.072-.419c-.682-.363-.6-.935-.263-3.264.391-2.974-.237-3.546-1.473-4.301 1.664-.309 2.747-1.691 2.991-3.446.191-1.365-.154-4.593-4.374-5.184zm1.028 5.056c-.237 1.582-1.164 2.046-2.893 1.818l-3.883-.536.582-4.264 4.148.59c1.928.264 2.137 1.546 2.046 2.392z"/><path d="m110.152 297.73-9.175 14.341 3.446.791 1.819-2.964 5.775 1.327.254 3.456 3.556.818-1.892-16.886zm-2.419 9.667 3.438-5.711.055.009.5 6.62z"/><path d="m98.476 294.557-6.556 11.176-.027-.009 1.054-12.922-4.665-1.492-4.855 15.287 2.991.945 4.038-12.758h.054l-1.273 13.659 3.138.991 6.911-11.858.027.018-4.056 12.758 2.983.955 4.856-15.295z"/><path d="m79.062 287.8-3.174-1.191-5.674 14.986 10.585 4.029 1.036-2.728-7.456-2.829z"/><path d="m69.959 284.181-6.029 14.85 3.101 1.264 6.02-14.859z"/><path d="m68.313 283.517-3.992-1.673-8.175 3.656 2.537-6.02-3.082-1.282-6.193 14.786 3.073 1.282 2.101-5.002 2.064-.882 1.855 8.412 3.974 1.664-2.728-11.412z"/><path d="m278.1 294.666-.019-.073-7.483-27.699-.092-.1c-.099-.136-2.519-3.073-7.656-3.073-7.848 0-16.85 2.828-26.944 6.774h-.01c-.381.146-.754.291-1.145.446-3.52 1.391-7.184 2.9-10.958 4.474-20.824 8.648-46.704 19.369-76.541 19.56-29.872-.191-55.743-10.912-76.566-19.56-4.866-2.019-9.53-3.957-13.96-5.638-.29-.109-.573-.218-.864-.327-.253-.091-.5-.191-.744-.282-8.712-3.238-16.56-5.447-23.489-5.447-5.147 0-7.566 2.937-7.657 3.073l-.109.1-.036.164-7.466 27.608v.073c-.109 1.882.537 3.582 1.873 5.037 5.285 5.675 19.997 5.984 20.625 5.993l.546.009.182-.491 2.946-7.983c3.509 1.364 7.366 2.982 11.531 4.728 23.461 9.831 55.552 23.271 93.189 23.452 37.611-.181 69.674-13.621 93.154-23.452 4.174-1.746 8.029-3.364 11.549-4.728l3.119 8.474.527-.009c.618-.009 15.35-.318 20.642-5.993 1.345-1.455 1.974-3.155 1.864-5.037zm-239.732 9.594c-2.646-.11-14.722-.846-19.042-5.502-.991-1.073-1.427-2.237-1.463-3.574.61-.392 2.218-1.255 4.82-1.782l-1.028 3.61-.019.1v.099c0 .146.056 1.501 1.528 2.765 2.446 2.082 7.176 2.573 14.068 1.491.51.518 1.037 1.082 1.528 1.728zm-15.104-6.548c1.819-.5 7.33-1.518 12.503 2.483-7.047.936-10.184-.155-11.557-1.291-.564-.437-.819-.864-.946-1.192zm16.086 3.883c-5.766-6.747-12.994-6.083-15.904-5.438l.836-3.01c.801-.092 1.628-.154 2.547-.154 3.446 0 8.312 1.482 14.313 3.755zm200.485-.946c-23.334 9.776-55.27 23.153-92.582 23.334-37.338-.181-69.274-13.558-92.617-23.334-12.204-5.11-21.852-9.149-27.808-9.149-4.047 0-6.884.974-8.53 1.756l6.929-25.652c.409-.437 2.428-2.401 6.402-2.401 10.576 0 23.498 5.374 38.484 11.594 20.951 8.685 46.986 19.478 77.139 19.66 30.128-.182 56.172-10.975 77.095-19.66 14.995-6.22 27.953-11.594 38.502-11.594 3.974 0 6.002 1.964 6.392 2.401l6.939 25.652c-1.637-.782-4.474-1.756-8.557-1.756-5.946.001-15.585 4.039-27.788 9.149zm15.277.946-1.782-4.847c5.992-2.273 10.866-3.755 14.295-3.755.945 0 1.773.062 2.564.154l.846 3.01c-2.928-.645-10.131-1.309-15.923 5.438zm16.105-3.883c-.146.328-.41.755-.919 1.192-1.4 1.137-4.538 2.228-11.585 1.292 5.147-4.002 10.676-2.984 12.504-2.484zm3.928 1.046c-4.339 4.656-16.396 5.392-19.024 5.502l-.409-1.064c.509-.646 1.019-1.21 1.546-1.728 6.883 1.082 11.631.591 14.068-1.491 1.473-1.264 1.509-2.619 1.509-2.765v-.099l-1.018-3.71c2.573.527 4.174 1.39 4.783 1.782 0 1.336-.464 2.5-1.455 3.573z"/></g></g></svg>