<svg clip-rule="evenodd" fill-rule="evenodd" stroke-linejoin="round" stroke-miterlimit="2" viewBox="0 0 560 400" xmlns="http://www.w3.org/2000/svg"><g fill-rule="nonzero"><g fill="#231f20"><path d="m0 72.57c0 3.986-1.93 6.044-5.788 6.044-2.406 0-7.459.603-7.459-6.044v-72.15c0-3.986 1.93-6.044 5.53-6.044 2.56 0 7.717-.59 7.717 6.044v33.439c38.286-40.506 36.21-39.483 40.64-39.483 5.659 0 7.459 5.402 7.202 5.916l-33.18 35.238 34.081 37.297c.513.642-1.801 5.787-7.589 5.787-2.829 0-5.015-1.029-7.201-3.73l-33.953-37.167z" transform="matrix(.878016 0 0 .875972 176.997737824 167.883999048)"/><path d="m0 77.809v-50.799c0-4.632 2.444-6.174 5.788-6.174 2.576 0 6.946-.349 6.946 6.174v50.799c0 5.79-3.434 6.044-6.946 6.044-3.344 0-5.788-1.414-5.788-6.044m-1.156-76.652c0-4.627 2.828-7.201 7.716-7.201 4.759 0 7.459 2.574 7.459 7.201 0 4.631-2.7 7.075-7.589 7.075-4.758 0-7.586-2.573-7.586-7.075" transform="matrix(.878016 0 0 .875972 228.939408352 163.29478174)"/><path d="m0-61.251c16.332 0 23.92 11.189 23.92 26.492v31.382c0 4.63-2.443 6.044-5.658 6.044-2.539 0-7.073.424-7.073-6.044v-29.837c0-22.533-24.664-20.571-31.638-6.046v35.883c0 4.63-2.445 6.044-5.66 6.044-2.539 0-7.073.424-7.073-6.044v-55.56c0-1 11.936-5.405 12.604 8.618 4.244-6.431 11.189-10.932 20.578-10.932" transform="matrix(.878016 0 0 .875972 281.89957744 234.411444532)"/><path d="m0 .168c0-29.897-41.284-29.342-41.284-.258 0 29.569 41.284 29.582 41.284.258m-52.986-.258c0-43.138 64.819-43.462 64.819.258 0 43.096-64.819 43.552-64.819-.258" transform="matrix(.878016 0 0 .875972 357.667090144 209.2258479768)"/><path d="m0-61.35c10.032 0 16.978 4.759 20.193 12.989 4.243-7.201 11.187-12.989 21.477-12.989 15.691 0 23.277 9.517 23.277 25.465v32.409c0 4.63-2.314 6.044-5.658 6.044-2.71 0-7.074.294-7.074-6.044v-30.867c0-10.417-4.501-15.818-13.632-15.818-6.558 0-12.474 4.116-15.689 10.288v36.397c0 4.63-2.316 6.044-5.66 6.044-2.346 0-7.073.395-7.073-6.044v-30.353c0-10.931-4.502-16.332-13.634-16.332-6.429 0-12.474 4.116-15.56 10.288v36.397c0 4.63-2.444 6.044-5.659 6.044-2.539 0-7.073.424-7.073-6.044v-55.56c0-1 11.715-5.306 12.602 8.231 4.245-6.171 10.675-10.545 19.163-10.545" transform="matrix(.878016 0 0 .875972 404.753332192 234.49816576)"/><path d="m0 19.533v-4.759c-11.916.441-30.738.864-30.738 12.475 0 14.205 30.738 11.865 30.738-7.716m-15.305-28.551c-9.389 0-14.918 4.888-17.747 10.546 0 .129-7.846 0-7.846-6.173 0-16.42 53.502-26.688 53.502 9.904v37.937c0 .646-2.314 1.415-4.63 1.415-4.501 0-7.716-2.444-7.844-10.031-11.275 16.286-43.342 14.531-43.342-6.815 0-18.577 24.703-20.963 43.212-20.963 0-10.348-4.635-15.82-15.305-15.82" transform="matrix(.878016 0 0 .875972 508.074743008 197.7817117828)"/></g><path d="m0-102.743c-6.78 0-12.275.863-18.202 3.257.482-.116 0 0 .491-.11-8.218 3.207-14.899 10.476-14.899 19.719 0 10.757 12.29 19.885 27.455 19.885 23.716 0 36.165-21.144 20.683-31.908 3.495 6.823-4.147 13.897-14.877 13.897-8.671 0-15.708-4.709-15.708-10.52 0-7.783 11.471-11.656 19.241-10.347.08.012.16.021.242.025 4.256.385 8.625 1.465 12.967 3.251.101-.057-.087.049 0 0 41.422 18.652 23.614 66.532-22.924 66.532-22.55 0-41.313-12.503-45.382-29.045-4.095 30.881 19.979 58.107 50.913 58.107 28.374 0 51.377-23.003 51.377-51.372 0-28.372-23.003-51.371-51.377-51.371" fill="#7cc042" transform="matrix(.878016 0 0 .875972 85.9608244672 245.000194068)"/></g></svg>