<svg clip-rule="evenodd" fill-rule="evenodd" stroke-linejoin="round" stroke-miterlimit="2" viewBox="0 0 560 400" xmlns="http://www.w3.org/2000/svg"><g fill-rule="nonzero"><path d="m0 .167s-3.277.163-3.651-2.454c0 0-7.615-7.934-10.015-9.593 0 0-22.515-21.887-27.331-29.312 0 0-18.574-23.715-19.871-25.095 0 0-3.605-6.478-7.456-6.288-3.651-.387-4.636-1.182-4.581-3.222 0 0-1.103-12.01-6.907-22.719 0 0-3.734-9.559-7.059-14.651 0 0-.733-2.627-.166-3.92l12.898-29.689s6.862-13.648 7.139-16.504c0 0 3.125-7.353-3.06-5.673 0 0-.079-.491-8.839 3.779l-23.93 10.844-10.208 4.94s-1.317 1.234-4.038-.224l-31.587-12.975-7.778-3.294s-8.034-2.748-10.167-8.214c0 0-1.286-3.232-1.867-7.595 0 0-.833-11.232-8.539-19.411 0 0-1.241-3.841-4.964-3.153 0 0-2.845-1.41-2.769 7.495 0 0-.076 5.044-4.345 11.263 0 0-2.175 5.88-6.866 3.955 0 0-5.099-1.639-12.037-5.556 0 0-3.979-2.686-5.044-7.792l-4.038-21.945-2.012-12.276s-1.995-13.119-1.939-18.882c0 0-.477-12.428-.315-14.578 0 0 1.245-11.191-1.711-11.892l.387-.809 7.267-.882 5.78 4.608 1.625 16.19 1.559 16.884 4.698 20.448 5.12 17.648.276 6.216 4-5.376 1.511-.491 3.343 5.286 1.859-5.673.73-3.07 2.606-2.461 2.794.197 6.641-1.843 12.649 11.706s2.838 12.213 3.032 12.203c.19-.007 8.542 11.311 8.542 11.311s13.043 5.569 13.195 5.683c.152.108 22.785 9.511 22.785 9.511l5.673-.114 3.212-.415 37.799-15.505 4.321.574 4.003 3.457-3.768 8.131.699 2.264-4.806 11.125-2.917 9.458-6.247 12.912-1.324 5.753-.387 3.104 1.745 6.022 2.873 6.572s2.838 8.355 2.952 8.473c.118.114 3.457 5.752 3.457 5.752l1.162 6.759 2.952 5.182 5.086 3.218s7.881 7.554 7.996 7.634c.121.079 6.561 5.831 6.561 5.831l2.596 4.719s5.863 5.718 6.022 5.988c.152.266 4.619 7.367 4.619 7.367l1.673 3.484s5.504 4.259 5.583 4.377c.08.117 7.301 8.055 7.491 8.252.194.187 4.661 4.867 4.661 4.867l4.189 7.025 12.428 7.713.346 2.724s-2.057 2.299-2.019 2.648-1.673 3.419-1.673 3.419z" fill="#fff" transform="matrix(.602106 0 0 -.602106 369.50561632 143.7387666)"/><path d="m0 .167c.895 3.976.823 7.931.771 11.875-.145 9.87-8.95 18.378-18.955 18.378h-82.622c-17.289 0-34.588.01-51.873-.024-.975 0-1.182.259-1.165 1.171.066 3.616 0 7.233.045 10.845.01.806-.142 1.103-1.047 1.092-15.543-.027-31.089-.027-46.622.011-.93 0-1.04-.322-1.03-1.103.038-3.578-.017-7.149.045-10.727.021-1.009-.231-1.289-1.286-1.289-19.345.034-38.701.017-58.05.051-1.137.011-1.331-.3-1.331-1.348.042-10.727.042-21.461.004-32.188 0-.94.148-1.414 1.227-1.265.67.103 1.369-.031 2.05.038.778.072.94-.232.933-.948-.038-3.311 0-6.623-.027-9.942 0-.968.435-2.247-.198-2.804-.528-.48-1.808-.238-2.748-.148-1.04.1-1.241-.277-1.237-1.245.038-11.069.038-22.138 0-33.208-.004-1.002.245-1.234 1.244-1.234 19.581.035 39.158.024 58.742.014 1.216 0 2.7.47 3.56-.173.795-.601.93-2.06 1.359-3.135 3.419-8.581 8.826-15.875 15.276-22.378 9.998-10.087 21.396-18.391 33.772-25.398 11.408-6.458 23.345-11.882 35.258-17.351 3.471-1.601 6.935-3.232 10.409-4.833.971-.449 1.455-1.044 1.234-2.209-.218-1.103-.359-2.216-.691-3.301-2.648-8.771-5.303-17.534-7.944-26.301-1.746-5.808-3.167-11.668-3.627-17.738-.377-4.92-.626-9.842-.906-14.765-.162-2.863-.141-5.715.308-8.556.66-4.239 2.316-6.002 6.468-6.932 1.504-.331 2.956.035 4.377.464 5.109 1.559 9.797 4.038 14.46 6.551 7.582 4.072 15.336 7.75 23.304 11.017 1.162.474 2.344.892 3.62.882.95 0 1.265-.491.988-1.304-.179-.528-.491-1.019-.816-1.476-1.054-1.486-2.416-2.703-3.809-3.875-5.607-4.715-11.633-8.85-17.811-12.787-3.764-2.4-7.477-4.885-11.612-6.659-4.342-1.86-8.808-2.827-13.551-1.96-3.039.557-5.556 2.206-8.034 3.869-11.744 7.882-22.111 17.34-31.812 27.531-4.048 4.252-7.857 8.708-11.574 13.248-1.286 1.569-2.814 2.852-4.864 3.353-1.113.266-1.925-.19-2.382-1.227-.297-.678-.297-1.387-.276-2.102.041-2.137.646-4.169 1.521-6.095 4.072-8.902 8.76-17.496 14.191-25.654 4.563-6.88 9.469-13.542 14.139-20.359 2.558-3.72 5.103-7.515 6.534-11.83 2.541-7.667 3.91-15.598 4.328-23.659.325-6.202.128-12.411.128-18.623-.007-9.206.881-18.336 2.23-27.428.777-5.196 1.562-10.406 3.156-15.443.812-2.592 1.887-5.085 3.706-7.159 1.206-1.38 2.174-1.193 2.862.505.439 1.085.626 2.233.75 3.398.412 4.051.394 8.131.318 12.186-.217 11.035.91 21.914 2.814 32.769 1.757 10.032 3.654 20.037 5.601 30.02.584 2.991 1.559 5.836 4.466 7.391 3.91 2.089 8.021 3.741 12.286 5.006 1.999.602 3.606.056 4.975-1.531 3.599-4.142 5.248-8.982 5.479-14.371.063-1.576.063-3.16.592-4.681.48-1.431.957-1.742 2.485-1.815 1.791-.093 3.177.744 4.325 1.943 2.852 2.949 5.286 6.199 6.72 10.091 1.788 4.888 2.946 9.953 3.834 15.045.899 5.037 3.661 8.452 8.228 10.613.857.401 1.718.806 2.586 1.172 13.441 5.545 26.888 11.087 40.322 16.656.84.346 1.504.328 2.334-.049 13.458-6.077 26.961-12.065 40.34-18.308 1.137-.529 2.33-.923 3.571-1.137 2.579-.439 4.234.867 4.324 3.464.045 1.414-.269 2.772-.771 4.079-.968 2.527-1.887 5.068-2.99 7.536-5.521 12.463-11.086 24.922-16.663 37.36-.338.771-.345 1.324.101 2.067 1.344 2.265 2.655 4.553 3.847 6.911 5.21 10.288 9.549 20.856 10.219 32.541.021.425.163.556.581.629 1.998.36 3.716 1.307 5.296 2.496 4.263 3.205 7.581 7.287 10.734 11.501 6.555 8.767 13.019 17.628 20.331 25.807 8.981 10.056 18.547 19.56 28.679 28.493 1.341 1.179 2.925 2.323 3.374 4.024.526 1.994 1.743 2.039 3.284 1.925.118-.01.232-.017.339 0 .913.142 1.003-.287.816-1.037-.688-2.686-2.237-4.826-4.325-6.613-3.218-2.766-6.333-5.645-9.365-8.608-10.786-10.499-21.226-21.281-30.338-33.274-5.476-7.222-10.728-14.62-16.912-21.295-2.361-2.541-4.726-5.127-8.128-6.399-.518-.197-.383-.598-.408-.94-.342-3.907-1.237-7.713-2.399-11.453-2.651-8.501-6.485-16.487-10.931-24.199-.39-.671-.463-1.217-.131-1.961 1.02-2.298 1.96-4.635 2.907-6.958 3.931-9.594 8.504-18.917 12.539-28.469 1.746-4.117 3.353-8.283 4.331-12.663.885-3.951.529-7.557-5.538-8.577 3.692-1.97 7.277-3.823 11.301-4.646 1.252-.252 2.489-.232 3.73.035 3.399.715 5.227 3.339 4.626 6.73-.239 1.324-.519 2.659-.868 3.955-1.995 7.429-5.196 14.399-8.4 21.358-3.696 8.02-7.661 15.923-10.766 24.199-.286.767-.297 1.351.132 2.088 2.983 5.185 5.642 10.54 7.892 16.078 2.51 6.14 4.774 12.366 5.158 19.059.073 1.234.411 1.981 1.628 2.388.626.208 1.172.688 1.718 1.093 3.129 2.316 5.763 5.154 8.145 8.196 10.198 13.085 20.59 26.025 32.081 38.052 6.458 6.755 12.653 13.769 19.792 19.867 1.728 1.466 3.474 2.935 4.957 4.667 1.943 2.275 2.275 4.736 1.047 7.447-.28.598-.726 1.127-.833 1.887h1.297c18.318 0 36.647.01 54.963-.017.895 0 1.237.124 1.227 1.127-.028 27.372-.028 54.738 0 82.114 0 .882-.235 1.099-1.12 1.099-57.145-.02-114.282-.02-171.419 0-.841 0-1.076-.179-1.065-1.037.045-5.272.021-10.54.021-15.812 0-4.18.006-8.359 0-12.535 0-.415.179-.934-.609-.895-1.255.044-2.506.006-3.813.006m-84.669-246.847c.079 1.642-.889 3.757-3.011 5.382-.723.543-1.438.723-2.334.508-2.845-.677-5.386-1.977-7.875-3.446-1.97-1.162-3.311-2.704-3.668-5.003-.127-.812-.383-1.607-.546-2.416-1.545-7.775-2.89-15.574-4.546-23.335-1.03-4.843-2.191-9.676-2.748-14.606-1.02-9.102-1.369-18.225-1.127-27.383.1-3.702.249-7.453-.94-11.065-.069-.208-.059-.467 0-.671.86-2.714 2.039-5.22 4.145-7.27 2.523-2.469 8.652-2.289 9.818 2.558.131.584.338 1.158.425 1.735.736 4.591.639 9.237.888 13.846.484 9.054 1.217 18.094 2.624 27.051 1.805 11.546 4.636 22.882 7.149 34.293.643 2.925 1.635 5.787 1.746 9.822m86.805 35.258c-3.422 1.407-6.689 2.72-9.932 4.096-.684.301-1.234.291-1.922 0-9.565-3.917-19.148-7.771-28.707-11.709-4.276-1.756-8.625-3.322-12.78-5.361-3.551-1.736-5.607-4.581-6.354-8.422-.965-4.974-1.736-9.994-3.392-14.806-1.572-4.601-3.56-8.961-7.477-12.148-.18-.149-.294-.301-.342-.543-.591-3.177 1.863-6.596 5.102-7.042 3.513-.477 6.531.744 9.154 2.915 4.215 3.502 6.462 8.179 7.945 13.281 1.137 3.903 1.645 7.938 2.513 11.893 1.327 6.084 4.414 10.623 10.554 12.963 5.977 2.285 11.823 4.882 17.724 7.357 5.901 2.472 11.796 4.95 17.914 7.526" fill="#fff" transform="matrix(.602106 0 0 -.602106 305.6703382 111.45986394)"/><path d="m0 .167c1.307 0 2.558.038 3.813-.006.788-.039.609.48.609.895.006 4.176 0 8.355 0 12.535 0 5.272.024 10.54-.021 15.812-.011.858.224 1.037 1.065 1.037 57.137-.02 114.274-.02 171.419 0 .885 0 1.12-.217 1.12-1.099-.028-27.376-.028-54.742 0-82.114.01-1.003-.332-1.127-1.227-1.127-18.316.027-36.645.017-54.963.017h-1.297c.107-.76.553-1.289.833-1.887 1.228-2.711.896-5.172-1.047-7.447-1.483-1.732-3.229-3.201-4.957-4.667-7.139-6.098-13.334-13.112-19.792-19.867-11.491-12.027-21.883-24.967-32.081-38.052-2.382-3.042-5.016-5.88-8.145-8.196-.546-.405-1.092-.885-1.718-1.093-1.217-.407-1.555-1.154-1.628-2.388-.384-6.693-2.648-12.919-5.158-19.059-2.25-5.538-4.909-10.893-7.892-16.078-.429-.737-.418-1.321-.132-2.088 3.105-8.276 7.07-16.179 10.766-24.199 3.204-6.959 6.405-13.929 8.4-21.358.349-1.296.629-2.631.868-3.955.601-3.391-1.227-6.015-4.626-6.73-.895-.194-1.777-.26-2.682-.184-.349.031-.699.076-1.048.149-4.024.823-7.609 2.676-11.301 4.646 6.067 1.02 6.423 4.626 5.538 8.577-.978 4.38-2.585 8.546-4.331 12.663-4.035 9.552-8.608 18.875-12.539 28.469-.947 2.323-1.887 4.66-2.907 6.958-.332.744-.259 1.29.131 1.961 4.446 7.712 8.28 15.698 10.931 24.199 1.162 3.74 2.057 7.546 2.399 11.453.025.342-.11.743.408.94 3.402 1.272 5.767 3.858 8.128 6.399 6.184 6.675 11.436 14.073 16.912 21.295 9.112 11.993 19.552 22.775 30.338 33.274 3.032 2.963 6.147 5.842 9.365 8.608 2.088 1.787 3.637 3.927 4.325 6.613.187.75.097 1.179-.816 1.037-.107-.017-.221-.01-.339 0-1.541.114-2.758.069-3.284-1.925-.449-1.701-2.033-2.845-3.374-4.024-2.316-2.04-4.601-4.118-6.855-6.213-7.612-7.086-14.889-14.522-21.824-22.28-7.312-8.179-13.776-17.04-20.331-25.807-3.153-4.214-6.471-8.296-10.734-11.501-1.58-1.189-3.298-2.136-5.296-2.496-.418-.073-.56-.204-.581-.629-.67-11.685-5.009-22.253-10.219-32.541-1.192-2.358-2.503-4.646-3.847-6.911-.446-.743-.439-1.296-.101-2.067 5.577-12.438 11.142-24.897 16.663-37.36 1.103-2.468 2.022-5.009 2.99-7.536.502-1.307.816-2.665.771-4.079-.09-2.597-1.745-3.903-4.324-3.464-1.241.214-2.434.608-3.571 1.137-13.379 6.243-26.882 12.231-40.34 18.308-.83.377-1.494.395-2.334.049-13.434-5.569-26.881-11.111-40.322-16.656-.868-.366-1.729-.771-2.586-1.172-4.567-2.161-7.329-5.576-8.228-10.613-.888-5.092-2.046-10.157-3.834-15.045-1.434-3.892-3.868-7.142-6.72-10.091-1.148-1.199-2.534-2.036-4.325-1.943-1.528.073-2.005.384-2.485 1.815-.529 1.521-.529 3.105-.592 4.681-.231 5.389-1.88 10.229-5.479 14.371-1.369 1.587-2.976 2.133-4.975 1.531-4.265-1.265-8.376-2.917-12.286-5.006-2.907-1.555-3.882-4.4-4.466-7.391-1.947-9.983-3.844-19.988-5.601-30.02-1.904-10.855-3.031-21.734-2.814-32.769.076-4.055.094-8.135-.318-12.186-.124-1.165-.311-2.313-.75-3.398-.688-1.698-1.656-1.885-2.862-.505-1.819 2.074-2.894 4.567-3.706 7.159-1.594 5.037-2.379 10.247-3.156 15.443-1.349 9.092-2.237 18.222-2.23 27.428 0 6.212.197 12.421-.128 18.623-.418 8.061-1.787 15.992-4.328 23.659-1.431 4.315-3.976 8.11-6.534 11.83-4.67 6.817-9.576 13.479-14.139 20.359-5.431 8.158-10.119 16.752-14.191 25.654-.875 1.926-1.48 3.958-1.521 6.095-.021.715-.021 1.424.276 2.102.457 1.037 1.269 1.493 2.382 1.227 2.05-.501 3.578-1.784 4.864-3.353 3.717-4.54 7.526-8.996 11.574-13.248 9.701-10.191 20.068-19.649 31.812-27.531 2.478-1.663 4.995-3.312 8.034-3.869 4.743-.867 9.209.1 13.551 1.96 4.135 1.774 7.848 4.259 11.612 6.659 6.178 3.937 12.204 8.072 17.811 12.787 1.393 1.172 2.755 2.389 3.809 3.875.325.457.637.948.816 1.476.277.813-.038 1.304-.988 1.304-1.276.01-2.458-.408-3.62-.882-7.968-3.267-15.722-6.945-23.304-11.017-4.663-2.513-9.351-4.992-14.46-6.551-1.421-.429-2.873-.795-4.377-.464-4.152.93-5.808 2.693-6.468 6.932-.449 2.841-.47 5.693-.308 8.556.28 4.923.529 9.845.906 14.765.46 6.07 1.881 11.93 3.627 17.738 2.641 8.767 5.296 17.53 7.944 26.301.332 1.085.473 2.198.691 3.301.221 1.165-.263 1.76-1.234 2.209-3.474 1.601-6.938 3.232-10.409 4.833-11.913 5.469-23.85 10.893-35.258 17.351-12.376 7.007-23.774 15.311-33.772 25.398-6.45 6.503-11.857 13.797-15.276 22.378-.429 1.075-.564 2.534-1.359 3.135-.86.643-2.344.173-3.56.173-19.584.01-39.161.021-58.742-.014-.999 0-1.248.232-1.244 1.234.038 11.07.038 22.139 0 33.208-.004.968.197 1.345 1.237 1.245.94-.09 2.22-.332 2.748.148.633.557.198 1.836.198 2.804.027 3.319-.011 6.631.027 9.942.007.716-.155 1.02-.933.948-.681-.069-1.38.065-2.05-.038-1.079-.149-1.227.325-1.227 1.265.038 10.727.038 21.461-.004 32.188 0 1.048.194 1.359 1.331 1.348 19.349-.034 38.705-.017 58.05-.051 1.055 0 1.307.28 1.286 1.289-.062 3.578-.007 7.149-.045 10.727-.01.781.1 1.103 1.03 1.103 15.533-.038 31.079-.038 46.622-.011.905.011 1.057-.286 1.047-1.092-.045-3.612.021-7.229-.045-10.845-.017-.912.19-1.171 1.165-1.171 17.285.034 34.584.024 51.873.024h82.622c10.005 0 18.81-8.508 18.955-18.378.052-3.944.124-7.899-.771-11.875m-142.087-96.689c-.096.18-.238.225-.418.114l.266-.266c2.438-2.226 4.871-4.435 7.295-6.675.224-.215.705-.356.546-.771-.771-1.978.646-3.094 1.78-4.249 1.265-1.269 2.863-2.084 4.494-2.845 5.155-2.399 10.541-4.214 15.972-5.891 6.561-2.012 13.226-3.685 19.58-6.309 2.029-.829 4.052-1.708 5.735-3.173.996-.868 1.414-1.888 1.262-3.215-.18-1.539-.598-3.015-1.116-4.474-2.389-6.81-5.39-13.368-8.442-19.902-4.716-10.073-9.493-20.126-14.147-30.228-2.046-4.432-2.423-9.126-1.514-13.904.664-3.453 2.358-4.439 5.825-3.509 1.964.526 3.751 1.442 5.525 2.372 8.742 4.615 17.42 9.344 26.235 13.824 8.01 4.083 15.553 8.826 22.588 14.375 3.004 2.371 6.185 4.525 8.86 7.29 2.289 2.372 4.201 4.968 4.187 8.477 0 .401.124.823.259 1.207.322.891.771 1.009 1.556.445 3.07-2.171 4.629-6.333 3.685-10.014-1.044-4.097-3.544-7.291-6.755-9.932-2.244-1.853-4.626-3.551-7.032-5.207-4.269-2.945-8.59-5.825-12.915-8.698-.626-.421-.802-.66-.08-1.158.654-.435 1.248-.992 1.853-1.493 2.123-1.742 2.123-2.095-.055-3.765-7.325-5.638-14.986-10.831-22.854-15.684-5.742-3.544-11.782-6.517-18.146-8.85-6.119-2.258-11.972-1.839-17.735 1.089-3.125 1.583-6.042 3.474-8.742 5.683-14.043 11.464-26.937 24.089-38.988 37.564-.516.563-1.024 1.137-1.594 1.763-.152-.436.007-.671.097-.909 1.548-4.359 3.329-8.629 5.638-12.649 5.804-10.147 12.252-19.888 18.969-29.464 3.775-5.362 7.564-10.731 10.419-16.663 3.685-7.668 4.83-15.92 5.476-24.261.463-5.974.429-11.962.349-17.949-.11-8.401.356-16.77 1.459-25.112.84-6.406 1.518-12.839 3.011-19.152.398-1.68.774-3.388 1.812-5.213 0 2.541.017 4.753-.011 6.959-.104 10.696.163 21.35 1.784 31.967 2.022 13.233 4.491 26.37 7.28 39.455.529 2.496 1.739 4.497 3.876 5.866 4.286 2.759 8.853 5.006 13.79 6.327 3.592.968 6.973.518 9.424-2.718 3.809-5.026 6.191-10.568 6.167-16.967 0-.57-.235-1.369.373-1.645.591-.27 1.103.384 1.566.733 2.32 1.787 3.796 4.176 4.906 6.81 2.067 4.913 3.308 10.067 4.311 15.256 1.279 6.579 4.618 11.266 11.052 13.925 14.74 6.077 29.388 12.376 44.063 18.605.715.305 1.262.208 1.925-.1 11.488-5.289 22.979-10.568 34.477-15.83 2.62-1.199 5.255-2.343 7.896-3.491.55-.239 1.193-.453 1.715.048.466.436.349 1.02.214 1.59-.315 1.363-.878 2.631-1.379 3.931-3.917 10.101-9.286 19.46-15.014 28.641-3.921 6.296-8.207 12.314-13.655 17.431-.519.497-.287.878-.111 1.293 4.255 9.932 4.352 20.161 2.247 30.549-.892 4.429-2.295 8.705-3.737 12.978-1.175 3.436 1.141 6.537 4.784 6.554 1.992 0 3.938-.366 5.908-.58 2.873-.305 5.763-.713 8.653-.419 4.163.419 7.554 2.586 10.838 4.947 3.07 2.199 5.521 5.058 8.242 7.637 14.298 13.544 29.153 26.487 44.363 39.033 3.098 2.558 6.268 5.044 9.016 7.968 2.351 2.517 1.877 4.111-1.424 5.113-3.08.923-6.274 1.207-9.469 1.324-14.893.553-29.661-.325-44.239-3.592-16.78-3.764-32.807-9.33-47.185-18.941-2.838-1.898-5.891-3.429-9.057-4.705-.325-.128-.743-.601-1.058.194-1.573 4-4.169 7.391-6.824 10.741-.83 1.034-1.642 2.098-2.731 3.077-.764-2.669-1.487-5.2-2.265-7.938-1.493 3.392-2.879 6.551-4.342 9.87-1.234-2.354-2.35-4.487-3.533-6.738-1.379 3.177-2.703 6.237-4.096 9.466-1.335-2.251-2.607-4.384-3.965-6.665-1.283 2.907-2.472 5.617-3.741 8.504-1.172-2.52-2.23-4.805-3.377-7.26-1.4 2.71-2.693 5.189-4.069 7.858-.913-2.365-1.753-4.546-2.666-6.9-1.272 2.665-2.464 5.154-3.778 7.899-.643-2.264-1.252-4.259-1.774-6.281-.159-.633-.338-.733-.981-.574-4.27 1.068-8.556 2.088-12.833 3.108-10.378 2.451-20.669 5.237-31.141 7.308-10.951 2.188-21.941 4.162-33.049 5.514-7.408.895-14.827 1.576-22.28 1.987-6.592.367-13.175.153-19.746-.297-3.378-.221-6.769-.463-10.067-1.258-2.776-.671-3.644-2.016-3.063-4.788.885-4.228 2.441-8.224 4.584-11.948 4.988-8.68 11.64-15.964 19.525-22.156 3.844-3.024 7.962-5.666 12.259-8.027 1.106-.612 1.403-.439 1.493.788.09 1.318.169 2.638.169 3.955-.01.83.253 1.01 1.038.75 1.801-.598 3.616-1.147 5.431-1.697 1.711-.529 3.429-1.03 5.147-1.542.073.097.142.208.214.315-.304.214-.636.404-.905.653-2.362 2.192-4.723 4.38-7.077 6.579-2.226 2.057-2.199 2.05-.868 4.705.35.688.643.823 1.362.473 3.136-1.514 6.299-2.969 9.459-4.438.39-.18.75-.502 1.251-.457-.027.097-.027.17-.062.225-2.095 2.631-4.197 5.262-6.292 7.892-1.521 1.916-1.504 1.895.412 3.444.539.432.916.449 1.493.072 2.417-1.556 4.881-3.059 7.329-4.57.214-.138.415-.46.819-.252-1.282 1.97-2.561 3.927-3.834 5.88-1.369 2.102-1.351 2.074.785 3.426.633.394 1.023.332 1.587-.1 2.254-1.732 4.556-3.399 6.838-5.089.09-.038.232-.107.252-.09.076.107.024.197-.093.249-.947 2.202-1.898 4.404-2.835 6.606-.11.242-.415.481-.11.785.594.595 2.416.664 3.107.135 2.016-1.549 4.038-3.087 6.316-4.833-1.002 2.427-1.87 4.529-2.755 6.686 1.421.356 2.614.466 3.813-.643 1.68-1.57 3.561-2.911 5.362-4.339.069-.065.176-.18.204-.166.162.083.09.218.038.343-.567 1.735-1.13 3.47-1.728 5.299 1.655-.252 3.121-.477 4.3-1.818 1.424-1.628 3.115-3.025 4.899-4.716-.305 1.933-.574 3.551-.861 5.359 3.993-1.342 6.326-4.339 8.794-7.416.166 1.439-.266 2.576-.525 3.748-.052.242-.315.512-.079.726.241.231.573.062.85-.045 1.663-.619 2.845-1.843 3.955-3.143.912-1.088 1.69-2.278 2.523-3.616.187.996.374 1.819.509 2.652.134.861.501.85 1.113.377 1.248-.999 2.264-2.23 3.381-3.36 1.199-1.207 1.303-1.224 1.904.314.377.968.879 1.055 1.736.657 1.753-.837 3.436-1.718 4.726-3.243 1.047-1.244 2.264-2.344 3.391-3.515.187-.208.525-.339.432-.768-2.133-.162-4.38-.671-5.407 2.047-.02.062-.09.117-.145.172-.518.599-1.227 1.172-1.95.879-.653-.263-.321-1.124-.314-1.739.01-.495.314-1.093-.374-1.387-.656-.28-1.147.011-1.628.474-.76.733-1.569 1.424-2.371 2.112-.218.187-.484.474-.795.305-.377-.208-.208-.612-.139-.917.152-.643.197-1.268.101-1.984-1.649 1.082-3.171 2.085-4.699 3.087.08-.722.377-1.289.529-1.887.101-.405.609-.975.177-1.2-.474-.232-1.19-.214-1.718.218-.17.149-.339.301-.519.446-1.832 1.511-3.658 3.032-5.725 4.739.571-1.887 1.055-3.495 1.625-5.403-2.7 2.067-5.134 3.927-7.561 5.791-.086.027-.231.086-.248.072-.073-.11-.011-.187.114-.214.065-.218.117-.432.207-.629.736-1.563 1.414-3.16 2.219-4.681.419-.795-.024-.885-.573-.913-.401-.027-.654.342-.948.567-2.551 1.915-5.099 3.844-7.695 5.815-.152-.512.169-.743.322-1.01 1.019-1.756 1.994-3.536 3.114-5.227.609-.919.208-1.071-.591-1.289-.518-.142-.788.18-1.106.387-2.928 1.929-5.846 3.872-8.808 5.839-.087-.484.214-.757.376-1.072 1.207-2.337 2.434-4.663 3.634-6.997.131-.269.484-.535.141-.905-.591-.661-1.621-.74-2.371-.17-1.978 1.521-3.945 3.042-5.95 4.546-.214.159-.404.726-.843.259.062.063.128.135.197.198-.035.02-.059.034-.097.051-.028-.079-.055-.169-.083-.249 1.539-2.167 3.053-4.359 4.657-6.485.508-.671.283-.971-.242-1.424-.505-.422-.833-.125-1.217.072-2.766 1.362-5.531 2.728-8.297 4.097-.097.18-.232.242-.418.145.069-.11.152-.207.221-.314 2.133-2.507 4.235-5.041 6.409-7.502.581-.643.152-.954-.11-1.428-.294-.539-.633-.601-1.183-.359-1.493.653-2.993 1.265-4.504 1.88-1.417.581-2.849 1.151-4.27 1.725.087-.411.277-.677.481-.93 1.995-2.426 3.986-4.846 6.008-7.246.398-.477.474-.781.132-1.351-.405-.688-.823-.336-1.234-.187-2.579.875-5.093 1.939-7.717 2.672m40.199 109.968c-.059-.017-.135-.031-.204-.052-1.622 3.008-3.25 6.015-4.851 9.03-.28.508-.584.753-1.227.753-6.433-.027-12.87-.038-19.311 0-.76 0-.94-.224-.933-.95.028-4.557.021-9.113.021-13.666 0-2.257 0-2.275 2.226-2.309.574-.007.792-.125.781-.74-.027-2.869-.027-5.732 0-8.584.011-.643-.252-.726-.798-.726-4.536.021-9.065.028-13.6 0-.671-.007-.813.225-.806.84.025 2.303.007 4.591.007 6.894 0 2.264 0 2.298 2.275 2.281.778-.007.951.232.94.947-.027 4.979-.034 9.943.011 14.91.007.937-.308 1.103-1.169 1.103-7.228-.038-14.467-.01-21.706-.038-.823-.01-1.1.142-1.082 1.03.051 3.72.01 7.454.045 11.173 0 .726-.184.951-.941.941-10.668-.024-21.333-.024-32.001.01-.84 0-.972-.283-.965-1.03.035-3.651-.017-7.298.035-10.952.017-.94-.222-1.182-1.183-1.182-7.263.048-14.55.01-21.824.048-.822.007-1.272-.207-1.638-.971-1.646-3.495-3.374-6.969-5.082-10.444-.159-.339-.242-.746-.671-1.044 0 3.865-.017 7.626.028 11.395.01.819-.169 1.071-1.058 1.064-9.368-.038-18.74-.038-28.109 0-.895.007-1.044-.262-1.044-1.064.045-5.425.007-10.849.035-16.269 0-1.041-.464-2.427.197-3.025.567-.512 1.953-.225 2.962-.156.903.073 1.041-.259 1.041-1.061-.028-7.986-.017-15.968-.017-23.947 0-1.016.328-2.357-.19-2.955-.602-.699-1.999-.142-3.05-.232h-.11c-.74.142-.861-.218-.861-.878.028-6.396.028-12.794-.007-19.197 0-.729.242-.85.902-.85 17.451.02 34.892.02 52.34 0 .719 0 .995.128.926.916-.18 1.922.463 3.561 2.036 4.76 1.013.771 2.147 1.279 3.347 1.656 2.426.761 4.915 1.314 7.384 1.891 8.698 2.019 17.43 3.799 26.266 5.127 5.314.802 10.661 1.199 16.006 1.607 7.637.591 15.266 1.113 22.927 1.179 6.337.055 12.625-.508 18.91-1.213 6.233-.716 12.455-1.514 18.664-2.424 8.2-1.21 16.314-2.821 24.448-4.397 10.624-2.057 21.164-4.446 31.321-8.224.653-.239 1.116-.159 1.683.162 8.902 5.127 18.073 9.704 27.712 13.334 7.121 2.696 14.588 4.124 21.979 5.79 4.536 1.031 9.089 1.864 13.78 1.629 1.037-.056 1.324-.529 1.296-1.414-.024-.761-.484-1.1-1.127-1.39-3.329-1.483-6.506-3.246-9.603-5.151-8.328-5.127-14.305-12.393-19.166-20.655-.474-.806-1.262-1.871-.588-2.7.633-.796 1.795-.163 2.69.027 15.221 3.302 30.453 6.531 45.995 8.062 8.985.885 17.97 1.556 27.007 1.538 29.45-.072 58.89-.062 88.33-.11.788 0 1.03.19 1.023.999-.028 9.026-.028 18.063 0 27.103 0 .733-.19.95-.947.94-3.357-.038-6.703.01-10.064-.038-.739-.007-.971.19-.964.947.048 3.727.055 7.457-.007 11.18-.01.913.311 1.027 1.11 1.01 2.928-.038 5.859.017 8.794-.038.788-.007 1.02.19 1.013.999-.024 8.507-.024 17.008 0 25.516 0 .781-.183 1.016-.995 1.016-24.493-.027-48.983-.027-73.476 0-.798 0-1.023-.19-1.013-.999.038-4.473.011-8.953.028-13.437 0-.806-.366-1.85.18-2.372.404-.383 1.441-.117 2.202-.135h.107c.474.052.681-.1.681-.615-.01-5.497-.017-10.993 0-16.486.01-.571-.225-.681-.743-.688-.889-.024-.699.698-.778 1.12-2.168 10.862-4.325 21.734-6.416 32.613-.173.844-.484.999-1.265.999-8.104-.027-16.221-.048-24.338.014-1.12 0-1.452-.332-1.638-1.362-1.888-10.807-3.838-21.606-5.725-32.409-.18-1.038-.771-.968-1.511-.975-.944-.018-.667.646-.667 1.102-.007 4.823-.007 9.635-.007 14.461 0 2.209 0 2.237 2.247 2.209.743-.007 1.054.114 1.044.958-.042 5.012-.042 10.015 0 15.024.01.83-.301.978-1.054.968-14.554-.017-29.102-.017-43.649.01-.809 0-1.006-.218-.995-1.006.034-4.705.017-9.413.017-14.111 0-1.815 0-1.877 1.818-1.798.975.042 1.183-.249 1.172-1.182-.045-4.892-.017-9.79-.017-14.686 0-1.922-.01-1.984-1.97-1.915-.913.038-1.031-.283-1.02-1.071.034-3.651.017-7.305.017-10.952 0-1.736-.214-1.981-1.967-1.981-4.152-.017-8.307.01-12.456-.028-.798 0-1.037.218-1.03 1.013.042 3.651.018 7.305.018 10.952 0 2.033 0 2.078-2.075 2.026-.86-.028-1.085.221-1.123 1.054-.104 2.576-.616 5.082-2.171 7.229-.394.556-.429.878.01 1.434 1.252 1.56 1.957 3.354 2.126 5.366.208 2.482.011 4.967.111 7.45.266 6.316-5.22 12.168-12.179 12.179-27.383.017-54.777 0-82.159.027-.761 0-.955-.207-.941-.943.038-2.935.011-5.86.011-8.788m-31.902-48.896c-3.436-.035-6.094-2.61-6.067-5.881.028-3.211 2.793-5.769 6.212-5.731 3.333.038 6.023 2.631 6.012 5.825 0 3.239-2.748 5.815-6.157 5.787" transform="matrix(.602106 0 0 -.602106 305.6703382 111.45986394)"/><path d="m0 .167c-.107-4.034-1.103-6.9-1.746-9.824-2.513-11.402-5.344-22.748-7.149-34.28-1.403-8.971-2.14-17.997-2.624-27.055-.249-4.615-.152-9.261-.885-13.842-.09-.594-.294-1.165-.428-1.745-1.162-4.844-7.291-5.03-9.818-2.558-2.102 2.046-3.281 4.552-4.138 7.273-.066.197-.076.46 0 .66 1.185 3.616 1.033 7.367.936 11.073-.245 9.151.104 18.281 1.124 27.383.557 4.93 1.718 9.763 2.748 14.609 1.66 7.751 3.001 15.564 4.539 23.332.17.805.429 1.6.557 2.416.359 2.299 1.697 3.838 3.664 5.003 2.493 1.465 5.034 2.776 7.875 3.446.899.211 1.615.042 2.337-.511 2.123-1.622 3.091-3.744 3.008-5.38" transform="matrix(.602106 0 0 -.602106 254.69002318 260.08973004)"/><path d="m0 .167c-6.119-2.575-12.017-5.054-17.914-7.525-5.908-2.479-11.761-5.072-17.728-7.357-6.139-2.34-9.227-6.883-10.551-12.964-.867-3.955-1.375-7.996-2.513-11.895-1.486-5.099-3.733-9.78-7.947-13.279-2.624-2.174-5.639-3.391-9.155-2.917-3.242.446-5.69 3.864-5.102 7.041.045.242.162.391.339.547 3.92 3.187 5.911 7.543 7.487 12.141 1.653 4.815 2.42 9.838 3.388 14.813.744 3.841 2.801 6.682 6.354 8.421 4.152 2.04 8.501 3.606 12.767 5.359 9.569 3.934 19.152 7.795 28.717 11.712.688.287 1.235.294 1.926 0 3.239-1.376 6.506-2.69 9.932-4.097" transform="matrix(.602106 0 0 -.602106 306.95884504 238.85947248)"/><path d="m0 .167 8.297-4.106c.38-.191.712-.484 1.206-.063.536.457.75.75.249 1.421-1.6 2.133-3.115 4.325-4.66 6.489h-.021c.45.463.64-.107.851-.266 1.998-1.501 3.975-3.029 5.953-4.55.74-.57 1.78-.48 2.371.17.339.377-.007.646-.141.916-1.2 2.333-2.427 4.653-3.634 6.986-.162.322-.473.595-.377 1.082 2.963-1.967 5.881-3.916 8.805-5.842.322-.214.592-.525 1.11-.384.795.215 1.2.356.591 1.279-1.12 1.701-2.095 3.478-3.114 5.234-.153.27-.474.495-.322 1.003 2.596-1.96 5.148-3.893 7.695-5.808.294-.221.547-.588.948-.57.546.031.992.124.573.919-.805 1.521-1.493 3.105-2.219 4.671-.09.207-.142.418-.214.625.055.056.096.104.131.153 2.437-1.86 4.871-3.72 7.574-5.787-.577 1.904-1.068 3.519-1.628 5.396 2.057-1.701 3.889-3.225 5.725-4.747.18-.141.349-.293.518-.435.529-.432 1.245-.446 1.712-.214.435.214-.076.795-.184 1.199-.141.602-.435 1.162-.515 1.888 1.521-1.003 3.049-2.005 4.698-3.087.087.705.052 1.341-.1 1.984-.069.308-.238.709.132.912.318.17.584-.114.798-.304.806-.688 1.611-1.386 2.372-2.119.473-.456.975-.74 1.628-.467.681.287.384.889.377 1.38-.011.615-.339 1.483.311 1.746.726.283 1.435-.291 1.953-.879.055-.055.114-.107.142-.169 1.03-2.721 3.277-2.219 5.407-2.05.096.429-.242.567-.439.761-1.117 1.182-2.334 2.281-3.381 3.515-1.29 1.532-2.973 2.417-4.723 3.243-.861.411-1.372.322-1.739-.646-.601-1.539-.708-1.521-1.908-.312-1.116 1.127-2.129 2.362-3.381 3.354-.608.473-.978.484-1.12-.377-.131-.83-.311-1.652-.512-2.655-.829 1.341-1.6 2.534-2.52 3.616-1.102 1.307-2.281 2.524-3.948 3.146-.276.111-.608.28-.85.048-.232-.217.028-.494.08-.736.262-1.162.691-2.299.528-3.737-2.468 3.077-4.805 6.067-8.794 7.415.287-1.808.546-3.426.861-5.369-1.784 1.701-3.475 3.098-4.906 4.723-1.172 1.345-2.648 1.566-4.297 1.818.602-1.832 1.165-3.567 1.729-5.306-.08-.052-.163-.114-.242-.177-1.798 1.442-3.689 2.783-5.362 4.346-1.196 1.109-2.389 1.006-3.81.646.885-2.167 1.753-4.259 2.755-6.686-2.288 1.746-4.304 3.288-6.319 4.837-.698.522-2.513.453-3.104-.139-.301-.304 0-.542.11-.795.937-2.202 1.888-4.394 2.835-6.592-.055-.055-.107-.111-.163-.173-2.281 1.701-4.58 3.367-6.834 5.092-.567.439-.958.501-1.587.097-2.136-1.352-2.154-1.324-.785-3.419 1.269-1.957 2.541-3.91 3.831-5.884-.405-.2-.602.125-.816.256-2.458 1.504-4.912 3.014-7.329 4.574-.584.366-.954.356-1.493-.08-1.916-1.538-1.936-1.521-.415-3.436 2.098-2.634 4.2-5.262 6.292-7.896.034-.052.034-.131.062-.225-.498-.038-.858.28-1.252.46-3.156 1.459-6.326 2.928-9.455 4.439-.726.349-1.012.214-1.362-.474-1.334-2.658-1.358-2.648.868-4.715 2.354-2.185 4.705-4.384 7.077-6.572.269-.249.601-.435.905-.653-.072-.104-.141-.211-.217-.322-1.715.519-3.433 1.02-5.151 1.549-1.808.546-3.627 1.092-5.424 1.69-.789.274-1.048.094-1.048-.75.01-1.317-.069-2.63-.169-3.944-.08-1.227-.388-1.397-1.494-.788-4.286 2.361-8.404 5.002-12.251 8.023-7.886 6.185-14.534 13.479-19.526 22.149-2.139 3.734-3.695 7.734-4.584 11.955-.577 2.776.291 4.107 3.06 4.788 3.305.795 6.696 1.037 10.07 1.262 6.579.439 13.154.663 19.75.297 7.457-.415 14.872-1.093 22.28-1.995 11.097-1.345 22.094-3.332 33.049-5.503 10.468-2.078 20.76-4.861 31.141-7.319 4.277-1.013 8.563-2.043 12.833-3.097.632-.163.822-.063.981.57.519 2.026 1.131 4.017 1.774 6.274 1.314-2.737 2.503-5.226 3.775-7.892.913 2.351 1.753 4.536 2.665 6.897 1.38-2.665 2.669-5.144 4.073-7.858 1.137 2.455 2.202 4.736 3.377 7.26 1.269-2.88 2.458-5.59 3.741-8.501 1.358 2.282 2.617 4.411 3.961 6.669 1.393-3.233 2.721-6.292 4.1-9.469 1.179 2.254 2.299 4.383 3.533 6.727 1.456-3.312 2.846-6.468 4.332-9.87.785 2.738 1.511 5.283 2.271 7.948 1.093-.975 1.898-2.04 2.731-3.08 2.659-3.346 5.245-6.738 6.828-10.744.311-.792.722-.322 1.044-.191 3.18 1.279 6.229 2.807 9.064 4.705 14.374 9.614 30.412 15.18 47.192 18.948 14.575 3.267 29.346 4.142 44.239 3.589 3.194-.128 6.382-.405 9.465-1.338 3.305-.992 3.779-2.593 1.428-5.099-2.748-2.925-5.918-5.421-9.026-7.972-15.2-12.556-30.055-25.485-44.364-39.033-2.714-2.576-5.161-5.431-8.231-7.64-3.284-2.358-6.675-4.522-10.838-4.944-2.89-.294-5.78.111-8.653.422-1.97.207-3.92.584-5.908.574-3.643-.011-5.959-3.115-4.794-6.551 1.448-4.277 2.845-8.556 3.747-12.974 2.105-10.399 2.005-20.621-2.247-30.564-.176-.397-.408-.785.11-1.275 5.449-5.127 9.735-11.142 13.656-17.441 5.724-9.175 11.093-18.533 15.013-28.634.502-1.297 1.058-2.572 1.38-3.931.135-.574.252-1.155-.218-1.594-.519-.501-1.162-.294-1.715-.052-2.641 1.145-5.282 2.299-7.895 3.499-11.495 5.258-22.996 10.544-34.477 15.83-.661.304-1.207.401-1.926.096-14.671-6.233-29.319-12.538-44.059-18.612-6.437-2.648-9.77-7.336-11.052-13.915-1.013-5.189-2.247-10.343-4.311-15.259-1.113-2.627-2.59-5.026-4.906-6.807-.467-.359-.985-1.002-1.569-.736-.605.27-.374 1.075-.374 1.649.018 6.395-2.354 11.937-6.163 16.967-2.455 3.229-5.836 3.685-9.424 2.721-4.94-1.335-9.504-3.572-13.79-6.327-2.137-1.372-3.347-3.377-3.876-5.873-2.789-13.078-5.258-26.229-7.284-39.452-1.617-10.613-1.891-21.271-1.78-31.977.028-2.199 0-4.411 0-6.959-1.027 1.832-1.403 3.533-1.808 5.227-1.483 6.309-2.164 12.732-3.004 19.152-1.103 8.328-1.57 16.704-1.462 25.108.083 5.984.117 11.972-.35 17.942-.643 8.338-1.787 16.597-5.475 24.265-2.856 5.929-6.641 11.294-10.416 16.666-6.717 9.572-13.172 19.318-18.979 29.457-2.299 4.024-4.08 8.294-5.632 12.653-.086.242-.245.467-.093.913.56-.637 1.078-1.197 1.587-1.774 12.058-13.465 24.945-26.1 38.995-37.557 2.7-2.209 5.617-4.096 8.739-5.687 5.766-2.917 11.619-3.339 17.738-1.085 6.364 2.333 12.4 5.306 18.139 8.85 7.875 4.86 15.532 10.039 22.861 15.681 2.178 1.67 2.178 2.029.055 3.775-.615.501-1.199 1.044-1.853 1.493-.726.491-.546.733.08 1.151 4.325 2.873 8.646 5.746 12.915 8.698 2.406 1.66 4.785 3.36 7.035 5.203 3.208 2.645 5.704 5.836 6.752 9.942.94 3.675-.616 7.831-3.685 10.012-.799.563-1.235.449-1.556-.446-.135-.387-.263-.805-.263-1.21.018-3.516-1.894-6.102-4.197-8.483-2.665-2.756-5.852-4.92-8.846-7.284-7.035-5.549-14.578-10.299-22.588-14.371-8.816-4.484-17.496-9.217-26.235-13.825-1.774-.94-3.565-1.842-5.525-2.371-3.471-.93-5.161.052-5.825 3.505-.909 4.778-.536 9.479 1.511 13.908 4.653 10.101 9.434 20.144 14.143 30.217 3.059 6.545 6.056 13.102 8.445 19.913.508 1.459.94 2.935 1.11 4.473.152 1.317-.26 2.344-1.252 3.205-1.694 1.469-3.706 2.344-5.735 3.184-6.354 2.62-13.022 4.286-19.58 6.312-5.431 1.663-10.821 3.485-15.982 5.887-1.621.751-3.232 1.573-4.484 2.846-1.141 1.144-2.551 2.271-1.784 4.252.163.408-.318.549-.542.767-2.424 2.227-4.858 4.446-7.295 6.665.056.056.097.111.152.163 2.624-.743 5.138-1.798 7.713-2.676.415-.142.833-.501 1.238.187.338.574.255.878-.135 1.351-2.023 2.4-4.01 4.826-6.005 7.25-.204.249-.394.511-.481.93 1.421-.571 2.842-1.145 4.266-1.729 1.504-.615 3.015-1.227 4.508-1.877.547-.242.889-.18 1.183.349.259.47.688.788.11 1.442-2.188 2.458-4.28 4.992-6.409 7.498.062.055.135.114.197.169" fill="#fff" transform="matrix(.602106 0 0 -.602106 223.8441328 161.91032568)"/><path d="m0 .167c0 2.929.028 5.864-.017 8.788-.011.733.186.94.94.94 27.39-.02 54.773-.01 82.163-.027 6.966 0 12.442-5.849 12.179-12.179-.104-2.479.1-4.968-.114-7.447-.173-2.001-.878-3.802-2.133-5.368-.436-.543-.401-.878 0-1.421 1.555-2.157 2.067-4.653 2.178-7.239.034-.823.259-1.086 1.116-1.058 2.078.055 2.078.01 2.078-2.022 0-3.651.017-7.302-.021-10.952-.007-.795.225-1.013 1.02-1.003 4.155.038 8.307.011 12.459.018 1.753.01 1.971.242 1.971 1.977 0 3.651.024 7.301-.021 10.952-.007.798.114 1.113 1.03 1.085 1.96-.072 1.96-.017 1.96 1.915 0 4.892-.028 9.787.024 14.675.011.93-.193 1.224-1.168 1.183-1.825-.083-1.825-.021-1.825 1.794 0 4.712.017 9.413-.021 14.122-.007.778.19.995 1.002.995 14.551-.027 29.101-.02 43.652 0 .754 0 1.058-.134 1.047-.974-.038-5.003-.038-10.019.011-15.018 0-.85-.304-.968-1.058-.957-2.237.027-2.237-.011-2.237-2.22 0-4.826-.01-9.634.007-14.457 0-.46-.276-1.123.664-1.103.743.018 1.324-.065 1.5.972 1.891 10.81 3.851 21.603 5.739 32.413.18 1.03.519 1.372 1.635 1.362 8.11-.066 16.227-.045 24.341-.018.781 0 1.096-.152 1.255-.995 2.105-10.879 4.252-21.755 6.423-32.614.083-.414-.104-1.14.781-1.12.519.018.74.114.74.688-.014 5.493-.014 10.99 0 16.494 0 .518-.211.66-.678.608h-.117c-.754.028-1.791-.242-2.192.142-.546.511-.18 1.555-.19 2.371-.017 4.474.021 8.957-.024 13.441-.011.795.225.985 1.009.985 24.493-.02 48.986-.02 73.479 0 .823 0 1.003-.235 1.003-1.002-.028-8.508-.028-17.022 0-25.53 0-.795-.225-1.003-1.02-.985-2.928.045-5.863-.007-8.802.034-.785.011-1.113-.107-1.096-1.016.059-3.727.045-7.457.007-11.18-.007-.761.221-.947.968-.937 3.347.035 6.703-.01 10.057.024.753.018.95-.193.95-.937-.027-9.04-.027-18.069 0-27.106 0-.805-.231-.996-1.019-.996-29.451.049-58.891.049-88.334.108-9.037.02-18.021-.643-27.006-1.539-15.543-1.531-30.771-4.76-46.003-8.055-.895-.193-2.05-.829-2.696-.024-.66.823.128 1.888.601 2.693 4.858 8.262 10.828 15.526 19.17 20.652 3.094 1.909 6.26 3.682 9.589 5.155.647.287 1.11.625 1.127 1.389.028.892-.255 1.369-1.286 1.414-4.698.232-9.251-.601-13.783-1.621-7.401-1.673-14.851-3.104-21.983-5.79-9.638-3.641-18.809-8.204-27.704-13.334-.574-.329-1.031-.412-1.687-.17-10.161 3.779-20.698 6.168-31.328 8.225-8.124 1.576-16.251 3.194-24.448 4.4-6.209.917-12.428 1.712-18.664 2.42-6.285.716-12.573 1.269-18.9 1.214-7.657-.069-15.293-.591-22.927-1.179-5.351-.411-10.696-.806-16.009-1.604-8.833-1.331-17.575-3.115-26.263-5.134-2.479-.574-4.957-1.127-7.384-1.891-1.207-.377-2.344-.885-3.346-1.645-1.584-1.207-2.22-2.845-2.04-4.761.073-.795-.204-.923-.93-.923-17.441.021-34.888.021-52.332 0-.671 0-.902.118-.902.851.034 6.402.027 12.798 0 19.207 0 .65.114 1.009.857.875.038-.007.079-.007.117 0 1.048.079 2.451-.467 3.05.231.518.602.179 1.933.179 2.946.011 7.982-.01 15.964.028 23.946 0 .806-.135 1.138-1.037 1.072-1.013-.08-2.41-.367-2.97.155-.657.599-.197 1.978-.197 3.015-.021 5.424.007 10.845-.027 16.269-.011.816.141 1.071 1.037 1.071 9.368-.034 18.747-.034 28.119 0 .871 0 1.051-.249 1.041-1.071-.039-3.762-.014-7.53-.014-11.391.428.294.501.715.67 1.044 1.712 3.474 3.43 6.945 5.082 10.443.367.771.806.975 1.635.968 7.281-.038 14.554 0 21.831-.038.948-.01 1.196.236 1.179 1.176-.062 3.65-.007 7.301-.045 10.952 0 .743.125 1.026.975 1.026 10.665-.024 21.333-.024 31.995 0 .767 0 .947-.214.937-.947-.038-3.72.017-7.453-.045-11.176-.011-.885.269-1.031 1.092-1.031 7.232.038 14.468.011 21.707.038.86.007 1.175-.162 1.165-1.092-.052-4.975-.042-9.939-.011-14.907 0-.726-.159-.968-.937-.961-2.281.021-2.281-.017-2.281-2.278 0-2.292.027-4.594-.011-6.893-.01-.609.132-.847.813-.84 4.528.028 9.064.021 13.596 0 .553 0 .813.09.802.726-.031 2.862-.031 5.725 0 8.58.011.626-.211.733-.784.743-2.23.035-2.23.063-2.23 2.31 0 4.553.017 9.105-.018 13.665 0 .723.17.954.941.947 6.433-.027 12.874-.027 19.311 0 .643.007.947-.242 1.216-.75 1.611-3.018 3.24-6.022 4.858-9.033.065.021.134.038.207.055m122.147-55.606h137.281c2.738 0 5.476.018 8.224-.017.671-.01.923.142.913.868-.028 6.399-.028 12.794 0 19.193 0 .671-.225.816-.851.816-4.566-.028-9.137-.028-13.71 0-.661 0-.83-.207-.82-.833.032-1.995-.02-3.993.025-5.984.013-.737-.19-.979-.958-.968-2.665.041-5.334.052-7.999 0-.83-.017-1.003.287-.993 1.033.031 3.502.031 7.008-.01 10.51-.007.795.221 1.002 1.02.992 3.768-.035 7.543.01 11.311-.035.833-.01 1.099.163 1.089 1.037-.062 3.171-.062 6.327 0 9.487.021.895-.276 1.047-1.096 1.037-3.806-.045-7.619-.007-11.432-.025-.57-.01-.892.052-.882.768.031 3.312.014 6.624.007 9.935-.007.519.156.74.706.74 2.82-.017 5.638-.017 8.459 0 .615.011.785-.221.767-.795-.024-1.583.035-3.17-.024-4.743-.028-.805.142-1.11 1.054-1.099 4.107.052 8.221.045 12.339 0 .826-.011 1.092.179 1.092 1.054-.045 5.753-.035 11.519-.007 17.278.007.771-.18 1.013-1.003 1.013-14.623-.017-29.253-.028-43.876.01-.909 0-1.058-.304-1.047-1.102.045-2.901 0-5.801.027-8.698.007-.93-.408-2.119.18-2.721.602-.605 1.815-.225 2.748-.18 1.01.056 1.342-.204 1.342-1.286-.045-10.92-.028-21.838-.028-32.751 0-1.615.187-1.435-1.469-1.445-27.425 0-54.849 0-82.27.01-.653 0-1.262-.035-1.877-.339-4.36-2.164-8.567-4.58-12.466-7.491-2.026-1.521-3.948-3.146-5.766-5.269m-249.503 35.608c-.08.017-.163.034-.239.055v.678c0 7.937-.01 15.884.014 23.829 0 .798-.142 1.102-1.044 1.102-6.703-.044-13.406-.038-20.116-.01-.844.01-1.11-.197-1.093-1.054.052-2.787 0-5.576.025-8.359.01-.965-.419-2.22.179-2.828.609-.609 1.888-.225 2.866-.173.954.055 1.189-.249 1.179-1.179-.024-10.692-.017-21.388-.017-32.081 0-2.7 0-2.7-2.686-2.7-.153 0-.305-.021-.453 0-.844.132-1.11-.19-1.093-1.047.045-3.578.045-7.149 0-10.734-.017-.868.204-1.134 1.127-1.134 6.62.045 13.254.045 19.875 0 1.013-.011 1.268.242 1.261 1.244-.041 7.046-.01 14.077-.041 21.119 0 .844.197 1.093 1.061 1.065 2.365-.062 4.726-.08 7.087.007 1.075.038 1.297-.301 1.29-1.314-.045-7.035-.018-14.077-.018-21.119 0-.529-.107-1.002.761-1.002 4.539.045 9.064.027 13.603.017.501 0 .778.09.75.674-.072 1.753.923 2.869 2.344 3.71 1.514.895 3.16 1.486 4.823 2.018 7.304 2.289 14.81 3.693 22.301 5.196 2.067.412 4.134.799 6.202 1.19-.011.055-.018.11-.028.162h-1.369c-10.06 0-20.106.028-30.166-.028-1.047 0-1.224.308-1.22 1.252.048 6.551-.004 13.105.048 19.653.018 1.075-.321 1.289-1.334 1.272-3.077-.066-6.164-.028-9.251-.021-.315 0-.653-.096-1.003.152 2.462 4.232 4.892 8.439 7.319 12.646.252.439.591.501 1.037.501 1.521-.02 3.053.028 4.574-.027.76-.024 1.047.135 1.037.968-.042 3.65-.042 7.301 0 10.952.01.798-.221 1.012-1.02 1.002-4.992-.034-9.974-.045-14.969.01-.868.007-1.262-.293-1.614-1.03-3.274-6.782-6.572-13.548-9.867-20.313-.708-1.442-1.414-2.883-2.122-4.321m119.616 3.74c.072.017.135.035.204.045.218-.394.439-.781.653-1.182 3.447-6.486 6.911-12.967 10.319-19.474.429-.805.916-1.082 1.826-1.061 3.087.059 6.174.087 9.254-.01 1.162-.038 1.331.342 1.331 1.379-.042 10.502-.024 21.001-.024 31.507 0 1.815 0 1.843 1.842 1.843.654 0 .948.107.93.85-.045 2.372-.052 4.743 0 7.111.028.816-.332.906-1.002.906-4.152-.028-8.304-.045-12.456.01-.933.007-1.127-.276-1.127-1.144.035-6.402.014-12.801.011-19.197 0-.304.169-.66-.208-.985-.214.384-.422.733-.619 1.093-3.526 6.44-7.059 12.884-10.568 19.338-.349.643-.733.895-1.493.895-4.19-.044-8.377-.065-12.577 0-.989.018-1.196-.304-1.158-1.209.062-1.926.017-3.841.017-5.76 0-1.891.007-1.963 1.916-1.874 1.047.052 1.244-.286 1.234-1.251-.035-7.267-.018-14.533-.018-21.8 0-2.371 0-2.389-2.347-2.468-.57-.028-.802-.163-.795-.771.028-2.558.028-5.116 0-7.678-.007-.591.169-.778.771-.778 4.453.024 8.909.024 13.368 0 .664 0 .733.277.723.806-.028 1.465-.007 2.935-.007 4.4zm93.27.073c.017.031.028.079.045.086.235.125.467.252.698.377 3.312 1.746 5.11 4.394 5.027 8.179-.031 1.774.01 3.544-.004 5.307-.048 4.117-3.599 7.819-7.733 7.847-8.715.073-17.441.017-26.156.045-.657 0-.854-.225-.847-.85.028-2.068.01-4.135.01-6.213 0-1.787.011-1.859 1.784-1.77 1.093.063 1.297-.314 1.297-1.317-.045-7.373-.025-14.747-.025-22.125 0-2.06 0-2.094-2.05-2.077-.808.01-1.03-.242-1.023-1.02.045-2.406.056-4.826 0-7.232-.014-.812.27-.982 1.041-.975 4.338.035 8.68.045 13.019-.007.975-.01 1.279.187 1.262 1.217-.066 5.109 0 10.226-.045 15.346-.011.919.28 1.134 1.147 1.099 1.674-.062 3.354-.08 5.027 0 .906.045 1.065-.277 1.047-1.082-.065-1.877-.027-3.768-.017-5.645 0-2.444-.048-4.899.028-7.34.062-2.337 1.414-3.571 3.72-3.571 3.463 0 6.938.028 10.398-.017.826-.017 1.12.152 1.093 1.03-.069 2.029-.028 4.062-.028 6.091 0 2.033 0 2.061-2.067 2.071-.688.007-.92.177-.92.885.021 1.877-.055 3.758-.28 5.639-.328 2.886-1.607 4.974-4.656 5.662-.274.052-.63.021-.792.36m32.198-21.202c.357-.125.592.028.841.1 4.348 1.297 8.77 2.275 13.323 2.306 1.085.007 1.227.387 1.217 1.31-.045 4.024.01 8.052-.045 12.079-.011.857.231 1.103 1.092 1.065 1.476-.073 2.973-.083 4.449 0 .999.055 1.349-.18 1.331-1.262-.069-4.297-.027-8.584-.017-12.874 0-.387-.169-.826.297-1.124.598-.373.975-.954 1.269-1.566.207-.435.491-.57.978-.57 4.069.024 8.142.024 12.221 0 .664 0 .823.214.812.84-.031 2.071-.007 4.135-.007 6.209 0 2.143 0 2.188-2.219 2.143-.861-.027-1.065.215-1.065 1.055.035 7.373.017 14.754.017 22.128 0 2.292 0 2.337 2.365 2.326.795 0 .92.294.909.986-.031 2.292-.041 4.591.011 6.89.017.788-.222 1.012-1.02 1.002-4.491-.034-8.992-.045-13.486.01-.937.007-1.117-.286-1.106-1.144.031-5.002 0-10.015.031-15.021.01-.739-.197-.971-.954-.947-1.476.056-2.973.08-4.449-.007-1.11-.072-1.483.187-1.47 1.387.083 4.895.028 9.79.038 14.685 0 .591.063 1.054-.85 1.047-4.57-.055-9.144-.038-13.711-.01-.67 0-.829-.225-.822-.85.038-2.03.02-4.062.02-6.092 0-1.897 0-1.953 1.871-1.891.885.025 1.151-.204 1.141-1.116-.032-7.377-.014-14.751-.014-22.132 0-2.212 0-2.212-2.185-2.278-.418-.021-.833.059-.823-.605.017-2.7.01-5.403.01-8.079m-209.65 21.271c0-4.816-.007-9.631 0-14.44.01-4.439 2.956-7.35 7.44-7.35 5.289-.007 10.585-.007 15.874 0 4.626 0 7.581 2.901 7.588 7.447v28.562c-.007 4.58-2.907 7.508-7.526 7.536-5.289.017-10.578.017-15.874 0-4.584-.028-7.492-2.911-7.502-7.419-.007-4.778 0-9.559 0-14.336m282.476-21.79c2.136 0 4.266.007 6.392-.017.567 0 .816.107.805.733-.031 2.558-.024 5.116-.003 7.674.003.55-.104.82-.743.82-.782 0-1.795-.37-2.285.204-.457.525-.402 1.486-.574 2.247-.031.148-.052.297-.087.446-2.033 10.174-4.072 20.341-6.084 30.525-.135.667-.332.93-1.065.93-6.129-.028-12.262-.028-18.391 0-.688 0-.889-.242-1.003-.885-1.787-10.336-3.605-20.662-5.42-30.992-.432-2.475-.432-2.503-2.89-2.475-.82.01-1.138-.138-1.124-1.041.076-2.406.066-4.812.01-7.218-.024-.833.27-.975 1.041-.968 4.259.035 8.525.035 12.784 0 .764-.007 1.041.194 1.137.975.37 2.945.861 5.873 1.252 8.812.093.698.318.951 1.051.933 1.943-.055 3.885-.055 5.825-.01.715.021.957-.187 1.037-.923.332-2.873.778-5.732 1.11-8.605.107-.923.418-1.244 1.407-1.189 1.929.087 3.875.024 5.818.024m-153.184 0c5.251 0 10.503 0 15.757-.007.581 0 .996-.027.986.796-.035 4.438-.028 8.877-.011 13.312.011.595-.186.782-.788.782-3.118-.024-6.243-.035-9.362 0-.688.007-.84-.232-.819-.851.035-1.317-.021-2.63.028-3.944.027-.681-.18-.923-.899-.906-1.708.045-3.426.052-5.134-.007-.833-.027-1.116.159-1.092 1.044.062 2.327.055 4.664 0 7.001-.017.819.169 1.096 1.054 1.071 2.552-.062 5.103 0 7.654-.034.653-.011.85.186.833.823-.038 2.143-.055 4.293.007 6.433.024.833-.27.996-1.037.975-2.551-.045-5.103.01-7.654-.028-.643-.007-.857.19-.85.833.038 2.22.027 4.439 0 6.659-.007.608.224.771.809.76 1.825-.028 3.647-.034 5.476.011.75.013.892-.291.867-.934-.045-.975.025-1.96-.027-2.935-.056-.767.162-1.037.985-1.027 2.748.052 5.483.052 8.224.007.795-.017 1.037.208 1.027 1.003-.035 3.91-.035 7.83.01 11.74 0 .816-.287.985-1.047.985-10.209-.017-20.414-.028-30.612.01-.958 0-1.134-.314-1.12-1.154.052-1.96.017-3.92.017-5.87 0-1.836.011-1.908 1.87-1.819 1.055.052 1.235-.314 1.228-1.268-.038-7.374-.021-14.748-.021-22.132 0-2.095 0-2.126-2.126-2.109-.761 0-.978-.225-.958-.971.035-2.406.052-4.812-.01-7.222-.024-.857.235-1.051 1.082-1.051 5.22.042 10.433.024 15.653.024m-79.196 0c5.216 0 10.433.018 15.653-.017.802-.007 1.009.214 1.009 1.003-.034 4.895-.034 9.79-.01 14.685.01.716-.159.982-.937.971-3.35-.034-6.703-.041-10.049.011-.823.01-.93-.322-.923-1.003.034-1.877-.007-3.758.027-5.645.018-.653-.204-.84-.85-.823-1.252.038-2.517.069-3.765-.007-.871-.055-1.075.225-1.068 1.065.038 7.336.021 14.682.021 22.021 0 2.368 0 2.389 2.378 2.434.636.01.851.162.84.812-.034 2.41-.024 4.816 0 7.222.011.646-.186.833-.84.833-5.787-.028-11.581-.028-17.371 0-.65 0-.83-.204-.82-.833.035-2.074.007-4.145.007-6.209 0-1.808.011-1.88 1.86-1.791 1.086.063 1.238-.338 1.227-1.279-.034-7.301-.017-14.606-.017-21.907 0-2.274 0-2.302-2.247-2.333-.643-.007-.84-.197-.83-.833.028-2.444.056-4.895-.01-7.34-.017-.84.187-1.071 1.054-1.061 5.217.042 10.437.024 15.661.024m251.096 0c2.783 0 5.559.028 8.342-.017.76-.017.957.214.937.94-.045 2.147-.018 4.294-.018 6.43 0 1.829 0 1.888-1.849 1.812-1.013-.045-1.144.339-1.144 1.217.031 7.346.013 14.685.013 22.021 0 2.219 0 2.247 2.185 2.281.681.021.823.239.813.851-.035 2.416-.025 4.826-.007 7.232.007.563-.125.795-.754.795-5.638-.028-11.273-.028-16.912 0-.643 0-.86-.197-.84-.84.035-1.998.011-3.993.011-5.987 0-2.023 0-2.078 2.012-2.006.978.035 1.168-.286 1.161-1.196-.034-7.342-.014-14.678-.014-22.024 0-2.258 0-2.282-2.257-2.299-.688-.007-.933-.18-.923-.885.045-2.493.045-4.978 0-7.457-.01-.698.197-.892.906-.885 2.776.035 5.555.017 8.338.017m-193.226-4.601c.584-.169.888-.287 1.206-.349 4.014-.698 8.028-1.341 12.031-2.074 14.274-2.638 28.475-5.639 42.369-9.87.671-.197 1.21-.135 1.818.187 8.169 4.428 16.501 8.528 25.271 11.688.225.079.508.09.546.418zm-95.88 56.539c0 1.352-.021 2.7.003 4.052.011.519-.141.736-.701.726-2.707-.017-5.4-.017-8.1 0-.502 0-.664-.18-.654-.653.007-2.711.018-5.411-.01-8.128-.007-.632.277-.729.826-.719 2.621.017 5.251.017 7.872-.01.608 0 .788.204.767.778-.031 1.313-.003 2.63-.003 3.954m6.969.083c0-1.317.017-2.634-.01-3.948-.017-.584.079-.878.785-.867 2.623.034 5.247.034 7.868 0 .601 0 .778.186.778.778-.025 2.658-.025 5.323 0 7.989.01.619-.215.753-.796.743-2.613-.017-5.234-.017-7.857 0-.588.01-.806-.152-.785-.761.045-1.306.017-2.62.017-3.934" fill="#fffdfd" transform="matrix(.602106 0 0 -.602106 244.32175786 103.46389626)"/><path d="m0 .167c3.419.028 6.157-2.54 6.157-5.79.007-3.187-2.676-5.787-6.015-5.825-3.409-.035-6.185 2.523-6.213 5.745-.024 3.267 2.635 5.843 6.071 5.87m-1.11-9.385c1.539 0 2.794 1.313 2.821 2.959.035 1.638-1.296 3.104-2.828 3.097-1.486 0-2.783-1.389-2.821-2.997-.034-1.673 1.255-3.07 2.828-3.059" fill="#fdfcfc" transform="matrix(.602106 0 0 -.602106 225.11457646 132.90687966)"/><path d="m0 .167c-.073.097-.152.204-.225.305.19.107.322.034.422-.135-.062-.055-.135-.114-.197-.17" fill="#fff" transform="matrix(.602106 0 0 -.602106 223.7237116 162.0126837)"/><path d="m0 .167c-.086.087-.18.187-.266.277.18.111.321.055.418-.114-.055-.066-.097-.107-.152-.163" fill="#fff" transform="matrix(.602106 0 0 -.602106 220.02678076 169.77383004)"/><path d="m0 .167c.114-.055.169-.141.086-.252-.013-.017-.159.055-.248.09z" fill="#fff" transform="matrix(.602106 0 0 -.602106 225.37348204 154.96202244)"/><path d="m0 .167c-.124.028-.18.108-.114.215.017.017.159-.045.249-.073-.049-.045-.09-.097-.135-.142" fill="#fff" transform="matrix(.602106 0 0 -.602106 238.2645715 156.36492942)"/><path d="m0 .167c.028.087.055.17.086.256.028-.02.066-.038.094-.059-.066-.062-.135-.134-.197-.197z" fill="#fff" transform="matrix(.602106 0 0 -.602106 226.90885234 159.6644703)"/><path d="m0 .167c.055-.114.124-.252-.035-.338-.027-.011-.134.107-.207.159.08.065.159.117.242.179" fill="#fff" transform="matrix(.602106 0 0 -.602106 233.27913382 152.21039802)"/><g fill="#e30613"><path d="m0 .167c1.815 2.133 3.74 3.758 5.763 5.269 3.892 2.918 8.1 5.327 12.462 7.491.612.304 1.228.339 1.881.339h82.266c1.663 0 1.466-.169 1.466 1.442.011 10.917-.01 21.834.035 32.755 0 1.068-.329 1.331-1.342 1.275-.929-.045-2.157-.418-2.744.18-.595.602-.173 1.791-.18 2.731-.028 2.887.017 5.787-.028 8.688-.01.805.135 1.102 1.048 1.102 14.623-.027 29.253-.027 43.876 0 .812 0 1.003-.245 1.003-1.023-.039-5.749-.039-11.515.006-17.278 0-.868-.269-1.054-1.102-1.047-4.107.038-8.225.045-12.338-.007-.903-.011-1.072.3-1.048 1.099.062 1.583 0 3.167.024 4.743.011.574-.159.805-.764.805-2.821-.027-5.638-.02-8.459-.01-.557.01-.719-.211-.719-.729.021-3.322.038-6.634-.007-9.946 0-.716.322-.768.895-.768 3.813.018 7.627-.02 11.426.025.826.01 1.113-.142 1.096-1.031-.056-3.156-.056-6.326 0-9.486.017-.871-.253-1.044-1.086-1.033-3.775.041-7.543-.011-11.311.034-.795.007-1.027-.204-1.02-1.002.045-3.499.038-6.997.007-10.496-.007-.76.162-1.058.996-1.037 2.668.042 5.334.042 8.003 0 .767-.021.974.228.954.954-.045 1.995.01 3.993-.025 5.988-.02.633.16.84.823.833 4.564-.028 9.134-.028 13.707 0 .629 0 .851-.145.851-.805-.024-6.399-.024-12.795 0-19.204 0-.726-.239-.868-.909-.861-2.749.028-5.487.01-8.235.01z" transform="matrix(.602106 0 0 -.602106 317.86900576 136.95303198)"/><path d="m0 .167c.705 1.442 1.414 2.88 2.112 4.325 3.302 6.762 6.603 13.527 9.87 20.31.36.736.754 1.041 1.621 1.03 4.982-.055 9.974-.045 14.969-.01.795.01 1.02-.204 1.01-1.003-.035-3.65-.045-7.297.01-10.951.01-.834-.277-.993-1.047-.965-1.522.052-3.043.004-4.564.024-.449 0-.788-.062-1.037-.501-2.427-4.207-4.871-8.407-7.318-12.646.338-.249.688-.152 1.002-.152 3.087-.007 6.164-.045 9.251.021 1.013.017 1.341-.197 1.331-1.272-.052-6.548-.007-13.099-.045-19.653-.007-.944.163-1.248 1.221-1.248 10.046.051 20.105.024 30.165.024h1.369c.011-.052.018-.107.028-.163-2.067-.39-4.145-.777-6.202-1.189-7.491-1.504-15.007-2.907-22.301-5.196-1.666-.529-3.308-1.12-4.826-2.019-1.421-.84-2.42-1.956-2.34-3.709.017-.581-.249-.674-.761-.674-4.529.01-9.064.028-13.593-.017-.878 0-.771.473-.771 1.002 0 7.042-.017 14.087.024 21.122.011 1.01-.211 1.349-1.296 1.311-2.351-.087-4.712-.069-7.077-.007-.867.027-1.071-.222-1.061-1.065.031-7.042 0-14.074.038-21.115.011-1.006-.245-1.259-1.258-1.248-6.624.045-13.254.045-19.881 0-.917 0-1.141.269-1.131 1.137.055 3.581.055 7.152 0 10.73-.01.861.259 1.179 1.103 1.048.149-.017.301 0 .453 0 2.686 0 2.686 0 2.686 2.7 0 10.692-.017 21.388.017 32.084 0 .93-.231 1.231-1.189 1.183-.968-.056-2.247-.443-2.856.169-.598.605-.179 1.86-.186 2.824-.021 2.783.027 5.573-.028 8.36-.017.857.259 1.064 1.103 1.054 6.7-.028 13.403-.035 20.113.01.906 0 1.047-.304 1.047-1.103-.027-7.944-.017-15.891-.017-23.829v-.677c.08-.021.159-.038.242-.056" transform="matrix(.602106 0 0 -.602106 167.64355876 115.50601626)"/><path d="m0 .167v-16.458c0-1.466-.017-2.932.01-4.401.007-.536-.065-.813-.726-.806-4.456.028-8.912.028-13.371 0-.598 0-.775.187-.768.771.028 2.558.028 5.127 0 7.685-.007.612.221.743.795.764 2.344.087 2.344.104 2.344 2.475 0 7.271-.014 14.523.021 21.79.007.968-.19 1.317-1.234 1.262-1.915-.087-1.915-.014-1.915 1.873 0 1.912.041 3.838-.018 5.753-.038.906.17 1.227 1.162 1.217 4.197-.062 8.383-.056 12.573-.007.761.007 1.144-.256 1.493-.889 3.509-6.461 7.046-12.898 10.569-19.338.197-.36.404-.705.615-1.093.377.325.207.682.207.979.011 6.406.028 12.805-.007 19.204 0 .853.197 1.154 1.127 1.137 4.152-.049 8.304-.028 12.456-.011.671.011 1.02-.082 1.002-.895-.055-2.371-.044-4.743 0-7.111.018-.747-.276-.85-.929-.85-1.846-.011-1.846-.038-1.846-1.85 0-10.502-.018-21.008.027-31.504 0-1.037-.169-1.414-1.331-1.379-3.08.09-6.167.069-9.254.01-.913-.017-1.397.249-1.825 1.062-3.409 6.506-6.873 12.988-10.316 19.477-.218.39-.439.784-.654 1.178-.072-.017-.134-.027-.207-.045" transform="matrix(.602106 0 0 -.602106 239.66145742 113.25413982)"/><path d="m0 .167c.152-.338.519-.304.785-.366 3.056-.691 4.335-2.766 4.667-5.656.214-1.88.29-3.757.276-5.638-.007-.709.232-.878.913-.885 2.078-.01 2.078-.035 2.078-2.067 0-2.033-.049-4.062.024-6.095.027-.885-.28-1.048-1.093-1.037-3.47.045-6.934.027-10.395.027-2.32 0-3.664 1.235-3.733 3.568-.063 2.444-.018 4.895-.028 7.339 0 1.881-.035 3.769.021 5.646.024.805-.146 1.13-1.051 1.085-1.663-.083-3.343-.066-5.02 0-.868.035-1.161-.18-1.151-1.103.055-5.116-.01-10.236.055-15.356.007-1.026-.297-1.217-1.265-1.206-4.339.052-8.681.045-13.023.01-.764-.01-1.054.159-1.037.972.056 2.409.049 4.826 0 7.232-.007.771.208 1.03 1.02 1.02 2.05-.018 2.05.017 2.05 2.077 0 7.384-.017 14.758.017 22.132.011.992-.197 1.376-1.286 1.314-1.78-.097-1.78-.018-1.78 1.773 0 2.067.017 4.138-.01 6.205-.011.63.179.851.84.844 8.715-.021 17.44.034 26.156-.035 4.134-.027 7.681-3.744 7.733-7.851.017-1.759-.035-3.533.007-5.306.083-3.782-1.718-6.434-5.027-8.179-.235-.125-.466-.249-.698-.377-.024-.007-.024-.052-.045-.087m-13.683 8.321c0-1.054.038-2.101-.017-3.149-.028-.698.135-.999.933-.978 1.777.065 3.568.065 5.348 0 .799-.021.941.28.934.978-.038 2.14-.038 4.28 0 6.406.007.66-.146.951-.872.933-1.821-.045-3.65-.045-5.465 0-.736.018-.895-.273-.878-.933.048-1.079.017-2.175.017-3.257" transform="matrix(.602106 0 0 -.602106 295.8259051 113.2119924)"/><path d="m0 .167c0 2.676.007 5.38-.01 8.079-.011.664.414.585.829.602 2.178.073 2.178.073 2.178 2.282 0 7.384-.017 14.758.024 22.138 0 .903-.266 1.138-1.151 1.11-1.87-.055-1.87-.01-1.87 1.888 0 2.029.017 4.072-.01 6.101-.018.622.145.844.815.844 4.574-.025 9.137-.045 13.708.007.912.01.86-.453.85-1.044 0-4.896.045-9.791-.035-14.686-.02-1.199.356-1.459 1.47-1.39 1.476.094 2.966.066 4.456.011.75-.024.954.204.947.951-.028 5.002.007 10.011-.038 15.013 0 .861.18 1.155 1.12 1.145 4.494-.052 8.985-.042 13.475-.007.809.007 1.041-.215 1.02-1.006-.052-2.296-.034-4.588 0-6.887.011-.681-.114-.985-.916-.985-2.358.007-2.358-.038-2.358-2.327 0-7.373.018-14.757-.017-22.131-.007-.84.197-1.072 1.055-1.055 2.219.056 2.219.011 2.219-2.136 0-2.071-.017-4.145.017-6.212.011-.626-.152-.84-.823-.84-4.068.027-8.148.027-12.224.007-.48-.007-.757.124-.974.563-.294.608-.671 1.193-1.259 1.569-.477.294-.307.73-.307 1.117-.011 4.294-.042 8.58.027 12.877.017 1.086-.328 1.314-1.334 1.259-1.483-.076-2.97-.069-4.456 0-.851.038-1.093-.201-1.082-1.051.045-4.038-.011-8.065.038-12.093.007-.919-.128-1.286-1.21-1.306-4.564-.035-8.985-1-13.334-2.299-.249-.08-.48-.232-.84-.108" transform="matrix(.602106 0 0 -.602106 315.20769724 125.9766396)"/><path d="m0 .167c0 4.778-.007 9.556 0 14.337.01 4.501 2.918 7.391 7.509 7.408 5.289.028 10.575.028 15.874 0 4.608-.017 7.516-2.945 7.516-7.533.007-9.513.007-19.034 0-28.555 0-4.556-2.953-7.446-7.588-7.446-5.286-.01-10.575-.01-15.875 0-4.48 0-7.419 2.897-7.436 7.336-.007 4.826 0 9.638 0 14.453m12.172-.124c0-3.91.017-7.823-.021-11.733-.007-.723.173-.975.934-.947 1.714.058 3.426.045 5.144.007.598-.007.767.19.76.77-.01 7.938-.017 15.875 0 23.812.007.602-.179.782-.767.771-1.711-.034-3.426-.055-5.137.011-.771.024-.941-.235-.934-.951.038-3.91.021-7.83.021-11.74" transform="matrix(.602106 0 0 -.602106 188.97617434 113.16984498)"/><path d="m0 .167c-1.943 0-3.882.063-5.825-.027-.985-.045-1.296.269-1.397 1.189-.332 2.873-.778 5.739-1.109 8.618-.08.737-.322.941-1.044.92-1.947-.042-3.886-.049-5.829 0-.733.021-.951-.221-1.047-.92-.384-2.942-.878-5.88-1.252-8.822-.097-.778-.37-.985-1.127-.975-4.269.035-8.528.035-12.798 0-.76-.01-1.054.132-1.037.965.062 2.406.062 4.822 0 7.232-.027.895.304 1.047 1.11 1.037 2.461-.038 2.461 0 2.897 2.472 1.818 10.333 3.633 20.662 5.427 30.999.104.632.301.871.993.871 6.129-.024 12.255-.024 18.387 0 .744.01.941-.256 1.076-.927 2.001-10.177 4.051-20.348 6.084-30.525.024-.142.052-.294.079-.436.17-.771.125-1.728.574-2.257.502-.574 1.514-.197 2.289-.197.646 0 .743-.277.743-.813-.028-2.558-.038-5.119 0-7.678.01-.639-.232-.743-.795-.732-2.133.024-4.269.006-6.399.006m-9.341 18.274c-.93 5.718-1.846 11.308-2.765 16.895-.056.304 0 .833-.388.822-.48-.007-.383-.553-.435-.895-.377-2.489-.737-4.975-1.093-7.471-.414-2.855-.822-5.718-1.216-8.58-.045-.314-.305-.781.404-.781 1.811.017 3.63.01 5.493.01" transform="matrix(.602106 0 0 -.602106 359.05907722 126.28973472)"/><path d="m0 .167c-5.22 0-10.433.018-15.65-.017-.85-.01-1.099.187-1.082 1.048.059 2.406.042 4.822.01 7.228-.01.733.204.958.965.958 2.119-.011 2.119.027 2.119 2.122 0 7.374-.017 14.748.024 22.118 0 .958-.173 1.328-1.23 1.283-1.86-.09-1.86-.028-1.86 1.804 0 1.961.031 3.924-.018 5.87-.027.844.149 1.165 1.107 1.155 10.201-.034 20.413-.024 30.612-.01.77.01 1.057-.159 1.047-.982-.045-3.91-.038-7.82 0-11.74.01-.799-.239-1.009-1.03-1.003-2.749.045-5.483.052-8.224 0-.83-.017-1.038.26-.993 1.02.066.975-.017 1.96.028 2.939.028.643-.114.954-.857.926-1.826-.045-3.661-.027-5.487 0-.584.011-.805-.159-.805-.76.038-2.22.038-4.446 0-6.662-.007-.65.207-.837.85-.83 2.552.031 5.099-.017 7.651.031.771.007 1.065-.155 1.037-.985-.055-2.14-.035-4.287 0-6.437.01-.632-.187-.823-.83-.823-2.551.038-5.109-.027-7.65.045-.896.021-1.086-.255-1.065-1.082.059-2.333.069-4.67 0-6.997-.028-.878.266-1.071 1.089-1.04 1.708.065 3.426.048 5.137 0 .716-.017.923.224.895.906-.048 1.313.018 2.634-.027 3.954-.011.609.142.861.823.851 3.121-.035 6.246-.028 9.368-.007.591.007.788-.19.788-.768-.017-4.452-.034-8.891.007-13.33.011-.819-.401-.795-.982-.795-5.261.01-10.516.01-15.767.01" transform="matrix(.602106 0 0 -.602106 266.82245908 126.28973472)"/><path d="m0 .167c-5.22 0-10.433.028-15.653-.017-.865-.01-1.079.225-1.062 1.058.059 2.441.042 4.892.007 7.336-.007.643.19.823.844.829 2.236.049 2.236.066 2.236 2.337 0 7.305-.01 14.603.025 21.914 0 .93-.142 1.335-1.224 1.283-1.863-.1-1.863-.028-1.863 1.78 0 2.064.017 4.142-.018 6.209-.007.636.183.83.833.83 5.791-.014 11.578-.014 17.368 0 .643 0 .851-.177.84-.82-.031-2.409-.031-4.826 0-7.232.011-.653-.21-.805-.84-.815-2.378-.035-2.378-.059-2.378-2.424 0-7.346.007-14.685-.028-22.031 0-.834.197-1.117 1.075-1.065 1.245.083 2.503.055 3.765.007.636-.017.861.18.851.833-.045 1.881.01 3.768-.028 5.645-.017.681.093 1.006.913.999 3.356-.048 6.706-.048 10.059 0 .778.007.941-.273.941-.988-.028-4.892-.035-9.787 0-14.686.01-.785-.197-1.009-1.013-.999-5.217.035-10.433.017-15.65.017" transform="matrix(.602106 0 0 -.602106 219.13566388 126.28973472)"/><path d="m0 .167c-2.783 0-5.566.018-8.338-.017-.709-.01-.913.187-.906.885.045 2.486.045 4.978 0 7.453-.007.709.235.885.923.885 2.25.028 2.25.056 2.25 2.313 0 7.336-.013 14.675.032 22.021 0 .913-.191 1.228-1.172 1.19-2.016-.073-2.016-.007-2.016 2.012 0 1.987.028 3.992-.007 5.977-.01.646.197.84.84.84 5.639-.014 11.274-.014 16.912 0 .629 0 .764-.228.764-.792-.028-2.409-.038-4.816 0-7.225.007-.605-.135-.84-.819-.847-2.182-.038-2.182-.073-2.182-2.282 0-7.349.018-14.685-.017-22.024 0-.885.135-1.259 1.148-1.217 1.849.083 1.849.007 1.849-1.805 0-2.15-.024-4.297.021-6.444.017-.726-.18-.95-.944-.94-2.772.045-5.555.017-8.338.017" transform="matrix(.602106 0 0 -.602106 370.32448048 126.28973472)"/><path d="m0 .167h83.241c-.038-.338-.325-.338-.546-.421-8.781-3.157-17.102-7.257-25.274-11.685-.609-.332-1.144-.394-1.815-.19-13.908 4.224-28.099 7.232-42.379 9.87-4 .736-8.014 1.379-12.017 2.077-.325.056-.636.18-1.21.349" transform="matrix(.602106 0 0 -.602106 253.98555916 129.05942232)"/><path d="m0 .167c0-1.313-.028-2.63.01-3.947.018-.581-.162-.785-.771-.778-2.62.024-5.254.017-7.878 0-.539 0-.83.1-.819.733.027 2.703.017 5.417.007 8.117-.007.484.152.663.653.663 2.707-.017 5.396-.027 8.1 0 .563 0 .715-.207.708-.726-.027-1.351-.01-2.71-.01-4.062" transform="matrix(.602106 0 0 -.602106 196.25563588 95.02237014)"/><path d="m0 .167c0 1.314.028 2.631-.01 3.938-.018.608.19.771.781.761 2.62-.018 5.244-.018 7.865 0 .57.01.795-.128.788-.744-.028-2.669-.028-5.334 0-7.989 0-.584-.18-.781-.781-.771-2.621.028-5.241.028-7.865-.01-.698-.007-.806.287-.788.868.038 1.317.01 2.634.01 3.947" transform="matrix(.602106 0 0 -.602106 200.4523147 94.9681806)"/></g><path d="m0 .167c-1.583 0-2.862 1.387-2.828 3.06.024 1.611 1.335 3.001 2.818 3.007 1.521 0 2.862-1.458 2.827-3.104-.031-1.649-1.279-2.963-2.817-2.963" fill="#292526" transform="matrix(.602106 0 0 -.602106 224.4462388 138.560655)"/><path d="m0 .167c0 1.093.035 2.175-.01 3.267-.025.654.134.937.871.92 1.822-.042 3.64-.042 5.465 0 .737.017.878-.266.868-.92-.038-2.14-.038-4.276 0-6.419.017-.699-.131-.993-.933-.965-1.777.055-3.561.066-5.338-.007-.809-.031-.968.273-.933.972.045 1.047.01 2.105.01 3.152" fill="#fffcfc" transform="matrix(.602106 0 0 -.602106 287.58307396 108.20247048)"/><path d="m0 .167c0 3.91.017 7.82-.017 11.74 0 .716.159.968.93.941 1.711-.052 3.429-.035 5.137 0 .598.01.778-.17.778-.771-.018-7.937-.018-15.875 0-23.812 0-.581-.159-.788-.768-.768-1.708.035-3.429.045-5.137-.01-.761-.028-.951.214-.94.94.034 3.921.017 7.831.017 11.74" fill="#fffdfd" transform="matrix(.602106 0 0 -.602106 196.30380436 113.2420977)"/><path d="m0 .167c-1.86 0-3.682.007-5.497-.01-.705 0-.446.463-.404.781.394 2.863.809 5.725 1.22 8.577.356 2.5.716 4.985 1.093 7.478.055.338-.045.881.428.892.394.01.339-.515.394-.823.923-5.583 1.833-11.177 2.766-16.895" fill="#fffcfc" transform="matrix(.602106 0 0 -.602106 353.43540718 115.2892581)"/><path d="m0 .167v-12.877h136.977s11.899-.546 16.659-12.777c0 0 2.285-5.192.339-17.693h4.325v30.263h173.531v-84.248h-57.334s.162-1.237.833-1.953c0 0 3.16-4.625-3.516-9.96 0 0-10.374-8.811-15.027-14.336 0 0-16.736-17.205-23.581-26.076l-17.796-22.135s-5.217-5.773-7.82-6.81c0 0-1.825-.384-1.673-3.046 0 0-.235-7.253-4.484-16.874 0 0-2.89-7.858-8.518-17.61 0 0-.595-.871-.138-2.088 0 0 2.444-6.827 8.881-20.14 0 0 8.196-17.261 9.275-21.99 0 0 1.801-5.449 1.991-8.463 0 0 .446-5.836-7.215-5.836-.062 0-.131.011-.197.011 0 0-.034-.011-.097-.011-.601 0-3.965.232-12.262 4.799l-5.119 3.166-28.337 13.932-37.934-16.562s-6.499-1.131-10.416-8.653c0 0-1.94-5.687-2.773-11.823 0 0-1.987-13.431-10.087-18.907 0 0-2.89-2.209-6.683-2.209-.957 0-1.977.142-3.018.491 0 0-4.259 1.946-3.578 6.582l.509 4.308-5.985-2.551s-.719-.256-1.576-.256c-.56 0-1.172.103-1.701.473 0 0-1.106.875-1.386 4.768 0 0-2.067 10.505-3.875 10.837-.007 0-.028.011-.045.011-1.19 0-2.085-9.182-2.818-10.596l-3.92-17.147-3.008-14.523s-2.547-14.371-2.613-18.927l-1.127-17.081-.581-9.469s-.231-4.259-2.738-6.094c0 0-1.562-1.048-3.633-1.048-1.718 0-3.792.729-5.583 3.429 0 0-1.988 2.935-2.659 5.805l-5.182-.073s-.121-.069-.345-.069c-.899 0-3.385 1.092-6.223 11.813 0 0-4.76 25.315-4.349 38.213 0 0 .643 23.283-1.414 31.048 0 0-2.022 12.376-5.994 18.471 0 0-13.369 20.133-13.825 20.133 0 0-10.838 15.819-13.638 22.27 0 0-5.738 10.122-5.953 14.841 0 0-.304 3.768 2.078 3.768.366 0 .809-.093 1.317-.304h.01c.132 0 2.047-.1 5.867-5.265 0 0 14.343-16.77 21.368-22.522 0 0 11.169-10.575 22.508-17.583 0 0 3.371-2.675 9.386-2.675 2.786 0 6.112.57 9.942 2.226 0 0 7.623 3.132 25.278 16.117 0 0 6.752 5.164 7.958 7.204 0 0 2.237 2.776-.27 2.783-.546 0-1.324-.135-2.409-.467 0 0-10.305-4.293-14.851-6.558l-15.982-8.203s-6.634-3.271-10.095-3.727c0 0-.252-.024-.653-.024-1.787 0-6.72.48-7.875 5.655 0 0-.958 2.97-.539 10.444l.691 11.768s.052 4.947 1.252 10.17c0 0 1.445 6.327 2.938 11.267l5.172 17.126 2.755 9.444s1.639 3.865-1.628 4.322l-20.756 9.603s-21.34 9.987-27.694 14.278c0 0-19.038 10.64-33.869 27.213 0 0-8.113 9.355-11.525 18.156l-1.127 3.087s-.063.861-2.033.861c-.564 0-1.286-.069-2.209-.249l-25.361.007h-34.324v35.697h3.989v13.97h-3.785v34.629h60.463v13.029zm3.723 3.686h-55.92v-13.026h-60.457v-42.007h3.775v-6.592h-3.985v-43.074h38.054l25.361-.007h.366l.36.072c.232.045.435.08.615.107l.529-1.441c3.616-9.362 11.847-18.9 12.197-19.304 14.592-16.317 32.807-26.854 34.722-27.933 6.675-4.456 27.203-14.077 28.081-14.491l20.427-9.445-.034-.131-2.759-9.438-5.161-17.091c-1.514-5.01-2.945-11.25-3.001-11.516-1.199-5.192-1.324-10.077-1.341-10.848l-.688-11.688c-.401-7.156.377-10.613.65-11.578 1.452-6.201 6.865-8.41 11.484-8.41.647 0 1.027.045 1.027.045 4.083.528 10.651 3.73 11.384 4.089l16.037 8.231c.895.446 2.029.975 3.274 1.542-15.211-11-22.067-13.928-22.139-13.952-2.987-1.297-5.825-1.943-8.501-1.943-4.501 0-6.997 1.818-7.104 1.898l-.128.1-.187.114c-10.862 6.71-21.786 17.012-21.896 17.119l-.097.09-.1.09c-6.434 5.265-19.66 20.617-20.822 21.98-2.9 3.889-5.538 6.091-7.868 6.558-.774.266-1.528.401-2.254.401-1.556 0-2.98-.609-4.017-1.719-1.926-2.06-1.843-5.137-1.774-6.032.225-5.047 5.11-14.022 6.32-16.179 3.014-6.789 13.451-22.038 13.897-22.692l1.431-2.095.163.038c2.333-3.311 7.515-10.989 12.193-18.042 2.903-4.428 4.915-13.797 5.444-17.026l.025-.179.044-.173c1.577-5.953 1.47-23.688 1.3-30.024-.421-13.116 4.204-37.931 4.401-38.978l.028-.131.038-.139c2.665-10.067 5.697-14.55 9.825-14.55.283 0 .57.017.847.072l2.012.028c.923-2.181 2.05-3.882 2.219-4.135 2.793-4.189 6.278-5.064 8.691-5.064 3.063 0 5.31 1.403 5.728 1.69l.062.035.059.045c3.806 2.793 4.211 8.252 4.245 8.86l.571 9.441 1.13 17.068.011.096v.087c.051 3.491 1.859 14.436 2.558 18.346l2.987 14.416 3.519 15.394c.529-3.16 1.635-4.674 2.551-5.396l.087-.073.093-.066c1.068-.757 2.406-1.154 3.844-1.154 1.424 0 2.569.387 2.88.501l.093.028.076.038.208.089c.235-4.566 3.74-7.446 5.807-8.386l.17-.08.18-.062c1.358-.456 2.782-.698 4.234-.698 4.643 0 8.142 2.378 8.868 2.9 9.271 6.351 11.501 20.77 11.587 21.375.681 5.012 2.154 9.762 2.534 10.91 2.963 5.459 7.478 6.434 7.665 6.472l.397.079.422.17 36.319 15.867 26.623-13.085 4.957-3.069.08-.045.083-.042c8.321-4.584 12.383-5.265 14.076-5.265h.294c3.686 0 6.551 1.065 8.529 3.17 2.613 2.79 2.434 6.233 2.406 6.62-.197 3.143-1.774 8.117-2.112 9.182-1.279 5.155-8.653 20.777-9.504 22.561-5.368 11.114-7.937 17.679-8.57 19.373 5.214 9.144 8.045 16.483 8.429 17.53 4.445 10.095 4.743 17.807 4.76 18.129v.045c3.115 1.618 7.273 6.067 8.546 7.47l.072.083.059.08 17.8 22.138c6.686 8.653 23.19 25.648 23.349 25.817l.097.097.083.1c4.393 5.217 14.484 13.808 14.581 13.898 4.816 3.837 5.863 7.937 5.514 11.014h55.814v91.624h-180.985v-10.015c-6.399 9.587-16.912 10.195-17.42 10.212l-.093.011h-133.341z" fill="#fff" transform="matrix(.602106 0 0 -.602106 212.95805632 85.3645899)"/></g></svg>