<svg clip-rule="evenodd" fill-rule="evenodd" stroke-linejoin="round" stroke-miterlimit="2" viewBox="0 0 560 400" xmlns="http://www.w3.org/2000/svg"><g transform="matrix(.32433 0 0 .32433 129.62 49.8235)"><path d="m463.667.547c254.729 0 462.489 207.76 462.489 462.489 0 254.73-207.76 462.49-462.489 462.49-254.735 0-462.495-207.76-462.495-462.49 0-254.729 207.76-462.489 462.495-462.489" fill="#0a0a0a"/><path d="m356.5 165.026c27.786-21.802 57.318-57.953 45.854-95.526-63.349 28.604-97.333 20.698-121.265 39.964-26.037 20.958-45.464 58.057-44.318 89.953 39.911-11.464 87.062-8.761 119.729-34.391" fill="#fff000"/><path d="m354.13 162.01c15.229-11.947 30.979-28.276 39.818-46.697 6.12-12.74 8.911-26.5 5.838-40.48-30.651 13.349-54.302 18.23-73.255 22.141-18.291 3.776-32.031 6.609-43.041 15.474-12.813 10.318-23.99 24.703-31.74 40.432-6.635 13.469-10.729 27.891-11.151 41.521 11.995-3.083 24.542-5.083 37.088-7.078 27.719-4.417 55.438-8.833 76.443-25.313zm46.75-43.395c-9.422 19.625-26.01 36.869-42.01 49.427-22.552 17.692-51.266 22.265-79.979 26.838-13.954 2.224-27.912 4.448-41.068 8.224l-4.714 1.354-.177-4.906c-.588-16.302 3.969-33.864 11.948-50.062 8.224-16.693 20.13-32 33.813-43.011 12.437-10.015 26.968-13.015 46.312-17.005 19.396-4 43.818-9.042 75.771-23.469l3.974-1.797 1.276 4.177c5.333 17.49 2.354 34.599-5.146 50.23" fill="#211e1e" fill-rule="nonzero"/><path d="m248.234 193.682c15.771-32.458 28.235-70.687 16.558-106.989-56.256 12.099-93.396 58.745-107.625 112.088-9.584 35.906-.214 74.933-1.276 112.084 42.88-25.053 70.614-72.448 92.343-117.183" fill="#fff000"/><path d="m244.786 192.021c7.756-15.969 14.698-33.339 18.256-51.141 3.286-16.448 3.677-33.26-.886-49.646-24.51 5.985-45.166 18.829-61.614 35.954-18.985 19.776-32.391 45.265-39.672 72.567-6.005 22.511-4.318 46.693-2.636 70.828.776 11.125 1.552 22.245 1.584 33.339 18.323-11.99 33.744-28.261 47.073-46.531 14.88-20.396 27.13-43.214 37.895-65.37zm25.787-49.641c-3.698 18.5-10.875 36.474-18.891 52.969-10.963 22.573-23.442 45.823-38.583 66.573-15.292 20.953-33.313 39.432-55.271 52.26l-5.974 3.49.198-6.912c.37-12.921-.562-26.291-1.5-39.666-1.719-24.714-3.448-49.464 2.906-73.292 7.61-28.516 21.646-55.182 41.563-75.922 18.229-18.984 41.359-33 68.974-38.937l3.38-.724 1.062 3.302c6.063 18.854 5.875 38.13 2.136 56.859" fill="#211e1e" fill-rule="nonzero"/><path d="m308.734 236.99c17.938-18.516 28.662-47.553 24.839-73.24-26.109 5.099-37.026-6.146-78.333 15.286-36.209 18.787-60.011 99.125-62.412 134.375 39.458-13.552 86.891-46.458 115.906-76.421" fill="#fff000"/><path d="m305.99 234.318c8.729-9.011 15.682-20.662 19.932-33.188 3.64-10.729 5.276-22.078 4.318-32.922-7.261 1.052-13.365.948-19.459.849-13.562-.229-27.12-.453-53.786 13.386-14.5 7.521-27.078 25.896-36.969 47.187-12.38 26.656-20.401 57.672-22.797 78.104 17.156-6.567 35.604-16.557 53.208-28.161 21.032-13.87 40.756-29.969 55.553-45.255zm27.192-30.724c-4.604 13.567-12.172 26.229-21.703 36.067-15.229 15.724-35.401 32.209-56.812 46.329-20.026 13.203-41.219 24.395-60.594 31.052l-5.474 1.88.391-5.766c1.406-20.64 10.01-56.453 24.078-86.734 10.526-22.667 24.203-42.38 40.416-50.792 28.407-14.734 42.912-14.495 57.417-14.255 6.823.115 13.651.229 21.938-1.391l3.937-.765.594 3.979c1.963 13.219.265 27.255-4.188 40.396" fill="#211e1e" fill-rule="nonzero"/><path d="m214.479 345.891c14.162-25.959 17.62-56.677 12.104-87.886-51.588 14.224-73.052 50.818-93.619 88.521-16.131 29.578-14.646 67.083-9.553 100.625 37.36-29.932 69.334-61.406 91.068-101.26" fill="#fff000"/><path d="m211.12 344.062c6.719-12.312 10.948-25.75 12.885-39.817 1.834-13.339 1.61-27.255-.51-41.344-22.849 7.068-39.37 18.844-52.531 33.156-14.105 15.328-24.48 33.677-34.641 52.302-7.75 14.209-11.276 30.443-12.255 47.203-.86 14.73.245 29.839 2.187 44.365 16.547-13.521 31.948-27.411 45.745-42.297 15.182-16.375 28.422-33.958 39.12-53.568zm20.474-38.802c-2.063 14.98-6.573 29.302-13.75 42.459-11.042 20.239-24.657 38.328-40.235 55.13-15.515 16.74-32.979 32.213-51.796 47.286l-5.198 4.162-.995-6.578c-2.589-17.016-4.255-35.042-3.235-52.578 1.042-17.766 4.839-35.079 13.219-50.443 10.406-19.078 21.047-37.886 35.719-53.833 14.828-16.12 33.656-29.219 60.239-36.547l4.068-1.125.729 4.156c2.881 16.26 3.37 32.422 1.235 47.911" fill="#211e1e" fill-rule="nonzero"/><path d="m159.078 318.505c13.495-43.713 22.287-90.005-9.557-136.922-24.412 31.417-56.281 70.953-64.958 103.808-15.287 57.88 1.489 120.364-1.271 179.593 23.25-15.234 33.776-53.963 49.062-83.88 11.151-21.833 19.834-40.281 26.724-62.599" fill="#fff000"/><path d="m155.417 317.38c6.646-21.531 12.135-43.682 12.047-66.12-.089-20.744-4.98-41.828-18.23-63.073-.286.365-.645.823-1.099 1.407-23.474 30.13-51.901 66.609-59.864 96.771-9.328 35.312-6.458 72.791-3.599 110.166 1.542 20.183 3.088 40.334 2.724 60.297 12.463-11.776 21.057-31.635 29.651-51.489 3.833-8.865 7.672-17.735 11.885-25.974 5.584-10.933 10.526-20.969 14.87-30.912 4.37-10.005 8.214-20.068 11.615-31.073zm19.724-66.151c.099 23.365-5.558 46.224-12.407 68.401-3.489 11.307-7.432 21.63-11.911 31.886-4.51 10.317-9.484 20.427-15.052 31.328-4.11 8.052-7.896 16.786-11.677 25.526-10.406 24.052-20.818 48.109-38.703 59.823l-6.287 4.119.349-7.494c1.026-22.12-.719-44.901-2.463-67.719-2.901-37.953-5.818-76.016 3.869-112.682 8.36-31.657 37.329-68.834 61.245-99.532 1.24-1.588-2.62 3.36 4.391-5.656l3.245-4.177 2.963 4.37c16.401 24.172 22.339 48.193 22.438 71.807" fill="#211e1e" fill-rule="nonzero"/><path d="m171.177 477.719c8.344-23.693 7.219-61.563-1.911-92.344-56.573 6.953-84.172 57.37-69.417 171.312 31.63-14.859 59.521-45.437 71.328-78.968" fill="#fff000"/><path d="m167.563 476.448c3.968-11.276 5.703-26.011 5.38-41.688-.308-14.994-2.511-30.755-6.443-45.119-25.266 3.979-44.13 17.541-55.182 42.796-11.474 26.23-14.75 64.943-8.339 118.417 13.604-7.177 26.391-17.349 37.255-29.38 12.016-13.307 21.625-28.828 27.329-45.026zm13.062-41.833c.339 16.515-1.542 32.192-5.833 44.38-6.058 17.203-16.198 33.625-28.86 47.64-12.739 14.105-28.093 25.829-44.463 33.521l-4.74 2.224-.677-5.208c-7.469-57.693-4.151-99.453 8.245-127.792 12.739-29.109 34.823-44.166 64.505-47.812l3.214-.396.921 3.125c4.714 15.885 7.339 33.588 7.688 50.318" fill="#211e1e" fill-rule="nonzero"/><path d="m118.953 455.427c-7.974-38.125-33.542-67.719-56.042-102.531-18.682 20.802-36.02 82.26-27.385 123.552 9.391 44.891 51.375 75.995 77.057 113.995 28.875-22.714 15.594-90.912 6.37-135.016" fill="#fff000"/><path d="m115.203 456.208c-6.052-28.942-22.724-53.151-40.292-78.661-4.156-6.037-8.359-12.141-12.317-18.125-8.308 11.484-16.068 30.995-20.818 52.422-4.781 21.567-6.453 44.922-2.5 63.823 6.052 28.953 26.469 52.369 46.88 75.786 9.485 10.88 18.964 21.755 27.099 33.219 10.776-11.208 13.719-31.266 12.959-53.594-.855-25.146-6.438-52.995-11.011-74.87zm-33.989-83.01c18.02 26.172 35.125 51.005 41.489 81.453 4.646 22.224 10.318 50.526 11.193 76.182.901 26.5-3.339 50.349-18.938 62.625l-3.239 2.547-2.313-3.416c-8.468-12.527-18.739-24.313-29.01-36.094-21.078-24.183-42.156-48.365-48.62-79.266-4.182-20.01-2.458-44.515 2.531-67.036 5.62-25.36 15.464-48.401 25.756-59.86l3.348-3.734 2.724 4.213c5.178 8.011 10.162 15.25 15.079 22.386" fill="#211e1e" fill-rule="nonzero"/><path d="m220.214 581.526c-16.474-26.37-42.032-47.125-53.495-76.422-49.886 12.313-42.74 77.974-29.297 115.271 14.536 40.328 66.656 53.917 99.984 80.88 17.198-33.541 4.12-85.62-17.192-119.729" fill="#fff000"/><path d="m216.958 583.552c-6.333-10.141-14.146-19.557-21.953-28.963-11.62-14-23.219-27.985-30.531-44.875-.703.218-1.406.453-2.099.703-40.911 14.744-33.75 74.224-21.339 108.666 9.209 25.552 34.985 40.203 60.756 54.849 11.869 6.75 23.739 13.495 34.166 21.323 5.844-14.068 6.735-31.114 4.235-48.495-3.219-22.442-12.073-45.343-23.235-63.208zm-16.041-33.854c7.958 9.594 15.922 19.193 22.552 29.802 11.677 18.693 20.937 42.667 24.317 66.182 2.964 20.636 1.412 40.99-6.958 57.313l-2.161 4.213-3.672-2.968c-10.917-8.829-23.948-16.24-36.985-23.646-27.015-15.354-54.036-30.714-64.203-58.933-13.411-37.213-20.458-101.734 25.99-118.474 1.864-.671 3.864-1.276 6.005-1.802l3.261-.807 1.223 3.13c6.724 17.188 18.672 31.584 30.631 45.99" fill="#211e1e" fill-rule="nonzero"/><path d="m176.906 589.167c-32.37-28.078-79.39-29.084-119.088-48.401-21.016 54.557 29.875 100.198 70.687 125.463 43.422 26.875 98.287 30.99 140.745 57.953 12.526-20.166-51.156-99.286-92.344-135.015" fill="#fff000"/><path d="m174.401 592.062c-18.932-16.427-43.474-23.385-68.5-30.489-15.443-4.38-31.062-8.813-45.891-15.537-6.593 20.485-2.593 39.631 7.032 56.714 14.172 25.151 40.442 45.964 63.474 60.224 21.109 13.062 45.276 20.734 69.343 28.37 23.297 7.39 46.511 14.755 67.282 27.041.786-9.109-7.974-26.062-21.058-45.187-19.672-28.766-49.099-61.547-71.682-81.136zm-66.432-37.869c25.859 7.338 51.213 14.531 71.442 32.078 23.021 19.974 52.99 53.349 73.006 82.609 16.807 24.578 26.625 46.797 20.088 57.323l-2.041 3.292-3.266-2.073c-20.964-13.307-45.255-21.021-69.651-28.761-24.474-7.765-49.057-15.562-71.052-29.177-23.896-14.797-51.219-36.505-66.141-62.984-11.276-20.016-15.521-42.682-6.109-67.115l1.5-3.89 3.75 1.823c15.401 7.494 32.041 12.213 48.474 16.875" fill="#211e1e" fill-rule="nonzero"/><path d="m349.495 657.948c-29-24.99-72.813-46.49-104.443-47.766-14.859 53.287 21.917 95.505 56.677 125.464 36.12 31.125 91.281 27.594 136.922 41.39-.422-29.505-51.594-86.713-89.156-119.088" fill="#fff000"/><path d="m346.99 660.844c-14.657-12.63-33.178-24.36-51.948-32.943-16.37-7.484-32.881-12.557-47.084-13.693-5.906 24.323-.619 46.24 10.167 65.594 11.417 20.474 29 38.203 46.109 52.948 23.256 20.042 55.266 25.302 87.276 30.562 14.474 2.375 28.943 4.756 42.704 8.469-2.344-11.75-11.318-27.177-23.443-43.375-18.073-24.135-43.016-49.666-63.781-67.562zm-48.766-39.907c19.411 8.881 38.588 21.027 53.776 34.115 21.094 18.182 46.469 44.162 64.891 68.766 14.948 19.968 25.401 39.224 25.604 53.177l.073 5.239-5.026-1.52c-15.042-4.547-31.151-7.193-47.261-9.844-33.078-5.433-66.156-10.87-91.057-32.334-17.651-15.208-35.839-33.572-47.786-55.015-12.136-21.771-17.818-46.599-10.079-74.36l.823-2.937 3.016.12c15.844.64 34.573 6.156 53.026 14.593" fill="#211e1e" fill-rule="nonzero"/><path d="m376.24 717.177c-68.36-34.484-164.308-33.542-229.266-14.016 26.536 100.839 137.359 101.683 217.167 94.256 75.739-7.042 174.708 54.984 215.255 75.786 11.437-8.943 23.802-16.958 36.937-24.198-116.328-42.672-156.088-89.453-240.093-131.828" fill="#fff000"/><path d="m374.516 720.594c-31.521-15.901-69.11-24.151-106.782-26.453-41.297-2.526-82.578 2.104-116.052 11.64 13.516 46.464 46.162 70.183 84.964 81.433 40.406 11.713 87.604 10.072 127.151 6.395 66.135-6.151 148.864 39 196.854 65.193 6.766 3.693 12.818 6.995 18.344 9.875 5.25-4.026 10.635-7.828 16.135-11.422 3.964-2.588 8.021-5.099 12.172-7.531-67.812-25.719-109.104-52.802-149.755-79.474-25.761-16.901-51.271-33.635-83.031-49.656zm-106.334-34.13c38.599 2.354 77.224 10.864 109.787 27.291 32.229 16.261 57.875 33.084 83.776 50.078 41.817 27.433 84.307 55.308 155.911 81.568l7.891 2.896-7.37 4.068c-6.458 3.562-12.75 7.328-18.849 11.312-6.141 4.01-12.005 8.188-17.578 12.542l-1.932 1.51-2.162-1.104c-5.422-2.781-12.557-6.677-20.666-11.104-47.24-25.781-128.672-70.229-192.506-64.292-40.255 3.745-88.38 5.391-129.968-6.667-42.204-12.239-77.563-38.432-91.245-90.421l-.943-3.584 3.552-1.067c34.927-10.5 78.662-15.698 122.302-13.026" fill="#211e1e" fill-rule="nonzero"/><path d="m570.828 170.125c-27.786-21.807-57.312-57.953-45.849-95.531 63.344 28.604 97.328 20.698 121.261 39.963 26.036 20.964 45.468 58.058 44.317 89.953-39.906-11.463-87.057-8.755-119.729-34.385" fill="#fff000"/><path d="m568.464 173.135c-16.006-12.552-32.594-29.796-42.011-49.427-7.505-15.625-10.484-32.739-5.151-50.224l1.276-4.177 3.974 1.792c31.953 14.432 56.38 19.469 75.776 23.474 19.344 3.99 33.875 6.99 46.313 17 13.682 11.016 25.583 26.318 33.807 43.01 7.984 16.203 12.536 33.761 11.953 50.063l-.182 4.911-4.709-1.354c-13.161-3.781-27.114-6.005-41.073-8.224-28.708-4.573-57.427-9.151-79.973-26.844zm-35.084-52.724c8.844 18.417 24.589 34.745 39.823 46.693 21.005 16.485 48.719 20.901 76.438 25.313 12.546 2 25.093 4 37.088 7.078-.417-13.63-4.515-28.047-11.151-41.521-7.75-15.729-18.922-30.115-31.739-40.432-11.011-8.86-24.75-11.698-43.042-15.469-18.948-3.912-42.604-8.792-73.25-22.146-3.073 13.984-.281 27.745 5.833 40.484" fill="#211e1e" fill-rule="nonzero"/><path d="m679.094 198.781c-15.766-32.463-28.235-70.692-16.558-106.989 56.256 12.099 93.401 58.744 107.631 112.083 9.578 35.906.208 74.937 1.27 112.089-42.88-25.053-70.609-72.454-92.343-117.183" fill="#fff000"/><path d="m675.646 200.448c-8.011-16.495-15.188-34.474-18.886-52.974-3.744-18.729-3.932-38 2.136-56.854l1.062-3.307 3.375.729c27.615 5.937 50.75 19.953 68.979 38.932 19.912 20.74 33.948 47.406 41.558 75.927 6.359 23.823 4.63 48.578 2.906 73.292-.932 13.375-1.865 26.739-1.495 39.661l.193 6.912-5.969-3.49c-21.958-12.828-39.984-31.302-55.276-52.26-15.135-20.75-27.614-43.995-38.583-66.568zm-11.354-54.474c3.557 17.807 10.5 35.172 18.255 51.141 10.76 22.156 23.015 44.979 37.89 65.369 13.334 18.271 28.756 34.547 47.073 46.532.032-11.094.808-22.209 1.584-33.334 1.687-24.14 3.37-48.317-2.636-70.833-7.281-27.302-20.682-52.792-39.666-72.563-16.448-17.13-37.11-29.968-61.62-35.958-4.557 16.386-4.167 33.198-.88 49.646" fill="#211e1e" fill-rule="nonzero"/><path d="m618.594 242.089c-17.933-18.521-28.657-47.553-24.839-73.24 26.115 5.094 37.031-6.146 78.334 15.286 36.213 18.782 60.015 99.12 62.411 134.375-39.458-13.552-86.891-46.463-115.906-76.421" fill="#fff000"/><path d="m615.849 244.755c-9.526-9.838-17.099-22.495-21.698-36.068-4.458-13.135-6.156-27.171-4.187-40.395l.588-3.979 3.943.77c8.286 1.615 15.109 1.506 21.937 1.391 14.5-.24 29.005-.484 57.412 14.255 16.218 8.412 29.89 28.12 40.422 50.787 14.062 30.286 22.671 66.099 24.078 86.739l.39 5.766-5.479-1.88c-19.375-6.657-40.568-17.849-60.594-31.052-21.411-14.12-41.583-30.61-56.812-46.334zm-14.438-38.526c4.245 12.526 11.198 24.172 19.928 33.188 14.802 15.281 34.526 31.385 55.557 45.25 17.599 11.604 36.052 21.599 53.203 28.161-2.396-20.427-10.417-51.443-22.797-78.099-9.885-21.292-22.463-39.667-36.963-47.193-26.672-13.833-40.23-13.609-53.787-13.385-6.099.104-12.198.208-19.463-.844-.954 10.844.682 22.188 4.322 32.922" fill="#211e1e" fill-rule="nonzero"/><path d="m712.849 350.99c-14.162-25.964-17.62-56.683-12.099-87.886 51.583 14.219 73.052 50.818 93.615 88.521 16.135 29.578 14.651 67.078 9.552 100.62-37.36-29.933-69.334-61.406-91.068-101.255" fill="#fff000"/><path d="m709.49 352.818c-7.178-13.157-11.693-27.485-13.756-42.459-2.13-15.489-1.64-31.656 1.235-47.916l.734-4.151 4.068 1.119c26.583 7.329 45.406 20.428 60.239 36.553 14.667 15.947 25.308 34.755 35.714 53.833 8.38 15.359 12.182 32.677 13.219 50.443 1.026 17.536-.646 35.562-3.229 52.578l-1 6.578-5.193-4.162c-18.818-15.078-36.287-30.547-51.802-47.286-15.578-16.807-29.193-34.891-40.229-55.13zm-6.162-43.479c1.932 14.067 6.162 27.505 12.88 39.817 10.698 19.615 23.938 37.193 39.12 53.573 13.797 14.886 29.198 28.776 45.745 42.292 1.948-14.526 3.052-29.63 2.187-44.36-.974-16.765-4.505-32.994-12.255-47.208-10.156-18.625-20.531-36.969-34.635-52.302-13.167-14.307-29.683-26.083-52.537-33.156-2.119 14.088-2.343 28.01-.505 41.344" fill="#211e1e" fill-rule="nonzero"/><path d="m768.255 323.604c-13.5-43.719-22.291-90.01 9.552-136.922 24.412 31.417 56.282 70.953 64.959 103.802 15.286 57.881-1.485 120.37 1.276 179.594-23.256-15.229-33.782-53.958-49.063-83.88-11.151-21.833-19.833-40.281-26.724-62.594" fill="#fff000"/><path d="m764.594 324.729c-6.849-22.182-12.5-45.042-12.407-68.401.099-23.62 6.037-47.641 22.438-71.807l2.969-4.37 3.245 4.172c7.005 9.021 3.145 4.068 4.385 5.656 23.922 30.703 52.885 67.875 61.25 99.531 9.682 36.672 6.771 74.735 3.865 112.688-1.745 22.818-3.49 45.599-2.459 67.713l.349 7.5-6.292-4.125c-17.88-11.713-28.296-35.77-38.703-59.817-3.781-8.74-7.562-17.479-11.677-25.532-5.567-10.901-10.541-21.005-15.047-31.322-4.484-10.256-8.427-20.579-11.916-31.886zm-4.724-68.375c-.094 22.443 5.396 44.589 12.047 66.125 3.395 11.005 7.239 21.068 11.609 31.073 4.344 9.943 9.286 19.974 14.875 30.906 4.208 8.245 8.047 17.115 11.885 25.979 8.589 19.855 17.188 39.709 29.646 51.49-.359-19.963 1.183-40.12 2.729-60.302 2.86-37.37 5.724-74.854-3.599-110.161-7.968-30.162-36.39-66.646-59.869-96.771-.453-.584-.813-1.047-1.099-1.412-13.25 21.245-18.141 42.334-18.224 63.073" fill="#211e1e" fill-rule="nonzero"/><path d="m756.156 482.818c-8.344-23.698-7.219-61.563 1.912-92.344 56.573 6.948 84.166 57.365 69.411 171.312-31.63-14.859-59.521-45.442-71.323-78.968" fill="#fff000"/><path d="m752.542 484.089c-4.292-12.183-6.177-27.86-5.834-44.381.344-16.724 2.969-34.427 7.683-50.317l.927-3.125 3.213.395c29.677 3.646 51.766 18.709 64.5 47.813 12.401 28.338 15.714 70.099 8.245 127.792l-.677 5.213-4.74-2.229c-16.369-7.688-31.724-19.417-44.463-33.521-12.656-14.015-22.797-30.432-28.854-47.64zm1.843-44.23c-.323 15.672 1.417 30.407 5.386 41.683 5.703 16.198 15.307 31.724 27.328 45.031 10.865 12.026 23.646 22.198 37.255 29.38 6.406-53.474 3.13-92.193-8.344-118.417-11.052-25.26-29.916-38.822-55.177-42.796-3.937 14.359-6.135 30.125-6.448 45.119" fill="#211e1e" fill-rule="nonzero"/><path d="m808.375 460.526c7.974-38.125 33.542-67.719 56.042-102.531 18.682 20.802 36.02 82.255 27.385 123.547-9.385 44.895-51.37 75.994-77.057 113.994-28.87-22.713-15.589-90.911-6.37-135.01" fill="#fff000"/><path d="m804.625 459.745c6.37-30.448 23.469-55.281 41.495-81.453 4.911-7.136 9.896-14.375 15.073-22.386l2.724-4.213 3.354 3.734c10.291 11.458 20.13 34.5 25.75 59.865 4.995 22.52 6.713 47.026 2.531 67.031-6.458 30.906-27.542 55.088-48.62 79.271-10.271 11.781-20.536 23.562-29.005 36.088l-2.312 3.417-3.24-2.547c-15.604-12.271-19.839-36.12-18.938-62.62.87-25.661 6.542-53.963 11.188-76.187zm47.792-77.104c-17.568 25.515-34.24 49.718-40.292 78.666-4.573 21.875-10.156 49.724-11.01 74.865-.761 22.333 2.187 42.39 12.963 53.594 8.13-11.459 17.615-22.339 27.094-33.214 20.411-23.417 40.828-46.838 46.88-75.792 3.953-18.895 2.281-42.25-2.5-63.823-4.75-21.421-12.505-40.932-20.812-52.421-3.964 5.989-8.167 12.093-12.323 18.125" fill="#211e1e" fill-rule="nonzero"/><path d="m707.12 586.625c16.474-26.375 42.031-47.13 53.495-76.427 49.885 12.312 42.734 77.974 29.291 115.271-14.531 40.328-66.656 53.922-99.984 80.88-17.193-33.542-4.115-85.615 17.198-119.724" fill="#fff000"/><path d="m703.859 584.599c6.631-10.615 14.599-20.214 22.558-29.802 11.958-14.412 23.901-28.807 30.625-45.99l1.224-3.13 3.26.802c2.146.531 4.146 1.136 6.01 1.802 46.448 16.74 39.396 81.266 25.985 118.479-10.167 28.219-37.188 43.573-64.203 58.933-13.032 7.406-26.068 14.812-36.979 23.646l-3.678 2.968-2.156-4.218c-8.37-16.323-9.922-36.678-6.958-57.308 3.375-23.521 12.635-47.495 24.312-66.182zm28.464-24.912c-7.802 9.407-15.615 18.823-21.953 28.959-11.162 17.87-20.011 40.771-23.235 63.213-2.494 17.381-1.609 34.422 4.235 48.495 10.427-7.833 22.297-14.578 34.166-21.323 25.776-14.651 51.547-29.297 60.756-54.849 12.411-34.442 19.578-93.927-21.339-108.666-.693-.25-1.391-.485-2.094-.709-7.312 16.896-18.916 30.88-30.536 44.88" fill="#211e1e" fill-rule="nonzero"/><path d="m750.422 594.266c32.37-28.079 79.396-29.084 119.094-48.401 21.015 54.557-29.875 100.192-70.693 125.458-43.417 26.88-98.287 30.995-140.745 57.953-12.526-20.167 51.156-99.281 92.344-135.01" fill="#fff000"/><path d="m747.917 591.37c20.229-17.547 45.588-24.745 71.442-32.078 16.433-4.662 33.073-9.386 48.474-16.875l3.75-1.828 1.5 3.895c9.412 24.427 5.172 47.099-6.104 67.11-14.922 26.484-42.245 48.192-66.146 62.984-21.994 13.615-46.573 21.412-71.052 29.182-24.396 7.74-48.687 15.448-69.646 28.756l-3.27 2.073-2.042-3.287c-6.537-10.531 3.281-32.75 20.094-57.328 20.01-29.26 49.979-62.635 73-82.604zm73.515-24.698c-25.026 7.099-49.567 14.062-68.505 30.489-22.583 19.589-52.005 52.37-71.682 81.136-13.078 19.125-21.844 36.078-21.052 45.187 20.765-12.286 43.979-19.651 67.276-27.047 24.073-7.635 48.234-15.302 69.343-28.369 23.032-14.256 49.303-35.073 63.474-60.224 9.631-17.084 13.631-36.229 7.032-56.709-14.823 6.724-30.443 11.157-45.886 15.537" fill="#211e1e" fill-rule="nonzero"/><path d="m577.839 663.042c29-24.99 72.812-46.49 104.442-47.761 14.86 53.281-21.922 95.5-56.682 125.459-36.115 31.13-91.281 27.599-136.922 41.395.427-29.505 51.594-86.718 89.162-119.093" fill="#fff000"/><path d="m575.328 660.151c15.193-13.094 34.365-25.234 53.776-34.115 18.458-8.437 37.182-13.958 53.026-14.599l3.021-.119.818 2.942c7.739 27.756 2.057 52.589-10.073 74.36-11.953 21.437-30.141 39.802-47.792 55.015-24.901 21.459-57.979 26.896-91.052 32.334-16.115 2.646-32.224 5.291-47.266 9.844l-5.026 1.515.079-5.239c.197-13.948 10.651-33.209 25.598-53.172 18.422-24.61 43.797-50.584 64.891-68.766zm56.958-27.156c-18.765 8.583-37.291 20.312-51.942 32.942-20.766 17.902-45.714 43.428-63.782 67.568-12.125 16.193-21.098 31.62-23.442 43.37 13.755-3.714 28.229-6.089 42.698-8.469 32.01-5.26 64.021-10.521 87.276-30.562 17.109-14.745 34.698-32.469 46.109-52.948 10.787-19.354 16.078-41.266 10.167-65.589-14.203 1.136-30.714 6.203-47.084 13.688" fill="#211e1e" fill-rule="nonzero"/><path d="m551.089 722.271c68.359-34.485 164.307-33.542 229.265-14.011-26.536 100.834-137.359 101.677-217.167 94.256-75.739-7.047-174.708 54.979-215.255 75.786-11.437-8.943-23.802-16.958-36.937-24.203 116.333-42.667 156.088-89.453 240.094-131.828" fill="#fff000"/><path d="m549.365 718.854c32.562-16.427 71.182-24.937 109.781-27.297 43.646-2.666 87.375 2.526 122.302 13.026l3.557 1.073-.943 3.578c-13.682 51.99-49.041 78.188-91.25 90.422-41.588 12.063-89.708 10.412-129.968 6.667-63.828-5.932-145.266 38.51-192.5 64.292-8.11 4.427-15.25 8.322-20.672 11.104l-2.156 1.109-1.938-1.516c-5.568-4.354-11.437-8.526-17.573-12.541-6.104-3.985-12.39-7.75-18.854-11.313l-7.37-4.062 7.896-2.896c71.604-26.266 114.094-54.141 155.906-81.573 25.901-16.99 51.547-33.818 83.782-50.073zm110.229-19.614c-37.667 2.296-75.255 10.552-106.782 26.453-31.76 16.021-57.265 32.755-83.031 49.656-40.651 26.672-81.937 53.755-149.755 79.474 4.151 2.432 8.208 4.937 12.177 7.531 5.5 3.594 10.88 7.391 16.136 11.417 5.52-2.875 11.572-6.177 18.343-9.875 47.985-26.193 130.714-71.344 196.849-65.193 39.552 3.677 86.745 5.323 127.151-6.396 38.802-11.245 71.448-34.963 84.969-81.427-33.474-9.536-74.76-14.166-116.057-11.64" fill="#211e1e" fill-rule="nonzero"/><path d="m464.182 505.083c-177.786 0-198 47.058-225.515 30.573-69.209-41.463-28.776-236.974 225.515-236.974 256.146 0 289.459 188.875 228.058 236.974-24.401 19.12-41.787-30.573-228.058-30.573" fill="#0c7fc7"/><path d="m334.625 484.693v-135.688h29.719v59.792h.411l14.719-59.792h28.411l-18.333 56.209 18.537 79.479h-29.542l-13.792-69.901h-.411v69.901z" fill="#fff000"/><path d="m456.682 349.005h29.719v135.687h-29.719z" fill="#fff000"/><path d="m542.146 484.693v-135.688h55.302v18.87h-25.589v31.281h24.969v19.594h-24.969v65.943z" fill="#fff000"/><g fill="#f3e817"><path d="m383.844 646.38h-15.474v-57.458c-5.662 5.219-12.323 9.073-19.995 11.552v-13.828c4.026-1.297 8.427-3.761 13.167-7.391 4.739-3.651 7.989-7.89 9.739-12.739h12.563z"/><path d="m407.318 627.995 14.989-1.63c.375 3 1.334 5.218 2.875 6.666 1.547 1.443 3.573 2.167 6.115 2.167 3.198 0 5.906-1.448 8.14-4.333 2.261-2.891 3.688-8.891 4.308-18.021-3.891 4.463-8.761 6.687-14.594 6.687-6.354 0-11.849-2.427-16.453-7.239-4.609-4.834-6.922-11.11-6.922-18.855 0-8.072 2.443-14.572 7.313-19.515 4.854-4.927 11.062-7.406 18.583-7.406 8.198 0 14.911 3.13 20.182 9.369 5.245 6.24 7.88 16.5 7.88 30.776 0 14.553-2.75 25.037-8.218 31.48-5.474 6.427-12.605 9.651-21.386 9.651-6.318 0-11.416-1.651-15.307-4.964-3.896-3.318-6.396-8.26-7.505-14.833zm35.057-33.313c0-4.927-1.146-8.745-3.443-11.448-2.297-2.718-4.963-4.073-7.974-4.073-2.859 0-5.25 1.11-7.13 3.334-1.896 2.224-2.838 5.87-2.838 10.942 0 5.131 1.036 8.912 3.083 11.297 2.052 2.407 4.63 3.615 7.713 3.615 2.969 0 5.49-1.151 7.521-3.469 2.052-2.312 3.068-5.719 3.068-10.198"/><path d="m495.917 566.516c7.843 0 13.953 2.755 18.354 8.255 5.25 6.5 7.88 17.297 7.88 32.39 0 15.037-2.651 25.849-7.932 32.443-4.365 5.427-10.459 8.13-18.302 8.13-7.844 0-14.183-2.963-18.995-8.927-4.818-5.942-7.224-16.552-7.224-31.812 0-14.979 2.656-25.761 7.937-32.334 4.365-5.421 10.459-8.145 18.282-8.145zm0 12.645c-1.865 0-3.537.594-5 1.761-1.469 1.182-2.615 3.297-3.427 6.333-1.053 3.943-1.594 10.573-1.594 19.906 0 9.334.484 15.74 1.427 19.219.958 3.5 2.161 5.818 3.609 6.985 1.469 1.145 3.12 1.739 4.985 1.739 1.88 0 3.557-.594 5.02-1.776 1.469-1.167 2.615-3.281 3.422-6.318 1.058-3.906 1.599-10.515 1.599-19.849 0-9.333-.489-15.739-1.427-19.239-.958-3.485-2.161-5.818-3.609-7-1.469-1.167-3.125-1.761-5.005-1.761"/><path d="m562.87 646.38v-16h-33.063v-13.349l35.058-50.515h12.994v50.458h10.026v13.406h-10.026v16zm0-29.406v-27.182l-18.563 27.182z"/></g></g></svg>