<svg clip-rule="evenodd" fill-rule="evenodd" stroke-linejoin="round" stroke-miterlimit="2" viewBox="0 0 560 400" xmlns="http://www.w3.org/2000/svg"><g transform="matrix(1.07313 0 0 1.07313 145 70.4193)"><path d="m248.5 197.5c-9.9-9-18.6-15.4-31.2-19.1l.1-.2c3.8-8.5 8.5-19.2.8-24.8-1.2-.9-5.7-2.8-8-3.7 1.3-5.9 2.2-11.7 2.7-17.6s.7-12.3.4-19.3c-.2-5.5-.5-10.8-.9-16-.3-4.1-.5-8.4-.7-12.9-.8-17.3.8-36.5 4.7-57l.5-2.4-1.1-.5c-2.6-1-5.6-2.4-9-3.9-17.5-7.9-43.8-19.9-80.1-20.1h-1.8c-36.4.2-62.7 12.2-80.2 20.1-3.4 1.6-6.4 2.9-9 3.9l-1.1.5.5 2.4c3.9 20.5 5.5 39.6 4.7 57-.2 4.4-.5 8.7-.7 12.9-.3 5.1-.7 10.4-.9 16-.3 7.1-.1 13.4.4 19.3s1.4 11.7 2.7 17.6c-2.3.9-6.8 2.8-8 3.7-7.7 5.7-3 16.3.8 24.8l.1.1v.1c-12.5 3.7-21.3 10.1-31.2 19.1l-3 2.6h4c7.2-.1 14.1.1 21.5.5-4.1 8-5.6 18.5-6.2 24.4l-.4 3.7 2.8-2.5c19.4-16.9 41.4-19.4 45.8-19.8 19.8 26.4 54.1 34.2 58 35l.3.1.3-.1c3.9-.8 38.2-8.6 58-35 4.4.3 26.3 2.9 45.8 19.8l2.8 2.5-.4-3.7c-.6-5.8-2.1-16.3-6.2-24.4 7.3-.4 14.3-.6 21.5-.5h4z"/><path d="m247.5 198.6c-9.6-8.7-18.7-15.5-32.2-19.2.2-.5.5-1.1.7-1.6 3.7-8.3 8.1-18.2 1.3-23.2-1.3-.9-7.5-3.5-8.8-3.9 1.4-6.2 2.4-12.3 3-18.7s.6-12.7.4-19.1c-.4-10-1.1-18.9-1.6-28.8-1.3-28.1 4-53.6 5-58.5-15.7-6.3-45.7-23.9-89.5-23.9-43.8-.1-73.8 17.4-89.6 23.7.9 5 6.2 30.4 5 58.5-.5 10-1.2 18.9-1.6 28.8-.2 6.4-.2 12.8.4 19.1s1.5 12.5 3 18.7c-1.3.5-7.6 3-8.8 3.9-6.8 5-2.3 14.9 1.3 23.2.2.5.5 1.1.7 1.6-13.5 3.7-22.6 10.5-32.2 19.2 8.2-.1 15.8.1 23.9.6-4.6 7.5-6.5 18.5-7.2 25.9 22.2-19.3 47.5-20.2 47.5-20.2 19.5 26.6 54.5 34.4 57.5 35 3.1-.6 38.1-8.4 57.5-35 0 0 25.2.9 47.5 20.2-.7-7.4-2.6-18.4-7.2-25.9 8.2-.3 15.9-.5 24-.4z" fill="#fff"/><path d="m197.3 195.5.6-.2c1.2 0 .9 0 1.7-.2 1-.2 3.3-.8 3.8-3.9.2-1.5.2-2.5.2-2.5v-.1l-.6-3.1c2.8-.6 4.8-1.9 4.8-1.9 6.2.4 15.9 4.2 23.4 9.4-7.4.2-12.8 0-17.8 2 4.3 3.9 4.1 8.4 7.4 16-9.7-6.1-19-9.5-29.3-10.6-4-.5-9.5-1.2-11.4-2 .7-1 3.5-4.3 4.2-5.3 2.6.4 9.3 2.4 13 2.4z" fill="#005f36"/><path d="m188.5 189.3c.3-.4.5-.9.8-1.3.8-1.4 1.5-2.7 2.3-4.2l8 2.1c-.1 0-.1.1-.2.1.1 0 .2 0 .3-.1l.8.2.6 2.8c0 .2.1 1.3-.1 2.4-.2 1.2-.4 2.5-1 2.7-.6.1-1.7.2-2.7.2-3.3 0-7.9-1-10.9-1.5.7-1 1.5-2.3 2.1-3.4z" fill="#005f36"/><path d="m178.7 197.5c2.1.3 7.5 1 11.7 1.6 10.4 1.6 19.9 4.1 29.6 10.2-2.3-5.7-4.5-10.6-8.2-15.3 4.8-.9 9.5-1.6 16.9-1.8-7.5-5-15.5-7.1-21.2-7.7 0 0-1.7.4-4.5 1l.6 3.1v.1c0 .1.2 1.5 0 3-.5 3.1-2.2 3.9-3.2 4.2-.7.2-1.6.2-2.8.2-3.7 0-9.3-1-12-1.4.3-.4.3-.8.5-1.2s.8-.7 1-1.1c2.8.5 7.3 1.2 10.3 1.2.9 0 1.7-.1 2.2-.2.6-.1.9-.7.6-1.2-.5-.9.7-2.9.6-3.1l-.5-2.7-.7-.2h-.1l-7.6-2 1.2-2.4 9.4 2.5.1.5c.9-.5 2.1-1.2 2.9-2l.8-.8 1.2.1c16.4 1.6 29.1 12.4 29.1 12.4s-11.5.2-19.9 1.6c7 11.7 8.2 20 8.2 20l-6.7-4.2c-9.3-5.5-16.8-8.2-27.2-9.9-3.7-.6-10-1.6-13.4-2.1.6-.8.6-1.7 1.1-2.4z"/><path d="m54.1 195.5-.6-.2c-1.2 0-.9 0-1.7-.2-1-.2-3.3-.8-3.8-3.9-.2-1.5-.2-2.5-.2-2.5v-.1l.6-3.1c-2.8-.6-4.8-1.9-4.8-1.9-6.2.4-15.9 4.2-23.4 9.4 7.4.2 12.8 0 17.8 2-4.3 3.9-4.1 8.4-7.4 16 9.7-6.1 19-9.5 29.3-10.6 4-.5 9.5-1.2 11.4-2-.7-1-3.5-4.3-4.2-5.3-2.6.4-9.2 2.4-13 2.4z" fill="#005f36"/><path d="m62.9 189.3c-.3-.4-.5-.9-.8-1.3-.8-1.4-1.5-2.7-2.3-4.2l-8 2.1c.1 0 .1.1.2.1-.1 0-.2 0-.3-.1l-.8.2-.6 2.8c0 .2-.1 1.3.1 2.4.2 1.2.4 2.5 1 2.7.6.1 1.7.2 2.7.2 3.3 0 7.9-1 10.9-1.5-.6-1-1.4-2.3-2.1-3.4z" fill="#005f36"/><path d="m72.8 197.5c-2.1.3-7.5 1-11.7 1.6-10.4 1.6-19.9 4.1-29.6 10.2 2.3-5.7 4.5-10.6 8.2-15.3-4.8-.9-9.5-1.6-16.9-1.8 7.5-5 15.5-7.1 21.2-7.7 0 0 1.7.4 4.5 1l-.6 3.1v.1c0 .1-.2 1.5 0 3 .5 3.1 2.2 3.9 3.2 4.2.7.2 1.6.2 2.8.2 3.7 0 9.3-1 12-1.4-.3-.4-.3-.8-.5-1.2s-.8-.7-1-1.1c-2.8.5-7.3 1.2-10.3 1.2-.9 0-1.7-.1-2.2-.2-.6-.1-.9-.7-.6-1.2.5-.9-.7-2.9-.6-3.1l.5-2.7.7-.2h.1l7.6-2-1.2-2.4-9.4 2.5-.1.5c-.9-.5-2.1-1.2-2.9-2l-.8-.8-1.2.1c-16.4 1.6-29.1 12.4-29.1 12.4s11.5.2 19.9 1.6c-7 11.7-8.2 20-8.2 20l6.7-4.2c9.3-5.5 16.8-8.2 27.2-9.9 3.7-.6 10-1.6 13.4-2.1-.7-.8-.6-1.7-1.1-2.4z"/><path d="m209.2 27.4c-.2 1.1-.4 2.3-.6 3.4s-.4 2.2-.5 3.3c-.2 1.1-.3 2.2-.5 3.2-.1 1.1-.3 2.1-.4 3.1s-.3 2.1-.4 3.1c-6.8 56.3 7.4 71.5-6.4 117.8-.2.8-.5 1.7-.8 2.5s-.5 1.7-.8 2.6-.6 1.7-.9 2.6c-.3.6-.6 1.2-.9 1.8s-.6 1.2-.8 1.8c-.3.6-.6 1.2-.8 1.8-.3.6-.6 1.2-.8 1.7-.3.6-.6 1.1-.8 1.7-.3.6-.6 1.1-.8 1.7-10.9 21.6-21.6 34.9-38.6 44.6-.4.2-.9.5-1.3.7s-.9.5-1.3.7c-.5.2-.9.5-1.4.7s-.9.5-1.4.7-.9.5-1.4.7-1 .5-1.4.7c-.5.2-1 .4-1.5.7-.5.2-1 .4-1.5.7-.5.2-1 .4-1.5.6s-1 .4-1.6.6c-.5.2-1.1.4-1.6.6-4.3 1.7-7.6 3.2-12.6 4.7-5.7-1.7-9.5-3.5-14.2-5.3-.5-.2-1-.4-1.6-.6-.5-.2-1-.4-1.5-.6s-1-.4-1.5-.7c-.5-.2-1-.4-1.5-.7-.5-.2-1-.4-1.5-.7-.5-.2-1-.5-1.4-.7-.5-.2-.9-.5-1.4-.7s-.9-.5-1.4-.7-.9-.5-1.3-.7-.9-.5-1.3-.7c-.4-.3-.9-.5-1.3-.8s-.8-.5-1.3-.8c-.4-.3-.8-.5-1.2-.8s-.8-.5-1.2-.8-.8-.5-1.2-.8-.8-.6-1.2-.8c-.4-.3-.8-.6-1.2-.9s-.8-.6-1.1-.9c-.4-.3-.8-.6-1.1-.9-10.4-8.4-18.3-19.1-26.1-34-.3-.5-.6-1.1-.8-1.6-.3-.5-.6-1.1-.8-1.6-.3-.6-.6-1.1-.8-1.7-.3-.6-.6-1.1-.8-1.7-.3-.6-.6-1.2-.8-1.7-.3-.6-.6-1.2-.8-1.8-.3-.6-.6-1.2-.8-1.8-.3-.6-.6-1.2-.9-1.8-.3-.9-.6-1.8-.9-2.6-.3-.9-.6-1.7-.8-2.6-.3-.8-.5-1.7-.8-2.5-13.8-46.3.4-61.5-6.4-117.8-.1-1-.3-2-.4-3.1-.1-1-.3-2.1-.4-3.1-.1-1.1-.3-2.1-.5-3.2s-.3-2.2-.5-3.3-.4-2.2-.6-3.4h.3c3.2-1 11.1-5.4 13.8-6.6h.1c23.2-10.5 46.3-15.6 69.3-15.5 23-.1 46.1 5 69.3 15.5h.1c2.8 1.2 10.6 5.5 13.8 6.6h.2z" fill="#005f36"/><path d="m193.2 156.2c0-.5.1-1.1.1-1.6-20.1-5.7-43.1-8.9-67.6-8.9s-47.5 3.2-67.6 8.9c0 .5.1 1.1.1 1.6h-.1c.4 7.2 1.7 15.1 5 24.8.2.6.4 1.2.6 1.8s.4 1.2.7 1.9c.2.6.5 1.3.7 1.9.2.4.5.9.7 1.3s.5.9.7 1.3.5.9.7 1.3.5.8.7 1.3c.2.4.5.8.7 1.2s.5.8.7 1.2.5.8.7 1.2.5.8.7 1.2c6.4 10.8 12.9 18.6 21.4 24.6l1.8 1.2c.3.2.6.4 1 .6.3.2.6.4 1 .6.3.2.7.4 1 .6s.7.4 1 .6.7.4 1 .6.7.4 1 .6c.4.2.7.4 1.1.5.4.2.7.4 1.1.5.4.2.7.4 1.1.5.4.2.7.3 1.1.5s.8.3 1.1.5.8.3 1.2.5.8.3 1.2.5.8.3 1.2.5.8.3 1.2.5.8.3 1.3.5c.4.2.9.3 1.3.5 3.9 1.4 8.1 2.6 12.8 3.9 4.1-1.1 8-2.2 11.5-3.4.4-.2.9-.3 1.3-.5s.9-.3 1.3-.5.8-.3 1.3-.5c.4-.2.8-.3 1.2-.5s.8-.3 1.2-.5.8-.3 1.2-.5.8-.3 1.2-.5.8-.3 1.1-.5c.4-.2.8-.3 1.1-.5.4-.2.7-.4 1.1-.5.4-.2.7-.4 1.1-.5 13.9-7.1 22.8-16.7 31.7-32.3.2-.4.5-.8.7-1.2s.5-.8.7-1.2.5-.8.7-1.3c.2-.4.5-.9.7-1.3s.5-.9.7-1.3.5-.9.7-1.3c.2-.6.5-1.3.7-1.9s.5-1.2.7-1.9c.2-.6.4-1.2.6-1.8 3.3-9.7 4.7-17.6 5.1-24.8z" fill="#fff"/><path d="m40.8 27.4c12.5 73.4-8.2 84.7 11.2 141.7 18.2 39.7 33.4 55.4 73.7 67.4-33-15.5-55.7-38.4-66.1-69.7-13.3-40.2 7.7-104.1-2.6-146.3-3 1.2-13.2 6.1-16.2 6.9z"/><path d="m210.6 27.4c-12.5 73.4 8.2 84.7-11.2 141.7-18.2 39.7-33.4 55.4-73.7 67.4 33-15.5 55.7-38.4 66.1-69.7 13.3-40.2-7.7-104.1 2.6-146.3 3.1 1.2 13.3 6.1 16.2 6.9z"/><path d="m116.8 232c2.8 1.5 5.4 3.1 8.9 4.5 3.5-1.4 6.2-3 8.9-4.5l-8.9-8.9z" fill="#005f36"/><path d="m56.8 156.7c0-.2-2.8-15.5-3.1-32.9-.2-11.5 1.2-26.9 2.6-41.8.8-8.7 1.7-17.8 2.1-25.6 1.2-21-1.5-37.6-1.5-37.7l3.9-.6c.1.7 2.8 17.1 1.5 38.6-.5 7.9-1.3 17-2.1 25.8-1.4 14.8-2.8 30.1-2.6 41.4.4 17.1 3.1 32.2 3.1 32.3z" fill="#fff"/><path d="m194.7 156.7c0-.2 2.8-15.5 3.1-32.9.2-11.5-1.2-26.9-2.6-41.8-.8-8.7-1.7-17.8-2.1-25.6-1.2-21 1.5-37.6 1.5-37.7l-3.9-.6c-.1.7-2.8 17.1-1.5 38.6.5 7.9 1.3 17 2.1 25.8 1.4 14.8 2.8 30.1 2.6 41.4-.4 17.1-3.1 32.2-3.1 32.3z" fill="#fff"/><path d="m192.3 156.7-14.5 14.2 6.8 6.6c3-6.4 5.6-13.3 7.7-20.8z" fill="#1e8050"/><path d="m184.6 177.5-6.8-6.6 14.5-14.2c-2.1 7.5-4.7 14.4-7.7 20.8z" fill="#1e8050"/><path d="m57.8 158.8v-5.7l1.5-1.1v5.7z"/><g fill="#005f36"><path d="m113.5 193.5h24.5v24.5h-24.5z" transform="matrix(.7071 -.7071 .7071 .7071 -108.629 149.154)"/><path d="m113.5 158.8h24.5v24.5h-24.5z" transform="matrix(.7071 -.7071 .7071 .7071 -84.1226 139.009)"/><path d="m97.4 216.7 11-11-17.3-17.3-10.6 10.6c4.9 6.4 9.9 11.5 16.9 17.7z"/><path d="m154 216.7-11-11 17.3-17.3 10.7 10.6c-4.9 6.4-9.9 11.5-17 17.7z"/><path d="m89.8 153.3 18.6 17.7-17.3 17.4-18.3-15.6z"/><path d="m148.1 158.8h24.5v24.5h-24.5z" transform="matrix(.7071 -.7071 .7071 .7071 -73.9708 163.524)"/><path d="m51.9 186.1s.1.1.2.1c-.1 0-.2-.1-.2-.1z"/></g><path d="m131.3 211.2c-1.3 1.4-3.4 2.2-5.6 2.2-2.3 0-4.3-.8-5.6-2.1-1.2-1.2-1.7-2.8-1.6-4.8.1-1.8.9-4.3 2-6.1l.3-.5-.9-.4.7-.9 2.1 1.2-.1.4c-.5 1.3-1.3 3.8-1.5 5.3-.1.9-.1 1.6.3 2.6 1.1 2.8 3.5 2.9 4.4 2.9 2.1-.1 3.5-1.1 4.3-3 .3-.9.3-1.7.3-2.5-.1-1.5-1-4-1.5-5.3l-.2-.4 2.1-1.2.7.9-.9.4.3.5c1.1 1.8 1.9 4.3 2 6.1.1 1.9-.4 3.5-1.6 4.7zm1.7-10.3-.2-.4 1.1-.5-2.5-3.5-4.5 2.5.4.9c.4 1 1.6 4 1.7 5.6 0 .7.1 1.3-.2 1.9-.7 1.7-2 2-2.9 2-1.1-.1-2.3-.3-2.9-1.9-.2-.7-.2-1.2-.2-1.9.1-1.8 1.5-5.2 1.7-5.6l.3-.9-4.5-2.5-2.5 3.5 1.1.5-.2.4c-.8 1.8-1.4 3.8-1.5 5.4-.1 1.2.1 2.4.4 3.4s.9 1.8 1.6 2.5c1.6 1.7 4 2.6 6.7 2.6 1.2 0 2.4-.2 3.5-.6 1.3-.5 2.3-1.1 3.2-2 .7-.7 1.2-1.6 1.6-2.5.4-1 .5-2.2.5-3.4-.3-1.7-.9-3.7-1.7-5.5z"/><path d="m130.6 210.5c-1.1 1.2-2.9 1.9-4.9 1.9s-3.8-.7-4.9-1.8c-1-1-1.4-2.4-1.3-4.1.1-1.6.7-3.6 1.6-5.3-.4 1.3-.9 2.9-1 4.1-.1 1-.1 1.9.3 3 1.3 3.4 4.3 3.5 5.3 3.6 2.5-.1 4.3-1.3 5.2-3.6.4-1.1.4-2 .3-2.9-.1-1.1-.5-2.7-1-4 .9 1.6 1.5 3.7 1.6 5.2.2 1.6-.2 2.9-1.2 3.9zm-.1-10-.6-.9.9-.4-.1-.1-1.4.8c.5 1.3 1.4 3.8 1.5 5.4.1.8.1 1.7-.3 2.7-.8 2.1-2.4 3.2-4.8 3.3-.9 0-3.7-.2-4.9-3.3-.4-1-.4-1.8-.3-2.8.1-1.6 1-4.1 1.5-5.4l-1.4-.8-.1.1.9.4-.6.9c-1.1 1.8-1.8 4.1-1.9 5.9-.1 1.9.4 3.4 1.4 4.5 1.2 1.3 3.1 2 5.3 2 2.1 0 4-.8 5.2-2 1.1-1.1 1.6-2.6 1.5-4.4 0-1.7-.7-4.1-1.8-5.9z"/><path d="m131 210.9c-1.2 1.3-3.2 2-5.2 2-2.1 0-4.1-.7-5.3-2-1.1-1.1-1.5-2.6-1.4-4.5.1-1.8.9-4.1 1.9-5.9l.6-.9-.9-.4.1-.1 1.4.8c-.5 1.3-1.4 3.8-1.5 5.4-.1 1-.1 1.7.3 2.8 1.2 3.1 3.9 3.2 4.9 3.3 2.3-.1 3.9-1.2 4.8-3.3.4-1 .3-1.9.3-2.7-.1-1.6-1-4.1-1.5-5.4l1.4-.8.1.1-.9.4.6.9c1.1 1.8 1.8 4.1 1.9 5.9-.1 1.8-.6 3.3-1.6 4.4zm-.1-10.6-.3-.5.9-.4-.7-.9-2.1 1.2.2.4c.5 1.3 1.4 3.8 1.5 5.3 0 .8.1 1.6-.3 2.5-.8 1.9-2.2 2.9-4.3 3-.9 0-3.3-.1-4.4-2.9-.3-.9-.3-1.6-.3-2.6.1-1.5 1-4 1.5-5.3l.1-.4-2.1-1.2-.7.9.9.4-.3.5c-1.1 1.8-1.9 4.3-2 6.1-.1 2 .4 3.6 1.6 4.8 1.3 1.4 3.3 2.1 5.6 2.1 2.2 0 4.3-.8 5.6-2.2 1.2-1.2 1.7-2.8 1.6-4.8-.1-1.7-.9-4.2-2-6z"/><path d="m134 209.7c-.3 1-.9 1.8-1.6 2.5-.8.9-1.9 1.6-3.2 2-1.1.4-2.3.6-3.5.6-2.7 0-5.1-.9-6.7-2.6-.7-.7-1.2-1.6-1.6-2.5-.4-1-.5-2.2-.4-3.4.1-1.6.6-3.6 1.5-5.4l.2-.4-1.1-.5 2.5-3.5 4.5 2.5-.3.9c-.2.4-1.5 3.9-1.7 5.6-.1.8-.1 1.2.2 1.9.6 1.6 1.8 1.9 2.9 1.9.9-.1 2.2-.3 2.9-2 .2-.6.2-1.2.2-1.9-.1-1.6-1.3-4.6-1.7-5.6l-.4-.9 4.5-2.5 2.5 3.5-1.1.5.2.4c.8 1.8 1.4 3.8 1.5 5.4.2 1.4 0 2.5-.3 3.5zm-.6-9 1.1-.5-3.1-4.3-5.3 2.9.5 1.3c.5 1.2 1.5 4.1 1.6 5.4 0 .7 0 1.2-.1 1.7-.6 1.4-1.6 1.6-2.5 1.7-1.1-.1-2-.4-2.5-1.6-.2-.6-.2-1-.2-1.7.1-1.4 1.1-4.1 1.6-5.5l.5-1.2-5.2-2.9-3.1 4.3 1.1.5c-.9 1.8-1.4 3.9-1.5 5.6-.1 1.3.1 2.5.5 3.6.4 1 .9 1.9 1.7 2.7 1.7 1.8 4.2 2.8 7.1 2.8 1.3 0 2.5-.2 3.7-.6 1.3-.5 2.5-1.2 3.4-2.1.7-.8 1.3-1.7 1.7-2.7.4-1.1.5-2.3.5-3.6-.1-1.9-.6-3.9-1.5-5.8z"/><path d="m133.4 206.4c-.1-2.1-1-4.6-2.1-6.4l.9-.4-1.3-1.7-2.9 1.6s1.6 3.9 1.7 5.9c.1.9.1 1.5-.2 2.3-.9 2.4-2.9 2.6-3.9 2.6s-3-.2-3.9-2.6c-.3-.8-.3-1.5-.2-2.3.2-2 1.7-5.9 1.7-5.9l-2.9-1.6-1.3 1.7.9.4c-1.1 1.8-2 4.3-2.1 6.4-.3 5.4 3.9 7.5 7.7 7.5s8.2-2.1 7.9-7.5z" fill="#fff"/><path d="m120.6 203.1-.6-.1s.2-.6.4-1c.1-.3.3-.6.4-.9l-1.2-.6.3-.6 1.7.8-.1.3s-.3.7-.5 1.2c-.2.4-.4.9-.4.9z"/><path d="m119.6 207.8s-.1-.4-.1-1.3c0-.8.1-1.4.1-1.4l.6.1s-.1.6-.1 1.3c0 .8.1 1.1.1 1.1z"/><path d="m125.8 212.5c-.4 0-1.5-.1-2.8-.6-1.4-.6-2.4-1.9-2.4-2l.5-.4s.9 1.2 2.1 1.8c1.4.6 2.7.6 2.7.6v.6z"/><path d="m130.9 203.1.6-.2s-.2-.6-.4-1c-.1-.3-.3-.6-.4-.9l1.2-.6-.3-.6-1.7.8.1.3s.3.7.5 1.2.4 1 .4 1z"/><path d="m131.9 207.8-.6-.1s.1-.4.1-1.1-.1-1.3-.1-1.3l.6-.1s.1.6.1 1.4-.1 1.2-.1 1.2z"/><path d="m125.7 212.5h-.2v-.6s1.3.1 2.7-.6c1.2-.5 2.1-1.8 2.1-1.8l.5.4c0 .1-1 1.4-2.4 2-1.1.5-2.3.6-2.7.6z"/><path d="m180.3 122c-1.1-2.4-3.4-6.8-4.1-13.1v-.4c-.1-1-.4-1.8-1-2.4s-1.4-1-2.4-.9h-.1c-1.9 0-3.6-1.5-4.5-2.7s-1.5-3.1-1-4.6c1.1-2.8 1.5-5.3 1.1-7.7-.3-1.7-.9-3.3-1.9-4.8 3.9-1 6.7-2.6 8.5-4.5 1.9-2.1 2.5-4.5 2-7.2 0-.2-.2-.8-.2-.8-1.3-3.6-4.5-4.9-8.3-5.4-3.4-.4-7.6 0-11.5.8-1.9-2.2-4.3-2.7-6.7-3.1-2.3-.3-4.9-.7-5.5-3.5 0 0-.3-1.1 0-2.7-.8.6-1.8 2.3-1.8 2.3-1.3 2.4-1.4 4.7-1.1 6.4.4 1.8 1.2 3.3 2.5 4.4 1.3 1 2.9 1.7 4.8 1.8 2.2.1 4.7-.4 7.4-1.7l.9-.2c4.5-.7 12.7-1.8 14.2 2.4.6 1.7-.8 3.8-1.9 4.5s-2.7 1.1-4.3 1.1c-1 0-2 0-3.1-.2-2.4-.4-4.7-1.1-6.5-1.7-2.2-.7-3.4-1-5.2-1.2-5.2-.7-10-.5-15-.2-5.4.2-10.9.5-16.2-.6-.9-.4-1.9-.9-2.8-1.4-4.7-2.4-9.5-4.9-17 .3-4.7 1-9.1 3.4-13.2 7.7s-7.8 10.5-11 18.9c-.8 1.5-1.3 3-1.3 4.3 0 1.1.3 2.2 1 3.1-1.8 1.8-3.8 3.3-5.9 4.7l-3.9 2.7c3.3-.2 6.7-.2 9.9-1.3 1.4-.5 2.6-1.1 3.9-1.9.7.7 1.2 1.5 1.7 2.2.9 1.5 3.2 6 4.4 6.2 1.3.6 4.6-2 4.9-2.3-1.1 1.9-2.1 3.3-3.5 5-.7.7-1.5 1.8-1.9 2.5-.6 1.1-1.5 3.8-1.7 5.1.3-.1-.5.8 0 .8.1.5 1.5-1.3 1.7-.8 2.8-.2 7-2.1 7.5-.6 1.1-.6 1.5-3.1 1.4-4.9v-.1h.1c.4-.1.8-.4 1.1-.8s.5-.9.7-1.6c.4-1.2.6-1.7 1.1-2.8.5-.9 1.1-1.9 1.4-2.3.9.7 2.2.3 2.9 1.1.9.8.9 1.3 1.5 2.3 1.5 2.5 2.7 5.1 7 5.8 1.2.9 2.5 1.6 3.9 1.9 2.9.7 6.5-.3 6.5-.3l-5.5-9.1-2 1.2c.1-.7-.1-1.1-.7-1.6s-2.7-1.8-3.5-2.5c-.8-.6-1.7-1.7-2.4-2.5 0 0-1.1-1.1-1.6-1.4 1.3-2 5.4-2.3 6.4-2.4 4.7-.8 11.5-1 13.2-1.2 1.6-.2 3-.3 4.7-.1.3 0 .5.3.7.5.9 1.1 1.7 2 4.8.1 2.1-1 3.8-1.7 5.4-2 1.3-.2 2.5-.2 3.9 0 0 .9.2 1.7.7 2.6.6 1.2 1.5 2.4 2.8 3.6.3.3.5.5.5.9s0 .6-.3.9l-6.6 5.9-.3.3-.1.4c-.1.7-.8 1.3-1.6 2-1 1-2 2-2.6 3.5s-.4 1.8-.4 1.8l10 .4.4.1.8-3 1 1 .6-2.1c1.2-4.4 2.8-5.2 5.5-7 1.8-1.2 3.9-2.1 5.1-3.7l.3-.4c.8-1.2.6-2.7-.1-4l-.2-.3-.2-.2c3.1 1.8 6.1 2.1 7.8 2.2 1 0 1.9-.1 2.4.5 1.8 2.8 3 7.9 3.2 11.1-.7.6-1.5 1.8-2 2.6-1.4 2.6-1.7 4.8-1.7 4.8l9.5 1.3 1.6-2.7s-.6-3.1.1-2.6c.6.4.9.7.9.7l.6-1.1c1.3-3.1.4-4-.6-6.1zm-85.9-16.4c1.5-.5 2.2.5 2.2 1-1.1 2-2.1 4.1-3.1 6.2v.1c0-.3-.1-.6-.1-.9v-.7c.9-1.6 1.3-3.2 1.2-4.7-.1-.3-.1-.6-.2-1zm85.4 21.6-1.4-.3c-.7 0-.9 1.2-.4 2.9l-1.3 2.6-6.6-.9c.6-2.2 1.5-4.2 3.2-5.5 0 0 .7-.8.6-1.7.2-1.6-1.9-7.6-4.2-11.2-1.3-1.8-4.6 0-10.8-3-1.7-1-2.3-2.9-2.2-3.7-1.8.5-1.2 3.3.9 6 .7 1 .7 2.1.1 3.1-2.9 4.1-8.7 3.5-10.8 11.2l-1.5-1.5-.6 1.9-2.1 3.1 2-.8-7.3-.3c.7-2.5 3.7-3.4 4-5.6l6.6-6c1.1-1 1.1-2.1-.2-3.5-2.4-2.2-3.5-4.3-3-6.4-4.2-.9-6.8-.2-11.3 2-3.2 2-2.6-.5-4.6-.7-3.9-.5-5.8-.7-11.8-1.1-15.6-1.3-15.8 5.2-15.1 6.7.2.5 2.2.5 3.2 1.6 1.6 1.9 2.9 3.3 4.7 4.2 1.9 1.1 1.8 1.9.6 2.6 1.1.8 1.7.8 2.7.3l1.1-.7 3.7 6.5c-3.1.4-5.6-.2-7.9-1.9-5.9-.7-5.7-5.6-8.8-8.4-.9-1-1.8-2.4-3.6-.8-1.5 2.1-2.2 3.4-3.3 5.9-.3.7-.7 1.7-1.7 1.1-.2 2-.6 5.1-1.4 5.6l-6.2.4c-.1-1.8 2.1-3.4 2.6-5.7 4.5-5.7 6.8-11.7 10.3-18 .5-.9-.8-4-1.8-4.3-.6.3-2.8 1.6-3.3 2.3.7 2 .4 4-.8 6-.2 1.4.1 2.7.6 3.7l-1 1.5c-1.3-.4-.8-2.3-1.5-3.5-1.5 1 .6 3.6-.3 5.3-.4.7-1.3.8-2 1.1-.5 1.3-1.6.8-2.3 1.4-.7-.8-1.2-1.9-1.6-3.3-1.8-1.2-2.5-3.5-4.8-5.5-2.8 2-5.9 3.1-9.3 3.2 2.7-1.8 5.1-3.7 6.9-5.8-2.1-1.8-1.7-4.2-.3-6.9 6.3-16.6 14.5-24.1 23.5-25.9 8.7-6 13.5-1.2 19 1.1 10.4 2.2 20.4 3.4 30.4 5.2 2.2-.4 7.2-2.2 12.6-1.4 3.6.5 7.1.2 9.1-1.9 1.1-1.2 2.2-3.1 1.6-5.2-2.1-5.7-12.1-3.8-16.7-3.1-9.2 4.5-13.3-2.3-12.5-7.7 1.4 7.1 9.1 1.1 12.7 6.4 8.1-1.7 17.4-2.1 19.3 3.6 1.4 5-2.4 9.7-11.4 11.4 3.1 3.5 4 7.7 1.7 13-1.4 3.7 2.3 9 6.7 8.9 1.5-.1 2 1 2.2 2.6 2.5 12.5 6.8 13.8 5.1 17.8z" fill="#fff"/><path d="m70 114.8c2.7-1.8 5.1-3.7 6.9-5.8-2.1-1.8-1.7-4.2-.3-6.9 6.3-16.6 14.5-24.1 23.5-25.9 8.7-6 13.5-1.2 19 1.1 10.4 2.2 21.4-.9 31.5.9 3.2.3 6.2 1.9 11.6 2.9 3.6.5 7.1.2 9.1-1.9 1.1-1.2 2.2-3.1 1.6-5.2-2.1-5.7-12.1-3.8-16.7-3.1-9.2 4.5-14.8-.5-12.5-8.8 1.4 7.1 9.1 2.2 12.7 7.5 8.1-1.7 17.4-2.1 19.3 3.6 1.4 5-2.4 9.7-11.4 11.4 3.1 3.5 4 7.7 1.7 13-1.4 3.7 2.3 9 6.7 8.9 1.5-.1 2 1 2.2 2.6 2.3 11.9 6.5 14.1 5.7 17.5-.1.3-.4 1.2-.4 1.2-.5-.5-1.3-.6-1.3-.6-.7-.2-.9 2.1-.7 3.8l-1.3 2.2-7-1c.5-1.8 1.6-4.6 3.4-6.3 0 0-.1-1.1-.1-2.1-.1-2.2-1.1-7-3.5-10.6-1.3-1.8-4.6 0-10.8-3-1.7-1-2.1-1.9-2.7-3.3-.7.5-.7 2.9 1.4 5.5.7 1 .7 2.1.1 3.1-2.9 4.1-8.7 3.5-10.8 11.2l-1.2-1.1-1.2 4-7.3-.4c.7-2.5 3.7-3.5 4-5.8l6.6-6c1.1-1 1.1-2.1-.2-3.5-2.4-2.2-3.5-4.3-3-6.4-4.2-.9-6.8-.2-11.3 2-3.2 2-2.6-.5-4.6-.7-4.5-.3-17.5 1.1-20.9 1.7-2.8.6-4.9 2.2-5.2 3.6.5.3 1.4.8 2.4 1.9 1.6 1.9 2.9 3.3 4.7 4.2 1.9 1.1 1.8 1.9.6 2.6 1.1.8 1.7.8 2.7.3l1.1-.7 3.7 6.5c-3.1.4-5.6-.2-7.9-1.9-5.9-.7-5.6-5.2-8.7-8-.9-.8-2 0-3.5-1.4-1.5 2.1-2.4 3.7-3.5 6.2-.3.7-.7 1.7-1.7 1.1-.2 2-.5 5.3-1.3 5.9l-6.8.7c.3-1.5 1.2-4.4 3.1-6.2 4.5-5.7 6.8-11.7 10.3-18 .3-.7-.6-2-1.5-2.4s-3-.3-3.5.4c.7 2 .4 4-.8 6-.2 1.4.1 2.7.6 3.7l-1 1.5c-1.3-.4-.8-2.3-1.5-3.5-1.5 1 .6 3.6-.3 5.3-.4.7-4 3.3-4.8 2.3-1.9-1.9-3.7-6.6-6-8.6-2.6 1.5-5.6 2.6-9 2.8z"/><path d="m77.9 108c-1.9-2.8 3.3-4 2.8-.3-.8 2.6-2.9 4.4-7.7 5.9 3.8-2.6 6.3-4.9 5.9-6.4-.2-.9-1.4-.3-1 .8z" fill="#fff"/><path d="m92.7 104.4c-1.2-5.1-2.7-5.3-6.1-7.1 2.4.2 3.7.4 4.8 1.6.7.9 1.9 2.4 1.3 5.5z" fill="#fff"/><path d="m97.6 87c.1-2.7.3-6.7 2-9.1-8.1 2.1-12.2 7-15.7 12.5 4.3-5.3 9.4-8.9 13.1-9.8-1.1 2.3.3 4.3.6 6.4z" fill="#fff"/><path d="m88.5 39.4 3.9 4-2 5.3c2 0 4.6-.3 7.1-.8.5-.1.9-.2 1.3-.3.9-.2 1.7-.4 2.4-.7h.1l2-.3 2.5-2 2.5.7c1.6-1.9 2.7-2.8 5.1-3.7 2.5-.9 5.1-1.2 7.8-.8l-.5-1.5 1.2.1c.4 0 .8.1 1.2.1l-2.8-7.7c-.5-.1-1.1-.1-1.8-.1-2 0-5.1.3-7.9 1.2-2.3.7-4.7 2.4-6.5 4.6l-.5.7-.6-.6c-.6-.6-1.4-1-2.1-1.2h-.8l-.4-.2-2.1 1.1c-.9.3-1.8.6-2.7.8-.4.1-.8.2-1.3.3-2 .7-3.8.9-5.1 1zm1.8 11h-1.1l-1.1-.1 2.4-6.5-5.7-5.9h1.9s2.9 0 6.6-.8l1.2-.3c.9-.2 1.7-.5 2.5-.8l2.6-1.4.8.4c.3 0 .5 0 .8.1.8.2 1.5.5 2.2 1 1.9-2.1 4.4-3.8 6.7-4.5 3-1 6.3-1.3 8.4-1.3.9 0 1.7.1 2.3.2l.7.1 4.1 11.2-2.2-.4c-.1 0-.2 0-.3-.1l.6 1.8-2.2-.4c-2.5-.5-5.1-.3-7.4.6-2.3.8-3.1 1.6-4.8 3.6l-.3.4-2.7-.8-2.2 1.8-2.4.3c-.7.2-1.6.5-2.5.7-.5.1-.9.2-1.4.3-2.6.5-5.4.8-7.5.8z" fill="#fff"/><path d="m110.7 49c-.3.1-.5.2-.7.3.2-.1.5-.2.7-.3z" fill="#fff"/><path d="m103.6 39.4c.1.2.2.4.4.6-.1-.2-.3-.4-.4-.6z"/><path d="m110 33.4c-.8.3-1.5.7-2.1 1-.7.4-1.2.7-1.6 1l2.3 1zm2.8 8.5-2.6-.9-1.4 2.9c.2.1.4.1.6.1h.1c.3 0 .6-.1.8-.2h.1c.2-.1.3-.1.5-.2h.1c-.1-.6 1-1 1.6-1.3.2-.1.3 0 .5-.1h.1zm-2.8-8.5 3.1 1.4 1.5-3.1c-1 .3-2 .7-3 1-.4.2-.8.3-1.2.5 0 .1-.2.1-.4.2zm5.3 2.3-2.2-.9-1.5 3.1 3.1 1.4.9-1.9-.8-.4zm-2.1 6.3c.1-.1.3-.1.4-.2.2-.1.3-.2.5-.2.3-.2.7-.1 1-.2.4-.2.9-.1 1.2-.2.4-.2 1.2-.2 1.5-.3l-3-1.7zm-1.5-4.1-3.1-1.4-1.5 3.1 3.1 1.4zm-2 5.6-2.5-6.9-.2-.9c1.6-1.9 3.9-2.6 6.2-3.5s4.7-1.1 7-.6h.2l2.8 8.9-.7-.1c4.1.8-7.2 1.1-6.6.9 2.1-.8-4 1.1-5.8 2.3z" fill="#fff"/><path d="m104.5 37.8 2.9 8c1.7-1.9 3.8-3.3 6.2-4.2s4.9-1.2 7.5-.8l-2.9-8c-2.5-.4-5.1-.2-7.5.7s-4.6 2.4-6.2 4.3zm2.6 9.9-3.7-10.1.2-.2c1.8-2.2 4.1-3.9 6.7-4.8 2.7-1 5.5-1.2 8.3-.7l.3.1 3.7 10.1-.8-.2c-2.6-.5-5.3-.3-7.8.6s-4.7 2.5-6.3 4.5z"/><path d="m99.7 42.6c-1.3-2.3-1.3-4.1 0-4.9 1-.6 2.8-.1 4.2 2.3s.9 4.2-.1 4.8c-1.4.8-2.8 0-4.1-2.2zm17.8 8.9c.2-.6 0-1-.1-1.3-.3-.6-1-.9-1.9-.9h-.3l-5-8v-.1c-.5-2.4-2.2-6-3.5-8.6-.3-.5-.5-1.1-.8-1.6-1.5-3.1-3-5.9-4-9-.1-.2 0-.6.1-1.2.2-.7.3-1.5 0-2.2v-.1c-1-1.7-3.8-1.6-7.1.2-2.8 1.5-5.6 4.1-4.4 6.5v.1c.6 1 1.5 1.3 2.2 1.5.2.1.4.1.6.2h.1l.8.9c1.5 1.7 2.8 3.1 4 4.5l.4.4-.6.3c-3.5 2-4.1 6.5-1.4 11.1s6.8 6.3 10.4 4.3c.5-.3 1-.6 1.4-1l.5-.4.3.5c.9 1.6 1.5 2.8 2 3.7l.1.3-.2.2c-.5.8-.6 1.5-.2 2.1.7 1.1 2.5 1.2 4.4 0 1.1-.5 2-1.5 2.2-2.4z" fill="#fff"/><path d="m104 47.4-2.9.4-5.4-8.7 1.5-2.1 2.7-1.5 5.8 2.8 1.4 6.6z"/><path d="m114.5 51.9c-.4.3-.7.4-.7.4-.1-.4-.1-.8 0-1-.4-.8-3.4-6.3-3.4-6.3s-.1-.1 0-.2h.1l3.8 6.1c.2 0 .6.1.9.3-.1.1-.3.4-.7.7zm-5.9-9.1s-.2-1.6-1.4-3.9c0 0-8.1-14.6-8.9-16.1s.5-2.2-1.8-2.6c1.1-.6 2.8-1.1 3.5-.9.4.1-.1.9-.2 1.3-.3.7-.3 1.3.2 2.4 0 .1.1.2.1.3 2.5 5.6 5.7 11.2 7.6 15.2.8 2 1.1 3.4.9 4.3zm-4.3 2.8c-1.6.9-3.6.6-5.4-2.5-1.8-3.2-1.2-5.3.4-6.2s3.9-.1 5.5 2.7c1.6 2.7 1.1 5.1-.5 6zm12.2 5.1c-.2-.4-.9-.5-1.8-.3l-5.5-8.7c-.3-2.3-2.2-6-3.5-8.7-1.8-3.6-3.6-7-4.8-10.8-.3-1.1.6-2.4.1-3.2-1.5-2.8-11.5 2.5-9.9 5.7.6 1.1 2 .9 2.7 1.5 2.6 2.9 8.6 10.1 8.6 10.1l-3.3-2.8c-.3.1-.5.2-.9.4-3.1 1.8-3.4 5.7-1.1 9.8 2.4 4.1 5.9 5.7 9 4 2.2-1.3 2.9-3.2 2.9-3.2.3.6 0 1.6 0 1.6.9 1.7 2.4 4.3 3.1 5.6-.7.6-1 1.3-.7 1.7.4.6 1.8.5 3.1-.3 1.6-.6 2.4-1.8 2-2.4z"/><path d="m103.9 45.5c0-.1.1-.1 0 0 1-.8 1.6-2.4.6-4.9-.8-2.3-2.2-3.4-3.4-3.6h-.1c-.3-.1-.6-.1-.9 0h-.1c-.2.1-.4.2-.6.3h-.1c-.6.3-1.3.5-1.9.7-.9.3-1.7.5-2.5.7-.4.1-.8.2-1.2.3-1.4.3-2.7.5-3.7.6l2.4 4.3-.9 4.5c1.7-.1 3.7-.3 5.5-.6.4-.1.9-.2 1.3-.3 1-.2 2-.5 2.9-.7 1.3-.5 2.3-.9 2.7-1.3z" fill="#fff"/><path d="m100.4 39-2 3.3 3.7 1.9 2-3.3z" fill="#005f36"/><path d="m96.8 37.4c-.2.1-.3.1-.5.2s-.4.1-.6.2c-.4.1-.8.3-1.1.4-.4.1-.9.3-1.3.4-.5.1-.9.2-1.4.4l2.7 1.4z" fill="#005f36"/><path d="m92.5 43.9 3.6 1.7 2.3-3.3-3.7-2z" fill="#005f36"/><path d="m99.4 47.6-3.3-2-1.8 3.1c1.2-.2 2.5-.5 3.7-.8.5-.1 1-.2 1.4-.3.2-.1.4-.1.6-.2z" fill="#005f36"/><path d="m96.8 37.4 3.6 1.6 1.7-2.5c-.3-.1-.2-.1-.5-.2 0 0-.8.5-.6 0 .1-.4-.2-.3-.6-.4h-.2c-.3.1-.4 0-.6.2h-.1c-.7.3-1.4.7-2.2.9 0 .3-.2.4-.5.4z" fill="#005f36"/><path d="m100 47.4c1-.3 1.8-.6 2.6-.8.8-.3 1.5-.6 2.1-.9l-2.7-1.4z" fill="#005f36"/><path d="m105.5 41.7c0-.4 0-.3-.1-.8h-.2c-.1-.2 0-.3-.1-.5 0 0-.2-.3-.2-.4l-.1-.2c-.1-.3-.2-.1-.3-.3l-.6 1.5z" fill="#005f36"/><path d="m104 45.4c-.2.3-.5.4-.9.6-.5.2-1.1.5-1.8.7s-1.5.4-2.3.6c-.2 0-.4.1-.5.1-.4.1-.8.2-1.3.3-1.1.2-2.2.3-3.2.5-.8.1-1.6.1-2.3.2l1.8-4.9-3.3-3.9c.7-.1 1.6-.2 2.5-.4.4-.1.8-.1 1.2-.2s.8-.2 1.2-.3c.3-.1.6-.2 1-.3.2 0 .4-.1.5-.1s.3-.1.4-.1c.2-.1.4-.1.6-.2.6-.2 1.3-.4 1.9-.7h.1c.6-.3 1.3-.4 1.6-.3h.1c.2 0 .4.1.6.2.9.4 1.8 1.2 2.5 2.7.1.2.2.4.3.7.1.2.2.5.2.7v.1c.1.2.1.4.1.6v.1c.1.4.1.8.1 1.2-.1.9-.5 1.7-1.1 2.1zm1.7-5.1c0-.1 0-.1 0 0-1-2.6-2.8-4.1-4.4-4.4-.5-.1-1.1-.1-1.6.1-.3.1-.5.2-.8.4-1.3.5-2.6 1-3.9 1.3-.4.1-.8.2-1.2.3-3.7.8-6.6.8-6.6.8l4.7 5-2.2 5.7c2.2.1 5.4-.2 8.3-.8.5-.1.9-.2 1.4-.3 2.5-.6 4.7-1.4 5.4-2.2 1-1 1.9-3.1.9-5.9z"/><path d="m148.2 46.7 2.2.3c.7.2 1.5.5 2.4.7.4.1.9.2 1.3.3 2.5.5 5.1.8 7.1.8l-2-5.3 3.9-4c-1.2-.1-3.1-.3-5.1-.8-.4-.1-.8-.2-1.3-.3-.9-.2-1.8-.5-2.7-.8h-.1l-2-1.1-.4.2h-.8c-.7.1-1.4.6-2 1.2l-.6.6-.5-.7c-1.8-2.2-4.2-3.9-6.5-4.6-2.9-.9-6-1.2-7.9-1.2-.7 0-1.3 0-1.8.1l-2.8 7.7c.4-.1.8-.1 1.2-.1l1.2-.1-.6 1.5c2.6-.4 5.3-.1 7.8.8 2.4.9 3.5 1.7 5.1 3.7l2.5-.7zm13.1 3.7c-2.1 0-4.9-.3-7.5-.8-.5-.1-.9-.2-1.4-.3-.9-.2-1.7-.4-2.5-.7l-2.4-.3-2.2-1.8-2.7.8-.3-.4c-1.6-2-2.5-2.8-4.8-3.6-2.4-.9-4.9-1.1-7.4-.6l-2.2.4.7-1.8c-.1 0-.2 0-.3.1l-2.2.4 4.1-11.2.7-.1c.6-.1 1.4-.2 2.3-.2 2.1 0 5.4.3 8.4 1.3 2.4.7 4.8 2.4 6.7 4.5.7-.5 1.4-.9 2.2-1 .3 0 .5-.1.8-.1l.8-.4 2.6 1.4c.8.3 1.7.6 2.5.8l1.2.3c3.6.8 6.5.8 6.6.8h1.9l-5.7 5.9 2.4 6.5-1.1.1z" fill="#fff"/><path d="m140.9 49c.3.1.5.2.7.3-.2-.1-.4-.2-.7-.3z" fill="#fff"/><path d="m148 39.4c-.1.2-.2.4-.4.6.2-.2.3-.4.4-.6z"/><path d="m143.1 36.5 2.3-1c-.4-.3-1-.7-1.6-1s-1.3-.7-2.1-1zm-4.6 5.5h.1c.2.1.3 0 .5.1.6.3 1.7.7 1.6 1.3h.1c.2.1.3.1.5.2h.1c.2.1.5.2.8.2h.1c.2 0 .4 0 .6-.1l-1.4-2.9-2.6.9zm3.1-8.6c-.2-.1-.3-.1-.5-.2-.4-.2-.8-.3-1.2-.5-1-.4-2-.7-3-1l1.5 3.1zm-4.9 3.5-.8.4.9 1.9 3.1-1.4-1.5-3.1-2.2.9zm.1 2.3-3 1.7c.4.1 1.1.2 1.5.3.3.1.9 0 1.2.2.2.1.6 0 1 .2.2.1.3.2.5.2.1.1.3.1.4.2zm4.6 1.8 3.1-1.4-1.5-3.1-3.1 1.4zm.1 2.5c-1.8-1.2-7.9-3.1-5.8-2.3.5.2-10.8-.1-6.6-.9l-.7.1 2.8-8.9h.2c2.3-.5 4.7-.3 7 .6 2.3.8 4.6 1.6 6.2 3.5l-.2.9-2.5 6.9z" fill="#fff"/><path d="m147.4 40.5c0 .1-.1.1 0 0-.1.1 0 .1 0 0z"/><path d="m141 33.5c-2.4-.9-5-1.1-7.5-.7l-2.9 8c2.5-.3 5.1-.1 7.5.8s4.5 2.3 6.2 4.2l2.9-8c-1.7-1.9-3.8-3.4-6.2-4.3zm3 13.5c-1.7-2.1-3.8-3.6-6.3-4.5s-5.2-1.1-7.8-.6l-.9.1 3.7-10.1.3-.1c2.8-.5 5.6-.3 8.3.7 2.6 1 5 2.6 6.7 4.8l.2.2-3.7 10.1z"/><path d="m147.8 44.7c-1-.6-1.5-2.3-.1-4.8 1.4-2.4 3.2-2.9 4.2-2.3 1.4.8 1.4 2.6 0 4.9-1.3 2.3-2.7 3.1-4.1 2.2zm-11.3 9.4c2 1.1 3.8 1.1 4.4 0 .3-.6.3-1.3-.2-2.1l-.2-.2.1-.3c.5-.9 1.2-2.1 2-3.7l.3-.5.5.4c.4.4.9.7 1.4 1 3.5 2 7.7.3 10.4-4.3s2.1-9.1-1.4-11.1l-.6-.3.4-.4c1.2-1.4 2.4-2.8 4-4.5l.8-.9h.1c.2-.1.4-.1.6-.2.7-.2 1.7-.5 2.2-1.5v-.1c1.2-2.4-1.6-5-4.4-6.5-3.4-1.8-6.2-1.9-7.1-.2l-.1.1c-.4.7-.2 1.5 0 2.2.1.6.2.9.1 1.2-1 3.1-2.5 6-4 9-.3.5-.5 1.1-.8 1.6-1.3 2.6-3.1 6.2-3.5 8.6v.1l-5 8h-.3c-.9 0-1.5.3-1.9.9-.2.3-.3.7-.1 1.3.2.7 1.1 1.7 2.3 2.4z" fill="#fff"/><path d="m147.6 47.4 3 .4 5.3-8.7-1.4-2.1-2.8-1.5-5.8 2.8-1.4 6.6z"/><path d="m136.5 51.3c.2-.2.7-.3.9-.3l3.8-6.1s0-.1.1 0c.1 0 0 .2 0 .2s-3 5.5-3.4 6.3c0 .2.1.5 0 1 0 0-.3-.1-.7-.4-.5-.4-.7-.7-.7-.7zm7.5-12.8c1.9-4 5.1-9.6 7.6-15.2 0-.1.1-.2.1-.3.5-1.1.5-1.7.2-2.4-.2-.4-.7-1.2-.2-1.3.7-.2 2.4.3 3.5.9-2.3.4-1 1.1-1.8 2.6s-8.9 16.1-8.9 16.1c-1.2 2.3-1.4 3.9-1.4 3.9-.3-.9 0-2.3.9-4.3zm2.8 1c1.6-2.8 3.9-3.6 5.5-2.7s2.2 3 .4 6.2-3.8 3.5-5.4 2.5c-1.6-.8-2.1-3.2-.5-6zm-9.9 13.8c1.4.8 2.8.9 3.1.3.2-.4-.1-1.1-.7-1.7.7-1.3 2.1-3.9 3.1-5.6 0 0-.3-1 0-1.6 0 0 .7 1.9 2.9 3.2 3.1 1.8 6.7.1 9-4 2.4-4.1 2-8-1.1-9.8-.4-.2-.5-.3-.9-.4l-3.3 2.8s6-7.2 8.6-10.1c.8-.6 2.1-.4 2.7-1.5 1.6-3.2-8.4-8.5-9.9-5.7-.4.8.5 2.1.1 3.2-1.2 3.8-3.1 7.2-4.8 10.8-1.3 2.6-3.2 6.4-3.5 8.7l-5.5 8.7c-.8-.2-1.5-.1-1.8.3-.2.4.7 1.6 2 2.4z"/><path d="m147.7 45.5c0-.1 0-.1 0 0-1-.8-1.6-2.4-.6-4.9.8-2.3 2.2-3.4 3.4-3.6h.1c.3-.1.6-.1.9 0h.1c.2.1.4.2.6.3h.1c.6.3 1.3.5 1.9.7.9.3 1.7.5 2.5.7l1.2.3c1.4.3 2.7.5 3.7.6l-2.4 4.3.9 4.5c-1.7-.1-3.7-.3-5.5-.6-.4-.1-.9-.2-1.3-.3-1-.2-2-.5-2.9-.7-1.3-.5-2.3-.9-2.7-1.3z" fill="#fff"/><path d="m151.2 39 2 3.3-3.6 1.9-2.1-3.3z" fill="#005f36"/><path d="m154.8 37.4c.2.1.3.1.5.2s.4.1.6.2c.4.1.8.3 1.1.4.4.1.9.3 1.3.4.5.1.9.2 1.4.4l-2.7 1.4z" fill="#005f36"/><path d="m159.1 43.9-3.6 1.7-2.3-3.3 3.7-2z" fill="#005f36"/><path d="m152.2 47.6 3.3-2 1.8 3.1c-1.2-.2-2.5-.5-3.7-.8-.5-.1-.9-.2-1.4-.3-.2-.1-.4-.1-.6-.2z" fill="#005f36"/><path d="m154.8 37.4-3.6 1.6-1.7-2.5c.3-.1.2-.1.5-.2 0 0 .8.5.6 0-.1-.4.2-.3.6-.4h.2c.3.1.4 0 .6.2h.1c.7.3 1.4.7 2.2.9 0 .3.3.4.5.4z" fill="#005f36"/><path d="m151.6 47.4c-1-.3-1.8-.6-2.6-.8-.8-.3-1.5-.6-2.1-.9l2.7-1.4z" fill="#005f36"/><path d="m146.1 41.7c0-.4 0-.3.1-.8h.2c.1-.2 0-.3.1-.5 0 0 .2-.3.2-.4l.1-.2c.1-.3.2-.1.3-.3l.6 1.5z" fill="#005f36"/><path d="m146.6 43.2c0-.4 0-.7.1-1.2v-.1c0-.2.1-.4.1-.6v-.1c.1-.2.1-.4.2-.7.1-.2.2-.5.3-.7.7-1.5 1.6-2.3 2.5-2.7.2-.1.4-.2.6-.2h.1c.3-.1 1 .1 1.6.3h.1c.6.3 1.3.5 1.9.7.2.1.4.1.6.2.1 0 .3.1.4.1.2 0 .3.1.5.1.3.1.6.2 1 .3s.8.2 1.2.3.8.2 1.2.2c.9.2 1.8.3 2.5.4l-3.3 3.9 1.8 4.9c-.7 0-1.5-.1-2.3-.2-1.1-.1-2.2-.3-3.2-.5-.4-.1-.9-.2-1.3-.3-.2 0-.4-.1-.5-.1-.8-.2-1.6-.4-2.3-.6s-1.4-.5-1.8-.7-.7-.4-.8-.6l-.1-.1c-.6-.2-1-1-1.1-2zm.2 3c.8.8 2.9 1.6 5.4 2.2.4.1.9.2 1.4.3 2.9.6 6.1.9 8.3.8l-2.2-5.7 4.7-5s-2.9 0-6.6-.8c-.4-.1-.8-.2-1.2-.3-1.3-.3-2.6-.7-3.9-1.3-.3-.1-.5-.2-.8-.4-.5-.1-1.1-.2-1.6-.1-1.6.3-3.4 1.8-4.3 4.3v.1c-1 2.8-.2 4.9.8 5.9z"/><path d="m137.9 28.7c2.2 6.7-1.5 13.9-8.2 16.1s-13.9-1.5-16.1-8.2 1.5-13.9 8.2-16.1 13.9 1.5 16.1 8.2z" fill="#fff"/><path d="m136.8 29.1c-2-6.1-8.5-9.4-14.6-7.4s-9.4 8.5-7.4 14.6 8.5 9.4 14.6 7.4c6-2 9.4-8.6 7.4-14.6z"/><circle cx="125.8" cy="32.7" fill="#fff" r="10.4" transform="matrix(.9511 -.309 .309 .9511 -3.934 40.4645)"/><path d="m130 22.1c-2.6-1.1-5.6-1.2-8.3 0l4.2 2.7z"/><path d="m121.6 31.3 1.6 4.9h5.2l1.6-4.9-4.2-3z"/><path d="m137.1 33.4c.3-2.8-.6-5.7-2.6-7.9l-1.3 4.8z"/><path d="m128.6 43.6c2.8-.6 5.2-2.4 6.7-4.9l-5 .3z"/><path d="m129.9 31.3-4.1-3.1-4.2 3.1 1.6 4.9h5.2z"/><path d="m116.2 38.7c1.4 2.5 3.9 4.3 6.7 4.9l-1.8-4.6z"/><path d="m114.5 33.4c-.3-2.8.6-5.7 2.6-7.9l1.3 4.8z"/><path d="m125.6 23.6h.5v5.9h-.5z"/><path d="m128.7 30.5h5.9v.5h-5.9z" transform="matrix(.9511 -.3088 .3088 .9511 -3.0763 42.1427)"/><path d="m129.1 34.6h.5v5.9h-.5z" transform="matrix(.8071 -.5904 .5904 .8071 2.7648 83.6327)"/><path d="m119.3 37.3h5.9v.5h-5.9z" transform="matrix(.588 -.8088 .8088 .588 19.9362 114.318)"/><path d="m122.8 31.5-.1.4-5.6-1.8.1-.4z"/><circle cx="125.8" cy="32.7" fill="#fff" r="10.4" transform="matrix(.7231 -.6907 .6907 .7231 12.2718 95.9322)"/><path d="m118.7 25.3c-4.1 3.9-4.2 10.4-.3 14.5s10.4 4.2 14.5.3 4.2-10.4.3-14.5-10.4-4.2-14.5-.3zm14.4 15c-4.2 4-10.9 3.9-15-.3-4-4.2-3.9-10.9.3-15 4.2-4 10.9-3.9 15 .3 4.1 4.3 3.9 11-.3 15z"/><path d="m117.4 26.6h.4v1h-.4z" transform="matrix(.1612 -.9869 .9869 .1612 71.8829 138.696)"/><path d="m117.2 27.1.7.1v-.1l-.7-.1zm.9.4-1.2-.2.1-.6 1.2.2z"/><path d="m126.8 36.8 3.1-3-1-4.1-4.1-1.3-3.1 3 1 4.2zm3.5-2.9-3.4 3.3-4.5-1.3-1.1-4.6 3.4-3.2 4.5 1.4z"/><path d="m122.8 35.5 3.9 1.1 3-2.9-1-3.9-4-1.2-3 2.9zm4 1.4-4.2-1.2-1-4.3 3.2-3.1 4.2 1.3 1 4.2zm-4.3-1.1 4.3 1.2 3.3-3.2-1.1-4.3-4.4-1.3-3.3 3.1zm4.4 1.5-4.6-1.3-1.1-4.8 3.5-3.3 4.6 1.4 1.1 4.6z"/><path d="m118.3 30.6 3.1.6 1.5-1.5 1.2-1.1.4-.4-.5-3.1c-.4-.1-2-.6-3.3-.3-.4.2-.9.5-1.3.9l-.2.2c-.4.4-.7.8-1 1.2-.4 1.5 0 3 .1 3.5zm6.6-2.3-.6.5-1.2 1.1-1.7 1.6-3.5-.7v-.1c0-.1-.6-2-.2-3.7.3-.5.6-.9 1.1-1.3l.2-.2c.4-.4.9-.8 1.4-1 1.7-.4 3.6.3 3.7.3h.1z"/><path d="m118.4 30.5 3 .6 3-2.9-.5-3c-.3-.1-1.3-.4-2.2-.4-.3 0-.7 0-1 .1-.4.2-.8.5-1.2.9l-.1.1c-.1 0-.1.1-.1.1-.4.4-.7.8-1 1.2-.3 1.3 0 2.7.1 3.3zm3.1.8-3.2-.6v-.1c-.1-.5-.5-2-.1-3.4.3-.4.6-.9 1-1.3l.2-.2c.4-.4.8-.7 1.3-.9.3-.1.7-.1 1-.1 1.1 0 2.1.3 2.4.4h.1l.5 3.2-.5.4zm-3.4-.5 3.4.7 2.8-2.7.5-.5-.5-3.4s-1.2-.4-2.5-.4c-.4 0-.8 0-1.1.1-.5.2-.9.6-1.4 1l-.2.2c-.4.4-.8.8-1 1.3-.6 1.7 0 3.6 0 3.7zm3.5.9-3.6-.7-.1-.2c0-.1-.6-2-.2-3.8.3-.5.6-.9 1.1-1.4l.2-.2c.4-.4.9-.8 1.4-1 .4-.1.8-.1 1.2-.1 1.3 0 2.6.4 2.6.5l.2.1.6 3.6-.6.6z"/><path d="m129 29.6-4.3-1.3s-.4-1.7-.5-3.3c2-.9 4.2-.9 4.2-.9s1.4.9 2.9 3c-.6.6-2.3 2.5-2.3 2.5z"/><path d="m124.8 28.2 4.2 1.3c.3-.3 1.6-1.7 2.2-2.4-1.3-1.8-2.6-2.7-2.8-2.9-.3 0-2.3.1-4.1.9.1 1.3.5 2.8.5 3.1zm4.3 1.5-4.5-1.3v-.1s-.4-1.7-.5-3.3v-.1h.1c2-.9 4.3-1 4.3-1 .1 0 1.4 1 2.9 3l.1.1-.1.1c-.6.7-2.3 2.6-2.3 2.6z"/><path d="m124.9 28.1 4.1 1.2c.3-.3 1.5-1.7 2.1-2.4-1.3-1.7-2.5-2.6-2.7-2.8-.4 0-2.3.1-4 .9.1 1.4.4 2.8.5 3.1zm4.2 1.7-4.5-1.4v-.1s-.4-1.7-.5-3.3v-.1l.1-.1c2-.9 4.2-1 4.3-1h.1c.1 0 1.4 1 2.9 3l.1.1-.1.1c-.7.9-2.3 2.7-2.4 2.8z"/><path d="m125 28 4 1.2c.4-.4 1.4-1.6 2-2.2-1.2-1.6-2.3-2.5-2.6-2.7-.4 0-2.2.1-3.8.8 0 1.3.3 2.5.4 2.9zm4 1.5-4.2-1.3v-.1c-.1-.4-.4-1.7-.5-3.1v-.1h.1c1.7-.8 3.7-.9 4-.9.2.2 1.4 1.1 2.7 2.8l.1.1-.1.1c-.6.6-1.7 1.9-2.1 2.3zm-4.3-1.2 4.4 1.3c.1-.1 1.7-1.9 2.3-2.5-1.5-2.1-2.8-3-2.9-3s-2.3 0-4.3 1c0 1.4.4 3 .5 3.2zm4.4 1.6-4.7-1.4v-.2c0-.2-.4-1.8-.5-3.4v-.2l.2-.1c2-.9 4.3-1 4.4-1h.1l.1.1c.1 0 1.4 1 3 3.1l.1.2-.2.2c-.6.7-2.2 2.4-2.3 2.5z"/><path d="m127.9 23.2h1.4v.4h-1.4z" transform="matrix(.2868 -.958 .958 .2868 69.3602 139.892)"/><path d="m128.4 23.9h.1l.3-1.1h-.1zm.3.3-.6-.2.5-1.6.6.2z"/><path d="m120.4 23.7h.4v1h-.4z" transform="matrix(.9935 -.1138 .1138 .9935 -1.9659 13.8757)"/><path d="m120.5 23.8.1.7h.1l-.1-.7zm-.2 1-.1-1.2.6-.1.1 1.2z"/><path d="m134.2 28.1h1v.4h-1z" transform="matrix(.6328 -.7743 .7743 .6328 27.5843 114.703)"/><path d="m134.5 28.5.5-.5-.1-.1zm.1.4-.5-.4.8-.9.5.4z"/><path d="m126.8 36.8 3.1-3-1-4.1-4.1-1.3-3.1 3 1 4.2zm3.5-2.9-3.4 3.3-4.5-1.3-1.1-4.6 3.4-3.2 4.5 1.4z"/><path d="m122.8 35.5 3.9 1.1 3-2.9-1-4-4-1.2-3 2.9zm4 1.4-4.2-1.2-1-4.3 3.2-3.1 4.2 1.3 1.1 4.2zm-4.3-1.1 4.3 1.2 3.3-3.2-1.1-4.4-4.4-1.3-3.3 3.1zm4.4 1.5-4.6-1.3-1.1-4.8 3.5-3.3 4.6 1.4 1.2 4.6z"/><path d="m133.2 34.9s.1-.1.2-.2c.4-.4 1.4-1.4 1.8-2.6 0-.5 0-1.1-.2-1.7-.1-.6-.3-1.2-.6-1.6-1-1-2.5-1.4-2.9-1.5l-2.2 2.4.1.6.9 3.5zm.4.1c-.2.2-.3.2-.3.2l-.1.1-3.3-1.3-.9-3.7-.2-.7 2.4-2.7h.1c.1 0 2 .4 3.2 1.7.3.5.5 1.1.7 1.7s.3 1.3.2 1.9c-.3 1.2-1.3 2.3-1.8 2.8z"/><path d="m130.3 33.6 2.8 1.1.1-.1c.4-.4 1.4-1.4 1.7-2.5 0-.5-.1-1.1-.2-1.7s-.3-1.1-.6-1.6c-.9-.9-2.3-1.3-2.7-1.5l-2.1 2.3.1.5zm2.9 1.4-3.1-1.2-1-4.2 2.2-2.5h.1c.4.1 1.9.6 2.9 1.6.3.5.5 1 .6 1.7.2.6.2 1.2.2 1.8-.4 1.2-1.4 2.3-1.8 2.6.1.1 0 .1-.1.2zm-3.2-1.1 3.2 1.3s.1-.1.3-.2c.5-.5 1.5-1.5 1.8-2.7 0-.6 0-1.2-.2-1.8-.1-.6-.4-1.2-.6-1.7-1.2-1.2-3-1.6-3.1-1.6l-2.3 2.6.2.7zm3.3 1.5-3.4-1.4-1.1-4.6 2.5-2.8h.2c.1 0 2 .4 3.2 1.7.3.5.5 1.1.7 1.8.2.6.3 1.3.2 1.9v.1c-.4 1.3-1.4 2.3-1.9 2.8-.2.2-.3.2-.3.2z"/><path d="m126.8 37 3.3-3.1s1.6.5 3.1 1.2c-.2 2.2-1.2 4.1-1.2 4.1s-1.7.8-4.3 1.1c-.3-1-.9-3.3-.9-3.3z"/><path d="m126.9 37c.1.4.6 2.2.9 3.1 2.3-.3 3.8-.9 4.1-1.1.1-.3 1-2 1.2-3.9-1.3-.6-2.6-1.1-3-1.2zm.8 3.4c-.3-1-1-3.3-1-3.4v-.1l3.4-3.2h.1s1.7.5 3.1 1.2h.1v.1c-.2 2.2-1.2 4.1-1.2 4.1-.2.2-1.9 1-4.5 1.3z"/><path d="m127.9 40.1c2.2-.3 3.7-.9 4-1 .2-.3 1-2 1.2-3.8-1.2-.6-2.5-1-2.9-1.1l-3.1 3c0 .3.5 2 .8 2.9zm4.2-.8c-.1.1-1.8.9-4.4 1.1h-.1v-.1c-.3-.9-.9-3.3-.9-3.3v-.1l3.4-3.3h.1s1.7.5 3.1 1.3l.1.1v.1c-.2 2.2-1.2 4.1-1.3 4.2z"/><path d="m127.1 37.1c.1.5.6 2 .8 2.8 2-.3 3.5-.8 3.8-1 .2-.4.9-1.9 1.1-3.7-1.1-.5-2.3-.9-2.7-1.1zm.7 3.1c-.3-.9-.8-2.6-.9-3.1v-.1l3.2-3.1h.1c.4.1 1.7.6 2.9 1.2h.1v.1c-.2 1.9-1 3.6-1.2 3.9-.3.1-1.8.8-4 1.1zm-1.1-3.2c0 .1.6 2.4.9 3.3 2.5-.3 4.2-1.1 4.3-1.1 0 0 1-1.9 1.2-4.1-1.5-.7-3.1-1.2-3.1-1.2zm.8 3.6-.1-.2c-.3-.9-.9-3.3-.9-3.3v-.2l3.5-3.4.2.1s1.7.5 3.2 1.3l.2.1v.2c-.2 2.2-1.2 4.2-1.3 4.2v.1h-.1c-.2.1-1.8.8-4.4 1.1z"/><path d="m132.3 39h.4v1.4h-.4z" transform="matrix(.725 -.6887 .6887 .725 9.1173 102.145)"/><path d="m132 39.3.8.8.1-.1zm.8 1.2-1.1-1.2.4-.4 1.1 1.2z"/><path d="m135.5 31.9h.4v1h-.4z" transform="matrix(.3959 -.9183 .9183 .3959 52.2895 144.173)"/><path d="m135.4 32.3.7.3v-.1l-.7-.3zm.8.6-1.1-.5.2-.6 1.1.5z"/><path d="m122.6 35.8-1.1-4.4s-1.7-.4-3.3-.6c-1 1.9-1.1 4.2-1.1 4.2s.9 1.4 2.9 3c.7-.7 2.6-2.2 2.6-2.2z"/><path d="m117.2 34.9c.1.2 1 1.5 2.7 2.9.7-.6 2.2-1.8 2.5-2.1l-1-4.3c-.3-.1-1.7-.4-3.1-.6-.9 1.8-1.1 3.8-1.1 4.1zm2.7 3.2c-2.1-1.7-2.9-3.1-3-3.1 0 0 .1-2.3 1.2-4.2v-.1h.1c1.6.2 3.3.6 3.3.6h.1l1.1 4.6h-.1s-1.9 1.5-2.7 2.2z"/><path d="m119.9 37.7c.7-.6 2.1-1.7 2.4-2l-1-4.2c-.4-.1-1.7-.4-3-.6-.9 1.7-1 3.6-1.1 4 .2.2 1 1.4 2.7 2.8zm2.9-1.9c-.1.1-2 1.6-2.7 2.2l-.1.1-.1-.1c-2-1.6-2.9-3-2.9-3.1v-.1c0-.1.1-2.3 1.2-4.3l.1-.1h.1c1.6.2 3.3.6 3.3.6h.1z"/><path d="m117.3 34.8c.2.3 1 1.4 2.6 2.7.7-.6 1.9-1.6 2.3-1.9l-1-4.1c-.4-.1-1.7-.4-2.9-.6-.7 1.7-.9 3.5-1 3.9zm2.6 3.1c-1.8-1.5-2.6-2.7-2.8-2.9 0-.4.2-2.3 1.1-4v-.1h.1c1.3.2 2.7.5 3.1.6h.1l1.1 4.3h-.1c-.4.3-1.8 1.4-2.6 2.1zm-2.9-3c0 .1.9 1.4 2.9 3.1.7-.6 2.6-2.2 2.6-2.2l-1.1-4.5s-1.7-.4-3.3-.6c-1 1.9-1.1 4.1-1.1 4.2zm2.9 3.4-.2-.2c-2-1.6-2.9-3-2.9-3.1v-.2c0-.1.1-2.3 1.2-4.3l.1-.2h.2c1.6.2 3.3.6 3.3.6h.2l1.2 4.8-.1.1s-1.9 1.6-2.6 2.2z"/><path d="m115.7 34.9h1.4v.4h-1.4z" transform="matrix(.9703 -.242 .242 .9703 -5.0311 29.2072)"/><path d="m115.8 35.2v.1l1.1-.3v-.1zm-.1.4-.1-.6 1.6-.4.1.6z"/><path d="m120.5 41.2h1v.4h-1z" transform="matrix(.8032 -.5957 .5957 .8032 -.8438 80.223)"/><path d="m120.7 41.6.7-.3-.1-.1zm0 .4-.4-.5 1-.7.4.5z"/><path d="m124.8 41.9c1.2-.3 2.3-1.2 2.7-1.6l.2-.2-1-3-.5-.1-3-.8-.6-.2-2.5 2c.1.4.5 1.9 1.4 2.9.5.3 1 .5 1.6.7s1.2.3 1.7.3zm2.9-1.3c-.5.5-1.6 1.4-2.9 1.7-.6 0-1.2-.1-1.8-.3s-1.2-.4-1.7-.7c-1.2-1.3-1.5-3.2-1.5-3.3v-.1l2.8-2.3.7.2 3 .8.7.2 1.1 3.4z"/><path d="m121.6 40.9c.4.3 1 .5 1.6.7s1.1.3 1.7.3c1.2-.3 2.2-1.2 2.6-1.6l.1-.1-.9-2.9-.5-.1-3.5-1-2.4 2c0 .4.4 1.7 1.3 2.7zm3.2 1.2c-.6 0-1.2-.1-1.8-.3s-1.2-.4-1.6-.7c-1-1-1.3-2.6-1.4-3v-.1l2.6-2.1.6.2 3.6 1 1 3.1-.3.3c-.3.3-1.4 1.2-2.7 1.6zm-5-4.2c0 .1.3 2 1.5 3.2.5.3 1.1.6 1.7.7.6.2 1.2.3 1.8.3 1.2-.3 2.3-1.2 2.8-1.7.1-.1.2-.2.2-.2l-1.1-3.3-.6-.2-3-.8-.7-.2zm5.1 4.5c-.6 0-1.3-.1-1.9-.3s-1.2-.4-1.7-.8c-1.2-1.3-1.6-3.2-1.6-3.3v-.2l2.9-2.4.8.2 3.8 1.1 1.2 3.5-.4.4c-.7.6-1.8 1.5-3.1 1.8z"/><path d="m124.8 42.1h.4v1h-.4z" transform="matrix(.9351 -.3545 .3545 .9351 -6.9723 47.0815)"/><path d="m124.8 42.3.3.7h.1l-.3-.7zm.2.9-.4-1.1.6-.2.4 1.1z"/><path d="m120.6 24.7s-1.7.9-2.6 2.4c-.5 0-.6-.2-.9-.2 1.2-2 3.3-3.1 3.3-3.1z"/><path d="m117.3 26.8h.2c.1 0 .2.1.4.1.8-1.4 2.2-2.2 2.6-2.4l-.1-.6c-.5.4-2.1 1.4-3.1 2.9zm.7.4c-.3 0-.5-.1-.6-.1s-.2-.1-.3-.1h-.2l.1-.2c1.2-2 3.3-3.1 3.4-3.2l.1-.1.3 1.1h-.1c-.1.2-1.8 1-2.7 2.6z"/><path d="m135.3 32.2s.1-1.9-.8-3.5c.3-.4.4-.4.6-.7 1.1 2 1.1 4.4 1.1 4.4z"/><path d="m135.4 32.1.6.2c0-.6-.1-2.4-1-4 0 .1-.1.1-.1.1-.1.1-.2.2-.3.3.8 1.3.8 3 .8 3.4zm.9.5-1.1-.3v-.1s.1-1.9-.8-3.4v-.2c.1-.2.3-.3.4-.4s.2-.1.2-.3l.1-.2.1.2c1.1 2 1.1 4.4 1.1 4.5z"/><path d="m121.4 41.1s1.6 1.1 3.4 1.1c.2.4.1.6.3.9-2.3 0-4.4-1.3-4.4-1.3z"/><path d="m121 41.7c.5.3 2.1 1.1 4 1.2 0-.1 0-.1-.1-.2 0-.1-.1-.2-.1-.4-1.6 0-3-.8-3.3-1zm4.3 1.5h-.2c-2.3 0-4.4-1.3-4.4-1.3l-.1-.1.8-.8.1.1s1.6 1.1 3.3 1.1h.1v.1c.1.2.1.4.2.5 0 .1.1.2.1.3z"/><path d="m82.5 110.6c-.1-.3-.9 1-.7 1.3.4.7 1.3 2.3 1.8 3 .3-.2-.2-1.4-.2-1.7.4-.7.4-1.6-.5-1.9z" fill="#fff"/><path d="m125.7 128.7c-16 0-41.8 1.1-70.1 8.5l1.8.3c.3-.1.6-.1.9-.2l14 15.8-11.3 16c1.1.3 2.2.7 3.3 1.4 5.6-1.8 11.3-3.3 17.2-4.6l-7.3-9.5.1-4.1 15.6-20.2c0-.2 0 0 0 0l17.9 18.9 18-21 18 21 17.9-18.9 15.6 20.2.1 4.1-7.3 9.5c5.8 1.3 11.6 2.8 17.2 4.6 1.1-.6 2.2-1.1 3.3-1.4l-11.3-16 14-15.8c.3 0 .6.1.9.2l1.8-.3c-28.4-7.4-54.2-8.5-70.3-8.5z" fill="#fff"/><path d="m215.3 159.5c-1.1-2-8.9-5.5-26.1-9.8-26.1-6.5-47.5-7.3-63.5-7.3s-37.5.8-63.6 7.3c-17.2 4.3-25 7.8-26.1 9.8-1.9 3.6 2.2 12.7 4.2 17.6 3 7.3 9.3 16 9.3 16s-1.2-3.3 8-6.1c34.7-10.7 67.9-9.8 68.1-9.8s33.3-.8 68 9.8c9.2 2.8 8 6.1 8 6.1s6.3-8.6 9.3-16c2.2-4.9 6.3-14 4.4-17.6z" fill="#005f36"/><path d="m125.8 143.8c-7.1 0-16.7.1-27.9 1.2-12.1 1.1-23.6 3.1-35.4 6-8 2-14.3 3.9-18.9 5.7-5.6 2.2-6.3 3.4-6.3 3.4-.4.8-.7 2.5.5 6.5.9 3 2.2 6.1 3.2 8.7.2.4.4.9.5 1.3 2 5 5.7 10.6 7.7 13.6 1.3-1.7 4-3.2 8-4.4 29.9-9.2 58.5-9.9 66.6-9.9h3.6c8.1 0 36.6.7 66.5 9.9 4 1.2 6.7 2.7 8 4.4 2-3 5.7-8.6 7.7-13.6.2-.4.3-.8.5-1.3 1.1-2.6 2.4-5.7 3.2-8.7 1.1-4 .9-5.7.5-6.5 0 0-.7-1.2-6.3-3.4-4.6-1.8-10.9-3.7-18.9-5.7-11.7-2.9-23.3-4.9-35.3-6-10.9-1.1-20.4-1.2-27.5-1.2zm77 50-2.3-1.2v.1s.1-2.2-7.1-4.5c-29.5-9.1-57.8-9.8-65.7-9.8h-3.8c-8 0-36.3.7-65.9 9.8-7.2 2.2-7.1 4.4-7.1 4.5 0 0 .2.9.2.8l-2.2.8c-.3-.4-6.8-9.4-9.8-16.8-.2-.4-.3-.8-.5-1.3-3-7.2-5.5-13.9-3.6-17.5.5-.9 1.8-2.3 7.7-4.6 4.7-1.8 11.2-3.8 19.2-5.8 11.9-3 23.6-5 35.8-6.1 11.3-1.1 21-1.2 28.1-1.2s16.8.1 28.1 1.2c12.2 1.2 23.9 3.2 35.7 6.1 8.1 2 14.6 4 19.2 5.8 5.9 2.3 7.2 3.7 7.7 4.6 1.9 3.6-.6 10.3-3.6 17.5-.2.4-.4.9-.5 1.3-3.1 7.5-9.3 16-9.6 16.3z"/><path d="m158 170.1c-.1 0-.1-.1-.2-.1-1.2-.4-2.5-.6-3.7-.4-.8.1-1.5.3-2.1.7-.5.3-.9.6-1.2 1-.6.8-.8 1.8-.7 2.8 0 .3.2.7.4 1s.5.5.8.6.6.1.9.1c.7-.1 1.3-.3 1.8-.8.4-.3.7-.6 1-1 1.1-1.2 2-2.5 2.9-3.8.1 0 .1-.1.1-.1zm-70.3-13.7c0-.1 0-.3-.1-.6-.1-.4-.3-.6-.7-.5h-.2c-.2.1-.5.2-.7.3-.4.2-.8.6-1.1.9-.4.4-.7.8-1.1 1.3-1 1.4-1.8 2.9-2.4 4.5-.2.7-.4 1.4-.5 2.1v.9c.1.4.4.6.9.6h.1c.4-.1.7-.3 1-.5.5-.4 1-.8 1.4-1.3 1.4-1.6 2.4-3.5 3-5.6.3-.6.3-1.3.4-2.1zm15.5-1.8c0-.1 0-.4-.1-.6-.1-.4-.4-.5-.8-.5-.2 0-.4.1-.5.2-.3.1-.6.3-.9.5-.8.6-1.5 1.4-2.1 2.2-.8 1.2-1.4 2.4-2 3.8-.3.8-.5 1.5-.6 2.3v.7c.1.3.2.5.4.6.1 0 .2.1.3.1.4 0 .7-.1 1-.3.4-.2.7-.5 1.1-.8.5-.5.9-.9 1.3-1.5 1.2-1.5 2-3.2 2.5-5 .2-.5.3-1 .4-1.7zm46.6.1c0-.2 0-.4-.1-.6s-.2-.3-.4-.4-.4-.1-.6-.1c-.2.1-.4.1-.6.2-.4.1-.7.4-1.1.6-.7.5-1.3 1.1-1.9 1.8-1 1.2-1.7 2.4-2.3 3.8-.2.5-.3.9-.4 1.4-.1.3-.1.6 0 1 .1.5.4.8.9.8.3 0 .6-.1.9-.2.5-.2 1-.5 1.4-.9 1.9-1.7 3.3-3.7 3.9-6.2.2-.3.3-.7.3-1.2zm8.3 8.8c0 .2 0 .3.1.5.1.3.3.5.6.7.2.1.5.1.7.1.4-.1.7-.2 1.1-.4.5-.3.9-.6 1.3-.9 1.6-1.4 2.7-3 3.5-5 .2-.6.4-1.1.4-1.7v-.7c-.1-.3-.2-.5-.5-.5-.2-.1-.4-.1-.6 0-.4.1-.7.2-1 .3-.6.3-1.1.6-1.5 1-1.2 1-2.1 2.2-2.9 3.6-.4.7-.7 1.4-.9 2.2-.2.3-.3.6-.3.8zm.6 5.5c.4-.7.7-1.3 1.1-1.9h-.2c-.7.2-1.3.3-2 .2-.5 0-.9-.1-1.3-.3-.8-.3-1.4-.9-1.8-1.6-.3-.5-.5-1.1-.5-1.7-.1-1.2.1-2.3.5-3.4.2-.4.4-.9.6-1.3.1-.2.2-.3.3-.4s.1-.2.2-.3c-1.2.3-1.5.2-2.2 0 0 .1-.1.2-.1.3-.5 1.5-1.2 2.9-2.4 4-.2.2-.3.3-.5.5-1.2 1.2-2.6 2-4.3 2.4-.8.2-1.6.3-2.4.3s-1.5-.1-2.2-.4c-1.5-.5-2.4-1.5-2.8-3 0-.2-.1-.3-.1-.5l-.1-.1c-.1.1-.2.2-.3.2-.8.7-1.6 1.4-2.6 2-.6.4-1.1.7-1.7.9-.9.4-1.8.5-2.7.3-.3 0-.7-.1-1-.3-.6-.3-.9-.8-1-1.5-.1-.8.1-1.5.4-2.2.3-.6.6-1.1.9-1.7.1-.2.2-.4.3-.6-.1-.1-.1-.1-.2 0-.4.1-.8.3-1.2.4-.5.2-1.1.3-1.7.3-.4 0-.8-.1-1.2-.2-.1.1-.2.2-.2.3-.7 1.4-1.4 2.8-2.1 4.2-.2.3-.3.7-.5 1-.1.1-.1.2-.3.2h-5c-.1-.1 0-.2.1-.3.5-.9 1-1.9 1.4-2.8.1-.1.1-.2.2-.4-.2.1-.3.2-.4.3-.6.6-1.3 1.1-2 1.6-1.1.8-2.3 1.4-3.6 1.7-1.1.3-2.3.3-3.4-.1-.8-.3-1.5-.8-2-1.5-.2-.4-.4-.8-.5-1.1 0-.1 0-.1-.1-.2-.1.1-.2.1-.3.2-1.1.9-2.2 1.8-3.4 2.6-.4.3-.9.6-1.4.8-.3.1-.7.2-1.1.2-.3 0-.6-.1-.9-.2-.6-.3-.9-.7-1.1-1.3 0-.3-.1-.5-.1-.8-.1 0-.1.1-.2.2-.4.6-1 1.2-1.6 1.6-.6.5-1.3.9-2 1.1-.8.2-1.6.2-2.4 0-.7-.2-1.3-.6-1.7-1.2-.3-.5-.5-1-.6-1.6s-.2-1.2-.1-1.7v-.4c-.1 0-.1 0-.2.1-.5.5-1 1-1.5 1.5-.1.1-.2.2-.3.4-.8 1.1-1.6 2.1-2.6 2.9-1.1.9-2.2 1.5-3.6 1.8-.7.2-1.5.2-2.2.2-.3 0-.6-.1-1-.2s-.8-.3-1-.6c-.1.1-.1.2-.2.3-.5 1.1-.9 2.2-1.4 3.3-.7 1.7-1.4 3.5-2.2 5.2-.1.1-.1.3-.2.4-.9.2-1.8.3-2.6.5-.9.1-1.8.4-2.7.5 0-.2 0-.3.1-.4.7-1.5 1.3-3 2-4.5.7-1.6 1.4-3.1 2-4.7 0-.1.1-.2.1-.3-.1.1-.2.2-.3.3-.7.7-1.5 1.4-2.4 2-.6.4-1.3.8-2 1.1-.6.2-1.3.3-2 .3-.3 0-.5-.1-.8-.2-.8-.3-1.2-.9-1.4-1.6-.1-.5-.1-1 0-1.4.3-1.3.7-2.6 1.2-3.9.2-.6.5-1.3.7-1.9.1-.4.2-.8 0-1.2-.1-.4-.3-.7-.7-.9-.1 0-.2.1-.2.1-1.2.8-2.5 1.5-3.8 2.2-.2.1-.4.3-.5.5-1.1 2.6-2.2 5.1-3.3 7.7-.3.7-.6 1.4-.9 2.2-.1.2-.2.3-.4.3-2 .5-4 1-5.9 1.5-.2 0-.3.1-.5.1 0-.1 0-.2.1-.3.7-1.5 1.3-3 2-4.6 1.1-2.4 2.2-4.8 3.3-7.2.8-1.6 1.5-3.3 2.3-4.9.3-.7.6-1.4.9-2.2.8-1.8.8-3.7.2-5.6-.2-.6-.5-1.2-.9-1.8-.7-1-1.7-1.5-2.9-1.7-1-.1-2 0-3 .4-1.4.5-2.6 1.3-3.5 2.5-.7.8-1.2 1.8-1.5 2.8-.4 1.1-.5 2.3-.4 3.5.1 1.1.4 2.1 1 3 .2.4.5.7.9 1 .2.2.5.3.8.4.4.1.8.1 1.2-.1.7-.3 1.3-.9 1.6-1.6.2-.5.3-1 .4-1.5.1-1.3-.1-2.5-.5-3.7-.3-1-.7-2-1.1-2.9 0-.1-.1-.1-.1-.2h.2c1 .2 2.1.5 3.1.8.6.2 1.3.3 1.9.5 0 0 .1 0 .2.1 0 .1.1.2.1.3.1.8.2 1.7.1 2.5-.1 1.3-.5 2.5-1.1 3.7-.6 1-1.3 1.8-2.3 2.4-1.2.8-2.5 1.3-3.9 1.5-.9.1-1.8.1-2.6-.2-1.4-.5-2.4-1.4-3-2.7-.3-.7-.5-1.5-.5-2.3-.1-2 .4-3.8 1.5-5.5.8-1.3 1.8-2.4 3-3.3 2-1.5 4.3-2.6 6.8-3.1.9-.2 1.8-.3 2.8-.3 1.1 0 2.2.2 3.3.6 1.3.5 2.2 1.3 3 2.4.6.8 1 1.6 1.2 2.6.1.6.2 1.3.2 2 0 1.1-.2 2.2-.4 3.2-.3 1.1-.6 2.2-1.1 3.3v.1c.1.1.1 0 .2 0 2.2-1.1 4-2.7 5.6-4.6.9-1 1.7-2.1 2.4-3.3.8-1.3 1.5-2.7 2-4.2.2-.7.4-1.3.4-2v-.2l5.4-.9c.1.1.1.2 0 .2-.2 1-.5 2-.9 3-.4 1.1-.9 2.2-1.5 3.2-1 1.7-2.2 3.3-3.6 4.7-.8.8-1.7 1.5-2.6 2.2-.1.1-.2.1-.2.2l.3.3c.5.4 1 .9 1.3 1.5.3.7.3 1.3.1 2-.1.4-.3.8-.4 1.3-.3.9-.6 1.8-.9 2.8-.1.4-.2.9-.3 1.3v.7c0 .1.1.3.2.4.3.2.6.3.9.2.2-.1.4-.2.6-.4.6-.5 1.2-1.1 1.7-1.8.9-1.1 1.6-2.4 2.2-3.7s1.2-2.6 1.7-3.8c.4-.9.8-1.7 1.2-2.6.1-.1.1-.2.2-.4.8-.2 1.6-.3 2.4-.4s1.6-.3 2.4-.4v.2c-.1.2-.1.3-.2.5 0 .1 0 .1-.1.2.3-.2.6-.4.8-.5.6-.5 1.3-.7 2.1-.9.9-.1 1.7-.1 2.5.5.6.4 1 1 1.2 1.7.2.8.3 1.5.2 2.3-.1.7-.2 1.5-.5 2.2v.2c.1 0 .1-.1.2-.1l.2-.2c.4-.3.6-.6.8-1.1.5-1.3 1.3-2.4 2.2-3.4s1.8-1.8 2.9-2.5c.9-.5 1.8-1 2.9-1.2.6-.1 1.2-.2 1.8-.2.9 0 1.6.3 2.2.9l.1.1c.3-.4.4-.8.6-1.2.5-.1 4.4-.4 4.8-.3 0 .1 0 .1-.1.2-.2.4-.3.7-.5 1.1-.9 1.8-1.8 3.7-2.6 5.6-.3.7-.6 1.4-.9 2-.1.2-.2.4-.2.6s-.1.3-.1.5c0 .5.3.7.8.6.1 0 .2-.1.3-.1.2-.1.4-.2.6-.4.4-.3.7-.6 1.1-.9.1-.1.2-.2.2-.3.3-1.3.8-2.6 1.4-3.8.4-.8.9-1.5 1.4-2.1 1.3-1.5 2.9-2.6 4.8-3.1 1-.3 2.1-.4 3.2-.3.4 0 .8.1 1.2.3 1.1.4 1.7 1.2 1.8 2.4v.7c0 .2 0 .4-.1.6-.1.1-.1.1-.2.1-1.3.7-2.6 1.4-3.9 2-.1.1-.2.1-.3.1-.1-.1 0-.2 0-.2.2-.4.4-.8.5-1.3.2-.6.4-1.2.5-1.9v-.7c-.1-.3-.4-.5-.7-.5s-.6.2-.8.3c-.5.3-1 .7-1.4 1.2-.8.9-1.4 1.9-1.9 3-.2.5-.4 1-.6 1.5-.3.8-.3 1.5-.2 2.3 0 .2.1.4.1.6.2.6.6 1 1.4 1.1.5 0 .9 0 1.4-.2.6-.2 1.2-.5 1.8-.8 1.3-.8 2.5-1.7 3.5-2.9.3-.4.6-.8.9-1.3 1-1.8 2-3.6 3.1-5.4.1-.2.3-.5.4-.7.1-.1.1-.2.2-.3 1.7 0 3.4 0 5.2.1 0 .1 0 .1-.1.2-.8 1.5-1.7 3-2.5 4.5-.3.5-.6 1.1-.9 1.6 0 .1-.1.2-.1.3.2 0 .3.1.5.1 1.2.1 2.3-.2 3.3-.8.3-.2.5-.4.7-.7.9-1.6 1.9-3.1 2.8-4.7.1-.2.2-.3.3-.5.8 0 1.6.1 2.4.1s1.6.1 2.4.1c-.1.1-.1.2-.1.3-.3.5-.6 1-.8 1.5-.9 1.6-1.8 3.3-2.7 5-.5.9-.9 1.7-1.4 2.6-.1.3-.2.5-.3.8v.4c.1.3.3.4.6.4.2 0 .3-.1.5-.2s.4-.2.6-.4c.3-.2.5-.5.8-.7.3-.4.6-.8 1-1.1.1-.1.2-.2.2-.4.4-1.5 1.1-2.8 2.1-4 .6-.7 1.3-1.4 2.1-2 1.1-.7 2.3-1.2 3.5-1.5.8-.2 1.6-.3 2.4-.2.9 0 1.8.2 2.7.6.4.2.7.4 1 .7.6.5.9 1.1 1.1 1.9.1.3.1.7.1 1v.5c.7.4 1.3.5 2.1.3.3-.1.6-.3.9-.5.4-.3.9-.6 1.3-.9 1.1-.8 2.3-1.3 3.6-1.5.9-.2 1.7-.2 2.6-.2 1 .1 2 .4 2.8 1.1.2.2.4.4.6.7l.1-.1c.2-.3.5-.6.7-.9.4 0 .8.1 1.2.2s.8.1 1.2.2.8.1 1.2.2.8.1 1.2.2c-.3.4-.6.8-.8 1.2-.3.4-.5.8-.8 1.2s-.5.8-.8 1.1c-.3.4-.5.8-.8 1.2s-.5.8-.8 1.2-.5.8-.8 1.2-.5.8-.8 1.2-.5.8-.8 1.2-.5.8-.8 1.2-.5.8-.8 1.2c-.2.4-.5.8-.7 1.2-.3.4-.5.8-.8 1.2s-.5.8-.8 1.2l.1.1c.8.3 1.6.4 2.5.4 1.1-.1 2-.5 2.8-1.3l.2-.2h.2c1.5.8 3.1 1.5 4.6 2.3v.1c-.1.1-.2.2-.3.2-.7.4-1.4.7-2.2.9-1.1.3-2.2.4-3.4.3-1.3-.1-2.6-.4-3.9-.8-.4-.1-.8-.3-1.2-.4-.1 0-.2-.1-.4-.1-.1.1-.2.2-.2.4-.4.6-.8 1.2-1.3 1.7-1.4 1.6-3.1 2.6-5.3 3-1.1.2-2.2.3-3.3.2-.7-.1-1.3-.1-2-.3-.6-.2-1.3-.4-1.8-.8-1.1-.7-1.7-1.7-1.8-3-.1-.6.1-1.2.2-1.8.5-1.5 1.5-2.5 3-3 .7-.2 1.4-.4 2.1-.4h2.1c1.3.1 2.5.3 3.7.7.3.1.7.2 1 .3 1.2-.8 1.2-.8 1.3-.7z" fill="#fff"/><path d="m76.5 146.3c-.1.4-.2.7-.3 1.1-.4 1.3-.9 2.5-1.7 3.8.5-.6.9-1.3 1.3-2.1.5-.9 1-1.9 1.4-2.9-.1 0-.2 0-.3.1zm-21.4 6.9c.1.3.1.5.2.8v-.7c-.1-.1-.1-.1-.2-.1zm50.1 2.3c-.1.5-.1.9-.3 1.4-.1.2-.1.4-.2.7.6-1.3 1.2-2.6 1.8-3.8h-.1c-.1.1-.2.3-.3.4zm-54.8-3.2c-.1.3-.3.6-.4.9-.3.8-.4 1.7-.3 2.7.1.8.2 1.3.5 1.9.1.2.3.5.5.5.3 0 .4-.2.5-.5.1-.2.2-.5.2-.8.1-.9-.1-1.8-.4-3-.1-.5-.3-1.1-.6-1.7zm101 4.9c-.5 1.4-1.1 2.7-2 3.9.9-.9 1.4-1.9 1.8-3.1 0-.1.1-.2.1-.4l.1-.2zm-11.2 3.6c.1.1.1.2.2.3v-.1c.1-.6.3-1.2.5-1.8.3-.7.6-1.4 1-2-.7.9-1.2 1.8-1.4 2.8 0 .4-.1.6-.3.8zm-51.1-.8c-.3.7-.6 1.5-.9 2.2.1-.1.1-.2.2-.3.2-.2.5-.5.7-.7-.1-.3-.1-.5-.1-.8 0-.1 0-.2.1-.4zm35.1-1.5-2.1 4.3c-.1.1-.1.2-.1.3v.1h.5l.2-.4c.6-1.3 1.3-2.6 1.9-3.9.1-.2.3-.7.9-1.1l.4-.9c.1-.1.1-.3.2-.4l.2-.4c.2-.4.4-.9.7-1.3.3-.6.7-1.2 1-1.8h-.6v.1c-1.4 2.1-2.3 3.8-3.2 5.4zm7.1 4.8c.1 0 .1.1.2.1.5.1 1.1 0 1.6-.2h.1c-.1-.1-.1-.3-.2-.5-.1-.4-.2-.9-.1-1.3.1-.5.2-1 .5-1.5l.4-.7c.3-.6.7-1.3 1-1.9.8-1.5 1.4-2.7 2.1-3.9h-.3l-.4.6c-.7 1.2-1.4 2.4-2.2 3.5-.3.5-.6.8-1 1.1l.3.5-1.2 2.2c-.2.4-.4.7-.6 1.1-.3.4-.3.7-.2.9zm-21.1-1.8.1.3c.1.1.1.3.2.4.1.2.2.4.3.6s.3.4.8.6c.2.1.3.1.5.1-.3-.3-.5-.7-.6-1.2-.1-.4-.2-.7-.2-1.1-.1-1.2 0-2.2.3-3.1 0-.1.1-.2.1-.3-.5 1.1-.9 2.1-1.1 3-.2.3-.3.5-.4.7zm46.6-1.6-.1.2c-.2.3-.3.6-.4.9-.3 1-.5 1.8-.4 2.5v.2-.2l.1-.5c0-.3.1-.5.2-.8.2-.9.6-1.8 1.1-2.7.5-.8 1-1.6 1.5-2.3-.1.1-.2.1-.3.2l-1.5 2.2c0 .1-.1.1-.1.1zm-54.7 2.7.1 1.3v.2c.1 0 .2 0 .3-.1.3-.1.6-.3.9-.5.1-.1.3-.2.4-.3-.3-.4-.5-1-.6-1.6 0-.4 0-.7.1-1-.3.7-.7 1.4-1.2 2zm-8.5-1.6v1.2c0 .5 0 1 .1 1.3.1.4.2.7.3 1 .1.2.2.3.4.3.1 0 .2 0 .3.1-.2-.3-.4-.7-.5-1.1-.1-.5-.1-.9-.1-1.4.1-1 .3-2 .7-2.9.3-.8.7-1.6 1-2.3-.8.9-1.4 1.8-1.8 2.7 0 .5-.2.8-.4 1.1zm58.3 3.4-.1.1c-.6.6-1.2 1.1-1.8 1.5.5-.1 1-.2 1.6-.2h.8c-.3-.4-.4-.9-.5-1.4zm-84.5 5.2c.1 0 .2 0 .2.1.4 0 .7 0 1.1-.1.5-.2.9-.4 1.3-.7-.4-.4-.6-.8-.7-1.3-.1-.4-.1-.9-.1-1.4.1-.6.2-1.2.4-1.7.3-.8.6-1.7.8-2.5l.1-.3c.1-.2.1-.4.2-.5.1-.2.2-.5.2-.7 0-.1.1-.3-.1-.6-.1-.3-.3-.5-.6-.7-.1-.1-.1-.1-.2-.1l-1.1-.8c-.3.3-.7.6-1 .8.5.3 1 .9 1.3 1.8.3.8.3 1.7 0 2.6-.2.7-.5 1.3-.7 2-.5 1.4-.9 2.5-1.1 3.6-.1.3-.1.4 0 .6 0-.2 0-.1 0-.1zm-6.7-22.2c.5.7.9 1.4 1.2 2.3.8 2.4.7 4.7-.2 7-.3.8-.6 1.5-1 2.2-.8 1.6-1.5 3.3-2.3 4.9-1.2 2.5-2.3 5-3.3 7.2-.2.3-.3.7-.5 1 .5-.1 1.1-.3 1.6-.4.2-.4.4-.9.6-1.3l.9-2.2c.8-1.9 1.6-3.7 2.4-5.6.3-.7.8-1.2 1.4-1.5.4-.2.8-.4 1.1-.6-.1-.1-.1-.1-.2-.2l-.6-.7.1-.8c0-.1 0-.4.2-.7.4-1 .7-2 1-3s.4-1.9.4-2.7c0-.7-.1-1.2-.2-1.6-.1-.6-.4-1.1-.8-1.8s-1-1.2-1.8-1.5zm99 23.9c-.4.6-.8 1.2-1.2 1.7.1-.1.2-.2.3-.4.4-.5.8-1.1 1.1-1.5.1-.1.1-.2.2-.3l1.2-1.7 3.6-5.6c.3-.4.5-.8.8-1.2s.5-.8.8-1.2.5-.8.8-1.2l.1-.1c.2-.4.5-.7.7-1.1.2-.3.4-.5.6-.8l.8-1.2c-.1 0-.2 0-.4-.1-.2.2-.3.3-.4.4l-1.1.9c-.1.4-.2.8-.4 1.2-.9 2.2-2.2 4.1-3.9 5.6zm-83.6-4.2.1.8c0 .4 0 .9-.2 1.3l-.3.8c-.6 1.3-1.1 2.6-1.7 3.9l-.6 1.4c.2 0 .3-.1.5-.1l2.4-5.8c.3-.7.6-1.4.8-2 .3-1 1-1.3 1.4-1.5l.5-.2c-.1-.5-.1-.9-.1-1.5.1-.8.3-1.7.6-2.5.6-1.8 1.5-3.5 2.6-5-.2 0-.3.1-.5.1-.3.7-.6 1.3-.9 2-.2.5-.5 1.1-.7 1.6-.3.8-.7 1.5-1 2.3-.7 1.5-1.5 2.9-2.4 4.1-.2 0-.4.2-.5.3zm-9.6 13.6 3.1-7.1c-.7.2-1.5.2-2.2.2-.4 0-.9-.1-1.3-.3-1.4-.5-2.3-1.6-2.7-3.2-.2-.7-.1-1.5 0-2.3.3-1.2.6-2.4 1.2-3.9-.2.1-.4.2-.7.3-.7 1.7-4.6 10.7-4.6 10.7s-4.2 1-5.7 1.4l-6 1.4s3.3-7.5 3.8-8.7c.9-1.9 1.9-4.2 2.9-6.5-1.2.7-2.5 1.1-3.9 1.3-1.2.2-2.4.1-3.6-.2-1.9-.6-3.4-1.9-4.3-3.8-.4-.9-.6-1.9-.7-3-.1-2.3.5-4.6 1.8-6.7.9-1.5 2.1-2.8 3.5-3.9 2.3-1.7 4.9-2.9 7.7-3.5 1.1-.2 2.1-.3 3.1-.4h.2c1.4 0 2.7.2 3.9.7 1.6.6 2.9 1.7 4 3.1.8 1.1 1.3 2.2 1.5 3.3.2.9.2 1.8.2 2.3s0 .9-.1 1.4c.2-.2.4-.5.6-.7.8-1 1.6-2 2.2-3.1.8-1.3 1.4-2.5 1.7-3.7.6-1.8.5-3.3.5-3.3l10.2-1.7s-.5 2-.8 3.1c-.2 1-.5 2.1-1 3.3-.5 1.3-1 2.4-1.6 3.5-1.1 2-2.5 3.7-4 5.2-.4.4-.8.7-1.2 1.1.2.3.3.5.4.8.4.9.5 1.8.4 2.6.3-.7.7-1.4 1-2.2.2-.5.5-1.1.7-1.6.3-.7.6-1.3.9-2l.3-.6c0-.1.1-.2.1-.3l.5-1 1-.2c.6-.1 1.3-.2 1.9-.3 0 0 1-.2 1.2-.2.6-.1 4-.7 4.5-.7 1.6-.3 2.9 0 4.1.9.7.5 1.2 1.1 1.6 1.8 1.1-1.2 2.2-2.1 3.3-2.8 1.2-.7 2.4-1.2 3.5-1.5 1.9-.5 13.1-.8 13.1-.8l-.6 1.6c1-.7 2.1-1.2 3.3-1.5 1.3-.3 2.5-.5 3.8-.4.6 0 1.3.2 1.9.4 1 .4 1.8 1 2.3 1.9 0-.1.1-.2.1-.2l.2-.3c.1-.1.2-.3.2-.4.1-.1.1-.2.2-.3l.7-1h2.2c1.5 0 2.9 0 4.2.1 0 0 6.1.2 6.4.2.4 0 .9 0 1.3.1.4 0 .8 0 1.2.1l3.2.1-.9 1.9c1-.5 2.1-.9 3.3-1.2 1-.2 1.9-.3 2.9-.3 1.3 0 2.4.3 3.4.8.6.3 1.1.6 1.5 1 .9.8 1.4 1.7 1.7 2.9.2-.1.3-.2.5-.3.2-.2.5-.3.7-.5 1.3-.9 2.8-1.5 4.3-1.9 1.1-.2 2.1-.3 3.2-.2s5.1.9 5.5.9l1.8.3c.2 0 .5.1.7.1.3 0 .5.1.8.1l3.3.6-1.5 2.5c-.2.4-.4.7-.6.9-.1.1-.2.2-.3.4-.2.3-.3.5-.5.7l-1.3 1.9c-.2.3-.4.5-.5.8-.2.3-.5.7-.7 1l-.1.1c-.3.4-.5.8-.8 1.2s-.5.8-.8 1.1c-.3.4-.5.8-.8 1.2l.5 1.8c.1 0 .3.1.6.2 1.5.8 3.1 1.5 4.6 2.3l.6.3.3.6 2.5-.1s-1.1 1.7-3.6 3.1c-.7.4-1.6.8-2.6 1-1.3.4-2.7.5-4.1.4-1.6-.1-3.1-.5-4.4-1-.2.3-.5.6-.8.9-1.7 2-3.9 3.2-6.4 3.7-1.3.2-2.6.3-3.8.2-.6-.1-1.5-.2-2.4-.4-.9-.3-1.7-.6-2.4-1.1-1.6-1-2.5-2.6-2.7-4.5-.1-.8 0-1.7.3-2.6.4-1.3 1.2-2.4 2.3-3.2-.1 0-.3.1-.4.1-.9.2-1.9.3-2.8.3h-.1c-1.1 0-2-.2-2.9-.5-1.3-.4-2.3-1.2-3.1-2.2-.3.2-.6.5-.9.7-.8.5-1.4.9-2.1 1.1-1.2.5-2.5.7-3.8.5-.6-.1-1.2-.3-1.7-.6-1.1-.7-1.8-1.7-2-3 0-.3-.1-.5-.1-.8-.3.5-.5 1-.8 1.5l-.2.5c-.1.3-.3.5-.4.8-.4.8-1.2 1.3-2.1 1.3h-6.3l-.3-.7c-.7.3-1.4.6-2.1.7-1.5.4-3.1.3-4.6-.2-1.1-.4-1.9-.9-2.5-1.7-.6.5-1.3.9-1.9 1.4-.5.4-1.1.7-1.9 1-.6.2-1.2.3-1.7.3h-.1c-.6 0-1.1-.1-1.7-.4-.3-.1-.6-.3-.9-.5-.9.7-1.7 1.1-2.7 1.4-1.1.3-2.3.3-3.4 0-1.3-.3-2.3-1.1-2.9-2.2-.1-.1-.2-.3-.2-.4-.7.8-1.3 1.5-2 2-1.3 1.1-2.8 1.9-4.4 2.3-.9.2-1.9.3-2.8.2-.3 0-.6-.1-.8-.1-.1.1-.1.3-.2.4l-3.3 7.9z"/><path d="m199.4 163.5v-.2c0-.4-.3-.7-.7-.8h-.4c-.3 0-.6.1-.9.2-.6.2-1.2.6-1.7.9-1.4 1-2.5 2.3-3.4 3.8-.3.5-.5 1-.7 1.5-.1.3-.1.6-.1.9 0 .4.3.8.8.9.3.1.7 0 1 0 .6-.2 1.2-.5 1.8-.8 1.2-.8 2.2-1.7 3-2.9.5-.8 1-1.6 1.3-2.5-.1-.3 0-.6 0-1zm-25.1 2.6v.2c0 .5.4.9.9.9.3 0 .5 0 .8-.1.4-.1.7-.3 1.1-.5.7-.4 1.3-.9 1.8-1.4 1.1-1 1.9-2.2 2.5-3.6.3-.6.5-1.3.6-2v-.7c-.1-.3-.3-.5-.5-.5-.1 0-.3-.1-.4-.1-.2 0-.4.1-.7.1-.7.2-1.3.6-1.9 1-1.2.9-2.1 2-2.9 3.2-.5.7-.9 1.5-1.1 2.3-.1.5-.2.8-.2 1.2zm9.3-7.8c.2-.3.4-.5.6-.8.5.1 1.1.2 1.6.3s1.1.2 1.6.4c.5.1 1.1.2 1.6.4 0 .1-.1.2-.2.3-.8 1-1.5 1.9-2.3 2.9-1 1.3-2 2.7-3 4-.2.2-.3.5-.3.7-.1.5.2 1.1.9 1.1.3 0 .5-.1.8-.1.7-.2 1.4-.6 1.9-1.1.4-.4.8-.9 1.2-1.4.8-1.2 1.7-2.4 2.6-3.5.5-.6 1-1.2 1.4-1.8.1-.1.2-.3.4-.4.1 0 .3.1.4.1 1.2.3 2.5.6 3.7 1 .3.1.6.1.8.2 0 .2-.3.4-.3.6h.4c.3-.1.6-.1.9-.2 2.4-.2 4.2 1.3 4.5 3.4.2 1 0 1.9-.3 2.8-.4 1.1-1 2-1.7 2.8-1.3 1.5-2.8 2.5-4.6 3.2-.7.3-1.5.4-2.3.5-.6 0-1.2-.1-1.8-.2-.3-.1-.7-.1-1-.3-.9-.3-1.7-.9-2.1-1.8-.1 0-.2.1-.2.1-.6.9-1.3 1.8-1.9 2.7-1 1.3-1.9 2.6-2.9 4-.1.1-.1.1-.2.2h-.2c-1.5-.3-3.1-.6-4.6-.9-.1 0-.1 0-.2-.1.2-.3.4-.6.6-.9s.4-.6.6-.8c.2-.3.4-.6.6-.8.2-.3.4-.6.6-.8.2-.3.4-.6.6-.9s.4-.6.6-.8c.2-.3.4-.6.6-.8.2-.3.4-.6.6-.8.2-.3.4-.6.6-.8.2-.3.4-.6.6-.8-.1-.1-.2 0-.2 0-.6.4-1.3.7-2 1.1-.5.2-1 .5-1.5.6-.9.2-1.7.1-2.4-.5s-1-1.3-.9-2.2v-.1c-.1 0-.1.1-.2.1-.8.7-1.7 1.2-2.7 1.5-1.5.4-2.9 0-4.1-1.1-.4-.3-.6-.7-.8-1.1-.3-.6-.4-1.3-.4-1.9-.1-1.1.1-2.2.6-3.3s1.1-2.1 1.9-2.9c.7-.7 1.5-1.2 2.3-1.7.7-.4 1.4-.7 2.2-.9 1.2-.3 2.4-.3 3.6 0 .2 0 .3.1.5.1 1 .2 1.8.7 2.5 1.5.3-.2.4-.2.4-.1z" fill="#fff"/><path d="m183.8 161.4c-.1.4-.3.8-.5 1.1-.1.3-.2.5-.4.8l.1-.1c.7-.9 1.3-1.8 2-2.7.2-.2.4-.5.5-.7h-.1c-.1 0-.2 0-.3-.1zm-8.2-2c-.7.4-1.3.9-1.8 1.3-.6.6-1.1 1.3-1.5 2.3-.3.8-.5 1.6-.4 2.4 0 .4.1.8.3 1.2v-.4c0-.7.2-1.3.3-1.8.3-.9.7-1.8 1.4-2.8.5-.8 1.1-1.6 1.7-2.2zm4.5 7.8v1.2c0 .1 0 .2.2.4.1.1.2.1.3.1h.3c.3-.1.6-.2.9-.3-.5-.7-.7-1.6-.5-2.4 0-.2.1-.4.2-.5-.4.5-.8.9-1.2 1.3-.1.1-.2.1-.2.2zm20.8-1.3c-.3.7-.7 1.5-1.3 2.3-.4.6-.9 1.2-1.5 1.8.5-.4.9-.8 1.3-1.2.6-.7 1.1-1.5 1.3-2.2.1-.3.1-.5.2-.7zm-18.4 10.3c.2 0 .4.1.5.1l.2-.2c.7-1 1.4-1.9 2.1-2.9.4-.5.8-1.1 1.2-1.6l.7-1c.6-1 1.5-1.1 1.9-1.1h.2c0-.4.1-.7.2-1.1.2-.6.5-1.3.9-1.9 1.1-1.8 2.4-3.3 4-4.4l.1-.1c-.4-.1-.8-.2-1.1-.3-.3.4-.6.8-.9 1.1-.8 1-1.7 2.2-2.5 3.4-.5.7-1 1.2-1.5 1.7-.3.3-.6.5-.9.7l.3.3-4.3 6c-.1.2-.2.3-.4.5-.1.2-.2.3-.3.5zm-7.1 2.8 4-5.6c.1-.1.2-.3.3-.4l.1-.1c-.8-.1-1.6-.5-2.2-1.1-.2-.2-.5-.4-.7-.7-.4.2-.9.3-1.3.4-2.2.5-4.2 0-5.9-1.5-.6-.5-1-1.1-1.3-1.9s-.5-1.7-.6-2.6c-.1-1.4.2-2.9.7-4.2.6-1.4 1.4-2.6 2.3-3.6.8-.8 1.7-1.4 2.8-2 .9-.5 1.8-.9 2.7-1.1 1.5-.4 3.1-.4 4.7-.1 0 0 6.5 1.5 7 1.6.2 0 .3.1.5.1.4.1 4.6 1.1 4.6 1.1.1 0 2.9.7 4.1 1.1.2.1.4.1.6.2l1.7.4c3.6.9 5.1 2.2 5.6 5.1.2 1.2.1 2.5-.4 3.8-.4 1.2-1.1 2.3-2.1 3.5-1.4 1.7-3.3 3-5.5 3.8-.9.3-1.9.5-2.9.6-.9 0-1.7-.1-2.3-.2-.5-.1-.9-.2-1.3-.3-.5-.2-.9-.4-1.3-.6-.2.3-.4.6-.6.9-.7 1-1.4 1.9-2.2 2.9l-1.6 2.2z"/><path d="m158 170.1c-.1 0-.1-.1-.2-.1-1.2-.4-2.5-.6-3.7-.4-.8.1-1.5.3-2.1.7-.5.3-.9.6-1.2 1-.6.8-.8 1.8-.7 2.8 0 .3.2.7.4 1s.5.5.8.6.6.1.9.1c.7-.1 1.3-.3 1.8-.8.4-.3.7-.6 1-1 1.1-1.2 2-2.5 2.9-3.8.1 0 .1-.1.1-.1zm-70.3-13.7c0-.1 0-.3-.1-.6-.1-.4-.3-.6-.7-.5h-.2c-.2.1-.5.2-.7.3-.4.2-.8.6-1.1.9-.4.4-.7.8-1.1 1.3-1 1.4-1.8 2.9-2.4 4.5-.2.7-.4 1.4-.5 2.1v.9c.1.4.4.6.9.6h.1c.4-.1.7-.3 1-.5.5-.4 1-.8 1.4-1.3 1.4-1.6 2.4-3.5 3-5.6.3-.6.3-1.3.4-2.1zm15.5-1.8c0-.1 0-.4-.1-.6-.1-.4-.4-.5-.8-.5-.2 0-.4.1-.5.2-.3.1-.6.3-.9.5-.8.6-1.5 1.4-2.1 2.2-.8 1.2-1.4 2.4-2 3.8-.3.8-.5 1.5-.6 2.3v.7c.1.3.2.5.4.6.1 0 .2.1.3.1.4 0 .7-.1 1-.3.4-.2.7-.5 1.1-.8.5-.5.9-.9 1.3-1.5 1.2-1.5 2-3.2 2.5-5 .2-.5.3-1 .4-1.7zm46.6.1c0-.2 0-.4-.1-.6s-.2-.3-.4-.4-.4-.1-.6-.1c-.2.1-.4.1-.6.2-.4.1-.7.4-1.1.6-.7.5-1.3 1.1-1.9 1.8-1 1.2-1.7 2.4-2.3 3.8-.2.5-.3.9-.4 1.4-.1.3-.1.6 0 1 .1.5.4.8.9.8.3 0 .6-.1.9-.2.5-.2 1-.5 1.4-.9 1.9-1.7 3.3-3.7 3.9-6.2.2-.3.3-.7.3-1.2zm8.3 8.8c0 .2 0 .3.1.5.1.3.3.5.6.7.2.1.5.1.7.1.4-.1.7-.2 1.1-.4.5-.3.9-.6 1.3-.9 1.6-1.4 2.7-3 3.5-5 .2-.6.4-1.1.4-1.7v-.7c-.1-.3-.2-.5-.5-.5-.2-.1-.4-.1-.6 0-.4.1-.7.2-1 .3-.6.3-1.1.6-1.5 1-1.2 1-2.1 2.2-2.9 3.6-.4.7-.7 1.4-.9 2.2-.2.3-.3.6-.3.8zm.6 5.5c.4-.7.7-1.3 1.1-1.9h-.2c-.7.2-1.3.3-2 .2-.5 0-.9-.1-1.3-.3-.8-.3-1.4-.9-1.8-1.6-.3-.5-.5-1.1-.5-1.7-.1-1.2.1-2.3.5-3.4.2-.4.4-.9.6-1.3.1-.2.2-.3.3-.4s.1-.2.2-.3c-1.2.3-1.5.2-2.2 0 0 .1-.1.2-.1.3-.5 1.5-1.2 2.9-2.4 4-.2.2-.3.3-.5.5-1.2 1.2-2.6 2-4.3 2.4-.8.2-1.6.3-2.4.3s-1.5-.1-2.2-.4c-1.5-.5-2.4-1.5-2.8-3 0-.2-.1-.3-.1-.5l-.1-.1c-.1.1-.2.2-.3.2-.8.7-1.6 1.4-2.6 2-.6.4-1.1.7-1.7.9-.9.4-1.8.5-2.7.3-.3 0-.7-.1-1-.3-.6-.3-.9-.8-1-1.5-.1-.8.1-1.5.4-2.2.3-.6.6-1.1.9-1.7.1-.2.2-.4.3-.6-.1-.1-.1-.1-.2 0-.4.1-.8.3-1.2.4-.5.2-1.1.3-1.7.3-.4 0-.8-.1-1.2-.2-.1.1-.2.2-.2.3-.7 1.4-1.4 2.8-2.1 4.2-.2.3-.3.7-.5 1-.1.1-.1.2-.3.2h-5c-.1-.1 0-.2.1-.3.5-.9 1-1.9 1.4-2.8.1-.1.1-.2.2-.4-.2.1-.3.2-.4.3-.6.6-1.3 1.1-2 1.6-1.1.8-2.3 1.4-3.6 1.7-1.1.3-2.3.3-3.4-.1-.8-.3-1.5-.8-2-1.5-.2-.4-.4-.8-.5-1.1 0-.1 0-.1-.1-.2-.1.1-.2.1-.3.2-1.1.9-2.2 1.8-3.4 2.6-.4.3-.9.6-1.4.8-.3.1-.7.2-1.1.2-.3 0-.6-.1-.9-.2-.6-.3-.9-.7-1.1-1.3 0-.3-.1-.5-.1-.8-.1 0-.1.1-.2.2-.4.6-1 1.2-1.6 1.6-.6.5-1.3.9-2 1.1-.8.2-1.6.2-2.4 0-.7-.2-1.3-.6-1.7-1.2-.3-.5-.5-1-.6-1.6s-.2-1.2-.1-1.7v-.4c-.1 0-.1 0-.2.1-.5.5-1 1-1.5 1.5-.1.1-.2.2-.3.4-.8 1.1-1.6 2.1-2.6 2.9-1.1.9-2.2 1.5-3.6 1.8-.7.2-1.5.2-2.2.2-.3 0-.6-.1-1-.2s-.8-.3-1-.6c-.1.1-.1.2-.2.3-.5 1.1-.9 2.2-1.4 3.3-.7 1.7-1.4 3.5-2.2 5.2-.1.1-.1.3-.2.4-.9.2-1.8.3-2.6.5-.9.1-1.8.4-2.7.5 0-.2 0-.3.1-.4.7-1.5 1.3-3 2-4.5.7-1.6 1.4-3.1 2-4.7 0-.1.1-.2.1-.3-.1.1-.2.2-.3.3-.7.7-1.5 1.4-2.4 2-.6.4-1.3.8-2 1.1-.6.2-1.3.3-2 .3-.3 0-.5-.1-.8-.2-.8-.3-1.2-.9-1.4-1.6-.1-.5-.1-1 0-1.4.3-1.3.7-2.6 1.2-3.9.2-.6.5-1.3.7-1.9.1-.4.2-.8 0-1.2-.1-.4-.3-.7-.7-.9-.1 0-.2.1-.2.1-1.2.8-2.5 1.5-3.8 2.2-.2.1-.4.3-.5.5-1.1 2.6-2.2 5.1-3.3 7.7-.3.7-.6 1.4-.9 2.2-.1.2-.2.3-.4.3-2 .5-4 1-5.9 1.5-.2 0-.3.1-.5.1 0-.1 0-.2.1-.3.7-1.5 1.3-3 2-4.6 1.1-2.4 2.2-4.8 3.3-7.2.8-1.6 1.5-3.3 2.3-4.9.3-.7.6-1.4.9-2.2.8-1.8.8-3.7.2-5.6-.2-.6-.5-1.2-.9-1.8-.7-1-1.7-1.5-2.9-1.7-1-.1-2 0-3 .4-1.4.5-2.6 1.3-3.5 2.5-.7.8-1.2 1.8-1.5 2.8-.4 1.1-.5 2.3-.4 3.5.1 1.1.4 2.1 1 3 .2.4.5.7.9 1 .2.2.5.3.8.4.4.1.8.1 1.2-.1.7-.3 1.3-.9 1.6-1.6.2-.5.3-1 .4-1.5.1-1.3-.1-2.5-.5-3.7-.3-1-.7-2-1.1-2.9 0-.1-.1-.1-.1-.2h.2c1 .2 2.1.5 3.1.8.6.2 1.3.3 1.9.5 0 0 .1 0 .2.1 0 .1.1.2.1.3.1.8.2 1.7.1 2.5-.1 1.3-.5 2.5-1.1 3.7-.6 1-1.3 1.8-2.3 2.4-1.2.8-2.5 1.3-3.9 1.5-.9.1-1.8.1-2.6-.2-1.4-.5-2.4-1.4-3-2.7-.3-.7-.5-1.5-.5-2.3-.1-2 .4-3.8 1.5-5.5.8-1.3 1.8-2.4 3-3.3 2-1.5 4.3-2.6 6.8-3.1.9-.2 1.8-.3 2.8-.3 1.1 0 2.2.2 3.3.6 1.3.5 2.2 1.3 3 2.4.6.8 1 1.6 1.2 2.6.1.6.2 1.3.2 2 0 1.1-.2 2.2-.4 3.2-.3 1.1-.6 2.2-1.1 3.3v.1c.1.1.1 0 .2 0 2.2-1.1 4-2.7 5.6-4.6.9-1 1.7-2.1 2.4-3.3.8-1.3 1.5-2.7 2-4.2.2-.7.4-1.3.4-2v-.2l5.4-.9c.1.1.1.2 0 .2-.2 1-.5 2-.9 3-.4 1.1-.9 2.2-1.5 3.2-1 1.7-2.2 3.3-3.6 4.7-.8.8-1.7 1.5-2.6 2.2-.1.1-.2.1-.2.2l.3.3c.5.4 1 .9 1.3 1.5.3.7.3 1.3.1 2-.1.4-.3.8-.4 1.3-.3.9-.6 1.8-.9 2.8-.1.4-.2.9-.3 1.3v.7c0 .1.1.3.2.4.3.2.6.3.9.2.2-.1.4-.2.6-.4.6-.5 1.2-1.1 1.7-1.8.9-1.1 1.6-2.4 2.2-3.7s1.2-2.6 1.7-3.8c.4-.9.8-1.7 1.2-2.6.1-.1.1-.2.2-.4.8-.2 1.6-.3 2.4-.4s1.6-.3 2.4-.4v.2c-.1.2-.1.3-.2.5 0 .1 0 .1-.1.2.3-.2.6-.4.8-.5.6-.5 1.3-.7 2.1-.9.9-.1 1.7-.1 2.5.5.6.4 1 1 1.2 1.7.2.8.3 1.5.2 2.3-.1.7-.2 1.5-.5 2.2v.2c.1 0 .1-.1.2-.1l.2-.2c.4-.3.6-.6.8-1.1.5-1.3 1.3-2.4 2.2-3.4s1.8-1.8 2.9-2.5c.9-.5 1.8-1 2.9-1.2.6-.1 1.2-.2 1.8-.2.9 0 1.6.3 2.2.9l.1.1c.3-.4.4-.8.6-1.2.5-.1 4.4-.4 4.8-.3 0 .1 0 .1-.1.2-.2.4-.3.7-.5 1.1-.9 1.8-1.8 3.7-2.6 5.6-.3.7-.6 1.4-.9 2-.1.2-.2.4-.2.6s-.1.3-.1.5c0 .5.3.7.8.6.1 0 .2-.1.3-.1.2-.1.4-.2.6-.4.4-.3.7-.6 1.1-.9.1-.1.2-.2.2-.3.3-1.3.8-2.6 1.4-3.8.4-.8.9-1.5 1.4-2.1 1.3-1.5 2.9-2.6 4.8-3.1 1-.3 2.1-.4 3.2-.3.4 0 .8.1 1.2.3 1.1.4 1.7 1.2 1.8 2.4v.7c0 .2 0 .4-.1.6-.1.1-.1.1-.2.1-1.3.7-2.6 1.4-3.9 2-.1.1-.2.1-.3.1-.1-.1 0-.2 0-.2.2-.4.4-.8.5-1.3.2-.6.4-1.2.5-1.9v-.7c-.1-.3-.4-.5-.7-.5s-.6.2-.8.3c-.5.3-1 .7-1.4 1.2-.8.9-1.4 1.9-1.9 3-.2.5-.4 1-.6 1.5-.3.8-.3 1.5-.2 2.3 0 .2.1.4.1.6.2.6.6 1 1.4 1.1.5 0 .9 0 1.4-.2.6-.2 1.2-.5 1.8-.8 1.3-.8 2.5-1.7 3.5-2.9.3-.4.6-.8.9-1.3 1-1.8 2-3.6 3.1-5.4.1-.2.3-.5.4-.7.1-.1.1-.2.2-.3 1.7 0 3.4 0 5.2.1 0 .1 0 .1-.1.2-.8 1.5-1.7 3-2.5 4.5-.3.5-.6 1.1-.9 1.6 0 .1-.1.2-.1.3.2 0 .3.1.5.1 1.2.1 2.3-.2 3.3-.8.3-.2.5-.4.7-.7.9-1.6 1.9-3.1 2.8-4.7.1-.2.2-.3.3-.5.8 0 1.6.1 2.4.1s1.6.1 2.4.1c-.1.1-.1.2-.1.3-.3.5-.6 1-.8 1.5-.9 1.6-1.8 3.3-2.7 5-.5.9-.9 1.7-1.4 2.6-.1.3-.2.5-.3.8v.4c.1.3.3.4.6.4.2 0 .3-.1.5-.2s.4-.2.6-.4c.3-.2.5-.5.8-.7.3-.4.6-.8 1-1.1.1-.1.2-.2.2-.4.4-1.5 1.1-2.8 2.1-4 .6-.7 1.3-1.4 2.1-2 1.1-.7 2.3-1.2 3.5-1.5.8-.2 1.6-.3 2.4-.2.9 0 1.8.2 2.7.6.4.2.7.4 1 .7.6.5.9 1.1 1.1 1.9.1.3.1.7.1 1v.5c.7.4 1.3.5 2.1.3.3-.1.6-.3.9-.5.4-.3.9-.6 1.3-.9 1.1-.8 2.3-1.3 3.6-1.5.9-.2 1.7-.2 2.6-.2 1 .1 2 .4 2.8 1.1.2.2.4.4.6.7l.1-.1c.2-.3.5-.6.7-.9.4 0 .8.1 1.2.2s.8.1 1.2.2.8.1 1.2.2.8.1 1.2.2c-.3.4-.6.8-.8 1.2-.3.4-.5.8-.8 1.2s-.5.8-.8 1.1c-.3.4-.5.8-.8 1.2s-.5.8-.8 1.2-.5.8-.8 1.2-.5.8-.8 1.2-.5.8-.8 1.2-.5.8-.8 1.2-.5.8-.8 1.2c-.2.4-.5.8-.7 1.2-.3.4-.5.8-.8 1.2s-.5.8-.8 1.2l.1.1c.8.3 1.6.4 2.5.4 1.1-.1 2-.5 2.8-1.3l.2-.2h.2c1.5.8 3.1 1.5 4.6 2.3v.1c-.1.1-.2.2-.3.2-.7.4-1.4.7-2.2.9-1.1.3-2.2.4-3.4.3-1.3-.1-2.6-.4-3.9-.8-.4-.1-.8-.3-1.2-.4-.1 0-.2-.1-.4-.1-.1.1-.2.2-.2.4-.4.6-.8 1.2-1.3 1.7-1.4 1.6-3.1 2.6-5.3 3-1.1.2-2.2.3-3.3.2-.7-.1-1.3-.1-2-.3-.6-.2-1.3-.4-1.8-.8-1.1-.7-1.7-1.7-1.8-3-.1-.6.1-1.2.2-1.8.5-1.5 1.5-2.5 3-3 .7-.2 1.4-.4 2.1-.4h2.1c1.3.1 2.5.3 3.7.7.3.1.7.2 1 .3 1.2-.8 1.2-.8 1.3-.7z" fill="#fff"/><path d="m199.4 163.5v-.2c0-.4-.3-.7-.7-.8h-.4c-.3 0-.6.1-.9.2-.6.2-1.2.6-1.7.9-1.4 1-2.5 2.3-3.4 3.8-.3.5-.5 1-.7 1.5-.1.3-.1.6-.1.9 0 .4.3.8.8.9.3.1.7 0 1 0 .6-.2 1.2-.5 1.8-.8 1.2-.8 2.2-1.7 3-2.9.5-.8 1-1.6 1.3-2.5-.1-.3 0-.6 0-1zm-25.1 2.6v.2c0 .5.4.9.9.9.3 0 .5 0 .8-.1.4-.1.7-.3 1.1-.5.7-.4 1.3-.9 1.8-1.4 1.1-1 1.9-2.2 2.5-3.6.3-.6.5-1.3.6-2v-.7c-.1-.3-.3-.5-.5-.5-.1 0-.3-.1-.4-.1-.2 0-.4.1-.7.1-.7.2-1.3.6-1.9 1-1.2.9-2.1 2-2.9 3.2-.5.7-.9 1.5-1.1 2.3-.1.5-.2.8-.2 1.2zm9.3-7.8c.2-.3.4-.5.6-.8.5.1 1.1.2 1.6.3s1.1.2 1.6.4c.5.1 1.1.2 1.6.4 0 .1-.1.2-.2.3-.8 1-1.5 1.9-2.3 2.9-1 1.3-2 2.7-3 4-.2.2-.3.5-.3.7-.1.5.2 1.1.9 1.1.3 0 .5-.1.8-.1.7-.2 1.4-.6 1.9-1.1.4-.4.8-.9 1.2-1.4.8-1.2 1.7-2.4 2.6-3.5.5-.6 1-1.2 1.4-1.8.1-.1.2-.3.4-.4.1 0 .3.1.4.1 1.2.3 2.5.6 3.7 1 .3.1.6.1.8.2 0 .2-.3.4-.3.6h.4c.3-.1.6-.1.9-.2 2.4-.2 4.2 1.3 4.5 3.4.2 1 0 1.9-.3 2.8-.4 1.1-1 2-1.7 2.8-1.3 1.5-2.8 2.5-4.6 3.2-.7.3-1.5.4-2.3.5-.6 0-1.2-.1-1.8-.2-.3-.1-.7-.1-1-.3-.9-.3-1.7-.9-2.1-1.8-.1 0-.2.1-.2.1-.6.9-1.3 1.8-1.9 2.7-1 1.3-1.9 2.6-2.9 4-.1.1-.1.1-.2.2h-.2c-1.5-.3-3.1-.6-4.6-.9-.1 0-.1 0-.2-.1.2-.3.4-.6.6-.9s.4-.6.6-.8c.2-.3.4-.6.6-.8.2-.3.4-.6.6-.8.2-.3.4-.6.6-.9s.4-.6.6-.8c.2-.3.4-.6.6-.8.2-.3.4-.6.6-.8.2-.3.4-.6.6-.8.2-.3.4-.6.6-.8-.1-.1-.2 0-.2 0-.6.4-1.3.7-2 1.1-.5.2-1 .5-1.5.6-.9.2-1.7.1-2.4-.5s-1-1.3-.9-2.2v-.1c-.1 0-.1.1-.2.1-.8.7-1.7 1.2-2.7 1.5-1.5.4-2.9 0-4.1-1.1-.4-.3-.6-.7-.8-1.1-.3-.6-.4-1.3-.4-1.9-.1-1.1.1-2.2.6-3.3s1.1-2.1 1.9-2.9c.7-.7 1.5-1.2 2.3-1.7.7-.4 1.4-.7 2.2-.9 1.2-.3 2.4-.3 3.6 0 .2 0 .3.1.5.1 1 .2 1.8.7 2.5 1.5.3-.2.4-.2.4-.1z" fill="#fff"/></g></svg>