<svg clip-rule="evenodd" fill-rule="evenodd" stroke-linejoin="round" stroke-miterlimit="2" viewBox="0 0 560 400" xmlns="http://www.w3.org/2000/svg"><g fill-rule="nonzero" transform="matrix(2.35255 0 0 2.35255 169.094 -1123.36)"><path d="m-27.015 575.308c1.924 0 2.9 1.525 2.9 3.169 0 1.645-.976 3.171-2.9 3.171s-2.9-1.526-2.9-3.171c0-1.644.976-3.169 2.9-3.169m0 5.662c1.475 0 2.095-1.272 2.095-2.493 0-1.22-.62-2.491-2.095-2.491s-2.095 1.271-2.095 2.491c0 1.221.62 2.493 2.095 2.493"/><path d="m-23.303 575.45h.806v5.378h3.204v.676h-4.01z"/><path d="m-18.491 575.45h2.077c1.864 0 2.907.934 2.907 2.884 0 2.026-.891 3.17-2.907 3.17h-2.077zm.805 5.376h1.34c.551 0 2.034-.153 2.034-2.382 0-1.44-.534-2.315-2.019-2.315h-1.355z"/><path d="m-12.413 575.452h.805v6.053h-.805z"/><path d="m-10.26 575.45h.856l3.188 4.911h.017v-4.911h.762v6.054h-.879l-3.164-4.856h-.017v4.856h-.763z"/><path d="m.263 580.75c-.467.635-1.229.898-1.941.898-1.807 0-2.884-1.476-2.884-3.051 0-1.764.966-3.289 2.884-3.289 1.321 0 2.372.593 2.601 2.009h-.804c-.163-.916-.9-1.331-1.797-1.331-1.467 0-2.079 1.271-2.079 2.57 0 1.261.729 2.414 2.079 2.414 1.245 0 1.99-.873 1.941-1.974h-1.933v-.678h2.652v3.186h-.508z"/><path d="m5.687 577.224c-.093-.865-.669-1.237-1.5-1.237-.678 0-1.357.244-1.357 1.034 0 .746.967.854 1.941 1.078.968.219 1.934.56 1.934 1.745 0 1.287-1.264 1.804-2.366 1.804-1.356 0-2.5-.661-2.5-2.136h.762c0 1.019.848 1.457 1.764 1.457.728 0 1.533-.227 1.533-1.1 0-.832-.965-.976-1.932-1.188-.965-.212-1.94-.492-1.94-1.601 0-1.228 1.092-1.772 2.196-1.772 1.237 0 2.177.587 2.228 1.916z"/><path d="m10.368 575.45h.807v5.378h3.202v.676h-4.009z"/><path d="m15.133 575.452h.807v6.053h-.807z"/><path d="m17.093 575.45h1.103l1.907 5.088 1.914-5.088h1.103v6.054h-.763v-5.035h-.017l-1.889 5.035h-.688l-1.891-5.035h-.016v5.035h-.763z"/><path d="m24.33 575.452h.805v6.053h-.805z"/><path d="m27.882 576.13h-2.019v-.678h4.843v.678h-2.019v5.374h-.805z"/><path d="m31.391 575.45h4.177v.679h-3.372v1.927h3.144v.676h-3.144v2.096h3.399v.676h-4.204z"/><path d="m36.369 575.45h2.077c1.864 0 2.907.934 2.907 2.884 0 2.026-.89 3.17-2.907 3.17h-2.077zm.806 5.376h1.339c.549 0 2.033-.153 2.033-2.382 0-1.44-.533-2.315-2.017-2.315h-1.355z"/><path d="m-28.585 561.052c0-6.024 4.737-10.742 10.788-10.742 2.05 0 4.034.562 5.737 1.626 3.325 2.063 4.872 5.3 4.872 10.188v9.226h-5.288v-8.491c0-1.337-.035-2.809-.521-4.108-.77-1.971-2.67-3.243-4.844-3.243-3.01 0-5.364 2.416-5.364 5.499 0 3.213 2.31 5.544 5.497 5.544 1.051 0 2.081-.284 3.068-.617v5.324c-1.251.29-2.348.492-3.425.492-5.703 0-10.52-4.898-10.52-10.698"/><path d="m-5.297 560.579c0-5.036 2.797-10.118 9.048-10.118 3.201 0 6.179 1.692 7.771 4.414 1.097 1.886 1.321 3.644 1.321 5.704v10.912c-.736-.015-4.583-.098-5.289-.113v-11.379c0-2.676-1.458-4.337-3.803-4.337-2.319 0-3.759 1.661-3.759 4.337v11.501h-5.289z"/><path d="m58.706 560.745c.216-2.276.463-4.855 1.628-6.774 1.413-2.328 3.84-3.662 6.66-3.662.309 0 .62.048.927.089v5.432l-.303-.053c-3.279 0-3.519 3.984-3.679 6.62l-.118 1.496c-.204 1.624-.595 2.942-1.199 4.033-1.339 2.357-3.94 3.824-6.781 3.824-.351 0-.726-.053-1.107-.134v-5.402c.284.012.572.023.572.023 2.883 0 3.129-2.637 3.307-4.563z"/><path d="m74.966 543.392v8.225l.687-.405c1.541-.858 3.112-.926 4.535-.903 1.405.023 2.622.363 3.782 1.051 2.862 1.725 3.892 4.457 3.892 8.309v11.681h-5.29c-.003-.841-.043-11.329-.043-11.329 0-1.123-.005-4.512-3.58-4.512-2.493 0-3.983 1.656-3.983 4.428v11.413h-5.289v-27.958z"/><path d="m97.493 559.892c0-.755 0-1.536.088-2.315.49-4.549 5.262-7.268 9.148-7.268 0 0 .514.034.838.055v5.275c-.218-.019-.435-.04-.435-.04-2.401 0-4.349 1.817-4.349 4.74v11.01h-5.29z"/><path d="m31.705 561.052c0-6.024 4.737-10.742 10.788-10.742 2.051 0 4.035.562 5.737 1.626 3.324 2.063 4.872 5.3 4.872 10.188v9.226h-5.288v-8.491c0-1.337-.034-2.809-.521-4.108-.769-1.971-2.669-3.243-4.845-3.243-3.008 0-5.364 2.416-5.364 5.499 0 3.213 2.313 5.544 5.498 5.544 1.051 0 2.082-.284 3.068-.617v5.324c-1.25.29-2.348.492-3.425.492-5.703 0-10.52-4.898-10.52-10.698"/><path d="m14.505 561.023c0 5.947 4.86 10.786 10.832 10.786 2.946 0 5.456-1.016 7.462-3.016l.032-.034-2.433-3.943-.049.073c-1.004 1.45-3.334 2.232-5.012 2.232-3.383 0-6.135-2.741-6.135-6.109 0-3.381 2.763-6.135 6.16-6.135 1.016 0 2.023.254 2.911.735l.084.045v-5.049l-.043-.011c-.956-.268-1.943-.406-2.932-.406-5.997 0-10.877 4.859-10.877 10.832"/><path d="m-35.626 543.392h5.256v28.109h-5.256z"/><path d="m90.014 553.028h5.256v18.323h-5.256z"/><path d="m95.489 548.872c0 1.573-1.276 2.845-2.847 2.845-1.572 0-2.845-1.272-2.845-2.845s1.273-2.847 2.845-2.847c1.571 0 2.847 1.274 2.847 2.847" fill="#f08013"/><path d="m107.908 561.289c0 6.042 4.936 10.957 11.003 10.957 2.845 0 5.548-1.097 7.608-3.089l.167-.16-3.2-3.272-.163.168c-1.188 1.221-2.757 1.895-4.412 1.895-3.488 0-6.327-2.936-6.327-6.547 0-3.581 2.863-6.493 6.383-6.493 2.679 0 5.225 1.968 6.067 4.613h-10.846l3.399 4.135 12.081-.004.036-.184c.139-.71.209-1.431.209-2.151 0-5.993-4.916-10.868-10.958-10.868-6.091 0-11.047 4.935-11.047 11.001"/><path d="m-35.628 575.45h.807v2.606h3.187v-2.606h.805v6.054h-.805v-2.772h-3.187v2.772h-.807z"/></g></svg>