<svg clip-rule="evenodd" fill-rule="evenodd" stroke-linejoin="round" stroke-miterlimit="2" viewBox="0 0 560 400" xmlns="http://www.w3.org/2000/svg" xmlns:xlink="http://www.w3.org/1999/xlink"><linearGradient id="a" gradientTransform="matrix(43.825 43.825 -43.825 43.825 9.0875 9.0875)" gradientUnits="userSpaceOnUse" x1="0" x2="1" y1="0" y2="0"><stop offset="0" stop-color="#324bcd"/><stop offset="1" stop-color="#3dba8a"/></linearGradient><linearGradient id="b" gradientTransform="matrix(12.4685 21.5962 -21.5962 12.4685 22.0436 17.1334)" gradientUnits="userSpaceOnUse" x1="0" x2="1" y1="0" y2="0"><stop offset="0" stop-color="#3dffef"/><stop offset="1" stop-color="#a80de9"/></linearGradient><linearGradient id="c" gradientTransform="matrix(17.7389 17.739 -17.739 17.7389 20.7852 29.5351)" gradientUnits="userSpaceOnUse" x1="0" x2="1" y1="0" y2="0"><stop offset="0" stop-color="#50d3ee"/><stop offset="1" stop-color="#324bcd"/></linearGradient><g fill-rule="nonzero"><path d="m31 62c-17.1 0-31-13.9-31-31s13.9-31 31-31 31 13.9 31 31-13.9 31-31 31zm0-59.4c-15.7 0-28.4 12.7-28.4 28.4s12.7 28.4 28.4 28.4 28.4-12.7 28.4-28.4-12.7-28.4-28.4-28.4z" fill="url(#a)" transform="matrix(4.83871 0 0 4.83871 130 50)"/><path d="m34.6 12.4c2.8 1.2 4.2 4.4 3 7.3l-8.9 21.8c-1.2 2.9-4.4.2-7.2-1s-4.2-.4-3-3.3l8.9-21.8c1.1-2.8 4.3-4.2 7.2-3z" fill="url(#b)" transform="matrix(4.83871 0 0 4.83871 130 50)"/><path d="m38.4 45.1h-15.1c-3 0-5.5-2.4-5.5-5.5 0-.7.1-1.4.4-2.1l4-9.5s-.3 6 6.1 6.1h10.1c3 0 5.5 2.4 5.5 5.5s-2.5 5.5-5.5 5.5z" fill="url(#c)" transform="matrix(4.83871 0 0 4.83871 130 50)"/></g></svg>