<svg clip-rule="evenodd" fill-rule="evenodd" stroke-linejoin="round" stroke-miterlimit="2" viewBox="0 0 560 400" xmlns="http://www.w3.org/2000/svg"><g fill-rule="nonzero" transform="matrix(2.17053 0 0 2.17053 151.45 100.007)"><g transform="translate(-.0001 -.00024)"><path d="m76.202 92.14-9.03-17.241h-28.01v17.241h-39.162l5.53-14.279v-21.403l-4.23-10.922 4.23-10.923v-20.334l-5.53-14.279h75.266c7.26-.098 14.391 1.943 20.5 5.867 4.981 3.315 9.205 7.647 12.394 12.709 3.594 5.585 6.207 11.743 7.725 18.208l.134.666-.134.665c-.965 4.175-2.404 8.227-4.287 12.076-2.805 6.052-6.842 11.453-11.852 15.857l5.931 10.833 12.773 15.259zm-37.041-48.79c8.562-.002 30.792-.007 34.554-.007 1.221 0 5.273-.436 7.541-5.894-2.268-5.463-6.32-5.9-7.541-5.9-3.39 0-23.658.005-34.554.007z" fill="#001e61"/><path d="m77.219 90.461-9.032-17.24h-30.703v17.24h-35.033l4.758-12.285v-22.031l-4.109-10.609 4.109-10.609v-20.962l-4.758-12.286h72.815c6.936-.097 13.749 1.85 19.586 5.597 4.783 3.187 8.838 7.349 11.899 12.214 3.485 5.405 6.017 11.367 7.488 17.627l.068.333-.068.333c-.936 4.038-2.33 7.956-4.154 11.679-2.892 6.26-7.157 11.789-12.478 16.175l6.677 12.196 10.571 12.628zm-39.737-45.431c6.81-.001 32.19-.007 36.233-.007 6.097 0 8.701-5.829 9.343-7.574-.64-1.739-3.244-7.578-9.343-7.578-3.573 0-25.896.004-36.233.007z" fill="#fff"/><path d="m96.423 66.957h-3.71c15.785-9.273 19.88-29.522 19.88-29.522s-6.892-34.092-37.327-34.092h-70.364l3.986 10.294v21.589l-3.987 10.295 3.987 10.296v22.657l-3.986 10.294h30.903v-15.449l-3.563-1.792h36.961l9.032 17.241h33.025l-8.37-9.999zm-22.708-20.27c-4.677 0-37.912.008-37.912.008v-16.717l-3.564-1.793s36.799-.008 41.476-.008c8.401 0 11.115 9.258 11.115 9.258s-2.714 9.252-11.115 9.252" fill="#001e61"/><path d="m99.536 37.28c-.926-3.933-2.521-7.677-4.716-11.07-4.712-7.23-11.486-11.052-19.592-11.052h-39.423v1.679h39.423c7.615 0 13.733 3.459 18.181 10.283 2.038 3.176 3.539 6.665 4.445 10.327-.906 3.663-2.407 7.152-4.445 10.327-4.448 6.824-10.566 10.283-18.181 10.283h-39.423v1.679h39.423c.556 0 1.106-.02 1.65-.056l11.908 22.5h1.919l-12.009-22.691c6.575-.947 12.101-4.633 16.124-10.805 2.195-3.392 3.79-7.137 4.716-11.07l.034-.167z" fill="#fff"/><path d="m23.205 10.526c.068-.004.136-.007.204-.007 1.723 0 3.14 1.418 3.14 3.14 0 .016 0 .033-.001.049.036 1.123-.574 2.173-1.569 2.697l1.246 2.229h-1.994l-.953-1.803h-3.02v1.803h-1.833v-8.108zm-2.947 4.633h2.874c.059.007.117.011.176.011.773 0 1.408-.635 1.408-1.408 0-.018 0-.036-.001-.054.001-.022.002-.043.002-.065 0-.797-.656-1.452-1.452-1.452-.044 0-.089.002-.133.006h-2.874z" fill="#fff"/><path d="m22.348 31.425c-.095.006-.19.009-.284.009-2.338 0-4.262-1.923-4.262-4.261s1.924-4.261 4.262-4.261c.094 0 .189.003.284.009.094-.006.189-.009.283-.009 2.338 0 4.262 1.923 4.262 4.261s-1.924 4.261-4.262 4.261c-.094 0-.189-.003-.283-.009m0-1.569h.027c1.472 0 2.683-1.211 2.683-2.683s-1.211-2.683-2.683-2.683c-.009 0-.018 0-.027 0-.01 0-.019 0-.029 0-1.472 0-2.683 1.211-2.683 2.683s1.211 2.683 2.683 2.683z" fill="#fff"/><path d="m25.016 38.505c-.592-.908-1.63-1.43-2.712-1.364-.067-.005-.134-.008-.201-.008-1.365 0-2.487 1.123-2.487 2.487 0 .049.001.097.004.146-.002.035-.002.069-.002.104 0 1.385 1.14 2.525 2.525 2.525.054 0 .107-.001.161-.005 1.082.066 2.119-.455 2.712-1.363l1.422.821c-.848 1.438-2.439 2.28-4.105 2.17-2.595 0-4.531-1.628-4.531-4.252 0-.021-.001-.041-.001-.062 0-2.306 1.898-4.203 4.203-4.203.11 0 .219.005.329.013 1.666-.11 3.257.732 4.105 2.17z" fill="#fff"/></g><path d="m20.244 48.305v2.991h2.361l2.037-2.991h2.112l-2.595 3.753 2.785 4.355h-2.17l-2.126-3.446h-2.404v3.446h-1.818v-8.108z" fill="#fff"/><path d="m25.991 60.898v1.657h-5.733v1.496h4.971v1.656h-4.971v1.613h5.733v1.686h-7.566v-8.108z" fill="#fff"/><path d="m25.991 73.491v1.642h-2.918v6.466h-1.832v-6.466h-2.816v-1.642z" fill="#fff"/></g></svg>