<svg clip-rule="evenodd" fill-rule="evenodd" stroke-miterlimit="22.9256" viewBox="0 0 560 400" xmlns="http://www.w3.org/2000/svg" xmlns:xlink="http://www.w3.org/1999/xlink"><linearGradient id="a" gradientUnits="userSpaceOnUse" x1="53.42" x2="93.6022" y1="19.1285" y2="19.1285"><stop offset="0" stop-color="#737271"/><stop offset="1" stop-color="#eaebeb"/></linearGradient><clipPath id="b"><path clip-rule="evenodd" d="m61.211 38.22 4.78-14.61-12.45-9.012 15.372.032 4.72-14.63 4.722 14.63 15.375-.032-12.449 9.012 4.77 14.61-12.418-9.063z"/></clipPath><g transform="matrix(1.25743 0 0 1.25743 187.407 20)"><g fill-rule="nonzero"><path d="m144.677 201.988v13.051l-8.271 2.94.014 31.762 8.257-2.917v13.053l-71.044 25.113-71.039-25.11v-13.053l8.251 2.917.017-31.763-8.268-2.939v-13.051l8.268 2.926v-94.7l-8.282-10.265h12.387l-12.37-40.365h142.083l-12.376 40.365h12.402l-8.297 10.265v94.697zm-7.029-91.326c.501-.638 9.626-11.937 9.626-11.937h-13.309c.902-2.937 12.379-40.368 12.379-40.368h-145.409s11.467 37.431 12.365 40.368h-13.3s9.116 11.299 9.629 11.937v92.506c-2.112-.754-8.266-2.926-8.266-2.926v15.667s6.931 2.472 8.266 2.934c0 1.551-.008 26.127-.008 29.157-2.112-.751-8.258-2.914-8.258-2.914v15.67l72.27 25.543 72.275-25.546v-15.667s-6.149 2.172-8.252 2.911c0-3.027-.008-27.603-.008-29.154 1.323-.462 8.263-2.934 8.263-2.934v-15.667s-6.157 2.177-8.263 2.926z" fill="#fff"/><path d="m10.862 217.979-.017 31.765-8.251-2.92v13.056l71.039 25.115 71.044-25.115v-13.056l-8.257 2.92-.014-31.765 8.271-2.94v-13.051l-8.271 2.926v-94.697l8.297-10.265h-12.402l12.376-40.365h-142.083l12.37 40.365h-12.387l8.285 10.265v94.697l-8.268-2.926v13.051z" fill="#004b92"/><path d="m14.964 215.039v40.51l-8.263-2.923v4.346l66.932 23.678 66.937-23.678v-4.346l-8.269 2.923v-40.51l8.292-2.917-.023-4.334-8.269 2.92v-100.491l4.978-6.163h-127.29l4.975 6.163v100.491l-8.263-2.92-.02 4.334z" fill="#fff"/><path d="m75.691 110.217v120.509l52.509-18.564v-101.945z" fill="#004b92"/><path d="m71.578 110.217v120.509l-52.501-18.564v-101.945z" fill="#004b92"/><path d="m128.194 216.34-54.561 19.293-54.556-19.293v40.657l54.556 19.293 54.561-19.293z" fill="#004b92"/><path d="m124.095 222.321-50.462 17.839-50.457-17.839v31.779l50.457 17.839 50.462-17.839z" fill="#fff"/><path d="m8.161 63.697h130.961l-11.101 36.261h-108.757z" fill="#fff"/><path d="m124.095 114.471h-44.297l-.011 110.447 44.308-15.659z" fill="#fff"/><path d="m64.276 177.52-37.985-60.684v16.12l23.069 33.129v5.524l-22.658-32.411v15.568l21.138 24.571v4.306l-21.138-22.749v12.053s16.036 13.349 21.226 17.873c-3.376 2.015-2.86 10.797.907 12.121-3.872 9.604 2.648 12.489 5.823 11.925 1.876 4.093 9.618 3.569 9.618.153l.082-4.547c-7.645-1.247-8.586-17.452-.159-18.473z" fill="#fff"/><path d="m58.567 74.823c-.043-.609-.224-1.037-.559-1.338-.32-.306-.754-.433-1.281-.433-.414 0-.754.082-1.001.246-.26.173-.394.471-.394.871 0 .626.363 1.17 1.077 1.59.241.127.956.411 2.118.847 1.621.601 2.772 1.338 3.484 2.237.81.983 1.199 2.358 1.199 4.099 0 2.446-.669 4.283-1.993 5.513-1.12 1.006-2.574 1.536-4.38 1.536-1.706 0-3.135-.64-4.277-1.882-1.208-1.309-1.817-3.01-1.817-5.045h4.309c.093.799.377 1.383.864 1.763.355.275.774.436 1.242.436.451 0 .822-.11 1.128-.292.374-.246.578-.618.615-1.111 0-.709-.38-1.27-1.148-1.689-.295-.165-.799-.391-1.516-.664-1.123-.408-1.999-.807-2.591-1.173-.851-.564-1.469-1.245-1.888-2.072-.468-.964-.709-2.2-.709-3.699 0-1.829.505-3.311 1.537-4.465 1.074-1.182 2.554-1.78 4.424-1.78 1.551 0 2.793.442 3.753 1.38 1.166 1.08 1.863 2.792 2.09 5.128zm-22.853-5.964h4.512v6.628l3.963-6.628h5.222l-4.981 7.744 5.525 12.793h-5.369l-3.316-8.161-1.046 1.653v6.508h-4.51zm-15.812 0h4.513v6.628l3.963-6.628h5.227l-4.984 7.744 5.525 12.793h-5.374l-3.311-8.161-1.049 1.653v6.508h-4.51z" fill="#004b92"/><path d="m113.978 68.859h4.493v6.954h4.266v-6.954h4.49v20.537h-4.49v-7.937h-4.266v7.937h-4.493zm-6.185 7.855c-.093-1.338-.451-2.293-1.035-2.837-.391-.366-.841-.548-1.372-.548-.898 0-1.576.63-2.009 1.846-.374 1.054-.567 2.426-.567 4.119 0 3.775.89 5.672 2.673 5.672.567 0 1.032-.21 1.389-.647.507-.575.828-1.536.938-2.863h4.331c-.195 2.537-.83 4.547-1.921 6.064-1.185 1.638-2.708 2.466-4.587 2.466-2.259 0-4.045-.955-5.357-2.875-1.302-1.89-1.959-4.509-1.959-7.817 0-3.646.754-6.472 2.276-8.482 1.259-1.672 2.801-2.497 4.604-2.497 1.678 0 3.05.473 4.124 1.389.882.771 1.539 1.862 2.01 3.291.354 1.052.606 2.307.737 3.719zm-22.158-7.855h11.165v4.788h-6.672v2.956h5.621v4.791h-5.621v3.234h6.936v4.765h-11.429zm-12.714 0h4.51v15.772h6.154v4.765h-10.664z" fill="#004b92"/><path d="m70.713 244.834v5.1l-7.138 8.94 7.441 2.563v4.963l-13.257-4.731v-4.918l7.032-8.861-6.737-2.33v-5.23z" fill="#004b92"/><path d="m48.742 236.5c2.48.859 4.43 2.662 5.856 5.431 1.256 2.455 1.877 5.21 1.877 8.229 0 3.263-.647 5.732-1.939 7.393-1.389 1.809-3.314 2.288-5.752 1.463-2.642-.907-4.632-2.849-6.018-5.774-1.148-2.464-1.717-5.23-1.717-8.343 0-3.121.632-5.482 1.887-7.047 1.378-1.757 3.314-2.211 5.806-1.352m0 5.21c-.882-.295-1.588-.022-2.101.808-.516.859-.774 2.254-.774 4.21 0 1.972.258 3.563.774 4.77.505 1.231 1.219 1.97 2.143 2.322 1.018.323 1.772 0 2.245-1.009.434-.859.632-2.126.632-3.81 0-1.86-.195-3.393-.64-4.64-.502-1.421-1.256-2.308-2.279-2.651z" fill="#004b92"/><path d="m26.538 229.224 7.03 2.497c2.106.714 3.693 1.922 4.739 3.557 1.061 1.639 1.571 3.691 1.571 6.143 0 2.115-.417 3.62-1.279 4.547-1.012 1.094-2.622 1.264-4.796.533l-2.46-.856v6.735l-4.811-1.701v-21.453h.006zm4.81 6.701v4.745l2.07.72c.552.181.975.028 1.292-.199.386-.294.576-.884.576-1.777 0-.703-.168-1.287-.502-1.737-.408-.593-1.069-.919-2.013-1.245z" fill="#004b92"/><path d="m115.123 230.233 2.804-4.247-4.261 1.554-1.343 3.702z" fill="#004b92"/><path d="m83.254 253.746-5.046-9.476-4.575 1.621v21.442l4.634-1.636v-11.347l5.072 9.581 4.549-1.624v-21.464l-4.634 1.635z" fill="#004b92"/><path d="m116.101 242.135-5.04-9.473-4.572 1.61v21.45l4.638-1.627v-11.35l5.071 9.572 4.544-1.627v-21.461l-4.641 1.639z" fill="#004b92"/><path d="m97.098 244.179 1.548 7.092-3.025 1.092zm-2.934 15.903.55-2.946 4.785-1.734.584 2.59 4.796-1.7-5.275-19.565-4.89 1.695-5.224 23.312z" fill="#004b92"/><path d="m82.996 177.52 37.981-60.684v16.12l-23.063 33.129v5.524l22.652-32.402v15.553l-21.135 24.577v4.303l21.135-22.743v12.053s-16.033 13.349-21.223 17.873c3.37 2.015 2.86 10.797-.901 12.121 3.866 9.603-2.654 12.489-5.823 11.925-1.876 4.093-9.626 3.569-9.626.153l-.091-4.547c7.656-1.247 8.592-17.453.179-18.473z" fill="#004b92"/></g><path d="m40.465 93.716h66.342v26.909h-66.342z" fill="#004b92"/><path d="m44.572 97.815h58.13v18.709h-58.13z" fill="#fff"/><path d="m55.602 114.761v-11.155h-2.365v-2.174c1.69-.108 2.739-.726 3.011-1.735h2.888v15.064z" fill="#004b92" fill-rule="nonzero"/><path d="m67.572 102.96c0-.899-.212-1.273-.884-1.273-.666 0-.896.372-.896 1.273v2.554c0 .899.23 1.298.896 1.298.672 0 .884-.399.884-1.298zm-.884 12.175c-2.821 0-4.428-1.338-4.428-3.552v-1.318h3.529v1.19c0 .899.23 1.293.896 1.293.672 0 .884-.394.884-1.293v-3.058c-.711.836-1.505 1.171-2.636 1.171-1.61 0-2.673-1.109-2.673-3.153v-3.035c0-2.657 1.497-4.02 4.428-4.02 3.333 0 4.436 1.511 4.436 4.757v6.273c0 3.237-1.103 4.745-4.436 4.745z" fill="#004b92" fill-rule="nonzero"/><path d="m73.947 114.761v-2.509c0-1.664.749-2.727 1.854-4.127 1.928-2.41 3.416-3.572 3.416-4.666v-.964c0-.564-.3-.808-.901-.808-.664 0-.882.391-.882 1.293v2.055h-3.535v-2.137c0-2.22 1.599-3.538 4.414-3.538 3.03 0 4.453 1.046 4.453 3.475 0 2.571-.938 3.58-2.5 5.48-1.389 1.675-2.475 2.8-2.614 3.974h5.117v2.472z" fill="#004b92" fill-rule="nonzero"/><path d="m85.204 114.761v-2.509c0-1.664.751-2.727 1.862-4.127 1.925-2.41 3.41-3.572 3.41-4.666v-.964c0-.564-.295-.808-.907-.808-.669 0-.867.391-.867 1.293v2.055h-3.538v-2.137c0-2.22 1.585-3.538 4.405-3.538 3.033 0 4.459 1.046 4.459 3.475 0 2.571-.935 3.58-2.506 5.48-1.389 1.675-2.469 2.8-2.622 3.974h5.128v2.472z" fill="#004b92" fill-rule="nonzero"/><g clip-path="url(#b)"><path d="m53.541 0h40.19v38.22h-40.19z" fill="url(#a)"/></g><path d="m78.355 14.63 15.375-.032-12.449 9.012 4.77 14.61-12.418-9.063-12.422 9.063 4.78-14.61-12.45-9.012 15.372.032 4.72-14.63z" fill="none" stroke="#9d9d9d" stroke-width=".61"/></g></svg>