<svg clip-rule="evenodd" fill-rule="evenodd" stroke-linejoin="round" stroke-miterlimit="2" viewBox="0 0 560 400" xmlns="http://www.w3.org/2000/svg" xmlns:xlink="http://www.w3.org/1999/xlink"><linearGradient id="a"><stop offset="0" stop-color="#fe0002"/><stop offset=".62" stop-color="#7f0001"/><stop offset="1"/></linearGradient><linearGradient id="b" gradientTransform="matrix(0 -126.969 126.969 0 102.758 236.829)" gradientUnits="userSpaceOnUse" x1="0" x2="1" xlink:href="#a" y1="0" y2="0"/><linearGradient id="c" gradientTransform="matrix(0 -62.2621 62.2621 0 38.7138 172.122)" gradientUnits="userSpaceOnUse" x1="0" x2="1" xlink:href="#a" y1="0" y2="0"/><linearGradient id="d" gradientTransform="matrix(0 -62.2621 62.2621 0 234.309 172.122)" gradientUnits="userSpaceOnUse" x1="0" x2="1" xlink:href="#a" y1="0" y2="0"/><linearGradient id="e" gradientTransform="matrix(0 -126.969 126.969 0 170.265 236.829)" gradientUnits="userSpaceOnUse" x1="0" x2="1" xlink:href="#a" y1="0" y2="0"/><linearGradient id="f" gradientTransform="matrix(0 84.1404 -84.1404 0 102.758 .390759)" gradientUnits="userSpaceOnUse" x1="0" x2="1" xlink:href="#a" y1="0" y2="0"/><linearGradient id="g" gradientTransform="matrix(0 84.1404 -84.1404 0 170.265 .390759)" gradientUnits="userSpaceOnUse" x1="0" x2="1" xlink:href="#a" y1="0" y2="0"/><linearGradient id="h" gradientTransform="matrix(0 84.1404 -84.1404 0 237.865 .390759)" gradientUnits="userSpaceOnUse" x1="0" x2="1" xlink:href="#a" y1="0" y2="0"/><linearGradient id="i" gradientTransform="matrix(0 84.1404 -84.1404 0 35.1891 .390759)" gradientUnits="userSpaceOnUse" x1="0" x2="1" xlink:href="#a" y1="0" y2="0"/><linearGradient id="j"><stop offset="0" stop-color="#fe0002"/><stop offset=".35" stop-color="#7f0001"/><stop offset="1"/></linearGradient><linearGradient id="k" gradientUnits="userSpaceOnUse" x1=".642077" x2="134.447077" xlink:href="#j" y1="216.849" y2="216.849"/><linearGradient id="l" gradientTransform="matrix(-133.805 .000036 -.000036 -133.805 272.379 216.849)" gradientUnits="userSpaceOnUse" x1="0" x2="1" xlink:href="#j" y1="0" y2="0"/><g fill-rule="nonzero" transform="matrix(.990866 0 0 .990866 144.747 76.1413)"><path d="m18.605 30.036h235.787v26.099c0 38.734-10.098 79.628-32.007 114.999-19.113 30.861-47.309 57.595-85.729 74.93l-.126.064-.19-.064c-38.419-17.335-66.614-44.068-85.729-74.93-21.908-35.37-32.006-76.264-32.006-114.999z"/><path d="m119.132 236.348v-126.493h-32.768v102.871c9.78 8.762 20.701 16.7 32.768 23.622z" fill="url(#b)"/><path d="m51.628 171.387v-61.532h-25.845c5.207 21.082 13.589 41.72 25.4 60.833z" fill="url(#c)"/><path d="m247.217 109.855h-25.847v61.532l.445-.698c11.812-19.114 20.193-39.752 25.402-60.834z" fill="url(#d)"/><path d="m186.635 212.726v-102.871h-32.767v126.493c12.065-6.922 22.987-14.86 32.767-23.622z" fill="url(#e)"/><path d="m94.493.381h16.573c4.445 0 8.065 3.683 8.065 8.128v76.01h-32.767v-76.01c0-4.446 3.684-8.128 8.129-8.128z" fill="url(#f)"/><path d="m94.493 0h16.573c2.286 0 4.445.953 5.97 2.476 1.524 1.587 2.477 3.683 2.477 6.033v76.391h-33.53v-76.391c0-2.35.952-4.445 2.477-6.033 1.523-1.523 3.683-2.476 6.033-2.476zm16.573.825h-16.573c-2.16 0-4.065.826-5.463 2.223-1.396 1.397-2.222 3.365-2.222 5.46v75.565h31.942v-75.564c0-2.096-.889-4.063-2.286-5.46s-3.302-2.224-5.398-2.224z"/><path d="m161.997.381h16.509c4.445 0 8.129 3.683 8.129 8.128v76.01h-32.767v-76.01c0-4.446 3.619-8.128 8.129-8.128z" fill="url(#g)"/><path d="m161.997 0h16.509c2.35 0 4.51.953 6.033 2.476 1.525 1.587 2.477 3.683 2.477 6.033v76.391h-33.528v-76.391c0-2.35.951-4.445 2.477-6.033 1.522-1.523 3.681-2.476 6.032-2.476zm16.509.825h-16.509c-2.16 0-4.066.826-5.463 2.223s-2.285 3.365-2.285 5.46v75.565h31.94v-75.564c0-2.096-.824-4.063-2.221-5.46-1.398-1.398-3.302-2.224-5.462-2.224z"/><path d="m166.632 17.272v6.857c0 .191.063.318.127.382.063.126.189.19.443.254v.254h-3.365v-.254c.191-.063.381-.127.445-.254.064-.064.127-.19.127-.382v-9.588c0-.19-.063-.318-.127-.381s-.254-.127-.445-.191v-.317h3.873v.317c-.254.063-.379.191-.379.381 0 .126.063.254.254.444l6.285 6.477v-6.731c0-.19-.063-.318-.127-.381-.063-.063-.254-.127-.443-.191v-.317h3.302v.317c-.191.063-.316.127-.381.191-.064.063-.127.19-.127.381v9.588c0 .191.063.318.127.382.064.126.189.19.381.254v.254h-3.556v-.254c.254-.063.379-.19.379-.381 0-.127-.125-.317-.379-.571z"/><path d="m138.119 20.574-1.842-4.001-1.842 4.001zm.697 1.524h-5.079l-.825 1.587c-.063.254-.128.382-.128.572s.19.381.572.508v.254h-3.747v-.254c.19-.063.381-.127.509-.254.126-.127.254-.318.381-.635l4.19-8.7c.127-.317.19-.508.19-.699 0-.254-.19-.444-.508-.508v-.317h4.001v.317c-.318.063-.445.254-.445.445 0 .19 0 .38.127.571l4.318 8.699c.191.382.318.636.445.762.189.127.381.254.57.318v.254h-4.191v-.254c.383-.063.572-.254.572-.572 0-.064-.063-.254-.189-.508z"/><path d="m101.478 27.051.508-.953c.063-.127.127-.19.127-.19.064-.064.064-.064.19-.064.763 0 1.334.127 1.778.381.382.254.572.636.572 1.08s-.128.825-.509 1.143c-.38.254-.889.444-1.587.444-.763 0-1.334-.127-1.842-.254l.19-.445c.317.064.635.127.952.127.381 0 .635-.063.889-.19.255-.19.318-.381.318-.571 0-.191-.063-.317-.19-.444-.128-.127-.254-.254-.445-.254-.253 0-.508.126-.697.381zm6.096-5.906 1.587 2.35-.19.127c-.19-.127-.316-.191-.381-.191-.127 0-.381.127-.889.381-.952.571-1.715.953-2.35 1.143-.698.126-1.461.254-2.35.254-1.778 0-3.239-.444-4.382-1.271-.698-.508-1.207-1.079-1.588-1.841-.444-.825-.698-1.778-.698-2.73 0-1.397.381-2.604 1.207-3.619 1.206-1.524 3.047-2.286 5.461-2.286.889 0 1.651.126 2.35.317.635.19 1.397.508 2.35 1.08.508.254.762.381.889.381.064 0 .19-.064.381-.19l.19.126-1.587 2.35-.19-.126v-.191c0-.19-.064-.317-.19-.507-.19-.127-.381-.254-.763-.508-.952-.508-2.031-.826-3.11-.826-1.271 0-2.351.381-3.113 1.016-.889.762-1.333 1.715-1.333 2.984 0 1.207.444 2.222 1.333 2.921.763.699 1.842 1.016 3.113 1.016 1.079 0 2.158-.317 3.11-.825.382-.191.572-.382.763-.508.126-.19.19-.318.19-.444v-.254z"/><path d="m229.563.381h16.574c4.445 0 8.064 3.683 8.064 8.128v48.451c0 9.081-.635 18.289-1.779 27.56h-30.925v-76.011c0-4.446 3.621-8.128 8.066-8.128z" fill="url(#h)"/><path d="m43.437.381h-16.574c-4.446 0-8.066 3.683-8.066 8.128v48.451c0 9.081.636 18.289 1.779 27.56h30.989v-76.011c0-4.446-3.683-8.128-8.128-8.128z" fill="url(#i)"/><path d="m43.437 0h-16.574c-2.35 0-4.446.953-5.971 2.476-1.523 1.525-2.477 3.557-2.54 5.779v49.022c.063 4.509.191 8.954.508 13.462.318 4.572.953 9.208 1.525 13.779l.063.381h31.498v-76.39c0-2.35-.953-4.445-2.477-6.033-1.587-1.523-3.683-2.476-6.032-2.476zm-16.574.825h16.573c2.096 0 4.063.826 5.461 2.223s2.224 3.365 2.224 5.46v75.565h-29.975c-.508-4.445-1.206-8.89-1.46-13.398-.317-4.572-.508-9.208-.508-13.717v-48.449c0-2.096.889-4.063 2.286-5.46 1.397-1.398 3.304-2.224 5.399-2.224z"/><path d="m70.615 20.574-1.842-4.001-1.841 4.001zm.698 1.524h-5.079l-.763 1.587c-.127.254-.19.382-.19.572s.19.381.572.508v.254h-3.747v-.254c.189-.063.38-.127.508-.254.127-.127.254-.318.381-.635l4.191-8.7c.127-.317.19-.508.19-.699 0-.254-.19-.444-.508-.508v-.317h4.064v.317c-.382.063-.509.254-.509.445 0 .19.064.38.127.571l4.318 8.699c.19.382.317.636.509.762.126.127.316.254.507.318v.254h-4.127v-.254c.317-.063.508-.254.508-.572 0-.064-.063-.254-.127-.508z"/><path d="m33.784 19.685-1.715 1.397v3.047c0 .191 0 .318.127.382.063.126.191.19.382.254v.254h-3.557v-.254c.254-.063.382-.127.444-.254.063-.064.127-.19.127-.382v-9.588c0-.19-.063-.318-.127-.381-.063-.063-.19-.127-.444-.191v-.317h3.557v.317c-.19 0-.318.127-.382.191-.127.063-.127.19-.127.381v3.937l4.636-3.747c.19-.19.318-.317.318-.444 0-.19-.191-.254-.509-.318v-.317h4.699v.317c-.19 0-.381.063-.444.127-.063.063-.317.254-.699.571l-.635.508-3.873 3.112 4.382 5.207c.381.508.698.826.889.953.127.127.381.254.635.318v.254h-4.382v-.254c.254-.063.382-.19.382-.318 0-.126-.128-.318-.382-.635z"/><g fill="#fff"><path d="m47.755 105.665h13.526c.444 0 .761-.064 1.015-.254.255-.19.445-.572.572-1.08h.571v7.113h-.571c-.127-.508-.317-.89-.572-1.08-.254-.19-.57-.317-1.015-.317h-20.702v-.636c.508-.126.889-.253 1.079-.507.191-.254.317-.635.317-1.08v-19.686c0-.444-.126-.761-.317-1.016-.19-.19-.508-.38-1.079-.572v-.635h8.509v.635c-.508.127-.825.318-1.016.572-.19.254-.317.571-.317 1.016zm26.861-5.908v5.907h15.241c.444 0 .762-.064 1.016-.254s.445-.572.571-1.08h.572v7.113h-.572c-.126-.508-.317-.89-.571-1.08s-.571-.317-1.016-.317h-22.417v-.636c.509-.126.825-.253 1.079-.507.19-.254.318-.635.318-1.08v-19.685c0-.444-.128-.761-.318-1.016-.19-.19-.57-.38-1.079-.572v-.635h21.781c.445 0 .762-.064 1.017-.254.254-.19.444-.571.571-1.08h.571v7.112h-.57c-.127-.571-.317-.889-.571-1.079-.255-.19-.571-.318-1.017-.318h-14.606v5.271h9.018c.444 0 .825-.063 1.016-.254.254-.19.445-.571.636-1.08h.57v6.922h-.57c-.19-.508-.382-.889-.572-1.08-.254-.19-.635-.318-1.079-.318zm29.783.383v7.683c0 .445.126.762.317 1.017.19.254.508.444 1.079.571v.636h-8.509v-.636c.444-.126.825-.253 1.016-.507.19-.254.317-.635.317-1.08v-19.686c0-.444-.127-.761-.317-1.016-.19-.19-.508-.38-1.016-.572v-.635h15.685c3.111 0 5.461.508 7.049 1.397.952.572 1.651 1.333 2.159 2.35.508 1.016.762 2.159.762 3.365 0 2.414-.825 4.191-2.413 5.334-1.651 1.207-4.191 1.779-7.557 1.779zm0-4.381h8.255c1.524 0 2.54-.128 3.175-.445.826-.381 1.271-1.143 1.271-2.286 0-1.079-.444-1.904-1.271-2.286-.635-.317-1.65-.444-3.175-.444h-8.255zm30.29 3.998v5.907h15.241c.445 0 .762-.064 1.016-.254s.445-.572.572-1.08h.572v7.113h-.572c-.127-.508-.318-.89-.572-1.08s-.57-.317-1.016-.317h-22.417v-.636c.508-.126.825-.253 1.079-.507.19-.254.318-.635.318-1.08v-19.685c0-.444-.128-.761-.318-1.016-.19-.19-.571-.38-1.079-.572v-.635h21.781c.445 0 .763-.064 1.017-.254s.445-.571.572-1.08h.57v7.112h-.57c-.127-.571-.318-.889-.572-1.079s-.571-.318-1.017-.318h-14.605v5.271h9.018c.445 0 .824-.063 1.016-.254.254-.19.445-.571.635-1.08h.572v6.922h-.572c-.189-.508-.381-.889-.57-1.08-.256-.19-.635-.318-1.08-.318zm29.275-5.587v13.652c0 .445.064.826.318 1.017.189.254.508.444 1.016.571v.636h-7.938v-.636c.445-.126.826-.253 1.016-.507.191-.254.318-.635.318-1.08v-19.685c0-.444-.127-.761-.318-1.016-.189-.19-.508-.38-1.016-.572v-.635h9.207v.635c-.635.191-.951.444-.951.826 0 .38.254.761.697 1.207l12.956 12.827v-13.272c0-.444-.064-.761-.254-1.016-.254-.254-.572-.444-1.08-.572v-.635h7.938v.635c-.508.127-.826.318-1.016.572-.191.254-.318.571-.318 1.016v19.685c0 .445.127.762.318 1.017.189.254.508.444 1.016.571v.636h-8.572v-.636c.635-.063.889-.38.889-.761 0-.19-.064-.381-.254-.636-.127-.19-.508-.635-1.143-1.27zm51.246 7.24 3.621 5.334-.508.381c-.318-.254-.572-.381-.826-.381-.191 0-.762.254-1.65.825-1.969 1.143-3.748 1.905-5.207 2.35-1.525.444-3.24.699-5.207.699-3.938 0-7.177-.953-9.653-2.857-1.396-1.08-2.477-2.414-3.303-4.065-.889-1.714-1.396-3.619-1.396-5.714 0-2.794.824-5.334 2.477-7.494 2.539-3.365 6.541-5.08 11.812-5.08 1.969 0 3.684.254 5.271.699 1.523.444 3.238 1.207 5.207 2.35.889.572 1.459.826 1.65.826.254 0 .508-.127.826-.382l.508.382-3.621 5.27-.506-.318c.063-.19.063-.318.063-.318v-.317c0-.698-.953-1.46-2.857-2.35-1.842-.825-3.684-1.27-5.588-1.27-2.604 0-4.763.698-6.415 2.095-1.969 1.524-2.922 3.493-2.922 5.906 0 2.476.953 4.445 2.922 5.969 1.652 1.397 3.812 2.032 6.415 2.032 2.031 0 4.063-.508 6.096-1.523 1.588-.763 2.35-1.461 2.35-2.096 0 0 0-.254-.063-.572zm15.813-13.272v19.685c0 .445.127.762.318 1.017.189.254.506.444 1.078.571v.636h-8.509v-.636c.443-.126.824-.253 1.016-.507.191-.254.316-.635.316-1.08v-19.686c0-.444-.125-.761-.316-1.016-.191-.19-.508-.38-1.016-.572v-.635h8.509v.635c-.572.127-.889.318-1.078.572-.191.254-.318.571-.318 1.016z"/><path d="m239.277 49.975h-4.189c-.064 0-.127 0-.191.063-.063.064-.127.127-.127.254h-.189v-1.714h.189c0 .127.064.19.127.254.064 0 .127.063.191.063h5.27c.127 0 .191-.063.256-.063.063-.064.063-.127.125-.254h.127v1.27l-2.984 4.89c-.127.19-.189.318-.189.381 0 .127.127.191.316.254v.19h-2.412v-.19c.127-.063.254-.126.381-.19.063-.064.191-.19.316-.445z"/><path d="m167.013 54.737 1.143-1.523.127.063c0 .127-.063.191-.063.254 0 .127.189.318.443.444.508.382 1.143.572 1.777.572.51 0 .891-.127 1.145-.318.316-.254.443-.571.443-.953 0-.317-.127-.635-.381-.825-.316-.254-.697-.318-1.207-.318-.379 0-.697 0-1.016.127-.316.126-.508.254-.508.381 0 .063 0 .127.064.19l-.127.127-1.715-1.715.127-.127h.064c.125 0 .254-.127.254-.318v-1.397c0-.126-.064-.19-.064-.254-.064-.064-.127-.064-.254-.126v-.128h5.27c.064 0 .129-.063.191-.063.063-.064.127-.127.127-.254h.191v1.778h-.191c0-.126-.064-.254-.127-.254-.063-.064-.127-.064-.191-.064h-3.809v1.397c.508-.254 1.143-.38 1.842-.38.951 0 1.65.19 2.221.635.445.444.699.953.699 1.587 0 .508-.127.953-.443 1.334-.51.699-1.334 1.016-2.541 1.016-.826 0-1.461-.126-2.031-.381-.191-.063-.383-.19-.699-.381-.127-.063-.254-.127-.381-.127-.063 0-.127.064-.254.127z"/><path d="m102.621 49.847c-.509 0-.889.127-1.207.382-.254.19-.381.444-.381.761 0 .318.127.635.381.826.318.254.698.381 1.207.381.508 0 .889-.127 1.206-.381.254-.191.382-.444.382-.762 0-.381-.128-.635-.382-.825-.317-.254-.698-.382-1.206-.382zm-2.984 5.335.825-1.651.126.127v.19c0 .126.064.254.318.381.127.063.381.19.635.254.317.064.571.064.826.064.508 0 .953-.127 1.333-.382.255-.19.444-.444.572-.698.127-.254.19-.572.253-1.016-.316.318-.698.508-1.016.635-.317.127-.698.19-1.143.19-.699 0-1.334-.19-1.842-.507-.254-.191-.508-.445-.636-.762-.19-.254-.253-.572-.253-.953 0-.699.316-1.271.889-1.651.571-.444 1.27-.635 2.096-.635.953 0 1.714.254 2.223.699.381.317.635.698.825 1.207.127.444.254.952.254 1.46 0 1.016-.317 1.905-1.016 2.54-.635.636-1.461.953-2.54.953-.382 0-.699 0-1.017-.064-.317-.063-.635-.19-1.016-.38-.128-.064-.254-.064-.317-.064-.064 0-.128 0-.19.064-.064 0-.064.063-.064.063z"/><path d="m33.911 51.308v-1.778h.19c0 .127.063.19.063.253h.317l.381-.126v-.254c0-.126 0-.19-.063-.254 0-.064-.127-.064-.19-.126v-.128h1.969v.128c-.063.063-.19.063-.19.126-.063.063-.063.127-.063.254v5.588c0 .126 0 .19.063.254 0 .064.127.126.19.126v.19h-1.969v-.19c.063 0 .19-.063.19-.126.063-.063.063-.127.063-.254v-4.191l-.444.127c-.127 0-.19.063-.19.127-.063 0-.127.126-.127.254z"/><path d="m67.25 194.057c5.589-42.736 34.608-70.485 69.281-70.485 34.608 0 63.629 27.749 69.218 70.485-.889 1.143-1.842 2.223-2.858 3.365-4.445-44.196-32.64-73.089-66.359-73.089-33.784 0-61.979 28.893-66.424 73.089-1.016-1.143-1.969-2.223-2.858-3.365z"/><path d="m128.212 176.149c-.063.254-.254.444-.444.444-.254 0-.444-.254-.444-.444 0-.636 1.143-1.206 2.096-1.65.509-.255.953-.509 1.08-.636.126-.063.889-.508 1.523-.825.508-.255 1.017-.444 1.144-.444h.063c0-.064.064-.064.128-.064.19-.063.444.064.507.254.128.255 0 .509-.253.572 0 .063-.127.063-.191.063-.126.063-.19.063-.253.063l-.763.381c-.571.254-1.27.636-1.333.698-.191.191-.698.445-1.271.698-.764.383-1.589.827-1.589.89zm15.177 49.404c.129.19.064.381-.127.508-.127.063-.316 0-.443-.127 0-.064-.127-.127-.318-.317-.254-.191-.508-.445-.508-.445h-.189l-.127-.19c0-.063-.191-.254-.383-.444-.063-.063-.063-.127-.063-.127-.191 0-.381-.127-.381-.317s.127-.381.316-.381c.191 0 .381.19.572.381.254.19.443.444.508.572.191.126.445.316.635.444.254.189.445.379.508.443zm.826-89.916c.063.189-.063.317-.254.38-.189 0-.318-.126-.381-.316 0-.191-.381-.509-.762-.889-.254-.255-.572-.509-.699-.763-.063-.063-.254-.127-.508-.317-.189-.19-.381-.317-.445-.317-.127-.063-.254-.254-.189-.445.063-.19.254-.253.445-.19.063 0 .316.19.57.382.318.254.635.444.635.507.127.191.381.445.635.699.445.379.89.823.953 1.269zm-4.065 86.994-.316-.19-.191-.126c-.381-.064-.445 0-.57-.255-.129-.063-.191-.127-.256-.127-.189-.063-.316-.317-.254-.571.064-.254.318-.381.572-.254.127 0 .635.254 1.08.508h.063c.064.064.127.064.191.064.254.253.635.57 1.016.825.508.444 1.08.889 1.143 1.016.318.444.381.508.572.571.063 0 .127.063.254.128l.064.063c.125.063.254.19.316.254l.697.889c.826.444.891.064 1.906.255-1.143 1.524-1.143.254-1.65 1.587.063 0 .443.128.57.191.191 0 .254-.063.381-.128.191-.126.445-.063.572.19.127.19.127.444-.127.572-.064.063-.127.126-.191.126-.697.445.635.19-.697.382-.508.063-.826-.063-1.018-.254h-.125c-.191-.063-.445-.063-.572-.063-.254 0-.445-.19-.445-.444 0-.255.191-.444.445-.444h.316v-.064c-.762.064-.762.064-1.396-.381-.508-.762-1.461-.889-2.158-1.206l-.127-1.271-.699-.444c.318-1.525.318-.065.634-1.399zm1.207-1.079.064-.571c-.635-.825-.51-.444-.191-1.206 0 0 .063-.128.063-.19l-1.143-.382-.127-1.206-1.904-.698.635-.445c.254-.253.635-.381.953-.952-.445-.19.762-.508-1.525.063-.762.19-.635.571-1.333.127.509-.508 1.714-1.396 2.794-1.524l2.539 1.779h.51c-.318-1.271-.445-.763-.762-1.905 1.523.254.762.317 1.459.824 1.207.89.826-.126 1.906.509l-1.143.444c.125 1.524.697.763 1.459.826l.508.19c-.57.825-.635.381-1.588.825.129 1.016 0 .381.256 1.143 1.08-.19.316 0 .57.254-.762.509-.762.128-1.396.699.127 1.333.064-.127.762 1.206-.381.635-.762.698-.381 1.523l1.08 1.207c-.064 0-.191 0-.191.063l-.508.127c-.191-.063-.445-.254-.826-.571h-.063c-.191-.127-.254-.19-.381-.254-.064 0-.064-.063-.254-.317-.191-.19-.762-.699-1.334-1.144-.189-.126-.318-.254-.508-.444zm-2.285 7.683c.254-.063.508 0 .57.254.127.255 0 .509-.191.571-.063.063-.125.063-.189.063-.127.381-.189.381-.699.381-.189.064-.443.128-.635.128-.254 0-.443-.19-.443-.444s.189-.444.443-.444c.191 0 .445-.128.699-.318.189-.064.316-.127.445-.191zm7.301-11.175c.064-.19.318-.317.572-.255.191.064.316.318.254.572-.063.127-.189.381-.381.571-.127.191-.316.382-.508.444-.191.063-.443-.063-.508-.317-.064-.254.064-.508.254-.571l.127-.127c.063-.127.19-.254.19-.317zm1.08 2.413c.254 0 .445.254.445.508 0 .19-.191.444-.445.444-.254-.063-.254.127-.572.127-.254 0-.443-.254-.443-.508s.254-.381.443-.381c.064 0 0 0 .064-.063.192-.064 0-.127.508-.127zm.381 1.587c.254-.063.445.127.508.381.064.254-.127.444-.316.509-.318.063-.191.254-.635.254-.254 0-.445-.19-.445-.444 0-.444 0-.254.381-.444.253-.192.253-.192.507-.256zm-49.849-2.54c.254-.063.508.064.571.318.063.19-.063.444-.254.571-.255.063-.445.127-.635.254-.19.063-.318.127-.509.19-.254.063-.507 0-.571-.254-.063-.255 0-.509.255-.571.126-.063.254-.128.444-.19.192-.128.445-.192.699-.318zm3.619 1.08c.19.127.254.444.128.636-.128.189-.382.253-.572.126h-.063c-.063-.063-.063-.19-.127-.19-.254.064-.508-.127-.508-.381s.126-.445.38-.508c.191 0 .509.19.699.317zm.635 1.206c.254 0 .444.19.444.444 0 .255-.19.444-.444.444h-.127c-.254 0-.254 0-.571-.063-.254-.063-.381-.316-.381-.507.063-.254.317-.444.572-.382.189.063.189.063.38.063h.127zm34.102-90.679c-.19.128-.254.382-.128.636.064.19.382.254.572.127.254-.127.508-.19.762-.254.254.127.254 0 .699-.127h1.335c-.889 1.143-1.08.825-2.414 1.397-.381.126-.699.316-.825.316-.254 0-.444.191-.382.444 0 .255.191.445.444.445.254 0 .636-.19 1.144-.381.191-.127.445-.255.699-.317.254-.127.826-.127 1.205-.317.191.19.256.508-.189.952-.127.127-.127.19-.189.317 0 0-.064.063-.129.063l-.57.254-.127.063c-.318.127-.572.255-.826.381-.381.19-.635.318-.698.318-.19.126-.255.38-.127.635.127.19.381.254.571.126l1.271-.57c.824-.064.506 0 .76.189-.063.128-.125.255-.189.318-.127 0-.254.063-.316.19-.191.063-.318.19-.51.317-.189.127-.443.254-.635.317-.189 0-.381.254-.381.444.064.254.254.444.508.444.127-.063.318-.063.445-.127.318.064.318.19.762.064.762-.191.57-.318.699-.636h1.143c.381 0 1.334-.127 1.523-.508 0-.063 0-.063.064-.127v-.063c-.064-.063-.129-.127-.191-.19-.316-.381-.697-.89-1.016-1.016-.064 0-.127-.064-.191-.064l-.063-.127c-.127-.127-.063-.317.063-.444.127-.127.318-.063.445.063.445.19.953.698 1.27 1.143.127.128.254.255.318.318.508.508.254.127.635.825.127-.063.381-.127.697-.317.129 0 .445-.381.445-.445.064-.063 0-.19 0-.316.127 0 .254-.128.381-.254 0-.064.064-.128.064-.128 0-.063.063-.127.063-.127.064-.254.064-.508-.127-.698-.063-.127-.254-.889 0-1.143 0 0 .064-.064.064-.127.063-.063.063-.127.127-.191l.762-.381c-.953-.698-.889 0-1.588-.825.318-1.27.826-.063 1.27-1.46-1.078-.763-1.016-.128-1.904-.064-.508 0-.762-.126-1.08-.316-.189-.318-.443-.698-.824-.953-.445-.381-.953-.636-1.334-.636-.254 0-.445.191-.445.445 0 .19.191.445.445.445.063 0 .191 0 .316.063.191.444.318.127.381.762h.129c.254.127.57.445.76.635l.191.064.064.254s.189.19.316.444c.064.063.191.19.191.19.127.063.254.254.189.444-.127.128-.316.254-.443.19-.127-.063-.318-.253-.445-.444-.127-.19-.254-.381-.381-.571 0 0-.063-.063-.127-.127-.127-.127-.381-.381-.445-.381-.127-.064-.316-.127-.443-.19l-.127-.063c-1.144-.124-3.367-.187-4.383.383zm3.239 1.017h-.064zm-.254 4.953c0 .063.063.063.063.063h.191c-.129 0-.191 0-.254-.063zm9.588 8.889c.191-.063.443.128.443.381.064.128 0 .318-.127.382-.57.762-.824.635-.951.444-.508.254-1.143.571-1.461.571-.254 0-.445-.19-.445-.444 0-.255.191-.444.445-.444.127 0 .635-.255 1.08-.509.381-.19.762-.381 1.016-.381zm-4.318-2.349c-.254 0-.443-.254-.381-.507 0-.191.191-.382.445-.382.443.063.635.254.824.382.191.063.318.381.254.571-.063.254-.316.38-.508.317-.189-.063-.254-.128-.316-.254-.064.001-.127-.063-.318-.127zm-1.016-2.476c-.254-.064-.445-.255-.381-.509 0-.254.189-.444.443-.381.064 0 .191.064.318.064.127.063.191.126.316.19.129.189.254.316.191.57v.128c-.127.254-.381.381-.572.254-.125-.063-.254-.191-.254-.317h-.061zm-1.08-1.397c-.189-.063-.318-.381-.189-.571.063-.254.316-.317.57-.254l.318.19c.189.063.318.317.254.571-.127.191-.381.317-.572.254zm7.111-8.446c.255 0 .446.19.446.444s-.191.444-.446.444h-.063c-.254.381-.697.571-1.207.571-.381.128-.826.254-1.332.254-.191 0-.445-.19-.445-.444s.254-.444.445-.444c.635 0 1.143-.254 1.586-.508.382-.19.7-.38 1.016-.317zm-4.697-2.794c.189.127.316.381.254.571-.064.254-.318.382-.508.317-.254-.063-.383-.127-.508-.19-.256-.127-.381-.127-.891-.19-.254 0-.443-.19-.443-.445 0-.253.189-.444.443-.444.699 0 .891.128 1.207.255.128.063.255.063.446.126zm3.365 1.333c.254.064.381.318.316.571-.063.254-.254.382-.508.318 0 0-.316-.064-.508-.19-.189-.064-.381-.19-.381-.444-.063-.255.127-.445.316-.509.191 0 .318.063.383.19 0-.063 0-.063.063-.063.128.064.319.127.319.127zm2.859 6.478c.127-.063.316 0 .381.063h.381c-.063 1.016-.953 1.46-1.969 1.65.064-.063.064-.127.064-.19-.573.254-1.144.508-1.653.698-.254.128-.443 0-.57-.254-.064-.19 0-.507.254-.571.443-.189 1.08-.444 1.586-.698.637-.317 1.145-.571 1.526-.698zm-4.32 1.777c.191 0 .381.19.381.444 0 .255-.189.444-.443.444h-.064c-.127 0-.445-.063-.445-.063-.189.127-.508.063-.635-.127-.063-.255 0-.509.191-.635.189-.128.699-.128.953-.064h.062zm1.969 2.286c.254.128.318.382.254.572-.127.254-.381.316-.635.254 0-.063-.254-.254-.445-.382-.127-.127-.254-.253-.316-.381-.129-.254 0-.508.254-.57.189-.128.443 0 .57.253 0 0 0-.063.064 0 .127.127.254.254.254.254zm.824 3.493c.255 0 .511.128.511.382 0 .253-.191.508-.382.508s-.191.063-.254.063c-.064.063-.191.127-.445.127-.189 0-.381-.254-.381-.508 0-.19.191-.382.381-.382.127-.062.254-.19.57-.19zm-1.84.634c.254 0 .443.191.443.445s-.189.445-.443.445h-.762c-.191-.064-.445-.255-.445-.509s.254-.444.445-.444zm10.732 8.193c-.508.127-.826.317-.889.317-.127.127-.443.127-.572-.063-.189-.19-.189-.444 0-.635.064 0 .953-.444 1.715-.698.191-.063.381-.128.572-.19 0-.063 0-.191.063-.445h-1.27l-.762.127c.381-1.079-.189-.189.699-.952 1.27-1.079 1.842-.572 2.096-1.333-1.842-.826-3.113.698-3.875.889l.699-.889c.316-.254.381-.382.826-.635 1.27-.89 1.205-.318 1.65-1.334-1.588-1.08-2.223.698-3.111.825.127-.698 1.586-2.223 3.238-2.413l1.016.063c-.189-.698-.572-.635-1.396-.698-2.414-.063-1.65-.254-1.906-.698.572-.509-.697-.254.891-.444 1.332-.19 3.746 1.587 4.445 2.412.063.382-.064.191.254.382.254.381.063.508.57 1.27.381.508 0-.19.381.636l.826.253-.381 1.08c0-.063-.064.127-.064.19l.826.444c.063-.063.191-.127.381-.19.826-.317 2.096-.826 2.795-.826.254.064.443.254.443.509 0 .254-.189.444-.443.444-.572 0-1.715.444-2.477.762-.508.19-.891.318-1.018.318s-.189-.064-.254-.128c-.063.128-.125.382-.189.826.189.063.316.127.381.19.127-.063.318-.063.443-.128.254-.063.51-.126.699-.189.445-.064 1.27-.445 2.031-.825.699-.255 1.271-.572 1.525-.509.254 0 .443.19.443.444s-.254.444-.443.444c-.064 0-.572.19-1.207.445-.699.38-1.588.762-2.16.889-.189.063-.379.127-.635.19-.254.317-.508.063-1.205.508.127 1.333.697.636 1.588 1.461-2.414 1.333-1.08 1.079-2.16 1.715-2.223-1.461-1.016-2.159-2.857-2.096.381 2.286 1.016 1.968 1.461 2.349 1.842.509 2.285-.635 3.873-.253-.189.762-.189.889-.889 1.143-1.27.444-.889-.317-1.27.508 1.143.952.635-.571 2.094.571-1.396 2.16-2.348-.952-4.254-1.396l.318 1.396.697 1.017-2.412-.762c-1.777-.635-1.078.508-3.303.889.51-1.017.51-.635 1.207-1.271l.381-.508c.191-.317.064-.063.254-.508l-1.016.063c-1.334.699-.508.952-2.223.825l.191.889c.316.635.697.382.951 1.144-1.016-.063-.635-.317-1.65-.19.127.762.762 1.461 1.334 1.777.445 0 .824-.507 1.459-1.016.51-.444.764-.762 1.715-.889-.316.952-1.016 1.206-1.969 1.778-1.27.762-1.016.57-2.412.444.127.889.064.508.508 1.016l.381.317c.064 0 .254.19.318.254.699-.952-.064 0 .762-.571l1.143-.635c.064-.063.127-.19.191-.19.063-.064.127-.127.189-.19.699-.509.064.254.699-.444.316-.318 0-.064.316-.444.254-.382 0-.19.51-.445l-.127 1.524c-.064.127-.383 1.143-.445 1.396l.445.444c.063 0 .316.19.381.255v.508c-1.842.19-1.334.063-2.668.889-1.27.763-.889.889-2.477.635l.064.698c.063.064.125.128.189.19.064.064.127.128.127.191.064 0 .127.063.127.127l.572.444c.824-.317.381-.317 1.396-1.079.572-.509.699-.635 1.715-.699-.316 1.461-1.842 1.715-3.111 2.795l-1.143-.382c0 .571.189.826.508 1.207l.762.698c.063-.063.127.063.189.063-.063.063-.127.063-.189.063-.064.063-.127.063-.191.063l-.316.063c-.064 0-.572-.127-.762-.19 0 1.588.824 1.333 1.396 2.223-.699.381-.381.063-1.396 0 .127.825.381 1.206.889 1.715 1.334-.064.316.254 1.207-.509.889-.698 1.523-1.651 2.539-1.079-.318.825-1.396 1.016-2.223 1.46-1.904.953 0 .763-2.477.572.127.762.254.952.635 1.396l.826.19c.254-.444.316-.19.57-.381.764-.508 1.145-1.143 2.605-1.206l-.129.825v1.016c.826.318.51.127.826.699l-.508 1.206c.318.255.064.255.254.571l.445.444c-.064 0-.127.063-.191.063l-.443.255c-.445.317-.064-.064-.445.38.127 1.588-.191.255.953 1.207-.445 1.144-.508-.381-.891 1.461-1.332.063-2.158.571-3.047 1.079-.953-.508-1.08-.889-2.35-.889.316 1.396.635.127 1.715 2.604 1.523-.191.189 0 2.793-1.778.254-.444-.316-.635 1.143-.444.572.063.51.127.891.444 0 1.461-.318.382-.826 1.461 1.016 1.271.635.254 1.143 2.031.254.826.635 1.08 1.018 1.905-.572 1.397-.826 1.144.506 2.286-.506.444-.443.572-.125 1.461.824 0 1.078.19 1.84.063.826-.063.572-.635 1.461.128-.572.889-.316.317-1.334.698v1.143l1.08.381c-.697 1.08-1.016.191-1.332 1.461.506.508.697.318 1.27.698-.635 1.207-1.145.255-1.398 1.461.572.444.764.127 1.461.953-.762.316-1.08.316-1.396 1.016.824.952.508.254 1.461.762l-.383.19c-.951.254-1.205-.063-1.904-.444l-1.016-.698c-.064 1.333.064 1.143.889 1.905.381.316.254.189.508.508-1.205.381-1.586-.382-1.904-1.08 0-.063 0-.127-.064-.19l-.189-.254c-.254-.444-.191-.063-.635-.763.443-.571.127-.316.953-.571-.318-1.587-.445-.762-.764-1.904.764.063.953.254 1.461.508l-.063-.825v-.128l-.891-.254c0-1.523.318-.19.51-1.651-.826-.635-.572-.507-1.461-.063-.064-1.778.381-.762.762-2.223-1.396.254-.508.571-1.65.635 0-.635.125-1.206 0-1.778-.191-.952-.383-.508-.699-1.65l.189.063c-1.586-1.017-.063-.127-.381-1.778h-1.586l1.016-.698.443-.636c.191-.316 0 .191.191-.444-2.033-.127-1.65 1.144-2.795.636l1.016-1.08c.064-.063.129-.063.191-.127 0-.127.127-.063.189-.127l.699-.444c.191-.317.254-.508.445-.889l-.508-.064c-.889.064-1.08.128-1.588.953l-1.65-.444c-1.906-.19-1.461-.063-2.604.444-1.842.89-.699 1.016-1.652.826-1.208-.255.127.38-.762-.635l1.525-.891c.889-.57.951-.38 1.777-1.205l-1.652-.509c.445-1.587.889 0 1.525-1.969-1.016-.825-1.08 0-1.334-1.396l.826-.19h1.461c.063-.763-.191-.89-.445-1.27-2.158-.444-1.207 1.46-2.857.38.254-1.079-.381-.317.953-.889l1.016-.571 1.396.254c.254-.127.889.063.318-.889l-1.971-.19c-.316-.064-.506-.064-.635-.128l-.063.063c-.572.255-1.143.509-1.396.699-.191.127-.445.127-.572-.064-.19-.19-.128-.507.064-.635.316-.254.889-.57 1.523-.825.762-.317 1.588-.635 2.096-.825 0-.063 0-.19.063-.317-.635-.508-.951-.254-1.904-.382.699-1.205 1.904-.889 2.285-1.841-.57-.381-.443-.127-1.523-.381-.063 0-.127 0-.189-.063 0-.063-.127-.063-.191-.063.318-.826-.063-.317.889-.826.762-.444.508.255.826-.889-.572-.254-.953-.317-1.271-.317l-.316.191c-.254.126-.572.253-.826.444-.254.126-.443.253-.762.253-.127 0-.316.063-.508.063-.189 0-.382-.254-.382-.508 0-.19.192-.444.382-.381.445 0 1.08-.381 1.715-.698.381-.19.762-.381 1.143-.571.191-.063.318 0 .445.127.254-.127.445-.318.57-.509-.316-.444-.697-.508-1.078-.508-.508.317-1.207.698-1.842 1.017-.953.508-1.843.952-2.161 1.016-.254.063-.508-.063-.57-.317 0-.254.127-.508.381-.572.189 0 1.016-.444 1.905-.889.381-.19.699-.381 1.016-.571.445-.254.572-.381.889-.508.318-.127.51-.318.637-.381.127-.127.316-.127.443 0 .318-.127.256-.127.318-.762-.508-.19-.953-.19-1.398-.128 0 .128-.063.191-.125.254-.064 0-.254.128-.445.254-.189.064-.381.19-.443.19-.318.128-.572.318-.826.572-.572.444-1.208 1.017-2.731 1.017-.254 0-.445-.255-.445-.509 0-.19.191-.444.445-.444 1.205.063 1.715-.382 2.159-.762.318-.318.635-.572 1.207-.699 0 0 .127-.126.254-.19l.254-.127c.127-.063.191-.127.318-.127.254-.063.508-.19.697-.254 1.207-.317 1.018.063 1.207-1.079-.445-.19-.889-.254-1.334-.19-.57.381-1.334.952-1.904.952-.064 0-.127.063-.191.063-.697.508-1.335 1.017-1.905.952-.381.255-.826.381-1.207.381-.254 0-.443-.19-.381-.444 0-.254.191-.444.445-.444s.697-.254 1.207-.571c.635-.381 1.333-.826 2.032-.826.254 0 .953-.444 1.396-.761.127-.128.316-.254.445-.318.063-.127.127-.19.189-.19.127-.063.254-.063.318-.127h.063c.127-.19.191-.381.191-.571-.826-.444-.826-.063-1.461-.508 1.715-1.651 1.65-.444 2.031-1.715-.635-.381-1.523-.127-2.475-.127.379-.825-.129-.254.635-.825.762-.636 1.459-.127 1.84-1.017-.508-.952-1.904-.317-2.539.064-2.478 1.396-1.396 1.333-2.224.57l4.7-2.54c-.635-.316-.826-.508-1.016-.635-.127-.127-.127-.189-1.461-.254-.191 0-.381-.19-.381-.444s.189-.444.445-.444c1.459.127 1.713.19 1.967.381 1.143.127 1.779.572 2.223 1.778.635.508.191.19.699.444.953-.444.254-.381 1.27-.952.826-.254.381-.254 1.08-.572.889-.381.951-.063 1.08-.381 0-.063.125-.063.189-.063-2.35-.952-.889-.444-3.049-.127 1.145-2.032 2.73-1.778 3.684-1.905.445-.444-.254-.254.889-.508l-1.016-.127-1.969-.317h-.123zm-8.954 4.255c.191-.063.446.063.573.317.063.189-.064.508-.319.571-.063 0-.191.063-.316.127-.445.571-.699.635-.891.508-.189.127-.443.127-.697.127s-.445-.19-.445-.444.191-.444.445-.444c.316 0 .57-.127.889-.317.189-.128.442-.318.761-.445zm3.112-7.684c-.254 0-.443-.19-.443-.444s.189-.444.443-.444c.572 0 1.016-.064 1.396-.128.318 0 .572-.063.826-.063.063 0 .191.063.254.063.381 0 .572.254.572.254-.254.444.443.572-.635.572-.064 0-.129.063-.191.063-.191-.063-.445 0-.697 0-.445.064-.953.127-1.525.127zm2.731.571c.254.063.381.317.318.571-.064.19-.318.318-.572.254-.381-.127-.699 0-.889.064-.127.063-.191.063-.254.063-.254.063-.508-.063-.572-.317 0-.254.127-.508.381-.508 0-.063.064-.063.129-.063.316-.127.759-.319 1.459-.064zm-6.732-1.65c.254.063.381.316.316.507-.063.254-.254.382-.508.318h-.189c-.127 0-.191.063-.381.063-.254-.063-.445-.254-.445-.508 0-.255.191-.445.445-.445h.127c.127.001.254-.063.635.065zm-3.238 1.079c.189-.063.445.126.445.381 0 .254-.129.444-.383.508-.063 0-.127 0-.189.063-.064 0-.127.063-.254.127-.254.063-.51-.127-.572-.317-.063-.254.063-.508.318-.571.063 0 .063-.064.127-.064.127-.063.19-.127.508-.127zm.127 2.286c.063-.255.189-.445.443-.445s.445.19.445.445c.064.317-.064.38-.127.508-.064.254-.254.381-.508.381-.254-.063-.381-.318-.381-.509.063-.254.128-.316.128-.38zm.762.508h-.064zm-2.985 5.524c.063-.254.316-.381.508-.317.254.063.381.317.318.571v.254c0 .255-.191.444-.445.444s-.445-.189-.445-.444v-.253c0-.063 0-.127.064-.19zm-1.461 1.08c-.254-.063-.318-.381-.254-.571.127-.254.381-.317.57-.254.383.19.445.381.51.698.063 0 .063.063.063.127.064.254 0 .508-.254.572-.189.063-.443 0-.57-.254 0-.128-.064-.19-.064-.19-.001-.065-.001-.128-.001-.128zm.317-2.604c0-.19.191-.444.445-.444.254.063.445.254.445.508h-.064c0 .063.064.128.127.318.064.19-.063.444-.254.508-.189.063-.443 0-.508-.191-.127-.063-.191-.191-.191-.699zm.89.063c-.064-.063-.445-.19-.254-.126.063.063.127.063.189.126zm1.715-2.286c0-.254.189-.444.381-.444.254 0 .443.254.443.444v.444c0 .255-.189.445-.443.445-.191 0-.381-.255-.381-.509zm-2.033.319c0-.254.191-.444.445-.444.189 0 .381.19.381.444v.381c0 .254-.191.444-.381.444-.254 0-.445-.19-.445-.444zm-2.285 14.16c-.191.127-.508.063-.635-.127s-.064-.508.189-.635c.064-.063.445-.254.445-.318.063-.254.318-.38.57-.317.191.063.383.317.318.572-.126.38-.698.761-.887.825zm-5.97 4.635c-.254 0-.444-.254-.444-.507 0-.191.19-.445.444-.445.127.063.317.063.317.063.063-.254.317-.381.508-.316.254.126.382.38.318.57-.19.635-.699.635-1.143.635zm27.242-12.827c.256 0 .445.19.445.381.064.254-.127.508-.381.508 0 0-.064.063-.191.127l-.063-.063c-.064.19-.318.317-.572.19-.189-.127-.254-.38-.189-.635.063-.127.254-.254.443-.317.192-.064.446-.191.508-.191zm-.127 1.016c0-.063 0-.127 0-.063h-.063zm-.697 1.144c.254 0 .443.127.508.381.063.254-.064.444-.318.508-.063 0-.127.063-.127.063-.063 0-.127 0-.254.063-.189 0-.443-.127-.508-.381 0-.254.127-.508.381-.508l.064-.064c.063 0 .127 0 .254-.062zm9.145-5.398c.189-.128.443-.128.635.063.127.19.127.444-.064.635-.063.063-.191.19-.316.254-.129.127-.254.19-.637.317h-.127c-.063.063-.189.127-.254.127-.57.19-1.207.381-1.523.381-.254-.063-.443-.254-.443-.508s.189-.444.443-.444c.191.063.699-.063 1.143-.255.254-.126.445-.189.635-.253.252-.126.443-.191.508-.317zm-1.334-1.461c.254 0 .443.19.508.444 0 .19-.191.444-.445.444-.189 0-.445.191-.699.318-.443.189-.889.444-1.523.444-.254 0-.443-.19-.443-.444 0-.255.189-.445.443-.445.445 0 .764-.189 1.08-.38.317-.19.633-.317 1.079-.381zm-.319-2.603c.191 0 .381.254.381.508 0 .19-.189.444-.381.382h-1.842c-.254 0-.443-.191-.443-.444 0-.255.189-.445.443-.445h1.842zm10.415 9.462c-.063-.063-.127-.191-.189-.254-.318-.444-.637-.826-1.018-.953-.127 0-.316-.189-.508-.381-.189-.19-.381-.444-.443-.571 0-.254.127-.444.381-.508.254 0 .443.127.508.38 0 .064.063 0 .127.064.127.127.064.19.127.19.697.19 1.08.698 1.523 1.206.191.318.445.635.762.826h.254c-.254-2.287-1.143-.762-1.396-2.731 1.016.254.826.254 1.842 1.461.826.953.572 1.144.762 2.477 1.525.571 1.588 1.396 3.238 1.587l-.318.445c-.189.317-.125.127-.125.508.762.382.824.127 1.332.826-.889.444-1.523 0-2.73-.89-.635-.381-.316-.444-1.27-.952-.762-.382-.57-.063-1.143-.636-1.27-.825.191-.127-1.461-1.65-.254-.254-.127-.063-.316-.382zm-1.015 2.54-.318-.063-.063-.19c-.254-.128-.572-.382-.699-.826-.063-.063-.127-.063-.189-.063l-.129-.127c-.189-.19-.254-.444-.063-.635.127-.19.381-.254.572-.063l.127.063c.189.127.381.317.508.508 0 .19.191.317.381.381.063.064.189.127.254.254h.063c.064.064.191.19.318.255.762-.064.953.635 1.143.952.635 1.016.764.571 1.018 1.778-1.334-.128-1.525-.445-1.715-1.651-1.335-.192-.954.125-1.208-.573zm-.381-.254v-.128c0-.191 0 .128 0 .128zm9.588 4.444c-.254 0-.445-.19-.445-.444s.191-.444.445-.444c.572 0 1.207-.255 1.842-.571.254-.063.445-.19.697-.318h.318c.381-.126.762-.254 1.018-.254-.256.699-1.525 1.905-2.414 1.715-.508.189-.954.316-1.461.316zm-.508 1.969c-.254 0-.443-.19-.443-.444s.189-.444.443-.444c.572 0 1.207 0 1.777-.128.51-.126.953-.381 1.207-.761l.063-.064.064-.127c.191-.127.445-.127.635.063l.064.063c.443-.317.635-.571 1.523-.571-.316.636-2.031 1.841-2.35 2.032-.508.19-.762.254-.826.19h-.189c-.634.191-1.333.191-1.968.191zm.762 1.461c-.254 0-.445-.191-.445-.445 0-.253.191-.444.445-.444h.572c.699 0 .953 0 1.207-.063.127 0 .316-.189.697-.381.191-.19.381-.317.635-.508.254-.127.51-.127.635.127.318-.127.572-.19.889-.19-.189.698-.254.763-1.014 1.27-.891.636-1.207.636-1.336.444-.125.063-.189.128-.252.128-.318.126-.699.063-1.461.063h-.572zm-40.325 10.604c.191 0 .445.19.445.444s-.191.444-.445.444c0 0-.189.19-.381.381-.254.19-.508.444-.508.508-.064.19-.318.318-.572.254-.189-.063-.316-.317-.254-.571.064-.19.381-.571.762-.889.319-.317.699-.571.953-.571zm3.24-7.302c.254 0 .508.189.508.444 0 .254-.127.444-.381.444-.063 0-.189.063-.254.063-.063.19-.317.317-.509.254-.254 0-.381-.254-.318-.508 0-.254.191-.381.381-.509.191-.125.446-.188.573-.188zm14.921 16.065c.191.19.254.444.129.635-.129.19-.383.254-.637.127-.063-.063-.508-.063-.824-.063h-.381c-.191 0-.383-.19-.383-.444s.191-.444.383-.444h.316c.446-.001 1.017-.001 1.397.189zm31.119 4.382c.254.063.379.316.379.508-.063.253-.316.444-.508.381-.824-.19-1.396-.763-1.904-1.271-.381-.381-.762-.762-1.143-.762-.191 0-.381-.127-.381-.381-.445.444-.764.825-1.461.571.191-1.271 3.047-1.841 3.938-1.396-.127.762-.381.889-.826.889.191.127.318.317.508.444.38.445.825.889 1.398 1.017zm-6.987-11.177c.254 0 .445.19.445.444s-.129.444-.381.444c-.191 0-.254.064-.383.064-.125 0-.316.063-.635 0-.254 0-.443-.19-.443-.444 0-.255.189-.445.443-.445h.51c.126.001.255-.063.444-.063zm-2.158 5.778c-.256 0-.445-.19-.445-.444s.189-.444.445-.444h.381l.254-.063c.254-.063.508.063.57.254.064.254-.063.508-.316.572l-.064.063c-.127 0-.254.063-.316.063h-.509zm-.381 2.096c-.191.064-.445-.19-.445-.381 0-.254.191-.508.445-.508.443 0 1.332-.127 1.967-.444.445-.128.764-.318.826-.508.063-.255.318-.381.508-.318.254.128.381.382.318.572-.127.444-.508.762-1.016.952 0 .063-.064.19.063.254-.254.255-.189.825-1.65.317l.063-.063c-.444.064-.825.127-1.079.127zm1.016 1.651c-.254 0-.445-.19-.445-.444s.191-.444.445-.444c1.588.063 1.65 0 1.84-.128.191-.19.445-.444 1.336-.698.063-.063.316-.19.635-.381.254-.19.57-.444.635-.508.189-.19.443-.19.635 0 .189.19.189.444 0 .635-.127.127-.445.382-.826.636-.318.19-.635.381-.824.444-.064.063-.129.063-.191.063-.318.318-.699.509-1.08.636-.256.189-.699.253-2.16.189zm-20.702 5.271c-.191 0-.445-.19-.445-.444s.254-.444.445-.444c1.715.063 1.842-.064 3.049-.763l.254-.127.189-.063h.318l.316-.19c.635-.508 1.969-.952 2.414-1.587-1.715-1.715-3.367 2.286-5.969 1.905 0-.064.063-.128.063-.191-.316.063-.635.063-.889.063s-.445-.254-.445-.508c0-.19.191-.444.445-.444.508.063 1.27 0 1.904-.19.381-.127.762-.254.889-.509.191-.19.445-.19.635-.063l.064.063c.381-.19.762-.508 1.207-.952.953-.825 1.078-.508 1.904-.889.445-.19.191 0 .508-.317-1.523-.508-2.223.19-3.43.762h-.189l-.254.19c-.127.063-.318.191-.445.254-.316.317-.697.572-1.65.572-.316.063-.699.063-1.207.063-.254 0-.443-.191-.443-.444 0-.254.189-.445.443-.445.637 0 1.08 0 1.461-.127.127 0 .254-.063.445-.127.316-.127.57-.317.951-.508.254-.19.51-.382.889-.572l.129-.126c.063-.063.189-.128.316-.128.953-.444 2.16-.381 3.049-.635-.254-1.905-.953-.635-.764-2.476.764.126 1.08.38 1.525.698 0 0 .443.254.443.316.572.445.318.445.826.953 1.271-.381.636-1.207 2.415-1.714l2.475-.064c-.443-1.904-.125-.126-1.078-1.396.316-.508.254-1.017 1.078-.889.891.19.318.19.381 1.333 1.398.254.953.889 1.906 1.143 1.016.318.826-.508 2.668.064-.637 1.523-.572.316-1.715.889.254 1.079.379.127.762 1.523-1.652-.253-.826-.825-2.604-1.143 0 1.524.316 1.08.762 1.969-1.016-.128-2.223-2.032-5.461.19-.191.126-.191.381-.889.063-.127-.063-.191-.19-.445-.382-1.271-1.015.953.191-.255-.19-.316.318-.381-.57-.191.826l.257.635-.954.699c.127 1.143.443.889.889 1.777-1.969-.19-2.541-.825-4.254.444-.191.128-.445.254-.637.444-.063.128-.125.191-.316.254-.443.382-.953.699-1.396.763-.572.192-1.08.255-2.349.192zm-27.37 13.144c.191.127.254.444.127.635-.063.191-.381.317-.572.191-.063-.064-.189-.128-.254-.128l-2.158.635c0-.063.063-.127.063-.19-.063.063-.127.063-.191.128-.254.063-.507-.064-.57-.318-.064-.254.063-.508.316-.571.128-.063.318-.127.509-.19.825-.318 1.778-.7 2.73-.192zm-3.24 14.986c.063.064.063.191.063.318.255.381.509.317 1.018.063.889-.254.762-.826 1.967-1.143-.189 1.143-.57.444-1.078 1.65-.699.762-1.397.254-2.667-.19-.572-.255-.826-.508-.953-.89l-.254-.126c-.382-.254-.698-.444-.762-.636-.064-.063-.19-.127-.19-.253-.128-.128-.254-.318-.254-.445-.064-.254.126-.508.38-.508.19-.063.382.063.444.254.763-1.524.064-.698-.824-2.35-.127-.19-.381-.317-.825-.317-.254 0-.445-.19-.445-.444 0-.255.191-.444.445-.444.444 0 .761.063 1.016.189.127-.063.189-.063.443-.444 0-.317.064-.126-.063-.38l-.697-.064-.89.19c0-.126 0-.19.063-.254-.19 0-.317.063-.381.063l-.127.127h-.127c-.254.063-.444-.063-.508-.317-.063-.254.063-.508.317-.571h.063c.19-.127.508-.19.825-.254.19-.063.445-.063.699-.127l.381-.381c-1.27-.063-1.461.444-1.905-.572.381-.698-.063-.254.762-.508 1.651 0 1.333-.635 1.461-.952l-.444-.317c-.254-.19-.508-.317-1.397-.19-.254 0-.444-.127-.508-.382 0-.254.127-.508.381-.508 1.143-.19 1.587.063 1.905.254.189.063.38.063.635.128l.571-.318c-.317-1.016.063-.19-.508-.825-.381-.444-.318-.127-.444-.698.952-.19 1.27-.19 2.35 2.158l-1.08.953c.317.571.317.317.571 1.016-.762.509-.38-.063-.762.699l.19.698.698.381c-.063 1.143-.063.19-.571 1.143.381.953.255.19.825 1.271-.444.889.19.19-.825.698l.19.571c.318.636.064.254.381.572l.826.952 1.652-1.143c.76-.254.254-.128 1.205-.128-.699 2.286-1.396.763-2.604 2.032-1.143-.571.445-.317-1.333-.571.19.381.316.763.444 1.016.065.063.193.128.255.254zm1.081-6.159c.254.064.443.254.443.509 0 .254-.189.444-.443.444-.064 0 0-.128 0-.19v.063c-.064.128-.127.318-.445.382-.19.127-.444 0-.572-.254-.063-.19.064-.444.19-.509.128-.255.192-.445.827-.445zm-10.987-19.05c-.254 0-.444-.19-.444-.444s.19-.445.444-.445h.382c.698.064 1.842.128 2.032-.254.063-.253.317-.381.508-.253h.063l2.921-1.778c.255-.19.825-.509 1.08-.509 1.841-.126.698.128 1.078.572-5.143 1.651-5.396 4.001-6.984 3.175-.254 0-.508 0-.698-.063-.191-.001-.317-.001-.382-.001zm-.316 2.223c-.254-.063-.444-.254-.444-.508 0-.255.19-.444.444-.444.508 0 1.777-.509 2.476-.825.318-.128.509-.191.635-.255.255 0 .445.127.509.381.318-.126.635-.126.889 0-.254.889-2.477 1.651-3.429 1.588 0-.064.063-.127.127-.19-.447.125-.891.253-1.207.253zm-1.842 5.46c.127.254 0 .508-.19.635-.254.127-.508 0-.572-.19l-.762-.571c-.508-.317-1.016-.698-1.016-.698l-.382-.063v-.318c0-.127-.316-.063-.635-.253-.444-.191-.825-.445-.889-.445-.254 0-.444-.19-.444-.381 0-.254.19-.508.444-.508.19 0 .763.254 1.27.571.318.19.636.381.89.571.254.128.762.444 1.206.763.508.379 1.016.761 1.08.887zm-7.43-2.222c-.254 0-.508-.19-.508-.444s.19-.444.444-.444.571-.19.826-.382c.316-.19.635-.38.951-.316.254 0 .445.254.382.444 0 .254-.19.444-.444.444-.063 0-.19.063-.444.19-.318.254-.762.508-1.207.508zm1.842-2.223c-.444 0-.889 0-1.079.063-.255.063-.509-.063-.572-.316-.063-.255.063-.509.317-.572.19-.063.635-.063 1.08-.063l.126-.317c.826.127 1.778.444 2.414.063-.318-1.396-.572.064-.89-1.459l2.032.444c-.318-1.588-.254-.318-.889-1.651l1.016-.127c.445-.063.19.063.508-.063-.317-1.333-.508-.254-.762-1.715 2.413.254-.254.444 3.938.19-.128.89-.699.89-1.271 1.08-1.017.316-.381-.063-.509.698.763.698.826.19 1.588.762l-1.65 1.08c.253.698.444.635 1.206 1.333.063 0 .127.063.19.127-1.016.381-.825 0-1.334.826.255.508.064.19.445.508l.825.507c-.571.953-.381.191-1.271.953.255.826.128.382.636.762 1.08.763.571-.063.762.699-1.587.889-2.73-2.477-4.698-2.159-.254-.255-.063-.19-.636-.444-.381-.127-.508-.127-.889-.19l.127-.444zm11.177-1.143c.19-.063.444.064.571.318.063.19-.064.444-.255.572l-.19.063c-.508.19-1.905.698-2.35.826-.254.063-.508.126-.763.19-.253.063-.57.063-.825.063-.254 0-.444-.191-.444-.444 0-.254.19-.445.444-.445.19 0 .445-.063.635-.063.255-.063.445-.127.699-.189.444-.128 1.841-.636 2.286-.763zm-17.655 21.146c-.19.127-.444 0-.572-.19-.127-.19-.063-.508.191-.636.253-.126.381-.253.507-.381.318-.317.572-.57 1.779-.698h.126c.318-.127.89-.254 1.017.19.063.254-.063.444-.508.572-.128.063-.254.063-.318 0v.063l-.126.063h-.064c-.952.128-1.079.254-1.27.444-.191.192-.381.383-.762.573zm4.382-15.177c-.063.254-.318.317-.572.254-.19-.127-.317-.381-.19-.635.063-.254.572-.571 1.144-.953.636-.381 1.396-.761 1.65-.761.255-.064.445.063.509.316v.254c.444.064.825.128 1.27.382.89.508 1.08.952 1.905 1.143l1.524.445-.128 1.205c.763 1.017.572.128.763 1.335l-2.032-.699v1.079c.699.19.635.127.699.89-.572-.19-.572-.19-.89-.635l-1.016-.128c.063 1.715.57.636.825 2.096-1.524-.254-.635-.508-1.715-1.016-.508.317-1.143.889-1.524 1.079-.952.509-1.396.128-1.777.889l-1.461-.635c.317-.126-.127-.126.381-.063 0 0 .572.19 1.017.254.826-1.587 1.905-1.333 3.111-2.286l-.19-.889c-1.46.381-2.857.889-3.492 1.651.063-.826 1.714-1.715 2.35-2.159l.952-.825c-.445-.317-1.016-.317-1.715-.254-.317.19-.635.381-.952.635-.508.317-.953.698-1.461 1.079-.19.191-.444.127-.635-.063-.127-.191-.127-.445.063-.636.571-.444 1.016-.825 1.524-1.144.508-.316 1.016-.635 1.65-.952.128-.063.19-.127.318-.19.126 0 .316-.063.444-.063.127 0 .254.063.316.127.191-.19.382-.444.572-.825-1.523-.191-1.523.063-2.413.19-.443.254-.76.445-.824.508zm-8.192 8.89c-.127.19-.381.255-.571.064-.19-.128-.254-.444-.127-.635.254-.255 1.46-1.017 2.73-1.651 1.334-.636 2.667-1.271 2.984-1.271.19 0 .381-.063.635-.127.255-.063.509 0 .571.255.063.189 0 .444-.126.507.317.128.571.317.635.382.508.381.063-.128.444.762 0 .571-.19.254.508.508l.128.571c1.079-.38 1.904-1.524 2.603-1.715 1.779-.57.953-.063 1.271.19-.826 1.145-.444.128-2.285 1.271-2.033 1.334-.89.698-2.479.635.128.826.382 1.144.891 1.461l-1.207.698c-.063 1.969.444.317.825 2.032-2.096-.127-1.588-.698-3.938.508l-.444.19c-.571.127-.316.063-.571-.126.635-.953 2.286-.953 2.857-2.224-2.032-.761-2.158.889-4.127 1.144.317-.89.635-.953 1.969-1.778.825-.508 1.65-.889 2.349-1.396-2.603-1.017-3.492 1.46-5.08 1.715-.127-.763.127-.636.826-1.08.635-.317.952-.571 1.461-.953.889-.571 2.793-.951 3.11-1.333-.508-1.144-.063-.254-1.206-.889.063-.064.063-.127.127-.19-.508.19-1.396.635-2.286 1.079-1.207.571-2.35 1.206-2.477 1.396zm39.308-33.21c.189.063.381.317.316.571-.063.254-.316.381-.508.317-.189-.063-.381-.19-.508-.317s-.191-.317-.254-.444c-.063-.255.063-.509.254-.571.254-.063.508.063.572.316 0 0 0 .064.063.128zm.317 3.873c.254.128.318.381.191.635-.127.19-.381.254-.572.128-.127-.063-.254-.128-.316-.19-.064 0 .063-.063 0-.063-.254.063-.445-.128-.445-.381 0-.254.191-.509.381-.509.318 0 .445.127.572.255.062.062.126.062.189.125zm5.145-.444c.063-.063.189-.126.254-.126.508-.191.254-.128.254-.763-1.27-.19-1.27.317-2.541.317.953-2.413 4.256-1.396 4.764 1.396-1.969-.253-3.238.698-4.699 1.207-.699.381-1.398.698-1.524.698-.254.063-.383.128-.445.19-.318.128-.508.191-1.334-.19-.254-.063-.381-.317-.254-.571.064-.254.318-.317.572-.254.508.254.572.19.635.19.127-.063.316-.19.762-.254 0 0 .89-.444 1.778-.889l.508-.255.064-.063c.57-.315.952-.506 1.206-.633zm-28.894 8.318c.063-.254.254-.38.508-.38.254.063.381.316.317.57 0 .19-.063.318-.19.509.127.952.317.126-.508.57-.064 0-.127-.063-.19-.063v.063c-.572.191-1.207.191-1.715.191-.254-.063-.444-.254-.381-.508 0-.254.19-.444.444-.381.381 0 .889 0 1.333-.191.191-.062.318-.189.382-.38zm-.698-2.031c.254-.064.508 0 .57.254.064.254-.063.507-.254.571-.063 0 0 .063-.126.127l-.128.19c-.063.19-.316.317-.571.19-.19-.063-.317-.317-.254-.572.063-.063.19-.253.318-.444.191-.126.317-.316.445-.316zm2.221-.635c.128-.191.381-.254.572-.128.19.128.254.381.127.635-.064.063-.19.191-.318.318-.127.126-.316.254-.444.317-.19.127-.444 0-.571-.254-.127-.19 0-.444.19-.572.063 0 .19-.063.254-.19.064-.063.127-.126.19-.126zm1.969-1.207c.19-.127.445-.063.635.127.127.19.064.508-.127.635-.127.127-.635.508-.952.445-.254 0-.445-.191-.381-.445 0-.254.19-.444.444-.444 0-.001.254-.191.381-.318zm-2.857-.254c0-.254.19-.444.444-.382.254 0 .444.254.381.509 0 .444-.19.571-.381.762l-.063.063c-.063.19-.317.317-.508.255-.254-.064-.381-.318-.317-.572s.19-.318.317-.444c.063-.064.127-.064.127-.191zm1.714-1.079c.253-.128.508 0 .635.19.127.254 0 .507-.19.635l-.063.063c-.128 0-.19 0-.19.063-.063.191-.317.318-.572.191-.19-.063-.316-.317-.19-.571.064-.255.318-.381.509-.509zm2.033-.445c.19-.254.444-.254.635-.127.19.19.254.444.063.635-.128.19-.19.254-.318.382-.063.19-.317.381-.57.253-.191-.063-.382-.316-.318-.507.064-.254.19-.318.318-.444.062-.065.125-.129.19-.192zm-1.144-1.46c.063-.254.254-.382.508-.318s.381.318.317.509c-.063.317-.126.381-.19.444-.127.254-.381.317-.571.254-.254-.127-.317-.381-.254-.635.063-.128.127-.192.19-.254zm1.652-1.461c-.191.128-.445.128-.636-.063-.19-.19-.19-.444 0-.635l.128-.064c.698-.698 1.778-1.841 2.794-1.968.254-.063.508.127.508.381.063.127 0 .254-.063.317-.127.825-.19.635-1.271.763v-.063c-.508.316-1.015.825-1.397 1.206zm3.239-1.207c.19-.063.444 0 .571.255.063.189 0 .508-.255.571-.063 0-.57.317-1.016.635-.381.19-.635.318-.635.318l-.063.063s-.317.317-.636.508c-.19.19-.381.318-.444.318-.254.126-.508 0-.571-.254-.063-.255 0-.509.255-.572 0 0 .063-.063.254-.19.19-.19.381-.254.381-.254.063-.127.57-.444 1.015-.698.508-.318 1.016-.636 1.144-.7zm7.366 9.462c-.191.127-.383.191-.572.254-.508.128-1.016.19-1.461.19-.189-.063-.443-.253-.443-.507 0-.255.254-.445.443-.445h.891c.506-.571.76.063 1.016-1.016-.891-.318-1.207-.064-1.842.063-.318.127-.699.254-1.144.254-.255 0-.444-.191-.444-.444 0-.254.189-.445.444-.445.444 0 .825-.19 1.144-.381.316-.19.635-.381.951-.381.064-.127.064-.317 0-.571h-.697l-1.018.063v.063c-.189.127-.38.254-.761.317-.254.063-.444-.127-.509-.381 0-.254.127-.444.381-.508.128 0 .254-.127.382-.19.317-.19.698-.444 1.587-.509.572-.38 1.145-.508 1.27-.19l.764.064c-.318-1.08.063.063-.381-.763-.318-.635-.064.063-.191-.762l-.889-.127c-.381.698-.381 1.079-1.27.635.189-.698.508-.889 1.904-1.461.762-.253.254 0 .508-.444-.189-.127-.127-.127-.508-.254-.697-.253.254.063-.508-.127l-1.016-.381c1.207-1.65 2.158.255 3.557-.508-.256-.889-.064-.254-.764-.953-1.904-2.031-1.396.064-3.81.381.825-1.65 2.603-1.904 3.429-2.158-.127-.444-.063-.382-.189-.89h-.127c-.064 0-.254.063-.51.128-.379.063-.824.254-1.205.38-.699.255-1.334.509-1.715.509-.254 0-.444-.19-.444-.444 0-.255.19-.444.444-.444.19 0 .762-.255 1.396-.445.191-.063.381-.127.572-.254.443-.254.826-.508 1.016-.952-.189-.063-.443-.127-.699-.19-.379 0-.762 0-1.078.063-.127 0-.254.063-.445.127-.127 0-.191.127-.317.19-.19.127-.444.317-.635.444-.509.382-.953.698-1.334 1.143-.127.191-.381.254-.571.063-.19-.126-.254-.444-.063-.635.381-.508.889-.889 1.46-1.27.19-.19.381-.317.571-.445.509-.444 1.208-.57 1.843-.57 2.031-.699 5.842 2.54 6.096 3.175.699 1.396.127.508 1.27 1.206-.635.825-.889.254-1.27 1.207.762 1.397.826-.063 1.396 1.016-.381.571-.508.444-1.143.698 0 1.397.762.572 1.334 1.461-.762.889-.508.254-1.27 1.016.381.762.635.254 1.143 1.524l-2.223-.444c-.063 1.396.445.254.635 1.841-.889-.189-1.207-.444-1.65-1.08v-.126l-.762-.063c.063 1.65.508.952.889 2.159-1.08-.064-1.398-.825-1.969-.255-.953.89.381.318.635 1.716zm-2.668-8.382c.254 0 .508.19.508.381 0 .254-.127.509-.381.509h-.127c-1.016.126-1.144.126-2.032-.89 0-.063-.063-.127-.127-.19-.317-.381-.825-.89-1.144-1.08-.19-.126-.316-.38-.19-.635.128-.19.382-.317.572-.19.508.317 1.016.89 1.397 1.334l.126.19c.635.635.698.635 1.333.571zm-2.286-13.462c.254-.128.508 0 .572.254.063.19 0 .444-.255.571-.127.063-.508.317-.889.572h-.063c.063.126 0 .254 0 .254-.508.952-.318.698-1.396.635v-.064c-.19.064-.381.128-.509.19-.063 0-.444.128-.698.318-.19.063-.381.127-.381.127-.063.254-.317.381-.508.317-.254-.127-.381-.381-.318-.571.064-.254.382-.508.763-.698.381-.191.825-.382 1.079-.382.191-.063.89-.508 1.524-.889.444-.317.825-.571 1.079-.634zm1.016 2.412c-.128.191-.382.255-.572.064-.19-.127-.254-.381-.127-.571 0-.063.063-.128.127-.191.063-.063.128.128.128 0 0-.253.254-.444.444-.444.254.063.444.317.381.508 0 .19-.127.382-.255.509zm-1.651 1.398c-.128.254-.382.317-.572.191-.254-.128-.316-.444-.189-.636.063-.063.254-.254.38-.381.191-.127.318-.254.382-.317.254-.063.508 0 .635.19.063.254 0 .508-.19.635-.063 0-.128.064-.254.19zm-1.777 2.287c-.254.063-.509 0-.572-.255-.063-.254 0-.508.254-.571 0 0 0-.127.064-.254.063-.064.063 0 .126-.064.063-.253.254-.38.509-.316.254.063.38.316.317.571 0 .063-.127.19-.254.381-.128.189-.382.508-.444.508zm-.699-1.715c-.254.126-.508 0-.635-.19s0-.509.189-.635c.064 0 .382-.254.572-.382l.19-.063c.19-.127.444-.063.572.127.126.19.063.509-.128.635l-.127.064c-.188.125-.57.379-.633.444zm-2.095 1.587c0 .254-.255.381-.509.318-.19 0-.382-.255-.318-.509.064-.508.444-.826.827-1.079.126-.127.254-.254.316-.382.19-.19.444-.19.635-.063.191.191.191.445.063.636-.126.19-.316.317-.508.508-.19.19-.444.38-.506.571zm-.192-3.112c.254-.063.445.063.508.317s-.063.508-.316.572c0 0-.509.38-.953.698-.128.19-.255.063-.255.127 0 .254-.127.444-.381.508-.254 0-.444-.19-.508-.444 0-.254.254-.572.635-.826.444-.444 1.207-.952 1.27-.952zm-1.778-.19c-.254 0-.508-.127-.508-.381-.063-.254.127-.509.317-.509.063 0 .127-.126.19-.19.19-.126.508-.126.635.064s.127.508-.063.635l-.064.063c-.126.063-.38.254-.507.318zm63.441-5.715c.189.127-.318.381.443.254.572-.127.254-.063.381-.444-.889-.7-.508-.065-.824.19zm-46.295-16.319c.191-1.524.064-.444-.254-.889-.189.126-.635-.191-.381.507.191.508.127.254.635.382zm-.825-3.62c.889.191.697.254.824-.571-.697-.255-1.015-.128-.824.571zm6.859-11.303c.635-.063.699-.127.824-.825-.762 0-1.016-.128-.824.825zm-5.907 41.147c.635-.063.699-.19.826-.825-.762 0-1.016-.254-.826.825zm-2.032-17.525c.063.063 0 .825.951.063-.063-.19.064-.508-.508-.508-.95.064-.189.191-.443.445zm27.687-6.35c.508.253-.508.381.508.19.826-.128.381-.254.572-.444-.254-.191.443-.444-.508-.255-.889.191-.254.255-.572.509zm-21.464 26.988c.763.762 1.017.635 1.081-.382-1.335 0-.763.254-1.081.382zm-.127 4.761c1.017-.063.635.255 1.081-.635-.827-.444-.827-.379-1.081.635zm44.07 2.224c1.018-.063.699.381 1.08-.636-.761-.508-.826-.254-1.08.636zm-43.943-3.937c-.191-1.206.254-.698-.889-.952.127 1.205-.445.76.889.952zm39.436-22.543c.699 0 .762-.063 1.08-.635-.7-.381-1.143-.508-1.08.635zm-33.974-13.399s-.318.444.635.254c.889-.19.316-.063.508-.444-.254-.254.445-.571-.635-.254-.063 0-.508.381-.508.444zm-15.114 18.098c.445.317-.635.444.572.254.762-.127.254-.063.57-.508-.381-.317.699-.508-.508-.254-.824.127-.316.19-.634.508zm-.953-1.143c.953-.128 1.018-.063 1.271-.826-.762-.317-1.018.063-1.271.826zm6.351-32.513c1.016-.127.824.254 1.205-.952-1.078.064-.951-.127-1.205.952zm52.326 56.833c.889-.063.951.128.889-.889-.826-.063-.953-.063-.889.889zm-19.431-36.004c.254.444-.381.254.316.444.953.254.572-.127.699-.19-.189-.508.381-.316-.318-.508-.889-.318-.635.191-.697.254zm-29.149-15.113c.697-.128 1.08-.128 1.016-1.08-.762-.063-.889.254-1.016 1.08zm-5.207 4.191.824.254-.125-1.016-.51-.318c.318-1.333.51-.444.51-1.714-1.08.19-.256.317-1.525.444-.635-1.016-.445-.952-1.777-1.206.063.635.063.889.254 1.27.063.127.189.254.254.317l.254.318c.064.063.127.126.191.19l.697.444c.254.444-.063.19.254.508.635.699.127.191.699.509zm14.288 22.733c1.143-.19 1.207-.064 1.27-1.08-.824.127-.889.255-1.27 1.08zm-22.544 27.877 1.08.253c-.318-.698-.19-.19-.19-.825-.699-1.461-.763-1.905-1.397-1.968-1.461-.064-.698.253-.952.444.38 1.27.698.444.889 1.587-1.27-.127-1.207-1.08-2.35-.19-.635.317-1.397.89-1.904 1.27-2.033 1.397-1.397.318-2.287 1.144 1.334 1.587 2.54-1.333 5.334-1.397 1.206-.7.697-.636 1.777-.318zm62.551 0c.951 0 1.078-.191 1.27-1.08-1.08.127-1.08 0-1.27 1.08zm-49.533-14.669c.508.317 1.08.571 1.716.19-.255-.699 0-.444-.825-.635zm21.782-30.544c0 .063 0 .382.699.254.762-.127.379-.127.635-.444-.318-.254.762-.763-.826-.381-.318.127-.443.317-.508.571zm-16.51-1.015c.699.444 1.143.762 1.334-.444-.064 0 .125-.445-.826-.128-.254.127-.445.254-.508.572zm-6.034 29.971c.381.444.508.763 1.334.254-.064-.444.064-.571-.445-.698-.826-.254-.889.444-.889.444zm2.669-41.528c.951-.382 1.078-.318 1.396-1.397-1.206-.064-1.269.253-1.396 1.397zm39.624 47.116c.889.509 1.398.19 1.588-.952-.254.063-.826.19-.889.254-.634.254-.381.127-.699.698zm-47.754-4.889.508.317c.445.826.127.382.889.953.699.571.318.508 1.143.635-.063-1.016-.189-.444-.379-1.27l-.318-.636c1.08-2.159.635-.762 1.396-1.777-1.396.127-.953.317-1.334-1.143.891.19 1.398.19 1.334 1.143.572-.127.127.444.572-.382-.381-.635-.127-.254-.762-.761-.635-.572-.51-.382-.51-1.08.383-1.27 0-.763-.125-1.079-.635.189-.318.063-.764.316l-.443.318c-.064.063-.127.127-.191.189 0 0-.063.064-.127.128l.508.317.191 1.016-1.334-.063c.191.763.191 1.397 1.271.444.063 0 .063-.126.125-.126.064 1.46.254.508-.697 1.523-1.588.127-1.207-1.46-2.541-.762.508 1.143.762-.191 1.018 1.588zm-.953-38.672c.383-.126.764.445.699-.635-.063-.571-.508-.635-1.08-.762 0 .444-.063.317.064.636.128.571.128.507.317.761zm15.433 57.849c1.205-.063 1.459-.063 1.459-1.144-1.143-.126-1.27.128-1.459 1.144zm-15.56-59.373c-.125-.889-.443-1.715-1.461-1.841 0 .889.445 1.524 1.461 1.841zm56.137 54.165c.635-.126.762-.19 1.207-.444.762-.381.57-.063.762-1.016-.889 0-1.778.509-1.969 1.46zm-60.264 28.639c1.906-.444 1.777-.889 1.906-1.206-.129-.127.381-.444-.637-.19-.634.126-1.142.698-1.269 1.396zm-19.241-4.254c1.079-.127 1.651-.508 1.905-1.651-.889.127-.572 0-1.271.635-.506.508-.444.318-.634 1.016zm65.726-31.369c.889.571 1.523.444 2.031-.571-2.096-.509-2.031.571-2.031.571zm-44.516-49.911c.762-.19 1.461-.381 1.777-1.08-.316-.254-.381-.508-1.08-.254-.635.191-.635.572-.697 1.334zm10.857-4.191c-1.27.254-1.904.57-2.158 1.523.572 0 .826-.19 1.207-.254.826-.19.697.063 1.335-.444.254-.19.57-.445.824-.699.889-.635.508.128.635-.952-1.016.127-.824.508-1.843.826zm17.783 57.976c.381.635.697.635 1.461.316.254-.126.127-.063.316-.19l.318-.19c.635-.57.254-.063.381-.952-1.396.382-.191.254-1.207.636-.572.252-.572-.001-1.269.38zm-29.275-17.209 2.793-.825c-.125-.064.318-.889-1.715-.254-.824.317-.759.317-1.078 1.079zm19.876.317v-.063zm-49.469 51.118c.889.57 1.969.254 2.286-.699-.698-.571-.508-.254-1.27 0-1.143.446-.697-.127-1.016.699zm.953-1.968c-.699-.509-1.588-.381-2.223-.127.127.19-.254.952 1.27.825.889-.127.763-.19.953-.698zm47.817-53.023c1.145-.063 2.16-.254 2.16-1.524-.699 0-.635.063-1.08.381-1.08.571-.699.063-1.08 1.143zm-4-25.019 1.271.063c.125-.254.316-.698.443-.889.381-.445.381-.127.699-.698-.763-.382-2.349.762-2.413 1.524zm-16.257 27.177c.635-.127.953-.316 1.588-.444 1.016-.254 1.016 0 1.461-.698-1.08-.508-2.731.063-3.049 1.142zm6.287-32.257-.826-1.587c-.381-.89-.57-.953-1.461-.953.318.763.318.509.826 1.461.317.698.635.888 1.461 1.079zm51.563 46.799c-.824-2.35-3.109-1.842-3.174-.762 1.715 0 1.143-1.08 1.842.825l.443.635c.953 1.461 2.033 3.492 3.049 2.604-.318-1.079-.824-.063-1.27-1.27-.191-.508-.127-.636-.381-1.143-.509-.952-.253.001-.509-.889zm-17.207 6.605c1.016 0 .635-.19 1.461-.445 1.143-.381 1.205.19 1.588-.952-1.208-.445-2.733.063-3.049 1.397zm-29.848-61.469c.127.127-.572.635 1.018.318.063 0 1.841-.699 1.841-1.843-.697.063-.826.382-1.335.572-1.143.509-.952-.126-1.524.953zm36.262 53.277c-.826-1.079-.953-.381-1.398-1.016-.635-1.08.064-1.08-1.461-1.334.509 1.715 1.017 2.857 2.859 2.35zm-5.399-1.333c0 .826 0 1.206.826 1.396 1.078.254 1.143-.254 1.332-1.016-.507-.507-1.332-.889-2.158-.38zm-15.303-30.862-.064-.825.318-.127c.635.063.127-.318.57.444-.254.508.572.699-.824.508zm-20.956 5.207c.697.952.508.063.824 1.207.191.57.064 1.015.381 1.587 1.715-.254.191-1.842-.254-2.54l.445-1.523c-.889.316-1.016.19-1.396 1.269zm-43.945 61.912 2.413-.126c-.318-.826-1.651-1.524-2.984-.382v.063zm45.659-47.941-.318-.763c.063 0 .191-.127.191-.063l1.205-.381c-.443-.698-.254-.508-1.205-.698l.316-.572c.318-.316.189-.19.762-.444l-.762-1.714c0-.063.127-.19.127-.128l.889-.381c-.254-.635-.508-.444-.826-1.396-.254-.698 0-1.079.064-1.777-.824.254-.824.57-1.588.38-.762-.126.064-.635-1.016-.19.064.064.127.064.127.127.063.254.445.128.762.953.445 1.079-.381.317.762 1.143-.57.826-.381 0-.762.952.508.572.254.381.699.699l-.063.762c-1.652.064-.191-.19-1.398-.381.127 1.524.508-.381.699 1.778l-.889-.19-.764-.128c.318.763.381.444.891 1.588.316.698.635.826 1.332 1.08l-.127 1.396c1.654-.002.955-.827.892-1.652zm27.687-14.479c.254.636-.191.254.508.636.127.063.889.126 1.078.189-.189.699-.189.445-.316 1.144l2.223.444c-.001.001-1.651-3.873-3.493-2.413zm-44.516 38.1c1.777 1.207 4.826-2.477 4.826-2.73-.952.063-1.777.763-2.35 1.207-.317.317-.635.571-1.144.762-.824.317-1.014-.001-1.332.761zm58.296-11.811-.254-.508c-.699-.889-.508-.063-.572-.953 0 0 .127-.762.127-.825-.889-.063-1.588-.317-2.285-.508.316 1.714.951 2.668 2.984 2.794zm-25.337 17.018c.254-1.016.508-1.206-.764-1.396-1.143-.19-1.396.063-1.904.571.572.381 1.016.19 1.777.381l-.381 1.524h2.096c-.253-.762-.634-.825-.824-1.08zm-30.608-25.908c2.031-.126 1.079-1.079 3.555-1.206.255-.571.064-.381.572-.762.316-.191.254-.127.508-.254.381-.317.127 0 .381-.382-.063-.063.127-.698-1.271.19-.761.445-.698.318-1.587.572-1.144.255-1.904.636-2.158 1.842zm-14.162 49.087c.317-.891.381-.382.508-.445 1.207-.89.508-.063.699-.89-2.224-.19-2.096.318-2.414.572.064 1.333.064.635.763 1.587.444.763-.444.445.635.699 1.334.317.572-.127.825-.254-.19-1.207.064-.381-.508-.953zm-12.51-5.525c.254.635.127.635 1.079.951.826.318 1.144.254 1.969.128-.317-.572.509-.382-.698-.635-1.207-.572-.571-.509-.508-1.335 0-.189.063-.189.127-.316-1.778-.063-1.08-.382-2.668-.509zm48.706-77.789c1.334 0 1.271-.444 1.906-.444 1.396.128.381.064.824.381-.951 2.35-.443-.698-1.65 1.461.127.063-.191.635 1.016.254.572-.19.572-.952 1.715-.19.635.381-.189.127.826.571l-.635-1.523c-.764-1.208-3.619-2.605-4.002-.51zm19.939 10.733c1.018.444 1.334-.889 2.287.254-.191.762-.064.063-.764 1.143 2.35.063 1.59 1.08 3.239 1.016-.444-1.65-1.968-3.238-3.302-3.301-.127 0-.826.126-.953.126-1.014.508-.38.126-.507.762zm12.638 16.255c.254 1.017.254 1.017 1.334 1.207-.191-1.905.127-.127-.699-1.333-.508-.635.127-.318-.57-1.079l-1.27.126c-2.033-2.35-.572-1.968-2.35-2.285.189 1.333.506 1.46 1.205 2.35.7.951.954.888 2.35 1.014zm-25.972-5.397c-.318.317-.508.381-.826.698-.889.699 0 .444-1.27.508-.318-.254-.381.254-.191-.317l-.254-.826c.889-.063 1.016-.063 1.588-.444.508-.254.953-.507 1.777-.507zm-48.389 64.579c.698-.127 1.143-.381 1.65-.698 1.905-1.27 1.524-.317 1.651-.254-.635 1.206-.762.317-1.461 1.46.509.255 1.079 0 2.477-.38 1.588-.318-1.143.444.382-.128l.381-.19c-.318-1.017-.064-.19-.381-.571-.889-1.144-.128-.571-.636-1.588-1.396-.127-1.588.063-2.54.698-1.777 1.207-1.46.509-1.523 1.651zm42.229-34.925c-.508.381-.316.063-.316.698.635.572.57.382 1.396.382-.127 2.54 1.588 4.381 3.746 4.317-.191-.698-1.016-2.032-1.461-2.413.318-1.144.063-.063.445-.952-.762-.636-1.08-.572-1.396-1.08.951-.508.824.19 1.84-.254-.189-.825-.443-.635-.826-1.46-.506-1.017 0-1.334-.824-2.032-1.523-.19-3.238.952-3.684 1.778.318.19-.57.254.572.126.635-.063.889-.698 2.223-.126l-.826.635c-.316.191-.697.318-.889.381zm-13.844-60.007-.063.063zm.634-.254c-.252.127-.506.19-.635.254zm-38.355 89.852c1.207-.063 2.159.444 2.668 1.334.444.698 1.207 1.968 2.921.825-.316-.698.128-.063-.381-.508l-.952-.444c.635-.953.444.508.635-1.08-2.096-.189-2.667-.635-4.572-1.08-.444.699-.444.509-.825.572zm42.103-5.27c-.826-.19-1.334-.444-1.398-1.333.953-.381 1.271.126 2.096.698.383.571.191.063.191.825zm31.56-25.971c.064-.063.064-.191.064-.254l.189-1.08c.762.254 1.207.635.891 1.65-.318 1.017-1.08.699-2.033.509.573-.825.446-.635.889-.825zm3.239.571-1.143.063c.063-1.334-.316-.953.826-1.271.951-.317.762 0 1.396-.762l1.207.254c-.633.636-1.651 1.335-2.286 1.716zm-16.637-43.18c1.145-.063 1.969.444 2.477 1.397-.443.381.127.316-.697.381l-.699-.317c-1.398-.827-1.144-.508-1.081-1.461zm.191-2.222c1.016-.128 2.412 1.079 2.604 2.222-.891-.127-.953-.317-1.715-.762-.889-.509-1.016-.317-.889-1.46z"/></g><path d="m236.23 19.685-1.715 1.397v3.047c0 .191.064.318.127.382.064.126.191.19.381.254v.254h-3.492v-.254c.191-.063.316-.127.381-.254.127-.064.127-.19.127-.382v-9.588c0-.19 0-.318-.127-.381-.064-.063-.189-.127-.381-.191v-.317h3.492v.317c-.189 0-.316.127-.381.191-.063.063-.127.19-.127.381v3.937l4.637-3.747c.189-.19.316-.317.316-.444 0-.19-.127-.254-.445-.318v-.317h4.637v.317c-.191 0-.316.063-.381.127-.127.063-.381.254-.762.571l-.635.508-3.875 3.112 4.383 5.207c.443.508.697.826.889.953.189.127.381.254.699.318v.254h-4.445v-.254c.316-.063.443-.19.443-.318 0-.126-.127-.318-.381-.635z"/><path d="m202.764 24.129v-9.588c0-.19-.063-.318-.127-.381-.063-.063-.189-.127-.381-.191v-.317h3.493v.317c-.189 0-.316.127-.381.191-.127.063-.127.19-.127.381v9.588c0 .191 0 .318.127.382.064.126.191.19.381.254v.254h-3.493v-.254c.191-.063.318-.127.381-.254.064-.064.127-.19.127-.382z"/><path d="m.636 227.839c43.563-40.576 90.809 17.653 133.8 21.78-30.036-13.652-55.564-33.719-75.378-59.246-30.799-12.065-58.295-10.54-58.422 37.466z" fill="url(#k)"/><path d="m1.08 226.949c28.323-25.781 58.105-10.35 87.315 4.699 14.797 7.684 29.402 15.239 43.563 17.272-14.161-6.668-27.306-14.732-39.308-24.131-12.637-9.905-23.941-21.336-33.848-34.099-15.24-5.969-29.719-8.573-40.323-3.747-10.414 4.764-17.208 16.765-17.399 40.006zm86.936 5.461c-29.212-15.112-58.994-30.479-87.062-4.254l-.699.635v-.952c.063-24.193 7.049-36.703 17.907-41.656 10.859-4.89 25.528-2.286 41.023 3.81l.19.127c9.906 12.764 21.21 24.131 33.783 34.036 12.573 9.843 26.417 18.288 41.467 25.082l-.19.763c-15.114-1.462-30.67-9.463-46.419-17.591z" fill="#0e0910"/><path d="m272.362 227.839c-43.563-40.576-90.808 17.653-133.8 21.78 30.038-13.652 55.566-33.719 75.378-59.246 30.8-12.065 58.297-10.54 58.422 37.466z" fill="url(#l)"/><path d="m272.046 228.156c-28.067-26.226-57.852-10.858-87.062 4.254-15.749 8.128-31.308 16.129-46.422 17.59l-.189-.763c15.05-6.794 28.894-15.239 41.469-25.082 12.572-9.905 23.876-21.272 33.782-34.036l.189-.127c15.495-6.096 30.165-8.699 41.022-3.81 10.86 4.953 17.845 17.463 17.909 41.656v.952zm-87.442 3.492c29.21-15.049 58.994-30.48 87.315-4.699-.191-23.241-6.986-35.242-17.401-40.005-10.604-4.826-25.082-2.222-40.323 3.747-9.904 12.763-21.21 24.193-33.847 34.099-12.003 9.398-25.146 17.463-39.309 24.131 14.163-2.033 28.831-9.589 43.565-17.273z" fill="#0e0910"/><path d="m141.23 69.406c-.762 0-1.334.571-1.334 1.27 0 .762.572 1.333 1.334 1.333.699 0 1.334-.571 1.334-1.333 0-.699-.634-1.27-1.334-1.27zm-100.652 4.254h1.397v-1.842l1.079-.889 2.414 2.73h1.777l-3.175-3.493 2.984-2.35h-1.841l-3.239 2.667v-2.667h-1.396zm7.366 0h5.208v-1.016h-3.873v-4.827h-1.335zm5.908-2.54c0 .953.063 2.667 3.175 2.667 3.111 0 3.111-1.715 3.111-2.667v-3.302h-1.334v3.302c0 .762-.063 1.778-1.777 1.778-1.778 0-1.842-1.016-1.842-1.778v-3.302h-1.333zm7.555 2.54h4.193c1.714 0 2.159-1.08 2.159-1.714 0-1.016-.636-1.334-1.145-1.46.318-.19.89-.381.89-1.207 0-.762-.381-1.46-1.841-1.46h-4.256zm1.334-4.952h2.286c.762 0 1.08.253 1.08.698 0 .699-.444.762-.826.762h-2.54zm0 2.348h2.604c.635 0 1.017.254 1.017.826 0 .698-.572.825-1.207.825h-2.413v-1.651zm6.16 2.604h1.333v-5.842h-1.333zm5.779 0h1.397v-5.842h-1.397zm5.841 0h1.334v-2.54h3.81v-.953h-3.81v-1.46h4v-.89h-5.334zm6.097-2.54c0 .953.063 2.667 3.111 2.667 3.112 0 3.176-1.715 3.176-2.667v-3.302h-1.334v3.302c0 .762-.063 1.778-1.842 1.778-1.714 0-1.778-1.016-1.778-1.778v-3.302h-1.333zm9.272 2.54h1.333v-4.953h2.414v-.89h-6.16v.89h2.413zm4.444 0h4.191c1.715 0 2.159-1.08 2.159-1.714 0-1.016-.635-1.334-1.143-1.46.318-.19.825-.381.825-1.207 0-.762-.317-1.46-1.842-1.46h-4.19zm1.334-4.952h2.287c.762 0 1.079.253 1.079.698 0 .699-.509.762-.825.762h-2.541zm0 2.348h2.604c.635 0 1.016.254 1.016.826 0 .698-.635.825-1.207.825h-2.413zm9.526 2.732c2.729 0 3.81-1.461 3.81-3.048 0-1.651-1.08-3.112-3.81-3.112-2.668 0-3.747 1.461-3.747 3.112 0 1.587 1.079 3.048 3.747 3.048zm0-.89c-1.461 0-2.35-.889-2.35-2.159 0-1.333.889-2.159 2.35-2.159 1.523 0 2.412.826 2.412 2.159 0 1.27-.888 2.159-2.412 2.159zm4.762.762h5.207v-1.016h-3.873v-4.827h-1.334zm5.97 0h5.271v-1.016h-3.938v-4.827h-1.333zm5.969 0h1.396v-5.842h-1.396zm4.445 0h1.333v-4.953h2.414v-.89h-6.159v.89h2.412zm14.033 0h1.334v-2.54h3.812v-.953h-3.812v-1.46h4.001v-.89h-5.335zm9.591.128c2.666 0 3.746-1.461 3.746-3.048 0-1.651-1.08-3.112-3.746-3.112-2.73 0-3.811 1.461-3.811 3.112 0 1.587 1.08 3.048 3.811 3.048zm0-.89c-1.525 0-2.414-.889-2.414-2.159 0-1.333.889-2.159 2.414-2.159 1.461 0 2.35.826 2.35 2.159-.001 1.27-.889 2.159-2.35 2.159zm8.127.89c2.668 0 3.746-1.461 3.746-3.048 0-1.651-1.078-3.112-3.746-3.112-2.73 0-3.809 1.461-3.809 3.112 0 1.587 1.078 3.048 3.809 3.048zm0-.89c-1.523 0-2.412-.889-2.412-2.159 0-1.333.889-2.159 2.412-2.159 1.461 0 2.35.826 2.35 2.159-.001 1.27-.889 2.159-2.35 2.159zm6.478.762h1.332v-4.953h2.414v-.89h-6.16v.89h2.414zm4.38 0h4.193c1.713 0 2.158-1.08 2.158-1.714 0-1.016-.635-1.334-1.143-1.46.318-.19.889-.381.889-1.207 0-.762-.381-1.46-1.842-1.46h-4.255zm1.336-4.952h2.285c.826 0 1.143.253 1.143.698 0 .699-.508.762-.889.762h-2.539zm0 2.348h2.604c.635 0 1.016.254 1.016.826 0 .698-.572.825-1.207.825h-2.412v-1.651zm7.938.192 1.143-2.414 1.08 2.414zm-2.541 2.412h1.461l.697-1.461h2.984l.699 1.461h1.461l-2.857-5.842h-1.588zm7.873 0h5.271v-1.016h-3.873v-4.827h-1.398zm6.033 0h5.207v-1.016h-3.873v-4.827h-1.334zm15.876-3.683c-.127-1.27-1.27-2.35-3.492-2.35-2.539 0-3.619 1.461-3.619 3.112 0 1.587 1.143 3.048 3.43 3.048 2.666 0 3.492-1.207 3.682-2.414h-1.459c-.127.635-.572 1.524-1.969 1.524-1.334 0-2.287-.889-2.287-2.096 0-1.524.953-2.222 2.16-2.222 1.143 0 1.969.508 2.096 1.397h1.458zm1.08 3.683h5.27v-1.016h-3.936v-4.827h-1.334zm5.904-2.54c0 .953.064 2.667 3.176 2.667s3.111-1.715 3.111-2.667v-3.302h-1.332v3.302c0 .762 0 1.778-1.779 1.778-1.777 0-1.777-1.016-1.777-1.778v-3.302h-1.398v3.302zm7.559 2.54h4.192c1.713 0 2.221-1.08 2.221-1.714 0-1.016-.697-1.334-1.207-1.46.383-.19.891-.381.891-1.207 0-.762-.381-1.46-1.842-1.46h-4.255zm1.332-4.952h2.288c.826 0 1.143.253 1.143.698 0 .699-.508.762-.889.762h-2.542zm0 2.348h2.669c.57 0 .951.254.951.826 0 .698-.57.825-1.205.825h-2.415z" fill="#fff"/><path d="m229.563 0h16.574c2.35 0 4.445.953 5.969 2.476 1.523 1.525 2.477 3.557 2.541 5.779v49.022c-.064 4.509-.191 8.954-.51 13.462-.316 4.572-.951 9.208-1.523 13.779l-.063.381h-31.497v-76.39c0-2.35.951-4.445 2.475-6.033 1.589-1.523 3.685-2.476 6.034-2.476zm16.574.825h-16.574c-2.097 0-4.063.826-5.462 2.223-1.332 1.397-2.223 3.365-2.223 5.46v75.565h29.974c.508-4.445 1.207-8.89 1.461-13.398.316-4.572.508-9.208.508-13.717v-48.449c0-2.096-.889-4.063-2.287-5.46-1.397-1.398-3.302-2.224-5.397-2.224z"/></g></svg>