<svg clip-rule="evenodd" fill-rule="evenodd" stroke-linejoin="round" stroke-miterlimit="1.41421" viewBox="0 0 560 400" xmlns="http://www.w3.org/2000/svg"><g fill-rule="nonzero" transform="matrix(1.63833 0 0 1.63833 425.10933 -721.592294)"><g><path d="m-196.351 535.126h8.661l36.239 31.343v7.611z"/><path d="m-181.14 535.126h8.661l21.028 18.008v7.655z"/><path d="m-165.929 535.126h8.66l5.817 4.842v7.654z"/><path d="m0 0h3.284v-2.139c0-2.975 1.357-4.4 5.715-4.4h10.855c5.072 0 6.572 1.259 6.572 5.617 0 3.813-1.285 4.777-5.642 4.777h-6.641c-10.677 0-14.177.756-14.177 8.806 0 6.917 3.5 8.47 10.711 8.47h7.537c8.677 0 10.854-2.6 10.854-8.008v-1.047h-3.284c-.072 4.818-.499 5.699-9.679 5.699h-3.712c-6.75 0-9.143-.419-9.143-5.408 0-3.606.964-4.819 6.429-4.819h10.356c6.819 0 9.676-2.31 9.676-7.465v-1.969c0-7.465-5.212-8.009-10.39-8.009h-9.713c-5.107 0-9.608 1.047-9.608 7.673z" transform="matrix(.427284 0 0 -.427284 -141.917 585.158)"/><path d="m0 0c0 7.756 4.641 8.636 9.143 8.636h5.14c5.714 0 7.963-2.725 7.963-7.253v-.586h-2.853v.503c0 3.564-2 4.403-5.072 4.403h-5.643c-2.892 0-5.605-.502-5.605-5.828v-4.486c0-4.777 2.498-5.87 6.213-5.87h5.178c2.858 0 5.25 1.006 5.25 4.487v.714h2.857v-.631c0-5.409-2.286-7.506-8.001-7.506h-6.928c-2.751 0-7.642.884-7.642 8.64z" transform="matrix(.427284 0 0 -.427284 -127.161 583.654)"/><path d="m0 0c0 7.041 4.248 8.678 10.069 8.678h4.395c5.821 0 10.069-1.637 10.069-8.678v-4.694c0-7.045-4.248-8.682-10.069-8.682h-4.395c-5.821 0-10.069 1.637-10.069 8.682zm21.464-.212c0 4.989-2.502 5.957-6.074 5.957h-6.247c-3.572 0-6.07-.968-6.07-5.957v-4.274c0-4.989 2.498-5.953 6.07-5.953h6.247c3.572 0 6.074.964 6.074 5.953z" transform="matrix(.427284 0 0 -.427284 -115.763 583.671)"/><path d="m0 0h-3.999v2.937h3.999v5.072h3.069v-5.072h12.181v-2.937h-12.181v-10.647c0-3.984 1.179-5.201 4.535-5.201h.968c4.071 0 4.713 1.006 4.713 5.492v1.595h2.498v-2.347c0-4.278-.355-7.672-6.999-7.672h-1.678c-5.749 0-7.106 3.269-7.106 6.75z" transform="matrix(.427284 0 0 -.427284 -102.366 581.361)"/><path d="m-93.836 576.274h1.311v12.97h-1.311z"/><path d="m0 0h-.072c-.82-1.928-1.784-2.476-6.501-2.476h-7.355c-4.641 0-5.858 2.393-5.858 6.414v1.429c0 4.86 2.929 5.45 8.285 5.45h4.928c4.003 0 5.432-.503 6.501-2.559h.072v4.025c0 3.856-2.071 4.358-6.784 4.358h-4.502c-3.855 0-4.607-1.088-4.607-2.85v-.755h-3.069v1.05c0 3.901 2.105 5.492 7.605 5.492h4.856c5.715 0 9.574-1.005 9.574-7.378v-14.339h-3.073zm0 4.569c0 2.937-2.215 3.311-6.928 3.311h-4.713c-3.965 0-5.072-.669-5.072-3.352v-.669c0-2.393.714-3.398 4.928-3.398h4.071c5.571 0 7.714.461 7.714 3.145z" transform="matrix(.427284 0 0 -.427284 -81.828 588.329)"/><path d="m0 0h2.857v-3.689h.072c1.142 3.311 3.534 4.022 7.355 4.022h4.607c5.749 0 7.571-3.394 7.571-7.253v-14.461h-3.069v13.584c0 3.144-.752 5.197-6.716 5.197h-.783c-7.181 0-8.821-1.591-8.821-6.626v-12.155h-3.073z" transform="matrix(.427284 0 0 -.427284 -78.1966 580.106)"/><path d="m0 0h-2.857v3.394h-.072c-.892-2.597-3.39-3.73-6.607-3.73h-4.282c-5.575 0-9.464 1.636-9.464 9.014v3.772c0 6.837 2.249 9.267 9.642 9.267h4.679c3.5 0 5.174-.964 5.82-3.186h.072v11.822h3.069zm-20.213 8.719c0-4.15 1.107-6.119 6.108-6.119h5c4.57 0 6.036 2.264 6.036 6.161v4.067c0 5.117-2.536 5.952-6.678 5.952h-4.143c-4.214 0-6.323-.922-6.323-5.869z" transform="matrix(.427284 0 0 -.427284 -56.5294 589.243)"/><path d="m0 0c0-2.978-.537-4.947-3.999-4.947v2.43c1.248 0 1.569.506 1.569 2.268h-1.353v5.446h3.783z" transform="matrix(.427284 0 0 -.427284 -52.3637 578.494)"/><path d="m0 0h2.857v-1.047c0-2.642 1.18-3.73 4.32-3.73h6.573c4.607 0 6.07.208 6.07 3.394v.166c0 2.056-.499 3.186-4.177 3.186h-9.463c-4.324 0-5.931 1.637-5.931 5.703v1.259c0 3.481 1.679 5.409 9.249 5.409h4.717c6.928 0 7.891-2.351 7.891-5.367v-1.13h-2.857v.207c0 3.27-1.856 3.353-5.216 3.353h-5.355c-4.392 0-5.356-.503-5.356-2.933v-.798c0-1.761.499-2.766 3.712-2.766h8.107c4.607 0 7.752-.544 7.752-6.331v-.083c0-5.994-4.717-6.206-8.467-6.206h-5.642c-4.536 0-8.784 0-8.784 6.414z" transform="matrix(.427284 0 0 -.427284 -50.7597 586.09)"/><path d="m-25.888 576.274h1.862l6.562 12.969h-1.695l-1.374-2.742h-8.85l-1.372 2.742h-1.694zm.93 1.432-3.708 7.362h7.416z"/><path d="m-15.819 577.957h1.313v-1.683h-1.313zm0 11.286h1.313v-9.135h-1.313z"/><path d="m0 0h2.857v-3.103h.072c1.142 2.767 3.462 3.436 5.571 3.436h2.891c5.749 0 7.643-2.177 7.643-7.42v-2.555h-2.858v.923c0 5.28-.926 6.119-6.391 6.119h-1.893c-3.251 0-4.819-2.431-4.819-5.197v-13.584h-3.073z" transform="matrix(.427284 0 0 -.427284 -11.7432 580.106)"/><path d="m-1.87 576.274h1.313v12.97h-1.313z"/><path d="m2.278 577.957h1.313v-1.683h-1.313zm0 11.286h1.313v-9.135h-1.313z"/><path d="m0 0h2.857v-3.689h.072c1.142 3.311 3.534 4.022 7.355 4.022h4.607c5.749 0 7.571-3.394 7.571-7.253v-14.461h-3.069v13.584c0 3.144-.752 5.197-6.716 5.197h-.787c-7.177 0-8.817-1.591-8.817-6.626v-12.155h-3.073z" transform="matrix(.427284 0 0 -.427284 6.24614 580.106)"/><path d="m0 0c0 7.756 4.569 8.636 8.927 8.636h4.929c5.499 0 9.464-1.633 9.464-9.263v-2.393h-20.251v-1.338c0-4.864 1.999-6.123 7.359-6.123h4.214c3.855 0 5.427.59 5.605 3.859h3.073v-.419c0-4.906-3.466-6.376-9.181-6.376h-5.567c-4.003 0-8.572.884-8.572 8.764zm20.247 1.342c0 2.181-1.391 4.361-6.391 4.361h-4.502c-4.856 0-5.998-.922-6.285-5.786h17.178z" transform="matrix(.427284 0 0 -.427284 17.9651 583.654)"/></g><g fill="#e2241c"><path d="m0 0v12.646h-77.654c-28.43.012-51.474 23.063-51.474 51.496l.031 64.335h-12.677l.004-64.236c-.004-35.551 28.592-64.241 64.15-64.241z" transform="matrix(.427284 0 0 -.427284 -151.6 589.987)"/><path d="m0 0c-23.1.008-41.828 18.886-41.828 41.991 0 .011 0 .026.008.034l.022 64.274h12.896v-64.274c0-15.999 12.918-28.997 28.913-28.997h.118l77.514.064v-13.092z" transform="matrix(.427284 0 0 -.427284 -184.776 580.523)"/><path d="m-137.648 563.591h16.897v3.172h-20.657v-31.709h3.76z"/><path d="m0 0c20.186 0 24.121-4.653 24.121-26.615 0-21.869-3.935-26.518-24.121-26.518s-24.121 4.649-24.121 26.518c0 21.962 3.935 26.615 24.121 26.615m0-46.802c14.597 0 15.632 2.177 15.632 20.187 0 18.107-1.035 20.281-15.632 20.281s-15.632-2.174-15.632-20.281c0-18.01 1.035-20.187 15.632-20.187" transform="matrix(.427284 0 0 -.427284 -107.437 544.312)"/><path d="m0 0c0-13.852-10.768-16.921-23.913-16.921-12.627 0-22.568 1.882-21.74 16.921h8.179c0-9.993 4.97-10.586 13.561-10.586 9.732 0 15.632.99 15.734 11.179v11.974h-.208c-2.275-6.335-11.074-7.026-17.491-7.026-17.598 0-21.43 8.708-21.43 26.517 0 17.314 2.797 26.615 21.43 26.615 7.555 0 14.282-.986 17.491-7.222l.208.098v6.531h8.179zm-8.179 32.058c0 14.445-1.035 20.285-15.734 20.285-15.114 0-14.907-6.63-14.907-20.285 0-12.465-.929-20.187 14.907-20.187 15.734 0 15.734 8.61 15.734 20.187" transform="matrix(.427284 0 0 -.427284 -72.3612 569.383)"/><path d="m0 0v5.344l-.208.197c-3.103-5.938-11.074-6.134-17.907-6.134-12.216 0-20.705 2.177-20.705 15.734 0 14.347 7.764 16.324 21.223 16.324 5.382 0 15.942-.496 17.079-5.243h.518v9.597c0 9.498-5.28 10.39-14.491 10.39-6.421 0-14.286 0-14.184-7.125v-1.78h-8.489v1.088c0 13.357 9.626 14.249 21.74 14.147 13.663.102 23.705-1.285 23.603-17.117v-35.422zm-.208 15.436c0 9.796-6.108 9.698-16.46 9.698-9.728 0-13.663-.594-13.663-9.003 0-9.895 4.245-10.394 13.663-10.394 8.179 0 16.46.201 16.46 9.699" transform="matrix(.427284 0 0 -.427284 -50.7311 566.762)"/><path d="m0 0h.208c2.589 6.232 10.56 6.928 16.77 6.928 13.973 0 20.704-3.564 20.496-18.01v-34.533h-8.179v35.127c0 9.498-3.829 11.081-13.043 11.081-13.353 0-16.252-3.957-16.252-15.93v-30.278h-8.179v51.949h8.179z" transform="matrix(.427284 0 0 -.427284 -37.727 547.272)"/><path d="m0 0v5.344l-.208.197c-3.107-5.938-11.074-6.134-17.907-6.134-12.216 0-20.705 2.177-20.705 15.734 0 14.347 7.764 16.324 21.223 16.324 5.382 0 15.942-.496 17.079-5.243h.518v9.597c0 9.498-5.28 10.39-14.491 10.39-6.421 0-14.286 0-14.184-7.125v-1.78h-8.489v1.088c0 13.357 9.626 14.249 21.74 14.147 13.663.102 23.705-1.285 23.603-17.117v-35.422zm-.208 15.436c0 9.796-6.108 9.698-16.46 9.698-9.728 0-13.663-.594-13.663-9.003 0-9.895 4.245-10.394 13.663-10.394 8.179 0 16.46.201 16.46 9.699" transform="matrix(.427284 0 0 -.427284 .135404 566.762)"/><path d="m13.095 538.732h-3.494v-3.679h3.494zm0 28.03h-3.494v-22.196h3.494z"/><path d="m0 0-.412-6.433.204-.196c2.797 5.737 9.317 7.222 15.424 7.222 10.455 0 15.115-4.947 15.115-14.642v-3.76h-7.763v3.462c0 6.433-2.279 8.61-9.109 8.61-10.148 0-13.459-4.653-13.251-13.856v-32.353h-8.179v51.946z" transform="matrix(.427284 0 0 -.427284 22.0749 544.566)"/></g></g></svg>