<?xml version="1.0" encoding="UTF-8" standalone="no"?>
<!DOCTYPE svg PUBLIC "-//W3C//DTD SVG 1.1//EN" "http://www.w3.org/Graphics/SVG/1.1/DTD/svg11.dtd">
<svg width="100%" height="100%" viewBox="0 0 560 400" version="1.1" xmlns="http://www.w3.org/2000/svg" xmlns:xlink="http://www.w3.org/1999/xlink" xml:space="preserve" xmlns:serif="http://www.serif.com/" style="fill-rule:evenodd;clip-rule:evenodd;">
    <g transform="matrix(0.401872,0,0,0.401872,160.387,30.834)">
        <g id="Layer1001">
            <path id="path16" d="M231.449,118.386C237.76,104.735 248.409,93.534 261.608,86.578C261.545,86.685 261.489,86.821 261.44,86.969C270.011,82.485 279.664,79.781 289.909,79.326C289.911,79.326 289.912,79.327 289.914,79.327C290.935,79.281 291.961,79.259 292.993,79.259C310.427,79.259 326.328,85.792 338.351,96.583C338.322,96.567 338.294,96.55 338.265,96.534C345.652,103.157 351.576,111.388 355.495,120.701C358.926,128.846 360.823,137.819 360.823,147.264C360.823,153.906 359.885,160.326 358.137,166.396C355.274,176.335 350.236,185.338 343.576,192.848L343.622,192.837C333.329,204.439 319.168,212.481 303.182,214.903C303.184,214.901 303.187,214.899 303.189,214.897C299.868,215.402 296.467,215.665 293.005,215.668C262.878,215.69 237.335,195.971 228.466,168.55C226.3,161.852 225.129,154.694 225.129,147.252C225.129,136.897 227.395,127.126 231.454,118.393C231.453,118.391 231.451,118.388 231.449,118.385L231.449,118.386Z" style="fill:url(#_Linear1);fill-rule:nonzero;stroke:rgb(27,25,24);stroke-width:0.57px;"/>
            <g id="Layer1002">
                <path id="path18" d="M293.235,79.583C255.748,79.583 225.371,109.67 225.371,147.577C225.371,185.485 255.76,216.02 293.247,215.993C330.734,215.965 361.064,185.374 361.064,147.589C361.064,109.804 330.722,79.583 293.235,79.583Z" style="fill:none;fill-rule:nonzero;stroke:rgb(52,47,41);stroke-width:0.71px;"/>
                <path id="path20" d="M303.424,215.227C304.106,214.654 305.031,214.114 306.088,213.666C302.577,211.325 300.807,208.555 301.108,205.275C309.625,199.692 318.091,193.873 326.42,187.415C332.579,187.836 339.021,188.01 345.054,187.86C344.494,189.987 343.232,191.859 342.288,193.533C342.819,193.408 343.333,193.287 343.864,193.162" style="fill:none;fill-rule:nonzero;"/>
                <path id="path22" d="M231.692,118.71C233.497,121.715 236.245,123.575 239.177,125.077C246.573,118.324 254.406,111.681 262.802,105.178C264.397,99.342 265.991,93.506 267.585,87.67C265.491,87.858 263.538,88.151 261.445,88.339C261.507,87.964 261.635,87.266 261.85,86.903" style="fill:none;fill-rule:nonzero;"/>
                <path id="path24" d="M290.151,79.651C301.812,81.549 311.058,85.483 319.218,90.007C325.806,90.593 333.191,93.841 338.654,96.942" style="fill:none;fill-rule:nonzero;"/>
                <path id="path26" d="M355.737,121.025C355.736,126.493 355.675,132.066 355.55,137.408C357.295,147.033 358.217,157.157 358.379,166.735" style="fill:none;fill-rule:nonzero;"/>
                <path id="path28" d="M319.155,89.197C319.377,95.504 319.369,101.765 318.967,107.947" style="fill:none;fill-rule:nonzero;stroke:rgb(52,47,41);stroke-width:0.71px;"/>
                <path id="path30" d="M356.326,137.478C349.713,135.086 343.299,133.4 337.436,133.822" style="fill:none;fill-rule:nonzero;stroke:rgb(52,47,41);stroke-width:0.71px;"/>
                <path id="path32" d="M290.156,79.652C301.815,81.551 311.059,85.484 319.218,90.007C325.782,90.591 333.136,93.817 338.593,96.907C326.57,86.117 310.669,79.583 293.235,79.583C292.203,79.583 291.176,79.606 290.156,79.652Z" style="fill:rgb(26,25,20);"/>
                <path id="path34" d="M355.737,121.025C355.736,126.493 355.675,132.066 355.55,137.408C357.294,147.028 358.216,157.147 358.379,166.721C360.127,160.65 361.064,154.23 361.064,147.589C361.064,138.143 359.168,129.171 355.737,121.025Z" style="fill:rgb(26,25,21);"/>
                <path id="path36" d="M266.794,88.072C275.932,84.734 284.715,80.924 295.81,80.197" style="fill:none;fill-rule:nonzero;stroke:rgb(52,47,41);stroke-width:0.71px;"/>
                <path id="path38" d="M261.826,104.806C271.694,108.064 281.294,111.505 289.529,116.994" style="fill:none;fill-rule:nonzero;stroke:rgb(52,47,41);stroke-width:0.71px;"/>
                <path id="path40" d="M239.327,123.838C238.14,132.603 238.421,143.636 239.984,156.651" style="fill:none;fill-rule:nonzero;stroke:rgb(52,47,41);stroke-width:0.71px;"/>
                <path id="path49" d="M288.439,116.243C295.213,111.048 305.595,107.875 319.119,106.681C327.328,114.518 334.618,122.949 338.572,133.54C335.331,143.454 329.128,151.78 322.377,159.813C309.496,157.693 298.921,153.863 289.915,148.868C288.375,137.978 287.731,127.134 288.439,116.243Z" style="fill:url(#_Radial2);fill-rule:nonzero;"/>
                <path id="path51" d="M264.547,169.401C273.321,163.039 282.008,155.888 290.658,148.401" style="fill:none;fill-rule:nonzero;stroke:rgb(52,47,41);stroke-width:0.71px;"/>
                <path id="path53" d="M231.692,118.71C233.497,121.715 236.245,123.575 239.177,125.077C246.573,118.324 254.406,111.681 262.802,105.178L267.585,87.67C265.491,87.858 263.538,88.151 261.445,88.339C261.507,87.964 261.635,87.266 261.85,86.903C248.651,93.858 238.002,105.06 231.692,118.71Z" style="fill:rgb(32,31,27);"/>
                <path id="path55" d="M239.833,155.124C235.641,160.802 233.4,166.759 232.708,172.937C236.469,184.899 243.383,193.009 251.645,199.468C257.892,199.957 264.367,199.702 271.614,196.937C269.52,187.53 267.426,178.124 265.333,168.718C257.082,163.937 248.709,159.279 239.833,155.124Z" style="fill:rgb(25,24,20);"/>
                <path id="path57" d="M322.16,159.371C324.227,168.95 325.562,178.528 326.379,188.107" style="fill:none;fill-rule:nonzero;stroke:rgb(52,47,41);stroke-width:0.71px;"/>
                <path id="path59" d="M358.864,163.826C354.791,173.002 349.811,181.274 344.239,188.951" style="fill:none;fill-rule:nonzero;stroke:rgb(52,47,41);stroke-width:0.71px;"/>
                <path id="path61" d="M302.239,205.545C290.451,204.243 280.243,200.571 270.457,196.264" style="fill:none;fill-rule:nonzero;stroke:rgb(52,47,41);stroke-width:0.71px;"/>
                <path id="path63" d="M233.284,173.108C231.377,171.897 229.977,170.384 228.696,168.86" style="fill:none;fill-rule:nonzero;stroke:rgb(52,47,41);stroke-width:0.71px;"/>
                <path id="path65" d="M251.377,198.795C252.812,201.148 254.483,203.279 256.481,205.1" style="fill:none;fill-rule:nonzero;stroke:rgb(52,47,41);stroke-width:0.71px;"/>
                <path id="path67" d="M301.108,205.275C300.807,208.555 302.577,211.325 306.088,213.666C305.031,214.114 304.106,214.654 303.424,215.227C319.41,212.806 333.571,204.764 343.864,193.162L342.288,193.533C343.232,191.859 344.495,189.987 345.054,187.86C339.021,188.01 332.579,187.836 326.42,187.415C318.091,193.873 309.625,199.692 301.108,205.275Z" style="fill:rgb(29,28,24);"/>
            </g>
        </g>
        <path id="path71" d="M213.388,151.009C213.389,151.202 213.393,151.429 213.396,151.68L213.423,153.381L211.902,154.131C158.985,180.22 121.745,219.923 96.798,264.712C66.055,319.911 53.95,382.84 54.17,437.59C54.251,457.621 56.034,477.638 59.666,497.516C63.188,516.793 68.455,535.943 75.602,554.854L75.935,555.736L75.633,556.643C75.115,558.198 74.656,559.805 74.33,561.424C74.02,562.965 73.831,564.548 73.831,566.153L73.831,604.703C73.831,612.538 76.045,618.61 79.932,622.724C83.926,626.95 89.775,629.199 96.873,629.247L110.786,629.34C115.811,629.374 118.951,630.894 120.615,633.822C122.152,636.525 122.139,640.183 120.996,644.796L116.946,661.147C115.643,666.409 116.173,670.983 118.155,675.184C120.218,679.558 123.865,683.632 128.673,687.704C149.271,705.147 173.514,720.409 199.951,734.109C226.44,747.836 255.162,760.007 284.646,771.241C287.899,772.481 291.044,773.19 294.164,773.291C297.278,773.392 300.412,772.899 303.653,771.737C330.378,762.156 356.897,751.38 383.034,738.011C409.141,724.658 434.88,708.712 460.077,688.777C464.679,685.136 469.054,681.409 471.724,676.894C474.274,672.582 475.315,667.379 473.541,660.493L470.391,648.268C468.909,642.516 468.161,637.974 469.911,634.539C471.775,630.881 475.944,629.056 484.099,629.322L495.574,629.698C495.78,629.704 495.961,629.708 496.116,629.708C501.083,629.7 506.07,627.337 509.882,623.605C513.713,619.856 516.318,614.762 516.496,609.316C516.503,609.079 516.507,608.867 516.507,608.68L516.433,565.107L516.432,564.585L516.612,564.129C524.467,544.193 530.577,523.976 534.724,503.495C538.874,482.998 541.075,462.205 541.108,441.13C541.21,375.596 526.06,313.614 496.525,262.171C468.49,213.339 427.481,174.009 374.246,150.179L372.604,149.444L372.658,147.655C372.68,146.9 372.688,146.159 372.683,145.432C372.547,128.51 365.243,109.659 352.114,94.84C339.009,80.047 320.094,69.318 296.716,68.621C295.671,68.59 294.635,68.578 293.61,68.586L293.6,68.586C293.375,68.587 293.121,68.591 292.84,68.595L292.829,68.595C266.805,68.999 246.868,79.286 233.491,94.604C220.085,109.956 213.222,130.378 213.387,150.999L213.388,151.009ZM208.02,150.064C208.067,128.503 215.375,107.19 229.452,91.069C243.77,74.673 265.047,63.664 292.756,63.23L292.756,63.23C292.998,63.226 293.27,63.223 293.569,63.221C294.694,63.212 295.792,63.224 296.863,63.255C321.889,64.002 342.123,75.472 356.133,91.284C370.12,107.072 377.902,127.236 378.048,145.39C378.05,145.598 378.05,145.805 378.05,146.01C431.601,170.403 472.897,210.207 501.196,259.499C531.191,311.743 546.576,374.65 546.473,441.13C546.439,462.568 544.203,483.711 539.984,504.546C535.794,525.239 529.66,545.602 521.799,565.627L521.872,608.68C521.873,608.974 521.869,609.243 521.861,609.484C521.635,616.39 518.401,622.782 513.649,627.434C508.877,632.104 502.533,635.062 496.117,635.072C495.855,635.073 495.617,635.069 495.406,635.062L483.931,634.687C478.234,634.501 475.559,635.309 474.708,636.98C473.742,638.875 474.407,642.36 475.588,646.942L478.738,659.167C480.924,667.654 479.584,674.165 476.353,679.629C473.242,684.889 468.435,689.002 463.401,692.984C437.906,713.155 411.874,729.285 385.475,742.787C359.106,756.274 332.38,767.136 305.462,776.786C301.56,778.185 297.772,778.778 293.996,778.656C290.226,778.533 286.508,777.708 282.732,776.269C253.111,764.983 224.218,752.735 197.489,738.884C170.708,725.006 146.127,709.526 125.202,691.805C119.837,687.262 115.72,682.618 113.295,677.477C110.788,672.161 110.105,666.417 111.729,659.863L115.779,643.512C116.592,640.23 116.727,637.848 115.945,636.473C115.292,635.324 113.646,634.724 110.765,634.705L96.853,634.611C88.238,634.553 81.046,631.724 76.02,626.405C71.194,621.298 68.445,613.977 68.445,604.703L68.445,566.152C68.445,564.246 68.682,562.303 69.071,560.372C69.379,558.84 69.786,557.335 70.245,555.875C63.157,536.958 57.914,517.791 54.386,498.484C50.698,478.301 48.888,457.967 48.806,437.61C48.582,382.053 60.878,318.173 92.107,262.103C117.311,216.851 154.83,176.689 208.02,150.064L208.02,150.064Z" style="fill:rgb(136,102,57);"/>
        <path id="path73" d="M80.979,545.624C85.771,540.689 93.467,539.995 102.26,540.562C91.375,511.15 84.43,475.739 84.355,433.499C84.153,319.306 144.321,214.855 226.527,180.56C223.421,174.245 220.978,167.094 219.872,159.278C108.99,209.17 62.929,329.588 62.701,432.747C62.612,473.426 68.534,509.355 80.979,545.624Z" style="fill:none;fill-rule:nonzero;"/>
        <path id="path75" d="M220.686,163.877C152.634,196.765 112.856,252.032 90.85,306.358C59.363,384.087 60.192,466.434 84.699,542.872" style="fill:none;fill-rule:nonzero;"/>
        <path id="path77" d="M224.679,176.511C166.03,204.071 123.23,254.572 99.245,321.549C71.956,397.755 74.568,470.794 97.414,540.397" style="fill:none;fill-rule:nonzero;"/>
        <g id="Layer1003">
            <path id="path79" d="M273.449,398.821C273.449,404.702 275.756,410.269 279.913,414.427C284.071,418.585 289.638,420.891 295.519,420.891C301.4,420.891 306.967,418.585 311.125,414.427C315.283,410.269 317.589,404.702 317.589,398.821C317.589,392.94 315.283,387.373 311.125,383.216C306.967,379.058 301.4,376.751 295.519,376.751C289.638,376.751 284.071,379.058 279.913,383.216C275.756,387.373 273.449,392.94 273.449,398.821Z" style="fill:white;"/>
            <path id="path81" d="M261.488,279.327L268.523,312.481L264.251,279.327L261.488,279.327Z" style="fill:white;"/>
            <path id="path83" d="M261.097,277.484L262.108,274.839L260.849,276.316L261.097,277.484Z" style="fill:white;"/>
            <path id="path85" d="M255.979,376.399L263.232,376.397C258.996,382.7 256.518,390.317 256.518,398.524C256.518,420.229 273.844,437.824 295.218,437.824C316.591,437.824 333.918,420.229 333.918,398.524C333.918,390.311 331.435,382.687 327.192,376.381L334.485,376.379C342.585,383.155 345.73,391.649 345.735,400.529L345.773,471.179C345.776,475.922 346.15,480.666 346.973,485.41C347.139,486.879 347.934,486.405 348.126,485.523C349.126,480.921 349.974,472.391 349.974,463.003L349.974,435.403C356.16,440.163 361.589,446.4 364.994,457.978L372.288,457.959C381.202,457.935 388.45,464.427 388.45,474.027L388.45,541.639L384.428,541.63L384.437,473.2C384.438,467.111 378.077,461.758 372.906,461.744L366.099,461.725C366.332,463.538 366.342,465.35 366.325,467.162L369.207,467.157C374.499,467.148 379.492,471.593 379.487,477.175L379.431,542.331L394.45,542.312C414.441,538.419 434.284,532.606 454.075,526.112L457.825,526.112L457.826,551.5L494.313,551.348C502.791,551.313 508.226,556.437 508.226,564.323L508.226,606.924C508.226,614.54 503.248,620.62 495.363,620.724L477.044,620.968C465.025,621.127 458.589,634.041 460.713,642.998L465.512,663.248C466.719,668.341 465.313,673.373 461.312,676.748C412.326,718.062 347.493,747.41 301.975,763.522C296.41,765.491 294.754,765.937 289.262,763.859C220.464,737.835 167.604,711.701 131.236,678.547C125.971,673.747 123.722,669.038 125.161,663.097L129.81,643.897C132.8,631.553 123.872,621.171 112.786,620.965L94.617,620.628C88.222,620.509 82.411,614.821 82.411,608.421L82.411,564.696C82.411,557.353 88.423,551.346 95.761,551.346L132.66,551.346L132.666,526.216L137.162,526.22C156.171,532.478 175.4,538.497 196.619,542.343L211.263,542.343L211.114,477.467C211.101,471.601 215.552,467.154 220.143,467.154L224.324,467.154C224.491,465.379 224.642,463.491 225.008,461.717L217.827,461.717C212.646,461.717 206.315,467.861 206.315,472.367L206.296,541.441L202.49,541.441L202.339,472.29C202.326,465.963 209.722,458.003 216.702,458.003L225.815,458.002C227.862,449.493 232.895,441.91 240.741,435.201L240.779,460.851C240.795,471.486 241.004,477.583 242.729,485.563C242.849,486.117 243.908,485.879 244.004,485.263C245.029,477.868 244.953,470.219 244.943,462.613L244.86,399.549C244.85,391.852 248.489,383.692 255.979,376.399L255.979,376.399Z" style="fill:rgb(25,24,20);"/>
            <path id="path87" d="M283.979,365.889C279.903,367.319 276.1,369.539 272.589,372.613L252.682,278.795L243.137,278.795L269.584,375.578C264.056,381.743 260.693,389.89 260.693,398.821C260.693,408.438 264.592,417.145 270.894,423.447C277.196,429.749 285.903,433.647 295.519,433.647C305.136,433.647 313.843,429.749 320.145,423.447C326.447,417.145 330.345,408.438 330.345,398.821C330.345,389.205 327.211,381.645 321.172,375.267L347.628,278.8L272.759,278.809L283.979,365.889ZM295.519,368.247C287.076,368.247 279.433,371.67 273.9,377.202C268.367,382.735 264.945,390.379 264.945,398.821C264.945,407.264 268.367,414.908 273.9,420.44C279.433,425.973 287.076,429.395 295.519,429.395C303.962,429.395 311.606,425.973 317.138,420.44C322.671,414.908 326.093,407.264 326.093,398.821C326.093,390.379 322.671,382.735 317.138,377.202C311.606,371.67 303.962,368.247 295.519,368.247Z" style="fill:rgb(27,25,24);"/>
            <path id="path89" d="M268.5,238.179L273.778,238.18L273.755,248.079L254.404,270.767L245.142,270.767L268.514,246.392L268.5,238.179Z" style="fill:rgb(27,25,24);"/>
            <path id="path91" d="M281.399,238.18L281.404,248.192L272.749,270.823L345.671,270.823L322.393,247.817L322.393,238.182L281.399,238.18Z" style="fill:rgb(27,25,24);"/>
            <path id="path93" d="M136.089,655.539L133.934,663.531C133.616,664.712 133.555,665.792 133.845,666.78C134.135,667.772 134.79,668.718 135.907,669.639C158.471,688.246 183.361,704.394 209.746,718.401C236.145,732.417 264.018,744.281 292.539,754.319C293.553,754.675 294.53,754.871 295.476,754.892C296.406,754.913 297.321,754.765 298.223,754.435C327.359,743.793 355.256,732.105 381.418,718.406C407.569,704.713 431.995,689.006 454.204,670.321C455.467,669.258 456.394,668.157 456.921,667.067C457.386,666.107 457.53,665.158 457.305,664.263L454.996,655.099C423.753,649.281 395.72,645.897 369.465,643.934C342.988,641.954 318.359,641.418 294.08,641.288C266.924,641.143 240.051,642.145 213.55,644.482C187.285,646.798 161.434,650.424 136.089,655.539ZM131.883,662.983L134.208,654.358L134.379,653.725L135.026,653.594C160.702,648.384 186.846,644.704 213.368,642.365C239.876,640.027 266.815,639.025 294.088,639.17C318.458,639.3 343.155,639.837 369.622,641.817C396.123,643.798 424.441,647.226 456.055,653.138L456.723,653.263L456.89,653.923L459.365,663.748C459.716,665.145 459.514,666.578 458.831,667.989C458.175,669.344 457.062,670.681 455.566,671.94C433.227,690.734 408.675,706.524 382.399,720.283C356.134,734.035 328.155,745.76 298.946,756.428C297.797,756.848 296.628,757.036 295.434,757.009C294.253,756.983 293.058,756.748 291.842,756.32C263.197,746.239 235.221,734.333 208.749,720.278C182.263,706.217 157.257,689.991 134.561,671.275C133.094,670.065 132.219,668.772 131.81,667.378C131.4,665.981 131.468,664.526 131.883,662.983Z" style="fill:rgb(140,101,44);"/>
            <path id="path95" d="M265.388,641.575L265.304,744.08" style="fill:none;fill-rule:nonzero;"/>
            <path id="path97" d="M326.616,641.575L326.532,744.08" style="fill:none;fill-rule:nonzero;stroke:rgb(27,25,24);stroke-width:0.22px;"/>
            <path id="path99" d="M397.766,646.548L397.682,709.51" style="fill:none;fill-rule:nonzero;stroke:rgb(27,25,24);stroke-width:0.22px;"/>
            <path id="path101" d="M260.569,641.575L260.485,742.179" style="fill:none;fill-rule:nonzero;stroke:rgb(27,25,24);stroke-width:0.22px;"/>
            <path id="path103" d="M199.057,645.837L198.973,712.926" style="fill:none;fill-rule:nonzero;stroke:rgb(27,25,24);stroke-width:0.22px;"/>
            <path id="path105" d="M194.238,646.399L194.154,709.851" style="fill:none;fill-rule:nonzero;stroke:rgb(27,25,24);stroke-width:0.22px;"/>
            <path id="path107" d="M194.154,709.768L194.238,646.432C174.594,648.673 155.197,651.683 136.089,655.539L133.934,663.531C133.616,664.712 133.555,665.792 133.845,666.78C134.135,667.772 134.79,668.718 135.907,669.639C153.973,684.537 173.532,697.859 194.154,709.768Z" style="fill:rgb(44,40,66);"/>
            <path id="path109" d="M397.766,646.563L397.682,709.492C417.743,697.975 436.665,685.077 454.204,670.321C455.467,669.258 456.394,668.157 456.921,667.067C457.386,666.107 457.53,665.158 457.305,664.263L454.996,655.098C434.695,651.319 415.749,648.566 397.766,646.563Z" style="fill:rgb(44,40,66);"/>
            <path id="path111" d="M198.973,712.515L199.057,645.899C197.45,646.072 195.843,646.249 194.238,646.432L194.154,709.768C195.754,710.692 197.361,711.608 198.973,712.515Z" style="fill:rgb(183,146,76);"/>
            <path id="path113" d="M326.616,641.788L326.532,743.569C345.509,735.893 363.855,727.603 381.418,718.406C386.917,715.526 392.34,712.558 397.681,709.492L397.766,646.563C388.073,645.483 378.66,644.622 369.465,643.934C354.693,642.829 340.497,642.174 326.616,641.788Z" style="fill:white;"/>
            <path id="path115" d="M260.485,742.122L260.569,641.709C244.78,642.199 229.101,643.111 213.55,644.482C208.705,644.909 203.874,645.381 199.057,645.899L198.973,712.515C202.535,714.517 206.126,716.48 209.746,718.401C226.155,727.113 243.134,734.994 260.485,742.122Z" style="fill:white;"/>
            <path id="path117" d="M260.571,641.655L260.482,742.229C262.086,742.888 263.699,743.491 265.309,744.137L265.388,641.5C263.78,641.539 262.177,641.605 260.571,641.655Z" style="fill:rgb(183,146,76);"/>
            <path id="path119" d="M194.238,646.432C194.239,646.432 194.241,646.432 194.242,646.432L194.238,646.432ZM194.154,709.768C173.532,697.859 153.973,684.537 135.907,669.639C134.791,668.718 134.135,667.772 133.845,666.78C133.555,665.792 133.616,664.712 133.935,663.531L136.089,655.539C155.197,651.683 174.594,648.673 194.238,646.432L194.154,709.768ZM292.539,754.319C283.385,751.097 274.298,747.687 265.304,744.078L265.274,744.066C263.684,743.428 262.098,742.784 260.515,742.134L260.485,742.122C243.134,734.994 226.155,727.113 209.746,718.401C206.126,716.48 202.535,714.518 198.973,712.515L199.057,645.899C203.874,645.381 208.705,644.909 213.55,644.482C229.101,643.111 244.78,642.199 260.569,641.709C262.174,641.659 263.781,641.614 265.388,641.575C274.914,641.329 284.479,641.237 294.08,641.288C304.814,641.345 315.616,641.482 326.616,641.788C340.497,642.174 354.693,642.829 369.465,643.934C378.66,644.622 388.073,645.483 397.766,646.563C415.749,648.566 434.695,651.319 454.996,655.099L457.305,664.263C457.53,665.158 457.386,666.107 456.921,667.067C456.394,668.157 455.467,669.258 454.204,670.321C436.665,685.077 417.743,697.975 397.682,709.492C392.34,712.558 386.917,715.526 381.418,718.406C363.855,727.603 345.509,735.893 326.532,743.569C317.241,747.327 307.799,750.937 298.223,754.435C297.321,754.765 296.406,754.913 295.476,754.892C294.53,754.871 293.553,754.675 292.539,754.319ZM134.379,653.725L134.208,654.358L131.883,662.983C131.468,664.526 131.4,665.981 131.81,667.378C132.219,668.772 133.094,670.065 134.561,671.275C157.257,689.991 182.263,706.217 208.749,720.278C235.221,734.333 263.197,746.239 291.842,756.32C293.058,756.748 294.254,756.983 295.434,757.009C296.628,757.036 297.797,756.848 298.946,756.428C328.155,745.76 356.134,734.035 382.399,720.283C408.675,706.524 433.227,690.734 455.566,671.94C457.062,670.681 458.175,669.344 458.831,667.989C459.514,666.578 459.716,665.145 459.365,663.748L456.89,653.923L456.723,653.263L456.055,653.138C424.441,647.226 396.123,643.798 369.622,641.817C343.155,639.837 318.458,639.301 294.088,639.17C266.815,639.025 239.876,640.027 213.368,642.365C186.846,644.704 160.702,648.384 135.026,653.594L134.379,653.725Z" style="fill:rgb(183,146,76);"/>
            <path id="path121" d="M330.531,641.9C330.224,641.89 329.918,641.885 329.612,641.876C329.919,641.885 330.225,641.89 330.531,641.9ZM326.616,641.753L326.53,743.588C327.842,743.057 329.153,742.589 330.459,742.052L330.532,641.9C329.223,641.859 327.919,641.789 326.616,641.753Z" style="fill:rgb(183,146,76);"/>
            <path id="path123" d="M397.766,646.496C396.478,646.353 395.205,646.171 393.918,646.034C395.201,646.171 396.474,646.354 397.766,646.496ZM397.701,709.567L397.771,646.502C396.478,646.358 395.191,646.204 393.909,646.067L393.867,711.777C395.142,711.061 396.433,710.292 397.701,709.567Z" style="fill:rgb(183,146,76);"/>
            <path id="path125" d="M265.385,641.566L265.301,744.069C274.295,747.677 283.382,751.087 292.536,754.309C293.55,754.665 294.527,754.862 295.473,754.882C296.404,754.903 297.318,754.755 298.221,754.425C307.797,750.928 317.239,747.317 326.529,743.559L326.613,641.778C315.613,641.472 304.811,641.336 294.077,641.278C284.476,641.227 274.911,641.319 265.385,641.566Z" style="fill:rgb(12,73,143);"/>
        </g>
        <path id="path128" d="M243.35,499.194L250.391,499.194L250.391,542.499L241.468,542.499L241.468,510.291L235.914,515.709L231.484,508.98L243.35,499.194ZM265.023,541.605L265.606,534.148C266.666,534.741 267.758,535.209 268.882,535.552C270.015,535.895 271.014,536.072 271.887,536.072C275.038,536.072 277.358,535.146 278.855,533.295C280.342,531.444 281.237,528.397 281.517,524.154C280.602,525.09 279.542,525.807 278.335,526.296C277.118,526.785 275.787,527.024 274.321,527.024C270.972,527.024 268.247,525.756 266.136,523.218C264.035,520.68 262.985,517.373 262.985,513.317C262.985,508.825 264.191,505.226 266.594,502.512C269.006,499.797 272.189,498.445 276.151,498.445C281.049,498.445 284.71,500.224 287.123,503.791C289.546,507.358 290.753,512.745 290.753,519.973C290.753,527.492 289.317,533.233 286.457,537.216C283.587,541.199 279.448,543.186 274.019,543.186C272.574,543.186 271.097,543.05 269.568,542.78C268.05,542.499 266.531,542.115 265.023,541.605ZM276.765,505.372C275.298,505.372 274.186,505.975 273.426,507.171C272.667,508.367 272.282,510.114 272.282,512.423C272.282,514.898 272.646,516.76 273.364,517.997C274.082,519.235 275.174,519.848 276.64,519.848C278.169,519.848 279.313,519.266 280.072,518.101C280.831,516.937 281.216,515.169 281.216,512.797C281.216,510.26 280.852,508.388 280.134,507.181C279.407,505.975 278.283,505.372 276.765,505.372ZM308.848,499.194L315.889,499.194L315.889,542.499L306.966,542.499L306.966,510.291L301.412,515.709L296.982,508.981L308.848,499.194ZM344.333,509.282L335.046,527.149L344.333,527.149L344.333,509.282ZM342.565,499.194L353.006,499.194L353.006,527.149L357.624,527.149L357.624,533.951L353.006,533.951L353.006,542.499L344.083,542.499L344.083,533.951L328.234,533.951L328.234,525.412L342.565,499.194Z" style="fill:rgb(146,107,44);"/>
        <g id="Layer1004">
            <g id="text132" transform="matrix(1,0,0,1,205.271,637.747)">
                <text x="0px" y="0px" style="font-family:'ArialMT', 'Arial', sans-serif;font-size:31.5px;fill:white;">Z</text>
            </g>
            <g id="text136" transform="matrix(1,0,0,1,230.584,636.216)">
                <text x="0px" y="0px" style="font-family:'ArialMT', 'Arial', sans-serif;font-size:31.5px;fill:white;">A</text>
            </g>
            <g id="text140" transform="matrix(1,0,0,1,259.531,634.951)">
                <text x="0px" y="0px" style="font-family:'ArialMT', 'Arial', sans-serif;font-size:31.5px;fill:white;">G</text>
            </g>
            <g id="text144" transform="matrix(1,0,0,1,292.999,634.576)">
                <text x="0px" y="0px" style="font-family:'ArialMT', 'Arial', sans-serif;font-size:31.5px;fill:white;">R</text>
            </g>
            <g id="text148" transform="matrix(1,0,0,1,323.849,635.841)">
                <text x="0px" y="0px" style="font-family:'ArialMT', 'Arial', sans-serif;font-size:31.5px;fill:white;">E</text>
            </g>
            <g id="text152" transform="matrix(1,0,0,1,352.682,636.872)">
                <text x="0px" y="0px" style="font-family:'ArialMT', 'Arial', sans-serif;font-size:31.5px;fill:white;">B</text>
            </g>
        </g>
        <path id="path155" d="M94.382,606.313L94.382,580.094C94.382,575.51 95.613,571.835 98.085,569.079C100.547,566.323 103.833,564.94 107.934,564.94C112.026,564.94 115.149,566.283 117.313,568.958C119.477,571.633 120.563,575.49 120.563,580.508L120.563,606.313L109.808,606.313L109.808,580.508C109.808,578.085 109.021,576.873 107.436,576.873C105.906,576.873 105.137,578.085 105.137,580.508L105.137,606.313L94.382,606.313ZM158.549,565.909L148.998,584.243L158.495,606.313L146.4,606.313L138.207,584.001L147.486,565.909L158.549,565.909ZM137.881,565.909L137.881,606.313L127.127,606.313L127.127,565.909L137.881,565.909ZM174.98,565.909L185.735,565.909L185.735,589.917C185.735,591.795 186.007,593.037 186.541,593.663C187.084,594.289 188.152,594.592 189.746,594.592L190.298,594.592L190.298,606.313L187.437,606.313C183.508,606.313 180.457,605.031 178.267,602.476C176.076,599.922 174.98,596.379 174.98,591.845L174.98,565.909ZM211.12,564.94C216.243,564.94 220.643,567.02 224.31,571.179C227.976,575.349 229.814,580.326 229.814,586.121C229.814,592.027 227.967,597.035 224.273,601.154C220.58,605.283 216.09,607.343 210.803,607.343C205.552,607.343 201.071,605.273 197.359,601.134C193.647,596.984 191.792,591.987 191.792,586.121C191.792,580.205 193.657,575.197 197.395,571.098C201.134,566.989 205.715,564.94 211.12,564.94ZM210.803,576.873C208.594,576.873 206.711,577.782 205.153,579.589C203.596,581.396 202.818,583.587 202.818,586.141C202.818,588.695 203.596,590.886 205.163,592.693C206.729,594.501 208.612,595.409 210.803,595.409C213.03,595.409 214.922,594.511 216.47,592.703C218.018,590.907 218.787,588.716 218.787,586.141C218.787,583.567 218.018,581.376 216.47,579.579C214.922,577.772 213.03,576.873 210.803,576.873ZM266.315,565.909L256.765,584.243L266.261,606.313L254.166,606.313L245.973,584.001L255.252,565.909L266.315,565.909ZM245.648,565.909L245.648,606.313L234.893,606.313L234.893,565.909L245.648,565.909ZM287.083,564.94C292.207,564.94 296.607,567.02 300.273,571.179C303.94,575.349 305.777,580.326 305.777,586.121C305.777,592.027 303.93,597.035 300.237,601.154C296.543,605.283 292.053,607.343 286.766,607.343C281.515,607.343 277.034,605.273 273.323,601.134C269.611,596.984 267.755,591.987 267.755,586.121C267.755,580.205 269.62,575.197 273.359,571.098C277.098,566.989 281.678,564.94 287.083,564.94ZM286.766,576.873C284.557,576.873 282.674,577.782 281.117,579.589C279.56,581.396 278.781,583.587 278.781,586.141C278.781,588.695 279.56,590.886 281.126,592.693C282.692,594.501 284.575,595.409 286.766,595.409C288.993,595.409 290.885,594.511 292.433,592.703C293.981,590.907 294.751,588.716 294.751,586.141C294.751,583.567 293.981,581.376 292.433,579.579C290.885,577.772 288.993,576.873 286.766,576.873ZM310.096,606.313L310.096,577.196C310.096,573.592 311.073,570.654 313.038,568.362C315.002,566.081 317.546,564.94 320.678,564.94C324.39,564.94 327.242,566.838 329.242,570.624C330.464,568.574 331.777,567.121 333.172,566.252C334.575,565.374 336.295,564.94 338.35,564.94C341.609,564.94 344.107,566.081 345.846,568.362C347.575,570.654 348.444,573.935 348.444,578.236L348.444,606.313L337.689,606.313L337.689,580.033C337.689,578.761 337.598,577.913 337.408,577.499C337.218,577.085 336.838,576.873 336.258,576.873C335.181,576.873 334.647,577.863 334.647,579.831L334.647,606.313L323.892,606.313L323.892,580.033C323.892,578.781 323.793,577.933 323.602,577.509C323.403,577.085 323.023,576.873 322.453,576.873C321.385,576.873 320.85,577.923 320.85,580.033L320.85,606.313L310.096,606.313ZM372.117,564.94C377.241,564.94 381.641,567.02 385.307,571.179C388.974,575.349 390.811,580.326 390.811,586.121C390.811,592.027 388.965,597.035 385.271,601.154C381.577,605.283 377.087,607.343 371.8,607.343C366.549,607.343 362.068,605.273 358.357,601.134C354.645,596.984 352.789,591.987 352.789,586.121C352.789,580.205 354.654,575.197 358.393,571.098C362.132,566.989 366.712,564.94 372.117,564.94ZM371.8,576.873C369.591,576.873 367.708,577.782 366.151,579.589C364.594,581.396 363.815,583.587 363.815,586.141C363.815,588.695 364.594,590.886 366.16,592.693C367.726,594.501 369.609,595.409 371.8,595.409C374.027,595.409 375.919,594.511 377.467,592.703C379.015,590.907 379.785,588.716 379.785,586.141C379.785,583.567 379.015,581.376 377.467,579.579C375.919,577.772 374.027,576.873 371.8,576.873ZM411.642,577.54L411.642,606.313L400.888,606.313L400.888,577.54L392.631,577.54L392.631,565.909L419.844,565.909L419.844,577.54L411.642,577.54ZM434.601,565.909L434.601,606.313L423.846,606.313L423.846,565.909L434.601,565.909ZM467.861,565.909L452.082,608.615L436.411,565.909L448.877,565.909L452.19,578.529L455.848,565.909L467.861,565.909ZM483.324,586.02L483.324,596.681L480.227,596.681L480.227,606.313L469.473,606.313L469.473,580.619C469.473,575.662 470.686,571.805 473.121,569.059C475.556,566.313 478.978,564.94 483.387,564.94C487.642,564.94 490.783,566.182 492.82,568.675C494.857,571.169 495.871,575.005 495.871,580.205L495.871,606.313L485.116,606.313L485.116,581.002C485.116,579.448 484.944,578.377 484.609,577.772C484.265,577.176 483.659,576.873 482.78,576.873C481.078,576.873 480.227,578.246 480.227,581.002L480.227,586.02L483.324,586.02Z" style="fill:rgb(146,107,44);"/>
        <path id="path157" d="M194.219,646.47C174.575,648.71 155.178,651.72 136.07,655.577L133.916,663.568C133.786,664.049 133.699,664.512 133.661,664.96C133.658,664.993 133.656,665.025 133.653,665.058C133.61,665.683 133.665,666.265 133.825,666.818C133.869,666.964 133.919,667.107 133.976,667.249C134.314,668.077 134.922,668.874 135.858,669.652C135.868,669.66 135.878,669.668 135.887,669.676C153.954,684.575 173.512,697.897 194.135,709.806L194.219,646.47Z" style="fill:rgb(12,73,143);"/>
        <path id="path159" d="M397.752,646.601L397.682,709.518C417.256,698.274 435.965,685.594 453.384,671.03C453.651,670.807 453.918,670.583 454.185,670.359C455.202,669.503 456,668.623 456.549,667.743C456.681,667.53 456.8,667.317 456.902,667.105C457.367,666.144 457.511,665.196 457.286,664.301L454.977,655.136C454.962,655.133 454.947,655.13 454.932,655.127C434.831,651.386 416.059,648.652 398.235,646.655C398.074,646.637 397.913,646.619 397.752,646.601L397.752,646.601Z" style="fill:rgb(12,73,143);"/>
        <g id="Layer1005">
            <path id="path161" d="M99.245,321.549C123.23,254.572 166.03,204.071 224.679,176.511C223.021,172.568 221.644,168.345 220.686,163.877C152.634,196.765 112.856,252.032 90.85,306.358C59.363,384.087 60.192,466.434 84.699,542.872C88.209,541.032 92.567,540.404 97.414,540.397C74.568,470.794 71.956,397.755 99.245,321.549Z" style="fill:rgb(12,73,143);"/>
            <path id="path163" d="M84.699,542.872C60.192,466.434 59.363,384.087 90.85,306.358C112.856,252.032 152.634,196.765 220.689,163.876C220.367,162.371 220.093,160.838 219.872,159.279C108.99,209.17 62.929,329.588 62.702,432.748C62.612,473.426 68.534,509.355 80.979,545.624C82.074,544.497 83.321,543.59 84.699,542.872Z" style="fill:rgb(136,102,57);"/>
            <path id="path165" d="M99.245,321.549C71.956,397.755 74.568,470.794 97.414,540.395C98.982,540.392 100.602,540.455 102.26,540.562C91.375,511.15 84.43,475.739 84.355,433.499C84.153,319.306 144.321,214.855 226.527,180.56C225.881,179.245 225.263,177.895 224.679,176.511C166.03,204.071 123.23,254.572 99.245,321.549Z" style="fill:rgb(136,102,57);"/>
        </g>
        <path id="path168" d="M494.074,320.699C470.09,253.721 422.339,201.12 363.691,173.56C365.348,169.617 366.726,165.394 367.683,160.926C435.735,193.815 480.464,251.182 502.47,305.508C533.955,383.236 533.943,468.34 509.436,544.778C508.242,543.941 502.552,540.454 497.706,540.447C520.552,470.843 521.363,396.904 494.074,320.699Z" style="fill:rgb(12,73,143);"/>
        <path id="path170" d="M509.436,544.796C533.943,468.358 533.955,383.236 502.47,305.508C480.465,251.183 435.735,193.815 367.681,160.926C368.003,159.421 367.977,157.738 368.197,156.178C480.904,205.948 534.738,328.449 530.618,431.897C528.999,472.543 525.404,512.142 512.959,548.411C511.995,547.078 510.589,545.618 509.436,544.796Z" style="fill:rgb(136,102,57);"/>
        <path id="path172" d="M494.074,320.699C521.363,396.904 520.552,470.843 497.706,540.445C496.137,540.442 494.518,540.505 492.859,540.611C503.745,511.2 508.89,474.889 508.964,432.649C509.166,318.455 444.048,211.905 361.842,177.609C362.488,176.295 363.106,174.945 363.691,173.56C422.339,201.12 470.09,253.721 494.074,320.699Z" style="fill:rgb(136,102,57);"/>
        <path id="path174" d="M222.433,195.212C182.511,216.12 155.655,245.103 135.734,278.012L135.884,515.087L138.209,515.087C155.724,520.508 173.265,525.876 191.385,530.087L191.235,472.412C191.207,461.574 201.365,447.017 218.085,446.987C219.259,444.296 220.762,441.728 222.735,439.337C222.635,357.962 222.534,276.587 222.433,195.212Z" style="fill:none;fill-rule:nonzero;"/>
        <path id="path176" d="M142.379,516.375L142.154,280.163C162.188,249.222 183.378,224.609 215.804,206.476L215.742,447.089" style="fill:none;fill-rule:nonzero;"/>
        <g id="Layer1006">
            <path id="path178" d="M142.379,516.375L142.154,280.163C162.188,249.222 183.378,224.609 215.804,206.476L215.742,447.088C216.508,447.023 217.289,446.989 218.085,446.987C219.259,444.296 220.762,441.728 222.735,439.337L222.433,195.212C182.511,216.12 155.655,245.103 135.734,278.012L135.884,515.087L138.209,515.087C139.599,515.517 140.988,515.947 142.379,516.375Z" style="fill:rgb(136,102,57);"/>
            <path id="path180" d="M142.154,280.163L142.379,516.376C158.511,521.353 174.702,526.211 191.385,530.087L191.235,472.412C191.209,462.09 200.421,448.395 215.742,447.088L215.804,206.476C183.378,224.609 162.188,249.222 142.154,280.163Z" style="fill:rgb(12,73,143);"/>
        </g>
        <g id="Layer1007">
            <path id="path183" d="M448.531,516.375L448.756,280.163C428.722,249.222 407.532,224.609 375.106,206.476L375.168,447.088C374.402,447.023 373.621,446.989 372.825,446.987C371.651,444.296 370.148,441.728 368.175,439.337L368.477,195.212C408.399,216.12 435.255,245.103 455.176,278.012L455.026,515.087L452.701,515.087C451.311,515.517 449.921,515.947 448.531,516.375Z" style="fill:rgb(136,102,57);"/>
            <path id="path185" d="M448.756,280.163L448.531,516.376C432.399,521.353 416.207,526.211 399.525,530.087L399.675,472.412C399.701,462.09 390.489,448.395 375.168,447.088L375.106,206.476C407.532,224.609 428.722,249.222 448.756,280.163Z" style="fill:rgb(12,73,143);"/>
        </g>
    </g>
    <defs>
        <linearGradient id="_Linear1" x1="0" y1="0" x2="1" y2="0" gradientUnits="userSpaceOnUse" gradientTransform="matrix(100.84,-91.2755,91.2755,100.84,287.954,243.787)"><stop offset="0" style="stop-color:rgb(236,233,228);stop-opacity:1"/><stop offset="0.14" style="stop-color:rgb(153,142,136);stop-opacity:1"/><stop offset="0.25" style="stop-color:rgb(152,142,137);stop-opacity:1"/><stop offset="0.82" style="stop-color:white;stop-opacity:1"/><stop offset="1" style="stop-color:white;stop-opacity:1"/></linearGradient>
        <radialGradient id="_Radial2" cx="0" cy="0" r="1" gradientUnits="userSpaceOnUse" gradientTransform="matrix(45.6943,0,0,45.6943,318.656,138.826)"><stop offset="0" style="stop-color:rgb(107,104,101);stop-opacity:1"/><stop offset="1" style="stop-color:rgb(25,24,20);stop-opacity:1"/></radialGradient>
    </defs>
</svg>
