<svg clip-rule="evenodd" fill-rule="evenodd" stroke-linejoin="round" stroke-miterlimit="2" viewBox="0 0 560 400" xmlns="http://www.w3.org/2000/svg"><g fill-rule="nonzero" transform="matrix(2.87822 0 0 2.87822 81.7769 153.531)"><path d="m32.058.511c-8.713 0-10.162 6.747-10.162 6.747l-2.423 11.258h-.01l-1.141-.002 3.789-17.528h-10.938l-4.512 20.87-6.176 6.67h20.466l.248-1.129c1.464 1.081 3.483 1.684 5.766 1.684 5.577 0 8.216-3.215 8.216-3.215 1.47 1.697 3.874 2.66 6.801 2.66h22.818s5.37-4.419 5.37-10.092l1.719 13.346 1.764-3.254h57.631l2.184-10.041h-1.986l1.566-7.408h2.035l2.172-10.106h-15.741l-3.776 17.497h-3.275l3.789-17.468h-10.941l-3.787 17.468h-3.094l3.791-17.481h-66.207l-.248 1.211c-1.462-1.086-3.461-1.687-5.709-1.687z"/><path d="m32.058 3.229c-6.51 0-7.504 4.603-7.504 4.603l-3.018 14.006s-.903 4.525 5.428 4.525c6.371 0 7.471-4.633 7.471-4.633l3.017-14.003s.975-4.498-5.394-4.498zm8.156.445-3.66 17.58s-1.072 4.549 5.427 4.549c6.376 0 7.471-4.657 7.471-4.657l3.637-17.472h-5.412l-3.555 17.058c-.087.414-.582.737-1.127.737-1.027 0-.894-.84-.894-.84l3.529-16.955zm14.924 0-4.192 19.449-2.472 2.68h7.365l4.679-22.129zm9.169 0s-3.887 3.472-3.887 8.244c0 4.201 1.486 5.148 1.486 7.348 0 2.858-4.905 6.537-4.905 6.537h6.708s3.75-3.17 3.75-7.479c0-3.272-1.652-4.334-1.652-6.762 0-2.824 5.08-7.784 5.08-7.784l1.869 21.775 11.359-21.878h-4.92l-3.125 7.021-.146-7.021h-11.617zm21.828 0-4.194 19.449-2.472 2.68h7.367l4.676-22.129zm37.552 0-4.18 19.453-2.47 2.676h12.07l.98-4.623h-4.78l.98-4.498h2.77l.99-4.606h-2.77l.8-3.716h4.81l1-4.686zm-110.317.002-4.205 19.429-2.471 2.698h12.064l.994-4.623h-4.791l3.787-17.504h-5.379zm82.106 0-4.205 19.429-2.469 2.698h12.06l1-4.623h-4.795l3.785-17.504zm14.026 0-4.2 19.429-2.47 2.698h12.06l1-4.623h-4.79l3.78-17.504zm-78.492 3.864c1.01 0 .894.841.894.841l-2.793 12.935c-.09.414-.586.739-1.128.739-.97 0-.897-.842-.897-.842l2.795-12.938c.09-.413.584-.736 1.129-.736z" fill="#c9001f" transform="translate(0 -.000637)"/></g></svg>