<svg clip-rule="evenodd" fill-rule="evenodd" stroke-linejoin="round" stroke-miterlimit="2" viewBox="0 0 560 400" xmlns="http://www.w3.org/2000/svg"><g fill-rule="nonzero"><path d="m512.233 175.078v-6.483h-464.466v6.483z" fill="#8ed2cb"/><path d="m512.233 203.441v-6.484h-464.466v6.484z" fill="#8ed2cb"/><path d="m512.233 231.804v-6.484h-464.466v6.484z" fill="#8ed2cb"/><g fill="#007580"><path d="m109.342 156.387h32.624l12.029 45.81h.812c.578-3.817 1.155-7.866 2.196-11.566l9.834-34.244h32.277l14.343 87.226h-30.656l-4.281-47.778h-.577c-.578 2.891-1.158 5.899-2.082 8.676l-12.61 39.102h-18.509l-11.338-36.903c-.926-3.703-1.735-7.172-1.967-10.875h-1.041c-.231 3.472-.463 7.057-.809 10.529l-3.703 37.249h-30.656z"/><path d="m263.199 212.031 5.784-26.607h1.159c.577 3.7 1.155 7.517 2.081 11.22l3.703 15.387zm-5.667 20.708h23.947l2.891 10.874h33.547l-31.116-87.226h-35.054l-30.31 87.226h33.55z"/><path d="m394.383 191.786c-5.087-4.743-11.452-8.792-18.623-8.792-9.488 0-17.237 7.52-17.237 17.005 0 9.601 8.212 17.004 17.7 17.004 7.289 0 13.073-3.122 18.16-8.094l-.924 32.623c-5.089 2.427-16.89 3.468-22.557 3.468-24.875 0-44.307-19.318-44.307-44.189 0-25.452 20.013-45.811 45.579-45.811 7.171 0 14.574 1.27 21.285 3.586z"/><path d="m410.347 156.387h58.652v23.83h-26.724v8.33h24.411v22.675h-24.411v8.561h27.651v23.83h-59.579z"/></g></g></svg>