<svg clip-rule="evenodd" fill-rule="evenodd" stroke-linejoin="round" stroke-miterlimit="2" viewBox="0 0 560 400" xmlns="http://www.w3.org/2000/svg"><g transform="matrix(1.02971 0 0 1.02971 177.941 69.2269)"><g transform="matrix(.625247 0 0 .625247 -25.9237 1.99765)"><path d="m190.667 4.767c-.871.03-3.909.135-6.75.233-36.952 1.271-70.467 7.257-99.167 17.712-9.348 3.405-20.557 8.605-26.176 12.141l-1.009.636-.533 3.297c-3.977 24.595-6.718 54.902-7.549 83.464-.317 10.923-.149 38.306.238 38.693.037.037 2.009-.491 4.381-1.174 95.958-27.623 195.651-27.396 290.912.661 2.621.772 4.841 1.403 4.933 1.403.675 0 .821-29.813.223-45.666-.987-26.191-3.56-53.366-7.28-76.874l-.6-3.79-1.02-.643c-21.149-13.313-61.051-24.467-101.437-28.355-13.469-1.297-37.532-2.147-49.166-1.738m-45.75 61.071c4.858 1.106 12.62 2.876 17.25 3.932 18.262 4.166 23.82 5.433 25.5 5.811.962.216 3.23.736 5.039 1.155l3.288.761 8.128-2c16.907-4.16 23.795-5.857 29.128-7.174l5.5-1.359 3.25.275c1.787.152 7 .611 11.583 1.02 10.109.904 16.669 1.483 20.667 1.827 1.65.142 7.2.632 12.333 1.088 16.789 1.495 18.707 1.662 35.167 3.069 5.919.506 5.81.492 5.25.64-.949.249-26.186 4.189-45.583 7.116-4.217.637-12.092 1.831-17.5 2.655-5.409.824-10.218 1.547-10.687 1.607-1.38.177-1.376.164-.585 2.079.386.936.681 1.721.654 1.745-.078.07-7.998.389-15.106.609l-6.557.202-.848 1.112.513 1.121c1.031 2.251 1.412 4.371 1.614 8.99l.097 2.202-.631-.263c-.347-.145-1.269-.582-2.048-.972-6.144-3.072-12.709-3.56-22.166-1.649-23.831 4.816-42.873 3.201-53.358-4.526-3.277-2.415-6.456-3.185-16.934-4.102-1.306-.114-2.375-.263-2.375-.33s1.219-.967 2.708-2.001c5.128-3.558 10.427-7.565 10.246-7.746-.388-.388-18.987-2.22-31.121-3.066-1.329-.093-2.941-.207-3.583-.254-1.695-.124-10.026-.545-14.667-.74-5.746-.242-6.078-.265-16.083-1.089-9.093-.748-10.728-.908-10.417-1.02.092-.032 5.904-1.218 12.917-2.633 7.013-1.416 17.175-3.475 22.583-4.575 5.409-1.101 13.734-2.793 18.5-3.762 4.767-.968 8.742-1.791 8.834-1.829.091-.037.279-.038.416-.002.138.035 4.225.97 9.084 2.076" fill="#ec7c0c"/><path d="m183.333.166c-4.955.131-10.255.429-16.166.909-1.604.131-3.592.285-4.417.342-1.758.124-8.197.82-10.833 1.172-1.009.135-2.584.32-3.5.412-.917.091-3.167.385-5 .653-1.834.267-4.534.648-6 .845-2.422.326-7.131 1.156-11.25 1.983-6.493 1.304-8.968 1.837-12.917 2.781-5.275 1.262-7.726 1.89-9.33 2.388-.641.199-1.728.477-2.417.618-1.202.245-2.594.669-9.586 2.919-5.539 1.781-8.538 2.85-12.334 4.394-.733.298-1.633.636-2 .751-.366.115-1.866.733-3.333 1.373s-3.342 1.458-4.167 1.817c-2.877 1.253-4.519 2.045-7.266 3.506-1.522.809-2.81 1.471-2.862 1.471-.122 0-3.306 1.928-5.09 3.083-.761.493-1.46.921-1.551.951-.171.057-1.147 5.482-1.148 6.38 0 .276-.225 1.853-.501 3.503-.275 1.65-.615 3.862-.754 4.916s-.583 4.355-.987 7.334c-.79 5.827-1.584 12.88-2.008 17.833-.145 1.696-.336 3.796-.424 4.667-.354 3.499-1.158 12.738-1.321 15.166-.64 9.567-.958 15.137-1.335 23.417-.274 6.02-.213 42.055.082 47.917.315 6.266.529 9.803.825 13.666.13 1.696.283 3.834.34 4.75.102 1.635.854 9.053 1.319 13 .13 1.1.361 3.2.513 4.667.701 6.731 1.885 14.427 3.578 23.25.36 1.879.742 3.979.849 4.667.344 2.224 2.658 12.086 4.419 18.833.663 2.541 1.823 6.435 2.657 8.917.308.916.685 2.178.838 2.803.45 1.841 1.739 5.3 4.452 11.947.281.687 1.16 2.562 1.954 4.166.793 1.605 1.72 3.48 2.058 4.167.714 1.449 1.286 2.488 2.542 4.612.498.841.908 1.591.912 1.667.013.243 3.372 5.647 5.421 8.721 2.806 4.21 4.044 6.008 4.511 6.553.262.307.89 1.143 1.394 1.857 1.95 2.763 7.264 9.52 8.001 10.173.206.184.544.596.749.917s.964 1.243 1.686 2.05c.723.806 1.562 1.781 1.866 2.166 1.696 2.153 10.975 11.937 15.363 16.201 5.851 5.685 10.658 10.22 11.444 10.794.289.211 1.212 1.039 2.051 1.839s1.728 1.582 1.975 1.736c.246.155 1.049.848 1.783 1.54.734.691 1.811 1.632 2.393 2.091.583.458 1.455 1.191 1.939 1.628.484.438 1.582 1.364 2.44 2.058.858.695 2.077 1.687 2.71 2.205 2.394 1.962 2.707 2.214 3.6 2.891 1.099.835 2.415 1.906 2.995 2.439.232.213.872.695 1.422 1.07.55.376 1.641 1.213 2.425 1.862.783.649 1.853 1.48 2.376 1.847.523.366 1.43 1.041 2.016 1.5.585.458 1.788 1.358 2.673 2 .884.641 2.705 1.981 4.046 2.977 1.341.995 2.732 1.975 3.091 2.177s1.077.707 1.596 1.124c.519.416 1.806 1.343 2.86 2.06s2.704 1.856 3.667 2.531c.962.675 2.075 1.43 2.473 1.679.397.248 1.26.812 1.916 1.252 5.199 3.486 10.292 6.797 11.025 7.167.368.186 1.007.574 1.419.862.991.694 4.034 2.59 5.083 3.167.459.252 1.033.6 1.276.773s.493.314.554.314c.062 0 .613.322 1.224.715 4.422 2.839 4.237 2.839 8.556.011.61-.399 1.161-.726 1.224-.726s.314-.141.557-.314c.244-.173.818-.521 1.276-.773 1.132-.623 4.161-2.518 5.091-3.185.417-.299.96-.621 1.207-.715s1.219-.684 2.159-1.311c.94-.628 3.097-2.032 4.793-3.121s3.378-2.227 3.737-2.53c.36-.302.981-.708 1.381-.901.399-.193 1.169-.678 1.71-1.076 1.084-.798 2.639-1.876 5.923-4.105 1.192-.809 2.447-1.72 2.788-2.023.341-.304.829-.656 1.083-.783s1.586-1.062 2.961-2.077c1.375-1.016 2.8-2.047 3.167-2.293s1.117-.791 1.667-1.211c1.329-1.016 2.81-2.134 4.833-3.649.917-.687 1.929-1.484 2.25-1.773.321-.288.985-.787 1.476-1.108.491-.322 1.578-1.163 2.417-1.869.838-.707 1.974-1.612 2.524-2.013.55-.4 1.487-1.147 2.083-1.661s1.452-1.232 1.902-1.596c4.565-3.693 8.647-7.154 9.596-8.138.411-.426.823-.777.916-.779.176-.005.856-.595 2.844-2.471.646-.61 1.72-1.554 2.387-2.098.666-.544 1.375-1.183 1.575-1.419s1.126-1.122 2.058-1.968c.933-.846 2.21-2.045 2.838-2.664.629-.619 2.384-2.326 3.9-3.793 4.02-3.888 14.916-15.368 15.389-16.214.098-.175.801-.994 1.561-1.819.761-.826 1.736-1.955 2.167-2.511.431-.555 1.313-1.635 1.96-2.399.647-.765 2.069-2.553 3.16-3.973 1.091-1.421 2.026-2.621 2.078-2.667.205-.181 1.169-1.471 1.169-1.564 0-.109.774-1.169 1.9-2.603.396-.504 1.169-1.591 1.718-2.416s1.575-2.342 2.28-3.372c1.929-2.818 4.961-7.747 6.535-10.622.449-.821 1.098-1.984 1.441-2.583 1.441-2.517 6.126-12.324 6.126-12.823 0-.074.344-.952.764-1.951 1.011-2.404 2.431-6.323 2.891-7.983.203-.733.582-2.008.843-2.833 1.819-5.768 2.674-8.873 4.402-16 1.403-5.786 2.369-10.109 2.756-12.333.191-1.1.57-3.2.843-4.667.617-3.331 1.77-9.948 2.002-11.5.679-4.532 1.489-10.771 1.58-12.167.059-.916.211-2.491.338-3.5.47-3.738 1.251-11.586 1.417-14.25.094-1.512.244-3.612.332-4.666.787-9.407 1.037-16.89 1.119-33.584.093-18.913-.163-28.252-1.204-43.916-.137-2.063-.329-4.95-.427-6.417s-.439-5.479-.759-8.917c-.32-3.437-.685-7.712-.812-9.5-.128-1.787-.463-5.193-.746-7.569-.282-2.375-.587-5.038-.677-5.917-.172-1.675-1.326-10.191-2.171-16.014-.272-1.879-.612-4.279-.755-5.333-.254-1.867-1.029-6.352-1.111-6.427-.023-.021-.417-.242-.875-.491-.458-.248-1.096-.656-1.417-.906-1.751-1.362-10.489-5.965-13.968-7.359-.67-.268-1.578-.671-2.018-.894-1.093-.553-5.276-2.33-6.097-2.588-.367-.116-1.267-.454-2-.751-3.1-1.255-5.817-2.264-8.083-3.002-1.33-.433-3.505-1.147-4.834-1.585-4.353-1.437-7.228-2.316-8.5-2.599-.687-.153-2.112-.523-3.166-.822-5.1-1.449-11.098-2.894-16.5-3.975-1.604-.321-3.817-.771-4.917-.999-3.837-.795-9.186-1.746-11.833-2.102-1.467-.198-4.167-.579-6-.846-1.834-.268-4.084-.562-5-.653-.917-.092-2.492-.277-3.5-.412-2.636-.352-9.076-1.048-10.834-1.172-.825-.057-2.812-.212-4.416-.344-11.087-.91-33.537-1.323-49.334-.907m27.834 4.668c53.105 1.525 100.227 12.31 129.463 29.63 1.885 1.117 1.589.493 2.277 4.805 5.886 36.922 9.197 91.629 7.32 120.954l-.105 1.639-.571-.107c-.315-.059-1.298-.332-2.186-.606-18.214-5.626-43.584-11.525-64.032-14.888-18.464-3.037-31.017-4.485-52.083-6.008-56.328-4.073-121.66 3.203-178.303 19.858-1.725.507-3.164.894-3.199.859-.565-.565-.621-30.273-.085-44.887.952-25.918 3.777-55.475 7.446-77.881l.445-2.715 1.431-.882c27.136-16.72 78.511-28.62 128.265-29.711 2.658-.058 4.865-.133 4.903-.167.145-.126 13.508-.052 19.014.107m-76.834 59.182c-.779.164-5.841 1.197-11.25 2.297-5.408 1.1-13.921 2.833-18.916 3.852-4.996 1.019-14.184 2.877-20.417 4.129-12.757 2.563-12.219 2.335-6.563 2.783 1.799.142 5.436.442 8.083.665 6.479.548 9.114.715 15.98 1.01 15.224.655 31.804 1.965 43.314 3.421 2.098.266 3.845.513 3.882.551.19.189-4.655 3.887-9.739 7.434-1.766 1.231-3.153 2.288-3.084 2.349.07.06 1.177.2 2.46.311 10.881.94 12.873 1.463 17.483 4.59 10.861 7.368 28.548 8.718 52.601 4.014 8.811-1.723 15.456-1.463 20.345.799.681.314 1.893.881 2.693 1.259 1.934.913 1.827.977 1.71-1.022-.329-5.614-.581-7.075-1.614-9.329l-.513-1.121.448-.587.448-.588 1.699-.008c.935-.004 2.263-.041 2.95-.081.688-.04 4.775-.193 9.083-.339s7.857-.289 7.886-.318c.03-.03-.279-.83-.686-1.779-.407-.948-.715-1.753-.684-1.789.032-.035 2.928-.496 6.437-1.025 3.51-.529 8.856-1.343 11.881-1.808s7.525-1.15 10-1.522c9.259-1.392 25.142-3.825 28.833-4.416 2.938-.471 14.195-2.255 15.834-2.51 2.676-.416 2.518-.482-2.106-.876-2.417-.206-6.532-.557-9.144-.78-2.613-.222-5.163-.444-5.667-.493-.924-.09-17.872-1.599-21.583-1.922-1.1-.096-5.825-.509-10.5-.918s-9.85-.861-11.5-1.003-6.263-.552-10.25-.911c-3.988-.358-9.063-.814-11.278-1.012l-4.028-.361-6.806 1.679c-3.743.923-8.793 2.165-11.222 2.759-4.53 1.109-16.148 3.97-21.7 5.344l-3.116.772-4.8-1.104c-2.64-.607-6.45-1.476-8.467-1.931s-7.079-1.609-11.25-2.565c-8.805-2.017-21.021-4.806-29.583-6.754-3.3-.751-6.038-1.383-6.084-1.404s-.721.095-1.5.258m3.75 3.244c1.375.324 4.638 1.069 7.25 1.655 2.613.587 6.25 1.413 8.084 1.837 4.875 1.127 7.268 1.675 11 2.515 1.833.413 6.933 1.573 11.333 2.578s8.975 2.048 10.167 2.318c1.191.271 3.944.906 6.117 1.412l3.952.921 6.382-1.573c3.51-.864 10.845-2.667 16.299-4.005 5.454-1.337 12.279-3.017 15.168-3.731l5.251-1.299 4.415.391c2.429.216 8.128.725 12.666 1.133 10.914.979 18.142 1.618 27.333 2.413 14.785 1.28 19.667 1.746 19.667 1.876 0 .073-.169.133-.375.133-.207 0-2.063.265-4.125.59-2.063.324-8.438 1.296-14.167 2.16s-12.854 1.952-15.833 2.417-6.13.95-7 1.078c-2.608.383-10.464 1.556-12.232 1.826-.906.139-1.666.273-1.689.299-.023.025.251.716.607 1.536.779 1.789.845 1.72-1.669 1.748-1.064.012-4.709.131-8.101.264-3.391.134-6.698.244-7.348.246-1.062.002-1.199.04-1.353.377-.294.643-1.72 2.114-2.484 2.562l-.731.428.595.692c1.234 1.439 2.274 4.094 2.512 6.414.104 1.013.091 1.075-.207.977-.174-.058-.992-.341-1.817-.63-5.016-1.753-11.385-1.88-19.333-.384-18.845 3.547-33.342 3.684-43.389.41-3.166-1.031-5.85-2.378-8.369-4.199-3.022-2.185-7.199-3.628-11.79-4.072-1.493-.144-1.517-.086.714-1.753 2.256-1.685 5.723-4.524 7.219-5.908.614-.569 1.487-1.269 1.94-1.556.453-.288.776-.523.719-.523-.058 0-1.484-.224-3.17-.497-6.014-.977-16.803-2.184-26.041-2.914-10.945-.864-16.48-1.201-28.91-1.761-2.151-.097-3.943-.208-3.982-.248-.116-.115-.035-.133 9.559-2.059 15.438-3.101 30.996-6.282 32.583-6.663.046-.011 1.208.245 2.583.569m-6 2.674c-1.925.399-6.462 1.33-10.083 2.069-7.496 1.529-8.623 1.785-7.962 1.812 11.054.448 26.964 2.26 40.795 4.645 1.489.257 2.099.279 4.084.148 4.688-.31 8.062.439 11.916 2.647l1.084.621 8.583-.124c4.721-.068 9.024-.172 9.562-.23 1.09-.117.5-.258-20.145-4.784-4.859-1.065-14.558-3.204-21.555-4.754s-12.734-2.808-12.75-2.797c-.016.012-1.604.348-3.529.747m103 3.546c-2.108.532-7.733 1.925-12.5 3.096-4.766 1.172-12.566 3.093-17.333 4.27-9.455 2.334-8.87 2.241-15.167 2.408-1.925.052-5.375.202-7.666.334-2.292.132-5.749.329-7.682.437l-3.516.196-3.151-1.356c-6.391-2.749-8.758-2.397-13.686 2.036-1.789 1.609-1.684 1.29-1.111 3.387l.479 1.75 1.25.631c.688.348 2.215 1.28 3.395 2.072 3.956 2.658 6.856 3.836 11.883 4.83 9.004 1.779 22.951 1.268 35.969-1.318 7.349-1.46 13.593-1.822 17.753-1.028.688.131 1.542.294 1.898.363l.648.124-.477-.898c-.286-.537-1.141-1.553-2.131-2.531-.909-.899-1.586-1.691-1.504-1.76s.937-.482 1.899-.917c.963-.435 1.975-.98 2.25-1.211l.5-.419-2.166.097c-5.731.256-5.974.237-9.831-.772l-3.498-.915-1.919.401c-1.056.22-4.919 1.04-8.586 1.821-8.542 1.821-17.652 3.712-17.69 3.673-.163-.167-.426-2.145-.301-2.258.087-.079 2.708-.675 5.825-1.324 3.116-.649 8.854-1.853 12.75-2.675 3.896-.823 7.749-1.632 8.562-1.799l1.48-.302 3.77.962 3.771.963 9.833-.344c5.409-.189 11.24-.391 12.959-.45 1.724-.059 3.125-.176 3.125-.261 0-.084-.231-.679-.513-1.322-.282-.642-.469-1.211-.416-1.265.053-.053 3.453-.601 7.554-1.219 4.102-.617 10.646-1.613 14.541-2.212 3.896-.599 8.996-1.37 11.334-1.712 4.832-.708 5.125-.803 2.967-.96-.853-.062-4.026-.331-7.051-.599-3.025-.267-7.75-.68-10.5-.917s-8.712-.763-13.25-1.168c-11.918-1.063-10.262-1.07-14.75.061m-74.784 10.836c1.604.818-.514 3.511-2.767 3.516-1.536.004-2.664-.713-2.384-1.517.778-2.231 3.003-3.095 5.151-1.999m45.959 69.229c.045.117-.413 1.598-1.018 3.292-.604 1.694-1.725 4.917-2.489 7.163-.765 2.246-1.877 5.471-2.471 7.167-.594 1.695-1.621 4.658-2.282 6.583-2.862 8.329-4.499 10.78-8.095 12.115-1.821.676-9.169.418-9.637-.339-.088-.142.354-5.368.463-5.478.042-.041.227.006.412.105 1.323.708 4.578 1.036 5.88.592 1.35-.459 2.979-2.416 2.979-3.576 0-.335-1.106-2.883-6.84-15.752-2.13-4.78-5.007-11.276-5.114-11.545-.067-.168.65-.203 3.473-.167l3.556.045.695 1.667c.382.916 1.758 4.216 3.057 7.333 1.3 3.117 2.815 6.754 3.368 8.083.992 2.387 1.305 2.981 1.305 2.484 0-.138.57-2.084 1.266-4.325.696-2.242 1.891-6.138 2.655-8.659.764-2.52 1.547-5.087 1.74-5.704l.35-1.12 2.536-.051c1.395-.028 2.895-.067 3.333-.088.52-.024.825.037.878.175m10.992.371c8.421.402 15.212.739 17.125.85l1.792.104v36.487l-3.375-.108c-1.857-.059-3.469-.137-3.584-.173-.164-.052-.208-3.293-.208-15.471v-15.405l-1.875-.105c-1.031-.058-3.694-.198-5.917-.311l-4.041-.206v30.95l-2.459-.12c-1.352-.066-2.983-.166-3.625-.222l-1.166-.103-.043-18.208-.042-18.208 1.126.001c.619.001 3.45.112 6.292.248m-43.624 18.362.042 18.195-.459.089c-.252.05-1.903.14-3.667.202l-3.209.112v-36.543l.625-.022c.344-.012 1.488-.075 2.542-.141 1.054-.065 2.404-.112 3-.103l1.083.016zm-19.4-16.348c10.659 2.736 9.361 20.152-1.731 23.227-.702.195-2.77.493-4.745.685-1.925.188-3.669.376-3.875.419l-.375.079v12.487l-.375.082c-.206.045-1.613.199-3.125.343-1.513.143-2.956.301-3.208.351l-.459.09v-18.346c0-17.045.02-18.347.279-18.347.426 0 12.102-1.162 12.388-1.233.754-.186 4.295-.077 5.226.163m104.451 1.045c8.924 2.065 13.225 9.137 12.938 21.275-.261 11.051-4.287 16.326-12.448 16.308-11.224-.025-17.383-7.42-17.401-20.891-.018-13.254 6.019-19.212 16.911-16.692m-136.033 3.983c.52 1.827 1.951 6.677 5.695 19.292 2.748 9.261 3.993 13.64 3.903 13.73-.048.048-1.592.323-3.43.611l-3.343.523-.149-.349c-.082-.191-.643-1.998-1.248-4.015-.604-2.016-1.112-3.676-1.127-3.689-.016-.012-2.592.396-5.725.907l-5.696.93-1.036 4.176c-.57 2.297-1.095 4.292-1.166 4.433-.124.244-6.753 1.451-6.941 1.263-.038-.038.58-2.609 1.375-5.712 3.028-11.826 4.773-18.664 6.139-24.058 1.738-6.858 2.104-8.212 2.265-8.384.14-.151 8.423-1.565 9.342-1.596l.585-.02zm171.534 2.361c4.452.833 8.145 1.514 8.208 1.514s.114 8.213.114 18.25c0 16.412-.026 18.25-.26 18.25-.363 0-6.618-1.174-6.777-1.272-.071-.045-.13-7.014-.13-15.488 0-12.212-.043-15.407-.208-15.41-.115-.002-1.933-.331-4.042-.732-2.108-.401-3.846-.718-3.862-.704s-.11 1.675-.209 3.691c-.1 2.016-.218 4.303-.263 5.082s-.159 3.104-.253 5.167c-.379 8.305-1.017 11.281-2.918 13.601-1.741 2.124-5.169 2.441-9.379.865l-.912-.341.085-2.652c.099-3.11-.007-2.892 1.21-2.474 3.038 1.046 4.203-.017 4.839-4.416.254-1.75.536-7.157 1.178-22.583.06-1.421.135-2.63.167-2.686.071-.124 2.742.342 13.412 2.338m-148.011-1.725c-1.055.119-2.086.222-2.292.228l-.375.011v12.938l1.292-.135c4.566-.476 5.253-.651 6.691-1.707 3.459-2.539 3.374-9.145-.141-10.922-1.333-.674-2.24-.746-5.175-.413m108.044.979c-2.895.701-4.532 3.915-4.857 9.532-.621 10.76 2.234 16.478 8.229 16.478 4.355 0 6.288-3.281 6.527-11.083.324-10.588-3.57-16.46-9.899-14.927m-155.803 10.635c.062 5.523.09 13.717.061 18.209l-.052 8.166-3.167.785c-1.742.432-3.271.788-3.398.792-.227.007-.178-18.465.064-24.16l.081-1.917-.677 2.084c-1.626 4.997-4.416 13.616-5.817 17.965-1.282 3.977-1.577 4.737-1.886 4.849-.692.251-5.955 1.403-6.037 1.322-.09-.091-2.681-6.74-3.851-9.886-.409-1.1-1.521-4.025-2.471-6.5-.949-2.475-1.772-4.642-1.829-4.816-.176-.538-.184-.267-.071 2.482.229 5.553.365 23.696.18 23.81-.294.182-6.359 1.564-6.452 1.471-.138-.138-.099-36.336.039-36.421.202-.125 8.679-2.11 9.008-2.11.214 0 .403.277.655.959.195.527 1.249 3.32 2.343 6.208 1.094 2.887 2.796 7.387 3.781 10 2.011 5.334 2.024 5.364 2.157 5 .15-.408 3.045-9.207 3.949-12 1.503-4.648 4.684-14.249 4.74-14.309.089-.097 7.793-1.986 8.18-2.006l.355-.018zm16.788 1.162c-1.115 4.426-2.071 8.205-2.125 8.399l-.098.352 1.722-.288c.947-.159 2.832-.459 4.188-.666l2.467-.377-.107-.52c-.059-.286-.771-3.033-1.583-6.103-.811-3.071-1.64-6.259-1.841-7.084s-.417-1.558-.48-1.63c-.064-.071-1.028 3.491-2.143 7.917m197.887-6.817 3.167.872.044 6.698.043 6.699.707.186c7.096 1.869 8.959 2.537 10.863 3.895 7.265 5.185 8.222 17.407 1.617 20.639-1.085.53-1.153.541-3.357.536l-2.25-.004-5.084-1.38c-2.796-.758-5.571-1.516-6.166-1.682-.596-.167-1.59-.434-2.209-.593l-1.125-.289v-18.232c0-17.255.016-18.231.292-18.225.16.004 1.717.399 3.458.88m3.29 25.88.044 6.123 2.75.721c5.547 1.453 7.514.576 7.791-3.474.336-4.893-1.976-7.295-8.625-8.964-.779-.195-1.549-.395-1.71-.442-.277-.083-.291.254-.25 6.036m-98.623 9.645c23.197 1.012 45.806 3.501 67.333 7.411 17.35 3.152 38.199 8.11 53.417 12.704 2.154.65 4.094 1.22 4.31 1.267.503.11.47.398-.66 5.707-3.86 18.139-8.439 32.42-14.001 43.666-12.539 25.353-34.287 50.684-66.899 77.919-15.758 13.16-36.432 27.873-55.917 39.794-2.245 1.374-4.394 2.65-4.775 2.835l-.692.336-.975-.548c-1.51-.849-8.005-4.803-9.308-5.668-.641-.425-1.654-1.064-2.25-1.419-3.359-2.001-17.124-11.306-23.166-15.661-36.233-26.112-62.882-51.854-81.357-78.588-12.452-18.018-19.834-36.743-25.552-64.812-.997-4.892-1.123-4.331 1.118-4.985 42.726-12.485 86.116-19.244 130.124-20.271 5.11-.119 23.98.083 29.25.313m-19.417 22.697c-14.051 2.11-19.706 18.319-9.702 27.808 3.675 3.486 4.792 4.677 5.317 5.67 1.233 2.332 2.105 5.371 2.583 8.997.299 2.277.302 19.151.004 23.333-.404 5.667-1.367 14.116-1.712 15.025l-.135.358-1.644-.388c-8.336-1.97-15.67-7.679-19.627-15.278l-.929-1.783 1.616-2.8c3.45-5.978 5.229-9.093 5.229-9.153 0-.035-3.346-.064-7.436-.064h-7.436l.115 1.125c.958 9.43 3.27 15.472 8.18 21.375 5.963 7.17 15.466 12.125 24.199 12.62l1.717.097-.044-28.4-.045-28.4-.399-.99c-.49-1.219-1.396-2.144-3.497-3.576-4.044-2.756-5.694-5.585-5.697-9.768-.007-11.849 16.05-15.449 21.085-4.727 2.505 5.337.688 10.879-4.742 14.456-2.311 1.523-3.188 2.388-3.698 3.651l-.385.954-.044 28.4-.044 28.401 1.831-.105c17.208-.984 32.34-17.043 32.34-34.32v-.793h-14.871l.243.375c.134.206.866 1.462 1.626 2.792.76 1.329 2.208 3.834 3.217 5.566 2.107 3.618 2.049 3.115.656 5.681-3.197 5.889-9.101 11.031-15.497 13.497-1.773.683-5.4 1.633-5.565 1.457-.244-.26-1.302-8.992-1.559-12.868-.057-.871-.132-1.808-.166-2.083-.481-3.875-.49-19.714-.014-23.615.809-6.622 2.225-9.628 6.172-13.104 4.81-4.236 6.654-7.952 6.631-13.365-.039-9.462-8.884-17.408-17.873-16.058m-20.451 110.333-1.701.582.1 1.113c.054.613.11 1.129.124 1.148s.602-.144 1.308-.361l1.283-.396.044 7.111.043 7.112h3l.044-8.459.043-8.458-1.293.013c-1.018.011-1.656.137-2.995.595m9.88-.272c-3.836 1.498-4.016 8.528-.262 10.22 1.478.667 3.788.323 4.83-.72.517-.516.587-.328.379 1.018-.509 3.289-2.631 4.56-5.817 3.484-1.296-.438-1.177-.532-1.249.978l-.06 1.233.667.252c1.136.431 4.959.378 5.956-.082 5.395-2.492 5.262-15.037-.176-16.547-1.033-.287-3.34-.198-4.268.164m15.238-.18c-3.176.969-4.566 3.604-4.577 8.677-.013 6.072 1.834 8.503 6.309 8.304 3.288-.147 4.861-1.981 4.833-5.637-.034-4.457-3.928-6.866-7.137-4.417-.893.682-.89.685-.749-.674.34-3.288 2.676-4.711 5.89-3.586 1.19.416 1.129.469 1.227-1.052l.079-1.235-1.179-.268c-1.214-.276-3.945-.341-4.696-.112m12.564.114c-4.887 1.733-5.291 13.724-.549 16.305 1.838 1.001 4.7.742 6.178-.56 3.153-2.775 3.304-11.485.254-14.642-1.234-1.277-3.955-1.787-5.883-1.103m-24.495 2.087c.955.435 1.73 2.354 1.503 3.72-.635 3.819-4.389 3.286-4.402-.625-.007-2.241 1.423-3.767 2.899-3.095m27.848.693c1.889 1.89 1.657 10.096-.319 11.302-2.068 1.261-3.46-1.097-3.44-5.827.021-4.967 1.749-7.484 3.759-5.475m-13.894 5.74c1.325.783 1.732 3.554.743 5.049-1.554 2.348-4.124.706-3.895-2.489.162-2.261 1.634-3.456 3.152-2.56" fill="#fbfbfb"/><path d="m133.5 67.34c-.871.169-1.771.348-2 .396-2.66.565-9.959 2.06-15.583 3.193-3.85.776-7.15 1.45-7.334 1.499-.183.048-.52.119-.75.156-.229.038-2.816.565-5.75 1.173-2.933.607-5.858 1.204-6.5 1.325l-1.166.221.833.05c.458.027 1.208.061 1.667.074.458.013 1.846.077 3.083.141s2.888.146 3.667.182c1.52.071 3.539.197 5.416.34.642.048 3.192.197 5.667.33 12.825.687 28.821 2.3 38.25 3.856 2.895.478 3.119.573 2.277.973-.585.277-.985.601-4.144 3.353-1.337 1.166-3.447 2.841-6.736 5.347l-.48.366.666.014c3.358.071 9.339 2.082 12 4.035 3.003 2.203 8.065 4.504 11.084 5.038.229.04.416.085.416.1 0 .014.15.053.334.086.183.032.783.171 1.333.308 1.072.266 4.027.661 7 .935 2.651.244 10.005.201 13.546-.079 3.457-.274 7.997-.728 8.371-.838.302-.088 1.336-.256 3-.487 1.297-.18 4.353-.727 6-1.074 8.287-1.748 15.806-1.525 21.135.626l.886.358-.109-.794c-.376-2.755-1.125-4.728-2.412-6.357-.383-.484-.671-.894-.64-.911 1.066-.601 2.136-1.527 2.735-2.366l.738-1.035 3.792-.108c2.085-.059 4.504-.141 5.375-.181.87-.041 2.97-.116 4.666-.168 1.696-.051 3.507-.135 4.023-.186l.94-.093-.436-1.027c-.24-.565-.475-1.065-.523-1.111s-.1-.158-.116-.25-.077-.289-.135-.438c-.086-.219.049-.296.696-.4.441-.071.914-.153 1.051-.182.138-.029.513-.085.834-.124.32-.04 1.595-.23 2.833-.424 7.274-1.138 13.327-2.059 15-2.28 1.054-.14 3.042-.434 4.417-.654s3.512-.551 4.75-.737c1.237-.185 4.2-.642 6.583-1.014 4.278-.669 6.101-.943 13.716-2.056 5.119-.748 5.193-.811 1.284-1.089-1.467-.104-4.317-.339-6.333-.522-7.28-.661-15.076-1.353-18.834-1.673-2.108-.179-4.283-.367-4.833-.418-1.971-.182-2.513-.231-3.417-.312-.871-.077-1.642-.157-3.333-.345-.413-.046-2.25-.197-4.083-.336-1.834-.139-4.046-.327-4.917-.418s-3.796-.35-6.5-.575-5.479-.459-6.167-.519c-1.292-.113-1.691-.044-6 1.026-2.378.591-15.279 3.768-25.25 6.217-11.062 2.718-11.556 2.839-12.166 2.978-.587.133-1.528.125-2-.017-.454-.136-2.061-.51-4.75-1.105-2.135-.473-5.514-1.247-12.834-2.939-1.787-.413-3.925-.893-4.75-1.065-.825-.173-3.787-.847-6.583-1.498s-5.271-1.212-5.5-1.246-.454-.076-.5-.093-.158-.045-.25-.062c-.092-.018-.279-.081-.417-.141-.137-.06-1.112-.291-2.166-.515-3.416-.725-7.16-1.566-11.5-2.584-2.338-.548-4.475-1.033-4.75-1.077s-.613-.123-.75-.175c-.138-.052-.438-.134-.667-.181s-1.092-.233-1.917-.414c-1.806-.397-2.06-.397-4.083-.003m4.949 2.233c1.449.316 4.247.947 6.218 1.404 1.97.457 4.82 1.099 6.333 1.426 1.512.328 5.52 1.204 8.906 1.948 3.386.743 6.311 1.378 6.5 1.409.189.032.794.166 1.344.299s2.313.518 3.917.857c1.604.338 5.054 1.1 7.666 1.692 8.029 1.821 9.696 2.192 11.237 2.506 2.208.449 2.076.72-.348.716-1.085-.002-5.572.086-9.972.196l-8 .199-2.134-1.132c-3.737-1.981-6.599-2.554-11.283-2.257l-2.25.142-5.916-.981c-7.732-1.284-9.629-1.57-12.667-1.914-.321-.036-1.408-.178-2.417-.315-1.008-.137-3.371-.366-5.25-.51-1.879-.145-4.166-.335-5.083-.423s-4.067-.318-7-.512c-6.523-.431-6.637-.473-3.116-1.14 1.072-.203 4.162-.825 6.866-1.383 2.704-.557 6.829-1.407 9.167-1.888 2.337-.482 4.339-.884 4.448-.894.11-.01 1.385.24 2.834.555m103.968 3.015c.183.038 1.458.148 2.833.244 2.389.168 4.513.352 17.333 1.502 3.117.279 6.079.543 6.584.586.504.044 1.779.154 2.833.247 1.054.092 2.442.212 3.083.266.642.054 1.429.123 1.75.153s1.146.101 1.834.158c.687.057 1.437.133 1.666.169.23.035.929.116 1.555.18 1.49.151 1.26.304-.971.647-1.009.155-3.746.58-6.084.945-2.337.364-5.487.845-7 1.068-4.327.637-10.534 1.574-11.083 1.672-.275.049-.725.123-1 .163-2.829.414-10.584 1.603-10.875 1.668-.488.109-.473.317.111 1.596.268.586.437 1.111.375 1.168-.061.057-2.511.192-5.444.3-2.934.108-7.021.265-9.084.35-2.062.085-5.55.203-7.75.262l-4 .109-3.492-.937c-4.246-1.14-3.507-1.144-8.98.054-2.49.545-5.84 1.264-7.444 1.597-5.913 1.228-7.591 1.582-7.917 1.672-.183.05-.483.115-.667.145-1.452.235-7.228 1.517-7.341 1.63-.105.105.28 1.965.407 1.965.057 0 .365-.08.685-.177.321-.097.77-.213.999-.258.23-.045 2.704-.569 5.5-1.166s6.171-1.302 7.5-1.567c2.368-.473 5.226-1.082 10.608-2.261l2.692-.589 3.558.963c3.941 1.066 3.374 1.018 9.267.792 1.81-.07 2.709-.047 2.709.067 0 .336-1.186 1.124-2.789 1.853-.895.407-1.658.762-1.694.788-.037.027.713.857 1.666 1.844 1.575 1.632 2.54 3.043 2.267 3.316-.056.056-1.137-.076-2.401-.293-4.202-.723-11.573-.447-16.383.614-.596.131-1.27.271-1.5.311-.229.04-.78.155-1.225.255-4.129.934-13.591 1.993-20.191 2.261-6.067.246-14.648-.754-18.78-2.189-.671-.233-1.295-.445-1.387-.471-1.397-.4-4.967-2.273-6.583-3.453-.78-.569-2.13-1.386-3.001-1.816l-1.583-.783-.458-1.647c-.64-2.301-.64-2.302.749-3.478 6.18-5.229 7.836-5.408 15.793-1.715l1.583.735 1.75-.129c1.674-.124 3.966-.279 5.75-.389.458-.028 1.733-.095 2.833-.149s2.638-.141 3.417-.193c.779-.053 3.629-.158 6.333-.234l4.917-.139 4.167-1.029c2.291-.566 7.166-1.77 10.833-2.676 6.915-1.707 10.843-2.659 12.417-3.006.504-.112.99-.246 1.08-.298s.278-.108.417-.124c.139-.017 2.803-.664 5.919-1.44 3.117-.776 6.154-1.53 6.75-1.675.999-.244 3.47-.262 4.584-.034m-85.25 11.588c-.927.392-2.201 2.198-1.897 2.69 1.101 1.78 5.397.372 5.397-1.77 0-.783-2.357-1.402-3.5-.92m42.563 69.618c-.102.068-.314.573-.47 1.123-.157.55-.728 2.432-1.27 4.184-.541 1.751-1.007 3.326-1.034 3.5-.027.173-.107.409-.179.524-.071.115-.079.208-.016.208.062 0 .02.113-.094.25-.114.138-.152.25-.084.25.069 0 .049.094-.043.209-.092.114-.557 1.521-1.033 3.125-2.222 7.484-2.071 7.166-2.663 5.625-.22-.573-.537-1.274-.703-1.558-.167-.284-.254-.565-.194-.625s.009-.109-.114-.109c-.122 0-.178-.044-.124-.098.055-.054-.164-.711-.485-1.459-.322-.748-1.261-3.01-2.088-5.026-.828-2.017-1.587-3.817-1.689-4-.101-.184-.169-.39-.149-.459.019-.068-.04-.125-.131-.125-.092 0-.148-.058-.125-.129s-.446-1.316-1.042-2.767l-1.083-2.639-3.34.059-3.339.06.276.583c.152.321.711 1.596 1.244 2.833.533 1.238 1.031 2.275 1.106 2.306.076.031.096.125.044.209-.052.083-.027.152.054.152.082 0 .153.094.157.208.005.115.617 1.582 1.361 3.259.745 1.678 1.353 3.122 1.353 3.209 0 .086.08.157.177.157s.13.075.073.167c-.056.092-.036.167.046.167s.151.093.155.208c.003.115.51 1.333 1.127 2.708.616 1.375 1.572 3.55 2.124 4.834.552 1.283 1.071 2.358 1.152 2.389.082.031.106.124.054.208s-.002.153.11.153c.113 0 .161.043.109.096-.053.052.226.821.619 1.708.713 1.606.715 1.615.454 2.279-1.2 3.047-3.528 4.014-7.325 3.042-1.773-.453-1.941-.404-1.974.574-.013.395-.079 1.242-.147 1.884-.246 2.326-.327 2.124.996 2.478 3.289.878 8.262.359 10.36-1.081 1.06-.727 3.764-4.306 3.262-4.316-.067-.002-.036-.058.068-.125.38-.246 3.149-7.761 2.967-8.055-.041-.067-.014-.148.06-.178.178-.074 1.255-3.137 1.236-3.515-.009-.16.039-.291.106-.291.066 0 .133-.162.148-.36.014-.198.124-.422.243-.498.119-.075.152-.138.072-.14-.08-.001-.069-.096.024-.211.094-.114.283-.583.421-1.041.138-.459.827-2.484 1.531-4.5.704-2.017 1.904-5.486 2.666-7.709l1.385-4.041-3.108.002c-1.709.002-3.191.058-3.294.125m10.311 18.111.042 18.012 1.75.108c.963.06 2.519.143 3.459.183l1.708.075v-30.82l3.125.13c1.719.071 3.95.158 4.958.192 1.009.035 2.246.079 2.75.098.505.018 1.012.095 1.127.17.166.107.209 3.321.205 15.499l-.005 15.363 1.295.054c.712.03 2.251.106 3.42.169l2.125.114v-36.194l-4.292-.203c-2.36-.112-5.529-.274-7.041-.362-3.35-.192-13.177-.618-14.043-.607l-.625.007zm-39.708-17.565c-1.054.064-2.348.126-2.875.138l-.958.022v36.16l2.042-.102c1.123-.057 2.478-.088 3.013-.07.534.018 1.172-.011 1.416-.065l.446-.098-.043-18.079-.044-18.079-.54.028c-.297.016-1.403.081-2.457.145m-21.5 1.599c-.321.039-2.046.225-3.833.414-1.788.188-3.475.375-3.75.415-1.253.18-3.687.42-4.25.419h-.417v18.135c0 12.015.057 18.117.167 18.081.092-.03 1.404-.173 2.917-.318 1.512-.145 2.956-.305 3.208-.355l.458-.09v-6.237c0-5.828.019-6.236.292-6.238.16-.001 1.257-.115 2.437-.254 1.988-.234 2.521-.301 4.105-.514.32-.043.771-.103 1-.133s.416-.069.416-.087.241-.064.535-.103c3.663-.479 7.568-4.405 8.757-8.806.729-2.696.347-8.189-.638-9.174-.121-.121-.175-.267-.118-.324s.011-.103-.101-.103-.158-.076-.101-.168-.013-.213-.155-.268c-.143-.054-.225-.156-.182-.225.215-.348-3.025-3.339-3.309-3.055-.057.058-.104.024-.104-.075 0-.643-4.766-1.253-7.334-.937m103.282.835c-.057.057-.275.129-.485.159-1.254.183-1.682.315-2.943.912-1.469.695-3.483 2.483-4.022 3.572-.136.275-.302.54-.368.589-1.072.804-2.279 6.259-2.378 10.744-.166 7.569 1.441 12.958 5.059 16.963.604.669 2.522 2.22 2.522 2.04 0-.055.156.046.346.223 1.963 1.829 9.149 2.949 12.904 2.011 2.048-.511 5.686-2.917 5.316-3.515-.047-.076-.008-.139.087-.139.557 0 2.177-3.648 2.77-6.235.652-2.849.647-10.396-.01-13.614-.442-2.171-2-6.233-2.548-6.647-.063-.048-.227-.312-.364-.587-1.132-2.276-6.23-5.671-8.965-5.97-.257-.028-.558-.107-.669-.176-.11-.068-.275-.077-.367-.021-.092.057-.26.044-.375-.029-.357-.227-5.311-.479-5.51-.28m-133.365 2.836c-1.283.221-2.487.423-2.675.449s-.432.103-.543.171c-.111.069-.345.079-.519.024-.175-.056-.37-.017-.434.086-.063.103-.29.143-.504.09-.213-.054-.436-.02-.495.076-.06.096-.255.127-.436.07-.371-.118-1.082.281-1.101.618-.007.122-.588 2.473-1.29 5.223-.703 2.75-1.304 5.187-1.337 5.416-.033.23-.074.454-.09.5-.017.046-.049.159-.07.25-.021.092-.059.223-.085.292-.025.069-.062.181-.081.25-.02.069-.082.237-.139.375-.222.532-.944 3.562-.868 3.639.045.044.011.164-.074.266-.085.103-.185.372-.223.599-.037.227-.111.525-.164.663-.13.338-2.824 11.017-2.859 11.336-.016.139-.086.345-.156.458s-.084.275-.031.361c.053.085.019.203-.076.261-.095.059-.127.18-.072.269.056.089.026.253-.066.364-.092.11-.173.257-.181.326-.008.068-.02.143-.027.166s-.039.154-.072.292c-.032.137-.393 1.563-.801 3.167-.409 1.604-.733 2.926-.721 2.938.219.205 6.515-1.082 6.628-1.355.134-.323 1.406-5.343 1.549-6.117.04-.21.083-.383.097-.383s.152-.45.305-1l.279-1 1.749-.282c2.302-.372 5.819-.964 6.291-1.059.207-.042.582-.119.834-.172s.646-.116.875-.141c.229-.024.454-.061.5-.083 1.006-.472 1.677.17 2.077 1.987.178.809 1.143 3.944 1.258 4.083.075.092.136.204.135.25-.022 1.556.247 1.625 3.921 1.017 3.422-.567 3.202-.472 2.877-1.249-.138-.33-.208-.601-.156-.601s.002-.113-.112-.25c-.114-.138-.152-.25-.084-.25.069 0 .031-.113-.083-.25-.114-.138-.152-.25-.083-.25.068 0 .03-.113-.084-.25-.114-.138-.151-.25-.083-.25s.041-.101-.061-.224c-.103-.123-.152-.258-.109-.3.042-.042-.072-.56-.254-1.151s-.785-2.65-1.34-4.575c-.556-1.925-1.054-3.613-1.108-3.75-.054-.138-.086-.306-.071-.375.014-.069-.057-.125-.158-.125-.102 0-.142-.11-.091-.245.052-.134.021-.289-.068-.345-.089-.055-.122-.164-.073-.243.048-.079.011-.192-.084-.25-.094-.059-.136-.164-.093-.234.043-.069-.373-1.62-.923-3.446-.551-1.826-1.455-4.895-2.01-6.82-.554-1.925-1.081-3.591-1.172-3.701-.09-.111-.115-.28-.056-.375.059-.096.03-.174-.064-.174s-.128-.113-.075-.25c.052-.138.009-.25-.096-.25-.106 0-.17-.098-.143-.217s-.251-1.244-.618-2.5c-.777-2.662-.324-2.445-3.833-1.84m162.128 1.765c-.151 2.045-.828 18.607-.826 20.208 0 .275-.058 1.138-.13 1.917-.071.779-.149 1.642-.174 1.917-.452 5.083-2.146 6.745-5.461 5.359-.392-.164-.566-.178-.569-.048-.002.104-.061 1.28-.13 2.613l-.125 2.425 1.81.575c7.384 2.347 10.294-.929 10.886-12.258.095-1.833.208-3.933.249-4.666.042-.734.161-3.021.265-5.084.328-6.48.359-6.756.744-6.711.183.021.595.061.916.088.321.026.677.107.792.179s.283.084.375.028c.092-.057.257-.048.367.02s.353.141.541.163.829.148 1.425.282c.596.133 1.665.338 2.375.454l1.292.211v15.477c0 8.512.056 15.467.125 15.456s.162-.001.208.022c.046.022.271.067.5.098.365.05 3.581.638 5.375.983l.625.121v-18.001c0-19.628.068-18.142-.833-18.309-.138-.026-.775-.165-1.417-.31-.641-.145-1.879-.378-2.75-.519-2.083-.337-2.145-.348-4.083-.723-.917-.177-3.954-.742-6.75-1.255s-5.198-.967-5.339-1.01c-.172-.051-.264.046-.283.298m-130.539.057c1.346.377 2.428 1.26 3.148 2.568l.596 1.083v2.167c0 2.385-.208 3.096-1.397 4.761-1.062 1.487-2.79 2.267-5.715 2.579-1.222.13-2.54.28-2.929.333l-.709.097v-13.314l1.959-.199c1.077-.109 2.033-.225 2.125-.257.451-.155 2.082-.054 2.922.182m107.269.967c2.584.688 4.773 2.917 5.569 5.67.188.65.385 1.293.439 1.431.053.137.124.4.157.583.153.846.187 1 .219 1 .113 0 .258 3.059.258 5.417 0 2.38-.139 5.25-.255 5.25-.021 0-.062.15-.091.333-.47 2.907-2.712 6.417-4.099 6.417-.064 0-.328.085-.586.19-.549.221-2.711.291-2.835.091-.046-.075-.18-.1-.296-.056-.406.156-2.815-1.179-3.62-2.005-2.399-2.465-3.355-5.953-3.348-12.22.011-9.356 2.967-13.571 8.488-12.101m-160.358 1.123c-.275.088-.725.193-1 .234s-1.25.264-2.167.497c-.916.232-1.741.441-1.833.464s-.26.101-.375.173c-.115.071-.278.087-.363.034-.086-.053-.201-.023-.256.066s-.203.123-.328.075-.275-.011-.333.083-.202.134-.319.089c-.333-.128-1.746 3.407-1.513 3.784.05.08.013.146-.081.146s-.128.112-.076.25c.053.137.013.25-.088.25-.102 0-.176.056-.165.125.011.068.002.181-.021.25-.022.068-.056.181-.076.25-.019.068-.082.237-.139.375-.25.601-2.666 8.108-2.682 8.333-.01.137-.073.291-.139.341-.067.049-.149.237-.183.416-.035.18-.111.439-.17.576-.301.698-1.076 3.167-.995 3.167.051 0-.001.112-.115.25-.114.137-.151.25-.083.25s.053.094-.034.208c-.087.115-.711 1.915-1.386 4-1.295 4-1.323 4.056-1.652 3.334-.115-.252-.189-.459-.165-.459s-.059-.187-.185-.416-.248-.53-.272-.667c-.024-.138-.428-1.225-.898-2.417-.47-1.191-1.337-3.479-1.927-5.083s-1.159-3.104-1.264-3.333c-.106-.229-.179-.473-.163-.542s-.033-.125-.11-.125c-.076 0-.138-.095-.138-.211 0-.117-.57-1.711-1.266-3.542-.696-1.832-1.393-3.686-1.549-4.12-.465-1.291-.566-1.283-8.158.64-.55.14-1.075.262-1.166.271-.11.012-.167 6.15-.167 18.047v18.03l.583-.052c.321-.029 1.634-.321 2.917-.649s2.428-.606 2.545-.617c.37-.034.239-16.419-.2-24.934-.088-1.701-.07-1.883.179-1.834.152.03.3.204.328.388.041.265 1.123 3.2 2.364 6.416.088.23.163.484.166.565.004.081.091.201.195.265.105.064.202.279.217.477s.07.36.123.36c.052 0 .108.131.123.292.015.16.507 1.529 1.093 3.041.587 1.513 1.197 3.143 1.355 3.623.158.481.358.917.444.97s.114.167.061.252c-.053.086-.004.155.108.155.113 0 .155.05.095.11s-.026.21.076.333.145.224.096.224c-.112 0 .848 2.508 1.057 2.76.086.103.106.237.046.297-.061.06-.038.11.049.11.088 0 .171.161.186.358.046.605.271.678 1.313.421.539-.133 1.468-.336 2.064-.452s1.174-.281 1.285-.367c.11-.085.274-.111.363-.055.09.055.213.019.274-.081.062-.099.203-.146.314-.103.516.198.909-.524 1.756-3.221.475-1.513 1.394-4.357 2.042-6.32.649-1.963 1.188-3.688 1.198-3.833s.073-.305.139-.355c.067-.049.144-.237.172-.416.027-.18.091-.401.141-.493s.188-.504.307-.917c.119-.412.694-2.212 1.277-4 .583-1.787 1.093-3.437 1.134-3.666.04-.229.089-.436.107-.459s.052-.116.075-.208.06-.223.082-.292c.022-.068.032-.181.021-.25-.011-.068.067-.125.174-.125s.148-.047.09-.105-.027-.252.069-.431c.393-.734.396-.665.21 4.87-.189 5.658-.167 21.344.03 21.269.097-.037.81-.196 1.583-.353.774-.156 1.498-.358 1.608-.448.111-.09.275-.119.364-.063.089.055.213.019.274-.081.061-.099.214-.141.34-.093.125.048.27.019.321-.065.052-.083.197-.112.322-.064s.275.01.333-.084c.059-.094.209-.131.334-.083s.278.006.339-.093c.062-.1.163-.15.226-.111.062.039.094-8.06.07-17.997-.034-14.261-.087-18.065-.25-18.053-.114.008-.432.086-.707.174m21.31 6.77c.624 2.452 1.279 4.859 1.455 5.349.175.489.277.958.225 1.041-.051.083-.006.151.101.151s.152.11.101.245c-.052.135-.021.29.068.345s.126.159.081.231c-.044.072.14.948.41 1.947.694 2.565.878 2.299-1.876 2.725-1.306.203-3.226.517-4.266.699-1.041.182-1.932.291-1.98.242-.049-.048.46-2.285 1.131-4.969.671-2.685 1.21-5.013 1.199-5.173-.012-.16.046-.292.129-.292.084 0 .111-.105.062-.233s-.008-.283.091-.345c.1-.061.138-.181.085-.267-.053-.085-.036-.248.037-.363.072-.115.14-.246.149-.292s.063-.196.119-.333c.056-.138.296-1.075.533-2.083.615-2.615.75-3.084.888-3.084.068 0 .634 2.007 1.258 4.459m191.056-3.353c-.064.064-.116 8.157-.116 17.985 0 18.467-.004 18.339.607 18.229.079-.014.199-.008.268.015.069.022.2.059.292.082.091.023.185.057.208.075.055.044-.234-.034 5.875 1.594 8.102 2.16 7.927 2.124 9.833 2.052 2.178-.082 5.802-1.88 5.33-2.644-.049-.079.058-.222.237-.318 1.522-.814 2.062-6.922.93-10.509-1.28-4.055-5.647-8.85-8.238-9.045-.188-.014-.342-.089-.342-.167s-.07-.098-.155-.045-.203.018-.262-.076c-.058-.095-.171-.132-.25-.084-.079.049-.186.02-.238-.064-.052-.083-.488-.243-.969-.353-1.486-.341-5.855-1.51-6.251-1.672l-.375-.154v-6.652c0-6.905-.026-7.167-.67-6.769-.077.047-.185.013-.24-.076-.056-.089-.211-.12-.345-.068-.135.052-.245.007-.245-.1s-.072-.15-.16-.096-.294.022-.458-.072-1.059-.358-1.989-.587-1.796-.457-1.926-.507c-.129-.049-.287-.038-.351.026m7.051 20.245c0 .102.105.145.233.095.129-.049.285-.038.348.024.062.063.163.118.224.124s.636.166 1.278.356 1.542.44 2 .555c4.351 1.099 6.638 4.171 6.363 8.548-.234 3.71-2.411 4.977-6.686 3.888-.911-.231-1.718-.384-1.792-.338s-.135-.004-.135-.111-.11-.152-.245-.1c-.134.052-.289.021-.345-.068-.055-.089-.166-.121-.248-.071-.082.051-.283.014-.447-.08-.164-.095-.505-.246-.757-.335l-.458-.163v-6.054c0-4.486.052-6.106.2-6.254.25-.25.467-.258.467-.016m-129.584 15.83c-3.575.068-9.425.281-13 .474-10.509.567-11.254.619-16.083 1.117-.321.033-1.033.1-1.583.149-.55.048-1.413.125-1.917.171s-1.104.093-1.333.105c-3.107.161-23.024 2.517-24.5 2.899-.499.128-1.425.249-2 .259-.229.005-.507.083-.618.174-.111.092-.269.125-.352.073-.083-.051-.593-.021-1.132.068-10.984 1.798-18.727 3.161-21.398 3.765-1.5.339-1.878.414-2.167.43-.138.008-.34.085-.451.172s-.274.114-.364.058c-.089-.055-.212-.019-.274.081-.061.099-.208.143-.327.098-.2-.077-5.571 1.03-10.751 2.216-2.72.622-2.537.574-2.791.733-.115.072-.278.087-.364.034-.085-.052-.205-.014-.267.085-.061.1-.214.142-.339.094s-.273-.015-.328.074-.16.125-.233.08-1.024.143-2.114.417c-1.089.275-2.168.539-2.397.588-1.825.386-11.613 2.959-11.777 3.095-.115.095-.282.127-.371.072s-.21-.023-.269.072c-.058.094-.171.132-.25.083s-.191-.011-.25.083c-.058.095-.162.138-.232.095-.069-.043-2.332.561-5.03 1.341-2.697.78-4.997 1.427-5.11 1.436-.149.012-.156.077-.027.232.098.118.128.297.066.396-.062.1-.024.288.083.417.108.129.156.3.107.378-.082.134 1.052 5.6 2.222 10.705.284 1.238.536 2.342.561 2.454s.092.25.15.308c.057.057.064.209.014.338-.049.128-.001.234.106.234.12 0 .155.129.09.333-.063.199-.03.333.082.333.104 0 .142.074.087.164-.103.166.847 3.946 1.069 4.253.066.092.128.322.137.513.025.502 2.696 9.771 2.88 9.993.086.103.189.368.23.59.04.222.089.423.107.446s.052.116.075.208.057.185.075.208.062.192.097.375c.172.901 2.648 7.85 2.909 8.164.091.11.117.25.056.31-.06.06-.038.11.05.11.087 0 .169.131.182.291.012.161.265.817.562 1.459.297.641.528 1.223.513 1.291-.015.069.06.125.167.125s.152.042.101.094c-.169.169 2.593 6.098 2.893 6.212.081.031.105.125.053.209-.052.083-.01.152.092.152s.14.075.083.167c-.056.091-.036.166.046.166s.15.094.151.209c.005.61 7.221 13.104 7.846 13.583.149.115.218.208.152.208-.287 0 6.924 10.317 7.539 10.787.147.111.196.205.11.208s.034.212.266.464c.233.252.9 1.095 1.482 1.875.583.779 1.663 2.16 2.401 3.068.737.909 1.709 2.109 2.159 2.667 1.891 2.345 7.335 8.552 10.099 11.515 3.879 4.158 11.641 12.083 11.834 12.083.056 0 .915.806 1.911 1.792.995.985 1.757 1.679 1.692 1.541-.064-.137-.02-.113.098.054.193.274 3.072 2.981 4.725 4.444.361.319 1.406 1.257 2.323 2.083 3.882 3.502 8.462 7.4 14.87 12.658.846.694 1.611 1.261 1.7 1.261.09 0 .223.104.296.232.074.127 1.109.987 2.3 1.911 1.192.924 2.277 1.776 2.412 1.894 1.595 1.391 15.748 11.88 16.03 11.88.07 0 .224.121.343.268.118.147 1.078.866 2.132 1.596 1.054.731 2.718 1.886 3.698 2.566 3.129 2.172 5.123 3.5 5.229 3.482.057-.01.19.087.297.215.168.204 3.464 2.389 10.318 6.843 1.077.7 1.959 1.218 1.961 1.151.001-.066.057-.038.125.064.126.191 3.629 2.391 7.122 4.474 3.092 1.844 3.48 2.05 3.773 2.003.489-.078 10.433-6.092 10.662-6.449.056-.087.131-.134.167-.104.302.254 23.815-15.606 23.815-16.063 0-.102.043-.141.096-.088.249.248 20.205-14.732 20.756-15.58.057-.087.258-.245.448-.351 1.067-.597 13.398-11.02 17.853-15.092.864-.789 1.989-1.816 2.5-2.282 3.949-3.597 5.654-5.222 9.777-9.32 2.583-2.566 5.505-5.529 6.492-6.583.988-1.054 2.183-2.329 2.656-2.833 2.945-3.141 8.558-9.609 11.342-13.069 2.362-2.936 4.901-6.265 4.78-6.268-.064-.002.042-.134.235-.292 1.321-1.08 12.349-17.817 12.367-18.769.001-.082.071-.194.155-.25.21-.141 2.926-5.219 2.929-5.477.001-.115.069-.209.151-.209s.107-.068.055-.152-.028-.178.053-.208c.313-.119 4.353-8.849 4.404-9.515.012-.16.085-.291.163-.291.077 0 .094-.075.038-.167-.057-.092-.011-.167.101-.167s.155-.049.095-.109c-.061-.061-.042-.192.041-.292.137-.165.935-2.328 2.325-6.302.28-.8.532-1.625.561-1.834.028-.208.111-.473.182-.588.072-.114.07-.209-.004-.211-.074-.001-.055-.057.042-.125.164-.113 1.326-3.774 2.05-6.455.173-.642.81-2.996 1.415-5.23.606-2.235 1.064-4.124 1.019-4.197-.046-.074-.01-.179.079-.234s.123-.203.075-.328-.006-.278.093-.339c.1-.062.136-.185.081-.274-.056-.09-.026-.253.065-.364.092-.111.286-.781.432-1.491.147-.709.42-1.946.609-2.75.549-2.344 1.785-8.433 1.775-8.753-.008-.26-.676-.555-1.573-.694-.112-.017-.251-.078-.308-.136-.058-.057-.21-.064-.338-.014-.129.049-.234.006-.234-.095 0-.102-.056-.173-.125-.158-.069.014-.238-.019-.375-.074-.395-.159-9.703-2.772-10.167-2.854-.229-.041-.435-.089-.458-.107s-.117-.052-.208-.075c-.092-.023-.223-.06-.292-.082-.069-.023-.189-.029-.268-.015-.078.014-.229-.047-.336-.135-.156-.13-10.215-2.768-11.771-3.088-.229-.047-1.275-.308-2.324-.581s-1.962-.461-2.03-.42c-.068.042-.172-.003-.232-.1s-.252-.13-.428-.075c-.187.06-.319.023-.319-.087 0-.114-.134-.147-.334-.084-.196.063-.333.03-.333-.079 0-.102-.094-.17-.208-.152-.115.019-.321-.01-.459-.063-.137-.054-1.15-.288-2.25-.521s-3.9-.84-6.222-1.347c-2.322-.508-4.286-.884-4.363-.836-.078.048-.191.008-.251-.089-.059-.097-.246-.133-.414-.079-.168.053-.354.017-.414-.08-.06-.096-.182-.131-.271-.075-.089.055-.253.029-.364-.058-.11-.087-.313-.166-.451-.176-.137-.009-1.562-.283-3.166-.609s-3.967-.775-5.25-.998c-6.065-1.055-14.418-2.443-15.167-2.52-1.32-.136-1.658-.179-1.792-.229-.068-.026-.331-.068-.583-.094-.252-.025-.646-.088-.875-.139-1.933-.43-21.818-2.8-24.417-2.909-.726-.031-3.343-.258-4.916-.427-12.353-1.327-32.608-1.951-51.584-1.589m16.543 22.897c5.347 1.293 10.285 5.657 11.795 10.422.159.505.354.999.433 1.099s.096.23.037.288c-.058.058-.017.212.091.342s.185.3.171.379c-.014.078-.009.18.012.226.241.529.244 5.874.003 6.625-.022.068-.057.2-.079.291-.021.092-.059.223-.084.292-.026.069-.065.2-.088.292-.023.091-.061.204-.084.25s-.057.139-.077.208c-.059.211-.265.746-.696 1.811-.95 2.349-2.793 4.796-4.889 6.489-.644.52-1.171 1.007-1.171 1.083 0 .075-.151.184-.336.243-.952.302-4.122 5.476-3.737 6.099.051.082.016.15-.079.15-.094 0-.128.112-.075.25.053.137.013.25-.089.25-.101 0-.167.056-.145.125.021.069-.089.537-.244 1.042-1.359 4.4-1.388 28.727-.043 35.666.045.23.126.717.181 1.084.055.366.137.891.182 1.166s.101.725.125 1 .066.575.094.667.075.354.103.583c.028.23.08.642.115.917.034.275.074.701.089.947.024.426.061.443.77.374 1.768-.174 8.089-2.481 8.089-2.954 0-.095.046-.127.102-.071.622.623 9.559-7.012 9.564-8.171 0-.115.065-.208.143-.208.374 0 3.379-5.162 3.303-5.673-.049-.335-3.123-5.727-3.305-5.8-.077-.03-.14-.122-.14-.204s-.758-1.47-1.684-3.086c-1.011-1.765-1.622-2.998-1.531-3.089.088-.088 3.264-.134 7.558-.108l7.407.043.054.75c.225 3.067-1.231 9.866-2.873 13.42-.317.686-.532 1.247-.478 1.247s-.013.131-.149.291c-.136.161-.487.771-.78 1.356-1.381 2.758-6.56 9.353-7.345 9.353-.064 0-.337.232-.606.516-.687.723-3.26 2.632-4.698 3.486-.665.394-1.209.792-1.209.885s-.043.125-.096.072-1.002.343-2.11.88-2.77 1.216-3.695 1.509c-.925.294-1.764.597-1.864.675-.1.077-.226.096-.281.042-.054-.054-.197-.037-.318.038-.241.151-.433.198-1.302.322-.321.046-.696.118-.834.159-.72.218-4.67.69-5.21.623l-.628-.078.044-28.523c.043-27.704.054-28.547.365-29.355.426-1.102 1.592-2.241 3.753-3.663 9.344-6.151 6.835-19.22-3.949-20.572-9.436-1.183-15.616 9.911-9.802 17.594.752.994 1.084 1.278 4.033 3.449 1.86 1.369 2.449 2.009 2.966 3.218.344.803.345.915.389 29.328l.044 28.523-.544.08c-.531.078-3.042-.211-4.711-.543-.458-.091-1.058-.193-1.333-.227s-.613-.108-.75-.164c-.138-.057-.4-.131-.583-.164-.184-.033-.446-.101-.584-.152-.137-.05-1-.33-1.916-.621-.917-.291-2.604-.983-3.75-1.537s-2.113-.992-2.148-.973c-.036.019-.111-.03-.167-.108s-1.077-.792-2.269-1.587c-4.784-3.189-9.237-8.125-11.434-12.674-.21-.435-.447-.792-.525-.792-.079 0-.097-.075-.041-.166.057-.092.019-.167-.083-.167s-.14-.075-.083-.167c.056-.091.036-.166-.046-.166s-.156-.094-.166-.209c-.009-.114-.356-1.033-.77-2.041-1.062-2.588-1.533-4.402-2.011-7.75-.623-4.37-.684-5.172-.407-5.348.468-.296 14.983-.188 14.983.112 0 .231-2.026 3.887-3.099 5.592-.21.334-.336.653-.28.709.055.056.014.101-.093.101s-.195.078-.195.174c0 .095-.14.376-.311.625-.509.737-2.5 4.272-2.497 4.433.002.081-.088.204-.2.273-.354.219 2.729 5.625 3.447 6.045.126.074.228.235.228.359 0 .234 3.995 4.485 4.109 4.372.035-.036.333.19.662.5.809.763 4.068 2.902 4.25 2.79.08-.05.146-.023.146.059 0 .524 7.2 3.204 8.606 3.204.316 0 .527-.493.648-1.513.118-.996.203-1.646.313-2.404.455-3.133.645-4.826.851-7.583 1.014-13.59.644-28.664-.789-32.146-.099-.241-.205-.566-.236-.724-.121-.619-1.156-2.771-1.828-3.803-.703-1.078-1.114-1.493-4.365-4.411-.919-.825-1.678-1.555-1.686-1.623s-.283-.476-.611-.905c-.661-.867-1.741-2.941-2.069-3.972-.116-.366-.286-.76-.376-.875-.091-.114-.11-.208-.042-.208.069 0 .034-.109-.077-.243-.111-.133-.156-.316-.101-.405s.019-.213-.08-.274c-.1-.061-.137-.226-.083-.366.053-.14.027-.338-.058-.441-.087-.106-.13-1.391-.097-2.938.07-3.373.065-3.304.26-3.425.087-.054.115-.168.063-.253-.053-.085-.037-.249.036-.363.073-.115.14-.246.149-.292s.064-.196.122-.333c.057-.138.298-.774.534-1.415 2.631-7.12 11.343-11.662 18.875-9.841m-21.478 109.483c.136.164.176 2.584.145 8.708l-.043 8.481-1.333.05c-.733.027-1.502.007-1.708-.045l-.376-.094v-6.904c0-3.797-.065-6.944-.145-6.993-.079-.05-.606.066-1.17.256-1.333.451-1.523.369-1.498-.639.038-1.567.128-1.721 1.186-2.048.525-.162 1.088-.353 1.25-.424.162-.07.35-.116.419-.102.069.015.125-.056.125-.158 0-.101.112-.141.25-.088.137.052.25.023.25-.066 0-.261 2.427-.2 2.648.066m9.435-.06c0 .015.151.044.335.066 3.222.371 5.192 6.195 4.001 11.822-.986 4.659-4.832 6.736-9.62 5.195l-.951-.307.097-1.346c.121-1.665.142-1.688 1.148-1.243.979.434 2.794.597 3.615.326.641-.211 1.852-1.282 1.71-1.511-.048-.078.027-.257.166-.397.238-.237.583-1.596.583-2.296 0-.275-.08-.254-.679.18-4.03 2.919-8.809-1.898-7.052-7.109.412-1.223 2.897-3.895 2.897-3.115 0 .06.113.015.25-.099.138-.114.25-.146.25-.07 0 .075.072.065.159-.022.122-.122 3.091-.193 3.091-.074m15.223.066c.107.066.272.071.368.012s.295-.007.442.115c.148.123.293.208.324.189.03-.019.291.049.58.149l.525.183-.109 1.424c-.128 1.666-.104 1.622-.712 1.31-2.918-1.496-5.72-.372-6.256 2.508-.241 1.301-.201 1.336.89.771 4.423-2.29 8.664 2.95 6.401 7.908-1.511 3.308-6.51 3.996-9.117 1.254-2.727-2.87-2.738-10.505-.02-13.857.532-.655 2.288-1.837 2.586-1.74.069.022.125-.042.125-.144 0-.101.11-.142.245-.09.135.051.277.04.317-.024.095-.154 3.158-.125 3.411.032m12.298-.018c.053.052.2.055.329.005.128-.049.234.006.234.123s.046.166.103.109c.186-.186 1.982 1.163 2.453 1.842 2.265 3.268 1.974 11.236-.503 13.786-1.237 1.274-3.868 2.037-5.387 1.563-3.231-1.009-4.71-3.745-4.715-8.727-.004-4.189.91-6.534 3.152-8.092.378-.263.735-.431.792-.373.058.057.105.009.105-.108 0-.118.108-.171.244-.118.135.051.278.04.318-.024.085-.139 2.736-.125 2.875.014m-29.528 2.762c-1.33.811-1.85 3.715-.846 4.731.113.115.25.328.306.474.198.524 1.216.856 1.833.598.538-.225 1.145-.778.86-.783-.08-.001-.033-.074.104-.16.138-.087.257-.217.265-.29.008-.072.083-.281.166-.464.236-.515.19-2.626-.058-2.709-.114-.038-.166-.138-.114-.222s.01-.152-.092-.152-.147-.064-.098-.143c.163-.264-1.083-1.192-1.599-1.19-.121 0-.448.14-.727.31m27.235.274c-.412.225-.73.677-.671.957.015.069-.048.125-.14.125s-.155.056-.14.125-.078.35-.207.625c-.335.713-.341 7.073-.008 7.474.126.152.173.276.105.276s-.041.101.061.224c.103.123.137.273.076.333-.06.06-.017.11.095.11s.163.067.112.15c-.219.354 1.1 1.222 1.708 1.124 1.539-.25 2.056-1.522 2.157-5.303.136-5.098-1.018-7.377-3.148-6.22m-13.095 5.701c-.506.095-1.329 1.076-1.539 1.835-.806 2.902 1.401 5.512 3.097 3.662 1.764-1.925.635-5.91-1.558-5.497" fill="#24336c"/><path d="m240.46 70.118c.208.04.508.038.667-.003.159-.042-.01-.075-.377-.073s-.497.036-.29.076m1.915.164c.16.041.423.041.583 0 .161-.042.029-.077-.291-.077-.321 0-.452.035-.292.077m1.833.166c.161.042.423.042.584 0 .16-.042.029-.076-.292-.076s-.452.034-.292.076m5.667.5c.16.042.423.042.583 0 .161-.042.029-.076-.291-.076-.321 0-.452.034-.292.076m1.833.167c.161.042.423.042.584 0 .16-.042.029-.076-.292-.076s-.452.034-.292.076m2 .167c.161.041.423.041.584 0 .16-.042.029-.077-.292-.077s-.452.035-.292.077m11.167 1c.16.041.423.041.583 0 .161-.042.029-.077-.291-.077-.321 0-.452.035-.292.077m-24.248.336c.207.04.507.038.667-.003.159-.042-.011-.075-.377-.073-.367.002-.497.036-.29.076m7.581.664c.161.041.423.041.584 0 .16-.042.029-.077-.292-.077s-.452.035-.292.077m28 0c.161.041.423.041.584 0 .16-.042.029-.077-.292-.077s-.452.035-.292.077m-26.333.166c.16.042.423.042.583 0 .161-.042.029-.076-.291-.076-.321 0-.452.034-.292.076m28.085.003c.208.04.508.039.667-.003s-.01-.074-.377-.073c-.367.002-.497.036-.29.076m-26.166.167c.207.04.507.038.666-.003.16-.042-.01-.075-.377-.073-.366.002-.497.036-.289.076m28.166 0c.208.04.508.038.667-.003.159-.042-.01-.075-.377-.073s-.497.036-.29.076m-26.166.167c.207.039.507.038.666-.004.16-.042-.01-.074-.377-.072-.366.002-.497.036-.289.076m28.081-.003c.16.041.423.041.583 0 .161-.042.029-.077-.291-.077-.321 0-.452.035-.292.077m-167.667.171c.252.038.665.038.917 0s.046-.07-.458-.07c-.505 0-.711.032-.459.07m141.25-.002c.207.04.544.04.75 0 .207-.04.038-.072-.375-.072-.412 0-.581.032-.375.072m28.336 0c.207.04.507.039.666-.003.16-.042-.01-.074-.377-.073-.366.002-.497.036-.289.076m-166.75.169c.253.038.628.037.833-.003.205-.039-.002-.071-.46-.069-.459.001-.626.033-.373.072m140.416-.002c.208.04.508.038.667-.003.159-.042-.01-.075-.377-.073s-.497.036-.29.076m28.334 0c.207.04.507.038.666-.003.16-.042-.01-.075-.377-.073-.366.002-.497.036-.289.076m-166.417.168c.254.039.629.038.834-.002s-.003-.071-.461-.07c-.458.002-.626.034-.373.072m140.165-.004c.16.041.423.041.583 0 .16-.042.029-.077-.292-.077s-.452.035-.291.077m28.085.003c.207.039.507.038.667-.004.159-.042-.011-.074-.377-.072-.367.002-.497.036-.29.076m-165.916.168c.253.038.628.037.833-.002.205-.04-.002-.071-.461-.07-.458.001-.626.034-.372.072m139.664-.005c.16.042.423.042.583 0 .161-.042.029-.076-.291-.076-.321 0-.452.034-.292.076m28.085.003c.208.04.508.039.667-.003s-.01-.074-.377-.073c-.367.002-.497.036-.29.076m-165.5.167c.208.04.508.038.667-.003.159-.042-.01-.075-.377-.073s-.497.036-.29.076m139.334 0c.207.04.507.038.666-.003.16-.042-.01-.075-.377-.073-.366.002-.497.036-.289.076m28.081-.003c.16.042.423.042.583 0 .161-.042.029-.076-.291-.076-.321 0-.452.034-.292.076m-165.167.167c.161.041.423.041.584 0 .16-.042.029-.077-.292-.077s-.452.035-.292.077m139.086.003c.207.039.507.038.666-.004.16-.042-.01-.074-.377-.072-.366.002-.497.036-.289.076m28.081-.003c.16.041.423.041.583 0 .161-.042.029-.077-.291-.077-.321 0-.452.035-.292.077m-26.415.169c.208.04.508.039.667-.003s-.01-.074-.377-.073c-.367.002-.497.036-.29.076m-171.252.668c.252.039.665.039.917 0 .252-.038.046-.069-.458-.069-.505 0-.711.031-.459.069m206.959.048c0 .091.112.166.25.166.137 0 .25-.075.25-.166 0-.092-.113-.167-.25-.167-.138 0-.25.075-.25.167m-202.792.119c.252.038.665.038.917 0s.045-.069-.459-.069-.71.031-.458.069m3.169.167c.253.038.628.037.833-.002.205-.04-.002-.071-.46-.07-.459.001-.626.034-.373.072m175.331-.005c.16.042.423.042.583 0 .161-.042.029-.076-.291-.076-.321 0-.452.034-.292.076m-171.75.17c.206.039.544.039.75 0 .206-.04.037-.073-.375-.073-.413 0-.581.033-.375.073m3.335.167c.208.039.508.038.667-.004s-.01-.074-.377-.072-.497.036-.29.076m172.123.048c-.122.197.042.197.5 0 .322-.138.321-.143-.031-.155-.201-.006-.412.064-.469.155m-169.623.118c.208.04.508.039.667-.003s-.01-.074-.377-.073c-.367.002-.497.036-.29.076m5.082.331c.16.041.423.041.583 0 .16-.042.029-.077-.292-.077-.32 0-.452.035-.291.077m2.166.166c.161.042.423.042.584 0 .16-.042.029-.076-.292-.076s-.452.034-.292.076m2.584.17c.206.039.543.039.75 0 .206-.04.037-.073-.375-.073-.413 0-.582.033-.375.073m2 .166c.206.04.543.04.75 0 .206-.039.037-.072-.375-.072-.413 0-.582.033-.375.072m2.083.164c.16.042.423.042.583 0 .161-.042.029-.076-.291-.076-.321 0-.452.034-.292.076m2.167.167c.16.042.423.042.583 0s.029-.076-.292-.076-.452.034-.291.076m1.833.167c.16.041.423.041.583 0 .161-.042.029-.077-.291-.077-.321 0-.452.035-.292.077m1.833.166c.161.042.423.042.584 0 .16-.042.029-.076-.292-.076s-.452.034-.292.076m1.752.17c.208.04.508.038.667-.003.159-.042-.01-.075-.377-.073s-.497.036-.29.076m1.748.164c.161.041.423.041.584 0 .16-.042.029-.077-.292-.077s-.452.035-.292.077m1.5.166c.161.042.423.042.584 0 .16-.042.029-.076-.292-.076s-.452.034-.292.076m1.667.167c.16.042.423.042.583 0 .161-.042.029-.076-.291-.076-.321 0-.452.034-.292.076m21.25.008c.481.034 1.269.034 1.75 0s.087-.061-.875-.061c-.963 0-1.356.027-.875.061m-2.998.162c.207.039.507.038.667-.004.159-.042-.011-.074-.377-.072-.367.002-.497.036-.29.076m33.04 2.715-.917.112 1.25.025c.86.017 1.172-.026 1-.137-.138-.089-.287-.15-.333-.137-.046.014-.496.075-1 .137m-6.459.289c.436.035 1.148.035 1.584 0 .435-.034.079-.062-.792-.062s-1.227.028-.792.062m-30.384.669-.574.625.625-.574c.582-.535.702-.676.574-.676-.027 0-.309.282-.625.625m20.551-.5c1.169.029 3.081.029 4.25 0s.213-.052-2.125-.052-3.294.023-2.125.052m18.917 1.165c.481.034 1.268.034 1.75 0 .481-.034.087-.061-.875-.061-.963 0-1.357.027-.875.061m-4.75.159c.16.041.423.041.583 0 .16-.042.029-.077-.292-.077s-.452.035-.291.077m-3.665.171c.254.038.629.037.834-.002.205-.04-.003-.071-.461-.07s-.626.034-.373.072m-2.919.165c.207.039.544.039.75 0 .207-.04.038-.073-.375-.073-.412 0-.581.033-.375.073m-2.998.167c.208.039.508.038.667-.004s-.01-.074-.377-.072-.497.036-.29.076m-2.668.166c.206.04.543.04.75 0 .206-.04.037-.072-.375-.072-.413 0-.582.032-.375.072m-2.832.167c.208.04.508.038.667-.003.159-.042-.01-.075-.377-.073s-.497.036-.29.076m-19.387 1.424-.49.541.542-.489c.298-.269.542-.513.542-.542 0-.129-.138-.015-.594.49m87.974-.419c.438.034 1.113.034 1.5-.001s.028-.063-.797-.063c-.825.001-1.141.029-.703.064m-4.422.164c.298.037.785.037 1.083 0s.054-.067-.541-.067c-.596 0-.84.03-.542.067m-4.667.168c.39.035 1.027.035 1.417 0s.071-.063-.708-.063c-.78 0-1.098.028-.709.063m-5.083.168c.435.034 1.148.034 1.583 0 .436-.035.079-.063-.791-.063-.871 0-1.227.028-.792.063m-4.833.166c.435.035 1.148.035 1.583 0 .435-.034.079-.062-.792-.062-.87 0-1.227.028-.791.062m-2.998.164c.253.038.628.037.833-.002.205-.04-.002-.071-.46-.07-.459.001-.626.034-.373.072m26.744 1.501c.296.036.821.037 1.167.001.345-.036.103-.066-.538-.067-.642-.001-.925.029-.629.066m-4.33.164c.207.039.544.039.75 0 .207-.04.038-.073-.375-.073-.412 0-.581.033-.375.073m-84.833.166c.206.04.544.04.75 0 .206-.039.037-.072-.375-.072-.413 0-.581.033-.375.072m80.17.003c.299.038.749.037 1-.001.25-.038.005-.069-.545-.068s-.755.032-.455.069m-4.337.164c.207.04.544.04.75 0 .207-.04.038-.072-.375-.072-.412 0-.581.032-.375.072m-9.666.17c.298.037.785.037 1.083 0s.054-.068-.542-.068-.839.031-.541.068m-4.165.164c.207.039.507.038.667-.004.159-.042-.011-.074-.377-.072-.367.002-.497.036-.29.076m-75.349 1.826c-.222.222-.103.389.264.37.285-.015.304-.038.081-.096-.162-.042-.251-.146-.199-.231.111-.178.017-.206-.146-.043m78.628.407c-.063.101.137.42.444.708l.559.524-.493-.55c-.413-.459-.453-.575-.246-.705.149-.095.168-.158.048-.159-.109-.002-.25.08-.312.182m23.302-.07c.161.042.423.042.584 0 .16-.042.029-.076-.292-.076s-.452.034-.292.076m-30.083 4.506c.298.037.785.037 1.083 0s.054-.067-.541-.067c-.596 0-.84.03-.542.067m4.333 0c.298.037.786.037 1.084 0s.054-.067-.542-.067-.84.03-.542.067m-4.247 2.499c.253.038.628.037.833-.002.205-.04-.002-.071-.461-.07-.458.001-.626.034-.372.072m4.581-.002c.206.04.543.04.75 0 .206-.04.037-.072-.375-.072-.413 0-.582.032-.375.072m-6.917.164c.16.042.423.042.583 0 .161-.042.029-.076-.291-.076-.321 0-.452.034-.292.076m-19.333.5c.16.042.423.042.583 0s.029-.076-.292-.076-.452.034-.291.076m-1.748.17c.207.039.507.038.666-.004.16-.042-.01-.074-.377-.072-.366.002-.497.036-.289.076m37.418.548c0 .413.033.582.072.375.04-.206.04-.543 0-.75-.039-.206-.072-.037-.072.375m-54.252-.382c.208.04.508.039.667-.003s-.01-.074-.377-.073c-.367.002-.497.036-.29.076m14.998 0c.207.04.544.04.75 0 .207-.04.038-.072-.375-.072-.412 0-.581.032-.375.072m-12.916.168c.252.039.664.039.916 0 .252-.038.046-.069-.458-.069s-.71.031-.458.069m10.083.002c.298.037.785.037 1.083 0s.054-.068-.541-.068c-.596 0-.84.031-.542.068m-5.66.169c.576.033 1.476.033 2 0 .523-.033.052-.06-1.048-.06-1.1.001-1.529.028-.952.06m36.162 1.495c.207.039.507.038.667-.004.159-.042-.011-.074-.377-.072-.367.002-.497.036-.29.076m-42.585.663c.16.042.423.042.583 0s.029-.076-.292-.076-.452.034-.291.076m14.585.003c.207.04.507.039.667-.003.159-.042-.011-.074-.377-.073-.367.002-.497.036-.29.076m-12.332.17c.299.037.749.036 1-.002.25-.038.005-.068-.545-.067s-.755.032-.455.069m9.16-.001c.295.037.82.038 1.166.002s.104-.067-.538-.067c-.641-.001-.924.028-.628.065m-137.576 23.713c0 .413.032.582.072.375.04-.206.04-.543 0-.75-.04-.206-.072-.037-.072.375m301.185 9.084c0 1.1.027 1.528.06.951.032-.576.032-1.476-.001-2-.033-.523-.06-.051-.059 1.049m-159.689 5.371c.344.036.906.036 1.25 0s.063-.065-.625-.065c-.687 0-.969.029-.625.065m14.413-.001c.296.037.821.037 1.167.001.345-.036.103-.066-.538-.067-.642 0-.925.029-.629.066m145.276 5.463c0 1.1.027 1.528.06.952.032-.577.032-1.477-.001-2-.033-.524-.06-.052-.059 1.048m-301.185 8.75c0 .412.032.581.072.375s.04-.544 0-.75-.072-.038-.072.375m155.902-.049c.632.048.887.142.949.349s.075.194.051-.05c-.029-.287-.163-.336-.949-.349l-.915-.016zm4.635 18.38c.001 18.125.003 18.248.334 18.282.258.027.267.015.042-.051-.274-.081-.293-1.136-.334-18.282l-.044-18.197zm2.292-18.045c.252.038.665.038.917 0s.046-.069-.458-.069c-.505 0-.711.031-.459.069m3.247.168c.295.036.82.037 1.166.001s.104-.066-.538-.067c-.641-.001-.924.029-.628.066m-42.997.167 1.041.061.043 18.159.044 18.159-.002-18.208-.001-18.209-2.166-.022zm46.663-.001c.296.037.821.038 1.167.002s.104-.067-.538-.067c-.642-.001-.925.028-.629.065m-50.579.168c.343.036.906.036 1.25 0 .343-.036.062-.065-.625-.065-.688 0-.969.029-.625.065m53.746-.001c.296.037.821.037 1.167.001.345-.036.103-.066-.538-.067-.642 0-.925.029-.629.066m-55.874 18.296c0 10.084.02 14.184.044 9.113.025-5.072.025-13.322 0-18.334-.024-5.012-.044-.862-.044 9.221m59.374-18.129c.296.036.821.037 1.167.001.345-.036.103-.066-.538-.067-.642-.001-.925.029-.629.066m3.756.166c.253.038.628.037.833-.003.205-.039-.002-.071-.46-.069-.459.001-.626.033-.373.072m3.667.166c.253.039.628.038.833-.002s-.002-.071-.461-.07c-.458.002-.626.034-.372.072m19.249 1.832c.208.04.508.038.667-.003.159-.042-.01-.075-.377-.073s-.497.036-.29.076m2.832 0c.206.039.543.039.75 0 .206-.04.037-.073-.375-.073-.413 0-.582.033-.375.073m-96.959 1.632c.311.321.603.583.649.583s-.171-.262-.482-.583-.603-.583-.649-.583.171.262.482.583m58.747 16.583c0 8.388.02 11.819.045 7.625.025-4.193.025-11.056 0-15.25-.025-4.193-.045-.762-.045 7.625m6.797-14.88c.254.038.629.037.834-.002.205-.04-.003-.071-.461-.07s-.626.034-.373.072m3.667.167c.253.038.628.037.833-.003.205-.039-.002-.071-.46-.069-.459.001-.626.033-.373.072m-80.336 1.328c.161.042.423.042.584 0 .16-.042.029-.076-.292-.076s-.452.034-.292.076m-1.666.167c.16.042.423.042.583 0s.029-.076-.292-.076-.452.034-.291.076m-1.667.167c.16.041.423.041.583 0 .161-.042.029-.077-.291-.077-.321 0-.452.035-.292.077m-.466 6.551c0 3.621.022 5.102.049 3.292s.027-4.773 0-6.583c-.027-1.811-.049-.33-.049 3.291m116.924-4.448c0 .029.244.273.542.542l.542.49-.49-.542c-.456-.505-.594-.618-.594-.49m20.217.782c0 .504.031.71.069.458.039-.252.039-.665 0-.917-.038-.252-.069-.046-.069.459m21.864 18.583c0 9.992.02 14.104.044 9.138.025-4.966.025-13.141 0-18.167-.024-5.026-.044-.963-.044 9.029m-148.357-16c.001.733.03 1.013.065.621s.035-.992-.001-1.334c-.036-.341-.064-.02-.064.713m155.357 17.667c0 10.083.02 14.183.044 9.112.025-5.072.025-13.322 0-18.333-.024-5.012-.044-.863-.044 9.221m-29.031-15.917c0 .504.032.71.07.458s.038-.664 0-.916-.07-.046-.07.458m6.665-.083c.001.458.033.626.072.372.038-.253.037-.628-.003-.833-.039-.205-.071.002-.069.461m-45.176.75c0 .32.034.452.076.291.042-.16.042-.423 0-.583s-.076-.029-.076.292m53.501 14.865c-.022 8.497.017 15.483.085 15.526.114.07.112-10.749-.002-25.391-.024-3.071-.062 1.368-.083 9.865m-53.638-10.865c0 1.604.025 2.26.056 1.458.03-.802.03-2.115 0-2.917-.031-.802-.056-.145-.056 1.459m-178.624-2.223c-.154.155-.14 36.351.014 36.447.069.042.106-8.105.082-18.104-.034-14.47 0-18.209.167-18.315.123-.079.135-.135.029-.136-.1-.002-.231.047-.292.108m186.113 1.306c0 .733.03 1.013.065.621s.035-.992-.001-1.334c-.036-.341-.065-.02-.064.713m30.993-.25c0 .504.031.71.069.458s.038-.664 0-.916-.069-.046-.069.458m6.664-.083c.001.458.034.626.072.372.038-.253.037-.628-.002-.833-.04-.205-.071.002-.07.461m-188.548 13.95c-.046 7.306-.026 13.226.043 13.157s.107-6.047.083-13.283l-.042-13.158zm47.042-11.752c.16.042.423.042.583 0 .161-.042.029-.076-.291-.076-.321 0-.452.034-.292.076m-53.409.26c-.039.115-.018.433.045.708.107.459.118.442.136-.208.02-.706-.049-.895-.181-.5m194.748.542c.002.458.034.626.072.372.039-.253.038-.628-.002-.833s-.071.002-.07.461m-37.49.833c0 .733.03 1.013.065.621s.035-.992-.001-1.334c-.036-.341-.065-.02-.064.713m-91.557-.167c-.405.413-.699.75-.653.75s.414-.337.819-.75c.405-.412.699-.75.653-.75s-.414.338-.819.75m122.372.417c0 .321.034.452.076.292.042-.161.042-.423 0-.584-.042-.16-.076-.029-.076.292m-38.167 1c0 .321.034.452.076.292.042-.161.042-.423 0-.584-.042-.16-.076-.029-.076.292m-149.985 1.667c0 .595.03.839.067.541s.037-.785 0-1.083-.067-.054-.067.542m194.663-.167c0 .504.031.71.069.458.039-.252.039-.664 0-.916-.038-.252-.069-.046-.069.458m-6.667 1.333c0 .505.032.711.07.459s.038-.665 0-.917-.07-.046-.07.458m-210.658 1.167c0 .779.029 1.098.064.708.035-.389.035-1.027 0-1.416-.035-.39-.064-.071-.064.708m74.184-1.124c-.044.115-.059 2.983-.034 6.375l.046 6.166.039-6.278c.031-4.836.088-6.297.248-6.362.164-.066.162-.087-.005-.097-.117-.007-.25.081-.294.196m142.974 2.124c0 .504.032.71.07.458s.038-.664 0-.916-.07-.046-.07.458m-194.659 2.083c0 .734.03 1.013.065.621s.035-.992-.001-1.333c-.036-.342-.065-.021-.064.712m-22.335 1.417c0 .688.03.969.066.625s.036-.906 0-1.25-.066-.062-.066.625m216.825-.417c.002.459.034.626.072.373.039-.253.038-.628-.002-.833s-.071.002-.07.46m-101.256-.465c.207.039.544.039.75 0 .207-.04.038-.073-.375-.073-.412 0-.581.033-.375.073m76.366 2.174-.574.625.625-.575c.582-.534.702-.675.574-.675-.027 0-.309.281-.625.625m68.176.093c0 .029.244.273.542.542l.541.49-.489-.542c-.456-.505-.594-.618-.594-.49m-72.292 1.401c.252.038.665.038.917 0s.046-.069-.458-.069c-.505 0-.711.031-.459.069m-76.989.368c.017.222.143.434.281.471.165.044.186.02.061-.071-.104-.075-.23-.287-.281-.471-.072-.263-.085-.248-.061.071m-88.477 6.346c0 3.162.022 4.456.049 2.875.028-1.581.028-4.169 0-5.75-.027-1.581-.049-.287-.049 2.875m92.05-5.216c.206.04.543.04.75 0 .206-.039.037-.072-.375-.072-.413 0-.582.033-.375.072m3.583-.002c.16.041.423.041.583 0 .161-.042.029-.077-.291-.077-.321 0-.452.035-.292.077m25 .006c.344.036.906.036 1.25 0s.063-.065-.625-.065c-.687 0-.969.029-.625.065m3.625.045-1.083.109 1.125.029c.658.017 1.125-.04 1.125-.138 0-.091-.019-.153-.042-.138-.023.016-.529.078-1.125.138m-146.5 8.034c-.046 4.464-.026 8.059.043 7.99.07-.07.107-3.722.084-8.117l-.044-7.99zm102.375-7.748c.252.039.665.039.917 0 .252-.038.046-.069-.459-.069-.504 0-.71.031-.458.069m-3.5.167c.252.038.665.038.917 0s.045-.069-.459-.069-.71.031-.458.069m61.246.334c.296.037.821.038 1.167.002s.104-.067-.538-.067c-.642-.001-.925.028-.629.065m46.506-.002c.207.04.507.038.667-.003.159-.042-.011-.075-.377-.073-.367.002-.497.036-.29.076m-42.5.167c.207.039.507.038.667-.004.159-.042-.011-.074-.377-.072-.367.002-.497.036-.29.076m39.77 2.298c0 1.1.027 1.529.06.952.033-.576.032-1.476-.001-2-.033-.523-.059-.052-.059 1.048m-134.189-.301c.161.041.423.041.584 0 .16-.042.029-.077-.292-.077s-.452.035-.292.077m119.334 1.339c.343.036.906.036 1.25 0 .343-.036.062-.065-.625-.065-.688 0-.969.029-.625.065m75.35 3.462c0 .825.028 1.184.063.797s.035-1.062.001-1.5-.063-.122-.064.703m-231.556.459c-.002.196.12.287.372.278.251-.009.292-.045.125-.108-.137-.052-.305-.178-.372-.279-.076-.113-.124-.071-.125.109m220.292 2.579c.3.037.75.036 1-.002s.005-.068-.545-.067-.755.032-.455.069m-128.17 1.671c2.132.026 5.619.026 7.75 0 2.132-.027.388-.048-3.875-.048-4.262 0-6.006.021-3.875.048m-10.326.165c.576.033 1.476.032 2-.001.523-.033.051-.059-1.049-.059s-1.528.027-.951.06m26.576-.001c.527.034 1.39.034 1.917 0 .527-.033.096-.06-.958-.06-1.055 0-1.486.027-.959.06m-31.42.164c.296.037.821.038 1.167.002.345-.036.103-.067-.538-.067-.642-.001-.925.028-.629.065m37.004.001c.298.037.785.037 1.083 0s.054-.068-.542-.068-.839.031-.541.068m-40.917.165c.252.038.665.038.917 0s.046-.069-.459-.069c-.504 0-.71.031-.458.069m45.167 0c.252.038.664.038.916 0s.046-.069-.458-.069-.71.031-.458.069m-48.165.167c.254.038.629.037.834-.002.205-.04-.003-.071-.461-.07s-.626.034-.373.072m51.248-.002c.206.04.544.04.75 0s.037-.072-.375-.072-.581.032-.375.072m-54.331.167c.207.04.507.038.666-.003.16-.042-.01-.075-.377-.073-.366.002-.497.036-.289.076m57.5 0c.207.04.507.038.666-.003.16-.042-.01-.075-.377-.073-.366.002-.497.036-.289.076m-66.919.664c.16.041.423.041.583 0 .161-.042.029-.077-.291-.077-.321 0-.452.035-.292.077m-2 .166c.16.042.423.042.583 0 .161-.042.029-.076-.291-.076-.321 0-.452.034-.292.076m80.333 0c.161.042.423.042.584 0 .16-.042.029-.076-.292-.076s-.452.034-.292.076m-82.333.167c.16.042.423.042.583 0 .161-.042.029-.076-.291-.076-.321 0-.452.034-.292.076m91.5.667c.16.041.423.041.583 0 .161-.042.029-.077-.291-.077-.321 0-.452.035-.292.077m-103.333.5c.16.041.423.041.583 0 .16-.042.029-.077-.292-.077s-.452.035-.291.077m108 0c.16.041.423.041.583 0 .16-.042.029-.077-.292-.077s-.452.035-.291.077m-63.798 24.76-.827.875.875-.827c.481-.455.875-.849.875-.875 0-.125-.155.014-.923.827m11.464-.094c.161.042.423.042.584 0 .16-.042.029-.076-.292-.076s-.452.034-.292.076m7.625 2.771c0 .029.244.272.542.541l.542.49-.49-.542c-.456-.505-.594-.618-.594-.489m3.723 8.281c0 .688.029.969.065.625s.036-.906 0-1.25-.065-.062-.065.625m-18.896 7.875c.69.736.84.868.84.743 0-.027-.356-.383-.792-.792l-.791-.743zm-3.827 4.208c.311.321.603.584.649.584s-.171-.263-.482-.584-.603-.583-.649-.583.171.262.482.583m22.491.542-.574.625.625-.574c.582-.535.702-.676.574-.676-.027 0-.309.281-.625.625m-2.914 2.583-.827.875.875-.827c.813-.768.952-.923.827-.923-.026 0-.42.394-.875.875m-9.202 28.241-.041 27.699-.709.063-.708.064.714.029c.441.018.743-.05.792-.179.044-.115.06-12.621.036-27.792l-.043-27.583zm-2.169-15.616c0 .321.034.452.076.292s.042-.423 0-.583c-.042-.161-.076-.03-.076.291m6.67 1.084c.002.366.036.497.076.289.039-.207.038-.507-.004-.666-.042-.16-.074.01-.072.377m-6.481 2.25c0 .962.028 1.356.062.875.033-.482.033-1.269 0-1.75-.034-.482-.062-.088-.062.875m6.347 6c0 3.254.022 4.585.05 2.958.027-1.627.027-4.29 0-5.917-.028-1.627-.05-.296-.05 2.959m-35.992-1.214c6.818.117 12.378.119 12.308.005-.043-.068-3.429-.108-7.526-.087-4.097.02-6.248.057-4.782.082m57.137.005c2.091.027 5.466.027 7.5 0 2.033-.026.322-.048-3.803-.048s-5.789.022-3.697.048m-27.49 7.625c.001 1.1.028 1.529.06.952.033-.576.033-1.476 0-2-.033-.523-.06-.052-.06 1.048m6.488 2.834c.001.55.032.755.069.455.038-.3.037-.75-.001-1s-.069-.005-.068.545m-6.67 1.666c.001.459.033.626.072.373.038-.253.037-.628-.003-.833-.039-.205-.071.002-.069.46m6.824 1.584c0 .32.034.452.076.291.042-.16.042-.423 0-.583s-.076-.029-.076.292m-7 1.5c0 .32.034.452.076.291.042-.16.042-.423 0-.583s-.076-.029-.076.292m25.461 5.083c-.405.412-.698.75-.652.75.045 0 .414-.338.819-.75.405-.413.699-.75.653-.75s-.415.337-.82.75m-43.166.833c.311.321.603.584.648.584.046 0-.171-.263-.482-.584s-.603-.583-.648-.583c-.046 0 .171.262.482.583m-5 2.63c0 .025.581.606 1.291 1.291l1.292 1.246-1.246-1.292c-1.157-1.199-1.337-1.367-1.337-1.245m27.877 11.573c.253.039.628.038.833-.002s-.002-.071-.46-.07c-.459.002-.626.034-.373.072m99.029 1.089-.49.542.542-.49c.505-.456.618-.594.49-.594-.029 0-.273.244-.542.542m-2.667 3-.489.542.541-.49c.505-.456.619-.594.49-.594-.029 0-.273.244-.542.542m-1.573 1.708c-.405.413-.698.75-.652.75.045 0 .414-.337.819-.75.405-.412.699-.75.653-.75s-.415.338-.82.75m-192.75.25c.358.367.689.667.735.667.045 0-.21-.3-.568-.667-.358-.366-.688-.666-.734-.666s.209.3.567.666m190.584 2.084c-.405.412-.699.75-.653.75s.414-.338.819-.75c.405-.413.699-.75.653-.75s-.414.337-.819.75m-188.417.25c.358.366.688.666.734.666s-.209-.3-.567-.666c-.358-.367-.689-.667-.735-.667-.045 0 .21.3.568.667m185.079 3.291-1.079 1.125 1.125-1.078c1.045-1.002 1.201-1.172 1.079-1.172-.026 0-.532.507-1.125 1.125m-178.246 3.709c2.199 2.2 4.035 4 4.081 4s-1.715-1.8-3.914-4-4.035-4-4.081-4 1.716 1.8 3.914 4m170.497 4.041-1.497 1.542 1.542-1.497c1.432-1.389 1.618-1.586 1.497-1.586-.025 0-.719.693-1.542 1.541m-163.497 2.792c.358.367.689.667.735.667.045 0-.21-.3-.568-.667s-.688-.667-.734-.667.209.3.567.667m160.326.208-.659.709.708-.659c.659-.613.785-.758.659-.758-.027 0-.346.319-.708.708m-90.284.246c.298.037.785.037 1.083 0s.054-.067-.541-.067c-.596 0-.84.03-.542.067m14.83 0c.295.036.82.037 1.166.001s.104-.066-.538-.067c-.641-.001-.924.029-.628.066m12.67 0c.298.037.785.037 1.083 0s.054-.067-.541-.067c-.596 0-.84.03-.542.067m3.875.931c0 .029.244.273.542.542l.541.49-.489-.542c-.456-.505-.594-.618-.594-.49m-98.667 1.198c.311.321.603.584.649.584s-.171-.263-.482-.584-.603-.583-.649-.583.171.262.482.583m154.825.209-.575.625.625-.575c.344-.316.625-.597.625-.625 0-.127-.141-.007-.675.575m-100.941.375c0 .504.031.71.069.458s.038-.665 0-.917-.069-.046-.069.459m13.825-.385c.16.041.423.041.583 0 .16-.042.029-.077-.292-.077s-.452.035-.291.077m18.584.635c-.044.229-.015.416.064.416s.143-.187.143-.416-.028-.417-.064-.417c-.035 0-.099.188-.143.417m-84.959.302c0 .029.243.272.541.541l.542.49-.49-.542c-.456-.505-.593-.618-.593-.489m151.739.656-.489.542.541-.49c.505-.456.619-.594.49-.594-.029 0-.273.244-.542.542m-90.688 1.708c.001.55.032.755.069.456.038-.3.037-.75-.001-1-.038-.251-.069-.006-.068.544m-59.051-.531c0 .029.243.273.541.542l.542.489-.49-.541c-.456-.505-.593-.619-.593-.49m66.872.448c0 .321.034.452.076.292.042-.161.042-.423 0-.584-.042-.16-.076-.029-.076.292m81.034.042-.49.541.542-.489c.505-.456.618-.594.49-.594-.029 0-.273.244-.542.542m-75.345 3.375c0 .916.028 1.27.062.786.034-.485.033-1.235-.001-1.667s-.062-.036-.061.881m25.311 1.25c0 .321.034.452.076.291.042-.16.042-.423 0-.583s-.076-.029-.076.292m-6.164 4.448c.16.042.423.042.583 0 .161-.042.029-.076-.291-.076-.321 0-.452.034-.292.076m-31.833.802c.002.366.036.497.076.289.04-.207.038-.507-.003-.666-.042-.16-.075.01-.073.377m3.25 1.87c.298.037.785.037 1.083 0s.054-.067-.542-.067-.839.03-.541.067m15 0c.298.037.785.037 1.083 0s.054-.067-.542-.067-.839.03-.541.067m13.419-.001c.253.039.628.038.833-.002s-.002-.071-.461-.07c-.458.002-.626.034-.372.072" fill="#9b9bbb"/><path d="m200.868 153.623c.614.032 1.664.033 2.333.001s.166-.058-1.118-.058c-1.283-.001-1.83.025-1.215.057m-22.24.164c.3.038.75.037 1-.001s.005-.069-.545-.068-.755.032-.455.069m75.164 2.831c.206.039.543.039.75 0 .206-.04.037-.073-.375-.073-.413 0-.582.033-.375.073m-117.378 18.715c0 9.855.02 13.886.044 8.959.025-4.927.025-12.99 0-17.917-.024-4.927-.044-.896-.044 8.958m11.878-14.049c.206.04.543.04.75 0 .206-.039.037-.072-.375-.072-.413 0-.582.033-.375.072m-50.052 7.049c0 2.704.023 3.811.051 2.459s.028-3.565 0-4.917-.051-.246-.051 2.458m63.141-1.916c.001.458.034.626.072.372.038-.253.037-.628-.002-.833-.04-.205-.071.002-.07.461m-69.509 15.25c0 .32.034.452.076.291.042-.16.042-.423 0-.583s-.076-.029-.076.292m-22.5 7c0 .32.034.452.076.291.042-.16.042-.423 0-.583s-.076-.029-.076.292m118.086 14.284c.207.04.544.04.75 0 .207-.04.038-.072-.375-.072-.412 0-.581.032-.375.072m21.169 0c.207.04.507.039.667-.003.159-.042-.011-.074-.377-.073-.367.002-.497.036-.29.076m-9.083 22.669c.253.038.628.037.833-.003.205-.039-.002-.071-.46-.069-.459.001-.626.033-.373.072m-2.814 50.713c0 1.054.027 1.486.06.959s.033-1.39 0-1.917-.06-.096-.06.958m38.645 2.25c.002.367.036.497.076.29s.039-.507-.003-.667c-.042-.159-.074.011-.073.377m-38.647 2.834c0 .916.028 1.27.062.786.034-.485.033-1.235-.001-1.667s-.062-.036-.061.881m6.481 3.833c.002.367.036.497.076.29.039-.208.038-.508-.004-.667s-.074.01-.072.377m-23.084 50.205c.39.035 1.027.035 1.417 0 .389-.035.07-.063-.709-.063s-1.098.028-.708.063" fill="#606797"/><path d="m244.542 70.615c.16.042.423.042.583 0s.029-.076-.292-.076-.452.034-.291.076m26.5 2.333c.16.042.423.042.583 0s.029-.076-.292-.076-.452.034-.291.076m-23.417.17c.206.039.544.039.75 0 .206-.04.037-.073-.375-.073s-.581.033-.375.073m-132.748 1.002c.254.038.629.037.834-.003.205-.039-.003-.071-.461-.069-.458.001-.626.033-.373.072m144.25-.002c.207.04.507.038.667-.003.159-.042-.011-.075-.377-.073-.367.002-.497.036-.29.076m25.081-.003c.161.042.423.042.584 0 .16-.042.029-.076-.292-.076s-.452.034-.292.076m-166.748.17c.208.039.508.038.667-.004s-.01-.074-.377-.072-.497.036-.29.076m2.248.163c.161.042.423.042.584 0 .16-.042.029-.076-.292-.076s-.452.034-.292.076m8.584.67c.206.039.543.039.75 0 .206-.04.037-.073-.375-.073-.413 0-.582.033-.375.073m167.083-.003c.16.042.423.042.583 0 .161-.042.029-.076-.291-.076-.321 0-.452.034-.292.076m-201.112.239c.049.08.479.14.955.133.988-.015.891-.091-.257-.202-.433-.042-.748-.011-.698.069m177.945-.072c.161.041.423.041.584 0 .16-.042.029-.077-.292-.077s-.452.035-.292.077m25.334 0c.16.041.423.041.583 0 .16-.042.029-.077-.292-.077s-.452.035-.291.077m-183.334 1.166c.161.042.423.042.584 0 .16-.042.029-.076-.292-.076s-.452.034-.292.076m2.75.17c.207.039.544.039.75 0 .207-.04.038-.073-.375-.073-.412 0-.581.033-.375.073m13.084.997c.16.042.423.042.583 0s.029-.076-.292-.076-.452.034-.291.076m29 1.171c.252.038.664.038.916 0s.046-.069-.458-.069-.71.031-.458.069m2.916-.002c.207.04.544.04.75 0 .207-.039.038-.072-.375-.072-.412 0-.581.033-.375.072m29.873 2.696c.181.126-.133.187-1.166.229l-1.415.056 1.472.034c1.358.032 1.948-.197 1.101-.426-.197-.054-.196-.035.008.107m-9.373.475c.39.035 1.027.035 1.417 0s.071-.063-.708-.063c-.78 0-1.098.028-.709.063m-8.916.169c.893.03 2.356.03 3.25 0 .893-.03.162-.054-1.625-.054-1.788 0-2.519.024-1.625.054m15.583.997c.298.037.785.037 1.083 0s.054-.068-.541-.068c-.596 0-.84.031-.542.068m-3.583.165c.252.038.664.038.916 0s.046-.069-.458-.069-.71.031-.458.069m-3.25.165c.206.04.543.04.75 0 .206-.04.037-.072-.375-.072-.413 0-.582.032-.375.072m58.502 1.834c.207.039.507.038.666-.004.16-.042-.01-.074-.377-.072-.366.002-.497.036-.289.076m-4.669.169c.298.037.785.037 1.083 0s.054-.067-.541-.067c-.596 0-.84.03-.542.067m-4.833.167c.298.037.785.037 1.083 0s.054-.068-.542-.068-.839.031-.541.068m-4.167.166c.298.037.785.037 1.083 0s.054-.067-.541-.067c-.596 0-.84.03-.542.067m-4.165.164c.208.04.508.039.667-.003s-.01-.074-.377-.073c-.367.002-.497.036-.29.076m25.082 1.331c.16.041.423.041.583 0 .16-.042.029-.077-.292-.077s-.452.035-.291.077m-13.75.505c.298.037.785.037 1.083 0s.054-.067-.542-.067-.839.03-.541.067m-9.167.167c.298.037.785.037 1.083 0s.054-.067-.541-.067c-.596 0-.84.03-.542.067m5.25-.001c.252.038.665.038.917 0s.046-.07-.459-.07c-.504 0-.71.032-.458.07m-10.083.168c.298.037.785.037 1.083 0s.054-.068-.542-.068-.839.031-.541.068m2.208 2.481c0 .087.469.606 1.042 1.153l1.041.995-1-1.079c-.55-.594-1.018-1.113-1.041-1.153s-.042-.002-.042.084m-6.708 6.682c.206.04.543.04.75 0 .206-.039.037-.072-.375-.072-.413 0-.582.033-.375.072m4.502.001c.207.039.507.038.666-.004.16-.042-.01-.074-.377-.072-.366.002-.497.036-.289.076m-42.336 1.499c.207.04.544.04.75 0 .207-.039.038-.072-.375-.072-.412 0-.581.033-.375.072m9.5 0c.207.04.544.04.75 0 .207-.039.038-.072-.375-.072-.412 0-.581.033-.375.072m-5.493.173c.576.033 1.476.032 2-.001.523-.033.052-.059-1.048-.059s-1.529.027-.952.06m-.423 2.167c.71.031 1.873.031 2.583 0s.129-.057-1.292-.057-2.002.026-1.291.057m23.253 52.497c.299.037.749.036 1-.002.25-.038.005-.068-.545-.067s-.755.032-.455.069m-23.579.17c.715.031 1.84.031 2.5-.001.66-.031.076-.057-1.299-.057-1.375.001-1.916.026-1.201.058m31.742.16c.207.04.544.04.75 0 .207-.04.038-.072-.375-.072-.412 0-.581.032-.375.072m-39.544 18.216c0 9.945.02 14.014.044 9.041.025-4.973.025-13.11 0-18.083-.024-4.973-.044-.904-.044 9.042m53.044-17.549c.207.039.544.039.75 0 .207-.04.038-.073-.375-.073-.412 0-.581.033-.375.073m3.753.168c.253.039.628.038.833-.002s-.002-.071-.461-.07c-.458.002-.626.034-.372.072m3.247.168c.298.037.786.037 1.084 0s.054-.067-.542-.067-.84.03-.542.067m-82.331.831c.207.039.507.038.667-.004.159-.042-.011-.074-.377-.072-.367.002-.497.036-.29.076m68.165 3.833c.206.039.543.039.75 0 .206-.04.037-.073-.375-.073-.413 0-.582.033-.375.073m6.835.333c.207.04.507.039.667-.003.159-.042-.011-.074-.377-.073-.367.002-.497.036-.29.076m2.873 15.432.083 15.367.043-15.241c.023-8.382-.014-15.297-.083-15.366-.07-.07-.089 6.789-.043 15.24m-165.753 14.284c0 9.854.02 13.885.045 8.958.024-4.927.024-12.99 0-17.917-.025-4.927-.045-.895-.045 8.959m88.826-17.125-.49.541.542-.489c.298-.269.542-.513.542-.542 0-.129-.138-.015-.594.49m96.972.958c0 .412.033.581.073.375.039-.206.039-.544 0-.75-.04-.206-.073-.037-.073.375m-150.799 12.75c0 7.242.021 10.18.046 6.529.025-3.65.025-9.575 0-13.166s-.046-.605-.046 6.637m165.963-11.833c.002.366.036.497.076.289.039-.207.038-.507-.004-.666-.042-.16-.074.01-.072.377m-15.161 1.166c.001.459.033.626.072.373.038-.253.037-.628-.003-.833-.039-.205-.071.002-.069.46m22.514 1.75c0 .963.027 1.357.061.875.034-.481.034-1.268 0-1.75-.034-.481-.061-.087-.061.875m-179.52.25c.002.367.036.497.076.29s.038-.507-.003-.667c-.042-.159-.075.011-.073.377m172.17.917c0 .412.033.581.072.375.04-.206.04-.544 0-.75-.039-.206-.072-.037-.072.375m15.838.167c0 .504.031.71.069.458.039-.252.039-.665 0-.917-.038-.252-.069-.046-.069.459m-188.175 4.083c.002.367.036.497.076.29.04-.208.039-.508-.003-.667s-.074.01-.073.377m-22.67 1.75c0 .321.035.452.077.292.041-.161.041-.423 0-.584-.042-.16-.077-.029-.077.292m216.834 1.667c0 .32.034.452.076.291.042-.16.042-.423 0-.583s-.076-.029-.076.292m-70.747 4.117c.206.04.543.04.75 0 .206-.039.037-.072-.375-.072-.413 0-.582.033-.375.072m58.267 1.633c0 .825.028 1.183.063.796.035-.386.035-1.061.001-1.5-.035-.438-.063-.121-.064.704m60.146 4.916c0 .321.035.452.077.292.041-.16.041-.423 0-.583-.042-.161-.077-.03-.077.291m-143.822 6.124c.714.032 1.839.031 2.5 0 .66-.032.075-.057-1.3-.057s-1.915.026-1.2.057m14.5 0c.714.032 1.839.031 2.5 0 .66-.032.075-.057-1.3-.057s-1.915.026-1.2.057m-22.008.158c.16.042.423.042.583 0 .161-.042.029-.076-.291-.076-.321 0-.452.034-.292.076m31.5 0c.16.042.423.042.583 0 .161-.042.029-.076-.291-.076-.321 0-.452.034-.292.076m-48 .833c.16.042.423.042.583 0 .161-.042.029-.076-.291-.076-.321 0-.452.034-.292.076m64.5 0c.16.042.423.042.583 0 .161-.042.029-.076-.291-.076-.321 0-.452.034-.292.076m95.585 3.17c.208.04.508.038.667-.003.159-.042-.01-.075-.377-.073s-.497.036-.29.076m-118.627 26.267c0 .029.244.273.542.542l.542.49-.49-.542c-.456-.505-.594-.618-.594-.49m-18.294 7.615c0 .321.034.452.076.292.042-.161.042-.423 0-.584-.042-.16-.076-.029-.076.292m27.344 1c0 .504.032.71.07.458s.038-.664 0-.916-.07-.046-.07.458m-27.344.167c0 .32.034.452.076.291.042-.16.042-.423 0-.583s-.076-.029-.076.292m14.175 31.25c.002.458.034.626.072.372.039-.253.038-.628-.002-.833s-.071.002-.07.461m-34.828 3.875c2.092.026 5.467.026 7.5-.001 2.034-.026.322-.048-3.803-.048s-5.788.022-3.697.049m54.697-.005c6.818.116 12.378.118 12.308.005-.043-.069-3.429-.109-7.526-.088-4.097.02-6.248.058-4.782.083m-26.371 1.546c0 .413.033.582.072.375.04-.206.04-.543 0-.75-.039-.206-.072-.037-.072.375m6.505 5c0 .504.031.711.069.459s.038-.665 0-.917-.069-.046-.069.458m-28.634 18.5c.545.55 1.027 1 1.073 1s-.362-.45-.906-1-1.027-1-1.073-1 .362.45.906 1m117.159 21.042-.659.708.709-.658c.658-.613.785-.758.658-.758-.027 0-.345.318-.708.708m-184.075-.323c0 .029.243.273.541.542l.542.489-.49-.541c-.456-.505-.593-.619-.593-.49m9 9c0 .029.243.273.541.542l.542.489-.49-.541c-.456-.505-.593-.619-.593-.49m165.906.49-.49.541.542-.489c.505-.456.618-.594.49-.594-.029 0-.273.244-.542.542m-100.366 11.41-.04 8.535-3.084.11 1.547.035c1.111.025 1.57-.024 1.627-.174.044-.114.059-3.996.035-8.625l-.045-8.416zm-3.374 1.515.083 7.116.044-6.989c.024-3.845-.013-7.047-.083-7.117s-.09 3.075-.044 6.99m36.395-1.384c0 .917.028 1.271.062.786.034-.484.033-1.234-.001-1.666-.034-.433-.062-.036-.061.88m4.833 0c0 .917.028 1.271.062.786.034-.484.033-1.234-.001-1.666-.034-.433-.062-.036-.061.88m-8.506 0c0 .642.031.884.067.538s.035-.871-.002-1.166c-.037-.296-.066-.013-.065.628m-22.597 2.535c.207.039.544.039.75 0 .207-.04.038-.073-.375-.073-.412 0-.581.033-.375.073m19.282 4.757-.49.542.542-.49c.298-.269.541-.513.541-.542 0-.128-.137-.015-.593.49" fill="#4e518f"/><path d="m188.125 81.784c.206.04.544.04.75 0 .206-.039.037-.072-.375-.072s-.581.033-.375.072m-7.581.169c.253.038.628.037.833-.002.205-.04-.002-.071-.46-.07-.459.001-.626.034-.373.072m10.498 1.162c.16.042.423.042.583 0s.029-.076-.292-.076-.452.034-.291.076m-33 .833c.16.042.423.042.583 0s.029-.076-.292-.076-.452.034-.291.076m85.833 1.167c.16.042.423.042.583 0 .161-.042.029-.076-.291-.076-.321 0-.452.034-.292.076m-4.833.167c.16.041.423.041.583 0 .16-.042.029-.077-.292-.077s-.452.035-.291.077m-4.167.166c.16.042.423.042.583 0 .161-.042.029-.076-.291-.076-.321 0-.452.034-.292.076m-13.833.5c.16.042.423.042.583 0s.029-.076-.292-.076-.452.034-.291.076m-3.5 11.341c.435.035 1.148.035 1.583 0 .435-.034.079-.062-.792-.062-.87 0-1.227.028-.791.062m-31.334 1.493c.161.041.423.041.584 0 .16-.042.029-.077-.292-.077s-.452.035-.292.077m-6.666 2.333c.16.042.423.042.583 0s.029-.076-.292-.076-.452.034-.291.076m6 0c.16.042.423.042.583 0s.029-.076-.292-.076-.452.034-.291.076" fill="#6c65ac"/><path d="m186.542 81.782c.16.041.423.041.583 0 .16-.042.029-.077-.292-.077s-.452.035-.291.077m31.333 13.171c.252.038.665.038.917 0s.046-.07-.459-.07c-.504 0-.71.032-.458.07m-37.748 3.832c.207.039.507.038.667-.004.159-.042-.011-.074-.377-.072-.367.002-.497.036-.29.076m5 0c.207.039.507.038.667-.004.159-.042-.011-.074-.377-.072-.367.002-.497.036-.29.076m50.953 74.382c0 9.945.02 14.014.045 9.041.024-4.973.024-13.11 0-18.083-.025-4.973-.045-.904-.045 9.042m19.378-10.883c.207.04.544.04.75 0 .207-.039.038-.072-.375-.072-.412 0-.581.033-.375.072m60.785 12.966c0 3.667.022 5.143.049 3.281.026-1.863.026-4.863-.001-6.667-.026-1.804-.048-.281-.048 3.386m-52.019 1.167c0 .733.03 1.012.065.62s.035-.992-.001-1.333-.065-.021-.064.713m-172.352 4.25c0 .32.034.452.076.291.042-.16.042-.423 0-.583s-.076-.029-.076.292m194.503.416c.002.367.036.497.076.29s.039-.507-.003-.667c-.042-.159-.074.011-.073.377m-217.17 2.25c0 .321.035.452.077.292.041-.16.041-.423 0-.583-.042-.161-.077-.03-.077.291m22.526 4.5c0 1.146.027 1.615.059 1.042.033-.573.033-1.51 0-2.083-.032-.573-.059-.104-.059 1.041m-22.359-.166c0 .32.034.452.076.291.042-.16.042-.423 0-.583s-.076-.029-.076.292m246.871-.291c-.045.115-.061 2.909-.037 6.208l.044 5.999.083-6.208c.046-3.415.063-6.208.037-6.208s-.083.094-.127.209m-69.243 2.541c.311.32.603.583.649.583s-.171-.263-.482-.583c-.311-.321-.603-.584-.649-.584s.171.263.482.584m-61.625.371c.344.036.906.036 1.25 0s.063-.065-.625-.065c-.687 0-.969.029-.625.065m-18.667.494c.161.041.423.041.584 0 .16-.042.029-.077-.292-.077s-.452.035-.292.077m160.342 5.385c0 .504.031.71.069.458.039-.252.039-.665 0-.917-.038-.252-.069-.046-.069.459m-48.425.951c.206.039.544.039.75 0 .206-.04.037-.073-.375-.073-.413 0-.581.033-.375.073m-97.417 5.997c.161.042.423.042.584 0 .16-.042.029-.076-.292-.076s-.452.034-.292.076m33.834 0c.16.042.423.042.583 0s.029-.076-.292-.076-.452.034-.291.076m-31.492 38.885c0 .504.031.71.069.458.039-.252.039-.664 0-.916-.038-.252-.069-.046-.069.458m17.531 42.75c0 15.4.02 21.675.044 13.945s.024-20.33 0-28-.044-1.345-.044 14.055m2.128 1.667c.002.366.036.497.076.289.039-.207.038-.507-.004-.666-.042-.16-.074.01-.072.377m.163 3.75c0 .32.034.452.076.291.042-.16.042-.423 0-.583s-.076-.029-.076.292m21.705 12.208-.827.875.875-.827c.481-.455.875-.849.875-.875 0-.124-.154.014-.923.827m64.081 23.75-.575.625.625-.574c.344-.316.625-.598.625-.625 0-.128-.141-.008-.675.574m-3.334 3.333-.574.625.625-.574c.344-.316.625-.597.625-.625 0-.127-.141-.007-.676.574m-89.619 14.375c0 .321.035.452.077.292.041-.16.041-.423 0-.583-.042-.161-.077-.03-.077.291m13.5 3.167c0 .321.035.452.077.292.041-.161.041-.423 0-.584-.042-.16-.077-.029-.077.292" fill="#6c7ca4"/><path d="m178.708 153.953c.252.038.665.038.917 0s.046-.07-.458-.07c-.505 0-.711.032-.459.07m-42.128 21.38c0 9.946.02 14.015.045 9.042.024-4.973.024-13.11 0-18.083-.025-4.973-.045-.905-.045 9.041m88.712-15.549c.206.04.543.04.75 0 .206-.039.037-.072-.375-.072-.413 0-.582.033-.375.072m90.784 15.383c0 3.712.022 5.231.049 3.375.027-1.857.027-4.894 0-6.75-.027-1.857-.049-.338-.049 3.375m-44.701-.084c.002.367.036.497.076.29s.039-.507-.003-.667c-.042-.159-.074.011-.073.377m.004 4.584c0 .412.032.581.072.375.04-.207.04-.544 0-.75-.04-.207-.072-.038-.072.375m-179.337 1.083c.002.367.036.497.076.29.04-.208.038-.508-.003-.667-.042-.159-.075.01-.073.377m-.163 4.583c0 .413.032.582.072.375.04-.206.04-.543 0-.75-.04-.206-.072-.037-.072.375m224.196 8.084c0 3.391.023 4.755.05 3.03.027-1.724.027-4.499 0-6.166s-.05-.256-.05 3.136m-224.167 1.416c0 2.888.022 4.069.05 2.625.028-1.443.028-3.806 0-5.25-.028-1.443-.05-.262-.05 2.625m88.221 140.456c.392.035.992.035 1.334-.001.341-.036.02-.065-.713-.064-.733 0-1.013.03-.621.065m-4.079 2.878c0 .504.031.71.069.458.039-.252.039-.665 0-.917-.038-.252-.069-.046-.069.459m41.078 14.787c.3.037.75.036 1-.002s.005-.068-.545-.067-.755.032-.455.069" fill="#041154"/></g><g fill-rule="nonzero"><path d="m5.281 100.889c-.596-1.554.318-33.067 1.288-44.381 1.069-12.477 3.143-29.007 3.888-30.989 1.288-3.426 20.306-11.089 36.459-14.691 15.323-3.417 26.481-4.67 45.336-5.094 24.766-.556 44.016 1.269 62.351 5.91 15.84 4.009 32.666 11.033 33.388 13.937.223.895 1.097 7.791 1.943 15.325 3.03 26.991 4.204 61.264 2.099 61.264-.552 0-6.973-1.51-14.27-3.355-27.531-6.962-50.476-9.816-79.096-9.84-30.13-.026-58.5 3.677-86.07 11.232-6.074 1.664-6.909 1.742-7.316.682zm98.105-34.964c7.533-1.152 8.429-1.152 11.939-.004 2.088.683 4.035 1.241 4.328 1.241s.311-1.883.041-4.186l-.492-4.185h6.937c5.833 0 6.868-.181 6.502-1.134-.546-1.425-1.455-1.232 23.484-4.984 20.133-3.028 23.604-3.691 22.07-4.211-.418-.142-12.951-1.318-27.851-2.612l-27.091-2.355-13.244 3.315-13.245 3.315-18.843-4.308-18.842-4.308-18.829 3.732c-19.604 3.887-21.156 4.246-20.631 4.771.175.175 5.618.684 12.096 1.131 23.573 1.626 33.466 2.528 33.466 3.051 0 .293-1.604 1.685-3.564 3.093l-3.565 2.56 5.277.897c2.902.494 6.569 1.664 8.148 2.602 1.579.937 4.319 2.156 6.089 2.709 4.494 1.404 16.175 1.346 25.82-.13z" fill="#ef790b"/><path d="m94.848 245.935c-19.38-11.752-41.495-29.38-54.455-43.407-13.388-14.49-20.817-26.143-25.323-39.724-2.5-7.536-5.714-20.275-5.235-20.754.084-.083 3.313-1.011 7.176-2.062 30.206-8.215 61.945-11.918 91.879-10.72 26.307 1.054 49.212 4.743 75.343 12.136l3.805 1.076-.094 1.501c-.248 3.965-4.439 18.779-7.005 24.761-8.604 20.059-27.58 41.347-55.187 61.911-8.39 6.25-25.65 17.759-26.632 17.759-.103 0-2.026-1.115-4.273-2.477zm.301-24.096c1.745-1.54 2.267-5.235 1.138-8.057-.723-1.809-1.449-2.28-3.51-2.28-2.766 0-4.311 3.004-2.924 5.685.65 1.258 2.3 1.961 3.533 1.505 1.096-.406 1.16.406.108 1.358-.561.507-1.079.612-2.092.422-1.374-.258-1.363-.268-1.5 1.382-.096 1.164 3.923 1.152 5.247-.015zm9.293-.199c1.019-1.018 1.228-3.427.412-4.735-.68-1.088-2.265-1.702-3.557-1.378-.988.248-1.024.214-.604-.57.569-1.064 1.861-1.549 2.99-1.123 1.219.459 1.212.463 1.212-.769 0-1.253-.53-1.563-2.666-1.563-3.697 0-5.68 5.051-3.694 9.411.936 2.053 4.181 2.452 5.907.727zm7.966.44c.971-.805 1.619-2.804 1.619-4.992 0-3.741-1.26-5.586-3.817-5.586-2.601 0-3.841 1.762-3.841 5.457 0 2.878.423 4.078 1.827 5.182 1.165.916 3.067.888 4.212-.061zm-24.256.457v-11.035h-.895c-1.798 0-3.291.781-3.291 1.723 0 .631.248.923.856 1.009.82.117.861.298.965 4.212l.108 4.091zm10.274-24.734v-36.588l-1.098-1.017c-.603-.56-1.774-1.63-2.6-2.378-4.439-4.017-1.507-11.403 4.516-11.381 1.911.007 4.247 1.193 5.392 2.737 1.068 1.44 1.3 4.731.454 6.422-.358.715-1.747 2.333-3.086 3.596l-2.437 2.298v36.409l2.37-.268c5.311-.601 11.505-4.132 14.724-8.396 2.736-3.624 4.072-6.999 4.769-12.047l.245-1.778-2.148-.268c-2.127-.266-7.255-.066-7.618.297-.103.103.756 1.854 1.908 3.89 2.084 3.679 2.093 3.708 1.487 4.903-1.812 3.57-6.039 7.167-9.982 8.494-2.322.781-2.537.797-2.753.203-.745-2.047-1.174-8.993-1.039-16.817.174-10.06.375-10.775 4.145-14.7 2.894-3.014 3.769-4.902 3.769-8.132 0-9.277-11.231-13.807-17.842-7.196-4.19 4.19-3.738 11.535.946 15.374 2.34 1.917 3.533 4.424 4.04 8.489.473 3.798.216 14.831-.47 20.144-.453 3.51-.455 3.514-1.451 3.299-.549-.118-2.228-.805-3.733-1.526-3.037-1.456-6.363-4.538-7.781-7.21l-.849-1.601 1.973-3.538c1.085-1.945 1.972-3.657 1.972-3.803 0-.65-7.437-1.076-8.911-.511-1.212.465-.181 6.124 1.879 10.311 3.315 6.737 11.068 11.965 18.162 12.247z" fill="#26326f"/></g></g></svg>