<svg clip-rule="evenodd" fill-rule="evenodd" stroke-linejoin="round" stroke-miterlimit="2" viewBox="0 0 560 400" xmlns="http://www.w3.org/2000/svg"><g fill-rule="nonzero"><path d="m145 65h270v270h-270z" fill="#fff"/><path d="m151.037 290c51.585-26.341 52.683-26.341 116.341-37.317 18.659-10.976 104.268 21.951 142.683 32.927v43.902h-261.22l1.647-39.512z" fill="#a6d3fc"/><path d="m145 65h270v270h-270zm264.512 220.61c-2.195 0-10.975 2.195-17.561 6.585 0 4.39 0 6.585-2.195 9.878-8.78-30.732-38.415-38.414-60.366-23.049l3.293-9.878c-43.903-32.926-87.805-13.17-110.854 15.366 0 0-1.097-5.488 5.488-15.366-14.268-6.585-39.512 3.293-46.097 12.074l8.78 7.682c-13.171-5.487-29.634-1.097-39.512 2.196v38.414h259.024zm-172.317-103.171h86.707v70.244l6.586 4.39h36.219v-80.122c0-29.634-29.634-38.414-43.902-38.414h-128.415v118.536h42.805zm64.756 63.659v-41.708h-42.805v41.708c10.976-3.293 28.537-4.391 42.805-1.098z" fill="#0080f5"/></g></svg>