<svg clip-rule="evenodd" fill-rule="evenodd" stroke-linejoin="round" stroke-miterlimit="2" viewBox="0 0 560 400" xmlns="http://www.w3.org/2000/svg"><g fill-rule="nonzero"><g fill="#231e45"><path d="m168.122 206.997h9.623v-38.912h.142l12.852 38.912h7.868l12.852-38.912h.142v38.912h9.622v-51.902h-13.204l-13.204 39.33h-.142l-13.346-39.33h-13.204z"/><path d="m237.103 168.697c-1.019 1.628-2.415 2.481-4.113 2.481-3.164 0-5.507-2.447-5.507-5.711 0-3.261 2.243-5.708 5.236-5.708 2.073 0 3.261.677 4.384 2.582h5.097c-.544-1.597-.883-2.211-1.732-3.229-1.903-2.208-4.692-3.5-7.579-3.5-5.506 0-9.925 4.383-9.925 9.789 0 5.44 4.453 9.921 9.925 9.921 1.764 0 3.805-.578 5.337-1.525.779-.478 1.462-1.056 2.072-1.773.95-1.051 1.292-1.661 1.902-3.327z"/><path d="m280.519 192.529-.702.774c-2.179 2.176-3.302 2.946-5.339 3.861-2.107.981-4.356 1.475-6.535 1.475-8.987 0-16.714-8.148-16.714-17.701 0-9.481 7.516-17.488 16.365-17.488 2.038 0 4.635.491 6.673 1.334 2.601 1.125 4.494 2.528 6.811 5.198h10.749c-1.617-3.724-2.459-5.057-4.915-7.585-5.198-5.34-11.871-8.217-19.035-8.217-14.399 0-26.271 12.009-26.271 26.619 0 14.821 12.01 27.111 26.62 27.111 10.186 0 19.736-6.18 23.601-15.381z"/><path d="m291.833 187.472c0 11.239 8.99 20.437 19.877 20.437 11.029 0 19.878-9.057 19.878-20.437 0-11.308-8.78-20.299-19.736-20.299-11.029 0-20.019 9.129-20.019 20.299m9.343.069c0-6.462 4.776-11.798 10.603-11.798 5.689 0 10.469 5.408 10.469 11.868 0 6.603-4.638 11.732-10.469 11.732-5.968 0-10.603-5.129-10.603-11.802"/><path d="m334.734 155.093h9.343v51.906h-9.343z"/><path d="m348.438 155.093h9.343v51.906h-9.343z"/><path d="m363.615 164.085h4.075c0 .49.07.912.07 1.261 0 2.459-1.192 3.654-4.145 4.213v4.708h.352c2.249 0 4.356-.701 5.969-2.107 2.179-1.827 3.022-3.792 3.022-7.233v-9.833h-9.343z"/><path d="m374.16 194.637c.352 3.16.635 4.355 1.544 6.182 2.11 4.211 7.094 7.091 12.292 7.091 7.796 0 14.12-5.971 14.12-13.273 0-3.444-1.195-6.041-3.654-8.076-1.547-1.267-3.582-2.251-7.022-3.302l-2.601-.773c-2.949-.915-3.931-1.827-3.931-3.513 0-1.896 1.475-3.23 3.51-3.23 1.896 0 3.091 1.051 3.512 3.089h9.133c-.283-6.601-5.692-11.661-12.573-11.661-7.167 0-12.924 5.198-12.924 11.661 0 3.371 1.195 6.11 3.512 8.147 1.966 1.758 2.667 2.104 7.164 3.513 5.129 1.686 6.531 2.811 6.531 4.987 0 2.246-1.754 3.862-4.144 3.862-2.598 0-4.073-1.402-4.916-4.704z"/><path d="m171.044 234.377h2.076c1.232 0 5.713-.056 5.713-4.063 0-1.736-1.176-3.868-4.594-3.868h-3.195zm6.893 10.032-6.836-9.614h-.057v9.614h-3.026v-20.736h6.416c2.915 0 4.427.698 5.522 1.735 1.317 1.261 1.905 3.17 1.905 4.906 0 5.491-4.597 6.362-5.94 6.362l5.799 7.733z"/><path d="m189.144 244.409v-20.736h11.179v2.774h-8.154v6.11h8.154v2.774h-8.154v6.305h8.154v2.773z"/><path d="m210.55 244.409v-17.962h-3.981v-2.774h10.988v2.774h-3.982v17.962z"/><path d="m233.84 235.526-2.636-7.93h-.053l-2.664 7.93zm3.336 8.884-2.299-6.11h-7.456l-2.295 6.11h-3.195l7.874-20.739h2.717l7.874 20.739z"/><path d="m247.315 223.672h3.025v20.736h-3.025z"/><path d="m259.111 244.409v-20.736h3.025v17.963h7.205v2.773z"/><path d="m303.494 228.885c-.867-.953-2.606-2.83-5.66-2.83-4.314 0-7.679 3.698-7.679 8.041 0 4.569 3.783 7.934 7.707 7.934.588 0 5.158-.06 7.145-5.158h-9.667v-2.776h13.114c-.11 6.949-5.661 10.707-10.705 10.707-6.053 0-10.619-4.905-10.619-10.707 0-5.966 4.622-10.815 10.591-10.815 3.531 0 7.286 1.877 9.302 5.604z"/><path d="m318.679 234.377h2.072c1.233 0 5.717-.056 5.717-4.063 0-1.736-1.176-3.868-4.594-3.868h-3.195zm6.893 10.032-6.839-9.614h-.054v9.614h-3.025v-20.736h6.415c2.915 0 4.428.698 5.519 1.735 1.321 1.261 1.906 3.17 1.906 4.906 0 5.491-4.595 6.362-5.941 6.362l5.802 7.733z"/><path d="m346.811 226.054c-5.353 0-7.764 4.679-7.764 7.988 0 3.389 2.44 7.984 7.764 7.984 5.352 0 7.761-4.651 7.761-7.903 0-3.67-2.604-8.069-7.761-8.069m0 18.749c-6.195 0-10.79-5.073-10.79-10.761 0-5.636 4.456-10.762 10.79-10.762 6.163 0 10.789 4.903 10.789 10.815 0 5.664-4.626 10.708-10.789 10.708"/><path d="m379.088 237.712c0 2.352-.783 4.063-2.101 5.324-1.289 1.066-2.943 1.767-4.849 1.767-1.905 0-3.556-.701-4.846-1.767-1.317-1.261-2.104-2.972-2.104-5.324v-14.038h3.029v13.956c0 3.836 2.802 4.396 3.921 4.396 1.123 0 3.925-.56 3.925-4.396v-13.956h3.025z"/><path d="m390.491 233.452h2.971c3.447 0 4.286-1.959 4.286-3.503 0-1.541-.839-3.5-4.286-3.5h-2.971zm0 10.956h-3.029v-20.736h6c4.959 0 7.312 2.579 7.312 6.277s-2.353 6.277-7.312 6.277h-2.971z"/></g><path d="m117.638 142.416h21.985c-13.862 15.189-22.315 35.4-22.315 57.585 0 22.183 8.453 42.394 22.315 57.582h-21.985c-11.132-16.424-17.638-36.245-17.638-57.582 0-21.339 6.506-41.157 17.638-57.585" fill="#c3d200"/><path d="m442.362 257.584h-21.985c13.862-15.189 22.315-35.4 22.315-57.585 0-22.183-8.453-42.394-22.315-57.582h21.985c11.132 16.427 17.638 36.245 17.638 57.582 0 21.339-6.506 41.157-17.638 57.585" fill="#00a7d6"/></g></svg>