<svg clip-rule="evenodd" fill-rule="evenodd" stroke-linejoin="round" stroke-miterlimit="2" viewBox="0 0 560 400" xmlns="http://www.w3.org/2000/svg"><g fill-rule="nonzero"><path d="m196.784 255.839h-81.89c-8.201 0-14.894-6.693-14.894-14.894v-81.89c0-8.201 6.693-14.894 14.894-14.894h81.89c8.201 0 14.894 6.693 14.894 14.894v81.89c.061 8.201-6.693 14.894-14.894 14.894z" fill="#0595db"/><path d="m460 179.799h-12l-4.523 9.106-4.522-9.106h-12l10.251 20.201-10.251 20.201h12l4.522-9.106 4.523 9.106h12l-10.251-20.201z" fill="#333"/><path d="m313.829 209.648c-.06 1.689-1.387 3.076-3.075 3.618-.061 0-.121 0-.181.061-.422.12-.844.181-1.266.181-2.413 0-4.161-1.146-4.523-3.799-.362-2.714-.362-7.779-.362-7.779h21.347c0-3.136.241-6.031-.06-8.744-.302-2.653-1.026-5.005-2.111-6.935-1.146-1.929-2.834-3.497-5.065-4.643s-5.307-1.688-9.106-1.688c-3.739 0-6.754.542-8.924 1.567-2.232 1.086-3.86 2.473-5.006 4.282-1.145 1.809-1.869 3.919-2.17 6.271-.302 2.412-.483 4.945-.483 7.598 0 3.015.181 5.849.543 8.382s1.085 4.764 2.231 6.573 2.834 3.256 5.005 4.281 5.126 1.568 8.804 1.568c2.653 0 5.005-.362 6.995-1.025s3.679-1.568 5.005-2.774c2.714-2.352 4.342-5.367 4.342-8.623h-11.94c0-.06.06.483 0 1.628zm-8.985-18.693c.241-2.412 2.05-4.342 4.523-4.342 2.472 0 4.281 1.568 4.522 4.342.181 2.472.121 2.713.061 4.824h-9.407c.12-3.136.12-3.075.301-4.824z" fill="#333"/><path d="m286.452 184.744c-.603-1.025-1.387-1.93-2.351-2.654-.965-.723-2.111-1.266-3.377-1.688-1.327-.362-2.654-.603-4.101-.603-2.472 0-4.643.422-6.392 1.206s-3.316 2.05-4.764 3.739c-.964-1.568-2.291-2.774-3.919-3.618-1.628-.845-3.558-1.327-5.669-1.327-2.291 0-4.221.362-5.849 1.025-1.628.724-3.075 1.93-4.221 3.679h-.181v-4.704h-12v40.342h12v-29.066c0-2.412 2.05-4.341 4.523-4.341 2.472 0 4.462 1.929 4.522 4.341v29.066h11.94v-28.945c0-2.412 2.05-4.342 4.523-4.342 2.472 0 4.462 1.93 4.522 4.342v29.005h12v-31.296c-.06-1.327-.603-3.076-1.206-4.161z" fill="#333"/><path d="m199.859 179.799h-12l-4.522 9.106-4.523-9.106h-12l10.251 20.201-9.286 18.271v-29.366c0-1.327-.543-3.136-1.146-4.161s-1.387-1.93-2.352-2.654c-.964-.723-2.11-1.266-3.376-1.688-1.327-.362-2.654-.603-4.101-.603-2.472 0-4.643.422-6.392 1.206s-3.317 2.05-4.764 3.739c-.965-1.568-2.291-2.774-3.919-3.618-1.628-.905-3.558-1.327-5.669-1.327-2.291 0-4.221.362-5.849 1.025-1.628.724-3.075 1.93-4.221 3.679h-.181v-4.704h-12v40.402h12v-29.065c0-2.412 2.05-4.342 4.523-4.342 2.472 0 4.462 1.93 4.522 4.342v29.065h11.94v-29.005c0-2.412 2.05-4.342 4.523-4.342 2.472 0 4.462 1.93 4.522 4.342v29.005h22.975l4.523-9.106 4.522 9.106h12l-10.251-20.201z" fill="#fff"/><g fill="#333"><path d="m363.337 184.744c-.603-1.025-1.387-1.93-2.352-2.654-.965-.723-2.111-1.266-3.377-1.688-1.327-.362-2.653-.603-4.1-.603-2.352 0-4.282.362-5.85 1.085-1.688.724-3.135 1.93-4.221 3.619h-.181v-4.704h-12v40.342h12v-29.005c0-2.412 2.051-4.342 4.523-4.342s4.462 1.93 4.523 4.342v29.005h12v-31.839c-.061-1.267-.362-2.473-.965-3.558z"/><path d="m402.593 173.889c0-5.608-4.704-10.251-10.734-10.794-.422-.06-.784-.06-1.206-.06v19.839c-1.025-1.085-2.11-1.869-3.316-2.351-1.628-.664-3.498-1.026-5.729-1.026-3.075 0-5.487.664-7.116 2.051-1.688 1.387-2.834 3.075-3.618 5.186-.723 2.05-1.145 4.341-1.206 6.753-.06 1.93-.12 3.679-.12 5.307v1.266c0 2.051.06 4.342.12 6.814.121 2.473.483 4.764 1.206 6.875.724 2.11 1.93 3.919 3.618 5.306 1.689 1.448 4.161 2.171 7.357 2.171 2.412 0 4.463-.362 6.151-1.146.965-.422 1.809-1.025 2.593-1.869v2.05h12zm-11.94 19.116v17.307c-.12 1.748-1.326 3.196-3.015 3.738-.422.181-.844.241-1.326.241h-.121s-5.668 1.086-5.668-13.929c0-7.176 1.326-10.674 2.653-12.362.12-.181.301-.362.422-.543.241-.241.482-.422.724-.482 1.025-.663 1.869-.483 1.869-.483.784 0 1.507.242 2.171.603.06 0 .06.061.12.061 1.327.784 2.232 2.231 2.232 3.919v1.93z"/><path d="m421.889 179.799v40.402h-12v-40.402z"/><path d="m420.02 173.889h-8.201c-1.025 0-1.869-.844-1.869-1.869v-7.115c0-1.026.844-1.87 1.869-1.87h8.201c1.025 0 1.869.844 1.869 1.87v7.115c0 1.025-.844 1.869-1.869 1.869z"/></g></g></svg>