<svg clip-rule="evenodd" fill-rule="evenodd" stroke-linejoin="round" stroke-miterlimit="1.41421" viewBox="0 0 560 400" xmlns="http://www.w3.org/2000/svg"><g fill-rule="nonzero"><path d="m380.829 103.753h-146.659c-5.028 0-9.165 4.137-9.165 9.165v38.959l82.498 24.062 82.497-24.062v-38.959c0-5.028-4.137-9.165-9.164-9.165z" fill="#41a5ee"/><path d="m389.993 151.877h-164.994v48.123l82.497 24.062 82.497-24.062z" fill="#2b7cd3"/><path d="m389.993 200h-164.994v48.124l82.497 24.061 82.497-24.061z" fill="#185abd"/><path d="m389.993 248.124h-164.994v38.959c0 5.027 4.136 9.164 9.163 9.164h146.66c5.027 0 9.164-4.137 9.164-9.164z" fill="#103f91"/><path d="m284.582 138.127h-59.583v130.621h59.583c5.022-.015 9.149-4.143 9.164-9.164v-112.286c-.015-5.021-4.142-9.149-9.164-9.164z" fill-opacity=".098039"/><path d="m277.708 145.002h-52.709v130.621h52.709c5.021-.015 9.149-4.143 9.163-9.165v-112.285c-.014-5.021-4.142-9.149-9.163-9.164zm0 0h-52.709v116.871h52.709c5.021-.015 9.149-4.143 9.163-9.164v-98.536c-.014-5.021-4.142-9.149-9.163-9.164zm-6.875 0h-45.834v116.871h45.834c5.021-.015 9.149-4.143 9.163-9.164v-98.536c-.014-5.021-4.142-9.149-9.163-9.164z" fill-opacity=".2"/><path d="m179.164 145.002h91.661c5.028 0 9.165 4.136 9.165 9.164v91.662c0 5.027-4.137 9.163-9.165 9.163h-91.661c-5.027 0-9.164-4.136-9.164-9.163v-91.662c0-5.028 4.137-9.164 9.164-9.164z" fill="#185abd"/><path d="m252.154 234.374h-12.375l-14.437-47.436-15.125 47.436h-12.374l-13.75-68.748h12.375l9.624 48.123 14.438-46.748h10.312l13.75 46.748 9.624-48.123h11.687z" fill="#fff"/></g><path d="m170 90.004h219.993v219.993h-219.993z" fill="none"/></svg>