<svg clip-rule="evenodd" fill-rule="evenodd" stroke-miterlimit="3.8637" viewBox="0 0 560 400" xmlns="http://www.w3.org/2000/svg" xmlns:xlink="http://www.w3.org/1999/xlink"><radialGradient id="a" cx="279.471" cy="194.171" gradientUnits="userSpaceOnUse" r="113.662"><stop offset="0" stop-color="#e11b22"/><stop offset=".73" stop-color="#e11b22"/><stop offset="1" stop-color="#942923"/></radialGradient><linearGradient id="b"><stop offset="0" stop-color="#942923"/><stop offset=".51" stop-color="#e11b22"/><stop offset="1" stop-color="#942923"/></linearGradient><linearGradient id="c" gradientUnits="userSpaceOnUse" x1="211.386" x2="338.221" xlink:href="#b" y1="186.291" y2="186.291"/><linearGradient id="d" gradientTransform="matrix(10.1911 -28.0242 28.0242 10.1911 239.972 306.859)" gradientUnits="userSpaceOnUse" x1="0" x2="1" xlink:href="#b" y1="0" y2="0"/><linearGradient id="e" gradientTransform="matrix(18.8393 -10.7676 10.7676 18.8393 151.671 296.571)" gradientUnits="userSpaceOnUse" x1="0" x2="1" xlink:href="#b" y1="0" y2="0"/><linearGradient id="f"><stop offset="0" stop-color="#fff"/><stop offset="1" stop-color="#6d6e71"/></linearGradient><linearGradient id="g" gradientUnits="userSpaceOnUse" x1="392.584" x2="399.25323" xlink:href="#f" y1="292.257" y2="292.257"/><linearGradient id="h" gradientTransform="matrix(-6.66896 0 0 -6.66896 167.455 292.257)" gradientUnits="userSpaceOnUse" x1="0" x2="1" xlink:href="#f" y1="0" y2="0"/><linearGradient id="i" gradientUnits="userSpaceOnUse" x1="395.66" x2="403.15031" xlink:href="#f" y1="307.801" y2="307.801"/><linearGradient id="j" gradientTransform="matrix(18.8394 10.7677 -10.7677 18.8394 389.422 285.805)" gradientUnits="userSpaceOnUse" x1="0" x2="1" xlink:href="#b" y1="0" y2="0"/><linearGradient id="k" gradientTransform="matrix(10.1912 28.0247 -28.0247 10.1912 309.804 278.834)" gradientUnits="userSpaceOnUse" x1="0" x2="1" xlink:href="#b" y1="0" y2="0"/><linearGradient id="l" gradientTransform="matrix(-.0574115 -17.6422 17.6422 -.0574115 306.484 282.703)" gradientUnits="userSpaceOnUse" x1="0" x2="1" xlink:href="#f" y1="0" y2="0"/><linearGradient id="m" gradientTransform="matrix(.0574115 -17.6422 17.6422 .0574115 253.573 282.703)" gradientUnits="userSpaceOnUse" x1="0" x2="1" xlink:href="#f" y1="0" y2="0"/><linearGradient id="n" gradientUnits="userSpaceOnUse" x1="319.88" x2="328.73921" xlink:href="#f" y1="312.12" y2="312.12"/><linearGradient id="o" gradientTransform="matrix(-8.85908 0 0 -8.85908 240.147 312.12)" gradientUnits="userSpaceOnUse" x1="0" x2="1" xlink:href="#f" y1="0" y2="0"/><linearGradient id="p" gradientTransform="matrix(-7.49071 0 0 -7.49071 164.225 307.801)" gradientUnits="userSpaceOnUse" x1="0" x2="1" xlink:href="#f" y1="0" y2="0"/><clipPath id="q"><path clip-rule="evenodd" d="m193.287 123.208 4.592 71.585c3.242 36.604 11.616 60.376 25.393 75.503 12.561 12.156 27.553 22.151 39.574 29.04 7.429 4.322 13.507 7.293 17.154 9.049 3.647-1.756 9.725-4.727 17.154-9.049 12.021-6.889 27.013-16.884 39.574-29.04 13.777-15.127 22.151-38.899 25.393-75.503l4.592-71.585c-4.322-1.891-10.535-4.458-18.504-7.024-16.478-5.268-39.98-10.67-68.209-10.67s-51.731 5.267-68.209 10.67c-7.969 2.431-14.182 4.998-18.504 7.024zm154.787-39.035c-16.478-5.268-39.98-10.67-68.209-10.67s-51.731 5.267-68.209 10.67c-9.185 2.972-16.208 5.943-20.395 7.969l1.891 28.634c4.322-1.891 10.67-4.592 18.639-7.158 16.478-5.268 39.98-10.671 68.209-10.671s51.731 5.268 68.209 10.671c8.104 2.566 14.452 5.132 18.639 7.158l1.891-28.634c-4.322-2.026-11.345-4.997-20.665-7.969zm-68.074-19.18c58.619 0 97.654 22.016 97.654 22.016l-7.024 108.325c-3.241 37.413-12.021 63.616-27.824 80.77-26.608 25.933-62.806 41.601-62.806 41.601s-36.198-15.668-62.806-41.601c-15.803-17.154-24.583-43.357-27.824-80.77l-7.024-108.325s39.035-22.016 97.654-22.016z"/></clipPath><clipPath id="r"><path clip-rule="evenodd" d="m237.454 284.883s1.891 1.216.945 2.837l-5.673 7.699s-2.026 2.431-.135 4.052c0 0 4.052 3.782 11.346 7.834l16.613-24.448s-.54-.945-5.402-.945c-6.078 0-12.021 1.216-17.694 2.971z"/></clipPath><clipPath id="s"><path clip-rule="evenodd" d="m151.416 295.013-.541-.945c-.675-1.621-1.485-3.917 1.756-7.969 5.403-5.808 13.372-7.699 14.858-5.133 1.08 2.297-1.216 5.268-4.322 7.699-2.567 2.026-4.998 2.837-4.998 2.837l7.159 8.779c-2.026.405-3.647.405-4.998.54-6.213-.81-7.834-3.646-8.914-5.808z"/></clipPath><clipPath id="t"><path clip-rule="evenodd" d="m392.646 286.234s2.972 2.972 6.213 5.133c.541.405.271.81.271.81l-5.133 5.943c.675-.81 3.107-5.403 3.107-5.403s.27-.675-.136-1.215c-.945-1.216-3.781-4.593-4.322-5.268z"/></clipPath><clipPath id="u"><path clip-rule="evenodd" d="m167.354 286.234s-2.972 2.972-6.213 5.133c-.541.405-.271.81-.271.81l5.133 5.943c-.675-.81-3.107-5.403-3.107-5.403s-.27-.675.136-1.215c.945-1.216 3.781-4.593 4.322-5.268z"/></clipPath><clipPath id="v"><path clip-rule="evenodd" d="m395.753 301.902c2.026.54 2.971.405 4.727.27 1.081-.135 3.107-1.216 2.567.135-1.486 3.917-3.917 7.834-5.673 11.616-.541 1.08.405-1.486 1.35-4.322.406-1.216.946-2.567 1.351-3.782.135-.675.405-1.621-.27-1.891s-3.512-1.621-4.052-2.026z"/></clipPath><clipPath id="w"><path clip-rule="evenodd" d="m408.584 295.013.541-1.08c.675-1.621 1.485-3.917-1.756-7.969-5.403-5.808-13.372-7.699-14.858-5.133-1.08 2.297 1.216 5.268 4.322 7.699 2.567 2.026 4.998 2.837 4.998 2.837l-7.159 8.779c2.026.405 3.647.405 4.998.54 6.078-.675 7.834-3.511 8.914-5.673z"/></clipPath><clipPath id="x"><path clip-rule="evenodd" d="m322.411 284.883s-1.891 1.216-.945 2.837l5.673 7.699s2.026 2.431.135 4.052c0 0-4.052 3.782-11.346 7.834l-16.478-24.448s.54-.945 5.402-.945c5.943 0 11.886 1.216 17.559 2.971z"/></clipPath><clipPath id="y"><path clip-rule="evenodd" d="m313.227 267.054c-.406 0-2.702.811-3.242.946-1.081.27-1.756.945-2.431 1.756-.811.945-1.351 2.026-2.026 2.971-.946 1.351-4.728 6.484-5.403 7.834.675-1.215 3.917-6.888 4.727-8.509.676-1.486 1.351-2.836 2.432-3.917 1.485-1.486 4.052-1.216 5.943-1.081z"/></clipPath><clipPath id="z"><path clip-rule="evenodd" d="m246.908 267.054c.406 0 2.702.811 3.242.946 1.081.27 1.756.945 2.431 1.756.811.945 1.351 2.026 2.026 2.971.946 1.351 4.728 6.484 5.403 7.834-.675-1.215-3.917-6.888-4.727-8.509-.676-1.486-1.351-2.836-2.432-3.917-1.62-1.486-4.052-1.216-5.943-1.081z"/></clipPath><clipPath id="A"><path clip-rule="evenodd" d="m324.977 320.946 3.647-16.343c.676-2.566-1.485-1.08-1.485-1.08l-7.024 3.511 3.782-.405c2.161 0 1.891 2.296 1.891 2.296z"/></clipPath><clipPath id="B"><path clip-rule="evenodd" d="m235.023 320.946-3.647-16.343c-.676-2.566 1.485-1.08 1.485-1.08l7.024 3.511-3.782-.405c-2.161 0-1.891 2.296-1.891 2.296z"/></clipPath><clipPath id="C"><path clip-rule="evenodd" d="m164.112 301.902c-2.026.54-2.971.405-4.727.27-1.081-.135-3.107-1.216-2.567.135 1.486 3.917 3.917 7.834 5.673 11.616.541 1.08-.405-1.486-1.35-4.322-.406-1.216-.946-2.567-1.351-3.782-.135-.675-.405-1.621.27-1.891s3.512-1.621 4.052-2.026z"/></clipPath><path d="m192.881 116.994-1.62-24.852c4.187-2.026 11.21-4.997 20.53-7.969 16.478-5.268 39.98-10.67 68.209-10.67s51.731 5.267 68.209 10.67c9.32 2.972 16.343 5.943 20.53 7.969l-1.891 28.634-4.727 73.882c-3.242 36.604-11.616 60.375-25.393 75.503-12.561 12.156-27.553 22.151-39.574 29.04-7.429 4.322-13.507 7.293-17.154 9.049-3.647-1.756-9.725-4.727-17.154-9.049-12.021-6.889-27.013-16.884-39.574-29.04-13.777-15.128-22.151-38.899-25.393-75.503z" fill="#fff" fill-rule="nonzero"/><path d="m192.881 116.994-1.62-24.852c4.187-2.026 11.21-4.997 20.53-7.969 16.478-5.268 39.98-10.67 68.209-10.67s51.731 5.267 68.209 10.67c9.32 2.972 16.343 5.943 20.53 7.969l-1.891 28.634-4.727 73.882c-3.242 36.604-11.616 60.375-25.393 75.503-12.561 12.156-27.553 22.151-39.574 29.04-7.429 4.322-13.507 7.293-17.154 9.049-3.647-1.756-9.725-4.727-17.154-9.049-12.021-6.889-27.013-16.884-39.574-29.04-13.777-15.128-22.151-38.899-25.393-75.503z" fill="none" stroke="#bcbec0" stroke-width="2.7"/><g clip-path="url(#q)"><path d="m162.626 47.57h233.937v285.533h-233.937z" fill="#942923"/><circle cx="279.46" cy="194.118" fill="url(#a)" r="113.592"/></g><path d="m235.428 168.32c-.405-.135-.676-.27-.27-2.296.27-.675 0-1.216-1.081-1.216 0 0-.945.135-2.296.135-4.592 0-5.673-2.161-5.673-2.161s-1.216-2.161.81-1.756c1.486.271 6.214-1.62 6.214-2.161 0-.81-1.351-.405-2.432-.405-.945-.135-2.431-.675-4.592-1.621-1.621-.54-2.836-.405-4.592.271 0 0-1.486 1.755-.811-.811.676-2.431 3.917-4.457 5.808-4.997.541-.135-.27-2.026-.945-1.891-.946.135-1.891 1.08-3.377 1.08 0 0-2.026-.135-2.836-1.215-.27-.406-.27-.676-.406-.946-.405-.675-.675-1.215-.54-1.756.135-.54.405-.81.676-1.215.27-.406.675-1.081.945-1.351.81-.54 2.431 0 2.566-.405.406-1.351-3.376-.946-4.457-1.351-.54-.27-.81-.81-1.216-1.216-.27-.405-.675-1.08-.81-1.35 0-.676 0-1.216.405-2.296.676-2.567 2.431-4.187 3.242-4.187.945 0 2.026 0 3.106-.136 1.081-.135-.54-3.241.676-4.052 1.486-.945 2.701.271 3.241.406.406.135 1.081.27 2.432.27.81 0 1.891.27 1.62 1.35 0 0-.27 2.702.135 3.107.406.135 1.351-1.351 1.756-1.891.27-.54 1.351-1.216 2.026-.135 0 0 .676 1.216 1.621 2.026 1.351.946.405 2.161.405 2.161s-1.215 1.756-3.511 1.621c-.406 0-.946.27-1.351.945-.405.811-.405 7.159 1.08 8.104 1.756 1.081 5.268 2.162 8.105 3.647 3.106 1.756 4.187 3.242 5.672 5.268 1.216 1.486 5.673 1.756 6.349 2.296.27.27 0 2.701-6.349 6.348-6.483 3.107-8.644 2.296-9.184 2.567-.27.405-1.081 1.62-2.161 1.215zm33.091-22.826c1.216.405 2.567-1.756 2.567-1.756s-.541-.946-2.026-.946c-1.891.135-2.297.676-2.297.676s.135 1.485 1.756 2.026zm-2.836-6.484c1.891-.81 3.106-1.08 3.106-1.08s-.405-.54-1.215-.27c-1.486.54-1.891 1.35-1.891 1.35zm14.182-12.561s-1.486-.54-3.377 0c-1.891.676-2.431 1.486-2.296 1.621.135.405 1.486.27 2.566.27 1.891-.135 3.107-1.891 3.107-1.891zm-10.941 28.094c-2.701.541-6.078 1.351-8.779 2.296-2.566 1.081-4.457 2.026-6.888 4.728-1.891 1.756-3.917 4.322-7.969 5.943-2.837 1.08-4.593 2.836-4.593 3.376 0 0-.405.946.27.541 0 0 1.081-.811 3.107-1.081 2.026-.135 3.782-.135 3.782-.135l.405.405s-2.431 1.621-3.917 3.917c-1.215 1.891-2.026 3.782-2.026 6.213 0 .541.54 1.486 1.081.676 0 0 2.701-3.647 4.052-3.647 1.215 0 2.836.945 4.997.945 3.647 0 4.863-.27 4.863-.27l.135.54s-1.351 1.351-2.702 3.647c-.81 1.486-1.485 3.242-1.756 5.403 0 .945.406 1.351 1.216.675 0 0 2.026-2.431 2.972-2.971 1.08-.54 2.971-.811 4.997-1.621 2.566-.81 4.052-1.891 4.052-1.891l.54.54s-.54 2.567-.27 4.323c.405 1.485 1.216 2.566 1.216 4.457 0 2.431-2.296 6.078-2.296 6.078v.81s2.701-1.215 5.808-2.296c2.161-.81 4.457-2.701 5.402-4.457 1.486-2.702 2.161-2.702 2.161-2.702s.541.946.135 2.702c-.81 2.431-1.62 4.322-1.62 5.538 0 0 .27.135.675.405 2.566-3.512 5.268-3.512 8.374-7.564 4.052-5.808 3.242-12.156 3.242-12.156l.27-.27s1.08.405 1.891.54c1.08.135 2.161 0 3.377.27 1.215.405 1.62 1.216 1.755 2.026.136.811.271 2.566.811 4.592.135.811.675.946 1.215.406.541-.541 2.972-3.377 4.188-9.185.54-2.701.135-4.457-1.486-6.618-.946-1.216-3.242-3.242-4.998-5.403-1.215-1.486-1.891-3.242-1.485-5.268.135-.945.81-.81 1.485-.54.406.27.811.27.811.27s2.161.406 4.187-.81c3.241-2.161 3.782-4.998 3.782-4.998s-.541-.405-1.756.271c-.405.27-.946.675-1.891.405-.675-.135-2.837-1.216-2.837-3.242 0 0-.135-2.026-.675-4.997-.54-3.107-.945-4.458-.945-4.458s-.27-.945.405-.945c.945.135 2.566.135 3.512-.27 0 0 2.836-1.081 4.187-4.052.405-.811 1.08-2.296.54-3.107-.27-.405-1.756.676-3.242.946-1.08.135-2.161 0-2.836-.946-.27-.54-1.081-1.35-1.621-2.566-.54-1.486-.135-2.431-.135-2.431s2.566-.27 4.457-2.026c.946-.946 5.133-7.294 5.133-9.455 0-.27-.405-.81-1.351-.405 0 0-4.592 4.457-7.969 5.943-2.836.945-4.727-1.081-4.727-1.081s2.161-1.215 4.592-2.971c1.621-1.216 2.837-2.702 2.837-4.593 0-.675-.136-1.215-1.081-.54 0 0-3.377 2.026-5.808 2.837-4.322 1.35-7.294 1.215-7.294 1.215s.136-1.35 2.837-2.701c1.756-.811 2.701-.675 2.566-1.621-.135-.405-.54-.945-1.215-1.216 0 0-3.242-1.215-6.889 2.162-3.106 3.241-4.187 5.672-4.187 5.672s-2.971.27-6.078 1.351c-4.727 1.756-6.078 3.107-6.618 3.512 0 0-1.756 1.621-2.702 2.026-1.621.54-2.836.405-4.592.405-1.351 0-3.242.135-3.917.54-.54.27-1.351.676-2.296 2.296-.27.676-.27 1.081-.135 1.216.54.405 1.351.81 1.756 1.351.405.675.54 1.891 1.485 3.511.811 1.216 2.026 2.972 3.242 3.647.946.405 2.161.405 2.566.946 0 0-2.161 1.485-4.322 1.08-1.215-.27-2.971-1.35-4.187-4.592-.675-1.756-1.756-2.972-3.106-3.377-1.081-.135-2.837-.135-4.728 1.216-1.35 1.08-1.891 1.621-2.431 2.296s-1.351 2.026-1.081 2.836c.271.541.946 1.216 2.162 1.216.81 0 1.755-.405 2.971-1.351.675-.54 1.756-.945 2.431-.945 1.081.135 1.756 4.457 5.133 6.348 2.296 1.216 5.402.946 5.402.946s.811.405.811 1.62c0 .676.27 1.621.54 2.026-.135.946-.81 1.756-2.026 2.567-.54.405-.81.945-.81.945s.945 1.216 4.052.54c1.756-.405 3.782-1.891 3.782-1.891s.405.271.135.946c-.135.27-.135.405.135.675.405.27.81.405 1.621.405.945 0 2.971-1.08 4.052-2.026.405-.27.675.136.135.676.405.27-1.486 2.161-4.458 2.836zm-42.816-26.743c.675.27.675.405 1.216.54.675.135.945.135 1.08 0 .27-.81.54-2.431 0-3.106-1.08-1.081-3.376-1.351-3.782-.811-.135.405 0 .811.406 1.216 1.485.81 1.08 2.161 1.08 2.161zm-11.751 11.886c1.081 0 1.216-.54 1.216-.811.135-.405.135-.945.405-2.026 0-.27.405-1.215-.81-.81-2.026.675-3.782 3.917-3.782 3.917s-.541.81.27.81c1.756-.405 2.296-1.215 2.701-1.08zm4.322 10.535c.406 0 .541-.27.406-.675-.136-.27-.541-.676-1.351-.811-.811 0-1.081.541-1.081.541-.135.27-.135.54-.135.945 0 .54-.27.81-.27 1.756 0 .54.54.81.946.27.54-.675.54-1.621.675-1.891.135-.135.405-.135.81-.135zm17.154-19.315c-.135.135 0 .406.27.946.27.405 1.216 1.08 1.216 1.08.54-.135 1.215-.675 1.08-1.485-.135-1.621-.405-2.296-.54-2.702-.135-.405-.675-1.215-1.216-1.08-.135.135-.135 1.08-.135 1.08s.135.676 0 1.216c-.27.405-.675.945-.675.945zm55.243 48.355s.81 3.511-1.756 8.914c-2.161 4.187-5.808 6.483-5.808 6.483s.54 2.296 2.431 3.107c2.971 1.08 5.808 6.618 5.808 8.779-.135 4.593-.54 5.673-1.891 9.32-1.486 3.512-2.296 7.699-2.296 9.32 0 2.701 2.566 5.807 2.566 8.104 0 3.511-1.08 4.997-2.431 9.049-2.161 5.808-.405 8.915-.405 8.915.405.81.675.54.945 0 2.296-6.078 5.673-8.24 5.673-8.24 1.08-.81 1.08.136.81 1.081-1.215 3.917-1.62 7.294-1.62 7.294l.675-.135c4.322-4.863 5.132-6.619 5.673-8.24.81-3.106.81-6.078.81-6.078s.405-1.755 2.701-1.485c2.297.405 3.782-.27 5.673-1.216 2.296-1.621 3.917-3.377 3.917-3.377s1.081-.945 2.431 0c2.297 2.161 2.297 5.268 1.081 7.699-1.756 3.242-3.242 3.782-4.052 3.782-1.081 0-2.161-1.621-3.782-1.621-2.161 0-3.106 1.351-3.106 1.891 0 1.216.945 1.216 1.08 2.161.405 2.161 1.486 3.917 1.486 3.917-.27.541-2.161 1.486-2.702 2.161-.405.541-.54 1.621-.54 1.621s-.405.676 1.486 1.621c1.486.675 1.621 2.161 3.242 3.377 1.215.81 2.296-.406 2.296-.406 1.215-1.62 1.485-2.836 1.485-2.836.271-.675 1.081-.405 1.081 0 .135 1.081.945 1.486 1.351 1.486 1.621.135 2.701-.811 2.701-.811s1.351.135 2.296-.54c1.756-1.08 2.431-2.296 2.431-2.296s.406-.81-.27-2.161c-.405-.54-1.08-.946-1.08-.946s.405-1.35 1.485-1.35c1.216 0 2.432-1.216 2.972-2.431.54-1.486.675-2.837.675-2.837.135-.405-.405-1.891.946-2.161 1.621-.405 2.296-.81 2.971-1.891.811-1.486.676-2.431.676-2.431-.135-.27-.676-.405-.676-.405-.405-.135-.27-.406-.135-.541 1.351-1.215 3.512-3.241 3.782-4.592.135-.81 0-1.351-.675-2.026-2.702 1.486-4.322 1.216-4.457.811 0-.406 1.755-1.216 1.755-1.216 2.161-1.351 3.107-3.377 3.512-4.998.675-3.106.27-4.727.27-4.727h-.54c-2.431 4.322-6.213 5.808-6.213 5.808-.675.27-.81-.54-.54-.946 1.756-2.161 2.431-3.511 2.701-5.672s.135-3.242-.54-4.998c-.135-.405-.405-.27-.541 0-1.08 2.431-1.62 2.701-2.701 4.457-1.486 2.026-3.242 2.837-3.917 2.432-1.08-.946-.945-3.107-1.756-4.052-1.35-1.216-3.376-.946-4.997-.136-1.216.676-3.512 2.837-3.512 2.837l-.27-.27c.54-3.647-.675-6.619-.675-6.619l.405-.54c1.621-.135 2.701.405 2.701.405 2.701 1.081 4.322 1.216 7.834 1.216 4.592 0 10.535-3.107 13.507-7.699 4.187-7.023 2.431-13.372 1.485-15.803-1.215-2.836-2.026-3.782-2.431-4.187-.54-.405-.81-.135-.675.405.54 1.891.81 4.728.135 9.32-.135.945-.675.81-1.081.27-.81-1.486-2.296-3.782-3.376-4.862-1.756-1.756-3.377-2.837-3.377-2.837-.81-.675-.54-1.621-.405-2.701.81-3.512.405-5.403-.27-8.239-.811-2.972-3.917-6.348-5.268-7.159-.54-.405-.945 0-.54.541.81.945 1.486 2.701 1.621 5.943 0 2.161-.541 4.052-.541 4.052-1.62-1.081-3.917-4.863-5.402-8.375-1.216-2.566-1.756-6.078-.946-8.779.811-2.296 2.567-3.917 4.052-4.862 2.567-1.756 4.998-5.133 5.673-7.834.946-5.133-1.216-5.808-1.216-5.808-1.755 5.267-5.807 7.699-6.213 7.969-.54.27-.675.135-.54-.406.675-2.701 2.701-6.078 2.701-9.319 0-2.296-1.62-4.052-3.106-5.943-1.621-2.431-1.621-5.133 1.08-8.374 2.026-2.161 3.917-3.107 5.133-3.377.945-.27 1.621-.54 1.351-1.081-.27-.675-.676-.675-1.621-.27-3.377 1.216-5.943 2.432-8.374 3.782-2.296 1.216-2.702 1.351-3.647 2.161-1.891 2.161-2.026 3.647-1.891 7.159.27 3.106 1.486 7.429 1.486 7.429l-.27.54s-2.297-1.756-4.593-2.161c-3.376-.405-3.376.675-3.376.675s5.132 5.133 5.943 8.915c.54 3.646.54 5.943.54 11.075 0 8.374 1.08 12.021 4.187 15.398 2.701 2.566 6.348 6.348 6.753 8.779.135.54 0 .676-.405.676-1.08.27-1.486.405-2.566.675-1.216.405-1.756.81-3.377.135-2.431-1.081-3.647-3.512-4.052-4.727-.135-.811-.27-1.216-.27-1.216-.135-1.081-1.216-1.081-1.216-.135-.135 2.026-.135 2.701.406 4.862 1.215 3.782 6.348 5.943 8.914 6.754 3.107.81 7.564 1.215 9.32 2.161 2.431 1.756 3.241 4.187 2.431 6.888-1.216 2.431-3.107 3.107-5.538 3.512-3.512.405-4.862-.27-7.834-2.161-5.132-3.242-9.725-7.564-12.291-11.481-2.836-4.862-6.618-8.914-6.618-8.914l-3.647-4.593zm35.928 67.398c-.946.541-1.216 2.296-.811 2.702.811.54 1.756.27 2.972-.27 2.161-1.081 2.566-3.107 2.566-3.107.135-1.216-1.081-.405-1.621.135-.945.675-1.756.945-2.296.945-.54-.135-.81-.405-.81-.405zm-7.159 9.455c-1.756.405-2.431.675-2.161 1.351.54 2.026 2.431 2.161 2.971 2.161 1.621 0 3.242-1.621 3.242-1.621 1.216-1.621-.27-1.216-.675-1.081-1.486.541-1.486.406-1.891.406-.541 0-1.486-1.216-1.486-1.216zm-12.426 1.081c-.541-.946-.811-1.216-1.216-1.486-1.08-.811-1.486 0-1.756.27-.81 1.756-.81 2.566-.81 3.377 0 1.62 1.35 2.161 1.35 2.161.406.135 1.351.135 1.621-.27.135-.406-.405-.676-.54-1.216-.27-.945.54-1.621.54-1.621.811-.675.811-1.215.811-1.215zm-2.296-10.941c.405 0 .81-.405.27-1.216-.406-.405-1.081-.54-1.756-.27-1.216.27-1.756 1.081-2.296 2.026-.946 1.621-.406 2.026 0 2.432.945.675 1.485.54 1.485.54s-.405-1.081.271-1.756c1.215-.946 1.485-1.486 1.485-1.486.135-.27.541-.27.541-.27zm-17.424-32.011c.135-.135 3.106-2.701 2.566-7.834-.945-5.403-3.241-6.618-3.241-6.618s-4.728 4.187-7.969 3.512c-4.188-1.081-6.619-1.486-10.671-1.486-2.566 0-4.862 1.756-6.213 3.241-2.026 2.702-2.431 7.564-2.431 7.564s0 1.891-2.566 1.891c-2.026-.135-2.972.135-4.052.405-2.162.676-3.107 2.297-3.377 3.107-1.081 3.377.135 4.862.135 4.862.945-.945 1.351-2.161 2.566-3.376 1.216-1.081 2.702-.811 3.377 0 1.08 1.35 2.161 2.161 3.106 2.296 1.486.135 2.972-.54 4.052.27.271 2.836 1.216 5.133 1.216 5.133s0 4.052-3.512 7.563c-2.161 2.026-3.511 2.567-5.267 2.567-1.621 0-2.296-2.026-2.702-3.107-.405-1.351-1.215-2.566-2.566-2.296-1.621.405-2.836 1.486-2.971 3.106-2.432.676-3.512 1.216-3.917 2.162-.541 1.215.135 1.891.135 1.891s-2.972 2.026-2.972 3.511c0 2.431 1.216 4.593 2.972 4.593 1.891 0 2.971-2.026 4.592-1.891-1.216 1.08-1.756 2.296-1.756 3.241 0 .811.811 1.621 2.972 2.972 1.755.81 4.187 1.08 5.132.135.811-.946.946-2.161 1.621-2.296.405.81 1.486 1.756 2.026 1.756 2.026 0 2.026-.406 4.457-.676 1.891-.27 3.782-1.08 3.782-2.161 0-1.08-2.161-1.891-2.161-3.106 0-.406.81-1.621 1.486-2.297.675-.945 1.35-.27 1.35-.27s.946 4.322 2.837 5.943c2.296 1.756 4.187 1.486 6.078-.675-4.457-.405-2.701-3.107-2.701-3.107s2.161 1.621 6.888 1.621c2.026 0 3.647-2.161 3.647-2.161v-.81s-2.296.405-3.377-1.486c-1.351-2.026-1.486-2.972-1.486-2.972-.27-.405.135-.54.406-.54 1.35-.135 1.35.811 3.646-.675 2.026-1.351 2.297-3.377 2.297-3.377.135-.675-.271-.945-.406-.81-1.215 1.621-2.296 1.215-3.241.675-1.486-1.216-1.891-2.701-1.891-2.701s-.27-1.081.81-1.486c3.107-1.216 5.538-4.862 5.808-8.374 0-.135-.405-.27-.405-.27-.54.675-2.566 1.891-4.052 2.026-1.486 0-2.296-.811-2.566-1.621-.541-1.891 0-2.701.675-3.647 2.296-2.971 4.862-3.647 7.834-3.917zm-27.284 39.98s2.026 1.351 3.242 1.756c1.08.405 1.486.135 1.08-.675 0 0-.675-1.081-.945-2.297-.135-.54-.27-.675-.54-.81 0 0-.676-.405-1.621 0 0 0-.54.135-1.216.675-.54.135-.54.811 0 1.351zm-14.047-.54c0 .405.54.945.811 1.756.27.675 1.35.945 1.62.675.135-.27.676-1.756.541-3.242 0 0-.811-.27-1.216-.675s-.675-.405-1.216-.54c.136-.135-.54.135-.54 2.026zm-9.455-8.239c-.405 1.35.946 2.566.946 2.566s.135-.675 1.08-1.216c.811-.54.946-1.35.946-1.35s-.135-.135-.135-.406c-.135-.675.27-1.485 0-2.026-.27-.405-.811-.27-.811-.27s-1.485 1.081-2.026 2.702zm6.484-13.642c-1.351.54-2.702 1.351-2.702 1.621 0 .405.406.54.406.54s.54-.405 1.89 0c1.351.405 1.891.135 1.891.135s.136-.54 1.081-.945c.945-.406.405-1.486.405-1.486s-1.486-.405-2.971.135zm-12.291-46.463c-.271-1.351-.406-2.161-1.756-2.161-2.026 0-1.081 1.485-4.187 2.836-4.323 1.216-2.972 3.782-2.972 3.782s-1.216-.27-2.701.54c-1.351.811-2.702 4.457-.135 7.564.27.27 0 .54 1.35.675.27 0 .406.27.135.676 0 0-2.026 2.431-.81 4.592.54.81 1.891 2.026 7.969 2.431 1.891.135 1.891-1.621 2.431-1.621.946 0 .676.946 2.702.946 1.35 0 2.026-2.431 3.241-3.242 1.351-.81 2.972-.54 3.917-1.891.946-1.486-.81-2.836-.81-2.836s.675-.54 2.026-.135c0 0 3.647 4.322 6.483 4.322 3.917 0 6.348-1.756 6.348-1.756s1.891-1.081.135-1.351c0 0-3.106-.27-4.322-1.756 0 0-.945-1.215-.27-1.891.945-.81 1.486-.135 1.756.136 1.215 1.891 2.296 2.431 3.106 2.836.811.27 1.486.405 3.107.405 1.216 0 1.756-.675 1.756-.81-1.216-1.081-2.566-4.457-.811-7.159 1.351-1.891 3.647-.54 4.052 0 .541.54 1.081 1.621 2.567 1.351 1.215-.27.54-4.727-.811-6.483 0 0-2.026-.541-5.537.81-2.297.946-5.133 3.917-6.079 3.782-1.08-.405-2.026-3.242-1.08-5.403.81-1.621 2.971-3.917.54-4.862-3.512-1.351-7.699 2.026-9.184 3.376-1.756 1.486-3.377 3.782-8.104 6.079 0 0-4.052 1.755-4.052.405.27-1.081.135-2.431 0-4.187zm-9.185-2.161c-3.647 1.215-2.701 2.566-2.701 2.566s2.431-.54 3.511.405c0 0 3.377-.81 4.323-2.566.135 0-1.351-1.486-5.133-.405zm-7.834 12.021c-1.08 1.35-.675 4.052-.54 4.592s.405 1.215.945.27c0 0 1.351-2.566 3.377-3.242 0 0-.405-.945-.54-2.836 0-.135-1.621-.675-3.242 1.216zm10.265 14.182c1.891 2.836 4.187 1.756 4.187 1.756s-1.08-1.756-.81-3.242c.135-.54.54-.405.54-.946 0 0-2.566 0-4.592-.54 0-.135-.675.54.675 2.972zm13.642-6.078c-1.351.135-2.431 2.026-2.431 2.026 2.026 3.241 5.402 1.35 5.402 1.35s.271-.675-.135-.675c-1.215-.27-1.485-.405-1.62-.54-.676-1.621-1.216-2.161-1.216-2.161z" fill="url(#c)"/><path d="m280 64.993c58.619 0 97.654 22.016 97.654 22.016l-7.024 108.325c-3.241 37.413-12.021 63.616-27.824 80.77-26.608 25.933-62.806 41.601-62.806 41.601s-36.198-15.668-62.806-41.601c-15.803-17.154-24.583-43.357-27.824-80.77l-7.024-108.325s39.035-22.016 97.654-22.016z" fill="none" stroke="#000" stroke-width="2.3"/><path d="m165.328 300.146-7.159-8.779s2.431-.811 4.998-2.837c3.106-2.431 5.267-5.538 4.187-7.834.945 2.026 1.215 3.917 1.215 6.213.541 6.889 2.702 11.751 2.702 11.751-2.297.676-4.323 1.216-5.943 1.486z" fill="#fff" stroke="#000" stroke-miterlimit="4" stroke-width="1.35"/><path d="m165.328 300.146-7.159-8.779s2.431-.811 4.998-2.837c3.106-2.431 5.267-5.538 4.187-7.834.945 2.026 1.215 3.917 1.215 6.213.541 6.889 2.702 11.751 2.702 11.751-2.297.676-4.323 1.216-5.943 1.486z" fill="#fff" stroke="#000" stroke-width="1.35"/><path d="m392.646 280.696c-.945 2.026-1.215 3.917-1.215 6.213-.541 6.889-2.702 11.751-2.702 11.751" fill="none"/><path d="m388.729 298.66c2.297.676 4.187 1.081 5.808 1.351l7.159-8.779s-2.431-.811-4.998-2.837c-2.836-2.161-4.997-4.862-4.592-7.023-.675 1.756-.945 3.376-.81 5.402-.27 7.024-2.567 11.886-2.567 11.886z" fill="#fff"/><path d="m388.729 298.66c2.297.676 4.187 1.081 5.808 1.351l7.159-8.779s-2.431-.811-4.998-2.837c-2.836-2.161-4.997-4.862-4.592-7.023-.675 1.756-.945 3.376-.81 5.402-.27 7.024-2.567 11.886-2.567 11.886z" fill="none" stroke="#000" stroke-width="1.35"/><path d="m243.937 307.305 16.613-24.448s-.54-.945-5.402-.945c-16.073 0-31.876 8.239-44.032 16.073-26.744 17.964-35.928 20.53-41.871 20.665-2.702-.27-5.943-.27-8.645-5.943-.945-1.891-7.158-13.912-9.049-17.694h.135c1.08 2.026 2.701 4.998 8.914 5.538 5.943-.135 17.424-1.486 44.167-19.449 12.156-7.699 27.824-16.074 44.032-16.074 4.863 0 6.349 2.567 6.349 2.567l7.969 14.182-17.694 25.933z" fill="#fff"/><path d="m245.153 307.845 17.693-25.933-7.969-14.182s-1.485-2.566-6.348-2.566c-16.073 0-31.876 8.239-44.032 16.073-26.743 17.828-38.224 19.179-44.167 19.314-6.213-.54-7.699-3.376-8.914-5.538" fill="none" stroke="#000" stroke-width="1.35"/><path d="m324.437 285.559s-1.486.945-.945 1.621l6.618 8.239s1.621 1.756 1.216 4.457l-4.593 21.07s-.81 2.837-3.782 3.917c-7.023 3.242-24.582 10.13-42.951 10.13-18.639 0-36.333-7.158-43.222-10.265-2.971-1.62-3.511-4.052-3.511-4.052l-4.593-20.8c-.405-2.701 1.216-4.457 1.216-4.457l6.618-8.239c.541-.676-1.08-1.621-1.08-1.621l2.026-.676s1.891 1.216.945 2.837l-5.673 7.699s-2.026 2.431-.135 4.052c0 0 19.18 17.558 47.409 17.558s47.409-17.558 47.409-17.558c1.891-1.621-.135-4.052-.135-4.052l-5.673-7.699c-.946-1.621.945-2.837.945-2.837z" fill="#fff" stroke="#000" stroke-miterlimit="4" stroke-width="1.35"/><path d="m324.437 285.559s-1.486.945-.945 1.621l6.618 8.239s1.621 1.756 1.216 4.457l-4.593 21.07s-.81 2.837-3.782 3.917c-7.023 3.242-24.582 10.13-42.951 10.13-18.639 0-36.333-7.158-43.222-10.265-2.971-1.62-3.511-4.052-3.511-4.052l-4.593-20.8c-.405-2.701 1.216-4.457 1.216-4.457l6.618-8.239c.541-.676-1.08-1.621-1.08-1.621l2.026-.676s1.891 1.216.945 2.837l-5.673 7.699s-2.026 2.431-.135 4.052c0 0 19.18 17.558 47.409 17.558s47.409-17.558 47.409-17.558c1.891-1.621-.135-4.052-.135-4.052l-5.673-7.699c-.946-1.621.945-2.837.945-2.837z" fill="none"/><g clip-path="url(#r)"><path d="m239.48 274.888-10.265 28.094 21.475 7.699 10.13-27.959z" fill="url(#d)" fill-rule="nonzero" stroke="#000" stroke-miterlimit="4" stroke-width="1.35"/></g><path d="m237.454 284.883s1.891 1.216.945 2.837l-5.673 7.699s-2.026 2.431-.135 4.052c0 0 4.052 3.782 11.346 7.834l16.613-24.448s-.54-.945-5.402-.945c-6.078 0-12.021 1.216-17.694 2.971z" fill="none" stroke="#000" stroke-miterlimit="4" stroke-width="1.35"/><path d="m237.454 284.883s1.891 1.216.945 2.837l-5.673 7.699s-2.026 2.431-.135 4.052c0 0 4.052 3.782 11.346 7.834l16.613-24.448s-.54-.945-5.402-.945c-6.078 0-12.021 1.216-17.694 2.971z" fill="none" stroke="#000" stroke-miterlimit="4" stroke-width="1.35"/><path d="m314.847 307.845-17.693-25.933 7.969-14.182s1.485-2.566 6.348-2.566c16.073 0 31.876 8.239 44.032 16.073 26.743 17.964 38.224 19.179 44.167 19.449 6.213-.54 7.699-3.376 8.914-5.537-1.891 3.646-7.969 15.667-9.049 17.693-2.702 5.538-5.808 5.673-8.645 5.943-5.943-.135-15.127-2.836-41.87-20.665-12.157-7.699-27.824-16.073-44.033-16.073-4.862 0-5.402.945-5.402.945l16.613 24.448z" fill="#fff"/><g fill="none"><path d="m314.847 307.845-17.693-25.933 7.969-14.182s1.485-2.566 6.348-2.566c16.073 0 31.876 8.239 44.032 16.073 26.743 17.964 38.224 19.179 44.167 19.449 6.213-.54 7.699-3.376 8.914-5.537" stroke="#000" stroke-width="1.35"/><path d="m243.937 307.305 16.613-24.448s-.54-.945-5.402-.945c-16.073 0-31.876 8.239-44.032 16.073-26.744 17.964-35.928 20.53-41.871 20.665-2.702-.27-5.943-.27-8.645-5.943-1.35-2.161-9.725-18.639-9.725-18.639-.675-1.621-1.485-3.917 1.756-7.969 5.403-5.808 13.372-7.699 14.858-5.133 1.08 2.297-1.216 5.268-4.322 7.699-2.567 2.026-4.998 2.837-4.998 2.837l7.294 8.779" stroke="#000" stroke-width="1.35"/><path d="m316.063 307.305-16.613-24.448s.54-.945 5.402-.945c16.073 0 31.876 8.239 44.032 16.073 26.744 17.964 35.928 20.53 41.871 20.665 2.702-.27 5.943-.27 8.645-5.943 1.215-2.296 9.725-18.774 9.725-18.774.675-1.621 1.485-3.917-1.756-7.969-5.403-5.808-13.372-7.699-14.858-5.133-1.08 2.297 1.216 5.268 4.322 7.699 2.567 2.026 4.998 2.837 4.998 2.837l-7.159 8.779" stroke="#000" stroke-width="1.35"/></g><g clip-path="url(#s)"><path d="m165.598 277.185-18.775 10.805 9.725 17.154 18.91-10.806z" fill="url(#e)" fill-rule="nonzero" stroke="#000" stroke-miterlimit="4" stroke-width="1.35"/></g><path d="m151.416 295.013-.541-.945c-.675-1.621-1.485-3.917 1.756-7.969 5.403-5.808 13.372-7.699 14.858-5.133 1.08 2.297-1.216 5.268-4.322 7.699-2.567 2.026-4.998 2.837-4.998 2.837l7.159 8.779c-2.026.405-3.647.405-4.998.54-6.213-.81-7.834-3.646-8.914-5.808z" fill="none" stroke="#000" stroke-miterlimit="4" stroke-width="1.35"/><path d="m279.865 332.427c-16.884 0-33.227-6.078-40.655-9.455 0 0-.271-.135-.271.541 0 .27.271.405.271.405 7.698 3.377 23.771 9.32 40.655 9.32 16.883 0 33.091-5.943 40.79-9.32 0 0 .27-.135.27-.405 0-.676-.27-.541-.27-.541-7.428 3.377-23.772 9.455-40.79 9.455z" fill="#bcbec0"/><path d="m255.418 280.291h-.27c-16.614 0-32.822 8.509-44.978 16.343-26.608 17.829-35.523 20.26-40.925 20.395h-.541s-1.08-.135-.405-.945c.27 0 .675.135 1.081.135 5.132-.27 13.912-2.566 40.385-20.26 12.156-7.699 28.364-16.343 45.248-16.478.81-.135.945.81.405.81z" fill="#bcbec0"/><path d="m304.582 280.291h.27c16.614 0 32.822 8.509 44.978 16.343 26.608 17.829 35.523 20.26 40.925 20.395h.541s1.08-.135.405-.945c-.27 0-.675.135-1.081.135-5.132-.27-13.912-2.566-40.385-20.26-12.156-7.699-28.364-16.343-45.248-16.478-.945-.135-.945.81-.405.81z" fill="#bcbec0"/><g fill="#e11b22" stroke="#942923" stroke-width=".68"><path d="m199.5 96.464c.27.405.81.811 1.485 1.621.676.675 1.351 1.486 2.162 2.161.675.675 1.485 1.486 2.296 2.296.675.676 1.08.946 1.215 1.081.27-4.052.406-7.294.406-9.725 1.35-.54 2.701-.946 3.916-1.486.136 0 .136-.135.271-.135.27-.135.405 0 .405.135s0 .27-.135.405c-.676.271-1.081.676-1.081 1.216s.27 1.756.946 3.647l1.621 4.727c.27.946.675 1.621 1.08 1.891s.81.405 1.351.27c.27-.135.405 0 .54.135 0 .135 0 .135-.135.27l-2.431.811c-.811.27-1.756.675-3.107 1.215-.135 0-.27-.135-.27-.27s.135-.27.405-.405.54-.27.54-.54c.136-.135.136-.405.136-.675 0-.271-.136-.811-.271-1.351l-1.485-4.322c-.811-2.161-1.216-3.377-1.351-3.782-.27 4.592-.27 7.429-.405 8.644v2.837c0 .27 0 .54-.135.54s-.27-.135-.541-.405c-.81-.811-3.376-3.512-7.969-8.104.541 1.62 1.216 3.646 2.162 6.348.54 1.35.81 2.296 1.08 2.566s.811.405 1.486.27c.27 0 .405 0 .405.135s0 .27-.135.405h-.27c-.675.135-1.216.406-1.486.406-.81.27-1.486.54-1.891.81-.135 0-.135.135-.135.135-.27.135-.405 0-.405-.135v-.27s.135-.135.405-.27c.54-.27.81-.676.946-1.081 0-.405 0-.945-.271-1.621l-1.891-5.402c-.405-1.216-.675-2.026-.945-2.432-.135-.405-.405-.675-.81-.81-.271-.135-.676-.135-1.351-.135-.27 0-.405 0-.405-.27 0-.135 0-.27.27-.405h.135c.54.135 1.891-.27 3.647-.946z"/><path d="m213.547 91.737c.27 0 .675-.135 1.35-.27.541-.135.946-.27 1.216-.27l2.701-.811c.271 0 .406 0 .406.135s0 .27-.271.405c-.405.135-.81.406-.81.541-.135.135-.135.54-.135 1.08 0 .541.405 1.621.81 3.512.541 2.026 1.081 3.647 1.486 4.727.405 1.081.675 1.756.946 1.891.27.27.54.27 1.08.135.27-.135.405 0 .54.135 0 .271 0 .406-.405.541-.135 0-.27 0-.405.135-1.216.27-1.891.405-2.296.54-.946.27-1.621.54-2.026.675-.27.135-.405.135-.54.135-.271 0-.406 0-.406-.135s0-.27.271-.405c.54-.27.81-.405.945-.81.135-.27 0-.946-.135-1.756-.27-.946-.54-2.296-1.081-4.187-.54-2.026-.945-3.377-1.215-3.917-.27-.675-.54-1.081-.676-1.216-.135-.135-.54-.135-.945 0-.27 0-.405 0-.405-.135-.27-.405-.135-.54 0-.675z"/><path d="m230.565 101.327c-.27 0-1.35.27-3.241.675l-2.026.405-1.216.27c-.27 0-.405.135-.54 0-.135 0-.135-.135-.135-.27s0-.27.27-.405c.54-.135.81-.27 1.08-.54.135-.27.271-.541.271-1.081s-.271-1.486-.541-2.971c-.27-1.486-.54-2.837-.81-4.052-.405-1.756-.675-2.837-.946-3.107-.27-.405-.675-.54-1.35-.405-.27 0-.406 0-.406-.27 0-.135 0-.27.271-.27.135 0 .54-.135 1.215-.135.811-.136 1.216-.136 1.621-.271l3.377-.81c1.215-.27 2.296-.27 3.511 0 1.216.27 2.162.81 3.107 1.756.946.945 1.486 2.026 1.756 3.377.27.945.27 2.026.135 2.971-.135.946-.54 1.756-1.081 2.566-.54.811-1.215 1.351-1.755 1.621-.811.54-1.621.811-2.567.946zm-.81-.541c1.215-.27 2.161-.945 2.701-2.161.54-1.08.54-2.566.135-4.322s-1.215-3.242-2.296-4.187c-1.08-.945-2.296-1.351-3.782-.945-.54.135-.81.27-.945.27-.135.135-.135.135-.135.27s.135.81.405 2.161l.675 3.377c.135.81.405 1.891.676 3.106.27.946.405 1.486.54 1.891.135.27.405.54.675.675.405 0 .811 0 1.351-.135z"/><path d="m243.937 98.76c-.27 0-1.351.135-3.377.406l-2.026.27-1.215.135h-.541c-.135 0-.135-.135-.135-.27s.135-.271.406-.406c.54-.135.81-.27 1.08-.405.27-.27.27-.54.27-1.08 0-.541-.135-1.486-.27-2.972s-.405-2.836-.54-4.052c-.27-1.756-.54-2.836-.811-3.241-.27-.406-.675-.541-1.215-.406-.27 0-.405 0-.405-.27 0-.135 0-.27.27-.27.135 0 .54 0 1.215-.135.811 0 1.351-.135 1.621-.135l3.512-.675c1.215-.135 2.296-.135 3.512.135 1.215.27 2.161.945 2.971 1.891.811.945 1.351 2.161 1.486 3.511.135 1.081.135 2.026-.135 2.972-.27.945-.676 1.756-1.216 2.431-.675.675-1.215 1.216-1.891 1.486-.81.675-1.621.945-2.566 1.08zm-.675-.54c1.35-.27 2.296-.81 2.836-1.891.54-1.08.81-2.566.405-4.322-.27-1.891-.945-3.242-1.891-4.322-.945-1.081-2.296-1.486-3.782-1.216-.54.135-.81.135-.945.27s-.135.135-.135.27c0 .136 0 .811.27 2.297l.405 3.376c.135.811.27 1.891.405 3.107.135.945.271 1.486.406 1.891.135.27.27.54.675.675.27-.135.81-.135 1.351-.135z"/><path d="m261.091 96.599c-1.621.135-3.917.27-7.294.676-1.081.135-2.026.27-2.837.405h-.405c-.27 0-.405 0-.405-.27 0-.135 0-.135.135-.135 0 0 .27-.135.405-.135.406-.136.676-.271.811-.406.135-.27.27-.54.405-.81 0-.405 0-1.351-.135-2.836-.135-1.486-.27-3.242-.54-5.268-.135-.811-.271-1.351-.406-1.756s-.405-.675-.54-.81c-.27-.135-.54-.271-.945-.135-.27 0-.406-.136-.406-.271s.136-.27.406-.405l3.106-.27c.54 0 1.081-.135 2.026-.27.27 0 .541-.135.676-.135.27 0 .405 0 .405.27 0 .135 0 .135-.135.27-.135 0-.27.135-.676.27-.405.135-.675.27-.81.405-.135.136-.27.541-.27.946s0 1.351.27 2.836l.675 6.078c.135.946.27 1.486.406 1.621.135.135.405.27.81.135 1.08-.135 1.756-.27 2.296-.54s.946-.54 1.351-1.081c.405-.54.81-1.35 1.215-2.431.135-.27.135-.405.27-.405.136 0 .271.135.271.27.135.27.135 1.756-.135 4.187z"/><path d="m271.761 82.552c.27 1.081.54 2.026.81 3.107 0 .135-.135.27-.27.27s-.27-.135-.405-.27c-.675-.946-1.351-1.621-1.891-1.891s-1.351-.405-2.296-.405c-.54 0-1.081.135-1.621.27v3.917c0 .27 0 .675.135 1.215h.675c.406 0 .811-.135 1.081-.27s.54-.405.81-.81c.135-.405.271-.676.406-.811 0-.27.135-.27.27-.27s.27 0 .27.27v.135c0 .406 0 1.621.135 3.782 0 .27 0 .541.135.811v.135c0 .135-.135.27-.27.27s-.27-.135-.405-.54c-.135-.676-.406-1.081-.946-1.351-.405-.27-1.215-.405-2.161-.405 0 1.08 0 1.891.135 2.161.135 1.486.135 2.431.27 2.701 0 .27.27.541.541.676.27.135.81.27 1.35.135 2.431-.135 3.917-1.081 4.593-2.702.135-.27.27-.405.27-.405.135 0 .27 0 .27.27v.405l-.405 2.972-3.512.135c-.946 0-1.891 0-2.701.135h-1.891c-.541 0-1.351.135-2.297.27h-.27c-.27 0-.405-.135-.405-.27s.135-.27.405-.27c.541 0 .946-.27 1.216-.54.135-.406.27-1.081.27-2.161l-.27-5.133c-.135-1.756-.135-2.836-.27-3.242 0-.405-.135-.675-.405-.81-.136-.135-.541-.27-.946-.27-.135 0-.27-.135-.27-.27s.135-.27.27-.27h2.296z"/><path d="m281.486 82.822c.135-.135.135-.27.27-.405.135-.27.135-.27.27-.27s.27.135.27.405l.27 2.702v.27c0 .135-.135.27-.27.27s-.27 0-.27-.135c0 0-.135-.27-.27-.676-.27-.54-.675-1.08-1.351-1.62-.675-.541-1.215-.676-1.891-.676-.54 0-1.08.135-1.485.541-.406.405-.541.81-.541 1.35 0 .405.135.811.541 1.216.405.405 1.08.675 2.161 1.08 1.62.541 2.836 1.081 3.376 1.891.541.811.946 1.621.946 2.567 0 .945-.27 1.756-.676 2.296-.405.675-.945 1.08-1.485 1.486-.541.405-1.351.54-2.296.54-.541 0-1.081-.135-1.621-.27-.541-.135-1.216-.406-1.756-.811-.135.135-.27.405-.27.541-.135.27-.27.405-.405.405-.136 0-.271-.135-.271-.541l-.27-3.646v-.271c0-.135.135-.27.27-.27s.271.135.406.541c.405.945.945 1.891 1.485 2.566.676.675 1.351.945 2.296.945.676 0 1.351-.27 1.756-.675.406-.405.676-.945.676-1.621 0-.54-.27-1.08-.676-1.486-.405-.405-1.215-.81-2.296-1.215-1.08-.405-1.891-.675-2.296-1.081-.54-.27-.945-.81-1.216-1.35-.27-.541-.405-1.216-.405-1.756 0-1.081.405-1.891 1.081-2.702.81-.675 1.756-1.08 3.106-1.08.811.27 1.621.54 2.837.945z"/><path d="m291.481 88.765c1.215.406 2.296.811 2.836 1.486.675.675.946 1.351.946 2.296 0 .811-.271 1.486-.811 2.026-.54.541-1.08.946-1.756 1.216-.675.135-1.62.27-2.971.27-.27 0-.811 0-1.486-.135-.54 0-.945-.135-1.351-.135h-2.431c-.27 0-.405-.135-.405-.27s.135-.27.27-.27c.405 0 .675-.135.811-.135.135-.136.27-.271.405-.406.135-.27.135-.54.27-1.08l.27-4.728c0-1.485.135-2.566.135-3.511 0-.946 0-1.486-.135-1.756 0-.27-.135-.405-.27-.54-.135-.136-.405-.136-.675-.271-.271 0-.406 0-.541-.135 0 0-.135-.135-.135-.27s.135-.27.27-.27h6.213c1.081 0 2.026.405 2.702.946.675.54.945 1.35.945 2.161.27 1.755-.945 2.836-3.106 3.511zm-2.567-.27c2.162.135 3.242-.945 3.377-2.836 0-.811-.135-1.486-.54-2.026-.405-.405-.811-.676-1.351-.676-.405 0-.81 0-1.35.271-.136.675-.136 1.35-.136 2.161zm0 .676c-.135 1.35-.135 2.566-.135 3.511v2.161c.135.135.406.271.946.271.945 0 1.621-.271 2.026-.676.405-.54.675-1.215.81-2.161 0-.945-.135-1.621-.675-2.296-.405-.54-1.081-.946-2.026-.946-.405.136-.675.136-.946.136z"/><path d="m303.637 90.116c.81.27 1.486.54 2.026 1.081.54.405.81 1.35.945 2.566.135 1.215.27 2.026.541 2.431.27.405.675.675 1.215.675.27 0 .405.135.405.406 0 .135-.27.27-.675.27l-3.512-.405c-.27-.406-.54-1.216-.54-2.162 0-1.35-.135-2.296-.27-2.836s-.405-.945-.675-1.216c-.406-.27-.811-.405-1.216-.54h-.54c-.27 2.296-.406 3.782-.406 4.322 0 .541 0 .946.136 1.216.135.27.54.405 1.08.54.27 0 .405.135.405.405 0 .135-.135.271-.405.271l-2.836-.406c-.406 0-.946-.135-1.486-.135h-1.081c-.27 0-.405-.135-.405-.27s.135-.27.405-.27c.406 0 .676 0 .946-.135s.54-.946.675-2.296l.135-1.891.405-3.647c.136-1.891.271-2.971.136-3.377-.136-.405-.541-.675-1.216-.81-.27 0-.405-.135-.405-.27s.27-.27.54-.27c1.756.135 3.242.27 4.457.405.54 0 1.081 0 1.486.135 1.351.135 2.431.54 3.242 1.216.675.675 1.08 1.485.945 2.431-.135.675-.27 1.215-.81 1.756-.406.54-.946.81-1.486.945-.811-.135-1.486-.135-2.161-.135zm-2.566-.675h.405c.54 0 1.08 0 1.621-.135.54-.135.945-.406 1.215-.946.27-.405.405-.945.54-1.486.135-.81-.135-1.485-.54-2.026-.405-.54-.945-.81-1.756-.945-.27 0-.675 0-1.08.135z"/><path d="m316.873 85.119c1.216.135 2.297.675 3.107 1.35.81.676 1.486 1.621 1.891 2.702.405 1.08.54 2.296.27 3.511-.27 1.891-1.216 3.377-2.701 4.593-1.486 1.215-3.242 1.755-5.133 1.35-1.756-.27-3.106-1.08-4.187-2.431-1.08-1.351-1.351-3.106-1.08-5.133.27-1.89 1.215-3.376 2.701-4.592 1.621-1.215 3.241-1.756 5.132-1.35zm2.162 7.158c.27-2.026.27-3.512-.271-4.727-.54-1.081-1.215-1.756-2.161-1.891-.945-.135-1.891.27-2.701 1.215-.81.946-1.351 2.432-1.621 4.323s-.27 3.511.135 4.592c.405 1.215 1.216 1.756 2.161 2.026.946.135 1.756-.27 2.567-1.081.945-.81 1.62-2.296 1.891-4.457z"/><path d="m324.032 86.334 2.972.675c.27 0 .54.136.945.136.54.135 1.081.135 1.351.27.27 0 .405.135.405.405 0 .135-.135.27-.405.27-.406 0-.811 0-1.081.27s-.54.811-.81 1.891c-.27.946-.541 2.026-.811 3.107-.405 1.891-.54 3.106-.54 3.782 0 .675.27 1.215.675 1.755.406.541 1.081.811 2.026 1.081.946.135 1.621.135 2.161-.135.541-.27.946-.946 1.351-1.756s.811-2.431 1.351-4.862c.27-1.486.405-2.432.27-2.972s-.405-.945-.81-1.08c-.406-.136-.541-.271-.406-.406 0-.135.27-.27.541-.135.135 0 .405.135.675.27s.675.135 1.08.271c.406.135.676.135 1.216.135.27 0 .54.135.675.135.271 0 .406.135.406.405 0 .135-.135.27-.406.135-.27 0-.675 0-.945.27s-.54.675-.81 1.216c-.136.675-.541 2.161-1.081 4.862-.405 1.756-.81 2.972-1.216 3.647-.54.675-1.215 1.216-2.026 1.486-.81.27-1.891.27-3.106 0-.946-.135-1.621-.406-2.296-.811-.676-.27-1.081-.675-1.486-1.08-.27-.405-.54-.946-.54-1.486-.135-.54 0-1.216.135-2.161l1.215-5.268c.135-.675.27-1.35.27-1.891 0-.54 0-.81-.135-.945s-.405-.405-.675-.405c-.27-.135-.27-.135-.405-.135v-.271c-.135-.675 0-.81.27-.675z"/><path d="m349.425 93.763-.541 2.836c0 .135 0 .27-.135.27 0 .135-.135.271-.27.271s-.27-.136-.27-.406c-.135-1.215-.54-2.161-1.08-3.106-.541-.811-1.351-1.486-2.297-1.756-1.215-.405-2.431-.135-3.511.81-1.081.946-1.756 2.161-2.296 3.782-.541 1.756-.541 3.242 0 4.592.54 1.351 1.215 2.162 2.296 2.432.405.135.945.135 1.485 0 .541-.135.946-.27 1.081-.405.27-.271.405-.541.54-1.081.27-1.081.405-1.756.405-2.026s-.135-.54-.27-.675-.54-.406-1.08-.541c-.27-.135-.27-.27-.27-.405s.135-.27.405-.135l1.35.405 4.188 1.081c.135 0 .27.135.27.27s-.135.135-.135.135h-.811c-.405 0-.54 0-.675.135s-.54 1.081-1.081 2.837c-.135.405-.27.675-.27.675s-.405.135-1.215.405c-.811.135-1.621.27-2.432.27-.81 0-1.485-.135-2.296-.405-1.215-.405-2.296-.945-3.106-1.756-.811-.81-1.351-1.756-1.756-2.836-.27-1.081-.27-2.296.135-3.647.54-1.891 1.621-3.242 3.106-4.322 1.621-.946 3.377-1.216 5.538-.676.676.27 1.351.541 1.891.811.54.405 1.081.81 1.756 1.35.135.136.27.136.405.271.135 0 .27 0 .405-.135.136-.271.271-.271.406-.271.135.271.135.541.135.946z"/><path d="m358.879 102.407 1.081-2.836c.27-.811.405-1.351.405-1.756s-.27-.675-.81-.946c-.405-.135-.54-.27-.54-.54.135-.135.27-.27.405-.135.27.135.675.27 1.215.54.676.27 1.081.406 1.216.541.945.405 1.891.675 2.701.81.135 0 .27.135.27.135.271.135.271.27.271.405-.136.135-.271.27-.541.135-.405-.135-.675-.135-.945-.135s-.405.135-.54.405c-.136.271-.541 1.081-1.081 2.432-.54 1.35-.945 2.431-1.081 2.971-.81 2.161-1.35 3.647-1.485 4.052-.135.54-.135.946 0 1.216s.405.54.81.675c.27.135.405.27.27.405 0 .135-.135.27-.405.135-.135 0-.27-.135-.405-.135l-2.431-.945c-.135 0-.406-.135-.811-.27-.81-.27-1.35-.405-1.621-.541-.27-.135-.27-.27-.27-.405s.135-.27.405-.135c.406.135.811.135.946.135.27-.135.54-.405.81-.945s.811-1.621 1.351-3.377c0-.135.135-.405.27-.81-1.08-.405-1.891-.811-2.701-1.081-.946-.27-1.621-.54-2.161-.675-.541 1.215-.946 2.431-1.351 3.377-.27.675-.405 1.215-.27 1.62 0 .406.27.541.81.811.27.135.27.27.27.405s-.27.27-.405.135c-.135 0-.27-.135-.405-.135-.675-.27-1.351-.675-2.161-.946-.405-.135-.81-.27-1.486-.405-.405-.135-.675-.27-.81-.27-.27-.135-.405-.27-.405-.405s.27-.135.405-.135c.405.135.81.135 1.08 0 .271-.135.406-.405.676-.811.27-.405.81-1.62 1.485-3.646.811-2.026 1.216-3.242 1.216-3.377.405-.946.54-1.621.675-2.026s.135-.81 0-.946c-.135-.135-.27-.405-.54-.54s-.405-.27-.405-.27v-.27c.135-.135.27-.27.405-.135.27.135.675.27 1.216.54.27.135.675.27 1.08.405l2.567.811c.27.135.405.27.27.405s-.27.27-.406.135c-.405-.135-.675-.135-.81-.135s-.405.27-.54.54-.405.811-.676 1.621l-.945 2.701c.675.406 1.486.676 2.296.946.946.27 1.756.54 2.566.675z"/><path d="m263.252 317.705v8.374c0 1.216.135 1.891.27 2.296s.54.54 1.08.675c.406.136.676.136.676.271.135 0 .135.135.135.27s-.135.27-.405.27h-.271c-1.215-.27-2.161-.54-2.701-.675-.675-.136-1.486-.271-2.701-.406-.406 0-.676-.135-.811-.135-.27 0-.405-.135-.405-.405 0-.135 0-.135.135-.27h.675c.541 0 .811 0 1.081-.135s.405-.27.405-.54c0-.135.135-.676.135-1.351v-4.998c0-.81 0-1.485-.135-1.755-.135-.406-.27-.676-.54-.811s-.54-.405-1.081-.54c-.405-.135-.675-.27-.675-.27-.135 0-.135-.135-.135-.27s0-.271.135-.271h.675c1.486.136 2.702.136 3.917-.135h.27c.136.135.271.271.271.811z"/><path d="m276.353 324.458c.811.405 1.486.946 2.026 1.486.405.54.676 1.216.676 1.891 0 1.08-.541 1.891-1.486 2.431-.946.675-2.161.946-3.647.811-1.351-.136-2.431-.541-3.242-1.081-.81-.675-1.35-1.351-1.35-2.026 0-.54.27-.946.675-1.486s1.081-.945 2.026-1.215c-.81-.406-1.351-.811-1.756-1.351s-.54-1.081-.54-1.621c0-1.08.405-1.891 1.351-2.431.945-.54 2.026-.811 3.376-.675 1.216.135 2.296.405 2.972.945.81.54 1.08 1.216 1.08 1.891 0 .405-.135.945-.54 1.216-.27.27-.81.675-1.621 1.215zm-.945-.54c.405-.27.675-.54.945-.81.27-.406.405-.811.405-1.216s-.27-.946-.675-1.351c-.405-.54-1.08-.81-1.891-.81-.81 0-1.351.135-1.756.405-.405.405-.675.81-.675 1.216 0 .27.135.675.405.945.27.405 1.081.811 2.161 1.216.676.27.946.405 1.081.405zm-2.567 1.621c-.54.27-.945.675-1.215 1.08s-.405.811-.405 1.351c0 .675.27 1.216.81 1.621s1.216.675 1.891.81c.945.135 1.486-.135 2.026-.54.405-.405.675-.811.675-1.486 0-.405-.135-.81-.54-1.215-.27-.271-1.351-.811-3.242-1.621z"/><path d="m290.4 320.541-4.187.541c-1.08.135-1.756.27-2.161.405-.27.135-.675.54-1.081.945-.27.405-.54.676-.675.676-.27 0-.27 0-.27-.271 0-.27.135-.945.405-2.026.27-1.08.54-1.891.676-2.026.135-.27.27-.405.405-.405s.27 0 .405.27c.135.135.27.27.405.27s.811 0 1.756-.135c.946-.135 1.486-.135 1.621-.27l4.727-.675c-.135.27-.27.675-.54 1.215-1.081 1.891-1.756 3.377-2.026 4.593-.405 1.215-.54 2.566-.675 4.052 0 .945-.135 1.756-.406 2.161-.27.405-.675.675-1.35.81-.405 0-.811 0-1.081-.27s-.405-.54-.405-.945c0-.406.135-.946.405-1.621s.811-1.756 1.621-3.107l2.431-4.187z"/><path d="m297.964 321.892c.405-.405.945-.675 1.351-.81.54-.271.945-.406 1.485-.541 1.216-.27 2.297-.135 3.242.405.945.541 1.351 1.351 1.351 2.432 0 1.215-.541 2.296-1.486 3.241-.946.946-2.296 1.621-3.782 1.891-1.756.405-3.106.135-4.052-.675-.945-.811-1.486-2.026-1.486-3.512 0-1.891.676-3.782 2.026-5.403 1.351-1.62 3.107-2.701 5.268-3.106 1.216-.27 2.161-.27 2.701 0 .676.27.946.675.946 1.351 0 .405-.135.81-.541 1.08-.27.405-.675.54-1.08.675s-.81 0-1.081-.135c-.27-.27-.405-.54-.405-.945v-.675c0-.406-.27-.676-.945-.541-.811.135-1.621.676-2.296 1.621-.541.81-.946 2.026-1.216 3.647zm4.322 2.296c0-1.08-.135-1.756-.54-2.296-.405-.405-.946-.54-1.621-.405-.81.135-1.351.54-1.756 1.215-.405.676-.675 1.351-.675 2.296 0 1.081.27 1.756.675 2.297.405.54.946.675 1.621.54s1.216-.54 1.621-1.216c.405-.675.675-1.485.675-2.431z"/><path d="m177.754 300.686 1.215 2.026v.406s-.135 0-.27-.136c-.54-.405-1.215-.675-1.756-.81-.54-.135-1.35 0-2.431.405-.675.27-1.08.541-1.08.676s.405 1.35 1.35 3.511c.541-.27.946-.405 1.216-.54s.405-.405.54-.675.135-.676 0-1.216c0-.135 0-.27.135-.27s.27 0 .27.135l.811 2.296c.27.811.405 1.216.405 1.351s0 .135-.135.135-.27 0-.27-.135c-.27-.405-.54-.675-.811-.811-.405-.135-.945 0-1.89.271l1.08 2.701c.27.54.405.81.54 1.081.135.135.27.27.541.27.135 0 .405 0 .81-.135.27-.135.405-.135.405-.135.135 0 .135 0 .135.135s0 .27-.27.405c-.135.135-.54.27-1.08.405-.541.135-.811.27-1.081.405l-2.161.946c-.27.135-.405.135-.405-.135 0-.135 0-.271.27-.406.54-.27.675-.54.675-.945-.135-.405-.675-2.026-1.621-4.592-.675-1.621-1.08-2.702-1.35-2.972s-.676-.27-1.081-.135l-.135.135c-.135.135-.27 0-.405-.135 0-.135 0-.27.27-.405z"/><path d="m182.616 297.715c.946-.54 1.756-.811 2.702-.811.945 0 1.756.271 2.566.676s1.351 1.08 1.891 1.891c.675 1.215.81 2.566.405 4.187-.405 1.486-1.351 2.566-2.701 3.376-1.216.676-2.567.946-3.917.541-1.351-.27-2.431-1.081-3.107-2.567-.675-1.35-.81-2.701-.405-4.052.27-1.35 1.081-2.431 2.566-3.241zm4.863 3.377c-.811-1.351-1.486-2.297-2.431-2.702-.811-.405-1.621-.405-2.297 0-.675.405-1.08 1.081-1.215 2.026-.135.946.27 2.026.945 3.377.676 1.351 1.486 2.161 2.296 2.701.811.405 1.621.54 2.432.135.675-.405 1.08-.945 1.215-1.891.135-1.08-.135-2.296-.945-3.646z"/><path d="m192.341 292.042c.946-.54 1.756-.81 2.566-.945.946 0 1.756.135 2.567.54.81.405 1.485 1.08 2.026 1.756.81 1.215.945 2.566.675 4.052-.27 1.485-1.216 2.701-2.431 3.511-1.216.811-2.566 1.081-3.917.811s-2.431-1.081-3.242-2.296c-.81-1.216-.945-2.567-.675-4.052.27-1.351 1.08-2.567 2.431-3.377zm4.998 2.971c-.811-1.35-1.621-2.161-2.567-2.566-.81-.405-1.62-.405-2.296 0-.675.405-1.08 1.081-1.08 2.026 0 .946.405 2.026 1.215 3.377.811 1.215 1.621 2.161 2.432 2.566.81.405 1.62.405 2.431 0 .675-.405.945-1.08 1.08-2.026 0-.81-.405-1.891-1.215-3.377z"/><path d="m197.339 288.8c2.296-1.35 3.917-2.431 4.997-3.106.811-.54 1.756-1.081 2.702-1.756.405-.27.675-.405.81-.54.135 0 .27-.135.405-.27.135.135.405.54.811 1.08l.81.946c.135.135.135.27 0 .405s-.27 0-.54-.135c-.406-.27-.811-.406-1.216-.541s-.81 0-1.216.135c-.405.136-.945.406-1.755.946.405.675.81 1.621 1.485 2.566.676 1.081 1.351 2.026 1.891 2.972.676.945 1.081 1.485 1.216 1.621.135.135.405.27.54.27s.54-.135 1.081-.406c.135-.135.27-.135.405 0 .135.136 0 .271-.135.271l-.135.135-1.351.81c-1.08.675-1.621 1.081-1.891 1.216l-.81.54s-.135.135-.405.27h-.271c-.135-.135 0-.27.135-.405.406-.27.676-.54.676-.811.135-.27 0-.675-.135-.945-.135-.405-.676-1.216-1.351-2.296-1.216-1.891-2.161-3.242-2.971-4.322-.676.405-1.216.81-1.486 1.08s-.54.676-.676 1.081c-.135.405-.135.945-.135 1.486 0 .27 0 .405-.135.405-.135.135-.27.135-.405 0 0 0-.135-.405-.405-.946-.135-.945-.405-1.35-.54-1.756z"/><path d="m214.762 283.668c1.081-.27 1.891-.405 2.567-.27.675.135 1.215.54 1.485 1.215.271.541.406 1.081.271 1.621-.136.54-.406 1.081-.811 1.486s-1.08.81-2.026 1.35c-.27.136-.54.271-1.08.541-.406.135-.676.405-.946.54s-.675.405-1.215.81c-.136.136-.406.271-.406.271-.135.135-.27.135-.405 0 0-.135 0-.135.135-.271.27-.135.405-.405.54-.54.136-.135.136-.27.136-.54 0-.135-.136-.405-.271-.811l-1.62-3.106c-.541-.946-.946-1.756-1.351-2.296s-.54-.946-.811-1.081c-.135-.135-.27-.27-.405-.27s-.27 0-.54.135c-.135.135-.27.135-.405.135 0 0-.135 0-.135-.135v-.27c.135-.135.405-.27.81-.54.946-.54 1.756-.946 2.431-1.486.406-.27.811-.54 1.081-.675.81-.405 1.621-.676 2.296-.541.675.136 1.216.406 1.486 1.081.945 1.216.54 2.296-.811 3.647zm-1.891.945c1.486-.81 1.891-1.891 1.216-3.241-.27-.541-.675-.946-1.08-1.081-.406-.135-.811-.135-1.216.135-.27.135-.54.405-.811.676.271.405.406.945.676 1.485.27.405.675 1.081 1.215 2.026zm.271.541c.54.945.945 1.755 1.215 2.431.405.81.811 1.35.946 1.35.135.135.405 0 .675-.135.675-.405 1.081-.81 1.216-1.35.135-.541 0-1.081-.271-1.756-.27-.54-.81-.946-1.35-1.216s-1.216-.135-1.891.27c0 .135-.27.27-.54.406z"/><path d="m220.3 275.294.54-.271c1.216 1.081 3.107 2.702 5.538 4.998 1.081 1.081 1.891 1.756 2.161 1.891s.676.27 1.216.135c.135 0 .27 0 .27.135s0 .27-.135.405c-.135 0-.405.135-.81.27-.541.135-.946.406-1.216.541s-.675.405-1.216.675c-.405.27-.675.405-.675.405-.27.135-.405.135-.405 0s0-.135.135-.27c.54-.27.675-.675.54-1.08-.135-.136-.27-.541-.675-.946s-.811-.81-1.216-1.08c-.27.135-.54.27-.675.27-.946.405-1.621.81-2.161 1.08.135 1.351.27 2.161.405 2.431.135.271.27.406.54.406h.811c.135 0 .27 0 .405.135 0 .135 0 .27-.135.27s-.27.135-.54.27c-.406.135-.676.27-.946.405-.405.135-.675.405-1.081.54-.135 0-.135.135-.135.135-.135.136-.27 0-.405-.135 0-.135 0-.135.135-.27.27-.27.405-.405.541-.54.135-.135.135-.54.135-.945 0-.406 0-1.081-.135-1.891-.406-2.026-.676-4.728-.811-7.969zm.675 2.701.271 3.647 2.431-1.216c-.27-.27-.675-.675-1.351-1.215-.54-.541-1.08-.946-1.351-1.216z"/><path d="m238.939 279.346c-1.215.27-3.106.945-5.672 1.756-.946.27-1.621.54-2.161.81-.136 0-.271.135-.271.135-.135 0-.27 0-.405-.135v-.135s.135-.135.27-.27c.27-.135.541-.27.676-.541.135-.135.135-.405.135-.675s-.135-.945-.541-2.026c-.405-1.08-.81-2.431-1.215-3.917-.135-.54-.405-1.08-.54-1.215-.135-.271-.406-.406-.541-.406-.135-.135-.405-.135-.81 0-.27 0-.405 0-.405-.135s0-.27.27-.27l2.431-.675c.405-.135.946-.27 1.621-.54.27-.136.405-.136.54-.136.27 0 .27 0 .405.136v.135s-.27.135-.405.27c-.27.135-.54.27-.675.54-.135.135-.135.405 0 .675 0 .27.27.946.54 2.026l1.486 4.458c.27.675.405 1.08.54 1.215s.405.135.675 0c.811-.27 1.351-.54 1.756-.81.406-.27.676-.54.946-1.081.27-.405.405-1.08.54-2.026 0-.135.135-.27.135-.27.135 0 .27 0 .27.135 0 0 .135 1.081.405 2.972z"/><path d="m248.394 277.455c-1.215.135-3.241.54-5.943 1.08-.945.135-1.621.405-2.296.541-.135 0-.27 0-.27.135-.135 0-.27 0-.27-.135v-.136s.135-.135.405-.135c.27-.135.54-.27.675-.405s.27-.405.27-.675-.135-.946-.27-2.161c-.27-1.081-.405-2.431-.81-4.052-.135-.676-.27-1.081-.405-1.351s-.27-.405-.541-.54c-.135-.135-.405-.135-.81-.135-.27 0-.405 0-.405-.135s.135-.27.27-.27l2.566-.406c.405-.135.946-.135 1.621-.405.27 0 .405-.135.54-.135.27 0 .27 0 .406.135 0 .135 0 .135-.136.135 0 0-.27.135-.54.27s-.54.27-.675.406c-.135.135-.135.405-.135.675s.135 1.08.405 2.161l.945 4.592c.136.676.271 1.081.406 1.216s.405.135.675 0c.81-.135 1.486-.405 1.756-.54.405-.271.675-.541.945-.946.271-.405.541-1.08.811-1.891 0-.135.135-.27.27-.27s.27 0 .27.135c.27.27.27 1.351.27 3.242z"/><path d="m344.157 278.94c.135-.135.27-.135.54-.27s.406-.135.406-.135c.135 0 .135.135.135.135s0 .27-.135.406l-.946 2.161-.135.27c-.135.135-.27.27-.405.135-.135 0-.135-.135-.135-.405 0-.541 0-1.351-.27-2.161-.135-.811-.676-1.486-1.351-1.756-.54-.271-1.081-.271-1.621-.135-.54.135-1.08.405-1.486.945-.54.405-.945 1.081-1.35 1.891-.676 1.351-.811 2.566-.676 3.647.27 1.08.676 1.756 1.621 2.296.946.405 2.026.27 3.377-.405.135-.135.27-.135.405-.135.135.135.135.135.135.27-.135.27-.81.675-1.756.945-1.08.27-2.161.135-3.241-.27-1.486-.675-2.432-1.756-2.837-2.971-.405-1.351-.27-2.567.405-3.917.676-1.351 1.621-2.161 2.972-2.702 1.351-.54 2.566-.54 3.917.135.945.271 1.756.946 2.431 2.026z"/><path d="m349.155 292.717c-1.081-.675-2.837-1.756-5.133-3.106-.81-.405-1.486-.811-2.026-1.081-.135 0-.27-.135-.27-.135-.135-.135-.27-.27-.135-.405l.135-.135s.135 0 .405.135.54.135.81.135c.271 0 .406-.135.676-.405s.54-.811 1.215-1.756c.541-.946 1.216-2.161 2.026-3.512.271-.54.541-.945.541-1.215v-.676c-.135-.135-.27-.405-.541-.54-.135-.135-.27-.27-.135-.405s.27-.135.406 0l2.161 1.35c.405.136.81.406 1.485.811.271.135.406.135.406.27.135.135.27.27.135.405 0 .135-.135.135-.135.135-.135 0-.271 0-.541-.135s-.54-.135-.81-.135c-.135 0-.405.135-.54.405s-.541.811-1.081 1.756l-2.296 4.052c-.405.676-.54 1.081-.54 1.216s.27.405.54.54c.675.405 1.351.675 1.756.811.405.135.945.135 1.351 0 .54-.136 1.08-.406 1.89-.946.136-.135.271-.135.406-.135.135.135.135.135.135.27-.405.135-1.081.946-2.296 2.431z"/><path d="m354.827 284.343 2.026 1.351c.135.135.406.27.676.405.405.27.81.405.945.54.27.135.27.27.27.405-.135.136-.135.136-.405 0-.27-.135-.675-.27-.945-.135s-.676.406-1.081 1.081-.945 1.351-1.351 2.026c-.81 1.216-1.215 2.161-1.35 2.566-.135.541-.135.946.135 1.486s.675.945 1.351 1.351c.675.405 1.215.54 1.755.54.541-.135.946-.405 1.486-.946.54-.54 1.216-1.62 2.296-3.106.541-.946.946-1.621.946-2.161.135-.405 0-.811-.405-1.081-.271-.135-.271-.405-.271-.405.136-.135.271-.135.406 0 .135 0 .27.135.54.405.27.135.54.405.675.541.27.135.541.27.811.405s.405.27.54.27c.27.135.27.27.27.405s-.135.135-.405 0-.54-.135-.811 0c-.27.135-.54.27-.945.675-.27.406-.945 1.486-2.026 3.107-.675 1.081-1.351 1.891-1.891 2.296s-1.216.54-1.891.405-1.486-.405-2.296-.945c-.675-.405-1.216-.811-1.621-1.216s-.675-.81-.81-1.215c-.135-.406-.135-.811-.135-1.216.135-.405.27-.945.675-1.486l2.161-3.511c.27-.541.54-.946.675-1.216.135-.405.135-.54.135-.81 0-.136-.135-.406-.405-.541-.135-.135-.27-.135-.27-.27v-.135c.27 0 .405 0 .54.135z"/><path d="m367.524 297.985c.81.81 1.215 1.486 1.486 2.161.27.675.135 1.351-.271 1.891-.27.54-.81.81-1.35 1.081-.541.135-1.081.27-1.756 0-.54-.136-1.351-.541-2.161-1.081-.27-.135-.541-.405-1.081-.675-.405-.27-.675-.406-.945-.541s-.676-.405-1.216-.675c-.27-.135-.405-.135-.405-.27-.135-.135-.27-.27-.135-.405 0-.135.135-.135.27 0 .27.135.54.27.675.27s.27 0 .541-.135c.135-.135.405-.27.54-.541l1.891-2.971c.54-.945 1.08-1.756 1.35-2.296.271-.54.541-.946.541-1.216v-.54c0-.135-.135-.27-.405-.405-.136-.135-.271-.27-.271-.27v-.135c0-.135.135-.135.271-.135.135 0 .405.27.945.54.81.54 1.756 1.08 2.431 1.486.405.27.811.405 1.081.675.81.54 1.35 1.08 1.621 1.756.27.675.135 1.215-.135 1.891-.406.81-1.621 1.08-3.512.54zm-1.621-1.216c1.486.946 2.701.811 3.512-.54.405-.54.54-1.08.405-1.486-.135-.405-.27-.81-.675-.945-.271-.135-.541-.27-1.081-.405-.27.405-.675.81-.945 1.35-.271.27-.676 1.081-1.216 2.026zm-.405.541c-.676.945-1.081 1.62-1.486 2.296-.54.81-.81 1.35-.81 1.486 0 .135.135.405.54.54.675.405 1.215.54 1.756.405.54-.135.945-.54 1.35-1.081.406-.54.541-1.215.406-1.755-.135-.541-.406-1.081-1.081-1.486-.135-.135-.405-.27-.675-.405z"/></g><g clip-path="url(#t)"><path d="m392.646 286.234h6.618v12.021h-6.618z" fill="url(#g)"/></g><g clip-path="url(#u)"><path d="m160.735 286.234h6.618v12.021h-6.618z" fill="url(#h)"/></g><g clip-path="url(#v)"><path d="m395.618 301.497h7.429v12.426h-7.429z" fill="url(#i)"/></g><g clip-path="url(#w)"><path d="m403.317 305.144-18.775-10.806 9.725-17.153 18.91 10.805z" fill="url(#j)" fill-rule="nonzero" stroke="#000" stroke-miterlimit="4" stroke-width="1.35"/></g><path d="m408.584 295.013.541-1.08c.675-1.621 1.485-3.917-1.756-7.969-5.403-5.808-13.372-7.699-14.858-5.133-1.08 2.297 1.216 5.268 4.322 7.699 2.567 2.026 4.998 2.837 4.998 2.837l-7.159 8.779c2.026.405 3.647.405 4.998.54 6.078-.675 7.834-3.511 8.914-5.673z" fill="none" stroke="#000" stroke-miterlimit="4" stroke-width="1.35"/><g clip-path="url(#x)"><path d="m309.31 310.681-10.13-27.959 21.34-7.834 10.13 28.094z" fill="url(#k)" fill-rule="nonzero" stroke="#000" stroke-miterlimit="4" stroke-width="1.35"/></g><path d="m322.411 284.883s-1.891 1.216-.945 2.837l5.673 7.699s2.026 2.431.135 4.052c0 0-4.052 3.782-11.346 7.834l-16.478-24.448s.54-.945 5.402-.945c5.943 0 11.886 1.216 17.559 2.971z" fill="none" stroke="#000" stroke-miterlimit="4" stroke-width="1.35"/><path d="m322.411 284.883s-1.891 1.216-.945 2.837l5.673 7.699s2.026 2.431.135 4.052c0 0-4.052 3.782-11.346 7.834l-16.478-24.448s.54-.945 5.402-.945c5.943 0 11.886 1.216 17.559 2.971z" fill="none" stroke="#000" stroke-miterlimit="4" stroke-width="1.35"/><g clip-path="url(#y)"><path d="m310.39 282.722-10.67-1.891 2.701-15.803 10.806 1.891z" fill="url(#l)" fill-rule="nonzero"/></g><g clip-path="url(#z)"><path d="m249.61 282.722 10.805-1.891-2.836-15.803-10.806 1.891z" fill="url(#m)" fill-rule="nonzero"/></g><g clip-path="url(#A)"><path d="m319.845 302.982h8.914v18.234h-8.914z" fill="url(#n)"/></g><g clip-path="url(#B)"><path d="m231.241 302.982h8.914v18.234h-8.914z" fill="url(#o)"/></g><g clip-path="url(#C)"><path d="m156.683 301.497h7.429v12.426h-7.429z" fill="url(#p)"/></g></svg>