<svg clip-rule="evenodd" fill-rule="evenodd" stroke-linejoin="round" stroke-miterlimit="2" viewBox="0 0 560 400" xmlns="http://www.w3.org/2000/svg"><g transform="matrix(.251518 0 0 .251518 131.531 50.3061)"><circle cx="590.293" cy="595.162" fill="#fff" r="596.379"/><circle cx="590.293" cy="595.162" r="576.905"/><g fill="#fff"><path d="m155.789 478.32c-1.217-1.217-2.434-2.434-3.652-2.434-3.651-1.217-6.085 1.217-7.302 4.868l-1.217 2.434-2.434 10.954-25.56-7.302 3.652-15.823h1.217c3.651 1.218 6.085 1.218 8.52 0 1.217 0 1.217-1.217 2.434-3.651v-3.651c-1.217-1.217-2.434-2.434-4.869-2.434l-17.039-3.652c-1.217 0-6.086-1.217-7.303 3.652v3.651c1.217 1.217 3.652 2.434 7.303 3.651h1.217l-3.651 15.823-21.908-4.869 8.52-34.079 8.519 2.435h2.435c2.434 1.217 4.868 0 6.085 0 1.217-1.218 2.434-2.435 2.434-3.652v-4.868c-2.434-1.217-3.651-1.217-4.868-2.434l-17.04-3.652c-3.651-1.217-7.302 0-7.302 3.652l-14.605 58.42v4.869c1.217 1.217 2.434 2.434 3.651 2.434h4.868c1.217-1.217 2.435-2.434 2.435-4.868l1.217-2.435 1.217-3.651 57.203 14.605-1.217 3.652v2.434c-1.217 2.434 0 4.868 0 6.085 1.217 1.217 2.435 2.435 3.652 2.435h4.868c1.217-1.218 2.434-2.435 2.434-3.652l8.52-32.861c-1.217-3.652-1.217-4.869-2.434-6.086z" fill-rule="nonzero"/><path d="m193.519 373.65c-1.217-6.086-1.217-9.737-4.869-10.954-1.217-1.217-3.651-1.217-4.868 0-1.217 0-2.434 1.217-3.651 3.651-1.217 1.217 0 3.651 0 6.085 0 1.218 0 3.652 1.217 4.869 0 6.085-1.217 10.954-2.434 15.822-7.303 13.388-21.908 18.257-38.948 9.737-9.736-4.869-17.039-10.954-19.473-18.257-2.434-6.085-1.217-12.171 1.217-18.256 3.651-7.303 10.954-12.171 17.039-9.737 1.217 0 2.435 0 3.652 1.217 3.651 1.217 7.302 2.434 9.736-3.651 1.218-2.434 1.218-3.651 1.218-4.868 0-1.218-2.435-2.435-3.652-3.652h-1.217c-2.434-1.217-7.302-2.434-13.388-6.085-2.434-1.217-3.651-2.434-6.085-1.217-2.435 0-3.652 2.434-3.652 3.651-1.217 2.434-1.217 4.868 0 6.085-4.868 4.869-8.519 9.737-12.171 14.606-4.868 9.736-4.868 19.473-2.434 29.21 3.651 10.954 12.171 19.474 23.125 25.559 10.954 6.086 23.125 6.086 34.079 2.434 9.737-3.651 17.039-9.737 21.908-19.473 3.651-9.737 4.868-17.04 3.651-26.776z" fill-rule="nonzero"/><path d="m326.183 223.946c-1.217-1.217-2.435-2.434-4.869-2.434-1.217 0-2.434 1.217-4.868 2.434l-1.217 1.217-40.165-43.815c2.435-2.434 3.652-3.651 3.652-4.869 0-1.217 0-2.434-1.217-3.651s-2.435-2.434-3.652-2.434-2.434 0-3.651 1.217l-8.52 7.303c-3.651 2.434-4.868 6.085-2.434 9.736 0 0 12.171 29.211 15.822 38.948l-36.513-20.691c-3.651-2.434-6.085-1.217-9.736 1.217l-9.737 7.303c-1.217 1.217-2.434 2.434-2.434 3.651s0 2.434 1.217 3.651 2.434 2.434 3.651 2.434 3.651-1.217 6.086-2.434l37.73 46.25-1.217 1.217c-2.435 2.434-3.652 3.651-3.652 4.868 0 1.218 0 2.435 1.217 3.652s2.435 2.434 3.652 2.434 2.434 0 3.651-1.217l14.605-12.171c2.434-2.434 3.651-3.651 3.651-4.869 0-1.217 0-2.434-1.217-3.651-3.651-3.651-7.302-1.217-9.736 1.217-1.218 1.217-2.435 1.217-2.435 2.434l-32.861-40.164 30.427 18.257c3.651 2.434 6.086 2.434 9.737-1.217 3.651-2.435 3.651-4.869 2.434-9.737 0 0-8.52-21.908-13.388-32.862l34.079 37.73c-2.434 2.434-4.869 4.869-4.869 6.086s0 2.434 1.218 3.651c1.217 1.217 2.434 2.434 3.651 2.434 2.434 0 3.651-1.217 6.085-2.434l14.606-12.171c1.217-1.217 2.434-2.434 2.434-3.651 0-2.435 0-3.652-1.217-4.869z" fill-rule="nonzero"/><path d="m396.774 183.782c-2.434-4.868-6.085-3.651-10.953 0l-12.171 7.303-27.994-51.119 12.171-7.302c3.652-2.434 4.869-3.651 6.086-4.869 0-1.217 0-2.434-1.217-4.868-2.435-3.651-4.869-3.651-8.52-2.434l-2.434 1.217-35.296 19.474c-3.651 1.217-4.869 3.651-6.086 4.868 0 1.217 0 2.434 1.217 4.868 1.218 1.217 2.435 2.435 3.652 2.435 2.434 0 3.651 0 7.302-2.435l12.171-7.302 27.994 51.118-12.171 7.302c-3.652 1.218-4.869 3.652-6.086 4.869 0 1.217 0 2.434 1.217 3.651s2.434 2.434 3.652 2.434c1.217 0 2.434 0 4.868-1.217l2.434-1.217 35.296-19.473c3.651-1.217 4.868-3.652 6.085-4.869 0 1.217-1.217-1.217-1.217-2.434z" fill-rule="nonzero"/><path d="m479.537 116.842c-3.651-12.171-9.737-20.691-18.256-25.56-8.52-4.868-18.257-6.085-29.211-2.434l-25.559 8.52c-3.651 1.217-6.085 2.434-7.302 3.651-1.218 1.217-1.218 2.434 0 4.869 0 1.217 1.217 2.434 2.434 3.651s3.651 1.217 6.085 0h1.217l17.04 55.987h-1.217c-2.435 1.217-4.869 2.434-4.869 3.651s-1.217 2.434 0 4.868c0 1.217 1.217 2.434 2.434 3.652 1.218 1.217 2.435 1.217 4.869 0l2.434-1.218 9.737-3.651c1.217 0 3.651-1.217 4.868-1.217s2.434-1.217 3.652-1.217c14.605-4.868 23.124-9.737 26.776-19.474 8.519-9.736 8.519-21.907 4.868-34.078zm-12.171 27.993c-3.651 6.085-9.737 10.954-20.691 14.605-2.434 1.217-4.868 1.217-7.302 2.434l-17.04-55.986c2.435-1.217 4.869-1.217 6.086-2.435 10.954-3.651 19.474-3.651 25.559 0 6.086 3.652 9.737 9.737 13.388 19.474 2.434 8.52 2.434 15.822 0 21.908z" fill-rule="nonzero"/><path d="m578.122 94.934v-2.434l-2.434-21.908c0-3.652-2.434-4.869-6.085-4.869l-58.421 6.086c-3.652 0-6.086 2.434-6.086 6.085l1.217 21.908v3.651c0 2.435 1.217 3.652 2.435 4.869 1.217 1.217 2.434 1.217 4.868 1.217 6.085 0 6.085-3.651 4.868-9.737l-1.217-17.039 17.04-1.217 6.085 58.42-9.737 1.218h-2.434c-2.434 0-4.868 1.217-4.868 2.434-1.217 1.217-1.217 2.434-1.217 4.868s1.217 3.651 2.434 3.651c1.217 1.218 2.434 1.218 4.868 1.218l37.73-3.652c1.217 0 3.652-1.217 3.652-2.434 1.217-1.217 1.217-2.434 1.217-4.868 0-3.652-2.434-6.086-7.303-4.869h-2.434l-9.737 1.217-6.085-58.42 17.039-1.218 2.434 17.04c1.217 6.085 1.217 8.52 7.303 8.52 1.217 0 3.651-1.218 3.651-2.435 1.217-3.651 1.217-4.868 1.217-7.302z" fill-rule="nonzero"/><path d="m680.359 73.026c-1.218-1.217-2.435-1.217-3.652-2.434h-3.651l-37.73-3.652c-4.869 0-9.737-1.217-9.737 4.869 0 2.434 0 3.651 1.217 4.868s3.651 2.434 7.303 2.434l17.039 1.218-3.651 40.164c-1.217 7.302-2.434 12.171-4.869 15.822-2.434 3.651-7.302 4.869-13.388 3.651-7.302-1.217-13.388-4.868-14.605-12.171v-13.388c-1.217-2.434-2.434-3.651-4.868-3.651-1.217 0-3.652 0-4.869 2.434-1.217 1.217-1.217 3.652-1.217 6.086l-2.434 14.605c0 3.651 0 6.085 3.651 8.52 7.303 4.868 14.606 7.302 23.125 8.519 9.737 1.217 17.04 0 21.908-4.868s8.52-10.954 9.737-23.125l3.651-41.381 7.303 1.217c3.651 0 6.085 0 7.302-1.217 2.435-1.217 3.652-2.435 3.652-3.652 0-2.434 0-3.651-1.217-4.868z" fill-rule="nonzero"/><path d="m783.812 102.236c-1.217-2.434-3.651-2.434-7.303-3.651l-9.736-3.651h-1.217c-6.086-2.434-9.737-3.652-10.954 2.434v4.868c1.217 1.217 2.434 2.435 4.868 3.652h1.217l-21.908 20.69-6.085-29.21h8.52c1.217-1.217 1.217-2.434 2.434-3.651v-4.869c-1.217-1.217-3.652-2.434-6.086-3.651l-14.605-4.868c-2.434-1.218-4.868-1.218-6.085-1.218-2.435 0-3.652 1.218-3.652 3.652v4.868c1.217 1.217 2.434 2.434 6.086 3.651l9.737 42.599-6.086 20.691-8.52-2.435c-4.868-1.217-8.519-2.434-10.954 2.435v4.868c1.218 1.217 2.435 2.434 6.086 3.651l30.427 9.737c3.652 1.217 4.869 1.217 7.303 0 1.217 0 2.434-1.217 2.434-3.651v-4.869c-1.217-2.434-3.651-2.434-7.302-3.651l-8.52-2.434 6.085-19.474 34.079-29.21c3.651 1.217 4.869 1.217 7.303 0 1.217-1.217 2.434-1.217 2.434-3.651z" fill-rule="nonzero"/><path d="m856.838 189.868c0-1.218-1.217-2.435-2.434-3.652s-3.652-1.217-4.869 0-2.434 2.434-3.651 4.869l-8.52 14.605-29.21-17.04 29.21-51.118 8.52 4.869c2.434 1.217 6.086 2.434 7.303 2.434s2.434-1.217 3.651-2.434 1.217-3.652 1.217-4.869-1.217-2.434-3.651-3.651l-2.434-1.217-26.777-14.605c-3.651-2.435-7.302-4.869-10.954 1.217-1.217 1.217-1.217 3.651-1.217 4.868 0 2.434 2.435 3.651 6.086 4.869l6.085 3.651-30.427 49.901-6.086-3.651c-2.434-1.217-4.868-2.435-6.085-2.435-2.434 0-3.651 1.218-4.869 3.652-1.217 1.217-1.217 3.651-1.217 4.868s1.217 2.434 3.652 3.651l2.434 1.218 52.335 29.21c1.217 1.217 3.651 1.217 4.869 1.217 1.217 0 2.434-1.217 3.651-3.651l10.954-19.474c1.217-3.651 2.434-6.085 2.434-7.302z" fill-rule="nonzero"/><path d="m943.252 199.604-2.434-2.434-23.125-20.691c-2.434-1.217-3.651-3.651-4.868-3.651-2.435-1.217-3.652 1.217-4.869 2.434s-2.434 2.435-1.217 3.652c0 2.434 1.217 3.651 4.868 6.085l6.086 4.869-41.381 45.032-6.086-4.868c-3.651-3.652-7.303-6.086-10.954-1.217-1.217 1.217-2.434 2.434-1.217 4.868 0 1.217 1.217 2.434 2.434 3.651l2.434 2.435 45.033 38.947c2.434 1.217 3.651 1.217 4.869 1.217 1.217 0 2.434-1.217 3.651-2.434l14.605-17.04c2.434-2.434 3.651-4.868 3.651-7.302 0-1.217-1.217-2.435-2.434-3.652-3.651-3.651-7.302-1.217-10.954 2.435l-10.954 12.171-24.342-20.691 38.948-43.816 7.302 7.303c2.434 2.434 4.869 3.651 7.303 3.651 1.217 0 2.434-1.217 3.651-2.434s1.217-2.434 1.217-3.651c1.217-2.435 0-3.652-1.217-4.869z" fill-rule="nonzero"/><path d="m1016.28 278.716-10.96-15.823c-2.43-2.434-3.65-4.868-4.86-6.085-2.439-1.217-3.656-1.217-6.09 1.217-1.217 1.217-2.434 2.434-2.434 3.651 0 2.435 0 3.652 2.434 7.303l4.869 6.085-60.855 17.04v-1.217c-1.217-2.434-2.435-3.652-3.652-3.652s-2.434 0-4.868 1.218c-1.217 1.217-2.434 2.434-2.434 3.651 0 2.434 1.217 3.651 2.434 6.085l10.954 14.606c2.434 2.434 3.651 4.868 6.085 4.868 1.217 0 2.435 0 3.652-1.217s2.434-2.434 2.434-3.651c0-2.435-1.217-4.869-2.434-7.303l-2.435-3.651 14.606-4.869 19.473 26.776-7.302 13.389-2.435-3.652c-2.434-2.434-3.651-3.651-4.868-4.868s-3.651 0-4.868 1.217-2.435 2.434-2.435 3.651c0 2.434 1.218 4.869 3.652 7.303l10.954 14.605c1.217 2.434 3.651 3.651 4.868 3.651s2.434 0 4.868-1.217c1.217-1.217 2.435-2.434 2.435-3.651s0-3.651-2.435-6.086l36.517-59.637c-1.22-4.869-2.44-6.086-4.87-9.737zm-30.43 36.513-14.605-19.474 32.865-9.737z" fill-rule="nonzero"/><path d="m1085.65 404.077-8.52-17.039c-2.43-4.869-3.65-7.303-8.52-4.869-1.21 1.217-2.43 1.217-2.43 2.434-1.22 1.217 0 3.652 1.22 6.086l2.43 4.868 1.22 1.217-43.82 20.691 37.73-52.335c2.44-3.651 2.44-4.869 1.22-9.737l-2.43-6.085c-2.44-6.086-4.87-10.954-10.96-8.52-1.22 1.217-2.43 1.217-2.43 2.434-1.22 2.434 0 4.868 2.43 9.737l-53.551 24.342c-1.218-3.651-3.652-7.303-8.52-4.869-1.217 1.218-2.434 2.435-3.651 3.652v4.868l1.217 2.434 7.302 15.823c1.217 2.434 2.434 4.868 4.873 6.085h4.86c1.22-1.217 2.44-1.217 2.44-2.434 1.22-1.217 0-3.651-1.22-7.303l-3.65-7.302 46.25-20.691-38.95 55.987c-2.43 3.651-2.43 3.651-1.21 7.302v1.217c1.21 1.217 1.21 3.652 3.65 3.652h3.65l60.85-27.994c1.22 2.434 2.44 4.869 3.65 4.869h4.87c1.22-1.217 2.44-2.435 3.65-3.652-2.43-1.217-2.43-3.651-3.65-4.868z" fill-rule="nonzero"/><path d="m1106.34 471.017-3.65-14.605-2.43-10.954c-1.22-2.434-1.22-4.868-2.44-6.085-1.21-2.434-3.65-1.217-6.08-1.217-1.22 0-2.44 1.217-3.65 2.434-1.22 1.217-1.22 3.651 0 6.085v1.218l-57.21 14.605v-1.217c-1.21-4.869-2.43-7.303-7.3-6.086-1.22 0-3.65 1.217-3.65 2.434-1.22 1.217-1.22 2.435 0 4.869l1.22 2.434 2.43 10.954c0 1.217 1.22 3.651 1.22 4.868s0 2.434 1.22 4.869c3.65 14.605 8.51 23.125 17.03 27.993 9.74 6.085 20.7 7.303 32.87 3.651 12.17-2.434 21.9-9.737 27.99-18.256 3.65-7.303 4.87-17.04 2.43-27.994zm-14.6 21.908c-3.65 6.086-9.74 9.737-19.47 12.171-20.7 4.869-31.65-2.434-36.52-23.125 0-2.434-1.22-4.868-1.22-7.302l57.21-13.388c1.21 2.434 1.21 4.868 1.21 6.085 2.44 10.954 2.44 19.474-1.21 25.559z" fill-rule="nonzero"/><circle cx="590.293" cy="595.162" r="402.86"/></g><circle cx="590.293" cy="595.162" fill="#e00210" r="387.038"/><path d="m461.281 1023.58c0-1.22-1.217-1.22-2.435-1.22h-3.651l-20.691-1.21c-3.651 0-6.085 1.21-7.302 3.65v3.65c1.217 1.22 2.434 2.43 3.651 2.43h2.434l12.171 1.22-19.473 60.85-9.737-3.65c-2.434-1.21-4.868-1.21-7.303-1.21-2.434 0-3.651 1.21-4.868 3.65v4.87c1.217 1.21 2.434 2.43 3.651 3.65l38.947 12.17c2.435 1.22 3.652 1.22 4.869 0s2.434-2.43 2.434-3.65v-3.65c-1.217-2.44-3.651-3.65-8.52-4.87l-7.302-3.65 21.908-68.16c1.217-2.43 1.217-3.65 1.217-4.87z" fill="#fff" fill-rule="nonzero"/><path d="m561.083 1049.14c-4.869-6.09-10.954-9.74-18.257-9.74-15.822-1.21-27.993 9.74-29.21 26.78-1.217 8.52 1.217 15.82 6.085 21.91 4.869 4.86 10.954 8.52 17.04 9.73 6.085 1.22 12.171-1.21 17.039-4.87-4.868 15.83-14.605 25.56-26.776 26.78h-8.52c-4.868 0-8.519-1.22-9.736 4.87 0 1.22 0 2.43 1.217 3.65 1.217 2.43 4.868 2.43 9.736 3.65 12.171 1.22 23.125-1.22 31.645-8.52 9.737-8.52 17.039-21.9 18.257-37.73 1.217-17.04-2.435-29.21-8.52-36.51zm-6.086 20.69c-1.217 9.74-7.302 15.82-15.822 14.61-3.651 0-6.085-2.44-8.52-4.87-2.434-3.65-3.651-8.52-3.651-14.61 0-4.87 2.434-9.74 6.086-12.17 2.434-2.43 6.085-2.43 9.736-2.43 3.652 0 7.303 2.43 9.737 4.86 1.217 3.66 2.434 9.74 2.434 14.61z" fill="#fff" fill-rule="nonzero"/><path d="m669.405 1077.13c-2.435-24.34-15.823-38.94-34.079-36.51-7.303 1.22-13.388 3.65-17.04 9.74-4.868 6.08-7.302 13.39-6.085 23.12 1.217 8.52 4.868 15.82 10.954 20.69 4.868 4.87 12.171 6.09 19.473 6.09 6.086 0 10.954-3.65 15.823-8.52-1.217 15.82-8.52 27.99-21.908 31.64-2.434 1.22-6.086 1.22-8.52 1.22-4.868 0-8.519 1.22-8.519 6.08 0 1.22 1.217 2.44 1.217 3.66 2.434 1.21 4.868 1.21 9.736 1.21 12.171-1.21 21.908-6.08 29.211-14.6 8.52-13.39 10.954-28 9.737-43.82zm-19.474 3.65c-2.434 2.44-4.868 4.87-8.52 4.87-3.651 0-7.302-1.21-10.954-3.65-2.434-2.43-4.868-7.3-4.868-12.17s1.217-9.74 3.651-13.39c2.435-2.43 4.869-3.65 8.52-4.87 3.651 0 7.303 1.22 9.737 2.44 3.651 2.43 6.085 7.3 6.085 13.39 0 4.87-1.217 9.73-3.651 13.38z" fill="#fff" fill-rule="nonzero"/><path d="m766.773 1050.36c-3.652-10.96-9.737-19.48-17.04-25.56-7.302-4.87-15.822-6.09-24.342-3.65-7.302 2.43-12.171 6.08-14.605 12.17-3.651 7.3-3.651 14.6-1.217 23.12 2.434 7.31 7.303 14.61 14.605 17.04 6.086 3.65 13.388 3.65 19.474 1.22 6.085-2.43 9.737-6.09 13.388-10.95 2.434 15.82-2.434 29.2-14.605 35.29-2.435 1.22-4.869 2.44-7.303 3.65-4.868 1.22-8.52 2.44-7.303 8.52 0 1.22 1.218 2.44 2.435 2.44 2.434 1.21 4.868 0 9.736-1.22 10.954-3.65 20.691-10.95 25.56-20.69 6.085-10.96 6.085-25.56 1.217-41.38zm-18.257 8.52c-1.217 3.65-4.868 6.08-7.302 6.08-8.52 2.44-15.823-2.43-18.257-12.17-1.217-4.87-1.217-9.74 0-14.6 1.217-2.44 3.651-4.87 7.303-6.09 3.651-1.22 7.302-1.22 10.954 1.22 3.651 2.43 7.302 6.08 8.519 12.17 1.217 4.87 1.217 9.73-1.217 13.39z" fill="#fff" fill-rule="nonzero"/><path d="m657.234 819.108 4.868 15.822-31.645 76.677 107.105-92.499-92.499-305.492h-109.539l-92.5 305.492 107.105 92.499-31.645-76.677 4.869-15.822z" fill="#fff" fill-rule="nonzero"/><path d="m707.135 525.787 188.65-90.065-120.493 159.44z" fill="#fff" fill-rule="nonzero"/><path d="m473.452 525.787-188.651-90.065 120.493 159.44z" fill="#fff" fill-rule="nonzero"/></g></svg>