<svg clip-rule="evenodd" fill-rule="evenodd" stroke-linejoin="round" stroke-miterlimit="2" viewBox="0 0 560 400" xmlns="http://www.w3.org/2000/svg"><g fill-rule="nonzero" transform="matrix(2.44051 0 0 2.44051 180 77.5839)"><path d="m30.85 55.49 10.17-23.17-14.18-32.32h-26.66v67.05h15.96l.01-48.77z" fill="#00b2a9"/><path d="m81.85 0h-26.66l-14.17 32.32 9.71 23.38 15.32-37.42-.03 48.77h15.83z" fill="#5ce5ce"/><path d="m41.02 32.32-10.17 23.17 4.57 11.56h10.83l4.48-11.35z" fill="#1b5b69"/><path d="m8.27 92.4-6.5-9.58h-1.77v17.5h1.97v-13.66l6.03 8.76h.5l6.03-8.76v13.66h2.02v-17.5h-1.77zm15.03-9.58h2.02v17.5h-2.02zm21.48 13.82-10.97-13.82h-1.74v17.5h1.97v-14.14l11.2 14.14h1.51v-17.5h-1.97zm6.16-11.9h5.83v15.58h2.02v-15.58h5.83v-1.92h-13.68zm31.01-1.92h-13.59v1.9h10.64l-11.04 14.38v1.22h13.99v-1.9h-11.05l11.05-14.39z" fill="#6a6d71"/></g></svg>