<svg clip-rule="evenodd" fill-rule="evenodd" stroke-linejoin="round" stroke-miterlimit="2" viewBox="0 0 560 400" xmlns="http://www.w3.org/2000/svg"><g fill="#eb6902" fill-rule="nonzero" transform="matrix(.699753 0 0 -.699753 -222.221 2054.81)"><path d="m914.552 2681.25c21.373 0 38.682-16.14 38.682-36.1 0-19.98-17.309-36.17-38.682-36.17-21.368 0-38.661 16.19-38.661 36.17 0 19.96 17.293 36.1 38.661 36.1m0-94.89c34.741 0 62.863 26.34 62.863 58.79 0 32.43-28.122 58.77-62.863 58.77-34.756 0-62.878-26.34-62.878-58.77 0-32.45 28.122-58.79 62.878-58.79"/><path d="m818.485 2685.84h15.01c3.025 0 5.464 2.37 5.464 5.41v16.43c0 3.03-2.439 5.45-5.464 5.45h-15.01c-3.029 0-5.481-2.42-5.481-5.45v-16.43c0-3.04 2.452-5.41 5.481-5.41"/><path d="m831.913 2675.58h-11.826c-3.037 0-5.476-2.44-5.476-5.5v-60.17c0-3.03 2.439-5.45 5.476-5.45h11.826c3.032 0 5.5 2.42 5.5 5.45v60.17c0 3.06-2.468 5.5-5.5 5.5"/><path d="m775.488 2623.38c-.545-7.02-1.875-20.36 7.355-24.99 4.407-2.22 12.859-.95 12.859 4.21v35.4c0 31.09-24.412 25.38-53.688 19.5-53.208-10.75-113.31-22.68-128.985-25.22-16.157-2.6-15.399-.31-8.149 38.82 6.037 32.37-20.314 38.34-66.127 5.5l-112.524-74.44c-11.946-8.52 8.44-20.56 24.248-11.67 24.164 13.6 105.887 66.82 112.485 70.64 13.981 8.02 22.914.75 15.114-28.17-5.388-19.93 5.833-26.65 24.14-24.35 21.565 2.72 140.843 29.01 153.042 30.49 17.482 2.15 20.915-6.19 20.23-15.72"/><path d="m979.302 2693.35v19.09h-7.131v2.54h17.117v-2.54h-7.118v-19.09z"/><path d="m992.109 2693.35v21.63h4.27l5.141-15.3c.49-1.4.81-2.49 1.05-3.18.25.79.64 1.93 1.16 3.45l5.23 15.03h3.82v-21.63h-2.76v18.1l-6.32-18.1h-2.58l-6.239 18.3v-18.3z"/></g></svg>