<svg clip-rule="evenodd" fill-rule="evenodd" stroke-linejoin="round" stroke-miterlimit="2" viewBox="0 0 560 400" xmlns="http://www.w3.org/2000/svg"><g fill="#001489"><g fill-rule="nonzero"><path d="m450.445 296.028h1.438v-3.239l1.647.022c.431 0 1.152.555 1.211 1.295.041.521-.041 1.896.216 1.896h1.474c-.255-.089-.381-1.349-.471-2.269-.111-1.211-.973-1.537-1.178-1.628.275-.021 1.529-.647 1.529-1.797 0-1.232-1.045-2.307-2.4-2.307v.008h-3.466zm1.438-6.795h1.693c.704 0 1.265.675 1.265 1.192 0 .512-.444 1.203-1.265 1.203v.003l-1.693-.009z"/><path d="m446.635 292.036c0 3.686 2.993 6.68 6.68 6.68 3.692 0 6.685-2.994 6.685-6.68 0-3.691-2.993-6.683-6.685-6.683-3.687 0-6.68 2.992-6.68 6.683m12.697 0c0 3.318-2.688 6.013-6.017 6.013-3.316 0-6.013-2.695-6.013-6.013 0-3.325 2.697-6.013 6.013-6.013 3.329 0 6.017 2.688 6.017 6.013"/><path d="m293.239 266.696c1.369-1.608 2.168-3.776 2.168-6.038v-8.33h-42.61v9.27h23.527l-20.615 22.803c-1.358 1.617-2.281 3.587-2.281 5.886v8.473h42.578v-9.261h-23.37z"/><path d="m400.251 252.329c-5.146 0-9.375 4.157-9.375 9.295v27.837c0 5.127 4.229 9.299 9.375 9.299h33.162c5.134 0 9.24-4.172 9.24-9.299v-27.837c0-5.138-4.106-9.295-9.24-9.295zm20.045 9.268c2.574 0 4.632 2.079 4.632 4.651v18.596c0 2.561-2.07 4.656-4.638 4.656h-7.005c-2.568 0-4.662-2.095-4.662-4.656v-18.596c0-2.572 2.094-4.651 4.662-4.651z"/><path d="m229.554 252.329h17.753v37.143c0 5.128-4.111 9.288-9.244 9.288h-8.509z"/><path d="m310.893 298.76c-5.13 0-9.342-4.173-9.342-9.3v-37.131h17.744v32.495c0 2.573 2.135 4.676 4.692 4.676h5.698c2.575 0 4.588-2.094 4.588-4.657v-32.514h41.246c5.127 0 9.259 4.153 9.259 9.288v37.143h-17.747v-32.532c0-2.571-2.086-4.631-4.656-4.631h-10.351v27.863c0 5.127-4.096 9.3-9.238 9.3z"/><path d="m203.457 236.358c-6.656 0-12.601 3.031-16.536 7.786l-45.286 54.616h25.696l34.354-41.404c2.579-3.071 6.433-5.027 10.776-5.027h9.063l-38.342 46.431h27.56c6.428 0 11.588-5.208 11.588-11.629v-50.773z"/><path d="m145.278 244.145-45.276 54.615h25.678l34.351-41.405c2.581-3.069 6.45-5.026 10.766-5.026h9.349v-15.97h-18.343c-6.648 0-12.605 3.03-16.525 7.786"/></g><path d="m300.455 236.358c-4.264-13.684-10.557-44.339 16.512-63.34 19.343-13.57 78.044-29.606 109.494-41.13l22.608-30.648c-21.566 11.068-49.546 22.405-75.066 30.225-56.885 17.431-90.909 27.772-134.737 28.631-31.547.62-31.981-14.267-1.284-40.965-34.465 13.377-82.662 29.228-137.982 41.61 49.349 1.387 86.817 11.42 109.332 24.497 32.069 18.626 39.842 38.186 43.462 51.12zm-59.402-56.65c15.383.549 27.19-.659 48.654-5.349-10.125 7.549-19.059 21.295-20.065 31.805-5.333-7.981-17.683-20.379-28.589-26.456"/></g></svg>