<svg clip-rule="evenodd" fill-rule="evenodd" stroke-linejoin="round" stroke-miterlimit="2" viewBox="0 0 560 400" xmlns="http://www.w3.org/2000/svg"><g fill-rule="nonzero" transform="matrix(.364547 0 0 -.364547 172.238 363.368)"><path d="m502.475 268.71c66.533 93.728 66.979 199.341 67.445 299.478v106.647h-88.375v27.907c.332 19.933-2.326 29.237-27.309 36.478-48.503 14.059-102.095 22.438-158.629 22.438h-.002c-56.533 0-110.126-8.379-158.628-22.438-24.983-7.241-27.642-16.545-27.309-36.478v-27.907h-88.375v-106.647c.466-100.137.913-205.75 67.445-299.478 72.826-102.594 206.871-134.089 206.871-134.089s134.039 31.495 206.866 134.089z" fill="#111840"/><path d="m355.759 655.077c0-33.216-26.93-60.144-60.15-60.144s-60.146 26.928-60.146 60.144c0 33.221 26.926 60.15 60.146 60.15s60.15-26.929 60.15-60.15m-60.152-101.826c34.776 0 61.695 3.285 99.203 9.348 18.889 3.053 32.803 6.028 47.002 10.194 10.602 3.111 11.161 4.199 11.161 15.08v111.215c0 9.884-1.412 11.13-10.259 13.746-12.028 3.557-25.409 6.704-40.719 9.763-34.842 6.96-70.637 10.489-106.388 10.489h-.002c-35.75 0-71.545-3.529-106.387-10.489-15.31-3.059-28.691-6.206-40.72-9.763-8.846-2.616-10.258-3.862-10.258-13.746v-111.215c0-10.881.559-11.969 11.161-15.08 14.199-4.166 28.113-7.141 47.002-10.194 37.508-6.063 64.427-9.348 99.202-9.348z" fill="#fee813"/><path d="m476.229 669.519h88.375c0-9.598-.001-101.511-.001-101.511-.466-100.258-.949-203.928-66.462-296.221-67.272-94.768-189.457-128.325-202.532-131.684-13.075 3.358-135.267 36.916-202.536 131.684-65.515 92.295-65.997 195.968-66.463 296.227 0 0-.001 91.907-.001 101.505h88.374s-.028 36.036-.028 36.383c0 16.107 2.777 22.206 23.502 28.213 50.886 14.749 103.759 22.228 157.149 22.228h.002c53.389 0 106.262-7.479 157.148-22.228 20.725-6.007 23.502-12.106 23.502-28.213 0-.344-.028-36.383-.028-36.383m-350.549-10.632h-88.44c0-23.063.001-90.823.001-90.823.458-98.607.932-200.57 64.5-290.123 61.835-87.11 172.421-120.958 193.867-126.838h-.005c21.446 5.88 132.032 39.728 193.867 126.838 63.568 89.553 64.042 191.516 64.5 290.123 0 0 .001 67.76.001 90.823h-88.326l-.048.811v41.384c0 7.095-.112 12.181-2.769 15.725-2.75 3.668-7.352 5.382-13.032 7.096-14.9 4.496-30.07 8.026-45.329 11.074-35.706 7.133-72.157 10.734-108.861 10.734h-.002c-36.703 0-73.154-3.601-108.86-10.734-15.26-3.048-30.43-6.578-45.33-11.074-5.68-1.714-10.281-3.428-13.031-7.096-2.658-3.544-2.769-8.63-2.769-15.725v-41.384z" fill="#fee813"/><path d="m86.658 329.457v316.123l.013.683h-36.805c0-22.07 0-78.141 0-78.141.377-80.899.764-164.104 36.81-239.685z" fill="#fee813"/><path d="m504.959 329.322c35.628 75.346 36.013 158.218 36.388 238.8 0 0 .001 56.071.001 78.141h-36.049l-.744-.02v-317.783z" fill="#fee813"/><path d="m222.032 194.016v89.176l-.024.603c-14.151 10.262-28.43 22.69-40.564 37.334l-.609.687v-102.412l-.039-.662c-18.291 12.704-36.363 27.899-52.363 45.919l-.579.592v159.97l-.009 1.14c-6.981 27.265-7.207 46.169-7.212 47.746l-.057 16.004h6.7l.579.062v62.047l-.063.756c-11.086 5.917-12.837 14.293-12.837 27.079v65.106l.056 1.1h10.134l.471-.02v-61.366c0-7.095.111-12.181 2.768-15.726 2.751-3.667 8.495-5.783 14.176-7.497 11.622-3.507 23.305-6.395 38.291-9.177l-.016-.755v-60.882l.016-.727h40.448l.733-.02v54.986l.019.863c17.573-2.422 34.241-4.129 52.324-4.883l.636.033v-50.168l.029-.811h40.614l.554.062v49.835l-.052 1.022c18.11.73 34.779 2.413 52.321 4.816l.705.061v-54.985l-.038-.811h40.034l1.2-.02v62.405l.961.161c14.518 2.727 25.947 5.565 37.316 8.995 5.68 1.714 11.424 3.83 14.174 7.497 2.658 3.545 2.77 8.631 2.77 15.726v61.422l.718-.036h9.096l.846-.039v-66.167c0-12.667-1.717-21.007-12.532-26.914l-.368-.203v-62.128l.03-.699h7.249l-.056-16.004c-.006-1.578-.232-20.528-7.239-47.851l.016-.785v-160.137l-.437-.517c-15.704-17.716-33.412-32.707-51.369-45.287l-1.175-.793v102.412l-.041.666c-.188-.23-.378-.459-.567-.688-12.146-14.658-26.442-27.096-40.605-37.363l.017-.988v-88.817l-.272-.142c-20.031-10.381-38.501-17.845-52.65-22.891l-.052.551v81.564l-.467-.218c-8.415-3.835-13.907-5.87-14.666-6.147l-5.47-1.999-5.472 1.999c-.769.28-6.411 2.371-15.032 6.315l-.09-.614v-81.508l-.299.147c-14.081 5.03-32.397 12.444-52.254 22.724zm146.225 68.884c-12.477 0-22.591-11.181-22.591-24.974s10.114-24.973 22.591-24.973 22.593 11.18 22.593 24.973-10.116 24.974-22.593 24.974m10.432-24.974c0-7.862-4.67-14.235-10.432-14.235s-10.431 6.373-10.431 14.235c0 7.863 4.669 14.236 10.431 14.236s10.432-6.373 10.432-14.236m-76.214-1.578v-7.225h5.206v-36.657h12.624v47.952h-6.976s-3.989-4.006-10.854-4.07m-94.023 21.816v-7.226h5.206v-36.656h12.625v47.952h-6.977s-3.988-4.006-10.854-4.07m52.383-60.494 7.199-5.758s7.017 5.514 13.842 11.739c7.531 6.866 13.623 13.289 12.073 24.142s-10.411 16.39-19.105 16.722c-10.176.39-18.439-6.755-18.439-17.33 0-11.13 7.638-16.74 17.285-17.298 0 0-6.653-6.569-12.855-12.217m21.041 28.517c0-4.189-3.445-7.586-7.696-7.586-4.25 0-7.697 3.397-7.697 7.586 0 4.19 3.447 7.586 7.697 7.586 4.251 0 7.696-3.396 7.696-7.586z" fill="#fee813"/><path d="m351.315 655.077c0-30.761-24.941-55.699-55.706-55.699-30.766 0-55.701 24.938-55.701 55.699 0 30.766 24.935 55.705 55.701 55.705 30.765 0 55.706-24.939 55.706-55.705z" fill="#fee813"/><g fill="#111840"><path d="m202.385 569.673-1.467 7.23-11.995 2.003-3.61-6.382-6.46 1.08 16.719 28.078 6.418-1.073 7.021-32.043zm-2.548 12.627-2.289 11.851-5.933-10.478z"/><path d="m225.767 596.862 5.907-.738 9.762-21.705.084-.01 2.519 20.17 5.654-.706-3.773-30.213-6.119.764-9.607 21.213-.084.011-2.461-19.707-5.655.707z"/><path d="m264.179 592.571 6.119-.255-.564-13.511 13.013 12.99 8.242-.343-11.924-11.377 11.291-19.072-7.945.332-7.774 14.625-5.227-4.888-.383-9.178-6.119.255z"/><path d="m324.939 562.013-2.925 6.772-12.152-.514-2.215-6.99-6.543-.277 10.566 30.923 6.501.276 13.482-29.906zm-5.097 11.83-4.685 11.123-3.643-11.476z"/><path d="m341.701 593.89 12.828 1.608c4.514.566 6.05.287 7.016.108 3.666-.87 5.535-4.15 5.905-7.103.412-3.291-.868-6.409-3.669-8.003-.997-.597-2.093-1.077-3.259-1.352l.01-.084c2.712-1.117 4.032-2.066 7.677-6.539l4.411-5.446-7.299-.915-5.214 6.032c-4.352 4.983-4.807 5.527-8.899 5.013l-1.223-.152 1.58-12.617-6.076-.762zm7.68-12.023 4.515.566c1.856.232 4.43.555 5.437 1.066 2.02.982 1.989 2.95 1.877 3.836-.153 1.225-.722 2.352-1.947 2.884-1.224.533-1.984.438-6.077-.075l-4.768-.598z"/><path d="m406.085 572.562-3.74 6.358-11.994-2.01-1.336-7.21-6.459-1.083 6.667 31.991 6.418 1.076 17.07-28.012zm-6.521 11.11-6.021 10.46-2.198-11.839z"/><path d="m314.809 610.935c-1.842-.802-3.743-1.493-5.696-2.062l-.437-.131v42.147c0 2.492-2.74 3.993-4.402 3.993h-3.862l-.042-.665v-47.052l-.378-.015c-1.445-.13-2.906-.197-4.383-.197-.519 0-1.035.009-1.551.025l-.332.021v96.139l.332.044c.516.016 1.032.025 1.551.025 1.493 0 2.971-.069 4.429-.201l.332-.034v-41.446h3.988c3.488 0 4.318 2.824 4.318 7.309v32.559l.298-.067c2.205-.636 4.343-1.425 6.407-2.356l-.06-.401v-29.321c0-8.803-4.486-10.963-4.486-10.963s4.486-2.906 4.486-8.72v-38.415z"/><path d="m341.028 669.832h-6.271l-.356-.043c-1.033 2.718-2.346 5.3-3.901 7.711l-.228.347v-18.854l.457.041h8.181v-6.645h-8.14l-.498.001v-19.726l.023-.321c1.347 2.047 2.518 4.221 3.49 6.499l.1.258h7.143l-.117-.32c-3.279-9.109-9.227-16.944-16.901-22.56l-.383-.251v78.24l.385-.272c8.114-5.941 14.3-14.362 17.438-24.147z"/><path d="m283.962 608.373c-2.074.515-4.097 1.165-6.054 1.94l-.296.132v63.455l.017.469-10.848-24.952-10.114 19.928-.207-.549c-1.51-4.296-2.332-8.913-2.332-13.719 0-8.764 2.731-16.902 7.39-23.607l-5.52-3.732c-5.369 7.764-8.515 17.185-8.515 27.339 0 10.551 3.394 20.309 9.152 28.24l.239.307 9.442-18.61 15.782 36.297.314.063c.607.173 1.218.334 1.835.483l.01-.297v-93.233z"/><path d="m403.707 455.56h-18.177v18.355l-.024.25h18.19.439v-18.605zm49.022 0v18.605h-.439-18.191l.025-.25v-18.355zm-48.575-6.313h-18.605l-.019-.352v-130.591c4.17 4.11 8.185 8.443 11.961 13 36.31 43.823 49.549 89.907 54.375 117.512l.088.431h-18.979l-.075-.346c-3.658-19.087-11.582-46.842-28.738-75.861l-.027 1.104v74.668z"/><path d="m306.79 266.276v207.87l.835.019h57.311l-.004-.408v-18.217l-.713.019h-37.981l-.843-.02v-158.862l.589.319c12.312 7.102 26.153 16.293 38.918 27.52l.03-.762v-23.257l-.275-.201c-21.893-16.671-44.331-27.933-57.464-33.814z"/><path d="m284.424 455.597h-18.605v18.605h18.605zm-39.536 18.605h-18.605v-18.605h18.605zm-17.635-174.431c21.726-16.423 43.885-27.526 56.865-33.333l.306-.161v182.97h-18.605v-.684-151.887l-.308.157c-6.386 3.675-13.194 7.916-20.053 12.713l-.57.365v139.336h-18.605v-148.694z"/><path d="m205.684 456.204v17.359.602h-69.105s.259-74.205 57.145-142.861c3.622-4.37 7.462-8.534 11.448-12.492l.512-.569v121.516l.084.85h-30.982v-17.608h12.378l-.085-.769v-49.252l-.376.652c-19.019 32.382-26.564 63.129-29.556 81.928h48.622z"/></g></g></svg>