<svg clip-rule="evenodd" fill-rule="evenodd" stroke-linejoin="round" stroke-miterlimit="2" viewBox="0 0 560 400" xmlns="http://www.w3.org/2000/svg"><g fill-rule="nonzero" transform="matrix(1.69705 0 0 1.69705 145 79.5161)"><path d="m159.1 123.292v-4.7c0-.8-.3-1.6-.9-2.2.6-.6.9-1.4.9-2.2v-7.4c-.1-1.5-1.2-2.9-2.7-3.2v-6.7c0-4.6-2.8-8.5-7.8-10.9-1-.5-1.9-.8-2.9-1.2 2.6-3.4 2.5-7.6 1.9-11 .1-.2.3-.4.4-.6.3-.4.6-.7 1-1 1.4-1.4 3.6-3.5 3.6-6.6 0-2.1-1-4.1-2.5-5.5-2-2-4.8-3-7.6-2.8-.7.1-1.5.2-2.2.5-1.7-1.2-3.6-2.1-5.7-2.6.1-.3.1-.7 0-1 1.3-1.9 2.1-4.1 2.2-6.5 0-.6-.1-1.2-.3-1.8-.3-.9-.8-1.7-1.5-2.3-.1-1-.4-2.1-1.1-2.9-.9-1.1-2.2-1.9-3.6-2.2-.3-.8-.7-1.6-1.3-2.2 2.1-2.5 3.3-5.6 3.3-8.9 0-.4 0-.8-.1-1.1-.7-5.3-4.5-8.6-9.8-9.2 1.3-1.6 1.9-3.6 1.9-5.7 0-2.3-.7-4.5-2-6.4-1.6-2.5-4.1-4.2-7-4.8-2.2-.5-4.5 0-6.3 1.2l-22 16.5c-1 .2-2 .5-2.9.9-2.3 1-4.1 2.7-5.1 4.9l-2.3 1.7c-1.2-5-4.2-9.4-8.4-12.4-.1-.6-.2-1.2-.5-1.8-1-2-2.7-3.6-4.8-4.3-2.5-1-5.4-.5-7.5 1.2-8-.6-15.6 3.6-19.4 10.7-.6-.1-1.3-.2-1.9-.3-4.9-.3-12.5 2.7-13.3 9.4-.4 2.6.3 5.2 1.9 7.3 1.7 1.9 4 2.9 6.5 2.8 1.2 0 2.5-.3 3.6-.8.1.2.2.4.3.7-.8 1.5-1.2 3.2-1.2 4.9 0 1 .2 2 .5 2.9-1.1 1.2-1.7 2.9-1.6 4.5-2.3 1.8-4.3 4.1-5.7 6.7-1 0-2.1.2-3 .6l-1.2.7c-.4.3-.9.6-1.4.6-2.2.3-4.3 1.4-5.8 3.2-.4.5-.7 1-1 1.6-.3.5-.5.8-2.7 2.5-1.5 1.3-2.4 3.2-2.4 5.2-1 1-1.8 2.2-2.2 3.6-.2.5-.3 1.1-.2 1.7.3 2.6 1.3 5 2.9 7.1h-5.1c-1.7 0-3.1 1.4-3.1 3.1v8.7c0 .8.3 1.6.9 2.2l1.8 1.8v4.8l-.6.2c-1.2.5-2 1.6-2 2.8v6.6c0 .8.3 1.6.9 2.2l1.8 1.8v4l-.7.3c-1.1.4-1.9 1.4-2 2.6v9.4c0 .8.3 1.6.9 2.2l3.8 3.8c.6.6 1.4.9 2.2.9h43.8c1.2 0 2.3-.7 2.8-1.9 5.3 2.2 11.5 2.7 15.2 2.7s9.9-.4 15.3-2.7c.5 1.1 1.6 1.9 2.8 1.9h24.3c.9 0 1.8-.4 2.4-1.1l.8-1c5.6 2.6 12.2 3 15.9 3 4.4 0 15.4-.7 21.3-6.6l4.1-4.4c1.8-2.1 3.4-5.4 3.4-7.7z" fill="#c9cacc"/><path d="m24.3 80.492c.3 2.2.9 4.3 1.9 6.3h-23v8.7l2.7 2.7v8.1c-.8.5-1.7.8-2.7 1.1v6.5l2.7 2.7v7c-.8.6-1.7 1.1-2.7 1.4v9.1l3.8 3.8h43.8v-3.9c4.3 3.4 11.4 4.7 18 4.7s13.8-1.4 18.1-4.8v4h24.3l2.5-3c4.3 2.7 10.7 3.8 16.7 3.8 7.2 0 14.9-1.6 19.1-5.6l4-4.4c1.4-1.5 2.3-3.4 2.6-5.4v-4.7l-2.7-.7v-1l2.7-2.7v-7.4l-2.7-1v-8.9c0-6.2-6.9-9.6-14.7-10.4 2.1-.8 4-2.3 5.2-4.3 1.6-2.4 1.2-6 .4-9.2.4-.5.8-1 1.2-1.6s.9-1.1 1.4-1.5c1.2-1.2 2.6-2.5 2.6-4.4-.1-1.3-.6-2.4-1.6-3.2-1.3-1.4-3.2-2.1-5.1-1.9-1.1.1-2.1.5-3 1-2.3-2.2-5.4-3.5-8.6-3.6.1-1.1.2-2.2.2-3.4 0-.7-.4-.6.4-1.8s3.5-5.8.4-7.2c-.3-.1-.4-.5-.3-.9s.4-2.8-3.6-3.1c-.4 0-.7-.3-.7-.9s-.6-3.1-4-3.9c4.9-2.2 5.9-7.8 5.6-9.8-.8-5.8-5.8-6.8-9.3-6.5-3.8.3-6.9 2.3-9.5 4.6-.9-.6-1.8-1.1-2.8-1.6l11.1-6.9.3-.2c2.7-1.8 3-6 .8-9.3s-6.3-4.6-9-2.8l-.3.2-22.3 16.6c-1 .1-1.9.4-2.7.8-2.1 1-3.5 2.5-3.7 4l-7.3 5.4c-.1-6.7-3.6-12.9-9.3-16.4.7-1.7-.8-3.9-3.2-4.7-1.8-.8-4-.2-5.1 1.5-8-1.4-15.8 3-18.7 10.5l-1.7.1c-.8-.2-1.6-.3-2.4-.4-3.3-.3-9.3 1.7-10 6.6-.3 2.1.1 6.5 5.4 6.6 1.4 0 2.7-.6 3.8-1.5.8-.6 1.7-1.2 2.6-1.6-.4 1.2-.9 3.8.7 5.5.4.4.1 1-.2 1.3-.5.7-2.8 5 .5 8.1 0 0-3.9.5-2.7 4.9-2.2 1.2-5.1 3.9-7.3 8.6-.7-.2-1.4-.3-2.1-.3-.4 0-.9.1-1.3.3-.8.4-1.6 1.3-3.4 1.6-1.4.2-2.7.9-3.8 1.9-1.4 2-.5 1.9-4.4 4.8-1 .8-1.3 2.5-1.1 4.1l-.3.2c-1 .7-1.8 1.7-2.2 2.9 0 .1-.1.3-.1.4.2 1.8.9 3.6 2 5.1 1 1.5 2.4 2.8 4 3.7.1.1.3.1.4.1 2.6.2 4.9-1.4 5.8-3.9v-.4c0-.2 0-.3-.1-.5 1.3.9 2.8 1 4 .3z" fill="#231f20"/><path d="m92.2 22.292.6-.1c11.1-7.9 18.9-13.2 18.9-13.2l.3-.2c.8-.5 1.7-.6 2.6-.4 1.6.4 3 1.4 3.8 2.7.3.5.6 1 .8 1.5 0-1.4-.4-2.8-1.2-3.9-.9-1.4-2.2-2.3-3.8-2.7-.9-.2-1.8 0-2.6.4l-.2.2-20.2 14.8c.4.2.7.5 1 .9z" fill="#e6bb83"/><path d="m23.8 76.492c0-.9 0-1.8.1-2.7-.9-1.6-2.1-2.9-3.6-4-.3-.2-.4-.6-.2-.9s.5-.4.8-.2c1.2.7 2.2 1.6 3.1 2.7.3-3 .9-5.9 1.9-8.7-.7-.2-1.5-.1-2.2.3-1.9 1.4-1.8 1.1-3.1 1.4s-2.4 1.2-3 2.4c-.7 1.8-3 1.7-3 4.1 2.8 1 5 3.1 6.1 5.9.2.5 1.1 1.9 2.5 1.4.2-.1.5-.2.7-.3 0-.6-.1-1.1-.1-1.4z" fill="#fff"/><path d="m11.8 75.492c1.2.7 2.2 1.6 3 2.8.8 1.1 1.3 2.4 1.5 3.8 0 .1-.1.2-.2.3.4 0 .8-.2 1.1-.4.4-.3.8-.7 1-1.2-.2-1.4-.7-2.6-1.5-3.8s-1.8-2.1-3-2.8c-.5 0-1.1.2-1.5.4-.3.2-.6.5-.8.9z" fill="#e6bb83"/><path d="m59.3 12.092-.5-.2c.8-.6 1.9-.8 2.8-.4 1 .2 1.8 1.1 1.8 2.2-1.3-.6-2.7-1.2-4.1-1.6z" fill="#b30838"/><path d="m50.9 38.192c-1.1-.2-2-.8-2.7-1.6.9 0 1.7-.1 2.6-.3.8.8 2 1.1 3 .5 1-.3 1.8-1.2 1.8-2.3.6-.2 1.1-.4 1.7-.6 0 2.8-3.8 4.8-6.4 4.3z" fill="#fff"/><path d="m32.8 25.092c-1.7 0-4.8.6-6.1 3.1-.4 1.1-.4 2.2 0 3.3.1.3.3.6-.1.7-.2 0-.4 0-.6-.5-.3-.7-2.4-5.3 4.1-7.6 4-1.4 8.4-.2 11.2 2.9.4.5 3 5.5 6.2 4.7.9-.2 1-.3.9-.5s-.2-.2-.6-.3-2.7-1-4.7-4.4c-.6-1.1-1.5-2-2.6-2.7 2-.3 4.1-.5 6.1-.6 2.5.4 4.9 1.5 6.9 3 1.6 1.2 3.2 2.3 4.9 3.3 0 0-7.2 2.9-8.2 3.2s-5.7 2.4-8.9-2.7c-1.6-3.2-4.9-5.1-8.5-4.9z" fill="#b30838"/><path d="m38 33.492s-.9 3.6 3.4 3.9c-.1-.3 0-.6.1-.8 0 0-2.1-.1-2.1-1.7-.1-.1-.9-.9-1.4-1.4z" fill="#fff"/><path d="m43.8 80.292c2.6-1.6 5.3-3.1 8-4.4 10.3-11.4 12.1-28.6 12.5-36.6.2-1.5.3-2.4 1.2-3.2.6-.4 1.4-.2 1.8.4.1.2.2.4.2.6.1 5.1 0 23.1-10.2 36.5 1.4-.5 2.7-.9 4.1-1.3 11.5-16 9.2-37.7 9.2-37.7s-2.2-.6-3.2-.9-5.2-1.1-7.4-.4c.3 3.7-4.9 7-8.8 6.4-2-.4-3.7-1.5-4.8-3.2-.9-.2-1.8-.5-2.7-.9-.3.2-.6.6-.7 1-.6 1.9.6 2.2 1 2.3.6.2.8.4.8.7s-.5.2-.7.1c-.7-.1-1.3 0-2 .1-2.9.5-4.1 2.5-3.8 3.8.5 2.1 2.4 1.8 3.2 1.8 1.5-.2 2.2-1.7 2.5-1.9s1.4.7 2 .9c.5.2 1 .3 1.6.2.6-.2 1.1-.8.9-1.3s-.8-.7-1.1-.8-.6-.2-.7-.4 0-.4.2-.4c.7.1 1.4.3 2 .7.5.4.9.9 1 1.5s-.1 1.2-.6 1.6c-1 1-3.2.7-4.7.1-.7-.3-.7.1-.7.3-.2 1.5.7 1.7 1.1 1.6 1.6.1 3.2.3 4.7.5 2 .5 4.1-.3 5.4-1.9 1.1-1.3 1.5-3 1-4.6-.3-.1-.7-.1-1 0-.5.1-.8.1-.8-.1s.7-.7 1.2-.8c3.7-.3 4.4 3.3 4.6 4.3.2 1.2-.5 1.4-.9 1.4-.8 0-.7-.9-.7-1.3 0-.6-.1-1.2-.3-1.7s-.6-.9-1-1.2c.6 1.5.5 3.2-.3 4.6-2 3.6-6.6 2.5-7.3 2.4-5.3-1-6.5-.5-7.7 0-1.6.7-.8 2.3-.3 3.2.5.8 1.5 1.2 2.4.9 3.3-1.2 4.4-.6 4.7 0 .6.9-.5 3.7-1.3 4.2-1.2.8-1.1-.5-1.4-1.1-.2-.3-.5-.6-.9-.7-6.8-1.4-10.3 1-11.1 2-8.2 11.3-4.2 26.8-2.2 27.8 1.5.7 4.4.3 5.1.1 2.8-.8 5.5-2.1 8-3.6z" fill="#bb813b"/><path d="m42.5 40.992c-.2-.4-.9-.4-1.7-.1s-1.3.9-1.1 1.3.9.4 1.7.1 1.3-.9 1.1-1.3z" fill="#fff"/><path d="m55.6 53.492c-1.9 9.8-6.5 18.8-13.3 26-.5.5-.7.7-.6.8.1.2.4.3.6.1 9.1-6.8 15.1-17.1 16.4-28.4.1-.7-.7-1.4-1.3-1.2-.9.6-1.6 1.6-1.8 2.7z" fill="#231f20"/><path d="m46.5 61.892c-2.5 6.8-5.8 13.3-9.7 19.4-.3.5-.2.8 0 .9s.5 0 .7-.2c4.4-5 9.6-11.4 12.4-21.6.2-1.3-1.5-1.1-1.9-.9-1 .5-1.2 1.5-1.5 2.4z" fill="#231f20"/><path d="m36.8 61.192c-3.7 8-4.4 11.9-5 17.9-.1.7-.2.8-.3.8-.2 0-.4-.2-.4-.5-.5-6.9-.4-11 3.6-18.9.6-.9 1.7-1.4 2.8-1.1.1.1-.1.3-.7 1.8z" fill="#231f20"/><path d="m42.8 60.492c-3.3 9.3-6.3 16.1-8.8 22.3-.2.6-.7.6-.7.6-.3-.1-.4-.5-.3-.8 1.8-7.6 4.3-15.1 7.3-22.3.7-1.4 1.4-1.5 2.1-1.3.1.1.9.1.4 1.5z" fill="#231f20"/><path d="m71.8 31.992s.6-8.1-4-12.8c-.4-.5-.5-.4-.6-.3s.2.7.3.9 2.9 4.7.6 11.1c1.2.5 2.4.8 3.7 1.1z" fill="#b30838"/><path d="m59.8 13.792c-.6-.2-1.2-.4-1.8-.5-1.8.2-3.6.7-5.3 1.5.3-.8.9-1.5 1.6-2-9.1-.4-12.9 6.6-14 9.1 2.5-.1 5.2-.3 6.1-.3.8 0 1.6.1 2.3.3.3-.4.6-.7 1-1v1.3c1.7.6 3.3 1.5 4.8 2.5 3.5 2.7 7.3 4.5 11.4 5.5 4.1-9.5-3.1-15.5-6.1-16.4z" fill="#b30838"/><path d="m54.1 15.092-2.7 2.2.1-2.3c-.6-.1-2.9-.1-2.9-.1l-.6.9h.8l-2.4 3.6h-.7l-.5.8c1.1 0 2.1.2 3.1.4l.6-.9-.7-.2 1.7-2.7-.1 3.4.6.1 3.8-3.1-1.8 3.2-.9-.2-.5 1s2.4.6 3.2.9l.6-1.1-.8-.2 2.3-4.2.8.1.5-1c-1.2-.3-2.3-.5-3.5-.6z" fill="#fff"/><path d="m98.7 63.192c.9.1 18.7.9 28.8-9.1.9-.8 1-2.1.2-3-.1-.1-.1-.1-.2-.2-.7-.4-1.6-.2-2.1.4-.7.7-8.5 7.2-21 8-2.5.2-19 1.3-28.5-5.9-.2-.2-.4-.4-.5-.6-.3.1-.5.3-.8.6-.1.1-.2.1-.3 0s-.1-.2 0-.3c0 0 1.2-2.1 4.7-1.5.3.1.5.4.4.6-.1.3-.4.5-.7.4-.8-.2-1.5-.3-2.3-.2l.4.2c.8.4 10.7 6.3 27.3 4.6 3.1-.3 9.2-1.7 12.3-3.7-1.2.4-2.5.2-3.5-.5-.3-.2-.5-.3-.8.1s-1.1 1.2-3.5 1.5c-1.8.3-4.8-.5-4.6-3.3 0-.6.6-2 3.2-2.2.4 0 .8.1.8.2s-.2.3-.7.4-1.5.7-1.3 1.6c.1.3.4 1.6 2.6 1.4 1-.2 1.9-.8 2.5-1.6.1-.1.4-.6.8-.3 2.2.9 4.7.7 6.7-.5 1.1-.6 4.1-2.8 2.9-4.9-.5-.9-3.2-2.1-6.4-.3-1.4.9-2.7 2-3.8 3.3-.2.3-.8 1.1-1.1.9s.2-1 .5-1.6c.1-.1.2-.4.4-.7-2.2-1.1-5.7-1.5-9.5-.9-3.3.5-6.3 1.5-8.1 2.9-.5.3-.8.7-1 .6-.3-.2.3-.9.5-1.1 1.5-1.3 3.2-2.3 5.1-2.9 0-.2-.1-.4-.1-.7-.1-.9 0-1.7.3-2.6-6.2 1.6-10.6.8-11.1.6-3.3-1.3-4.5.9-4.5.9.9.4 1.8.9 2.6 1.5.7.4 1.6.5 2.3.1.5-.2 1.1-.2 1.2.1s-.7.8-1.1 1.1c-1.3.7-3.5-.4-4.6-.8-4.1-1.8-4.9.9-5 1.5 0 1.1-.9 2.1-2 2.3-3.4.4-4 1.2-4.1 1.5-.2.6 0 6.1 13.4 10.3.7.2 2.2.7 2.1 1s-1.4 1.5-6.7.1c-.6-.2-1.1-.2-1.3.1.2 2.8 1.5 5.4 3.7 7.1 5.8.4 11.5 1.5 16.9 3.3 1.4-.2 2.8-.6 4.1-1.2 1.2-.8 2.7-1.1 4.1-1 2.5 0 5-.8 7-2.3 1.6-1.3 3.1-3.3 2.4-4.7-.4-.8-1.8-1.1-3.7-.6-1.6.4-9.9 3.2-17.1.7-.4-.1-1.1-.5-.8-1 .8 0 1.7.2 2.6.3z" fill="#e6bb83"/><path d="m105 69.392c-2.8.2-5.6-.2-8.2-1.2-2.4-.8-5-.9-7.5-.4-.5.2-1.9.5-2.2.1s0-1.5 2.7-2c2.7-.3 5.4 0 7.8 1.1.7.3 5 1.8 7.1 1.7.4 0 1.3 0 1.3.2s-.1.4-1 .5z" fill="#231f20"/><path d="m84 51.092c.4-.1 3.2-1.2 7.6.4 2.3.9 4.8 1 7.1.4.6-.1 1.5-.4 1.7-.1s.1 1.6-4 2c-2.3.2-4.7-.2-6.8-1.2-1.6-.7-3.4-1-5.2-.9-.2 0-.7.1-.8-.1s-.2-.3.4-.5z" fill="#231f20"/><path d="m119.1 38.492c-1.7-1.3-4.1-1-5.5.6.3.8.4 1.6.4 2.5 0 .3-.1.7-.3.7s-.5-.7-.6-1c-.6-1.8-2-3.2-3.9-3.7-2.5 1.7-5.2 3.1-8 4.1-.5 1.1-.7 2.2-.6 3.4.6-.2 1.2-.3 1.9-.4h.4c-.2-.3-.3-.6-.3-.9 0-.7.5-1.4 1.2-1.5.7 0 1.2.5 1.2 1.1v.1c0 .3-.1.7-.3.9 2.7-.3 5.4.2 7.8 1.3.9-.9 1.9-1.6 3-2.1-.2-.2-.4-.5-.4-.9-.1-.6.3-1.2.9-1.4.6 0 1.1.5 1.2 1.2v.5l.2-.1c1-.2 2.1-.3 3.2-.1.5-1.4 0-3.3-1.5-4.3z" fill="#fff"/><path d="m119.1 45.492c-.1-.4-1.1-.4-2.1-.1s-1.8.8-1.6 1.2 1 .4 2.1.1 1.7-.8 1.6-1.2z" fill="#fff"/><path d="m86.2 23.092c1.6-.8 3.3-.8 3.9-.1-.9.3-1.7.7-2.5 1.1-1.3.6-2.5 1.4-3.7 2.2v-.1c-.6-.9.5-2.3 2.3-3.1z" fill="#b30838"/><path d="m83 30.292c-1.6 3-2 6.4-1 9.7-1.4 1.2-2.7 2.4-4 3.7-.6-5 1.1-9.9 4.7-13.4.1-.1.3-.3.3-.2s.1.1 0 .2z" fill="#b30838"/><path d="m97.4 23.392c.3.4.6.8.8 1.3-.8-.4-1.7-.8-2.6-1-2.1.3-4.1.9-6 1.8-2.1 1.1-8.3 5.2-5.7 13.1 5.3-4 11.2-7.1 17.6-9.1 0-.3-.1-.7-.2-1 .4.2.8.4 1.1.8 1.7-.5 3.4-.9 5.1-1.3.4-.5.9-1 1.5-1.5-3.5-2.4-7.5-3.4-11.6-3.1z" fill="#b30838"/><path d="m127.1 28.492c-.2 0-.3-.2-.4-.7-.5-2.8-3.1-4.6-5.9-4.2-.2 0-.4.1-.7.2-1.7.4-5.4 2.4-10.8 8.3-2.6 2.9-12.4 11.6-24 8.2-.4-.1-.5-.3.3-.9 5.9-4.3 12.5-7.4 19.5-9.2-7 7.1-12.1 7.2-12.8 7.2-.3 0-.8-.1-.9.1s.4.5 1.2.5 7.6.2 14.8-7.8c1.2-1.4 7.6-8 13.2-8.2 2.5-.1 6.1.6 6.6 5.2.1.5.1 1.2-.1 1.3z" fill="#b30838"/><path d="m96.7 24.8 2.7 1.2-.2-1.4c.6-.1 2.8-.3 2.8-.3l.6.5-.8.1 2.5 1.9.7-.1.6.4c-1 .1-2 .3-3 .6l-.6-.5.7-.2-1.8-1.5.3 2-.6.1-3.9-1.5 2 1.8.8-.2.6.5s-2.3.7-3 1l-.7-.6.8-.2-2.5-2.6-.7.2-.6-.6z" fill="#fff" transform="translate(0 .192473)"/><path d="m137.3 77.6c-.9-.2-4-2.5-5.2-3.4-3.9-2.8-7.3 1.2-7.3 1.2-1-.8-2.2-1.1-3.5-.8l-.1-.2c-2.1-5.3.6-11.3 6-13.4 5.3-2.1 11.3.6 13.4 6 1.2 3.2.8 6.8-1.1 9.6-.7.5-1.4.9-2.2 1z" fill="#fff" transform="translate(0 .192473)"/><path d="m126.5 76.7c.7-.8 2.5-1.5 3.7-.7s4.8 3.7 7.3 4.1c1.3.2 3.1-1.2 4.5-3.4.4 3.8-2.5 7.6-8.1 7.3-.6 0-4.4-1.6-7.9-4.9-.6-.5-1.1-.7.5-2.4z" fill="#fff" transform="translate(0 .192473)"/><path d="m129 84.7c-1.8-1.1-3.4-2.5-4.9-4-1.5-1.4-1.1-2.3-.8-3.1-.6-.4-1.4-.6-2.1-.3s-3.1 2-2.1 3.2c.8.9 4.3 4.4 7.1 5.2.4.2 1.1 0 2.8-1z" fill="#fff" transform="translate(0 .192473)"/><path d="m118.8 75.9c-.6.5-1.2 1.1-1.6 1.8 0 0-1.8-2-1.4-3.4.1-.6 1-1.1 2.1-1.7.1 1.1.4 2.2.9 3.3z" fill="#fff" transform="translate(0 .192473)"/><path d="m121.2 68.392c-.9 7.9 9.4 5.9 8.9-.5-.2-2.5.6-3.8 2.4-4.7 3.1-1.5 6 1.6 6 1.6s-3-4.1-7-2.3c-2.1 1-3.3 3.2-3 5.4.4 4.8-7.4 6.2-7.3.5z" fill="#b30838"/><path d="m139.6 65.492c1 4-1.6 8.2-6.1 9.9 1.2.9 2.5 1.7 3.8 2.3.8-.1 1.5-.4 2.1-1 2.2-3.3 2.4-7.7.2-11.2z" fill="#c9cacc"/><path d="m145.8 64.392c-.7-.7-1.7-1.1-2.7-1-.5.1-.9.2-1.4.4 1 1.5 1.7 3.2 2 5 .3-.4.7-.7 1-1 .8-.8 1.7-1.7 1.7-2.2 0-.4-.3-.9-.6-1.2z" fill="#fff"/><path d="m150.2 119.492v-5.2c0-2 2.5-2.3 2.7-2.4v-2.9l-7.9-2.4 5.2-1v-8.7c0-5-8.1-7.6-16.1-7.6s-16.1 2.7-16.1 7.7v9.6c.2 3.2 2.4 6 5.5 6.9l-5.5 1v5c0 1.1-2.5 1.5-2.7 1.6v2c1 6.5 11.7 8.4 18.8 8.4s17.8-2 18.8-8.4v-2c-.2-.1-2.7-.4-2.7-1.6zm-12.7-.9c0 .3-1.2 1.2-3.4 1.2s-3.4-.9-3.5-1.2v-3l6.1 1.8s.8.2.8.7zm.1-16.6v2.4l-5.4-1.6c-.5-.1-1-.3-1.5-.6v-.2c.2-.3 1.4-1.2 3.4-1.2s3.4.9 3.5 1.2z" fill="#e6bb83"/><path d="m43.8 93.192v-3.3h-17.7v3.4c.7.2 2.4 1 2.4 2.6v3.5c-1.7-1.7-3.5-3.2-5.4-4.7l-.7-.5c.5-.4 1-.7 1.6-.9v-3.4h-17.8v3.3c.2.1 2.7.8 2.7 2.7v11.2c0 1.2-2.5 2.3-2.7 2.4v2c.2.1 2.7.4 2.7 2.4v10.4c0 1.1-2.5 2.6-2.7 2.7v3.9h17.8v-4.1c-.7-.4-2.4-1.6-2.4-2.5v-12.8c3.5 3.6 5.9 8.1 6.9 13-.2.9-1.8 1.9-2.4 2.3v4.1h17.8v-3.9c-.2-.1-2.7-1.6-2.7-2.7v-10.4c0-2 2.5-2.3 2.7-2.4v-2c-.2-.1-2.7-1.2-2.7-2.4v-11.2c0-1.9 2.4-2.6 2.6-2.7z" fill="#e6bb83"/><path d="m114.1 89.792-1.9-.5c-.1.1-.5.7-2 .7h-3.5l5.1-8.7c-19.9-12-44.8-12-64.7 0l5.1 8.8h-4.2v3.1c.2.1 2.7.7 2.7 2.4v11.6c0 1.2-2.5 2.3-2.7 2.4v2c.2.1 2.7.4 2.7 2.4v5.6c0 1.1-2.5 1.5-2.7 1.6v2c1 6.5 11.7 8.4 18.8 8.4s17.8-2 18.8-8.4v-2c-.2-.1-2.7-.4-2.7-1.6v-5.6c0-2 2.5-2.3 2.7-2.4v-2c-.2-.1-2.7-1.2-2.7-2.4v-11.6c0-1.6 2.5-2.3 2.7-2.4v-3.3h-17.7v3.4c.7.2 2.4.9 2.4 2.3v23c-.1.3-1.2 1.2-3.5 1.2s-3.4-.9-3.5-1.2v-23c0-1.4 1.7-2.1 2.4-2.3v-3.4h-2.7c5.2-1.9 10.8-2.9 16.3-2.9 5.6 0 11.1 1 16.4 2.9h-4.3c-1.6 0-1.9-.5-2-.7l-1.9.5-3.1 11 2.9 1.7s.6-1.4 3.7-1.4h3.3v6.1c0 1.2-2.5 2.3-2.7 2.4v2c.2.1 2.7.4 2.7 2.4v10.4c0 1.1-2.5 2.6-2.7 2.7v3.9h18v-3.9c-.2-.1-2.7-1.6-2.7-2.7v-10.5c0-2 2.5-2.3 2.7-2.4v-2c-.2-.1-2.7-1.2-2.7-2.4v-6.1h3.3c3.1 0 3.7 1.4 3.7 1.4l3-1.7z" fill="#e6bb83"/><path d="m148.3 113.792v7c0 1.6 1.8 1.9 1.8 1.9-1.6 2.8-8.2 5-16 5s-14.5-2.1-16-5c0 0 1.8-.3 1.8-1.9v-4.7l8.9-1.7v4.2c0 1.7 2.4 3.1 5.3 3.1s5.3-1.4 5.3-3.1v-2.4c0-1.9-2.1-2.5-2.1-2.5l-12.9-3.9c-3.8-1.1-4.5-4-4.5-5.2v-7.6c0-3.2 6.4-5.7 14.2-5.7s14.2 2.6 14.2 5.7v5.2l-8.9 1.7v-3.6c0-1.7-2.4-3.1-5.3-3.1s-5.3 1.4-5.3 3.1v1.3c0 2 .5 2.5 2.9 3.2l18.8 5.6c0-.2-2.2.2-2.2 3.4z" fill="#b30838"/><path d="m112.6 91.292s-.3.5-2.4.5h-4.6l-1.3 2.2c-1.3-.8-2.6-1.5-4-2.2h-8.8c-2.1 0-2.4-.5-2.4-.5l-2 7s1-1.1 4.5-1.2h4.8v10c.1 1.2-.6 2.3-1.8 2.7 1.1.4 1.9 1.5 1.8 2.7v11.8c.1 1.2-.6 2.3-1.8 2.7h12.5c-1.1-.4-1.9-1.5-1.8-2.7v-11.8c-.1-1.2.6-2.3 1.8-2.7-1.1-.4-1.9-1.5-1.8-2.7v-9.9h4.8c3.5 0 4.5 1.2 4.5 1.2z" fill="#b30838"/><path d="m81.1 120.692v-8.2c-.1-1.2.6-2.3 1.8-2.7-1.1-.4-1.9-1.5-1.8-2.7v-12.6c-.1-1.2.6-2.3 1.8-2.7h-12.5c1.1.4 1.9 1.5 1.8 2.7v24.1c0 1.7-2.4 3.1-5.3 3.1s-5.3-1.4-5.3-3.1v-24.1c-.1-1.2.6-2.3 1.8-2.7h-4.6c-1.4.7-2.7 1.4-4.1 2.2l-1.3-2.2h-2.5c1.1.4 1.9 1.5 1.8 2.7v12.6c.1 1.2-.6 2.3-1.8 2.7 1.1.4 1.9 1.5 1.8 2.7v8.2c0 1.6-1.8 1.9-1.8 1.9 1.6 2.8 8.2 5 16 5s14.5-2.1 16-5c0 .1-1.8-.2-1.8-1.9z" fill="#b30838"/><path d="m39.3 124.392v-11.8c-.1-1.2.6-2.3 1.8-2.7-1.1-.4-1.9-1.5-1.8-2.7v-12.7c-.1-1.2.6-2.3 1.8-2.7h-12.5c1.1.4 1.9 1.5 1.8 2.7v9.8c-3-3.8-6.6-7-10.6-9.7v-.1c-.1-1.2.6-2.3 1.8-2.7h-12.6c1.1.4 1.9 1.5 1.8 2.7v12.6c.1 1.2-.6 2.3-1.8 2.7 1.1.4 1.9 1.5 1.8 2.7v11.8c.1 1.2-.6 2.3-1.8 2.7h12.5c-1.1-.4-1.9-1.5-1.8-2.7v-19.1c4.5 3.8 9.2 9.4 10.6 17.4v1.8c.1 1.2-.6 2.3-1.8 2.7h12.5c-1.1-.4-1.8-1.5-1.7-2.7z" fill="#b30838"/><path d="m79.5 74.092c10.4 0 20.7 2.7 29.8 7.8l-5.6 9.6c-15-8.4-33.3-8.4-48.4 0l-5.6-9.6c9.1-5.1 19.4-7.8 29.8-7.8z" fill="#231f20"/><g fill="#fff" transform="translate(0 .192473)"><path d="m89.7 80.7-.4 2.3c-.1.6-.4.9-1.4.8l-.6-.1c-1-.2-1.2-.6-1.1-1.2l.2-1.2 1.1.2-.2 1.4.9.1.4-2.5-1.1-.2c-.7-.1-.9-.4-.8-.9l.4-2.3c.1-.6.4-.9 1.4-.8l.6.1c1 .2 1.2.6 1.1 1.2l-.2 1.1-1.1-.2.2-1.3-.9-.1-.4 2.4 1.1.2c.7.2.8.5.8 1z"/><path d="m97.5 79.4-1-.3-1.8 6.3-1-.3 1.9-6.3-1-.3.2-.7 3 .9z"/><path d="m82.4 75.8v.8h-1.3l-.1 2.4h1.3v.8h-1.3l-.1 2.6h1.3v.8l-2.4-.1.2-7.3z"/><path d="m61.3 86.3-2.8-6.7-1.1.5.3 3.3-2.1-2.6-1.2.5 2.9 6.8.9-.4-1.9-4.6 2.1 2.7.6-.3-.5-3.3 1.9 4.5z"/><path d="m68.2 83.3c.1.6 0 1-1 1.2l-.6.2c-.9.2-1.3-.1-1.4-.7l-1.3-5.2c-.1-.6 0-1 1-1.2l.6-.2c.9-.2 1.3.1 1.4.7zm-2.4-5.1-.9.2 1.4 5.6.9-.2z"/><path d="m102.3 87.3c-.2.5-.6.8-1.5.4l-.6-.3c-.9-.4-1-.9-.7-1.4l2.2-4.9c.2-.5.6-.8 1.5-.4l.6.3c.9.4 1 .9.7 1.4zm1.3-5.5-.8-.4-2.3 5.3.8.4z"/><path d="m74.3 83.3-1.8.2-.8-7.3 1.8-.2c1-.1 1.3.3 1.3.8l.6 5.3c.1.7-.1 1.1-1.1 1.2zm-.8-.6.9-.1-.6-5.7-.9.1z"/></g></g></svg>