<svg clip-rule="evenodd" fill-rule="evenodd" stroke-linejoin="round" stroke-miterlimit="2" viewBox="0 0 560 400" xmlns="http://www.w3.org/2000/svg"><g fill-rule="nonzero" transform="matrix(.636042 0 0 .636042 84.9735 451.538)"><path d="m23.625-395.321c0-55.892 132.825-150.258 282.857-150.306v-.001c.019 0 .039.001.057.001.019 0 .039-.001.057-.001v.001c149.76.048 282.368 94.07 282.846 150h.183c0 55.893-132.825 150.258-282.857 150.307-.019 0-.039 0-.057 0-.019 0-.039 0-.057 0-149.76-.049-282.367-94.071-282.846-150.001z" fill="#176fc1"/><g fill="#fff"><path d="m36.882-395.28c-.616-42.15 91.422-110.898 199.694-134.377-8.702 8.172-18.795 22.981-23.8 30.696-79.262 23.454-149.049 72.165-151.015 102.632 0 30.374 69.784 80.289 154.785 104.613 0 0-.143 15.695-.143 23.486-88.099-21.767-178.852-81.323-179.521-127.05z"/><path d="m98.848-379.351h-8.935v-21.077h-7.022v-7.275c4.738-.102 8.181-2.05 9.17-8.304h6.787z"/><path d="m103.42-388.128c1.289 7.322 6.702 9.524 12.391 9.524 8.452 0 13.28-7.48 13.28-18.599 0-13.134-5.432-18.805-14.273-18.805-6.844 0-12.128 3.933-12.128 12.746 0 5.186 3.179 11.707 10.23 11.707 2.907 0 4.716-.615 7.129-2.618.043 4.715-1.336 8.295-4.653 8.295-1.766 0-3.145-.87-3.618-2.864zm12.002-10.461c-2.243 0-3.797-1.952-3.797-4.827 0-3.08 1.338-5.031 3.97-5.031 2.157 0 4.055 2.054 4.055 4.672 0 2.823-1.165 5.083-4.228 5.186z"/><path d="m143.79-416.235-9.298 41.521h-5.424l9.298-41.521z"/><path d="m171.073-406.483c-1.288-7.323-6.701-9.525-12.39-9.525-8.453 0-13.281 7.479-13.281 18.594 0 13.135 5.431 18.81 14.272 18.81 6.846 0 12.13-3.937 12.13-12.752 0-5.186-3.179-11.702-10.231-11.702-2.907 0-4.716.616-7.128 2.618-.043-4.714 1.335-8.294 4.652-8.294 1.766 0 3.144.869 3.618 2.864zm-12.002 10.403c2.243 0 3.797 1.951 3.797 4.826 0 3.081-1.338 5.032-3.97 5.032-2.157 0-4.055-2.054-4.055-4.672 0-2.824 1.164-5.083 4.228-5.186z"/><path d="m456.515-377.519h-8.936v-21.077h-7.021v-7.274c4.738-.103 8.181-2.05 9.169-8.305h6.788z"/><path d="m461.087-386.296c1.288 7.321 6.702 9.524 12.391 9.524 8.451 0 13.28-7.478 13.28-18.599 0-13.134-5.432-18.806-14.273-18.806-6.844 0-12.129 3.935-12.129 12.748 0 5.185 3.18 11.706 10.23 11.706 2.908 0 4.716-.616 7.129-2.618.043 4.715-1.335 8.295-4.652 8.295-1.766 0-3.145-.87-3.619-2.864zm12.002-10.462c-2.244 0-3.797-1.95-3.797-4.826 0-3.08 1.337-5.032 3.97-5.032 2.157 0 4.055 2.054 4.055 4.673 0 2.824-1.165 5.083-4.228 5.185z"/><path d="m505.449-377.519h-8.936v-21.077h-7.022v-7.274c4.738-.103 8.182-2.05 9.17-8.305h6.788z"/><path d="m524.574-377.519h-8.936v-21.077h-7.022v-7.274c4.738-.103 8.182-2.05 9.17-8.305h6.788z"/><path d="m387.249-396.27-30.314 59.624 44.138 67.23-26.541 6.841s-24.203-42.406-30.355-49.516l-9.437 18.393-.161 35.603h-27.343v-138.546h27.343l.086 56.468 23.256-56.097z"/><path d="m294.911-396.614v27.037h-41.357v26.349h36.66v22.913h-36.66l-.115 58.461-26.579-4.278-.114-130.482z"/><path d="m357.285-531.311c-16.183-2.222-25.233-2.795-25.233-2.795l-25.427 43.283-25.427-43.283s-9.05.573-25.233 2.795c0 0-58.005 40.988-67.484 134.67h29.558s13.321-79.31 49.755-102.142l38.831 56.573 38.831-56.573c36.434 22.832 49.755 102.142 49.755 102.142h29.558c-9.479-93.682-67.484-134.67-67.484-134.67z"/><path d="m576.368-395.28c.616-42.15-91.422-110.898-199.694-134.377 8.702 8.172 18.795 22.981 23.8 30.696 79.262 23.454 149.049 72.165 151.014 102.632 0 30.301-69.448 80.046-154.171 104.434l12.522 20.186c83.807-24.109 165.892-80.09 166.529-123.571z"/></g></g></svg>