<svg clip-rule="evenodd" fill-rule="evenodd" stroke-linejoin="round" stroke-miterlimit="2" viewBox="0 0 560 400" xmlns="http://www.w3.org/2000/svg"><g fill-rule="nonzero" transform="matrix(1.00698 0 0 -1.00698 179.17 341.284)"><path d="m.014 0v-23.986c-8.622 1.079-16.275 2.713-22.427 4.763v23.982c5.493-2.039 13.257-3.695 22.427-4.759" fill="#fff" transform="translate(76.6659 256.835)"/><path d="m.014 0v-24.039c-5.866-.548-12.096-.844-18.564-.844-7.198 0-14.101.367-20.533 1.04v24.014c6.347-.609 13.274-.947 20.533-.947 6.518 0 12.758.278 18.564.776" fill="#fff" transform="translate(119.248 256.294)"/><path d="m.014 0v-23.954c-6.493-2.089-14.563-3.727-23.637-4.756v24.011c9.605 1.008 17.795 2.641 23.637 4.699" fill="#fff" transform="translate(146.37 261.32)"/><path d="m.014 0c-.032-16.033-1.239-54.187-10.544-96.83-6.44-29.507-15.57-55.593-27.136-77.543-13.688-25.972-30.871-46.234-51.108-60.267-2.357 1.513-6.454 4.382-11.591 8.953-7.575 6.742-19.031 18.668-30.575 37.189-13.004 20.868-23.466 45.679-31.095 73.745-9.17 33.722-14.25 72.253-15.115 114.603 4.183-2.919 10.961-7.183 20.11-11.451 14.595-6.81 38.314-14.93 68.412-14.93 30.094 0 53.532 7.938 67.892 14.599 9.796 4.542 16.791 9.084 20.75 11.932" fill="#ed1639" transform="translate(188.742 247.284)"/><path d="m.014 0c8.466-2.052 22.839-3.276 38.522-3.276 15.811 0 30.285 1.243 38.721 3.324l.105.026.013.002c6.266 1.564 6.339 2.9 6.339 2.957 0 .318-.656 1.097-3.113 1.993-7.187 2.621-23.698 4.314-42.065 4.314-18.364 0-34.874-1.693-42.059-4.314-2.459-.896-3.114-1.675-3.114-1.993 0-.483 1.346-1.726 6.442-2.981zm-6.651-24.762c5.749-1.86 12.853-3.372 20.647-4.396v22.183c-8.239.996-15.328 2.469-20.647 4.289zm68.494-4.647c8.223.982 15.745 2.498 21.857 4.408v22.061c-5.655-1.843-13.162-3.306-21.857-4.257zm-42.583-.356c6.323-.632 12.926-.953 19.643-.953 6.017 0 11.958.258 17.675.766v22.26c-5.728-.464-11.67-.699-17.675-.699-6.751 0-13.354.289-19.643.86zm-68.534 12.166c.965-41.591 6.026-79.484 15.046-112.655 7.606-27.983 18.033-52.714 30.991-73.508 11.487-18.43 22.878-30.29 30.412-36.995 4.677-4.162 8.481-6.907 10.981-8.545 19.9 13.932 36.834 33.984 50.338 59.609 11.531 21.884 20.634 47.897 27.054 77.318 9.063 41.531 10.403 79.077 10.516 94.917-4.251-2.945-10.767-6.978-19.477-11.017-14.441-6.697-38.006-14.681-68.267-14.681s-54.11 8.164-68.789 15.013c-8.273 3.86-14.614 7.719-18.805 10.544m85.129-242.789c-.978.509-24.216 12.885-47.713 50.274-13.619 21.676-24.557 47.395-32.51 76.443-9.887 36.123-15.173 77.561-15.712 123.162v.06c0 1.977.826 4.634 3.144 6.165.649.427 1.733 1.14 3.376 1.14.46 0 .94-.057 1.428-.169.749-.172 1.506-.493 2.249-.955l.48-.298c.655-.408 1.297-.852 1.908-1.321 2.002-1.536 9.494-6.993 21.853-12.721 3.264-1.513 6.655-2.928 10.095-4.215v28.685c0 3.185 5.486 5.811 16.304 7.805 10.097 1.861 23.509 2.886 37.765 2.886 14.258 0 27.67-1.025 37.768-2.886 10.82-1.994 16.306-4.62 16.306-7.805v-28.609c20.106 7.601 31.27 16.927 31.744 17.328.826.736 3.084 2.481 5.835 2.481.892 0 1.761-.185 2.583-.549 1.48-.658 3.961-2.436 3.961-6.962 0-.036.007-.39.007-.39.168-12.038-.112-55.091-10.746-103.816-6.628-30.366-16.061-57.287-28.036-80.014-14.983-28.427-34.05-50.442-56.673-65.433l-2.627-1.738z" fill="#fff" transform="translate(61.7803 263.019)"/><path d="m.014 0c30.423 0 54.12 8.029 68.641 14.764 7.852 3.641 13.935 7.279 18.197 10.131-.197-16.681-1.744-53.005-10.479-93.034-6.404-29.344-15.479-55.281-26.972-77.093-13.326-25.285-29.998-45.112-49.566-58.947-2.467 1.65-6.041 4.276-10.375 8.133-7.49 6.666-18.817 18.462-30.248 36.8-12.912 20.72-23.304 45.372-30.887 73.27-8.878 32.649-13.912 69.889-14.973 110.737 4.179-2.728 10.064-6.197 17.497-9.664 14.76-6.887 38.742-15.097 69.165-15.097m-18.17 15.088v20.455c6.023-.516 12.322-.778 18.753-.778 5.695 0 11.332.21 16.785.626v-20.481c-5.44-.459-11.079-.692-16.785-.692-6.404 0-12.704.292-18.753.87m42.583 20.964c7.84.893 14.696 2.206 20.077 3.841v-20.191c-5.695-1.727-12.573-3.118-20.077-4.06zm-68.494-16.118v20.195c5.049-1.605 11.488-2.918 18.867-3.845v-20.379c-7.071.975-13.532 2.355-18.867 4.029m.192 27.145c.306.244.969.658 2.337 1.157 7.096 2.588 23.485 4.26 41.754 4.26 18.272 0 34.663-1.672 41.76-4.26 1.366-.499 2.029-.913 2.335-1.157-.479-.379-1.824-1.173-5.358-2.065h-.001l-.014-.004h-.004l-.21-.052c-8.37-2.065-22.765-3.298-38.508-3.298-15.546 0-29.781 1.203-38.197 3.223l-.321.079c-3.695.91-5.085 1.73-5.573 2.117m44.091 14.409c-14.308 0-27.778-1.03-37.926-2.9-5.017-.925-8.982-2.013-11.785-3.234-1.555-.677-2.725-1.38-3.579-2.149-1.107-.997-1.669-2.106-1.669-3.297v-27.396c-3.007 1.155-5.968 2.407-8.831 3.733-12.275 5.689-19.702 11.098-21.685 12.62-.635.487-1.301.948-1.98 1.37l-.481.299c-.826.513-1.673.872-2.519 1.066-.553.127-1.1.192-1.627.192-1.909 0-3.181-.837-3.864-1.287-2.615-1.726-3.546-4.7-3.546-6.908v-.071c.54-45.677 5.837-87.19 15.744-123.386 7.976-29.133 18.949-54.932 32.614-76.681 23.625-37.592 47.07-50.077 48.056-50.59l2.324-1.21.93-.484.874.578 2.19 1.448c22.749 15.076 41.916 37.2 56.969 65.76 12.013 22.8 21.474 49.796 28.119 80.24 10.654 48.821 10.934 91.957 10.766 104.015l-.004.217c-.002.076-.003.132-.003.164 0 5.216-3.139 7.175-4.488 7.774-.939.416-1.929.627-2.946.627-3.036 0-5.491-1.877-6.424-2.704-.644-.541-11.24-9.313-30.265-16.701v27.315c0 3.16-3.95 4.88-5.249 5.446-2.803 1.221-6.768 2.309-11.786 3.234-10.149 1.87-23.619 2.9-37.929 2.9m-.202-59.708c-30.098 0-53.817 8.12-68.412 14.93-9.149 4.268-15.927 8.532-20.109 11.451.864-42.35 5.944-80.881 15.115-114.603 7.628-28.066 18.09-52.877 31.094-73.745 11.544-18.522 23-30.447 30.575-37.189 5.137-4.571 9.234-7.44 11.591-8.953 20.237 14.033 37.42 34.295 51.108 60.267 11.566 21.95 20.696 48.036 27.136 77.543 9.305 42.643 10.512 80.797 10.544 96.83-3.959-2.848-10.954-7.39-20.75-11.932-14.36-6.661-37.798-14.599-67.892-14.599m.583 10.658c6.469 0 12.698.295 18.565.844v24.039c-5.806-.499-12.047-.776-18.565-.776-7.258 0-14.185.338-20.533.947v-24.015c6.433-.672 13.335-1.039 20.533-1.039m22.05 1.2c9.074 1.028 17.144 2.666 23.637 4.755v23.954c-5.842-2.057-14.033-3.691-23.637-4.699zm-46.068.238v23.986c-9.17 1.064-16.933 2.72-22.426 4.759v-23.982c6.151-2.05 13.805-3.684 22.426-4.763m23.637 26.004c16.383 0 30.768 1.335 38.934 3.35.007 0 .014.004.022.004 4.503 1.114 7.112 2.431 7.112 3.844 0 1.004-1.317 1.962-3.699 2.83-7.038 2.567-23.359 4.368-42.369 4.368-19.009 0-35.327-1.801-42.364-4.368-2.382-.868-3.699-1.826-3.699-2.83 0-1.413 2.609-2.734 7.119-3.844.004-.004.007-.004.011-.004 8.17-2.015 22.555-3.35 38.933-3.35m0 19.828c29.373 0 53.184-4.389 53.184-9.8v-29.891c20.91 7.696 32.611 17.425 33.209 17.93.752.67 2.811 2.271 5.26 2.271.715 0 1.464-.137 2.223-.473 1.281-.57 3.431-2.125 3.431-6.148 0-.064.004-.203.007-.406.168-12.003-.106-54.956-10.725-103.611-6.611-30.286-16.016-57.131-27.955-79.789-14.912-28.293-33.879-50.197-56.376-65.105l-2.19-1.449-2.324 1.21c-.972.506-24.022 12.805-47.371 49.958-13.569 21.598-24.473 47.236-32.404 76.205-9.868 36.05-15.144 77.411-15.681 122.937v.05c0 1.748.723 4.087 2.745 5.422.645.425 1.54.993 2.885.993.373 0 .782-.044 1.229-.146.703-.162 1.365-.463 1.978-.844l.48-.299c.634-.393 1.245-.816 1.836-1.27 2.3-1.765 9.745-7.133 22.021-12.823 3.303-1.531 7.098-3.132 11.359-4.685v29.963c0 5.411 23.808 9.8 53.179 9.8" fill="#ec173a" transform="translate(100.1 218.973)"/><path d="m.014 0c0-1.413-2.609-2.73-7.112-3.845-.008 0-.015-.003-.022-.003-8.166-2.015-22.551-3.35-38.933-3.35-16.379 0-30.764 1.335-38.934 3.35-.003 0-.006 0-.01.003-4.511 1.111-7.12 2.432-7.12 3.845 0 1.004 1.317 1.961 3.699 2.83 7.037 2.567 23.355 4.368 42.365 4.368 19.009 0 35.331-1.801 42.369-4.368 2.381-.869 3.698-1.826 3.698-2.83" fill="#ed1639" transform="translate(146.37 266.051)"/><path d="m.014 0v-23.986c-8.622 1.079-16.275 2.713-22.427 4.763v23.982c5.493-2.039 13.257-3.695 22.427-4.759" fill="#ed1639" transform="translate(76.6659 256.835)"/><path d="m.014 0v-24.039c-5.866-.548-12.096-.844-18.564-.844-7.198 0-14.101.367-20.533 1.04v24.014c6.347-.609 13.274-.947 20.533-.947 6.518 0 12.758.278 18.564.776" fill="#ed1639" transform="translate(119.248 256.294)"/><path d="m.014 0v-23.954c-6.493-2.089-14.563-3.727-23.637-4.756v24.011c9.605 1.008 17.795 2.641 23.637 4.699" fill="#ed1639" transform="translate(146.37 261.32)"/><g fill="#fff"><path d="m.014 0c-1.142 0-2.15-.568-2.762-1.435-.475.968-1.291 1.738-2.295 2.148 1.003.586 1.679 1.67 1.679 2.916 0 1.866-1.512 3.377-3.378 3.377-1.865 0-3.377-1.511-3.377-3.377 0-1.255.686-2.347 1.701-2.929-1.09-.457-1.955-1.338-2.395-2.436-.577 1.035-1.682 1.736-2.951 1.736-1.865 0-3.378-1.511-3.378-3.377 0-1.865 1.513-3.376 3.378-3.376 1.269 0 2.374.701 2.951 1.736.45-1.124 1.347-2.018 2.473-2.465-1.059-.569-1.779-1.687-1.779-2.975 0-1.865 1.512-3.376 3.377-3.376 1.866 0 3.378 1.511 3.378 3.376 0 1.278-.709 2.389-1.755 2.963 1.038.402 1.884 1.183 2.371 2.176.612-.867 1.62-1.435 2.762-1.435 1.865 0 3.377 1.511 3.377 3.376 0 1.866-1.512 3.377-3.377 3.377" transform="translate(106.552 246.682)"/><path d="m.014 0c-1.142 0-2.15-.568-2.761-1.435-.475.969-1.292 1.738-2.296 2.148 1.003.586 1.679 1.67 1.679 2.916 0 1.866-1.512 3.377-3.377 3.377-1.866 0-3.378-1.511-3.378-3.377 0-1.255.686-2.346 1.701-2.929-1.09-.456-1.955-1.338-2.395-2.436-.577 1.035-1.682 1.736-2.951 1.736-1.865 0-3.377-1.511-3.377-3.377 0-1.865 1.512-3.376 3.377-3.376 1.269 0 2.374.701 2.951 1.736.45-1.124 1.347-2.018 2.473-2.465-1.059-.569-1.779-1.687-1.779-2.974 0-1.865 1.512-3.377 3.378-3.377 1.865 0 3.377 1.512 3.377 3.377 0 1.277-.709 2.388-1.755 2.962 1.038.402 1.885 1.183 2.372 2.176.611-.867 1.619-1.435 2.761-1.435 1.865 0 3.377 1.511 3.377 3.376 0 1.866-1.512 3.377-3.377 3.377" transform="translate(72.0568 249.842)"/><path d="m.014 0c-1.142 0-2.15-.568-2.761-1.435-.475.968-1.291 1.738-2.296 2.148 1.003.586 1.679 1.67 1.679 2.916 0 1.866-1.511 3.377-3.377 3.377s-3.378-1.511-3.378-3.377c0-1.255.686-2.347 1.702-2.929-1.09-.456-1.956-1.338-2.396-2.436-.576 1.035-1.681 1.736-2.951 1.736-1.865 0-3.377-1.511-3.377-3.377 0-1.865 1.512-3.376 3.377-3.376 1.27 0 2.375.701 2.951 1.736.451-1.124 1.347-2.018 2.473-2.465-1.059-.57-1.779-1.687-1.779-2.974 0-1.866 1.512-3.377 3.378-3.377s3.377 1.511 3.377 3.377c0 1.277-.709 2.388-1.754 2.962 1.038.402 1.884 1.183 2.371 2.176.611-.867 1.619-1.435 2.761-1.435 1.865 0 3.377 1.511 3.377 3.376 0 1.866-1.512 3.377-3.377 3.377" transform="translate(141.44 249.655)"/><path d="m.014 0c0-1.578-1.278-2.857-2.858-2.857-1.578 0-2.858 1.279-2.858 2.857 0 1.579 1.28 2.857 2.858 2.857 1.58 0 2.858-1.278 2.858-2.857" transform="translate(86.2478 111.959)"/><path d="m.014 0c0-1.578-1.279-2.857-2.858-2.857-1.578 0-2.858 1.279-2.858 2.857 0 1.579 1.28 2.857 2.858 2.857 1.579 0 2.858-1.278 2.858-2.857" transform="translate(80.533 105.725)"/><path d="m.014 0c0-1.578-1.279-2.857-2.858-2.857-1.578 0-2.858 1.279-2.858 2.857 0 1.579 1.28 2.857 2.858 2.857 1.579 0 2.858-1.278 2.858-2.857" transform="translate(92.3286 105.725)"/><path d="m.014 0c0-1.578-1.278-2.857-2.858-2.857-1.578 0-2.858 1.279-2.858 2.857 0 1.579 1.28 2.857 2.858 2.857 1.58 0 2.858-1.278 2.858-2.857" transform="translate(86.2478 99.7003)"/><path d="m.014 0c0-1.855-1.503-3.358-3.358-3.358s-3.358 1.503-3.358 3.358 1.503 3.358 3.358 3.358 3.358-1.503 3.358-3.358" transform="translate(86.7753 105.744)"/><path d="m.014 0c-3.515 0-6.374 2.811-6.374 6.268 0 3.456 2.859 6.269 6.374 6.269 3.514 0 6.373-2.813 6.373-6.269 0-3.457-2.859-6.268-6.373-6.268m0 11.373c-2.873 0-5.21-2.289-5.21-5.105 0-2.814 2.337-5.104 5.21-5.104s5.21 2.29 5.21 5.104c0 2.816-2.337 5.105-5.21 5.105" transform="translate(67.44 99.4476)"/><path d="m.014 0c-.706-.868-2.314-.726-3.589.313-1.279 1.04-1.74 2.585-1.034 3.453.706.866 2.312.726 3.589-.315 1.276-1.039 1.739-2.584 1.034-3.451" transform="translate(70.8211 105.147)"/><path d="m93.741 97.459h5.292v17.358h-5.292zm2.751 1.469c-1.09 0-1.975.775-1.975 1.729s.885 1.729 1.975 1.729c1.091 0 1.976-.775 1.976-1.729s-.885-1.729-1.976-1.729m0 5.087c-1.09 0-1.975.774-1.975 1.728 0 .955.885 1.729 1.975 1.729 1.091 0 1.976-.774 1.976-1.729 0-.954-.885-1.728-1.976-1.728m0 5.086c-1.09 0-1.975.774-1.975 1.729 0 .954.885 1.728 1.975 1.728 1.091 0 1.976-.774 1.976-1.728 0-.955-.885-1.729-1.976-1.729"/><path d="m.014 0h-53.54l-.706 22.612h55.362zm-52.413 1.163h51.306l1 20.286h-52.938z" transform="translate(126.877 94.6199)"/><path d="m.014 0c0-1.578 1.279-2.857 2.857-2.857 1.579 0 2.858 1.279 2.858 2.857 0 1.579-1.279 2.857-2.858 2.857-1.578 0-2.857-1.278-2.857-2.857" transform="translate(113.636 111.959)"/><path d="m.014 0c0-1.578 1.278-2.857 2.857-2.857 1.578 0 2.859 1.279 2.859 2.857 0 1.579-1.281 2.857-2.859 2.857-1.579 0-2.857-1.278-2.857-2.857" transform="translate(119.351 105.725)"/><path d="m.014 0c0-1.578 1.279-2.857 2.857-2.857s2.859 1.279 2.859 2.857c0 1.579-1.281 2.857-2.859 2.857s-2.857-1.278-2.857-2.857" transform="translate(107.556 105.725)"/><path d="m.014 0c0-1.578 1.279-2.857 2.857-2.857 1.579 0 2.858 1.279 2.858 2.857 0 1.579-1.279 2.857-2.858 2.857-1.578 0-2.857-1.278-2.857-2.857" transform="translate(113.636 99.7003)"/><path d="m.014 0c0-1.855 1.503-3.358 3.357-3.358 1.856 0 3.359 1.503 3.359 3.358s-1.503 3.358-3.359 3.358c-1.854 0-3.357-1.503-3.357-3.358" transform="translate(113.109 105.744)"/><path d="m.014 0c-3.515 0-6.374 2.811-6.374 6.268 0 3.456 2.859 6.269 6.374 6.269 3.514 0 6.374-2.813 6.374-6.269 0-3.457-2.86-6.268-6.374-6.268m0 11.373c-2.874 0-5.211-2.289-5.211-5.105 0-2.814 2.337-5.104 5.211-5.104 2.873 0 5.21 2.29 5.21 5.104 0 2.816-2.337 5.105-5.21 5.105" transform="translate(132.444 99.4476)"/><path d="m.014 0c.867.706.725 2.313-.313 3.589-1.041 1.278-2.585 1.74-3.453 1.034-.866-.707-.726-2.313.315-3.589 1.038-1.277 2.583-1.74 3.451-1.034" transform="translate(136.217 104.528)"/><path d="m100.88 97.459h5.291v17.358h-5.291zm2.539 1.469c-1.09 0-1.975.775-1.975 1.729s.885 1.729 1.975 1.729c1.091 0 1.976-.775 1.976-1.729s-.885-1.729-1.976-1.729m0 5.087c-1.09 0-1.975.774-1.975 1.728 0 .955.885 1.729 1.975 1.729 1.091 0 1.976-.774 1.976-1.729 0-.954-.885-1.728-1.976-1.728m0 5.086c-1.09 0-1.975.774-1.975 1.729 0 .954.885 1.728 1.975 1.728 1.091 0 1.976-.774 1.976-1.728 0-.955-.885-1.729-1.976-1.729"/><path d="m.014 0c-3.878 0-7.032 3.365-7.032 7.502s3.154 7.503 7.032 7.503c3.877 0 7.032-3.366 7.032-7.503s-3.155-7.502-7.032-7.502m0 13.842c-3.236 0-5.868-2.844-5.868-6.34 0-3.495 2.632-6.339 5.868-6.339s5.869 2.844 5.869 6.339c0 3.496-2.633 6.34-5.869 6.34" transform="translate(99.7451 142.727)"/><path d="m.014 0c.867.706.726 2.314-.313 3.589-1.041 1.279-2.586 1.74-3.453 1.034-.866-.706-.726-2.312.314-3.589 1.039-1.277 2.584-1.74 3.452-1.034" transform="translate(103.129 149.636)"/><path d="m.014 0h-12.088l-.159.326c-7.555 15.468-.039 27.119.038 27.235l.172.26h11.792l.149-.358c6.015-14.481.311-27.003.253-27.127zm-11.359 1.163h10.606c.827 2.029 4.778 12.955-.271 25.494h-10.373c-1.014-1.747-6.357-12.063.038-25.494" transform="translate(106.225 116.069)"/><path d="m.014 0h5.317s3.246-1.583 2.793-10.599c-.452-9.014-1.776-11.308-1.776-11.308s-8.757 2.973-8.725 13.506c0 0-.034 5.959 2.391 8.401" transform="translate(98.1948 140.981)"/><path d="m.014 0-8.04 9.779v66.358h1.164v-65.942l6.861-8.347 6.786 8.503 1.559 65.8 1.162-.028-1.567-66.191z" transform="translate(99.7858 19.0649)"/><path d="m.014 0h5.645l-1.142-62.888-4.914-6.971z" transform="translate(100.512 93.1599)"/><path d="m.014 0 1.678-6.545h-4.598c1.219 4.665 1.896 7.306 2.031 7.921.134.615.212 1.057.235 1.326h.167c.09-.84.252-1.74.487-2.702m11.948-16.127-7.803 24.065h-8.995l-8.29-24.065h7.837l1.141 4.43h7.182l1.058-4.43zm-26.497 19.013v5.052h-19.148v-5.673h10.421l-11.109-13.307v-5.085h20.188v5.672h-10.875zm-23.226-19.013v24.065h-6.713v-10.791c0-1.208.034-2.058.101-2.551h-.067c-.067.157-.165.336-.294.537-.128.202-.265.409-.411.621-.145.213-.291.42-.436.621-.146.202-.268.375-.369.521l-8.139 11.042h-6.847v-24.065h6.713v10.102c0 1.477-.034 2.808-.101 3.994h.067c.425-.738.973-1.566 1.645-2.483l8.491-11.613zm-34.821 8.626c-.369-.918-.89-1.623-1.561-2.115s-1.426-.738-2.265-.738c-1.377 0-2.465.548-3.264 1.644-.801 1.097-1.2 2.624-1.2 4.582 0 2.002.403 3.552 1.208 4.648s1.93 1.645 3.373 1.645c1.32 0 2.361-.571 3.121-1.712.761-1.141 1.142-2.702 1.142-4.682 0-1.264-.185-2.355-.554-3.272m6.754 9.926c-.99 1.896-2.394 3.356-4.212 4.38-1.818 1.023-3.879 1.535-6.184 1.535-2.394 0-4.531-.534-6.41-1.602-1.88-1.069-3.34-2.582-4.38-4.54-1.041-1.958-1.561-4.162-1.561-6.611 0-2.339.514-4.434 1.544-6.285 1.029-1.852 2.469-3.289 4.321-4.313s3.907-1.536 6.167-1.536c2.316 0 4.408.529 6.277 1.586 1.868 1.058 3.322 2.54 4.363 4.448 1.04 1.907 1.561 4.069 1.561 6.485 0 2.406-.496 4.557-1.486 6.453m-26.137-18.552v24.065h-10.69l-3.087-13.006c-.269-1.387-.465-2.59-.587-3.608h-.101c-.034.447-.115 1.082-.244 1.905-.129.822-.232 1.367-.31 1.636l-3.306 13.073h-10.857v-24.065h6.36v11.344c0 .94-.079 3.289-.235 7.048h.201c.425-2.371.688-3.736.789-4.094l3.708-14.298h6.814l3.54 14.466c.191.727.465 2.035.823 3.926h.201l-.05-1.107c-.079-1.488-.118-2.853-.118-4.095v-13.19z" transform="translate(155.68 175.928)"/><path d="m.014 0c-1.757-.862-3.742-1.292-5.957-1.292-2.775 0-5.066.948-6.872 2.844-1.807 1.896-2.711 4.484-2.711 7.761 0 3.401.946 6.126 2.836 8.173 1.891 2.048 4.347 3.071 7.367 3.071 1.869 0 3.648-.38 5.337-1.141v1.762c-1.689.593-3.457.889-5.303.889-3.468 0-6.327-1.177-8.575-3.532-2.249-2.355-3.373-5.485-3.373-9.389 0-3.558 1.037-6.442 3.113-8.651 2.075-2.21 4.757-3.314 8.046-3.314 2.115 0 4.145.403 6.092 1.208zm-24.568 6.612h-9.28l4.044 11.16c.179.458.364 1.057.554 1.795h.067c.089-.28.173-.56.252-.839.078-.325.179-.655.302-.99zm5.186-9.012-8.979 24.065h-1.577l-9.079-24.065h1.83l2.752 7.485h10.438l2.752-7.485z" transform="translate(118.988 190.841)"/></g></g></svg>