<svg clip-rule="evenodd" fill-rule="evenodd" stroke-linejoin="round" viewBox="0 0 560 400" xmlns="http://www.w3.org/2000/svg" xmlns:xlink="http://www.w3.org/1999/xlink"><linearGradient id="a" gradientUnits="userSpaceOnUse" x1="90.0039" x2="546.4299" y1="1058.73" y2="1058.73"><stop offset="0" stop-color="#d40000" stop-opacity="0"/><stop offset="1" stop-color="#d40000"/></linearGradient><g transform="matrix(.93012 0 0 .93012 22.2595 -749.585)"><path d="m47.708 978.18-9.255 7.846 2.303 1.744 4.985-3.487-3.526 19.647c-.104.15-.191.3-.296.43-.619.92-1.812 1.18-2.653.82-.03-.01-.073-.01-.104-.03l-11.423-13.919 5.67-.627 1.152-3.078h-11.088l-1.446 1.226-1.99 11.088 3.187-.599 1.624-5.558 11.4 13.897c.091.57.142 1.15-.231 1.74-.325.55-.85.86-1.399 1.12h-19.725l4.27-4.36-1.274-2.62-9.254 7.85-.313 1.74 6.438 7.85 2.213-2.62-2.705-4.35h19.697c.017.01.033.02.05.02.788.38 1.281 1.28.852 2.24-.069.19-.167.39-.271.6l-16.388 13.89.371-5.56-2.971-.6-1.99 11.09 1.006 1.23h11.086l-.047-3.08-5.445-.63 16.356-13.86c.139-.05.277-.1.406-.14.972-.34 1.952.1 2.167.98.038.09.075.2.109.3l-3.53 19.67-3.733-3.49-2.929 1.75 6.438 7.84h1.744l9.254-7.84-2.302-1.75-4.985 3.49 3.53-19.67c.064-.09.122-.19.185-.27.539-.81 1.499-1.28 2.343-1.06.173.03.359.1.542.16l11.401 13.89-5.67.63-1.152 3.08h11.088l1.446-1.23 1.99-11.09-3.186.6-1.624 5.56-11.423-13.92c-.028-.21-.059-.42-.051-.63-.064-1.01.836-1.75 1.758-2.2h19.67l-4.27 4.35 1.274 2.62 9.254-7.85.313-1.74-6.438-7.85-2.213 2.62 2.705 4.36h-19.64c-.595-.35-1.155-.74-1.116-1.53.004-.45.208-.89.43-1.33l16.388-13.897-.371 5.558 2.971.599 1.99-11.088-1.006-1.226h-11.087l.047 3.078 5.445.627-16.324 13.839c-.064.02-.14.03-.201.05-.908.4-1.952.22-2.317-.6-.089-.15-.136-.35-.202-.54l3.536-19.696 3.733 3.486 2.928-1.743-6.438-7.846h-1.743z" fill="#d40000" fill-rule="nonzero" stroke="#d40000" stroke-width="2"/><g fill="#003793" fill-rule="nonzero" stroke="#003793" stroke-linejoin="miter" stroke-width=".84" transform="matrix(1.18664 0 0 1.18664 -23.8137 -182.782)"><path d="m105.359 1036.09h9.369l16.086-41.504-2.651 41.504h8.831l19.276-41.504-5.657 41.504h10.076l8.486-55.604h-14.319l-16.617 32.704 2.122-32.704h-12.904z"/><path d="m230.9 1011.53-7.184 24.27-8.932-.07 14.673-55.329c18.81-.624 28.511.344 28.67 10.994.181 12.145-9.541 17.135-14.175 19.585l5.657 25.11h-11.844l-2.829-24.56zm15.528-14.9c.984-5.777-2.662-6.541-9.588-6.541l-3.829 13.331c6.349 0 12.172.52 13.417-6.79z"/><path d="m198.082 979.825c-11.576 0-23.158 12.591-25.84 28.135-2.681 15.53 4.553 28.13 16.129 28.13 14.758 0 23.13-15.77 24.571-28.13 1.227-10.539-.456-28.135-14.86-28.135zm-2.139 11.617c5.773 0 7.652 7.786 6.146 16.518-1.506 8.72-5.837 16.86-11.61 16.86s-8.328-8.14-6.822-16.86c1.506-8.732 6.513-16.518 12.286-16.518z"/><path d="m271.911 1011.53-7.184 24.27-8.932-.07 14.672-55.329c18.811-.624 28.511.344 28.67 10.994.182 12.145-9.54 17.135-14.175 19.585l5.657 25.11h-11.844l-2.829-24.56zm15.53-14.9c.983-5.777-2.662-6.541-9.588-6.541l-3.83 13.331c6.349 0 12.173.52 13.418-6.79z"/><path d="m309.588 980.086h11.751l-15.006 56.004h-11.75z"/><path d="m425.588 980.086h11.751l-15.006 56.004h-11.75z"/><path d="m448.412 1011.53-7.184 24.27-8.932-.07 14.673-55.329c18.81-.624 28.511.344 28.67 10.994.182 12.145-9.541 17.135-14.175 19.585l5.657 25.11h-11.844l-2.829-24.56zm15.528-14.9c.984-5.777-2.661-6.541-9.588-6.541l-3.829 13.331c6.35 0 12.173.52 13.417-6.79z"/><path d="m378.814 1026.22-4.755 9.87h-10.341l29.787-54.982h12.197l.001 54.982h-10.253v-9.87zm16.636-8.83v-25.676l-12.38 25.676z"/><path d="m353.112 990.417 2.24-7.973c-10.75-5.204-27.92-2.421-29.464 15.752-1.041 12.254 11.861 12.924 11.225 20.774-.719 8.89-12.802 9.92-16.44 5.83l-2.652 8.84c15.731 5.62 31.613-.31 31.29-16.79-.281-14.34-14.963-11.95-13.259-22.1 1.158-6.89 12.097-7.043 17.06-4.333z"/></g><path d="m90.51 1053.78h455.377v9.899h-455.377z" fill="url(#a)"/></g></svg>