<svg clip-rule="evenodd" fill-rule="evenodd" stroke-miterlimit="10" viewBox="0 0 560 400" xmlns="http://www.w3.org/2000/svg"><g transform="matrix(.902715 0 0 .902715 164.079 64.6034)"><path d="m14.168 27.407-.98 2.942c-5.884 23.045-9.316 45.6-10.787 60.31-1.471 13.729-1.962 23.045-1.962 25.006 0 15.2 2.452 45.11 17.652 78.943 20.594 45.109 56.878 80.413 107.381 103.948l2.942.981 2.942-.981c50.503-23.535 86.787-58.839 107.381-104.439 15.2-33.832 17.651-64.232 17.651-78.942 0-1.961-.49-11.277-1.961-25.006-1.471-14.71-4.903-37.265-10.787-60.31l-.981-2.942-2.942-1.471c-28.929-15.2-74.039-25.007-111.303-25.007-37.755 0-82.375 10.297-111.304 25.007z" fill="#fff" fill-rule="nonzero"/><path d="m247.563 91.149c-1.962-15.69-4.904-37.264-10.788-59.329-26.477-13.729-69.626-24.516-108.361-24.516-38.245 0-81.884 10.787-108.362 24.516-5.393 22.065-8.826 43.639-10.787 59.329-1.471 13.239-1.961 22.555-1.961 24.026 0 21.084 4.903 123.071 121.11 177.007 116.207-53.936 121.11-155.923 121.11-177.007 0-1.471-.49-10.787-1.961-24.026z" fill="#fff" fill-rule="nonzero"/><path d="m20.052 31.82c-5.393 22.065-8.826 43.639-10.787 59.329-1.471 13.239-1.961 22.555-1.961 24.026 0 21.084 4.903 123.071 121.11 177.007v-6.864c-26.968-14.22-47.071-31.381-61.781-50.014l-6.864-8.825c-5.884-8.336-10.788-16.671-14.71-25.007-18.633-38.245-20.103-73.548-20.103-84.826 0-1.961.49-11.768 1.961-25.987 1.471-14.71 4.413-33.832 8.826-53.445 22.555-12.749 59.819-23.046 92.671-23.046v-6.864c-38.245.49-81.884 10.787-108.362 24.516z" fill="#e93526" fill-rule="nonzero"/><path d="m247.563 91.149c-1.962-15.69-4.904-37.264-10.788-59.329-5.393-2.942-11.767-5.884-19.122-8.335v12.258c.98.49 1.961.98 2.942 1.961 4.413 19.613 7.355 38.736 8.826 53.445 1.471 14.22 1.961 24.026 1.961 25.987 0 9.807-.981 38.736-14.22 71.097v29.91c29.91-45.11 31.381-89.729 31.381-102.478.981-1.961.491-11.277-.98-24.516z" fill="#e93526" fill-rule="nonzero"/><path d="m128.414 14.659v-6.865z" fill="#e93526" fill-rule="nonzero"/><path d="m134.298 297.085c13.729-6.864 25.497-13.238 36.284-21.084v-19.122c-10.297 9.316-22.555 18.142-36.284 25.987z" fill="#e93526" fill-rule="nonzero"/><path d="m212.259 200.491c0 .491-.49.981-.49 1.471-3.923 8.336-8.826 16.671-14.71 25.007l-6.864 8.826c-4.413 5.393-9.316 10.787-14.22 15.69v20.594c15.2-11.768 25.987-22.065 36.284-34.813z" fill="#e93526" fill-rule="nonzero"/><path d="m134.298 14.659c11.768.49 24.516 1.961 36.284 4.903v-15.2c-12.258-1.961-24.516-3.432-36.284-3.432z" fill="#e93526" fill-rule="nonzero"/><path d="m175.975 5.343v14.709c13.239 3.433 25.987 7.845 36.284 12.749v-18.633c-11.277-3.432-23.535-6.374-36.284-8.825z" fill="#e93526" fill-rule="nonzero"/><path d="m217.653 188.233-5.394 12.258c1.962-3.922 3.923-8.335 5.394-12.258z" fill="#fff" fill-rule="nonzero"/><path d="m128.414 7.794c-38.736 0-81.884 10.787-108.362 24.516-5.393 22.065-8.826 43.639-10.787 59.33-1.471 13.238-1.961 22.554-1.961 24.025 0 21.084 4.903 123.072 121.11 177.007 116.207-53.935 121.11-155.923 121.11-177.007 0-1.471-.49-10.787-1.961-24.025-1.962-15.691-4.904-37.265-10.788-59.33-26.477-14.219-69.626-24.516-108.361-24.516z" fill="none"/><path d="m128.414 7.794c38.735 0 81.884 10.787 108.361 24.516l5.884-4.903-2.942-1.471c-28.929-15.2-74.039-25.006-111.303-25.006-37.755 0-82.375 10.296-111.304 25.006l-2.942 1.471 5.884 4.903c26.478-14.219 70.117-24.516 108.362-24.516z" fill="#f2f2f3" fill-opacity=".25" fill-rule="nonzero"/><path d="m128.414 292.182v7.355l2.942-.981c50.503-23.535 86.787-58.839 107.381-104.439 15.2-33.832 17.651-64.232 17.651-78.942 0-1.961-.49-11.277-1.961-25.006-1.471-14.71-4.903-37.265-10.787-60.31l-.981-2.942-5.884 4.903c5.394 22.065 8.826 43.639 10.788 59.329 1.471 13.239 1.961 22.555 1.961 24.026 0 21.084-4.903 123.071-121.11 177.007" fill="#d0d2d3" fill-rule="nonzero"/><path d="m128.414 292.182v7.355l-2.942-.981c-50.503-23.535-86.787-58.839-107.381-104.439-15.2-33.832-17.652-64.232-17.652-78.942 0-1.961.491-11.277 1.962-25.006 1.471-14.71 4.903-37.265 10.787-60.31l.98-2.942 5.884 4.903c-5.393 22.065-8.826 43.639-10.787 59.329-1.471 13.239-1.961 22.555-1.961 24.026 0 21.084 4.903 123.071 121.11 177.007" fill="#e6e6e6" fill-rule="nonzero"/><path d="m128.414 7.794c-38.736 0-81.884 10.787-108.362 24.516-5.393 22.065-8.826 43.639-10.787 59.33-1.471 13.238-1.961 22.554-1.961 24.025 0 21.084 4.903 123.072 121.11 177.007 116.207-53.935 121.11-155.923 121.11-177.007 0-1.471-.49-10.787-1.961-24.025-1.962-15.691-4.904-37.265-10.788-59.33-26.477-14.219-69.626-24.516-108.361-24.516z" fill="none" stroke="#fff" stroke-opacity=".25" stroke-width=".88"/><path d="m98.014 135.769-3.923 2.942 5.394 1.471-2.942 3.922 5.393.981-1.961 3.922 6.865-1.961 2.942 3.923 4.903-4.903 4.903 4.903 4.903-4.903 4.904 4.903 4.903-4.903 4.903 4.903 4.903-4.903 4.903 4.903 3.433-4.903 6.374 2.451-1.961-3.922 5.393-.981-3.922-2.942 5.393-1.471-3.922-2.942 4.413-2.452-4.413-2.451 3.922-2.942-5.393-2.452 2.942-3.922-5.394-.981 1.961-3.923h-5.884l.491-4.412-5.394.98-.49-4.413-4.903 1.962-1.471-3.923-4.413 2.452-2.942-3.923-3.923 3.432-3.922-3.432-2.942 3.923-4.413-2.452-1.471 3.923-4.903-1.962-.491 4.413-5.884-.49.491 4.413h-5.884l1.961 3.922-5.394.981 2.942 3.923-5.393 1.471 3.922 2.941-4.412 2.452zm21.574-5.884h17.652c2.451 3.432 0 3.432-1.471 3.432l-.981 4.903-2.942-4.903-1.471 4.903-1.961-4.903-1.961 4.903-1.471-4.903-2.942 4.903-.981-4.903c-1.471 0-3.432 0-1.471-3.432z" fill="#e93526" fill-rule="nonzero"/><path d="m203.433 170.091c-14.219-3.922-6.864-9.316 1.471-13.238-17.161-11.278-13.238-16.181-17.651-28.929-1.962 10.787-3.923 22.554-19.123 27.458 11.768 7.845 12.749 16.671 6.865 17.651-5.884 1.471-9.317-5.884-9.317-5.884 0 6.375 4.413 17.162-3.432 17.162s-11.768-11.278-11.768-11.278c1.471 18.633 1.962 30.4-4.412 30.4-6.375 0-7.846-7.845-6.865-10.296-1.961 5.883-6.865 10.787-2.942 20.593 1.961 2.942 1.471 7.845-3.432 9.316h-.491v-42.167c2.942-4.904 12.749-23.536 16.181-25.007l-4.903-4.903-4.903 4.903-4.904-4.903-4.903 4.903-4.903-4.903-4.903 4.903-4.904-4.903-4.903 4.903c2.942.981 12.258 18.632 15.691 25.007v42.167c-4.904-.98-5.394-5.884-3.433-9.316 3.923-9.806-.98-14.71-2.942-20.593.491 1.961-.98 10.296-6.864 10.296-6.374 0-6.374-11.767-4.413-30.4 0 0-3.432 11.278-11.768 11.278-7.845 0-3.432-10.787-3.432-17.162 0 0-3.432 6.865-9.316 5.884-5.884-1.471-5.394-9.806 6.864-17.651-15.2-4.904-17.651-16.671-19.122-27.458-3.923 12.748-.491 17.651-17.652 28.929 7.845 3.922 15.69 9.316 1.471 13.238 10.787 8.826 23.045 15.2 4.903 24.517 10.787 4.903 31.381 12.748 12.258 21.084-3.432 1.47-6.374 5.393-6.374 5.393 16.671 1.961 46.091 6.374 63.252 25.987 17.652-19.122 47.071-24.026 63.252-25.987 0 0-2.942-3.923-5.884-5.393-19.123-8.336 1.471-16.181 12.258-21.084-17.652-9.807-5.394-15.691 5.393-24.517zm-71.097-10.787c12.259 0 0 7.845 0 7.845zm-7.354 0v7.845c0-.49-12.258-8.335 0-7.845z" fill="#e93526" fill-rule="nonzero"/><path d="m14.168 27.407-.98 2.942c-5.884 23.045-9.316 45.6-10.787 60.31-1.471 13.729-1.962 23.045-1.962 25.006 0 15.2 2.452 45.11 17.652 78.943 20.594 45.109 56.878 80.413 107.381 103.948l2.942.981 2.942-.981c50.503-23.535 86.787-58.839 107.381-104.439 15.2-33.832 17.651-64.232 17.651-78.942 0-1.961-.49-11.277-1.961-25.006-1.471-14.71-4.903-37.265-10.787-60.31l-.981-2.942-2.942-1.471c-28.929-15.2-74.039-25.007-111.303-25.007-37.755 0-82.375 10.297-111.304 25.007z" fill="none" stroke="#d0d2d3" stroke-width=".88"/><g fill-rule="nonzero"><path d="m112.724 266.685v-7.845l-2.942 2.452v-3.433l2.942-2.451h2.941v11.277z" fill="#e93526"/><path d="m127.433 259.821v1.471c0 .49 0 .98-.49.98 0 .491-.49.981-.49.981 0 .49-.491.981-.491 1.471l-2.451 4.413h-3.433l2.942-5.394h-1.471c-.49 0-.98 0-1.471-.49-.49 0-.98-.49-.98-.981-.491-.49-.491-.98-.981-1.471 0-.49-.49-.98-.49-1.961s0-1.471.49-1.961c.49-.491.49-.981.981-1.471.49-.491.98-.491 1.471-.981.49 0 .98-.49 1.961-.49.49 0 .981 0 1.961.49.981.49.981.49 1.471.981.491.49.981.98.981 1.471.49 1.471.49 1.961.49 2.942zm-2.942 0c0-.491 0-.981-.49-1.471-.49-.491-.49-.491-.981-.491-.49 0-.98 0-.98.491-.491.49-.491.49-.491 1.471 0 .49 0 .98.491 1.471.49.49.49.49.98.49.491 0 .981 0 .981-.49.49-.491.49-.981.49-1.471z" fill="#e93526"/><path d="m138.22 262.272c0 .491 0 1.471-.49 1.962-.49.49-.49.98-.981 1.471-.49.49-.98.49-1.471.98-.49 0-.98.491-1.961.491-.49 0-.981 0-1.961-.491-.491 0-.981-.49-1.471-.98-.49-.491-.981-.981-.981-1.471v-3.433c0-.49 0-.98.491-.98 0-.491.49-.981.49-.981 0-.49.49-.981.49-1.471l2.452-4.413h3.432l-2.942 5.394h1.471c.49 0 .981 0 1.471.49.49 0 .981.49.981.981 0 .49.49.98.98 1.471 0-.491 0 .49 0 .98zm-2.942 0c0-.49 0-.98-.49-1.471-.49-.49-.49-.49-.981-.49-.49 0-.98 0-.98.49-.491.491-.491.491-.491 1.471 0 .491 0 .981.491 1.471.49.491.49.491.98.491.491 0 .981 0 .981-.491 0-.49.49-.98.49-1.471z" fill="#e93526"/><path d="m144.595 268.647h-3.433l4.413-10.788h-2.942v2.452h-2.942v-4.903h9.316v2.942z" fill="#e93526"/><path d="m66.633 80.362-12.748-19.613v19.613h-9.807v-39.226h8.336l12.748 19.613v-19.613h9.807v39.226z" fill="#e93526"/><path d="m103.898 80.362-1.962-5.884h-12.258l-1.961 5.884h-10.297l14.22-39.226h7.845l14.219 39.226zm-7.846-24.516-3.432 10.297h6.865z" fill="#e93526"/><path d="m139.201 80.362-12.748-19.613v19.613h-9.807v-39.226h8.336l12.748 19.613v-19.613h9.807v39.226z" fill="#e93526"/><path d="m168.13 80.852c-4.413 0-8.335-1.471-10.787-4.412-3.923-3.923-3.923-9.807-3.923-15.691s0-11.277 3.923-15.69c2.942-2.942 6.374-4.413 10.787-4.413 5.394 0 8.336 1.961 10.787 4.413l-6.374 6.374c-1.471-1.471-2.452-1.961-4.413-1.961s-2.942.49-3.922 1.471c-.981.98-1.471 2.451-1.471 9.806s.49 8.826 1.471 9.807c.49.98 1.961 1.471 3.922 1.471 2.452 0 3.432-.981 4.413-1.962l6.374 6.375c-2.451 2.451-5.393 4.412-10.787 4.412z" fill="#e93526"/><path d="m200.982 64.181v16.181h-9.807v-16.181l-11.767-23.535h10.787l6.374 14.219 6.374-14.219h10.787z" fill="#e93526"/><path d="m67.123 101.446v-13.239h3.433v10.297h5.393v2.942z" fill="#e93526"/><path d="m90.659 99.975c-.981.981-1.961 1.471-3.432 1.471s-2.942-.49-3.433-1.471c-1.471-1.471-1.471-3.432-1.471-5.393 0-1.962 0-3.923 1.471-5.394.981-.981 1.962-1.471 3.433-1.471s2.942.49 3.432 1.471c1.471 1.471 1.471 3.432 1.471 5.394 0 1.961 0 3.922-1.471 5.393zm-1.961-8.335c0-.491-.491-.491-1.471-.491-.981 0-.981.491-1.471.491-.491.49-.491.98-.491 3.432 0 2.451 0 2.942.491 3.432 0 .49.49.49 1.471.49.98 0 .98-.49 1.471-.49.49-.49.49-.981.49-3.432 0-2.942-.49-3.432-.49-3.432z" fill="#e93526"/><path d="m106.349 101.446-2.451-4.903h-.981v4.903h-3.432v-13.239h5.393c2.942 0 4.413 1.962 4.413 4.413 0 1.962-.98 2.942-1.961 3.432l2.942 5.394zm-1.471-10.297h-1.961v2.452h1.961c.981 0 1.471-.49 1.471-1.471s-.98-.981-1.471-.981z" fill="#e93526"/><path d="m123.511 101.446-2.452-4.903h-.981v4.903h-3.432v-13.239h5.394c2.942 0 4.413 1.962 4.413 4.413 0 1.962-.981 2.942-1.962 3.432l2.942 5.394zm-1.471-10.297h-1.962v2.452h1.962c.98 0 1.471-.49 1.471-1.471s-.491-.981-1.471-.981z" fill="#e93526"/><path d="m141.162 101.446-.49-1.961h-3.923l-.49 1.961h-3.432l4.903-13.239h2.452l4.903 13.239zm-2.451-8.335-.981 3.432h2.452z" fill="#e93526"/><path d="m151.459 88.207h3.432v13.239h-3.432z" fill="#e93526"/><path d="m169.601 101.446-4.413-6.374v6.374h-3.432v-13.239h2.942l4.413 6.375v-6.375h3.432v13.239z" fill="#e93526"/><path d="m180.388 101.446v-13.239h8.826v2.942h-5.884v1.962h4.903v2.941h-4.903v2.452h5.884v2.942z" fill="#e93526"/></g></g></svg>