<svg clip-rule="evenodd" fill-rule="evenodd" stroke-linejoin="round" stroke-miterlimit="1.41421" viewBox="0 0 560 400" xmlns="http://www.w3.org/2000/svg"><g fill="#006680" fill-rule="nonzero" transform="matrix(2.05174 0 0 2.05174 23.4464 -1918.87)"><path d="m35.294 1013.7-5.27 24.03-8.958-24.03h-9.492l-8.38 37.96h9.797l5.114-23.82 8.843 23.82h9.464l8.368-37.96z"/><path d="m112.592 1013.8h-11.77l-9.399 18.25 10.44.16z"/><path d="m80.729 1051.73h9.791l7.226-12.39-18.485.61z"/><path d="m86.815 1013.8h-10.881l2.298 18 9.723.17z"/><path d="m124.841 1013.8h-10.514l-4.112 18.57 10.513.19z"/><path d="m105.993 1051.73h10.491l2.904-13.13-10.589.38z"/><path d="m141.197 1038.3c.81.46 1.168 1.24 1.129 2.35-.06 1.23-.506 2.16-1.389 2.84-.827.67-2.032 1.06-3.556 1.09-.87.04-1.708-.03-2.569-.25-.858-.17-1.592-.59-2.232-1.23-.486-.55-.827-1.17-.943-1.79-.138-.63-.186-1.23-.138-1.7l-9.447-.1c-.098 1.3.127 3.3.336 4.79.203 1.5.799 2.93 1.829 4.32.432.56 1.126 1.19 2.08 1.85.996.68 2.244 1.25 3.864 1.75 1.592.48 3.562.71 5.899.77 1.846 0 3.576-.19 5.236-.54 1.606-.33 3.133-.97 4.603-1.85 1.648-1.09 2.961-2.32 3.92-3.71.898-1.36 1.55-2.7 1.917-4.05.415-1.32.595-2.47.618-3.43.023-.65 0-1.25-.048-1.87l-11.744.38z"/><path d="m149.107 1031.43c-1.115-.73-2.393-1.37-3.847-1.96l-5.91-2.25c-.805-.29-1.55-.68-2.267-1.22-.753-.52-1.123-1.24-1.123-2.17.037-.74.407-1.44 1.152-2.03.734-.59 1.868-.91 3.418-.92 1.687 0 2.949.33 3.816.98.841.66 1.188 1.59 1.024 2.79l9.447-.04c.056-.91-.209-2.86-.336-4-.11-1.15-.516-2.3-1.185-3.43-.672-1.16-1.812-2.17-3.424-3.07-1.183-.64-2.453-1.06-3.754-1.3-1.321-.23-2.639-.35-3.985-.35-2.495.04-4.553.26-6.173.63-1.643.42-2.966.98-4.059 1.64-1.665 1.02-3.008 2.39-4.022 4.15-1.004 1.74-1.566 3.8-1.682 6.12-.062 1.16.071 2.39.424 3.68.364 1.28.9 2.32 1.614 3.08.305.35.658.67.982.96l21.595.42c-.486-.72-1.05-1.28-1.705-1.71"/><path d="m176.191 1022.23h8.34l1.936-8.53h-28.363l-1.868 8.53h9.15l-2.492 11.12 10.751.18z"/><path d="m158.749 1051.66h10.793l3.347-14.8-10.866.33z"/><path d="m236.157 1027.25c-.297.64-.706 1.15-1.141 1.5-.341.29-.855.51-1.532.64-.683.13-1.688.19-2.984.22-1.323 0-3.099 0-5.303-.04l1.626-7.47h7.079c.773-.02 1.445.19 2.006.69.542.48.827 1.31.822 2.59-.06.62-.254 1.23-.573 1.87m6.963-11.94c-1.163-.68-2.301-1.12-3.495-1.3-1.179-.22-2.19-.33-3.039-.37h-17.948l-8.177 37.95h9.963l2.834-13.26h6.277l3.204 13.26h10.18l-3.996-14.97c1.191-.52 2.382-1.24 3.533-2.11 1.138-.89 2.196-2.32 3.088-4.28.432-1.01.745-1.98.965-2.93.221-.99.308-1.87.37-2.69.076-2.57-.254-4.6-.982-6.07-.723-1.48-1.637-2.55-2.777-3.23"/><path d="m64.362 1051.59h10.861l-1.457-11.46-10.099.34z"/><path d="m194.586 1013.65-11.329 20.05 10.149.19 3.291-6.51 1.451 24.21h10.533l-4.628-37.94z"/><path d="m173.159 1051.59h11.388l7.708-15.39-10.618.36z"/><path d="m70.409 1013.65h-9.768l-22.066 37.94h11.781l12.464-24.21.251 4.13 9.61.16z"/></g></svg>