<svg clip-rule="evenodd" fill-rule="evenodd" stroke-linejoin="round" stroke-miterlimit="2" viewBox="0 0 560 400" xmlns="http://www.w3.org/2000/svg"><g transform="matrix(.87238 0 0 .87238 141.961 62.136)"><path d="m19.143 6.936 1.08 5.296c1.134 5.46 2.483 13.946 2.483 18.486 0 .811-.053 1.513-.161 2.054 0 0-1.026 5.621-1.62 8.972-1.566-2-5.291-6.702-5.291-6.702l-2.483 11.351c-.055.324-1.566 7.351-1.999 15.188-1.619-1.297-5.398-4.379-5.398-4.379l-1.35 9.621c-.054.433-1.512 11.135-.648 18.161.647 4.92 1.457 8.865 6.856 18.756 1.566 2.919 3.456 5.568 5.453 8.432 1.728 2.433 3.51 4.973 5.184 7.838 3.94 6.594 6.316 12.539 7.45 15.349l.107.325c2.916 7.297 2.16 38.593.487 57.456-.648 7.458-2.16 16.701-3.617 25.619-1.674 10.323-3.132 19.188-3.132 24.323 0 10.215 6.533 22.43 15.171 28.484 5.777 4.054 20.246 7.189 41.681 11.458 10.096 2.055 19.652 3.947 25.429 5.731 18.897 5.728 42.058 14.862 50.589 19.89l2.808 1.675.593-.324 2.214-1.351c8.53-5.028 31.692-14.162 50.589-19.891 5.777-1.731 15.332-3.676 25.429-5.73 21.434-4.324 35.903-7.459 41.68-11.458 8.639-6.054 15.171-18.269 15.171-28.485 0-5.135-1.458-13.999-3.13-24.268-1.459-8.973-2.97-18.215-3.618-25.674-1.674-18.865-2.484-50.16.486-57.456l.107-.271c1.134-2.865 3.51-8.756 7.451-15.35 1.674-2.811 3.455-5.35 5.183-7.783 1.997-2.865 3.887-5.514 5.452-8.433 5.4-9.892 6.263-13.837 6.857-18.755.918-7.027-.594-17.675-.648-18.161l-1.349-9.621s-3.78 3.027-5.4 4.378c-.432-7.892-1.943-14.864-1.997-15.188l-2.484-11.351s-3.725 4.756-5.291 6.702c-.54-2.972-1.619-8.972-1.619-8.972-.109-.541-.163-1.243-.163-2.054 0-4.595 1.349-13.027 2.483-18.485l1.404-6.595h-41.895s-3.67 4.649-3.725 4.756c-1.132 1.189-22.621 22.378-93.673 22.756-71.158-.325-92.646-21.567-93.781-22.756-.053-.107-3.725-4.756-3.725-4.756h-41.895l.215 1.189z"/><path d="m158.278 34.229-.002.001c-71.915-.378-93.619-22.106-94.59-23.133-.217-.27-3.456-4.378-3.456-4.378l-40.007.054 1.08 5.244c1.297 6.052 3.078 17.133 2.376 20.971l-2.053 11.35c-1.188-1.459-5.398-6.756-5.398-6.756l-1.998 9.081c-.107.487-1.835 8.647-2.106 17.133-.809-.648-5.56-4.486-5.56-4.486l-1.081 7.675c-.053.432-1.511 10.972-.647 17.837.594 4.81 1.404 8.648 6.748 18.377 1.567 2.865 3.403 5.513 5.4 8.323 1.727 2.487 3.509 5.027 5.237 7.892 3.995 6.702 6.425 12.648 7.558 15.512l.108.271c3.023 7.567 2.268 38.484.54 57.942-.648 7.458-2.159 16.755-3.617 25.673-1.674 10.269-3.131 19.079-3.131 24.16 0 9.891 6.316 21.728 14.686 27.566 5.614 3.891 19.975 7.026 41.247 11.296 10.151 2.054 19.708 3.999 25.538 5.73 18.95 5.782 42.22 14.917 50.805 19.998l2.267 1.351 2.214-1.351c8.585-5.081 31.855-14.27 50.805-19.998 5.831-1.784 15.387-3.676 25.537-5.73 21.272-4.27 35.634-7.405 41.249-11.296 8.367-5.838 14.685-17.675 14.685-27.566 0-5.027-1.458-13.892-3.131-24.16-1.458-8.973-2.97-18.216-3.618-25.675-1.727-19.458-2.483-50.375.54-57.942l.108-.271c1.133-2.865 3.563-8.81 7.559-15.512 1.727-2.865 3.51-5.405 5.236-7.891 1.999-2.811 3.833-5.459 5.4-8.323 5.344-9.677 6.153-13.568 6.748-18.378.864-6.865-.595-17.405-.648-17.837l-1.08-7.675s-4.805 3.838-5.561 4.487c-.27-8.486-1.997-16.647-2.106-17.134l-1.888-9.08s-4.211 5.296-5.344 6.81l-2.053-11.351c-.702-3.837 1.08-14.918 2.321-20.972l1.081-5.242h-40.006s-3.24 4.108-3.455 4.378c-.972.919-22.676 22.647-94.537 23.025z" fill="#fff"/><path d="m158.221 38.609c-76.125-.378-97.452-24.16-97.883-24.647-.108-.107-2.268-2.865-2.268-2.865h-32.448s3.456 16.594 2.376 22.647c0 0 4.265-5.405 3.725-17.728h23.972l.809 1.027c.217.27 21.489 26.052 101.718 26.484 80.23-.379 101.503-26.215 101.718-26.484l.809-1.027h23.972c-.54 12.323 3.726 17.727 3.726 17.727-1.08-6.107 2.375-22.646 2.375-22.646h-32.449s-2.159 2.758-2.267 2.865c-.38.487-21.758 24.322-97.885 24.647z"/><path d="m158.221 302.213c-5.938-3.731-30.072-17.135-50.75-22.972-17.547-4.973-58.309-10.757-64.788-16.162-6.479-5.458-10.474-13.351-10.474-20.322 0-7.514 5.724-31.079 7.127-49.727.809-10.648 2.969-45.294-1.297-60.968-3.401-12.486-16.358-27.349-20.569-35.998-5.453-11.242-4.589-20.646-4.589-20.646l11.283 8.269c-4.805-11.513-2.913-25.566-2.913-25.566 1.404 1.405 3.832 5.243 10.042 11.945-2.592-11.351-2.916-16.648-1.026-24.971 1.133 2 4.751 14.162 19.815 19.945 0 0-4.536 3.243-6.534 6.919-1.998 3.621-4.751 16.431-4.751 16.431l9.773-2.757s12.633-.108 17.547 2.865c4.913 3.027 5.399 10.161 5.129 12.431-.27 2.271-.864 9.892-18.303 2.758 0 0 4.265 7.026 11.662 7.026 6.263 0 10.961-4.757 10.961-12.216s-4.105-11.567-7.506-13.621c-3.401-2.053-17.276-4.486-23.485-2.594 0 0 .702-6.378 2.483-8.432 1.782-2.054 4.59-6.756 12.904-6.54 8.314.162 24.026 6.756 30.72 8.703-1.619-1.784-3.779-3.785-5.939-5.298 0 0 9.07-1.676 11.663-4.324-4.105.811-11.825 2-18.898-.27 0 0 2.592-3.297 3.672-4.919 1.08-1.621 4.859-6.486 10.204-6.486 5.183 0 11.824 2.325 14.686 4.216 2.861 1.891 7.45 5.405 12.633 7.351 5.183 1.999 13.012 3.027 15.981 2.324 0 0-4.21 5.026-10.203 7.458 0 0 4.643 4.919 5.453 8.054l-6.48.27s3.563 4.919 3.833 7.621c0 0-5.993.92-8.584 2.056 0 0 11.446 6.215 14.901 10.485-.432-3.46-3.023-6.864-5.183-9.081 0 0 2.969-.161 4.481-.107 0 0-2.16-5.568-3.24-7.351 0 0 3.402-.648 6.102-.162 0 0-3.834-9.242-5.724-11.134 0 0 9.664-5.189 16.521-14.972 0 0-9.125 3.243-15.712 3.243-6.533 0-11.77-2.593-13.605-3.783-1.89-1.189-9.61-7.027-13.822-8.539-4.211-1.514-11.662-3.838-18.303-.811s-8.314 10.701-13.604 12.918c0 0-15.495-.109-26.456-7.352-10.906-7.245-12.687-20.865-11.878-29.352-2.592 2.595-8.585 18.487-8.152 27.728l-6.48-8.161s-3.51 16.053-1.351 25.944l-7.342-5.945s-1.458 10.323-.648 16.701c.541 4.378 1.242 7.729 6.209 16.756 2.754 5.026 6.749 9.782 10.528 16.052 4.32 7.243 6.911 13.729 7.991 16.431 3.833 9.513 2.267 43.943.863 59.996s-6.748 40.538-6.748 49.456 6.046 19.241 12.794 23.944c8.532 5.945 49.781 11.675 65.545 16.431 19.221 5.837 42.761 15.08 51.776 20.431 9.017-5.35 32.557-14.594 51.777-20.431 15.766-4.811 57.015-10.486 65.545-16.432 6.748-4.702 12.795-15.026 12.795-23.945 0-8.917-5.291-33.402-6.748-49.455-1.404-16.053-2.97-50.483.863-59.995 1.081-2.703 3.618-9.19 7.991-16.431 3.779-6.271 7.775-11.027 10.528-16.054 4.967-9.082 5.669-12.378 6.209-16.756.81-6.378-.648-16.702-.648-16.702l-7.343 5.945c2.16-9.89-1.35-25.943-1.35-25.943l-6.476 8.163c.431-9.242-5.561-25.133-8.152-27.726.809 8.485-.972 22.16-11.933 29.402-10.959 7.242-26.454 7.351-26.454 7.351-5.291-2.271-7.019-9.892-13.606-12.918-6.64-3.028-14.091-.703-18.303.81-4.211 1.514-11.931 7.351-13.821 8.54-1.889 1.189-7.073 3.784-13.605 3.784-6.534 0-15.71-3.243-15.71-3.243 6.802 9.782 16.465 14.97 16.465 14.97-1.889 1.892-5.723 11.135-5.723 11.135 2.7-.432 6.102.163 6.102.163-1.081 1.783-3.24 7.35-3.24 7.35 1.512-.107 4.481.108 4.481.108-2.158 2.163-4.75 5.568-5.182 9.082 3.456-4.271 14.901-10.486 14.901-10.486-2.591-1.189-8.584-2.055-8.584-2.055.27-2.702 3.833-7.621 3.833-7.621l-6.479-.27c.81-3.135 5.454-8.054 5.454-8.054-5.993-2.433-10.204-7.459-10.204-7.459 2.969.702 10.743-.378 15.98-2.325 5.183-1.999 9.772-5.458 12.634-7.35 2.861-1.892 9.502-4.216 14.686-4.216 5.398 0 9.123 4.864 10.203 6.485 1.08 1.622 3.672 4.919 3.672 4.919-7.073 2.27-14.794 1.081-18.896.271 2.591 2.594 11.662 4.324 11.662 4.324-2.16 1.513-4.266 3.513-5.939 5.297 6.694-1.946 22.406-8.541 30.72-8.703 8.314-.161 11.122 4.487 12.904 6.541 1.782 2.053 2.483 8.432 2.483 8.432-6.209-1.891-20.084.54-23.486 2.594-3.401 2.054-7.504 6.216-7.504 13.621 0 7.459 4.643 12.215 10.96 12.215 7.397 0 11.663-7.027 11.663-7.027-17.44 7.134-18.034-.487-18.304-2.756-.27-2.271.27-9.405 5.13-12.432 4.912-3.026 17.546-2.865 17.546-2.865l9.772 2.758s-2.754-12.81-4.752-16.431c-1.997-3.622-6.533-6.919-6.533-6.919 15.064-5.784 18.681-17.945 19.815-19.945 1.89 8.323 1.619 13.621-1.026 24.971 6.155-6.648 8.639-10.539 10.042-11.945 0 0 1.89 14.053-2.861 25.62l11.284-8.269s.863 9.405-4.643 20.647c-4.211 8.648-17.169 23.512-20.57 35.998-4.266 15.673-2.106 50.32-1.297 60.968 1.404 18.647 7.128 42.213 7.128 49.726 0 6.972-3.996 14.864-10.475 20.323-6.479 5.405-47.241 11.242-64.789 16.161-20.461 5.729-44.594 19.133-50.533 22.863z"/><path d="m114.004 66.877c-2.916-1.513-5.507-3.297-7.558-4.702l-1.728-1.189c-2.376-1.569-8.477-3.784-13.336-3.784-4.373 0-7.504 4.432-8.098 5.35-.379.542-.864 1.244-1.404 1.947 4.103.648 8.854.432 14.038-.594l8.152-1.676-5.886 5.891c-1.673 1.676-5.075 2.972-7.99 3.784.809.756 1.619 1.513 2.321 2.324l6.046 6.594-8.583-2.485c-1.944-.541-4.535-1.46-7.558-2.541-7.182-2.541-16.954-5.945-22.569-6.054-6.209-.107-8.584 2.758-10.312 4.866l-.648.81c-.486.541-.972 2-1.35 3.729 7.397-.594 18.303 1.406 21.705 3.514 3.293 2.001 8.747 6.649 8.747 15.783 0 8.649-5.508 14.702-13.445 14.702-8.691 0-13.604-7.891-13.821-8.215l-3.995-6.54 7.073 2.918c9.232 3.784 12.526 2.811 13.498 2.216 1.026-.594 1.188-1.676 1.349-2.918.215-1.892-.324-7.783-3.942-9.999-3.401-2.108-12.309-2.54-15.872-2.487-.595.162-13.498 3.784-13.498 3.784l.864-4.108c.27-1.351 2.915-13.296 5.021-17.133 1.025-1.893 2.645-3.676 4.048-5.028-7.018-3.567-11.229-8.431-13.767-12.431 0 .54-.053 1.081-.053 1.568 0 3.999.702 8.323 2.159 14.648l2.16 9.241s-10.689-10.486-11.878-11.89c0 0 .216 9.945 2.484 15.89l3.456 8.323s-11.014-6.647-13.605-8.538c0 0 .594 5.242 3.024 11.241 1.295 3.081 6.91 11.622 7.396 12.377 5.399 7.946 11.446 16.919 13.767 25.297 2.051 7.458 2.645 19.025 2.645 30.268 0 13.134-.863 25.943-1.295 31.566-.756 10.214-2.862 22.051-4.535 31.564-1.404 7.892-2.593 14.755-2.593 17.945 0 1.189.109 2.378.38 3.567 12.255-7.621 36.874-19.133 78.878-24.267v-155.129h.108z" fill="#ed1c24"/><path d="m36.366 21.259-.702 7.026c-.107 1.135-.162 2.325-.162 3.514 0 8.431 2.862 18.161 10.961 23.565 8.962 5.945 21.541 6.811 24.457 6.919 1.728-.865 3.077-2.649 4.643-4.756 2.106-2.811 4.481-6.055 8.53-7.892 7.181-3.297 14.956-1.189 20.193.702 2.753.974 6.533 3.46 9.718 5.623v-12.864c-46.755-7.299-59.822-24.325-59.822-24.325h-17.436l-.379 2.486z" fill="#ed1c24"/><path d="m192.397 90.011c1.999.378 4.535.972 6.209 1.675v-23.134h-.054c-2.808 1.081-6.749 2-10.365 2.433 1.349.973 2.915 1.945 4.642 2.648l3.401 1.405-2.537 2.703c-.972 1.027-2.214 2.54-3.24 4l7.181.324-2.754 3.784c-.809 1.296-1.781 2.864-2.483 4.161zm-64.194-18.972c-3.563-.432-7.505-1.351-10.312-2.432v23.078c1.619-.702 4.158-1.296 6.155-1.675-.648-1.351-1.619-2.919-2.537-4.161l-2.754-3.785 7.181-.324c-1.026-1.459-2.268-2.972-3.24-3.999l-2.537-2.703 3.455-1.406c1.729-.648 3.24-1.621 4.59-2.594z" fill="#009b69"/><path d="m118.593 59.093c.917.541 5.777 3.406 12.31 3.406 6.046 0 14.739-3.081 14.847-3.081l7.397-2.594-4.481 6.432c-5.074 7.243-11.553 12.053-14.954 14.323 1.835 3.135 3.779 7.675 4.481 9.405l1.781 4.215-4.481-.757c-.594-.107-1.187-.107-1.836-.107.864 1.945 1.62 3.891 1.727 4.269l1.404 3.676s-1.943-.108-3.023-.163c1.188 1.838 2.16 3.947 2.429 6.27l1.081 8.864-5.562-6.972c-2.483-3.08-10.528-7.891-13.767-9.675v125.127c12.039-1.352 25.429-2.163 40.33-2.216 14.901.053 28.345.919 40.385 2.216v-125.29c-3.239 1.784-11.338 6.595-13.876 9.73l-5.56 6.972 1.079-8.864c.27-2.323 1.297-4.431 2.43-6.269-1.079.054-3.023.162-3.023.162l1.404-3.676c.108-.323.917-2.323 1.727-4.269-.648 0-1.296.053-1.836.108l-4.481.756 1.782-4.216c.702-1.676 2.645-6.269 4.481-9.404-3.455-2.216-9.934-7.027-14.955-14.323l-4.482-6.433 7.397 2.595c.108.054 8.8 3.081 14.847 3.081 6.48 0 11.393-2.811 12.311-3.406l.756-.487v-14.808c-11.446 1.567-24.837 2.593-40.385 2.648-15.549-.054-28.884-1.081-40.33-2.649v14.917c.323.271.647.487.647.487z" fill="#009b69"/><path d="m202.44 66.877c2.915-1.513 5.507-3.297 7.559-4.702l1.726-1.189c2.376-1.569 8.478-3.784 13.337-3.784 4.373 0 7.505 4.432 8.098 5.35.377.542.863 1.244 1.403 1.947-4.103.648-8.854.432-14.037-.594l-8.152-1.676 5.885 5.891c1.673 1.676 5.074 2.972 7.99 3.784-.81.756-1.619 1.513-2.321 2.324l-6.047 6.593 8.584-2.485c1.944-.541 4.535-1.46 7.558-2.541 7.182-2.54 16.954-5.945 22.569-6.053 6.208-.108 8.584 2.757 10.312 4.865l.648.811c.486.54.972 2 1.35 3.729-7.396-.595-18.302 1.406-21.704 3.514-3.239 2-8.746 6.648-8.746 15.783 0 8.648 5.507 14.702 13.443 14.702 8.692 0 13.606-7.891 13.822-8.216l3.995-6.54-7.072 2.919c-9.232 3.784-12.526 2.81-13.497 2.216-1.026-.595-1.189-1.676-1.35-2.918-.216-1.893.324-7.784 3.94-10 3.403-2.108 12.311-2.54 15.875-2.486.593.162 13.496 3.783 13.496 3.783l-.863-4.108c-.27-1.351-2.916-13.296-5.022-17.133-1.024-1.892-2.645-3.676-4.049-5.028 7.019-3.567 11.23-8.431 13.768-12.431 0 .541.054 1.082.054 1.569 0 3.999-.702 8.323-2.16 14.647l-2.16 9.242s10.691-10.486 11.878-11.891c0 0-.215 9.945-2.483 15.89l-3.455 8.323s11.014-6.647 13.606-8.538c0 0-.595 5.242-3.023 11.242-1.297 3.081-6.911 11.621-7.398 12.377-5.398 7.946-11.445 16.918-13.767 25.296-2.052 7.459-2.646 19.026-2.646 30.268 0 13.134.864 25.943 1.296 31.566.756 10.214 2.861 22.052 4.535 31.565 1.404 7.891 2.591 14.755 2.591 17.944 0 1.189-.107 2.378-.377 3.567-12.256-7.621-36.876-19.133-78.88-24.267v-155.128h-.108z"/><path d="m279.754 18.826h-17.439s-13.066 17.026-59.767 24.269v12.809c3.13-2.162 6.911-4.594 9.664-5.567 5.236-1.891 13.012-4.054 20.192-.702 4.05 1.891 6.426 5.081 8.531 7.891 1.566 2.108 2.915 3.892 4.644 4.756 2.915-.107 15.44-.972 24.457-6.917 8.098-5.406 10.96-15.135 10.96-23.567 0-1.189-.054-2.378-.162-3.513l-.702-7.027zm-88.76 176.312v-1.46h-2.862l-.054.325c-.215.865-.647 1.406-1.296 1.676-.647.27-1.889.432-3.725.432h-35.849v-18.27h14.955l3.888.379c.053.055.107.055.215.108.107.217.216.433.27.702l.053.272h.703c.108.215.216.432.27.702h2.267v-16.216h-.215v-1.566h-2.97l-.055.324c-.215.919-.594 1.514-1.241 1.73-.433.215-1.459.432-3.725.432h-14.363v-16.377h34.285l3.887.487c.053.053.161.053.216.108.107.161.215.378.269.594l.055.27h.593c.107.215.215.486.324.756h2.267v-16.324h-.215v-1.08h-.379v-.378h-2.696l-.054.324c-.216.864-.648 1.459-1.296 1.729l-3.779.432h-55.88v2.703h.378c.216 0 .432.054.648.054v.648c1.889.216 3.24.432 4.103.864.216.38.325.92.325 1.623v61.455c0 .702-.108 1.676-.757 2.162-.701.433-2.105.811-3.886.919l-.378.054v2.703h.972v.757h57.391l3.887.487c.055 0 .108.054.162.054.163.27.324.54.432.919l.108.27h.593c.108.216.217.487.27.757h2.268v-16.539h-.378zm75.208 4.433-.54-.594.215-.163.27-.27-.27-.27-13.335-15.081-.162-.162-.217.054-1.943.595-.432.162.217.432c.377.702.594 1.567.594 2.702 0 2.163-1.62 4.162-4.914 6.108-3.347 1.999-7.18 2.972-11.446 2.972-7.072 0-12.634-2.215-16.953-6.809-3.238-3.353-5.29-7.568-6.1-12.54-.162-1.244-.216-2.596-.216-3.947 0-17.405 8.152-26.106 24.457-26.106 4.212 0 7.937.919 11.123 2.81.755.433 1.404.919 1.997 1.406 1.188 1.243 1.781 2.594 1.835 4.054l-.162 1.296.378.055-.161.379.917.378-.054.432 1.404.541 10.475-16.54-.54-.487.27-.377.162-.271-.27-.216-1.026-.917-.215-.163-.216.163c-1.297.809-2.376 1.189-3.294 1.189-.162 0-.756-.056-2.429-1.028l-4.697-2.324c-5.022-2.325-10.528-3.514-16.468-3.514-5.236 0-10.258.811-14.955 2.324-4.858 1.568-9.232 3.892-12.902 6.973-8.315 6.919-12.581 16.648-12.581 28.809 0 4.973.864 9.675 2.592 14.053 1.836 4.486 4.373 8.432 7.558 11.729.217.27.487.487.756.702l.162.163c7.073 7.242 16.468 10.864 28.075 10.864 8.207 0 15.226-1.622 20.894-4.919l5.022-3.243c1.404-1.026 2.483-1.567 3.185-1.567.648 0 1.242.216 1.836.649l.162.216.054-.054c.215.162.377.378.594.594l1.295-1.242zm-147.447-59.779c.487-.487 1.404-.867 2.7-1.082v-1.838h-.216v-1.568h-22.351v2.649l.323.054c.27.054.486.108.702.162v.541c.917.161 1.62.378 2.107.648.215.432.376 1.027.376 1.838v41.997c-1.511-3.352-6.37-10.973-14.738-23.187-9.557-13.945-12.58-18.755-13.552-20.431.054-.216.216-.378.487-.487l2.321-.377v-1.838h-.324v-1.569h-26.835v2.65l.325.054c.27.053.485.108.702.161v.541c.702.162 1.241.324 1.619.54.27.433.378 1.082.378 1.946v61.456c0 .973-.215 1.784-.647 2.216-.486.432-1.404.757-2.646.973l-.323.054v2.648h.97v.702h21.597v-1.837c-.108 0-.162-.054-.216-.054v-1.459l-.324-.054c-1.457-.27-2.105-.648-2.429-.973-.107-.107-.216-.324-.324-.541 0-.162-.054-.379-.054-.594v-47.133c2.429 5.136 8.099 14.054 17.277 27.08l9.879 13.891c3.617 5.189 4.157 6.432 4.212 6.702 0 .487-.216.811-.702 1.026l-2.052.541-.27.055v2.648h1.08v.702h23.053v-1.838c-.108 0-.162-.053-.215-.053v-1.406l-.325-.053c-1.296-.271-1.781-.595-1.943-.811-.108-.108-.215-.325-.323-.541 0-.215-.055-.432-.055-.702v-61.563c0-1.189.216-1.946.756-2.486z"/><path d="m187.053 208.165c-.756-.325-2.107-.487-4.049-.487h-57.014v-1.189c1.781-.162 3.185-.541 3.941-1.027.755-.541 1.079-1.513 1.079-2.811v-61.509c0-1.405-.432-2.378-1.188-2.811l.055.055c-.756-.594-2.214-.974-4.266-1.135v-1.189h55.178l3.887-.487h.109c.809-.324 1.404-1.026 1.674-1.998h1.566v15.457h-1.619c-.325-.81-.865-1.459-1.675-1.784h-.108l-3.887-.378h-34.607v18.647h15.332c1.944 0 3.294-.162 4.049-.487.756-.324 1.297-.972 1.62-1.999h1.566v15.512h-1.566c-.27-.865-.809-1.459-1.619-1.784-.864-.324-2.106-.487-4.05-.487h-15.332v20.54h36.82c1.998 0 3.293-.162 4.049-.487.81-.324 1.404-.972 1.674-1.891h1.512v15.674h-1.512c-.324-.973-.864-1.621-1.619-1.945zm74.505-10.216c-.809 0-1.834.487-3.4 1.567l-5.022 3.352c-5.399 3.134-12.31 4.756-20.569 4.756-11.5 0-20.841-3.622-27.806-10.756-3.13-3.189-5.615-7.026-7.343-11.459-1.673-4.27-2.537-8.917-2.537-13.783 0-11.945 4.103-21.403 12.256-28.214 3.617-3.026 7.883-5.35 12.687-6.864 4.59-1.513 9.556-2.324 14.685-2.324 5.832 0 11.231 1.189 16.144 3.46l4.643 2.324c1.349.757 2.267 1.135 2.807 1.135.972 0 2.159-.378 3.455-1.189l.38.325-10.097 15.998-.917-.378.107-1.027c0-2.594-1.674-4.919-5.022-6.864-3.293-1.947-6.964-2.92-11.229-2.92-16.467 0-24.836 8.918-24.836 26.538 0 7.406 2.268 13.513 6.695 18.162 4.428 4.648 10.312 7.026 17.493 7.026 4.373 0 8.369-1.027 11.824-3.08 3.563-2.108 5.291-4.324 5.291-6.757 0-1.081-.162-1.891-.486-2.648l1.297-.433 12.902 14.593-.755.702c-.756-.811-1.728-1.243-2.646-1.243zm-143.775-59.563c-.54.54-.809 1.459-.809 2.756v61.456c0 1.404.269 2.378.809 2.918.378.432 1.026.756 2.052.973v1.242h-22.405v-1.242l1.781-.487h.109c.755-.379 1.133-.973 1.133-1.73 0-.487-.54-1.676-4.32-7.134l-9.88-13.892c-10.096-14.377-15.981-23.674-17.871-28.43l-.107-.217h-.972v48.051c0 1.297.269 2.216.809 2.756.486.487 1.35.866 2.538 1.136v1.243h-20.787v-1.244c1.243-.216 2.16-.595 2.754-1.081.595-.595.917-1.568.917-2.757v-61.563c0-1.296-.269-2.216-.809-2.756-.432-.487-1.134-.865-2.214-1.135v-1.244h25.376v1.244l-1.943.324h-.109c-.595.216-.864.648-.864 1.189 0 .324 0 1.082 14.037 21.567 9.395 13.728 14.469 21.835 15.063 24.106l.055.27h1.026v-43.674c0-1.351-.324-2.27-.918-2.756l.054.054c-.432-.54-1.242-.864-2.645-1.134v-1.244h20.785v1.244c-1.296.324-2.106.702-2.645 1.189z" fill="#fff"/><path d="m73.133 243.242c.649 0 .917.217.917.866v11.891c0 .595-.322.865-.917.865v.487h5.453v-.487c-.594 0-.917-.217-.917-.865v-8.864h.053l7.613 8.54c.324.324.486.594.486.757 0 .215-.162.323-.486.378v.487h5.669v-.487c-.539 0-.864-.216-.864-.865v-11.891c0-.594.325-.865.864-.865v-.487h-5.291v.487c.54 0 .864.215.864.865v8.648h-.054l-6.426-7.621c-.7-.757-1.024-1.243-1.024-1.405 0-.217.215-.379.593-.487v-.487h-6.533v.541zm31.153.001v-.486h-5.832v.487c.595 0 .919.215.919.864v11.891c0 .595-.324.865-.917.865v.487h5.83v-.487c-.595 0-.917-.217-.917-.865v-11.891c-.055-.649.269-.865.917-.865zm17.655 0v-.486h-5.832v.487c.54 0 .864.215.864.864v9.567c0 1.027-.863 1.459-2.536 1.459-.756 0-1.404-.162-1.944-.487-.54-.378-.864-.864-1.026-1.404l-.486-.163-1.566 3.514.378.053.756-.324 1.458.541c1.187.378 2.159.54 3.077.54 1.781 0 3.185-.324 4.212-1.027 1.024-.702 1.565-1.73 1.565-2.972v-9.405c.108-.541.486-.757 1.08-.757zm13.659-.001v-.485h-6.91v.487c.594 0 .917.215.917.864v11.891c0 .595-.215.865-.702.865v.487h4.751v-.487c-.54 0-.756-.217-.756-.865v-10.162h.054c.702 1.569 1.727 3.567 2.97 5.838l3.239 5.675h.594l6.694-11.675h.055v10.324c0 .595-.324.865-.864.865v.487h5.291v-.487c-.648 0-.917-.217-.917-.865v-11.891c0-.595.322-.865.917-.865v-.486h-6.856v.487l.593.378c0 .324-.162.756-.54 1.404l-4.319 7.298h-.054l-4.103-7.298-.594-1.404c-.054-.163.162-.325.54-.38zm27.265 5.352v-3.513h8.315c.701 0 1.079.216 1.187.865h.594v-3.784h-.594c-.054.378-.487.648-1.188.648h-13.12v.487c.539 0 .863.215.863.865v11.89c0 .595-.324.867-.863.867v.485h13.12c.7 0 1.078.162 1.187.54h.594v-3.728h-.594c-.055.54-.487.864-1.188.864h-8.314v-4.054h4.967c.702 0 1.08.216 1.241.757h.594v-3.783h-.595c-.161.487-.539.702-1.241.702h-4.967v-.108zm21.326-2c1.08-1.189 2.538-1.729 4.32-1.729 1.241 0 2.429.216 3.347.54.756.379 1.241.757 1.241 1.189l-.053.487.539.162 2.862-3.514-.487-.324c-.215.324-.539.487-.917.487l-1.944-.595c-1.457-.487-3.023-.702-4.642-.702-2.862 0-5.184.702-6.966 2.161-1.726 1.406-2.537 3.189-2.537 5.351 0 2.001.864 3.784 2.646 5.189 1.836 1.459 4.103 2.161 6.803 2.161 1.998 0 3.779-.216 5.453-.864 1.296-.378 2.321-1.027 3.023-1.622v-.216c-.378-.054-.593-.216-.593-.487v-3.513c0-.324.215-.487.594-.54v-.487h-7.397c-.54 0-.864-.162-.918-.54h-.595v3.189h.595c.162-.324.487-.487.918-.487h3.239v2.325c-1.242.594-2.483.864-3.725.864-1.891 0-3.402-.487-4.589-1.459-1.188-.919-1.728-2.108-1.728-3.513.055-1.296.487-2.541 1.513-3.513zm19.868-3.837v.487c.54 0 .864.215.864.864v11.891c0 .595-.324.865-.864.865v.487h13.12c.702 0 1.08.161 1.188.54h.702v-3.729h-.702c-.054.54-.486.865-1.188.865h-8.314v-4.054h4.967c.702 0 1.08.216 1.241.756h.649v-3.783h-.648c-.161.487-.539.702-1.241.702h-4.967v-3.513h8.314c.702 0 1.08.217 1.188.866h.702v-3.784h-.702c-.054.379-.486.648-1.188.648h-13.119v-.107zm25.807 4.378h.055l7.612 8.54.486.757c0 .215-.053.323-.377.378v.487h5.669v-.487c-.648 0-.917-.216-.917-.865v-11.891c0-.594.322-.865.917-.865v-.487h-5.345v.487c.594 0 .864.215.864.865v8.648l-6.534-7.621c-.647-.757-1.024-1.243-.917-1.405 0-.217.162-.379.594-.487v-.487h-6.587v.487c.595 0 1.026.216 1.026.865v11.89c0 .595-.378.866-1.026.866v.486h5.507v-.486c-.702 0-1.026-.216-1.026-.865v-8.81zm-113.325 19.404-.485-.216-1.08-.162c-1.188 0-1.782.487-1.782 1.459 0 .594.54 1.081 1.566 1.296 1.026.325 1.458.65 1.458 1.028 0 .54-.377.864-1.241.864-.756 0-1.243-.324-1.243-.865h-.054l-.594 1.081.162.053.163-.162.485.217 1.188.215c1.242 0 1.944-.54 1.944-1.567 0-.702-.54-1.189-1.566-1.459-1.024-.217-1.565-.541-1.565-.865 0-.541.378-.757 1.188-.757.809 0 1.188.217 1.188.594l.163.055.485-.919-.054-.054-.324.163zm6.479-.271c.216 0 .324.163.324.38v4.215c0 .215-.054.324-.324.378v.054h1.297v-.054c-.163-.054-.325-.162-.325-.378v-4.216c0-.216.162-.379.323-.379v-.054h-1.295zm9.125 0v-.054h-1.458v.054c.162 0 .216.163.216.38v4.215l-.216.378v.054h1.079v-.054l-.215-.378v-3.784l2.321 4.054-.215.161v.055h1.242v-.054l-.216-.378v-4.432l.217-.163v-.108h-1.188v.054c.162 0 .215.162.215.379v3.188l-1.943-3.405.162-.162zm12.634.379-.162.108c-.38-.487-1.027-.649-1.621-.649-.702 0-1.242.217-1.619.758-.487.487-.594 1.081-.594 1.837 0 1.73.755 2.649 2.321 2.649.594 0 1.188-.215 1.619-.702l.162.054.162-.054-.7-.919-.162.054.053.216-.377.378c-.215.217-.54.325-.863.325-1.026 0-1.566-.702-1.566-2 0-1.405.54-2 1.566-2l.863.217.324.378v.163l.054.054.595-.864h-.054zm6.046-.433v.054c.054 0 .162.163.162.38v4.215c0 .215-.054.324-.162.378v.054h3.24c.215 0 .324.054.377.163h.054v-1.028h-.054l-.377.217h-2.321v-1.73h1.619c.215 0 .324.054.324.216h.162v-1.081h-.162c0 .162-.054.217-.324.217h-1.619v-1.622h2.267c.216 0 .323.054.378.324h.053v-1.082h-.053l-.324.217h-3.24v.109zm18.087.595v.919h.054l.215-.216.378-.162v3.513l-.216.378v.054h1.188v-.054l-.215-.378v-4.216l.215-.379v-.054h-1.188v.054l.216.217c0 .323-.054.378-.378.378-.054 0-.162 0-.215-.055h-.055zm12.634 1.783c0-1.621-.594-2.485-1.944-2.485-1.188 0-1.781.648-1.781 1.729 0 1.082.538 1.622 1.619 1.622.539 0 1.024-.217 1.404-.649 0 1.296-.487 2-1.404 2-.54 0-.757-.217-.757-.595v-.054l-.162-.053-.647.865.053.054.054-.054.486.215.917.217c.649 0 1.08-.217 1.458-.702.486-.541.702-1.244.702-2.109zm-1.944-1.837c.756 0 1.08.324 1.08 1.082 0 .702-.324 1.08-1.08 1.08-.702 0-1.08-.378-1.08-1.082 0-.756.378-1.08 1.08-1.08zm11.392.054c-.378-.487-.917-.702-1.566-.702-.702 0-1.188.215-1.565.702-.379.541-.54 1.189-.54 1.946 0 .756.161 1.404.54 1.837.377.54.863.757 1.565.757.595 0 1.188-.215 1.566-.757.324-.487.539-1.081.539-1.837 0-.758-.215-1.406-.538-1.947zm-.216 1.946c0 1.297-.486 1.999-1.296 1.999-.918 0-1.404-.702-1.404-1.999 0-1.406.486-2 1.404-2 .81 0 1.296.594 1.296 1.999zm8.477-2.649c-.594 0-1.189.217-1.566.703-.324.541-.54 1.189-.54 1.946 0 .756.215 1.404.54 1.837.378.54.917.757 1.565.757.703 0 1.188-.215 1.565-.757.378-.487.54-1.081.54-1.837 0-.758-.162-1.406-.54-1.947-.432-.432-.863-.702-1.565-.702zm0 4.703c-.864 0-1.296-.702-1.296-2 0-1.406.485-2 1.296-2 .917 0 1.403.594 1.403 2 0 1.296-.486 2-1.404 2z"/></g></svg>