<svg clip-rule="evenodd" fill-rule="evenodd" stroke-linejoin="round" stroke-miterlimit="2" viewBox="0 0 560 400" xmlns="http://www.w3.org/2000/svg"><g fill="#6b0e89" fill-rule="nonzero"><path d="m30 234.12v-68.16h18.5l31.159 41.87v-41.87h18.501v68.16h-18.501l-31.159-42.173v42.173z"/><path d="m120.068 234.12v-68.16h45.278v15.093h-26.777v11.441h25.803v14.849h-25.803v11.684h26.777v15.093z"/><path d="m215.005 234.12h-18.987v-53.067h-18.014v-15.093h55.014v15.093h-18.013z"/><path d="m278.053 196.145h36.513c0 26.124-13.736 39.989-36.049 39.989-21.596 0-37.806-13.189-37.806-35.313 0-22.834 14.706-36.955 37.38-36.955 25.634 0 32.64 19.085 32.64 19.085l-17.566 6.99s-4.115-10.758-15.682-10.758c-8.468 0-17.444 6.391-17.444 21.334 0 12.51 8.026 21.151 18.356 21.151 9.239 0 13.794-5.278 14.507-11.891h-14.849z"/><path d="m412.181 165.966-24.951 68.16h19.109l4.26-12.658h24.708l4.26 12.658h19.23l-25.194-68.16zm10.711 17.649 8.155 24.464h-16.127z"/><path d="m470.117 165.966v68.16h18.5v-26.29h1.461l17.04 26.29h22.882l-21.482-28.024c7.42-1.168 15.548-6.837 15.548-19.018 0-11.966-7.538-21.118-25.894-21.118zm18.5 13.632h4.869c9.582 0 11.928 3.496 11.928 8.52 0 6.049-3.867 8.52-11.928 8.52h-4.869z"/><path d="m330.876 234.12v-68.16h45.278v15.093h-26.777v11.441h25.803v14.849h-25.803v11.684h26.777v15.093z"/></g></svg>