<svg clip-rule="evenodd" fill-rule="evenodd" stroke-miterlimit="2.6131" viewBox="0 0 560 400" xmlns="http://www.w3.org/2000/svg"><g transform="matrix(3.07062 0 0 3.07062 -2667.34 -1460.75)"><path d="m959.9 492c13.5 0 25.7 5.5 34.5 14.3 8.9 8.9 14.3 21.1 14.3 34.5 0 26.9-22 48.9-48.9 48.9-13.5 0-25.7-5.5-34.5-14.3-8.9-8.9-14.3-21.1-14.3-34.5 0-26.9 22-48.9 48.9-48.9zm0 4.5c-24.4 0-44.4 19.9-44.4 44.4 0 11.8 4.7 23 13 31.4 8.3 8.3 19.5 13 31.4 13 24.4 0 44.4-19.9 44.4-44.4 0-11.8-4.7-23-13-31.4-8.4-8.3-19.6-13-31.4-13z" fill="#f59d10"/><path d="m959.9 494.3c12.8 0 24.5 5.2 33 13.7 8.4 8.4 13.7 20.1 13.7 33 0 25.7-21 46.6-46.6 46.6-12.8 0-24.5-5.2-33-13.7-8.4-8.4-13.7-20.1-13.7-33 0-25.7 20.9-46.6 46.6-46.6zm0 13.3c9.2 0 17.5 3.7 23.5 9.8 6 6 9.8 14.3 9.8 23.5 0 18.3-14.9 33.3-33.3 33.3-9.2 0-17.5-3.7-23.5-9.8-6-6-9.8-14.3-9.8-23.5 0-18.3 15-33.3 33.3-33.3z"/><g fill="#fff"><path d="m925.9 530.2-6.3-2.2.7-2 4.9-.4-4.2-1.5.4-1.4 6.3 2.2-.6 1.9-5 .5 4.3 1.4z"/><path d="m928.2 524.4-6-2.9 1.9-3.8 1.1.5-1.2 2.4 1.3.6 1.1-2.3 1.1.6-1.1 2.2 1.4.7 1.2-2.5 1.1.6z"/><path d="m930.6 519.7-6-3.4 1.1-1.2 4.4 2.8-3.3-4 1.3-1.6 4.4 2.8-3.3-4 1-1.2 4.2 5.4-1.4 1.6-4.4-2.7 3.3 3.9z"/><path d="m935.4 514.3-4.4-5 1.5-1.3c.7-.6 1.3-.9 1.9-.9s1.1.2 1.6.8c.4.5.6 1 .6 1.6-.1.6-.4 1.1-1 1.6l-.5.4 1.5 1.8zm-2.4-5.1 1.2 1.4.3-.3c.2-.2.4-.4.4-.6s0-.5-.3-.7c-.2-.2-.4-.4-.7-.3-.2 0-.5.1-.7.3z"/><path d="m937 508.3c-.6-.9-.8-1.8-.6-2.6.1-.8.6-1.4 1.5-1.9.8-.5 1.6-.6 2.4-.4.8.3 1.4.8 2 1.8.6.9.8 1.8.6 2.6-.1.8-.6 1.4-1.5 1.9-.8.5-1.6.6-2.4.4-.7-.3-1.4-.9-2-1.8zm1.5-.9c.3.5.7.9 1 1.1.4.2.8.3 1.2 0 .4-.2.6-.6.6-1.1 0-.4-.2-.9-.5-1.4s-.7-.9-1-1.1c-.4-.2-.8-.2-1.2 0s-.6.6-.6 1.1c0 .4.2.9.5 1.4z"/><path d="m944.3 507.9-2.7-6.1 2.6-1.2c.5-.2 1-.3 1.4-.2.5.1.8.4 1 .9.4.8.2 1.5-.4 2 .2 0 .4 0 .5.1 0 0 .3.3.9.9l1.3 1.4-1.5.7-.8-1c-.4-.5-.7-.7-.9-.9-.2-.1-.5-.1-.7 0l-.3.1 1.1 2.4zm-.7-5.5.6 1.4.4-.2c.3-.2.6-.3.7-.4.2-.2.2-.5.1-.8s-.3-.4-.6-.4c-.2 0-.5.1-.8.2z"/><path d="m950.3 505.6-1.3-5.2-1.4.3-.3-1.2 4.4-1.1.3 1.2-1.4.4 1.3 5.2z"/><path d="m959.4 502.6.2 1.4c-.3.1-.6.2-.7.3-.3.1-.6.2-1 .2-.9.1-1.7-.1-2.4-.5-.8-.5-1.3-1.4-1.4-2.5s.1-2 .7-2.7c.6-.6 1.3-1 2.4-1.1h.9c.3 0 .6.1 1 .2v1.4c-.5-.3-1.1-.4-1.6-.3-.6.1-1 .3-1.3.7s-.4 1-.4 1.6c.1.6.3 1.1.7 1.5.4.3.9.5 1.5.4.3 0 .5-.1.7-.2s.5-.3.7-.4z"/><path d="m959.4 500.8c.1-1.1.4-1.9 1-2.5s1.3-.8 2.3-.7 1.7.5 2.2 1.1.7 1.5.6 2.6-.4 1.9-1 2.5-1.3.8-2.3.7-1.7-.5-2.2-1.1c-.5-.7-.7-1.6-.6-2.6zm1.7.1c-.1.6 0 1.1.2 1.5.2.5.5.7 1 .7s.8-.1 1.1-.6c.2-.4.4-.8.4-1.4.1-.6 0-1.1-.2-1.5s-.5-.7-1-.7-.8.1-1.1.5c-.2.4-.4.9-.4 1.5z"/><path d="m972.5 499.7-1.1 4c-.2.9-.7 1.4-1.3 1.7s-1.2.3-2 .1-1.3-.6-1.7-1.1c-.3-.6-.4-1.3-.2-2.1l1.1-4 1.5.4-1.1 3.7c-.1.5-.2.9-.1 1.2.1.4.3.6.7.7s.7 0 .9-.2.4-.6.5-1l1.1-3.7z"/><path d="m971.3 506.2 2.7-6.1 1.9.8v5l1.9-4.1 1.3.6-2.7 6.1-1.8-.8-.1-5.1-1.8 4.2z"/><path d="m977.9 509.4 2.9-4.5-1.2-.8.7-1.1 3.8 2.5-.7 1.1-1.2-.8-2.9 4.5z"/><path d="m982 512.3 1.6-1.9.8-4.7 1.5 1.2-.8 2.8 2.6-1.3 1.5 1.1-4.4 1.9-1.6 1.9z"/><path d="m985 514.6 6.6-2.4 1.2 1.5-3.7 6-1.1-1.4.8-1.2-1.4-1.8-1.4.5zm4.7 1.4 1.6-2.2-2.5 1z"/><path d="m989.2 519.8 5.6-3.6 2.2 3.5-1.1.6-1.3-2-1.2.8 1.2 1.9-1.1.7-1.2-2-2.3 1.4z"/><path d="m994.9 527.5-1.3.6c-.2-.3-.4-.5-.5-.6-.2-.3-.3-.6-.5-.9-.4-.9-.4-1.7-.2-2.5.3-.9.9-1.6 2-2.1 1-.4 2-.5 2.8-.1.8.3 1.4 1 1.8 2 .1.3.2.5.3.8s.1.6.1 1l-1.4.4c.1-.6 0-1.1-.2-1.6s-.6-.9-1.1-1c-.5-.2-1.1-.1-1.6.1-.6.3-1 .6-1.2 1.1s-.2 1 0 1.6c.1.2.2.5.4.7.3.1.4.3.6.5z"/><path d="m918.4 553.4 5.7-1.7-1.5-1 1.2-1.3 2.5 1.9.5 1.6-7.8 2.4z"/><path d="m920.2 558 1.5-.6v.7c0 .3.1.6.3.9.3.6.7.9 1.2.9s1-.1 1.7-.5c-.3 0-.6-.1-.9-.3-.2-.2-.5-.4-.6-.7-.3-.6-.3-1.2-.1-1.8s.7-1 1.4-1.4c.7-.3 1.4-.4 2.1-.2s1.3.7 1.6 1.4c.4.9.4 1.7 0 2.5-.4.7-1.1 1.3-2.1 1.8-1.2.6-2.3.9-3.2.8-1-.1-1.8-.6-2.4-1.7-.3-.5-.5-1.1-.5-1.8zm6.3.5c.3-.2.5-.4.7-.6.1-.3.1-.5 0-.8s-.3-.4-.6-.5c-.3 0-.6 0-.8.2-.3.2-.6.4-.7.6s-.2.5 0 .8c.1.3.3.4.6.5.2 0 .5 0 .8-.2z"/><path d="m924.1 565.8 4.9-3.5-1.7-.5.7-1.6 2.9 1.1 1 1.4-6.6 4.7z"/><path d="m926.9 569.7 1.1-1.1h2.1c.8 0 1.4-.1 1.9-.1.6-.1 1-.3 1.2-.5s.4-.5.3-.7c0-.3-.1-.5-.4-.7-.2-.2-.5-.4-.8-.6s-.6-.3-.9-.4l1.1-1.2c.5.2.8.4 1.1.6s.5.4.7.6c.6.6 1 1.2 1 1.9.1.7-.2 1.3-.7 1.8s-1.2.8-2.2 1c-.6.1-1.3.1-2.1.1h-.7l2.1 2.1-1.1 1.1z"/><path d="m989 573.8-3.9-4.6-.4 1.8-1.6-.5.7-3.1 1.3-1.1 5.4 6.2z"/><path d="m992.2 570.2-1.2-1.1c.2-.1.4-.2.7-.3s.4-.4.7-.6c.4-.5.5-1 .3-1.5-.1-.4-.5-.9-1.1-1.4.1.3.1.6.1.9-.1.3-.2.6-.4.9-.4.5-.9.8-1.6.8-.6 0-1.2-.2-1.8-.7s-.9-1.1-1-1.8.1-1.4.6-2.1c.6-.8 1.4-1.1 2.3-1 .8.1 1.6.5 2.5 1.2 1.1.9 1.8 1.7 2.1 2.6.3 1 .2 1.9-.6 2.8-.5.6-1 1-1.6 1.3zm-2.1-6c-.3-.2-.6-.3-.8-.4s-.5.1-.7.3-.2.5-.2.7c.1.3.2.5.5.7s.6.4.9.4.5-.1.7-.3.2-.5.2-.8c-.2-.1-.3-.4-.6-.6z"/><path d="m991.5 562c-.7-.4-1.1-1-1.1-1.7-.1-.6.1-1.2.5-1.9s.9-1.1 1.4-1.3c.6-.2 1.1-.2 1.7.2.4.2.7.5.8.9s.2.7.1 1.1c.4-.3.8-.5 1.1-.6.4-.1.9 0 1.4.3.7.4 1.1 1 1.2 1.7.1.6-.1 1.3-.6 2-.4.7-.9 1.2-1.5 1.5s-1.3.2-2-.2c-.5-.3-.8-.6-.9-1.1-.1-.4-.1-.8 0-1.2-.3.2-.6.4-1 .4-.4.2-.8.1-1.1-.1zm5-1.3c-.3-.2-.6-.2-.9-.1-.2.1-.5.2-.7.4 0 .3 0 .6.1.8.1.3.3.5.5.6s.5.2.8.1.5-.2.6-.4c.2-.3.2-.5.1-.8-.1-.2-.3-.4-.5-.6zm-4.1-.2c.2.1.5.2.7.1.1 0 .4-.2.7-.3 0-.4 0-.6-.1-.8s-.2-.4-.5-.5c-.2-.1-.5-.2-.7-.1s-.4.2-.5.4-.2.4-.1.7c.1.2.3.4.5.5z"/><path d="m1000 558.7-1.5-.7c.2-.1.3-.3.5-.5s.3-.5.4-.8c.2-.6.2-1.1-.2-1.5-.3-.4-.8-.7-1.5-.9.2.3.3.5.4.8 0 .3 0 .6-.1 1-.2.6-.6 1-1.2 1.3-.6.2-1.2.2-1.9-.1s-1.2-.7-1.6-1.4c-.3-.7-.4-1.4-.1-2.1.3-.9 1-1.5 1.9-1.7.8-.2 1.7-.1 2.8.3 1.3.5 2.2 1.1 2.8 1.8.7.8.8 1.8.4 2.9-.3.6-.7 1.1-1.1 1.6zm-3.9-5c-.3-.1-.6-.1-.9-.1-.3.1-.5.3-.6.5-.1.3-.1.5.1.8.2.2.4.4.7.5.4.1.7.2 1 .1s.5-.2.6-.5.1-.5-.1-.8c-.3-.2-.5-.4-.8-.5z"/><path d="m951.1 581.6-3.6-1c-.1.4 0 .7.2 1 .2.2.6.4 1 .6.3.1.5.1.8.1s.6 0 .9-.1l-.4 1.4c-.3.1-.6.1-1 0-.3 0-.7-.1-1-.2-.9-.2-1.5-.7-2-1.4-.4-.7-.5-1.5-.3-2.5.3-.9.7-1.6 1.4-2s1.4-.5 2.3-.3 1.5.8 1.8 1.5c.2.7.2 1.5 0 2.4zm-3.4-2.2 2 .5c.1-.4.1-.7 0-.9-.1-.3-.3-.5-.7-.6-.3-.1-.6 0-.8.1-.2.3-.4.6-.5.9z"/><path d="m950.5 584 2.2-2.9-1.3-3.1 2.2.3.6 1.9 1.1-1.7 2 .2-2 2.7 1.4 3.3-2.3-.3-.6-1.9-1.2 1.7z"/><path d="m957.5 584.8.1-6h1.9l-.1 6z"/><path d="m959.9 584.9-.2-8.7h1.9l.2 8.6z"/><path d="m967.9 581.9-3.8.4c.1.4.3.7.6.8.3.2.7.2 1.2.2.3 0 .5-.1.8-.2s.5-.2.8-.4l.2 1.5c-.3.2-.6.3-.9.4s-.7.2-1 .2c-.9.1-1.7-.1-2.3-.6-.7-.5-1-1.2-1.2-2.2-.1-1 .1-1.8.6-2.4s1.2-1 2-1.1c.9-.1 1.7.2 2.2.8.5.5.8 1.3.9 2.3zm-3.9-.8 2.1-.2c0-.4-.1-.7-.3-.9s-.5-.3-.8-.3-.6.2-.7.4c-.3.3-.3.6-.3 1z"/><path d="m968.8 583.9-.2-1.5c.3.1.6.1.9.1s.6 0 .9-.1c.2-.1.4-.1.5-.2s.2-.3.1-.4c-.1-.3-.3-.4-.8-.4-.8-.1-1.2-.1-1.4-.2-.5-.2-.9-.6-1-1.2s0-1.2.4-1.6.8-.7 1.4-.8c.4-.1.7-.1 1-.2.3 0 .6 0 1 .1l.2 1.4c-.2-.1-.5-.1-.7-.1-.3 0-.5 0-.8.1-.2.1-.4.1-.6.2-.1.1-.2.2-.2.4.1.2.3.3.8.4.7 0 1.2.1 1.4.2.5.2.9.6 1 1.3.2.7 0 1.3-.4 1.7s-.9.6-1.6.8c-.4.1-.8.2-1.1.2-.2-.1-.5-.1-.8-.2z"/></g><path d="m939.7 573.1c1.4 0 2.5 1.1 2.5 2.5s-1.1 2.5-2.5 2.5-2.5-1.1-2.5-2.5 1.1-2.5 2.5-2.5z" fill="#f59d10"/><path d="m979.3 573.5c1.4 0 2.5 1.1 2.5 2.5s-1.1 2.5-2.5 2.5-2.5-1.1-2.5-2.5 1.1-2.5 2.5-2.5z" fill="#f59d10"/><path d="m958.6 576.2c.5 0 .9.4.9.9s-.4.9-.9.9-.9-.4-.9-.9.3-.9.9-.9z" fill="#fff"/><path d="m971.4 572.6-.1-4.2c0-2.3-1.2-3.6-2.8-3.8m-19.4 8-.1-4.2c0-2.3 1.2-3.6 2.8-3.8m19.6-56.1v4.4c0 2.3-1.2 3.6-2.8 3.8m-19.5-8.2v4.4c0 2.3 1.2 3.6 2.8 3.8m-17.1 30.6c18.5 7.2 35.1 6.5 50.3 0m-48.2 13.7c16.9 5.9 32.1 5.3 46 0m-48.1-26.9c18.5-7.2 35.1-6.5 50.4 0m-48.1-13.7c16.8-5.9 31.9-5.3 45.7 0m-2.8-7.3c7.4 19.3 7 38.6 0 58m-40.2-58c-7.4 19.3-7 38.6 0 58" fill="none" stroke="#000" stroke-width="1.92"/><path d="m959.8 566.9c-15.1-4.7-21.8-20.6-18.8-47.7h37.5c3.1 27.1-3.6 43-18.7 47.7z" fill="#f59d10" stroke="#000" stroke-width="1.08"/><path d="m979.3 529.9-19.4 22.7-19.4-22.7c0-3.3.3-6.9.7-10.7h5.3l13.4 15.7 13.4-15.7h5.3c.4 3.8.6 7.3.7 10.7z"/></g></svg>