<svg clip-rule="evenodd" fill-rule="evenodd" stroke-linejoin="round" stroke-miterlimit="2" viewBox="0 0 560 400" xmlns="http://www.w3.org/2000/svg"><g fill="#ec1d23" fill-rule="nonzero" transform="translate(5 150)"><path d="m191.59 15.723v28.75h5.1v-9.688l6.09 9.688h6.34l-7.4-10.625 6.9-8.938h-6.18l-5.75 8.156v-17.343zm95.57 0v28.156c2.26.634 4.49.969 7.34.969 6.78 0 10.66-4.57 10.66-11.157 0-5.766-2.54-9.156-7.25-9.156-2.74 0-4.95 1.338-5.94 3.469h-.03c.2-1.028.31-2.664.31-3.844v-8.437zm89 .5c-1.75 0-3.13 1.378-3.13 3.031 0 1.688 1.38 3.062 3.13 3.062 1.74 0 3.18-1.374 3.18-3.062 0-1.691-1.44-3.031-3.18-3.031zm-42.94 1.25-5.06 1.375v6.031h-3.38v3.906h3.41v9.906c0 4.566 1.35 6.157 5.72 6.157 1.39 0 2.85-.219 4.12-.532v-4.031c-.71.196-1.64.313-2.47.313-1.75 0-2.34-.696-2.34-3.219v-8.594h4.81v-3.906h-4.81zm-102.66.218c-2.62 0-4.97.038-7.15.157v26.625h5.15v-9.407c.64.08 1.28.094 1.75.094 6.5 0 10.41-4.054 10.41-9.219 0-5.209-3.58-8.25-10.16-8.25zm-164 .157v26.625h5v-9.5c0-3.195-.091-7.365-.25-9.657.796 1.735 1.715 3.709 2.907 5.719l7.875 13.438h6.656v-26.625h-5v8.281c0 3.273.083 8.008.281 10.687-.993-2.01-2.05-4.2-3.281-6.25l-7.469-12.718zm72.498 0 8.38 17.25v9.375h5.15v-9.438l8.5-17.187h-5.47l-3.37 7.156c-.79 1.697-1.57 3.367-2.13 4.906h-.09c-.51-1.383-1.1-2.83-1.81-4.406l-3.53-7.656zm91.32 4.031c3.49 0 5.06 1.691 5.06 4.375 0 2.877-2.2 4.616-5.38 4.656-.47 0-.98-.046-1.5-.125v-8.875c.6-.037 1.18-.031 1.82-.031zm-129.22 2.562c-5.942 0-9.285 4.443-9.285 10.438 0 6.887 3.517 9.969 9.815 9.969 2.47 0 4.93-.434 7.03-1.25l-.47-3.875c-1.7.79-3.8 1.25-5.75 1.25-3.672 0-5.511-1.775-5.469-5.438h12.249c.12-.828.16-1.646.16-2.312 0-4.85-2.52-8.782-8.28-8.782zm87.9 0c-3.02.021-4.73 2.072-5.62 4.407h-.1c.24-1.388.38-2.983.38-3.969h-4.81v19.594h5.09v-8c0-5.428 1.82-7.78 5.47-7.032l.22-5c-.22-.017-.43-.001-.63 0zm63.5 0c-3.02.021-4.73 2.072-5.62 4.407h-.1c.24-1.388.38-2.983.38-3.969h-4.81v19.594h5.06v-8c0-5.428 1.82-7.78 5.47-7.032l.25-5c-.22-.017-.43-.001-.63 0zm9.53 0c-5.93 0-9.28 4.443-9.28 10.438 0 6.887 3.48 9.969 9.78 9.969 2.48 0 4.97-.434 7.07-1.25l-.47-3.875c-1.7.79-3.8 1.25-5.75 1.25-3.67 0-5.51-1.775-5.47-5.438h12.25c.12-.828.16-1.646.16-2.312-.01-4.85-2.52-8.782-8.29-8.782zm17.79 0c-5.55 0-8.38 2.854-8.38 6.282 0 6.661 7.97 4.686 7.97 8.156 0 1.301-1.28 2.094-3.22 2.094-1.5 0-2.99-.279-4.22-.594l-.12 4.125c1.27.198 2.69.344 4.12.344 5.38 0 8.75-2.581 8.75-6.438 0-6.344-8.03-4.931-8.03-8.125 0-1.222.93-2.031 2.91-2.031 1.22 0 2.51.214 3.62.531l.16-3.969c-1.18-.196-2.42-.375-3.56-.375zm69.12 0c-5.93 0-9.25 4.443-9.25 10.438 0 6.887 3.48 9.969 9.78 9.969 2.47 0 4.97-.434 7.06-1.25l-.47-3.875c-1.69.79-3.79 1.25-5.74 1.25-3.68 0-5.52-1.775-5.47-5.438h12.21c.12-.828.19-1.646.19-2.312 0-4.85-2.55-8.782-8.31-8.782zm21.69 0c-3.02.021-4.73 2.072-5.63 4.407h-.09c.23-1.388.37-2.983.37-3.969h-4.81v19.594h5.09v-8c0-5.428 1.83-7.78 5.47-7.032l.22-5c-.21-.017-.42-.001-.62 0zm19.59 0c-2.55 0-5.1.513-7.09 1.219l.43 4.219c1.68-.949 4.08-1.531 5.88-1.531 2.87 0 3.88 1.073 3.88 3.125v1.062c-6.76 0-11.44 2.502-11.44 7.156 0 3.148 2.07 5.157 5.65 5.157 2.95 0 5.36-1.535 6.32-3.75l.06.031c-.16 1.028-.22 2.165-.22 3.312h4.81c-.07-1.62-.12-3.473-.12-5.031v-8.156c0-4.26-1.79-6.813-8.16-6.813zm22.97 0c-3.21 0-5.52 1.63-6.72 3.969l-.03-.031c.2-1.033.28-2.591.28-3.5h-4.81v19.594h5.09v-9.438c0-3.42 2.02-6.344 4.6-6.344 1.86 0 2.4 1.237 2.4 3.282v12.5h5.03v-13.719c0-3.435-1.41-6.313-5.84-6.313zm-246.22.094c-5.98 0-10.06 4.4-10.06 10.469 0 6.953 3.6 9.844 9.19 9.844 5.9 0 10.06-4.452 10.06-10.563 0-6.699-3.61-9.75-9.19-9.75zm206.59.313v19.625h5.1v-19.625zm-263.31.062 6.03 19.563h5.25l2.5-8.157c.52-1.616.95-3.097 1.35-4.906h.03c.36 1.653.69 3.003 1.12 4.344l2.85 8.719h5.53l6.19-19.563h-5.22l-2.22 7.625c-.6 1.931-.98 3.678-1.38 5.688h-.09c-.4-1.933-.85-3.664-1.56-5.907l-2.44-7.406h-4.88l-2.37 7.625c-.55 1.73-1.04 3.519-1.44 5.688h-.03c-.48-2.01-1.05-3.978-1.56-5.907l-2.1-7.406zm194.57 0 7.21 19.594-.65 1.875c-1.03 2.919-2.15 3.687-3.82 3.687-.95 0-1.77-.162-2.68-.437l-.32 4.344c.83.198 1.91.343 2.79.343 4.51 0 6.57-1.875 8.9-8l8.1-21.406h-5.44l-2.35 6.656c-.63 1.856-1.46 4.445-1.9 6.219h-.03c-.44-1.774-.97-3.682-1.57-5.375l-2.65-7.5zm-203.88 3.281c2.15 0 3.52 1.463 3.44 3.907h-7.315c.282-2.365 1.758-3.907 3.875-3.907zm160.91 0c2.15 0 3.51 1.463 3.43 3.907h-7.31c.28-2.365 1.76-3.907 3.88-3.907zm86.93 0c2.16 0 3.52 1.463 3.44 3.907h-7.31c.28-2.365 1.76-3.907 3.87-3.907zm-52.34.5c2.3 0 3.34 1.856 3.34 5.5 0 4.82-2.09 6.625-4.93 6.625-1.11 0-1.95-.108-2.66-.343v-5.5c0-3.253 1.6-6.282 4.25-6.282zm-129.84.094c2.96 0 4.31 2.02 4.31 5.781 0 3.957-1.88 5.969-4.38 5.969-2.92 0-4.4-2.033-4.4-6.031 0-3.997 2.21-5.719 4.47-5.719zm41.75 3.656v4.032h9.75v-4.032zm184.97 3.375v.469c0 2.339-1.74 4.688-4.26 4.688-1.47 0-2.34-.813-2.34-2.063 0-1.56 1.21-3.094 6.6-3.094z"/><path d="m311.62 56.441c-3 0-4.62 1.581-4.62 4.875v.875h-2.47v1.688h2.47v10.281h2.19v-10.281h3.34v-1.688h-3.34v-.906c0-2.115.72-3.062 2.43-3.062.59 0 1.23.056 1.79.25l.18-1.813c-.65-.142-1.29-.219-1.97-.219zm-233.93.157v17.562h2.188v-5.75c0-2.651 1.422-4.625 3.406-4.625 1.595 0 2.063.975 2.063 2.656v7.719h2.156v-8.375c0-2.119-.869-3.812-3.625-3.812-2.01 0-3.486 1.057-4.188 2.687l-.031-.031c.168-.627.219-1.601.219-2.375v-5.656zm206.53 0v17.562h2.16v-17.562zm60.31 0v17.562h2.19v-17.562zm38.25 0v17.25c1.28.34 2.46.468 4.13.468 3.86 0 6.25-2.502 6.25-6.687 0-3.656-1.57-5.656-4.41-5.656-1.82 0-3.32 1.001-3.97 2.687l-.06-.031c.14-.604.22-1.517.22-2.219v-5.812zm66.63 0v5.562c-.73-.068-1.38-.125-2.03-.125-3.81 0-6.22 2.534-6.22 6.719 0 3.49 1.47 5.625 4.43 5.625 1.89 0 3.36-1.072 4.03-2.688l.07.032c-.15.694-.19 1.763-.19 2.437h2.09v-17.562zm67.84 0v17.562h2.19v-17.562zm5.56 0v17.562h2.19v-17.562zm-386.94.812c-.79 0-1.43.639-1.43 1.406 0 .798.64 1.407 1.43 1.407.8 0 1.44-.633 1.44-1.407 0-.79-.64-1.406-1.44-1.406zm45.57 0c-.8 0-1.44.639-1.44 1.406 0 .798.64 1.407 1.44 1.407.79 0 1.47-.633 1.47-1.407 0-.79-.68-1.406-1.47-1.406zm78.53 0c-.8 0-1.47.639-1.47 1.406 0 .798.67 1.407 1.47 1.407s1.44-.633 1.44-1.407c0-.79-.64-1.406-1.44-1.406zm136.65 0c-.79 0-1.46.639-1.46 1.406 0 .798.67 1.407 1.46 1.407.8 0 1.44-.633 1.44-1.407 0-.79-.64-1.406-1.44-1.406zm-208.03.313-2.18.593v3.875h-2.47v1.688h2.47v6.875c0 2.574.75 3.594 3.21 3.594.78 0 1.64-.075 2.32-.219v-1.844c-.49.124-1.07.219-1.63.219-1.35 0-1.72-.525-1.72-2.5v-6.125h3.35v-1.688h-3.35zm78.5 0-2.18.593v3.875h-2.47v1.688h2.47v6.875c0 2.574.75 3.594 3.21 3.594.78 0 1.67-.075 2.35-.219v-1.844c-.49.124-1.1.219-1.66.219-1.35 0-1.72-.525-1.72-2.5v-6.125h3.38v-1.688h-3.38zm58.66.062c-5.52 0-7.97 3.735-7.97 8.688 0 4.574 2.16 7.875 7.41 7.875 1.65 0 3.2-.307 4.43-.813l-.24-1.969c-.97.485-2.48.813-3.66.813-3.8 0-5.53-2.29-5.53-6.281 0-3.563 1.58-6.407 5.31-6.407 1.23 0 2.46.205 3.72.594l.22-2.031c-1.16-.287-2.43-.469-3.69-.469zm140.81 0c-5.51 0-7.97 3.735-7.97 8.688 0 4.574 2.16 7.875 7.41 7.875 1.64 0 3.2-.307 4.44-.813l-.25-1.969c-.97.485-2.47.813-3.66.813-3.79 0-5.53-2.29-5.53-6.281 0-3.563 1.59-6.407 5.31-6.407 1.24 0 2.46.205 3.72.594l.25-2.031c-1.16-.287-2.46-.469-3.72-.469zm-402.25.125v1.875h4.688v14.375h2.219v-14.375h4.718v-1.875zm144.69 0v16.25h2.22v-7.469h8.31v7.469h2.25v-16.25h-2.25v6.906h-8.31v-6.906zm-102 .031v10.75c0 2.887.99 5.719 6.09 5.719 4.26 0 6.53-2.209 6.53-6.469v-10h-2.18v10.188c0 3.269-1.33 4.437-4.19 4.437-3.29 0-4.03-1.795-4.03-4.031v-10.594zm21.5 4.032c-2.06 0-3.51 1.089-4.22 2.75h-.06c.14-.705.19-1.83.19-2.532h-2.1v11.969h2.19v-5.75c0-2.651 1.42-4.625 3.41-4.625 1.59 0 2.06.975 2.06 2.656v7.719h2.15v-8.375c0-2.119-.86-3.812-3.62-3.812zm39.62 0c-1.84.164-2.83 1.611-3.28 3.062h-.06c.19-.982.25-2.095.25-2.844h-2.09v11.969h2.18v-4.812c0-3.82 1.21-5.684 3.76-5.25l.09-2.094c-.3-.033-.58-.055-.85-.031zm84.35 0c-1.91 0-3.38 1.032-4.06 2.687l-.03-.031c.14-.672.18-1.759.18-2.438h-2.09v17.907h2.15v-5.938c.71.124 1.29.156 2.04.156 3.89 0 6.18-2.427 6.18-6.687 0-3.656-1.57-5.656-4.37-5.656zm24.59 0c-1.59 0-3.06.37-4.22.843l.22 1.875c1.04-.625 2.5-1 3.63-1 1.98 0 2.65.905 2.65 2.563v.875c-4.55 0-7.25 1.66-7.25 4.281 0 1.903 1.37 2.969 3.35 2.969s3.51-1.125 4.09-2.594h.03c-.12.674-.12 1.533-.12 2.375h2.12c-.02-1.035-.06-2.307-.06-3.437v-4.75c0-2.386-.98-4-4.44-4zm91.66 0c-1.94 0-3.49 1.066-4.19 2.75h-.03c.14-.728.19-1.83.19-2.532h-2.13v11.969h2.19v-5.687c0-2.747 1.54-4.688 3.37-4.688 1.65 0 1.94 1.198 1.94 2.688v7.687h2.16v-5.687c0-2.889 1.66-4.688 3.37-4.688 1.58 0 1.97 1.03 1.97 2.688v7.687h2.16v-8.281c0-2.698-1.29-3.906-3.56-3.906-2.32 0-3.62 1.59-4.13 2.718-.1-.96-.78-2.718-3.31-2.718zm36.4 0c-1.59 0-3.05.37-4.21.843l.21 1.875c1.05-.625 2.49-1 3.63-1 1.98 0 2.66.905 2.66 2.563v.875c-4.56 0-7.25 1.66-7.25 4.281 0 1.903 1.36 2.969 3.34 2.969s3.52-1.125 4.09-2.594h.03c-.11.674-.12 1.533-.12 2.375h2.12c-.02-1.035-.06-2.307-.06-3.437v-4.75c0-2.386-.97-4-4.44-4zm16.79 0c-1.6 0-3.07.37-4.22.843l.22 1.875c1.03-.625 2.49-1 3.62-1 1.99 0 2.63.905 2.63 2.563v.875c-4.55 0-7.22 1.66-7.22 4.281 0 1.903 1.36 2.969 3.34 2.969s3.51-1.125 4.1-2.594h.03c-.12.674-.13 1.533-.13 2.375h2.13c-.03-1.035-.07-2.307-.07-3.437v-4.75c0-2.386-.98-4-4.43-4zm13.34 0c-2.05 0-3.55 1.089-4.25 2.75h-.03c.15-.705.19-1.83.19-2.532h-2.1v11.969h2.16v-5.75c0-2.651 1.42-4.625 3.4-4.625 1.6 0 2.07.975 2.07 2.656v7.719h2.19v-8.375c0-2.119-.87-3.812-3.63-3.812zm54.94 0c-1.85.164-2.84 1.611-3.28 3.062h-.07c.19-.982.28-2.095.28-2.844h-2.12v11.969h2.19v-4.812c0-3.82 1.21-5.684 3.75-5.25l.09-2.094c-.3-.033-.58-.055-.84-.031zm8.87 0c-2.05 0-3.52 1.089-4.22 2.75h-.06c.15-.705.19-1.83.19-2.532h-2.09v11.969h2.15v-5.75c0-2.651 1.45-4.625 3.44-4.625 1.59 0 2.03.975 2.03 2.656v7.719h2.19v-8.375c0-2.119-.86-3.812-3.63-3.812zm-403.87.031c-3.411 0-5.375 2.664-5.375 6.25 0 4.211 1.988 6.125 5.688 6.125 1.499 0 2.901-.265 4.062-.75l-.187-1.75c-.97.454-2.267.75-3.5.75-2.565 0-3.91-1.364-3.813-4.563h7.875c.049-.405.063-.775.063-1.062 0-2.745-1.425-5-4.813-5zm60.503 0c-3.41 0-5.38 2.664-5.38 6.25 0 4.211 1.99 6.125 5.69 6.125 1.5 0 2.9-.265 4.06-.75l-.18-1.75c-.97.454-2.27.75-3.5.75-2.57 0-3.92-1.364-3.82-4.563h7.88c.04-.405.06-.775.06-1.062 0-2.745-1.42-5-4.81-5zm19.09 0c-3.14 0-4.81 1.541-4.81 3.562 0 4.213 5.56 2.585 5.56 5.25 0 1.112-1.06 1.844-2.65 1.844-.92 0-1.91-.195-2.66-.437l-.06 1.937c.75.145 1.63.219 2.53.219 3.19 0 5.12-1.642 5.12-3.813 0-4.019-5.59-2.6-5.59-5.218 0-1.038.78-1.688 2.37-1.688.8 0 1.69.133 2.44.375l.03-1.812c-.72-.145-1.55-.219-2.28-.219zm54.75 0c-3.63 0-5.84 2.767-5.84 6.281 0 4.206 2.13 6.094 5.4 6.094 3.56 0 5.88-2.795 5.88-6.406 0-4.307-2.37-5.969-5.44-5.969zm11.69 0c-3.15 0-4.81 1.541-4.81 3.562 0 4.213 5.59 2.585 5.59 5.25 0 1.112-1.09 1.844-2.69 1.844-.92 0-1.87-.195-2.62-.437l-.1 1.937c.75.145 1.67.219 2.57.219 3.19 0 5.12-1.642 5.12-3.813 0-4.019-5.62-2.6-5.62-5.218 0-1.038.81-1.688 2.4-1.688.8 0 1.66.133 2.41.375l.06-1.812c-.72-.145-1.58-.219-2.31-.219zm57.47 0c-3.63 0-5.85 2.767-5.85 6.281 0 4.206 2.14 6.094 5.41 6.094 3.55 0 5.87-2.795 5.87-6.406 0-4.307-2.35-5.969-5.43-5.969zm38.15 0c-3.62 0-5.87 2.767-5.87 6.281 0 4.206 2.14 6.094 5.41 6.094 3.55 0 5.87-2.795 5.87-6.406 0-4.307-2.34-5.969-5.41-5.969zm140.82 0c-3.64 0-5.88 2.767-5.88 6.281 0 4.206 2.15 6.094 5.41 6.094 3.56 0 5.87-2.795 5.87-6.406 0-4.307-2.33-5.969-5.4-5.969zm32.34 0c-3.41 0-5.38 2.664-5.38 6.25 0 4.211 1.99 6.125 5.69 6.125 1.5 0 2.9-.265 4.07-.75l-.19-1.75c-.97.454-2.27.75-3.5.75-2.56 0-3.92-1.364-3.81-4.563h7.87c.05-.405.06-.775.06-1.062 0-2.745-1.42-5-4.81-5zm-375.22.187v11.969h2.19v-11.969zm3.69 0 4.53 11.969h2.25l4.59-11.969h-2.34l-2.59 7.219c-.27.725-.5 1.488-.69 2.188h-.06c-.19-.747-.43-1.51-.69-2.282l-2.53-7.125zm41.91 0v11.969h2.15v-11.969zm12.31 0 4.56 11.969-.53 1.344c-.85 2.303-1.55 2.906-2.88 2.906-.55 0-1.02-.049-1.53-.219l-.19 1.938c.49.067 1.11.156 1.57.156 2.66 0 3.78-1.197 5.19-4.906l5.03-13.188h-2.38l-1.94 5.5c-.46 1.325-.97 2.848-1.18 3.688h-.07c-.26-.933-.52-1.887-.9-2.969l-2.28-6.219zm66.19 0v11.969h2.18v-11.969zm90.87 0v8.375c0 2.122.84 3.844 3.59 3.844 2.06 0 3.55-1.121 4.25-2.781l.03.031c-.11.695-.18 1.803-.18 2.5h2.09v-11.969h-2.12v5.75c0 2.647-1.46 4.657-3.44 4.657-1.57 0-2.06-.976-2.06-2.657v-7.75zm45.78 0v11.969h2.19v-11.969zm-300.44 1.375c1.692 0 2.734 1.182 2.687 2.938h-5.625c.243-1.756 1.364-2.938 2.938-2.938zm60.496 0c1.7 0 2.74 1.182 2.69 2.938h-5.62c.24-1.756 1.36-2.938 2.93-2.938zm354.32 0c1.69 0 2.74 1.182 2.68 2.938h-5.62c.24-1.756 1.36-2.938 2.94-2.938zm-62.63.188c.68 0 1.4.061 2.13.25v3.969c0 2.096-1.11 4.625-3.29 4.625-1.81 0-2.65-1.453-2.65-4.032 0-3.439 1.51-4.812 3.81-4.812zm-217.94.031c2.23 0 3.35 1.596 3.35 4.313 0 3.056-1.55 4.468-3.35 4.468-2.2 0-3.37-1.62-3.37-4.5 0-2.961 1.63-4.281 3.37-4.281zm22.19 0c.13-.019.27 0 .41 0 1.81 0 2.65 1.46 2.65 4.031 0 3.442-1.54 4.813-3.84 4.813-.82 0-1.49-.09-2.13-.281v-3.969c0-1.961 1-4.309 2.91-4.594zm46.97 0c2.23 0 3.34 1.596 3.34 4.313 0 3.056-1.55 4.468-3.34 4.468-2.2 0-3.38-1.62-3.38-4.5 0-2.961 1.64-4.281 3.38-4.281zm38.12 0c2.23 0 3.35 1.596 3.35 4.313 0 3.056-1.55 4.468-3.35 4.468-2.19 0-3.37-1.62-3.37-4.5 0-2.961 1.63-4.281 3.37-4.281zm51.22 0c.13-.019.24 0 .38 0 1.82 0 2.69 1.46 2.69 4.031 0 3.442-1.55 4.813-3.85 4.813-.85 0-1.49-.09-2.12-.281v-3.969c0-1.937.99-4.309 2.9-4.594zm89.6 0c2.22 0 3.34 1.596 3.34 4.313 0 3.056-1.55 4.468-3.34 4.468-2.21 0-3.38-1.62-3.38-4.5 0-2.961 1.63-4.281 3.38-4.281zm-198.1 4.875v.219c0 1.877-1.32 3.781-3.28 3.781-1.11 0-1.84-.644-1.84-1.656 0-1.082.94-2.344 5.12-2.344zm128.07 0v.219c0 1.877-1.33 3.781-3.29 3.781-1.11 0-1.84-.644-1.84-1.656 0-1.082.93-2.344 5.13-2.344zm16.75 0v.219c0 1.877-1.29 3.781-3.25 3.781-1.12 0-1.85-.644-1.85-1.656 0-1.082.91-2.344 5.1-2.344z"/><path d="m25 43.138v1.292h27.66v-26.574h-1.294v25.282z"/><path d="m25 57.933h27.655v26.344h-4.833v-21.534h-22.822z"/></g></svg>