<svg clip-rule="evenodd" fill-rule="evenodd" stroke-linejoin="round" stroke-miterlimit="2" viewBox="0 0 560 400" xmlns="http://www.w3.org/2000/svg"><path d="m280.615 679.163-9.32 12.143c-1.556 2.204-4.206 4.047-8.734 4.047h-21.896c-1.085 0-1.668-.346-1.835-1.554-.272-2.181-.433-5.989-.484-9.24h23.784s.431 0 .431-.538v-9.715s0-.54-.431-.54h-23.768c.098-4.101.384-9.065.384-9.065.08-1.167.552-1.692 1.932-1.728h21.883c4.528 0 7.178 1.844 8.734 4.048zm22.91 12.143-9.319-12.143 9.319-12.142c1.557-2.204 4.206-4.048 8.734-4.048h1.03c.54 0 .54-.539.54-.539v-9.715c0-.54-.54-.54-.54-.54h-2.359c-7.048 0-11.739 2.719-14.559 6.455l-8.961 11.676-8.961-11.676c-2.819-3.736-7.51-6.455-14.558-6.455h-22.926c-8.842 0-12.178 2.003-12.928 10.594-.418 4.588-.502 9.842-.502 13.429v5.088c0 3.755.042 7.505.227 11.129-.344-.356-.649-.729-.921-1.113l-25.076-32.672c-2.819-3.736-7.51-6.455-14.558-6.455h-2.36s-.538 0-.538.54v9.715s0 .539.538.539h2.509c1.381.037 1.851.561 1.931 1.728 0 0 .418 7.236.418 11.453v6.299c0 3.54-.166 8.669-.5 11.346-.166 1.208-.751 1.554-1.835 1.554h-2.523s-.538 0-.538.54v9.714s0 .539.538.539h2.472c8.175 0 11.928-1.751 12.595-8.757.501-5.09.584-10.594.584-16.099v-5.088c0-.477-.001-.987 0-1.519l19.195 25.01c2.82 3.736 7.51 6.453 14.558 6.453h29.646c7.048 0 11.738-2.717 14.557-6.453l8.962-11.676 8.961 11.676c2.82 3.736 7.51 6.453 14.559 6.453h2.358s.54 0 .54-.539v-9.714s0-.54-.54-.54h-1.029c-4.528 0-7.178-1.843-8.735-4.047" fill-rule="nonzero" transform="matrix(2.77938 0 0 2.77938 -412.265 -1687.65)"/></svg>