<svg clip-rule="evenodd" fill-rule="evenodd" stroke-linejoin="round" stroke-miterlimit="1.41421" viewBox="0 0 8 6" xmlns="http://www.w3.org/2000/svg" xmlns:xlink="http://www.w3.org/1999/xlink"><linearGradient id="a" gradientUnits="userSpaceOnUse" x1=".033134" x2="17.253134" y1="20.0809" y2="20.0809"><stop offset="0" stop-color="#fff"/><stop offset=".02" stop-color="#fff"/><stop offset=".43" stop-color="#d0d2d2"/><stop offset="1" stop-color="#85888b"/></linearGradient><g fill-rule="nonzero" transform="matrix(.01807779 0 0 -.01807779 2.500002 4.578476)"><path d="m76.829.458c-2.515-.229-36.125 24.692-55.559 56.93-19.434 32.238-18.52 59.445-19.434 75.221-.915 15.776-1.372 46.413-1.372 46.413h152.729s-.457-30.637-1.372-46.413c-.914-15.776 0-42.983-19.434-75.221s-53.043-56.702-55.558-56.93" fill="#b1b1b0"/><path d="m.929 178.565c.061-3.906.521-31.399 1.364-45.929.094-1.632.169-3.391.249-5.252.698-16.307 1.752-40.951 19.119-69.76 19.468-32.293 52.687-56.711 55.129-56.711 1.914.205 35.396 23.85 55.206 56.711 17.366 28.809 18.421 53.452 19.119 69.759.08 1.862.155 3.62.25 5.253.842 14.53 1.302 42.023 1.364 45.929zm75.892-178.565c-3.275 0-37.025 25.771-55.943 57.152-17.487 29.009-18.548 53.793-19.25 70.193-.079 1.858-.154 3.612-.249 5.238-.904 15.605-1.368 46.126-1.372 46.433l-.007.464h153.657l-.006-.464c-.005-.307-.468-30.828-1.373-46.433-.095-1.626-.169-3.381-.249-5.239-.702-16.4-1.763-41.184-19.25-70.192-19.321-32.05-53.182-56.902-55.909-57.15-.015-.001-.032-.002-.049-.002z" fill="#c1bfbd"/><path d="m76.829 10.136c2.168.199 33.99 20.73 48.623 49.996 14.485 28.967 14.464 39.367 15.253 52.97h-63.876z" fill="#191d44"/><path d="m76.829 10.136c-2.168.199-33.99 20.73-48.624 49.996-14.484 28.967-14.463 39.367-15.253 52.97h63.877z" fill="#94191e"/><path d="m13.195 112.873.088-1.569c.704-12.579 1.312-23.443 15.127-51.07 14.262-28.522 44.525-48.526 48.19-49.806v102.445zm63.862-102.987-.249.023c-2.179.2-34.063 20.636-48.807 50.121-13.857 27.711-14.468 38.619-15.174 51.249l-.117 2.051h64.347z" fill="#7e161b"/><path d="m76.829 170.182h63.876v-57.08h-63.876z" fill="#94191e"/><path d="m77.057 113.33h63.419v56.624h-63.419zm63.876-.457h-64.333v57.537h64.333z" fill="#7e161b"/><path d="m77.434 170.182h-64.482v-57.08h64.482z" fill="#191d44"/><path d="m90.576 104.616-6.018-85.181-7.729-9.299v86.082s8.231 6.631 13.747 8.398" fill="#898887"/><path d="m63.568 103.534 5.944-84.138 7.317-9.26v86.082s-7.774 6.631-13.261 7.316" fill="#d3d2d0"/><path d="m2.51 40.157h13.228l2.247-40.152h-17.952z" fill="url(#a)" transform="translate(67.6884 117.337)"/><path d="m76.829 157.494h6.597s-.09 7.639-1.461 8.611c-1.373.972-5.047 1.543-5.047 1.543h-.245s-3.675-.571-5.046-1.543c-1.373-.972-1.429-8.611-1.429-8.611z" fill="#b5b6b3"/><path d="m76.371 96.429c-1.218 1.22-10.365 7.318-13.26 7.775-2.896.457-46.948 5.487-46.948 5.487-1.372 3.658 0 6.554 0 6.554s34.753-.762 46.948 0c12.194.762 13.718 11.585 13.718 11.585s1.523-10.823 13.718-11.585 46.947 0 46.947 0 1.372-2.896 0-6.554c0 0-44.052-5.03-46.947-5.487-2.896-.457-12.042-6.555-13.261-7.775z" fill="#b1b1b0"/><path d="m76.553 96.887h.552c1.743 1.566 10.439 7.305 13.37 7.769 2.783.439 42.578 4.988 46.685 5.457.921 2.699.297 4.922.028 5.668-3.521-.073-35.215-.708-46.67.008-9.366.585-12.638 7.032-13.689 10.217-1.051-3.185-4.325-9.632-13.69-10.217-11.453-.717-43.141-.082-46.668-.008-.268-.748-.89-2.981.027-5.668 4.106-.469 43.901-5.018 46.684-5.457 2.931-.463 11.628-6.203 13.371-7.769zm.923-.915h-1.294l-.134.134c-1.147 1.147-10.229 7.207-13.009 7.647-2.853.45-46.487 5.434-46.928 5.484l-.278.032-.098.262c-1.424 3.795-.044 6.784.015 6.909l.127.269.296-.007c.347-.008 34.873-.752 46.909-.001 11.665.729 13.233 10.766 13.294 11.193h.906c.061-.427 1.628-10.464 13.294-11.193 12.035-.751 46.561-.007 46.908.001l.296.007.128-.269c.059-.125 1.438-3.114.014-6.909l-.098-.262-.278-.032c-.44-.05-44.075-5.034-46.928-5.484-2.78-.44-11.862-6.5-13.009-7.647z" fill="#c1bfbd"/><path d="m77.142 94.97-.627.666c7.256 6.836 13.681 8.055 13.951 8.103l.162-.899c-.063-.012-6.443-1.234-13.486-7.87" fill="#616369"/><path d="m77.286 10.136h-.915v86.082h.915z" fill="#fff"/><g fill="#e8e7e7"><path d="m6.527 176.31c-1.564 0-2.836-1.272-2.836-2.835 0-1.564 1.272-2.836 2.836-2.836 1.562 0 2.833 1.272 2.833 2.836 0 1.563-1.271 2.835-2.833 2.835zm0-6.586c-2.068 0-3.751 1.682-3.751 3.751 0 2.067 1.683 3.75 3.751 3.75 2.067 0 3.748-1.683 3.748-3.75 0-2.069-1.681-3.751-3.748-3.751z"/><path d="m76.83 8.314c-1.564 0-2.836-1.272-2.836-2.835 0-1.564 1.272-2.836 2.836-2.836 1.562 0 2.834 1.272 2.834 2.836 0 1.563-1.272 2.835-2.834 2.835zm0-6.585c-2.068 0-3.751 1.682-3.751 3.75 0 2.067 1.683 3.75 3.751 3.75 2.067 0 3.748-1.683 3.748-3.75 0-2.068-1.681-3.75-3.748-3.75z"/><path d="m12.928 86.745c-1.563 0-2.835-1.272-2.835-2.835 0-1.564 1.272-2.836 2.835-2.836s2.834 1.272 2.834 2.836c0 1.563-1.271 2.835-2.834 2.835zm0-6.585c-2.067 0-3.75 1.682-3.75 3.75 0 2.067 1.683 3.749 3.75 3.749s3.749-1.682 3.749-3.749c0-2.068-1.682-3.75-3.749-3.75z"/><path d="m140.65 86.745c-1.563 0-2.835-1.272-2.835-2.835 0-1.564 1.272-2.836 2.835-2.836 1.562 0 2.834 1.272 2.834 2.836 0 1.563-1.272 2.835-2.834 2.835zm0-6.585c-2.068 0-3.75 1.682-3.75 3.75 0 2.067 1.682 3.749 3.75 3.749 2.067 0 3.749-1.682 3.749-3.749 0-2.068-1.682-3.75-3.749-3.75z"/><path d="m147.46 176.31c-1.563 0-2.836-1.272-2.836-2.835 0-1.564 1.273-2.836 2.836-2.836s2.835 1.272 2.835 2.836c0 1.563-1.272 2.835-2.835 2.835zm0-6.586c-2.068 0-3.75 1.682-3.75 3.751 0 2.067 1.682 3.75 3.75 3.75 2.067 0 3.749-1.683 3.749-3.75 0-2.069-1.682-3.751-3.749-3.751z"/></g><g fill="#b1b1b0"><path d="m8.797 180.483-7.115 17.704h3.413v-.169l-.277-.277c-.049-.049-.085-.109-.109-.181s-.036-.157-.036-.254c0-.08.006-.157.018-.229s.03-.145.055-.217l4.244-10.576 5.705 12.204 5.728-11.999 4.076 10.359c.024.072.042.147.054.223s.018.155.018.235c0 .097-.011.182-.036.254-.024.072-.06.132-.108.181l-.266.277v.169h3.353l-6.958-17.704-5.91 12.843z"/><path d="m2.021 197.958 6.79-16.894 5.834 12.812 5.894-12.81 6.639 16.892h-2.643l.057-.06c.07-.069.125-.16.16-.266.032-.095.048-.205.048-.326 0-.092-.007-.182-.021-.271-.014-.088-.035-.175-.063-.26l-4.273-10.859-5.746 12.037-5.722-12.243-4.442 11.065c-.032.096-.053.18-.067.265-.014.084-.021.173-.021.266 0 .121.016.231.047.326.036.106.091.197.164.271l.056.055zm18.551-18.058-5.925 12.877-5.863-12.874-7.44 18.512h3.98v-.492l-.345-.344c-.022-.023-.04-.053-.053-.092-.016-.048-.024-.109-.024-.181 0-.067.004-.131.015-.191.01-.061.025-.122.045-.182l4.045-10.075 5.685 12.165 5.711-11.961 3.883 9.87c.016.049.031.111.041.174.01.066.016.132.016.2 0 .072-.008.133-.024.181-.014.039-.031.069-.054.092l-.332.347v.489h3.917z"/><path d="m28.772 181.05h-3.654l10.817 17.728 10.745-17.728h-3.702v.169c.161 0 .288.032.38.096.093.065.139.149.139.253 0 .073-.01.139-.03.199-.021.061-.043.107-.067.139l-3.642 5.982h-5.258c-.249 0-.414-.006-.494-.018-.081-.012-.137-.039-.169-.079l-.35-.289-.12.096 1.531 2.642h3.413l-2.376 3.919-7.585-12.241c-.032-.048-.056-.102-.073-.163-.016-.06-.024-.122-.024-.187 0-.104.046-.188.139-.253.093-.064.219-.096.38-.096z"/><path d="m43.64 181.279h2.634l-10.339 17.059-10.41-17.059h2.585c-.056.084-.085.182-.085.289 0 .085.011.168.032.247.022.083.057.161.103.229l7.777 12.553 2.78-4.586h-3.687l-1.117-1.927c.019.005.039.009.059.012.059.009.177.02.528.02h5.387l3.708-6.091c.027-.034.06-.1.089-.185.028-.085.041-.176.041-.272 0-.107-.029-.205-.085-.289zm3.446-.457h-4.336v.625h.228c.111 0 .197.019.249.056.038.026.041.044.041.065 0 .047-.006.09-.019.128-.017.053-.03.071-.032.073l-3.587 5.89h-5.13c-.311 0-.422-.01-.46-.015l-.015-.019-.042-.01-.493-.408-.42.336 1.696 2.925h3.139l-1.972 3.253-7.389-11.923c-.022-.034-.036-.065-.046-.102-.011-.04-.016-.083-.016-.128 0-.018 0-.037.04-.065.053-.037.139-.056.25-.056h.229v-.625h-4.29l11.225 18.395z"/><path d="m57.546 198.187c1.158 0 2.145-.334 2.961-1.001.816-.668 1.328-1.56 1.538-2.678l-4.318-3.183c2.082-.322 3.734-1.315 4.957-2.979 1.222-1.664 1.832-3.759 1.832-6.283v-1.013h-2.99v.169l.326.301c.056.056.098.121.126.193.028.073.042.157.042.254v.542c0 2.018-.621 3.686-1.863 5.005-1.242 1.318-2.812 1.978-4.709 1.978-.241 0-.498-.011-.772-.03-.273-.021-.567-.051-.88-.091l4.57 3.582c.338.273.571.508.7.705.128.197.193.416.193.658 0 .482-.205.862-.615 1.139-.41.278-.981.416-1.713.416h-6.005v-13.904c0-.097.013-.181.042-.254.028-.072.074-.137.138-.193l.29-.301v-.169h-3.449v.169l.289.301c.057.056.099.121.127.193.028.073.042.157.042.254v15.339c0 .089-.012.163-.036.224-.024.06-.069.122-.133.186l-.289.302v.169z"/><path d="m61.927 181.279h2.361v.784c0 2.463-.602 4.531-1.789 6.148-1.179 1.605-2.796 2.577-4.807 2.888l-.542.084 4.642 3.423c-.214.993-.695 1.801-1.43 2.403-.77.63-1.718.949-2.816.949h-9.225l.08-.083c.085-.085.144-.171.18-.261.035-.087.052-.191.052-.308v-15.339c0-.125-.019-.238-.057-.336-.04-.103-.1-.194-.178-.273l-.077-.079h2.7l-.08.083c-.077.067-.145.161-.186.268-.039.098-.058.211-.058.337v14.133h6.234c.775 0 1.394-.153 1.841-.455.475-.322.715-.769.715-1.329 0-.286-.077-.549-.23-.782-.143-.219-.387-.467-.747-.759l-3.946-3.093c.032.003.064.005.095.008.28.02.543.031.789.031 1.954 0 3.594-.69 4.876-2.05 1.277-1.356 1.925-3.093 1.925-5.162v-.542c0-.125-.019-.238-.058-.336-.04-.103-.1-.194-.177-.273zm2.818-.457h-3.448v.497l.399.369c.028.028.052.065.069.109.018.044.027.102.027.17v.542c0 1.948-.606 3.579-1.801 4.848-1.192 1.265-2.72 1.906-4.543 1.906-.236 0-.488-.01-.756-.029-.268-.02-.558-.05-.867-.09l-.825-.106 5.225 4.095c.315.255.535.474.649.65.105.161.156.335.156.533 0 .405-.168.715-.515.95-.369.25-.902.377-1.584.377h-5.777v-13.676c0-.068.009-.126.026-.17.015-.039.041-.073.077-.105l.367-.381v-.489h-3.906v.489l.353.367c.037.038.062.075.079.119s.026.102.026.17v15.339c0 .074-.01.116-.02.139-.006.017-.026.054-.082.11l-.356.371v.489h9.828c1.207 0 2.251-.354 3.105-1.052.856-.7 1.4-1.646 1.618-2.812l.026-.141-4.008-2.956c1.893-.41 3.432-1.408 4.581-2.973 1.246-1.696 1.877-3.856 1.877-6.418z"/><path d="m76.54 198.187c1.158 0 2.144-.334 2.961-1.001.816-.668 1.329-1.56 1.537-2.678l-4.317-3.183c2.082-.322 3.735-1.315 4.957-2.979s1.832-3.759 1.832-6.283v-1.013h-2.99v.169l.326.301c.056.056.098.121.126.193.028.073.042.157.042.254v.542c0 2.018-.621 3.686-1.863 5.005-1.242 1.318-2.812 1.978-4.709 1.978-.241 0-.499-.011-.772-.03-.274-.021-.567-.051-.881-.091l4.571 3.582c.338.273.571.508.699.705.129.197.193.416.193.658 0 .482-.205.862-.614 1.139-.411.278-.981.416-1.713.416h-6.006v-13.904c0-.097.014-.181.043-.254.028-.072.074-.137.138-.193l.29-.301v-.169h-3.449v.169l.289.301c.057.056.099.121.127.193.028.073.042.157.042.254v15.339c0 .089-.012.163-.036.224-.024.06-.069.122-.133.186l-.289.302v.169z"/><path d="m80.921 181.279h2.361v.784c0 2.463-.602 4.531-1.789 6.148-1.179 1.605-2.796 2.577-4.807 2.888l-.543.084 4.643 3.423c-.215.993-.695 1.801-1.43 2.403-.771.63-1.718.949-2.816.949h-9.225l.08-.083c.085-.085.145-.171.18-.261.035-.087.052-.191.052-.308v-15.339c0-.125-.019-.238-.057-.336-.04-.103-.1-.194-.178-.273l-.077-.079h2.7l-.08.083c-.077.067-.145.161-.186.268-.039.098-.058.211-.058.337v14.133h6.234c.775 0 1.394-.153 1.841-.455.474-.322.715-.769.715-1.329 0-.286-.077-.549-.23-.782-.143-.219-.387-.467-.747-.759l-3.947-3.093c.032.003.065.005.096.008.279.02.542.031.789.031 1.954 0 3.594-.69 4.875-2.051 1.278-1.355 1.926-3.092 1.926-5.161v-.542c0-.123-.019-.236-.057-.335-.041-.103-.1-.195-.179-.273zm2.818-.457h-3.448v.497l.4.369c.026.027.051.065.068.109.017.045.027.102.027.17v.542c0 1.948-.607 3.579-1.801 4.848-1.192 1.265-2.72 1.906-4.543 1.906-.236 0-.488-.01-.756-.029-.269-.02-.558-.05-.867-.09l-.825-.106 5.225 4.095c.315.255.534.474.649.65.105.161.156.335.156.533 0 .405-.168.715-.514.95-.37.25-.903.377-1.585.377h-5.777v-13.676c0-.068.009-.126.027-.17.014-.039.039-.073.076-.105l.367-.381v-.489h-3.906v.489l.353.367c.037.038.062.075.079.119s.026.102.026.17v15.339c0 .074-.011.116-.02.139-.006.017-.026.054-.082.11l-.356.371v.489h9.828c1.206 0 2.252-.354 3.106-1.052.855-.7 1.399-1.646 1.617-2.812l.027-.141-4.009-2.956c1.892-.41 3.432-1.408 4.581-2.973 1.246-1.696 1.877-3.856 1.877-6.418z"/><path d="m86.502 181.967v15.339c0 .081-.015.155-.042.224-.029.068-.076.13-.139.186l-.29.302v.169h3.449v-.169l-.289-.302c-.065-.064-.109-.126-.133-.186-.024-.061-.036-.135-.036-.224v-15.339c0-.097.014-.181.042-.254.028-.072.071-.137.127-.193l.289-.301v-.169h-3.449v.169l.29.301c.063.056.11.121.139.193.027.073.042.157.042.254"/><path d="m86.405 181.279h2.701l-.08.083c-.075.074-.135.166-.175.268-.038.098-.058.211-.058.337v15.339c0 .12.017.221.053.308.036.091.096.177.183.264l.077.08h-2.7l.079-.083c.077-.067.144-.158.185-.257s.06-.203.06-.312v-15.339c0-.123-.019-.236-.057-.335-.043-.109-.11-.203-.201-.283zm3.303-.457h-3.905v.489l.353.367c.05.046.075.081.091.12.017.044.026.101.026.169v15.339c0 .051-.008.095-.025.137-.014.034-.041.068-.079.102l-.366.381v.489h3.905v-.489l-.352-.368c-.056-.056-.077-.092-.086-.114s-.02-.064-.02-.138v-15.339c0-.068.01-.126.027-.17s.041-.081.075-.115l.356-.371z"/><path d="m101.926 196.185c-2.051 0-3.723-.613-5.017-1.839-1.295-1.226-1.942-2.8-1.942-4.722 0-1.929.647-3.507 1.942-4.733 1.294-1.226 2.966-1.839 5.017-1.839 2.05 0 3.724.613 5.023 1.839 1.298 1.226 1.947 2.804 1.947 4.733 0 1.922-.649 3.496-1.947 4.722-1.299 1.226-2.973 1.839-5.023 1.839zm0 2.303c1.294 0 2.498-.183 3.612-.549 1.113-.365 2.068-.89 2.863-1.573 1.038-.885 1.82-1.896 2.346-3.033.527-1.138.79-2.374.79-3.709 0-1.326-.265-2.558-.796-3.696-.53-1.138-1.31-2.145-2.34-3.021-.803-.7-1.762-1.234-2.875-1.604-1.114-.369-2.314-.554-3.6-.554-1.279 0-2.475.185-3.588.554-1.114.37-2.073.904-2.876 1.604-1.037.868-1.82 1.87-2.346 3.003-.526 1.134-.79 2.372-.79 3.714 0 1.327.266 2.561.796 3.702.53 1.142 1.31 2.155 2.34 3.04.796.683 1.751 1.208 2.864 1.573 1.113.366 2.314.549 3.6.549z"/><path d="m101.926 195.956c-1.98 0-3.615-.598-4.86-1.777-1.241-1.174-1.87-2.707-1.87-4.555 0-1.856.629-3.392 1.87-4.567 1.245-1.179 2.879-1.777 4.86-1.777 1.98 0 3.617.598 4.865 1.777 1.245 1.176 1.876 2.712 1.876 4.567 0 1.847-.631 3.38-1.876 4.555-1.248 1.179-2.885 1.777-4.865 1.777zm0-13.133c-2.101 0-3.843.64-5.174 1.902-1.336 1.265-2.013 2.913-2.013 4.899 0 1.978.677 3.623 2.013 4.887 1.332 1.263 3.073 1.902 5.174 1.902s3.843-.639 5.179-1.901c1.34-1.265 2.02-2.91 2.02-4.888 0-1.986-.68-3.634-2.02-4.899-1.336-1.262-3.078-1.902-5.179-1.902zm0 15.437c-1.256 0-2.444-.181-3.529-.538-1.079-.355-2.017-.869-2.786-1.53-.999-.859-1.767-1.855-2.281-2.962-.514-1.106-.776-2.319-.776-3.606 0-1.302.26-2.519.769-3.618.51-1.097 1.279-2.081 2.285-2.923.781-.68 1.722-1.204 2.802-1.563 1.086-.36 2.269-.543 3.516-.543 1.255 0 2.441.183 3.527.543 1.08.359 2.022.883 2.798 1.56 1.002.852 1.769 1.842 2.283 2.945.514 1.101.775 2.312.775 3.599 0 1.295-.259 2.51-.769 3.613-.51 1.102-1.28 2.096-2.287 2.954-.769.662-1.707 1.176-2.787 1.531-1.085.357-2.276.538-3.54.538zm0-17.74c-1.296 0-2.528.19-3.66.566-1.138.378-2.132.933-2.954 1.648-1.056.884-1.865 1.921-2.404 3.079-.538 1.16-.811 2.442-.811 3.811 0 1.354.275 2.632.818 3.799.542 1.166 1.349 2.214 2.398 3.116.815.7 1.804 1.244 2.941 1.618 1.132.371 2.367.56 3.672.56 1.312 0 2.551-.189 3.683-.56 1.137-.374 2.127-.918 2.942-1.618 1.056-.901 1.865-1.948 2.404-3.11.538-1.163.811-2.444.811-3.805 0-1.355-.275-2.63-.818-3.793-.542-1.162-1.349-2.205-2.398-3.098-.821-.714-1.815-1.269-2.953-1.647-1.132-.376-2.367-.566-3.671-.566z"/><path d="m123.887 198.187c1.157 0 2.144-.334 2.96-1.001.816-.668 1.329-1.56 1.537-2.678l-4.317-3.183c2.082-.322 3.735-1.315 4.957-2.979s1.833-3.759 1.833-6.283v-1.013h-2.991v.169l.325.301c.057.056.099.121.127.193.029.073.043.157.043.254v.542c0 2.018-.621 3.686-1.864 5.005-1.242 1.318-2.811 1.978-4.709 1.978-.241 0-.498-.011-.771-.03-.274-.021-.567-.051-.881-.091l4.571 3.582c.337.273.57.508.699.705s.193.416.193.658c0 .482-.205.862-.615 1.139-.411.278-.981.416-1.712.416h-6.006v-13.904c0-.097.014-.181.042-.254.028-.072.074-.137.139-.193l.289-.301v-.169h-3.449v.169l.289.301c.057.056.099.121.127.193.029.073.042.157.042.254v15.339c0 .089-.012.163-.036.224-.024.06-.068.122-.133.186l-.289.302v.169z"/><path d="m128.267 181.279h2.362v.784c0 2.462-.602 4.531-1.789 6.148-1.179 1.605-2.797 2.577-4.808 2.888l-.542.084 4.642 3.423c-.214.993-.694 1.801-1.43 2.403-.771.63-1.717.949-2.815.949h-9.225l.079-.083c.084-.084.144-.17.18-.261.036-.087.053-.188.053-.308v-15.339c0-.126-.02-.239-.058-.337-.04-.102-.1-.194-.179-.272l-.075-.079h2.699l-.079.083c-.078.067-.146.162-.187.27-.038.096-.058.209-.058.335v14.133h6.235c.773 0 1.393-.153 1.84-.455.475-.322.715-.769.715-1.329 0-.285-.076-.549-.229-.782-.144-.22-.388-.467-.747-.759l-3.947-3.093c.032.003.064.005.095.008.28.02.543.031.789.031 1.954 0 3.594-.69 4.876-2.051 1.278-1.355 1.925-3.092 1.925-5.161v-.542c0-.126-.019-.239-.057-.337-.04-.102-.101-.194-.179-.272zm2.819-.457h-3.448v.497l.398.369c.028.028.052.065.069.109.018.044.027.102.027.17v.542c0 1.948-.606 3.579-1.801 4.848-1.191 1.265-2.72 1.906-4.543 1.906-.236 0-.487-.01-.755-.029-.27-.02-.559-.05-.867-.09l-.826-.106 5.226 4.095c.314.255.533.475.649.65.104.161.155.335.155.533 0 .405-.168.715-.514.95-.37.25-.903.377-1.584.377h-5.778v-13.676c0-.068.01-.126.027-.17.015-.039.039-.073.076-.104l.368-.382v-.489h-3.907v.489l.353.367c.038.038.062.075.079.119.018.044.026.102.026.17v15.339c0 .074-.01.116-.019.138-.008.022-.029.058-.082.11l-.357.372v.489h9.829c1.206 0 2.251-.354 3.105-1.052.855-.7 1.399-1.646 1.618-2.812l.026-.141-4.009-2.956c1.893-.41 3.432-1.408 4.582-2.973 1.245-1.696 1.877-3.856 1.877-6.418z"/><path d="m138.479 192.266 5.294-1.364c2.058-.53 3.626-1.382 4.703-2.556s1.616-2.617 1.616-4.329v-2.967h-18.222l1.037 2.351h14.592c.008.057.014.121.018.193s.006.181.006.326c0 1.182-.359 2.156-1.079 2.925-.72.768-1.815 1.348-3.286 1.742l-7.091 1.797c-1.247.322-2.175.814-2.786 1.478-.611.662-.917 1.513-.917 2.55 0 1.182.41 2.106 1.23 2.774.82.667 1.966 1.001 3.437 1.001h11.71l-1.616-2.931h-.144l.024.217v.049c0 .104-.038.188-.115.253-.076.064-.179.096-.308.096h-9.551c-.707 0-1.23-.114-1.567-.344-.338-.229-.506-.584-.506-1.067 0-.868 1.125-1.588 3.376-2.158z"/><path d="m132.221 181.279h17.642v2.738c0 1.645-.523 3.049-1.555 4.175-1.042 1.135-2.588 1.972-4.592 2.489l-5.438 1.399c-2.388.605-3.549 1.384-3.549 2.38 0 .561.204.984.606 1.257.38.257.935.383 1.696.383h9.551c.183 0 .337-.05.455-.15.052-.044.095-.095.127-.151l1.19 2.159h-11.323c-1.41 0-2.518-.319-3.292-.95-.772-.627-1.147-1.476-1.147-2.596 0-.973.289-1.779.857-2.396.578-.627 1.478-1.102 2.675-1.411l7.09-1.796c1.509-.404 2.651-1.012 3.397-1.808.757-.808 1.141-1.845 1.141-3.081 0-.15-.002-.263-.007-.338-.004-.08-.011-.15-.019-.212l-.027-.197h-14.643zm18.099-.457h-18.801l1.239 2.808h14.532c.004.069.005.165.005.29 0 1.116-.343 2.047-1.018 2.768-.687.733-1.756 1.297-3.178 1.678l-7.088 1.796c-1.285.332-2.26.851-2.898 1.544-.649.704-.978 1.614-.978 2.706 0 1.248.443 2.241 1.315 2.951.858.698 2.063 1.052 3.581 1.052h12.098l-1.869-3.387h-.534l.052.471c-.002.065-.014.083-.035.1-.034.029-.088.044-.161.044h-9.551c-.657 0-1.141-.103-1.439-.304-.273-.186-.406-.473-.406-.879 0-.735 1.108-1.406 3.204-1.937l.146-.036 5.294-1.363c2.091-.539 3.711-1.422 4.815-2.624 1.112-1.211 1.675-2.72 1.675-4.483z"/></g><path d="m126.747 101.286-3.201-5.487c-8.098 0-22.014 3.078-25.479-6.773-1.055-2.998-.419-7.433 1.244-10.146 4.344-7.088 11.86-6.515 18.609-6.291 3.108.104 6.187.212 9.281.567-.797-1.375-1.508-3.251-2.556-4.412-1.172-1.297-.031-1.949-1.785-1.982-5.419-.101-12.117-.457-18.748.686-4.562.787-11.66 6.402-11.889 14.862-.228 8.459 1.143 18.748 17.834 19.205 16.69.457 16.69-.229 16.69-.229" fill="#fff"/><path d="m27.977 126.436 4.343.457.229 21.264 22.635-22.864.457 34.524h-5.03l.229-22.406-23.092 23.092z" fill="#fff"/></g></svg>