<svg clip-rule="evenodd" fill-rule="evenodd" stroke-linejoin="round" stroke-miterlimit="2" viewBox="0 0 560 400" xmlns="http://www.w3.org/2000/svg"><g transform="matrix(.787653 0 0 .787653 -32.5813 -113.018)"><path d="m435.592 541.04c-145.804 24.345-72.902 12.172 0 0zm-134.778-259.083c-5.038 31.465-17.611 57.559-45.016 74.638 11.429 14.504 16.526 28.789 18.09 45.873 1.965 21.488-1.705 42.469-6.358 63.327-1.894 8.493-3.89 17.275-4.374 25.983-.619 11.15 2.248 18.76 9.964 24.538 7.185 5.378 16.319 8.042 24.954 9.922 4.596.999 9.287 1.781 13.852 2.478 11.177 1.695 22.365 3.523 33.518 5.446 12.723 2.194 28.912 8.578 38.997 16.765 4.514 3.665 8.741 8.325 12.419 13.03 3.706-4.707 7.804-9.161 12.393-13.023 10.083-8.184 26.28-14.578 39.004-16.772 11.153-1.923 22.818-3.989 33.997-5.685 9.091-1.382 17.289-2.582 25.964-5.704 15.414-5.548 23.303-13.652 22.33-31.234-.508-9.135-2.393-16.854-4.377-25.744-4.653-20.858-8.321-41.839-6.356-63.327 1.564-17.084 6.897-31.369 18.09-45.873-27.405-17.079-39.978-43.173-45.015-74.638-41.088 1.72-76.403-12.882-96.044-49.73-20.013 37.784-55.259 52.394-96.032 49.73" fill="#fff"/><g fill="#2163b8"><path d="m251.852 355.721c26.514-15.477 41.226-40.039 46.588-76.671 42.282 2.132 79.178-12.559 98.41-53.039 19.108 40.7 55.937 55.49 98.413 53.039 5.359 36.632 20.074 61.194 46.589 76.671-11.243 14.991-17.632 29.174-19.262 46.999-2.036 22.273 2.943 43.951 7.018 62.229 2.21 9.908 4.78 20.119 5.153 26.914.527 9.53-2.239 21.616-15.588 28.791-21.404 11.505-54.723 11.387-83.581 20.386-15.782 4.922-29.648 12.643-38.742 27.762-9.194-17.422-30.121-26.274-51.64-31.177-29.831-6.796-51.643-6.791-71.398-17.209-13.406-7.072-15.399-19.498-14.872-29.033.378-6.792 2.945-16.526 5.153-26.434 4.077-18.278 9.053-39.956 7.017-62.229-1.629-17.825-8.734-33.439-19.258-46.999zm48.962-73.764c-5.038 31.465-17.611 57.559-45.016 74.638 11.429 14.504 16.526 28.789 18.09 45.873 1.965 21.488-1.705 42.469-6.358 63.327-1.894 8.493-3.89 17.275-4.374 25.983-.619 11.15 2.248 18.76 9.964 24.538 7.185 5.378 16.319 8.042 24.954 9.922 4.596.999 9.287 1.781 13.852 2.478 11.177 1.695 22.365 3.523 33.518 5.446 12.723 2.194 28.912 8.578 38.997 16.765 4.514 3.665 8.741 8.325 12.419 13.03 3.706-4.707 7.804-9.161 12.393-13.023 10.083-8.184 26.28-14.578 39.004-16.772 11.153-1.923 22.818-3.989 33.997-5.685 9.091-1.382 17.289-2.582 25.964-5.704 15.414-5.548 23.303-13.652 22.33-31.234-.508-9.135-2.393-16.854-4.377-25.744-4.653-20.858-8.321-41.839-6.356-63.327 1.564-17.084 6.897-31.369 18.09-45.873-27.405-17.079-39.978-43.173-45.015-74.638-41.088 1.72-76.403-12.882-96.044-49.73-20.013 37.784-55.259 52.394-96.032 49.73"/><path d="m305.49 282.488c23.787 3.194 49.541.56 68.762-15.083 7.744-6.303 13.722-14.19 18.04-23.172.706-1.467 1.363-2.955 1.977-4.462l2.534-6.226 2.615 6.193c.635 1.5 1.294 3.052 2.003 4.521 4.317 8.973 10.293 16.85 18.03 23.149 19.219 15.64 44.973 18.274 68.757 15.08l2.998-.401.158 3.021c1.537 29.521 14.192 56.721 41.453 70.266l3.357 1.668-2.563 2.735c-5.01 5.349-8.933 11.41-11.772 18.167-6.327 15.062-6.703 32.198-5.326 48.249 1.639 19.082 5.761 38.23 9.401 57.021 2.312 11.951.996 23.994-9.394 31.703-7.043 5.225-16.379 7.067-24.918 7.976-12.147 1.295-24.23 2.209-36.323 4.094-21.226 3.311-44.184 9.527-56.043 29.162l-2.397 3.97c-8.95-16.16-22.264-23.947-40.294-28.897-17.953-4.93-34.751-5.074-53.07-7.381-8.795-1.106-19.615-3.557-26.826-9.025-10.154-7.698-11.141-19.831-8.862-31.602 3.64-18.791 7.761-37.939 9.398-57.021 1.38-16.051 1.004-33.187-5.326-48.249-2.836-6.757-6.762-12.818-11.772-18.167l-2.56-2.735 3.356-1.668c27.259-13.545 39.914-40.745 41.454-70.266l.158-3.021zm89.315-37.048c-15.201 31.614-47.798 45.436-89.683 39.812-1.753 33.602-17.041 59.72-42.999 72.621 28.636 30.579 17.861 77.021 8.402 125.872-5.754 29.699 16.557 34.448 31.866 36.376 15.679 1.977 36.279 2.824 54.891 7.936 16.228 4.454 30.822 12.029 39.568 26.651 12.155-20.123 35.077-26.899 57.999-30.475 13.3-2.074 26.678-3.068 36.458-4.112 15.345-1.635 37.62-6.677 31.869-36.376-9.462-48.851-20.234-95.293 8.401-125.872-25.959-12.901-41.245-39.019-42.998-72.621-41.874 5.621-74.463-8.191-89.671-39.784-.166-.347-1.16-2.522-2.058-4.646-.925 2.275-1.721 3.942-2.045 4.618"/><path d="m409.243 348.69c2.794-.121 3.971-1.037 4.852-2.341 1.53 2.929 3.023 6.656 3.053 9.762.093 9.419.163 18.964-.075 28.423l-.281.276c-5.449 5.374-12.787 11.205-20.79 11.503-13.016.486-22.874-14.136-28.493-23.995l-.012-.023c1.877-7.861 3.396-17.429 2.224-25.643 3.803 4.234 9.406 8.465 14.873 5.952 8.208-3.775 6.092-19.831 4.778-27.153.444-.106.879-.255 1.292-.444.043.73.189 1.569.447 2.539 2.142 8.118 11.042 21.446 18.132 21.144zm-32.731-47.805c-2.126.234-4.667 2.079-4.546 2.962.066.517.323 1.268.675 1.774.262-.258.522-.52.787-.775 1.426.676 2.997-.007 2.676-2.199.616-.3 1.251-.352 1.901-.156-.045-.248-.137-.489-.255-.706.134.175.26.347.321.503.269.706 1.051 1.285 1.445 1.866.468.685.886 1.694 1.222 2.601.049.474.092.949.127 1.421.092 1.243-.805 2.136-.803 3.378 0 .857.924 1.011.893 2.936-.012.59-.054 1.391-.113 2.241-1.507.225-2.962.253-4.509-.019-.917-.163-1.134 1.663-.059 1.951 1.388.373 2.914.354 4.409.09-.056.685-.115 1.315-.163 1.809l-.035.635 3.432 2.745c.883 1.077 2.158 1.604 3.505 1.686 1.11 6.146 3.365 21.98-3.642 25.202-5.513 2.536-11.663-4.016-14.601-7.903l.092-.182c1.275-2.546-.149-9.443-.787-12.516 1.746-2.274 3.815-3.45 6.656-4.62-1.946-.661-3.848-.885-5.728-1.466-1.556-.482-2.345-2.405-3.953-3.075-1.415-.591-3.423.191-4.795-.416-1.658-.732-4.755-2.005-4.353-3.777 1.169-5.179.9-10.111.234-15.343 5.612-.597 8.082-3.205 12.981-4.464 1.353-.347 4.608-1.516 5.564-.543.69.699 1.269 1.245 1.701 1.71v.005l.009.01.187.208c.725.833.916 1.433.378 2.321-.099.161-.052.348.056.539-.326-.369-.699-.569-.909-.432zm-11.519 9.436c.791-1.989 3.241-3.956 4.06-3.607.482.204 1.139.65 1.533 1.12-.319.187-.638.371-.954.555.276 1.554-.798 2.891-2.825 2.003-.453.517-.673 1.115-.654 1.793-.898-.426-1.498-1.559-1.16-1.864zm33.933 185.012c8.754-7.398 18.756-11.432 28.988-16.498 4.433-2.197 8.947-4.117 13.489-6.061 3.783-1.62 7.6-3.273 11.176-5.321 4.001-2.294 5.501-3.567 4.641-8.416-1.592-8.982-9.315-24.006-14.547-32.291-5.519 1.799-19.962 11.242-26.136 18.281-.343.092-.392.404-.319.77 6.24 2.317 13.793 6.485 18.326 11.391.46.633.134 1.28-1.002 1.134-.578-.076-1.344-.085-1.863-.038-3.401.312-6.484 1.788-9.11 3.961-7.622 6.304-12.535 15.22-20.241 21.418l-.3.24-.383-.028c-.966-.071-1.871-.068-2.719.003zm46.73-67.463c5.256 8.751 11.975 22.308 13.485 30.827 1.015 5.728-.874 7.745-5.593 10.449-3.642 2.086-7.521 3.77-11.378 5.421-4.509 1.929-8.991 3.836-13.389 6.016-10.664 5.281-21.227 9.468-30.171 17.626l-1.634 1.488v-15.513c-5.034 1.205-7.703 5.334-8.888 11.373l-.189.959-1.916-.376.189-.959c1.677-8.54 6.34-13.769 15.225-13.278 7.482-6.141 12.372-14.913 19.93-21.163 2.617-2.163 5.741-3.694 9.083-4.244-4.213-3.992-9.667-6.958-15.049-8.937-.688.184-1.274.226-2.119-.182-3.165-1.524-7.49-5.808-8.822-5.997-2.076.109-6.826 6.28-11.056 9.055-.885.581-2.655.976-3.857.704-1.625 2.329-3.484 4.578-5.286 6.694-3.219 3.786-6.594 7.456-9.95 11.12-1.677 1.828-1.28 1.577-.888 3.994.666 4.086.656 8.124.72 12.246.071 4.58-.616 8.715-1.904 13.09-.76 2.579-2.026 5.793-2.21 8.446-.121 1.745.163 2.902.973 4.426.815 1.526 1.483 2.64 1.844 4.388.562 2.726.109 5.825-.486 8.505-.558 2.511-6.838 5.234-9.006 6.472-.482.274-.959.555-1.429.848l-.827.517-1.032-1.655.827-.518c.491-.307.989-.602 1.493-.888 1.294-.737 7.775-3.878 8.068-5.198.529-2.381.982-5.265.482-7.688-.315-1.526-.943-2.53-1.654-3.867-.985-1.844-1.346-3.365-1.2-5.477.199-2.87 1.467-6.089 2.284-8.862 1.233-4.185 1.892-8.127 1.826-12.508-.061-4.02-.047-7.981-.694-11.963-.487-2.998-.81-3.241 1.374-5.626 3.342-3.647 6.699-7.301 9.904-11.066 1.849-2.173 3.769-4.494 5.416-6.896-4.186-5.008-15.844-12.341-22.42-11.793l-.467.512c-5.629 6.158-8.536 14.129-10.355 22.143-.935 4.114.699 10.546 1.172 14.835 1.559 14.221 2.78 28.487 3.968 42.741l.635-.215.626 1.847-.923.311c-4.89 1.659-8.468 4.103-12.089 7.762l-.685.694-1.388-1.372.687-.695c3.425-3.46 6.852-5.911 11.235-7.645-1.199-14.412-2.432-28.836-4.008-43.213-.512-4.677-2.166-10.936-1.133-15.485 1.766-7.777 4.53-15.454 9.634-21.658-2.83-2.65-3.512-4.242-2.173-6.399 7.211-11.627 13.77-23.139 16.344-33.031.917-3.526 1.547-6.932.066-10.189-4.256-4.478-7.773-9.863-10.503-14.568-3.179 4.188-6.427 8.226-9.237 12.709l-.492.784c-.881 2.166-2.163 4.167-3.854 5.797-2.055 1.979-4.922 3.533-7.856 3.285-7.334-.621-10.428-11.425-9.587-17.573 1.49-10.919 12.204-18.127 15.352-28.904.796-2.726.622-5.886.336-8.791-.758-.409-1.417-.929-1.906-1.554-2.501-3.189-2.357-8.676.352-11.094 2.581-2.303 4.825-2.478 8.238-2.242.118-1.181.236-2.362.354-3.54-4.159-5.862-11.205-7.147-10.945-17.351.196-7.664 8.515-12.114 14.946-16.285 2.778-1.804 6.701-1.861 9.651-.356.694.356 2.515 2.801 4.013 5.037 1.108 1.108 2.161 2.428 3.193 3.517 1.063 1.117 2.782 3.078 3.094 4.615 1.134 5.575.855 12.058.357 17.679l3.04 2.598c1.308 1.597 4.102 1.205 5.545-.068l.43-.381c.749-.937 2.057-1.502 3.961-1.929 8.51-1.911 19.103-.01 27.766-1.143 16.42-2.15 29.295-9.663 42.373-12.086 6.483-1.202 12.544-2.412 18.394-1.084 2.289.519 5.305 1.03 7.336 2.683 1.42 1.152 3.349 8.838.943 9.764-7.752 2.981-11.196-4.677-16.557-2.733-10.298 3.734-20.747 10.315-31.305 15.053-8.21 3.684-19.462 6.235-23.949 8.646-2.983 1.604-4.214 3.435-5.123 5.052 1.88 3.361 3.824 7.88 3.861 11.732.1 9.915.17 19.965-.113 29.913.829 5.563 5.586 11.51 8.73 15.509 5.725 7.284 12.194 11.507 17.756 19.865 1.604 2.412 1.028 4.915.185 6.491zm-87.583-45.809c.246-1.727.413-3.46.529-5.198.253-3.862.238-7.733.203-11.6-.031-3.325-.106-6.722.125-10.038.295-4.183 5.44-6.946 8.548-10.104 1.696 8.399.033 18.796-1.951 27.02-2.506 3.333-5.069 6.54-7.454 9.92zm-5.007-39.72c2.267.581 4.856.411 6.655-.562 2.908-1.575 3.883-4.563 3.883-7.199.773-.524 2.523-1.339 3.368-1.951.586 3.104 1.302 7.752.556 9.244-.915 1.821-4.028 4.103-5.603 5.482-1.892 1.658-3.873 3.645-4.634 6.108-.163.529-.267 1.073-.307 1.628-.501 7.147.144 14.417-.331 21.644-.144 2.194-.375 4.386-.753 6.552-.572 3.292-2.034 6.512-4.462 8.852-1.632 1.573-3.991 2.945-6.337 2.745-6.048-.513-8.5-10.385-7.82-15.362.203-1.49.602-2.931 1.15-4.329 1.621-4.117 4.521-7.811 7.103-11.37 2.928-4.035 5.626-8.081 7.04-12.925.794-2.714.735-5.687.492-8.557zm39.92-19.008.006.005-.033.028c-.577.725-.456 1.807.04 3.683.926 3.507 2.919 7.303 4.912 10.316 2.029 3.068 7.079 9.554 11.25 9.375 1.075-.045 2.237-.194 2.986-1.047.304-.347.592-.805.871-1.296l-.045-.081.133-.075c.368-.659.722-1.361 1.074-1.906 1.351-2.093 3.066-3.567 5.258-4.743 2.203-1.186 4.953-2.064 7.331-2.841 3.167-1.035 6.351-2.003 9.504-3.08 2.44-.836 4.885-1.731 7.24-2.79 10.564-4.74 20.555-11.16 31.439-15.104 6.41-2.324 9.7 5.175 16.301 2.825.499-1.247-.54-5.628-1.299-6.545-1.672-1.33-4.466-1.8-6.492-2.258-5.688-1.292-11.978.054-17.608 1.098-6.68 1.238-13.243 3.801-19.635 6.066-7.513 2.666-14.901 4.998-22.839 6.037-9.004 1.178-18.862-.848-27.592 1.112-1.455.329-2.338.669-2.801 1.221"/><path d="m398.097 363.511 3.286 10.151-1.875.605.009.033-1.325.42-8.779-7.792 2.56 7.925.971-.315.552 1.703-4.119 1.332-.55-1.702.971-.315-2.742-8.474-.969.314-.553-1.705 5.593-1.809 6.564 5.805-1.769-5.472-.971.314-.55-1.706 4.117-1.332.55 1.706z"/><path d="m327.687 355.393v33.643h-6.212v.106l-4.383-.028-18.784-31.893v26.257h3.216v5.645h-13.644v-5.645h3.214v-28.085h-3.214v-5.645h18.531l14.063 23.777v-18.132h-3.215v-5.645h13.645v5.645z"/><path d="m483.584 355.393v28.085h4.825v5.645h-20.468v-5.645h4.823v-28.085h-4.823v-5.645h20.468v5.645z"/><path d="m395.129 499.301v28.085h6.587c4.636 0 9.136-4.273 13.175-9.41l3.875.605-6.112 14.45h-33.168v-5.645h4.82v-28.085h-4.82v-5.648h20.466v5.648z"/></g></g></svg>