<svg clip-rule="evenodd" fill-rule="evenodd" stroke-linejoin="round" stroke-miterlimit="2" viewBox="0 0 560 400" xmlns="http://www.w3.org/2000/svg"><g fill-rule="nonzero"><path d="m182.187 200.561c.161.278.087.57.087.848v37.871c0 3.027-2.061 5.074-5.103 5.088h-38.601c-.205 0-.483.132-.6-.102-.102-.249.19-.38.322-.512 2.603-2.588 5.22-5.161 7.837-7.75 2.851-2.822 5.703-5.658 8.554-8.466.307-.307.424-.614.336-1.038-.102-.541-.19-1.111-.19-1.667.015-1.184-.497-2.076-1.287-2.895-1.374-1.418-2.836-2.734-4.503-3.801-1.638-1.053-3.436-.892-5.235-.571-3.202.571-6.375 1.346-9.592 1.872-3.377.556-6.682.292-9.972-.541-6.784-1.725-12.575-5.176-17.283-10.338-4.328-4.737-7.369-10.25-8.934-16.449-1.637-6.492-.862-12.794 2.545-18.672 3.26-5.644 7.881-9.782 13.817-12.4 3.743-1.652 7.706-1.93 11.742-1.374 6.185.862 11.741 3.275 16.742 6.945 5.22 3.831 9.153 8.744 11.843 14.651 1.974 4.343 2.822 8.89 2.559 13.628-.132 2.383-.57 4.723-.921 7.077-.351 2.325-.731 4.664-.643 7.033.014.556.073 1.111.175 1.667.175 1.038.643 1.915 1.491 2.588 1.126.877 2.135 1.915 3.363 2.676 1.448.906 3.042.906 4.665.819.307-.015.468-.234.658-.425 3.319-3.289 6.653-6.579 9.972-9.869 1.857-1.828 3.714-3.656 5.585-5.469.147-.175.278-.424.571-.424z" fill="#5c96d0"/><g fill="#f48022"><path d="m244.944 214.715c0-4.24-.03-8.481.014-12.721.03-3.217.03-6.434.541-9.607.19-1.228.483-2.427 1.17-3.494.585-.907 1.418-1.477 2.457-1.682 2.734-.526 5.483-.394 8.232-.204 1.535.102 1.915.789 1.462 2.266-.219.717-.497 1.418-.673 2.149-.336 1.375.702 2.34 2.077 1.945.921-.263 1.71-.833 2.515-1.316 2.456-1.447 5.088-2.252 7.925-2.471 2.339-.175 4.342.614 6.214 1.901.38.263.789.482 1.14.79 1.755 1.506 3.67 1.403 5.688.614 1.594-.614 2.998-1.594 4.577-2.238 6.068-2.5 13.847-.818 17.254 6.902 1.55 3.495 2.281 7.165 2.661 10.937.599 5.995.439 12.019.351 18.029-.059 4.094-.234 8.174-.951 12.209-.234 1.345-.526 2.676-1.257 3.86-.439.731-1.024 1.214-1.945 1.199-2.88-.044-5.746-.044-8.612-.117-1.608-.044-2.033-.628-1.711-2.193.687-3.29 1.462-6.551 1.974-9.87.717-4.693 1.097-9.416 1.082-14.183-.014-2.749-.117-5.498-.643-8.203-.497-2.602-1.228-5.103-2.983-7.179-1.974-2.354-4.84-2.793-7.574-2.149-.907.204-1.462.921-1.872 1.71-.862 1.711-1.111 3.568-1.301 5.44-.249 2.573-.278 5.146-.293 7.735-.014 6.594.074 13.203-.19 19.798-.087 2.471-.117 4.971-.716 7.398-.336 1.345-.79 1.755-2.179 1.755-3.1.029-6.185.029-9.285.044-1.213 0-1.476-.307-1.301-1.506.716-4.738 1.477-9.475 2.149-14.213.907-6.375 1.419-12.779.615-19.213-.308-2.413-.79-4.796-2.238-6.858-1.783-2.544-5.176-3.129-7.72-1.33-2.062 1.447-3.027 3.597-3.743 5.907-.79 2.574-1.111 5.235-1.287 7.91-.351 5.264-.219 10.514.176 15.763.277 3.699.877 7.34 1.813 10.922.555 2.121.161 2.574-2.033 2.588-2.734.015-5.454.03-8.188.059-1.097.015-1.594-.322-2.032-1.418-.424-1.068-.615-2.208-.746-3.334-.512-4.284-.6-8.598-.614-12.911-.015-3.802 0-7.604 0-11.405.029-.015.014-.015 0-.015z"/><path d="m395.37 181.248c-.132.002-.267.016-.406.041-1.272.249-2.032 1.185-2.793 2.091-1.023 1.199-1.915 2.515-2.968 3.685-1.082 1.184-2.281 2.237-4.109 1.784-1.55-.38-3.114-.57-4.328-.526-2.822.014-5.205.365-7.53 1.155-4.343 1.462-7.428 4.269-9.256 8.466-.95 2.164-1.374 4.445-1.491 6.799-.161 2.997.248 5.907 1.477 8.685.994 2.223 2.5 4.095 3.904 6.039.965 1.36.833 1.989-.57 2.925-1.506 1.009-3.115 1.871-4.533 3.041-3.89 3.217-4.694 8.554-3.173 12.619 1.564 4.196 4.971 6.097 9.197 6.755 3.524.541 6.857-.336 10.118-1.579 2.354-.892 4.679-1.916 7.194-2.34 2.12-.351 4.094-.175 5.673 1.463.571.599 1.039 1.286 1.594 1.9.804.892 1.726.951 2.603.117.366-.351.702-.746.98-1.17 1.783-2.748 2.88-5.775 3.64-8.933.307-1.258-.058-2.296-1.082-3.1-.321-.249-.658-.512-1.009-.717-3.684-2.149-7.603-2.471-11.712-1.623-3.099.644-6.082 1.682-9.08 2.676-1.418.468-2.836 1.024-4.372 1.053-1.257.029-2.31-.673-2.792-1.843-.381-.936-.103-1.988.818-2.822 2.574-2.324 5.703-3.275 9.08-3.407 2.325-.087 4.621-.277 6.829-1.023 3.451-1.155 6.258-3.188 8.32-6.2 1.886-2.749 2.924-5.819 3.173-9.124.263-3.655-.088-7.238-1.872-10.557-.585-1.096-1.374-2.061-1.93-3.173-.307-.599-.57-1.213-.395-1.944.307-1.258 1.228-1.799 2.384-2.077 1.345-.321 2.748-.307 4.108-.599 1.258-.278 1.565-.877 1.039-2.047-.249-.556-.571-1.082-.936-1.565-1.331-1.769-2.676-3.524-4.665-4.635-.362-.197-.732-.296-1.129-.29zm-14.735 15.133c.299.005.601.024.906.057 3.612.395 5.995 2.383 6.931 5.907.728 2.779.345 5.87-1.305 8.081 0 .001-.001.002-.002.003-.012.016-.024.031-.036.047-.047.062-.094.123-.143.183-.338.42-.724.805-1.161 1.146-2.705 2.121-5.775 2.355-8.802 1.024-3.071-1.345-4.387-4.036-4.562-7.311.015-.278.029-.512.029-.907.004-.281.018-.561.044-.838s.064-.552.113-.824c.274-1.503.922-2.91 2.063-4.109.095-.101.194-.199.295-.297 0 0 0 0 .002-.001.009-.009.018-.019.028-.028 1.599-1.51 3.512-2.168 5.601-2.133z"/><path d="m336.55 188.308c-3.992-.029-8.013 1.374-11.566 4.065-4.489 3.421-7.223 8.042-8.905 13.35-1.097 3.451-1.623 7.004-1.799 10.615-.277 5.498.249 10.879 2.399 16.011 2.748 6.565 7.384 10.923 14.548 12.195 5.279.936 10.353.38 15.09-2.355 6.492-3.743 8.715-11.258 7.326-17.458-.117-.482-.191-1.009-.541-1.418-.41-.483-.775-.483-1.053.087-.219.454-.38.951-.57 1.419-.688 1.725-1.536 3.348-2.852 4.693-2.149 2.208-4.825 3.29-7.808 3.744-3.86.584-7.515.058-10.849-2.077-1.126-.731-2.135-1.623-2.734-2.865-.921-1.901-.161-3.978 1.901-5.308 2.339-1.506 4.985-2.267 7.588-3.115 3.261-1.067 6.522-2.12 9.534-3.787 2.895-1.593 5.307-3.684 6.667-6.784 1.068-2.413 1.301-4.957 1.038-7.575-.468-4.576-2.588-8.173-6.492-10.644-3.173-2.003-6.697-2.764-10.922-2.793zm.044 10.001c1.74.147 3.465.629 4.913 2.018.848.819 1.462 1.696 1.813 2.822.541 1.667.029 2.924-1.316 3.948-1.96 1.491-4.241 2.339-6.522 3.144-2.383.848-4.825 1.462-7.296 2.003-.088.015-.19.029-.292.044-.098.014-.193.026-.283.035-1.269.12-1.834-.356-1.903-1.625-.005-.09-.008-.184-.008-.282 0-1.55.351-3.041.936-4.459 1.028-2.481 2.519-4.59 4.761-6.073.15-.099.303-.195.459-.288 1.404-.848 2.939-1.228 4.738-1.287z"/><path d="m449.702 188.301c-2.689.033-5.313.59-7.846 1.776-5.512 2.574-9.138 6.946-11.536 12.4-2.15 4.869-2.954 10.016-3.1 15.279 0 1.419.014 2.822.146 4.241.336 4.43 1.301 8.7 3.422 12.648 2.573 4.796 6.404 8.071 11.682 9.533 3.7 1.024 7.458 1.067 11.201.263 3.597-.775 6.77-2.398 9.285-5.132 2.792-3.056 4.079-6.726 4.094-10.849.014-1.609-.088-3.217-.687-4.738-.132-.351-.322-.687-.746-.702-.439-.014-.512.395-.643.688-.22.541-.424 1.082-.644 1.623-1.301 3.202-3.436 5.614-6.682 6.93-2.881 1.17-5.893 1.521-8.949 1.082-2.763-.395-5.293-1.462-7.325-3.465-2.12-2.091-1.945-4.767.439-6.565 1.608-1.214 3.465-1.872 5.322-2.515 3.67-1.272 7.428-2.296 10.922-4.021 2.559-1.258 4.884-2.837 6.595-5.162 1.901-2.588 2.515-5.527 2.412-8.685-.131-4.358-1.71-8.027-5.146-10.806-2.486-2.003-5.381-3.085-8.511-3.553-1.247-.192-2.483-.285-3.705-.27zm-.096 10.008c.632.041 1.247.133 1.837.287 1.768.461 3.306 1.475 4.392 3.296.497.833.702 1.754.702 2.719v.006.009c0 1.141-.746 1.857-1.565 2.5-1.667 1.302-3.611 2.091-5.571 2.808-2.632.95-5.308 1.71-8.057 2.266-.263.059-.526.102-.789.132-1.155.117-1.725-.351-1.857-1.506-.093-.785.02-1.557.195-2.306.018-.08.035-.159.054-.238.833-3.495 2.5-6.463 5.571-8.481 1.476-.98 3.114-1.462 5.088-1.492z"/><path d="m218.293 188.29c-1.469.009-2.973.175-4.508.486-4.767.965-8.408 3.714-11.201 7.662-2.69 3.787-4.225 8.027-5.015 12.545-1.243 7.194-.965 14.3 1.564 21.217 1.872 5.117 4.928 9.372 9.709 12.151 5.381 3.114 10.996 3.523 16.713.935 5.264-2.383 8.729-6.521 10.996-11.727 2.032-4.664 2.778-9.591 2.792-14.651-.014-5.834-.789-10.22-2.851-15.309-1.374-3.377-3.319-6.36-6.082-8.773-3.63-3.169-7.712-4.562-12.117-4.536zm-.009 10.019c2.913.046 5.876 1.461 7.71 4.504.163.272.313.547.459.824.066.125.131.249.194.375.008.017.018.035.026.053 0 0 .001 0 .001.001 1.418 2.857 1.948 5.944 2.115 9.14.004.069.009.138.012.208.004.091.006.183.006.274v.006c.001.089.001.179 0 .268-.002.182-.006.365-.006.548-.007.958-.048 1.908-.133 2.85-.021.235-.045.47-.072.704-.027.234-.056.467-.089.7v.001c-.327 2.329-.958 4.595-2.045 6.77-2.969 5.908-9.548 6.361-13.379 3.787-2.179-1.462-3.451-3.597-4.255-6.009-.908-2.739-1.38-5.493-1.428-8.254-.003-.168-.004-.335-.004-.503 0-.002 0-.004 0-.006.002-2.588.376-5.181 1.11-7.775.673-2.354 1.769-4.532 3.626-6.214 1.651-1.497 3.886-2.288 6.152-2.252z"/><path d="m408.401 213.794c-.043-6.975.015-12.911.161-18.862.132-5.235.337-10.455.936-15.66.263-2.194.468-4.401 1.287-6.492.424-1.068.599-1.185 1.725-1.185 2.676-.014 5.366-.014 8.042-.044.512 0 1.024.044 1.521.147.98.204 1.477.95 1.243 1.93-.731 3.099-1.331 6.229-1.799 9.387-.526 3.538-.906 7.091-1.199 10.659-.541 6.639-.57 13.291-.394 19.93.16 6.083.57 12.151 1.359 18.189.439 3.407 1.009 6.785 1.667 10.148.249 1.287-.087 1.755-1.389 1.769-3.465.015-6.916-.044-10.381-.044-.468 0-.702-.234-.878-.628-.716-1.506-.892-3.129-1.082-4.738-.687-5.863-.745-11.756-.819-17.648-.014-2.618-.058-5.25 0-6.858z"/></g><path d="m146.158 155.073c.103-.132.308-.044.483-.044h30.472c3.071 0 5.147 2.061 5.147 5.117.014 8.554 0 17.108.014 25.647 0 .395-.102.687-.394.965-3.217 3.173-6.419 6.361-9.622 9.548-1.199 1.199-2.398 2.413-3.597 3.597-.146.146-.277.351-.584.395 2.544-19.827-6.185-34.215-21.919-45.225z" fill="#5c96d0"/><path d="m93.066 208.559c1.477 2.442 3.1 4.679 4.943 6.77 4.474 5.074 9.767 9.007 15.938 11.785 3.363 1.521 6.857 2.632 10.483 3.276 3.714.658 7.443.76 11.186.161.76-.117 1.535-.22 2.31-.322.044.336-.219.453-.38.599-4.152 4.138-8.334 8.247-12.443 12.429-.819.833-1.638 1.14-2.793 1.126-8.115-.044-16.23-.029-24.331-.029-2.982 0-5.029-2.062-5.029-5.06v-30.033c-.015-.19-.088-.424.116-.702z" fill="#5c96d0"/></g></svg>