<svg clip-rule="evenodd" fill-rule="evenodd" stroke-linejoin="round" stroke-miterlimit="2" viewBox="0 0 560 400" xmlns="http://www.w3.org/2000/svg"><g fill="#7761a7" fill-rule="nonzero"><path d="m0 0c-3.753 0-6.179-2.884-6.179-8.698 0-5.812 2.426-8.649 6.179-8.649 3.799 0 6.179 2.837 6.179 8.649 0 5.814-2.38 8.698-6.179 8.698m0-20.46c-5.584 0-10.298 3.432-10.298 11.762 0 8.332 4.76 11.81 10.298 11.81 5.584 0 10.299-3.478 10.299-11.81 0-8.33-4.715-11.762-10.299-11.762" transform="matrix(2.55211 0 0 -2.55211 71.174728 177.970795)"/><path d="m0 0c-3.479 0-6.179-2.838-6.179-7.461v-6.911c1.19-1.465 2.792-2.609 5.584-2.609 4.302 0 6.27 3.753 6.27 8.879 0 5.676-1.831 8.102-5.675 8.102m.458-20.185c-2.701 0-4.577.457-6.637 1.876v-7.675h-4.028v28.638l4.028.139v-2.564c1.83 2.105 3.661 3.158 7.277 3.158 4.349 0 8.697-3.021 8.697-11.397 0-7.689-4.027-12.175-9.337-12.175" transform="matrix(2.55211 0 0 -2.55211 131.07275 178.685386)"/><path d="m0 0c-1.602 0-2.883-.458-3.89-1.465-1.053-1.098-1.739-2.654-2.014-5.492h11.122c0 4.943-2.059 6.957-5.218 6.957m-5.904-9.887c.412-5.492 3.57-7.414 7.095-7.414 2.334 0 3.843.32 5.629 1.098l1.053-2.975c-1.877-.869-3.891-1.465-7.415-1.465-5.218 0-10.39 2.701-10.39 11.764 0 8.559 4.577 11.809 9.795 11.809 5.217 0 9.475-2.381 9.475-11.397v-1.42z" transform="matrix(2.55211 0 0 -2.55211 187.959282 177.511415)"/><path d="m0 0c-.366 1.235-.549 2.975-.549 5.904v8.147c0 3.662-.778 5.813-4.394 5.813-4.349 0-6.042-4.531-6.042-8.239v-11.168h-4.028v22.107l4.028.092v-3.158c1.465 2.793 4.211 3.799 7.323 3.799 5.493 0 7.233-3.341 7.233-7.827v-8.01c0-2.288-.092-4.485.548-6.682z" transform="matrix(2.55211 0 0 -2.55211 257.75949 229.497896)"/><path d="m0 0c-.641.137-1.602.182-2.289.182-2.837 0-5.446-3.02-5.446-9.245v-9.429h-4.028v22.108l4.028.092v-4.395c1.739 3.799 4.256 4.577 6.133 4.577 1.007 0 1.511-.136 1.968-.32z" transform="matrix(2.55211 0 0 -2.55211 306.096453 181.135411)"/><path d="m0 0c-1.602 0-2.883-.458-3.89-1.465-1.053-1.098-1.739-2.654-2.014-5.492h11.122c0 4.943-2.06 6.957-5.218 6.957m-5.904-9.887c.412-5.492 3.571-7.414 7.095-7.414 2.334 0 3.844.32 5.63 1.098l1.053-2.975c-1.877-.869-3.891-1.465-7.416-1.465-5.217 0-10.39 2.701-10.39 11.764 0 8.559 4.578 11.809 9.796 11.809 5.216 0 9.474-2.381 9.474-11.397v-1.42z" transform="matrix(2.55211 0 0 -2.55211 332.383186 177.511415)"/><path d="m0 0-4.988-.549c-3.616-.411-5.814-1.327-5.814-4.302 0-1.602.686-2.151 1.145-2.563.641-.595 1.648-.87 3.433-.87 3.798 0 6.224 2.655 6.224 6.179zm.824-11.304c-.274.502-.687 1.921-.824 2.608-1.692-1.693-3.707-2.746-7.46-2.746-4.714 0-7.324 2.654-7.324 6.408 0 1.922.504 3.707 1.603 4.943 1.327 1.465 3.34 2.289 7.78 2.7l5.401.504v.824c0 3.479-2.379 4.714-5.629 4.714-3.021 0-5.447-.824-6.958-1.602l-.457 3.205c1.374.64 4.028 1.738 8.375 1.738 6.134 0 8.606-2.883 8.606-8.238v-7.69c0-2.06.046-4.348.916-6.637z" transform="matrix(2.55211 0 0 -2.55211 397.410949 200.659053)"/><path d="m0 0c-1.144 1.007-2.974 1.877-5.493 1.877-3.753 0-6.818-2.563-6.818-8.331 0-6.454 3.752-8.421 6.866-8.421 2.012 0 4.393.778 5.492 1.464l1.282-3.021c-1.649-1.052-4.532-1.922-7.508-1.922-6.637 0-10.069 4.898-10.069 11.9 0 8.194 5.31 11.672 10.619 11.672 2.838 0 5.492-.961 7.187-2.425z" transform="matrix(2.55211 0 0 -2.55211 456.237085 183.355747)"/><path d="m0 0c-.368 1.235-.55 2.975-.55 5.904v8.147c0 3.662-.778 5.813-4.393 5.813-4.349 0-6.042-4.531-6.042-8.239v-11.168h-4.029v28.643l4.029.091v-9.693c1.463 2.793 4.21 3.799 7.322 3.799 5.494 0 7.232-3.341 7.232-7.827v-8.01c0-2.288-.092-4.485.55-6.682z" transform="matrix(2.55211 0 0 -2.55211 504.599569 229.497896)"/></g></svg>