<svg clip-rule="evenodd" fill-rule="evenodd" stroke-linejoin="round" stroke-miterlimit="2" viewBox="0 0 560 400" xmlns="http://www.w3.org/2000/svg"><g transform="matrix(2.63505 0 0 2.63505 102.003 99.7365)"><g fill-rule="nonzero"><path d="m10.4 52.5c0 1.6-1.4 2.9-3.1 2.9s-3.1-1.3-3.1-2.9v-28.9c0-1.6 1.4-2.9 3.1-2.9s3.1 1.3 3.1 2.9zm-1.7-35.2c-1.8 0-3.4.7-4.5 1.9v-1.6h-4.2v58.4h4.1v-19c1.1 1.2 2.7 1.9 4.5 1.9 3.6 0 5.9-2.1 5.9-5.5v-30.6c0-3.4-2.2-5.5-5.8-5.5"/><path d="m130.9 17.6v34.9c0 1.6-1.4 2.9-3.1 2.9s-3.1-1.3-3.1-2.9v-34.9h-4.1v35.7c0 3.4 2.2 5.5 5.9 5.5 1.8 0 3.4-.7 4.5-1.9v19.1h4.1v-58.4z"/><path d="m78.3 52.5c0 1.6-1.4 2.9-3.1 2.9s-3.1-1.3-3.1-2.9v-28.9c0-1.6 1.4-2.9 3.1-2.9s3.1 1.3 3.1 2.9zm-1.7-35.2c-1.8 0-3.4.7-4.5 1.9v-19.1h-4.1v58.4h4.1v-1.5c1.1 1.2 2.7 1.9 4.5 1.9 3.6 0 5.9-2.1 5.9-5.5v-30.6c0-3.4-2.3-5.5-5.9-5.5"/><path d="m116.7 17.3c-1.8 0-3.4.7-4.5 1.9v-1.6h-4.1v40.9h4.1v-34.9c0-1.6 1.4-2.9 3.1-2.9.8 0 1.4.1 2.1.3v-3.7z"/><path d="m57.6 40.7c.8.5 1.3 1.4 1.3 2.3v9.8c0 1.5-1.3 2.7-2.8 2.7s-2.8-1.2-2.8-2.7v-9.3h-4.1v8.8c0 3.6 3.1 6.6 6.9 6.6s6.9-2.9 6.9-6.6v-9.3c0-2.2-1.1-4.3-3.2-5.6l-5.8-3.5c-.8-.5-1.3-1.4-1.3-2.3v-8.2c0-1.5 1.3-2.7 2.8-2.7s2.8 1.2 2.8 2.7v8.5h4.1v-8c0-3.6-3.1-6.6-6.9-6.6s-6.9 2.9-6.9 6.6v7.7c0 2.2 1.1 4.3 3.2 5.6z"/><path d="m98.4 17.6v34.9c0 1.6-1.4 2.9-3.1 2.9s-3.1-1.3-3.1-2.9v-34.9h-4.2v35.7c0 3.4 2.2 5.5 5.9 5.5 1.8 0 3.4-.7 4.5-1.9v1.6h4.1v-40.9z"/></g><path d="m29.7.1h4.1v58.4h-4.1z"/><path d="m39.5.1h4.1v58.5h-4.1z"/><path d="m20 17.8h4.2v40.6h-4.2z"/></g></svg>