<svg clip-rule="evenodd" fill-rule="evenodd" stroke-linejoin="round" stroke-miterlimit="2" viewBox="0 0 560 400" xmlns="http://www.w3.org/2000/svg"><g transform="matrix(.782378 0 0 .782378 174.635 59.5898)"><path d="m257.749 65.766-.171-1.082-.741-.804c-.152-.161-12.412-13.432-33.765-26.74-21.345-13.295-51.854-26.664-88.397-26.67-36.546.006-67.053 13.375-88.398 26.67-21.353 13.308-33.613 26.579-33.766 26.74l-.741.804-.171 1.081c-3.266 20.794-4.742 40.231-4.742 58.375-.02 77.84 27.263 131.831 56.694 167.172 29.431 35.362 60.911 52.188 69.55 56.386l1.573.764 1.573-.764c8.636-4.197 40.118-21.023 69.548-56.386 29.433-35.341 56.715-89.331 56.693-167.171.001-18.143-1.476-37.58-4.739-58.375z" fill="#0054a4" fill-rule="nonzero"/><path d="m248.619 70.218s-45.976-49.815-113.946-49.815c-67.972 0-113.947 49.815-113.947 49.815-29.562 188.33 96.216 256.566 113.947 265.173 17.731-8.607 143.508-76.843 113.946-265.173z" fill="#fff" fill-rule="nonzero"/><path d="m134.285 319.466c-11.247-6.208-33.319-20.503-54.552-46.101-32.898-39.66-49.57-89.385-49.567-147.68.003-15.656 3.706-30.995 3.711-31.029l.056-.23.171-.163c10.853-10.289 49.152-46.888 100.568-46.905 51.416.018 89.715 36.616 100.567 46.905l-.551.581-.779.188.779-.188.551-.581.171.163.056.23c.007.034 3.709 15.373 3.712 31.029.003 58.295-16.669 108.02-49.567 147.68-21.231 25.598-43.303 39.893-54.552 46.101l-.387.213z" fill="#0054a4" fill-rule="nonzero"/><path d="m69.706 68.516c-16.848 10.18-28.872 21.559-34.324 26.743-.207.896-.992 4.381-1.779 9.307-.919 5.74-1.834 13.415-1.834 21.119.003 46.009 10.435 86.541 31.036 120.982 11.045-6.16 20.976-12.064 29.888-17.716 17.233-71.554-1.686-125.629-22.987-160.435z" fill="#ee3124" fill-rule="nonzero"/><path d="m116.586 258.968c-1.103 3.406-2.267 6.818-3.499 10.237 13.62-9.723 25.066-18.895 34.619-27.531-.587-2.254-1.153-4.506-1.682-6.755-9.238 8.447-19.314 16.541-29.438 24.049z" fill="#ee3124" fill-rule="nonzero"/><path d="m129.905 192.055c-.256 3.66-.602 7.333-1.021 11.017 3.934-3.257 7.48-6.403 10.678-9.442-.04-.524-.088-1.051-.124-1.574-2.563-36.717 3.014-72.205 16.574-105.48 4.699-11.529 10.023-21.972 15.538-31.305-11.257-3.84-23.637-6.315-36.879-6.311-13.243-.005-25.623 2.471-36.88 6.312 5.515 9.332 10.84 19.775 15.539 31.304 13.561 33.275 19.138 68.762 16.575 105.479z" fill="#ee3124" fill-rule="nonzero"/><path d="m173.407 136.464c-.094.498-.188.995-.278 1.497 9.83 9.408 14.061 19.655 14.059 30.292-.015 12.415-5.746 25.306-14.915 38.003.371 2.572.788 5.17 1.255 7.795 12.524-16.665 17.195-30.761 17.186-42.492.007-15.608-8.243-27.136-17.307-35.095z" fill="#ee3124" fill-rule="nonzero"/><path d="m235.742 104.566c-.786-4.923-1.57-8.407-1.778-9.306-5.452-5.183-17.476-16.563-34.323-26.742-10.365 16.936-20.167 38.431-25.515 64.284 29.403 16.879 40.646 38.957 40.638 62.732-.016 23.427-10.878 48.476-25.838 71.875.374.947.756 1.896 1.142 2.848 31.513-39.01 47.505-87.592 47.51-144.571-.001-7.704-.918-15.379-1.836-21.12z" fill="#ee3124" fill-rule="nonzero"/><path d="m214.764 195.534c.01-23.775-11.234-45.854-40.638-62.732 5.347-25.854 15.148-47.35 25.514-64.284-8.27-4.997-17.7-9.703-28.088-13.247-5.515 9.332-10.84 19.775-15.539 31.305-13.561 33.274-19.137 68.763-16.574 105.479.037.524.085 1.05.124 1.575-3.197 3.039-6.744 6.185-10.678 9.442.419-3.684.765-7.356 1.021-11.017 2.563-36.717-3.014-72.205-16.574-105.479-4.698-11.529-10.023-21.972-15.538-31.305-10.389 3.544-19.819 8.249-28.088 13.245 21.302 34.805 40.221 88.88 22.986 160.435-8.912 5.652-18.843 11.557-29.888 17.716 5.368 8.974 11.416 17.541 18.162 25.676 20.826 25.112 42.475 39.26 53.706 45.506 11.233-6.246 32.881-20.394 53.707-45.506.572-.689 1.129-1.391 1.689-2.086-.386-.952-.768-1.9-1.142-2.848 14.959-23.4 25.822-48.449 25.838-71.875zm-101.677 73.671c1.232-3.419 2.396-6.831 3.499-10.237 10.124-7.508 20.2-15.602 29.438-24.049.529 2.249 1.095 4.5 1.683 6.755-9.554 8.637-21 17.808-34.62 27.531zm60.44-55.155c-.467-2.624-.884-5.222-1.255-7.795 9.168-12.697 14.899-25.588 14.915-38.003.002-10.637-4.229-20.884-14.059-30.291.09-.502.185-.999.278-1.498 9.065 7.959 17.314 19.488 17.306 35.095.01 11.732-4.66 25.827-17.185 42.492z" fill="#fff" fill-rule="nonzero"/><path d="m186.585 168.252c-.003-15.582-9.181-30.352-32.383-42.931 5.037 3.929 12.125 11.575 12.137 23.515-.033 20.089-20.058 51.957-103.227 98.342 5.292 8.787 11.236 17.184 17.854 25.164 1.886 2.273 3.776 4.453 5.667 6.549 8.78-5.66 18.189-12.033 27.604-18.936 36.226-26.537 72.383-60.884 72.348-91.703z" fill="#008752" fill-rule="nonzero"/><path d="m160.036 126.4c12.108 6.721 31.251 21.136 31.278 45.159-.021 25.914-22.324 62.727-99.524 112.842 17.18 17.705 33.594 28.282 42.882 33.448 8.465-4.707 22.846-13.905 38.333-28.899 22.28-29.016 41.167-62.705 41.159-93.415-.013-26.958-14.484-51.674-54.128-69.135z" fill="#008752" fill-rule="nonzero"/><path d="m167.685 246.919-5.335-6.656c-.498-.62-1.25-.981-2.045-.981h-13.044c-.584 0-1.136.188-1.598.544l-6.73 5.175.615-2.465c.195-.781.019-1.612-.476-2.247-.495-.634-1.26-1.008-2.066-1.008h-21.806c-1.204 0-2.251.819-2.543 1.985l-11.792 47.257c-.195.78-.017 1.613.478 2.248.496.634 1.26 1.007 2.065 1.007h12.09c1.202 0 2.251-.818 2.543-1.985l4.653-18.645 5.561.002c1.068 0 2.012-.648 2.414-1.611l-3.094 12.396c-.224.9.04 1.841.698 2.495l6.641 6.588c.489.486 1.157.76 1.847.76h11.278c.546 0 1.091-.177 1.534-.496l9.113-6.589c.499-.361.857-.891 1.007-1.488l3.39-13.576c.194-.781.019-1.613-.477-2.248s-1.261-1.008-2.064-1.008h-11.249l.89-3.567c.148.026.3.04.453.04h12.092c1.203 0 2.251-.819 2.543-1.985l2.912-11.667c.197-.789.011-1.639-.498-2.275zm-35.128 11.035c-.496-.636-1.26-1.008-2.065-1.008h-4.252l.863-3.464h7.572l-1.605 6.437c.095-.695-.076-1.407-.513-1.965z" fill="#636467" fill-rule="nonzero"/><path d="m166.067 245.3-5.337-6.656c-.498-.621-1.249-.98-2.044-.98h-13.044c-.582 0-1.134.187-1.598.542l-6.729 5.176.614-2.463c.194-.783.018-1.613-.478-2.249-.495-.635-1.259-1.007-2.063-1.007h-21.808c-1.202 0-2.251.817-2.542 1.985l-11.791 47.256c-.196.781-.02 1.613.476 2.249.497.633 1.261 1.007 2.065 1.007h12.091c1.203 0 2.251-.821 2.543-1.987l4.652-18.642h5.562c1.07 0 2.016-.652 2.416-1.619l-3.095 12.404c-.226.899.038 1.84.695 2.494l6.642 6.589c.49.485 1.156.76 1.846.76h11.279c.547 0 1.091-.178 1.535-.497l9.111-6.589c.5-.361.858-.891 1.008-1.488l3.39-13.576c.194-.783.019-1.613-.477-2.248s-1.26-1.008-2.066-1.008h-11.248l.89-3.566c.148.026.301.039.454.039h12.092c1.202 0 2.251-.819 2.542-1.984l2.912-11.668c.2-.79.014-1.638-.495-2.274zm-35.128 11.034c-.496-.634-1.26-1.007-2.065-1.007h-4.255l.865-3.463h7.573l-1.604 6.425c.092-.692-.08-1.399-.514-1.955z" fill="#0054a4" fill-rule="nonzero"/><path d="m102.422 287.046h11.075l5.147-20.63h7.608l1.99-7.976h-7.607l2.417-9.689h9.715l1.991-7.975h-20.79z" fill="#fff" fill-rule="nonzero"/><path d="m137.425 247.225-8.377 33.573 6.298 6.248h10.916l8.836-6.392 3.195-12.788h-11.074l-2.797 11.204h-3.528l7.563-30.319h3.529l-2.338 9.363h11.076l2.76-11.058-5.035-6.281h-12.639z" fill="#fff" fill-rule="nonzero"/><path d="m199.255 198.895-5.271-6.655c-.501-.632-1.249-.994-2.054-.994h-12.566c-.584 0-1.163.199-1.622.562l-8.452 6.656c-.459.36-.78.858-.921 1.425l-3.667 14.697c-.212.85.017 1.756.609 2.402l5.631 6.157h-6.669c-.886 0-1.686.445-2.163 1.146l7.434-29.793c.194-.78.019-1.612-.479-2.247-.494-.634-1.26-1.007-2.063-1.007h-12.429c-.411 0-.806.096-1.157.269-.355-.174-.75-.269-1.155-.269h-12.428c-1.202 0-2.25.818-2.541 1.986l-9.116 36.529c-.321-.137-.667-.222-1.023-.222h-5.41l8.742-35.041c.195-.78.02-1.612-.476-2.247-.497-.633-1.26-1.007-2.064-1.007h-12.432c-1.203 0-2.252.819-2.544 1.986l-1.235 4.952-5.562-6.085c-.498-.546-1.194-.854-1.934-.854h-18.681c-1.204 0-2.252.819-2.543 1.986l-11.792 47.256c-.195.78-.018 1.613.478 2.248.495.634 1.26 1.007 2.065 1.007h12.091c1.202 0 2.252-.819 2.543-1.986l3.519-14.095h4.54c.535 0 1.048-.16 1.489-.464l7.909-5.462-4.679 18.753c-.194.78-.018 1.612.478 2.247.496.634 1.26 1.007 2.065 1.007h21.195c1.203 0 2.252-.819 2.543-1.985l1.113-4.465 4.585 5.507c.497.597 1.236.943 2.014.943h12.908c.57 0 1.115-.181 1.573-.524l8.775-6.589c.483-.362.822-.873.969-1.461l.086-.342c.057.503.259.987.589 1.385l5.487 6.588c.496.597 1.236.943 2.013.943h13.112c.572 0 1.125-.186 1.581-.53l8.709-6.588c.475-.36.817-.88.961-1.456l3.716-14.895c.21-.842-.011-1.733-.589-2.381l-5.402-6.047h5.37c1.202 0 2.252-.818 2.542-1.985l2.171-8.702c.197-.788.018-1.62-.486-2.259z" fill="#636467" fill-rule="nonzero"/><path d="m197.635 197.277-5.269-6.657c-.501-.632-1.251-.993-2.056-.993h-12.566c-.584 0-1.163.201-1.623.562l-8.452 6.656c-.458.36-.779.858-.92 1.424l-3.666 14.698c-.213.851.018 1.756.609 2.402l5.631 6.157h-6.67c-.887 0-1.686.447-2.164 1.148l7.434-29.794c.194-.782.02-1.613-.478-2.248-.494-.634-1.26-1.007-2.064-1.007h-12.428c-.412 0-.807.096-1.157.269-.356-.175-.751-.269-1.155-.269h-12.427c-1.204 0-2.252.817-2.544 1.985l-9.113 36.53c-.322-.138-.667-.222-1.024-.222h-5.409l8.742-35.039c.194-.782.017-1.613-.478-2.248-.497-.635-1.261-1.008-2.066-1.008h-12.43c-1.202 0-2.252.818-2.542 1.986l-1.237 4.955-5.562-6.088c-.499-.547-1.195-.854-1.935-.854h-18.68c-1.204 0-2.252.818-2.544 1.986l-11.791 47.255c-.196.781-.02 1.614.477 2.249.495.635 1.26 1.007 2.065 1.007h12.093c1.201 0 2.25-.819 2.542-1.986l3.517-14.094h4.542c.535 0 1.047-.16 1.488-.464l7.91-5.463-4.68 18.752c-.193.781-.017 1.613.478 2.248.497.635 1.261 1.008 2.066 1.008h21.195c1.203 0 2.25-.819 2.543-1.986l1.113-4.466 4.586 5.508c.497.597 1.236.944 2.015.944h12.906c.572 0 1.116-.183 1.572-.524l8.776-6.589c.483-.364.821-.875.969-1.462l.086-.342c.057.503.258.987.589 1.384l5.487 6.589c.496.597 1.235.944 2.014.944h13.112c.57 0 1.123-.187 1.58-.531l8.71-6.588c.474-.359.816-.88.96-1.456l3.716-14.895c.209-.843-.011-1.734-.589-2.381l-5.402-6.048h5.37c1.202 0 2.252-.818 2.542-1.984l2.171-8.701c.199-.789.021-1.622-.485-2.259z" fill="#0054a4" fill-rule="nonzero"/><path d="m102.401 192.74h-18.079l-11.546 46.27h11.076l4.014-16.08 6.819-.001 9.076-6.269 4.397-17.62zm-9.29 22.212h-3.257l3.554-14.236h3.257z" fill="#fff" fill-rule="nonzero"/><path d="m102.73 239.009h20.182l1.988-7.976h-8.764l9.556-38.294h-11.415z" fill="#fff" fill-rule="nonzero"/><path d="m128.605 232.791 5.178 6.218h12.512l8.504-6.385 9.951-39.885h-11.412l-9.554 38.294h-3.326l9.552-38.294h-11.411z" fill="#fff" fill-rule="nonzero"/><path d="m161.004 232.791 5.178 6.218h12.716l8.438-6.383 3.612-14.474-5.646-6.32-7.483-.695 2.601-10.421h3.463l-1.593 6.396h10.735l2.02-8.093-4.973-6.279h-12.158l-8.185 6.445-3.562 14.278 5.722 6.256 7.095.622-2.662 10.692h-3.463l1.594-6.394h-11.416z" fill="#fff" fill-rule="nonzero"/><circle cx="134.671" cy="98.504" fill="#0054a4" r="43.358"/><g fill-rule="nonzero"><path d="m176.012 101.911c-.934 1.56-4.136 4.3-4.789 4.854-.071-1.712-.414-3.443-1.039-4.993 1.091-4.855 1.17-8.441 1.17-8.441-1.499 1.722-2.979 3.134-4.304 4.261-.613-.428-1.291-.764-2.044-.976-.734-.205-1.544-.296-2.401-.297-1.483.001-3.121.273-4.786.701-3.672-3.465-7.979-7.45-7.979-7.45.499 1.992.898 6.091 1.18 9.85-2.683 1.157-4.886 2.31-5.874 2.802-2.372 1.189-9.238 2.468-10.345 2.672v-17.562c1.281-.052 4.731-.852 8.023-3.001 2.445 1.629 4.939 3.353 6.691 4.715 0 0-1.103-4.724-2.078-9.192 1.57-2.358 2.121-4.767 2.119-6.973 0-.285-.02-.561-.037-.839 2.841-1.044 6.615-2.416 7.867-2.807 0 0-3.201-1.556-9.34-3.11-.159-.373-.313-.722-.45-1.014-1.082-2.31-2.694-5.797-3.228-6.953 5.431 1.302 10.446 3.665 14.812 6.867.078.525.365 2.093 1.187 4.009-1.073.081-2.026.167-2.568.244 0 0 1.642.862 3.918 2.314 1.616 2.527 4.227 5.124 8.418 6.534.092.324 2.078 7.421 1.395 14.854 0 0 1.621-1.195 3.125-5.564.977 3.53 1.509 7.245 1.509 11.086 0 1.15-.06 2.284-.152 3.409z" fill="#fff"/><path d="m134.67 138.508c-1.045-.295-3.246-1.205-5.593-2.229 2.911-.997 5.592-1 5.593-1.008.007-.003 2.688.003 5.601 1.005-2.35 1.025-4.554 1.937-5.601 2.232z" fill="#fff"/><path d="m144.284 138.462c.123.104.244.21.363.319-.268.066-.537.126-.807.187.136-.154.287-.326.444-.506z" fill="#fff"/><path d="m125.5 138.967c-.269-.061-.539-.119-.806-.186.119-.11.24-.217.363-.319.157.18.306.352.443.505z" fill="#fff"/><path d="m134.671 123.026c-.001 0-.001 0 0 0-6.691.001-12.229 1.422-16.184 1.952-.304-1.883-.473-3.885-.299-5.669 0 0 11.456-2.187 15.829-4.723 0 0-12.068-4.373-16.179-7.26 0 0 .162-3.578.461-7.626 2.636 1.14 4.802 2.27 5.776 2.758 2.667 1.33 10.564 2.721 10.571 2.724h.017c.002 0 .004.002.006.002s.003-.002.006-.002h.018c.007-.003 7.904-1.394 10.571-2.724.976-.489 3.142-1.62 5.778-2.759.299 4.049.46 7.627.46 7.627-4.11 2.887-16.18 7.26-16.18 7.26 4.373 2.537 15.83 4.723 15.83 4.723.172 1.784.003 3.787-.3 5.67-3.953-.531-9.492-1.952-16.181-1.953z" fill="#fff"/><path d="m101.659 109.689s-.902 1.905-1.649 4.349c-.203-.423-.399-.844-.593-1.256-.698-1.499-1.06-3.388-1.06-5.339 0-1.771.3-3.589.902-5.218.541 2.305 1.309 4.871 2.4 7.464z" fill="#fff"/><path d="m102.5 97.766c.575-.393 1.207-.703 1.905-.896.704-.197 1.488-.286 2.328-.286 1.408-.001 2.968.251 4.562.651-1.65 1.56-3.151 2.994-4.039 3.882 0-.001-2.017-1.053-4.756-3.351z" fill="#fff"/><path d="m108.043 120.708s1.22 1.598 3.041 3.635c-2.966-.865-5.121-2.232-6.771-3.847 1.043.101 2.271.178 3.73.212z" fill="#fff"/><path d="m120.077 72.136c1.795.66 3.159 1.167 3.159 1.167-.23 1.378-.718 3.723-1.254 6.188-1.43-2.241-1.938-4.514-1.938-6.608 0-.254.018-.499.033-.747z" fill="#fff"/><path d="m149.295 72.882c0 2.094-.509 4.364-1.937 6.606-.535-2.464-1.023-4.808-1.253-6.185 0 0 1.363-.507 3.157-1.167.014.249.033.493.033.746z" fill="#fff"/><path d="m134.67 87.078c-1.09.003-4.588-.762-7.917-2.904 4.063-2.699 7.917-5.099 7.917-5.099s3.856 2.399 7.917 5.099c-3.327 2.143-6.827 2.907-7.917 2.904z" fill="#fff"/><path d="m161.298 120.708c1.46-.034 2.686-.112 3.729-.211-1.648 1.614-3.804 2.98-6.769 3.846 1.821-2.037 3.04-3.635 3.04-3.635z" fill="#fff"/><path d="m158.046 97.234c1.593-.399 3.151-.651 4.561-.65.839 0 1.624.089 2.328.286.699.193 1.331.504 1.906.897-2.738 2.297-4.756 3.35-4.756 3.35-.888-.888-2.388-2.323-4.039-3.883z" fill="#fff"/><path d="m167.682 109.689c1.09-2.59 1.857-5.155 2.397-7.458.601 1.627.9 3.441.899 5.212 0 1.952-.359 3.841-1.056 5.339-.192.412-.39.832-.593 1.255-.744-2.444-1.647-4.348-1.647-4.348z" fill="#fff"/><path d="m169.69 77.689c-3.548-1.323-5.886-3.521-7.42-5.737 2.26 1.471 5.021 3.459 7.42 5.737z" fill="#fff"/><path d="m160.645 69.015c-.727-1.675-1.039-3.09-1.16-3.771 1.468 1.097 2.854 2.294 4.162 3.571-.935.057-2.009.127-3.002.2z" fill="#fff"/><path d="m144.046 58.085c.425.919 2.169 4.693 3.315 7.139.113.243.239.524.369.823-1.758-.438-3.734-.873-5.954-1.271 0 0-3.826-5.379-7.106-7.479-3.279 2.1-7.105 7.479-7.105 7.479-2.22.398-4.196.834-5.955 1.271.13-.299.256-.58.369-.823 1.146-2.444 2.891-6.219 3.315-7.138 3.015-.697 6.15-1.078 9.378-1.078 3.225 0 6.36.38 9.374 1.077z" fill="#fff"/><path d="m107.077 71.947c-1.532 2.219-3.875 4.422-7.428 5.744 2.402-2.281 5.167-4.272 7.428-5.744z" fill="#fff"/><path d="m105.693 68.815c1.309-1.278 2.696-2.477 4.166-3.574-.12.683-.435 2.1-1.16 3.774-.995-.073-2.068-.143-3.006-.2z" fill="#fff"/><path d="m94.685 87.417c1.505 4.369 3.126 5.565 3.126 5.565-.684-7.428 1.299-14.519 1.394-14.854 4.191-1.41 6.802-4.007 8.418-6.534 2.276-1.453 3.919-2.314 3.919-2.314-.542-.078-1.495-.162-2.569-.244.82-1.915 1.107-3.481 1.187-4.008 4.366-3.202 9.381-5.566 14.813-6.868-.535 1.156-2.147 4.644-3.229 6.953-.137.291-.292.64-.45 1.014-6.137 1.555-9.338 3.109-9.338 3.109 1.252.392 5.023 1.763 7.864 2.806-.017.278-.037.556-.037.841 0 2.206.55 4.616 2.121 6.975-.977 4.467-2.077 9.189-2.077 9.189 1.751-1.362 4.245-3.085 6.691-4.714 3.291 2.15 6.742 2.949 8.022 3.001v17.563c-1.102-.199-7.973-1.482-10.347-2.673-.988-.493-3.19-1.645-5.873-2.801.282-3.759.683-7.858 1.181-9.852 0 0-4.308 3.986-7.979 7.451-1.664-.427-3.303-.699-4.787-.701-.858 0-1.666.091-2.399.296-.753.212-1.432.549-2.043.976-1.324-1.127-2.805-2.537-4.305-4.261 0 0 .079 3.585 1.17 8.438-.627 1.551-.971 3.284-1.042 4.998-.659-.552-3.854-3.295-4.787-4.855-.092-1.125-.15-2.26-.15-3.409-.002-3.842.531-7.556 1.506-11.087z" fill="#fff"/><path d="m93.367 102.437c1.358 1.879 4.703 4.628 4.711 4.641.008.006.019.005.027.01-.002.118-.009.237-.009.355 0 1.983.364 3.905 1.082 5.449.23.497.468 1.006.718 1.52-.455 1.558-.828 3.301-.861 4.897 0 0 1.01.732 4.869 1.145 1.78 1.817 4.153 3.357 7.517 4.263 2.446 2.696 5.84 6.01 8.866 7.45 0 0-1.129-3.198-1.758-6.93 3.959-.53 9.416-1.929 16.01-1.945v11.72c-.587.016-3.128.133-5.817 1.111-3.841-1.685-7.935-3.606-7.935-3.606.283 1.188 2.54 3.947 4.099 5.749-.17.143-.336.291-.497.446-7.327-1.868-13.876-5.685-19.059-10.868-6.641-6.64-11.033-15.519-11.963-25.407z" fill="#fff"/><path d="m144.952 138.712c-.162-.155-.328-.304-.497-.445 1.559-1.802 3.816-4.563 4.099-5.75 0 0-4.095 1.922-7.935 3.607-2.689-.979-5.229-1.096-5.817-1.111v-11.721c6.595.018 12.052 1.416 16.01 1.946-.629 3.731-1.757 6.929-1.757 6.929 3.026-1.441 6.421-4.754 8.867-7.45 3.362-.906 5.734-2.445 7.515-4.262 3.86-.413 4.87-1.145 4.87-1.145-.033-1.598-.406-3.341-.861-4.899.249-.513.485-1.021.717-1.518.718-1.543 1.08-3.465 1.08-5.449 0-.117-.007-.236-.009-.354.011-.005.022-.004.031-.012v-.001c.006-.013 3.351-2.762 4.71-4.64-.93 9.888-5.322 18.767-11.963 25.407-5.184 5.185-11.732 8.999-19.06 10.868z" fill="#fff"/><path d="m30.573 65.51 3.952-3.039c1.069-.821 1.948-1.379 2.638-1.671s1.288-.407 1.795-.347c.506.061.965.253 1.377.576.412.324.942.907 1.591 1.75l.902 1.174c.66.86 1.043 1.563 1.147 2.109.104.548-.029 1.13-.397 1.749-.369.62-.983 1.259-1.84 1.919l-1.054.81 4.172 5.425-3.924 3.018zm5.696-.712 2.636 3.428c.117-.08.215-.151.296-.214.36-.276.55-.548.568-.813.018-.266-.165-.648-.549-1.147l-.851-1.106c-.354-.46-.665-.697-.934-.712s-.656.172-1.166.564z" fill="#008752"/><path d="m45.714 54.428 7.637 11.246 2.489-1.69 1.911 2.814-6.585 4.471-9.547-14.06z" fill="#008752"/><path d="m60.404 45.384 5.77 9.783c.653 1.108 1.073 1.912 1.256 2.408.185.497.217 1.1.097 1.808-.119.709-.433 1.377-.939 2.005-.508.628-1.204 1.203-2.089 1.725-.979.577-1.928.942-2.848 1.095-.921.152-1.703.106-2.348-.139-.646-.245-1.154-.605-1.524-1.081-.372-.476-1.045-1.539-2.018-3.191l-5.108-8.661 4.264-2.515 6.473 10.978c.377.639.656 1.024.84 1.156.183.133.392.129.628-.011.27-.159.386-.359.348-.602-.037-.241-.271-.727-.702-1.456l-6.36-10.787z" fill="#008752"/><path d="m75.58 43.523-4.13 2.02-.553-1.132c-.259-.527-.476-.838-.652-.931-.177-.094-.388-.08-.635.041-.268.131-.422.327-.464.589-.042.263.034.592.229.988.249.51.514.855.795 1.037.273.187.845.292 1.713.319 2.492.081 4.16.331 5.003.752.843.422 1.63 1.381 2.362 2.876.531 1.088.781 1.959.748 2.614s-.373 1.356-1.019 2.104c-.646.749-1.511 1.388-2.595 1.918-1.19.583-2.304.878-3.343.888-1.038.009-1.84-.234-2.404-.729-.565-.494-1.127-1.313-1.688-2.458l-.489-.999 4.13-2.021.909 1.857c.279.572.518.911.713 1.019.196.106.442.088.737-.057.297-.145.466-.356.509-.635.043-.277-.036-.621-.236-1.03-.439-.898-.864-1.419-1.274-1.562-.416-.139-1.336-.262-2.758-.368-1.426-.113-2.39-.229-2.894-.35s-1.001-.383-1.492-.789-.935-1.016-1.331-1.826c-.572-1.169-.823-2.105-.754-2.811.07-.704.404-1.391 1.001-2.062.598-.67 1.424-1.263 2.479-1.779 1.155-.564 2.221-.88 3.197-.944s1.72.092 2.231.469 1.063 1.172 1.657 2.385z" fill="#008752"/><path d="m82.074 35.249 7.88-2.859 1.16 3.197-3.227 1.171 1.099 3.029 2.874-1.044 1.103 3.039-2.873 1.043 2.435 6.71-4.652 1.688z" fill="#008752"/><path d="m106.657 38.006c.443 1.649.713 2.828.811 3.537.097.71-.008 1.409-.313 2.101-.306.69-.808 1.293-1.506 1.806-.698.514-1.565.909-2.603 1.188-.983.264-1.905.357-2.767.281-.86-.076-1.606-.339-2.237-.784-.631-.447-1.082-.996-1.355-1.647-.272-.651-.636-1.822-1.089-3.511l-.755-2.809c-.442-1.649-.712-2.828-.81-3.538-.097-.709.008-1.409.313-2.1.306-.691.808-1.293 1.506-1.807.697-.514 1.565-.909 2.602-1.188.984-.265 1.906-.358 2.767-.281s1.606.338 2.238.784c.631.447 1.082.996 1.355 1.647.272.651.635 1.821 1.089 3.512zm-6.228-4.11c-.205-.764-.384-1.239-.535-1.427-.152-.188-.375-.241-.671-.162-.25.067-.418.204-.504.412s-.016.734.211 1.58l2.059 7.663c.255.953.457 1.529.604 1.729.147.199.38.257.697.171.325-.087.499-.271.521-.553s-.097-.905-.356-1.872z" fill="#008752"/><path d="m121.098 35.572c.263 1.688.404 2.888.425 3.604s-.159 1.399-.537 2.054-.941 1.198-1.691 1.634c-.749.436-1.654.735-2.715.9-1.007.157-1.934.15-2.781-.019s-1.561-.509-2.14-1.021-.97-1.106-1.17-1.783c-.201-.677-.436-1.88-.705-3.608l-.447-2.873c-.263-1.687-.404-2.889-.425-3.604s.158-1.4.537-2.054c.378-.654.941-1.198 1.69-1.634.75-.436 1.655-.736 2.716-.9 1.007-.157 1.934-.15 2.78.019.848.169 1.561.509 2.14 1.021.58.512.97 1.106 1.17 1.783.201.678.436 1.88.705 3.608zm-5.749-4.757c-.122-.781-.248-1.273-.379-1.476s-.347-.281-.649-.234c-.255.04-.437.158-.545.356-.108.197-.095.729.039 1.593l1.222 7.841c.151.976.289 1.569.414 1.784.124.214.35.296.675.245.333-.052.525-.216.578-.494.052-.277 0-.91-.153-1.898z" fill="#008752"/><path d="m133.918 24.884.159 3.397-2.937.138.635 13.578-4.944.231-.635-13.579-2.924.137-.159-3.396z" fill="#008752"/><path d="m137.697 24.907 4.927.324c1.557.102 2.729.287 3.517.557.787.27 1.405.75 1.854 1.441.45.692.626 1.771.529 3.235-.064.991-.284 1.671-.658 2.039s-1.08.623-2.118.765c1.127.306 1.876.739 2.248 1.301.371.561.521 1.394.448 2.497l-.104 1.572c-.075 1.146-.277 1.984-.607 2.518-.33.532-.822.879-1.477 1.039-.655.161-1.976.176-3.962.045l-5.713-.375zm4.327 9.636-.312 4.745c.697.025 1.147-.044 1.351-.205.203-.162.327-.585.372-1.27l.104-1.581c.047-.727-.011-1.172-.172-1.338-.162-.163-.609-.28-1.343-.351zm.421-6.409-.248 3.77c.212.008.376.015.493.022.485.031.801-.055.948-.259s.254-.809.319-1.814c.036-.531.005-.906-.091-1.126-.095-.221-.229-.364-.401-.432s-.512-.122-1.02-.161z" fill="#008752"/><path d="m161.972 27.753-.21 17.228-4.979-.892.277-3.054-1.742-.312-.832 2.954-5.037-.902 5.481-16.283zm-4.508 10.294c.093-1.939.265-4.325.517-7.159-1.07 3.114-1.802 5.4-2.193 6.858z" fill="#008752"/><path d="m172.503 30.342-3.562 13.119 2.905.788-.892 3.282-7.681-2.085 4.451-16.401z" fill="#008752"/><path d="m183.038 33.708-4.476 12.836 2.843.991-1.121 3.211-7.515-2.62 5.596-16.047z" fill="#008752"/><path d="m201.248 49.641-4.467-2.132 1.271-2.665c.37-.775.554-1.281.55-1.52-.004-.237-.169-.435-.494-.589-.368-.176-.657-.171-.867.016-.211.187-.501.668-.872 1.444l-3.398 7.125c-.356.745-.538 1.255-.548 1.53-.01.274.159.494.506.659.333.159.605.149.815-.03.211-.179.519-.689.92-1.531l.92-1.929 4.467 2.132-.285.598c-.758 1.588-1.421 2.653-1.988 3.197-.568.544-1.401.861-2.499.951-1.098.089-2.276-.166-3.535-.767-1.31-.625-2.287-1.352-2.935-2.18-.646-.827-.93-1.682-.848-2.563.081-.88.48-2.071 1.197-3.575l2.138-4.48c.527-1.105.965-1.914 1.314-2.427.349-.512.854-.923 1.52-1.234.665-.311 1.44-.435 2.327-.372.886.063 1.813.324 2.783.787 1.315.627 2.293 1.372 2.933 2.235.639.862.932 1.697.877 2.503-.056.807-.424 1.926-1.106 3.357z" fill="#008752"/><path d="m211.971 47.178-6.695 11.83 2.619 1.482-1.676 2.96-6.927-3.92 8.372-14.79z" fill="#008752"/><path d="m226.599 56.365-6.222 9.502c-.705 1.077-1.24 1.808-1.604 2.192s-.891.68-1.578.886c-.688.206-1.427.222-2.214.044-.788-.178-1.611-.547-2.471-1.109-.951-.622-1.698-1.313-2.242-2.07s-.849-1.479-.914-2.167c-.064-.687.033-1.302.295-1.846.263-.543.919-1.617 1.969-3.222l5.51-8.412 4.141 2.711-6.98 10.661c-.406.621-.628 1.042-.666 1.265-.038.222.059.408.288.559.262.172.493.187.693.046.2-.14.532-.565.995-1.273l6.86-10.477z" fill="#008752"/><path d="m229.767 58.61 3.924 2.998c1.239.947 2.112 1.75 2.619 2.411.506.659.755 1.402.746 2.228s-.459 1.82-1.352 2.987c-.603.789-1.161 1.233-1.677 1.332-.515.1-1.243-.079-2.187-.535.769.878 1.152 1.653 1.151 2.326-.002.674-.338 1.45-1.01 2.329l-.957 1.251c-.697.913-1.331 1.5-1.899 1.761-.569.262-1.171.277-1.805.049-.635-.229-1.742-.948-3.323-2.157l-4.55-3.477zm-1.732 10.42-2.888 3.778c.567.406.98.599 1.239.576.258-.022.596-.306 1.013-.852l.962-1.259c.441-.579.641-.981.598-1.208s-.352-.572-.924-1.035zm3.899-5.105-2.294 3.002c.172.123.306.221.398.292.386.295.697.397.933.31.236-.089.659-.534 1.271-1.334.322-.423.506-.752.548-.988s.011-.43-.095-.582-.359-.385-.761-.7z" fill="#008752"/></g></g></svg>