<svg clip-rule="evenodd" fill-rule="evenodd" stroke-linejoin="round" stroke-miterlimit="2" viewBox="0 0 560 400" xmlns="http://www.w3.org/2000/svg"><g transform="matrix(.746269 0 0 .746269 178.507 63.6358)"><path d="m2 2v236.812c.046 14.519 6.857 28.217 18.407 37.016l115.593 87.628 115.593-87.606c11.55-8.799 18.361-22.497 18.407-37.016v-236.834z" fill="#008aab" fill-rule="nonzero"/><path d="m9.708 9.708v229.104c.033 12.117 5.714 23.552 15.351 30.898l110.941 84.078 110.941-84.078c9.637-7.346 15.318-18.781 15.351-30.898v-229.104z" fill="#fff" fill-rule="nonzero"/><path d="m22.112 22.105h227.783v216.177h-227.783z"/><g fill-rule="nonzero"><path d="m358.19 382.25-31.83 24.12v-65.52h31.83z" transform="matrix(.725815 0 0 .725815 -45.4538 1.27418)"/><path d="m312.05 417.22-31.82 24.12v-100.49h31.82z" transform="matrix(.725815 0 0 .725815 -45.4538 1.27418)"/><path d="m219.77 441.34-31.82-24.12v-76.37h31.82z" transform="matrix(.725815 0 0 .725815 -45.4538 1.27418)"/><path d="m173.63 406.37-31.82-24.12v-41.4h31.82z" transform="matrix(.725815 0 0 .725815 -45.4538 1.27418)"/><path d="m24.028 248.668h23.06v22.174l-14.517-11.011c-3.802-2.881-6.755-6.739-8.543-11.163z"/><path d="m234.09 340.85h31.82v111.33l-15.91 12.06-15.91-12.06z" transform="matrix(.725815 0 0 .725815 -45.4538 1.27418)"/><path d="m239.45 259.831-14.516 11.011v-22.174h23.059c-1.787 4.424-4.74 8.282-8.543 11.163z"/><path d="m130.193 191.518-1.531.333c-.023.006-.046.009-.07.009-.136 0-.255-.099-.278-.234l-.109-.856c-.022-.112.01-.228.087-.312l2.511-2.105h1.22c.172.004.312.147.312.319v.008 11.184c.004.177-.136.327-.312.334h-1.503c-.18-.004-.327-.153-.327-.334z" fill="#fff"/><path d="m136.544 194.116v-.051c-1.034-.517-1.719-1.546-1.8-2.7 0-1.938 1.677-3.186 3.782-3.186s3.854 1.248 3.854 3.186c-.101 1.141-.778 2.155-1.793 2.686v.065c.784.399 2.105 1.415 2.105 2.903 0 1.902-1.604 3.346-4.166 3.346s-4.094-1.451-4.094-3.346c0-1.509 1.619-2.678 2.112-2.903zm2.018 4.478c.04.003.079.004.119.004.897 0 1.648-.711 1.696-1.608 0-.001 0-.002 0-.003 0-.996-.819-1.815-1.815-1.815-.995 0-1.814.819-1.814 1.815v.003c.058.938.877 1.662 1.814 1.604zm1.59-7.142c-.045-.811-.724-1.454-1.537-1.454-.03 0-.059.001-.089.003-.819-.017-1.511.633-1.546 1.451 0 .784.486 1.394 1.582 1.655 1.067-.218 1.59-.907 1.59-1.669z" fill="#fff"/><path d="m144.485 199.676 4.536-9.436h-4.602c-.18-.007-.326-.153-.333-.334v-1.226c.007-.179.154-.323.333-.327h7.259c.176.007.319.15.326.327v.123l-5.189 10.924c-.075.268-.317.46-.596.471h-1.291c-.204 0-.436-.05-.436-.334z" fill="#fff"/><path d="m152.295 194.276c0-3.818 1.604-6.097 4.391-6.097s4.391 2.279 4.391 6.097-1.604 6.097-4.391 6.097-4.391-2.279-4.391-6.097zm6.496 0c0-2.584-.726-4.043-2.105-4.043s-2.112 1.452-2.112 4.043.769 4.043 2.112 4.043 2.105-1.445 2.105-4.043z" fill="#fff"/><path d="m146.931 56.015h-66.877v14.415h9.109v82.409h-9.109v14.415h18.146l5.356-14.415v-20.439h43.694l-5.356-14.407h-38.323v-47.563h43.36.011c13.037 0 23.764 10.727 23.764 23.763 0 3.882-.951 7.705-2.77 11.134l5.93 15.932c7.206-7.162 11.262-16.913 11.262-27.073 0-20.94-17.231-38.171-38.17-38.171-.012 0-.023 0-.034 0z" fill="#fff"/><path d="m185.62 275.82h46.79v-19.85h-12.85l7.83-21.05h68.92l7.83 21.05h-12.85v19.85h46.79v-19.85h-12.76l-54.17-145.58h-18.61l-15.07 40.5h21.19l3.19-8.58 27.07 72.76h-54.15l9.11-24.48h-21.18l-24.33 65.38h-12.75z" fill="#fff" transform="matrix(.725815 0 0 .725815 -45.4538 1.27418)"/></g></g></svg>