<svg clip-rule="evenodd" fill-rule="evenodd" stroke-linejoin="round" stroke-miterlimit="2" viewBox="0 0 560 400" xmlns="http://www.w3.org/2000/svg" xmlns:xlink="http://www.w3.org/1999/xlink"><linearGradient id="a"><stop offset="0" stop-color="#7798ad"/><stop offset=".25" stop-color="#a5c2d2"/><stop offset=".5" stop-color="#7798ad"/><stop offset=".75" stop-color="#a5c2d2"/><stop offset="1" stop-color="#7798ad"/></linearGradient><linearGradient id="b" gradientTransform="matrix(-.281763 35.219 -35.219 -.281763 236.889 96.2463)" gradientUnits="userSpaceOnUse" x1="0" x2="1" xlink:href="#a" y1="0" y2="0"/><linearGradient id="c" gradientTransform="matrix(-40.4289 42.2201 -42.2201 -40.4289 225.803 76.9159)" gradientUnits="userSpaceOnUse" x1="0" x2="1" y1="0" y2="0"><stop offset="0" stop-color="#9c772c"/><stop offset=".25" stop-color="#ceae5c"/><stop offset=".5" stop-color="#9c772c"/><stop offset=".75" stop-color="#ceae5c"/><stop offset="1" stop-color="#9c772c"/></linearGradient><linearGradient id="d" gradientTransform="matrix(119.405 40.6486 -40.6486 119.405 64.6173 122.481)" gradientUnits="userSpaceOnUse" x1="0" x2="1" xlink:href="#a" y1="0" y2="0"/><g fill-rule="nonzero" transform="matrix(1.01693 0 0 1.01693 152.886 98.8103)"><path d="m217.68 186.7s-15.25-9.89-19.47-33.39c-2.28-12.75 3.8-21.77 3.8-21.77 3.13 2.46 5.32 3.27 7.95 4.06 7.29 2.19 13.93-2.47 13.93-2.47-1.08 9.06-8.04 18.96-8.04 18.96s24.63-3.88 31.12-26.72c8.9-31.36-14.42-52.92-14.42-52.92-2.08-31.68-20.64-50.97-20.64-50.97.17 2.28-.28 5.69-.28 5.69s-9.48-8.57-44.05-17.21c-35.61-8.9-66.9-8.79-66.9-8.79 3.6 2.54 6.84 6.03 6.84 6.03-41.02 7.2-62.02 40.29-62.02 40.29 3.22-.35 6.2-.37 6.2-.37-28.73 28.73-40.98 64.57-40.98 64.57 4.32-2.42 10.92-4.8 10.92-4.8-14.49 30.02-20.64 57.52-20.64 57.52s22.35-10.02 47.8-5.63c37.71 6.5 55.69 39.06 114.05 39.06 32.49 0 54.83-11.14 54.83-11.14" fill="#cc202e"/><path d="m230.11 77.17s15.91 15.27 14.3 37.87-20.35 29.99-20.35 29.99c3.04-5.2 6.26-15.02 4.76-20.6-4.94 4.47-12.07 8.83-18.12 6.8-3.36-1.13-6.49-3.81-10.44-6.77-3.57 4.5-9.04 13.87-7.6 27.9 2.14 20.79 14.56 32.17 14.56 32.17-80.9 26.13-114.19-24.46-153.13-31.26-26.72-4.67-44.59 1.85-44.59 1.85 7.76-25.34 17.41-46.63 24.04-59.85-4.61 2.01-9.75 4.43-13.3 6.62 0 0 16.75-36.79 44.69-60.06-5.15 0-8.97.21-8.97.21s13.13-16.44 35.8-25.33c9.76-3.83 17.07-5.92 29.95-5.27-3.46-2.72-6.35-4.72-6.35-4.72s28.55 1.45 57.27 9.56c24.19 6.84 35.35 12.77 41.05 21.07.51-2.49.68-4.55.68-4.55 10.16 15.54 11.95 32.69 12.26 38.8 2.58 3.14 3.49 5.57 3.49 5.57m-62.33-.92c-5.88-.17-10.66-4.65-10.66-10.38 0-1.58.36-3.07 1.01-4.41-3.13-1.67-6.46-3.18-10.12-4.24 1.69 1.1 4.14 2.73 6.24 4.3-.41 1.51-.55 3.14-.37 4.81.74 6.83 6.52 11.5 12.97 11.1 2.47-.15 4.53-.98 6.15-2.28-1.49.75-3.24 1.16-5.22 1.1z"/><path d="m181.92 154.01c-14.6-10.53-26.67-27.61-26.67-27.61s-3.39 1.04-7.76.51c-3.72-.46-6.74-3.08-13.24-8.6-6.51-5.53-18.9-16.49-18.9-16.49-23.71 11.53-31.74 20.14-41.01 20.14-4.99 0-10.36-5.02-10.36-5.02-13.29 7.51-25.6 15.63-30.12 18.67 4.39-12.38 16.12-43.27 28.86-58.39 0 0-6.17.82-13.5 3.22 13.44-26.8 39.93-44.59 39.93-44.59-4.33-.39-7.98-.44-10.38-.4 4.77-4.58 12.85-10.39 25.13-13.49 15.1-3.82 30.96-1.14 37.52.06 0 0-1.48-1.86-4.42-4.13 8.65 1.44 22.04 3.92 34.56 7.32 24.07 6.54 37.59 13.17 41.55 30.5 1.12-2.28 1.92-4.33 2.49-6.06 1.59 3.89 3.21 9.17 3.65 15.28-3.13-2.11-7.07-4.09-12.02-5.55-11.14 12.81-10.97 29.92-10.83 33.25-6.51 2.74-18.95-.5-32.83 5.17-16.12 6.58-21.51 19.45-21.51 19.45s11.75-5.25 30.48-3.66c8.17.69 14.31 2.82 19.22 5.38-4.1 5.39-11.13 17.4-9.84 35.04m11.09-84.14c.94-2.59 1.26-4.85 1.21-6.79.02-.97-.11-1.96-.37-2.95-.79-3.38-2.57-5.13-2.57-5.13s.21 7.72-8.13 7c-.82-.07-1.71-.27-2.67-.56-5.21-1.87-12-6.64-18.42-10.9-8.08-5.37-15.15-5.8-15.15-5.8 1.38 1.07 2.75 2.83 3.86 4.44-10.02-2.3-21.35-1.73-33.2 6.75 0 0 10.2-2.44 24.11-.1-.65 5.3-1.12 20.24 13.18 25.65 15.58 5.9 24.03-2.64 27.69-8.28-.78 5.63-3.24 9.62-3.24 9.62s10.38-3.84 13.7-12.95m-85.22 1.58c2.46-.2 7.31-.73 11.06-1.98 0 0-3.82-.77-6.72-1.73 5.27-4.3 9.05-6.69 9.05-6.69-40.96 12.06-58.18 48.96-58.18 48.96s26.16-3.98 41.1-17.45c0 0-6.43-.51-13.36-1.83 1.68-2.51 3.48-4.9 5.33-7.14 3.04-.16 10.06-.94 16.16-4.62 0 0-5.67-.64-10.3-1.9 2-2.06 3.97-3.93 5.86-5.62m12.25-32.08s-3.09-.9-5.44-1.89c4.73-3.32 7.99-5 7.99-5-35.19 7.25-51.79 37.64-51.79 37.64s22.04-1.98 35.51-12.24c0 0-5.37-.96-11.07-2.56 1.55-1.9 3.14-3.68 4.74-5.34 2.58-.01 8.56-.36 13.94-3.02 0 0-4.64-.92-8.42-2.28 1.8-1.6 3.56-3.05 5.23-4.34 1.77.05 5.07-.03 9.31-.97m45.27 26.21c2.52 1.5 4.96 2.92 7.39 4.05-.7 1.36-2.11 2.28-3.74 2.28-2.33 0-4.22-1.89-4.22-4.22-.01-.76.2-1.48.57-2.11" fill="#fff"/><path d="m236.53 96.52c-.97 1.05-2.1 2.84-2.8 5.88 0 0 2 3.2 3.19 8.23 1.68 7.14-.28 15.03-2.6 20.35 2.5-3.81 7.74-13.75 4.72-26.69-.67-2.85-1.53-5.44-2.51-7.77z" fill="url(#b)"/><path d="m224.01 119.8c-3.08-1.02-5.96-.5-5.96-.5-10.41-15.96-40.74-14.51-40.74-14.51s24.96-6.59 44.69 9.33c0 0 1.46-7.54 6.23-11.35 0 0 1.21-7.52 5.74-11.44-2.76-4.83-5.73-7.98-7.4-9.55-4.92 3.9-5.57 12.07-5.57 12.07-5.39 0-14.02 6.33-14.02 6.33 3.54-6.33 10.95-9.16 10.95-9.16.82-8.46 6.22-12.46 6.22-12.46-4.15-9.05-14.99-12.79-14.99-12.79s-8.91 11.26-5.97 31.45c-4.36 3.04-10.6 3-17.46 2.97-4.88-.03-10.08-.05-15.15 1.03-7.51 1.6-12.57 5.69-14.58 7.57 3.93-.75 9.19-1.26 15.86-.92 24.94 1.29 33.55 12.91 39.55 15.87 3.59 1.77 8.45-.29 12.6-3.94zm-17.61-39.09s3.79 4.15 9.45 6.11c0 0-.74 2-3.94 2.48-.49.07-.97.11-1.41.11-3.08 0-4.96-1.54-4.96-1.54s2.01-.19 2.81-.9c0-.01-1.54-1.77-1.95-6.26z" fill="url(#c)"/><path d="m168.91 168.17-8.19-.53 11.2 4.59c1.78 2.33 3.6 4.59 5.33 6.53 2.55-.35 5.16-.81 7.83-1.37-5.04-4.35-13.91-12.07-24.67-21.7 0 .01 3.79 5.97 8.5 12.48m-13.81 11.06c2.94.29 5.96.44 9.06.44 0 0 1.09-.01 1.39-.01l-10.5-15.95-3.59-.34-9.03-11.59zm-28.61-7.36c2.16.89 4.36 1.72 6.6 2.49l-3.74-12.52 8.64 14.07-.44-6.18 6.37-1.3-8.82-4.23-2.27-4.99-3.99-1.47-8.23-14.2zm-79.14-34.46c.07.01.13.01.2.02 3.28-1.54 12.64-5.83 19.1-7.79 0 0-5.15 5.36-8.99 9.3 2.37.47 4.71 1.09 7.03 1.82l4.64-10.38.73 8.38 3.71 2.3-2.51 2.08c3.2 1.3 6.37 2.8 9.53 4.41l-2.69-8.93 16.2 16.38-7.54-18.46s-7.34.16-12.77-1.37c0 0 6.33-2.9 10.38-7.83-3.02 1.47-5.69 2.3-8.48 2.3-4.99 0-10.31-3.17-12.11-4.35-3.07 1.95-10.86 7.05-16.43 12.12m58.1-8.3-3.34 1.28 2.86 15.88-8.48-11.58 10.96 27.86c.11.06.22.12.32.18l-.84-15.55 10.44 18.47-4.18-21.41 3.08-5.2-8.93-1.03 3.97-8.35-.26-16.02zm16.29-5.76-3.77 7.41 5.29 1.82 12.13 18.79-.23-13.47 18.3 15.46-11.07-14.48c3.14 1.61 8.91 2.39 8.91 2.39 9.67 8.85 20.38 17.25 31.89 24.77-7.38-6.42-23.56-20.86-31.99-31.14-.65.08-1.35.12-2.12.08-6.26-.29-10.77-4.02-17.28-9.55-4.61-3.92-12.99-10.88-17.47-14.6z" fill="url(#d)"/></g></svg>