<svg clip-rule="evenodd" fill-rule="evenodd" stroke-linejoin="round" stroke-miterlimit="2" viewBox="0 0 560 400" xmlns="http://www.w3.org/2000/svg"><g fill-rule="nonzero"><path d="m211.528 121.125c17.839-18.121 42.033-29.16 66.582-29.11 17.405-.732 34.871 4.092 50.089 13.199 27.329 16.078 46.778 46.702 50.75 80.115 2.555 16.401.174 33.176-4.156 48.977-.453-.368-.955-.558-1.513-.558-62.023.043-124.049-.011-186.073.028-.704-.047-1.366.227-1.994.552-4.615-14.64-6.165-30.392-4.654-45.756 2.323-25.549 13.623-49.964 30.969-67.447m45.529 18.761c-6.417 8.561-13.29 17.602-15.325 28.722-2.403 11.742-1.059 25.002 6.239 34.506 4.947 6.024 10.9 11.268 17.762 14.506 3.964 1.516 8.201 2.055 12.375 2.334 6.009-.58 12.352-1.026 17.636-4.516 8.789-5.59 17.035-13.63 19.953-24.566 3.244-13.195.979-28.093-6.542-39.162-2.099-3.113-3.881-6.495-6.379-9.268-3.598-4.433-5.769-9.956-8.751-14.801-3.021-6.914-6.171-13.852-9.533-20.565-1.31-3.91-3.154-7.603-4.817-11.346-7.401 14.768-13.874 30.199-22.618 44.156z" fill="#025732"/><path d="m205.88 271.546c.568-.292 1.154-.591 1.797-.544 19.205-.123 38.434-.335 57.634.13 8.106-.106 16.226.249 24.32-.329 21.41.266 42.811-.065 64.213-.041-.037.652-.061 1.305-.106 1.963-16.845 20.501-41.413 33.278-66.692 35.032-28.937 2.403-58.827-9.712-78.708-32.629-.396-1.482-1.578-2.448-2.458-3.582z" fill="#025732"/><path d="m257.057 139.886c8.744-13.957 15.217-29.388 22.62-44.158 1.663 3.743 3.507 7.436 4.817 11.346 1.496 5.611 4.669 10.525 6.856 15.85.784 1.633 1.288 3.518 2.675 4.715 2.982 4.845 5.153 10.37 8.751 14.801 2.498 2.773 4.28 6.157 6.379 9.268 7.521 11.069 9.786 25.967 6.542 39.163-2.918 10.935-11.166 18.975-19.953 24.565-5.286 3.49-11.627 3.937-17.636 4.516-4.174-.277-8.411-.816-12.375-2.334-6.862-3.236-12.817-8.48-17.762-14.505-7.298-9.505-8.642-22.765-6.239-34.507 2.035-11.118 8.908-20.159 15.325-28.72m6.248 37.739c-3.269.468-6.203 2.979-7.328 6.338-1.304 3.638-.319 8.093 2.413 10.662 3.388 3.544 9.437 3.416 12.585-.431 3.396-3.446 3.468-9.847.197-13.408-1.899-2.423-4.982-3.594-7.867-3.161z" fill="#dc8229"/><path d="m284.496 107.074c3.362 6.713 6.512 13.651 9.532 20.565-1.386-1.197-1.892-3.082-2.674-4.715-2.191-5.327-5.364-10.241-6.858-15.85z" fill="#b59047"/><path d="m263.305 177.625c2.885-.433 5.968.738 7.866 3.159 3.271 3.561 3.198 9.962-.197 13.408-3.149 3.847-9.198 3.977-12.586.431-2.732-2.567-3.717-7.023-2.413-10.662 1.127-3.357 4.061-5.868 7.33-6.336z" fill="#fff"/><path d="m185.211 234.326c.628-.325 1.29-.598 1.994-.552 62.024-.039 124.05.017 186.073-.028.56 0 1.06.19 1.513.558-55.976.279-111.971.041-167.954.117-7.208-.065-14.42.134-21.626-.095z" fill="#0d341c"/><g fill="#fff"><path d="m185.211 234.326c7.204.229 14.417.032 21.626.097 55.985-.077 111.978.161 167.954-.117-4.254 12.992-10.352 25.478-18.93 35.744-50.373.041-100.752.268-151.124.147-1.404-.262-2.101-1.73-2.92-2.816-7.28-9.829-13.028-21.058-16.606-33.055m53.287 3.724c-2.284 9.207-4.427 18.454-6.56 27.694 2.706-.059 5.417.033 8.121-.048.654-3.738 1.654-7.386 2.342-11.107 4.799-.057 9.601-.02 14.396-.02 2.104-.132 4.191-1.006 5.715-2.613 3.137-2.171 3.39-7.202 1.659-10.438-2.217-2.191-5.205-3.698-8.257-3.596-5.804.028-11.614-.052-17.416.128m34.096-.042c-2.33 9.199-4.406 18.475-6.599 27.712 2.724-.021 5.451.061 8.175-.047.697-3.724 1.509-7.422 2.342-11.112 4.81 0 9.618-.003 14.427.008 3.071-.154 5.765-2.182 7.576-4.762 1.143-2.732 1.158-6.01-.435-8.534-2.156-1.836-4.777-3.34-7.583-3.345-5.973-.013-11.941.004-17.903.08m33.44-.024c-1.981 9.273-4.224 18.479-6.243 27.751 7.526-.06 15.054.072 22.578-.065.384-2.201 1.07-4.321 1.596-6.483-4.882-.017-9.761 0-14.643-.002 1.756-7.058 3.271-14.191 5.02-21.252-2.764.026-5.541-.072-8.308.051z"/><path d="m244.94 243.962c4.306.259 8.792-.672 12.979.567.742 1.608-.124 3.753-1.596 4.455-4.104-.035-8.211-.279-12.32-.223-.082-1.661.639-3.198.937-4.799z"/><path d="m279.078 243.962c3.937.034 7.886-.182 11.806.121 2.406.392 1.28 4.167-.415 4.892-4.224-.021-8.45-.262-12.675-.236.411-1.599.84-3.193 1.284-4.777z"/></g><g fill="#1d191a"><path d="m238.498 238.05c5.804-.18 11.612-.1 17.416-.126 3.054-.104 6.04 1.405 8.257 3.596 1.731 3.236 1.478 8.267-1.659 10.438-1.524 1.607-3.611 2.481-5.715 2.613-4.797 0-9.599-.039-14.396.02-.688 3.721-1.689 7.369-2.342 11.107-2.706.081-5.417-.012-8.121.048 2.133-9.244 4.274-18.489 6.56-27.696m6.442 5.912c-.298 1.599-1.019 3.138-.939 4.799 4.109-.056 8.217.19 12.32.223 1.472-.704 2.338-2.847 1.597-4.455-4.186-1.239-8.67-.308-12.978-.567z"/><path d="m272.594 238.008c5.962-.076 11.93-.093 17.901-.08 2.807.005 5.427 1.509 7.583 3.345 1.593 2.522 1.58 5.802.435 8.534-1.812 2.58-4.505 4.608-7.575 4.762-4.81-.011-9.618-.008-14.428-.008-.833 3.69-1.643 7.39-2.342 11.112-2.726.11-5.453.028-8.175.047 2.195-9.235 4.271-18.513 6.601-27.712m6.484 5.954c-.444 1.584-.873 3.178-1.284 4.777 4.225-.026 8.451.215 12.675.236 1.695-.725 2.821-4.5.415-4.892-3.92-.301-7.869-.087-11.806-.121z"/><path d="m306.034 237.984c2.766-.121 5.542-.025 8.31-.051-1.749 7.061-3.264 14.194-5.02 21.252 4.882.002 9.761-.015 14.643.002-.526 2.162-1.212 4.284-1.597 6.483-7.525.137-15.053.005-22.577.065 2.017-9.272 4.26-18.478 6.241-27.751z"/></g><path d="m204.149 270.197h.589c50.373.119 100.753-.106 151.124-.147-.559 1.02-1.31 1.892-2.124 2.675.043-.658.069-1.311.106-1.963-21.402-.024-42.803.307-64.213.041-8.092.578-16.214.223-24.32.329-19.2-.465-38.429-.255-57.634-.13-.645-.047-1.229.252-1.797.544.88 1.132 2.062 2.1 2.458 3.582-1.63-1.392-2.951-3.151-4.189-4.931z" fill="#094225"/></g></svg>