<svg clip-rule="evenodd" fill-rule="evenodd" stroke-linejoin="round" stroke-miterlimit="2" viewBox="0 0 560 400" xmlns="http://www.w3.org/2000/svg"><g fill="#161413" fill-rule="nonzero"><path d="m258.176 226.232c-3.124.611-6.514.211-9.229-1.524-3.17-1.923-5.283-5.371-5.686-9.048-.05-.752-.052-1.498-.007-2.25.463-4.229 3.634-8.1 7.82-9.073 5.143 5.655 10.285 11.303 15.457 16.928-2.111 2.551-5.117 4.318-8.355 4.967zm23.22-7.168c.176-2.32.342-4.668 1.09-6.895.879-2.802 2.432-5.703 5.199-7.011.567-.17 1.153-.293 1.742-.346.006-.533-.027-1.074.108-1.598-.16-.732.064-1.478-.014-2.22-.107-1.114-.094-2.233-.062-3.35.082-1.393-.114-2.816.076-4.197-.082-.35-.108-.703-.115-1.057-3.438-.033-6.868.924-9.826 2.66-4.459 2.617-7.833 7.08-9.01 12.135-6.651-7.174-13.174-14.463-19.807-21.649-1.41-1.588-2.035-3.787-1.764-5.881.42-2.263 1.848-4.351 3.936-5.384 1.393-.766 3.033-.883 4.584-.688 2.389.393 4.455 2.092 5.436 4.291 3.691-1.916 7.462-3.687 11.138-5.646-.637-1.194-1.301-2.381-2.137-3.448-3.671-4.851-9.693-7.878-15.796-7.732-7.059-.119-13.928 4.031-17.252 10.232-2.106 3.819-2.887 8.35-2.162 12.649.638 4.008 2.562 7.797 5.421 10.67-3.31 1.961-6.146 4.734-8.13 8.035-2.282 3.76-3.416 8.188-3.286 12.578.139 4.33 1.42 8.633 3.743 12.295 3.464 5.576 9.281 9.623 15.716 10.938 3.278.683 6.68.644 9.979.107 5.619-1.037 10.836-3.902 14.814-7.994 1.659 1.91 3.407 3.74 5.1 5.621 5.629-.01 11.26.024 16.891-.015-5.227-5.678-10.416-11.391-15.612-17.1"/><path d="m57.8 201.369c-2.109 2.252-5.086 3.541-8.129 3.882-2.187.092-4.377.024-6.566.043v-30.215c2.568.065 5.186-.222 7.703.416 3.041.668 5.865 2.334 7.83 4.758 4.875 5.971 4.502 15.555-.838 21.116zm16.416-17.762c-1.396-6.09-4.865-11.75-9.902-15.495-4.818-3.632-10.887-5.398-16.883-5.425-5.81.002-11.621 0-17.43 0-.001 24.5-.001 48.994 0 73.492h13.104c0-6.133-.002-12.267 0-18.398 3.135-.061 6.297.179 9.41-.289 5.104-.717 9.975-3.037 13.699-6.602 4.995-4.701 8.024-11.328 8.647-18.127.156-3.064.107-6.164-.645-9.156"/><path d="m126.568 162.689c4.406-.002 8.813.004 13.219-.002.029.408.055.816.066 1.226-.009.813-.006 1.625-.009 2.442.001.812.007 1.627 0 2.441 0 1.184.007 2.367 0 3.551.001.371.001.742.003 1.113-.052 1.776.026 3.553-.003 5.33.019 2.444-.049 4.885 0 7.326.011 3.778.001 7.553 0 11.327.001.664 0 1.328.007 1.998-.047.814-.047 1.631 0 2.445-.007.592-.006 1.182-.006 1.774-.087 2.578.124 5.16-.146 7.732-.381 4.449-1.594 8.863-3.811 12.75-2.267 4.024-5.636 7.416-9.66 9.684-4.49 2.547-9.691 3.701-14.83 3.701-5.717.062-11.531-1.305-16.385-4.395-4.669-2.935-8.273-7.453-10.265-12.584-1.653-4.156-2.289-8.662-2.256-13.115.002-14.914 0-29.828 0-44.744 4.439-.002 8.879-.002 13.318-.002.002 15.22 0 30.437.002 45.654.133 4.268 1.051 8.776 3.908 12.09 2.338 2.774 5.907 4.252 9.471 4.531 3.715.366 7.682-.136 10.889-2.162 2.576-1.621 4.344-4.283 5.277-7.14.717-2.065.981-4.248 1.158-6.414.116-5.342.018-10.684.049-16.03 0-10.172 0-20.352.004-30.527"/><path d="m189.951 162.702c4.41-.029 8.82-.007 13.226-.015.004 20.279 0 40.553.004 60.826 7.543.01 15.09-.021 22.635.014-.006 4.215-.004 8.428 0 12.642-11.957.02-23.91.02-35.863 0 0-24.488 0-48.978-.002-73.467"/><path d="m335.957 216.558c-.332 1.74-1.276 3.381-2.686 4.465-1.676 1.338-3.769 2.006-5.844 2.377-3.98.658-8.027.318-12.042.404.005-6.375-.004-12.752.005-19.125 2.995.02 5.987-.053 8.979.049 2.902.182 5.933.621 8.391 2.275 1.742 1.123 2.923 3.028 3.236 5.069.228 1.484.215 3.004-.039 4.486zm-20.572-41.889c2.945.041 5.914-.16 8.834.348 2.095.387 4.232 1.213 5.648 2.877 1.338 1.597 1.779 3.75 1.728 5.789.051 2.314-.716 4.748-2.474 6.32-1.856 1.639-4.369 2.274-6.781 2.45-2.321.05-4.635.007-6.955.021zm32.216 30.416c-1.8-3.746-5.013-6.724-8.73-8.529.012-.055.031-.166.039-.221 2.711-2.361 4.674-5.586 5.432-9.109.57-2.561.439-5.217.033-7.793-.524-2.512-1.465-4.951-2.891-7.092-2.057-3.104-5-5.586-8.34-7.215-2.685-1.252-5.634-1.775-8.554-2.129-1.778-.125-3.551-.269-5.329-.301-5.677-.021-11.361-.001-17.044-.009v73.492c8.349-.041 16.699.086 25.043-.064 5.923-.489 11.828-2.77 16.109-6.973 3.326-3.164 5.572-7.465 6.127-12.031.41-4.072-.082-8.321-1.895-12.026"/><path d="m356.615 162.687c15.055 0 30.107 0 45.158.002-.006 4.131.02 8.261-.012 12.392-10.648.008-21.296-.025-31.947.018.006 5.787.006 11.574 0 17.359 10.108.039 20.215.006 30.322.016.004 4.068 0 8.139.004 12.201-10.107.014-20.213-.01-30.32.014-.006 6.363.004 12.73-.006 19.096 10.651.045 21.303.006 31.959.019.004 4.127 0 8.248 0 12.375h-45.158z"/><path d="m431.676 204.63c2.947-7.386 5.912-14.765 8.816-22.168 2.939 7.383 5.83 14.787 8.795 22.164-5.875.02-11.742.02-17.611.004zm14.082-41.775c-.075-.387-.539-.297-.807-.317-2.979.008-5.957.008-8.93 0-.283.033-.703-.08-.842.235-9.98 24.466-19.974 48.932-29.949 73.4 4.74.016 9.483.006 14.223.006 2.48-6.369 4.947-12.746 7.422-19.117 9.068.006 18.135 0 27.201.006 2.473 6.371 4.922 12.754 7.414 19.115 5.053-.014 10.105.01 15.16-.014-10.293-24.439-20.596-48.877-30.892-73.314"/><path d="m511.976 190.121c-.677 2.392-2.275 4.509-4.424 5.769-3.113 1.875-6.859 2.334-10.433 2.33-1.387-.006-2.77-.006-4.15-.006v-23.135c3.765.018 7.591-.213 11.273.78 1.582.466 3.15 1.074 4.488 2.062 1.715 1.201 2.916 3.059 3.424 5.08.57 2.334.467 4.813-.178 7.12zm11.051 34.056c-3.1-5.851-6.064-11.783-8.769-17.828 2.119-1.191 4.086-2.67 5.767-4.437 2.143-2.174 3.666-4.883 4.672-7.754 2.08-6.471 1.855-13.911-1.539-19.901-1.547-2.707-3.77-5.012-6.377-6.721-3.924-2.623-8.572-3.924-13.207-4.545-1.635-.129-3.262-.322-4.897-.304-6.314.008-12.623-.01-18.937.009.006 24.493.006 48.985 0 73.477 4.416.01 8.818.016 13.229 0v-24.681c.419-.006.845-.01 1.273-.03 1.084-.158 2.187-.084 3.277-.23 1.123-.094 2.227-.317 3.354-.375.471 1.23 1.074 2.402 1.617 3.598 3.422 7.369 7.119 14.609 11.08 21.709 5.479.035 10.951.019 16.43.005-2.481-3.906-4.785-7.921-6.973-11.992"/><path d="m148.752 162.687h13.199c0 20.275-.004 40.553 0 60.826h22.609c0 4.223.002 8.447 0 12.666h-35.808c-.002-24.494 0-48.992 0-73.492"/></g></svg>