<svg clip-rule="evenodd" fill-rule="evenodd" stroke-linejoin="round" stroke-miterlimit="2" viewBox="0 0 560 400" xmlns="http://www.w3.org/2000/svg"><path d="m145.945 65h268.109059v269.999814h-268.109059z" fill="#fff" stroke-width=".378151"/><g fill="#e2000b" fill-rule="nonzero" transform="matrix(.378151 0 0 .378151 145.945 65)"><path d="m0 0v714h709v-714zm572.37 603.484c-25.807 11.702-51.622 10.934-76.561-2.041-11.299-5.878-21.513-13.855-32.142-20.994-3.439-2.309-8.035-5.98-10.43-7.795-13.82 7.846-30.864 14.231-47.016 19.207-59.416 18.306-117.321 10.786-172.781-14.49-70.868-32.297-112.836-88.427-131.123-163.828-23.794-98.109 19.044-222.226 119.514-281.331 36.538-21.495 76.117-31.896 118.422-33.37 29.347-1.022 58.386.276 86.624 8.604 88.567 26.12 143.717 85.19 164.771 174.199 23.384 98.857-5.96 182.702-79.107 252.036-.967.917-2.789 2.359-4.199 3.6 17.377 11.186 33.978 25.319 54.027 32.132 18.021 6.124 35.9 6.404 54.657-2.675-11.119 15.421-27.329 28.89-44.656 36.746z"/><path d="m480.728 515.093c-45.311-33.71-93.974-38.369-145.837-18.491 37.656 3.192 62.611 27.645 89.127 52.711-9.575 2.747-17.981 5.687-26.619 7.554-68.183 14.738-122.316-8.766-165.318-61.563-30.407-37.334-47.628-80.418-55.386-127.732-7.985-48.692-2.141-95.718 16.701-140.967 15.446-37.092 40.383-66.253 78.832-80.596 58.22-21.719 112.493-12.98 161.138 25.823 39.205 31.271 64.215 72.564 80.225 119.524 11.489 33.699 17.379 68.484 16.109 104.133-1.451 40.702-13.07 77.998-39.789 109.655-2.885 3.419-6.067 6.587-9.183 9.949z"/></g></svg>