<svg clip-rule="evenodd" fill-rule="evenodd" stroke-linejoin="round" stroke-miterlimit="2" viewBox="0 0 560 400" xmlns="http://www.w3.org/2000/svg"><g transform="matrix(9.375 0 0 9.375 130 50)"><circle cx="16" cy="16" fill="#454545" r="16"/><path d="m11.5 16c0-2.481 2.019-4.5 4.5-4.5s4.5 2.019 4.5 4.5c0 .653-.143 1.272-.394 1.833l-2.97-2.97-2.272 2.273 2.97 2.97c-.577.26-1.202.394-1.834.394-2.468-.003-4.497-2.032-4.5-4.5m11.813 0c.001-1.412-.409-2.795-1.18-3.978l2.867-2.868-2.154-2.154-2.868 2.868c-1.146-.745-2.51-1.181-3.978-1.181s-2.832.436-3.978 1.18l-2.868-2.867-2.154 2.154 2.868 2.868c-.745 1.146-1.181 2.51-1.181 3.978s.437 2.832 1.181 3.978l-2.868 2.868 2.154 2.154 2.868-2.868c1.146.745 2.51 1.181 3.978 1.181s2.832-.436 3.978-1.181l2.868 2.868 2.154-2.154-2.868-2.868c.772-1.183 1.182-2.566 1.181-3.978" fill="#fff"/></g></svg>