<svg clip-rule="evenodd" fill-rule="evenodd" stroke-linejoin="round" stroke-miterlimit="2" viewBox="0 0 560 400" xmlns="http://www.w3.org/2000/svg"><circle cx="280" cy="200" fill="#fff" r="150"/><g fill-rule="nonzero"><path d="m398.027 292.581c20.028-25.497 31.972-57.644 31.972-92.581 0-82.843-67.157-150-150-150-18.02 0-35.298 3.181-51.304 9.006 60.896 31.945 141.448 136.165 169.332 233.575z" fill="#3e5ba9"/><g fill="#9f1d20"><path d="m258.516 145.682c-23.399-25.208-49.603-45.227-77.356-58.505-31.357 27.493-51.16 67.843-51.16 112.823 0 37.82 14.002 72.367 37.099 98.752 20.361-61.174 58.639-120.135 91.417-153.07z"/><path d="m286.155 179.696c-32.473 34.997-64.833 96.262-76.544 152.786 20.992 11.176 44.948 17.518 70.389 17.518 26.156 0 50.743-6.7 72.151-18.469-12.34-57.018-35.633-109.236-65.996-151.835z"/></g></g></svg>