<svg clip-rule="evenodd" fill-rule="evenodd" stroke-miterlimit="10" viewBox="0 0 560 400" xmlns="http://www.w3.org/2000/svg"><g transform="matrix(3.39053 0 0 3.39053 128.182 99.9572)"><path d="m7.821 5.215c21.161 4.275 42.671 6.589 64.257 6.914l-29.274 45.172z" fill="#fff"/><path d="m7.821 5.215c21.161 4.275 42.671 6.589 64.257 6.914l-29.274 45.172z" fill="none" stroke="#080001" stroke-width=".04"/><path d="m5.157 2.975c7.551 2.679 15.395 4.444 23.365 5.257 17.44 2.054 35.119.304 51.817-5.129-12.526 18.632-25.042 37.265-37.548 55.897-12.526-18.675-25.07-37.35-37.634-56.025m72.603 2.069c-21.04 6.218-43.357 6.747-64.668 1.531-1.743-.44-3.486-.922-5.214-1.488 11.633 17.329 23.271 34.668 34.913 52.015 11.647-17.343 23.304-34.695 34.969-52.058" fill="#180f19"/><path d="m7.793 5.045c7.908 2.446 16.072 3.976 24.329 4.562 15.342 1.242 30.783-.265 45.596-4.449-11.647 17.301-23.289 34.587-34.927 51.859-11.675-17.3-23.341-34.624-34.998-51.972m67.615 1.771c-19.55 5.085-40.017 5.556-59.78 1.375-1.813-.355-3.598-.808-5.412-1.332 10.868 16.124 21.726 32.253 32.575 48.387 10.882-16.124 21.754-32.268 32.617-48.43" fill="#48a1d6"/><path d="m69.23 38.427c-3.273-.893-5.54-3.641-7.07-6.504-1.091-1.856-2.352-4.293-4.818-4.364-1.237.06-2.455.333-3.599.808-.156-.85.893-1.46 1.417-2.069.411-.396 1.176-.808 1.332-1.134-1.573-.24-2.536 1.375-3.472 2.395-2.054 2.508-3.641 5.611-6.503 7.311-1.658.482-2.99 1.701-4.619 2.14 1.105-.954 2.284-1.816 3.528-2.579-3.925 1.289-7.765 2.905-11.803 3.755-.936-.354-1.841-.785-2.706-1.289-5.753-2.919-11.496-5.857-17.23-8.814 3.642-6.022 9.465-10.315 15.289-14.027 6.765-4.163 13.927-7.642 21.381-10.386 6.305-1.615 12.766-3.727 19.397-2.834 1.189.078 2.315.564 3.188 1.375 2.551 1.176 5.469 1.048 8.176 1.572 2.664.525 5.894 1.219 7.183 3.925 1.375 3.188.369 7.68-2.904 9.295-.369.043-.043-.85-.198-1.176-.069-.886-.221-1.763-.454-2.621-3.84-1.573-8.034-.283-11.803.935-4.995 1.68-9.08 5.354-11.278 10.145.085 1.899 1.544 3.231 2.791 4.52.043.567-.482.652-.723.199-.283-.44-1.247-.808-1.459-.312 1.271 1.338 2.423 2.783 3.443 4.321-.524-.283-1.615-.283-1.785-.722.127 1.771 1.941 2.663 3.159 3.712.992.665 1.844 1.517 2.509 2.508-.118-.047-.242-.076-.369-.085" fill="#48a1d6"/><path d="m57.994 18.704c-.651-.893-.17-2.182-.085-3.231.198-.736.128-1.657.567-2.224 2.026-1.176 4.407-.85 6.631-1.006 3.231-.17 6.461-.411 9.734-.369 2.961.085 5.994-.084 8.941.114 1.514.4 2.748 1.502 3.316 2.961-.369.638-1.29-.127-1.786-.326-3.06-2.139-7.113-1.544-10.542-.609-3.514.85-6.674 2.834-10.272 3.358-2.182.295-4.34.74-6.461 1.332z" fill="#a6a5aa"/><path d="m58.192 18.42c-.524-.652 0-1.615-.042-2.38.127-.808.411-2.069.524-2.551-.457 1.572-.635 3.213-.524 4.846 1.506-.55 3.088-.861 4.69-.921-1.576.197-3.132.534-4.648 1.006m4.648-1.006c3.726-.241 7.07-1.941 10.556-3.032 3.84-1.176 8.402-1.984 12.001.354.439.411 1.573.977 1.856.17-.586-1.552-1.902-2.72-3.514-3.117-4.449-.241-8.926-.198-13.375-.198-3.514.24-7.071.084-10.556.68 7.524-.156 15.118-.397 22.684-.114 1.866-.067 3.596 1.006 4.365 2.706-.695.128-1.417-.651-2.112-.892-2.097-1.247-4.604-1.205-6.9-.893-5.214.652-9.833 3.443-15.005 4.336" fill="#180f19"/><path d="m84.675 16.89c.156-1.219.638-2.551.113-3.727-1.445-1.416-3.712-1.204-5.568-1.289-2.72 0-5.427.68-8.091.085-2.882.05-5.758.263-8.615.638 2.069-1.049 4.294-2.225 5.342-4.407 1.367-1.735 2.942-3.296 4.69-4.647 2.338-1.162 5.016-.156 7.481.127 2.097.439 4.407.638 6.263 1.814 2.14 1.898 3.67 4.93 2.622 7.807-.673 1.703-1.754 3.216-3.146 4.406-.369-.283-.737-.566-1.091-.807" fill="#a6a5aa"/><path d="m60.219 14.141c.765-1.176 2.423-1.176 3.642-1.46 2.907-.386 5.837-.576 8.77-.566-4.619 1.856-9.229 3.717-13.829 5.582.439-1.218.935-2.394 1.417-3.556" fill="#fff"/><path d="m60.786 9.281c-1.468-.048-2.918-.336-4.293-.85 1.742-.397 4.081-1.049 4.406-3.06.028-.678-.171-1.347-.566-1.899 3.4.723 6.801 1.402 10.187 2.139-2.545 2.596-6.11 3.94-9.734 3.67" fill="#080001"/><path d="m66.198 7.425c-1.754-.493-3.267-1.612-4.251-3.145 2.551.524 5.059 1.048 7.609 1.572-.742 1.103-2.036 1.709-3.358 1.573" fill="#fff"/><path d="m70.038 5.328c1.435-1.577 3.384-2.597 5.498-2.876.368.807-.808.482-1.247.807-1.492.393-2.831 1.228-3.84 2.395-.123-.126-.261-.235-.411-.326" fill="#180f19"/><path d="m68.947 5.937c-.994-.172-1.726-1.043-1.726-2.051 0-.636.292-1.238.791-1.633.365-.277.812-.427 1.271-.427 1.154 0 2.103.95 2.103 2.104 0 .088-.005.177-.016.264-.164 1.017-1.051 1.771-2.08 1.771-.115 0-.23-.009-.343-.028" fill="#48a1d6"/><path d="m66.637 6.943c-1.006.113-1.771-1.332-.722-1.856.892-.652 2.663.283 1.898 1.374-.284.35-.728.531-1.176.482" fill="#080001"/><path d="m67.204 6.575c-1.006-.284.042-1.701.567-.85.066.092.101.203.101.316 0 .3-.247.547-.547.547-.041 0-.081-.004-.121-.013" fill="#fff"/><path d="m68.423 6.093c-1.459-.241-2.876-.893-4.364-1.091-1.658-.439-3.641-.439-4.973-1.658-.412-.893 1.176-.694 1.7-.652 2.578.239 5.067 1.073 7.268 2.438.856.661 2.087.569 2.835-.213.609-.482.524-1.658.481-2.055.116.285.176.59.176.898 0 1.304-1.074 2.377-2.378 2.377-.031 0-.062 0-.093-.002-.219.006-.437-.008-.652-.042" fill="#080001"/><path d="m71.327 8.275c-.397-1.091.893-2.14 1.941-2.182.925-.158 1.875.062 2.636.61-.978-.241-2.437-.568-3.117.353.084.893-.61 1.304-1.46 1.219" fill="#080001"/><path d="m50.471 3.302c-1.134-.113-2.749-.198-3.599-.326 3.736-1.068 7.605-1.598 11.49-1.573-4.122 1.247-8.246 2.508-12.369 3.755 1.488-.595 2.99-1.204 4.478-1.856" fill="#48a1d6"/><path d="m49.053 4.308c-.921-.071.326-.482.609-.638.652-.283-.198-.566-.198-.609.609-.156 2.182-.283 1.856.765-.481.652-1.573.411-2.267.482" fill="#48a1d6"/><path d="m61.72 11.62c.638-.397 1.53-1.12.723-1.729-.847-.414-1.766-.659-2.707-.723 3.146-.198 6.589-.411 9.168-2.352.25-.223.482-.464.694-.722-.022.205-.06.409-.113.609.112-.302.188-.616.227-.935.085-.241.127-1.29.17-.567.198 2.791-1.942 5.058-4.294 6.149-2.011 1.29-4.604 1.091-6.744 2.097-.567.241-.453.978-.482 1.417h-.085l-.085-.042c-.567-.723.043-1.942.61-2.508.94-.353 1.92-.586 2.918-.694m8.119-6.746c0 .043.043-.113 0 0" fill="#080001"/><path d="m60.332 14.85c.836.311 1.885-.227 2.749-.397.496-.113.936-.269 1.417-.397-1.615.609-3.443 1.006-4.804 2.083-.24.556-.57 1.068-.977 1.516l-.043-.042c.508-1.442 1.143-2.836 1.899-4.166 1.417-1.375 3.557-1.247 5.385-1.53 2.295-.171 4.604-.171 6.914-.128-1.417.808-3.032.411-4.576.567-2.196.005-4.381.291-6.504.85-.638.392-1.146.964-1.46 1.644m11.364-2.579c-4.038 1.658-8.048 3.358-12.044 5.058 4.322-1.657 8.648-3.315 12.979-4.973.525-.156-.737-.043-.935-.085m1.176 0c.241.085.566-.156.638.085.17-.482-.354-.198-.638-.085m.595-.241c-.113-.354.085-.156 0 0m-.029-.199c-.127-.524-.977.199 0 0m-8.699 2.14c-.439.17.042 0 .212-.071.879-.255.397-.127-.212.071" fill="#080001"/><path d="m69.67 39.561c-.199-.241-.071-.652.213-1.134.594.17-.128.807-.213 1.134m-23.238-36.543-.042.043c2.862-.439 5.738-.878 8.615-1.247-1.757.453-3.5.949-5.229 1.459-1.077-.623-2.536-.283-3.712-.17.666.199 1.346.397 2.04.539-.637.184-1.289.396-1.913.553-.198.042-.368.113-.566.155.595-.015 1.187-.081 1.771-.198.099-.014.213-.043.312-.057-2.692 1.148-5.328 2.437-7.935 3.755-4.378 1.062-8.595 2.701-12.54 4.874-.078.043-.158.082-.241.114.879-.015 1.715-.043 2.494-.085-2.704 1.268-5.334 2.687-7.878 4.25-.067.074-.149.132-.241.17.907-.198 1.8-.382 2.692-.567-1.473.865-2.947 1.715-4.42 2.579-3.968 2.423-8.247 4.365-11.761 7.439-.694.765-2.111 1.459-1.785 2.664 1.048 2.352 3.755 3.315 5.214 5.341.503 1.593.629 3.282.368 4.932h-.042c10.698-1.772 21.395-3.543 32.093-5.314-3.032 1.134-6.093 2.21-9.182 3.174-.283.114-1.53.283-.85.439 4.01-.638 7.85-2.139 11.69-3.316-.085-.155-.17-.353-.27-.524.553-.085 1.106-.184 1.644-.269-.298.22-.61.419-.935.595-.765.085-.198.652-.085 1.134 1.113-.467 2.113-1.168 2.933-2.055 4.137-.68 8.289-1.36 12.426-2.054.298.481.581.949.851 1.403 1.544 2.819 3.684 5.653 6.957 6.418-1.205-1.006-2.508-1.941-3.67-2.989-1.063-.922-2.31-2.225-2.069-3.67-.283-.525-.609-1.021-.893-1.545-.141-.241-.297-.482-.453-.708.057-.156.099-.312.156-.468.34.411.793.822 1.105 1.261.453.369.61 1.289 1.219 1.289.504.038.997.163 1.459.369-.935-1.133-1.587-2.749-3.075-3.273-.481.198-.127-.326-.198-.765.474.386.893.834 1.247 1.332.368.524 1.374 1.204 1.743.326-.213-1.531-1.701-2.367-2.551-3.6.558-1.877.859-3.822.893-5.78v-.015c1.643-2.607 4.718-3.995 7.509-5.129 3.557-1.332 7.354-2.621 11.194-2.054.496-.128 1.63.807 1.417.042.283.283.609.68.17.397-.085.808.326 2.069.198 3.075.163.186.338.361.524.524.653.892 1.46-.326 2.098-.609 3.062-2.828 3.505-7.564 1.02-10.911-2.027-2.139-5.144-2.664-7.921-3.102-2.267-.454-4.732-.412-6.872-1.418-1.813-1.615-4.392-1.586-6.688-1.658-1.205-.134-2.422-.134-3.627 0-5.537.541-11.023 1.512-16.408 2.905m16.04 25.278c.028-.071.042-.128.071-.198.022.021.041.044.056.07.863.257 1.655.713 2.31 1.332.482.284-.085.043-.284.397-.41.652-.566-.113-.807-.439-.439-.354-.836-1.049-1.346-1.162m.963-8.742c-.321-.523-.903-.833-1.516-.808-3.032 0-5.908 1.332-8.657 2.551-.043-1.588 1.374-2.679 2.551-3.486.892-.199.24-1.488-.454-1.615-1.573-.043-2.749 1.416-3.797 2.465-.043-2.182 1.657-3.882 3.074-5.328-3.515-.357-7.017.84-9.578 3.273-.524.596 0-.283.198-.566 2.182-2.707 5.3-4.492 8.247-6.235-.666-.041-1.335.017-1.984.17-5.894 1.417-11.236 4.449-16.762 6.745-.454.283-.892.085-.255-.241 4.208-2.706 8.742-4.846 13.177-7.198-1.813.369-3.627.85-5.497 1.219-1.006.085-2.182.609-3.146.198 4.52-1.984 9.097-3.883 13.461-6.107-1.651.072-3.29.319-4.888.737-1.363.267-2.696.666-3.982 1.19.566-.269 1.147-.538 1.715-.793 1.516-.667 3.06-1.29 4.647-1.857.03-.003.059-.012.085-.028 6.801-2.409 14.098-3.585 21.253-2.31.641.54 1.369.967 2.154 1.262-1.398.258-2.827-.298-3.684-1.432.354.711.905 1.307 1.587 1.715.089.508.045 1.03-.127 1.516 1.657-.483 3.415-.508 5.086-.071.245.032.487.084.723.156-1.058-.258-2.095-.594-3.103-1.006-.369-.043-.425-.227-.382-.368.214-.06.419-.151.609-.269 1.932.448 3.892.77 5.866.963 2.678.567 5.781 1.006 7.566 3.344.025.049.053.096.085.141.106.34.091.706-.043 1.035-1.139-1.302-2.646-2.231-4.321-2.664-.326-.127-1.87-.453-1.219-.326 1.984.85 2.664 3.188 3.188 5.087-.354.17-1.204-.071-1.771-.071-2.337-.085-4.945-.198-6.914 1.119-.482.029-.964.057-1.431.1-3.965-.175-7.936.12-11.831.878-1.134.368-2.707.482-3.231 1.7v.043l-.042.071c.127-.808 1.02-1.049 1.657-1.247 3.817-.741 7.704-1.059 11.591-.949.635.075 1.276.08 1.912.014 2.848-.071 5.923-.581 8.615.453.247.125.417.364.454.638-2.707-1.261-5.895-.822-8.743-.029-3.425.816-6.7 2.164-9.706 3.996-.931.6-1.755 1.352-2.437 2.225m21.991-2.452c-.071.369-.581.142-.185.071 0-.042.015-.085.015-.127.054.025.111.044.17.056m-15.543 21.325s.198-.482.112-.283c-.042.283-.85-.326-.112.283m-.412-.368c-2.947-.553-4.93-3.061-6.305-5.526.283-.213 1.459-.043.808.155-.723-.085-.68.284-.156.652.508.134.942.466 1.204.921 1.366 1.397 2.855 2.668 4.449 3.798m-4.93-4.436c-.199-.24-.326-1.218 0-.524.198.312.694.766 0 .524m.439.071c.17 0 .042.171 0 0m.085.043c.368-.354.807-.85 1.048-.85-.326.212-.637 1.048-1.048.85m.807-.807c-.085-.156.411-.242 0 0m0-.086c-.085.086-.042-.028 0 0m-.042 0c-.241-.241.17-.07 0 0m-1.488-.07c-.17-.086 0-.128 0 0m-.085-.086c.043-.085.241-.042 0 0m-30.633 5.172c.439.043.325 1.176.283.453.113-.325-.78-.495-.283-.453m-.171 0c-.113 0-.155-.042 0 0m11.647-3.188c.638.482-.453.609-.694.921-.577.455-1.199.849-1.856 1.176-.114-.481-1.374-.241-.524-.524 1.048-.482 1.984-1.176 3.074-1.573m-2.465 2.14c-.609.694-.128.127 0 0m-.453.368c-.241.326-.397.156 0 0m.538-.213c.971-.579 1.996-1.062 3.06-1.445.284.964.241 0-.198.326-.963.638-2.026 1.374-2.904 2.055.148-.291.164-.633.042-.936m0 .893c-.042 0-.042-.042 0 0" fill="#080001"/><path d="m9.607 45.582c9.054-4.406 19.043-6.461 28.99-7.921 11.194-1.511 22.484-2.203 33.779-2.068v-4.477c-2.706.439-5.37 1.133-8.119 1.459-1.459.029-1.984-1.63-1.743-2.834.128-1.983-.07-4.01.213-5.979.638-1.545 2.579-1.417 3.911-1.942 2.437-.651 4.775-1.501 7.197-2.026 1.659.085 1.857 2.14 1.857 3.444.076.683.066 1.373-.029 2.054-1.133.283-2.267.609-3.4.893-.043-.567.156-1.417-.043-1.828-2.267.567-4.562 1.133-6.872 1.658-.018.814.01 1.627.085 2.437 2.792-.567 5.569-1.417 8.402-1.743 1.502-.085 2.268 1.53 2.069 2.834 0 2.493.241 5.086 0 7.594-.652 1.531-2.635 1.247-3.925 1.006-12.653-1.53-25.419-.198-37.916 1.941-8.614 1.517-17.13 3.543-25.504 6.065.368-.198.679-.368 1.048-.567" fill="#fff"/><path d="m9.607 45.582c9.054-4.406 19.043-6.461 28.99-7.921 11.194-1.511 22.484-2.203 33.779-2.068v-4.477c-2.706.439-5.37 1.133-8.119 1.459-1.459.029-1.984-1.63-1.743-2.834.128-1.983-.028-3.967.213-5.908.595-1.573 2.621-1.488 3.996-2.055 2.38-.652 4.732-1.502 7.112-1.984 1.659.085 1.857 2.14 1.857 3.444.076.683.066 1.373-.029 2.054-1.133.283-2.267.609-3.4.893-.043-.567.156-1.417-.043-1.828-2.267.567-4.562 1.133-6.872 1.658-.018.814.01 1.627.085 2.437 2.792-.567 5.569-1.417 8.402-1.743 1.502-.085 2.268 1.53 2.069 2.834 0 2.493.241 5.086 0 7.594-.652 1.531-2.635 1.247-3.925 1.006-12.653-1.53-25.419-.198-37.916 1.941-8.614 1.517-17.13 3.543-25.504 6.065.368-.198.679-.368 1.048-.567" fill="#fff"/><path d="m61.664 34.63c.054-.672.178-1.337.369-1.983 2.592.41 5.383.765 7.877-.327.497-.07 1.347-.566 1.588-.198.085.875.109 1.756.07 2.636-3.315-.043-6.588-.085-9.904-.128" fill="#180f19"/><path d="m63.449 33.624c-.935.113.567-.694.326.043-.042.354.283 1.445-.284 1.119.007-.388-.007-.776-.042-1.162" fill="#fff"/><path d="m64.866 34.828c-.651-.397 1.049-.156.766-.637-.61.24-1.658 0-1.134-.78.524-.241 1.743-.354 1.544.567 0 .651-.651.893-1.176.85m.482-.85c.808 0 .128-.723-.369-.439-.679.155-.07.652.369.439" fill="#fff"/><path d="m66.637 34.715c-.439-.524.17-.411.453-.284.567.242.964-.524.241-.41-.807-.156.369-.114.326-.44-.241-.326-1.176.156-1.048.043-.539-.411.552-.496.921-.453.609-.199.41.807.241.736.609.156.169 1.049-.397.808-.245.021-.491.021-.737 0" fill="#fff"/><path d="m69.755 33.34c-.524-.042-1.048.042-1.134.354-.566-.396.128-.723.652-.595.524-.085 1.204-.085.638.567-.198.354-.525 1.247-.878.921.24-.397.481-.85.722-1.247" fill="#fff"/><path d="m77.477 22.784c-.609-.326-.369-1.459-1.29-1.417-1.133-.156-2.55.652-3.315.935 1.091-1.785 2.99-3.641 5.257-3.159 1.289.892.878 3.443-.652 3.641" fill="#908b91"/><path d="m77.193 22.983c-.567-.44-.439-1.573-1.417-1.403-.766.045-1.519.222-2.224.524.567-1.091 2.069-1.218 3.117-.85.482.284.567 1.445 1.205 1.204.627-.484.994-1.233.994-2.025 0-.57-.19-1.123-.541-1.573 1.289.609 1.246 2.55.482 3.556-.36.515-1.013.744-1.616.567m-3.16-1.573c.978-1.091 2.395-2.097 3.926-1.771-1.531-.496-3.076.481-4.124 1.53-.524.482-.397.567.198.241m-.637.241c-.198.453-.695.765-.765.368.241-.127.524-.241.765-.368m-.524.652c-.085.042.155.042 0 0m.042.042c.071 0 .241.354.312.156.496-.525.17-.354-.312-.156" fill="#180f19"/><path d="m77.675 21.452c-1.374-.567-3.117-1.134-4.449-.369 1.4-1.009 3.331-.908 4.619.241.029.128-.085.171-.17.128" fill="#fff"/><path d="m58.802 30.662c.048-1.084.171-2.163.369-3.231.85-.326 1.685-.609 2.493-.92v5.455c-.963-.411-1.927-.851-2.862-1.304" fill="#180f19"/><path d="m23.308 30.308c.649-.027 1.299.011 1.941.114 1.006 2.55 1.984 5.101 2.99 7.637-.606.188-1.227.326-1.856.411-.369-.482-.326-1.701-1.176-1.29-1.134.284-2.381.355-3.472.723-.566.694-.651 2.026-1.742 1.983-.596.114-1.162.241-1.772.369 1.701-3.316 3.387-6.632 5.087-9.947m1.743 5.002c-.326-.879-.652-1.729-.978-2.622-.439.978-.835 1.941-1.247 2.877.723-.085 1.502-.17 2.225-.255" fill="#f7f7f9"/><path d="m6.532 33.454c-.241-1.856-.482-3.67-.722-5.54 3.877-1.637 7.863-3.001 11.93-4.081 2.097-.68 3.868-2.182 5.781-3.386 1.008-.762 2.058-1.467 3.145-2.112.284 1.091.524 2.834 1.899 2.99 2.225-.524 4.279-1.686 6.504-2.182 1.133.694 1.502 2.182 2.508 3.075 2.243 1.88 4.787 3.369 7.524 4.406.524.128 1.247.284.439.737-4.449 2.735-9.168 5.002-13.815 7.396-3.642.879-7.326 1.928-10.953 2.749-4.732-1.345-9.508-2.72-14.24-4.052" fill="#fff"/><path d="m25.774 22.699c-1.332-.071-.765-1.686-.326-2.38.403-.793.892-1.539 1.46-2.225-.103 1.238.432 2.446 1.417 3.202-.358 1.052-1.472 1.665-2.551 1.403" fill="#908b91"/><path d="m39.801 24.641c-1.658-.241-3.429-.198-4.931-1.049.128-.155 1.049-.155 1.176-.722.326-.893-.609-2.069-.893-2.508 1.46 1.743 3.033 3.754 5.342 4.321.397.043-.609-.043-.694-.043" fill="#908b91"/><path d="m28.324 22.543c.369-.241.482-1.091.609-1.176.199.411.765-.241.284.453-.128.241-.978.851-.893.723" fill="#908b91"/><path d="m15.189 24.683c1.741-.741 3.519-1.389 5.328-1.941-.766.283-1.687 1.417-.567 1.941.255.17 1.303.411.496.283-2.182-.174-4.376-.117-6.546.17.439-.17.878-.325 1.289-.453" fill="#908b91"/><path d="m6.419 27.559c4.52-2.466 9.777-3.202 14.226-5.866 2.298-1.242 4.513-2.633 6.631-4.165.397 1.218.723 3.074 2.267 3.315 2.139 0 3.84-2.012 6.022-1.771.878.595 1.247 1.729 2.097 2.38 1.464 1.701 3.322 3.02 5.412 3.84 1.304.567 2.636 1.006 3.925 1.502-4.534-1.02-8.969-3.287-11.604-7.156-1.332-.283-2.551.766-3.798 1.163-1.175.524-2.862 1.345-3.839.042-.512-.648-.923-1.369-1.219-2.14-4.081 3.684-9.295 5.696-14.552 7-2.097.637-4.151 1.445-6.177 2.21.198-.113.411-.241.609-.354" fill="#908b91"/><path d="m17.414 38.229c-.326-.567.042-.893.524-1.133.61-.567.567-.156.369.439-.17.694 0 .978-.893.694" fill="#180f19"/><path d="m22.217 28.324c.791-.655 1.629-1.252 2.508-1.785.66.606 1.28 1.255 1.856 1.941-1.445-.028-2.904-.071-4.364-.156" fill="#fff"/><path d="m39.319 25.859c.465.396.883.843 1.247 1.332-.878.085-1.771.127-2.664.198.482-.524.935-1.006 1.417-1.53" fill="#fff"/><path d="m38.597 35.437c.884-.104 1.775-.133 2.664-.085.155.524.198 1.02-.482.978-1.02.283-2.026.524-3.032.808z" fill="#180f19"/><path d="m42.309 47.056.326-1.176.694-.014.34 1.176 5.384-.114.553-2.281 2.366-.113c1.431-.057 1.701-.794 1.729-3.004l.099-1.431 7.68.354c3.765.145 7.515.557 11.221 1.233l-.183-.043c.042.015.255.071.566.142.417.077.838.129 1.261.156.393.01.787-.014 1.176-.071.346-.049.685-.145 1.006-.284.287-.12.555-.282.794-.481.432-.329.773-.763.991-1.261.233-.546.354-1.134.355-1.729.014-.255.014-.538.014-.864 0-1.375-.028-3.316-.071-4.931-.028-1.615-.056-2.89-.056-2.89v-.015c-.008-.233-.037-.465-.086-.694-.049-.336-.139-.664-.269-.978l-.241-.439.525.028-.142-4.746v.042c-.001-.227-.015-.454-.042-.68-.043-.347-.105-.693-.185-1.034-.089-.332-.198-.659-.326-.978-.103-.281-.241-.547-.411-.793-.284-.456-.66-.847-1.105-1.148-.491-.331-1.066-.518-1.658-.539-.392-.023-.786.025-1.161.142-2.395.638-9.083 2.48-9.083 2.48l.128-.043c-.071.015-.27.071-.524.156-.247.095-.485.214-.709.354-.242.142-.466.314-.666.511l-11.038 3.089v.198c-.141-.029-.269-.043-.397-.057-.276-.008-.551.015-.821.071l-.028.014h-.015s-.878.213-1.856.467c-.496.128-1.02.27-1.487.383-.228.071-.44.114-.624.17-.184.043-.354.099-.482.142h-.014c-.437.125-.839.348-1.176.652-.223.218-.413.466-.567.736-.188.315-.317.661-.382 1.021-.039.597.048 1.196.254 1.757v.014h-.013v-.014c-.312-.723-.822-1.871-1.602-3.571-15.571.765 3.09-.156-3.825.198l-.949 1.885c-.135-.272-.312-.52-.525-.737-.173-.176-.368-.328-.581-.453-.246-.135-.508-.24-.779-.312-.185-.048-.376-.072-.567-.071-.227-.014-.382 0-.468 0 .992-.014 1.687-.028-6.404.099l-.141 3.217-1.063-2.976-4.379-.311c-.311.68-2.408 6.772-2.408 4.137.003-.356-.03-.713-.099-1.063-.138-.585-.404-1.132-.78-1.601-.237-.272-.514-.506-.822-.694-.31-.207-.656-.356-1.02-.439-.175-.048-.356-.072-.538-.071l.198.014-10.598-1.771-1.913 18.788c-1.435 1.057-2.721 2.3-3.826 3.698l-.864 1.12 1.374.028c1.878-.029 3.749-.248 5.583-.652 1.19-.241 2.168-.482 2.635-.609l.015.014h.014c.368-.113 7.254-2.154 17.087-4.052 1.233-.227 6.334-1.233 7.652-1.46l-1.02 3.458c-.425 1.572.085 2.111 1.7 2.026z" fill="#908b91"/><path d="m35.225 42.196c.014-.368.311-.737.878-1.091-1.743.283-7.51 1.332-9.097 1.629-9.734 1.871-16.535 3.911-16.918 4.024h-.014c-1.006.326-1.771.524-2.423.667-.113.028-.212.056-.311.07l-5.952.638c1.207-1.542 2.693-2.844 4.379-3.84l1.374-18.378 9.989 1.659h-.127c.182.01.363.038.539.085.37.108.716.286 1.019.524.285.24.521.534.695.864.267.532.403 1.12.396 1.715 0 .651-.028 1.331-.07 1.983-.057.638-.114 1.233-.199 1.771-.06.327-.145.649-.255.963l3.925-8.132 3.585.255 1.941 5.455.255-5.682 6.291-.099c.222.003.442.041.652.113.325.111.621.295.864.538.2.215.367.459.496.723.153.383.23.793.227 1.205v.156l1.53-3.061 3.089-.156 2.196 4.718c.029-.921.043-1.813.057-2.366l.071-1.077c.055-.285.16-.558.311-.807.117-.218.271-.415.454-.581.274-.253.604-.437.963-.539.242-.071.638-.17 1.092-.297.453-.114.977-.255 1.459-.383.992-.241 1.856-.467 1.87-.467h.015c.227-.056.461-.075.694-.057.241.007.48.05.708.128.085.028.184.07.284.113l.013-.525 10.896-3.06v.042c.302-.282.66-.499 1.05-.637l9.308-2.565c.318-.087.648-.125.978-.113.317.013.63.085.921.213.286.119.55.287.779.495.39.38.694.839.893 1.346.113.276.203.561.269.851.075.303.132.611.17.921.026.202.041.405.043.609v-.028l.127 4.165-.864.256c.184.084.397.382.652.92.106.265.181.541.226.822.038.192.062.386.071.581v.014s.029 1.247.057 2.834.071 3.5.071 4.846c0 .326 0 .609-.014.85.006.493-.096.981-.298 1.431-.184.4-.455.753-.793 1.034-.211.151-.433.284-.666.397-.276.106-.561.187-.851.241-.351.053-.707.072-1.062.057-.562-.028-1.119-.123-1.658-.283l.113.028c-3.684-.669-7.41-1.081-11.151-1.233-4.406-.184-12.936-.397-8.94-.113.085.227.566.141.623.524l-.043 1.842c.143 1.218-.354 1.785-.977 1.913l-3.33.227-.212 2.266-4.336.128-.439-1.346-1.503.156-.594 1.204-6.036.34c-1.488.071-1.757-.297-1.318-1.87.198-.864.694-1.899.893-2.763m-23.436.567c.992-.454 2.012-.879 3.074-1.276l-2.578-2.989-.128.028zm10.995-3.755c.765-.199 1.53-.383 2.31-.553.184-.056.382-.099.581-.141l-.142-.369-2.395.383z" fill="#080001"/><path d="m35.225 42.196c.014-.368.311-.737.878-1.091-1.743.283-7.51 1.332-9.097 1.629-9.734 1.871-16.535 3.911-16.918 4.024h-.014c-1.006.326-1.771.524-2.423.667-.113.028-.212.056-.311.07l-5.952.638c1.207-1.542 2.693-2.844 4.379-3.84l1.374-18.378 9.989 1.659h-.127c.182.01.363.038.539.085.37.108.716.286 1.019.524.285.24.521.534.695.864.267.532.403 1.12.396 1.715 0 .651-.028 1.331-.07 1.983-.057.638-.114 1.233-.199 1.771-.06.327-.145.649-.255.963l3.925-8.132 3.585.255 1.941 5.455.255-5.682 6.291-.099c.222.003.442.041.652.113.325.111.621.295.864.538.2.215.367.459.496.723.153.383.23.793.227 1.205v.156l1.53-3.061 3.089-.156 2.196 4.718c.029-.921.043-1.813.057-2.366l.071-1.077c.055-.285.16-.558.311-.807.117-.218.271-.415.454-.581.274-.253.604-.437.963-.539.242-.071.638-.17 1.092-.297.453-.114.977-.255 1.459-.383.992-.241 1.87-.467 1.87-.467h.015c.227-.056.461-.075.694-.057.241.007.48.05.708.128.085.028.184.07.284.113l.013-.525 10.896-3.06v.042c.302-.282.66-.499 1.05-.637l9.308-2.565c.318-.087.648-.125.978-.113.317.013.63.085.921.213.286.119.55.287.779.495.39.38.694.839.893 1.346.113.276.203.561.269.851.075.303.132.611.17.921.026.202.041.405.043.609v-.028l.127 4.165-.864.256c.184.084.397.382.652.92.106.265.181.541.226.822.038.192.062.386.071.581v.014s.029 1.247.057 2.834.071 3.5.071 4.846c0 .326 0 .609-.014.85.006.493-.096.981-.298 1.431-.184.4-.455.753-.793 1.034-.211.151-.433.284-.666.397-.276.106-.561.187-.851.241-.351.053-.707.072-1.062.057-.562-.028-1.119-.123-1.658-.283l.113.028c-3.684-.669-7.41-1.081-11.151-1.233-4.406-.184-12.936-.397-8.94-.113.085.227.566.141.623.524l-.043 1.842c.143 1.218-.354 1.785-.977 1.913l-3.33.227-.212 2.266-4.336.128-.439-1.346-1.503.156-.594 1.204-6.036.34c-1.488.071-1.757-.297-1.318-1.87.198-.864.694-1.899.893-2.763zm-23.436.567.368-4.237.128-.028 2.578 2.989c-1.062.397-2.082.822-3.074 1.276zm10.995-3.755.354-.68 2.395-.383.142.369c-.199.042-.397.085-.581.141-.78.17-1.545.354-2.31.553z" fill="none" stroke="#080001" stroke-width=".04"/><path d="m11.307 34.062.227-2.932 4.279.24s.736-.028.709.652c-.029.695-.085 1.105-.085 1.105.003.028.005.055.005.083 0 .362-.295.662-.658.669-.708.042-4.477.183-4.477.183m4.747 2.296.482-.056c.709-.141 1.269-.695 1.417-1.403.328-1.393.476-2.821.438-4.251.009-.066.013-.131.013-.197 0-.777-.599-1.433-1.372-1.503l-8.672-1.445-1.672 16.082 3.854-1.374.439-4.959 1.772-.341 3.004 3.458 2.748-.878z" fill="#fff"/><path d="m23.365 34.53 1.261-3.089 1.006 2.891zm2.409-5.625-1.899-.128-5.115 10.67 2.522-.453 1.035-2.027 4.038-.651.623 1.615 1.856-.44z" fill="#fff"/><path d="m34.672 31.526s.071.326-.354.425c-.44.085-2.636.27-2.636.27l.071-1.701 2.593-.141s.397-.086.397.297c-.005.285-.029.569-.071.85m.34-2.862-4.889.057-.382 8.685 1.686-.311.156-2.99s2.04-.255 3.16-.382c.656-.113 1.151-.667 1.19-1.332.039-.664.156-1.347.17-2.622s-1.091-1.105-1.091-1.105" fill="#fff"/><path d="m39.248 32.787 1.091-2.408.921 2.153zm2.012-4.562-1.488.057-4.08 8.104 1.856-.255.822-1.502 3.584-.368.652 1.374 1.955-.311z" fill="#fff"/><path d="m45.61 28.197c-.01-.527.342-.997.85-1.134.893-.283 4.379-1.133 4.379-1.133.102-.031.209-.047.315-.047.589 0 1.073.484 1.073 1.073v.022c.071 1.361.028 2.126.028 2.126l-1.841.227.013-1.191-3.286.61-.1 4.42 3.273-.311.057-1.616 1.828-.255.028 2.296v.018c0 .837-.689 1.526-1.526 1.526-.01 0-.021 0-.032 0-1.559.071-4.11.227-4.11.227s-1.19.326-1.105-1.531c.071-1.842.156-5.327.156-5.327" fill="#fff"/><path d="m53.489 25.717-.212 9.267 8.26.057.042-2.749-6.404.396.043-1.856 3.471-.524.028-2.154-3.443.623.071-1.431 6.362-1.431.056-2.508z" fill="#fff"/><path d="m73.056 26.397 3.485-.822-.099-3.075s-.014-3.599-2.423-2.961c-2.38.652-9.068 2.48-9.068 2.48-.932.247-1.589 1.091-1.601 2.054 0 2.097-.113 6.334-.113 6.334s-.284 3.075 2.607 2.593c2.876-.482 7.311-1.19 7.311-1.19v4.931s-42.394-3.005-64.101 8.742c0 0 36.613-11.095 63.945-5.951 0 0 3.755 1.133 3.798-1.616.028-2.252-.128-8.586-.128-8.586 0-.003 0-.006 0-.009 0-1.269-1.044-2.314-2.314-2.314-.209 0-.417.028-.619.084-2.877.496-7.623 1.531-7.623 1.531v-2.678l6.985-1.545-.042 1.857z" fill="#fff"/><path d="m42.295 43.995 1.006-1.842.496 1.644zm1.7-3.117-1.048.142-2.82 5.157h.992l.581-1.147 2.423-.227.396 1.261 1.431-.043z" fill="#fff"/><path d="m42.295 43.995 1.006-1.842.496 1.644zm1.7-3.117-1.048.142-2.82 5.157h.992l.581-1.147 2.423-.227.396 1.261 1.431-.043z" fill="none" stroke="#080001" stroke-width=".04"/><path d="m51.066 41.898c-.014.51-.426.51-.426.51l-2.451.185.071-1.233s1.7-.213 2.296-.255c.595-.043.51.354.51.354s.014-.085 0 .439m1.36.326s-.014-.213-.043-1.318c-.014-1.119-1.176-.907-1.176-.907l-4.052.539-.567 5.441 1.247-.043.241-2.21s2.607-.184 3.542-.298c.907-.099.808-1.204.808-1.204" fill="#fff"/><path d="m51.066 41.898c-.014.51-.426.51-.426.51l-2.451.185.071-1.233s1.7-.213 2.296-.255c.595-.043.51.354.51.354s.014-.085 0 .439zm1.36.326s-.014-.213-.043-1.318c-.014-1.119-1.176-.907-1.176-.907l-4.052.539-.567 5.441 1.247-.043.241-2.21s2.607-.184 3.542-.298c.907-.099.808-1.204.808-1.204z" fill="none" stroke="#080001" stroke-width=".04"/><path d="m35.579 46.376c.241-.014.51 0 .822-.014.694-.028 1.644-.057 2.692-.085.532-.103.952-.518 1.062-1.049.284-1.077.482-1.997.482-1.997l-2.933.226-.184.893 1.672-.042-.227.935-3.032.141.737-2.706 2.947-.312-.099.525 1.19-.1.17-.708c.004-.031.006-.063.006-.094 0-.357-.293-.65-.65-.65-.055 0-.11.007-.163.021-.879.114-3.358.411-3.358.411-.423.014-.803.267-.978.652l-.85 3.018c-.046.09-.069.19-.069.291 0 .358.295.653.653.653.037 0 .073-.003.11-.009" fill="#fff"/><path d="m35.579 46.376c.241-.014.51 0 .822-.014.694-.028 1.644-.057 2.692-.085.532-.103.952-.518 1.062-1.049.284-1.077.482-1.997.482-1.997l-2.933.226-.184.893 1.672-.042-.227.935-3.032.141.737-2.706 2.947-.312-.099.525 1.19-.1.17-.708c.004-.031.006-.063.006-.094 0-.357-.293-.65-.65-.65-.055 0-.11.007-.163.021-.879.114-3.358.411-3.358.411-.423.014-.803.267-.978.652l-.85 3.018c-.046.09-.069.19-.069.291 0 .358.295.653.653.653.036 0 .073-.003.11-.009z" fill="none" stroke="#080001" stroke-width=".04"/><path d="m4.237 45.781c-1.46 0-1.785-1.573-1.984-2.707-.117-.284-.177-.587-.177-.894 0-.955.582-1.82 1.466-2.18.211-.175.476-.272.749-.272.501 0 .948.322 1.108.796.953 1.368 1.195 3.114.65 4.69-.367.609-1.203.567-1.812.567" fill="#48a1d6"/><path d="m4.279 46.192c-1.204-.081-2.167-1.062-2.224-2.267-.454-1.374-.525-3.231.963-3.996.299-.287.698-.448 1.113-.448.608 0 1.166.344 1.438.888 1.039 1.451 1.134 3.384.241 4.93-.44.241-.44-.113-.128-.326.591-1.579.281-3.361-.808-4.647-1.289-.964-2.947.652-2.777 2.069.071 1.374.283 3.273 1.856 3.669.516.129 1.057.129 1.573 0-.398.149-.827.193-1.247.128" fill="#180f19"/><path d="m4.633 44.491c-1.729-.113-2.012-3.231-.283-3.557.694.284.411 1.503 1.331 1.531 1.054.119 2.12-.062 3.075-.524-.85 1.416-2.338 2.791-4.123 2.55" fill="#908b91"/><path d="m3.712 44.534c-1.374-.935-1.176-3.798.723-3.882.694.609.935 1.983 2.097 1.742.496.043 1.346-.241 1.615-.212-.553.821-1.814.736-2.664.496-.85-.128-.609-1.658-1.459-1.46-1.162.723-.765 2.381-.27 3.316zm4.081-1.899c-.821 1.123-2.251 1.635-3.599 1.29 1.246.462 2.655.125 3.556-.851.369-.325.808-.807.043-.439m.524-.17c.369-.283.397-.595-.128-.354.213-.567.525-.085.737.198-.085-.156-.368.156-.609.156" fill="#180f19"/><path d="m5.569 42.465c-.765-.198-.17-1.771-1.29-1.488-.694.241-.694-.241-1.062-.609-.766.198-.114-.085.254-.326.637-.439 1.728-.68 1.9.369.198.609.764 1.289.721 1.898-.139.133-.334.191-.524.156" fill="#180f19"/><path d="m5.2 43.925c-.567-.085-1.531-.369-1.488-1.006 1.042.754 2.454.771 3.514.043.652-.567.085.155-.241.354-.495.424-1.134.642-1.785.609" fill="#fff"/><path d="m2.862 39.121c-1.261-.369-.694-1.983-1.091-2.918-.241-.397.043-1.53.567-1.204.529 1.292.882 2.651 1.048 4.038-.171.047-.347.076-.524.085" fill="#48a1d6"/><path d="m4.279 33.298c-1.176.042-1.544-1.219-1.459-2.182-.085-.411.241-1.332.68-.652.524.935 1.02 1.856 1.544 2.791-.253.036-.509.05-.765.043" fill="#48a1d6"/><path d="m3.755 38.909c-.009 0-.017 0-.025 0-1.03 0-1.878-.847-1.878-1.877 0-.117.011-.233.033-.348-.156-1.247.17-2.947 1.657-3.145.174-.113.378-.173.585-.173.555 0 1.023.428 1.073.98.642 1.436.492 3.108-.396 4.407-.284.241-.737.156-1.049.156" fill="#48a1d6"/><path d="m3.627 39.362c-1.188-.088-2.118-1.089-2.118-2.28 0-.105.007-.209.021-.313-.17-1.332.113-3.075 1.686-3.471.23-.136.493-.208.76-.208.714 0 1.333.513 1.465 1.214.496 1.417.411 3.358-.851 4.364-.722.042.284-.482.256-.85.439-1.247.722-3.032-.369-4.039-1.332-.68-2.663.766-2.663 2.069-.171 1.204-.128 2.749 1.161 3.273.402.159.829.241 1.261.241z" fill="#180f19"/><path d="m5.002 33.255c-1.052 0-1.918-.866-1.918-1.918 0-.088.006-.176.019-.264-.198-1.247.043-2.947 1.573-3.23.176-.105.377-.16.582-.16.544 0 1.016.39 1.118.925.651 1.426.527 3.091-.326 4.406-.283.284-.679.199-1.048.241" fill="#48a1d6"/><path d="m4.917 33.666c-1.219-.05-2.193-1.066-2.193-2.286 0-.074.003-.148.011-.222-.156-1.332.042-3.117 1.573-3.528.242-.16.526-.246.817-.246.7 0 1.308.496 1.45 1.181.567 1.417.524 3.358-.723 4.407-.694.042.241-.44.241-.808.411-1.289.652-3.117-.482-4.123-1.374-.652-2.678.85-2.635 2.182-.113 1.218-.043 2.749 1.303 3.231.398.148.824.206 1.247.169-.201.036-.405.051-.609.043" fill="#180f19"/><path d="m5.285 31.725c-1.332-.453-1.53-2.961 0-3.202 1.814-.071 3.231 1.374 4.166 2.833-1.049-.438-2.31-1.26-3.401-.651-.368.283-.156 1.091-.765 1.02" fill="#908b91"/><path d="m5.243 31.838c-1.22-.369-1.461-2.621-.156-2.947-.28.31-.435.712-.435 1.129 0 .549.269 1.065.719 1.379.161-.662.758-1.131 1.44-1.131.227 0 .452.052.657.153.608.128 1.5.737 1.855.808-.807-1.686-2.707-3.344-4.519-3.032 2.096-.44 4.08 1.346 4.846 3.032-.369.368-.327.567-.724.24-.85-.311-1.984-1.09-2.791-.438-.199.368-.326.935-.893.807" fill="#180f19"/><path d="m3.5 37.535c-.723-.525-.567-1.687-.397-2.494.369-.935 1.531-.326 1.984.114.964.198 1.898.368 2.862.566-1.389.304-2.697.898-3.84 1.743-.186.103-.405.128-.609.071" fill="#908b91"/><path d="m3.67 37.988c-1.29-.198-1.134-1.856-.978-2.833.17-1.247 1.899-1.134 2.508-.284.85.198 1.743.411 2.55.609-.697.226-1.451.211-2.139-.042-.808-.156-1.658-1.53-2.465-.609-.435.796-.497 1.746-.17 2.593.368.722 1.261.566 1.827.156-.316.268-.718.414-1.133.41m3.103-2.267c-.971.144-1.866.614-2.536 1.332.998-.429 2.038-.752 3.103-.963.85-.129-.284-.241-.567-.369m.977.241c.199.128.199-.085 0 0m.128 0c.113-.326-.128-.567 0 0" fill="#180f19"/><path d="m4.959 34.871c-.457-.423-1.083-.616-1.7-.524-.284-.397-1.417.566-.921-.198.544-.593 1.339-.894 2.139-.808.406.477.645 1.074.68 1.7-.072-.05-.138-.107-.198-.17" fill="#180f19"/><path d="m3.188 29.132c.319-.98 1.265-1.629 2.295-1.573.482.113 1.29 1.176.369 1.134-.544.2-1.135.239-1.701.113-.325-.113-1.133.808-.963.326" fill="#180f19"/><path d="m8.601 30.747c-.241-.283-.085-.085 0 0m-.17-.198c-1.15-.3-2.328-.476-3.514-.524 1.17-.527 2.547-.322 3.513.524" fill="#fff"/><path d="m3.429 36.529c-.525-.369.85-.439 1.134-.482.895-.144 1.799-.225 2.706-.241-1.234.44-2.53.684-3.84.723" fill="#fff"/><path d="m80.226 31.399c-.722-.085-.042-1.049-.085-1.545.132-1.177.503-2.314 1.091-3.343.736.24.694 1.289.411 1.898-.283 1.006.199 3.103-1.417 2.99" fill="#48a1d6"/><path d="m78.284 24.612c-.694 0 .283-.893.326-1.303.567-.723.722-1.857 1.53-2.296.695.68.326 1.941.127 2.777-.326.779-1.261.85-1.983.822" fill="#48a1d6"/><path d="m78.851 31.201c-1.29-.213-1.417-1.87-1.544-2.961-.125-1.227.26-2.452 1.062-3.387.214-.056.434-.085.655-.085 1.356 0 2.493 1.069 2.576 2.423-.042 1.29.326 3.16-1.177 3.755-.497.204-1.035.291-1.572.255" fill="#48a1d6"/><path d="m78.681 31.598c-1.686-.326-1.729-2.38-1.771-3.755-.128-1.502.85-3.315 2.551-3.202 1.771.241 2.295 2.267 2.011 3.811-.042 1.006-.439 2.211-1.657 2.296-.241.042-1.247-.043-.525-.043.047.004.094.006.142.006.925 0 1.686-.762 1.686-1.687 0-.006 0-.013 0-.019.241-1.374.156-3.386-1.544-3.755-.168-.117-.368-.179-.573-.179-.502 0-.932.375-1 .873-.794 1.629-.735 3.55.156 5.129.042.284 1.218.567.524.525" fill="#180f19"/><path d="m77.477 24.569c-1.374-.128-1.459-1.87-1.544-2.918-.127-1.265.284-2.526 1.133-3.471.186-.042.376-.063.566-.063 1.383 0 2.535 1.104 2.594 2.486-.085 1.289.241 3.188-1.29 3.754-.47.156-.964.228-1.459.213" fill="#48a1d6"/><path d="m77.151 24.966c-1.657-.397-1.615-2.466-1.657-3.84-.086-1.487.977-3.273 2.663-3.103 1.785.269 2.267 2.381 1.899 3.911-.071 1.02-.553 2.111-1.729 2.182-.241.043-1.261-.071-.482-.043.05.005.101.007.152.007.92 0 1.683-.744 1.705-1.664.283-1.375.24-3.387-1.417-3.84-.179-.119-.388-.183-.603-.183-.501 0-.94.347-1.055.834-.794 1.635-.779 3.551.042 5.172 0 .241 1.205.61.482.567" fill="#180f19"/><path d="m79.418 29.614c-.978-.241-1.615-1.204-2.663-1.417-.728-.283-1.47-.525-2.225-.723 1.214-.2 2.415-.47 3.599-.807.524-.808 2.139-.851 2.182.326 0 .85.241 2.096-.609 2.621z" fill="#908b91"/><path d="m78.129 29.458c-1.106-.669-2.292-1.198-3.529-1.572-.198-.043-.282-1.021.242-.808 1.346-.255 2.749-.085 3.967-.893 1.176-.524 1.615 1.006 1.289 1.856.043.652-.524 1.701-1.133.893.567.524.935-.17.893-.737.127-.638.042-2.055-.922-1.658-1.072.685-2.328 1.026-3.598.978-.369-.283-1.02-.199-.411.156.935-.284 1.828.524 2.635.935.198.128.921.68.567.85" fill="#180f19"/><path d="m77.803 26.383c.198-.765.567-2.182 1.615-1.615.765.085 1.701.396 1.899 1.289-.441-.304-1.008-.363-1.502-.156-.765-.368-1.658.567-2.054.765.031-.091.046-.187.042-.283" fill="#180f19"/><path d="m79.942 19.88c-.536-.49-1.307-.633-1.983-.369-.482-.198-1.205-.198-1.488-.481.103-.652.67-1.136 1.33-1.136.323 0 .635.116.88.328.799.266 1.371.977 1.46 1.814-.058-.063-.125-.115-.199-.156" fill="#180f19"/><path d="m79.446 29.472c-1.409-.641-2.764-1.395-4.053-2.253 1.46.524 3.075.921 4.209 2.055.085.127.042.24-.156.198" fill="#fff"/><path d="m78.072 22.515c1.332-.453 1.53-2.947 0-3.188-1.814-.085-3.231 1.375-4.166 2.819 1.049-.439 2.31-1.246 3.401-.637.368.283.156 1.091.765 1.006" fill="#908b91"/><path d="m78.114 22.629c1.204-.354 1.459-2.621.156-2.947.281.309.436.711.436 1.129 0 .549-.269 1.065-.72 1.379-.157-.658-.75-1.126-1.427-1.126-.233 0-.462.055-.67.162-.633.233-1.253.503-1.856.808.808-1.701 2.707-3.358 4.52-3.032-2.097-.454-4.081 1.331-4.846 3.032.369.354.326.567.723.241.85-.326 1.984-1.091 2.791-.454.199.369.326.936.893.808" fill="#180f19"/><path d="m74.756 21.537c.241-.283.085-.07 0 0m.17-.198c1.151-.294 2.328-.469 3.514-.524-1.171-.527-2.548-.322-3.514.524" fill="#fff"/><path d="m79.531 38.285c1.46 0 1.785-1.587 1.984-2.72.12-.285.182-.591.182-.9 0-.952-.586-1.812-1.472-2.161-.21-.174-.475-.27-.748-.27-.5 0-.947.321-1.108.794-.955 1.368-1.197 3.114-.651 4.69.368.595 1.218.567 1.813.567" fill="#48a1d6"/><path d="m79.503 38.682c1.2-.09 2.157-1.066 2.225-2.267.438-1.375.524-3.231-.978-3.996-.299-.287-.699-.448-1.113-.448-.608 0-1.166.345-1.438.888-1.033 1.453-1.127 3.383-.24 4.93.453.241.453-.113.127-.311-.585-1.584-.276-3.367.808-4.662 1.289-.964 2.947.652 2.791 2.069-.085 1.374-.283 3.273-1.87 3.684-.518.115-1.055.115-1.573 0 .405.137.838.176 1.261.113" fill="#180f19"/><path d="m79.135 36.982c1.743-.113 2.026-3.231.283-3.557-.694.284-.411 1.503-1.331 1.545-1.054.104-2.116-.077-3.075-.524.85 1.402 2.337 2.777 4.123 2.536" fill="#908b91"/><path d="m80.069 37.024c1.375-.92 1.162-3.797-.737-3.882-.68.609-.921 1.984-2.096 1.743-.482.043-1.333-.241-1.616-.199.567.808 1.814.723 2.664.482.85-.127.609-1.657 1.459-1.459 1.162.737.766 2.395.284 3.315zm-4.095-1.898c.818 1.128 2.252 1.642 3.599 1.289-1.245.463-2.654.126-3.556-.85-.355-.311-.808-.808-.043-.439m-.524-.156c-.354-.284-.397-.609.128-.369-.199-.566-.525-.084-.723.199.071-.156.354.17.595.17" fill="#180f19"/><path d="m78.199 34.97c.78-.213.17-1.785 1.304-1.502.68.241.68-.241 1.048-.609.765.212.114-.071-.241-.326-.651-.439-1.742-.68-1.898.368-.213.61-.78 1.29-.737 1.899.139.134.333.197.524.17" fill="#180f19"/><g fill="#fff"><path d="m78.568 36.415c.567-.071 1.531-.354 1.502-1.006-1.045.761-2.466.779-3.528.043-.637-.567-.071.155.241.368.501.412 1.137.624 1.785.595"/><path d="m67.389 35.487h-.34v-.098h.34zm-.34-.049h-.049v.049h.049zm-.049 0h.098v-1.587h-.098zm.049-1.636h.049v.049h-.049zm0 .098h-.326v-.098h.326zm-.326-.049h-.049v.049h.049zm-.049 0h.098v-.269h-.098zm0-.318h.049v.049h-.049zm.049 0h.666v.098h-.666zm.666.049h.049v-.049h-.049zm.049 0h-.098v1.856h.098zm0 1.856h-.049v.049h.049z"/><path d="m68.926 34.205c.003-.071-.023-.14-.071-.192l.069-.07c.067.071.103.165.1.262zm-.071-.192.035-.035-.039.03zm-.004-.005.077-.061c-.03-.039-.069-.07-.114-.09l-.04.089c.03.015.057.036.077.062m-.077-.062.02-.044zm0 0c-.03-.012-.063-.019-.097-.018v-.099c.048-.001.094.009.137.028zm-.097-.018v-.099c-.092-.002-.181.034-.247.1l.069.07c.048-.047.112-.073.178-.071m-.251.005.004-.004.035.035zm.077.062c-.023.028-.042.06-.056.095l-.092-.033c.017-.045.041-.087.071-.124zm-.056.095-.092-.033c-.016.047-.025.098-.025.148h.099c0-.039.006-.078.018-.115m-.018.115c0 .037.004.075.012.111l-.094.025c-.012-.044-.017-.09-.017-.136zm.012.111-.094.025c.012.047.036.09.069.125l.069-.069c-.02-.023-.036-.051-.044-.081m.044.081c.023.023.051.04.08.052l-.034.092c-.043-.016-.082-.042-.115-.075zm.08.052-.034.092c.047.017.097.026.146.025v-.099c-.038.001-.076-.005-.112-.018m.112.018c.067.002.131-.023.178-.07l.069.069c-.064.066-.154.103-.247.1zm.178-.07.069.069c.034-.033.059-.073.074-.117l-.091-.034c-.011.03-.029.058-.052.082m.052-.082.091.034c.018-.046.026-.095.026-.144h-.098c0 .037-.006.075-.019.11m-.244 1.172h-.383v-.098h.383zm-.382 0v-.049l-.042-.028-.05.077zm-.042-.077.082.055.425-.638-.081-.054zm.444-.654.063.071-.04-.027zm.045.088c-.033.015-.07.022-.108.019v-.099c.022.002.043-.001.063-.008zm-.108.019-.012.005-.031-.093c.014-.006.029-.01.043-.011zm-.012.005-.016-.047zm0 0c-.014.005-.028.008-.044.009v-.098l.013-.005zm-.044.009h-.005l.005-.049zm-.005 0c-.079-.006-.156-.026-.229-.06l.042-.088c.062.028.129.045.196.05zm-.229-.06c-.071-.034-.134-.082-.186-.141l.074-.064c.043.049.096.089.154.117zm-.112-.205-.037.032zm-.073.065.073-.065c-.049-.055-.086-.119-.111-.189l-.093.031c.028.083.073.159.131.223m-.131-.223.047-.015zm0 0c-.026-.085-.039-.174-.038-.263h.098c-.001.079.011.157.034.232zm-.038-.263h.098c.001-.067.014-.133.039-.195l-.091-.037c-.03.074-.045.152-.046.232m.046-.232c.027-.079.07-.152.125-.214l.069.069c-.046.053-.081.115-.103.182zm.197-.148-.038-.031.035.034zm-.076-.063.076.063c.056-.069.124-.128.2-.173l-.051-.085c-.085.052-.161.118-.225.195m.225-.195.011-.004.015.047zm.011-.004c.047-.015.095-.027.143-.034l.013.098c-.042.006-.084.016-.126.029zm.157.064-.007-.049.006.049zm-.015-.098.015.098c.047-.008.094-.011.141-.011v-.098c-.052 0-.104.004-.156.011m.156-.011c.092 0 .184.015.27.045l-.03.093c-.077-.026-.158-.04-.24-.04zm.27.045-.015.047.018-.046zm.003.001-.036.091c.034.013.066.03.095.05l.055-.081c-.035-.025-.073-.045-.114-.06m.114.06c.04.027.076.059.105.097l-.077.061c-.023-.03-.051-.056-.083-.077zm.036.166.031-.039-.039.031zm.061-.077-.061.077c.03.024.056.052.077.083l.081-.056c-.026-.039-.059-.075-.097-.104m.097.104c.024.036.044.074.06.114l-.091.037c-.013-.034-.029-.065-.05-.095zm-.03.154.044-.021-.045.018zm.088-.043-.088.043c.036.067.054.143.052.219h.098c.002-.091-.019-.181-.062-.262m.062.262c.001.051-.004.101-.013.151l-.097-.018c.009-.044.013-.088.012-.133zm-.013.151-.097-.018c-.008.045-.022.09-.041.132l.09.038c.022-.049.038-.1.048-.152m-.139.117.001-.003.045.019zm.093.031c-.021.06-.048.118-.082.173l-.085-.049c.03-.049.054-.101.074-.155zm-.082.173-.085-.049c-.04.069-.084.136-.132.2l.079.058c.051-.067.097-.137.138-.209m-.218.153.001-.002.039.029zm.082.054-.082-.054-.397.61.082.053zm-.397.609-.041-.026v.049h.026z"/><path d="m69.571 34.793h.354v.098h-.354zm.354.049h.049v-.049h-.049zm.049 0h-.098v.014h.098zm0 .015h-.098c-.001.043.004.087.016.129l.094-.029c-.009-.033-.013-.067-.012-.1m-.082.13v-.001l.047-.014zm.094-.03c.006.023.02.044.039.059l-.058.078c-.036-.027-.063-.065-.075-.107zm.039.059-.029.039.039-.029zm.01.01-.078.059c.024.033.056.06.094.078l.042-.088c-.024-.011-.044-.028-.058-.049m.016.137.021-.044zm.042-.088c.027.011.057.016.087.016v.098c-.045.001-.089-.008-.129-.026zm.087.016v.098c.088.002.173-.034.233-.099l-.069-.07c-.042.046-.102.072-.164.071m.164-.071c.023-.024.04-.053.051-.084l.093.032c-.016.045-.042.087-.075.122zm.051-.084.093.032c.016-.05.024-.102.024-.154h-.098c0 .041-.006.082-.019.122m.019-.122c-.003-.068-.034-.132-.085-.177l.07-.07c.069.063.11.152.113.247zm-.02-.252-.03.04.035-.035zm-.059.079.059-.079c-.037-.027-.079-.047-.123-.058l-.026.094c.032.008.063.023.09.043m-.09-.043c-.045-.013-.09-.019-.136-.018v-.098c.054-.001.109.006.162.022zm-.136-.116h-.028v.098h.028zm-.028.098h-.014v-.098h.014zm-.015-.049h-.049v.049h.049zm-.049 0h.098v-.297h-.098zm0-.347h.049v.049h-.049zm.049 0h.014v.099h-.014zm.015 0h.028v.099h-.028zm.028 0c.047.006.095-.004.136-.028l.069.069c-.059.045-.132.065-.205.058zm.136-.028.069.069c.025-.024.044-.053.056-.085l-.093-.033c-.007.018-.018.035-.032.049m.032-.049c.007-.024.011-.048.01-.072h.098c0 .035-.005.071-.015.105zm.01-.072h.098c.003-.06-.017-.118-.057-.162l-.069.069c.02.026.03.059.028.093m-.028-.093c-.01-.009-.021-.016-.033-.02l.035-.092c.025.009.047.024.067.043zm.002-.112-.017.046zm-.035.092c-.015-.006-.031-.008-.046-.008v-.099c.027 0 .055.005.081.015zm-.046-.008v-.099c-.056-.005-.111.017-.148.058l.069.069c.021-.021.049-.031.079-.028m-.16-.022.012-.019.034.035zm.093.031c-.005.014-.01.027-.016.041l-.091-.038c.005-.011.01-.023.014-.034zm-.016.041-.046-.019zm0 0-.011.026-.092-.034.012-.03zm-.011.026-.092-.034c-.013.029-.019.061-.019.093h.098c0-.021.005-.041.013-.059m-.013.108h-.049v-.049h.049zm-.049 0h-.312v-.098h.312zm-.311-.049h-.049v.049h.049zm-.05 0h.098c-.008-.122.033-.242.114-.333l-.07-.07c-.1.11-.151.255-.142.403m.142-.403.003-.002.032.037zm.003-.002c.104-.098.242-.153.386-.154v.098c-.12.001-.235.048-.322.13zm.386-.154v.098c.052 0 .104.011.153.032l.04-.089c-.061-.027-.127-.041-.193-.041m.154.13h-.001l.02-.045zm.038-.09c.063.027.12.067.169.116l-.07.07c-.04-.04-.086-.073-.137-.096zm.102.188.032-.037-.035.035zm.064-.074-.064.074c.04.033.072.076.093.125l.09-.04c-.027-.062-.068-.116-.119-.159m.119.159v.001l-.045.019zm0 .001c.027.064.04.133.04.203h-.099c.001-.057-.01-.112-.031-.164zm.04.203h-.099c.001.06-.012.12-.036.176l.087.044c.032-.069.048-.144.048-.22m-.048.22c-.017.033-.038.063-.064.089l-.07-.07c.019-.019.034-.04.047-.063zm-.064.089-.07-.07c-.023.023-.049.043-.077.059l.051.084c.034-.021.067-.045.096-.073m-.143.075-.08-.04.076-.046.025.042zm.043-.088-.043.088c.047.022.091.049.132.082l.062-.076c-.047-.037-.098-.069-.151-.094m.151.094c.042.034.079.075.109.121l-.082.054c-.025-.038-.055-.071-.089-.099zm.109.121-.082.054c.024.037.041.079.05.123l.096-.02c-.011-.056-.033-.11-.064-.157m.064.157c.011.06.017.121.016.182h-.099c.001-.055-.004-.109-.013-.162zm.016.182h-.099c.005.064-.003.128-.023.19l.088.044c.028-.075.04-.155.034-.234m-.124.194.002-.004.044.022zm.092.036c-.017.04-.037.079-.06.117l-.083-.053c.02-.032.037-.065.051-.1zm-.06.117-.083-.053c-.019.029-.041.057-.065.082l.069.07c.029-.031.056-.064.079-.099m-.152.033.004-.004.034.034zm.077.061c-.031.038-.065.072-.103.103l-.061-.077c.032-.026.061-.055.087-.087zm-.103.103-.061-.077c-.028.022-.059.04-.091.054l.036.091c.041-.017.08-.04.116-.068m-.116.068c-.088.032-.18.048-.273.046v-.098c.08.002.161-.012.237-.039zm-.273.046v-.098c-.08.001-.159-.012-.234-.038l-.032.093c.085.029.175.043.266.043m-.266-.043c-.078-.026-.15-.07-.208-.127l.069-.069c.048.046.107.081.171.103zm-.208-.127.069-.069c-.109-.118-.165-.275-.155-.434h-.098c-.011.185.056.367.184.503m-.184-.503h.049v-.049h-.049z"/><path d="m71.597 35.487h-.369v-.098h.369zm-.369 0v-.05l-.044-.02-.032.07zm-.044-.07.089.041.694-1.531-.089-.04zm.739-1.559h.076l-.032.069-.044-.02zm0 .098h-.722v-.098h.722zm-.723 0h-.049v-.049h.049zm-.049-.375h.098v.326h-.098zm0 0h.049v-.049h-.049zm.049.05h1.063v-.098h-1.063zm1.063-.099h.049v.049h-.049zm.049.389h-.098v-.34h.098zm0 0h-.049l.045.02zm-.004.02-.09-.04-.666 1.517.09.039zm-.666 1.516-.045-.02v.05h.032z"/><path d="m67.388 35.437h-.34v-1.587h-.326v-.269h.666z"/><path d="m68.976 34.205c.002-.084-.029-.165-.086-.227-.05-.065-.13-.102-.212-.099-.08-.002-.157.029-.213.085-.057.067-.088.153-.085.241-.007.082.018.163.071.226.06.059.142.09.227.085.079.003.156-.028.212-.085.057-.061.088-.142.086-.226m-.312 1.232h-.383l.425-.638c-.027.013-.056.018-.085.015-.014 0-.042.014-.056.014-.148-.007-.286-.074-.383-.185-.11-.124-.166-.287-.156-.453.006-.15.061-.293.156-.41.059-.074.131-.136.213-.185.091-.029.187-.043.283-.043.086.001.173.015.255.043.148.072.268.192.34.34.038.075.058.157.057.241.001.098-.018.194-.057.283-.053.133-.125.257-.212.369z"/><path d="m69.571 34.842h.354v.014c-.01.074.016.148.07.199.043.058.113.09.184.085.076.002.148-.029.198-.085.06-.066.091-.152.086-.241-.003-.081-.038-.158-.099-.213-.075-.05-.165-.075-.256-.071h-.042v-.297h.042c.06.007.121-.008.17-.042.042-.041.063-.098.057-.156.004-.047-.011-.093-.043-.128-.03-.028-.071-.044-.113-.043-.042-.004-.083.012-.113.043-.014.042-.028.085-.043.141h-.312c-.008-.135.039-.267.128-.368.097-.089.223-.139.354-.141.124.002.241.052.326.141.095.082.147.202.142.326.002.069-.013.137-.043.199-.031.06-.08.11-.141.141.097.043.181.112.24.199.055.094.08.203.071.311.006.072-.004.145-.028.213-.028.074-.072.142-.128.198-.051.068-.119.122-.198.156-.081.03-.168.045-.255.043-.161.008-.318-.048-.439-.156-.118-.126-.179-.295-.17-.468"/><path d="m71.597 35.437h-.369l.694-1.53h-.722v-.326h1.062v.34z"/></g></g></svg>