<svg clip-rule="evenodd" fill-rule="evenodd" stroke-miterlimit="2.6131" viewBox="0 0 560 400" xmlns="http://www.w3.org/2000/svg"><g transform="matrix(1.77872 0 0 1.77872 180.001 57.4874)"><path d="m74.264 26.364c2.641.402 8.286 1.707 13.935 4.666l-3.098 1.287s4.145 1.599 6.971 5.774c2.819 4.161 11.949 6.302 14.601 5.983l-6.086 3.523s10.986 6.73 10.626 17.741l-1.329-.426s2.423 4.71 2.556 11.568v1.296c-.16 6.786-2.675 15.39-11.625 23.579l-.666-1.178s-1.425 2.862-2.647 4.354c0 0 1.456 5.201 6.809 10.849 0 0-6.706 1.365-11.799 1.047 0 0-.553 10.251-7.854 16.777l-1.991-.536s-3.312 7.801-13.385 10.687l-.777-1.713s-9.176 5.556-12.273 18.6c-3.109-13.044-12.286-18.6-12.286-18.6l-.771 1.713c-10.078-2.886-13.392-10.687-13.392-10.687l-1.997.536c-7.301-6.526-7.854-16.777-7.854-16.777-5.093.318-11.8-1.047-11.8-1.047 5.353-5.647 6.814-10.849 6.814-10.849-1.228-1.491-2.653-4.354-2.653-4.354l-.661 1.178c-9.165-8.384-11.575-17.198-11.631-24.058-.001-.222-.003-.437 0-.655.098-6.946 2.556-11.73 2.556-11.73l-1.323.426c-.366-11.01 10.62-17.741 10.62-17.741l-6.085-3.523c2.657.319 11.781-1.823 14.601-5.983 2.826-4.175 6.97-5.774 6.97-5.774l-3.09-1.287c5.808-3.043 11.617-4.162 14.161-4.528 0 0-.391-4.077-4.726-6.176 0 0 2.272-1.679 3.902-2.406 0 0-1.304-3.879-2.284-5.245l-4.877-3.349 4.551-6.609 7.494 5.246-1.192 1.887s2.712.837 4.451-1.256l-2.557-2.208 5.593-6.386 6.616 5.448-2.279 2.724s3.583 1.365 6.507-.107l-2.274-2.617 6.621-5.448 5.642 6.181-2.604 2.303s1.63 2.202 4.554 1.263l-1.078-1.683 7.482-5.348 4.449 6.609-5.099 3.663s-1.739 2.832-2.063 4.822c0 0 2.609 1.684 3.476 2.622-.001.002-3.802 1.529-4.452 5.932z" fill="#a8b1b7"/><path d="m56.229 16.43s-13.097-.252-19.309 3.914c0 0 2.669 1.456 3.65 8.058 0 0-6.621.518-10.747 2.407 0 0 3.036 1.052 4.559 2.201 0 0-6.074-.212-9.978 3.775-3.902 3.982-5.322 6.495-12.267 8.281l4.126 2.508s-9.983 4.299-12.371 14.462l3.259-1.045s-13.242 18.233 3.801 36.573l1.509-3.24s.764 4.396 4.889 9.64c0 0-.872 5.136-4.673 9.852 0 0 4.565 1.045 9.117.101 0 0 .331 11.006 6.514 16.874l2.712-.732s2.496 7.758 10.956 10.482l.98-2.201s8.3 4.138 13.273 15.226c4.955-11.088 13.261-15.226 13.261-15.226l.979 2.201c8.463-2.725 10.958-10.482 10.958-10.482l2.712.732c6.182-5.868 6.513-16.874 6.513-16.874 4.553.944 9.11-.101 9.11-.101-3.801-4.716-4.667-9.852-4.667-9.852 4.125-5.243 4.884-9.64 4.884-9.64l1.516 3.24c17.037-18.34 3.807-36.573 3.807-36.573l3.247 1.045c-2.388-10.163-12.363-14.462-12.363-14.462l4.118-2.508c-6.944-1.787-8.353-4.299-12.262-8.281-3.902-3.987-9.976-3.775-9.976-3.775 1.515-1.149 4.558-2.201 4.558-2.201-4.125-1.889-10.746-2.407-10.746-2.407.98-6.603 3.649-8.058 3.649-8.058-6.218-4.167-19.298-3.914-19.298-3.914z" fill="#231f20"/><g fill="#634293"><path d="m16.996 47.959s8.875-3.916 17.579 1.208c0 0-1.806-5.876-13.146-7.687l-3.115 2.712-2.802 1.21 1.485.902v1.655z"/><path d="m95.523 47.959s-8.883-3.916-17.583 1.208c0 0 1.803-5.876 13.145-7.687l3.121 2.712 2.798 1.21-1.48.902v1.655z"/><path d="m16.287 60.245s-18.728 12.257-6.044 29.306c0 0-2.32-12.624 9.04-22.618-.001-.001-1.921-3.044-2.996-6.688z"/><path d="m96.924 60.245s18.727 12.257 6.038 29.306c0 0 2.327-12.624-9.033-22.618 0-.001 1.918-3.044 2.995-6.688z"/></g><path d="m79.736 8.84-2.338-3.404-4.323 3.013 1.461 2.117c-3.566 2.086-7.302 1.846-10.345-2.304l2.707-2.236-3.104-3.399-3.638 3.014 2.369 2.598h-.024c-.938 1.052-2.267 2.405-6.158 2.399-3.783 0-5.094-1.28-6.067-2.315l2.375-2.634-3.68-3.019-3.06 3.397 2.662 2.184c-3.205 4.913-7.396 4.162-10.265 2.417l1.51-2.237-4.354-3.014-2.298 3.393 3.676 2.543c1.099 2.201 1.941 3.447 2.598 6.129 3.733-1.575 9.838-2.641 16.808-2.641 7.066 0 13.272 1.083 17.024 2.683.602-2.586 1.444-3.735 2.465-5.912z" fill="#231f20"/><path d="m35.8 6.585-1.454 2.104 2.808 1.936z" fill="#acbbbb"/><path d="m35.8 6.585-1.454 2.104 2.808 1.936z" fill="#a8b1b7"/><path d="m49.056 3.837-1.944 2.099 2.377 1.941z" fill="#acbbbb"/><path d="m49.056 3.837-1.944 2.099 2.377 1.941z" fill="#a8b1b7"/><path d="m75.744 10.687-1.492-2.112 2.784-1.93z" fill="#acbbbb"/><path d="m75.744 10.687-1.492-2.112 2.784-1.93z" fill="#a8b1b7"/><path d="m63.326 7.872-1.973-2.112 2.357-1.929z" fill="#acbbbb"/><path d="m63.326 7.872-1.973-2.112 2.357-1.929z" fill="#a8b1b7"/><path d="m56.307 18.281-2.099 2.581 2.13 2.579z" fill="#fff"/><path d="m56.307 18.281-2.099 2.581 2.13 2.579" fill="none" stroke="#231f20" stroke-width=".05"/><path d="m56.338 23.441 2.103-2.579-2.134-2.581z" fill="#a8b1b7"/><path d="m62.471 18.894-2.087 2.196 1.907 2.712z" fill="#fff"/><path d="m62.471 18.894-2.087 2.196 1.907 2.712" fill="none" stroke="#231f20" stroke-width=".05"/><path d="m62.291 23.802 2.093-2.195-1.913-2.713z" fill="#a8b1b7"/><path d="m68.431 19.978-2.027 1.966 1.763 2.681z" fill="#fff"/><path d="m68.431 19.978-2.027 1.966 1.763 2.681" fill="none" stroke="#231f20" stroke-width=".05"/><path d="m68.167 24.625 2.027-1.967-1.763-2.68z" fill="#a8b1b7"/><path d="m50.354 23.79-2.117-2.188 1.864-2.713z" fill="#fff"/><path d="m50.354 23.79-2.117-2.188 1.864-2.713" fill="none" stroke="#231f20" stroke-width=".05"/><path d="m50.101 18.889 2.128 2.201-1.875 2.7z" fill="#a8b1b7"/><path d="m44.485 24.621-2.05-1.968 1.725-2.688z" fill="#fff"/><path d="m44.485 24.621-2.05-1.968 1.725-2.688" fill="none" stroke="#231f20" stroke-width=".05"/><path d="m44.16 19.965 2.05 1.967-1.725 2.689z" fill="#a8b1b7"/><path d="m56.481 34.132s6.73-2.862 12.504-2.969c0 0-7.806 5.177-12.504 15.966-4.696-10.789-12.502-15.966-12.502-15.966 5.767.108 12.502 2.969 12.502 2.969z" fill="#634293"/><path d="m56.229 142.464c-4.613-11.229-15.082-14.764-15.082-14.764l-.903 1.96c-5.201-2.291-7.233-12.664-7.233-12.664-.794 2.074-2.828 3.055-2.828 3.055-5.995-8.083-2.375-18.89-2.375-18.89-1.696 2.947-5.767 3.928-5.767 3.928 4.185-5.568-.566-15.503-.566-15.503l-3.163 2.729c-3.392-10.157 3.391-19.66 3.391-19.66-2.146.657-5.201 2.84-5.201 2.84 1.354-5.462 5.653-8.955 5.653-8.955-6.219-8.517-2.153-16.599-2.153-16.599 8.149-2.507 14.589 2.298 14.589 2.298 1.125-1.425 3.735-2.947 3.735-2.947-4.414-7.325-13.008-9.069-13.008-9.069 4.3-5.786 12.323-4.035 12.323-4.035 4.071 3.271 5.653 11.569 5.653 11.569.685-.107 2.604-.107 2.604-.107-1.239-10.158-6.218-15.071-6.218-15.071 9.495 2.947 13.675 17.146 13.675 17.146 2.826.324 4.077-.223 4.077-.223s-.432.977-1.203 1.614c0 0 .813.324 2.569-.319 0 0 3.349-13.981 13.975-18.269 0 0-5.695 6.067-6.278 15.761 0 0 1.841-.162 2.683-.162 0 0 1.419-8.569 5.688-11.878 0 0 7.704-1.936 12.383 4.042 0 0-8.112 1.13-13.134 9.136 0 0 2.591 1.37 3.68 2.905 0 0 7.192-5.172 14.727-2.503 0 0 4.097 7.92-2.26 16.651 0 0 4.522 3.801 5.857 9.214 0 0-3.091-2.346-5.354-3.152 0 0 6.7 8.966 3.514 19.96l-2.509-2.339s-4.606 8.647-.331 15.514c0 0-3.938-.401-6.114-4.039 0 0 4.522 10.349-2.755 19.972 0 0-2.599-.813-3.271-2.833 0 0-1.342 8.321-6.946 12.285l-1.335-2.424c-.001 0-10.881 5.821-14.789 13.826z" fill="#634293"/><path d="m56.253 62.843c3.735-2.039 6.711-.438 6.711-.438s1.425.949 4.18.949c2.748 0 4.287-1.665 4.287-1.665 6.525.883 8.366-1.601 8.366-1.601 1.028 2.876-1.377 4.09-1.377 4.09-1.148 6.742-6.754 5.474-6.754 5.474 6.578 7.577 5.899 10.722 5.899 10.722l-1.727-.494c1.781 8.179-3.374 12.552-3.374 12.552l2.063 9.951c1.72 8.402-4.739 12.702-4.739 12.702 4.644 6.896-3.108 9.573-3.108 9.573 9.851-2.814 5.388-9.356 5.388-9.356 5.671-4.602 5.833-10.651 5.094-12.479-.745-1.822-.631-3.538-.631-3.538l3.247 1.012c-1.504-6.735 2.248-13.116 2.248-13.116l1.811.656c4.373-11.607.711-17.141.367-17.417-.348-.271-.805-.938-.805-.938-1.948-3.374 2.291-2.491 2.291-2.491-2.574-5.803-10.706-11.498-10.706-11.498l-.968 2.244c-2.453-8.257-8.418-7.156-11.396-5.22-2.97 1.93-6.393 1.744-6.393 1.744s-3.421.186-6.41-1.744c-2.978-1.937-8.938-3.038-11.396 5.22l-.963-2.244s-8.125 5.695-10.704 11.498c0 0 4.233-.883 2.285 2.491 0 0-.45.667-.8.938-.35.276-4.006 5.81.361 17.417l1.815-.656s3.747 6.381 2.243 13.116l3.253-1.012s.114 1.716-.631 3.538c-.74 1.827-.583 7.877 5.089 12.479 0 0-4.458 6.542 5.382 9.356 0 0-7.739-2.677-3.091-9.573 0 0-6.466-4.3-4.746-12.702l2.058-9.951s-5.148-4.373-3.381-12.552l-1.713.494s-.687-3.145 5.898-10.722c0 0-5.604 1.268-6.752-5.474 0 0-2.405-1.214-1.377-4.09 0 0 1.834 2.484 8.358 1.601 0 0 1.546 1.665 4.294 1.665 2.743 0 4.18-.949 4.18-.949s2.977-1.601 6.711.438z" fill="#fff"/><path d="m56.248 134.791c0-4.792 2.448-9.833 2.448-9.833-.255 1.408.06 6.23.06 6.23.878-2.909 3.192-6.892 3.192-6.892-.197.999.121 4.198.121 4.198 1.689-4.943 4.287-6.062 4.287-6.062s.807 0 1.943-1.744c1.809-2.785-1.738-5.995-1.738-5.995 7.673-5.034 6.086-10.458 6.086-10.458l-2.515-12.431c1.848-2.664 1.877-5.983 1.877-5.983-4.342 1.221-8.617.992-8.617.992v-.331c6.783-.999 8.558-3.199 8.558-3.199 0-.253-.103-.692-.103-.692-2.947 1.065-7.108.944-7.108.944v-.252c6.592-1.312 6.464-3.692 6.464-3.692-.638-1.894-1.363-3.519-1.363-3.519l4.582 1.083c-12.672-19.713-18.174-11.384-18.174-11.384s-5.509-8.329-18.18 11.384l4.577-1.083s-.721 1.625-1.359 3.519c0 0-.126 2.381 6.459 3.692v.252s-4.156.121-7.104-.944c0 0-.096.439-.096.692 0 0 1.768 2.2 8.546 3.199v.331s-4.27.229-8.619-.992c0 0 .037 3.319 1.884 5.983l-2.515 12.431s-1.594 5.424 6.081 10.458c0 0-3.549 3.21-1.731 5.995 1.13 1.744 1.941 1.744 1.941 1.744s2.598 1.118 4.282 6.062c0 0 .319-3.199.126-4.198 0 0 2.31 3.982 3.193 6.892 0 0 .313-4.822.066-6.23.001 0 2.449 5.041 2.449 9.833z" fill="#fff"/><path d="m52.741 81.155c.571-.402.968-1.012 1.035-1.702-.007-.066-.007-.138-.007-.211 0-1.34-1.232-2.43-2.76-2.434-.564.004-1.095.155-1.533.414-.181.107-.307.264-.409.445l-.326 1.052v.006c.023-.019 1.287-1.299 3.061-.288 1.799 1.016-.276 2.981-.842 3.21 0 0 3.085 1.264 3.247 5.467.902-.397 1.492-.613 1.492-.613.002-3.951-2.958-5.346-2.958-5.346z" fill="#a8b1b7"/><path d="m47.745 83.536s-4.156.121-7.104-.944c0 0-.096.439-.096.692 0 0 .157.204.583.517 3.237.329 6.617-.265 6.617-.265z" fill="#fff"/><path d="m49.091 86.814s-4.27.229-8.619-.992c0 0 0 .457.102 1.166 3.141.679 8.517-.174 8.517-.174z" fill="#fff"/><path d="m62.964 62.405s1.425.949 4.18.949c2.748 0 4.287-1.665 4.287-1.665 6.525.883 8.366-1.601 8.366-1.601 1.028 2.876-1.377 4.09-1.377 4.09-1.148 6.742-6.754 5.474-6.754 5.474 6.578 7.577 5.899 10.722 5.899 10.722l-1.727-.494c1.781 8.179-3.374 12.552-3.374 12.552l2.063 9.951c1.72 8.402-4.739 12.702-4.739 12.702 4.644 6.896-3.108 9.573-3.108 9.573 9.851-2.814 5.388-9.356 5.388-9.356 5.671-4.602 5.833-10.651 5.094-12.479-.745-1.822-.631-3.538-.631-3.538l3.247 1.012c-1.504-6.735 2.248-13.116 2.248-13.116l1.818.656c4.365-11.607.703-17.141.359-17.417-.348-.271-.805-.938-.805-.938-1.948-3.374 2.291-2.491 2.291-2.491-2.574-5.803-10.706-11.498-10.706-11.498l-.968 2.244c-2.453-8.257-8.418-7.156-11.396-5.22-2.97 1.93-6.393 1.744-6.393 1.744s-3.421.186-6.41-1.744c-2.153-1.408-5.869-2.364-8.69.342 1.882-.685 5.07-1.197 8.27 1.221 4.984 3.777 11.552 1.689 11.978 1.299 0 0-1.713 1.642-3.842 2.388 0 0 .54 2.26-1.042 4.956 3.624-1.841 6.474-.318 6.474-.318z" fill="#a8b1b7"/><path d="m58.696 124.958c-.255 1.408.06 6.23.06 6.23.878-2.909 3.192-6.892 3.192-6.892-.197.999.121 4.198.121 4.198 1.689-4.943 4.287-6.062 4.287-6.062s.807 0 1.943-1.744c1.809-2.785-1.738-5.995-1.738-5.995 7.673-5.034 6.086-10.458 6.086-10.458l-2.515-12.431c1.848-2.664 1.877-5.983 1.877-5.983-4.342 1.221-8.617.992-8.617.992v-.331c6.783-.999 8.558-3.199 8.558-3.199 0-.253-.103-.692-.103-.692-2.947 1.065-7.108.944-7.108.944v-.252c6.592-1.312 6.464-3.692 6.464-3.692-.638-1.894-1.363-3.519-1.363-3.519l4.582 1.083c-10.687-16.623-16.28-13.309-17.76-11.865.566 1.642 1.385 4.901-.228 6.904h.019c3.41 0 4.288-.35 4.288-.35s2.015-.607 2.952-.607c2.058 0 5.281.366 4.787 2.82-.722 3.549-4.269 5.184-4.269 5.184h-.02c0-.697-.156-1.653-.756-2.02-.44-.259-.976-.41-1.542-.414-1.52.004-2.753 1.094-2.753 2.434 0 .073 0 .145-.012.211.064.69.45 1.299 1.045 1.702 0 0-2.977 1.586-2.977 5.346 0 0 6.238 2.278 9.328 5.636 2.405 2.609 3.121 6.199 3.121 6.199s2.851 6.604.175 9.466c0 0-1.961 2.941-3.831 4.414 0 0-.313 2.195-1.587 3.53 0 0-6.923-2.465-15.854-.098l.271.326s4.967-.445 7.607-.133c0 0 .258 5.088-2.628 9.116 0 0 2.448 5.041 2.448 9.833.002-4.79 2.45-9.831 2.45-9.831z" fill="#a8b1b7"/><path d="m69.646 98.335s-.716-3.59-3.121-6.199c-3.09-3.357-9.328-5.636-9.328-5.636 0-3.76 2.977-5.346 2.977-5.346-.595-.402-.98-1.012-1.045-1.702.012-.066.012-.138.012-.211 0-1.34 1.233-2.43 2.753-2.434.566.004 1.102.155 1.542.414.6.367.756 1.323.756 2.02h.02s3.547-1.635 4.269-5.184c.494-2.454-2.729-2.82-4.787-2.82-.938 0-2.952.607-2.952.607s-.878.35-4.288.35-4.168-.445-4.168-.445-2.129-.512-3.074-.512c-2.056 0-5.279.366-4.78 2.82.721 3.549 4.264 5.184 4.264 5.184h.024c0-.697.15-1.653.758-2.02.438-.259.968-.41 1.533-.414 1.527.004 2.76 1.094 2.76 2.434 0 .073 0 .145.007.211-.067.69-.464 1.299-1.035 1.702 0 0 2.96 1.396 2.96 5.346 0 0-6.231 2.278-9.322 5.636-2.4 2.609-3.116 6.199-3.116 6.199s-2.85 6.604-.179 9.466c0 0 1.954 2.941 3.831 4.414 0 0-.89-3.103 1.425-4.739-.007.024-.252 3.537 3.65 5.491l1.113-1.966 1.1 1.479h.006l.012.018 1.106-1.929 1.101 1.929.024-.035.024.035 1.106-1.929 1.102 1.929.012-.018 1.106-1.479 1.117 1.966c3.897-1.954 3.65-5.467 3.646-5.491 2.32 1.637 1.425 4.739 1.425 4.739 1.87-1.473 3.831-4.414 3.831-4.414 2.674-2.861-.177-9.466-.177-9.466z" fill="#683593"/><path d="m56.41 73.746s2.274.133 3.994-.39c3.055-.945 4.635.426 4.635.426s-1.575.071-4.635 1.011c-1.504.462-3.994.385-3.994.385s-2.501.084-3.987-.385c-3.055-.98-4.649-1.011-4.649-1.011s1.601-1.432 4.649-.426c1.449.48 3.987.39 3.987.39z" fill="#fff"/><path d="m56.41 73.746s2.274.133 3.994-.39c3.055-.945 4.635.426 4.635.426s-1.575.071-4.635 1.011c-1.504.462-3.994.385-3.994.385s-2.501.084-3.987-.385c-3.055-.98-4.649-1.011-4.649-1.011s1.601-1.432 4.649-.426c1.449.48 3.987.39 3.987.39z" fill="none" stroke="#fff" stroke-width=".05"/><path d="m56.452 93.458 1.353-1.918 1.005 1.906 1.274-1.642.738 1.913 1.354-1.126c1.245 2.272.976 5.791.976 5.791 1.695-1.72 1.653-3.645 1.653-3.645.373.025 1.154.29 1.154.29-2.755-4.667-9.507-5.955-9.507-5.955s-6.754 1.288-9.502 5.955c0 0 .776-.265 1.149-.29 0 0-.042 1.925 1.654 3.645 0 0-.271-3.519.973-5.791l1.354 1.126.747-1.913 1.269 1.642 1.004-1.906z" fill="#fff"/><path d="m37.184 64.413c-.228.307-.361.666-.361 1.046 0 1.185 1.263 2.146 2.821 2.146 1.185 0 2.194-.552 2.61-1.347l-1.18-.607c-.107.505-.678.89-1.371.89-.771 0-1.382-.476-1.382-1.059 0-.283.138-.542.372-.728z" fill="#fff"/><path d="m75.329 64.413c.229.307.355.666.355 1.046 0 1.185-1.258 2.146-2.809 2.146-1.186 0-2.194-.552-2.615-1.347l1.185-.607c.103.505.678.89 1.363.89.771 0 1.39-.476 1.39-1.059 0-.283-.138-.542-.385-.728z" fill="#fff"/><path d="m21.435 51.507s-1.588 8.438 2.891 13.127c0 0 1.137-1.96 1.986-3.055l.342 1.144s1.245-1.644 2.141-2.738c.902-1.094-2.982-6.29-7.36-8.478z" fill="#fff"/><path d="m91.08 51.507s1.587 8.438-2.888 13.127c0 0-1.143-1.96-1.984-3.055l-.354 1.144s-1.24-1.644-2.13-2.738c-.902-1.094 2.978-6.29 7.356-8.478z" fill="#a8b1b7"/></g></svg>