<svg clip-rule="evenodd" fill-rule="evenodd" stroke-linejoin="round" stroke-miterlimit="2" viewBox="0 0 560 400" xmlns="http://www.w3.org/2000/svg"><g fill-rule="nonzero" transform="matrix(.438951 0 0 .438951 95.3572 144.886)"><path d="m72.007 43.193 14.233-28.217 61.417.103s42.38.422 38.817 38.4c-1.945 20.797-14.624 27.693-22.991 32.427-6.045 3.416-17.009 6.327-17.009 6.327l40.999 70.053h-47.229l-41.702-71.53s44.811 3.083 48.323-31.359c-1.184-15.429-14.195-15.8-22.498-16.203h-52.36z"/><path d="m10.577 162.286 37.806-71.499 43.685-.077-36.149 71.576z"/><path d="m88.319 83.903c12.385-5.168 16.46-14.207 15.021-22.03-2.687-14.605-20.118-15.283-30.744-11.444-4.919 1.766-20.644 11.955-14.982 26.56 3.448 8.892 18.347 12.051 30.705 6.914" fill="#cd1719"/><path d="m396.878 160.815h-29.029l-31.026-54.975v54.976h-25.243v-117.712h36.066c14.33 0 25.07 2.77 32.216 8.31 7.132 5.553 10.714 13.907 10.714 25.069 0 8.093-2.457 15.014-7.356 20.746-4.9 5.744-11.227 9.096-18.973 10.056zm-60.055-67.457h3.768c10.216 0 16.971-1.112 20.253-3.345 3.275-2.239 4.913-6.143 4.913-11.682 0-5.821-1.759-9.954-5.278-12.403-3.524-2.456-10.152-3.685-19.888-3.685h-3.768z"/></g><path d="m276.120733408 163.803471247h11.077367436v51.672433818h-11.077367436z" stroke-width=".438951"/><path d="m463.886 160.815v-117.718h69.414v21.328h-44.178v24.149h44.178v21.32h-44.178v29.593h44.178v21.328z" fill-rule="nonzero" transform="matrix(.438951 0 0 .438951 95.3572 144.886)"/><path d="m557.877 160.815v-117.718h32.151c12.641 0 12.148.883 19.435 2.655 7.286 1.765 13.689 4.714 19.209 8.841 7.127 5.303 12.52 11.993 16.191 20.066 3.671 8.06 5.508 17.247 5.508 27.539 0 10.453-1.881 19.709-5.623 27.77-3.742 8.079-9.243 14.732-16.472 19.984-5.36 3.876-11.317 6.646-17.88 8.335-6.557 1.683-5.713 2.527-18.353 2.527h-34.166zm25.236-21.328h3.531c13.171 0 22.767-3 28.792-9.007 6.021-5.994 9.033-15.506 9.033-28.523 0-12.974-3.013-22.467-9.033-28.493-6.025-6.032-15.621-9.039-28.792-9.039h-3.531z" fill-rule="nonzero" transform="matrix(.438951 0 0 .438951 95.3572 144.886)"/><path d="m671.43 160.815v-117.718h69.407v21.328h-44.171v24.149h44.171v21.32h-44.171v29.593h44.171v21.328z" fill-rule="nonzero" transform="matrix(.438951 0 0 .438951 95.3572 144.886)"/><path d="m765.426 160.815v-117.718h25.244v96.39h40.044v21.328z" fill-rule="nonzero" transform="matrix(.438951 0 0 .438951 95.3572 144.886)"/><path d="m189.09079654 163.803471247h4.86357708v52.315058082h-4.86357708z" stroke-width=".438951"/><path d="m200.923598647 151.280199217h4.863138129v97.438781931h-4.863138129z" stroke-width=".438951"/><path d="m212.492591203 151.280199217h4.860504423v64.841402769h-4.860504423z" stroke-width=".438951"/></svg>