<svg clip-rule="evenodd" fill-rule="evenodd" stroke-linejoin="round" stroke-miterlimit="2" viewBox="0 0 560 400" xmlns="http://www.w3.org/2000/svg"><g fill-rule="nonzero" transform="matrix(1.03448 0 0 1.03448 103.993 21.8933)"><path d="m170.129 317.17c79.862 0 145.011-65.149 145.011-145.012 0-79.839-65.149-144.988-145.011-144.988-79.84 0-144.989 65.149-144.989 144.988 0 79.863 65.149 145.012 144.989 145.012" fill="#fff"/><path d="m169.81 32.873c76.942 0 139.627 62.685 139.627 139.171 0 76.738-62.685 139.423-139.627 139.423-76.281 0-138.921-62.685-138.921-139.423 0-76.486 62.64-139.171 138.921-139.171" fill="#ed2d32"/><path d="m169.81 41.085c72.266 0 131.187 58.921 131.187 130.959 0 72.289-58.921 131.188-131.187 131.188-71.833 0-130.481-58.899-130.481-131.188 0-72.038 58.648-130.959 130.481-130.959" fill="#fff"/><path d="m217.211 204.231c-3.467-3.672-7.117-6.684-10.949-9.147-3.422-2.167-7.071-3.901-10.904-5.178 3.376 3.148 6.935 6.478 10.904 9.215 3.33 2.259 6.935 4.106 10.949 5.11zm-77.056-57.872c3.559 3.513 7.665 6.25 12.295 8.166-4.288-4.288-7.847-8.394-12.295-12.158-2.008-1.643-4.175-3.194-6.684-4.676 1.871 3.239 4.129 6.159 6.684 8.668zm66.107-11.406c.799-1.414 1.46-2.851 2.076-4.448-.707.411-1.369.89-2.076 1.369-6.524 4.494-11.862 11.018-13.664 17.61 5.543-3.787 10.311-8.349 13.664-14.531zm-66.107 107.784c-4.768 1.049-10.014 1.551-13.641.775-13.961-3.878-8.532-25.366-24.386-27.305-5.976-5.201-9.101-12.204-9.101-19.161 0-11.018 9.33-18.318 19.526-20.667 8.714-2.076 18.135-2.076 27.602-1.917 6.296.114 12.569.274 18.682-.045l1.939-1.962-3.946-2.692c-5.201-.547-10.904-.41-16.675-.182-18.956.73-38.962 2.418-47.128-15.786-.822-2.623-1.323-5.292-1.369-7.938v-1.323c.114-5.292 1.962-10.356 5.863-14.394 22.377-1.163 15.466-33.099 40.444-32.118.73 0 1.437.091 2.19.205 7.117 1.004 13.938 5.999 17.337 11.451 9.671 15.238 2.281 39.806 12.363 55.09 8.052-21.489-9.353-59.561 22.378-67.567 6.022-1.483 10.448-.594 14.029 1.596 9.695 5.863 13.459 20.827 26.94 22.036 5.11 2.35 7.642 8.326 7.802 13.185.958 13.116-10.653 25.526-22.47 28.24-3.946.913-8.075 1.369-12.272 1.894-9.444 1.049-19.184 2.03-26.963 6.98 5.748 3.832 15.786.593 21.625-.57 1.711-.32 3.513-.662 5.338-1.072 13.071-2.761 28.491-6.57 37.456 4.927 4.448 5.634 5.977 14.12 4.289 21.26-2.966 11.839-17.428 13.208-18.455 25.708.799 7.825-4.995 13.368-10.653 16.151-3.375 1.482-8.143 2.532-12.637 2.463-4.494-.091-8.714-1.3-10.904-4.265-10.812-14.486-13.436-33.989-21.237-50.299l-1.027 1.916c1.164 20.165 8.167 39.121 1.027 58.807-4.152 2.35-8.691 2.715-11.429-1.711 3.491-17.427 7.893-39.075 5.749-56.343l-1.825-1.848c-8.326 24.111-12.09 48.314-17.838 53.743-2.213 1.05-5.315 2.03-8.623 2.738zm0-46.558c-3.559 2.623-6.638 5.52-9.033 10.014 2.965-1.027 6.136-2.669 9.033-4.654 4.448-3.17 8.166-7.276 9.033-11.633-3.262 2.326-6.296 4.22-9.033 6.273" fill="#218e63"/><g fill="#ed2d32"><path d="m170.038 259.503c48.109 0 87.344-39.236 87.344-87.39 0-48.064-39.235-87.345-87.344-87.345-48.064 0-87.299 39.281-87.299 87.345 0 48.154 39.235 87.39 87.299 87.39zm0-179.457c50.686 0 92.043 41.426 92.043 92.067 0 50.732-41.357 92.043-92.043 92.043-50.641 0-91.975-41.311-91.975-92.043 0-50.641 41.334-92.067 91.975-92.067"/><path d="m121.792 269.449c2.806-4.882 1.505-9.33-3.49-12.455-4.95-3.08-9.581-2.396-12.045 1.574-1.049 1.665-1.323 3.399-.775 4.995.502 1.711 1.893 3.034 3.604 4.791 3.718 3.764 5.497 5.178 3.878 7.778-1.232 1.962-3.81 2.236-6.661.479-2.92-1.847-3.718-4.448-2.19-7.345l-2.692-1.688c-2.532 4.152-1.323 8.417 3.239 11.269 4.585 2.851 8.988 2.144 11.269-1.506 2.304-3.627.548-6.113-3.33-10.059-3.194-3.262-4.927-4.814-3.354-7.323 1.438-2.258 4.244-2.578 7.528-.502 3.262 2.03 4.152 5.27 2.304 8.326z"/><path d="m88.259 245.041c2.92-2.898 6.844-2.943 9.718-.229 3.376 3.148 3.057 8.167-1.049 12.569-4.38 4.608-8.942 5.27-12.547 1.917-2.691-2.532-3.239-5.498-1.483-8.281l-2.372-2.235c-2.943 3.946-2.327 8.759 1.757 12.591 5.064 4.768 11.588 4.221 16.834-1.368 5.749-6.136 5.977-12.592 1.027-17.246-4.38-4.06-9.969-4.083-14.28.046z"/><path d="m65.95 182.811-10.836 1.529-.433-3.148-2.35.296.434 3.171-4.927.662.433 2.965 4.882-.661.387 2.623 2.35-.32-.342-2.623 11.793-1.619c2.692-.411 3.559-1.483 3.171-4.312-.068-.616-.319-1.437-.593-2.304l-2.532.342c.16.708.274 1.232.319 1.574.183 1.278-.319 1.643-1.756 1.825"/><path d="m62.551 177.816-.274-8.19-2.714.069.273 8.235z"/><path d="m69.896 163.513.57-3.308-18.91-8.805 20.827-1.962.593-3.193-22.948-10.699-.548 3.125 18.226 8.395-20.051 1.825-.639 3.422 18.386 8.508-20.142 1.529-.57 3.17z"/><path d="m83.72 121.745 1.437-2.623-15.535-8.668-1.46 2.623zm-18.409-10.242 1.46-2.623-2.988-1.665-1.438 2.6z"/><path d="m87.826 115.13 1.825-2.327-13.345-10.47c-2.783-2.19-3.422-4.106-1.688-6.296 1.414-1.802 3.445-2.03 5.27-.593 2.03 1.551 2.121 3.604.364 5.863l-.319.433 1.962 1.528.296-.433c2.236-2.851 4.494-3.331 6.958-1.369 2.463 1.916 2.829 4.722 1.14 6.866-.228.32-.593.662-1.049.981l2.213 1.711c.593-.502 1.095-.958 1.414-1.391 2.578-3.285 1.871-7.779-2.03-10.858-2.304-1.803-4.882-2.076-6.958-.708.434-1.893-.342-3.649-2.304-5.155-2.897-2.281-6.455-1.756-8.987 1.483-2.783 3.513-2.304 6.98 1.528 9.991z"/><path d="m167.437 71.766 2.92.114.319-9.9c.114-3.353 1.871-5.019 5.064-4.95.251 0 .48.045.708.068l.114-3.148c-.274-.045-.502-.045-.776-.091-2.35-.068-4.015 1.049-5.041 3.445l.114-3.194-2.852-.137z"/><path d="m190.249 74.024 2.965.593 2.19-11.337c.319-1.711.547-3.079.046-4.38-.662-1.756-2.35-2.897-4.973-3.399-2.487-.456-4.608.16-6.023 1.848l1.734-8.987-2.943-.594-4.63 24.021 2.965.57 1.985-10.333c.547-3.034 2.943-4.563 6.091-3.97 2.851.525 3.261 2.145 2.668 5.224z"/><path d="m226.245 68.39-2.623-1.483-5.749 9.969c-.867 1.528-1.528 2.737-1.483 4.106.092 1.802 1.255 3.513 3.445 4.767 2.349 1.323 4.562 1.415 6.638.274l-1.323 2.281 2.509 1.437 8.828-15.443-2.578-1.483-4.767 8.326c-2.008 3.399-4.585 4.289-7.551 2.578-2.463-1.437-2.395-3.079-.775-5.862z"/><path d="m234.046 87.757c-2.6 3.125-2.19 6.478 1.255 9.444 3.604 3.125 7.049 3.17 9.421.433 2.076-2.395 1.46-4.38-.73-7.391l-1.734-2.418c-1.163-1.597-1.528-2.509-.661-3.513 1.049-1.186 2.577-1.026 4.38.548 1.824 1.551 2.258 3.399 1.094 4.881l2.213 1.916.046-.091c2.144-2.486 1.528-5.862-1.665-8.623-3.217-2.828-6.411-2.828-8.418-.501-1.916 2.258-1.551 4.128.548 7.071l1.961 2.852c1.095 1.505 1.438 2.463.457 3.581-1.095 1.3-2.989 1.14-4.951-.57-2.121-1.848-2.463-3.81-1.026-5.749z"/><path d="m260.827 129.479 1.368 2.691 10.265-5.224c1.529-.821 2.783-1.482 3.445-2.668.981-1.597.867-3.627-.342-6.023-1.141-2.167-2.852-3.421-5.315-3.695l2.304-1.186-1.301-2.532-15.831 8.121 1.392 2.668 8.987-4.607c3.103-1.62 5.726-.753 7.255 2.189 1.3 2.532.319 3.856-2.487 5.293z"/><path d="m270.818 132.695 2.578 7.801 2.555-.821-2.555-7.847z"/><path d="m270.042 180.279-.068 3.057 11.52.342c1.71.091 3.125.091 4.311-.616 1.642-.935 2.487-2.737 2.601-5.429.091-2.555-.89-4.494-2.761-5.68l9.148.32.114-3.012-24.431-.73-.114 2.92 10.516.342c3.079.137 4.995 2.19 4.881 5.452-.114 2.875-1.596 3.513-4.722 3.422z"/><path d="m269.039 187.83-.548 2.965 23.975 4.654.593-2.966z"/><path d="m260.621 215.067-1.596 3.011 3.284 1.71 1.597-3.011z"/><path d="m238.951 245.086-2.51 2.304 2.532 2.692 2.51-2.304z"/><path d="m226.952 254.484-2.829 2.008 7.003 24.955 2.852-1.984-6.182-20.667 17.565 12.706 2.805-2.008z"/><path d="m218.238 260.05-3.057 1.506 1.711 3.33 3.011-1.551z"/><path d="m154.754 57.509c-.182 0-.388 0-.616.023-2.92.433-4.38 2.418-4.174 5.817l4.79-.662 4.859-.661c-.479-3.08-2.19-4.654-4.859-4.517zm5.452 9.261 2.92-.41c-.069 3.992-2.692 6.775-6.843 7.322-.502.069-1.004.114-1.529.114-4.06-.114-6.934-3.079-7.642-8.212-.867-6.091 1.711-9.968 6.547-10.676.411-.022.753-.068 1.095-.068 4.425-.16 7.391 2.623 8.098 7.938.091.434.114.844.16 1.278l-8.258 1.14-4.494.616c.525 3.171 2.167 4.973 4.494 5.178.479.069.958.023 1.415 0 2.417-.365 3.877-1.893 4.037-4.22zm-50.664 20.302c1.802.32 3.673-.114 5.452-1.277 4.243-2.692 4.836-7.459 1.391-12.774-1.984-3.103-4.379-4.859-6.843-5.293-1.779-.273-3.627.137-5.429 1.301-4.22 2.737-4.836 7.459-1.391 12.82 1.984 3.079 4.379 4.836 6.82 5.223zm0-22.537c3.65.205 7.003 2.418 9.741 6.592 1.688 2.624 2.577 5.178 2.691 7.505v1.072c-.182 3.399-2.03 6.365-5.383 8.555-2.35 1.482-4.722 2.189-7.049 2.075-3.581-.205-6.98-2.44-9.718-6.615-1.688-2.623-2.554-5.155-2.668-7.505v-1.004c.159-3.421 2.007-6.41 5.406-8.599 2.35-1.529 4.722-2.19 6.98-2.076zm25.138-2.144c-.707-.092-1.437 0-2.19.273-3.33 1.118-4.265 3.787-2.806 8.007 1.096 3.194 2.852 4.927 4.996 5.11.662.091 1.415 0 2.19-.274 3.08-1.049 4.22-4.015 2.897-7.893-1.141-3.285-2.943-5.041-5.087-5.223zm-4.767 17.724-7.939-23.131 2.783-.935 2.966 8.645c.616-2.349 2.144-3.946 4.448-4.767.821-.274 1.688-.434 2.509-.434 3.399 0 6.41 2.373 7.961 6.912 1.894 5.521.091 9.9-4.334 11.406-1.277.433-2.486.547-3.627.365-.935-.16-1.848-.548-2.737-1.141l.753 2.145z"/><path d="m206.079 70.238c-.319-.069-.593-.114-.866-.16-2.144-.388-3.285.114-3.878 1.848-.525 1.642.159 2.965 2.167 3.627.89.319 1.756.433 2.577.433 1.917-.091 3.445-1.049 4.015-2.737l.867-2.51c-1.574.251-3.125-.159-4.882-.501zm0 7.938c-1.323.228-2.623.16-3.923-.319-3.467-1.164-4.836-3.787-3.741-6.912 1.049-3.08 3.513-4.152 7.573-3.285 2.464.502 4.038.981 4.859.935.867-.068 1.004-.433 1.414-1.551.571-1.734-.365-3.011-2.897-3.878-1.368-.479-2.463-.547-3.285-.228-.821.297-1.414.958-1.756 1.985l-2.669-.936.046-.114c.707-2.121 2.258-3.399 4.379-3.718 1.209-.205 2.647 0 4.221.502 3.444 1.186 5.155 2.851 5.201 5.155v.205c0 .662-.16 1.369-.434 2.122l-2.851 8.417c-.434 1.187-.502 1.734.502 2.076.205.091.433.114.752.16l-.752 2.19c-.662-.046-1.209-.114-1.711-.32-1.916-.616-2.555-1.779-2.008-3.421-.958.41-1.938.775-2.92.935"/><path d="m257.815 95.398c1.917.206 3.673 1.209 5.042 2.989 1.209 1.505 1.848 3.102 1.87 4.676v.548c-.068 2.349-1.437 4.607-4.014 6.638-.365.273-.708.547-1.05.775l-1.848-2.304-6.09-7.801c-2.943 2.372-3.399 5.201-1.46 7.687 1.483 1.916 3.513 2.418 5.634 1.369l1.848 2.304c-3.536 1.916-7.208 1.095-9.809-2.213-3.011-3.832-2.167-8.44 2.373-11.999 2.669-2.075 5.246-2.942 7.504-2.669zm0 9.307 1.871 2.396c2.623-2.122 3.011-4.631 1.141-7.003-.867-1.095-1.871-1.711-3.012-1.917-1.254-.159-2.668.229-4.151 1.209z"/><path d="m285.828 158.038c.479.046.981 0 1.528-.114 3.239-.547 3.604-2.577 2.943-6.204l-1.027-5.589-3.444.616-4.722.821 1.026 5.589c.548 3.125 1.551 4.722 3.696 4.881zm5.703-15.625 1.642 9.352c.411 2.053.684 3.741.137 5.384-.753 2.235-2.601 3.672-5.292 4.151-.776.137-1.529.183-2.19.114-1.597-.251-2.874-1.026-3.901-2.418-.205 2.167-1.437 2.875-3.992 3.513l-3.901.958c-1.482.411-2.349.799-2.623 1.62l-.662.114-.661-3.764c.707-.616 1.802-.889 3.194-1.232l3.125-.752c3.536-.89 3.604-1.917 2.897-6.045l-.981-5.293-10.265 1.848-.593-3.239 18.363-3.285z"/><path d="m273.92 210.96c3.285.708 5.43-.433 6.456-3.284 1.049-3.126-.639-5.772-4.973-7.277-.502-.183-1.026-.297-1.483-.388-3.125-.57-5.52.639-6.41 3.285-1.094 3.125.548 5.794 4.814 7.231.57.205 1.072.365 1.596.433zm12.113 7.186-12.113-4.129-11.017-3.764.935-2.737 2.098.707c-1.231-2.03-1.505-4.174-.73-6.364 1.255-3.673 4.494-5.521 8.714-4.973.844.114 1.757.319 2.646.661 5.635 1.917 8.007 6.068 6.524 10.448-.821 2.327-2.303 3.855-4.493 4.562l8.371 2.852z"/><path d="m256.173 248.325c1.049-.159 2.03-.752 2.897-1.756 1.962-2.236 1.711-4.745-.661-7.163l-2.236 2.578-4.174 4.813c1.437 1.209 2.851 1.711 4.174 1.528zm-7.733-4.699-1.916 2.236c-2.578-3.057-2.418-6.889.319-10.037 2.487-2.874 5.886-3.536 9.33-1.894.981.479 1.962 1.095 2.897 1.917 2.578 2.281 3.947 4.653 4.06 7.003v.821c-.068 1.597-.752 3.171-1.984 4.562-1.483 1.734-3.171 2.669-4.973 2.897-2.235.274-4.699-.616-7.117-2.737-.297-.274-.662-.593-.981-.89l8.098-9.307.342-.388c-.114-.114-.228-.205-.342-.273-2.783-2.145-5.475-1.985-7.459.273-1.597 1.871-1.734 3.947-.274 5.817"/><path d="m67.182 131.075 3.604-8.052c-1.323-.57-2.532-.776-3.604-.548-1.324.274-2.373 1.255-3.08 2.783-1.209 2.692-.274 5.042 2.692 6.684zm7.938-6.045 1.209-2.691c2.121 1.391 3.285 3.353 3.399 5.588v.936c-.069 1.003-.297 2.053-.822 3.17-1.984 4.449-6.432 5.84-11.724 3.513-5.612-2.555-7.574-6.797-5.543-11.268 1.208-2.692 3.125-4.289 5.543-4.677 1.756-.274 3.764.069 5.953 1.05.388.159.821.342 1.209.547l-5.269 11.771c3.467 1.437 6.159.57 7.459-2.327 1.004-2.213.502-4.243-1.414-5.612"/><path d="m64.604 205.531c.525-.091.981-.205 1.528-.365 4.266-1.209 5.977-3.741 5.042-7.094-.845-2.943-3.126-4.22-6.57-3.673-.456.069-.935.137-1.483.297-4.22 1.209-5.976 3.764-5.041 7.072.867 2.988 3.125 4.311 6.524 3.763zm2.35 2.578c-.822.228-1.597.388-2.35.502-4.517.502-7.802-1.688-9.056-6.091-.205-.707-.32-1.368-.388-2.03v-1.528c.319-3.399 2.76-5.977 7.14-7.231.776-.229 1.574-.388 2.304-.457 4.585-.547 7.87 1.643 9.124 6.045.183.707.297 1.369.388 2.031v1.574c-.319 3.398-2.783 5.976-7.162 7.185"/><path d="m65.813 216.663c.479.206.958.479 1.369.822-.457-2.19.524-3.24 2.737-4.608l3.399-2.122c1.346-.821 2.03-1.437 2.03-2.327l.593-.319 1.802 3.399c-.479.776-1.437 1.369-2.669 2.144l-2.737 1.688c-3.125 1.916-2.874 2.897-.89 6.638l2.509 4.722 9.262-4.881 1.528 2.942-18.933 9.992-2.692 1.414-4.402-8.372c-1.027-1.87-1.757-3.399-1.757-5.11.023-2.349 1.323-4.288 3.741-5.588 1.802-.936 3.513-1.05 5.11-.434zm0 14.417 5.634-3.011-2.646-5.041c-.958-1.757-1.893-2.92-2.988-3.354-.958-.433-2.053-.273-3.422.434-2.942 1.551-2.669 3.558-.912 6.843l2.669 4.996z"/></g></g></svg>