<svg clip-rule="evenodd" fill-rule="evenodd" stroke-linejoin="round" stroke-miterlimit="2" viewBox="0 0 560 400" xmlns="http://www.w3.org/2000/svg"><g fill="#00dc06" fill-rule="nonzero"><path d="m413.809 131.481c-27.813 0-45.973 19.049-45.973 50.544 0 39.115 27.812 50.291 47.75 50.291 14.986 0 29.21-6.096 39.496-16.891l-12.826-12.826c-6.858 6.096-14.732 9.778-26.416 9.778-15.493 0-25.907-9.016-25.907-21.462h69.086c-.127-.127 11.938-59.434-45.21-59.434m-23.876 42.416c0-16.763 12.7-24.764 26.288-24.764 13.589 0 25.908 8.255 25.908 24.764z"/><path d="m159.434 172.247c-8.889-1.143-34.416-.127-34.416-11.811 0-6.858 10.795-10.668 20.574-10.668 10.413-.127 20.573 2.794 29.209 8.382l13.335-13.208c-3.937-3.175-18.542-13.461-42.544-13.461-21.844 0-41.528 11.429-41.528 29.717 0 28.066 33.908 28.066 48.005 29.463 8.635.889 16.382 1.397 16.382 9.779 0 7.874-11.938 12.191-21.208 12.191-15.113 0-24.13-4.952-33.019-12.953l-14.224 14.35c12.319 11.938 28.955 18.415 46.1 18.288 25.399 0 43.814-11.176 43.814-33.654 0-14.859-10.033-23.749-30.48-26.415"/><path d="m232.33 131.481c-14.096-.128-27.939 4.699-38.988 13.461l13.335 13.335c7.493-5.588 16.51-8.509 25.78-8.382 16.891 0 21.971 6.731 21.971 14.351v9.524h-30.098c-11.176 0-33.019 2.794-33.019 27.305 0 18.033 10.286 31.241 34.924 31.241 12.318 0 21.716-3.937 28.193-11.684v9.779h21.843v-64.641c0-22.606-13.842-34.289-43.941-34.289m22.225 63.625c0 18.668-13.335 17.652-25.146 17.652-11.81 0-19.684-3.175-19.684-11.556 0-7.747 6.223-10.414 19.177-10.414h25.653z"/><path d="m343.706 133.513v10.794c-7.492-8.509-16.382-12.826-28.447-12.826-20.7 0-31.368 11.556-34.924 24.002-1.397 4.572-1.778 13.335-1.778 26.288 0 12.192.127 23.368 4.318 31.876 5.969 11.938 20.32 18.669 32.384 18.669 11.684 0 21.59-4.572 28.447-12.446v6.096c0 7.112-2.413 11.811-6.984 15.494-4.572 3.683-10.287 5.969-18.288 5.969-7.239 0-14.097-3.937-18.033-6.731l-14.732 14.731c9.525 7.747 20.827 12.954 33.146 13.081 11.811.254 23.367-3.556 32.638-11.049 8.763-6.858 14.351-19.938 14.351-33.654v-90.294zm0 48.258c0 7.493-.127 13.081-.762 16.002-1.397 6.223-8.508 14.477-21.462 14.477-3.302 0-19.811-1.905-21.716-16.255-.508-4.699-.762-9.525-.635-14.224 0-11.175.508-14.731 1.016-17.525 1.143-5.588 8.508-13.97 21.335-13.97 15.621 0 20.7 10.668 21.462 14.859.635 5.461.889 11.048.762 16.636"/></g></svg>