<svg clip-rule="evenodd" fill-rule="evenodd" stroke-linejoin="round" stroke-miterlimit="2" viewBox="0 0 560 400" xmlns="http://www.w3.org/2000/svg"><path d="m297.456 816.337h-2.315v7.841c0 2.088 1.228 3.396 3.774 3.396 2.818 0 3.746-1.741 3.746-3.396v-7.841h-2.313v7.696c0 1.229-.461 1.89-1.452 1.89-.857 0-1.44-.532-1.44-1.89zm-10.983 7.644c-.12 1.912.414 3.594 3.276 3.594 1.772 0 3.872-.328 3.872-3.194 0-3.479-4.662-3.294-4.662-5.394 0-.766.446-1.182 1.196-1.182.928 0 1.061.848 1.061 1.673h2.261c.151-2.312-.968-3.324-3.22-3.324-2.824 0-3.645 1.376-3.645 3.113 0 3.291 4.656 3.419 4.656 5.41 0 .744-.384 1.248-1.168 1.248-1.271 0-1.308-.879-1.308-1.944zm-11.734-7.644h-2.31v11.053h2.31zm-14.242.002h-5.753v11.052h2.331v-4.817h3.268v-1.701h-3.268v-2.838h3.422zm-7.564-.002h-2.313v11.053h2.313zm-6.71.002h-2.315v11.052h5.772v-1.833h-3.457zm.172-14.165c0-.759.45-1.177 1.189-1.177.936 0 1.076.842 1.076 1.668h2.249c.155-2.311-.96-3.32-3.216-3.32-2.814 0-3.648 1.377-3.648 3.105 0 3.301 4.66 3.423 4.66 5.411 0 .749-.374 1.258-1.16 1.258-1.27 0-1.322-.884-1.322-1.948h-2.312c-.121 1.907.412 3.595 3.273 3.595 1.775 0 3.867-.329 3.867-3.195 0-3.482-4.656-3.298-4.656-5.397m10.964 4.257h-2.207l1.06-4.776h.03zm1.104 4.162h2.429l-2.997-11.066h-3.05l-3.057 11.066h2.281l.624-2.464h3.156zm9.094 5.746h-6.03v11.052h6.158v-1.694h-3.849v-3.231h3.435v-1.7h-3.435v-2.731h3.721zm2.979-5.749h2.245v-11.06h-3.602l-1.838 7.523h-.026l-1.734-7.523h-3.717v11.06h2.247v-8.535h.032l2.017 8.535h2.211l2.136-8.535h.029zm6.259-8.416c0-.759.444-1.177 1.193-1.177.933 0 1.076.842 1.076 1.668h2.247c.158-2.311-.966-3.32-3.215-3.32-2.819 0-3.647 1.377-3.647 3.105 0 3.301 4.66 3.423 4.66 5.411 0 .749-.38 1.258-1.165 1.258-1.272 0-1.317-.884-1.317-1.948h-2.312c-.123 1.907.41 3.595 3.274 3.595 1.767 0 3.866-.329 3.866-3.195 0-3.482-4.66-3.298-4.66-5.397m5.929 14.165v7.655h-.032l-2.94-7.655h-3.121v11.052h2.156v-8.078h.03l3.02 8.078h3.043v-11.052zm7.773-8.972v-7.84h-2.306v7.686c0 1.234-.464 1.904-1.471 1.904-.848 0-1.425-.543-1.425-1.904v-7.686h-2.315v7.84c0 2.083 1.232 3.398 3.771 3.398 2.818 0 3.746-1.743 3.746-3.398m7.03 3.223h3.049v-11.06h-2.151v7.653h-.034l-2.94-7.653h-3.116v11.06h2.156v-8.092h.022zm9.145.179c.92 0 2.511-.253 3.139-.371v-5.601h-3.575v1.7h1.253v2.448c-.354.123-.765.213-1.144.213-1.325 0-1.657-.613-1.657-4.075 0-2.142 0-4.09 1.44-4.09 1.225 0 1.389.904 1.375 1.936h2.308c.133-2.319-1.279-3.582-3.55-3.582-3.782 0-3.922 2.824-3.922 5.62 0 4.191.452 5.802 4.333 5.802m2.272 8.726c0 .703-.26 1.622-1.18 1.622h-1.027v-3.079h1.027c.729 0 1.18.401 1.18 1.457m.292 2.482v-.034c1.493-.242 2.045-1.303 2.045-2.706 0-1.882-1.01-2.901-2.581-2.901h-4.276v11.057h2.313v-4.578h.596c1.778 0 1.651 1.128 1.651 2.442 0 .715-.054 1.471.252 2.136h2.259c-.213-.456-.255-2.536-.255-3.241 0-1.996-1.502-2.115-2.004-2.176m8.416 1.269h-2.211l1.064-4.776h.023zm1.1 4.146h2.431l-2.997-11.056h-3.055l-3.06 11.056h2.281l.628-2.448h3.154zm8.668 0h3.043v-11.052h-2.158v7.655h-.034l-2.943-7.655h-3.119v11.052h2.159v-8.078h.031zm7.154-5.526c0-2.833.164-4.058 1.468-4.058.681 0 .949.556.949 2.029h2.26c.095-2.381-.856-3.681-3.209-3.681-3.819 0-3.819 2.79-3.819 5.71 0 2.9 0 5.712 3.819 5.712 2.154 0 3.337-.948 3.337-3.902h-2.283c-.029.868.015 2.252-1.054 2.252-1.304 0-1.468-1.224-1.468-4.062m6.194 5.526h6.163v-1.695h-3.844v-3.231h3.428v-1.7h-3.428v-2.73h3.715v-1.696h-6.034zm92.944-9.463h-3.39l-2.282-7.489h-.038l.123 7.489h-2.368v-9.36h3.538l2.112 7.197h.045l-.121-7.197h2.38zm-10.512-2.592c.004.175-.015.531-.022.621-.147 1.556-1.262 2.35-3.308 2.35-2.05 0-3.167-.794-3.311-2.35-.004-.09-.023-.446-.019-.621v-6.771h2.439v6.986c0 .154.003.272.022.348.031.158.185.661.868.661.688 0 .847-.503.882-.661.011-.076.019-.199.019-.348v-6.986h2.433zm-8.837.856c-.261 1.833-2.056 2.153-3.321 2.153-2.106 0-3.411-.898-3.411-2.73l.004-.751h2.549v.932c0 .505.361.812.911.812.49 0 .777-.195.876-.599.046-.186.07-.464-.015-.673-.472-1.173-3.786-1.748-4.186-3.655-.093-.438-.096-.801-.023-1.268.278-1.726 1.94-2.086 3.272-2.086 1.199 0 2.067.261 2.59.781.386.389.584.924.584 1.587v.685h-2.384v-.603c0-.514-.323-.813-.834-.813-.458 0-.734.203-.822.604-.019.081-.039.276.011.471.259 1.049 3.801 1.69 4.188 3.617.048.249.116.776.011 1.536m-8.969 1.833h-2.403l-.06-8.212h-.038l-1.53 8.212h-2.44l-1.518-8.212h-.043l-.057 8.212h-2.414l.208-9.457h3.886l1.13 7.028h.058l1.133-7.028h3.884zm-12.313 0h-2.583l-1.231-8.373h-.045l-1.263 8.373h-2.602l1.748-9.457h4.242zm61.113-12.322c-1.213-6.951-22.109-9.124-46.675-4.848-10.314 1.796-19.628 4.446-26.882 7.428 1.112.026 1.94.281 2.446.782.388.395.587.934.587 1.604v.69h-2.408v-.614c0-.505-.305-.816-.844-.816-.453 0-.729.2-.824.607-.023.111-.026.304.015.479.259 1.054 3.835 1.709 4.223 3.656.053.248.117.781.015 1.548-.228 1.57-1.603 2.176-3.356 2.176-2.448 0-3.444-1.162-3.444-2.763v-.751h2.583l.003.942c0 .528.386.821.91.821.49 0 .786-.202.888-.611.042-.185.065-.466-.023-.677-.475-1.197-3.815-1.756-4.227-3.695-.094-.44-.101-.809-.023-1.278.038-.254.116-.471.212-.67-8.047 3.763-12.754 7.902-12.131 11.478 1.217 6.954 22.109 9.124 46.669 4.85 10.799-1.885 20.507-4.697 27.894-7.852l-.322.019c-1.68 0-3.185-.631-3.337-2.347-.03-.311-.03-.446-.038-.622l.004-3.955c0-.165.019-.465.038-.619.204-1.664 1.512-2.346 3.332-2.346 1.406 0 3.133.401 3.325 2.348.027.242.027.504.027.586v.376h-2.438v-.557c0-.011-.004-.217-.026-.348-.044-.199-.208-.66-.908-.66-.684 0-.862.461-.904.66-.019.109-.034.268-.034.439v4.292c0 .149.004.268.019.354.007.064.133.66.929.66.795 0 .917-.596.925-.66.023-.121.027-.256.023-.354v-1.326h-.959v-1.436h3.384v2.547c0 .175 0 .303-.026.623-.048.448-.189.832-.409 1.157 7.837-3.721 12.397-7.795 11.788-11.315" fill="#003f98" fill-rule="nonzero" transform="matrix(2.37695 0 0 2.37695 -549.726 -1733.52)"/></svg>