<svg clip-rule="evenodd" fill-rule="evenodd" viewBox="0 0 560 400" xmlns="http://www.w3.org/2000/svg" xmlns:xlink="http://www.w3.org/1999/xlink"><clipPath id="a"><path clip-rule="evenodd" d="m11.152 6.027h119.109v129.703h-119.109z"/></clipPath><g transform="matrix(2.08942 0 0 2.08942 132.268 51.8922)"><path d="m70.785 135.496c3.758 0 9.32-3.062 14.992-7.176 17.567-12.836 44.246-43.183 44.246-81.156 0-6.473-.757-13.047-2.464-19.824l-.649-2.707h-2.902c-.906 0-1.664 0-2.41.055-.602 0-1.161.05-1.707.05h-4.168c-.25 0-.453-.05-.649-.05h-4.011l.347-3.715v-1.399c0-.656-.051-1.715-.347-2.769-.301-.895-1.102-2.703-3.411-3.157-1.461-.304-3.714-.757-6.429-1.25-1.649-.304-3.5-.652-5.407-1.054-.211-.051-.414-.106-.609-.106-.254-.05-.453-.093-.652-.144-.797-.149-1.657-.305-2.453-.453-8.829-1.707-18.211-3.461-20.516-4.114l-.906-.254-.907.254c-2.304.653-11.687 2.407-20.519 4.114-.797.148-1.649.304-2.449.453-.2.051-.399.094-.653.144-.199 0-.398.055-.601.106-1.914.402-3.766.75-5.418 1.054-2.715.493-4.965.946-6.43 1.25-2.305.454-3.101 2.262-3.406 3.157-.297 1.054-.348 2.113-.348 2.769v1.399l.348 3.715h-4.012c-.199 0-.398.05-.652.05h-4.113c-.547 0-1.106-.05-1.704-.05-.761-.055-1.507-.055-2.41-.055h-2.906l-.652 2.707c-1.703 6.777-2.461 13.394-2.461 19.863 0 37.934 26.633 68.281 44.191 81.117 5.676 4.114 11.293 7.176 15.051 7.176z" fill="#fff" fill-rule="nonzero"/><g clip-path="url(#a)"><path d="m0 0c3.758 0 9.32 3.062 14.992 7.175 17.567 12.836 44.246 43.184 44.246 81.157 0 6.472-.758 13.046-2.465 19.824l-.648 2.707h-2.902c-.907 0-1.664 0-2.411-.055-.601 0-1.16-.051-1.707-.051h-4.168c-.25 0-.453.051-.648.051h-4.012l.348 3.715v1.398c0 .657-.051 1.715-.348 2.77-.3.894-1.101 2.703-3.41 3.156-1.461.305-3.715.758-6.43 1.25-1.648.305-3.5.653-5.406 1.055-.211.051-.414.105-.609.105-.254.051-.453.094-.653.145-.796.148-1.656.305-2.453.453-8.828 1.707-18.211 3.461-20.515 4.113l-.907.254-.906-.254c-2.304-.652-11.687-2.406-20.519-4.113-.797-.148-1.649-.305-2.45-.453-.199-.051-.398-.094-.652-.145-.199 0-.398-.054-.601-.105-1.914-.403-3.766-.75-5.418-1.055-2.715-.492-4.965-.945-6.43-1.25-2.305-.453-3.102-2.262-3.406-3.156-.297-1.055-.348-2.113-.348-2.77v-1.398l.348-3.715h-4.012c-.199 0-.398-.051-.652-.051h-4.114c-.547 0-1.105.051-1.703.051-.762.055-1.508.055-2.41.055h-2.906l-.653-2.707c-1.703-6.778-2.46-13.395-2.46-19.864 0-37.933 26.632-68.281 44.191-81.117 5.676-4.113 11.293-7.175 15.051-7.175z" fill="none" stroke="#000" stroke-width=".47" transform="matrix(1 0 0 -1 70.7852 135.496)"/></g><g fill-rule="nonzero"><path d="m70.82 9.906c-4.261 1.149-29.242 5.77-36.312 7.168-2.317.504 1.051 11.09-1.36 11.09-6.976 0-5.925.149-15.699 0-14.5 57.691 41.985 103.633 53.371 103.738h.157v-121.953c-.051-.043-.106-.043-.157-.043" fill="#bf142e"/><path d="m123.965 28.078c-9.785.149-8.735 0-15.699 0-2.411 0 .949-10.586-1.411-11.09-6.964-1.398-31.546-5.914-36.164-7.125v121.953c11.688-.453 67.719-46.296 53.274-103.738" fill="#025191"/><path d="m24.695 62.133 1.051-.254.254 1.105.453-.105-.254-1.106.906-.199.305 1.106.453-.098-.453-1.805-3.316.797.453 2.008.453-.105z"/><path d="m37.637 88.668c-.199-.305-.051-.609.254-.809.347-.242.746-.242.945.051.16.305.105.656-.297.856-.398.25-.703.199-.902-.098m1.156.812c.609-.398.812-1.054.359-1.757-.453-.707-1.211-.707-1.609-.45-.508.301-.652.903-.297 1.45.149.25.242.359.402.453-.507.144-1.253-.055-1.664-.602l-.347.199c.758.961 2.156 1.305 3.156.707"/><path d="m39.941 92.133c-.199-.254-.054-.61.254-.813.344-.242.746-.242.946.055.211.25.156.598-.243.852-.398.25-.703.199-.957-.094m1.2.742c.609-.398.757-1.051.304-1.754-.504-.695-1.25-.652-1.652-.398-.453.355-.609.957-.199 1.504.148.199.242.355.402.398-.508.156-1.254 0-1.707-.492l-.305.195c.801.949 2.211 1.254 3.157.547"/><path d="m26.754 69.602c-.145-.399.203-.704.613-.852.547-.199.946-.105 1.051.293.148.359-.199.656-.609.812-.399.094-.895.149-1.055-.253m1.297.906c.504-.199 1.062-.707.812-1.453-.109-.254-.359-.504-.656-.61l1.402-.496-.203-.597-3.406 1.199.254.597.25-.093c-.106.254-.199.496-.106.8.254.653 1 .852 1.653.653"/><path d="m30.406 70.16-3.355 1.25.199.606 3.359-1.254z"/><path d="m42.656 94.195c-.199.145-.496.094-.695.039-.051-.242-.106-.597.148-.746.25-.199.504-.148.653.055.199.25.093.547-.106.652m-1.304 1.145c-.254.199-.602.199-.801-.106-.25-.293-.145-.597.097-.796.305-.254.606-.204.852-.098.051.242.156.75-.148 1m1.703-1.969c-.399-.547-.903-.797-1.356-.441-.347.242-.347.601-.308.894-.293-.144-.797-.293-1.196 0-.453.36-.453 1.012 0 1.61.453.601 1.102.851 1.598.507.41-.359.305-.957.25-1.265.254.16.762.254 1.012.054.453-.347.402-.855 0-1.359"/><path d="m35.078 86.953c-.199-.242.106-.691.852-1.148.707-.399 1.215-.45 1.359-.2.199.297-.105.696-.758 1.149-.797.453-1.304.504-1.453.199m1.813.371c.652-.359 1.254-1.16.8-1.906-.453-.758-1.457-.609-2.105-.199-.957.547-1.305 1.398-.906 2 .359.597 1.25.703 2.211.105"/><path d="m32.922 83.301c-.149-.293.16-.692.957-1.145.707-.359 1.199-.398 1.359-.105.145.304-.105.707-.812 1.051-.852.453-1.305.507-1.504.199m1.801.453c.703-.399 1.355-1.145.906-1.902-.402-.801-1.41-.653-2.106-.293-.957.543-1.359 1.347-1.011 1.941.359.656 1.261.762 2.211.254"/><path d="m34.332 79.398-.758-.652-.25.242.555.504-2.66 1.36.304.597 3.051-1.554z"/><path d="m25.348 65.09c-.055-.203.054-.348.449-.453l1.16-.348.148.598.348-.051-.203-.652.707-.149-.297-.597-.555.144-.097-.344-.305.094.051.359-1.301.344c-.508.149-.707.453-.558.957.05.203.156.403.304.551l.305-.148c-.051-.106-.156-.161-.156-.305"/><path d="m30.461 77.336 1.105-.504.305.547.293-.094-.293-.601.652-.305-.398-.547-.508.242-.148-.293-.305.149.149.3-1.254.602c-.454.199-.598.504-.399 1 .106.199.254.398.399.504l.254-.199c-.051-.106-.145-.149-.2-.254-.105-.199 0-.399.348-.547"/><path d="m30.715 75.434c.051.093.051.199.051.293l.496.054c.105-.148.105-.347.05-.508-.093-.148-.296-.199-.453-.253l-.199-.04.356-.16-.25-.597-2.211.957.254.601 1.105-.453c.492-.254.746-.098.801.106"/><path d="m25.852 66.645c-.055-.149.05-.305.253-.399.243-.051.493.055.649.305l.246.297c-.695.25-1.098.05-1.148-.203m1.507.757c.704-.199.704-.757.555-1.207-.105-.297-.254-.601-.609-.8l-.2.304c.157.094.36.254.411.547.039.199 0 .399-.211.504l-.348-.504c-.305-.453-.652-.703-1.105-.601-.45.148-.602.55-.493.906.043.199.243.398.438.496l.16.105c-.105.051-.25.094-.305.2l.2.652c.156-.149.359-.254.558-.305z"/><path d="m29.926 72.918c.094.293-.055.492-.41.598l-.348-.852c.305-.144.598-.105.758.254m-1.613.801c-.157-.348.054-.801.496-.957l.609 1.461c.695-.2 1.105-.758.852-1.461-.25-.657-.903-.949-1.61-.696-.746.293-1.051.997-.746 1.704.094.253.293.546.602.8l.25-.304c-.157-.098-.356-.293-.453-.547"/><path d="m37.941 90.973c-.101-.149-.304-.2-.503-.106-.149.16-.2.36-.098.559.098.148.351.199.5.051.195-.102.195-.301.101-.504"/><path d="m33.734 84.848c-.203.105-.254.359-.148.558.094.149.348.199.496.094.199-.094.25-.293.156-.492-.105-.16-.359-.254-.504-.16"/><path d="m91.813 108.984c4.3-3.722 8.652-8.961 13.304-16.019 4.641-7.035 5.91-12.656 5.91-16.703 0-4.449-1.535-6.985-1.797-7.387-.332-.723-1.066-1.164-1.625-1.328-.562-.16-1.07-.094-1.433.183-.289.219-.563.625-1.059 1.364-1.008 1.504-2.883 4.301-6.25 7.172-4.023 3.41-18.761 9.691-25.054 12.379l-3.141 1.367c-1.797.863-1.945 2.566-1.762 3.441.004.129.008.391.012.539-.094-.117-.258-.316-.34-.418-.437-.781-1.664-1.969-3.598-1.449 0 .004-3.261 1.02-3.261 1.02-6.489 2.078-21.649 6.933-26.985 7.027.383.531.766 1.062 1.157 1.582 6.246-.602 19.66-4.895 26.332-7.035l3.175-.992c1.165-.317 1.665.515 1.754.687l.039.078.059.074 3.434 4.168v-.035l.019.043v-6.648c.133-.219.344-.434.695-.602.008-.004 3.059-1.328 3.059-1.328 6.902-2.941 21.262-9.066 25.477-12.641 3.543-3.019 5.5-5.941 6.55-7.507.227-.336.469-.696.614-.875.207.035.566.234.644.441l.035.094.055.086c.031.039 1.496 2.301 1.496 6.508 0 3.765-1.172 9.093-5.59 15.785v.004c-4.609 6.992-8.906 12.156-13.125 15.785l-.109.09-.07.121c-.672 1.156-1.723 3.445-1.723 6.457 0 1.402.234 2.957.832 4.629.445-.395.891-.801 1.344-1.215-.364-1.227-.516-2.375-.516-3.422 0-2.559.856-4.492 1.442-5.52" fill="#fff"/><path d="m70.895 130.734c-.075-.394-.149-.808-.231-1.242-1.394-7.476-6.57-10.035-8.73-10.789l-.133-.043h-.145c-3.472.02-7.363-.402-11.758-1.269.782.726 1.559 1.425 2.325 2.097 3.382.555 6.461.828 9.281.824 1.945.704 6.32 2.977 7.535 9.481.047.246.086.477.129.715.578.156 1.086.238 1.512.25.066-.004.144-.02.215-.024" fill="#fff"/><path d="m117.902 80.344c-13.246 30.547-40.476 50.215-47.203 50.265-6.773-.105-33.965-19.761-47.199-50.211-4.371-10.039-7.18-21.222-7.18-33.113 0-5.715.653-11.586 2.106-17.605 2.609.054 4.367.054 5.765.054 1.411 0 2.411 0 3.461-.054h5.328c2.352 0 2.301-2.957 2.301-3.715 0-.945-.093-2.156-.199-3.207-.102-1.156-.199-2.211-.199-3.106 0-.609.051-.957.097-1.156 2.461-.508 6.719-1.305 11.54-2.262 9.335-1.757 20.773-3.914 24.179-4.808 3.41.894 14.848 3.051 24.184 4.808 4.805.957 9.082 1.754 11.531 2.262.051.199.102.547.102 1.156 0 .895-.102 1.95-.2 3.106-.101 1.051-.199 2.262-.199 3.207 0 .758-.055 3.715 2.305 3.715h5.316c1.102.054 2.114.054 3.516.054 1.351 0 3.152 0 5.762-.054 1.461 5.968 2.117 11.84 2.117 17.562 0 11.879-2.809 23.074-7.231 33.102m7.575-52.422-.305-1.051h-1.051c-3.262.055-5.312.106-6.867.106-1.402 0-2.414 0-3.465-.051-1.25 0-2.609-.055-4.863-.055 0-.148-.047-.453-.047-.906 0-.797.101-1.852.199-2.953.102-1.11.195-2.305.195-3.36 0-.863 0-3.418-2-3.82-2.406-.492-6.882-1.355-11.89-2.305-9.785-1.851-21.57-4.113-24.336-4.871l-.348-.093-.347.093c-2.766.758-14.551 3.02-24.325 4.871-5.019.95-9.492 1.813-11.89 2.305-2.012.402-2.012 2.957-2.012 3.82 0 1.055.094 2.25.199 3.36.106 1.101.203 2.156.203 2.953 0 .453-.054.758-.054.906-2.254 0-3.61.055-4.809.055-1.105.051-2.062.051-3.461.051-1.558 0-3.621-.051-6.871-.106h-1.062l-.297 1.051c-1.649 6.621-2.407 13.09-2.407 19.363 0 36.977 26.082 66.774 43.34 79.356 5.672 4.168 10.731 6.726 13.793 6.777 3.063-.051 8.125-2.609 13.797-6.777 17.309-12.582 43.391-42.434 43.391-79.399 0-6.269-.754-12.699-2.41-19.32"/><path d="m71.77 41.148-2.555 1.489-.957 1.488-.211 4.254 2.766 1.809 1.914-.532z" fill="#025191"/><path d="m73.293 44.086c-.055 1.223-1.227 1.805-3.395 1.75.325-1.539 1.012-2.766 2.286-2.863.746 0 1.168.476 1.109 1.113m14.547-2.707h-6.156l.265-1.492c.156-.793.844-1.324 1.485-1.324.207 0 .472 0 .742.054.054.946.746 1.903 1.961 1.903 1.113 0 2.394-.79 2.394-2.594 0-.746-.691-1.914-2.074-1.914-.477 0-.957.156-1.32.476-.809-.265-1.598-.32-2.129-.32-2.129 0-4.567 1.281-5.106 4.086l-.211 1.125h-1.589l-.157.902c-.691-.855-2.015-1.226-3.453-1.226-.851 0-1.82.187-2.762.59v.011l-.156.114v-.055c-2.109.961-4.035 3.035-4.144 6.613 0 1.492.902 4.356 3.879 4.356 2.222 0 4.351-.848 5.945-1.75l-.848-1.758c-1.011.476-1.801.902-2.875.902-2.066 0-1.902-1.906-1.855-2.387 3.238.102 6.804-1.277 6.804-3.66 0-.215 0-.426-.054-.636h.898l-1.703 9.019h3.988l1.696-9.019h2.179l-1.75 9.175c-.211 1.125-.644 1.973-.8 2.395-.266.426-.747.902-1.227.961l-.363 2.015c3.773 0 5.679-1.918 6.426-5.625z" fill="#fff"/><path d="m114.859 44.719c-.214 4.035-1.593 5.679-2.437 5.679-.961 0-1.227-.843-1.227-2.07 0-3.183 1.594-4.988 2.606-4.988.422 0 1.113.367 1.058 1.379m1.758-8.598-1.168 6.473h-.058c-.477-.957-1.321-1.539-2.649-1.539-3.109 0-5.527 3.226-5.722 6.859.015.016.031.031.043.047l-.055.473c.012 2.183.859 3.726 2.148 4.14l.512.102c.062.004.133.008.203.008 1.856 0 3.086-.903 3.93-1.438l-.211 1.168h3.988l3.016-16.293z" fill="#fff"/><path d="m58.906 50.402c-.902 0-1.226-.847-1.226-2.074 0-3.183 1.593-4.988 2.605-4.988.426 0 1.16.367 1.113 1.379-.21 4.035-1.648 5.683-2.492 5.683m4.254-14.281-1.226 6.473h-.055c-.422-.957-1.324-1.539-2.652-1.539-3.184 0-5.735 3.508-5.735 7.332 0 2.593 1.172 4.297 2.863 4.297 1.915 0 3.141-.903 3.989-1.438l-.215 1.168h3.934l3.074-16.293z" fill="#fff"/><path d="m37.398 44.719c-.21 4.035-1.593 5.679-2.449 5.679-.949 0-1.269-.843-1.269-2.07 0-3.183 1.593-4.988 2.652-4.988.434 0 1.113.367 1.066 1.379m.747-3.34-.211 1.215c-.481-.957-1.325-1.539-2.649-1.539-3.242 0-5.793 3.508-5.793 7.332 0 2.593 1.223 4.297 2.918 4.297 1.86 0 3.086-.903 3.93-1.438l-.211 1.168h3.93l2.117-11.035z" fill="#fff"/><path d="m51.043 41.055c-1.324 0-2.973.793-4.254 2.34l-.047-.055.426-1.973h-3.934l-2.07 11.047h3.988l.903-4.93c.308-1.55.945-3.668 2.492-3.668.269 0 .734.157.793 1.059 0 .211 0 .426-.059.582l-1.269 6.957h3.988l1.324-7.113c.156-.746.211-1.328.211-1.863-.109-1.59-.801-2.383-2.492-2.383" fill="#fff"/><path d="m94.055 43.082c.847 0 1.172 1.27 1.058 2.762-.211 4.933-2.019 4.879-2.285 4.879-1 0-1.324-1.27-1.324-2.973 0-1.805.848-4.668 2.551-4.668m-1.594 9.602c4.566 0 6.852-3.34 6.852-6.426 0-2.172-1.336-5.203-5.215-5.203-3.707 0-6.735 3.031-6.735 6.484 0 2.172 1.59 5.145 5.098 5.145" fill="#fff"/><path d="m25.984 40.734c0-.425.481-1.425 1.704-1.425.691 0 1.226.097 1.859.421l1.383-1.972c-.961-.52-1.707-1.113-3.664-1.113-3.032 0-5.469 1.703-5.469 4.355 0 1.168.48 1.973 1.535 3.508 1.117 1.484 1.918 2.441 1.918 3.453 0 .957-.859 1.961-2.074 1.961-1.012 0-1.703-.367-2.449-.793l-1.481 2.074c.848.844 2.817 1.481 4.567 1.481 3.128 0 5.625-1.75 5.625-4.778 0-1.113-.637-2.551-1.75-3.988-1.223-1.59-1.704-2.438-1.704-3.184" fill="#fff"/><path d="m107.273 41.055c-1.437 0-2.226 1.75-2.492 2.226l-.269.426h-.157l.469-2.34h-3.976l-2.071 11.047h3.985l.906-4.723c.039-.211.086-.41.137-.593l.019-.094c.004 0 .004 0 .012-.004.508-1.687 1.519-2.07 2.324-2.07.633 0 .848.156 1.113.215l1.86-3.243c-.477-.476-1.012-.847-1.86-.847" fill="#fff"/><path d="m101.48 62.508c-.421 0-.73-.156-1.054-.535.265-2.864 1.437-4.09 2.281-4.09.535 0 .801.379.801 1.383 0 1.324-.688 3.242-2.028 3.242m1.864-5.625c-.793 0-1.539.367-2.231 1.168l.75-3.985h-1.492l-.23 1.204c.004-.012.011-.024.019-.036l-.582 3.086c-.008.012-.016.028-.023.039l-.934 4.95h1.539l.051-.422c.371.363.902.578 1.441.578 2.493 0 3.45-2.649 3.45-4.242 0-1.809-.957-2.34-1.758-2.34" fill="#fff"/><path d="m107.809 62.352c-.59 0-1.016-.536-1.016-1.325 0-2.23 1.328-3.132 1.961-3.132.59 0 .746.046 1.172.468-.27 3.242-1.383 3.989-2.117 3.989m3.921-5.313h-1.539l-.101.422c-.266-.422-.899-.578-1.434-.578-1.918 0-3.453 2.226-3.453 4.242 0 1.383.692 2.34 1.805 2.34.957 0 1.703-.535 1.914-.746l.312-.367-.211.957h1.547l.989-5.344c.004-.059.015-.121.035-.192z" fill="#fff"/><path d="m91.828 62.563c-.961 0-1.383-.747-1.383-1.918 0-1 .368-2.86 1.805-2.86.805 0 1.113.746 1.113 1.649 0 2.707-1.054 3.129-1.535 3.129m.512-5.68c-1.594 0-3.555 1.215-3.555 3.875 0 1.437 1.113 2.707 2.707 2.707 2.231 0 3.508-1.961 3.508-3.988 0-1.215-.742-2.594-2.66-2.594" fill="#fff"/><path d="m89.957 57.035h-1.383l.211-1c.113-.801.649-.957.903-.957.218 0 .437.055.589.11l.426-.856c-.324-.211-.797-.266-1.113-.266-.848 0-2.07.586-2.399 2.239l-.097.73h-.903l-.156.86h.903l-1.012 5.414h1.48l1.016-5.414h1.379z" fill="#fff"/><path d="m97.086 62.293-.172-.313v-.32l.059-.422c.007-.015.015-.027.023-.043.012-.054.02-.109.031-.172l.692-3.14h1.152c.152-.285.297-.567.438-.848h-1.434l.32-1.902-1.547.367-.308 1.535h-.746l-.156.848h.789l-.692 3.355c-.367 1.649.27 2.227 1.324 2.227.536 0 1.071-.156 1.606-.426l-.164-.801c-.211.114-.426.211-.75.211-.09 0-.199-.012-.297-.066-.004.008-.012.015-.016.023z" fill="#fff"/><path d="m114.012 63.309h1.48l1.762-9.243h-1.539z" fill="#fff"/><path d="m112.16 60.121c-.008-.039-.019-.082-.031-.125l-.613 3.313h1.484l1.762-9.243h-1.539l-.774 4.18c.012.024.02.047.028.07z" fill="#fff"/></g></g></svg>