<svg clip-rule="evenodd" fill-rule="evenodd" stroke-linejoin="round" stroke-miterlimit="2" viewBox="0 0 560 400" xmlns="http://www.w3.org/2000/svg"><g fill-rule="nonzero" transform="matrix(.859824 0 0 -.859824 155.799 324.329)"><g fill="#2747a3"><path d="m26.156 54.217-.003-5.393c-.004-.398-.273-.724-.635-.724h-.072c-1.914.181-6.102.543-8.817.543-.434 0-.837-.181-.749-.687.045-.254.305-.507 1.34-1.05l5.105-2.715c2.755-1.483 4.116-3.691 4.493-5.862 1.214-6.985-4.235-9.989-10.497-9.989-3.112 0-5.727.471-7.752 1.086-.308.108-.702.289-.758.615-.007.036-.013.072-.019.109l.003 5.392c.003.399.309.723.707.723h.072c1.51-.144 5.391-.614 7.78-.614.832 0 1.457.362 1.3 1.267-.051.289-.282.579-.966.977l-5.433 3.148c-2.659 1.556-3.841 3.982-4.2 6.044-1.169 6.731 3.563 8.867 9.607 8.867 3.112 0 7.181-.507 8.789-1.014.344-.108.63-.289.686-.615.006-.036.006-.036.013-.073z"/><path d="m51.842 47.485-.046-18.059c-.003-.398-.381-.724-.779-.724h-7.057c-.362 0-.623.253-.68.579-.006.036-.012.072-.019.109l-.006.036.009 7.238h-5.357l-.009-7.238c-.003-.398-.344-.724-.743-.724h-7.056c-.109 0-.224.036-.303.072-.236.109-.369.254-.413.507-.006.036-.013.072-.019.109l-.006.036.046 18.059c.013 7.42 4.68 8.469 9.747 8.469h2.968c4.162 0 8.64-1.194 9.545-6.406.107-.615.191-1.303.178-2.063zm-9.755 1.158h-2.968c-.905 0-1.151-.253-1.174-1.158l-.038-3.945h5.356l.038 3.945c.005.181-.021.326-.04.435-.093.542-.451.723-1.174.723"/><path d="m78.038 46.942-.019-.724c-.131-4.451-2.357-6.225-4.172-7.021l4.971-9.446c.055-.108.074-.217.087-.289.081-.47-.303-.76-.628-.76h-7.601c-.398 0-.533.362-.705.724l-4.301 8.505h-1.375l-.006-8.505c-.003-.398-.344-.724-.743-.724h-7.056c-.362 0-.66.253-.722.615-.007.036-.013.073-.02.109l.054 23.017c.007 2.245.607 2.75 2.541 3.077 1.236.181 5.425.434 7.923.434 6.587 0 10.838-2.389 11.643-7.021.107-.615.154-1.303.129-1.991zm-11.003 1.882h-2.715l-.004-4.56h2.715c1.809 0 2.478.942 2.49 1.918l.019.724c.004.181-.021.326-.046.471-.158.904-.903 1.447-2.459 1.447"/><path d="m124.985 54.217-.004-5.393c-.003-.398-.272-.724-.634-.724h-.073c-1.913.181-6.102.543-8.816.543-.434 0-.838-.181-.749-.687.044-.254.305-.507 1.34-1.05l5.105-2.715c2.755-1.483 4.115-3.691 4.493-5.862 1.214-6.985-4.237-9.989-10.497-9.989-3.112 0-5.727.471-7.752 1.086-.308.108-.702.289-.759.615-.006.036-.013.072-.019.109l.005 5.392c.003.399.308.723.706.723h.072c1.509-.144 5.391-.614 7.779-.614.833 0 1.457.362 1.3 1.267-.05.289-.281.579-.965.977l-5.433 3.148c-2.66 1.556-3.841 3.982-4.199 6.044-1.17 6.731 3.561 8.867 9.605 8.867 3.112 0 7.182-.507 8.789-1.014.346-.108.63-.289.686-.615.007-.036.007-.036.013-.073z"/><path d="m103.465 46.508.008-.253c.274-8.035-6.538-9.446-11.605-9.446-.723 0-1.127.036-2.183.072l-.007-7.455c-.004-.398-.345-.724-.743-.724h-6.949c-.326 0-.676.145-.734.47-.006.037-.012.073-.018.109l.064 23.162c.008 2.245.608 2.75 2.542 3.077 1.832.289 5.426.434 7.922.434 4.887 0 10.503-1.919 11.535-7.854.088-.506.176-1.013.168-1.592zm-11.549 2.316h-2.208l-.019-4.886h2.207c1.846 0 3.161.761 3.108 2.317l-.008.253c.011.145-.014.29-.039.434-.232 1.339-1.377 1.882-3.041 1.882"/><path d="m150.322 48.028-.008-.579c-.044-2.243-.877-3.909-2.504-4.958 1.242-.905 2.281-2.715 2.559-4.307.05-.289.065-.579.071-.832l-.003-.398c-.047-7.637-6.357-8.614-12.255-8.614-1.304 0-5.298.072-7.279.434-1.533.29-2.218.688-2.431 1.918-.057.326-.06.76-.07 1.231l.024 20.484c.007 2.244.637 2.786 2.57 3.113 1.796.289 5.97.434 7.272.434 6.478 0 11.14-1.629 11.946-6.261.087-.507.116-1.086.108-1.665zm-10.603-8.541h-2.969l-.017-4.271h2.968c1.918 0 2.538 1.014 2.536 2.063l-.001.218c.011.144-.021.325-.046.47-.163.941-.842 1.52-2.471 1.52zm-.003 9.591h-2.967l.016-4.053h2.968c1.882 0 2.402.759 2.412 1.737l.009.579c.017.108-.002.217-.02.325-.133.76-.789 1.412-2.418 1.412"/><path d="m175.894 43.721.005-3.148c.011-9.845-5.547-12.233-11.554-12.233-5.248 0-10.099 2.714-11.231 9.229-.163.941-.225 1.918-.233 3.004l-.003 3.148c.002 9.772 5.546 12.233 11.554 12.233 5.247 0 10.092-2.678 11.224-9.192.163-.942.231-1.955.238-3.041zm-11.493 4.705c-2.027 0-2.893-1.267-2.874-4.705l.004-3.148c0-.833.053-1.557.154-2.136.321-1.845 1.171-2.57 2.691-2.57 2.027 0 2.892 1.268 2.874 4.706l-.004 3.148c-.001.833-.054 1.557-.155 2.136-.32 1.845-1.17 2.569-2.69 2.569"/><path d="m258.274 43.721.004-3.148c.009-9.845-5.548-12.277-11.172-12.277-4.913 0-9.099 2.269-10.159 8.784-.153.941-.211 2.407-.219 3.493l-.003 3.415c.003 9.771 5.193 12.188 10.818 12.188 4.913 0 9.403-2.278 10.463-8.792.153-.941.261-2.577.268-3.663zm-10.716 5.461c-1.898 0-2.708-1.267-2.691-4.705l-.041-4.615c0-.833.05-1.557.145-2.136.3-1.846 1.096-2.57 2.519-2.57 1.898 0 2.707 1.267 2.691 4.706l.039 4.615c0 .832-.049 1.556-.144 2.135-.299 1.845-1.095 2.57-2.518 2.57"/><path d="m278.474 42.605c1.134-.9 3.405-2.216 3.54-5.703.221-5.668-4.875-8.562-10.932-8.562-6.205 0-11.177 2.699-11.291 8.295-.065 3.21 1.894 4.893 3.405 6.087-1.468.906-3.262 3.285-3.135 6.418.203 4.977 5.54 7.026 11.109 6.993 6.274-.037 10.232-3.139 10.287-8.743.02-2.073-1.426-3.789-2.983-4.785zm-7.604 2.512c2.583.022 2.853 1.595 2.802 2.978-.057 1.516-1.269 2.302-2.802 2.302-1.714 0-2.859-1.112-2.727-2.981.065-.922.933-2.315 2.727-2.299zm.181-5.461c-1.366.024-2.919-.638-2.829-2.876.075-1.871 1.18-2.614 2.712-2.614 1.66 0 3.004.867 2.812 2.995-.159 1.767-1.347 2.471-2.695 2.495"/><path d="m201.772 46.942-.019-.724c-.131-4.451-2.356-6.225-4.173-7.021l4.971-9.446c.055-.108.075-.217.088-.289.081-.47-.303-.76-.629-.76h-7.599c-.399 0-.535.362-.705.724l-4.301 8.505h-1.376l-.006-8.505c-.003-.398-.345-.724-.742-.724h-7.058c-.361 0-.66.253-.722.615-.006.036-.012.073-.019.109l.053 23.017c.009 2.245.608 2.75 2.542 3.077 1.236.181 5.425.434 7.923.434 6.588 0 10.838-2.389 11.643-7.021.107-.615.155-1.303.129-1.991zm-11.004 1.882h-2.715l-.002-4.56h2.714c1.809 0 2.477.942 2.489 1.918l.019.724c.004.181-.02.326-.046.471-.157.904-.902 1.447-2.459 1.447"/><path d="m225.34 54.035.02-5.319c.01-.471-.176-.652-.539-.652h-.108c-1.033.109-4.152.362-6.397.362-3.944 0-5.259-.76-5.255-4.74l.005-3.15c.005-.868.052-1.556.153-2.135.459-2.642 1.817-2.75 2.685-2.75.326 0 .863.036 1.176.108l.027 6.514c.003.399.344.724.742.724h6.767c.363 0 .624-.253.681-.579.006-.036.018-.108.024-.145l-.028-12.123c-.001-.616-.103-.652-.765-.797-2.199-.47-5.253-1.013-8.655-1.013-4.054 0-9.949 1.846-11.219 9.157-.163.94-.273 1.99-.251 3.112l.008 3.077c.029 11.074 6.446 12.268 11.91 12.268 3.909 0 6.664-.651 8.266-1.122.495-.144.683-.181.733-.47.019-.11.031-.181.02-.327"/><path d="m213.017 168.023c4.374 12.289 5.381 19.482 5.381 19.482s-3.057 2.4-8.888 5.152c1.893 18.076-1.764 26.835-1.764 26.835s-20.168 17.893-62.36 22.238c-36.918 3.802-59.971 19.171-59.971 19.171s-5.926-9.135-8.849-27.859c-5.732 2.123-9.659 5.896-9.659 5.896s-7.828-36.971 12.964-92.94c23.176-62.389 59.463-83.495 59.463-83.495.002 0 .155.109.442.329 3.188 2.068 23.622 15.879 47.384 44.665 25.203 30.531 33.75 53.979 33.75 53.979s-3.322 3.357-7.893 6.547"/></g><path d="m185.592 108.698c-10.854-13.151-21.055-23.176-29.19-30.357 8.399 8.896 19.22 21.807 30.881 39.414 12.879 19.447 20.543 36.171 25.043 48.366 2.794-1.998 5.07-4.024 6.251-5.127-2.043-5.001-11.382-26.127-32.985-52.296" fill="#fff"/><path d="m205.166 217.813c-.883.706-2.831 2.182-5.841 4.043-8.442 5.309-26.212 14.219-53.689 17.05-27.339 2.815-47.93 12.07-55.648 15.996-1.347.705-2.487 1.339-3.412 1.871-.58-1.195-1.299-2.81-2.071-4.832-1.314-3.359-2.985-8.514-4.299-15.478-.149-.778-.295-1.57-.433-2.389-2.63-15.554-3.633-41.677 6.526-77.798 10.305-36.638 24.613-59.52 34.801-72.264 1.609-2.012 3.165-3.833 4.655-5.491 5.446-6.092 9.769-9.65 11.912-11.262.522-.403.991-.752 1.395-1.045.01.009.02.019.029.027.032-.02.049-.031.049-.031s28.871 23.756 50.942 71.253c8.707 18.738 13.099 34.359 15.152 46.693 1.084 5.918 1.578 10.914 1.744 14.968.435 10.599-1.21 16.809-1.812 18.689" fill="#fff"/><path d="m88.801 250.591c-1.528-3.873-3.678-10.568-5.01-20.064-2.069-14.749-2.533-39.448 7.005-73.362 1.971-7.01 4.169-13.777 6.579-20.262 5.006 17.849 21.966 31.022 42.057 31.022 21.848 0 39.992-15.577 43.089-35.807 1.165 2.306 2.315 4.68 3.449 7.118 12.1 26.043 15.482 45.675 16.188 57.557.583 9.82-.515 16.097-1.071 18.526-1.823 1.386-6.201 4.46-13.109 7.768-8.609 4.122-23.027 9.464-42.822 11.502-27.157 2.798-47.684 11.676-56.355 16.002" fill="#2747a3"/><path d="m153.363 87.39c-4.648-2.138-9.41-3.377-13.931-3.377-5.012 0-9.92.836-14.53 2.413 5.979-7.462 11.047-12.099 13.99-14.516 2.924 2.727 8.009 7.766 14.118 15.058.117.139.234.28.353.422" fill="#2747a3"/><path d="m173.515 139.19-6.585-3.939c-1.367 1.046-4.518 3.062-6.865 4.504-3.231 1.982-6.227 3.539-7.53 4.32-.466 1.501-1.365 4.288-2.12 6.006-.722 1.645-1.707 3.456-2.276 4.464.763.511 2.863 1.687 3.923 2.271 1.363.751 3.213 1.609 3.213 1.609s3.315-.94 6.628-3.193c3.314-2.253 5.861-3.555 5.861-3.555s-.049.06-.141.171c-3.072 3.304-6.734 6.067-10.824 8.129-2.899 1.337-5.117 1.934-5.117 1.934s1.093-.891 1.678-1.735c.532-.771-5.996-4.002-7.324-4.564-1.553.235-4.008.553-6.537.667-.323.014-.644.021-.961.021-2.566 0-4.909-.437-6.166-.721-1.564.936-6.7 3.862-6.7 4.348 0 .442 1.531 2.054 2.411 2.524-.886-.267-1.757-.565-2.614-.892-.439-.168-.873-.343-1.303-.526-4.838-2.054-9.158-5.058-12.716-8.775.818.765 2.654 1.485 4.297 2.54 2.047 1.314 6.222 3.027 7.099 3.027.878 0 1.922-.245 3.774-1.278 1.597-.89 3.193-2.269 3.601-2.632-.728-1.025-1.376-2.235-2.126-3.74-.806-1.616-1.566-4.348-1.959-5.891-1.089-.447-4.162-1.762-7.479-3.5-3.226-1.69-6.403-4.296-7.129-5.122l-6.143 3.81s-3.071-4.2-4.138-9.297c-.107-1.097-.162-2.211-.172-3.335 1.299-3.184 2.984-7.103 5.137-11.78l5.266 3.521c1.543-1.246 4.78-3.48 7.469-4.875 2.972-1.542 6.029-3.12 7.158-3.644.264-1.117.452-3.109 1.307-5.516.82-2.307 1.462-3.656 2.17-4.665-.42-.414-1.185-1.32-2.778-2.32-1.739-1.092-2.936-1.702-4.522-1.702-.458 0-.951.051-1.497.156-1.276.246-3.967 1.347-6.242 2.802.325-.549 1.967-2.508 4.606-4.217 4.22-2.732 4.962-2.912 7.307-3.767-.473.574-1.413 2.846-.882 3.21.618.424 5.283 3.442 6.26 4.104 1.179-.335 3.352-.773 6.788-.831.193-.003.384-.004.572-.004 3.373 0 5.549.505 6.679.867 1.64-1.02 6.992-4.683 7.161-5.087.132-.321-1.201-1.659-2.368-2.466 2.651.805 3.421 1.058 5.791 2.381 1.88 1.299 3.066 2.313 3.642 3.028-1.903-.96-3.641-1.052-3.641-1.052s-2.077.291-4.512 1.793c-1.948 1.2-3.201 2.586-3.88 3.213.742 1.009 1.35 2.194 1.96 3.9.677 1.893 1.449 4.466 1.857 5.861 1.257.592 4.148 1.987 7.889 3.996 3.811 2.047 6.022 3.774 6.885 4.508l6.175-4.131s4.485 4.506 4.679 12.206c.196 7.698-3.996 12.861-3.996 12.861zm-6.845-12.422c-.077-3.301-.873-5.831-1.262-7.028-1.139-.812-3.219-2.377-6.247-4.072-3.288-1.841-6.953-3.46-8.217-4.019l-11.44 6.52.185 18.006c1.526.864 3.31 1.81 6.043 3.26 3.202 1.701 5.466 2.6 5.96 2.816 1.472-.75 5.099-2.673 7.412-4.159 2.392-1.535 6.167-4.22 7.218-4.958.191-1.348.419-3.337.348-6.366zm-29.045 9.713-.374-18.412-9.807-5.766c-.825.383-3.953 1.578-7.915 3.589-4.306 2.186-6.243 4.33-7.578 5.361-.165 1.478-.392 3.033-.328 5.357.082 2.989.642 5.933.823 7.123 1.181 1.064 4.811 3.751 7.025 5.032 2.328 1.346 6.353 2.987 7.643 3.457 1.151-.652 2.933-1.458 5.074-2.655 2.268-1.27 4.311-2.373 5.437-3.086" fill="#2747a3"/><path d="m120.433 172.31c-7.463-2.397-12.888-7.713-12.888-7.713l3.124 22.95-12.329-.01-.013 20.472 9.967.004.006-11.571 3.973.001-.011 11.574 10.989.005.008-11.569 4.172.004-.009 11.569 11.57.007.018-20.498-3.542-.006.015-13.043s-7.783.156-15.05-2.176" fill="#fff"/><path d="m163.979 169.871c9.536-4.492 12.422-9.033 12.422-9.033l-2.089 26.709 11.81-.01.011 20.472-9.447.004-.007-11.571-3.973.001.013 11.574-10.989.005-.007-11.569-4.174.004.01 11.569-11.572.007-.018-20.498 3.544-.006-.021-13.084s6.541-.829 14.487-4.574" fill="#fff"/></g></svg>