<svg clip-rule="evenodd" fill-rule="evenodd" stroke-linejoin="round" stroke-miterlimit="2" viewBox="0 0 560 400" xmlns="http://www.w3.org/2000/svg" xmlns:xlink="http://www.w3.org/1999/xlink"><clipPath id="a"><path clip-rule="evenodd" d="m409.441 126.252v-43.63h147.796v43.63"/></clipPath><clipPath id="b"><path clip-rule="evenodd" d="m409.441 126.252v-43.63h147.796v43.63"/></clipPath><g fill="#009e4d" fill-rule="nonzero" transform="matrix(2.43579 0 0 -2.43579 -897.312 454.387)"><path d="m426.252 119.898c-3.379 1.5-5.394 2.082-7.395 2.082-2.1 0-3.445-.752-3.445-1.914 0-3.507 11.897-2.52 11.897-10.632 0-4.473-3.753-7.072-8.967-7.072-4.09 0-6.104 1.058-8.424 2.256v5.018c3.346-2.217 5.394-3 7.975-3 2.238 0 3.445.783 3.445 2.148 0 3.819-11.897 2.42-11.897 10.773 0 4.028 3.481 6.695 8.901 6.695 2.616 0 4.976-.549 7.91-1.811z"/><path d="m442.909 103.428c-1.983-.719-3.66-1.062-5.333-1.062-5.541 0-9.123 3.227-9.123 8.137 0 4.82 3.721 8.225 8.917 8.225 1.605 0 3.657-.411 5.298-1.022v-3.69c-1.299.69-2.803 1.068-4.034 1.068-2.974 0-4.887-1.787-4.887-4.545 0-2.797 1.881-4.638 4.715-4.638 1.196 0 2.259.274 4.447 1.093z"/><path d="m486.109 112.311c.203 2.19 1.475 3.456 3.423 3.456 1.915 0 3.213-1.302 3.418-3.456zm3.081 6.412c-4.862 0-8.323-3.434-8.323-8.266 0-4.868 3.599-8.091 9.146-8.091 1.229 0 4.201 0 7.032 2.095v3.081c-2.319-1.652-3.853-2.221-5.833-2.221-3.125 0-5.036 1.617-5.209 4.377h11.321c.235 5.761-3.547 9.025-8.134 9.025"/><path d="m499.239 102.653h4.95v15.779h-4.95z"/><path d="m517.964 106.966c-1.031-.928-1.888-1.3-2.945-1.3-2.331 0-3.806 1.918-3.806 4.793 0 3.15 1.475 4.966 3.97 4.966.893 0 2.059-.411 2.781-.926zm0 18.995v-8.221c-1.337.647-2.67.988-4.111.988-4.515 0-7.639-3.337-7.639-8.166 0-4.725 3.124-8.2 7.36-8.2 1.68 0 2.978.44 4.39 1.566v-1.27h4.949v23.303z"/><path d="m530.24 112.311c.206 2.19 1.471 3.456 3.416 3.456 1.918 0 3.229-1.302 3.434-3.456zm3.078 6.412c-4.861 0-8.316-3.434-8.316-8.266 0-4.868 3.599-8.091 9.14-8.091 1.227 0 4.205 0 7.043 2.095v3.081c-2.322-1.652-3.859-2.221-5.848-2.221-3.108 0-5.027 1.617-5.2 4.377h11.316c.235 5.761-3.55 9.025-8.135 9.025"/><g clip-path="url(#a)"><path d="m548.863 113.914h.073c1.469 3.284 3.114 4.824 5.023 4.824.989 0 1.842-.377 3.278-1.439l-1.362-4.375c-1.3.82-2.154 1.163-2.939 1.163-1.816 0-2.978-1.712-4.073-4.606v-6.807h-4.956v15.775h4.956z"/><path d="m504.421 125.07c.465-1.226-.372-2.936-1.863-3.816-1.497-.879-3.079-.6-3.54.626-.47 1.228.363 2.94 1.858 3.815 1.493.884 3.076.604 3.545-.625"/></g><path d="m460.738 112.696c0 4.276-2.906 6.027-5.774 6.027-1.95 0-3.553-.823-4.987-2.638h-.068v9.876h-4.955v-23.262h4.955v9.997c1.159 1.677 2.149 2.394 3.31 2.394 1.541 0 2.565-1.096 2.565-3.453v-5.543c1.662.854 3.351 1.378 4.954 1.573z"/><path d="m473.166 118.728c-2.018 0-3.559-.75-5.136-2.554v2.258h-4.953v-10.723c1.716-.171 3.905-.958 4.953-2.258v7.369c1.302 1.954 2.226 2.605 3.458 2.605 1.403 0 2.469-.926 2.469-3.151v-9.58h4.954v9.99c0 4.647-3.282 6.044-5.745 6.044"/><path d="m481.647 98.163h-5.756v-4.09h5.553v-1.755h-5.553v-4.219h5.928v-1.753h-7.858v13.568h7.686z"/><path d="m486.348 86.338h1.763v13.58h-1.763z"/><path d="m496.84 93.944c1.25 0 2.025-.861 2.083-2.214h-4.49c.243 1.413 1.056 2.214 2.407 2.214zm-2.439-3.391h6.281c0 3.311-1.513 4.909-3.882 4.909-2.458 0-4.165-1.817-4.165-4.527 0-2.477 1.542-4.764 4.318-4.764 1.513 0 2.491.336 3.574 1.055v1.716c-1.046-.685-2.061-1.08-3.129-1.08-1.708 0-2.722.916-2.997 2.691"/><path d="m512.195 92.942c-1.014.694-1.691.898-2.463.898-1.614 0-2.732-1.238-2.732-3.051 0-1.847 1.19-2.96 3.027-2.96.756 0 1.476.196 2.365.594v-1.739c-.594-.28-1.726-.513-2.66-.513-2.67 0-4.523 1.836-4.523 4.46 0 2.961 1.693 4.831 4.402 4.831 1.035 0 1.731-.241 2.584-.616z"/><path d="m520.228 95.291h2.83v-1.589h-2.83v-4.592c0-1.051.761-1.355 1.275-1.355.638 0 1.296.223 2.01.664v-1.654c-.619-.341-1.569-.594-2.151-.594-1.92 0-2.891 1.192-2.891 2.806v4.725h-1.555v.197l3.312 3.241z"/><path d="m529.8 95.291v-2.071h.036c.899 1.585 1.754 2.242 2.586 2.242.718 0 1.39-.337 2.129-1.036l-.934-1.554c-.537.531-1.231.897-1.65.897-1.214 0-2.167-1.234-2.167-2.763v-4.668h-1.761v8.953z"/><path d="m552.618 92.942c-1.019.694-1.695.898-2.472.898-1.61 0-2.719-1.238-2.719-3.051 0-1.847 1.191-2.96 3.017-2.96.757 0 1.473.196 2.374.594v-1.739c-.607-.28-1.74-.513-2.672-.513-2.666 0-4.527 1.836-4.527 4.46 0 2.961 1.701 4.831 4.41 4.831 1.037 0 1.726-.241 2.589-.616z"/><path d="m539.225 86.338h1.763v8.953h-1.763z"/><g clip-path="url(#b)"><path d="m541.047 98.507c.172-.432-.129-1.043-.659-1.354-.534-.312-1.099-.212-1.26.221-.161.437.131 1.043.667 1.355.529.316 1.091.215 1.252-.222"/><path d="m462.13 97.783c-.311 0-.442-.051-.569-.193-.05-.055-.07-.111-.088-.223l-1.581-5.996c-.371-2.103-2.954-4.203-6.321-4.203h-4.681l.812 3.081h3.007c.307 0 .547.114.748.338.074.087.17.223.183.363l1.248 5.239c.368 2.104 2.591 4.428 5.957 4.428h4.794l-.613-2.834zm1.08-3.654.535 1.94h4.87c.601 2.813.128 5.419-1.579 7.126-3.455 3.455-10.683 2.281-16.068-2.871-.841-.8-1.551-1.665-2.198-2.549h2.932l-.682-1.944h-3.503c-.335-.613-.649-1.221-.889-1.838h4.154l-.665-1.944h-4.082c-.698-2.97-.253-5.74 1.503-7.499 3.412-3.411 10.618-2.212 16 2.939.942.896 1.72 1.863 2.423 2.856h-3.767l.574 1.94h4.404c.323.617.62 1.227.852 1.844z"/></g></g></svg>