<svg clip-rule="evenodd" fill-rule="evenodd" stroke-linejoin="round" stroke-miterlimit="2" viewBox="0 0 560 400" xmlns="http://www.w3.org/2000/svg"><g fill="#243353" transform="matrix(2.38389 0 0 2.38389 30 177.715)"><path d="m0 15.477 1.78-2.115c1.612 1.394 3.223 2.188 5.316 2.188 1.827 0 2.982-.842 2.982-2.116v-.048c0-1.202-.673-1.851-3.801-2.572-3.584-.864-5.604-1.922-5.604-5.022v-.049c0-2.885 2.406-4.879 5.749-4.879 2.454 0 4.401.744 6.109 2.114l-1.587 2.237c-1.516-1.131-3.031-1.733-4.57-1.733-1.732 0-2.742.891-2.742 1.995v.049c0 1.298.769 1.875 3.992 2.644 3.561.865 5.412 2.139 5.412 4.928v.048c0 3.149-2.477 5.023-6.012 5.023-2.574 0-5.003-.889-7.024-2.692"/><path d="m14.141 11.704v-.049c0-3.604 2.79-6.633 6.591-6.633 2.404 0 3.895.89 5.074 2.187l-1.804 1.947c-.89-.937-1.829-1.587-3.295-1.587-2.116 0-3.656 1.828-3.656 4.039v.047c0 2.26 1.564 4.086 3.801 4.086 1.37 0 2.381-.648 3.295-1.585l1.755 1.73c-1.251 1.394-2.718 2.379-5.195 2.379-3.776 0-6.566-2.956-6.566-6.561"/><path d="m27.369.431h2.91v6.826c.818-1.202 1.996-2.235 3.968-2.235 2.863 0 4.522 1.922 4.522 4.879v8.076h-2.91v-7.21c0-1.972-.986-3.102-2.719-3.102-1.683 0-2.861 1.178-2.861 3.149v7.163h-2.91z"/><path d="m40.933 13.362v-8.076h2.91v7.211c0 1.97.987 3.101 2.718 3.101 1.684 0 2.862-1.178 2.862-3.15v-7.162h2.91v12.691h-2.91v-1.971c-.817 1.202-1.996 2.236-3.968 2.236-2.862 0-4.522-1.924-4.522-4.88"/><path d="m54.955.431h2.91v17.547h-2.91z"/><path d="m61.064 14.467v-6.681h-1.61v-2.5h1.61v-3.485h2.91v3.485h3.416v2.5h-3.416v6.224c0 1.13.578 1.588 1.565 1.588.648 0 1.226-.145 1.803-.433v2.379c-.722.409-1.539.65-2.622.65-2.141 0-3.656-.938-3.656-3.727"/><path d="m68.065 11.68v-.048c0-3.63 2.574-6.61 6.205-6.61 4.042 0 6.085 3.173 6.085 6.827 0 .264-.023.527-.048.816h-9.331c.313 2.067 1.78 3.221 3.656 3.221 1.418 0 2.428-.529 3.439-1.514l1.708 1.514c-1.203 1.442-2.863 2.379-5.196 2.379-3.679 0-6.518-2.667-6.518-6.585m9.405-.938c-.193-1.874-1.299-3.34-3.224-3.34-1.779 0-3.03 1.37-3.294 3.34z"/><path d="m84.83 1.153h7.503c2.117 0 3.776.624 4.859 1.681.889.913 1.394 2.163 1.394 3.63v.048c0 2.764-1.659 4.423-4.017 5.095l4.546 6.37h-3.486l-4.138-5.866h-3.704v5.866h-2.957zm7.287 8.34c2.116 0 3.463-1.107 3.463-2.813v-.048c0-1.803-1.299-2.788-3.488-2.788h-4.305v5.649z"/><path d="m99.741 11.704v-.049c0-3.629 2.885-6.633 6.782-6.633 3.895 0 6.757 2.957 6.757 6.586v.047c0 3.606-2.885 6.61-6.806 6.61-3.872 0-6.733-2.956-6.733-6.561m10.63 0v-.049c0-2.234-1.611-4.086-3.897-4.086-2.332 0-3.823 1.828-3.823 4.039v.047c0 2.213 1.61 4.086 3.872 4.086 2.356 0 3.848-1.85 3.848-4.037"/><path d="m115.637 14.467v-6.681h-1.61v-2.5h1.61v-3.485h2.91v3.485h3.416v2.5h-3.416v6.224c0 1.13.578 1.588 1.564 1.588.65 0 1.227-.145 1.804-.433v2.379c-.722.409-1.539.65-2.622.65-2.14 0-3.656-.938-3.656-3.727"/><path d="m123.694.431h2.909v6.826c.819-1.202 1.997-2.235 3.969-2.235 2.863 0 4.522 1.922 4.522 4.879v8.076h-2.91v-7.21c0-1.972-.986-3.102-2.718-3.102-1.684 0-2.863 1.178-2.863 3.149v7.163h-2.909z"/><path d="m144.693 16.271c-1.102 1.19-2.378 1.879-3.948 1.879-2.172 0-3.792-1.361-3.792-3.377v-.034c0-1.603 1.069-2.757 2.914-3.482-.828-.963-1.207-1.704-1.207-2.652v-.035c0-1.584 1.275-2.859 3.189-2.859 1.689 0 2.931 1.223 2.931 2.722v.034c0 1.533-1.087 2.516-2.846 3.136l2.759 2.808c.535-.775 1.017-1.688 1.449-2.688l1.12.517c-.534 1.137-1.086 2.171-1.741 3.032l2.103 2.154-1.034.793zm-.827-.844-3.223-3.325c-1.604.587-2.31 1.569-2.31 2.585v.034c0 1.292 1.034 2.275 2.517 2.275 1.136 0 2.137-.603 3.016-1.569zm-.362-6.891v-.035c0-.964-.724-1.67-1.707-1.67-1.086 0-1.827.758-1.827 1.739v.035c0 .706.293 1.24 1.207 2.223 1.534-.517 2.327-1.258 2.327-2.292z"/><path d="m149.566 15.79 9.934-12.017h-9.621v-2.62h13.47v2.186l-9.935 12.018h9.935v2.62h-13.783z"/><path d="m173.281 17.977v-1.563c-.867 1.034-2.189 1.828-4.113 1.828-2.405 0-4.521-1.371-4.521-3.918v-.049c0-2.812 2.188-4.158 5.147-4.158 1.538 0 2.525.217 3.511.528v-.239c0-1.755-1.107-2.716-3.127-2.716-1.419 0-2.477.312-3.631.793l-.794-2.332c1.395-.625 2.765-1.058 4.834-1.058 3.753 0 5.58 1.972 5.58 5.36v7.524zm.071-5.312c-.745-.289-1.778-.505-2.909-.505-1.828 0-2.91.745-2.91 1.971v.048c0 1.203 1.082 1.875 2.452 1.875 1.925 0 3.367-1.082 3.367-2.668z"/><path d="m181.339 16.006v1.971h-2.911v-17.546h2.911v6.971c.936-1.323 2.26-2.38 4.305-2.38 3.006 0 5.916 2.38 5.916 6.586v.047c0 4.207-2.887 6.587-5.916 6.587-2.093 0-3.415-1.058-4.305-2.236m7.262-4.351v-.047c0-2.452-1.658-4.063-3.631-4.063-1.972 0-3.704 1.635-3.704 4.063v.047c0 2.453 1.732 4.063 3.704 4.063 1.997 0 3.631-1.562 3.631-4.063"/><path d="m192.642 11.68v-.048c0-3.63 2.574-6.61 6.206-6.61 4.041 0 6.085 3.173 6.085 6.827 0 .264-.026.527-.049.816h-9.333c.314 2.067 1.781 3.221 3.656 3.221 1.42 0 2.43-.529 3.439-1.514l1.709 1.514c-1.202 1.442-2.862 2.379-5.196 2.379-3.68 0-6.517-2.667-6.517-6.585m9.403-.938c-.191-1.874-1.298-3.34-3.224-3.34-1.776 0-3.028 1.37-3.293 3.34z"/><path d="m206.831.431h2.91v17.547h-2.91z"/></g></svg>