<svg clip-rule="evenodd" fill-rule="evenodd" stroke-linejoin="round" stroke-miterlimit="2" viewBox="0 0 560 400" xmlns="http://www.w3.org/2000/svg"><g fill="#31ae56" fill-rule="nonzero" transform="matrix(.72698 0 0 .72698 93.3368 128.726)"><path d="m173.185 90.821c-5.572 0-13.408 3.821-13.408 19.168 0 15.363 7.836 19.179 13.408 19.179 5.567 0 13.408-3.816 13.408-19.179 0-15.352-7.841-19.168-13.408-19.168z"/><path d="m256.765 6.818c-76.098 0-144.166 12.647-189.589 32.548 35.201-9.335 82.01-16.672 129.304-16.672 114.538 0 193.628 33.077 193.628 76.681 0 32.101-47.061 66.627-114.935 66.627 41.984-12.612 69.537-29.846 69.537-51.736 0-41.092-82.431-70.017-182.708-70.017-71.918 0-146.722 13.597-152.836 53.797 0 50.378 110.852 91.218 247.599 91.218 136.748 0 247.6-40.84 247.6-91.218s-110.852-91.228-247.6-91.228zm-173.324 132.053c-18.015 0-21.114-11.536-21.114-18.335l9.48-2.061c.33 4.942 1.863 10.926 10.872 10.926 4.883 0 10.315-1.799 10.315-7.104 0-4.272-3.55-6.809-13.515-9.447-9.184-2.429-16.681-6.013-16.681-16.836 0-6.11 5.246-14.892 19.265-14.892 12.861 0 17.972 8.554 19.077 13.801l-8.588 3.351c-.776-2.41-2.948-7.967-10.959-7.967-3.918 0-8.214 1.803-8.307 5.722-.116 4.32 3.162 6.231 12.429 8.592 9.965 2.546 17.472 6.731 17.472 16.589-.005 15.731-15.421 17.661-19.746 17.661zm62.971-1.455h-38.43v-54.854h37.262v9.131h-26.734v12.39h24.61v9.136h-24.61v15.062h27.902zm26.773 1.455c-6.532 0-23.723-3.128-23.723-28.882 0-25.739 17.191-28.872 23.723-28.872 6.536 0 23.722 3.133 23.722 28.872-.005 25.754-17.19 28.882-23.722 28.882zm70.177-18.412c0 10.45-7.822 18.32-20.895 18.32s-20.91-7.87-20.91-18.32v-37.892h10.523v36.224c0 5.731 4.655 10.445 10.382 10.445 5.732 0 10.377-4.718 10.377-10.445v-36.224h10.523zm5.363 16.957v-54.854h10.523v45.491h27.451v9.363z"/></g></svg>