<svg clip-rule="evenodd" fill-rule="evenodd" stroke-linejoin="round" stroke-miterlimit="2" viewBox="0 0 560 400" xmlns="http://www.w3.org/2000/svg"><g transform="matrix(1.07466 0 0 1.07466 179.613 47.3054)"><path d="m93.377 283.808c-30.958-23.111-61.987-46.221-93.017-69.331v-190.569c23.83-6.264 47.516-9 71.13-10.152 3.096-7.775 11.736-13.39 21.887-13.39 10.223 0 18.862 5.615 21.886 13.39 23.686 1.152 47.372 3.888 71.203 10.152v190.569c-31.03 23.11-62.06 46.22-93.089 69.331z" fill="#2d2d2d"/><circle cx="93.377" cy="171.136" fill="#fff" r="40.821"/><path d="m68.179 203.246c6.983 5.471 15.695 8.711 25.198 8.711 22.534 0 40.821-18.286 40.821-40.821 0-18.79-12.743-34.629-30.022-39.381 6.191 7.632 9.215 17.639 9.215 28.726 0 23.614-19.222 42.837-42.836 42.837-.792 0-1.584-.072-2.376-.072z" fill="#e8e8e8"/><path d="m93.377 129.812c22.822 0 41.325 18.502 41.325 41.324 0 22.823-18.503 41.325-41.325 41.325-22.75 0-41.253-18.502-41.253-41.325 0-22.822 18.503-41.324 41.253-41.324zm4.895 1.367c8.28 2.304 13.391 5.184 16.919 8.424.072 1.512.144 3.096.072 4.607-.072 1.44-.216 2.88-.36 4.32-4.32-.288-8.855.36-13.607 1.944-2.304-1.656-4.679-3.168-7.199-4.464-2.664-1.44-5.4-2.663-8.352-3.599-.36-2.52-.144-4.896.504-7.128 2.016-1.08 4.032-1.944 6.12-2.664 1.944-.648 3.96-1.152 5.903-1.44zm17.495 8.64c1.584.288 3.168.72 4.68 1.368 5.687 5.111 9.935 11.807 11.951 19.366.216 2.592.072 4.896-.792 6.624-1.08-.72-2.232-1.44-3.384-2.016-1.368-.72-2.808-1.296-4.248-1.728-1.655-5.616-4.535-10.511-8.567-14.615.216-1.512.36-3.024.36-4.536.072-1.511.072-2.951 0-4.463zm-18.934-8.928c-1.584.288-3.096.72-4.68 1.224-2.088.72-4.176 1.584-6.264 2.736-3.887 0-7.919.216-12.023.936 5.76-3.24 12.455-5.04 19.511-5.04 1.152 0 2.304.072 3.456.144zm-26.638 7.2c-2.448 3.096-4.536 6.191-6.12 9.287-1.512.792-2.952 1.944-4.32 3.096-.792.72-1.511 1.368-2.231 2.088 3.023-5.832 7.415-10.799 12.671-14.471zm-13.391 15.911c1.008-1.008 2.159-2.088 3.311-3.096 1.368-1.224 2.808-2.304 4.32-3.096 2.304.864 4.392 2.16 6.192 3.816-1.08 5.687-1.224 11.303-.72 16.991-3.312 3.383-5.904 7.055-7.776 11.087-1.152-.432-2.304-1.008-3.456-1.728-1.367-.792-2.591-1.8-3.743-2.952-.576-4.392-1.584-9.143-.432-14.831.576-2.088 1.368-4.175 2.304-6.191zm-2.376 27.862c-.072-2.376 0-3.888.504-6.048 1.08 1.008 2.232 1.872 3.527 2.664 1.152.72 2.448 1.368 3.816 1.872 1.656 5.543 4.32 10.223 7.848 14.039.072 1.511.216 3.023.432 4.535.144 1.44.432 2.88.72 4.32-3.096-1.296-6.264-3.816-8.568-5.832-3.816-4.463-6.623-9.719-8.279-15.55zm28.294 28.221c-3.888-1.871-7.56-4.103-10.8-6.479-.36-1.584-.647-3.168-.863-4.752-.144-1.368-.288-2.736-.36-4.103 5.255.935 9.503-.288 13.463-2.088 2.087 1.8 4.463 3.383 7.127 4.751 2.592 1.368 5.328 2.52 8.279 3.456l-.216 7.847c4.104.072 7.848-.36 11.663-1.223-5.327 2.591-11.303 4.031-17.638 4.031-3.672 0-7.272-.504-10.655-1.44zm31.749-4.463c3.672-3.6 6.48-7.056 8.28-10.439h-.144c2.231-1.656 4.175-3.744 5.903-6.192 1.44-2.088 2.736-4.392 3.744-6.839-2.736 9.935-9.215 18.214-17.783 23.47zm-.072-13.895c.36-2.448.576-4.968.648-7.56.144-2.951.072-6.047-.288-9.359-4.607-2.88-9.287-5.615-14.543-8.063l-15.695 9.863-.144 15.551c2.088 1.8 4.536 3.383 7.2 4.823 2.592 1.368 5.472 2.52 8.423 3.456 5.04-2.376 9.864-5.327 14.399-8.711zm.864-17.351c.36 3.456.432 6.696.36 9.791-.072 2.664-.36 5.112-.648 7.56l7.056 3.168c2.303-1.584 4.319-3.744 6.047-6.192 1.944-2.808 3.528-5.976 4.752-9.215.144-3.672-.216-7.92-1.44-11.807-1.152-.792-2.232-1.44-3.456-2.016-1.296-.72-2.664-1.296-4.032-1.728-2.087 4.032-4.967 7.487-8.639 10.439zm-14.615-23.686c-2.16-1.584-4.463-2.952-6.839-4.248-2.592-1.368-5.256-2.592-8.136-3.527-6.191 2.303-11.231 5.183-14.542 8.927-1.08 5.543-1.152 11.159-.72 16.775 4.175 2.879 8.783 5.399 13.751 7.559l15.982-10.007.432-15.479z" fill="#2d2d2d"/><path d="m86.465 142.051c-.648-2.088-.288-4.32-.144-6.408-.36 2.448-.72 3.528-.288 6.624.144.072.576.216.72.216 2.592.935 5.112 2.087 7.56 3.383 2.16 1.152 4.319 2.448 6.335 3.888-5.039-4.248-12.383-7.127-14.183-7.703zm-2.519 32.109c1.079 0 9.647-4.895 14.47-7.343-4.319 2.663-8.639 5.471-13.031 7.991-1.079.648-1.727.576-2.375.216-3.744-1.944-7.488-3.888-11.232-5.831 4.104 1.655 11.232 4.967 12.168 4.967zm-21.239 3.6c1.008-2.808 3.24-5.76 6.264-8.639-2.448 2.807-4.608 5.687-6.264 8.639zm22.39-34.342c-7.991 4.248-12.815 7.992-13.247 9.144-.719 2.088-.647 6.839-1.223 13.895-.072-1.872.072-13.319.791-14.327 2.736-3.6 10.44-7.344 13.679-8.712z" fill="#d1d1d1"/><path d="m115.263 191.511c.36-2.448.576-4.968.72-7.632.072-2.807 0-5.759-.288-8.999 1.008 5.04.288 14.255 0 16.415l6.408 3.312z" fill="#c7c7c7"/><path d="m120.735 236.939 46.796-34.845v-97.481c-15.479-3.167-31.03-5.687-46.796-7.199v34.989c12.167 8.568 20.086 22.751 20.086 38.733 0 16.055-7.919 30.166-20.086 38.805zm-54.716-139.525c-15.695 1.512-31.318 4.032-46.724 7.199v97.481l46.724 34.845v-26.998c-12.095-8.639-20.087-22.75-20.087-38.805 0-15.982 7.992-30.165 20.087-38.733z" fill="#e62946"/><path d="m93.377 3.605c10.367 0 18.718 7.488 18.718 16.703 0 .792-.072 1.512-.144 2.232 7.848.36 15.623.864 23.399 1.584 13.894 1.368 27.717 3.383 41.396 6.623l.792.144v179.122l-.432.288-83.729 62.348c-28.006-20.879-56.084-41.757-84.09-62.636v-179.122l.792-.144c13.679-3.24 27.502-5.255 41.397-6.623 7.775-.72 15.551-1.224 23.398-1.584-.144-.72-.144-1.44-.144-2.232 0-9.215 8.352-16.703 18.647-16.703zm18.142 20.879c-2.087 7.199-9.431 12.527-18.142 12.527-8.712 0-15.983-5.328-18.071-12.527-7.919.36-15.767.864-23.614 1.656-13.607 1.295-27.07 3.239-40.461 6.335v176.53l82.146 61.196 82.145-61.196v-176.53c-13.319-3.096-26.781-5.04-40.388-6.335-7.848-.792-15.695-1.296-23.615-1.656z" fill="#e62946"/><path d="m93.377 248.314 1.296 4.248h4.247l-3.455 2.664 1.368 4.248-3.456-2.664-3.384 2.664 1.296-4.248-3.384-2.664h4.176zm11.879-3.887 1.008 3.239h3.24l-2.664 2.016 1.008 3.312-2.592-2.088-2.664 2.088 1.008-3.312-2.592-2.016h3.24zm-23.686 0 1.008 3.239h3.239l-2.663 2.016 1.008 3.312-2.592-2.088-2.664 2.088 1.08-3.312-2.664-2.016h3.24z" fill="#e62946"/><path d="m94.817 31.395c-.36-.288-.72-.864-.72-1.44 0-.432.288-.648.504-.144.288.576.792 1.44 1.584.936.36-.288.288-.648-.144-.576-.576-.072-.936-.36-1.152-1.152-.072-.432.144-.432.36-.144.36.36 1.008.936 1.728.648.431-.216.503-.504-.072-.648-.576.072-1.08-.36-1.512-.936-.288-.288.144-.576.36-.36.144.216.432.504.72.576s.648 0 1.007-.216c.432-.288.288-.576-.215-.648-.432.072-.648.216-1.152-.144-.864-.647-1.584-1.439-1.728-2.447-.072-.648.288-.792.576-.72.792.216 1.296 1.656 1.872 2.448.144.215.288.287.432.215.215-.215.431-.359.647-.575 0 0 1.584.288 2.448.575l-1.008.36c-.36-.216-.792 0-.792.36-.36.216-.288.504-.144.792 0-.216.072-.432.36-.504.36.216.864-.072.864-.36l1.152-.432 1.152.648c0 .432.432.576.864.432.144.144.288.36.36.648.144-.36.144-.648-.072-.792.144-.432-.504-.864-1.008-.576l-.792-.504h1.368c.216.288.792.288 1.008 0 .144-.072.216-.072.504.144-.072-.359-.216-.503-.504-.503-.216-.36-.936-.36-1.08.072h-1.44l.864-.648c.36.216.792 0 .864-.36.144-.144.288-.216.648-.144-.216-.288-.432-.36-.864-.144-.36-.288-.864.072-.792.36l-1.152.792c-.864-.288-2.376-.648-2.376-.648.144-.216.36-.36.504-.576.072-.144 0-.216-.144-.288-1.368-.288-2.159-.864-2.663-2.232-.216-.576.216-.792.36-.432.216.504.432 1.08 1.079 1.512.216.144.864 0 .504-.36-.432-.288-.576-.432-.791-1.224 0-.36.431-.576.647-.216.216.792.288 1.152.72 1.656.288.36.72.576.936.576.36 0 .792-.36.288-.72-.792-.288-1.08-.648-1.152-1.08-.144-.648 0-1.008.432-.648.576.648 1.656 1.872 2.304 2.448.648.504 1.368.504 1.944 0 .36-.36.288-.792-.288-.72-1.224.144-2.088-.504-3.096-2.088-.216-.432-.288-.936.144-.504.504.648 1.224 1.224 1.944 1.44.648.288 1.224.144 1.44-.072.288-.288.216-.936-.288-.792-.36.144-.864.216-1.44 0-.504-.216-1.08-.72-1.728-1.512-.216-.432-.144-.792.288-.576 1.008.864 2.304 1.512 2.952 1.152.504-.288.504-1.08-.144-1.08-1.224.216-1.656-.072-2.88-1.152-.288-.144-.216-.648.216-.36.936.648 2.304.936 2.88.576.432-.288.36-1.224-.432-.936-.648.432-1.368.432-2.808-.576-.36-.36-.072-.72.216-.576 1.152.648 2.808.936 3.312-.36.144-.504-.144-.864-.648-.504-.936.936-2.088.504-2.736 0-.144-.072-.504-.576.072-.504 1.512.36 3.024.072 3.24-1.008.216-.359-.144-1.007-.648-.431-.72.647-1.512.719-2.448.719-.504-.144-.504-.647-.072-.719.72 0 1.512-.36 2.088-.648.576-.36 1.08-.864 1.224-1.512.072-.576-.504-1.152-.792-.576-.504.936-1.656 1.8-2.88 1.944-.072-.144-.216-.36-.432-.288-.36.144-.792.288-1.224.504-.936.432-1.367.72-1.223 1.439.072.864-.576 1.368-1.08 1.224-.432-.144-.72-.504-.648-1.224.072-.576.648-1.295 1.296-1.655.432-.216 1.079-.36 1.799-.504.504-.072.72-.288.72-.504 0 0-.288.288-.792.216-.216 0-.36-.072-.432-.216h.792c.36 0 1.224-.072 1.44-.648.072-.288-.144-.36-.36-.144s-.288.432-.792.504c-.288.072-.576.144-.936.072.216-.288.576-.504.792-.504.144.072.216.144.36.288.072-.36-.072-.864-1.08-.648 0-.288-.648-.432-1.007-.432-.216 0-.648.144-.936.288-.504.144-1.008.288-1.512.288.288.288.36.36.72.576-.504.144-.936.576-1.08.792 0 0 .576 0 .72.072-.648.216-.864.288-1.224.648.144 0 .288 0 .36.072.072 0 .072.072 0 .144-.144.072-.648.719-.864.863-.144-.144-.648-.791-.792-.863-.072-.072-.072-.144 0-.144.072-.072.216-.072.36-.072-.36-.36-.648-.432-1.224-.648.144-.072.72-.072.72-.072-.144-.216-.576-.648-1.08-.792.36-.216.432-.288.72-.576-.576 0-1.008-.144-1.512-.288-.36-.144-.792-.288-.936-.288-.432 0-1.008.144-1.008.432-1.008-.216-1.152.288-1.08.648.072-.144.216-.216.288-.288.288 0 .648.216.864.504-.36.072-.648 0-.936-.072-.504-.072-.576-.288-.792-.504s-.504-.144-.432.144c.288.576 1.152.648 1.512.648h.792c-.072.144-.216.216-.432.216-.504.072-.864-.216-.864-.216.072.216.288.432.72.504.792.144 1.44.288 1.872.504.576.36 1.152 1.079 1.224 1.655.072.72-.144 1.08-.576 1.224-.576.144-1.152-.36-1.08-1.224.144-.719-.288-1.007-1.224-1.439-.432-.216-.864-.36-1.224-.504-.216-.072-.36.144-.432.288-1.224-.144-2.376-1.008-2.879-1.944-.36-.576-.864 0-.792.576.144.648.648 1.152 1.223 1.512.576.288 1.368.648 2.088.648.432.072.432.575-.072.719-.936 0-1.728-.072-2.447-.719-.576-.576-.864.072-.72.431.288 1.08 1.799 1.368 3.311 1.008.576-.072.216.432.072.504-.648.504-1.8.936-2.807 0-.432-.36-.72 0-.576.504.432 1.296 2.159 1.008 3.311.36.288-.144.576.216.216.576-1.44 1.008-2.16 1.008-2.807.576-.864-.288-.936.648-.432.936.576.36 1.871.072 2.879-.576.432-.288.432.216.216.36-1.224 1.08-1.656 1.368-2.879 1.152-.648 0-.648.792-.144 1.08.648.36 1.943-.288 2.951-1.152.432-.216.504.144.288.576-.648.792-1.224 1.296-1.728 1.512-.576.216-1.079.144-1.511 0s-.504.504-.216.792c.216.216.792.36 1.439.072.72-.216 1.44-.792 1.944-1.44.432-.432.36.072.144.504-1.008 1.584-1.872 2.232-3.095 2.088-.576-.072-.648.36-.36.72.648.504 1.367.504 2.015 0 .576-.576 1.728-1.8 2.304-2.448.432-.36.576 0 .432.648-.144.432-.36.792-1.152 1.08-.504.36-.144.72.288.72.216 0 .648-.216.936-.576.432-.504.504-.864.72-1.656.216-.36.648-.144.648.216-.216.792-.36.936-.792 1.224-.36.36.288.504.504.36.576-.432.792-1.008 1.008-1.512.144-.36.576-.144.432.432-.504 1.368-1.296 1.944-2.664 2.232-.144.072-.216.144-.216.288.216.216.432.36.576.576 0 0-1.512.36-2.376.648l-1.152-.792c.072-.288-.432-.648-.863-.36-.36-.216-.648-.144-.792.144.288-.072.504 0 .648.144.072.36.503.576.863.36l.864.648h-1.511c-.072-.432-.792-.432-1.008-.072-.288 0-.432.144-.576.503.288-.216.432-.216.576-.144.216.288.792.288.936 0h1.439l-.792.504c-.503-.288-1.151.144-1.007.576-.216.144-.216.432-.072.792 0-.288.144-.504.36-.648.431.144.863 0 .863-.432l1.152-.648 1.152.432c0 .288.504.576.864.36.288.072.288.288.36.504.144-.288.144-.576-.144-.792 0-.36-.504-.576-.864-.36l-.936-.36c.864-.287 2.448-.575 2.448-.575.216.216.432.36.648.575.072.072.288 0 .432-.215.576-.792 1.08-2.232 1.872-2.448.288-.072.648.072.576.72-.144 1.008-.864 1.8-1.8 2.447-.504.36-.72.216-1.08.144-.504.072-.648.36-.216.648.36.216.72.288 1.008.216.216-.072.504-.36.72-.576s.648.072.36.36c-.504.576-.936 1.008-1.512.936-.576.144-.504.432-.072.648.72.288 1.368-.288 1.656-.648.288-.288.504-.288.432.144-.288.792-.576 1.08-1.152 1.152-.504-.072-.504.288-.144.576.792.504 1.296-.36 1.584-.936.144-.504.432-.288.504.144 0 .576-.432 1.152-.72 1.44-.36.216 1.368 2.088 1.368 2.088s1.8-1.872 1.44-2.088zm2.304-20.518c-.216 0-.432.072-.432.216s.216.216.432.216c.287 0 .503-.144.503-.216 0-.144-.216-.216-.503-.216zm-7.488 0c.288 0 .432.072.432.216s-.144.216-.432.216c-.216 0-.432-.144-.432-.216 0-.144.216-.216.432-.216z" fill="#2d2d2d"/><g fill="#fff"><path d="m75.162 233.484h5.472v-1.728h-1.584v-9.36h-3.96v1.944h1.8v7.416h-1.728zm14.183-3.456c0 1.224-1.296 1.872-2.592 1.872s-2.591-.504-2.591-1.512h-2.232c0 2.376 2.304 3.312 4.823 3.312 2.376 0 4.752-1.152 4.752-3.6v-4.176c0-2.448-2.448-3.672-4.824-3.672-2.304 0-4.751 1.224-4.751 3.672 0 2.736 2.447 3.672 4.751 3.672.864 0 2.16-.432 2.664-1.152v1.656zm-2.664-5.904c1.44 0 2.664.576 2.664 1.8s-1.224 1.872-2.664 1.872-2.591-.648-2.591-1.872 1.223-1.8 2.591-1.8zm9.648 9.36 5.183-9.936-.144-1.152h-8.495v2.016h5.615l-4.679 9.072zm10.655-4.824c2.088 0 2.448.864 2.448 1.512 0 1.224-1.44 1.656-2.592 1.656-.936 0-2.52-.432-2.52-1.584h-2.16c0 2.52 2.52 3.456 4.68 3.456 2.232 0 4.895-.864 4.895-3.528 0-.936-.792-2.016-1.871-2.304 1.007-.36 1.583-1.368 1.583-2.232 0-2.376-2.375-3.384-4.535-3.384-2.088 0-4.608.864-4.608 3.312h2.16c0-1.008 1.44-1.368 2.448-1.368 1.872 0 2.376.792 2.376 1.44 0 1.008-1.296 1.368-2.448 1.368h-1.656v1.656z" fill-rule="nonzero"/><path d="m24.55 72-2.088-6.408 8.712-2.879-1.008-3.024-8.64 2.88-1.512-4.752 9.144-3.024-1.008-3.167-12.455 4.103 5.615 17.351zm25.558-11.447c-.936 1.44-2.52 2.448-4.104 2.808-4.391.936-6.767-1.8-7.415-4.752s.504-6.551 4.824-7.487c1.584-.36 3.239-.144 4.679.72l1.728-2.664c-2.16-1.368-4.679-1.8-7.055-1.296-6.48 1.44-8.496 6.839-7.488 11.447 1.08 4.68 4.824 8.639 11.447 7.199 2.52-.576 4.752-1.943 6.192-4.175zm25.99-13.679c-1.584-2.664-4.608-3.24-7.415-2.952-3.384.288-6.912 2.16-6.552 5.904.36 4.031 3.816 4.751 7.56 4.895 2.447 0 4.319.576 4.463 2.304.144 1.944-1.8 2.88-3.959 3.096-2.232.144-4.392-.504-5.328-2.448l-2.736 1.728c1.584 3.168 4.536 4.104 8.28 3.744 4.031-.36 7.487-2.376 7.127-6.408-.36-4.391-3.96-5.039-7.847-5.183-2.16-.072-4.104-.36-4.176-1.944-.144-1.368 1.008-2.52 3.528-2.736 1.944-.144 3.743.648 4.463 1.656zm22.03 14.615-.144-18.215h-3.383l.072 7.704-9 .072-.072-7.704-3.383.072.144 18.215h3.455l-.072-7.344 8.928-.144.072 7.416zm19.367.72 3.744.216-7.272-18.647-3.743-.216-9 17.927 3.672.144 1.728-3.384 9.503.504zm-2.592-6.768-6.767-.288 3.815-7.631zm25.63 9.288-4.679-6.84c3.527-.288 4.967-2.664 5.255-5.112.432-3.167-1.512-6.335-5.759-6.911-2.808-.288-5.688-.72-8.568-1.08l-2.304 18.143 3.456.432.72-6.048 3.312.432 4.463 6.696 4.104.576zm-5.543-15.623c2.159.216 2.879 1.8 2.735 3.312-.216 1.439-1.296 2.735-3.455 2.519l-5.184-.72.72-5.831zm24.334 20.014-3.888-7.343c3.528.144 5.184-2.088 5.76-4.536.792-3.096-.792-6.407-4.968-7.415-2.808-.648-5.616-1.368-8.423-2.016l-4.176 17.711 3.312.863 1.44-5.975 3.167.792 3.744 7.199 3.96.936zm-3.816-16.199c2.088.504 2.736 2.16 2.376 3.6s-1.584 2.664-3.744 2.088l-5.039-1.224 1.295-5.687zm10.007 18.431 5.616-17.351-3.24-1.08-5.616 17.423z" fill-rule="nonzero"/><path d="m59.035 84.239v-9.287h-1.727v3.887h-4.608v-3.887h-1.728v9.287h1.728v-3.744h4.608v3.744zm9.072 0h1.944l-4.176-9.359h-1.944l-4.176 9.359h1.872l.792-1.728h4.896zm-1.512-3.384h-3.456l1.728-3.959zm10.367-.144-4.536-5.831h-1.439v9.359h1.727v-6.263l4.968 6.263h1.08v-9.359h-1.8zm5.184 3.528v-9.359h-1.8v9.359zm6.119 0v-9.359h-1.8v9.359zm11.303-1.728h-5.255v-2.088h5.039v-1.656h-5.039v-2.159h5.255v-1.728h-6.983v9.359h6.983zm1.368-7.631v9.359h6.552v-1.584h-4.824v-7.775zm14.759 7.631h-5.256v-2.088h5.04v-1.656h-5.04v-2.159h5.256v-1.728h-6.983v9.359h6.983zm.936-5.975h4.608l-4.752 6.695v1.008h7.343v-1.656h-4.823l4.823-6.839v-.864h-7.199zm10.007 7.703v-9.359h-1.728v9.359zm4.536 0h1.728v-7.703h2.952v-1.656h-7.704v1.656h3.024z" fill-rule="nonzero"/></g><path d="m85.241 112.605c-.072.072-.072 0-.072.072h-.072v.072h-.072l-.072.072v.072h-.072s-.072 0-.072-.072h-.072v-.072h-.36v.072h-.215v-.072h-.072c-.072 0-.072 0-.072-.072h-.072c0-.072 0-.072.072-.072v-.144c0-.072-.072-.072-.072-.072v-.072h-.072v-.072h.072v-.072h.072v-.36h-.072v-.216h-.072v-.072h-.072l-.072-.072v-.072h-.144v-.072h-.072v-.072h-.072c0-.072.072-.072.072-.072v-.072l.072-.072h.072l.072-.072v-.216h-.072v-.144l-.072-.072h-.072v-.072s-.072 0-.072-.072h-.072v-.072c-.072 0-.072-.072-.072-.072h-.072v-.072c.072 0 .072-.072.072-.072v-.072s-.072 0-.072-.072v-.072h-.072v-.072h-.072v-.216s-.072 0-.072-.072h-.072v-.072s-.072 0-.072-.072v-.072-.144h-.144v-.072h-.072v-.072h-.144v-.072h-.144c0-.072-.072 0-.072 0v-.072h-.072v-.072h-.144v-.072h-.072s-.072 0-.072-.072v-.072h-.072v-.144h-.072v-.072c0-.072-.072-.072-.072-.072h-.072v-.216c0-.072 0-.072.072-.072v-.072l.072-.072v-.072h-.072v-.216h-.072v-.144c-.072 0-.072 0-.072-.072v-.072s-.072-.072 0-.072v-.072-.072-.072-.072h.072v-.072h.072v-.072h.072v-.144h.072v-.072l.072-.072h.072v-.072h.072v-.144h.072-.072l-.216-.144v-.072h-.072l-.072-.288h-.216l-.072-.072h-.144v-.072h-.072v-.072h-.072v-.072h-.144l-.072-.072v-.144c.072 0 .072-.072.072-.072s-.072.072-.144.072h-.072v-.072h-.072l.072-.072v.072c0-.072.072 0 .072-.072h.072v-.072s0-.072-.072-.072h-.072v-.072s0 .072 0 0h-.072v-.072-.288h.072v-.072c0-.071.072-.071.072-.071v-.072h-.072v-.072h.072v-.144h.144v-.072h.072v-.072h.144v-.072h.072c.072 0 .072-.072.144 0v.072h.288l.072-.072h.144l.072.072v.144c.072 0 .072.072.072.072h.216v.072c.072 0 .072-.072.072-.072v.072h.072l.072.072h.144l-.072-.072s.072 0 0-.072c.072 0 .072-.072.072-.072h.072v-.072.072h.072c0 .072.072.072.072.072l.144.144h-.072.072c.072 0 .072.072.072.072h.072v.071c.072 0 .072 0 .072.072v-.072h.072v-.071.071h.072v-.071.071h.144v.072-.072h.072v-.071h.288v-.072h.072c0-.072.072-.072.072-.072h.072v-.072h.072v-.072h-.072v-.072h.072l.144-.144c0-.072 0-.144-.072-.216v-.288h-.072v-.072h-.072v-.072h.072v-.072h.144v-.072h.143v-.072c.072 0 .072-.072.072-.072v.072-.072h.144v-.072h.072v-.144h.288v.144h.144v-.072h.072v-.072h.144v.072h.36l.216-.216c.072 0 .072.072.072.072l.072-.072h.072.072v-.072h.072.072.072v.072l.072.072s.072 0 .072.072l.072.072h.072c.072 0 .144-.144.216-.216l.072-.072s0-.072.072-.072l.144-.144c.072 0 .144-.072.144-.144.072-.072.144-.072.144-.072h.072s.072 0 .144-.072l.072-.072h.072c0-.072 0-.072.072-.072h.144c.072 0 .072 0 .072-.072-.072 0-.072 0-.072-.072v-.072.072c-.072-.072.072-.072-.072-.072 0 0-.144 0-.144-.072 0 0 .072 0 0-.072h-.072c0-.072-.072-.072-.072-.144-.072 0-.072-.072-.072-.072 0-.072 0-.144-.144-.216 0-.072-.072-.144-.072-.144 0-.144-.072-.072 0-.144.072 0 0 0 .072-.072v-.072s.072 0 .072-.072v-.144l.144-.216h.072v-.072h.072-.072.072l.072-.072c.072 0 .072-.072.144-.072v.072h.072v.072c0 .144.072.144.072.144h.072v-.072h.072v-.072c.072.072 0-.072 0-.072v-.144h.144v-.144c0-.072.072-.072.072-.072v-.144h.072c.072 0 .072-.072.072-.072h.072v-.144h-.072c0-.072.144-.072.144-.072.072-.072 0-.072.072-.072 0 0 .072.072.216 0h.072s0 .072 0 0h.072v.288h.072c0-.072.072-.072.072-.072v-.072l.144.072c.072 0 .072-.072 0-.072v-.144l.072-.072v-.072h.072v.072h.072c0-.072 0-.072-.072-.144 0-.072.072 0 .072-.072s-.072 0 0-.072h.216v-.072c.072 0 .072 0 .072-.072-.072 0-.072-.072-.072-.072s0-.072-.072-.072h.072v-.288h-.072v-.072h-.072v-.144l.072-.072v.072c.144 0 .144-.072.216-.072h.072v-.072h.072v-.144h.072v-.144h-.072v-.144h.072v-.072c0-.072 0 0-.072-.072v-.072c0-.072 0-.072-.072-.072v-.072c-.072 0-.072-.072-.144-.072v-.072c-.072 0-.072 0-.072-.072-.072 0-.144 0-.144-.072v-.072h.072v-.072h-.072v-.144h-.072v-.072h-.072v-.072.072l-.144-.144h-.216v-.072h-.072s0-.072-.072 0c-.072 0 0-.072-.072-.144v-.072h.072v-.144c-.072 0 0 0-.072-.072v-.072c-.072 0 0 0-.072-.072-.072 0 0 0 0-.072-.072-.072-.072.072-.144-.072 0-.072.072-.072.072-.072v-.072c.072 0 .072.072.072.072 0 .072 0 0 .072 0v.072h.216c0-.072.072-.072.144-.072h.216c.072 0 .072-.072.072-.072v.072h.144c0-.072 0 0 .072 0h.072l.072-.072h.144v-.144h.072v-.072h.072v-.072h.144v-.072s0-.072.072-.072h.072v-.144h.072v-.072c0-.072 0-.072.072-.072h.144l.072.072h.72v-.288c.072-.144.144-.144.144-.144h.144c.144-.072.144 0 .216 0v.072c.072.072.072 0 .072 0v.144c.072 0 .144 0 .144.072h.072.072c0 .072-.072.072 0 .072v.072c.072 0 .072.144.144.144s.072.072.072.144h.072v.072c.072 0 0 .072.072.072v.216c0 .072.072 0 .072.072.072 0 .072.072.072.072h-.288c0-.072-.072 0-.072-.072h-.072v.072h-.072c-.072-.072-.072 0-.072 0-.072 0-.072-.072-.072-.072v.072h-.072c0 .072 0 .072.072.072 0 .072.072.072.072.144 0 0 .072 0 .072.072s-.072.072-.072.072h-.072s0 .072-.072.072-.072-.072-.072 0-.072 0-.072.072l.072.072c.072 0 .072.072.072.072.072-.072.072 0 .144-.072h.072l.072.072v.072h.072v.072h.072c0-.072.072-.072.072-.072h.072c0 .072.072.072.072.072v.144h.072c.072.072.144 0 .144 0 .072.144.072.072.072.144s0 .072.072 0c.072 0 .072 0 .072.072h.072c.072-.072.072 0 .072 0l.144.144v.072h.072l.144.144h.144v.072h.072s.072 0 .072-.072v-.144h.288v-.072h.072l.072.072h.216v.072h.144c0 .072 0 .144.072.144 0 .072 0 .072.072.072s0 0 .072.072v.072h.072l.072.072c0 .072.072 0 .072 0h.072l.072-.072c0-.072 0 0 .072 0 0-.072.072 0 .072-.072h.072v-.288c.072 0 0 0 .072-.072h.072v.072h.072v.072l.072.072v.144c.072-.072.072 0 .072 0 .072.072.072 0 .072.072h.216c0 .072.072 0 .072 0h.072c.072 0 .072.072.072.072v.144h.072v.072.072c0 .072.072 0 0 .144-.072 0 0 0-.072.072v.144c.072 0 0 0 0 .072h.072v.072h.072v.144c.072.072 0 .144 0 .144v.144h.072c0 .072-.072.072-.072.072v.144h.072v.144h.144v.216s-.072 0-.072.072h.072v.072c0 .072.072 0 .072.072v.144s0-.072.071 0v-.072c.072 0 .144-.072.216-.072.072-.072 0-.144 0-.216h.072v-.072c0-.072 0 0 .072 0v-.072h.144v.072h.144.072v.072c0 .072.072.072.072.072 0 .144.072.072.072.072v.216.072.072c.072 0 0 0 0 .072.072 0 .072.072.072.072v.144c0 .072-.072 0 0 .072v.072c-.072.072-.072.072-.072.144 0 0-.072 0-.072.072s.072.144.072.144.072.072.072.144h-.072l.072.072c.072.072 0 .072.072.144l.144.144v.072c.072.072.072 0 .072.072v.072h.072v.072c.072 0 .072 0 .072.072v.216h.072c0 .072.072 0 .072 0l.144-.144h.072v.072c.072 0 .072-.072.072-.072s0-.072.072-.072v.072h.36v.072h.144v.072s.072 0 .072.072h-.072c.072 0 .072.072.072.072s.072 0 .072.072v.072c-.072 0 0 0 0 0 0 .072 0 0 .072.072l.072.072v.072c.072 0 .072 0 .072-.072h.216v.144h.144v-.072s0-.072.072-.072h.216c0-.072 0 0 .072 0h.216v.144s.072 0 .072.072v.072c-.072 0 0 .072 0 .072v.072h-.072s0 .072 0 0l-.072.072h-.072v.36h-.072v.216l.072.072v.144h-.144l-.072.072v.072.144h.072v.072h-.072v.216h.072c0 .072-.072.072-.072.072v.144h-.072c0 .072 0 .072-.072.072s-.072.072-.072.072c-.072 0-.072.072-.072.072v.143h.072v.072h.36.072.072c0-.072.072-.072.072-.072h.216v-.071c0 .071.072.071.072.143 0 0 0 .072.072.072h.072v.072h.072v-.072c.072 0 .072-.072.072-.072s0-.072.072-.072v.072h.072c0 .072 0 .072.072.072h.072v.072h.072s.072 0 .072.072h.072l.144.144h.216l.072.072v-.072h.072v-.072h.072c.072 0 .072-.072.072-.072s.072 0 .072-.072l.072.072v.072c.072-.072.072 0 .072 0v.072c.072 0 .072 0 .072-.072.072 0 .072 0 .072.072h.072c0-.072.072 0 .072 0h.072v.072.144s0 .072-.072.072v.072s-.072 0 0 .072h.144v.072h.072c0 .072 0 .072.072.072h.288v-.072h.072v.072h.072v.072s0 .072 0 0c.072 0 .072.072.072.072v.216h.072v.072l.072.072.072.072c0 .072.072 0 .072 0v-.072h.072v-.072c.072 0 .072-.072.072-.072s0-.072-.072-.072c0 0 .072 0 .072-.072s0 0 .072 0v-.072h.072s.072 0 .072-.072h.072c0 .072.072.072.072 0h.072v.072h.144l.072-.072h.072v-.072c.072.072.072 0 .072 0 0 .072 0 .072.072.072 0 0 0-.072.072-.072l.072-.072h.144v.072c0 .072.072.072 0 .072v.072c.072 0 .072.072.072.072 0 .072.072.072.072.072l.072.072v.144h.072c-.072 0-.072.072-.072.072l.072.072h.072v.072h.072c0 .072 0 .072.072.072v.072c0 .072-.072.072-.072.072v.072h-.072c-.072.072 0 .072-.072.072v.072c-.072 0-.072.072-.072.072h-.072c0-.072-.072-.072-.072-.072-.072.072 0 .072 0 .072-.072 0-.072.072-.072.072v.072.072c.072 0 .072.072 0 .072v.072l-.072.072c.072.072 0 .072 0 .072h-.144v.072h-.072v.144l.072.072v.072c.072 0 .072.072.072.072v.072s.072 0 .072.072h-.072v.072h.072v.072l-.072.144h.072v.072s-.072 0-.072.072l-.072.072s-.072 0-.072.072h-.432l-.072.072h.072c-.072.072 0 .072-.072.072 0 0-.072.072-.072 0v.072l.072.072c-.072 0 0 0-.072.072h.072v.072h.072v.072h.072v.072s.072.072 0 .072c0 .072-.072 0-.072 0h-.144l-.072.072s.072 0 0 .072h.072v.072c-.072 0 0 0-.072.072 0 0 0-.072-.072 0h-.072v.072h-.072v.072h-.072c-.072 0 0 0 0 0v.144h-.144v.144c0 .072 0 0-.072.072s-.072 0-.072.072h-.072v.072s0-.072-.072 0v.072h-.072v.072h-.072v.072h-.072v.072c-.072 0 0 0 0 .072v.072h.072v.072h.072c0 .072-.072.072-.072.072 0 .072 0 .072.072.072 0 0 0 .072.072.072v.144c-.072 0 0 0 0 0v.072h.072v.216l-.072.072h-.072v.072h.072c0 .072-.072.072-.072.072 0 .072-.072 0-.072.072-.072 0 0 0 0 .072h-.072v.072c-.072.072 0 .072-.072.144s0 .072-.072.072h-.144v-.072h-.072l-.072-.072h-.072c0 .072 0 0-.072 0l-.072.072c-.072 0-.072.072-.072.072 0 .072 0 0 .072 0v.144h-.072s0 .072 0 0v.072h-.072v-.072h-.072-.144s0 .144-.072.072v-.072c0-.072-.072 0-.072 0v-.072l-.072-.072v.072c-.072 0 0 .072-.072.072v.072c0 .072.072.072 0 .144v.072h-.072v.144c0 .072-.072 0 0 .072 0 0 0 .072-.072.072h.072v.072c-.072.072 0 .072 0 .072 0 .072-.072 0-.072.072h.072v.072h.072.072c0 .072-.072 0-.072.072h.072v.144s.072 0 .072.072v-.072c0 .072.072 0 .072 0 .072-.072.072-.072.072 0v-.072h.072s.072 0 .072.072c.072 0 0 0 0 .072v.072c-.072.072 0 .072 0 .072s-.072 0 0 .072h.072v.072c.072 0 .072.072.072.072h.072c0 .072 0 .072.072.072v.072s-.072 0 0 .072v.072c0 .072.072.072.072.072v.072.072h-.072v.072h-.072v.072h-.072v.072h-.36v-.072.072s0-.072-.072 0h-.072v.072s-.072 0-.072.072v.072h-.144c-.072-.072 0-.072 0-.072-.072 0-.072 0-.072-.072 0 0 .072 0 0 0v-.288h-.072c0-.072-.072 0-.072-.072l.072-.072h-.216v-.072h-.216c-.072-.072-.072-.144-.144-.144h-.072v.072h-.288c0-.072 0 0-.072 0v.072h-.072c.072 0 .072 0 .072.072 0 .072 0 .144-.072.144l-.072.072v.144c0 .072 0 .072.072.072.072.072 0 .072.072.072v.144s0 .072-.072.072h-.072l-.072-.072s0-.072-.072-.072c0 0 .072 0 0 0v-.072c-.072 0-.072.072-.072 0 0 0 .072 0 0 0h-.072l-.072-.072s-.072.072-.072 0c-.072-.072-.072 0-.072 0h-.072s0 .072-.072.072c0 0 0-.072-.072-.072v.072c0 .072.072 0 0 .072 0 0 .072 0 0 0 0 0 0 .072 0 0v.072h-.072-.072v.072s.072.072 0 .072c-.072.072 0 0 0 .072l-.072.072c0 .072 0 0-.072 0h-.072v.144h-.072v.072h-.072v.072c-.072 0 0 .072-.072.072 0-.072-.072 0-.072 0v-.072s0 .072-.072.072v.144l.072.072c0 .072 0 0-.072.072v.072c-.072 0 0 .072-.072.072 0 0 .072 0 0 .072s-.072 0-.072 0v.072h-.072l.072.072h-.072v.072c0 .072.072.072.072.144h-.072v.072l-.072.072v.144h-.144v.144h.072c0 .072-.072.072-.072.072h.072v.072h.072v.072.072l.072.072v.144c.072.072.072 0 .072.072h-.288l-.072-.072v-.072c-.072.072 0 .072 0 .072h-.072v.072s.072 0 0 0h-.072v.072h-.072c-.072 0 0 .072-.072 0v.072s-.072 0-.072.072h-.216c0 .072 0 0-.072.072h-.072l-.072-.072h-.072c-.072 0-.072 0-.072-.072v.072c0-.072-.072 0-.072-.072v.072h-.072v-.144h-.072v-.072c0-.072-.072-.072-.072-.072v-.072h.072v-.36h-.072v-.072h-.072s.072 0 0-.072c0 0 .072 0 0 0v-.072c-.072 0-.072 0-.072-.072v-.072h-.072v-.072h-.072v-.072s-.072 0-.072-.072v-.072h-.072v-.072h-.072s.072 0 0 0v-.144l-.071-.072v-.072c-.072 0 0 0 0 0 0-.072 0 0 0 0v-.072h-.072v-.072c0-.072-.072-.072-.072-.072s0-.072-.072-.072c0 .072 0 0-.072 0h-.216s0-.072-.072-.072h-.144v-.072h-.216l-.072.072h-.072v.072c0 .072-.072.072-.072.072-.072.072 0 .072-.072.072v.072h-.216l-.072.072c0 .072-.072.072-.072.072s0 .072-.072.072v.072c-.072 0-.072.072-.072.072 0 .072 0 .072-.072.072h-.072v.072c-.072 0-.072.072-.072.072h-.072v.072h-.072c0 .072-.072.072-.072.072h-.144s0 .072-.072.072-.072.072-.144.072c0-.072 0 0 0 0h-.072s-.072 0-.072.072h-.216v.072h-.216c0-.072-.072-.072-.072 0h-.072v-.072c-.072.072 0 .072-.072.072l-.072.072c0 .072-.072 0-.072.072 0 0-.072.072-.144 0v.072h-.072v.072c.072.072 0 .072 0 .144h-.072l-.072.072s0 .072-.072.072c-.072.072 0 .072-.072.072 0 .072 0 .072-.072.072v.072c-.072 0-.072-.072-.072 0 0 0 0-.072-.072 0h-.072c0-.072-.072 0-.072-.072h-.432s.072 0 0 .072v.072l-.072.072c0 .072-.072 0-.072.072h-.216c-.072.072-.072 0-.144.072-.072 0-.072-.072-.072-.072h-.072s-.072 0-.072.072h-.072v.215h-.072v.072c-.072 0-.072 0-.072.072-.072 0-.072.072-.072.072-.072 0-.072 0-.072.072h-.072v.144s.072.072.072 0v.144h-.072v.072c-.072 0-.072 0-.072.072s0 0-.072.072v.144.072c.072 0 .072 0 .072.072-.072 0-.072.072-.072.072v.504l.072.072c0 .072.072.072.072.072v.072l.072.072v.072h.072v.144h-.072c0 .072.072.072 0 .072 0 0-.072 0-.072.072l-.072.072h.072v.072l.072.072v.072s.072 0 .072.072v.072h.072-.072c0 .072 0 .144.072.144 0 0 .072 0 0 0 0 0 0 .072-.072.072l-.144.144h-.072v.144c-.072.072 0 .072-.072.072v.072c0-.072-.072 0-.072 0h-.072v.072l-.072.072h.072s-.072.072 0 .072c0 0 0 .072-.072.072l-.072.288h-.36-.072c0 .072-.072 0-.072.072h-.144c-.072 0 0 0 0 0 0-.072-.072-.072-.072-.072v-.072c0-.072-.072-.144-.144-.144h-.288s0 .072-.072.072l-.072.144c-.072 0-.072.072-.144.072h-.144s-.144-.144-.216-.216c-.072 0-.072-.072-.144-.144v-.144l-.072-.072c0-.072-.072-.216-.072-.216 0-.072-.072-.216-.144-.288h.144l.072-.072v-.144c.072 0 .072-.072.144-.072h.072s.072.072.072 0c0 0 0-.072.072-.072.072-.072.072-.072.072-.144.072 0 .072-.072.072-.216v-.504h-.144v-.072c0-.072-.072-.144-.072-.144v-.216s-.072-.144-.072-.216v-.072c-.072 0-.072-.072-.072-.072l-.072-.288c.072-.072.072-.072 0-.072 0 0 .072 0 0-.072 0 0 .072 0 0 0l-.144-.144v-.072h-.072v-.072h-.144v-.072s-.144-.216-.144-.288v-.071c-.072 0-.072 0-.072-.072.072 0 .072-.072.072-.072 0-.072.072-.072.072-.072v-.072c.072 0 .072 0 .072-.072-.072 0-.072-.072-.072-.072v-.072h-.072.072v-.072-.072-.072h.072v-.144l-.072-.072v-.072l-.072-.072v-.072c-.072 0 0 0 0-.072s-.072-.072-.072-.144c0 0-.072 0-.072-.072v-.072s-.072 0-.072-.072c.072 0 .072-.072.072-.072h-.072s.072 0 0 0v-.144h-.072v-.072s-.072-.072-.072-.144c0 0-.072-.144-.072-.216v-.216c-.072 0-.072-.072-.072-.072v-.072c-.072 0-.072 0-.072-.072s-.072-.072-.072-.072v-.072h-.072c-.072 0-.072 0-.072-.072v-.072l-.072-.072c0-.072-.072-.144-.144-.144v-.072h-.072v-.072h-.072v-.144s-.072 0-.144-.072v-.072h-.072v-.072h-.072v-.072h-.216v-.072h-.216c-.072 0-.072 0 0-.072h-.216v-.072h-.072l-.144-.144v-.144c-.072 0-.072.072-.144 0 0 0-.072 0-.072-.072-.072 0-.072 0-.072-.072-.072 0-.072 0-.072.072h-.072v-.072h-.144s0-.072-.072-.072c.072-.072.072-.072 0-.144-.072 0-.072 0-.072-.072v-.072h-.144c0-.072 0 0 0 0z" fill="#e62946"/></g></svg>