<svg clip-rule="evenodd" fill-rule="evenodd" stroke-linejoin="round" stroke-miterlimit="2" viewBox="0 0 560 400" xmlns="http://www.w3.org/2000/svg"><g fill="#3facd8" fill-rule="nonzero"><path d="m1 85h3.9c.5 4 2.1 7.5 8.8 7.5 4.3 0 7.6-2.4 7.6-6.2 0-3.7-1.7-5.3-8-6.3-7-1.1-11.1-3.2-11.1-9.1 0-5.1 4.4-9 10.7-9 6.6 0 10.8 3.1 11.4 9.1h-3.6c-.8-3-3.2-5.8-7.8-5.8s-6.9 2.3-6.9 5.4c0 3.3 1.2 4.9 8 6 7.4 1.2 11.3 3.4 11.3 9.7 0 5.6-4.9 9.6-11.5 9.6-9-.1-12.2-3.9-12.8-10.9z" transform="matrix(2.64706 0 0 2.64706 81.4706 -8.85294)"/><path d="m211.17654 157.91184h7.94118v84.70592h-7.94118z" stroke-width="2.64706"/><g transform="matrix(2.64706 0 0 2.64706 81.4706 -8.85294)"><path d="m85.9 78.6-10.2-15.6h4.5l8.3 13 8.2-13h4.1l-10.4 15.6 10.8 16.4h-4.6l-8.9-14-8.9 14h-4z"/><path d="m132.4 63h5.3l11.3 32h-4l-3.3-8h-13.7l-3.2 8h-3.8zm-3.2 20h11.5l-5.7-17.1z"/></g></g></svg>