<svg clip-rule="evenodd" fill-rule="evenodd" stroke-linejoin="round" stroke-miterlimit="2" viewBox="0 0 560 400" xmlns="http://www.w3.org/2000/svg"><g fill-rule="nonzero"><g fill="#e1002a"><path d="m189.804 246.785c-7.108-3.324-12.946-6.009-12.946-11.441 0-4.153 3.322-7.173 9.887-7.173 2.415 0 4.389.285 6.429.659 1.067.183 2.206.34 3.146.34 5.732 0 8.968-3.418 11.119-9.905l.89-2.649c-.915-.373-10.281-4.486-22.495-4.486-19.43 0-29.686 12.461-29.68 25.388 0 6.524 2.042 11.247 5.238 14.971 4.118 4.787 9.99 7.921 15.484 10.6 8.004 3.928 15.229 6.831 15.229 12.652.005 5.165-5.334 8.104-12.471 8.104-9.777 0-18.322-5.59-19.414-6.263l-8.028 15.047c1.428.807 11.767 7.371 28.784 7.371 18.132-.013 31.863-10.407 31.863-26.404-.002-15.916-12.728-21.816-23.035-26.811z"/><path d="m260.727 254.216 32.892-40.328h-23.436l-26.234 34.802h-.393v-34.802h-19.315l.005 85.429h1.148c8.352 0 18.293-3.863 18.293-17.815v-19.614h.392l26.743 36.365h24.581z"/><path d="m294.715 122.377c-6.801 1.284-16.885 7.457-16.852 18.374.026 9.913 8.131 15.921 8.157 28.911.039 9.773-5.347 16.353-11.172 20.002 2.354-.209 4.932-.344 7.769-.35 5.951-.016 9.538.552 9.761.588l30.51-37.44c-8.473-12.685-18.369-22.529-28.173-30.085z"/><path d="m320.343 223.482c3.846-5.979 4.328-15.507 4.654-25.213.36-9.053 2.249-15.865 14.36-15.907 2.684-.009 5.24.359 9.869.347 17.742-.079 29.326-6.188 36.531-10.197-14.722-9.387-36.211-18.972-62.87-20.05-1.737 4.901-15.248 42.468-16.27 45.5.154.182 2.52 2.834 5.475 8.006 4.359 7.104 6.699 13.122 8.251 17.514z"/></g><g fill="#ee7602"><path d="m255.9 192.797c-1.543.01-2.31-1.015-2.519-2.793-.196-1.765-7.827-71.575-8.963-82.141-.165-1.542-.548-4.375-.552-5.384-.004-1.627 1.056-2.476 2.305-2.479 3.615-.014 23.318 4.601 44.228 19.256-6.024 1.699-16.922 7.965-16.872 20.94.039 11.483 8.262 17.804 8.304 29.325.063 18.737-21.471 23.268-25.931 23.276z"/><path d="m322.096 228.464c.328.869.637 1.601.948 2.112.48.816 1.106 1.187 1.875 1.183.486-.006 1.083-.167 1.742-.466 1.611-.74 65.32-30.399 74.928-34.832 1.394-.668 4.033-1.848 4.904-2.358.902-.513 1.315-1.265 1.315-2.028-.003-.426-.129-.858-.37-1.25-1.201-1.943-7.365-8.485-17.67-15.634-8.183 4.505-20.96 11.472-39.966 11.549-4.657.005-5.712-.307-8.893-.295-9.279.033-11.595 4.002-11.934 12.135-.056 1.536-.083 3.604-.172 5.872-.294 7.272-1.152 17.301-6.707 24.012z"/></g></g></svg>