<svg clip-rule="evenodd" fill-rule="evenodd" stroke-linejoin="round" stroke-miterlimit="2" viewBox="0 0 560 400" xmlns="http://www.w3.org/2000/svg"><g fill-rule="nonzero" transform="matrix(1.01012 0 0 1.01012 130 50)"><path d="m148.497 0c-81.463 0-148.497 67.034-148.497 148.497 0 81.464 67.034 148.498 148.497 148.498 81.464 0 148.498-67.034 148.498-148.498 0 0 0 0 0-.001 0-81.462-67.034-148.496-148.496-148.496-.001 0-.001 0-.002 0" fill="#c8102e"/><path d="m148.497 7.425c-77.39 0-141.072 63.682-141.072 141.072s63.682 141.073 141.072 141.073 141.073-63.683 141.073-141.073c0-.001 0-.002 0-.003 0-77.388-63.681-141.069-141.069-141.069-.001 0-.003 0-.004 0" fill="#fff"/><path d="m148.332 14.705c-73.317 0-133.647 60.331-133.647 133.648s60.33 133.648 133.647 133.648 133.648-60.331 133.648-133.648c-.001-73.317-60.331-133.647-133.648-133.648"/><path d="m148.544 56.842c-50.281 0-91.656 41.374-91.656 91.655s41.375 91.656 91.656 91.656 91.656-41.375 91.656-91.656c0-50.281-41.375-91.655-91.656-91.655z" fill="#fff"/><path d="m148.786 62.905c-.002 0-.003 0-.005 0-47.082 0-85.824 38.743-85.824 85.824 0 47.082 38.742 85.825 85.824 85.825 47.08 0 85.821-38.74 85.824-85.819v-.016c-.005-47.076-38.743-85.811-85.819-85.814" fill="#c8102e"/><g fill="#fff"><path d="m46.746 99.406c-5.017-2.805-9.281-6.837-6.636-11.612.539-1.278 1.852-2.065 3.233-1.939l-1.454-.809 1.505-2.697 6.28 3.522-1.722 3.057c-2.521-1.134-3.568-.814-4.305.516-.975 1.743.356 3.455 5.29 6.218 4.935 2.764 7.018 3.063 8.111 1.109.768-1.372.221-2.687-1.985-4.192l2.062-3.032c3.702 2.485 5.156 5.517 3.006 9.374-2.882 5.156-7.873 3.609-13.406.516"/><path d="m58.517 80.142c-4.346-3.764-7.842-8.502-3.96-12.988 3.883-4.486 8.704-2.021 13.406 2.062 4.301 3.723 7.817 8.482 3.94 12.963-3.878 4.481-8.89 1.866-13.406-2.026m6.703-7.606c-3.749-3.243-6.224-4.548-7.709-2.831s.16 3.976 3.909 7.219c3.748 3.243 6.187 4.481 7.662 2.79 1.474-1.692-.14-3.96-3.862-7.183"/><path d="m78.951 69.593 1.15-.887-9.513-12.262-1.15.892-2.15-2.774 5.831-4.521 2.151 2.768-1.289 1.001 9.606 12.38 2.794-2.171-2.63-3.393 3.105-2.408 4.619 5.95-10.446 8.101z"/><path d="m95.549 57.574 1.294-.65-6.966-13.875-1.294.649-1.578-3.134 6.6-3.311 1.578 3.135-1.465.732 7.033 14.015 3.166-1.593-1.928-3.842 3.516-1.763 3.378 6.734-11.818 5.935z"/><path d="m114.147 48.999 1.403-.387-4.094-14.968-1.398.381-.923-3.387 13.045-3.563 1.877 6.889-3.79 1.036-1.031-3.764-3.707 1.011 1.603 5.867 3.388-.923.918 3.352-3.388.928 1.686 6.156 3.759-1.026-1.129-4.145 3.821-1.047 1.985 7.27-13.133 3.584z"/><path d="m134.024 36.557c-.402-6.007.639-11.746 5.986-12.101 1.362-.233 2.734.4 3.44 1.588l-.109-1.599 3.094-.206.479 7.183-3.413.227c-.283-2.434-1.201-3.434-2.65-3.342-2.145.145-2.877 1.862-2.465 8.023.361 5.435 1.067 7.42 3.424 7.26 1.933-.129 2.511-1.438 2.341-4.037l-.088-1.268-2.929.195-.226-3.475 6.424-.428.81 12.076-2.872.196-.428-1.913c-.591 1.465-2.03 2.421-3.61 2.398-4.981.33-6.703-3.831-7.177-10.777"/><path d="m155.52 43.461 1.439.191 2.031-15.381-1.438-.191.459-3.475 13.4 1.774-.933 7.074-3.898-.515.511-3.868-3.806-.505-.799 6.028 3.48.459-.458 3.449-3.476-.459-.835 6.327 3.867.505.562-4.254 3.924.521-.985 7.466-13.488-1.784z"/><path d="m185.575 49.917 1.32.603 6.461-14.107-1.32-.603 1.459-3.192 6.301 2.877c5.156 2.346 5.213 5.976 3.558 9.606-1.697 3.712-4.641 6.265-9.714 3.939l-1.155-.515-1.723 3.769 1.594.732-1.408 3.094-6.765-3.094zm9.416-4.027c2.005.918 3.315 0 4.398-2.346s.912-3.97-1.099-4.888l-1.098-.516-3.305 7.219z"/><path d="m202.152 57.806.99.696 14.84-12.994 3.609 2.522-7.146 18.392.866.608-1.944 2.779-5.976-4.192 1.897-2.712 1.485 1.031.99-2.263-3.568-2.501-1.83 1.671 1.511 1.062-1.898 2.697-5.769-4.048zm10.828 1.093 3.037-6.961-5.646 5.141z"/><path d="m220.611 71.769.99 1.067 11.375-10.544-.985-1.068 2.578-2.382 4.605 4.965c3.846 4.125 2.629 7.461-.253 10.132-2.021 1.872-4.192 2.687-6.394 2.135l-2.717 5.61.67.711-2.485 2.305-4.218-4.547 2.419-2.243.66.711 2.222-4.455-1.274-1.371-3.418 3.166.722.773-2.419 2.243-4.542-4.904zm10.395-.397c1.501 1.624 2.97 1.335 4.832-.392 1.861-1.728 2.258-3.171.737-4.811l-.758-.82-5.589 5.156z"/><path d="m234.801 88.103.743 1.248 13.339-7.94-.743-1.248 3.011-1.795 3.548 5.951-2.939 1.748-.65-1.088-6.265 3.728 8.25-.403-.438-.727 2.939-1.748 3.238 5.43-3.016 1.794-.758-1.273-6.451.113-6.481 8.508.603 1.016-2.913 1.732-3.485-5.847 2.835-1.686.65 1.088 3.929-5.229-3.867.191-2.258 1.346.649 1.093-2.836 1.686-3.547-5.95z"/><path d="m62.555 234.956-1.145 1.196-2.155-2.031 5.156-5.487 2.382 2.233c-1.959 2.31-1.996 3.893-.65 5.156 1.258 1.181 2.367 1.145 3.424 0 2.609-2.779-3.305-9.116 1.294-14.014 2.578-2.733 5.847-2.578 8.095-.49 1.305 1.222 1.965 2.578 1.434 3.96l1.134-1.212 2.166 2.026-4.899 5.219-2.48-2.295c1.547-1.851 1.867-3.186.655-4.326-1.212-1.139-2.253-.913-3.094 0-2.402 2.578 3.259 9.039-1.258 13.844-2.836 3.022-6.084 2.547-8.569.207-1.15-1.078-1.965-2.506-1.496-3.976"/><path d="m78.363 246.341 1.227.768 8.214-13.164-1.232-.768 1.856-2.975 5.878 3.666-1.81 2.898-1.077-.671-3.857 6.183 7.141-4.136-.717-.448 1.81-2.898 5.363 3.346-1.862 2.975-1.253-.783-5.682 3.047-1.866 10.534 1 .624-1.789 2.872-5.775-3.604 1.743-2.795 1.083.67 1.093-6.445-3.347 1.939-1.392 2.233 1.078.675-1.743 2.795-5.878-3.666z"/><path d="m103.077 259.803 1.758.65 1.454-3.95.114-12.019-1.166-.428 1.217-3.294 6.27 2.315-1.181 3.207-1.134-.418-.505 7.229 4.336-5.816-1.078-.397 1.181-3.212 6.218 2.294-1.217 3.295-1.247-.459-7.817 9.302-1.413 3.831 1.758.65-1.17 3.181-7.554-2.784z"/><path d="m124.351 266.46 1.439.191 2.052-15.381-1.434-.191.459-3.48 7.229.969-.453 3.388-1.532-.207-.753 5.636 4.801.645.753-5.636-1.563-.211.454-3.388 7.229.964-.469 3.481-1.465-.196-2.057 15.381 1.47.195-.449 3.357-7.229-.964.438-3.269 1.563.206.83-6.234-4.796-.639-.835 6.234 1.532.206-.439 3.264-7.223-.964z"/><path d="m149.456 269.121 1.207-.088 3.269-19.444 4.372-.32 6.116 18.748 1.057-.077.247 3.377-7.27.516-.242-3.29 1.809-.129-.66-2.356-4.346.32-.366 2.454 1.84-.134.243 3.289-7.028.516zm9.08-6.007-2.062-7.312-1.109 7.544z"/><path d="m169.39 251.461-1.304.392-1.006-3.362 6.605-1.985.98 3.274-1.299.392 4.248 9.209-1.583-13.582 3.537-1.057 6.229 12.215-1.536-10.054-1.248.371-.985-3.274 6.229-1.872 1.01 3.362-1.361.407 2.434 19.14-3.764 1.134-6.487-12.648 1.645 14.097-3.826 1.15z"/><path d="m203.606 255.539 1.243-.747-7.982-13.303-1.247.747-1.805-3.011 5.94-3.563 1.758 2.929-1.088.655 3.754 6.249-.438-8.245-.722.439-1.764-2.929 5.419-3.254 1.81 3.006-1.273.764.134 6.45 8.528 6.445 1.011-.603 1.742 2.903-5.836 3.501-1.697-2.826 1.093-.649-5.238-3.914.201 3.867 1.356 2.253 1.088-.654 1.696 2.83-5.94 3.563z"/><path d="m227.412 241.417 1.109 1.237-2.207 1.98-5.027-5.61 2.428-2.181c2.135 2.15 3.713 2.325 5.084 1.088 1.284-1.15 1.346-2.258.315-3.408-2.547-2.836-9.369 2.516-13.855-2.486-2.506-2.789-2.093-6.048.201-8.105 1.331-1.191 2.754-1.738 4.064-1.088l-1.109-1.237 2.207-1.98 4.764 5.316-2.516 2.263c-1.707-1.722-3.016-2.135-4.254-1.031-.567.356-.912.981-.912 1.65 0 .55.232 1.074.639 1.444 2.346 2.609 9.281-2.481 13.684 2.428 2.769 3.094 2.016 6.28-.515 8.559-1.171 1.032-2.666 1.743-4.089 1.155"/></g><path d="m273.472 145.553-8.549-1.309-3.825-8.147-3.821 8.147-8.554 1.309 6.187 6.342-1.459 8.951 7.647-4.228 7.651 4.228-1.464-8.951z" fill="#fdb927"/><path d="m39.713 144.244-3.826-8.147-3.821 8.147-8.554 1.309 6.187 6.342-1.459 8.951 7.647-4.228 7.646 4.228-1.459-8.951 6.188-6.342z" fill="#fdb927"/><path d="m231.445 125.661c-.279-.995-.557-1.991-.872-2.97-.082-.263-.18-.516-.268-.789-4.695-3.046-9.658-5.656-14.829-7.796.887-1.454 1.3-3.148 1.181-4.847.006-.133-.006-.267-.036-.397-.037-.129 0-.268-.031-.402s0-.279-.031-.418 0-.268-.031-.397 0-.268-.031-.407c-.022-.135-.034-.271-.036-.407 0-.139-.011-.276-.031-.413-.031-.139 0-.268-.031-.397-.006-.271-.028-.541-.067-.809-.516-3.532-3.496-6.492-8.9-8.797-2.129-.908-4.312-1.683-6.538-2.32-1.644-.516-3.202-.99-4.609-1.547-1.279-.516-2.981-1.222-4.94-2.037-6.115-2.526-14.484-5.986-20.057-7.925-8.054-2.725-16.577-3.79-25.054-3.129-1.098.082-2.197.201-3.274.35-6.497.872-14.592 4.445-18.841 6.497-6.394 3.094-12.158 6.579-15.046 9.121-.984.866-2.32 2.063-3.867 3.496-6.44 5.873-18.423 16.809-24.858 19.923-.731.329-1.409.765-2.01 1.295-.838.71-1.252 1.805-1.094 2.892.002.137.012.273.031.408.003.134.015.269.037.402-.002.136.009.272.03.407-.001.135.009.269.031.402.002.138.012.276.031.413-.001.134.009.269.031.402-.006.136.004.273.031.407.003.137.015.273.036.408.002.206.027.412.072.613.08.333.214.65.397.939-.515.407-1.072.814-1.629 1.258-7.492 5.965-11.936 11.591-13.21 16.716-.058.244-.096.492-.113.742v.207c0 .66-.047 1.309-.047 1.975 0 1.748.067 3.485.17 5.212.042.645.093 1.284.145 1.924.051.639.082 1.175.144 1.758.047.469.119.928.175 1.397.669 5.607 1.89 11.134 3.646 16.5.149.443.299.887.454 1.33.154.449.288.903.453 1.341 1.51 4.122 3.336 8.121 5.461 11.962.768 1.397 1.583 2.764 2.428 4.125.237.376.48.748.717 1.119s.474.753.717 1.119c15.915 23.749 42.69 38.038 71.279 38.038 25.946 0 50.54-11.769 66.818-31.975.516-.66 1.062-1.33 1.578-2.01-3.113-3.209-5.952-6.672-8.487-10.354 1.15.26 2.319.424 3.496.49.13.008.261.008.392 0 1.163-.092 2.172-.855 2.578-1.949.138-.401.185-.827.139-1.248 0-.136-.01-.272-.031-.407-.021-.27-.042-.54-.062-.81-.002-.136-.014-.272-.036-.407 0-.135-.01-.269-.031-.402 0-.138-.01-.276-.031-.413 0-.134-.01-.269-.031-.402-.002-.135-.013-.269-.031-.402.053-.867-.273-1.716-.892-2.326-2.779-2.738-5.192-8.167-6.703-12.782l.882-3.903c3.403.315 6.522.516 9.281.516 2.811.1 5.621-.198 8.348-.887.376-.114.567-.31.613-.557.48.299.954.603 1.398.892 1.773 1.165 3.243 2.217 4.429 3.052.196-.84.397-1.681.572-2.531 2.68-13.291 2.179-27.03-1.464-40.089z"/><path d="m195.388 176.274c-.516 3.568-1.068 9.441.103 13.045l1.201 3.712-3.094-2.397c-.386-.305-8.415-6.575-11.941-12.375-2.063 5.006-5.017 13.731-3.78 17.83l1.217 4.022-3.161-2.78c-.366-.314-8.048-7.156-10.364-15.948l-13.06 19.078-.985-1.433c-.247-.351-5.481-7.899-6.131-16.087l-14.762 11.565s-5.635-8.575-2.799-18.459l-27.802 14.066s-2.176-15.221 4.444-25.039c-11.622 8.178-20.382 20.517-27.003 31.401 15.913 23.767 42.698 38.068 71.299 38.068 25.941 0 50.531-11.764 66.809-31.963-4.125-4.3-11.034-12.287-14.205-20.423-2.334-1.584-4.363-3.577-5.986-5.883z" fill="#9ea2a2"/><path d="m177.191 162.213c-11.797-.062-23.599 1.361-31.065 2.155-1.555.174-3.118.262-4.682.263-5.919-.031-6.868-1.758-6.92-1.866l-.417.108-.583.124c-.253.051-.516.103-.753.139s-.387.041-.577.056c-.191.016-.49.047-.733.047h-.19c-.145 0-.284-.026-.428-.036-.197.001-.394-.015-.588-.047-.203-.034-.405-.079-.603-.134-.175-.038-.347-.086-.516-.144-.195-.073-.384-.159-.567-.258-.167-.072-.329-.155-.485-.247-.18-.126-.352-.262-.516-.408-.148-.113-.289-.235-.422-.366-.162-.187-.314-.384-.454-.588-.114-.159-.237-.299-.34-.474-.143-.264-.27-.536-.382-.815-.088-.196-.18-.366-.258-.577-.118-.346-.206-.748-.299-1.145-.051-.206-.113-.381-.154-.598-.042-.216-.073-.624-.109-.933-3.767.59-7.444 1.652-10.946 3.161-12.679 8.42-11.261 18.789-11.859 25.672l5.661-2.774.366-.211-.289.17 23.054-11.241s-3.161 10.643.634 19.104l16.113-12.576-.134 2.723c-.31 6.244 3.093 12.797 4.795 15.664l14.515-21.187.35 3.228c.676 6.234 5.012 11.926 7.781 14.989.243-3.416.949-6.782 2.098-10.008.923-2.803 1.99-5.557 3.197-8.25l1.233-2.66.99 2.758c1.397 3.867 6.62 8.827 9.796 11.601-.262-4.655.085-9.325 1.031-13.89l.655-3.166 1.573 2.825c4.439 7.967 10.761 10.163 14.437 10.751-4.558-5.672-6.775-13.406-6.801-14.36v-.913l.707-3.052c-4.125-.464-8.591-1.031-13.262-1.712-4.526-.603-9.087-.904-13.654-.902z" fill="#9ea2a2"/><path d="m63.601 159.011c.669 5.606 1.89 11.133 3.646 16.5 2.558-3.257 5.46-6.227 8.657-8.859 1.609-1.242 3.305-2.449 5.032-3.635 4.383-3.011 8.993-5.79 13.283-8.188 2.81-1.572 5.491-3.001 7.827-4.197 2.722-1.392 6.404-3.31 9.796-5.068l3.682-1.929 3.738-1.97c-1.743-2-3.744-3.76-5.95-5.233-.186-.124-.361-.248-.552-.366-.419-.263-.853-.502-1.299-.717l-4.435-2.248h4.904c5.379-.481 10.719-1.325 15.984-2.526.678-.272 1.379-.484 2.093-.635 1.908-.428 4.002-.984 6.126-1.593 4.663-1.417 9.128-3.42 13.287-5.96-.046-.196-.067-.408-.108-.614-.115-.463-.18-.936-.196-1.413-2.846 1.764-7.327 2.357-14.891.335 6.702-.966 13.013-3.748 18.248-8.043-9.575-1.939-19.805-2.578-28.292 1.459 0 0 9.874-9.281 18.562-10.792 0 0 9.946 4.125 18.939 7.177.227.052.814.248 1.887.629 1.964.64 3.836 1.207 5.507 1.64 6.278 1.537 12.848 1.438 19.077-.289 13.876-3.408 8.73-7.631 8.73-7.631s7.425 5.45 12.89 3.042c2.65-1.17 1.944-3.341.516-5.274-2.836-2.532-6.703-3.749-10.478-4.919-1.727-.516-3.356-1.032-4.913-1.661-1.295-.515-2.996-1.227-4.971-2.062-6.074-2.511-14.386-5.95-19.856-7.853-8.549-2.873-17.641-3.765-26.585-2.609-9.72 1.315-26.513 9.977-31.912 14.726-.959.841-2.284 2.063-3.815 3.45-7.064 6.409-18.851 17.159-25.776 20.516l-.294.149c2.149.345 4.326.49 6.502.434l4.64-.062-4.006 2.305c-3.535 2.091-6.923 4.42-10.142 6.971-6.646 5.29-10.745 10.312-11.859 14.519 3.964-.442 7.799-1.682 11.271-3.645-5.391 4.849-10.25 10.259-14.494 16.139z" fill="#9ea2a2"/><path d="m173.948 123.547c-6.842 5.362-21.609 14.953-33.798 9.322-.583-.267-1.151-.564-1.702-.892-.407-.242-.815-.516-1.217-.784v-.031c-6.244 1.372-11.142 2.254-11.142 2.254h-.041c-.516.103-.985.19-1.48.283-3.579.691-6.703 1.145-8.926 1.408.289.206.552.423.825.634.274.211.49.376.722.572l.516.444c.227.201.459.397.675.593l.428.407c.212.196.423.397.614.593s.232.237.35.356c.119.119.372.376.516.552l.294.324c.144.16.299.325.423.47.124.144.154.185.237.278l.304.356c.103.124.17.206.237.299l.109.134c.056.063.108.13.154.201l.841 1.119-1.202.644c-.118.062-12.055 6.363-18.526 9.668-2.32 1.186-5.46 2.846-8.93 4.821-5.854 3.267-11.479 6.93-16.835 10.962-.758.583-1.521 1.243-2.289 1.954-.258.238-.516.516-.769.764-2.189 2.175-4.245 4.48-6.156 6.904 1.51 4.122 3.335 8.121 5.46 11.962.769 1.397 1.583 2.764 2.429 4.125 4.063-6.745 8.698-13.127 13.854-19.078 1.978-2.24 4.073-4.374 6.275-6.394 8.952-8.193 18.563-13.117 28.638-14.658 3.183-.489 6.359-1.004 9.528-1.547l-.933-5.548h.474c.715-.004 1.429-.043 2.14-.119h.078c.443-.051.943-.118 1.474-.206l.243-.041c.541-.093 1.119-.207 1.737-.356l.212-.052c.634-.154 1.299-.34 2-.562h.062c.691-.221 1.418-.515 2.166-.789l.361-.149c.737-.31 1.495-.653 2.274-1.031l.345-.186c.815-.423 1.645-.892 2.485-1.428 5.912-3.708 12.364-6.475 19.124-8.204 1.48-.371 2.984-.633 4.502-.783 1.517-.151-1.341-5.61.84-9.565z" fill="#9ea2a2"/><path d="m217.291 159.413-.67-.294-.717-.309-.309-.119c-2.313-.936-4.685-1.72-7.1-2.346-1.032-.263-2.063-.516-3.166-.722-.949-.18-1.918-.34-2.903-.469h-.093c-1.97-.261-3.9-.524-5.79-.789-3.202-.438-6.281-.871-9.199-1.268l-.454-.062-1.897-.258-.588-.077-1.686-.222-.918-.113-1.691-.212-1.748-.211-.624-.067h-.155l-1.304-.145-.799-.077-1.212-.119-.737-.061-1.14-.093-.696-.047-1.067-.062-.635-.03-1.031-.031h-1.944c-.422 0-.825.031-1.201.061h-.067c-2.416.278-4.795.808-7.1 1.583-5.963 1.955-11.777 4.336-17.397 7.126l-.294.145-.665.335-.201.098-.882.433-.371.17-.81.371-.474.196-.335.139c1.393.313 2.821.447 4.249.397 1.304-.041 2.789-.077 4.413-.247l2.352-.253c9.616-1.187 19.293-1.827 28.982-1.918 4.666-.004 9.327.301 13.953.913 4.367.613 9.018 1.248 13.473 1.737l.562.067 1.206.119c.81.088 1.619.17 2.408.242 3.182.289 6.188.475 8.766.49 1.671.024 3.341-.059 5.001-.247-1.698-1.343-3.466-2.596-5.295-3.754z" fill="#fdb927"/><path d="m170.695 117.395c-2.945-.819-6.239-1.794-9.751-2.737-.459-.124-.917-.253-1.381-.372l-1.3-.33-1.299-.33c-.933-.227-1.882-.443-2.836-.655-.206.562-.423 1.13-.665 1.707-.477 1.278-.747 2.623-.799 3.986-.018.571.024 1.143.123 1.707.064.341.157.675.279 1 .041.118.103.232.154.345.115.286.253.562.413.825h.021c.479.073.948.114 1.412.16 3.784.374 7.604-.005 11.241-1.114.809-.247 1.547-.515 2.253-.788.799-.32 1.506-.645 2.129-.959.983-.49 1.929-1.05 2.831-1.676-.887-.232-1.82-.495-2.825-.769z" fill="#fff"/><path d="m240.432 131.482c-9.049-13.994-38.914-22.378-38.914-22.378-6.187 4.445-16.608 8.658-23.775 11.205s-4.64 12.808-4.64 12.808c-1.52.15-3.026.412-4.507.783-6.772 1.707-13.238 4.458-19.165 8.152-.846.516-1.671 1.006-2.486 1.428l-.345.186c-.779.397-1.547.743-2.274 1.031l-.361.15c-.748.299-1.475.567-2.165.789h-.067c-.697.221-1.362.407-1.996.562l-.211.051c-.619.15-1.197.263-1.738.356l-.242.041c-.516.088-1.032.155-1.48.207h-.041c-.439.046-.82.072-1.16.087h-1.485l1.087 5.718-9.172 1.367-.516.077c.346 6.1 3.233 9.132 6.461 9.152 3.475 0 7.564-2.093 9.967-3.305 4.64-2.346 17.737-8.177 24.497-8.709h.061c.382-.03.784-.046 1.202-.061h1.975l1.031.031.634.03 1.067.062.696.047 1.14.093.737.061 1.212.119.794.077 1.31.145.778.082 1.707.206 1.743.217.902.113 1.702.222.572.078 1.892.252.475.067c4.64.634 9.678 1.351 14.978 2.063 4.553.62 9.009 1.813 13.262 3.552l.309.119.717.309c1.964.835 3.795 1.733 5.486 2.645.516.274 1 .552 1.485.825 1.99 1.135 3.749 2.259 5.27 3.285.562.376 1.088.737 1.583 1.083l.361.247c1.242.871 2.258 1.609 3.031 2.119.23.15.444.323.64.516.056.057.108.129.165.191.143.151.277.312.402.479.062.083.119.175.175.263.114.17.222.34.325.516l.165.314c.093.186.186.377.273.573.052.118.098.232.145.35.082.206.16.418.237.629l.124.356c.072.232.139.469.206.712.031.108.067.216.093.33.079.292.151.591.216.897.007.054.019.108.036.16.083.371.155.747.217 1.119.177 1.089 1.134 1.893 2.238 1.882.878.012 1.682-.509 2.031-1.315 6.471-14.468 6.703-33.804-1.072-45.818z"/><path d="m238.508 132.776c-7.512-11.606-31.138-19.413-36.469-21.052-6.894 4.64-17.505 8.765-23.394 10.828-.742.263-3 1.067-3.418 5.223-.137 1.592-.038 3.196.294 4.759l.67 2.738-2.82.222c-4.306.34-14.154 3.222-22.569 8.569-4.373 2.833-9.343 4.616-14.52 5.208l.635 3.032.386 2.294-2.284.454-7.858 1.031c.326 1.379.909 2.683 1.717 3.847.639.661 1.543 1 2.46.923 2.82 0 6.502-1.851 8.703-2.965l.165-.083c4.223-2.139 17.959-8.373 25.394-8.961.779-.062 1.661-.088 2.63-.083 5.78.026 14.582 1.253 24.781 2.671 3.124.433 6.352.882 9.693 1.325 14.644 1.939 25.487 9.617 30.7 13.303.711.516 1.33.939 1.82 1.264 2.124 1.412 3.558 4.202 4.372 8.533 6.255-14.36 5.837-32.401-1.088-43.08z" fill="#fdb927"/></g></svg>