<svg clip-rule="evenodd" fill-rule="evenodd" stroke-linejoin="round" stroke-miterlimit="2" viewBox="0 0 560 400" xmlns="http://www.w3.org/2000/svg"><g fill-rule="nonzero" transform="matrix(.438272 0 0 -.438272 150.375 379.399)"><path d="m483.443 374.377c0-103.649-84.034-187.682-187.682-187.682-103.649 0-187.682 84.033-187.682 187.682 0 103.646 84.033 187.682 187.682 187.682 103.648 0 187.682-84.036 187.682-187.682z" fill="#231f20"/><path d="m452.5 283.884-313.478.001 156.739 271.479zm-115.945 71.304c-7.221-15.291-22.792-25.895-40.794-25.895-24.861 0-45.086 20.225-45.086 45.084 0 24.86 20.225 45.085 45.086 45.085 18.015 0 33.596-10.621 40.811-25.93l27.994 16.122c-12.844 24.95-38.864 42.054-68.805 42.054-42.64 0-77.331-34.69-77.331-77.331 0-42.64 34.691-77.33 77.331-77.33 29.953 0 55.982 17.117 68.821 42.082z" fill="#231f20"/><path d="m295.764 577.11c25.579 0 50.06-3.878 72.625-10.958 0 0 .504 7.181 1.534 16.279 0 0 2.403-.686 2.918 1.374s-2.404 2.575-2.404 2.575.228 4.031 1.103 9.759l.069-.139c1.803-3.349 11.339-20.159 27.497-32.624 15.262-11.773 38.276-16.531 44.974-17.713l.51-.141c10.633-9.258 20.397-19.488 29.155-30.551l-.489.232c-10.493 5.047-23.666 17.526-33.722 20.879-20.395 6.797-36.565 1.802-36.565 1.802s24.977-20.343 43.002-30.9c18.742-10.978 34.826-10.559 40.127-10.03l.538.002c6.618-10.271 12.432-21.108 17.349-32.421l-.342.306c-2.585 2.488-6.409 6.649-10.549 12.788-7.468 11.072-22.403 18.797-41.2 18.54 0 0 7.21-10.815 20.6-25.235 12.995-13.995 23.565-21.441 37.594-22.809l.315-.102c3.116-9.054 5.673-18.366 7.632-27.893l-.345.38c-4.974 6.103-5.074 11.961-14.554 19.782-8.469 6.986-25.492 7.724-25.492 7.724s8.24-13.132 14.935-27.037c6.434-13.365 12.631-23.399 29.335-31.932l.297-.166c.304-4.796.458-9.632.458-14.504 0-6.883-.308-13.695-.911-20.423l-.161 1.053c-1.032 9.494-3.544 22.801-8.933 29.922-7.21 9.528-20.858 13.39-20.858 13.39s3.167-25.887 10.558-38.11c5.021-8.305 13.374-16.609 17.236-20.242l.41-.359c-1.744-11.293-4.323-22.314-7.674-32.997l-.044.875c-.3 6.847-1.356 19.211-5.036 29.548-5.407 15.193-16.737 15.45-16.737 15.45s.257-14.935-2.318-32.703c-2.551-17.602-2.069-23.831 8.456-49.987l.198-.466c-3.704-7.06-7.767-13.902-12.168-20.501l-.113.341c-.374 2.897-.726 5.631-1.036 8.036l.103.704c.475 4.412.521 9.705-.848 14.493-3.089 10.815-11.844 17.768-11.844 17.768s.772-5.408-6.695-21.888c-6.909-15.245-12.715-29.83-7.634-43.55l-.214-.236c-3.913-4.347-8.007-8.528-12.269-12.533l.226.603c8.539 20.721 1.093 35.374 1.093 35.374s-4.892-6.953-15.192-18.54c-9.164-10.309-14.455-17.968-15.874-26.786l-.226-.116c-33.642-23.219-74.433-36.816-118.4-36.816h-.003c-43.966 0-84.758 13.597-118.399 36.816l-.227.116c-1.419 8.818-6.71 16.477-15.873 26.786-10.3 11.587-15.193 18.54-15.193 18.54s-7.446-14.653 1.094-35.374l.225-.603c-4.262 4.005-8.355 8.186-12.268 12.533l-.215.236c5.081 13.72-.725 28.305-7.634 43.55-7.467 16.48-6.694 21.888-6.694 21.888s-8.755-6.953-11.845-17.768c-1.368-4.788-1.323-10.081-.848-14.493l.103-.704c-.309-2.405-.662-5.139-1.035-8.036l-.114-.341c-4.401 6.599-8.464 13.441-12.167 20.501l.197.466c10.526 26.156 11.007 32.385 8.456 49.987-2.575 17.768-2.317 32.703-2.317 32.703s-11.33-.257-16.738-15.45c-3.679-10.337-4.736-22.701-5.035-29.548l-.045-.875c-3.35 10.683-5.93 21.704-7.674 32.997l.41.359c3.863 3.633 12.216 11.937 17.237 20.242 7.39 12.223 10.557 38.11 10.557 38.11s-13.647-3.862-20.857-13.39c-5.389-7.121-7.901-20.428-8.934-29.922l-.161-1.053c-.603 6.728-.911 13.54-.911 20.423 0 4.872.154 9.708.458 14.504l.297.166c16.704 8.533 22.901 18.567 29.336 31.932 6.695 13.905 14.935 27.037 14.935 27.037s-17.024-.738-25.493-7.724c-9.479-7.821-9.58-13.679-14.554-19.782l-.344-.38c1.958 9.527 4.516 18.839 7.631 27.893l.315.102c14.029 1.368 24.6 8.814 37.595 22.809 13.39 14.42 20.6 25.235 20.6 25.235-18.798.257-33.733-7.468-41.2-18.54-4.141-6.139-7.964-10.3-10.55-12.788l-.342-.306c4.917 11.313 10.731 22.15 17.35 32.421l.538-.002c5.3-.529 21.384-.948 40.126 10.03 18.025 10.557 43.003 30.9 43.003 30.9s-16.17 4.995-36.565-1.802c-10.056-3.353-23.229-15.832-33.723-20.879l-.488-.232c8.757 11.063 18.522 21.293 29.154 30.551l.51.141c6.699 1.182 29.713 5.94 44.974 17.713 16.158 12.465 25.695 29.275 27.497 32.624l.069.139c.875-5.728 1.103-9.759 1.103-9.759s-2.919-.515-2.404-2.575 2.918-1.374 2.918-1.374c1.031-9.098 1.535-16.279 1.535-16.279 22.564 7.08 47.045 10.958 72.624 10.958zm0-475.804c30.319 0 59.498 4.966 86.769 14.128l4.553-10.614c63.15 20.959 116.144 64.392 149.456 120.772l.195.297c-6.424-1.451-41.044-9.266-47.775-10.786-.122.949-.316 2.464-.565 4.391l-.103.453c11.508 5.178 20.058 14.443 27.717 25.932 8.24 12.36 19.055 28.067 19.055 28.067s-13.905-.257-24.462-7.982c-7.47-5.465-14.295-10.287-19.746-14.099l-.951-.686c3.33 5.229 6.455 10.601 9.363 16.106l.504.15c13.973 4.014 27.122 11.431 40.957 33.034 14.678 22.917 14.935 46.093 14.935 46.093s-9.785-5.923-21.115-19.313c-7.383-8.725-13.891-14.17-17.53-16.905l-.396-.229c2.578 8.848 4.638 17.915 6.145 27.166l.459.321c25.66 11.393 30.875 22.694 29.862 43.464-1.03 21.115-.515 37.338-.515 37.338s-6.952-3.348-14.42-19.055c-6.761-14.222-6.345-24.644-12.322-36.044l-.369-.645c.196 3.881.294 7.788.294 11.717 0 5.772-.213 11.496-.633 17.162l.221.303c3.424 5.616 13.843 23.577 16.414 38.149 5.304 30.058-8.755 52.015-8.755 52.015s-2.318-8.497-6.952-29.355c-2.897-13.036-4.285-24.462-4.919-31.199l-.087-.636c-1.967 9.559-4.529 18.902-7.646 27.991l.128.299c11.082 20.447 6.768 46.598 1.709 63.8-5.15 17.51-14.163 21.115-14.163 21.115s-3.605-11.072-4.377-22.917c-.535-8.201.535-20.104 1.243-26.652l.039-.577c-3.524 6.484-7.352 12.78-11.463 18.87l.128.305c6.936 17.531.753 38.538-11.577 53.889-12.618 15.707-29.355 28.325-29.355 28.325s.772-15.965 5.15-27.553c4.055-10.733 10.812-21.979 14.554-27.834l.711-1.147c-6.181 6.817-12.766 13.262-19.715 19.298l-.195.535c-1.862 5.49-8.966 23.34-25.998 35.414-14.89 10.555-44.357 12.389-48.449 12.595l-.161.023c.855 5.466 2.293 12.378 4.664 18.796 7.639 20.686 8.446 20.95 10.986 26.351.687 1.459 1.248 3.469 1.248 4.551 0 4.876-3.967 8.844-8.844 8.844-2.2 0-4.215-.808-5.765-2.142l.009.328c.071.421.108.853.108 1.294 0 4.315-3.512 7.827-7.827 7.827-1.929 0-3.698-.702-5.064-1.863l-.021.258c.02.212.03.428.03.645 0 3.839-3.124 6.962-6.962 6.962-1.593 0-3.062-.538-4.237-1.441l.029.272c.003.086.006.172.006.258 0 3.434-2.793 6.227-6.227 6.227-1.619 0-3.096-.621-4.204-1.638l-.093.401c-.523 2.55-2.785 4.474-5.488 4.474-1.174 0-2.264-.363-3.165-.982l-.076.28c-.657 2.039-2.573 3.518-4.828 3.518-1.277 0-2.446-.475-3.339-1.258l-.131.227c-.788 1.42-2.303 2.382-4.04 2.382-1.134 0-2.174-.411-2.979-1.091l-.174.173c-.776.954-1.961 1.565-3.284 1.565-1.574 0-2.949-.863-3.679-2.14l-.14.242c-2.192 5.172-8.284 8.735-8.284 8.735l-.128 11.514s5.021.129 11.716-1.931v10.245c-6.695-2.06-11.716-1.932-11.716-1.932.386 5.665 1.545 10.815 1.545 10.815h-10.988s1.159-5.15 1.545-10.815c0 0-5.021-.128-11.716 1.932v-10.245c6.695 2.06 11.716 1.931 11.716 1.931l-.128-11.514s-6.092-3.563-8.284-8.735l-.14-.242c-.729 1.277-2.105 2.14-3.679 2.14-1.323 0-2.507-.611-3.284-1.565l-.174-.173c-.805.68-1.845 1.091-2.979 1.091-1.736 0-3.252-.962-4.04-2.382l-.131-.227c-.893.783-2.062 1.258-3.339 1.258-2.255 0-4.171-1.479-4.828-3.518l-.076-.28c-.901.619-1.991.982-3.165.982-2.703 0-4.965-1.924-5.488-4.474l-.093-.401c-1.108 1.017-2.585 1.638-4.204 1.638-3.434 0-6.227-2.793-6.227-6.227 0-.086.002-.172.006-.258l.029-.272c-1.174.903-2.644 1.441-4.237 1.441-3.838 0-6.961-3.123-6.961-6.962 0-.217.01-.433.029-.645l-.021-.258c-1.366 1.161-3.134 1.863-5.064 1.863-4.315 0-7.827-3.512-7.827-7.827 0-.441.037-.873.108-1.294l.009-.328c-1.55 1.334-3.565 2.142-5.765 2.142-4.877 0-8.844-3.968-8.844-8.844 0-1.082.561-3.092 1.248-4.551 2.54-5.401 3.347-5.665 10.986-26.351 2.371-6.418 3.809-13.33 4.664-18.796l-.161-.023c-4.092-.206-33.559-2.04-48.449-12.595-17.032-12.074-24.136-29.924-25.998-35.414l-.195-.535c-6.949-6.036-13.534-12.481-19.715-19.298l.712 1.147c3.741 5.855 10.499 17.101 14.553 27.834 4.378 11.588 5.15 27.553 5.15 27.553s-16.737-12.618-29.355-28.325c-12.33-15.351-18.513-36.358-11.576-53.889l.127-.305c-4.111-6.09-7.938-12.386-11.463-18.87l.039.577c.708 6.548 1.778 18.451 1.243 26.652-.772 11.845-4.377 22.917-4.377 22.917s-9.013-3.604-14.163-21.115c-5.059-17.202-9.373-43.353 1.709-63.8l.128-.299c-3.117-9.089-5.679-18.432-7.647-27.991l-.086.636c-.634 6.737-2.022 18.163-4.919 31.199-4.635 20.858-6.952 29.355-6.952 29.355s-14.06-21.957-8.755-52.015c2.571-14.572 12.99-32.532 16.413-38.149l.222-.303c-.42-5.666-.633-11.39-.633-17.162 0-3.929.099-7.836.294-11.717l-.369.645c-5.977 11.4-5.561 21.822-12.322 36.044-7.468 15.707-14.42 19.055-14.42 19.055s.515-16.223-.515-37.338c-1.013-20.77 4.202-32.071 29.861-43.464l.46-.321c1.507-9.251 3.567-18.318 6.146-27.166l-.397.229c-3.64 2.735-10.148 8.18-17.53 16.905-11.33 13.39-21.115 19.313-21.115 19.313s.257-23.176 14.935-46.093c13.835-21.603 26.984-29.02 40.957-33.034l.504-.15c2.908-5.505 6.033-10.877 9.363-16.106l-.951.686c-5.451 3.812-12.276 8.634-19.745 14.099-10.558 7.725-24.463 7.982-24.463 7.982s10.815-15.707 19.055-28.067c7.659-11.489 16.209-20.754 27.717-25.932l-.103-.453c-.248-1.927-.443-3.442-.565-4.391-6.731 1.52-41.351 9.335-47.776 10.786l.196-.297c33.312-56.38 86.306-99.813 149.455-120.772l4.554 10.614c27.271-9.162 56.45-14.128 86.768-14.128z" fill="#8d7149"/><path d="m295.764 161.561c46.85 0 90.213 15.217 125.405 40.968l.277.191 31.848-46.166-.259-.235c-44.257-32.009-98.6-50.893-157.271-50.893h-.003c-58.671 0-113.014 18.884-157.271 50.893l-.259.235 31.848 46.166.277-.191c35.193-25.751 78.555-40.968 125.405-40.968z" fill="#fff"/><path d="m454.986 288.389c13.877 25.592 21.763 54.887 21.763 85.988 0 98.189-78.596 178.366-176.179 180.924l.12-.235 154.126-266.955z" fill="#fff"/><path d="m141.993 279.765 307.97-.001-.198-.377c-31.926-51.572-89.021-85.997-154.004-85.997-65.148 0-122.367 34.6-154.247 86.39z" fill="#fff"/><path d="m137.004 288.629 153.835 266.449.108.223c-97.581-2.561-176.174-82.737-176.174-180.924 0-31.232 7.953-60.643 21.939-86.312z" fill="#fff"/><path d="m202.156 109.948c-57.486 19.988-106.162 58.966-138.483 109.386l-.216.374 42.614-9.622 5.033 39.07.35-.368c13.099-20.247 29.541-38.138 48.537-52.887l.244-.194-27.662-40.1.214-.21c21.838-16.293 46.183-29.403 72.344-38.633z" fill="#fff"/><path d="m389.369 109.948c57.486 19.988 106.163 58.966 138.483 109.386l.216.374-42.613-9.622-5.034 39.07-.349-.368c-13.1-20.247-29.541-38.138-48.537-52.887l-.245-.194 27.662-40.1-.214-.21c-21.837-16.293-46.183-29.403-72.343-38.633z" fill="#fff"/><path d="m338.196 349.49c-8.559-14.539-24.377-24.317-42.435-24.317-27.132 0-49.206 22.072-49.206 49.204s22.074 49.205 49.206 49.205c18.067 0 33.89-9.787 42.447-24.338l20.807 11.964c-12.708 21.742-36.304 36.38-63.254 36.38-40.368 0-73.211-32.842-73.211-73.211 0-40.368 32.843-73.21 73.211-73.21 26.947 0 50.54 14.634 63.25 36.371z" fill="#fff"/><path d="m202.604 165.299-1.997-3.894c-2.02 2.721-4.163 4.666-6.433 5.829-2.915 1.495-5.851 1.812-8.809.954-2.959-.857-5.14-2.654-6.544-5.392-1.43-2.792-1.604-5.644-.521-8.557 1.084-2.913 3.161-5.156 6.233-6.73 2.23-1.144 4.955-1.65 8.174-1.514l-1.997-3.896c-2.898-.057-5.673.593-8.324 1.953-3.886 1.991-6.534 5.007-7.944 9.049-1.409 4.041-1.163 7.915.739 11.624 1.868 3.643 4.821 6.067 8.862 7.273 4.041 1.205 7.972.828 11.792-1.13 2.455-1.259 4.71-3.114 6.769-5.569z" fill="#8d7149"/><path d="m276.364 148.679 10.862-30.306-4 .336-2.672 7.459-11.935 1.002-3.834-6.913-3.989.335zm-.716-8.825-5.319-9.597 9.03-.758z" fill="#8d7149"/><path d="m310.559 147.104 4.439.437c2.915.288 5.358-.11 7.329-1.192s3.052-2.588 3.242-4.518c.232-2.354-.919-4.454-3.453-6.298 4.324-1.003 6.659-3.25 7.004-6.741.24-2.431-.654-4.499-2.684-6.201-2.029-1.703-4.867-2.734-8.515-3.094l-4.593-.454zm4.177-2.997.818-8.284c2.088.235 3.649.796 4.684 1.682 1.034.887 1.485 2.01 1.349 3.373-.116 1.187-.712 2.085-1.784 2.698-1.072.612-2.45.834-4.135.668-.363-.036-.674-.082-.932-.137m1.146-11.616.948-9.609.303.031c3.242.319 5.403 1.066 6.48 2.241 1.078 1.175 1.563 2.313 1.454 3.414-.144 1.455-.922 2.551-2.333 3.287-1.412.736-3.271.99-5.577.763z" fill="#8d7149"/><path d="m242.292 259.712v-38.722h-12.867v27.931h-4.862v10.791z" fill="#231f20"/><path d="m265.468 226.33c.652.709 1.838 2.192 2.846 3.496 1.007 1.246 1.422 1.839 2.195 3.022.71 1.131 1.007 1.603 1.482 2.376l-.117.115c-2.432-1.124-3.62-1.42-5.518-1.42-6.641 0-11.442 5.041-11.442 11.975 0 8.778 7.174 14.765 17.668 14.765 9.313 0 15.478-5.929 15.478-14.765 0-2.487-.355-4.499-1.304-6.992-1.185-3.206-3.38-7.237-5.574-10.322l-5.456-7.59h-15.001zm2.135 19.628c0-2.729 1.481-4.39 3.973-4.39 2.195 0 3.853 1.777 3.853 4.21 0 2.376-1.658 4.211-3.735 4.211-2.431 0-4.091-1.662-4.091-4.031z" fill="#231f20"/><path d="m320.463 259.712v-38.722h-12.867v27.931h-4.863v10.791z" fill="#231f20"/><path d="m335.32 248.028c.354 3.978 1.955 7.117 4.743 9.372 2.903 2.371 6.047 3.322 10.97 3.322 9.369 0 15.062-4.209 15.062-11.09 0-4.09-2.549-6.761-7.651-7.828v-.119c2.137-.353 2.966-.591 4.153-1.247.949-.531 1.78-1.183 2.43-1.95 1.482-1.662 2.253-3.916 2.253-6.644 0-6.997-6.699-11.917-16.186-11.917-5.99 0-10.202 1.246-13.049 3.969-2.013 1.903-3.438 4.452-4.029 7.354-.122.594-.239 1.246-.358 2.077h12.688c.477-2.55 1.899-3.859 3.917-3.859 2.371 0 4.15 1.604 4.15 3.859 0 2.195-1.779 3.857-4.15 3.857h-1.127v7.88h.829c1.78 0 3.319 1.545 3.319 3.263 0 1.898-1.364 3.498-2.963 3.498-2.134 0-3.38-1.364-3.559-3.797z" fill="#231f20"/><path d="m239.805 149.635-9.858 2.814-.1.038-2.462-8.628c-2.312-8.168-6.44-11.068-9.747-11.864-2.391-.613-3.8-.254-3.8-.254l1.142 4.002s5.813-.99 8.689 9.169l3.521 12.339 17.497-4.993-7.737-27.112-3.715 1.059 6.676 23.394z" fill="#8d7149"/><path d="m380.561 132.92-3.696-1.12-5.795 19.142-13.796-26.416-8.542 28.218 3.696 1.121 5.878-19.413 13.769 26.502z" fill="#8d7149"/><path d="m421.275 151.365-3.427-1.78-5.341 10.284-.742-.386-1.641-13.909-3.931-2.041 1.711 14.485c-2.589-.681-4.763-.662-6.524.052-1.759.716-3.075 1.91-3.945 3.586-1.088 2.094-1.131 4.253-.131 6.476 1.002 2.223 2.851 4.036 5.551 5.439l5.427 2.817zm-18.969 17.613c-.853-.751-1.397-1.618-1.635-2.599-.235-.981-.078-2.003.473-3.066 1.574-3.032 4.848-3.191 9.821-.474l-4.539 8.741c-1.893-.983-3.267-1.851-4.12-2.602z" fill="#8d7149"/><g fill="#fff"><path d="m288.978 650.284c0-3.746 3.039-6.784 6.785-6.784 3.747 0 6.784 3.038 6.784 6.784 0 3.747-3.037 6.784-6.784 6.784-3.746 0-6.785-3.037-6.785-6.784z"/><path d="m247.95 648.739c0-3.746 3.038-6.784 6.784-6.784 3.747 0 6.784 3.038 6.784 6.784 0 3.747-3.037 6.784-6.784 6.784-3.746 0-6.784-3.037-6.784-6.784z"/><path d="m258.517 659.166c0-2.247 1.823-4.07 4.071-4.07s4.07 1.823 4.07 4.07c0 2.249-1.822 4.071-4.07 4.071s-4.071-1.822-4.071-4.071z"/><path d="m267.098 664.574c0-1.348 1.093-2.442 2.443-2.442 1.348 0 2.442 1.094 2.442 2.442 0 1.349-1.094 2.443-2.442 2.443-1.35 0-2.443-1.094-2.443-2.443z"/><path d="m273.38 668.308c0-1.079.875-1.954 1.954-1.954 1.08 0 1.954.875 1.954 1.954s-.874 1.954-1.954 1.954c-1.079 0-1.954-.875-1.954-1.954z"/><path d="m279.178 670.883c0-.863.7-1.563 1.564-1.563.863 0 1.563.7 1.563 1.563s-.7 1.563-1.563 1.563c-.864 0-1.564-.7-1.564-1.563z"/><path d="m265.314 578.749c2.009.287 3.322 2.835 2.917 5.663-.404 2.826-2.379 4.905-4.389 4.617-2.009-.287-9.953-1.425-11.963-1.713-2.008-.287-3.321-2.836-2.917-5.663.405-2.827 2.379-4.905 4.39-4.617 2.009.287 9.952 1.425 11.962 1.713z"/><path d="m223.906 570.463c2.815.712 5.986 1.514 7.144 1.806 1.968.498 3.005 3.169 2.305 5.939-.699 2.769-2.882 4.627-4.85 4.13-.97-.245-3.352-.847-5.754-1.455 0 0 .225-1.885.568-5.147.344-3.261.587-5.273.587-5.273z"/><path d="m280.853 585.514c.204-2.86-1.362-5.303-3.5-5.456s-4.037 2.042-4.242 4.901c-.204 2.861 1.362 5.303 3.5 5.458 2.138.152 4.037-2.042 4.242-4.903z"/><path d="m244.831 580.809c.533-2.818-.74-5.425-2.846-5.825-2.106-.399-4.246 1.561-4.78 4.379s.74 5.425 2.845 5.825c2.107.399 4.247-1.562 4.781-4.379z"/><path d="m205.076 646.292c0-3.746 3.038-6.784 6.784-6.784 3.747 0 6.785 3.038 6.785 6.784 0 3.748-3.038 6.785-6.785 6.785-3.746 0-6.784-3.037-6.784-6.785z"/><path d="m219.569 654.617c0-3.184 2.582-5.767 5.767-5.767s5.767 2.583 5.767 5.767c0 3.185-2.582 5.767-5.767 5.767s-5.767-2.582-5.767-5.767z"/><path d="m232.451 661.484c0-2.706 2.195-4.902 4.902-4.902s4.901 2.196 4.901 4.902c0 2.707-2.194 4.902-4.901 4.902s-4.902-2.195-4.902-4.902z"/><path d="m254.025 671.397c0-1.955 1.586-3.541 3.542-3.541 1.955 0 3.541 1.586 3.541 3.541 0 1.957-1.586 3.542-3.541 3.542-1.956 0-3.542-1.585-3.542-3.542z"/><path d="m262.625 674.745c0-1.662 1.348-3.01 3.01-3.01 1.663 0 3.01 1.348 3.01 3.01s-1.347 3.01-3.01 3.01c-1.662 0-3.01-1.348-3.01-3.01z"/><path d="m270.586 676.547c0-1.412 1.146-2.558 2.56-2.558 1.413 0 2.558 1.146 2.558 2.558 0 1.413-1.145 2.559-2.558 2.559-1.414 0-2.56-1.146-2.56-2.559z"/><path d="m277.408 677.577c0-1.201.973-2.174 2.175-2.174 1.201 0 2.175.973 2.175 2.174 0 1.202-.974 2.175-2.175 2.175-1.202 0-2.175-.973-2.175-2.175z"/><path d="m243.615 667.535c0-2.3 1.866-4.166 4.167-4.166s4.166 1.866 4.166 4.166c0 2.301-1.865 4.167-4.166 4.167s-4.167-1.866-4.167-4.167z"/><path d="m295.761 594.534c-24.206 0-47.865-2.906-70.369-8.64-.857-.218-1.712-.44-2.566-.667-.922-.38-.537-1.25.265-.996.822.219 1.645.433 2.47.644 22.446 5.727 46.049 8.629 70.2 8.629h.003c24.152 0 47.755-2.902 70.201-8.629.825-.211 1.648-.425 2.47-.644.801-.254 1.186.616.264.996-.853.227-1.709.449-2.566.667-22.503 5.734-46.163 8.64-70.369 8.64z"/><path d="m301.805 580.543c2.03 0 3.691 2.337 3.691 5.193s-1.661 5.193-3.691 5.193h-12.084c-2.03 0-3.691-2.337-3.691-5.193s1.661-5.193 3.691-5.193z"/><path d="m343.576 648.739c0-3.746-3.038-6.784-6.785-6.784s-6.784 3.038-6.784 6.784c0 3.747 3.037 6.784 6.784 6.784s6.785-3.037 6.785-6.784z"/><path d="m333.008 659.166c0-2.247-1.823-4.07-4.07-4.07-2.249 0-4.071 1.823-4.071 4.07 0 2.249 1.822 4.071 4.071 4.071 2.247 0 4.07-1.822 4.07-4.071z"/><path d="m324.428 664.574c0-1.348-1.094-2.442-2.443-2.442s-2.442 1.094-2.442 2.442c0 1.349 1.093 2.443 2.442 2.443s2.443-1.094 2.443-2.443z"/><path d="m318.146 668.308c0-1.079-.875-1.954-1.955-1.954-1.079 0-1.954.875-1.954 1.954s.875 1.954 1.954 1.954c1.08 0 1.955-.875 1.955-1.954z"/><path d="m312.347 670.883c0-.863-.7-1.563-1.563-1.563-.864 0-1.563.7-1.563 1.563s.699 1.563 1.563 1.563c.863 0 1.563-.7 1.563-1.563z"/><path d="m326.211 578.749c-2.009.287-3.321 2.835-2.917 5.663.405 2.826 2.379 4.905 4.39 4.617 2.009-.287 9.952-1.425 11.962-1.713 2.009-.287 3.322-2.836 2.917-5.663-.404-2.827-2.379-4.905-4.389-4.617-2.009.287-9.953 1.425-11.963 1.713z"/><path d="m367.619 570.463c-2.815.712-5.986 1.514-7.144 1.806-1.967.498-3.005 3.169-2.305 5.939.699 2.769 2.883 4.627 4.85 4.13.97-.245 3.353-.847 5.754-1.455 0 0-.224-1.885-.568-5.147-.343-3.261-.587-5.273-.587-5.273z"/><path d="m310.672 585.514c-.204-2.86 1.363-5.303 3.5-5.456 2.139-.153 4.037 2.042 4.242 4.901.205 2.861-1.362 5.303-3.499 5.458-2.139.152-4.038-2.042-4.243-4.903z"/><path d="m346.694 580.809c-.533-2.818.741-5.425 2.846-5.825 2.106-.399 4.246 1.561 4.78 4.379s-.74 5.425-2.845 5.825c-2.106.399-4.246-1.562-4.781-4.379z"/><path d="m386.45 646.292c0-3.746-3.039-6.784-6.785-6.784-3.747 0-6.784 3.038-6.784 6.784 0 3.748 3.037 6.785 6.784 6.785 3.746 0 6.785-3.037 6.785-6.785z"/><path d="m371.957 654.617c0-3.184-2.583-5.767-5.768-5.767-3.184 0-5.766 2.583-5.766 5.767 0 3.185 2.582 5.767 5.766 5.767 3.185 0 5.768-2.582 5.768-5.767z"/><path d="m359.075 661.484c0-2.706-2.196-4.902-4.903-4.902-2.706 0-4.901 2.196-4.901 4.902 0 2.707 2.195 4.902 4.901 4.902 2.707 0 4.903-2.195 4.903-4.902z"/><path d="m337.5 671.397c0-1.955-1.585-3.541-3.541-3.541s-3.542 1.586-3.542 3.541c0 1.957 1.586 3.542 3.542 3.542s3.541-1.585 3.541-3.542z"/><path d="m328.901 674.745c0-1.662-1.348-3.01-3.011-3.01-1.662 0-3.01 1.348-3.01 3.01s1.348 3.01 3.01 3.01c1.663 0 3.011-1.348 3.011-3.01z"/><path d="m320.939 676.547c0-1.412-1.146-2.558-2.559-2.558s-2.558 1.146-2.558 2.558c0 1.413 1.145 2.559 2.558 2.559s2.559-1.146 2.559-2.559z"/><path d="m314.118 677.577c0-1.201-.974-2.174-2.176-2.174-1.2 0-2.174.973-2.174 2.174 0 1.202.974 2.175 2.174 2.175 1.202 0 2.176-.973 2.176-2.175z"/><path d="m347.911 667.535c0-2.3-1.867-4.166-4.167-4.166-2.301 0-4.166 1.866-4.166 4.166 0 2.301 1.865 4.167 4.166 4.167 2.3 0 4.167-1.866 4.167-4.167z"/><path d="m295.761 635.218c-8.271.001-12.874 2.535-15.093 4.455-.739.64-1.6 1.854-1.554 4.042.061 2.855.255 7.938 1.757 13.778 1.31 5.094 3.218 7.725 3.218 7.725s-7.596-4.378-11.974-10.043c-3.29-4.259-4.708-9.437-5.289-12.443-.296-1.526-.939-3.055-1.99-3.811-2.467-1.773-7.618-4.605-14.479-3.702-9.785 1.287-12.589 4.895-9.142 13.132 2.318 5.537 10.172 10.815 10.172 10.815s-5.536-.772-11.201-7.081-11.298-13.959-15.708-17.768c-5.665-4.892-11.716-1.802-11.716-1.802 2.961-7.468 4.277-12.39 4.277-12.39l5.544 1.092-.485-8.232 9.281 2.877 1.903-8.81-9.016-.376 4.221-13.692c5.476.746 8.06 2.673 9.264 4.155l-.322.175c-.86.441-1.449 1.336-1.449 2.37 0 1.469 1.191 2.66 2.661 2.66 1.469 0 2.66-1.191 2.66-2.66 0-.89-.436-1.677-1.106-2.159l-.236-.218c1.36-.891 4.275-1.622 10.518-.731l-.379 15.012-8.666-2.517-1.003 8.958 9.714.23-3.081 7.648 11.465 1.497-1.014-8.183 9.447 2.273 1.332-8.915-9.022.207 3.33-13.936c6.555.581 9.642 2.371 11.097 3.925l.174.16c-.91.423-1.54 1.345-1.54 2.414 0 1.469 1.19 2.66 2.66 2.66s2.661-1.191 2.661-2.66c0-.984-.534-1.843-1.328-2.303l.189-.202c1.712-1.221 5.329-2.378 12.944-2.124l1.499 13.727-9.27-1.373.172 9.012 10.042-1.03-2.146 7.983h12.017l-2.146-7.983 10.042 1.03.173-9.012-9.27 1.373 1.498-13.727c7.616-.254 11.232.903 12.945 2.124l.189.202c-.795.46-1.328 1.319-1.328 2.303 0 1.469 1.19 2.66 2.66 2.66s2.661-1.191 2.661-2.66c0-1.069-.631-1.991-1.54-2.414l.174-.16c1.454-1.554 4.542-3.344 11.096-3.925l3.33 13.936-9.021-.207 1.331 8.915 9.448-2.273-1.015 8.183 11.465-1.497-3.081-7.648 9.714-.23-1.003-8.958-8.665 2.517-.379-15.012c6.243-.891 9.157-.16 10.517.731l-.235.218c-.67.482-1.106 1.269-1.106 2.159 0 1.469 1.191 2.66 2.66 2.66s2.66-1.191 2.66-2.66c0-1.034-.588-1.929-1.449-2.37l-.322-.175c1.204-1.482 3.788-3.409 9.265-4.155l4.221 13.692-9.016.376 1.902 8.81 9.282-2.877-.486 8.232 5.545-1.092s1.315 4.922 4.277 12.39c0 0-6.052-3.09-11.717 1.802-4.409 3.809-10.042 11.459-15.707 17.768s-11.201 7.081-11.201 7.081 7.854-5.278 10.171-10.815c3.448-8.237.644-11.845-9.141-13.132-6.861-.903-12.013 1.929-14.48 3.702-1.051.756-1.694 2.285-1.989 3.811-.582 3.006-1.999 8.184-5.29 12.443-4.378 5.665-11.974 10.043-11.974 10.043s1.909-2.631 3.219-7.725c1.502-5.84 1.696-10.923 1.756-13.778.047-2.188-.814-3.402-1.554-4.042-2.219-1.92-6.822-4.454-15.093-4.455z"/><path d="m291.405 658.815c-.203.524-.315 1.093-.315 1.688 0 2.577 2.096 4.672 4.673 4.672 2.576 0 4.672-2.095 4.672-4.672 0-.628-.124-1.227-.35-1.774l-.076-.106c-1.275.652-2.719 1.02-4.246 1.02-1.542 0-2.998-.375-4.281-1.038z"/><path d="m292.495 666.343c0 1.801 1.466 3.267 3.267 3.267 1.802 0 3.268-1.466 3.268-3.267l.009-.188c-.964.561-2.083.882-3.277.882-1.192 0-2.311-.32-3.274-.881l.006.187z"/></g></g></svg>