<svg clip-rule="evenodd" fill-rule="evenodd" stroke-linejoin="round" stroke-miterlimit="2" viewBox="0 0 560 400" xmlns="http://www.w3.org/2000/svg"><g fill="#e40046" fill-rule="nonzero"><path d="m186.785 178.9c-9.746 0-15.611 4.762-15.611 12.603 0 6.07 3.311 10.271 14.003 14.005l3.5 1.214c6.623 2.334 8.611 4.294 8.611 7.562 0 4.108-3.596 6.629-9.651 6.629-4.92 0-8.8-1.494-12.49-4.949-1.514-1.493-3.5-1.493-5.014 0l-.095.094c-1.23 1.213-1.23 3.64 0 4.855 5.015 4.761 10.502 6.722 17.599 6.722 10.691 0 17.22-4.949 17.22-13.445 0-6.628-3.312-10.363-13.625-14.004l-3.406-1.213c-7.001-2.521-9.084-4.482-9.084-7.749 0-3.361 3.123-5.602 8.043-5.602 4.069 0 7.286 1.401 10.692 4.389 1.514 1.4 3.595 1.306 5.109-.188l.095-.093c1.23-1.213 1.23-3.641-.095-4.762-4.636-4.201-9.367-6.068-15.801-6.068m101.903 25.675v4.014c0 7.095-5.11 12.323-13.342 12.323-6.434 0-10.313-2.894-10.313-8.216 0-5.134 4.164-8.121 11.354-8.121zm-11.07-25.675c-5.867 0-11.355 1.587-16.653 6.909-1.23 1.307-1.23 3.827 0 5.041l.189.188c1.42 1.4 3.501 1.4 4.92-.094 3.879-4.109 7.665-5.322 11.544-5.322 6.906 0 11.07 3.828 11.07 10.176v2.334h-12.301c-11.921 0-18.922 5.322-18.922 14.564 0 8.683 6.717 14.939 16.179 14.939 6.717 0 11.922-2.615 15.139-6.816v2.054c0 1.867 1.608 3.454 3.595 3.454h.189c1.892 0 3.501-1.587 3.501-3.547v-26.982c0-10.549-6.907-16.898-18.45-16.898zm201.534 25.675v4.014c0 7.095-5.11 12.323-13.342 12.323-6.434 0-10.313-2.894-10.313-8.216 0-5.134 4.164-8.121 11.354-8.121zm-11.071-25.675c-9.934 0-17.693 5.789-17.693 9.616 0 .934.284 1.868.947 2.522l.189.186c.662.654 1.418.933 2.365.933 1.608 0 2.744-1.213 4.258-2.707 1.892-1.867 4.92-3.828 9.934-3.828 6.907 0 11.071 3.828 11.071 10.176v2.334h-12.301c-11.921 0-18.922 5.322-18.922 14.564 0 8.683 6.717 14.939 16.179 14.939 6.717 0 11.922-2.615 15.139-6.816v2.054c0 1.867 1.608 3.454 3.595 3.454h.189c1.892 0 3.501-1.587 3.501-3.547v-26.982c0-10.549-6.907-16.898-18.451-16.898zm-82.222 28.382c-.946 8.589-5.298 13.631-13.246 13.631-8.988 0-13.436-6.537-13.436-17.646 0-11.11 4.448-17.645 13.436-17.645 8.042 0 12.395 5.229 13.246 14.004zm7.381 6.816v-55.363c0-1.96-1.609-3.548-3.596-3.548h-.19c-1.986 0-3.595 1.588-3.595 3.548v26.794c-3.312-4.295-8.232-6.629-14.76-6.629-12.585 0-19.491 8.963-19.491 24.368 0 15.404 6.906 24.367 19.491 24.367 7.001 0 12.206-2.708 15.423-7.656 1.324 3.921 4.446 7.002 7.474 7.002 1.987 0 3.69-1.4 3.69-3.455 0-3.734-4.446-3.174-4.446-9.428zm-68.598 6.814c-8.988 0-13.435-6.535-13.435-17.271v-.747c0-10.736 4.447-17.271 13.435-17.271 8.799 0 13.435 6.535 13.435 17.644 0 11.11-4.636 17.645-13.435 17.645m1.514-42.012c-6.529 0-11.543 2.428-14.855 6.815v-2.053c0-1.867-1.608-3.455-3.501-3.455h-.189c-1.987 0-3.596 1.588-3.596 3.455v57.696c0 1.961 1.609 3.548 3.596 3.548h.189c1.987 0 3.596-1.587 3.596-3.548v-20.446c3.311 4.388 8.231 6.722 14.76 6.722 12.584 0 19.491-8.962 19.491-24.367 0-15.404-6.907-24.367-19.491-24.367m95.847 6.722c8.421 0 12.679 4.949 13.152 13.631h-26.115c.947-8.59 5.204-13.631 12.963-13.631zm18.545 31.556c-1.514-1.4-3.596-1.588-5.299-.28-3.69 2.801-7.001 4.014-11.732 4.014-9.084 0-14.004-5.695-14.571-15.217h29.047c2.745 0 4.732-1.961 4.732-4.669 0-13.817-6.718-22.125-20.722-22.125-13.624 0-20.721 9.055-20.721 24.367 0 15.31 7.664 24.367 22.235 24.367 6.907 0 11.732-1.681 16.842-5.789 1.419-1.121 1.513-3.361.283-4.574zm-221.499 5.602v-23.06c0-8.777 4.447-14.098 12.773-14.098 8.043 0 11.544 4.481 11.544 13.444v23.713c0 1.961 1.609 3.548 3.596 3.548h.189c1.987 0 3.595-1.587 3.595-3.548v-23.9c0-13.537-5.298-19.979-17.219-19.979-6.53 0-11.449 2.428-14.573 6.816v-2.054c0-1.867-1.607-3.455-3.5-3.455h-.189c-1.987 0-3.596 1.588-3.596 3.455v39.117c0 1.961 1.609 3.548 3.596 3.548h.189c1.987 0 3.596-1.587 3.596-3.548m283.567 4.202c1.987 0 3.69-1.4 3.69-3.455 0-3.734-4.447-3.174-4.447-9.429v-55.362c0-1.96-1.609-3.548-3.596-3.548h-.189c-1.988 0-3.596 1.588-3.596 3.548v57.323c0 5.509 4.069 10.923 8.137 10.923"/><path d="m74.099 242.572c1.04 1.774 2.176 2.428 4.257 2.428h38.793c2.082 0 3.217-.561 4.542-2.241l29.332-37.345c.661-.84-.096-2.24-1.136-2.24h-47.025c-2.081 0-3.217-.654-4.257-2.427l-23.655-40.332c-.567-.934-2.081-.746-2.461.187l-18.26 43.599c-.851 1.961-.662 3.268.379 5.041z"/><path d="m122.921 194.398c1.041 1.774 2.176 2.428 4.258 2.428h22.707c1.136 0 1.987-1.401 1.42-2.428l-21.667-36.97c-1.041-1.774-2.177-2.428-4.258-2.428h-43.335c-1.135 0-1.986 1.4-1.419 2.428l11.26 19.232c1.041 1.773 2.175 2.427 4.258 2.427h17.881z"/></g></svg>