<svg clip-rule="evenodd" fill-rule="evenodd" stroke-linejoin="round" stroke-miterlimit="2" viewBox="0 0 560 400" xmlns="http://www.w3.org/2000/svg"><g transform="matrix(9.375 0 0 9.375 130 50)"><circle cx="16" cy="16" fill="#00b098" r="16"/><path d="m6 12.391v-.356h8.417v.356zm0-1.035v-.356h8.417v.356zm3.55 10.64v-8.893h.338v8.893zm.98 0v-8.893h.337v8.893zm15.232-.728-3.798-4.013.238-.251 3.798 4.012zm-9.243-10.268 3.798 4.013-.238.251-3.798-4.012zm8.55 11-3.798-4.013.238-.252 3.798 4.013zm-9.242-10.268 3.798 4.012-.239.252-3.798-4.012zm5.421 4.768.239-.252 4.275-4.516.238.252-4.275 4.516-.238.252-.454.48-.239.252-4.274 4.516-.238-.252 4.275-4.516.238-.252zm-.454-.984 4.276-4.516.238.252-4.275 4.516-.238.252-.454.48-.239.252-4.274 4.516-.239-.252 4.275-4.516.238-.252.455-.48z" fill="#fff" fill-rule="nonzero"/></g></svg>