<svg clip-rule="evenodd" fill-rule="evenodd" stroke-linejoin="round" stroke-miterlimit="2" viewBox="0 0 560 400" xmlns="http://www.w3.org/2000/svg"><g transform="matrix(.643077 0 0 .643077 151.648 63.6769)"><path d="m204.355 34.557-8.322 33.265.878 1.125c.483.618 2.114 2.576 3.625 4.35l2.746 3.226-.207 24.731c-.115 13.603-.315 35.239-.445 48.081l-.237 23.349 4.538-.039c2.496-.021 4.539-.061 4.539-.09 0-.028 1.451-21.558 3.225-47.844 1.775-26.285 3.226-48.059 3.226-48.387 0-.327 1.653-1.969 3.674-3.648 5.51-4.58 5.143-3.891 4.285-8.053-.398-1.932-2.675-12.947-5.061-24.48-2.385-11.532-5.071-24.596-5.967-29.032-.897-4.435-1.753-8.459-1.903-8.941-.2-.644-2.482 7.957-8.594 32.387m-29.891-31.618c-.093.65-2.213 15.933-4.71 33.961l-4.541 32.779 4.137 3.96 4.138 3.96 4.295 46.932c2.363 25.812 4.296 47.325 4.296 47.806 0 .837.073.865 1.702.643.937-.128 3.022-.332 4.633-.454l2.931-.222-.168-3.088c-.092-1.698-.799-21.797-1.57-44.664s-1.491-43.351-1.6-45.52l-.199-3.942 3.986-4.013 3.985-4.013-7.72-23.944c-4.246-13.169-8.952-27.813-10.458-32.54-3.074-9.651-2.906-9.243-3.137-7.641m66.315 23.852c-3.67 11.188-8.455 25.81-10.633 32.493l-3.96 12.151 3.287 4.516c3.197 4.39 3.285 4.564 3.198 6.307-.049.986-1.694 21.417-3.656 45.402s-3.567 43.925-3.567 44.311c0 .585 8.078 1.492 8.851.993.146-.094 1.365-8.525 7.098-49.129 3.257-23.064 6.004-42.258 6.105-42.652.101-.396 2.185-2.148 4.656-3.914 2.46-1.759 4.473-3.342 4.473-3.518s-1.435-11.076-3.19-24.222c-1.754-13.146-3.716-28.095-4.36-33.221-.644-5.125-1.274-9.44-1.399-9.589-.126-.148-3.232 8.884-6.903 20.072m-100.756-16.038c-.093.295-1.076 14.973-2.184 32.616-1.109 17.644-2.087 32.805-2.175 33.692l-.159 1.613 3.242 2.688c1.783 1.479 3.791 3.172 4.462 3.763l1.22 1.076 2.534 15.053c1.394 8.28 3.323 19.651 4.287 25.269.964 5.619 3.233 18.925 5.042 29.57s3.34 19.411 3.402 19.479 1.244-.133 2.627-.448c1.384-.315 3.129-.574 3.879-.578 2.541-.01 2.494.797.835-14.377-.828-7.564-3.078-28.108-5.001-45.653l-3.497-31.9 3.527-4.244c1.94-2.335 3.527-4.437 3.527-4.671s-3.237-8.405-7.193-18.157c-3.957-9.752-8.34-20.634-9.741-24.182-6.053-15.329-8.476-21.113-8.634-20.609m70.484 24.731c.037 16.032-.779 22.209-4.574 34.588-.302.985-.548 1.872-.546 1.971s.814-1.353 1.805-3.226c1.981-3.744 3.562-5.73 3.559-4.472-.001.39-.968 24.096-2.149 52.68-1.182 28.584-2.149 52.478-2.149 53.097-.001 1.01-2.038 1.998-2.809 1.363-.142-.118.564-73.602.83-86.237l.185-8.837-3.656-4.384-3.655-4.384 5.662-22.8c3.115-12.54 5.836-23.445 6.049-24.234l.386-1.433.517 2.329c.389 1.751.524 5.226.545 13.979m-35.965-11.414c3.313 13.969 3.536 33.582.545 47.847-.118.562.251-.107.821-1.487 2.563-6.208 3.162-7.034 3.452-4.756.256 2.018 6.671 102.528 6.665 104.448-.003 1.437-.045 1.489-1.295 1.635-1.651.193-.931 6.06-5.847-47.661l-4.306-47.051-3.955-3.799c-2.977-2.859-3.955-4.022-3.955-4.699 0-.495 1.451-11.431 3.225-24.301 1.775-12.871 3.231-23.616 3.237-23.878.024-1.031.728.813 1.413 3.702m68.964 3.797c.401 5.857-.749 19.833-2.459 29.869-.409 2.396-3.814 13.111-5.742 18.07-.154.395.64-.734 1.764-2.509 1.123-1.774 2.527-3.709 3.12-4.301l1.078-1.075-.208 1.255c-.179 1.08-11.668 101.489-11.668 101.973 0 .097-.647.177-1.438.177h-1.438l.188-1.344c.104-.739 1.805-21.214 3.78-45.5l3.591-44.157-3.285-4.567-3.284-4.567 5.759-17.585c3.167-9.671 6.607-20.205 7.645-23.409 2.214-6.831 2.284-6.895 2.597-2.33m-102.155 3.957c2.591 8.222 5.33 25.569 5.274 33.409-.015 2.07-.265 6.335-.556 9.479-.565 6.112-.536 6.965.149 4.244.523-2.078 2.502-6.913 2.83-6.913.129 0 1.58 9.718 3.223 21.595s4.105 29.659 5.47 39.516c1.366 9.857 3.129 22.599 3.917 28.316.789 5.716 1.511 10.738 1.604 11.158.143.639-.058.822-1.231 1.119-1.678.426-1.293 1.595-3.224-9.769-.804-4.731-4.122-24.211-7.374-43.289s-5.913-34.837-5.913-35.019c0-.183-1.936-1.973-4.301-3.979-2.952-2.502-4.306-3.885-4.315-4.407-.048-2.612 3.091-48.523 3.308-48.388.147.09.66 1.408 1.139 2.928m-19.618 93.499c-.126.917-1.21 5.957-2.409 11.201-1.199 5.243-2.888 12.633-3.753 16.422-2.414 10.572-5.894 30.106-5.894 33.087 0 .206 1.956.347 4.832.347 5.725 0 5.071.937 5.376-7.706.118-3.351.615-13.432 1.104-22.402 1.272-23.316 1.607-37.246.744-30.949m147.992 7.293c.107 4.239.43 11.981.716 17.205 1.02 18.597 1.581 30.075 1.987 40.681.227 5.914.435 10.771.462 10.794s2.371.13 5.209.237l5.161.196-.239-4.174c-.718-12.577-3.538-29.456-8.311-49.738-1.109-4.713-2.728-11.795-3.599-15.738l-1.582-7.169zm-134.556 56.527c-2.021.996-2.721 3.941-1.23 5.179.294.244 1.849.778 3.456 1.187 2.944.749 3.915 1.608 2.694 2.382-1.189.753-3.888.094-3.888-.95 0-.384-.436-.525-1.613-.525-1.746 0-2.082.604-1.226 2.204 1.21 2.261 8.407 2.345 9.867.116 1.484-2.265.426-4.467-2.492-5.187-3.769-.93-4.178-1.103-4.178-1.769 0-1.26 2.445-1.521 3.584-.382.768.768 3.585 1.035 3.585.34 0-2.672-5.201-4.249-8.559-2.595m16.522-.162c-4.886 1.565-4.714 9.638.235 11.012 5.238 1.455 9.467-1.023 9.467-5.549 0-4.576-4.523-7.123-9.702-5.463m14.617 4.161c0 5.794 1.162 7.216 5.895 7.216 4.852 0 6.044-1.389 6.232-7.258l.135-4.211h-3.301v3.172c0 4.886-1.078 6.61-3.717 5.947-1.663-.417-2.018-1.374-2.018-5.435v-3.684h-3.226zm16.488-3.178v1.075h4.301v8.961h3.226v-8.961h4.301v-2.15h-11.828zm16.129 4.48v5.556h3.584v-4.301h5.376v4.301h3.226v-11.111h-3.226v4.301h-5.376v-4.301h-3.584zm17.921 0v5.556h9.677v-2.151h-6.451v-2.121l5.914-.208.224-2.33h-6.138v-2.151h6.451v-2.15h-9.677zm15.054 0v5.556h3.225v-4.301h1.545c2.107 0 2.79.593 3.019 2.62l.189 1.681h3.524l-.226-1.344c-.419-2.498-.914-3.636-1.687-3.881-.735-.233-.729-.258.197-.743 1.783-.935 1.726-3.656-.096-4.599-.77-.398-2.211-.544-5.371-.544h-4.319zm16.129 0v5.556h2.867v-3.785c0-4.445-.061-4.449 2.836.179l2.257 3.606h4.584v-11.111h-2.843l-.102 4.032-.101 4.032-2.509-4.018-2.509-4.019-2.24-.013-2.24-.014zm-90.771-2.453c1.692 1.847.692 5.512-1.645 6.025-2.316.509-3.971-.916-3.989-3.434-.024-3.488 3.379-5.053 5.634-2.591m82.29-.175c.66 1.052-.319 1.732-2.495 1.732h-1.928v-2.544l2.024.107c1.414.075 2.137.288 2.399.705m-199.901 2.436-6.052.192-6.733 19.893c-13.321 39.359-21.591 63.747-24.003 70.781-1.351 3.939-2.425 7.177-2.389 7.196.11.058 34.44-6.631 34.864-6.793.213-.081 2.863-8.863 5.888-19.514l5.501-19.367 4.804-4.175c2.641-2.297 4.866-4.112 4.944-4.035.077.077 2.256 9.728 4.841 21.447 2.585 11.718 4.807 21.401 4.938 21.517.233.207 39.775-3.429 40.027-3.68.07-.071-.661-1.483-1.625-3.138s-2.889-5.487-4.279-8.515c-2.354-5.128-3.675-8.851-15.531-43.761l-2.226-6.554.78-.615c.429-.338 6.673-5.212 13.877-10.83l13.098-10.215-9.32-.096-9.32-.095-17.46 14.969c-9.604 8.233-17.784 15.266-18.178 15.629-1.542 1.418-3.405 2.793-3.401 2.508.003-.164.469-1.831 1.037-3.704 5.462-18.009 8.637-28.668 8.637-28.996 0-.413-10.56-.435-22.719-.049m271.511.041c-5.394 1.06-8.649 5.249-8.649 11.131 0 4.265 4.701 24.911 6.635 29.138 3.319 7.256 7.568 9.571 18.813 10.249 3.253.196 10.188.672 15.412 1.059 5.224.386 10.488.768 11.697.848 3.961.263 4.462.816 6.229 6.883 2.153 7.39 2.867 7.148-16.877 5.724-6.786-.49-14.811-1.053-17.833-1.252-5.829-.384-8.561-.93-11.794-2.36-1.099-.486-2.059-.822-2.134-.747s1.965 5.568 4.535 12.206c2.569 6.639 4.672 12.222 4.672 12.407 0 .453.053.462 12.724 2.299 6.111.886 19.498 2.838 29.749 4.338 21.663 3.169 22.565 3.264 25.8 2.7 6.297-1.096 8.631-4.032 8.573-10.78-.048-5.415-.34-6.338-8.384-26.523-3.574-8.97-6.999-17.572-7.609-19.116-5.01-12.662-9.115-14.547-35.161-16.141-15.766-.965-14.763-.642-16.015-5.159-1.527-5.51-2.62-5.15 16.276-5.373 16.435-.195 18.421-.069 23.284 1.475l2.655.843-1.964-4.698c-1.081-2.584-2.393-5.787-2.916-7.118l-.952-2.419-27.6.039c-15.18.022-28.305.178-29.166.347m-187.676 15.474c-.083.246-2.415 13.19-5.181 28.763-5.804 32.673-5.945 33.32-8.186 37.397-.469.855-.785 1.623-.701 1.706.199.2 31.034-1.474 31.256-1.696.094-.094-.012-.807-.236-1.584-.872-3.028 4.591-49.986 7.451-64.048l.201-.986h-12.226c-9.462 0-12.261.101-12.378.448m34.754 0c-.091.246-1.624 13.432-3.406 29.301-3.4 30.276-3.663 31.981-5.404 35.066l-1.082 1.917 7.638-.241c9.611-.304 9.029-.142 8.095-2.253-1.226-2.772-1.143-5.363.945-29.515 1.102-12.739 2.003-23.457 2.003-23.817 0-.409.125-.527.333-.315.249.256 19.548 45.104 23.088 53.656l.557 1.344h34.526l-.23-5.286c-.126-2.908-.544-15.529-.928-28.047s-.799-24.897-.923-27.509l-.224-4.749h-10.423l.226 6.183c.125 3.4.308 15.215.408 26.254l.181 20.072-2.374-4.839c-2.515-5.125-15.754-32.517-20.311-42.025l-2.706-5.645h-14.912c-11.603 0-14.949.099-15.077.448m83.729.12c-5.095 1.373-7.816 4.93-8.615 11.26-.356 2.824.993 30.634 1.789 36.869 1.239 9.711 5.876 15.731 13.248 17.205 1.862.372 62.675 4.159 62.916 3.918.063-.063-.516-1.051-1.286-2.196-2.39-3.556-2.69-4.791-6.983-28.735-1.307-7.294-2.532-13.422-2.721-13.618-.33-.341-16.647-.792-31.339-.866l-6.474-.032.573 4.928c.729 6.281-.022 5.677 7.436 5.982 3.505.143 6.438.326 6.518.406.238.238 2.532 14.21 2.538 15.456.014 3.141-2.519 3.653-13.183 2.664-5.728-.531-5.219.966-7.791-22.914-2.229-20.704-2.233-20.006.106-20.895 1.781-.677 32.123-.213 34.621.53 2.677.795 2.639 1.231.436-4.983l-1.903-5.368-23.972-.067c-20.049-.056-24.29.018-25.914.456m-25.563 73.715c-.099.641-1.773 13.181-3.721 27.868-1.948 14.686-3.587 26.299-3.644 25.806-.056-.493.791-12.891 1.882-27.552s1.984-26.717 1.984-26.792-.403-.136-.896-.136c-.518 0-.896.206-.896.489 0 .269-.805 11.358-1.79 24.641-9.473 127.847-8.514 113.221-7.424 113.221.908 0-.57 9.099 14.065-86.559 1.839-12.025 4.324-28.316 5.521-36.201s2.259-14.7 2.361-15.143c.182-.797.138-.807-3.539-.807h-3.724zm-17.746-.513-.807.115v138.71l.807-.115.806-.114 2.416-30.108c1.33-16.559 3.833-47.769 5.563-69.355l3.147-39.247-3.549-.103c-1.951-.056-3.6-.05-3.664.014s-.89 12.933-1.835 28.597l-1.719 28.481-.179-28.494-.18-28.495zm-28.926 1.051c.098.542 4.445 30.905 9.659 67.473 11.159 78.26 9.682 68.817 10.765 68.817.847 0 .869-.063.686-2.061-.193-2.105-2.858-43.916-6.435-100.985-1.1-17.545-2.081-32.424-2.179-33.065l-.18-1.165h-3.568c-1.962 0-3.567.121-3.567.269.001.148.969 11.797 2.151 25.888 1.182 14.09 2.132 26.106 2.111 26.702-.027.768-5.538-36.35-7.834-52.769-.007-.05-.412-.09-.9-.09-.772 0-.864.128-.709.986m14.499-.45c0 .294 1.776 25.819 3.945 56.72 2.17 30.902 4.265 60.862 4.657 66.579.997 14.56.941 14.158 1.998 14.158h.87v-9.972c0-11.83.597-85.662.894-110.548l.209-17.473h-3.784c-3.735 0-3.782.011-3.618.807.091.443.243 12.903.337 27.688l.171 26.881-1.731-23.655c-.952-13.011-1.846-25.471-1.986-27.689-.249-3.936-.276-4.032-1.109-4.032-.518 0-.853.211-.853.536m75.125 5.2c-8.184 16.248-17.362 29.325-32.353 46.09l-2.594 2.901-1.63 13.352c-.897 7.343-1.625 13.78-1.619 14.303l.012.951.929-1.075c.511-.591 2.409-2.607 4.217-4.48 25.678-26.599 38.508-46.441 45.714-70.705 2.041-6.872 2.543-6.173-4.697-6.535l-5.23-.261zm-140.716-4.713c0 .919 3.205 10.945 4.835 15.128 6.864 17.607 19.061 35.512 37.464 54.996 4.519 4.783 8.117 8.607 9.072 9.641l.959 1.038-.204-1.576c-.113-.867-.897-7.316-1.744-14.332l-1.538-12.755-5.116-5.883c-13.837-15.909-22.364-28.249-29.886-43.248l-1.663-3.315h-6.089c-3.35 0-6.09.138-6.09.306" fill="#050505"/><path d="m263.058 92.115c16.798 30.85 27.505 65.022 31.38 100.152.303 2.745.595 5.036.65 5.091.054.054.834-.902 1.732-2.124.898-1.223 2.552-3.473 3.675-5.001l2.042-2.778h5.362c2.95 0 5.363-.134 5.363-.299 0-1.906-5.727-19.74-9.053-28.195-9.949-25.285-26.233-52.703-39.236-66.063l-3.379-3.471zm21.587 193.817c-.214.542-1.027 2.687-1.808 4.767-11.519 30.707-30.879 58.436-57.481 82.331-2.515 2.259-4.653 4.453-4.752 4.875-.209.897-1.544 7.72-4.116 21.02-1.009 5.224-2.074 10.688-2.365 12.143-.686 3.431-.833 3.41 4.062.59 38.525-22.195 68.016-57.249 84.122-99.993 2.987-7.929 7.729-23.099 7.729-24.728 0-.29-2.22-.558-7.258-.874-3.992-.25-9.032-.602-11.201-.783-6.224-.517-6.481-.493-6.932.652" fill="#fa050e"/><path d="m243.492 31.362c.001 1.577.064 2.178.14 1.335s.075-2.134-.002-2.868-.139-.044-.138 1.533m-33.015 10.932c0 .69.074.972.164.627s.09-.909 0-1.254-.164-.063-.164.627m0 25.806c0 .69.074.973.164.628s.09-.91 0-1.255-.164-.063-.164.627m-40.226 4.772c0 .062.524.586 1.165 1.165l1.165 1.053-1.053-1.165c-.981-1.086-1.277-1.33-1.277-1.053m-1.434.358c0 .062.524.586 1.165 1.165l1.165 1.053-1.053-1.165c-.981-1.086-1.277-1.329-1.277-1.053m19.087 3.652c.004.788.077 1.069.163.623s.083-1.091-.007-1.434-.16.022-.156.811m22.215-.179c0 .689.074.972.164.627s.09-.91 0-1.255-.164-.062-.164.628m-5.68 10.035c0 2.465.057 3.473.127 2.24.07-1.232.07-3.248 0-4.48s-.127-.224-.127 2.24m5.322-1.433c0 .69.073.972.163.627.091-.345.091-.91 0-1.255-.09-.345-.163-.062-.163.628m-21.499 1.971c.004.789.078 1.069.164.623.085-.446.082-1.091-.008-1.434-.089-.342-.16.022-.156.811m-62.229 5.108c-18.884 21.213-36.941 55.306-45.772 86.42-.971 3.424-1.766 6.523-1.766 6.888 0 .627.516.67 9.083.766 11.318.126 10.111.473 10.611-3.054 4.528-31.913 15.639-65.639 30.28-91.917 2.18-3.913 1.683-3.73-2.436.897m135.294-3.226c.02.148.867.988 1.882 1.868l1.845 1.6-1.779-1.868c-1.818-1.91-2.012-2.07-1.948-1.6m-51.925 5.107c0 .69.074.972.164.627s.09-.909 0-1.254-.164-.063-.164.627m-20.781 3.405c.004.789.077 1.069.163.623s.082-1.091-.007-1.433c-.09-.343-.16.022-.156.81m14.385 6.273c0 2.464.057 3.472.127 2.24s.07-3.248 0-4.48c-.07-1.233-.127-.225-.127 2.24m6.038-1.076c0 .69.073.973.164.628.09-.345.09-.91 0-1.255-.091-.345-.164-.063-.164.627m-20.065 4.839c.004.789.078 1.069.163.623.086-.446.083-1.091-.007-1.434-.09-.342-.16.023-.156.811m19.706 3.764c0 .689.074.972.164.627s.09-.91 0-1.255-.164-.062-.164.628m-19.347 6.63c.004.789.077 1.069.163.623.086-.445.082-1.091-.007-1.433-.09-.343-.16.022-.156.81m14.743 3.047c0 2.464.057 3.472.127 2.24s.07-3.248 0-4.48-.127-.224-.127 2.24m-81.91 1.702c-.075.345-.038 1.434.081 2.42.214 1.772.217 1.765.272-.627.055-2.362-.081-3.054-.353-1.793m67.525 5.646c.004.788.078 1.069.163.623.086-.446.083-1.091-.007-1.434s-.16.022-.156.811m18.272.537c0 .69.074.972.164.627.091-.344.091-.909 0-1.254-.09-.345-.164-.063-.164.627m-5.321 9.319c0 2.464.057 3.472.127 2.24s.07-3.248 0-4.48-.127-.224-.127 2.24m66.977-2.688c.004.789.078 1.069.164.623.085-.446.082-1.091-.008-1.434-.089-.342-.16.023-.156.811m-147.677.538c0 .69.074.972.164.627s.09-.91 0-1.255-.164-.062-.164.628m85.663 1.433c0 .69.074.973.164.628s.09-.91 0-1.255-.164-.063-.164.627m-17.555.896c.004.789.077 1.069.163.624.085-.446.082-1.091-.008-1.434-.089-.343-.159.022-.155.81m17.197 8.065c0 .69.073.972.164.627.09-.345.09-.909 0-1.254-.091-.345-.164-.063-.164.627m-16.839 2.33c.004.788.077 1.069.163.623s.083-1.091-.007-1.434-.16.022-.156.811m13.309 6.631c0 2.464.058 3.472.128 2.24s.07-3.249 0-4.481-.128-.224-.128 2.241m3.171-.359c0 .69.074.972.164.627s.09-.909 0-1.254-.164-.063-.164.627m-16.129 3.943c0 .69.074.972.164.627s.09-.909 0-1.254-.164-.063-.164.627m15.771 4.659c0 .69.074.973.164.628s.09-.91 0-1.255-.164-.063-.164.627m-15.405 5.556c.004.788.077 1.069.163.623s.082-1.091-.007-1.434c-.09-.342-.16.022-.156.811m11.135 1.254c0 1.282.065 1.806.145 1.165.079-.64.079-1.689 0-2.33-.08-.64-.145-.116-.145 1.165m4.455 2.045c.444.086 1.17.086 1.613 0 .444-.085.081-.155-.806-.155s-1.25.07-.807.155m65.406 13.368c0 .689.074.972.164.627s.09-.91 0-1.255-.164-.062-.164.628m-152.771-.06c0 .294-1.457.441-4.928.496l-4.929.078 4.81.112c4.456.104 6.004-.148 5.292-.859-.135-.135-.245-.057-.245.173m55.686 6.332c.001 1.971.061 2.732.134 1.69.073-1.041.072-2.654-.002-3.584-.073-.93-.133-.077-.132 1.894m41.612 2.24.014 5.645 4.928.016 4.929.016-4.83-.116-4.83-.115-.226-11.092zm40.628-1.846c-.062 2.089.008 3.873.156 3.963.148.091.269-1.618.269-3.798 0-5.045-.277-5.153-.425-.165m-73.5-1.389c.641.079 1.689.079 2.33 0 .641-.08.117-.145-1.165-.145-1.281 0-1.805.065-1.165.145m7.527 0c.641.079 1.689.079 2.33 0 .641-.08.116-.145-1.165-.145s-1.805.065-1.165.145m30.298.004c.942.074 2.394.074 3.226-.002.831-.075.06-.135-1.714-.134s-2.455.062-1.512.136m-183.539 2.869c1.322.069 3.58.069 5.018.001s.356-.124-2.404-.125c-2.76 0-3.936.055-2.614.124m234.432 1.885c0 .887.07 1.25.155.807.086-.444.086-1.17 0-1.613-.085-.444-.155-.081-.155.806m-36.562-.101c.545.083 1.351.08 1.792-.005s-.005-.152-.991-.15c-.985.003-1.346.073-.801.155m-48.029 4.301c.545.083 1.351.08 1.792-.005s-.005-.152-.99-.149c-.986.002-1.347.072-.802.154m11.828 0c.545.083 1.351.08 1.792-.005s-.005-.152-.99-.149c-.986.002-1.347.072-.802.154m8.961 0c.545.083 1.351.08 1.792-.005s-.005-.152-.991-.149c-.985.002-1.346.072-.801.154m24.014 0c.545.083 1.351.08 1.792-.005s-.005-.152-.99-.149c-.986.002-1.347.072-.802.154m8.244 0c.545.083 1.351.08 1.792-.005s-.005-.152-.991-.149c-.985.002-1.346.072-.801.154m7.701-.004c.443.085 1.169.085 1.613 0 .443-.085.08-.155-.807-.155s-1.25.07-.806.155m8.602.006c.641.08 1.689.08 2.33 0 .64-.079.116-.144-1.165-.144s-1.806.065-1.165.144m17.384 1.44c1.133.071 2.988.071 4.121 0 1.134-.072.207-.13-2.06-.13-2.268 0-3.195.058-2.061.13m67.562 4.302c1.627.067 4.288.067 5.914 0 1.627-.066.296-.12-2.957-.12-3.252 0-4.583.054-2.957.12m-118.809 6.544c0 .887.07 1.25.155.806.086-.443.086-1.169 0-1.613-.085-.443-.155-.08-.155.807m-10.369 6.631c.001 1.577.064 2.177.14 1.334s.075-2.133-.002-2.867-.139-.044-.138 1.533m144.953-2.077c.446.086 1.091.083 1.434-.007.342-.09-.022-.16-.811-.156-.788.004-1.069.078-.623.163m-134.225 6.557c0 .887.069 1.25.155.806.085-.443.085-1.169 0-1.613-.086-.443-.155-.08-.155.807m.358 11.111c0 .887.07 1.25.155.806.086-.443.086-1.169 0-1.612-.085-.444-.155-.081-.155.806m55.906-.814c.739.077 1.949.077 2.688 0s.135-.141-1.344-.141c-1.478 0-2.083.064-1.344.141m18.19.237c0 .077.553.205 1.229.284s1.151.016 1.054-.14c-.173-.281-2.283-.414-2.283-.144m-84.821 7.745c0 1.676.062 2.362.137 1.524.076-.838.076-2.209 0-3.047-.075-.838-.137-.152-.137 1.523m11.083 3.943c0 .887.07 1.25.156.807.085-.444.085-1.17 0-1.613-.086-.444-.156-.081-.156.806m.359 11.111c0 .887.07 1.25.155.807.086-.444.086-1.17 0-1.613-.085-.444-.155-.081-.155.806m.358 11.111c0 .887.07 1.25.156.807.085-.444.085-1.17 0-1.613-.086-.444-.156-.081-.156.806m-85.312 1.613c.004.789.078 1.069.163.623.086-.446.083-1.091-.007-1.433-.089-.343-.16.022-.156.81m59.677 5.466c4.78.056 12.603.056 17.383 0 4.781-.057.87-.103-8.691-.103s-13.472.046-8.692.103m-43.723.702c.445.085 1.091.082 1.433-.007.343-.09-.022-.16-.81-.156-.789.004-1.069.077-.623.163m96.232-.007c.345.09.909.09 1.254 0s.063-.164-.627-.164-.972.074-.627.164m-127.24 7.903c1.133.072 2.988.072 4.122 0 1.133-.071.206-.129-2.061-.129s-3.195.058-2.061.129m64.562 4.037c0 2.267.058 3.194.129 2.061.071-1.134.071-2.989 0-4.122-.071-1.134-.129-.206-.129 2.061m-96.818-2.171c-5.765.534-10.586 1.075-10.712 1.202-.126.126.68 3.391 1.793 7.255 14.274 49.574 44.397 89.418 87.08 115.182 7.509 4.533 7.508 4.533 7.038 2.183-.176-.885-1.382-7.092-2.678-13.795-1.296-6.702-2.768-14.285-3.271-16.85l-.915-4.663-2.72-2.326c-25.932-22.179-48.293-53.837-59.364-84.046-2.081-5.679-1.723-5.203-3.88-5.156-1.039.023-6.606.479-12.371 1.014m212.543.626c.345.09.909.09 1.254 0 .345-.091.063-.164-.627-.164s-.972.073-.627.164m-108.548 15.523c0 3.056.055 4.306.122 2.778s.067-4.028 0-5.556c-.067-1.527-.122-.277-.122 2.778m-6.819 17.204c0 2.267.058 3.195.13 2.061.071-1.133.071-2.988 0-4.122-.072-1.133-.13-.206-.13 2.061m19.245 15.302c-.014.432.136.885.333 1.007.424.262.424-.089 0-1.076-.297-.691-.309-.688-.333.069m-12.784 11.58c0 3.056.055 4.306.122 2.778s.067-4.028 0-5.556c-.067-1.527-.122-.277-.122 2.778m64.528 32.348-1.053 1.165 1.165-1.053c.641-.579 1.165-1.103 1.165-1.165 0-.277-.296-.033-1.277 1.053m-6.093 6.093-1.053 1.165 1.165-1.053c.641-.579 1.165-1.103 1.165-1.165 0-.277-.296-.033-1.277 1.053m-58.794 5.645c0 3.056.055 4.306.122 2.778.068-1.528.068-4.028 0-5.556-.067-1.527-.122-.277-.122 2.778m1.811 17.742c0 7.885.048 11.06.106 7.055.057-4.005.057-10.457-.001-14.337-.057-3.88-.105-.603-.105 7.282" fill="#d38d06"/></g></svg>