<svg clip-rule="evenodd" fill-rule="evenodd" viewBox="0 0 560 400" xmlns="http://www.w3.org/2000/svg"><g fill-rule="nonzero" transform="matrix(1.48774 0 0 -1.48774 -209.547 605.363)"><path d="m386.64 253.78c2.079.004 6.374-.284 11.787-2.209 1.521-.54 4.573-1.458 6.219-1.454.657.001 1.311.064 1.948.186 3.365.65 6.133 2.159 8.225 4.485 1.146 1.269 1.826 2.161 2.425 4.216.72 2.465.191 5.06-.258 6.919-.448 1.86-1.483 4.787-3.387 8.583-.922 1.833-1.886 3.505-2.906 5.489-1.019 1.985-4.63 7.407-6.398 9.447-2.174 2.506-4.401 4.857-7.591 6.131-.96 3.262-3.321 11.223-4.916 16.469-1.644 5.426-3.175 8.462-6.059 12.039-3.381 4.186-8.194 6.171-14.287 8.686l-1.83.757c-3.337 1.391-6.481 3.01-8.439 3.934-1.957.924-5.543 2.483-6.193 1.747-1.535-1.74-2.528-6.892-2.652-10.462-.022-.616-.025-1.223-.01-1.816-4.004.712-7.891 1.536-11.121 2.574-7.446 2.39-15.696 6.015-19.456 7.5s-7.866 3.892-8.465 1.971c-.479-1.542-.313-4.949.953-8.484.72-2.01 2.406-4.642 3.574-6.492 1.531-2.421 3.288-4.804 5.227-7.094l-.634-.929c-1.01.486-2.194.979-3.546 1.409-2.19.694-5.772 1.521-10.406 1.513-4.265-.008-8.548-.72-12.727-2.115-14.146-4.723-24.661-17.873-25.508-31.637-2.996-3.22-8.321-6.648-17.41-6.664-2.182-.004-4.84.236-6.942.579-2.1.342-5.082 1.089-5.264.209-.186-.895-.108-2.796.734-5.15.826-2.31 5.315-9.832 11.663-14.223 1.331-.916 2.819-1.757 3.995-2.331 0 0 4.476-2.098 10.017-2.286 5.342-.183 10.656 1.326 15.177 4.099.514-.361 1.053-.705 1.612-1.034.88-.516 1.829-.996 2.822-1.429l.115-.052c.124-.057.252-.111.373-.162 1.909-.793 3.9-1.349 5.874-1.649.531-.087 1.077-.162 1.649-.224 1.059-.111 2.169-.164 3.297-.163 2.687.005 5.613.335 8.697.98 1.047.219 1.88.326 2.544.327 1.059.002 1.725-.199 2.792-1.379 1.789-2.258 2.609-4.661 3.234-7.069h-27.063c-3.138 0-6.356-1.518-6.356-1.518l-.552 1.363-33.221-.02 5.43-13.408v-6.714c0-1.717-2.186-1.716-5.152-2.341 0 0-1.883-18.136-1.718-18.112 17.331 2.498 19.829 6.089 19.829 6.089 14.56 4.095 31.134 6.228 42.43 7.294-.204-.503-.407-1.03-.608-1.605-1.068-3.063-1.393-5.135-.655-7.383 1.504-4.568 8.941-5.919 11.478-5.914 1.587.002 2.93.277 3.989.82.795.407 4.24 3.032 5.754 4.235 1.514 1.204 7.747 4.584 9.776 6.526 1.459 1.232 2.582 2.818 3.42 4.239 6.096-.303 30.868-1.901 55.41-8.68 0 0 8.431-4.684 13.427-.625 1.748 1.421 6.09 8.587 2.967 18.424v12.646s-3.903 5.621-13.271 4.684h-28.913c3.294 2.244 5.188 3.765 11.328 5.817.391.133 1.537.437 3.723.441" fill="#fff"/><path d="m150.46 11.607-.143.053c-.651.266-.679 1.135-.65 2.004l.006.246.17.177c1.542 1.629 4.768 3.522 8.506 5.717 5.835 3.426 13.095 7.69 16.539 12.547 2.781 3.923 7.215 15.182 9.609 21.545 1.359 3.273 2.766 5.353 3.565 6.143l.164.162.228.021.545.053.348.031c.177-.03.336-.061.471-.091l-.127-.698c-.02-.11-2.05-11.085-6.256-23.143-4.103-11.768-11.173-15.46-21.492-19.75-4.139-1.721-7.144-3.157-8.94-4.015-1.731-.828-2.108-1.002-2.416-1.002zm-45.869 2.656c-.252 0-.488.14-.629.371-.135.22-.146.48-.035.694 2.169 3.883 6.961 11.329 14.816 17.762 1.197.981 2.398 1.932 3.615 2.853 4.114 2.945 8.125 5.428 11.406 7.332 6.353 3.369 13.939 6.305 24.115 8.965 1.933.541 4.098 1.08 6.428 1.598.227.052.374.087.467.142l-.127-.17.125.145.019.027.026.026c.035.032.062.06.085.099l.018.026.059.082c1.327 1.677 7.175 10.033 1.234 20.285.134-.713.214-1.34.26-1.84l.072-.756-.291.019c-.002.012-.006.026-.01.036l-3.414.673c-4.14 1.225-10.85 3.837-15.14 5.555.801-.56 1.676-1.171 2.547-1.779l1.576-1.098-1.918-.07c-1.677-.062-4.197-.415-6.687-1.73l-1.256-.662.34 1.425c-.06.358-1.422 1.387-2.52 2.213-1.855 1.398-4.16 3.137-5.83 5.397-1.761 2.384-3.074 4.884-4.01 7.642-.156.454-.348.453-.441.453-.163 0-.334-.072-.385-.101l-1.387-.762.455 1.508c.063.209.134.414.202.611.135.39.319.927.263 1.096l-.246.736.768.104c1.818.244 3.503.523 4.806.76-1.814.171-4.315.451-6.252.906l-.06.014-.057.025c-1.619.73-2.918 5.546-3.4 7.582-2.782 13.599-7.494 32.417-8.1 34.168-.611 1.927-2.795 5.993-3.588 7.459.035.205.069.419.1.643.095.122.156.201.156.201.254 1.12.178 2.197.178 2.197s-.208.9-.254 1.227c-.074.513.039 2.506-.076 2.966l1.054-.164c2.338-2.393 5.243-5.515 6.688-7.328l.074-.066.065-.059.06-.058.047-.069c1-1.54 1.968-3.304 2.99-5.172l.053-.093c.302-.553.864-1.773 1.644-3.463 1.543-3.348 3.879-8.408 6.27-12.75.886-1.61 1.849-3.306 2.863-5.039.291-.579.574-1.135.889-1.721 3.642-6.786 9.63-15.82 16.07-22.004-2.618 2.907-4.583 6.067-5.852 9.406-.03.079-.058.158-.088.238 1.704.639 7.313 2.484 12.713 1.319 2.97-.64 5.349-1.501 7.196-2.354-1.778-1.013-3.161-2.492-4.217-4.484l-.526-.988-.587.949c-.083.134-.157.264-.227.39-2.349-5.565-1.259-9.199.465-11.617.155-.378.354-.752.619-1.134.794-.753 1.088-1.263 1.535-1.563 0 .001-.002.004-.002.006.014-.01.028-.024.043-.033.023.144.059.308.102.484-.071.486-.127 1.434.867 3.979 1.655 4.237 8.302 9.439 19.014 8.761.38-.022.745-.045 1.1-.064.102-.006.198-.011.296-.018.25-.015.496-.025.735-.039.12-.006.238-.011.355-.017.211-.009.423-.019.629-.028.119-.005.24-.01.358-.015.193-.006.383-.012.572-.018.115-.003.231-.007.344-.01.185-.003.364-.007.544-.009.108-.002.215-.004.323-.004.187-.003.374-.004.556-.004h.26c.261.004.52.008.77.015.06.002.118.004.179.006.188.007.378.014.563.024.101.005.197.011.297.017.141.009.279.02.418.03.108.008.218.017.326.027.125.01.246.021.367.035.115.011.228.025.342.037.111.015.226.027.336.043.117.015.236.03.351.047.104.015.206.034.309.049.124.022.245.04.367.062.085.014.173.032.258.047.342.064.688.136 1.035.217.711.144 1.649.607 1.652.613.083-.191.17-.377.26-.558h.008c.062-.119.114-.248.174-.363 1.098-2.054 2.613-3.275 4.1-2.764.063-.051.927-.409 1.187-.477 1.953-.511 8.666-.857 9.311 9.127.009.009.014.018.023.028.671-.549 1.267-1.172 1.775-1.875l.108-.147.014-.187c.151-2.238-.509-4.293-1.272-5.866 2.328 2.768 2.438 2.768 2.77 2.768.282 0 .718-.184 1.328-.563l.107-.066-.205-.217c.151-.285.256-.598.326-.931-.35-1.735-1.149-4.738-2.959-8.416-.486-.682-1.039-1.302-1.668-1.825l.717.014c-.854-1.514-1.444-2.02-1.723-2.18l-1.09-.632.161-1.248c.035-.275.155-.755-.094-1.266-.439-.897-1.582-2.921-3.17-5.305-1.6-1.96-3.534-4.062-5.355-5.947-3.882-4.025-8.606-6.231-14.035-6.555-.407-.023-.802-.035-1.184-.035-1.354 0-2.527.138-3.436.295.575-.537 1.244-1.111 1.881-1.562l.457-.325-.257-.496-.071-.138-.076-.147c-.332-.659-.749-1.519-1.227-2.519-2.106-4.375-5.286-10.987-8.927-15.994-1.699-2.338-3.583-4.716-5.735-6.823-4.983-3.731-9.721-5.826-11.123-6.406-.402-.087-.806-.169-1.222-.23-9.475-1.383-20.703-3.669-26.457-5.118-3.587-.902-13.169-3.536-24.65-8.466l-.121-.055h-.139zm11.482 11.221c11.782 7.308 26.173 9.159 35.07 10.301 3.009.389 5.395.694 6.787 1.098 9.708 4.185 14.191 14.352 15.455 22.516-1.389-4.814-4.587-10.468-11.83-13.693l-.123-.055-.15-.004c-.039 0-.097.007-.157.016h-1.197l.647 1.002c.398.601.756 1.161 1.039 1.617-4.18-.757-17.714-3.736-31.891-12.488-5.628-3.474-10.759-7.545-13.65-10.309zm-30.959 10.356c-3.412 0-6.859.465-10.246 1.379-1.516.41-2.935.854-4.271 1.334-6.894 3.194-12.901 7.56-17.359 12.709-.889 1.161-1.743 2.378-2.588 3.654-2.175 3.283-3.944 7.352-4.85 11.168-.294 1.239-.524 2.371-.713 3.416-.04.497-.071.995-.084 1.497-.025.253-.046.505-.064.755-.079.082-.167.169-.25.252-.158 1.165-.253 2.159-.305 2.946l-.016-.039-.703.718c-7.547 7.72-16.633 9.34-22.924 9.34-1.835 0-4.649-.143-7.644-.816-.137-.03-.221-.045-.244-.047-.047-.005-.089-.008-.131-.008-.31 0-.576.135-.727.371-.115.179-.135.364-.123.522.161.262.33.501.502.673.803.805 1.559 1.222 3.258 2.383 1.749 1.191 2.446 1.431 4.183 2.164 1.84.717 3.94 1.297 6.229 1.614 3.372.467 10.974.709 16.9-2.024 2.102-.969 3.762-2.136 5.057-3.261l.041.058c-.14-.299-.289-.596-.416-.896.185.101.314.13.314.13s7.883 8.061 20.457 7.02c12.575-1.043 19.93-10.309 19.93-10.309l.541 1.832s1.993-1.671 3.988-5.176c2.895-5.087 3.288-9.747 3.313-11.613.057.313.082.641.082.641l.572 3.072c-.004-.137-.005-.282-.01-.416.088.526.159 1.046.223 1.565l.117.627s0 .168-.008.464c.745 8.138-1.41 15.236-6.248 20.27l-.252.26c2.12 1.444 5.228 4.183 7.504 8.799.287.487.571.989.852 1.512.541.877.957 1.698 1.256 2.48 2.252 4.94 3.978 9.391 5.101 12.371-.428 1.343-.649 2.226-.609 2.961l.012.184.103.15c.126.18.372.366.692.545.018-.033.038-.061.056-.094.033.065.084.124.121.188.529.272 1.202.525 1.846.701.881-.065 1.52.035 2.414-.045.12-.109.195-.231.239-.348 1.802-4.748 4.38-10.221 7.22-15.898.804-1.961 1.829-3.984 2.955-5.916.014.005.026.012.041.016.897-1.743 1.8-3.49 2.702-5.227.486-.938.972-1.876 1.455-2.81-.063-.184-.292-.544-.539-.869-.814-1.071-2.699-3.696-3.889-6.496-.433-1.017-.782-1.998-1.053-2.946.013.075.019.146.031.221-.296-.501-.6-1.035-.886-1.57l-.717-1.344-.461 1.453c-.87 2.754-1.716 5.836-2.611 9.1-1.682 6.13-3.59 13.082-6.198 19.727l-.123.347c-3.326-10.005-.255-34.222 1.895-42.543 1.084-4.191-3.101-10.96-7.69-14.648-5.01-4.031-9.368-5.835-14.576-6.027-.466-.018-.926-.027-1.384-.027-11.148 0-20.155 5.074-24.91 8.447 9.337-9.388 20.307-10.492 24.934-10.492.908 0 1.801.039 2.652.115 5.917.534 10.96 2.57 15.418 6.227 6.069 4.982 9.838 13.087 8.912 16.479-.128.471-.263.959-.408 1.47-1.445 5.169-3.423 12.248-3.776 24.914-.068 2.427.017 4.254.258 5.428l1.246.047c1.086-3.784 2.129-8.436 3.233-13.359 1.643-7.332 3.345-14.915 5.504-21.25.4-1.382.816-2.742 1.246-4.074.248-.774.611-1.532 1.101-2.319l.278-.445-.385-.363c-3.315-3.119-7.756-7.651-13.568-13.861-5.436-5.806-13.828-9.137-23.023-9.137zm101.31 32.971c1.298.313 2.725.971 4.022 2.27.85.851 1.92 2.102 3.048 3.423.019.022.038.044.055.065 1.72 1.467 3.508 3.292 4.377 4.814.845.804 1.63 1.432 2.32 1.77 1.755.857 3.042 1.24 3.897 1.406-.523.319-1.209.651-1.975.801l-.017 1.002c-1.458-.613-3.054-.664-3.549-.664-.403 0-.975.026-1.42.156l-.084.026-.076.046c-1.05.655-2.596 1.02-4.35 1.02-2.767 0-6.746-1.007-8.853-3.842-1.354-1.82-1.88-3.911-1.485-5.889.333-1.678 1.293-3.063 2.699-3.9.332-.2.874-.436 1.59-.436h.073l.843.02-.207-.82c-.141-.549-.473-.96-.908-1.268z" fill="#ffd700" transform="matrix(.8 0 0 -.8 239.18 340.77)"/><path d="m104.46 14.281c-.204.036-.387.161-.506.354-.134.22-.148.479-.035.693 2.167 3.884 6.963 11.329 14.816 17.762 9.874 8.087 19.865 14.113 39.137 19.15 1.932.541 4.096 1.08 6.428 1.598.227.052.374.087.466.142l-.128-.17.125.145.021.025.027.028c.034.032.061.06.084.099l.018.026.059.083c1.327 1.678 7.175 10.031 1.234 20.283.135-.712.214-1.339.262-1.839l.07-.756-.756.055c-2.061.147-8.279 2.401-13.605 4.459l-8.266 3.972.004.44s8.123-2.71 15.855-2.069c-.63 2.349-.863 5.02-.281 7.92.103-.164.27-.169.483-.07.088-.144 1.601-2.537 2.474-3.145.024.144.06.307.104.485-.071.486-.127 1.433.867 3.978 1.655 4.238 8.301 9.439 19.014 8.762 6.125-.389 9.203-.35 12.957.678.037-.072.063-.139.103-.209l.442-.782.224-.269.227-.297c.358-.47.756-.944 1.191-1.402l.715-.756.133-.276.262.059.014.006 1.916.605c.065-.051.928-.409 1.189-.476 1.951-.511 8.665-.856 9.309 9.127.01.009.012.016.021.025.673-.547 1.269-1.17 1.777-1.873l.108-.148.013-.186c.152-2.238-.508-4.294-1.269-5.865-.153-.42-.828-1.396-1.555-2.033-1.02-1.266-2.598-3.284-3.301-4.293-.983-1.408-4.761-3.965-4.761-3.965-1.458-.612-3.056-.664-3.551-.664-.403 0-.972.026-1.416.156l-.086.026-.074.047c-1.05.655-2.596 1.017-4.35 1.017-2.769 0-6.748-1.004-8.855-3.838-1.353-1.82-1.88-3.911-1.485-5.888.333-1.68 1.293-3.066 2.698-3.905.331-.199.876-.433 1.591-.433h.073l.844.019-.209-.82c-.14-.549-.351-.964-.635-1.192s-2.693-.708-4.692-.691c-1.637.805-3.975 2.558-4.619 6.475-.635 3.872.35 7.054 4.531 9.66 5.639 3.514 12.839 2.862 15.271 1.324-.171 1.143-.589 3.021-2.814 4.621-4.793 3.451-11.874 2.708-16.918 1.299-3.14-.878-5.943-2.387-8.102-4.32-1.116-1.112-2.457-2.949-3.009-5.577-.672-3.191 1.029-5.928 2.826-7.554 1.119-1.015 2.58-1.592 2.58-1.592-.014-.066-.016-.141-.033-.189-.888-.168-1.914-.145-2.957.095 1.253-1.907 2.407-4.284 2.67-6.961.548-5.572-3.529-15.067-11.268-19.814h-.19c.535.539 1.497 1.627 1.697 2.67 0 0-.945-.169-2.593-.564-5.789-1.286-17.342-4.556-29.357-11.975-5.627-3.474-10.755-7.546-13.646-10.309.228.141.465.27.695.406-7.928-6.679-11.098-9.982-12.303-11.609zm-50.144 49.457c-2.26 2.02-6.978 8.765-8.088 15.758-.154.969-.202 1.779-.187 2.477-11.205 10.38-28.079 6.229-34.123 2.791.121.526.511.945.511.945 2.458 1.977 6.595 5.276 13.611 6.115 3.38.406 10.974.71 16.9-2.023 2.295-1.059 4.08-2.357 5.416-3.574 1.772 1.597 9.136 7.526 20.037 6.623 12.575-1.042 19.93-10.307 19.93-10.307l.541 1.832s1.994-1.671 3.989-5.176c3.755-6.595 3.297-12.486 3.297-12.486s-.351-.67-.475-1.203c-.024-.107-.056-.325-.094-.606-5.884 17.399-19.625 20.545-19.625 20.545l.93-4.562c-3.725 2.488-8.948 4.217-13.045 3.683-9.724-1.268-12.035-7.221-11.865-12.973.101-3.401 2.533-7.57 2.533-7.57zm42.299 3.188-.238.882c.29 1.265.471 2.633.572 4.036.026.203.059.406.084.609l.115.619s.002.168-.006.463c.745 8.139-1.408 15.24-6.248 20.273l-.56.584.697.412c2.706 1.609 5.461 4.921 7.965 9.574.542.878.958 1.699 1.258 2.483 1.915 4.201 3.446 8.039 4.554 10.93l.83 1.922.149.291c.232-.778.56-1.746.98-3.008-.116-.275-.234-.549-.373-.856-2.755-6.035-5.477-15.682-5.939-20.574-.139-1.469-.194-2.777-.199-3.978l-3.424 1.715-.162-.112c2.161-2.491 3.679-9.086 2.97-14.699-.71-5.611-3.025-11.566-3.025-11.566zm16.068 4.47c-1.404 5.071-3.132 12.011-3.461 23.777-.067 2.426.017 4.253.258 5.428l1.246.047c1.086-3.785 2.13-8.436 3.232-13.359.735-3.27 1.481-6.588 2.274-9.826-.795-1.358-2.32-3.966-3.549-6.067zm8.377 16.715c-3.52 10.804-8.47 21.627-12.527 32.225-.32.835-3.037 2.237-3.428 2.436.04.032.085.064.131.095l2.787 1.106c.387.085.743.135 1.026.135.773 0 1.069-.346 1.179-.637 2.967-7.813 8.026-17.58 12.918-27.023.514-.993 1.025-1.981 1.534-2.965-.155-.25-2.093-2.507-3.62-5.371zm32.746.551c-.091.056-.175.102-.268.164-6.827 4.601-11.162 7.945-14.166 10.883-3.815 3.736-5.431 6.698-6.746 9.453-5.14 10.77-9.408 21.31-13.436 29.924-1.643 3.515-4.208 5.754-6.388 8.219-.013.014-.018.022-.032.039-.01.343-.037.683-.084 1.008-.075.521-.173 1.014-.291 1.48.001-.002.003-.007.006-.01-.009.333-.025.689-.048 1.057l-.114 1.728 1.215-1.236c2.37-2.419 5.41-5.677 6.899-7.545l.074-.066.064-.059.061-.058.047-.069c1-1.539 1.967-3.304 2.99-5.172l.051-.093c.303-.553.866-1.774 1.646-3.463 1.543-3.349 3.878-8.408 6.27-12.75.886-1.61 1.849-3.307 2.863-5.039.29-.579.574-1.135.889-1.721 3.368-6.281 8.75-14.485 14.637-20.576.473-.491 2.377-1.977 2.377-1.977s.48-1.662.796-2.502c.214-.558.445-1.094.688-1.619zm-26.09.453.455 1.508c.063.209.132.414.201.611.135.39.32.926.264 1.094l-.246.74.769.102c1.819.244 4.805.758 4.805.758l2.783-.106s-2.931-1.769-6.767-4.441c-.017.049-.035.096-.051.144-.156.454-.348.455-.442.455-.162 0-.333-.073-.384-.103zm88.641 11.482-1.285.334c-.908.233-1.682.368-1.897.393l-.279.031-.189.228c-.265.365-.722.907-1.42 1.483.022.129.036.236.119.242 1.307.099 2.404-.008 3.439-.369.391-.421.779-.905 1.164-1.617.142-.262.254-.501.348-.725z" fill="#c99700" transform="matrix(.8 0 0 -.8 239.18 340.77)"/><g fill="#fcfaa8"><path d="m275.12 278.96.21.127s.68 10.092 6.603 17.721c4.352 5.605 8.317 8.267 14.691 10.757 8.403 3.282 20.389 2.746 26.92-3.698 5.535-5.462 9.519-9.383 12.394-12.168.181.448.411.895.697 1.353l.222.356-.308.29c-2.653 2.495-6.204 6.122-10.854 11.09-4.349 4.645-11.062 7.308-18.418 7.308-2.73 0-5.488-.371-8.198-1.102-9.774-2.64-14.578-7.111-18.891-13.439-2.24-3.757-3.668-7.536-4.412-10.117-1.385-4.804-.656-8.478-.656-8.478"/><path d="m285.79 292.88.337-.059s11.538 8.015 22.651 7.237c10.191-.713 17.11-10.044 16.126-14.812-2.572-12.469-3.761-31.203.79-34.825-.024.72-.04 1.272-.048 1.557-1.852 5.902-1.081 17.573.134 26.058.219 2.057.519 3.921.922 5.44.179.88.356 1.663.525 2.319.867 3.353-2.481 8.768-6.152 11.719-4.008 3.226-7.495 4.668-11.661 4.822-.373.014-.742.021-1.108.021-8.919 0-16.123-4.059-19.928-6.757.103.103.207.201.31.301-1.118-.927-2.106-1.933-2.898-3.021"/><path d="m333.2 276.2-.347-1.099c-.697-2.203-1.375-4.669-2.091-7.28-1.103-4.022-2.332-8.485-3.888-12.892-.695-2.794-1.148-4.665-1.148-4.665l.663.829s4.029 8.136 8.224 22.373c-.529 1.077-.945 1.792-1.413 2.734"/><path d="m408.35 272.44.594-.011c-.172.391-.651 1.397-1.4 1.745l-.872.504.13.999c.028.22.039.574-.075 1.014-.011.035-.028.079-.04.117-.457.956-1.455 2.54-2.622 4.278-1.254 1.525-2.746 3.147-4.158 4.607-3.106 3.219-6.885 4.984-11.229 5.242-.325.019-.641.029-.947.029-1.083 0-2.021-.11-2.749-.237.461.431.995.889 1.505 1.251l.366.259-.206.398-.057.109-.06.117c-.267.527-.599 1.216-.981 2.017-1.685 3.499-4.229 8.79-7.142 12.796-3.481 4.786-7.921 9.808-14.465 10.767-7.58 1.105-16.563 2.934-21.167 4.094-2.868.722-10.533 2.829-19.718 6.773l-.097.043h-.112c-.165 0-.319-.077-.432-.207 5.419-4.367 13.809-7.885 20.554-9.556 4.157-1.033 8.789-1.989 12.453-2.557 5.7-.883 10.151-1.192 12.332-2.374 9.311-5.049 16.214-21.692 16.832-23.899-.436-.258-.831-.546-1.125-.838-.449-.448-.677-.842-.677-.842l.044-.059s.881.288 2.562.335c4.392.119 8.064-1.338 10.86-3.538s7.682-7.893 8.2-8.558c.512-.665.576-.827.511-.912-.2-.054-.85-.509-1.144-1.03.04-.028.049-.05.063-.078 1.598-.275 2.563-1.45 2.836-2.002-.398-.023-1.008-.28-1.276-.402-.052-.02-.063-.071 0-.085.925-.165 2.456-1.284 3.756-3.601 1.595-2.845 1.407-5.544 1.459-6.03-.295.183-.051.019.365-.257.214.06.492.195.848.415l.265.164-.025.311c-.009.131-.023.271-.037.413-.057.28-.13.608-.218.968-.237.801-.61 2.579-1.275 4.061-.212.494-.489 1.056-.79 1.63-.413.606-.888 1.16-1.439 1.617"/></g><path d="m133.66 61.789c-3.893.05-5.771 1.31-7.129 2.861-.047.055-.157.187-.305.373 1.908-.706 3.982-1.097 6.059-1.097 2.513 0 4.856.565 6.783 1.632l.373.207.336-.263c1.209-.955 1.438-1.324 1.449-1.709.005-.105.009-.259-.156-.82-1.135-.345-4.326-1.223-7.41-1.184zm-37.506 5.049c.006.134.014.381.008.736.057.318.084.654.084.654l.099 4.639s-1.048 9.712-9.58 15.885c-6.042 4.373-12.841 6.317-18.139 6.317-8.342 0-14.945-2.819-18.789-6.801-.735-.763-1.34-1.556-1.845-2.381-.025-.023-.057-.055-.057-.055s-.109-.024-.272-.107c.12.386.294.786.561 1.211.49.781 1.026 1.526 1.594 2.248 2.516 2.996 5.556 5.389 8.951 6.974 3.425 1.598 7.354 2.442 11.361 2.442 2.491 0 4.98-.323 7.397-.955 4.383-1.145 8.051-2.985 10.979-5.457 3.298-3.083 5.809-6.996 7.183-11.416.444-1.585.774-3.254.955-5.028.166-1.646.205-3.149.174-4.486-.097-1.511-.323-2.987-.664-4.42zm38.727 4.887c-2.054-.003-4.251.165-5.918.724-3.826 1.284-6.748 8.822-7.918 15.695 1.325 2.563 2.756 4.56 3.519 5.559.769-1.485 1.532-2.964 2.278-4.424l.162-.32-.188-.309c-.701-1.145-1.16-1.986-1.459-2.6 1.002.302 1.73.358 2.137.358.25 0 .383-.022.383-.022l.4-.064.123-.391c.012-.04 1.147-3.867 3.973-7.144 1.82-2.113 4.415-3.973 5.965-5.084 1.405-1.008 1.659-1.193 1.613-1.67 0-.003-.002-.007-.002-.01-1.101-.123-3.014-.296-5.068-.299zm53.787.138-.254.086c-.305.105-.604.277-.92.526-1.47 1.158-2.375 2.862-2.484 4.677-.11 1.839.586 3.605 1.957 4.979.506.508 1.107.941 1.765 1.299 1.277.602 2.719.981 4.041.978 1.054-.002 1.845-.056 2.487-.18.74-.21 1.413-.524 1.984-.943.198-.175.393-.371.594-.598.011-.01.025-.026.035-.037l-.008-.201-.006-.129c-.004-.027-.021-.154-.059-.349-.048.057-.104.12-.185.21-2.06 2.287-6.686 1.936-9.047-.433-2.36-2.364-1.985-5.874.418-7.764.947-.746 1.813-.755 2.473-.5.018.008.046.023.066.031-.809-.552-1.68-1.068-2.617-1.533zm-138.92 17.822c-7.271 7.281-16.373 6.826-16.373 6.826l-1.523 2.965.718.135c.482.087 1.077.133 1.772.133 2.472 0 6.391-.597 9.978-2.276 3.679-1.722 5.766-3.989 6.682-5.189l.295-.387-.293-.391c-.445-.588-.861-1.194-1.256-1.816zm150.02 3.408s-5.73 4.885-2.525 9.832c.996 1.543 2.837 2.327 4.769 2.6.002 0 .005.002.008.002.106 0 .209-.003.307-.008l.074-.002c3.736-.125 6.681-1.091 8.812-2.867-.072-.127-.132-.211-.177-.207-1.36.197-5.204.626-8.614-.219-3.567-.881-4.033-5.031-.722-7.537-.675-.205-1.51-1.01-1.51-1.01s-.352-.432-.422-.584zm-35.969.492c-.732.84-1.243 1.618-1.418 2.313.333.526.781 1.11 1.393 1.74 1.955 2.025 5.518 3.01 10.887 3.01 3.09 0 6.234-.322 8.759-.578 1.49-.152 2.777-.283 3.661-.307.183-.004.363-.006.537-.006 2.922 0 4.91.64 6.058 1.178l.682.318c.061-.006.098-.01.098-.01s.066-.073.168-.189l-.034-.733c-.021-.43.039-.885.16-1.355-3.023-1.769-8.18-1.175-12.352-.729-3.382.36-7.687.346-12.369-.619-4.416-.912-6.23-4.033-6.23-4.033zm47.588 9.395c-1.071.907-2.749 1.916-5.254 2.461-1.106.362-2.221.545-3.291.549.264.39 2.77.789 2.77.789.856.151 1.817.125 2.595-.024 1.848-.351 3.489-1.108 4.823-2.015-.715-.255-1.159-1.086-1.246-1.369-.023-.063-.088-.08-.2-.034-.07-.117-.136-.24-.197-.357zm-42.775.213c-.014.009-.029.016-.045.025-4.954 2.861-16.766 7.652-24.256 3.369-.239.898-.439 1.75-.607 2.498l-.135.582.572.172c2.051.624 4.258.942 6.551.942 5.422 0 11.332-1.684 18.061-5.147.435-.234.896-.478 1.377-.727l.219-.119.17-.089 1.74-.952-1.965-.252c-.585-.076-1.147-.179-1.682-.302zm-55.844 44.152c-.341.42-1.163 1.369-2.207 2.082-2.349 1.6-5.82 3.191-7.478 2.82-2.269-.505-5.634-2.396-7.041-3.221-1.189 1.449-1.518 3.17-1.348 4.078.206 1.108 5.209 5.17 8.771 4.454 4.177-.838 8.317-2.882 9.219-9.207.048-.325.073-.664.084-1.006zm-20.4 6.304c.029-.153-.8 1.739-.76 2.438.015.246.294.62.742 1.045-.382 1.271-.527 2.578-.486 3.064.088 1.038 4.572 3.036 7.846 2.725 3.611-.346 2.647-1.602 1.082-2.082.029-.001.061.002.09-.002 1.577-.124 3.502-1.405 4.945-2.492-.214-.106-.402-.234-.553-.383-1.065.632-3.34 1.272-4.791 1.045-5.842-.913-8.115-5.358-8.115-5.358z" fill="#cbd3ec" transform="matrix(.8 0 0 -.8 239.18 340.77)"/><path d="m148.55 7.65c-.111.008-.219.027-.324.057-1.476.42-1.733 3.85-1.869 7.576-.122 3.261.253 5.671.697 7.364-.007.152-.006.294-.006.435-7.005-1.126-14.687-2.476-20.793-4.443-9.845-3.169-15.783-5.734-25.705-9.957-.735-.314-1.454-.782-2.008-.203-.559.575-.517 1.827.156 3.212s5.652 12.671 18.525 23.854c9.592 8.33 21.802 15.252 40.559 19.881 1.17.289 2.69.634 4.137.961 2.394 2.269 3.42 5.024 3.869 7.229l-.939 3.82s-7.453 3.354-9.655 4.789c-.017.013-.035.026-.056.037-2.363.23-5.146-.02-8.076-1.343-.254-1.585-.587-3.002-.901-3.205-.311-.198-.664-.392-1.054-.577-.145-1.45-.337-3.029-.612-3.191-.809-.483-1.289-.776-1.676-.984-.525-2.053-1.197-4.103-1.642-4.295-.338-.144-.676-.277-1.016-.405-.364-1.615-.867-3.401-1.17-3.617-3.276-2.332-10.32-2.006-14.98 1.631-2.377-2.187-4.757-4.535-6.828-6.84-5.159-5.737-7.865-9.963-9.982-14.57-.104.154-.521.902-.744 1.649-.224.747-.305 1.218-.305 1.218s-2.818-2.407-7.883-4.019c-5.694-1.811-15.183-2.908-26.039.684-17.501 5.79-28.617 22.163-28.82 36.779-6.078 7.405-17.268 13.361-35.91 10.348 0 0-.391.03-.275.656.22 1.224 5.179 9.571 12.605 14.705 2.162 1.495 4.679 2.767 5.654 3.127 1.133-.255 4.481-1.1 4.481-1.1s-1.358 2.351-1.495 2.623c9.938 2 19.37-1.244 25.426-5.924.908.848 2.29 1.974 4.188 3.09.891.524 1.906 1.045 3.027 1.535.175.075.347.156.524.229.002.002.008.003.011.004 2.02.842 4.142 1.443 6.309 1.773.579.097 1.171.178 1.787.244 3.806.404 8.286.172 13.557-.919 5.291-1.095 8.224-.519 11.277 2.933 4.321 5.53 5.368 13.887 5.442 14.514-.005.064-.008.102-.008.102l2.138-1.438c.019 2.895.109 6.237.192 7.098.14 1.464 5.641 3.086 6.935 3.187.062.024.116.037.162.039 1.308.05 6.073-2.039 7.219-2.533-1.326 5.878-2.366 10.47-2.5 11.117-.374 1.804-2.488 5.168-2.488 5.168s-2.114-.49-3.199.487c-.02.017-.034.035-.053.054l-.023-.025s-2.049 1.972-5.645 3.015c-3.379.982-7.046.631-7.519 1.461-.298.527-1.062 1.911-1.623 3.244-.858-.021-1.502.023-1.721.307-.413.536-2.32 5.329-1.973 5.84.256.379.634.787 1.094 1.207-.404 1.339-.776 3.12-.725 3.262 1.052 2.962 9.493 4.647 12.258 3.246 1.283-.652 3.667-2.658 6.225-4.99.419-.104.835-.248 1.256-.446 3.104-1.449 9.089-5.412 10.967-7.26 2.88-2.337 4.64-6.641 5.387-7.927 4.357-6.643 19.94-23.912 24.803-29.252 3.481-.583 7.554-1.61 12.26-3.313-.319 1.303-.372 2.623.421 3.27 1.039-2.108 5.484-6.231 14.416-9.19 4.118-1.364 12.936-1.135 22.484 2.278.617.22 1.113.304 1.53.3 1.646.952 3.943 1.536 6.215 1.104 3.752-.713 6.118-2.373 7.691-4.108 1.41-1.552 2.028-3.108 2.293-4.06.169-.111.325-.226.455-.35.594-.558-.195-3.185-.594-3.908-.075-.139-.189-.234-.316-.306-.451-2.438-1.578-6.416-4.084-10.992-1.045-1.907-1.874-2.716-2.543-3.104.059-.47.074-1.156-.141-1.986-.587-2.258-4.604-8.073-8.242-12.271-2.729-3.148-5.244-5.845-9.016-6.842-.306-.133-.799-.407-.925-.846-.313-1.079-4.16-14.158-6.612-22.258-1.975-6.511-3.657-9.636-6.718-13.43-3.823-4.737-9.91-6.923-18.295-10.422-8.73-3.644-11.25-6.014-12.92-5.899zm2.006 4.606c.267-.109 3.962 1.979 11.137 4.963 10.066 4.186 17.111 7.836 21.131 19.367 4.24 12.15 6.232 23.047 6.232 23.047l-.549-.051c-.501-.497-1.904-2.275-3.412-5.912-2.59-6.879-6.908-17.769-9.687-21.689-5.71-8.054-21.25-14.256-25.11-18.336-.026-.768.029-1.3.25-1.389zm-45.961 2.652c9.826 4.219 18.862 7.019 24.744 8.5 5.93 1.494 17.178 3.767 26.523 5.129 7.607 1.113 13.023 6.831 17.654 13.199 4.464 6.14 8.341 14.947 10.104 18.436.049.099.095.19.142.285-1.416 1.003-2.927 2.547-3.408 3.096-.006.092.055.098.055.098s2.671-.947 6.428-.725c4.078.241 9.037 1.616 13.613 6.357 4.06 4.208 9.21 10.183 8.66 11.705-.014.039-.013.069-.02.104-.002 0-.007-.001-.01-.002 0 0-1.254-.229-2.316.547.05.044.06.068.107.105 0 0 3.059.006 4.497 3.016-.493-.01-1.288.066-1.592.195-.056.009-.009.076.045.117l-.002.002c.004.002.008.004.011.008.005.004.011.005.016.008 3.877 2.032 5.418 7.807 5.676 11.225-.765.476-.987.465-.987.465s-.04.133-2.593-2.912c-1.414-1.69-2.536-2.235-2.536-2.235l-.101.364s3.4 3.87 3.088 8.482c-3.061 4.234-8.574 4.351-10.086 4.402-1.506.053-4.405-.254-5.686-3.609-.545-1.422-.27-2.776.336-4.045 1.704.324 2.818.533 2.818.533s.7-.385 1.127-1.095c.432-.714-1.281-.762-1.281-.762l-1.763-.225c.117-.175.236-.349.357-.521.177-.248.358-.475.539-.694 1.569.469 2.602.78 2.602.78s.436-.297.943-.957c.503-.664-.967-.899-.967-.899l-1.226-.279c1.506-1.263 2.838-1.672 2.838-1.672l-.112-.133s-2.281.203-4.264 1.453l-15.188-3.474s-.705.376-.455.445c.173.048 8.798 2.631 14.186 4.246-.433.461-.853.948-1.238 1.455l-16.602-2.105s-.764.435-.508.476c.179.028 10.022 1.888 16.172 3.049-.648 1.146-1.039 2.341-.984 3.506-1.41-.659-3.642-1.314-6.883-1.23-4.48.117-18.211 2.851-22.832-1.928-2.441-2.528-2.111-4.174-2.111-4.174s-.607.568-.979 1.012c-1.044-3.116-.92-7.358 1.42-10.107l.381-1.356c-3.234 2.64-7.871 7.199-3.141 16.818 0 0 .24-.797.756-1.629 2.269 4.274 5.821 5.88 9.651 6.375-.122.068-.249.135-.375.205-.485.252-.95.495-1.377.725-6.121 3.151-15.401 6.814-24.127 4.164.435-1.934.996-4.165 1.793-6.26 1.502-3.953 3.815-7.138 6.047-9.548.172-.747.385-1.5.642-2.26-7.206 6.192-14.028 16.341-18.074 23.875-.319.591-.603 1.15-.877 1.695-.947 1.625-1.919 3.325-2.873 5.059-3.585 6.515-7.033 14.607-7.914 16.213-1.05 1.916-2.014 3.681-3.017 5.224-.059.053-.114.106-.172.158-1.424 1.797-4.452 5.051-6.893 7.538.141-2.139-.031-3.799-.031-3.799s-.178.227-.178.193c-1.211 3.409-4.532 9.049-8.877 9.348-4.767.334-8.48-3.437-8.592-4.614-.065-.715 1.178-2.733 1.293-2.98.018-.038.188-.084.473-.141 1.306-.118 4.784-.304 7.67-1.433 3.35-1.078 4.908-2.647 5.18-2.811.271-.164 1.971-.193 2.826.289.255-.497 3.2-5.79 3.945-8.136.665-1.923 5.378-20.857 8.113-34.23.757-3.183 1.981-6.666 3.043-7.145 3.222-.755 8.206-1.038 8.403-1.1.286-.078.511-.539.511-.539s-3.39-.735-7.531-1.289c.165-.492-.203-1.257-.459-2.097 0 0 1.263.731 1.75-.704.545-1.603 1.634-4.371 3.924-7.466 3.128-4.229 8.788-6.752 8.457-8.141-.002-.012-.009-.031-.014-.047 2.544 1.344 5.13 1.734 6.967 1.803-2.966 2.065-5.957 4.17-5.957 4.17v.363s18.218-7.548 21.918-7.814c-.236 2.515-.941 4.46-1.027 4.722-.135.41.242.084.242.084 8.816-11.674 2.11-21.472.434-23.588-.014-.022-.036-.056-.041-.062-.062-.093-.123-.16-.184-.219-.084-.095-.129-.148-.129-.148-.015.003-.017.025-.027.039-.179-.108-.383-.156-.657-.217-2.16-.48-4.366-1.021-6.404-1.592-20.158-5.269-29.783-11.569-38.891-19.027-7.844-6.424-12.543-13.779-14.654-17.559-.019-.035.053-.138.102-.125zm8.736 7.944c-.091-.025-.094-.02-.211.168.938 2.042 8.374 8.453 16.26 13.322 17.314 10.688 33.465 12.795 33.465 12.795-.062-.194-.876-1.531-1.738-2.831.041.008.158-.019.186-.013 10.984 4.89 12.376 15.718 12.475 19.83l.609-.588c.417-7.606-2.904-23.538-16.225-29.256-5.958-1.755-28.84-1.587-44.82-13.428zm-28.711 13.635c9.36-.123 17.766 3.297 23.037 8.927 6.304 6.732 10.534 11.013 13.598 13.893-.47.753-.876 1.561-1.166 2.463-.494 1.523-.905 2.89-1.244 4.063-3.65 10.715-6.078 25.352-8.742 34.641-.203-.985-.323-2.618-.248-5.282.387-13.878 2.78-21.162 4.164-26.234 1.036-3.802-3.053-12.155-9.129-17.143-5.566-4.567-11.269-5.962-15.766-6.369-7.557-.682-21.307 1.267-31.385 14.314l.508.102s12.235-11.822 29.506-11.18c4.606.171 8.813 1.555 14.197 5.887 4.624 3.721 8.424 10.302 7.471 13.988-2.169 8.396-5.674 34.909-1.327 44.324v.01c.001-.001.002-.004.002-.004.01.022.078.209.078.209l.696-1.95c3.996-10.186 6.307-20.911 8.822-28.867 1.135 2.124 2.553 4.248 2.553 4.248.026-.097.082-.173.097-.23-1.203-5.123-2.475-14.136 4.346-18.896 4.929-3.438 13.345-1.545 13.855-.602.509.945.715 4.894.76 5.301.031.321-4.575 2.963-7.424 6.27-2.959 3.43-4.103 7.382-4.103 7.382s-1.296.19-3.543-.8c.216.911 1.093 2.508 2.027 4.037-5.971 11.694-12.909 24.426-16.641 34.256-.274.718-3.821-.489-4.242-1.088-.038-.648.188-1.517.648-2.944-1.114-2.965-2.869-7.512-5.181-12.582-.327-.86-.769-1.715-1.29-2.556-1.84-3.418-4.664-7.717-8.207-9.82 6.418-6.678 7.597-15.948 5.862-24.742-.611-3.095-1.531-5.288-1.531-5.288l-.26.981s1.211 4.293.58 10.473c-1.034 10.136-6.737 18.234-18.641 21.346-6.25 1.634-12.86 1.098-18.322-1.449-5.75-2.683-10.26-7.574-12.996-13.582-.076.036-.246.183-.246.183s.173.828.297 1.209c.982 3.06 2.474 5.962 4.39 8.506-1.027 1.345-3.069 3.417-6.441 4.996-4.4 2.059-9.355 2.465-11.359 2.092 1.131-1.985 2.441-4.277 2.441-4.277l-.308-.022s-6.661 1.471-9.686 1.534c-3.286-1.634-7.739-4.612-12.596-11.141 0 0-.169-.374.244-.329.349.037 18.102 4.869 31.336-8.666.329.864.643 1.293.643 1.293l.203-.154s-.207-3.976 1.455-10.982c.779-3.279 2.353-7.332 4.758-10.963 5.299-8.001 11.092-13.987 23.852-17.434 3.251-.878 6.478-1.311 9.598-1.352zm49.104 18.664c1.879.039 3.235.498 3.387.888.099.257.212.793.318 1.406-3.071-.68-6.343-.584-10.027.686-1.169.403-2.272 1.001-3.297 1.738.243-.498.525-.912.75-1.201.67-.721 1.44-1.371 2.35-1.892 2.24-1.286 4.641-1.665 6.519-1.625zm.276 3.681c3.046.034 5.208.896 5.451 1.524.382 1 1.142 3.003 1.129 3.416-.007.212-.504.673-1.207 1.224-5.193-2.879-12.606-1.973-17.367 1.543.788-2.812 2.462-5.452 5.781-6.644 2.24-.805 4.385-1.083 6.213-1.063zm49.805 9.096c-1.081.048-1.78.252-1.78.252l.379.381s3.827-.161 4.293 1.677c-.781-.018-1.468.204-2.006.524-3.319 1.981-4.346 6.759-1.398 10.727 3.185 4.285 10.694 5.085 14.061 2.982.886-.259 3.331-.185 4.99.698 1.714.906 4.248 3.392 4.648 3.816.088.091.407.012.407.012s-3.114-4.472-3.897-4.692c-.186-.052-.635-.178-1.219-.314 1.897-.375 3.315-1.717 3.315-1.717s-.016-.142-.188-.244c0 0-1.488.206-4.89-1.455-2.565-1.256-7.025-7.338-9.629-9.948-2.43-2.432-5.286-2.78-7.086-2.699zm4.812 4.631c1.606.799 2.918 1.675 3.984 2.566-.82-.031-1.617.181-2.263.627.126.019.248.044.363.111.556.313.727 1.07.377 1.694-.351.621-1.086.872-1.643.558-.19-.107-.313-.271-.41-.455-.393 1.547.342 3.292 1.908 4.207 1.867 1.093 4.189.593 5.184-1.115.145-.249.249-.507.324-.773.659 1.406.77 2.369.77 2.369l.006.127c-2.444 2.201-7.274 1.74-9.803-.797-2.642-2.649-2.221-6.581.473-8.699.276-.218.509-.344.73-.42zm26.607 28.994c-1.79 3.946-5.808 4.821-7.766 5.049-.731.083-1.972.131-2.832-.256 5.347-.637 7.787-3.271 8.592-4.385.009-.001.017.001.026 0 .238-.029 1.035-.165 1.98-.408zm-121.62 51.52c2.17 3.619 7.229 5.797 11.348 5.158-1.079.982-2.102 1.696-2.477 1.814-.907.285-2.644.005-3.558-.179-4.161-.838-7.005-3.678-6.879-4.387.127-.705.593-1.977.742-2.207.065-.1.384-.162.824-.199zm-.43 5.902c1.704 1.078 3.77 2.029 5.7 2.444.81.175 1.58.201 2.33.121-.615.618-1.547 1.037-2.549.933-.028-.004-.026.004-.014.016-3.162-.294-5.922-1.932-5.832-2.444.029-.168.175-.577.365-1.07z" fill="#0033a0" transform="matrix(.8 0 0 -.8 239.18 340.77)"/><path d="m410.23 229.76v11.717s-.463.621-1.435 1.248c-.975.628-2.315 1.486-5.726 1.486-1.356 0-4.098-.149-4.098-.149l-69.999-.012 1.635-3.254-.942-2.213c-.334 3.636-3.945 5.483-7.177 5.609-.361.013-.704.031-1.015.031-.084 0-.168-.001-.252-.001h-25.533c-.169.038-.823.161-1.358.246-4.773.765-7.722-.01-9.962-1.417-2.339-1.471-3.637-3.856-3.637-3.856s-1.219 3.467-1.375 4.012c-.082.285-.123.429-.205.715h-.029v.023h-25.551s3.835-8.065 3.835-9.141c0-3.506-.028-7.175-.028-9.436s-5.184-3.09-5.184-3.09l-1.584-10.987s7.722 1.919 8.789 2.203c1.067.281 1.925.674 2.95 1.287.664.397 1.283.831 1.844 1.291 1.059.287 1.589.427 2.649.702 1.741.451 3.762.898 5.513 1.315 1.682.391 3.365.773 5.053 1.144 1.709.371 3.421.72 5.137 1.055 1.251.24 2.505.469 3.759.69.136.024 2.369.456 4.763.839 2.654.423 5.51.804 6.039.877 2.157.284 4.315.548 6.478.791 1.4.154 2.801.295 4.204.425.693.065 1.041.095 1.733.154 1.05.09 1.574.131 2.624.21.606.045.908.067 1.514.108 1.198.083 1.798.121 2.997.187 1.5.087 2.252.123 3.753.187 1.249.051 1.872.074 3.119.109.794.024 1.191.033 1.985.051 1.234.025 3.273.047 3.398.047 1.663.008 3.325.004 4.987-.009.23-.003.346-.006.574-.01 1.526-.022 3.052-.058 4.577-.108.544-.017.816-.028 1.36-.048 1.508-.058 2.263-.093 3.771-.173 1.709-.106 3.415-.221 5.121-.348.835-.066 1.252-.102 2.088-.173-.013.014.95-.048 1.604-.105.718-.065 1.075-.098 1.79-.167 1.699-.169 3.396-.35 5.093-.541 2.493-.292 4.981-.618 7.464-.984.351-.051 1.593-.239 1.685-.253.513-.079.852-.131 1.438-.226 1.409-.223 2.814-.46 4.218-.708 1.89-.333 3.777-.691 5.661-1.068.147-.028.222-.044.37-.074 1.405-.283 3.253-.579 4.653-.884.193-.044.29-.064.484-.107 2.191-.492 4.374-1.003 6.555-1.539 1.682-.423 3.807-.859 5.484-1.304.193-.052.289-.079.484-.13.174-.088.342-.166.492-.235.03-.017.047-.024.078-.039.902-.436 1.783-.819 2.546-1.004 2.417-.595 5.924-.853 7.689 1.438 1.642 2.13 2.001 4.788 2.192 7.421.002.027.002.041.002.07.001.014.002.021.002.033v.103c.008 1.875-.51 4.211-1.143 5.969" fill="#fff"/><g transform="matrix(.8 0 0 -.8 239.18 340.77)"><path d="m116.78 122.63.338.848.617 1.533c.094.236.131.412.131.629 0 .29-.105.68-.354 1.299-1.348 3.403-2.698 6.812-4.043 10.189-.365.88-.667 1.409-1.175 2.005-.797-.808-1.399-1.486-1.889-2.121-.67-.865-1.255-1.721-1.789-2.611l-.338-.59-.219-.379-.381-.642c1.404-.828 2.223-2.063 2.5-3.762.057-.347.064-.645.067-1.021-.001-1.885-.933-3.38-2.696-4.329-1.513-.805-3.246-.963-4.142-.986-.321-.008-.676-.014-1.02-.014h-.14c-2.649.022-5.335.047-7.985.077l-1.896.021-.151.002-2.283.033c-1.914.03-3.826.059-5.758.094l-.597.027-.815.039v.004l-.972.018-2.164.043c-1.005.02-1.926.03-2.842.041-1.071.011-2.133.022-3.307.051l-1.894.045-1.047.023.228.385-.496-.088-.918-.166-.154-.029-.309-.053-.711-.106-.121-.015-.144-.024-.098-.011c-.404-.057-.787-.11-1.201-.145-.708-.063-1.292-.092-1.84-.092-.115 0-.225.001-.33.002-6.205.143-10.673 4.509-11.379 11.125-.054.518-.082 1.063-.086 1.622v.119c0 2.003.41 4.011 1.156 5.65 1.551 3.415 4.727 5.375 8.711 5.379.639 0 1.294-.054 1.945-.156.333-.049.773-.115 1.219-.205 1.229-.243 2.43-.592 3.567-1.045l.107-.043 1.201-.139 2.442-.281c2.278-.263 4.583-.508 6.849-.727l1.992-.191 1.1-.108-.67-.877-1.211-1.591c-.386-.508-.552-.981-.635-1.821-.01-.091-.015-.199-.015-.379l.006-.585c1.055 2.261 2.623 5.027 5.383 5.027.201 0 .406-.015.558-.039l.736-.057.479-.037c1.17-.087 1.791-.131 2.896-.205l1.622-.107 1.539-.088c2.317-.134 4.692-.249 7.058-.338l2.377-.088 1.311-.053-.879-.974-1.59-1.766c-.567-.633-.659-.898-.656-1.93v-.359c.232.387.453.746.654 1.062 1.009 1.605 1.636 2.444 2.244 2.989.924.822 1.758.937 2.528.941h.156l.824-.019c1.268-.022 2.013-.031 3.112-.041l2.054-.014.52-.002c.519-.001 1.036-.004 1.556-.004 1.093 0 2.206.003 3.299.015l2.008.02 1.002.01.244.006 1.992.053c2.332.062 4.724.144 7.073.275l2.302.121c2.838.149 5.754.339 8.659.561.112.009.225.011.343.011.073 0 .147-.003.221-.004l.066-.002.129-.004c3.075-.065 6.587-1.414 7.231-4.994.072-.398.105-.786.105-1.224-.005-1.788-.843-3.417-2.328-4.58.82-.667 1.373-1.544 1.654-2.618.133-.512.198-1.03.198-1.642-.029-3.443-2.98-5.438-5.725-5.567l-.896-.064-.049-.002h-.02l-.183-.002-.184-.002c-2.962-.049-5.972-.091-8.939-.125l-1.957-.02-1.084-.011.545.933.986 1.696c.446.763.566 1.144.621 1.966l.008.065.004.023c.011.087.012.192.012.313l.037 5.306.037 5.2c.001.652-.075 1.039-.326 1.439-.544-.666-.85-1.244-1.194-2.215-1.561-4.327-3.181-8.787-4.951-13.643l-.267-.728-.145-.401-.428-.004-.773-.002c-1.738-.01-3.472-.016-5.211-.019l-1.65-.006-.909-.004zm31.234.338.512.935.929 1.678c.467.848.595 1.271.655 2.182l.006.052.004.02c.014.106.014.219.015.363l.037 3.703.073 7.358v.086c.001.973-.141 1.395-.701 2.039l-1.393 1.603-.779.897 1.177.119 2.125.217c2.873.293 5.787.624 8.651.984.246.034.475.035.656.035l.117.002.203.004h.002c1.119 0 2.766-.184 4.274-1.056 1.555-.9 2.524-2.3 2.804-4.045.065-.41.098-.83.098-1.27-.004-1.919-.911-3.736-2.473-5.011.91-.704 1.501-1.654 1.793-2.885.128-.524.188-1.068.188-1.705-.02-3.169-2.474-5.721-5.697-5.934l-.78-.064-.086-.01-.093-.004h-.022l-.185-.008-.178-.004c-2.855-.075-5.867-.149-8.939-.215l-1.926-.043-1.067-.024zm-65.18.219.191.558c.002.004.133.398.143.848.004.242-.112.969-1.289 2.504-.358.467-.71.933-1.059 1.394v-.379c.008-1.292.023-1.853.291-2.406l1.2-1.752zm82.449.267.691.979 1.25 1.756c.603.847.75 1.409.76 2.853l.022 3.074.058 9.215.002.129c0 1.181-.141 1.757-.634 2.568l-.862 1.415-.478.787.908.14 1.646.254c2.065.315 4.244.672 6.477 1.053l2.174.375 1.201.207-.549-1.09-.988-1.963c-.575-1.139-.71-1.737-.719-3.222l-.105-12.679v-.076c-.001-1.224.245-2.073.875-3.037l.57-.875-.813 4.569-.357 2.097-.203 1.207 1.092-.558c.02-.012 2.053-1.048 3.467-1.233.823-.11 1.613-.17 2.218-.17.043 0 .079.001.117.002-.016 2.925-.043 8.952-.043 12.242.002 1.536-.176 1.754-.765 2.487l-1.158 1.441-.569.707.867.268 1.811.552.029.01.033.006c2.323.449 4.655.922 6.938 1.411l2.344.5 1.295.275-.623-1.17-1.131-2.111c-.689-1.286-.923-2.217-.932-3.678l-.029-4.385-.026-4.599-.021-3.485v-.111c.451.055.983.138 1.525.262 1.333.293 2.017.639 2.039.648l1.356.715.506.266c.029.72.103 1.446.326 2.226.677 2.334 3.524 5.12 6.375 7.772l.353.332.094.088c.851.791.946 1.474.992 2.388-.001.26-.083.448-.158.539-.03.035-.105.129-.379.129-.112 0-.235-.015-.355-.041-.556-.121-1.301-.479-2.1-1.015-.994-.664-2.188-1.721-3.117-2.752-.613-.682-1.642-2.007-1.652-2.02l-.338-.435-.471.289-.123.076-.338.207.049.389c.032.272.81 6.707 1.094 8.566l.021.146.082.555.049.309.275.144.494.262.135.07.156.084.266.141.209.111c.343.18.677.328 1.02.477l.109.047c1.044.477 2.02.83 2.893 1.047.765.21 1.518.318 2.242.318 4.234 0 7.126-3.517 7.197-8.76v-.174c-.002-4.52-2.094-7.329-5.238-10.158l-.076-.066-.442-.393c-1.044-.931-1.475-1.315-1.857-2.013-.139-.257-.214-.514-.215-.743 0-.168.045-.239.055-.252.002 0 .027-.011.101-.021.629.066 1.231.245 1.752.521.491.26 1.204.743 1.727 1.321.542.602 1.407 1.748 1.416 1.76l.287.38.443-.185.1-.043.375-.158v-.41l-.004-7.969v-.385l-.344-.168-.631-.305c-.145-.07-.278-.125-.398-.168-1.428-.662-2.69-1.007-3.971-1.078-.17-.01-.338-.013-.506-.013-2.965.002-5.405 1.429-6.779 3.703l.408-2.336.225-1.295.125-.713-.725-.006-1.312-.012-17.119-.14-.666-.008.052-.084-1.121-.01-2.031-.022c-2.271-.024-4.604-.04-6.936-.055l-2.164-.01-1.197-.01zm-94.508.149.291.496.963 1.633c.479.815.611 1.338.611 2.439v.105l-.078 7.54-.016 1.589-.236-.164-.344.209c-.022.017-2.283 1.408-4.222 2.094-.777.274-1.423.442-1.985.516-.212.031-.419.045-.619.045-1.474 0-2.382-.782-2.887-1.44-.752-.981-1.168-2.356-1.168-3.875l.002-.133c.003-.073.006-.154.012-.244.006-.097.009-.197.014-.308l.002-.081c.066-2.06 1.132-5.364 3.693-5.47h.147c.685 0 1.424.189 2.238.584.633.308 1.053.553 1.293.707.62.397 1.162.808 1.168.812l.387.299.377-.312.125-.104.222-.184v-.289l.01-5.968v-.497zm-22.286.32-.486.01-.881.015c-1.736.025-3.473.06-5.211.092l-1.433.027-.793.016.213.764.382 1.382c.112.405.162.751.162 1.11v.062l-.002.061c-.013.53-.147 1.154-.464 2.156-.98 3.133-1.825 6.383-2.649 9.567-.445 1.712-.904 3.485-1.373 5.187-.499 1.758-.919 2.743-1.789 4.225l-1.301 2.209-.718 1.22 1.38-.308 2.502-.557c1.713-.38 3.523-.771 5.379-1.152l1.416-.295.784-.16-.006-.012.832-.156 2.136-.405c2.382-.45 4.889-.902 7.452-1.347l1.92-.334 1.058-.184-.695-.82-1.262-1.483c-.721-.85-1.059-1.524-1.451-2.879-.384-1.311-.773-2.622-1.174-3.97-1.232-4.161-2.503-8.458-3.59-12.717l-.218-.854-.12-.468zm70.85.435c1.735.004 3.471.012 5.203.022 1.656 4.543 3.306 9.084 4.947 13.635.472 1.32.931 2.112 1.811 3.107-2.494-.105-4.987-.188-7.482-.254.378-.58.611-1.31.611-1.869 0-.087-.007-.173-.02-.252-.066-.421-.145-.668-.238-1.039-.036-.19-.053-.286-.088-.482-.011-.057-.017-.086-.029-.149l-.014-.074-.076-.002c-.061 0-.092.001-.154 0-2.021-.041-3.033-.053-5.053-.068-.055-.001-.082-.002-.137-.002h-.068l-.02.064c-.016.05-.026.074-.043.125-.061.195-.094.291-.158.488-.022.077-.032.111-.054.186-.035.125-.051.188-.086.314-.115.39-.17.744-.17 1.073v.004c0 .517.156.997.521 1.593-1.106-.009-2.211-.013-3.316-.013-.695 0-1.39.002-2.084.008.924-.975 1.399-1.719 1.926-2.991 1.353-3.405 2.705-6.809 4.054-10.215.334-.838.473-1.403.473-1.935l.002-.006c-.001-.406-.07-.8-.258-1.268zm-17.076.039h.127c.327 0 .67.008.977.016 1.043.025 2.343.234 3.371.783 1.028.553 1.78 1.422 1.783 2.805v.039c-.002.254-.009.475-.045.705-.229 1.399-.915 2.296-2.354 2.881-.167.07-.251.104-.416.172-.073.026-.111.039-.191.068-.084.031-.128.043-.213.076l-.107.037.058.098c.045.075.068.111.112.186.485.817.726 1.229 1.211 2.044.217.38.328.567.546.95.512.853 1.134 1.794 1.916 2.806.613.789 1.336 1.575 2.161 2.409l.002.004c.131.122.208.197.318.302-1.369.01-2.128.021-3.568.047-.33.006-.497.009-.829.016-.041 0-.081.004-.119.004-.536-.002-.899-.082-1.377-.508-.477-.426-1.051-1.213-1.931-2.613-1.12-1.783-2.154-3.59-2.809-5.655.035-.004.071-.008.117-.015-.005.002-.001.004.004.004.196-.005.42-.043.614-.092.781-.198 1.379-.473 1.769-.918.484-.553.742-1.048.826-1.535.002-.03.005-.047.008-.074.021-.164.043-.324.043-.489v-.004-.004c.002-.716-.233-1.272-.734-1.635-.5-.358-1.246-.524-2.268-.525h-.121c-.164.001-1.16.014-1.16.014l-.092.002-.002.092v.23l-.041 10.812v.051c-.005 1.389.235 2.078 1.102 3.039-2.365.09-4.731.205-7.096.34.939-1.079 1.25-1.892 1.252-3.229.018-3.493.033-6.985.051-10.477v-.078c.002-1.36-.201-2.093-.873-3.105 2.659-.031 5.32-.055 7.978-.076zm-65.547.033-1.074.008-1.945.012c-2.244.011-7.182.051-7.182.051l-2.025.018-1.118.008.606.939 1.099 1.697c.882 1.365 1.123 2.222 1.121 4v.065l-.025 6.98-.023 6.748c-.044 1.233-.053 1.488-.643 2.622-.736 1.421-2.172 2.324-4.519 2.841l-.731.162-.402.086-.071.409-.127.732-.421 2.426-.059.33-.295 1.701-.162.941.924-.24 1.672-.437c.435-.114 1.185-.309 1.949-.52 1.061-.289 1.8-.505 2.264-.672 1.561-.543 2.725-1.2 3.351-1.552 3.536-1.994 5.411-5.048 5.422-8.795l.012-.481.008-.437.064-13.248c.001-.248.007-.438.022-.604.115-1.426.263-2.268.793-3.176l.976-1.681.539-.932zm96.693.03c2.977.032 5.955.076 8.932.125.146.002.219.001.365.004.349.025.524.038.877.064 2.082.088 4.094 1.503 4.115 3.856v.045c0 .415-.053.793-.146 1.152-.393 1.509-1.459 2.299-3.733 2.785-.141.03-.546.094-.547.094l-.09.014.03.211.008.07.07.01s.53.073.777.119c1.973.37 4.098 1.949 4.106 4.33v.025c0 .34-.032.629-.078.889-.479 2.664-3.298 3.525-5.571 3.572-.125.004-.253.014-.378.014-.072 0-.141-.005-.211-.012-2.897-.222-5.795-.408-8.698-.562.842-.95 1.131-1.757 1.127-3.064v-.049c-.025-3.489-.051-6.977-.076-10.463-.001-.171 0-.354-.027-.541-.071-1.051-.264-1.681-.852-2.688zm-41.176.047.611.922c.483.728.588 1.112.586 2.166v.066l-.027 5.191-.025 5.276c-.002.925-.164 1.338-.827 2.101l-.343.393-.342-.32c-1.255-1.183-2.373-2.531-3.32-4.01-.504-.784-.91-1.45-2.295-4.094l-.143-.268c1.636-2.025 3.376-4.14 5.176-6.289zm-2.272.023c-1.953 2.33-3.884 4.682-5.791 7.055-.033.038-.048.059-.083.099l-.038.049.03.055c.021.044.031.067.056.113.234.445.355.664.59 1.108 1.418 2.705 1.835 3.391 2.365 4.216 1.01 1.574 2.231 3.053 3.592 4.334-1.112.074-1.734.118-2.912.205-.504.038-.76.057-1.264.096h-.004l-.003.002c-.127.02-.251.031-.373.031-2.368.027-3.769-4.067-4.663-5.867-.533-1.057-1.052-2.155-1.572-3.424 1.111-1.496 2.233-2.983 3.365-4.464.408-.534.916-1.367 1.336-2.03.395-.625.321-1.337.258-1.5 1.913-.031 3.199-.049 5.111-.078zm-25.188.043c.483 0 1.019.025 1.69.084.421.038.824.093 1.252.154.061.009.09.012.148.02.31.047.466.073.776.115.162.029.256.047.402.072-.012 1.263-.016 1.946-.027 3.178-.03-.02-.062-.042-.102-.072-.085-.06-.127-.092-.215-.151-.003-.002-.006-.003-.007-.006l-.008-.004-.012-.006s-.001-.002-.014-.01c-.116-.056-.238-.12-.361-.189-.126-.068-.257-.136-.387-.201-1.006-.49-2.001-.742-2.949-.742-.07 0-.138.003-.207.004-3.527.147-5.259 3.979-5.361 7.14-.003.123-.008.239-.014.344-.006.11-.014.22-.015.318-.002.054 0 .108 0 .16 0 1.879.532 3.636 1.523 4.928.991 1.291 2.443 2.113 4.26 2.113.274 0 .555-.02.845-.056h.002c.737-.098 1.536-.298 2.354-.611.854-.325 1.584-.733 2.252-1.26-.626 1.436-.989 2.275-1.658 3.834-1.086.432-2.196.747-3.264.959-.381.073-.765.135-1.133.187-.568.089-1.136.135-1.695.135-2.998-.002-5.756-1.315-7.141-4.363-.625-1.374-1.002-3.098-1.002-4.936v-.109c.004-.482.028-.971.078-1.449.597-5.609 4.288-9.454 9.7-9.577.095-.004.192-.004.291-.004zm86.196.17c2.978.063 5.956.137 8.93.217.146.002.22.005.365.008.349.03.526.045.877.076 2.227.138 4.107 1.816 4.119 4.229v.039c0 .455-.048.871-.14 1.261-.39 1.639-1.453 2.468-3.721 2.936-.224.046-.543.086-.543.086l-.095.012.05.298.069.01s.52.072.763.129c2.123.502 4.107 2.352 4.112 4.827v.017c0 .365-.032.694-.077.977-.428 2.68-3.035 3.651-5.375 3.652-.056 0-.112-.001-.169-.002-.194-.004-.398-.001-.586-.023-2.895-.364-5.796-.696-8.698-.993.838-.961 1.128-1.798 1.125-3.168v-.082c-.037-3.692-.073-7.383-.111-11.076-.001-.181-.002-.373-.031-.572-.072-1.116-.268-1.784-.863-2.857zm-71.305.012c-.458.774-.559 1.788-.568 3.342-.029 3.688-.057 7.376-.086 11.066v.066c0 .164.006.334.024.5.103 1.076.354 1.875.978 2.697-2.297.22-4.591.463-6.885.729.702-1.021.976-1.86 1.098-2.975.02-.187.026-.385.027-.57.04-3.776.078-7.55.116-11.326.001-.043.002-.083.002-.123.001-1.404-.21-2.232-.85-3.317 2.179-.052 3.966-.046 6.145-.089zm88.973.431c2.311.014 4.62.031 6.932.055-.814 1.243-1.158 2.417-1.158 3.979 0 .03.003.06.004.091.032 4.224.066 8.45.1 12.676.013 1.733.206 2.602.904 3.983-2.166-.371-4.335-.725-6.508-1.059.665-1.092.886-1.97.885-3.463v-.14c-.027-4.095-.054-8.19-.08-12.287-.013-1.663-.213-2.614-1.078-3.834zm10.695.18 17.119.143-.953 5.459s-.829-.45-2.472-.815c-1.886-.418-3.643-.426-3.643-.426.001.005.017 2.461.035 5.461.019 3.002.04 6.6.055 8.983.01 1.745.314 2.948 1.137 4.484-2.323-.496-4.645-.97-6.973-1.418.898-1.114 1.156-1.953 1.152-3.777 0-4.478.053-13.914.053-13.914s-2.135-.269-3.758-.061c-1.622.21-2.607.68-2.607.68zm-132.18.303c1.437 5.626 3.153 11.182 4.78 16.746.456 1.574.91 2.467 1.795 3.51-2.495.432-4.988.883-7.477 1.353.388-.82.647-1.789.647-2.537 0-.124-.008-.24-.024-.35-.075-.543-.136-.83-.223-1.302-.033-.239-.049-.364-.084-.608-.008-.076-.015-.115-.025-.191l-.012-.092-.093.014c-.063.009-.094.015-.157.023-2.006.315-3.012.478-5.015.815-.055.007-.083.014-.137.023l-.06.008-.014.061c-.018.073-.026.108-.043.179-.065.278-.097.419-.162.694-.059.283-.089.423-.145.705-.116.55-.175 1.038-.178 1.48-.001.01 0 .021 0 .031 0 .712.156 1.321.536 2.078-1.805.374-3.607.762-5.407 1.161.948-1.609 1.423-2.736 1.963-4.629 1.342-4.87 2.502-9.901 4.008-14.711.365-1.159.525-1.916.545-2.625.001-.057.002-.111.002-.17 0-.496-.062-.984-.225-1.57 1.735-.035 3.471-.066 5.206-.096zm157.38.502c.133 0 .269.002.405.008 1.032.06 2.128.348 3.429.963.009.004.012.004.012.004l.006.004.006.002c.004 0 .006.003.01.004.081.023.169.059.256.101.004 1.813.005 2.777.008 4.526-.564-.647-1.173-1.107-1.816-1.45-.722-.381-1.59-.647-2.549-.722h-.01-.008-.004-.01c-.504.035-.809.144-1.102.359-.477.348-.765.934-.763 1.647v.01c.002.528.158 1.07.425 1.56.602 1.1 1.307 1.647 2.735 2.93 2.881 2.591 4.667 4.982 4.67 8.871 0 .055-.002.11-.002.162-.057 3.954-2.044 7.042-5.471 7.041-.564 0-1.166-.083-1.805-.258-.798-.2-1.677-.521-2.613-.947-.053-.024-.078-.037-.131-.06-.305-.133-.616-.268-.926-.426-.178-.096-.27-.148-.451-.244-.121-.063-.188-.1-.297-.157-.293-1.92-.586-3.841-.881-5.759.843 1.198 1.858 2.16 3.086 2.986.93.625 1.87 1.091 2.702 1.267.253.057.491.081.712.081.757.003 1.332-.298 1.707-.747.377-.451.561-1.047.561-1.65v-.008c-.055-1.18-.214-2.411-1.539-3.643-1.805-1.692-5.692-5.165-6.34-7.408-.246-.851-.267-1.701-.275-2.451-.001-.035-.002-.069-.002-.102.004-3.863 2.713-6.491 6.265-6.494zm-170.82.004c-.718 1.24-.898 2.398-1.019 3.9-.02.24-.024.497-.025.739-.023 4.416-.044 8.833-.065 13.248-.007.352-.012.531-.019.884-.012 3.355-1.799 5.784-4.545 7.33-.72.409-1.725.959-3.073 1.43-.433.151-1.158.366-2.148.637-.759.207-1.5.398-1.93.51.185-1.072.288-1.657.479-2.748 2.221-.49 4.497-1.447 5.683-3.735.755-1.451.788-1.991.834-3.375.018-4.589.033-9.176.049-13.764v-.092c.001-2.163-.36-3.31-1.396-4.914 0 0 4.936-.038 7.176-.051zm106.91.799c-.236 0-.51.007-.837.025-.11.006-.165.01-.276.018-.008.001-.009.002-.01.002h-.002-.006-.011c-.099.016-.149.027-.25.045-.06.011-.092.015-.153.025l-.076.014v.234c.009 1.514.015 2.273.023 3.787.001.061.002.09.002.152v.071l.069.017c.06.015.09.022.15.039.339.084.634.127.975.141.112.002.224.004.33.004.019.001.04.002.056.002 1.833 0 2.76-.721 2.813-2.219 0-.147 0-.218-.004-.359-.1-1.234-.699-1.757-2.219-1.984-.008-.002-.009-.001-.014-.002h-.004-.008c-.007 0-.009-.001-.011-.004-.16-.002-.335-.008-.537-.008zm17.381.547c-.192 0-.405.002-.646.013-.111.006-.457.044-.557.063-.06.008-.09.013-.15.023l-.078.014v.08c0 .066.002.099.002.164.012 1.619.018 2.427.033 4.047v.164l.002.066.065.022c.061.016.092.025.152.043.34.097.633.15.973.172.171.01.336.015.492.015h.051c1.731 0 2.605-.762 2.648-2.32 0-.156-.001-.234-.002-.387-.103-1.321-.697-1.89-2.221-2.16-.005-.001-.034-.002-.039-.002-.206-.009-.437-.017-.724-.017zm-36.828 1.839-.023.065c-.639 1.829-.958 2.742-1.598 4.568-.033.094-.05.141-.084.235l-.041.123h.131c.104.001.155.001.26.004 1.219.009 1.828.016 3.049.035.1.001.15.003.25.004h.129l-.037-.121c-.029-.094-.046-.14-.074-.235-.583-1.843-.872-2.766-1.454-4.603l-.019-.063h-.066c-.144-.004-.21-.009-.354-.01l-.068-.002zm-76.924 3.145-.08.004c-.142.009-.211.016-.353.025l-.067.006-.017.063c-.55 2.105-1.096 4.209-1.637 6.316-.034.134-.05.198-.084.332l-.035.135.137-.02c.104-.015.154-.02.258-.035 1.212-.169 1.819-.251 3.033-.414.099-.012.15-.021.252-.033l.101-.014-.025-.099c-.028-.118-.042-.178-.07-.295-.469-1.963-.932-3.93-1.395-5.895l-.017-.076zm77.121.367.081.254c-.057 0-.111-.002-.168-.002l.088-.252zm18.781.836c-.041 0-.086.003-.132.006-.039.002-.078.004-.116.004h-.031-.004-.004c-.11.005-.164.007-.271.014-.109.005-.164.007-.272.011-.068.005-.103.005-.172.008l-.087.004v.092c.001.066 0 .1 0 .17.012 1.855.018 2.781.029 4.637v.164l.047.027c.04.025.061.038.099.061.018.011.03.015.047.025.012.009.017.011.026.018l.015.008.012.002c.014.002.019.003.029.006.184.041.278.061.463.101.651.094.984.118 1.303.137h.035c.007-.001.011-.002.016-.002 1.446-.155 2.158-.936 2.26-2.471 0-1.94-1.081-2.935-3.25-3.021h-.041zm17.566 1.016c-.037 0-.907.016-.974.017l-.092.002.002.092c0 .071-.001.109 0 .182.016 1.982.026 2.974.041 4.957.001.047 0 .071 0 .121v.142s.548.144.731.194c.333.062.677.112.939.146.249.033.289.043.418.049s.572-.077.812-.162c.903-.329 1.363-1.113 1.438-2.41-.005-2.079-1.078-3.174-3.25-3.33h-.064zm-37.883 3.941c1.023.011 1.812.021 2.817.037.019.085.038.186.057.293 0 .175-.101.575-.329.924l-1.091 1.672-.114.17-.103-.172-1.047-1.709c-.269-.448-.27-.614-.27-.701 0-.144.028-.313.081-.514zm-47.297.723-.002.203c-.002.166-.009.292-.021.402-.097.901-.298 1.452-.799 2.18l-.699 1.01zm-27.438 4.783c.023.137.046.281.071.457.004.031.004.072.004.113 0 .465-.193 1.189-.481 1.805l-.924 1.969-.326.695-.187-.375-.645-1.291c-.257-.52-.354-.875-.351-1.334.001-.324.047-.695.142-1.147l.096-.466c.961-.16 1.708-.282 2.602-.426z" fill="#c99700"/><path d="m64.869 120.01c-3.685-.049-6.283.825-8.383 2.145-2.924 1.838-4.547 4.82-4.547 4.82s-1.524-4.333-1.719-5.016c-.102-.356-.153-.536-.255-.894h-.037v-.028h-31.938s4.793 10.081 4.793 11.426c0 4.384-.036 8.969-.036 11.795s-6.478 3.862-6.478 3.862l-1.981 13.736s9.653-2.399 10.986-2.754c1.334-.353 2.407-.845 3.688-1.61.83-.497 1.603-1.039 2.305-1.615 1.323-.359 1.985-.532 3.31-.877 2.176-.562 4.704-1.121 6.893-1.642 2.102-.489 4.206-.968 6.316-1.432 2.136-.463 4.275-.898 6.42-1.316 1.564-.302 3.132-.589 4.699-.866.17-.029 2.961-.567 5.953-1.047 3.318-.528 6.888-1.005 7.549-1.097 2.696-.354 5.394-.685 8.098-.989 1.75-.192 3.502-.368 5.256-.529.866-.081 1.301-.121 2.166-.195 1.312-.111 1.966-.162 3.279-.26.757-.057 1.135-.083 1.893-.135 1.497-.103 2.247-.152 3.746-.236 1.875-.108 2.815-.154 4.691-.232 1.561-.064 2.34-.093 3.898-.137.993-.031 1.49-.04 2.483-.063 1.542-.032 4.09-.06 4.246-.06 2.079-.009 4.157-.005 6.234.011.288.004.432.007.717.014 1.908.026 3.817.072 5.723.135.68.02 1.019.036 1.699.061 1.885.072 2.83.116 4.715.214 2.136.133 4.268.277 6.4.436 1.044.082 1.565.126 2.61.215-.017-.018 1.188.061 2.006.133.897.08 1.344.122 2.238.207 2.124.212 4.244.437 6.365.677 3.116.364 6.226.773 9.33 1.231.439.064 1.991.298 2.106.316.641.099 1.066.163 1.798.282 1.762.28 3.517.575 5.272.886 2.362.416 4.721.862 7.076 1.334.184.035.278.056.463.092 1.756.354 4.066.724 5.816 1.106.242.055.363.079.606.132 2.739.617 5.467 1.255 8.193 1.926 2.103.528 4.76 1.073 6.856 1.629.241.065.36.098.603.162.218.11.428.209.616.295.037.021.058.029.097.049 1.128.545 2.23 1.021 3.184 1.254 3.021.744 7.405 1.067 9.611-1.797 2.053-2.663 2.502-5.984 2.74-9.276.002-.035.002-.052.002-.087.001-.018.002-.026.002-.041v-.041-.09c.01-2.344-.636-5.263-1.427-7.459v-14.646s-.58-.778-1.795-1.563c-1.219-.783-2.893-1.855-7.156-1.855-1.695 0-5.123.185-5.123.185l-87.5.014 2.044 4.07-1.177 2.766c-.418-4.546-4.931-6.854-8.971-7.012-.451-.016-.881-.039-1.269-.039-.105 0-.21.002-.315.002h-31.916c-.211-.049-1.028-.2-1.697-.307-1.492-.239-2.842-.358-4.07-.375zm52.82 3.242 1.648.004c1.735.005 3.472.012 5.207.02l.774.006.267.728c1.768 4.853 3.39 9.313 4.952 13.637.426 1.201.814 1.867 1.591 2.752l.2.223.072-.082c.649-.736.849-1.278.846-2.326v-.051c-.024-3.481-.05-6.969-.075-10.459-.001-.151-.001-.283-.017-.393l-.004-.039-.004-.041c-.06-.879-.21-1.354-.701-2.199l-.989-1.695 1.961.021c2.966.035 5.972.077 8.936.127h.182l.185.004h.033l.03.004.867.061c2.485.115 5.13 1.888 5.154 4.957v.054c0 .5-.057.969-.176 1.43-.361 1.385-1.173 2.225-2.154 2.768 1.579.937 2.801 2.531 2.809 4.584v.029c0 .37-.032.725-.096 1.086-.579 3.215-3.811 4.428-6.641 4.49l-.133.004c-.09.001-.18.006-.269.006-.1 0-.197-.005-.295-.012-2.895-.221-5.813-.411-8.674-.562l-2.302-.121.031-.033c-2.353-.095-4.747-.178-7.119-.243l-1.994-.052 1.091-1.668c.294-.452.43-.968.43-1.262 0-.044-.005-.069-.006-.074-.04-.256-.086-.433-.145-.656-.015-.054-.029-.11-.043-.166-1.402-.028-2.328-.04-3.759-.051l-.014.045-.064.232-.024.078c-.086.305-.127.553-.127.776s.043.5.36 1.019l1.044 1.711-2.005-.02c-1.099-.01-2.211-.013-3.307-.013-.694 0-1.384.003-2.078.004l-2.057.013c-1.102.012-1.849.02-3.119.043-.33.006-.494.011-.824.018h-.055-.09c-.746-.002-1.389-.138-2.119-.785-.56-.504-1.157-1.305-2.131-2.858-.613-.973-1.231-2.003-1.781-3.105l-.01 2.728v.047c-.004 1.139.142 1.545.817 2.297l1.588 1.766-2.373.088c-2.355.091-4.735.205-7.073.34l-1.539.087-1.627.108c-1.106.072-1.73.119-2.902.207-.489.035-.741.055-1.217.092-.171.026-.343.037-.51.037h-.023c-2.703 0-4.2-3.326-5.192-5.527-.16-.357-.312-.694-.445-.957-.11-.219-.214-.431-.316-.641-.008 1.097-.016 2.198-.024 3.293v.058c0 .153.005.281.016.391.092.95.299 1.525.758 2.129l1.211 1.592-1.991.191c-2.268.218-4.577.466-6.865.727l-2.437.281 1.394-2.019c.56-.813.798-1.458.907-2.461.015-.123.022-.269.023-.461l.039-3.787.076-7.54v-.111c.001-1.202-.161-1.845-.695-2.75l-.963-1.635 1.894-.045c2.18-.052 3.972-.046 6.151-.089l2.162-.045-1.221 1.785c-.352.695-.367 1.364-.375 2.719-.005.744-.01 1.491-.017 2.236.708-.942 1.435-1.903 2.177-2.877.809-1.054 1.433-2.132 1.416-2.889-.012-.56-.177-1.033-.177-1.033l.597-.027c1.913-.034 3.825-.065 5.739-.094l2.283-.035h.041l.107-.002 1.899-.022c2.646-.028 5.331-.053 7.978-.074h.137c.337 0 .688.007 1.004.014.842.021 2.466.167 3.869.916 1.549.831 2.369 2.137 2.371 3.783v.041c-.002.31-.009.582-.057.883-.283 1.73-1.162 2.884-2.755 3.613l.711 1.203.214.373.34.588c.545.915 1.149 1.796 1.834 2.682.531.687 1.186 1.418 2.063 2.303l.265.25.037.035.041.041.006-.006c.828-.871 1.226-1.491 1.707-2.651 1.347-3.388 2.697-6.793 4.047-10.197.282-.707.395-1.149.395-1.525 0-.294-.051-.549-.176-.859l-.613-1.532zm-52.918.219c.531 0 1.1.027 1.787.088.435.037.839.095 1.266.154l.045.008.093.014.053.006.067.01.714.105.02.004.019.002.252.045.151.03.922.166-.01 5.968-.125.104s-.556-.426-1.207-.844c-.626-.399-1.349-.735-1.399-.762-.856-.416-1.685-.627-2.462-.627-.054 0-.111.001-.165.002-2.987.127-4.216 3.785-4.291 6.063-.005.14-.01.262-.017.377-.005.092-.009.183-.01.269-.001.049-.002.096-.002.141 0 1.653.458 3.164 1.293 4.25.588.768 1.65 1.68 3.375 1.678.229 0 .464-.017.701-.049.679-.09 1.403-.296 2.108-.545 2.028-.72 4.341-2.148 4.341-2.148l.114.078-2.625 6.549-.432.167c-1.101.437-2.263.779-3.457 1.018-.437.086-.866.15-1.191.195-.614.098-1.241.151-1.854.151-3.732-.004-6.703-1.833-8.152-5.018-.711-1.564-1.104-3.479-1.104-5.396l.002-.118c.003-.545.033-1.069.084-1.558.67-6.291 4.901-10.439 10.779-10.574.1-.002.208-.002.317-.002zm27.518.021-1.479 1.766c-1.89 2.255-3.716 4.479-5.437 6.615.05.092.097.18.148.28l.184.343c1.391 2.657 1.804 3.337 2.32 4.139.979 1.525 2.128 2.912 3.416 4.123l.809.762.762-.879c.756-.87.976-1.43.978-2.5.016-3.493.035-6.98.053-10.469v-.065c.001-1.168-.14-1.679-.688-2.507zm56.779.118 1.924.041c3.074.067 6.08.14 8.933.216l.18.004.186.006.035.002.033.002.088.008.787.069c2.915.188 5.121 2.475 5.139 5.322v.045c0 .542-.055 1.039-.17 1.518-.332 1.378-1.049 2.339-2.289 2.994 1.648 1.032 2.947 2.806 2.951 5.043v.021c0 .386-.032.772-.092 1.151-.247 1.553-1.115 2.803-2.508 3.609-1.384.802-2.918.973-3.963.973h-.002c-.063 0-.125-.001-.189-.002h-.117c-.178 0-.379-.005-.59-.032-2.865-.362-5.783-.693-8.67-.988l-2.123-.217 1.394-1.601c.654-.757.858-1.328.854-2.448v-.084l-.074-7.363-.037-3.703c-.001-.172-.005-.309-.022-.439l-.004-.036-.002-.035c-.062-.962-.219-1.477-.73-2.398zm17.408.468 2.164.014c2.329.015 4.662.032 6.934.053l2.029.021-1.105 1.692c-.694 1.058-.977 2.036-.977 3.375v.076l.105 12.682c.009 1.581.166 2.268.786 3.498l.99 1.961-2.176-.375c-2.169-.373-4.351-.73-6.486-1.059l-1.645-.25.862-1.416c.556-.914.723-1.589.722-2.887l-.002-.132c-.026-4.098-.052-8.194-.078-12.287-.012-1.565-.2-2.253-.875-3.205l-1.248-1.76zm11.918.182.943.006 17.121.145 1.313.011-.225 1.295-.955 5.455-.26 1.504-1.359-.715c-.006-.004-.751-.387-2.191-.709-.839-.186-1.656-.283-2.28-.336.002.222.004.481.004.791l.026 3.487.025 4.599.027 4.387c.009 1.555.272 2.592 1.004 3.961l1.131 2.115-2.33-.51c-2.315-.492-4.653-.966-6.949-1.41l-1.811-.555 1.161-1.443c.682-.848.901-1.208.898-2.871 0-3.519.033-10.178.047-12.811-.393-.076-1.496-.077-3.035.127-1.536.203-3.666 1.297-3.666 1.297l.355-2.098.856-4.799.164-.931zm-130.38.295.215.853c1.092 4.283 2.374 8.599 3.611 12.777.389 1.31.776 2.62 1.158 3.93.417 1.438.801 2.189 1.575 3.102l1.261 1.486-1.92.334c-2.497.43-5.007.885-7.459 1.35l-2.138.404.923-1.971c.329-.702.54-1.512.541-2.064 0-.076-.004-.143-.011-.199-.056-.407-.104-.66-.164-.979l-.02-.096c-1.311.208-2.22.357-3.607.588l-.047.203-.025.119-.114.561c-.102.488-.154.899-.156 1.268v.025c-.001.536.116.98.416 1.582l.646 1.295-1.416.291c-1.83.379-3.643.769-5.39 1.156l-2.502.557 1.301-2.209c.901-1.531 1.336-2.553 1.853-4.369.47-1.709.931-3.483 1.375-5.2.818-3.15 1.663-6.407 2.643-9.539.334-1.06.476-1.73.492-2.324v-.138c0-.423-.056-.815-.184-1.274l-.384-1.383 1.437-.027c1.736-.032 3.472-.066 5.209-.094zm-12.371.508-.977 1.683c-.585 1.005-.751 1.946-.873 3.434-.013.179-.02.385-.021.65l-.065 13.252v.018l-.009.409-.01.457c-.013 3.547-1.78 6.414-5.111 8.294-.609.342-1.741.982-3.252 1.51-.452.159-1.178.374-2.223.659-.763.21-1.508.403-1.942.515l-1.673.438.295-1.703c.185-1.074.287-1.662.478-2.752l.129-.737.729-.16c2.538-.559 4.108-1.563 4.935-3.16.65-1.249.665-1.6.709-2.879l.023-6.766.026-6.982v-.051l.002-.041c0-1.877-.274-2.843-1.219-4.308l-1.102-1.7 2.026-.017s4.94-.039 7.18-.051zm168.88.006c.154 0 .311.002.467.013 1.211.067 2.418.396 3.787 1.038.107.035.227.082.355.146l.629.305v7.97l-.099.043s-.882-1.17-1.45-1.798c-.568-.627-1.327-1.153-1.894-1.453-.609-.322-1.315-.527-2.045-.594-.301.029-.38.085-.459.142-.201.147-.309.411-.309.746 0 .338.101.694.292 1.038.431.793.921 1.227 1.99 2.179.16.142.331.294.511.457 3.023 2.718 5.036 5.408 5.04 9.7l-.004.167c-.068 4.879-2.712 8.153-6.582 8.153-.668 0-1.367-.103-2.081-.295-.851-.214-1.791-.553-2.798-1.016l-.022-.008-.099-.045-.02-.008c-.311-.136-.63-.278-.963-.449l-.201-.107-.266-.141-.154-.084-.141-.072-.492-.262-.086-.555-.023-.148c-.284-1.871-1.088-8.549-1.088-8.549l.123-.076s1.047 1.352 1.684 2.055c.866.962 2.089 2.089 3.23 2.855.874.585 1.674.965 2.313 1.104.17.035.333.052.48.052.375 0 .66-.117.854-.347.191-.228.298-.566.3-.93-.051-1.034-.177-1.905-1.183-2.844-.139-.13-.288-.267-.445-.416-2.795-2.595-5.575-5.311-6.207-7.496-.274-.95-.308-1.841-.317-2.746v-.117c.003-4.405 3.103-7.604 7.373-7.608zm-103.35 2.838c-.034 0-.096.002-.172.002l-.012 3.045c.094-.004.23-.024.36-.055.607-.155 1.002-.344 1.203-.572.325-.373.51-.693.562-.977v-.002l.006-.033c.018-.141.034-.26.034-.354.001-.541-.191-.677-.272-.736-.201-.144-.643-.317-1.617-.318zm39.439.195c-.168 0-.333.002-.504.01l.014 2.324c.042.004.085.005.129.006.097.004.194.008.289.008h.058c1.634 0 1.677-.617 1.696-1.121l-.002-.299c-.039-.489-.094-.745-1.229-.92-.13-.005-.28-.008-.451-.008zm17.381.537c-.104 0-.206 0-.311.002l.004.387.02 2.264c.05.002.102.005.154.01.145.009.286.015.42.015h.051c1.26 0 1.509-.415 1.535-1.232v-.164-.161c-.052-.631-.137-.902-1.25-1.107-.17-.007-.378-.014-.623-.014zm-36.6 2.301c-.316.901-.632 1.81-.982 2.803.635.006 1.239.012 1.873.019zm18.779 3.894.012 2.119.008 1.055c.427.055.689.074.927.09.733-.089 1.122-.345 1.2-1.393-.006-1.067-.386-1.793-2.147-1.871zm-96.191.391c-.294 1.13-.587 2.262-.881 3.402.544-.073 1.061-.142 1.637-.222-.25-1.046-.502-2.106-.756-3.18zm113.78.619.016 1.66.015 1.887c.261.045.518.082.703.104.084.011.148.019.198.027.037.005.058.009.085.012.104-.014.325-.059.422-.096.205-.074.631-.228.707-1.4-.011-1.449-.616-2.07-2.146-2.194z" fill="#0033a0" stroke="#0033a0" stroke-width=".5"/></g></g></svg>