<svg clip-rule="evenodd" fill-rule="evenodd" stroke-linejoin="round" stroke-miterlimit="2" viewBox="0 0 560 400" xmlns="http://www.w3.org/2000/svg" xmlns:xlink="http://www.w3.org/1999/xlink"><clipPath id="a"><path clip-rule="evenodd" d="m26.264 75.909c0-13.94 11.301-25.241 25.242-25.241s25.241 11.301 25.241 25.241c0 13.941-11.3 25.241-25.241 25.241s-25.242-11.3-25.242-25.241"/></clipPath><g clip-path="url(#a)" fill-rule="nonzero" transform="matrix(5.94259 0 0 -5.93665 -26.0763 650.645)"><path d="m0 0c0 14.417-11.687 26.104-26.104 26.104s-26.104-11.687-26.104-26.104 11.687-26.104 26.104-26.104 26.104 11.687 26.104 26.104" fill="#c00d0e" transform="translate(77.6248 75.836)"/><path d="m0 0c-.04-.031-.083-.058-.12-.092-4.405-3.831-8.81-7.663-13.213-11.496-.212-.185-.416-.379-.623-.568h-.068c-.04.045-8.273 7.227-12.35 10.773-.533.464-1.07.922-1.606 1.383v23.048h27.98z" fill="#fff" transform="translate(65.5105 67.9327)"/><path d="m0 0c.004 6.565.004 13.563.003 20.128 0 .06-.004.12-.007.178h-24.45v-.199c0-6.553 0-13.54-.002-20.094 0-.122.031-.205.128-.289 3.532-3.069 7.062-6.141 10.591-9.214.499-.433.999-.867 1.509-1.311.065.054.113.093.158.133 3.992 3.473 7.983 6.946 11.972 10.422.06.053.098.163.098.246" fill="#c00d0e" transform="translate(63.7459 68.9008)"/><g fill="#fff"><path d="m0 0c0-.119-.036-.197-.126-.274-3.147-2.735-6.293-5.473-9.438-8.211-.055-.048-.111-.094-.178-.15-.326.283-.646.56-.965.838-2.877 2.503-5.753 5.008-8.632 7.51-.097.084-.14.167-.139.3.006 1.001 0 2.003 0 3.006v.19h2.466v-.18c0-.64-.004-1.28.004-1.92.001-.082.045-.189.106-.242 2.365-2.066 4.734-4.127 7.103-6.188.017-.015.036-.025.065-.046.363.316.727.63 1.088.945 2.001 1.743 4.003 3.486 6.007 5.224.127.111.177.222.176.389-.008 1.177-.004 2.354-.004 3.531v.23h-17.002v7.397h19.459c.003-.048-.001-.096 0-.145 0-.708-.007-1.415 0-2.123.001-.144-.034-.195-.172-.177-.056.006-.113.001-.17.001h-16.654v-2.49h17.004v-.199c0-2.406-.001-4.811.002-7.216" transform="translate(61.2609 70.0368)"/><path d="m0 0h-19.459v3.622c.064-.029.114-.05.162-.075 1.098-.57 2.195-1.141 3.296-1.707.081-.043.18-.068.272-.069.837-.006 1.675-.006 2.512 0 .092.001.191.027.272.07 1.022.534 2.041 1.071 3.059 1.612.114.06.199.06.312 0 1.018-.542 2.039-1.078 3.06-1.612.081-.043.181-.069.272-.07.838-.006 1.675-.006 2.512 0 .091.001.19.026.272.069 1.095.564 2.188 1.133 3.281 1.7.049.026.108.05.177.084z" transform="translate(61.2505 83.9346)"/></g></g></svg>