<svg clip-rule="evenodd" fill-rule="evenodd" stroke-linejoin="round" stroke-miterlimit="2" viewBox="0 0 560 400" xmlns="http://www.w3.org/2000/svg" xmlns:xlink="http://www.w3.org/1999/xlink"><clipPath id="a"><path clip-rule="evenodd" d="m31.027 69.815c.086-.433.148-.862.182-1.288.175-2.174-.325-4.246-1.511-6.145-2.172-3.478-4.982-5.56-7.266-6.776 1.138-4.148 3.758-12.489 8.237-20.534 4.873-8.752 15.041-14.428 18.937-16.357.001-.001.003-.001.004-.002 3.887 1.921 14.046 7.581 18.934 16.359 4.476 8.043 7.097 16.386 8.236 20.534-2.283 1.215-5.095 3.298-7.268 6.777-1.174 1.882-1.671 3.978-1.504 6.158.033.422.097.846.179 1.273-7.947 4.022-17.061 4.809-18.581 4.914-1.521-.105-10.635-.894-18.579-4.913"/></clipPath><g fill-rule="nonzero"><path d="m0 0c-3.44 5.508 3.441 13.098 3.441 13.098-10.547 8.867-27.377 8.398-27.377 8.398s-16.831.469-27.378-8.398c0 0 6.882-7.59 3.44-13.098-3.44-5.508-8.826-6.717-8.826-6.717s2.693-12.899 9.724-25.528c7.032-12.628 23.04-19.346 23.04-19.346s16.007 6.718 23.039 19.346c7.031 12.629 9.724 25.528 9.724 25.528s-5.386 1.209-8.827 6.717" fill="#263470" transform="matrix(3.59584 0 0 -3.59584 366.0729927904 145.7584983072)"/><path d="m0 0c.733-3.066 3.576-13.894 9.428-24.405 6.198-11.133 19.787-17.671 22.204-18.765 2.418 1.094 16.005 7.632 22.204 18.765 5.852 10.511 8.695 21.339 9.428 24.405-1.777.617-5.726 2.417-8.506 6.868-3.139 5.025 1.169 11.298 2.894 13.473-10.188 7.918-25.832 7.579-25.993 7.575l-.026-.001-.027.001c-.165.003-15.818.331-25.994-7.575 1.725-2.175 6.033-8.448 2.894-13.473-2.78-4.451-6.729-6.251-8.506-6.868m31.632-45.253-.37.155c-.666.279-16.395 6.993-23.505 19.764-7.021 12.61-9.797 25.666-9.824 25.796l-.193.922.919.207c.048.011 5.053 1.212 8.225 6.291 3.016 4.826-3.275 11.879-3.339 11.949l-.664.735.758.639c10.592 8.905 26.985 8.644 27.993 8.623 1.014.025 17.398.283 27.992-8.623l.76-.638-.666-.735c-.064-.071-6.354-7.124-3.338-11.95 3.192-5.111 8.175-6.28 8.224-6.291l.919-.207-.192-.922c-.027-.13-2.804-13.186-9.824-25.796-7.111-12.771-22.839-19.485-23.505-19.764z" fill="#263470" transform="matrix(3.59584 0 0 -3.59584 166.2579173344 172.2778183072)"/><path d="m0 0c-3.44 5.508 3.441 13.098 3.441 13.098-10.547 8.867-27.377 8.398-27.377 8.398s-16.831.469-27.378-8.398c0 0 6.882-7.59 3.44-13.098-3.44-5.508-8.826-6.717-8.826-6.717s2.693-12.899 9.724-25.528c7.032-12.628 23.04-19.346 23.04-19.346s16.007 6.718 23.039 19.346c7.031 12.629 9.724 25.528 9.724 25.528s-5.386 1.209-8.827 6.717" fill="#1f4694" transform="matrix(3.59584 0 0 -3.59584 366.0729927904 145.7584983072)"/><path d="m0 0c-1.902 1.013-4.604 2.914-6.666 6.216-.984 1.576-1.411 3.325-1.268 5.196.025.324.076.682.155 1.095l.225 1.176-1.068.541c-8.163 4.131-17.416 4.957-19.188 5.082l-.111.007-.11-.007c-1.771-.124-11.02-.95-19.186-5.082l-1.077-.545.235-1.183c.076-.379.129-.75.157-1.105.149-1.844-.281-3.585-1.275-5.176-1.655-2.649-3.897-4.74-6.665-6.215l-1.121-.598.336-1.226c1.179-4.296 3.836-12.723 8.381-20.885 5.029-9.033 15.275-14.848 19.533-16.965l.677-.452.822.407c4.209 2.078 14.545 7.896 19.619 17.01 4.539 8.155 7.199 16.585 8.38 20.885l.337 1.226z" fill="#fcee1e" transform="matrix(3.59584 0 0 -3.59584 380.4002576864 173.3838986912)"/><path d="m0 0 .201-.734c1.173-4.269 3.813-12.642 8.324-20.744 4.954-8.897 15.12-14.646 19.26-16.704l.07-.041.371-.247.492.243c4.155 2.052 14.358 7.792 19.344 16.749 4.506 8.096 7.149 16.472 8.323 20.745l.201.733-.672.358c-1.971 1.05-4.769 3.019-6.906 6.442-1.059 1.693-1.517 3.572-1.363 5.581.026.348.08.73.164 1.168l.134.703-.639.324c-8.051 4.074-17.193 4.892-18.945 5.015l-.066.004-.066-.004c-1.749-.122-10.881-.936-18.943-5.014l-.645-.327.142-.708c.08-.403.136-.8.166-1.179.16-1.982-.301-3.855-1.37-5.565-1.713-2.743-4.036-4.91-6.905-6.44zm28.13-39.939-.949.633c-4.27 2.127-14.657 8.025-19.77 17.208-4.577 8.219-7.252 16.702-8.439 21.027l-.472 1.717 1.572.837c2.669 1.423 4.83 3.439 6.424 5.991.921 1.473 1.317 3.084 1.181 4.787-.027.33-.076.677-.147 1.031l-.33 1.659 1.509.763c8.28 4.189 17.638 5.024 19.429 5.149l.155.011.155-.011c1.795-.126 11.162-.964 19.431-5.149l1.497-.757-.315-1.648c-.075-.391-.123-.726-.145-1.025-.133-1.733.262-3.351 1.173-4.809 1.988-3.183 4.591-5.015 6.424-5.991l1.573-.837-.472-1.718c-1.189-4.328-3.867-12.814-8.438-21.027-5.16-9.269-15.631-15.167-19.893-17.272z" fill="#fff" transform="matrix(3.59584 0 0 -3.59584 178.2640675104 176.6971056672)"/><path d="m0 0c-1.902 1.013-4.604 2.914-6.666 6.216-.984 1.576-1.411 3.325-1.268 5.196.025.324.076.682.155 1.095l.225 1.176-1.068.541c-8.163 4.131-17.416 4.957-19.188 5.082l-.111.007-.11-.007c-1.771-.124-11.02-.95-19.186-5.082l-1.077-.545.235-1.183c.076-.379.129-.75.157-1.105.149-1.844-.281-3.585-1.275-5.176-1.655-2.649-3.897-4.74-6.665-6.215l-1.121-.598.336-1.226c1.179-4.296 3.836-12.723 8.381-20.885 5.029-9.033 15.275-14.848 19.533-16.965l.677-.452.822.407c4.209 2.078 14.545 7.896 19.619 17.01 4.539 8.155 7.199 16.585 8.38 20.885l.337 1.226z" fill="#fcee1e" transform="matrix(3.59584 0 0 -3.59584 380.4002576864 173.3838986912)"/><path d="m0 0c-1.175 1.883-1.671 3.978-1.504 6.159.032.421.097.846.179 1.273-7.947 4.022-17.061 4.808-18.581 4.914-1.521-.106-10.635-.894-18.579-4.913.086-.433.148-.863.182-1.288.175-2.174-.325-4.247-1.511-6.146-2.172-3.477-4.983-5.56-7.266-6.776 1.138-4.147 3.758-12.488 8.237-20.533 4.873-8.752 15.041-14.429 18.937-16.357.001-.001.002-.001.003-.002 3.887 1.92 14.047 7.581 18.934 16.359 4.477 8.043 7.097 16.385 8.237 20.533-2.283 1.215-5.095 3.299-7.268 6.777" fill="#1f4694" transform="matrix(3.59584 0 0 -3.59584 351.5806788384 154.0598545312)"/><g clip-path="url(#a)" fill="#263470" transform="matrix(3.59584 0 0 -3.59584 101.6255700064 378.3773433312)"><path d="m21.409 12.883h11.273v77.526h-11.273z"/><path d="m43.955 12.883h11.273v77.526h-11.273z"/><path d="m66.502 12.883h11.273v77.526h-11.273z"/></g><path d="m0 0c-.872-.395-1.304-.604-2.158-1.048-.196-.102-.386-.147-.572-.134s-.312.078-.377.2c-.192.354-.288.53-.48.884.489.494.739.737 1.249 1.215.223-.45.336-.676.559-1.126.292.145.438.216.731.355-.388.818-.582 1.227-.97 2.045.222.328.335.491.565.816-1.087-.934-1.61-1.419-2.613-2.42-.815 1.503-1.223 2.255-2.037 3.758-.157.029-.235.044-.393.072 1.415.778 2.134 1.137 3.591 1.797.232.105.45.148.655.129.204-.018.333-.091.388-.218.159-.369.239-.554.398-.923-.577-.468-.86-.707-1.416-1.194-.216.455-.324.682-.539 1.136-.329-.157-.493-.236-.82-.398.402-.811.604-1.217 1.006-2.028-.223-.335-.332-.503-.547-.841 1.044.995 1.587 1.476 2.715 2.402.638-1.478.956-2.217 1.594-3.695.054-.126.029-.266-.074-.419-.103-.154-.255-.274-.455-.365" fill="#fff" transform="matrix(3.59584 0 0 -3.59584 213.4655431904 111.8227583072)"/><path d="m0 0c-.215.615-.323.923-.538 1.538-.227-.079-.34-.12-.566-.202.333-.919.5-1.378.834-2.297.876.609 1.324.903 2.241 1.468.532-1.75.798-2.625 1.33-4.374-.602-.184-.903-.28-1.5-.486-.436 1.271-.654 1.907-1.09 3.178-.289-.205-.431-.309-.715-.519.418-1.152.627-1.727 1.045-2.879-.595-.216-.891-.329-1.48-.567-1.017 2.518-1.525 3.778-2.541 6.296-.151.048-.226.072-.378.118 1.474.605 2.22.878 3.726 1.365.003-.01.005-.014.007-.024.129.013.271.004.427-.027.156-.032.255-.114.295-.245.209-.673.314-1.009.523-1.681-.711-.459-1.059-.695-1.744-1.181.049.208.073.311.124.519" fill="#fff" transform="matrix(3.59584 0 0 -3.59584 221.2228488224 90.6936024672)"/><path d="m0 0c-.611-.147-.915-.226-1.521-.395-.729 2.617-1.094 3.924-1.822 6.541-.144.064-.216.096-.36.16.817.233 1.228.34 2.053.539z" fill="#fff" transform="matrix(3.59584 0 0 -3.59584 242.1851576864 101.9550541792)"/><path d="m0 0 .269-2.5c.326.136.49.203.82.333-.081.902-.122 1.353-.203 2.254-.354-.031-.532-.049-.886-.087m2.799-2.295c-1.329-.476-1.98-.737-3.247-1.301.329.041.494.061.824.096.118-1.1.178-1.65.296-2.75-.622-.067-.932-.106-1.551-.194-.384 2.688-.576 4.032-.96 6.721-.133.083-.2.124-.334.206 1.551.23 2.33.316 3.892.429.248.018.452-.022.61-.119.158-.096.264-.205.319-.326.06-1.105.091-1.657.151-2.762" fill="#fff" transform="matrix(3.59584 0 0 -3.59584 260.3308450784 75.9132617312)"/><path d="m0 0c-.356.007-.534.009-.889.011-.005-1.197-.007-1.796-.011-2.992.336.089.504.132.842.215.023 1.107.035 1.66.058 2.766m1.792.183c-.146-2.611-.219-3.917-.364-6.528-.624.034-.935.047-1.559.06.023 1.106.034 1.659.057 2.765-.666-.187-.996-.287-1.649-.497.327.005.492.006.82.004-.004-.905-.005-1.358-.009-2.263-.624.003-.936-.002-1.56-.021-.085 2.714-.127 4.071-.212 6.786-.123.096-.185.145-.309.241 1.564.058 2.347.058 3.911-.002.249-.01.447-.072.593-.185.147-.113.24-.233.281-.36" fill="#fff" transform="matrix(3.59584 0 0 -3.59584 283.8077248544 74.9021115232)"/><path d="m0 0c-.694-.111-1.039-.173-1.723-.309.332-.032.498-.05.829-.087-.136-1.2-.206-1.799-.342-2.999-.621.071-.933.102-1.556.151.216 2.707.323 4.061.538 6.768-.111.11-.168.165-.28.274.841-.062 1.261-.101 2.098-.197-.137-1.2-.206-1.799-.343-2.998.7.122 1.052.177 1.763.274-.34.051-.51.075-.852.12.132.998.198 1.496.33 2.493.717-.094 1.075-.148 1.789-.268-.466-2.778-.699-4.166-1.166-6.944-.617.103-.927.15-1.546.232.185 1.396.276 2.094.461 3.49" fill="#fff" transform="matrix(3.59584 0 0 -3.59584 302.7560037344 86.3077564192)"/><path d="m0 0c-.348.086-.521.127-.87.207-.268-1.167-.401-1.75-.668-2.917.349.013.523.018.874.025.266 1.074.398 1.611.664 2.685m1.802-.219c-.717-2.515-1.074-3.773-1.791-6.288-.606.173-.91.253-1.52.404l.664 2.686c-.696-.036-1.042-.06-1.727-.122.322-.067.483-.103.804-.176-.202-.883-.302-1.324-.504-2.206-.613.14-.919.204-1.535.322.513 2.667.769 4.001 1.283 6.668-.1.121-.15.182-.25.303 1.544-.287 2.312-.46 3.836-.865.242-.065.423-.17.542-.312.121-.143.185-.281.198-.414" fill="#fff" transform="matrix(3.59584 0 0 -3.59584 324.0850882784 80.2325847392)"/><path d="m0 0c-.597.208-.896.308-1.499.495.806 2.593 1.208 3.89 2.015 6.484-.086.132-.13.198-.217.33 1.513-.46 2.263-.72 3.744-1.298.235-.092.418-.218.547-.377s.167-.302.115-.429c-.993-2.42-1.49-3.63-2.482-6.049-.588.241-.884.356-1.478.576.871 2.359 1.308 3.538 2.179 5.897-.677.25-1.018.37-1.701.595.31-.208.464-.313.769-.527-.797-2.279-1.195-3.418-1.992-5.697" fill="#fff" transform="matrix(3.59584 0 0 -3.59584 333.1764505504 106.5009151072)"/><path d="m0 0c-.199.092-.339.213-.419.364-.081.151-.116.293-.105.424.969 2.21 1.454 3.316 2.423 5.526.056.126.185.199.39.216.204.017.423-.027.654-.133 1.006-.463 1.505-.709 2.492-1.229.226-.119.396-.266.508-.44.113-.173.135-.321.069-.441-.195-.353-.291-.529-.485-.882-.731.173-1.095.251-1.823.392.227.449.34.674.567 1.123-.327.164-.491.245-.819.403-.962-1.995-1.442-2.993-2.403-4.988.586-.281.878-.426 1.456-.729-.241.241-.364.361-.611.598.407.809.611 1.213 1.018 2.021-.234.044-.351.066-.586.106.133.271.199.406.331.677.95-.167 1.428-.263 2.386-.484-.873-1.587-1.309-2.38-2.181-3.967-1.129.621-1.702.909-2.862 1.443" fill="#fff" transform="matrix(3.59584 0 0 -3.59584 347.3318342944 112.2193794592)"/><path d="m0 0c0 .495.134.873.4 1.135.231.23.534.345.91.345.345 0 .639-.129.882-.387.244-.259.365-.561.365-.905 0-.356-.079-.7-.238-1.031-.086-.183-.287-.499-.605-.947-.086-.122-.214-.313-.383-.571l-.142-.213c-.092-.139-.162-.249-.209-.329-.022-.041-.033-.067-.033-.075h1.547v-.772h-2.507v.723c0 .017.058.113.173.289.052.08.113.169.18.266l.205.296c.12.163.308.426.564.788.242.339.423.646.543.921.097.225.146.435.146.63 0 .158-.045.293-.133.404-.098.117-.223.175-.376.175-.22 0-.375-.126-.467-.379-.03-.084-.046-.184-.046-.301v-.2h-.776z" fill="#231f20" transform="matrix(3.59584 0 0 -3.59584 161.7598810784 128.2496341792)"/><path d="m0 0c0 .125-.044.232-.133.321s-.196.134-.321.134c-.126 0-.232-.045-.319-.134-.088-.089-.131-.196-.131-.321v-2.857c0-.125.043-.232.131-.322.087-.089.193-.133.319-.133.125 0 .232.044.321.133.089.09.133.197.133.322zm.818-2.87c0-.347-.122-.642-.367-.884s-.538-.363-.881-.363c-.347 0-.642.121-.885.365-.244.243-.366.537-.366.882v2.853c0 .348.122.643.368.887.244.243.539.365.883.365.348 0 .643-.123.885-.367.242-.245.363-.54.363-.885z" fill="#231f20" transform="matrix(3.59584 0 0 -3.59584 179.3367065824 127.1399579552)"/><path d="m0 0c0 .495.134.873.4 1.135.231.23.534.345.91.345.344 0 .638-.129.882-.387.244-.259.365-.561.365-.905 0-.356-.079-.7-.238-1.031-.087-.183-.288-.499-.605-.947-.086-.122-.214-.313-.384-.571l-.142-.213c-.091-.139-.161-.249-.209-.329-.021-.041-.032-.067-.032-.075h1.547v-.772h-2.507v.723c0 .017.058.113.172.289.053.08.113.169.181.266l.205.296c.119.163.308.426.563.788.243.339.424.646.543.921.098.225.147.435.147.63 0 .158-.045.293-.134.404-.098.117-.223.175-.375.175-.221 0-.376-.126-.468-.379-.03-.084-.046-.184-.046-.301v-.2h-.775z" fill="#231f20" transform="matrix(3.59584 0 0 -3.59584 377.6681384544 128.2496341792)"/><path d="m0 0c0 .125-.044.232-.133.321s-.196.134-.321.134-.232-.045-.319-.134c-.088-.089-.131-.196-.131-.321v-2.857c0-.125.043-.232.131-.322.087-.089.194-.133.319-.133s.232.044.321.133c.089.09.133.197.133.322zm.818-2.87c0-.347-.123-.642-.367-.884-.245-.242-.538-.363-.881-.363-.346 0-.642.121-.885.365-.244.243-.366.537-.366.882v2.853c0 .348.122.643.368.887.245.243.54.365.883.365.349 0 .643-.123.885-.367.242-.245.363-.54.363-.885z" fill="#231f20" transform="matrix(3.59584 0 0 -3.59584 395.2435256224 127.1399579552)"/><path d="m0 0 5.636 3.068v5.784l-5.636-1.557-5.636 1.557v-5.784z" fill="#fcee1e" transform="matrix(3.59584 0 0 -3.59584 280.0169903264 314.2131743712)"/><path d="m0 0v-1.044h1.829v-.734h-1.829v-1.44h-.915v3.952h2.987v-.734z" fill="#263470" transform="matrix(3.59584 0 0 -3.59584 271.0676637344 294.5205566112)"/><path d="m0 0c0 1.191.914 2.044 2.145 2.044.684 0 1.253-.248 1.626-.7l-.587-.542c-.265.304-.599.463-.994.463-.739 0-1.264-.52-1.264-1.265s.525-1.265 1.264-1.265c.395 0 .729.159.994.469l.587-.542c-.373-.457-.942-.706-1.631-.706-1.226 0-2.14.853-2.14 2.044" fill="#263470" transform="matrix(3.59584 0 0 -3.59584 279.7185356064 298.9873090592)"/><g fill="#fff"><path d="m0 0c-.007 0-.015.001-.022.002-.024-.054-.051-.107-.073-.162-.156-.4-.175-.817-.155-1.238.013-.286.135-.51.367-.675.018-.014.033-.03.051-.044.657-.526 1.675-.443 2.232.305.072.095.104.233.119.355.032.27-.11.483-.275.678-.223.262-.454.518-.678.781-.06.07-.124.154-.042.25.05.06.143.029.241-.069.005-.005.01-.011.015-.017.346-.39.693-.778 1.034-1.172.036-.04.053-.107.056-.162.008-.141.002-.28.002-.453.271.291.52.555.762.824.015.018-.004.09-.029.118-.417.473-.843.937-1.253 1.414-.384.447-.941.434-1.379.118-.354-.256-.374-.822-.2-1.085.07-.107.134-.218.214-.317.162-.201.34-.39.499-.593.18-.227.1-.471-.181-.531-.408-.086-.78.001-1.061.327-.256.297-.305.659-.277 1.035.008.104.022.207.033.311" transform="matrix(3.59584 0 0 -3.59584 287.0698709024 267.6463272032)"/><path d="m0 0c-.027.011-.054.023-.083.032-.183.055-.298.221-.291.419.009.204.134.339.357.385.164.033.351-.064.428-.223.11-.226-.002-.497-.24-.578-.028-.01-.054-.023-.081-.035z" transform="matrix(3.59584 0 0 -3.59584 289.3715680864 280.6111283232)"/><path d="m0 0c-.038.015-.076.029-.113.044-.186.077-.283.281-.236.495.038.172.23.316.41.307.209-.012.381-.172.402-.372.02-.2-.103-.386-.291-.442-.027-.009-.054-.021-.082-.032z" transform="matrix(3.59584 0 0 -3.59584 293.0148731744 280.6111283232)"/><path d="m0 0c.268.188.524.369.79.557.072-.109.139-.207.203-.308.364-.563.726-1.129 1.093-1.69.047-.073.039-.112-.02-.169-.262-.257-.523-.516-.781-.779-.059-.06-.12-.086-.207-.086-1.451.003-2.903.001-4.355.005-.116 0-.153-.032-.163-.147-.028-.302-.199-.528-.423-.716-.226-.189-.478-.323-.777-.349-.062-.006-.125-.001-.192.012.203.168.36.362.492.583.14.235.204.487.202.759-.003.496-.057.985-.147 1.473-.009.049.011.121.044.158.201.226.411.447.617.67.02-.011.039-.022.059-.032.057-.492.115-.984.173-1.487h.529c.187 0 .375-.006.562.003.066.003.139.029.192.068.257.193.51.392.778.6.075-.115.146-.223.218-.331l.079-.123c.161-.248.168-.251.49-.204-.02.039-.037.074-.058.106-.129.202-.262.403-.388.607-.018.028-.022.095-.005.109.229.18.465.354.707.536.149-.239.292-.467.434-.695.125-.2.247-.402.378-.6.026-.038.085-.067.132-.073.099-.011.199-.003.333-.003-.338.527-.659 1.03-.989 1.546" transform="matrix(3.59584 0 0 -3.59584 317.5327486304 265.6132392672)"/><path d="m0 0c-.011-.104-.025-.207-.033-.311-.028-.376.021-.738.277-1.035.281-.326.653-.413 1.061-.327.281.06.361.304.181.531-.159.203-.337.392-.499.593-.08.099-.144.21-.214.317-.174.263-.154.829.2 1.085.438.316.995.329 1.379-.118.41-.477.836-.941 1.253-1.414.025-.028.044-.1.029-.118-.242-.269-.491-.533-.762-.824 0 .173.006.312-.002.453-.003.055-.02.122-.056.162-.341.394-.688.782-1.034 1.172-.005.006-.01.012-.015.017-.098.098-.191.129-.241.069-.082-.096-.018-.18.042-.25.224-.263.455-.519.678-.781.165-.195.307-.408.275-.678-.015-.122-.047-.26-.119-.355-.557-.748-1.575-.831-2.232-.305-.018.014-.033.03-.051.044-.232.165-.354.389-.367.675-.02.421-.001.838.155 1.238.022.055.049.108.073.162.007-.001.015-.002.022-.002" transform="matrix(3.59584 0 0 -3.59584 287.0698709024 267.6463272032)"/><path d="m0 0c.162.017.294.147.334.331.037.168-.052.351-.216.441-.049.028-.099.05-.149.075h-.09c-.023-.011-.046-.024-.07-.032-.239-.078-.36-.347-.26-.581.075-.174.232-.256.451-.234" transform="matrix(3.59584 0 0 -3.59584 276.6318665504 263.0112894432)"/><path d="m0 0c.191.002.373.148.404.327.039.224-.073.418-.28.486-.024.009-.047.022-.069.033h-.113c-.023-.011-.045-.025-.068-.033-.203-.069-.314-.252-.281-.465.03-.198.208-.349.407-.348" transform="matrix(3.59584 0 0 -3.59584 280.0482741344 263.0076936032)"/><path d="m0 0c.19.002.372.148.404.327.039.223-.074.418-.281.486-.024.008-.046.022-.069.033h-.113c-.022-.011-.044-.025-.068-.033-.202-.069-.313-.252-.281-.465.031-.198.208-.349.408-.348" transform="matrix(3.59584 0 0 -3.59584 278.1345680864 259.5276396512)"/><path d="m0 0c.162.017.294.147.334.331.037.168-.052.351-.216.441-.049.028-.099.05-.149.075h-.09c-.023-.011-.046-.024-.069-.032-.24-.078-.361-.347-.261-.581.076-.174.232-.256.451-.234" transform="matrix(3.59584 0 0 -3.59584 245.8985816544 263.0112894432)"/><path d="m0 0c.19.002.373.148.404.327.039.224-.074.418-.281.486-.024.009-.046.022-.069.033h-.113c-.022-.011-.044-.025-.068-.033-.202-.069-.313-.252-.281-.465.031-.198.208-.349.408-.348" transform="matrix(3.59584 0 0 -3.59584 249.3171467424 263.0076936032)"/><path d="m0 0c.19.002.373.148.404.327.039.223-.073.418-.281.486-.023.008-.046.022-.069.033h-.112c-.023-.011-.045-.025-.069-.033-.202-.069-.313-.252-.281-.465.031-.198.208-.349.408-.348" transform="matrix(3.59584 0 0 -3.59584 247.4012831904 259.5276396512)"/><path d="m0 0c-.153 0-.261.117-.261.285.001.18.14.329.31.331s.299-.117.3-.278c0-.174-.168-.337-.349-.338m-4.956.081c-.087.085-.107.271-.031.361.052.064.158.074.219-.003.102-.129.185-.274.295-.441-.19.016-.349-.047-.483.083m6.098.796c-.023.358-.045.717-.069 1.1-.041-.03-.066-.045-.089-.063-.178-.137-.355-.276-.535-.411-.033-.025-.081-.052-.118-.048-.366.043-.688-.068-.986-.269-.281-.19-.423-.459-.439-.794-.007-.126-.001-.253-.001-.392-.119 0-.227-.005-.334.001-.021.001-.039.001-.054-.002h-.006c-.25-.053-.402.061-.496.282-.02.048-.056.089-.084.133-.376.583-.737 1.176-1.132 1.745-.343.494-.808.782-1.445.703-.428-.052-.893-.403-1.044-.901.031.019.056.034.08.05.029.017.057.037.087.052.384.191.77.222 1.119-.057.187-.151.358-.334.494-.532.303-.438.578-.894.864-1.343.023-.036.042-.075.065-.117-.248-.042-.465-.044-.565.229-.006.018-.02.031-.031.047-.271.414-.541.828-.813 1.242-.029.044-.047.103-.127.08-.359-.099-.705-.224-1.019-.433-.322-.215-.461-.513-.433-.891.007-.093.047-.184.075-.288h-2.656c-.057 0-.115-.008-.169.003-.031.007-.073.04-.079.067-.035.191.202.465.396.466.203.002.405 0 .608.001.283.001.496.175.543.455.019.113.032.233.02.346-.02.189-.063.376-.096.563-.079-.115-.121-.226-.175-.332-.055-.104-.136-.175-.267-.173-.298.002-.597.003-.896-.002-.114-.003-.233-.015-.343-.047-.29-.085-.537-.232-.6-.557-.047-.241-.023-.478.116-.692.022-.034.039-.07.059-.104-.017-.013-.025-.022-.035-.025-.021-.006-.043-.009-.065-.014-.26-.049-.507-.133-.729-.281-.173-.115-.296-.27-.326-.478-.021-.146-.03-.299-.018-.447.03-.358.176-.655.508-.835.431-.232.886-.277 1.376-.192-.345.045-.612.165-.802.36-.088.091-.156.19-.158.325-.007.353.303.666.663.666h7.44c.03 0 .06.003.09 0 .007-.001.012 0 .018 0 .01-.001.021-.002.034-.002.54.004 1.08.001 1.62.004.044.001.098.02.129.049.284.273.564.55.842.829.027.026.041.078.039.116-.013.27-.034.538-.051.808" transform="matrix(3.59584 0 0 -3.59584 277.9731148704 271.1720483232)"/></g><path d="m0-8.053v8.073l-.004-.01-.005.01v-.02l-2.483-5.269c-.236-.5-.087-1.15.323-1.41l2.16-1.368v-.006l.005.003z" fill="#fcee1e" transform="matrix(3.59584 0 0 -3.59584 279.9184643104 152.5075304032)"/><path d="m0 0-2.483 5.269v-8.047l2.16 1.368c.41.259.559.91.323 1.41" fill="#f8b218" transform="matrix(3.59584 0 0 -3.59584 288.8483733664 171.4525730272)"/><path d="m0 0-1.105-.551c-.069-.034-.151-.034-.221 0l-1.105.551c-.079.039-.128.117-.128.203v5.39c0 .172.19.282.349.202l.875-.439c.069-.035.151-.035.22-.001l.896.443c.158.079.347-.031.347-.203v-5.392c0-.086-.049-.164-.128-.203" fill="#fcee1e" transform="matrix(3.59584 0 0 -3.59584 284.3291216544 202.6615875552)"/><path d="m0 0-1.334.669v-.437l1.344-.669v.442z" fill="#263470" transform="matrix(3.59584 0 0 -3.59584 278.8228118624 187.1473358752)"/><path d="m0 0-1.334.669v-.437l1.344-.669v.442z" fill="#263470" transform="matrix(3.59584 0 0 -3.59584 278.8228118624 190.0761475552)"/><path d="m0 0-1.334-.669v.437l1.344.669v-.442z" fill="#263470" transform="matrix(3.59584 0 0 -3.59584 285.7635022304 189.2419126752)"/><path d="m0 0-1.334-.669v.437l1.344.669v-.442z" fill="#263470" transform="matrix(3.59584 0 0 -3.59584 285.7635022304 186.3134605792)"/><path d="m0 0 1.357.676c.085.042.185.042.27 0l1.357-.676c.097-.048.158-.145.158-.249v-.255c0-.21-.234-.346-.429-.248l-1.074.539c-.085.043-.185.043-.27.001l-1.1-.544c-.194-.097-.427.039-.427.249v.258c0 .104.061.201.158.249" fill="#fff" transform="matrix(3.59584 0 0 -3.59584 274.3262139424 248.1255905952)"/><path d="m0 0-1.357-.676c-.084-.043-.185-.043-.27 0l-1.357.676c-.097.048-.158.144-.158.248v.255c0 .211.234.347.429.249l1.074-.539c.085-.043.185-.043.27-.001l1.1.544c.195.096.427-.039.427-.249v-.259c0-.104-.061-.2-.158-.248" fill="#fff" transform="matrix(3.59584 0 0 -3.59584 285.0558409184 250.8541139872)"/><path d="m0 0 1.105.55c.069.035.151.035.22 0l1.106-.55c.078-.04.128-.118.128-.203v-2.972c0-.172-.19-.282-.349-.202l-.875.439c-.069.035-.151.035-.22 0l-.896-.442c-.158-.079-.347.031-.347.203v2.974c0 .085.049.163.128.203" fill="#fcee1e" transform="matrix(3.59584 0 0 -3.59584 275.3219020384 233.1100819232)"/><path d="m0 0-1.334-.67v.438l1.344.669v-.442z" fill="#263470" transform="matrix(3.59584 0 0 -3.59584 278.6491327904 242.4053283232)"/><path d="m0 0-1.334-.67v.438l1.344.669v-.443z" fill="#263470" transform="matrix(3.59584 0 0 -3.59584 278.6491327904 239.4768762272)"/><path d="m0 0-1.334.67v-.438l1.344-.669v.442z" fill="#263470" transform="matrix(3.59584 0 0 -3.59584 285.5880252384 240.3125494432)"/><path d="m0 0-1.334.67v-.438l1.344-.669v.442z" fill="#263470" transform="matrix(3.59584 0 0 -3.59584 285.5880252384 243.2410015392)"/><path d="m0 0c.195-.085.428-.059.597.068.968.731 1.996 1.471 3.096 3.128.217.326.015.761-.378.848-1.48.326-4.544 1.585-8.085 3.478-1.16-.98-2.461-1.964-3.916-2.941 2.456-1.565 5.323-3.107 8.686-4.581" fill="#263470" transform="matrix(3.59584 0 0 -3.59584 313.6873573344 245.1723272032)"/><path d="m0 0c2.402-1.484 5.086-2.878 7.99-4.149.031-.014.077-.011.104.009l.11.082c.915.689 1.861 1.401 2.875 2.927-.002.049-.022.086-.077.098-1.627.359-4.71 1.674-7.918 3.37-.956-.794-1.99-1.578-3.084-2.337m8.034-5.138c-.148 0-.297.031-.437.092-3.206 1.403-6.151 2.956-8.753 4.615l-.631.403.621.417c1.395.937 2.698 1.916 3.874 2.909l.253.215.293-.158c3.682-1.97 6.651-3.143 7.959-3.432.352-.077.642-.32.775-.65.129-.318.095-.663-.094-.946-1.106-1.665-2.167-2.463-3.102-3.167l-.109-.082c-.189-.142-.418-.216-.649-.216" fill="#263470" transform="matrix(3.59584 0 0 -3.59584 285.6667741344 228.6364973792)"/><path d="m0 0c-.215.386-.827.178-.728-.249.782-3.366 2.941-8.189 8.642-13.126 1.234.674 2.521 1.423 3.811 2.235-4.757 3.105-9.424 7.015-11.725 11.14" fill="#263470" transform="matrix(3.59584 0 0 -3.59584 235.2743127904 166.7646764192)"/><path d="m0 0c.855-3.084 2.959-7.443 8.048-11.932.956.527 1.908 1.081 2.84 1.654-3.726 2.494-8.348 6.149-10.888 10.278m7.92-13.118-.257.222c-5.886 5.098-8.033 10.093-8.797 13.385-.099.426.119.833.53.991.42.163.884-.003 1.101-.393 2.481-4.446 7.658-8.419 11.566-10.968l.639-.417-.647-.407c-1.249-.786-2.54-1.544-3.837-2.251z" fill="#263470" transform="matrix(3.59584 0 0 -3.59584 235.0233231584 169.8161062432)"/><path d="m0 0c4.073.899 20.141 8.832 25.122 17.761.215.386.826.178.728-.248-1.235-5.316-5.895-14.269-22.536-21.557-.194-.085-.427-.059-.595.068-.97.731-1.996 1.471-3.097 3.128-.217.327-.015.761.378.848" fill="#263470" transform="matrix(3.59584 0 0 -3.59584 234.2980422304 230.6311098272)"/><path d="m0 0c-5.367-8.717-20.95-16.483-25.089-17.397-.055-.012-.074-.049-.078-.061 1.015-1.563 1.962-2.275 2.876-2.963l.11-.082c.026-.021.071-.025.105-.01 7.05 3.088 19.146 9.812 22.076 20.513m-22.12-21.501c-.232 0-.461.073-.651.216l-.108.081c-.935.704-1.996 1.502-3.102 3.167-.188.284-.223.628-.094.947.133.329.423.572.775.649 4.131.912 19.938 8.806 24.8 17.522.218.391.682.555 1.102.393.41-.159.627-.566.53-.99-2.676-11.527-15.444-18.665-22.816-21.894-.14-.061-.289-.091-.436-.091" fill="#263470" transform="matrix(3.59584 0 0 -3.59584 324.8927139424 169.7948907872)"/><path d="m0 0c.195-.085.428-.059.597.068.968.731 1.996 1.471 3.096 3.128.217.326.015.761-.378.848-1.48.326-4.544 1.585-8.085 3.478-1.16-.98-2.461-1.964-3.916-2.941 2.456-1.565 5.323-3.107 8.686-4.581" fill="#fff" transform="matrix(3.59584 0 0 -3.59584 313.6873573344 245.1723272032)"/><path d="m0 0c-.215.386-.827.178-.728-.249.782-3.366 2.941-8.189 8.642-13.126 1.234.674 2.521 1.423 3.811 2.235-4.757 3.105-9.424 7.015-11.725 11.14" fill="#fff" transform="matrix(3.59584 0 0 -3.59584 235.2743127904 166.7646764192)"/><path d="m0 0c4.073.899 20.141 8.832 25.122 17.761.215.386.826.178.728-.248-1.235-5.316-5.895-14.269-22.536-21.557-.194-.085-.427-.059-.595.068-.97.731-1.996 1.471-3.097 3.128-.217.327-.015.761.378.848" fill="#fff" transform="matrix(3.59584 0 0 -3.59584 234.2980422304 230.6311098272)"/><path d="m0 0c0 2.78-2.254 5.034-5.034 5.034s-5.034-2.254-5.034-5.034 2.254-5.034 5.034-5.034 5.034 2.254 5.034 5.034" fill="#fff" transform="matrix(3.59584 0 0 -3.59584 297.8469629664 130.9939792672)"/><path d="m0 0c-.038.02-.182.094-.184.097-.003.006-.003.021-.003.028-.002.021-.004.041-.007.061-.008.069-.222 1.936-.229 2.001-.002.018-.004.037-.007.055 0 .005-.004.015-.002.02s.012.01.015.014c.008.007.016.014.023.021.132-.273.235-.561.305-.856.071-.3.11-.608.113-.917.003-.174-.005-.35-.024-.524m-.404.041c-.012-.014-1.343-1.273-1.369-1.297-.037.017-1.54.725-1.594.75-.008.004-.007.003-.009.01-.005.017-.006.036-.009.053-.014.079-.317 1.857-.328 1.919-.001.005-.005.017-.003.022.003.009 1.394 1.392 1.402 1.391.017-.003 1.659-.648 1.663-.652.003-.005.002-.023.003-.029.007-.063.242-2.105.247-2.155.001-.008.002-.007-.003-.012m-1.694-2.989c-.027-.009-1.872-.626-1.896-.634-.008-.003-.023-.011-.033-.011-.005 0-.009.004-.013.007-.018.01-1.28.779-1.344.818-.013.008-.031.016-.043.026-.006.005-.005.004-.003.013.009.06.188 1.231.193 1.262.001.008 0 .03.006.037.002.004.014.006.018.008.02.008 1.746.755 1.761.751.015-.005.03-.014.043-.02.027-.014 1.511-.717 1.526-.725.008-.003.007-.001.007-.009 0-.016-.217-1.489-.222-1.523m-.371-.474c-.369-.175-.763-.297-1.166-.363-.116-.019-.233-.033-.35-.043.01.015.022.031.033.046.005.007.012.021.019.026.005.003.014.005.019.006.039.013.078.026.116.039.152.05.304.1.456.15.194.064.387.128.581.192.165.055.331.109.496.163l.151.05c.015.005.042.021.056.014.016-.007.031-.022.046-.031-.147-.092-.3-.176-.457-.249m-3.133.731c-.1-.006-1.16-.074-1.295-.083-.005 0-.015-.003-.019-.001-.005.003-.011.013-.015.018-.031.037-.98 1.142-.981 1.146-.002.007.002.019.003.025.003.022.148 1.126.165 1.254.001.005 0 .009.004.012.008.006.03.005.039.007.065.011 1.033.184 1.053.188.004 0 .012.003.016.002.006-.002.013-.014.017-.018.013-.013 1.111-1.161 1.193-1.246.013-.014.016-.013.013-.032-.008-.049-.156-1.027-.181-1.193-.004-.026-.008-.053-.012-.079m-1.507-.162c-.153.127-.296.264-.43.411-.128.14-.24.295-.343.453-.06.093-.117.187-.169.283.01-.002.014-.002.021-.009.007-.006.012-.014.018-.021.024-.029.049-.057.073-.085.083-.097.166-.195.249-.292.1-.117.2-.235.3-.352.085-.1.171-.201.256-.301.027-.03.053-.062.08-.093.009-.011.025-.023.031-.036.004-.008.003-.022.005-.031-.031.024-.061.049-.091.073m-1.216 3.882c.031.08.559 1.411.583 1.47.007.017.014.035.021.052.002.005.004.017.008.021.004.003.014.004.019.005.02.006 1.108.302 1.128.307.004.001.014.006.017.004.006-.002.011-.022.014-.027.01-.02.52-1.033.579-1.153.009-.015.005-.017-.002-.035-.019-.041-.681-1.585-.688-1.602-.002-.005-.005-.017-.009-.021-.003-.003-.013-.003-.017-.004-.021-.004-1.093-.204-1.101-.201-.004.002-.005.008-.007.012-.021.044-.534 1.148-.545 1.172m-.136.086c0-.001-.001-.002-.001-.002-.008-.007-.017-.014-.024-.02.08.42.225.827.427 1.204.056.104.116.206.18.305.008-.006-.009-.035-.011-.041-.014-.036-.028-.071-.043-.107l-.139-.353c-.056-.144-.114-.288-.17-.431-.049-.125-.098-.249-.147-.373-.024-.061-.048-.121-.072-.182m3.056 2.974c.022.025.044.049.066.074.029.002 2.148.19 2.151.188.006-.004.691-1.314.717-1.362.003-.007-1.332-1.306-1.372-1.347-.004-.004-.011-.014-.015-.016-.007-.002-1.918.151-1.931.155-.006.002-.005.002-.009.01-.01.019-.546 1.081-.582 1.154-.005.009-.01.019-.015.028-.001.004-.007.011-.007.015-.001.006.005.009.009.014.039.043.929 1.022.988 1.087m.172.387c.241.059.488.099.736.117s.497.016.745-.007c.138-.012.275-.032.412-.058-.01-.01-.012-.017-.024-.018-.013-.001-1.934-.161-1.941-.159-.003.001-.002 0-.004.001-.004.003-.009.013-.012.018-.008.01-.015.021-.023.031-.009.013-.018.026-.027.039.045.013.092.025.138.036m5.47-3.364c-.036.228-.091.452-.163.671-.071.216-.159.426-.263.628-.1.192-.214.377-.341.552-.13.181-.275.35-.431.509-.16.162-.333.313-.517.449-.18.135-.371.256-.57.363-.205.11-.419.204-.639.281s-.445.137-.675.179-.464.066-.698.072c-.236.006-.472-.006-.706-.036-.229-.029-.454-.075-.676-.137-.222-.063-.44-.142-.65-.237-.201-.091-.397-.197-.583-.316-.185-.12-.362-.253-.529-.398-.165-.144-.32-.301-.463-.468-.145-.17-.279-.351-.398-.541-.121-.194-.227-.396-.318-.606-.091-.211-.165-.429-.221-.651-.058-.228-.097-.461-.117-.695-.02-.235-.022-.473-.004-.709.017-.233.053-.466.107-.694.054-.223.125-.442.213-.653.089-.214.195-.419.317-.615.12-.195.255-.38.404-.553.151-.176.315-.34.491-.49.175-.149.362-.286.558-.406.191-.117.391-.22.597-.307.21-.089.427-.161.647-.218.224-.057.453-.097.683-.12.235-.024.473-.029.71-.017.234.013.466.044.695.092.227.048.451.113.668.195.212.08.418.177.616.287.198.111.389.236.569.375.182.141.354.294.513.461.154.161.296.333.425.515.128.181.242.373.342.572.103.204.189.417.258.636.069.218.121.442.155.669.033.221.05.444.05.667-.001.232-.019.465-.056.694" fill="#1f4694" transform="matrix(3.59584 0 0 -3.59584 294.9285792224 132.3600388832)"/></g></svg>