<svg clip-rule="evenodd" fill-rule="evenodd" stroke-linejoin="round" stroke-miterlimit="2" viewBox="0 0 560 400" xmlns="http://www.w3.org/2000/svg"><g transform="matrix(3.34915 0 0 3.34915 130 50)"><path d="m89.575 44.786v.001c0 24.57-20.218 44.788-44.787 44.788-24.57 0-44.788-20.218-44.788-44.788 0-24.569 20.217-44.786 44.786-44.787h.003c24.569 0 44.786 20.217 44.786 44.786" fill="#0d0606"/><path d="m70.051 24.383-.069-.64-.133-.612-.198-.584-.261-.546-.323-.514-.377-.471-.425-.431-.472-.391-.512-.354-.55-.32-.586-.284-.619-.259-.656-.232-.69-.207-.717-.181-.751-.164-.786-.142-.813-.123-.842-.107-.87-.09-.898-.074-.928-.061-.95-.049-.977-.036-1-.023-1.023-.014-1.056-.005-1.121.027-1.202.073-1.267.119-1.327.165-1.377.206-1.429.248-1.464.286-1.505.324-1.531.357-1.554.396-1.568.425-1.578.458-1.578.486-1.574.512-1.564.541-1.547.563-1.522.589-1.491.608-1.453.626-1.412.649-1.36.662-1.306.681-1.241.693-1.173.709-1.097.723-1.016.735-.93.748-.836.763-.736.779-.629.803-.516.827-1.007 2.255 14.74.084-.022.092-.124.707-.062.686.002.661.068.639.131.612.198.586.263.548.321.513.377.471.425.431.469.389.514.354.549.32.587.286.62.26.658.229.687.206.721.186.75.16.783.143.812.124.844.107.87.088.899.075.926.061.952.047.976.037 1.002.023 1.022.014 1.046.006 1.048-.006 1.033-.014 1.017-.023 1.002-.037.983-.047.968-.061.948-.075.931-.088.912-.107.893-.123.872-.14.855-.158.833-.181.812-.2.792-.221.769-.247.746-.273.722-.297.7-.324.678-.355.649-.38.623-.413.595-.444.567-.478.536-.511.506-.545.473-.579.437-.615.404-.647.366-.684.331-.719.286-.738 2.492-7.008.24-.743.185-.733.12-.707.065-.683zm-13.833 2.286-.025.194-.043.221-.064.247-.079.274-.105.307-1.971 5.547-.119.31-.114.282-.118.262-.122.238-.125.217-.13.202-.13.182-.136.164-.14.154-.143.141-.153.126-.159.118-.169.11-.183.1-.197.097-.21.086-.223.081-.244.076-.258.068-.276.06-.3.053-.314.048-.338.043-.354.034-.374.029-.397.026-.415.018-.436.015-.457.012-.478.007-.502.002-.52.003-.52-.003-.493-.002-.473-.007-.445-.012-.422-.015-.397-.018-.37-.026-.346-.029-.32-.034-.292-.041-.264-.044-.24-.052-.207-.054-.183-.061-.153-.06-.121-.061-.095-.057-.071-.053-.052-.05-.038-.047-.031-.044-.026-.059-.024-.069-.018-.091-.015-.116-.004-.142.006-.172.024-.2.038-.228.053-.254.074-.279.084-.291 1.959-5.507.121-.29.128-.285.133-.261.128-.24.134-.221.132-.201.14-.186.139-.166.144-.154.148-.141.151-.129.163-.115.169-.11.176-.099.194-.096.207-.086.22-.082.238-.072.255-.066.271-.061.293-.052.311-.049.326-.043.352-.033.371-.028.389-.027.413-.017.432-.016.455-.011.476-.006.497-.004h1.04l.5.004.474.006.446.011.426.016.399.017.375.024.353.031.325.032.297.041.273.047.245.053.217.051.185.062.159.06.128.061.1.061.074.055.053.046.039.047.027.044.025.049.02.06.017.084.012.108.001.136z" fill="#ffd300"/><path d="m52.579 18.521c-11.175 0-36.615 8.342-39.321 15.943l14.52.085c-2.705 7.604 4.708 9.05 15.885 9.05s19.619-1.446 22.319-9.05l2.482-6.978c2.704-7.602-4.71-9.05-15.885-9.05m4.298 9.743-1.977 5.562c-1.313 3.685-3.476 4.048-9.202 4.048-5.727 0-7.468-.363-6.324-4.048l1.977-5.562c1.462-3.654 3.464-4.014 9.189-4.014 5.729 0 7.636.36 6.337 4.014" fill="#0d0606"/><g fill-rule="nonzero"><path d="m44.786 87.281c-22.837 0-41.418-18.885-41.418-42.096 0-23.209 18.581-42.093 41.418-42.093 22.839 0 41.421 18.884 41.421 42.093 0 23.211-18.582 42.096-41.421 42.096m0-82.594c-21.971 0-39.847 18.166-39.847 40.498 0 22.329 17.876 40.498 39.847 40.498 21.973 0 39.849-18.169 39.849-40.498 0-22.332-17.876-40.498-39.849-40.498" fill="#ffd300"/><path d="m70.838 69.493.007-.037-.076.007c-1.511.13-3.051.251-4.578.356l-1.462.103-.311-.66.054.612-2.234.125c-1.471.087-2.966.159-4.445.22l-2.114.086-.079-1.301-.267 1.277-1.698.047c-2.788.076-5.617.118-8.401.118-1.088 0-2.193-.008-3.277-.017l-.053-.001.005.012-1.492-.032-.631-.005v-.006l-.652-.014c-4.295-.084-8.644-.269-12.935-.54l-.855-.054-.001.006-.742-.053-.629-.04.002-.004-.702-.053c-1.46-.107-2.936-.224-4.39-.351l-2.255-.196.134-1.011c-.742.514-1.628.782-2.531.768-.197-.001-.394-.012-.591-.033-2.766-.29-5.581-.627-8.358-.996-2.141-.107-3.84-1.908-3.822-4.052l-.002-.279.068-.272c.202-.812.407-1.605.606-2.382.335-1.301.651-2.533.931-3.721.446-1.817.789-3.658 1.029-5.514l.024-.225.073-.216c.283-.963.863-1.813 1.656-2.428.791-.556 1.74-.844 2.706-.82l7.686.004c.971-.032 1.923.271 2.697.857l.033-.833 8.364.004v.001h6.683l-.043 2.238c-.067 3.443-.29 6.932-.585 11.099 1.577.034 3.156.064 4.715.084l1.655.025.163.647c.074-4.56.13-8.312.145-11.907l.011-2.186h16.614l9.857-.026c.979-.029 1.94.27 2.73.849.276.21.522.456.731.731.181-.254.394-.483.634-.681.783-.614 1.759-.934 2.753-.901l12.616-.007-.733 2.766c-.156.591-.287 1.119-.403 1.587l-.055.226c-.111.452-.207.895-.288 1.304l-2.119-.053.001.14c.774.052 1.523.296 2.179.709.482.313.9.715 1.231 1.184l.44-.017.405 1.75c.231.994.472 1.976.724 3.018.223.904.447 1.82.663 2.743l.064.26-.004.269c.02 2.142-1.672 3.943-3.811 4.059-.364.053-.727.104-1.091.158l.008.053-2.276.29c-2.302.291-4.629.562-6.929.802l.01.022-1.214.103z" fill="#0d0606"/><path d="m5.738 65.04c-1.261-.254-1.926-.929-1.943-1.956.516-2.072 1.114-4.048 1.598-5.946.505-1.869.849-3.779 1.028-5.708.113-.524.391-.999.792-1.356.412-.292.911-.438 1.417-.414h7.666c.502-.025.999.121 1.409.414.389.352.63.839.674 1.362-.115 1.931-.376 3.892-.699 6.007-.323 2.122-.728 4.48-1.128 7.291-.197 1.036-1.111 1.793-2.166 1.793-.143 0-.286-.014-.426-.042-2.745-.425-5.486-.906-8.222-1.445m17.73 2.641c-1.448-.152-2.896-.32-4.342-.506.902-7.473 1.955-12.426 1.959-17.489h4.046c-.01 5.063-.861 10.034-1.663 17.995m7.652-4.425c2.33.081 4.659.143 6.989.185.358 1.599.722 3.351 1.095 5.288-4.283-.119-8.563-.373-12.838-.763.705-8.234 1.421-13.217 1.425-18.28h4.046c.007 3.975-.314 7.909-.717 13.57m11.11-13.57h11.856c-.392 1.088-.767 2.171-1.133 3.292-2.214.001-4.429.003-6.645.005.005.953.009 1.936.018 2.973 2.24-.003 4.48-.008 6.72-.016.044 1.185.097 2.434.158 3.786-2.284.025-4.567.04-6.849.045.008 1.146.019 2.369.029 3.687 2.742-.024 5.482-.075 8.222-.154-.322 1.606-.65 3.363-.986 5.312-3.869.166-7.74.224-11.611.173.118-9.026.221-14.04.221-19.103m19.923 18.422c-1.466.125-2.935.235-4.407.329-.114-1.895-.224-3.615-.33-5.2-.223-3.38-.473-6.657-.602-10.041-.045-1.196-.07-2.351-.07-3.51 3.257-.008 6.513-.016 9.769-.026.505-.024 1.003.122 1.416.414.397.358.664.837.759 1.362.047 1.041.121 1.877.179 2.506.058.623.115 1.121.156 1.481.043.359.076.622.096.788.021.165.038.312.053.435-.006.479-.144.948-.4 1.352-.646.886-1.611.735-2.575.757 1.378 2.559 2.883 5.386 4.397 8.523-1.506.196-3.013.374-4.521.532-1.442-3.362-2.842-6.295-4.137-8.909-.095-1.039-.183-2.028-.26-2.977 1.009-.007 2.018-.015 3.028-.024-.099-1.02-.181-2-.239-2.96-1.236.003-2.473.005-3.709.005.247 4.089.817 8.59 1.397 15.163m11.824-5.707c2.288-.173 4.576-.364 6.866-.575-.212-1-.431-1.977-.638-2.936-1.929.083-3.856.162-5.779.235-1.107.121-2.155-.563-2.49-1.625-.046-.283-.085-.581-.122-.894-.202-1.729-.467-3.371-.559-5.17.04-.524.282-1.012.675-1.362.408-.294.905-.44 1.408-.414h9.772c-.238.714-.418 1.332-.565 1.855l-.349 1.385c-2.173.011-4.343.035-6.515.043.096.903.223 1.812.378 2.737 1.875-.032 3.753-.065 5.636-.1.539-.026 1.075.108 1.539.384 1.084.68 1.294 2.101 1.601 3.228.347 1.27.703 2.541 1.01 3.82-.014 1.027-.679 1.701-1.942 1.952-1.861.39-3.646.775-5.507 1.105-1.669.294-3.34.57-5.012.828.211-1.625.405-3.11.593-4.496m-65.178-.63c1.189.108 2.376.211 3.562.309.637-3.314 1.283-6.258 1.592-9.137-1.126-.003-2.253-.006-3.38-.01-.352 2.861-1.084 5.738-1.774 8.838" fill="#fff"/></g></g></svg>