<svg clip-rule="evenodd" fill-rule="evenodd" stroke-linejoin="round" stroke-miterlimit="2" viewBox="0 0 560 400" xmlns="http://www.w3.org/2000/svg"><g transform="matrix(.835688 0 0 .835688 105.406 100)"><path d="m208.924 0c112.801 0 208.925 51.687 208.92 119.661.009 67.975-96.115 119.663-208.92 119.663-112.795-.005-208.919-51.683-208.924-119.66.005-67.979 96.124-119.662 208.924-119.664" fill="#13214f"/><path d="m286.952 18.409-1.034 1.227.423.167c23.953 9.329 44.311 21.128 58.861 34.114 16.717 14.921 25.985 31.289 27.54 48.658 1.663 18.588-5.142 37.571-19.678 54.892-28.386 33.829-82.406 57.954-140.979 62.965-14.236 1.223-29.936 1.267-38.034 1.182l-.04.643c11.322 1.272 25.34 2.059 36.604 2.059 100.628-.004 182.508-48.446 182.503-107.998 0-21.229-10.213-41.634-29.541-59.016-18.568-16.703-44.949-30.188-76.292-38.998l-.203-.056z" fill="#f00" fill-rule="nonzero"/><path d="m216.646 137.988h-34.037l-.097.148c-8.551 12.953-14.741 22.591-14.8 22.688l-.408.631s16.008-2.976 17.272-3.207c-23.855 41.825-38.652 68.337-38.805 68.602l.535.368c41.63-51.013 65.949-82.975 66.183-83.298-.005.014 4.409-5.402 4.409-5.402l.427-.528z" fill="#f00" fill-rule="nonzero"/><g fill="#fff"><path d="m94.949 120.228c1.247-2.791 1.465-5.396-4.008-7.745-2.337-1.002-3.328-1.782-2.681-3.236.632-1.416 2.176-2.198 4.367-2.198 1.991 0 3.533.562 4.494 1.081l3.99-4.468c-1.331-.818-3.851-1.528-7.831-1.526-7.018 0-13.111 3.724-15.14 8.264-1.117 2.495-.938 5.324 3.404 7.185 2.555 1.078 3.281 1.899 2.697 3.2-.595 1.342-2.321 2.2-4.609 2.2-2.191 0-3.999-.638-4.745-1.193l-4.491 5.137c1.547 1.008 4.333 1.562 8.761 1.562 7.121.001 13.69-3.575 15.792-8.263"/><path d="m129.887 107.422 2.2-4.915-20.905.002-2.198 4.908 5.526.007-9.253 20.697h9.855l9.249-20.699z"/><path d="m152.758 115.052c-1.78 3.983-4.108 8.075-7.444 8.08-3.436 0-2.052-4.095-.271-8.077 1.782-3.985 4.129-8.116 7.511-8.113 3.285-.003 1.986 4.128.204 8.11m9.884.261c3.212-7.183 1.913-13.178-7.942-13.178-9.903 0-16.618 5.993-19.826 13.182-3.231 7.219-1.863 13.177 8.044 13.177 9.851-.002 16.497-5.958 19.724-13.181"/><path d="m191.145 110.699c-1.263 2.829-3.808 4.617-7.289 4.617-.45 0-.931-.039-1.11-.079l3.906-8.743c.45-.114.978-.188 1.679-.191 3.832.002 4.128 1.456 2.814 4.396m3.207 17.422-2.983-11.468.032-.075c3.897-.708 8.232-3.387 9.518-6.254 2.211-4.949-.818-8.188-10.826-8.19-4.529.002-8.577.6-11.826 1.53l-10.939 24.455h9.655l4.911-10.979.101-.002 1.658 10.98z"/><path d="m240.002 128.121 8.014-25.614-9.354.004-10.356 12.247c-1.263 1.486-2.265 2.828-2.265 2.828l-.095-.003s.252-1.339.387-2.863l.931-12.212h-9.404l-14.838 25.611 8.06.002c.773-1.486 6.792-12.512 6.792-12.512.908-1.708 1.528-3.2 1.528-3.2l.049.005s-.265 1.485-.333 3.195c0 0-.566 11.058-.517 12.51l4.526.002c1.564-1.714 10.671-12.509 10.671-12.509 1.371-1.637 2.477-3.201 2.477-3.201l.099-.002s-.764 1.602-1.335 3.203c0 0-3.875 11.241-4.346 12.507z"/><path d="m269.322 128.121 2.194-4.915h-8.46l2.531-5.656 7.269.002 2.144-4.806h-7.269l2.382-5.323 8.464.002 2.193-4.917h-18.316l-11.454 25.612z"/><path d="m304.631 110.699c-1.268 2.829-3.803 4.619-7.291 4.617-.45-.003-.926-.039-1.115-.075l3.916-8.749c.449-.112.979-.184 1.676-.189 3.834.004 4.13 1.456 2.814 4.396m3.208 17.422-2.984-11.468.036-.072c3.892-.708 8.23-3.387 9.511-6.257 2.211-4.949-.814-8.188-10.824-8.19-4.526.005-8.577.598-11.826 1.53l-10.936 24.453 9.655.004 4.908-10.983h.103l1.659 10.98z"/><path d="m341.232 120.228c1.254-2.794 1.465-5.398-4.001-7.745-2.337-1.002-3.33-1.782-2.683-3.236.634-1.416 2.18-2.198 4.369-2.198 1.991 0 3.529.559 4.499 1.081l3.987-4.468c-1.335-.818-3.848-1.526-7.83-1.526-7.026 0-13.112 3.724-15.148 8.264-1.115 2.492-.935 5.324 3.407 7.183 2.557 1.08 3.29 1.903 2.705 3.202-.597 1.342-2.328 2.2-4.616 2.2-2.193-.002-4.001-.638-4.747-1.193l-4.486 5.14c1.537 1.002 4.329 1.559 8.76 1.559 7.119.003 13.694-3.572 15.784-8.263"/><path d="m168.416 186.674c-21-3.115-26.037-15.849-19.202-27.437 1.431-2.418 3.357-5.434 4.906-7.756-1.764-.072-6.668 0-6.668 0s-10.455 15.87-20.939 31.642l-8.624 13.251 5.338.117s6.212-10.536 13.361-7.448c13.546 5.843 16.378 7.039 25.468 8.864 1.964-3.474 4.081-7.218 6.36-11.233" fill-rule="nonzero"/><path d="m162.638 94.437c-2.149-3.376-4.832-11.971-4.423-15.131 3.566-27.448 42.177-46.799 73.732-46.439 13.907.155 26.29 4.311 33.837 7.9 2.154 1.025 3.179 1.349 4.518 2.079 6.09 2.947 11.561-5.632 11.561-5.632l4.378.013-7.934 11.685c-10.141 15.247-19.737 29.111-19.737 29.111s.795-.007-6.392-.002c2.49-3.506 2.661-4.448 4.013-6.511 8.114-12.37 3.143-27.116-28.3-26.931-14.173.08-30.224 9.979-31.739 21.623-.971 7.464 1.799 13.328 6.671 18.571 1.056 1.128 5.838 8.587 7.066 9.664z" fill-rule="nonzero"/></g><path d="m246.381 54.361.233-.357-.404-.133c-4.989-1.614-11.201-2.405-18.46-2.362l-3.151.171-.072.133c-5.16 7.714-10.244 15.534-15.112 23.25-2.18 3.196-4.342 6.505-6.45 9.871 1.268 1.521 5.74 8.459 6.922 9.505l23.414-.005 16.218-21.15s-16.825 3.33-18.218 3.602c3.878-5.875 8.939-13.44 15.08-22.525" fill="#f00" fill-rule="nonzero"/><path d="m119.731 209.163c-43.864-16.645-70.287-42.104-74.406-71.695-2.664-19.164 3-38.604 16.395-56.215 24.85-32.692 72.795-55.933 131.54-63.765 18.168-2.423 37.555-2.823 56.123-1.18-3.964 5.42-7.987 11.019-11.952 16.671l-.103.146c7.659.643 14.68 2.386 20.465 4.387l15.175-22.254-.454-.109c-2.544-.606-5.507-1.209-9.066-1.849-17.845-3.304-36.337-4.978-54.96-4.98-100.627.003-182.503 48.446-182.503 107.997 0 19.425 8.833 38.561 25.545 55.331 16.737 16.797 40.535 30.368 68.829 39.245l.962.297-1.502-1.996z" fill="#f00" fill-rule="nonzero"/><path d="m224.225 137.988-4.675 5.744s-.706.929-2.094 2.735c2.508 4.105 3.713 8.698 3.007 14.143-1.847 14.189-20.565 24.99-35.114 26.77-3.07 3.852-6.338 7.939-9.788 12.227.973.045 1.962.08 2.96.099 34.175.719 75.573-19.045 79.766-51.328.49-3.788.297-7.23-.409-10.39z" fill="#fff" fill-rule="nonzero"/></g></svg>