<svg clip-rule="evenodd" fill-rule="evenodd" stroke-linejoin="round" stroke-miterlimit="2" viewBox="0 0 560 400" xmlns="http://www.w3.org/2000/svg"><g fill-rule="nonzero" transform="matrix(.829488 0 0 .829488 -54.1653 -158.639)"><path d="m369.06 406.081c-30.371 2.302-57.876 11.767-63.625 21.25-.288.514-.512.88-.718 1.437-.894 2.428-.421 5.732 1.656 8.875.519.789 1.233 1.688 1.844 2.313.533.543 1.11.998 1.687 1.406 6.657 5.97 21.908 11.645 43.281 15.063 12.011 1.927 26.017 3.187 41.657 3.187 6.724 0 13.278-.394 19.593-.812v-21.782c-6.152.01-12.052 0-18.906 0-12.967 0-24.168.173-31.906-.937-3.869-.558-6.898-.974-9.844-1.594-16.86-3.532-20.478-8.414-20.031-11.25 1.192-7.55 19.209-13.474 35.031-16.406zm288.157 6.812c-8.849.101-13.323 5.211-13.25 11.094.076 6.614 4.866 9.042 9.375 11.281 4.292 2.139 6.903 2.886 6.937 6.063.019 1.716-.91 4.317-5.75 4.375-3.336.034-7.713-1.21-11.5-4.344l1.25 7.656c4.335 1.966 8.044 2.445 11.063 2.407 10.669-.12 14.973-6.399 14.906-12.282-.087-7.444-6.36-10.092-11.281-12.375-3.144-1.422-4.909-2.19-4.938-4.843-.034-2.706 3.053-3.325 4.875-3.344 2.965-.034 6.534 1.712 8.313 2.75l-.594-6.781c-4.701-1.678-7.739-1.676-9.406-1.657zm-24.719.813c-1.192.154-1.57.219-2.094.219h-20.187c1.874 1.461 2.187 3.553 2.187 5.687v25.125c0 2.139-.313 4.227-2.187 5.688h24.843l1.125-7.938c-1.403 1.461-3.32 2.719-5.718 2.719h-8.157v-11.719h3.875c1.096 0 2.513.26 3.969 1.875v-7.094h-7.844v-9.125h4.813c1.254 0 3.246.258 5.375 2.344zm43.969 0-1.563 8.562c1.562-1.514 3.724-2.406 6.281-2.406h3.5v24.875c0 2.139-.313 4.227-2.187 5.688h14.281c-1.879-1.461-2.187-3.549-2.187-5.688v-24.875h3.5c1.513 0 4.144.099 4.875 2.031l1.281-8.187c-.414.154-.789.219-1.313.219h-24.781c-.519 0-1.269-.065-1.687-.219zm-170.719.219c1.879 1.461 2.187 3.553 2.187 5.687v25.125c0 2.139-.308 4.227-2.187 5.688h14.312c-1.879-1.461-2.187-3.549-2.187-5.688v-25.125c0-2.134.308-4.226 2.187-5.687zm23.906 0c3.177 2.816 3.281 6.207 3.281 7.875v22.937c0 2.139-.308 4.227-2.187 5.688h9.594c-1.88-1.461-2.188-3.549-2.188-5.688v-16.875l-.656-.844.281-.218.375.468 18.469 24.188h6.344v-31.844c0-2.134.313-4.226 2.187-5.687h-9.594c1.875 1.461 2.188 3.553 2.188 5.687v16.844l.656.844-.281.218-.844-1.125-16.875-22.468zm39.406 0c1.466 1.466 1.945 2.719 3.094 5.906l11.531 31.625h8.25l12.657-37.531h-9.438c1.202.889 2.094 1.885 2.094 3.187 0 .841-.356 2.359-.563 3.094l-6.25 19.781.375 1.063-.343.093-.219-.593-9.156-26.625z" fill="#008799"/><path d="m381.06 405.112c-5.354 0-9.687 5.101-9.687 11.344 0 6.219 4.333 11.281 9.687 11.281 5.33 0 9.688-5.062 9.688-11.281 0-6.243-4.358-11.344-9.688-11.344zm13.782.125v22.594c10.91 0 19.91-.322 27.312.375 26.728 2.514 34.813 8.984 34.813 13.031 0 6.45-16.405 13.222-35.125 16.688l-.282.437c28.175-1.946 51.715-9.844 61.375-18.187.313-.245.623-.582.907-.875 1.091-1.125 2.067-2.381 2.687-4.063.966-2.624.663-6.169-.937-8.25-.27-.355-.698-.978-1-1.281-10.272-11.502-46.345-20.281-89.75-20.469zm-279.157 7.563c-8.853.105-13.317 5.211-13.25 11.093.077 6.614 4.841 9.078 9.344 11.313 4.297 2.139 6.899 2.885 6.938 6.062.019 1.716-.879 4.318-5.719 4.375-3.331.039-7.744-1.21-11.531-4.343l1.25 7.656c4.335 1.966 8.044 2.44 11.062 2.406 10.675-.125 14.974-6.429 14.906-12.312-.086-7.445-6.359-10.061-11.281-12.344-3.138-1.423-4.877-2.191-4.906-4.844-.034-2.706 3.053-3.324 4.875-3.344 2.97-.033 6.534 1.681 8.312 2.719l-.593-6.75c-4.706-1.682-7.744-1.707-9.407-1.687zm56.438 1.031c1.735 1.533 2.7 2.782 4.219 5.969 1.518 3.186 9.781 20.656 9.781 20.656v4.25c0 2.139-.308 4.226-2.188 5.687h14.313c-1.884-1.461-2.188-3.548-2.188-5.687v-5.156l11-25.719h-9.187c1.139 1.307 1.531 2.094 1.531 3.344 0 .961-.579 2.151-.781 2.718l-5.563 13.063-8.781-19.125zm46.594 0c1.562 1.091 2.031 2.041 2.031 3.031 0 1.048-.183 1.945-.5 2.781l-8.406 24.313c-.995 2.821-1.953 4.347-3.938 6.437h11.094c-1.673-1.201-1.844-2.634-1.844-3.312 0-.99.272-1.748.531-2.531l1.657-5h11.312l1.531 4.593.125.282c.154.37.438 1.716.438 2.187 0 1.509-.767 2.945-2.281 3.781h16.656c-.937-.576-2.777-2.049-4.344-6.437l-10.812-30.125zm34.75 0-1.407 7.937c3.442-2.35 7.34-2.625 9.532-2.625 1.302 0 4.75.032 4.75.032l-16.844 31.218h30.844l1.593-8.093c-4.7 2.874-8.212 2.656-11.187 2.656h-6.938l16.688-31.125zm-120.625.062c1.461 1.462 1.913 2.72 3.062 5.907l11.531 31.562h8.219l9.906-29.344 2.719-8.125h-9.375c1.202.885 2.063 1.881 2.063 3.188 0 .836-.356 2.332-.563 3.062l-6.25 19.75.375 1.063-.344.125-.187-.625h-.031l-9.125-26.563zm92 8.813h.156l4 11.969h-8.063z" fill="#15569c"/></g></svg>