<svg clip-rule="evenodd" fill-rule="evenodd" stroke-linejoin="round" stroke-miterlimit="2" viewBox="0 0 560 400" xmlns="http://www.w3.org/2000/svg"><g fill-rule="nonzero"><path d="m425.083 183.81c-3.14 1.612-6.62 2.452-10.15 2.452-12.195 0-22.23-10.034-22.23-22.229 0-.003 0-.005 0-.007v-22.837c.006-7.994-4.068-15.462-10.793-19.784 3.141-1.612 6.62-2.453 10.15-2.453 12.195 0 22.23 10.035 22.23 22.23v.007 22.855c.002 6.208 2.478 12.167 6.877 16.548 1.183 1.214 2.496 2.293 3.916 3.218z" fill="#ff671f"/><path d="m384.429 163.401h-15.261c-.019 0-.039 0-.058 0-12.195 0-22.23-10.035-22.23-22.23s10.035-22.23 22.23-22.23c3.552 0 7.052.851 10.208 2.482-1.418.907-2.732 1.968-3.917 3.162-4.386 4.403-6.852 10.371-6.852 16.586 0 10.017 6.405 18.982 15.88 22.23z" fill="#ff9e1b"/><g fill="#eb3300"><path d="m460 164.044c-.013 12.196-10.052 22.225-22.248 22.225-3.523 0-6.995-.836-10.132-2.44 1.417-.909 2.731-1.969 3.917-3.163 4.391-4.406 6.86-10.38 6.86-16.601 0-10.008-6.39-18.97-15.851-22.232h15.261c12.17.03 22.173 10.041 22.193 22.211z"/><path d="m239.999 244.763h2.501v16.328h21.696v-16.328h2.556v35.726h-2.501v-16.805h-21.751v16.842h-2.501z"/><path d="m276.019 269.31c.284 5.158 4.526 9.288 9.69 9.432 3.241-.064 6.269-1.653 8.164-4.284l1.526 1.49c-2.239 3.136-5.837 5.034-9.69 5.111-6.758-.287-12.117-6.016-11.951-12.779 0-7.152 5.626-12.76 11.731-12.76 6.104 0 11.234 5.111 11.234 12.76v1.03zm0-2.298h18.387c.061-4.97-3.967-9.114-8.936-9.194-4.999.22-9.084 4.201-9.432 9.194z"/><path d="m319.394 265.21c.007-.123.01-.246.01-.369 0-3.795-3.092-6.932-6.887-6.986-2.788.09-5.402 1.394-7.152 3.567l-1.526-1.526c2.109-2.655 5.289-4.245 8.678-4.34h.014c5.043 0 9.193 4.151 9.193 9.194 0 .166-.004.331-.013.496v15.317h-2.298v-4.119c-2.025 2.892-5.351 4.606-8.881 4.578-4.854 0-8.164-3.328-8.164-6.876 0-3.549 2.813-6.693 7.355-7.355zm0 4.578v-2.28l-9.193 1.526c-3.825.607-5.627 2.556-5.627 5.112s2.28 4.578 5.958 4.578c.062.001.124.002.185.002 4.713 0 8.616-3.822 8.714-8.533v-.368z"/><path d="m330.298 244.763h2.298v35.763h-2.298z"/><path d="m343.628 247.871h2.041v8.163h5.627v2.299h-5.627v16.07c0 2.813 1.526 4.339 3.825 4.339 1.151-.024 2.284-.287 3.328-.772v2.299c-1.044.485-2.177.748-3.328.772-3.825 0-6.105-2.299-6.105-6.638v-16.07h-4.854v-2.299h3.328c.004.001.008.001.011.001 1.009 0 1.839-.83 1.839-1.839 0-.068-.004-.135-.011-.202v-6.105z"/><path d="m361.666 260.374c1.675-3.053 4.921-4.928 8.403-4.854h.034c5.437 0 9.91 4.473 9.91 9.91 0 .184-.005.368-.015.552v14.544h-2.298v-14.544c.011-.171.017-.343.017-.515 0-4.196-3.452-7.648-7.648-7.649-4.646.106-8.409 3.956-8.409 8.603 0 .111.002.222.006.333v13.772h-2.298v-35.763h2.298z"/><path d="m102.17 187.469c0-9.653 8.329-17.982 21.494-17.982 13.607 0 20.226 8.329 20.226 8.329l-7.907 8.348c-2.913-3.256-7.033-5.183-11.4-5.333-5.258 0-8.329 3.053-8.329 6.583 0 11.4 30.265 4.817 30.265 26.753 0 11.032-8.329 19.307-23.259 19.307-8.833.18-17.324-3.478-23.26-10.021l7.906-7.907c3.686 4.145 8.961 6.539 14.508 6.583 6.582 0 10.094-3.512 10.094-7.907-.036-11.326-30.338-4.799-30.338-26.753z"/><path d="m165.274 231.8-16.732-42.566h12.282l10.095 28.519 9.193-25.65c.606-1.697 2.225-2.836 4.027-2.832h9.194l-17.1 45.582c-3.954 10.535-9.194 15.794-16.677 15.794-2.549.022-5.08-.426-7.465-1.324v-10.536c1.385.602 2.883.903 4.394.883 3.249.135 6.249-1.801 7.465-4.817z"/><path d="m211.095 194.493c2.974-3.765 7.484-6.007 12.282-6.104 9.653 0 16.677 7.023 16.677 18.865v25.061h-7.575c-2.34 0-4.266-1.925-4.266-4.266v-19.508c.014-.197.021-.393.021-.59 0-4.489-3.693-8.183-8.182-8.183-.056 0-.112.001-.168.002-5.259 0-8.771 3.512-8.771 10.095v22.45h-11.86v-43.081h11.842z"/><path d="m259.048 214.682c.883 4.395 4.817 8.329 11.418 8.329 3.037 0 6.002-.931 8.495-2.666 1.845-1.225 4.356-.804 5.7.956l3.347 4.321c-4.883 4.844-11.51 7.534-18.387 7.465-.115.002-.23.003-.345.003-12.346 0-22.506-10.159-22.506-22.506 0-1.658.184-3.312.547-4.93 2.265-10.26 11.56-17.549 22.064-17.302.113-.002.225-.003.338-.003 11.509 0 20.979 9.471 20.979 20.98 0 .172-.002.345-.006.517.031 1.617-.117 3.233-.441 4.818h-31.203zm0-8.329h19.748c-.807-4.645-4.941-8.031-9.654-7.907-4.762-.005-8.948 3.266-10.094 7.888z"/><path d="m319.468 233.106c-12.288-.169-22.41-10.095-22.819-22.377.349-12.269 10.536-22.171 22.81-22.171 12.273 0 22.46 9.902 22.809 22.171-.409 12.275-10.519 22.198-22.8 22.377zm0-11.032c5.842-.181 10.549-5.036 10.549-10.88 0-.18-.005-.359-.013-.539.024-.293.036-.587.036-.881 0-5.8-4.772-10.572-10.572-10.572s-10.573 4.772-10.573 10.572c0 .294.013.588.037.881-.011.204-.017.408-.017.612 0 5.846 4.709 10.702 10.553 10.88z"/><path d="m373.048 201.958c-1.724-2.129-4.287-3.41-7.024-3.512-3.512 0-5.259 1.839-5.259 3.512-.037 6.105 19.637 3.052 19.637 17.486 0 7.465-6.104 13.607-17.118 13.607-12.282 0-17.559-7.907-17.559-7.907l6.582-6.582c2.217 2.864 5.577 4.624 9.194 4.817 3.953 0 5.7-1.839 5.7-3.953 0-6.583-19.748-3.328-19.748-17.56 0-6.582 7.024-13.606 16.677-13.606 5.706-.172 11.194 2.25 14.912 6.582z"/><path d="m386.102 224.96h-1.434v-.882h3.917v.882h-1.434v3.88h-1.049z"/><path d="m389.155 224.17h1.471l1.121 3.273 1.048-3.273h1.471v4.762h-.993v-3.383l-1.176 3.383h-.809l-1.177-3.346v3.346h-.993z"/></g></g></svg>