<svg clip-rule="evenodd" fill-rule="evenodd" stroke-linejoin="round" stroke-miterlimit="2" viewBox="0 0 560 400" xmlns="http://www.w3.org/2000/svg"><g fill="#e20074" fill-rule="nonzero"><path d="m37.634 188.347h12.292v12.293h-12.292z"/><path d="m81.92 188.347h12.293v12.293h-12.293z"/><path d="m119.913 188.347h12.293v12.293h-12.293z"/><path d="m157.906 188.347h12.292v12.293h-12.292z"/><path d="m218.163 179.527c-1.258-6.222-2.889-10.81-4.895-13.768-3.196-4.725-7.275-7.088-12.238-7.088-3.026 0-5.575.918-7.649 2.754-2.515 2.244-3.773 5.201-3.773 8.872 0 3.876 1.359 6.935 4.079 9.178 1.666 1.395 4.878 2.907 9.637 4.539 6.969 2.414 11.644 4.505 14.023 6.272 5.065 3.74 7.598 8.941 7.598 15.604 0 6.391-2.073 11.729-6.221 16.013-3.807 3.976-8.516 5.965-14.125 5.965-2.992 0-5.762-.544-8.312-1.632-1.089-.441-2.872-1.444-5.354-3.008-.816-.509-1.615-.764-2.396-.764-.918 0-1.75.475-2.498 1.428-.34.476-.799 1.241-1.377 2.296h-3.213v-25.244h3.315c1.224 6.391 2.907 11.269 5.048 14.635 3.604 5.677 8.346 8.514 14.226 8.514 3.434 0 6.289-1.001 8.567-3.008 2.89-2.584 4.334-6.135 4.334-10.657 0-5.371-2.243-9.348-6.731-11.932-1.428-.816-5.353-2.312-11.779-4.488-4.555-1.529-8.125-3.433-10.709-5.71-3.807-3.332-5.71-7.921-5.71-13.768 0-6.324 2.073-11.32 6.221-14.993 3.365-3.025 7.462-4.537 12.289-4.537 2.617 0 5.201.509 7.751 1.529 1.054.442 2.702 1.343 4.946 2.703.714.408 1.359.611 1.937.611 1.055 0 2.108-1.088 3.163-3.263h2.855v22.947z"/><path d="m227.75 178.15h21.774v3.213h-1.887c-2.822 0-4.233.765-4.233 2.294 0 .612.238 1.548.714 2.805l10.453 27.331 9.077-25.292c.646-1.767.968-3.144.968-4.13 0-2.006-1.529-3.008-4.588-3.008h-2.296v-3.213h17.133v3.213h-1.122c-1.088 0-1.988.365-2.702 1.096-.714.732-1.411 1.981-2.091 3.748l-17.284 46.504c-1.632 4.318-3.434 7.428-5.405 9.332-2.04 1.971-4.556 2.957-7.547 2.957-2.549 0-4.691-.731-6.425-2.193-2.108-1.801-3.161-4.046-3.161-6.731 0-1.666.475-3.059 1.428-4.181 1.019-1.258 2.414-1.887 4.182-1.887 1.938 0 3.417.714 4.435 2.142.612.85.918 1.818.918 2.907 0 1.564-.559 2.872-1.682 3.925-.68.647-1.58 1.054-2.702 1.225.781.884 1.852 1.327 3.213 1.327 2.006 0 3.756-.8 5.252-2.398 1.36-1.462 2.873-4.538 4.538-9.231l1.122-3.263-14.328-38.55c-1.123-2.923-2.074-4.742-2.855-5.456-.885-.85-2.227-1.275-4.029-1.275h-.867v-3.211z"/><path d="m309.183 178.15v15.196h-3.162c-1.7-8.805-5.761-13.207-12.186-13.207-2.312 0-4.182.697-5.609 2.091-1.496 1.428-2.244 3.178-2.244 5.253 0 2.379 1.037 4.266 3.111 5.66 1.02.679 2.873 1.462 5.557 2.346 5.78 1.836 9.655 3.485 11.627 4.945 3.806 2.89 5.711 6.681 5.711 11.371 0 4.76-1.649 8.652-4.947 11.678-2.787 2.515-6.373 3.772-10.76 3.772-2.481 0-4.775-.442-6.884-1.326-1.188-.475-2.769-1.325-4.742-2.548-.509-.307-.917-.46-1.223-.46-.68 0-1.343 1.089-1.99 3.264h-2.957v-17.695h2.957c1.19 4.318 2.483 7.48 3.876 9.485 2.754 3.943 6.409 5.915 10.963 5.915 2.618 0 4.692-.9 6.223-2.703 1.461-1.666 2.193-3.603 2.193-5.813 0-3.195-1.429-5.678-4.284-7.444-1.529-.918-4.607-2.125-9.231-3.62-4.146-1.36-7.215-3.178-9.203-5.456-1.989-2.277-2.983-5.133-2.983-8.567 0-4.045 1.428-7.308 4.284-9.79 2.584-2.243 5.847-3.365 9.79-3.365 3.502 0 6.8.935 9.893 2.805.612.373 1.122.56 1.529.56.68 0 1.19-.781 1.529-2.345h3.162z"/><path d="m329.733 181.72v28.912c0 3.706.256 6.441.765 8.211.781 2.685 2.43 4.028 4.947 4.028 2.31 0 3.959-1.173 4.945-3.519.951-2.244 1.429-4.979 1.429-8.209v-1.428h3.467v1.937c0 10.402-4.113 15.603-12.34 15.603-4.08 0-7.104-1.172-9.077-3.517-1.462-1.768-2.346-3.894-2.652-6.374-.203-1.87-.306-4.113-.306-6.73v-28.914h-7.546v-2.957c4.724-1.054 8.006-2.958 9.842-5.711 1.903-3.026 3.077-7.361 3.517-13.003h3.009v18.102h14.024v3.57z"/><path d="m386.743 201.811h-28.556c.034 6.731.731 11.71 2.091 14.94 1.904 4.556 5.167 6.834 9.79 6.834 3.604 0 6.613-1.429 9.026-4.284 1.327-1.565 2.651-3.722 3.978-6.477l3.111 1.633c-4.385 8.804-10.301 13.206-17.746 13.206-5.473 0-9.96-1.87-13.461-5.609-4.352-4.657-6.527-11.388-6.527-20.193 0-8.091 2.175-14.566 6.527-19.427 3.432-3.841 7.563-5.762 12.39-5.762 7.173 0 12.562 3.603 16.164 10.809 1.937 3.843 3.008 8.618 3.213 14.33zm-9.637-3.672c0-4.249-.46-7.752-1.377-10.505-1.667-4.861-4.284-7.292-7.854-7.292-4.011 0-6.85 2.992-8.516 8.974-.679 2.414-1.037 5.354-1.071 8.822h18.818z"/><path d="m447.064 226.185v-29.372c0-6.051-.422-9.961-1.273-11.728-1.155-2.312-2.957-3.468-5.404-3.468-2.925 0-5.29 1.649-7.091 4.946-.986 1.802-1.631 3.773-1.938 5.915-.238 1.564-.355 4.521-.355 8.874v13.155c.034 3.909.457 6.307 1.273 7.191.679.815 2.025 1.24 4.031 1.274h1.476v3.214h-15.602v-27.74c0-4.76-.103-7.853-.307-9.281-.713-5.065-2.903-7.598-6.574-7.598-2.957 0-5.289 1.683-6.989 5.048-.849 1.632-1.428 3.349-1.733 5.15-.34 1.836-.51 5.032-.51 9.588v13.155c.034 3.91.425 6.307 1.176 7.191.714.815 2.088 1.24 4.128 1.275h1.481v3.214h-22.591v-3.214h1.682c1.938-.034 3.265-.46 3.977-1.275.85-.849 1.292-3.247 1.327-7.191v-24.782c-.034-3.91-.475-6.29-1.327-7.139-.712-.816-2.039-1.224-3.977-1.224h-1.173v-3.213l14.637-.714v8.464c.677-1.7 1.631-3.213 2.855-4.539 2.615-2.821 5.742-4.232 9.382-4.232 3.874 0 6.982 1.41 9.328 4.232 1.019 1.225 1.971 2.958 2.854 5.202 3.027-6.289 7.33-9.433 12.904-9.433 2.21 0 4.249.485 6.12 1.453 1.869.969 3.346 2.303 4.434 4.003 1.225 1.904 1.971 4.079 2.244 6.527.238 1.971.36 4.147.36 6.527v18.867c.034 3.909.457 6.307 1.273 7.191.68.815 2.025 1.24 4.03 1.274h1.171v3.214z"/><path d="m497.958 178.15v15.196h-3.162c-1.7-8.805-5.764-13.207-12.189-13.207-2.311 0-4.181.697-5.609 2.091-1.496 1.428-2.243 3.178-2.243 5.253 0 2.379 1.039 4.266 3.113 5.66 1.019.679 2.869 1.462 5.554 2.346 5.78 1.836 9.655 3.485 11.626 4.945 3.808 2.89 5.712 6.681 5.712 11.371 0 4.76-1.646 8.652-4.944 11.678-2.787 2.515-6.376 3.772-10.762 3.772-2.482 0-4.774-.442-6.882-1.326-1.188-.475-2.772-1.325-4.744-2.548-.509-.307-.918-.46-1.223-.46-.681 0-1.341 1.089-1.988 3.264h-2.957v-17.695h2.957c1.19 4.318 2.483 7.48 3.876 9.485 2.754 3.943 6.406 5.915 10.961 5.915 2.617 0 4.691-.9 6.222-2.703 1.462-1.666 2.196-3.603 2.196-5.813 0-3.195-1.429-5.678-4.284-7.444-1.529-.918-4.61-2.125-9.232-3.62-4.147-1.36-7.217-3.178-9.203-5.456-1.992-2.277-2.981-5.133-2.981-8.567 0-4.045 1.428-7.308 4.284-9.79 2.584-2.243 5.846-3.365 9.79-3.365 3.502 0 6.8.935 9.893 2.805.612.373 1.122.56 1.529.56.68 0 1.19-.781 1.529-2.345h3.161z"/><path d="m510.073 188.347h12.292v12.293h-12.292z"/><path d="m71.638 159.998v52.623c0 3.807.201 6.154.605 7.037.697 2.074 3.045 3.145 7.042 3.213h2.64v3.365h-30.975v-3.365h2.641c2.897 0 4.879-.527 5.942-1.58.735-.647 1.192-1.615 1.377-2.907.218-1.326.33-3.247.33-5.762v-52.624h-2.312c-3.63 0-6.896.986-9.792 2.957-4.365 2.991-6.897 8.991-7.593 17.999l-3.302-.153.606-24.171h55.514l.441 24.171-3.358.153c-.769-5.711-2.053-10.148-3.851-13.308-1.614-2.822-3.63-4.827-6.051-6.017-2.164-1.053-4.898-1.597-8.198-1.631z"/></g></svg>