<svg clip-rule="evenodd" fill-rule="evenodd" stroke-linejoin="round" stroke-miterlimit="2" viewBox="0 0 560 400" xmlns="http://www.w3.org/2000/svg"><g fill="none"><path d="m145.765 246.373c-15.804-8.297-9.087-36.876 7.771-32.925 2.502.475 7.375.777 10.799.659l6.322-.211v32.925l-5.532-.045c-3.029-.025-7.902.264-10.799.632-3.029.396-6.585-.021-8.429-1.001zm14.487-9.877c4.61-5.927.553-15.804-6.453-15.804-3.819 0-8.034 5.004-8.034 9.614 0 9.746 8.824 13.17 14.487 6.453zm64.533 9.087c-7.639-4.083-11.458-14.487-7.77-21.072.816-1.58 2.897-4.478 4.741-6.321 3.029-3.293 3.161-3.951 1.712-8.297-1.067-3.293-2.239-4.61-3.424-4.083-1.449.54-1.844-.672-1.844-5.136 0-5.795-.071-5.927-4.346-5.927-9.087 0-13.17-11.985-7.112-18.438 4.215-3.951 11.326-3.819 15.804.185 3.688 3.951 3.819 11.457.277 14.487-2.503 2.37-2.503 2.37.711 6.584 1.844 2.371 3.161 4.873 3.029 5.4-.606 2.107 3.029 11.063 4.214 10.273 1.844-1.107 1.581-26.34-.25-26.34-1.449 0-1.304-.79.948-8.956.58-2.107.264-2.897-1.08-2.897-3.424 0-7.638-5.795-7.638-10.668 0-6.058 4.478-10.404 10.667-10.404 6.059 0 10.405 4.478 10.405 10.668 0 4.741-4.215 10.404-7.771 10.404-1.224 0-1.448 1.027-.711 3.687.54 1.976.856 10.536.698 18.438-.303 15.804 1.133 21.072 3.951 12.117 1.199-3.688 1.225-5.005.102-5.4-.909-.303.068-2.371 2.37-5.268l3.951-4.741-2.634-2.766c-3.687-3.951-3.424-11.194.435-14.487 4.214-3.951 11.326-3.819 15.804.185 6.321 6.716 1.712 18.438-7.375 18.438-4.083 0-4.215.158-4.215 5.794 0 3.688-.658 6.059-1.844 6.454-.987.382-2.238 2.37-2.765 4.346-.725 2.897-.211 4.214 2.502 6.848 15.804 14.487-1.844 38.193-19.755 27.657zm40.827.724c-4.61-2.37-9.219-9.877-9.219-14.487 0-9.745 7.507-18.437 15.804-18.437 8.56-.015 14.487 5.663 17.121 15.803l.816 4.215h-11.853c-12.511 0-14.487 1.159-9.35 5.663 3.292 3.029 8.033 2.766 11.721-.685 2.634-2.502 3.424-2.634 6.19-1.146 3.029 1.581 3.161 1.844 1.132 4.873-4.214 6.322-14.487 8.956-21.072 5.268zm12.116-23.705c-2.37-2.371-3.556-2.634-6.453-1.581-6.453 2.239-5.268 4.61 2.37 4.61h6.981zm155.405 23.705c-4.477-2.502-9.482-12.511-7.111-14.487 3.16-2.107 7.111-1.027 8.56 2.239 2.371 5.005 7.243 6.849 11.458 4.083 2.766-1.844 3.292-3.029 3.029-6.98-.382-4.478-.975-5.005-9.219-9.087-6.19-3.029-9.482-5.532-10.931-8.429-7.244-14.487 12.775-26.34 25.023-15.804l4.346 3.951-3.293 2.502c-3.292 2.503-3.292 2.503-6.058.01-3.029-2.897-6.058-3.16-9.877-1.198-5.532 3.029-2.502 8.034 7.77 12.511 12.775 5.532 15.804 17.121 7.77 26.34-3.687 3.951-5.399 4.873-10.799 5.268-4.346.343-7.77-.184-10.273-1.58zm-321.346-21.071v-21.072h-6.058c-5.927 0-6.058-.016-5.532-4.215l.409-4.214 31.608-.738v4.61c0 4.609-.022 4.609-5.927 4.609h-5.926v43.461h-9.219zm65.85-6.585v-28.974h9.219v25.023l3.555-1.317c4.873-1.844 10.405-.356 13.17 3.687 2.239 2.898 2.634 5.4 2.634 15.804v13.038h-7.902v-10.667c0-11.59-1.317-15.804-5.268-15.804-5.136 0-6.585 3.424-6.585 15.804v11.062h-9.218zm133.016 2.37.356-26.34 8.56-.829v44.777h7.243c6.19 0 7.376.409 8.298 2.766.816 2.239 3.424-2.502 13.169-23.706 6.717-14.487 12.644-26.34 12.907-26.34s6.058 12.775 12.775 27.657l12.248 27.657h-5.005c-4.741 0-5.136-.329-7.243-5.926l-2.239-5.927h-22.389l-5.268 11.853h-34.242zm53.997-1.146c-1.844-4.082-3.293-7.77-3.293-8.165-.077-1.04-7.638 13.17-7.77 14.487-.034.54 3.161.988 7.112.988h7.243zm27.657 1.146.355-26.34h26.34l.83 8.561h-18.438v10.536h17.121v9.219h-17.121v23.705h-9.219zm-101.409 9.482c0-3.16.356-3.292 7.902-3.292s7.902.145 7.902 3.292c0 3.148-.356 3.293-7.902 3.293s-7.902-.145-7.902-3.293z"/><path d="m144.448 245.056c-11.984-7.243-9.614-27.657 3.688-31.608 4.214-1.264 5.795-1.145 9.482.685 2.766 1.317 4.61 1.712 4.873.83.25-.751 2.239-1.317 4.346-1.317h3.82v32.925h-3.951c-2.108 0-3.951-.606-3.951-1.317 0-.777-1.712-.487-3.951.658-5.268 2.766-9.088 2.503-14.487-.658zm15.804-7.902c5.268-5.268 1.12-17.121-6.058-17.121-7.243 0-11.458 11.59-6.321 17.121 2.897 3.161 8.955 3.029 12.248-.224zm65.85 8.692c-11.853-5.136-14.487-21.071-4.214-28.973 3.16-2.371 3.16-2.634 1.251-7.376-1.08-2.765-2.371-5.004-2.898-5.004-.526 0-1.448-2.371-1.843-5.268-.804-4.741-1.265-5.268-4.742-5.268-5.268 0-10.404-5.268-10.404-10.536 0-2.502 1.199-5.268 3.293-7.243 9.482-9.483 23.706 3.687 15.804 14.486l-2.634 3.425 3.029 3.687c1.712 2.107 3.16 4.873 3.16 6.322.238 4.082 2.766 9.877 4.215 9.877 1.712 0 1.844-27.657.053-27.657-.83-.276-.751-2.239.223-5.399 3.293-10.8 5.4-3.424 5.137 18.438-.158 10.404.224 15.804 1.185 15.804 1.975 0 4.346-6.585 3.556-9.878-.606-2.502 4.346-9.877 6.585-9.877 1.449 0-.553 9.614-3.161 14.487l-2.502 5.136 3.161 2.502c10.009 7.902 8.955 22.389-2.108 28.974-5.794 3.292-9.614 3.556-15.804.975zm38.193-.724c-8.166-5.136-10.404-18.438-4.478-26.34 5.926-8.033 19.755-7.902 25.023.277 1.449 2.37 2.634 6.19 2.634 8.429l.005 4.214h-11.195c-8.824 0-11.194.395-11.194 1.844 0 5.795 8.955 7.902 14.487 3.292 2.37-2.239 3.424-2.502 5.663-1.264 3.687 1.975 3.556 2.766-1.093 7.243-5.268 5.005-13.17 5.927-19.755 2.108zm13.17-22.389c-1.317-1.448-3.688-2.634-5.268-2.634-1.581 0-3.951 1.186-5.268 2.634-2.371 2.634-2.239 2.634 5.268 2.634s7.638-.029 5.268-2.634zm156.722 22.389c-6.717-3.292-10.799-12.511-6.453-14.487 3.819-1.449 5.268-.83 6.716 3.029.922 2.503 2.766 4.215 4.873 4.741 4.346 1.107 6.717.158 9.351-3.819 3.292-5.136.777-9.614-7.507-13.17-11.853-5.268-15.804-12.643-12.248-19.755 5.005-9.745 22.389-10.667 27.657-1.448 1.185 2.239.882 2.897-1.976 4.082-2.765 1.251-3.819 1.12-5.794-.658-4.873-4.478-12.117-1.976-12.117 4.082 0 2.503 1.581 3.82 8.297 6.849 9.878 4.478 14.487 9.087 14.487 15.804-.026 6.321-2.37 10.667-7.77 14.487-5.136 3.424-10.931 3.819-17.121.961zm-321.346-21.072v-21.072l-5.532-.408c-5.004-.369-5.663-.79-6.058-4.083l-.421-3.687h32.924l-.421 3.687c-.369 3.293-1.001 3.688-6.058 4.083l-5.532.408v43.461h-9.219zm65.849-6.716v-28.974h9.219v12.643c0 12.511.027 12.643 2.898 11.589 5.399-1.843 10.667-.724 13.17 2.898 2.633 3.029 2.897 4.873 2.897 17.121v13.038h-7.902v-11.59c0-12.248-1.027-14.487-5.927-14.487-4.899 0-5.926 2.503-5.926 14.487v11.59h-9.219zm133.017 27.656v-51.362h9.219v43.46h7.243c7.112 0 7.243.04 7.243 3.951v3.951zm27.656-6.585c12.117-27.656 21.072-46.094 22.389-46.094.988.158 21.072 44.777 23.706 51.362.606 1.844-.067 2.239-3.687 2.239-3.951-.004-4.61-.592-6.849-5.926l-2.37-5.927h-22.389l-2.634 5.927c-2.371 5.4-3.029 5.926-7.112 5.926h-4.478zm27.657-18.437c-1.172-2.766-2.765-6.717-3.556-8.693l-1.448-3.819-3.82 8.297c-2.107 4.61-3.819 8.429-3.819 8.692 0 .264 3.293.474 7.244.474h7.243zm26.34-.988v-26.34h27.657l-.421 3.688c-.409 3.555-.698 3.687-9.351 3.95l-8.956.396v11.721h17.121v7.902h-17.121v23.706h-9.219zm-101.408 9.219c0-3.161.355-3.293 7.902-3.293 7.546 0 7.902.145 7.902 3.293 0 3.147-.356 3.292-7.902 3.292-7.547 0-7.902-.145-7.902-3.292zm-48.729-39.51c-6.585-6.585-1.844-18.438 7.243-18.438 5.4 0 10.536 5.136 10.536 10.536s-5.136 10.536-10.536 10.536c-2.502 0-5.268-1.199-7.243-3.293zm-18.438-19.755c-6.585-6.585-1.844-18.438 7.243-18.438 5.4 0 10.536 5.136 10.536 10.536s-5.136 10.536-10.536 10.536c-2.502 0-5.268-1.198-7.243-3.292z"/><path d="m145.765 246.373c-10.404-5.663-11.457-23.706-1.712-30.291 4.346-2.765 11.458-2.897 15.804-.21 2.898 1.975 3.424 1.975 3.424.21 0-1.317 1.291-1.975 3.951-1.975h3.951v32.925h-3.951c-2.107 0-3.951-.606-3.951-1.317 0-.777-1.712-.488-3.951.658-4.741 2.503-8.823 2.503-13.169.038zm15.804-8.824c4.61-6.585.303-17.121-7.243-17.121-4.741 0-8.165 4.083-8.165 9.878 0 6.19 3.292 9.877 8.955 9.877 3.029 0 5.005-.908 6.322-2.897zm67.167 9.351c-6.98-1.975-10.931-8.034-10.931-15.804 0-6.321.5-7.638 4.478-11.589 4.346-4.346 4.346-4.61 2.634-8.956-1.028-2.502-2.371-4.741-2.898-5.136-.592-.382-1.448-3.029-1.975-5.927l-.962-5.268 4.083 3.951c2.239 2.107 3.819 4.61 3.424 5.532-.816 2.107 2.766 10.931 4.478 10.931s1.712-27.657.003-27.657c-.83-.277-.751-2.239.224-5.4 3.292-10.799 5.399-3.424 5.136 18.438-.25 15.804.948 19.755 4.346 11.195 1.251-3.03 1.449-4.742.435-6.059-1.001-1.277-.238-2.765 2.897-5.926l4.346-4.214-.882 5.531c-.488 3.029-1.976 7.638-3.293 10.404l-2.502 4.873 4.478 4.214c13.17 12.38.303 32.925-17.121 28.974zm38.193-.487c-8.429-3.688-11.59-14.487-7.244-23.706 1.449-3.293 3.951-6.585 5.532-7.507 3.819-1.975 13.17-1.975 17.121.108 3.819 2.371 6.848 8.165 6.848 12.907v4.082h-11.194c-8.824 0-11.195.395-11.195 1.844 0 5.795 8.956 7.902 14.487 3.292 2.371-2.238 3.424-2.502 5.663-1.264 3.556 1.844 3.424 2.898-.211 6.322-6.453 5.926-11.589 6.98-18.438 3.687zm14.487-21.072c0-.316-.935-1.449-2.107-2.634-2.898-2.898-7.639-2.634-10.405.566-2.37 2.634-2.239 2.634 5.005 2.634 4.083 0 7.507-.25 7.507-.566zm155.405 21.072c-6.98-3.029-12.116-11.721-8.429-14.487 3.293-2.107 6.058-1.225 6.98 2.107 1.844 7.112 12.38 7.639 15.804.751 2.239-5.532.158-8.561-8.824-13.17-11.589-5.927-14.487-11.326-11.589-19.755 1.975-4.61 8.692-8.561 14.487-8.561 4.214 0 10.141 3.293 12.379 6.717 1.317 2.107 1.094 2.766-1.712 3.951-2.634 1.185-3.687 1.054-5.399-.672-2.503-2.502-8.693-2.897-10.931-.566-.87.869-1.581 2.897-1.581 4.61 0 2.37 1.712 3.819 8.824 7.243 9.482 4.61 13.17 9.482 13.17 15.804 0 5.663-4.609 12.38-9.877 14.487-5.532 2.37-8.034 2.37-13.17.049zm-323.98 0v-44.778h-5.927c-5.4 0-5.926-.263-5.926-3.292v-3.293h32.924v3.293c0 3.029-.487 3.292-5.926 3.292h-5.926v44.778zm65.849-27.92.356-27.657 7.243-.83v13.17c0 12.775.107 13.17 2.503 11.985 4.082-2.108 11.326-1.581 14.487 1.145 2.897 2.371 3.16 3.688 3.555 15.804l.448 14.487h-8.165c0-3.819-7.244-7.243-1.317-11.063 10.272-6.716.355-15.804-4.61-15.804-4.609 0-6.058 3.161-6.848 14.487l-.698 11.195h-7.639zm134.334 27.393v-51.363h7.902v43.461h7.243c7.112 0 7.243.04 7.243 3.951v3.951zm27.656-7.902c12.512-27.657 21.072-44.778 22.389-44.778 1.001.019 23.706 48.729 23.706 51.363.042.54-1.844.988-4.214.988-3.819-.005-4.478-.619-6.717-5.927l-2.37-5.926h-22.389l-2.898 5.926c-2.502 5.268-3.424 5.927-7.111 5.927h-4.215zm28.974-12.511c-.055-.54-1.712-4.478-3.687-8.824l-3.556-7.771-3.556 8.166c-1.976 4.478-3.556 8.429-3.556 8.824 0 .316 3.293.566 7.243.566 3.951 0 7.244-.448 7.112-.988zm25.023 20.018v-51.363h12.512c12.511 0 12.511.012 12.511 3.293 0 3.16-.303 3.292-8.56 3.292h-8.561v13.17h8.561c8.297 0 8.56.119 8.56 3.293 0 3.16-.303 3.292-8.56 3.292h-8.561v25.023zm-102.725-15.804c0-3.161.395-3.293 7.243-3.293s7.244.185 7.244 3.293-.396 3.292-7.244 3.292-7.243-.184-7.243-3.292zm-85.605-39.51c-6.585-6.585-1.844-18.438 7.244-18.438 5.399 0 10.536 5.137 10.536 10.536 0 5.4-5.137 10.536-10.536 10.536-2.503 0-5.268-1.198-7.244-3.292zm36.876 0c-6.585-6.585-1.844-18.438 7.243-18.438 5.4 0 10.536 5.137 10.536 10.536 0 5.4-5.136 10.536-10.536 10.536-2.502 0-5.268-1.198-7.243-3.292zm-18.438-19.755c-6.585-6.585-1.844-18.438 7.243-18.438 5.4 0 10.536 5.137 10.536 10.536 0 5.4-5.136 10.536-10.536 10.536-2.502 0-5.268-1.198-7.243-3.292z"/><path d="m145.765 246.373c-9.614-4.214-11.721-19.755-3.819-27.657 3.556-3.555 5.531-4.477 9.614-4.477 2.766 0 6.453.922 8.034 2.107 2.634 1.844 2.897 1.844 2.897-.087 0-1.581.988-1.976 3.688-1.712l3.687.421.738 31.608h-3.819c-2.108 0-4.083-.632-4.346-1.449-.303-.895-1.844-.671-4.347.646-4.741 2.502-6.585 2.502-12.116.131zm14.487-9.087c2.766-3.951 2.371-10.931-.698-14.487-7.243-7.243-18.438.988-14.487 11.326 2.371 6.98 11.063 8.561 15.804 2.766zm67.167 9.614c-6.98-1.58-11.853-7.902-11.853-15.804 0-6.717 2.766-13.038 6.453-14.487 2.239-1.185 2.371-1.844 1.041-6.058-.804-2.634-2.239-5.005-3.161-5.4-.988-.382-1.712-2.765-1.712-5.399l.042-4.741 3.292 3.687c1.844 2.107 2.898 4.214 2.503 4.873-1.186 1.975 3.161 10.799 5.004 10.141 1.159-.382 1.844-4.61 1.976-14.487.316-11.195.054-13.17-1.581-13.17-1.975 0-1.975-.566 1.449-9.219.501-1.304 1.449-.224 2.634 3.161 1.251 3.556 1.449 5.399.461 6.058-2.107 1.277-1.093 26.34 1.041 27.657 2.238.764 6.321-8.956 4.214-10.273-1.041-.645-.461-2.107 1.844-4.741l3.292-3.819.042 5.531c.023 3.029-.461 5.532-1.08 5.532s-1.712 1.975-2.37 4.214c-1.12 3.819-.83 4.609 2.897 8.165 5.532 5.268 6.849 12.248 3.556 18.438-4.083 8.166-11.326 11.458-19.755 9.483zm36.876-.54c-10.536-4.609-11.721-25.023-1.581-30.291 4.873-2.502 13.039-2.502 17.121.145 3.688 2.634 6.849 8.692 6.849 13.038 0 3.293-.074 3.293-11.195 3.293-6.19 0-11.194.54-11.194 1.211 0 7.639 10.931 10.01 14.487 3.161 1.317-2.239 2.239-2.239 5.399.224 2.503 1.844 2.503 1.976-.566 5.268-2.766 2.897-10.009 6.058-14.487 5.927-.724-.024-3.161-.87-5.531-1.844zm14.487-21.072c0-4.082-8.824-5.663-12.38-2.107-1.133 1.133-2.107 2.371-2.107 2.634 0 .316 3.292.566 7.243.566s7.244-.474 7.244-1.053zm156.722 22.389c-4.346-1.58-10.536-8.692-10.536-12.248 0-1.317 6.585-4.083 7.112-3.029 2.897 6.585 4.609 8.297 8.428 8.692 7.639.751 12.775-8.429 7.244-13.17-1.264-1.119-5.4-3.556-9.087-5.399-8.166-4.083-10.931-7.639-10.931-14.487 0-6.059 4.873-11.195 11.721-12.38 5.926-.988 10.272.513 14.487 4.873l3.029 3.16-3.424 1.844c-3.029 1.581-3.556 1.581-4.741-.434-1.449-2.634-8.956-3.029-11.458-.685-.869.869-1.581 2.897-1.581 4.609 0 2.371 1.976 4.083 9.483 7.902 8.033 4.215 9.877 5.795 11.458 10.141 4.872 12.907-7.639 25.023-21.072 19.755zm-322.663-21.072-.356-22.389-5.531-.408c-5.005-.356-5.532-.777-5.532-3.688v-3.16h30.291v3.16c0 2.898-.645 3.293-5.531 3.688l-5.532.408-.724 44.778h-6.453zm65.849 22.23v-57.525h6.585v13.17c0 11.984 1.001 15.804 3.293 11.853 1.04-1.712 9.35-1.712 12.511-.028 3.688 1.975 5.268 8.429 5.268 21.072v11.063h-7.902v-11.722c0-12.643-1.211-15.804-6.848-14.487-4.346.633-6.322 5.795-6.322 17.121-.018 9.351-.104 9.483-3.292 9.483zm133.017-.842v-51.415h7.902v43.461h7.243c3.029 0 4.741.007 5.795.316 1.448.408 1.448 1.317 1.448 3.687v3.951zm36.875-26.392c6.98-14.487 13.039-26.34 13.17-26.34.711.816 21.072 44.778 23.706 51.362.448 1.107-.685 1.581-3.424 1.581-3.556 0-4.478-.764-7.112-6.322l-3.029-6.321-21.072-.764-2.897 6.585c-2.634 6.058-3.293 6.585-7.244 6.585h-4.346zm19.755 6.716c0-.316-1.58-4.214-3.556-8.692l-3.555-8.165-3.688 7.112c-5.136 9.877-5.005 10.404 3.424 10.404 3.951 0 7.244-.264 7.244-.567zm25.023 19.623v-51.362h12.512c12.511 0 12.511.011 12.511 3.292 0 3.161-.303 3.293-8.56 3.293h-8.561v13.17h8.561c8.297 0 8.56.118 8.56 3.292 0 3.161-.303 3.293-8.56 3.293h-8.561v25.022zm-102.725-15.803c0-3.161.395-3.293 7.243-3.293s7.244.184 7.244 3.293c0 3.108-.396 3.292-7.244 3.292s-7.243-.184-7.243-3.292zm-85.605-39.51c-6.585-6.585-1.844-18.438 7.244-18.438 5.399 0 10.536 5.136 10.536 10.536 0 5.399-5.137 10.536-10.536 10.536-2.503 0-5.268-1.199-7.244-3.293zm36.876 0c-6.585-6.585-1.844-18.438 7.243-18.438 5.4 0 10.536 5.136 10.536 10.536 0 5.399-5.136 10.536-10.536 10.536-2.502 0-5.268-1.199-7.243-3.293zm-18.438-19.755c-6.585-6.585-1.844-18.438 7.243-18.438 5.4 0 10.536 5.136 10.536 10.536s-5.136 10.536-10.536 10.536c-2.502 0-5.268-1.199-7.243-3.293z"/></g><path d="m114.158 223.984v-22.389c-4.215-.158-8.166.105-11.853-.044-.04-2.239-.036-4.346-.036-6.585h30.291c-.003 1.975.145 4.609.145 6.321-4.61.172-7.244.251-11.985.251v44.777h-6.585zm27.656 18.438c-5.663-7.902-4.214-19.755 1.028-25.023 3.556-3.555 5.531-4.477 9.614-4.477 2.765 0 6.453.922 8.033 2.107 2.634 1.844 2.898 1.844 2.898 0 0-1.304.131-1.976.131-1.976l6.454-.021v32.925c-2.107.171-5.005.079-6.322.02.264-1.844-1.449-2.502-3.556-1.317-1.58.83-5.531 1.317-8.428 1.317-4.347 0-6.585-.061-9.878-3.951zm18.438-4.082c4.083-3.161 4.742-10.668 1.317-15.804-3.029-4.215-10.536-3.556-14.487 1.448-3.292 4.873-2.107 12.38 3.029 14.487 4.478 2.107 7.244.87 9.746-1.027zm21.072-19.755v-28.974h6.585v13.17c0 12.116.198 13.17 2.371 12.38 4.609-1.976 9.877-2.239 12.906-.554 4.083 2.239 5.795 8.429 5.795 21.072l.007 10.273h-7.77c-.395-4.215-.461-8.166-.54-11.721-.145-6.585 1.278-12.512-5.136-14.487-6.848-.593-5.663 1.843-6.19 14.487-.224 5.794-.033 11.326-.033 11.326-2.634.025-5.268.012-7.902.012zm84.288 26.34c-4.346-2.108-7.112-8.166-7.112-15.804.171-11.458 4.214-15.804 14.487-15.804 7.375 0 12.248 3.556 14.487 10.272.909 3.293 1.449 7.639 1.449 7.639-1.976.369-4.083.5-11.853.5-7.244 0-9.351.032-11.195.29 0 0-.088 1.449.145 2.371 3.161 6.453 9.482 8.033 14.487 3.424 2.634-2.634 2.897-2.371 2.897-2.371l6.19 2.502-4.082 4.083c-5.795 5.136-12.117 5.927-19.755 2.634zm15.804-18.438c0-2.898-4.083-6.849-8.429-6.849s-7.244 4.741-7.244 7.639c4.478.088 10.932-.303 15.804-.777zm31.608-5.4v-26.34h6.585l.579 44.778c4.873.053 9.351.184 14.487.329 0 0 .171 2.107.171 3.161 0 .777.012 3.424.012 3.424-1.317-.006-2.766-.014-11.194.004l-11.195-.029zm25.022 26.34c.475-.764 23.706-52.68 23.706-53.997.185-.197 5.532 11.326 11.985 26.34 6.322 14.487 11.458 28.974 12.248 27.657 0 0-5.4-.009-7.639-.009 0 0-.395-1.041-2.897-6.849l-2.897-6.585h-22.389l-2.766 6.585c-2.371 5.663-2.766 6.849-2.766 6.849-1.264.131-6.321.056-7.375.021zm25.023-36.876c-.553.619-3.424 5.795-5.268 9.877l-3.424 7.639h7.902c4.873 0 7.639 0 9.087-.145-1.712-3.951-5.926-13.17-8.297-17.121zm31.608 11.59v-26.34h12.512c7.902 0 12.511.046 12.511.046-.033 2.239-.02 4.478-.007 6.716-6.848.102-10.536.074-18.437.185l-.044 12.775c6.322-.041 11.59-.006 18.438-.001.171 2.239-.036 4.346.101 6.585-6.98.211-10.14.303-18.438.632l.01 12.117c-.369 11.984-.29 12.511-.29 12.511l-6.453-.037zm38.193 22.388c-3.029-2.502-7.112-10.009-6.058-10.799 2.107-.922 6.19-1.58 6.98-1.712.421 7.243 12.643 11.326 15.804 4.873 3.424-6.058 1.185-9.746-8.297-14.487-9.483-4.478-12.643-8.034-12.643-14.487 0-9.087 11.062-15.804 19.754-11.985 3.556 1.581 7.376 3.161 9.615 6.19 0 0-3.293 2.898-4.347 3.424-.461.238-4.477-2.107-5.136-2.634-3.424-3.029-8.297-1.58-11.194 1.844-3.293 4.083-1.238 7.375 7.243 11.063 9.219 4.083 13.038 8.56 13.17 14.487.264 10.141-5.795 15.804-17.121 15.804-3.951-.005-6.716-.922-9.219-2.898zm-140.918-15.803c6.19.144 7.243.131 13.17.316.04 1.843.171 3.424.184 5.268-4.61.025-8.429.115-13.17-.132.045-1.844.005-4.083-.032-5.4z" fill="#fd0404" fill-rule="nonzero"/><path d="m223.468 202.912c-.882.356-1.449.501-1.844.448-1.053-.124-.803-3.424-.632-5.531l-.079-4.741 3.556 3.819c1.317 1.449 3.161 3.029 3.161 4.083.006.461-2.239.974-1.581.974 0 0 .975 2.766 1.844 4.873 2.107 4.61 1.317 4.61 1.001 5.531-3.029-2.37-3.424-6.058-5.4-9.482zm17.121 8.956c-.022-1.238.553-2.766 1.225-4.873.882-2.766 1.58-4.873 1.58-4.873-.211-.342-2.239-.803-2.107-1.185.421-1.001 1.054-2.239 2.502-4.083l3.161-3.951.777 4.741c.009.988.448 5.4.448 5.4-.777.01-1.581-.12-2.634-.382 0 0-.975 3.556-1.581 4.873-5.663 21.072-3.424 5.4-3.424 4.214zm-7.112-10.404c-.474-11.195-.513-14.487-.513-14.487-.843.029-2.239.329-2.239-.009.184-.883.355-2.108 1.106-4.478.777-2.502 1.844-4.61 2.239-4.61s1.448 2.108 2.239 4.61c.513 1.712 1.448 4.478 1.448 4.478-.566.171-1.198-.049-1.712.046-.619.117-.067 6.585-.084 14.487l-.018 8.428-1.581 6.454-.632-6.717z" fill="#2c2c2c" fill-rule="nonzero"/><ellipse cx="234.004" cy="229.252" fill="#fd0404" rx="17.121" ry="18.438"/><g fill="#040404"><ellipse cx="234.004" cy="162.086" rx="9.351" ry="11.194"/><ellipse cx="216.883" cy="183.158" rx="9.482" ry="9.746"/><ellipse cx="251.125" cy="181.841" rx="8.56" ry="9.746"/></g></svg>