<svg clip-rule="evenodd" fill-rule="evenodd" stroke-linejoin="round" stroke-miterlimit="2" viewBox="0 0 560 400" xmlns="http://www.w3.org/2000/svg" xmlns:xlink="http://www.w3.org/1999/xlink"><clipPath id="a"><path clip-rule="evenodd" d="m1642.3 3588.25h950.47v151.555h-950.47z"/></clipPath><g fill="#00539b" fill-rule="nonzero"><path d="m1.315.714h-56.091v-16.334h18.608v-47.445h18.875v47.445h18.608z" transform="matrix(.52717625 0 0 -.52717625 58.8766484441 183.56487231735)"/><path d="m0 .714 5.198-16.124h-10.527zm32.865-39.752-23.32 61.148-.323.847h-18.322l-.323-.847-23.325-61.148-.683-1.783h19.521l.313.87 3.617 10.093h19.895l3.537-10.083.304-.88h19.797z" transform="matrix(.52717625 0 0 -.52717625 71.850624653 195.2908958202)"/><path d="m1.31.714h-19.675v-34.376l-19.38 33.716-.379.66h-20.522v-63.779h19.675v34.755l19.376-34.09.388-.665h20.517z" transform="matrix(.52717625 0 0 -.52717625 122.739158936 183.56487231735)"/><g clip-path="url(#a)" transform="matrix(.52717625 0 0 -.52717625 -835.77944667 2154.05760767)"><path d="m0 .714c0-11.501-4.164-15.656-15.918-15.904h-6.354v31.115h6.378c5.404 0 9.479-1.334 12.099-3.968 2.527-2.512 3.795-6.293 3.795-11.243m10.443 23.039c-5.568 5.563-13.671 8.506-23.45 8.506h-28.139v-63.778h28.139c9.835 0 17.943 2.901 23.441 8.398 5.605 5.606 8.445 13.597 8.445 23.746 0 9.61-2.919 17.607-8.436 23.128" transform="translate(1868.1 3706.28)"/><path d="m0 .714c0-2.377-.767-5.54-7.421-5.54h-11.702v11.416h11.702c2.784 0 4.805-.608 6.003-1.815.95-.945 1.418-2.274 1.418-4.061m-7.861 18.786h-11.262v9.105h11.262c1.296 0 3.084-.239 4.202-1.362.744-.744 1.123-1.834 1.123-3.233 0-4.384-4.782-4.51-5.325-4.51m17.673-4.642c4.126 2.892 6.536 7.229 6.536 12.062 0 4.543-1.418 8.24-4.211 10.986-3.963 3.898-10.579 5.802-19.661 5.657h-30.473v-63.778h31.269c9.362 0 16.259 2.157 20.517 6.415 3.378 3.373 5.086 8.052 5.086 13.91 0 6.565-3.477 12.095-9.063 14.748" transform="translate(1930.45 3694.97)"/><path d="m1.31.714h-34.334v9.021h30.582v14.958h-30.582v8.081h33.468v15.389h-52.343v-63.779h53.209z" transform="translate(2006.29 3690.37)"/><path d="m0 .714c0-3.898-2.082-5.872-6.195-5.872h-12.31v11.154h11.613c2.433 0 4.412-.65 5.591-1.82.861-.866 1.301-2.026 1.301-3.462m20.423-40.871c-1.604 1.633-2.04 9.372-2.185 11.913l-.065 1.043c-.796 8.89-4.038 12.966-7.341 14.776 5.025 3.028 8.043 8.633 8.043 15.282 0 4.922-1.596 9.021-4.759 12.179-4.094 4.094-10.63 6.349-18.393 6.349h-33.103v-63.778h18.875v22.267h11c5.858 0 7.257-3.968 7.772-11.281.032-.286.056-.632.093-1.039.276-3.551.688-7.491 1.97-9.376l.388-.571h19.905z" transform="translate(2050.8 3717.15)"/><path d="m1.315.714h-28.841v-14.449h10.963c-1.488-4.117-6.134-6.62-12.619-6.62-3.524 0-6.425 1.108-8.614 3.308-2.948 2.943-4.567 7.748-4.567 13.536 0 5.778 1.619 10.583 4.567 13.531 2.189 2.194 5.09 3.308 8.614 3.308 6.162 0 10.583-2.896 11.018-7.21l.113-1.184h18.889l-.146 1.441c-1.558 16.086-15.945 23.287-29.519 23.287-18.781 0-32.411-13.952-32.411-33.173 0-9.461 3.355-18.028 9.456-24.13 5.915-5.918 13.859-9.049 22.955-9.049 2.574 0 10.715.506 16.489 6.251l.552-3.836.159-1.128h12.942z" transform="translate(2134.23 3710.16)"/><path d="m0 .714c0-11.501-4.174-15.656-15.922-15.904h-6.336v31.115h6.364c5.399 0 9.475-1.334 12.109-3.968 2.522-2.512 3.785-6.293 3.785-11.243m10.443 23.039c-5.568 5.563-13.676 8.506-23.446 8.506h-28.143v-63.778h28.143c9.831 0 17.935 2.901 23.437 8.398 5.61 5.606 8.441 13.597 8.441 23.746 0 9.61-2.906 17.607-8.432 23.128" transform="translate(2212.82 3706.28)"/><path d="m0 .714 5.198-16.124h-10.527zm32.869-39.752-23.329 61.148-.323.847h-18.322l-.318-.847-23.334-61.148-.669-1.783h19.511l.313.87 3.617 10.093h19.895l3.537-10.083.318-.88h19.783z" transform="translate(2262.42 3715.58)"/><path d="m1.315.714h-56.091v-16.334h18.603v-47.445h18.875v47.445h18.613z" transform="translate(2339.18 3737.82)"/><path d="m0 .714 5.198-16.124h-10.532zm32.855-39.752-23.315 61.148-.332.847h-18.313l-.328-.847-23.319-61.148-.679-1.783h19.511l.318.87 3.622 10.093h19.89l3.528-10.083.313-.88h19.778z" transform="translate(2361.1 3715.58)"/><path d="m2430.05 3711.88h160.697v26.642h-160.697z"/><path d="m2430.05 3674.69h160.697v26.642h-160.697z"/></g></g></svg>