<svg clip-rule="evenodd" fill-rule="evenodd" stroke-miterlimit="2.613" viewBox="0 0 560 400" xmlns="http://www.w3.org/2000/svg" xmlns:xlink="http://www.w3.org/1999/xlink"><clipPath id="a"><path clip-rule="evenodd" d="m0 0h255.328v337.828h-255.328z"/></clipPath><g transform="matrix(.783947 0 0 .783947 179.916 67.5849)"><g clip-path="url(#a)"><path d="m123.891 335.984c-1.243-.609-2.465-1.254-3.684-1.902-3.148-1.676-6.258-3.43-9.332-5.238-10.34-6.074-20.336-12.754-29.937-19.942-27.09-20.281-52.86-46.394-68.188-76.847-3.637-7.227-6.074-15.082-7.844-22.957-2.043-9.075-3.23-18.336-3.941-27.602-.785-10.207-.977-20.453-.793-30.683.187-10.727.797-21.446 1.711-32.133 1.562-18.332 4.008-36.59 7.199-54.703 2.535-14.399 5.504-28.743 9.27-42.872l1.125-4.222 4.156-1.348c34.168-11.078 69.976-15.43 105.808-15.43 18.438 0 36.879 1.004 55.133 3.637 16.371 2.363 32.512 6.047 48.242 11.153l4.153 1.347 1.125 4.219c1.656 6.195 3.121 12.441 4.469 18.711 1.742 8.125 3.277 16.293 4.648 24.488 3.059 18.305 5.312 36.758 6.672 55.266.789 10.695 1.265 21.414 1.336 32.137.062 10.222-.239 20.457-1.117 30.648-.797 9.242-2.059 18.473-4.149 27.519-1.812 7.821-4.258 15.629-7.879 22.817-15.297 30.394-41.011 56.484-68.039 76.746-9.621 7.211-19.64 13.91-30.008 20.004-3.089 1.816-6.211 3.582-9.379 5.269-1.222.653-2.449 1.301-3.699 1.911l-3.527 1.734" fill="#fff"/><path d="m1238.91 18.456c-12.43 6.094-24.65 12.539-36.84 19.024-31.48 16.757-62.58 34.297-93.32 52.383-103.4 60.742-203.359 127.539-299.375 199.414-270.898 202.812-528.594 463.945-681.875 768.473-36.367 72.27-60.742 150.82-78.437 229.57-20.43 90.75-32.305 183.36-39.415 276.02-7.851 102.07-9.765 204.53-7.929 306.83 1.875 107.27 7.969 214.46 17.109 321.33 15.625 183.32 40.078 365.9 71.992 547.03 25.352 143.99 55.039 287.43 92.696 428.71l11.25 42.23 41.562 13.48c341.68 110.78 699.766 154.29 1058.082 154.29 184.38 0 368.79-10.03 551.33-36.36 163.71-23.64 325.12-60.47 482.42-111.52l41.53-13.48 11.25-42.19c16.56-61.95 31.21-124.41 44.68-187.11 17.43-81.25 32.78-162.93 46.49-244.88 30.59-183.05 53.12-367.58 66.72-552.66 7.89-106.95 12.65-214.14 13.36-321.37.62-102.22-2.39-204.56-11.17-306.48-7.97-92.42-20.59-184.73-41.49-275.19-18.12-78.21-42.58-156.29-78.79-228.17-152.97-303.944-410.12-564.842-680.39-767.46-96.21-72.109-196.41-139.101-300.08-200.039-30.89-18.164-62.11-35.82-93.79-52.695-12.22-6.523-24.49-13.008-36.99-19.102l-35.27-17.343z" fill="none" stroke="#babdbf" stroke-width="2.16" transform="matrix(.1 0 0 -.1 0 337.83)"/></g><path d="m127.414 328.773c1.164-.57 2.316-1.183 3.465-1.793 3.062-1.632 6.09-3.343 9.082-5.101 10.094-5.938 19.891-12.484 29.262-19.508 25.984-19.484 50.98-44.723 65.683-73.933 3.309-6.579 5.571-13.86 7.227-21.016 2-8.656 3.207-17.559 3.969-26.402.859-9.934 1.152-19.938 1.089-29.907-.066-10.539-.539-21.086-1.312-31.597-1.34-18.243-3.57-36.493-6.59-54.532-1.348-8.074-2.859-16.125-4.578-24.129-1.316-6.136-2.75-12.257-4.371-18.324-15.317-4.972-30.969-8.539-46.91-10.843-17.887-2.583-35.93-3.555-53.989-3.555-35.015 0-69.957 4.215-103.332 15.039-3.695 13.867-6.636 28.078-9.121 42.195-3.148 17.863-5.566 35.922-7.109 53.996-.899 10.504-1.496 21.047-1.684 31.59-.175 9.973.012 19.981.774 29.93.676 8.859 1.812 17.781 3.765 26.453 1.621 7.195 3.864 14.508 7.184 21.109 14.73 29.266 39.789 54.532 65.832 74.032 9.348 7 19.121 13.531 29.191 19.445 2.977 1.75 5.989 3.453 9.036 5.078 1.136.602 2.281 1.207 3.437 1.773" fill="#283894" fill-rule="nonzero"/><path d="m1274.14 90.566c11.64 5.703 23.17 11.836 34.65 17.929 30.62 16.328 60.9 33.438 90.82 51.016 100.94 59.375 198.91 124.844 292.62 195.078 259.84 194.844 509.8 447.227 656.83 739.331 33.09 65.79 55.71 138.6 72.27 210.16 20 86.56 32.07 175.59 39.69 264.03 8.59 99.33 11.52 199.37 10.89 299.06-.66 105.39-5.39 210.86-13.12 315.97-13.4 182.43-35.7 364.93-65.9 545.32-13.48 80.74-28.59 161.25-45.78 241.28-13.16 61.37-27.5 122.58-43.71 183.25-153.17 49.72-309.69 85.39-469.1 108.44-178.87 25.81-359.3 35.54-539.89 35.54-350.152 0-699.566-42.15-1033.316-150.39-36.953-138.67-66.367-280.78-91.211-421.95-31.485-178.64-55.664-359.22-71.094-539.96-8.984-105.04-14.961-210.47-16.836-315.9-1.758-99.73.117-199.81 7.735-299.3 6.757-88.59 18.125-177.81 37.656-264.53 16.211-71.95 38.633-145.08 71.836-211.09 147.304-292.659 397.89-545.316 658.32-740.316 93.477-70 191.21-135.312 291.91-194.453 29.77-17.5 59.89-34.531 90.36-50.781 11.36-6.016 22.81-12.07 34.37-17.734z" fill="none" stroke="#2b2e91" stroke-width="2.16" transform="matrix(.1 0 0 -.1 0 337.83)"/><g fill-rule="nonzero"><path d="m43.613 45.324c-.008-.91-.015-1.828-.019-2.746v-.43l-.418.118c-2.895.812-5.809 1.629-8.75 2.441l-.235.066-.007.247c-.016.914-.036 1.832-.047 2.746l-.008.437 2.851-.785c-.019 3.812.004 7.672.071 11.473l.012.422 3.843-1.032-.008-.258c-.105-3.867-.164-7.781-.175-11.64l2.894-.805" fill="#fff"/><path d="m56.484 39.398.004-.421-3.621.886-.004.254c-.019 1.778-.035 3.559-.039 5.344-1.531.363-3.062.73-4.605 1.094.035-1.719.074-3.446.125-5.168l.011-.426-3.675.883-.008.25c-.188 4.918-.309 9.914-.363 14.84l-.004.418 3.812-.883v-.258c.004-2.082.02-4.16.047-6.246 1.559-.367 3.113-.735 4.66-1.102.008 2.032.028 4.063.055 6.09l.004.41 3.762-.875-.008-.269c-.117-4.922-.164-9.91-.153-14.821" fill="#fff"/><path d="m67.07 45.941-3.187.606c.558-1.41 1.113-2.824 1.668-4.234.496 1.207 1.004 2.421 1.519 3.628m.321-8.894-.102-.254-3.367.66-.067.168c-2.101 5.363-4.289 10.801-6.492 16.156l-.226.551 3.937-.726.067-.164c.433-1.059.863-2.118 1.289-3.172 2.008-.375 4.004-.754 5.996-1.129.375.871.754 1.746 1.14 2.617l.106.238 3.793-.715-.176-.379c-2.098-4.597-4.082-9.257-5.898-13.851" fill="#fff"/><path d="m87.133 33.941v-.386l-3.469.519-.004.278c-.047 2.988-.078 6-.097 8.961-1.946-2.719-3.844-5.469-5.661-8.188l-.113-.176-3.199.473-.012.273c-.234 5.032-.437 10.129-.594 15.145l-.015.39 3.652-.515.008-.274c.066-2.972.144-5.972.234-8.933 1.883 2.719 3.848 5.465 5.856 8.172l.117.16 3.328-.473-.004-.289c-.047-5.027-.058-10.125-.027-15.137" fill="#fff"/><path d="m99.023 41.711c.797.988 1.602 1.977 2.415 2.965-.461.191-.95.312-1.461.359-1.122.094-2.125-.183-2.993-.816-1.101-.817-1.613-1.985-1.566-3.578.047-1.414.527-2.645 1.437-3.653.918-1.008 1.993-1.554 3.29-1.668.14-.011.277-.019.414-.019 1.058 0 1.953.375 2.738 1.14.875.868 1.32 1.981 1.328 3.325.004.89-.203 1.742-.621 2.531-.352-.434-.703-.859-1.051-1.289l-.109-.137-4.207.359zm7.274 3.348c1.242-1.606 1.855-3.461 1.828-5.524-.035-2.316-.844-4.25-2.406-5.75-1.563-1.488-3.434-2.148-5.582-1.961-1.403.125-2.746.621-3.996 1.473-1.246.848-2.262 1.945-3.02 3.262-.762 1.332-1.18 2.761-1.242 4.257-.094 2.278.637 4.2 2.168 5.7 1.543 1.515 3.555 2.183 5.969 1.98 1.339-.109 2.57-.492 3.668-1.129.39.469.789.934 1.187 1.406l.109.125 4.278-.355-.418-.488c-.856-1-1.703-1.996-2.543-2.996" fill="#fff"/><path d="m120.086 31.371-.008-.336-3.414.141v.312c0 3.18.004 6.356.015 9.532.004 1.222-.101 1.75-.183 1.972-.117.309-.324.563-.637.778-.312.21-.699.328-1.144.347h-.114c-.367 0-.679-.074-.933-.222-.281-.165-.469-.379-.586-.661-.09-.211-.188-.668-.176-1.668.043-3.3.086-6.593.141-9.89l.004-.348-3.426.145-.008.304c-.078 3.039-.152 6.078-.219 9.121-.043 1.891.11 3.2.469 4 .363.817.988 1.485 1.855 1.997.797.46 1.731.699 2.782.699.097 0 .191-.004.293-.008.886-.035 1.675-.207 2.347-.516.68-.312 1.281-.777 1.793-1.386.504-.606.852-1.243 1.028-1.895.171-.633.246-1.715.226-3.301-.039-3.039-.074-6.078-.105-9.117" fill="#fff"/><path d="m129.996 40.289-3.039-.004c.512-1.324 1.012-2.656 1.512-3.984.504 1.328 1.011 2.66 1.527 3.988m.145-9.098-.082-.211-3.246-.003-.082.214c-1.86 5.075-3.848 10.219-5.911 15.289l-.183.454 3.726.004.082-.204c.403-.984.797-1.968 1.188-2.953l5.715.008c.383.984.769 1.969 1.16 2.949l.082.207 3.73.004-.183-.453c-2.094-5.07-4.11-10.219-5.996-15.305" fill="#fff"/><path d="m149.184 31.93-.008-.305-3.422-.16.008.351c.082 2.965.152 5.926.218 8.891-1.988-3.109-3.941-6.258-5.812-9.363l-.09-.153-3.16-.148v.344c-.035 5.093-.078 10.187-.137 15.289l-.004.316 3.571.16v-.339c.004-2.958.004-5.915 0-8.872 1.914 3.106 3.91 6.243 5.937 9.34l.094.145 3.328.148-.008-.351c-.16-5.098-.332-10.2-.515-15.293" fill="#fff"/><path d="m158.965 39.984.07 3.387 4.211.395c-.332.574-.75.992-1.246 1.254-.621.324-1.414.445-2.352.355-1.461-.137-2.707-.738-3.703-1.797-.996-1.058-1.484-2.258-1.488-3.66-.004-1.316.449-2.406 1.355-3.242.911-.84 2.016-1.188 3.379-1.051 1.586.148 2.973.926 4.254 2.363l.223.254.246-.234c.641-.61 1.277-1.219 1.91-1.832l.223-.215-.203-.234c-.985-1.125-1.977-1.961-2.957-2.481-1.164-.613-2.418-.988-3.723-1.117-2.516-.246-4.586.488-6.176 2.187-1.336 1.43-2.023 3.215-2.039 5.297-.008 1.532.36 3 1.086 4.371.735 1.383 1.762 2.504 3.055 3.332 1.293.832 2.781 1.329 4.437 1.481.321.027.637.043.942.043 1.168 0 2.222-.219 3.129-.656 1.152-.555 2.074-1.43 2.754-2.618.671-1.175.976-2.476.91-3.882l-.075-.922" fill="#fff"/><path d="m184.512 36.211-.02-.266-3.511-.554.015.402c.125 2.898.242 5.832.344 8.742-2.078-3.297-4.137-6.637-6.117-9.933l-.078-.133-3.25-.516.008.391c.062 5 .082 10.09.062 15.113l-.004.285 3.633.551v-.387c-.016-2.89-.047-5.816-.09-8.715 2.008 3.293 4.09 6.622 6.195 9.903l.078.125 3.43.511-.015-.39c-.184-5.02-.414-10.113-.68-15.129" fill="#fff"/><path d="m190.168 37.32-.008-.261-3.52-.668.012.41c.141 4.988.238 10.043.277 15.023l.004.274 3.661.66-.004-.399c-.09-4.988-.235-10.05-.422-15.039" fill="#fff"/><path d="m205.316 40.551-.011-.246-3.606-.797.016.426c.117 2.855.211 5.746.289 8.609-2.125-3.414-4.227-6.859-6.25-10.254l-.078-.117-3.328-.746.008.418c.05 4.945.043 9.961-.024 14.906l-.004.27 3.703.789v-.403c.016-2.855.004-5.738-.023-8.59 2.055 3.407 4.172 6.836 6.297 10.219l.078.117 3.508.739-.008-.411c-.129-4.949-.321-9.968-.567-14.929" fill="#fff"/><path d="m220.391 59.602-.004-.426c-.02-4.867-.114-9.817-.282-14.707l-.011-.246-3.711-.989.008.434c.043 1.703.078 3.406.101 5.113-1.566-.418-3.129-.828-4.683-1.242 0-1.766-.008-3.531-.028-5.297v-.25l-3.679-.996v.426c.004 4.883-.067 9.82-.207 14.695l-.008.258 3.808.992.008-.418c.043-2.008.071-4.015.086-6.023 1.578.41 3.156.828 4.742 1.246.016 2.058.024 4.125.012 6.183v.258" fill="#fff"/><path d="m227.172 80.559c-58.27-22.27-140.09-22.176-198.156.015-7.254 43.637-14.985 103.34 3.871 141.391 28.289 57.082 95.211 91.129 95.211 91.129s66.968-34.172 95.199-91.137c18.863-38.055 11.129-97.758 3.875-141.398" fill="#fff"/><path d="m225.012 82.035c-57.004-21.953-137.035-21.863-193.836.008-7.094 43.023-14.66 101.883 3.789 139.395 27.676 56.277 93.133 82.531 93.133 82.531s65.511-26.379 93.125-82.539c18.449-37.512 10.882-96.375 3.789-139.395" fill="#ca3030"/><path d="m226.578 164.77c-.176-.543-.437-1.055-.797-1.555-.281-.402-.597-.75-.871-1.055-.262-.293-.539-.597-.613-.789-.168-.398-.149-1.086-.129-1.812.012-.465.027-.993 0-1.539-.258-4.997-4.012-5.219-5.426-5.305-.332-.02-.898-.055-1.047-.137-.531-.695-1-1.504-1.496-2.367-1.261-2.18-2.832-4.902-6.191-6.117-.793-.293-1.75-.59-2.793-.59-.203 0-.41.016-.61.039-.382.043-.722.117-.972.172-.051.012-.11.027-.16.035-.555-.234-1.125-.621-1.664-1-.118-.09-.235-.184-.36-.277-.402-.317-.906-.711-1.535-1.012-.519-.25-.996-.34-1.309-.398-.031-.004-.066-.008-.093-.016-.387-.293-.762-.594-1.117-.906l-.141-.133c-.277-.266-.559-.531-.859-.789-.036-.027-.071-.059-.106-.09-.566-.543-1.086-1.098-1.551-1.644-.242-.286-.461-.563-.687-.864-.774-.996-1.649-2.121-3.246-3.008-.848-.468-1.696-.855-2.512-1.234-.613-.285-1.191-.551-1.746-.84-2.41-1.246-4.574-2.676-6.859-4.187l-.36-.242c-.836-.555-1.683-1.067-2.5-1.567-2.519-1.523-4.898-2.965-6.414-5.23-1.332-1.985-2.594-4.153-3.816-6.243-1.082-1.855-2.2-3.765-3.383-5.601-1.098-1.703-2.192-3.465-3.246-5.172-.856-1.375-1.735-2.797-2.621-4.187-.278-.442-.59-1.036-.926-1.676-1.133-2.145-2.539-4.809-4.91-5.934-.918-.434-1.922-.652-2.981-.652-2.488 0-4.828 1.214-6.707 2.195-.441.227-.855.445-1.23.621-.465.219-.942.434-1.407.637-2.238.984-4.55 2-6.464 4.48-.2.262-.414.52-.625.781-1.297 1.61-2.875 3.559-3.086 6.266-.352.195-.684.465-1 .801-1.504 1.621-2.59 3.922-2.977 6.316-.113.68-.168 1.356-.176 2.024-.078-.207-.156-.418-.23-.621-.297-.813-.582-1.582-.762-2.286-.133-.511-.418-.964-.812-1.312-.496-.434-1-.82-1.489-1.195-.894-.688-1.742-1.34-2.203-2.032-.34-.519-.746-1.582-1.035-2.476.875-.699 1.731-1.711 1.875-3.09.242-2.305-1.578-3.785-2.668-4.672-.176-.14-.422-.344-.574-.48-.992-2.914-3.828-4.969-5.926-6.493-1.465-1.066-3.137-1.636-4.609-2.14-.59-.199-1.145-.387-1.664-.598-.063-.027-.129-.051-.196-.074-.246-.078-.504-.117-.754-.125l-.472-.012c-.496-.015-1.059-.031-1.641-.031-1.054 0-1.937.055-2.738.168l-2.188-.559c-.086-.027-.14-.05-.175-.062-1.844-1.652-3.707-3.387-5.508-5.07-.692-.649-1.383-1.293-2.078-1.942-.496-.457-1.125-.691-1.754-.699-.028-.004-.051-.012-.074-.02-.594-.156-1.266-.339-2.02-.406-.336-.031-.664-.07-.996-.101-1.074-.11-2.184-.223-3.316-.223-2.614 0-6.399.543-9.235 5.187-.32.161-1.148.344-1.656.454-.723.16-1.473.324-2.207.601-.613.223-1.242.528-1.859.899-.536.332-1.067.64-1.594.953-1.43.836-2.906 1.707-4.328 2.773-2.047 1.539-4.422 3.43-6.477 5.789-1.305 1.5-.488 3.192.231 4.68.273.562.644 1.34.746 1.746.078.316.05 1.004-.16 1.656-.157.496-.422 1.043-.7 1.621-.425.883-.906 1.879-1.172 3.039-.304 1.344-.148 2.645-.011 3.786.039.32.078.64.105.949.027.34.078.644.137.926-.199-.032-.395-.043-.594-.043-1 0-1.867.386-2.437 1.101-.414.527-.856 1.035-1.321 1.57-.601.692-1.218 1.407-1.8 2.176-.684.606-1.262 1.332-1.719 2.18-.84 1.535-1.219 3.133-1.582 4.676-.102.422-.196.828-.301 1.222-.063.118-.117.235-.164.36l-.766 2.07c-.011.016-.019.035-.031.051-.363.59-.879 1.199-1.426 1.847-1.031 1.219-2.195 2.602-2.859 4.45-.004.011-.008.019-.008.027-.613.785-1.219 1.715-1.496 2.883-.313 1.344-.223 2.664-.09 3.871-2.695 1.867-2.668 6.133-2.644 8.851.007.805.011 1.633-.047 2.083-.192 1.414-.75 2.792-1.34 4.246-.359.882-.731 1.793-1.039 2.769-.231.723-.301 1.406-.356 1.957-.043.414-.082.805-.172 1.004-.203.461-.5.906-.839 1.418-.645.969-1.45 2.176-1.778 3.871-.011.063-1.41 7.297.231 10.551.703 1.406 1.855 2.391 2.785 3.184.285.242.559.472.777.683 1.106 1.047 2.063 2.305 3.074 3.641.395.523.805 1.066 1.231 1.597.125.161.266.34.406.524.238.305.488.625.75.949.172.438.461.832.86 1.133.152.117.316.242.476.371.141.137.289.277.453.414.008.012.02.02.032.027.179.153.375.297.585.434.024.016.047.035.071.055-.731.597-1.418 1.507-1.41 2.882.019 3.227 3.593 3.852 4.769 4.055.113.02.215.035.297.055 2.715.57 5.695.922 9.379 1.105 3.195.157 6.43.207 9.559.254l.05.004c2.325.227 5.352.5 8.367.606 1.051.043 2.102.097 3.157.148 2.379.113 4.836.231 7.277.231h.25l3.051.148c.043.004.086.004.129.004.086 0 .172-.004.254-.012.09.008.179.012.269.012.121 0 .238-.008.36-.023.937-.129 1.871-.262 2.808-.395.879-.129 1.762-.258 2.649-.379.441-.035.836-.09 1.199-.164 1.336-.18 2.578-.336 3.797-.465.097.016.379.102.566.156.5.149 1.117.34 1.832.383.324.024.66.036 1 .036 3.633 0 8.449-1.372 11.09-5.219.742-1.086 1.871-2.727 1.113-5.051-.183-.551-.406-1.102-.711-1.742-.07-.156-.156-.34-.242-.524-.168-.363-.324-.699-.457-1.023-.808-1.977-.926-3.281-.394-4.379.98-2.02 1.203-4.043.664-5.75.496-1.105 1.031-2 1.547-2.566 2.265-2.477 2.472-5.09 2.375-7.321-.067-1.523-.274-2.98-.473-4.394-.231-1.617-.445-3.141-.445-4.668 0-.809-.02-1.594-.063-2.332-.082-1.438-.238-2.891-.469-4.313-.398-2.508-.379-4.765.055-6.426.094-.117.184-.238.27-.363 1.05-1.476 1.582-3.34 2.046-4.988.282-.988.543-1.926.875-2.625.297-.645.489-.844 1.27-1.359 1.887-1.227 2.93-2.997 3.848-4.563.265-.449.519-.875.777-1.273 1.867-2.809 3.152-5.536 3.824-8.11.039-.152.055-.304.082-.465.356 1.192.785 2.368 1.231 3.551 2.433 6.449 4.449 13.492 2.773 21.27-.391 1.82-.094 3.629.172 5.226.094.594.187 1.153.238 1.672.156 1.574.332 3.145.504 4.715.207 1.875.418 3.812.602 5.715.023.23.047.461.074.695.129 1.289.254 2.5.133 3.574-.196 1.793-.528 3.571-.875 5.453-.153.809-.305 1.622-.446 2.43-.074.449-.035.906.118 1.332l.812 2.266c1.117 3.109 2.234 6.226 3.356 9.34.132.382.351.711.625.984.414 1.039.972 1.984 1.621 2.719l.062.14c.777 1.711 1.66 3.657 2.973 5.293.183.231.39.539.613.864.578.855 1.234 1.824 2.195 2.554 1.207.918 2.891 1.532 4.055 1.911 1.688.546 3.293.546 4.586.546h.316c1.082 0 2.145-.043 3.172-.093 1.016-.047 1.981-.086 2.953-.086.305 0 .61.004.914.011.278.012.559.016.84.016 1.196 0 2.371-.078 3.508-.152 1.094-.071 2.125-.137 3.137-.137.207 0 .414 0 .617.008.926.027 1.898.145 2.934.27 1.289.16 2.625.324 4.007.324.739 0 1.415-.047 2.075-.141.367-.058.761-.078 1.199-.078.988 0 2.027.133 3.129.274 1.211.156 2.461.32 3.773.32.629 0 1.215-.043 1.785-.117.289-.036.59-.043.93-.051.891-.024 1.992-.051 3.266-.633 1.023-.473 1.765-1.141 2.355-1.68.168-.152.34-.304.516-.453.25-.207.672-.422 1.113-.644.699-.36 1.488-.762 2.219-1.407 1.004-.894 1.547-1.961 1.984-2.816.223-.437.434-.844.645-1.121.097-.125.492-.344.812-.52.246-.136.492-.273.727-.421.035-.024.093-.059.16-.098.641-.367 1.867-1.082 2.437-2.25.622-.606 1.125-1.258 1.622-1.899.437-.558.847-1.086 1.304-1.543 1.535-1.531 2.336-3.089 3.114-4.593.281-.543.574-1.11.902-1.684.719-1.246 1.965-1.785 3.93-2.566l.441-.176c2.215-.891 3.684-2.559 4.98-4.031.497-.563.969-1.098 1.45-1.559.246-.234.539-.488.847-.75 1.7-1.461 4.539-3.902 3.258-7.871" fill="#fff"/></g><path d="m90.477 83.207c.343.395.679.789.992 1.207.09.109.168.238.234.371zm28.703 25.77c-1.008-1.524-1.985-5.079-1.797-5.168 5.234-2.672-.391-4.356-.832-5.922-.61-2.176-3.055-3.992-5.059-5.446-1.652-1.203-3.801-1.656-5.726-2.437.336.57.679 1.137 1.035 1.695l-8.781-2.234c-.399-.141-.786-.289-1.083-.551-2.605-2.328-5.148-4.738-7.71-7.117.359.41.734.82 1.097 1.234l-4.5 1.582-9.527 7.711-11.031 16.321-18.051 18.988-2.735 7.375c-.437.012-.89-.027-1.328-.016-.843 1.211-2.113 2.305-2.425 3.649-.372 1.593.078 3.398.171 5.113.008.012.012.016.02.023l-1.809 4.266s4.641 13.504 5.012 13.992c.379.485 31.715 13.77 31.715 13.77l16.922 4.73c.82.094 1.64.18 2.465.277 3.328.375 6.656.79 9.996 1.125 2.047.211 2.734-.445 3.285-2.476.625-2.32 1.766-5.406 3.367-7.164 1.469-1.602 1.789-3.227 1.692-5.438-.129-3.078-.918-6.043-.918-9.179 0-.715-.02-1.45-.059-2.176-.078-1.363-.227-2.727-.438-4.043-.433-2.699-.554-5.965.407-8.5-.438-.566-.891-1.121-1.34-1.684l2.027-6.519c.188.062.379.105.57.125.094.011.333-.336.301-.457-.293-1.02-.582-2.047-.871-3.067v-11.718c.082-.231.16-.465.164-.704.028-2.949.016-5.902.043-8.851.008-.32.18-.66.344-.945.031-.047.527.074.629.238 1.199 2.008 2.359 4.043 3.551 6.058.195.344.468.637.711.954.152-.43.316-.844.437-1.282.149-.472.207-.984.399-1.429.043-.09.527.093.765.023 1.024-.297 2.035-.644 3.039-.976-1.406-1.231-3.136-2.227-4.144-3.75" fill="#fff"/><path d="m40.488 143.703c-3.304.668-2.156 6.957-2.504 9.5-.359 2.684-1.679 4.965-2.476 7.461-.332 1.039-.168 2.18-.621 3.219-.758 1.715-2.071 2.789-2.446 4.734-.402 2.039-.925 7.043-.003 8.867.648 1.297 2.039 2.2 3.035 3.153 1.722 1.633 3.062 3.64 4.539 5.5.754.949 1.722 2.293 2.609 3.043.93.781 2.168.918 3.285 1.316 1.352.488 2.481 1.254 3.821 1.836 2.257.98 5.128 1.523 7.55 1.98 2.032.383 4.075.504 6.149.536 1.738.019 3.316.605 5.012.789 1.539.172 2.863.742 4.425 1.093 1.961.446 4.078.219 6.047-.054 1.5-.211 3.11-.227 4.723-.246 1.562-.016 2.508-.633 3.961-1.09 3.312-1.063 7.59.14 10.582-2.117 2.594-1.953-1.156-5.075-2.91-6.164-.567-.352-2.664-1.297-2.016-2.426.371-.637 2.52-.117 3.141.008 1.55.32 3.054.894 4.672.101 1.074-.519 1.269-1.48 1.941-2.39.941-1.278 3.488-2.141 3.668-3.805.289-2.684-3.789-3.758-5.516-4.605-1.687-.832-3.597-1.7-5.402-2.153-1.328-.336-2.801-.449-3.879-1.449-1.176-1.086-1.969-1.937-3.551-2.625-1.16-.504-2.508-.512-3.812-.926-2.055-.652-5.117-2.535-7.141-1.195-.551.371-.68.957-1.297 1.168-.597.203-1.586-.067-2.113-.172-1.406-.305-2.875-.766-4.293-1.187-1.289-.379-2.539-1.055-3.766-1.524-1.183-.445-2.472-.586-3.601-1.332-1-.652-1.688-1.555-2.598-2.281-1.254-.996-2.711-1.602-3.859-2.774-1.176-1.218-.731-1.761-1.196-3.183-.445-1.348-1.82-1.66-3.101-2-1.246-.332-2.602-.055-3.813-.551-1.402-.57-2.179-1.582-3.015-2.766-1.27-1.804-2.399-4.632-4.606-5.418" fill="#283894"/><path d="m192.598 187.801c-3.692-1.028-7.762-3.004-10.743.406-.257.297-.687.664-1.003.629-3.641-.398-7.27-.977-10.914-1.301-5.094-.445-10.227-1.222-15.286-.914-3.371.207-6.035 1.422-9.394.32-1.801-.593-5.899-.023-4.512 2.977.871 1.855 1.734 4.031 3.059 5.684.746.933 1.422 2.265 2.347 2.964.871.668 2.254 1.172 3.286 1.504 1.343.438 2.687.422 4.085.422 2.379 0 4.711-.242 7.125-.164 2.7.09 5.426-.348 8.098-.266 2.809.082 5.754.879 8.555.473 3.332-.473 6.629.832 9.926.399 1.261-.164 2.257.074 3.437-.469.906-.414 1.531-1.133 2.289-1.766.981-.808 2.336-1.172 3.274-1.996 1.078-.965 1.418-2.461 2.296-3.586.582-.746 1.465-1.082 2.219-1.555.543-.332 2.328-1.207 1.41-1.902-.558-.422-2.679.043-3.39-.105-1.492-.313-2.825-1.114-4.364-1.348-.586-.086-1.191-.23-1.8-.406" fill="#283894"/><path d="m110.32 189.426c-.254-.563-.531-1.117-.757-1.688-.868-2.105-1.364-4.343-.329-6.496.668-1.367 1.118-3.308.094-4.699-.801-1.098-2.504-1.273-3.672-1.574-.812-.211-4.769-2.031-4 .23.395 1.156 1.531 1.598 2.11 2.574.48.825.421 2.016.382 2.942-.043.851-.078.828-.769 1.094-.391.144-.863.152-1.235.359-.488.269-.535.652-.91 1.027-.715.711-2.113 1.16-3.054 1.309-1.348.215-2.746-.184-4.02-.606-.691-.234-2.547-1.054-2.406.52.066.734 1.176 1.395 1.644 1.875.856.879 2.5 2.105 2.938 3.289.469 1.262-.848 2.336-1.742 2.906-1.102.703-2.649 1.348-3.895 1.621-.902.204-1.816-.175-2.711-.386-1.195-.297-2.578-.586-3.836-.383-.843.137-.941.64-1.523 1.215-1.66 1.64-4.582 1.164-6.617.855-2.141-.328-4.465-.363-6.567-.851-4.418-1.012-4.617-7.411-6.058-11-.246-.618-.543-1.243-.977-1.739-.418-.476-.949-.558-1.387-.925-.136-.118-.285-.231-.433-.321-.664-.418-1.61-.32-2.434-.457.141.262.285.52.426.77.242.433.484.863.73 1.289-.507-.078-1.07-.039-1.507-.258-.469-.234-.903-.527-1.344-.816-.543-.403-.973-.719-1.629-.864-.41-.136-.84-.215-1.258-.347.051.086.102.175.156.261-.066.004-.117.004-.183.004-.039 2.621 2.281 4.664 4.207 5.981.39.265.848.547 1.316.847.93 1.118 1.86 2.239 2.785 3.36-.222.469-.781.812-1.562.922-1.199.164-2.457-.289-3.625-.422-1.715-.199-3.449-.235-5.156-.34-2.004-.125-4-.703-5.969-1.113-1.367-.289-2.637-.649-3.981-1.106 1.059.809 2.297 1.801 3.172 2.805 1.84 2.129-1.937 1.832-1.925 3.461.007 1.191 2.191 1.387 2.984 1.551 2.945.621 5.965.902 8.969 1.05 3.203.164 6.414.207 9.625.258 2.777.274 5.554.508 8.312.61 3.555.136 7.11.386 10.653.375 1.039.05 2.078.101 3.117.152-.063-.074-.129-.148-.188-.227.203-.011.41-.031.621-.043.028.09.055.188.09.274 1.844-.254 3.688-.531 5.535-.785.348-.028.696-.071 1.012-.145 1.344-.18 2.688-.348 4.035-.488.899-.106 1.852.476 2.793.531 3.438.231 7.645-.961 9.758-4.047.633-.918 1.141-1.656.785-2.75-.164-.496-.367-.972-.59-1.441" fill="#283894"/><path d="m123.324 112.727c-1.004.332-2.015.683-3.039.976-.238.07-.723-.113-.765-.023-.192.441-.25.957-.399 1.433-.121.434-.285.848-.437 1.278-.243-.317-.516-.61-.711-.953-1.192-2.016-2.356-4.051-3.551-6.059-.102-.168-.598-.285-.629-.238-.164.285-.336.625-.344.945-.027 2.949-.015 5.902-.043 8.852-.008.363-.187.722-.285 1.082-.422-.196-1.062-.278-1.238-.618-2.61-5.121-5.578-10.109-7.551-15.496-.918-2.511.164-5.82.23-8.765.008-.36-.824-.672-.972-1.11-.27-.808-.324-1.695-.434-2.554-.008-.036.43-.223.473-.168.73.894 1.652 1.73 2.098 2.777.64 1.523.808 3.273 1.453 4.801.257.613 1.234.89 1.879 1.316.171-1.238.812-2.707.406-3.676-.969-2.296-2.434-4.371-3.699-6.523-3.297-.074-8.989-.551-8.621 4.816.144 2.047 1.304 3.614.601 5.684-.648 1.902-1.625 3.184-1.012 5.367.649 2.324 2.5 4.121 3.926 5.942 1.68 2.136 3.172 4.152 4.477 6.55 1.234 2.266 2.89 3.321 4.797 4.797 1.699 1.313 2.289 4.133 2.535 6.262.105.969 1.508 2.797 1.097 3.684-.351.777-1.015.238-1.64.527-.703.328-.59.375-.875 1.156-.551 1.504-.223 1.246-1.754 1.731-1.395.441-1.262.867-.59 2.418.52 1.21 1.176 2.281 1.629 3.468.613 1.66 1.57 1.762 2.57.348 1.367-1.926 1.68-5.055 2.696-7.227.558-1.214 1.156-1.75 2.218-2.449 1.828-1.191 2.688-3.293 3.867-5.082 1.454-2.187 2.801-4.742 3.477-7.324.594-2.301-1.144-5.274-1.84-7.945" fill="#283894"/><path d="m214.594 158.949c-.406-3.285-1.379-5.539-3.828-7.906-2.379-2.309-5.243-4.047-8.129-5.539-2.961-1.531-5.696-3.727-7.899-6.316-1.109-1.305-1.703-2.446-3.207-3.278-1.359-.754-2.812-1.32-4.191-2.039-2.672-1.379-4.992-2.937-7.461-4.574-3.406-2.254-7.254-3.949-9.645-7.524-2.55-3.804-4.722-8.003-7.226-11.882-1.996-3.09-3.895-6.258-5.871-9.371-1.266-1.997-2.598-5.625-4.75-6.645-2.813-1.328-6.172.977-8.668 2.16-2.606 1.238-5.055 1.942-6.914 4.352-1.492 1.922-3.367 3.754-3.18 6.441.184 2.645 2.727 4.031 3.434 6.484-1.391.368-2.161.262-3.504.024-1.446-.258-1.891-.031-1.828 1.637.128 3.336 3.636 5.765 6.222 7.105 1.625.844 3.266 1.176 4.332 2.82 1.176 1.825 1.707 4.129 1.524 6.297-.332 3.75-1.399 7.438-1.688 11.231-.293 3.883.082 7.851.453 11.707 1.055 10.992 2.145 25.922 14.071 29.172 5.687 1.55 11.765 1.3 17.613 1.937 6.332.695 12.945 1.613 19.301 1.606 3.633-.004 7.09.48 10.55-.86 3.036-1.176 2.602-3.804 3.899-6.398 1.598-3.223 3.797-6.067 5.351-9.301 1.86-3.855 1.723-6.801 1.282-10.93-.016-.136-.028-.273-.043-.41" fill="#fff"/><path d="m103.895 172.207c.277-.273.171-.75-.614-1.441-1.148-1.028-3.004-1.598-4.312-2.52-1.633-1.144-3.219-2.316-4.75-3.582-3.145-2.605-7.246-5.851-7.395-10.543-.125-4.07 3.606-5.543 3.305-9.539-.344-4.484-1.399-8.144-2.848-12.254-3.383 2.43 1.032 9.973-1.668 12.805-3.14-1.481-5.703-6.391-7.531-9.516-1.125-1.922-6.957-10.347-4.965-12.676.883.93 1.86 1.762 2.883 2.512 1.242.902 2.258 2.09 3.488 3.07 2.477 1.985 4.055.473 4.164-2.679.063-2.094.246-4.551-.16-6.574-.476-2.375-1.726-4.461-2.316-6.782-.399-1.55-1.09-3.609-.703-5.304.379-1.649 1.64-1.879 3-2.582 1.746-.907 3.445-.868 5.363-1.454 2.641-.812 2.594-1.96 1.867-4.824-.914-3.633-2.512-7.16-1.512-11.164.739-.398 2.309-.535 2.485-1.703.156-1.07-1.875-2.852-2.453-3.586-.766-.18-1.528-.445-2.305-.519-4.086-.375-8.152-1.27-11.141 3.746-.824 1.379-3.359 1.367-5.101 2.019-.488.18-.969.414-1.426.692-1.91 1.168-3.891 2.218-5.699 3.578-2.145 1.609-4.274 3.343-6.074 5.414-.309.355 1.179 2.601 1.546 4.07.231.938.09 2.137-.203 3.074-.492 1.539-1.465 2.895-1.82 4.457-.277 1.211.047 2.621.152 3.942.059.734.34 1.465.325 2.183-.02.965-.18 1.942-.403 2.868-.047.199-.738.433-.929.289-.477-.371-.782-1.047-1.266-1.399-.309-.226-1.012-.324-1.188-.109-1.035 1.312-2.253 2.558-3.246 3.918-.523.418-.968.941-1.34 1.621-1.41 2.594-1.304 5.914-2.91 8.492-1.23 1.988-3.234 3.523-4.05 5.813-.887 2.476.019 3.332 1.328 4.554.035.094.082.192.132.289.407.766 1.2 1.77 2.028 2.684.762 1.976 2.797 3.609 4.527 4.363 1.723.75 3.133 1.16 4.5 2.528.875.863 1.297 2.031 2.141 2.964 2.203 2.434 5.433 4.09 8.328 5.348 1.918.84 4.031 1.605 5.824 2.609 1.422.801 2.305 1.836 4.004 1.954 2.258.156 4.449-.192 6.652.371 2.918.73 6.118 1.371 8.934 2.355 2.707.945 4.43 4.121 7.219 5.231 1.351.531 2.824 1.023 4.301 1.21.796.11 1.539.028 1.832-.273" fill="#283894"/><path d="m224.078 165.578c-.098-.312-.254-.586-.433-.84-.555-.789-1.379-1.402-1.778-2.363-.547-1.32-.25-2.781-.32-4.215-.238-4.551-4.024-1.543-5.914-3.969-2.121-2.726-2.973-6.343-6.52-7.628-.672-.247-1.476-.504-2.195-.418-.867.101-1.391.441-2.246.117-.856-.328-1.637-.844-2.391-1.375-.484-.352-.961-.801-1.496-1.051-.379-.188-.777-.176-1.156-.309-1.106-.386-2.047-1.554-2.934-2.304.789 1.121 1.559 2.246 2.442 3.355.769.973 1.742 1.668 2.769 2.297.785.48 1.246 1.391 1.989 1.922.875.621 1.566 1.375 2.304 2.187 1.735 1.918 3.781 3.875 4.637 6.438.973 2.906-1.227 3.773-1.957 6.238-.621 2.086-.082 4.621-.113 6.805-.024 2.551-1.762 4.574-1.899 7.168-.109 2.137.027 4.773-1.922 6.086-.703.465-1.457.465-2.269.586-.864.14-1.465.41-2.246.644-1.934.586-4 .278-5.817-.644-1.613-.817-2.976-2.418-4.828-2.664-2.23-.293-4.617.691-6.808 1.039-3.473.55-7.336.972-10.817.449-3.32-.504-6.258.551-9.461.594-3.16.043-4.722-1.301-7.039-3.426-1.012-.926-1.812-2.02-.137-2.715 1.586-.66 2.274.195 2.532-1.895.351-2.832-.442-5.57-.989-8.175-.597-2.879-2.261-4.09-3.406-6.563-.578-1.258-.265-2.484-.39-3.863-.129-1.457-.579-1.871-1.61-2.82-3.164-2.899 2.328-2.137 4.117-3.008.387-1.668-2.593-4.172-3.742-5.067-.812-.632-1.664-1.296-2.711-1.304-1.308-.016-4.488 1.414-5.238-.262-.559-1.27 1.012-5.371 1.223-6.805.265-1.711.25-3.64-.079-5.418.055-.125.09-.257.168-.371.606-.855 1.946-.828 2.872-.672 1.515.262 3.07 1.286 4.488 1.864 1.414.574 2.765 1.136 4.129 1.832-.512-1.285-1.77-2.629-2.703-3.621-.188-.196-.383-.391-.579-.586-1.203-1.168-2.644-2.325-3.925-3.297-1.231-.942-2.848-1.801-4.227-2.481-1.734-.84-3.629-1.226-5.293-1.984-3.008-1.367-6.351-2.938-8.094-6.102-.441-.804-1.211-3.558.227-3.351 1.172.168 2.273 1.207 3.59.746 1.449-.508-.129-2.723-.703-3.363-.563-.625-.973-1.383-1.481-2.059-.605-.789-.988-1.363-1.769-.531-1.211 1.297-2.016 3.152-2.301 4.933-.574 3.477.648 6.957 1.844 10.133 2.793 7.41 4.609 14.727 2.882 22.75-.402 1.891.25 4.047.454 6.082.355 3.481.777 6.957 1.113 10.438.152 1.601.371 3.234.199 4.808-.293 2.696-.879 5.367-1.34 8.043 1.387 3.867 2.778 7.739 4.168 11.606.051-.203.11-.399.16-.598.473 2.461 2.282 5.66 5.004 3.945 2.168-1.378 5.117-3.128 7.852-3.125 2.398.004 4.769-.296 7.16-.343 1.512-.039 2.855.5 4.348.64 2.043.196 3.757.203 5.73.953 1.879.715 3.695 1.657 5.711 1.84 1.391.129 3.473.34 4.824.035 1.825-.418 3.11-1.343 5.137-1.527 2.691-.234 5.797-.105 8.391.766 2.437.808 4.339 1.75 7.023 1.203 2.715-.551 3.609-2.965 5.516-4.863 1.742-1.739 2.328-3.539 3.593-5.735 1.297-2.25 3.493-2.992 5.672-3.867 2.348-.945 3.746-3.289 5.59-5.051 1.676-1.601 4.324-3.113 3.418-5.914" fill="#283894"/><path d="m215.801 255.102c-5.531 0-11.789-1.477-18.606-4.387-30.132-12.867-53.375-19.574-69.074-19.93-15.754.356-38.992 7.063-69.125 19.93-6.816 2.914-13.078 4.387-18.605 4.387-10.469 0-14.914-5.301-15.313-5.797l-22.59-38.91c-.398-1.067-.453-2.122-.16-3.141.656-2.309 2.973-4.09 6.195-4.758 1.051-.168 2.11-.258 3.153-.269l.312-.004c12.832 0 20.594 11.3 20.672 11.421l.356.52.632-.047c11.844-.863 45.051-16.113 46.891-16.957 15.606-6.016 31.426-9.062 47.012-9.062h1.09c15.586 0 31.402 3.046 47.011 9.062 1.828.844 35.043 16.094 46.891 16.957l.633.047.355-.52c.078-.113 7.867-11.421 20.672-11.421l.313.004c1.039.011 2.097.101 3.152.269 3.223.668 5.535 2.449 6.195 4.754.293 1.023.239 2.082-.164 3.145l-1.066 1.832-21.524 37.078c-.425.547-4.8 5.797-15.308 5.797" fill="#fff" fill-rule="nonzero"/><path d="m252.707 209.926-1.019 1.754-21.481 37c-.566.695-4.727 5.332-14.406 5.332-5.383 0-11.496-1.449-18.18-4.301-30.258-12.926-53.637-19.66-69.476-20.02h-.098c-15.844.36-39.219 7.094-69.481 20.02-6.679 2.852-12.797 4.301-18.175 4.301-9.723 0-13.879-4.68-14.407-5.324l-21.484-37.008-1.02-1.754c-.285-.809-.324-1.606-.101-2.375.535-1.875 2.578-3.395 5.34-3.981.988-.152 1.992-.238 2.972-.25.098-.004.196-.004.297-.004 12.196 0 19.692 10.832 19.762 10.938l.711 1.054 1.266-.093c11.976-.879 45.062-16.047 47.234-17.051 15.473-5.953 31.148-8.973 46.586-8.973h1.094c15.441 0 31.113 3.02 46.586 8.973 2.164 1 35.257 16.172 47.238 17.051l1.265.093.708-1.054c.074-.11 7.503-10.934 19.765-10.934h.293c.981.012 1.984.098 2.977.254 2.757.582 4.804 2.106 5.34 3.977.218.769.183 1.566-.106 2.375m2.207-2.977c-.801-2.797-3.562-4.808-7.051-5.531-1.144-.18-2.261-.266-3.332-.285-.109-.004-.218-.004-.328-.004-13.566 0-21.582 11.902-21.582 11.902-11.863-.871-46.543-16.879-46.543-16.879-18.734-7.223-35.195-9.148-47.437-9.148h-1.094c-12.238 0-28.699 1.925-47.438 9.148 0 0-34.679 16.008-46.543 16.879 0 0-8.015-11.902-21.578-11.902h-.328c-1.078.023-2.191.109-3.332.289-3.488.722-6.254 2.734-7.055 5.531-.375 1.32-.269 2.66.227 3.922l1.109 1.906 21.559 37.133s4.609 6.285 16.223 6.285c4.992 0 11.269-1.16 19.035-4.473 21.887-9.347 49.289-19.402 68.668-19.843 19.379.441 46.785 10.496 68.672 19.843 7.761 3.313 14.047 4.473 19.035 4.473 11.613 0 16.219-6.285 16.219-6.285l21.562-37.133 1.109-1.906c.497-1.262.602-2.602.223-3.922" fill="#283894" fill-rule="nonzero"/><path d="m247.5 208.488s-5.16 7.692-17.219 6.723c0 0 6.489-9.934 17.219-6.723" fill="#283894" fill-rule="nonzero"/><path d="m8.688 208.488s5.164 7.692 17.218 6.723c0 0-6.48-9.934-17.218-6.723" fill="#283894" fill-rule="nonzero"/><path d="m31.273 247.383s5.715 2.89 15.418 1c22.219-4.32 47.02-17.262 69.305-21.453h.004c.023-.004.051-.008.078-.02 4.098-.762 8.117-1.234 12.016-1.301 3.898.067 7.918.539 12.015 1.301.028.012.055.016.078.02 22.293 4.191 47.094 17.133 69.313 21.453 9.699 1.89 15.418-1 15.418-1l18.187-30.238c-13.914 7.429-30.675.281-67.636-14.543-18.145-7.282-34.957-9.079-47.375-9.032-12.418-.047-29.227 1.75-47.371 9.032-36.961 14.824-53.727 21.972-67.637 14.543" fill="#283894" fill-rule="nonzero"/><path d="m111.348 214.008-3.434-11.688-1.785.528-.707-2.399 4.391-1.289 4.136 14.078" fill="#fff" fill-rule="nonzero"/><path d="m119.66 199.609c-.656.082-1.183.395-1.586.942-.402.547-.566 1.144-.488 1.785.09.723.387 1.309.894 1.742.508.438 1.133.609 1.872.524.695-.086 1.246-.403 1.652-.965.41-.551.57-1.168.488-1.856-.082-.695-.398-1.25-.945-1.668-.551-.422-1.176-.59-1.887-.504m-1.762 12.68 2.661-5.277-.481.058c-1.351.168-2.512-.156-3.473-.965-.957-.808-1.519-1.878-1.683-3.203-.176-1.468.148-2.765.976-3.89.829-1.129 1.993-1.782 3.493-1.969.683-.082 1.371-.023 2.07.168.695.199 1.316.516 1.867.953.551.441.969.949 1.266 1.516.293.57.484 1.23.574 1.976.086.696.039 1.375-.137 2.039-.136.465-.39 1.106-.769 1.91l-3.231 6.305" fill="#fff" fill-rule="nonzero"/><path d="m137.402 197.32-.211 2.489-4.761-.403-.668 2.653c.277-.098.593-.164.941-.211.348-.043.664-.051.945-.032 1.375.118 2.465.723 3.282 1.813.816 1.086 1.164 2.305 1.05 3.652-.117 1.407-.718 2.575-1.808 3.5-1.082.922-2.332 1.325-3.746 1.203-1.317-.109-2.461-.675-3.43-1.699-.969-1.027-1.402-2.172-1.297-3.437l2.703.23c.032.61.235 1.141.618 1.582.386.446.882.692 1.503.742.739.071 1.368-.117 1.883-.543.516-.425.805-1.003.867-1.726l.012-.16c.055-.66-.144-1.246-.601-1.762-.457-.52-1.024-.805-1.696-.859-.804-.067-1.492.191-2.058.781l-2.325-.832 2.059-7.551" fill="#fff" fill-rule="nonzero"/><path d="m146.004 206.73c-.66-.191-1.289-.132-1.879.18-.594.32-.984.809-1.184 1.485-.203.699-.156 1.355.149 1.976.305.617.808 1.035 1.523 1.242.66.196 1.289.117 1.891-.218.598-.344.992-.836 1.18-1.485.199-.672.14-1.32-.176-1.945-.317-.621-.817-1.035-1.504-1.235m2.269-7.023 3.071.898-4.633 3.852.762.141c.554.16 1.05.433 1.484.808.43.371.789.836 1.074 1.391.602 1.125.699 2.367.301 3.723-.406 1.386-1.227 2.429-2.469 3.132s-2.566.848-3.976.434c-1.414-.414-2.45-1.246-3.117-2.496-.668-1.25-.793-2.578-.379-3.988.343-1.18 1.015-2.165 2.007-2.965" fill="#fff" fill-rule="nonzero"/><path d="m172.977 260.328c0 24.789-20.098 44.883-44.883 44.883s-44.879-20.094-44.879-44.883 20.094-44.879 44.879-44.879 44.883 20.09 44.883 44.879" fill="#fff" fill-rule="nonzero"/><path d="m156.969 280.52c-.227.21-.489.48-.805.761-.34.27-.715.578-1.125.918-.101.086-.203.172-.305.258-.113.082-.23.164-.347.246-.231.168-.465.34-.711.516-.481.371-1.028.703-1.578 1.066-.547.371-1.153.688-1.75 1.039-.59.364-1.235.656-1.856.989-.625.324-1.269.609-1.898.906-.645.265-1.258.558-1.879.797-.613.242-1.203.484-1.781.687-.567.215-1.11.399-1.614.574-.504.168-.968.317-1.375.457-.418.125-.777.239-1.074.321-.16.047-.301.086-.426.121l.043-.051-10.379-7.648c.079-.27.161-.555.243-.856.152-.555.308-1.16.453-1.805.144-.648.304-1.324.422-2.035.136-.707.257-1.441.359-2.195.121-.746.184-1.512.277-2.27.082-.769.125-1.539.18-2.289.051-.761.063-1.504.086-2.222.019-.719 0-1.418-.008-2.078.008-.657-.043-1.282-.07-1.856-.02-.394-.039-.766-.067-1.109l16.348-6.364-.004-.015c.265.211.562.441.883.695.679.531 1.484 1.152 2.336 1.828.429.328.871.676 1.32 1.024.453.347.902.711 1.355 1.066.918.711 1.813 1.442 2.661 2.121.414.34.82.676 1.207.992.375.321.734.621 1.066.903.187.16.359.312.527.461zm-23.836 18.441c-.395.023-.789.047-1.195.07-.204.012-.407.024-.614.024h-1.906c-.203 0-.414.019-.629.019-.219-.019-.445 0-.668-.015-.449-.02-.902-.055-1.363-.079-.445-.043-.895-.093-1.348-.14-.23-.027-.457-.043-.687-.078-.227-.035-.461-.071-.692-.106-.465-.078-.941-.129-1.402-.23-.473-.102-.949-.199-1.43-.297-.472-.102-.945-.238-1.433-.363-.477-.114-.957-.266-1.442-.422-1.261-.391-2.543-.844-3.808-1.383.332-.137.687-.293 1.035-.465.222-.109.437-.223.652-.34 1.016.43 3.754 1.5 7.59 2.172 5.156.902 8.078.613 8.699.527.102.192.207.372.305.543.117.204.223.391.336.563m-19.227-3.258c-.465-.203-.918-.422-1.375-.652-3.836-1.903-7.547-4.555-10.769-7.895-1.61-1.672-3.106-3.508-4.418-5.492-1.313-1.992-2.461-4.125-3.399-6.359-.136-.321-.261-.645-.39-.969l6.996-1.238c.351.433.801.976 1.332 1.574.34.394.707.824 1.113 1.254.41.437.832.898 1.274 1.371.445.48.921.953 1.406 1.437.48.481.969.973 1.465 1.453.515.473 1.023.942 1.523 1.407.258.23.508.453.75.683.246.227.5.442.754.645.5.418.984.816 1.445 1.195.469.375.891.742 1.313 1.047.347.246.668.473.965.684l1.836 8.898c-.149.066-.297.137-.446.211-.351.172-.699.359-1.023.543-.121.062-.238.137-.352.203m-20.379-49.09c.875-2.265 1.961-4.425 3.211-6.449 1.254-2.027 2.692-3.91 4.25-5.629 1.418-1.57 2.957-2.992 4.547-4.281l.285 1.34c-.039.035-.07.07-.109.109-.281.293-.586.629-.91 1-.324.375-.664.789-1.02 1.235-.343.453-.718.921-1.066 1.433-.18.254-.36.512-.539.774-.176.269-.348.543-.528.816-.355.543-.671 1.121-1.015 1.687-.332.575-.621 1.168-.926 1.743-.297.582-.551 1.168-.812 1.734-.258.559-.469 1.121-.684 1.648-.223.524-.379 1.036-.539 1.504-.156.473-.313.895-.41 1.289-.094.348-.176.653-.246.911l-5.024 4.121c.403-1.7.91-3.368 1.535-4.985m10.86 9.836c.472-.097 1.113-.222 1.875-.386.816-.176 1.769-.395 2.785-.637.508-.125 1.031-.25 1.566-.387.528-.137 1.067-.273 1.606-.41.539-.149 1.078-.293 1.605-.438.528-.136 1.051-.296 1.551-.437 1.012-.285 1.945-.563 2.742-.813.621-.191 1.16-.371 1.586-.511l10.02 11.375c-.004.34-.016.695-.016 1.074-.012.574.004 1.191-.031 1.848-.02.656-.047 1.347-.074 2.062-.039.711-.09 1.453-.133 2.199-.067.746-.121 1.504-.199 2.262-.09.762-.149 1.52-.258 2.262-.055.371-.098.742-.149 1.105-.043.363-.105.719-.16 1.074-.101.711-.226 1.391-.34 2.032-.117.648-.23 1.25-.347 1.816-.067.309-.129.606-.192.887l-13.683 3.308c-.297-.257-.629-.539-.996-.839-.2-.161-.395-.348-.602-.54-.203-.187-.422-.382-.641-.582-.437-.394-.902-.812-1.386-1.246-.496-.422-.957-.902-1.457-1.363-.489-.465-.996-.937-1.5-1.406-.5-.477-.989-.965-1.473-1.438-.484-.48-.984-.929-1.437-1.39-.922-.914-1.778-1.762-2.516-2.492-.582-.575-1.082-1.071-1.481-1.465zm63.308 5.551-9.836 4.25c-.14-.156-.3-.32-.468-.488-.309-.309-.637-.645-1.004-.989-.371-.339-.75-.703-1.164-1.062-.41-.356-.832-.734-1.278-1.09-.441-.363-.89-.734-1.347-1.098-.461-.351-.918-.71-1.375-1.05-.453-.352-.91-.676-1.356-.993-.441-.32-.879-.617-1.289-.902-.414-.281-.801-.543-1.168-.781-.414-.266-.781-.508-1.113-.711l-1.563-16.199c.223-.153.489-.336.793-.555.446-.32.953-.707 1.493-1.125.269-.215.554-.426.828-.66.281-.223.562-.457.847-.684.278-.242.551-.476.825-.707.277-.23.539-.468.8-.691.512-.457.977-.891 1.371-1.266.219-.203.407-.386.567-.554l.023.043 9.735 4.867s-3.391-7.844-14.207-13.797l4.351 8.687c-.203.141-.43.305-.683.485-.446.32-.958.703-1.5 1.125-.266.211-.551.429-.825.656-.277.223-.562.453-.843.687-.282.239-.555.473-.832.704-.278.23-.536.468-.793.691-.512.457-.981.891-1.379 1.273-.223.211-.422.407-.594.579l-.004-.008-17.305-2.164-7.844 13.792.016.024c-.426.082-.953.187-1.547.316-.816.18-1.769.395-2.785.637-.508.129-1.031.25-1.562.387-.536.136-1.075.273-1.61.414-.539.144-1.078.293-1.609.433-.531.145-1.047.297-1.551.438-1.004.285-1.941.562-2.738.816-.719.223-1.321.418-1.774.571l-7.242-8.844c.094-.238.199-.508.316-.82.071-.184.153-.383.247-.586.086-.204.179-.426.273-.649.199-.453.391-.949.637-1.453.238-.512.472-1.051.742-1.605.273-.547.562-1.11.852-1.688.312-.562.601-1.144.937-1.707.328-.566.641-1.145.988-1.684.164-.273.332-.546.492-.812.176-.266.344-.524.512-.785.332-.512.672-.996.992-1.461.329-.457.633-.895.922-1.285.297-.391.567-.758.813-1.067.011-.015.023-.031.035-.043l13.812-3.785c.133.219.29.469.461.738.364.563.797 1.219 1.274 1.914.234.34.469.704.726 1.063.262.359.52.727.778 1.094.265.359.531.718.789 1.074.258.359.523.707.781 1.039.508.668.988 1.285 1.414 1.809.844 1.046 1.453 1.714 1.453 1.714s-.441-.785-1.168-1.914c-.367-.574-.801-1.226-1.269-1.918-.242-.347-.481-.711-.739-1.066-.253-.359-.511-.723-.777-1.094-.262-.359-.527-.719-.785-1.074-.262-.359-.527-.703-.777-1.039-.512-.668-.996-1.285-1.418-1.809-.2-.246-.387-.472-.551-.672l3.695-5.632c.688-.106 1.36-.219 2.024-.27.449-.043.886-.101 1.332-.129.441-.027.875-.054 1.304-.078l.321-.031.164-.004c.011 0-.024-.012.011-.012h.121c.223 0 .434.012.649.012.426 0 .851.023 1.269.023.418-.015.817.012 1.211.039.387.024.778.043 1.161.067 3.062.25 5.718.812 7.871 1.402 2.136.641 3.785 1.258 4.89 1.742 1.102.489 1.688.75 1.688.75s-.555-.324-1.606-.921c-1.054-.583-2.644-1.383-4.765-2.2-2.137-.769-4.789-1.582-7.95-2.035-.398-.051-.804-.105-1.21-.156-.415-.055-.833-.113-1.247-.129-.418-.027-.832-.055-1.265-.082-.211-.016-.426-.027-.641-.043l-.086-.004h-.039c.008-.004-.055-.004-.062-.004h-.168l-.34-.004c-.449-.004-.899-.004-1.359-.008-.461.004-.922.043-1.395.059-.945.027-1.902.16-2.887.25-1.957.269-3.98.668-6.039 1.246-2.051.59-4.125 1.402-6.176 2.386-2.046.996-4.078 2.184-6.031 3.586-1.945 1.395-3.801 3.024-5.527 4.828-1.727 1.801-3.313 3.805-4.707 5.969-1.41 2.16-2.617 4.488-3.59 6.938-.977 2.441-1.727 5.008-2.199 7.629l-.176.984c-.059.328-.09.66-.137.992l-.125.992c-.047.332-.058.676-.082 1.016-.055.676-.109 1.375-.113 1.996l-.012.965.008.238.039.121v.11l-.039.062-.047.5c.043 2.672.352 5.348.906 7.953.551 2.614 1.387 5.149 2.43 7.563 2.094 4.836 5.121 9.156 8.684 12.652 3.554 3.52 7.652 6.195 11.804 8.067 2.075.937 4.18 1.66 6.246 2.187.516.137 1.036.27 1.547.363.516.102 1.02.219 1.528.301.507.078 1.015.156 1.511.234.5.079 1 .106 1.493.165.242.027.48.05.73.074.238.023.488.027.73.043.489.023.969.047 1.446.07h2.043c.226-.016.465-.031.695-.047.445-.027.883-.058 1.316-.086.223-.015.438-.027.649-.043.219-.015.426-.054.641-.078.414-.055.832-.109 1.234-.168.207-.031.41-.055.613-.078l.297-.043.293-.062c3.145-.52 5.77-1.454 7.875-2.282.523-.226 1.016-.437 1.477-.64.117-.051.23-.098.347-.149.106-.054.211-.109.317-.164.211-.105.414-.215.605-.316.785-.406 1.453-.735 1.961-1.063 1.024-.629 1.578-.965 1.578-.965s-.582.278-1.668.797c-.539.282-1.234.543-2.035.875-.793.344-1.75.649-2.805 1.004-.523.196-1.097.332-1.691.492-.301.082-.598.157-.914.247-.152.035-.309.082-.469.117-.164.035-.324.066-.488.097-.656.129-1.34.262-2.051.403-.715.101-1.449.195-2.215.3l-.289.036-.293.015c-.054.004-.109.004-.164.008-.09-.234-.183-.492-.297-.762-.105-.238-.218-.492-.34-.738l5.454-7.172c.14-.019.308-.047.511-.086.309-.054.676-.132 1.106-.218.418-.098.902-.2 1.414-.344.519-.137 1.074-.289 1.66-.477.586-.175 1.203-.39 1.828-.621.317-.109.633-.238.953-.363.321-.129.645-.262.965-.395.641-.296 1.297-.578 1.938-.898.316-.168.632-.336.945-.5.16-.086.32-.16.473-.254.152-.09.308-.18.457-.266.601-.359 1.203-.714 1.75-1.109.277-.187.55-.379.812-.562.27-.176.5-.395.742-.579.477-.398.949-.734 1.324-1.125.391-.367.743-.711 1.051-1.015.27-.293.5-.563.692-.785l5.007 1.121s5.95-7.61 5.68-19.778" fill="#283894" fill-rule="nonzero"/></g></svg>