<svg clip-rule="evenodd" fill-rule="evenodd" stroke-linejoin="round" stroke-miterlimit="2" viewBox="0 0 560 400" xmlns="http://www.w3.org/2000/svg"><g transform="matrix(.790366 0 0 .790366 174.951 51.5269)"><g fill-rule="nonzero"><path d="m217.268 139.143c-2.636-1.921-5.762-4.244-7.192-5.629.76-1.295 2.1-3.305 3.306-5.003 6.968-10.139 20.1-29.257 20.1-56.639 0-15.724-5.717-32.742-19.564-45.83-13.848-13.088-35.691-22.201-67.763-22.201-30.419 0-64.635 10.006-94.25 27.472-13.222 7.906-24.166 16.348-31.804 24.523-7.638 8.129-12.061 15.946-12.061 22.647 0 3.26 1.251 6.253 3.618 8.576 4.333 4.244 11.972 6.209 21.754 7.281 9.782 1.027 21.709 1.072 34.574 1.072h2.278c19.788 0 33.769.536 42.703 1.831 4.467.67 7.683 1.519 9.648 2.502 2.01 1.027 2.636 2.055 2.68 3.171.045.447-.491 1.519-1.742 2.725-4.288 4.288-15.5 10.631-25.595 17.644-5.047 3.484-9.827 7.192-13.4 10.944-3.529 3.752-5.941 7.594-5.986 11.569v.179c.045 5.047 2.725 9.068 6.79 12.194 12.283 9.425 37.7 11.882 51.011 14.294 8.219 1.474 12.552 4.422 14.919 7.594 2.368 3.171 2.77 6.745 2.77 9.782 0 11.391-4.244 21.441-11.837 28.365-6.745 6.209-14.875 10.229-26.712 10.229h-1.43c.268-2.278.402-4.512.402-6.656 0-13.4-5.27-24.612-14.249-32.384-8.933-7.773-21.53-12.15-36.137-12.15-18.001 0-32.474 7.459-42.39 18.582-9.917 11.122-15.277 25.774-15.321 40.246 0 22.781 10.497 45.652 30.955 62.76 20.458 17.152 50.877 28.543 90.722 28.543 31.58 0 63.429-10.408 87.55-28.543 19.967-15.054 43.82-42.436 43.82-87.417 0-41.229-27.605-61.598-42.167-72.273m-125.697 2.903c4.422-4.422 13.534-10.631 20.324-14.964 6.655-4.288 12.641-8.13 17.063-11.926 4.378-3.842 7.236-7.728 7.236-12.24 0-3.528-1.384-6.789-3.975-9.38-4.646-4.556-12.865-6.7-23.138-7.862-10.274-1.116-22.603-1.161-35.378-1.161h-3.529c-10.541 0-18.939-.134-25.639-.402 9.291-3.618 20.1-9.381 31.848-15.634 19.074-10.185 40.157-21.486 60.035-26.533-4.601 5.226-7.549 11.122-7.594 16.214 0 1.251.402 2.591 1.34 3.619.983 1.027 2.502 1.742 4.556 1.742 3.529 0 7.505-1.385 12.106-2.814 6.208-2.055 13.4-4.378 21.306-4.378 6.879 0 14.339 1.742 22.29 7.058-5.271.357-9.604 1.876-12.284 4.02-2.948 2.278-3.663 4.824-3.618 6.611.045 2.903 2.055 5.137 4.601 8.04 4.109 4.601 9.425 10.631 9.47 20.369 0 7.102-2.725 14.651-6.745 20.413 0-.402.044-.848.044-1.25 0-4.958-1.116-10.497-3.797-13.669-1.652-1.831-3.796-2.903-6.253-2.903-4.154.044-7.772 3.216-13.133 7.638-3.796 3.127-8.531 7.147-14.472 10.899-25.104 15.813-38.549 21.932-48.064 22.692-3.618.178-8.889.089-4.6-4.199zm23.004 96.707c14.115 0 25.908-4.288 35.02-12.641 9.738-8.844 15.277-22.111 15.277-36.36 0-6.834-2.144-12.507-6.031-16.885 21.039 5.048 42.927 15.858 55.077 32.117-5.45-1.787-9.247-2.233-13.133-2.233-3.931.044-7.058 4.154-7.058 8.844 0 2.457.939 5.226 2.055 8.71 1.742 5.405 4.02 12.373 4.02 20.682 0 7.683-1.92 16.482-7.951 26.31-.178-7.951-2.322-14.294-5.047-17.689-2.144-2.636-4.467-3.306-6.03-3.261-2.502 0-4.467 1.251-6.075 3.127-1.653 1.921-3.038 4.467-4.646 7.415-5.807 10.408-14.919 26.98-43.418 35.556 2.591-4.467 3.931-9.023 3.931-12.641 0-1.43-.223-2.77-.67-3.886-.849-2.189-2.769-3.485-4.913-3.485h-.045c-3.127.134-6.745 1.117-10.944 2.323-6.566 1.832-14.517 4.065-23.272 4.065-9.068 0-18.984-2.367-29.169-10.095 3.529-.536 6.656-1.787 8.934-3.708 1.876-1.608 3.037-3.707 3.037-5.896-.044-3.35-2.68-5.628-5.672-8.353-4.378-4.109-9.56-8.933-9.56-17.108 0-2.367.447-5.003 1.475-7.996.938 2.591 2.278 4.914 4.02 6.879 2.68 2.859 5.851 4.646 8.978 4.646 3.261.045 5.226-1.519 6.03-3.484.849-1.966.804-4.244.804-5.986 0-2.01.938-3.931 2.412-5.36 1.519-1.429 3.529-2.323 5.629-2.323 4.779 0 8.442 2.68 10.988 6.656 2.502 3.975 3.842 9.291 3.842 14.249 0 3.082-.492 6.03-1.519 8.487l-1.072 2.636 2.278-1.742c4.288-3.351 7.638-8.085 9.202-11.525.938-.045 2.099-.045 3.216-.045zm-93.313-157.054c-1.474-.894-2.412-1.832-2.412-3.216 0-3.887 3.708-10.095 10.497-16.885 20.458-20.503 67.807-46.902 116.808-46.857 24.792 0 44.982 6.119 58.382 17.599 11.614 9.916 18.002 23.942 18.002 39.532 0 23.987-11.301 40.514-18.18 50.52-3.529 5.047-5.584 8.04-5.629 11.435 0 2.68 1.296 4.914 3.35 7.058 2.1 2.144 5.048 4.332 8.666 7.013 14.294 10.586 37.745 27.828 37.745 63.474 0 40.514-21.396 65.126-39.442 78.706-22.2 16.75-51.771 26.354-81.029 26.354-73.033-.045-110.823-40.648-110.823-80.448 0-11.837 4.423-23.898 12.463-32.965 8.085-9.068 19.743-15.188 34.395-15.188h.044c8.175 0 18.538 1.921 26.757 7.415s14.383 14.473 14.383 29.035v1.25c-.715-1.652-1.742-3.439-3.171-5.181-2.948-3.618-7.683-6.834-14.652-6.834-7.861 0-14.517 6.432-14.517 14.115 0 1.429-.179 2.323-.357 2.769-.045.179-.134.268-.179.313-1.921-.045-4.199-1.385-5.986-3.975-1.831-2.636-3.171-6.567-3.171-11.57 0-.982.045-2.054.179-3.126l.223-2.323-1.563 1.742c-7.371 8.219-10.051 15.634-10.051 22.066 0 10.497 7.058 17.957 11.257 21.843.759.715 1.697 1.563 2.456 2.323.358.402.67.759.894 1.027.089.134.178.268.223.358 0 .044.045.044.045.089-.045.402-.849 1.385-2.77 2.144-2.099.893-5.449 1.563-10.273 1.563-1.653 0-3.529-.089-5.539-.268l-1.832-.178 1.162 1.429c13.981 16.661 29.436 21.218 42.837 21.218 9.872 0 18.671-2.457 25.014-4.244 2.68-.759 5.673-1.876 7.326-1.876.715 0 .983.179 1.117.357.134.179.312.626.268 1.251 0 1.921-1.117 5.45-3.038 9.068s-4.601 7.415-7.549 10.095l-1.787 1.608 2.412-.313c40.872-5.271 54.496-28.945 61.241-41.139 1.117-2.055 2.189-3.931 3.127-5.271.938-1.385 1.831-2.055 2.055-1.966.357 0 1.027.358 1.697 1.34 2.01 2.993 3.707 10.453 3.707 18.225 0 3.35-.312 6.834-1.027 10.006l-.491 2.367 1.787-1.652c15.41-14.294 19.654-29.303 19.654-41.81 0-9.559-2.457-17.689-4.199-22.915-.938-2.904-1.742-5.494-1.742-6.745 0-1.027.178-1.564.402-1.832.178-.268.536-.446 1.206-.625 6.521 0 14.249 2.323 23.54 6.745l1.832.849-.804-1.832c-12.597-29.481-40.649-42.122-67.941-49.001-13.669-3.44-27.203-5.494-38.594-7.46-8.264-1.429-15.455-2.858-20.682-4.735-.848-.357-1.742-.759-2.546-1.161 15.59-1.965 34.44-12.954 51.191-23.719 6.298-4.02 11.167-8.13 15.053-11.39 2.055-1.698 3.931-3.261 5.539-4.378 1.563-1.161 2.948-1.787 3.529-1.742.58 0 1.027.223 1.563.804 1.519 1.653 2.457 6.209 2.412 11.212 0 4.02-.536 8.308-1.519 11.792l-.536 1.921 1.698-1.072c13.266-8.532 19.654-21.486 19.654-33.591 0-12.15-6.745-19.743-11.078-24.612-.67-.759-1.429-1.653-2.055-2.412-.491-.626-.893-1.251-1.027-1.474.089-.313.447-.938 1.206-1.474 2.769-2.1 7.549-3.395 13.043-3.35 2.814 0 5.807.312 8.845 1.027l2.099.491-1.295-1.697c-11.436-14.696-24.568-18.895-36.271-18.895-9.202 0-17.555 2.591-23.63 4.556-2.948.983-7.058 2.234-8.844 2.234-.224 0-.402 0-.492-.045.045-2.144 1.564-5.762 4.512-9.559 2.993-3.931 7.415-8.13 13.088-11.525l2.055-1.25-2.413-.179c-1.027-.089-2.099-.134-3.216-.134-23.495.045-53.825 17.108-76.204 28.633-13.982 7.37-43.284 24.344-52.084 19.118z"/><path d="m16.349 345.958v-5.718h25.461v5.718h-9.291v25.327h-6.835v-25.327z"/><path d="m50.073 340.24v11.703h.134c.804-1.295 1.787-2.278 2.993-2.858 1.206-.581 2.412-.894 3.574-.894 1.652 0 2.993.224 4.065.67 1.072.447 1.876 1.072 2.501 1.876s1.027 1.787 1.295 2.904.358 2.412.358 3.797v13.847h-6.165v-12.731c0-1.831-.268-3.26-.848-4.154-.581-.893-1.608-1.384-3.082-1.384-1.698 0-2.904.491-3.663 1.518-.76.983-1.117 2.636-1.117 4.914v11.792h-6.209v-31.089h6.164"/><path d="m73.792 348.817v4.154h.09c.268-.67.67-1.34 1.161-1.921.492-.581 1.072-1.117 1.698-1.519.625-.446 1.34-.759 2.054-.982.715-.224 1.474-.358 2.278-.358.402 0 .849.09 1.34.224v5.762c-.268-.045-.625-.089-1.027-.134s-.804-.045-1.161-.045c-1.117 0-2.1.179-2.859.581s-1.429.893-1.876 1.563c-.492.67-.804 1.43-1.028 2.278-.223.894-.312 1.832-.312 2.815v10.139h-6.164v-22.513h5.806"/><path d="m90.677 365.88c.938.893 2.278 1.34 4.02 1.34 1.251 0 2.323-.313 3.216-.938.894-.625 1.475-1.295 1.653-1.965h5.405c-.849 2.68-2.189 4.645-4.02 5.762-1.787 1.161-3.976 1.742-6.522 1.742-1.786 0-3.35-.268-4.779-.849-1.43-.58-2.636-1.384-3.618-2.412-.983-1.027-1.742-2.278-2.278-3.752-.537-1.474-.805-3.037-.805-4.78 0-1.697.268-3.26.805-4.69.536-1.474 1.34-2.725 2.367-3.752 1.027-1.072 2.233-1.876 3.618-2.501 1.385-.626 2.948-.938 4.69-.938 1.921 0 3.574.357 5.003 1.116 1.43.76 2.591 1.742 3.484 2.993.938 1.251 1.564 2.68 2.01 4.288.402 1.608.536 3.261.447 5.003h-16.215c.045 2.01.581 3.484 1.519 4.333m6.968-11.837c-.714-.804-1.876-1.206-3.35-1.206-.982 0-1.831.179-2.456.491-.626.358-1.162.76-1.564 1.251s-.67 1.027-.804 1.563c-.179.536-.268 1.028-.268 1.474h10.051c-.358-1.563-.894-2.724-1.609-3.573z"/><path d="m114.798 365.88c.938.893 2.278 1.34 4.02 1.34 1.251 0 2.323-.313 3.216-.938.894-.625 1.43-1.295 1.653-1.965h5.45c-.849 2.68-2.189 4.645-4.02 5.762-1.787 1.161-3.976 1.742-6.522 1.742-1.787 0-3.35-.268-4.78-.849-1.429-.58-2.635-1.384-3.618-2.412-.982-1.027-1.742-2.278-2.278-3.752s-.804-3.037-.804-4.78c0-1.697.268-3.26.849-4.69.536-1.474 1.34-2.725 2.367-3.752 1.028-1.072 2.234-1.876 3.618-2.501 1.385-.626 2.949-.938 4.691-.938 1.92 0 3.573.357 5.003 1.116 1.429.76 2.59 1.742 3.484 2.993.938 1.251 1.563 2.68 1.965 4.288s.536 3.261.447 5.003h-16.215c.045 2.01.536 3.484 1.474 4.333m7.013-11.837c-.715-.804-1.876-1.206-3.35-1.206-.983 0-1.787.179-2.457.491-.67.358-1.161.76-1.563 1.251s-.67 1.027-.849 1.563-.268 1.028-.268 1.474h10.051c-.313-1.563-.849-2.724-1.564-3.573z"/></g><path d="m132.621 364.585h6.834v6.7h-6.834z"/><path d="m153.838 352.837c-.982 0-1.831.223-2.456.67-.67.447-1.206 1.027-1.653 1.742-.402.715-.715 1.519-.893 2.367-.179.849-.268 1.698-.268 2.546 0 .805.089 1.653.268 2.502.178.849.446 1.608.848 2.278s.938 1.251 1.608 1.653c.67.446 1.474.67 2.457.67 1.474 0 2.636-.402 3.44-1.251.804-.804 1.295-1.921 1.518-3.35h5.941c-.402 2.993-1.563 5.271-3.484 6.834-1.921 1.564-4.377 2.368-7.37 2.368-1.698 0-3.216-.268-4.646-.849-1.384-.581-2.591-1.34-3.573-2.368-.983-1.027-1.742-2.233-2.323-3.618-.536-1.429-.804-2.948-.804-4.645 0-1.742.268-3.35.759-4.869.492-1.474 1.251-2.77 2.234-3.886.982-1.072 2.189-1.921 3.618-2.546 1.429-.626 3.037-.938 4.869-.938 1.34 0 2.635.178 3.841.536 1.251.357 2.323.893 3.306 1.608.982.714 1.787 1.608 2.367 2.635.581 1.072.938 2.323 1.028 3.752h-6.031c-.402-2.546-1.965-3.841-4.601-3.841" fill-rule="nonzero"/><path d="m167.373 355.16c.536-1.474 1.34-2.725 2.367-3.753 1.028-1.027 2.234-1.831 3.663-2.412 1.43-.58 3.038-.848 4.78-.848 1.787 0 3.395.268 4.824.848 1.429.581 2.68 1.34 3.663 2.412 1.027 1.028 1.787 2.279 2.367 3.753.536 1.474.849 3.082.849 4.913 0 1.787-.268 3.44-.849 4.869-.536 1.474-1.34 2.68-2.367 3.707-1.028 1.028-2.234 1.832-3.663 2.368s-3.037.804-4.824.804-3.35-.268-4.78-.804c-1.429-.581-2.635-1.34-3.663-2.368-1.027-1.027-1.786-2.278-2.367-3.707-.536-1.429-.849-3.082-.849-4.869.045-1.787.313-3.439.849-4.913m5.628 7.549c.179.848.492 1.608.894 2.322.402.67.982 1.206 1.652 1.608.715.402 1.564.626 2.591.626 1.028 0 1.921-.224 2.636-.626.714-.402 1.295-.938 1.697-1.608.447-.67.715-1.474.893-2.322.179-.849.268-1.742.268-2.636 0-.893-.089-1.787-.268-2.68-.178-.849-.491-1.653-.893-2.278-.402-.67-.983-1.206-1.697-1.653-.715-.446-1.608-.625-2.636-.625-1.027 0-1.921.223-2.591.625-.714.447-1.25.983-1.652 1.653s-.715 1.429-.894 2.278c-.178.893-.268 1.742-.268 2.68 0 .894.09 1.787.268 2.636z" fill-rule="nonzero"/><path d="m192.611 364.585h6.834v6.7h-6.834z"/><g fill-rule="nonzero"><path d="m218.385 371.285v-3.127h-.134c-.805 1.296-1.787 2.234-3.038 2.814-1.251.581-2.546.894-3.841.894-1.653 0-3.038-.224-4.065-.67-1.072-.447-1.876-1.028-2.502-1.832-.625-.804-1.027-1.787-1.295-2.903-.268-1.162-.357-2.412-.357-3.797v-13.847h6.164v12.686c0 1.876.268 3.26.893 4.154.581.893 1.608 1.384 3.082 1.384 1.698 0 2.904-.491 3.663-1.518.759-.983 1.117-2.636 1.117-4.959v-11.792h6.164v22.513z"/><path d="m233.438 340.24v16.662l7.772-8.085h7.326l-8.487 8.263 9.425 14.205h-7.46l-6.209-10.05-2.367 2.322v7.728h-6.209v-31.045z"/></g></g></svg>