<svg clip-rule="evenodd" fill-rule="evenodd" stroke-miterlimit="10" viewBox="0 0 560 400" xmlns="http://www.w3.org/2000/svg"><g fill-rule="nonzero" transform="matrix(.945481 0 0 .945481 160.302 9.47948)"><path d="m53.221 338.325c-20.887-29.162-32.388-68.16-32.388-109.82 0-41.654 11.501-80.658 32.388-109.821 19.924-27.818 45.982-43.138 73.379-43.138 27.396 0 53.455 15.32 73.378 43.138 20.887 29.163 32.388 68.167 32.388 109.821 0 41.653-11.501 80.658-32.388 109.82-19.923 27.819-45.982 43.139-73.378 43.139-27.397.007-53.455-15.314-73.379-43.139z" fill="#ca9f54"/><path d="m56.292 333.736c-20.011-27.945-31.03-65.317-31.03-105.224 0-39.914 11.019-77.286 31.036-105.225 19.088-26.654 44.063-41.339 70.315-41.339 26.253 0 51.221 14.679 70.315 41.339 20.01 27.945 31.029 65.317 31.029 105.225 0 39.914-11.019 77.285-31.029 105.224-19.088 26.654-44.062 41.339-70.315 41.339-26.259 0-51.234-14.678-70.321-41.339z" fill="#3b54a4"/><path d="m88.566 21.549 6.971 16.692 18.023 1.472-13.715 11.788 4.168 17.602-15.447-9.407-15.455 9.407 4.168-17.602-13.715-11.788 18.03-1.472z" fill="#ca9f54"/><path d="m164.647 21.549 6.971 16.692 18.024 1.472-13.715 11.788 4.168 17.602-15.448-9.407-15.454 9.407 4.168-17.602-13.715-11.788 18.023-1.472z" fill="#ca9f54"/><path d="m115.367 337.543v-6.349c-.368.341-1.091.923-2.175 1.277v-1.525c.174-.06 1.967-.749 2.496-2.234h1.378v8.831z" fill="#fff"/><path d="m121.227 335.322c.027.207.134.97.984.97 1.177 0 1.291-1.526 1.351-2.429l-.026-.027c-.542.663-1.218.723-1.533.723-1.384 0-2.569-1.131-2.569-2.877 0-1.753 1.144-2.97 2.824-2.97.776 0 2.1.281 2.716 2.027.268.776.334 1.585.334 2.408 0 .796 0 4.543-3.204 4.543-.783 0-1.546-.295-2.027-.957-.335-.468-.428-.97-.469-1.231zm.944-5.206c-1.084 0-1.084 1.325-1.084 1.573 0 .207 0 1.645 1.164 1.645.221 0 1.157-.086 1.157-1.498.007-.87-.428-1.72-1.237-1.72z" fill="#fff"/><path d="m132.634 337.543h-5.907c.134-1.305.783-2.221 2.469-3.794 1.177-1.09 1.746-1.619 1.752-2.468-.013-1.071-.836-1.165-1.144-1.165-.782 0-1.144.482-1.204 1.379l-1.679-.174c.047-.415.174-1.338.87-1.94.602-.502 1.451-.663 2.047-.663 2.04 0 2.79 1.352 2.79 2.456 0 1.532-1.118 2.569-1.974 3.351-.856.797-1.144 1.057-1.378 1.452h3.352v1.566z" fill="#fff"/><path d="m139.646 330.498c.354.983.381 2.101.381 2.716 0 .562-.013 1.679-.381 2.663-.355.983-1.071 1.82-2.469 1.82-1.412 0-2.134-.823-2.495-1.793-.368-.984-.368-2.101-.368-2.717 0-.588.013-1.706.368-2.676.367-.97 1.077-1.793 2.482-1.793 1.398 0 2.114.81 2.482 1.78zm-3.56 2.709c0 2.335.281 3.085 1.084 3.085.81 0 1.091-.763 1.091-3.085 0-2.335-.281-3.097-1.091-3.097-.803.006-1.084.756-1.084 3.097z" fill="#fff"/><path d="m205.056 312.655v-103.525l.007-.582c6.289 2.629 12.504 5.593 18.652 8.871l.322.181c.187 3.606.281 7.245.281 10.905 0 30.962-6.738 60.333-19.235 84.779z" fill="#fff" stroke="#cca056"/><path d="m142.977 368.82v-175.439l.409.007c9.64.796 19.18 2.288 28.594 4.462l.334.074v156.11l.007.576c-9.193 7.218-19.094 12.209-29.37 14.785z" fill="#fff" stroke="#cca056"/><path d="m47.608 208.775c-6.055 2.556-12.043 5.406-17.957 8.564l-.475.314c-.187 3.593-.281 7.212-.281 10.852 0 30.902 6.711 60.219 19.161 84.645l.094-.502v-104.087z" fill="#fff" stroke="#cca056"/><path d="m80.899 197.93v156.111l-.007.575c9.192 7.212 19.087 12.203 29.35 14.786l-.013-.469v-175.552l-.408.007c-9.561.789-19.007 2.261-28.34 4.409z" fill="#fff" stroke="#cca056"/><path d="m29.297 217.533c1.692-27.323 8.697-52.994 20.311-74.59l.395.154c23.215 9.942 49.187 15.508 76.597 15.508 27.557 0 53.656-5.62 76.964-15.662l.208.341c11.5 21.516 18.445 47.04 20.131 74.209l-.288-.127c-28.781-15.221-61.122-24.433-97.015-24.433-35.827 0-68.12 9.179-96.862 24.352z" fill="#fff" stroke="#cca056"/><path d="m128.172 215.82c14.27 0 25.075-2.515 38.482-9.119-2.181 8.551-7.045 29.805-8.135 52.873-.696 1.767-4.516 11.715-8.497 27.524-1.96 7.794-2.937 15.976-2.937 23.951 0 9.219 1.305 18.151 3.887 25.871 2.275 6.784 6.557 15.796 9.226 21.162-11.788-4.703-23.162-5.366-32.026-5.366-8.871 0-20.238.669-32.026 5.366 2.662-5.366 6.951-14.378 9.226-21.162 2.582-7.72 3.887-16.652 3.887-25.871 0-7.975-.977-16.157-2.931-23.951-3.974-15.809-7.794-25.751-8.496-27.524-1.091-23.074-5.955-44.322-8.136-52.873 13.401 6.597 24.206 9.119 38.476 9.119z" fill="#ca9f54"/><path d="m115.782 274.808v-7.092c-.255-.046-.596-.147-.863-.434-.228-.248-.348-.576-.348-.964 0-1.284 1.525-1.284 2.749-1.284h.348v-13.568c0-.442.228-.83.562-1.037l.06-.027v-11.367l-.006-.046c-.081-.061-.154-.134-.221-.208-.555-.676-.368-1.525-.194-1.846.134-.268.341-.482.595-.609l.047-.067 9.326-15.408.268-.448 9.594 15.849.047.067c.254.127.461.348.595.609.174.321.368 1.164-.194 1.846-.067.081-.14.148-.221.208l-.006.073v11.334l.026.013c.355.194.596.596.596 1.057v13.568h.348c1.224 0 2.749 0 2.749 1.285 0 .381-.12.715-.348.963-.267.288-.608.395-.863.435v7.219l.054.026c1.592.107 2.502.536 2.502 2.094 0 1.185-1.01 2.309-1.345 2.65v52.17c.957.763 1.278 1.686 1.278 3.754 0 .628-.047 1.264-.401 1.619-.288.287-.669.294-.937.274h-26.935c-.267.027-.662.02-.957-.274-.354-.355-.401-.991-.401-1.619 0-2.074.321-2.991 1.278-3.754v-52.17c-.341-.348-1.345-1.465-1.345-2.65 0-1.579.937-2 2.569-2.1zm16.31-35.579v10.979l.007.067h3.606l.067-.007v-11.039zm-7.974 10.952v-10.938h-3.68v11.039l.06-.007h3.613zm2.147.094h3.673l.007-.087v-10.892l-.007-.06h-3.673z" fill="#3b54a4"/><g fill="#fff"><path d="m123.964 254.918-4.416-3.867-.08-.067h8.423l-.007.067v2.201l-.1.014c-1.499.08-2.837.715-3.773 1.692z"/><path d="m132.186 254.951c-.943-.976-2.295-1.619-3.8-1.685h-.074v-2.228l-.006-.054h8.423l-.127.114-4.369 3.82z"/><path d="m116.571 267.241c-.923 0-1.418-.374-1.351-.923.073-.568.95-.582 2.1-.582h21.57c1.15 0 2.034.014 2.1.582.067.549-.428.923-1.351.923z"/><path d="m120.284 236.774c-.843-.007-1.144.007-1.499.167-.354.168-.555.79-.314 1.271.12.194.328.322.562.322h18.144c.234 0 .442-.128.562-.322.241-.481.033-1.103-.314-1.271-.355-.167-.656-.174-1.499-.167z"/><path d="m136.2 250.275v-10.965l.007-.067h.97c.107 0 .214-.014.314-.04v11.079l-.04.006h-1.191z"/><path d="m131.658 239.236v11.039h-1.278l-.007-.074v-10.965z"/><path d="m119.247 236.326h17.709l-.04-.08c-1.9-3.138-8.376-13.836-8.811-14.552-.442.723-7.025 11.601-8.858 14.632z"/><path d="m123.054 258.337c0-2.543 2.268-4.61 5.051-4.61s5.051 2.067 5.051 4.61c0 2.542-2.268 4.609-5.051 4.609s-5.051-2.067-5.051-4.609zm7.199 1.639c-.603-.549-1.566-1.418-1.8-1.626.261-.214 1.331-1.097 1.913-1.585l.241-.529-.488.141-2.362 1.953 2.221 2.014.636.281z"/><path d="m114.256 278.22c.281.475.649.883.843 1.064l.06.033h25.918l.027-.033c.194-.181.562-.582.843-1.057l-.087-.007z"/><path d="m114.015 277.745c-.093-.227-.147-.461-.147-.682 0-.823.154-1.332 2.248-1.412h23.985c2.087.08 2.234.582 2.234 1.412 0 .221-.053.448-.147.675l-.087.021h-28.005z"/><path d="m114.035 334.01c-.073.422-.1.95-.1 1.626 0 .388.02.93.194 1.097.027.027.12.121.495.087h8.61l.007-.107v-2.643l-.007-.066h-9.132z"/><path d="m115.012 332.378c-.428.321-.696.662-.863 1.164h9.092l-.007-.074v-1.043l-.006-.081h-8.189z"/><path d="m124.88 336.713v-6.503c-.02-.936.101-2.221.81-3.01.515-.576 1.331-.87 2.415-.87s1.9.294 2.415.87c.709.789.83 2.047.81 2.97v6.57l-.007.087h-6.436z"/><path d="m123.669 336.747v-6.544c-.04-1.685.362-3.044 1.158-3.927.756-.843 1.86-1.264 3.278-1.264 1.425 0 2.529.428 3.285 1.264.796.883 1.191 2.242 1.157 3.927v6.53l-.006.101h-.776v-6.651c.02-1.003-.121-2.395-.93-3.305-.603-.669-1.519-1.01-2.723-1.01-1.205 0-2.121.341-2.723 1.01-.643.716-.964 1.874-.93 3.339v6.509l.006.108h-.782z"/><path d="m142.188 334.111c.06.408.087.896.087 1.525 0 .388-.02.93-.194 1.097-.027.027-.12.121-.468.087h-8.638v-2.81h9.2z"/><path d="m142.027 333.455c-.16-.455-.421-.769-.822-1.071l-.047-.04h-8.189v1.198h9.078z"/><path d="m124.546 250.275v-11.039h1.284v11.039z"/><path d="m119.93 250.275h-1.171l-.04-.007v-11.012l.006-.06c.101.027.201.04.308.04h.977v11.032z"/><path d="m133.571 257.909c-.087-.971-.468-1.86-1.064-2.603l.034-.047 4.837-4.228.08-.054c.241 0 .442.215.442.482v6.61l-.047.007h-4.269z"/><path d="m118.317 265.027v-6.483h4.202l.107.007c.047 1.023.421 1.967 1.03 2.75l-.094.08-4.302 3.592-.066.054z"/><path d="m118.317 258.069v-6.61c0-.267.201-.482.442-.482l.067.041 4.823 4.221.067.054c-.635.782-1.03 1.746-1.09 2.783h-4.242z"/><path d="m128.319 265.034v-1.539l.007-.074c1.565-.06 2.964-.729 3.92-1.753l.074.061 3.84 3.204.134.114h-7.895z"/><path d="m123.609 274.875v-3.164l.007-.074h-7.185v3.305h7.171z"/><path d="m132.166 274.801v-3.164h-8.122l-.007.053v3.185l.007.067h8.129z"/><path d="m132.601 274.942v-3.305h7.178v3.305z"/><path d="m128.319 271.028v-3.265l.007-.053h8.122v3.412l-.007.047h-8.115z"/><path d="m136.883 271.169v-3.459h2.896v3.459z"/><path d="m119.327 271.082v-3.285l.007-.087h-2.903v3.459h2.903z"/><path d="m119.762 271.095v-3.285l-.006-.1h8.135v3.459h-8.135z"/><path d="m123.87 261.722-3.874 3.231-.1.074h7.982v-1.612c-1.566-.054-2.971-.73-3.934-1.76z"/><path d="m133.578 258.631c-.061.997-.435 1.92-1.037 2.69l.08.053 4.295 3.586.094.08h.883v-6.489l-.067.007h-4.242z"/><path d="m132.835 328.397c.107.555.154 1.158.14 1.806v1.673h8.022v-3.573h-8.182z"/><path d="m119.327 324.329v3.426l.007.08h-4.114v-3.566l.066-.006h4.048z"/><path d="m132.601 283.358v-3.572h8.389v3.572z"/><path d="m123.609 283.298v-3.445l-.007-.067h-8.382v3.572h8.382z"/><path d="m124.037 283.271v-3.432l.007-.053h8.129l-.007.06v3.512h-8.122z"/><path d="m115.22 328.404v3.465h8.021l-.007-.067v-1.599c-.013-.648.034-1.257.141-1.813l.013-.087h-8.175z"/><path d="m136.448 327.755v-3.439l.006-.053h-8.135v.267l.074.02c1.405.054 2.515.529 3.305 1.405.441.489.769 1.104.983 1.82l.02.067h3.76z"/><path d="m136.883 327.835v-3.572h4.107v3.572z"/><path d="m127.817 324.263h-8.055v3.572h3.747l.02-.067c.214-.716.542-1.331.983-1.82.783-.869 1.887-1.344 3.285-1.404h.087v-.288z"/><path d="m127.536 285.787c0-.402.261-.749.569-.749s.569.341.569.749v2.803h-1.131c-.007-.549-.007-2.803-.007-2.803z"/><path d="m127.536 295.775c0-.401.261-.749.569-.749s.569.341.569.749v2.804h-1.131c-.007-.549-.007-2.804-.007-2.804z"/><path d="m119.327 303.503v-3.499h-4.107v3.572h4.114z"/><path d="m119.762 303.576v-3.572h8.122l.007.046v3.526z"/><path d="m136.883 303.576v-3.512l-.007-.06h4.114v3.572z"/><path d="m136.448 303.503v-3.432l-.007-.067h-8.115l-.007.046v3.526h8.135z"/><path d="m126.894 296.03v3.258h2.422v-3.325h2.85v3.572h-8.122l-.007-.1v-3.472h2.85z"/><path d="m132.601 299.535v-3.572h8.389v3.572z"/><path d="m123.609 299.455v-3.412l.007-.08h-8.396v3.566l.087.006h8.295z"/><path d="m119.327 295.387v-3.385l.007-.087h-4.114v3.579l.06-.006h4.054z"/><path d="m119.762 295.421v-3.506h8.122l.007.06v2.288l.007.087c-.475.101-.857.529-.97 1.078l-.014.06h-7.158z"/><path d="m136.883 295.407v-3.492h4.107v3.573h-4.114z"/><path d="m136.448 295.481v-3.519l-.007-.054h-8.122v2.436c.475.1.85.528.963 1.084l.007.053z"/><path d="m123.609 291.36v-3.412l-.007-.074h-8.322l-.06-.006v3.565l.093.014h8.289z"/><path d="m132.166 291.36v-3.486h-2.783l-.067-.006v1.431h-2.422v-1.431l-.074.006h-2.776l-.007.054v3.519h8.136z"/><path d="m132.601 291.447v-3.573h8.389v3.573z"/><path d="m136.448 283.833v3.473l-.007.1h-7.125v-1.619c0-.709-.428-1.305-.997-1.425v-.495l.007-.034z"/><path d="m119.327 287.332v-3.499h-4.041l-.066-.006v3.572l.066.007h4.048z"/><path d="m119.762 287.312v-3.439l-.006-.04h8.135l-.007.04v.489c-.568.12-.997.716-.997 1.425v1.612h-7.131z"/><path d="m136.883 287.406v-3.573h4.107v3.573z"/><path d="m127.536 305.764c0-.401.261-.749.569-.749s.569.341.569.749v2.803h-1.131c-.007-.548-.007-2.803-.007-2.803z"/><path d="m127.536 315.753c0-.402.261-.75.569-.75s.569.341.569.75v2.803h-1.131c-.007-.549-.007-2.803-.007-2.803z"/><path d="m132.166 320.275v3.519h-8.115l-.014-.107v-3.405l.007-.06h8.129z"/><path d="m132.601 320.222v3.572h8.389v-3.572z"/><path d="m123.609 323.707v-3.425l.007-.06h-8.396v3.566l.053.006h8.343z"/><path d="m126.894 315.639c.047-.75.575-1.338 1.211-1.338s1.151.582 1.211 1.318l.013.08h2.85l-.006-.08v-3.426l.006-.067h-8.142l.007.061v3.519h2.85z"/><path d="m132.601 315.599v-3.466h8.389v3.573h-8.382z"/><path d="m123.609 315.639v-3.446l-.007-.06h-8.382v3.573h8.382z"/><path d="m132.601 307.523v-3.478h8.389v3.572h-8.396z"/><path d="m124.037 307.617v-3.512l-.006-.06h8.128l.007.04v3.432l-.007.1h-2.85v-1.853c0-.803-.542-1.452-1.211-1.452s-1.211.649-1.211 1.452v1.853z"/><path d="m123.609 307.537v-3.419l.007-.073h-8.396v3.579l.1-.007h8.282z"/><path d="m136.883 311.665v-3.519l-.007-.054h4.114v3.573z"/><path d="m119.327 311.578v-3.432l.007-.054h-4.114v3.566l.06.007h4.054z"/><path d="m119.762 311.584v-3.492h7.119l.013.06v1.124h.99l.007.04v2.355l-.141-.006h-7.994z"/><path d="m128.319 311.658v-2.321l-.007-.061h1.004v-1.184h7.132v3.479l.006.094h-8.041z"/><path d="m136.883 319.747v-3.519l-.007-.054h4.114v3.573z"/><path d="m128.319 319.747h8.135l-.006-.047v-3.452l.006-.074h-7.085l-.053.007v3.084h-.997z"/><path d="m127.891 319.747h-8.129v-3.499l-.006-.074h7.138v3.091h.99z"/><path d="m119.327 319.653v-3.479h-4.208v3.573h4.215z"/></g><path d="m98.139 141.271c-.729.207-1.191.515-1.411.95-.181.368-.174.809.02 1.318.475 1.211 1.224 1.552 2.495 1.137l.816-.268 2.195-.702c7.379-2.194 15.796-3.352 24.339-3.352s16.96 1.158 24.339 3.352l2.195.702.816.268c1.278.415 2.02.074 2.502-1.137.1-.261.154-.509.154-.736 0-.208-.047-.402-.134-.582-.214-.435-.682-.75-1.425-.957l-.181-.054c.77-2.194 2.623-7.466 2.67-7.6.354-.2 1.833-1.07 2.776-2.254.589-.736 1.505-3.011 1.873-3.948l-.066-.033c-.656-.281-1.318-.555-1.987-.816 0 0-.094-.04-.094-.047.435-1.231 1.639-4.663 1.672-4.757.087-.08 1.86-1.726 1.86-1.726.342-.314.723-.91.87-1.345l1.157-3.432c.034-.107.054-.214.054-.314 0-.422-.274-.823-.702-.964l-2.074-.702c-.536-.181-1.118.1-1.292.629 0 0-.515 1.525-.642 1.9-.301-.1-1.037-.348-1.338-.448.127-.368.642-1.9.642-1.9.034-.107.054-.208.054-.315 0-.154-.034-.308-.107-.448-.121-.248-.335-.428-.596-.515l-2.074-.703c-.535-.18-1.11.107-1.291.629 0 0-.515 1.526-.642 1.894-.301-.101-1.037-.348-1.338-.449.127-.368.642-1.9.642-1.9.034-.1.054-.207.054-.314 0-.154-.034-.308-.107-.448-.121-.248-.335-.429-.596-.516l-2.074-.702c-.535-.181-1.11.1-1.291.629l-1.157 3.439c-.101.301-.161.722-.161 1.11 0 .174.013.348.04.489 0 0 .415 2.381.435 2.502-.027.073-1.124 3.331-1.867 5.533l-.107-.027c-1.083-.268-2.187-.515-3.291-.736l-.02.087-.863 2.06-.047.081c-.609-.107-1.218-.208-1.833-.308l-.007-.067.074-2.348-.081-.02c-1.318-.221-2.656-.415-3.994-.582l-.02.073-.642 2.195-.04.127c-.629-.067-1.265-.127-1.9-.181v-.174l.053-2.221v-.1c-.214-.02-.421-.04-.635-.061l-.007-.107v-6.623c.06-.1.816-1.452.816-1.452.208-.374.375-.997.375-1.425v-5.145c0-.515-.428-.936-.957-.936h-1.585c-.529 0-.957.421-.957.936v2.121h-1.592v-2.121c0-.515-.429-.936-.957-.936h-1.586c-.528 0-.956.421-.956.936v2.121h-1.593v-2.121c0-.515-.428-.936-.956-.936h-1.586c-.529 0-.963.421-.963.936v2.121h-1.593v-2.121c0-.515-.428-.936-.956-.936h-1.586c-.529 0-.957.421-.957.936v5.145c0 .428.168 1.051.375 1.425 0 0 .756 1.345.816 1.452v6.704l-.067.033c-.187.014-.374.034-.562.054l-.013.073.053 2.282.014.133c-.643.054-1.278.121-1.914.188l-.02-.067-.682-2.342-.087.02c-1.338.168-2.67.362-3.981.582v.121l.067 2.181-.007.12c-.615.094-1.231.201-1.839.308l-.041-.067-.903-2.161-.087.014c-1.104.227-2.214.475-3.298.742l-.047-.12c-.742-2.201-1.8-5.339-1.826-5.419.02-.114.435-2.503.435-2.503.026-.147.04-.314.04-.488 0-.388-.06-.809-.161-1.11l-1.157-3.439c-.181-.529-.756-.81-1.291-.629l-2.074.702c-.261.087-.475.275-.596.515-.067.141-.107.295-.107.449 0 .107.02.214.054.314 0 0 .515 1.526.642 1.9-.301.101-1.037.348-1.338.448-.127-.368-.642-1.9-.642-1.9-.174-.528-.756-.809-1.292-.628l-2.074.702c-.261.087-.475.274-.595.515-.067.141-.107.295-.107.448 0 .107.02.214.053.315 0 0 .516 1.525.643 1.9-.301.1-1.037.348-1.338.448-.128-.368-.643-1.9-.643-1.9-.18-.528-.756-.809-1.291-.629l-2.074.703c-.428.147-.702.542-.702.963 0 .107.02.214.053.315l1.158 3.438c.147.435.528 1.031.869 1.345 0 0 1.78 1.653 1.86 1.726.034.094 1.238 3.519 1.673 4.757l-.141.067c-.682.267-1.358.548-2.02.829l.04.087c.388.984 1.271 3.145 1.84 3.861.943 1.184 2.422 2.054 2.776 2.254.047.134 1.894 5.393 2.67 7.594z" fill="#3b54a4"/><path d="m149.092 139.491v-2.536l.094.021c2.054.521 4.054 1.11 5.974 1.772l.054.021-.776 2.207-.034.081-2.167-.703c-1.004-.301-2.027-.582-3.064-.85z" fill="#fff"/><path d="m151.909 134.768v2.622l.1.04c1.111.322 2.201.669 3.265 1.037l.047.007.823-2.348-.101-.04c-1.324-.469-2.682-.897-4.067-1.298z" fill="#fff"/><path d="m118.531 134.313v-2.596l.107-.013c.703-.054 1.405-.107 2.114-.148l-.02.114c-.073.662-.087 1.412-.073 2.302v.194l-.094.006c-.649.04-1.298.087-1.947.134z" fill="#fff"/><path d="m125.911 117.286v-2.301c0-.288.24-.522.542-.522h.301c.301 0 .541.234.541.522v2.301c0 .288-.24.522-.541.522h-.301c-.302-.007-.542-.241-.542-.522z" fill="#fff"/><path d="m122.157 114.142h1.693v-1.613h-5.854l-.08.007c.026.074.06.147.093.201l.783 1.398h1.927l.06-.04c.147-.08.321-.134.509-.134h.301c.187 0 .368.054.522.141z" fill="#fff"/><path d="m120.746 117.286v-2.301c0-.288.241-.522.542-.522h.301c.301 0 .542.234.542.522v2.301c0 .288-.241.522-.542.522h-.301c-.301-.007-.542-.241-.542-.522z" fill="#fff"/><path d="m131.082 117.286v-2.301c0-.288.241-.522.542-.522h.301c.301 0 .542.234.542.522v2.301c0 .288-.241.522-.542.522h-.301c-.301-.007-.542-.241-.542-.522z" fill="#fff"/><path d="m117.695 110.462v-4.048c0-.247.207-.448.468-.448h1.586c.261 0 .468.201.468.448v2.61h2.569v-2.61c0-.247.214-.448.469-.448h1.585c.261 0 .468.201.468.448v2.61h2.576v-2.61c0-.247.214-.448.469-.448h1.585c.261 0 .468.201.468.448v2.61h2.569v-2.61c0-.247.208-.448.469-.448h1.585c.261 0 .469.201.469.448v4.048z" fill="#fff"/><path d="m126.754 112.155v-1.298l.006-.074h8.744v.79c0 .187-.046.434-.107.675l-.067-.006h-8.57z" fill="#fff"/><path d="m126.453 112.181v-1.411h-8.751v.783c0 .187.04.428.107.662l.107.007h8.543z" fill="#fff"/><path d="m132.514 114.142h1.806l.087.013.79-1.405c.033-.06.067-.127.1-.207l-.094-.007h-5.834l-.006.047v1.505l.006.06h1.686l.067-.04c.147-.08.321-.127.502-.127h.301c.187 0 .368.047.515.134z" fill="#fff"/><path d="m127.322 114.142h1.74l-.007-.061v-1.552h-4.897v1.499l.006.107h1.713l.054-.027c.154-.087.334-.14.522-.14h.301c.187 0 .361.047.515.134z" fill="#fff"/><path d="m132.842 117.895h1.485v-3.432l-.067-.007h-1.371l-.081.014c.094.153.147.327.147.521v2.302c0 .227-.08.441-.207.609z" fill="#fff"/><path d="m123.85 123.281v-5.085h-1.84c-.127.06-.274.087-.428.087h-.301c-.147 0-.288-.033-.415-.087l-.134-.007h-1.846l-.007.067v2.857h.1c.957-.08 1.914-.141 2.877-.187l.087-.014.341 2.409.021.1c.515-.02 1.03-.04 1.538-.053z" fill="#fff"/><path d="m129.363 123.374v-5.071l.006-.107h1.827l.067.027c.114.04.234.067.361.067h.301c.114 0 .228-.02.328-.054l.087-.04h1.98v2.79l.007.134c-1.017-.087-2.047-.154-3.078-.201l-.013.094-.328 2.348v.067c-.515-.02-1.03-.04-1.545-.054z" fill="#fff"/><path d="m129.055 123.24v-5.037h-1.786l-.094.006c-.127.054-.268.087-.415.087h-.301c-.154 0-.301-.033-.428-.093h-1.853l-.007.06v5.111h.087l.013-.113.121-2.295.02-.114h4.322l.107-.007.127 2.476.007.06h.087z" fill="#fff"/><path d="m127.63 117.815c.1-.154.154-.335.154-.529v-2.301c0-.201-.06-.382-.161-.536l.094.007h2.944l.08-.007c-.1.154-.161.342-.161.536v2.301c0 .228.074.435.201.602l-.094.014h-3.117z" fill="#fff"/><path d="m122.458 117.821c.101-.154.161-.341.161-.535v-2.301c0-.168-.04-.328-.114-.462l-.04-.067h3.011l.1.007c-.1.154-.154.334-.154.528v2.302c0 .201.06.388.161.542l.053.067h-3.231z" fill="#fff"/><path d="m118.886 117.808v-3.345l.093-.007h1.426l-.041.087c-.067.134-.107.288-.107.448v2.302c0 .194.061.381.161.535l.06.074h-1.585z" fill="#fff"/><path d="m97.209 143.365c-.147-.375-.16-.676-.04-.924.147-.301.522-.535 1.118-.702.013-.007 2.823-.917 2.823-.917 7.68-2.308 16.498-3.532 25.49-3.532 8.998 0 17.809 1.218 25.49 3.532l2.809.91c.603.174.984.408 1.131.709.121.241.107.542-.04.924-.381.976-.863 1.191-1.893.849l-.817-.267-2.207-.709c-7.427-2.208-15.89-3.372-24.48-3.372s-17.053 1.164-24.48 3.372l-2.207.709-.817.267c-1.017.342-1.492.127-1.88-.849z" fill="#fff"/><path d="m95.169 123.153-.542-1.599c-.047-.127-.033-.267.027-.394s.167-.214.301-.261l.247-.08c.268-.094.569.053.656.327l.542 1.599c.02.054.027.107.027.168 0 .08-.02.16-.054.234-.06.127-.167.221-.301.261l-.247.08c-.275.08-.569-.067-.656-.335z" fill="#fff"/><path d="m99.317 119.976c-.02-.054-.027-.107-.027-.168 0-.214.134-.421.355-.495l.247-.08c.274-.094.569.053.656.328l.535 1.599c.047.134.034.274-.027.394-.06.128-.167.221-.301.261l-.247.081c-.268.093-.569-.054-.656-.328z" fill="#fff"/><path d="m157.355 121.14c.093-.275.388-.415.655-.328l.248.08c.134.047.234.134.301.261.06.127.074.268.027.395l-.542 1.599c-.094.274-.388.415-.656.328l-.247-.081c-.134-.04-.234-.133-.301-.261-.034-.073-.054-.153-.054-.234 0-.053.007-.114.027-.167z" fill="#fff"/><path d="m152.692 121.896-.248-.081c-.127-.046-.234-.133-.301-.261-.06-.127-.074-.267-.027-.394l.542-1.599c.094-.275.388-.415.656-.328l.247.08c.215.074.355.275.355.495 0 .054-.007.114-.027.168l-.542 1.599c-.087.267-.381.414-.655.321z" fill="#fff"/><path d="m122.137 128.178c-9.386.408-18.318 2.107-26.152 4.937l-.12.047c-.335-.194-1.325-.796-2.135-1.599l.094-.047c9.581-3.867 20.914-5.947 32.782-5.947 11.882 0 23.229 2.087 32.816 5.967l.06.027c-.809.803-1.799 1.412-2.134 1.599l-.067-.027c-7.847-2.843-16.799-4.549-26.206-4.957l-.1-.007c-1.104-1.238-2.709-1.98-4.362-1.98-1.652 0-3.258.742-4.369 1.98z" fill="#fff"/><path d="m93.496 131.322c-.08-.087-.154-.174-.22-.261-.455-.568-1.158-2.228-1.586-3.285l-.034-.1c1.011-.428 2.048-.836 3.098-1.224l.04.08 1.158 2.174.067.121c.883-.315 1.779-.616 2.689-.903l-.007-.141-.174-1.927-.006-.073c.95-.328 1.92-.636 2.897-.93l.08-.027.936 1.96.027.047c.91-.241 1.827-.462 2.757-.676l-.02-.133-.201-2.028-.014-.12c.997-.248 2.014-.482 3.038-.696l.1-.013.897 2.147.033.061c.883-.161 1.773-.308 2.663-.442l-.014-.1-.066-2.221-.007-.101c1.024-.167 2.06-.321 3.097-.455l.121-.027.676 2.295.04.107c.916-.1 1.833-.187 2.756-.267l-.013-.147-.054-2.268-.006-.074c1.057-.094 2.12-.174 3.191-.228h.087l.334 2.362.027.134c.937-.047 1.887-.074 2.83-.094l.007-.093.12-2.322.014-.1h3.405l.1-.007.127 2.435v.094c.95.02 1.894.047 2.83.094l.034-.161.314-2.221.027-.114c1.09.06 2.188.134 3.265.234v.087l-.054 2.248-.013.161c.93.073 1.853.167 2.77.267l.033-.113.642-2.195.027-.087c1.051.134 2.101.288 3.138.455l.073.014-.073 2.268-.007.153c.89.134 1.78.281 2.656.442l.047-.107.856-2.047.027-.067c1.017.214 2.027.441 3.024.689l.121.027-.214 2.181v.113c.929.215 1.846.435 2.756.676l.04-.1.876-1.84.047-.074c.964.288 1.92.589 2.857.91l.114.034-.181 2.013-.013.134c.89.281 1.773.576 2.642.883l.061.02 1.237-2.321.027-.054c1.024.375 2.027.777 3.011 1.185l.087.04c-.422 1.05-1.158 2.79-1.626 3.378-.074.094-.147.181-.228.268l-.026-.02c-9.654-3.927-21.095-6.048-33.07-6.048-11.969 0-23.396 2.114-33.043 6.035z" fill="#fff"/><path d="m121.14 136.875v-2.91c-.033-2.215.107-3.506.977-4.837.977-1.485 2.737-2.449 4.483-2.449 1.753 0 3.512.964 4.482 2.449.87 1.331 1.01 2.616.977 4.83v2.904l.007.093c-.355-.02-.71-.04-1.064-.053l-.08-.013v-2.837c.033-2.235-.134-3.118-.797-4.095-.769-1.144-2.161-1.886-3.539-1.886s-2.763.742-3.539 1.886c-.655.977-.829 1.867-.796 4.115v2.817l-.074.013c-.354.013-.702.033-1.057.053z" fill="#fff"/><path d="m122.579 136.882v-2.81c-.034-2.181.127-3.031.742-3.947.716-1.064 2.001-1.753 3.285-1.753 1.278 0 2.569.689 3.285 1.753.616.916.776 1.759.743 3.92v2.83h-.074c-1.311-.053-2.629-.08-3.947-.08s-2.629.027-3.934.08z" fill="#fff"/><path d="m89.148 118.296-1.077-3.204c-.094-.268.06-.569.341-.663l2.074-.702c.281-.094.582.053.669.321l.796 2.362 2.261-.763-.796-2.362c-.04-.127-.033-.267.027-.388.067-.127.174-.227.314-.274l2.074-.702c.281-.094.582.046.669.321l.796 2.361 2.262-.762-.796-2.362c-.041-.127-.034-.268.026-.388.067-.127.174-.228.315-.274l2.074-.703c.281-.094.575.054.669.321l1.084 3.218.02.074-13.789 4.643z" fill="#fff"/><path d="m99.223 124.926-.595-1.773-.027-.087 5.158-1.739.06-.033.71 2.107.02.074c-.034.006-.067.02-.101.026l.02.127.208 2.068.006.087c-.649.154-1.297.314-1.94.475l-.053-.081-.93-1.946-.067.026c-.816.241-1.633.495-2.435.756z" fill="#fff"/><path d="m98.922 125.007-.602-1.787-.033-.046-5.092 1.712-.073.034.501 1.418.114-.033c.415-.161.83-.315 1.251-.469l.04.094 1.164 2.181.061.114c.642-.221 1.284-.442 1.933-.649l-.007-.094-.173-1.94-.014-.1c.321-.114.649-.221.97-.335z" fill="#fff"/><path d="m95.135 123.916-2.027.683-.087.033-.963-2.743.107-.04 1.88-.636.08-.02c-.033.174-.02.348.034.515l.542 1.599c.087.261.274.469.508.582z" fill="#fff"/><path d="m96.902 123.321 2.99-1.011-.127-.08c-.167-.12-.301-.294-.375-.502l-.541-1.599c-.061-.173-.067-.347-.034-.515l-.074.014-2.622.883-.094.033c.127.114.234.261.295.435l.542 1.599c.086.254.066.529-.054.769z" fill="#fff"/><path d="m101.498 121.769c.12-.241.14-.516.053-.77l-.535-1.599c-.06-.174-.154-.314-.281-.428l.054-.027 1.973-.662.047-.013.923 2.743-.073.04-2.047.689z" fill="#fff"/><path d="m98.989 119.226-1.519.509-.04-.121-.475-1.405-.033-.073 5.947-2.007.094-.027-.308 1.753.034.1-.04.027-2.295.776-.08-.02c-.174-.04-.362-.034-.542.027l-.248.08c-.181.06-.328.167-.441.294z" fill="#fff"/><path d="m94.232 120.825-2.187.736-.094.014-.034-.094-1.304-1.211.107-.04 5.927-2.001.02.074.469 1.392.047.133-1.466.495-.046.021c-.201-.061-.415-.067-.629.006l-.248.081c-.2.066-.374.194-.495.367z" fill="#fff"/><path d="m90.352 120.029-.381-.354c-.221-.208-.482-.576-.643-.904l-.033-.1 13.768-4.636.02.1c.074.355.087.81.041 1.111l-.087.515-.061.026-12.504 4.215z" fill="#fff"/><path d="m158.004 123.883c.227-.114.415-.315.502-.576l.541-1.599c.047-.14.061-.294.047-.441l-.006-.087 1.993.669.074.033-.964 2.737-.066-.02-2.021-.683z" fill="#fff"/><path d="m153.829 124.98c-.783-.254-1.579-.502-2.375-.736l-.047.087-.876 1.833-.054.1c-.649-.167-1.298-.327-1.953-.481l.013-.127.214-2.141-.1-.04.729-2.168.06.02 5.158 1.739-.02.101-.629 1.866z" fill="#fff"/><path d="m154.244 125.12.622-1.846.033-.1 5.119 1.726.06.013-.509 1.452-.107-.054c-.415-.16-.829-.314-1.244-.461l-.027.06-1.231 2.315-.08-.02c-.609-.214-1.231-.422-1.853-.623l-.007-.066.187-2.074-.1-.027c-.254-.087-.502-.174-.756-.261z" fill="#fff"/><path d="m154.404 119.708c.014.14 0 .281-.046.421l-.542 1.599c-.081.235-.241.422-.442.542l-.067.04 3.017 1.017.074.027c-.12-.241-.14-.515-.053-.769l.541-1.599c.047-.141.121-.261.221-.368l.074-.074-2.783-.936z" fill="#fff"/><path d="m152.411 119.046c-.094.1-.161.22-.208.354l-.542 1.599c-.073.221-.067.462.014.683.013.026.027.06.04.087l-2.181-.736-.054-.007.93-2.763.114.033 1.967.663z" fill="#fff"/><path d="m155.763 119.654.481-1.425.034-.087-6.035-2.033.013.093.288 1.666-.033.094.113.053 2.155.73.073.02c.194-.061.408-.061.616.006l.247.081c.208.073.375.2.495.368l.087.033 1.432.482z" fill="#fff"/><path d="m156.05 119.762.495-1.472.027-.054 5.974 2.014.047.02-1.304 1.211-.04.107-.061-.013-2.274-.77-.047-.053c-.121-.148-.275-.261-.462-.321l-.247-.081c-.181-.06-.375-.067-.549-.027-.027.007-.08.021-.08.021l-1.506-.509z" fill="#fff"/><path d="m150.21 114.048 13.721 4.623-.047.1c-.16.321-.414.696-.642.904l-.381.354-.047-.007-12.631-4.255-.087-.521c-.06-.335-.027-.857.06-1.225z" fill="#fff"/><path d="m150.317 113.767 13.715 4.623.026-.08 1.084-3.212c.094-.274-.06-.568-.341-.662l-2.074-.696c-.281-.093-.582.047-.669.321l-.796 2.362-2.261-.763.796-2.361c.04-.127.033-.268-.027-.388-.067-.127-.174-.228-.314-.275l-2.074-.702c-.281-.094-.583.053-.669.321l-.797 2.362-2.268-.763.797-2.362c.04-.127.033-.267-.027-.388-.067-.127-.174-.227-.315-.274l-2.074-.702c-.281-.094-.582.046-.669.321l-1.11 3.298z" fill="#fff"/><path d="m115.327 131.71c-1.753.201-3.479.442-5.172.736l-.087.014v-2.516l.054-.007c1.699-.287 3.432-.535 5.185-.736l.1-.006v2.509z" fill="#fff"/><path d="m115.782 129.155c1.987-.214 4.007-.375 6.048-.469l-.121.181c-.502.763-.776 1.505-.923 2.375l-.067.013c-1.666.094-3.312.235-4.937.408l-.074.014v-2.516z" fill="#fff"/><path d="m109.693 130.018c-1.766.307-3.499.669-5.198 1.077l-.074.02v2.515l.067-.013c1.693-.408 3.426-.769 5.192-1.084l.08-.02v-2.515z" fill="#fff"/><path d="m104.04 133.724c-1.773.442-3.506.93-5.191 1.472l-.067.033v-2.542l.06-.02c1.679-.535 3.405-1.024 5.165-1.452l.107-.02v2.516z" fill="#fff"/><path d="m98.4 135.343c-.455.154-.91.308-1.358.462l-.08.026-.796-2.261.08-.033c.709-.254 1.432-.502 2.161-.736l.067-.027v2.536z" fill="#fff"/><path d="m137.445 129.155c-1.994-.214-4.021-.375-6.068-.469l.12.181c.502.763.776 1.505.923 2.375 0 .007.087.013.087.013 1.666.094 3.319.235 4.944.415h.047v-2.509z" fill="#fff"/><path d="m143.038 132.446c-1.693-.287-3.419-.535-5.165-.736l-.067-.006v-2.516l.053.007c1.753.2 3.486.441 5.185.736l.094.013v2.516z" fill="#fff"/><path d="m148.724 133.617c-1.699-.408-3.432-.769-5.205-1.084l-.073-.006v-2.516l.08.013c1.766.308 3.499.669 5.198 1.077l.061.021v2.515z" fill="#fff"/><path d="m154.806 132.807c.716.235 1.418.476 2.114.723l.12.047-.796 2.254-.06-.02c-.455-.16-.91-.314-1.372-.468l-.08-.027v-2.535z" fill="#fff"/><path d="m154.371 135.203c-1.686-.542-3.419-1.037-5.185-1.472l-.087-.02v-2.529l.067.02c1.78.435 3.519.923 5.218 1.465l.054.027v2.535z" fill="#fff"/><path d="m146.269 135.985v-2.609l.12.027c1.753.375 3.473.796 5.152 1.264l.067.007v2.629l-.08-.013c-1.673-.475-3.392-.903-5.152-1.278z" fill="#fff"/><path d="m140.629 134.982v-2.609c1.78.254 3.533.562 5.245.916l.087.014v2.602l-.12-.007c-1.706-.354-3.446-.655-5.212-.916z" fill="#fff"/><path d="m134.983 134.34v-2.61l.12.02c1.76.148 3.492.342 5.205.582l.007.094v2.516c-1.72-.241-3.473-.442-5.245-.596z" fill="#fff"/><path d="m134.608 131.704c-.709-.054-1.425-.107-2.141-.148l.013.094c.081.669.094 1.418.081 2.315v.194l.087.013c.635.04 1.271.081 1.906.134l.134.007v-2.603z" fill="#fff"/><path d="m143.446 138.26v-2.515l.087.02c1.759.314 3.492.682 5.178 1.097l.074.013v2.536l-.074-.014c-1.686-.414-3.419-.789-5.185-1.103z" fill="#fff"/><path d="m137.806 137.437v-2.509h.08c1.746.201 3.459.449 5.145.743l.114.013v2.536l-.087-.02c-1.7-.295-3.426-.549-5.179-.749z" fill="#fff"/><path d="m137.371 134.875c-1.532-.167-3.084-.301-4.65-.395l-.167-.007v2.442l.007.074c1.619.1 3.218.234 4.803.408l.134.013v-2.515z" fill="#fff"/><path d="m112.885 134.942v-2.603l.08-.02c1.706-.241 3.432-.435 5.185-.582l.067-.007v2.603l-.154.013c-1.713.147-3.405.335-5.071.569z" fill="#fff"/><path d="m107.245 133.316v2.609l.067-.02c1.692-.354 3.418-.656 5.178-.916l.094-.014v-2.609l-.121.027c-1.753.254-3.472.555-5.165.903z" fill="#fff"/><path d="m101.605 137.317v-2.623l.073-.027c1.686-.475 3.406-.896 5.172-1.271l.094-.013v2.609l-.107.02c-1.76.375-3.486.803-5.165 1.285z" fill="#fff"/><path d="m101.217 137.424c-1.124.328-2.228.675-3.312 1.05l-.04-.073-.803-2.282.101-.033c1.311-.462 2.649-.89 4.02-1.285l.114-.027v2.63z" fill="#fff"/><path d="m104.04 139.504c-1.044.268-2.067.549-3.071.85l-2.067.669-.107.027-.776-2.201-.027-.087c1.94-.669 3.947-1.265 6.021-1.786l.094-.007v2.522z" fill="#fff"/><path d="m109.647 138.294c-1.74.314-3.446.675-5.105 1.09l-.121.047v-2.542l.067-.021c1.686-.414 3.419-.782 5.179-1.097l.093-.02v2.522z" fill="#fff"/><path d="m115.293 137.457c-1.739.201-3.459.455-5.151.75l-.081.006v-2.515l.061-.014c1.699-.294 3.432-.548 5.185-.749l.087-.007v2.516z" fill="#fff"/><path d="m115.808 137.397c1.599-.174 3.212-.314 4.844-.415v-2.522l-.114.013c-1.605.094-3.198.235-4.763.408h-.067v2.523z" fill="#fff"/><path d="m50.986 149.319c1.318.415 2.636.83 3.961 1.244-1.686 7.688-3.646 15.314-5.74 22.894 4.569-6.837 9.159-13.661 13.755-20.478 1.793.515 3.586 1.023 5.379 1.532-4.289 5.74-8.43 11.587-12.598 17.414.689 8.296 1.405 16.586 2.101 24.875-1.686.508-3.379 1.017-5.065 1.539-.394-6.891-.722-13.776-1.13-20.66-1.874 2.603-3.646 5.279-5.459 7.921-.348.509-.716 1.017-.857 1.633-1.271 5.051-2.509 10.109-3.807 15.153-1.746.709-3.472 1.459-5.211 2.188 4.89-18.425 9.781-36.837 14.671-55.255z" fill="#3b54a4"/><path d="m196.874 151.58c1.439-.448 2.877-.896 4.315-1.358 3.085 9.714 6.135 19.442 9.186 29.17 2.723 8.623 5.66 17.187 8.403 25.804-1.84-.816-3.693-1.599-5.526-2.435-1.345-4.315-2.71-8.624-4.121-12.926-3.158-.769-6.309-1.518-9.487-2.181-.147 3.292-.341 6.59-.515 9.888-1.726-.562-3.459-1.097-5.199-1.619.897-11.353 1.994-22.686 2.529-34.06.154-3.425.295-6.857.415-10.283zm3.071 28.4c2.094.241 4.181.509 6.275.763-1.92-6.141-3.753-12.31-5.646-18.465-.167 5.908-.328 11.808-.629 17.702z" fill="#3b54a4"/><path d="m182.898 155.548c1.271-.328 2.542-.676 3.814-1.024 1.599 13.528 2.602 27.122 4.502 40.623-1.639-.441-3.271-.883-4.91-1.311-3.767-8.162-7.453-16.358-11.287-24.486.475 7.426.95 14.852 1.666 22.251-1.485-.301-2.977-.608-4.469-.889-.87-10.711-1.211-21.456-1.947-32.174 1.365-.294 2.73-.595 4.101-.89 3.827 7.761 7.353 15.669 10.919 23.557-.783-8.557-1.579-17.107-2.389-25.657z" fill="#3b54a4"/><path d="m78.651 157.147c4.683 1.05 9.386 2.027 14.103 2.903-.275 1.679-.515 3.365-.783 5.051-3.405-.394-6.804-.829-10.203-1.284-.508 2.689-1.023 5.385-1.532 8.082 3.044.087 6.082.18 9.119.274-.301 1.726-.569 3.459-.93 5.172-3.131.073-6.262.214-9.386.307-.944 4.831-1.907 9.661-2.77 14.505-1.633.354-3.265.722-4.904 1.077 2.241-12.063 5.198-23.991 7.286-36.087z" fill="#3b54a4"/><path d="m155.007 161.308c1.518-.234 3.03-.468 4.549-.716 3.499 9.848 6.563 19.843 10.156 29.665-1.693-.301-3.392-.589-5.092-.857-.802-2.281-1.558-4.582-2.314-6.877-3.031-.228-6.062-.448-9.092-.636-.609 1.914-1.198 3.834-1.8 5.754-1.639-.181-3.285-.335-4.931-.482 3.104-8.53 6.142-17.093 8.524-25.851zm-.435 16.164c2.027.04 4.054.093 6.074.14-1.063-3.412-2.107-6.831-3.224-10.223-.984 3.346-1.854 6.731-2.85 10.083z" fill="#3b54a4"/><path d="m99.551 161.161c5.573.716 11.166 1.311 16.772 1.759-.127 1.358-.254 2.723-.381 4.081-2.121-.1-4.235-.214-6.349-.341-.816 6.971-1.766 13.923-2.502 20.901-1.566.147-3.124.314-4.69.481.883-7.232 1.9-14.451 2.85-21.676-2.101-.161-4.195-.341-6.295-.522.194-1.566.408-3.124.595-4.683z" fill="#3b54a4"/><path d="m127.389 163.221c3.452-.053 6.898-.18 10.343-.301 1.72 0 3.653.007 5.045 1.185 1.565 1.378 2.127 3.585 2 5.599-.08 1.934-.91 3.914-2.495 5.092-.97.735-2.168 1.05-3.332 1.324 2.081 1.445 3.399 3.64 4.543 5.847.936 1.72 1.893 3.433 2.809 5.165-1.839-.16-3.679-.301-5.526-.408-1.498-2.515-2.903-5.084-4.475-7.546-.609-.883-1.218-1.9-2.275-2.275-1.004-.294-2.061-.194-3.091-.201-.254 3.245-.401 6.496-.535 9.748-1.552.027-3.105.067-4.657.127.489-7.781 1.158-15.568 1.646-23.356zm4.095 3.847c-.047 1.981-.141 3.954-.295 5.928 2.282-.107 4.583.047 6.844-.288 1.72-.274 2.496-2.275 2.128-3.82-.134-1.077-1.124-1.887-2.188-1.92-2.161-.107-4.328.087-6.489.1z" fill="#3b54a4"/><path d="m118.946 163.074c1.445.054 2.884.107 4.329.147-.536 7.848-1.372 15.676-1.88 23.53-1.559.06-3.111.134-4.67.194.676-7.968 1.539-15.909 2.221-23.871z" fill="#3b54a4"/><path d="m88.88 184.276c1.472-.161 2.95-.301 4.422-.442-.287 1.827-.562 3.653-.803 5.486-1.505.221-3.003.455-4.502.689.274-1.92.589-3.827.883-5.733z" fill="#3b54a4"/><path d="m63.47 187.875c1.506-.281 3.011-.562 4.523-.816-.482 2.455-.983 4.897-1.472 7.346-1.572.401-3.144.816-4.71 1.251.549-2.589 1.091-5.192 1.659-7.781z" fill="#3b54a4"/><path d="m116.283 349.257v-6.349c-.368.341-1.09.924-2.174 1.278v-1.525c.174-.06 1.967-.75 2.495-2.235h1.379v8.831z" fill="#3b54a4"/><path d="m122.144 347.036c.027.208.134.97.983.97 1.178 0 1.292-1.525 1.352-2.428l-.027-.027c-.542.662-1.218.722-1.532.722-1.385 0-2.569-1.13-2.569-2.876 0-1.753 1.144-2.971 2.823-2.971.776 0 2.101.281 2.717 2.027.267.776.334 1.586.334 2.409 0 .796 0 4.542-3.205 4.542-.782 0-1.545-.294-2.027-.956-.334-.469-.428-.97-.468-1.231zm.943-5.205c-1.084 0-1.084 1.325-1.084 1.572 0 .208 0 1.646 1.165 1.646.22 0 1.157-.087 1.157-1.498 0-.877-.428-1.72-1.238-1.72z" fill="#3b54a4"/><path d="m133.551 349.257h-5.908c.134-1.304.783-2.221 2.469-3.793 1.178-1.091 1.746-1.619 1.753-2.469-.013-1.07-.836-1.164-1.144-1.164-.783 0-1.144.482-1.204 1.378l-1.68-.174c.047-.414.174-1.338.87-1.94.602-.502 1.452-.662 2.047-.662 2.041 0 2.79 1.351 2.79 2.455 0 1.532-1.117 2.569-1.973 3.352-.857.796-1.144 1.057-1.379 1.452h3.352v1.565z" fill="#3b54a4"/><path d="m140.562 342.212c.355.984.382 2.101.382 2.717 0 .562-.014 1.679-.382 2.662-.354.984-1.07 1.82-2.468 1.82-1.412 0-2.135-.823-2.496-1.793-.368-.983-.368-2.101-.368-2.716 0-.589.013-1.706.368-2.676.368-.97 1.077-1.793 2.482-1.793 1.398-.007 2.114.809 2.482 1.779zm-3.559 2.71c0 2.335.281 3.084 1.084 3.084.809 0 1.09-.762 1.09-3.084 0-2.335-.281-3.098-1.09-3.098-.803.007-1.084.756-1.084 3.098z" fill="#3b54a4"/></g></svg>