<svg clip-rule="evenodd" fill-rule="evenodd" stroke-linejoin="round" stroke-miterlimit="2" viewBox="0 0 560 400" xmlns="http://www.w3.org/2000/svg"><path d="m87.902 166.113c10.383-10.351 27.231-10.351 37.614 0 4.981 4.969 7.783 11.723 7.783 18.759s-2.802 13.79-7.783 18.759l-36.34 36.276c-4.125 4.12-10.908 4.12-15.033 0l43.856-43.76c3-2.97 4.687-7.022 4.682-11.243.005-4.221-1.682-8.273-4.682-11.243-6.195-6.162-16.353-6.162-22.549 0l-28.823 28.76-13.791-13.759c-1.003-.993-1.568-2.347-1.568-3.758s.565-2.766 1.568-3.758c2.063-2.06 5.454-2.06 7.516 0l6.275 6.242zm416.555 14.873c15.956 0 25.543 10.128 25.543 26.754 0 2.038-.255 4.045-.255 4.299h-36.977c.255 6.816 6.084 11.753 12.995 11.753 6.497 0 10.096-3.249 11.784-7.867l11.784 3.472c-2.675 8.917-10.829 16.37-23.568 16.37-14.237 0-26.753-10.224-26.753-27.645 0-16.466 12.198-27.167 25.447-27.167zm-248.519 0c16.434 0 22.517 9.237 22.517 19.62v25.383c0 2.771.319 6.402.637 8.186h-12.835c-.255-1.306-.478-4.141-.478-6.147-2.675 4.14-7.643 7.707-15.287 7.707-11.052 0-17.804-7.453-17.804-15.574 0-9.236 6.816-14.428 15.447-15.734l12.772-1.847c2.93-.414 3.917-1.879 3.917-3.663 0-3.662-2.835-6.72-8.695-6.72-6.083 0-9.523 3.886-9.937 8.44l-12.453-2.611c.828-8.122 8.281-17.04 22.199-17.04zm128.448-22.772v58.571c0 4.459 2.516 5.765 6.019 5.765.733 0 1.465 0 2.421-.064v11.911c-1.892.425-3.826.639-5.765.637-10.096 0-16.434-5.924-16.434-15.892v-60.928zm-205.587 8.918v15.447h10.415v12.389h-10.415v21.658c0 4.522 2.102 5.987 6.115 5.987 1.688 0 3.599-.223 4.332-.414v11.561c-1.274.51-3.79 1.274-7.899 1.274-10.096 0-16.434-5.987-16.434-15.988v-24.078h-9.363v-12.389h2.643c5.478 0 7.994-3.567 7.994-8.217v-7.262zm163.355 14.046c12.835 0 18.695 9.172 18.695 20.51v32.614h-13.982v-30.161c0-5.765-2.834-10.319-9.586-10.319-6.083 0-9.682 4.713-9.682 10.701v29.683h-13.982v-51.659h13.568v6.402c3.185-5.351 9.363-7.771 14.969-7.771zm111.344 0c12.836 0 18.696 9.172 18.696 20.51v32.614h-13.982v-30.161c0-5.765-2.835-10.319-9.587-10.319-6.115 0-9.682 4.713-9.682 10.701v29.683h-13.982v-51.659h13.568v6.402c3.185-5.351 9.364-7.771 14.969-7.771zm-227.562.955c1.147 0 2.198.159 3.249.255v14.045c-1.394-.284-2.814-.423-4.236-.414-7.166 0-13.345 3.472-13.345 14.587v23.6h-13.982v-51.659h13.568v7.708c3.185-6.816 10.319-8.122 14.714-8.122zm77.011.414v51.659h-13.981v-51.659zm111.345 0v51.659h-13.982v-51.659zm-376.521-16.434c9.937-9.937 25.862-10.319 36.308-1.21l-7.548 7.516c-6.327-5.021-15.511-4.511-21.243 1.178-2.983 2.98-4.66 7.027-4.66 11.243s1.677 8.263 4.66 11.243l21.307 21.243 36.34-36.244c2.062-2.06 5.453-2.06 7.516 0 2.07 2.07 2.07 5.446 0 7.516l-43.856 43.761-28.824-28.76c-4.994-4.959-7.795-11.721-7.771-18.759 0-7.07 2.771-13.759 7.771-18.759zm226.957 44.907-11.72 1.784c-3.567.477-6.434 2.516-6.434 6.497 0 3.089 2.198 6.019 6.752 6.019 5.924 0 11.371-2.834 11.371-12.007zm239.825-18.727c-7.23 0-11.211 5.51-11.53 10.223h23.091c-.159-5.191-3.567-10.223-11.561-10.223zm-208.676-35.289h.065c4.699 0 8.567 3.867 8.567 8.567 0 .043 0 .085-.001.128-.017 4.67-3.865 8.504-8.536 8.504-.031 0-.063 0-.095 0-4.714 0-8.631-3.886-8.631-8.504 0-4.873 3.917-8.759 8.631-8.695zm111.44 0h.065c4.7 0 8.567 3.867 8.567 8.567 0 .043 0 .085-.001.128-.017 4.67-3.865 8.504-8.535 8.504-.032 0-.064 0-.096 0-4.714 0-8.631-3.886-8.631-8.504 0-4.873 3.822-8.759 8.631-8.695z" fill="#00a88f" fill-rule="nonzero"/></svg>