<svg clip-rule="evenodd" fill-rule="evenodd" stroke-linejoin="round" stroke-miterlimit="2" viewBox="0 0 560 400" xmlns="http://www.w3.org/2000/svg" xmlns:xlink="http://www.w3.org/1999/xlink"><clipPath id="a"><path clip-rule="evenodd" d="m92.884 155v90h374.232v-90"/></clipPath><g fill="#154e8f" fill-rule="nonzero"><path d="m256.808 185.493h15.663v49.911h-15.663z"/><path d="m277.759 185.493h15.665v6.662h.197c3.294-5.073 8.216-7.857 13.828-7.857 4.738 0 9.461 3.074 9.758 7.857h.189c3.297-5.073 8.219-7.857 13.826-7.857 6.275 0 10.913 3.486 10.913 10.633v40.473h-15.653v-35.296c0-2.676-.867-4.469-3.766-4.469-1.653 0-2.999.689-4.055 2.084l-.887 1.187v36.494h-15.648v-35.296c0-2.676-.867-4.469-3.765-4.469-1.648 0-2.999.689-4.065 2.084l-.872 1.187v36.494h-15.665z"/><path d="m363.067 219.399c-.279 4.168 2.127 6.465 5.124 6.465 4.337 0 4.929-4.487 4.929-13.723v-3.78c0-9.944 0-15.123-4.828-15.123-1.941 0-3.387 1.198-4.353 2.001l-.872.882zm-15.66-54.787h15.66v23.763h.202c2.215-2.393 6.278-4.077 9.458-4.077 10.835 0 16.631 11.133 16.631 25.546 0 11.434-4.635 26.153-17.777 26.153-6.097 0-10.061-2.978-13.151-7.753l-2.908 7.16h-8.115z"/><path d="m393.438 164.612h15.658v70.791h-15.658z"/><path d="m440.526 202.985c-.094-4.674-.479-10.045-5.903-10.045-4.44 0-5.783 5.371-5.783 10.045zm-11.686 9.545c0 4.383.856 11.825 7.049 11.825 3.775 0 6.953-2.776 7.926-6.859l10.529 3.964c-.67 2.31-5.499 13.64-19.426 13.64-14.985 0-21.747-12.432-21.747-26.241 0-14.13 7.153-26.06 21.556-26.06 15.076 0 20.3 13.324 20.3 26.34v3.391z"/><path d="m256.763 164.298h15.706v14.364h-15.706z"/><path d="m461.887 229.561c.804 0 1.905.147 1.905-.882 0-.739-.63-.84-1.348-.84h-1.479v1.722zm2.689 3.349h-.975l-1.638-2.642h-.998v2.642h-.845v-5.724h2.498c.471 0 .952.029 1.391.275.418.246.63.754.63 1.229 0 1.135-.779 1.555-1.802 1.578zm-6.699-2.883c0 2.331 1.835 4.14 4.149 4.14 2.273 0 4.125-1.809 4.125-4.14 0-2.26-1.852-4.085-4.125-4.085-2.314 0-4.149 1.825-4.149 4.085m-.973 0c0-2.797 2.294-5.088 5.122-5.088 2.815 0 5.09 2.291 5.09 5.088 0 2.849-2.275 5.143-5.09 5.143-2.828 0-5.122-2.294-5.122-5.143"/><path d="m180.743 164.078h48.534v13.721h-15.562v57.071h-17.414v-57.071h-15.558z"/><path d="m222.178 184.959h15.368v7.553h.197c1.93-6.268 8.886-8.748 15.078-8.748v16.305c-2.132-.794-4.156-1.392-6.381-1.392-5.212 0-6.865 1.392-8.604 3.875v32.318h-15.658z"/><path d="m149.249 217.382c-.197 1.073-.512 2.071-.963 2.963-.149.306-.219.633-.232.954-.66.669-1.132 1.084-1.27 1.195-3.622 3.119-6.454 4.747-10.85 6.209-1.618.541-5.017 1.438-9.387 1.335l-6.712 3.732c8.151 1.838 14.827.148 17.465-.736 4.927-1.641 8.272-3.551 12.322-7.035.819-.708 5.08-4.531 8.029-10.535.537-1.094 1.068-2.304 1.552-3.621z"/><g clip-path="url(#a)"><path d="m125.73 168.679c.232-.013.484-.018.728-.023.446-.016.893-.01 1.334.005-.792.187-1.55.446-2.274.739l5.993 3.336c4.69-.15 9.426 2.001 12.604 5.465-.723.064-1.492.171-2.256.3l10.142 5.657c-.021-.117-.033-.236-.056-.35.416.264.779.567 1.074.912l6.754 3.759c-.086-.262-.151-.519-.245-.786-.05-.153-.118-.303-.199-.43-.068-.223-.131-.443-.206-.669-1.943-5.7-5.671-10.703-10.391-14.542-.131-.182-.27-.353-.451-.493-7.261-5.786-14.562-7.097-18.262-7.364-.201-.016-.385-.021-.582-.031-2.225-.177-4.466-.125-6.688.191-.131.016-.262.047-.399.065-.945.138-1.779.296-2.447.459-.602.14-1.167.283-1.703.441l6.242 3.476c.429-.044.855-.096 1.288-.117"/><path d="m99.462 210.795c-.973-2.462-1.668-5.513-1.792-6.701-.325-2.833-.325-2.833-.355-5.632-.01-.871.088-2.147.237-3.101.35-2.188.753-4.635 2.124-7.948v-9.137c-1.071 1.464-2.092 3.108-2.991 4.938-2.495 5.096-3.077 8.741-3.506 11.411-.189 1.226-.305 2.753-.295 3.891.031 3.007.033 3.064.378 6.112.212 1.833 1.192 5.939 2.503 8.863 1.023 2.284 1.958 4.047 3.102 5.758.101.186.212.35.348.5.146.21.305.423.461.632v-10.133c-.073.182-.148.363-.214.547"/></g><path d="m150.388 194.249c-.439.723-.94 1.371-1.482 1.996 1.668 3.155 2.953 6.338 3.813 9.41.335-.464.68-.936.975-1.441 2.697-4.552 3.171-10.123 1.364-15.727-.124-.166-.23-.356-.305-.568-.162-.477-.366-.933-.55-1.392-.206-.208-.375-.446-.494-.723-.176-.402-.408-.757-.69-1.084l-1.018-.562c.69 3.579.156 7.1-1.613 10.091"/><path d="m123.507 168.889c-.106.011-.206.011-.31.011-1.482.22-2.898.565-4.224 1.036 1.14.275 2.314.654 3.501 1.11.93-.664 1.961-1.205 3.044-1.646l-1.076-.604c-.31.036-.63.044-.935.093"/><path d="m159.203 211.843 21.248-11.837-20.678-11.527c2.906 9.345 1.62 17.425-.57 23.364"/><path d="m129.974 172.863c-.862.127-1.683.335-2.447.596 2.886 1.67 5.814 3.829 8.654 6.434 1.991-.635 3.884-1.088 5.678-1.392l-10.348-5.765c-.511.016-1.028.052-1.537.127"/><path d="m140.012 217.706c-11.792 1.693-24.302-4-31.588-13.425-2.732 3.406-4.64 6.8-5.325 9.822-.268 1.187-.32 2.235-.187 3.147.482.674.998 1.364 1.608 2.108 1.684 2.068 6.447 7.131 14.307 9.466 2.77.83 5.388 1.154 7.72 1.214l22.702-12.656c.184-.928.282-1.91.292-2.939-2.798 1.643-6.011 2.75-9.529 3.263"/><path d="m109.026 196.836c2.694-2.709 5.776-5.322 9.123-7.696-.219-.493-.423-1.003-.602-1.519-.003 0-.003 0-.003-.005-1.476-4.361-1.106-8.749 1.039-12.378.136-.218.282-.415.423-.623-2.457-.736-4.745-.977-6.736-.681-1.243 1.148-2.334 2.436-3.204 3.906-1.628 2.745-2.449 5.861-2.449 9.133 0 2.281.401 4.627 1.199 6.983.338.985.757 1.944 1.21 2.88"/><path d="m121.728 186.115c.06.171.136.339.202.505 3.029-1.877 6.214-3.554 9.465-4.938-2.709-2.253-5.453-4.036-8.099-5.343-.341.392-.661.817-.93 1.271-1.45 2.444-1.676 5.464-.638 8.502z"/><path d="m139.001 196.618c1.523-.217 2.906-.694 4.121-1.384-2.205-3.567-4.912-7.035-8.022-10.154-.524.197-1.056.405-1.598.63-3.152 1.315-6.285 2.968-9.282 4.85 3.483 4.285 9.282 6.852 14.781 6.058"/><path d="m109.606 169.045c2.349-1.338 4.597-2.611 8.594-3.725l-18.524-10.32v23.276c4.264-5.864 9.237-8.837 9.93-9.231"/><path d="m146.595 191.877c1.459-2.447 1.686-5.472.647-8.508v-.002c-.1-.267-.204-.516-.312-.77-2.034-.044-4.42.277-7.052.957 2.506 2.701 4.706 5.575 6.586 8.512.04-.064.093-.124.131-.189"/><path d="m139.402 213.188c3.695-.524 6.951-1.853 9.607-3.824-.663-3.237-1.913-6.7-3.672-10.19-1.693.978-3.614 1.654-5.731 1.96-7.122 1.024-14.662-2.411-19.083-8.085-3.359 2.413-6.451 5.078-9.085 7.816 6.235 8.577 17.415 13.839 27.964 12.323"/><path d="m105.825 200.338c-.871-1.552-1.61-3.186-2.185-4.878-1.62-4.747-1.875-9.511-.819-13.905-.771 1.12-1.517 2.356-2.182 3.712-.376.76-.681 1.467-.963 2.146v22.835c1.248-3.219 3.372-6.597 6.149-9.91"/><path d="m155.247 209.686c-.444.534-.938 1.037-1.434 1.519.058.573.098 1.133.133 1.685.456-.972.902-2.04 1.301-3.204"/><path d="m101.13 222.282c-.536-.661-1.005-1.276-1.454-1.901v24.619l20.159-11.23c-.738-.163-1.482-.35-2.24-.57-9.033-2.683-14.527-8.539-16.465-10.918"/><path d="m166.522 229.027c.801 0 1.905.147 1.905-.882 0-.739-.63-.84-1.348-.84h-1.479v1.722zm2.687 3.349h-.973l-1.641-2.642h-.995v2.642h-.845v-5.724h2.495c.472 0 .955.029 1.394.275.418.246.63.754.63 1.229 0 1.135-.781 1.555-1.802 1.578zm-6.699-2.883c0 2.331 1.837 4.14 4.151 4.14 2.273 0 4.123-1.809 4.123-4.14 0-2.263-1.85-4.085-4.123-4.085-2.314 0-4.151 1.822-4.151 4.085m-.973 0c0-2.797 2.296-5.088 5.124-5.088 2.815 0 5.088 2.291 5.088 5.088 0 2.849-2.273 5.143-5.088 5.143-2.828 0-5.124-2.294-5.124-5.143"/></g></svg>