<svg clip-rule="evenodd" fill-rule="evenodd" stroke-linejoin="round" stroke-miterlimit="2" viewBox="0 0 560 400" xmlns="http://www.w3.org/2000/svg"><g fill-rule="nonzero" transform="matrix(2.53759 0 0 2.53759 145 79.3374)"><path d="m34.4 95.1h62.9l9.1-16.3h-62.8z" fill="#5569ff"/><path d="m95.3 59.1h-18.3l-9.1 16.2h18.2z" fill="#5569ff"/><path d="m95.3 55.6-31.4-55.6h-18.3l31.5 55.6z" fill="#5c00e9"/><path d="m0 77.1 9.1 16.1 31.5-55.6-9.2-16.1z" fill="#00bfe9"/><path d="m31.4 93.2 9.2-16.1-9.2-16.2-9.1 16.2z" fill="#00bfe9"/><path d="m34.5 19.7 9.1 16.2h18.3l-9.2-16.2z" fill="#5c00e9"/><g fill="#243269"><path d="m106.4 75.3-8.1-14.3-8.1 14.3z"/><path d="m64.9 73.5 9.1-16.1-9.1-16.2-9.2 16.2z"/><path d="m34.4 59.1 9.2 16.2h18.3l-9.2-16.2z"/><path d="m43.6 39.4-9.2 16.2h18.3l9.1-16.2z"/><path d="m12.1 95.1h16.3l-8.1-14.4z"/><path d="m42.6 1.8-8.2 14.4h16.3z"/></g></g></svg>