<svg clip-rule="evenodd" fill-rule="evenodd" stroke-linejoin="round" stroke-miterlimit="2" viewBox="0 0 560 400" xmlns="http://www.w3.org/2000/svg"><path d="m479.921 232.798c0-1.011-.876-1.416-1.752-1.416h-1.618v4.719h.876v-1.955h.539l1.146 1.955h1.012l-1.214-2.09c.539-.067 1.011-.472 1.011-1.213zm-2.561.741v-1.281h.741c.472 0 .944.068.944.675 0 .539-.539.674-1.011.674 0-.068-.674-.068-.674-.068zm.741-3.842c-2.359 0-4.112 1.887-4.112 4.112 0 2.36 1.887 4.112 4.112 4.112s4.112-1.752 4.112-4.112-1.82-4.112-4.112-4.112zm0 7.618c-1.955 0-3.438-1.618-3.438-3.439 0-1.955 1.618-3.438 3.438-3.438 1.955 0 3.438 1.618 3.438 3.438.068 1.821-1.483 3.439-3.438 3.439z" fill-rule="nonzero"/><path d="m296.483 200.64c-4.584 0-7.955 1.956-11.191 4.989h-.202v-24h-10.045v56.225h9.573v-5.191h.202c2.225 3.775 6.742 6.202 11.461 6.202 10.315 0 18.202-8.157 18.202-19.348 0-10.921-7.82-18.877-18-18.877zm-1.955 29.731c-6 0-9.64-5.326-9.64-10.584 0-5.191 3.64-10.787 9.64-10.787 6.472 0 9.775 5.528 9.775 10.584-.067 5.326-3.64 10.787-9.775 10.787zm-65.932-8.832c0 4.248-2.832 8.832-7.956 8.832-4.044 0-6.067-2.832-6.067-8.697v-19.955h-10.045v22.517c0 7.483 3.775 14.831 13.685 14.831 4.72 0 8.63-3.775 10.72-6.471h.202v5.46h9.573v-36.337h-10.045v19.82zm-40.045-30.135h-9.843v10.113h-6.202v8.022h6.067v15.978c0 5.663 1.416 13.146 12.135 13.146 2.09 0 4.786-.472 6.404-1.011l-.269-7.888c-1.012.405-2.562.742-4.382.742-2.899 0-3.91-2.09-3.91-5.057v-15.775h8.696v-7.955h-8.696zm68.427 15.776h-.203v-5.663h-9.64v36.337h10.045v-19.348c0-.068.472-8.832 9.101-8.832.741 0 1.955.068 3.101.405v-9.169c-.674-.202-2.225-.27-2.899-.27-3.91 0-7.281 3.169-9.505 6.54zm151.618-6.54c-5.731 0-11.663 2.36-15.574 6l5.191 5.731c2.36-2.36 6.405-3.843 9.641-3.843 3.573 0 7.213 1.753 7.213 6.068v.539c-10.516 0-23.932 1.281-23.932 12.135 0 7.955 6.944 11.528 13.82 11.528 4.315 0 7.955-2.427 10.247-5.056h.202v4.247h9.506v-21.978c-.067-5.798-2.157-15.371-16.314-15.371zm6.674 21.911c0 5.325-3.034 8.696-8.562 8.696-2.09 0-5.73-.674-5.73-3.843 0-3.438 4.382-5.662 12.943-5.662h1.281zm-76.517-21.911c-11.461 0-19.686 7.956-19.686 19.079 0 11.461 8.427 19.416 19.686 19.416 11.258 0 19.685-8.09 19.685-19.416-.067-11.123-8.292-19.079-19.685-19.079zm0 29.731c-6.54 0-9.506-5.528-9.506-10.787 0-5.056 3.034-10.584 9.506-10.584 6.539 0 9.505 5.528 9.505 10.584 0 5.259-3.033 10.787-9.505 10.787zm115.753-11.731 13.011-17.056h-11.663l-7.483 10.382-7.214-10.382h-12.135l13.147 17.056-14.697 19.214h12l8.899-12.27 8.831 12.27h12.27zm-76.989-27.236h-9.843v10.113h-6.067v8.022h6.067v15.978c0 5.663 1.416 13.146 12.135 13.146 2.09 0 4.787-.472 6.404-1.011l-.269-7.888c-1.011.405-2.562.742-4.382.742-2.899 0-3.91-2.09-3.91-5.057v-15.775h8.696v-7.955h-8.696z" fill-rule="nonzero"/><circle cx="119.989" cy="202.798" fill="#d52b1e" r="42.202"/><g fill-rule="nonzero"><path d="m110.618 218.236c-4.854-3.438-9.506-7.214-13.955-11.191-1.618 3.573-3.101 7.348-4.382 11.056 7.146 6 16.584 12.944 23.191 16.921 8.427-21.977 21.708-36.202 34.315-46.247-1.618-3.438-3.843-6.539-6.472-9.168-13.551 10.18-24.809 23.46-32.697 38.629z" fill="#fff"/><path d="m198.124 162.618c-2.697 0-4.854 1.685-5.731 3.438h-.067v-3.034h-4.382v18.472h4.584v-10.112c0-2.427 1.416-4.989 4.315-4.989 3.033 0 3.438 2.697 3.438 4.854v10.247h4.584v-11.528c.135-3.708-1.82-7.348-6.741-7.348zm-19.484 18.944h4.585v-18.472h-4.585zm76.45-18.472v4.112h5.191v14.36h4.584v-14.36h5.191v-4.112zm7.483-2.427c1.483 0 2.831-1.214 2.831-2.832s-1.213-2.831-2.831-2.831c-1.483 0-2.831 1.213-2.831 2.831s1.28 2.832 2.831 2.832zm-47.73 0c1.483 0 2.831-1.214 2.831-2.832s-1.213-2.831-2.831-2.831c-1.483 0-2.832 1.213-2.832 2.831s1.214 2.832 2.832 2.832zm32.359 20.899h4.585v-18.472h-4.585zm-9.303-8.225c0 2.427-1.416 4.989-4.315 4.989-3.033 0-3.438-2.697-3.438-4.854v-10.315h-4.584v11.528c0 3.776 1.955 7.484 6.876 7.484 2.697 0 4.854-1.686 5.731-3.439h.067v3.034h4.382v-18.607h-4.584v10.247h-.135zm-30.607-6.135h5.259v14.36h4.584v-14.36h5.191v-4.112h-15.034z"/></g></svg>