<svg clip-rule="evenodd" fill-rule="evenodd" stroke-miterlimit="3.864" viewBox="0 0 560 400" xmlns="http://www.w3.org/2000/svg" xmlns:xlink="http://www.w3.org/1999/xlink"><clipPath id="a"><path clip-rule="evenodd" d="m114.7 135.9c-1.9.5.5 1.6.2 2.6.9.1 1.4.8 2.4.5.5 0 1.3-.6 1.1-1.3 0-.7-1.2-.9-1.9-.5-.7-.2-.2-.8-.2-1.3z"/></clipPath><clipPath id="b"><path clip-rule="evenodd" d="m114.7 135.9c-1.9.5.5 1.6.2 2.6.9.1 1.4.8 2.4.5.5 0 1.3-.6 1.1-1.3 0-.7-1.2-.9-1.9-.5-.7-.2-.2-.8-.2-1.3z"/></clipPath><clipPath id="c"><path clip-rule="evenodd" d="m114.7 135.9c-1.9.5.5 1.6.2 2.6.9.1 1.4.8 2.4.5.5 0 1.3-.6 1.1-1.3 0-.7-1.2-.9-1.9-.5-.7-.2-.2-.8-.2-1.3z"/></clipPath><clipPath id="d"><path clip-rule="evenodd" d="m114.7 135.9c-1.9.5.5 1.6.2 2.6.9.1 1.4.8 2.4.5.5 0 1.3-.6 1.1-1.3 0-.7-1.2-.9-1.9-.5-.7-.2-.2-.8-.2-1.3z"/></clipPath><clipPath id="e"><path clip-rule="evenodd" d="m114.7 135.9c-1.9.5.5 1.6.2 2.6.9.1 1.4.8 2.4.5.5 0 1.3-.6 1.1-1.3 0-.7-1.2-.9-1.9-.5-.7-.2-.2-.8-.2-1.3z"/></clipPath><clipPath id="f"><path clip-rule="evenodd" d="m114.7 135.9c-1.9.5.5 1.6.2 2.6.9.1 1.4.8 2.4.5.5 0 1.3-.6 1.1-1.3 0-.7-1.2-.9-1.9-.5-.7-.2-.2-.8-.2-1.3z"/></clipPath><clipPath id="g"><path clip-rule="evenodd" d="m114.7 135.9c-1.9.5.5 1.6.2 2.6.9.1 1.4.8 2.4.5.5 0 1.3-.6 1.1-1.3 0-.7-1.2-.9-1.9-.5-.7-.2-.2-.8-.2-1.3z"/></clipPath><clipPath id="h"><path clip-rule="evenodd" d="m131.6 137.6c.1.8.5 1.5 1.1 1.8 1.3.9 1.2-.8 2.2-.9.7-.1 1.4-.8 1.1-1.7-.4-.5-.9-.5-1.5-.7-.9.5-2.3.5-2.9 1.5"/></clipPath><clipPath id="i"><path clip-rule="evenodd" d="m131.6 137.6c.1.8.5 1.5 1.1 1.8 1.3.9 1.2-.8 2.2-.9.7-.1 1.4-.8 1.1-1.7-.4-.5-.9-.5-1.5-.7-.9.5-2.3.5-2.9 1.5"/></clipPath><clipPath id="j"><path clip-rule="evenodd" d="m131.6 137.6c.1.8.5 1.5 1.1 1.8 1.3.9 1.2-.8 2.2-.9.7-.1 1.4-.8 1.1-1.7-.4-.5-.9-.5-1.5-.7-.9.5-2.3.5-2.9 1.5"/></clipPath><clipPath id="k"><path clip-rule="evenodd" d="m131.6 137.6c.1.8.5 1.5 1.1 1.8 1.3.9 1.2-.8 2.2-.9.7-.1 1.4-.8 1.1-1.7-.4-.5-.9-.5-1.5-.7-.9.5-2.3.5-2.9 1.5"/></clipPath><clipPath id="l"><path clip-rule="evenodd" d="m131.6 137.6c.1.8.5 1.5 1.1 1.8 1.3.9 1.2-.8 2.2-.9.7-.1 1.4-.8 1.1-1.7-.4-.5-.9-.5-1.5-.7-.9.5-2.3.5-2.9 1.5"/></clipPath><clipPath id="m"><path clip-rule="evenodd" d="m131.6 137.6c.1.8.5 1.5 1.1 1.8 1.3.9 1.2-.8 2.2-.9.7-.1 1.4-.8 1.1-1.7-.4-.5-.9-.5-1.5-.7-.9.5-2.3.5-2.9 1.5"/></clipPath><g transform="matrix(.914495 0 0 .914495 180 85.6882)"><g fill-rule="nonzero"><path d="m109.3 249.9h-38.8v-23.4l1.9-10h13.7v-171h-31.5v20.9h-28l-26.6-11.6v-54.8h218.7v5l-.1 49.8-26.5 11.6h-28.1v-20.9h-31.5v171h13.8l1.8 10v23.4z" fill="#231f20"/><path d="m144.3 63.4h47.7v149.6h-47.8l-4.9-12.8c-14.5 12.5-34 20.1-54.9 20.1-44.7 0-80.9-35-80.9-78.2 0-22.2 7.3-41 22.4-55l-25.1-3.3v-19.8h72.5l10.5 10.9c-16.2 5.7-28.2 23.7-28.2 45.5 0 26.4 17.3 42.4 38.6 42.4s38.6-16 38.6-42.4v-43.6z" fill="#231f20"/><path d="m73.3 64c-23.5 8.5-37.3 32.6-37.3 59 0 32 25.8 55.6 55.7 55.6s52.6-25.9 52.6-57.9v-57.3h47.7v149.6h-47.8v-17.4c-14.8 15.2-36.5 24.8-59.8 24.8-44.7 0-80.9-35-80.9-78.2 0-24 8.5-43.9 26.1-58.3h-29v-19.9z" fill="#eba900"/><path d="m151.3 125.8v-56.6h34.2v136.8h-34.2v-27.4c-13.4 16.5-30.3 26.9-37.1 29.8-10.5 4.5-13.2 5.8-24.7 5.8-40.7 0-78.8-30.1-79.6-70.5-.5-27.7 15.6-53.6 32.8-66h-35.9v-9.1h49.1c-17.9 12.8-26.3 35.4-26.3 56 0 32.5 27.4 59.9 60.2 59.9 28.4.1 56.7-18 61.5-58.7" fill="#a32035"/><path d="m218.7 0v54.8h-43.4v-20.4h-42.8v192.1h15.6v23.4h-77.6v-23.4h15.6v-192.1h-42.7l-.1 20.4h-43.3v-54.8z" fill="#eba900"/><path d="m76.1 244v-12.3h16.2v-203.7h-54.3v20.4h-32v-42h206.6v42h-31.9v-20.4h-54.4v203.7h16.2v12.3z" fill="#a32035"/><path d="m95 58.9c.4-1 .9-2 .9-3.1.5-1.2 1.9-.1 2.6-.9 1.3 0 2.7-.1 3.7.7 2.7 2 .9 5.1 1.5 8-.4.7-.8 1.5-1.2 2.2.9 1.7-1.5 2.1-.7 3.7-.5.2-.4.7-.4 1.2-3.5 3.2-6.1 6.2-8.9 9.9-.7-.2-1.1.4-1.5.8-.4 1.5-2.2 3.1-3.6 3.7-.5-.2-.8.2-1.1.5-.2 1.4-1.9 1.2-2.8 1.7-3.2 1.9-6.5 3.5-9.5 5.7-2.7 1.5-5.3 4.2-5.3 7.4 0 2.2-1.1 5.2.9 6.7-.2 1.1 1.2 1.8 1.9 2.4.6.5 1.2 0 2 .2 2.1-1.2 4.4-1.9 6.9-2.4.9-.5 1.7-1.2 2.8-1.3.4-.7 1.2-.2 1.9-.4.9-.2 1.4-1.6 2.6-1.5.9-.5 1.9-.5 2.6-1.1.6-1 1.6-2.5 2.9-2.6 1.2-.5.9-2.4 2.5-1.8 1.2-1.3 2.9-2.6 4.6-3.2 1.3-.8 3.2-.5 4.4-1.6 1.4.2 2.3-.4 3.3-.9 1.6-.4 3.1.7 4.5-.2 1 .2 2.2-.2 2.9.4v.5s5.1.1 7.5.2h1.2c.3 1.6 2.5-.2 2.8 1.5 2.8-.8 3.9 2.6 6.4 2.2.4.3.6.7.5 1.3 1.1.8 2 2.6 3.3 2.5.5.4.8 1 1.5.8 1.9 2.5 6 4.2 5.8 7.8.3 1.1 1.5 1.4 1.9 2.5.5.1 1.1-.1 1.5-.5-.4-1.6 1.8-1.7 1.5-3.2 1.3-2 4.3-.7 6.5-1.1.3.5.8.8 1.5.7 1.2 1.6 3.8 2.7 2.8 5.2.7.2.9.8.8 1.5-.2 1.1-1.1 1.5-.8 2.8-.7 1-1.6 2-1.6 3.3-1.1.1-.4 1.4-1.2 1.7l-.3.3c-.1 3.6.2 7.3-.2 10.8.7.8.2 2.7 1.2 3.7.3 1.5.4 3.6 2.2 4 .6 0 1.1.6 1.2 1.2.9 1.7-1.8.5-1.2 2.2-.4 0-.6.5-.9.7 0 2.1 2.6-.3 2.1 2.1-2 .5-.1 2.5-.9 3.8-.1 1.5-.8 4.3.5 5.7-.2.7.3 1.1.8 1.5v12.2c1.6 1-.3 4.5 1.6 5.5-.4 1.8 3.1 2.5 2.2 4.6.9 1.3 3.4 2.2 2.4 4.1 1.5.2.1 2.2 1.3 2.5-.2 1.4.9 2.2.9 3.5 1.5.4 0 2.5 1.5 2.9-.1 1 .1 1.8.9 2.5-.2.1-.2.2-.2.3v.2c1.9.8.1 3.4 2.2 3.7-.9 2.7 3.2 3.1 2.4 5.5.5.8 2.1 1.3 1.6 2.5 2.3 1.2 1.9 4.3 4.6 5.2-.9 1.2.9 1.7 1.5 2.2 1.4.3 1.9 1.7 3.5 1.7.5.7 2.2 1.5 2.1 2.8.5.3 1.2.1 1.5.8-.9 2.1 1.5 2.8.7 4.9-.9.5-.5 1.4-.9 2.1-1.8 1-2.6 4.5-5.3 3.2.1.8-.9 1.2-1.2 1.8-.9.2-1.1-1.2-2-.9-.6.2-1 1-1.9.7-1.3 3-4 1.2-6.4 1.7-.2.2-.2.5-.5.7-1 .2-.9-1.2-2-.7-.6-1-1.9-.2-2.4-1.5-1.2 0-2.2-.7-2.8-1.7-3.1.3-4.2-2.8-6-4.2-.3-1.2-.9-2.1-.9-3.3-1.2-2.3-.5-5.5-3.3-6.9-.4-.5-1.7-1-.9-1.8-1.7-3.9-7.7-5-6.7-10.2-1.5-.1.1-2-1.5-2.1.9-2.1-1.6-.5-1.9-2-1 .4-1.3-.9-2-1.1-.2-.5.2-1.1-.4-1.3-.6.1-1.2-.1-1.5-.5.3-.5.1-1.1-.2-1.5-.1-.1-.1-.2-.2-.3-2.3-.5-2.1-3.3-3.9-4.1.3-.8-.4-1.3-.9-1.8-.5.1-1.1-.1-1.5-.5.6-.8-.2-1.4-.7-1.8-.4.1-.5-.2-.8-.4-.1-.5.2-1.1-.4-1.3-.5-.2-1.2.3-1.5-.4.4-1.6-1.2-1.4-2.2-1.6-.3-.1-.4.3-.7.2-.1 1.1-1.2 1.7-1.9 2.8-.7-.6-1.2.3-1.5.8-.2-.5-.8-1.3-1.5-1.3-.9.1-2.6 1.5-2.9-.4-1.2.7-1.3-1.2-2.4-.8-.5-1.2-1.9-.2-2.2-1.5-1.1.4-1.6-.5-2.2-1.1 0-1.8-2.1-2.5-2.2-4.1-1.3-.5-1.7-2.8-3.5-2.6-.5.7-.9 1.5-.4 2.2 1.4.2.3 1.8.9 2.6l-.9 1.1.9.9-.2 6.1c.5.2 1.2.9.8 1.5-.2.2-.5.2-.8.5v.5c.5.6 1.2-.5 1.7.4-.2.5-1.1.4-.9 1.1.6.6 1.2-.5 1.7.5-.2 1.4.3 2.2 1.1 2.8 1.3 1 3.4 1.4 4.5 2.8 3.5.5 6.4 3.2 8.7 5.8.4-.2 1.1-.2 1.3.4-.2 2.4 2.7 4.3 1.2 6.6.5 1.5 2 2.5 2.2 4.1s0 3.2-1.5 4.1c.5 1.1-.9 1.4-.5 2.4-.5.6-1.7.2-1.7 1.3 0 .6.2 1.3-.5 1.6-1.7.6-1.7-1.8-3.5-.9-.7 1.2-.1 2.6-1.7 3.3-.7-.2-1.1.4-1.5.8-2.1.2-4.6-.6-6.1.8-.9.1-1.8-.1-2.1-.9-.9-.2-1.5.4-2.4.2-.6-1.5-2.5-.2-3.3-1.1-.5-.1-.9.1-1.2-.4.5-1.6-1.9.1-1.5-1.5-.4-1.3-.5-2.7-1.3-3.9-1.1-2.4.2-6-2.6-7.5.5-1.1-2-1.7-1.5-3.2-.3-.4-.9-.5-.8-1.1l-2.2-.2c-.1-.5.2-1.1-.4-1.3-2.7 1.2-1.5-2.2-3.9-2-1.4-1.2-2.7-2.8-4.3-3.7.5-1.1-.9-.8-.9-1.7.2-.1.2-.3.2-.5-1.2-1.2-2.7-2.4-3.2-4.1-.2-.5-.2-1-.1-1.6-.3-.2-.4-.5-.4-.9-.7-.7-1.9-.4-2.4-1.5-.5-1.6.8-2.5.4-4.1.7-.3.2-1.2.4-1.7-2.5-1.2.9-2.5-.8-4.1.3-1.5-1.4-2.2-.9-3.8-.6-1.1-2-.4-2.6-1.7-2.4-.3-5.3.8-7.2-.9-1.8.7-2.4-1.6-3.7-1.5-.7-1.4-2.7-.2-3.6-1.6-.9-.5-1 .8-1.9.5-.1 1.2-.5 2.4-1.1 3.2l.5.5c-.4.2-.8.5-1.3.4-1.1.7-1.5 3.4-3.7 2.4-.2 1.4-1.9.2-2.4 1.6-1.5-.3-3.6.8-4.5-.9-1-.4-2.2.9-2.8-.5-1 .1-1.7-.6-1.6-1.6-1.2-1.2-2.1-1.9-3-3.2 0-.9-.8-2 0-2.8.4-2.8-.9-6.2 1.2-8.3.6-1.2 1.5-2.3 1.1-3.9 2.9-1.5.2-5.3 2.6-7 0-.8-.2-1.8.7-2.2-.3-1.8.5-3.1.8-4.6l3.7-3.5c1.5.5 4.2-.5 5 .9 1.3 0 2.4 1.4 3.7.4-.9-1.4 2.1-2.2 0-3.2.9-.4-.1-1 0-1.5.1-1.5-.3-3.3.4-4.6.6-.6.2-1.6.3-2.5-.8-1.3 0-2.9 0-4.4-.6-.5-.2-1.4-.3-2.1.4-1.2.9-2.2.7-3.7 1.9-1.2.8-3.8 2.6-4.8.4-.6.3-1.4 1.1-1.8-1.3-.7-1.8-2.1-2.6-3.2-.4-.8 0-2-1.2-2.5.4-1.2-.5-2-1.1-2.8.2-2.8-.6-5.9.7-8.2-.3-1.2.7-1.7.6-2.8.9-1.4 1.1-3.3 2.9-4.2 2.9-1.8 4.3-5.5 7.4-6.9 1.1-.8 2.2-1.4 3.6-1.8.4-1.2 1.8-.2 2.2-1.5 2.2-.8 4.1-2.2 6-3.7 1.1.4 1.3-1.2 2.2-1.2 1.1-.8 1.9-2.5 3.3-2.5.6-1.2 2.5-1 2.2-2.6 1.1-.8 3.4-1.9 2.8-3.8.5-1 .5-2.2 1.5-3 .1-1.5 1.5-2.7.9-4.2.1-1.1.3-1.9.6-2.7z" fill="#231f20"/><path d="m101.5 57.7c.4 2.4.2 5.5-.5 7.9-.8.8-2.3-.2-3 .9-.2 1.8 2.2 3.8 0 5.4-.9-.5-2.3.2-3.1-.6-.3.3-.7.5-.8.9.5 1 2.2.1 2.4 1.2-.7.8-1.8 1.5-2 2.4-.4-.8-.6-2.5-2.1-2.6-.2.4-.5.5-.9.4.7-1.4 3.2-2.2 2.6-4.1.5-.2.4-.8.9-1.1.4.2.9 1.2 1.5 1.1l.5-.5c-.5-.5-1.3-1.4-2.2-1.5-.2-.6.9-.8.7-1.5.9.2 1.7-.2 2.2-.9-.1-.5-.5-.9-.9-1.3-.1-1-.8-3.2.5-3.8 1.5-.5 2.5 1.6 3.6.5.3-1.2-.7-1.8-1.5-2.4-.9-.2-1.5.5-2.2.5-.3-.8.5-1.2.7-1.8.9.2 1.5-.8 2.5-.2z" fill="#eba900"/><path d="m99.5 62.7c-.1.2.2.6-.2.7-.5.2-.8-.4-.9-.7.2-.6.9-.6 1.1 0" fill="#231f20"/><path d="m91.7 75.2c-1 1.6 2.1 3.5-.5 3.8.2-.4-.2-1.1-.8-1.5-.9-.1-1.2.8-1.9 1.3-.5 1.5 2.2 2 .2 3.2-1 .3-1.2-2.6-2.4-.8-.5 1.1 1 2.2-.5 2.8h-.8c.3-.8-.2-2.1-1.2-2.2h-.6c-.2-.5.4-.6.2-1.1l-.4-.4c.5-.2 3.9-.8 4.5-2.9 1.4-.5 2.4-2.3 4.2-2.2" fill="#eba900"/><path d="m82.4 86.1c-1.2.1-2.2.8-3.3.8-.5.9-1.4 2.1-2.5 2.2-.7-1.4-2.4-1.4-3.7-1.8.7-1.4 2.3-1.8 3.2-2.6.7 1.8 2.6-.4 3.6 1.2.5-1.2-.4-2.5 1.5-3l1.5-.5c.1.8 1.2 2.7-.3 3.7" fill="#eba900"/><path d="m73.1 89.4v2.2c-1.2.2-2 2.2-3.6 1.2-1.1.5-.2 1.7-.7 2.4.2 2.8-5.7 1.7-2.2 4.6 0 1.9-3.8 2.2-2.6 4.2 2.2-1.2 1.5 1.7 2.4 2.4l-2.6 2.6c.5 1.2 1.2.1 1.9 0 1 .1 2.9-.8 3.2.9.5 2.2-2.5 2.6-3.6 4.2-.2-.8 1.1-1.2 1.5-2.2-.5-.5-1.4-.7-2-.3-.8-.2-.9 1.2-1.9.7-.9-.5-1-1.5-1.5-2.2-.5-1.2 1.9-3-.6-3.1-.2.2-.4.5-.7.3v-6.5c.3-.9.9-1.7.9-2.8 2 .2 3.2-1.7 5.2-1.5.4-.2.4-.6.2-.9-1-1.2-2.4-.1-3.5.2.2.1.2-1.5 1.1-1.8.9-.1 2.1.2 2.4-.9-.5-2.5 2.6-3.3 3.9-4.5 1.2-.2 1.9.5 2.8.8" fill="#eba900"/><path d="m68.2 92.8c-.2.1-.2.5-.5.4-.4-.2 0-.5.2-.8z" fill="#231f20"/><path d="m116.9 96.5h.5c-.1.5.2.9.6 1.3.5.2.7-.5 1.1-.8 0-.5-.6-.5-.9-.8v-.5c4.1-.6 8.5.1 11.9 2.2-.5.6-1.9.4-2.6.2-3-3.3-5.9 1.8-9.4.4-.9.5.1 1.3.5 1.5 1.4.5 3.6.2 5.2 0 .9-1.2 2.7-.6 3.9-.5 3.5 1.7 7.5 1.8 10.5 4.6 2.1.3 1.8 3 3.7 3.9.9 1.8 2.9 2.8 2.8 5.2-.6.2-1.1-.9-1.7-1.2l-.5.6c.5.8-.9 1.3-1.3 2-1.2.2-1.9-1.2-3.2-.9-2.3-1.2-5 .9-6.8-1.3-2.2-.2-4.1.2-5.8 1.2-.2-.2-.2-.4-.2-.6 1.5-2.8 4.8 1.2 5.6-2.8 0-.4-.8-.5-.5-1.1.8-.3.9.9 1.6.8 2.7-.9 1.5 2 3.3 2.5.9.1 1.7 1.2 2.5.2-.4-1.5-1.4-3-3-3.4-1.5-1-2.9-2.6-4.8-2.8-1.2-.7-1.6-2.6-3.2-1.8-1.2.8-2.9.9-4.3.6-.5-.7-.1-1.5.4-2.1 2.9.7 7-.6 9.6 1.2 2.9-1.2 2 3.7 5 3.5 1.2-.5 1.4 1 2.1 1.5-.2.9.5 1.7 1.2 2.1.6 0 1.3.8 1.7-.2-1.5-2.8-3.4-5.5-6.1-7.5-.9-1.2-2.9-.1-3.7-1.5-2.1.3-3.9-1.9-6.1-1.2-1.9-1.3-2.8 1.6-4.6 1.2-3-.8-6.4-1.3-9.5-1.2-1.2 2.7-5.6.6-6.7 4.3-1.4 1.4-2.2 3.4-3.3 5.2-1.5-.3-1.7 2.3-3.4 1.1-.5-.6-1.1-1-1.9-1.1-.2-3 2.2-4.5 3.4-6.9-.5-.9-1.2-.4-1.7 0-1.9 1.3-2.3 4-3.9 5.5-.6-.3-.5-1.5-.2-2 2.1-2 3.2-4.4 3.7-7.1l-.4-.3c-.2.2-.5.4-.5.7h-.5v-.7c3.6.5 5.8-3.8 9.1-4.5 2.2-.2 4.3-.9 6.5-.4 1.8 0 3 .9 4.3 1.7" fill="#eba900"/><path d="m116.8 97.5.5.5c-1.5 1.2-3.6.1-5.4.9-.2-.5-.7-.3-1.1-.3-1.1 1.7-3 .2-4.1 2.2-.9.3-2.1.1-2.8.9-.9-.4-1.2 1.6-2 .4.5-1.4 2.2-1.6 3.3-2.8 1.7-1.1 3.7-2.2 5.6-3.3 2.1.3 3.7 2.3 6 1.5" fill="#231f20"/><path d="m63.4 99.9c-.9.9-1.7 1.8-2.8 2.1-.5-.7 0-1.5.4-2.1.9.2 1.9-1.1 2.4 0" fill="#231f20"/><path d="m128.1 218c.9-.6.6-1.7.9-2.6l-1.6-1.8c-.1-.4.1-.8-.4-1.1.3-2.2-2.2-3-1.2-5.4-.2-.6-.6-1.1-1-1.5-1.1-1.2-2.6-2-4-2.9l.2-.2c-.8.2-1.3-.1-1.9-.5-3.7-2.5-8.4-3.6-10.2-8.3-.3-2.1-2.8-3.2-4.1-4.4.5-1.5 1.2.5 2.1 0 1.3-.8-.2-2.7-.2-4.1-.5-.9-.1-1.8.2-2.6s.5-1.6-.3-2.4c-.9-.4-2-.8-3-.4.1.8.7 2 .5 2.8-.1.3-.3.6-.7.9-.5.2-.9-.2-1.3-.4-.2-.2-.4-.3-.6-.5-.7-.4-1.4-.7-2.2-1-1.9-.3-4.1-.7-5.6-1.8.6-.7 1.6-.2 2.4-.4 2.2-1.6 4.5 1.7 6.7 0 .1-2.1-2.7-.3-3.3-2.2-1.6-2.5-5.1-.5-6.9-2.5-1.4.9-2.8.4-3.6-1.1 1.1-1.5 2.9-.9 4.3-1.8.8.5 1.5 1.2 1.7 2 .2.1.5 0 .5.2 1.3-.8 3.4-.5 4.1-1.8-1.1-2.5-4.9-.8-6.8-2.8-.1-.1-.2-.2-.3-.4.6-.5 1.3-.9 2.2-.8.4-.1.6-.5.5-.9h-.2c-2-.9-4.7-2.7-4.6-5.3-1.2-.5-2.1-2.1-3.1-2.6-.3 1.2 1.1 1.4 1.6 2.1.2 1 .5 1.9 1.2 2.8-.8 2.3-2.2-.4-3.2-.6-1.6-.6-.5-2.9-2.4-3.5-.1-2.3-2.9-2.1-3.9-3.9-.1-.2-.2-.4-.2-.7.5-2.8-.3-5.4 1.1-7.8h.2c.2 2.2.1 5.2 1.2 7.2.3.3.6.8.9 1.3.7 1.2 1.2 2.5 2.7 2.6.3-.9 1.8-.7 1.9-1.8-.6-.2-1 .2-1.5.4-.5-.3-.9-.7-1.2-1.1-.4-.5-.6-1.1-.5-1.9.2-.2.4-.5.8-.5l.2-2c-1.4-1.6-.7-4-2.2-5.5-.9-1.7 1.1-3.8-.9-5 .1-2.8 1.2-5.1 3.2-7 .8.3.1 1.2.5 1.6.2 2.5-.3 5.5-.2 8 .4 0 .6-.1.9-.2-.4-2 1.4-3.9.8-6.1-.4-1.2.8-2.4 1.2-3.3-.1-1.6.9-3 .8-4.5-.6 1.4-1.2 2.8-2.2 3.9-.5.2-1.2.9-1.6.2-.7-1.5.3-2.7.9-3.8.3-2.7 3.1-4.4 2.6-7.4-.3-.6-.1-1.8-.9-1.7v.4c-1.5.8-.9 2.5-1.9 3.5-2.1 2-.3 5.5-2.9 7.2-1.2-1.5-.2-3.5-.2-5.4.5-3.2 4-5.2 3.7-8.6 1.1-1.4.1-3.7 1.7-4.8.9-2.8 4.3-4.1 3.6-7.5 1.2-.8.2-2.7 1.9-3 .7-.3 1.2-1 1.2-1.8h-.5c-2.2 1.8-3.9 4.2-4.4 6.9-2 2.3-2 5.7-5 7.2-.9-.1-.5.8-1.3.9.2-1.2 1-2.5 1.3-3.9 1.5-1.7 2.2-3.8 2.9-5.8-2.9.5-3.3 4.6-6.1 5.7-1.8-.8 1-1.3.4-2.4h-.8c-1.2.2-.6 1.5-1.3 2.2-.8.1-1.8 1.4-2.4.3.3-1.3.1-2.2.9-3.3l-1.1.4c-.2.3-.2.7.2.9-1.9.6-3.2 1.9-4.8 3.3.1 2.2-1.7 3.5-1.3 5.8-.9 1.2.5 2.6-1.3 3.5-.5-1.7-2.1-3.7-.7-5.5.3-1.7 1.4-3.2 2.6-4.4 0-.8-1.1-.9-1.6-.6-1.9 1.5-4 2.2-5.3 4.5-.2 2.4-1.1 4.5-1.2 6.9-2.7 3.8 2.6 6.5 1.1 10.5l-.5.7c-1.4-.9-.1-3.2-2.1-3.7 0-3-.6-6.2-.2-9h-.7c-.3.5-.7.9-.5 1.6-1.1 1-.2 2.8-1.5 3.7.7 1.4.7 3.1 1.5 4.5.4 1.7.6 3.5 1.7 5 1.9 1.5 2.1 3.8 1.6 6.1-.2.1-.4-.2-.5-.4-.6-2.1-3.2-3.7-2.9-6.3-.6-.6-.5-1.8-1.3-2.2-.5 3.4-1.3 6.2-.8 9.8.2-1.4 0-2.9.5-4.1 1.2.3.9 1.5 1.2 2.2 1.2.7.7 2.4 1.9 2.8.9.3 1.5 1.3.9 2.2-.7.8-1.6 0-2.4 0 .6 2.9 1 6 1.1 9.2.2.1.3.2.5.3.9.6 2.1 1.4 1.9 2.6-.3.5-.9.6-1.5.5-.3-.4-.9-.6-.9-1.1.1-.9-.2-1.5-.7-2.1-1.2-1.3-3.6-1.9-2.8-4.4-.7.1-1.3-.1-1.9-.5.5-1.2 1.5-1.1 2.1-2.2.3-.8.3-2.1-.5-2.4-3.3.6-5.1-1.9-8.1-1.8-1.3.2-2.6.8-3.5 2-1.3 1.2-.6 3.1-1.9 4.2-.4 1.7-.7 3.5-1.2 5.2s-1.1 3.4-2.2 4.8c-.4 2.6-1.3 5.6-2.1 8.3 0 .1-.1.3-.1.4-.5 1.2.2 2.9-.5 4 .7-.2 1.2.2 1.6.8.2.5-.3.7-.4 1.1 1.1.4.7 2.1 1.7 2.1 0-.6.2-1.3-.5-1.7l.4-.4c.6.3 1.7-.6 2.4.2-.3.7 1.2 1.3.4 2.2.2.2.1.9.7.7.3-.8-.7-1.4.4-1.8.6.5.2 2 1.5 1.5 1.5-2 3.3.5 4.1 1.5.9-.9-.4-2.2 1.1-2.6.5.3.9.9 1.5.8 0-1.4 1.2-2.2 2-3.4.6.4.3 1.3.9 1.3.8-1.1-.1-2.8.8-3.8-.2-.9-.9-1.2-1.7-1.3-.2-.5-.9-.9-.4-1.5-1.4-2-2.4-3.7-4.6-4.8-.4-.8-.9-1.9-.2-2.8.7-.4 1.3-1.2 2.2-1.2.8.4.6 1.2.9 1.8.3 1.7 1.7 3.7 3.3 4.2-.1-.3.2-.4.4-.5.5 1.3 1.3 2.4 2.2 3.3 2.1 2.1 5 3.4 7.4 5.2 2.1.1 3.6 1.3 5.8 1.1 1.1-.6 2.6-.8 2.8-2.4.2-.5-.2-.9-.8-.7-.1.4-.6.7-.9 1.1-1.6.6-1.2-1.7-2.6-1.5-1.4 1.5-2.8-.3-4-.9-.8-.1-2.1.2-2.6-.9l.5-.5c2.2.2 5 .2 7.4.7.3-.6 1.4-.3 1.4-1.1v-.2c-1.2-.6-3.6.7-4-1.1.3-.3.6-.7 1.2-.5 1.2-.7 2.6-.8 3.7-1.7.5-2.2-2.1-1.6-3-2.8-.5-1.8 1.6-2 2.4-3.2.1-.5 0-1.1-.3-1.5-1.2-.6-2.9-1.4-4.3-.5-.7-.6-1.8-.8-2.3-1.7 0-.1-.1-.1-.1-.2-.2-2.8-1.6-5.3-1.6-7.9 2.5-1.7.5 2.4 2.4 2.9-.2 1.2 1.3 1.6 1.1 2.8.5.6 1.1 1.8 2.1 1.5.6-.1.7-.8.9-1.2.9-3.6-3-5.8-2.5-9.5h-.3c.2.6-1.1.9-.4 1.5-.4.2 0 .8-.5.8-.4-2.5-1.6-5.3-1.2-8.2-1.8-2.2-.5-5.5-.4-8.1-1.2-.2-1.2-1.7-2.2-2.4-.2-1.6-.6-3.8.3-5.2.9-.7.9-1.5 1.3-2.4l.4.4c-.3 2.9.5 5.9.5 8.9.9 3.3 1.9 6.4 3.3 9.5 2.9.2 1.4 3.5 2.1 5.3.1.6 1 .8.9 1.5h.5c-.1-3.1-2.3-6.4-.2-9.2 1.5 1.2-.2 3.8 1.5 5 .9 1.2.4 3.3 1.9 3.7-.5-5.8-1.3-11.2-.8-17 1.4-1.5-.5-3.6.9-5.2.5-.2.6.4.9.5.8 3.5-.7 6.5-.2 10 1 .6.5 1.9.9 2.8h.4c0-1.5-.2-3.2.9-4.2 2 .3 1.3 2.7 1.5 3.8-1.3 1.4-.5 3.6-1.7 5-.2 1.9-1.1 3.6-1.3 5.5-1.5 1.2-.9 3.2-1.2 4.8-.2 1.7.2 3.2.6 4.6.4 1.2.8 2.4.9 3.7.2.7 1.4 1.2 1.5 2.1-.3.3-.5.6-.9.7-.4-.4-.9-.7-.9-1.2-1.4-.6-1.1-2.4-1.7-3.4-.5 2.1 1.1 3.2.8 5 .5-.1 1.1.2 1.5-.2 2.1 1.8 3.1 4.2 5.2 5.5-1.3 1.3-2.8-.2-4.3-.2-2.1-.5-1.8-3.1-3.2-4.2-.3 1-.2 1.8 0 2.8.6.9 1.2 1.7 1.7 2.6.4.6.7 1.2.9 1.9-.5 2.8 2.2 3.3 3.7 5 1.9-.5 3.3.6 4.3 1.8-1 .6-2.2-.3-3.3-.6-1.2-1.2-2.7.1-4.1-.7-.2-.5-1-.6-.7-1.3-.6-.8-1.4-1.9-2.5-2 .8 1.1-.2 3.8 2.2 3.3.7.7 1 1.5 1.2 2.4-.5 1.3-2.4.5-2.1 2.2.6.2.9.6 1.2 1.1.6 1.1.8 2.4 2.5 2.2 1.5 3 4-1.2 5.6 1.3-.7.8-1.5 1.4-2.4 1.6-2-1.1-3.5 2-5.7.9.1 1.4-.4 3.6 1.1 4.5.1-.5.2-.9.4-1.3 2.2-1.3 5 .2 7.4-.5l.4-.4.3.4c-.5 2.5-3.3 2.2-5.2 2.8-.6 1.1-2.9 1-2 2.6.9 1.9 3.3.9 5 .9.5.2.8.8.9 1.2-.2 1-1.2 1.2-1.9 1.8 0 .6-.2 1.4.2 1.8.7.2 1.2-.2 1.9-.3 1.8 1.8 3.9-.2 5.6-.8 1.2-1.8 3.3-1.5 4.8-2.6.7.2 1.7-.4 2.1.6-.5.5-1 1.1-1.7 1.1-1.5 2-3.9 1.7-6 2.2-.4.3-.7.6-1.1.9-.6.6-1.2 1.1-1.3 2v1c1.8-.2 2.9 1.2 4.3 1.7.7.8 2.2 1.1 2.1 2.4 1.2-.6 1.9-2.2 3.2-3.2.5-.1 1.6-.6 2 .4-1 2.2-4.6 2.1-3.6 5.2.4.9 1.5.5 1.7 1.5.5 3.8 1.2 7.5 2.9 10.8.9 1.1 2.2 2.5 3.7 1.8.5-.5-.2-1.5.8-1.8l.5.5c.2.3-.2.5-.2.7.1.4.5.7.9.6.1-.8.6-1.5.9-2.2-.1-1.1-1.4-1.6-1.7-2.6-.2-1.2-2.7-1.5-1.1-2.8.7-.4 1.5-.2 2 .5-1.2 2.8 2.9 3.2 2.1 6.2.9 2.4 3.5-.1 4.8 1.2.5-.8.5-1.7 1.3-2.4 1.1-1.6-1.2-1.5-1.5-2.5l.3-.4c.2-.1.3.1.4.2l-.5-.7-.4.3c-.2.1-.4-.2-.5-.3.5-1.9-.9-3-.9-4.6.2-.5.7-.8 1.1-.9 1.1.6.4 1.9.6 2.9 1.9 1.5 1.2 5.1 4.4 5.2 1.8-.2-.2-1.9 1.5-2.5 1 0 .3 1.4 1.3 1.2 1.9-.8.4-2.5.5-4.2-.7-1.8-1.5-3.6-2.6-5.3-.5-.6-.1-1.2.4-1.7.5-.2.8.2 1.1.5-.2 1.8.9 3.1 1.9 4.5.3 1.6-.2 4.3 1.9 4.6 1.9-1.3.4-2.8.9-3.9z" fill="#eba900"/><path d="m117.5 104c.9.3 2 .1 2.6.9v.5c-1.1-.1-2.2-.5-3.3.2-2.9.1-5 2.6-6.5 4.6.7.8 1.5-.2 2.4.2-.1.9-.5 1.4-1.3 1.8.2.5.8.7 1.3.5.4-1.3 1.9-.9 2.6-2 1.4.6 3.1 1.2 4.6.9.2.5 1.3.6 1.2 1.5-2.8-.1-5.4-1.5-8.4-.2-2.6-.8-2.6 2.2-5 1.6-.9-1.2 1.9-1.5.2-2.4-1.2 1.5-3.2 1.3-4.8 1.8-.9-.4-.9-1.5-.6-2.2 1.3-2.5 3.9-4.5 6.4-6.2.9-.8 2.6-1.3 3.2-2.8 1.2.2 2.1-.4 3.3-.2z" fill="#eba900"/><path d="m87.6 105.5.1-.2h.8z" fill="#eba900"/><path d="m81.5 108.2c.9-.1 1.5-1.2 2.6-1.1l.4-.4c-.6.4-1.8 1.7-3 1.5" fill="#eba900"/><path d="m121 108.8c-.2.5-.2 1.3-.9 1.5-1 .3-.9-1-1.7-1.2h-2.8v-.1c1.9-.1 4-2.3 5.4-.2" fill="#eba900"/><path d="m128.9 108.6-1.5 1.3c-1.5-.7-2.6.5-3.9.4-.5-.8.2-1.7.9-2.1 1.2-.4 3.4-.8 4.5.4" fill="#eba900"/><path d="m155.6 108.8c-.5-.5-1.7.9-2.2.2.3-.6 1.6-.4 2.2-.2" fill="#eba900"/><path d="m157.8 110.7v.7c0-1.2-1.8-.9-1.6-2 .9-.2.8.9 1.6 1.3" fill="#eba900"/><path d="m120.7 150.9c0-.1-.1-.1-.1-.2 0 .1 0 .2.1.2z" fill="#eba900"/><path d="m129.2 140.2c-.2-.1-.4-.1-.6 0z" fill="#eba900"/><path d="m157.3 140.2c-.1-.2-.2-.4-.4-.6-.1-.8-2.5-1.5-1.1-2.5-1.2-.6-1.5-2.2-1.3-3.3.3-.2.5.2.8.2.5-.5.6-1 .5-1.7-1.1-2.4-1.6-5-2.4-7.5.9-1.5.5-3.8-.4-5.2.2-1.4 1.8-1.5 2.8-1.8-.4-1.5.8-2.4.9-3.7-2-1.2-1.2-4.6-4.5-3.7-2.6 4.3-7.4 6.1-9.7 10.7-1.9-1.5-3.6-4.1-6.3-4.1-.9-1.9-3.2-1-4.3-2.5-2.2-.5-4.4-.1-6.2.9-1.9 3.1-3.9-1.3-6.7-.2-1.5-1.3-3.9.2-5.7.2-1.9 1.7-5.9 1.1-5.3 4.8-1 1.6-2.6 1.6-3.9 2.6-.2-.3-.8-.5-.5-.9 2.8-1.8-2.4-2-1.3-4.1-1.9-2.2-3.6-5.2-6.1-7-1.3-.2-2.4.2-3.6.3-.5.7-2 .8-1.5 2.1-.1.6-.7 1.2-1.3 1.3-.1 1.7.1 3.3.5 4.8.9.2 1.7.2 2.2 1.1-.8 1.7 2.1 2.5.5 3.7-.2-.3-.6-.1-.9-.2-.4.2-.4.6-.2.9.6.1.9-.6 1.3-.9 1.7-.2.7 1.2 1.3 2 .5.2.6-.3.9-.5.3-.9-.9-.8-1.2-1.3.2-2.2.3-4.5 1.3-6.5-2.6-1.6-1.2 2-2.6 2.8-.9.1-.6-1-1.2-1.5 1.6-.8-.2-1.7-.6-2.5l1.2-1.2c.6-.5 1.9-.5 1.9-1.5-.5-.6.3-1.4.9-1.7 1 1.3 2.9 1.6 3.3 3.4-.3.6-1 .5-1.5.7-1 1.3.9.5 1.1 1.5 2 .3 1.2 2 1.7 3.4h.2c.9.7 2.6 1.6 1.9 2.9-.7 1.2-1.8 1.2-2.9 1.1-.9.2-1.4-1.2-2.2-.7 1.1.5.8 1.8 1.1 2.8-.5.8-1.4 1.4-2.2 1.8-2.4 1.1-1.9-2.2-3.6-2.8-.9 2.8 2.4 3.6 3.3 5.5-.6 1.2-1.9.8-2.9.9v.5c.3.2.7.2.9.5.9 1.7-2 1.7-1.9 3h1.1c.5.2 1.2.7 1.2 1.2-.9.6-1.6 1.5-1.9 2.4-.3.8-.3 1.7.1 2.6-.9.8-1.2 2.2-2.5 2.2-1.3 1.9.5 4.4-1.5 6.1.8 0 1.5.6 1.9 1.3-.2.3-.7.6-.9.9-.1.1-.1.3 0 .5.2.2.3.5.5.4.1-.3.5-.6.7-.9.1-.2.2-.5-.1-.8.5-.3.9-.8 1.6-.7.7.4.6.9.4 1.5-.2.4-.5.9-.5 1.3-1 1.4 1.2 1.9.7 3.3 3.3.5 1.1 4.2 3 5.7.9.1 1.9-1.7 2.9-.5 2.1.2 1.4 2.5 2.6 3.5.9.5 1-.9 1.9-.5.2.2.5.4.5.7 1.9-.9 1.4 2.2 3.3 1.7 1.5-1.8 2.4 1.3 4.1 0 1 .1 1.8.6 2.4 1.3.9 1 1.5 2.6 2.4 3.7-.6 2.2-1.1 5.2-.3 7.5.6.6.9 1.3 1.9 1.3.5.5 1.1.9 1.1 1.6.9.2 1.4 1.2 2.4 1.2 1.4-.2 2.3 1.1 3.6.9.7-.9 2.2-.2 2.6-1.5 2-.5 3.5-2.2 5.8-1.8v-.6c2.1-1.6-.1-4.2.4-6.5-1.4.6-.5 2.2-.8 3.4-.5 2.2-2.9 1.2-3.9 2.8-.9.6-1.4-.5-2.2-.4-.5.1-.2.8-.5 1.1-1.2 1.1-1.8-1.5-3-1.3-1.2.9-3.2.1-4.4-.7-1.1-2.2-1.9-4.5-1.5-7.2.3-1.5-.4-2.5-1.1-3.5-1.1-1.4-2.5-2.6-2-4.8.1-.8 1.5-1.4.7-2.4-.5-.4-1.3-.8-2-.4-.7-.5-.2-1.3-.4-2l-.9.5c-.2.8-.5 2.1.2 2.8.3-.1.6.2.8-.2 1.2.9.2 2.3.2 3.5-.4.3-.6 1.1-1.2.8-.5-.3-.7-.8-.6-1.3-.2-.7-.4-1.9-1.2-1.8-.7 1.2-1.9.2-2.8.2-2-.5-2.8-3-4.1-4-1.2-2.8-2.9.5-4.5.2-1.1-1.1 1.2-1.8 1.2-2.8-.3-.4-.8-.5-1.2-.8-.7-1.8-2.4-2.8-3.9-3.7l-.1-.1c-1.1-1.1 1.2-.8.8-2 0-.8-.9-.9-1.5-.9-1.5-2.5.3-4.9 1.7-6.9-.8-.8-.2-1.3 0-2.2.1-.6.6-.9 1-1.1.8-.4 1.6-.6 1.4-1.7 2-.8.8-2.7 1.1-4.1-.9-3.2 3.1-5.2 5-7.4.7-.5 1.6-.3 2.2-1.1.3-.2 1.1-.4 1.3.2-.6.9-1.1 2-1.5 3-2.9.9-1.7 4.5-4.6 5.5.1 1.6-1.9 2.7-.9 4.4-.4.8-1.2.4-1.7.8-.1.1-.3.2-.3.4-.7 1 .4 2.2-.2 3.3 1 1 2.7 1.2 4.3 1.3-1.1-1.1-1.7-2.4-1.7-3.9 0-.2.1-.5.1-.7.2-.8.6-1.6 1.6-1.1l-.2-.9c.8-1.6 2.9-2.7 3.5-4.4-1.6-2.3 2.2-3.2 3-5.2.2-1.5.9-2.9 2-4.2.6 0 1.2 0 1.5.5 1.9 1.5-1.1 2.4-.7 3.9 2.5 1 3.2-1.6 4.6-2.8.8-1.5 1.5.6 2.6 0 1.9.8 1 2.5.9 4.1-1.5 1.3-1.5-1.3-2.4-1.7l-.2.2c-.7 1.1.4 1.3.9 2.1-.2.6.4 1.1-.4 1.5-1.9-1.5-5-.6-6.9-2.2-.6.9-1.2 1.8-.9 3 2.7 1.6 6.2 1.3 9.1 2.4.5.5 1.7-.4 1.9.7 1.2.8 1.2-.5 2.2-.9.3.4.9.6.8 1.2-.2.4-.5 1-1.1.7v.4c1.2 1.2-.1 2-.4 3-.1.3-.1.7.2 1.1-.9 1.8-2.2-.3-3.3.4-.9.5-2.8-.5-2.9.9.7.3 1.9 0 2.2 1.1-1.2 1.2-3-.8-4 .9-.2.5.3.6.5.9-.4 1.2 2 1.8.5 2.8-.7-.3-1.5-.6-2-1.3-.2-1.5-1.1-2.3-1.3-3.8.3-.3.5-.6.9-.8l-1.2-.7c-.1-.5.2-1 .6-1.3.7-.1 1.8 0 2.4.8.7.3 1.2-.4 1.7-.9l.2-.2c-.5.2-.7-.3-1.2-.2-.7-.3-1-1-1.2-1.7-.9-1-1-3.4-3-2.4-.7 1.2 1.5 1 1.5 2.2-1.2 1.8-1.7-1.3-2.8-1.2-.4-.1-.2.2-.5.4-.8 1.8 1.5 1.9 2.5 3 .1.1.1.1.1.2l-.8.8c-1.4-.3-2.9-.2-4.3-.8.1-.1.2-.1.2-.2 1.2-1.1 0-3 .3-4.3-2.2-1.8-1.7 2.5-3.3 3.4-.1.3-.2.6-.2.9-.1 1.8 1.3 3.9-.7 4.9-.3 1-1.9.5-1.3 1.8h.5c1.9.2 1.1 2.8 2.6 2.8 2.9-.5-.2-2.4.5-3.7-.9-1.6.9-3.1 1.3-4.6 1.1 0 2.1 2.1 3.3 1.7l1.5 1.1c-.2.9-1 1.5-.7 2.6.7.5 2.2-.5 2.4.9-.3 1-1.3 1-2.2.9-.5-.3-.6-.9-.5-1.5l-2.6.2c.2.8 1.3 1 2.2.9.8.5.2 1.2.2 1.8-.7 1.4-1.4-.2-2.2 0-.1.7.1 1.2.5 1.7.4.1.6-.1.9-.2.6-1.7 2.9-1.2 4.3-1.8 1.1 1.5 1.9-1.1 2.8.4-.2.2-.4.6-.7.5v.9c.6.5.4 1.1 0 1.7-.3.5-.7 1-.8 1.4-.7.2-.8-.9-1.5-.5-.5.8.8.6.7 1.3-.2.5-.9.3-1.2.4l.5 1.8c1 1.2 1.8-.5 2.8-.8.3.4.8 1.5 1.5.9 1.5 1.7 4.2.5 6.1 1.1.8-.2 1.4-.6 1.2-1.6-1.1-1.4-2.6-2.7-3.9-4.1-.6-.7-1.2-1.4-1.7-2.3-.6-.7.2-1.3.7-1.8 2.3-.2 4.1 1 6.4 1.2 1.9-.5 4.3-2.3 6.3-.6.2 1.6-.4 2.6-1.2 3.6-.8.9-1.8 1.7-2.7 2.7-.5.2-.6-.4-.9-.5.1-.8.5-1.6 1-2.2.8-.9 1.9-1.7 2.7-2.4-1.9.6-2.9.2-4.8.5-1.7.6-3.3-.2-4.6-.9-.3.1-.9.3-1.1.3.7 1.3 2.2 1.7 3.2 2.5.7.5 1.2 1.1 1.2 2.2.9-.2 1.5.3 2.2.4.6.6.1 1.7 0 2.5l1.2.4c1.8 1.1 3-1.2 4.5-.2-1.8 2.2-1.3 4.8-1.1 7.5h.9c.5-2.4 3.1-5.5.5-7.5.1-.8.9-1.3 1.5-1.7l-.2-.2c-.2-.4.2-.5.3-.8l-.3-.4c1.8-1.5 1.7 2 3.5 1.8.7-1.8-1.8-1.7-2.4-3.2.2-.4.1-.8-.1-1.1-.5-.8-1.8-1.3-1.3-2.3 1.2 0 1.7 1.4 2.1 2.1.9-.1 1.8-1.5 2.6-.2l-.3.4-.7.9c.2.4.5 1 1.1.9-.5-1 .3-1.4.9-1.8.4-.3.7-.6.6-1.1-.5.2-.8-.3-1.1-.6-1.1-2.1 2.2-1.4 1.7-3.1-.5.1-1.1-.2-1.3.3-.1 1.7-1.9 1.2-2.6 2.5-1 .3-.9-1-1.1-1.3-.8-.1-1.5 1.7-2.1.4.6-.8 1.1-1.9 2.1-2.5.1-1.3 1.4-1.7.9-3.3-.9-.4-1.5-1.8-2.6-1.8-.8-.1-1.2-.9-1.3-1.6-1.5-.6-2.1 1-3.5.7-.7-.3-.5-1-.5-1.6h-.1-.6c-.5.2-.9.8-1.4 0l.4-.4c1.5-.2.8-2.3 1.9-3.2.3-2.3 3-1.2 4.3-1.5 1.9-2.3 3.4 1.3 5.6 0 1.7-.9 2.2-2.6 2.4-4.2-.9-1.9-.4-4.3-2.4-5.8-.2-.5-.5-1.5.4-1.8.9.2 1.5.8 2.2 1.5 1.3 2.3 2.7 4.5 3.7 6.9-3.4 1.9 1.5 3.1.9 5.4 1 .9 1.3 2 1.4 3.1.2 1.8-.2 3.9.4 5.7.6.4 1.6.2 1.9-.5-.6-.7-.4-2-.2-2.8-.7-.8-.3-1.6-.4-2.4 0-.2-.1-.5-.2-.7-.4-1.5-.2-2.8.4-4.5-2.7-1-1.6-4-3.2-5.7 2.2.1 4 2.8 5.8 4.2-.8 1.5-.2 3.5.2 5-.1.5-.3 1.1-.5 1.7-.4 1.2-.8 2.5.5 3.5.8.8-.6 1.2-.4 2.1 2.4.3-1 3.8 2.2 2.8.3-.8-.5-1.2-.8-1.7-.2-.5.3-.8.6-1.1-.2-1.7.9-2.9.7-4.6 1.5-1.1.5 1.4 1.9 1.6.5-.1 1 .2 1.3-.2-.3-.9-.6-1.7-1-2.5z" fill="#eba900"/><path d="m81.8 112.2c-.5 1.9-2.2 3.7-2.1 6.1-.8.8-.7 2.2-1.5 2.9-.6-3.4.5-7.2 3.6-9" fill="#231f20"/><path d="m154.6 112.2c-.5 1.2.3 3.3-1.1 4.2-.9.2-1.4-.4-2.2-.2-.3.5-.5 1.4-.2 2 .3.8.2 2.4.4 3.5 0 .6.9 1 .5 1.8-.3.8-1.4-.1-1.5.7.8.2 1.4 1.1 1.9 1.7-.2.8-.5 1.5-.4 2.4l1.6.4c.2 1.1-1.1 1.8-.3 2.9-.2.6-1 .5-1.3.2.2-1.1-.1-2.7-1.5-3-.5-.2-1.2-.1-1.5-.7.2-1.9-1.6-2.9-2.2-4.5.9-.5.8-1.5.5-2.2-1.5-1.9 1.6-3.2 1.9-5.2 2.2-.9 3.1-3.7 5.4-4" fill="#231f20"/><path d="m78.1 113.2c-1.3 3.1-3 6-4 9.2-.1.8 1 2-.2 2.4-.2-1.8-.7-4.1.5-5.8-.2-2.6 1.4-4.9 3.7-5.8" fill="#231f20"/><path d="m122 117.2c2-.9 4.6.8 6.1-1.3 3.9-.4 7.5 1.1 9.5 4.1-1.2.1-2.4-1-3.2-1.8-2.1-.4-5 .9-6.4-1.2-.6-.2-.7.4-.9.8-.8.5-1.5 1.2-1.5 2.2 2.2 3.2 2.8-3 5.2.2 2.5.4 3.7 2.8 5.6 4.1l-.5.5c-2.6-1.3-5.1-2.6-8-3.2-.2.8-2 1.8-1.2 2.8 1.2 0 2.6 0 2.8 1.3-.2 1-1.3.4-2 .5l-2 1.8c-1.2-.8-2.2-2.2-3.9-1.6-.5-.2-.3-.7-.4-1.2.6-1.1 2.9-.7 2.1-2.4-.9-.9-1.9.3-2.8-.4-2.3-.2-4.7.4-6.9.9-.2-.2-.5-.2-.4-.5 2-.1 2.8-2.2 4.9-2.2 1.5-.7 3.6-.1 4.8-1.1l1.5 1.1c.6-.9-.2-1.7-.7-2.4-3-.8-6.6-2.5-9.3 0-.8.9-2.9-.5-2.8 1.5-.3.5-.9.8-1.3.4.1-.5-.3-1.7.7-1.8 1.9 1.2 1.2-1.8 2.8-1.7 2.3-1 6.2-1.6 8.2.6" fill="#231f20"/><path d="m157.1 119.2c.2.6-.3 1-.4 1.5v-1.5z" fill="#eba900"/><path d="m83.3 125.5c-.5 1.3-1.3 2.5-1.5 3.8l-.4-.4c-.7-2.6.4-5 .5-7.5.8-.4-.1-1.5.8-1.8 1.3 1.5.7 3.8.6 5.9" fill="#231f20"/><path d="m109.5 121c0 1-.6 1.8-1.3 2.4-.4.1-.7 0-.9-.4.5-.7.9-3 2.2-2" fill="#231f20"/><path d="m155.6 122.3-.2.2v-.9c.3-.1.2.5.2.7" fill="#fff"/><path d="m72.7 133.6c1.2.5.2 1.4.2 2.1-.5.2-.5-.4-.7-.6-.2-1.4-1.6-2.6-1.3-4.4-.8-2.4-.9-5.2.2-7.4 3 2.2 1.1 7 1.6 10.3" fill="#231f20"/><path d="m135.9 128c.6-.7.9-2.4 2.2-1.6.9 1 1 2.7 2 3.8-.1 1.8-2.3.2-2.9 1.5-.9.3-1.5-.8-2.2 0-.6-.8 0-2.6-1.5-2.5-.2.7-.8 1.7 0 2.4l-1.9 1.6c-.1-.7.3-1.8.7-2.5.5-1.9-2.6-3.6-.2-5 1.6.2 2.2 2.3 3.8 2.3" fill="#231f20"/><path d="m75.1 129.2c-.6.1-.9-.6-1.3-.9.2-.6-.3-1.4.4-1.7.3.6 1.8 1.4.9 2.6" fill="#231f20"/><path d="m123.3 129.5c-1.9 1.2 1.2 2.8.9 4.3-.5-1.3-2.6.3-2.6-1.5.3-1.1-.1-3.4 1.7-2.8" fill="#231f20"/><path d="m128.5 130.6c-.2.9.3 2.1-.4 2.8-.8-.3-1.4.7-1.9-.4.5-1.2 2.8-1.8 1.2-3.3.6-1.1 1 .3 1.1.9" fill="#231f20"/><path d="m119.7 131.5c.2.8.5 2.1-.2 2.5-.7-.5-.2-1.5-.4-2.2.2 0 .4-.3.6-.3" fill="#231f20"/><path d="m125.5 131.9c.1.2-.3.3-.4.5v-.8c.2.1.3.2.4.3" fill="#231f20"/><path d="m128.6 136.9c-.1.2-.2.3-.3.2-.7-.3-.3-1-.4-1.5.7-1 1.6.9.7 1.3" fill="#231f20"/><path d="m75.9 135.6c-.1.2.2.6-.2.7v-.7z" fill="#231f20"/><path d="m146 138.2c.3.6.2 1.4.3 2.1-.8.1-1.6.5-2 1.2-1.5.7-3.9.1-4.5 2.1-1.7 1.1 2.1 4.8-1.9 3.8-.8-.8 1-1.2 1.2-2l.4-3.2c1-1.1 2.3-2.3 3.7-3.2-.4-.5-.1-1.2-.8-1.5-.9-.2-1.2.8-1.9 1.3 0 .8-1.3 1.1-1.1 2-1.9-1.4-1.6 1.9-3.6.8-.1-.3-.2-.5-.2-.9.6-.3 1.3.2 1.9-.5.3-.9-.9-2 .3-2.5 1.8 1.4 1.8-1.7 3.6-.9 1.1-3.1 3.2.4 4.6 1.4" fill="#eba900"/></g><path d="m0 0h218.7v250h-218.7z" fill="none"/><g clip-path="url(#a)"><path d="m119.2 137.5c0-1.6-1.3-3-3-3s-3 1.3-3 3c0 1.6 1.3 3 3 3 1.6 0 3-1.3 3-3m-.5.1c0 1.4-1.1 2.5-2.5 2.5s-2.5-1.1-2.5-2.5 1.1-2.5 2.5-2.5c1.4-.1 2.5 1.1 2.5 2.5" fill="#a7a9ac" fill-rule="nonzero"/></g><g clip-path="url(#b)"><path d="m118.7 137.5c0-1.4-1.1-2.5-2.5-2.5s-2.5 1.1-2.5 2.5 1.1 2.5 2.5 2.5c1.4.1 2.5-1.1 2.5-2.5m-.4.1c0 1.1-.9 2.1-2.1 2.1-1.1 0-2.1-.9-2.1-2.1 0-1.1.9-2.1 2.1-2.1 1.1 0 2.1.9 2.1 2.1" fill="#b5b7b9" fill-rule="nonzero"/></g><g clip-path="url(#c)"><path d="m118.3 137.5c0-1.1-.9-2.1-2.1-2.1-1.1 0-2.1.9-2.1 2.1 0 1.1.9 2.1 2.1 2.1 1.1 0 2.1-.9 2.1-2.1m-.5.1c0 .9-.7 1.6-1.6 1.6s-1.6-.7-1.6-1.6.7-1.6 1.6-1.6c.9-.1 1.6.7 1.6 1.6" fill="#c3c5c7" fill-rule="nonzero"/></g><g clip-path="url(#d)"><path d="m117.8 137.5c0-.9-.7-1.6-1.6-1.6s-1.6.7-1.6 1.6.7 1.6 1.6 1.6 1.6-.7 1.6-1.6m-.5.1c0 .6-.5 1.1-1.2 1.1-.6 0-1.2-.5-1.2-1.1s.5-1.1 1.2-1.1c.7-.1 1.2.4 1.2 1.1" fill="#d1d3d4" fill-rule="nonzero"/></g><g clip-path="url(#e)"><path d="m117.3 137.5c0-.6-.5-1.1-1.2-1.1-.6 0-1.2.5-1.2 1.1s.5 1.1 1.2 1.1c.7.1 1.2-.4 1.2-1.1m-.4.1c0 .4-.3.7-.7.7s-.7-.3-.7-.7.3-.7.7-.7.7.3.7.7" fill="#dfe0e2" fill-rule="nonzero"/></g><g clip-path="url(#f)"><path d="m116.9 137.5c0-.4-.3-.7-.7-.7s-.7.3-.7.7.3.7.7.7.7-.3.7-.7m-.5.1c0 .1-.1.2-.2.2s-.2-.1-.2-.2.1-.2.2-.2c.1-.1.2 0 .2.2" fill="#edeeef" fill-rule="nonzero"/></g><g clip-path="url(#g)"><path d="m116.4 137.5c0-.1-.1-.2-.2-.2s-.2.1-.2.2.1.2.2.2c.1.1.2 0 .2-.2" fill="#fff" fill-rule="nonzero"/></g><g clip-path="url(#h)"><path d="m136.6 138c0-1.5-1.2-2.7-2.7-2.7s-2.7 1.2-2.7 2.7 1.2 2.7 2.7 2.7 2.7-1.2 2.7-2.7m-.5 0c0 1.2-1 2.2-2.2 2.2s-2.2-1-2.2-2.2 1-2.2 2.2-2.2c1.2-.1 2.2.9 2.2 2.2" fill="#a7a9ac" fill-rule="nonzero"/></g><g clip-path="url(#i)"><path d="m136.1 138c0-1.2-1-2.2-2.2-2.2s-2.2 1-2.2 2.2 1 2.2 2.2 2.2 2.2-1 2.2-2.2m-.5 0c0 1-.8 1.7-1.7 1.7-1 0-1.7-.8-1.7-1.7 0-1 .8-1.7 1.7-1.7.9-.1 1.7.7 1.7 1.7" fill="#b8babc" fill-rule="nonzero"/></g><g clip-path="url(#j)"><path d="m135.6 138c0-1-.8-1.7-1.7-1.7-1 0-1.7.8-1.7 1.7s.8 1.7 1.7 1.7 1.7-.8 1.7-1.7m-.5 0c0 .7-.6 1.2-1.2 1.2-.7 0-1.2-.6-1.2-1.2 0-.7.6-1.2 1.2-1.2.7-.1 1.2.5 1.2 1.2" fill="#c9cacc" fill-rule="nonzero"/></g><g clip-path="url(#k)"><path d="m135.1 138c0-.7-.6-1.2-1.2-1.2-.7 0-1.2.6-1.2 1.2 0 .7.6 1.2 1.2 1.2.7 0 1.2-.5 1.2-1.2m-.5 0c0 .4-.3.7-.7.7s-.7-.3-.7-.7.3-.7.7-.7c.4-.1.7.2.7.7" fill="#dadbdc" fill-rule="nonzero"/></g><g clip-path="url(#l)"><path d="m134.6 138c0-.4-.3-.7-.7-.7s-.7.3-.7.7.3.7.7.7.7-.3.7-.7m-.5 0c0 .1-.1.2-.2.2s-.2-.1-.2-.2.1-.2.2-.2c.1-.1.2 0 .2.2" fill="#ebebec" fill-rule="nonzero"/></g><g clip-path="url(#m)"><path d="m134.1 138c0-.1-.1-.2-.2-.2s-.2.1-.2.2.1.2.2.2.2-.1.2-.2" fill="#fff" fill-rule="nonzero"/></g><g fill-rule="nonzero"><path d="m145.7 144.6c-1.5.2-2.8.8-3.3-1.1l-.2-.2c1 .2 1.9.2 2.4-.9.5.5 1.6 1.2 1.1 2.2" fill="#eba900"/><path d="m127 144.2c-.2.6-.9 1.1-1.5 1.2-.5-.5-1.3-1.1-.8-1.7.7.5 1.7-.1 2.3.5" fill="#231f20"/><path d="m158 145.8-1.2.5c-.1-.5.1-1.6.5-2.2.7.2.6 1.1.7 1.7" fill="#eba900"/><path d="m99.3 145.2c.2 1.3-.9 2.2-1.9 2.8h-.4c.8-1.1-.1-3.9 2.3-2.8" fill="#eba900"/><path d="m128.3 148.3-.8.4c-1-1.5 1.2-1.8 1.9-2.8.5.3.8-.8 1.1-.4.1 1.5-1.6 1.8-2.2 2.8" fill="#231f20"/><path d="m51.9 146.9c0 .4.1.8-.4 1.1-.4 0-.9.2-1.2-.2.2-.5.9-2.1 1.6-.9" fill="#231f20"/><path d="m124 147.6c.2.5-.1.9-.5 1.2-.5-.2-1.2-.5-1.5-1.1.2-1 1.7-1.1 2-.1" fill="#231f20"/><path d="m147.4 147.8v.5c-.6-.1-1.6.3-1.9-.4-.4-.8.6-.7.9-1.1.7-.1.7.7 1 1" fill="#eba900"/><path d="m87.2 148.3h-.2l-.2-1h.4z" fill="#eba900"/><path d="m158.6 148.9c.4 1.2-1.1 1.1-1.5 1.8.5 1.8-.5 4.5 1.5 5.5-1 2.2 3.3 4.3.2 5.4-1.3 1.9-3.6 3.8-4.3 6.1-.2.8-2.1 1.4-1.1 2.2 1.6-1.5 4.6-2.1 5.6-4.5 1.5.2.9 2.4 1.2 3.5-.2.8-.2 1.8-.2 2.8-.7-.3-1.6-2.6-2.8-1.5-.9.7-1.4 1.5-1.5 2.5 1.2 1 3 .3 4.3 1.3h.9c.7 1.3-1.2 3.1.5 3.9-.5 1.3.1 3.6-1.5 4-1 .8-1.5 1.8-2.4 2.8.8 1.1 2.2.2 3.2 0 .9-.5 2-1.1 2.4-2.2l-.2-1.3c.9-.6 1.5.2 1.7.9.2 1.8 1.2 3.5.5 5.3.7 1.5 3.3 0 3 2.2.7 1.3 1.5 2.5 1.6 4.1-.9.7-1.8-.5-2.4.2.2 2.7 4.2 1.6 3.9 4.6 1.6 1.1-1.2 3.4 1.5 3.7.9-.1 1.3.8 1.6 1.5.5 1.6 1.7 3.1 2.2 4.8 1.9 1.6 2.9 4.2 5 5.7.2 1.9 1.5 3.3 1.3 5.4.6.8 1.8.8 2.6.8 1.3-.1.3-2.1 1.9-1.5-.1.4.2.5.4.8.8-.3 1 .6 1.5.9-.1 1.2.8 2.1 1.3 2.8l.2-.2c-.8 1.4 2.1 2.2 0 3.1.1.3-.1.6-.3.6-.9.3-.7-.7-1.3-.9-1.5.5-.1 3.8-2.1 2.5-.6.7-.5 2.2-1.9 2.1-.2-2.9-.8-5.7-2.4-8 .1-.6-.9-1.5-.5-2.2-.3-.2-.5-.8-.9-.6-1 .4.5 1.2-.5 1.5 2.2 2.4 3 5.3 2.6 8.6l.4.4-2 .9c.3-.2.1-.6.2-.9-.1-.1-.2-.2-.4-.2l-.7.7.5.6c-.9.6-.5 2-2 1.5-.2-1.9-.8-4-.8-5.8-.2-1.4-.5-3.8.2-5.3-.3-.7-1-.5-1.6-.5-2.1 1.4-.4 3.4-.4 5.2 2 .8-.9 2.5 1.1 3.3-.9.5.5 3.6-1.9 3.2-.6.7-1.5 1.5-2.4.9.2-.5-.4-.6-.5-.9-2.2.7-1.7-2-2.6-3-.5-.8.4-2.2-.7-2.8.2-1.1 1.1-2.7 0-3.7-.5-.2-.6.4-.9.6-.2 1.4.9 2.8 0 3.8.2.7-.2 1.1-.4 1.7h-.5c0-.4-.4-.5-.5-.8-1.6-.6-2.2 2.2-3.6.2-.2-.2-.2-1.4-1.1-1.1.5-2.2-2.5-2.5-1.7-4.8l-.3-.4c-.4-2.6.7-5.2-.6-7.4-1-2.1-3.3 1.8-2.9-1.3-.7-.6-1.4-.9-1.7-1.8.3-.5 1.5-.8.8-1.5-1.2-1.5-4-.2-4.3-2.8-.3-.5-1.3-.5-.9-1.3l2.4-2.2c-.5-.8-1.5-.3-2.2-.7 0-3 3.4-.2 4.3-2.5.7-.5 2.5.5 2.2-1.1-3.5-1.8-7.4 2.9-10.6-.5-.5-.4-1.2 0-1.6-.5-.2-.5-.5-.9-.4-1.5.2-.3.6-.1.9-.2.2.5.7.4 1.1.4.7-.2.7-1.7 1.5-.9.7.8 1.8 1.2 2.8.7.5-.2.9-.8 1.5-1.2-1-1.2-2.6-1.6-3.9-1.3l-.9.9c-1.9-3-5.7 1.3-7.4-2.2-.9-1-1-2.8-2.2-3.8-.6-.2-1.5.2-1.9-.8.2-.7-.5-.8-.8-1.3 1.5-2.2-1.2-3.5-.5-5.7 1.7-.9 1.9 1.7 3.5 1.8 2.9-.8 3.8 2.1 6.4 2.2.2.1.3.4.5.3.2-.2.5-.4.4-.7-.5-.8-1.5-.7-1.7-1.5 1.2-.5 3 .2 3.9-1.2-1.5-1.5-3.8-1.5-5.6-2.5-.2-1.8 1.9-.4 2.6-.9.8-.8 1.5-1.5 1.7-2.5-1.2-1.5-4.2.3-4.8-1.8 1.6-.2 2.9-1.9 4.4-1.8 1.2-.5 1.8-2.5 3.3-2 1.3-.5 1-2 .8-2.9-.5-1.3-1.4.2-2-.4 1.9-.5 2.2-2.6 3.9-3.7 3.1-1.2 4.1-4.4 5.4-6.9-.5-.6-1.1-1.5-1.9-1.7-.6 1.1-.3 2.5-1.5 3.4v.3h-1.5c-.1-.7-.9-.5-1.3-1.1-.2-1 .5-1.6.2-2.6 1.6-.5 2.6-1.8 3.9-2.9-.6-.7-.4-1.9-.2-2.8 2.6-.2-.4-2.8 1.9-3.2z" fill="#eba900"/><path d="m54.9 147.6c.5 1.7-2.6 1.9-2.2 3.8-.3.5-.9.5-1.2.9.1-1.9 1.6-3.4 3.2-4.8h.2" fill="#231f20"/><path d="m65.7 149.8-.2.2c-.3-.8-.4-1.8-.3-2.4.9.3.2 1.5.5 2.2" fill="#231f20"/><path d="m101.7 151.3c-.1.4.2 1-.3 1.2-.5.1-.9-.1-1.2.4-.1.3.2.4.4.5.4 0 .7.1.9.4v.9c-.9.5-2.3 0-2.6-.9.2-.9-.5-2.7 1.2-2.5l.5-.6c-.3-.6-1.2-.6-1.7-.3-.3.2-.4.5-.3.9h-1.9c-.3-.7.4-.7.7-.9 1.5-.3 3.6-.5 4.3.9" fill="#eba900"/><path d="m146.5 150.6c0 .7.2 1.7-.8 1.8-.3-.5-.3-2.1.8-1.8" fill="#eba900"/><path d="m151.7 153.2c-.5.3-1.2.1-1.9.2-1-.5-1.2-1.8-.5-2.6 1.9-.5 1.5 1.4 2.4 2.4" fill="#eba900"/><path d="m105.4 152.6v.4c-.4-.1-1 .2-1.2-.4-.3-1 1-.6 1.2 0" fill="#eba900"/><path d="m149.5 155.2c.3 1.8-2.2 1.8-2.8 3.5-.2.7.2 1.2.8 1.6 1.5.1 2.6-2 4.1-.7.3 2.2-3 3.2-3.4 5.3-.2.5-.4 1.3-1.1 1.3-.5-.3-.4-1.8-1.7-1.3-.6.6-1.2 1.2-1.2 2.1h-.8c0-.4-.4-.5-.5-.8-.9 1.3-2.3 1.6-3.7 1.8-.4-.5-.9-.6-1.3-.2-1.1.6 0 2.5-1.7 2.5-.1-1.2-2.2-1.5-1.5-2.9 1.5-.3 2.9-4.2 4.9-1.7.8.2 1.4-.3 1.6-.9-.5-1.8 1.7-.2 2.1-1.5.2-1.2-.2-2.3-1.3-2.8l-1.5.9c-.4-1.1-.9-2.1-1.3-3.2.6-.2 1 .4 1.6.2.7-.3.2-1.6 1.2-1.3-.6 2.5 3 2.2 2.8 4.6.4.4.8.9 1.3 1.1.8-.8.8-1.9.5-2.9-.9-.8-1.2-1.8-1.3-3 1.8.3 1.8-4 4.2-1.7" fill="#eba900"/><path d="m106.2 155.2c.1.2-.2.5-.4.4h-.5c-.3-.7.6-.7.9-.4" fill="#eba900"/><path d="m143.7 155.2v.5c-.2-.2-1.2-.2-.5-.7.1 0 .4-.1.5.2" fill="#eba900"/><path d="m116.4 156.6c-.7.4-1.5-.6-2 .5-.2-.3-.5-.5-.4-.9.2-.5 1.1-.4.9-1.1.8.3.9 1.2 1.5 1.5" fill="#231f20"/><path d="m61.7 158.3c-.2 2.4 2.1 3.9 3.6 5.5.2.8.7 1.7 1.3 2.4 1.3.1 2.6.5 3.7 1.1.1.9-.7 1.5-1.5.9-1-.7-2.6-.1-3.7-.5-1.2-1.6-2.8-3.2-4-4.6-.5-.2-.5.4-.7.5.1.6-.2 1-.6 1.3-.9-1.8.3-4.2-.3-5.9.3-1.1.3-2.3.5-3.5.9.7.7 2.1 1.7 2.8" fill="#231f20"/><path d="m108.9 156.9-.1-.8.1.2z" fill="#fff"/><path d="m108.4 159.6c-1.1.8-.2 2.3-.8 3.3-.9-.1-1.5-.8-2.2-1.3v-.9c1 0 2.1.1 2.6-.9v-1.7c.6.2.3 1 .4 1.5" fill="#eba900"/><path d="m118.9 163.6c-.7 1.5-.5 2.8-1.6 2.7-.5-2.2-1.5-4.5-.5-6.9 3.7-.8 1.4 2.3 2.1 4.2" fill="#fff"/><path d="m67.1 161.3c1 2.6 3.3.4 4.6 1.7-1.1 1.2-2.9.8-4.5.4-1.3-.6-1.2-2.4-.9-3.5 1.1.1.4.8.8 1.4" fill="#231f20"/><path d="m123.7 161.6c2-.6 4.6 1.5 5.6-1.3h.7v2.4c-1.3.1-2.2-1.5-3.7-.7-1.3.5-3.3-1.1-4.3.7h-.5v-2.5c1.2-.4 1.1 1.2 2.2 1.4" fill="#fff"/><path d="m138.1 162.4c.2.9-.6 1.3-.9 2-.3.1-.4-.2-.5-.4.1-.8.2-1.8 1.4-1.6" fill="#eba900"/><path d="m128.9 165c-.2 1.1.3 1.8 1.1 2.4h.4c.2 1.7-1.1 2.4-2.2 3.4-.8.2-1.7.2-2.2 1.1.1.5.7 1.1.2 1.7-.8-1.2-1.5.8-2.2-.4 1.2-1.6-1.2-2.6-2-3.3-.8.2-.8-1.3-1.3-1.8v-.6c.9.2 1 1.6 2 1.7 1.3-1.3-1.2-4.9 2.1-4.6.2.6.8 1 1.5.9.5-1.2 2.2-2.3 2.6-.5" fill="#a32035"/><path d="m62.6 167.3c-.1.5.2 1.1-.3 1.3-.8-.2-1.5-.9-1.7-1.6l.4-.9c.7 0 1.1.9 1.6 1.2" fill="#231f20"/><path d="m126.6 168.3c-.2.2-.3.5-.5.4-.8-.4-.2-1.1.2-1.5.4.2.3.7.3 1.1" fill="#231f20"/><path d="m122 171.3v.9c-.9-.2-1-.9-1.1-1.7.5-.2.9.4 1.1.8" fill="#a32035"/><path d="m47.2 170.9c.2.5.4 1.5-.2 1.8-.4.2-.5-.2-.8-.4.2-.6.3-1.4 1-1.4" fill="#231f20"/><path d="m51.9 171.3c.1 1 .1 2.5-.7 3.3-1-.5-.5-1.8-.4-2.6.3-.4.7-.6 1.1-.7" fill="#231f20"/><path d="m111.6 173.3c.2.8-.3 1.4-.4 2.1-.6-.3-1.1-1.8-2.2-1.3-.9 1.3-1.9 2.6-2 4.2-1.5.1-1.3-1.8-2.1-2.6.5-1.1-1.7-1.6-.5-2.5l2.4.5c1.2-.7 1.6-3.5 3.3-2 .2.6.9 1 1.5 1.6" fill="#eba900"/><path d="m131.6 171.8c.6 1.6-.5 2.9-.9 4.2-1.9.2-2.4 2.8-4.6 2.4-.9-.3-2.1-.1-3.2-.2.3.2.5-.2.8-.4l-.2-1.1c1.7.2 3.5.7 4.9-.5-.1-.9-.7-1.8-.2-2.8 1.5.5 2-1.4 3.4-1.6" fill="#fff"/><path d="m155.3 173.7c-.9 1.3-2.6.5-3.6 1.5-1.3.2-3.3.6-4.3-.4 1.8-.8 3.5-1.7 5.3-2.4 1.1 0 1.9.4 2.6 1.3" fill="#231f20"/><path d="m122 174.2c.9.9-1 1.6.2 2.4-.2.6.3 1 .4 1.5-1.2.5-1.6-1.2-2.8-.9-.7-1.5-1.7-3-1.3-4.6 1.2.2 2.2 1.2 3.5 1.6" fill="#fff"/><path d="m88 173.8c-.3.7-1.2.3-1.7.4l-.5-.5c.7-.5 1.5-.7 2.2.1" fill="#231f20"/><path d="m103 173.5c.2.5-.4.6-.7.5s-.6.2-.8-.2c-.1-.6 1-.6 1.5-.3" fill="#eba900"/><g fill="#231f20"><path d="m154.6 176.6c.2 1.6-1.5.8-2.2 1.5-.6-.1-1.2.2-1.7-.2 1.7.3 2.2-3 3.9-1.3"/><path d="m148.4 179.2v-.5h.5z"/><path d="m155.8 180.1c-.8.7-2 .9-3 1.5-.4-.7.5-1.7 1.3-1.8.6-.1 1.2.2 1.7.3"/><path d="m157.8 180.3c-.1.2-.3.2-.5.2-.5-.2 0-.5.2-.8.1.3.4.3.3.6"/><path d="m105.2 185.7c.1.5-.2 1-.5 1.3-1.4-1.3-2.9 1-4.1-.5.7-1.6 2.7-.8 3.9-1.5z"/><path d="m157.3 185.3c-.3.6-.9.6-1.5.5l-.2-.2c.4-.2 1.1-.7 1.7-.3"/><path d="m92.1 185.8c.1.4-.2.5-.4.8-.7-.1-1.5.2-1.9-.5.2-.9 2-1.2 2.3-.3"/><path d="m147.8 189.2c.8-.2 1.5.1 2 .5-.2 1.8-1.8.5-2.8 1.1-1.5-.4-4.2 1.1-4.3-1.6-.5-2.5-3.9.5-3.6-2.6.9-.4 2.1-.8 3.2-.4 1.6 1.8 3.5 2.4 5.5 3"/><path d="m95.4 186.6c-.2.6-1 .4-1.3.2v-.5c.4 0 1.1-.3 1.3.3"/><path d="m155 188.8c-.6 1.5-2.5.1-3.9.5l-.4-.4c1.2-.8 3.4-.6 4.3-.1"/><path d="m99.5 192.1c-.3.3-.8.8-1.2.4l-.4-.4c.4-.8 1.1-.4 1.6 0"/><path d="m146 193c-.7.8-1.9.9-2.8.5-.2-.2-.6-.2-.8-.5-.2-.5.2-.8.5-.9 1.2-.1 2.3 0 3.1.9"/><path d="m103 194.9c-.9 1.8-3 2.2-5 2.2h-.5c.9-2 3.4-2.6 5.5-2.2"/><path d="m110.4 203.1c-.1.5-.6.7-1.1.7.2-.4.5-1.8 1.1-.7"/><path d="m157.8 203.2c-.2.3-.2.9-.7.9-.3-.1-.8.2-.9-.2-.3-.6.3-1 .7-1.2.4.1.7.2.9.5"/><path d="m159.5 210.2c0 .8-.7 1.2-1.3 1.3h-.5c-.5-.6.3-1.2.7-1.7.4.1.9 0 1.1.4"/><path d="m182 219.7-.2.2c-.2-.4-.6-.8-.4-1.1.4.2.4.6.6.9"/><path d="m116.2 224.6c-.1.2 0 .5-.2.6-.3.1-.5-.2-.7-.4 0-.4.7-.8.9-.2"/></g><path d="m131.9 160.4c0 .4-.2.7-.3 1.1 0 .1-.1.2-.1.3v.3c0 .1-.1.2-.1.3v1.2c0 .5-.1.7 0 1.2 0 .1.1.2.1.3.1.3.2.5.3.7s.1.3.2.6c.1.2.1.5.3.6h.4c.3 0 .5 0 .7-.2.1-.1 0-.3.1-.4 0-.1.2-.2.2-.3s.1-.2.1-.3.2-.2.2-.3v-.4c0-.2.1-.4.2-.7v-.4c0-.1.2-.2.2-.3v-.3c.1-.4.2-.6.4-.9.1-.3.2-.5.3-.8v-1.2c0-.1-.1-.2-.1-.3s0-.2-.1-.3c-.1-.2-.3-.3-.5-.6 0-.1-.1-.2-.2-.3s0-.2-.1-.3c-.1 0-.2-.1-.3-.1-.4-.1-.6-.2-1-.2h-.3c-.1.1-.1.3-.2.4 0 .1-.2.1-.3.2-.1.2-.1 1.3-.1 1.4" fill="#fff"/></g><path d="m131.9 160.4c0 .4-.2.7-.3 1.1 0 .1-.1.2-.1.3v.3c0 .1-.1.2-.1.3v1.2c0 .5-.1.7 0 1.2 0 .1.1.2.1.3.1.3.2.5.3.7s.1.3.2.6c.1.2.1.5.3.6h.4c.3 0 .5 0 .7-.2.1-.1 0-.3.1-.4 0-.1.2-.2.2-.3s.1-.2.1-.3.2-.2.2-.3v-.4c0-.2.1-.4.2-.7v-.4c0-.1.2-.2.2-.3v-.3c.1-.4.2-.6.4-.9.1-.3.2-.5.3-.8v-1.2c0-.1-.1-.2-.1-.3s0-.2-.1-.3c-.1-.2-.3-.3-.5-.6 0-.1-.1-.2-.2-.3s0-.2-.1-.3c-.1 0-.2-.1-.3-.1-.4-.1-.6-.2-1-.2h-.3c-.1.1-.1.3-.2.4 0 .1-.2.1-.3.2-.1.2-.1 1.3-.1 1.4z" fill="none" stroke="#231f20" stroke-width=".2"/><path d="m115.5 138.1c0 .2 0 .4.1.6 0 .2.2.3.3.5v.4c0 .2.1.2.2.4.1-.3.2-.4.3-.7.1-.2.2-.3.2-.4s.2-.2.2-.4v-.7c0-.4.1-.7-.1-1 0-.1-.2-.2-.3-.3h-.3c-.1 0-.2 0-.3.1-.1 0 0 .2-.1.3 0 .1-.2.2-.2.3v.4c0 .1-.1.2-.1.3v.2" fill="#231f20" fill-rule="nonzero"/><path d="m133.2 138.2c.1.2.2.4.3.6s.3.2.4.4c.1.1.1.2.1.3l.3.3v-.8c0-.2.1-.3.1-.5 0-.1.1-.3.1-.4-.1-.3-.2-.4-.2-.7-.1-.4-.1-.7-.4-.9-.1-.1-.2-.2-.3-.2s-.1.1-.3.1c-.1 0-.2.1-.2.2v.3c0 .1-.1.2-.1.3s.1.2.1.3v.3c0 .1 0 .2.1.4" fill="#231f20" fill-rule="nonzero"/><path d="m0 0h218.7v250h-218.7z" fill="none"/></g></svg>