<svg clip-rule="evenodd" fill-rule="evenodd" stroke-linecap="round" stroke-linejoin="round" viewBox="0 0 560 400" xmlns="http://www.w3.org/2000/svg"><path d="m280 314.67c100-57.085 100-57.085 100-200.297-42.928 0-57.196 0-100-28.542m0 228.338c-100-57.085-100-57.085-100-200.296 42.928 0 57.196 0 100-28.543" fill="#800000" fill-rule="nonzero" stroke="#fff" stroke-width="1.8"/><circle cx="301.101" cy="192.243" fill="none" r="28.491" stroke="#fff" stroke-linecap="butt" stroke-linejoin="miter" stroke-width="14.25"/><path d="m280.286 199.933c0 19.598-8.908 28.506-28.563 28.506s-28.563-8.926-28.563-28.506v-42.758h14.264v42.758c0 12.489 1.781 14.271 14.263 14.271 12.479 0 14.264-1.782 14.264-14.271v-42.758h14.263z" fill="#fff" fill-rule="nonzero"/></svg>