<svg clip-rule="evenodd" fill-rule="evenodd" stroke-linejoin="round" stroke-miterlimit="2" viewBox="0 0 560 400" xmlns="http://www.w3.org/2000/svg"><g fill-rule="nonzero" transform="matrix(2.683 0 0 2.683 36.23835 151.929225)"><path d="m36.047 1.147c-8.314 0-10.641 5.28-10.641 12.465 0 8.276 3.73 14.18 11.496 14.18 2.875 0 5.05-.351 6.953-1.051v-1.67c-1.008.389-2.407.973-5.007.973-8.508 0-9.598-7.729-9.598-12.74 0-4.002.508-10.645 6.758-10.645 4.821 0 6.37 3.495 6.879 5.672h.968l-.347-6.1c-1.713-.464-4.352-1.084-7.461-1.084zm23.346 0c-4.889 0-8.737 1.902-8.737 6.562 0 2.489.817 3.883 2.524 5.203 3.612 2.759 10.062 4.042 10.062 8.234 0 2.683-2.215 4.895-5.633 4.895-4.157 0-5.982-2.407-6.291-4.467h-.974l.273 5.479c.973.156 4.039.738 6.68.738 5.317 0 9.594-2.332 9.594-7.264 0-3.691-2.057-5.281-5.125-7.068-3.379-1.98-8.004-3.108-8.004-6.564 0-2.565 2.292-4.235 4.896-4.235 4.154 0 5.71 2.411 6.061 4.467h.97l-.269-5.322c-1.751-.348-3.42-.658-6.027-.658zm-58.539.388v.774c2.14 0 3.381.272 3.381 3.187v12.936c0 5.476 1.246 9.359 9.284 9.359 8.08 0 8.857-4.039 8.857-9.359v-12.936c0-2.915 1.242-3.187 3.379-3.187v-.774h-8.971v.774c2.096 0 3.375.272 3.375 3.187v12.936c0 4.621-.889 7.841-6.488 7.841-5.046 0-5.979-3.88-5.979-7.841v-12.936c0-2.915 1.283-3.187 3.379-3.187v-.774h-10.216zm104.11 0v.776c2.1 0 3.38.27 3.38 3.185v17.943c0 2.912-1.28 3.184-3.38 3.184v.781h9.09c6.1 0 13.29-1.361 13.29-12.896 0-11.575-6.84-12.973-13.29-12.973zm9.09 1.514c7.38 0 9.44 4.31 9.44 11.459 0 7.806-2.76 11.379-9.44 11.379-1.94 0-2.25-.427-2.25-3.262v-16.312c0-3.031.31-3.264 2.25-3.264zm18.57.996c-1.1 0-1.97.862-1.97 1.969 0 1.106.87 1.968 1.97 1.968 1.11 0 1.97-.862 1.97-1.968 0-1.107-.86-1.969-1.97-1.969zm32.65 4.283c-2.11 0-2.93 2.387-3.48 3.697-1.11-.586-1.98-.861-3.57-.861-3.28 0-6.52.966-6.52 5.422 0 2.937 1.2 3.974 2 4.629-.38.417-1.49 1.729-1.49 3.008 0 1.453.9 2.108 1.49 2.451-1.11.555-2.69 1.486-2.69 3.629 0 3.108 3.52 4.388 6.9 4.388 4.6 0 8.47-2.209 8.47-6.148 0-3.834-3.84-3.904-5.49-3.904h-4.08c-1.11 0-2.83 0-2.83-1.385 0-.759.41-1.278.62-1.553.75.344 1.76.52 3.14.52 4.15 0 6.32-1.972 6.32-5.461 0-2.42-1.14-3.7-1.55-4.149.17-.551.48-1.554 1.24-1.554.45 0 .66.486 1.56.486 1.03 0 1.62-.622 1.62-1.559 0-1.035-.69-1.656-1.66-1.656zm-90.52 2.836c-2.386 0-5.734 1.139-5.734 3.385 0 .932.722 1.556 1.656 1.556.59 0 1.625-.382 1.625-1.798 0-1.107.277-2.004 2.42-2.004 2.9 0 2.937 2.554 2.937 4.974v1.311c-2.625.245-9.123.244-9.123 5.254 0 2.245 1.76 3.904 4.143 3.904 2.354 0 3.841-.964 4.906-2.519h.074c0 1.486.588 2.519 2.594 2.519 1.24 0 2.104-.207 2.518-.31v-.723c-.309.069-.623.137-.932.137-1.075 0-1.486-.415-1.486-1.623v-8.573c0-3.212-.864-5.49-5.598-5.49zm14.098 0-5.321.828v.588c.999.069 2.625.172 2.625 2.246v9.434c0 2.246-1.177 2.554-2.625 2.554v.59h7.946v-.59c-1.455 0-2.625-.308-2.625-2.554v-4.254c0-3.284 2.488-7.186 4.523-7.186 2.285 0 2.317 1.348 2.317 4.321v7.119c0 2.246-1.177 2.554-2.626 2.554v.59h7.948v-.59c-1.451 0-2.625-.308-2.625-2.554v-7.879c0-3.215-.345-5.217-4.01-5.217-3.423 0-4.975 3.28-5.457 4.559h-.07zm45.222 0-5.32.828v.588c1.04.069 2.63.172 2.63 2.246v9.434c0 2.246-1.18 2.554-2.63 2.554v.59h7.95v-.59c-1.45 0-2.63-.308-2.63-2.554zm9.68 0c-4.98 0-7.02 2.794-7.02 7.84 0 5.804 3.01 8.742 8.36 8.742 2.11 0 3.29-.31 4.12-.623v-1.103c-.7.345-1.63.449-2.42.449-5.78 0-7.19-5.908-7.19-8.811h10.06v-.762c0-4.007-2.81-5.732-5.91-5.732zm29.88 0c-4.42 0-7.22 3.106-7.22 8.291 0 5.183 2.8 8.291 7.22 8.291 4.43 0 7.22-3.108 7.22-8.291 0-5.185-2.79-8.291-7.22-8.291zm-30.33 1.139c2.66 0 3.28 2.383 3.28 4.215h-6.98c0-1.279 1.07-4.215 3.7-4.215zm14.51 0c2.49 0 3.39 2.073 3.39 4.662 0 1.835-.38 4.113-3.29 4.113-2.49 0-3.35-2.14-3.35-4.766 0-2.004.52-4.009 3.25-4.009zm15.82 0c3.46 0 4.15 4.283 4.15 7.152s-.69 7.15-4.15 7.15c-3.45 0-4.14-4.281-4.14-7.15s.69-7.152 4.14-7.152zm-95.976 7.427v2.04c0 2.348-1.451 4.527-3.697 4.527-1.175 0-2.352-1.209-2.352-3.004 0-3.215 4.424-3.526 6.049-3.563zm77.256 7.362h6.04c1.74 0 3.18.587 3.18 2.349 0 2.488-2.9 4.112-6.04 4.112-3.01 0-4.84-1.762-4.84-3.801 0-1.555.97-2.143 1.66-2.66z" fill="#182b49"/><path d="m.855 33.359v.877h149.22c-.32-.268-.6-.563-.84-.877zm166.07 0c-.31.317-.65.607-1.03.877h14.68v-.877z" fill="#c69214"/></g></svg>