<svg clip-rule="evenodd" fill-rule="evenodd" stroke-linejoin="round" stroke-miterlimit="2" viewBox="0 0 560 400" xmlns="http://www.w3.org/2000/svg"><g fill="#00aeef"><path d="m294.859 148.074c-10.451 25.866-39.842 25.473-39.842 25.473h-70.672l3.79-8.49h65.186c-.002 0 28.476.52 41.538-16.983z"/><path d="m289.047 161.138c-10.451 25.865-39.843 25.472-39.843 25.472h-70.674l3.79-8.489h65.186c0-.002 28.477.52 41.541-16.983z"/><path d="m277.421 187.263c-10.451 25.868-39.843 25.476-39.843 25.476h-70.671l3.79-8.493h65.182c0-.002 28.479.522 41.542-16.983z"/><path d="m271.606 200.327c-10.449 25.866-39.841 25.477-39.841 25.477h-70.671l3.79-8.493h65.184c-.001 0 28.476.523 41.538-16.984z"/><path d="m293.422 177.726c10.452-25.865 39.845-25.472 39.845-25.472h72.761l-3.788 8.49h-67.275c-.002 0-28.479-.521-41.543 16.982z"/><path d="m299.236 164.665c10.451-25.865 39.843-25.473 39.843-25.473h72.761l-3.785 8.49h-67.276c-.002 0-28.48-.524-41.543 16.983z"/><path d="m310.862 138.538c10.451-25.865 39.844-25.474 39.844-25.474h72.762l-3.789 8.491h-67.273c-.002 0-28.483-.522-41.544 16.983z"/><path d="m316.675 125.474c10.451-25.865 39.842-25.474 39.842-25.474h72.761l-3.785 8.493h-67.277s-28.477-.523-41.541 16.981z"/></g><path d="m283.235 174.2c-10.451 25.865-39.846 25.472-39.846 25.472h-70.668l3.788-8.49h65.185c-.002 0 28.476.524 41.541-16.982z" fill="#ffc758"/><path d="m305.05 151.6c10.451-25.865 39.843-25.474 39.843-25.474h72.761l-3.788 8.493h-67.276s-28.477-.524-41.54 16.981z" fill="#ffc758"/><path d="m163.842 278.289h-5.227l20.7-46.479h-20.898l-27.695 62.182h47.026l27.694-62.182h-20.901z"/><path d="m325.232 184.782h15.676l7.511-17.243h-21.489c-48.202 0-45.59 64.271-95.232 64.271h-21.03l-27.694 62.182h20.771c54.081 0 42.323-62.182 92.226-62.182l8.359-19.062c-44.935 0-51.207 65.541-89.874 65.541h-4.628l3.02-6.789h9.185c33.444 0 42.326-64.774 88.57-64.774h20.51l7.184-15.936h-21.422c-22.232 0-34.717 12.829-45.113 26.933 11.567-16.311 24.303-32.941 53.47-32.941zm-96.145 69.298h-8.479l2.351-5.287h5.084c19.231 0 29.37-11.199 38.841-24.228-10.526 15.081-20.082 29.515-37.797 29.515z"/><path d="m353.057 167.539-7.663 17.231h26.104l-2.667 6.018h-26.063l-17.407 38.932h45.981l27.694-62.183h-45.979zm-.294 45.24 2.71-6.082h6.271l-2.711 6.082z"/><path d="m321.182 239.391-16.705 37.648h30.287l-3.229 7.3h-30.306l-6.956 15.661h45.982l26.909-60.609zm17.318 57.483h-39.688l4.171-9.409h30.287l6.05-13.627h-30.287l13.888-31.299h39.712z"/><path d="m400.716 276.2 16.349-36.809h-45.982l-6.908 15.703h30.287l-2.968 7.037h-30.307l-17.013 37.869h45.981l6.966-15.693h-30.078l3.648-8.107zm-38.206 11.252h29.973l-4.084 9.422h-39.688l14.232-31.618h30.287l5.788-13.365h-30.287l4.09-9.353h39.712l-13.561 30.532h-30.062z"/><path d="m329.381 255.046h15.156l-3.133 7.056h-15.151l3.128-7.056-1.757-3.117-5.906 13.325h21.422l5.932-13.325h-21.448z"/></svg>