<svg clip-rule="evenodd" fill-rule="evenodd" stroke-linejoin="round" stroke-miterlimit="2" viewBox="0 0 560 400" xmlns="http://www.w3.org/2000/svg"><g fill="#0066b3"><path d="m292.438 148.209c-10.478 25.937-39.954 25.544-39.954 25.544h-70.872l3.801-8.514h65.369s28.557.523 41.656-17.03z"/><path d="m286.608 161.308c-10.48 25.937-39.955 25.543-39.955 25.543h-70.869l3.799-8.514h65.368c0 .001 28.557.522 41.657-17.029z"/><path d="m308.486 138.644c10.478-25.937 39.953-25.544 39.953-25.544h72.966l-3.799 8.514h-67.462c0 .002-28.56-.523-41.658 17.03z"/><path d="m314.314 125.546c10.482-25.939 39.956-25.546 39.956-25.546h72.964l-3.796 8.516h-67.465c-.002 0-28.557-.524-41.659 17.03z"/></g><path d="m280.781 174.408c-10.48 25.937-39.956 25.544-39.956 25.544h-70.868l3.797-8.514h65.367s28.559.522 41.66-17.03z" fill="#fff"/><path d="m302.658 151.745c10.479-25.937 39.952-25.546 39.952-25.546h72.967l-3.799 8.516h-67.462s-28.561-.525-41.658 17.03z" fill="#fff"/><path d="m274.951 187.507c-10.481 25.939-39.954 25.551-39.954 25.551h-70.87l3.799-8.521h65.365s28.56.525 41.66-17.03z" fill="#e23e21"/><path d="m269.121 200.608c-10.482 25.939-39.956 25.546-39.956 25.546h-70.868l3.799-8.514h65.366s28.558.524 41.659-17.032z" fill="#e23e21"/><path d="m290.997 177.945c10.481-25.939 39.956-25.544 39.956-25.544h72.965l-3.797 8.514h-67.464c-.002-.002-28.56-.523-41.66 17.03z" fill="#e23e21"/><path d="m296.829 164.844c10.48-25.937 39.951-25.542 39.951-25.542h72.965l-3.796 8.514h-67.464c-.001 0-28.558-.527-41.656 17.028z" fill="#e23e21"/><path d="m161.053 278.785h-5.241l20.758-46.605h-20.956l-27.774 62.355h47.156l27.774-62.355h-20.96z"/><path d="m322.896 185.019h15.718l7.534-17.29h-21.55c-48.336 0-45.717 64.452-95.497 64.452h-21.091l-27.771 62.356h20.829c54.233 0 42.443-62.356 92.487-62.356l8.382-19.116c-45.062 0-51.351 65.722-90.126 65.722h-4.643l3.029-6.806h9.21c33.537 0 42.444-64.956 88.818-64.956h20.565l7.204-15.981h-21.48c-22.294 0-34.814 12.864-45.239 27.004 11.601-16.353 24.373-33.029 53.621-33.029zm-96.417 69.487h-8.504l2.359-5.3h5.097c19.287 0 29.451-11.229 38.95-24.292-10.554 15.12-20.134 29.592-37.902 29.592z"/><path d="m350.799 167.727-7.685 17.281h26.178l-2.674 6.035h-26.136l-17.456 39.04h46.11l27.769-62.358h-46.106zm-.296 45.367 2.72-6.097h6.287l-2.72 6.097z"/><path d="m215.321 181.031 4.344 10.654 11.475.84-8.789 7.427 2.746 11.172-9.776-6.064-9.778 6.064 2.746-11.172-8.79-7.427 11.475-.84z" fill="#fd0"/><path d="m215.321 184.357 3.458 8.684 9.326.604-7.191 5.974 2.308 9.056-7.901-4.994-7.901 4.994 2.308-9.056-7.191-5.974 9.326-.604z" fill="#e23e21"/><path d="m360.947 115.42 4.345 10.653 11.475.839-8.789 7.427 2.748 11.174-9.779-6.066-9.778 6.066 2.746-11.174-8.791-7.427 11.477-.839z" fill="#fd0"/><path d="m360.947 118.746 3.455 8.684 9.331.603-7.193 5.974 2.31 9.056-7.903-4.994-7.901 4.994 2.31-9.056-7.195-5.974 9.33-.603z" fill="#e23e21"/><path d="m319.527 239.078-1.654 3.223 66.679-.134-2.935 6.156-46.473 51.677h3.534l45.739-50.745 4.566-10.146z"/><path d="m312.739 254.486 1.195-2.708h52.378l-43.437 48.156h-3.201l40.698-45.448z"/><path d="m405.175 300 16.751-37.755h-30.371l3.238-7.321h30.392l6.975-15.706h-46.112l-26.985 60.782zm-17.366-57.646h39.799l-4.184 9.436h-30.373l-6.066 13.665h30.372l-13.927 31.388h-39.823z"/><path d="m396.952 284.3h-15.198l3.141-7.075h15.194l-3.137 7.075 1.764 3.125 5.922-13.362h-21.485l-5.946 13.362h21.509z"/></svg>