<svg clip-rule="evenodd" fill-rule="evenodd" stroke-linejoin="round" stroke-miterlimit="1.41421" viewBox="0 0 560 400" xmlns="http://www.w3.org/2000/svg"><path d="m120.9 133.7v-26.1h9.2v27c0 1.8.5 3.1 2.5 3.1 1.8 0 2.5-1.1 2.5-3.1v-27h9.2v26.1c0 6.1-3.1 10.8-11.7 10.8-7.2.1-11.7-3.4-11.7-10.8zm63.9 10.1v-26.9h-8.8v26.9zm0-29.6v-6.5h-8.8v6.5zm13.3 29.6h4.9v-5.5h-1.3c-1.4 0-2.4-.8-2.4-2.3v-13.5h3.7v-5.5h-3.7v-7.7h-8.7v7.7h-2.5v5.5h2.5v14.5c.1 4.2 2.8 6.8 7.5 6.8zm17.8.8c-6.2 0-10-3.1-10-9.2v-10.1c0-6.1 3.8-9.2 10-9.2 6.8 0 9.9 3.7 9.9 9.2v6.9h-11.8v4.8c0 1 .8 1.9 1.9 1.9 1 0 1.9-.8 1.9-1.9v-2.5h8v1c-.1 5.4-3.2 9.1-9.9 9.1zm-1.9-17.9h3.8v-3.1c0-1.1-.9-1.9-1.9-1.9-1.1 0-1.9.8-1.9 1.9zm37.3 17h-7.4l-.2-2.1h-.2c-.5.7-2.2 2.9-6.1 2.9-4.4 0-6.8-3.1-6.8-7.6v-13.5c0-4.6 2.7-7.5 6.7-7.5 3.2 0 4.8 1.4 5.4 1.9h.1v-10.2h8.5zm-8.4-20c0-1.4-1-2-1.9-2-1 0-1.9.6-1.9 2.1v12.8c0 1.4.9 2.1 1.9 2.1.9 0 1.9-.6 1.9-2zm-72.3-.6c0-3.9-2.3-7.1-6.8-7.1-3.5 0-5.6 2.2-6.4 3.3h-.2l-.2-2.4h-7.7v26.9h8.7v-18.9c0-1.4 1-2 1.9-2.1 1 0 1.9.7 1.9 2.1v18.8h8.7c.1 0 .1-17.7.1-20.6zm-27.8 28.4h-21.9v7.2h6.1v28.8h9.6v-28.8h6.3v-7.2zm127.2 36.1h8.9v-36h-8.9zm65.8-29.6h8.8v-6.5h-8.8zm0 29.6h8.8v-26.9h-8.8zm-158.9-27.7c-6.2 0-10.5 3.1-10.5 9.2v10.1c0 6.1 4.3 9.2 10.5 9.2 6.8 0 10.5-3.7 10.5-9.2v-2h-8.7v3.5c0 1.1-.8 1.8-1.8 1.8-1.1 0-1.8-.8-1.8-1.8v-13.1c0-1 .7-1.8 1.8-1.8 1 0 1.8.7 1.8 1.8v3.2h8.7v-1.7c0-5.5-3.7-9.2-10.5-9.2zm-15.2 9.2v6.9h-11.8v4.8c0 1 .8 1.9 1.9 1.9 1 0 1.9-.8 1.9-1.9v-2.5h8v1c-.1 5.4-3.2 9.1-9.9 9.1-6.2 0-10-3.1-10-9.2v-10.1c0-6.1 3.8-9.2 10-9.2 6.8 0 9.9 3.7 9.9 9.2zm-8.1-1.6c0-1.1-.9-1.9-1.9-1.9-1.1 0-1.9.9-1.9 1.9v3.1h3.8zm216 1.6v6.9h-11.8v4.8c0 1 .8 1.9 1.9 1.9 1 0 1.9-.8 1.9-1.9v-2.5h8v1c-.1 5.4-3.2 9.1-9.9 9.1-6.2 0-10-3.1-10-9.2v-10.1c0-6.1 3.8-9.2 10-9.2 6.8 0 9.9 3.7 9.9 9.2zm-8.1-1.6c0-1.1-.9-1.9-1.9-1.9-1.1 0-1.9.8-1.9 1.9v3.1h3.8zm26.2 4.2c-3-1.5-6-2.6-6-4.5 0-.9.6-1.8 2.2-1.8s2.2 1.2 2.2 2.3v1.6h7.9v-.7c0-6.3-4.5-8.7-10.1-8.7-5.2 0-10 2.4-10 8.1 0 4.5 2.4 6.6 7.1 8.5 3.5 1.4 5.2 2.6 5.2 4.3 0 1.2-.9 2.2-2.3 2.2-1.8 0-2.5-1.1-2.5-2.4v-2.2h-8v1c0 5.7 3.7 9.1 10.5 9.1 6.2 0 10.9-2.8 10.9-8.6-.1-4.6-3.3-6.4-7.1-8.2zm-64.9-11h7.4v26.8c0 5.5-2.7 9.2-10.3 9.2-6.6 0-10.2-2.9-10.3-8h8.5v.5c0 1 .7 1.8 1.8 1.8 1 0 1.8-.7 1.8-1.8v-4.4h-.1c-.9.8-2.7 1.8-5.4 1.8-4.3 0-6.7-2.8-6.7-7.3v-11.9c0-4.3 2.4-7.5 6.8-7.5 4 0 5.6 2.3 6 2.9h.2zm-1 7c0-1.4-1.1-2-1.9-2-1 0-1.8.6-1.8 2.1v11.6c0 1.4.9 2.1 1.9 2.1.9 0 1.9-.6 1.9-2v-11.8zm-56.6 1.5v10.1c0 5.5-3.6 9.2-10.4 9.2-6.2 0-10.4-3.1-10.4-9.2v-10.1c0-6.1 4.2-9.2 10.4-9.2 6.8 0 10.4 3.7 10.4 9.2zm-8.4-1.5c0-1.1-1-1.9-2-1.9-1.1 0-2 .8-2 1.9v13.1c0 1 .9 1.9 2 1.9 1 0 2-.8 2-1.9zm47.8 1.4v10.1c0 5.5-3.6 9.2-10.4 9.2-6.2 0-10.4-3.1-10.4-9.2v-10.1c0-6.1 4.2-9.2 10.4-9.2 6.9 0 10.4 3.7 10.4 9.2zm-8.4-1.5c0-1.1-1-1.9-2-1.9-1.1 0-2 .8-2 1.9v13.1c0 1 .9 1.9 2 1.9 1 0 2-.8 2-1.9zm-90-7.8c-2.7 0-4.7 1.4-5.6 2.4h-.1v-10.8h-8.7v36h8.7v-18.9c0-1.4 1-2.1 1.9-2.1 1 0 1.9.7 1.9 2.1v18.8h8.7v-20.6c-.1-3.6-2.1-6.9-6.8-6.9zm26.7 0c-3.5 0-5.6 2.2-6.4 3.3h-.2l-.2-2.4h-7.7v26.9h8.7v-18.9c0-1.4 1-2.1 1.9-2.1 1 0 1.9.7 1.9 2.1v18.8h8.7v-20.6c0-3.9-2.3-7.1-6.7-7.1zm-166.4-14.9 26.3-6.3c-.1-.8-.4-2.1-.7-2.9l-26.2 6.7c.3.8.5 1.6.6 2.5zm-16.7 19.6c-9.4 0-17-7.6-17-17 0-8.6 6.4-15.7 14.6-16.8l-6.9-26.3c-1.5.2-3.3.7-4.6 1.2l6.8 24.6-.4.1-12.6-22.2c-1.5.7-3.2 1.7-4.5 2.6l12.5 20.7-.3.2-17.2-17.1c-1.3 1-2.8 2.5-3.7 3.8l16.6 15.8-.2.3-19.9-11.5c-1.1 1.4-2.2 3.4-2.9 5l19 10.5-.1.4-21-5.6c-.7 1.8-1.3 4-1.6 5.9l19.9 4.9-.1.4h-20.6c-.1 1-.2 2.2-.2 3.2s.1 2.2.2 3.1l19.4-.2v.4l-18.8 4.7c.3 2.2.9 4.4 1.7 6.5l17.5-4.8.1.4-15.8 8.8c.9 2.1 2.1 4.1 3.5 6.1l14.4-8.3.2.3-11.8 11.4c1.5 1.9 3.2 3.6 5.1 5.1l10.7-10.6.3.2-7.6 13c2 1.5 4.2 2.7 6.5 3.8l6.9-11.8.4.1-3.6 13.2c2.3.9 4.9 1.6 7.6 2l3.3-12.2.4.1.1 12.7c1.2.1 2.5.2 3.7.2 1.5 0 3-.1 4.4-.3v-11.7l.4-.1 3.2 11.3c3-.5 5.9-1.3 8.3-2.4l-2.9-10.4.4-.1 5.7 9.1c2.8-1.3 5.5-3 7.8-4.9l-5.2-8.3.3-.2 7.4 6.5c2.5-2.1 4.7-4.8 6.4-7.3l-6.8-6 .2-.3 8.2 3.7c1.8-2.8 3.3-6.1 4.2-9.4l-7.5-3.5.1-.4 8.2 1c.9-3.3 1.3-6.8 1.2-10.4h-27c-.1 9.2-7.7 16.8-17 16.8zm15.5-23.7 23.8-12.9c-.4-.8-1-2.1-1.5-2.8l-23.4 13.5c.4.6.8 1.4 1.1 2.2zm-15.5-10.2c.7 0 1.4 0 2.1.1l.2-27.1c-.7-.1-1.7-.1-2.4-.1s-1.6 0-2.2.1l.2 27.2c.7-.2 1.4-.2 2.1-.2zm13.6-24.9c-1.2-.5-2.9-.9-4.2-1.2l-6.9 26.2c1.3.2 2.6.5 3.8 1zm-3.5 28.3 14-23.2c-1-.7-2.5-1.6-3.6-2.2l-13.6 23.4c1.2.6 2.3 1.2 3.2 2zm3.2 3.1 19.7-18.6c-.7-.9-1.8-2.1-2.7-2.8l-19.3 18.9c.8.8 1.6 1.6 2.3 2.5z" fill="#21368c" fill-rule="nonzero" transform="matrix(.924499 0 0 .924499 95.0077 61.2327)"/></svg>