<svg clip-rule="evenodd" fill-rule="evenodd" stroke-linejoin="round" stroke-miterlimit="2" viewBox="0 0 560 400" xmlns="http://www.w3.org/2000/svg"><g transform="matrix(3.67816 0 0 3.67816 109 100)"><path d="m0 0h92.981v34.261h-92.981z" fill="#000207"/><path d="m53.831 29.364h8.156v-8.155h-8.156zm-9.787-24.466-.001 16.311c0 4.474 3.682 8.155 8.155 8.155h.001l.001-24.466zm-29.361 24.466c4.474 0 8.155-3.681 8.155-8.154l-.001-16.312h-8.155zm-9.788-24.466-.001 16.311c0 4.474 3.682 8.155 8.155 8.155h.002v-24.466zm37.518 8.157c0-.001 0-.001 0-.001 0-4.474-3.682-8.156-8.156-8.156v24.466h.002c4.473 0 8.154-3.681 8.154-8.155 0-4.147-3.164-7.667-7.287-8.108v-.046zm-17.944 0c.001 4.146 3.164 7.665 7.287 8.108v.046h-7.287c0 4.474 3.681 8.155 8.155 8.155h.002v-24.466c-.001 0-.001 0-.001 0-4.475 0-8.157 3.682-8.157 8.156 0 0 0 .001.001.001" fill="#f1f1f3" fill-rule="nonzero"/><path d="m63.617 4.898h24.466v24.466h-24.466z" fill="#b1824f"/><path d="m61.63 4.899-.402 1.065-.403-1.065h-.355v1.706h.317v-1.053l.326.897h.23l.326-.897v1.053h.317v-1.706zm-2.618.292h.473v1.414h.317v-1.414h.473v-.292h-1.263z" fill="#b1824f" fill-rule="nonzero"/><path d="m75.85 8.999 1.843 5.671h5.962l-4.824 3.505 1.843 5.67-4.824-3.504-4.824 3.504 1.843-5.67-4.824-3.505h5.962z" fill="#f1f1f3" fill-rule="nonzero"/><path d="m0 34.262h92.981v20.113h-92.981z" fill="#b1824f"/><g fill="#f1f1f3" fill-rule="nonzero"><path d="m8.97 39.193c1.175-.012 2.3.487 3.079 1.366l-.613.556c-.62-.709-1.524-1.108-2.466-1.088-1.82.032-3.3 1.537-3.3 3.357s1.48 3.326 3.3 3.357c.962.02 1.882-.397 2.501-1.134l.613.555c-.778.907-1.919 1.425-3.114 1.413-2.299 0-4.191-1.891-4.191-4.191 0-2.299 1.892-4.191 4.191-4.191"/><path d="m13.162 39.344h.857v3.219c.325-.687 1.035-1.113 1.794-1.077.029-.002.059-.002.088-.002 1.106 0 2.017.91 2.017 2.016 0 .062-.003.124-.009.186v3.727h-.857v-3.542c.008-.06.012-.119.012-.179 0-.773-.636-1.408-1.409-1.408-.016 0-.033 0-.05.001-.016-.001-.032-.001-.048-.001-.845 0-1.541.696-1.541 1.541 0 .034.001.068.003.103v3.485h-.857z"/><path d="m22.945 45.445v-1.065c-.476.222-.991.348-1.516.371-1.1.15-1.609.509-1.609 1.122 0 .58.463.915 1.273.915 1.193 0 1.852-.532 1.852-1.343m-3.982.452c0-1.111.764-1.713 2.42-1.945 1.354-.185 1.562-.231 1.562-.706v-.116c0-.417-.347-.926-1.319-.926-.673-.015-1.308.318-1.679.88l-.625-.487c.511-.779 1.397-1.233 2.327-1.192 1.447 0 2.153.671 2.153 1.817v3.114c0 .441.243.452.486.452h.105v.613c-.182.094-.386.139-.591.128-.244.007-.475-.111-.613-.313-.068-.113-.112-.239-.128-.37-.537.549-1.296.822-2.06.741-1.297 0-2.038-.649-2.038-1.69"/><path d="m25.285 41.578h.857v.984c.268-.666.927-1.097 1.644-1.077.76-.028 1.456.443 1.713 1.158.328-.705 1.039-1.158 1.816-1.158 1.099 0 2.003.904 2.003 2.002 0 .066-.003.132-.01.198v3.728h-.857v-3.543c0-.972-.486-1.586-1.32-1.586-.799.023-1.443.687-1.443 1.486 0 .053.003.106.008.158v3.485h-.857v-3.543c0-.972-.475-1.586-1.297-1.586-.784.035-1.409.69-1.409 1.474 0 .057.003.114.009.17v3.485h-.857z"/><path d="m37.547 46.788c1.18-.106 2.095-1.107 2.095-2.292s-.915-2.186-2.095-2.293c-1.213.063-2.177 1.078-2.177 2.293 0 1.214.964 2.229 2.177 2.292m-2.929-5.21h.857v.868c.445-.701 1.243-1.102 2.072-1.041 1.642.075 2.953 1.447 2.953 3.091s-1.311 3.015-2.953 3.09c-.829.061-1.627-.34-2.072-1.041v3.102h-.857z"/><path d="m41.623 41.578h.857v5.835h-.857zm-.151-1.551c0-.318.262-.579.579-.579.318 0 .579.261.579.579s-.261.579-.579.579c-.317-.001-.577-.262-.579-.579"/><path d="m46.705 46.788h.047c1.258 0 2.292-1.035 2.292-2.292 0-1.258-1.034-2.293-2.292-2.293s-2.293 1.035-2.293 2.293c-.001.028-.001.055-.001.083 0 1.212.997 2.209 2.209 2.209zm0-5.383c1.691.007 3.078 1.4 3.078 3.09 0 1.696-1.395 3.091-3.09 3.091s-3.09-1.395-3.091-3.09c0-.014 0-.028 0-.042 0-1.673 1.377-3.05 3.05-3.05.018 0 .036.001.053.001"/><path d="m50.921 41.578h.857v.984c.357-.696 1.094-1.118 1.875-1.077.042-.002.083-.004.125-.004 1.122 0 2.046.924 2.046 2.046 0 .053-.002.106-.006.158v3.728h-.857v-3.543c.004-.048.007-.096.007-.144 0-.792-.652-1.445-1.445-1.445-.03 0-.06.001-.09.003-.029-.002-.058-.002-.086-.002-.862 0-1.571.709-1.571 1.57 0 .026 0 .051.002.076v3.485h-.857z"/><path d="m57.405 45.815c.251.599.857.976 1.505.937.926 0 1.25-.393 1.25-.868 0-.613-.509-.868-1.401-1.18-.949-.348-1.643-.776-1.643-1.679.008-.896.748-1.63 1.644-1.63.058 0 .116.003.173.009.722-.007 1.39.392 1.725 1.031l-.66.416c-.192-.4-.598-.657-1.042-.659-.636 0-.984.37-.984.787 0 .544.498.741 1.204 1.007 1.239.451 1.841.892 1.841 1.91 0 .984-.718 1.655-2.095 1.655-.982.077-1.903-.511-2.246-1.435z"/><path d="m61.967 39.344h.857v3.219c.325-.687 1.035-1.113 1.794-1.077.029-.002.058-.002.088-.002 1.106 0 2.016.91 2.016 2.015 0 .063-.003.125-.009.187v3.727h-.856v-3.542c.007-.06.011-.119.011-.179 0-.773-.635-1.408-1.408-1.408-.017 0-.033 0-.05.001-.016-.001-.032-.001-.048-.001-.846 0-1.542.696-1.542 1.541 0 .034.002.068.004.103v3.485h-.857z"/><path d="m68.092 41.578h.857v5.835h-.857zm-.151-1.551c0-.318.262-.579.579-.579.318 0 .579.261.579.579s-.261.579-.579.579c-.317-.001-.578-.262-.579-.579"/><path d="m73.256 46.788c1.18-.106 2.095-1.107 2.095-2.292s-.915-2.186-2.095-2.293c-1.213.063-2.177 1.078-2.177 2.293 0 1.214.964 2.229 2.177 2.292m-2.929-5.21h.857v.868c.445-.701 1.243-1.102 2.072-1.041 1.642.075 2.953 1.447 2.953 3.091s-1.311 3.015-2.953 3.09c-.829.061-1.627-.34-2.072-1.041v3.102h-.857z"/></g></g></svg>