<svg clip-rule="evenodd" fill-rule="evenodd" stroke-linejoin="round" stroke-miterlimit="2" viewBox="0 0 560 400" xmlns="http://www.w3.org/2000/svg"><g transform="matrix(.668896 0 0 .668896 103.609 99.6656)"><path d="m.88.5h525.65v299h-525.65z" fill="#bb133e" fill-rule="nonzero"/><path d="m27.28 26.25h472.96v247.28h-472.96z" fill="#002147"/><path d="m17.4 19.4v260.99h492.61v-260.99zm475.98 247.27h-459.24v-233.56h459.24zm-317.04-208.4h20.96v149.55c0 22.68-11.23 33.8-33.8 33.8h-6.48c-22.68 0-33.8-11.23-33.8-33.8v-149.55h20.73v150.53c0 9.29 4.32 13.71 13.71 13.71h4.97c9.29 0 13.71-4.32 13.71-13.71zm123.54 123.85v26.46c0 22.68-11.23 33.8-33.8 33.8h-5.72c-22.35 0-33.26-11.23-33.26-33.26v-38.12h20.3v38.98c0 9.29 4.32 13.71 13.71 13.71h4.1c9.29 0 13.71-4.32 13.71-13.71v-27.21c0-9.07-3.13-12.96-9.07-17.39l-25.48-18.46c-13.5-9.61-17.38-19-17.38-33.8v-21.81c0-22.68 11.23-33.8 33.8-33.8h5.18c22.35 0 33.26 11.23 33.26 33.26v32.61h-20.41v-33.47c0-9.29-4.32-13.71-13.71-13.71h-3.67c-9.29 0-13.71 4.32-13.71 13.71v22.89c0 9.07 3.46 12.96 9.39 17.39l25.27 18.14c13.17 9.61 17.38 18.25 17.49 33.79zm-197.71 21.49-15.87 11.55 6.05 18.79-15.88-11.55-15.98 11.55 6.15-18.79-15.87-11.55h19.65l6.05-18.57 6.05 18.57zm-19.66-59.5h19.65l-15.87 11.45 6.05 18.79-15.87-11.55-15.98 11.55 6.15-18.79-15.87-11.55h19.65l6.05-18.46zm0-59.49h19.65l-15.87 11.55 6.05 18.79-15.87-11.55-15.98 11.55 6.15-18.79-15.87-11.55h19.65l6.05-18.57zm374.37 0h19.65l-15.87 11.55 6.05 18.79-15.87-11.55-15.98 11.55 6.15-18.79-15.87-11.55h19.65l6.05-18.57zm-86.38-27.11h-7.77c-22.57 0-33.8 11.12-33.8 33.8v117.38c0 22.57 11.12 33.8 33.8 33.8h7.77c22.68-.11 33.8-11.34 33.8-33.91v-117.27c0-22.57-11.13-33.8-33.8-33.8zm13.06 152.15c0 9.39-4.43 13.71-13.71 13.71h-6.26c-9.39 0-13.71-4.43-13.71-13.71v-119.43c0-9.39 4.43-13.71 13.71-13.71h6.26c9.29 0 13.71 4.32 13.71 13.71zm73.32-65.55h19.65l-15.87 11.45 6.05 18.79-15.87-11.55-15.98 11.55 6.15-18.79-15.87-11.55h19.65l6.05-18.46zm19.66 59.5-15.87 11.55 6.05 18.79-15.87-11.55-15.98 11.55 6.15-18.79-15.87-11.55h19.65l6.05-18.57 6.05 18.57z" fill="#fff" fill-rule="nonzero"/></g></svg>