<svg clip-rule="evenodd" fill-rule="evenodd" viewBox="0 0 560 400" xmlns="http://www.w3.org/2000/svg" xmlns:xlink="http://www.w3.org/1999/xlink"><clipPath id="a"><path clip-rule="evenodd" d="m101.833 7.333c-.333-.833-9.333-1.167-15.333 4-6.877 5.922-15.334 19.334-23.334 19.167-6.999-.146-6.5-8.167-10.5-8.167s-2.412 3.139-1.833 5.167c1 3.5 8 5.5 8 5.5s-4-2.333-6-2.833-7.833-1.167-8-.5 3.167 1.833 5.167 2.5 8.5 1.667 8.5 1.667l-1.667.5s.496 1.236 3.333 1.333c4.834.166 24.666-1.667 34.5-13.667 9.832-12 7.5-13.833 7.167-14.667z"/></clipPath><g transform="matrix(2.15547 0 0 2.15547 142.67 98.4465)"><path d="m73.166 12.333s-4-12.5-8.666-10.667c-4.667 1.833-2.333 9.667-2.333 9.667s2.833 5 4.333 6.167 10.5 5 12.332 6c1.834 1 5.834 5.5 7.668 6.667s7.666 3.333 12.666 2.667 10.834-3.997 10.834-7.334c0-2-8.166-1.333-10.166-1.5s-9.334-2.333-9.334-2.333l-6.666-1.5-8.334-5.833z" fill="#fff" fill-rule="nonzero"/><path d="m88.666 2.5c-2.75-.125-6 2.5-6.125 5.375-.077 1.766.625 4.125 4.25 3.125s3.75-2.875 3.75-4.25-.479-4.187-1.875-4.25z" fill="#fff" fill-rule="nonzero"/><path d="m88.666 2.5c-2.75-.125-6 2.5-6.125 5.375-.077 1.766.625 4.125 4.25 3.125s3.75-2.875 3.75-4.25-.479-4.187-1.875-4.25z" fill="none"/><path d="m83.229 4.944-.071.094c.198-.332.477-.62.778-.875-.733.452-1.442 1.341-1.381 2.099-.228-.021-.552.802-.474.848l-.017.559.022-.383-.022.383c.03 1.1.115 2.493 1.261 3.48.629.707 2.752.697 3.42.485l.312-.058c-.167.045-.176.027-.352.051.431-.121.766-.335 1.119-.472-.072-.001-.092-.02-.25 0l.186-.047c.143-.112.516-.255.667-.388-.021.052.116-.011.237-.068l-.058.003c.47-.189.925-.601 1.261-.913l.111-.095.262-.371c.036.068.232-.3.153-.092.101-.338.31-.631.31-.966.271-1.116.11-2.259-.175-3.327l-.013.03c-.126-.368-.275-.675-.434-1.112-.158-.298-.471-.661-.609-.703-.264-.222-.385-.323-.684-.346.065.059-.285-.004-.14.055.149.133.167.075.28.157l.004-.016c.547.44.796 1.43.945 2.319.16.611.183 1.283.16 1.931.002.687-.189 1.341-.514 1.796l-.25.23c-.352.376-.941.715-1.498.991l.03-.008-.87.261-.062.046c-.055.023-1.823.5-1.936.354l-.102.004c-.654-.114-1.137-.523-1.373-.96l-.258-.235c-.006-.103-.062-.098-.096-.212.018-.315-.062-.465-.078-.307l-.115-.718-.037-.316.037-.186c0-.228.039-.158.09-.388.06-.044.021-.599.058-.664l-.005.039c.113-.257.277-.39.385-.633.336-.663.862-1.316 1.389-1.787-.027-.042-.102.119-.151.077.282-.315.71-.456 1.037-.712l.198-.059c.127-.042.059-.055.148-.092l.033.034c.109-.095.207-.047.316-.122l.087-.064c.022.042.129-.068.14-.025v-.004l.075-.032c.031-.063.476-.297.523-.342h.027c.072-.023.095-.066.05-.062l.091-.024-.01.006.091-.024.021.043.154-.064-.496.022.242-.066c.088.017.254-.038.387-.009l.107-.04.129.017-.182.021c.018.042.154.019.204.028.021-.015.141-.01.215-.027-.03.044.062.022.104.041.051.001.082-.018.062-.031.017-.046-.201-.011-.132-.064.02.021.117.005.172-.001l-.001-.042.157-.012-.052.006c.072-.003-.418.195-.316.172-.031-.019.435-.182.387-.179-.047-.009.036-.046-.014-.052l-.057.034c-.066-.003-.095-.044-.07-.063.111-.005-.322.194-.225.161l-.039-.008.19-.019.103-.05.016.003c.047-.016.113-.016.084-.046-.287.027.2-.263-.083-.255.119.045-.042.059-.167.074-.013-.018-.069-.04-.161-.047-.079.01-.045.023-.059.038-.045-.009-.129-.013-.121-.042l-.174.003c-.062.02.006.014-.037.034l-.312.03c-.034-.018-.134-.038-.078-.097.146-.037-.041.082.108.029-.078-.046.131-.052.153-.088-.056-.03-.156-.011-.236.026l.019.003-.3.074c.014-.026-.025-.031.027-.052l-.103.025.009.017-.134.033c-.019-.013-.506.236-.485.236l-.152.064c-.016-.011.643-.318.555-.275-.088-.038-.756.396-.804.399-.045.027-.102.061-.081.075-.088.032.006-.051-.064-.041l-.008.017-.072.003c-.109.103-.336.139-.432.274.021-.046.038-.118.118-.178l.021.002.065-.074-.233.142-.055.016.006.006-.027-.011.002-.009c-.084-.021-.278.254-.438.326l-.041.06-.427.242c-.022.064-.019.076.052.048l-.105.092c.039-.148-.234.132-.188-.024l-.152.14c.008.021.021.05-.049.121-.117.081-.086.064-.186.129l-.033-.044c-.104.149-.15.075-.268.2-.064.085-.177.267-.147.296-.084.116-.11.097-.131.064z" fill-rule="nonzero"/><path d="m94.666 1.5s-2.5 1-2.5 3.875c0 2 .75 3.625 3.125 3.25s2.617-1.018 2.875-2.875c.625-4.5-3.5-4.25-3.5-4.25z" fill="#fff" fill-rule="nonzero"/><path d="m94.072 1.844s-1.906.656-1.906 3.531c0 2 .75 3.625 3.125 3.25s2.617-1.018 2.875-2.875c.625-4.5-3.188-4.312-3.188-4.312" fill="none"/><path d="m91.764 5.731.005.091c-.061-.292-.038-.6.057-.902-.324.638-.193 1.497.127 1.929-.164.085.071.778.116.773l.263.364-.172-.255.172.255c.666.752 1.647 1.163 2.693 1.122.594.013 1.964-.185 2.581-.686l.248-.155c-.142.083-.142.083-.284.163.35-.227.483-.561.602-.889-.049.041-.074.04-.168.143l.094-.14c-.004-.169.193-.475.173-.624.028.041.058-.069.082-.166l-.031.033c.077-.372.163-.805.185-1.146l.029-.103-.019-.332c.049.028.052-.273.077-.114l-.064-.734c-.093-.838-.437-1.79-1.208-2.293l.006.027c-.265-.172-.508-.267-.834-.416-.254-.066-.61-.111-.727-.026-.271-.06-.396.001-.658.001.066.049-.246.063-.115.1.153.071.168.015.307.086l-.002-.018c.658.151 1.267.433 1.685.878.28.29.541.671.608 1.132.205.447.148 1.031.191 1.482l-.06.271c-.041.396-.119.984-.259 1.368l.012-.017-.285.499-.02.043c-.012-.009-1.014.754-1.225.653l-.074.026c-.531.16-1.039-.021-1.428-.037l-.278.093-.183.015c-.164-.178-.239-.251-.188-.126l-.406-.274-.204-.093c-.06-.027-.083-.05-.063-.107-.08-.141-.035-.117-.091-.28.027-.059-.245-.355-.257-.411l.02.023c-.09-.182-.056-.325-.054-.54-.041-.576-.155-1.195.019-1.705-.049-.012-.009.115-.076.113l.227-.902.076-.126c.068-.07.008-.055.051-.109l.047.01.152-.184.021-.069c.041.022.049-.087.082-.06l-.002-.003.033-.045c.004-.036.076-.422.084-.475l.014-.011c.041-.035.033-.073.003-.059l.054-.04-.005.009.054-.04.037.03.078-.084-.339.145c.003-.061.097-.086.129-.123l.265-.113.043-.078.084-.038-.097.092c.033.029.101-.046.134-.059l.11-.108c.003.044.047.008.08.016l.021-.04c-.01-.045-.121.029-.105-.031l.102-.037-.018-.038.09-.046-.029.018c.036-.014-.16.261-.109.218-.031-.005.172-.25.148-.241l-.027-.043-.021.045-.07-.043c.063-.026-.113.245-.065.193l-.028.002.105-.057.039-.067.012-.001c.021-.025.062-.041.033-.062-.17.093.037-.295-.147-.217.099.011-.006.065-.084.11h-.132l-.018.058-.096.014-.107.076-.006.045-.191.139c-.035-.006-.123.005-.109-.058.094-.07.01.078.098-.005-.08-.013.07-.08.059-.13l-.154.102.011-.002-.192.145-.007-.049-.066.05.016.011-.061.084c-.023-.004-.148.424-.152.402l-.073.103c.01.018.224-.516.19-.448-.049.032-.248.625-.302.63l-.019.085c-.047.056-.027-.038-.072-.004l.003.015-.052.03c-.024.111-.17.23-.123.37l-.057-.177.019-.007.002-.077c-.06.055-.071.117-.06.202l-.024.035.009.001-.025.005-.004-.006c-.072.024-.01.297-.065.418l.016.058-.125.357c.021.05.031.055.07.006l-.027.105c-.06-.109-.105.19-.164.073l-.035.158c.02.008.047.021.035.097-.043.104-.029.08-.068.167l-.055-.01c.012.139-.076.119-.088.251.016.083.036.245.08.247.009.108-.024.11-.06.101z" fill-rule="nonzero"/><path d="m60.833 33.167s.333 2.833.833 3.167 6.684 4.254 8.334 4.666c2 .5 3.5-.333 3.5-.333s-1-1.833-2-2.5-9.167-3.833-9.167-3.833z" fill="#7095cd" fill-rule="nonzero" stroke="#000"/><path d="m90.5 21.667-6.667-1.5-8.333-5.834" fill="none"/><path d="m90.5 21.667c-.713-.467-1.205-.744-2.135-.96-1.216-.163-5.824-1.346-5.632-1.881 0 0-4.235-2.975-5.087-3.561-.786-.542-1.322-.719-2.146-.932.481.702.832 1.145 1.609 1.698.842.599 5.087 3.561 5.087 3.561-.266.502 5.041 2.011 5.964 2.027.931.204 1.496.165 2.34.048z" fill-rule="nonzero"/><path d="m75.541 8.75c-2.25 0 .281-.791-3.375 1.375-1.858 1.1-3.375 2-3.25 2.875s3.125 4.375 7.125 1-.5-5.25-.5-5.25z" fill="#fff" fill-rule="nonzero"/><path d="m75.541 8.75c-2.25 0 .281-.791-3.375 1.375-1.858 1.1-3.375 2-3.25 2.875s3.125 4.375 7.125 1-.5-5.25-.5-5.25z" fill="none"/><path d="m70.582 10.312-.088.046.869-.473c-.723.15-1.601.505-1.791 1.23-.195-.234-.912.351-.876.399-.086.187-.196.259-.269.523.046-.208.13-.241.193-.367-.063.126-.146.159-.193.367-.551 1.882.891 2.537 1.615 3.343.473.556 2.359 1.002 3.112.93l.318-.002c-.171.019-.179-.007-.356-.017.445-.05.768-.327 1.112-.451-.073-.015-.095-.044-.252-.047l.183-.033c.125-.151.485-.265.633-.362-.006.071.115.009.217-.05l-.057-.006c.394-.229.81-.559 1.148-.778l.128-.039.271-.283c.027.078.27-.189.17-.018.145-.278.39-.459.512-.723.693-.656 1.152-2.015.619-3.004l-.014.034c-.199-.337-.445-.534-.72-.85-.255-.177-.634-.359-.81-.302-.264-.184-.437-.155-.715-.273.039.101-.297-.035-.185.081.118.172.167.098.271.257l.009-.025c.608.48 1.116 1.062 1.241 1.591.121.347.019.754-.233 1.178-.194.463-.724.922-.983 1.354-.088.085-.203.083-.312.111-.384.242-.849.684-1.324.838l.024-.005-.706.174-.05.053c-.025-.012-1.508.269-1.6.072l-.085-.013c-.541-.167-.925-.682-1.263-.963l-.326-.1c-.029-.087-.113-.034-.16-.125.012-.329-.138-.38-.123-.242-.181-.161-.193-.298-.255-.39-.065-.048.015-.082 0-.125l.088-.054c.017-.099-.038-.041.103-.152.089.018.254-.401.312-.433l-.015.03c.146-.157.39-.136.593-.271.567-.353 1.218-.794 1.799-1.115-.032-.067-.116.09-.174.009l1.093-.531.211-.035c.125-.045.045-.071.133-.113l.047.049c.088-.118.216-.055.313-.154l.071-.083c.042.058.121-.089.152-.032l-.002-.005.076-.042c.031-.04.35-.531.373-.594l.029-.008c.051-.043.02-.088-.005-.083l.045-.035-.002.009c.239.316-.261-.478-.281-.374-.03-.001-.057-.019-.019-.002-.389.969 0 .273-.051.521l-.105-.075c.311-.743-.01-.604.452-.106l-.21.047.158-.124c-.511-.644-.283.629-.095.246.038.003.078-.07.153-.021.028.06.099.02.147.059l-.23-.022c-.002.064.201.086.242.098.027-.019.156.009.24-.005-.041.06.064.043.112.079.056.01.093-.013.071-.036.021-.067-.221-.051-.139-.119.019.034.127.027.187.027.002-.037-.039-.03 0-.063l.169.009h-.059c.09.008-.467.221-.358.204-.022-.033.495-.197.436-.202-.049-.021.037-.065-.016-.081l-.059.042c-.071-.017-.098-.083-.072-.107.122.012-.352.237-.248.204l-.042-.02c.046-.022.164-.037.208.004l.109-.058.019.007c.05-.016.121-.004.088-.054-.286-.007.188-.364-.084-.397.111.086-.039.081-.157.085l-.145-.096c-.073.003-.045.027-.061.047-.041-.02-.117-.039-.102-.081-.062.048-.087-.034-.156-.032-.064.012 0 .022-.048.039l-.285-.085c-.015-.047-.07-.143.004-.181.123.053-.078.079.057.113-.031-.101.127.006.168-.061l-.189-.078.011.017c-.057-.056-.308.059-.33.075-.006-.037-.047-.033-.012-.074l-.08.059.021.02-.097.066c-.022-.021-.29.402-.297.372-.054.038-.096.005-.129.069.018.031.44-.454.371-.398-.052.011-.5.565-.57.537-.039.029-.084.068-.056.091-.077.033-.016-.069-.082-.062l-.002.021-.069-.005c-.08.113-.275.152-.352.282l.07-.204.021.007.038-.09-.19.139h-.055l.008.011-.033-.024v-.01c-.096-.059-.237.221-.391.255l-.031.062-.402.137c-.021.064-.018.081.061.087l-.111.051c.035-.156-.25.022-.207-.139l-.157.08c.009.028.024.074-.049.118-.122.028-.091.026-.194.045l-.035-.075c-.105.12-.158-.001-.277.079-.071.056-.223.152-.19.21-.107.062-.133.021-.151-.032z" fill-rule="nonzero"/><path d="m100.791 21.75s-1.375-.875-2.25-.875-3.929 1.613-4.5 2.375c-.75 1-.942 2.743-.5 3.25.875 1 3.25.375 4.125.25s2.75-1.75 3.25-2.375-.125-2.625-.125-2.625z" fill="#fff" fill-rule="nonzero"/><path d="m100.791 21.75s-1.375-.875-2.25-.875-3.929 1.613-4.5 2.375c-.75 1-.942 2.743-.5 3.25.875 1 3.25.375 4.125.25s2.75-1.75 3.25-2.375-.125-2.625-.125-2.625z" fill="none"/><g fill-rule="nonzero"><path d="m95.718 21.279-.084.039.84-.381c-.699.085-1.521.314-1.707 1.012-.182-.205-.827.119-.803.185l-.301.421.225-.296-.225.296c-.552.984-.977 1.846-1.076 3.032-.574.846 1.69 2.736 2.264 2.342l.283.042c-.158-.032-.158-.032-.314-.065.396-.057.779-.057 1.062-.162-.057-.03-.068-.064-.197-.099l.156.005c.132-.122.453-.156.599-.219-.024.059.095.055.201.051l-.048-.031c.412-.022.81-.153 1.154-.204l.127-.005.365-.188c-.006.083.338-.069.174.05.275-.19.517-.294.664-.515.739-.508 1.399-1.118 1.935-1.886l-.036-.002c.225-.232.1-.689.252-1.024-.118-.273-.2-.641-.359-.719-.056-.287-.177-.388-.269-.658-.06.088-.147-.247-.177-.097-.064.207.025.196-.025.368l.023-.01c-.008.89.108 1.222-.344 1.579-.244.382-.744.69-1.113 1.041-.428.332-.898.742-1.194.889-.081.058-.138.032-.229.022-.471.121-1.062.193-1.535.282h.023c-.26.042-.473.01-.691-.012l-.053.031c-.121.016-1.293.007-1.279-.17l-.066-.015c-.118-.266.083-.746.123-1.154l-.07-.294c.061-.062-.018-.099.016-.187.248-.168.203-.315.104-.23l.231-.479.064-.231c.014-.072.059-.084.119-.069.082-.116.092-.054.205-.142.057.033.305-.37.357-.386l-.019.027c.185-.123.402-.082.589-.197.551-.282 1.141-.649 1.676-.861-.025-.07-.109.064-.156-.022l.962-.256.165.029c.087.004.031-.042.082-.042l.018.065c.051-.145.09.239.135-.168.002.333.028.078.055.167-.002.072.076.016.066.08l.002-.005.041.019c.021-.006.336-.184.412-.165l.016.019c.055.021.096-.02.068-.045l.064.032-.01.001.065.032-.019.069.126.024-.286-.312.179.08.229.225c.023.004.07-.062.104-.011l.076.073-.141-.044c-.019.064.093.082.119.119l.166.068c-.053.043.024.059.041.105l.063-.011c.044-.054-.127-.113-.043-.149-.002.036.076.064.116.083l.029-.057.113.062-.041-.018c.053.032-.419.052-.335.072-.006-.041.423-.025.388-.046-.025-.034.059-.045.027-.075l-.062.018c-.041-.038-.031-.105-.002-.119.078.048-.354.099-.265.104l-.021-.031.142.068.104-.016.009.012c.043.002.088.035.089-.019-.209-.104.318-.252.126-.378.047.116-.067.057-.163.018l-.072-.139-.065.021c-.022-.032-.076-.078-.05-.112-.065.021-.057-.065-.119-.072-.059.001-.006.021-.051.03l-.224-.116c-.007-.046-.051-.141.022-.177.109.054-.08.076.041.112-.016-.105.113.019.162-.035l-.166-.101.008.017-.225-.111.051-.048-.076-.038-.008.027-.1-.05c-.004-.041-.488.049-.463.032l-.131-.04c-.018.024.602-.004.523-.007-.059-.045-.723.023-.746-.022-.045.01-.1.026-.086.058-.076-.004.018-.069-.039-.092l-.012.018-.061-.034c-.117.066-.307.039-.398.154l.11-.181.019.013.063-.074-.216.083-.051-.012.006.012-.024-.032.003-.009c-.076-.079-.271.156-.419.158l-.036.055-.395.067c-.025.059-.021.076.049.095l-.107.031c.047-.146-.238-.017-.184-.167l-.152.059c.006.029.018.075-.054.11-.116.015-.086.015-.185.023l-.029-.078c-.105.106-.146-.018-.266.048-.069.046-.215.126-.188.188-.09.051-.112.009-.129-.045z"/><path d="m82.916 7.354c-.166.5.438 1.396.793 1.479.648.152.771-.583.771-1.083s0-.875-.438-1.062c-.527-.226-1.126.666-1.126.666z"/><path d="m92.666 5.5c-.166.5.154.61.75.312.625-.312.562-.5.562-1s-.417-.655-.875-.312c-.5.375-.437 1-.437 1z"/></g><path d="m85.916 29.75c1.834 1.167 8.25 3.75 13.25 3.083s10.834-3.996 10.834-7.333c0-2-10.459-1.583-12.459-1.75" fill="none"/><path d="m94.416 33.322.17.037c-.553-.097-1.137-.194-1.693-.354 1.172.485 2.684.906 3.701.456.084.302 1.351.409 1.38.316l.79-.161-.547.094.547-.094c1.654-.353 3.406-.705 5.176-1.341 1.02-.255 3.507-1.659 4.396-2.345l.381-.307c-.209.182-.207.186-.438.324.482-.476.84-1.016 1.227-1.458-.102.052-.142.044-.351.188l.228-.2c.119-.251.423-.843.549-1.113.016.083.148-.12.264-.3l-.076.058c.215-.602.791-1.977-.254-2.652l-.195-.155c-.229-.09-.463-.203-.68-.237.074-.056-.521-.223-.197-.175-.515-.066-.983-.195-1.455-.179-1.621-.227-3.33-.248-4.985-.171l.04.029c-.58.036-1.092.17-1.791.113-.503.091-1.214.137-1.416.288-.58.012-.809.09-1.391.104.146.086-.57.058-.291.136.385.127.418.042.736.135l-.009-.026c1.505.149 2.981.212 4.478.297 1.002-.038 2.076.073 3.097.145 1.089.074 2.3.181 3.087.432.15.062.316.168.333.263.295-.329-.093 1.305-.54 1.833l.023-.036c-.184.435-.601.598-.895.963l-.051.102c-.004.07-2.189 1.929-2.428 1.913l-.137.089c-.945.497-2.062.708-2.902 1.022l-.518.311c-.167.006-.173.096-.363.143-.522-.036-.783.088-.519.109l-1.147.239-.485.144c-.138.049-.222.025-.3-.022-.358.048-.258-.008-.637-.008-.095-.067-.947.166-1.059.151l.062-.014c-.443-.022-.733-.198-1.162-.23-1.188-.118-2.508-.313-3.592-.621-.027.07.246.045.235.144l-1.903-.646c-.109-.056-.24-.137-.285-.176-.194-.092-.131-.005-.276-.062l.001-.07c-.235-.019-.295-.169-.506-.215l-.164-.033c.021-.068-.221-.08-.188-.137l-.005.004-.122-.057c-.088-.007-.926-.122-1.023-.126l-.032-.027c-.11-.049-.181-.022-.12.02l-.137-.067.019.003-.135-.066c-.022-.017-.037-.061.015-.072l-.25-.09.639.484c-.108-.011-.258-.129-.362-.167-.101-.099-.331-.248-.509-.365-.043-.015-.106.043-.188-.032l-.171-.12.279.113c.013-.066-.206-.142-.271-.192-.041 0-.195-.11-.307-.151.075-.03-.064-.082-.107-.144-.065-.045-.123-.048-.105-.013-.057.046.258.189.125.197-.01-.043-.153-.109-.229-.148-.021.031.037.052-.031.056-.078-.053-.189-.063-.217-.123l.076.039c-.103-.061.701.112.551.054.023.05-.717-.146-.649-.106.056.052-.083.03-.021.079l.1.004c.086.063.092.14.045.144-.151-.09.572.028.418-.014l.045.045c-.068-.01-.229-.076-.268-.141-.02.031-.102 0-.172-.023l-.02-.018c-.075-.021-.162-.078-.145-.014.393.211-.459.171-.086.401-.121-.159.098-.04.271.045.002.033.059.11.171.197.108.053.077.009.106.002.05.048.156.125.121.154.104.003.123.095.234.129.104.021.004-.023.08-.015.135.068.325.163.432.222.024.056.125.18.006.192-.207-.104.121-.055-.103-.143.056.126-.204-.065-.272-.021.052.069.193.134.316.179l-.02-.022c.109.037.326.115.42.211-.04.017 0 .062-.08.034l.143.071c.021-.001.045-.001.006-.027l.188.084c.004.038.837.172.806.182.105.04.113.098.229.105.021-.021-1.057-.285-.913-.241.079.07 1.265.309 1.307.394.081.024.181.048.173.01.129.059-.062.049.023.11l.027-.008.08.071c.228.018.516.183.756.187-.074.015-.166.054-.32.04l-.02-.025c-.022.003-.145-.023-.151.011l.399.11.068.052.001-.014.013.044-.012.004c.057.12.549.118.787.231.078.005.012-.014.109-.01l.683.269c.097-.021.106-.036.015-.105l.2.065c-.213.065.354.203.124.263.055.041.176.077.295.088.018-.025.047-.066.19-.03.192.089.147.062.31.128.033.043-.033.047-.031.078.271-.002.213.12.463.156.158.016.468.063.485 0 .215.039.208.086.18.136z" fill-rule="nonzero"/><path d="m73.416 12.875s-4.25-13.041-8.916-11.208c-4.667 1.833-2.333 9.667-2.333 9.667s2.833 5 4.333 6.167 7.957 3.75 9.791 4.75" fill="none"/><path d="m69.5 3.498-.113-.159c.406.488.754 1.044 1.074 1.6-.502-1.288-1.502-2.84-2.776-3.146.137-.321-1.286-1.178-1.396-1.042-.371 0-.732-.072-1.086.006.244-.077.49-.005.741-.009-.253.004-.499-.068-.743.009-2.173.563-3.812 2.364-4.205 4.57-.323 1.188-.179 4.354.098 5.516l.095.519c-.056-.3-.044-.292-.088-.582.142.705.741 1.577 1.019 1.911-.023-.111-.005-.144-.09-.39l.138.28c.237.188.568.75.772.984-.082-.027.037.184.144.369l-.014-.091c.412.698.966 1.46 1.395 2.055l.099.206.464.536c-.093.003.323.503.072.267.378.352.781.838 1.257 1.08 1.59 1.011 3.306 1.662 5.013 2.32l-.029-.043c.601.215 1.17.311 1.854.67.543.134 1.279.409 1.542.362.588.246.852.281 1.438.535-.109-.143.592.198.345.003-.33-.285-.394-.215-.679-.454v.028c-1.455-.822-2.93-1.528-4.422-2.247-1.028-.398-2.1-.943-3.099-1.444-1.171-.494-1.95-1.151-2.636-2.007-.164-.186-.215-.373-.309-.564-.592-.749-1.229-1.807-1.835-2.715l.025.047c-.312-.49-.469-.905-.761-1.385.01.072-.123-.192-.031.039.002-.062-.821-3.147-.67-3.363l-.023-.177c-.007-1.185.382-2.304.671-3.162-.019-.23.102-.405.141-.573.127-.11.073-.18.19-.336.431-.285.503-.573.322-.413.251-.306.654-.45.926-.67l.396-.307c.124-.037.205-.022.276.013.312-.06.224-.104.554-.01.06.029.864.064.962.203l-.061-.017c.401.159.532.537.879.782.89.866 1.744 2.053 2.35 3.125.067-.027-.151-.227-.074-.291.363.635.634 1.328.953 1.996.045.126.079.292.084.357.076.226.093.111.157.272l-.051.05c.158.206.09.366.217.569.031 0 .068.078.102.157-.064.033.108.237.043.252h.006l.053.141c.064.076.603.839.662.923l.008.047c.053.126.125.161.105.082l.061.158-.012-.015.061.157c.006.031-.014.076-.059.043l.129.268-.156-.875c.066.096.107.302.162.414.014.153.082.453.137.684.021.047.109.052.119.174-.031.073.05.124.045.229l-.131-.31c-.055.042.059.274.07.365.033.032.088.245.152.369-.08-.036.001.118-.004.205.023.089.066.137.075.094.075.006-.084-.36.026-.263-.02.043.051.21.086.301.035-.011.004-.072.059-.024.029.106.107.2.09.269l-.033-.089c.045.134-.479-.642-.399-.476.019-.056.473.685.442.594-.01-.085.082.037.066-.05l-.072-.078c-.027-.119.018-.188.055-.155.062.194-.43-.466-.338-.312l-.008-.073c.049.062.135.242.123.326.035-.011.08.079.119.152l.004.03c.045.074.073.187.102.12-.164-.469.459.196.324-.271-.011.221-.102-.039-.182-.24.02-.029.025-.133-.008-.287-.053-.125-.055-.065-.083-.082-.009-.077-.043-.216.003-.213-.084-.081-.025-.17-.088-.282-.062-.096-.018.015-.069-.051-.055-.158-.132-.379-.17-.507.019-.062.028-.235.126-.151.083.24-.128-.054-.021.188.045-.14.107.209.189.229.008-.093-.053-.253-.115-.383v.031c-.056-.114-.168-.34-.175-.485.042.018.042-.046.084.037l-.062-.164c-.018-.017-.035-.034-.022.016l-.079-.213c.029-.034-.49-.797-.461-.778-.051-.114-.017-.162-.097-.26-.029-.002.583 1.051.504.906 0-.118-.717-1.236-.692-1.331-.043-.083-.097-.181-.119-.147-.051-.148.08.015.062-.1l-.026-.017-.006-.115c-.152-.197-.238-.552-.417-.749.068.048.164.096.265.23l-.004.034c.02.017.088.134.117.116l-.211-.403-.02-.092-.012.008c-.006-.058 0-.054.021-.042l.012.006c.045-.133-.339-.518-.424-.796-.051-.068-.02.001-.083-.083l-.313-.744c-.086-.063-.104-.061-.084.064l-.104-.208c.205.125-.122-.432.094-.29-.013-.072-.074-.198-.164-.297-.033.004-.084.012-.174-.126-.093-.213-.074-.159-.148-.339.007-.059.058-.008.078-.032-.201-.22-.072-.262-.232-.491-.105-.14-.332-.411-.387-.379-.145-.189-.108-.219-.049-.233z" fill-rule="nonzero"/><g clip-path="url(#a)" fill-rule="nonzero"><path d="m32.999 22.333 67.001-21.333 15.666 11.5-26.333 21.333-12.5 11.167-31-2.5z" fill="#fff"/><path d="m45.166 19.167 29.667-3.167s1.332 8 .5 11.333c-.833 3.333-2.5 9.667-2.5 9.667l-32 .667z" fill="#7095cd"/><path d="m76.666 11.5 4.334-.833s.832 5.167.832 8.667-2.5 17.167-2.5 17.167l-3.666.167s1.832-9.667 2-12.5c.166-2.833-1-12.668-1-12.668z" fill="#ffcd19"/></g><path d="m101.833 7.333c-.333-.833-9.333-1.167-15.333 4-6.877 5.922-15.334 19.334-23.334 19.167-6.999-.146-6.5-8.167-10.5-8.167s-2.412 3.139-1.833 5.167c1 3.5 8 5.5 8 5.5s-4-2.333-6-2.833-7.833-1.167-8-.5 3.167 1.833 5.167 2.5 8.5 1.667 8.5 1.667l-1.667.5s.496 1.236 3.333 1.333c4.834.166 24.666-1.667 34.5-13.667 9.832-12 7.5-13.833 7.167-14.667z" fill="none" stroke="#000"/><path d="m86.733 13.226c.993.496 3.177.595 4.169-.298.496-.347.645.347.148.843-.496.497-.844.844-1.391 1.042.498.894.446 1.291 3.821 1.142.646 0 .298.694-.198 1.092-.496.397-4.387 3.137-5.806 2.282-1.531-.922-.298-3.97.545-4.465-.843-.199-1.19-.695-1.638-1.34-.196-.348.003-.497.35-.298 0 0-.347-.199 0 0z" fill-rule="nonzero"/><path d="m88.072 16.031c-.219.031-.969 2.25-.062 2.906.425.307 2.465-.586 2.595-1.031.279-.968-2.314-1.906-2.533-1.875z" fill="#fff" fill-rule="nonzero"/><path d="m105.291 4.375s1.523.874 1.625 2.5c.125 2-1.375 3.25-1.375 3.25" fill="none"/><path d="m105.291 4.375c.111.418.115.679.365.901.342.226.993 1.813.76 1.869.107.022-.291 1.769-.666 2.021-.207.273-.172.525-.209.959.437.013.713-.091.969-.414.471-.285.984-2.521.843-2.557.302-.023-.556-2.322-1.026-2.534-.322-.272-.609-.335-1.036-.245z" fill-rule="nonzero"/><path d="m108.916 8.75s1.237-.363 1.125-2.5c-.125-2.375-1.625-2.375-1.625-2.375" fill="none"/><g fill-rule="nonzero"><path d="m108.916 8.75c.383.178.705.089 1-.21.463-.366.664-2.442.567-2.436.074-.006-.433-2.053-1.034-2.313-.396-.193-.718-.203-1.033.084.265.314.25.59.475.666.298.093.697 1.597.66 1.64.074.007-.121 1.617-.372 1.782-.178.162-.114.408-.263.787z"/><path d="m123.852 76.361h-.756v-.256h1.814v.256h-.756v2.014h-.302z"/><path d="m125.167 76.105h.413l.714 1.909.718-1.909h.413v2.27h-.286v-1.887h-.007l-.707 1.887h-.258l-.709-1.887h-.005v1.887h-.286z"/><path d="m1.121 37.537c-.943 0-1.588 1.687-.695 2.531s.943 1.291.992 1.786c.05.497 1.688 11.016 1.886 12.705.198 1.687 1.141 10.816 1.637 12.851s1.538 7.84 1.687 8.981.943 2.381 1.936 2.433c.992.049 2.531.049 2.531.049.794.051.942-.646 1.29-1.638.347-.991 3.548-12.088 3.97-13.943.744-3.275 3.672-12.157 4.565-15.035s1.34-6.997.844-8.287-1.489-3.176-5.012-2.779c-1.538.447-3.82 1.588-1.885 5.012s1.736 4.565 1.637 7.542-1.042 5.656-2.928 6.6c-.843.397-1.488.1-1.389-1.488s-.149-5.707-.396-7.494c-.249-1.785-.794-4.366-.794-5.16s.043-1.64.695-1.985c.843-.447 1.439-2.68-.496-2.68z"/><path d="m30.695 73.016c-.298-2.58.397-13.496.397-15.58-.198-1.985-1.588-.498-1.985.396-1.687 5.26-.695 14.191-.199 15.482.497 1.29 1.787 1.389 1.787-.298l9.13 2.084c.049.547.099 1.092.595 1.34s.844 2.433-1.042 2.433h-6.947c-.397 0-.943-1.093-1.191-1.688-1.439.943-3.573 2.383-5.657 2.332-2.084-.049-6.997-1.836-6.798-12.651.099-4.962.695-8.933 5.458-10.72 2.283-1.09 7.673-2.979 7.542-6.252-.099-2.48-1.291-2.877-1.985-2.877-.695 0-1.944.685-2.184 2.282-.297 1.985-1.985 4.069-3.573 4.268s-4.366-1.588-2.183-5.854c1.687-1.885 3.572-3.672 7.443-3.672 3.87 0 8.038 2.184 9.229 5.657 1.191 3.474 1.29 6.947 1.29 8.732v16.672z"/><path d="m42.803 78.871c-1.042 0-1.638-1.637-.149-3.572.199-2.283 0-11.314.1-12.604.099-1.29.248-20.593.248-21.536 0-.942-.149-1.389-.645-1.687-.497-.298-1.142-2.184.049-2.233s6.699 0 7.542-.049c.844-.05 1.489.645 1.489 2.084v35.479c0 .646.397 1.291.695 1.49.297.196 1.141 2.68-.894 2.629z"/><path d="m54.762 49.1c0-.994-.249-1.639-.596-1.836-.348-.2-.992-2.433.695-2.433s3.424.199 4.267.149c.844-.05 3.027-.695 3.623.546.596 1.24.496 2.531.496 3.424v15.085c0 .893-.05 5.954-.05 6.648 0 .695.447 3.424 1.887 3.424 1.438 0 1.438-.545 1.438-.991v-24.315c0-.794-.298-1.34-.894-1.786-.596-.447-.545-2.283.695-2.283s4.664-.199 5.508-.348c.842-.149 3.225.1 3.174 2.531-.049 2.431-.049 27.44-.049 27.44 0 .547.148 1.34.844 1.735.695.398.992 2.632-.198 2.729-1.19.1-5.261-.1-6.252-.051-.993.051-2.581-.147-2.978-1.785-1.143.496-3.92 2.033-5.855 1.984-1.291 0-4.962-.795-5.607-5.559-.616-4.543-.397-9.625-.149-13.844.204-3.462.001-10.464.001-10.464z"/><path d="m78.679 41.457c-.049-1.141-.146-1.896-.596-1.985-.744-.149-1.19-2.283.199-2.283h9.676c1.043 0 1.242 1.588.695 2.283-.546.695-.496 1.191-.496 1.587 0 0-.05 25.208-.05 25.753 0 .547.05 5.955.05 6.946 0 .992-.625 4.568-3.373 7.443-2.185 2.282-4.168 4.021-7.693 3.819-3.522-.196-3.147-1.692-3.026-2.58.149-1.092 1.688-2.332 3.821-1.438.646.346 1.34.197 1.291-1.836 0-1.836-.547-7.346-.596-8.982s0-20.443.049-21.535c.049-1.088.099-6.597.049-7.192 0 0 .05.595 0 0z"/><path d="m99.867 49.693c0-1.19.1-3.287 1.391-2.977l-.496-2.68c-4.863-.893-10.223 4.168-10.918 15.879 0 3.077-.693 19.65 11.611 19.352 3.375 0 8.039-2.877 8.039-7.244.1-2.184-1.785-3.274-2.68-3.274s-2.48.396-2.48 2.979c0 2.58-.597 4.268-2.383 4.268-1.785 0-2.381-1.887-2.183-3.176.198-1.291.099-5.26.099-6.75 0-1.488.1-6.748-.099-8.038.595-.993 1.687-1.688 2.778-1.688h5.558c.894 0 1.985-.596 1.985-2.48 0-1.887-.695-9.627-9.33-9.825l.496 2.68c.895.199 1.093 1.786 1.391 3.077.298 1.29.1 2.779-.596 3.573s-1.391.198-1.588-.695c-.198-.895-.595-1.888-.595-2.981 0 0 0 1.093 0 0z"/><path d="m111.478 48.553c0-.943-.445-1.289-.844-1.489-.396-.199-.992-1.985.148-2.432 1.143-.446 4.366-.942 5.359-4.516.297-1.29 1.24-3.522 2.878-3.82s2.681.794 2.729 1.737c.049.942-.992 2.58-1.688 3.374s-1.111 2.229.445 2.729c1.391.447 1.341 1.34 1.341 1.985s-.349 1.291-1.093 1.34c-.576.039-.844.546-.844 1.24 0 0 0 25.457.051 25.953.05.496.396 1.34.942 1.588s.992 2.529-.495 2.629c0 0-8.188-.1-8.982-.049-.795.049-1.389-.596-1.34-1.439.05-.844.396-1.141.894-1.439.496-.297.496-1.092.496-1.735v-21.536c.003-.845.003-4.12.003-4.12z"/><path d="m12.571 92.039.718 1.262h.843l-3.006-5.252-3.006 5.252h.843l.719-1.262.325-.576 1.119-2.037 1.119 2.037h-2.238l-.325.576z"/><path d="m69.902 93.301h-.785v-5.037h.785z"/><path d="m40.007 88.824h.209c.776 0 1.712.113 1.712.902 0 .803-.869.922-1.67.922h-.251v.521h.326l1.854 2.131h.952l-1.988-2.19c.91-.086 1.512-.688 1.512-1.41 0-.48-.301-.955-.827-1.201-.501-.229-1.103-.234-1.662-.234h-.952v5.037h.785z"/><path d="m55.558 92.727h1.912v.574h-2.698v-5.037h.786z"/><path d="m27.187 93.301h-.785v-5.037h.785z"/><path d="m82.078 88.023 4.726 3.961v-3.72h.785v5.244l-4.726-3.961v3.754h-.785z"/><path d="m99.525 88.264h3.383v.574h-2.598v1.41h2.522v.574h-2.522v1.905h2.598v.574h-3.383z"/><path d="m117.789 89.219c-.232-.313-.533-.475-1.011-.475-.5 0-1.052.273-1.052.715 0 .395.484.602.877.723l.451.139c.895.281 1.562.677 1.562 1.519 0 .916-.887 1.57-2.014 1.57-1.02 0-1.812-.603-1.945-1.41l.793-.133c-.009.555.543.954 1.219.954.678 0 1.162-.454 1.162-.981 0-.541-.543-.774-1.086-.955l-.435-.146c-.718-.248-1.369-.576-1.369-1.277 0-.814.901-1.303 1.854-1.303.701 0 1.277.273 1.619.762z"/></g></g></svg>