<svg clip-rule="evenodd" fill-rule="evenodd" stroke-linejoin="round" stroke-miterlimit="2" viewBox="0 0 560 400" xmlns="http://www.w3.org/2000/svg"><g transform="matrix(.549032 0 0 .549032 130 49.9997)"><path d="m273.208 0c150.864 0 273.208 122.345 273.208 273.208s-122.344 273.209-273.208 273.209-273.208-122.345-273.208-273.209 122.345-273.208 273.208-273.208z"/><path d="m273.208 30.201c134.187 0 243.007 108.821 243.007 243.007s-108.82 243.008-243.007 243.008-243.007-108.821-243.007-243.008 108.821-243.007 243.007-243.007z" fill="#ffbc10"/><path d="m273.208 50.177c100.069 0 184.77 65.939 213.008 156.73h-124.523v-86.18l-20.155-26.561-23.954 26.561v18.573h-10.364v-18.573h-15.766v18.573h-11.662v-18.573h-15.317v18.573h-11.66v-18.573h-15.765v18.573h-10.365v-18.573l-20.517-26.561-23.594 26.561v86.18h-122.373c28.237-90.791 112.938-156.73 213.007-156.73zm-215.702 279.897h431.405c4.775-18.157 7.329-37.212 7.329-56.865 0-22.373-3.311-43.972-9.444-64.349h-427.175c-6.134 20.377-9.444 41.976-9.444 64.349 0 19.652 2.554 38.708 7.329 56.865zm430.939 1.717h-69.594c-23.222 57.659-79.686 98.37-145.643 98.37s-122.421-40.711-145.643-98.37h-69.593c25.734 94.746 112.355 164.45 215.236 164.45s189.502-69.705 215.237-164.45zm-126.752 0h55.324c-11.427 28.016-30.803 51.944-55.324 68.987zm-179.12 67.463c-10.126-7.293-19.337-15.775-27.431-25.243-5.529-6.471-10.541-13.413-14.972-20.756-4.122-6.834-7.729-14.007-10.771-21.464h53.173v67.463zm90.635-350.513c-123.949 0-224.468 100.519-224.468 224.468s100.519 224.468 224.468 224.468c123.95 0 224.468-100.519 224.468-224.468s-100.518-224.468-224.468-224.468zm-189.603 166.929h37.164l25.893 77.908 25.49-77.908h36.095l-42.681 108.254h-38.504zm226.456 0c-1.172 5.82-2.345 11.639-3.518 17.458-11.976-1.642-19.649.232-17.858 9.854v2.193h15.82v22.522h-15.82v56.227h-32.824v-56.227h-11.695v-22.522h11.695v-2.193c-1.014-31.178 22.794-32.159 54.2-27.312zm42.6-.001h66.73c11.117 0 19.655 2.596 25.591 7.764 5.961 5.166 8.942 11.568 8.942 19.18 0 6.402-2.122 11.896-6.364 16.483-2.846 3.05-6.982 5.47-12.433 7.235 8.269 1.865 14.366 5.09 18.287 9.628 3.894 4.563 5.853 10.284 5.853 17.166 0 5.62-1.396 10.66-4.161 15.147-2.793 4.487-6.581 8.016-11.413 10.637-2.982 1.612-7.493 2.798-13.534 3.529-8.029.982-13.346 1.487-15.979 1.487h-61.519zm35.957 42.472v-20.543h15.736c5.398 0 9.185.882 11.386 2.672 2.175 1.764 3.248 4.234 3.248 7.384 0 3.377-1.073 5.973-3.248 7.788-2.202 1.789-6.07 2.699-11.627 2.699zm0 42.519v-21.929h18.098c6.257 0 10.606.983 13.104 2.924 2.499 1.941 3.733 4.512 3.733 7.713 0 3.454-1.261 6.2-3.787 8.242-2.495 2.042-6.82 3.05-12.969 3.05zm-269.893 39.379 8.167 13.068-14.803 9.25 8.931 14.29 14.802-9.25 8.204 13.128-42.299 26.433-8.204-13.128 17.106-10.69-8.928-14.29-17.108 10.69-8.166-13.069zm14.034 65.3c5.123-6.327 10.884-9.82 17.252-10.494 6.386-.669 12.721 1.547 19.013 6.641 6.452 5.225 10.022 10.985 10.709 17.278.683 6.276-1.499 12.55-6.548 18.788-3.669 4.53-7.447 7.628-11.318 9.288-3.871 1.662-7.9 2.136-12.087 1.421-4.198-.724-8.43-2.824-12.735-6.309-4.369-3.538-7.425-7.164-9.17-10.877-1.728-3.716-2.263-7.795-1.609-12.257.662-4.453 2.824-8.949 6.493-13.479zm11.942 9.759c3.193-3.945 6.222-6.186 9.063-6.708 2.851-.53 5.478.192 7.887 2.143 2.527 2.046 3.844 4.5 3.955 7.371.103 2.878-1.312 6.14-4.272 9.796-3.507 4.332-6.655 6.76-9.421 7.299-2.759.528-5.436-.247-8.007-2.33-2.5-2.024-3.791-4.49-3.863-7.372-.064-2.891 1.486-6.282 4.658-10.199zm48.497 6.652 19.172 6.601-2.479 31.239 17.247-26.153 19.105 6.58-16.238 47.16-11.903-4.1 12.381-35.961-21.616 32.783-10.773-3.71 3.181-39.13-12.38 35.962-11.938-4.11zm66.847 19.106 28.75-2.513c4.789-.42 8.572.451 11.338 2.598 2.774 2.147 4.315 4.974 4.623 8.467.255 2.939-.436 5.542-2.082 7.807-1.103 1.506-2.788 2.774-5.066 3.789 3.638.544 6.395 1.794 8.266 3.731 1.86 1.945 2.936 4.498 3.213 7.658.226 2.579-.175 4.945-1.187 7.108-1.023 2.164-2.512 3.926-4.488 5.313-1.219.854-3.117 1.567-5.689 2.13-3.421.753-5.69 1.185-6.825 1.285l-26.504 2.318zm17.198 18.142-.825-9.431 6.779-.592c2.326-.204 3.993.058 5.014.796 1.005.729 1.568 1.821 1.695 3.268.135 1.552-.223 2.784-1.087 3.699-.877.904-2.504 1.465-4.9 1.676zm1.707 19.515-.88-10.064 7.797-.682c2.696-.235 4.608.052 5.764.847 1.152.797 1.788 1.93 1.917 3.4.138 1.583-.296 2.893-1.301 3.926-.995 1.032-2.816 1.657-5.466 1.887zm39.271-43.23 37.428-17.453 4.5 9.652-23.428 10.924 3.349 7.19 21.736-10.137 4.299 9.22-21.734 10.137 4.152 8.903 24.112-11.243 4.777 10.241-38.112 17.771zm80.88 14.603-32.725-37.645 19.387-16.852c3.592-3.125 6.612-5.21 9.047-6.233 2.434-1.041 4.958-1.234 7.581-.574 2.613.652 4.959 2.183 7.039 4.575 1.821 2.097 2.936 4.279 3.368 6.567.425 2.293.264 4.586-.465 6.882-.481 1.465-1.404 3.146-2.794 5.033 1.788-.74 3.199-1.152 4.243-1.244.688-.06 1.88.057 3.572.357 1.699.308 2.912.607 3.665.922l15.112 6.021-13.147 11.429-16.217-6.106c-2.078-.797-3.624-1.159-4.634-1.066-1.337.146-2.542.688-3.603 1.609l-1.026.891 13.281 15.277zm-7.785-32.55-6.65-7.65 5.109-4.443c2.12-1.843 3.85-2.776 5.192-2.79 1.334-.02 2.529.571 3.587 1.79.716.824 1.102 1.767 1.17 2.816.058 1.058-.231 2-.864 2.829-1.228 1.667-2.11 2.723-2.636 3.182zm51.689-43.025-9.071-5.027 11.542-20.823 18.6 10.309c.504 5.485.41 10.04-.316 13.647-.715 3.615-2.244 7.522-4.573 11.726-2.872 5.18-6.093 8.905-9.667 11.188-3.571 2.294-7.603 3.367-12.087 3.215-4.49-.138-8.994-1.452-13.515-3.957-4.764-2.641-8.362-5.923-10.798-9.838-2.423-3.917-3.501-8.272-3.228-13.074.225-3.739 1.734-8.11 4.501-13.107 2.668-4.815 5.105-8.177 7.306-10.089 2.199-1.905 4.648-3.136 7.365-3.702 2.7-.56 5.684-.459 8.947.313l-4.892 14.287c-1.944-.375-3.708-.159-5.292.637-1.577.786-2.921 2.179-4.018 4.16-1.64 2.955-1.918 5.88-.841 8.776 1.087 2.901 3.837 5.578 8.286 8.043 4.725 2.619 8.592 3.595 11.598 2.938 3.003-.647 5.39-2.563 7.152-5.742.833-1.504 1.411-3.069 1.729-4.673.323-1.612.454-3.599.383-5.935l-4.114-2.28z"/></g></svg>