<svg clip-rule="evenodd" fill-rule="evenodd" stroke-linejoin="round" stroke-miterlimit="2" viewBox="0 0 560 400" xmlns="http://www.w3.org/2000/svg"><g fill="#65b32e" fill-rule="nonzero"><path d="m130 199.673c2.586-93.104 66.81-131.035 109.052-144.397 19.396-6.034 36.207-6.465 36.207-3.879 0 1.724-14.656.431-34.914 7.758-35.776 12.931-86.207 44.828-89.224 126.725 0 75.431 61.207 136.206 136.638 136.206s136.207-61.206 136.207-136.206c0-15.949-2.587-28.88-6.466-39.656-6.466-19.396-14.655-28.448-11.207-28.448 2.586 0 9.914 15.086 15.086 29.31 6.035 16.38 8.621 31.466 8.621 53.018 0 82.758-67.241 150-150 150-82.759-.431-150-67.242-150-150.431z"/><path d="m264.914 152.69c0-26.724 43.965-24.138 43.965-24.138v94.828c0 6.465 4.311 10.775 11.638 10.775 12.069 0 11.207-10.775 11.207-10.775 0 6.465 0-68.966 0-97.845 0-23.707 43.535-23.707 43.535-23.707v134.483c-3.88 23.706-24.569 42.241-48.707 42.241-15.949 0-30.173-7.759-39.224-20.259-9.483 12.5-23.707 20.259-39.656 20.259-24.569 0-44.827-18.103-48.706-42.241l-.432-7.759v-102.586c0-23.707 43.535-23.707 43.535-23.707v121.983c0 6.896 4.741 10.775 11.207 10.775 6.465 0 12.069-3.879 12.069-10.775-.431-.862-.431-49.138-.431-71.552z"/></g></svg>