<svg clip-rule="evenodd" fill-rule="evenodd" stroke-linejoin="round" stroke-miterlimit="2" viewBox="0 0 560 400" xmlns="http://www.w3.org/2000/svg"><g transform="matrix(.47625 0 0 .47625 138.25 -.474949)"><path d="m34.385 137.48h526.505v179.832c0 43.397-.987 85.425-12.968 127.373-2.934 10.274-6.359 20.391-10.051 30.418-11.867 32.231-28.138 62.036-47.639 88.213-47.535 63.81-112.37 108.891-191.136 141.093-95.361-33.201-184.995-104.746-230.803-203.222-5.05-10.856-10.023-24.467-14.1-35.728-17.876-49.377-19.808-101.722-19.808-153.75z" fill="#296aad"/><path d="m56.984 158.724h482.889v158.588c0 73.354-6.99 107.285-22.71 149.983-44.464 120.767-152.209 186.613-218.76 213.692-91.703-37.798-171.725-105.869-209.925-192.647-20.722-47.075-31.494-77.884-31.494-176.631z" fill="#fff"/><path d="m81.166 182.905v128.804c0 45.905 1.226 92.97 17.013 136.577 3.718 10.268 8.033 20.32 12.431 30.311 35.335 80.271 108.484 141.232 187.845 176.131 86.134-37.528 163.14-106.495 196.015-195.788 3.29-8.934 6.355-17.948 8.97-27.105 10.705-37.473 12.252-75.766 12.252-114.523v-134.407z" fill="#3569ac"/><path d="m301.225 359.554 176.427-176.649h36.045z" fill="#2457a0"/><path d="m301.96 360.595 213.732-143.333v27.041z" fill="#2457a0"/><path d="m302.484 361.774 213.208-88.336v22.3z" fill="#2457a0"/><path d="m302.763 363.016 212.925-42.647c-.015 6.742-.083 13.469-.244 20.181z" fill="#2457a0"/><path d="m302.796 364.286 211.658-.604c-.418 6.505-.969 12.994-1.689 19.463z" fill="#2457a0"/><path d="m302.58 365.549 206.841 40.54c-1.166 6.372-2.544 12.724-4.168 19.053z" fill="#2457a0"/><path d="m302.118 366.753 196.321 81.003c-1.274 3.745-2.602 7.471-3.969 11.184-.912 2.477-1.863 4.936-2.842 7.381z" fill="#2457a0"/><path d="m301.437 367.833 180.498 120.077c-3.031 6.074-6.272 12.034-9.705 17.882z" fill="#2457a0"/><path d="m300.553 368.764 158.313 157.847c-4.048 5.793-8.286 11.458-12.707 16.986z" fill="#2457a0"/><path d="m299.518 369.496 130.115 193.257c-5.087 5.48-10.352 10.804-15.78 15.966z" fill="#2457a0"/><path d="m298.344 370.02 94.77 227.013c-6.236 5.112-12.639 10.025-19.18 14.742z" fill="#2457a0"/><path d="m297.084 370.305 51.64 258.24c-7.556 4.626-15.253 8.999-23.061 13.111z" fill="#2457a0"/><path d="m294.544 370.12-50.545 255.807c-7.117-4.455-14.109-9.133-20.95-14.027z" fill="#2457a0"/><path d="m293.354 369.663-92.607 225.058c-5.939-4.928-11.722-10.036-17.335-15.313z" fill="#2457a0"/><path d="m292.261 368.972-127.734 191.293c-4.859-5.322-9.539-10.794-14.03-16.407z" fill="#2457a0"/><path d="m291.333 368.089-155.628 155.711c-3.834-5.66-7.473-11.447-10.907-17.356z" fill="#2457a0"/><path d="m290.598 367.045-176.856 118.399c-1.074-2.267-2.12-4.548-3.132-6.847-1.635-3.714-3.259-7.436-4.844-11.175z" fill="#2457a0"/><path d="m290.079 365.878-192.707 80.136c-2.127-6.085-3.978-12.234-5.586-18.437z" fill="#2457a0"/><path d="m289.796 364.622-202.812 40.439c-1.074-6.271-1.951-12.579-2.669-18.913z" fill="#2457a0"/><path d="m289.764 363.348-207.376.279c-.39-6.425-.658-12.862-.842-19.297z" fill="#2457a0"/><path d="m289.982 362.087-208.796-41.203c-.014-3.062-.02-6.121-.02-9.175v-11.313z" fill="#2457a0"/><path d="m290.441 360.892-209.275-86.267v-23.597z" fill="#2457a0"/><path d="m291.123 359.811-209.957-139.701v-29.924z" fill="#2457a0"/><path d="m292.005 358.882-176.627-175.977h29.957z" fill="#2457a0"/><path d="m293.057 358.139-117.299-175.234h22.147z" fill="#2457a0"/><path d="m294.232 357.618-72.391-174.713h18.273z" fill="#2457a0"/><path d="m295.481 357.338-34.746-174.433h16.506z" fill="#2457a0"/><path d="m296.758 357.307-.142-174.402h16.165z" fill="#2457a0"/><path d="m298.019 357.525 34.559-174.62h17.135z" fill="#2457a0"/><path d="m299.223 357.99 72.648-175.085h19.785z" fill="#2457a0"/><path d="m300.298 358.671 117.284-175.766h25.1z" fill="#2457a0"/><path d="m295.81 370.338.524 283.445c-8.466-3.778-16.856-7.852-25.135-12.214z" fill="#2457a0"/><g fill="#fff"><path d="m412.63 394.775c4.857 2.821 6.699-1.684 9.818-2.581 1.355-.389 3.63-.547 3.13 1.585-.371 1.584-1.001 4.399 3.457 4.676l-5.926 5.053c-1.045.89-2.379.485-3.243-.5z"/><path d="m405.145 376.437c1.518-2.911 4.824-3.409 8.67-2.993-1.289-3.701-4.615-5.7-9.418-3.993l4.865-12.1c3.908 5.531 9.169 10.042 16.405 12.911-4.513 4.054-4.469 7.481-2.059 9.543l9.107 7.797c.374-.998.561-1.559 1.122-2.557-1.996-1.705-3.992-3.41-5.988-5.115 3.324 1.644 6.523 3.476 9.846 5.119.544.269 1.087.538 1.756.62-.125.457-.25.914-.374 1.372-2.123-.169-3.807.037-4.928 1.872l2.183 1.87c-5.166.786-6.7 2.845-7.859 5.301-.792-4.683-2.852-6.218-5.066-6.67-1.669-.341-4.828-.228-7.277 4.75.235-6.569.616-10.848-5.036-12.656-.04-.855.481-2.022 3.561-2.129-1.174-.939-4.094-3.375-9.51-2.942z"/><path d="m420.331 364.548c-1.638-3.546-4.666-6.132-8.802-7.009 3.28-4.833 8.315-1.955 10.675 1.315-.52.229-1.04.459-1.561.688.23 1.878.146 3.63-.312 5.006z"/><path d="m425.513 340.206c-4.248 1.812-7.326 4.65-10.238 7.635 7.2 4.901 5.262-1.336 6.555-3.317.728-1.116 1.852-2.378 3.683-4.318z"/><path d="m428.447 358.165c-1.602-1.773-3.992-3.072-4.807-5.318-.581-1.604-.541-4.214 1.061-5.319 1.436 3.379 2.81 7.071 4.245 10.45 2.102 1.481 4.208 2.947 5.057 5.193.906 2.4.666 5.695 0 8.386-1.811-4.235-3.746-9.157-5.556-13.392z"/><path d="m414.923 340.729c-11.554 11.843-13.332 21.729-12.186 33.142-2.198-2.048-3.489-1.184-4.132-.396-.939 1.152-.709 3.808.44 5.289 3.321 4.283 6.895 5.834 10.616 9.878 1.929 2.096 1.823 5.299-2.67 6.076-4.614.798-9.281-.833-12.826-3.084-2.757-1.751-5.396-4.321-8.229-5.576-2.164-.959-5.139.534-7.017-2.032-4.418-6.037-8.155-15.232-8.955-30.187 2.156 8.398 6.525 18.135 10.894 19.386 1.422.407 2.724-.016 3.377-1.491.739-1.672.743-4.15 1.958-5.137 1.317-1.068 2.548-.414 3.436-.021 2.031.9 3.15.443 3.791-2.165 2.042-8.306 7.174-14.778 21.503-23.682z"/><path d="m390.551 365.378c.678-3.078 2.339-6.247 4.523-9.232-2.615 1.077-4.769 2.523-6.554 3.968v-6.091c-3.108-.614-7.077 1.417-9.601 4.43-1.198-3.508.169-7.834 1.479-10.157 1.975-3.503.487-5.715-1.6-5.682-1.799.028-3.494 1.776-4.033 2.546-3.753 5.365-2.855 17.664 6.462 21.603.61.257 1.805.039 1.893-.77.185-1.689 1.032-2.492 2.133-2.902 1.371-.511 3.307.343 5.298 2.287z"/><path d="m385.474 347.56c3.015-.922 5.754-.983 8.77.554 1.449-6.368 5.968-13.292 9.971-14.956 2.417-1.005 3.937 2.126 4.246 6.647 2.764-6.766-.018-12.122-4.154-11.631-5.027.596-12.679 10.342-18.833 19.386z"/><path d="m370.87 381.142c-.058-3.777-.709-6.889-1.643-9.54-2.925-8.296-8.633-12.086-7.676-17.631.621-3.596 3.087-7.42 13.473-12.213-8.779-.509-22.807.766-30.294 6.232 8.432.802 10.832 4.512 11.812 8.641.865 3.643.586 7.593 2.913 10.434 3.862 4.714 7.552 2.633 11.415 14.077z"/><path d="m371.043 390.575c-.643-6.002-3.052-9.384-5.534-11.504-4.426-3.778-10.19-3.547-13.596-7.007-4.352-4.422-6.158-11.448-9.828-16.144-1.792-2.293-4.634-4.552-7.569-4.466 7.041 5.449 3.633 15.471 9.002 21.377 7.365 8.102 21.841 4.225 27.525 17.744z"/><path d="m321.134 365.422c1.581 4.254 7.946 5.634 9.536 9.722 1.937 4.974-4.316 7.479-.326 12.849 6.311 8.494 11.501 13.707 17.252 20.626-3.546 1.081-6.962 2.94-8.431 4.021 4.291 1.081 7.383 6.702 5.707 13.88 2.51-2.938 3.532-5.893 2.724-11.675 4.584 2.638 9.238-4.024 5.578-9.988-3.954-6.446-7.753-10.434-13.038-14.97-2.181-1.872-2.184-4.164-.579-6.2 1.238-1.572 2.522-3.767-.251-7.021-1.871-2.195-4.111-2.547-6.262-4.441-2.15-1.893-3.643-5.695-5.684-7.711-2.816-2.782-6.565-.638-6.226.908z"/><path d="m320.355 367.238c-4.673 3.132-4.33 9.432-2.089 14.223 2.057 4.397 4.697 7.006 5.971 14.713 1.477 8.939.997 16.069 3.547 21.902 1.335 3.055 3.136 5.13 6.451 7.017l2.206-2.724c-11.251-5.344-2.006-18.212-4.176-26.797-1.984-7.85-11.003-12.235-12.723-20.187-.503-2.329-.428-4.817.813-8.147z"/><path d="m342.667 428.855c13.048.953 29.222-13.334 41.608-14.263 6.189-.465 13.486 1.742 19.539 5.152 6.052 3.41 10.342 8.154 13.63 6.928 1.076-.401 1.29-1.528 1.628-2.876 2.248.994 4.583 2.983 6.227 5.578l4.799-6.356c-9.142-6.235-20.893-14.7-43.975-16.994-.216-4.973-2.983-9.426-7.005-13.361 6.832.173 13.794 8.648 20.496 4.8 12.947 6.862 26.487 12.207 40.473 15.955.039 5.452 1.856 8.218 4.929 10.637-.822 3.498-3.027 6.102-6.616 6.486-1.383 4.627-5.751 6.14-8.95 3.243-11.615 5.348-21.07-5.196-31.687-11.161-3.84-2.157-7.68-3.022-11.51-3.238-14.42-.81-28.452 13.037-43.586 9.47z"/><path d="m355.639 416.532c2.486 1.664 3.421 1.574 4.865.583 1.102-.756 2.032-3.762-.584-9.404 6.226-2.206 23.22 1.686 33.078 4.151-5.511-.566-10.753-.891-14.053-.417-4.104.589-5.267 1.697-6.471 2.606-2.966 2.243-5.059 2.193-7.106.016-1.686 5.881-6.227 9.556-12.583 10.377z"/><path d="m351.747 391.885c6.508 3.751 11.118 4.633 15.388 4.472 2.562-.097 5.734-1.39 8.221-.321 1.662.714 2.078 1.979 2.101 2.934.038 1.592-1.478 2.784-3.527 2.514-1.911-.251-2.966-1.995-4.706-2.682-2.501-.987-5.018 1.634-9.017.9-2.017-.37-5.472-2.289-8.46-7.817z"/><path d="m367.703 431.19c3.201.109 6.961-6.521 11.338-7.688 1.973-.526 3.853.954 5.542.768 1.8-.198 3.289-2.133 5.661-2.343 3.774-.334 8.818 2.787 17.413 10.43-9.513.173-17.56 6.735-24.647 6.746-5.744.009-11.502-3.46-15.307-7.913z"/><path d="m425.947 405.765c6.071 8.183 12.511 2.238 16.397 6.259 1.353 1.399 1.734 4.388 2.26 7.685s1.199 6.903 2.098 9.016c3.136-4.8 1.968-8.778-.778-12.194 7.869.562 8.817 2.986 8.691 8.043-.069 2.761 1.304 4.008 2.602 4.354 2.164.576 4.943-.829 5.57-3.057.683-2.421.399-6.118-1.017-9.792-1.811-4.699-4.222-7.825-6.869-8.231-3.449-.528-4.603 1.689-7.178 1.508-2.073-.145-1.65-2.937-7.083-3.738-4.346-.64-9.746 2.133-14.693.147z"/><path d="m326.207 425.068c-1.904-2.597-3.462-5.281-4.674-8.57-10.358-11.809-14.389-23.509-13.893-41.545-3.268 3.048-7.853 6.07-11.646 8.541-3.424 2.232-6.342 4.337-8.091 6.822-1.62 2.303-1.831 4.802-1.952 7.515-.399 8.897 1.809 17.765 5.116 26.17 3.764 9.567 9.145 15.229 12.028 24.868l-.9.222c-1.99-4.756-8.519-13.015-12.972-18.031 2.607 6.03 4.182 11.585 3.121 17.986-.382 2.304-.37 2.331-2.534 2.964-.871.255-1.785.486-2.716.707-1.473-12.981-10.307-24.347-10.474-37.442-.078-6.08.807-9.88 2.561-12.919 1.81-3.136 4.869-5.464 3.556-8.655-.714-1.732-2.676-2.249-4.79-1.973-2.718.355-5.856 1.851-8.701 1.973 3.286 1.297 6.313 1.556 9.599 1.427-4.006 3.137-5.502 4.589-6.581 9.265-.998 4.32.187 11.85.314 17.409.118 5.125-2.081 9.327-1.41 13.783.305 2.025 1.306 4.413 3.207 6.42 3.225 3.407 8.733 7.015 11.644 10.963-1.814.418-3.66.821-5.358 1.312-3.546-4.151-7.264-8.389-12.194-13.231 1.461 4.972 3.04 10.334 4.151 15.306-1.729.606-3.589.822-5.318 1.427-2.579-5.956-5.741-12.693-5.92-20.073-.274-11.341 3.809-19.233 6.114-27.812 1.276-4.745 1.158-9.998-.583-13.213-2.953 12.019-7.934 24.752-10.546 32.975-2.026 6.378-3.719 10.995-.587 17.286 1.92 3.857 4.66 7.696 5.166 13.302-7.265 2.334-12.065 7.826-13.88 13.361 3.29-3.82 10.185-7.739 17.641-8.978 8.189-1.362 16.751-.104 28.035-3.013 17.147-4.421 35.902-17.378 48.5-26.665-4.649.151-6.032-1.276-7.783-3.243l-4.281.648-.13 5.838-.908-1.427c-1.896.323-4.84.3-6.547-.584-4.361-2.26-5.15-7.403-11.354-5.254 2.638 4.497 6.27 8.043 10.637 11.156l-1.297 2.724-15.009 3.697c.36-2.826.464-5.74-.739-9.265-2.938-8.602-8.701-13.332-11.161-21.558-2.17-7.258-1.511-17.208 2.249-24.555 1.948 6.461 4.934 13.536 8.828 18.306-2.229-6.205-3.911-11.907-3.464-16.661.418-4.466 2.534-8.456 5.412-11.642.099 9.093.989 20.109 4.41 26.592 3.758 7.121 9.086 10.452 16.104 15.344z"/><path d="m253.63 401.438c3.45 4.476 3.046 9.047 2.374 12.47-1.476 7.53-8.382 14.587-9.285 22.804-.586 5.334 3.502 9.751 4.315 16.14-10.501.975-9.914-11.834-7.547-18.647 1.127-3.245 2.637-6.175 4.23-10.051 2.949-7.171 6.185-15.648 5.913-22.716z"/><path d="m248.101 405.116c1.155 12.137-13.59 22.171-15.301 33.15-1.323 8.492 7.909 14.46 2.689 24.302-1.116 2.105-2.808 3.859-4.51 5.552-4.348 4.327-10.064 8.259-17.253 16.644h-4.67c3.74-5.794 10.745-13.794 19.198-20.885-7.15-10.773-4.602-22.979 3.135-36.486 2.942-5.135 6.141-10.824 9.915-15.872 1.754-2.345 4.022-3.864 6.797-6.405z"/><path d="m232.794 413.029c-16.627 21.938-17.414 30.689-16.599 38.923.3 3.031 2.083 7.265 1.471 9.97-1.437 6.346-6.519 9.642-3.551 17.524-3.914-2.494-4.786-5.508-4.453-8.748.307-3.001.734-4.951 1.143-6.39 1.128-3.966 1.233-6.268.749-10.286-.49-4.064-.957-8.557-.293-12.065 1.728-9.134 9.297-20.323 21.533-28.928z"/><path d="m217.358 484.764c9.151-4.94 15.063-10.366 20.755-18.031l.13 2.335c4.427-2.183 8.027-5.468 9.34-11.805 2.162 2.379 5.102 3.244 8.302 2.854-8.643 5.371-14.159 11.445-11.545 20.496-3.049-2.022-7.502-1.092-14.01 4.151z"/><path d="m204.645 451.296c-.927 8.31-1.698 11.95-.546 19.666 1.23 8.242 2.992 9.183 4.049 13.802h-4.607c-.979-7.996-4.658-12.966-4.565-16.466.155-5.801 3.35-10.383 5.669-17.002z"/><path d="m197.41 484.764h-3.855c-1.099-2.375-2.617-3.075-3.584-4.766-.58-1.014-.389-1.799-1.411-2.951-.856 2.925-2.148 5.639-3.373 7.717h-1.102c1.3-4.565 2.261-8.601 2.609-12.709 1.879-22.182 4.467-32.886 20.935-47.87-2.912-17.21-13.095-26.86-22.472-32.198-9.816-5.588-25.835-6.445-35.441-1.744-1.221.597-2.164.21-2.287-.233-1.556-5.63 10.307-8.736 18.57-9.072 9.073-.368 18.149 3.01 25.986 7.917 9.762 6.112 17.748 14.598 23.08 21.169 1.808 2.228 1.999 4.921 1.255 7.156 2.811-2.032 5.751-3.935 8.562-5.967-6.919 7.503-12.022 13.989-12.713 19.069-6.701 3.873-12.337 8.465-15.696 14.22-2.225 3.811-3.342 8.096-3.502 13.151 3.757-5.216 1.321-6.204 2.776-8.947 1.549-2.92 5.433-3.239 6.434-8.047.231 2.732-.124 5.968-4.087 7.459 1.595 1.083 2.317 2.591 2.294 3.997-.055 3.328-4.699 7.105-7.349 11.537-2.899 4.847-2.506 8.828-1.67 12.836.287 1.374.597 2.099 1.439 2.766 1.607 1.274 4.095 2.815 4.602 5.51z"/><path d="m206.277 279.917 2.843-13.384h-30.202l2.843-13.265h-18.595l-12.436 58.509h18.595l6.751-31.86zm17.411-32.571 3.316-15.752h-59.338l-3.316 15.752z"/><path d="m278.902 311.777 3.435-16.226h-36.479c-1.461 0-2.487-.178-3.06-.573-.592-.395-.868-1.026-.849-1.914 0-.296.02-.593.079-.908.04-.297.099-.632.158-.988l8.409-39.084c.218-1.185.514-2.093.889-2.744.375-.671.908-1.125 1.618-1.382.711-.256 1.698-.395 2.942-.375h36.242l3.316-15.989h-45.125c-3.336 0-6.119.493-8.33 1.52-2.211 1.007-3.968 2.546-5.291 4.619-1.322 2.073-2.309 4.678-2.96 7.837l-11.015 52.231c-.237 1.007-.395 1.935-.474 2.783-.079.849-.119 1.659-.119 2.429-.019 1.974.375 3.612 1.126 4.895.769 1.303 1.973 2.27 3.632 2.902 1.658.651 3.829.967 6.494.967z"/><path d="m329.853 311.777 43.349-80.183h-17.885l-30.438 58.509-4.501-58.509h-18.595l7.817 80.183z"/><path d="m416.69 311.777c3.336 0 6.12-.494 8.331-1.5 2.21-1.007 3.948-2.527 5.25-4.54 1.303-2.014 2.271-4.541 2.882-7.581l4.027-19.068c.06-.415.119-.829.158-1.224.059-.415.079-.79.079-1.145-.02-1.421-.335-2.566-1.006-3.455-.652-.888-1.56-1.559-2.725-2.013-1.184-.474-2.526-.79-4.086-.928 2.784-.256 5.093-1.184 6.889-2.763 1.797-1.579 3.06-4.027 3.771-7.304l3.198-15.042c.177-.888.315-1.717.434-2.507.098-.789.158-1.52.158-2.23.02-2.961-.888-5.192-2.744-6.672-1.856-1.481-4.797-2.211-8.863-2.211h-51.047l-3.198 15.515h42.993c1.303-.019 2.231.158 2.823.533.572.375.868 1.027.849 1.954 0 .593-.119 1.303-.356 2.132l-2.013 9.712c-.178.908-.454 1.619-.829 2.172-.356.533-.869.908-1.54 1.145-.691.237-1.599.355-2.724.355h-25.109l2.724-12.91h-18.003l-12.554 59.575zm0-20.371c-.256 1.243-.592 2.21-.987 2.881-.414.672-.967 1.126-1.697 1.382-.711.257-1.678.375-2.882.356h-25.346l4.145-19.543h25.346c1.362-.02 2.349.138 2.981.494.631.335.928 1.006.928 1.993 0 .237-.02.533-.079.849-.04.336-.099.691-.158 1.046z"/><path d="m192.56 524.445 15.59-28.837h-6.432l-10.947 21.042-1.618-21.042h-6.688l2.811 28.837z"/><path d="m210.906 524.445 4.558-21.553h-5.964l-4.557 21.553zm5.154-24.109 1.363-6.474h-6.006l-1.363 6.474z"/><path d="m221.371 524.445 6.475-30.583h-5.964l-6.474 30.583z"/><path d="m232.161 524.445 6.474-30.583h-5.963l-6.474 30.583z"/><path d="m257.662 524.445 1.023-4.898h-14.525c-.355.007-.611-.036-.76-.128s-.227-.263-.22-.511c0-.085.007-.178.028-.284.014-.107.036-.227.057-.355l2.002-9.286c.064-.312.149-.554.242-.724.092-.178.234-.298.411-.369.178-.071.433-.107.753-.1h8.561c.334 0 .568.043.703.135.135.1.199.249.192.462 0 .085 0 .17-.007.262 0 .086-.014.185-.035.291l-.639 2.897h-8.69l-.724 3.578h14.355l1.789-8.477c.063-.298.106-.575.134-.837.022-.256.036-.504.036-.738.007-.831-.22-1.449-.696-1.861-.475-.404-1.249-.61-2.328-.61h-14.568c-1.029 0-1.874.149-2.542.447-.667.305-1.192.767-1.576 1.392-.383.617-.674 1.412-.866 2.378l-2.768 13.119c-.064.32-.114.618-.157.895-.035.277-.056.532-.056.766-.007.874.255 1.512.795 1.931.539.419 1.405.625 2.612.625z"/><path d="m268.328 524.445 3.578-16.867h5.324l.98-4.686h-5.325l.682-3.28c.078-.405.22-.689.419-.859.191-.17.483-.255.859-.248h4.472l.98-4.643h-7.412c-.922-.007-1.711.149-2.378.475-.66.327-1.214.852-1.661 1.576-.447.725-.802 1.69-1.072 2.89l-5.41 25.642z"/><path d="m282.571 524.445 3.195-15.206c.099-.462.262-.774.483-.952.227-.17.546-.248.965-.241h8.604l1.108-5.154h-6.262c-.93-.007-1.732.184-2.413.561-.675.383-1.279.972-1.804 1.782l.511-2.343h-5.793l-4.557 21.553z"/><path d="m317.627 524.445 3.663-17.336c.064-.32.114-.618.156-.895.036-.276.057-.532.057-.766.007-.582-.106-1.065-.333-1.441-.228-.377-.59-.654-1.094-.838-.497-.185-1.164-.277-1.98-.277h-17.635l-.98 4.686h14.611c.376 0 .646.063.802.184.149.128.227.305.22.54 0 .063 0 .134-.007.22 0 .078-.014.163-.036.248l-2.257 10.564h-9.967c-.292.007-.505-.036-.625-.114-.128-.085-.185-.227-.185-.44 0-.085.007-.17.028-.263.015-.099.036-.206.057-.333l.469-2.258c.078-.44.199-.731.376-.887.178-.157.461-.227.859-.22h7.838l.766-3.664h-10.947c-.901-.007-1.639.107-2.207.355-.576.242-1.03.661-1.378 1.264-.34.603-.624 1.441-.845 2.513l-1.064 5.111c-.064.299-.114.583-.157.852-.035.27-.056.512-.056.725-.007.83.234 1.448.717 1.859.489.405 1.27.611 2.349.611z"/><path d="m344.692 524.445 3.663-17.336c.064-.298.106-.582.135-.859.021-.27.035-.525.035-.76.007-.93-.263-1.597-.795-2.002-.539-.404-1.384-.603-2.527-.596h-9.669c-.909-.007-1.711.184-2.393.561-.689.383-1.299.972-1.824 1.782l.511-2.343h-5.751l-4.557 21.553h5.963l3.195-15.206c.099-.462.255-.774.461-.952.213-.17.525-.248.944-.241h8.903c.362-.007.632.043.802.149.177.099.263.277.263.533 0 .063-.007.134-.029.22-.014.085-.035.184-.057.291l-3.194 15.206z"/><path d="m368.106 524.445 1.107-5.367h-12.139c-.355 0-.611-.042-.76-.142-.149-.099-.227-.263-.22-.497 0-.085.007-.17.028-.262.015-.086.036-.185.057-.292l1.832-8.604c.064-.312.149-.546.248-.717.1-.163.242-.284.426-.341.178-.064.426-.099.732-.092h12.139l1.108-5.239h-15.207c-1.015 0-1.853.149-2.513.447-.66.305-1.178.767-1.562 1.392-.383.617-.674 1.412-.866 2.378l-2.769 13.119c-.064.32-.113.618-.156.895-.035.277-.057.532-.057.766-.007.874.256 1.512.788 1.931.533.419 1.392.625 2.577.625z"/><path d="m394.872 524.445 3.664-17.336c.064-.298.106-.582.134-.859.022-.27.036-.525.036-.76.007-.93-.263-1.597-.795-2.002-.54-.404-1.384-.603-2.528-.596h-9.456c-.908-.007-1.704.184-2.378.561-.681.383-1.292.972-1.839 1.782l2.428-11.373h-5.963l-6.474 30.583h5.963l3.194-15.206c.1-.462.256-.774.462-.952.213-.17.525-.248.944-.241h8.903c.362-.007.632.043.802.149.177.099.263.277.263.533 0 .063-.007.134-.029.22-.014.085-.035.184-.057.291l-3.194 15.206z"/><path d="m420.331 524.445 1.023-4.898h-14.525c-.355.007-.611-.036-.76-.128s-.227-.263-.22-.511c0-.085.007-.178.028-.284.014-.107.036-.227.057-.355l2.002-9.286c.064-.312.149-.554.242-.724.092-.178.234-.298.411-.369.178-.071.433-.107.753-.1h8.561c.334 0 .568.043.703.135.135.1.199.249.192.462 0 .085 0 .17-.007.262 0 .086-.014.185-.036.291l-.639 2.897h-8.689l-.724 3.578h14.354l1.79-8.477c.063-.298.106-.575.134-.837.022-.256.036-.504.036-.738.007-.831-.22-1.449-.696-1.861-.476-.404-1.249-.61-2.329-.61h-14.567c-1.029 0-1.874.149-2.542.447-.667.305-1.192.767-1.576 1.392-.383.617-.674 1.412-.866 2.378l-2.768 13.119c-.064.32-.114.618-.157.895-.035.277-.056.532-.056.766-.007.874.255 1.512.795 1.931.539.419 1.405.625 2.612.625z"/><path d="m211.019 564.654c1.2 0 2.201-.178 2.996-.54s1.42-.909 1.888-1.633c.469-.724.817-1.633 1.037-2.726l1.448-6.858c.021-.149.043-.298.057-.44.021-.149.028-.284.028-.412-.007-.511-.121-.923-.362-1.242-.234-.319-.561-.561-.98-.724-.426-.171-.908-.284-1.469-.334 1.001-.092 1.831-.426 2.478-.994.645-.568 1.1-1.448 1.356-2.626l1.15-5.41c.063-.319.113-.618.156-.902.035-.283.056-.546.056-.802.007-1.065-.319-1.867-.986-2.399-.668-.533-1.725-.796-3.188-.796h-18.358l-1.15 5.58h15.462c.468-.007.802.057 1.015.192.206.135.312.369.305.703 0 .213-.042.469-.128.767l-.724 3.493c-.064.326-.163.582-.298.78-.128.192-.312.327-.554.412-.248.085-.575.128-.98.128h-9.03l.98-4.643h-6.475l-4.515 21.426zm0-7.327c-.092.447-.213.795-.355 1.037-.149.241-.348.404-.61.497-.256.092-.604.134-1.037.127h-9.115l1.49-7.028h9.116c.49-.007.845.05 1.072.178.227.12.333.362.333.717 0 .085-.007.191-.028.305-.014.121-.035.248-.057.376z"/><path d="m241.334 564.654 1.022-4.899h-14.525c-.355.007-.61-.035-.76-.128-.149-.092-.227-.262-.22-.511 0-.085.007-.177.029-.284.014-.106.035-.227.057-.355l2.002-9.286c.063-.312.149-.553.241-.724.092-.177.234-.298.412-.369.177-.071.433-.106.752-.099h8.562c.334 0 .568.042.703.135.134.099.198.248.191.461 0 .085 0 .171-.007.263 0 .085-.014.184-.035.291l-.639 2.896h-8.69l-.724 3.578h14.355l1.789-8.476c.064-.298.106-.575.135-.838.021-.255.035-.504.035-.738.007-.831-.22-1.448-.696-1.86-.475-.405-1.249-.611-2.328-.611h-14.568c-1.029 0-1.874.149-2.541.448-.668.305-1.193.766-1.576 1.391-.384.618-.675 1.413-.866 2.378l-2.769 13.119c-.064.32-.114.618-.156.895-.036.277-.057.532-.057.767-.007.873.256 1.512.795 1.931.54.419 1.406.624 2.613.624z"/><path d="m268.441 564.654 3.663-17.337c.064-.319.113-.617.156-.894.036-.277.057-.533.057-.767.007-.582-.107-1.065-.334-1.441s-.589-.653-1.093-.838c-.497-.184-1.164-.277-1.981-.277h-17.634l-.98 4.686h14.611c.376 0 .645.064.802.184.149.128.227.306.22.54 0 .064 0 .135-.007.22 0 .078-.015.163-.036.248l-2.257 10.564h-9.968c-.291.007-.504-.035-.624-.113-.128-.086-.185-.228-.185-.441 0-.085.007-.17.028-.262.015-.1.036-.206.057-.334l.469-2.258c.078-.44.198-.731.376-.887.177-.156.461-.227.859-.22h7.837l.767-3.663h-10.947c-.901-.007-1.64.106-2.208.355-.575.241-1.029.66-1.377 1.263-.341.604-.625 1.441-.845 2.514l-1.065 5.111c-.064.298-.113.582-.156.852-.035.27-.056.511-.056.724-.007.83.234 1.448.717 1.86.489.405 1.27.61 2.349.61z"/><path d="m295.207 564.654 4.558-21.554h-5.963l-3.238 15.207c-.099.461-.255.788-.468.972-.213.185-.54.27-.98.263h-8.562c-.362.007-.617-.042-.78-.149-.164-.099-.242-.277-.242-.532 0-.064.007-.149.028-.242.015-.099.036-.206.057-.312l3.238-15.207h-5.964l-3.663 17.337c-.064.298-.114.582-.156.859-.036.269-.057.525-.057.759 0 .93.277 1.598.838 2.002.553.405 1.398.604 2.527.597h9.371c.909.007 1.704-.178 2.378-.547.675-.362 1.271-.951 1.796-1.754l-.468 2.301z"/><path d="m300.234 573.684c1.015 0 1.845-.149 2.498-.447.654-.306 1.179-.767 1.562-1.392.384-.618.675-1.413.881-2.378l5.622-26.367h-5.963l-5.154 24.322c-.078.398-.213.689-.412.859-.199.171-.511.256-.951.249h-4.856l-1.108 5.154zm11.117-33.139 1.363-6.475h-6.006l-1.363 6.475z"/><path d="m328.904 564.654c1.029 0 1.874-.15 2.534-.448.66-.305 1.178-.766 1.562-1.391.39-.618.681-1.413.887-2.378l2.769-13.12c.064-.319.114-.617.156-.894.035-.277.057-.533.057-.767.007-.582-.107-1.065-.334-1.441s-.589-.653-1.093-.838c-.497-.184-1.164-.277-1.981-.277h-14.652c-1.016 0-1.853.149-2.514.448-.66.305-1.178.766-1.562 1.391-.383.618-.674 1.413-.866 2.378l-2.768 13.119c-.064.32-.114.618-.156.895-.036.277-.057.532-.057.767-.007.873.255 1.512.788 1.931.532.419 1.391.624 2.577.624zm-.512-6.432c-.078.419-.234.717-.468.894-.234.178-.603.263-1.108.256h-8.433c-.334 0-.576-.043-.724-.135-.143-.1-.214-.249-.214-.461 0-.086.007-.171.029-.263.014-.086.035-.185.057-.291l1.831-8.775c.078-.462.213-.774.412-.951.199-.171.511-.249.951-.242h8.434c.405-.007.696.043.881.149.184.1.269.277.269.533 0 .064-.007.135-.028.22-.014.085-.036.185-.057.291z"/><path d="m343.117 564.654 6.475-30.584h-5.964l-6.474 30.584z"/><path d="m370.08 564.654 3.663-17.337c.064-.319.114-.617.156-.894.036-.277.057-.533.057-.767.007-.582-.106-1.065-.333-1.441-.228-.376-.59-.653-1.094-.838-.497-.184-1.164-.277-1.98-.277h-17.635l-.979 4.686h14.61c.376 0 .646.064.802.184.149.128.227.306.22.54 0 .064 0 .135-.007.22 0 .078-.014.163-.036.248l-2.257 10.564h-9.967c-.291.007-.505-.035-.625-.113-.128-.086-.185-.228-.185-.441 0-.085.007-.17.029-.262.014-.1.035-.206.056-.334l.469-2.258c.078-.44.199-.731.376-.887.178-.156.461-.227.859-.22h7.838l.766-3.663h-10.947c-.901-.007-1.639.106-2.207.355-.576.241-1.03.66-1.378 1.263-.34.604-.624 1.441-.845 2.514l-1.064 5.111c-.064.298-.114.582-.157.852-.035.27-.056.511-.056.724-.007.83.234 1.448.717 1.86.489.405 1.27.61 2.349.61z"/><path d="m380.375 564.654 4.558-21.554h-5.964l-4.557 21.554zm5.154-24.109 1.363-6.475h-6.006l-1.363 6.475z"/><path d="m402.767 564.654c.987 0 1.803-.135 2.45-.405.645-.27 1.157-.682 1.533-1.236.376-.553.653-1.256.83-2.108l1.278-5.963c.022-.149.043-.298.057-.44.021-.149.029-.284.029-.412.007-.667-.221-1.193-.668-1.583-.454-.384-1.171-.582-2.144-.589h-11.671c-.319 0-.547-.057-.689-.164-.141-.113-.205-.284-.205-.518 0-.064 0-.128.007-.192 0-.063.014-.127.035-.191l.383-1.789c.078-.419.22-.717.433-.895.206-.177.533-.262.973-.255h14.695l1.023-4.814h-17.805c-.987 0-1.803.135-2.449.405s-1.15.682-1.519 1.235c-.369.554-.639 1.257-.803 2.109l-1.192 5.75c-.043.171-.071.334-.093.483-.021.156-.035.305-.035.454-.007.667.22 1.186.667 1.562.448.369 1.15.561 2.102.568h11.543c.312 0 .539.043.667.135.128.085.192.227.185.419 0 .042 0 .092-.007.156 0 .057-.014.121-.035.185l-.469 2.129c-.05.27-.121.476-.206.625s-.213.256-.383.312c-.163.057-.398.085-.689.085h-14.78l-1.023 4.942z"/><path d="m472.509 249.343c9.024 0 16.342 7.318 16.342 16.342s-7.318 16.342-16.342 16.342-16.342-7.319-16.342-16.342c0-9.024 7.318-16.342 16.342-16.342zm.294 15.221-4.163 5.259-5.226-.671-2.417-5.884 3.336-5.184 6.411.499zm-.294-14.317c4.193 0 7.995 1.673 10.777 4.386l-1.959.998-6.44-2.119-3.211-2.575.281-.679c.183-.008.367-.011.552-.011zm15.381 14.11c.037.438.057.88.057 1.328 0 1.197-.136 2.362-.394 3.48l.304-4.77zm-7.467 14.584c-1.717 1.027-3.65 1.731-5.716 2.025l-3.095-2.025 1.595-3.225 7.066-2.075 2.157 1.552zm-15.731.057c-2.85-1.677-5.115-4.244-6.413-7.318l2.285 2.29 4.134 4.879zm-7.497-15.279c.58-4.559 3.149-8.496 6.808-10.917l.378.261-.48 4.441-3.647 5.665zm7.433-11.31c1.955-1.163 4.189-1.907 6.577-2.107l-.191.461-6.017 1.902zm6.328 26.328 1.601-3.238-4.002-5.003-5.234-.673-2.088 3.888 3.983 4.7zm9.725-5.638 2.139 1.539 3.943-3.733.41-6.433-2.992-2.069-3.501 3.848zm-.372-7.447 3.452-3.794-2.681-5.595-5.631-1.852-4.075 3.919 2.055 5.967z"/><path d="m127.419 249.343c-9.024 0-16.342 7.318-16.342 16.342s7.318 16.342 16.342 16.342 16.342-7.319 16.342-16.342c0-9.024-7.318-16.342-16.342-16.342zm-.294 15.221 4.163 5.259 5.226-.671 2.417-5.884-3.337-5.184-6.41.499zm.294-14.317c-4.193 0-7.995 1.673-10.777 4.386l1.959.998 6.44-2.119 3.211-2.575-.281-.679c-.183-.008-.367-.011-.552-.011zm-15.381 14.11c-.037.438-.057.88-.057 1.328 0 1.197.136 2.362.394 3.48l-.304-4.77zm7.467 14.584c1.717 1.027 3.65 1.731 5.715 2.025l3.096-2.025-1.595-3.225-7.066-2.075-2.157 1.552zm15.731.057c2.85-1.677 5.115-4.244 6.413-7.318l-2.285 2.29-4.134 4.879zm7.497-15.279c-.58-4.559-3.149-8.496-6.808-10.917l-.378.261.48 4.441 3.647 5.665zm-7.433-11.31c-1.955-1.163-4.189-1.907-6.577-2.107l.191.461 6.017 1.902zm-6.328 26.328-1.601-3.238 4.002-5.003 5.234-.673 2.088 3.888-3.983 4.7zm-9.725-5.638-2.139 1.539-3.943-3.733-.41-6.433 2.992-2.069 3.501 3.848zm.372-7.447-3.452-3.794 2.681-5.595 5.631-1.852 4.075 3.919-2.055 5.967z"/></g></g></svg>