<svg clip-rule="evenodd" fill-rule="evenodd" stroke-miterlimit="3.864" viewBox="0 0 560 400" xmlns="http://www.w3.org/2000/svg"><g transform="matrix(1.18954 0 0 1.18954 142.382 83.7258)"><path d="m191.834 52.075c.021.011.03.026.03.036.028.013.051.023.069.042z" fill="#9c9a9a" fill-rule="nonzero"/><path d="m224.534 95.844c0 .403-.022.808-.086 1.206l-2.191 13.627.031-.102c-.622 4.363-4.677 7.928-9.395 8.271-4.601.367-9.174.767-13.72 1.192-3.629 5.165-8.82 9.84-16.25 12.591-.72.271-1.478.53-2.229.781-.661 1.543-1.382 3.07-2.15 4.571-.217.441-.449.869-.679 1.302.988.444 2.934 1.734 4.875 5.371 1.016 1.894 1.255 4.642.771 8.396-.364 2.743-1.051 5.439-1.461 7.058-.12.471-.233.909-.271 1.111-.238 1.218-.514 2.199-1.004 3.08-.483.845-1.065 1.381-1.734 2.018-.264.241-.567.523-.909.88-1.119 1.116-3.987 2.581-7.312 3.721-3.023 1.042-7.766 2.285-13.195 2.285-3.209 0-6.283-.438-9.144-1.296-.709-.216-1.387-.451-2.071-.712-.115.063-.226.134-.345.203-4.44 2.403-9.14 4.395-13.973 5.913-4.806 1.496-9.758 2.54-14.739 3.096-4.997.57-10.06.655-15.059.265-5.082-.403-10.107-1.303-14.936-2.659-4.973-1.381-9.807-3.283-14.38-5.607-4.705-2.402-9.206-5.294-13.371-8.623-3.909-3.112-7.535-6.618-10.784-10.41l-2.606.95-3.712-2.921c-3.311 10.519-6.639 21.093-9.963 31.717l-2.422 7.805-7.418-5.401-2.307-1.702-.395-2.345c-5.221-30.598-10.381-63.059-15.366-96.478l-.674-4.603 5.24-2.059 3.281-1.282 4.868 4.194.527 1.27c.455 1.063.904 2.128 1.354 3.193 3.623-8.089 9.9-14.102 16.602-17.265.735-1.718 1.531-3.405 2.385-5.072-.661-.241-1.293-.613-1.941-1.093-1.268-.971-2.56-2.497-3.956-4.639-1.452-2.23-2.415-5.152-2.787-8.451-.355-3.198-.128-6.429.648-9.358.546-2.047 1.34-3.852 2.365-5.379 1.194-1.749 2.646-3.066 4.347-3.937 11.215-5.758 18.667-10.635 28.478-17.64 4.809-3.419 9.472-5.809 14.267-7.308 4.1-1.269 7.416-1.608 10.076-1.896l.13-.015c.539-.045 1.119-.084 1.743-.084 4.188 0 9.538 1.329 11.964 1.995 1.668-.583 3.76-1.038 6.394-1.206 11.469-.71 23.932 9.25 25.339 10.407.418-.125 1.676-.457 2.813-.421.81.019 4.175 3.416 5.587 4.882.027.031.054.068.075.11 0 0 1.065 2.879 1.132 3.077.426.271 2.293 1.51 3.124 1.914.96.454 14.683 6.245 14.82 6.3.133.052.216.177.216.314 0 .097.008 7.648.493 11.801.941.353 1.907.614 2.93.753.323.058.671.074 1.02.074 1.533 0 3.23-.474 4.793-1.334 1.442-.797 2.628-1.854 3.237-2.894 2.44-4.08 2.173-6.747 2.167-9.885-.031-4.62-.282-8.655-.282-8.655s3.529 4.535 4.375 8.917c.206 1.077.28 1.435.28 1.411.121 1.039.223 2.422.223 4.189 0 .351-.017.704-.035 1.057.145-.111.298-.226.467-.353 4.932-3.69 5.868-4.415 9.093-5.798 5.879-2.521 12.117-2.521 12.117-2.521s-4.467 2.187-8.845 4.96c-3.661 2.576-6.584 4.775-12.035 10.416-1.626 1.679-3.012 3.022-4.372 4.105 3.913 1.038 8.182 2.902 12.26 6.201-.009-.021-.021-.033-.04-.041l.091.071c-.011-.013-.032-.021-.051-.03 6.299 4.338 10.235 12.189 12.358 17.719 5.493-.195 11.065-.339 16.625-.449l2.42-.036 2.925 2.792 2.229 2.073s-2.601 16.649-3.056 19.543c.016.276.096.532.096.812m-42.483-64.734c-.029-.262-.404-2.312-.404-2.312.03.134.238.908.404 2.312m43.984 63.929c.063-.455 3.144-20.139 3.144-20.139l-2.833-2.649c.003.013-2.914-2.769-2.914-2.769l-.471-.45-3.064.052s-11.85.316-15.545.416c-2.342-5.789-6.313-13.122-12.486-17.391-3.022-2.434-6.407-4.288-10.058-5.58.701-.659 1.473-1.422 2.38-2.356 5.376-5.56 8.284-7.733 11.771-10.185 4.247-2.68 7.384-4.278 8.663-4.868 1.276-.586 5.988-1.847 5.988-1.847s-4.281-1.124-6.685-1.148c-2.403-.033-6.634.024-12.751 2.649-2.859 1.23-4.073 2.015-7.363 4.45-.039-.792-.096-1.564-.182-2.28l-.005-.06-.03-.133-.258-1.324c-.91-4.698-4.529-9.402-4.682-9.591l-3.149-4.053.315 5.116c0 .036.246 4.056.289 8.572v.775c.032 2.754.065 4.929-1.939 8.287-.474.795-1.476 1.661-2.658 2.324-1.321.734-2.751 1.132-4.021 1.132l-.8-.05c-.581-.086-1.124-.274-1.679-.444-.377-4.179-.388-10.481-.388-10.551 0-.775-.452-1.473-1.175-1.778-.692-.288-13.886-5.848-14.748-6.265-.482-.23-1.53-.89-2.505-1.52-.257-.698-.963-2.588-.963-2.588l-.412-.67c-5.122-5.319-6.028-5.352-6.685-5.36-.887-.028-1.799.118-2.478.285-3.007-2.371-14.748-10.956-25.822-10.26-2.313.146-4.395.549-6.274 1.148-2.867-.772-7.885-1.948-11.979-1.948l-1.911.096-.124.008c-2.754.292-6.143.651-10.374 1.967-4.967 1.54-9.781 4.001-14.719 7.536-9.765 6.949-17.151 11.808-28.283 17.5-1.951 1.002-3.602 2.505-4.932 4.474-1.127 1.673-1.994 3.632-2.599 5.852-.564 2.145-.854 4.451-.854 6.793 0 1.049.062 2.104.176 3.154.397 3.543 1.448 6.697 3.033 9.136 1.487 2.304 2.895 3.946 4.319 5.028.276.208.543.373.819.551-.521 1.063-1.049 2.129-1.521 3.217-6.252 3.096-11.662 8.309-15.252 14.667 0-.011-.701-1.674-.701-1.674l-5.86-5.054-4.177 1.621c-.019.008-6.422 2.521-6.422 2.521l.87 5.855c4.979 33.432 10.152 65.902 15.371 96.519l.505 2.971 2.823 2.063c.008.008 9.208 6.717 9.208 6.717l3.08-9.923s8.077-25.722 9.275-29.519c.941.745 2.594 2.05 2.594 2.05s1.666-.608 2.435-.883c3.145 3.558 6.574 6.858 10.263 9.794 4.256 3.39 8.836 6.341 13.632 8.797 4.676 2.368 9.613 4.299 14.667 5.713 4.938 1.39 10.073 2.293 15.246 2.709 5.109.402 10.266.321 15.36-.259 5.082-.56 10.138-1.634 15.026-3.162 4.851-1.519 9.559-3.513 14.003-5.914.648.225 1.465.513 1.465.513 3.008.91 6.242 1.359 9.602 1.359 5.648 0 10.573-1.28 13.713-2.368 2.816-.967 6.366-2.553 7.91-4.101l.79-.776.076-.071c.706-.647 1.427-1.327 2.032-2.385.606-1.061.915-2.183 1.188-3.551 0-.017.251-1.033.251-1.033.417-1.649 1.107-4.41 1.48-7.234.179-1.302.267-2.51.267-3.601 0-2.351-.401-4.246-1.191-5.75-1.449-2.706-2.927-4.271-4.19-5.2l.006-.011c.646-1.275 1.268-2.625 1.879-4.021.674-.225 1.644-.561 1.644-.561 6.706-2.481 12.267-6.72 16.526-12.571 1.249-.102 13.011-1.12 13.011-1.12 5.404-.4 10.025-4.484 10.79-9.518h.024l2.178-13.603c0-.036.104-1.463.104-1.463l-.08-.756v-.048zm0 0c.063-.455 3.144-20.139 3.144-20.139l-2.833-2.649c.003.013-2.914-2.769-2.914-2.769l-.471-.45-3.064.052s-11.85.316-15.545.416c-2.342-5.789-6.313-13.122-12.486-17.391-3.022-2.434-6.407-4.288-10.058-5.58.701-.659 1.473-1.422 2.38-2.356 5.376-5.56 8.284-7.733 11.771-10.185 4.247-2.68 7.384-4.278 8.663-4.868 1.276-.586 14.52-4.618 14.52-4.618s-12.813 1.648-15.216 1.624c-2.403-.033-6.634.024-12.751 2.649-2.859 1.23-4.073 2.015-7.363 4.45-.039-.792-.096-1.564-.182-2.28l-.005-.06-.03-.133-.258-1.324c-.91-4.698-4.529-9.402-4.682-9.591l-3.149-4.053.315 5.116c0 .036.246 4.056.289 8.572v.775c.032 2.754.065 4.929-1.939 8.287-.474.795-1.476 1.661-2.658 2.324-1.321.734-2.751 1.132-4.021 1.132l-.8-.05c-.581-.086-1.124-.274-1.679-.444-.377-4.179-.388-10.481-.388-10.551 0-.775-.452-1.473-1.175-1.778-.692-.288-13.886-5.848-14.748-6.265-.482-.23-1.53-.89-2.505-1.52-.257-.698-.963-2.588-.963-2.588l-.412-.67c-5.122-5.319-6.028-5.352-6.685-5.36-.887-.028-1.799.118-2.478.285-3.007-2.371-14.748-10.956-25.822-10.26-2.313.146-4.395.549-6.274 1.148-2.867-.772-7.885-1.948-11.979-1.948l-1.911.096-.124.008c-2.754.292-6.143.651-10.374 1.967-4.967 1.54-9.781 4.001-14.719 7.536-9.765 6.949-17.151 11.808-28.283 17.5-1.951 1.002-3.602 2.505-4.932 4.474-1.127 1.673-1.994 3.632-2.599 5.852-.564 2.145-.854 4.451-.854 6.793 0 1.049.062 2.104.176 3.154.397 3.543 1.448 6.697 3.033 9.136 1.487 2.304 2.895 3.946 4.319 5.028.276.208.543.373.819.551-.521 1.063-1.049 2.129-1.521 3.217-6.252 3.096-11.662 8.309-15.252 14.667 0-.011-.701-1.674-.701-1.674l-5.86-5.054-4.178 1.62c-.019.008-6.422 2.521-6.422 2.521l.87 5.855c4.979 33.432 10.152 65.902 15.371 96.519l.505 2.971 2.823 2.063c.008.008 9.208 6.717 9.208 6.717l3.08-9.923s8.077-25.722 9.275-29.519c.941.745 2.594 2.05 2.594 2.05s1.666-.608 2.435-.883c3.145 3.558 6.574 6.858 10.263 9.794 4.256 3.39 8.836 6.341 13.632 8.797 4.676 2.368 9.613 4.299 14.667 5.713 4.938 1.39 10.073 2.293 15.246 2.709 5.109.402 10.266.321 15.36-.259 5.082-.56 10.138-1.634 15.026-3.162 4.851-1.519 9.559-3.513 14.003-5.914.648.225 1.465.513 1.465.513 3.008.91 6.242 1.359 9.602 1.359 5.648 0 10.573-1.28 13.713-2.368 2.816-.967 6.366-2.553 7.91-4.101l.79-.776.076-.071c.706-.647 1.427-1.327 2.032-2.385.606-1.061.915-2.183 1.188-3.551 0-.017.251-1.033.251-1.033.417-1.649 1.107-4.41 1.48-7.234.179-1.302.267-2.51.267-3.601 0-2.351-.401-4.246-1.191-5.75-1.449-2.706-2.927-4.271-4.19-5.2l.006-.011c.646-1.275 1.268-2.625 1.879-4.021.674-.225 1.644-.561 1.644-.561 6.706-2.481 12.267-6.72 16.526-12.571 1.249-.102 13.011-1.12 13.011-1.12 5.404-.4 10.025-4.484 10.79-9.518h.024l2.178-13.603c0-.036.104-1.463.104-1.463l-.08-.756v-.048z" fill="#fff" fill-rule="nonzero"/><path d="m224.534 95.844c0 .403-.022.808-.086 1.206l-2.191 13.627.031-.102c-.622 4.363-4.677 7.928-9.395 8.271-4.601.366-9.174.767-13.72 1.192-3.629 5.165-8.817 9.84-16.25 12.591-.72.271-1.475.53-2.229.781-.661 1.543-1.382 3.07-2.15 4.571-.217.441-.449.869-.679 1.302.988.444 2.934 1.734 4.875 5.371 1.016 1.894 1.255 4.642.771 8.396-.364 2.743-1.051 5.439-1.461 7.058-.12.471-.233.909-.268 1.111-.241 1.218-.517 2.199-1.007 3.08-.483.845-1.065 1.381-1.734 2.018-.264.241-.564.523-.909.88-1.119 1.116-3.987 2.581-7.312 3.721-3.023 1.042-7.766 2.285-13.195 2.285-3.209 0-6.283-.438-9.144-1.296-.709-.216-1.387-.452-2.071-.712-.115.063-.226.134-.345.203-4.44 2.403-9.14 4.395-13.973 5.913-4.806 1.496-9.758 2.54-14.739 3.096-4.994.57-10.06.655-15.059.265-5.082-.403-10.107-1.303-14.936-2.659-4.973-1.381-9.807-3.283-14.38-5.607-4.705-2.402-9.206-5.294-13.371-8.623-3.909-3.112-7.535-6.618-10.784-10.41l-2.606.95-3.712-2.921c-3.311 10.519-6.639 21.093-9.963 31.717l-2.422 7.805-7.418-5.401-2.307-1.702-.395-2.345c-5.221-30.598-10.381-63.059-15.366-96.478l-.674-4.603 5.24-2.059 3.281-1.282 4.868 4.194.527 1.27c.455 1.063.904 2.128 1.354 3.193 3.623-8.089 9.903-14.102 16.602-17.265.735-1.718 1.531-3.405 2.385-5.072-.661-.241-1.293-.613-1.941-1.093-1.268-.971-2.56-2.497-3.956-4.639-1.452-2.23-2.415-5.152-2.787-8.451-.355-3.198-.128-6.429.648-9.358.546-2.047 1.343-3.852 2.365-5.379 1.194-1.749 2.646-3.066 4.347-3.937 11.215-5.758 18.667-10.635 28.478-17.64 4.809-3.419 9.472-5.809 14.267-7.308 4.1-1.269 7.416-1.608 10.076-1.896l.13-.015c.539-.047 1.119-.084 1.743-.084 4.188 0 9.538 1.329 11.964 1.995 1.668-.583 3.76-1.038 6.394-1.206 11.469-.71 23.932 9.25 25.339 10.407.418-.125 1.676-.457 2.813-.421.81.019 4.175 3.416 5.587 4.882.027.031.054.068.075.11 0 0 1.065 2.879 1.132 3.077.426.271 2.293 1.51 3.124 1.912.96.455 14.683 6.246 14.82 6.301.133.052.216.177.216.314 0 .097.008 7.648.493 11.801.941.353 1.907.614 2.93.753.323.058.671.074 1.02.074 1.533 0 3.23-.474 4.793-1.334 1.442-.797 2.628-1.854 3.237-2.894 2.44-4.08 2.173-6.747 2.167-9.885-.031-4.62-.282-8.655-.282-8.655s3.529 4.535 4.378 8.917c.203 1.077.277 1.435.277 1.411.121 1.039.223 2.422.223 4.189 0 .351-.017.704-.035 1.057.145-.111.298-.228.467-.353 4.932-3.69 5.868-4.415 9.093-5.798 5.879-2.521 12.117-2.521 12.117-2.521s-4.467 2.187-8.845 4.96c-3.661 2.576-6.584 4.775-12.035 10.416-1.626 1.679-3.012 3.022-4.372 4.105 3.913 1.038 8.182 2.902 12.26 6.201-.009-.021-.021-.033-.04-.041l.091.071c-.011-.013-.032-.021-.051-.03 6.299 4.338 10.235 12.189 12.358 17.719 5.493-.195 11.065-.339 16.625-.449l2.42-.036 2.925 2.792 2.229 2.073s-2.601 16.649-3.056 19.543c.016.277.096.533.096.813zm-42.483-64.734c-.029-.262-.404-2.312-.404-2.312.03.134.238.908.404 2.312zm43.984 63.929c.063-.455 3.144-20.139 3.144-20.139l-2.833-2.649c.003.013-2.914-2.769-2.914-2.769l-.471-.45-3.064.052s-11.85.316-15.545.416c-2.342-5.789-6.313-13.122-12.486-17.391-3.022-2.434-6.407-4.288-10.058-5.58.701-.659 1.473-1.422 2.38-2.356 5.376-5.56 8.284-7.733 11.771-10.185 4.247-2.68 7.384-4.278 8.663-4.868 1.276-.586 5.988-1.847 5.988-1.847s-4.281-1.124-6.685-1.148c-2.403-.033-6.634.024-12.751 2.649-2.859 1.23-4.073 2.015-7.363 4.45-.039-.792-.096-1.564-.182-2.28l-.005-.06-.03-.133-.258-1.324c-.91-4.698-4.529-9.402-4.682-9.591l-3.149-4.053.315 5.116c0 .036.246 4.056.289 8.572v.775c.032 2.754.065 4.929-1.939 8.287-.474.795-1.476 1.661-2.655 2.324-1.324.734-2.754 1.132-4.024 1.132l-.8-.05c-.581-.086-1.124-.274-1.679-.444-.377-4.179-.388-10.482-.388-10.551 0-.775-.452-1.473-1.175-1.778-.692-.288-13.886-5.848-14.748-6.265-.479-.23-1.53-.89-2.505-1.52-.257-.698-.963-2.588-.963-2.588l-.412-.67c-5.122-5.319-6.028-5.352-6.685-5.36-.884-.028-1.799.118-2.478.285-3.007-2.371-14.748-10.956-25.822-10.26-2.313.146-4.395.549-6.274 1.148-2.867-.772-7.885-1.948-11.979-1.948l-1.911.096-.124.008c-2.754.292-6.143.651-10.374 1.967-4.967 1.54-9.781 4.001-14.719 7.536-9.765 6.949-17.151 11.808-28.283 17.5-1.951 1.002-3.602 2.505-4.932 4.474-1.127 1.673-1.994 3.632-2.599 5.852-.564 2.145-.854 4.451-.854 6.793 0 1.049.062 2.104.176 3.154.397 3.543 1.448 6.697 3.033 9.136 1.487 2.304 2.895 3.946 4.319 5.028.276.208.546.373.819.551-.521 1.063-1.049 2.129-1.521 3.217-6.252 3.096-11.662 8.309-15.252 14.667 0-.011-.701-1.674-.701-1.674l-5.86-5.054-4.177 1.621c-.019.008-6.422 2.521-6.422 2.521l.87 5.855c4.979 33.432 10.152 65.902 15.371 96.519l.505 2.971 2.823 2.063c.008.008 9.208 6.717 9.208 6.717l3.08-9.923s8.077-25.722 9.275-29.519c.941.745 2.594 2.05 2.594 2.05s1.666-.608 2.435-.883c3.145 3.558 6.574 6.858 10.263 9.794 4.256 3.39 8.836 6.341 13.632 8.797 4.676 2.368 9.613 4.299 14.667 5.713 4.938 1.39 10.073 2.293 15.246 2.709 5.109.402 10.266.321 15.36-.259 5.082-.56 10.141-1.634 15.026-3.162 4.851-1.519 9.559-3.513 14.003-5.914.648.225 1.465.513 1.465.513 3.008.91 6.242 1.359 9.602 1.359 5.648 0 10.573-1.28 13.713-2.368 2.816-.967 6.366-2.553 7.91-4.101l.79-.776.076-.071c.706-.647 1.427-1.327 2.032-2.385.606-1.061.915-2.183 1.188-3.551 0-.017.251-1.033.251-1.033.417-1.649 1.107-4.41 1.48-7.234.179-1.302.267-2.51.267-3.601 0-2.351-.401-4.246-1.191-5.75-1.449-2.706-2.924-4.271-4.19-5.2l.006-.011c.646-1.275 1.268-2.625 1.879-4.021.674-.225 1.644-.562 1.644-.562 6.706-2.479 12.267-6.718 16.526-12.57 1.249-.104 13.011-1.12 13.011-1.12 5.404-.4 10.025-4.484 10.79-9.518h.024l2.178-13.603c0-.036.104-1.463.104-1.463l-.08-.756v-.048zm0 0c.063-.455 3.144-20.139 3.144-20.139l-2.833-2.649c.003.013-2.914-2.769-2.914-2.769l-.471-.45-3.064.052s-11.85.316-15.545.416c-2.342-5.789-6.313-13.122-12.486-17.391-3.022-2.434-6.407-4.288-10.058-5.58.701-.659 1.473-1.422 2.38-2.356 5.376-5.56 8.284-7.733 11.771-10.185 4.247-2.68 7.384-4.278 8.663-4.868 1.276-.586 14.52-4.618 14.52-4.618s-12.813 1.648-15.216 1.624c-2.403-.033-6.634.024-12.751 2.649-2.859 1.23-4.073 2.015-7.363 4.45-.039-.792-.096-1.564-.182-2.28l-.005-.06-.03-.133-.258-1.324c-.91-4.698-4.529-9.402-4.682-9.591l-3.149-4.053.315 5.116c0 .036.246 4.056.289 8.572v.775c.032 2.754.065 4.929-1.939 8.287-.474.795-1.476 1.661-2.655 2.324-1.324.734-2.754 1.132-4.024 1.132l-.8-.05c-.581-.086-1.124-.274-1.679-.444-.377-4.179-.388-10.482-.388-10.551 0-.775-.452-1.473-1.175-1.778-.692-.288-13.886-5.848-14.748-6.265-.479-.23-1.53-.89-2.505-1.52-.257-.698-.963-2.588-.963-2.588l-.412-.67c-5.122-5.319-6.028-5.352-6.685-5.36-.884-.028-1.799.118-2.478.285-3.007-2.371-14.748-10.956-25.822-10.26-2.313.146-4.395.549-6.274 1.148-2.867-.772-7.885-1.948-11.979-1.948l-1.911.096-.124.008c-2.754.292-6.143.651-10.374 1.967-4.967 1.54-9.781 4.001-14.719 7.536-9.765 6.949-17.151 11.808-28.283 17.5-1.951 1.002-3.602 2.505-4.932 4.474-1.127 1.673-1.994 3.632-2.599 5.852-.564 2.145-.854 4.451-.854 6.793 0 1.049.062 2.104.176 3.154.397 3.543 1.448 6.697 3.033 9.136 1.487 2.304 2.895 3.946 4.319 5.028.276.208.546.373.819.551-.521 1.063-1.049 2.129-1.521 3.217-6.252 3.096-11.662 8.309-15.252 14.667 0-.011-.701-1.674-.701-1.674l-5.86-5.054-4.178 1.62c-.019.008-6.422 2.521-6.422 2.521l.87 5.855c4.979 33.432 10.152 65.902 15.371 96.519l.505 2.971 2.823 2.063c.008.008 9.208 6.717 9.208 6.717l3.08-9.923s8.077-25.722 9.275-29.519c.941.745 2.594 2.05 2.594 2.05s1.666-.608 2.435-.883c3.145 3.558 6.574 6.858 10.263 9.794 4.256 3.39 8.836 6.341 13.632 8.797 4.676 2.368 9.613 4.299 14.667 5.713 4.938 1.39 10.073 2.293 15.246 2.709 5.109.402 10.266.321 15.36-.259 5.082-.56 10.141-1.634 15.026-3.162 4.851-1.519 9.559-3.513 14.003-5.914.648.225 1.465.513 1.465.513 3.008.91 6.242 1.359 9.602 1.359 5.648 0 10.573-1.28 13.713-2.368 2.816-.967 6.366-2.553 7.91-4.101l.79-.776.076-.071c.706-.647 1.427-1.327 2.032-2.385.606-1.061.915-2.183 1.188-3.551 0-.017.251-1.033.251-1.033.417-1.649 1.107-4.41 1.48-7.234.179-1.302.267-2.51.267-3.601 0-2.351-.401-4.246-1.191-5.75-1.449-2.706-2.924-4.271-4.19-5.2l.006-.011c.646-1.275 1.268-2.625 1.879-4.021.674-.225 1.644-.562 1.644-.562 6.706-2.479 12.267-6.718 16.526-12.57 1.249-.104 13.011-1.12 13.011-1.12 5.404-.4 10.025-4.484 10.79-9.518h.024l2.178-13.603c0-.036.104-1.463.104-1.463l-.08-.756v-.048z" fill="none" stroke="#fff" stroke-width="3.98"/><g fill-rule="nonzero"><path d="m175.319 43.637c-.996.86-2.832 1.948-5.869 2.374-6.718.937-12.637-3.54-12.987-3.804l-.024-.019-.422 1.096s.007.005.016.013c.223.157 5.017 3.754 10.503 3.522 4.681-.201 7.434-1.974 8.783-3.182" fill="#fff"/><path d="m121.703 34.787c.661-.194 1.17-.62 1.475-1.253.197-.397.306-.854.306-1.336 0-.345-.075-.708-.182-1.061l-1.84-1.296c.515 2.165-.274 4.122-.757 5.025.332.036.674.017.998-.079" fill="#fff"/><path d="m119.817 34.665c-.373-.551-.796-1.354-1.01-2.309.875.273 2.343.676 1.534.285-.812-.397-1.381-1.422-1.622-1.96.088-.69.358-1.421.886-2.128l-.437-.315c-.063.011-.129.025-.189.049-.664.199-1.172.615-1.47 1.245-.398.792-.398 1.801-.021 2.756.45 1.13 1.333 1.993 2.329 2.377" fill="#fff"/><path d="m116.083 161.643c.876-.036 1.843-.064 2.861-.07-.921-.011-1.874.018-2.861.07" fill="#fff"/><path d="m89 82.671c0-.005.003-.033.003-.057.035-.194.113-.699.113-.699.016-.052.016-.112.016-.156 0-.132-.035-.23-.094-.288-.074-.068-.211-.063-.313-.039l-5.576 1.326c-.379.102-.656.441-.724.878l-.7 4.652c-.033.206-.02.363.061.434.084.076.212.053.306.034l5.601-1.341c.372-.074.651-.421.721-.863 0 0 .396-2.617.404-2.647-.418.09-3.698.869-3.897.913-.017.164-.145.978-.18 1.211.051-.011 2.099-.502 2.099-.502l-.117.814-3.098.74.491-3.253c0-.001 4.664-1.102 4.884-1.157" fill="#fff"/><path d="m70.513 91.686c.031-.206.85-5.522.906-5.952-.363.102-1.613.43-1.782.479-.031.193-.837 5.5-.903 5.938.085-.013 1.594-.416 1.779-.465" fill="#fff"/><path d="m65.987 90.052-2.775.753.25-1.632 2.775-.759zm1.731-.076.423-2.813c.009-.047.009-.1.009-.144 0-.128-.024-.229-.086-.276-.077-.068-.205-.061-.311-.03 0 0-5.673 1.556-5.888 1.614-.029.2-.835 5.549-.896 5.944.089-.024 1.605-.442 1.793-.49.03-.203.439-2.891.439-2.891l.517.487s1.601 1.546 1.716 1.667c.163-.036 1.758-.469 2.13-.562-.266-.246-1.542-1.383-1.542-1.383l.969-.262c.372-.103.658-.442.727-.861" fill="#fff"/><path d="m83.877 126.748v-.032l1.53-9.696.772-.203c5.257-1.381 10.571-2.723 15.809-3.995 1.563-.37 3.062-1.923 3.28-3.408 0 0 3.16-19.663 3.147-19.649.034-.187.024-.359.013-.515.269.02.507.115.67.258.27.262.374.699.302 1.234.009-.015-3.158 19.647-3.158 19.647-.214 1.493-1.714 3.038-3.281 3.405-5.229 1.27-10.556 2.614-15.814 3.998l-.754.207-1.545 9.695v.03c-.048.488-.072.949-.072 1.382 0 1.473.291 2.647.878 3.496-4.017 1.165-7.99 2.349-11.911 3.552.252-.445.509-.949.732-1.491 3.372-1.024 6.763-2.042 10.202-3.03-.586-.861-.872-2.026-.872-3.5 0-.434.021-.905.072-1.385m14.71-31.242c-.84 5.225-1.676 10.44-2.514 15.655-.165 1.006-1.102 2.037-2.124 2.296-2.34.59-3.5.889-5.841 1.508 1.023-6.487 2.052-12.962 3.077-19.445 2.341-.565 3.516-.842 5.875-1.365.957-.225 1.639.362 1.527 1.351m-9.584-1.153.129-.809 6.683-1.558c.854-.196 1.673-.005 2.256.516.198.187.361.4.483.65-.515-.267-1.132-.326-1.76-.195l-6.69 1.56-.129.813-3.149 19.985-1.172.298zm-10.052 7.258c-1.336 8.535-2.682 17.072-4.03 25.613-.22 1.361-.318 2.039-.541 3.39-1.153 6.679-4.852 8.1-4.852 8.1 6.459-2.036 12.914-3.956 19.385-5.804 0 0-3.46.768-2.863-5.072.57-3.543.852-5.316 1.408-8.872 5.264-1.389 10.517-2.705 15.783-3.991 2.051-.484 3.915-2.416 4.19-4.387 1.05-6.571 2.126-13.118 3.167-19.674.286-1.968-1.101-3.223-3.067-2.821-10.413 2.201-20.796 4.637-31.187 7.317 0 0 3.727-.853 2.607 6.201" fill="#fff"/><path d="m65.824 138.24s-.069-.201-.075-.27c0 .079.075.27.075.27" fill="#fff"/><path d="m115.272 161.67h-.034c.275-.002.549-.021.835-.027-.277.005-.522.016-.801.027" fill="#fff"/><path d="m140.641 168.286c.104-.046.204-.109.313-.15-.338.172-.699.323-1.041.479.254-.103.484-.219.728-.329" fill="#fff"/><path d="m26.117 175.318c-.142-.882-.292-1.778-.437-2.671 12.535-40.066 25.248-80.14 37.932-119.508 1.896-4.543 3.779-9.062 5.658-13.547-14.406 44.569-28.9 90.147-43.153 135.726m-13.64-85.674c5.716 13.521 11.59 27.05 17.505 40.313l.446 1.004-.26.637-1.158-2.617c-5.477-12.269-10.92-24.768-16.219-37.266-.097-.698-.207-1.381-.314-2.071m58.619-57.528c-13.554 32.182-26.774 64.421-39.744 96.729-.098.209-.172.42-.26.622-6.696-14.993-13.226-30.083-19.594-45.261-.057-.14-.118-.27-.171-.416-.351.146-.541.214-.896.35 4.804 32.235 9.891 64.354 15.339 96.363 0 0 47.307-148.746 47.325-148.823-.798.173-1.193.258-1.999.436" fill="#fff"/><path d="m50.322 143.973c.283-.474.524-.999.757-1.597 3.421-1.198 6.829-2.381 10.231-3.533-.593-.834-.897-1.993-.897-3.507 0-.745.069-1.572.211-2.504l4.738-30.381.021-.027c.241-1.129.56-2.089.908-2.92.574-.167 1.145-.331 1.723-.5-.65 1.112-1.249 2.538-1.659 4.388l-.01.043-4.746 30.373c-.141.926-.219 1.76-.219 2.5 0 1.523.308 2.674.906 3.514-3.981 1.337-7.958 2.736-11.964 4.151m13.77-4.126c-.95-.458-1.926-1.838-1.295-5.85 1.581-10.115 3.158-20.229 4.742-30.344.909-4.137 2.775-5.952 3.88-6.686.524-.348.868-.46.868-.46-6.432 1.807-12.847 3.706-19.261 5.713 0 0 .338-.088.784-.024.049 0 .105.024.153.035.053.011.119.021.173.052-.054-.032-.12-.042-.173-.052.088.025.208.063.332.115-.02-.008-.035-.021-.054-.029.019.008.034.021.054.029v.009h.005c.09.03.159.069.241.112.15.094.292.209.42.354.066.08.122.14.183.213.577.817.926 2.363.486 5.263-1.613 10.341-3.237 20.677-4.841 30.993-1.358 6.031-4.698 7.468-4.698 7.468.294-.097.593-.207.894-.312-.214.157 18.114-6.177 17.831-6.202.232-.087.462-.164.703-.241 0 0-.709.186-1.427-.156" fill="#fff"/><path d="m77.024 88.718-3.089.782.495-3.246 3.097-.795zm2.042-4.945-5.626 1.428c-.364.107-.64.436-.7.883l-.709 4.649c-.035.197-.006.361.069.434.082.063.206.048.297.023l5.622-1.432c.372-.089.631-.426.703-.869l.712-4.651c.027-.199 0-.366-.079-.435-.065-.068-.198-.048-.289-.03" fill="#fff"/><path d="m150.484 70.149c-.031.24-.843 5.647-.899 5.965.396-.048 5.345-.668 5.588-.704.022-.191.169-1.14.211-1.449-.398.042-3.808.474-3.808.474s.63-4.139.686-4.519c-.325.041-1.577.203-1.778.233" fill="#fff"/><path d="m96.418 82.967.424-2.812c.012-.047.012-.099.012-.151 0-.125-.031-.222-.089-.287-.083-.074-.222-.066-.311-.042 0 0-5.666 1.278-5.868 1.325-.033.202-.844 5.529-.905 5.954.36-.074 1.603-.365 1.784-.417.017-.13.41-2.638.41-2.638l.045-.329.247-1.625 2.775-.62-.244 1.626-2.713.612.194.264.244.343s1.607 1.644 1.731 1.763c.147-.028 1.72-.376 2.108-.458-.272-.261-1.543-1.464-1.543-1.464l.987-.213c.368-.091.643-.4.712-.831" fill="#fff"/><path d="m133.515 102.155c.938-.162 1.729-.26 2.508-.494.446-.12.842-.285 1.209-.466-.063.398-.17 1.059-.334 2.111-.667-.271-1.473-.342-2.411-.184l-8.729 1.564-.121.853-1.876 11.905c-.117.761-.182 1.454-.185 2.125v.249l.094.23c.016.049.052.107.081.146-.474-.235-.844-.623-1.058-1.127l-.094-.225v-.246c.011-.669.069-1.36.183-2.126l1.875-11.899.126-.866zm-7.005 19.229c.546-.107 1.039-.213 1.527-.311 1.029-.204 2.406-.476 3.542-.701 1.543-.301 3.058-.591 5.01-.968.027-.089.075-.254.135-.46.548-.277 1.065-.602 1.543-.976-.311 1.046-.609 2.102-.712 2.419-3.853.729-6.001 1.14-10.072 1.971-5.02 1.046-9.989 2.16-14.887 3.282.249-.406.496-.86.718-1.363 4.357-.983 8.756-1.964 13.196-2.893m.496-31.756c.116-.716.273-1.401.455-2.047l.038-.128.056-.112c.564-1.028 1.601-1.771 2.7-1.943 11.86-1.824 11.86-1.824 12.24-1.877-.145.923-.396 2.513-.439 2.772-.719-.627-1.934-1.225-3.908-.98-.022.008-6.92 1.061-6.92 1.061-1.109.165-2.13.916-2.682 1.938l-.069.12-.044.126c-.185.648-.338 1.347-.449 2.047 0 0-1.322 8.478-1.831 11.646l-1.158.199zm2.177 1.166c.122-.69.257-1.329.417-1.888.37-.69 1.086-1.224 1.822-1.346 2.745-.438 4.124-.641 6.869-1.044 1.754-.214 2.778.329 3.385 1.111 1.053 1.344.854 3.38.854 3.38.071-.4 1.427-8.851 1.44-8.931-9.685 1.349-19.363 2.88-29.067 4.614v.02s.037-.012.024 0c-.013 0-.013 0-.024.005 0 0 .345-.055.793.068.232.055.477.167.722.337.084.06.166.107.231.183.022.019.05.047.072.057v.003l.004.008c.094.105.198.196.284.321.549.77.929 2.137.637 4.526-1.563 9.794-3.12 19.593-4.683 29.39-1.326 5.253-4.534 6.221-4.534 6.221.849-.201 17.789-4.187 30.093-6.388.062-.228 2.665-9.052 2.534-8.77.1-.388.216-.764.338-1.19-2.074 4.656-4.244 6.568-7.903 7.266-2.89.565-4.335.838-7.219 1.444-.178.036-.338.041-.482.036-.482-.034-.848-.271-1.007-.653.006-.562.057-1.203.172-1.94.625-3.97 1.245-7.936 1.879-11.905 3.144-.593 4.712-.873 7.87-1.415 1.555-.269 2.286.267 2.619.876.346.606.301 1.288.301 1.288 0-.049.051-.331.117-.753.454-2.902.742-4.691 1.186-7.55.086-.518.141-.857.155-.916 0 0-.57 2.536-3.479 3.256-2.845.472-4.453.751-6.981 1.204-.376.068-.769.139-1.194.215.582-3.711 1.168-7.421 1.755-11.14" fill="#fff"/><path d="m115.866 90.334c-.021.082-.048.194-.048.348 0 .364-.025.795-.091 1.297.06-.396.18-1.297.139-1.645" fill="#fff"/><path d="m162.92 70.072c.013-.191.169-1.14.211-1.446-.404.037-5.866.667-6.107.701-.031.235-.84 5.569-.901 5.971.404-.052 5.923-.679 6.161-.712.022-.187.179-1.135.216-1.447-.388.044-4.375.49-4.375.49l.131-.903s3.056-.345 3.291-.373c.032-.167.161-1.041.198-1.313-.368.049-3.284.381-3.284.381l.126-.857c-.001-.001 4.086-.463 4.333-.492" fill="#fff"/><path d="m167.153 74.077c.043-.225.319-2.052.319-2.052l.028-.077s2.816-3.656 3.152-4.097c-.471.046-1.713.169-1.838.175-.066.109-2.021 2.842-2.021 2.842s-1.129-2.318-1.204-2.51c-.217.019-1.924.205-1.945.211.172.312 2.051 3.653 2.051 3.653s-.257 1.734-.307 2.035c.333-.028 1.563-.153 1.765-.18" fill="#fff"/><path d="m110.924 76.637c-.024.216-.489 3.286-.489 3.286s-2.334-2.56-2.462-2.691c-.095.019-1.709.339-1.903.389-.035.216-.844 5.543-.907 5.955.37-.075 1.771-.362 1.788-.362.031-.21.55-3.579.55-3.579s2.302 2.835 2.411 2.987c.175-.034 1.713-.337 1.906-.379.035-.212.845-5.562.907-5.949-.35.063-1.694.33-1.801.343" fill="#fff"/><path d="m115.12 80.218.474-3.08 1.822-.339c.426-.077.715-.036.899.145.175.165.231.431.175.803 0 0-.118.781-.127.831-.111.712-.531 1.134-1.303 1.273zm5.02-1.874.174-1.178c.027-.191.037-.367.037-.54 0-.501-.133-.894-.384-1.14-.325-.301-.844-.406-1.516-.285 0 0-4.207.798-4.421.832-.042.22-.854 5.571-.916 5.961.423-.072 4.307-.803 4.307-.803 1.496-.279 2.484-1.318 2.719-2.847" fill="#fff"/><path d="m120.868 80.564c.43-.076 5.997-1.049 6.22-1.085.024-.173.169-1.115.208-1.444-.405.074-4.414.762-4.414.762l.133-.904s3.104-.55 3.321-.586c.031-.167.166-1.051.209-1.302-.407.065-3.334.578-3.334.578l.136-.863s4.137-.706 4.365-.75c.023-.197.205-1.378.22-1.441-.429.076-5.931 1.03-6.145 1.071-.041.22-.919 5.964-.919 5.964" fill="#fff"/><path d="m101.798 82.223-1.905.41 1.312-2.69zm-4.878 3.096c.481-.099 1.653-.348 1.771-.376.042-.055.479-.932.479-.932l2.983-.635s.173.751.176.792c.257-.055 1.622-.34 1.9-.397-.103-.299-1.681-5.202-1.744-5.407-.247.052-1.874.408-2.016.433-.064.127-3.255 5.979-3.549 6.522" fill="#fff"/><path d="m148.884 74.79c-.401.052-3.812.513-3.812.513s.627-4.179.684-4.521c-.341.05-1.574.225-1.78.247-.029.233-.841 5.577-.907 5.969.407-.052 5.367-.734 5.599-.765.021-.185.178-1.134.216-1.443" fill="#fff"/><path d="m139.534 73.005.572 2.343-1.881.288zm-2.039 3.977 2.971-.45s.145.683.17.808c.094-.002 1.577-.217 1.882-.262-.106-.321-1.656-5.333-1.731-5.588-.238.038-1.862.277-1.992.301-.084.146-3.263 5.857-3.535 6.375.454-.078 1.629-.262 1.754-.271.033-.045.481-.913.481-.913" fill="#fff"/><path d="m133.073 76.769s-.994-3.667-1.06-3.919c-.239.036-1.6.266-1.895.315.108.318 1.649 5.275 1.727 5.533.095-.022 1.688-.266 1.839-.293.069-.14 3.234-5.859 3.526-6.374-.459.068-1.72.269-1.807.279-.078.143-2.33 4.459-2.33 4.459" fill="#fff"/><path d="m115.818 86.835c-.031-.016-.077-.046-.122-.052.015.006.063.027.122.052" fill="#fff"/><path d="m134.583 162.126c-.472-.2-.969-.4-1.494-.589.526.189 1.023.389 1.494.589" fill="#fff"/><path d="m203.364 94.042c.166-.014.351-.026.514-.026.578.118 1.092.392 1.456.821.114.128.211.277.296.428-.468-.247-1.024-.371-1.61-.339-3.683.232-7.424.489-11.116.774-.658.049-1.223-.112-1.536-.439-.172-.188-.241-.398-.279-.602.244.06.536.084.841.06 3.527-.274 7.101-.518 10.619-.737.247.057.526.076.815.06m-3.792-3.798.006-.038c.104-.688 1.521-9.55 1.524-9.562.201-1.167 1.158-2.131 2.35-2.468 3.758-.128 14.79-.408 15.168-.417-.105.649-.254 1.554-.356 2.236-.947-.836-2.184-1.279-3.735-1.271-.022 0-9.308.301-9.308.301-1.536.058-2.891 1.179-3.142 2.587 0 .02-1.535 9.611-1.535 9.611l.004-.039c-.101.528-.019 1.066.226 1.546-.247-.147-.492-.34-.672-.555-.474-.542-.658-1.263-.523-1.969-.001.021-.007.038-.007.038m13.532 17.275s2.173-13.545 2.173-13.531c.024-.134.013-.282-.007-.406.293.091.543.228.725.418.224.259.311.585.265.965 0-.011-2.174 13.529-2.174 13.529-.164 1.118-1.512 2.143-2.951 2.248-7.692.61-15.404 1.324-23.003 2.09.059-.343.111-.726.184-1.085 1.041-.11 2.088-.202 3.124-.315.357.019.73.017 1.123-.022l9.497-.833c.322-.033.635-.099.925-.206 2.384-.208 4.784-.417 7.168-.594 1.441-.114 2.802-1.137 2.951-2.258m-11.359-16.108c.512-3.195 1.014-6.388 1.52-9.585.163-.86 1.068-1.553 2.013-1.595 3.705-.136 5.553-.194 9.251-.298 1.69-.008 2.703.581 3.315 1.326 1.11 1.341.934 3.216.934 3.216.069-.368.132-.705.169-1.028.364-2.289.587-3.728.992-6.3l-.01.008c.031-.155.04-.268.069-.398.009-.073.013-.152.031-.24-7.952.157-15.9.386-23.88.715-2.007.104-3.816 1.581-4.076 3.334-.717 4.495-1.45 8.995-2.178 13.477-.103.698.057 1.307.387 1.793.518.742 1.492 1.172 2.72 1.07 3.698-.287 7.392-.533 11.084-.766.79-.047 1.387.339 1.536.902.044.149.051.319.008.5-.524 3.391-1.058 6.769-1.595 10.161-.157.817-1.065 1.578-2.069 1.669-3.802.309-5.705.474-9.518.838-1.322.12-2.257-.147-2.903-.597-.458-.452-1.116-.63-1.478-2.691-.081-.608-.041-1.053-.041-1.053-.537 3.33-.797 4.994-1.335 8.32.094 0 .18-.008.274-.021 8.097-.833 16.173-1.563 24.255-2.217 2.012-.137 3.831-1.586 4.057-3.263.733-4.516 1.453-9.036 2.173-13.555.066-.484 0-.942-.179-1.342-.423-.964-1.496-1.579-2.923-1.516-3.688.146-7.372.339-11.06.551-.212.014-.395 0-.564-.047-.693-.165-1.116-.716-.979-1.368" fill="#fff"/><path d="m171.606 114.989c-.845.11-1.48-.168-1.729-.78 0-.008-.04-.091-.104-.23.261.068.543.079.851.03 0 0 5.181-.638 7.87-.976-.023-.05-.069-.068-.095-.116l-.061-.086-4.824-10.619-.693-1.526 4.057-.434c1.475-.157 2.857-1.313 3.034-2.542 0 0 2.842-17.65 2.842-17.631.017-.183.014-.356-.014-.513.273.077.518.22.687.397.254.28.363.655.296 1.085 0-.013-2.833 17.634-2.833 17.634-.18 1.238-1.565 2.387-3.038 2.545l-4.048.436.685 1.529 4.824 10.611.063.087c.037.046.063.073.085.118-2.687.343-7.855.981-7.855.981m-2.885-15.01c-2.31.251-3.463.396-5.788.696.926-5.846 1.844-11.686 2.767-17.524 2.337-.233 3.495-.345 5.824-.552.951-.086 1.645.535 1.541 1.438-.753 4.691-1.499 9.381-2.256 14.078-.156.91-1.065 1.739-2.088 1.864m-4.678 2.849-2.751.365-.142.884-1.279 8.126v.038c-.034.368-.057.715-.057 1.05 0 1.315.255 2.419.769 3.27-3.907.593-7.792 1.205-11.659 1.843.251-.369.479-.783.709-1.25 3.303-.534 6.625-1.062 9.972-1.572-.507-.85-.762-1.948-.762-3.269 0-.329.006-.682.047-1.038v-.057l1.282-8.111.139-.89 1.183-.156v.005l2.488-.298c.04.071.2.449.444 1.012zm-.521-20.846.145-.916c2.387-.229 4.774-.447 7.167-.659.69.021 1.333.283 1.789.75.159.17.295.356.389.549-.461-.25-1.01-.371-1.587-.313l-6.767.636-.15.928-2.838 17.987-1.155.146zm16.851 31.215c-1.594-3.494-3.195-6.99-4.779-10.509.962-.102 1.438-.157 2.38-.259 2.036-.21 3.853-1.778 4.112-3.551.94-5.892 1.895-11.764 2.842-17.656.254-1.778-1.134-3.08-3.09-2.946-9.033.692-18.08 1.508-27.136 2.478v.016c-1.51.167-2.254.263-3.772.439 0 0 3.705-.318 2.707 6.053-1.37 8.64-2.724 17.284-4.091 25.925-.988 6.262-4.767 7.131-4.767 7.131 6.417-1.101 12.813-2.112 19.217-3.056 0 0-3.391.291-2.926-4.913.512-3.235.769-4.856 1.277-8.078.742-.096 1.11-.146 1.853-.238 1.5 3.551 3.021 7.097 4.562 10.638.42 1.038 1.505 1.715 3.008 1.519 3.782-.499 5.668-.724 9.447-1.166-.006-.019-.006-.022-.021-.027.718-.078 1.072-.127 1.793-.206-.001.001-1.434.111-2.616-1.594" fill="#fff"/><path d="m116.083 161.643h-.011c-.286.003-.56.022-.835.028-.247.021-.612.058-.838.071-1.047.055-1.94.1-2.671.1-.653 0-1.127-.031-1.551-.122-1.615-.32-2.214-1.361-2.44-1.962-.338-.934-.181-1.984.442-2.857.249-.354.571-.688 1.033-1.072 2.283-1.932 4.87-3.379 7.916-4.414 3.795-1.313 8.362-1.974 13.557-1.974 3.225 0 6.763.255 10.576.76 1.675-4.04 3.193-8.649 4.4-13.876-6.539-.853-13.158-2.543-19.535-5.174-2.567.559-5.152 1.129-7.746 1.699l-24.009 6.048-.037-.101-2.632.742c-2.246.639-4.511 1.291-6.77 1.965-3.54 7.287-6.388 13.62-8.396 18.761l-2.884 6.428c10.479 5.681 22.308 8.819 35.059 8.819.725 0 1.437-.011 2.146-.036.228 0 .457-.011.683-.017.48-.027.974-.036 1.452-.071.283-.011.543-.033.816-.052.439-.036.868-.06 1.301-.096.295-.03.6-.059.897-.091.401-.036.803-.074 1.208-.114.307-.036.608-.086.919-.122.383-.051.778-.095 1.158-.146.311-.05.617-.097.934-.155.377-.055.759-.106 1.133-.174.315-.053.623-.113.941-.176.366-.065.739-.134 1.105-.205.311-.062.623-.129.934-.198.362-.088.73-.153 1.084-.249.319-.06.624-.143.941-.217.357-.094.715-.18 1.061-.271.313-.081.623-.169.937-.257.349-.091.703-.187 1.055-.3.316-.07.621-.183.938-.27.329-.11.677-.201 1.01-.318.31-.104.637-.209.95-.318.329-.104.658-.219.984-.328.323-.115.637-.241.944-.348.323-.121.647-.233.969-.365.316-.118.643-.247.953-.372.311-.124.621-.248.929-.376.323-.132.642-.27.96-.414.302-.123.605-.266.904-.387.316-.142.633-.298.953-.452.342-.156.703-.304 1.041-.476-2.104-1.047-8.387-6.493-22.01-6.566-1.015.003-1.982.031-2.858.068" fill="#a91f26"/><path d="m76.761 145.401c.263-.56.517-1.122.784-1.7-.019.011-.045.011-.069.021l.006-.021s-.648.212-1.77.56c-1.071.338-2.16.667-3.252 1.012l-2.214.693-1.693.562c-1.487.495-2.968 1.005-4.458 1.501-3.394 1.116-6.954 2.299-10.012 3.35 4.338 4.735 9.413 9.16 14.848 12.633z" fill="#a91f26"/><path d="m44.608 62.963c-.663 1.08-1.312 2.165-1.916 3.271 1.906-.359 4.683-.715 8.125-.715.843-2.025 1.676-4.05 2.516-6.081-1.708.743-3.324 1.434-4.77 2.021-1.391.567-2.561 1.027-3.454 1.339-.179.063-.345.111-.501.165" fill="#a91f26"/><path d="m161.66 66.589 1.316-.145c-.046-.052-.088-.11-.134-.16-2.208-2.521-4.281-4.913-6.315-8.008-1.382-2.098-2.028-4.104-2.169-5.855l-8.581 3.407c-.057.027-.114.027-.184.027-1.125-.126-2.442-.444-4.108-.836-3.059-.733-7.264-1.745-14.146-2.556l-3.476-.384c-2.191-.228-4.277-.447-7.421-.913-.046-.01-.097-.021-.131-.046 0 0-6.235-3.776-6.474-3.919-.005 0-.035.012-.051.017-.085.047-.177.095-.263.137-.645.353-1.899.858-3.649 1.542l-.097.039c-7.204 2.855-22.123 8.771-36.269 20.108 5.644 2.128 11.74 5.428 17.991 10.459 3.813-.888 8.475-1.967 8.475-1.967.859-.196 1.697.021 2.28.583.029.021.041.044.063.06l.269-.499.437-.811s6.869-1.452 7.24-1.529c.012-.008 1.368-.276 1.368-.276l2.751-.552 1.702-.331v-.008s.386-.071.987-.18l2.291-.453.72-.125c1.902-3.168 3.878-6.432 5.941-9.794 5.618-9.223 13.886-6.914 15.488-6.354 5.072 1.77 7.456 3.619 10.249 11.092z" fill="#a91f26"/><path d="m75.383 48.375c-1.43 4.403-2.851 8.824-4.281 13.252 8.862-6.607 16.832-10.52 23.271-13.203-.962-.201-1.873-.471-2.697-.86-2.091-.298-4.039-.928-5.749-1.905-1.519-.855-2.776-1.946-3.751-3.201-.33.308-.666.625-1.004.946-1.472 1.389-3.152 2.962-4.847 4.291-.283.217-.593.452-.942.68" fill="#a91f26"/><path d="m172.904 68.519s-.728.938-1.501 1.94c.599.858 1.204 1.729 1.784 2.644.518-.04 1.022-.086 1.531-.13.396-1.449.715-3.042.814-4.519-2.195-4.336-4.789-8.474-7.804-12.334-2.797-2.301-4.935-3.75-6.188-4.193-2.205-.759-2.648-.523-2.651-.515-.104.182-.169.441-.169.797 0 1.14.664 3.204 3.083 6.273l2.734 3.297c1.055 1.252 2.216 2.628 3.429 4.137l2.823-.278 2.577-.223-.383 2.556z" fill="#a91f26"/><path d="m134.867 61.556c-2.537-.405-5.373-.167-9.934 7.473-.627 1.052-1.248 2.097-1.87 3.141l4.232-.756-.007-.006.934-.145 2.319-.411v.022l4.429-.707 2.428-.382 4.93-.739v.005l.557-.068c-1.943-4.577-4.508-6.857-8.018-7.427" fill="#a91f26"/><path d="m50.934 28.359c.969-1.219 2.219-3.022 3.318-4.628-2.673 1.708-5.347 3.315-8.173 4.916-.016.244-.187 1.268-1.218 4.724-.543 1.814-.973 3.905-1.271 5.689 4.968-2.146 10.383-4.687 13.661-6.788-3.033-2.041-6.317-3.913-6.317-3.913" fill="#9c9a9a"/><path d="m70.372 15.542 3.219-4.544c-2.074 1.072-4.288 2.421-6.64 4.092-2.376 1.696-4.611 3.252-6.763 4.72l4.983-.327c.075-.011.128-.019.185-.011l.153-.018s-.027.023-.063.05c.083.047.116.135.083.297-.168.898-.584 3.472-1.161 6.248 3.023-2.664 6.574-5.467 10.009-7.319z" fill="#9c9a9a"/><path d="m32.083 46.22v.138c0-.214 0-.425.015-.648 0 .173-.015.338-.015.51" fill="#9c9a9a"/><path d="m117.97 10.094c7.223 1.951 11.523 6.824 13.214 9.139l.021-.003s0 .019.022.069c.366.501.612.88.719 1.061.979 1.151 3.222 3.08 8.234 5.489 4.143 1.995 7.421 3.483 7.421 3.483s-9.137-3.083-14.762-5.811c-4.45-2.172-4.683-3.625-4.69-3.817-.456-1.101-2.272-4.293-8.73-7.437-8.399-4.095-22.635-.49-22.635-.49s11.563-4.29 21.186-1.683m28.885 29.874c-1.048.447-.909-.662-1.032-1.454-.129-.79-1.188-1.527-.401-1.653.8-.125 2.033.434 2.55 1.344.514.906-1.117 1.763-1.117 1.763m-58.993-20.691c1.923-1.504 4.164-2.704 6.606-3.554.036-.008.049-.033.049-.033s3.441-1.276 6.478-1.143c-.906.183-1.621.29-2.478.501v.003c-.139.042-.262.068-.408.104-.665.191-1.449.444-2.474.847-4.72 2.173-8.37 5.414-10.516 9.124-1.377 2.823-1.875 5.972-1.242 9.12.803 4.081 3.342 7.421 6.854 9.625 1.387.726 3.396 1.499 6.033 1.768-4.475-.902-9.588-3.451-11.542-10.274-3.755-13.121 10.752-18.938 12.904-19.294 0 0-3.964 2.62.712 5.949 2.35 1.677 4.576 2.612 6.289 3.132-.009 0-.017-.022-.035-.025 0 0 5.135 1.187 9.237.541 4.398-.699 4.549-.935 4.862-.71 1.794 1.291 4.646 2.993 6.057 4.034 1.22.899 5.101 2.992 6.251 3.727-.83 1.236-2.452 3.461-6.693 3.584 1.411-2.097 1.186-3.757.188-5.037.192 1.041.064 2.095-.372 2.979-.129.264-.278.501-.461.729-.311.474-.737.967-1.34 1.448-4.269 3.448-13.073-1.375-13.073-1.375s3.852 4.667 11.176 4.728c1.499.002 2.817-.233 3.971-.638 1.606-.277 5.025-1.252 8.105-4.648.373-.408.633-.762.817-1.057l10.139 3.759c.014.798.166 2.458 1.036 3.094.128.096.254.162.359.222-.054.688-.126 1.543-.166 2.612-.094 2.455.088 4.603.254 5.935l7.201-2.047s1.236-3.67 2.119-5.492c.873-1.833 1.9-2.443 1.9-2.443l2.068.279v.041l.008.008c.03.031.94 1.122 2.117 1.932-.22-1.504-.484-3.562-.543-5.118-.021-.434-.029-.818-.029-1.179 0-1.412.096-2.291.165-2.721-1.779-.693-11.936-4.697-14.144-5.999l-3.774-2.351c-.071-.034-.106-.091-.14-.17-.605-1.702-.917-2.575-1.052-3.066-1.194-1.649-3.5-3.248-4.127-3.46-.486-.159-2.215.065-3.203.232-.112.027-.22-.011-.302-.083-.094-.084-10.036-9.338-20.322-9.957-4.51-.277-8.208.359-10.843 1.101-1.59.494-3.581 1.269-5.73 2.475.355-1.244 1.644-2.886 3.046-3.587-2.494-.57-5.674-1.148-8.283-1.148-.503 0-.986.011-1.45.06-2.923.31-6.712.696-11.379 2.383l4.952.836-3.202 7.081c4.249-.316 6.375 1.361 7.37 2.616" fill="#9c9a9a"/><path d="m38.215 41.33c-1.45-1.101-2.923-2.929-3.972-4.419-1.373 2.471-2.079 5.62-2.146 8.773.013-.638.066-1.313.142-1.978.001 0 2.486-.959 5.976-2.376" fill="#9c9a9a"/><path d="m37.631 60.206c.904.83 3.646 2.308 16.552-2.817 3.87-9.312 7.718-18.51 11.519-27.546l1.163-2.798 8.102-1.762 5.464 5.409c.343-1.104.792-2.207 1.356-3.269.444-1.247 1.047-2.466 1.822-3.632 1.141-1.695 2.571-3.21 4.253-4.515-.995-1.255-3.121-2.932-7.368-2.618l-2.3 5.101-3.816-3.03c-3.435 1.852-6.985 4.655-10.009 7.319-.977 4.644-2.382 9.856-3.768 8.689-.919-.776-2.126-1.636-3.349-2.463-3.278 2.102-8.693 4.639-13.661 6.788-.392 2.268-.58 4.028-.58 4.028l-3.124-.85c-.54-.152-1.107-.477-1.672-.91-3.492 1.415-5.976 2.376-5.976 2.376-.075.667-.126 1.341-.145 1.979v.023c-.012.226-.012.434-.012.649-.018 9.16 5.264 13.592 5.549 13.849" fill="#615d5e"/><path d="m79.74 34.903c-.98 3.028-1.962 6.057-2.944 9.098 1.694-1.375 3.094-2.592 4.135-3.557-.412-.866-.738-1.792-.941-2.775-.181-.907-.258-1.825-.25-2.766" fill="#615d5e"/><path d="m176.625 141.687-1.989 3.488s-3.673 9.575-18.92 9.575c-2.502 0-5.295-.253-8.445-.853-6.597-1.25-12.056-1.754-16.584-1.754-10.844 0-16.405 2.926-19.732 5.744-.471.4-.702.67-.702.871 0 .091.063.169.184.23 1.327-.804 8.338-4.7 17.286-4.25 2.359.117 5.291.407 8.481.77l1.638-.981s.553.688.987 1.284c8.727 1.025 18.811 2.344 25.053 2.029l1.737-1.699 1.02 1.398c6.195-1.028 10.009-3.881 12.142-6.123l.577-.868.102.099c.918-1.097 1.4-1.943 1.549-2.218-.092-.962-.282-1.827-.641-2.502-1.999-3.739-3.743-4.24-3.743-4.24" fill="#9c9a9a"/><path d="m149.034 165.422-3.515-4.732 4.667-2.657.881-.697s1.553 1.965 1.933 2.596c.38.617.987 1.375.987 1.375l.333.461c0-.001-3.649 2.434-5.286 3.654m17.603-7.884 3.178 4.356-5.721 5.861-4.223-6.036 4.009-3.88c-6.242.315-16.326-1-25.053-2.028.195.261.368.501.449.649.286.469.74 1.035.74 1.035l.238.344s-2.716 1.822-3.943 2.724l-2.628-3.52 2.521-1.534c-3.196-.364-6.125-.654-8.484-.772-8.948-.449-15.959 3.45-17.286 4.25 0 0 9.783-.158 13.692.271 2.929.334 6.214 1.253 8.962 2.277.522.191 1.022.39 1.494.589 2.991 1.244 8.247 5.504 16.703 8.238 8.467 2.743 22.198-2.609 25.269-4.848 1.615-1.496 2.682-3.44 3.388-5.486l-3.281 3.437-3.527-3.653 5.645-8.396c-2.133 2.242-5.946 5.095-12.142 6.122" fill="#615d5e"/><path d="m181.195 152.235c.053-2.299-.139-3.894-.139-3.894s-.017.026-.05.09c-.148.271-.631 1.121-1.549 2.214z" fill="#615d5e"/><path d="m192.683 120.773 2.318-.228s-4.648 5.248-10.376 8.125c4.359-2.077 7.788-4.965 10.455-8.177z" fill="#615d5e"/><path d="m21.303 88.461c1.123-2.853 2.688-5.745 4.814-8.484-1.944 2.475-3.584 5.322-4.814 8.484" fill="#615d5e"/><path d="m188.179 121.277-3.506.411s-.229.022-.506.06c-2.957 2.639-8.449 7.164-8.449 7.164s-1.008-1.168-1.676-2.188c-.809-1.214-2.332-2.479-3.432-3.293-2.505.362-4.558.674-4.558.674-3.235.474-6.483.958-9.727 1.48l-4.52 5.351-3.839-3.978c-.332.068-.668.12-1.006.172l-2.717.466-.023-.033-3.437.674s-6.314 1.231-9.216 1.789c17.791 6.045 36.896 4.777 50.331-.186.14-.052.272-.118.413-.162-.398.141-.801.26-1.205.389-.652.095 4.439-2.069 7.073-8.79" fill="#615d5e"/><path d="m83.441 80.453c.104-.022.214-.055.337-.08-5.539-4.174-10.919-6.958-15.891-8.764-.009.052-.028.105-.046.16 4.103 1.512 7.63 3.297 10.137 4.817 1.657 1.017 3.528 2.335 5.463 3.867" fill="#615d5e"/><path d="m31.499 87.807-1.454 16.516-5.402-5.892c2.175 5.059 4.359 10.09 6.553 15.104 2.963-7.331 5.925-14.622 8.871-21.843l-4.126-6.056.393-.748c-1.982.644-3.746 1.518-5.326 2.555.378.303.491.364.491.364" fill="#615d5e"/><path d="m82.635 80.636s.298-.068.806-.183c-1.935-1.529-3.806-2.85-5.463-3.867-2.507-1.521-6.034-3.305-10.137-4.817-1.487 4.6-2.965 9.239-4.458 13.888l10.712-2.897v.022l4.438-1.132c.792-.203 1.575-.038 2.174.428.423-.71 1.104-1.239 1.928-1.442" fill="#9c9a9a"/><path d="m25.954 83.873s2.874 1.77 3.781 2.521c.608.513 1.003.836 1.273 1.051 1.58-1.04 3.34-1.911 5.326-2.555l3.987-7.676 3.412 5.522c1.997-4.872 3.99-9.708 5.971-14.531-5.531.021-11.021 1.251-15.763 4.474-3.203 2.17-5.769 4.665-7.824 7.301-2.126 2.737-3.691 5.63-4.814 8.48-.156.381-.298.762-.431 1.14.722 1.709 1.46 3.406 2.184 5.111z" fill="#9c9a9a"/><path d="m153 159.929c-.38-.63-1.933-2.591-1.933-2.591l-.881.695-4.664 2.657 3.512 4.733c1.638-1.22 5.283-3.659 5.283-3.659l-.33-.46c0 .001-.608-.758-.987-1.375" fill="#231f20"/><path d="m136.312 160.565c1.228-.905 3.943-2.725 3.943-2.725l-.235-.345s-.454-.568-.743-1.033c-.081-.15-.254-.39-.449-.649-.435-.598-.987-1.286-.987-1.286l-1.638.981-2.519 1.534z" fill="#231f20"/><path d="m164.094 167.756 5.721-5.861-3.178-4.357-1.019-1.396-1.738 1.698-4.008 3.88z" fill="#231f20"/><path d="m182.731 51.583-5.868 1.109-2.187-3.044c-1.523.662-3.127 1.072-4.896 1.375l.109.107c1.475 1.548 3.233 3.365 5.543 7.802-.186-.381-.355-.768-.563-1.153 0 0 9.086 3.173 12.139 11.585.819 2.24 1.324 4.021 1.638 5.438 1.791-1.979 4.389-3.281 7.267-3.417 1.456-.058 2.935-.116 4.423-.176-.526-1.28-1.132-2.661-1.85-4.083l-1.754 1.573-1.348-1.348c-1.337-1.348-8.25-5.05-8.25-5.05l1.306-7.332c-1.896-1.417-3.809-2.528-5.709-3.386" fill="#9c9a9a"/><path d="m177.663 72.725v.013h.013c.046-.188.085-.402.121-.638-.041.2-.082.423-.134.625" fill="#9c9a9a"/><path d="m190.893 53.348c.019.008.031.019.04.042.016.008.04.016.051.027z" fill="#231f20"/><path d="m145.477 52.587c.461-.172 6.672-2.612 10.458-4.086-.806-.479-1.34-.866-1.544-1.013-.071.273-.125.433-.125.433l-9.115 3.237-.019.027z" fill="#9c9a9a"/><path d="m96.704 32.071c-7.453-2.043-7.704-6.292-6.972-8.379.918-2.609 3.479-4.11 3.479-4.11s-.881 6.804 17.365 8.776c1.923.207 3.155.28 3.934.28-.258.53-.389 1.176-.364 1.877.019.554.145 1.09.339 1.573-1.631.699-7.693 2.751-17.781-.017m48.482 11.047c.04-1.069.112-1.924.17-2.614-.109-.058-.235-.124-.363-.222-.87-.636-1.022-2.296-1.036-3.091l-10.139-3.762c-.185.298-.444.652-.817 1.061-3.08 3.392-6.499 4.37-8.105 4.644-1.153.405-2.472.644-3.971.641-7.324-.063-11.176-4.726-11.176-4.726s8.805 4.819 13.073 1.375c.603-.485 1.029-.976 1.34-1.453-.511.661-1.198 1.123-2.009 1.359-.043.008-.103.021-.152.03-1.507.55-6.135 1.695-10.482-2.706 2.936 1.352 4.441 1.034 5.197.526-.298-.4-.543-.824-.721-1.297-.551-1.393-.519-2.856.062-4.059.271-.564.665-1.04 1.143-1.409-.272-.055-.443-.074-.443-.074s-7.392.246-11.627-2.193c-1.713-.521-3.939-1.452-6.289-3.13-4.676-3.329-.712-5.952-.712-5.952-2.152.359-16.659 6.176-12.904 19.297 1.954 6.825 7.067 9.369 11.542 10.274 2.67.271 5.999.033 9.944-1.318l3.745-1.184c.098-.019.194-.008.271.044 0 0 7.269 4.683 7.396 4.765.129.02 27.139 4.625 27.32 4.656.007 0 .026-.005.034-.014l-.345-1.406.019-.024-.03.011c-18.187-5.502-18.396-5.53-24.565-7.211.046-.01-7.396-1.27-7.396-1.27l7.104-.446 25.093 6.836.084-.025c-.167-1.329-.349-3.478-.255-5.933" fill="#615d5e"/><path d="m114.146 30.515c-.024-.701.106-1.349.364-1.877-.781 0-2.011-.071-3.934-.28-18.246-1.972-17.365-8.777-17.365-8.777s-2.562 1.502-3.479 4.11c-.732 2.088-.481 6.335 6.972 8.38 10.088 2.771 16.15.716 17.781.018-.194-.484-.32-1.02-.339-1.574" fill="#231f20"/><path d="m117.509 29.529c.298-.63.806-1.046 1.473-1.241.058-.028.123-.039.187-.05l.437.312c-.527.708-.798 1.438-.886 2.131.244.538.813 1.563 1.622 1.96.81.39-.659-.011-1.534-.288.214.957.637 1.76 1.01 2.309-.996-.38-1.876-1.247-2.328-2.375-.379-.957-.379-1.966.019-2.758m3.952.313 1.84 1.295c.106.355.182.716.182 1.061 0 .483-.108.941-.306 1.336-.305.635-.813 1.059-1.475 1.253-.32.096-.663.115-.998.08.483-.905 1.272-2.86.757-5.025m-4.706-2.5s.171.019.443.071c-.478.374-.872.847-1.143 1.412-.58 1.2-.612 2.667-.062 4.056.178.477.423.902.721 1.302-.756.507-2.262.825-5.197-.526 4.348 4.401 8.976 3.256 10.482 2.704.05-.008.109-.021.152-.03.811-.238 1.498-.701 2.009-1.358.183-.226.332-.464.461-.727.437-.888.564-1.938.372-2.981.998 1.279 1.224 2.943-.188 5.04 4.241-.124 5.863-2.349 6.693-3.584-1.15-.737-5.031-2.828-6.251-3.727-1.411-1.041-4.263-2.743-6.057-4.037-.313-.226-.464.013-4.862.71-4.103.649-9.237-.541-9.237-.541.019.006.026.025.035.025 4.238 2.435 11.629 2.191 11.629 2.191" fill="#231f20"/><path d="m119.419 12.267c6.455 3.143 8.274 6.335 8.73 7.437.005.193.24 1.645 4.688 3.817 5.628 2.727 14.765 5.813 14.765 5.813s-3.278-1.487-7.421-3.482c-5.013-2.412-7.255-4.338-8.234-5.492-.106-.181-.353-.557-.719-1.061-.022-.05-.022-.066-.022-.066h-.021c-1.69-2.316-5.994-7.188-13.214-9.139-9.623-2.606-21.186 1.682-21.186 1.682s14.235-3.604 22.634.491" fill="#231f20"/><path d="m145.421 36.861c-.787.125.272.863.401 1.653.123.792-.016 1.901 1.032 1.454 0 0 1.631-.857 1.116-1.763-.515-.91-1.749-1.47-2.549-1.344" fill="#231f20"/><path d="m174.871 57.778c.207.387.377.772.563 1.153 2.856 6.182 2.767 10.742 2.363 13.167-.036.236-.072.45-.121.638 1.251-.101 2.503-.206 3.767-.301 1.832-.137 3.611.26 5.119 1.118.596.329 1.28.872 1.916 1.441.055-.065.111-.121.17-.194-.313-1.417-.815-3.198-1.638-5.436-3.053-8.409-12.139-11.586-12.139-11.586" fill="#615d5e"/><path d="m167.491 45.423c-.446 0-.881-.017-1.314-.089-5.668-.824-8.736-4.493-8.893-4.419-.339.406-.607.847-.821 1.292.354.262 6.27 4.741 12.987 3.802 3.037-.424 4.873-1.509 5.869-2.372-1.349 1.211-4.102 2.981-8.784 3.181-5.486.232-10.28-3.365-10.503-3.521-.436 1.35-.492 2.531-.492 2.531s4.725 3.612 10.248 3.612c.479 0 .978-.024 1.48-.084 6.848-.852 8.989-2.187 14.322-7.689 5.689-5.864 12.594-10.399 12.594-10.399s-5.408 2.749-10.261 6.38c-1.011.756-1.663 1.228-2.193 1.625-.683.521-1.186.943-2.019 1.723-.401.36-.866.81-1.466 1.387 0 0 2.023-3.1 2.023-7.059 0-3.987-.567-5.969-.567-5.969s.019.271.019.732c-.009 1.795-.238 6.568-2.449 10.296-.082.125-.163.246-.251.37-.006.013-.016.033-.024.044-1.777 2.545-5.729 4.626-9.505 4.626" fill="#a91f26"/><path d="m181.647 28.796s.375 2.05.404 2.313c-.166-1.405-.374-2.174-.404-2.313" fill="#231f20"/><path d="m72.471 130.319.551-3.397 4.037-25.608c.138-.861.182-1.535.182-2.069 0-.305-.024-.554-.044-.765-.088.022-.245.047-.245.047l-.19-.163-2.666 1.01c-.101.036-2.432.972-3.485 5.685-.027.174-4.72 30.207-4.72 30.207-.136.827-.176 1.485-.176 1.998 0 .276.012.51.034.709.006.066.075.269.075.269l.361-.164 2.609-1.148c.107-.054 2.763-1.282 3.677-6.611" fill="#231f20"/><path d="m91.875 112.002c.87-.225 1.613-.419 1.613-.419.263-.063.64-.464.693-.721 0 0 1.608-10.049 2.117-13.228-1.083.255-1.483.346-2.237.521-.146.938-1.599 10.098-2.186 13.847" fill="#231f20"/><path d="m168.558 86.043c-.262 1.688-1.482 9.38-1.927 12.235.978-.116 1.876-.226 1.876-.226.175-.021.372-.196.396-.24 0 0 1.436-8.941 1.919-11.979-1.03.098-1.389.134-2.264.21" fill="#231f20"/><path d="m149.452 151.533c-.562-.087-1.116-.184-1.678-.282-.509-.099-1.013-.184-1.513-.278 1.857-4.629 3.263-9.441 4.298-14.151 7.295.528 14.381.084 20.85-1.087 1.282-.264 2.598-.599 3.479-.752-.353.692-.726 1.382-1.101 2.07-1.08 3.276-3.966 11.011-7.896 12.993-.689.36-1.397.67-2.116.928-.022.04-.041.071-.065.087-.202.057-.384.102-.577.146-.477.158-.947.313-1.424.44.037-.04.097-.092.14-.152-6.234 1.231-11.932.123-12.397.038m-96.119-92.093c-.84 2.031-1.676 4.053-2.516 6.081-3.442 0-6.219.353-8.125.712.604-1.104 1.253-2.191 1.916-3.269.156-.055.322-.102.501-.165.894-.315 2.063-.776 3.454-1.339 1.445-.587 3.062-1.28 4.77-2.02m23.462-15.438c.982-3.042 1.964-6.071 2.944-9.098-.008.939.069 1.857.249 2.765.203.983.529 1.906.941 2.775-1.04.963-2.442 2.183-4.134 3.558m4.376-.598c.338-.32.674-.638 1.004-.944.975 1.255 2.232 2.346 3.751 3.201 1.71.976 3.658 1.605 5.749 1.901.824.392 1.735.664 2.697.863-6.438 2.68-14.408 6.597-23.27 13.204 1.43-4.429 2.854-8.848 4.28-13.252.349-.228.658-.463.941-.679 1.696-1.334 3.377-2.904 4.848-4.294m-13.607 49.076c-.372.094-1.967.525-2.13.562-.115-.121-1.716-1.666-1.716-1.666l-.517-.488s-.409 2.688-.439 2.891c-.188.05-1.704.466-1.793.49.062-.395.87-5.743.896-5.944.215-.058 5.885-1.614 5.885-1.614.108-.031.236-.039.313.031.062.045.086.146.086.275 0 .044 0 .097-.009.144l-.423 2.813c-.069.42-.355.759-.728.86l-.969.262c.002.001 1.275 1.138 1.544 1.384m3.855-6.746c-.057.43-.875 5.746-.906 5.952-.186.05-1.694.453-1.779.466.066-.438.872-5.745.903-5.938.169-.05 1.419-.379 1.782-.48m8.015-1.493-.712 4.647c-.072.447-.331.784-.703.869l-5.622 1.435c-.091.026-.215.039-.3-.023-.072-.071-.102-.235-.066-.434l.709-4.649c.061-.45.336-.776.7-.883l5.626-1.427c.091-.02.224-.039.289.03.079.067.103.231.079.435m-.901-2.591-4.438 1.132v-.021l-10.712 2.896c1.49-4.647 2.971-9.286 4.458-13.891.018-.052.037-.107.046-.157 4.972 1.807 10.352 4.591 15.891 8.764-.123.024-.232.058-.337.08-.508.112-.806.184-.806.184-.824.2-1.505.729-1.929 1.441-.598-.465-1.381-.629-2.173-.428m8.189 4.692.117-.816s-2.048.491-2.099.504c.035-.235.163-1.046.18-1.211.199-.047 3.479-.823 3.897-.916-.009.03-.404 2.647-.404 2.647-.069.441-.349.79-.718.866l-5.602 1.341c-.096.016-.222.041-.308-.036-.08-.068-.094-.225-.061-.43l.7-4.656c.067-.436.345-.774.724-.874l5.576-1.331c.102-.021.238-.029.313.039.059.058.094.156.094.288 0 .046 0 .104-.016.156 0 0-.078.508-.113.702 0 .022-.003.049-.003.055-.221.055-4.885 1.158-4.885 1.158l-.491 3.25zm9.542-.869c-.389.083-1.964.433-2.108.458-.124-.117-1.731-1.759-1.731-1.759l-.244-.343-.194-.265 2.71-.614.247-1.625-2.775.618-.247 1.629-.047.328s-.394 2.506-.41 2.636c-.182.052-1.424.345-1.787.417.064-.424.875-5.75.908-5.952.202-.05 5.868-1.326 5.868-1.326.089-.025.228-.033.311.042.058.067.089.16.089.285 0 .055 0 .105-.012.152l-.425 2.811c-.068.434-.344.74-.709.831l-.987.216c0 .001 1.271 1.201 1.543 1.461m7.967-1.704c-.278.06-1.644.345-1.9.397-.003-.038-.176-.792-.176-.792l-2.983.64s-.438.876-.479.932c-.121.026-1.29.277-1.771.376.294-.543 3.481-6.4 3.551-6.523.142-.024 1.769-.38 2.016-.432.061.203 1.639 5.103 1.742 5.402m38.838-6.771c.066-.395.878-5.736.907-5.969.206-.022 1.439-.2 1.78-.25-.057.345-.684 4.521-.684 4.521s3.41-.46 3.812-.513c-.038.313-.195 1.261-.217 1.444-.231.032-5.191.712-5.598.767m-15.138-3.469c-.015.06-.196 1.241-.22 1.44-.229.044-4.365.748-4.365.748l-.135.867s2.926-.512 3.333-.582c-.043.252-.178 1.135-.209 1.302-.217.039-3.324.589-3.324.589l-.13.904s4.009-.69 4.414-.764c-.039.333-.184 1.271-.208 1.444-.223.039-5.79 1.012-6.22 1.085 0 0 .878-5.74.919-5.962.214-.041 5.716-.996 6.145-1.071m14.397-4.478v-.005l-4.93.738-2.428.379-4.429.71v-.025l-2.319.413-.934.146.007.006-4.232.756c.622-1.044 1.242-2.087 1.87-3.143 4.561-7.638 7.396-7.879 9.934-7.471 3.511.57 6.072 2.85 8.018 7.426zm-8.644 9.356c-.15.027-1.744.271-1.839.29-.077-.257-1.618-5.215-1.727-5.532.295-.047 1.655-.277 1.895-.316.065.255 1.06 3.922 1.06 3.922s2.252-4.319 2.331-4.458c.087-.014 1.348-.211 1.807-.279-.293.513-3.458 6.233-3.527 6.373m5.109-6.613c.133-.028 1.754-.264 1.992-.305.078.255 1.625 5.268 1.731 5.587-.305.047-1.788.264-1.883.267-.024-.128-.169-.808-.169-.808l-2.971.445s-.447.87-.482.913c-.125.011-1.3.195-1.754.271.274-.517 3.452-6.228 3.536-6.37m-25.678 10.199c.063-.389.874-5.738.919-5.96.211-.036 4.418-.833 4.418-.833.672-.121 1.19-.016 1.517.285.25.25.383.643.383 1.14 0 .172-.01.35-.037.541l-.174 1.177c-.235 1.529-1.223 2.568-2.722 2.848-.001-.001-3.883.731-4.304.802m-1.297.25c-.193.041-1.731.345-1.906.378-.109-.147-2.411-2.984-2.411-2.984s-.519 3.365-.55 3.58c-.017 0-1.418.287-1.788.358.063-.408.872-5.737.907-5.952.194-.049 1.809-.373 1.903-.392.128.131 2.462 2.691 2.462 2.691s.465-3.069.489-3.286c.104-.014 1.45-.276 1.801-.343-.062.387-.872 5.736-.907 5.95m28.647 7.291c-.22-.024-.434-.042-.696-.019l-6.863 1.052c-.075.015-.215.107-.329.228-.103.478-.301 1.382-.301 1.382s-.706 4.517-1.12 7.155c1.904-.329 3.855-.659 4.013-.693 1.605-.405 1.994-1.691 2.042-1.827l.552-2.094 1.191-.172 3.374 3.069-1.804 11.939-2.113.219c-.947-.86-2.072-1.856-2.072-1.856s-.425-.424-.56-.561c-.634.12-4.346.777-6.063 1.083-.372 2.364-1.135 7.195-1.477 9.396 2.111-.419 4.881-.976 4.881-.976 2.659-.51 4.477-1.625 6.462-6.056v-.003l.209-.345 2.596.347 1.938 2.335-2.446 8.799-.305 1.083-.351 1.134-1.152.227s-10.762 2.085-10.736 2.08c-6.354 1.318-12.838 2.746-19.269 4.264l-.939.22-1.939-1.636-1.076-.931.308-1.859 1.405-.512c.094-.03 2.242-.86 3.253-4.82.041-.228 4.636-29.094 4.651-29.209.065-.502.091-.928.091-1.294 0-.152.027-.265.048-.348-.013-.098-.034-.155-.069-.149l-1.773-1.658-1.737-1.587.258-1.759 2.02-.369c9.586-1.713 19.381-3.276 29.137-4.641l.919-.128 2.596 2.436-1.916 12.005-1.771.047-2.305-2.11-.688-.641.082-.944c.003-.057.003-.136.003-.232-.004-.281-.062-.676-.159-1.071m7.297-21.177c-2.793-7.469-5.177-9.319-10.249-11.092-1.6-.559-9.87-2.866-15.488 6.357-2.063 3.362-4.042 6.626-5.941 9.794l-.72.125-2.294.453c-.599.109-.984.177-.984.177v.008l-1.702.334-2.751.552s-1.356.269-1.368.277c-.374.073-7.24 1.529-7.24 1.529l-.439.811-.266.499c-.022-.017-.034-.039-.063-.064-.586-.559-1.421-.775-2.277-.581 0 0-4.664 1.076-8.478 1.968-6.251-5.031-12.348-8.331-17.991-10.464 14.146-11.333 29.062-17.252 36.269-20.105l.097-.038c1.75-.685 3.005-1.189 3.649-1.542.086-.042.178-.091.263-.138.016-.008.046-.016.051-.016.238.142 6.474 3.918 6.474 3.918.034.024.085.035.131.045 3.144.466 5.229.685 7.421.911l3.476.386c6.883.811 11.085 1.822 14.146 2.557 1.666.392 2.983.706 4.108.835.069 0 .127 0 .184-.027l8.581-3.409c.141 1.753.787 3.759 2.169 5.859 2.034 3.094 4.107 5.486 6.315 8.004.046.052.088.11.134.162l-1.316.145zm7.621 5.602c-.042.312-.188 1.258-.211 1.452-.243.033-5.191.652-5.588.701.057-.314.868-5.722.899-5.963.201-.033 1.453-.191 1.777-.235-.056.381-.686 4.521-.686 4.521s3.408-.433 3.809-.476m6.362-2.919c-.037.271-.166 1.142-.198 1.313-.235.028-3.291.373-3.291.373l-.131.904s3.987-.447 4.375-.493c-.037.315-.193 1.263-.216 1.45-.238.03-5.757.657-6.161.712.062-.402.87-5.734.901-5.974.241-.029 5.703-.66 6.107-.698-.042.308-.198 1.255-.211 1.448-.247.027-4.334.49-4.334.49l-.126.855c0-.002 2.916-.331 3.285-.38m1.9-2.472c.021-.005 1.729-.188 1.945-.211.075.193 1.204 2.51 1.204 2.51s1.954-2.731 2.021-2.841c.125-.005 1.367-.129 1.838-.175-.336.439-3.152 4.095-3.152 4.095l-.028.078s-.276 1.827-.319 2.052c-.202.027-1.438.15-1.764.184.05-.303.307-2.039.307-2.039s-1.88-3.337-2.052-3.653m7.146-2.931-2.823.279c-1.213-1.511-2.374-2.889-3.429-4.142l-2.734-3.294c-2.419-3.068-3.083-5.131-3.083-6.271 0-.357.064-.617.169-.797.003-.01.446-.246 2.653.515 1.251.442 3.389 1.891 6.186 4.189 3.014 3.864 5.608 8.001 7.804 12.337-.1 1.477-.418 3.069-.814 4.519-.509.044-1.014.091-1.531.132-.58-.915-1.187-1.79-1.784-2.647.773-1 1.501-1.938 1.501-1.938l.081-.547.38-2.557zm24.594 1.715 1.348 1.345 1.751-1.569c.721 1.422 1.326 2.803 1.853 4.082-1.488.06-2.967.119-4.423.176-2.878.138-5.476 1.439-7.267 3.417-.059.072-.115.13-.17.195-.636-.569-1.32-1.115-1.916-1.444-1.508-.858-3.287-1.255-5.119-1.115-1.264.097-2.516.197-3.767.301h-.013v-.013c.053-.201.094-.428.134-.625.403-2.425.493-6.987-2.363-13.167-2.31-4.436-4.068-6.253-5.543-7.801l-.109-.107c1.769-.305 3.372-.715 4.896-1.375l2.187 3.041 5.865-1.106c1.903.857 3.816 1.967 5.713 3.386l-1.306 7.33c-.001-.002 6.912 3.698 8.249 5.049m-18.365-26.6c.088-.123.169-.244.251-.374 2.211-3.724 2.44-8.5 2.449-10.294 0-.458-.019-.729-.019-.729s.567 1.982.567 5.969c0 3.959-2.023 7.058-2.023 7.058.6-.578 1.064-1.027 1.466-1.388.833-.781 1.336-1.203 2.019-1.721.53-.398 1.183-.869 2.193-1.627 4.853-3.629 10.261-6.377 10.261-6.377s-6.904 4.531-12.594 10.398c-5.333 5.499-7.475 6.834-14.322 7.687-.503.061-1.001.087-1.48.087-5.523 0-10.248-3.612-10.248-3.612s.057-1.184.492-2.533c-.009-.008-.019-.016-.019-.016l.425-1.093.024.019c.214-.443.482-.884.821-1.29.156-.077 3.225 3.596 8.887 4.419.439.068.874.089 1.32.089 3.776 0 7.729-2.081 9.505-4.629.009-.014.019-.032.025-.043m-144.937 5.47c0-.172.015-.337.015-.51v-.028c.066-3.154.772-6.302 2.146-8.773 1.049 1.49 2.521 3.318 3.972 4.419.564.433 1.132.756 1.672.91l3.124.853s.188-1.763.58-4.032c.295-1.783.728-3.875 1.271-5.688 1.031-3.456 1.202-4.481 1.221-4.724 2.823-1.601 5.497-3.211 8.17-4.916-1.1 1.605-2.35 3.409-3.318 4.628 0 0 3.284 1.872 6.316 3.913 1.228.831 2.432 1.688 3.351 2.464 1.386 1.167 2.791-4.045 3.768-8.69.577-2.772.99-5.345 1.161-6.245.033-.165 0-.249-.083-.295.035-.031.063-.05.063-.05l-.156.014c-.054-.006-.106 0-.182.011l-4.983.327c2.151-1.466 4.387-3.023 6.763-4.717 2.352-1.673 4.565-3.019 6.64-4.09l-3.219 4.54 4.006 3.187 3.816 3.031 2.3-5.1 3.199-7.078-4.949-.839c4.667-1.687 8.456-2.071 11.379-2.384.464-.049.947-.061 1.453-.061 2.606 0 5.786.579 8.28 1.148-1.402.706-2.688 2.345-3.046 3.588 2.149-1.206 4.141-1.98 5.73-2.474 2.635-.74 6.333-1.375 10.843-1.101 10.286.619 20.229 9.873 20.319 9.957.085.071.192.11.305.083.988-.167 2.717-.392 3.203-.234.627.214 2.933 1.812 4.127 3.461.136.491.446 1.368 1.052 3.069.033.077.068.134.14.17l3.774 2.352c2.208 1.302 12.364 5.305 14.144 5.996-.069.43-.165 1.313-.165 2.721 0 .361.008.745.026 1.178.062 1.558.326 3.615.546 5.119-1.177-.811-2.087-1.901-2.117-1.932l-.008-.008v-.042l-2.068-.279s-1.027.611-1.9 2.445c-.883 1.822-2.119 5.491-2.119 5.491l-7.201 2.048-.085.028-25.092-6.84-7.104.45s7.442 1.258 7.396 1.266c6.169 1.683 6.379 1.709 24.565 7.211l.03-.01 9.115-3.235s.054-.16.125-.434c.204.147.738.535 1.544 1.015-3.786 1.475-9.997 3.913-10.458 4.085-.011.01-.027.018-.034.018-.182-.036-27.191-4.641-27.32-4.659-.131-.08-7.396-4.763-7.396-4.763-.08-.053-.174-.066-.272-.043l-3.744 1.184c-3.947 1.349-7.274 1.586-9.944 1.316-2.64-.267-4.646-1.042-6.033-1.769-3.513-2.202-6.052-5.543-6.854-9.621-.633-3.148-.135-6.299 1.242-9.123 2.146-3.71 5.796-6.952 10.516-9.125 1.024-.402 1.809-.651 2.474-.846.146-.033.27-.064.408-.102v-.005c.856-.208 1.571-.318 2.478-.501-3.036-.135-6.478 1.145-6.478 1.145s-.013.021-.049.031c-2.442.849-4.684 2.048-6.606 3.554-1.682 1.305-3.112 2.819-4.253 4.518-.775 1.162-1.378 2.382-1.822 3.627-.564 1.063-1.014 2.165-1.356 3.27l-5.464-5.409-8.102 1.765-1.163 2.798c-3.801 9.032-7.648 18.231-11.519 27.542-12.906 5.125-15.647 3.648-16.552 2.818-.282-.259-5.567-4.69-5.548-13.848v-.141zm-10.78 42.239c1.23-3.163 2.871-6.01 4.814-8.481 2.055-2.636 4.621-5.133 7.824-7.304 4.742-3.219 10.231-4.453 15.763-4.471-1.98 4.819-3.974 9.659-5.971 14.531l-3.412-5.521-3.987 7.675-.393.745 4.126 6.057c-2.946 7.224-5.908 14.515-8.871 21.843-2.194-5.012-4.378-10.043-6.553-15.103l5.402 5.891 1.454-16.518s-.112-.06-.491-.361c-.27-.214-.666-.538-1.273-1.051-.907-.751-3.781-2.521-3.781-2.521l-2.898 10.838c-.724-1.705-1.461-3.4-2.184-5.11.133-.378.274-.762.431-1.139m25.622 61.426-2.028-1.606-1.252-1.016.289-1.587 1.349-.658c.105-.053 2.518-1.293 3.615-6.116.032-.179 4.828-30.891 4.828-30.891.134-.856.182-1.53.182-2.061 0-.254-.019-.419-.019-.419l-.756-.677c-8.073 25.306-16.205 51.075-24.331 77.086l-.81 2.567-2.157-1.584-1.838-1.328-.125-.776c-5.21-30.572-10.375-63.006-15.345-96.392l-.227-1.529 2.328-.907 1.089-.411 2.363 2.042.174.416c5.602 13.327 11.347 26.616 17.114 39.603 12.81-31.861 25.569-62.893 37.946-92.271l.39-.928 4.015-.874 2.745 2.722-.366 1.125c-7.028 21.623-14.145 43.756-21.321 66.235 5.636-1.73 11.333-3.417 16.999-4.997l.635-.165-.05-.047 3.504-.9c10.263-2.656 20.788-5.122 31.277-7.339 1.258-.257 2.443-.082 3.42.507.511.306 2.061 1.661 2.516 2.392.438.686.664 1.494.664 2.387 0 .26-.013.528-.054.813 0 0-3.162 19.621-3.162 19.588-.381 2.754-2.826 5.321-5.645 5.99-4.838 1.167-9.712 2.397-14.533 3.65-.15 1.002-1.167 7.393-1.194 7.53-.026.406-.057.757-.057 1.049 0 .327.02.434.02.434l1.03.881 1.87 1.558-.3 2.471-1.08.301c-6.424 1.825-12.932 3.76-19.356 5.758l-.972.316-.026-.023-2.969.991c-6.521 2.156-13.04 4.421-19.382 6.714zm7.158 1.491c3.055-1.051 6.618-2.233 10.012-3.347 1.487-.499 2.971-1.009 4.458-1.504l1.693-.562 2.214-.693c1.092-.345 2.181-.674 3.252-1.012 1.121-.348 1.77-.56 1.77-.56l-.006.021c.024-.01.051-.01.069-.021-.268.578-.521 1.141-.784 1.7l-7.83 18.609c-5.434-3.471-10.51-7.896-14.848-12.631m86.558 16.91c-.244.109-.474.225-.73.326-.317.153-.634.312-.95.452-.299.123-.603.263-.904.385-.318.146-.637.283-.96.416-.308.128-.618.251-.929.374-.311.126-.637.259-.953.374-.321.13-.646.246-.969.366-.308.107-.621.229-.944.346-.326.111-.655.227-.984.329-.313.111-.641.217-.95.316-.333.122-.681.209-1.01.318-.317.089-.622.201-.938.271-.354.113-.706.208-1.052.299-.316.089-.626.175-.939.261-.346.087-.703.175-1.061.268-.317.078-.622.156-.941.22-.354.094-.722.159-1.084.246-.311.07-.623.141-.934.2-.366.069-.739.137-1.105.205-.318.062-.626.124-.941.175-.374.067-.756.122-1.133.174-.313.059-.623.104-.934.153-.38.052-.775.097-1.158.151-.311.032-.612.081-.919.117-.405.042-.807.08-1.208.115-.298.033-.603.061-.897.092-.433.034-.861.063-1.301.095-.275.02-.533.041-.816.052-.479.036-.972.045-1.452.071-.226.007-.455.02-.683.02-.71.021-1.422.032-2.146.032-12.751 0-24.579-3.138-35.059-8.817l2.884-6.43c2.008-5.141 4.855-11.474 8.396-18.757 2.259-.674 4.523-1.329 6.772-1.968l2.632-.742.034.104 24.009-6.051c2.594-.57 5.182-1.14 7.746-1.699 6.377 2.63 12.996 4.322 19.535 5.177-1.207 5.229-2.726 9.834-4.4 13.874-3.813-.504-7.352-.756-10.576-.756-5.194 0-9.762.656-13.557 1.97-3.046 1.035-5.633 2.483-7.916 4.415-.465.383-.784.718-1.033 1.07-.623.878-.78 1.924-.442 2.857.227.602.825 1.643 2.44 1.967.424.086.897.12 1.551.12.73 0 1.624-.047 2.671-.102.226-.014.591-.05.838-.071h.034c.279-.011.524-.021.801-.027h.006c.991-.049 1.944-.083 2.866-.072 13.623.078 19.906 5.522 22.01 6.566-.113.043-.212.106-.317.153m40.365-19.856c.033-.061.05-.091.05-.091s.186 1.595.139 3.895l-1.737-1.587-.102-.102-.577.869-5.645 8.396 3.527 3.653 3.281-3.437c-.706 2.047-1.772 3.99-3.388 5.486-3.073 2.238-16.802 7.591-25.269 4.848-8.456-2.735-13.712-6.993-16.703-8.235-.472-.202-.972-.399-1.494-.588-2.748-1.027-6.033-1.946-8.962-2.277-3.909-.434-13.692-.271-13.692-.271-.121-.063-.184-.14-.184-.23 0-.199.231-.471.702-.873 3.327-2.815 8.889-5.745 19.732-5.745 4.528 0 9.987.507 16.584 1.755 3.15.6 5.943.854 8.445.854 15.247 0 18.92-9.575 18.92-9.575l1.989-3.488s1.744.502 3.741 4.242c.361.673.552 1.536.643 2.501m3.619-19.76c-.758.383-1.536.721-2.312 1.009-.141.04-.273.109-.413.16-13.438 4.963-32.54 6.232-50.331.188 2.901-.56 9.216-1.791 9.216-1.791l3.437-.673.023.032 2.717-.466c.338-.052.674-.107 1.006-.172l3.839 3.979 4.52-5.353c3.243-.521 6.491-1.006 9.727-1.48 0 0 2.053-.313 4.558-.674 1.1.814 2.623 2.081 3.432 3.295.668 1.02 1.676 2.183 1.676 2.183s5.492-4.521 8.449-7.159c.273-.039.506-.06.506-.06l3.506-.413c.011-.021.029-.045.038-.082l4.466-.421 2.397-.279c-2.668 3.211-6.097 6.097-10.457 8.177m32.033-45.571c-.262-.069-.557-.107-.878-.107l-9.238.296c-.076 0-.163.052-.205.093-.03.249-.889 5.591-1.175 7.424 3.189-.157 9.099-.467 9.099-.467 1.226-.046 2.358.258 3.256.869.373.257 2.051 1.676 2.529 2.524h.009c.468.829.64 1.792.495 2.806 0 0-2.168 13.507-2.157 13.474-.358 2.592-2.874 4.706-5.818 4.916-8.103.653-23.843 2.342-23.843 2.342l-4.501.513s-1.605.184-1.593.196l-9.42 1.169c-.997.136-1.982 0-2.82-.389-.378-.176-.915-.512-2.345-1.813-.474-.431-.832-.941-1.06-1.511 0 0-1.143-2.657-2.256-5.255-.139.866-.524 3.296-.552 3.436-.013.264-.026.51-.026.729 0 .411.014.465.014.465l3.666 3.24-.104 1.836-2.255.323c-6.402.948-12.86 1.962-19.184 3.047l-.881.151-1.897-1.634-.527-.465.847-2.725.454-.133c.104-.028 2.602-.811 3.356-5.554l4.084-25.938c.098-.69.147-1.25.147-1.713 0-.406-.041-.715-.084-.967-.192.011-.38.028-.38.028l-1.798-1.691-1.646-1.541.12-1.475 2.622-.298s3.764-.447 3.791-.471c8.953-.954 18.105-1.786 27.204-2.471 1.063-.083 2.082.139 2.925.615.773.439 2.27 1.916 2.617 2.39.537.743.819 1.629.819 2.579 0 .231-.021.478-.044.702l-2.836 17.584c-.356 2.573-2.722 4.733-5.545 5.151 1.207 2.644 3.049 6.697 3.418 7.484 0 0 .002-.005.016-.005.246.522.46.917.581 1.043.39.397 1.12.596 1.12.596l.482-3.561 1.067-6.634 2.749-.082 1.435 1.271.703.654-.066.954c-.006.039-.013.091-.013.157 0 .233.076.636.194 1.015.268.032.584.042.935.016l9.545-.847c.145-.008.292-.123.354-.2.042-.282 1.012-6.45 1.244-7.958-3.182.227-9.069.636-9.069.636-1.247.085-2.472-.134-3.415-.657-.564-.293-2.076-1.585-2.488-2.363-.471-.869-.623-1.907-.441-3.167l.129-.821s2.063-12.658 2.049-12.624c.378-2.66 2.96-4.844 5.89-4.979 7.842-.322 15.891-.575 23.936-.723l.787-.009 1.769 1.677.73.688-1.659 10.553-2.384.041-.583-.542-1.194-1.122-.666-.649.066-.913c0-.033.009-.074.009-.14-.001-.237-.077-.664-.216-1.069m8.603-9.685-2.925-2.792-2.42.036c-5.56.11-11.132.255-16.628.447-2.12-5.53-6.06-13.381-12.355-17.716-4.078-3.303-8.35-5.166-12.26-6.201 1.36-1.083 2.746-2.429 4.372-4.105 5.451-5.64 8.374-7.84 12.035-10.417 4.378-2.772 8.845-4.963 8.845-4.963s-6.241 0-12.117 2.522c-3.225 1.386-4.164 2.106-9.093 5.8-.169.126-.322.241-.467.351.019-.351.035-.704.035-1.054 0-1.768-.102-3.151-.223-4.191 0 .025-.074-.335-.28-1.41-.846-4.382-4.375-8.92-4.375-8.92s.251 4.037.282 8.659c.006 3.135.273 5.802-2.167 9.882-.609 1.042-1.795 2.1-3.237 2.896-1.563.861-3.26 1.332-4.793 1.332-.349 0-.696-.014-1.02-.071-1.022-.142-1.988-.4-2.93-.754-.485-4.151-.493-11.703-.493-11.8 0-.139-.083-.265-.216-.314-.138-.058-13.86-5.849-14.82-6.304-.831-.4-2.698-1.638-3.124-1.91-.066-.198-1.132-3.077-1.132-3.077-.021-.044-.048-.083-.078-.11-1.409-1.469-4.774-4.864-5.584-4.884-1.138-.035-2.396.294-2.813.422-1.407-1.162-13.87-11.118-25.339-10.409-2.634.168-4.726.623-6.394 1.205-2.426-.664-7.776-1.992-11.967-1.992-.621 0-1.201.038-1.74.082l-.13.016c-2.659.288-5.975.628-10.077 1.895-4.796 1.502-9.456 3.889-14.265 7.311-9.811 7.004-17.263 11.882-28.478 17.637-1.7.874-3.152 2.191-4.347 3.94-1.025 1.525-1.819 3.332-2.365 5.379-.777 2.926-1.004 6.16-.648 9.355.373 3.302 1.335 6.224 2.787 8.451 1.396 2.142 2.688 3.671 3.956 4.642.648.476 1.28.852 1.941 1.09-.854 1.669-1.649 3.357-2.385 5.075-6.701 3.162-12.981 9.175-16.602 17.261-.45-1.062-.9-2.126-1.354-3.188l-.527-1.272-4.868-4.192-3.281 1.282-5.24 2.058.676 4.604c4.986 33.414 10.142 65.879 15.367 96.477l.398 2.344 2.307 1.698 7.418 5.401 2.422-7.804c3.321-10.621 6.652-21.197 9.963-31.715l3.712 2.922 2.606-.95c3.249 3.792 6.875 7.294 10.784 10.41 4.165 3.328 8.666 6.22 13.368 8.623 4.576 2.324 9.41 4.226 14.381 5.606 4.83 1.356 9.855 2.253 14.938 2.658 4.999.391 10.062.305 15.059-.266 4.981-.555 9.934-1.598 14.739-3.094 4.833-1.519 9.529-3.514 13.973-5.917.119-.067.229-.137.345-.202.685.26 1.362.5 2.071.712 2.86.857 5.935 1.3 9.144 1.3 5.43 0 10.172-1.247 13.195-2.285 3.324-1.141 6.192-2.606 7.309-3.725.345-.354.648-.638.912-.88.669-.636 1.251-1.17 1.734-2.014.49-.886.766-1.866 1.004-3.08.035-.204.147-.642.271-1.115.41-1.617 1.097-4.311 1.461-7.054.483-3.758.244-6.503-.771-8.396-1.941-3.64-3.89-4.931-4.875-5.371.229-.434.462-.861.679-1.302.766-1.504 1.489-3.028 2.15-4.571.754-.256 1.509-.51 2.229-.781 7.433-2.754 12.621-7.429 16.247-12.591 4.549-.428 9.122-.826 13.723-1.195 4.718-.34 8.77-3.909 9.395-8.268l-.031.099 2.191-13.625c.063-.4.086-.802.086-1.205 0-.28-.08-.539-.099-.813.455-2.894 3.056-19.547 3.056-19.547z" fill="#231f20"/><path d="m215.741 80.865c-.015 0-9.278.292-9.278.292-1.073.047-2.032.811-2.2 1.751 0 .008-1.531 9.574-1.531 9.574s-.007.19-.007.292c.17.05.353.063.567.05 3.685-.21 7.369-.405 11.057-.55 1.427-.063 2.503.55 2.923 1.515.417.384.816.795.923 1.007.188.314.286.674.286 1.062 0 .109-.019.23-.038.345l-2.152 13.51c-.226 1.561-1.97 2.952-3.884 3.099-8.251.658-16.472 1.409-24.44 2.222-.089-.071-.773-.657-1-.869-.095.014-.181.019-.274.019.538-3.324.798-4.987 1.335-8.316 0 0-.037.443.041 1.048.361 2.061 1.02 2.239 1.478 2.694.646.45 1.581.719 2.903.598 3.813-.365 5.716-.532 9.518-.839 1.004-.091 1.912-.855 2.069-1.669.537-3.393 1.07-6.774 1.595-10.16.043-.181.036-.351-.008-.502l-.345-.017-11.104.773c-.829.057-1.648-.085-2.236-.403-.332-.186-1.471-1.203-1.634-1.518-.013-.01-.013-.03-.021-.041-.33-.489-.486-1.093-.387-1.792.728-4.483 1.461-8.983 2.181-13.48.257-1.75 2.066-3.227 4.073-3.332 7.979-.329 15.928-.559 23.88-.714-.019.086-.022.167-.031.24.182.187.909.872 1.007.965-.006.076-.078.531-.078.531 0 .024-.18 1.143-.18 1.143s-.794 5.122-.906 5.784c-.178-.165-.747-.696-.854-.797.007-.055.007-.077.007-.21 0-.175-.007-.437-.048-.727-.034.324-.1.661-.169 1.028 0 0 .177-1.875-.934-3.214-.607-.263-1.304-.403-2.104-.392m-34.546 34.133c.016.005.016.008.021.027-3.779.442-5.665.667-9.447 1.166-1.499.197-2.588-.48-3.008-1.519-1.541-3.541-3.062-7.087-4.562-10.638-.742.092-1.11.145-1.853.238-.509 3.222-.766 4.843-1.277 8.078-.465 5.204 2.926 4.913 2.926 4.913-6.404.944-12.8 1.955-19.217 3.056 0 0 3.778-.869 4.767-7.131 1.367-8.642 2.721-17.286 4.091-25.925.998-6.371-2.707-6.053-2.707-6.053 1.519-.176 2.263-.271 3.772-.439v-.016c9.062-.97 18.103-1.786 27.136-2.478 1.956-.134 3.344 1.167 3.09 2.946-.947 5.892-1.901 11.764-2.842 17.656-.26 1.772-2.076 3.341-4.112 3.551-.941.102-1.418.157-2.38.259 1.584 3.519 3.186 7.015 4.779 10.509 1.183 1.705 2.615 1.595 2.615 1.595-.72.078-1.074.127-1.792.205m35.602-29.774.666.649 1.194 1.122.583.543 2.384-.042 1.659-10.553-.73-.688-1.769-1.676-.787.008c-8.045.147-16.094.401-23.936.723-2.93.135-5.512 2.319-5.89 4.98.015-.036-2.049 12.622-2.049 12.622l-.129.821c-.182 1.258-.029 2.298.441 3.168.412.775 1.927 2.068 2.488 2.362.944.522 2.168.742 3.415.657 0 0 5.888-.409 9.069-.636-.232 1.508-1.202 7.676-1.244 7.958-.062.077-.209.191-.354.2l-9.545.847c-.351.028-.667.016-.935-.016-.118-.378-.194-.781-.194-1.015 0-.066.007-.118.013-.157l.066-.952-.703-.656-1.435-1.271-2.749.082-1.067 6.635-.482 3.56s-.73-.198-1.12-.594c-.121-.127-.335-.522-.578-1.044-.017 0-.017.005-.017.005-.371-.786-2.213-4.84-3.42-7.486 2.823-.417 5.188-2.576 5.545-5.149l2.836-17.584c.022-.224.044-.471.044-.701 0-.951-.282-1.836-.819-2.58-.348-.474-1.844-1.951-2.617-2.388-.843-.478-1.862-.7-2.922-.617-9.102.685-18.254 1.517-27.207 2.471-.027.025-3.791.471-3.791.471l-2.622.299-.12 1.473 1.649 1.541 1.795 1.691s.188-.016.38-.026c.043.251.085.56.085.967 0 .463-.051 1.021-.148 1.713l-4.084 25.937c-.755 4.743-3.252 5.527-3.356 5.554l-.454.133-.847 2.725.527.465 1.897 1.634.881-.151c6.323-1.085 12.782-2.1 19.184-3.047l2.255-.326.104-1.833-3.666-3.24s-.014-.054-.014-.465c0-.219.014-.465.026-.729.027-.14.413-2.57.552-3.439 1.113 2.602 2.256 5.258 2.256 5.258.228.57.586 1.077 1.06 1.511 1.43 1.302 1.967 1.637 2.347 1.813.836.389 1.821.525 2.818.389l9.42-1.169c-.013-.011 1.593-.196 1.593-.196l4.501-.513s15.74-1.689 23.843-2.342c2.944-.21 5.46-2.323 5.818-4.916-.011.033 2.157-13.477 2.157-13.477.145-1.01-.024-1.973-.495-2.803h-.009c-.479-.848-2.156-2.267-2.529-2.524-.896-.614-2.03-.915-3.256-.868 0 0-5.909.306-9.099.466.286-1.833 1.145-7.175 1.175-7.424.042-.041.126-.096.205-.096l9.238-.293c.321 0 .616.039.878.107.14.406.215.833.215 1.072 0 .065-.009.107-.009.139z" fill="#615d5e"/><path d="m116.721 87.363v.002z" fill="#615d5e"/><path d="m117.009 87.695c-.086-.125-.19-.219-.287-.321.097.097.201.196.287.321" fill="#615d5e"/><path d="m139.461 87.416-6.888 1.046c-.781.128-1.553.685-1.957 1.433-.031.036-.438 1.953-.438 1.953l-1.557 9.874c2.528-.453 4.137-.732 6.981-1.203 2.908-.72 3.479-3.256 3.479-3.256-.015.058-.069.397-.155.916.118-.222.197-.406.243-.56.129.119-1.244 8.863-1.343 8.77 0-.129-.009-.376-.086-.662-.066.423-.117.706-.117.754 0 0 .045-.682-.301-1.288-.425-.094-.915-.104-1.466-.014l-8.004 1.441-.024.133-1.87 11.889-.169 1.587c.145.005.305 0 .479-.036 2.887-.606 4.332-.881 7.222-1.444 3.659-.699 5.829-2.609 7.9-7.266-.119.426-.235.801-.335 1.19.131-.282-2.473 8.542-2.534 8.77-12.304 2.199-29.244 6.187-30.093 6.388 0 0 3.208-.968 4.531-6.221 1.565-9.794 3.123-19.596 4.686-29.39.295-2.387-.088-3.756-.637-4.526-.086-.127-.196-.224-.288-.329-.292-.274-.614-.417-.903-.532-.062-.024-.106-.045-.122-.048-.448-.124-.793-.069-.793-.069.012-.005.012-.005.024-.005.013-.011-.024 0-.024 0v-.016c9.704-1.737 19.383-3.269 29.067-4.617-.014.08-1.372 8.531-1.44 8.931 0 0 .199-2.033-.854-3.382-.619-.239-1.363-.321-2.214-.211m1.074 4.362.688.641 2.305 2.11 1.771-.047 1.916-12.004-2.596-2.433-.919.125c-9.756 1.365-19.548 2.927-29.137 4.641l-2.02.372-.255 1.755 1.734 1.587 1.773 1.658c.035-.003.057.052.069.151.041.351-.079 1.25-.139 1.645-.016.115-4.61 28.978-4.651 29.205-1.011 3.963-3.159 4.791-3.253 4.824l-1.405.513-.308 1.854 1.076.934 1.939 1.633.939-.22c6.434-1.517 12.914-2.942 19.269-4.263-.025.008 10.736-2.08 10.736-2.08l1.152-.228.351-1.135.305-1.083 2.446-8.799-1.938-2.334-2.596-.348-.209.345v.002c-1.985 4.431-3.803 5.55-6.452 6.056 0 0-2.779.557-4.891.977.342-2.199 1.104-7.033 1.477-9.394 1.718-.304 5.43-.963 6.063-1.085.132.137.56.564.56.564s1.125.992 2.072 1.852l2.113-.219 1.804-11.939-3.374-3.068-1.191.175-.552 2.09c-.048.138-.437 1.422-2.042 1.827-.157.036-2.105.366-4.013.693.414-2.638 1.12-7.149 1.12-7.149s.198-.91.301-1.386c.114-.118.251-.214.329-.225l6.863-1.052c.265-.028.477-.009.696.019.097.395.154.787.154 1.065 0 .096 0 .179-.003.237z" fill="#615d5e"/><path d="m65.824 138.239s-.075-.191-.075-.265c-.022-.204-.034-.436-.034-.71 0-.513.04-1.17.176-1.998 0 0 4.692-30.036 4.72-30.208 1.054-4.71 3.382-5.65 3.485-5.683l2.666-1.009.19.162s.157-.028.245-.046c.02.211.044.46.044.761 0 .538-.044 1.209-.182 2.073l-4.037 25.607-.551 3.399c-.914 5.326-3.57 6.557-3.677 6.607l-2.609 1.148zm-1.008 2.004c.283.026-18.045 6.362-17.831 6.203-.301.102-.6.216-.894.313 0 0 3.34-1.438 4.698-7.468 1.604-10.319 3.228-20.656 4.841-30.993.439-2.902.094-4.45-.486-5.263-.063-.094-.147-.165-.217-.25-.188-.179-.396-.337-.627-.431h-.004v-.008c-.124-.052-.244-.094-.332-.115h-.009c-.039-.011-.096-.033-.145-.036-.446-.063-.784.025-.784.025 6.414-2.012 12.829-3.908 19.261-5.713 0 0-.344.113-.868.46.276-.083.539-.159.819-.232.08.074.576.505.849.753-.871.411-3.424 1.995-4.563 7.144 0 .011-4.739 30.303-4.739 30.303-.134.861-.208 1.635-.208 2.329 0 1.074.18 1.926.516 2.584.718.344 1.424.155 1.424.155-.239.078-.469.151-.701.24m-39.047 40.26c-5.448-32.01-10.536-64.128-15.339-96.36.356-.141.543-.208.896-.353.054.145.115.279.171.416.297.254.762.671.811.704 6.203 14.754 12.577 29.475 18.957 43.76l.087.175c12.967-32.308 26.19-64.547 39.744-96.729.806-.179 1.201-.263 1.998-.436-.018.076-47.325 148.823-47.325 148.823m81.762-92.411c1.967-.4 3.354.855 3.067 2.82-1.041 6.559-2.117 13.106-3.17 19.674-.272 1.971-2.137 3.902-4.188 4.39-5.267 1.286-10.52 2.602-15.783 3.99-.557 3.554-.838 5.33-1.408 8.873-.597 5.84 2.863 5.069 2.863 5.069-6.468 1.848-12.926 3.768-19.388 5.805 0 0 3.701-1.42 4.854-8.099.223-1.352.321-2.031.541-3.392 1.349-8.54 2.694-17.076 4.03-25.611 1.12-7.054-2.606-6.204-2.606-6.204 10.392-2.676 20.775-5.112 31.188-7.315m-37.248 53.718.026.021.972-.317c6.425-1.997 12.933-3.932 19.356-5.754l1.08-.301.3-2.473-1.87-1.556-1.03-.884s-.02-.107-.02-.434c0-.293.03-.641.057-1.047.027-.14 1.044-6.526 1.194-7.53 4.821-1.256 9.695-2.484 14.533-3.651 2.818-.668 5.264-3.236 5.645-5.99 0 .033 3.162-19.588 3.162-19.588.038-.287.054-.557.054-.815 0-.894-.227-1.703-.661-2.385-.458-.731-2.008-2.089-2.519-2.395-.977-.586-2.159-.764-3.417-.507-10.492 2.219-21.018 4.686-31.28 7.338l-3.504.903.05.044-.635.165c-5.663 1.582-11.363 3.267-16.999 5 7.176-22.479 14.293-44.615 21.32-66.237l.366-1.123-2.745-2.721-4.015.871-.39.928c-12.377 29.381-25.137 60.412-37.946 92.273-5.767-12.99-11.512-26.276-17.114-39.603l-.174-.416-2.363-2.045-1.089.414-2.327.906.227 1.527c4.969 33.388 10.134 65.822 15.345 96.392l.125.778 1.838 1.329 2.157 1.581.81-2.567c8.125-26.012 16.257-51.778 24.331-77.084l.756.676s.019.164.019.417c0 .532-.048 1.208-.182 2.063 0 0-4.796 30.71-4.828 30.892-1.098 4.82-3.51 6.063-3.615 6.113l-1.349.658-.289 1.586 1.252 1.02 2.028 1.603 1.007-.369c6.342-2.297 12.86-4.558 19.382-6.718z" fill="#615d5e"/><path d="m54.542 102.467c.135.084.257.191.383.318.009.014.027.024.037.035-.131-.144-.27-.258-.42-.353" fill="#615d5e"/><path d="m67.54 103.651c-1.584 10.114-3.161 20.231-4.739 30.347-.634 4.009.342 5.39 1.292 5.847-.336-.653-.516-1.506-.516-2.58 0-.693.074-1.472.208-2.33 0 0 4.739-30.292 4.739-30.303 1.14-5.148 3.692-6.732 4.563-7.146-.272-.244-.769-.677-.849-.751-.28.074-.543.151-.819.232-1.101.733-2.97 2.547-3.879 6.684" fill="#615d5e"/><path d="m53.964 102.232c-.048-.011-.104-.036-.153-.036.049.003.105.025.145.036h.008c.053.011.119.016.172.049-.053-.033-.119-.038-.172-.049" fill="#615d5e"/><path d="m54.3 102.354c.231.096.439.251.624.432-.126-.125-.248-.232-.383-.317-.082-.047-.151-.085-.241-.115" fill="#615d5e"/><path d="m54.296 102.354h.004z" fill="#615d5e"/><path d="m54.243 102.315c.019.008.034.021.054.033v.006-.006c-.02-.012-.036-.025-.054-.033" fill="#615d5e"/><path d="m54.924 102.786c.072.084.156.157.22.25-.061-.077-.116-.137-.183-.213-.009-.015-.028-.026-.037-.037" fill="#615d5e"/><path d="m94.182 110.862c-.054.257-.431.657-.693.72 0 0-.743.195-1.615.42.589-3.747 2.041-12.911 2.188-13.848.754-.175 1.154-.267 2.237-.518-.508 3.18-2.117 13.226-2.117 13.226m2.879-16.708c-2.359.523-3.534.8-5.878 1.367-1.022 6.48-2.051 12.959-3.077 19.442 2.344-.618 3.504-.918 5.844-1.507 1.022-.261 1.957-1.291 2.124-2.296.838-5.216 1.674-10.43 2.514-15.655.111-.989-.571-1.575-1.527-1.351" fill="#615d5e"/><path d="m168.507 98.054s-.898.11-1.876.226c.444-2.856 1.665-10.551 1.927-12.235.875-.078 1.234-.112 2.264-.209-.483 3.033-1.919 11.979-1.919 11.979-.024.04-.221.219-.396.239m2.302.061c.757-4.697 1.503-9.386 2.256-14.078.104-.902-.59-1.525-1.541-1.438-2.329.207-3.487.318-5.824.552-.923 5.836-1.841 11.68-2.767 17.524 2.325-.299 3.479-.445 5.788-.696 1.023-.123 1.932-.954 2.088-1.864" fill="#615d5e"/><path d="m214.528 79.932c-3.698.104-5.546.162-9.251.298-.944.042-1.85.735-2.013 1.595-.506 3.198-1.011 6.391-1.52 9.585-.137.652.286 1.203.979 1.368 0-.107.007-.295.007-.295s1.531-9.568 1.531-9.576c.166-.939 1.127-1.705 2.203-1.751 0 0 9.261-.293 9.275-.293.8-.011 1.497.13 2.103.394-.611-.744-1.624-1.333-3.314-1.325" fill="#615d5e"/><path d="m219.938 77.147c-.405 2.57-.625 4.008-.992 6.296.041.291.048.554.048.727 0 .136 0 .159-.007.214.106.102.676.633.854.798.112-.667.906-5.786.906-5.786s.18-1.118.18-1.143c0 0 .072-.458.078-.534-.095-.091-.825-.776-1.007-.962-.029.128-.038.238-.069.398z" fill="#615d5e"/><path d="m217.45 95.134c-.72 4.519-1.439 9.037-2.173 13.55-.226 1.678-2.045 3.127-4.057 3.265-8.082.654-16.158 1.385-24.255 2.215.227.214.911.801 1 .873 7.969-.815 16.189-1.565 24.44-2.222 1.914-.149 3.658-1.538 3.884-3.101l2.152-13.509c.02-.115.038-.235.038-.345 0-.389-.099-.748-.286-1.066-.106-.208-.506-.62-.92-1.002.177.396.243.854.177 1.342" fill="#615d5e"/><path d="m204.085 96.137c-3.692.233-7.386.483-11.084.767-1.228.101-2.202-.328-2.72-1.071.009.014.009.033.021.042.163.316 1.302 1.333 1.634 1.519.588.319 1.407.46 2.236.4l11.104-.773.345.017c-.149-.561-.746-.948-1.536-.901" fill="#615d5e"/><path d="m116.649 87.305c-.065-.073-.147-.12-.231-.183-.245-.167-.489-.282-.722-.337.045.005.091.035.122.052.289.115.611.254.903.528v-.002c-.022-.011-.05-.039-.072-.058" fill="#615d5e"/><path d="m116.721 87.366c.092.105.202.204.288.329-.086-.125-.19-.224-.284-.321z" fill="#615d5e"/><path d="m138.292 86.517c-2.745.403-4.124.606-6.869 1.044-.736.121-1.452.656-1.822 1.346-.16.56-.295 1.198-.417 1.888-.587 3.718-1.173 7.429-1.756 11.145.423-.077.818-.149 1.194-.217l1.557-9.874s.404-1.917.438-1.953c.404-.751 1.176-1.305 1.957-1.436l6.888-1.043c.851-.11 1.595-.028 2.215.21-.607-.781-1.632-1.324-3.385-1.11" fill="#615d5e"/><path d="m137.741 105.728c.077.285.086.531.086.662.099.092 1.472-8.652 1.343-8.77-.046.154-.125.337-.243.56-.443 2.857-.732 4.646-1.186 7.548" fill="#615d5e"/><path d="m134.704 104.316c-3.158.542-4.727.822-7.87 1.417-.634 3.967-1.254 7.933-1.879 11.902-.115.74-.169 1.378-.172 1.941.156.381.524.62 1.007.653l.169-1.584 1.87-11.888.024-.135 8.004-1.444c.551-.091 1.041-.079 1.466.017-.333-.609-1.065-1.147-2.619-.879" fill="#615d5e"/><path d="m31.352 128.845-.087-.175c-6.38-14.285-12.754-29.006-18.957-43.76-.048-.033-.514-.45-.811-.704 6.369 15.178 12.898 30.267 19.594 45.264.086-.206.163-.413.261-.625" fill="#615d5e"/><path d="m61.598 133.808 4.746-30.373.01-.044c.41-1.849 1.009-3.274 1.659-4.391-.578.173-1.148.337-1.723.502-.349.831-.667 1.789-.908 2.918l-.021.028-4.738 30.384c-.142.928-.211 1.756-.211 2.501 0 1.515.305 2.671.897 3.51-3.402 1.148-6.811 2.333-10.231 3.53-.232.597-.474 1.127-.757 1.601 4.003-1.417 7.983-2.814 11.964-4.154-.599-.838-.906-1.99-.906-3.512 0-.74.079-1.574.219-2.5" fill="#9c9a9a"/><path d="m74.475 134.66c-.224.546-.48 1.049-.735 1.493 3.924-1.205 7.897-2.387 11.914-3.554-.587-.849-.878-2.023-.878-3.493 0-.436.024-.897.072-1.381v-.03l1.545-9.698.754-.205c5.259-1.382 10.586-2.726 15.814-3.999 1.567-.367 3.067-1.912 3.281-3.402 0 0 3.167-19.665 3.158-19.647.069-.538-.032-.974-.302-1.234-.163-.145-.401-.241-.67-.259.012.154.019.328-.013.515.013-.015-3.15 19.647-3.15 19.647-.216 1.485-1.718 3.042-3.277 3.413-5.237 1.268-10.555 2.61-15.811 3.992l-.771.202-1.53 9.698v.033c-.052.479-.072.947-.072 1.381 0 1.478.286 2.641.872 3.499-3.438.99-6.831 2.005-10.201 3.029" fill="#9c9a9a"/><path d="m89.975 95.329.129-.811 6.69-1.561c.628-.133 1.245-.07 1.76.193-.122-.249-.285-.46-.486-.648-.58-.522-1.399-.713-2.253-.513l-6.683 1.553-.129.811-3.35 21.261 1.172-.301z" fill="#9c9a9a"/><path d="m161.494 102.066v-.005l-1.183.156-.139.89-1.282 8.111v.057c-.038.354-.047.708-.047 1.036 0 1.32.255 2.42.762 3.27-3.347.51-6.669 1.038-9.972 1.572-.23.466-.458.881-.709 1.25 3.867-.638 7.752-1.25 11.659-1.843-.514-.85-.769-1.954-.769-3.27 0-.334.025-.682.057-1.049v-.039l1.279-8.125.142-.884 2.751-.365.383-.05c-.245-.561-.404-.939-.444-1.01z" fill="#9c9a9a"/><path d="m164.507 82.959.15-.928 6.767-.636c.577-.057 1.126.061 1.587.312-.094-.191-.232-.378-.389-.551-.456-.465-1.099-.726-1.789-.748-2.396.212-4.78.431-7.167.661l-.145.916-3.008 19.108 1.155-.146z" fill="#9c9a9a"/><path d="m179.313 113.802-4.827-10.61-.685-1.53 4.051-.432c1.473-.162 2.858-1.31 3.035-2.549 0 0 2.836-17.648 2.836-17.634.067-.43-.042-.806-.296-1.085-.169-.178-.413-.32-.687-.398.027.157.03.33.014.513 0-.019-2.842 17.631-2.842 17.631-.177 1.234-1.56 2.387-3.034 2.546l-4.057.43.693 1.529 4.827 10.616.058.088c.025.046.071.066.095.116-2.689.337-7.87.976-7.87.976-.308.049-.593.037-.851-.031.063.143.104.223.104.23.248.611.884.891 1.726.784 0 0 5.173-.638 7.857-.983-.021-.042-.048-.072-.085-.116z" fill="#9c9a9a"/><path d="m199.572 90.244s.006-.016.006-.038z" fill="#9c9a9a"/><path d="m202.059 110.576-9.497.834c-.393.038-.766.042-1.123.024-1.036.112-2.083.206-3.124.312-.072.362-.125.744-.184 1.088 7.599-.77 15.311-1.482 23.003-2.094 1.439-.104 2.787-1.129 2.951-2.246 0 0 2.174-13.541 2.174-13.531.049-.377-.041-.706-.265-.963-.182-.189-.432-.329-.725-.42.02.125.031.271.007.409 0-.017-2.173 13.528-2.173 13.528-.149 1.122-1.513 2.144-2.952 2.259-2.384.178-4.784.387-7.168.597-.289.104-.602.172-.924.203" fill="#9c9a9a"/><path d="m191.087 94.659c.038.204.107.414.279.602.313.327.878.488 1.536.439 3.692-.285 7.434-.542 11.116-.774.586-.031 1.143.092 1.61.339-.085-.151-.182-.3-.296-.431-.364-.427-.878-.701-1.456-.818-.166 0-.348.013-.517.026-.286.016-.564-.003-.813-.061-3.519.22-7.092.463-10.619.735-.303.027-.595 0-.84-.057" fill="#9c9a9a"/><path d="m200.101 92.175c.18.217.425.406.675.557-.247-.483-.329-1.017-.229-1.548l-.003.038s1.534-9.591 1.534-9.607c.251-1.412 1.605-2.528 3.142-2.589 0 0 9.285-.302 9.308-.302 1.552-.008 2.788.436 3.735 1.275.103-.685.251-1.587.356-2.239-.38.008-11.41.288-15.168.418-1.194.335-2.148 1.3-2.35 2.466-.003.011-1.421 8.874-1.524 9.562-.134.706.05 1.427.524 1.969" fill="#9c9a9a"/><path d="m112.596 125.642c4.897-1.124 9.867-2.233 14.887-3.282 4.071-.831 6.22-1.242 10.072-1.971.105-.318.401-1.373.712-2.419-.478.372-.995.698-1.543.979-.06.202-.107.366-.135.46-1.952.372-3.47.662-5.01.968-1.136.224-2.513.492-3.542.698-.488.099-.981.204-1.527.311-4.44.932-8.839 1.91-13.196 2.893-.222.505-.469.96-.718 1.363" fill="#9c9a9a"/><path d="m124.657 104.574-1.875 11.897c-.113.768-.172 1.458-.183 2.125v.25l.094.225c.214.504.584.889 1.058 1.127-.029-.039-.065-.097-.081-.149l-.096-.228v-.249c.005-.671.072-1.364.187-2.126l1.875-11.904.122-.853 8.729-1.564c.938-.16 1.744-.091 2.411.183.164-1.053.271-1.712.331-2.11-.364.181-.76.345-1.206.464-.779.232-1.57.334-2.511.493l-8.729 1.554z" fill="#9c9a9a"/><path d="m127.986 90.603c.109-.698.263-1.398.447-2.047l.044-.126.069-.12c.552-1.022 1.572-1.773 2.682-1.938 0 0 6.897-1.053 6.92-1.061 1.975-.246 3.189.353 3.908.98.044-.26.295-1.849.439-2.772-.38.053-.38.053-12.24 1.877-1.1.173-2.136.916-2.7 1.943l-.056.112-.038.128c-.182.646-.339 1.332-.455 2.047l-2.012 12.821 1.158-.199c.51-3.167 1.834-11.645 1.834-11.645" fill="#9c9a9a"/><path d="m30.167 131.597.26-.633-.446-1.008c-5.915-13.26-11.789-26.79-17.505-40.313.107.691.214 1.374.313 2.071 5.299 12.499 10.742 24.998 16.219 37.266z" fill="#9c9a9a"/><path d="m25.681 172.647c.142.894.295 1.786.437 2.672 14.252-45.582 28.746-91.158 43.153-135.727-1.879 4.486-3.762 9.004-5.659 13.549-12.684 39.363-25.397 79.438-37.931 119.506" fill="#9c9a9a"/><path d="m63.211 90.807 2.776-.754.25-1.639-2.776.756z" fill="#231f20"/><path d="m73.935 89.5 3.089-.784.506-3.258-3.1.795z" fill="#231f20"/><path d="m101.798 82.223-.596-2.28-1.309 2.69z" fill="#231f20"/><path d="m118.363 78.577c.012-.05.127-.831.127-.831.057-.372 0-.638-.175-.803-.185-.181-.474-.221-.899-.145l-1.822.339-.474 3.08 1.94-.368c.772-.138 1.191-.559 1.303-1.272" fill="#231f20"/><path d="m139.534 73.007-1.309 2.628 1.881-.285z" fill="#231f20"/><path d="m195.001 120.547-2.318.228-4.466.421c-.009.036-.027.06-.038.083-2.634 6.716-7.726 8.883-7.07 8.788.404-.126.807-.25 1.205-.386.775-.288 1.552-.625 2.312-1.012 5.727-2.877 10.375-8.122 10.375-8.122" fill="#9c9a9a"/><path d="m163.131 151.205c.193-.047.375-.087.577-.146.024-.019.043-.046.065-.087.719-.258 1.427-.567 2.116-.926 3.931-1.984 6.816-9.717 7.896-12.998.375-.686.748-1.375 1.101-2.066-.881.154-2.196.487-3.477.751-6.471 1.173-13.557 1.614-20.852 1.085-1.035 4.713-2.44 9.524-4.298 14.153.503.097 1.004.18 1.516.279.559.1 1.113.194 1.675.282.465.084 6.163 1.192 12.396-.044-.043.063-.103.115-.14.156.478-.126.949-.28 1.425-.439" fill="#a91f26"/></g></g></svg>