<svg clip-rule="evenodd" fill-rule="evenodd" stroke-miterlimit="22.926" viewBox="0 0 560 400" xmlns="http://www.w3.org/2000/svg" xmlns:xlink="http://www.w3.org/1999/xlink"><clipPath id="a"><path clip-rule="evenodd" d="m0 0h269.4v300h-269.4z"/></clipPath><clipPath id="b"><path clip-rule="evenodd" d="m26.889 207.592c19.549-24.579 17.541-63.028-4.651-79.059 10.067-6.743 7.891-21.303 14.425-36.236 11.648-26.619 35.781-55.439 98.117-50.476v165.771z"/></clipPath><g transform="matrix(.9 0 0 -.9 158.77 335)"><path d="m0 0 1.563 3.238 9.17 18.961h-38.692v-44.397h38.692z" transform="translate(258.666 210.586)"/><path d="m0 0h17.253v4.553h-9.509v32.061h9.509v4.553h-17.253zm17.253 0h17.251l-8.049 16.643-1.905 3.94 1.905 3.942 8.049 16.642h-17.251v-4.553h9.507l-4.972-10.281-2.778-5.75 2.778-5.75 4.972-10.28h-9.507z" fill="#fff200" transform="translate(232.321 190.003)"/><path d="m0 0-9.777-20.36 8.935-18.939h-27.518v-1.868h30.472l-8.049 16.643-1.905 3.94 1.905 3.941 8.049 16.643z" fill="#fcc826" transform="translate(264.713 231.17)"/><path d="m0 0-9.777-20.36 8.935-18.939h-27.518v-1.868h30.472l-8.049 16.643-1.905 3.94 1.905 3.941 8.049 16.643z" fill="#faa61a" transform="translate(264.713 231.17)"/><path d="m0 0v29.817h16.396l-7.21-14.909 7.21-14.908z" fill="#fff200" transform="translate(240.773 195.678)"/><path d="m0 0-7.564 15.01 7.062 13.772h-14.401v.576l.608.459h15.787l-7.212-14.909 7.212-14.908z" fill="#faa61a" transform="translate(255.676 195.678)"/><path d="m0 0v-.002l9.167-18.959 1.565-3.238-10.732-22.196v-.002h38.691v44.397z" fill-rule="nonzero" transform="translate(0 232.785)"/><path d="m0 0h-17.251l8.046 16.643 1.906 3.94-1.906 3.942-8.046 16.642h17.251v-4.553h-9.506l4.969-10.281 2.78-5.75-2.78-5.75-4.969-10.28h9.506zm17.25 0h-17.25v4.553h9.508v32.061h-9.508v4.553h17.25z" fill="#fff200" transform="translate(19.8257 190.003)"/><path d="m0 0 9.775-20.36-8.933-18.939h27.518v-1.868h-30.472l8.048 16.643 1.903 3.94-1.903 3.941-8.048 16.643z" fill="#fcc826" transform="translate(4.686 231.17)"/><path d="m0 0 9.775-20.36-8.933-18.939h27.518v-1.868h-30.472l8.048 16.643 1.903 3.94-1.903 3.941-8.048 16.643z" fill="#faa61a" transform="translate(4.686 231.17)"/><path d="m0 0v29.817h-16.396l7.21-14.909-7.21-14.908z" fill="#fff200" transform="translate(28.6265 195.678)"/><path d="m0 0 7.563 15.01-7.06 13.772h14.398v.576l-.607.459h-15.787l7.209-14.909-7.209-14.908z" fill="#faa61a" transform="translate(13.7236 195.678)"/><g clip-path="url(#a)"><path d="m0 0c-.028.1-.057.197-.082.294-.914 3.559.381 6.569 4.033 7.06v.118l1.143-.04 1.136.04v-.118c1.264-.174 2.451-.675 3.282-1.698 1.221-1.504 1.212-3.574.753-5.364-.027-.097-.054-.195-.08-.292l13.178 4.542-18.272-32.121-1.038 1.827-17.234 30.294z" transform="translate(129.388 27.5767)"/><path d="m0 0c-5.246-.19-3.876-5.941-2.031-8.451l-12.816 4.415 14.847-26.1z" fill="#fff200" transform="translate(134.16 33.6123)"/><path d="m0 0-12.818-4.414c1.847 2.509 3.214 8.255-2.028 8.451v-30.137z" fill="#faa61a" transform="translate(149.647 29.5757)"/><path d="m0 0c-62.337-4.962-86.471 23.855-98.117 50.478-6.533 14.933-4.356 29.493-14.424 36.235 22.194 16.033 24.199 54.479 4.651 79.057h107.89z" fill="#00a74c" transform="translate(134.78 41.8198)"/></g><g clip-path="url(#b)"><path d="m0 0 21.37 30.519 151.185-105.862-21.368-30.519z" fill="#00a651" transform="translate(.0205 171.007)"/><path d="m0 0-21.37-30.519 151.188-105.862 21.37 30.517z" fill="#fff" transform="translate(42.7588 232.046)"/><path d="m0 0 21.37 30.519 151.189-105.862-21.371-30.521z" fill="#00a651" transform="translate(42.7588 232.046)"/><path d="m0 0 21.371 30.519 151.185-105.862-21.368-30.519z" fill="#00a651" transform="translate(-42.7212 109.967)"/><path d="m0 0-21.37-30.519 151.188-105.865 21.37 30.521z" fill="#fff" transform="translate(.0195 171.007)"/></g><path d="m0 0c62.336-4.962 86.473 23.855 98.119 50.478 6.532 14.933 4.356 29.493 14.423 36.235-22.193 16.033-24.202 54.479-4.65 79.057h-107.892z" fill="#da2032" transform="translate(134.78 41.8198)"/><path d="m0 0 11.807 5.426h2.842v-30.039l-14.024-6.923 1.376-69.931 1.963-45.991-7.482-8.574-7.482 8.574 1.966 45.991 1.373 69.931-14.024 6.923v30.039h2.843l11.808-5.426.1 5.426h6.834z" transform="translate(137.997 201.403)"/><path d="m0 0v-6.401l-8.216-3.706v6.44l.018-.033zm0 6.992-8.198-3.699-.018.032v-6.44l8.216 3.707zm0 7.826v-7.231l-8.216-3.709v14.231h1.706l.114-6.234zm-8.216-154.311 5.721 6.553-1.943 45.48-1.392 70.873 5.83 2.88v6.714l-8.198-3.702-.018.033zm8.216 147.08v7.231l7.158 3.291h1.056v-6.817zm0-6.995 8.214 3.706v6.403l-8.214-3.709zm0-6.993v6.401l8.214 3.706v-6.401zm0-7.306 8.214 4.055v6.366l-8.214-3.707z" fill="#faa61a" transform="translate(142.975 187.277)"/><path d="m0 0v-6.4l-8.213 3.706v6.401zm0 6.993-8.213 3.709v-6.404l8.213-3.707zm0 7.663v-7.069l-8.213 3.706v6.657h1.056zm-8.213-17.945v-6.524l8.213-4.056v6.874zm8.213 10.876v7.069l6.394-2.94.118 6.234h1.701v-14.073zm0-6.996 8.213-3.705v6.4l-8.213 3.707zm0-6.991v6.4l8.213-3.706v-6.404zm0-7.469 5.827-2.878-1.392-70.874-1.943-45.478 5.721-6.557v128.955l-8.213 3.706z" fill="#fff200" transform="translate(125.985 187.438)"/><path d="m0 0c5.465 5.011 9.667 11.171 12.359 18.08 3.55 9.114 4.296 19.186 2.425 28.766-2.068 10.583-7.173 20.222-14.389 28.196l-2.346 2.595h10.784l2.567-3.311 1.794-2.575 1.652-2.645 1.514-2.713 1.374-2.769 1.231-2.82 1.097-2.864.956-2.9.817-2.93.68-2.954.54-2.966.406-2.978.269-2.98.131-2.975-.002-2.961-.14-2.943-.276-2.92-.408-2.882-.546-2.848-.68-2.797-.815-2.745-.949-2.685-1.084-2.616-1.216-2.544-1.351-2.458-1.484-2.369-1.618-2.275-1.75-2.17-1.885-2.058-2.014-1.942-2.149-1.813-1.539-1.134-.886.526c-1.964 1.175-3.802 2.894-3.566 5.38l.059.594z" transform="translate(18.4263 131.35)"/><path d="m0 0c-1.787 1.065-2.968 2.3-2.815 3.897 20.906 19.172 22.347 53.076.497 77.228h6.526l2.077-2.678 1.747-2.509 1.614-2.582 1.476-2.644 1.339-2.704 1.205-2.751 1.067-2.796.933-2.832.798-2.861.663-2.882.532-2.899.395-2.908.262-2.911.13-2.903-.004-2.889-.137-2.872-.267-2.847-.402-2.811-.529-2.77-.662-2.722-.793-2.673-.922-2.608-1.051-2.539-1.179-2.464-1.308-2.383-1.437-2.294-1.564-2.198-1.692-2.096-1.818-1.989-1.944-1.87-2.07-1.748z" fill="#faa61a" transform="translate(22.2905 126.308)"/><path d="m0 0c9.883-7.752 16.516-22.065 16.516-38.438 0-17.613-7.676-32.839-18.815-40.083-.013.03-.024.061-.035.093l-.003.003-.004.018-.007.02-.007.019-.008.018-.004.02-.007.02-.004.016v.002l-.019.062v.004l-.019.067v.004c-.016.066-.029.131-.042.197v.008l-.002.003-.009.067v.004l-.01.06v.005l-.001.017v.02l-.003.022-.002.013v.007l-.002.021-.003.035v.011l-.002.07v.007l-.002.062v.084l.002.063v.004l.005.073v.009l.004.064c20.906 19.173 22.347 53.073.499 77.229z" fill="#fff200" transform="translate(21.9585 207.434)"/><path d="m0 0c-.794-1.4-2.003-2.529-3.488-3.193-.759-.381-1.588-.595-2.437-.629-.085-.003-.174-.005-.262-.005-.093-.005-.188-.007-.281-.007-2.128 0-4.059.873-5.466 2.469-2.752 3.127-2.803 8.172.394 11.01 2.287 2.028 5.81 2.841 8.786 2.242 4.262-.859 8.092-3.795 10.766-7.137l.03-.034.64-.91.588-.95.536-.981.494-1.012.452-1.051.416-1.07.383-1.098.355-1.123.332-1.154.31-1.167.296-1.189.284-1.213.279-1.23.272-1.249.276-1.264.278-1.283.286-1.295.299-1.31.316-1.321.335-1.333.357-1.342.385-1.349.416-1.357.45-1.362.489-1.368.529-1.369.578-1.374 1.119-2.479 1.198-2.485 1.276-2.483 1.363-2.474 1.453-2.46 1.548-2.44 1.647-2.411 1.752-2.377 1.859-2.339 1.98-2.295 2.094-2.238 2.213-2.179 2.345-2.114 2.473-2.04 2.613-1.964 2.755-1.877 2.901-1.787 3.052-1.69 3.213-1.585 3.371-1.479 3.54-1.357 3.71-1.234 3.891-1.107 4.07-.971 4.259-.823 4.442-.676 4.647-.52 4.847-.357 5.055-.186 5.266-.006 5.484.173 4.724.301-1.479-2.401c-1.228-1.993-2.753-3.785-4.509-5.328-8.817-7.738-22.38-8.581-33.404-6.341-27.335 5.546-50.082 26.285-62.8 50.51-2.608 4.971-4.571 10.222-6.077 15.624-1.519 5.454-2.624 11.008-3.857 16.531-.549 2.44-1.154 4.872-1.941 7.246-.237.715-.487 1.425-.766 2.126" transform="translate(19.106 120.701)"/><path d="m0 0c-6.821-11.073-22.145-13.894-36.378-11.008-26.672 5.415-49.154 25.675-61.798 49.758-5.572 10.617-7.229 20.29-9.804 31.799-1.157 5.159-2.605 10.167-4.552 13.11.003-.034.003-.067.003-.102 0-2.62-1.523-4.872-3.696-5.829-.556-.286-1.188-.463-1.867-.491-.082-.003-.161-.003-.24-.003-.081-.004-.165-.006-.249-.006-5.618 0-8.045 7.422-4.1 10.926 1.94 1.725 4.999 2.414 7.528 1.904 3.897-.785 7.445-3.536 9.915-6.617l.59-.84.545-.878.501-.916.465-.951.427-.987.397-1.024.366-1.053.344-1.086.322-1.114.305-1.147.29-1.169.282-1.198.274-1.221.275-1.246.272-1.265.282-1.286.287-1.305.302-1.319.318-1.338.341-1.353.362-1.364.393-1.374.424-1.388.462-1.395.501-1.402.546-1.406.592-1.411 1.134-2.511 1.212-2.518 1.297-2.518 1.384-2.514 1.475-2.5 1.574-2.48 1.679-2.451 1.781-2.423 1.897-2.381 2.011-2.335 2.133-2.282 2.261-2.221 2.391-2.155 2.525-2.084 2.664-2.004 2.811-1.914 2.959-1.822 3.112-1.723 3.272-1.616 3.435-1.504 3.602-1.382 3.774-1.257 3.95-1.123 4.131-.984 4.316-.837 4.507-.686 4.705-.525 4.904-.359 5.106-.188 5.314-.009 5.531.177z" fill="#fff200" transform="translate(131.216 41.0991)"/><path d="m0 0c.042.06.082.117.124.181 4.425-.803 7.762-11.367 11.188-25.454 7.702-31.68 42.517-75.042 87.172-62.178.457-1.919.917-3.857 1.374-5.804-7.089-2.614-15.651-2.849-23.853-1.184-26.67 5.417-49.153 25.675-61.797 49.758-5.572 10.618-7.228 20.289-9.803 31.799-1.128 5.028-2.532 9.914-4.405 12.882m-12.203-.408c3.221-1.853 7.258-6.643 12.048.183-.131-2.47-1.612-4.563-3.685-5.48-.558-.283-1.189-.461-1.869-.487-.082-.005-.158-.005-.239-.005-.082-.004-.162-.006-.246-.006-3.461 0-5.712 2.812-6.009 5.795" fill="#faa61a" transform="translate(18.832 124.53)"/><path d="m0 0c-5.464 5.011-9.667 11.171-12.359 18.08-3.55 9.114-4.295 19.186-2.425 28.766 2.068 10.583 7.177 20.222 14.389 28.196l2.348 2.595h-10.787l-2.566-3.311-1.792-2.575-1.655-2.645-1.512-2.713-1.372-2.769-1.235-2.82-1.096-2.864-.954-2.9-.819-2.93-.681-2.954-.54-2.966-.405-2.978-.268-2.98-.134-2.975.005-2.961.139-2.943.276-2.92.409-2.882.545-2.848.679-2.797.816-2.745.948-2.685 1.085-2.616 1.216-2.544 1.35-2.458 1.486-2.369 1.617-2.275 1.75-2.17 1.885-2.058 2.016-1.942 2.147-1.813 1.539-1.134.887.526c1.963 1.175 3.8 2.894 3.564 5.38l-.056.594z" transform="translate(250.532 131.35)"/><path d="m0 0c1.787 1.065 2.968 2.3 2.813 3.897-20.905 19.172-22.345 53.076-.499 77.228h-6.522l-2.077-2.678-1.748-2.509-1.613-2.582-1.477-2.644-1.338-2.704-1.205-2.751-1.069-2.796-.934-2.832-.796-2.861-.664-2.882-.529-2.899-.397-2.908-.261-2.911-.131-2.903.005-2.889.137-2.872.267-2.847.399-2.811.532-2.77.661-2.722.792-2.673.924-2.608 1.05-2.539 1.179-2.464 1.309-2.383 1.437-2.294 1.564-2.198 1.692-2.096 1.817-1.989 1.945-1.87 2.07-1.748z" fill="#faa61a" transform="translate(246.669 126.308)"/><path d="m0 0c-9.879-7.752-16.514-22.065-16.514-38.438 0-17.613 7.675-32.839 18.815-40.083.012.03.025.061.037.093v.003l.007.018.005.02.006.019.002.007.005.011.007.02.006.02.004.016.003.002.015.062.002.004.016.067.003.004c.017.066.03.131.039.197l.003.008v.003l.012.067v.004l.005.042.001.018v.005l.003.017.002.02.002.022v.02l.003.021.002.035.002.007v.004l.003.07v.153l-.003.063v.004l-.004.073v.009l-.005.064c-20.906 19.173-22.346 53.073-.496 77.229z" fill="#fff200" transform="translate(246.998 207.434)"/><path d="m0 0c.795-1.4 2.002-2.529 3.487-3.193.758-.381 1.589-.595 2.437-.629.088-.003.177-.005.262-.005.095-.005.188-.007.283-.007 2.126 0 4.059.873 5.463 2.469 2.755 3.127 2.803 8.172-.392 11.01-2.288 2.028-5.809 2.841-8.785 2.242-4.263-.859-8.092-3.795-10.768-7.137l-.028-.034-.64-.91-.588-.95-.538-.981-.493-1.012-.454-1.051-.416-1.07-.381-1.098-.354-1.123-.332-1.154-.313-1.167-.295-1.189-.285-1.213-.276-1.23-.275-1.249-.273-1.264-.278-1.283-.289-1.295-.298-1.31-.315-1.321-.337-1.333-.356-1.342-.386-1.349-.414-1.357-.451-1.362-.487-1.368-.53-1.369-.58-1.374-1.118-2.479-1.196-2.485-1.276-2.483-1.362-2.474-1.453-2.46-1.55-2.44-1.645-2.411-1.753-2.377-1.862-2.339-1.979-2.295-2.091-2.238-2.214-2.179-2.345-2.114-2.473-2.04-2.613-1.964-2.756-1.877-2.901-1.787-3.054-1.69-3.209-1.585-3.372-1.479-3.542-1.357-3.711-1.234-3.887-1.107-4.074-.971-4.256-.823-4.443-.676-4.646-.52-4.848-.357-5.057-.186-5.265-.006-5.482.173-4.726.301 1.481-2.401c1.228-1.993 2.75-3.785 4.509-5.328 8.818-7.738 22.38-8.581 33.404-6.341 27.335 5.546 50.082 26.285 62.799 50.51 2.609 4.971 4.572 10.222 6.077 15.624 1.519 5.454 2.625 11.008 3.858 16.531.547 2.44 1.154 4.872 1.941 7.246.237.715.488 1.425.765 2.126" transform="translate(249.852 120.701)"/><path d="m0 0c6.818-11.073 22.146-13.894 36.381-11.008 26.667 5.415 49.15 25.675 61.794 49.758 5.575 10.617 7.228 20.29 9.806 31.799 1.153 5.159 2.604 10.167 4.549 13.11v-.102c0-2.62 1.524-4.872 3.694-5.829.558-.286 1.189-.463 1.871-.491.079-.003.157-.003.237-.003.082-.004.164-.006.246-.006 5.621 0 8.047 7.422 4.103 10.926-1.942 1.725-5.002 2.414-7.529 1.904-3.898-.785-7.445-3.536-9.914-6.617l-.59-.84-.545-.878-.502-.916-.464-.951-.429-.987-.394-1.024-.367-1.053-.344-1.086-.32-1.114-.307-1.147-.292-1.169-.281-1.198-.275-1.221-.27-1.246-.276-1.265-.282-1.286-.288-1.305-.301-1.319-.318-1.338-.342-1.353-.361-1.364-.392-1.374-.427-1.388-.459-1.395-.502-1.402-.545-1.406-.592-1.411-1.135-2.511-1.212-2.518-1.298-2.518-1.381-2.514-1.48-2.5-1.572-2.48-1.674-2.451-1.787-2.423-1.894-2.381-2.012-2.335-2.133-2.282-2.261-2.221-2.39-2.155-2.525-2.084-2.664-2.004-2.812-1.914-2.959-1.822-3.113-1.723-3.271-1.616-3.435-1.504-3.601-1.382-3.773-1.257-3.951-1.123-4.132-.984-4.316-.837-4.509-.686-4.702-.525-4.902-.359-5.108-.188-5.317-.009-5.529.177z" fill="#fff200" transform="translate(137.743 41.0991)"/><path d="m0 0c-.042.06-.081.117-.123.181-4.426-.803-7.763-11.367-11.189-25.454-7.703-31.68-42.518-75.042-87.172-62.178-.46-1.919-.917-3.857-1.375-5.804 7.091-2.614 15.652-2.849 23.855-1.184 26.668 5.417 49.151 25.675 61.796 49.758 5.572 10.618 7.227 20.289 9.804 31.799 1.125 5.028 2.531 9.914 4.404 12.882m12.203-.408c-3.22-1.853-7.258-6.643-12.048.183.127-2.47 1.611-4.563 3.686-5.48.557-.283 1.188-.461 1.868-.487.081-.005.158-.005.239-.005.078-.004.165-.006.246-.006 3.46 0 5.709 2.812 6.009 5.795" fill="#faa61a" transform="translate(250.127 124.53)"/><path d="m0 0c-2.343-2.104-5.34-3.621-8.442-4.163-2.414-.42-6.077-.341-7.379 2.154-.151.29-.257.594-.321.906-.637-.535-1.308-1.036-2.027-1.459-.518-.304-1.063-.566-1.627-.773-5.399-1.975-11.212-1.309-16.06 1.765l-.715.449c-4.212-1.633-8.708-2.62-13.247-2.422-4.447.192-8.611 1.499-12.437 3.764l-.264.155c-4.065-1.106-8.187-2.017-12.355-2.639-5.979-.89-12.036-1.154-18.05-.452-4.752.556-9.37 1.729-13.906 3.229l-4.608 1.526 4.685 1.268c7.108 1.925 14.232 3.805 21.352 5.686 25.431 6.716 50.885 13.47 75.737 22.136l.922.323.65-.732c1.176-1.327 2.353-2.652 3.529-3.98l.459-.518-.11-.682c-.738-4.584-.497-9.428 1.667-13.614 1.726-3.344 4.485-5.884 7.899-7.447 2.54-1.163 5.343-1.736 8.132-1.736 2.79 0 5.592.573 8.13 1.736 3.414 1.563 6.176 4.103 7.903 7.447 2.16 4.186 2.405 9.03 1.666 13.614l-.111.682.459.518c1.177 1.328 2.351 2.653 3.528 3.98l.65.732.923-.323c24.852-8.666 50.306-15.42 75.735-22.136 7.124-1.881 14.244-3.761 21.353-5.686l4.688-1.268-4.611-1.526c-4.535-1.5-9.154-2.673-13.904-3.229-6.016-.702-12.072-.438-18.049.452-4.17.622-8.291 1.533-12.358 2.639l-.263-.155c-3.826-2.265-7.99-3.572-12.438-3.764-4.651-.202-9.258.839-13.56 2.545l-.399-.251c-4.757-3.012-10.705-4.046-16.064-2.086-.563.207-1.106.469-1.626.771-.719.425-1.388.923-2.026 1.461-.063-.312-.17-.616-.321-.906-1.304-2.495-4.966-2.574-7.377-2.154-3.103.542-6.099 2.059-8.444 4.163-7.855-5.339-19.112-5.339-26.968 0" transform="translate(121.216 252.94)"/><path d="m0 0c32.396 8.77 64.793 16.558 97.187 27.853 1.177-1.326 2.354-2.654 3.53-3.98-5.273-32.652 43.548-32.652 38.278 0 1.176 1.326 2.352 2.654 3.53 3.98 32.394-11.295 64.788-19.083 97.186-27.853-16.693-5.523-36.771-8.025-89.858 18.899 12.981-7.378 28.638-13.712 44.999-19.322-15.294-9.046-31.878.299-47.17 13.852 5.732-5.886 13.073-10.785 20.734-15.346-4.711-2.982-10.068-3.668-14.779-1.945-4.157 1.523-6.05 6.081-12.47 9.084 15.954-10.274.441-13.739-7.693-5.222-7.682-5.928-19.554-5.928-27.238 0-8.134-8.517-23.645-5.052-7.692 5.222-6.419-3.003-8.313-7.561-12.472-9.084-4.711-1.723-10.065-1.36-14.778 1.625 7.663 4.558 15.004 9.78 20.736 15.666-15.294-13.553-31.877-22.898-47.171-13.852 16.362 5.61 32.016 11.944 44.999 19.322-53.087-26.924-73.167-24.422-89.858-18.899" fill="#fff200" transform="translate(14.8442 254.84)"/><path d="m0 0v-2.435c-27.728-14.068-57.431-21.635-85.583-25.125 10.323-2.604 22.906-3.191 43.481 3.346 7.368 2.38 14.848 5.255 22.254 8.528 6.898 3.047 13.345 6.168 19.985 9.742l.065-.064c.095-1.261.262-2.496.494-3.7-11.565-8.478-26.534-14.958-41.359-19.144 1.519-.446 3.026-.748 4.516-.92 12.222-1.186 24.873 6.796 36.746 17.319-.209-.214-.421-.427-.634-.642.427.372.848.741 1.263 1.108.515-1.901 1.2-3.708 2.03-5.4-3.333-5.073-12.217-10.196-19.036-12.675 3.494-1.028 7.117-.849 10.422.362 3.819 1.398 5.729 5.359 10.993 8.325l.021-.033c.459.259.942.509 1.455.748-.476-.307-.921-.606-1.342-.901.941-1.287 1.978-2.467 3.104-3.525-1.479-1.794-4.111-3.834-6.095-5.421 1.871-.169 4.271.046 6.668.956 1.875.786 3.76 1.995 5.357 3.669 1.211-.932 2.524-1.72 3.91-2.358l1.365 3.444c-5.561 2.4-10.006 7.348-10.985 14.844-.03.214-.055.427-.077.643-.016.149-.029.297-.041.448-.03.33-.052.667-.065 1.007l-.009.209c-.014.406-.02.817-.014 1.238v.036c.021 1.386.146 2.841.392 4.371l-3.525 3.971c-1.918-.669-3.838-1.325-5.756-1.971" fill="#faa61a" transform="translate(106.275 280.722)"/><path d="m0 0-.002-2.435c27.732-14.068 57.434-21.635 85.585-25.125-10.322-2.604-22.906-3.191-43.48 3.346-7.369 2.38-14.849 5.255-22.255 8.528-6.9 3.047-13.345 6.168-19.985 9.742l-.065-.064c-.095-1.261-.261-2.496-.494-3.7 11.565-8.478 26.534-14.958 41.359-19.144-1.519-.446-3.028-.748-4.518-.92-12.222-1.186-24.871 6.796-36.744 17.319.209-.214.421-.427.634-.642-.427.372-.848.741-1.263 1.108-.517-1.901-1.202-3.708-2.03-5.4 3.333-5.073 12.217-10.196 19.036-12.675-3.496-1.028-7.117-.849-10.422.362-3.819 1.398-5.729 5.359-10.993 8.325l-.024-.033c-.456.259-.941.509-1.452.748.473-.307.921-.606 1.342-.901-.941-1.287-1.98-2.467-3.104-3.525 1.479-1.794 4.111-3.834 6.093-5.421-1.869-.169-4.269.046-6.668.956-1.873.786-3.758 1.995-5.357 3.669-1.209-.932-2.522-1.72-3.91-2.358l-1.363 3.444c5.561 2.4 10.006 7.348 10.985 14.844.028.214.055.427.077.643.016.149.029.297.042.448.029.33.051.667.064 1.007l.009.209c.014.406.017.817.012 1.238v.036c-.018 1.386-.144 2.841-.39 4.371l3.525 3.971c1.918-.669 3.838-1.325 5.756-1.971" fill="#faa61a" transform="translate(163.135 280.722)"/><path d="m0 0c11.885 0 21.58 9.693 21.58 21.579 0 11.885-9.695 21.579-21.58 21.579-11.884 0-21.579-9.694-21.579-21.579 0-11.886 9.695-21.579 21.579-21.579" fill="#00a74c" transform="translate(134.699 252.579)"/><path d="m0 0c-14.268 0-25.842 11.575-25.842 25.843 0 14.271 11.574 25.842 25.842 25.842v-5.275c-11.358 0-20.566-9.209-20.566-20.567s9.208-20.568 20.566-20.568zm0 51.685c14.272 0 25.843-11.571 25.843-25.842 0-14.268-11.571-25.843-25.843-25.843v5.275c11.358 0 20.57 9.21 20.57 20.568s-9.212 20.567-20.57 20.567z" transform="translate(134.699 248.315)"/><path d="m0 0c-13.412 0-24.287 10.877-24.287 24.291 0 13.411 10.875 24.287 24.287 24.287v-2.168c-12.214 0-22.122-9.906-22.122-22.119 0-12.216 9.908-22.124 22.122-22.124zm0 48.578c13.413 0 24.291-10.876 24.291-24.287 0-13.414-10.878-24.291-24.291-24.291v2.167c12.215 0 22.123 9.908 22.123 22.124 0 12.213-9.908 22.119-22.123 22.119z" fill="#fff" transform="translate(134.699 249.869)"/><path d="m21.853 213.164h225.857v32.512h-225.857z" fill="#fff"/><path d="m0 0h120.103v-9h-111.219v-29.117h111.219v-9h-120.103zm120.103 0h120.1v-47.117h-120.1v9h111.217v29.117h-111.217z" transform="translate(14.6787 252.978)"/><path d="m0 0h119.103v-7h-112.22v-31.118h112.22v-6.999h-119.103zm119.103 0h119.1v-45.117h-119.1v6.999h112.216v31.118h-112.216z" transform="translate(15.6792 251.98)"/><path d="m0 0h117.935v-4.669h-113.382v-33.448h113.382v-4.67h-117.935zm117.935 0h117.938v-42.787h-117.938v4.67h113.386v33.448h-113.386z" fill="#faa61a" transform="translate(16.8433 250.814)"/><path d="m0 0 4.385-7.292h8.597z" transform="translate(202.515 184.738)"/><path d="m0 0-4.386 7.292v-14.042z" transform="translate(206.901 177.447)"/><path d="m0 0h8.907l4.075 7.622z" transform="translate(202.515 184.738)"/><path d="m0 0h-8.907l12.982-7.292z" transform="translate(211.422 184.738)"/><path d="m0 0h-8.647l-4.39-7.292z" transform="translate(202.515 184.738)"/><path d="m0 0h8.647l-13.036 7.622z" transform="translate(193.868 184.738)"/><path d="m0 0-4.129-7.292 4.129-6.749z" transform="translate(202.515 184.738)"/><path d="m0 0 4.128 7.292-13.035-7.292z" transform="translate(198.386 177.447)"/><path d="m0 0-4.129 7.622h-8.908z" transform="translate(202.515 184.738)"/><path d="m0 0 4.128-7.622v14.7z" transform="translate(198.386 192.36)"/><path d="m0 0 4.385 7.622-4.385 7.078z" transform="translate(202.515 184.738)"/><path d="m0 0-4.386-7.622 12.981 7.622z" transform="translate(206.901 192.36)"/><path d="m0 0 4.387-7.292h8.595z" fill="#faa61a" transform="translate(201.78 185.474)"/><path d="m0 0-4.389 7.292v-14.04z" fill="#faa61a" transform="translate(206.167 178.181)"/><path d="m0 0h8.91l4.072 7.621z" fill="#faa61a" transform="translate(201.78 185.474)"/><path d="m0 0h-8.91l12.985-7.292z" fill="#fff200" transform="translate(210.688 185.474)"/><path d="m0 0h-8.648l-4.389-7.292z" fill="#fff200" transform="translate(201.78 185.474)"/><path d="m0 0h8.648l-13.036 7.621z" fill="#faa61a" transform="translate(193.132 185.474)"/><path d="m0 0-4.129-7.292 4.129-6.75z" fill="#fff200" transform="translate(201.78 185.474)"/><path d="m0 0 4.128 7.292-13.035-7.292z" fill="#faa61a" transform="translate(197.651 178.181)"/><path d="m0 0-4.129 7.621h-8.908z" fill="#fff200" transform="translate(201.78 185.474)"/><path d="m0 0 4.128-7.622v14.7z" fill="#fff200" transform="translate(197.651 193.094)"/><path d="m0 0 4.387 7.621-4.387 7.079z" fill="#faa61a" transform="translate(201.78 185.474)"/><path d="m0 0-4.389-7.622 12.984 7.622z" fill="#fff200" transform="translate(206.167 193.094)"/><path d="m0 0 4.385-7.291h8.597z" transform="translate(202.515 149.186)"/><path d="m0 0-4.386 7.291v-14.041z" transform="translate(206.901 141.895)"/><path d="m0 0h8.907l4.075 7.622z" transform="translate(202.515 149.186)"/><path d="m0 0h-8.907l12.982-7.291z" transform="translate(211.422 149.186)"/><path d="m0 0h-8.647l-4.39-7.291z" transform="translate(202.515 149.186)"/><path d="m0 0h8.647l-13.036 7.622z" transform="translate(193.868 149.186)"/><path d="m0 0-4.129-7.291 4.129-6.747z" transform="translate(202.515 149.186)"/><path d="m0 0 4.128 7.291-13.035-7.291z" transform="translate(198.386 141.895)"/><path d="m0 0-4.129 7.622h-8.908z" transform="translate(202.515 149.186)"/><path d="m0 0 4.128-7.622v14.703z" transform="translate(198.386 156.809)"/><path d="m0 0 4.385 7.622-4.385 7.078z" transform="translate(202.515 149.186)"/><path d="m0 0-4.386-7.622 12.981 7.622z" transform="translate(206.901 156.809)"/><path d="m0 0 4.387-7.291h8.595z" fill="#faa61a" transform="translate(201.78 149.921)"/><path d="m0 0-4.389 7.292v-14.041z" fill="#faa61a" transform="translate(206.167 142.63)"/><path d="m0 0h8.91l4.072 7.622z" fill="#faa61a" transform="translate(201.78 149.921)"/><path d="m0 0h-8.91l12.985-7.291z" fill="#fff200" transform="translate(210.688 149.921)"/><path d="m0 0h-8.648l-4.389-7.291z" fill="#fff200" transform="translate(201.78 149.921)"/><path d="m0 0h8.648l-13.036 7.622z" fill="#faa61a" transform="translate(193.132 149.921)"/><path d="m0 0-4.129-7.291 4.129-6.747z" fill="#fff200" transform="translate(201.78 149.921)"/><path d="m0 0 4.128 7.292-13.035-7.292z" fill="#faa61a" transform="translate(197.651 142.63)"/><path d="m0 0-4.129 7.622h-8.908z" fill="#fff200" transform="translate(201.78 149.921)"/><path d="m0 0 4.128-7.622v14.7z" fill="#fff200" transform="translate(197.651 157.544)"/><path d="m0 0 4.387 7.622-4.387 7.081z" fill="#faa61a" transform="translate(201.78 149.921)"/><path d="m0 0-4.389-7.622 12.984 7.622z" fill="#fff200" transform="translate(206.167 157.544)"/><path d="m0 0 4.385-7.292h8.597z" transform="translate(202.515 113.635)"/><path d="m0 0-4.386 7.292v-14.042z" transform="translate(206.901 106.344)"/><path d="m0 0h8.907l4.075 7.622z" transform="translate(202.515 113.635)"/><path d="m0 0h-8.907l12.982-7.292z" transform="translate(211.422 113.635)"/><path d="m0 0h-8.647l-4.39-7.292z" transform="translate(202.515 113.635)"/><path d="m0 0h8.647l-13.036 7.622z" transform="translate(193.868 113.635)"/><path d="m0 0-4.129-7.292 4.129-6.746z" transform="translate(202.515 113.635)"/><path d="m0 0 4.128 7.292-13.035-7.292z" transform="translate(198.386 106.344)"/><path d="m0 0-4.129 7.622h-8.908z" transform="translate(202.515 113.635)"/><path d="m0 0 4.128-7.622v14.7z" transform="translate(198.386 121.257)"/><path d="m0 0 4.385 7.622-4.385 7.081z" transform="translate(202.515 113.635)"/><path d="m0 0-4.386-7.622 12.981 7.622z" transform="translate(206.901 121.257)"/><path d="m0 0 4.387-7.292h8.595z" fill="#faa61a" transform="translate(201.78 114.371)"/><path d="m0 0-4.389 7.292v-14.042z" fill="#faa61a" transform="translate(206.167 107.079)"/><path d="m0 0h8.91l4.072 7.622z" fill="#faa61a" transform="translate(201.78 114.371)"/><path d="m0 0h-8.91l12.985-7.292z" fill="#fff200" transform="translate(210.688 114.371)"/><path d="m0 0h-8.648l-4.389-7.292z" fill="#fff200" transform="translate(201.78 114.371)"/><path d="m0 0h8.648l-13.036 7.622z" fill="#faa61a" transform="translate(193.132 114.371)"/><path d="m0 0-4.129-7.292 4.129-6.749z" fill="#fff200" transform="translate(201.78 114.371)"/><path d="m0 0 4.128 7.292-13.035-7.292z" fill="#faa61a" transform="translate(197.651 107.079)"/><path d="m0 0-4.129 7.622h-8.908z" fill="#fff200" transform="translate(201.78 114.371)"/><path d="m0 0 4.128-7.622v14.7z" fill="#fff200" transform="translate(197.651 121.992)"/><path d="m0 0 4.387 7.622-4.387 7.078z" fill="#faa61a" transform="translate(201.78 114.371)"/><path d="m0 0-4.389-7.622 12.984 7.622z" fill="#fff200" transform="translate(206.167 121.992)"/><path d="m0 0 4.385-7.291h8.597z" transform="translate(202.515 78.084)"/><path d="m0 0-4.386 7.292v-14.04z" transform="translate(206.901 70.793)"/><path d="m0 0h8.907l4.075 7.622z" transform="translate(202.515 78.084)"/><path d="m0 0h-8.907l12.982-7.291z" transform="translate(211.422 78.084)"/><path d="m0 0h-8.647l-4.39-7.291z" transform="translate(202.515 78.084)"/><path d="m0 0h8.647l-13.036 7.622z" transform="translate(193.868 78.084)"/><path d="m0 0-4.129-7.291 4.129-6.75z" transform="translate(202.515 78.084)"/><path d="m0 0 4.128 7.292-13.035-7.292z" transform="translate(198.386 70.793)"/><path d="m0 0-4.129 7.622h-8.908z" transform="translate(202.515 78.084)"/><path d="m0 0 4.128-7.622v14.701z" transform="translate(198.386 85.7061)"/><path d="m0 0 4.385 7.622-4.385 7.078z" transform="translate(202.515 78.084)"/><path d="m0 0-4.386-7.622 12.981 7.622z" transform="translate(206.901 85.7061)"/><path d="m0 0 4.387-7.292h8.595z" fill="#faa61a" transform="translate(201.78 78.8193)"/><path d="m0 0-4.389 7.291v-14.041z" fill="#faa61a" transform="translate(206.167 71.5283)"/><path d="m0 0h8.91l4.072 7.621z" fill="#faa61a" transform="translate(201.78 78.8193)"/><path d="m0 0h-8.91l12.985-7.292z" fill="#fff200" transform="translate(210.688 78.8193)"/><path d="m0 0h-8.648l-4.389-7.292z" fill="#fff200" transform="translate(201.78 78.8193)"/><path d="m0 0h8.648l-13.036 7.621z" fill="#faa61a" transform="translate(193.132 78.8193)"/><path d="m0 0-4.129-7.292 4.129-6.747z" fill="#fff200" transform="translate(201.78 78.8193)"/><path d="m0 0 4.128 7.291-13.035-7.291z" fill="#faa61a" transform="translate(197.651 71.5283)"/><path d="m0 0-4.129 7.621h-8.908z" fill="#fff200" transform="translate(201.78 78.8193)"/><path d="m0 0 4.128-7.622v14.7z" fill="#fff200" transform="translate(197.651 86.4414)"/><path d="m0 0 4.387 7.621-4.387 7.079z" fill="#faa61a" transform="translate(201.78 78.8193)"/><path d="m0 0-4.389-7.622 12.984 7.622z" fill="#fff200" transform="translate(206.167 86.4414)"/><path d="m0 0c-19.931 14.479-24.393 42.329-9.961 62.191 14.428 19.862 42.295 24.225 62.226 9.745 19.929-14.479 24.392-42.33 9.959-62.191-14.43-19.862-42.295-24.225-62.224-9.745" transform="translate(108.355 76.5679)"/><path d="m0 0c-19.931 14.479-24.393 42.329-9.961 62.191 14.428 19.862 42.295 24.225 62.226 9.745 19.929-14.479 24.392-42.33 9.959-62.191-14.43-19.862-42.295-24.225-62.224-9.745z" fill="none" stroke="#000" stroke-width=".13" transform="translate(108.355 76.5679)"/><path d="m0 0 4.617 2.128-8.256 17.508-19.202 2.441-.597-5.05c2.762-3.926 6.206-7.473 10.31-10.452 4.101-2.981 8.54-5.162 13.128-6.575" transform="translate(121.483 69.9932)"/><path d="m0 0 4.617 2.128-8.256 17.508-19.202 2.441-.597-5.05c2.762-3.926 6.206-7.473 10.31-10.452 4.101-2.981 8.54-5.162 13.128-6.575z" fill="none" stroke="#000" stroke-width=".13" transform="translate(121.483 69.9932)"/><path d="m0 0-2.474-4.438 16.966-9.35 16.932 9.295-2.487 4.444c-4.54 1.564-9.407 2.419-14.474 2.425-5.064.009-9.928-.828-14.463-2.376" transform="translate(119.877 154.752)"/><path d="m0 0-2.474-4.438 16.966-9.35 16.932 9.295-2.487 4.444c-4.54 1.564-9.407 2.419-14.474 2.425-5.064.009-9.928-.828-14.463-2.376z" fill="none" stroke="#000" stroke-width=".13" transform="translate(119.877 154.752)"/><path d="m0 0 3.467-3.737 14.093 13.198-3.67 18.99-4.994-.975c-2.876-3.827-5.179-8.183-6.736-12.995-1.557-4.806-2.246-9.691-2.16-14.481" transform="translate(89.8867 111.744)"/><path d="m0 0 3.467-3.737 14.093 13.198-3.67 18.99-4.994-.975c-2.876-3.827-5.179-8.183-6.736-12.995-1.557-4.806-2.246-9.691-2.16-14.481z" fill="none" stroke="#000" stroke-width=".13" transform="translate(89.8867 111.744)"/><path d="m0 0-3.457-3.725-14.133 13.247 3.604 18.978 5-.993c2.888-3.836 5.204-8.199 6.776-13.015 1.573-4.813 2.279-9.702 2.21-14.492" transform="translate(179.076 111.742)"/><path d="m0 0-3.457-3.725-14.133 13.247 3.604 18.978 5-.993c2.888-3.836 5.204-8.199 6.776-13.015 1.573-4.813 2.279-9.702 2.21-14.492z" fill="none" stroke="#000" stroke-width=".13" transform="translate(179.076 111.742)"/><path d="m0 0-4.625 2.142 8.197 17.481 19.196 2.378.613-5.049c-2.748-3.92-6.181-7.455-10.275-10.422-4.093-2.967-8.522-5.133-13.106-6.53" transform="translate(147.44 69.9297)"/><path d="m0 0-4.625 2.142 8.197 17.481 19.196 2.378.613-5.049c-2.748-3.92-6.181-7.455-10.275-10.422-4.093-2.967-8.522-5.133-13.106-6.53z" fill="none" stroke="#000" stroke-width=".13" transform="translate(147.44 69.9297)"/><path d="m0 0-3.356 10.276-3.358 10.275 8.732 6.333 8.736 6.334 8.759-6.362 8.756-6.361-3.326-10.266-3.322-10.264-10.811.015z" transform="translate(123.876 97.9302)"/><path d="m0 0-3.356 10.276-3.358 10.275 8.732 6.333 8.736 6.334 8.759-6.362 8.756-6.361-3.326-10.266-3.322-10.264-10.811.015z" fill="none" stroke="#000" stroke-width=".13" transform="translate(123.876 97.9302)"/><path d="m0 0c-19.304 14.025-23.585 41.053-9.559 60.357 14.025 19.306 41.054 23.585 60.358 9.56 19.305-14.024 23.584-41.055 9.56-60.357-14.025-19.306-41.053-23.587-60.359-9.56" fill="#fff" transform="translate(108.83 77.6465)"/><path d="m0 0c-19.304 14.025-23.585 41.053-9.559 60.357 14.025 19.306 41.054 23.585 60.358 9.56 19.305-14.024 23.584-41.055 9.56-60.357-14.025-19.306-41.053-23.587-60.359-9.56z" fill="none" stroke="#000" stroke-width=".13" transform="translate(108.83 77.6465)"/><path d="m0 0 .188.085-8.269 17.603-19.299 2.426-.025-.205c2.906-4.852 6.812-9.213 11.676-12.742 4.862-3.535 10.217-5.905 15.729-7.167" transform="translate(124.559 70.4814)"/><path d="m0 0 .188.085-8.269 17.603-19.299 2.426-.025-.205c2.906-4.852 6.812-9.213 11.676-12.742 4.862-3.535 10.217-5.905 15.729-7.167z" fill="none" stroke="#000" stroke-width=".13" transform="translate(124.559 70.4814)"/><path d="m0 0-.02-.038 17.037-9.378 17.038 9.381-.142.253c-10.989 4.616-23.268 4.388-33.913-.218" transform="translate(117.024 152.247)"/><path d="m0 0-.02-.038 17.037-9.378 17.038 9.381-.142.253c-10.989 4.616-23.268 4.388-33.913-.218z" fill="none" stroke="#000" stroke-width=".13" transform="translate(117.024 152.247)"/><path d="m0 0 14.154 13.278-3.655 19.1-.124-.024c-.804-.93-1.581-1.9-2.318-2.914-6.433-8.857-9.012-19.335-8.057-29.44" transform="translate(91.2119 108.565)"/><path d="m0 0 14.154 13.278-3.655 19.1-.124-.024c-.804-.93-1.581-1.9-2.318-2.914-6.433-8.857-9.012-19.335-8.057-29.44z" fill="none" stroke="#000" stroke-width=".13" transform="translate(91.2119 108.565)"/><path d="m0 0-.035-.04-14.187 13.305 3.657 19.104.072-.015c7.88-9.004 11.532-20.772 10.493-32.354" transform="translate(177.266 108.692)"/><path d="m0 0-.035-.04-14.187 13.305 3.657 19.104.072-.015c7.88-9.004 11.532-20.772 10.493-32.354z" fill="none" stroke="#000" stroke-width=".13" transform="translate(177.266 108.692)"/><path d="m0 0 8.238 17.541 19.298 2.423.028-.239c-.608-.999-1.257-1.978-1.959-2.941-6.454-8.883-15.662-14.583-25.605-16.784" transform="translate(143.581 70.4214)"/><path d="m0 0 8.238 17.541 19.298 2.423.028-.239c-.608-.999-1.257-1.978-1.959-2.941-6.454-8.883-15.662-14.583-25.605-16.784z" fill="none" stroke="#000" stroke-width=".13" transform="translate(143.581 70.4214)"/><path d="m0 0-3.252 10.005-3.251 10.007 8.512 6.183 8.511 6.185 8.512-6.185 8.511-6.183-3.251-10.007-3.251-10.005z" transform="translate(123.882 98.3633)"/><path d="m0 0-3.252 10.005-3.251 10.007 8.512 6.183 8.511 6.185 8.512-6.185 8.511-6.183-3.251-10.007-3.251-10.005z" fill="none" stroke="#000" stroke-width=".13" transform="translate(123.882 98.3633)"/><path d="m0 0 20.387 6.624.19-.585-20.389-6.623z" fill-rule="nonzero" transform="translate(149.466 118.219)"/><path d="m0 0 12.6-17.341-.496-.362-12.603 17.344z" fill-rule="nonzero" transform="translate(143.666 100.575)"/><path d="m0 0-12.6-17.342-.499.36 12.6 17.343z" fill-rule="nonzero" transform="translate(125.108 98.9375)"/><path d="m0 0-20.385 6.624.19.584 20.385-6.624z" fill-rule="nonzero" transform="translate(119.2 117.265)"/><path d="m0 0-.19 21.435.611.006.193-21.437z" fill-rule="nonzero" transform="translate(134.062 127.144)"/><path d="m0 0-.035-.04-14.187 13.305 3.657 19.104.072-.015c7.88-9.004 11.532-20.772 10.493-32.354" transform="translate(177.266 108.692)"/><path d="m0 0-.035-.04-14.187 13.305 3.657 19.104.072-.015c7.88-9.004 11.532-20.772 10.493-32.354z" fill="none" stroke="#000" stroke-width=".13" transform="translate(177.266 108.692)"/><path d="m0 0v-3.271c-.074-.003-.148-.006-.226-.006-.997 0-1.902.302-2.613 1.018-.751.762-1.095 1.827-1.241 2.865l-.079.554 3.291.425.06-.562c.028-.262.095-.633.277-.835.13-.144.285-.19.475-.19zm0 11.82v-3.293c-.033.005-.067.01-.104.01-.26 0-.437-.136-.585-.344-.268-.374-.307-1.121-.307-1.563 0-.48.049-1.213.345-1.619.164-.232.363-.385.651-.392v-3.011c-.118-.014-.241-.021-.367-.021-1.163 0-2.098.56-2.818 1.454-.825 1.027-1.125 2.293-1.125 3.589 0 1.349.313 2.66 1.188 3.714.806.97 1.86 1.476 3.12 1.476zm-9.735-5.688c-.644-.516-1.36-.926-2.148-1.228l-.751-.287v3.566l.357.135c.629.241 1.237.715 1.731 1.162.592.541 1.024 1.183 1.258 1.946l.118.394h2.788v-14.854h-3.353zm27.991 1.88-.135-.887c.275.07.552.107.84.107 1.214 0 2.203-.538 2.961-1.472.852-1.041 1.166-2.323 1.166-3.648 0-1.186-.288-2.307-.924-3.312-.843-1.329-2.056-2.067-3.639-2.067-1.161 0-2.207.352-3.039 1.179-.835.832-1.247 1.908-1.38 3.068l-.062.545 3.34.401.06-.558c.041-.391.155-.792.427-1.089.182-.204.397-.339.675-.339.327 0 .557.184.745.438.323.443.383 1.163.383 1.69 0 .487-.06 1.149-.374 1.553-.211.276-.466.413-.817.413-.554 0-.975-.367-1.298-.785l-.202-.262-2.691.454 1.313 8.134h6.965v-3.563zm-9.103 0-.133-.887c.272.07.553.107.841.107 1.212 0 2.198-.538 2.961-1.472.85-1.041 1.163-2.323 1.163-3.648 0-1.186-.288-2.307-.923-3.312-.84-1.329-2.054-2.067-3.639-2.067-1.158 0-2.206.352-3.036 1.179-.838.832-1.251 1.908-1.383 3.068l-.061.545 3.34.401.061-.558c.038-.391.155-.792.426-1.089.184-.204.396-.339.675-.339.328 0 .558.184.744.438.322.441.383 1.163.383 1.69 0 .487-.061 1.149-.372 1.553-.211.276-.469.413-.819.413-.552 0-.975-.367-1.296-.785l-.204-.262-2.692.454 1.317 8.134h6.962v-3.563zm-9.153-11.283v3.271c.297.026.503.25.664.494.197.302.325.876.406 1.45-.325-.175-.68-.292-1.07-.336v3.011h.016c.283 0 .481.149.646.373.281.376.334.975.334 1.425 0 .539-.072 1.198-.395 1.65-.149.209-.344.414-.601.46v3.293c1.437-.002 2.553-.686 3.377-1.847 1.061-1.498 1.247-3.841 1.247-5.617 0-1.828-.198-4.208-1.298-5.742-.824-1.148-1.933-1.821-3.326-1.885" transform="translate(129.77 269.851)"/><path d="m0 0v-2.164c-.075-.002-.148-.006-.226-.006-.917 0-1.654.285-2.218.857-.567.568-.929 1.419-1.091 2.553l2.174.279c.056-.516.195-.899.418-1.147s.518-.374.886-.374zm0 11.819v-2.181c-.035.004-.07.006-.105.006-.416 0-.761-.191-1.033-.574-.277-.383-.412-1.012-.412-1.884 0-.883.148-1.532.447-1.946.295-.408.662-.614 1.103-.619v-1.901c-.119-.016-.242-.025-.367-.025-.922 0-1.717.417-2.386 1.246-.668.831-1.005 1.912-1.005 3.245 0 1.389.355 2.507 1.061 3.357.705.851 1.603 1.276 2.695 1.276zm-6.938-13.745h-2.244v9.889c-.821-.899-1.787-1.563-2.898-1.989v2.381c.582.224 1.22.647 1.907 1.271.687.629 1.16 1.358 1.413 2.193h1.822zm21.594 3.52 2.237.27c.062-.59.253-1.058.566-1.404.315-.347.678-.52 1.086-.52.469 0 .868.226 1.193.668.323.446.488 1.119.488 2.014 0 .839-.163 1.47-.486 1.889-.323.421-.742.632-1.258.632-.644 0-1.22-.333-1.735-1.002l-1.823.31 1.154 7.124h5.937v-2.454h-4.236l-.353-2.329c.501.296 1.012.44 1.537.44.995 0 1.84-.422 2.529-1.268.695-.846 1.041-1.947 1.041-3.297 0-1.126-.279-2.133-.839-3.015-.762-1.209-1.817-1.811-3.172-1.811-1.082 0-1.961.337-2.644 1.017-.682.677-1.093 1.59-1.222 2.736m-9.103 0 2.238.27c.062-.59.252-1.058.565-1.404.316-.347.678-.52 1.087-.52.472 0 .868.226 1.193.668.322.446.488 1.119.488 2.014 0 .839-.162 1.47-.485 1.889-.324.421-.742.632-1.259.632-.645 0-1.221-.333-1.733-1.002l-1.822.31 1.149 7.124h5.939v-2.454h-4.236l-.35-2.329c.501.296 1.009.44 1.534.44.995 0 1.84-.422 2.532-1.268.691-.846 1.039-1.947 1.039-3.297 0-1.126-.28-2.133-.838-3.015-.766-1.209-1.82-1.811-3.172-1.811-1.084 0-1.964.337-2.646 1.017-.682.677-1.091 1.59-1.223 2.736m-5.553-3.758v2.164c.438.018.813.268 1.125.746.328.496.534 1.528.625 3.1-.481-.655-1.066-1.029-1.75-1.126v1.901h.016c.429 0 .795.197 1.091.594.297.399.443.986.443 1.757 0 .847-.168 1.503-.5 1.97-.306.43-.656.662-1.05.696v2.181c1.188 0 2.162-.538 2.923-1.612.762-1.075 1.145-2.841 1.145-5.296 0-2.506-.4-4.31-1.193-5.419-.745-1.04-1.704-1.592-2.875-1.656" fill="#fff" transform="translate(129.324 269.815)"/><path d="m0 0h-115.902v40.048h115.902v-2.764h-113.384v-35.355h113.384zm115.9 40.048v-40.048h-115.9v1.929h113.382v35.355h-113.382v2.764z" fill="#fff200" transform="translate(134.78 210.767)"/><path d="m0 0c.853.174 1.727.15 2.58-.063.179-.041.361-.083.542-.125 1.55.814 3.252 1.123 5.003.859 1.322-.202 2.87-.565 3.384-1.98.627-1.723.824-1.55-.966-1.991-.006-.005-.013-.009-.02-.012-.023-.012-.046-.025-.07-.037-.025-.009-.049-.019-.072-.028-2.738-1.072-5.093-2.806-5.762-5.825-.253-1.091-.323-2.283.023-3.365.051-.149.104-.295.155-.446.006-.065.01-.133.017-.199.034-.446-.011-.877-.199-1.284-.005-.012-.011-.023-.015-.035-.007-.01-.012-.021-.016-.032-.747-1.446-2.451-1.46-3.845-1.231-.929.126-1.764.52-2.419 1.198-.098.097-.185.204-.271.312-.697-.157-1.43-.035-2.104.241-.004.004-.011.007-.015.007-.516.222-.975.54-1.36.941-.817-.392-1.75-.263-2.581.151-.016.01-.032.017-.048.024-.017.009-.031.018-.047.027-.263.157-.511.334-.741.538-1.07-.272-2.119-.036-3.03.607-.042.033-.086.062-.13.093-.038.042-.075.081-.112.12-.724.792-1.235 1.706-1.458 2.739-.397.086-.798.13-1.207.13-.027 0-.06 0-.09-.002-.016.002-.03.002-.046.002-.402-.002-.796-.046-1.188-.13-.224-1.033-.731-1.947-1.46-2.742-.035-.036-.073-.075-.109-.117-.042-.031-.086-.06-.13-.093-.912-.643-1.962-.879-3.031-.607-.227-.204-.476-.379-.741-.538-.013-.009-.03-.018-.046-.027-.014-.007-.031-.014-.049-.024-.83-.414-1.761-.543-2.578-.151-.385-.401-.848-.719-1.368-.941-.002-.003-.006-.005-.011-.007-.673-.276-1.406-.398-2.1-.241-.086-.108-.179-.215-.274-.312-.655-.678-1.49-1.072-2.416-1.198-1.395-.229-3.1-.215-3.845 1.231-.008.011-.012.02-.017.029-.005.013-.011.024-.014.035-.19.407-.237.841-.202 1.287.005.064.012.134.017.199.053.151.104.297.157.446.346 1.082.277 2.276.021 3.372-.668 3.014-3.026 4.748-5.759 5.818-.027.009-.049.019-.075.028-.023.012-.047.025-.07.037-.007.003-.014.007-.021.012-1.79.441-1.592.268-.966 1.991.516 1.415 2.066 1.778 3.384 1.98 1.752.264 3.454-.045 5.004-.859.181.042.362.084.543.125.855.213 1.727.237 2.581.063.121.1.251.188.391.262.72.402 1.577.431 2.378.325.039-.003.081-.004.121-.007.11.084.22.167.332.251.022.013.044.025.066.039 1.386.836 2.943.734 4.378.084.181-.081.361-.163.538-.25.133.08.264.159.397.241.021.011.044.023.068.032 4.388 2.112 7.955 2.112 12.344 0 .023-.009.044-.021.067-.032.132-.079.265-.161.396-.241.18.085.358.169.538.25 1.435.65 2.994.754 4.38-.084.022-.011.045-.026.066-.039.111-.084.223-.167.331-.251.042.003.082.004.121.007.8.106 1.657.077 2.377-.325.142-.074.274-.162.394-.262" transform="translate(149.322 43.9438)"/><path d="m0 0c3.685 0 6.67-3.031 6.67-6.77 0-2.061-.906-3.906-2.338-5.148l-.014.026c-.068.144-.08.319-.066.516l.098.273c.404 1.244.422 2.668.065 4.207-.657 2.967-2.706 5.197-6.125 6.673.545.144 1.119.223 1.71.223z" fill="none" stroke="#000" stroke-width=".13" transform="translate(112.055 41.9854)"/><path d="m0 0c0-.026-.03-.049-.058-.049-1.968-1.594-3.773-4.21-3.903-6.617l-.685.202c-.571.126-1.084.177-1.597.177h-.028v-.003l-.009.003-.012-.003v.003h-.025c-.514 0-1.028-.051-1.597-.177l-.685-.202c-.13 2.407-1.935 5.023-3.906 6.617-.027 0-.056.023-.056.049l.741.452c4.025 1.936 7.125 1.904 11.079 0z" fill="#fcc826" transform="translate(140.76 43.0894)"/><path d="m0 0c.087-.023.176-.067.264-.111 3.751-1.472 5.988-3.779 6.679-6.903.359-1.539.339-2.963-.064-4.207l-.095-.274c-.014-.198-.005-.371.062-.515.263-.507 1.014-.653 2.312-.434 3.196.417 3.129 5.109.984 8.849-1.622 2.837-4.441 5.129-7.935 4.598-.722-.109-1.952-.304-2.207-1.003" fill="#faa61a" transform="translate(109.525 42.1035)"/><path d="m0 0c-.03-.443-.09-.861-.176-1.253 0 0 .137-.171.388-.492.371-.295.884-.269 1.475.026 4.296 2.541-1.295 10.561-4.715 10.641-.684.097-1.2.049-1.544-.146-.188-.1-.287-.224-.352-.321.287-.173.574-.346.862-.565.115-.076.228-.173.344-.247.056-.074.141-.123.2-.172 1.309-1.107 2.293-2.53 2.926-4.278.434-1.13.6-2.211.592-3.193" fill="#faa61a" transform="translate(125.308 34.0903)"/><path d="m0 0c.827-.859 1.539-1.82 2.11-2.826 1.167-1.99 1.683-3.906 1.539-5.775-.028-.343-.055-.689-.144-1.058 0-.047-.028-.12-.028-.195.458-.37 1.056-.392 1.769-.1 4.331 1.871.02 12.563-5.731 11.084l-.54-.122c.314-.293.626-.59.912-.885.028-.048.055-.074.113-.123" fill="#faa61a" transform="translate(117.885 41.2656)"/><path d="m0 0c1.027-.813 1.997-1.917 2.909-3.293.995-1.499 1.48-2.976 1.453-4.449 0-.516-.086-1.032-.228-1.548 0-.026 0-.075-.029-.124.683-.22 1.34-.1 1.967.345 1.511 1.648 1.568 3.687.17 6.142-.683 1.23-1.424 2.165-2.194 2.779-.457.394-1.112.761-1.938 1.129-1.142.516-2.168.516-3.021 0l-.228-.171c.397-.221.768-.49 1.139-.81" fill="#faa61a" transform="translate(124.596 42.5205)"/><path d="m0 0c4.558 0 8.256-3.078 8.256-6.87 0-1.895-.923-3.611-2.418-4.854-.006.087-.006.176 0 .273l.098.274c.402 1.243.422 2.671.063 4.208-.692 3.123-2.927 5.432-6.679 6.901l-.077.037c.25.022.501.031.757.031" fill="#fff200" transform="translate(110.47 42.0591)"/><path d="m0 0c3.356-.919 5.768-3.437 5.768-6.397 0-1.349-.502-2.604-1.362-3.659.027.218.049.43.064.64.144 1.868-.371 3.785-1.538 5.774-.572 1.007-1.284 1.968-2.111 2.827-.057.051-.085.074-.113.123-.223.23-.463.462-.708.692" fill="#fff200" transform="translate(117.064 42.0806)"/><path d="m0 0c2.704 0 4.896-2.655 4.896-5.93 0-1.402-.401-2.689-1.074-3.703-.111.139-.169.213-.169.213.085.392.146.812.176 1.253.007.981-.158 2.063-.592 3.196-.633 1.745-1.618 3.17-2.927 4.275-.058.049-.143.098-.199.172-.116.074-.229.171-.343.245-.112.087-.223.166-.335.237.186.028.374.042.567.042" fill="#fff200" transform="translate(121.479 42.2573)"/><path d="m0 0c3.609-.259 6.455-3.072 6.455-6.505 0-1.35-.442-2.606-1.198-3.648.004.024.004.044.004.06.144.515.228 1.031.228 1.545.03 1.477-.455 2.95-1.453 4.449-.912 1.377-1.88 2.482-2.909 3.293-.366.317-.733.585-1.127.806" fill="#fff200" transform="translate(123.468 43.3247)"/><path d="m0 0c-.086-.023-.175-.067-.265-.111-3.751-1.472-5.988-3.779-6.679-6.903-.357-1.539-.339-2.963.064-4.207l.095-.274c.017-.198.005-.371-.062-.515-.262-.507-1.014-.653-2.312-.434-3.193.417-3.126 5.109-.986 8.849 1.624 2.837 4.445 5.129 7.94 4.598.719-.109 1.951-.304 2.205-1.003" fill="#faa61a" transform="translate(159.482 42.1035)"/><path d="m0 0c.031-.443.091-.861.177-1.253 0 0-.137-.171-.387-.492-.373-.295-.885-.269-1.477.026-4.295 2.541 1.295 10.561 4.716 10.641.685.097 1.2.049 1.544-.146.188-.1.287-.224.354-.321-.29-.173-.58-.346-.865-.565-.116-.076-.229-.173-.344-.247-.055-.074-.141-.123-.197-.172-1.311-1.107-2.295-2.53-2.928-4.278-.434-1.13-.6-2.211-.593-3.193" fill="#faa61a" transform="translate(143.699 34.0903)"/><path d="m0 0c-.826-.859-1.538-1.82-2.109-2.826-1.167-1.99-1.683-3.906-1.539-5.775.028-.343.056-.689.142-1.058 0-.047.03-.12.03-.195-.458-.37-1.056-.392-1.769-.1-4.333 1.871-.018 12.563 5.73 11.084l.541-.122c-.313-.293-.626-.59-.912-.885-.028-.048-.055-.074-.114-.123" fill="#faa61a" transform="translate(151.122 41.2656)"/><path d="m0 0c-1.026-.813-1.996-1.917-2.906-3.293-.998-1.499-1.483-2.976-1.455-4.449 0-.516.087-1.032.228-1.548 0-.026 0-.075.029-.124-.684-.22-1.338-.1-1.968.345-1.508 1.648-1.566 3.687-.169 6.142.682 1.23 1.425 2.165 2.193 2.779.458.394 1.112.761 1.94 1.129 1.14.516 2.166.516 3.02 0l.23-.171c-.4-.221-.77-.49-1.142-.81" fill="#faa61a" transform="translate(144.411 42.5205)"/><g fill="#fff200"><path d="m0 0c-4.559 0-8.256-3.078-8.256-6.87 0-1.895.924-3.611 2.416-4.854.009.087.007.176 0 .273l-.095.274c-.403 1.243-.425 2.671-.065 4.208.692 3.123 2.929 5.432 6.68 6.901l.076.037c-.249.022-.501.031-.756.031" transform="translate(158.539 42.0591)"/><path d="m0 0c-3.355-.919-5.767-3.437-5.767-6.397 0-1.349.501-2.604 1.365-3.659-.032.218-.052.43-.067.64-.144 1.868.37 3.785 1.539 5.774.57 1.007 1.283 1.968 2.109 2.827.057.051.086.074.114.123.222.23.463.462.707.692" transform="translate(151.943 42.0806)"/><path d="m0 0c-2.706 0-4.898-2.655-4.898-5.93 0-1.402.402-2.689 1.073-3.703.111.139.171.213.171.213-.086.392-.146.812-.175 1.253-.008.981.157 2.063.591 3.196.634 1.745 1.617 3.17 2.928 4.275.056.049.142.098.198.172.114.074.227.171.344.245.111.087.22.166.333.237-.184.028-.375.042-.565.042" transform="translate(147.529 42.2573)"/><path d="m0 0c-3.61-.259-6.454-3.072-6.454-6.505 0-1.35.441-2.606 1.198-3.648-.007.024-.007.044-.007.06-.141.515-.228 1.031-.228 1.545-.028 1.477.457 2.95 1.455 4.449.911 1.377 1.88 2.482 2.906 3.293.367.317.735.585 1.13.806" transform="translate(145.541 43.3247)"/><path d="m0 0c0-.021-.021-.042-.042-.042-1.453-1.278-2.787-3.382-2.879-5.315l-.507.163c-.419.1-.8.142-1.176.142h-.022v-.002h-.016v.002h-.02c-.379 0-.757-.042-1.177-.142l-.504-.163c-.097 1.933-1.43 4.037-2.883 5.315-.02 0-.042.021-.042.042l.547.365c2.97 1.554 5.258 1.526 8.176 0z" transform="translate(139.113 43.1665)"/></g><path d="m0 0c1.783 0 3.238 1.453 3.238 3.237 0 1.783-1.455 3.238-3.238 3.238-1.782 0-3.237-1.455-3.237-3.238 0-1.784 1.455-3.237 3.237-3.237" fill="#00a74c" transform="translate(30.9844 225.567)"/><path d="m0 0c1.782 0 3.237 1.453 3.237 3.238 0 1.783-1.455 3.235-3.237 3.235s-3.235-1.452-3.235-3.235c0-1.785 1.453-3.238 3.235-3.238" fill="#00a74c" transform="translate(238.575 226.428)"/><path d="m0 0h-12.618v17.632c.576.443 1.472 1.085 2.69 1.925l2.358 1.363 1.626.763 1.031.432h4.913v-2.567c-.724-.341-1.332-.759-1.827-1.251v-5.147c.708.396 1.317.963 1.827 1.692v-4.22c-.545.322-1.154.599-1.827.834v-9.266c.544.096 1.152.607 1.827 1.533zm27.992 22.115v-5.758c-.68 1.111-1.476 2.268-2.39 3.467l-.7-.763-.795-.899c-.177-.244-.321-.519-.432-.829.176-1.86.884-4.362 2.126-7.505.332-.886.74-1.803 1.227-2.757.314-.611.636-1.2.964-1.763v-5.308h-8.633c-.532.731-.941 1.406-1.229 2.026l-1.063 2.358-1.03 2.59c-.485 1.195-.952 2.787-1.395 4.781-.376 1.659-.564 3.154-.564 4.482 1.351 1.284 2.626 2.369 3.818 3.253 1.53 1.13 2.88 2.003 4.052 2.625zm-15.573-15.141c-.864-2.481-2.258-4.804-4.184-6.974h-8.235v3.723c.427.584.882 1.337 1.362 2.252.465.864.797 1.683.996 2.458-.573.873-1.359 1.604-2.358 2.189v4.22c.797 1.174 1.362 2.524 1.692 4.052.091.399.135.828.135 1.294-.673-.171-1.284-.385-1.827-.64v2.567h7.139c.508-.488.931-.942 1.263-1.363l1.891-2.455c-.952-2.038-2.59-3.852-4.914-5.446 3.056-1.617 5.401-3.577 7.04-5.877m15.573-6.974v5.308c.575-.99 1.172-1.906 1.794-2.753l.464.299c1.371.887 2.058 1.771 2.058 2.658 0 .243-.032.42-.1.531-.087.84-.352 1.671-.795 2.49-.731 2.701-1.86 5.292-3.389 7.771l-.032.053v5.758h8.466c1.307-2.038 2.513-4.672 3.621-7.902.664-1.927 1.273-4.097 1.826-6.511-.687-1.018-1.462-1.991-2.325-2.921-1.528-1.683-3.375-3.277-5.545-4.781zm29.006 22.115v-2.811c-.727-.381-1.363-.937-1.91-1.672v-7.571c.716.656 1.353 1.401 1.91 2.23v-4.813l-1.91.459v-7.937h-11.092v17.632c2.015 1.725 3.653 2.877 4.916 3.452l.861.399 1.13.632zm93.287-22.115h-11.62l-2.425 11.887c-.952-4.116-2.27-8.078-3.95-11.887h-6.175v8.833h5.045c1.77 3.674 3.077 8.102 3.92 13.282h8.898zm-25.7 0h-11.456l-4.916 9.033v-9.033h-10.424v22.115h10.424v-10.061l5.348 10.061h6.043l-7.271-10.061c.816-.179 2.036-.51 3.653-.997 1.392-.421 2.434-.821 3.122-1.196zm-28.856 8.833c-.531-1.418-1.45-3.001-2.756-4.749-1.217-1.617-2.456-2.977-3.719-4.084h-14.11c-1.395 2.546-2.545 5.203-3.453 7.97-.355 1.039-.687 2.445-.999 4.217-.308 1.594-.463 2.965-.463 4.117 1.151 1.127 2.645 2.367 4.483 3.717.442.333.852.621 1.228.864l1.859 1.23h11.92c1.661-1.33 3.079-2.966 4.252-4.916l-7.503-3.086c-1.508 2.921-2.958 4.948-4.352 6.075-1.107-.951-1.882-1.947-2.323-2.989-.046-.109-.068-.211-.068-.3 0-1.459.397-3.253 1.196-5.377 1.13-3.009 2.977-5.877 5.547-8.601h.428c1.284 1.838 2.226 3.809 2.823 5.912zm-38.731-1.355v4.813c.267.398.515.817.744 1.255.775 1.506 1.164 2.912 1.164 4.217 0 .687-.121 1.375-.365 2.061-.552-.097-1.068-.269-1.543-.52v2.811h5.727c.952-.554 2.18-1.727 3.686-3.521 1.128-1.35 1.914-2.656 2.355-3.918-.485-1.106-1.139-2.27-1.958-3.488-.708-1.039-1.639-2.079-2.79-3.119-.376-.334-.718-.631-1.028-.898-.221-.176-.596-.463-1.128-.864zm104.876 14.637v-7.018l-2.224-7.395h2.224v-4.481h-3.553l-.897-3.221h-5.709l9.397 22.115zm0-18.894v4.481h2.225l-2.19 7.506-.035-.111v7.018h8.135l7.472-22.115h-11.323l-.929 3.221z" fill="#00a74c" fill-rule="nonzero" transform="translate(52.3491 218.387)"/><path d="m0 0c-1.553.281-2.711.846-3.471 1.69-1.05 1.167-1.572 2.622-1.572 4.373 0 1.842.545 3.32 1.641 4.43.784.799 1.922 1.337 3.402 1.61v-2.767c-.413-.15-.751-.358-1.017-.626-.6-.605-.901-1.522-.901-2.747 0-1.636.637-2.695 1.918-3.173zm5.073-.197v-1.859h-3.154v1.859c-.693.028-1.335.093-1.919.197v2.79c.531-.197 1.173-.297 1.919-.297v7.127c-.756 0-1.397-.095-1.919-.284v2.767c.588.11 1.226.177 1.919.203v1.577h3.154v-1.577c.699-.026 1.34-.091 1.922-.198v-2.785c-.529.197-1.169.297-1.922.297v-7.127c.731 0 1.373.107 1.922.318v-2.811c-.582-.104-1.223-.169-1.922-.197m9.609 14.093h3.222v-6.79c.721.071 1.206.255 1.459.554.253.297.647 1.125 1.174 2.48.669 1.727 1.342 2.801 2.013 3.221.668.422 1.745.63 3.233.63.073 0 .226.004.466.013v-2.38l-.457.011c-.657 0-1.14-.084-1.444-.246-.304-.165-.555-.411-.74-.746-.188-.336-.467-1.018-.838-2.058-.198-.55-.408-1.012-.636-1.383-.23-.367-.636-.715-1.214-1.042.718-.205 1.311-.613 1.778-1.23.469-.618.979-1.491 1.539-2.611l2.177-4.375h-3.786l-1.905 4.122c-.031.06-.091.171-.186.339-.035.057-.171.306-.401.749-.413.783-.755 1.275-1.016 1.472-.266.197-.671.297-1.216.304v-6.986h-3.222zm-7.687-1.788c1.544-.278 2.697-.836 3.461-1.673 1.055-1.154 1.582-2.616 1.582-4.385 0-1.756-.523-3.211-1.573-4.369-.766-.84-1.922-1.4-3.47-1.681v2.811c.088.032.17.067.253.104.604.283 1.036.666 1.289 1.142.252.478.382 1.181.382 2.103 0 1.629-.64 2.685-1.924 3.163z" fill="#dc2434" transform="translate(55.3262 185.055)"/></g></svg>