<svg clip-rule="evenodd" fill-rule="evenodd" stroke-linejoin="round" stroke-miterlimit="2" viewBox="0 0 560 400" xmlns="http://www.w3.org/2000/svg"><g transform="matrix(.912224 0 0 .912224 179.734 70.3851)"><path d="m109.949.36c-29.014 13.103-56.661 16.487-81.932 3.456-6.552 9.647-13.104 19.223-19.728 28.871 9.648 19.079 18.576 34.774 19.512 52.558 1.871 35.062-28.007 64.077-27.503 96.692.936 62.926 51.982 101.876 109.651 101.876 57.598 0 108.644-38.95 109.58-101.876.504-32.615-29.375-61.63-27.503-96.692.936-17.784 9.864-33.479 19.512-52.558-6.552-9.648-13.176-19.224-19.728-28.871-25.271 13.031-52.918 9.647-81.861-3.456zm-78.621 15.263c-4.031 5.904-8.063 11.808-12.167 17.784 8.352 16.199 17.063 32.83 17.999 51.334.36 6.552-.216 13.031-1.584 19.367-2.088 10.224-5.976 19.943-10.295 29.447-6.48 14.543-15.84 31.967-15.624 48.238.864 56.158 45.934 92.661 100.292 92.661 54.286 0 99.357-36.503 100.221-92.661.072-1.944-.072-3.96-.288-5.904-1.584-14.399-9.504-29.231-15.336-42.334-6.984-15.479-12.815-31.535-11.879-48.814 1.008-18.504 9.647-35.135 17.999-51.334-4.032-5.976-8.136-11.88-12.168-17.784-26.063 10.296-53.206 5.76-78.549-5.039-25.415 10.799-52.558 15.335-78.621 5.039zm-.648 219.16 151.555-166.674c3.24-12.023 8.999-23.327 14.687-34.486-3.24-4.68-6.408-9.432-9.648-14.112-25.775 9.288-52.486 4.896-77.325-5.4-24.911 10.296-51.622 14.688-77.397 5.4-3.168 4.68-6.407 9.432-9.647 14.112 8.279 16.127 16.487 32.542 17.495 50.974.36 6.768-.288 13.535-1.656 20.159-2.16 10.512-6.12 20.375-10.511 30.095-6.264 13.967-15.624 31.247-15.336 46.87.288 20.807 6.84 38.735 17.783 53.062zm-1.584-226.863c-5.687 8.351-11.375 16.703-17.063 24.983 8.28 16.343 17.999 33.622 19.007 52.198.288 5.976-.288 11.879-1.44 17.783-2.087 9.72-5.831 19.079-9.935 28.151-6.984 15.695-16.416 33.263-16.2 50.83.936 59.614 48.815 98.708 106.484 98.708 57.598 0 105.476-39.094 106.412-98.708 0-2.232-.072-4.464-.36-6.624-1.656-15.263-9.647-30.383-15.839-44.206-6.552-14.615-12.24-29.663-11.376-45.934 1.008-18.576 10.728-35.855 19.008-52.198-5.688-8.28-11.376-16.632-17.064-24.983-26.567 12.527-54.718 7.487-80.781-4.032-26.135 11.519-54.286 16.559-80.853 4.032z" fill="#006f9f"/><path d="m124.853 122.755h5.616c1.944-2.88 4.967-6.479 8.711-6.479 3.672 0 6.768 3.599 8.712 6.479h4.68c1.872-2.808 4.752-6.479 8.351-6.479 3.6 0 6.552 3.671 8.352 6.479h5.616c-5.904-7.127-11.808-14.327-17.639-21.455h-14.904v-5.832c-9.719-4.391-21.815-6.983-32.399-7.415-10.655.432-22.751 3.024-32.47 7.415v5.832h-14.832c-5.904 7.128-11.807 14.328-17.711 21.455h5.616c1.8-2.808 4.751-6.479 8.351-6.479s6.552 3.671 8.352 6.479h4.68c1.944-2.88 5.04-6.479 8.712-6.479 3.743 0 6.839 3.599 8.711 6.479h5.616c.936-2.736 2.088-5.039 3.816-7.343 2.52-3.312 6.768-6.84 11.159-6.84 4.32 0 8.568 3.528 11.088 6.84 1.728 2.304 2.88 4.607 3.816 7.343z" fill="#fff"/><g fill-rule="nonzero"><path d="m109.949 88.773c-10.655.432-22.463 3.096-31.75 7.199v4.392c9.143-4.824 21.455-7.632 31.75-7.632 10.224 0 22.536 2.808 31.679 7.632v-4.392c-9.287-4.103-21.095-6.767-31.679-7.199zm0 5.183c-10.655 0-23.039 2.952-32.326 8.064h-14.688l-16.415 20.015h3.6c2.52-4.031 5.831-6.479 8.783-6.479 2.88 0 6.192 2.448 8.784 6.479h3.888c2.664-4.031 6.048-6.479 9.072-6.479 3.023 0 6.479 2.448 9.143 6.479h4.68c.864-2.664 2.232-5.039 3.744-7.055 3.384-4.392 7.848-7.128 11.735-7.128 3.816 0 8.28 2.736 11.664 7.128 1.512 2.016 2.88 4.391 3.744 7.055h4.68c2.664-4.031 6.119-6.479 9.143-6.479s6.48 2.448 9.144 6.479h3.888c2.52-4.031 5.832-6.479 8.711-6.479 2.952 0 6.264 2.448 8.784 6.479h3.6l-16.415-20.015h-14.688c-9.287-5.112-21.671-8.064-32.255-8.064zm0 15.12c-3.527 0-7.631 2.592-10.727 6.624-1.872 2.448-2.952 4.751-3.888 7.559h-6.192c-1.872-2.808-4.896-6.479-8.495-6.479-3.6 0-6.624 3.671-8.424 6.479h-5.256c-1.728-2.736-4.608-6.479-8.064-6.479-3.528 0-6.407 3.743-8.135 6.479h-6.84c6.192-7.487 12.311-14.975 18.431-22.463h14.688v-5.616c9.503-4.319 21.815-7.199 32.902-7.559 11.016.36 23.4 3.24 32.903 7.559v5.616h14.616c6.119 7.488 12.311 14.976 18.431 22.463h-6.84c-1.728-2.736-4.608-6.479-8.136-6.479-3.455 0-6.335 3.743-8.063 6.479h-5.256c-1.8-2.808-4.824-6.479-8.424-6.479s-6.623 3.671-8.423 6.479h-6.264c-.936-2.808-2.016-5.111-3.888-7.559-3.096-4.032-7.2-6.624-10.656-6.624z" fill="#2a2627"/><path d="m40.76 32.687h9.504v3.6h-5.832v7.199h5.04v3.672h-5.04v10.8h-3.672zm21.671 20.375c0 3.528-1.728 5.328-5.256 5.328-3.455 0-5.255-1.8-5.255-5.328v-15.479c0-3.528 1.8-5.328 5.255-5.328 3.528 0 5.256 1.8 5.256 5.328v3.383h-3.672v-3.383c0-1.152-.504-1.728-1.584-1.728s-1.584.576-1.584 1.728v15.479c0 1.152.504 1.728 1.584 1.728s1.584-.576 1.584-1.728v-3.384h3.672zm16.632 4.896h-4.968l-2.592-16.344-1.224-8.927h3.744l2.52 19.511 2.592-19.511h3.671l-1.152 8.927zm15.839-4.896c0 3.528-1.728 5.328-5.256 5.328s-5.256-1.8-5.256-5.328v-20.375h3.672v20.375c0 1.152.504 1.728 1.584 1.728s1.584-.576 1.584-1.728v-20.375h3.672zm2.448-15.479c0-3.528 1.728-5.328 5.256-5.328s5.255 1.8 5.255 5.328v3.383h-3.671v-3.383c0-1.152-.504-1.728-1.584-1.728s-1.584.576-1.584 1.728v2.303c0 1.08 1.152 2.52 3.384 4.104 2.304 1.656 3.455 3.6 3.455 5.904v3.168c0 3.528-1.727 5.328-5.255 5.328-3.456 0-5.256-1.8-5.256-5.328v-3.384h3.672v3.384c0 1.152.504 1.728 1.584 1.728s1.584-.576 1.584-1.728v-2.88c0-1.224-1.152-2.664-3.384-4.32-2.304-1.584-3.456-3.6-3.456-5.904zm13.103-4.896h3.672v10.799h3.168v-10.799h3.672v25.271h-3.672v-10.8h-3.168v10.8h-3.672zm22.824 0v3.6h-3.456v21.671h-3.6v-21.671h-3.456v-3.6zm1.799 0h5.328c3.24 0 4.896 1.728 4.896 5.328v3.815c0 2.232-1.008 3.672-2.88 4.392l4.104 11.736h-4.032l-3.312-11.088-.432.072v11.016h-3.672zm3.672 3.6v7.199h.864c.504 0 .864 0 1.008-.072.648-.288 1.008-.792 1.008-1.584v-3.815c0-1.152-.504-1.728-1.584-1.728zm9.36-3.6h5.256c3.24 0 4.896 1.728 4.896 5.328v3.815c0 2.232-.936 3.672-2.88 4.392l4.104 11.736h-4.032l-3.24-11.088-.504.072v11.016h-3.6zm3.6 3.6v7.199h.864c.504 0 .864 0 1.008-.072.72-.288 1.008-.792 1.008-1.584v-3.815c0-1.152-.504-1.728-1.584-1.728zm9.431-3.6h3.6v25.271h-3.6zm16.704 16.343 1.224 8.928h-3.672l-.72-5.328h-3.744l-.72 5.328h-3.672l1.152-8.928 2.592-16.343h5.04zm-3.672 0-1.368-10.583-1.44 10.583z" fill="#006f9f"/><path d="m82.014 262.79v-13.535h-3.815l2.088-3.96h6.119v17.495zm19.08-8.928c.792 0 1.44-.288 1.944-.72.432-.504.72-1.152.72-2.016 0-.792-.288-1.511-.72-1.943-.504-.504-1.152-.792-1.944-.792-.864 0-1.512.288-2.016.792-.432.432-.72 1.151-.72 1.943 0 .864.288 1.512.72 2.016.504.432 1.152.72 2.016.72zm.216 2.808c-.288.072-.576.144-.936.216-.288 0-.576.072-.936.072-1.512 0-2.736-.576-3.744-1.584-1.008-1.08-1.44-2.376-1.44-4.032 0-1.943.576-3.527 1.8-4.679s2.88-1.728 4.968-1.728c2.016 0 3.672.576 4.896 1.728 1.152 1.152 1.799 2.736 1.799 4.679 0 1.008-.288 2.16-.719 3.312-.432 1.152-1.296 2.592-2.448 4.392l-2.448 3.744h-4.968zm23.039 6.12h-13.536l7.92-9.36c.504-.576.864-1.152 1.08-1.584s.36-.864.36-1.296c0-.647-.216-1.151-.576-1.511-.432-.432-.936-.576-1.584-.576-.72 0-1.296.216-1.728.72s-.576 1.151-.576 2.087v.216h-4.32v-.144c0-1.943.648-3.527 1.8-4.679s2.736-1.728 4.824-1.728c1.944 0 3.528.504 4.752 1.512 1.152 1.008 1.728 2.376 1.728 4.103 0 .792-.144 1.584-.576 2.376-.36.792-.936 1.656-1.8 2.592l-3.24 3.528h5.472zm17.135 0h-13.535l7.919-9.36c.504-.576.864-1.152 1.08-1.584s.36-.864.36-1.296c0-.647-.216-1.151-.576-1.511-.432-.432-.936-.576-1.512-.576-.792 0-1.368.216-1.799.72-.36.504-.576 1.151-.576 2.087v.216h-4.248v-.144c0-1.943.576-3.527 1.728-4.679s2.808-1.728 4.823-1.728c1.944 0 3.528.504 4.752 1.512 1.152 1.008 1.728 2.376 1.728 4.103 0 .792-.144 1.584-.504 2.376-.432.792-1.008 1.656-1.872 2.592l-3.168 3.528h5.4z" fill="#fff"/><path d="m147.82 149.106c-9.72-9.143-23.111-14.831-37.871-14.831-14.831 0-28.223 5.688-37.87 14.831-9.72 9.216-15.696 21.888-15.696 35.927s5.976 26.711 15.696 35.927c9.647 9.143 23.039 14.831 37.87 14.831 14.76 0 28.151-5.688 37.871-14.831 9.648-9.216 15.623-21.888 15.623-35.927s-5.975-26.711-15.623-35.927z" fill="#fff"/><path d="m109.949 133.627c14.904 0 28.439 5.76 38.231 15.047 9.792 9.288 15.839 22.176 15.839 36.359s-6.047 27.071-15.839 36.359c-9.792 9.287-23.327 15.047-38.231 15.047-14.975 0-28.511-5.76-38.302-15.047-9.792-9.288-15.84-22.176-15.84-36.359s6.048-27.071 15.84-36.359c9.791-9.287 23.327-15.047 38.302-15.047zm37.583 15.767c-9.648-9.143-22.967-14.759-37.583-14.759-14.687 0-28.007 5.616-37.582 14.759-9.648 9.144-15.624 21.743-15.624 35.639 0 13.895 5.976 26.495 15.624 35.639 9.575 9.143 22.895 14.759 37.582 14.759 14.616 0 27.935-5.616 37.583-14.759 9.576-9.144 15.551-21.744 15.551-35.639 0-13.896-5.975-26.495-15.551-35.639z" fill="#2a2627"/></g><path d="m113.333 137.443c-9.647-.648-19.079 1.584-28.367 6.192 0 1.655.072 3.311.072 4.895 6.336 1.152 12.672 2.304 18.936 3.384 5.039-2.664 10.079-5.4 15.119-8.135-1.944-2.088-3.816-4.176-5.76-6.336zm27.071 85.461c7.92-6.048 13.896-13.32 17.064-22.392-1.368-1.44-2.736-2.88-4.104-4.247-5.184 2.231-10.368 4.535-15.624 6.839-1.296 5.76-2.592 11.52-3.888 17.28 2.16.792 4.392 1.656 6.552 2.52zm17.784-51.119c-2.52-7.415-5.904-14.183-11.592-19.295-2.592.36-5.184.72-7.776 1.152.72 4.824 1.44 9.648 2.16 14.472 4.032 2.736 8.064 5.471 12.168 8.207 1.656-1.512 3.384-3.024 5.04-4.536zm-31.895 3.456-17.136-6.407-13.967 13.895 9.864 15.047 21.311-4.103zm-26.927 56.446c-6.912-1.584-13.248-4.032-18.791-7.92-.072-3.455-.216-6.839-.288-10.295 5.831.072 11.735.144 17.639.216 3.816 3.6 7.632 7.2 11.375 10.799-3.311 2.376-6.623 4.752-9.935 7.2zm-39.167-39.886c-1.08-7.704-.432-15.408 2.52-23.111 3.024-.72 6.048-1.44 9.144-2.16 1.584 5.471 3.24 11.015 4.896 16.487-2.088 4.32-4.104 8.568-6.192 12.888-3.456-1.368-6.912-2.736-10.368-4.104z" fill="#006f9f"/><path d="m125.789 175.601-16.56-6.191-13.391 13.391 9.432 14.4 20.591-3.96zm14.543 46.799c3.816-2.952 7.2-6.264 10.008-9.864.144-.216.36-.432.504-.648 2.52-3.456 4.536-7.272 6.048-11.304l-3.6-3.743-15.12 6.623-3.744 16.56zm.36.936-.216.144c-8.495 6.119-19.079 9.719-30.527 9.719-3.599 0-7.127-.36-10.511-1.008l-.216-.072c-3.312-.648-6.48-1.656-9.504-2.88l-.432-.216c-3.168-1.296-6.192-2.88-8.999-4.896-2.232-1.511-4.32-3.167-6.264-5.039-7.488-7.128-12.672-16.488-14.328-26.927v-.216c-.36-2.304-.504-4.608-.504-6.912 0-5.688 1.008-11.16 2.952-16.271v-.072l.072-.216h.072l.072-.216c2.52-6.552 6.552-12.456 11.664-17.28 3.096-2.952 6.624-5.544 10.439-7.631l.288-.144c7.416-4.032 15.984-6.336 25.199-6.336h.072c1.008 0 2.088 0 3.096.072h.288c12.6.864 23.975 6.048 32.399 14.039.36.36.792.72 1.152 1.08 2.88 2.664 5.184 5.688 7.056 9 .648 1.008 1.224 2.16 1.728 3.24 1.152 2.376 2.16 4.824 2.952 7.343l.072.288c1.223 4.176 1.871 8.568 1.871 13.104 0 5.472-.935 10.8-2.735 15.695-1.512 4.248-3.6 8.064-6.192 11.592-1.728 2.448-3.744 4.68-5.904 6.768-1.584 1.512-3.312 2.952-5.112 4.248zm-1.296-.288-5.616-2.16-24.263 4.031-8.927 6.48c3.024.504 6.12.792 9.359.792 11.016 0 21.168-3.384 29.447-9.143zm-5.975-3.096c1.295-5.544 2.519-11.088 3.815-16.704l-11.015-9.071c-6.912 1.368-13.896 2.664-20.807 4.031l-6.912 15.408 11.015 10.295zm4.391-17.424c5.04-2.232 10.08-4.392 15.048-6.623l-.216-19.296-11.736-7.919-14.111 6.839c0 5.976.072 11.952.072 17.928zm16.056-6.479 3.384 3.527c1.584-4.607 2.448-9.503 2.448-14.543 0-4.248-.648-8.424-1.728-12.384l-4.392 3.888zm3.744-24.408c-.792-2.303-1.656-4.607-2.664-6.767-2.232-4.392-5.112-8.352-8.496-11.88l-7.056 1.008 2.016 13.824 11.664 7.847zm-17.208-3.815-2.016-13.896-19.295-9.575-14.543 7.847 4.967 16.272 16.704 6.191zm-1.44-14.688 6.624-1.008c-.144-.144-.36-.288-.504-.432-7.92-7.559-18.647-12.599-30.527-13.679l4.824 5.328zm-61.845 29.375 17.855-.288c4.536-4.464 9.072-9 13.607-13.535l-4.967-16.344-18.36-3.24-12.887 17.496zm17.855.72-17.927.288-5.904 12.384 9.432 17.063 17.063.216 6.84-15.408c-3.168-4.823-6.336-9.647-9.504-14.543zm-15.191 30.383-9.576-17.279-9.432-3.744c1.728 10.007 6.696 18.935 13.968 25.775 1.656 1.584 3.456 3.096 5.328 4.392zm1.295 9.864c2.808 1.871 5.76 3.455 8.928 4.823h.072l.144.072c2.88 1.152 5.904 2.016 9 2.736l9.359-6.696-10.871-10.223-16.919-.216zm-17.567-55.51 8.064-1.872 12.959-17.712-.072-3.887c-3.527 2.015-6.839 4.391-9.719 7.199-4.896 4.608-8.712 10.152-11.232 16.272zm-3.096 12.311c-.36 3.744-.288 7.416.216 11.16l9.72 3.816 5.832-12.312-4.68-15.839-8.424 2.016-.072.216-.216.432c-1.224 3.527-2.016 7.055-2.376 10.511zm48.958-42.406c-3.455 0-6.839.432-10.223 1.224-4.608 1.008-9.144 2.664-13.68 4.824l.072 4.247 18.36 3.24 14.399-7.775-5.184-5.688c-1.08-.072-2.088-.072-3.168-.072zm-24.623 5.328c4.68-2.304 9.36-4.032 14.184-5.112z" fill="#2a2627" fill-rule="nonzero"/></g></svg>