<svg clip-rule="evenodd" fill-rule="evenodd" stroke-linejoin="round" stroke-miterlimit="2" viewBox="0 0 560 400" xmlns="http://www.w3.org/2000/svg"><g fill-rule="nonzero" transform="matrix(.339617 0 0 .339617 145.668 -1.28878)"><path d="m91.563 602.492c-85.608-208.252-54.197-407.305-54.197-407.305h716.351s31.398 199.053-54.196 407.305c-110.659 269.182-303.979 387.707-303.979 387.707s-193.32-118.525-303.979-387.707z" fill="#fae811"/><path d="m150.305 678.354c.276.526.558 1.052.839 1.578 95.553 179.055 244.383 282.781 244.383 282.781h.005s148.79-103.713 244.384-282.781c.26-.484.88-1.645.88-1.645h-140.924l-.125.187c-35.091 51.944-73.581 91.114-104.113 117.939h.006c-30.572-26.865-69.116-66.075-104.233-118.125h-140.124z" fill="#211e1e"/><g fill="#fae811"><path d="m409.488 865.274c-2 .443-3.552 1.057-4.921 2.276-1.959 1.74-2.698 3.792-1.396 5.265.901 1.01 1.817 1.187 3.645.557l2.749-.984c3.093-1.115 5.302-.865 6.953 1 3.103 3.489 2.344 8.478-2.093 12.42-2.156 1.912-4.823 3.177-7.317 3.521l-.755-3.349c2.302-.297 4.551-1.244 6.343-2.838 2.057-1.828 2.697-4.26 1.333-5.792-1.073-1.208-2.145-1.364-4.291-.625l-2.584.896c-2.907 1-4.932.818-6.672-1.135-2.609-2.937-2.145-7.609 2.193-11.464 1.798-1.587 4.088-2.754 6.052-3.035z"/><path d="m413.621 851.142c-1.188 1.093-3.006 1.057-4.104-.13-1.094-1.188-1.016-3.036.166-4.131 1.183-1.099 3-.995 4.099.193 1.094 1.182 1.026 2.973-.162 4.068m14.399 21.505-3.073 2.844-11.343-19.093 2.724-3.415z"/><path d="m437.086 841.676 8.748 14.052-2.885 2.787-7.942-12.708c-.568-.901-.958-1.499-1.323-1.874-.937-.974-1.833-.958-2.776-.052-1.192 1.151-2.171 3.849-1.754 8.109l7.734 12.368-2.86 2.749-8.302-13.386c-.776-1.244-1.38-2.062-1.984-2.687-.547-.568-1.062-.974-1.734-1.36l1.552-3.797c.765.354 1.526.828 2.25 1.584.37.374.729.88 1.089 1.437-.37-3.584.807-6.77 2.906-8.802 1.948-1.875 4.322-1.803 6.172.114.395.412.786.943 1.109 1.473z"/><path d="m459.217 831.943c.974 1.437 1.694 2.385 2.312 3 .875.854 1.588 1.125 2.453 1.239l-1.234 3.625c-1.172-.052-2.224-.416-3.344-1.515l-.406-.396c.401 3.082-.318 5.619-2.333 7.671-2.989 3.057-6.297 2.625-9.723-.734-3.146-3.088-5.193-7.541-5.235-11.921-.031-2.958 1.297-5.811 2.979-7.526 1.557-1.588 2.754-2.369 3.74-2.693-.037-.088-1.256-1.896-1.818-2.754l-4.135-6.131 3.218-2.349 13.519 20.479m-12.254-4.14c-1.073 1.089-1.792 3.073-1.682 4.89.213 2.834 2.51 7.041 4.718 9.208 1.869 1.833 3.536 2.068 4.912.661 1.557-1.588 2.302-4.464 1.338-7.973l-5.917-8.92c-1.322.359-2.057.796-3.369 2.136z"/><path d="m466.817 808.345c-1.953.625-3.437 1.385-4.688 2.729-1.781 1.917-2.328 4.03-.885 5.374.989.917 1.917 1.01 3.677.203l2.64-1.234c2.978-1.401 5.197-1.36 7.021.338 3.415 3.178 3.135 8.219-.907 12.562-1.963 2.109-4.505 3.62-6.952 4.197l-1.073-3.26c2.265-.515 4.415-1.671 6.051-3.426 1.875-2.016 2.276-4.494.776-5.89-1.182-1.104-2.26-1.156-4.328-.224l-2.489 1.14c-2.797 1.276-4.833 1.287-6.749-.5-2.874-2.671-2.859-7.363 1.099-11.613 1.636-1.755 3.807-3.131 5.735-3.599z"/><path d="m493.482 800.479 2.604-3 2.01 2.677-7.994 9.182-1.979-2.708 2.75-3.156-8.749-11.613c-.458 2.322-.984 4.521-1.828 6.682l-2.281-1.235 1.806-10.114 1.979-2.27z"/><path d="m511.481 787.146c.208 5.562-1.282 11.182-3.547 15.426l-3.016-.401c3.516-6.494 4.115-15.013 1.495-20.186-.146 2.088-.75 3.907-2.396 5.891-2.505 3.026-6.978 3.223-10.338.437-5.136-4.26-5.349-11.52-1.344-16.359 3.203-3.863 7.765-4.103 11.833-.734 4.13 3.426 7.041 9.067 7.311 15.919m-17.172-12.645c-2.39 2.885-1.599 7.12 2 10.098 2.349 1.948 4.708 1.979 6.291.063 1.172-1.412 1.798-3.328 2.006-5.765-1.12-2-2.246-3.448-3.453-4.448-2.416-2.005-5.115-2.03-6.844.052z"/><path d="m526.146 762.081c.162 2.844-.677 5.62-2.526 7.989-3.167 4.062-7.041 4.416-11.068 1.276-3.197-2.495-6.062-6.833-6.54-10.693-.375-3.062.437-6.026 2.453-8.603 3.166-4.057 7.161-4.426 11.223-1.26 3.406 2.655 6.245 7.311 6.458 11.291m-15.599-7.521c-1.156 1.479-1.546 3.114-1.229 4.906.521 2.953 3.573 6.771 5.912 8.598 2.614 2.036 4.53 1.708 6.302-.562 1.099-1.407 1.593-2.964 1.318-4.666-.464-3.022-3.115-6.584-6.068-8.891-2.546-1.983-4.494-1.625-6.234.615z"/><path d="m533.212 741.549c2.188-2.021 5.14-1.906 7.177-.406 4.849 3.568 5.297 11.863-1.135 20.612-.599.812-1.047 1.349-1.645 1.937l-2.558-1.453c.433-.438 1.151-1.266 1.615-1.896 2.224-3.021 3.77-6.38 3.745-9.213-.042-2.521-1.083-5.082-2.734-6.297-1.443-1.057-3.156-1.234-4.557-.208-.927.672-1.584 1.489-3.11 3.557l-.541.74-2.073-2.333c.187-.188.5-.61.656-.818 1.265-1.724 2.426-3.306 2.724-4.661.5-2.229-.636-4.364-2.073-5.426-1.656-1.214-3.484-.719-4.984 1.323-1.344 1.827-2.052 4.551-2.224 7.515l-2.786-.266c.161-4.046 1.062-7.556 3.109-10.332 2.557-3.479 6.245-4.287 8.947-2.297 2.812 2.067 3.874 5.994 2.448 9.926z"/></g><path d="m497.082 320.778h-67.849v-97.14h67.822l.193.016v25.305h-42.904v9.259h36.424v24.492h-36.424v11.114h42.904v26.958z" fill="#211e1e"/><path d="m555.078 320.778h24.691v-97.14h-24.691v46.304l-24.305-46.304h-25.105v97.14h25.105v-48.903z" fill="#211e1e"/><path d="m587.742 320.778v-97.14h25.932v69.555h37.25v27.572z" fill="#211e1e"/><path d="m314.587 275.474h18.105v17.972h-18.105z" fill="#211e1e"/><path d="m251.232 223.718h-27.438l26.571 97.14h29.531l26.572-97.14h-27.438l-13.906 57.689z" fill="#211e1e"/><path d="m82.403 223.718h-27.451l26.571 97.14h29.532l26.571-97.14h-27.438l-13.906 57.689z" fill="#211e1e"/><path d="m166.837 223.718h-27.451l26.572 97.14h29.531l26.571-97.14h-27.438l-13.906 57.689z" fill="#211e1e"/><path d="m369.624 223.718h-27.439l26.572 97.14h29.531l26.585-97.14h-27.451l-13.906 57.689z" fill="#211e1e"/><path d="m694.268 322.645c-24.572 0-42.237-20.852-42.237-50.744 0-29.891 15.799-50.743 42.237-50.743s42.237 20.852 42.237 50.743c0 29.892-17.665 50.744-42.237 50.744m0-24.679c3.912 0 7.573-1.458 10.677-4.802 4.327-4.666 5.677-9.135 5.677-20.932 0-12.051-.834-16.759-4.729-21.465-2.755-3.328-7.88-4.255-11.625-4.255-3.74 0-8.863.927-11.619 4.255-3.891 4.702-4.724 9.415-4.724 21.465 0 11.791 1.344 16.266 5.672 20.932 3.098 3.344 6.765 4.802 10.671 4.802z" fill="#211e1e"/><path d="m496.148 479.967c0 55.57-45.037 100.607-100.593 100.607s-100.593-45.037-100.593-100.607c0-55.556 45.037-100.593 100.593-100.593s100.593 45.037 100.593 100.593z" fill="#fff"/><path d="m330.56 477.434 12.348 44.45-15.919 16.466-17.839-30.451.823-34.305z" fill="#211e1e"/><path d="m319.894 439.037 15.919-30.732 30.997-15.919 6.86 20.306-31.825 33.744z" fill="#211e1e"/><path d="m362.157 550.096 10.702 19.212h45.397l10.702-19.212-33.398-9.328z" fill="#211e1e"/><path d="m460.417 477.434-12.348 44.45 15.919 16.466 17.839-30.451-.829-34.305z" fill="#211e1e"/><path d="m471.217 439.037-15.919-30.732-30.998-15.919-6.86 20.306 31.825 33.744z" fill="#211e1e"/><path d="m423.22 487.033-10.15-37.864h-34.984l-10.15 37.864 27.638 19.759z" fill="#211e1e"/><path d="m376.423 381.174c-46.423 8.921-81.488 49.757-81.488 98.78s35.065 89.86 81.488 98.793l-.031.323v76.141h-237.85l-.224-.453c-63.729-129.111-79.662-241.05-80.448-309.845h118.538s8.849 81.728 36.491 166.522c24.145 74.088 53.236 131.698 53.236 131.698v-297.713l.026-.568h110.3l-.026.229v35.811z" fill="#211e1e"/><path d="m414.687 578.894v76.275h237.851l.229-.454c63.729-129.111 79.661-241.05 80.448-309.845h-118.539s-8.849 81.728-36.491 166.522c-24.145 74.088-53.236 131.698-53.236 131.698v-297.713l-.026-.568h-110.299l.026.229v35.718l-.032.338c46.424 8.921 81.488 49.757 81.488 98.78s-35.051 89.847-81.461 98.78z" fill="#211e1e"/></g></svg>