<svg clip-rule="evenodd" fill-rule="evenodd" stroke-linejoin="round" stroke-miterlimit="1.41421" viewBox="0 0 560 400" xmlns="http://www.w3.org/2000/svg"><path d="m172.765 103.452-15.071 46.705h-13.298l-5.149-23.863-5.056 23.863h-13.366l-15.071-46.705h13.319l7.254 24.05 6.424-24.05h13.168l6.452 24.315 7.019-24.315zm-10.563 46.705 15.491-46.705h12.577l15.385 46.705h-13.382l-1.726-5.575h-13.278l-1.739 5.575zm17.706-15.464h8.007l-3.921-13.428zm41.132 15.464h-13.423v-46.705h17.426c9.641 0 17.554 6.052 17.554 16.653 0 6.507-3.22 11.94-7.82 14.274l8.895 15.778h-15.047l-7.585-15.307zm0-24.883h3.532c2.758 0 5.209-1.847 5.209-5.011 0-3.074-2.303-5.037-5.534-5.037h-3.207zm38.934 1.413 14.915 23.47h12.716v-46.705h-13.344v21.806l-13.859-21.806h-13.694v46.705h13.266zm59.108 11.225h-14.404v-5.103h14.404v-12.284h-14.404v-4.789h14.404v-12.284h-27.709v46.705h27.709zm17.112 12.245h-13.423v-46.705h17.426c9.641 0 17.554 6.052 17.554 16.653 0 6.507-3.22 11.94-7.82 14.274l8.895 15.778h-15.047l-7.585-15.307zm0-24.883h3.532c2.758 0 5.209-1.847 5.209-5.011 0-3.074-2.303-5.037-5.534-5.037h-3.207zm-188.234 61.305 7.065 12.481h-14.836l-5.966-12.088v12.088h-13.423v-43.487h17.426c9.641 0 17.554 6.053 17.554 16.654 0 6.506-3.22 12.018-7.82 14.352zm-4.996-14.195c0-3.073-2.303-4.958-5.534-4.958h-3.207v9.969h3.533c2.758 0 5.208-1.846 5.208-5.011zm15.554 26.676h27.709v-9.027h-14.404v-5.102h14.404v-12.285h-14.404v-4.788h14.404v-12.285h-27.709zm153.735-12.481 7.064 12.481h-14.835l-5.966-12.088v12.088h-13.423v-43.487h17.426c9.641 0 17.553 6.053 17.553 16.654 0 6.506-3.219 12.018-7.819 14.352zm-4.996-14.195c0-3.073-2.303-4.958-5.534-4.958h-3.207v9.969h3.532c2.758 0 5.209-1.846 5.209-5.011zm-94.067 17.376c-5.741 0-10.047-4.288-10.047-10.797 0-5.971 4.004-10.833 10.038-10.833 4.88 0 8.051 2.977 9.241 5.741l11.757-7.478c-3.71-6.016-10.944-11.445-21.064-11.445-13.409 0-23.883 9.957-23.883 24.042 0 8.187 3.631 15.803 10.3 20.07h27.317c4.003-2.65 6.2-5.49 8.182-9.16l-12.476-6.702c-1 2.802-3.89 6.562-9.365 6.562zm69.072-10.922c0 9.025-4.539 16.141-10.67 20.222h-26.454c-7.035-4.668-10.684-12.285-10.684-20.129 0-12.868 9.961-23.951 23.951-23.951 13.688 0 23.857 11.062 23.857 23.858zm-13.636.139c0-6.622-4.95-10.849-10.257-10.849-5.959 0-10.26 4.813-10.26 10.807 0 6.106 4.135 10.839 10.229 10.839 6.203 0 10.288-5.002 10.288-10.797zm93.358-.049c0 9.656-5.179 16.573-11.425 20.132h-27.748v-43.487h15.267c13.111 0 23.906 9.998 23.906 23.355zm-12.808.049c0-6.716-5.054-10.844-10.313-10.844h-2.747v21.625h2.747c6.344 0 10.313-4.965 10.313-10.781zm27.282-10.022c0-1.459 1.637-2.582 3.638-2.582 3.207 0 5.771 2.719 6.903 4.748l10.561-8.232c-4.602-5.701-10.751-8.067-17.465-8.067-11.028 0-17.047 7.147-17.047 15.203 0 16.314 21.185 13.058 21.185 17.825 0 1.285-1.614 2.817-4.072 2.817-3.666 0-6.5-3.08-7.821-5.214l-11.341 9.01s1.51 1.823 5.024 4.597h26.531c2.879-2.291 5.574-6.238 5.574-11.816 0-16.284-21.67-13.195-21.67-18.289zm-318.829-68.015c-31.78 0-55.757 25.03-55.757 55.08 0 20.439 9.992 34.744 19.866 43.04h71.275c12.046-9.852 19.942-24.967 19.942-42.598 0-29.606-23.199-55.522-55.326-55.522z" fill-rule="nonzero" transform="matrix(.908505 0 0 .908505 98.2989 63.7241)"/></svg>