<svg clip-rule="evenodd" fill-rule="evenodd" stroke-linejoin="round" stroke-miterlimit="2" viewBox="0 0 560 400" xmlns="http://www.w3.org/2000/svg"><g fill-rule="nonzero"><path d="m154.85 112.333 1.512-.648 1.954 3.238-3.89 3.024v3.245c4.756-3.174 8.124-5.119 10.158-5.841 2.44-.858 4.677-1.291 6.692-1.291 4.176 0 7.627 1.367 10.364 4.108 2.6 2.732 3.893 6.403 3.893 11.009 0 3.319-.869 6.262-2.584 8.859-1.736 2.885-4.191 5.048-7.356 6.483-3.607 1.721-8.283 2.879-14.048 3.457-.141-1.291-.774-3.027-1.936-5.184 7.197 0 12.377-1.299 15.557-3.887 3.168-2.301 4.745-5.546 4.745-9.728 0-3.309-.851-5.899-2.585-7.77-1.733-1.733-3.89-2.594-6.477-2.594-4.329 0-9.872 2.514-16.629 7.562 0 7.055.126 14.755.424 23.113l-5.398.211v-18.577l-4.76 5.402c-.283.577-.679 1.152-1.183 1.736-.501.575-1.195 1.432-2.059 2.59l-4.095-4.105c2.012-2.025 6.05-5.906 12.097-11.664 0-2.163.061-4.615.203-7.353-1.718.29-2.916.471-3.562.55-.645.061-1.573.172-2.802.314-1.229.144-2.206.221-2.916.221v-5.184c2.581.135 5.688.061 9.28-.218.156-1.299.251-3.02.331-5.18.07-2.166.108-4.114.108-5.835l5.847.433-.664 4.968c-.141.722-.221 2.234-.221 4.536" fill="#00582a"/><path d="m243.302 112.954c3.023-.716 7.497-2.089 13.403-4.095l1.512 4.741c-5.322 1.88-9.642 3.103-12.961 3.681 2.597 4.753 6.333 9.353 11.231 13.827l-2.806 3.88c-3.168-1.296-5.546-2.157-7.134-2.581-2.302-.301-4.394-.442-6.268-.442-5.325 0-9.212.796-11.655 2.381-1.592 1.156-2.381 2.52-2.381 4.099 0 1.444.79 2.741 2.381 3.89 2.882 1.733 7.119 2.593 12.742 2.593 3.448 0 7.921-.362 13.385-1.078l.221 4.959c-4.459.59-8.425.873-11.876.873-8.081 0-13.968-1.226-17.717-3.675-2.728-1.874-4.111-4.394-4.111-7.562 0-2.882 1.45-5.402 4.314-7.559 2.882-2.006 7.559-3.017 14.051-3.017.565 0 3.165.139 7.78.421-2.443-2.726-4.821-6.115-7.134-10.146-5.47.718-9.716 1.078-12.743 1.078-.863 0-3.324-.144-7.34-.432l.221-4.96c3.733.424 6.615.646 8.631.646 3.023 0 6.047-.222 9.07-.646-1.729-3.315-2.943-6.409-3.668-9.291l5.401-1.306c1.15 4.037 2.302 7.282 3.451 9.722" fill="#00582a"/><path d="m329.768 121.6c0 7.78-.581 13.394-1.714 16.845-1.306 3.61-3.466 6.341-6.493 8.216-3.306 2.025-6.834 3.023-10.582 3.023-4.615 0-8.204-1.29-10.804-3.884-2.599-2.448-3.89-5.77-3.89-9.946 0-3.598.947-7.196 2.818-10.803 2.016-4.173 4.886-8.339 8.631-12.524-4.458 1.303-8.772 2.16-12.963 2.593l-.425-5.18c7.058-.292 13.185-1.441 18.35-3.466l3.466 4.329c-2.157 1.868-4.474 4.034-6.916 6.477-2.581 3.598-4.471 6.769-5.608 9.51-1.45 3.027-2.172 5.829-2.172 8.419 0 2.876.866 5.119 2.599 6.701 1.733 1.733 4.173 2.581 7.356 2.581 2.864 0 5.307-.712 7.322-2.157 2.173-1.579 3.909-3.96 5.181-7.125 1.17-3.447 1.736-8.275 1.736-14.472 0-4.025-.427-8.066-1.294-12.097l5.402-1.291c1.595 4.889 2.882 8.779 3.893 11.655 1.714 3.896 3.165 6.781 4.311 8.643 1.293 2.17 2.947 4.397 4.981 6.708l-4.554 3.887c-1.859-2.6-3.365-5.119-4.535-7.568-1.432-2.741-2.803-5.758-4.096-9.074m1.512-15.553 2.584-1.942c1.309 1.007 3.103 2.952 5.401 5.835l-3.008 2.372c-.283-.286-1.954-2.372-4.977-6.265m12.96-.218-3.02 2.599-4.963-6.268 2.79-2.16c2.016 1.874 3.746 3.813 5.193 5.829" fill="#00582a"/><path d="m149.086 294.014c0 1.497-.565 2.867-1.702 4.112-1.15 1.247-2.615 1.874-4.425 1.874-1.592 0-3.026-.553-4.252-1.665-1.245-1.106-1.875-2.557-1.875-4.354v-1.589h3.058v1.589c0 .71.279 1.361.878 1.942.6.583 1.325.863 2.16.863.802 0 1.527-.28 2.157-.879.646-.596.959-1.232.959-1.957v-4.972l-9.212-9.043v-5.383c0-1.659.569-3.076 1.687-4.259 1.119-1.195 2.6-1.791 4.44-1.791 1.684 0 3.134.596 4.333 1.791 1.195 1.183 1.794 2.618 1.794 4.259v1.539h-3.042v-1.539c0-.605-.298-1.201-.897-1.798-.71-.715-1.447-1.072-2.219-1.072-.836 0-1.561.28-2.16.833s-.878 1.232-.878 2.037l.017 3.795 9.181 9.113z" fill="#f15d2a"/><path d="m173.122 294.141c0 1.687-.617 3.085-1.812 4.191-1.199 1.104-2.615 1.666-4.268 1.666-1.592 0-3.027-.562-4.284-1.699-1.263-1.134-1.892-2.584-1.892-4.333v-24.867h3.038v24.836c0 .707.317 1.377.962 1.97.633.599 1.355.882 2.157.882.71 0 1.404-.283 2.065-.913.661-.615.977-1.259.977-1.939v-24.836h3.057z" fill="#f15d2a"/><path d="m197.375 294.014c0 1.497-.569 2.867-1.703 4.112-1.146 1.247-2.611 1.874-4.424 1.874-1.607 0-3.024-.553-4.253-1.665-1.244-1.106-1.871-2.557-1.871-4.354v-1.589h3.054v1.589c0 .71.298 1.361.879 1.942.603.583 1.327.863 2.16.863.805 0 1.512-.28 2.157-.879.63-.596.962-1.232.962-1.957v-4.972l-9.212-9.043v-5.383c0-1.659.565-3.076 1.684-4.259 1.115-1.195 2.599-1.791 4.44-1.791 1.684 0 3.119.596 4.332 1.791 1.196 1.183 1.795 2.618 1.795 4.259v1.539h-3.039v-1.539c0-.605-.301-1.201-.897-1.798-.71-.715-1.466-1.072-2.222-1.072-.833 0-1.558.28-2.16.833-.581.553-.879 1.232-.879 2.037l.018 3.795 9.181 9.113z" fill="#f15d2a"/><path d="m222.244 299.4h-3.198v-27.089c-1.134 0-2.345.599-3.669 1.795-1.573 1.407-2.348 2.98-2.348 4.725v20.569h-3.039v-42.397h3.039v14.777c1.199-.913 2.378-1.626 3.497-2.114 1.401-.584 2.79-.882 4.142-.882h1.576z" fill="#f15d2a"/><path d="m239.93 299.4h-3.038v-27.101h-1.448v-3.199h4.486zm0-36.002h-3.038v-3.196h3.038z" fill="#f15d2a"/><path d="m285.464 289.574h-2.818v4.787c0 1.546-.55 2.867-1.622 3.939-1.085 1.073-2.459 1.62-4.066 1.62-1.508 0-2.786-.437-3.828-1.303-1.195-1.042-1.825-2.458-1.825-4.256v-13.043c0-.922.095-1.681.285-2.299.188-.595.676-1.238 1.478-1.948-.565-.663-1.007-1.327-1.309-1.975-.297-.64-.454-1.402-.454-2.25v-6.974c0-1.592.504-2.913 1.496-3.986.993-1.072 2.378-1.604 4.157-1.604h4.253v2.812h-4.268c-.694 0-1.34.273-1.92.823-.6.553-.898 1.214-.898 1.936v6.993c0 .679.298 1.294.867 1.862.578.577 1.242.851 1.982.851h2.787v2.897h-2.787c-.676 0-1.321.284-1.92.867-.615.553-.928 1.229-.928 1.994v13.013c0 .694.298 1.291.866 1.828.578.535 1.226.805 1.967.805.71 0 1.327-.237 1.893-.728.549-.473.836-1.122.836-1.917v-7.642h5.776z" fill="#00582a"/><path d="m326.997 293.415c0 1.672-.584 3.091-1.748 4.253-1.15 1.133-2.597 1.733-4.318 1.733h-6.188v-42.4h3.057v12.097h3.116c1.61 0 3.027.569 4.256 1.669 1.226 1.136 1.825 2.599 1.825 4.443zm-3.199-.026v-18.209c0-.817-.283-1.484-.832-2.049-.566-.551-1.26-.829-2.05-.829h-3.116v23.969h2.883c.943 0 1.717-.267 2.283-.836.549-.568.832-1.226.832-2.046" fill="#f15d2a"/><path d="m351.757 293.922c0 1.546-.583 2.925-1.721 4.188-1.127 1.263-2.581 1.89-4.344 1.89-1.607 0-3.042-.6-4.299-1.825-1.263-1.214-1.89-2.615-1.89-4.21v-19.431c0-1.638.584-3.058 1.733-4.241 1.162-1.195 2.646-1.791 4.456-1.791 1.638 0 3.054.553 4.252 1.665 1.214 1.125 1.813 2.588 1.813 4.385v12.813h-9.215v6.585c0 .756.332 1.419.974 1.991.664.577 1.386.845 2.176.845.71 0 1.382-.268 2.034-.845.657-.584.974-1.251.974-2.019v-1.607h3.057zm-3.057-9.749v-9.621c0-.605-.298-1.232-.913-1.874-.614-.648-1.321-.996-2.095-.996-.833 0-1.558.298-2.191.913-.645.599-.959 1.247-.959 1.957v9.621z" fill="#f15d2a"/><path d="m376.121 299.4h-3.199v-24.837c0-.768-.313-1.435-.909-2.015-.633-.569-1.263-.867-1.893-.867-.722 0-1.417.298-2.077.867-.664.581-.977 1.247-.977 2.015v24.837h-3.196v-25.036c0-1.721.566-3.122 1.715-4.225 1.13-1.1 2.645-1.638 4.535-1.638 1.592 0 2.996.565 4.191 1.733 1.211 1.165 1.81 2.584 1.81 4.317z" fill="#f15d2a"/><path d="m397.778 272.299h-3.116v27.101h-3.202v-27.101h-2.974v-3.199h2.974v-7.611h3.202v7.611h3.116z" fill="#f15d2a"/><path d="m421.656 293.966c0 1.515-.565 2.898-1.702 4.145-1.149 1.263-2.6 1.887-4.363 1.887-1.638 0-3.085-.565-4.33-1.727-1.229-1.167-1.843-2.587-1.843-4.305v-19.431c0-1.515.568-2.898 1.699-4.16 1.152-1.248 2.633-1.872 4.474-1.872 1.64 0 3.072.563 4.271 1.73 1.192 1.149 1.794 2.584 1.794 4.302zm-3.042-.017v-19.401c0-.63-.314-1.257-.959-1.908-.645-.645-1.339-.959-2.095-.959-.787 0-1.515.28-2.16.833-.63.565-.959 1.241-.959 2.034v19.401c0 .71.329 1.361.959 1.954.645.599 1.373.882 2.16.882.71 0 1.401-.267 2.062-.845.663-.571.992-1.235.992-1.991" fill="#f15d2a"/><g fill="#b2d235"><path d="m138.739 217.236v-60.473h10.542v67.288c0 7.712 1.687 11.571 5.073 11.571 1.742 0 3.26-1.137 4.557-3.407 1.293-2.274 1.939-4.708 1.939-7.295v-68.157h10.542v67.549c0 2.741.642 5.312 1.929 7.709 1.285 2.4 2.741 3.601 4.37 3.601 3.619 0 5.432-3.558 5.432-10.677v-68.182h10.699v60.629c0 9.615-.765 16.221-2.298 19.816-2.01 4.861-6.078 7.291-12.208 7.291-5.017 0-9.166-2.326-12.441-6.978-3.699 4.652-7.924 6.978-12.684 6.978-6.652 0-10.988-2.166-12.997-6.502-1.635-3.38-2.455-10.302-2.455-20.761"/><path d="m235.882 242.911-1.902-4.357c-3.014 3.435-6.314 5.149-9.909 5.149-8.874 0-13.314-7.396-13.314-22.19 0-9.194 1.693-16.273 5.073-21.238 3.171-4.705 9.061-9.274 17.674-13.714v-11.965c0-6.713-1.533-10.069-4.597-10.069-3.223 0-4.836 3.62-4.836 10.859v8.481h-10.539v-7.209c0-14.269 5.073-21.401 15.219-21.401 5.703 0 9.719 2.351 12.045 7.055 2.061 4.065 3.091 10.594 3.091 19.573v44.621c0 4.596.82 10.069 2.458 16.405zm-7.767-7.605c3.592 0 5.389-3.463 5.389-10.386v-28.133c-4.965 3.435-8.192 6.855-9.666 10.263-1.481 3.407-2.222 8.812-2.222 16.208 0 8.032 2.166 12.048 6.499 12.048"/><path d="m292.798 176.497v5.229h-10.542v-7.288c0-6.185-1.954-9.277-5.866-9.277-4.012 0-6.025 2.883-6.025 8.641 0 4.805 1.957 9.565 5.869 14.266l9.589 11.492c5.178 6.234 7.765 13.501 7.765 21.794 0 7.347-1.53 13.013-4.597 17.001-3.063 3.991-7.263 5.986-12.601 5.986-4.704 0-8.557-1.826-11.571-5.47-3.011-3.647-4.514-8.397-4.514-14.266v-7.688h10.696v7.878c0 6.846 1.865 10.269 5.592 10.269 4.409 0 6.613-3.647 6.613-10.948 0-7.134-1.902-13.034-5.706-17.689l-9.827-12.137c-4.913-6.031-7.368-12.641-7.368-19.834 0-5.555 1.607-10.09 4.833-13.609 3.221-3.518 7.184-5.275 11.888-5.275 10.515 0 15.772 6.975 15.772 20.925"/><path d="m335.922 242.911-1.902-4.357c-3.014 3.435-6.314 5.149-9.909 5.149-8.877 0-13.314-7.396-13.314-22.19 0-9.194 1.69-16.273 5.073-21.238 3.171-4.705 9.061-9.274 17.674-13.714v-11.965c0-6.713-1.534-10.069-4.597-10.069-3.226 0-4.836 3.62-4.836 10.859v8.481h-10.539v-7.209c0-14.269 5.073-21.401 15.215-21.401 5.706 0 9.722 2.351 12.051 7.055 2.059 4.065 3.088 10.594 3.088 19.573v44.621c0 4.596.821 10.069 2.458 16.405zm-7.768-7.605c3.592 0 5.39-3.463 5.39-10.386v-28.133c-4.969 3.435-8.192 6.855-9.67 10.263-1.478 3.407-2.218 8.812-2.218 16.208 0 8.032 2.166 12.048 6.498 12.048"/><path d="m371.81 237.207v5.703h-10.54v-120.467h10.54v38.516c3.278-3.275 6.474-4.91 9.592-4.91 8.982 0 13.471 6.391 13.471 19.179v48.662c0 13.421-3.669 20.135-11.012 20.135-3.331 0-7.347-2.274-12.051-6.818m12.527-62.138c0-5.97-1.616-8.957-4.84-8.957-2.479 0-5.042 2.326-7.687 6.975v54.054c3.014 4.332 5.629 6.499 7.85 6.499 3.116 0 4.677-2.695 4.677-8.085z"/><path d="m412.786 122.441h10.382v11.096h-10.382zm10.382 120.47h-10.382v-86.148h10.382z"/></g></g></svg>