<svg clip-rule="evenodd" fill-rule="evenodd" stroke-linejoin="round" stroke-miterlimit="2" viewBox="0 0 560 400" xmlns="http://www.w3.org/2000/svg"><path d="m141.174 284.58 296.663-91.915-296.669-91.796z" fill="#ffd200" fill-rule="nonzero"/><path d="m415.717 199.65 22.962-7.063-23.248-7.063h-274.406v14.126z" fill="#fff" fill-rule="nonzero"/><path d="m155.158 105.197-14.133-4.444v183.744l14.133-4.411z" fill="#fff" fill-rule="nonzero"/><g fill="#231f20"><path d="m155.151 185.524h7.068v7.063h-7.068z"/><path d="m169.289 185.524h7.063v7.063h-7.063z"/><path d="m183.416 185.524h7.063v7.063h-7.063z"/><path d="m197.542 185.524h7.063v7.063h-7.063z"/><path d="m211.669 185.524h7.063v7.063h-7.063z"/><path d="m225.8 185.524h7.07v7.063h-7.07z"/><path d="m239.928 185.524h7.068v7.063h-7.068z"/><path d="m254.055 185.524h7.068v7.063h-7.068z"/><path d="m268.186 185.524h7.063v7.063h-7.063z"/><path d="m282.314 185.524h7.068v7.063h-7.068z"/><path d="m296.439 185.524h7.068v7.063h-7.068z"/><path d="m310.583 185.524h7.057v7.063h-7.057z"/><path d="m324.708 185.524h7.057v7.063h-7.057z"/><path d="m338.83 185.524h7.063v7.063h-7.063z"/><path d="m352.956 185.524h7.063v7.063h-7.063z"/><path d="m367.088 185.524h7.068v7.063h-7.068z"/><path d="m381.221 185.524h7.063v7.063h-7.063z"/><path d="m395.347 185.524h7.063v7.063h-7.063z"/><path d="m415.656 185.524h-6.182v7.063h7.063v-6.766z" fill-rule="nonzero"/><path d="m430.668 192.587v-2.47l-7.061-2.128v4.598z" fill-rule="nonzero"/><path d="m162.226 192.587h7.063v7.057h-7.063z"/><path d="m176.352 192.587h7.063v7.057h-7.063z"/><path d="m190.479 192.587h7.063v7.057h-7.063z"/><path d="m204.605 192.587h7.063v7.057h-7.063z"/><path d="m218.732 192.587h7.068v7.057h-7.068z"/><path d="m232.865 192.587h7.063v7.057h-7.063z"/><path d="m246.996 192.587h7.063v7.057h-7.063z"/><path d="m261.123 192.587h7.063v7.057h-7.063z"/><path d="m275.249 192.587h7.063v7.057h-7.063z"/><path d="m289.382 192.587h7.057v7.057h-7.057z"/><path d="m303.509 192.587h7.068v7.057h-7.068z"/><path d="m317.64 192.587h7.068v7.057h-7.068z"/><path d="m331.767 192.587h7.063v7.057h-7.063z"/><path d="m345.893 192.587h7.062v7.057h-7.062z"/><path d="m360.02 192.587h7.063v7.057h-7.063z"/><path d="m374.153 192.587h7.068v7.057h-7.068z"/><path d="m388.284 192.587h7.062v7.057h-7.062z"/><path d="m402.41 192.587h7.063v7.057h-7.063z"/><path d="m437.644 192.873v-.286h-6.99v2.542z" fill-rule="nonzero"/><path d="m423.607 197.109v-4.522h-7.064v6.706z" fill-rule="nonzero"/><path d="m141.025 270.339h7.063v7.062h-7.063z"/><path d="m141.025 256.201h7.063v7.068h-7.063z"/><path d="m141.025 242.074h7.063v7.063h-7.063z"/><path d="m141.025 227.948h7.063v7.063h-7.063z"/><path d="m141.025 213.81h7.063v7.063h-7.063z"/><path d="m141.025 199.684h7.063v7.063h-7.063z"/><path d="m141.025 185.557h7.063v7.063h-7.063z"/><path d="m141.025 171.431h7.063v7.063h-7.063z"/><path d="m141.025 157.293h7.063v7.063h-7.063z"/><path d="m141.025 143.166h7.063v7.063h-7.063z"/><path d="m141.025 129.04h7.063v7.063h-7.063z"/><path d="m141.025 114.913h7.063v7.063h-7.063z"/><path d="m148.094 103.009-7.064-2.222v7.063h7.064z" fill-rule="nonzero"/><path d="m155.158 277.402h-7.064v4.835l7.064-2.186z" fill-rule="nonzero"/><path d="m148.094 263.269h7.063v7.07h-7.063z"/><path d="m148.094 249.138h7.063v7.063h-7.063z"/><path d="m148.094 235.011h7.063v7.063h-7.063z"/><path d="m148.094 220.874h7.063v7.074h-7.063z"/><path d="m148.094 206.747h7.063v7.063h-7.063z"/><path d="m148.094 192.62h7.063v7.063h-7.063z"/><path d="m148.094 178.494h7.063v7.063h-7.063z"/><path d="m148.094 164.367h7.063v7.063h-7.063z"/><path d="m148.094 150.23h7.063v7.063h-7.063z"/><path d="m148.094 136.103h7.063v7.063h-7.063z"/><path d="m148.094 121.977h7.063v7.063h-7.063z"/><path d="m148.094 107.85h7.063v7.063h-7.063z"/><path d="m218.419 221.059-8.549-14.522h6.43l5.298 8.747 5.216-8.758 6.699.011-8.69 14.522 9.412 15.023h-6.685l-5.952-9.9-5.528 9.9h-6.717z" fill-rule="nonzero"/><path d="m238.909 236.111v-29.54l5.684.022-.006 29.48z" fill-rule="nonzero"/><path d="m173.228 179.962-.329.566-12.813-30.276 5.814-.033 7.301 17.658 2.883-6.579-4.555-11.046 5.148-.033 2.239 5.016 2.343-5.016 4.973.033-4.687 11.046 2.839 6.326 7.4-17.405 5.758.033-12.729 29.572-.402.693-5.535-13.367z" fill-rule="nonzero"/><path d="m190.347 179.846 14.918-30.591 15.398 30.591-6.062-.022-3.527-6.864h-11.31l-3.444 6.864zm11.65-11.875h6.623l-3.393-8.005z" fill-rule="nonzero"/><path d="m216.933 150.223 20.443.023v5.462h-7.361l-.04 24.078h-5.632v-24.078h-7.388z" fill-rule="nonzero"/><path d="m240.867 179.748v-29.496h17.247v5.423l-11.569.033v5.897h8.945v5.458h-8.945v7.229l11.634.031v5.425z" fill-rule="nonzero"/><path d="m262.486 150.223 9.511.023c5.671 0 10.144 2.756 10.144 9.081 0 2.036-2.19 6.623-5.673 7.734l8.043 12.784-6.194-.016-10.018-14.835-.088-.606v15.36l-5.677.033zm5.727 13.402h2.063c2.801 0 5.506-.82 5.506-4.131 0-3.395-2.58-3.779-5.38-3.779h-2.189z" fill-rule="nonzero"/><path d="m178.829 236.082 14.88-30.535 15.364 30.535-6.028.039-3.526-6.876h-11.316l-3.384 6.837zm11.612-11.831h6.618l-3.393-7.47z" fill-rule="nonzero"/><path d="m161.922 206.532h20.461v5.463h-7.35l-.044 24.072h-5.64v-24.072h-7.427z" fill-rule="nonzero"/><path d="m121.547 284.19v-3.102l6.551-4.017v-.038h-6.551v-2.838h10.633v3.096l-6.63 4.027v.034h6.63v2.838z" fill-rule="nonzero"/><path d="m121.547 256.751v-9.236h2.215v6.221h1.866v-5.676h2.14v5.676h2.029v-6.382h2.383v9.397z" fill-rule="nonzero"/><path d="m132.18 220.181v3.015l-7.327 1.594v.028l7.327 1.595v3.064l-10.633 3.136v-3.026l7.777-1.639v-.022l-7.777-1.712v-2.837l7.777-1.712v-.022l-7.777-1.639v-3.026z" fill-rule="nonzero"/><path d="m128.219 182.07h3.961v3.014h-3.961l-6.672 4.224v-3.427l4.317-2.304-4.317-2.3v-3.433z" fill-rule="nonzero"/><path d="m121.321 158.317c0-3.648 2.459-5.711 5.539-5.711 3.085 0 5.539 2.063 5.539 5.711 0 3.652-2.454 5.715-5.539 5.715-3.082-.002-5.539-2.063-5.539-5.715m8.697 0c0-1.949-1.573-2.685-3.158-2.685-1.578 0-3.158.736-3.158 2.685 0 1.953 1.58 2.695 3.158 2.695 1.583 0 3.158-.744 3.158-2.695" fill-rule="nonzero"/><path d="m121.547 136.906v-5.908c0-2.046.847-4.059 2.993-4.059 1.149 0 2.239.594 2.667 1.815h.028c.269-1.232 1.536-1.59 2.548-1.683.445-.034 2.007-.088 2.398-.496v2.986c-.357.259-1.397.313-1.694.347-1.077.076-2.179.275-2.179 1.689v2.284h3.873v3.025zm4.614-3.025v-2.525c0-.914-.445-1.397-1.249-1.397-.794 0-1.145.677-1.145 1.522v2.399h2.394z" fill-rule="nonzero"/><path d="m121.547 111.116v-3.013h4.081l-4.081-3.818v-3.751l4.185 4.29 6.448-4.824v3.751l-4.466 3.12 1.187 1.232h3.279v3.013z" fill-rule="nonzero"/><path d="m146.03 288.064c3.257 0 5.847 2.644 5.847 5.957 0 3.36-2.59 5.979-5.874 5.979-3.25 0-5.897-2.618-5.897-5.979 0-3.313 2.647-5.957 5.897-5.957zm-.027.923c-2.618 0-4.759 2.251-4.759 5.034 0 2.827 2.14 5.044 4.786 5.044 2.646.034 4.758-2.217 4.758-5.022s-2.112-5.056-4.758-5.056zm-1.111 8.499h-1.057v-6.641c.556-.083 1.084-.165 1.882-.165 1.001 0 1.661.208 2.063.505.391.297.604.738.604 1.375 0 .869-.577 1.403-1.292 1.618v.049c.577.104.979.631 1.104 1.618.161 1.027.324 1.424.425 1.639h-1.111c-.155-.215-.314-.82-.445-1.699-.159-.842-.584-1.157-1.425-1.157h-.748zm0-3.68h.771c.869 0 1.618-.313 1.618-1.133 0-.583-.425-1.167-1.618-1.167-.347 0-.584.024-.771.056z" fill-rule="nonzero"/></g></svg>