<svg clip-rule="evenodd" fill-rule="evenodd" stroke-linejoin="round" stroke-miterlimit="2" viewBox="0 0 560 400" xmlns="http://www.w3.org/2000/svg"><g fill-rule="nonzero"><path d="m0 0c-14.377 0-27.896 5.598-38.064 15.766-10.165 10.165-15.763 23.684-15.763 38.061 0 14.38 5.598 27.896 15.763 38.064 10.168 10.165 23.687 15.766 38.064 15.766s27.896-5.601 38.061-15.766c10.168-10.168 15.766-23.684 15.766-38.064 0-14.377-5.598-27.896-15.766-38.061-10.165-10.168-23.684-15.766-38.061-15.766" fill="#fff" transform="matrix(2.7867 0 0 -2.7867 279.9989738 350.018758)"/><path d="m0 0c-13.68 0-26.541 5.326-36.215 15.001-9.672 9.672-15.001 22.535-15.001 36.215s5.329 26.541 15.001 36.216c9.674 9.672 22.535 14.998 36.215 14.998s26.541-5.326 36.215-14.998c9.672-9.675 15.001-22.536 15.001-36.216s-5.329-26.543-15.001-36.215c-9.674-9.675-22.535-15.001-36.215-15.001" transform="matrix(2.7867 0 0 -2.7867 279.9989738 342.717604)"/><path d="m0 0c-25.583 0-46.397-20.812-46.397-46.397 0-25.583 20.814-46.395 46.397-46.395s46.395 20.812 46.395 46.395c0 25.585-20.812 46.397-46.395 46.397" fill="#fff" transform="matrix(2.7867 0 0 -2.7867 279.9989738 70.707817)"/><path d="m0 0c0 7.639-2.052 15.134-5.936 21.668-3.767 6.341-9.147 11.622-15.556 15.27l-3.079-5.408c11.316-6.443 18.346-18.525 18.346-31.53 0-12.189-6.157-23.539-16.228-30.226l-16.773 21.634v46.208h-6.225v-46.182l-17.209-21.552c-9.975 6.701-16.069 18.011-16.069 30.118 0 13.062 7.075 25.169 18.464 31.595l-3.061 5.423c-13.34-7.529-21.628-21.714-21.628-37.018 0-7.634 2.049-15.123 5.927-21.654 3.761-6.338 9.133-11.616 15.534-15.267l2.313-1.321 18.805 23.55 18.354-23.669 2.339 1.315c13.374 7.523 21.682 21.716 21.682 37.046" transform="matrix(2.7867 0 0 -2.7867 398.3696297 200.010697)"/><path d="m0 0v19.726h-13.748v-6.831h6.917v-10.539l-3.572-4.573-6.106 7.815v21.895l2.551 3.269 5.318-6.798 4.399 5.664-9.663 12.435-9.431-12.129v-26.691l12.932-16.535z" transform="matrix(2.7867 0 0 -2.7867 367.7354366 231.444673)"/><path d="m0 0-5.709 3.291-3.594-2.078-.003-7.976 4.813-2.79-.864-.493-1.667.967-3.345-1.934 5.315-3.07 5.048 2.914zm-3.654-5.831-2.021 1.168v3.747l2.021-1.165z" transform="matrix(2.7867 0 0 -2.7867 309.7107692 284.336239)"/><path d="m0 0h-.023l-5.626 3.251-4.726-2.727v-10.539l5.55-3.209 4.825 2.778zm-6.732-.334 3.089-1.783v-6.217l-1.179-.68-1.91 1.103z" transform="matrix(2.7867 0 0 -2.7867 278.6669312 285.005047)"/><path d="m0 0-12.603-16.129 15.466-19.899-6.48-8.226-7.52 9.629-4.329-5.545 11.84-15.171 15.157 19.313-15.465 19.899 3.928 5.026 6.594-8.439 4.331 5.542z" transform="matrix(2.7867 0 0 -2.7867 232.5386861 114.236071)"/></g></svg>