<svg clip-rule="evenodd" fill-rule="evenodd" stroke-linejoin="round" stroke-miterlimit="2" viewBox="0 0 560 400" xmlns="http://www.w3.org/2000/svg"><g fill-rule="nonzero"><g transform="matrix(.827279 0 0 .827279 -106.505008308 -17.7217042115)"><path d="m412.358 423.959c-.044-.258-.083-.516-.122-.779.054.258.093.521.122.779z" fill="#242c51"/><path d="m412.499 424.656c.283 1.618.629 3.217 1.053 4.781-.336-1.325-.619-2.661-.882-4.001-.068-.331-.117-.575-.171-.78z" fill="#242c51"/><path d="m520.139 422.761c-11.268 8.884-24.903 14.698-37.93 17.32-1.795.406-3.624.638-5.463.692-4.26.029-7.184-1.95-8.719-5.926-.987-2.556-1.157-5.356-.487-8.012.475-2 1.905-3.642 3.821-4.386 1.949-.863 4.054-1.19 6.145-1.57.595-.102 1.184-.214 1.779-.331 11.564-2.261 22.466-6.214 32.164-13.158 2.75-1.953 5.263-4.218 7.491-6.75.033-.037.061-.078.083-.122 1.167 4.206 1.822 8.537 1.949 12.9 0 .575.029 1.145.029 1.72v.152h17.028c1.48.002 2.953-.183 4.386-.551.561-.146 1.111-.317 1.647-.488 1.068-.385 2.095-.875 3.066-1.462.409-.248.809-.521 1.199-.804.292-.208.58-.427.862-.658.429-.36.848-.735 1.243-1.135 1.195-1.194 2.211-2.555 3.017-4.04.136-.249.268-.487.39-.756 1.141-2.371 1.732-4.97 1.73-7.602v-7.495h7.446c2.503 0 4.978-.535 7.257-1.57.248-.112.487-.234.741-.355.464-.241.917-.499 1.359-.775.322-.205.639-.419.946-.639.307-.219.643-.487.974-.74.39-.327.77-.668 1.131-1.029l.029-.029c1.398-1.396 2.551-3.017 3.412-4.795.243-.488.487-1.039.667-1.575.181-.536.366-1.086.488-1.647.073-.278.136-.56.195-.848.119-.575.208-1.155.268-1.74.058-.589.092-1.189.092-1.793v-45.508h-72.492l-6.487 17.715h-17.203l-7.398-17.715h-19.576l-7.403 17.715h-17.189l-6.486-17.715h-72.541v45.508c0 .604.029 1.204.088 1.793.057.584.145 1.165.263 1.74.058.288.122.57.195.848.134.557.297 1.107.487 1.647.195.536.414 1.063.658 1.575.243.51.511 1.007.804 1.491.146.239.297.487.453.711 3.225 4.834 8.669 7.74 14.479 7.73h7.447v7.446c.001 5.465 2.556 10.628 6.901 13.943l.341.249c1.782 1.297 3.795 2.245 5.931 2.792.563.147 1.134.264 1.71.351.884.133 1.777.2 2.671.2h15.434v-.185c-.006-8.134 1.811-16.166 5.317-23.505l.078-.161c3.261-6.61 7.81-12.504 13.378-17.335 3.65-3.187 7.86-4.006 12.441-2.193 2.486.975 3.47 3.017 2.822 5.634-.248.931-.662 1.81-1.223 2.593-3.933 5.731-7.452 11.696-9.932 18.212-2.378 6.23-3.653 12.826-3.767 19.493v2.73c.081 3.517.407 7.025.974 10.497.55 2.911-1.207 5.8-4.045 6.652-3.017.937-6.261.851-9.225-.243-1.72-.6-2.797-1.95-3.485-3.563-.097-.239-.185-.487-.277-.716 7.631 21.922 28.428 36.704 51.64 36.704 27.146 0 50.389-20.216 54.152-47.099z" fill="#242c51"/><path d="m414.307 431.932c-.068-.204-.136-.409-.199-.619.043.21.112.415.199.619z" fill="#242c51"/><path d="m394.36 147.441c-.097.395-.195.784-.297 1.169s-.239.878-.365 1.307c-.098.336-.2.667-.303.974-.102.307-.238.741-.36 1.102-.122.36-.288.828-.434 1.228l-.234.624c-.205.521-.409 1.028-.614 1.515-.014.038-.03.076-.049.112-.018.037 0 0 0 0-.792 1.894-1.707 3.733-2.739 5.507-.561.973-1.176 1.913-1.842 2.817l-.053.073c-7.5 11.346-18.865 19.133-33.252 22.559v51.215h39.724l-4.06-11.028h-2.407c-3.149-.008-5.738-2.597-5.746-5.746v-.488c.008-3.149 2.597-5.737 5.746-5.745h20.215c3.149.008 5.737 2.596 5.745 5.745v.488c-.01 3.148-2.597 5.735-5.745 5.746h-4.64l4.045 11.033h26.682v-11.033h-5.361c-3.147-.011-5.733-2.599-5.741-5.746v-.488c.008-3.147 2.594-5.735 5.741-5.745h21.663c3.149.008 5.737 2.596 5.745 5.745v.488c-.008 3.153-2.602 5.743-5.755 5.746h-3.943v11.033h42.96v-11.033h-3.943c-3.149-.008-5.738-2.597-5.746-5.746v-.488c.008-3.149 2.597-5.737 5.746-5.745h21.672c3.147.01 5.733 2.598 5.741 5.745v.488c-.008 3.147-2.594 5.735-5.741 5.746h-5.361v11.033h26.682l4.021-11.033h-4.639c-3.148-.011-5.736-2.598-5.746-5.746v-.488c.008-3.149 2.597-5.737 5.746-5.745h20.234c3.149.008 5.738 2.596 5.746 5.745v.488c-.008 3.149-2.597 5.738-5.746 5.746h-2.437l-4.04 11.033h39.714v-51.22c-14.387-3.411-25.751-11.209-33.252-22.559l-.053-.073c-.646-.877-1.245-1.788-1.794-2.729-1.056-1.792-1.994-3.651-2.807-5.566-.813-1.914 0 0 0 0s-.029-.077-.048-.116c-.205-.488-.405-.975-.61-1.511l-.234-.629c-.146-.4-.292-.804-.433-1.223-.142-.419-.244-.731-.366-1.102-.122-.37-.2-.653-.297-.974-.127-.429-.249-.868-.366-1.316-.102-.38-.199-.765-.292-1.16-.049-.205-.107-.395-.156-.604h-145.374c-.044.18-.103.37-.147.575z" fill="#bc1919"/></g><path d="m186.184647334 183.294269964h187.631013595v65.292995075h-187.631013595z" fill="#fff" stroke-width=".827279"/><g transform="matrix(.827279 0 0 .827279 -106.505008308 -17.7217042115)"><path d="m470.605 139.263h31.551l15.566-52.331c-.455.137-.918.263-1.389.38l-.166.044c-.424.103-.858.205-1.296.298l-.19.039c-.488.102-1.004.199-1.521.282-.487.078-.975.151-1.491.22l-.337.043c-.453.059-.916.112-1.384.156h-.204c-.527.054-1.063.093-1.604.127l-.365.024c-.429 0-.863.044-1.296.059h-.463c-.541 0-1.087.024-1.638.024h-.034c-1.043 0-2.061-.024-3.07-.073-.302 0-.6-.039-.902-.053-.697-.044-1.389-.088-2.066-.147l-1.043-.112c-.614-.063-1.228-.136-1.828-.214l-1.052-.156c-.58-.093-1.155-.185-1.721-.288l-1.004-.195c-.57-.112-1.13-.234-1.681-.36-.307-.073-.614-.142-.916-.22-.585-.141-1.155-.297-1.72-.458l-.756-.209c-.682-.205-1.35-.419-2.008-.639l-.341-.112c-.775-.268-1.525-.55-2.261-.843l-.448-.19c-.561-.229-1.112-.487-1.648-.707-.243-.107-.487-.224-.721-.336-.424-.204-.843-.404-1.252-.614-.259-.131-.488-.268-.766-.404-.37-.195-.731-.39-1.081-.59l-.761-.448c-.326-.195-.648-.39-.974-.59-.327-.2-.488-.312-.731-.487-.244-.176-.575-.395-.858-.595s-.487-.326-.687-.487-.527-.405-.785-.609c-.258-.205-.424-.327-.624-.488l-.044-.034z" fill="#ddccc5"/><path d="m431.472 139.263h31.57v-60.63c-2.299 1.773-4.781 3.295-7.403 4.542-.107.053-.21.107-.322.156-.487.219-.94.434-1.423.643l-.604.263c-.448.185-.907.371-1.37.551l-.799.297c-.443.166-.882.327-1.335.488-.331.112-.677.219-1.014.326-.419.132-.833.268-1.262.39-.741.219-1.501.419-2.276.609-.336.083-.687.156-1.028.234-.488.112-1.019.229-1.54.331-.366.074-.736.137-1.106.205-.522.093-1.053.185-1.589.268l-1.136.161c-.56.073-1.125.141-1.701.2l-1.116.112c-.638.058-1.291.102-1.949.141-.326 0-.643.044-.975.059-.974.044-1.998.068-3.021.068h-.049c-.58 0-1.15 0-1.72-.029h-.488c-.54 0-1.077-.044-1.603-.078h-.127c-.56-.039-1.111-.088-1.652-.142l-.453-.043c-.487-.054-.975-.113-1.462-.181h-.161c-.521-.078-1.028-.161-1.535-.248l-.404-.078c-.458-.083-.907-.176-1.345-.273l-.156-.034c-.488-.112-.946-.229-1.404-.356l-.356-.098c-.404-.116-.799-.233-1.179-.36l-.141-.044z" fill="#ddccc5"/><path d="m403.771 90.87-.219.141c-.322.205-.649.4-.975.59l-.258.156c-.317.185-.639.361-.975.536l-.288.156c-.316.171-.638.336-.974.487l-.298.147c-.321.16-.638.311-.974.463l-.307.136-.975.429-.297.122c-.327.136-.658.273-.975.399l-.268.108-1.014.38-.219.078-1.057.365-.142.044c-2.617.865-5.29 1.547-8.002 2.042l-.161.034-.867.146-.239.044-.79.122-.272.044-.722.097-.307.044-.658.083-.316.039-.605.063-.321.034-.546.059-.317.024-.487.044-.307.025-.449.034h-2.719l-2.49.039 1.213 2.183 20.244 36.2 1.194 2.134h27.935l-15.386-51.595c-1.038.922-2.132 1.78-3.275 2.569l-.141.097c-.326.229-.663.434-.994.658z" fill="#ddccc5"/><path d="m510.065 139.263h28.71l1.189-2.134 20.244-36.2 1.223-2.184-2.505-.039h-.887l-.545-.024h-.151l-.488-.029h-.282l-.41-.029-.39-.03-.375-.029-.487-.039-.351-.034-.561-.058-.312-.03-.648-.078-.277-.029-.731-.097-.244-.03-.804-.117-.22-.097-.877-.136-.18-.035-.95-.165h-.137l-1.023-.2h-.093l-1.096-.239h-.03c-5.497-1.228-11.852-3.411-17.334-7.364l-.054-.034c-.356-.258-.712-.521-1.062-.794l-.127-.102c-.332-.259-.653-.527-.975-.8l-.185-.156c-.302-.263-.604-.531-.897-.804l-.136-.122z" fill="#ddccc5"/><g fill="#d29e27"><path d="m403.128 194.45v-1.774h2.734c.249.004.498-.033.736-.107.201-.07.38-.191.521-.351.154-.192.261-.417.312-.658.071-.346.103-.699.097-1.053v-16.74c-.422.52-.822.993-1.198 1.418-.338.388-.701.753-1.087 1.092-.309.279-.651.518-1.019.711-.3.161-.634.248-.974.254-.264.001-.523-.057-.761-.171-.236-.116-.444-.282-.609-.487-.183-.236-.325-.501-.419-.785-.105-.325-.156-.666-.151-1.008.336-.088.687-.195 1.057-.317.405-.138.8-.301 1.185-.488.414-.199.862-.443 1.34-.731.477-.287.975-.633 1.55-1.038l2.349-1.725h3.733v20.015c-.003.311.021.62.073.926.038.244.126.478.258.687.122.168.287.299.478.381.274.102.565.15.857.141h2.69v1.808z"/><path d="m433.952 175.809c.009 1.056-.246 2.098-.741 3.031-.302.58-.655 1.133-1.052 1.652-.432.579-.97 1.22-1.613 1.925-.639.697-1.389 1.462-2.242 2.32s-1.837 1.798-2.958 2.856l-3.339 3.178h7.798c.636.015 1.258-.196 1.754-.595.515-.45.872-1.053 1.019-1.72l.278-1.029h1.949l-.185 7.023h-15.776v-3.441l4.937-5.034c.9-.903 1.749-1.854 2.544-2.851.604-.756 1.128-1.573 1.565-2.437.365-.723.634-1.492.799-2.285.157-.803.233-1.619.229-2.437 0-1.272-.234-2.203-.692-2.788-.459-.584-1.173-.913-1.915-.882-1.021-.062-1.977.525-2.384 1.462-.454.975-.682 2.411-.682 4.308-.583.005-1.165-.054-1.735-.175-.483-.103-.943-.297-1.355-.57-.371-.261-.671-.612-.872-1.019-.459-1.049-.401-2.255.156-3.255.345-.576.817-1.066 1.379-1.433.703-.451 1.478-.781 2.291-.975 1.046-.263 2.123-.388 3.202-.37 1.111-.015 2.22.115 3.299.385.861.214 1.674.587 2.398 1.101.624.451 1.127 1.051 1.462 1.745.332.724.497 1.514.482 2.31z"/><path d="m443.592 192.432c.536.004 1.068-.085 1.574-.263.502-.175.952-.475 1.306-.872.414-.477.719-1.037.897-1.643.239-.834.351-1.7.331-2.568 0-1.66-.396-2.899-1.189-3.718-.9-.856-2.118-1.3-3.358-1.223-.424 0-.804 0-1.15.053-.327.027-.653.072-.975.137-.297.058-.57.126-.833.195l-.765.219-1.53-.604 1.057-11.536h12.632l.161 6.063h-1.867l-.263-1.126c-.049-.18-.107-.357-.175-.531-.063-.15-.156-.286-.273-.4-.123-.114-.269-.199-.429-.248-.216-.069-.441-.1-.668-.093h-6.964v.287l-.058.707c0 .293-.049.624-.078.975s-.068.745-.098 1.126l-.263 3.065c.221-.081.447-.145.678-.19.277-.059.579-.112.901-.161s.673-.088 1.038-.117c.366-.029.712-.039 1.053-.039 1.185-.013 2.365.138 3.509.448.976.263 1.89.717 2.69 1.336.745.594 1.338 1.358 1.73 2.227.424.987.632 2.054.609 3.129.042 1.26-.23 2.511-.789 3.64-.489.939-1.19 1.752-2.047 2.374-.844.601-1.795 1.035-2.802 1.276-1.003.254-2.032.383-3.066.385-1.069.02-2.136-.093-3.177-.336-.753-.173-1.47-.474-2.12-.892-.496-.324-.902-.768-1.18-1.291-.243-.465-.37-.982-.37-1.506-.05-.664.22-1.313.726-1.745.566-.405 1.254-.607 1.949-.57.002.483.064.965.186 1.433.119.467.329.906.619 1.291.302.392.691.708 1.135.926.531.259 1.115.389 1.706.38z"/><path d="m473.276 173.007h-1.17c-.19-.002-.38.019-.565.063-.172.037-.33.124-.453.249-.144.155-.249.342-.307.546-.084.309-.122.629-.112.95v16.633c.01.755-.086 1.509-.288 2.237-.171.61-.436 1.191-.785 1.72-.325.483-.732.906-1.203 1.248-.469.34-.98.617-1.521.823-.562.214-1.145.365-1.74.454-.617.096-1.241.143-1.866.141h-1.004v-1.613h.487c.445.001.885-.085 1.297-.254.437-.179.823-.465 1.12-.833.362-.456.63-.98.79-1.54.214-.767.314-1.562.297-2.359v-16.75c.008-.299-.028-.598-.107-.887-.056-.194-.162-.37-.307-.511-.129-.116-.285-.196-.453-.234-.179-.044-.362-.065-.546-.064h-1.17v-1.462h9.606z"/><path d="m478.929 184.879-.78 2.392c-.073.225-.146.488-.224.795-.068.259-.106.526-.112.794-.007.169.03.337.107.487.068.132.165.247.283.337.123.086.26.152.404.195.158.047.323.07.488.068h1.164v1.462h-7.28v-1.462h.341c.227.001.453-.027.672-.083.21-.057.405-.16.57-.302.194-.18.358-.389.488-.619.188-.327.35-.667.487-1.019l6.024-16.379h3.816l5.809 16.375c.114.336.257.663.429.974.126.23.291.436.487.609.163.143.354.251.56.317.202.065.412.097.624.098h.488v1.462h-9.143v-1.462h1.087c.142-.001.283-.022.419-.064.141-.037.273-.102.39-.19.116-.088.211-.201.278-.331.075-.151.112-.319.107-.487 0-.221-.028-.44-.083-.654-.052-.211-.106-.391-.161-.54l-.975-2.788zm4.737-6.258-.307-.975-.312-1.067c-.102-.361-.205-.721-.297-1.077-.093-.356-.181-.702-.254-1.023-.078.277-.175.584-.282.921-.107.336-.224.677-.346 1.033l-.366 1.057c-.122.356-.239.692-.346 1.019l-1.647 4.698h5.624z"/><path d="m499.168 184.879-.799 2.392c-.073.225-.146.488-.224.795-.072.259-.111.525-.117.794-.006.17.033.338.112.487.068.132.165.247.283.337.122.086.257.152.399.195.159.046.323.069.488.068h1.169v1.462h-7.237v-1.462h.341c.227.001.453-.027.673-.083.209-.059.404-.162.57-.302.193-.18.358-.389.488-.619.187-.327.35-.667.487-1.019l6.019-16.379h3.815l5.81 16.375c.112.337.255.664.428.974.128.229.293.435.488.609.165.143.357.251.565.317.202.065.412.097.624.098h.487v1.462h-9.176v-1.462h1.086c.142-.001.284-.022.419-.064.14-.036.271-.101.385-.19.119-.085.215-.199.278-.331.078-.151.116-.318.112-.487 0-.221-.027-.44-.083-.654-.051-.211-.105-.391-.16-.54l-.975-2.788zm4.742-6.258c-.102-.317-.204-.648-.307-.975-.102-.326-.209-.701-.312-1.067-.102-.365-.204-.721-.297-1.077s-.18-.702-.253-1.023c-.083.277-.176.584-.283.921-.107.336-.224.677-.346 1.033s-.244.707-.37 1.057l-.346 1.019-1.643 4.698h5.624z"/><path d="m514.13 189.932h1.169c.182 0 .363-.018.541-.053.169-.036.327-.113.459-.225.143-.133.251-.3.311-.487.085-.284.123-.581.113-.877v-13.568c.011-.299-.027-.599-.113-.887-.059-.194-.167-.369-.311-.511-.13-.117-.288-.197-.459-.234-.177-.044-.358-.065-.541-.064h-1.169v-1.462h8.962c2.625 0 4.552.439 5.78 1.316 1.224.879 1.918 2.326 1.837 3.831.012.664-.099 1.325-.326 1.949-.199.545-.491 1.051-.863 1.496-.348.418-.757.781-1.213 1.077-.437.287-.901.53-1.384.726l3.314 5.707c.207.354.435.696.682 1.024.199.256.422.493.667.706.203.175.436.312.688.405.238.088.491.133.745.131h.107v1.462h-.882c-.729.004-1.457-.028-2.183-.097-.557-.048-1.106-.174-1.628-.375-.449-.174-.859-.434-1.208-.766-.375-.372-.694-.797-.946-1.262l-3.299-6.126h-1.847v5.488c-.009.297.03.593.117.877.061.186.168.354.312.487.131.112.289.189.458.225.178.035.359.053.541.053h1.194v1.462h-9.601zm6.979-8.772h1.564c.547.015 1.093-.072 1.608-.258.409-.156.767-.423 1.033-.77.276-.379.466-.813.556-1.272.12-.589.177-1.188.171-1.789.011-.603-.053-1.206-.191-1.793-.103-.441-.308-.852-.599-1.199-.283-.32-.649-.556-1.058-.682-.511-.149-1.041-.22-1.574-.21h-1.51z"/><path d="m557.547 350.122c-6.174-2.388-11.34 3.09-12.081 7.222-.184 1.12-.153 2.265.093 3.373-1.847-1.321-4.026-3.957-4.786-5.736-.191-.442-.341-.9-.448-1.37-.488-2.28.37-4.103 2.071-5.555 1.351-1.258 3.391-1.459 4.961-.488.375.205.531.054.746-.195.716-.852 1.427-1.72 2.183-2.539.395-.419.268-.614-.151-.872-1.574-1.003-3.495-1.311-5.303-.848-6.701 1.608-10.146 9.445-6.686 15.532 2.657 4.668 6.737 8.368 11.643 10.555 4.064 1.872 7.749 1.053 10.911-2.149.617-.621 1.176-1.296 1.672-2.017 4.24-6.248.78-12.749-4.825-14.913zm-2.977 16.082c-3.368-.024-6.589-3.255-6.57-6.589 0-3.197 2.832-6.047 5.931-5.994 3.338.049 6.662 3.314 6.677 6.55.014 3.148-2.91 6.077-6.038 6.053z"/><path d="m545.934 376.789c-.253-1.52-.766-2.986-1.516-4.332-2.246-4.103-5.073-7.724-9.074-10.234-3.558-2.252-7.125-2.11-10.595.278-.844.582-1.627 1.25-2.334 1.993-5 5.312-3.041 12.295 2.514 15.502 2.842 1.647 5.819 1.428 8.602-.273 3.109-1.91 5.024-4.566 4.781-8.421 1.389 1.145 3.411 4.537 3.899 6.501.157.677.222 1.372.194 2.066-.048 3.027-4.264 6.926-7.797 4.153-.37-.293-.575-.122-.843.107-.843.736-1.672 1.486-2.554 2.168-.458.366-.356.561 0 .883 1.473 1.346 3.481 1.953 5.454 1.647 3.44-.517 5.955-2.495 7.895-5.268 1.452-2.057 1.769-4.357 1.374-6.77zm-10.234-4.522c-.544 2.763-2.989 4.774-5.805 4.774-1.332 0-2.625-.449-3.669-1.275-1.701-1.369-2.832-3.109-2.924-5.361.063-2.466 1.374-4.147 3.411-5.307 1.901-1.082 3.826-.902 5.658.219 2.544 1.535 3.86 4.318 3.334 6.95z"/><path d="m415.097 365.693c-1.535-4.698-7.461-8.831-12.398-8.626-1.989.078-3.714.745-4.966 2.378-1.672 2.183-1.76 4.873-.21 7.456.346.57.756 1.106 1.204 1.76-.648-.191-1.165-.351-1.686-.488-4.152-1.033-7.481.746-8.797 4.723-.796 2.367-.371 4.981 1.136 6.973 2.158 3.187 5.454 5.432 9.211 6.273 4.386 1.003 8.284-1.258 9.386-5.288.721-2.666-.229-4.913-1.867-6.959-.092-.234 0-.273.22-.22.438.108.872.239 1.31.332 5.059 1.057 9.055-3.407 7.457-8.314zm-15.839 16.715c-2.792.018-5.346-1.612-6.506-4.152-1.642-3.299.902-7.095 4.62-7.11 2.705 0 5.756 2.164 6.589 4.708 1.038 3.172-1.35 6.618-4.703 6.554zm7.111-11.54c-2.574-.487-4.616-1.813-5.659-4.293-1.247-2.958.712-5.8 3.899-5.819 2.544 0 5.575 2.11 6.448 4.522.165.459.25.943.25 1.431 0 2.316-1.905 4.221-4.221 4.221-.24 0-.48-.021-.717-.062z"/><path d="m380.081 370.084c-.487.531-.78.526-1.247 0-.62-.66-1.281-1.28-1.979-1.857-.487-.414-.458-.663 0-1.121 4.964-5.228 9.919-10.47 14.864-15.727l.945-1.018c-1.979-.259-3.911-.802-5.736-1.613-.282-.127-.755-.2-.399-.658.263-.336.029-1.145.896-.946 2.437.566 4.923.351 7.369-.044.726-.211 1.511.034 1.988.619.511.596 1.085 1.136 1.711 1.609.604.487.487.77 0 1.247z"/><path d="m466.024 389.675c-1.783 5.162-3.214 10.439-4.284 15.795-.947 4.979-1.541 10.019-1.778 15.083-.059 1.243-.103 2.49-.127 3.733-.088 4.386.195 8.796.356 13.197.012.672-.037 1.344-.147 2.008-.355 2.334-1.51 3.441-4.132 3.597-6.75.394-11.999-2.286-15.698-7.959-.974-1.462-1.208-3.167-1.398-4.873-.332-2.997-.619-5.994-.707-9.708 0-.853-.034-1.74-.034-2.676-.18-10.112 3.294-20.468 9.216-30.103.716-1.169 1.486-2.305 2.207-3.474 1.765-2.832 4.425-3.899 7.637-3.899 1.759.059 3.495.427 5.127 1.087 3.748 1.369 4.732 5.341 3.762 8.192z"/><path d="m513.009 443.058c-.473 1.221-1.081 2.385-1.813 3.47l-.029.039c-5.71 8.135-13.524 14.569-22.603 18.612-3.94 1.688-8.054 2.94-12.267 3.733-3.336.637-6.725.963-10.122.975h-.044c-5.601-.077-11.164-.957-16.516-2.613h-.034l-.799-.258c-3.228-1.099-6.345-2.498-9.313-4.176l-.054-.03c-.136-.078-.278-.151-.414-.234-3.792-2.238-7.303-4.921-10.458-7.992-1.355-1.311-2.53-2.744-2.856-4.688-.285-1.308.26-2.664 1.369-3.412 2.042-1.491 4.386-1.856 6.852-1.72 2.614.2 5.166.889 7.525 2.032 5.33 2.486 11.013 4.13 16.847 4.874 7.146.806 14.383.143 21.263-1.95 7.578-2.212 14.547-5.731 21.277-9.795 2.842-1.721 5.966-2.515 9.299-1.95 2.773.468 3.884 2.452 2.89 5.083z"/><path d="m516.859 394.027c-.019.175-.118.331-.268.424-8.095 6.364-16.682 11.881-26.37 15.531-4.358 1.666-8.903 2.797-13.534 3.368-.487.063-.974.063-1.277.083-.711.013-1.422-.038-2.124-.151-1.986-.293-3.566-1.842-3.899-3.821-.975-4.386-.185-8.572 1.462-12.671.637-1.7 1.598-3.259 2.831-4.591.946-.988 2.161-1.678 3.495-1.983 7.86-1.911 15.107-5.093 21.394-10.322 1.634-1.358 3.162-2.839 4.571-4.43.288-.332.439-.434.819-.073 1.889 1.811 3.661 3.74 5.307 5.775l.161.2c3.037 3.865 5.537 8.124 7.432 12.661z"/><path d="m493.939 370.088c-.729 2.032-1.982 3.836-3.63 5.23-2.637 2.388-5.615 4.196-9.143 4.873-3.446.648-6.769.229-9.747-1.725-1.584-1.033-3.109-2.154-4.639-3.26-3.665-2.642-7.764-3.222-12.121-2.578-.367.12-.771.051-1.077-.186-2.856-2.436-5.721-4.873-8.582-7.31-.078-.08-.151-.165-.219-.253 1.124-.484 2.261-.929 3.411-1.336l.078-.029c1.664-.572 3.356-1.06 5.069-1.462 4.356-1.029 8.814-1.565 13.289-1.598h.449c5.048.063 10.063.822 14.903 2.256l.536.166c3.604 1.148 7.082 2.661 10.38 4.513 1.623.901 1.633.921 1.043 2.699z"/><path d="m582.334 179.152c-12.53-2.982-22.204-9.513-28.754-19.406l-.258-.39-.097-.107c-1.457-2.086-2.681-4.325-3.651-6.676l-.136-.312c-1.527-3.635-2.54-7.465-3.012-11.38l.059-.107 20.244-36.195 1.218-2.183 3.962-7.086c1.058.499 2.213.758 3.382.758 4.345 0 7.92-3.575 7.92-7.919s-3.575-7.919-7.92-7.919c-4.344 0-7.919 3.575-7.919 7.919v.007c.001 1.107.234 2.203.682 3.216l-6.515-.107-2.5-.039c-2.023-.029-20.025-.605-29.504-10.887l-.775-.848-.205-.22c3.812-.628 6.637-3.956 6.637-7.819 0-4.347-3.577-7.924-7.925-7.924-4.347 0-7.924 3.577-7.924 7.924 0 2.053.798 4.028 2.224 5.504l-1.881 1.019-1.019.551c-3.138 1.691-8.368 2.665-14.338 2.665-9.522 0-23.285-2.768-30.702-10.56l-.746-.78c1.406-1.473 2.192-3.433 2.192-5.469 0-4.345-3.575-7.919-7.92-7.919-4.344 0-7.919 3.574-7.919 7.919 0 2.067.809 4.053 2.253 5.532l-.707.751c-4.644 4.873-15.483 10.551-30.702 10.551-5.97 0-11.209-.975-14.353-2.671l-1.018-.57-1.949-1.062c1.399-1.472 2.18-3.427 2.18-5.457 0-4.345-3.575-7.92-7.92-7.92-4.344 0-7.919 3.575-7.919 7.92 0 3.898 2.879 7.246 6.733 7.83l-.19.205-.789.857c-9.464 10.273-27.467 10.849-29.489 10.878l-2.5.039-6.877.112c.457-1.013.693-2.111.692-3.221 0-.002 0-.004 0-.006 0-4.347-3.577-7.924-7.924-7.924s-7.924 3.577-7.924 7.924 3.577 7.924 7.924 7.924c1.274 0 2.53-.307 3.66-.896l4.035 7.218 1.223 2.183 20.245 36.2.058.102c-.473 3.92-1.49 7.755-3.021 11.394l-.127.298c-.97 2.351-2.194 4.59-3.65 6.676l-.268.307-.088.19c-6.545 9.893-16.214 16.424-28.753 19.406l-5.746 1.37v192.242c-.008 13.682 11.217 24.959 24.898 25.015.032 13.704 11.308 24.966 25.011 24.982h15.96c.083.579.166 1.155.263 1.725.093.32.167.645.22.974.273 1.394.56 2.783.916 4.162.302 1.097.633 2.184.975 3.251l.024.063c.122.322.249.644.375.975.687 1.637 1.764 2.963 3.485 3.562 2.964 1.095 6.208 1.181 9.225.244 2.838-.852 4.594-3.741 4.045-6.652-.568-3.472-.893-6.98-.975-10.498v-2.729c.115-6.667 1.389-13.264 3.768-19.493 2.509-6.521 6.028-12.506 9.961-18.217.559-.778.973-1.649 1.223-2.573.648-2.617-.336-4.655-2.822-5.634-4.581-1.813-8.772-.975-12.441 2.193-5.568 4.831-10.117 10.724-13.378 17.335l-.078.161c-3.506 7.339-5.323 15.371-5.317 23.504v.185h-15.434c-9.625 0-17.544-7.92-17.544-17.544v-7.456h-7.437c-9.574-.008-17.447-7.888-17.447-17.462 0-.028 0-.055 0-.083v-45.498h72.531l6.496 17.715h17.199l7.402-17.72h19.577l7.398 17.72h17.203l6.487-17.72h72.521v-5.317h-70.587l28.914-78.979h41.663v129.809c0 9.625-7.919 17.544-17.544 17.544h-7.447v7.447c0 9.624-7.919 17.544-17.544 17.544h-17.033v-.151c0-.575 0-1.145-.029-1.72-.127-4.363-.782-8.694-1.949-12.9-.022.044-.05.085-.083.122-2.227 2.532-4.741 4.797-7.49 6.749-9.708 6.935-20.61 10.888-32.165 13.159-.595.117-1.184.229-1.779.331-2.091.38-4.181.707-6.145 1.569-1.916.745-3.346 2.387-3.821 4.386-.67 2.657-.5 5.457.487 8.012 1.535 3.992 4.459 5.956 8.719 5.926 1.828-.062 3.646-.301 5.429-.711 13.027-2.622 26.662-8.436 37.93-17.32h17.919c13.704-.016 24.979-11.278 25.011-24.981 13.713-.024 24.989-11.303 25.01-25.016v-192.232zm-56.722-92.176c11.511 10.819 29.654 11.672 33.314 11.73l2.505.039-1.223 2.184-20.244 36.2-1.189 2.134h-28.71zm-55.007-8.957c6.613 5.487 18.241 10.648 33.734 10.648 4.521.065 9.028-.521 13.383-1.74l-15.566 52.336h-31.551zm-40.542 10.648c14.913 0 26.234-4.785 32.959-10.034v60.63h-31.55l-15.644-52.604c3.913 1.306 8.816 2.008 14.235 2.008zm-55.869 12.262-1.223-2.184 2.5-.039c3.601-.058 21.18-.872 32.71-11.165l15.386 51.722h-27.94l-1.189-2.134zm-20.395 221.005v-78.979h41.668l28.919 78.979zm54.845-78.979h24.733v67.453zm50.986 78.979 7.564-18.114 7.568 18.114zm28.554 0-15.595-37.486-3.558-8.539h-3.64l-3.558 8.539-15.595 37.486h-.487v-78.979h42.959v78.979zm12.87-11.526v-67.453h24.733zm79.569-86.854v14.089h-39.714l4.006-11.028h2.437c3.149-.008 5.738-2.597 5.746-5.746v-.488c-.006-3.15-2.595-5.742-5.746-5.75h-20.215c-3.149.008-5.738 2.597-5.746 5.746v.487c.008 3.144 2.587 5.732 5.731 5.751h4.635l-4.045 11.033h-26.658v-11.033h5.361c3.147-.011 5.733-2.599 5.741-5.746v-.488c-.005-3.149-2.592-5.74-5.741-5.75h-21.672c-3.149.008-5.738 2.597-5.746 5.746v.487c.006 3.151 2.595 5.743 5.746 5.751h3.943v11.033h-42.96v-11.033h3.943c3.149-.008 5.738-2.597 5.746-5.746v-.488c-.008-3.149-2.597-5.737-5.746-5.745h-21.662c-3.148.01-5.733 2.598-5.741 5.745v.488c.008 3.147 2.593 5.735 5.741 5.746h5.36v11.033h-26.672l-4.045-11.033h4.64c3.148-.011 5.735-2.598 5.745-5.746v-.488c-.008-3.149-2.596-5.737-5.745-5.745h-20.215c-3.149.008-5.738 2.596-5.746 5.745v.488c.008 3.149 2.597 5.738 5.746 5.746h2.407l4.04 11.033h-39.723v-51.22c14.386-3.411 25.751-11.209 33.251-22.559l.054-.073c1.845-2.576 3.387-5.356 4.595-8.285 1.209-2.929 0 0 0 0 1.191-2.793 2.127-5.689 2.798-8.65h145.399c.669 2.962 1.605 5.857 2.797 8.65s0 0 0 0c1.209 2.929 2.751 5.709 4.596 8.285l.053.073c7.5 11.346 18.865 19.133 33.252 22.559z"/></g></g></g></svg>