<svg clip-rule="evenodd" fill-rule="evenodd" stroke-linejoin="round" stroke-miterlimit="2" viewBox="0 0 560 400" xmlns="http://www.w3.org/2000/svg"><g transform="matrix(4.04279 0 0 4.04279 -1029.53 -685.772)"><path d="m0 0c11.025-6.793 16.494.129 18.53 0 4.341-.277 9.362-6.329 18.319 0 .761.537-.23-22.561-.23-22.561s.469-7.703-2.41-12.584c-5.557-9.415-15.314-11.502-15.314-11.502s-11.729 2.401-16.682 13.865c-2.59 5.997-.962 17.4-1.999 25.175-.541 4.061-.214 7.162-.214 7.162" fill="#fff" transform="matrix(1.25 0 0 -1.25 300.702 191.183)"/><path d="m0 0s1.973.206 1.607-.367c-.166-.206-1.027-.165-1.027-.289.084-.532.164-2.049-1.024-3.686-.533-.782-.369-3.363-.861-4.222-.902-1.559-2.336-1.272-2.5-1.232-.656.082-1.557.451-1.927 1.68-1.311-.283-2.336.574-2.704 1.026-.657.739-.944 2.131-.246 3.401.697 1.272 2.089 1.436 3.401 1.64 2.42.37 2.623 2.419 5.083 1.967" fill="#231f20" transform="matrix(1.25 0 0 -1.25 340.198 199.115)"/><path d="m0 0s2.09.206 1.723-.367c-.164-.206-1.026-.165-1.026-.289.082-.532.164-2.049-1.022-3.686-.536-.782-.372-3.363-.862-4.222-.903-1.559-2.338-1.272-2.501-1.232-.655.082-1.558.451-1.966 1.68-1.312-.283-2.338.574-2.706 1.026-.656.739-.903 2.131-.204 3.401.695 1.272 2.089 1.436 3.401 1.64 2.417.37 2.581 2.419 5.082 1.967" fill="#231f20" transform="matrix(1.25 0 0 -1.25 318.38 199.115)"/><path d="m0 0s2.091.204 1.72-.329c-.161-.245-1.023-.161-1.023-.286.123-.572.164-2.09-1.024-3.727-.532-.74-.328-3.361-.862-4.225-.901-1.557-2.336-1.228-2.5-1.228-.653.083-1.558.49-1.926 1.681-1.311-.245-2.336.613-2.706 1.024-.655.737-.941 2.134-.245 3.401.697 1.272 2.091 1.436 3.401 1.64 2.419.367 2.624 2.458 5.082 2.008" fill="#231f20" transform="matrix(1.25 0 0 -1.25 328.781 225.141)"/><path d="m0 0h36.118" fill="none" transform="matrix(1.25 0 0 -1.25 301.604 220.495)"/><path d="m301.604 220.208h44.886v.573h-44.886z" fill="#918f90" fill-rule="nonzero"/><path d="m0 0h36.117" fill="none" transform="matrix(1.25 0 0 -1.25 301.555 218.922)"/><path d="m301.555 218.635h44.909v.573h-44.909z" fill="#918f90" fill-rule="nonzero"/><path d="m0 0h36.117" fill="none" transform="matrix(1.25 0 0 -1.25 301.555 217.294)"/><path d="m301.555 217.008h44.988v.573h-44.988z" fill="#918f90" fill-rule="nonzero"/><path d="m0 0h36.118" fill="none" transform="matrix(1.25 0 0 -1.25 301.505 215.718)"/><path d="m301.504 215.432h45.147v.573h-45.147z" fill="#918f90" fill-rule="nonzero"/><path d="m0 0h36.116" fill="none" transform="matrix(1.25 0 0 -1.25 301.456 214.091)"/><g fill-rule="nonzero"><path d="m301.456 213.805h45.145v.573h-45.145z" fill="#918f90"/><path d="m0 0-.006-.096c.027.021.057.039.086.062z" fill="#7e8385" transform="matrix(1.25 0 0 -1.25 348.554 189.364)"/><path d="m0 0c-.685-.516-3.762-2.802-9.687-2.859-4.36-.041-9.646 4.738-9.646 4.738s-4.108-4.218-10.857-4.218c-4.24 0-9.3 3.363-9.3 3.363l.071-.928 1.865-24.303.203 18.318.004 2.873c.752-.421 1.531-.791 2.339-1.099 1.825-.699 3.796-1.09 5.78-1.083 1.984 0 3.959.402 5.78 1.112 1.424.554 2.752 1.287 3.983 2.128 1.233-.844 2.561-1.58 3.985-2.137 1.819-.715 3.794-1.126 5.783-1.133 1.988-.014 3.966.371 5.798 1.067.777.293 1.527.645 2.252 1.043l-.03-21.089z" fill="#116030" transform="matrix(1.25 0 0 -1.25 348.545 189.485)"/><path d="m0 0c1.143 1.792 1.608 2.893 2.301 5.738.519 3.561.271 4.427.45 6.777.193-2.451.439-5.189-.079-7.618-.514-2.425-1.142-4.801-2.485-6.962-1.338-2.164-3.073-4.114-5.061-5.782-4.531-3.43-10.061-4.981-10.061-4.981s-8.23 2.966-13.165 8.345c-1.997 2.337-3.479 5.053-4.324 7.918-.853 2.867-.55 5.839-.758 9.253.235-2.359.114-4.729.636-6.779.52-2.048 1.338-4.011 2.438-5.803 6.479-8.394 15.13-10.617 15.13-10.617s10.9 3.359 14.978 10.511" fill="#116030" transform="matrix(1.25 0 0 -1.25 343.036 235.027)"/></g></g></svg>