<svg clip-rule="evenodd" fill-rule="evenodd" stroke-linejoin="round" stroke-miterlimit="2" viewBox="0 0 560 400" xmlns="http://www.w3.org/2000/svg"><g fill-rule="nonzero"><path d="m0 0h-1.28l-1.918 7.01c-.053.205-.074.28-.268.365-.163.076-.26.128-.26.324 0 .356.442.356.691.356h2.497c.236 0 .613.032.613-.311 0-.369-.482-.272-.482-.669 0-.098.021-.163.053-.27l1.066-3.952zm2.491 8.055 1.408-5.375-.677-2.68h-1.282l-1.4 5.189.733 2.866zm1.324-3.286.409 1.681c.033.151.075.28.075.443 0 .558-.679.474-.679.872 0 .246.227.29.42.29h1.391c.204 0 .44-.023.44-.303 0-.161-.085-.203-.226-.269-.538-.235-.677-.613-.82-1.15l-.687-2.738-.023.011z" transform="matrix(2.36846 0 0 -2.36845 153.82678196 292.86069115)"/><path d="m0 0c-.508-.183-.551-.506-.551-.773v-5.582c0-.268.043-.591.551-.775v-.625c-2.285.206-3.351 2.048-3.351 4.191 0 2.142 1.066 3.984 3.351 4.189zm.482-7.13c.507.184.55.507.55.775v5.582c0 .267-.043.59-.55.773v.625c2.284-.205 3.352-2.047 3.352-4.189 0-2.143-1.068-3.985-3.352-4.191z" transform="matrix(2.36846 0 0 -2.36845 175.84635458 274.8817872)"/><path d="m0 0c-.852 0-1.507.01-2.25.418-.969.54-1.099.949-1.099 1.489v5.106c0 .398.011.463-.366.579-.142.044-.236.14-.236.293 0 .311.353.334.398.334h3.047c.043 0 .399-.023.399-.334 0-.153-.098-.249-.238-.293-.376-.116-.366-.181-.366-.579v-5.184c0-.106-.096-.955.711-1.194zm1.928 6.516c-.172 1.346-.862.927-.862 1.391 0 .333.442.312.561.312h1.227c.121 0 .562.021.562-.312 0-.464-.689-.045-.863-1.391v-4.061c-.086-1.777-1.367-2.423-2.069-2.434v.636c.993.301 1.379.862 1.444 1.819z" transform="matrix(2.36846 0 0 -2.36845 195.96879074 293.24911695)"/><path d="m0 0h.023l.604-1.077v-3.253c.172-1.347.861-.926.861-1.389 0-.334-.44-.311-.56-.311h-1.227c-.121 0-.56-.023-.56.311 0 .463.689.042.859 1.389zm5.614-3.425v-2.605h-1.606l-3.941 6.795c-.174.301-.226.462-.583.581-.181.066-.322.107-.322.345 0 .323.322.323.55.334h2.767zm-.626 3.501c0 1.539-.884 1.13-.884 1.626 0 .3.358.323.465.323h1.465c.107 0 .462-.023.462-.323 0-.496-.882-.087-.882-1.626v-2.619h-.022l-.604 1.089z" transform="matrix(2.36846 0 0 -2.36845 207.80398536 278.5813061)"/><path d="m0 0h-2.736c-.239 0-.506.02-.506.332 0 .151.096.247.236.291.377.117.366.182.366.581v5.645c0 .161.021.452-.183.518-.214.074-.419.105-.419.377 0 .28.267.311.483.311h2.759zm.484 8.055c1.832.022 3.362-1.25 3.489-4.028.119-2.531-1.701-4.027-3.489-4.027v.623c.657.087.69.7.69 1.11v4.589c0 .408-.033 1.023-.69 1.106z" transform="matrix(2.36846 0 0 -2.36845 232.42649552 292.86069115)"/><path d="m0 0h2.841v-8.055h-2.841c-.042 0-.397.019-.397.331 0 .152.095.247.236.292.377.117.365.182.365.58v5.646c0 .398.012.463-.365.579-.141.044-.236.141-.236.293 0 .311.355.334.397.334m3.328 0h2.403v-2.187c0-.054-.013-.259-.334-.259-.185 0-.238.106-.292.271-.28.871-.83 1.4-1.777 1.548zm0-3.598c.452.119.657.537.753.949.055.182.119.354.346.354.334 0 .279-.387.279-.473v-2.327c0-.087.055-.473-.279-.473-.227 0-.291.172-.346.354-.096.409-.301.828-.753.947zm0-3.834c.872.106 1.542.7 1.831 1.561.076.162.141.335.334.335.343 0 .313-.324.313-.367v-2.152h-2.478z" transform="matrix(2.36846 0 0 -2.36845 244.51748382 273.7828264)"/><path d="m0 0h-2.736c-.237 0-.506.02-.506.332 0 .151.097.247.236.291.378.117.366.182.366.581v5.645c0 .161.023.452-.182.518-.216.074-.42.105-.42.377 0 .28.269.311.484.311h2.758zm.484 8.055c1.831.022 3.361-1.25 3.491-4.028.117-2.531-1.701-4.027-3.491-4.027v.623c.658.087.69.7.69 1.11v4.589c0 .408-.032 1.023-.69 1.106z" transform="matrix(2.36846 0 0 -2.36845 267.75444488 292.86069115)"/><path d="m0 0h-1.282l-1.916 7.01c-.054.205-.074.28-.27.365-.16.076-.257.128-.257.324 0 .356.439.356.688.356h2.499c.236 0 .613.032.613-.311 0-.369-.482-.272-.482-.669 0-.098.02-.163.053-.27l1.064-3.952zm2.487 8.055 1.412-5.375-.677-2.68h-1.284l-1.402 5.189.735 2.866zm1.326-3.286.411 1.681c.033.151.074.28.074.443 0 .558-.68.474-.68.872 0 .246.229.29.42.29h1.391c.205 0 .441-.023.441-.303 0-.161-.086-.203-.225-.269-.539-.235-.679-.613-.82-1.15l-.689-2.738-.021.011z" transform="matrix(2.36846 0 0 -2.36845 295.84201202 292.86069115)"/><path d="m0 0-1.011-3.685c-.172-.657-.021-.84.342-1.001.174-.076.326-.14.326-.354 0-.304-.345-.291-.56-.291h-1.24c-.214 0-.604.009-.604.321 0 .258.184.248.421.367.227.118.518.365.722 1.131l1.292 4.727h.033zm1.153-3.242h-1.572l.15.624h1.316l-1.089 4.76.14.583h2.38l1.617-6.807c.061-.304.074-.509.376-.636.151-.064.268-.141.268-.335 0-.291-.386-.278-.592-.278h-2.683c-.213 0-.526.02-.526.3 0 .172.064.227.204.302.281.162.322.237.228.656z" transform="matrix(2.36846 0 0 -2.36845 314.64047904 280.23685265)"/><path d="m0 0c0 .398.011.463-.366.579-.139.044-.238.141-.238.293 0 .311.356.334.4.334h2.844v-6.852c0-.398-.012-.463.365-.58.141-.045.238-.14.238-.292 0-.312-.355-.331-.396-.331h-3.051c-.044 0-.4.019-.4.331 0 .152.099.247.238.292.377.117.366.182.366.58zm3.124 1.206h.056c.698 0 1.431.022 2.077-.29.721-.356 1.089-.947 1.099-1.767.021-1.24-.796-1.78-1.896-2.037v-.021c.958-.141 1.875-.422 1.896-1.562v-.949c0-.096-.034-.312.106-.312.176 0 .206.312.465.312.14 0 .314-.16.314-.312 0-.312-.357-.709-.594-.894-.366-.303-.755-.387-1.216-.387-.465 0-.885.119-1.217.455-.379.385-.434.86-.434 1.366v.732c0 .495-.008 1.098-.656 1.163v.634c.582.056.656.411.656.938v1.305c0 .539-.117.796-.656.99z" transform="matrix(2.36846 0 0 -2.36845 328.77307986 276.6391771)"/><path d="m0 0c0 .398.012.463-.365.579-.141.044-.239.141-.239.293 0 .311.357.334.399.334h2.845v-6.852c0-.398-.012-.463.366-.58.14-.045.238-.14.238-.292 0-.312-.357-.331-.399-.331h-3.05c-.042 0-.399.019-.399.331 0 .152.098.247.239.292.377.117.365.182.365.58zm3.123 1.206h.054c.702 0 1.434.022 2.08-.29.722-.356 1.087-.947 1.098-1.767.02-1.24-.796-1.78-1.896-2.037v-.021c.959-.141 1.875-.422 1.896-1.562v-.949c0-.096-.032-.312.108-.312.173 0 .205.312.463.312.139 0 .313-.16.313-.312 0-.312-.356-.709-.593-.894-.367-.303-.753-.387-1.216-.387s-.886.119-1.219.455c-.376.385-.43.86-.43 1.366v.732c0 .495-.011 1.098-.658 1.163v.634c.583.056.658.411.658.938v1.305c0 .539-.119.796-.658.99z" transform="matrix(2.36846 0 0 -2.36845 348.31524332 276.6391771)"/><path d="m0 0c0-.398-.01-.464.367-.581.139-.044.237-.14.237-.291 0-.312-.355-.332-.401-.332h-3.047c-.041 0-.398.02-.398.332 0 .151.097.247.238.291.377.117.366.183.366.581v5.646c0 .398.011.462-.366.579-.141.044-.238.14-.238.293 0 .311.357.334.398.334h3.047c.046 0 .401-.023.401-.334 0-.153-.098-.249-.237-.293-.377-.117-.367-.181-.367-.579z" transform="matrix(2.36846 0 0 -2.36845 374.43698866 290.0114458)"/><path d="m0 0c-.505-.183-.55-.506-.55-.773v-5.582c0-.268.045-.591.55-.775v-.625c-2.283.206-3.349 2.048-3.349 4.191 0 2.142 1.066 3.984 3.349 4.189zm.485-7.13c.505.184.55.507.55.775v5.582c0 .267-.045.59-.55.773v.625c2.284-.205 3.35-2.047 3.35-4.189 0-2.143-1.066-3.985-3.35-4.191z" transform="matrix(2.36846 0 0 -2.36845 385.50953916 274.8817872)"/><path d="m0 0c0 .398.013.463-.365.579-.139.044-.235.141-.235.293 0 .311.354.334.395.334h2.846v-6.852c0-.398-.01-.463.366-.58.138-.045.235-.14.235-.292 0-.312-.354-.331-.396-.331h-3.051c-.041 0-.395.019-.395.331 0 .152.096.247.235.292.378.117.365.182.365.58zm3.123 1.206h.057c.701 0 1.43.022 2.078-.29.721-.356 1.088-.947 1.097-1.767.022-1.24-.795-1.78-1.896-2.037v-.021c.961-.141 1.874-.422 1.896-1.562v-.949c0-.096-.033-.312.108-.312.174 0 .207.312.465.312.138 0 .312-.16.312-.312 0-.312-.355-.709-.594-.894-.365-.303-.754-.387-1.216-.387s-.883.119-1.217.455c-.377.385-.433.86-.433 1.366v.732c0 .495-.01 1.098-.657 1.163v.634c.584.056.657.411.657.938v1.305c0 .539-.116.796-.657.99z" transform="matrix(2.36846 0 0 -2.36845 397.85395268 276.6391771)"/><path d="m0 0c-1.014.011-.764-.353-1.072-.542-.416-.257-.881-.413-2.672-.413-1.01 0-1.154-.606-1.949-.786-.974-.228-1.138-1.237-2.245-1.399-.044-.006-.334.062-.427.056-2.539-.188-1.965-1.639-2.989-3.094-.138-.195-.189.149-1.181.552-1.431.583-2.11.654-4.069.276-.332-.364-1.921-.542-2.913-2.218-.962-1.623-2.227-2.94-1.506-5.828.726-2.912 3.136-3.884 3.136-3.884l.807-1.208s1.406.504 1.708 1.407c.3.903.502-.199 0-.805-.503-.602-1.799-2.101-2.024-2.937-.703-2.613-1.233-4.882-1.194-5.139.215-1.357-.533-2.728-.99-5.505-.375-2.289 2.16-.031.853-2.544-.4-3.188.223-3.683.704-4.368-.116.165.443-.85 1.154-.943.152.791-.302 1.495-.302 1.495s-.111 1.318-.035 1.595c.112.414.251 1.4.413 1.581.428.478.114-1.129.49-1.318.221-.11.456.373.466.528.038.603.267.565.124 1.281-.035.188-.345.51-.326.755-.264 1.016.33 1.023.871 1.087.301.039.516 1.207.525 2.72.008.896 1.732 5.912 3.389 7.419 2.051 1.866 2.257 2.427 4.382 5.181.556.719 1.395.364.636-.86-.678-1.091-3.219-2.788-4.616-4.549-.394-.496-1.826-3.831.955-5.425.74-.422.272-1.701-.861-4.905-.709-2.002-1.094-.837-1.374-1.368-.282-.534-1.071-3.459-1.608-5.111-.512-1.568-2.13-6.826-2.13-6.826l.038-1.265-2.682-8.03s.237-.956.737-.05c.611 1.116 3.105 8.263 3.105 8.263l.805.145 2.412 6.386.63.918.999.027s.174-.69.672-.175c.232.24-.181.368.084.769.191.287.461.02.73.325.503.568 1.037 1.528 1.037 1.528l.112 3.787 1.476-1.953s.541.254 1.225.596c.832.417.495-1.032-.076-1.396-.342-1.759-.098-1.631.296-2.252.172-.911-.202-.904-.302-1.307-.101-.4.156-1.172-.37-1.255-1.188-.187-1.03-1.364-1.124-1.953-.104-.633 1.42-.809.577-1.357-.679-.44-1.959-.879-2.06-1.583-.101-.701-.09-4.263-.09-4.263s.901-.717.838-.968c-.062-.249-1.137-.74-1.137-.74l-.501-2.413s-1.207-2.11-1.912-2.812c-.702-.702-1.456-2.033-1.456-2.033s-.852-.551-.652-.752c.141-.142.3-.404.3-.404l-2.411-2.236s-2.201-2.811-.936-4.648c1.047-1.52 2.166-1.802 2.768-1.502.601.302 3.894 1.916 4.121 3.657.185 1.395 1.232.96 1.232.96l2.965 3.04.301 1.105s2.506 1.576 3.816 3.115c1.25 1.462 3.873 5.062 3.975 7.17.099 2.111 1.747 6.11 1.747 6.11s2.192-3.854 2.316-5.04c.109-1.031-.802-9.147-.3-9.949.502-.803 1.387-1.947 1.217-3.385-.185-1.56-.627-5.616-.814-7.266-.068-.58-.811-1.919-.109-2.523.704-.6 3.298-.633 3.902-.435.602.203 5.682-.44 7.083-.128 1.589.353 1.366 1.299.978 2.384-.28.78-3.315.702-3.618 1.206-.3.503-2.279 1.39-2.016 3.588.2 1.652.008 3.295.51 4.048.5.753 1.793 1.443 2.399 2.934.687 1.7 1.922 3.678 1.922 5.406 0 .85-.916 2.743-1.444 4.559-.443 1.524-.508 1.646-.724 3.146-.219 1.525-.947 4.994-1.248 7.064-.248 1.69-1.244 3.272-1.244 3.272s3.753-1.66 5.005-2.821c1.506-.092 3.389-1.808 3.389-1.808s3.871-6.563 3.9-7.285c.033-.719 1.004-.603 1.004-.603s.905-.703.303-1.709c-.603-1.002-.76-3.232-1.56-4.136-.807-.903-2.221-1.144-2.221-1.144s-.772-2.172-.268-2.472c.503-.304 3.705-.005 4.552.522.827.514 2.983 1.417 3.384 2.121.404.703 1.213 1.871 1.614 1.67s3.561 1.839 3.26 2.844c-.302 1.007-1.743 2.688-1.927 3.008-.657 1.13 2.441 3.777 2.788 6.605.071.599-2.024.663-2.024.663s-2.129.281-3.221.558c-1.01.258-1.33 1.072-2.054 1.468-.69.376-1.651 3.977-2.749 5.389-1.114 1.428-1.949 2.528-2.545 4.237-.476 1.37-.85 2.941-.728 4.58.105 1.424 1.727 1.054 1.515 2.43-.228 1.446-.174 2.749-.986 3.21-1.254.705-.193.788.397 1.53.644.815 1.455 2.316 1.554 3.323.104 1.004-.791 1.475-.89 2.177-.101.705.683.687.584 1.188-.1.502-1.492 2.111-2.801 2.513-1.309-.415-2.327 1.451-3.268 1.607-.939.157-1.373-.149-1.275.353.05.244-.854 1.141-1.09 1.875.164 1.011.963 1.369 1.402 2.256.678 1.375.163 1.852-.423 2.555-.68.82-3.004 2.571-3.891 2.399-1.125-.219-2.067-.618-4.268-1.118-.525-.12-1.148-.867-2.253-.767-1.106.102-1.909.603-2.711.202-.803-.401-1.006-1.307-1.506-1.81-.504-.501-1.465-1.032-4.221-1.003m-7.852-33.603c.213-1.032.129-2.969.173-3.313.04-.345-1.725-1.81-2.022-2.07-.305-.257-.994-.344-.994.088 0 .43.864 2.369 1.166 2.841.298.474.258 1.507.298 2.541.043 1.034.475.948 1.036 1.162.556.217.129-.214.343-1.249m25.879 28.98-1.034.173s.218.559.389.732c.174.172.645-.905.645-.905m-5.741-.629s-.227-1.619-.151-1.035c.077.566 1.261 1.353.851-.085-.341-1.195-1.039-2.003-1.039-2.003.008-1.181-.634-2.199-.634-2.199-.167-.057-.331.579-.451.886-.018.048.402.098.378.132-.025.036-.396.131-.396.131s-.104.487-.057.736c.05.266.154.344.437.365.284.018-.144.115-.2.359-.055.244.104.609-.085.966-.187.359-.294.592-.294.592l.117 1.025.289-.145s-.106-.205-.056-.333c.052-.129.255-.18.299-.226.084-.092.11-.067.233-.092.049-.01.192.064.209.232.008.092.052.272.059.37.006.211-.147.377-.147.377l.418.078zm-5.89 6.783s.492.095.719.189c.225.093 1.772.144 2.579-.038 1.258-.282 2.139-.969 2.979-1.706.77-.679 1.198-1.815 1.468-2.185.83-1.131.377-1.182.151-1.408-.216-.215-.723-.383-.911-.534-.186-.152-1.118-.321-1.118-.321.063.271-.06.381-.151.879-.344 1.874-.469 1.687-1.061 2.89-.313.639-1.188 1.364-1.582 1.582-.317.177-1.489.464-1.846.484-.357.019-1.227.168-1.227.168m-4.74-25.117c.449.527.653 1.369 1.106 1.759.703.602.527-.528.527-.528s-.2-.703-.098-1.205c.091-.463 1.227-1.773 2.485.744.201.402.767.269.942-.205.399-1.082.137-2.119-.292-2.913-.291-.537-1.078-1.153-1.078-1.153.525.265.775 1.492.94 1.963.717 2.06-.359 2.952-.762 2.243-.199-.348-1.868-1.533-2.268-1.558-.402-.026-.137 1.638-.338 1.714-.203.076-1.164-.861-1.164-.861m.805 16.178c1.277-.532 2.728-.995 3.091-2.408.231-.903.174-1.94.175-2.868 0-.757.049-5.15-.176-6.255-.101 1.608-.182 7.476-.653 8.892-.502 1.512-1.658 1.759-3.091 2.737z" transform="matrix(2.36846 0 0 -2.36845 256.79084354 90.4553226)"/><path d="m0 0h96.674l-5.424 2.301h-3.781l-2.795.823-.493.164-1.316-.823s.985.659-1.809.659c-2.796 0-5.591-.329-5.591-.329l-.986.329h-2.467l-7.233-.823s1.315.329.328.657c-.984.33-3.945.33-3.945.33h-.986s-1.479-.493-1.975-.493h-8.877l-2.754-.375-1.357-.612h-.821l-8.056.329s.49-.494-1.647-.494c-2.134 0-3.781.494-3.781.494l-10.028-1.15 2.304.656h-2.304l-3.452-.328s.162-.165-.495-.165c-.658 0-8.384-.494-8.384-.494l-4.768.494z" transform="matrix(2.36846 0 0 -2.36845 164.87564786 266.00246815)"/><path d="m0 0c0-.326.049-.387.447-.483.181-.037.278-.145.278-.303 0-.156-.121-.289-.278-.313-.096-.024-.107-.024-.433-.024h-2.646c-.265 0-.276 0-.372.024-.146.036-.23.145-.23.302 0 .145.084.254.241.301.326.109.361.145.361.448v5.902c0 .302-.035.338-.361.446-.157.049-.241.158-.241.302 0 .157.084.266.23.302.096.024.107.024.372.024h2.632zm.484 6.928c.518 0 .977-.036 1.34-.096 1.17-.218 1.895-1.122 1.895-2.367 0-1.278-.748-2.185-1.992-2.413-.351-.061-.773-.085-1.243-.085v.629c.518.119.663.337.663.94v1.896c0 .554-.18.784-.663.856z" transform="matrix(2.36846 0 0 -2.36845 228.25800592 317.14677745)"/><path d="m0 0c0-.326.049-.387.447-.483.182-.037.278-.145.278-.303 0-.156-.12-.289-.278-.313-.096-.024-.108-.024-.434-.024h-2.644c-.265 0-.277 0-.374.024-.145.036-.228.145-.228.302 0 .145.083.254.241.301.326.109.361.145.361.448v5.902c0 .302-.035.338-.361.446-.158.049-.241.158-.241.302 0 .157.083.266.228.302.097.024.109.024.374.024h2.631zm.459 6.928c1.207-.012 1.533-.048 1.98-.229.844-.339 1.267-.954 1.267-1.847 0-.604-.229-1.135-.651-1.46-.303-.242-.568-.363-1.268-.568.664-.109.918-.18 1.244-.374.398-.228.639-.628.639-1.051v-1.218c0-.133.036-.181.121-.181.061 0 .084.023.17.12.096.121.204.193.312.193.122 0 .29-.18.29-.313 0-.29-.374-.786-.772-1.038-.277-.17-.592-.242-1.025-.242-1.039 0-1.655.628-1.655 1.689v.99c0 .677-.193.979-.652 1.027v.639c.472.061.652.278.652.81v1.557c0 .495-.144.687-.652.843z" transform="matrix(2.36846 0 0 -2.36845 245.58329082 317.14677745)"/><path d="m0 0c-.398-.133-.543-.351-.543-.82v-5.275c0-.64.133-.882.543-.991v-.639c-2.052.169-3.343 1.787-3.343 4.176 0 2.403 1.352 4.092 3.343 4.189zm.482.64c1.994-.097 3.345-1.786 3.345-4.189 0-2.389-1.292-4.007-3.345-4.176v.639c.387.109.544.374.544.991v5.275c0 .469-.145.687-.544.82z" transform="matrix(2.36846 0 0 -2.36845 264.59491924 301.87974875)"/><path d="m0 0c-.555.096-.881.205-1.207.434-.506.35-.809.881-.809 1.424 0 .749.555 1.329 1.256 1.329.64 0 1.17-.532 1.17-1.171 0-.471-.24-.809-.736-1.063-.06-.036-.108-.073-.108-.085 0-.072.181-.168.434-.217zm.507.651c.302.133.411.351.411.821v5.577c0 .337-.037.374-.436.47-.193.049-.289.158-.289.315 0 .156.121.289.278.313.096.012.109.012.447.024h2.631c.472 0 .604-.072.604-.326 0-.144-.085-.253-.241-.302-.326-.107-.363-.144-.363-.446v-4.925c0-1.4-.99-2.222-2.655-2.222-.109 0-.205 0-.387.013z" transform="matrix(2.36846 0 0 -2.36845 279.00462988 320.0907608)"/><path d="m0 0h-2.632c-.265 0-.277 0-.375.024-.143.037-.228.145-.228.302 0 .145.085.254.242.301.326.109.361.145.361.448v5.902c0 .302-.035.338-.361.446-.157.049-.242.158-.242.302 0 .157.085.266.228.302.098.024.11.024.375.024h2.632zm2.884 8.051v-2.1c0-.241-.084-.35-.289-.35-.181 0-.242.047-.314.265-.302.93-.893 1.413-1.786 1.485v.7zm-2.389-3.609c.435.193.651.458.734.87.075.3.159.398.351.398.231 0 .29-.109.29-.496v-2.244c0-.363-.072-.483-.29-.483-.168 0-.265.096-.326.362-.132.519-.386.833-.759.905zm0-3.802c.867.084 1.569.676 1.847 1.545.083.253.168.326.325.326.229 0 .302-.109.302-.435v-2.076h-2.474z" transform="matrix(2.36846 0 0 -2.36845 298.41652804 319.8065468)"/><path d="m0 0c-.459-.073-.676-.411-.676-1.026v-4.877c0-.447.026-.555.169-.76.132-.181.254-.254.507-.266v-.724c-2.186.049-3.488 1.569-3.488 4.044 0 1.545.508 2.763 1.46 3.561.628.507 1.292.748 2.028.76zm.471.7c.363-.049.496-.085 1.111-.314.229-.084.326-.109.41-.109.133 0 .194.049.326.303.047.071.145.132.265.132.204 0 .326-.132.326-.375v-2.449c0-.279-.133-.447-.35-.447-.18 0-.289.121-.362.386-.277 1.184-1.002 2.1-1.726 2.173zm.012-7.629c.845.085 1.521.641 1.763 1.424.084.254.168.35.35.35.18 0 .324-.157.324-.361 0-.411-.361-1.026-.844-1.473-.494-.447-.967-.64-1.593-.664z" transform="matrix(2.36846 0 0 -2.36845 315.22548866 302.0526456)"/><path d="m0 0v-.724c-.436-.217-.7-.76-.833-1.726-.035-.23-.168-.374-.361-.374-.206 0-.351.157-.351.386v2.438zm3.114-6.928c0-.326.048-.386.447-.483.181-.036.277-.145.277-.302s-.121-.29-.277-.314c-.096-.024-.109-.024-.434-.024h-2.644c-.338 0-.35 0-.446.024-.157.024-.279.157-.279.314s.097.266.279.302c.398.097.446.145.446.483v6.928h2.631zm2.029 4.49c0-.229-.147-.386-.351-.386-.157 0-.276.096-.337.277-.014.026-.049.182-.086.459-.144.712-.397 1.183-.772 1.364v.724h1.546z" transform="matrix(2.36846 0 0 -2.36845 327.46095302 300.73815585)"/></g></svg>