<svg clip-rule="evenodd" fill-rule="evenodd" stroke-linejoin="round" stroke-miterlimit="2" viewBox="0 0 560 400" xmlns="http://www.w3.org/2000/svg"><path d="m-979.471 977.963c-40.399 0-58.699-26.8-58.699-56.6 0-29.9 18.2-56.4 58.699-56.4 40.4 0 58.7 26.6 58.7 56.4 0 29.9-18.2 56.6-58.7 56.6m0-83.2c-15.6 0-17.6 15.1-17.6 26.6 0 11.4 2.1 26.8 17.6 26.8 15.6 0 17.6-15.3 17.6-26.8.1-11.4-2-26.6-17.6-26.6m175.3 80.5h-39.8v-13.7h-.4c-7.7 10.8-18.7 16.4-35 16.4-19.3 0-36.9-11.8-36.9-36.5v-73.8h41.1v56.4c0 12.4 1.4 21.2 13.5 21.2 7.1 0 16.4-3.5 16.4-20.7v-56.9h41.1zm49.8-49.8c0 3.7.6 7 1.7 9.7 3.3 8.9 13.3 10.8 21.8 10.8 7.5 0 18.9-2.5 18.9-13.5 0-7.7-6.4-9.7-31.9-17-23.4-6.6-50.2-13.1-50.2-42.9 0-34.2 29.2-48.9 59.7-48.9 32.2 0 60.6 12.2 61.8 48.3h-43.1c.8-5.6-1.7-9.3-5.4-11.8-3.7-2.7-8.9-3.7-13.5-3.7-6.2 0-16.4 1.7-16.4 10 .8 10.6 22 12.9 42.9 18.7s41.7 15.6 41.7 42.7c0 38.6-35.5 51-68.4 51-16.8 0-64.7-6-65.1-53.3h45.5zm130.9 5.2c1 12.2 8.1 20.9 21 20.9 6.6 0 13.9-2.5 17.2-7.7h38.4c-8.3 23.2-30.9 34-55.4 34-34.4 0-60.4-20.3-60.4-56.2 0-31.3 22.8-56.8 56.8-56.8 42.7 0 61.2 23.9 61.2 65.8zm39.4-21.3c0-10-7.5-18-18-18-12.2 0-19.3 6.4-21.2 18zm82.1 21.3c1 12.2 8.1 20.9 20.9 20.9 6.6 0 13.9-2.5 17.2-7.7h38.4c-8.3 23.2-30.9 34-55.4 34-34.4 0-60.4-20.3-60.4-56.2 0-31.3 22.8-56.8 56.8-56.8 42.7 0 61.2 23.9 61.2 65.8zm39.4-21.3c0-10-7.5-18-18-18-12.2 0-19.3 6.4-21.2 18zm-653.599 103.297c-7.9 0-20.4-3.1-20.4-3.1v-28.097s5.9.8 9 .8c6 0 9-2 11.3-4.8 2.1-2.5 4.2-6.7 4.4-7.6l-39-102.2h43.6l16.2 62.5 19.4-62.5h42.2s-37.6 101.8-42.1 113.9c-7.4 19.497-24.5 31.097-44.6 31.097" fill-rule="nonzero" transform="matrix(.494777 0 0 .494777 669.425 -254.286)"/></svg>