<svg clip-rule="evenodd" fill-rule="evenodd" stroke-linejoin="round" stroke-miterlimit="1.41421" viewBox="0 0 560 400" xmlns="http://www.w3.org/2000/svg"><path d="m948.708 408.179-148.157-407.91-.102-.269h-2.924l-30.509 83.824-55.543 152.604-.13-.121c-19.25-16.986-46.409-27.604-80.613-31.558l-10.432-1.077 10.349-1.327c56.406-10.136 94.322-45.76 94.322-88.679 0-58.857-55.357-99.938-134.652-99.938h-164.985v2.979h47.941v304.121l-116.432-320.559-.102-.269h-2.924l-30.509 83.824-117.676 323.306-.724.084c-2.011.248-4 .445-5.968.594-2.961.232-5.903.371-8.855.371h-118.9l226.013-391.472 1.68-2.942h-276.423v121.1h2.933c.52-58.986 34.872-118.158 110.77-118.158h91.565l-227.721 394.405h306.784v-116.023h-2.933c-.399 51.412-29.544 100.244-92.921 111.271l-2.014.343 48.266-132.665h135.209l48.72 134.141h-48.061v2.933h188.635v-2.933h-48.266v-202.344h55.692c56.675 0 89.18 25.32 89.18 69.446v35.893c0 3.955.269 9.737.566 14.573v.176l-29.934 82.238h-39.105v2.933h80.947v-2.933h-38.686l27.261-74.886c.055.724.083 1.16.083 1.16l.752 6.748.724 4.464c4.548 27.614 15.111 47.913 31.382 60.332l2.339 1.699c12.363 8.595 27.725 12.948 45.685 12.948 23.79 0 39.652-5.931 52.749-19.891l-1.717-1.615c-12.067 11.138-22.193 15.649-34.881 15.649-21.618 0-32.932-26.221-32.932-52.08v-50.289c.115-12.479-1.839-24.89-5.783-36.729l-.538-1.559v-.056h98.898l48.72 134.142h-48.061v2.933h163.24v-2.933zm-690.449-137.074 66.606-182.992 66.458 182.992zm275.188-68.213v-186.185h42.511c56.787 0 86.767 33.758 86.767 97.59 0 67.887-17.209 88.595-73.614 88.595zm202.605 68.213-.288-.724c-4.395-10.704-10.793-20.471-18.852-28.774l-2.784-2.785-.297-.278 54.707-150.431 66.458 182.992z" fill-rule="nonzero" transform="matrix(.36 0 0 .36 100 124.287)"/></svg>