<svg clip-rule="evenodd" fill-rule="evenodd" stroke-linejoin="round" stroke-miterlimit="2" viewBox="0 0 560 400" xmlns="http://www.w3.org/2000/svg"><g fill-rule="nonzero" transform="matrix(1.76297 0 0 1.76297 -247.217 -315.131)"><path d="m317.46 251.506c0 8.461-8.249 15.327-18.445 15.327-10.162 0-18.41-6.866-18.41-15.327 0-8.494 8.248-15.362 18.41-15.362 10.196 0 18.445 6.868 18.445 15.362z" fill="#fefefe"/><path d="m299.05 266.833c-10.197 0-18.445-6.866-18.445-15.327 0-8.494 8.248-15.362 18.445-15.362z" fill="#ececec"/><path d="m318.133 251.506h-1.382c0 2.018-.46 3.894-1.345 5.664-1.345 2.62-3.576 4.849-6.408 6.443-2.832 1.592-6.266 2.548-9.983 2.548-4.921 0-9.348-1.664-12.568-4.354-1.594-1.31-2.869-2.903-3.754-4.637-.885-1.77-1.381-3.646-1.381-5.664 0-2.017.496-3.929 1.381-5.663 1.311-2.619 3.54-4.884 6.373-6.477 2.832-1.593 6.266-2.513 9.949-2.513 4.956 0 9.417 1.663 12.603 4.318 1.593 1.345 2.903 2.938 3.788 4.672s1.345 3.646 1.345 5.663h1.382c0-2.229-.532-4.353-1.523-6.3-1.452-2.867-3.895-5.31-6.94-7.044-3.044-1.698-6.691-2.69-10.655-2.69-5.241 0-9.984 1.77-13.453 4.638-1.736 1.451-3.151 3.185-4.107 5.096-.992 1.947-1.523 4.071-1.523 6.3 0 2.231.531 4.355 1.523 6.266 1.451 2.902 3.893 5.344 6.938 7.044 3.046 1.734 6.692 2.725 10.622 2.725 5.274 0 10.019-1.77 13.488-4.672 1.735-1.416 3.151-3.15 4.107-5.097.991-1.911 1.523-4.035 1.523-6.266z" fill="#141515"/><path d="m315.476 251.506h-.636c0 3.611-1.736 6.868-4.603 9.239-2.867 2.407-6.833 3.858-11.187 3.858-4.391 0-8.355-1.451-11.223-3.858-2.868-2.371-4.602-5.628-4.602-9.239 0-3.609 1.734-6.866 4.602-9.273 2.868-2.372 6.832-3.858 11.223-3.858 4.354 0 8.32 1.486 11.187 3.858 2.867 2.407 4.603 5.664 4.603 9.273h.636c0-3.822-1.876-7.255-4.849-9.733-2.974-2.478-7.081-4-11.577-4-4.532 0-8.639 1.522-11.612 4-2.975 2.478-4.851 5.911-4.851 9.733 0 3.823 1.876 7.257 4.851 9.735 2.973 2.478 7.08 3.999 11.612 3.999 4.496 0 8.603-1.521 11.577-3.999 2.973-2.478 4.849-5.912 4.849-9.735z" fill="#141515"/><path d="m299.015 347.147c50.201-25.272 34.127-79.181 34.127-79.181-13.275-7.929-34.127-7.823-34.127-7.823s-20.817-.106-34.094 7.823c0 0-16.003 53.731 34.094 79.181z" fill="#fefefe"/><path d="m299.015 347.147.708 1.416c7.788-3.929 14.019-8.567 19.011-13.558 7.47-7.538 12.108-15.928 14.834-24.175 2.726-8.211 3.575-16.247 3.575-23.113 0-11.752-2.478-20.105-2.513-20.211l-.177-.567-.532-.318c-3.397-2.018-7.186-3.505-11.01-4.637-5.771-1.699-11.505-2.549-15.966-2.973-4.426-.425-7.506-.425-7.895-.425h-.072c-.495 0-5.84 0-12.709 1.027-3.47.495-7.292 1.239-11.116 2.371s-7.647 2.619-11.046 4.637l-.496.318-.177.567c-.035.106-2.513 8.388-2.513 20.069 0 9.132 1.522 20.389 6.974 31.396 2.725 5.486 6.443 10.903 11.4 15.928 4.992 5.027 11.222 9.699 19.011 13.628l.709.39.707-.354-.707-1.416.707-1.381c-7.506-3.822-13.453-8.246-18.198-13.025-7.115-7.186-11.469-15.15-14.054-23.008-2.619-7.822-3.434-15.539-3.434-22.158 0-5.627.601-10.442 1.204-13.84.282-1.699.566-3.044.814-3.964.106-.46.177-.778.247-1.026.036-.107.071-.213.071-.249 0-.035.035-.07.035-.07v-.036l-.495-.141.495.141-.495-.141.495.141-1.486-.424.779 1.345c3.115-1.877 6.691-3.292 10.338-4.353 5.452-1.594 11.045-2.443 15.364-2.833 4.285-.424 7.293-.46 7.576-.46h.072c.389 0 5.628.036 12.284 1.027 3.328.46 7.046 1.203 10.692 2.266 3.647 1.061 7.223 2.476 10.303 4.353l.813-1.345-1.486.46.991-.319-.991.319.991-.319-.991.319c.142.459 2.372 8.389 2.372 19.291 0 8.814-1.451 19.574-6.655 29.98-2.586 5.203-6.09 10.336-10.834 15.115-4.744 4.742-10.692 9.167-18.233 12.954l.709 1.381.708-1.381z" fill="#141515"/><path d="m299.05 347.147v-87.004s-20.852-.106-34.129 7.823c0 0-15.966 53.731 34.129 79.181z" fill="#ececec"/><path d="m299.015 347.147.708 1.416c7.788-3.929 14.019-8.567 19.011-13.558 7.47-7.538 12.108-15.928 14.834-24.175 2.726-8.211 3.575-16.247 3.575-23.113 0-11.752-2.478-20.105-2.513-20.211l-.177-.567-.532-.318c-3.397-2.018-7.186-3.505-11.01-4.637-5.771-1.699-11.505-2.549-15.966-2.973-4.426-.425-7.506-.425-7.895-.425h-.072c-.495 0-5.84 0-12.709 1.027-3.47.495-7.292 1.239-11.116 2.371s-7.647 2.619-11.046 4.637l-.496.318-.177.567c-.035.106-2.513 8.388-2.513 20.069 0 9.132 1.522 20.389 6.974 31.396 2.725 5.486 6.443 10.903 11.4 15.928 4.992 5.027 11.222 9.699 19.011 13.628l.709.39.707-.354-.707-1.416.707-1.381c-7.506-3.822-13.453-8.246-18.198-13.025-7.115-7.186-11.469-15.15-14.054-23.008-2.619-7.822-3.434-15.539-3.434-22.158 0-5.627.601-10.442 1.204-13.84.282-1.699.566-3.044.814-3.964.106-.46.177-.778.247-1.026.036-.107.071-.213.071-.249 0-.035.035-.07.035-.07v-.036l-.495-.141.495.141-.495-.141.495.141-1.486-.424.779 1.345c3.115-1.877 6.691-3.292 10.338-4.353 5.452-1.594 11.045-2.443 15.364-2.833 4.285-.424 7.293-.46 7.576-.46h.072c.389 0 5.628.036 12.284 1.027 3.328.46 7.046 1.203 10.692 2.266 3.647 1.061 7.223 2.476 10.303 4.353l.813-1.345-1.486.46.991-.319-.991.319.991-.319-.991.319c.142.459 2.372 8.389 2.372 19.291 0 8.814-1.451 19.574-6.655 29.98-2.586 5.203-6.09 10.336-10.834 15.115-4.744 4.742-10.692 9.167-18.233 12.954l.709 1.381.708-1.381z" fill="#141515"/><path d="m299.015 347.147.106.212c15.329-7.752 24.498-18.158 29.845-28.883 5.345-10.726 6.833-21.769 6.833-30.759 0-11.575-2.479-19.786-2.479-19.822v-.071l-.07-.035c-6.55-3.894-14.87-5.876-21.667-6.868-6.762-.99-12.073-.99-12.498-.99h-.106c-.46 0-5.735 0-12.532.99-6.799.992-15.117 2.974-21.632 6.868l-.07.035-.037.071c0 .036-2.442 8.176-2.442 19.68 0 8.991 1.522 20.034 6.833 30.795 5.345 10.725 14.515 21.202 29.845 28.989l.071.036.106-.036-.106-.212.106-.177c-15.26-7.752-24.357-18.123-29.633-28.777-5.31-10.69-6.797-21.662-6.797-30.618 0-5.698.602-10.618 1.204-14.052.318-1.734.601-3.115.85-4.071.106-.459.212-.814.247-1.062.035-.106.071-.212.106-.283v-.07l-.177-.071.106.177c6.444-3.858 14.727-5.805 21.49-6.796 6.762-.991 12.037-1.027 12.462-1.027h.106c.425 0 5.701.036 12.462 1.027 6.762.991 15.011 2.938 21.489 6.796l.107-.177-.213.071s0 .035.037.07c.247.956 2.406 8.814 2.406 19.61 0 8.955-1.486 19.927-6.797 30.582-5.275 10.654-14.374 20.99-29.632 28.671l.071.177.106-.177z" fill="#fefefe"/><path d="m299.05 342.403c42.802-22.937 30.907-71.747 30.907-71.747-12.038-7.186-30.907-7.114-30.907-7.114h-.035s-18.871-.072-30.907 7.114c0 0-12.144 48.635 30.942 71.747z" fill="#ececec"/><path d="m299.05 342.403v-78.861s-18.906-.072-30.942 7.114c0 0-12.144 48.635 30.942 71.747z" fill="#d8d9d9"/><path d="m299.015 258.869-.284-6.831-1.77 6.69 1.132-6.761-3.15 6.442 2.585-6.583-4.496 6.016 3.929-6.194-5.736 5.415 5.204-5.698-6.797 4.779 6.373-5.062-7.753 3.929 7.364-4.283-8.498 3.044 8.214-3.469-9.063 2.124 8.851-2.513-9.382 1.062 9.241-1.522-9.489.035 9.489-.496-9.417-.99 9.487.566-9.063-2.018 9.205 1.593-8.532-3.009 8.779 2.584-7.788-3.894 8.143 3.54-6.868-4.708 7.292 4.355-5.806-5.38 6.267 5.097-4.568-5.983 5.098 5.769-3.256-6.405 3.858 6.229-1.876-6.69 2.479 6.583-.426-6.795 1.028 6.76 1.062-6.76-.426 6.795 2.478-6.583-1.876 6.69 3.824-6.229-3.222 6.405 5.098-5.769-4.566 5.983 6.266-5.097-5.806 5.38 7.293-4.355-6.868 4.708 8.142-3.54-7.824 3.894 8.816-2.584-8.533 3.009 9.205-1.593-9.064 2.018 9.489-.566-9.418.99 9.489.496-9.489-.035 9.241 1.522-9.382-1.062 8.851 2.513-9.063-2.124 8.213 3.469-8.496-3.044 7.364 4.283-7.754-3.929 6.373 5.062-6.798-4.779 5.204 5.698-5.735-5.415 3.93 6.194-4.497-6.016 2.586 6.583-3.152-6.442 1.133 6.761-1.77-6.69z" fill="#bea657"/><path d="m297.315 266.762 1.594 34.583h.212l1.593-34.618.071.035-1.417 32.246 4.39-32.104h.071l-4.637 34.476.212.035 7.86-34.228h.07l-7.257 31.963 10.302-31.61.07.037-10.975 33.838.214.107 14.338-33.415.07.036-13.347 31.254 16.534-30.618h.071l-17.596 32.743.212.141 21.136-31.928h.035l-19.754 30.051 23.153-28.953h.035l-24.569 30.865.177.142 28.216-29.415.035.036-26.517 27.786 28.5-24.848.035.071-30.199 26.441.106.176 30.731-22.264v.071l-28.712 20.919 28.994-17.273v.071l-30.942 18.547.106.177 30.944-14.866v.071l-28.784 13.911 28.713-10.726v.071l-30.836 11.61.035.213 30.517-8.389v.106l-28.181 7.787 27.827-4.991-.035.071-30.094 5.487.037.212 29.526-2.619-.036.106-27.155 2.442 26.588.036-.035.106-28.888.035v.212l28.109 2.549-.035.106-25.774-2.301 25.03 4.566-.035.071-27.332-4.92-.035.212 26.34 7.292-.035.106-24.074-6.619 23.154 8.707-.036.072-25.384-9.487-.071.212 24.216 11.681-.036.106-22.126-10.654 20.994 12.601-.036.071-23.048-13.734-.141.178 21.738 15.822-.036.07-19.861-14.406 18.515 16.246-.035.071-20.356-17.734-.142.143 18.799 19.751-.036.07-17.24-18.016 15.684 19.75-.037.071-17.24-21.555-.177.106 15.435 23.467-.071.071-14.196-21.486 12.426 23.149-.07.071-13.596-25.202-.212.071 11.541 27.043-.07.071-10.657-24.885 8.567 26.477-.07.036-9.382-28.706-.212.07 6.939 30.476-.071.035-6.479-28.21 4.001 29.733-.071.071-4.39-32.105-.213.036 1.452 33.803h-.036l-1.451-31.467-1.451 31.432-.072-.036 1.487-33.732-.247-.036-4.355 32.034-.07-.035 3.964-29.698-6.443 28.175-.07-.036 6.903-30.44-.212-.07-9.346 28.67-.072-.035 8.568-26.442-10.656 24.849-.071-.07 11.505-27.008-.177-.071-13.594 25.167-.071-.071 12.391-23.114-14.196 21.451-.036-.071 15.436-23.432-.177-.106-17.242 21.52-.035-.071 15.684-19.715-17.242 17.981-.071-.071 18.835-19.715-.141-.143-20.358 17.734-.07-.071 18.552-16.246-19.862 14.406-.035-.07 21.702-15.822-.106-.178-23.048 13.734-.071-.071 21.03-12.601-22.162 10.619-.037-.071 24.253-11.681-.108-.212-25.383 9.487-.036-.072 23.19-8.707-24.11 6.584-.035-.071 26.374-7.292-.069-.212-27.332 4.92-.035-.071 25.03-4.566-25.774 2.265-.035-.07 28.146-2.549v-.212l-28.925-.071-.035-.07 26.588-.036-27.155-2.478-.035-.07 29.562 2.619.035-.212-30.129-5.523-.035-.071 27.863 5.027-28.217-7.823v-.07l30.518 8.388.071-.212-30.836-11.61v-.106l28.676 10.761-28.782-13.911v-.071l30.977 14.866.106-.177-30.942-18.547v-.071l28.994 17.273-28.711-20.919.035-.071 30.66 22.264.141-.176-30.163-26.441v-.035l28.499 24.812-26.482-27.786h.037l28.18 29.379.141-.142-24.534-30.83.071-.035 23.119 28.918-19.756-30.016h.071l21.101 31.928.177-.141-17.56-32.743h.071l16.498 30.618-13.312-31.254.071-.036 14.302 33.415.213-.108-10.94-33.837h.071l10.302 31.573-7.257-31.963h.071l7.823 34.227.214-.034-4.603-34.476h.07l4.39 32.104-1.415-32.246zm3.258-.035-1.523 34.618.212.035 4.709-34.476h.071l-4.32 32.175 7.329-31.928.07.036-7.788 34.193.212.071 11.082-33.874h.035l-10.232 31.679 13.384-31.184h.035l-14.233 33.414.213.071 17.701-32.741h.036l-16.498 30.758 19.826-29.909h.035l-21.029 31.963.177.106 24.676-30.831.035.036-23.118 29.061 26.517-27.645h.035l-28.075 29.449.142.142 30.198-26.299v.071l-28.321 24.812 28.888-20.954v.071l-30.73 22.37.141.177 30.908-18.406.036.07-28.854 17.273 28.925-13.874v.071l-30.978 14.936.071.212 30.8-11.502v.07l-28.534 10.725 28.321-7.752-.035.071-30.517 8.459.035.213 30.093-5.415-.035.071-27.721 5.06 27.26-2.406-.035.071-29.526 2.69v.212l28.854.071v.071l-26.518.035 25.845 2.337-.036.106-28.145-2.514-.036.213 27.261 4.991v.07l-24.959-4.494 24.108 6.689-.034.071-26.411-7.257-.035.213 25.313 9.557-.036.071-23.154-8.672 22.128 10.689-.036.071-24.251-11.646-.106.177 23.012 13.805-.036.071-21.029-12.531 19.791 14.443-.036.07-21.773-15.786-.107.177 20.322 17.803-.07.071-18.588-16.211 17.171 18.017-.035.071-18.87-19.68-.177.141 17.206 21.626-.071.037-15.754-19.717 14.126 21.451-.071.035-15.472-23.397-.212.106 13.559 25.273-.07.071-12.498-23.185 10.586 24.814-.07.07-11.577-27.007-.214.106 9.312 28.777-.07.035-8.639-26.546 6.372 28.139-.07.035-6.974-30.44-.213.035 4.32 32.176-.072.035-4.072-29.839 1.346 31.325-.035.036-1.558-33.697h-.212l-1.558 33.661-.071-.035 1.381-31.29-4.107 29.804-.07-.036 4.319-32.14-.214-.035-6.974 30.405-.07-.071 6.408-28.068-8.674 26.511-.071-.036 9.311-28.741-.213-.106-11.541 26.972-.071-.071 10.551-24.777-12.498 23.148-.035-.071 13.524-25.237-.177-.106-15.472 23.397-.07-.071 14.126-21.45-15.79 19.752-.036-.072 17.171-21.591-.141-.141-18.87 19.644-.036-.071 17.17-17.981-18.622 16.211-.035-.071 20.321-17.803-.141-.177-21.738 15.786-.071-.07 19.826-14.443-21.029 12.531-.072-.071 23.048-13.805-.106-.177-24.251 11.646-.071-.071 22.128-10.689-23.154 8.672-.035-.106 25.348-9.522-.071-.213-26.411 7.257-.035-.071 24.145-6.689-24.995 4.494-.035-.07 27.331-4.991-.035-.213-28.181 2.478-.036-.07 25.845-2.337-26.518-.035v-.106l28.89-.036v-.212l-29.598-2.69v-.072l27.261 2.407-27.721-5.06-.035-.072 30.093 5.416.07-.213-30.553-8.459-.035-.106 28.358 7.787-28.57-10.76v-.072l30.8 11.539.107-.212-31.013-14.972v-.07l28.96 13.909-28.854-17.308v-.071l30.942 18.442.106-.177-30.695-22.37v-.071l28.89 20.954-28.288-24.812v-.036l30.164 26.264.142-.142-28.075-29.414.071-.035 26.482 27.645-23.119-29.061.071-.036 24.641 30.831.177-.106-21.03-31.928.071-.035 19.754 29.909-16.461-30.723.07-.035 17.666 32.741.177-.071-14.196-33.379.035-.035 13.382 31.184-10.231-31.644.035-.035 11.046 33.874.213-.071-7.754-34.192h.071l7.293 31.891-4.284-32.175h.071l4.674 34.476.247-.035-1.522-34.618h.071l1.487 32.281 1.487-32.281z" fill="#a78c23"/><path d="m299.015 287.54 1.132-10.3.248 10.371 2.089-10.159-.708 10.335 2.974-9.91-1.628 10.23 3.858-9.629-2.549 10.053 4.709-9.238-3.399 9.769 5.487-8.779-4.283 9.452 6.266-8.248-5.099 9.026 6.975-7.681-5.876 8.531 7.647-7.008-6.656 7.964 8.249-6.266-7.329 7.328 8.781-5.523-7.967 6.619 9.241-4.707-8.532 5.911 9.63-3.859-9.028 5.133 9.913-3.008-9.418 4.282 10.16-2.088-9.806 3.433 10.302-1.168-10.054 2.549 10.374-.248-10.233 1.628 10.339.673-10.339.707 10.233 1.629-10.374-.247 10.054 2.547-10.302-1.167 9.806 3.398-10.16-2.053 9.418 4.283-9.913-3.01 9.028 5.134-9.63-3.858 8.532 5.875-9.241-4.673 7.967 6.62-8.781-5.522 7.329 7.327-8.249-6.265 6.656 7.964-7.647-7.008 5.876 8.531-6.975-7.681 5.099 9.026-6.266-8.248 4.283 9.45-5.487-8.777 3.399 9.768-4.709-9.238 2.549 10.053-3.858-9.628 1.628 10.229-2.974-9.91.708 10.336-2.089-10.159-.248 10.371-1.132-10.3-1.169 10.3-.212-10.371-2.09 10.159.709-10.336-2.974 9.91 1.594-10.229-3.86 9.628 2.549-10.053-4.709 9.238 3.435-9.768-5.523 8.777 4.284-9.45-6.266 8.248 5.133-9.026-7.01 7.681 5.912-8.531-7.647 7.008 6.656-7.964-8.249 6.265 7.328-7.327-8.779 5.522 7.965-6.62-9.24 4.673 8.496-5.875-9.593 3.858 8.991-5.134-9.912 3.01 9.453-4.283-10.161 2.053 9.772-3.398-10.303 1.167 10.054-2.547-10.337.247 10.231-1.629-10.337-.707 10.337-.673-10.231-1.628 10.337.248-10.054-2.549 10.303 1.168-9.772-3.433 10.161 2.088-9.453-4.282 9.912 3.008-8.991-5.133 9.593 3.859-8.496-5.911 9.24 4.707-7.965-6.619 8.779 5.523-7.328-7.328 8.249 6.266-6.656-7.964 7.647 7.008-5.912-8.531 7.01 7.681-5.133-9.026 6.266 8.248-4.284-9.452 5.523 8.779-3.435-9.769 4.709 9.238-2.549-10.053 3.86 9.629-1.594-10.23 2.974 9.91-.709-10.335 2.09 10.159.212-10.371z" fill="#a78c23"/><path d="m278.657 288.531s-19.896 2.902-37.987 15.504l7.151-21.522-11.506-4.318s15.968-12.565 31.65-12.565z" fill="#0061a0"/><path d="m278.657 288.531-.212-1.38c-.035 0-5.098.743-12.427 3.079-7.293 2.336-16.922 6.265-26.127 12.672l.779 1.133 1.31.424 7.576-22.759-12.745-4.814-.496 1.309.85 1.063-.248-.283.248.283-.248-.283.248.283c.035 0 3.965-3.116 9.806-6.16 2.939-1.557 6.303-3.08 9.913-4.212 3.576-1.132 7.364-1.876 11.081-1.876v-1.38l-1.238.565 10.692 22.902 1.238-.566-.212-1.38.212 1.38 1.24-.602-11.047-23.715h-.885c-4.105.035-8.177.85-11.966 2.053-5.7 1.805-10.833 4.495-14.515 6.761-3.717 2.23-5.983 4.035-6.018 4.07l-1.912 1.522 12.532 4.743-8.036 24.175 3.434-2.372c8.886-6.193 18.269-10.016 25.384-12.281 3.576-1.133 6.585-1.911 8.71-2.372 1.062-.212 1.876-.389 2.443-.495.283-.036.495-.071.636-.106.071 0 .106 0 .142-.036h.07l-.069-.39.069.39-.069-.39.069.39 1.842-.247-.814-1.7z" fill="#141515"/><path d="m275.329 281.487 3.187 6.903-24.747-2.584s9.63-2.727 21.56-4.319z" fill="#a78c23"/><path d="m278.657 288.531-.212-1.38c-.035 0-5.098.743-12.427 3.079-7.293 2.336-16.922 6.265-26.127 12.672l.779 1.133 1.31.424 7.576-22.759-12.745-4.814-.496 1.309.85 1.063-.248-.283.248.283-.248-.283.248.283c.035 0 3.965-3.116 9.806-6.16 2.939-1.557 6.303-3.08 9.913-4.212 3.576-1.132 7.364-1.876 11.081-1.876v-1.38l-1.238.565 10.692 22.902 1.238-.566-.212-1.38.212 1.38 1.24-.602-11.047-23.715h-.885c-4.105.035-8.177.85-11.966 2.053-5.7 1.805-10.833 4.495-14.515 6.761-3.717 2.23-5.983 4.035-6.018 4.07l-1.912 1.522 12.532 4.743-8.036 24.175 3.434-2.372c8.886-6.193 18.269-10.016 25.384-12.281 3.576-1.133 6.585-1.911 8.71-2.372 1.062-.212 1.876-.389 2.443-.495.283-.036.495-.071.636-.106.071 0 .106 0 .142-.036h.07l-.069-.39.069.39-.069-.39.069.39 1.842-.247-.814-1.7z" fill="#141515"/><path d="m319.407 288.531s19.896 2.902 37.987 15.504l-7.151-21.522 11.507-4.318s-15.968-12.565-31.652-12.565z" fill="#2272ac"/><path d="m319.407 288.531-.213 1.345.071-.424-.071.424.071-.424-.071.424c.036 0 4.957.743 12.072 3.009 7.152 2.3 16.463 6.123 25.354 12.281l3.395 2.372-8.038-24.175 12.569-4.743-1.947-1.522c-.037-.035-4.069-3.222-10.161-6.407-3.01-1.628-6.55-3.22-10.374-4.424-3.787-1.203-7.859-2.018-11.966-2.053h-.885l-11.824 25.415 1.805.247.213-1.345 1.239.566 10.691-22.902-1.239-.565v1.38c3.717 0 7.541.744 11.152 1.876 5.382 1.735 10.338 4.318 13.909 6.513 1.773 1.061 3.221 2.053 4.219 2.761.5.354.887.637 1.136.815.138.106.238.175.275.212.037.035.075.035.075.071h.037l.849-1.063-.499-1.309-12.708 4.813 7.54 22.76 1.311-.424.773-1.133c-9.198-6.407-18.793-10.336-26.122-12.672-7.327-2.336-12.391-3.079-12.426-3.079l-.212 1.38 1.239.566z" fill="#141515"/><path d="m278.657 288.531-.035-.212s-19.932 2.938-38.058 15.539l.106.177.212.07 7.188-21.698-11.684-4.424-.071.212.142.142.035-.035c.46-.354 4.567-3.47 10.444-6.513 5.877-3.044 13.488-5.983 21.029-5.983v-.176l-.176.07 10.691 22.902.177-.071-.035-.212.035.212.177-.106-10.726-23.008h-.143c-7.894 0-15.825 3.15-21.808 6.301-5.947 3.15-9.948 6.301-9.983 6.301l-.284.212 11.684 4.424-7.294 21.91.532-.353c9.028-6.266 18.48-10.159 25.703-12.46 3.61-1.132 6.655-1.911 8.814-2.371 1.062-.249 1.913-.39 2.479-.496.284-.071.496-.106.672-.106.142-.036.213-.036.213-.036l.284-.07-.143-.248z" fill="#fefefe"/><path d="m322.734 281.487-3.151 6.903 24.712-2.584s-9.63-2.727-21.561-4.319z" fill="#a78c23"/><path d="m319.407 288.531-.213 1.345.071-.424-.071.424.071-.424-.071.424c.036 0 4.957.743 12.072 3.009 7.152 2.3 16.463 6.123 25.354 12.281l3.395 2.372-8.038-24.175 12.569-4.743-1.947-1.522c-.037-.035-4.069-3.222-10.161-6.407-3.01-1.628-6.55-3.22-10.374-4.424-3.787-1.203-7.859-2.018-11.966-2.053h-.885l-11.824 25.415 1.805.247.213-1.345 1.239.566 10.691-22.902-1.239-.565v1.38c3.717 0 7.541.744 11.152 1.876 5.382 1.735 10.338 4.318 13.909 6.513 1.773 1.061 3.221 2.053 4.219 2.761.5.354.887.637 1.136.815.138.106.238.175.275.212.037.035.075.035.075.071h.037l.849-1.063-.499-1.309-12.708 4.813 7.54 22.76 1.311-.424.773-1.133c-9.198-6.407-18.793-10.336-26.122-12.672-7.327-2.336-12.391-3.079-12.426-3.079l-.212 1.38 1.239.566z" fill="#141515"/><path d="m319.407 288.531-.036.212s.071 0 .248.036c2.23.353 20.746 3.646 37.675 15.433l.487.353-7.254-21.91 11.648-4.424-.287-.212s-3.995-3.151-9.981-6.301c-5.983-3.151-13.914-6.301-21.809-6.301h-.141l-10.869 23.256.283.07.036-.212.176.071 10.692-22.902-.177-.07v.176c7.789 0 15.684 3.151 21.596 6.266 2.978 1.592 5.45 3.149 7.185 4.319.886.601 1.56 1.061 2.022 1.414.25.178.425.32.525.39.075.071.112.107.149.107l.038.035.137-.142-.075-.212-11.68 4.424 7.186 21.698.213-.07.112-.177c-18.132-12.601-38.064-15.539-38.064-15.539l-.035.212.176.071z" fill="#fefefe"/><path d="m299.05 279.753c22.835 0 42.413 5.203 45.245 6.053 0 0 .779-18.902-6.23-33.803 0 0-16.286-4.072-39.015-4.072h-.035c-22.73 0-39.015 4.072-39.015 4.072-7.01 14.901-6.231 33.803-6.231 33.803 2.833-.85 22.41-6.053 45.281-6.053z" fill="#2272ac"/><path d="m299.05 279.753v1.415c11.293 0 21.844 1.275 29.881 2.69 4.035.673 7.433 1.416 9.982 2.018 1.311.283 2.372.566 3.222.779.814.213 1.417.39 1.77.496l1.699.495.072-1.77c0-.035.036-.673.036-1.841 0-2.584-.142-7.61-.993-13.556-.848-5.947-2.441-12.813-5.38-19.043l-.283-.602-.638-.176c-.07 0-16.463-4.143-39.368-4.143h-.035c-22.871 0-39.299 4.143-39.368 4.143l-.638.176-.284.602c-2.938 6.23-4.531 13.096-5.381 19.043-.849 5.946-.991 10.972-.991 13.556 0 1.168.036 1.806.036 1.841l.07 1.77 1.735-.495c.318-.106.92-.283 1.77-.496 5.842-1.522 23.26-5.487 43.086-5.487v-2.796c-11.542 0-22.233 1.31-30.376 2.726-4.107.708-7.541 1.451-10.161 2.053-1.309.318-2.408.566-3.257.814-.885.212-1.487.39-1.876.496l.389 1.345 1.416-.071c0-.035-.035-.673-.035-1.7 0-2.476.141-7.397.955-13.167.85-5.769 2.373-12.388 5.134-18.264l-1.239-.601.318 1.38h.036c.425-.106 16.463-4.07 38.661-4.07h.035c11.293 0 20.959 1.025 27.827 2.052 3.434.496 6.159.991 8.037 1.38.92.177 1.628.355 2.123.461.212.034.425.106.532.106.07.036.106.036.141.036l.035.035.32-1.38-1.24.601c2.761 5.876 4.319 12.495 5.133 18.264.85 5.77.956 10.691.956 13.167v1.7l1.381.071.389-1.345c-.354-.106-.991-.284-1.841-.496-6.053-1.593-23.613-5.593-43.793-5.593z" fill="#141515"/><path d="m299.05 247.931h-.035c-22.73 0-39.05 4.072-39.05 4.072-7.011 14.901-6.196 33.803-6.196 33.803 2.797-.85 22.41-6.053 45.246-6.053z" fill="#0061a0"/><path d="m253.947 287.717-1.488-.071.709-.921 6.513-1.663 16.959 1.663.424.992-6.585 1.486z" fill="#141515"/><path d="m344.154 287.717 1.45-.071-.671-.921-6.515-1.663-16.959 1.663-.424.992 6.585 1.486z" fill="#141515"/><path d="m299.05 279.753v1.415c11.293 0 21.844 1.275 29.881 2.69 4.035.673 7.433 1.416 9.982 2.018 1.311.283 2.372.566 3.222.779.814.213 1.417.39 1.77.496l1.699.495.072-1.77c0-.035.036-.673.036-1.841 0-2.584-.142-7.61-.993-13.556-.848-5.947-2.441-12.813-5.38-19.043l-.283-.602-.638-.176c-.07 0-16.463-4.143-39.368-4.143h-.035c-22.871 0-39.299 4.143-39.368 4.143l-.638.176-.284.602c-2.938 6.23-4.531 13.096-5.381 19.043-.849 5.946-.991 10.972-.991 13.556 0 1.168.036 1.806.036 1.841l.07 1.77 1.735-.495c.318-.106.92-.283 1.77-.496 5.842-1.522 23.26-5.487 43.086-5.487v-2.796c-11.542 0-22.233 1.31-30.376 2.726-4.107.708-7.541 1.451-10.161 2.053-1.309.318-2.408.566-3.257.814-.885.212-1.487.39-1.876.496l.389 1.345 1.416-.071c0-.035-.035-.673-.035-1.7 0-2.476.141-7.397.955-13.167.85-5.769 2.373-12.388 5.134-18.264l-1.239-.601.318 1.38h.036c.425-.106 16.463-4.07 38.661-4.07h.035c11.293 0 20.959 1.025 27.827 2.052 3.434.496 6.159.991 8.037 1.38.92.177 1.628.355 2.123.461.212.034.425.106.532.106.07.036.106.036.141.036l.035.035.32-1.38-1.24.601c2.761 5.876 4.319 12.495 5.133 18.264.85 5.77.956 10.691.956 13.167v1.7l1.381.071.389-1.345c-.354-.106-.991-.284-1.841-.496-6.053-1.593-23.613-5.593-43.793-5.593z" fill="#141515"/><path d="m299.05 279.753v.212c22.799 0 42.378 5.203 45.174 6.053l.283.071v-.283s.036-.638.036-1.771c0-5.061-.531-19.927-6.266-32.103l-.036-.106h-.106s-16.321-4.107-39.085-4.107h-.035c-22.73 0-39.05 4.107-39.086 4.107h-.07l-.071.106c-5.735 12.176-6.231 27.042-6.231 32.103v1.771l.035.283.247-.071c2.798-.85 22.375-6.053 45.211-6.053v-.425c-22.906 0-42.484 5.239-45.317 6.054l.036.212h.213v-.106c0-.249-.035-.815-.035-1.665 0-5.026.53-19.857 6.23-31.926l-.177-.106.036.212s.07 0 .176-.036c1.876-.459 17.525-4.035 38.803-4.035h.035c11.364 0 21.1.991 28.003 2.017 3.47.532 6.197 1.027 8.073 1.416.955.212 1.664.355 2.16.461.247.071.424.106.565.141.107.036.177.036.177.036l.036-.212-.177.106c5.7 12.069 6.231 26.9 6.231 31.926v1.31c-.035.141-.035.249-.035.355v.106h.212l.071-.212c-2.832-.815-22.446-6.054-45.316-6.054z" fill="#fefefe"/><path d="m344.401 285.663-24.959 2.656.035.424 24.96-2.69z" fill="#fefefe"/><path d="m253.627 286.053 24.96 2.69.035-.424-24.959-2.656z" fill="#fefefe"/><path d="m264.425 295.221c-.07-.495-.106-.991-.141-1.487.885-.284 1.699-.567 2.549-.849 0 .39.035.743.106 1.132l-.106-.035c.035.106.035.212.035.318l.071.036h.035c-.849.284-1.699.567-2.549.885z" fill="#979797"/><path d="m263.116 295.681c-.035-.496-.106-.992-.143-1.451.461-.177.887-.319 1.311-.496.035.496.071.992.141 1.487-.424.141-.885.318-1.309.46zm-1.558.637-.178-1.486c.39-.178.779-.32 1.204-.461.036.496.071.991.142 1.486-.389.143-.779.284-1.168.461z" fill="#141515"/><path d="m262.726 295.857c-.071-.495-.106-.99-.142-1.486.107-.071.248-.106.389-.141.037.459.108.955.143 1.451-.143.07-.284.106-.39.176z" fill="#a3a4a4"/><path d="m279.754 291.257-.742-.391-1.31-.778c.46-.07.849-.141 1.239-.212l1.345-.212.39.318v1.133s-.319.071-.922.142zm-3.469.636-2.159-1.027c1.168-.282 2.194-.495 3.116-.672l1.486.886.39.283c-.708.141-1.699.318-2.833.53zm-4 .921-2.336-.85c1.344-.389 2.584-.707 3.716-.99l2.125 1.025c-1.063.249-2.231.496-3.505.815zm-4.779 1.38-.567-.177c-.071-.389-.106-.742-.106-1.097.92-.318 1.805-.566 2.619-.815l2.302.85c-1.31.354-2.761.744-4.248 1.239zm-.496.142h-.071z" fill="#8a8a8a"/><path d="m279.012 290.866-1.487-.742c.035 0 .106 0 .177-.036zm-.284.214-1.486-.886c.034 0 .106-.035.141-.035zm-2.938.919-2.125-1.025c.142-.036.284-.071.461-.108l2.159 1.027c-.071.037-.141.037-.212.071l-.318-.142.247.142c-.071.035-.141.035-.212.035zm-4.036.956-2.302-.85c.177-.069.32-.106.497-.141l2.336.85c-.177.071-.354.106-.531.141zm-4.744 1.381h-.071l-.071-.036c0-.106 0-.212-.035-.318l.106.035.567.177c-.177.036-.32.071-.496.142z" fill="#827955"/><path d="m280.676 289.982-.39-.318.39-.035zm-1.558 1.381-.39-.283-1.345-.921c.036 0 .106 0 .142-.035l1.452.742.777.391c-.176.035-.389.07-.636.106zm-3.116.601-.247-.142.318.142z" fill="#827955"/><path d="m278.941 289.876c1.097-.177 1.735-.247 1.735-.247l-.39.035z" fill="#141515"/><path d="m333.674 295.221c-.885-.318-1.77-.601-2.62-.885h.071c0-.106 0-.213.035-.319h-.106c.071-.353.106-.742.142-1.132.814.282 1.699.565 2.584.885-.035.46-.071.956-.106 1.451z" fill="#babbbb"/><path d="m334.984 295.716c-.46-.177-.885-.318-1.31-.495.035-.495.071-.991.106-1.451.461.141.885.283 1.31.46-.035.496-.07.991-.106 1.486zm1.523.602c-.39-.141-.744-.318-1.134-.461.036-.495.106-.99.143-1.486.389.141.778.283 1.168.461z" fill="#141515"/><path d="m335.373 295.857c-.141-.035-.283-.106-.389-.141.036-.495.071-.99.106-1.486.142.035.283.106.426.141-.037.496-.107.991-.143 1.486z" fill="#babbbb"/><path d="m318.274 291.257c-.567-.107-.885-.142-.885-.142v-1.168l.318-.283 1.311.212c.389.036.849.142 1.344.212l-1.203.709zm3.469.636c-1.132-.212-2.124-.389-2.868-.53l.319-.213 1.629-.956c.885.177 1.911.39 3.116.672zm4.036.921c-1.275-.319-2.478-.566-3.541-.815l2.16-1.025c1.133.283 2.373.601 3.718.99zm4.779 1.38c-1.486-.495-2.938-.885-4.284-1.239l2.302-.85c.85.214 1.699.497 2.62.78-.036.39-.071.779-.142 1.132z" fill="#acadad"/><path d="m319.159 290.797 1.203-.709c.036.036.106.036.143.036zm.035.353 1.452-.991c.034 0 .106 0 .177.035zm3.044.849c-.07 0-.141-.035-.212-.035l.249-.142-.32.142c-.07-.034-.141-.034-.212-.071l2.196-1.027c.141.037.283.072.459.108zm4.036.956c-.176-.035-.353-.07-.495-.141l2.336-.85c.143.035.319.072.461.141zm4.78 1.381c-.177-.036-.353-.106-.496-.142l.496-.177h.106c-.035.106-.035.213-.035.319z" fill="#8f8250"/><path d="m317.389 289.947v-.318l.318.035zm1.486 1.416c-.212-.036-.424-.071-.601-.106l.885-.46 1.346-.673c.034 0 .069.035.141.035l-1.452.991zm3.151.601h-.071l.32-.142z" fill="#8f8250"/><path d="m319.018 289.876-1.311-.212-.318-.035s.566.035 1.629.247z" fill="#141515"/><path d="m262.196 285.31-.32-.036c.708-.141 2.62-.566 5.382-1.097 2.23-.389 4.673-.814 7.292-1.204l.85 1.806c-6.513.177-11.54.424-13.204.531z" fill="#827955"/><path d="m277.135 284.744-.921-1.983c.39-.071.779-.106 1.169-.177l.212.426.779 1.698c-.425 0-.849.036-1.239.036zm-1.735.035-.85-1.806c.39-.035.815-.106 1.205-.177l.92 1.948c-.425 0-.85.035-1.275.035z" fill="#141515"/><path d="m276.675 284.744-.92-1.912c.176-.036.318-.071.459-.071l.921 1.983z" fill="#a3a4a4"/><path d="m261.593 285.345s.106-.035.283-.071l.32.036c-.39 0-.603.035-.603.035z" fill="#141515"/><path d="m267.258 284.177c2.691-.495 6.231-1.098 10.125-1.593-.39.071-.779.106-1.169.177-.141 0-.283.035-.459.035-.39.071-.815.142-1.205.177-2.619.39-5.062.815-7.292 1.204z" fill="#141515"/><path d="m335.905 285.31c-1.629-.107-6.727-.354-13.241-.531l.849-1.806c1.912.284 3.717.567 5.418.885 1.45.248 2.796.497 4.07.744 1.593.319 2.727.566 3.222.672z" fill="#8f8250"/><path d="m320.929 284.744c-.39 0-.814-.036-1.203-.036l.742-1.629.213-.495c.389.071.815.106 1.204.177zm1.735.035c-.389 0-.85-.035-1.274-.035l.92-1.948c.389.071.813.142 1.203.177z" fill="#141515"/><path d="m321.39 284.744h-.461l.956-1.983c.141 0 .284.035.425.071z" fill="#babbbb"/><path d="m336.507 285.345s-.213-.035-.602-.035l.318-.036c.178.036.284.071.284.071z" fill="#141515"/><path d="m333.001 284.602c-1.274-.247-2.62-.496-4.07-.744-1.701-.318-3.506-.601-5.418-.885-.39-.034-.814-.106-1.203-.177-.141 0-.284-.035-.425-.035-.389-.071-.815-.106-1.204-.177 5.063.638 9.453 1.451 12.32 2.018z" fill="#141515"/><path d="m311.016 284.39c-.53-.035-1.062-.072-1.593-.106l.814-1.806.496-.885c.707.072 1.417.107 2.124.178l-.991 1.522zm2.514.177c-.638-.036-1.274-.106-1.983-.142l.495-.849 1.169-1.77c.815.071 1.594.142 2.373.212l-2.019 2.478zm2.69.247c-.708-.07-1.486-.141-2.3-.212l2.017-2.548c.885.106 1.77.177 2.655.283zm3.045.319c-.673-.071-1.558-.177-2.655-.283l2.337-2.478c.566.071 1.132.141 1.699.212l-1.027 2.266zm-12.214.212 1.31-3.752.035-.142c.673.036 1.346.071 1.983.108l-.354.672-1.275 2.018c-.283 0-.601-.037-.885-.037-.212.39-.46.744-.814 1.133zm-1.027.071c-.531-.778-.283-1.416-.035-1.982.106-.355.849-1.203 1.062-2.053.354 0 .672.035 1.027.035z" fill="#979797"/><path d="m308.361 281.593.035-.142zm1.664.638.354-.672h.07zm.212.247.425-.885h.071zm1.629.815.991-1.522h.141zm.176.283 1.028-1.805c.034 0 .106 0 .141.035zm1.878 1.026h-.037l1.204-1.77-1.522 1.664 2.019-2.478c.106 0 .247.036.353.036zm2.69.248c-.035 0-.106 0-.141-.036l.389-.459-.497.459h-.141l2.372-2.477c.106.035.249.035.355.035zm2.832.318c-.035 0-.106-.035-.177-.035l.354-.283z" fill="#827955"/><path d="m309.423 284.284c-.212 0-.46 0-.673-.035l1.275-2.018.424-.672c.071.034.143.034.213.034l-.425.885zm2.124.141c-.176 0-.354-.035-.531-.035l.85-1.097 1.132-1.522h.072l-1.028 1.805zm2.336.177c-.106 0-.247 0-.353-.035l.035-.071 1.522-1.663zm2.586.212h-.108l.497-.459zm-10.021 1.098c-.176-.177-.318-.318-.424-.496l2.054-4c.106 0 .212.035.318.035l-.035.142-1.31 3.752c-.177.177-.389.355-.603.567z" fill="#827955"/><path d="m300.253 281.912v-.744h1.452l-.106.603h-.355c-.318 0-.636.035-.991.141zm-1.203.425v-1.169h.673l-.107.921c-.212.071-.389.177-.566.248zm4.779 1.274.319-1.877c.177.214.318.426.318.709.036.07.036.141 0 .212-.035.424-.247.779-.637.956zm-3.54.071v-.46c.425-.249.673-.461 1.098-.532l-.143.709c-.282.035-.601.141-.955.283zm2.69.035c-.141 0-.424-.071-.92-.212l.035-.744h.355c.106-.035.212-.071.247-.141.106-.248-.07-.46-.53-.672l.034-.744h1.028c.176.071.318.141.459.212zm-3.929.283v-.177c.071-.071.177-.106.318-.141 0 0 .036-.036.071-.036l-.035.354z" fill="#979797"/><path d="m298.448 282.584-.142-1.416h.744v1.169c-.212.07-.425.141-.602.247zm-1.699.744-.426-2.16h1.452l-.035 1.736c-.036 0-.036.034-.036.034-.141.072-.496.213-.955.39zm1.84.672v-.035c.142-.036.283-.107.461-.142v.177zm-3.504 0-.815-2.761c.495-.035 1.027-.035 1.523-.035l.177 2.442c-.283.106-.567.212-.85.354zm-1.806.071-1.098-2.761c.531-.035 1.063-.035 1.629-.071l.425 2.832zm-1.948.07-1.38-2.69v-.035c.603-.035 1.204-.071 1.806-.071l.708 2.761c-.39 0-.779.035-1.134.035zm-2.088.108-1.169-1.912-.424-.778c.637-.037 1.31-.072 1.947-.108l.992 2.726c-.461.035-.885.035-1.346.072zm-2.266.141-.744-.991-1.061-1.628c.708-.071 1.416-.106 2.124-.178l.425.779.849 1.912c-.53.034-1.062.071-1.593.106zm-2.514.177-2.017-2.549c.779-.07 1.558-.141 2.372-.212l1.097 1.663.532.956c-.673.036-1.346.071-1.984.142zm-2.69.212-2.337-2.442c.885-.106 1.77-.177 2.655-.283l2.019 2.513c-.85.071-1.629.141-2.337.212zm-3.045.318-.212-.176-.461-.921-.636-1.416c.53-.071 1.097-.141 1.664-.177l2.3 2.407c-1.132.107-2.018.213-2.655.283z" fill="#8a8a8a"/><path d="m289.951 281.451v-.035zm-1.877.886-.495-.744c.036 0 .036-.034.071-.034zm-.353.035-.425-.779h.071zm-1.488 1.027-1.238-1.628h.177zm-.318.07-1.097-1.663c.035 0 .106 0 .141-.035zm-1.805 1.098-2.019-2.513c.106 0 .249-.036.355-.036l2.017 2.549-1.557-1.735zm-2.727.247-2.3-2.407c.106-.035.247-.035.353-.07l2.337 2.442h-.141l-.461-.424.354.459zm-2.761.283-.106-.176.212.176z" fill="#827955"/><path d="m302.165 281.948c-.106-.036-.248-.071-.389-.142h-.142c0-.035-.035-.035-.035-.035l.106-.603c.177 0 .354.036.495.036l-.034.744zm-2.549.141.107-.921h.53v.744c-.176.036-.424.106-.637.177zm-1.876.815.035-1.736h.531l.142 1.416c-.283.106-.531.212-.708.32zm4.319.601c-.106 0-.177-.036-.283-.071s-.212-.035-.355-.035h-.177l.143-.709h.247s.213.036.46.071zm-6.089.141-.177-2.442c.177 0 .353-.036.53-.036l.426 2.16c-.248.106-.496.212-.779.318zm7.258.106h-.036c-.07 0-.107-.035-.107-.035h-.106l.708-2.301c.071.035.142.106.212.143.108.069.178.141.249.175l-.319 1.877c-.142.071-.354.141-.601.141zm-3.648.248h-.176l.035-.354c.212-.106.425-.177.638-.283.07-.07.141-.106.212-.141v.46c-.212.07-.46.212-.709.318zm-.991 0v-.035zm-4.354.071-.425-2.832h.46l.815 2.761c-.036 0-.071.035-.106.035-.248 0-.496 0-.744.036zm-1.77.035-.708-2.761c.141-.035.283-.035.424-.035l1.098 2.761c-.284.035-.567.035-.814.035zm-1.876.071-.992-2.726c.141 0 .248-.035.354-.035v.035l1.38 2.69c-.247.036-.495.036-.742.036zm-2.019.106-.849-1.911-.354-.779h.212l.495.744 1.169 1.912c-.212 0-.425.034-.673.034zm-2.123.141-.532-.955-.956-1.698h.036l1.238 1.628.744.99c-.177 0-.354 0-.53.035zm-2.337.143-1.204-1.735 1.557 1.735zm-2.585.247-.354-.459.461.424c-.036 0-.071 0-.107.035z" fill="#827955"/><g fill="#141515"><path d="m278.055 284-.46-.99-.176-.426z"/><path d="m319.477 285.168h-.035l1.204-2.584h.035l-.213.495z"/><path d="m303.228 281.204h-1.028c-.141 0-.318-.036-.495-.036h-2.655v-.07c1.38 0 2.726.035 4.035.07.072 0 .107.036.143.036zm-25.809 1.38h-.036s10.125-1.486 21.667-1.486v.07h-2.762c-.142.036-.318.036-.495.036-.496 0-1.028 0-1.523.035h-.46c-.566.036-1.098.036-1.629.071-.141 0-.283 0-.424.035-.602 0-1.203.036-1.806.071-.106 0-.213.035-.354.035-.638.036-1.31.071-1.947.107-.035 0-.035 0-.071.035h-.284c-.707.071-1.415.106-2.123.177h-.213c-.035.035-.106.035-.141.035-.814.071-1.593.143-2.372.213-.106 0-.249.036-.355.036-.885.106-1.77.177-2.655.283-.106.035-.247.035-.353.07-.567.036-1.134.106-1.664.177zm43.262 0h-.035c-.567-.071-1.133-.141-1.699-.212-.106 0-.249 0-.355-.035-.885-.106-1.77-.177-2.655-.283-.106 0-.247-.036-.353-.036-.779-.07-1.558-.141-2.373-.212-.035 0-.106-.035-.141-.035h-.213c-.707-.071-1.417-.106-2.124-.177h-.071c-.07 0-.142 0-.213-.035h-.07c-.637-.037-1.31-.071-1.983-.108-.106-.035-.212-.035-.319-.035-.354 0-.672-.034-1.026-.034 0-.037 0-.037.035-.072 7.825.425 13.594 1.274 13.594 1.274z"/><path d="m277.595 283.01-.212-.426h.036z"/><path d="m320.468 283.079.213-.495z"/><path d="m262.231 278.372.389-3.257c3.08-.53 3.257-.672 3.398-2.406l.85-11.964c.177-1.522.036-1.911-2.478-1.628l.355-2.513s9.31-1.841 18.337-2.443l-.034 6.654-3.116.32c-.284-3.08-.247-3.682-2.655-3.399l-5.488.744-.283 5.628 1.133-.036c1.593-.318 2.019-.141 2.019-2.124l2.017-.283-.141 6.831-2.231.283c0-1.663-.142-2.158-1.629-2.017l-1.381.248-.141 6.265 6.443-.814c2.691-.248 2.832-1.061 2.832-4l3.187-.354.035 7.222c-11.895.601-21.418 3.043-21.418 3.043z"/><path d="m262.231 278.372 1.486.177.39-3.256-1.487-.178.247 1.488c.779-.143 1.381-.249 1.913-.39.424-.106.779-.212 1.132-.389.283-.142.567-.354.779-.603.177-.176.319-.389.425-.601.176-.318.248-.636.319-.92.035-.283.071-.566.106-.849v-.036l.85-11.963-1.523-.107 1.523.141c0-.247.035-.53.035-.813s0-.567-.141-.921c-.071-.248-.214-.566-.426-.813-.177-.178-.353-.32-.567-.426-.282-.177-.601-.283-.885-.318-.282-.036-.53-.071-.848-.071-.39 0-.851.035-1.346.106l.177 1.487 1.452.212.389-2.513-1.486-.212.282 1.486h.036c.283-.071 2.619-.531 6.018-1.061 3.399-.496 7.788-1.098 12.108-1.38l-.107-1.488h-1.521v5.274l-1.77.212.141 1.488 1.486-.142c-.035-.673-.106-1.203-.176-1.735-.036-.354-.106-.707-.213-1.062-.07-.283-.176-.566-.353-.849-.143-.177-.319-.39-.532-.567-.141-.141-.318-.247-.496-.318-.247-.106-.495-.212-.779-.248-.247-.035-.495-.035-.707-.035-.354 0-.708 0-1.063.071h-.035l-5.487.744c-.708.106-1.275.707-1.31 1.415l-.248 5.628c0 .389.142.813.425 1.097.283.319.708.46 1.098.46l1.097-.035h.283c.39-.106.673-.142 1.026-.212.143-.036.284-.071.426-.107.141-.07.283-.106.425-.176.247-.142.53-.32.744-.603.141-.176.247-.424.353-.601.106-.318.177-.638.212-.956.036-.283.036-.601.036-.956h-1.487l.213 1.488.283-.037-.071 3.788-.956.106.177 1.487h1.522c0-.39 0-.743-.035-1.097-.035-.283-.106-.567-.213-.85-.071-.247-.177-.46-.354-.707-.141-.143-.318-.32-.496-.426-.247-.212-.566-.318-.814-.389-.283-.035-.53-.071-.778-.071-.213 0-.425 0-.637.036h-.107l-1.345.247c-.708.142-1.205.744-1.239 1.452l-.142 6.265c0 .424.176.85.496 1.133.318.318.743.424 1.203.389l6.408-.814-.177-1.486.142 1.486c.39 0 .708-.072 1.062-.141.284-.037.566-.106.814-.213.249-.107.461-.213.708-.354.177-.106.355-.248.532-.425.283-.284.53-.637.671-.991.108-.247.178-.53.249-.779.071-.389.106-.814.141-1.239 0-.424.036-.849.036-1.345h-1.523l.177 1.488 1.523-.178v5.593l1.522-.035-.106-1.487c-12.038.601-21.631 3.044-21.702 3.079l.389 1.451 1.487.177-1.487-.177.354 1.451h.036c.212-.07 9.558-2.407 21.1-2.973.779-.035 1.416-.708 1.416-1.521l-.035-7.222c0-.424-.177-.813-.496-1.097-.318-.283-.744-.424-1.168-.389l-3.151.318c-.779.106-1.346.744-1.346 1.487s-.035 1.309-.071 1.699c-.035.283-.07.46-.106.531 0 .035-.035.035-.035.035 0 .036-.035.036-.071.071-.07 0-.212.071-.389.106-.213.035-.46.071-.814.106h-.035l-4.709.603.07-3.293.142-.035-.248-1.487.142 1.487h.425v-.071.071-.071.071l.071-.46-.177.424c.035.036.071.036.106.036l.071-.46-.177.424.318-.672-.496.566c.072.036.106.071.178.106l.318-.672-.496.566.461-.53-.638.283c.036.071.106.177.177.247l.461-.53-.638.283.283-.142-.283.106v.036l.283-.142-.283.106h.071-.071.071-.071v.036c0 .035 0 .141.036.283v.637c0 .425.178.849.496 1.133.318.283.779.425 1.203.354l2.195-.283c.744-.071 1.311-.708 1.346-1.451l.142-6.832c0-.425-.177-.849-.532-1.133-.318-.319-.743-.425-1.203-.389l-2.019.283c-.743.106-1.274.743-1.274 1.486 0 .461-.035.709-.07.779l.353.106-.318-.176c-.035.035-.035.07-.035.07l.353.106-.318-.176.601.353-.495-.495c-.035.071-.071.106-.106.142l.601.353-.495-.495.46.46-.283-.601c-.035.035-.106.07-.177.141l.46.46-.283-.601.106.212-.071-.212h-.035l.106.212-.071-.212v.035-.035.035-.035s-.141.035-.319.07c-.212.036-.495.106-.813.177l.318 1.451-.035-1.486h-1.099v1.522l1.523.07.178-4.388 4.283-.567-.213-1.487.143 1.487c.318-.036.565-.071.742-.071.106 0 .178.035.213.035h.036l.07-.318-.176.283c.07.035.106.035.106.035l.07-.318-.176.283.283-.46-.389.354c.034.035.069.071.106.106l.283-.46-.389.354.282-.248-.354.177c.035 0 .035.036.072.071l.282-.248-.354.177.142-.071-.142.071.142-.071-.142.071h.035-.035.035-.035s.035.071.072.177c.035.143.07.424.106.779.035.354.106.815.141 1.345.035.389.212.744.532.992.318.282.707.389 1.132.353l3.116-.318c.742-.106 1.309-.744 1.309-1.488l.036-6.654c0-.424-.177-.813-.46-1.096-.319-.284-.708-.426-1.134-.39-4.566.284-9.204.92-12.674 1.451-3.469.531-5.841 1.026-5.841 1.026-.638.106-1.098.603-1.204 1.239l-.354 2.478c-.071.46.07.956.39 1.274.318.354.779.497 1.238.46.461-.071.815-.071 1.027-.071h.354l.142-.459-.283.389c.071.07.141.07.141.07l.142-.459-.283.389.46-.672-.673.495c.072.071.142.141.213.177l.46-.672-.673.495.637-.495-.743.318c.035.071.07.106.106.177l.637-.495-.743.318.46-.177-.496.071s.036.035.036.106l.46-.177-.496.071h.036-.036.036-.036v.071c0 .106 0 .283-.035.495v.072l-.85 11.963 1.487.106-1.487-.141c0 .212-.035.389-.035.495-.035.106-.035.177-.071.212l.283.106-.247-.141c0 .035-.036.035-.036.035l.283.106-.247-.141.353.247-.283-.318c-.035 0-.035.035-.07.071l.353.247-.283-.318.142.177-.106-.212-.036.035.142.177-.106-.212h-.036c-.07.035-.283.141-.672.212-.354.071-.85.177-1.488.283-.672.106-1.168.638-1.238 1.31l-.389 3.256c-.072.496.141.992.495 1.31.353.318.885.425 1.345.318l-.354-1.451z"/><path d="m296.253 274.797-6.231-15.963c-.708-2.018-1.416-2.584-2.868-2.549l-.036-2.513s4.709-.46 9.914-.389l-.036 2.478c-1.415 0-2.655.99-1.911 2.973l3.824 11.221 4.566-12.036c.177-.53-.212-2.052-1.982-2.088-.178 0-.141 0-.035.036.212 0 .708.035-.532-.071v-2.513c4.709 0 9.666.424 9.666.424l-.037 2.514c-1.627 0-2.3 0-2.938 2.088l-6.443 16.388z"/><path d="m296.253 274.797 1.416-.566-6.267-15.963-1.38.566 1.417-.495c-.214-.567-.39-1.027-.638-1.488-.177-.318-.39-.601-.637-.884-.177-.212-.389-.39-.638-.567-.354-.248-.744-.389-1.133-.495-.388-.106-.778-.142-1.167-.142h-.108l.036 1.522 1.487-.035-.035-2.513-1.488.035.143 1.486c.212-.035 4.284-.389 8.956-.389h.815v-1.486l-1.488-.035-.034 2.513h1.486l.036-1.488h-.071c-.425 0-.85.072-1.239.178-.319.106-.602.248-.885.425-.425.282-.814.673-1.063 1.132-.283.496-.389 1.062-.389 1.628 0 .532.106 1.098.32 1.628l1.38-.53-1.417.495 3.789 11.221c.212.601.779.991 1.416.991.637.036 1.204-.355 1.416-.956l4.567-12.034.036-.036c.106-.284.106-.531.106-.779 0-.353-.036-.707-.177-1.062-.106-.283-.249-.53-.425-.813-.283-.39-.672-.744-1.168-.992-.461-.283-1.062-.424-1.7-.424h-.39c-.035.034-.07.034-.106.034-.035 0-.07.037-.141.037-.036.035-.106.035-.177.07-.035.036-.106.071-.177.107-.106.07-.247.176-.39.389-.07.07-.141.212-.177.353-.07.177-.106.32-.106.496 0 .248.071.46.142.602.071.177.141.283.212.39.178.177.284.247.355.283.106.071.141.106.212.106.07.035.141.071.177.071.07.035.106.035.141.035.072 0 .107 0 .107.035h.318c.036 0 .071.036.071.036h.248c.035-.036.035-.036.07-.036h.106c.037 0 .072-.035.143-.035.035 0 .106-.035.177-.071.035 0 .106-.035.176-.07.107-.071.248-.177.389-.391.107-.106.178-.212.249-.389.035-.141.071-.353.071-.53 0-.212-.036-.461-.106-.602-.071-.177-.177-.283-.249-.354-.141-.177-.247-.248-.318-.318-.106-.036-.142-.071-.212-.071-.071-.071-.106-.071-.177-.071-.071-.035-.106-.035-.106-.035-.072-.037-.107-.037-.107-.037h-.142c-.141-.034-.353-.069-.708-.106l-.177 1.523 1.523-.035-.036-2.478h-1.487v1.486c2.302.036 4.709.142 6.515.213.92.07 1.664.106 2.195.141.283.035.495.035.636.071h.214l.106-1.487-1.487-.035-.071 2.513 1.522.036v-1.487h-.176c-.39 0-.779 0-1.205.035-.283.036-.637.142-.991.283-.247.142-.496.283-.708.497-.355.282-.602.672-.779 1.025-.212.39-.389.815-.53 1.31l1.45.425-1.416-.531-6.054 15.397h-3.893v1.522l1.415-.566-1.415.566v1.488h4.921c.601 0 1.168-.355 1.38-.956l6.443-16.354.036-.106c.141-.46.283-.744.353-.885.036-.035.071-.071.071-.106h.035l-.035-.036v.036h.035l-.035-.036v.036l-.035-.071.035.071-.035-.071.035.071c.035 0 .106-.036.249-.036.176-.035.389-.035.673-.035h.141c.85 0 1.486-.637 1.521-1.451l.036-2.513c.035-.778-.566-1.451-1.345-1.522-.035 0-1.275-.106-3.116-.212-1.84-.106-4.283-.213-6.691-.248-.389 0-.779.177-1.062.46-.284.283-.425.673-.425 1.062v2.513c0 .743.602 1.416 1.346 1.487.318.035.496.035.602.07h.106l.035-.389-.07.389h.035l.035-.389-.07.389.212-1.239-.284 1.204.072.035.212-1.239-.283 1.204.318-1.38-.39 1.38h.071l.319-1.38-.39 1.38.425-1.416-.531 1.381c.035 0 .071.035.106.035l.425-1.416-.531 1.381.531-1.416-.637 1.38c.035 0 .071.036.106.036l.531-1.416-.637 1.38.637-1.38-.778 1.31c.07.035.106.035.141.07l.637-1.38-.778 1.31.778-1.31-1.098 1.027c.143.176.249.212.32.283l.778-1.31-1.098 1.027 1.098-1.027-1.345.672c.07.141.178.247.247.355l1.098-1.027-1.345.672 1.345-.672h-1.487c0 .247.071.495.142.672l1.345-.672h-1.487 1.487l-1.416-.496c-.035.141-.071.319-.071.496h1.487l-1.416-.496 1.416.496-1.239-.85c-.071.071-.106.212-.177.354l1.416.496-1.239-.85 1.239.85-.849-1.239c-.106.071-.212.177-.39.389l1.239.85-.849-1.239.849 1.239-.602-1.381c-.07.036-.141.071-.247.142l.849 1.239-.602-1.381.602 1.381-.353-1.451c-.035 0-.143.035-.249.07l.602 1.381-.353-1.451.353 1.451-.176-1.487c-.036 0-.071 0-.177.036l.353 1.451-.176-1.487.176 1.416-.07-1.416h-.106l.176 1.416-.07-1.416.07 1.275v-1.275h-.07l.07 1.275v-1.275.708-.708.708-.708h-.141l-.071.778.142-.778h-.071l-.071.778.142-.778-.248 1.31.283-1.31h-.035l-.249 1.31.284-1.31-.318 1.381.389-1.345c-.036-.036-.036-.036-.071-.036l-.319 1.381.39-1.345-.39 1.38.496-1.38h-.106l-.39 1.38.496-1.38-.496 1.415.602-1.345c-.035-.035-.071-.035-.106-.07l-.496 1.415.602-1.345-.602 1.345.743-1.274c-.07-.035-.106-.071-.141-.071l-.602 1.345.743-1.274-.743 1.274 1.098-.991c-.178-.177-.284-.247-.355-.283l-.743 1.274 1.098-.991-1.098.991 1.346-.637c-.071-.177-.177-.283-.248-.354l-1.098.991 1.346-.637-1.346.637h1.487c0-.247-.071-.46-.141-.637l-1.346.637h1.487-1.487l1.346.673c.07-.177.141-.425.141-.673h-1.487l1.346.673-1.346-.673 1.063 1.063c.07-.071.177-.214.283-.39l-1.346-.673 1.063 1.063-1.063-1.063.814 1.275c.072-.036.143-.106.249-.212l-1.063-1.063.814 1.275-.814-1.275.531 1.416c.071-.035.142-.07.283-.141l-.814-1.275.531 1.416-.531-1.38.284 1.451c.035 0 .106-.035.247-.071l-.531-1.38.284 1.451-.284-1.416.142 1.416h.142l-.284-1.416.142 1.416-.107-1.097.037 1.132.07-.035-.107-1.097.037 1.132-.037-.459.037.459-.037-.459.037.459h.035c.177 0 .283.036.318.036.071.035.071.035.106.07.036.036.071.071.071.107 0 .035.035.07.035.07h.106-.106.106-.106.638l-.602-.212c-.036.142-.036.177-.036.212h.638l-.602-.212 1.416.495-1.416-.53-3.081 8.141-2.478-7.256v-.035c-.106-.283-.141-.497-.141-.603s.035-.141.035-.177l.035-.035c0-.035.071-.071.143-.106.106-.035.247-.035.389-.035h.035c.389 0 .779-.142 1.062-.425.284-.283.461-.673.461-1.062v-2.513c.035-.815-.638-1.522-1.487-1.522h-.815c-4.992 0-9.205.389-9.24.389-.779.071-1.381.744-1.381 1.522l.071 2.513c0 .85.673 1.488 1.522 1.488h.036c.248 0 .425.034.496.034.07.035.07.035.106.072.035.034.07.071.141.106.071.106.142.247.283.46.107.212.213.495.355.885l.035.034 6.232 15.965c.212.565.777.956 1.38.956z"/><path d="m314.096 271.718 12.887-12.849-6.904-.92c-2.407-.283-2.301-.142-2.23 3.61l-3.187-.318v-7.045c9.595.673 17.1 2.266 17.1 2.266l.495 3.114-11.824 12.566 8.533 1.381c1.982.177 1.911.318 1.664-3.292l3.363.743.744 7.257s-9.913-2.443-20.747-3.01z"/><path d="m314.096 271.718 1.062 1.062 12.888-12.849c.388-.425.53-1.027.353-1.557-.177-.532-.673-.921-1.238-.991l-6.869-.921h-.036c-.461-.071-.885-.106-1.309-.106-.178 0-.355 0-.532.035-.176.036-.353.071-.531.142-.177.035-.354.141-.495.247-.284.214-.531.461-.673.744-.106.212-.212.425-.247.601-.071.32-.108.567-.143.85v2.62l1.523-.036.141-1.486-1.841-.177.036-5.7h-1.523l-.106 1.487c4.744.355 8.993.885 12.038 1.38 1.522.249 2.726.461 3.575.603.424.106.744.176.956.212.106 0 .212.035.247.035.037 0 .072 0 .072.036h.036l.282-1.487-1.451.248.354 2.371-11.329 12.035c-.389.39-.495.991-.318 1.523.176.495.636.884 1.167.99l8.568 1.38h.07c.214.036.39.036.603.071.176 0 .354.035.566.035.142 0 .248-.035.389-.035.143-.035.284-.035.426-.106.106-.035.247-.071.389-.177.248-.106.46-.318.637-.566.106-.141.212-.319.248-.496.107-.248.142-.46.142-.637.034-.212.034-.425.034-.637 0-.283 0-.637-.034-.992 0-.389-.035-.848-.072-1.345l-1.521.106-.319 1.453 2.301.53.638 6.159 1.487-.141.353-1.487s-2.513-.602-6.408-1.274c-3.858-.708-9.099-1.451-14.621-1.77l-.071 1.521 1.486.037.143-3.469-1.523-.071 1.062 1.062-1.062-1.062-1.487-.035-.141 3.468c0 .814.602 1.523 1.415 1.558 5.347.283 10.48 1.027 14.269 1.699 1.911.318 3.469.636 4.566.885.532.106.956.212 1.24.283.141.035.247.071.318.071.035 0 .071 0 .071.035h.035c.461.106.991 0 1.346-.354.353-.319.567-.779.495-1.274l-.744-7.221c-.07-.637-.53-1.168-1.168-1.31l-3.328-.744c-.459-.106-.955 0-1.31.32-.353.283-.566.742-.53 1.239.035.495.07.919.106 1.309v1.133l.602.106-.531-.284c-.071.106-.071.178-.071.178l.602.106-.531-.284.885.496-.673-.779c-.106.106-.177.212-.212.283l.885.496-.673-.779.708.779-.46-.92c-.072.035-.178.106-.248.141l.708.779-.46-.92.354.744-.142-.815c-.035 0-.106.035-.212.071l.354.744-.142-.815.071.283-.035-.283h-.036l.071.283-.035-.283h-.036c-.035 0-.141 0-.284-.035-.176 0-.353-.036-.565-.036l-.177 1.487.247-1.487-5.735-.92 9.878-10.513c.318-.354.459-.813.389-1.274l-.495-3.079c-.071-.638-.567-1.098-1.169-1.239-.036 0-7.612-1.628-17.313-2.301-.424-.035-.813.106-1.132.389-.283.284-.46.673-.46 1.097l-.035 7.045c0 .778.601 1.416 1.38 1.486l3.186.319c.426.035.85-.106 1.134-.389.318-.283.495-.709.495-1.133 0-.673-.036-1.204-.036-1.628 0-.39.036-.673.036-.85 0-.071.035-.106.035-.106v-.036l-.496-.141.425.283c.036-.071.071-.142.071-.142l-.496-.141.425.283-.708-.495.496.707c.071-.071.142-.141.212-.212l-.708-.495.496.707-.46-.672.319.743c.034-.035.106-.035.141-.071l-.46-.672.319.743-.213-.531.141.566s.035-.035.072-.035l-.213-.531.141.566-.071-.247.037.247h.034l-.071-.247.037.247h.106c.177 0 .53 0 .991.071l.141-1.486-.176 1.486 3.858.496-10.726 10.725c-.249.283-.426.638-.426 1.027z"/></g><path d="m262.231 278.372.389-3.257c3.186-.353 3.257-.848 3.398-2.406l.85-11.964c.177-1.522.036-1.911-2.478-1.628l.355-2.513s9.31-1.841 18.337-2.443l-.034 6.654-3.116.32c-.284-3.08-.247-3.682-2.655-3.399l-5.488.744-.283 5.628 1.133-.036c1.593-.318 2.019-.141 2.019-2.124l2.017-.283-.141 6.831-2.231.283c0-1.663-.142-2.158-1.629-2.017l-1.381.248-.141 6.265 6.443-.814c2.691-.248 2.832-1.061 2.832-4l3.187-.354.035 7.222c-11.895.601-21.418 3.043-21.418 3.043z" fill="#fefefe"/><path d="m262.231 278.372.424.036.389-3.256-.424-.037.035.426c.815-.106 1.417-.212 1.912-.32.39-.106.673-.212.92-.389.213-.106.355-.247.496-.389.177-.247.283-.53.355-.779.069-.283.106-.601.106-.919l.885-11.965-.461-.034.461.034c0-.248.035-.495.035-.707 0-.213-.035-.389-.071-.603-.07-.141-.142-.283-.248-.424-.071-.071-.177-.142-.283-.212-.141-.106-.318-.142-.531-.177s-.425-.071-.672-.071c-.319 0-.744.036-1.24.106l.071.425.425.035.354-2.478-.424-.07.106.424s.035 0 .106-.034c1.026-.178 9.736-1.842 18.162-2.408l-.037-.425h-.424l-.035 6.265-2.726.283.035.426.425-.036c-.071-.673-.106-1.239-.177-1.699-.036-.354-.071-.637-.177-.92-.035-.178-.141-.39-.249-.531-.069-.142-.176-.248-.282-.354-.177-.142-.389-.212-.603-.283-.212-.071-.459-.071-.707-.071-.284 0-.602 0-.957.071l-5.486.743c-.213.035-.355.212-.355.425l-.283 5.592c0 .106.035.248.142.319.07.07.176.141.319.141l1.097-.035h.071c.39-.071.708-.142 1.026-.212.213-.036.39-.107.602-.213.142-.07.283-.177.389-.318.143-.212.249-.461.284-.744.071-.283.071-.636.071-1.062h-.424l.069.426 1.523-.214-.142 5.947-1.84.248.035.424h.461c0-.389-.037-.707-.072-.99 0-.212-.035-.424-.106-.602-.036-.142-.106-.283-.212-.389-.142-.177-.354-.319-.567-.389-.212-.071-.424-.106-.672-.106-.178 0-.355.035-.531.035l-1.381.248c-.177.035-.354.212-.354.389l-.142 6.3c0 .106.071.212.142.319.106.07.212.106.354.106l6.443-.814-.071-.425.036.425c.708-.035 1.238-.141 1.699-.319.354-.142.638-.354.85-.601.177-.177.283-.389.39-.637.141-.355.212-.779.247-1.239.036-.496.036-1.027.036-1.629h-.426l.036.425 2.725-.282v6.725h.461l-.035-.426c-11.931.602-21.49 3.045-21.49 3.045l.106.424.425.036-.425-.036.107.389h.106c1.062-.283 10.125-2.442 21.206-2.973.248-.035.424-.212.424-.459l-.034-7.222c0-.106-.072-.212-.141-.318-.107-.071-.213-.106-.355-.106l-3.151.318c-.212.036-.389.212-.389.425 0 .743 0 1.345-.071 1.805-.035.354-.107.637-.178.849-.07.142-.141.249-.247.355-.142.142-.354.283-.673.389-.283.106-.707.177-1.274.212l-5.948.744.107-5.415 1.026-.178-.071-.425.036.425h.424c.213 0 .355 0 .461.071.035 0 .07.035.106.07.071.071.106.212.141.461.036.248.036.566.036.99 0 .143.07.249.141.32.107.07.249.106.355.106l2.23-.283c.213-.037.354-.212.354-.426l.141-6.795c0-.142-.035-.248-.141-.354-.071-.071-.212-.106-.318-.106l-2.054.283c-.212.035-.354.212-.354.424 0 .496-.035.815-.071 1.027-.035.141-.107.212-.142.283-.034.035-.071.071-.106.071-.106.07-.283.106-.495.176-.249.037-.532.071-.885.143l.106.424-.035-.424h-.638l.212-4.779 5.134-.708-.036-.425.036.425c.319-.036.602-.071.849-.071.319 0 .567.035.673.106s.177.143.249.249c.069.141.176.459.247.919.071.461.106 1.062.177 1.806 0 .106.071.212.141.283.106.071.214.106.32.106l3.114-.318c.249-.036.39-.212.39-.426l.036-6.654c0-.106-.036-.212-.142-.318-.07-.071-.213-.106-.319-.106-9.063.601-18.374 2.442-18.374 2.442-.177.035-.318.177-.354.354l-.354 2.513c-.036.141 0 .248.107.354.069.106.212.141.353.141.46-.071.85-.071 1.133-.071.284 0 .46 0 .602.037.071.034.141.034.177.069.035.037.07.037.07.072.036 0 .036.036.071.106 0 .071.037.177.037.319 0 .176-.037.389-.072.636l-.85 11.965.425.035-.425-.035c-.035.389-.071.672-.106.884-.071.177-.106.283-.212.355-.035.071-.142.141-.248.212-.213.106-.496.212-.886.318-.389.071-.92.177-1.592.248-.178 0-.354.177-.354.354l-.389 3.257c-.036.141.035.283.141.389.106.07.248.106.389.07l-.106-.389z" fill="#bda458"/><path d="m296.253 274.797.425-.177-6.267-15.963-.389.177.389-.142c-.212-.637-.424-1.097-.636-1.486-.143-.284-.284-.532-.461-.709-.106-.141-.248-.247-.389-.353-.213-.142-.425-.213-.673-.248-.212-.035-.425-.071-.637-.071h-.461v.46l.425-.035-.035-2.513-.426.035.036.424s.072-.035.178-.035c.885-.071 4.637-.354 8.885-.354h.815v-.424l-.425-.035-.035 2.513h.424v-.426h-.106c-.46 0-.885 0-1.203.037-.249.034-.461.069-.673.106-.141.034-.283.071-.39.141-.177.071-.354.212-.46.389s-.141.389-.141.602c0 .176.035.354.071.567.035.212.106.424.212.672 0 0 0 .035.035.141.496 1.452 4.142 12.106 4.142 12.106.071.177.212.283.389.283.178 0 .355-.106.426-.283 0 0 1.167-3.08 2.336-6.23.566-1.557 1.168-3.151 1.594-4.39.247-.601.424-1.131.565-1.486.071-.212.143-.354.178-.46 0-.071.036-.106.036-.141 0-.071.035-.071.035-.106.071-.248.106-.46.106-.673 0-.142 0-.248-.071-.389-.035-.107-.07-.213-.141-.283-.143-.177-.319-.283-.496-.354-.248-.106-.567-.143-.991-.178-.39-.034-.885-.034-1.487-.071l-.036.461h.461l-.035-2.513h-.426v.424c2.337 0 4.745.106 6.585.213.921.035 1.7.106 2.231.141.283 0 .495.035.638.035.141.037.212.037.212.037l.035-.426-.425-.035-.036 2.549h.426l.035-.425c-.284-.035-.496-.035-.744-.035-.319 0-.637.035-.92.106-.213.071-.425.177-.602.318-.283.212-.496.461-.673.815-.177.318-.318.707-.496 1.168l.425.141-.39-.141-6.336 16.105-4.638-.036v.46l.425-.177-.425.177v.425h4.921c.178 0 .319-.106.39-.282l6.442-16.354v-.035c.143-.389.249-.709.39-.956.106-.212.177-.354.283-.46.143-.141.284-.248.461-.318.177-.071.424-.106.743-.106.213 0 .425 0 .672.034.107 0 .213-.034.32-.106.07-.071.141-.177.141-.318l.035-2.514c0-.247-.141-.424-.389-.424 0 0-5.027-.424-9.736-.424-.106 0-.212.035-.318.106-.071.106-.106.212-.106.318v2.513c0 .212.212.425.424.425.532 0 .956 0 1.311.035.247 0 .459.035.636.071.106.035.213.035.284.07.035.036.071.036.071.036l.035.035c0 .036.035.071.035.142 0 .07-.035.248-.07.46l.141.036-.141-.036.141.036-.141-.036s-.036 0-.036.036c-.035.141-.141.46-.319.884-.53 1.487-1.629 4.46-2.584 7.044-.495 1.275-.956 2.478-1.274 3.362-.143.426-.284.78-.39 1.027-.071.249-.142.39-.142.39l.426.142.389-.142s-.071-.178-.177-.531c-.39-1.133-1.381-4.035-2.302-6.69-.459-1.31-.885-2.549-1.203-3.469-.142-.46-.284-.849-.355-1.133-.07-.106-.106-.212-.106-.318-.035-.071-.035-.106-.07-.106-.071-.248-.106-.425-.177-.602-.035-.141-.035-.284-.035-.353v-.107l.035-.036c0-.035 0-.035.071-.071.106-.07.318-.106.637-.141.318-.035.744-.071 1.274-.071h.106c.249 0 .425-.177.425-.424l.036-2.478c0-.248-.177-.424-.425-.461h-.815c-4.921 0-9.134.426-9.134.426-.247 0-.424.212-.389.424l.036 2.513c0 .212.176.426.424.426h.461c.247 0 .425 0 .566.034.106.035.212.072.283.141.142.108.318.284.496.603.212.353.425.814.672 1.486l6.232 15.965c.07.175.212.282.39.282v-.425z" fill="#bda458"/><path d="m314.096 271.718 12.887-12.849-6.904-.92c-2.407-.283-2.301-.142-2.23 3.61l-3.187-.318v-7.045c9.595.673 17.1 2.266 17.1 2.266l.495 3.114-11.824 12.566 8.533 1.381c1.982.177 1.911.318 1.664-3.292l3.363.743.744 7.257s-9.913-2.443-20.747-3.01z" fill="#fefefe"/><path d="m314.096 271.718.319.318 12.852-12.884c.106-.106.176-.283.106-.424-.036-.142-.177-.283-.355-.283l-6.868-.921c-.496-.071-.85-.106-1.203-.106-.249 0-.496.035-.744.141-.178.071-.354.177-.46.319-.177.247-.248.53-.283.85-.071.318-.071.672-.071 1.168 0 .46 0 .99.035 1.663h.425l.035-.424-2.797-.283v-6.656h-.425l-.035.426c4.78.318 9.063.884 12.108 1.38 1.558.248 2.797.46 3.646.637.426.071.744.141.956.177.143.035.213.035.284.07h.071l.07-.424-.425.071.461 2.902-11.683 12.424c-.106.107-.142.283-.071.425.035.141.177.247.318.284l8.568 1.38c.425.036.778.071 1.062.071.177 0 .354 0 .531-.071.106-.035.247-.107.354-.213.071-.071.106-.177.177-.248.071-.176.106-.318.106-.459.036-.177.036-.354.036-.567 0-.531-.071-1.238-.106-2.265l-.461.035-.071.425 3.045.673.708 6.937.425-.035.107-.426s-9.95-2.441-20.854-3.008v.424h.426l.106-3.503h-.426l.32.318-.32-.318h-.424l-.106 3.468c-.035.249.141.426.389.461 5.417.283 10.586 1.027 14.41 1.699 1.911.353 3.469.673 4.566.885.567.141.991.212 1.275.283.142.035.248.071.319.106h.106c.141.035.284 0 .39-.071.106-.106.176-.247.141-.389l-.744-7.221c0-.177-.141-.354-.318-.389l-3.363-.744c-.143-.035-.284 0-.355.106-.106.072-.176.213-.176.355.07.99.141 1.734.141 2.195 0 .212-.035.389-.035.495-.036.071-.036.141-.036.141l-.035.036-.035.035h-.213c-.213 0-.531-.035-.955-.071l-.072.425.072-.425-7.754-1.239 11.294-11.999c.07-.106.106-.247.106-.353l-.496-3.116c0-.177-.142-.318-.319-.353 0 0-7.54-1.593-17.17-2.266-.107 0-.248.035-.319.106-.07.106-.141.212-.141.318v7.045c0 .212.141.424.389.424l3.186.319c.106 0 .212-.036.32-.107.07-.07.141-.212.141-.318 0-.673-.035-1.239-.035-1.663 0-.426 0-.744.035-.956.035-.177.071-.318.106-.389 0-.071.035-.106.035-.142.036-.035.071-.07.142-.07.106-.037.212-.071.389-.071.284 0 .637.034 1.098.106l.035-.425-.035.425 6.018.813-12.249 12.213c-.071.106-.142.212-.142.318z" fill="#bda458"/><path d="m262.231 278.372.389-3.257c3.116-.389 3.257-.848 3.398-2.406l.85-11.964c.177-1.522.036-1.911-2.478-1.628l.355-2.513s9.31-1.841 18.337-2.443l-.034 6.654-3.116.32c-.106-3.08-.106-3.752-2.655-3.399l-5.488.744-.283 5.628 1.133-.036c1.593-.318 2.019-.141 2.019-2.124l2.017-.283-.141 6.831-2.231.283c0-1.663-.142-2.158-1.629-2.017l-1.381.248-.141 6.265 6.443-.814c2.691-.248 2.832-1.061 2.832-4l3.187-.354.035 7.222c-11.895.601-21.418 3.043-21.418 3.043z" fill="#fefefe"/><path d="m296.253 274.797-6.231-15.963c-.956-2.655-1.416-2.62-2.478-2.584-.106 0-.248.035-.39.035l-.036-2.513s4.709-.46 9.914-.389l-.036 2.478c-2.231 0-2.973 0-2.407 1.663.07.318.035.106.107.354l4.213 12.177s4.849-12.814 4.955-13.098c.425-1.167-1.097-.884-2.938-1.061v-2.513c4.709 0 9.666.424 9.666.424l-.037 2.514c-1.911-.071-2.3 0-2.938 2.087l-6.443 16.389z" fill="#fefefe"/><path d="m314.096 271.718 12.887-12.849-6.904-.92c-2.619-.283-2.266-.425-2.23 3.61l-3.187-.318v-7.045c9.595.673 17.1 2.266 17.1 2.266l.495 3.114-11.824 12.566 8.533 1.381c1.982.177 1.911.318 1.664-3.292l3.363.743.744 7.257s-9.913-2.443-20.747-3.01z" fill="#fefefe"/><path d="m293.421 244.428c.389 0 .566-.071.637-.319 0-.141.036-.673.036-1.629v-.389c0-.283-.036-.459-.107-.495l-.531.283-.106-.247 1.203-.673h.177c.107.141.143.212.143.353v.071c0 .638-.071 1.38-.071 2.23 0 .638.035.815.673.815v.283h-2.054z" fill="#141515"/><path d="m297.139 243.401c-.567 0-.957-.46-.957-1.168 0-.815.496-1.345 1.239-1.345.815 0 1.274.53 1.274 1.522 0 1.274-.955 2.265-2.442 2.371l-.036-.247c.885-.212 1.381-.638 1.558-1.345-.212.141-.424.212-.636.212zm.778-1.168c0-.709-.177-1.098-.496-1.098-.282 0-.425.283-.425.85 0 .672.177.992.532.992.106 0 .212-.036.318-.107.035-.213.072-.425.072-.637z" fill="#141515"/><path d="m300.82 242.268c.567 0 .956.426.956 1.168 0 .815-.496 1.345-1.24 1.345-.813 0-1.274-.566-1.274-1.522 0-1.274.956-2.265 2.443-2.371l.035.247c-.849.214-1.381.603-1.557 1.31.212-.106.425-.177.637-.177zm-.779 1.168c0 .709.177 1.098.495 1.098.284 0 .426-.283.426-.85 0-.672-.177-1.027-.532-1.027-.106 0-.212.037-.318.143-.035.212-.071.424-.071.636z" fill="#141515"/><path d="m304.36 241.632-1.911.035v-.708h2.443v.424l-1.7 3.398h-.46z" fill="#141515"/><path d="m322.345 327.538c-3.151-1.381-5.629-1.027-6.372-.886l-2.443 3.929s-.283 1.771 2.336 4.283z" fill="#141515"/><path d="m320.15 336.138c1.629.815 5.488 2.443 7.187 1.239l1.416-3.327c0-2.088-5.169-4.566-5.24-4.566-2.017-1.027-5.062-2.088-6.726-1.628l-1.912 3.114c.495 2.407 3.47 4.249 5.275 5.168z" fill="#fefefe"/><path d="m321.92 332.635c-2.938-1.487-5.062-3.257-4.709-3.965.355-.708 3.081-.07 6.019 1.381 2.903 1.522 4.992 3.326 4.638 4.035-.354.707-3.044.071-5.948-1.451z" fill="#a78c23"/><path d="m321.92 332.635c-2.938-1.487-5.062-3.257-4.709-3.965l-1.451 2.371c-.284.779 1.876 2.725 4.814 4.213 2.904 1.522 5.771 2.088 6.232 1.416l1.062-2.584c-.354.707-3.044.071-5.948-1.451z" fill="#141515"/><path d="m323.833 333.909c.424.177.813.283.813.283l-.956 1.983s-.495-.108-.991-.32c.071-.141 1.134-1.946 1.134-1.946z" fill="#fefefe"/><path d="m322.982 333.591c.178.069.39.175.39.175l-.991 1.983c-.249-.141-.249-.141-.461-.212z" fill="#fefefe"/><path d="m276.852 337.767-.673-.355-1.521-3.043c.035 0 .565-.036.813-.283.248-.248 1.204-.744 1.877-1.239.636.707 1.274 1.38 1.947 2.052.567.567 1.132 1.133 1.734 1.665z" fill="#a3a4a4"/><path d="m321.247 322.617c1.205-1.806 2.231-3.646 3.187-5.486.106.318.212.601.247.921 0 0 .957 4.106-3.434 4.565z" fill="#a3a4a4"/><path d="m283.154 334.333c-.567-.53-1.098-1.062-1.629-1.592-.743-.744-1.451-1.522-2.124-2.266.318-.814.743-1.946 1.062-2.902.992 1.133 2.018 2.301 3.115 3.397-.07.744-.282 2.301-.424 3.363zm7.045 3.894-.779-1.628-.318-.673s-.036 0-.036-.035c.885.708 1.806 1.38 2.761 2.053-.885.212-1.628.283-1.628.283z" fill="#979797"/><path d="m282.517 335.572c-1.311-1.239-2.549-2.478-3.718-3.752.107-.141.213-.353.319-.601.071-.212.177-.461.283-.744.673.744 1.381 1.522 2.124 2.266.531.53 1.062 1.062 1.629 1.592-.071.531-.107.956-.107 1.098 0 .071-.035.141-.106.141-.142 0-.389-.212-.389-.212 0 .071 0 .142-.035.212zm-.638 1.522-.567-.601-.283.071c-.602-.532-1.167-1.098-1.734-1.665-.673-.672-1.311-1.345-1.947-2.052.071-.071.177-.106.212-.177.389-.284.673-.355.956-.567 1.238 1.381 2.549 2.69 3.965 4-.07.531-.106.92-.106.92z" fill="#141515"/><path d="m282.481 336.103c-1.416-1.31-2.727-2.619-3.965-4 .106-.071.177-.141.283-.283 1.169 1.274 2.407 2.513 3.718 3.752 0 .177-.036.354-.036.531z" fill="#a3a4a4"/><path d="m299.05 287.292v-3.08c.106-.034.212-.071.283-.106.035-.035.035-.035.071-.035zm1.345.319-.036-1.133h.249zm1.381.176.071-1.238h.282zm1.346.32.247-1.488h.354zm1.309.424.496-1.841h.46zm1.31.531.779-2.301c.142.035.283.141.495.284zm1.204.673.955-2.124c.143.106.284.212.426.283zm1.167.778 1.099-1.982c.141.106.282.212.424.318zm1.099.85 1.203-1.77c.141.106.213.248.319.354zm.991.956 1.062-1.275c.07.106.107.248.142.354zm.92 1.062.814-.85c.036.106.071.177.106.247zm.814 1.096.779-.637c.036.071.071.142.142.177zm.709 1.204.955-.672c.071.07.142.141.177.212zm.602 1.274 1.344-.778c.071.106.143.177.249.283zm.495 1.274 1.77-.778c.072.106.142.248.248.389zm.354 1.345 2.159-.743c.071.107.106.213.178.354 0 .036 0 .071.036.142zm.248 1.381 2.16-.531c-.035.142-.035.318-.072.46zm1.735 1.486-1.594-.106 1.7-.283c-.036.142-.071.248-.106.389zm-.389 1.488-1.205-.214 1.275-.07c-.035.07-.035.176-.07.284zm.07 1.521-1.416-.353 1.381.034c0 .107.035.213.035.319zm.46 1.77-2.124-.743 1.947.212c.071.177.106.354.177.531zm.708 2.053-3.186-1.451 2.868.566c.106.318.212.638.318.885zm5.559 4.884-2.16-1.026-7.08-4.036 4.886 1.488c1.097.707 2.902 2.017 4.354 3.574zm-9.913 2.407-2.372-2.831 3.363 2.548c-.283.036-.602.106-.991.283zm-1.487.885-1.876-2.76 2.513 2.301c-.212.141-.39.283-.637.459zm-1.204 1.204-1.771-3.114 2.302 2.513c-.177.177-.354.389-.531.601zm-1.168 1.557-1.77-3.893 2.336 3.08c-.106.177-.247.389-.39.566-.035.106-.106.176-.176.247zm-1.31 1.557-1.664-4.777 2.443 3.929c-.248.283-.496.601-.779.848zm10.62.921-1.805-1.877c.355-.424.814-.813 1.487-1.061 0 0 .071-.035.142-.07l2.656 2.336c.069-.072.141-.141.176-.249l-2.548-2.229c.459-.319.92-1.062-1.275-2.407-.992-.602-1.7-.779-2.159-.85l-3.577-3.61 6.691 4.213 4.213 3.043c.036-.07.106-.177.143-.247l-4.001-2.939-6.232-5.168 7.082 3.611 4.389 2.584c.036-.071.106-.177.142-.248l-4.249-2.548-6.655-4.601 7.364 2.937 3.008 1.451c.602.743 1.134 1.558 1.417 2.372-.956 1.84-1.982 3.68-3.187 5.486-.247 0-.53.036-.814.036h-.106s-.354-.036-.85-.036c-.389 0-.92 0-1.452.071zm-12.142.495-1.452-5.663 2.443 4.779c-.426.424-.815.743-.991.884zm9.842.567-.213-.283c0-.567.035-1.523.531-2.372l1.629 1.664c-.85.177-1.523.496-1.947.991zm-11.223 2.726-.106-.531-1.274-7.999 2.372 5.875-.39.672s-.354 1.309-.602 1.983zm-1.629 4.035-.566-4.177-.531-8.07 2.266 7.609.283 1.133c-.177.532-.212.885-.212 1.345 0 .532-.32 1.168-.956 1.841-.106.106-.178.212-.284.319zm-2.408 1.557-.247-5.522.177-8.105 1.593 7.787.638 4.636c-.354.496-.603.921-.603.921zm-.991.178-.424-.143v-13.344l.85 7.646.247 5.734z" fill="#979797"/><path d="m297.032 284.638-.142-.638h.814v.355c-.212.106-.424.176-.672.283zm-1.557.636-.355-1.239c.283 0 .567 0 .85-.035l.07 1.027c-.141.07-.282.141-.424.212-.035 0-.107 0-.142.035zm-1.488.602-.496-1.238c.283-.107.532-.213.779-.32l.213 1.345s-.036.037-.071.037c-.142.07-.283.106-.426.176zm-1.451.602-.602-1.168c.212-.107.496-.213.743-.319l.318 1.275c-.141.07-.318.141-.459.212zm-1.452.708-.708-1.133c.213-.141.46-.247.708-.39l.461 1.276c-.177.07-.32.141-.461.247zm7.931.354-.355-3.185c.143-.037.249-.071.39-.143v3.08zm-1.381.071-.567-2.655c.213-.071.425-.142.602-.212zm-1.381.176-.672-2.23c.141-.071.318-.141.495-.212zm-1.38.319-.779-1.947c.141-.07.318-.141.459-.212zm-5.028 0-.814-1.061c.177-.177.354-.32.566-.496l.602 1.238c-.142.107-.248.213-.354.319zm3.717.425-.885-1.77c.071 0 .106-.036.177-.071s.141-.071.212-.106zm-1.274.531-.992-1.593c.106-.071.213-.141.355-.212zm-3.363.353-.957-1.025c.143-.214.249-.39.39-.603l.744 1.31c-.071.106-.142.212-.177.318zm2.124.32-1.027-1.345c.106-.106.212-.177.318-.284zm-1.133.778-.814-.884c0-.037.035-.037.035-.071.035-.072.071-.143.106-.178zm-1.735.247-1.027-.919s0-.036.035-.036c.072-.176.143-.319.249-.46l.849 1.239c-.035.07-.07.106-.106.176zm.637.603-.425-.389c0-.036.036-.071.036-.108.035 0 .035 0 .035-.034l.355.531zm-1.274.742-1.062-.813c.035-.106.106-.248.177-.354l.92 1.098c0 .034-.035.069-.035.069zm.283.214-.071-.036zm-.921 1.062-1.026-.673c.035-.071.071-.177.106-.248zm-.814 1.096-.885-.424c.035-.071.071-.142.106-.177zm-.744 1.204-.53-.213v-.141zm-.602 1.274-.035-.035zm-.92 9.558c0-.036 0-.036.035-.036h.037zm-1.027 1.981c.036-.141.071-.283.142-.424l1.346-.248zm-.565 2.054c.069-.214.106-.461.177-.744l2.335-.709zm-.143 2.087c-.035-.353-.035-.672-.035-.956l3.292-1.308zm.284 2.018c-.071-.353-.141-.743-.178-1.132l3.895-1.983zm.248 2.301c0-.178.035-.354.035-.567-.071-.283-.106-.601-.177-.956l4.425-2.76zm-.956 3.965c.071-.177.141-.32.247-.497.071-.212.177-.459.32-.707.069-.106.106-.177.177-.249.106-.318.141-.672.176-1.38 0-.106.036-.247.036-.389l5.204-3.964-5.098 6.088zm8.744 1.38c-.247-.318-.53-.638-.85-.956l2.727-4.353zm1.346 2.372c-.212-.567-.496-1.168-.921-1.806l2.726-5.345zm-10.657.566c0-.85-.177-1.805.071-2.62.106-.389.177-.708.247-.991l1.417-1.487 5.983-5.45-4.531 6.513zm4.745 2.513 1.273-2.301v.035c-.318 1.381-.849 1.947-1.273 2.266zm-2.267 3.22c-1.097-1.096-2.123-2.264-3.115-3.397.284-.744.496-1.416.566-1.771l3.399-4.282 5.488-5.981-3.93 6.937-3.469 5.238c.07.071.141.142.212.213l3.434-5.168 4.886-6.442-2.479 5.486c-.459.567-.814 1.274-1.168 2.407l-2.301 4.319c-.567.637-1.381 1.522-1.523 2.441zm15.472 1.133-.602-.177-.142-1.274-.141-.672c-.071.071-.178.177-.248.283l.176-3.717.922-8.034.035.247zm-4.426 4.284 1.381-9.982 1.629-7.964.176 7.964-.212 4.565c-.602 1.204-1.876 3.54-2.372 4.425-.318.566-.496.814-.602.992zm-2.797 1.557c-.955-.673-1.876-1.345-2.761-2.053-.176-.672.319-1.31.638-2.088.247-.602.991-2.124 1.664-3.611.318-.708 1.168-2.548.566-4.92l2.939-7.327-1.24 7.857-2.088 9.168c.106.072.176.141.282.178l2.09-9.132 2.336-7.752-.531 7.929-1.416 10.512s.035 0 .07.035h-.035c-.318.602-1.522.992-2.514 1.204z" fill="#8a8a8a"/><path d="m323.017 314.759-3.008-1.451 2.266.921-1.948-1.098 2.16 1.026c.177.213.353.39.53.602zm.39 3.009-4.389-2.584 2.159 1.062-1.877-1.274 4.249 2.548c-.036.071-.106.177-.142.248zm-1.381 2.159-4.213-3.043 2.09 1.309-1.735-1.452 4.001 2.939c-.037.07-.107.177-.143.247zm-40.465 1.275c.035-.107.071-.177.106-.283l1.062-1.098zm-.143.424c.037-.106.072-.177.107-.248l1.31-1.239zm39.087.39-2.656-2.301c.035-.035.07-.035.106-.071l.496.354-.426-.389c.037-.035.072-.035.108-.071l2.548 2.229c-.035.108-.107.177-.176.249zm-2.833.743-1.629-1.664c.036-.035.036-.07.071-.106l.744.708-.673-.814s.035-.035.035-.071l1.805 1.876c-.106.035-.212.035-.282.071zm-2.125 1.239s-.035-.213-.035-.531l.213.283c-.072.071-.106.177-.178.248zm-34.518 1.804c.036-.176.036-.353.071-.565l3.187-4.035-1.381 2.018 1.522-1.7zm23.473.744-.106-.601.106.531zm-.177.46-.283-1.133.318.992c0 .07-.035.106-.035.141zm-21.596.921c-.071-.071-.142-.142-.212-.213l3.469-5.238-1.203 2.089 1.38-1.806zm2.372.602 2.301-4.319c-.035.106-.035.212-.07.318l-.567 1.239.424-.672c-.035.106-.035.212-.071.354l-1.273 2.301c-.177.177-.354.283-.461.424-.071.106-.177.212-.283.355zm17.525 2.335-.638-4.636.496 2.372-.177-2.266.566 4.177c-.071.141-.177.247-.247.353zm-5.028.106.212-4.565.036 2.407.247-2.266-.176 3.717v.071c-.071.106-.177.318-.319.636zm2.549 1.169-.247-5.734.247 2.407.071-2.266.247 5.522zm-8.32 3.009c-.106-.037-.176-.106-.282-.177l2.088-9.169-.354 2.372.638-2.158zm2.549 1.592c-.035-.035-.07-.035-.07-.035l1.416-10.512-.178 2.407.461-2.195-1.381 9.982c-.106.141-.177.212-.248.353z" fill="#827955"/><path d="m297.704 284.355v-.355h.885c-.106.035-.176.071-.247.106-.177.071-.39.143-.638.249zm-1.664.672-.07-1.027h.92l.142.638c-.319.141-.637.247-.992.389zm-1.557.636-.213-1.345c.248-.106.495-.177.709-.283h.141l.354 1.239c-.319.106-.637.249-.991.389zm-1.488.603-.318-1.275c.248-.141.532-.247.814-.353l.495 1.238c-.318.142-.671.283-.991.39zm-1.45.673-.461-1.276c.071 0 .106-.034.141-.069.249-.108.461-.178.709-.284l.602 1.168c-.248.106-.496.212-.744.318-.071.071-.177.106-.247.143zm-1.381.848-.567-1.238c.248-.177.496-.354.779-.496l.708 1.133c-.354.177-.638.389-.92.601zm-1.062 1.31-.744-1.31c.106-.106.177-.212.283-.318.106-.141.249-.283.39-.424l.814 1.062c-.07.069-.141.141-.213.212-.177.212-.318.424-.495.672 0 .035-.035.071-.035.106zm-.815 1.487-.849-1.239c.177-.319.353-.637.53-.955l.957 1.025c-.143.214-.249.426-.39.709-.071.07-.142.212-.177.318-.035.035-.071.071-.071.142zm-.708 1.452-.92-1.098c.177-.425.353-.814.495-1.097l1.027.919c-.176.355-.39.815-.602 1.276zm30.872 27.962-.496-.354c.035 0 .07-.035.07-.035zm-1.593 1.699-.744-.708c.035-.035.035-.07.071-.106zm-30.093 4.07.567-1.239c-.036.178-.106.355-.143.567zm13.382 3.045-.247-2.407-.85-7.646-.035-.247-.922 8.034-.247 2.266-.036-2.407-.176-7.964-1.629 7.964-.461 2.195.178-2.407.531-7.929-2.336 7.752-.638 2.158.354-2.372 1.24-7.856-2.939 7.326c-.036-.177-.107-.389-.177-.601l1.805-7.151-2.726 5.345c-.141-.177-.282-.354-.425-.566l1.876-5.309-2.726 4.353c-.106-.106-.212-.212-.282-.283-.248.212-.497.46-.709.743l2.479-5.486-4.886 6.442-1.38 1.806 1.203-2.089 3.93-6.937-5.488 5.981-1.522 1.7 1.381-2.018 4.531-6.513-5.983 5.45-1.311 1.239c0-.07.037-.106.037-.176l1.168-1.381 5.098-6.088-5.204 3.964v-.743l4.283-4.283-4.425 2.76c-.035-.247-.07-.495-.106-.778l3.717-3.114-3.895 1.982c-.035-.283-.07-.603-.106-.886l3.293-2.264-3.328 1.309v-.248s.071-.354.178-.884l2.512-1.453-2.335.709c.106-.425.212-.884.388-1.31l1.488-.672-1.346.248c.106-.212.178-.426.284-.567 0 0 .318-.46.601-.99l.072-.036h-.072c.107-.178.213-.39.319-.567 0 0 .566-1.062 1.133-1.946 0 0 .247-2.124.141-2.939-.177-1.096-.389-2.194-.636-3.432-.037-.214-.072-.461-.072-.673l.035.035-.035-.035v-.177c0-.495.035-.921.107-1.275l.566.213-.566-.354c.106-.532.248-.956.389-1.274l.885.424-.779-.601c.035-.071.071-.142.106-.212.106-.142.249-.497.426-.956l1.061.673-.92-.921c.141-.355.318-.779.496-1.168l1.062.813c-.071.214-.177.426-.249.638-.389.85-1.344 2.372-1.45 2.549-.32.636-.283.956-.283 1.38-.037.177 0 .46.069.673.214 1.204.673 4.495.673 5.84l.284-.531c0-.284-.035-.602-.072-.92-.106-1.098-.353-2.938-.424-3.646-.071-.283-.106-.495-.141-.709-.036-.212-.071-.495-.071-.672 0-.424-.035-.707.283-1.38.07-.106.425-.638.743-1.274.071-.106.106-.142.106-.142s.355-.779.744-1.628l.071.036-.071-.036c.212-.461.461-.92.637-1.309l.425.389-.354-.532c.036-.034.071-.106.106-.212.177-.389.355-.707.532-.99l.814.884-.673-1.133c.248-.389.495-.707.779-.99l1.027 1.345-.709-1.629c.249-.212.567-.425.956-.637l.991 1.593-.636-1.805c.283-.142.602-.283.955-.461.036 0 .036 0 .071-.035l.885 1.77-.496-1.947c.355-.142.673-.283 1.028-.425l.779 1.948-.32-2.16c.249-.071.461-.177.708-.283.107-.035.213-.07.32-.107l.672 2.23-.177-2.442c.353-.142.673-.248.991-.389l.567 2.655.035-2.867c.389-.142.708-.283.991-.389l.355 3.185.035-.248.354-3.221c.035-.036.106-.071.176-.071-.07.035.036 2.407-.035 2.442l.814.036.036 1.133.213-1.133 1.239.071-.071 1.238.353-1.238 1.24.07-.247 1.488.601-1.488 1.204.036-.496 1.876.956-1.841 1.133.035v.037l-.779 2.3 1.274-2.017c.249.141.567.353.885.566l-.955 2.124 1.381-1.841c.318.213.602.425.885.637l-1.099 1.982 1.523-1.664c.248.213.461.39.637.566.036.037.107.106.142.178l-1.203 1.77 1.522-1.416c.248.389.389.744.531 1.097l-1.062 1.275 1.204-.921c.071.106.106.212.141.318.142.283.248.532.389.815l-.814.85.92-.603c.177.319.39.673.673 1.062l-.779.637.921-.46c.106.177.247.389.425.566.106.143.212.284.318.426l-.955.672 1.132-.46c.284.318.567.636.814.956l-1.344.778 1.593-.495c.212.318.46.636.672.991l-1.77.778 2.018-.389c.177.283.319.638.495.991l-2.159.743 2.373-.247c.07.283.07.637.035 1.097l-2.16.531 2.089-.071c-.072.39-.142.779-.248 1.168l-1.7.283 1.594.107c-.106.46-.248.884-.319 1.167v.037l-1.275.069 1.205.214c-.036.353-.036.778.035 1.203l-1.381-.035 1.416.353c.071.425.177.815.283 1.239l-1.947-.212 2.124.743c.106.39.249.814.39 1.168l-2.868-.566 3.186 1.451c.142.354.249.602.284.743 0 0 .354.178.921.567l-4.886-1.487 7.08 4.035 1.948 1.098-2.266-.921-7.364-2.937 6.655 4.601 1.877 1.274-2.159-1.062-7.082-3.645 6.197 5.203 1.77 1.451-2.09-1.309-6.691-4.212 3.577 3.609c-.143-.035-.284-.035-.355-.035h-.354c-.106 0-.248 0-.425.035l-3.363-2.548 2.372 2.831c-.248.107-.532.249-.85.426l-2.513-2.301 1.876 2.76c-.212.177-.46.391-.673.603l-2.301-2.513 1.77 3.114c-.213.212-.39.461-.602.744l-2.336-3.08 1.77 3.893c-.142.249-.319.461-.531.709l-2.443-3.929 1.664 4.777c-.178.178-.354.355-.531.532l-2.443-4.779 1.452 5.664c-.071.071-.142.106-.142.106l-.247.531-2.372-5.875 1.274 7.999.106.601c-.036 0-.036.036-.036.071-.035.071-.07.177-.106.249l-.318-.992-2.266-7.61.531 8.07.177 2.266-.496-2.372-1.593-7.787-.177 8.105z" fill="#827955"/><path d="m290.27 278.62c-.495-.354-1.345-1.062-1.841-2.301-.602-1.38-.85-2.902.106-4.247.744-1.027 2.054-2.088 4.177-2.266l1.594 4.07c-1.027-.919-1.841-1.237-2.443-1.237-.318 0-.602.106-.814.247 0 0-1.062 1.451-.46 2.902 0 0 .566 2.16 4.92 2.478 0 0 .637.036 1.699.106-2.371.036-4.672.106-6.938.248z" fill="#435b75"/><path d="m290.907 279.717c-.283-.106-.035-.742-.283-.885 0 0-.142-.071-.354-.212 2.266-.142 4.567-.212 6.938-.248.532.036 1.134.071 1.842.106v1.062c-2.089 0-4.142.071-6.125.142-.495-.142-.991-.318-1.416-.46 0 0-.178.142-.319.248-.141.141-.283.247-.283.247zm8.143.992c-1.842-.142-3.363-.355-4.674-.673 1.523-.036 3.081-.071 4.674-.071zm8.036.601c-1.309-.035-2.62-.106-4.001-.142-.636-.212-1.486-.353-2.371-.389-.602 0-1.134-.035-1.664-.07v-2.231c.318.036.673.036 1.027.071 1.84.106 3.822.248 5.097.566.603.178 1.062.39 1.346.638-2.443-.142-4.956-.213-7.47-.213v.425c2.655 0 5.31.071 7.859.212.249.355.249.744.177 1.133z" fill="#141515"/><path d="m294.376 280.036c-.531-.106-.991-.213-1.451-.354 1.983-.071 4.036-.142 6.125-.142v.425c-1.593 0-3.151.035-4.674.071zm12.533.141c-2.549-.141-5.204-.212-7.859-.212v-.425c2.514 0 5.027.071 7.47.213.177.106.318.283.389.424z" fill="#a3a4a4"/><path d="m303.687 281.416c-.141-.071-.283-.141-.459-.212.176 0 .353.035.495.035zm-3.079 5.062h-.249l-.07-2.796c.354-.142.673-.248.955-.283zm1.521.071h-.282l.212-3.044c.496.141.779.212.92.212zm1.594.07h-.354l.46-3.008c.39-.177.602-.532.637-.956.036-.071.036-.142 0-.212 0-.248-.141-.495-.318-.709l.071-.495c.53.036 1.097.036 1.628.071zm1.664.071-.46-.035 1.345-5.31c.248 0 .531 0 .779.036-.213.85-.956 1.699-1.062 2.053-.248.566-.495 1.204.035 1.982z" fill="#616160"/><path d="m304.148 281.734c-.071-.034-.141-.106-.249-.175-.069-.037-.141-.108-.212-.143l.036-.177h.496zm-3.789 4.744-.814-.036c.071-.035-.035-2.407.035-2.442.249-.106.497-.248.709-.318zm1.488.071-1.239-.071.636-3.079h.177c.143 0 .249 0 .355.035s.177.071.283.071zm1.522.07-1.24-.07.85-2.832h.106s.037.035.107.035h.036c.247 0 .459-.07.601-.141zm1.558.036-1.204-.036 2.124-5.309c.142 0 .283 0 .425.035zm1.593.07-1.133-.035.637-1.273c.106.177.248.318.424.495 0 0-.212.247-.212.46 0 .141.071.284.284.353z" fill="#5d5a4d"/><path d="m302.307 282.761h-.213l.071-.813c.461.176.637.424.531.672-.035.07-.141.106-.247.141h-.143zm-2.018.461-.036-1.31c.355-.106.673-.141.991-.141h.355l-.212.919c-.425.071-.673.283-1.098.532zm-1.239.601v-1.486c.177-.071.354-.177.566-.248l-.177 1.557c-.035 0-.071.036-.071.036-.141.035-.247.07-.318.141z" fill="#616160"/><path d="m298.589 283.965-.141-1.381c.177-.106.389-.177.602-.247v1.486c-.178.035-.319.106-.461.142zm-1.699.035-.141-.672c.459-.177.814-.318.955-.39 0 0 0-.034.036-.034l-.036 1.096zm-1.77.035-.035-.035h.035c.283-.142.567-.248.85-.354v.389z" fill="#585857"/><path d="m302.094 282.761c-.247-.035-.46-.071-.46-.071h-.247l.212-.919.035.035h.142c.141.071.283.106.389.142zm-2.655.885.177-1.557c.213-.071.461-.141.637-.177l.036 1.31c-.071.035-.142.071-.212.141-.248.106-.426.177-.638.283zm-1.735.354.036-1.096c.177-.108.425-.214.708-.32l.141 1.381v.035zm-1.734 0v-.354c.283-.106.531-.212.779-.318l.141.672zm-.991.035c.035 0 .07-.035.106-.035l.035.035z" fill="#5d5a4d"/><path d="m307.051 281.381c-.248-.036-.531-.036-.779-.036-.142-.035-.283-.035-.425-.035-.531-.035-1.097-.035-1.628-.071h-.496c-.142 0-.319-.035-.495-.035-.036 0-.071-.036-.143-.036 1.381.036 2.692.107 4.001.142-.035.035-.035.035-.035.071z" fill="#141515"/><path d="m296.253 275.47c-.495-.284-1.062-.708-1.7-1.31-.07-.106-.177-.176-.247-.284l-1.594-4.07c.213-.035.461-.035.709-.035h.424l2.019 5.168c.07.176.212.282.389.282v-.424zm1.734.531c-.495 0-1.062-.142-1.734-.531v-.249h2.336l.036.037.46.53c-.319.106-.672.213-1.098.213z" fill="#141515"/><path d="m302.059 272.568.07-.249h.214s-.106.106-.284.249zm-5.806 2.653c-.177 0-.319-.106-.389-.282l-2.019-5.168c.142 0 .249.035.39.035h.071l1.947 4.991zm2.336 0h-2.336v-.424h1.947z" fill="#7a725a"/><path d="m298.2 274.797h-1.947l-1.947-4.991c1.911.212 2.761 1.027 3.753 1.594 1.486.849 3.469.919 4.07.919l-.07.249c-.495.354-1.558 1.096-2.691 1.345-.565.106-.991.141-1.275.141-.565 0-.672-.141-.672-.141z" fill="#a3a4a4"/><path d="m324.681 316.494c-.672-4.177-7.47-8.071-7.47-8.071-.212-.601-1.592-3.61-1.062-5.415.284-.991 1.097-3.151.284-5.38-.849-2.266-2.054-3.222-3.151-4.602-1.098-1.345-1.381-2.123-1.735-2.867-.319-.744-.531-1.557-1.275-2.336-.743-.743-3.221-2.372-3.752-2.655-.567-.283-.071-.813-.071-.813.815-.744 1.274-1.382 1.557-2.054.284-.673.851-3.752-2.832-4.743-1.275-.354-3.257-.46-5.097-.566-2.656-.142-4.567-.283-4.567-.283-4.355-.318-4.921-2.478-4.921-2.478-.602-1.451.46-2.265.46-2.265.637-.46 1.77-.46 3.504 1.238 2.266 2.195 3.824 1.805 4.815 1.522 0 0-.708-.601-1.097-.991-.602-.672-.85-1.38-.85-1.38s.283.319 1.947-.036c1.558-.283 2.975-1.557 2.975-1.557s-2.514.106-4.284-.921c-.992-.601-1.842-1.415-3.824-1.592-3.045-.283-4.78.991-5.7 2.265-.956 1.345-1.239 3.399-.638 4.779.744 1.84 2.196 2.512 2.196 2.512.247.143.531.249.814.355 0 .035.035.035.071.035 2.124.779 5.488.886 9.736 1.027 1.345.071 2.549.318 3.185.778.355.248.567.532.567.885.036.071.036.142 0 .213-.035.636-.495 1.097-1.274 1.062h-.106s-.354 0-1.31-.283c-.673-.212-1.593.283-2.443.636-.602.283-2.301.886-4.072 1.593-.814.318-1.663.673-2.407 1.027-.071.035-.177.07-.248.106-1.876.885-2.655 1.38-3.469 2.761-.177.319-.355.637-.567 1.062-.035.106-.07.177-.141.247-.496 1.062-1.417 3.01-1.417 3.01s-.035.07-.106.176c-.318.602-.673 1.169-.743 1.275-.318.672-.283.956-.283 1.345 0 .212.035.495.071.707.035.177.07.426.141.709.071.707.318 2.548.425 3.645.036.319.071.637.071.92l-.284.532c0-1.345-.459-4.638-.672-5.841-.07-.212-.107-.495-.107-.672.037-.426 0-.744.32-1.381.106-.176 1.061-1.735 1.451-2.584.354-.849.815-1.805 1.062-2.265.035-.142.106-.248.177-.354.212-.425.425-.779.602-1.097.177-.248.318-.46.495-.673.461-.531 1.063-.992 2.16-1.522.779-.354 1.699-.743 2.62-1.098.39-.176.814-.318 1.204-.495 1.239-.495 2.23-.92 2.726-1.097v-.036c.212-.07.602-.212 1.026-.389.212-.106.461-.212.709-.318.602-.319.849-.673 1.451-.673h.106s.495.106.815.071c.106-.036.212-.071.247-.142.142-.318-.212-.602-.92-.814-.106 0-.142-.036-.142-.036-.602-.07-1.275.071-2.018.32-.778.283-1.486.601-1.912.813-.283.177-1.344.603-2.584 1.062-1.24.496-2.69 1.098-3.895 1.628-1.203.567-2.017 1.168-2.619 1.877-.566.707-.956 1.451-1.417 2.335-.53.956-1.486 3.363-1.77 3.858-.318.567-1.168 1.416-1.203 3.08 0 .248.035.566.106.849.249 1.239.425 2.337.602 3.434.142.815.354 2.938.354 2.938-.566.885-1.133 1.947-1.133 1.947-.39.743-.92 1.593-.92 1.593-.673.956-1.169 3.929-1.169 3.929-.106 1.274.355 3.398.602 4.955-.035.672-.035 1.274-.071 1.699-.035.708-.07 1.062-.176 1.38-.071.071-.107.142-.177.249-.143.247-.249.495-.32.707-.353.672-.496 1.204-.743 2.195-.283.99.071 2.229-.142 3.185-.212.956-1.451 4.249-1.911 5.416-.496 1.168-.85.92-1.558 1.451-.673.567-1.805 1.133-2.089 1.417-.248.247-.813 1.84-.813 1.84l1.521 3.043.673.355 5.204-1.417s.319-1.769.39-2.584c0 0 .602.426.602.071 0-.318.389-3.326.53-4.424.142-1.097 1.311-2.158 1.806-2.796.39-.46 1.275-.673 1.734-2.69.532-2.619 1.205-3.54 2.161-4.424 4.389 4.141 2.584 8.035 2.089 9.132-.673 1.486-1.417 3.008-1.664 3.61-.319.779-.814 1.451-.602 2.124l.318.673.779 1.628s3.54-.426 4.142-1.487c.212-.319.283-.248.885-1.346.638-1.096 2.408-4.459 2.691-5.096.035-.106.176-.247.248-.319l.141.673.142 1.274 1.026.318 2.549-.459s.532-.921 1.134-1.593c.636-.673.956-1.311.956-1.841 0-.566.035-.992.353-1.77.249-.602.638-2.088.638-2.088l.637-1.204s2.089-1.699 3.15-3.327c2.621-4.07 5.276-3.716 5.276-3.716s.92-.177 2.691.884c3.151 1.947.849 2.619.849 2.619-2.69.956-2.16 4.248-2.16 4.248.39-.637 1.204-1.062 2.196-1.238 1.345-.248 2.584-.142 2.584-.142 5.417.071 4.354-4.566 4.354-4.566zm-31.898 13.025-.673.461c.036-.141.39-.814.638-1.451.531-1.274 1.876-5.133-2.655-9.77.283-.318.283-.212.247-.247.142.176 2.939 2.902 3.364 5.875.176 1.345.035 3.151-.921 5.132z" fill="#141515"/><path d="m293.209 297.805c-.638 1.734 1.522 5.344 1.522 5.344-1.204-1.769-1.736-1.769-2.656-2.866-1.451-1.628-1.77-5.488-1.77-5.488-.283-3.008 1.77-3.291 3.434-3.22s4.815 1.486 6.869 4.496c1.486 2.229 2.159 3.999 1.735 5.309-.284.778-.638.99-.991 1.274 0 0-.426.283-.673.495-.143.142-.143-1.097-1.417-4.035-1.911-4.388-4.213-4.566-4.85-4.672-.744-.177-2.408 0-2.231 1.629l.213.99s-.141-.884 1.345-.99c0 0 3.469-.355 5.346 4.601 0 0 .85 2.725.603 4.388 0 0-.673-2.264-1.488-4.247-.849-1.946-2.549-3.15-3.327-3.434-.744-.318-1.417-.175-1.664.426z" fill="#c4c5c5"/><path d="m296.146 320.422c-.141-.247.779-1.875 1.062-2.052.32-.141 1.595-.602 2.266-.602.673 0 1.062.247 1.205.602.141.389.601 1.593.601 1.593s.779.991 1.239.885c.603-.143 2.124-.744 2.267-.532.141.248-.071.532-.284 1.062-.248.531-.709 1.345-.921 1.416s-1.132.389-1.132.389l.389-.813.531-.32s.673-.212.142-.283c-.532-.106-1.062.071-1.346.214-.283.141-.46.141-.601.459-.177.283-.709.743-.709.743l-1.451-1.025s-.46-.32.07-.992c0 0 .532-.283.32-1.062-.249-.744-.32-1.345-.709-1.274-.354.071-.425.461-.425.814 0 .389-.389.708-.601.92-.249.213-.178.602-.531.744-.39.177-.603 0-.673-.213-.106-.212-.709-.673-.709-.673z" fill="#aeafb0"/><path d="m319.477 317.096c0-1.416-1.77-2.549-2.655-3.01-1.876-1.061-5.31-1.734-5.31-1.734.566-.424.672-1.097.672-1.097 1.771.284 3.965.921 6.62 2.974 1.735 1.345 1.735 3.433 1.735 3.433s.425-1.098-.318-2.584c-.885-1.77-3.363-3.398-5.275-4.177-1.098-.424-2.62-.814-2.62-.814s.036-1.098-.142-2.478l.602.213s7.719 3.115 9.842 7.044c0 0 2.09 3.61-1.416 4.92-1.451.566-1.876.106-3.187.318 0 0-.991.106-1.627.885 0 0 .177-1.523 1.274-2.088 1.062-.566 1.735-.78 1.805-1.805z" fill="#aeafb0"/><path d="m306.095 312.458.39.886c.141.389-.638 2.158-.638 2.158l-.743 1.947c-.106.672-.461 2.266-.461 2.266s-.814.035-1.451 0c-.284 0-.354-.071-.531-.212-.885-.815-1.168-1.417-1.452-2.16-.318-.779-.991-.779-.991-.779s-1.805.071-2.478.177c-.673.072-.744.213-1.133 1.027-.39.85-.885 2.265-1.275 1.523-.389-.744-.071-1.594-.071-2.195 0-.602.355-2.69.532-3.611.141-.92-.249-1.416-.249-1.416l-.353 1.204c-.389-.248-1.593-2.053-1.664-2.584-.071-.532.531-.885.531-1.877 0-.565-.425-1.698-.92-2.902.034 1.877-.284 3.965-.744 4.708-1.416 2.231-1.239-1.415-1.239-1.415.141-1.416.141-3.328.141-3.328-.071-3.079-2.655-6.584-2.655-11.114-.035-2.584 1.416-4.673 2.16-5.629s2.124-2.371 4.637-2.937c.922-.212 2.868-.601 3.754-1.098.885-.459 1.309-1.026 1.77-1.026.496 0 .955 0 1.84 1.239.921 1.239 2.337 3.009 3.01 5.061.708 2.054 1.097 6.69.636 9.274-.495 2.619-1.026 1.38-1.521.85-.461-.566-3.859-6.442-6.656-8.282-3.398-2.231-6.62-1.771-7.47-1.133-.885.601-1.983 1.38-1.098 5.486.496 2.372 1.133 3.504 1.842 4.565.035.071.212.391.389.532l.141.106c2.195 1.84 2.372 2.407 3.789 4.106 0 0 .353-.921-.744-3.54-.92-2.088-1.593-3.397-.637-3.894 1.204-.601 3.186 3.116 3.541 4.143.459 1.38.848 3.22.848 3.752 0 0-.318.459-.53.813-.212.389-.532 1.062-.142 1.734.354.673 1.274 1.274 2.479 1.594l1.203.283-1.381 5.38.496.141s.991-3.291 1.309-3.893c.284-.566.673-.389 1.275-.283h.106z" fill="#fefefe"/><path d="m303.511 310.193c-.319-.884 2.796 1.274 3.151 1.593.353.319-.567.177-.567.177l.637.248c.319 0 .567 0 .885-.035.177-.036 1.346-.142 1.346-.142s1.592-.602 1.982-2.867c.106-.602.319-1.876.177-2.336-.177-.46-2.761-1.416-2.761-1.416s-2.195-2.796-2.478-3.257c-.32-.53-1.311-.919-1.77-.778-.461.142-.496 1.027-.496 1.027s-.213.46-.673.919c-.46.426-.885.638-1.062 1.027-.071.177-.106 2.089-.318 3.363-.106.672.318 1.204.743 1.911 0 0 .672 1.027 1.345 1.38 0 0 .141 0-.141-.813z" fill="#fefefe"/><path d="m282.446 322.971s.567.814.779 1.629c.177.813.247 1.167-.071 1.982-.355.814-.708 6.583-1.736 7.362-.459.389-.389.778-.53 1.168-.141.425-.885.955-1.452 1.026-.53.071-1.77.673-1.77.496 0-.212 1.168-2.548 1.168-2.548s0-.461-.601-.283c-.638.212-1.593 2.478-1.593 2.478s-1.275-1.7-1.169-2.054c.141-.353 1.027-1.38 1.381-1.486.353-.142 2.017-.779 2.513-1.239.497-.426 1.027-1.31 1.311-2.195.212-.637.566-2.052.742-2.938.214-.885 1.028-3.398 1.028-3.398z" fill="#fefefe"/><path d="m278.763 332.352s-1.274.495-1.699.636c-.424.142-.991 1.204-.991 1.204l.85 1.628 1.061-1.699s.638-.567.638-.071c0 .248-1.062 2.053-.708 2.053.07 0 .531 0 .637-.036.708-.283 1.982-.813 1.982-.813s-.212-.638.143-1.062c.353-.426.707-.779.779-.991.07-.213.353-2.726.353-2.726s-.92 1.381-1.416 1.381c-.495 0-1.133.424-1.629.496z" fill="#aeafb0"/><path d="m295.155 325.839c-.141-.319.036 1.592-.247 2.088-.355.567-.85 2.053-1.523 2.548-.673.46-1.097.956-1.558 1.098-.496.141-1.381.673-1.381.673s-.53.566-.353 1.698l2.266-.956-1.913 1.77.603.744s1.026-.107 1.876-.603c.814-.46 1.275-.884 1.628-1.557.355-.672 2.798-5.451 3.081-5.804.283-.354.743 0 1.31-.567.53-.531 1.062-1.416 1.203-1.841.142-.389.354-1.132 0-1.097-.318.071-.283.106-.955.779-.567.601-1.275 1.061-1.984 1.204-.955.247-1.627.566-2.053-.177z" fill="#fefefe"/><path d="m298.803 328.494c.141.282.176 1.168.176 1.168l1.664-1.983.389-.071-1.416 1.982 2.231-.566s1.238-1.274 1.238-1.699c0-.39 0-1.912-.212-2.513-.177-.637-.673-.637-.956-.425-.247.213-.814.496-1.026 1.097-.177.602-.744 1.7-.991 2.054-.284.353-1.097.956-1.097.956z" fill="#fefefe"/><path d="m290.446 332.246s-.176 1.308.178 1.451l1.735-.709.318.142-1.699 1.7.283.282s1.593-.213 2.124-.708c.956-.92 1.38-2.195 1.38-2.195s.32-.884-.318-.495c-1.203.707-4.001.532-4.001.532z" fill="#aeafb0"/><path d="m302.908 327.361c-.141.424-1.274 1.557-1.274 1.557l-1.416.283 1.275-1.911-.779.283-1.346 1.628-.283-.707 1.416-1.417s.708.141 1.275-.071 1.062-.849 1.062-.849z" fill="#aeafb0"/><path d="m307.617 288.92s-1.593-2.159-1.451-1.203c.141.956 1.699 3.043 1.77 6.194.07 3.15-.142 4.991.07 6.23.214 1.239 1.099 1.77 1.701 1.699.636-.071 1.309-.142 2.406-1.628 1.098-1.522.461-3.894-.283-4.991-.743-1.098-1.558-2.478-2.372-3.752-.85-1.31-1.841-2.549-1.841-2.549z" fill="#fefefe"/><path d="m296.466 286.478s.53-.142 2.053-.425c1.487-.247 1.487-1.203 2.195-1.097.673.141 1.345.85.389 1.912-.956 1.096 1.664 4.919-1.097 3.008-2.726-1.912-3.187-1.806-4.072-2.442-.814-.603-.425-.673.532-.956z" fill="#aeafb0"/><path d="m290.907 270.797s2.726-.813 4.39 1.664c0 0 .673 1.168 1.948 1.309 0 0-1.24-.53-1.169-2.264 0 0 1.876.955 4.815-.249 0 0-1.947.39-3.505-.354-1.026-.495-1.735-.848-3.434-.919 0 0-2.443 0-3.045.813z" fill="#aeafb0"/><path d="m308.785 312.706c-.141.035-.53.071-.92.106-.106.037-.601.284-.638.284-.247.142 2.798.707 2.904-1.133-.355.248-1.062.672-1.346.743z" fill="#fefefe"/><path d="m300.714 279.222c-4.886-.141-8.639-.247-10.621-1.417 0 0-1.381-.707-2.125-2.3 0 0 .673 2.265 2.621 3.327 2.832 1.522 4.531.85 9.558 1.168 1.841.142 2.761.603 2.549 1.062-.106.248-1.062.071-1.062.071-.672-.035-.92.318-1.557.673-.744.318-1.382.566-1.735.743-.496.177-1.487.602-2.726 1.097-1.24.495-2.691 1.062-3.824 1.593-1.097.531-1.699.991-2.16 1.522-.46.567-.814 1.203-1.274 2.124-.247.46-.708 1.416-1.062 2.265-.39.849-1.345 2.408-1.451 2.584-.32.637-.283.955-.283 1.381-.037.177 0 .46.07.672.213 1.203.672 4.496.672 5.841l.284-.532c0-.283-.035-.601-.071-.92-.107-1.097-.354-2.938-.425-3.645-.071-.283-.106-.532-.141-.709-.036-.212-.071-.495-.071-.707 0-.389-.035-.673.283-1.345.07-.106.425-.673.743-1.275.071-.106.106-.176.106-.176s.993-2.125 1.488-3.151c1.167-2.337 1.805-2.832 4.106-3.929 2.337-1.098 5.807-2.301 6.727-2.726.85-.353 1.77-.848 2.443-.636.956.283 1.31.283 1.31.283s.778.106 1.168-.461c.177-.212.212-.601.212-.601.142-1.204-1.593-1.805-3.752-1.876z" fill="#fefefe"/><path d="m297.492 270.974c-.177-.071-.247-.141-.39-.247-.283-.177-1.132-1.098-3.292-1.098-1.168 0-2.301.283-3.08.85-1.593 1.098-1.239 2.513-1.239 2.513s-.036-1.097 1.098-2.053c.212-.106 1.592-.921 3.15-.921 1.063 0 1.629.072 3.4.992.459.247 1.38.247 1.38.247-.071-.034-.602-.106-1.027-.283z" fill="#f9f9f9"/><path d="m303.617 302.335s.07-.813.531-.99c.46-.143 1.203.283 1.664.601 1.239.956 3.363 2.69 3.363 2.69s2.265 1.557 2.372 2.513c.071.46.248 2.195.177 2.796l-1.805-2.052s-1.452.106-3.293 1.38l-.284-3.929z" fill="#aeafb0"/><path d="m297.492 307.75s.354 2.018 1.7 2.515l1.663.601-.176 1.097s-2.692-.602-3.151-1.947c-.355-.921-.248-1.239-.036-2.266z" fill="#141515"/><path d="m300.253 307.432s.461 1.912 1.168 2.513c.037.106-2.442-.742-1.168-2.513z" fill="#fefefe"/><path d="m292.783 329.519-.673.461c.036-.141.39-.814.638-1.451.531-1.274 1.876-5.134-2.655-9.77.283-.318.283-.212.247-.247.142.176 2.939 2.902 3.364 5.875.176 1.345.035 3.151-.921 5.132z" fill="#fefefe"/><path d="m289.632 307.078c.284-.885.355-1.521.319-2.513-.035-1.557-.354-2.442-.991-3.22-.531-.709-1.133.212-1.522.672-1.205 1.557-2.125 3.858-2.514 4.531-.425.707-.178 1.84.142 2.478.282.601.814.601 1.203 1.167.425.531-1.592 2.691-1.77 4.248-.283 2.159.071 4.353-.248 5.097-.353.743-.035 1.699 1.062 2.265 1.593.779 1.841-1.628 2.584-2.194.567-.461 1.028-1.027 1.488-1.912-.85-.601-2.655-3.752.247-10.619z" fill="#fefefe"/><path d="m289.526 278.797s2.443 2.265 5.806 2.053c2.478-.141 4.497.283 4.497.283l2.23-.389s.106-.567-1.451-.708c-1.523-.106-4.957.07-6.302-.071-1.806-.177-4.036-1.239-4.036-1.239z" fill="#141515"/></g></svg>